<?xml version="1.0" encoding="UTF-8" standalone="no"?>
<svg xmlns:ffdec="https://www.free-decompiler.com/flash" xmlns:xlink="http://www.w3.org/1999/xlink" ffdec:objectType="shape" height="29.35px" width="219.95px" xmlns="http://www.w3.org/2000/svg">
  <g transform="matrix(1.0, 0.0, 0.0, 1.0, 109.95, 14.7)">
    <path d="M9.2 -11.65 Q12.4 -14.3 16.5 -14.35 25.95 -16.05 31.5 -9.1 L32.0 -8.35 32.0 -7.6 32.0 -6.85 32.5 -6.1 33.0 -5.35 32.95 -3.85 32.4 0.7 Q32.15 1.95 31.25 2.9 L29.5 3.35 14.0 4.15 14.05 5.65 14.05 9.4 Q14.05 10.55 13.5 11.65 L13.0 12.1 12.5 12.35 11.5 12.65 10.1 12.0 9.25 11.4 Q8.85 5.8 9.05 0.15 9.25 -4.5 8.2 -8.9 8.05 -9.6 8.05 -10.35 L9.2 -11.65 M14.0 -2.1 Q20.5 -2.0 27.0 -2.2 L27.5 -2.6 27.6 -3.3 27.0 -4.85 26.95 -5.6 26.75 -6.35 Q22.25 -10.3 16.0 -8.85 L14.0 -8.1 14.05 -3.6 14.0 -2.1 M40.0 -5.85 L40.55 -6.0 41.5 -6.2 41.5 -6.35 Q50.45 0.1 56.7 9.2 L57.0 9.9 Q57.1 11.3 55.75 12.05 L54.5 12.65 49.15 7.95 48.5 8.4 Q43.4 9.7 39.75 7.75 39.0 10.65 37.05 13.15 36.05 14.45 34.5 14.65 L32.25 13.4 32.1 11.9 32.0 10.4 Q34.1 8.5 34.85 5.85 L35.0 4.4 36.25 2.9 36.75 2.15 36.95 0.65 37.0 -0.85 37.75 -1.6 37.95 -2.35 38.0 -3.1 38.0 -3.85 39.5 -5.35 40.0 -5.85 M79.7 -5.2 Q81.1 -5.0 81.0 -3.6 L80.65 -2.95 79.5 -1.6 78.5 -1.45 67.75 -0.85 67.0 0.0 Q65.65 2.35 66.0 5.15 L66.0 5.9 66.25 6.15 Q73.3 5.85 76.0 10.4 L75.65 11.05 74.5 12.4 Q69.3 13.75 64.45 11.9 62.2 11.05 61.0 8.9 L61.0 8.15 61.0 2.15 61.0 1.4 61.0 -1.6 61.45 -2.4 Q63.2 -6.05 67.5 -6.35 L79.7 -5.2 M84.0 -3.85 Q84.75 -4.5 85.6 -4.95 86.0 -5.25 86.5 -5.35 L88.45 -4.0 89.0 -3.35 89.0 2.85 89.5 2.65 Q91.3 3.05 93.0 3.7 92.8 2.5 93.5 1.65 99.65 -0.6 105.45 -3.2 L105.5 -3.35 Q108.55 -3.95 109.85 -1.3 L110.0 -0.6 109.65 0.05 108.5 1.4 97.5 5.95 Q100.9 8.15 103.65 11.5 L104.0 12.15 103.75 12.9 103.45 13.6 103.0 14.15 102.5 14.35 101.5 14.65 Q94.9 11.15 89.0 7.05 L89.0 10.15 89.0 11.65 Q88.15 13.4 86.45 14.3 L85.5 14.65 83.25 13.4 83.1 11.9 83.0 10.4 83.5 9.65 84.0 8.9 84.0 -2.35 84.0 -3.85 M44.1 2.85 L43.5 2.15 Q42.9 1.5 42.0 1.15 L41.95 2.55 44.1 2.85 M4.8 1.15 Q5.2 3.35 5.2 5.65 5.2 7.95 4.8 10.15 -3.05 17.2 -10.95 10.9 L-10.95 3.4 -10.95 -3.35 -10.65 -4.05 -9.95 -4.85 -8.5 -5.2 -8.45 -5.35 Q-1.15 -4.85 4.2 0.45 L4.8 1.15 M-103.45 -13.35 L-90.3 -12.15 Q-88.35 -11.85 -87.95 -9.85 L-88.2 -9.1 -88.55 -8.4 -88.95 -7.85 -103.65 -6.45 Q-105.0 -6.25 -104.95 -4.85 -97.35 -2.55 -89.5 0.85 -86.2 2.3 -86.2 6.15 -86.25 11.7 -91.55 13.3 -101.35 16.25 -108.15 10.3 -109.75 8.95 -109.95 6.9 L-109.8 6.35 Q-106.15 2.7 -103.95 7.15 L-103.7 7.3 Q-98.55 9.15 -92.95 8.15 L-92.3 7.35 -92.05 6.65 -91.95 5.9 Q-98.2 1.9 -106.9 0.65 -108.45 0.4 -109.7 -0.6 L-109.85 -1.35 -109.95 -8.1 -109.95 -8.85 -109.25 -9.6 Q-106.65 -12.5 -103.45 -13.35 M-73.45 -5.35 Q-67.1 -5.35 -63.5 -0.1 L-62.95 0.65 Q-62.95 1.75 -62.55 2.7 -61.75 4.55 -61.95 6.65 L-62.45 7.4 -62.95 8.15 -62.95 8.9 -62.95 9.65 Q-72.8 17.35 -82.95 8.9 L-82.95 7.4 -82.95 5.15 -82.95 4.4 -82.45 3.65 -81.95 2.9 -81.95 2.15 -81.95 1.4 Q-80.75 -2.2 -77.3 -3.8 L-73.45 -5.35 M-58.45 -2.35 L-57.9 -2.75 -56.45 -3.35 -54.55 -2.0 -53.95 -1.35 -53.95 2.4 -53.95 3.9 Q-50.15 9.2 -45.95 4.9 -46.5 0.9 -45.1 -2.65 L-44.7 -4.1 -43.95 -4.85 -42.5 -5.2 -42.45 -5.35 -40.55 -4.0 -39.95 -3.35 Q-38.55 7.9 -47.8 11.8 L-53.5 11.65 Q-56.55 10.25 -58.7 7.4 -59.15 3.3 -58.8 -0.85 L-58.45 -2.35 M-34.95 -2.85 Q-27.45 -2.85 -22.45 4.65 L-21.2 4.75 -20.7 4.65 Q-19.45 1.15 -19.7 -2.85 L-19.45 -4.35 -18.4 -5.0 -17.45 -5.35 -15.55 -4.0 -14.95 -3.35 Q-13.6 5.45 -19.25 11.9 -19.7 12.4 -20.45 12.65 -26.6 8.55 -31.95 3.9 L-32.15 9.15 -32.45 10.65 -33.0 11.05 -34.45 11.65 Q-35.6 11.0 -36.7 10.4 -37.8 4.2 -35.75 -1.5 L-34.95 -2.85 M-5.95 7.65 L-5.95 8.15 Q-2.95 8.95 -0.2 6.65 L0.05 4.4 Q-2.7 1.3 -5.95 0.9 L-5.95 7.65 M-67.9 4.9 L-67.95 3.4 Q-69.85 -0.1 -73.7 0.9 L-74.5 1.35 -75.7 1.9 -76.5 3.4 -76.95 4.15 -76.95 4.9 -77.05 5.65 -77.2 6.15 Q-73.15 7.45 -68.2 7.15 -67.8 6.05 -67.9 4.9" fill="#000000" fill-rule="evenodd" stroke="none"/>
  </g>
</svg>
