<?xml version="1.0" encoding="UTF-8" standalone="no"?>
<svg xmlns:ffdec="https://www.free-decompiler.com/flash" xmlns:xlink="http://www.w3.org/1999/xlink" ffdec:objectType="shape" height="129.35px" width="74.85px" xmlns="http://www.w3.org/2000/svg">
  <g transform="matrix(1.0, 0.0, 0.0, 1.0, 24.6, 128.45)">
    <path d="M9.1 -107.0 L8.0 -107.45 6.75 -108.5 Q3.35 -111.9 3.35 -116.75 3.35 -121.6 6.75 -125.05 10.2 -128.45 15.05 -128.45 19.9 -128.45 23.3 -125.05 26.7 -121.6 26.7 -116.75 26.7 -111.9 23.3 -108.5 20.15 -105.35 15.75 -105.1 15.45 -107.6 12.65 -108.25 L12.05 -108.15 11.8 -108.05 11.4 -108.25 Q10.1 -108.15 9.35 -107.15 L9.1 -107.0" fill="#0c0c0c" fill-rule="evenodd" stroke="none"/>
    <path d="M15.75 -105.1 L15.75 -104.35 22.35 -104.1 Q22.75 -105.65 24.5 -106.95 25.2 -107.5 26.15 -107.25 29.35 -106.4 29.65 -103.7 L42.85 -102.7 47.4 -101.65 Q50.9 -100.35 50.1 -96.7 49.2 -92.7 45.0 -93.6 41.95 -94.25 41.7 -97.1 40.7 -98.05 39.3 -98.0 33.9 -97.85 28.6 -98.05 L25.35 -84.05 Q24.95 -82.4 23.2 -82.4 19.55 -82.4 18.05 -86.05 L16.35 -90.55 Q15.1 -92.7 14.0 -95.0 L13.8 -95.6 13.0 -96.6 11.55 -85.45 Q11.3 -82.8 10.25 -80.4 9.5 -69.25 7.95 -58.3 9.95 -56.4 10.3 -53.1 10.45 -51.95 10.95 -50.8 L14.9 -41.65 Q16.7 -39.45 17.35 -37.0 19.5 -35.65 18.6 -32.25 17.6 -28.5 17.6 -24.4 17.7 -14.95 18.7 -5.7 23.55 -4.95 28.5 -3.05 L28.95 -2.4 Q29.5 0.45 26.6 0.75 19.75 1.55 14.3 -1.85 13.2 -2.5 13.1 -3.8 12.4 -13.65 12.35 -23.8 12.3 -29.1 12.7 -34.15 L11.75 -35.55 Q9.55 -39.9 7.9 -44.5 6.2 -47.45 5.05 -50.6 4.55 -49.6 4.2 -48.5 L3.9 -47.85 Q1.7 -36.0 -3.65 -25.15 -5.4 -21.5 -8.35 -18.8 -13.25 -14.35 -17.65 -9.5 -11.9 -5.95 -5.75 -3.5 -5.35 -3.35 -5.3 -2.85 -5.0 1.1 -9.25 0.3 -14.95 -0.8 -19.9 -3.9 -22.0 -5.2 -23.55 -7.15 -25.9 -10.05 -22.9 -12.7 -21.0 -14.35 -19.2 -16.15 -14.05 -21.2 -9.45 -26.8 -8.15 -28.4 -7.3 -30.25 L-5.6 -33.3 -1.1 -50.05 -0.55 -51.05 Q-0.25 -55.5 2.9 -58.45 L5.25 -80.55 5.8 -85.05 7.75 -100.65 7.55 -101.1 Q6.95 -103.55 8.35 -105.55 8.5 -106.45 9.1 -107.0 L9.35 -107.15 Q10.1 -108.15 11.4 -108.25 L11.8 -108.05 12.05 -108.15 12.65 -108.25 Q15.45 -107.6 15.75 -105.1 M23.1 -98.35 L18.25 -98.8 21.5 -92.4 21.75 -91.9 23.05 -98.3 23.1 -98.35" fill="#000000" fill-rule="evenodd" stroke="none"/>
  </g>
</svg>
