<?xml version="1.0" encoding="UTF-8" standalone="no"?>
<svg xmlns:ffdec="https://www.free-decompiler.com/flash" xmlns:xlink="http://www.w3.org/1999/xlink" ffdec:objectType="shape" height="160.3px" width="101.9px" xmlns="http://www.w3.org/2000/svg">
  <g transform="matrix(1.0, 0.0, 0.0, 1.0, 37.05, 140.15)">
    <path d="M24.95 -140.15 Q25.45 -139.75 25.5 -138.7 L25.7 -137.25 25.7 -136.85 25.7 -136.5 25.8 -136.2 25.95 -136.0 26.3 -135.5 Q27.05 -134.3 28.6 -133.85 L29.2 -133.9 29.45 -134.0 29.55 -133.9 30.75 -133.4 31.3 -133.55 31.75 -133.7 32.05 -134.0 32.75 -134.85 34.05 -135.3 34.25 -135.3 35.85 -135.1 39.4 -134.4 39.75 -134.25 40.2 -134.1 39.55 -131.65 39.05 -128.85 39.05 -128.75 38.75 -127.75 38.7 -127.35 38.7 -126.4 38.9 -125.5 39.3 -123.95 40.0 -122.0 Q41.45 -121.4 43.3 -121.6 L46.95 -121.8 48.1 -121.2 48.4 -121.0 48.85 -120.7 50.15 -119.85 50.05 -119.15 49.85 -118.85 48.9 -116.55 48.45 -115.5 48.55 -115.25 48.65 -114.95 48.35 -114.45 48.3 -114.35 Q47.8 -113.4 47.75 -112.25 L48.4 -111.95 55.55 -111.0 55.8 -110.8 62.9 -105.4 64.85 -104.75 64.5 -104.2 62.05 -99.4 61.55 -98.9 61.2 -97.5 60.9 -96.4 60.65 -95.6 61.1 -94.9 61.05 -94.55 61.05 -94.15 61.25 -93.85 61.7 -92.25 61.7 -92.05 61.7 -91.4 62.4 -88.9 63.3 -87.0 63.45 -86.7 63.6 -86.3 63.95 -85.8 62.2 -85.6 61.55 -85.4 52.75 -85.75 Q51.55 -83.8 51.1 -81.8 L50.95 -81.1 50.6 -78.8 Q50.8 -77.0 50.4 -75.45 L50.35 -74.45 50.25 -73.7 50.15 -72.35 46.0 -72.55 45.55 -72.9 Q43.75 -74.25 42.05 -74.95 L37.0 -74.75 36.75 -74.0 36.6 -72.25 36.3 -67.6 35.9 -67.1 33.8 -66.45 33.2 -66.35 30.25 -66.05 27.35 -65.7 25.6 -65.25 25.2 -64.75 24.95 -63.95 25.4 -63.15 26.15 -61.65 Q27.85 -59.45 29.95 -57.4 L31.5 -55.55 33.75 -50.95 Q33.05 -49.95 31.9 -49.3 L31.5 -49.15 31.15 -49.0 30.95 -48.8 29.5 -47.5 Q27.95 -45.65 27.75 -43.25 L27.65 -41.9 Q28.75 -40.8 29.95 -40.05 L30.3 -39.6 30.8 -39.2 31.8 -38.45 31.8 -38.3 34.2 -34.9 34.45 -34.65 34.65 -34.4 35.7 -32.75 35.95 -32.5 36.6 -31.7 38.85 -29.85 38.6 -29.25 36.6 -25.85 35.75 -24.1 35.55 -23.85 35.45 -23.1 35.35 -22.75 35.35 -21.65 35.3 -21.6 36.4 -19.7 36.95 -19.05 37.7 -18.2 37.7 -18.15 40.75 -15.15 46.45 -12.5 50.2 -10.35 49.25 -9.1 45.85 -6.4 Q42.4 -4.15 39.75 -1.45 L39.7 0.1 39.8 0.6 37.8 0.35 11.65 -1.5 2.75 -2.15 -21.1 -4.35 -28.1 -4.7 -28.1 -4.8 -28.05 -5.0 -28.15 -6.25 Q-28.95 -7.95 -30.15 -9.15 L-32.65 -11.4 Q-35.45 -13.65 -37.0 -15.9 L-37.05 -15.9 Q-31.65 -16.9 -27.25 -19.65 -26.65 -20.8 -26.45 -21.95 L-26.5 -22.35 -27.35 -27.4 -27.75 -28.85 -28.05 -29.25 -28.3 -29.65 -28.6 -31.45 -28.95 -34.1 -28.0 -34.25 Q-22.65 -33.8 -17.65 -35.0 -16.85 -35.4 -16.2 -35.8 L-16.15 -36.6 -16.2 -37.1 -16.2 -37.35 -16.4 -37.8 -16.6 -38.1 -16.65 -38.5 -16.7 -38.8 -17.2 -39.6 -17.35 -39.8 -18.3 -41.05 -19.1 -43.6 -19.7 -45.8 -18.65 -47.95 Q-17.35 -49.35 -15.0 -50.7 L-14.7 -51.4 -14.45 -52.5 -14.4 -52.8 -14.55 -53.15 -14.6 -53.5 -14.45 -54.1 -14.05 -55.45 -14.35 -56.5 -14.85 -58.35 -15.55 -59.55 -16.75 -60.95 -17.35 -61.35 -17.5 -61.7 Q-17.85 -62.3 -17.7 -62.85 L-17.2 -63.6 -17.1 -64.25 -16.85 -65.4 Q-16.35 -65.9 -16.0 -66.5 -14.85 -68.65 -14.15 -71.1 L-13.35 -72.55 -13.05 -72.9 Q-12.6 -73.65 -12.45 -74.45 -11.9 -76.85 -13.05 -78.55 L-13.35 -80.15 Q-14.0 -81.7 -13.6 -83.55 L-13.45 -84.7 -13.4 -84.9 -13.25 -85.1 Q-10.65 -88.0 -9.25 -91.1 L-9.0 -91.35 -8.8 -91.65 -8.4 -92.55 -8.55 -93.7 -8.55 -93.85 -8.45 -95.1 -8.35 -95.65 -8.8 -97.0 -8.9 -97.6 -10.3 -102.2 -6.7 -103.45 -6.5 -103.55 -5.75 -103.95 -4.65 -104.55 -2.55 -105.7 -0.95 -106.55 0.5 -107.0 0.85 -107.75 1.05 -108.8 0.85 -109.5 0.65 -109.9 -0.05 -111.3 -0.9 -112.3 -1.25 -112.9 -1.45 -113.25 -4.4 -116.75 -7.1 -120.15 -8.05 -124.05 -7.95 -124.05 Q-6.4 -124.0 -5.15 -124.45 L-4.85 -124.5 -1.4 -125.9 Q-0.65 -126.1 -0.4 -127.05 0.55 -131.55 0.5 -136.3 L1.35 -138.65 9.55 -134.15 10.45 -133.65 Q11.15 -133.2 11.85 -133.05 14.6 -132.9 16.85 -135.6 L17.05 -135.9 17.65 -136.35 Q19.25 -137.7 20.9 -138.6 L21.45 -138.8 23.85 -139.75 24.1 -139.8 24.8 -140.15 24.95 -140.15 M43.6 8.2 L44.4 9.75 44.55 12.95 39.95 12.7 39.7 12.7 39.5 12.75 38.75 12.75 37.8 12.8 37.05 13.05 Q35.9 13.3 34.95 13.95 L34.55 14.25 32.55 15.6 31.95 15.8 Q29.55 16.2 27.25 17.2 L26.4 17.5 26.15 17.7 25.8 18.05 25.3 18.2 25.0 18.35 24.65 18.5 24.5 18.7 Q24.3 18.75 24.15 18.95 L24.05 19.05 23.5 19.65 22.85 19.9 21.45 20.15 Q18.2 18.75 15.3 17.8 L14.75 17.4 12.8 15.15 Q11.8 14.0 10.5 13.5 8.15 12.65 6.05 12.9 L2.75 13.3 Q1.6 13.5 0.35 14.2 L-4.1 17.1 -5.2 16.2 -9.25 13.55 Q-10.05 13.2 -10.9 13.2 L-11.15 13.1 Q-13.45 12.35 -15.3 11.75 -18.65 11.15 -22.35 12.4 L-24.2 13.1 Q-23.85 12.15 -24.0 10.8 -22.95 7.6 -23.7 4.2 L-23.8 3.9 -24.2 3.55 -26.4 2.35 -1.3 4.05 3.45 4.35 31.25 6.4 43.2 7.4 43.6 8.2" fill="#ffff00" fill-opacity="0.5019608" fill-rule="evenodd" stroke="none"/>
  </g>
</svg>
