<?xml version="1.0" encoding="UTF-8" standalone="no"?>
<svg xmlns:ffdec="https://www.free-decompiler.com/flash" xmlns:xlink="http://www.w3.org/1999/xlink" ffdec:objectType="shape" height="130.05px" width="72.85px" xmlns="http://www.w3.org/2000/svg">
  <g transform="matrix(1.0, 0.0, 0.0, 1.0, 24.85, 127.9)">
    <path d="M7.45 -108.4 Q4.45 -111.65 4.45 -116.2 4.45 -121.05 7.85 -124.5 11.3 -127.9 16.15 -127.9 21.0 -127.9 24.4 -124.5 27.8 -121.05 27.8 -116.2 27.8 -112.0 25.25 -108.85 22.7 -108.65 22.5 -106.35 20.35 -105.0 17.8 -104.65 L15.7 -108.05 15.65 -108.35 15.05 -109.9 Q15.55 -113.05 12.2 -114.7 11.0 -114.7 10.4 -113.5 9.6 -111.8 9.1 -109.95 L7.45 -108.4" fill="#0c0c0c" fill-rule="evenodd" stroke="none"/>
    <path d="M25.25 -108.85 L25.5 -108.9 Q30.7 -109.2 31.15 -103.85 L31.3 -101.5 43.1 -100.25 Q44.65 -100.1 45.95 -99.15 49.7 -96.45 46.65 -93.4 46.45 -93.2 46.1 -93.15 40.5 -91.85 37.05 -95.65 L31.35 -96.15 Q31.15 -90.3 29.9 -84.65 29.6 -83.3 28.25 -82.8 23.55 -81.1 21.75 -86.05 20.7 -88.95 19.25 -91.5 17.8 -93.7 16.5 -96.0 L16.3 -96.55 15.5 -97.7 12.4 -98.0 Q11.3 -88.9 10.95 -79.65 10.7 -71.95 9.3 -64.4 L8.4 -58.75 8.1 -57.1 Q9.25 -55.8 9.55 -53.7 9.9 -51.45 11.15 -49.5 L20.0 -35.75 Q21.05 -34.1 20.6 -32.15 18.1 -20.0 18.2 -7.2 L18.2 -4.65 Q24.2 -4.45 30.2 -2.5 31.05 -2.2 31.0 -1.3 30.7 2.95 25.8 1.95 L20.65 1.45 Q16.15 1.5 13.4 -1.6 12.85 -2.3 12.8 -3.3 12.65 -11.4 13.05 -19.4 13.15 -21.8 13.85 -24.1 L14.2 -24.75 14.9 -32.05 15.15 -33.6 13.55 -36.2 13.35 -36.75 Q10.9 -39.0 9.55 -41.8 7.4 -44.45 6.25 -47.35 3.1 -35.45 -3.4 -24.95 -5.25 -21.95 -7.85 -19.55 L-17.7 -10.35 Q-15.65 -9.65 -14.1 -8.15 -9.55 -6.1 -5.55 -3.6 -5.1 -3.3 -5.2 -2.7 -5.9 1.25 -10.35 0.0 -11.35 -0.3 -12.0 -1.2 -16.8 -3.4 -21.3 -6.25 -26.7 -8.15 -23.9 -12.7 L-22.8 -13.85 Q-9.85 -22.25 -3.6 -35.9 L-2.4 -39.4 -1.8 -40.35 Q0.3 -47.55 2.85 -54.55 1.85 -55.85 2.25 -58.05 L4.65 -70.3 Q6.0 -76.5 6.05 -83.0 6.15 -90.9 7.15 -98.6 6.45 -98.9 6.05 -99.75 4.75 -102.65 5.9 -105.65 6.45 -107.2 7.45 -108.4 L9.1 -109.95 Q9.6 -111.8 10.4 -113.5 11.0 -114.7 12.2 -114.7 15.55 -113.05 15.05 -109.9 L15.65 -108.35 15.7 -108.05 17.8 -104.65 19.0 -102.6 23.85 -102.2 Q22.3 -103.65 22.45 -106.15 L22.5 -106.35 Q22.7 -108.65 25.25 -108.85 M24.3 -93.45 L24.5 -92.9 25.45 -91.9 25.9 -91.4 26.05 -96.65 22.25 -97.0 24.3 -93.45" fill="#000000" fill-rule="evenodd" stroke="none"/>
  </g>
</svg>
