<?xml version="1.0" encoding="UTF-8" standalone="no"?>
<svg xmlns:ffdec="https://www.free-decompiler.com/flash" xmlns:xlink="http://www.w3.org/1999/xlink" ffdec:objectType="shape" height="161.95px" width="97.1px" xmlns="http://www.w3.org/2000/svg">
  <g transform="matrix(1.0, 0.0, 0.0, 1.0, 35.7, 140.65)">
    <path d="M-4.4 17.35 L-6.1 14.95 1.2 15.65 Q-1.2 17.1 -3.45 18.85 L-4.4 17.35 M-22.75 12.7 L-21.25 13.0 -23.55 13.75 -22.75 12.7 M26.5 17.75 L26.3 18.2 25.8 18.6 25.6 19.0 25.3 19.7 24.9 20.15 24.45 20.85 23.85 21.1 22.45 21.2 17.85 17.05 26.5 17.75 M24.8 -140.65 Q25.25 -140.35 25.15 -139.15 L25.05 -136.55 25.4 -135.75 Q25.8 -134.25 27.3 -133.7 L27.8 -133.85 28.05 -133.95 28.15 -133.85 29.3 -133.2 29.75 -133.35 30.15 -133.55 30.3 -133.95 30.75 -135.05 Q36.05 -137.15 40.95 -137.4 L39.95 -132.2 Q39.25 -127.5 39.1 -122.9 40.4 -121.8 42.3 -121.7 46.8 -121.5 49.5 -120.15 L49.15 -119.5 45.5 -115.7 45.45 -115.35 45.4 -114.95 44.6 -114.15 Q43.2 -112.6 42.4 -110.85 42.65 -110.5 43.0 -110.4 52.45 -108.15 61.4 -104.3 L60.65 -103.6 53.85 -97.5 53.85 -96.0 53.85 -93.75 54.7 -93.0 54.8 -92.65 54.85 -92.25 56.35 -90.1 59.3 -84.1 46.65 -84.6 Q46.2 -81.7 46.65 -78.65 47.4 -73.7 47.25 -68.7 44.65 -69.6 42.2 -71.15 37.55 -74.1 33.5 -71.45 L33.5 -68.85 33.5 -64.35 33.0 -64.0 Q27.3 -64.6 22.35 -62.25 L22.15 -61.5 Q22.0 -60.95 22.2 -60.4 L23.35 -59.35 35.75 -48.1 Q35.05 -47.1 33.5 -46.6 27.7 -44.85 26.05 -39.8 28.4 -37.45 31.65 -36.85 38.1 -33.5 42.2 -29.05 L41.6 -28.4 Q37.9 -25.7 34.5 -22.7 L34.5 -21.95 34.5 -20.45 Q36.35 -18.55 38.95 -17.4 46.15 -14.3 51.95 -9.55 45.8 -5.95 39.95 -2.0 L39.95 -0.5 39.95 1.35 42.1 5.05 45.9 13.25 Q43.05 12.2 39.85 11.35 L35.6 11.55 Q35.0 11.75 34.45 12.05 L15.9 10.35 -1.35 8.75 -21.55 6.45 Q-21.65 5.05 -22.05 3.7 -26.3 1.05 -30.6 -0.9 L-30.0 -1.5 -27.15 -4.45 -27.05 -5.2 -27.0 -6.7 Q-27.75 -8.4 -28.95 -9.5 L-31.55 -11.55 Q-34.55 -13.65 -35.7 -15.75 -30.55 -17.0 -26.65 -20.35 -26.35 -22.0 -26.75 -23.65 -27.6 -26.75 -28.0 -30.0 L-28.25 -30.4 -28.5 -30.75 -28.5 -32.6 -28.5 -35.25 Q-21.6 -33.8 -14.85 -35.0 L-14.7 -35.75 -14.6 -36.45 -14.85 -36.85 -15.1 -37.2 -15.1 -37.6 -15.1 -37.95 -15.5 -38.75 Q-15.8 -39.6 -16.6 -40.2 L-17.2 -42.75 Q-18.7 -47.8 -13.75 -50.6 L-13.65 -51.35 -13.65 -52.85 -13.9 -53.2 -14.1 -53.6 -14.1 -54.3 -14.1 -55.8 -14.95 -57.0 -18.45 -61.4 -19.1 -61.75 -19.15 -62.1 Q-19.5 -62.75 -19.1 -63.25 L-18.2 -64.0 -17.9 -64.7 -17.2 -65.85 -15.65 -66.8 Q-12.5 -69.5 -10.3 -72.9 -10.05 -73.85 -10.2 -74.8 -10.55 -77.75 -13.15 -79.6 -13.6 -80.65 -14.35 -81.4 -16.35 -83.5 -16.1 -86.3 L-15.8 -86.6 Q-11.0 -89.25 -7.2 -93.0 L-7.2 -94.15 -7.2 -96.0 -8.25 -97.4 -12.25 -102.7 Q-4.75 -104.3 2.85 -105.3 L3.15 -106.05 3.1 -107.15 0.05 -111.0 Q-4.75 -116.9 -9.05 -123.5 L-1.0 -123.5 Q0.0 -123.5 0.35 -124.5 2.45 -130.55 1.75 -137.4 5.75 -135.4 9.45 -132.6 13.55 -129.6 16.75 -133.95 L17.35 -134.35 24.8 -140.65" fill="#ffff00" fill-opacity="0.5019608" fill-rule="evenodd" stroke="none"/>
  </g>
</svg>
