<?xml version="1.0" encoding="UTF-8" standalone="no"?>
<svg xmlns:ffdec="https://www.free-decompiler.com/flash" xmlns:xlink="http://www.w3.org/1999/xlink" ffdec:objectType="shape" height="129.8px" width="64.6px" xmlns="http://www.w3.org/2000/svg">
  <g transform="matrix(1.0, 0.0, 0.0, 1.0, 21.7, 128.45)">
    <path d="M17.8 -128.45 Q22.65 -128.45 26.05 -125.05 29.45 -121.6 29.45 -116.75 29.45 -111.9 26.05 -108.5 22.65 -105.1 17.8 -105.1 L15.7 -105.25 15.65 -105.25 15.6 -105.1 18.1 -102.35 22.05 -97.5 26.2 -97.6 Q23.15 -98.6 23.7 -102.85 24.2 -107.0 28.4 -105.6 34.05 -103.75 34.65 -98.05 L34.7 -97.7 38.75 -97.75 Q44.4 -97.75 42.35 -92.55 40.8 -88.55 36.25 -89.4 37.1 -85.35 34.75 -81.8 34.45 -81.3 33.85 -81.2 28.45 -80.15 24.95 -84.7 L19.25 -91.85 12.45 -91.8 9.35 -73.85 7.45 -62.45 7.1 -59.9 Q8.5 -58.7 9.25 -56.55 L9.95 -54.85 Q15.0 -45.45 20.4 -36.3 20.75 -35.75 20.6 -34.95 18.85 -22.65 18.25 -10.0 L17.85 -5.9 17.8 -5.35 Q24.45 -5.9 29.85 -2.8 30.25 -2.6 30.25 -2.1 29.9 2.1 25.0 1.2 L14.4 -0.85 Q13.85 -1.0 13.55 -1.55 11.65 -5.6 12.75 -10.05 14.1 -15.25 14.1 -20.75 14.15 -28.2 15.05 -35.6 14.6 -36.0 14.4 -36.55 L14.2 -37.15 Q11.95 -40.3 10.1 -43.55 L9.9 -44.1 Q8.8 -45.3 8.1 -46.7 L7.9 -47.25 Q6.6 -48.95 5.55 -50.8 3.35 -39.65 0.05 -28.7 -0.25 -27.7 -0.85 -26.7 -3.05 -23.2 -7.0 -21.25 -12.3 -18.6 -16.45 -14.4 L-10.6 -5.15 Q-10.25 -4.6 -9.5 -4.6 -4.5 -4.35 -6.15 -0.3 -6.65 0.9 -8.0 0.95 -16.25 1.3 -18.5 -6.6 -18.65 -7.3 -19.15 -7.85 -22.8 -12.05 -21.25 -17.05 -20.8 -18.6 -19.5 -19.65 -13.0 -25.0 -5.6 -29.15 L-4.2 -35.8 -3.6 -36.75 Q-3.6 -38.25 -3.05 -39.6 L-2.3 -40.55 Q-0.8 -48.8 1.5 -56.85 L1.5 -57.7 Q3.05 -70.2 5.25 -82.35 L6.2 -87.4 7.1 -91.75 2.75 -91.7 Q1.45 -91.7 1.2 -92.9 0.5 -96.4 2.95 -99.3 L6.85 -103.6 7.95 -104.95 8.05 -105.1 Q7.55 -107.5 9.6 -108.4 L9.5 -108.5 Q6.1 -111.9 6.1 -116.75 6.1 -121.6 9.5 -125.05 12.95 -128.45 17.8 -128.45 M26.75 -91.85 L31.05 -86.95 29.95 -91.9 26.75 -91.85 M14.5 -97.2 L13.5 -98.3 13.3 -97.15 14.5 -97.2" fill="#0c0c0c" fill-rule="evenodd" stroke="none"/>
  </g>
</svg>
