<?xml version="1.0" encoding="UTF-8" standalone="no"?>
<svg xmlns:ffdec="https://www.free-decompiler.com/flash" xmlns:xlink="http://www.w3.org/1999/xlink" ffdec:objectType="shape" height="157.7px" width="98.2px" xmlns="http://www.w3.org/2000/svg">
  <g transform="matrix(1.0, 0.0, 0.0, 1.0, 35.4, 139.7)">
    <path d="M34.85 -137.55 L38.55 -136.75 38.3 -133.0 38.55 -131.8 Q39.3 -128.1 40.55 -124.7 41.9 -123.95 43.7 -123.9 L43.8 -123.8 44.2 -123.65 44.65 -123.4 46.15 -122.6 47.35 -121.8 48.35 -120.75 47.95 -120.05 46.25 -118.0 46.1 -117.75 45.95 -117.55 45.6 -117.15 45.1 -116.55 44.6 -116.1 44.55 -116.0 44.45 -115.8 44.25 -115.45 43.5 -114.7 43.2 -114.4 42.9 -113.75 42.6 -113.2 42.2 -111.4 42.8 -111.0 43.9 -110.9 46.4 -110.9 Q51.65 -110.45 57.0 -109.2 L57.9 -108.45 58.95 -107.55 59.35 -107.3 59.75 -106.75 59.75 -106.65 59.2 -105.9 58.3 -104.7 55.5 -100.8 54.75 -99.25 54.95 -98.7 55.15 -98.0 55.75 -96.15 56.65 -95.5 56.8 -95.25 56.9 -94.9 58.8 -93.05 62.8 -87.9 60.5 -87.95 52.35 -87.1 Q51.2 -84.7 50.75 -82.2 L50.5 -80.55 50.55 -79.85 50.65 -79.15 50.75 -78.75 50.75 -78.35 50.75 -77.95 50.75 -77.65 50.85 -77.25 50.9 -76.85 51.2 -74.6 51.45 -72.45 50.3 -72.45 Q48.5 -73.1 46.7 -74.1 44.05 -75.6 41.5 -75.85 L37.95 -75.4 37.35 -73.8 36.85 -72.5 36.25 -70.95 35.65 -70.7 33.2 -70.6 31.75 -70.0 29.0 -68.2 28.65 -67.75 27.7 -66.95 27.6 -66.2 27.65 -65.75 27.85 -65.15 28.25 -64.7 28.5 -64.25 30.9 -60.0 31.8 -58.1 33.05 -56.5 35.5 -54.1 Q35.25 -53.0 34.35 -52.35 33.3 -51.5 32.55 -50.45 29.35 -48.65 27.6 -45.65 28.25 -44.25 29.2 -43.4 L29.4 -43.25 Q29.65 -43.0 29.95 -42.85 L31.0 -42.4 32.4 -41.6 Q37.35 -38.8 40.9 -35.2 L41.35 -34.5 41.35 -34.2 40.75 -33.55 38.6 -31.75 38.3 -31.45 37.9 -30.95 36.6 -29.75 34.2 -27.2 34.15 -26.55 34.15 -26.4 34.1 -25.5 34.1 -24.9 34.8 -24.05 Q36.55 -22.85 38.65 -22.0 41.45 -20.95 44.05 -19.7 L46.65 -16.95 49.4 -13.2 47.3 -11.35 47.0 -11.15 46.45 -10.75 45.5 -9.85 44.2 -8.55 43.8 -8.0 41.75 -5.35 42.15 -4.15 42.7 -2.65 44.45 -0.75 44.95 0.75 45.05 1.2 45.9 8.45 40.2 8.2 40.15 8.25 39.75 8.3 38.8 8.6 Q38.0 8.8 37.35 9.35 L37.3 9.4 Q35.05 11.55 33.2 14.7 L31.85 15.35 31.55 15.65 31.25 16.05 31.15 16.1 30.6 16.35 30.3 16.6 29.85 17.05 29.35 17.35 28.8 17.8 28.1 17.95 26.7 17.9 25.7 17.3 22.9 15.7 17.4 13.3 15.1 13.1 14.2 13.3 13.3 13.3 10.4 13.35 7.95 13.75 Q5.45 14.15 3.0 14.95 1.75 15.25 0.5 15.9 L-0.65 14.85 Q-1.0 14.55 -1.4 14.3 -2.95 13.15 -4.65 12.15 L-6.6 11.85 Q-10.95 12.35 -15.15 14.05 L-15.6 14.15 -15.85 14.15 -19.3 14.05 Q-18.65 12.55 -18.7 10.85 -18.75 7.7 -20.4 4.85 L-24.3 3.05 Q-26.75 2.1 -28.75 0.95 L-29.15 0.55 -28.6 -0.1 -27.8 -1.0 -26.3 -3.4 -26.25 -4.2 -26.35 -5.7 Q-27.1 -7.35 -28.35 -8.5 L-29.25 -9.3 -31.0 -10.6 Q-33.9 -12.7 -35.4 -14.9 -30.75 -16.05 -27.2 -18.95 L-26.5 -19.8 -26.5 -19.85 -26.4 -21.4 -26.7 -22.65 -26.8 -23.25 -27.4 -25.45 -27.6 -25.95 -28.65 -29.5 -28.95 -29.9 -29.1 -30.05 -29.25 -30.3 -29.3 -30.65 -29.5 -32.0 -29.45 -32.2 -29.05 -33.4 -28.75 -34.35 -19.5 -33.95 -17.4 -34.25 -17.0 -34.35 -16.25 -34.7 -15.6 -35.15 -15.6 -35.2 -15.65 -35.9 -15.7 -36.6 -15.95 -37.0 -16.2 -37.3 -16.25 -37.7 -16.3 -38.05 -16.75 -38.8 -17.85 -40.2 -18.4 -41.5 -18.5 -41.8 -18.7 -42.75 -18.8 -42.95 -19.1 -43.6 -19.1 -43.85 -19.25 -44.85 -19.2 -45.3 -19.05 -46.0 Q-17.95 -48.35 -14.7 -49.95 L-14.4 -50.6 -13.95 -51.8 -14.0 -52.1 -14.05 -52.4 -13.85 -53.0 -13.4 -54.2 -13.65 -55.2 -13.85 -55.6 -14.05 -56.15 Q-15.0 -58.0 -16.25 -59.75 L-16.8 -60.15 -16.9 -60.5 -17.1 -61.0 -17.1 -61.65 -16.55 -62.4 -16.45 -63.1 -16.15 -64.25 -15.25 -65.35 Q-14.25 -67.1 -13.4 -69.05 L-12.9 -69.95 -12.1 -71.4 -11.55 -72.05 -11.15 -73.15 -11.0 -73.8 -10.9 -73.95 Q-10.55 -76.4 -11.8 -78.15 L-12.2 -79.9 Q-13.15 -81.95 -12.45 -84.65 L-12.15 -85.0 -11.75 -85.3 -11.5 -85.6 -9.4 -88.7 Q-8.75 -89.85 -8.2 -91.15 L-8.45 -92.05 -8.95 -93.6 -10.15 -94.75 -14.9 -99.3 -14.3 -99.65 -13.75 -99.9 -12.8 -100.3 -12.1 -100.5 -10.65 -101.1 Q-6.35 -102.45 -3.0 -104.15 L-2.4 -104.45 -2.35 -104.55 -2.3 -105.3 Q-2.25 -105.8 -2.5 -106.35 L-5.45 -110.3 -6.25 -111.4 Q-7.45 -114.6 -8.4 -118.85 L-8.75 -120.0 -6.3 -120.9 -2.8 -122.3 Q-2.05 -122.45 -1.75 -123.4 L-1.5 -124.65 -1.25 -125.25 Q-0.1 -126.9 0.7 -128.55 1.6 -130.0 2.0 -132.3 L2.0 -132.55 2.0 -132.85 2.0 -134.1 6.75 -133.3 8.1 -132.95 Q11.05 -131.85 13.35 -136.1 L13.6 -136.2 14.2 -136.4 20.95 -139.3 Q21.5 -139.45 22.05 -139.7 L22.1 -139.7 Q22.6 -139.4 22.75 -138.5 L22.95 -137.9 23.35 -136.9 23.8 -136.4 Q24.45 -135.5 25.95 -135.3 L26.5 -135.5 26.75 -135.65 26.85 -135.6 27.95 -135.3 28.45 -135.5 28.85 -135.7 29.1 -136.1 29.7 -137.1 31.0 -137.7 34.85 -137.55" fill="#ffff00" fill-opacity="0.5019608" fill-rule="evenodd" stroke="none"/>
  </g>
</svg>
