<?xml version="1.0" encoding="UTF-8" standalone="no"?>
<svg xmlns:ffdec="https://www.free-decompiler.com/flash" xmlns:xlink="http://www.w3.org/1999/xlink" ffdec:objectType="shape" height="128.95px" width="57.1px" xmlns="http://www.w3.org/2000/svg">
  <g transform="matrix(1.0, 0.0, 0.0, 1.0, 18.2, 128.45)">
    <path d="M11.1 -108.05 L10.6 -108.5 Q7.2 -111.9 7.2 -116.75 7.2 -121.6 10.6 -125.05 14.05 -128.45 18.9 -128.45 23.75 -128.45 27.15 -125.05 30.55 -121.6 30.55 -116.75 30.55 -111.9 27.15 -108.5 L27.15 -108.45 23.2 -111.25 Q21.3 -111.15 20.7 -109.2 20.45 -108.25 21.0 -107.6 L22.6 -105.65 18.9 -105.1 18.1 -105.1 18.05 -104.9 16.7 -105.35 16.15 -105.6 Q16.8 -108.6 13.5 -109.95 L12.6 -109.5 11.1 -108.05" fill="#0c0c0c" fill-rule="evenodd" stroke="none"/>
    <path d="M27.15 -108.45 Q30.25 -105.8 32.5 -102.2 33.15 -101.15 34.2 -100.45 40.2 -96.25 38.55 -89.75 38.4 -89.2 37.75 -88.95 35.55 -88.2 33.75 -89.2 33.45 -88.25 32.35 -87.85 28.85 -86.45 26.9 -89.6 L12.9 -90.25 Q12.2 -84.2 10.8 -78.3 L10.25 -77.0 Q9.3 -67.25 7.6 -57.75 9.15 -56.4 10.2 -54.4 L10.75 -53.3 Q15.45 -45.3 18.8 -36.85 L20.0 -34.0 Q22.0 -32.65 20.95 -29.3 L19.45 -24.05 Q17.9 -18.2 17.45 -12.0 17.25 -9.05 17.65 -5.95 L17.7 -5.8 29.1 -4.25 Q29.6 -4.2 29.8 -3.6 30.65 -1.05 28.0 -0.3 23.0 1.15 18.1 -0.05 16.3 -0.5 14.65 -1.2 L14.15 -1.2 Q12.85 -1.2 12.6 -2.4 12.0 -5.45 12.2 -8.65 13.0 -20.15 15.5 -31.25 L15.05 -31.95 Q13.4 -34.8 12.2 -37.8 10.0 -43.35 7.05 -48.3 6.4 -49.0 5.9 -49.75 L2.6 -35.85 Q2.25 -34.5 2.3 -33.1 L2.1 -31.05 Q1.95 -29.6 0.2 -27.8 -5.65 -21.8 -12.3 -17.0 L-12.65 -16.7 Q-11.85 -15.45 -11.6 -13.7 -11.45 -12.35 -10.85 -11.1 -8.65 -6.4 -4.9 -2.65 -4.5 -2.2 -4.8 -1.7 -7.25 2.4 -11.25 -1.6 -13.25 -3.55 -14.75 -6.0 -17.4 -10.2 -17.5 -15.25 -18.65 -16.6 -17.9 -18.45 -17.15 -20.2 -15.65 -21.45 L-6.15 -29.25 Q-5.05 -31.45 -3.35 -32.8 -3.15 -38.35 -1.35 -43.5 0.8 -49.75 1.2 -56.35 1.3 -57.7 1.95 -58.55 4.0 -69.05 5.5 -79.65 L5.7 -79.95 7.55 -91.35 6.65 -91.6 Q3.15 -92.6 1.9 -95.65 1.5 -96.6 2.0 -97.55 2.75 -99.1 4.0 -100.25 L9.55 -105.15 Q10.0 -106.8 11.1 -108.05 L12.6 -109.5 13.5 -109.95 Q16.8 -108.6 16.15 -105.6 L16.1 -105.5 16.8 -105.15 25.0 -99.95 Q26.1 -99.8 27.0 -99.2 L27.35 -99.0 22.6 -105.65 21.0 -107.6 Q20.45 -108.25 20.7 -109.2 21.3 -111.15 23.2 -111.25 L27.15 -108.45 M23.25 -94.8 Q18.65 -97.25 14.65 -100.55 14.5 -98.1 13.95 -95.8 L23.25 -94.8" fill="#000000" fill-rule="evenodd" stroke="none"/>
  </g>
</svg>
