<?xml version="1.0" encoding="UTF-8" standalone="no"?>
<svg xmlns:ffdec="https://www.free-decompiler.com/flash" xmlns:xlink="http://www.w3.org/1999/xlink" ffdec:objectType="shape" height="16.3px" width="25.0px" xmlns="http://www.w3.org/2000/svg">
  <g transform="matrix(1.0, 0.0, 0.0, 1.0, 12.5, 8.15)">
    <path d="M4.0 -8.15 Q9.95 -3.35 12.3 4.35 L12.5 5.1 Q12.55 6.5 11.2 7.25 L10.0 7.85 9.35 7.7 Q-2.75 9.35 -12.5 4.85 L-12.5 4.1 -12.35 3.4 -11.65 2.7 Q-10.65 2.0 -10.0 1.85 -1.4 0.9 5.95 3.1 4.2 1.3 3.1 -0.85 L2.5 -1.65 2.5 -2.4 2.5 -3.15 2.25 -3.9 1.5 -5.4 1.65 -6.1 2.5 -7.65 4.0 -8.0 4.0 -8.15" fill="#000000" fill-rule="evenodd" stroke="none"/>
  </g>
</svg>
