<?xml version="1.0" encoding="UTF-8" standalone="no"?>
<svg xmlns:ffdec="https://www.free-decompiler.com/flash" xmlns:xlink="http://www.w3.org/1999/xlink" ffdec:objectType="shape" height="159.45px" width="106.95px" xmlns="http://www.w3.org/2000/svg">
  <g transform="matrix(1.0, 0.0, 0.0, 1.0, 34.85, 142.05)">
    <path d="M25.25 -139.45 L25.8 -139.75 26.25 -140.05 26.7 -140.45 27.55 -141.25 28.95 -142.05 Q30.8 -141.05 31.65 -139.1 L33.7 -135.4 34.55 -131.55 35.75 -131.0 Q39.45 -129.35 43.45 -128.35 L46.9 -128.25 46.85 -128.05 46.65 -127.5 46.75 -126.95 Q46.95 -125.9 46.3 -125.2 46.6 -124.45 46.5 -123.7 L46.05 -121.9 45.6 -121.15 44.0 -118.95 43.95 -118.6 43.9 -118.3 43.65 -117.9 43.1 -117.9 14.25 -119.75 -6.05 -120.9 -6.0 -121.25 -5.85 -122.65 -5.5 -123.1 -1.55 -123.6 Q0.75 -123.5 2.15 -125.65 L2.15 -125.95 2.15 -126.3 2.55 -127.5 Q4.4 -129.7 4.95 -132.15 L5.35 -133.65 Q6.2 -136.3 6.95 -140.75 L7.25 -140.75 7.9 -140.55 Q11.8 -139.75 15.3 -138.15 L16.55 -137.75 16.65 -137.75 17.9 -137.25 18.6 -137.25 19.9 -137.55 20.55 -137.75 23.25 -138.55 23.85 -138.85 24.1 -139.05 24.2 -139.1 25.25 -139.45 M0.45 -114.3 L28.8 -112.65 43.05 -111.8 56.5 -111.2 56.3 -110.5 55.95 -108.95 55.15 -103.95 56.55 -102.8 57.1 -102.45 57.75 -102.05 59.6 -101.0 60.5 -100.55 60.75 -100.4 61.05 -100.25 63.65 -99.0 69.75 -95.45 72.1 -94.15 63.7 -92.15 58.95 -89.25 57.65 -88.35 57.7 -87.65 57.7 -86.9 58.0 -86.5 58.1 -86.15 58.1 -85.75 58.1 -85.4 58.35 -85.0 58.45 -84.65 Q58.6 -83.45 59.0 -82.35 L59.8 -80.0 59.85 -78.7 Q57.75 -79.15 55.75 -79.95 L50.35 -82.2 46.9 -83.35 45.0 -83.75 43.5 -84.05 41.7 -84.15 40.9 -84.15 Q39.55 -84.15 38.35 -83.55 L38.0 -81.9 Q37.85 -80.1 37.95 -78.3 L38.3 -77.6 38.4 -76.4 38.45 -75.65 38.75 -75.3 39.15 -74.7 39.35 -74.15 38.85 -74.0 33.45 -72.35 Q32.15 -72.05 31.6 -70.8 31.65 -69.7 32.4 -68.85 L34.95 -66.05 36.0 -63.8 37.15 -61.05 Q33.6 -59.5 30.7 -57.4 L28.45 -55.3 28.5 -55.0 28.7 -54.4 29.65 -53.55 31.05 -52.6 Q36.1 -49.7 39.95 -45.85 L39.9 -45.15 39.6 -44.55 39.05 -43.8 36.95 -41.75 36.75 -41.4 36.55 -40.75 35.4 -39.35 33.55 -36.15 33.4 -35.55 33.4 -35.35 33.35 -34.45 33.35 -33.8 33.65 -32.75 38.0 -31.25 43.95 -29.4 Q44.6 -27.4 44.55 -25.45 L44.25 -20.45 42.95 -17.9 42.65 -17.6 42.2 -17.2 41.6 -15.9 Q41.1 -14.95 41.1 -14.0 L41.75 -13.6 45.3 -12.1 46.55 -11.5 48.15 -10.65 50.6 -9.5 Q51.0 -8.6 50.6 -7.9 L50.4 -7.55 Q47.95 -4.5 45.85 -1.2 43.2 0.25 40.7 1.9 L40.7 2.0 40.55 2.45 40.25 3.55 40.85 5.0 40.9 5.05 43.55 11.95 41.95 11.9 41.45 11.9 40.9 11.9 40.8 11.9 40.15 11.85 39.65 11.8 38.95 11.75 38.25 11.7 37.45 11.7 36.65 11.6 35.15 11.3 33.85 10.9 30.5 10.65 Q27.15 11.55 24.65 13.35 23.6 14.05 22.65 15.15 L21.95 15.95 20.95 15.85 18.35 14.4 Q17.1 13.7 16.0 13.0 13.7 11.5 11.2 10.4 9.9 9.75 8.45 9.95 L6.85 9.8 5.8 10.0 1.85 11.15 0.05 11.95 Q-4.0 14.2 -7.6 17.3 L-8.05 17.4 -8.3 17.3 Q-9.45 15.8 -10.8 14.65 -11.3 13.0 -12.25 11.6 -14.1 8.85 -17.15 7.15 L-21.65 5.95 Q-24.8 5.45 -26.45 4.0 L-26.3 3.4 -25.85 2.65 -25.05 1.65 Q-24.6 0.15 -24.55 -1.35 L-24.65 -2.2 -25.05 -3.75 Q-25.8 -5.3 -27.15 -6.55 L-28.15 -7.35 -29.95 -8.75 Q-32.75 -10.85 -34.85 -13.15 -30.0 -14.5 -26.45 -17.7 L-26.2 -18.75 -26.2 -18.85 -26.15 -20.55 -26.8 -21.9 -26.95 -22.5 -27.65 -24.85 -27.95 -25.3 Q-28.85 -27.1 -30.0 -28.55 L-30.4 -28.95 -30.6 -29.1 -30.8 -29.4 -30.95 -29.8 Q-31.4 -30.45 -31.5 -31.25 L-31.35 -31.35 -30.15 -32.05 -29.25 -32.55 -19.55 -32.85 Q-18.35 -32.8 -17.35 -33.4 L-17.15 -33.7 -16.8 -34.55 -17.1 -35.5 -17.15 -35.55 -17.5 -36.25 -17.85 -36.95 -18.15 -37.35 -18.35 -37.55 -18.6 -37.9 -18.75 -38.2 -19.3 -38.9 -20.4 -40.25 -21.45 -41.55 -21.5 -41.85 -21.7 -42.75 -21.85 -43.0 -22.4 -43.75 -22.45 -44.05 -22.7 -45.1 -22.55 -45.55 -22.2 -46.25 Q-19.75 -47.65 -16.55 -48.7 L-15.85 -49.05 -14.6 -49.75 -14.25 -49.9 -13.95 -50.05 -13.3 -50.4 -12.05 -51.05 Q-11.55 -51.35 -11.1 -51.6 L-10.85 -51.8 -10.45 -52.3 Q-10.7 -54.45 -11.85 -56.4 L-12.25 -56.95 -12.45 -57.35 -12.75 -57.8 -13.1 -58.4 -13.3 -59.2 -13.6 -59.9 -14.0 -61.0 -14.4 -62.5 -15.55 -67.0 -15.35 -68.05 Q-15.25 -68.9 -14.75 -69.75 L-14.0 -70.3 -13.15 -71.2 -12.6 -71.75 -12.35 -71.9 Q-10.35 -73.55 -9.15 -75.3 L-7.95 -76.85 -5.2 -81.35 -4.8 -81.85 -4.4 -82.35 -4.55 -82.85 Q-5.65 -84.75 -7.35 -85.75 L-10.15 -87.4 -11.0 -87.9 -12.4 -88.8 -14.0 -89.5 -20.25 -92.55 -21.05 -93.0 -20.8 -93.5 -20.15 -94.35 -19.5 -94.7 Q-18.75 -95.15 -18.4 -95.85 -14.2 -98.3 -12.75 -102.1 L-12.7 -102.8 -12.8 -103.05 -13.15 -103.75 -13.7 -104.75 -16.45 -108.95 -17.2 -110.25 Q-12.9 -109.9 -8.5 -111.8 L-8.15 -113.05 Q-7.6 -113.85 -7.35 -114.7 L0.45 -114.3" fill="#ffff00" fill-opacity="0.5019608" fill-rule="evenodd" stroke="none"/>
  </g>
</svg>
