<?xml version="1.0" encoding="UTF-8" standalone="no"?>
<svg xmlns:ffdec="https://www.free-decompiler.com/flash" xmlns:xlink="http://www.w3.org/1999/xlink" ffdec:objectType="shape" height="127.65px" width="58.75px" xmlns="http://www.w3.org/2000/svg">
  <g transform="matrix(1.0, 0.0, 0.0, 1.0, 17.85, 128.45)">
    <path d="M11.55 -108.65 Q8.3 -112.0 8.3 -116.75 8.3 -121.6 11.7 -125.05 15.15 -128.45 20.0 -128.45 24.85 -128.45 28.25 -125.05 31.65 -121.6 31.65 -116.75 31.65 -113.9 30.5 -111.55 27.1 -114.75 22.75 -116.35 21.45 -116.35 20.8 -115.05 19.25 -112.05 22.65 -110.9 L23.0 -110.3 Q23.75 -109.2 25.05 -109.0 L26.8 -107.25 Q24.5 -105.55 21.6 -105.2 L20.35 -105.95 20.55 -106.15 Q24.45 -109.85 19.35 -111.3 L17.75 -110.75 17.2 -111.3 Q16.6 -113.35 14.3 -114.25 13.45 -114.25 13.0 -113.4 11.7 -111.25 11.55 -108.65" fill="#0c0c0c" fill-rule="evenodd" stroke="none"/>
    <path d="M30.5 -111.55 Q32.1 -110.0 33.5 -108.05 L35.55 -105.5 Q39.3 -101.45 40.7 -96.1 41.6 -92.6 38.25 -92.05 35.55 -91.6 33.1 -92.9 L30.1 -94.7 19.25 -100.5 19.15 -100.6 Q17.6 -100.9 16.4 -101.55 L15.65 -96.25 15.3 -93.7 23.6 -92.4 Q24.1 -93.45 25.7 -93.65 29.05 -93.7 29.75 -92.1 33.1 -91.9 32.05 -88.0 31.65 -86.35 29.9 -86.45 22.05 -86.7 14.35 -88.0 12.95 -79.9 11.05 -72.0 L8.7 -62.4 8.0 -59.45 Q10.4 -57.95 11.75 -55.0 12.7 -53.1 13.8 -51.3 18.05 -44.4 20.35 -36.75 20.85 -35.2 20.5 -33.65 19.6 -29.1 19.7 -24.25 19.9 -15.65 19.45 -7.2 24.35 -7.7 29.05 -6.5 33.7 -5.3 30.85 -1.65 29.9 -0.45 28.4 -0.9 23.55 -2.4 18.3 -2.05 17.35 -2.0 16.5 -2.5 13.25 -4.3 13.85 -8.4 L14.3 -13.05 14.65 -34.85 Q14.7 -36.6 13.95 -38.2 12.85 -40.6 12.5 -43.1 9.1 -48.2 6.3 -53.45 L6.0 -53.3 Q5.6 -42.3 2.05 -32.0 -1.6 -21.55 -11.8 -16.25 -9.8 -11.65 -6.85 -7.6 -6.4 -6.95 -6.2 -6.1 -5.3 -2.5 -9.25 -2.85 -11.95 -3.1 -12.95 -5.8 -13.9 -8.25 -15.35 -10.4 -16.65 -12.25 -16.95 -14.45 -19.75 -19.8 -13.8 -21.9 -12.0 -22.5 -10.45 -23.65 -5.3 -27.45 -3.5 -33.25 L-3.05 -33.9 Q0.65 -45.4 0.35 -57.6 0.3 -59.95 1.6 -61.7 L2.8 -62.8 Q3.45 -66.2 4.6 -69.45 6.75 -75.45 7.85 -81.65 L9.0 -89.1 Q3.2 -90.75 -0.65 -95.35 -1.05 -95.8 -1.05 -96.45 -1.3 -101.5 3.65 -103.5 L6.3 -104.8 11.6 -107.25 11.55 -108.65 Q11.7 -111.25 13.0 -113.4 13.45 -114.25 14.3 -114.25 16.6 -113.35 17.2 -111.3 L17.75 -110.75 19.35 -111.3 Q24.45 -109.85 20.55 -106.15 L20.35 -105.95 21.6 -105.2 22.5 -104.75 Q28.0 -102.25 33.15 -99.1 30.4 -103.35 26.95 -107.1 L26.8 -107.25 25.05 -109.0 Q23.75 -109.2 23.0 -110.3 L22.65 -110.9 Q19.25 -112.05 20.8 -115.05 21.45 -116.35 22.75 -116.35 27.1 -114.75 30.5 -111.55 M10.65 -100.75 Q7.7 -99.3 4.95 -97.5 6.75 -95.8 9.7 -94.9 L10.5 -100.1 10.65 -100.75" fill="#000000" fill-rule="evenodd" stroke="none"/>
  </g>
</svg>
