<?xml version="1.0" encoding="UTF-8" standalone="no"?>
<svg xmlns:ffdec="https://www.free-decompiler.com/flash" xmlns:xlink="http://www.w3.org/1999/xlink" ffdec:objectType="shape" height="160.0px" width="97.55px" xmlns="http://www.w3.org/2000/svg">
  <g transform="matrix(1.0, 0.0, 0.0, 1.0, 35.6, 142.3)">
    <path d="M30.6 -131.75 Q37.65 -130.85 45.05 -131.4 L45.05 -131.25 44.9 -130.8 44.95 -129.75 Q44.95 -127.8 44.05 -126.15 L43.85 -122.1 41.8 -118.4 41.9 -118.0 42.0 -117.75 47.05 -116.4 46.65 -115.7 44.2 -113.45 43.6 -112.65 43.1 -111.5 43.15 -110.95 43.2 -110.4 44.2 -109.35 Q47.8 -110.4 51.7 -110.45 51.7 -109.1 51.25 -107.8 49.1 -108.45 47.05 -107.35 L46.9 -106.9 46.75 -106.6 46.4 -105.85 46.5 -103.7 46.55 -101.9 12.4 -102.0 9.15 -101.85 -18.7 -101.2 -15.85 -102.3 -14.85 -103.95 Q-14.1 -105.25 -14.05 -106.75 L-10.25 -106.9 Q-7.35 -108.9 -6.95 -112.2 L-7.1 -112.8 Q-8.75 -115.3 -9.85 -118.15 -5.1 -116.8 -0.35 -117.35 0.95 -119.2 1.0 -121.35 1.0 -124.75 1.9 -128.15 L2.2 -128.55 5.6 -128.0 Q7.6 -127.4 8.85 -128.8 L9.0 -129.1 9.1 -129.35 Q10.55 -131.9 10.5 -134.9 L10.5 -142.3 Q14.0 -140.3 16.65 -137.35 L17.55 -136.65 19.4 -136.7 Q23.55 -138.7 27.2 -141.25 28.4 -139.9 28.75 -137.85 29.4 -134.7 30.6 -131.75 M50.0 -79.5 L51.55 -76.65 52.0 -75.95 Q52.65 -74.25 53.6 -72.65 54.25 -71.2 54.55 -69.6 51.1 -70.1 47.85 -71.8 L42.45 -74.6 Q38.85 -75.3 35.9 -73.5 35.85 -72.65 35.95 -71.9 36.2 -70.2 36.75 -68.55 L37.25 -67.25 Q39.3 -65.25 41.35 -63.85 L41.85 -63.5 Q42.65 -63.1 42.85 -62.45 L36.1 -61.95 Q34.65 -61.75 33.85 -60.7 33.25 -59.2 33.15 -58.15 L36.8 -50.85 Q32.4 -48.45 28.9 -45.6 29.45 -45.15 30.05 -44.85 L30.3 -44.8 Q32.55 -43.75 33.65 -41.75 34.25 -40.85 35.1 -40.25 38.3 -38.1 40.75 -35.3 39.45 -34.95 38.75 -33.75 L38.2 -32.3 36.7 -29.9 36.7 -29.55 36.7 -28.8 34.9 -27.85 31.0 -25.2 30.7 -24.2 Q30.3 -23.1 30.4 -21.9 L37.5 -19.9 Q37.55 -18.2 37.0 -16.6 L35.15 -10.6 34.75 -10.1 34.15 -9.3 33.7 -8.4 Q32.8 -7.95 32.4 -7.55 L33.05 -7.45 40.4 -7.15 Q40.65 -6.35 39.85 -5.9 35.25 -2.7 31.65 1.2 L30.45 2.1 Q29.3 3.15 28.25 4.6 L29.4 5.85 33.3 10.95 31.15 10.4 25.8 8.85 23.35 9.05 Q19.55 10.95 17.5 14.8 L16.1 13.05 12.9 10.0 9.8 7.0 Q8.45 5.85 6.9 6.3 L5.85 6.75 Q0.8 9.65 -3.0 14.05 -3.25 13.85 -3.7 13.75 L-6.25 15.95 Q-7.6 17.2 -9.05 17.7 -10.45 13.45 -13.05 10.9 -15.55 8.2 -19.6 7.35 -22.1 6.6 -23.65 5.25 L-27.7 5.55 -26.7 2.0 Q-25.95 -0.4 -25.75 -2.9 -25.75 -4.1 -26.05 -5.25 -26.7 -7.8 -29.25 -9.45 L-35.6 -13.35 Q-31.7 -15.0 -28.65 -17.85 L-27.8 -18.65 -26.85 -19.4 Q-25.45 -20.6 -24.55 -22.4 L-25.15 -23.9 -26.6 -27.35 -27.2 -27.9 Q-28.1 -29.4 -29.4 -30.5 L-29.8 -31.2 -30.35 -32.35 -31.5 -35.15 -22.3 -36.05 Q-20.9 -36.45 -19.5 -37.1 L-13.5 -38.65 -13.35 -39.65 Q-13.55 -40.5 -14.05 -41.15 -15.8 -43.5 -18.1 -45.5 L-18.65 -46.25 Q-18.95 -46.8 -19.65 -47.05 L-20.65 -48.0 -20.25 -49.25 Q-19.45 -50.65 -19.6 -52.35 L-20.65 -53.6 Q-21.0 -53.9 -21.5 -53.9 L-21.3 -55.35 Q-20.8 -57.1 -20.75 -58.95 -17.25 -60.95 -13.5 -62.35 L-12.9 -62.85 Q-12.0 -65.75 -12.6 -68.15 -13.65 -72.5 -13.6 -77.15 L-13.6 -78.1 -13.3 -79.8 -12.45 -81.1 -13.9 -82.85 Q-7.75 -86.4 -3.15 -91.5 -2.35 -92.2 -2.1 -93.0 -2.8 -94.35 -4.0 -95.45 L5.95 -95.45 10.8 -95.5 58.6 -95.6 61.95 -94.1 51.95 -88.55 52.6 -86.2 52.95 -83.5 Q50.9 -83.35 49.4 -82.0 L49.45 -81.4 49.5 -80.55 49.8 -79.95 50.0 -79.5" fill="#ffff00" fill-opacity="0.5019608" fill-rule="evenodd" stroke="none"/>
  </g>
</svg>
