<?xml version="1.0" encoding="UTF-8" standalone="no"?>
<svg xmlns:ffdec="https://www.free-decompiler.com/flash" xmlns:xlink="http://www.w3.org/1999/xlink" ffdec:objectType="shape" height="129.3px" width="53.9px" xmlns="http://www.w3.org/2000/svg">
  <g transform="matrix(1.0, 0.0, 0.0, 1.0, 11.85, 128.45)">
    <path d="M11.05 -108.6 Q7.75 -111.95 7.75 -116.75 7.75 -121.6 11.15 -125.05 14.6 -128.45 19.45 -128.45 24.3 -128.45 27.7 -125.05 31.1 -121.6 31.1 -116.75 31.1 -113.8 29.85 -111.4 27.05 -112.4 24.0 -113.0 22.55 -113.0 21.7 -111.6 21.35 -111.05 21.6 -110.5 22.9 -107.85 25.35 -106.65 23.35 -105.5 21.05 -105.2 L19.8 -105.1 19.45 -105.1 19.1 -105.1 18.15 -105.55 18.05 -106.35 Q19.5 -106.8 19.75 -108.3 20.45 -112.45 15.55 -111.75 L15.45 -111.7 14.3 -112.15 Q12.7 -112.1 11.9 -110.55 L11.4 -109.45 11.05 -108.6" fill="#0c0c0c" fill-rule="evenodd" stroke="none"/>
    <path d="M29.85 -111.4 Q36.25 -109.1 41.55 -104.7 42.25 -104.1 42.0 -103.15 41.05 -99.9 37.05 -99.8 26.35 -99.65 15.75 -100.25 L15.1 -88.7 16.0 -89.0 Q20.15 -90.05 23.25 -87.6 25.6 -85.7 24.4 -84.0 24.3 -82.6 21.55 -81.6 L17.5 -81.5 14.7 -82.4 14.65 -82.15 Q14.2 -75.3 13.4 -68.55 L11.4 -54.8 Q12.35 -53.55 12.35 -51.5 L12.4 -51.2 Q15.25 -47.25 16.4 -42.65 L16.5 -41.7 Q19.2 -36.35 18.2 -30.3 17.65 -27.1 17.95 -24.0 L19.45 -5.7 Q24.7 -5.85 29.75 -3.8 30.6 -3.45 30.6 -2.55 30.55 2.1 25.45 0.4 21.95 -0.75 18.05 -0.1 17.15 0.05 16.4 -0.55 13.1 -3.3 13.85 -8.2 L13.85 -10.05 Q12.25 -22.5 12.45 -35.0 12.5 -37.95 11.6 -40.8 10.55 -44.1 8.5 -47.0 L8.45 -47.1 5.95 -34.85 5.1 -32.05 Q4.95 -31.25 4.25 -30.25 L3.25 -28.7 2.55 -28.3 Q-1.8 -23.5 -6.45 -19.0 -5.5 -17.25 -6.0 -14.5 L-5.9 -13.6 Q-4.4 -8.7 -5.35 -3.9 -5.65 -2.5 -7.1 -2.8 -10.55 -3.45 -10.55 -7.2 -10.55 -9.1 -11.05 -10.95 -11.95 -14.25 -11.3 -17.25 -12.05 -17.95 -11.8 -19.05 -10.55 -24.7 -5.25 -27.9 -3.05 -30.65 -0.45 -33.05 L-0.3 -33.75 Q3.2 -45.7 4.95 -58.1 L5.4 -61.95 Q5.6 -63.85 7.1 -64.35 L7.5 -71.75 Q7.6 -73.2 8.65 -74.25 L9.5 -84.6 Q3.1 -87.75 -2.2 -92.9 L-3.8 -94.8 Q-6.9 -99.5 -1.75 -102.4 4.05 -105.65 10.55 -106.65 L11.05 -108.6 11.4 -109.45 11.9 -110.55 Q12.7 -112.1 14.3 -112.15 L15.45 -111.7 15.55 -111.75 Q20.45 -112.45 19.75 -108.3 19.5 -106.8 18.05 -106.35 L17.7 -106.3 16.35 -106.2 16.3 -106.15 16.1 -105.85 16.05 -104.75 19.8 -105.1 21.05 -105.2 30.2 -105.65 Q27.35 -105.65 25.35 -106.65 22.9 -107.85 21.6 -110.5 21.35 -111.05 21.7 -111.6 22.55 -113.0 24.0 -113.0 27.05 -112.4 29.85 -111.4 M10.1 -97.95 L10.25 -100.85 Q5.2 -100.1 1.35 -97.3 5.3 -93.55 9.85 -90.75 L10.1 -97.95" fill="#000000" fill-rule="evenodd" stroke="none"/>
  </g>
</svg>
