<?xml version="1.0" encoding="UTF-8" standalone="no"?>
<svg xmlns:ffdec="https://www.free-decompiler.com/flash" xmlns:xlink="http://www.w3.org/1999/xlink" ffdec:objectType="shape" height="157.95px" width="88.0px" xmlns="http://www.w3.org/2000/svg">
  <g transform="matrix(1.0, 0.0, 0.0, 1.0, 36.55, 141.45)">
    <path d="M28.6 -132.7 Q35.05 -132.1 41.65 -132.35 L41.7 -132.25 41.95 -132.1 42.1 -130.8 Q42.35 -128.3 41.75 -125.85 41.5 -122.65 41.6 -119.5 L40.65 -117.3 40.9 -117.0 41.15 -116.8 51.45 -114.5 50.95 -113.85 Q48.7 -111.9 46.8 -109.55 L46.5 -108.45 46.2 -106.9 46.35 -106.5 46.4 -106.15 Q48.05 -104.2 50.3 -102.8 L48.45 -102.95 44.6 -103.45 Q43.8 -103.5 43.2 -103.05 45.05 -102.85 47.1 -102.1 47.15 -100.1 46.55 -98.25 42.5 -100.4 38.3 -99.05 L38.2 -98.55 38.15 -98.35 38.0 -97.55 38.15 -96.3 38.3 -94.2 38.6 -94.05 36.75 -94.1 Q22.8 -94.3 8.9 -94.85 L-13.5 -95.75 -5.6 -102.15 Q-3.9 -103.15 -3.1 -104.5 -3.0 -106.5 -4.0 -108.45 -8.6 -110.65 -13.4 -112.65 L-7.45 -114.35 Q-6.5 -115.3 -5.9 -116.5 -4.7 -118.9 -4.9 -121.7 -1.3 -121.8 1.85 -120.55 3.4 -121.6 3.7 -123.25 L3.65 -123.55 3.05 -126.7 7.85 -126.4 Q9.0 -127.95 9.55 -129.55 10.45 -132.15 11.9 -134.65 L12.1 -135.0 13.8 -134.8 Q14.85 -134.6 15.5 -135.35 L15.7 -135.5 16.0 -135.75 Q16.85 -136.85 16.9 -138.2 17.0 -139.85 17.25 -141.45 19.6 -139.65 20.9 -137.15 L21.3 -136.55 22.3 -136.45 Q24.6 -137.25 26.5 -138.25 27.25 -137.25 27.5 -135.8 27.85 -134.15 28.6 -132.7 M44.2 -88.1 L44.4 -88.1 42.6 -84.9 43.95 -80.9 Q44.5 -78.55 44.65 -76.15 40.35 -76.1 37.25 -73.65 L37.25 -72.6 37.3 -71.0 37.9 -70.3 38.2 -69.75 Q40.05 -67.2 41.05 -64.45 L41.75 -63.35 44.3 -59.1 44.55 -57.35 Q42.65 -57.45 41.0 -58.2 L38.1 -59.3 Q34.2 -58.9 30.85 -57.0 L30.75 -55.9 31.1 -53.75 31.4 -52.0 Q34.8 -49.0 38.75 -47.4 L39.45 -47.0 Q40.3 -46.65 40.75 -45.95 L37.5 -45.3 Q36.75 -45.05 36.15 -44.3 35.25 -42.5 34.2 -41.25 33.75 -38.5 34.2 -35.35 31.4 -32.85 29.8 -29.9 L32.1 -28.8 32.6 -28.65 Q37.0 -27.05 39.3 -23.35 L39.8 -22.45 42.1 -19.4 Q39.65 -19.1 38.35 -17.0 L38.05 -15.5 37.35 -13.0 37.45 -12.65 37.6 -11.9 34.95 -11.6 29.05 -10.4 28.5 -9.45 Q27.75 -8.2 27.65 -6.75 L31.1 -5.55 30.55 -3.55 29.5 0.0 29.05 0.65 28.25 1.85 27.8 2.2 25.25 1.6 25.45 1.45 26.7 0.05 26.6 0.1 Q24.25 1.65 22.3 3.65 L20.0 4.75 Q17.6 6.05 15.55 8.15 L16.1 8.8 17.85 11.4 16.6 11.05 13.75 10.05 12.4 10.0 Q10.35 10.7 9.25 12.3 L7.45 9.0 5.85 7.45 4.25 5.85 Q3.6 5.25 2.8 5.45 L2.3 5.7 Q-0.25 7.05 -2.1 9.1 -2.45 8.6 -3.05 8.45 L-8.1 12.9 Q-10.75 15.45 -13.6 16.5 -14.3 13.35 -15.4 11.1 -16.5 8.6 -18.85 7.35 L-21.95 5.0 -30.55 6.25 -28.95 0.0 Q-27.85 -4.3 -27.9 -8.8 L-28.35 -10.1 Q-29.15 -11.55 -30.85 -12.5 -33.75 -13.8 -36.55 -14.45 L-31.2 -18.55 Q-30.45 -19.35 -29.5 -19.7 -28.55 -20.05 -27.7 -20.55 -24.85 -22.1 -23.05 -24.75 L-23.5 -26.2 -25.45 -30.2 -26.25 -30.85 -27.45 -32.3 -27.8 -33.0 -28.2 -33.75 Q-30.55 -36.05 -32.3 -38.9 L-25.05 -39.8 Q-23.45 -40.6 -21.7 -41.2 L-9.75 -43.95 Q-9.6 -44.35 -9.6 -44.85 -9.65 -45.95 -10.2 -46.7 -11.45 -48.3 -13.25 -49.5 L-14.25 -50.55 Q-14.9 -51.05 -15.9 -51.05 L-17.3 -52.25 -16.45 -54.6 Q-14.85 -57.3 -15.15 -60.5 L-16.85 -61.95 -18.8 -62.2 -18.55 -64.9 Q-17.6 -68.15 -17.65 -71.55 -17.95 -73.45 -17.65 -74.75 L-17.1 -75.35 Q-15.55 -77.85 -14.65 -80.15 -12.95 -84.2 -10.65 -88.3 L-10.55 -89.15 -10.55 -89.25 16.0 -88.85 44.2 -88.1" fill="#ffff00" fill-opacity="0.5019608" fill-rule="evenodd" stroke="none"/>
  </g>
</svg>
