<?xml version="1.0" encoding="UTF-8" standalone="no"?>
<svg xmlns:ffdec="https://www.free-decompiler.com/flash" xmlns:xlink="http://www.w3.org/1999/xlink" ffdec:objectType="shape" height="128.45px" width="50.8px" xmlns="http://www.w3.org/2000/svg">
  <g transform="matrix(1.0, 0.0, 0.0, 1.0, 12.3, 128.45)">
    <path d="M10.6 -108.0 L10.05 -108.5 Q6.65 -111.9 6.65 -116.75 6.65 -121.6 10.05 -125.05 13.5 -128.45 18.35 -128.45 23.2 -128.45 26.6 -125.05 30.0 -121.6 30.0 -116.75 30.0 -113.85 28.8 -111.5 25.45 -113.05 21.95 -114.2 18.8 -113.7 19.75 -110.55 20.2 -109.15 21.6 -108.55 L24.85 -107.0 Q22.0 -105.1 18.35 -105.1 L17.55 -105.1 17.5 -104.9 16.2 -105.3 Q17.85 -109.8 13.5 -110.8 11.05 -110.35 10.6 -108.0" fill="#0c0c0c" fill-rule="evenodd" stroke="none"/>
    <path d="M28.8 -111.5 L35.6 -107.9 Q39.0 -105.8 38.4 -102.3 38.1 -100.55 36.35 -100.7 L25.9 -99.95 15.45 -99.6 Q15.15 -92.65 14.4 -85.85 L16.85 -85.2 Q21.0 -84.3 19.05 -80.85 17.3 -77.6 13.5 -79.15 L13.1 -76.85 12.8 -73.4 Q12.65 -69.55 11.5 -66.15 11.85 -60.85 11.1 -55.85 12.75 -54.1 13.5 -51.35 L14.4 -47.45 14.45 -46.8 Q17.0 -38.6 17.2 -29.7 17.45 -17.55 18.7 -5.6 23.5 -6.45 28.1 -5.0 29.5 -4.55 29.45 -3.1 29.45 -0.65 27.05 -0.3 20.7 0.5 14.85 -0.95 13.9 -1.2 13.8 -2.15 12.4 -11.25 12.2 -20.5 12.0 -32.3 9.55 -43.5 L5.25 -26.0 Q5.8 -24.95 4.6 -23.3 L4.55 -23.2 4.1 -22.7 4.05 -22.7 Q3.3 -21.9 2.3 -21.55 -3.1 -19.55 -7.1 -15.95 -6.45 -13.0 -5.25 -10.25 L-4.85 -9.0 Q-2.05 -5.3 -6.45 -4.05 -7.55 -3.75 -8.3 -4.7 -11.45 -8.9 -12.15 -14.2 -13.2 -21.5 -6.05 -23.8 L-4.15 -24.7 Q-1.85 -26.15 0.6 -27.0 1.0 -32.5 2.55 -37.8 4.25 -43.8 5.0 -49.9 5.2 -51.65 6.35 -52.4 L6.3 -53.6 Q5.95 -54.4 5.95 -55.7 6.0 -62.4 6.75 -68.95 L7.05 -69.6 Q7.45 -75.85 8.1 -82.0 0.95 -86.65 -3.35 -94.1 -4.25 -95.6 -4.05 -97.35 -3.8 -99.55 -1.65 -100.65 4.05 -103.55 10.1 -104.9 L10.45 -104.85 10.5 -107.0 10.6 -108.0 Q11.05 -110.35 13.5 -110.8 17.85 -109.8 16.2 -105.3 L15.95 -104.5 Q21.7 -104.4 27.25 -105.65 L24.85 -107.0 21.6 -108.55 Q20.2 -109.15 19.75 -110.55 18.8 -113.7 21.95 -114.2 25.45 -113.05 28.8 -111.5 M8.8 -88.6 L9.4 -93.4 10.1 -99.2 Q5.75 -98.0 1.9 -95.9 4.6 -91.4 8.8 -88.6" fill="#000000" fill-rule="evenodd" stroke="none"/>
  </g>
</svg>
