<?xml version="1.0" encoding="UTF-8" standalone="no"?>
<svg xmlns:ffdec="https://www.free-decompiler.com/flash" xmlns:xlink="http://www.w3.org/1999/xlink" ffdec:objectType="shape" height="157.45px" width="93.35px" xmlns="http://www.w3.org/2000/svg">
  <g transform="matrix(1.0, 0.0, 0.0, 1.0, 37.55, 142.1)">
    <path d="M7.8 -78.9 L19.0 -77.95 34.95 -76.75 Q36.1 -72.85 36.35 -68.85 29.8 -68.85 25.05 -65.25 L25.05 -63.75 25.05 -61.5 26.45 -59.95 Q29.1 -56.25 30.5 -52.2 L31.5 -50.75 35.0 -45.5 34.5 -45.1 33.75 -44.05 Q29.6 -42.5 25.8 -40.45 25.4 -39.75 25.45 -38.95 L25.55 -36.7 Q30.3 -32.7 36.2 -30.9 L37.0 -30.45 38.7 -29.5 Q39.1 -28.7 38.5 -27.85 37.2 -25.8 35.3 -24.35 30.15 -20.35 30.65 -14.25 32.25 -13.3 34.1 -12.75 41.3 -10.6 44.9 -4.95 L44.55 -4.6 43.4 -3.5 Q39.8 -3.2 37.95 -0.25 L37.95 1.25 37.95 3.85 38.15 4.2 38.45 4.95 27.05 4.45 26.25 5.3 Q25.15 6.7 24.95 8.45 L24.7 8.8 24.05 9.55 Q24.15 10.1 23.85 10.6 L22.35 13.0 21.85 12.75 18.1 10.8 13.8 6.4 Q13.4 6.0 13.0 6.1 7.45 7.6 2.85 11.75 L2.4 11.8 2.0 11.65 Q1.35 10.85 0.95 9.85 L-1.25 4.95 -1.25 4.6 -1.25 4.2 Q-1.6 3.4 -2.45 3.2 -6.35 6.3 -9.95 9.9 -13.85 13.75 -18.1 15.35 L-17.8 11.35 Q-17.05 6.65 -20.3 4.7 L-33.35 6.95 -31.2 -2.0 Q-29.7 -8.15 -30.0 -14.65 -33.6 -16.4 -37.55 -15.5 -35.85 -17.65 -33.8 -19.3 -32.65 -20.3 -31.25 -20.7 -25.1 -22.45 -21.55 -27.05 -21.5 -27.8 -21.8 -28.55 -22.85 -30.85 -24.3 -33.0 L-25.3 -33.75 -25.5 -34.15 -25.8 -34.85 -26.05 -35.2 Q-30.05 -38.5 -33.1 -42.65 L-27.75 -43.55 Q-26.05 -44.8 -23.85 -45.3 L-6.05 -49.25 -5.85 -50.0 Q-5.65 -52.65 -8.4 -53.45 -9.5 -55.5 -12.15 -55.05 L-13.9 -56.45 Q-13.6 -58.35 -12.65 -59.95 -10.25 -63.95 -10.65 -68.7 -12.8 -71.0 -16.1 -70.45 -16.25 -72.5 -15.75 -74.4 -14.95 -77.3 -14.7 -80.3 L7.8 -78.9 M22.85 -142.1 L24.0 -140.65 Q25.35 -138.75 25.05 -136.4 L25.8 -135.25 26.2 -133.8 26.55 -133.6 Q32.4 -133.3 38.2 -133.3 L38.95 -133.45 Q39.8 -129.65 39.4 -125.5 39.0 -121.2 39.35 -116.95 39.4 -116.05 40.25 -115.85 L55.8 -112.6 55.2 -112.0 Q52.0 -109.15 49.35 -105.65 L49.35 -104.2 49.35 -102.3 49.65 -101.95 Q51.65 -99.55 54.35 -97.75 L44.65 -97.7 Q43.35 -97.65 42.4 -96.75 L42.5 -93.75 Q42.6 -91.1 41.8 -88.65 35.85 -92.3 29.55 -90.8 L29.55 -90.05 29.55 -89.3 29.85 -88.9 30.0 -88.55 30.0 -88.2 30.0 -87.8 32.5 -83.0 4.55 -85.15 -21.35 -87.0 -21.8 -87.2 -21.35 -87.85 Q-14.85 -94.0 -7.65 -99.45 -7.15 -101.8 -9.0 -102.8 L-15.5 -106.8 Q-12.5 -110.55 -8.0 -112.8 -2.75 -115.4 -2.85 -120.55 -5.15 -122.65 -7.9 -124.15 L1.0 -126.35 Q2.35 -127.5 3.05 -129.05 4.7 -132.55 4.25 -136.65 9.3 -136.5 13.9 -134.2 L14.4 -134.35 Q15.2 -134.65 15.9 -135.2 L16.05 -135.5 Q18.7 -138.55 21.85 -141.15 L21.95 -141.5 22.1 -141.85 22.85 -142.1" fill="#ffff00" fill-opacity="0.5019608" fill-rule="evenodd" stroke="none"/>
  </g>
</svg>
