<?xml version="1.0" encoding="UTF-8" standalone="no"?>
<svg xmlns:ffdec="https://www.free-decompiler.com/flash" xmlns:xlink="http://www.w3.org/1999/xlink" ffdec:objectType="shape" height="128.9px" width="49.3px" xmlns="http://www.w3.org/2000/svg">
  <g transform="matrix(1.0, 0.0, 0.0, 1.0, 10.1, 127.9)">
    <path d="M9.75 -107.7 L9.5 -107.95 Q6.1 -111.35 6.1 -116.2 6.1 -121.05 9.5 -124.5 12.95 -127.9 17.8 -127.9 22.65 -127.9 26.05 -124.5 29.45 -121.05 29.45 -116.2 29.45 -113.75 28.6 -111.6 L24.0 -113.0 Q23.3 -112.95 22.6 -112.5 21.9 -112.05 21.85 -111.3 21.65 -107.9 24.75 -106.8 23.15 -105.6 21.35 -105.05 L21.25 -105.05 17.25 -104.65 16.5 -105.0 16.45 -105.55 Q17.45 -109.55 13.45 -110.45 12.95 -110.4 12.45 -109.9 L11.2 -108.25 10.95 -108.35 10.4 -108.15 9.75 -107.7" fill="#0c0c0c" fill-rule="evenodd" stroke="none"/>
    <path d="M28.6 -111.6 Q34.0 -109.65 38.6 -106.25 39.6 -105.55 38.95 -104.45 37.1 -101.2 33.0 -101.65 L30.2 -101.3 Q22.9 -98.6 15.4 -99.65 L15.4 -98.8 Q15.55 -86.15 14.4 -73.8 13.85 -67.75 12.25 -62.05 L11.75 -59.95 11.05 -56.05 11.35 -56.15 Q14.45 -55.3 14.4 -52.05 L14.4 -51.7 Q15.3 -50.6 15.25 -49.2 L15.35 -48.25 Q17.6 -45.55 18.55 -42.2 L18.65 -41.6 Q20.05 -36.2 19.8 -30.2 19.45 -23.3 19.8 -16.35 19.9 -13.7 18.65 -11.6 L18.65 -6.85 18.65 -5.3 Q22.7 -4.35 28.4 -4.25 29.8 -4.25 30.5 -3.05 32.2 0.05 28.6 0.8 L26.5 0.95 17.1 0.1 Q12.5 -0.3 13.05 -5.0 13.35 -7.35 13.15 -9.7 12.9 -12.35 14.1 -14.45 L14.2 -35.6 14.2 -38.45 11.35 -45.0 11.3 -44.45 Q11.1 -38.8 11.35 -33.1 11.55 -28.9 10.05 -25.3 9.65 -24.35 8.65 -24.0 1.3 -21.45 -4.55 -16.65 -4.4 -10.45 -4.9 -4.7 -5.0 -3.65 -6.1 -3.6 -10.05 -3.45 -10.1 -7.4 -10.2 -13.75 -8.95 -19.65 -8.75 -20.5 -8.0 -21.1 -1.7 -26.0 5.7 -29.1 5.75 -40.4 6.35 -51.45 5.4 -52.35 5.5 -54.25 5.65 -60.55 7.2 -66.65 8.55 -72.1 9.1 -77.7 6.8 -78.65 5.1 -80.9 3.55 -83.0 1.4 -84.45 -5.25 -89.05 -4.05 -96.5 -3.95 -97.05 -3.45 -97.5 2.8 -103.05 9.75 -107.7 L10.4 -108.15 10.95 -108.35 11.2 -108.25 12.45 -109.9 Q12.95 -110.4 13.45 -110.45 17.45 -109.55 16.45 -105.55 L16.3 -105.0 16.2 -104.55 17.25 -104.65 21.25 -105.05 21.35 -105.05 Q24.15 -105.4 26.75 -106.35 L24.75 -106.8 Q21.65 -107.9 21.85 -111.3 21.9 -112.05 22.6 -112.5 23.3 -112.95 24.0 -113.0 L28.6 -111.6 M6.65 -87.35 L7.15 -87.0 8.95 -85.3 9.6 -85.25 10.15 -101.65 1.25 -94.15 Q2.3 -89.75 6.65 -87.35" fill="#000000" fill-rule="evenodd" stroke="none"/>
  </g>
</svg>
