<?xml version="1.0" encoding="UTF-8" standalone="no"?>
<svg xmlns:ffdec="https://www.free-decompiler.com/flash" xmlns:xlink="http://www.w3.org/1999/xlink" ffdec:objectType="shape" height="128.4px" width="43.2px" xmlns="http://www.w3.org/2000/svg">
  <g transform="matrix(1.0, 0.0, 0.0, 1.0, 7.25, 127.9)">
    <path d="M10.4 -108.15 Q7.2 -111.5 7.2 -116.2 7.2 -121.05 10.6 -124.5 14.05 -127.9 18.9 -127.9 23.75 -127.9 27.15 -124.5 30.55 -121.05 30.55 -116.2 30.55 -111.65 27.55 -108.35 L12.65 -109.65 11.45 -109.15 10.4 -108.15" fill="#0c0c0c" fill-rule="evenodd" stroke="none"/>
    <path d="M27.55 -108.35 L33.25 -107.95 Q35.75 -107.8 35.6 -105.95 36.55 -104.15 34.85 -101.45 34.25 -100.5 33.2 -99.95 26.85 -96.65 20.0 -94.6 L17.15 -93.65 15.45 -93.25 Q15.15 -91.1 14.4 -89.1 12.6 -77.55 11.8 -65.75 L11.8 -64.8 Q14.65 -63.5 14.55 -59.95 14.45 -57.3 15.1 -54.8 L18.05 -42.95 Q18.65 -40.35 19.8 -37.9 22.0 -33.15 19.35 -29.15 18.85 -28.4 18.0 -28.0 L16.3 -27.1 16.9 -18.35 17.35 -10.75 Q18.65 -8.2 18.85 -5.55 23.8 -5.4 28.55 -4.15 29.15 -4.0 29.3 -3.25 29.8 -0.4 26.95 0.15 23.0 0.9 19.3 0.05 L15.95 -0.25 Q13.85 -0.1 13.55 -2.15 L13.5 -2.9 Q13.05 -3.8 13.0 -5.15 12.9 -7.6 12.4 -10.0 11.15 -16.0 11.05 -22.25 L11.0 -24.2 3.9 -19.8 Q3.95 -14.45 3.6 -9.4 3.55 -8.6 2.65 -8.4 -1.1 -7.65 -1.35 -11.4 -1.75 -17.4 -0.5 -23.0 L0.15 -23.9 Q5.15 -27.35 10.45 -30.25 9.0 -41.45 6.95 -52.5 6.4 -55.55 6.9 -58.6 5.95 -60.1 6.25 -62.4 L7.5 -74.0 8.6 -85.7 Q8.95 -89.45 9.7 -93.05 L10.2 -96.1 10.95 -100.9 -0.45 -95.4 Q-2.2 -92.8 -1.8 -89.4 -1.7 -88.3 -1.25 -87.3 3.6 -85.35 0.3 -81.85 -0.5 -81.05 -1.65 -81.35 -7.65 -82.9 -7.2 -89.35 L-6.4 -95.55 Q-5.9 -98.25 -3.6 -99.8 L1.45 -102.8 Q5.75 -105.05 10.1 -107.0 10.0 -107.6 10.4 -108.15 L11.45 -109.15 12.65 -109.65 27.55 -108.35 M16.1 -99.6 L19.1 -100.7 26.9 -103.05 17.05 -103.45 16.8 -102.6 16.1 -99.6" fill="#000000" fill-rule="evenodd" stroke="none"/>
  </g>
</svg>
