<?xml version="1.0" encoding="UTF-8" standalone="no"?>
<svg xmlns:ffdec="https://www.free-decompiler.com/flash" xmlns:xlink="http://www.w3.org/1999/xlink" ffdec:objectType="shape" height="151.2px" width="76.75px" xmlns="http://www.w3.org/2000/svg">
  <g transform="matrix(1.0, 0.0, 0.0, 1.0, 25.95, 142.35)">
    <path d="M33.25 -134.55 L33.4 -134.25 33.65 -133.7 33.55 -132.85 33.85 -132.3 34.3 -131.45 34.25 -131.2 34.3 -131.2 34.3 -131.05 34.95 -129.85 35.1 -129.75 35.4 -129.5 35.5 -129.25 35.85 -128.65 35.8 -127.95 35.85 -126.6 Q35.75 -125.45 36.15 -124.25 L36.85 -123.5 37.2 -123.3 37.65 -123.25 Q40.75 -121.65 43.85 -119.3 L44.3 -119.15 47.65 -118.65 47.75 -118.55 Q47.85 -116.8 48.25 -114.8 L48.3 -114.65 48.6 -114.25 49.15 -113.65 50.0 -113.25 50.2 -113.05 50.4 -112.8 50.75 -112.7 50.75 -111.65 Q50.55 -108.65 49.85 -105.15 L48.95 -104.85 Q47.5 -104.65 46.45 -104.05 L46.25 -103.85 45.4 -103.2 45.35 -103.15 Q44.75 -102.55 44.8 -100.8 L44.9 -100.55 45.2 -99.95 45.6 -99.35 46.95 -97.65 48.25 -96.15 48.6 -95.65 48.75 -95.25 49.35 -93.9 48.95 -93.2 48.0 -92.85 45.6 -92.4 Q40.3 -91.65 36.4 -88.45 L36.0 -87.65 35.5 -86.75 35.55 -86.7 35.75 -86.35 36.1 -85.7 41.8 -78.65 41.95 -78.35 42.3 -77.65 42.9 -76.95 Q43.1 -76.35 43.55 -75.9 L43.65 -75.4 43.4 -74.2 Q40.3 -72.85 36.85 -72.3 L36.4 -72.25 Q32.9 -71.65 30.65 -69.6 L30.75 -68.55 32.6 -66.15 33.8 -65.4 37.65 -61.0 37.35 -59.4 26.05 -59.2 Q10.2 -58.95 -5.65 -59.65 L-5.2 -60.25 -5.05 -60.65 -4.85 -61.3 -5.2 -62.25 -6.9 -65.55 Q-7.25 -65.85 -7.6 -65.95 -11.95 -67.1 -16.45 -67.65 L-16.85 -68.45 Q-17.3 -69.55 -17.25 -71.1 L-16.65 -71.8 -15.55 -74.35 -15.55 -74.7 -15.5 -75.7 -16.4 -77.2 Q-16.7 -78.4 -17.95 -80.0 -22.15 -82.15 -25.9 -84.75 L-25.95 -84.8 -25.25 -85.25 Q-23.05 -86.1 -20.9 -87.1 L-20.1 -87.8 -17.05 -90.65 Q-16.6 -93.3 -16.85 -96.0 L-17.2 -99.6 -16.5 -100.7 -16.2 -101.45 Q-15.2 -102.55 -14.55 -104.45 L-14.2 -104.9 -13.3 -105.6 -12.6 -105.9 -10.4 -107.35 Q-8.4 -108.05 -6.5 -110.4 L-6.2 -110.4 Q-3.65 -111.65 -2.4 -113.75 -0.9 -115.95 0.5 -118.85 L0.45 -124.75 Q3.85 -126.25 5.2 -131.05 L6.5 -131.7 7.15 -132.0 Q8.8 -132.75 10.35 -133.75 L10.7 -134.2 Q13.1 -138.1 15.0 -142.1 15.3 -142.4 15.6 -142.3 L17.15 -142.3 17.3 -142.25 17.45 -142.25 18.35 -141.4 19.0 -140.15 Q25.9 -136.8 33.15 -134.75 L33.25 -134.55 M24.35 -52.9 L29.4 -53.0 28.95 -52.6 28.8 -52.3 28.4 -51.45 28.65 -49.95 29.8 -48.55 31.1 -48.15 Q32.9 -46.95 35.05 -46.05 L35.1 -46.0 35.35 -45.2 35.55 -44.8 36.1 -40.2 35.75 -39.45 35.6 -38.45 35.1 -36.4 35.2 -35.55 Q35.3 -34.3 35.75 -33.55 L35.95 -32.7 37.35 -30.7 42.55 -28.15 42.4 -27.5 Q42.05 -26.4 42.45 -24.35 L43.15 -23.15 42.75 -22.05 42.3 -20.1 41.6 -13.9 42.3 -9.85 43.2 -8.45 43.2 -8.35 43.0 -8.3 Q42.15 -8.35 41.55 -5.75 L40.8 -5.3 Q39.45 -4.7 38.15 -3.75 L36.5 -1.5 Q34.95 0.75 33.75 3.35 L33.7 3.95 33.5 4.4 33.55 5.15 33.5 6.1 33.2 6.35 33.15 6.35 32.9 6.45 32.6 6.55 32.65 6.5 32.55 6.55 31.8 6.75 31.85 6.75 30.85 6.85 Q30.45 6.7 29.85 7.15 L29.15 7.0 Q26.35 5.6 22.85 6.15 L22.05 6.05 Q20.9 6.2 19.95 6.75 L19.15 7.6 18.45 8.15 17.4 8.35 Q16.4 7.7 15.25 7.25 14.95 7.05 14.2 7.4 L11.65 8.85 10.8 8.85 Q8.0 7.25 4.85 5.95 L3.05 5.5 1.9 5.35 1.8 5.25 1.75 4.85 1.55 4.65 1.2 4.1 0.65 2.65 Q0.35 1.7 -0.85 0.7 L-1.55 0.4 Q-2.15 -2.65 -3.5 -4.9 -4.5 -6.9 -6.85 -7.8 -7.6 -8.55 -8.6 -8.9 L-9.7 -9.15 Q-9.5 -9.6 -9.45 -10.6 L-9.25 -11.95 -9.35 -12.65 -9.3 -12.85 -8.35 -15.95 -7.1 -20.8 -7.15 -21.2 -7.3 -23.95 -7.85 -25.0 -7.4 -25.55 -7.3 -25.6 -7.25 -25.7 -7.3 -25.75 Q-5.45 -26.25 -3.85 -28.35 L-3.65 -29.35 -3.6 -30.25 -3.35 -30.75 -3.4 -31.65 -3.65 -32.7 -3.5 -33.4 -3.2 -36.05 -2.8 -36.9 -2.4 -39.2 -2.55 -39.8 -2.8 -41.75 -3.25 -42.65 -4.4 -44.0 -12.8 -48.1 -13.35 -50.45 -13.8 -51.95 -13.3 -52.35 -12.95 -52.35 24.35 -52.9" fill="#ffff00" fill-opacity="0.5019608" fill-rule="evenodd" stroke="none"/>
  </g>
</svg>
