<?xml version="1.0" encoding="UTF-8" standalone="no"?>
<svg xmlns:ffdec="https://www.free-decompiler.com/flash" xmlns:xlink="http://www.w3.org/1999/xlink" ffdec:objectType="shape" height="128.45px" width="43.05px" xmlns="http://www.w3.org/2000/svg">
  <g transform="matrix(1.0, 0.0, 0.0, 1.0, 6.9, 128.45)">
    <path d="M13.05 -107.75 L12.25 -108.5 Q8.85 -111.9 8.85 -116.75 8.85 -121.6 12.25 -125.05 15.7 -128.45 20.55 -128.45 25.4 -128.45 28.8 -125.05 32.2 -121.6 32.2 -116.75 32.2 -111.9 28.8 -108.5 27.15 -106.85 25.15 -106.0 L18.4 -105.5 18.3 -105.45 18.6 -107.1 Q19.8 -111.45 16.05 -112.9 14.85 -112.9 13.9 -111.9 L13.55 -111.2 13.05 -107.75" fill="#0c0c0c" fill-rule="evenodd" stroke="none"/>
    <path d="M25.15 -106.0 L31.45 -106.05 32.5 -106.15 Q37.4 -106.1 35.75 -101.8 35.4 -100.8 34.45 -100.25 26.1 -95.05 16.6 -93.3 L14.95 -80.3 Q14.8 -79.2 14.05 -78.4 13.2 -72.6 12.95 -66.65 L12.9 -63.2 Q15.1 -61.6 16.65 -58.9 L17.85 -56.7 Q20.85 -50.6 22.9 -44.15 25.55 -40.8 26.8 -36.9 28.6 -35.0 25.45 -32.35 L22.35 -30.15 Q19.75 -28.55 17.4 -26.7 L17.4 -26.4 Q17.4 -16.6 18.45 -7.1 L18.7 -6.15 Q21.95 -5.3 27.25 -5.15 28.45 -5.1 29.0 -3.95 30.6 -0.5 26.6 0.0 L25.3 0.0 15.85 -0.8 Q14.2 -1.0 13.65 -2.6 13.3 -3.65 13.4 -4.75 L12.8 -7.0 Q10.65 -6.25 9.0 -8.7 6.65 -12.15 5.1 -16.05 L4.4 -18.1 Q3.9 -20.05 4.8 -21.1 L5.0 -21.75 Q5.4 -22.75 6.15 -23.55 8.9 -26.7 12.0 -29.35 L11.1 -35.1 8.8 -47.55 Q6.7 -59.8 7.95 -72.55 8.1 -74.15 8.4 -75.75 10.4 -87.45 11.95 -99.4 4.9 -97.75 -1.4 -94.25 -1.85 -91.25 -1.35 -88.25 L-0.95 -85.35 Q3.75 -83.7 1.3 -79.15 0.75 -78.15 -0.4 -78.3 -5.45 -79.05 -6.35 -84.1 -7.55 -90.75 -6.1 -97.3 -5.95 -98.0 -5.3 -98.4 2.5 -103.15 11.4 -105.3 L12.7 -105.3 13.05 -107.75 13.55 -111.2 13.9 -111.9 Q14.85 -112.9 16.05 -112.9 19.8 -111.45 18.6 -107.1 L18.3 -105.45 18.4 -105.5 25.15 -106.0 M17.4 -99.05 L17.55 -99.05 18.8 -99.15 Q20.2 -99.4 21.3 -100.25 L17.5 -99.95 17.4 -99.05 M13.6 -53.2 L13.45 -53.65 Q14.05 -47.9 15.45 -42.3 16.55 -37.9 17.05 -33.4 19.1 -34.9 21.3 -36.15 L20.15 -38.55 Q16.4 -44.6 14.35 -51.5 L13.6 -53.2 M12.45 -22.3 L9.9 -19.6 Q10.75 -18.35 11.05 -16.7 L11.05 -16.4 12.3 -14.25 12.45 -20.0 12.45 -22.3" fill="#000000" fill-rule="evenodd" stroke="none"/>
  </g>
</svg>
