<?xml version="1.0" encoding="UTF-8" standalone="no"?>
<svg xmlns:ffdec="https://www.free-decompiler.com/flash" xmlns:xlink="http://www.w3.org/1999/xlink" ffdec:objectType="shape" height="155.4px" width="77.35px" xmlns="http://www.w3.org/2000/svg">
  <g transform="matrix(1.0, 0.0, 0.0, 1.0, 23.45, 143.4)">
    <path d="M30.35 -131.7 Q30.65 -131.7 30.8 -131.85 L30.9 -132.25 30.9 -132.65 31.05 -132.7 33.4 -133.05 33.65 -133.05 34.15 -133.1 34.5 -133.1 35.55 -133.1 35.65 -132.4 35.9 -131.15 Q36.0 -130.05 36.4 -128.9 L36.9 -128.05 37.15 -127.75 37.55 -127.3 41.95 -121.35 Q42.15 -121.2 42.35 -121.15 L45.65 -120.85 46.0 -120.75 50.8 -118.65 50.95 -118.55 51.4 -118.35 52.15 -118.0 53.0 -117.7 53.3 -117.6 53.6 -117.4 53.9 -117.35 53.15 -116.35 49.35 -110.6 48.6 -110.15 Q47.25 -109.8 46.45 -108.8 L46.35 -108.55 45.9 -107.5 45.95 -107.4 47.5 -104.75 47.65 -104.5 48.1 -104.0 48.45 -103.5 49.95 -102.0 Q50.4 -101.2 51.2 -100.55 L51.6 -100.1 51.75 -99.7 52.35 -98.4 52.5 -97.55 51.65 -97.15 Q50.55 -96.6 49.35 -96.45 44.2 -95.6 40.3 -92.85 L39.7 -92.2 38.95 -91.35 39.05 -90.95 39.25 -90.3 44.1 -82.85 44.15 -82.5 44.35 -81.8 44.9 -81.05 Q44.9 -80.45 45.35 -80.0 L45.2 -79.5 43.95 -78.55 Q40.9 -77.45 37.55 -77.25 L37.05 -77.25 Q33.6 -77.05 31.15 -75.3 L30.4 -74.15 Q30.85 -72.8 31.65 -71.45 L32.85 -70.75 36.45 -66.35 37.3 -64.05 35.1 -61.8 34.05 -61.3 31.6 -60.0 29.15 -58.35 28.9 -58.15 28.3 -57.4 27.35 -55.85 28.0 -54.25 29.35 -53.85 Q31.3 -52.9 33.35 -52.2 L33.45 -52.15 34.25 -51.55 34.7 -51.25 38.85 -47.85 38.65 -47.0 38.45 -46.05 37.85 -44.15 37.85 -44.05 37.0 -44.1 21.1 -44.45 15.85 -44.55 -11.8 -46.2 -11.1 -46.95 Q-7.25 -50.55 -4.55 -54.8 L-4.4 -55.2 -4.15 -55.85 -4.1 -56.75 -4.3 -60.7 -5.0 -61.1 -13.7 -62.2 -14.6 -62.7 Q-16.05 -63.35 -16.8 -64.7 L-16.2 -65.45 -15.5 -68.05 -15.5 -68.35 -15.45 -69.3 -15.75 -71.1 Q-15.2 -72.45 -16.05 -74.35 -20.0 -76.6 -23.45 -79.4 L-23.45 -79.45 -22.8 -79.85 Q-20.75 -80.9 -18.9 -82.1 L-18.35 -83.05 -16.45 -86.75 Q-16.05 -89.35 -16.2 -91.95 L-16.4 -95.45 -15.2 -96.2 -14.75 -96.85 Q-13.1 -97.35 -12.15 -99.05 L-11.75 -99.6 -11.2 -100.65 -10.6 -101.2 -9.35 -103.8 Q-8.25 -106.0 -7.6 -109.0 L-7.3 -108.95 Q-4.35 -109.25 -2.25 -110.5 0.15 -111.8 2.3 -114.25 L2.3 -119.95 Q3.75 -123.5 3.5 -128.55 L4.85 -128.9 5.55 -129.05 Q7.25 -129.6 8.85 -130.4 L9.1 -130.85 Q10.8 -134.95 11.9 -139.2 L12.2 -139.8 13.0 -142.3 13.05 -142.9 13.1 -143.4 14.2 -142.95 15.1 -141.8 Q21.4 -137.75 28.0 -134.65 L28.15 -134.45 28.35 -134.2 28.75 -133.8 29.1 -133.1 29.5 -132.6 30.25 -131.85 30.25 -131.7 30.35 -131.7 M0.45 -3.8 Q-0.25 -4.45 -1.25 -4.8 L-2.3 -5.1 -3.95 -6.45 -5.5 -7.85 -5.8 -8.35 -5.7 -8.45 -4.15 -11.3 Q-3.0 -13.45 -1.95 -15.75 L-1.95 -16.15 -2.05 -18.8 -2.75 -19.7 -3.95 -20.8 -5.35 -21.3 -5.6 -21.55 -5.85 -21.75 Q-4.55 -23.05 -3.2 -25.0 L-2.85 -25.95 -2.6 -26.8 -2.2 -27.15 -1.9 -28.05 -1.95 -29.1 -1.5 -29.75 Q-0.8 -30.8 -0.75 -32.3 L-0.1 -33.1 0.15 -35.35 -0.25 -35.9 -2.0 -37.3 -2.85 -37.9 -4.4 -38.85 -6.95 -39.8 8.4 -38.55 38.0 -37.45 42.15 -35.55 42.75 -34.95 45.15 -32.15 46.2 -31.2 45.5 -30.15 44.25 -28.5 Q42.6 -26.0 41.25 -22.8 41.3 -20.85 41.75 -18.95 L42.95 -17.8 43.1 -17.65 43.9 -16.95 Q45.25 -15.7 46.4 -12.8 L45.7 -12.35 Q44.25 -11.9 42.95 -11.15 L40.85 -9.45 Q38.75 -7.7 37.1 -5.4 L37.05 -4.8 37.0 -4.3 37.0 -3.6 37.0 -2.6 36.9 -2.2 36.9 -2.0 36.9 -1.45 36.85 -1.0 36.9 -0.85 36.95 -0.65 36.95 -0.45 36.9 0.8 36.95 0.95 37.0 1.15 37.1 3.65 37.05 5.8 36.4 5.8 Q33.65 4.45 30.45 4.3 L29.6 4.1 Q28.5 4.35 27.6 4.95 L26.95 5.95 26.35 6.5 25.45 7.0 22.45 9.1 21.55 9.8 19.55 12.0 18.7 12.0 Q16.55 9.65 13.6 7.95 L11.8 7.35 10.75 7.3 10.6 7.2 10.2 7.05 9.95 6.95 9.3 6.65 7.3 5.95 4.8 5.2 3.8 5.15 2.95 -0.25 Q2.45 -2.65 0.45 -3.8" fill="#ffff00" fill-opacity="0.5019608" fill-rule="evenodd" stroke="none"/>
  </g>
</svg>
