<?xml version="1.0" encoding="UTF-8" standalone="no"?>
<svg xmlns:ffdec="https://www.free-decompiler.com/flash" xmlns:xlink="http://www.w3.org/1999/xlink" ffdec:objectType="shape" height="159.8px" width="78.0px" xmlns="http://www.w3.org/2000/svg">
  <g transform="matrix(1.0, 0.0, 0.0, 1.0, 20.95, 144.7)">
    <path d="M3.25 -11.05 L3.25 -13.65 Q0.3 -16.1 -3.45 -17.0 L-4.45 -17.75 Q-3.4 -20.6 -1.6 -23.3 -0.75 -23.65 -0.35 -24.35 L2.95 -24.25 46.45 -24.35 51.25 -19.85 50.55 -19.4 Q44.7 -18.0 40.45 -14.15 40.3 -11.6 40.9 -9.3 L44.3 4.45 43.65 4.6 Q40.6 3.05 37.2 2.2 36.1 2.5 35.25 3.2 L34.75 4.35 Q30.1 9.1 27.4 15.1 L26.55 15.1 Q25.05 12.0 22.35 9.9 21.55 9.3 20.6 9.25 L9.2 9.9 Q9.2 7.1 9.35 4.35 9.5 0.45 6.1 -0.7 1.5 -2.25 -2.2 -4.0 0.65 -7.05 3.25 -10.65 L3.25 -11.05 M27.3 -132.7 Q27.6 -133.4 27.55 -134.2 31.65 -136.35 35.25 -137.55 L40.05 -123.4 Q40.25 -123.2 40.45 -123.2 L53.3 -122.45 57.05 -122.05 Q52.15 -119.05 48.25 -115.45 46.95 -114.95 46.4 -113.6 L46.4 -113.25 46.4 -111.75 52.95 -106.4 Q53.5 -105.25 54.6 -104.55 55.05 -103.05 56.05 -101.95 54.75 -100.8 53.05 -100.5 46.95 -99.3 42.4 -96.0 L42.4 -95.6 42.4 -94.85 46.4 -87.05 46.4 -86.7 46.4 -85.95 46.9 -85.2 Q46.75 -84.55 47.15 -84.1 L46.8 -83.6 Q42.45 -81.9 37.7 -82.2 33.1 -82.45 30.0 -79.75 30.1 -78.2 30.65 -76.75 L31.9 -76.05 Q34.45 -72.55 37.35 -69.35 L35.35 -67.1 Q30.1 -65.2 26.05 -61.75 25.95 -60.8 26.2 -59.9 L41.55 -55.45 Q41.45 -53.0 40.05 -51.0 L36.45 -47.65 Q36.4 -46.3 36.6 -45.0 43.2 -42.65 49.25 -39.2 L48.25 -38.3 Q44.0 -35.7 40.95 -31.75 L40.9 -30.5 2.8 -31.1 2.75 -31.5 2.05 -32.0 Q-5.5 -34.1 -13.15 -35.7 -12.0 -36.75 -11.35 -38.2 -10.65 -39.75 -9.55 -41.0 -3.7 -47.6 -1.7 -55.8 L-2.4 -56.25 -10.9 -56.8 Q-14.4 -56.8 -16.35 -58.3 L-15.75 -59.05 -15.1 -65.0 Q-13.65 -66.5 -14.1 -68.7 -17.85 -71.0 -20.95 -74.05 -18.8 -75.45 -16.85 -77.15 L-16.6 -78.3 Q-15.1 -84.55 -15.6 -91.3 L-13.9 -91.65 -13.25 -92.25 Q-10.65 -92.15 -9.3 -94.25 L-9.15 -95.75 -8.65 -96.5 Q-7.85 -102.0 -8.65 -107.65 -1.4 -105.95 4.1 -109.65 4.65 -118.15 1.75 -126.0 4.7 -126.05 7.35 -127.1 L7.5 -127.5 Q9.4 -135.75 8.7 -144.6 L10.05 -144.5 Q17.85 -137.8 26.3 -132.2 26.9 -132.25 27.3 -132.7" fill="#ffff00" fill-opacity="0.5019608" fill-rule="evenodd" stroke="none"/>
  </g>
</svg>
