<?xml version="1.0" encoding="UTF-8" standalone="no"?>
<svg xmlns:ffdec="https://www.free-decompiler.com/flash" xmlns:xlink="http://www.w3.org/1999/xlink" ffdec:objectType="shape" height="127.1px" width="44.8px" xmlns="http://www.w3.org/2000/svg">
  <g transform="matrix(1.0, 0.0, 0.0, 1.0, 6.55, 128.45)">
    <path d="M30.45 -125.05 Q33.85 -121.6 33.85 -116.75 33.85 -111.9 30.45 -108.5 27.35 -105.4 23.05 -105.1 30.5 -104.25 37.3 -100.65 38.4 -100.05 38.25 -98.8 37.75 -94.7 33.85 -92.45 L31.7 -90.85 Q26.35 -85.95 19.55 -83.6 17.8 -83.0 16.35 -83.0 L16.0 -81.8 14.9 -77.45 13.9 -74.05 13.6 -73.4 Q12.65 -65.95 12.95 -58.55 16.8 -56.65 20.1 -53.45 22.2 -51.45 24.65 -49.95 28.55 -47.65 31.6 -44.45 32.7 -43.25 32.4 -41.6 31.25 -36.2 28.95 -31.05 26.05 -24.6 25.9 -17.55 30.5 -16.4 34.7 -14.4 35.8 -13.85 35.6 -12.55 35.0 -9.2 31.5 -10.0 25.85 -11.3 20.95 -14.2 19.95 -14.8 20.0 -16.1 20.5 -27.95 26.0 -38.2 L26.1 -39.15 Q26.25 -39.75 26.75 -40.1 L26.8 -40.75 26.9 -41.35 26.95 -41.7 Q20.5 -45.45 14.8 -50.1 17.2 -44.85 17.9 -39.25 18.4 -35.4 18.1 -31.65 17.8 -27.2 17.85 -22.85 17.9 -16.75 18.8 -10.85 19.15 -8.55 18.95 -6.35 L28.55 -6.05 Q28.05 -4.95 28.45 -3.5 27.55 -2.75 27.35 -1.4 21.6 -1.25 15.8 -1.6 14.15 -1.7 14.0 -3.4 13.95 -4.0 14.05 -4.45 13.15 -5.6 13.1 -7.55 12.7 -20.0 12.8 -32.5 L12.6 -37.55 Q12.15 -42.25 10.05 -46.45 5.6 -55.4 7.2 -65.4 L8.7 -75.8 Q9.1 -78.95 10.3 -81.8 L11.05 -85.95 Q10.8 -86.5 10.9 -87.15 11.2 -88.6 11.9 -89.55 L13.0 -93.6 13.75 -97.0 13.8 -97.3 Q8.85 -95.15 4.3 -92.1 2.1 -88.25 0.25 -84.2 -0.65 -82.3 -1.15 -80.2 4.75 -78.05 1.1 -73.4 0.4 -72.5 -0.7 -72.25 -6.05 -70.85 -6.45 -75.7 -7.1 -84.2 -2.7 -91.2 L0.65 -95.7 Q2.6 -97.85 5.05 -99.3 9.95 -102.1 15.1 -103.9 15.35 -105.45 16.05 -106.8 14.9 -107.5 13.9 -108.5 10.5 -111.9 10.5 -116.75 10.5 -121.6 13.9 -125.05 17.35 -128.45 22.2 -128.45 27.05 -128.45 30.45 -125.05 M30.55 -97.4 Q25.8 -99.7 20.45 -100.5 20.15 -98.7 19.45 -97.05 L18.25 -90.6 Q19.15 -90.25 19.8 -89.5 23.7 -91.7 27.4 -94.5 L30.55 -97.4" fill="#0c0c0c" fill-rule="evenodd" stroke="none"/>
  </g>
</svg>
