<?xml version="1.0" encoding="UTF-8" standalone="no"?>
<svg xmlns:ffdec="https://www.free-decompiler.com/flash" xmlns:xlink="http://www.w3.org/1999/xlink" ffdec:objectType="shape" height="126.5px" width="50.15px" xmlns="http://www.w3.org/2000/svg">
  <g transform="matrix(1.0, 0.0, 0.0, 1.0, 17.3, 127.9)">
    <path d="M7.25 -107.5 L6.75 -107.95 Q3.35 -111.35 3.35 -116.2 3.35 -121.05 6.75 -124.5 10.2 -127.9 15.05 -127.9 19.9 -127.9 23.3 -124.5 26.7 -121.05 26.7 -116.2 26.7 -111.35 23.3 -107.95 19.9 -104.55 15.05 -104.55 L14.7 -104.55 14.25 -104.75 14.3 -105.3 14.3 -105.35 Q16.5 -109.05 11.9 -109.75 L11.7 -109.95 Q10.7 -111.0 9.25 -110.9 L8.05 -110.5 Q7.1 -110.05 7.1 -109.1 7.1 -108.2 7.25 -107.5" fill="#0c0c0c" fill-rule="evenodd" stroke="none"/>
    <path d="M14.25 -104.75 L14.05 -103.55 Q24.45 -102.2 32.1 -95.05 32.6 -94.55 32.75 -93.75 33.4 -88.65 30.1 -85.1 26.85 -81.6 22.5 -79.75 17.05 -77.45 11.5 -78.1 L10.45 -72.3 Q9.35 -66.6 9.65 -60.7 L9.65 -59.65 Q10.3 -58.75 10.55 -57.5 12.05 -56.5 13.15 -54.75 L15.05 -52.1 Q19.9 -46.05 23.8 -39.55 L23.95 -38.95 Q24.4 -37.35 23.1 -35.1 L22.85 -34.75 Q22.55 -24.3 21.4 -14.1 26.0 -13.15 29.2 -9.35 29.7 -8.8 29.25 -8.1 27.2 -4.65 23.9 -7.4 L16.1 -10.1 Q15.25 -10.4 15.2 -11.4 15.1 -13.05 16.05 -13.8 L16.05 -14.55 Q17.1 -24.45 17.2 -34.45 17.2 -36.55 18.35 -38.15 17.7 -38.8 17.6 -39.7 L11.05 -47.75 Q11.25 -45.7 11.05 -43.6 13.2 -37.8 11.95 -31.7 L11.9 -31.45 Q12.05 -30.4 11.25 -28.9 9.3 -25.2 8.05 -21.2 6.85 -17.3 5.15 -13.6 4.8 -9.75 3.35 -6.35 L11.95 -6.0 Q13.4 -5.9 13.65 -4.5 14.25 -1.65 11.35 -1.55 4.5 -1.25 -2.3 -1.65 -3.95 -1.75 -4.1 -3.4 -4.3 -5.7 -2.5 -6.25 L-2.2 -7.95 1.15 -18.2 4.85 -28.35 Q5.15 -31.25 7.15 -32.85 6.85 -33.65 6.8 -34.65 L6.3 -40.3 Q5.55 -45.8 5.1 -51.4 L4.95 -55.9 Q3.1 -57.45 3.5 -60.15 L4.7 -69.25 6.3 -81.6 Q7.6 -90.2 8.3 -99.0 3.05 -98.5 -1.4 -95.5 -6.4 -92.15 -10.45 -87.75 -10.15 -81.95 -15.9 -83.55 -17.1 -83.85 -17.25 -85.1 -17.9 -90.55 -12.85 -93.5 L-10.4 -95.35 Q-2.1 -103.15 8.65 -104.85 L8.7 -105.15 Q7.6 -105.95 7.25 -107.5 7.1 -108.2 7.1 -109.1 7.1 -110.05 8.05 -110.5 L9.25 -110.9 Q10.7 -111.0 11.7 -109.95 L11.9 -109.75 Q16.5 -109.05 14.3 -105.35 L14.3 -105.3 14.25 -104.75 M27.25 -92.35 Q20.8 -96.8 13.1 -98.7 L13.0 -97.0 Q12.95 -91.7 12.5 -86.4 15.4 -86.1 16.8 -83.8 22.85 -85.0 26.7 -90.0 27.45 -91.0 27.25 -92.35" fill="#000000" fill-rule="evenodd" stroke="none"/>
  </g>
</svg>
