<?xml version="1.0" encoding="UTF-8" standalone="no"?>
<svg xmlns:ffdec="https://www.free-decompiler.com/flash" xmlns:xlink="http://www.w3.org/1999/xlink" ffdec:objectType="shape" height="159.35px" width="79.7px" xmlns="http://www.w3.org/2000/svg">
  <g transform="matrix(1.0, 0.0, 0.0, 1.0, 37.3, 142.5)">
    <path d="M20.6 -142.5 Q22.5 -142.5 23.3 -140.45 24.4 -137.45 26.05 -134.8 L26.05 -134.45 Q26.05 -133.7 26.3 -133.05 L26.55 -131.1 Q26.95 -130.45 27.6 -130.15 L29.4 -129.0 30.3 -127.7 Q33.4 -123.95 37.45 -122.3 L37.45 -121.9 37.45 -121.55 37.45 -121.15 Q33.55 -117.25 28.85 -114.35 23.45 -111.05 21.1 -105.9 21.35 -105.0 22.3 -105.1 L33.0 -104.8 33.15 -104.05 33.85 -100.7 34.0 -97.35 34.25 -97.0 34.5 -96.6 34.5 -96.25 34.5 -94.75 34.5 -93.25 Q35.0 -91.95 36.25 -91.7 40.1 -90.8 42.4 -88.55 L41.2 -86.4 Q39.9 -84.25 37.45 -83.85 L36.55 -83.0 Q35.3 -82.0 34.5 -80.6 L34.5 -80.25 34.5 -79.15 34.5 -78.0 35.95 -75.85 Q37.35 -73.4 39.55 -71.7 L40.5 -70.25 41.55 -68.35 36.9 -67.95 Q30.05 -68.5 25.05 -65.25 L25.05 -64.85 25.0 -63.4 Q24.95 -62.75 25.3 -62.25 L25.8 -61.9 26.0 -61.5 26.1 -61.15 26.55 -60.4 26.55 -60.05 26.6 -59.65 26.8 -59.3 27.25 -58.9 27.55 -58.55 27.55 -58.15 27.5 -57.45 27.3 -56.7 Q26.55 -55.95 25.65 -55.4 23.95 -54.4 22.6 -53.35 L22.6 -52.95 22.6 -51.85 22.6 -50.75 23.4 -49.5 Q24.15 -48.3 25.45 -47.75 25.55 -47.4 25.8 -47.15 26.65 -46.3 27.9 -46.0 L28.85 -45.0 Q32.65 -42.3 35.5 -38.95 L35.5 -38.55 35.45 -38.2 35.35 -37.45 34.5 -36.7 33.0 -35.25 Q31.85 -35.2 31.0 -34.5 L27.55 -31.65 27.55 -31.25 27.55 -29.75 27.55 -28.3 Q28.2 -27.05 29.4 -26.2 33.2 -23.45 36.0 -20.6 34.9 -19.4 33.3 -18.65 29.45 -16.85 26.55 -13.65 L26.55 -13.3 26.6 -12.55 26.7 -11.8 Q28.9 -8.35 31.9 -5.35 37.15 -0.25 41.8 5.2 L30.8 3.2 28.8 3.05 Q20.55 3.45 16.15 10.9 L16.1 11.25 16.0 11.65 15.4 11.7 Q14.25 11.75 13.4 11.3 L13.0 11.0 Q11.9 10.5 10.7 10.4 L10.45 10.15 Q9.2 8.9 7.35 8.9 L-0.45 5.15 Q-1.15 4.85 -1.7 5.15 -6.55 8.3 -8.8 14.0 L-9.6 14.5 -10.15 15.1 -10.15 15.85 -10.2 16.25 -10.3 16.85 Q-11.15 16.3 -11.3 15.25 -11.4 14.15 -12.15 13.4 L-12.15 13.0 -12.15 12.65 -12.75 11.9 Q-15.0 8.85 -18.1 10.9 -23.5 13.15 -28.5 13.9 L-28.5 13.15 Q-28.0 4.85 -25.6 -2.85 -25.35 -3.6 -25.9 -4.1 -28.3 -6.5 -31.5 -7.2 L-30.4 -9.35 Q-28.7 -12.0 -26.15 -13.9 L-25.3 -14.15 -24.4 -14.5 -23.4 -15.95 -22.55 -17.1 -22.55 -17.85 -22.5 -19.35 Q-22.45 -20.1 -22.7 -20.85 L-23.7 -21.9 -25.05 -22.85 -25.15 -23.2 -25.3 -23.55 -26.65 -24.3 -27.4 -25.9 -28.0 -27.3 Q-24.9 -30.9 -20.15 -32.45 L-17.1 -33.05 Q-12.8 -33.3 -12.15 -36.95 L-12.95 -38.4 -13.5 -39.55 -16.25 -42.0 Q-19.3 -44.75 -20.7 -48.1 -17.6 -52.35 -12.5 -54.0 -7.1 -55.75 -6.3 -60.5 -10.8 -63.8 -15.6 -65.85 L-15.3 -67.0 -13.95 -71.4 Q-12.9 -74.3 -12.65 -77.4 L-12.4 -77.75 -12.15 -78.15 -12.15 -78.5 -12.15 -78.9 -12.15 -79.6 Q-13.2 -81.25 -15.4 -80.7 L-17.65 -79.9 Q-21.9 -78.0 -25.55 -74.9 L-26.45 -75.05 -26.5 -75.3 -26.5 -76.05 -26.5 -80.1 -26.5 -86.05 -26.8 -86.4 -27.75 -87.05 Q-29.4 -86.7 -30.75 -85.85 -33.6 -84.05 -35.1 -84.7 L-35.0 -85.1 -34.95 -86.2 -34.95 -87.3 -34.4 -88.15 Q-33.8 -89.7 -33.55 -91.35 -33.15 -94.2 -33.7 -97.0 L-37.3 -98.35 -36.3 -98.75 Q-34.75 -99.25 -33.45 -100.2 -32.6 -100.4 -31.85 -100.8 -29.35 -102.3 -26.5 -103.2 L-26.1 -103.7 -25.05 -104.9 -25.05 -105.3 Q-25.05 -107.15 -25.4 -108.95 L-26.5 -113.1 Q-19.85 -112.9 -13.5 -111.1 L-12.95 -110.55 -11.9 -109.9 -11.4 -110.0 -11.15 -110.15 -10.9 -110.4 -10.8 -110.75 -10.7 -111.1 -10.65 -111.85 Q-11.5 -113.05 -11.9 -114.45 -12.35 -115.85 -13.15 -117.05 L-13.15 -117.45 -13.15 -117.8 -13.25 -118.55 -14.5 -120.4 Q-15.2 -121.6 -16.25 -122.65 -16.6 -124.75 -17.8 -126.55 -18.9 -128.3 -18.6 -130.45 L-4.95 -131.0 -4.45 -131.2 -3.75 -134.85 Q-3.1 -138.1 -1.35 -140.9 3.15 -140.3 7.2 -138.05 L7.75 -137.65 Q9.8 -137.3 11.5 -138.05 15.95 -140.1 20.6 -142.5" fill="#ffff00" fill-opacity="0.5019608" fill-rule="evenodd" stroke="none"/>
  </g>
</svg>
