<?xml version="1.0" encoding="UTF-8" standalone="no"?>
<svg xmlns:ffdec="https://www.free-decompiler.com/flash" xmlns:xlink="http://www.w3.org/1999/xlink" ffdec:objectType="shape" height="128.35px" width="46.0px" xmlns="http://www.w3.org/2000/svg">
  <g transform="matrix(1.0, 0.0, 0.0, 1.0, 21.2, 128.45)">
    <path d="M14.05 -125.05 Q17.45 -121.6 17.45 -116.75 17.45 -111.9 14.05 -108.5 10.75 -105.2 6.1 -105.1 6.35 -104.0 6.15 -102.6 L6.15 -102.4 16.65 -97.25 Q21.0 -95.05 23.85 -91.45 L24.45 -90.1 Q25.8 -81.75 21.6 -74.8 20.25 -72.55 18.2 -71.15 15.8 -69.5 12.85 -70.4 8.2 -71.8 10.65 -75.8 11.25 -76.75 12.35 -76.75 L15.65 -76.75 17.05 -78.55 17.75 -79.5 Q19.55 -83.35 19.15 -87.65 18.95 -90.0 16.5 -90.6 15.1 -90.95 14.35 -92.1 9.75 -94.05 5.85 -96.9 L5.85 -96.35 6.65 -71.05 Q6.85 -65.25 6.2 -59.6 6.75 -58.8 6.55 -57.7 L7.65 -56.1 Q10.85 -50.5 14.75 -45.3 17.6 -41.6 18.45 -37.2 18.95 -34.8 18.55 -32.5 17.5 -26.2 15.5 -20.2 13.35 -13.9 13.75 -7.05 L17.35 -6.85 17.45 -6.85 17.5 -6.8 18.05 -6.75 18.1 -6.55 Q21.7 -4.7 18.35 -1.7 17.5 -0.95 16.45 -1.4 L15.9 -1.7 10.5 -2.0 Q8.85 -2.15 8.7 -3.8 7.7 -15.45 11.25 -26.25 12.85 -31.05 13.55 -36.0 L4.05 -50.85 Q2.65 -40.75 1.9 -30.5 1.6 -26.55 0.85 -22.7 -0.3 -16.8 -4.35 -12.3 L-8.9 -6.5 -2.0 -5.7 -1.2 -4.1 Q-1.5 -2.8 -1.95 -1.55 L-2.3 -0.1 -5.1 -0.45 Q-8.0 -1.05 -10.85 -0.55 -17.3 0.6 -15.9 -5.25 -15.45 -7.15 -14.3 -8.75 L-4.6 -21.8 Q-3.4 -30.4 -2.7 -39.15 L-1.95 -48.05 Q-1.65 -51.75 -0.75 -55.25 L-0.15 -57.05 Q-0.7 -58.65 0.95 -59.75 1.55 -65.3 1.35 -71.05 L0.25 -96.3 0.25 -97.85 Q-3.35 -96.65 -6.55 -94.45 -12.0 -90.75 -18.2 -90.1 -19.2 -90.0 -19.8 -90.9 -21.95 -94.3 -20.75 -98.5 -18.95 -104.55 -12.65 -101.85 -11.7 -101.45 -11.6 -100.35 L-11.55 -98.45 Q-6.4 -100.8 -1.15 -103.45 L0.75 -104.05 1.15 -106.0 Q-0.85 -106.85 -2.5 -108.5 -5.9 -111.9 -5.9 -116.75 -5.9 -121.6 -2.5 -125.05 0.95 -128.45 5.8 -128.45 10.65 -128.45 14.05 -125.05" fill="#0c0c0c" fill-rule="evenodd" stroke="none"/>
  </g>
</svg>
