<?xml version="1.0" encoding="UTF-8" standalone="no"?>
<svg xmlns:ffdec="https://www.free-decompiler.com/flash" xmlns:xlink="http://www.w3.org/1999/xlink" ffdec:objectType="shape" height="160.1px" width="98.1px" xmlns="http://www.w3.org/2000/svg">
  <g transform="matrix(1.0, 0.0, 0.0, 1.0, 58.65, 142.6)">
    <path d="M5.95 -142.6 Q7.05 -142.55 7.8 -141.4 L9.9 -138.75 14.4 -133.05 Q19.65 -125.55 28.05 -129.95 28.4 -123.4 28.15 -116.95 27.85 -110.85 28.05 -104.65 L28.35 -104.25 28.55 -103.95 28.55 -103.55 28.55 -103.2 29.1 -102.5 Q30.55 -100.75 33.0 -100.2 L31.7 -88.4 Q31.5 -86.25 32.75 -84.6 35.6 -80.7 39.45 -78.15 L39.25 -77.4 Q39.05 -76.5 38.45 -75.9 37.0 -71.2 34.35 -66.85 31.4 -62.1 31.15 -56.95 L31.7 -56.1 Q32.15 -54.9 33.5 -54.7 L34.05 -54.3 Q36.05 -53.75 36.95 -51.85 30.5 -47.25 23.1 -44.05 L23.05 -42.9 Q23.0 -41.95 23.2 -41.05 L23.85 -40.25 25.05 -38.45 24.95 -37.0 Q24.55 -34.1 22.05 -32.2 17.9 -29.1 18.6 -23.95 20.3 -21.1 22.55 -18.8 26.3 -14.9 27.8 -10.2 L27.6 -9.8 27.3 -9.05 Q23.35 -7.2 19.6 -4.95 L19.55 -3.5 Q19.5 -2.15 19.75 -0.9 L20.55 -0.1 22.1 1.75 22.1 2.1 22.1 2.45 22.75 3.25 24.55 5.45 Q20.0 6.55 15.4 5.25 14.05 4.9 13.05 5.6 10.75 7.35 8.75 9.6 5.45 13.35 2.6 17.5 L1.65 17.5 -5.5 10.95 Q-6.1 10.35 -6.95 10.4 -15.75 10.55 -22.7 15.25 L-23.05 14.15 -24.05 11.9 -24.05 11.55 -24.05 11.15 Q-24.45 10.35 -25.3 10.35 L-38.55 10.8 -38.5 10.05 -38.25 6.35 Q-37.85 2.85 -37.95 -0.75 L-38.25 -1.05 -40.9 -3.35 -40.95 -4.1 -40.8 -5.6 -39.6 -6.2 Q-35.55 -8.0 -34.1 -11.9 L-33.85 -14.15 Q-33.85 -16.1 -34.6 -17.85 L-34.85 -18.25 -35.45 -19.0 -35.5 -21.2 -35.35 -24.95 -34.5 -25.35 -32.6 -26.8 Q-26.85 -27.5 -23.05 -31.5 -23.0 -32.7 -23.55 -33.8 L-26.5 -38.95 -26.6 -40.05 Q-26.7 -41.1 -26.3 -41.9 -21.9 -44.65 -18.1 -47.9 L-18.3 -50.45 Q-18.75 -53.6 -21.05 -56.05 L-21.1 -56.45 -21.2 -57.2 -13.9 -61.25 -13.75 -61.65 -13.65 -62.4 -13.35 -62.75 -12.75 -63.5 -12.45 -66.1 Q-11.95 -71.85 -17.6 -72.55 L-16.55 -75.85 Q-15.75 -78.3 -16.1 -81.1 -16.5 -81.9 -17.35 -82.1 -27.95 -76.5 -38.95 -77.25 L-38.9 -78.0 Q-38.9 -79.65 -39.5 -81.15 -40.55 -83.7 -40.4 -86.55 -43.55 -88.35 -47.35 -86.2 L-54.3 -82.7 -53.65 -90.95 -52.3 -99.45 Q-52.85 -100.55 -54.05 -100.45 -56.45 -99.25 -58.5 -99.95 L-58.65 -100.35 Q-58.65 -104.4 -54.85 -106.75 -51.55 -108.8 -48.45 -111.1 -48.2 -111.85 -48.65 -112.45 -51.75 -116.0 -55.65 -119.05 -49.55 -118.55 -43.5 -116.7 -38.15 -115.1 -34.95 -118.8 L-34.95 -119.55 -34.95 -120.3 Q-34.3 -121.1 -33.7 -120.8 -32.45 -119.55 -31.0 -118.55 L-18.6 -110.0 -18.6 -109.65 -18.6 -109.25 Q-18.0 -108.2 -16.85 -107.9 L-16.35 -108.05 -16.0 -108.25 -15.8 -108.65 -15.6 -109.4 -15.05 -109.85 -14.6 -110.5 -15.0 -111.0 Q-16.55 -111.85 -17.25 -113.35 -19.15 -117.1 -18.1 -121.05 -15.15 -121.05 -13.15 -122.8 -13.3 -125.9 -14.5 -128.85 -16.0 -132.65 -15.6 -136.9 L-10.85 -136.45 -6.0 -136.2 Q1.0 -137.0 5.95 -142.6" fill="#ffff00" fill-opacity="0.5019608" fill-rule="evenodd" stroke="none"/>
  </g>
</svg>
