<?xml version="1.0" encoding="UTF-8" standalone="no"?>
<svg xmlns:ffdec="https://www.free-decompiler.com/flash" xmlns:xlink="http://www.w3.org/1999/xlink" ffdec:objectType="shape" height="174.05px" width="82.8px" xmlns="http://www.w3.org/2000/svg">
  <g transform="matrix(1.0, 0.0, 0.0, 1.0, 46.35, 147.5)">
    <path d="M29.7 -133.25 Q33.55 -132.7 36.45 -131.1 36.5 -129.55 35.8 -128.05 L34.8 -126.5 Q30.5 -121.7 26.55 -116.6 L26.5 -115.45 Q26.4 -114.8 26.8 -114.35 L27.3 -113.95 Q29.0 -112.6 30.9 -111.6 31.05 -110.95 31.7 -110.6 33.95 -109.3 35.35 -107.15 33.3 -104.85 30.25 -103.8 25.45 -102.15 22.6 -98.6 L22.6 -97.5 22.6 -96.75 23.4 -96.1 Q25.55 -94.65 27.3 -92.65 L27.6 -91.9 27.8 -91.55 29.2 -90.35 Q30.3 -89.05 31.0 -87.45 30.9 -86.8 30.4 -86.45 24.65 -81.85 18.6 -77.75 L18.65 -77.0 18.75 -76.25 22.75 -72.35 Q26.25 -69.25 28.05 -64.75 26.3 -60.05 21.6 -58.05 17.5 -56.35 14.15 -53.85 L14.2 -52.7 14.25 -51.95 17.3 -48.3 24.05 -40.45 24.05 -39.7 23.95 -38.95 Q23.2 -38.3 22.25 -38.05 17.7 -36.75 14.65 -33.5 L14.65 -32.75 14.65 -30.9 14.65 -27.9 18.25 -23.45 Q20.2 -21.1 20.7 -18.25 L21.05 -17.85 21.35 -17.1 Q19.3 -16.15 18.85 -13.95 17.85 -9.1 18.05 -4.0 18.4 3.75 18.0 11.55 L14.3 10.5 Q13.15 10.2 12.25 10.8 9.2 12.8 7.1 15.85 3.1 21.7 -1.7 26.55 -1.65 24.3 -2.7 22.35 L-4.35 18.35 Q-5.55 16.3 -7.8 16.95 -14.0 18.75 -20.1 20.85 L-20.05 20.45 Q-19.55 18.8 -19.65 17.1 -19.75 15.15 -19.1 13.4 L-19.45 12.25 -19.6 11.15 -20.5 10.15 Q-25.6 6.95 -30.25 4.6 L-29.5 4.25 Q-26.25 3.15 -24.15 0.5 L-23.9 -1.0 Q-23.85 -2.05 -24.4 -2.85 -30.9 -6.7 -37.2 -10.65 L-34.7 -12.15 Q-30.05 -15.0 -26.15 -18.85 -25.6 -20.95 -27.45 -22.15 -36.15 -27.95 -43.5 -35.25 L-41.9 -35.6 Q-36.6 -36.55 -32.5 -39.45 -32.25 -44.35 -32.95 -49.1 -33.9 -55.25 -35.95 -61.0 L-35.2 -61.15 Q-28.4 -57.45 -20.8 -56.3 L-20.25 -56.65 -19.6 -57.3 -19.65 -59.15 Q-19.85 -61.75 -19.65 -64.35 -19.4 -68.15 -19.6 -72.2 L-19.85 -72.55 Q-20.45 -73.25 -21.45 -73.3 L-21.55 -73.4 Q-23.55 -75.2 -26.05 -76.25 -23.85 -76.85 -23.25 -78.95 -22.55 -81.5 -24.05 -83.35 L-17.75 -84.15 Q-17.4 -84.2 -17.1 -84.6 L-17.1 -85.35 -17.1 -86.05 -17.35 -86.45 -17.6 -86.8 -17.6 -87.2 -17.6 -87.55 Q-22.15 -90.55 -27.5 -92.3 -32.3 -93.85 -36.45 -95.6 L-35.45 -97.0 Q-34.45 -98.2 -34.45 -99.7 L-34.2 -100.1 -33.95 -100.45 -33.95 -100.85 -33.95 -101.2 -33.7 -101.55 -33.45 -101.95 -33.45 -102.3 -33.45 -102.7 -33.2 -103.05 -32.95 -103.45 -32.95 -104.2 -32.95 -104.9 Q-37.65 -107.95 -43.4 -109.65 -45.75 -110.35 -46.35 -111.1 -41.75 -112.4 -37.45 -114.1 -36.4 -114.2 -35.45 -114.55 -32.5 -115.65 -30.6 -118.05 -30.2 -120.15 -31.7 -121.8 L-36.7 -127.0 -37.4 -128.85 Q-38.1 -130.5 -39.3 -131.85 L-39.6 -132.9 -40.05 -134.45 Q-39.0 -134.45 -38.15 -134.0 -28.0 -129.15 -16.85 -129.35 L-16.3 -130.0 -16.1 -130.35 -16.45 -131.0 -17.45 -132.55 Q-16.6 -136.05 -17.4 -139.65 L-19.1 -147.1 -9.5 -141.5 -8.75 -141.3 Q3.75 -143.35 16.15 -147.35 17.1 -147.8 17.15 -146.7 17.25 -144.05 17.7 -141.45 L18.6 -135.9 18.9 -135.5 19.3 -135.15 Q24.25 -134.0 29.7 -133.25" fill="#ffff00" fill-opacity="0.5019608" fill-rule="evenodd" stroke="none"/>
  </g>
</svg>
