<?xml version="1.0" encoding="UTF-8" standalone="no"?>
<svg xmlns:ffdec="https://www.free-decompiler.com/flash" xmlns:xlink="http://www.w3.org/1999/xlink" ffdec:objectType="shape" height="127.8px" width="36.4px" xmlns="http://www.w3.org/2000/svg">
  <g transform="matrix(1.0, 0.0, 0.0, 1.0, 22.55, 128.45)">
    <path d="M10.45 -125.05 Q13.85 -121.6 13.85 -116.75 L13.65 -114.4 Q13.0 -111.05 10.45 -108.5 7.9 -105.95 4.6 -105.3 5.5 -103.55 5.1 -100.9 4.7 -98.6 4.7 -96.25 L4.7 -95.8 Q7.35 -93.4 8.5 -89.5 L10.3 -83.1 Q11.6 -78.15 8.2 -74.85 7.3 -74.0 6.15 -73.5 L4.9 -72.95 4.9 -70.95 Q5.05 -61.05 3.95 -51.4 3.85 -50.35 2.7 -50.3 L1.95 -50.3 1.9 -50.25 0.6 -47.25 Q-2.5 -38.7 -3.15 -29.6 L7.35 -21.95 Q9.05 -20.65 7.95 -18.9 5.8 -15.4 1.9 -13.7 L0.7 -13.15 Q2.45 -8.6 2.5 -3.65 2.5 -2.95 1.85 -2.45 -0.5 -0.85 -3.65 -1.4 L-5.65 -1.2 Q-9.9 0.3 -13.1 -2.25 -13.55 -2.6 -13.5 -3.25 -13.0 -6.65 -9.05 -6.55 L-5.9 -6.8 -3.2 -7.45 -4.6 -11.15 -5.75 -10.8 -7.85 -10.35 Q-11.15 -9.9 -10.8 -13.1 -10.5 -15.75 -7.65 -16.45 L-6.5 -16.7 -6.7 -17.3 -6.85 -18.2 Q-8.65 -22.65 -9.0 -27.25 L-14.65 -32.25 -14.9 -32.7 Q-16.9 -39.0 -12.1 -44.35 L-3.75 -53.75 -2.5 -54.85 Q-1.9 -55.9 -0.8 -56.05 L-0.5 -70.55 -4.45 -68.75 Q-9.05 -66.6 -11.1 -70.45 -13.2 -74.3 -9.5 -76.55 -7.85 -77.6 -6.05 -76.8 -4.8 -76.25 -4.65 -74.95 L-0.4 -76.75 -0.4 -79.05 Q-0.3 -87.0 -0.55 -94.8 L-2.1 -94.2 Q-6.95 -92.25 -10.5 -95.4 -18.45 -102.35 -21.85 -112.05 -23.55 -116.95 -21.15 -121.15 -20.5 -122.2 -19.4 -122.25 -16.45 -122.05 -15.15 -120.7 -13.7 -119.2 -14.4 -116.2 -14.6 -115.3 -15.15 -114.65 L-16.45 -113.7 Q-13.95 -105.95 -7.95 -100.4 L-7.2 -99.3 -0.85 -100.75 -1.05 -104.35 -1.0 -105.5 Q-3.85 -106.3 -6.1 -108.5 -8.65 -111.05 -9.25 -114.4 L-9.5 -116.75 Q-9.5 -121.6 -6.1 -125.05 -2.65 -128.45 2.2 -128.45 7.05 -128.45 10.45 -125.05 M4.8 -78.9 L4.85 -78.95 Q5.5 -79.8 5.4 -80.85 L5.35 -82.1 4.75 -83.2 4.8 -78.9 M-7.2 -40.5 L-10.0 -36.1 Q-9.55 -34.95 -8.8 -33.95 L-7.9 -38.15 -7.2 -40.5 M-1.4 -18.5 L1.15 -19.8 -2.6 -22.3 -1.4 -18.5" fill="#0c0c0c" fill-rule="evenodd" stroke="none"/>
  </g>
</svg>
