<?xml version="1.0" encoding="UTF-8" standalone="no"?>
<svg xmlns:ffdec="https://www.free-decompiler.com/flash" xmlns:xlink="http://www.w3.org/1999/xlink" ffdec:objectType="shape" height="173.6px" width="118.9px" xmlns="http://www.w3.org/2000/svg">
  <g transform="matrix(1.0, 0.0, 0.0, 1.0, 45.85, 148.3)">
    <path d="M22.1 -139.5 L22.6 -138.75 23.7 -129.85 Q25.1 -128.6 26.7 -129.6 31.55 -133.1 37.45 -132.8 L37.45 -132.45 37.45 -132.1 Q38.7 -129.7 39.1 -126.85 L40.15 -126.65 56.8 -128.85 Q57.05 -126.95 55.8 -125.5 L55.95 -122.9 Q64.6 -120.3 73.05 -116.6 L64.5 -115.2 63.55 -115.15 Q58.95 -115.65 57.3 -112.85 57.55 -112.2 58.2 -111.75 65.75 -106.4 69.7 -98.35 65.7 -99.45 61.65 -101.15 58.45 -102.5 55.4 -104.0 50.55 -106.4 46.4 -104.4 46.35 -100.4 46.75 -96.6 L46.4 -96.25 46.4 -95.85 46.4 -92.9 45.9 -92.15 45.75 -90.65 45.3 -90.05 Q44.2 -90.0 43.35 -90.7 39.65 -93.7 36.45 -91.3 36.45 -88.8 36.0 -86.45 L35.5 -85.7 35.0 -82.0 Q34.45 -80.55 33.5 -79.35 28.3 -79.35 23.35 -81.2 19.95 -82.45 16.9 -82.1 16.45 -81.05 16.65 -79.85 18.4 -77.3 21.1 -75.8 L21.1 -75.4 21.1 -75.05 Q21.8 -74.1 21.85 -73.15 21.45 -72.7 21.6 -72.05 L19.6 -68.35 Q19.5 -66.1 19.75 -63.85 26.15 -60.4 32.0 -56.05 28.65 -53.1 24.3 -51.35 23.8 -50.5 24.2 -49.5 L40.05 -42.05 Q39.85 -40.75 39.95 -39.45 L38.6 -38.35 Q35.65 -34.8 36.2 -30.5 40.7 -27.45 43.55 -23.05 38.0 -20.45 33.5 -16.4 L33.5 -16.0 33.5 -14.5 40.45 -5.2 40.45 -4.85 40.45 -4.45 40.95 -3.75 Q39.9 -2.7 38.45 -2.0 31.95 -2.7 27.05 0.5 27.6 7.85 28.9 15.0 28.5 15.7 27.8 15.75 22.15 13.95 16.4 13.8 15.6 13.8 14.9 14.1 10.95 15.7 7.4 18.6 4.1 21.25 0.65 22.7 -0.45 19.1 -2.6 16.0 -3.85 14.2 -5.8 15.1 -16.35 19.95 -26.65 25.3 L-29.0 25.15 Q-26.45 17.7 -27.9 9.55 -31.8 6.95 -35.8 4.7 -34.45 3.15 -32.45 2.55 -24.7 0.1 -23.55 -7.2 L-24.05 -7.95 -24.05 -8.3 -24.05 -8.7 -31.75 -13.9 -33.85 -16.5 Q-32.45 -18.85 -30.1 -20.2 -28.9 -20.95 -27.55 -21.35 -17.65 -24.2 -10.15 -30.65 -12.85 -33.4 -17.35 -34.25 L-21.45 -38.2 Q-21.8 -39.25 -22.95 -39.7 -24.7 -42.8 -24.55 -46.4 -28.4 -48.6 -33.35 -47.3 -40.3 -45.45 -45.85 -46.0 L-42.75 -49.45 Q-40.35 -52.0 -37.6 -53.9 -32.7 -57.3 -33.85 -62.4 -39.4 -66.85 -43.9 -72.05 -38.5 -73.15 -33.45 -76.15 L-33.45 -76.5 -33.45 -77.65 -33.95 -78.4 Q-34.9 -82.35 -36.55 -86.05 -39.3 -92.3 -39.3 -98.85 L-38.95 -99.2 -30.8 -99.9 Q-30.05 -100.0 -29.6 -100.7 -27.15 -100.4 -26.05 -102.45 -27.5 -106.7 -29.85 -110.6 -22.1 -109.3 -16.75 -113.6 -16.35 -114.8 -16.75 -115.95 -19.75 -124.8 -25.05 -132.55 L-11.9 -131.85 Q-11.05 -131.9 -10.65 -132.7 L-10.65 -133.05 -10.65 -134.2 -11.15 -134.95 -11.15 -135.3 -11.65 -148.3 Q-4.8 -144.25 2.1 -138.95 2.75 -138.45 3.45 -138.55 L22.1 -139.5" fill="#ffff00" fill-opacity="0.5019608" fill-rule="evenodd" stroke="none"/>
  </g>
</svg>
