<?xml version="1.0" encoding="UTF-8" standalone="no"?>
<svg xmlns:ffdec="https://www.free-decompiler.com/flash" xmlns:xlink="http://www.w3.org/1999/xlink" ffdec:objectType="shape" height="14.0px" width="28.0px" xmlns="http://www.w3.org/2000/svg">
  <g transform="matrix(1.0, 0.0, 0.0, 1.0, 14.0, 7.0)">
    <path d="M14.0 -5.0 Q13.9 -3.4 13.0 -2.0 L12.6 -1.2 Q10.3 4.7 4.5 7.0 L2.25 5.75 2.05 4.25 2.0 3.5 2.0 2.75 3.1 1.55 3.5 1.25 4.75 0.75 Q5.0 0.0 5.4 -0.7 L6.0 -1.5 Q-3.1 -0.85 -11.85 -2.35 -13.75 -2.65 -14.0 -4.5 L-13.4 -5.95 -13.0 -6.5 -12.45 -6.65 -11.5 -6.85 -11.5 -7.0 Q1.25 -7.1 13.45 -5.4 L14.0 -5.0" fill="#000000" fill-rule="evenodd" stroke="none"/>
  </g>
</svg>
