<?xml version="1.0" encoding="UTF-8" standalone="no"?>
<svg xmlns:ffdec="https://www.free-decompiler.com/flash" xmlns:xlink="http://www.w3.org/1999/xlink" ffdec:objectType="shape" height="165.05px" width="100.7px" xmlns="http://www.w3.org/2000/svg">
  <g transform="matrix(1.0, 0.0, 0.0, 1.0, 37.95, 143.85)">
    <path d="M24.05 -125.75 L24.05 -126.1 24.05 -126.5 25.0 -127.55 Q27.05 -131.5 29.65 -135.05 33.65 -132.9 37.85 -131.1 42.75 -128.65 48.05 -131.85 51.1 -133.75 53.35 -133.8 L53.3 -131.2 Q53.15 -127.05 54.85 -123.4 L54.85 -123.05 55.05 -122.3 Q59.6 -119.25 62.75 -115.2 60.8 -112.8 57.7 -111.45 53.15 -109.4 50.85 -105.55 L50.9 -103.7 Q51.1 -99.6 53.85 -96.6 L53.9 -95.85 53.85 -94.75 Q48.25 -94.55 43.75 -92.3 40.05 -90.4 40.3 -85.2 33.75 -87.2 26.75 -89.7 21.9 -91.4 17.6 -90.3 17.5 -86.85 18.65 -83.6 L22.1 -72.8 Q19.6 -72.8 17.35 -71.7 17.0 -71.2 17.05 -70.55 L17.15 -69.45 17.45 -69.05 17.6 -68.7 17.6 -68.35 17.6 -67.95 20.25 -64.85 28.55 -55.3 28.55 -54.95 28.55 -54.55 28.8 -54.15 28.8 -53.85 28.55 -53.45 28.15 -52.7 Q22.75 -50.15 20.1 -44.9 L20.1 -43.8 20.1 -42.3 20.9 -41.45 Q24.0 -37.65 27.55 -34.5 L27.5 -34.1 27.3 -33.35 26.8 -32.95 26.05 -32.25 Q25.95 -31.2 25.1 -30.45 21.75 -27.45 22.1 -22.95 L28.55 -17.1 28.45 -16.8 27.65 -16.0 27.3 -14.95 Q26.45 -13.2 25.05 -11.9 L25.05 -10.4 25.05 -8.95 Q25.95 -7.65 26.95 -6.6 31.8 -1.65 36.85 2.95 34.8 2.8 33.25 3.95 25.4 4.2 19.85 9.15 L19.65 9.55 19.35 10.3 Q18.5 10.8 18.35 11.8 18.1 13.55 17.0 15.0 L12.95 14.35 Q10.35 13.8 8.65 15.3 3.9 19.45 -1.35 21.2 L-2.2 20.45 Q-2.15 19.8 -2.35 19.25 -3.85 15.2 -6.95 13.15 L-22.95 18.1 Q-22.85 12.5 -23.5 7.05 -23.6 6.4 -24.25 6.2 -29.0 4.9 -32.95 5.3 L-32.8 3.75 Q-32.2 1.1 -30.6 -1.0 L-30.0 -3.1 Q-28.35 -6.55 -29.0 -10.65 L-29.25 -11.05 Q-29.95 -11.8 -31.0 -11.8 -32.0 -13.05 -33.7 -12.8 -35.55 -14.15 -37.45 -13.9 L-37.05 -14.5 -36.55 -15.65 -34.6 -17.0 Q-28.1 -22.55 -22.55 -29.05 L-22.55 -29.75 -22.55 -30.5 Q-24.7 -32.2 -27.0 -32.5 L-26.95 -32.85 -25.8 -34.0 -25.45 -34.65 -24.65 -35.85 -24.6 -36.2 -24.55 -36.95 -23.6 -38.6 Q-22.9 -39.9 -23.05 -41.45 -23.45 -42.2 -24.3 -42.25 L-34.95 -42.65 Q-31.55 -49.35 -32.3 -57.0 -32.4 -57.95 -32.95 -58.6 -34.95 -61.0 -37.95 -61.4 L-36.7 -64.3 Q-31.85 -72.45 -29.65 -81.5 -29.5 -82.2 -29.85 -82.75 -32.4 -86.55 -36.2 -89.55 -31.2 -92.45 -26.65 -95.75 L-26.6 -96.5 -26.65 -97.25 -26.95 -97.55 Q-29.45 -99.8 -31.25 -102.45 L-29.85 -102.85 -19.85 -102.95 Q-19.2 -102.95 -18.8 -103.4 -18.25 -103.85 -18.1 -104.55 L-18.15 -104.9 Q-18.55 -105.8 -19.6 -106.05 -20.45 -107.45 -20.9 -109.05 -21.05 -109.75 -21.5 -110.15 L-27.75 -116.35 Q-28.75 -116.65 -29.15 -117.45 -29.25 -118.35 -27.9 -118.45 -20.8 -118.8 -16.6 -123.75 -16.55 -125.35 -17.75 -126.45 -20.5 -129.05 -22.45 -132.35 L-23.25 -133.2 -24.55 -134.95 -22.55 -135.35 Q-20.7 -135.6 -19.65 -136.65 L-11.65 -143.85 Q-5.3 -143.1 -0.2 -138.7 5.2 -134.05 10.05 -139.65 L11.25 -137.45 12.9 -134.55 18.75 -124.4 19.05 -124.0 Q19.6 -122.75 20.85 -122.3 21.45 -122.3 21.8 -122.8 L24.05 -125.75" fill="#ffff00" fill-opacity="0.5019608" fill-rule="evenodd" stroke="none"/>
  </g>
</svg>
