<?xml version="1.0" encoding="UTF-8" standalone="no"?>
<svg xmlns:ffdec="https://www.free-decompiler.com/flash" xmlns:xlink="http://www.w3.org/1999/xlink" ffdec:objectType="shape" height="128.95px" width="64.4px" xmlns="http://www.w3.org/2000/svg">
  <g transform="matrix(1.0, 0.0, 0.0, 1.0, 20.85, 126.8)">
    <path d="M10.15 -115.1 Q10.15 -110.25 6.75 -106.85 L4.55 -105.1 Q8.0 -103.9 11.6 -103.15 18.95 -101.5 26.35 -100.85 32.05 -103.9 35.3 -109.4 L35.45 -109.7 35.65 -110.3 35.85 -110.65 Q32.65 -114.8 36.95 -118.25 37.65 -118.8 38.6 -119.0 L39.65 -119.3 Q44.6 -118.9 43.25 -113.7 42.25 -109.95 40.35 -106.6 35.6 -98.4 26.75 -95.3 L24.0 -95.1 9.95 -97.7 Q5.3 -98.5 1.3 -100.45 L0.9 -77.8 Q0.7 -65.05 1.4 -52.55 L1.45 -49.6 Q4.3 -47.55 5.65 -43.7 6.95 -39.9 9.0 -36.45 10.4 -34.1 10.35 -31.6 L10.2 -26.8 Q9.85 -21.0 9.9 -15.15 10.0 -9.4 9.65 -3.8 14.3 -4.3 17.05 -0.95 17.55 -0.35 17.25 0.45 16.6 2.1 14.8 2.15 L5.75 1.8 Q4.1 1.65 4.05 0.0 3.95 -3.7 4.15 -7.3 4.6 -13.4 4.4 -19.55 4.25 -25.65 5.1 -31.6 L3.65 -34.1 3.3 -35.05 Q1.2 -38.5 -0.1 -42.1 L-0.55 -40.95 Q-1.85 -37.85 -3.3 -34.85 -8.9 -23.5 -9.45 -10.85 L-9.65 -8.95 -10.6 -1.4 Q-10.65 -0.65 -11.4 -0.35 -15.6 1.5 -17.4 -1.9 -18.1 -3.25 -17.05 -4.35 -14.8 -6.7 -14.7 -10.3 -14.35 -22.0 -10.15 -32.75 -7.9 -38.8 -4.85 -44.9 -4.05 -46.55 -4.1 -48.55 L-4.35 -73.8 -4.1 -96.1 Q-6.5 -94.45 -8.5 -92.45 -12.0 -87.55 -14.25 -82.2 L-14.7 -80.75 Q-16.1 -74.15 -14.95 -67.4 -14.6 -65.25 -14.65 -63.05 L-14.4 -61.5 Q-11.55 -61.85 -9.55 -60.0 -8.55 -59.1 -8.5 -57.7 -8.35 -54.0 -11.8 -53.3 -17.1 -52.2 -18.65 -57.15 -20.3 -62.3 -20.35 -67.8 L-20.55 -70.6 Q-21.65 -79.05 -18.6 -86.65 -17.55 -89.3 -16.0 -91.65 -13.6 -95.3 -10.35 -98.3 -7.5 -100.85 -4.4 -102.65 L-4.35 -104.35 -5.85 -104.25 Q-8.05 -105.1 -9.8 -106.85 -13.2 -110.25 -13.2 -115.1 -13.2 -119.95 -9.8 -123.4 -6.35 -126.8 -1.5 -126.8 3.35 -126.8 6.75 -123.4 10.15 -119.95 10.15 -115.1" fill="#0c0c0c" fill-rule="evenodd" stroke="none"/>
  </g>
</svg>
