<?xml version="1.0" encoding="UTF-8" standalone="no"?>
<svg xmlns:ffdec="https://www.free-decompiler.com/flash" xmlns:xlink="http://www.w3.org/1999/xlink" ffdec:objectType="shape" height="168.65px" width="84.6px" xmlns="http://www.w3.org/2000/svg">
  <g transform="matrix(1.0, 0.0, 0.0, 1.0, 32.5, 141.85)">
    <path d="M27.05 -136.9 Q26.5 -135.1 26.3 -133.2 25.55 -126.35 25.7 -119.45 26.25 -119.1 26.8 -119.05 28.2 -118.95 29.45 -119.5 36.45 -122.65 43.65 -120.9 42.25 -115.75 42.4 -110.15 47.8 -106.5 52.1 -101.95 51.65 -101.55 51.25 -101.55 44.4 -101.5 38.95 -97.75 38.85 -96.4 39.1 -95.1 L40.2 -94.5 46.4 -83.45 Q47.1 -82.65 47.9 -82.0 47.8 -80.85 48.0 -79.75 L48.4 -79.35 Q42.35 -80.15 37.45 -77.4 L37.85 -65.85 37.35 -65.5 Q32.85 -66.4 29.05 -65.0 29.0 -61.4 29.65 -57.9 L30.4 -57.2 Q31.05 -55.35 31.0 -53.45 25.4 -52.45 20.6 -49.6 L20.5 -48.15 Q20.4 -46.7 21.25 -45.8 28.1 -38.95 34.5 -31.4 29.9 -29.15 25.55 -26.55 25.45 -25.6 25.7 -24.7 27.55 -22.75 29.55 -20.95 30.5 -18.3 29.05 -15.75 L28.15 -15.0 Q26.75 -11.65 27.05 -7.95 L27.55 -7.2 27.55 -6.85 27.55 -6.45 Q28.75 -5.1 30.5 -4.6 33.1 -3.25 35.0 -0.9 35.15 0.7 34.35 2.1 31.55 2.95 29.55 4.95 L29.5 6.45 Q28.6 13.25 29.4 20.1 L28.8 20.1 Q26.65 17.75 24.05 16.5 23.25 15.5 21.95 15.4 20.15 15.25 18.85 16.0 10.85 20.35 4.35 26.8 1.85 20.5 0.25 14.15 -3.95 11.1 -8.8 14.25 -12.5 16.7 -15.6 18.1 L-15.6 17.75 Q-15.5 13.8 -15.75 9.9 -17.55 8.1 -20.05 7.3 L-30.75 4.1 Q-26.7 1.05 -24.55 -3.75 L-24.55 -4.1 -24.55 -8.2 -25.55 -9.3 Q-26.5 -12.15 -28.75 -14.15 L-28.0 -14.9 Q-22.55 -14.9 -18.2 -17.85 -18.65 -25.25 -23.55 -31.25 -24.0 -32.9 -24.05 -34.6 L-23.35 -35.15 Q-17.15 -38.05 -11.25 -41.65 -11.05 -42.75 -11.15 -43.9 L-24.05 -54.3 Q-25.3 -55.85 -24.9 -57.65 L-23.7 -58.6 Q-18.1 -61.75 -13.65 -66.0 -17.35 -69.15 -22.3 -70.95 -25.7 -72.45 -26.15 -75.4 -21.45 -76.8 -21.2 -80.85 -26.6 -87.0 -32.5 -92.75 L-32.0 -92.9 Q-28.0 -91.35 -23.85 -90.6 -18.95 -89.75 -19.0 -93.9 -19.1 -100.95 -18.6 -107.65 L-10.9 -108.2 -10.4 -108.4 Q-10.1 -109.1 -10.15 -109.9 -10.8 -111.4 -12.0 -112.5 L-12.25 -113.6 -13.1 -114.8 Q-17.7 -121.05 -20.1 -128.5 -12.7 -128.25 -5.35 -128.8 -4.9 -128.85 -4.85 -129.25 -4.0 -135.5 -4.2 -141.85 2.95 -141.7 6.6 -135.45 L7.15 -134.5 Q10.05 -129.55 15.25 -131.35 L16.4 -130.7 17.25 -131.1 Q20.95 -136.5 27.05 -136.9" fill="#ffff00" fill-opacity="0.5019608" fill-rule="evenodd" stroke="none"/>
  </g>
</svg>
