<?xml version="1.0" encoding="UTF-8" standalone="no"?>
<svg xmlns:ffdec="https://www.free-decompiler.com/flash" xmlns:xlink="http://www.w3.org/1999/xlink" ffdec:objectType="shape" height="128.4px" width="48.4px" xmlns="http://www.w3.org/2000/svg">
  <g transform="matrix(1.0, 0.0, 0.0, 1.0, 15.1, 125.7)">
    <path d="M4.05 -101.25 Q6.3 -100.15 8.1 -98.6 9.8 -98.45 11.15 -96.75 L11.95 -95.95 22.55 -86.95 Q24.15 -91.7 25.35 -96.6 25.6 -97.65 26.45 -98.45 L27.1 -100.95 27.8 -103.15 Q24.3 -106.65 27.95 -109.75 L28.75 -110.2 Q34.2 -109.65 33.15 -103.9 31.55 -95.1 28.65 -86.45 28.05 -84.75 26.95 -83.25 23.3 -78.3 18.9 -82.9 L15.1 -86.4 9.55 -90.25 Q7.95 -90.35 6.3 -92.2 L3.6 -95.15 3.6 -94.55 Q3.6 -82.5 3.75 -70.5 L12.25 -70.0 Q14.45 -74.3 18.0 -70.5 19.05 -69.4 18.55 -67.95 17.5 -65.05 14.45 -64.7 8.85 -64.1 3.8 -64.95 3.75 -58.6 3.35 -52.3 6.45 -50.7 8.0 -47.1 L9.6 -43.85 Q13.2 -37.5 15.0 -30.7 15.5 -29.0 15.25 -27.3 L14.0 -19.7 Q13.35 -16.0 12.05 -12.5 12.3 -10.65 11.6 -9.0 L10.75 -7.45 Q10.95 -5.95 10.65 -4.55 L10.15 -2.7 17.55 -1.9 Q19.55 -1.6 19.35 0.4 19.15 2.65 17.0 2.7 L6.25 2.4 Q4.6 2.3 4.55 0.65 4.5 -5.45 6.35 -11.1 L7.2 -14.1 Q9.0 -22.1 10.05 -30.3 9.35 -31.2 9.0 -32.2 8.8 -32.65 8.85 -33.15 7.75 -34.65 7.05 -36.4 L6.65 -37.55 5.35 -39.75 Q5.15 -40.2 5.1 -40.7 L3.15 -44.0 3.05 -43.3 2.5 -39.6 Q1.7 -33.75 -0.2 -28.2 -1.1 -22.9 -2.8 -17.8 L-3.15 -17.15 Q-4.65 -12.7 -7.35 -8.6 L-8.8 -4.15 Q-5.8 -3.7 -2.95 -2.7 -2.3 -2.5 -2.25 -1.75 -2.05 2.6 -7.05 1.9 L-11.7 1.0 -12.05 0.95 -13.7 0.4 -14.1 0.25 Q-14.95 -0.05 -15.05 -1.05 -15.2 -2.4 -14.7 -3.25 -13.75 -8.25 -11.35 -12.7 -6.45 -22.25 -4.15 -32.9 -3.2 -37.3 -2.9 -41.8 -2.65 -45.15 -2.0 -48.35 L-1.75 -49.0 -1.75 -49.05 -1.65 -66.35 Q-6.5 -68.05 -10.9 -71.25 -16.95 -75.6 -14.15 -82.3 L-13.05 -83.9 Q-11.65 -89.05 -8.2 -93.5 L-1.9 -101.55 -1.4 -104.0 -3.6 -105.75 Q-7.0 -109.15 -7.0 -114.0 -7.0 -118.85 -3.6 -122.3 -0.15 -125.7 4.7 -125.7 9.55 -125.7 12.95 -122.3 16.35 -118.85 16.35 -114.0 16.35 -109.15 12.95 -105.75 9.55 -102.35 4.7 -102.35 L4.1 -102.35 4.05 -101.25 M-9.05 -80.0 Q-10.15 -76.2 -6.3 -74.1 -4.0 -72.85 -1.65 -71.95 L-1.65 -74.3 Q-1.65 -83.4 -1.8 -92.5 -6.1 -86.55 -9.05 -80.0" fill="#0c0c0c" fill-rule="evenodd" stroke="none"/>
  </g>
</svg>
