<?xml version="1.0" encoding="UTF-8" standalone="no"?>
<svg xmlns:ffdec="https://www.free-decompiler.com/flash" xmlns:xlink="http://www.w3.org/1999/xlink" ffdec:objectType="shape" height="131.05px" width="75.8px" xmlns="http://www.w3.org/2000/svg">
  <g transform="matrix(1.0, 0.0, 0.0, 1.0, 27.35, 127.75)">
    <path d="M12.25 -127.75 Q17.15 -127.75 20.6 -124.3 24.05 -120.85 24.05 -115.95 24.05 -111.05 20.6 -107.6 17.2 -104.2 12.45 -104.15 L12.6 -103.75 9.7 -104.1 8.35 -104.65 7.9 -99.5 Q9.95 -98.25 11.5 -96.1 L13.35 -93.7 Q14.35 -93.6 15.65 -92.65 17.3 -91.5 16.7 -89.85 L20.3 -86.4 24.65 -81.95 Q31.8 -86.25 37.65 -92.25 40.7 -95.3 42.3 -99.25 39.5 -103.0 43.3 -105.65 L44.2 -106.1 Q50.0 -104.75 47.9 -98.85 43.65 -86.9 32.3 -80.1 29.7 -78.55 27.1 -77.25 25.45 -75.0 23.45 -75.8 23.05 -75.95 22.65 -76.2 L21.65 -77.05 13.15 -85.6 Q11.4 -84.2 9.1 -83.25 L6.6 -82.2 6.0 -78.0 Q5.5 -74.9 5.45 -71.7 L5.2 -56.75 Q15.75 -54.0 23.9 -46.3 27.4 -42.95 31.25 -40.1 L32.1 -39.35 Q33.9 -37.55 31.25 -34.7 30.4 -33.75 29.25 -33.1 20.6 -28.15 14.65 -20.45 L13.45 -18.9 Q11.8 -16.7 9.85 -14.95 L12.45 -12.75 Q14.75 -10.3 17.75 -8.75 19.45 -7.9 19.85 -6.15 20.75 -2.6 17.05 -2.8 15.85 -2.85 14.85 -3.5 9.3 -7.2 4.8 -11.95 4.35 -12.05 4.0 -12.5 L3.3 -13.6 3.2 -13.7 Q2.75 -14.2 2.95 -14.9 2.9 -16.55 4.6 -18.15 L18.55 -31.65 Q21.9 -34.95 25.75 -37.7 L11.4 -48.1 Q9.1 -49.75 6.45 -50.75 L4.85 -51.35 4.6 -50.8 Q3.85 -49.25 3.7 -47.45 3.4 -44.45 2.25 -41.75 0.95 -37.4 0.45 -32.9 L-0.3 -28.3 Q-0.65 -26.65 -1.55 -26.3 -1.8 -25.4 -2.4 -24.35 -5.25 -19.3 -8.35 -14.55 -11.5 -9.75 -16.2 -6.1 L-19.4 -2.9 Q-14.05 -2.6 -8.85 -1.35 -8.35 -1.25 -8.15 -0.65 -7.3 1.85 -9.95 2.7 L-16.0 3.05 -24.8 2.3 Q-27.15 2.35 -27.3 0.1 L-27.3 -0.65 -27.15 -1.6 Q-26.45 -3.55 -24.9 -5.1 L-18.0 -12.35 Q-12.9 -17.9 -9.0 -24.4 L-6.8 -28.5 Q-6.55 -29.85 -5.5 -30.4 -5.4 -34.15 -4.45 -37.6 L-2.2 -44.9 Q-2.05 -49.05 -0.4 -52.6 -0.8 -53.4 -0.7 -54.4 0.25 -66.9 0.7 -79.6 L0.75 -80.05 Q-4.05 -78.5 -8.95 -77.6 L-16.15 -77.3 Q-17.8 -77.45 -18.0 -79.1 -18.6 -84.2 -14.55 -87.7 -6.55 -94.65 2.55 -99.35 L3.0 -99.3 3.3 -107.7 3.3 -108.25 Q0.45 -111.5 0.45 -115.95 0.45 -120.85 3.9 -124.3 7.35 -127.75 12.25 -127.75 M9.15 -89.95 L7.55 -91.7 7.5 -90.65 7.35 -88.95 9.15 -89.95 M2.5 -93.25 Q-5.35 -88.6 -11.55 -82.35 -4.75 -83.45 1.6 -86.15 L2.5 -93.25" fill="#000000" fill-rule="evenodd" stroke="none"/>
  </g>
</svg>
