<?xml version="1.0" encoding="UTF-8" standalone="no"?>
<svg xmlns:ffdec="https://www.free-decompiler.com/flash" xmlns:xlink="http://www.w3.org/1999/xlink" ffdec:objectType="shape" height="161.35px" width="106.8px" xmlns="http://www.w3.org/2000/svg">
  <g transform="matrix(1.0, 0.0, 0.0, 1.0, 44.45, 142.15)">
    <path d="M25.8 -139.2 L26.25 -137.0 Q26.55 -133.75 25.8 -130.7 L25.45 -130.4 25.45 -129.15 Q25.3 -127.3 26.0 -125.65 27.85 -124.0 30.0 -122.9 31.55 -121.2 33.55 -122.1 L33.95 -122.65 Q35.35 -124.0 35.65 -125.85 40.8 -132.55 46.9 -138.15 L46.9 -137.85 46.9 -137.55 Q48.2 -135.85 48.65 -133.8 50.05 -127.4 50.7 -120.8 51.05 -120.3 51.55 -120.25 54.35 -120.05 56.6 -120.2 L56.55 -117.35 56.5 -115.45 Q56.6 -107.6 60.35 -100.95 L60.35 -100.65 60.35 -99.7 Q61.65 -98.85 62.35 -97.8 60.4 -96.3 58.05 -95.65 53.45 -94.4 50.3 -91.5 L50.25 -90.55 50.4 -88.65 50.7 -88.3 Q51.15 -87.75 51.1 -87.05 53.85 -85.5 55.0 -82.65 49.7 -79.8 43.55 -79.25 L42.3 -79.15 Q36.9 -79.05 36.95 -74.35 40.25 -70.85 45.45 -70.9 45.8 -69.7 45.65 -68.35 45.2 -64.8 45.25 -61.1 46.35 -58.25 49.35 -57.3 51.45 -55.75 52.8 -53.55 L52.6 -53.2 52.3 -52.6 Q48.65 -51.3 46.5 -48.4 46.5 -46.5 46.8 -44.65 47.6 -39.5 48.9 -34.5 43.6 -32.9 38.15 -31.95 32.85 -31.0 28.4 -28.6 L28.55 -25.8 Q29.0 -21.25 31.75 -17.6 L31.75 -16.65 31.75 -14.75 Q25.85 -15.25 20.2 -14.55 L19.75 -13.65 Q19.4 -12.55 19.6 -11.4 L20.0 -10.75 Q20.0 -9.95 20.25 -9.25 21.1 -6.9 20.75 -4.55 L16.1 -5.0 8.6 -6.1 Q4.55 -7.05 2.35 -4.1 2.1 -1.65 2.5 0.65 3.85 7.9 5.7 15.1 L5.05 15.2 Q3.5 14.45 1.7 14.4 -0.7 12.55 -3.15 14.35 -8.75 18.45 -15.45 19.2 L-21.05 13.45 Q-21.25 13.2 -21.45 13.2 -27.55 12.1 -33.0 13.35 -33.25 11.35 -32.6 9.5 -30.5 3.75 -31.4 -2.15 -32.15 -3.3 -33.5 -3.7 -38.7 -7.0 -44.45 -8.45 -40.0 -12.15 -34.95 -15.15 -30.2 -17.95 -33.0 -22.0 -36.6 -27.2 -42.45 -30.4 -39.4 -34.25 -34.35 -36.1 -28.85 -38.05 -23.55 -40.2 L-23.4 -40.5 -22.9 -41.45 -22.9 -42.7 Q-22.8 -44.95 -23.0 -47.1 L-26.8 -50.8 Q-21.35 -55.2 -15.2 -59.0 L-14.85 -59.6 Q-14.4 -60.35 -14.5 -61.2 -14.8 -61.9 -15.55 -61.95 L-37.6 -63.75 -38.05 -64.05 Q-37.65 -66.35 -36.65 -68.5 -34.2 -73.8 -32.7 -79.25 -32.5 -79.95 -33.2 -80.15 L-40.55 -82.75 -39.15 -84.2 Q-30.4 -91.9 -20.8 -98.5 -17.85 -100.55 -14.55 -102.0 -9.85 -104.05 -8.2 -108.3 -8.45 -108.65 -8.7 -108.65 L-20.7 -109.05 -18.3 -111.45 Q-14.05 -115.1 -10.8 -119.45 L-10.75 -120.1 -10.7 -121.35 Q-13.3 -124.0 -16.8 -125.45 L-15.45 -126.05 -14.25 -126.35 Q-8.6 -126.9 -4.1 -129.55 -4.0 -129.85 -4.05 -130.15 -4.2 -131.3 -4.7 -132.4 L-5.25 -132.7 Q-5.95 -134.45 -7.75 -135.2 L-7.75 -135.55 -7.95 -136.5 -8.4 -136.8 Q-11.3 -139.0 -13.35 -142.15 0.8 -142.3 12.85 -134.8 L12.85 -134.5 12.85 -134.15 Q14.75 -131.8 17.7 -133.05 L18.75 -133.75 Q22.1 -136.8 25.8 -139.2" fill="#ffff00" fill-opacity="0.5019608" fill-rule="evenodd" stroke="none"/>
  </g>
</svg>
