<?xml version="1.0" encoding="UTF-8" standalone="no"?>
<svg xmlns:ffdec="https://www.free-decompiler.com/flash" xmlns:xlink="http://www.w3.org/1999/xlink" ffdec:objectType="shape" height="162.25px" width="95.9px" xmlns="http://www.w3.org/2000/svg">
  <g transform="matrix(1.0, 0.0, 0.0, 1.0, 39.3, 145.85)">
    <path d="M37.15 -141.85 Q36.7 -141.3 36.65 -140.6 36.35 -137.35 34.7 -134.6 L34.7 -134.3 34.7 -133.0 33.9 -132.05 33.85 -131.45 34.0 -129.85 34.95 -129.55 48.7 -129.0 48.55 -128.7 Q48.1 -128.0 48.2 -127.15 L47.95 -126.85 Q46.25 -125.05 45.65 -122.7 45.0 -122.4 44.8 -121.75 L44.75 -119.9 Q44.65 -118.85 45.35 -118.25 L56.6 -107.55 56.6 -107.25 56.5 -106.3 Q52.75 -105.15 50.3 -102.65 50.2 -99.45 51.1 -96.45 L53.65 -88.45 53.9 -88.15 Q54.95 -87.4 54.8 -86.25 L43.75 -85.2 Q40.05 -84.7 38.1 -82.05 L38.05 -81.7 38.0 -81.1 35.15 -78.55 35.1 -78.25 Q35.1 -77.75 35.25 -77.3 39.75 -75.85 43.85 -73.6 L43.0 -72.25 Q40.8 -69.9 40.65 -67.0 40.6 -66.5 40.85 -66.25 43.75 -62.75 47.35 -59.75 47.6 -58.75 48.6 -58.15 L48.6 -57.85 48.7 -57.55 Q49.65 -57.0 49.75 -56.25 L44.15 -55.85 Q40.2 -55.65 37.25 -53.45 L37.3 -52.2 Q37.85 -47.3 40.2 -43.0 L40.35 -42.7 40.6 -42.1 Q33.7 -43.15 27.55 -40.4 24.45 -37.3 25.95 -33.0 27.15 -29.6 29.05 -26.5 31.15 -23.05 31.65 -19.35 L29.9 -19.2 23.25 -18.25 Q20.0 -17.6 18.75 -14.55 L18.6 -13.6 Q17.75 -11.6 17.8 -9.5 17.0 -9.55 16.3 -10.1 L11.95 -15.75 Q8.5 -19.75 5.7 -16.0 L5.55 -15.4 5.15 -13.75 Q4.55 -8.45 5.3 -3.4 -0.85 -4.55 -0.45 1.1 L0.25 9.95 0.05 10.3 -0.2 10.9 Q-6.5 14.05 -12.8 16.4 -12.7 13.4 -13.2 10.5 -13.3 9.9 -13.8 9.85 -20.6 9.2 -26.9 9.55 -26.15 8.85 -25.85 7.95 L-24.8 7.35 -24.7 7.0 -24.6 6.7 -23.55 6.1 -23.4 5.75 -23.3 5.45 Q-22.5 5.15 -22.15 4.5 L-21.95 2.9 Q-21.95 2.1 -22.5 1.65 -27.05 -2.3 -32.05 -5.9 L-32.15 -6.2 -32.35 -6.55 -37.1 -9.7 -39.3 -12.55 Q-36.25 -15.1 -32.35 -16.2 L-32.25 -16.5 -31.4 -17.8 Q-31.1 -19.9 -31.8 -21.85 -34.05 -27.95 -37.95 -33.25 L-30.65 -33.05 Q-25.8 -31.95 -22.25 -34.7 -21.95 -35.45 -21.95 -36.3 -21.95 -40.05 -22.9 -43.55 L-23.1 -43.85 -25.0 -46.7 -25.0 -47.0 -25.0 -47.95 Q-23.7 -48.0 -22.8 -48.8 -20.75 -49.0 -18.7 -48.85 -14.95 -48.55 -12.8 -51.1 L-12.8 -51.45 -12.8 -52.4 Q-15.4 -57.2 -19.85 -60.6 L-19.95 -61.2 -19.85 -62.8 Q-15.1 -66.25 -10.7 -70.05 -10.15 -73.0 -13.05 -73.5 L-18.35 -74.15 -18.7 -74.45 -18.8 -75.05 -19.1 -76.7 Q-19.3 -80.25 -20.15 -83.55 L-20.5 -83.95 Q-28.6 -84.9 -36.15 -86.75 -33.85 -89.4 -31.85 -92.1 -31.65 -92.9 -31.9 -93.65 -32.9 -97.2 -33.0 -100.95 -26.4 -100.6 -20.9 -103.05 L-20.7 -104.3 -20.75 -106.2 Q-21.0 -111.5 -20.8 -116.95 L-8.9 -116.6 Q-8.35 -119.65 -8.85 -122.9 L-10.7 -134.6 Q-3.95 -137.0 2.85 -137.45 4.3 -136.2 5.2 -137.65 L5.2 -137.95 5.05 -138.6 5.6 -139.2 5.7 -139.55 5.7 -139.85 6.0 -140.2 10.0 -145.85 Q12.25 -143.0 15.15 -140.05 15.9 -139.3 16.85 -139.35 20.65 -139.4 24.35 -140.4 31.1 -142.2 37.15 -141.85" fill="#ffff00" fill-opacity="0.5019608" fill-rule="evenodd" stroke="none"/>
  </g>
</svg>
