<?xml version="1.0" encoding="UTF-8" standalone="no"?>
<svg xmlns:ffdec="https://www.free-decompiler.com/flash" xmlns:xlink="http://www.w3.org/1999/xlink" ffdec:objectType="shape" height="129.35px" width="66.7px" xmlns="http://www.w3.org/2000/svg">
  <g transform="matrix(1.0, 0.0, 0.0, 1.0, 24.0, 131.6)">
    <path d="M20.05 -128.15 Q23.5 -124.7 23.5 -119.8 23.5 -114.9 20.05 -111.45 16.65 -108.05 11.9 -108.0 L12.05 -107.6 9.15 -107.95 6.4 -109.05 6.25 -107.65 6.1 -105.15 6.2 -105.0 Q7.65 -103.1 9.35 -101.35 10.4 -104.6 14.55 -103.55 15.85 -103.25 15.9 -101.95 16.0 -98.9 14.45 -96.65 18.75 -93.0 23.55 -89.85 28.9 -93.45 32.35 -98.75 33.65 -100.75 34.45 -103.0 35.2 -105.15 36.4 -107.1 33.65 -108.0 33.65 -111.1 33.7 -115.0 37.45 -115.95 43.8 -116.3 42.5 -109.95 41.25 -103.75 38.4 -98.0 34.6 -90.2 27.15 -85.3 25.8 -84.4 24.15 -84.2 20.55 -83.75 17.75 -86.35 L10.35 -92.65 10.0 -92.95 Q7.85 -91.7 5.55 -90.7 L5.65 -82.4 Q5.8 -76.45 6.7 -70.8 L6.8 -69.35 21.35 -67.45 31.35 -66.8 Q34.05 -66.8 35.85 -65.1 36.95 -64.05 36.4 -62.6 35.75 -60.8 34.3 -60.5 L33.4 -60.05 Q21.95 -55.1 11.2 -48.4 L11.25 -47.2 Q11.15 -41.25 13.45 -35.95 14.3 -33.9 13.55 -31.85 12.45 -29.0 9.95 -30.85 8.5 -31.95 7.9 -33.7 5.25 -41.35 5.95 -49.25 L5.85 -49.35 Q4.95 -50.8 6.25 -51.85 6.4 -52.35 7.0 -52.55 L7.25 -52.6 11.75 -55.55 Q17.45 -58.7 23.2 -61.4 L6.4 -63.55 3.15 -41.65 Q3.85 -40.35 2.0 -38.25 -6.15 -29.15 -15.2 -20.55 L-18.35 -17.65 Q-15.3 -11.5 -10.65 -6.35 -9.75 -5.4 -10.35 -4.2 -12.05 -0.75 -14.9 -3.45 -19.95 -8.05 -22.8 -14.15 -26.1 -19.95 -20.35 -23.9 -14.85 -27.7 -10.7 -33.0 -6.95 -37.8 -2.15 -41.55 L0.75 -63.8 Q0.95 -65.3 1.5 -66.6 0.7 -67.8 0.75 -69.55 L0.8 -88.95 Q-2.6 -87.9 -6.1 -87.4 -12.8 -86.4 -19.25 -88.2 -20.45 -88.5 -20.5 -89.75 -20.85 -94.25 -16.65 -96.95 L-14.45 -98.4 Q-6.9 -103.85 0.8 -108.55 L0.9 -111.55 1.25 -114.3 Q-0.1 -116.75 -0.1 -119.8 -0.1 -124.7 3.35 -128.15 6.8 -131.6 11.7 -131.6 16.6 -131.6 20.05 -128.15 M0.7 -94.8 Q0.6 -98.4 0.65 -101.95 -6.25 -97.75 -12.7 -92.7 -6.35 -92.25 0.55 -94.7 L0.7 -94.75 0.7 -94.8" fill="#000000" fill-rule="evenodd" stroke="none"/>
  </g>
</svg>
