<?xml version="1.0" encoding="UTF-8" standalone="no"?>
<svg xmlns:ffdec="https://www.free-decompiler.com/flash" xmlns:xlink="http://www.w3.org/1999/xlink" ffdec:objectType="shape" height="146.65px" width="111.45px" xmlns="http://www.w3.org/2000/svg">
  <g transform="matrix(1.0, 0.0, 0.0, 1.0, 46.45, 147.7)">
    <path d="M20.55 -131.1 L21.35 -131.0 Q24.75 -132.1 27.75 -134.6 31.05 -137.4 34.5 -138.8 38.2 -136.45 40.85 -132.9 41.6 -131.95 42.75 -132.55 48.75 -135.75 54.05 -139.95 54.75 -134.25 54.65 -128.3 54.5 -117.95 65.0 -116.1 63.65 -114.45 61.75 -113.5 56.15 -110.5 58.8 -105.05 L59.1 -104.7 59.55 -104.1 59.6 -103.5 60.35 -102.2 Q52.75 -102.9 47.35 -98.0 L47.3 -96.45 46.8 -94.2 Q45.65 -94.2 44.65 -94.65 40.8 -96.25 37.05 -95.25 L36.9 -94.95 36.8 -94.35 36.6 -94.0 36.4 -93.7 Q36.4 -92.6 36.65 -91.55 L37.75 -87.4 54.05 -86.25 Q54.15 -85.6 53.85 -85.0 L53.3 -84.0 50.9 -78.75 50.3 -78.15 50.2 -76.25 Q50.1 -74.65 51.1 -73.4 L51.1 -73.1 51.1 -72.8 51.65 -72.1 Q52.2 -71.1 53.1 -70.25 L53.2 -69.95 53.35 -69.3 54.6 -67.95 Q56.75 -64.8 59.65 -62.05 55.5 -59.95 51.1 -58.15 45.45 -55.85 41.45 -51.75 L41.45 -50.5 41.45 -49.25 41.75 -48.9 42.3 -48.3 Q42.2 -47.15 42.75 -46.25 44.2 -43.8 46.05 -41.65 L46.05 -41.0 46.05 -40.4 Q44.4 -39.85 42.7 -39.8 38.25 -39.65 35.55 -36.8 35.5 -35.4 36.0 -34.1 37.4 -30.8 39.45 -27.65 32.9 -30.05 27.55 -26.5 L27.55 -26.2 27.35 -25.55 Q26.0 -25.05 25.2 -23.9 23.3 -21.2 20.75 -19.35 L20.3 -19.45 20.05 -19.8 19.8 -20.4 Q18.7 -20.95 18.1 -21.9 15.6 -25.7 12.65 -28.85 L12.2 -28.7 12.0 -28.6 10.75 -26.75 6.65 -21.15 6.25 -21.05 Q4.2 -21.85 2.3 -22.8 L0.0 -24.25 Q-3.8 -27.25 -7.75 -26.1 -8.05 -23.1 -6.8 -20.35 -4.95 -16.3 -4.9 -12.0 L-6.5 -12.2 -7.15 -12.8 Q-11.8 -15.9 -13.35 -11.4 -14.5 -10.0 -15.0 -8.3 -16.1 -4.5 -18.15 -1.05 L-20.35 -3.4 Q-20.85 -3.85 -21.4 -3.95 -30.75 -5.85 -40.15 -4.65 -40.1 -5.9 -39.65 -7.1 L-37.6 -11.8 -37.3 -12.1 Q-36.7 -12.6 -36.75 -13.35 L-36.25 -14.0 -34.8 -15.6 -34.35 -16.85 Q-33.8 -17.7 -33.85 -18.75 L-34.6 -19.6 Q-40.9 -24.0 -46.45 -28.85 L-46.2 -29.1 -44.35 -30.7 Q-39.8 -31.9 -36.05 -34.5 -35.65 -36.9 -36.35 -39.2 -37.55 -43.35 -35.95 -47.45 -34.75 -50.35 -31.5 -50.15 L-30.45 -49.75 Q-28.1 -49.2 -26.25 -47.7 -23.1 -45.1 -19.75 -45.65 L-19.0 -47.6 Q-18.6 -48.8 -18.7 -50.05 L-3.85 -53.95 Q-3.0 -55.55 -4.5 -56.65 L-8.8 -59.65 Q-11.75 -61.75 -13.65 -64.35 L-13.0 -65.0 -12.55 -65.7 Q-10.05 -67.5 -8.6 -70.05 L-7.85 -70.65 Q-7.7 -71.3 -7.7 -71.95 L-7.75 -73.85 Q-8.1 -74.5 -8.8 -74.65 -13.2 -71.9 -17.45 -71.85 L-17.35 -73.7 Q-17.15 -75.5 -18.25 -76.9 L-18.25 -78.75 -18.25 -81.0 Q-18.6 -81.65 -19.3 -81.55 L-30.05 -80.35 -29.9 -83.45 -29.2 -86.45 Q-28.4 -89.45 -30.45 -91.75 -32.65 -94.15 -35.1 -96.1 L-35.05 -96.45 -35.0 -96.75 Q-33.0 -98.7 -30.05 -98.85 -25.9 -99.05 -22.7 -101.15 L-22.55 -101.8 -22.45 -102.4 -23.35 -103.95 -23.95 -106.2 -24.6 -106.85 -24.6 -107.15 -24.6 -107.45 -25.15 -108.4 -25.4 -109.7 -25.25 -110.0 -25.1 -110.3 Q-21.6 -112.05 -17.75 -112.7 L-14.85 -112.75 Q-11.7 -112.35 -10.3 -114.6 -10.2 -115.1 -10.45 -115.5 L-12.8 -118.65 -20.35 -127.85 -5.15 -129.25 Q-4.75 -129.65 -4.85 -130.2 -4.95 -131.2 -5.65 -132.05 L-5.7 -132.7 -5.75 -133.35 -6.0 -133.65 -6.5 -134.3 Q-6.6 -135.3 -7.0 -136.2 -7.8 -138.05 -9.0 -139.65 L-9.0 -139.95 -9.0 -140.25 -9.5 -140.85 -10.6 -142.15 -10.65 -142.8 -10.7 -143.4 Q-2.9 -142.9 4.5 -140.2 L5.6 -140.25 Q10.6 -143.75 15.35 -147.65 L15.65 -147.65 16.65 -146.6 16.65 -146.25 16.65 -145.95 17.35 -145.3 Q18.65 -142.6 19.1 -139.65 L20.55 -131.1" fill="#ffff00" fill-opacity="0.5019608" fill-rule="evenodd" stroke="none"/>
  </g>
</svg>
