<?xml version="1.0" encoding="UTF-8" standalone="no"?>
<svg xmlns:ffdec="https://www.free-decompiler.com/flash" xmlns:xlink="http://www.w3.org/1999/xlink" ffdec:objectType="shape" height="118.85px" width="78.65px" xmlns="http://www.w3.org/2000/svg">
  <g transform="matrix(1.0, 0.0, 0.0, 1.0, 27.1, 133.25)">
    <path d="M8.95 -133.25 Q13.85 -133.25 17.3 -129.8 20.75 -126.35 20.75 -121.45 20.75 -116.55 17.3 -113.1 13.9 -109.7 9.15 -109.65 L9.3 -109.25 6.4 -109.6 4.9 -110.2 5.4 -107.15 5.45 -106.8 7.05 -106.05 Q10.0 -104.2 13.3 -102.95 16.55 -101.75 19.9 -100.7 22.25 -99.95 24.4 -101.6 27.25 -103.7 30.5 -105.15 37.0 -108.1 42.8 -112.15 43.1 -114.9 45.7 -116.5 L47.1 -117.0 Q53.05 -116.95 51.0 -111.75 49.95 -109.05 47.15 -107.55 L25.05 -95.6 Q23.3 -94.6 21.45 -94.35 18.9 -94.05 16.65 -95.35 13.6 -97.1 10.25 -98.15 8.15 -98.8 6.35 -99.75 L7.2 -93.35 7.9 -92.35 Q8.9 -90.65 7.75 -89.1 L7.8 -88.8 9.0 -79.05 Q9.45 -75.7 10.05 -72.45 L26.1 -73.25 Q31.7 -73.7 36.75 -72.1 L37.45 -72.45 Q42.35 -70.95 38.9 -66.55 36.1 -63.0 32.4 -60.15 L26.7 -55.4 Q22.7 -51.75 18.25 -48.95 L20.3 -46.85 Q21.2 -45.8 21.6 -44.45 26.1 -41.6 26.55 -36.85 26.65 -35.75 25.6 -35.4 22.4 -34.35 20.65 -37.45 20.0 -38.6 18.95 -39.4 14.6 -42.95 12.6 -47.65 10.6 -49.45 13.5 -51.75 23.25 -59.45 32.35 -67.9 L29.45 -67.75 28.4 -67.7 9.4 -67.3 9.3 -67.05 Q8.95 -66.05 8.9 -64.95 8.0 -52.6 7.65 -40.05 7.6 -39.15 6.75 -38.65 L6.15 -38.3 6.05 -38.25 Q5.65 -37.9 5.05 -37.85 -6.9 -37.1 -18.5 -34.4 -20.05 -34.05 -21.25 -33.3 L-21.15 -32.3 -20.55 -26.55 Q-20.1 -23.65 -19.1 -20.95 -18.05 -18.05 -19.2 -15.4 -19.75 -14.25 -20.95 -14.45 -24.4 -15.1 -24.65 -18.55 L-25.05 -21.1 Q-26.05 -25.15 -26.55 -29.25 L-27.0 -32.5 Q-27.2 -33.7 -26.9 -34.6 -26.75 -35.75 -25.4 -36.8 -19.4 -41.55 -11.55 -41.85 L2.65 -43.05 2.65 -43.1 Q2.85 -55.8 3.95 -68.3 L4.35 -71.75 4.75 -72.95 Q3.2 -78.4 2.9 -84.1 L2.7 -86.8 1.2 -87.0 -4.6 -88.05 Q-13.8 -89.3 -20.3 -95.4 -20.75 -95.85 -20.6 -96.5 -19.8 -100.0 -15.85 -101.2 -13.5 -101.9 -11.15 -102.95 L-0.35 -107.3 -1.2 -115.0 -1.25 -115.45 Q-2.85 -118.1 -2.85 -121.45 -2.85 -126.35 0.6 -129.8 4.05 -133.25 8.95 -133.25 M0.1 -101.75 L-12.05 -96.5 Q-10.1 -94.55 -6.55 -93.85 L0.95 -93.25 1.6 -93.8 0.4 -101.85 0.1 -101.75" fill="#000000" fill-rule="evenodd" stroke="none"/>
  </g>
</svg>
