<?xml version="1.0" encoding="UTF-8" standalone="no"?>
<svg xmlns:ffdec="https://www.free-decompiler.com/flash" xmlns:xlink="http://www.w3.org/1999/xlink" ffdec:objectType="shape" height="140.95px" width="109.35px" xmlns="http://www.w3.org/2000/svg">
  <g transform="matrix(1.0, 0.0, 0.0, 1.0, 45.6, 148.75)">
    <path d="M0.65 -148.7 L0.8 -148.7 12.3 -137.2 Q12.9 -136.6 13.7 -136.6 18.05 -136.65 22.3 -138.7 L22.85 -138.5 23.1 -137.9 Q23.5 -137.15 23.35 -136.3 L23.8 -135.65 23.9 -135.1 Q24.3 -134.3 24.2 -133.45 L24.65 -132.8 24.65 -132.5 24.5 -131.55 24.2 -131.25 24.2 -130.9 24.1 -130.3 23.8 -129.95 23.7 -129.35 23.35 -127.45 23.15 -127.15 Q21.6 -125.15 22.2 -122.7 L23.15 -122.2 23.55 -122.3 23.8 -122.4 Q29.1 -128.95 35.55 -134.6 L36.5 -134.5 Q40.5 -132.75 43.95 -129.85 45.05 -129.0 45.65 -127.8 46.1 -126.95 47.05 -127.2 52.95 -128.55 57.75 -132.8 L57.25 -128.4 Q55.8 -118.75 63.75 -114.4 L63.7 -114.1 Q62.1 -109.05 60.8 -104.0 60.1 -102.7 58.55 -102.4 53.8 -101.55 49.85 -99.5 L49.9 -98.85 50.3 -94.1 49.85 -93.8 43.65 -94.95 Q42.15 -96.6 40.4 -95.7 L40.25 -95.35 40.1 -94.75 Q35.5 -89.75 31.35 -84.35 L31.35 -83.7 31.35 -82.15 Q31.85 -81.2 32.85 -81.2 43.15 -81.0 51.95 -81.2 L51.95 -80.25 51.95 -67.0 Q53.85 -64.2 56.6 -62.15 L56.6 -61.85 56.9 -60.9 Q55.7 -58.75 53.45 -57.45 L53.0 -56.5 51.1 -54.25 51.05 -53.95 50.8 -53.35 Q50.05 -53.05 49.85 -52.4 L49.85 -51.75 49.95 -49.55 50.85 -48.95 Q51.25 -48.7 51.6 -48.6 55.7 -47.4 57.3 -44.2 54.2 -42.45 51.55 -40.2 L51.55 -39.85 51.55 -39.25 51.75 -38.9 52.4 -37.65 52.4 -37.35 52.4 -37.05 54.15 -35.45 Q58.25 -29.45 63.75 -24.4 54.7 -26.0 48.6 -20.1 L48.6 -19.8 48.5 -18.85 48.2 -18.55 47.0 -18.4 Q44.2 -20.2 41.05 -21.35 L39.75 -21.65 Q33.1 -22.4 30.5 -16.1 L30.4 -16.4 Q28.9 -19.75 28.4 -23.35 26.7 -24.55 24.4 -24.9 L17.05 -26.1 Q19.1 -29.25 19.6 -33.05 19.2 -35.65 17.35 -37.5 14.75 -40.0 12.55 -36.3 L12.45 -35.95 12.3 -35.35 9.5 -30.6 9.5 -30.3 9.5 -29.65 8.35 -28.7 8.25 -28.4 8.1 -27.8 7.35 -26.85 Q5.35 -24.35 2.6 -26.15 -1.0 -28.5 -4.6 -28.0 L-4.75 -27.65 -7.55 -17.25 -8.2 -17.15 -9.05 -17.65 -10.9 -18.9 Q-14.2 -21.45 -17.85 -21.9 L-19.95 -18.55 Q-22.3 -12.35 -27.1 -7.8 L-27.75 -7.8 -28.25 -8.45 -28.3 -8.75 -28.45 -9.7 -28.7 -10.0 Q-29.9 -11.15 -29.6 -12.85 -31.0 -15.85 -34.4 -14.95 -39.3 -13.65 -43.2 -14.2 -42.85 -16.75 -41.25 -18.8 -36.7 -24.6 -34.65 -31.25 L-34.45 -31.55 Q-33.3 -33.65 -34.05 -36.0 -36.35 -38.0 -39.2 -39.05 -41.05 -40.15 -42.65 -40.7 L-42.6 -41.0 -42.05 -42.6 Q-39.55 -45.0 -36.35 -46.3 -33.15 -46.45 -31.0 -48.4 -31.25 -54.15 -36.45 -57.85 -32.55 -57.95 -28.75 -55.9 -24.4 -53.5 -20.25 -55.65 L-20.1 -55.95 -19.2 -57.2 -19.15 -57.55 Q-18.95 -58.4 -18.35 -59.1 -16.8 -59.35 -15.45 -58.4 -10.8 -54.9 -5.45 -55.75 L-5.35 -56.35 Q-5.9 -61.7 -5.25 -67.1 -6.75 -68.6 -9.25 -68.6 L-27.1 -68.65 -27.1 -69.6 -27.1 -75.95 -27.7 -76.3 Q-36.5 -78.15 -45.6 -77.4 -42.8 -83.75 -39.0 -89.6 L-38.85 -90.2 Q-37.8 -93.25 -38.05 -96.55 L-40.15 -98.2 -39.2 -99.55 Q-35.35 -104.35 -35.1 -110.2 -29.0 -112.8 -22.25 -112.8 -21.25 -112.75 -20.8 -113.8 L-20.8 -114.1 -20.8 -115.05 -21.2 -115.65 -21.2 -116.0 -21.2 -116.3 -22.45 -117.55 -22.45 -117.9 Q-22.45 -118.85 -23.3 -119.45 L-23.3 -119.75 Q-23.4 -121.4 -24.6 -122.6 L-24.6 -123.25 -24.6 -125.15 -22.05 -126.6 -15.9 -127.3 Q-15.6 -127.35 -15.35 -127.65 L-15.3 -127.95 Q-14.85 -130.35 -16.15 -132.05 L-16.15 -132.4 -16.15 -132.7 Q-17.85 -135.65 -20.35 -138.05 L-20.35 -138.4 Q-20.25 -139.1 -20.7 -139.65 L-4.4 -135.85 -3.95 -135.55 -3.95 -135.25 -3.85 -134.9 -2.9 -134.4 -2.5 -134.55 -1.55 -135.45 -1.45 -136.05 Q-1.25 -138.8 -1.75 -141.45 L-1.65 -141.75 Q-1.25 -144.5 -0.4 -147.1 L-0.05 -147.45 0.65 -148.7" fill="#ffff00" fill-opacity="0.5019608" fill-rule="evenodd" stroke="none"/>
  </g>
</svg>
