<?xml version="1.0" encoding="UTF-8" standalone="no"?>
<svg xmlns:ffdec="https://www.free-decompiler.com/flash" xmlns:xlink="http://www.w3.org/1999/xlink" ffdec:objectType="shape" height="106.85px" width="75.7px" xmlns="http://www.w3.org/2000/svg">
  <g transform="matrix(1.0, 0.0, 0.0, 1.0, 26.4, 133.8)">
    <path d="M14.0 -130.35 Q17.45 -126.9 17.45 -122.0 17.45 -117.1 14.0 -113.65 10.6 -110.25 5.85 -110.2 L6.0 -109.8 3.1 -110.15 0.5 -111.15 0.5 -111.05 0.9 -107.7 1.15 -107.65 4.85 -106.9 Q13.75 -105.2 22.1 -101.7 L22.95 -101.8 Q27.3 -105.85 33.35 -107.55 36.7 -108.45 39.8 -110.3 L41.05 -110.95 Q41.05 -113.8 43.2 -115.7 44.05 -116.45 45.0 -116.4 50.5 -116.35 49.0 -110.8 48.5 -108.85 46.6 -107.95 L45.05 -107.1 Q36.7 -102.3 27.9 -98.45 L25.2 -97.15 Q21.55 -95.2 17.7 -97.05 12.15 -99.7 6.05 -101.05 L1.75 -101.95 Q3.2 -94.25 5.8 -86.65 L7.0 -83.35 10.95 -72.1 Q22.65 -68.35 34.85 -66.25 37.65 -65.75 40.05 -64.5 L40.4 -64.7 Q43.2 -63.65 42.85 -61.7 44.3 -60.15 42.55 -57.5 L41.7 -56.1 Q38.05 -48.85 35.45 -41.25 L34.45 -37.8 Q39.5 -37.4 43.8 -34.9 44.65 -34.4 44.4 -33.45 43.55 -29.8 39.65 -31.0 L35.65 -31.9 31.2 -32.75 30.8 -32.75 Q30.25 -32.9 29.8 -33.1 L29.55 -33.2 Q28.5 -33.5 28.25 -34.4 27.45 -35.8 28.45 -38.0 L29.35 -40.35 33.15 -50.2 Q33.35 -51.7 34.15 -53.05 L34.8 -53.95 Q34.75 -54.85 35.3 -55.5 L36.1 -56.5 36.85 -58.9 Q34.35 -60.0 31.55 -60.55 L32.3 -60.9 Q28.3 -62.05 24.25 -62.85 L14.25 -65.25 Q12.7 -65.65 11.3 -66.3 L11.05 -64.4 Q10.9 -58.05 9.5 -52.05 8.6 -48.2 8.4 -44.2 8.25 -40.95 6.25 -38.8 5.1 -37.55 3.55 -38.55 L3.0 -38.9 0.95 -39.6 Q-0.6 -40.4 -2.25 -40.8 -10.6 -42.75 -18.8 -45.35 L-18.85 -45.1 Q-19.2 -42.15 -19.05 -39.15 -18.7 -33.1 -20.25 -27.55 -20.35 -27.15 -20.85 -27.05 -24.65 -26.3 -24.65 -30.1 -24.8 -39.1 -23.85 -47.8 L-23.85 -49.0 -23.55 -49.85 -23.5 -50.0 Q-22.9 -51.15 -21.4 -51.25 L2.1 -45.6 Q2.3 -47.4 3.45 -48.45 L3.3 -48.65 3.95 -53.55 Q4.0 -54.3 4.55 -54.8 L6.5 -69.95 5.9 -70.85 Q4.0 -74.15 3.3 -77.85 1.5 -80.5 1.0 -83.8 0.55 -87.05 -0.55 -90.2 -2.5 -95.8 -3.7 -101.6 -11.4 -98.45 -19.25 -96.45 -18.55 -95.4 -17.55 -94.65 -12.4 -96.5 -10.15 -92.25 -9.3 -90.75 -9.65 -89.0 -10.05 -87.0 -12.2 -86.9 -19.2 -86.6 -23.6 -92.3 -25.05 -94.2 -26.0 -96.3 -26.5 -97.1 -26.4 -97.8 -26.3 -98.65 -25.4 -99.4 L-24.4 -100.05 Q-21.8 -101.45 -18.95 -102.25 -11.55 -104.3 -4.65 -107.1 L-5.45 -114.1 Q-5.55 -115.5 -5.25 -116.9 L-5.15 -117.2 Q-6.15 -119.4 -6.15 -122.0 -6.15 -126.9 -2.7 -130.35 0.75 -133.8 5.65 -133.8 10.55 -133.8 14.0 -130.35" fill="#000000" fill-rule="evenodd" stroke="none"/>
  </g>
</svg>
