<?xml version="1.0" encoding="UTF-8" standalone="no"?>
<svg xmlns:ffdec="https://www.free-decompiler.com/flash" xmlns:xlink="http://www.w3.org/1999/xlink" ffdec:objectType="shape" height="136.25px" width="104.4px" xmlns="http://www.w3.org/2000/svg">
  <g transform="matrix(1.0, 0.0, 0.0, 1.0, 47.3, 147.0)">
    <path d="M23.8 -130.5 L23.8 -130.2 23.7 -128.6 Q23.0 -127.95 23.05 -127.05 23.1 -125.9 22.55 -125.0 L18.3 -118.5 18.3 -118.2 18.4 -116.0 Q20.3 -114.6 22.65 -114.3 25.25 -112.95 27.35 -115.05 L27.7 -116.0 28.25 -117.25 31.45 -123.85 Q34.65 -122.45 38.3 -123.1 L38.85 -123.3 Q43.6 -126.45 47.25 -130.9 48.35 -128.05 48.3 -124.9 48.3 -122.15 49.3 -119.7 50.95 -115.65 56.15 -115.65 L56.35 -115.45 Q57.45 -114.25 56.9 -112.6 L55.95 -111.9 Q52.35 -108.3 47.55 -106.2 L47.4 -105.9 Q47.25 -105.25 47.55 -104.7 49.35 -101.2 51.55 -98.0 L51.55 -97.7 51.65 -97.05 52.8 -95.8 52.8 -95.5 Q52.7 -94.75 53.1 -94.2 L32.4 -94.5 Q30.0 -94.55 28.85 -92.75 L28.85 -92.45 28.85 -90.85 29.25 -90.25 29.25 -89.9 Q29.15 -89.35 29.45 -88.95 L30.5 -88.35 Q33.7 -83.75 37.2 -79.25 37.6 -78.7 38.15 -78.6 L46.5 -76.75 Q49.6 -75.85 51.0 -74.35 L50.7 -74.05 50.65 -73.75 50.6 -73.4 Q47.05 -71.0 44.4 -67.75 L44.4 -67.4 44.4 -66.45 Q44.85 -65.95 45.45 -65.5 L45.85 -64.55 Q48.7 -62.25 51.1 -59.2 L51.1 -58.9 51.1 -58.25 50.6 -57.75 Q46.65 -54.75 43.15 -51.2 L43.15 -50.9 43.15 -47.1 Q45.65 -43.8 48.7 -41.15 L49.95 -39.25 Q45.25 -37.35 41.65 -33.9 L41.25 -32.95 40.6 -32.3 40.6 -32.0 40.5 -31.05 40.25 -30.7 Q39.95 -30.25 39.95 -29.75 L39.75 -24.1 40.2 -23.45 40.25 -22.85 40.5 -21.85 Q41.3 -18.9 42.6 -16.0 L40.4 -16.65 Q36.8 -18.05 33.15 -16.55 26.75 -13.95 20.65 -10.75 L14.85 -16.3 Q10.95 -19.65 14.55 -24.0 12.15 -26.25 8.4 -26.55 4.55 -26.8 1.9 -28.6 L2.55 -29.25 2.65 -29.55 2.85 -30.2 Q5.1 -31.35 4.85 -33.65 5.85 -34.35 5.7 -35.55 L5.15 -35.9 Q-5.25 -36.5 -15.75 -36.3 L-15.95 -36.5 -12.65 -37.8 Q-11.2 -38.45 -9.6 -38.6 -5.1 -39.1 -2.3 -41.65 L-2.4 -41.95 -3.0 -43.25 Q-6.6 -45.85 -9.45 -49.25 L-9.4 -49.55 Q-9.3 -50.25 -9.75 -50.8 -9.6 -51.8 -8.8 -52.4 L-8.3 -53.35 -3.25 -50.0 Q0.8 -47.1 4.85 -49.0 L4.85 -49.35 Q5.0 -50.85 4.45 -52.15 L4.5 -52.45 4.85 -53.45 Q6.9 -53.3 8.45 -54.5 L8.55 -54.8 8.65 -55.75 2.15 -60.35 2.2 -60.7 2.45 -61.95 Q3.2 -62.2 3.6 -62.9 L3.7 -63.85 3.95 -64.5 Q4.75 -67.35 4.45 -70.45 L3.9 -70.8 -2.1 -71.85 -3.95 -75.0 -3.95 -75.3 -3.95 -75.95 -5.55 -77.8 -5.6 -78.15 -5.8 -79.0 Q-6.85 -81.75 -6.5 -84.75 -8.85 -88.35 -11.55 -85.4 L-11.95 -85.05 Q-16.9 -81.65 -20.35 -77.0 L-21.15 -76.3 Q-24.7 -72.45 -28.8 -71.1 L-28.8 -73.6 -28.7 -74.85 Q-28.35 -78.45 -29.95 -81.5 -30.65 -82.2 -31.55 -82.5 L-47.3 -87.9 -46.95 -88.2 -39.3 -94.85 -39.3 -95.15 -39.3 -95.5 -38.9 -96.1 -38.85 -96.45 -39.0 -98.0 Q-39.8 -98.8 -39.7 -99.9 L-40.1 -100.55 Q-41.6 -103.45 -43.5 -106.2 L-43.5 -106.5 -43.7 -107.4 Q-45.0 -110.05 -45.2 -113.15 -41.1 -113.15 -37.15 -111.85 -33.7 -110.75 -30.7 -111.25 L-30.55 -111.55 Q-30.0 -112.9 -30.05 -114.4 L-28.9 -115.65 -28.85 -116.0 -28.7 -117.9 -27.2 -119.45 Q-23.2 -119.5 -19.35 -118.25 L-14.65 -118.0 Q-14.2 -118.1 -14.15 -118.45 -13.5 -122.45 -13.65 -126.6 L-12.6 -126.9 Q-12.05 -127.15 -11.95 -127.75 -12.6 -130.3 -14.9 -129.95 L-15.35 -130.05 Q-16.15 -131.4 -17.5 -132.2 -22.9 -135.5 -27.95 -139.2 L-18.7 -140.25 Q-10.65 -140.55 -3.0 -142.25 L-2.9 -142.6 Q-2.6 -144.9 -1.55 -147.0 0.9 -145.3 3.35 -142.75 5.35 -140.6 7.9 -142.15 12.05 -144.75 16.2 -145.4 L16.2 -145.1 16.2 -141.3 15.35 -140.05 15.35 -138.8 15.35 -137.55 Q15.3 -134.5 15.5 -131.55 15.95 -131.3 16.45 -131.2 L23.8 -130.5" fill="#ffff00" fill-opacity="0.5019608" fill-rule="evenodd" stroke="none"/>
  </g>
</svg>
