<?xml version="1.0" encoding="UTF-8" standalone="no"?>
<svg xmlns:ffdec="https://www.free-decompiler.com/flash" xmlns:xlink="http://www.w3.org/1999/xlink" ffdec:objectType="shape" height="112.95px" width="74.95px" xmlns="http://www.w3.org/2000/svg">
  <g transform="matrix(1.0, 0.0, 0.0, 1.0, 27.6, 133.25)">
    <path d="M11.25 -129.8 Q14.7 -126.35 14.7 -121.45 14.7 -116.55 11.25 -113.1 7.85 -109.7 3.1 -109.65 L3.25 -109.25 0.4 -109.6 0.7 -108.4 Q1.9 -108.7 3.6 -107.95 14.1 -103.25 25.2 -105.5 28.8 -106.25 32.1 -107.85 L38.5 -110.85 Q38.4 -114.9 42.5 -115.55 L42.5 -115.6 Q48.15 -115.35 47.25 -110.15 47.05 -109.0 46.0 -108.35 40.85 -105.15 35.05 -103.15 L30.45 -101.35 Q20.6 -97.05 10.05 -99.75 6.15 -100.8 2.65 -102.5 5.95 -93.8 8.65 -84.85 9.55 -81.85 11.3 -79.2 12.5 -77.3 13.3 -75.25 15.9 -73.65 18.0 -71.05 L18.9 -69.95 Q28.15 -68.2 37.05 -65.15 39.8 -64.25 40.55 -62.3 42.05 -60.65 39.85 -57.95 38.4 -56.2 36.45 -55.0 L36.25 -54.85 37.25 -54.15 Q37.75 -53.8 37.75 -53.15 L37.75 -52.85 Q38.35 -51.25 36.8 -48.85 L33.25 -43.5 32.35 -42.1 Q35.15 -40.9 33.15 -38.2 32.15 -36.8 30.35 -37.35 L29.45 -37.6 28.9 -36.7 Q26.8 -33.25 24.3 -30.1 27.35 -27.3 31.1 -24.45 32.5 -23.4 31.55 -22.05 29.45 -18.9 26.2 -21.4 22.35 -24.35 18.3 -27.15 16.5 -28.4 17.7 -30.25 L22.55 -37.75 23.7 -39.45 Q18.4 -41.3 13.2 -43.6 12.0 -44.1 12.1 -45.45 12.15 -46.8 12.9 -47.5 L13.55 -48.2 Q16.4 -50.65 19.9 -52.15 23.45 -53.65 26.8 -55.5 21.25 -59.85 16.2 -64.9 L15.65 -65.3 12.3 -66.0 Q9.9 -66.45 10.25 -68.75 L10.5 -69.6 10.15 -69.95 Q9.0 -71.05 8.65 -72.2 L8.5 -72.05 8.45 -72.3 8.2 -72.75 6.25 -76.9 Q1.7 -85.2 -0.6 -94.5 L-2.0 -99.0 -3.1 -102.3 -16.65 -98.4 Q-18.85 -97.7 -21.05 -97.35 -16.35 -95.5 -17.6 -89.9 -17.95 -88.45 -19.35 -87.9 -23.7 -86.0 -25.5 -90.1 -25.8 -90.8 -25.75 -91.6 -27.35 -94.75 -27.35 -98.15 -28.55 -102.2 -23.8 -102.8 -19.05 -103.4 -14.5 -104.75 L-4.8 -107.4 -4.9 -107.8 -5.25 -109.05 Q-7.35 -112.25 -7.4 -115.65 -8.9 -118.25 -8.9 -121.45 -8.9 -126.35 -5.45 -129.8 -2.0 -133.25 2.9 -133.25 7.8 -133.25 11.25 -129.8 M31.45 -52.0 Q26.05 -48.95 20.45 -46.15 L26.65 -43.95 31.9 -51.75 31.45 -52.0 M34.05 -60.0 L27.05 -62.3 31.7 -58.4 34.05 -60.0" fill="#000000" fill-rule="evenodd" stroke="none"/>
  </g>
</svg>
