<?xml version="1.0" encoding="UTF-8" standalone="no"?>
<svg xmlns:ffdec="https://www.free-decompiler.com/flash" xmlns:xlink="http://www.w3.org/1999/xlink" ffdec:objectType="shape" height="132.8px" width="159.85px" xmlns="http://www.w3.org/2000/svg">
  <g transform="matrix(1.0, 0.0, 0.0, 1.0, 59.15, 147.5)">
    <path d="M52.4 -124.15 L49.7 -124.1 Q52.15 -126.55 55.05 -128.35 L55.9 -127.4 56.35 -125.85 56.95 -124.2 56.85 -124.2 52.4 -124.15 M22.9 -125.05 Q22.85 -124.45 22.95 -123.8 L-7.2 -123.2 -19.2 -123.0 Q-21.1 -126.5 -23.3 -129.8 -18.15 -130.15 -14.15 -133.05 -9.45 -133.55 -6.55 -137.05 L-6.55 -137.4 Q-7.1 -142.6 -9.2 -147.5 -5.95 -145.05 -2.25 -142.55 L0.85 -140.6 2.15 -140.55 10.75 -146.75 Q12.7 -148.15 14.35 -146.6 15.55 -145.45 15.9 -143.75 L17.55 -134.25 27.55 -131.7 Q24.95 -128.85 22.95 -125.4 L22.9 -125.05 M39.5 -124.05 L33.7 -123.95 38.75 -124.95 39.5 -124.05 M82.85 -99.5 L85.35 -102.8 Q87.4 -105.8 89.9 -107.15 L90.15 -106.5 Q91.7 -100.95 92.45 -95.15 L93.25 -94.2 93.25 -93.9 93.25 -93.6 Q97.15 -91.5 100.0 -88.1 L100.05 -87.8 100.1 -87.5 Q100.8 -87.1 100.65 -86.55 L100.45 -86.2 100.35 -85.9 Q93.3 -84.75 88.65 -80.0 L88.65 -79.7 88.65 -77.15 Q91.25 -74.1 90.65 -70.2 84.6 -67.75 80.65 -62.75 L80.5 -60.5 Q79.7 -53.5 80.4 -46.3 71.7 -45.7 66.3 -38.75 L66.3 -38.4 66.2 -37.8 65.9 -37.45 65.35 -37.45 Q61.4 -40.85 56.65 -38.3 L56.45 -38.1 56.2 -37.8 55.8 -37.75 55.8 -37.9 Q55.95 -40.05 57.35 -41.65 L63.15 -42.0 63.9 -42.2 64.95 -43.8 66.0 -46.3 Q68.35 -50.0 73.15 -49.8 73.85 -52.05 72.2 -53.9 L72.2 -54.2 72.2 -54.5 70.95 -56.1 70.95 -56.4 70.95 -57.05 Q70.15 -58.05 70.1 -59.25 L73.35 -62.3 73.5 -62.95 73.65 -63.85 Q73.25 -67.2 68.95 -67.25 L68.15 -67.95 Q66.4 -69.05 64.95 -70.45 62.5 -72.85 59.8 -72.2 L57.8 -64.0 51.35 -64.2 51.25 -63.9 51.15 -61.05 51.55 -60.4 Q52.6 -57.55 54.95 -55.35 L54.95 -55.05 54.95 -54.75 55.8 -53.8 55.8 -53.45 Q55.9 -52.95 55.6 -52.5 51.25 -50.45 48.2 -47.15 L48.2 -46.85 48.2 -44.3 48.65 -43.65 48.65 -43.35 48.65 -40.5 Q48.35 -39.9 47.75 -39.9 42.95 -39.6 38.95 -37.45 L38.95 -36.85 Q38.85 -33.75 39.35 -30.85 L39.8 -30.2 Q40.15 -28.15 41.45 -26.4 L41.45 -26.1 41.45 -25.75 Q42.1 -24.9 42.3 -23.9 L41.65 -23.55 Q36.6 -22.9 33.55 -19.45 33.4 -18.35 32.6 -17.55 L32.6 -17.25 32.6 -16.95 32.2 -16.3 32.2 -16.0 32.2 -15.65 Q31.9 -14.8 31.25 -14.7 L30.3 -15.45 Q26.6 -19.25 21.6 -20.3 11.45 -22.4 2.7 -17.45 L2.7 -17.65 Q1.65 -19.75 1.45 -22.1 -0.2 -25.45 -3.15 -27.7 L-9.9 -32.6 Q-9.9 -35.25 -7.5 -36.6 L-7.45 -36.95 Q-7.8 -42.15 -9.9 -47.05 L7.05 -46.4 7.15 -46.75 Q7.25 -49.3 7.75 -51.8 10.65 -53.75 10.6 -56.85 6.3 -59.75 1.25 -60.85 0.9 -61.25 0.95 -61.8 L1.15 -68.1 Q1.15 -70.25 0.1 -72.0 -2.2 -75.65 -6.65 -75.7 L-7.3 -76.65 Q-8.25 -80.2 -8.8 -83.85 -8.9 -84.55 -9.45 -84.75 -13.6 -86.45 -15.1 -81.8 -16.3 -81.2 -16.45 -79.9 -16.65 -78.55 -17.3 -77.5 -19.55 -74.05 -23.3 -74.85 -24.85 -76.2 -27.0 -76.1 L-27.75 -76.5 -29.2 -76.35 Q-35.0 -72.95 -40.45 -69.25 -43.95 -76.0 -48.9 -81.6 -53.9 -84.85 -58.8 -88.65 -59.6 -90.3 -58.65 -91.8 -53.45 -92.25 -49.5 -94.95 L-49.5 -95.25 Q-49.65 -99.6 -50.15 -103.8 L-49.5 -104.45 -45.6 -103.8 Q-39.0 -102.05 -37.75 -108.0 -36.8 -112.55 -36.55 -117.4 L-32.2 -117.45 Q-30.0 -116.8 -27.85 -115.8 -21.55 -112.8 -16.35 -115.9 -16.15 -117.0 -16.6 -117.95 L-16.65 -118.05 -7.9 -118.25 50.95 -118.8 55.35 -118.85 58.0 -118.85 Q58.25 -116.1 58.0 -113.15 61.1 -111.9 64.3 -111.5 64.8 -111.0 65.45 -110.85 63.85 -105.15 61.25 -99.9 L60.85 -99.25 60.85 -98.95 Q60.75 -97.85 60.95 -96.75 L61.25 -96.55 71.1 -96.9 Q74.45 -97.3 74.3 -100.75 L75.5 -102.2 Q78.6 -98.9 82.85 -99.5" fill="#ffff00" fill-opacity="0.5019608" fill-rule="evenodd" stroke="none"/>
  </g>
</svg>
