<?xml version="1.0" encoding="UTF-8" standalone="no"?>
<svg xmlns:ffdec="https://www.free-decompiler.com/flash" xmlns:xlink="http://www.w3.org/1999/xlink" ffdec:objectType="shape" height="109.15px" width="123.6px" xmlns="http://www.w3.org/2000/svg">
  <g transform="matrix(1.0, 0.0, 0.0, 1.0, 42.5, 133.25)">
    <path d="M10.15 -129.8 Q13.6 -126.35 13.6 -121.45 13.6 -116.55 10.15 -113.1 6.75 -109.7 2.0 -109.65 L2.15 -109.25 -0.75 -109.6 -0.85 -109.65 -0.65 -107.95 -0.4 -106.55 20.85 -107.3 29.45 -108.1 37.75 -109.05 37.9 -110.0 Q38.85 -111.95 40.8 -112.2 44.65 -113.35 46.2 -110.5 47.5 -108.2 45.5 -106.5 43.25 -104.6 40.25 -104.2 L21.0 -102.25 Q10.95 -101.65 0.9 -101.9 L2.55 -98.05 4.4 -94.05 Q6.9 -88.3 10.45 -83.2 L11.6 -81.55 15.45 -76.05 Q19.6 -77.7 23.9 -79.0 33.95 -81.95 43.35 -85.8 L44.0 -86.05 44.2 -86.15 44.3 -86.1 44.6 -86.15 69.4 -84.6 73.2 -84.05 74.75 -87.15 74.75 -87.85 Q75.15 -91.3 78.25 -92.05 82.1 -90.55 80.75 -86.25 80.5 -85.35 79.75 -84.7 L79.15 -84.2 77.75 -81.35 77.6 -80.55 Q76.3 -77.15 72.25 -78.35 L69.2 -78.85 Q57.2 -79.55 45.4 -81.2 44.55 -80.45 43.45 -80.1 L19.85 -72.25 19.45 -72.1 Q21.65 -70.55 23.65 -68.6 L25.45 -67.1 Q32.75 -61.6 38.75 -54.8 42.4 -53.1 39.8 -49.25 37.55 -45.9 33.8 -44.2 29.3 -42.1 24.65 -40.25 18.5 -37.75 13.05 -34.0 L15.75 -32.25 21.45 -28.5 Q23.8 -26.9 21.65 -25.0 19.95 -23.5 17.8 -24.5 11.05 -27.8 5.95 -33.15 5.3 -33.85 5.4 -34.85 5.65 -36.75 7.3 -37.2 9.45 -38.9 11.95 -40.1 17.85 -43.05 24.05 -45.5 29.05 -47.5 33.4 -50.5 L34.75 -51.55 Q25.95 -60.3 15.9 -67.6 13.2 -69.6 11.2 -72.05 L10.9 -72.9 10.65 -73.25 Q3.05 -83.35 -2.1 -94.6 -2.85 -96.2 -3.0 -97.9 L-4.5 -101.6 -5.65 -101.15 -21.55 -97.2 Q-25.15 -96.3 -28.55 -94.9 -31.35 -93.8 -34.05 -92.35 -32.5 -85.65 -39.05 -86.25 -42.3 -86.55 -42.5 -89.7 -42.7 -92.45 -40.8 -94.15 -38.45 -96.3 -35.65 -97.75 -32.85 -99.15 -29.85 -99.8 -22.85 -104.05 -14.5 -104.9 -10.05 -105.35 -6.0 -106.75 L-6.25 -107.95 -7.05 -113.05 -7.05 -113.65 Q-10.0 -116.95 -10.0 -121.45 -10.0 -126.35 -6.55 -129.8 -3.1 -133.25 1.8 -133.25 6.7 -133.25 10.15 -129.8" fill="#000000" fill-rule="evenodd" stroke="none"/>
  </g>
</svg>
