<?xml version="1.0" encoding="UTF-8" standalone="no"?>
<svg xmlns:ffdec="https://www.free-decompiler.com/flash" xmlns:xlink="http://www.w3.org/1999/xlink" ffdec:objectType="shape" height="131.35px" width="153.8px" xmlns="http://www.w3.org/2000/svg">
  <g transform="matrix(1.0, 0.0, 0.0, 1.0, 58.2, 145.75)">
    <path d="M90.9 -101.45 Q93.45 -98.85 95.2 -95.3 L95.2 -95.0 95.2 -94.7 Q95.7 -94.25 95.55 -93.75 L95.35 -93.35 95.2 -93.0 93.95 -92.45 93.4 -92.25 92.85 -92.05 92.55 -91.9 92.2 -91.75 91.8 -91.5 Q88.05 -89.45 85.15 -86.05 L84.95 -85.85 84.9 -85.55 84.85 -85.25 84.75 -83.0 84.85 -82.9 Q87.55 -80.3 88.0 -77.2 L87.15 -76.5 85.4 -74.35 Q82.75 -72.6 80.65 -70.25 L80.55 -69.8 80.0 -68.5 78.65 -65.45 Q77.65 -60.95 77.4 -56.15 L77.3 -56.1 76.6 -56.05 73.45 -55.95 Q70.15 -56.0 67.6 -53.55 L67.75 -52.6 66.85 -52.7 64.85 -50.15 64.2 -49.35 64.1 -49.2 64.05 -48.9 63.95 -48.75 63.8 -48.45 63.4 -48.25 62.85 -48.25 61.75 -49.0 61.55 -49.1 61.25 -48.9 60.55 -48.9 58.35 -49.25 56.15 -49.65 55.45 -49.4 54.6 -48.7 55.05 -47.75 55.05 -47.7 55.05 -47.45 55.05 -47.15 55.7 -46.2 55.7 -45.8 55.55 -44.85 54.65 -44.1 Q51.95 -41.65 50.1 -38.55 L50.1 -38.25 50.2 -35.7 50.55 -35.1 50.55 -34.8 50.6 -33.5 50.25 -32.4 Q49.85 -32.0 49.3 -32.05 L46.7 -32.1 Q45.0 -32.15 43.3 -31.5 L40.65 -30.25 40.5 -29.7 Q39.8 -27.05 39.55 -24.45 L39.65 -24.0 39.7 -23.8 Q39.55 -22.0 40.1 -20.55 L40.05 -20.3 39.95 -20.0 Q40.25 -19.3 40.15 -18.55 L39.85 -18.35 39.6 -18.3 Q35.25 -18.8 32.4 -17.2 32.2 -16.6 31.45 -16.2 L31.45 -16.15 31.45 -16.05 31.45 -15.9 31.45 -15.85 31.4 -15.85 31.0 -15.6 31.0 -15.5 30.95 -15.3 30.85 -15.1 Q30.45 -14.45 29.8 -14.4 L28.85 -15.0 Q24.8 -18.05 19.8 -18.9 L19.25 -18.95 18.8 -19.2 Q15.25 -20.95 12.25 -21.5 L5.05 -21.15 5.0 -21.35 4.6 -21.9 4.35 -22.85 4.2 -23.8 4.25 -24.5 4.25 -25.55 4.1 -26.6 Q3.7 -28.75 2.3 -30.6 L0.95 -32.6 -3.15 -35.8 -3.2 -36.35 Q-2.75 -38.45 -0.7 -39.7 L-0.6 -40.0 -0.35 -41.7 -0.4 -42.4 -0.45 -43.05 Q-1.65 -46.2 -3.45 -49.1 L-0.05 -49.2 0.8 -49.45 5.6 -50.95 7.1 -51.35 7.05 -51.65 6.8 -52.45 6.2 -55.45 Q7.6 -56.95 6.8 -59.3 L5.2 -60.05 4.35 -61.0 Q2.25 -63.0 -0.25 -64.45 L-0.45 -65.4 -0.3 -67.6 -0.45 -68.15 -1.25 -70.8 Q-1.75 -72.4 -3.05 -73.65 -4.4 -74.95 -6.2 -75.55 L-6.7 -75.95 -7.3 -76.4 -8.75 -77.05 -9.15 -78.0 -9.45 -85.0 Q-9.5 -85.65 -9.85 -85.9 -11.05 -86.85 -11.85 -86.85 L-12.2 -86.8 -12.9 -86.6 -13.4 -86.15 -13.9 -85.55 -14.3 -84.95 -14.65 -84.35 Q-15.75 -83.7 -16.15 -82.55 -16.6 -81.4 -17.4 -80.55 L-18.1 -79.9 Q-20.45 -78.2 -23.4 -77.9 L-23.55 -77.95 -23.7 -78.05 -23.95 -78.1 -24.4 -78.2 -24.6 -78.2 -24.85 -78.2 -25.55 -78.15 -26.6 -78.0 -26.85 -78.0 -27.25 -78.15 Q-27.95 -78.15 -28.5 -77.7 L-39.25 -70.0 -41.35 -71.9 -41.7 -72.3 -41.8 -72.45 -41.9 -72.7 -42.05 -73.0 -42.25 -73.3 -42.85 -74.15 -43.0 -74.35 -43.15 -74.7 -43.5 -75.2 -44.15 -76.05 -44.3 -76.3 -44.4 -76.5 -44.55 -76.75 -47.9 -81.15 -48.2 -81.4 -48.95 -81.9 -57.2 -85.65 -58.0 -86.3 Q-58.5 -87.9 -57.7 -89.45 L-57.25 -89.6 Q-53.3 -91.15 -50.05 -94.1 L-50.0 -94.4 -49.75 -98.65 -49.95 -100.45 -50.45 -102.75 -50.1 -103.4 Q-49.05 -103.6 -48.25 -103.4 L-47.95 -103.4 Q-43.25 -102.85 -40.75 -105.6 -40.05 -106.35 -39.6 -107.4 L-39.2 -108.15 Q-27.65 -107.65 -16.05 -108.2 L-4.85 -108.6 31.15 -109.4 37.85 -109.7 61.6 -111.2 61.5 -110.95 60.65 -108.2 60.35 -107.5 60.35 -107.2 60.5 -105.0 60.75 -104.8 Q63.9 -103.65 67.05 -103.0 L68.95 -103.05 Q70.65 -103.25 71.5 -104.45 L71.9 -105.15 71.9 -105.7 72.8 -106.3 Q73.95 -104.5 75.45 -103.4 L78.25 -103.2 79.05 -103.4 81.65 -106.6 Q83.75 -109.4 86.3 -110.9 L86.6 -110.5 Q88.65 -107.5 90.3 -104.25 L90.4 -102.95 90.95 -102.05 90.9 -101.75 90.9 -101.45 M24.45 -124.9 L25.15 -123.25 Q27.05 -122.15 29.3 -122.8 L29.35 -122.8 30.5 -122.75 36.45 -123.05 39.85 -124.15 41.2 -123.15 41.25 -123.0 41.3 -122.9 Q42.25 -121.3 43.5 -120.3 L43.7 -120.05 Q44.7 -119.1 46.2 -118.9 L47.05 -119.25 47.6 -119.75 48.25 -120.5 48.4 -120.8 48.8 -121.3 48.95 -121.6 49.15 -121.95 Q51.05 -124.8 53.3 -127.25 L54.25 -128.2 54.9 -127.75 55.3 -127.0 56.1 -125.55 Q57.1 -123.3 57.15 -120.65 L60.75 -120.7 62.4 -120.0 63.35 -119.25 62.85 -116.3 44.85 -115.2 32.0 -114.6 -4.25 -113.8 Q-9.25 -113.65 -14.35 -113.65 -25.5 -113.55 -36.65 -113.8 L-37.35 -113.8 -37.35 -114.3 -37.3 -114.75 -37.2 -115.5 -37.2 -116.45 -37.2 -116.75 -36.2 -116.95 -35.55 -117.0 -34.9 -117.0 Q-32.0 -116.45 -29.25 -115.5 -23.2 -113.25 -18.0 -115.55 L-17.7 -115.75 -17.65 -116.15 -17.65 -116.8 -17.85 -117.4 -18.05 -117.8 -18.05 -117.9 -18.5 -119.05 -19.7 -122.2 -21.5 -129.3 -21.45 -129.3 -20.7 -129.5 Q-18.95 -129.9 -17.85 -130.75 L-17.6 -130.9 -16.15 -132.25 -15.9 -132.45 -15.75 -132.65 -15.5 -132.95 -15.2 -133.25 -15.05 -133.55 Q-14.25 -133.95 -13.4 -134.6 -12.1 -134.95 -10.95 -135.45 -9.45 -136.1 -8.15 -137.1 L-8.05 -137.3 -7.65 -139.75 Q-7.3 -141.55 -7.55 -143.9 L-7.8 -144.85 -8.1 -145.75 -3.35 -144.35 -2.65 -144.05 -2.05 -143.9 -1.95 -143.85 -0.4 -143.15 1.0 -142.15 Q1.65 -141.65 2.25 -141.85 L8.55 -143.85 9.0 -144.0 9.45 -144.15 10.6 -144.65 14.25 -144.5 Q15.55 -143.65 16.15 -142.4 L18.5 -138.05 18.9 -134.9 26.4 -130.45 25.5 -128.9 24.45 -125.15 24.45 -124.9" fill="#ffff00" fill-opacity="0.5019608" fill-rule="evenodd" stroke="none"/>
  </g>
</svg>
