<?xml version="1.0" encoding="UTF-8" standalone="no"?>
<svg xmlns:ffdec="https://www.free-decompiler.com/flash" xmlns:xlink="http://www.w3.org/1999/xlink" ffdec:objectType="shape" height="110.75px" width="121.35px" xmlns="http://www.w3.org/2000/svg">
  <g transform="matrix(1.0, 0.0, 0.0, 1.0, 44.95, 133.25)">
    <path d="M10.15 -129.8 Q13.6 -126.35 13.6 -121.45 13.6 -116.55 10.15 -113.1 6.75 -109.7 2.0 -109.65 L2.15 -109.25 -0.55 -109.6 -0.55 -109.45 -0.35 -108.25 0.95 -108.05 5.65 -107.3 6.3 -107.25 Q17.75 -107.2 29.25 -107.65 L36.75 -108.55 37.5 -110.3 Q38.25 -111.6 39.55 -111.7 45.6 -111.9 43.65 -106.45 42.8 -104.0 40.25 -103.5 35.1 -102.4 29.9 -102.25 L4.8 -101.65 0.85 -102.05 Q2.05 -97.2 4.0 -92.5 4.55 -91.2 4.7 -89.9 9.65 -80.55 19.5 -76.6 L21.4 -77.45 Q22.4 -77.7 23.2 -78.35 29.85 -83.55 37.05 -88.0 L39.0 -89.05 41.25 -89.8 41.75 -89.6 62.1 -90.25 69.8 -90.7 Q69.85 -91.75 70.2 -92.85 70.7 -94.45 70.45 -96.2 69.85 -100.25 73.25 -101.15 77.05 -99.35 76.25 -94.5 75.95 -92.95 75.95 -91.35 75.85 -88.55 74.25 -87.15 L74.2 -87.1 Q73.6 -85.9 72.2 -85.65 L62.75 -84.75 42.35 -83.95 41.65 -84.0 41.4 -83.85 Q32.3 -78.3 24.0 -72.05 L24.0 -72.0 Q26.05 -70.45 27.7 -68.15 32.2 -61.9 36.95 -55.85 L39.7 -51.7 Q40.35 -50.55 39.35 -49.6 38.45 -48.7 37.55 -48.5 L34.7 -46.15 Q29.75 -42.55 24.95 -38.8 22.1 -36.6 19.15 -34.7 L22.55 -31.65 25.0 -29.45 Q27.4 -27.6 27.6 -24.8 27.7 -22.9 25.85 -22.6 22.95 -22.1 21.35 -24.5 L19.35 -26.6 Q16.0 -29.2 13.65 -32.4 11.8 -33.5 12.25 -34.9 L12.35 -35.4 Q12.9 -36.55 13.85 -36.95 22.95 -44.9 32.7 -52.0 28.8 -56.6 25.45 -61.65 22.8 -65.6 19.05 -68.6 L17.35 -70.3 Q16.55 -71.25 16.45 -72.0 7.15 -76.15 1.45 -84.95 -0.85 -88.5 -2.05 -92.55 L-3.35 -96.5 Q-4.25 -99.1 -4.8 -101.8 L-8.2 -101.15 Q-11.1 -100.75 -13.75 -99.5 -21.15 -96.0 -29.3 -94.3 -31.85 -93.75 -33.95 -92.2 -33.15 -88.6 -37.2 -87.05 -41.25 -85.5 -44.1 -88.45 -45.0 -89.35 -44.95 -90.75 -44.85 -95.25 -39.9 -96.5 L-36.9 -97.35 Q-24.4 -101.35 -12.0 -106.0 -8.8 -107.2 -5.55 -107.45 L-5.6 -107.8 Q-7.0 -110.25 -6.8 -112.6 L-7.0 -112.65 -7.05 -113.05 -7.05 -113.65 Q-10.0 -116.95 -10.0 -121.45 -10.0 -126.35 -6.55 -129.8 -3.1 -133.25 1.8 -133.25 6.7 -133.25 10.15 -129.8" fill="#000000" fill-rule="evenodd" stroke="none"/>
  </g>
</svg>
