<?xml version="1.0" encoding="UTF-8" standalone="no"?>
<svg xmlns:ffdec="https://www.free-decompiler.com/flash" xmlns:xlink="http://www.w3.org/1999/xlink" ffdec:objectType="shape" height="132.2px" width="147.8px" xmlns="http://www.w3.org/2000/svg">
  <g transform="matrix(1.0, 0.0, 0.0, 1.0, 57.3, 145.25)">
    <path d="M83.05 -114.5 Q85.7 -113.5 88.3 -112.1 L88.35 -110.75 88.6 -109.85 88.55 -109.55 88.5 -109.25 89.05 -107.85 75.8 -107.9 77.95 -110.4 Q80.15 -113.0 82.65 -114.65 L83.05 -114.5 M88.55 -99.05 L88.1 -98.8 87.85 -98.6 87.65 -98.4 87.35 -98.15 Q84.05 -95.5 81.45 -91.9 L81.25 -91.7 81.15 -91.4 81.05 -91.15 Q80.7 -90.0 80.9 -88.85 L80.95 -88.75 Q83.85 -86.55 85.3 -84.15 L85.35 -83.55 85.55 -81.5 Q82.85 -79.95 80.6 -77.8 L80.4 -77.4 79.45 -76.5 77.1 -74.8 Q75.35 -70.7 74.4 -66.0 L74.35 -65.95 73.65 -65.95 70.55 -66.3 Q67.1 -67.2 64.7 -64.15 L64.2 -63.4 Q63.2 -62.1 62.6 -60.6 L62.05 -59.9 61.9 -59.65 61.8 -59.4 61.6 -59.25 61.35 -59.1 60.9 -59.0 60.4 -59.1 59.25 -59.75 53.05 -59.9 52.4 -59.0 52.4 -58.9 52.3 -58.55 52.2 -58.2 52.05 -57.95 52.4 -57.9 53.5 -57.95 Q54.65 -57.5 55.65 -56.85 56.75 -57.15 58.0 -56.85 L60.8 -56.0 60.9 -56.05 60.9 -56.1 61.15 -56.25 64.1 -55.9 64.4 -55.9 64.75 -56.0 Q65.5 -56.35 64.3 -55.05 L64.2 -55.0 64.0 -55.15 62.1 -55.6 62.25 -55.5 62.35 -55.5 62.3 -55.45 62.25 -55.5 60.95 -55.65 59.75 -55.55 58.6 -55.6 58.0 -55.8 55.95 -56.65 55.65 -56.85 55.45 -56.8 Q54.8 -56.1 54.4 -55.2 L54.35 -54.85 54.3 -54.55 54.25 -54.25 Q54.75 -51.8 55.5 -49.8 L55.4 -49.65 54.75 -48.25 54.6 -47.9 54.65 -47.5 Q54.95 -46.25 55.55 -45.2 L55.75 -44.55 55.85 -43.95 Q55.0 -42.3 55.15 -40.2 L55.15 -40.15 55.15 -39.9 55.15 -39.6 55.55 -38.55 55.55 -38.2 55.45 -37.2 54.9 -36.25 Q53.1 -33.35 52.0 -30.0 L52.0 -29.7 52.2 -27.15 52.45 -26.5 52.5 -26.2 52.6 -24.95 51.8 -24.35 50.8 -24.25 48.35 -24.7 Q46.65 -25.05 44.9 -24.3 L42.3 -23.05 42.05 -22.6 Q40.7 -20.35 39.7 -18.0 L39.65 -17.65 39.6 -17.45 Q38.95 -15.85 38.8 -14.65 L38.65 -14.45 38.5 -14.25 38.05 -13.15 37.7 -13.05 37.5 -13.1 Q33.9 -14.7 31.3 -14.9 L30.3 -14.85 30.3 -14.8 30.25 -14.85 29.8 -14.8 29.8 -14.75 29.65 -14.65 29.45 -14.5 Q29.0 -14.15 28.4 -14.15 L27.4 -14.6 Q23.0 -16.85 18.0 -17.45 L17.4 -17.5 17.1 -17.85 13.1 -22.5 Q11.5 -24.8 7.35 -24.9 L7.25 -25.05 6.8 -25.5 6.65 -26.45 6.7 -27.45 6.85 -28.0 7.1 -29.05 Q7.15 -29.55 7.35 -29.9 8.05 -31.65 7.8 -33.55 L7.45 -35.7 3.6 -39.0 3.4 -39.55 Q4.2 -41.5 6.05 -42.75 L6.3 -43.1 6.9 -44.55 6.95 -45.2 6.95 -45.9 Q5.25 -48.7 3.0 -51.1 L3.15 -51.95 3.7 -52.5 7.05 -55.6 7.1 -56.3 6.9 -56.5 6.35 -57.05 4.7 -59.1 Q4.6 -60.15 3.0 -61.75 L1.3 -62.3 0.9 -63.45 Q-0.2 -65.95 -1.7 -68.1 L-1.8 -68.95 -1.65 -71.2 -1.95 -71.7 -3.65 -73.5 Q-4.65 -74.55 -6.15 -75.25 -7.75 -76.05 -9.6 -76.3 L-9.85 -76.8 -10.2 -77.35 -10.85 -78.4 -10.95 -79.3 -10.15 -86.15 -10.25 -87.1 -11.2 -88.7 -11.5 -88.75 -12.2 -88.8 -12.8 -88.4 -13.25 -87.9 -13.8 -87.45 -14.15 -86.9 -15.85 -85.25 Q-16.55 -84.25 -17.55 -83.65 L-18.35 -83.15 -23.5 -80.95 -23.6 -80.9 -23.7 -80.85 -23.9 -80.8 -24.3 -80.75 -24.45 -80.65 -24.65 -80.55 -25.3 -80.25 -26.15 -79.85 -26.4 -79.8 -26.75 -79.75 Q-27.35 -79.6 -27.85 -79.1 -32.6 -74.55 -38.05 -70.75 L-40.5 -71.4 -40.85 -71.65 -40.95 -71.8 -41.0 -72.05 -41.15 -72.35 -41.4 -72.65 -42.1 -73.55 -42.2 -73.8 -42.3 -74.1 -42.7 -74.65 -43.35 -75.55 -43.45 -75.8 -43.55 -76.05 -43.65 -76.3 -46.9 -80.7 -47.15 -81.0 -48.0 -81.55 Q-52.45 -82.85 -56.7 -83.5 L-57.25 -83.9 Q-57.45 -85.55 -56.75 -87.05 L-56.4 -87.4 Q-53.35 -89.9 -50.6 -93.3 L-50.55 -93.6 -49.8 -97.7 Q-49.75 -98.65 -50.0 -99.5 L-50.05 -99.8 -29.9 -100.2 -28.75 -100.25 -16.9 -100.8 4.2 -101.6 19.45 -101.85 64.85 -102.35 66.55 -102.35 90.4 -102.55 90.4 -102.45 90.35 -102.15 90.35 -101.85 Q90.6 -101.45 90.45 -100.95 L90.25 -100.45 90.1 -100.1 89.05 -99.3 88.55 -99.05 M26.05 -124.7 L27.2 -123.65 31.35 -123.45 31.4 -123.4 32.3 -122.9 Q34.45 -121.45 37.8 -121.8 39.3 -122.8 41.0 -123.35 L42.5 -122.9 42.55 -122.8 42.6 -122.7 44.8 -120.05 44.95 -119.8 Q45.75 -118.55 47.15 -118.15 L48.05 -118.25 48.6 -118.65 49.2 -119.35 49.3 -119.75 49.55 -120.35 49.6 -120.65 49.65 -120.95 52.75 -126.9 53.45 -128.0 53.9 -128.1 54.25 -128.1 54.9 -128.2 56.3 -128.1 59.25 -129.6 60.5 -128.5 61.25 -127.65 Q61.15 -123.45 60.5 -119.3 L60.05 -116.5 59.9 -115.8 59.9 -115.5 60.1 -113.3 60.25 -113.05 64.9 -109.25 66.8 -109.2 Q68.35 -109.4 69.3 -110.7 L69.6 -110.7 69.55 -110.65 70.05 -110.4 Q70.6 -109.05 71.3 -107.9 L66.95 -107.9 65.25 -107.75 20.6 -107.45 19.45 -107.4 -5.9 -106.25 Q-17.45 -105.75 -29.0 -105.6 L-43.2 -105.25 -42.95 -105.4 -41.45 -106.8 Q-39.5 -108.85 -38.1 -111.45 L-38.0 -112.15 -38.0 -112.8 -37.9 -113.2 -37.75 -113.9 -37.85 -114.85 -37.9 -115.2 -37.35 -115.8 -36.85 -116.05 -36.35 -116.3 -30.6 -115.15 Q-24.6 -113.65 -19.25 -115.35 L-19.05 -115.6 -19.0 -116.0 -19.0 -116.6 -19.25 -117.25 -19.45 -117.7 -19.5 -117.8 -19.8 -118.95 -20.6 -122.25 Q-20.7 -126.25 -19.7 -128.8 L-19.65 -128.8 -19.05 -129.1 Q-17.35 -129.75 -16.75 -130.9 L-16.7 -131.1 -16.3 -132.65 -16.15 -132.9 -16.05 -133.1 -15.9 -133.4 -15.85 -133.7 -15.9 -134.1 -15.3 -135.55 -12.75 -136.15 Q-11.2 -136.5 -9.8 -137.1 L-9.6 -137.25 -8.2 -138.75 Q-7.05 -139.8 -6.6 -142.15 L-6.8 -143.05 -6.95 -143.95 Q-5.5 -144.7 -3.15 -145.25 L-2.5 -145.2 -1.9 -145.25 -1.8 -145.25 -0.2 -144.8 1.2 -143.65 Q1.8 -143.15 2.35 -143.15 L8.4 -142.4 8.8 -142.3 9.25 -142.25 10.45 -142.55 14.15 -142.4 Q15.5 -141.85 16.45 -141.1 L19.95 -138.7 20.3 -135.5 25.3 -129.25 24.7 -127.5 25.9 -124.9 26.05 -124.7" fill="#ffff00" fill-opacity="0.5019608" fill-rule="evenodd" stroke="none"/>
  </g>
</svg>
