<?xml version="1.0" encoding="UTF-8" standalone="no"?>
<svg xmlns:ffdec="https://www.free-decompiler.com/flash" xmlns:xlink="http://www.w3.org/1999/xlink" ffdec:objectType="shape" height="110.75px" width="118.15px" xmlns="http://www.w3.org/2000/svg">
  <g transform="matrix(1.0, 0.0, 0.0, 1.0, 45.95, 133.25)">
    <path d="M10.15 -129.8 Q13.6 -126.35 13.6 -121.45 13.6 -116.55 10.15 -113.1 6.75 -109.7 2.0 -109.65 L2.15 -109.25 -0.75 -109.6 -0.8 -109.6 -0.9 -109.65 -0.4 -107.4 Q6.35 -107.95 13.05 -107.5 23.8 -106.8 34.4 -108.1 34.3 -108.95 34.7 -109.65 35.8 -111.8 37.9 -112.1 45.45 -112.85 43.6 -105.9 43.25 -104.45 41.75 -104.05 36.8 -102.6 31.55 -102.55 L6.5 -102.15 0.95 -102.15 Q2.2 -97.65 3.9 -93.25 7.05 -84.9 13.65 -78.85 L18.95 -75.95 Q19.9 -77.75 22.3 -78.65 24.15 -79.4 25.55 -80.85 L29.25 -84.3 Q34.3 -88.3 39.7 -91.25 L40.1 -91.8 Q42.35 -94.0 45.65 -94.3 L50.4 -95.25 Q55.2 -96.8 60.2 -97.4 L66.35 -98.35 64.25 -106.45 Q63.45 -109.0 65.9 -109.85 L66.55 -110.0 Q68.8 -109.7 69.15 -107.5 L69.15 -107.15 Q71.8 -102.2 72.2 -96.4 72.3 -94.6 71.4 -94.0 70.85 -93.35 69.9 -93.3 57.6 -92.1 45.95 -88.2 L43.9 -87.8 43.05 -87.0 Q37.55 -83.45 32.5 -79.3 L25.2 -73.35 23.9 -72.45 Q25.1 -71.45 26.1 -70.05 26.7 -69.25 27.5 -68.6 35.7 -62.2 42.3 -54.45 L43.3 -53.25 43.4 -52.7 Q43.4 -51.4 41.65 -49.8 L24.05 -33.35 Q27.5 -31.3 30.6 -28.5 32.2 -27.1 32.55 -25.05 32.95 -23.0 30.9 -22.6 28.05 -22.1 26.05 -24.55 24.45 -26.5 22.2 -27.65 19.45 -29.0 17.75 -31.2 16.45 -31.7 16.6 -33.05 16.1 -34.2 17.15 -35.15 L17.45 -35.35 Q18.0 -36.35 19.0 -37.15 23.9 -41.1 28.55 -45.35 L36.85 -52.8 Q32.95 -57.25 28.1 -60.65 23.1 -64.15 19.35 -68.95 17.7 -69.85 17.3 -70.85 L16.4 -71.25 Q2.4 -78.4 -2.25 -93.55 L-4.45 -101.15 Q-16.2 -100.45 -27.0 -95.7 L-31.5 -93.75 -33.3 -92.85 Q-33.15 -89.15 -37.25 -88.0 -42.15 -86.65 -45.15 -90.3 -47.05 -92.65 -44.5 -94.25 -41.7 -96.0 -38.55 -97.1 L-18.0 -104.25 Q-13.45 -105.85 -8.65 -106.25 L-6.2 -106.5 Q-7.4 -110.05 -7.15 -113.75 -10.0 -117.0 -10.0 -121.45 -10.0 -126.35 -6.55 -129.8 -3.1 -133.25 1.8 -133.25 6.7 -133.25 10.15 -129.8" fill="#000000" fill-rule="evenodd" stroke="none"/>
  </g>
</svg>
