<?xml version="1.0" encoding="UTF-8" standalone="no"?>
<svg xmlns:ffdec="https://www.free-decompiler.com/flash" xmlns:xlink="http://www.w3.org/1999/xlink" ffdec:objectType="shape" height="138.9px" width="142.8px" xmlns="http://www.w3.org/2000/svg">
  <g transform="matrix(1.0, 0.0, 0.0, 1.0, 56.45, 146.65)">
    <path d="M86.25 -118.55 L86.3 -117.7 86.2 -117.4 86.15 -117.1 85.55 -109.65 85.5 -109.35 85.45 -109.05 85.3 -108.15 85.1 -107.6 84.95 -107.25 84.2 -106.2 83.75 -105.9 83.3 -105.6 83.2 -105.35 83.05 -105.1 82.85 -104.8 Q80.1 -101.7 77.95 -98.05 L66.55 -97.4 Q55.4 -96.75 44.2 -97.05 L40.7 -97.0 22.3 -96.4 20.1 -96.35 -50.1 -95.9 -49.85 -96.8 Q-49.75 -97.75 -50.05 -98.6 L-51.05 -100.7 -51.3 -101.25 Q-51.85 -102.15 -52.95 -102.45 L-52.7 -102.6 -45.2 -105.2 -43.3 -106.2 Q-40.75 -107.7 -38.75 -109.95 L-38.65 -110.65 -38.65 -111.3 -38.5 -111.65 -38.35 -112.35 -38.5 -113.3 -38.55 -113.6 -38.55 -114.7 -38.2 -115.15 -37.85 -115.55 -32.0 -114.85 -20.55 -115.2 -20.4 -115.5 -20.35 -115.85 -20.3 -116.45 -20.65 -117.1 -20.9 -117.55 -21.0 -117.65 -21.15 -118.9 -21.55 -122.25 Q-20.6 -126.3 -17.95 -128.35 L-17.9 -128.35 -17.35 -128.7 Q-15.7 -129.55 -15.7 -131.1 L-15.75 -131.3 -16.45 -133.05 -16.35 -133.3 -16.4 -133.6 -16.35 -133.9 -16.55 -134.2 -16.8 -134.6 Q-17.25 -135.4 -17.2 -136.55 L-14.55 -136.9 -11.4 -137.15 -11.1 -137.15 -8.75 -137.7 Q-6.75 -138.05 -5.7 -140.35 L-5.8 -141.3 -5.85 -142.2 Q-5.05 -144.35 -3.0 -146.2 L-2.4 -146.3 -1.7 -146.6 -1.6 -146.65 0.05 -146.4 1.35 -145.2 2.4 -144.45 8.2 -141.0 8.55 -140.65 Q8.75 -140.4 9.0 -140.4 L10.25 -140.45 14.0 -140.3 16.7 -139.75 21.4 -139.3 21.65 -136.15 24.15 -128.0 23.85 -126.15 Q25.6 -125.35 27.4 -124.65 L27.6 -124.55 29.3 -124.05 33.4 -124.15 33.4 -124.05 34.05 -123.05 Q35.65 -120.35 39.1 -120.6 40.45 -121.85 42.1 -122.55 L43.85 -122.7 43.85 -122.65 43.95 -122.55 46.15 -119.85 46.2 -119.6 Q46.75 -118.05 48.1 -117.45 L49.05 -117.3 49.55 -117.6 50.15 -118.25 50.2 -118.75 50.35 -119.35 50.25 -119.65 50.2 -120.0 52.15 -126.6 52.6 -127.85 52.9 -128.45 53.15 -129.25 53.65 -130.85 Q54.4 -133.4 55.4 -135.6 L57.7 -138.5 58.6 -137.0 59.1 -136.1 Q59.6 -131.9 59.5 -127.7 L59.4 -124.85 59.4 -124.05 59.4 -123.75 59.65 -121.55 59.7 -121.3 62.7 -115.55 64.6 -115.4 Q66.05 -115.6 67.1 -116.9 L67.25 -116.3 67.15 -115.65 67.35 -114.55 Q67.65 -112.5 68.3 -110.65 L70.8 -110.7 71.45 -111.25 74.2 -114.25 Q76.5 -116.65 79.05 -118.4 L79.45 -118.55 86.35 -119.9 86.25 -118.55 M67.6 -76.6 Q64.1 -78.45 61.9 -74.95 L61.6 -74.1 Q60.65 -72.7 60.4 -71.1 L59.85 -70.4 59.65 -70.1 59.5 -69.9 59.25 -69.8 58.95 -69.8 58.4 -69.8 57.9 -69.9 56.7 -70.45 Q53.25 -72.05 50.6 -70.45 L50.3 -69.35 50.3 -69.2 50.25 -68.75 50.15 -68.4 50.05 -68.0 50.05 -67.95 50.35 -66.75 51.55 -66.15 53.5 -64.1 55.4 -62.75 Q55.7 -62.5 55.95 -62.3 L57.1 -61.4 58.4 -60.35 59.6 -59.1 Q59.5 -58.7 59.1 -58.75 57.75 -59.0 56.95 -58.25 56.05 -58.15 54.95 -57.55 L54.85 -57.1 54.85 -56.85 54.9 -56.7 54.95 -56.65 55.45 -55.9 55.65 -55.75 55.9 -55.6 56.65 -54.75 59.45 -52.75 59.85 -52.35 60.25 -52.05 Q61.6 -50.9 62.0 -49.0 L62.25 -48.55 62.15 -48.65 59.3 -48.8 58.75 -48.8 55.8 -49.25 53.25 -49.15 Q52.45 -48.6 51.9 -47.7 L51.9 -47.35 51.85 -47.05 51.85 -46.75 Q52.85 -44.35 54.3 -42.75 L54.9 -42.35 Q55.35 -41.2 56.15 -40.2 L56.2 -39.8 56.35 -39.35 Q56.85 -38.15 57.75 -37.25 L57.85 -36.6 57.9 -36.0 Q56.1 -34.75 55.2 -32.6 L55.2 -32.3 55.2 -32.0 55.45 -30.95 55.45 -30.55 55.4 -29.6 55.1 -28.45 Q54.25 -25.0 53.9 -21.4 L53.9 -21.1 54.15 -18.55 54.35 -17.95 54.4 -17.65 54.55 -16.35 53.4 -16.25 52.35 -16.4 Q51.1 -16.75 49.95 -17.25 L46.55 -17.15 44.0 -15.85 43.6 -15.45 39.9 -11.6 39.6 -11.25 39.5 -11.05 37.45 -8.8 37.2 -8.65 37.0 -8.5 35.9 -7.8 35.6 -7.75 35.45 -7.85 30.15 -12.65 29.15 -13.55 29.15 -13.7 29.15 -13.85 28.6 -14.0 28.6 -13.95 28.4 -13.95 28.1 -13.95 26.95 -13.85 25.95 -14.15 Q21.15 -15.7 16.2 -16.05 L15.55 -16.1 15.4 -16.55 Q14.2 -20.3 13.95 -23.45 13.8 -27.3 9.7 -28.6 L9.55 -28.75 8.95 -29.15 8.95 -30.1 9.15 -31.05 9.5 -31.55 9.9 -32.5 10.55 -33.25 Q12.45 -34.6 13.25 -36.45 13.75 -37.5 13.9 -38.75 L10.3 -42.25 10.05 -42.75 Q11.1 -44.55 12.85 -45.85 L13.15 -46.15 14.2 -47.45 14.3 -48.05 14.3 -48.7 Q12.1 -51.2 9.4 -53.15 8.0 -54.15 6.3 -54.75 L6.65 -55.6 8.45 -60.3 Q7.95 -60.95 7.15 -61.25 L6.8 -61.4 5.95 -61.7 3.15 -62.8 -0.8 -64.25 -2.6 -64.55 Q-2.5 -65.2 -2.55 -65.9 -2.7 -68.85 -3.2 -71.7 L-3.2 -72.55 -3.05 -74.85 -3.45 -75.25 -6.05 -76.2 -9.3 -76.9 -13.05 -77.05 -13.05 -77.6 -13.05 -78.35 -12.95 -79.75 -12.8 -80.65 -10.8 -87.3 -10.7 -88.25 -10.5 -90.5 -10.8 -90.65 -11.35 -90.85 19.35 -90.8 42.0 -91.55 64.0 -92.55 80.05 -92.8 82.65 -91.15 83.6 -90.65 85.75 -88.65 Q82.9 -87.25 80.6 -85.3 L80.3 -84.95 78.95 -84.55 75.6 -84.2 Q73.1 -80.45 71.35 -75.85 L71.35 -75.75 70.65 -75.8 Q69.3 -76.6 67.6 -76.6 M-17.65 -86.7 L-18.55 -86.45 Q-21.3 -86.35 -23.65 -84.0 L-23.7 -83.8 -23.75 -83.65 -23.9 -83.45 -24.25 -83.25 -24.35 -83.05 -24.45 -82.85 -25.1 -82.35 -25.75 -81.75 -26.0 -81.55 -26.25 -81.4 -27.15 -80.45 Q-31.4 -75.4 -36.9 -71.55 L-39.6 -70.85 -40.0 -71.0 -40.15 -71.1 -40.15 -71.4 -40.3 -71.75 -40.5 -72.0 -41.3 -72.95 -41.35 -73.2 -41.4 -73.55 -41.85 -74.1 -42.6 -75.05 -42.65 -75.35 -42.65 -75.65 -42.7 -75.9 -45.9 -80.25 -46.15 -80.6 Q-46.55 -81.05 -47.1 -81.15 -51.75 -81.8 -56.2 -81.35 L-56.45 -81.55 -55.8 -84.7 -55.55 -85.15 -51.95 -91.1 -11.75 -90.85 -12.15 -90.7 -12.65 -90.3 -13.25 -90.0 -13.7 -89.45 -15.6 -87.9 Q-16.55 -87.15 -17.65 -86.7" fill="#ffff00" fill-opacity="0.5019608" fill-rule="evenodd" stroke="none"/>
  </g>
</svg>
