<?xml version="1.0" encoding="UTF-8" standalone="no"?>
<svg xmlns:ffdec="https://www.free-decompiler.com/flash" xmlns:xlink="http://www.w3.org/1999/xlink" ffdec:objectType="shape" height="113.15px" width="113.0px" xmlns="http://www.w3.org/2000/svg">
  <g transform="matrix(1.0, 0.0, 0.0, 1.0, 44.2, 133.25)">
    <path d="M10.15 -129.8 Q13.6 -126.35 13.6 -121.45 13.6 -116.55 10.15 -113.1 6.75 -109.7 2.0 -109.65 L2.15 -109.25 -0.75 -109.6 -0.8 -109.6 -1.0 -109.75 -1.3 -109.95 -1.3 -108.6 -1.3 -108.5 0.05 -108.4 3.35 -108.1 Q19.55 -107.6 35.8 -107.8 L36.95 -108.0 Q36.6 -109.9 38.05 -111.1 38.8 -111.7 39.55 -111.7 44.5 -111.05 42.8 -106.45 41.35 -102.55 37.05 -102.45 19.55 -102.2 2.1 -102.6 L0.3 -102.6 Q1.75 -98.9 3.65 -95.25 6.65 -89.5 11.05 -84.85 15.1 -80.65 20.65 -78.65 L22.45 -77.7 28.85 -83.65 Q32.25 -87.1 36.2 -89.5 38.75 -92.85 42.1 -94.45 L43.0 -94.2 Q53.65 -94.3 63.25 -98.0 L63.2 -98.2 Q62.85 -102.9 60.45 -106.9 58.15 -110.8 62.3 -112.1 65.6 -111.65 66.2 -108.3 L66.2 -108.0 Q69.15 -103.0 68.65 -97.7 69.05 -96.75 68.25 -95.15 L68.2 -95.05 68.15 -94.85 67.6 -94.2 Q67.1 -93.7 66.35 -93.35 55.6 -88.65 43.75 -89.5 40.9 -85.9 37.2 -83.05 L32.0 -78.85 29.0 -75.95 Q27.75 -74.5 26.25 -73.4 L27.35 -72.0 Q28.7 -70.05 30.55 -68.55 L40.1 -60.0 Q41.6 -58.6 42.7 -57.0 L42.8 -56.85 Q44.85 -55.2 42.85 -51.75 40.65 -47.95 37.95 -44.35 L30.65 -34.25 28.6 -31.75 29.85 -30.3 Q32.4 -27.1 35.5 -24.4 37.7 -22.55 35.35 -20.9 33.0 -19.2 30.7 -21.05 25.9 -25.0 22.95 -30.1 22.6 -30.65 22.65 -31.45 L22.7 -31.7 Q22.4 -33.3 23.8 -34.9 31.85 -44.05 37.7 -54.6 32.7 -58.45 28.25 -63.15 L25.75 -65.25 Q21.8 -67.9 20.85 -71.75 20.2 -71.9 19.6 -72.35 L17.85 -73.35 14.5 -75.25 Q3.7 -80.95 -0.55 -92.3 -4.1 -97.15 -5.55 -102.5 L-7.0 -102.45 -10.1 -102.1 Q-15.85 -100.25 -21.6 -98.75 L-26.75 -97.55 Q-30.55 -96.75 -34.05 -94.95 -34.75 -90.9 -39.4 -90.25 -45.45 -89.45 -43.85 -95.0 -43.65 -95.75 -42.9 -96.25 -33.15 -103.0 -21.2 -104.45 L-20.4 -104.65 Q-14.05 -107.0 -7.6 -108.35 L-6.5 -108.55 -6.4 -112.45 -7.0 -112.65 -7.05 -113.05 -7.05 -113.65 Q-10.0 -116.95 -10.0 -121.45 -10.0 -126.35 -6.55 -129.8 -3.1 -133.25 1.8 -133.25 6.7 -133.25 10.15 -129.8" fill="#000000" fill-rule="evenodd" stroke="none"/>
  </g>
</svg>
