<?xml version="1.0" encoding="UTF-8" standalone="no"?>
<svg xmlns:ffdec="https://www.free-decompiler.com/flash" xmlns:xlink="http://www.w3.org/1999/xlink" ffdec:objectType="shape" height="145.6px" width="141.6px" xmlns="http://www.w3.org/2000/svg">
  <g transform="matrix(1.0, 0.0, 0.0, 1.0, 55.7, 148.05)">
    <path d="M-33.3 -81.9 L-26.2 -82.25 Q-30.95 -74.85 -38.75 -70.35 L-39.15 -70.35 -39.3 -70.45 -39.3 -70.75 -39.4 -71.1 -39.65 -71.35 -40.55 -72.35 -40.55 -72.65 -40.55 -73.0 -41.05 -73.55 -41.8 -74.55 -41.8 -74.9 -41.8 -75.2 -41.8 -75.5 -45.15 -80.2 Q-45.55 -80.75 -46.15 -80.8 -51.05 -80.8 -55.7 -79.2 L-55.15 -81.25 Q-49.75 -80.75 -44.25 -81.1 L-33.3 -81.9 M48.15 -80.25 L48.15 -79.7 48.3 -75.6 Q50.35 -73.9 51.1 -71.5 54.95 -67.6 56.9 -62.7 56.6 -62.05 55.95 -62.05 51.65 -62.05 49.0 -59.1 L49.05 -58.15 49.1 -57.55 50.85 -55.15 Q55.45 -48.55 60.25 -42.1 L57.3 -41.7 Q55.45 -41.45 53.6 -41.65 50.7 -42.0 49.45 -40.2 L49.45 -39.85 49.45 -39.55 49.45 -39.25 Q51.4 -36.3 54.4 -35.05 55.8 -33.4 57.55 -32.2 58.25 -30.35 59.95 -29.35 L59.95 -28.7 59.95 -28.1 Q57.1 -27.25 55.3 -25.05 L55.35 -20.65 Q55.4 -14.1 56.5 -7.8 53.85 -8.25 51.55 -9.85 L48.15 -10.0 Q43.7 -7.8 39.6 -4.9 36.45 -2.6 33.45 -2.45 L28.0 -12.2 28.0 -12.55 28.0 -12.85 27.4 -13.2 Q20.45 -14.55 13.7 -14.65 L13.7 -15.25 Q13.65 -19.95 14.8 -24.45 16.25 -30.3 11.15 -32.8 L11.25 -33.75 11.6 -34.7 12.1 -35.05 Q12.55 -36.25 13.8 -36.6 18.55 -38.0 20.4 -41.85 18.3 -43.75 16.65 -45.95 18.75 -48.5 21.45 -50.3 L21.65 -50.9 21.7 -51.55 Q16.3 -55.75 9.5 -57.55 L9.55 -58.7 9.9 -65.0 Q8.1 -66.3 5.5 -66.35 L-6.5 -66.8 -6.0 -68.35 Q-4.8 -73.35 -4.4 -78.45 L-4.95 -78.8 Q-10.7 -79.25 -16.5 -77.8 L-16.25 -78.45 -15.95 -79.3 -14.55 -82.0 0.8 -81.1 Q12.8 -80.45 24.85 -80.4 L48.15 -80.25 M84.35 -127.75 Q84.35 -126.65 83.95 -125.55 L79.3 -113.05 78.9 -112.7 78.55 -112.4 78.5 -112.1 78.45 -111.8 78.35 -111.45 Q76.0 -107.6 74.05 -103.6 L73.45 -102.9 Q72.7 -101.75 73.1 -100.45 77.35 -98.75 81.8 -97.7 84.05 -97.0 85.9 -95.8 82.8 -94.5 80.15 -92.55 76.95 -92.35 74.05 -93.6 70.8 -90.2 68.4 -85.7 L67.65 -85.7 Q66.4 -86.8 64.7 -86.95 61.15 -89.7 59.1 -85.7 L23.65 -85.8 Q12.25 -85.8 0.8 -86.4 L-12.15 -87.1 -9.85 -92.35 -10.1 -92.6 -10.9 -93.15 -11.55 -92.95 -12.05 -92.65 -12.75 -92.5 Q-15.3 -89.85 -18.8 -89.7 -21.5 -90.35 -23.45 -87.5 L-29.1 -87.25 -32.25 -87.05 -53.65 -86.4 Q-52.05 -91.3 -49.9 -95.9 -49.75 -96.85 -50.1 -97.65 -51.6 -101.0 -55.3 -102.0 -52.0 -104.1 -47.45 -105.0 -42.85 -105.9 -39.4 -108.5 L-39.3 -109.15 -39.3 -109.8 -39.1 -110.1 -38.9 -110.75 -39.15 -111.7 -39.7 -113.55 -39.5 -114.2 -39.3 -114.85 Q-30.25 -114.1 -21.85 -115.05 L-21.7 -115.7 -21.65 -116.3 -22.05 -116.95 -22.45 -117.55 -22.45 -118.8 -22.45 -122.3 Q-20.5 -126.4 -16.15 -127.85 L-15.7 -128.3 Q-14.1 -129.4 -14.6 -131.25 L-14.85 -131.5 -16.6 -133.45 -16.6 -133.75 -16.7 -134.05 -16.8 -134.4 -17.2 -134.7 Q-18.65 -135.8 -19.1 -137.55 L-16.35 -137.6 -9.3 -136.7 Q-6.5 -136.3 -4.8 -138.6 L-4.8 -139.55 Q-4.8 -143.55 -2.8 -147.1 L-2.3 -147.45 -1.45 -148.05 0.25 -148.05 8.0 -139.55 8.3 -138.95 Q8.5 -138.6 8.8 -138.55 15.9 -137.35 22.85 -139.95 L23.0 -136.8 Q22.85 -130.8 23.05 -124.8 29.25 -124.0 35.45 -124.8 L35.8 -123.2 Q36.9 -119.3 40.4 -119.35 42.25 -121.75 45.15 -122.5 L45.25 -122.4 Q46.5 -121.2 47.45 -119.65 L47.45 -119.35 Q47.95 -116.9 50.05 -116.3 L50.55 -116.55 51.1 -117.15 51.1 -117.75 51.1 -118.4 50.9 -118.7 50.7 -119.05 51.6 -126.3 52.45 -133.5 Q53.3 -140.75 56.15 -147.4 57.9 -141.85 58.5 -136.05 59.25 -128.85 60.5 -121.85 62.9 -120.75 64.9 -123.15 L64.95 -121.9 Q64.35 -118.15 64.7 -114.3 65.95 -113.15 67.05 -114.45 74.45 -122.75 84.35 -127.75" fill="#ffff00" fill-opacity="0.5019608" fill-rule="evenodd" stroke="none"/>
  </g>
</svg>
