<?xml version="1.0" encoding="UTF-8" standalone="no"?>
<svg xmlns:ffdec="https://www.free-decompiler.com/flash" xmlns:xlink="http://www.w3.org/1999/xlink" ffdec:objectType="shape" height="111.25px" width="112.2px" xmlns="http://www.w3.org/2000/svg">
  <g transform="matrix(1.0, 0.0, 0.0, 1.0, 45.45, 132.7)">
    <path d="M10.7 -129.25 Q14.15 -125.8 14.15 -120.9 14.15 -116.0 10.7 -112.55 7.3 -109.15 2.55 -109.1 L2.7 -108.7 -0.2 -109.05 -1.6 -109.6 -1.3 -106.95 17.3 -108.1 32.8 -109.1 Q33.75 -109.15 34.4 -109.7 L34.55 -110.3 Q35.2 -112.1 37.05 -112.2 41.35 -113.3 42.6 -109.6 43.3 -107.4 41.5 -105.9 40.0 -104.6 37.9 -104.4 L12.65 -102.4 6.3 -102.15 Q3.05 -102.0 -0.15 -102.15 0.75 -99.2 2.2 -96.35 7.95 -85.1 19.1 -78.95 L20.85 -77.8 32.1 -90.3 Q32.35 -91.35 33.15 -92.4 35.25 -95.15 38.15 -96.85 L38.7 -97.1 38.9 -97.0 40.8 -97.5 Q51.1 -98.85 61.15 -100.75 58.45 -105.65 57.05 -110.95 56.7 -112.2 57.9 -112.95 L59.3 -113.5 Q63.5 -111.05 64.85 -106.0 L65.7 -104.05 Q67.3 -101.2 66.45 -99.0 66.6 -97.75 64.85 -96.2 64.2 -95.6 63.3 -95.45 L40.75 -92.05 40.3 -91.35 Q38.85 -89.25 37.05 -87.85 L37.15 -87.85 25.8 -74.75 27.95 -73.35 27.7 -73.0 Q33.25 -69.1 37.85 -63.9 L38.65 -63.15 Q41.85 -60.95 43.65 -57.8 45.8 -55.85 43.65 -52.35 37.15 -41.75 31.3 -30.65 L31.1 -30.25 Q35.95 -28.5 40.15 -25.45 41.1 -24.75 40.65 -23.65 39.15 -20.3 35.8 -22.05 L26.25 -26.5 Q24.6 -27.15 24.8 -28.8 24.5 -29.9 25.15 -31.25 26.75 -34.6 28.95 -37.55 28.85 -38.45 29.4 -39.1 L30.2 -40.1 35.3 -49.9 38.65 -55.1 38.05 -55.65 28.1 -65.65 24.25 -68.9 24.05 -69.05 20.35 -71.8 20.05 -72.1 Q18.5 -72.1 16.95 -73.1 10.9 -77.1 5.75 -82.2 0.9 -87.05 -2.2 -93.0 -4.55 -97.45 -5.8 -102.2 L-7.5 -102.3 -9.0 -102.25 Q-21.4 -99.65 -33.1 -95.15 L-35.1 -94.65 Q-37.1 -88.7 -43.25 -89.9 L-44.3 -90.6 Q-47.25 -94.7 -42.5 -97.2 -37.65 -99.75 -32.45 -101.5 -25.9 -103.7 -19.25 -105.25 L-12.4 -106.85 -7.55 -108.0 -7.0 -108.15 Q-7.4 -111.15 -7.4 -114.2 -9.45 -117.15 -9.45 -120.9 -9.45 -125.8 -6.0 -129.25 -2.55 -132.7 2.35 -132.7 7.25 -132.7 10.7 -129.25" fill="#000000" fill-rule="evenodd" stroke="none"/>
  </g>
</svg>
