<?xml version="1.0" encoding="UTF-8" standalone="no"?>
<svg xmlns:ffdec="https://www.free-decompiler.com/flash" xmlns:xlink="http://www.w3.org/1999/xlink" ffdec:objectType="shape" height="113.2px" width="114.15px" xmlns="http://www.w3.org/2000/svg">
  <g transform="matrix(1.0, 0.0, 0.0, 1.0, 46.2, 132.15)">
    <path d="M10.15 -128.7 Q13.6 -125.25 13.6 -120.35 13.6 -115.45 10.15 -112.0 6.75 -108.6 2.0 -108.55 L2.15 -108.15 -0.75 -108.5 -0.8 -108.5 -1.0 -108.65 -1.2 -108.75 -1.15 -108.65 -0.85 -108.0 23.55 -108.9 36.95 -110.2 Q37.2 -113.0 40.0 -113.35 L40.0 -113.4 Q44.4 -112.25 42.45 -107.75 41.5 -105.5 38.9 -105.15 26.5 -103.35 13.9 -103.2 7.5 -103.1 1.2 -103.35 L5.55 -92.85 14.55 -79.5 Q16.4 -76.7 19.1 -74.95 L19.3 -75.0 Q23.25 -81.4 29.4 -86.1 33.0 -88.8 35.65 -92.55 35.9 -93.6 36.65 -94.25 37.35 -96.05 39.95 -96.4 50.85 -97.85 61.6 -100.1 62.55 -106.75 62.65 -113.7 62.7 -114.65 63.6 -115.1 L64.85 -115.5 Q68.55 -113.8 67.85 -109.1 67.45 -106.8 67.65 -104.45 68.05 -99.5 65.2 -95.8 64.7 -95.05 63.75 -94.9 L41.1 -90.75 Q40.7 -89.75 39.7 -88.55 35.55 -83.45 30.55 -79.45 26.8 -76.4 23.75 -72.7 32.35 -67.2 38.8 -59.1 L39.55 -58.2 40.55 -57.0 Q42.9 -55.25 40.45 -52.0 L38.1 -48.8 30.95 -38.45 Q28.85 -35.3 27.4 -31.8 31.7 -29.1 35.6 -25.65 37.5 -24.0 38.45 -21.85 39.0 -20.5 37.7 -19.75 34.4 -17.75 31.85 -20.85 L30.4 -22.25 Q26.6 -25.3 23.5 -28.75 L22.3 -29.95 Q21.65 -30.75 21.95 -31.85 23.4 -37.6 26.8 -42.65 L32.25 -50.4 35.5 -54.7 Q28.75 -61.65 21.2 -67.7 L19.65 -69.05 18.55 -69.35 Q11.55 -71.9 8.7 -78.4 0.7 -88.55 -4.0 -100.45 L-4.3 -101.75 Q-10.85 -102.65 -17.35 -101.15 -23.3 -99.7 -28.5 -96.8 L-32.85 -94.3 -34.5 -93.45 Q-35.2 -93.1 -35.7 -92.45 -34.15 -87.35 -39.6 -85.75 -43.3 -84.7 -45.4 -87.3 -46.2 -88.25 -46.2 -89.6 -46.2 -91.05 -45.2 -92.1 -43.15 -95.1 -39.6 -97.05 L-28.25 -103.25 Q-26.05 -104.45 -23.65 -105.05 -15.8 -107.05 -8.0 -107.9 L-6.8 -108.0 Q-7.2 -109.75 -7.25 -111.6 L-7.15 -112.65 Q-10.0 -115.9 -10.0 -120.35 -10.0 -125.25 -6.55 -128.7 -3.1 -132.15 1.8 -132.15 6.7 -132.15 10.15 -128.7" fill="#000000" fill-rule="evenodd" stroke="none"/>
  </g>
</svg>
