<?xml version="1.0" encoding="UTF-8" standalone="no"?>
<svg xmlns:ffdec="https://www.free-decompiler.com/flash" xmlns:xlink="http://www.w3.org/1999/xlink" ffdec:objectType="shape" height="144.35px" width="140.1px" xmlns="http://www.w3.org/2000/svg">
  <g transform="matrix(1.0, 0.0, 0.0, 1.0, 55.95, 145.4)">
    <path d="M84.15 -109.35 L83.35 -108.25 Q81.0 -105.65 79.25 -102.35 L79.05 -101.35 78.75 -99.65 78.9 -98.95 79.1 -98.15 79.25 -97.75 79.3 -97.4 79.4 -97.1 79.5 -96.85 79.65 -96.6 79.8 -96.25 80.4 -89.65 79.85 -89.05 Q79.0 -88.15 78.8 -87.1 L79.15 -86.3 80.05 -85.15 82.65 -82.65 83.0 -82.45 83.55 -82.05 83.45 -82.0 83.5 -81.8 83.7 -81.45 77.95 -80.85 Q75.9 -81.15 73.95 -81.85 L72.3 -82.2 Q71.7 -81.75 71.25 -81.0 69.15 -77.9 67.45 -74.35 L66.95 -74.1 64.85 -73.3 64.15 -73.25 63.5 -73.3 60.6 -73.55 59.85 -73.35 59.45 -73.2 57.9 -72.55 57.45 -72.4 Q57.15 -72.25 56.7 -72.4 L54.8 -73.35 54.2 -73.6 53.35 -73.9 48.3 -73.75 47.7 -73.1 46.8 -72.15 Q46.35 -71.65 46.15 -70.7 L46.15 -70.5 46.45 -70.05 47.3 -68.25 27.35 -68.45 21.45 -68.3 2.1 -67.55 -6.35 -67.45 -6.7 -68.05 Q-6.05 -71.05 -5.85 -74.15 L-6.05 -74.55 -6.15 -74.65 -7.05 -75.1 Q-11.9 -75.7 -16.85 -75.0 L-17.05 -75.3 -17.35 -75.65 -17.6 -76.05 -17.55 -77.55 -16.7 -81.3 -16.75 -81.65 -16.95 -82.0 -18.05 -83.6 -18.3 -83.6 -19.0 -83.7 -19.65 -83.4 -20.15 -83.05 -20.8 -82.75 -21.8 -81.95 Q-22.8 -81.2 -23.9 -80.8 L-26.35 -79.9 -26.6 -79.85 Q-27.8 -80.9 -28.75 -80.95 L-29.75 -80.8 -29.85 -80.75 -29.95 -80.7 -30.1 -80.65 -30.45 -80.7 -30.6 -80.65 -30.7 -80.55 -31.25 -80.35 -32.0 -80.1 -33.8 -79.65 -34.15 -79.65 -34.35 -79.75 -34.85 -79.6 Q-38.75 -77.8 -43.05 -76.3 L-43.55 -76.55 -43.9 -76.9 -43.95 -77.15 -43.95 -77.3 -43.9 -77.55 -43.85 -77.8 -43.85 -77.85 -43.95 -78.15 -44.35 -79.1 -44.3 -79.35 -44.25 -79.65 -44.45 -80.2 -44.45 -80.55 -44.65 -81.15 -44.6 -81.45 -44.55 -81.7 -44.5 -81.95 Q-45.0 -84.0 -45.85 -86.2 L-46.25 -86.7 Q-46.6 -87.05 -47.05 -87.2 L-50.4 -87.45 -55.8 -87.7 -55.95 -87.9 -54.05 -90.7 -51.95 -93.2 -45.95 -99.05 Q-45.45 -99.65 -45.25 -100.2 -44.6 -102.1 -44.85 -103.15 L-45.0 -103.35 -45.25 -103.65 -45.1 -103.9 -44.95 -104.15 -44.25 -107.2 -43.0 -107.55 -37.25 -109.1 -36.0 -109.5 -35.2 -109.8 -34.8 -110.15 -34.5 -110.55 -34.15 -110.75 -33.7 -111.1 -33.4 -111.65 -32.85 -112.8 -32.4 -113.25 -31.95 -113.65 -27.15 -114.55 -26.4 -115.15 -26.05 -115.5 -25.9 -115.8 Q-25.75 -116.15 -25.75 -116.45 L-25.6 -116.7 -25.6 -117.1 -25.25 -117.6 -24.75 -118.3 -23.9 -118.65 -22.75 -119.05 -22.3 -119.1 -21.85 -119.55 -21.55 -119.95 -21.5 -120.35 -21.45 -120.75 -20.95 -121.6 -19.6 -124.1 -18.4 -125.55 -18.25 -125.9 Q-18.35 -127.95 -17.7 -129.4 L-17.7 -129.9 Q-17.45 -131.0 -18.15 -132.5 L-18.4 -132.8 -19.95 -134.7 -20.0 -134.95 -20.1 -135.2 -20.25 -135.55 -20.55 -135.85 Q-21.6 -136.85 -22.2 -138.15 L-22.0 -138.45 -19.4 -138.55 -12.75 -138.0 Q-10.65 -137.75 -8.95 -138.4 L-8.3 -138.65 -7.9 -139.1 -6.0 -141.4 -3.75 -144.1 -3.2 -144.45 -2.45 -145.0 -0.95 -145.4 3.7 -144.85 5.05 -143.45 6.75 -141.6 7.1 -141.05 7.5 -140.65 Q12.4 -137.95 16.6 -136.2 L17.35 -135.8 17.4 -135.7 17.55 -134.95 18.6 -133.4 19.5 -132.35 24.05 -127.2 24.4 -127.2 24.5 -127.0 24.75 -126.8 24.95 -126.65 25.1 -126.5 25.3 -126.25 25.5 -126.1 25.7 -125.95 25.75 -125.55 25.95 -125.25 26.15 -125.1 26.35 -124.95 26.55 -124.8 26.75 -124.5 26.95 -124.0 27.15 -123.85 27.4 -123.7 27.6 -123.55 27.75 -122.8 27.6 -122.05 Q27.7 -121.65 27.9 -121.4 L28.35 -120.95 28.9 -120.6 28.95 -120.45 29.25 -120.15 29.75 -119.75 30.2 -119.65 30.45 -119.6 30.8 -119.55 31.1 -119.6 31.5 -119.8 31.8 -119.8 32.35 -120.0 Q34.5 -121.75 37.05 -122.8 L37.15 -122.8 39.5 -122.25 39.6 -122.2 Q40.55 -121.5 42.3 -121.8 L42.8 -122.15 43.3 -122.7 43.5 -123.15 43.7 -123.7 43.75 -124.0 43.8 -124.3 44.2 -125.15 44.7 -125.3 45.65 -125.65 46.45 -125.95 47.85 -127.05 56.0 -133.5 56.0 -133.45 Q56.35 -132.0 56.15 -130.65 55.6 -126.9 55.4 -122.95 L55.4 -118.8 55.9 -118.2 Q57.15 -117.1 57.85 -116.95 L60.05 -115.65 60.3 -115.7 60.95 -115.6 64.05 -115.4 64.6 -114.4 65.95 -110.7 67.05 -108.55 Q68.15 -107.65 69.2 -108.0 74.05 -109.05 79.9 -111.65 L84.15 -109.9 84.15 -109.35 M46.35 -55.0 L46.1 -54.7 46.05 -54.7 Q45.8 -54.45 45.9 -53.8 L46.4 -52.4 46.95 -50.75 47.85 -48.7 53.1 -39.05 52.4 -38.1 52.15 -37.75 52.0 -37.6 51.7 -37.2 49.15 -36.9 48.8 -36.8 Q46.6 -36.9 45.1 -35.9 L45.0 -35.75 44.9 -35.55 44.8 -35.4 Q44.25 -33.6 44.4 -32.35 L44.3 -31.45 44.6 -30.85 44.9 -30.3 45.6 -29.5 46.9 -27.5 47.7 -26.65 47.85 -26.1 48.0 -25.55 Q47.15 -24.15 46.75 -22.15 L46.55 -22.0 44.65 -19.3 Q43.7 -17.85 43.0 -16.2 L43.05 -15.45 43.1 -14.5 43.0 -14.05 42.95 -13.55 43.15 -10.6 43.4 -8.3 42.35 -7.65 39.65 -8.45 36.4 -8.8 35.9 -8.7 Q34.65 -8.6 33.65 -7.95 31.0 -6.25 28.45 -4.25 25.85 -2.2 23.4 -1.05 L23.25 -1.1 23.0 -1.55 22.4 -2.45 21.3 -4.7 Q19.95 -7.0 18.9 -9.3 L18.4 -9.9 17.95 -10.25 17.8 -10.45 17.7 -10.65 17.15 -10.85 10.65 -11.55 7.9 -14.3 7.15 -14.85 7.15 -15.4 7.45 -18.95 7.9 -24.0 Q8.15 -28.1 5.0 -30.6 L4.8 -31.15 4.55 -31.8 4.85 -32.65 5.3 -33.45 5.8 -33.85 Q6.4 -34.85 7.45 -35.3 L8.15 -35.65 8.7 -36.1 8.95 -36.35 9.85 -36.9 11.15 -37.8 13.0 -39.65 13.75 -40.5 13.45 -44.5 13.9 -45.2 14.2 -46.0 14.15 -48.45 14.0 -48.9 13.8 -49.35 Q10.3 -51.5 6.3 -52.85 L5.45 -55.15 5.9 -56.0 7.25 -58.65 8.0 -60.85 8.0 -61.15 7.85 -61.4 7.7 -61.65 7.55 -61.9 7.4 -62.15 7.0 -62.55 6.95 -62.6 Q17.6 -63.05 28.2 -63.0 L50.8 -62.85 53.75 -58.35 53.8 -58.25 53.5 -57.65 53.4 -57.5 53.25 -57.3 Q49.65 -56.85 46.7 -55.45 L46.35 -55.0" fill="#ffff00" fill-opacity="0.5019608" fill-rule="evenodd" stroke="none"/>
  </g>
</svg>
