<?xml version="1.0" encoding="UTF-8" standalone="no"?>
<svg xmlns:ffdec="https://www.free-decompiler.com/flash" xmlns:xlink="http://www.w3.org/1999/xlink" ffdec:objectType="shape" height="114.3px" width="111.0px" xmlns="http://www.w3.org/2000/svg">
  <g transform="matrix(1.0, 0.0, 0.0, 1.0, 41.35, 131.6)">
    <path d="M10.7 -128.15 Q14.15 -124.7 14.15 -119.8 14.15 -114.9 10.7 -111.45 7.3 -108.05 2.55 -108.0 L2.7 -107.6 -0.2 -107.95 -0.25 -107.95 -0.45 -108.1 -0.6 -108.2 -0.6 -106.95 -0.6 -106.65 Q6.05 -107.45 12.6 -106.4 23.95 -104.55 35.05 -106.85 34.0 -110.75 37.7 -112.35 L38.3 -112.55 Q43.05 -111.8 42.45 -106.85 41.9 -102.35 37.0 -101.35 L30.1 -100.5 6.65 -101.3 0.45 -102.0 Q5.65 -90.9 13.35 -81.0 15.15 -78.65 17.3 -76.65 L17.75 -77.05 Q24.1 -81.25 29.05 -86.9 L31.35 -89.2 Q33.6 -91.2 36.05 -92.3 L36.95 -93.2 Q37.95 -94.05 39.35 -94.35 48.7 -96.15 58.3 -95.6 L63.15 -95.75 63.95 -104.4 Q64.15 -106.85 66.55 -107.05 70.3 -105.25 69.5 -100.35 69.0 -97.2 68.1 -94.2 68.4 -93.1 67.15 -91.45 66.45 -90.5 65.25 -90.5 L42.55 -88.95 39.15 -88.25 39.1 -88.2 36.1 -85.3 Q30.25 -80.75 24.9 -75.6 L21.85 -73.0 22.9 -72.1 Q30.9 -64.75 36.95 -56.0 41.6 -54.45 38.3 -50.35 30.5 -40.65 25.05 -29.5 L27.35 -27.7 32.85 -22.0 Q35.8 -18.6 31.5 -17.4 30.1 -17.05 29.05 -17.95 24.2 -22.25 19.95 -26.8 19.3 -27.1 18.95 -27.85 L18.75 -28.1 Q18.25 -28.65 18.6 -29.45 18.6 -30.55 19.1 -31.6 20.85 -34.85 23.05 -37.8 26.95 -45.25 32.0 -51.9 L32.9 -53.0 Q25.55 -62.15 16.7 -70.1 L15.95 -70.9 14.85 -71.6 Q5.35 -79.95 -0.5 -91.05 L-3.05 -96.55 Q-4.7 -99.1 -5.5 -101.8 L-8.2 -101.15 Q-15.5 -100.2 -22.55 -98.05 -27.55 -96.5 -30.95 -92.45 -31.9 -91.3 -33.0 -90.1 -31.1 -85.0 -36.35 -83.15 -38.95 -82.25 -40.35 -84.3 -42.4 -87.25 -40.25 -90.05 -36.75 -94.65 -32.5 -98.5 -26.25 -104.15 -17.7 -105.25 -12.9 -105.85 -8.45 -107.05 L-6.2 -107.35 -5.75 -110.75 -6.45 -111.0 -6.5 -111.4 -6.5 -112.0 Q-9.45 -115.3 -9.45 -119.8 -9.45 -124.7 -6.0 -128.15 -2.55 -131.6 2.35 -131.6 7.25 -131.6 10.7 -128.15" fill="#000000" fill-rule="evenodd" stroke="none"/>
  </g>
</svg>
