<?xml version="1.0" encoding="UTF-8" standalone="no"?>
<svg xmlns:ffdec="https://www.free-decompiler.com/flash" xmlns:xlink="http://www.w3.org/1999/xlink" ffdec:objectType="shape" height="13.4px" width="42.0px" xmlns="http://www.w3.org/2000/svg">
  <g transform="matrix(1.0, 0.0, 0.0, 1.0, 21.0, 6.7)">
    <path d="M1.75 -1.15 L0.0 -1.0 -1.6 0.05 Q-3.9 1.2 -4.75 3.75 -13.25 9.2 -21.0 4.5 -19.9 -0.55 -12.9 0.3 -10.75 0.55 -9.25 -1.0 -6.4 -3.9 -3.0 -6.0 L-2.45 -6.15 -1.5 -6.35 -1.5 -6.5 Q5.6 -7.7 8.95 -1.45 L9.25 -0.75 Q15.5 -0.7 20.25 2.2 20.75 2.5 21.0 3.25 L20.7 3.95 20.2 4.7 19.5 5.25 Q10.55 8.1 5.05 2.0 L2.0 -1.0 1.75 -1.15" fill="#000000" fill-rule="evenodd" stroke="none"/>
  </g>
</svg>
