<?xml version="1.0" encoding="UTF-8" standalone="no"?>
<svg xmlns:ffdec="https://www.free-decompiler.com/flash" xmlns:xlink="http://www.w3.org/1999/xlink" ffdec:objectType="shape" height="145.4px" width="140.5px" xmlns="http://www.w3.org/2000/svg">
  <g transform="matrix(1.0, 0.0, 0.0, 1.0, 56.1, 145.75)">
    <path d="M84.0 -100.95 L84.05 -100.45 83.0 -99.65 Q80.2 -97.6 78.25 -94.5 L78.15 -93.55 78.05 -91.9 78.45 -91.2 78.9 -90.5 79.25 -90.15 79.5 -89.75 79.8 -89.45 80.0 -89.2 80.2 -89.0 80.5 -88.7 Q82.2 -85.85 83.6 -82.65 L83.05 -82.15 Q82.1 -81.4 81.6 -80.4 L81.35 -79.5 81.85 -78.15 Q82.55 -76.55 83.55 -75.0 L83.85 -74.75 84.4 -74.2 84.25 -74.2 83.8 -74.1 82.55 -74.3 76.85 -75.0 Q74.9 -75.5 73.05 -76.25 L71.45 -76.5 Q70.85 -76.15 70.4 -75.4 L67.0 -68.75 66.6 -68.35 64.9 -66.45 64.4 -66.05 63.8 -66.05 61.0 -66.85 60.2 -67.15 59.7 -67.4 57.8 -68.0 57.3 -68.15 56.55 -68.4 54.75 -69.55 54.15 -69.85 53.3 -70.1 Q50.7 -70.5 48.3 -70.15 L47.5 -69.85 46.15 -69.3 Q45.45 -69.05 45.1 -68.15 L45.1 -67.95 45.25 -67.5 45.85 -65.4 46.9 -64.0 47.55 -63.0 Q49.55 -59.35 52.2 -56.1 L52.2 -56.0 52.15 -55.45 52.15 -55.2 52.1 -54.95 48.6 -54.3 3.85 -54.4 4.05 -54.7 5.95 -56.9 Q6.35 -57.95 7.05 -58.8 L7.25 -59.1 7.15 -59.35 7.1 -59.65 7.1 -59.95 7.2 -60.2 7.0 -60.75 6.85 -61.2 6.35 -61.6 5.4 -62.05 Q0.65 -63.45 -4.3 -64.25 L-5.15 -64.8 -7.5 -66.05 Q-6.75 -68.95 -6.6 -72.05 L-6.7 -72.5 -6.75 -72.55 Q-6.95 -73.1 -7.55 -73.25 L-17.0 -73.6 -17.5 -73.7 -18.1 -73.85 -18.65 -74.0 -18.9 -75.5 -18.6 -79.25 -18.7 -79.6 -19.1 -79.85 -22.15 -79.2 -22.45 -79.15 -23.1 -78.95 -23.7 -78.6 -24.2 -78.25 -24.8 -77.9 -25.85 -77.15 Q-26.85 -76.45 -27.95 -76.05 L-30.15 -75.05 -30.4 -74.95 -31.75 -77.2 -32.8 -77.7 -32.95 -77.8 -33.1 -77.85 -33.25 -77.95 -33.65 -78.15 -33.8 -78.2 -33.95 -78.2 -34.5 -78.35 -35.2 -78.45 -37.25 -78.9 -37.4 -79.4 -37.5 -79.75 -38.05 -79.9 -46.55 -78.4 -46.65 -79.3 -46.45 -80.2 -46.35 -80.6 -46.3 -80.7 -46.25 -80.95 -46.1 -81.25 -46.15 -81.55 -46.25 -82.45 -46.2 -82.7 -46.15 -83.0 -46.15 -83.5 -46.1 -83.9 -46.05 -84.45 -46.0 -84.7 -45.9 -84.95 -45.85 -85.15 Q-45.85 -87.3 -46.45 -89.55 L-46.85 -89.95 -47.55 -90.4 -50.8 -90.9 Q-54.1 -90.8 -55.9 -91.95 L-56.1 -92.3 -53.75 -94.6 -51.15 -96.45 -43.95 -100.65 -42.8 -101.5 -40.1 -103.9 -40.15 -104.15 -40.2 -104.5 -40.15 -104.75 -40.1 -105.0 Q-40.9 -107.05 -41.95 -108.45 L-40.8 -108.8 -35.15 -110.1 -33.9 -110.3 -33.1 -110.5 -32.55 -110.7 -32.1 -110.9 -31.65 -111.05 -31.1 -111.3 -30.55 -111.65 -29.4 -112.45 -28.85 -112.75 -28.25 -113.1 Q-26.0 -113.6 -23.85 -114.55 L-23.45 -115.5 -23.25 -115.95 -23.45 -116.4 Q-23.7 -117.0 -24.1 -117.4 L-24.25 -117.8 -24.65 -118.35 -24.8 -119.1 Q-25.05 -119.45 -24.9 -120.05 L-24.15 -120.55 -23.0 -121.05 -22.5 -121.15 -21.95 -121.45 -21.5 -121.75 -21.2 -122.1 -20.95 -122.4 -20.2 -123.0 -18.2 -125.0 -16.9 -126.3 -16.85 -126.6 -18.5 -130.2 -18.75 -130.7 Q-19.1 -131.8 -19.95 -133.15 L-20.15 -133.45 -21.65 -135.35 -21.75 -135.6 -21.85 -135.8 -22.0 -136.1 -22.25 -136.4 -23.85 -138.8 -23.45 -138.95 -20.95 -139.05 -14.5 -138.65 Q-12.55 -138.45 -10.8 -138.6 L-10.1 -138.7 -9.5 -138.9 Q-8.15 -139.4 -6.9 -140.45 L-4.25 -142.6 -3.7 -143.0 -2.95 -143.45 -1.6 -144.1 Q0.85 -144.75 3.1 -145.75 L4.45 -144.45 6.1 -142.6 6.45 -142.1 6.8 -141.7 Q11.05 -138.15 14.25 -134.65 L14.65 -133.8 14.7 -133.6 14.8 -132.9 16.4 -131.75 Q17.05 -131.35 17.75 -131.1 L24.55 -128.4 24.9 -128.4 24.8 -128.15 24.9 -127.85 24.95 -127.65 25.05 -127.4 24.95 -127.15 25.05 -126.9 25.15 -126.7 24.8 -126.15 24.65 -125.7 24.75 -125.45 24.85 -125.25 24.95 -124.95 24.75 -124.55 24.5 -123.8 24.6 -123.6 24.75 -123.35 24.85 -123.1 23.85 -121.8 23.6 -121.1 23.9 -120.55 Q24.15 -120.3 24.5 -120.25 L25.1 -120.1 25.15 -120.0 25.45 -119.7 26.05 -119.35 26.45 -119.35 26.65 -119.4 27.0 -119.45 27.2 -119.65 27.45 -120.0 27.7 -120.1 28.3 -120.3 33.0 -123.0 33.1 -123.05 35.5 -123.6 35.65 -123.6 Q36.85 -123.85 38.4 -124.6 L38.9 -125.0 39.4 -125.5 39.7 -125.9 40.0 -126.35 40.15 -126.65 40.3 -126.95 40.85 -127.75 41.5 -127.0 42.65 -125.3 43.6 -123.55 45.5 -123.8 Q50.35 -124.8 55.9 -126.55 L55.9 -126.45 Q56.2 -125.0 55.7 -123.75 54.4 -120.2 53.8 -116.4 L53.55 -112.4 54.3 -111.95 Q55.95 -111.35 56.85 -112.15 L59.85 -112.6 60.05 -112.7 60.7 -112.65 Q62.2 -111.85 63.65 -111.5 L64.4 -110.65 66.6 -107.55 68.2 -105.65 Q69.2 -104.9 70.25 -104.75 75.3 -103.9 81.4 -105.85 L84.0 -100.95 M38.7 -30.25 L38.85 -29.65 38.95 -29.05 39.65 -28.2 40.85 -26.25 41.55 -25.35 41.75 -24.8 42.0 -24.25 42.4 -20.55 42.2 -20.45 Q40.65 -19.75 39.3 -18.65 37.9 -17.55 36.75 -16.1 L36.75 -15.4 36.8 -14.45 36.65 -14.05 36.5 -13.65 36.65 -10.8 36.8 -8.6 36.35 -7.3 33.65 -7.8 30.5 -8.25 30.05 -8.25 Q28.75 -8.35 27.8 -7.7 L22.9 -3.95 18.3 -0.35 18.15 -0.4 17.95 -0.85 17.25 -1.8 16.25 -4.0 Q14.95 -6.2 13.95 -8.55 L13.4 -9.05 12.9 -9.25 12.65 -9.45 12.5 -9.55 12.0 -9.7 5.65 -10.25 4.25 -14.15 3.9 -15.0 3.9 -15.5 4.25 -18.95 Q4.6 -21.5 4.45 -23.75 4.25 -27.6 1.1 -30.0 L1.15 -30.65 1.25 -31.35 1.65 -32.1 2.15 -32.8 2.65 -33.3 4.25 -34.7 4.95 -35.05 5.35 -35.65 5.5 -35.9 6.45 -36.5 7.7 -37.4 9.55 -39.05 10.45 -39.8 Q11.5 -41.55 11.85 -43.75 L12.25 -44.45 12.3 -45.3 10.5 -47.55 10.2 -47.95 9.8 -48.25 7.6 -49.35 44.5 -49.0 Q44.7 -48.1 45.05 -47.3 47.2 -42.35 49.5 -37.5 L49.45 -36.25 49.4 -35.75 49.35 -35.6 49.25 -35.05 Q47.95 -35.1 46.9 -34.55 L46.6 -34.4 42.95 -33.8 42.8 -33.7 42.65 -33.6 42.5 -33.45 39.4 -31.05 38.7 -30.25" fill="#ffff00" fill-opacity="0.5019608" fill-rule="evenodd" stroke="none"/>
  </g>
</svg>
