<?xml version="1.0" encoding="UTF-8" standalone="no"?>
<svg xmlns:ffdec="https://www.free-decompiler.com/flash" xmlns:xlink="http://www.w3.org/1999/xlink" ffdec:objectType="shape" height="114.55px" width="109.8px" xmlns="http://www.w3.org/2000/svg">
  <g transform="matrix(1.0, 0.0, 0.0, 1.0, 38.1, 130.5)">
    <path d="M10.7 -127.05 Q14.15 -123.6 14.15 -118.7 14.15 -113.8 10.7 -110.35 8.0 -107.65 4.4 -107.05 8.45 -105.55 12.8 -105.0 18.6 -104.25 24.4 -105.15 L36.1 -108.45 Q35.85 -110.2 37.15 -111.4 38.25 -112.45 39.55 -112.55 45.05 -113.05 43.75 -108.2 43.45 -107.15 42.7 -106.25 39.8 -102.6 34.55 -101.75 L25.15 -100.05 Q17.55 -98.5 10.05 -100.2 L6.95 -100.7 Q4.0 -101.05 1.45 -102.1 L2.1 -100.9 2.9 -99.15 Q7.3 -87.45 13.95 -76.85 L14.9 -75.35 15.15 -75.45 15.2 -75.4 15.6 -75.7 21.15 -79.4 Q28.05 -84.1 33.6 -90.1 35.55 -92.2 38.3 -92.75 L39.6 -92.35 59.8 -93.6 63.3 -93.45 64.2 -96.35 65.5 -100.4 Q66.25 -102.9 68.65 -103.25 73.3 -102.0 70.9 -97.15 69.6 -94.45 68.6 -91.6 68.0 -89.95 67.15 -89.25 66.55 -88.6 65.25 -88.5 L52.2 -87.8 Q45.9 -87.6 39.65 -87.8 L38.3 -86.4 Q31.75 -79.9 24.1 -74.45 L20.25 -71.55 20.35 -71.4 Q27.2 -62.05 34.65 -53.1 36.15 -52.45 36.1 -51.1 36.3 -50.4 35.7 -49.7 L35.1 -48.7 Q33.8 -46.75 31.9 -45.35 28.05 -42.55 25.25 -38.65 22.7 -35.0 19.45 -32.05 L19.45 -31.9 20.95 -29.05 21.15 -28.1 28.05 -19.05 Q28.35 -18.6 28.1 -18.05 26.2 -14.25 22.7 -17.4 16.35 -23.15 14.7 -31.2 13.55 -32.6 15.15 -34.75 19.95 -41.25 25.35 -47.35 27.3 -49.5 29.75 -51.0 22.15 -59.25 15.25 -68.25 13.9 -68.0 12.4 -69.4 11.85 -69.9 11.55 -70.65 8.05 -74.05 6.05 -78.75 L4.65 -81.7 Q0.65 -89.85 -2.95 -98.3 L-4.75 -102.05 -4.9 -102.3 -5.1 -102.3 Q-12.75 -102.25 -19.85 -99.6 -28.6 -96.3 -31.4 -87.8 -27.95 -81.9 -34.65 -79.8 -36.0 -79.35 -36.85 -80.5 -38.95 -83.45 -37.55 -87.2 L-36.05 -90.5 -35.6 -91.15 Q-33.15 -99.05 -25.65 -103.05 -16.95 -107.65 -7.2 -107.5 L-6.45 -107.55 -6.4 -109.9 -6.45 -109.9 -6.5 -110.3 -6.5 -110.9 Q-9.45 -114.2 -9.45 -118.7 -9.45 -123.6 -6.0 -127.05 -2.55 -130.5 2.35 -130.5 7.25 -130.5 10.7 -127.05" fill="#000000" fill-rule="evenodd" stroke="none"/>
  </g>
</svg>
