<?xml version="1.0" encoding="UTF-8" standalone="no"?>
<svg xmlns:ffdec="https://www.free-decompiler.com/flash" xmlns:xlink="http://www.w3.org/1999/xlink" ffdec:objectType="shape" height="147.0px" width="143.1px" xmlns="http://www.w3.org/2000/svg">
  <g transform="matrix(1.0, 0.0, 0.0, 1.0, 56.25, 146.65)">
    <path d="M33.05 -29.05 L33.05 -28.4 33.05 -27.75 34.8 -25.0 38.0 -18.95 Q33.7 -18.55 30.5 -16.0 L30.5 -15.35 30.5 -14.4 30.3 -14.1 30.1 -13.75 30.15 -10.95 Q30.2 -8.85 30.4 -6.95 27.2 -6.95 24.15 -7.75 22.85 -8.1 22.0 -7.45 17.3 -3.95 13.15 0.35 L12.85 -0.2 12.1 -1.15 11.2 -3.3 Q9.9 -5.45 9.05 -7.75 L8.45 -8.15 Q4.2 -9.3 0.6 -8.95 L0.6 -14.0 Q0.6 -16.5 1.05 -18.95 2.15 -25.6 -2.85 -29.45 L-2.55 -30.1 Q-0.85 -32.9 1.75 -34.5 L2.0 -35.15 2.1 -35.45 3.05 -36.05 Q3.75 -36.4 4.3 -36.95 L4.6 -37.2 5.7 -37.3 30.7 -38.9 44.6 -39.4 46.5 -34.4 46.6 -33.8 46.85 -32.85 Q45.35 -32.95 44.4 -32.0 38.25 -31.8 33.05 -29.05 M25.05 -129.3 L25.05 -128.95 25.0 -128.65 24.95 -128.35 24.6 -128.0 24.6 -127.7 24.6 -127.4 23.85 -126.7 23.35 -126.1 23.35 -125.8 23.35 -125.5 23.35 -125.15 22.8 -124.6 22.1 -123.6 22.1 -123.3 22.1 -122.95 22.1 -122.65 Q20.6 -121.6 19.55 -120.2 19.75 -119.45 20.6 -119.55 L21.3 -119.65 21.35 -119.5 21.7 -119.2 22.3 -118.95 22.7 -119.1 22.9 -119.2 23.15 -119.4 23.25 -119.7 23.35 -120.25 23.55 -120.35 Q31.55 -123.85 37.55 -130.35 L38.3 -128.7 Q39.8 -125.05 40.75 -121.15 48.05 -119.5 55.8 -119.6 56.05 -118.1 55.25 -116.85 52.05 -111.8 51.7 -106.0 L52.65 -105.75 Q54.8 -105.65 55.9 -107.4 57.9 -108.45 59.8 -109.7 L60.4 -109.7 67.3 -104.35 71.3 -101.55 Q76.5 -98.75 82.9 -100.1 L83.95 -91.55 Q79.8 -90.1 77.25 -86.65 L77.25 -85.7 77.35 -84.1 78.0 -83.45 78.7 -82.8 Q83.35 -79.6 86.85 -75.6 84.9 -74.55 83.6 -72.75 L83.65 -71.15 Q83.9 -69.25 84.45 -67.35 L84.75 -67.05 85.25 -66.4 84.1 -66.35 Q77.9 -68.1 72.1 -70.7 70.35 -71.45 69.55 -69.75 L64.65 -58.85 64.1 -58.75 61.35 -60.2 54.75 -65.75 53.25 -66.3 45.45 -66.5 Q44.5 -66.5 44.0 -65.6 L44.1 -64.95 44.4 -62.75 Q45.45 -61.8 46.0 -60.55 47.65 -56.8 50.65 -53.9 L50.75 -53.25 50.95 -52.6 Q47.0 -51.7 42.95 -51.9 42.1 -51.9 41.9 -51.15 L41.9 -48.0 Q41.9 -46.9 42.25 -45.9 L42.75 -44.45 22.3 -43.6 10.3 -43.15 10.55 -43.75 Q10.8 -44.35 10.4 -44.6 5.05 -48.05 -1.6 -49.8 1.1 -52.85 4.7 -55.15 5.3 -56.3 6.5 -57.05 L6.5 -57.35 6.5 -57.7 6.7 -58.0 6.95 -58.3 6.95 -58.95 6.95 -59.55 5.75 -60.6 Q-0.95 -63.3 -8.25 -64.1 -7.4 -67.15 -7.35 -70.4 -7.35 -71.2 -8.0 -71.35 L-19.7 -72.0 Q-20.15 -72.7 -20.25 -73.5 -20.55 -75.35 -20.45 -77.25 L-20.7 -77.55 Q-21.1 -77.85 -21.3 -77.75 -25.6 -75.45 -29.85 -72.4 -30.85 -71.7 -31.95 -71.3 -33.3 -70.85 -34.15 -70.0 L-34.8 -73.45 Q-37.3 -76.45 -40.65 -78.2 L-40.65 -79.15 -40.65 -79.8 -41.2 -80.15 -50.05 -80.55 -49.7 -82.05 Q-49.25 -83.45 -48.35 -84.65 L-47.7 -87.25 Q-46.65 -89.85 -47.0 -92.85 -48.7 -94.35 -51.2 -94.35 -54.95 -94.35 -56.25 -96.65 -53.7 -98.85 -50.35 -99.7 -42.65 -101.8 -35.4 -104.65 L-35.3 -104.95 -35.2 -105.6 -35.2 -105.9 Q-37.15 -108.1 -39.7 -109.7 -36.55 -110.9 -33.1 -111.05 L-31.8 -111.1 Q-25.55 -111.35 -20.55 -114.55 L-20.45 -115.8 -20.45 -116.45 -20.95 -117.05 -22.45 -118.35 -22.85 -118.9 -23.7 -119.6 Q-23.85 -120.15 -24.35 -120.55 -25.0 -121.05 -25.1 -121.8 L-24.35 -122.45 -23.25 -123.1 Q-18.55 -124.15 -15.4 -127.05 L-15.45 -127.3 Q-21.65 -132.55 -25.5 -139.4 L-12.6 -138.85 Q-9.9 -138.4 -7.75 -139.45 -2.1 -142.2 2.5 -146.65 L3.9 -145.4 Q9.05 -139.9 11.9 -133.05 L12.0 -131.8 Q11.9 -131.3 12.1 -130.85 13.8 -129.9 16.0 -129.85 L25.35 -129.6 25.05 -129.3" fill="#ffff00" fill-opacity="0.5019608" fill-rule="evenodd" stroke="none"/>
  </g>
</svg>
