<?xml version="1.0" encoding="UTF-8" standalone="no"?>
<svg xmlns:ffdec="https://www.free-decompiler.com/flash" xmlns:xlink="http://www.w3.org/1999/xlink" ffdec:objectType="shape" height="116.35px" width="107.9px" xmlns="http://www.w3.org/2000/svg">
  <g transform="matrix(1.0, 0.0, 0.0, 1.0, 36.15, 129.8)">
    <path d="M11.05 -126.35 Q14.5 -122.9 14.5 -118.0 14.5 -113.1 11.05 -109.65 7.65 -106.25 2.9 -106.2 L3.05 -105.8 1.6 -106.05 Q5.6 -104.8 9.45 -103.15 14.6 -100.95 19.95 -101.75 21.35 -101.9 22.75 -102.4 28.4 -104.4 33.75 -106.95 32.5 -111.7 37.3 -113.35 L38.3 -113.65 Q44.25 -113.4 42.5 -107.5 42.0 -105.7 40.3 -104.65 30.95 -98.8 20.15 -96.05 17.75 -95.4 15.4 -96.1 L-1.95 -101.3 Q-1.25 -97.35 0.85 -93.75 5.45 -85.8 10.85 -78.35 L13.75 -74.6 24.6 -81.8 Q28.35 -84.45 31.4 -87.75 31.85 -88.25 32.35 -88.55 33.2 -89.95 35.05 -90.7 L35.8 -91.15 Q37.0 -92.1 38.3 -92.2 L38.45 -92.15 38.7 -92.2 Q51.0 -91.9 62.85 -89.5 L63.25 -89.4 63.9 -90.65 Q65.1 -92.55 65.85 -94.65 66.7 -97.0 69.0 -97.25 73.4 -95.35 70.75 -90.8 L68.75 -86.85 Q67.45 -83.9 65.05 -83.7 L64.85 -83.65 61.85 -83.55 Q50.75 -86.6 39.45 -86.85 L38.55 -85.95 Q37.05 -84.55 35.3 -84.15 L34.85 -83.8 Q26.45 -76.45 17.0 -70.65 L17.25 -70.25 Q18.7 -69.0 19.6 -67.05 20.35 -65.5 21.45 -64.1 27.7 -55.85 32.65 -46.85 33.0 -46.15 32.45 -45.5 L31.2 -44.45 30.7 -43.9 22.5 -35.35 Q18.95 -31.7 14.75 -28.9 L16.3 -26.75 Q17.85 -24.25 19.9 -22.1 22.25 -19.65 23.4 -16.75 23.8 -15.65 23.05 -14.8 20.8 -12.1 18.35 -14.9 13.95 -19.9 10.45 -25.35 7.9 -27.25 8.1 -28.9 7.75 -30.45 9.35 -31.5 L15.2 -35.9 Q21.3 -41.05 26.4 -47.2 19.75 -56.75 13.3 -66.65 L13.2 -66.8 12.3 -67.5 Q8.7 -71.35 6.25 -75.8 2.5 -80.85 -0.9 -85.9 -6.25 -93.15 -7.6 -101.7 -17.4 -99.3 -25.95 -94.0 -29.25 -91.85 -30.35 -88.05 L-30.55 -86.45 Q-25.3 -83.95 -28.6 -79.6 -29.75 -78.1 -31.55 -78.0 -36.35 -77.75 -36.15 -82.45 -36.0 -85.95 -35.35 -89.35 -34.05 -95.8 -28.0 -98.8 -25.4 -100.1 -22.9 -101.65 -20.75 -103.05 -18.3 -104.05 -13.25 -106.15 -8.05 -107.1 -8.1 -109.75 -7.6 -112.15 -9.1 -114.8 -9.1 -118.0 -9.1 -122.9 -5.65 -126.35 -2.2 -129.8 2.7 -129.8 7.6 -129.8 11.05 -126.35 M-2.0 -107.0 L-2.35 -107.15 -2.35 -107.05 -2.0 -107.0" fill="#000000" fill-rule="evenodd" stroke="none"/>
  </g>
</svg>
