<?xml version="1.0" encoding="UTF-8" standalone="no"?>
<svg xmlns:ffdec="https://www.free-decompiler.com/flash" xmlns:xlink="http://www.w3.org/1999/xlink" ffdec:objectType="shape" height="116.6px" width="108.75px" xmlns="http://www.w3.org/2000/svg">
  <g transform="matrix(1.0, 0.0, 0.0, 1.0, 34.45, 128.85)">
    <path d="M11.25 -125.4 Q14.7 -121.95 14.7 -117.05 14.7 -112.15 11.25 -108.7 7.85 -105.3 3.1 -105.25 L3.25 -104.85 0.45 -105.2 Q11.35 -100.8 23.15 -101.85 30.9 -102.55 36.1 -108.1 36.35 -111.2 37.55 -113.95 38.15 -115.4 39.55 -115.5 44.8 -114.85 43.05 -109.25 42.7 -108.05 41.95 -107.0 35.3 -97.25 23.15 -96.4 11.55 -95.6 0.85 -98.85 4.25 -88.3 11.7 -79.9 L17.55 -73.85 Q27.3 -81.55 38.15 -87.65 L39.55 -88.1 39.7 -88.05 40.0 -88.1 Q51.75 -84.1 63.85 -81.15 L65.7 -80.4 Q68.0 -84.0 71.05 -86.6 L71.6 -86.85 Q75.75 -85.3 73.5 -81.4 71.15 -77.25 67.0 -74.9 66.25 -74.5 65.65 -74.55 64.5 -74.35 63.35 -75.0 61.85 -75.8 60.25 -76.2 50.05 -78.75 40.3 -82.65 L37.95 -81.0 Q32.4 -77.7 27.25 -73.85 23.85 -71.25 20.1 -69.15 21.2 -67.5 21.9 -65.45 22.3 -64.3 23.0 -63.3 24.9 -60.65 25.35 -57.45 L27.25 -53.05 Q27.55 -52.45 27.45 -51.8 29.7 -49.15 29.95 -46.15 31.1 -44.5 29.05 -41.95 L24.85 -37.25 Q19.45 -31.75 13.45 -26.9 16.8 -24.25 19.5 -20.65 L22.85 -15.8 Q23.55 -14.65 22.65 -13.6 20.25 -10.65 17.8 -14.05 14.55 -18.5 10.3 -21.95 8.45 -23.4 7.65 -25.4 7.05 -26.05 7.25 -26.95 7.1 -28.6 8.65 -29.25 L11.25 -32.0 Q18.25 -38.6 24.4 -45.6 L23.45 -48.1 Q22.15 -50.5 21.1 -53.15 20.85 -53.75 20.95 -54.4 17.25 -61.9 13.9 -69.55 4.95 -77.45 -0.9 -87.75 -1.95 -89.6 -2.35 -91.7 -3.45 -93.2 -3.8 -95.15 L-3.9 -96.1 Q-4.85 -98.25 -5.4 -100.45 -15.15 -99.7 -24.2 -96.4 L-25.6 -95.7 Q-25.65 -94.3 -26.75 -92.55 -28.15 -90.3 -28.55 -87.8 -23.0 -85.4 -26.05 -80.6 -27.8 -77.85 -31.15 -78.8 -34.5 -79.7 -34.45 -83.35 -34.35 -90.55 -31.1 -97.05 L-30.6 -97.8 Q-30.5 -99.05 -29.3 -99.9 -24.1 -103.6 -17.5 -104.2 L-6.05 -105.75 -5.95 -108.55 -5.95 -108.65 -5.95 -109.25 Q-8.9 -112.55 -8.9 -117.05 -8.9 -121.95 -5.45 -125.4 -2.0 -128.85 2.9 -128.85 7.8 -128.85 11.25 -125.4 M0.1 -105.35 L-0.5 -105.7 -0.5 -105.5 0.15 -105.3 0.1 -105.35" fill="#000000" fill-rule="evenodd" stroke="none"/>
  </g>
</svg>
