<?xml version="1.0" encoding="UTF-8" standalone="no"?>
<svg xmlns:ffdec="https://www.free-decompiler.com/flash" xmlns:xlink="http://www.w3.org/1999/xlink" ffdec:objectType="shape" height="146.25px" width="135.5px" xmlns="http://www.w3.org/2000/svg">
  <g transform="matrix(1.0, 0.0, 0.0, 1.0, 54.1, 140.3)">
    <path d="M28.0 -129.85 Q30.4 -130.75 32.55 -132.2 L32.65 -131.95 32.7 -131.7 32.45 -131.2 Q32.3 -130.6 32.45 -130.0 L32.95 -128.8 33.35 -127.45 33.55 -126.2 33.5 -125.75 Q33.35 -125.15 33.55 -124.8 L34.55 -124.35 35.85 -123.85 36.75 -123.45 35.45 -122.1 Q35.55 -121.6 35.85 -121.6 L36.0 -121.3 36.2 -120.85 35.85 -120.3 36.0 -120.0 36.25 -119.7 34.0 -117.1 34.1 -117.0 34.15 -116.65 34.05 -116.6 34.05 -116.25 34.1 -115.5 34.3 -115.35 Q38.35 -117.05 41.4 -120.2 L41.6 -119.7 41.8 -119.05 43.25 -115.0 Q47.85 -112.95 52.35 -111.7 49.1 -109.95 45.3 -108.35 43.65 -105.7 43.45 -102.6 L43.9 -101.7 Q45.9 -100.8 47.6 -101.0 48.75 -101.45 49.85 -102.0 52.3 -101.55 54.25 -100.05 L57.75 -97.1 59.75 -95.5 Q62.35 -93.65 65.55 -93.85 66.25 -91.1 67.25 -88.95 68.65 -87.05 71.15 -84.75 71.55 -84.3 71.55 -83.65 L71.6 -82.7 71.85 -82.2 72.05 -81.7 Q74.45 -79.25 75.9 -76.45 73.9 -73.05 73.95 -69.1 74.3 -68.35 74.8 -68.15 L80.2 -68.8 80.3 -67.2 Q80.3 -65.15 80.75 -63.15 L80.8 -63.15 Q81.0 -62.0 81.4 -61.4 81.1 -61.4 81.0 -62.0 L80.75 -63.15 Q79.4 -62.95 78.5 -61.6 L72.0 -52.35 71.95 -52.05 71.7 -51.05 74.6 -47.95 Q69.55 -49.35 64.3 -50.35 63.7 -50.55 63.15 -50.35 L59.35 -49.7 59.45 -46.5 Q58.45 -47.0 57.45 -47.65 L56.7 -48.2 54.9 -48.3 Q52.6 -47.0 50.5 -45.3 L49.85 -44.2 50.3 -43.65 Q50.55 -42.5 51.4 -41.6 L49.75 -43.2 49.3 -43.25 43.65 -43.75 Q42.4 -43.8 41.5 -42.75 L41.55 -40.0 41.6 -39.5 41.8 -38.15 44.4 -27.9 42.15 -27.95 40.6 -28.3 Q38.95 -28.75 37.85 -27.3 37.0 -26.5 36.85 -25.3 L36.85 -24.45 36.85 -24.0 -0.85 -23.75 -1.15 -23.75 -0.25 -26.55 -0.15 -27.0 -0.45 -27.95 1.5 -30.15 4.6 -33.3 5.5 -34.15 5.65 -34.3 Q7.15 -35.55 7.7 -37.35 6.4 -38.65 4.55 -39.6 -0.35 -42.4 -5.45 -44.5 L-3.3 -46.65 4.75 -53.65 Q5.05 -54.4 5.7 -54.9 L5.7 -55.35 5.7 -55.85 Q3.5 -57.3 0.95 -57.65 L1.1 -58.45 1.55 -60.1 2.15 -61.4 1.55 -62.05 Q-1.9 -63.9 -5.45 -64.8 -4.8 -67.7 -4.6 -70.65 L-5.35 -71.55 Q-6.85 -72.45 -8.3 -72.25 -11.25 -73.35 -14.05 -73.5 L-13.15 -77.25 -13.85 -79.55 -14.65 -79.35 -14.95 -79.3 Q-17.15 -78.0 -19.3 -76.3 L-20.6 -75.55 -24.05 -71.65 -24.4 -73.2 Q-25.65 -74.65 -27.35 -75.4 L-28.9 -74.2 Q-29.45 -73.9 -30.1 -73.75 -31.25 -74.05 -31.7 -73.25 L-41.0 -71.65 -42.35 -71.95 -44.7 -72.45 Q-44.9 -75.25 -44.6 -78.1 L-44.35 -80.55 Q-43.95 -85.1 -44.2 -89.6 -44.25 -90.2 -44.65 -90.6 -46.8 -92.65 -49.45 -93.7 -50.05 -94.3 -50.85 -94.5 L-54.1 -95.75 Q-52.85 -97.1 -51.0 -97.75 -47.05 -98.85 -43.35 -100.4 L-42.7 -101.45 Q-40.1 -103.3 -38.1 -105.9 L-38.1 -106.9 -38.1 -109.5 Q-38.35 -110.65 -38.95 -111.2 -32.65 -109.95 -26.05 -110.25 -25.75 -110.6 -25.7 -111.05 L-25.25 -113.25 Q-22.15 -113.45 -19.7 -115.15 L-19.75 -115.95 -19.8 -116.4 -19.85 -117.65 -19.65 -118.75 -19.65 -119.5 Q-19.65 -120.5 -20.2 -121.25 -20.6 -122.15 -21.7 -122.7 L-22.15 -123.5 -21.75 -123.9 -21.25 -124.3 Q-22.3 -126.5 -23.05 -129.45 -23.7 -132.05 -24.8 -134.8 -22.3 -134.95 -19.9 -134.05 L-17.9 -134.7 -14.3 -136.45 -6.2 -135.9 -3.15 -136.2 Q0.45 -137.7 3.5 -140.3 L4.2 -139.7 Q6.75 -137.25 8.15 -134.1 8.05 -135.05 8.55 -135.65 12.2 -133.6 15.35 -130.5 16.3 -130.05 17.45 -130.05 L22.5 -130.3 22.5 -131.35 Q22.75 -133.45 23.6 -135.3 L27.75 -130.3 27.8 -130.05 28.0 -129.85 M1.75 -3.4 L-1.05 -6.95 -3.75 -9.95 -3.4 -11.2 Q-2.15 -15.05 -2.05 -18.25 L-0.65 -18.55 0.0 -18.6 Q18.6 -18.7 37.15 -18.0 L37.25 -16.4 Q36.1 -16.3 35.3 -15.7 34.55 -15.15 34.1 -14.15 L34.8 -12.6 35.95 -9.25 35.05 -8.95 Q33.45 -8.4 32.2 -7.15 L31.85 -6.4 31.1 -4.55 29.5 -1.3 Q29.0 -1.15 28.75 -0.7 27.2 -0.15 25.6 -1.3 L25.15 -0.45 Q24.2 -0.65 23.2 0.15 L19.35 -0.2 18.05 0.0 Q15.05 1.95 12.35 4.6 L10.35 5.95 9.75 5.4 9.3 4.25 9.0 3.65 8.2 1.8 Q6.7 -0.4 5.8 -2.8 3.65 -3.55 1.75 -3.4" fill="#ffff00" fill-opacity="0.5019608" fill-rule="evenodd" stroke="none"/>
  </g>
</svg>
