<?xml version="1.0" encoding="UTF-8" standalone="no"?>
<svg xmlns:ffdec="https://www.free-decompiler.com/flash" xmlns:xlink="http://www.w3.org/1999/xlink" ffdec:objectType="shape" height="117.55px" width="105.85px" xmlns="http://www.w3.org/2000/svg">
  <g transform="matrix(1.0, 0.0, 0.0, 1.0, 32.05, 128.3)">
    <path d="M11.25 -124.85 Q14.7 -121.4 14.7 -116.5 14.7 -111.6 11.25 -108.15 7.85 -104.75 3.1 -104.7 L3.25 -104.3 0.55 -104.65 0.55 -104.25 Q8.65 -100.45 17.9 -100.3 18.95 -101.2 20.85 -101.25 21.7 -101.3 22.5 -101.8 29.3 -106.2 34.85 -112.35 35.25 -114.75 36.2 -116.95 36.9 -118.4 38.3 -118.45 44.15 -118.8 42.35 -113.8 41.65 -111.9 40.45 -110.3 L38.85 -108.4 Q32.3 -101.55 24.4 -96.45 21.1 -94.35 18.55 -95.75 10.1 -95.15 2.05 -97.4 L1.95 -97.4 Q6.5 -87.3 13.8 -78.65 L17.8 -73.55 18.65 -73.95 Q21.8 -75.0 24.8 -76.5 L40.85 -84.75 42.85 -84.25 42.95 -84.3 Q49.0 -81.75 53.85 -77.0 58.5 -72.45 63.4 -68.05 L64.25 -67.25 Q66.9 -71.2 70.6 -74.0 L71.15 -74.2 Q75.7 -72.35 72.45 -68.4 69.25 -64.5 65.7 -60.95 65.35 -60.65 64.85 -60.65 L64.1 -60.75 Q62.4 -60.6 61.15 -61.9 52.45 -70.75 42.65 -78.3 L41.75 -79.15 Q31.7 -73.15 20.9 -68.95 21.3 -67.6 21.2 -65.85 L21.3 -64.3 Q23.0 -55.45 26.5 -47.4 L27.05 -45.2 Q28.25 -43.45 26.55 -40.65 23.5 -35.7 20.0 -30.95 16.45 -26.2 11.95 -22.35 15.8 -20.0 19.25 -16.85 20.5 -15.75 21.25 -14.25 22.75 -11.2 19.3 -10.8 16.6 -10.5 14.65 -12.7 12.7 -14.9 10.25 -16.65 7.85 -18.45 6.05 -20.5 L5.85 -20.75 5.7 -20.95 Q5.3 -21.5 5.45 -22.25 5.55 -23.1 6.2 -24.1 7.2 -25.65 8.55 -26.9 16.3 -34.15 21.8 -43.15 21.0 -44.0 20.65 -45.3 L19.55 -49.25 16.2 -60.75 Q15.25 -63.85 15.1 -67.15 L14.85 -68.75 14.85 -68.85 14.0 -69.7 Q5.65 -79.15 -0.8 -89.75 -3.75 -94.65 -4.9 -100.05 L-7.0 -100.15 -8.05 -100.2 Q-17.65 -99.65 -25.95 -95.25 -25.8 -94.0 -26.25 -92.4 -26.8 -90.4 -26.85 -88.3 -20.8 -86.7 -23.55 -80.7 -23.9 -79.8 -24.9 -79.45 -30.1 -77.65 -31.25 -82.2 -33.1 -89.5 -30.75 -96.85 -30.9 -98.1 -29.4 -99.15 -23.5 -103.25 -16.25 -104.5 L-7.2 -105.8 -5.3 -106.1 -5.0 -107.35 -5.9 -107.7 -5.95 -108.1 -5.95 -108.7 Q-8.9 -112.0 -8.9 -116.5 -8.9 -121.4 -5.45 -124.85 -2.0 -128.3 2.9 -128.3 7.8 -128.3 11.25 -124.85" fill="#000000" fill-rule="evenodd" stroke="none"/>
  </g>
</svg>
