<?xml version="1.0" encoding="UTF-8" standalone="no"?>
<svg xmlns:ffdec="https://www.free-decompiler.com/flash" xmlns:xlink="http://www.w3.org/1999/xlink" ffdec:objectType="shape" height="147.7px" width="138.15px" xmlns="http://www.w3.org/2000/svg">
  <g transform="matrix(1.0, 0.0, 0.0, 1.0, 53.0, 138.7)">
    <path d="M29.5 -130.65 Q33.15 -132.05 36.55 -134.3 L36.7 -134.05 36.75 -133.9 36.75 -133.5 Q36.65 -132.65 36.95 -131.95 L37.7 -130.3 38.3 -128.45 38.65 -126.7 38.85 -126.3 Q38.9 -125.7 39.3 -125.4 L40.75 -124.9 42.75 -124.3 44.05 -123.9 43.4 -123.05 43.5 -122.6 43.55 -122.15 43.65 -121.5 43.05 -120.75 43.1 -120.45 43.2 -120.1 39.6 -116.15 39.65 -115.95 39.65 -115.25 39.4 -115.1 39.4 -114.4 39.45 -113.1 39.65 -112.9 Q41.75 -113.65 43.35 -115.15 L43.45 -114.75 43.5 -114.25 44.5 -111.9 50.65 -107.75 Q45.6 -105.9 40.35 -104.15 39.45 -102.65 39.35 -100.95 L39.55 -99.7 Q41.45 -98.35 43.4 -97.85 L44.9 -98.2 Q48.4 -97.5 51.15 -95.25 L53.0 -93.45 54.0 -92.5 Q55.25 -91.1 56.9 -90.7 57.6 -88.7 58.85 -87.65 63.05 -85.55 68.05 -83.8 68.65 -83.35 68.7 -82.6 L68.7 -82.0 68.75 -81.55 68.75 -81.2 Q69.95 -79.05 70.4 -76.9 68.35 -72.3 69.1 -67.3 69.6 -66.55 70.4 -66.7 L78.1 -69.5 78.1 -67.3 Q77.95 -63.45 78.9 -59.85 79.35 -59.0 80.05 -58.95 L85.15 -59.4 Q83.95 -58.75 82.95 -57.55 L75.65 -49.1 75.6 -48.65 75.5 -47.2 81.2 -41.85 69.1 -42.65 68.05 -42.35 66.25 -41.3 67.2 -37.0 Q65.65 -37.75 64.15 -38.75 L63.05 -39.7 Q62.05 -40.75 60.35 -39.85 56.9 -37.95 53.7 -35.5 L52.6 -34.95 52.4 -35.25 51.8 -35.5 49.2 -38.15 Q48.8 -38.3 48.5 -38.55 46.25 -39.55 44.0 -39.7 42.55 -39.8 41.25 -38.6 41.25 -37.3 41.4 -36.0 L41.4 -35.55 41.55 -34.25 43.35 -24.7 39.95 -24.9 37.6 -25.55 Q35.0 -26.5 33.35 -24.55 32.8 -23.3 33.05 -22.0 33.25 -21.25 33.6 -20.75 L38.8 -11.15 20.0 -11.25 17.9 -11.3 -3.45 -12.2 -1.85 -16.85 -1.6 -18.0 Q-0.6 -20.65 -1.3 -22.6 L-1.25 -22.95 -1.7 -24.25 0.7 -27.2 4.7 -31.45 5.15 -32.05 5.25 -32.15 Q6.0 -33.0 6.3 -34.15 4.15 -35.8 1.6 -37.1 L-7.4 -41.9 -4.8 -44.4 4.75 -52.9 5.25 -53.85 5.25 -54.4 5.25 -54.95 Q1.9 -57.0 -1.9 -57.45 L-1.8 -58.5 -1.2 -60.7 -0.3 -62.35 -0.6 -62.75 Q-2.35 -64.25 -4.05 -65.2 -3.55 -67.95 -3.2 -70.75 -3.6 -71.65 -4.35 -72.0 -6.5 -73.1 -8.45 -72.75 L-11.25 -74.25 -9.6 -79.1 -10.6 -80.7 -11.6 -80.3 -11.8 -80.1 -14.05 -78.3 -14.9 -77.7 Q-16.75 -74.95 -19.0 -72.45 L-19.25 -73.1 Q-19.85 -73.75 -20.7 -74.05 -21.65 -72.7 -23.0 -71.7 -23.85 -71.15 -24.8 -70.75 -26.4 -71.0 -27.0 -69.8 L-36.5 -67.25 -38.65 -66.9 -42.9 -66.35 Q-43.2 -70.05 -42.9 -73.9 L-42.7 -77.2 Q-42.35 -83.3 -42.8 -89.25 -42.9 -90.1 -43.55 -90.6 -46.8 -93.15 -50.65 -94.1 L-51.4 -94.7 -53.0 -95.3 Q-52.45 -96.25 -51.35 -96.75 L-47.35 -98.25 -46.4 -99.75 Q-42.55 -102.35 -39.55 -106.05 L-39.55 -107.5 -39.55 -111.35 -38.6 -111.95 Q-30.75 -109.5 -22.5 -109.85 -22.15 -110.35 -22.15 -111.05 L-21.95 -114.35 Q-20.5 -114.55 -19.3 -115.45 L-19.45 -116.0 -19.45 -116.4 Q-19.65 -117.4 -19.3 -118.0 L-18.3 -118.95 -18.1 -119.8 Q-17.9 -121.15 -18.5 -122.1 -19.0 -123.15 -20.4 -123.8 L-20.65 -124.4 -20.5 -124.6 -20.3 -124.95 Q-23.1 -127.9 -25.2 -131.8 -27.1 -135.3 -29.55 -138.7 -25.8 -138.8 -22.1 -137.4 L-16.85 -136.25 -8.75 -135.0 -3.05 -134.4 -0.85 -134.6 Q1.75 -135.45 3.95 -137.1 L4.3 -136.9 Q5.6 -135.95 6.25 -134.65 6.05 -136.35 6.8 -137.6 12.35 -134.75 16.95 -130.35 L18.2 -130.2 21.05 -130.65 21.15 -132.25 Q21.55 -135.45 22.85 -138.3 26.2 -134.85 29.05 -131.0 L29.2 -130.75 29.5 -130.65 M2.3 -0.65 Q0.25 -2.25 -1.85 -3.45 -4.05 -4.7 -6.2 -5.45 L-5.7 -6.7 -5.5 -7.1 11.75 -6.3 21.05 -6.1 34.85 -5.8 34.95 -4.45 34.45 -4.15 33.05 -2.75 32.5 -1.7 31.35 0.85 29.0 5.2 Q28.3 5.4 27.95 6.0 25.65 6.7 23.35 4.9 L22.6 4.8 Q21.15 3.45 19.6 3.7 L16.95 3.55 16.05 3.75 Q13.95 4.85 11.9 6.75 L9.05 9.0 8.6 8.7 8.3 8.0 8.15 7.65 7.75 6.6 Q5.7 3.4 4.5 -0.15 L2.3 -0.65" fill="#ffff00" fill-opacity="0.5019608" fill-rule="evenodd" stroke="none"/>
  </g>
</svg>
