<?xml version="1.0" encoding="UTF-8" standalone="no"?>
<svg xmlns:ffdec="https://www.free-decompiler.com/flash" xmlns:xlink="http://www.w3.org/1999/xlink" ffdec:objectType="shape" height="119.5px" width="101.35px" xmlns="http://www.w3.org/2000/svg">
  <g transform="matrix(1.0, 0.0, 0.0, 1.0, 30.9, 127.75)">
    <path d="M10.7 -124.3 Q14.15 -120.85 14.15 -115.95 14.15 -111.05 10.7 -107.6 7.4 -104.3 2.75 -104.15 11.45 -101.95 20.3 -100.6 25.9 -108.15 32.75 -114.85 32.4 -117.45 33.55 -119.75 34.15 -120.95 35.35 -120.95 41.25 -120.6 39.0 -114.8 38.45 -113.4 37.5 -112.25 L27.5 -100.6 24.0 -96.5 23.2 -95.65 Q22.3 -94.15 20.15 -94.7 L5.75 -98.1 0.1 -99.45 1.7 -94.75 1.75 -93.8 Q2.7 -92.15 3.25 -90.35 L3.45 -89.35 Q8.75 -81.7 15.95 -75.7 18.05 -73.95 19.6 -71.7 L21.05 -71.75 23.6 -72.15 Q30.5 -75.05 37.15 -78.5 38.9 -79.4 40.7 -79.65 41.3 -80.1 42.1 -80.1 48.3 -77.4 51.55 -71.05 54.45 -65.5 58.3 -60.6 L59.75 -58.65 60.2 -58.85 Q61.7 -59.4 62.8 -60.65 65.05 -63.1 67.8 -64.1 72.45 -62.05 68.9 -58.25 65.55 -54.65 61.15 -53.15 60.7 -52.8 59.9 -52.6 56.8 -51.8 55.5 -54.75 L54.7 -56.1 Q50.8 -61.35 47.25 -66.8 L45.65 -69.45 45.35 -70.4 41.95 -74.1 41.75 -74.05 Q36.25 -72.65 31.4 -69.55 26.45 -66.4 21.15 -66.45 L21.15 -64.3 21.15 -63.05 Q21.75 -54.95 22.95 -46.95 24.85 -43.3 24.5 -39.4 25.65 -37.75 23.25 -35.35 20.45 -32.6 17.35 -30.2 13.15 -24.75 9.55 -19.05 L11.35 -17.55 11.55 -17.35 Q17.3 -15.6 20.0 -10.85 20.25 -10.4 19.85 -9.9 17.35 -6.8 13.95 -9.6 12.75 -10.6 11.25 -11.25 7.05 -13.0 4.45 -16.6 L4.25 -16.9 Q2.95 -18.35 4.2 -20.85 7.05 -26.55 11.15 -31.4 14.75 -35.65 19.05 -38.8 L18.85 -40.1 18.85 -41.65 18.85 -42.95 Q16.75 -48.7 16.25 -54.95 15.75 -61.2 15.55 -67.35 L15.3 -67.65 Q13.1 -70.05 11.25 -72.65 4.0 -78.1 -0.55 -85.6 -2.05 -87.4 -2.6 -89.65 L-2.65 -90.65 Q-4.5 -94.35 -5.45 -98.5 L-5.6 -99.5 -5.9 -99.85 Q-6.4 -99.55 -7.15 -99.5 -16.0 -98.75 -24.5 -97.1 -24.5 -96.15 -24.8 -95.05 -25.9 -91.0 -25.2 -86.95 -19.3 -88.05 -19.65 -82.2 -19.85 -79.05 -23.2 -78.85 -29.6 -78.5 -30.5 -84.6 -31.55 -91.8 -29.75 -98.6 -30.25 -101.55 -26.15 -102.35 L-8.45 -104.95 -7.7 -104.95 Q-8.25 -107.25 -7.6 -109.5 -9.45 -112.35 -9.45 -115.95 -9.45 -120.85 -6.0 -124.3 -2.55 -127.75 2.35 -127.75 7.25 -127.75 10.7 -124.3" fill="#000000" fill-rule="evenodd" stroke="none"/>
  </g>
</svg>
