<?xml version="1.0" encoding="UTF-8" standalone="no"?>
<svg xmlns:ffdec="https://www.free-decompiler.com/flash" xmlns:xlink="http://www.w3.org/1999/xlink" ffdec:objectType="shape" height="155.55px" width="141.45px" xmlns="http://www.w3.org/2000/svg">
  <g transform="matrix(1.0, 0.0, 0.0, 1.0, 51.95, 142.6)">
    <path d="M11.6 8.8 L11.5 8.85 7.8 12.05 7.4 11.95 7.35 11.65 7.3 11.35 5.65 8.5 11.6 8.8 M24.5 9.0 L30.2 9.05 28.5 11.75 Q27.6 11.95 27.15 12.7 24.15 13.6 21.1 11.1 L20.1 10.05 19.2 9.0 24.5 9.0 M22.1 -141.3 Q26.6 -136.8 30.4 -131.7 30.65 -131.3 31.0 -131.4 35.95 -133.35 40.5 -136.4 L40.8 -136.05 41.05 -135.75 Q41.0 -134.75 41.5 -133.9 43.2 -130.65 43.75 -127.25 L44.2 -126.9 Q44.4 -126.2 45.0 -126.0 L51.35 -124.3 51.35 -124.0 51.1 -123.65 51.1 -123.05 51.1 -122.1 50.3 -121.15 50.25 -120.85 50.15 -120.5 45.25 -115.15 45.25 -114.85 45.15 -113.9 44.8 -113.55 44.8 -112.6 44.8 -110.75 45.0 -110.4 45.25 -110.1 45.25 -109.8 45.25 -109.45 45.75 -108.85 Q47.6 -106.4 48.9 -103.8 L35.35 -99.9 35.2 -99.25 35.15 -97.7 Q37.0 -95.95 39.25 -94.65 L39.9 -94.35 Q44.5 -93.45 48.05 -90.45 L48.2 -89.5 48.2 -87.6 Q48.95 -86.3 50.5 -86.35 57.45 -84.05 65.0 -82.85 65.8 -82.45 65.85 -81.6 L65.8 -81.3 65.4 -80.65 Q65.5 -78.9 64.9 -77.35 62.85 -71.55 64.25 -65.5 64.95 -64.75 65.95 -65.2 71.05 -67.6 75.95 -70.25 L75.85 -67.4 Q75.6 -62.35 76.75 -57.65 77.55 -56.6 78.7 -56.5 L89.5 -55.65 Q84.6 -50.55 79.3 -45.85 L79.3 -45.25 79.3 -43.35 87.8 -35.75 73.85 -34.95 Q73.35 -34.95 73.0 -34.4 L73.2 -32.9 74.9 -27.45 70.85 -29.9 Q70.05 -30.45 69.4 -31.15 68.05 -32.6 65.8 -31.4 61.15 -28.95 56.9 -25.7 L55.3 -25.7 52.15 -29.35 48.7 -33.15 47.65 -33.9 Q44.35 -37.1 41.05 -34.4 L41.2 -31.6 42.3 -21.45 37.75 -21.9 Q36.15 -22.2 34.6 -22.8 31.05 -24.25 28.85 -21.8 28.6 -20.1 29.25 -18.65 29.7 -17.7 30.3 -17.0 L41.45 -3.8 Q37.05 -4.1 35.15 -0.55 L33.9 0.4 33.9 0.7 33.9 1.65 33.15 3.0 32.85 3.7 24.5 3.5 23.05 3.5 3.3 3.0 3.15 2.5 2.85 2.1 Q-2.65 -0.55 -8.6 -0.95 L-8.0 -2.25 Q-4.95 -7.6 -1.55 -12.65 L-1.3 -13.95 Q-0.5 -16.6 -2.3 -18.65 L-2.35 -18.9 -3.0 -20.5 Q0.55 -25.45 4.85 -29.65 L4.85 -30.0 4.85 -30.95 Q1.95 -32.95 -1.35 -34.6 -5.8 -36.8 -9.35 -39.25 L-6.3 -42.15 Q-0.45 -46.95 4.75 -52.15 L4.85 -52.8 4.85 -54.05 Q0.35 -56.75 -4.8 -57.3 L-4.75 -58.6 Q-4.25 -61.2 -2.7 -63.3 L-2.65 -65.55 -1.85 -70.9 Q-2.35 -72.0 -3.35 -72.45 -6.2 -73.7 -8.6 -73.2 -8.75 -74.15 -8.45 -75.0 L-6.05 -81.0 Q-7.2 -82.55 -8.6 -81.2 L-8.65 -80.9 -8.8 -80.25 -9.25 -79.85 Q-11.25 -76.35 -13.95 -73.3 L-14.05 -73.0 -14.05 -72.65 Q-16.1 -69.5 -19.55 -67.75 -21.55 -68.0 -22.25 -66.35 -27.0 -64.4 -32.0 -62.8 L-41.1 -60.25 Q-41.55 -64.9 -41.25 -69.75 -40.65 -79.45 -41.45 -88.95 -41.55 -90.0 -42.4 -90.6 -46.8 -93.65 -51.9 -94.55 L-51.95 -94.85 Q-52.05 -95.4 -51.7 -95.8 L-51.35 -96.15 -50.1 -98.0 Q-45.0 -101.4 -41.0 -106.2 L-41.0 -108.1 -41.0 -113.15 -38.25 -112.7 Q-28.8 -109.05 -19.0 -109.45 -18.55 -110.15 -18.6 -111.05 L-18.7 -115.45 -18.9 -115.75 -19.1 -116.1 -19.15 -116.4 Q-19.4 -118.75 -16.9 -119.15 L-16.5 -120.1 Q-15.65 -123.4 -19.1 -124.9 L-19.2 -125.25 -19.3 -125.55 Q-23.85 -129.35 -27.35 -134.2 -30.5 -138.5 -34.25 -142.6 -29.25 -142.65 -24.35 -140.8 L-15.85 -137.8 -3.15 -133.55 Q0.95 -132.15 4.45 -133.95 L4.35 -135.2 Q4.05 -137.65 5.05 -139.55 12.5 -135.9 18.55 -130.2 19.25 -130.35 19.6 -131.0 L19.75 -133.2 Q20.35 -137.5 22.1 -141.3" fill="#ffff00" fill-opacity="0.5019608" fill-rule="evenodd" stroke="none"/>
  </g>
</svg>
