<?xml version="1.0" encoding="UTF-8" standalone="no"?>
<svg xmlns:ffdec="https://www.free-decompiler.com/flash" xmlns:xlink="http://www.w3.org/1999/xlink" ffdec:objectType="shape" height="121.8px" width="97.7px" xmlns="http://www.w3.org/2000/svg">
  <g transform="matrix(1.0, 0.0, 0.0, 1.0, 31.95, 126.65)">
    <path d="M14.7 -114.85 Q14.7 -109.95 11.25 -106.5 8.1 -103.35 3.75 -103.05 11.35 -100.05 19.45 -98.85 25.55 -105.3 29.35 -113.05 L29.65 -114.0 Q30.15 -114.9 30.3 -115.9 27.5 -119.3 30.2 -122.65 30.8 -123.35 31.55 -123.35 36.8 -122.85 35.95 -117.4 35.1 -111.75 32.1 -106.8 L26.5 -98.35 Q24.15 -94.95 20.5 -93.65 L16.6 -93.45 Q7.85 -95.45 -0.15 -99.15 0.1 -94.2 3.1 -90.15 L4.7 -87.85 Q10.65 -79.15 16.9 -70.7 28.65 -73.8 40.8 -74.45 L42.1 -74.55 43.15 -74.45 43.35 -74.55 43.7 -74.35 Q45.4 -74.0 45.65 -72.75 46.8 -71.25 47.15 -68.95 47.65 -65.35 48.75 -61.9 50.85 -55.3 50.9 -48.45 L52.15 -48.4 Q57.45 -48.4 62.25 -49.35 67.1 -49.35 65.25 -45.4 64.6 -44.0 62.9 -43.7 L50.15 -43.35 49.8 -43.25 Q45.95 -42.2 45.8 -45.95 45.35 -57.8 41.1 -68.65 L41.0 -69.0 Q32.55 -68.05 24.25 -66.3 L19.5 -65.4 18.9 -64.8 18.9 -64.15 Q18.95 -62.55 19.25 -61.0 21.85 -48.85 23.25 -36.45 L23.2 -34.85 23.2 -34.8 Q23.3 -33.75 22.35 -32.3 16.85 -23.75 11.85 -14.85 17.75 -12.4 23.05 -8.65 23.65 -8.2 23.4 -7.45 22.1 -3.45 17.95 -5.55 13.25 -7.95 8.65 -10.45 6.1 -11.35 6.0 -12.85 5.4 -14.15 6.65 -15.9 L8.05 -18.75 8.75 -19.7 Q12.15 -27.85 17.6 -34.75 L17.45 -35.65 Q16.75 -45.55 15.05 -55.2 L13.05 -62.4 Q12.5 -64.55 12.9 -66.55 L12.85 -66.85 Q5.8 -76.25 -0.85 -85.9 L-1.35 -87.2 Q-4.85 -91.7 -5.65 -97.25 L-5.85 -100.05 Q-16.85 -98.5 -26.7 -93.3 L-24.7 -88.4 Q-24.15 -87.3 -23.3 -86.35 -18.95 -88.8 -17.1 -84.85 -16.35 -83.3 -17.25 -81.85 -20.4 -76.75 -25.55 -80.55 -28.5 -82.7 -29.5 -86.35 -33.5 -91.5 -30.95 -97.0 -30.55 -97.85 -29.75 -98.25 -18.2 -104.05 -5.45 -105.7 L-5.45 -105.75 -5.25 -106.3 -5.45 -106.5 Q-8.9 -109.95 -8.9 -114.85 -8.9 -119.75 -5.45 -123.2 -2.0 -126.65 2.9 -126.65 7.8 -126.65 11.25 -123.2 14.7 -119.75 14.7 -114.85" fill="#000000" fill-rule="evenodd" stroke="none"/>
  </g>
</svg>
