<?xml version="1.0" encoding="UTF-8" standalone="no"?>
<svg xmlns:ffdec="https://www.free-decompiler.com/flash" xmlns:xlink="http://www.w3.org/1999/xlink" ffdec:objectType="shape" height="121.9px" width="86.75px" xmlns="http://www.w3.org/2000/svg">
  <g transform="matrix(1.0, 0.0, 0.0, 1.0, 30.4, 125.55)">
    <path d="M15.25 -113.75 Q15.25 -108.85 11.8 -105.4 8.4 -102.0 3.65 -101.95 L3.8 -101.55 1.8 -101.85 Q10.55 -100.4 18.95 -97.6 24.6 -104.85 30.7 -111.75 L32.5 -113.7 Q31.2 -115.8 32.5 -118.0 33.4 -119.55 34.95 -119.7 40.15 -120.6 40.4 -115.9 40.55 -112.6 37.9 -110.55 L35.95 -108.9 Q30.05 -103.35 25.1 -96.85 L23.35 -94.45 Q19.8 -89.55 14.0 -93.05 L11.6 -94.05 10.5 -94.45 Q5.45 -95.1 0.75 -96.45 L0.95 -95.05 Q5.55 -85.25 10.45 -75.6 12.65 -71.35 16.4 -68.35 L29.05 -69.6 39.75 -69.05 40.85 -69.6 42.3 -68.75 Q42.9 -68.6 43.1 -67.95 44.2 -66.4 43.85 -63.85 43.7 -62.3 43.95 -60.75 45.0 -55.0 44.95 -49.05 L44.7 -42.9 Q50.6 -41.4 55.9 -38.5 56.4 -38.25 56.35 -37.6 55.95 -33.35 51.55 -34.8 46.75 -36.45 42.15 -38.5 39.4 -38.85 39.5 -42.0 39.75 -53.1 38.0 -63.75 L37.95 -64.2 29.7 -63.75 Q23.95 -63.45 18.25 -63.45 L18.25 -63.25 18.35 -62.3 20.75 -49.9 Q21.15 -47.95 21.15 -45.9 21.25 -40.8 21.7 -35.85 23.3 -34.15 20.9 -31.1 16.8 -25.95 14.35 -19.95 L11.2 -12.65 Q16.75 -11.6 21.9 -9.4 26.15 -7.6 23.05 -4.45 21.75 -3.1 19.85 -4.05 13.7 -7.05 6.8 -8.15 5.85 -8.3 5.6 -9.1 4.3 -10.4 5.1 -12.65 8.15 -21.25 13.0 -28.85 L14.25 -31.05 Q15.25 -33.05 16.65 -34.7 L16.6 -35.05 Q15.7 -43.15 15.45 -51.45 13.9 -55.05 13.4 -59.05 L13.35 -60.3 Q12.25 -62.5 12.1 -64.75 11.0 -65.55 10.4 -66.75 5.0 -71.4 2.5 -78.05 0.25 -84.1 -2.65 -89.8 -3.7 -91.4 -4.2 -93.25 L-4.45 -94.2 Q-5.5 -96.7 -5.65 -99.2 L-5.9 -99.15 Q-15.5 -97.65 -24.75 -94.55 -24.35 -90.15 -20.35 -87.4 L-19.1 -86.3 Q-15.55 -86.55 -15.05 -83.4 -14.35 -79.0 -18.9 -79.85 -21.4 -80.35 -23.45 -82.15 -27.5 -85.7 -29.65 -90.65 -31.6 -95.2 -28.4 -98.45 -26.8 -100.05 -24.5 -100.6 L-12.6 -103.5 -7.6 -104.55 -5.0 -104.2 -4.8 -104.75 -5.35 -104.95 -5.4 -105.35 -5.4 -105.95 Q-8.35 -109.25 -8.35 -113.75 -8.35 -118.65 -4.9 -122.1 -1.45 -125.55 3.45 -125.55 8.35 -125.55 11.8 -122.1 15.25 -118.65 15.25 -113.75 M0.25 -102.1 L0.7 -102.0 0.65 -102.05 0.2 -102.35 0.15 -102.1 0.25 -102.1" fill="#000000" fill-rule="evenodd" stroke="none"/>
  </g>
</svg>
