<?xml version="1.0" encoding="UTF-8" standalone="no"?>
<svg xmlns:ffdec="https://www.free-decompiler.com/flash" xmlns:xlink="http://www.w3.org/1999/xlink" ffdec:objectType="shape" height="157.6px" width="116.25px" xmlns="http://www.w3.org/2000/svg">
  <g transform="matrix(1.0, 0.0, 0.0, 1.0, 48.6, 140.1)">
    <path d="M22.8 -132.8 Q23.85 -129.9 24.55 -127.0 L24.5 -126.15 2.2 -126.2 -0.15 -126.3 -20.45 -127.8 -20.5 -127.85 -20.9 -128.95 Q-22.7 -133.4 -25.05 -137.7 L-22.25 -140.1 -19.65 -138.85 -18.35 -138.1 -16.3 -137.0 Q-14.35 -135.95 -12.35 -135.35 L-9.65 -134.7 -9.3 -134.75 -8.75 -134.9 -7.95 -135.05 -7.6 -135.15 Q-5.7 -136.2 -2.6 -136.5 L-2.55 -136.5 -2.2 -136.4 Q1.05 -134.95 3.95 -134.8 L4.35 -135.05 Q4.9 -135.65 6.1 -135.95 L6.9 -135.4 7.6 -135.0 Q14.0 -133.0 19.9 -130.65 20.45 -130.7 20.85 -131.05 L21.9 -132.2 22.1 -132.4 22.15 -132.45 22.35 -132.55 Q22.2 -132.65 22.35 -132.7 L22.8 -132.8 M37.1 -117.75 L38.05 -117.25 38.4 -117.2 39.15 -117.05 44.25 -118.15 44.3 -118.1 44.45 -118.0 44.7 -117.9 44.6 -117.8 44.6 -117.75 44.65 -117.7 44.4 -117.75 43.75 -114.6 43.8 -114.35 44.0 -113.45 44.05 -113.0 44.25 -112.15 44.7 -110.6 44.9 -110.25 45.1 -110.0 45.2 -109.75 45.35 -109.45 45.8 -108.85 46.35 -108.1 47.5 -106.9 49.4 -105.4 49.1 -104.55 49.0 -104.0 48.9 -103.8 48.0 -102.9 Q45.7 -101.95 43.55 -100.8 L43.45 -100.55 43.45 -100.35 43.25 -100.0 43.15 -99.6 43.15 -98.9 43.15 -98.6 43.65 -97.65 44.5 -96.8 44.7 -96.55 45.9 -95.05 46.35 -94.55 49.6 -92.4 49.95 -91.9 52.4 -89.5 52.6 -88.9 52.5 -88.75 51.8 -87.4 Q51.65 -86.5 51.9 -86.25 L52.25 -84.9 52.35 -84.55 53.25 -83.05 Q54.3 -81.25 55.95 -79.5 56.35 -79.0 56.4 -78.3 L56.35 -78.0 56.2 -77.35 56.25 -75.0 55.8 -74.7 Q53.05 -72.7 51.3 -70.65 L51.75 -70.6 51.75 -69.9 52.25 -68.15 53.05 -66.1 53.15 -65.7 53.65 -64.35 53.65 -64.0 Q53.65 -62.35 53.3 -61.0 L53.3 -60.65 53.25 -59.8 53.45 -59.0 53.65 -58.75 54.0 -58.35 54.05 -58.3 54.65 -58.1 63.8 -56.4 64.35 -53.4 Q64.75 -52.65 64.35 -51.75 L63.9 -51.1 63.25 -49.75 62.65 -49.0 62.6 -48.85 62.5 -48.5 62.15 -46.8 Q62.95 -44.4 64.45 -41.7 L67.65 -39.05 67.15 -38.2 67.0 -38.1 Q67.05 -37.75 66.55 -37.6 L64.0 -37.05 Q60.45 -36.7 58.6 -35.45 L58.2 -34.7 58.45 -33.3 58.75 -32.55 58.9 -31.85 60.0 -28.35 59.6 -28.15 56.9 -28.65 55.35 -29.15 51.95 -29.3 51.85 -29.25 Q48.7 -28.55 46.4 -26.4 L46.1 -25.85 45.6 -24.9 45.35 -23.8 45.2 -23.6 44.95 -23.3 Q44.9 -23.5 44.65 -23.5 L44.3 -23.7 44.15 -23.7 Q43.65 -24.0 43.15 -22.6 L41.9 -21.6 41.85 -21.55 40.75 -20.1 Q39.45 -18.15 38.55 -15.55 L38.55 -15.2 38.6 -14.55 39.3 -12.3 38.7 -11.6 38.2 -11.0 37.4 -10.35 Q36.3 -9.8 35.45 -7.2 35.45 -5.75 35.8 -4.35 L35.85 -4.3 35.75 -3.2 Q35.45 -0.35 34.75 1.65 L34.75 2.15 34.55 2.65 Q30.95 3.2 28.65 5.95 L27.45 6.8 27.35 7.0 27.35 7.1 27.05 7.7 26.2 8.7 20.5 15.8 Q19.8 16.15 19.3 16.75 L16.85 17.5 16.45 17.4 14.3 15.85 13.45 14.95 Q10.6 11.55 7.8 10.95 L6.7 10.95 5.95 11.0 3.05 11.65 2.7 11.55 2.6 11.4 2.45 11.25 0.65 10.15 0.65 9.5 0.55 8.0 0.6 7.65 0.7 3.75 0.6 3.4 0.1 2.5 0.0 2.25 Q-0.2 1.25 -1.25 0.1 L-1.5 -0.35 Q-2.0 -1.35 -3.05 -2.3 L-4.45 -2.9 -4.55 -3.95 Q-4.8 -8.5 -5.35 -12.05 L-5.25 -12.2 -4.65 -13.15 Q-3.35 -15.0 -3.35 -16.55 L-3.25 -16.7 -3.0 -17.85 -1.2 -19.65 Q-0.15 -21.75 -0.6 -22.85 L-0.6 -25.6 -0.75 -25.9 -1.05 -26.6 -6.2 -30.25 -6.4 -30.45 -6.45 -30.5 -7.25 -31.25 -7.45 -31.8 -7.6 -32.05 -8.1 -32.75 -8.7 -36.0 -5.9 -38.6 -2.1 -41.9 -1.8 -42.2 -0.35 -43.75 0.15 -44.6 0.45 -45.55 0.8 -48.45 0.6 -49.0 0.15 -49.95 Q-1.85 -51.3 -4.2 -52.15 L-7.15 -53.65 -7.55 -54.0 -7.7 -54.3 -7.55 -55.5 -6.75 -57.75 Q-5.95 -58.65 -5.3 -59.7 L-5.2 -60.4 -4.7 -61.65 -3.25 -65.1 -3.15 -65.8 -2.9 -66.2 -2.85 -66.5 -2.95 -67.1 -3.25 -67.75 Q-4.15 -69.6 -5.85 -70.4 L-6.2 -71.95 -6.3 -72.5 -5.9 -73.25 -5.85 -73.55 -5.7 -74.25 -5.5 -74.7 Q-4.7 -75.95 -4.35 -77.4 L-4.4 -77.5 Q-5.45 -78.85 -6.9 -77.8 L-6.95 -77.7 -6.95 -77.6 -7.05 -77.4 -7.2 -77.1 -7.65 -76.65 Q-9.75 -73.55 -12.3 -70.9 L-12.45 -70.65 -12.55 -70.35 Q-14.7 -67.75 -17.65 -65.95 -18.95 -65.65 -19.85 -64.85 L-20.35 -64.45 -24.85 -63.25 -27.2 -64.75 -32.5 -67.55 -32.5 -67.7 -32.95 -68.6 -36.25 -72.9 -40.85 -79.05 Q-40.95 -80.05 -40.45 -81.0 L-40.4 -81.75 -40.2 -82.6 Q-39.8 -84.25 -39.9 -86.0 L-40.2 -87.15 -40.65 -87.55 Q-44.3 -90.85 -48.5 -92.85 L-48.6 -93.1 -48.05 -93.7 -47.6 -93.95 -46.3 -94.65 -45.9 -94.9 Q-41.2 -96.3 -37.7 -99.7 L-37.2 -100.95 -37.35 -102.55 -37.35 -102.7 -37.8 -107.35 -36.7 -108.3 -35.55 -109.3 Q-29.85 -106.55 -23.6 -106.0 L-22.2 -106.25 -21.35 -106.6 Q-20.95 -107.15 -20.8 -107.85 L-20.1 -111.8 -20.15 -112.1 -20.2 -112.4 -20.25 -112.65 Q-20.2 -114.65 -19.05 -115.75 L-18.95 -116.1 -18.6 -116.35 -17.8 -117.1 Q-16.9 -118.2 -17.5 -119.25 L-17.4 -119.55 -17.35 -119.75 -17.7 -121.6 -18.2 -122.65 Q-7.5 -120.85 3.35 -120.8 L34.7 -120.8 36.45 -118.4 Q36.8 -117.9 37.1 -117.75" fill="#ffff00" fill-opacity="0.5019608" fill-rule="evenodd" stroke="none"/>
  </g>
</svg>
