<?xml version="1.0" encoding="UTF-8" standalone="no"?>
<svg xmlns:ffdec="https://www.free-decompiler.com/flash" xmlns:xlink="http://www.w3.org/1999/xlink" ffdec:objectType="shape" height="123.6px" width="72.5px" xmlns="http://www.w3.org/2000/svg">
  <g transform="matrix(1.0, 0.0, 0.0, 1.0, 29.6, 124.45)">
    <path d="M2.8 -99.95 Q6.3 -98.65 9.9 -97.55 L11.6 -96.95 Q15.95 -95.1 19.95 -95.9 21.0 -96.1 21.75 -96.85 L32.75 -106.65 Q36.05 -109.45 35.75 -114.05 35.7 -115.1 36.45 -115.9 37.25 -116.75 38.3 -116.75 42.05 -115.9 41.95 -111.7 L41.7 -110.1 Q41.4 -109.1 40.5 -108.55 38.6 -102.2 32.6 -98.45 29.6 -96.6 27.05 -94.1 24.05 -91.15 20.3 -89.45 L18.05 -89.3 Q10.05 -91.65 2.3 -94.45 L2.7 -92.0 3.65 -90.4 3.9 -89.5 Q9.5 -78.15 15.9 -67.3 L36.15 -64.95 37.45 -65.35 38.85 -64.5 39.1 -64.45 Q39.65 -64.35 39.8 -63.8 L40.0 -62.8 Q40.55 -61.1 39.4 -58.65 36.65 -53.05 34.85 -47.05 L31.9 -37.95 Q37.5 -35.75 42.35 -32.35 43.0 -31.9 42.85 -31.1 41.9 -26.5 37.3 -28.9 33.05 -31.1 29.25 -33.8 26.5 -33.6 26.7 -36.7 27.05 -41.35 28.45 -45.9 29.85 -50.65 31.9 -55.05 L33.85 -59.85 31.35 -60.0 18.95 -61.8 18.95 -61.25 19.2 -56.55 21.0 -38.2 Q21.6 -32.15 18.1 -27.2 17.05 -25.7 16.45 -23.95 14.05 -16.7 12.0 -9.45 18.3 -8.25 23.85 -4.8 24.5 -4.4 24.2 -3.65 22.6 0.65 17.8 -1.6 14.15 -3.35 10.05 -3.7 6.35 -4.0 5.65 -7.1 5.4 -8.3 5.8 -9.55 L11.55 -26.6 15.65 -36.5 15.7 -37.05 Q14.6 -49.5 12.65 -61.65 L12.55 -63.0 Q11.7 -63.4 11.15 -64.45 10.5 -65.7 10.0 -67.05 7.7 -70.0 6.2 -73.35 L4.3 -76.6 4.1 -77.15 Q2.6 -79.2 1.7 -81.6 L1.55 -82.2 Q-3.4 -89.2 -3.0 -97.05 -12.25 -96.25 -21.1 -93.25 L-24.05 -92.75 Q-23.55 -91.75 -22.5 -90.7 -20.6 -88.75 -18.45 -87.15 -12.55 -89.3 -12.0 -83.85 -11.75 -81.15 -14.25 -80.35 -16.85 -79.5 -19.25 -80.9 -21.85 -82.45 -24.0 -84.35 -27.3 -87.3 -29.35 -90.9 L-29.6 -92.0 Q-29.6 -98.3 -23.0 -98.8 -20.5 -99.0 -18.05 -99.7 -12.6 -101.35 -7.2 -102.45 -4.8 -102.95 -2.6 -102.45 L-5.9 -103.85 -5.95 -104.25 -5.95 -104.85 Q-8.9 -108.15 -8.9 -112.65 -8.9 -117.55 -5.45 -121.0 -2.0 -124.45 2.9 -124.45 7.8 -124.45 11.25 -121.0 14.7 -117.55 14.7 -112.65 14.7 -107.75 11.25 -104.3 7.85 -100.9 3.1 -100.85 L3.25 -100.45 2.45 -100.6 2.55 -100.05 2.8 -99.95" fill="#000000" fill-rule="evenodd" stroke="none"/>
  </g>
</svg>
