<?xml version="1.0" encoding="UTF-8" standalone="no"?>
<svg xmlns:ffdec="https://www.free-decompiler.com/flash" xmlns:xlink="http://www.w3.org/1999/xlink" ffdec:objectType="shape" height="159.15px" width="105.35px" xmlns="http://www.w3.org/2000/svg">
  <g transform="matrix(1.0, 0.0, 0.0, 1.0, 46.95, 139.3)">
    <path d="M23.15 -128.6 Q23.45 -125.55 23.25 -122.55 L22.9 -121.6 22.9 -121.05 22.65 -119.65 18.1 -119.6 12.7 -119.45 Q0.65 -119.05 -11.4 -118.9 L-15.85 -118.6 -15.85 -118.75 -17.4 -125.15 -17.65 -126.3 Q-18.8 -130.85 -20.45 -135.3 L-19.75 -139.3 -17.35 -137.85 -16.2 -137.1 -14.35 -135.9 Q-12.55 -134.7 -10.65 -134.1 L-8.05 -133.65 -7.75 -133.85 -7.4 -134.25 -6.65 -134.6 -6.4 -134.8 Q-5.3 -136.95 -2.35 -137.95 L-2.25 -137.95 -1.95 -137.9 Q1.0 -136.3 3.65 -135.2 L4.3 -134.95 6.6 -134.15 7.3 -133.6 Q7.65 -133.3 8.05 -133.2 L20.55 -130.85 21.5 -131.1 22.95 -131.75 23.2 -131.85 23.25 -131.75 23.5 -131.45 Q23.1 -130.85 23.15 -130.15 L23.15 -128.6 M40.3 -114.8 L42.9 -114.9 43.0 -114.3 43.1 -114.1 43.45 -113.25 43.65 -112.7 43.95 -111.95 44.6 -110.5 44.8 -110.2 45.05 -110.0 45.2 -109.75 45.4 -109.45 45.85 -108.85 46.25 -108.3 Q46.8 -107.6 47.45 -107.25 L49.6 -106.25 Q50.6 -105.8 51.65 -105.65 L52.1 -105.0 52.1 -104.75 Q52.0 -104.15 51.55 -103.65 49.4 -102.6 47.55 -101.25 L47.5 -100.9 47.5 -100.7 47.3 -100.35 47.15 -100.05 47.1 -99.35 47.1 -99.05 47.35 -98.1 48.15 -97.2 48.3 -96.9 49.2 -95.25 49.6 -94.7 Q50.75 -93.35 52.25 -92.15 L52.4 -91.6 54.55 -89.05 54.8 -88.5 54.65 -88.35 53.6 -87.35 52.55 -86.2 51.25 -84.7 51.05 -84.35 Q50.55 -83.65 50.6 -82.5 50.6 -80.2 51.4 -77.85 L51.65 -76.65 51.65 -76.35 51.6 -75.75 51.8 -73.45 51.2 -73.35 43.85 -71.45 43.2 -71.25 Q42.75 -71.1 42.4 -71.25 40.6 -71.9 38.8 -71.95 38.5 -71.95 38.7 -71.55 39.05 -71.1 39.65 -70.8 L39.65 -70.1 40.4 -68.55 41.6 -66.8 41.75 -66.45 42.5 -65.15 42.5 -64.8 Q42.45 -63.2 41.7 -62.05 L41.7 -61.75 41.5 -60.9 41.35 -60.1 41.45 -59.85 41.6 -59.3 41.75 -59.2 Q41.95 -59.05 42.25 -58.95 46.5 -57.6 50.95 -56.8 L54.25 -54.75 Q55.5 -54.3 55.5 -53.55 L55.25 -52.9 54.9 -51.45 54.3 -50.55 54.2 -50.45 54.05 -50.1 53.55 -48.55 Q53.45 -46.0 54.4 -43.15 L57.6 -40.7 58.3 -39.5 58.25 -39.35 Q58.6 -38.85 58.1 -38.6 L55.8 -37.9 Q52.1 -37.4 51.0 -35.75 50.8 -35.4 50.75 -34.9 50.8 -34.25 51.1 -33.55 L51.35 -32.85 51.45 -32.15 Q51.8 -30.4 52.5 -28.8 L52.6 -28.1 49.9 -28.0 48.35 -28.2 Q46.85 -28.45 45.05 -28.25 L45.0 -28.2 Q41.7 -28.0 39.75 -25.7 L39.6 -25.15 39.35 -24.0 39.6 -22.9 39.65 -22.55 39.8 -22.1 40.9 -20.55 42.1 -19.0 42.35 -18.6 43.5 -16.25 42.3 -15.25 42.2 -15.2 40.55 -14.35 Q38.4 -13.05 36.85 -10.85 L36.85 -10.5 36.85 -9.85 37.75 -7.7 38.05 -6.6 38.45 -5.6 38.75 -4.1 38.7 0.05 39.05 2.8 39.05 2.85 38.45 3.65 Q36.35 6.05 33.65 7.1 32.95 6.15 31.8 5.65 31.45 5.45 31.05 5.85 27.85 6.85 25.35 9.15 L24.25 10.0 24.1 10.15 24.1 10.2 23.65 10.7 22.7 11.55 16.45 17.85 15.4 18.75 13.3 19.85 12.9 19.75 10.9 18.25 10.1 17.4 Q7.45 14.4 5.2 12.5 4.8 12.15 4.25 11.95 L3.6 11.75 0.7 11.45 0.35 11.35 0.2 11.3 0.05 11.2 Q-1.05 10.75 -2.1 10.6 L-1.9 9.95 Q-1.6 9.25 -1.7 8.4 L-1.55 8.05 Q-0.8 6.35 -0.55 4.4 L-0.55 4.05 -0.65 3.0 -0.6 2.7 Q-0.05 1.55 -0.7 0.05 L-0.65 -0.5 Q-0.5 -1.75 -1.25 -3.05 L-2.4 -3.85 -2.85 -4.85 Q-4.75 -9.0 -7.25 -11.9 L-7.15 -12.0 -6.3 -12.8 Q-4.75 -14.2 -3.85 -15.5 L-3.75 -15.65 -3.0 -16.55 -1.15 -18.0 Q-0.35 -20.3 -1.8 -21.05 L-3.35 -23.6 -3.6 -23.85 -4.0 -24.4 -8.75 -28.15 -8.9 -28.35 -8.95 -28.45 -9.6 -29.3 -9.5 -29.9 -9.55 -30.15 -9.8 -31.0 -8.35 -34.35 -5.75 -36.85 -2.1 -40.0 -1.9 -40.3 -0.5 -41.85 -0.2 -42.75 Q-0.1 -43.35 -0.25 -43.8 L-1.2 -46.65 -1.55 -47.1 -2.2 -47.9 -6.35 -50.1 -8.95 -51.9 -9.15 -52.4 -9.2 -52.8 -9.0 -53.95 -8.1 -56.15 Q-7.2 -56.9 -6.6 -57.95 L-6.4 -58.6 -5.7 -59.7 -3.9 -62.85 -3.8 -63.5 -3.4 -63.9 -3.25 -64.2 -3.2 -64.8 -3.2 -65.45 Q-3.1 -67.6 -4.45 -69.05 L-5.05 -70.4 -5.35 -70.95 -4.95 -71.65 -4.9 -71.95 -4.85 -72.6 -4.65 -73.0 Q-3.7 -74.15 -3.55 -75.65 L-3.6 -75.75 Q-4.6 -77.0 -6.1 -76.15 L-6.1 -76.1 -6.1 -76.0 -6.25 -75.85 -6.45 -75.5 -6.85 -75.05 Q-9.0 -72.2 -11.5 -69.7 L-11.7 -69.45 -11.85 -69.25 Q-14.0 -66.85 -16.7 -65.05 L-18.85 -63.8 -19.45 -63.55 -23.9 -62.6 Q-24.15 -64.2 -24.8 -65.75 -26.0 -68.5 -28.25 -71.2 L-28.25 -71.25 -28.8 -72.0 -33.8 -74.45 -40.8 -78.15 Q-40.95 -79.05 -40.1 -79.85 L-40.05 -80.6 -39.75 -81.3 Q-39.1 -82.85 -39.15 -84.5 L-39.4 -85.65 -39.8 -86.05 Q-43.05 -89.5 -46.8 -92.05 L-46.95 -92.25 -46.2 -92.7 -45.7 -92.85 -44.3 -93.25 -43.85 -93.4 Q-39.0 -93.95 -35.55 -97.1 L-35.35 -98.3 -35.5 -99.85 -35.5 -100.0 -36.2 -104.45 -35.95 -106.15 -35.85 -108.15 Q-30.65 -105.1 -24.6 -104.35 -23.75 -104.25 -23.25 -104.65 L-22.5 -105.15 Q-22.15 -105.7 -21.95 -106.3 -21.15 -108.05 -20.85 -109.95 L-20.8 -110.25 -20.8 -110.6 -20.8 -110.8 -20.45 -112.95 -18.75 -112.95 -2.15 -113.95 16.3 -114.15 31.1 -114.5 33.15 -112.35 Q33.6 -111.9 33.95 -111.95 L35.15 -112.25 35.5 -112.4 36.25 -112.6 Q38.5 -113.55 40.3 -114.8" fill="#ffff00" fill-opacity="0.5019608" fill-rule="evenodd" stroke="none"/>
  </g>
</svg>
