<?xml version="1.0" encoding="UTF-8" standalone="no"?>
<svg xmlns:ffdec="https://www.free-decompiler.com/flash" xmlns:xlink="http://www.w3.org/1999/xlink" ffdec:objectType="shape" height="124.8px" width="72.75px" xmlns="http://www.w3.org/2000/svg">
  <g transform="matrix(1.0, 0.0, 0.0, 1.0, 29.5, 123.35)">
    <path d="M14.7 -111.55 Q14.7 -106.65 11.25 -103.2 7.9 -99.85 3.2 -99.75 L3.25 -99.4 3.25 -99.35 3.25 -98.7 Q6.9 -97.0 10.15 -94.55 13.9 -91.8 18.3 -90.85 L35.15 -103.75 Q36.15 -104.45 36.1 -105.7 36.05 -108.55 37.7 -110.65 38.45 -111.65 39.55 -111.7 44.85 -110.65 42.55 -105.55 38.8 -97.15 30.5 -92.8 L28.35 -91.35 Q24.25 -87.7 19.15 -85.95 L15.85 -85.85 Q12.0 -86.8 8.8 -89.15 L4.05 -92.35 7.35 -81.05 Q10.65 -72.55 14.7 -64.35 21.45 -63.55 27.9 -61.2 L30.5 -60.5 Q35.25 -59.8 38.8 -57.15 L39.15 -57.35 Q43.8 -55.35 39.85 -51.95 38.3 -50.6 36.5 -49.5 29.25 -44.9 22.8 -39.25 L22.85 -38.85 23.85 -36.75 Q24.85 -33.95 26.85 -31.75 28.95 -29.45 28.7 -26.55 28.55 -24.25 26.15 -24.65 23.7 -25.0 22.35 -27.25 L18.65 -33.6 18.2 -32.15 Q15.75 -20.1 10.6 -9.05 10.6 -7.65 10.25 -6.5 L20.5 -4.0 Q22.65 -3.5 23.2 -1.45 23.9 1.3 21.0 1.45 17.5 1.6 14.0 0.6 9.1 -0.8 5.0 -3.55 4.55 -3.85 4.6 -4.5 L4.7 -5.2 Q3.9 -7.25 4.95 -9.55 9.9 -20.8 12.7 -32.9 13.5 -36.45 15.25 -39.65 15.9 -40.85 17.1 -40.95 15.6 -49.15 11.95 -56.55 10.75 -58.95 10.0 -61.5 L9.3 -62.55 Q6.6 -67.75 4.95 -73.35 3.15 -76.7 2.05 -80.35 L2.0 -80.95 Q-1.05 -88.15 -2.05 -95.9 L-4.05 -95.8 Q-8.5 -96.1 -12.6 -94.7 L-21.6 -91.6 -17.25 -87.9 Q-16.25 -87.15 -15.1 -86.55 -9.9 -89.0 -7.5 -84.25 -7.0 -83.35 -7.1 -82.2 -7.6 -77.9 -12.55 -79.35 -17.65 -80.85 -21.7 -84.2 L-24.65 -86.65 -25.4 -87.5 Q-31.4 -89.95 -28.65 -95.3 -28.3 -95.9 -27.65 -96.1 L-8.8 -100.85 -5.7 -101.4 -4.65 -101.6 -3.55 -101.8 Q-4.7 -102.35 -5.9 -102.75 L-5.95 -103.15 -5.95 -103.75 Q-8.9 -107.05 -8.9 -111.55 -8.9 -116.45 -5.45 -119.9 -2.0 -123.35 2.9 -123.35 7.8 -123.35 11.25 -119.9 14.7 -116.45 14.7 -111.55 M18.95 -54.75 L21.55 -45.5 Q27.1 -50.2 33.1 -53.9 L22.5 -56.9 17.85 -58.15 18.95 -54.75" fill="#000000" fill-rule="evenodd" stroke="none"/>
  </g>
</svg>
