<?xml version="1.0" encoding="UTF-8" standalone="no"?>
<svg xmlns:ffdec="https://www.free-decompiler.com/flash" xmlns:xlink="http://www.w3.org/1999/xlink" ffdec:objectType="shape" height="161.7px" width="102.3px" xmlns="http://www.w3.org/2000/svg">
  <g transform="matrix(1.0, 0.0, 0.0, 1.0, 45.3, 139.45)">
    <path d="M46.15 -108.45 L46.25 -108.3 33.85 -108.5 Q38.0 -112.2 40.6 -117.35 42.75 -112.4 46.15 -108.45 M29.35 -103.25 L32.85 -103.2 52.95 -102.9 51.55 -101.7 51.55 -101.05 51.1 -100.45 51.1 -99.8 51.1 -98.55 51.85 -97.6 51.95 -97.25 Q52.65 -94.15 54.9 -91.9 L54.9 -91.3 57.0 -88.1 50.3 -84.55 49.8 -84.1 Q48.5 -83.35 47.95 -81.95 46.15 -77.15 47.35 -71.95 L37.15 -73.05 Q32.15 -73.65 27.2 -72.95 26.65 -72.85 26.75 -72.25 26.95 -71.55 27.55 -71.0 L27.55 -70.35 Q28.65 -68.65 30.2 -67.5 L30.4 -67.2 31.35 -65.95 31.35 -65.65 Q31.2 -64.1 30.1 -63.1 L30.05 -62.8 29.25 -61.2 29.25 -60.9 29.25 -60.25 29.85 -59.8 Q36.7 -57.05 44.15 -56.15 46.25 -55.9 46.7 -55.3 L46.55 -54.7 46.5 -53.1 45.85 -52.05 Q43.8 -48.7 44.4 -44.6 L49.45 -40.8 49.5 -40.6 Q50.15 -39.95 49.65 -39.65 48.75 -38.9 47.55 -38.75 41.7 -37.85 43.95 -33.15 L44.0 -32.5 Q44.4 -30.2 45.65 -28.1 42.0 -26.9 38.1 -27.2 34.75 -27.45 33.05 -25.05 L33.05 -24.4 33.05 -23.15 34.1 -21.5 Q38.65 -15.45 43.85 -9.9 43.5 -9.3 42.6 -8.85 38.15 -8.7 35.15 -6.1 L35.15 -5.8 35.15 -5.15 Q36.0 -3.2 37.45 -1.6 42.0 3.45 42.3 9.95 37.95 12.4 32.6 12.6 31.05 10.55 28.9 9.15 L27.6 9.05 Q24.15 10.85 20.8 13.3 14.85 17.65 9.7 22.25 L9.3 22.15 Q5.1 18.8 2.6 14.05 2.1 13.05 1.2 12.5 -1.75 10.75 -4.8 11.0 L-4.45 10.4 Q-3.95 9.7 -3.95 8.8 L-3.65 8.5 Q-1.85 6.25 -1.45 3.45 L-1.2 3.15 Q0.1 1.85 -0.2 0.0 L0.2 -0.65 Q0.95 -2.15 0.55 -3.8 -3.55 -8.95 -9.1 -11.7 -5.05 -14.0 -1.15 -16.4 -0.55 -18.8 -3.0 -19.25 -7.45 -22.45 -11.35 -26.1 L-11.45 -26.4 Q-11.55 -26.95 -11.95 -27.35 L-11.55 -28.0 -11.55 -28.3 -11.55 -29.25 Q-7.15 -33.9 -2.1 -38.1 L-1.95 -38.4 Q-1.55 -39.35 -0.7 -39.95 -0.55 -40.45 -0.55 -40.9 -0.6 -41.55 -0.9 -42.0 -3.55 -46.1 -8.5 -48.05 L-10.7 -50.15 -10.7 -50.8 Q-10.55 -52.8 -9.45 -54.6 -8.1 -55.3 -7.65 -56.8 -5.95 -58.5 -4.5 -60.6 L-4.4 -61.2 -3.65 -61.85 -3.45 -62.45 Q-1.4 -66.35 -4.4 -69.4 L-3.95 -70.05 -3.95 -70.35 -3.95 -71.0 -3.75 -71.3 Q-2.7 -72.35 -2.7 -73.85 -3.65 -75.2 -5.25 -74.45 L-5.45 -74.25 Q-10.8 -67.45 -17.85 -62.7 L-22.9 -61.95 Q-21.5 -68.65 -23.95 -74.85 -24.2 -75.4 -24.7 -75.45 L-40.75 -77.2 Q-40.9 -78.05 -39.8 -78.75 L-39.7 -79.4 -39.25 -80.05 Q-38.05 -81.9 -38.55 -84.15 -41.7 -88.0 -45.3 -91.4 L-42.25 -91.85 Q-36.95 -91.5 -33.4 -94.45 -33.4 -95.85 -33.7 -97.2 -34.65 -102.25 -36.15 -107.05 -31.4 -103.65 -25.6 -102.65 -24.75 -102.55 -24.3 -103.05 L-22.65 -105.25 -3.4 -103.95 0.4 -103.75 29.35 -103.25 M24.3 -131.25 L24.35 -131.05 24.65 -130.4 Q24.05 -129.05 23.9 -127.6 23.5 -122.7 22.0 -118.1 L21.25 -117.15 21.1 -116.6 Q19.35 -113.7 19.7 -110.5 L20.65 -110.0 25.15 -110.1 26.9 -108.6 -0.25 -109.1 -4.05 -109.3 -21.15 -110.4 -21.2 -112.75 -19.3 -112.5 Q-15.65 -112.65 -14.05 -115.9 -14.05 -119.2 -14.35 -122.5 -15.05 -130.65 -17.2 -138.5 L-14.0 -136.05 -12.4 -134.75 Q-9.5 -132.45 -6.4 -132.6 L-6.25 -132.95 -6.05 -133.55 -5.35 -134.15 -5.25 -134.5 Q-4.9 -137.75 -2.1 -139.45 L-1.75 -139.4 Q3.4 -136.05 7.7 -131.8 8.05 -131.45 8.45 -131.4 16.35 -130.65 24.3 -131.25" fill="#ffff00" fill-opacity="0.5019608" fill-rule="evenodd" stroke="none"/>
  </g>
</svg>
