<?xml version="1.0" encoding="UTF-8" standalone="no"?>
<svg xmlns:ffdec="https://www.free-decompiler.com/flash" xmlns:xlink="http://www.w3.org/1999/xlink" ffdec:objectType="shape" height="125.4px" width="70.1px" xmlns="http://www.w3.org/2000/svg">
  <g transform="matrix(1.0, 0.0, 0.0, 1.0, 28.6, 121.7)">
    <path d="M14.7 -109.9 Q14.7 -105.0 11.25 -101.55 7.85 -98.15 3.1 -98.1 L3.25 -97.7 2.2 -97.9 2.25 -96.45 2.45 -96.35 Q9.85 -91.85 17.35 -87.65 24.3 -89.8 29.45 -95.6 30.3 -96.6 31.4 -97.4 L33.15 -99.05 Q32.9 -101.0 33.6 -102.85 34.25 -104.7 36.2 -104.8 42.35 -105.3 41.35 -99.5 41.15 -98.15 40.0 -97.2 31.9 -90.15 23.15 -84.1 18.6 -80.95 13.5 -83.5 8.55 -85.9 4.0 -89.05 L3.15 -89.4 Q6.5 -78.0 11.3 -66.85 12.1 -64.95 12.35 -63.0 L13.45 -61.85 13.9 -61.9 Q25.0 -56.75 35.65 -50.3 37.05 -49.45 37.5 -47.95 L37.55 -47.8 37.75 -46.55 Q37.75 -45.1 36.55 -44.7 L36.05 -44.2 Q34.0 -42.25 31.5 -40.85 27.0 -38.35 22.4 -36.0 22.75 -33.15 21.35 -30.3 L20.3 -28.8 Q20.3 -27.95 19.85 -27.25 L19.05 -26.25 Q19.1 -25.6 18.8 -25.0 L18.35 -24.25 19.45 -23.35 Q22.05 -21.25 21.95 -18.4 21.9 -16.8 20.4 -16.7 18.15 -16.5 16.35 -17.8 14.6 -11.25 13.6 -4.5 L13.15 -2.4 Q19.6 -2.35 25.45 -0.1 25.85 0.05 25.95 0.55 26.45 2.95 24.15 3.4 L16.7 3.15 10.1 2.7 Q8.2 2.9 7.9 1.1 7.2 -2.95 8.3 -6.8 L9.05 -10.15 Q10.0 -15.35 11.6 -20.3 L12.0 -22.45 10.75 -23.65 Q7.95 -26.2 6.0 -29.1 4.7 -29.55 4.55 -31.55 L4.5 -31.6 Q4.0 -32.55 4.85 -33.35 5.55 -34.0 6.4 -34.1 L15.9 -38.9 15.9 -39.2 14.1 -43.7 13.7 -44.9 Q12.95 -45.7 12.65 -46.75 12.45 -47.4 12.55 -48.05 10.9 -53.15 8.7 -58.1 L8.35 -59.4 7.75 -60.5 Q7.15 -61.05 6.85 -61.9 L3.9 -70.0 Q0.9 -78.05 -1.35 -86.3 -3.05 -90.0 -3.25 -93.75 -12.5 -92.4 -21.55 -90.2 -18.2 -87.35 -14.4 -85.15 -8.35 -87.75 -6.9 -82.35 -6.5 -80.85 -7.9 -80.15 -12.95 -77.55 -17.85 -80.6 -19.45 -81.55 -20.95 -82.65 L-23.3 -84.85 Q-28.7 -86.9 -28.6 -92.1 -28.6 -93.15 -27.5 -93.6 -19.2 -96.85 -10.25 -98.05 L-3.75 -99.35 -3.05 -99.35 -4.2 -99.75 -4.0 -100.3 -5.45 -101.55 Q-8.9 -105.0 -8.9 -109.9 -8.9 -114.8 -5.45 -118.25 -2.0 -121.7 2.9 -121.7 7.8 -121.7 11.25 -118.25 14.7 -114.8 14.7 -109.9 M16.95 -51.5 Q18.7 -46.45 20.75 -41.45 L27.6 -45.35 30.2 -46.8 16.15 -55.1 16.95 -51.5 M16.35 -33.0 L11.75 -30.85 12.2 -30.3 14.1 -28.2 14.35 -28.85 15.05 -29.75 Q15.15 -31.1 15.85 -32.3 L16.35 -33.0" fill="#000000" fill-rule="evenodd" stroke="none"/>
  </g>
</svg>
