<?xml version="1.0" encoding="UTF-8" standalone="no"?>
<svg xmlns:ffdec="https://www.free-decompiler.com/flash" xmlns:xlink="http://www.w3.org/1999/xlink" ffdec:objectType="shape" height="156.85px" width="99.7px" xmlns="http://www.w3.org/2000/svg">
  <g transform="matrix(1.0, 0.0, 0.0, 1.0, 42.7, 140.1)">
    <path d="M20.8 -129.3 L21.55 -128.55 22.85 -127.7 Q23.5 -125.95 23.75 -123.9 L23.9 -122.75 23.8 -121.9 23.85 -121.35 Q23.8 -118.6 24.7 -115.7 L25.35 -115.05 Q26.55 -114.75 27.65 -113.9 L28.7 -113.45 28.95 -113.5 33.8 -113.2 34.65 -113.45 Q38.35 -115.95 41.5 -118.95 L41.85 -119.0 42.05 -119.0 42.15 -118.95 42.25 -118.9 42.45 -118.85 43.4 -118.9 43.85 -118.9 44.25 -119.0 44.45 -118.35 Q45.9 -113.7 48.85 -110.0 L50.0 -109.0 51.7 -108.05 Q53.7 -107.1 55.8 -106.5 L56.9 -105.75 57.0 -105.55 57.0 -105.5 57.0 -104.9 56.95 -104.6 56.7 -104.35 55.85 -103.6 54.05 -102.15 53.3 -101.65 53.05 -101.15 52.55 -100.65 52.3 -100.1 52.1 -99.5 47.9 -99.35 46.0 -99.3 22.3 -99.85 19.15 -100.05 11.35 -100.5 -11.9 -101.8 -21.6 -102.45 -20.9 -102.6 Q-20.25 -102.75 -19.75 -103.2 L-17.55 -105.6 -17.4 -106.25 -17.3 -106.85 Q-17.5 -108.05 -18.15 -108.85 L-19.45 -110.9 -19.5 -111.0 -19.35 -111.25 -18.75 -113.55 Q-17.85 -114.2 -17.1 -115.15 -15.85 -117.6 -14.85 -120.2 L-14.7 -121.0 -14.7 -122.25 -14.85 -122.55 Q-17.7 -128.15 -19.4 -134.45 L-19.2 -134.65 -15.6 -133.4 -13.75 -132.75 -11.4 -132.05 -9.6 -132.25 -9.45 -132.4 -8.4 -133.15 -8.25 -133.55 -8.2 -133.7 -8.15 -134.2 -8.15 -134.25 -7.55 -134.85 -7.5 -134.95 -7.35 -135.25 -5.85 -138.2 -5.45 -138.7 -4.2 -139.9 -3.75 -140.1 -3.1 -140.05 -2.5 -139.9 5.55 -133.75 6.25 -133.35 Q12.75 -131.0 19.2 -129.2 L20.2 -129.5 20.35 -129.5 20.8 -129.3 M54.55 -92.35 L54.7 -91.8 56.6 -88.6 55.3 -85.25 53.25 -84.7 52.75 -84.5 Q51.35 -84.1 50.3 -83.4 47.05 -80.95 45.25 -78.35 L44.5 -78.4 Q41.75 -78.55 40.0 -77.45 L38.9 -76.5 38.0 -75.7 33.9 -71.9 32.3 -71.95 Q31.8 -71.9 31.65 -71.65 L31.35 -71.1 31.05 -70.8 30.5 -69.4 30.4 -69.25 30.25 -68.55 30.1 -68.4 Q29.45 -67.65 28.4 -67.1 L28.0 -66.8 27.9 -66.6 27.75 -66.35 27.55 -65.45 27.45 -64.85 27.5 -64.55 27.55 -63.95 27.95 -63.4 Q29.8 -61.55 32.3 -60.25 L32.55 -60.0 32.7 -59.8 33.0 -59.6 33.7 -59.2 34.1 -58.8 34.65 -58.35 34.7 -57.35 Q35.15 -57.05 34.8 -56.45 L34.35 -55.95 33.7 -54.85 32.9 -54.0 32.6 -53.65 32.45 -53.0 32.4 -52.7 32.5 -52.15 Q33.3 -50.6 34.75 -48.8 L40.1 -46.0 40.25 -45.85 40.85 -45.2 40.95 -44.3 40.9 -43.85 40.45 -43.45 Q38.6 -41.7 38.4 -39.3 L38.5 -38.6 38.5 -38.3 38.5 -37.9 38.8 -36.05 40.65 -34.2 Q40.75 -32.6 38.95 -31.05 L37.7 -29.85 Q36.15 -29.25 34.9 -28.1 L34.65 -27.6 34.15 -26.7 34.0 -25.35 33.75 -22.05 34.15 -20.95 35.1 -18.65 Q36.25 -17.2 37.55 -15.95 L37.9 -15.45 39.05 -13.9 38.9 -13.2 38.7 -12.8 38.65 -12.75 38.5 -12.55 38.4 -12.4 38.1 -11.5 37.65 -11.25 37.0 -10.65 Q35.2 -9.85 33.6 -8.7 L33.45 -8.45 33.2 -8.0 32.7 -5.7 32.95 -5.1 32.95 -5.0 33.25 -4.3 34.05 -3.4 Q37.95 0.25 39.7 4.9 39.35 6.65 38.6 8.15 L34.5 9.0 Q32.65 8.3 30.6 8.15 L29.4 8.4 28.35 9.0 27.45 10.45 25.55 14.15 25.2 15.0 24.6 15.25 15.85 16.55 14.4 16.75 14.0 16.65 Q11.65 15.45 9.5 14.75 7.55 14.1 5.8 13.15 L4.0 12.55 -0.05 12.05 -1.4 11.25 -1.35 10.65 -1.35 9.2 -1.25 8.85 Q-1.0 7.7 -0.9 6.4 L-1.0 4.2 -0.95 3.85 Q-0.8 2.55 -1.65 1.45 L-1.85 1.05 Q-2.1 0.25 -3.1 -0.25 L-3.5 -0.35 Q-6.7 -1.1 -9.95 -2.4 L-10.05 -2.6 -10.5 -3.1 -10.6 -3.3 -11.95 -5.6 -9.4 -9.8 Q-8.7 -11.0 -8.7 -11.7 L-8.85 -11.9 Q-9.55 -13.45 -11.6 -13.65 L-11.7 -13.7 -12.35 -15.05 -14.65 -21.9 -14.65 -22.25 -14.75 -23.2 -14.45 -23.9 -14.45 -24.2 -14.4 -24.45 -14.35 -25.15 Q-13.15 -27.75 -13.6 -29.6 L-12.3 -30.9 -8.05 -32.9 -7.75 -33.1 -6.25 -34.15 -5.65 -34.75 -5.35 -35.5 -5.3 -36.55 -5.45 -37.2 -6.0 -38.55 -6.25 -38.8 -8.5 -40.8 -9.1 -41.15 -9.55 -41.45 -9.8 -41.65 -9.8 -41.7 -10.1 -42.15 -11.2 -43.35 -11.1 -43.65 -10.75 -44.0 Q-9.8 -45.05 -8.35 -45.95 -6.95 -46.35 -5.95 -47.1 -3.95 -48.0 -2.05 -49.0 L-1.65 -49.3 -0.85 -49.65 -0.4 -49.95 0.2 -50.35 0.4 -50.75 0.65 -51.4 0.65 -51.65 Q0.5 -52.45 0.0 -53.05 L-0.05 -53.65 -0.3 -54.8 -1.4 -55.75 -1.45 -56.3 -1.55 -56.5 -1.8 -56.95 -1.9 -57.2 Q-1.95 -58.05 -2.5 -59.15 L-3.5 -59.8 -4.55 -60.6 -4.65 -60.7 -5.3 -60.9 -9.35 -61.5 Q-12.45 -59.8 -15.7 -58.5 L-16.3 -58.4 -16.65 -58.55 -17.0 -58.8 -17.45 -59.05 -18.1 -59.15 -19.1 -59.85 -19.35 -59.9 Q-19.35 -62.3 -19.7 -64.6 -20.1 -65.9 -20.8 -66.2 L-23.85 -67.7 -24.7 -67.8 -29.1 -67.15 -30.25 -67.35 -35.15 -72.85 Q-35.2 -73.75 -34.65 -74.6 L-34.6 -75.25 -34.35 -75.95 -34.3 -76.3 Q-34.05 -77.3 -34.35 -78.05 L-35.1 -79.55 Q-38.3 -82.4 -42.15 -84.2 L-42.65 -84.65 -42.7 -84.7 -40.4 -86.1 Q-39.45 -86.5 -38.5 -87.0 -35.55 -88.5 -33.1 -90.95 L-32.4 -93.35 -31.45 -97.5 -27.55 -97.1 -2.15 -95.7 19.45 -94.65 22.1 -94.55 Q34.05 -94.2 46.0 -94.0 L47.9 -94.0 53.45 -93.95 54.55 -92.35" fill="#ffff00" fill-opacity="0.5019608" fill-rule="evenodd" stroke="none"/>
  </g>
</svg>
