<?xml version="1.0" encoding="UTF-8" standalone="no"?>
<svg xmlns:ffdec="https://www.free-decompiler.com/flash" xmlns:xlink="http://www.w3.org/1999/xlink" ffdec:objectType="shape" height="157.5px" width="98.85px" xmlns="http://www.w3.org/2000/svg">
  <g transform="matrix(1.0, 0.0, 0.0, 1.0, 40.15, 141.45)">
    <path d="M22.2 -131.35 Q23.95 -130.2 25.1 -128.45 28.8 -123.05 31.45 -117.25 L32.4 -116.7 Q39.0 -120.95 45.45 -125.45 L45.85 -125.1 46.05 -124.8 46.05 -124.5 46.05 -124.2 46.3 -123.9 47.35 -122.6 Q47.25 -121.95 47.55 -121.4 L48.0 -120.05 Q49.1 -113.45 53.85 -109.05 56.0 -107.05 58.7 -105.45 L58.65 -104.85 58.6 -104.55 Q57.85 -104.05 57.45 -103.4 56.85 -102.45 55.9 -102.05 51.8 -100.3 51.95 -96.35 L52.7 -95.5 58.25 -84.95 42.3 -84.8 Q39.4 -84.85 38.5 -82.35 L38.6 -80.15 Q39.15 -75.5 38.9 -70.65 32.7 -72.0 26.35 -70.8 L25.45 -70.15 25.55 -69.2 Q26.05 -65.25 29.15 -62.6 L29.25 -62.25 29.25 -61.95 29.45 -61.65 30.0 -61.0 30.15 -60.4 30.4 -59.75 Q24.35 -59.05 19.6 -55.75 L19.6 -55.1 19.6 -54.8 20.15 -54.4 Q28.15 -52.3 35.85 -49.35 L35.6 -48.8 Q34.65 -46.65 33.05 -45.0 L33.0 -43.75 33.15 -41.55 35.65 -40.3 Q40.55 -37.8 39.65 -32.7 34.5 -30.25 30.5 -26.4 L30.5 -25.15 30.6 -22.65 Q31.7 -21.2 33.05 -20.1 L33.3 -19.5 34.7 -17.25 34.75 -16.65 34.8 -16.3 35.1 -16.0 36.0 -14.45 35.75 -14.1 35.25 -13.15 28.4 -9.25 28.4 -8.65 28.4 -7.7 29.3 -6.85 Q36.3 -2.55 40.2 4.3 34.75 5.35 30.1 8.4 L30.05 10.3 Q29.95 13.2 30.5 15.95 L29.9 16.05 Q25.15 14.25 20.75 11.95 17.3 10.2 13.6 11.2 8.3 12.65 2.75 13.0 1.25 10.1 0.3 6.9 -1.45 1.0 -7.3 3.5 -11.1 5.1 -14.5 4.7 L-14.55 4.4 -14.9 3.75 -14.9 3.45 -14.65 -5.05 Q-14.6 -6.7 -16.0 -7.25 -18.4 -8.15 -20.35 -8.1 -20.5 -8.95 -20.25 -9.75 -18.55 -15.05 -17.3 -20.4 -16.5 -23.95 -19.95 -25.7 L-18.8 -26.95 Q-13.4 -27.45 -8.5 -29.55 L-8.3 -30.2 -8.2 -31.75 -8.4 -32.05 Q-9.45 -33.05 -10.05 -34.3 L-10.5 -34.6 -10.9 -34.95 -11.1 -35.25 -11.35 -35.85 Q-12.15 -36.4 -12.4 -37.15 -4.75 -37.6 3.4 -37.35 L3.65 -37.6 4.0 -38.2 3.95 -38.45 Q3.55 -39.2 2.75 -39.55 L2.75 -40.2 2.75 -41.45 -3.55 -45.1 Q-4.0 -47.0 -4.05 -48.9 -4.2 -53.05 -6.7 -55.75 L-14.15 -54.25 -14.5 -54.6 -14.55 -55.2 -14.8 -55.85 -15.35 -56.15 -15.85 -57.75 Q-16.35 -60.15 -17.0 -62.45 -17.8 -63.75 -19.1 -63.1 -23.6 -60.3 -28.9 -58.5 L-30.05 -58.8 Q-29.45 -65.5 -29.5 -72.35 -29.5 -73.4 -30.25 -73.95 -34.35 -77.15 -39.8 -77.7 L-40.15 -78.05 -37.2 -82.15 -27.65 -93.8 -27.55 -94.45 -27.5 -95.7 Q-19.5 -99.65 -12.8 -105.35 L-12.8 -106.0 -12.8 -106.65 Q-13.65 -107.7 -15.1 -107.8 -16.75 -108.7 -18.6 -109.35 -20.9 -110.85 -22.05 -113.15 -18.4 -115.45 -15.0 -118.2 L-14.95 -118.85 -14.9 -120.1 -15.15 -120.35 Q-20.15 -124.75 -21.75 -130.8 L-12.6 -130.8 Q-11.55 -130.85 -11.1 -131.85 L-11.1 -132.2 Q-11.1 -133.1 -10.4 -133.75 L-10.3 -134.4 -10.3 -135.0 -9.7 -135.7 -7.65 -138.8 -7.25 -139.2 -5.35 -141.3 -4.75 -141.4 Q5.4 -134.5 15.15 -127.25 L22.2 -131.35" fill="#ffff00" fill-opacity="0.5019608" fill-rule="evenodd" stroke="none"/>
  </g>
</svg>
