<?xml version="1.0" encoding="UTF-8" standalone="no"?>
<svg xmlns:ffdec="https://www.free-decompiler.com/flash" xmlns:xlink="http://www.w3.org/1999/xlink" ffdec:objectType="shape" height="127.85px" width="67.65px" xmlns="http://www.w3.org/2000/svg">
  <g transform="matrix(1.0, 0.0, 0.0, 1.0, 27.8, 126.05)">
    <path d="M19.1 -114.25 Q19.1 -109.35 15.65 -105.9 12.25 -102.5 7.5 -102.45 L7.55 -102.35 7.75 -101.85 6.6 -101.85 7.85 -98.9 Q14.75 -95.0 17.85 -87.1 L18.8 -85.2 20.55 -82.05 Q27.25 -82.8 33.1 -86.1 30.45 -90.4 35.1 -91.6 37.8 -92.3 39.1 -89.8 41.1 -85.9 37.9 -82.8 34.0 -79.05 28.65 -77.55 23.1 -75.95 17.55 -76.4 16.65 -76.5 16.15 -77.25 15.0 -79.05 14.6 -81.05 L12.0 -85.05 Q11.4 -86.05 11.1 -87.1 L10.1 -88.6 10.2 -86.3 10.35 -73.2 Q10.35 -64.6 7.75 -56.7 7.3 -54.2 6.1 -52.45 L6.15 -51.8 Q10.25 -48.75 10.95 -43.15 L11.0 -42.85 Q12.1 -41.85 12.6 -40.5 L12.7 -39.45 Q15.35 -33.15 16.35 -26.3 16.45 -25.5 16.05 -24.8 L4.6 -4.5 Q7.5 -4.85 9.3 -2.6 10.5 -1.05 8.95 0.2 5.95 2.7 1.75 1.35 L-0.55 0.6 Q-4.15 -0.6 -2.55 -3.9 L-1.3 -6.1 -0.55 -7.1 Q0.85 -10.0 2.75 -12.7 L3.5 -13.8 Q3.4 -14.75 3.9 -15.5 L4.75 -16.5 9.85 -24.9 Q10.85 -26.4 10.65 -28.25 8.8 -32.75 7.25 -37.3 7.0 -38.0 7.1 -38.7 5.85 -40.0 5.4 -41.75 L5.3 -42.7 Q4.6 -43.45 4.45 -44.4 L4.4 -45.4 4.35 -45.45 3.7 -44.6 Q-0.15 -36.1 -2.05 -27.15 -2.15 -26.6 -2.55 -26.15 -2.5 -25.25 -2.6 -24.5 -2.65 -23.25 -4.15 -21.65 -9.5 -15.95 -15.3 -10.7 L-17.75 -7.95 -20.05 -4.95 Q-15.65 -5.0 -15.55 -0.9 -15.5 0.8 -17.25 1.05 -20.6 1.5 -23.85 0.5 -26.0 -0.1 -27.25 -1.9 -28.3 -3.45 -27.35 -5.1 -21.2 -15.2 -11.85 -22.15 L-10.4 -23.55 -8.25 -25.7 Q-8.3 -27.65 -7.35 -29.25 -7.0 -35.85 -3.9 -41.55 -1.9 -45.15 -0.45 -49.0 L0.3 -51.45 Q-0.65 -54.0 1.45 -56.7 2.35 -57.85 2.55 -59.25 L2.75 -60.35 Q4.5 -66.9 4.5 -73.75 L4.45 -86.55 Q4.45 -90.35 3.45 -93.75 -0.8 -90.2 -4.7 -86.4 L-5.75 -85.25 Q-9.75 -80.15 -14.35 -76.1 L-15.75 -76.0 Q-19.0 -77.85 -18.0 -82.05 -20.0 -87.2 -17.75 -92.6 L-16.55 -95.8 Q-15.2 -99.8 -11.65 -101.0 -5.35 -100.4 -6.2 -94.3 -6.45 -92.8 -7.9 -92.2 -9.85 -91.35 -11.5 -92.7 L-12.3 -88.65 -13.2 -85.85 Q-6.95 -93.4 1.25 -98.7 L0.1 -100.45 Q-1.2 -102.3 -1.6 -104.4 -1.8 -105.6 -1.55 -106.4 -4.5 -109.7 -4.5 -114.25 -4.5 -119.15 -1.05 -122.6 2.4 -126.05 7.3 -126.05 12.2 -126.05 15.65 -122.6 19.1 -119.15 19.1 -114.25" fill="#000000" fill-rule="evenodd" stroke="none"/>
  </g>
</svg>
