<?xml version="1.0" encoding="UTF-8" standalone="no"?>
<svg xmlns:ffdec="https://www.free-decompiler.com/flash" xmlns:xlink="http://www.w3.org/1999/xlink" ffdec:objectType="shape" height="165.8px" width="112.05px" xmlns="http://www.w3.org/2000/svg">
  <g transform="matrix(1.0, 0.0, 0.0, 1.0, 47.25, 139.85)">
    <path d="M5.85 -128.2 L6.25 -127.9 Q10.4 -126.6 14.05 -130.0 L14.6 -130.0 Q16.6 -128.25 18.05 -125.95 L18.3 -124.95 Q19.2 -124.4 19.5 -123.6 19.4 -123.05 19.75 -122.6 L20.85 -121.6 Q20.95 -120.4 21.3 -119.25 23.45 -116.55 27.05 -117.45 L26.25 -116.55 Q25.3 -112.95 22.2 -110.15 L22.2 -109.85 22.2 -109.5 21.75 -108.8 21.75 -108.5 21.85 -107.5 Q28.25 -105.15 35.2 -105.35 37.75 -103.1 41.25 -104.8 46.45 -108.25 52.35 -110.75 L54.05 -110.4 54.2 -109.35 Q56.45 -103.75 56.4 -97.6 L57.4 -97.35 Q61.7 -97.45 63.55 -95.6 62.55 -93.8 61.2 -92.25 61.2 -90.55 61.55 -88.95 62.55 -84.45 64.45 -80.15 L64.8 -79.8 44.85 -79.3 Q44.6 -79.3 44.5 -79.1 42.25 -75.2 42.4 -70.4 41.2 -70.45 40.2 -71.05 35.0 -74.0 33.1 -69.4 32.05 -68.85 31.6 -67.7 L22.2 -68.1 Q20.9 -68.05 20.4 -67.05 L20.4 -66.7 20.4 -64.7 20.85 -64.0 21.05 -63.45 Q24.25 -59.3 27.95 -55.3 30.45 -52.6 30.6 -49.2 29.3 -47.55 27.6 -46.2 L27.55 -45.85 27.5 -45.2 27.15 -44.85 27.15 -44.5 27.15 -43.15 Q27.95 -41.25 29.4 -39.7 L43.5 -24.35 Q41.7 -23.4 39.7 -23.45 33.95 -23.6 29.85 -20.4 29.7 -19.65 30.05 -19.05 L38.25 -11.7 Q29.95 -11.6 22.65 -8.1 L22.65 -7.75 22.65 -3.7 24.0 -2.05 24.0 -1.7 24.0 -1.35 Q26.35 0.45 28.35 2.65 L28.45 3.0 28.35 7.7 Q21.5 8.6 15.95 11.85 L15.9 12.2 Q15.1 15.0 15.95 17.9 L11.55 17.8 6.75 17.05 Q4.25 16.4 2.85 18.15 0.05 21.7 -1.55 25.95 -1.95 25.8 -2.2 25.5 -7.45 19.85 -12.1 13.85 -12.55 12.3 -14.3 11.85 L-15.1 12.2 Q-15.85 12.45 -16.3 13.0 -20.5 17.7 -26.2 20.5 L-27.1 17.9 Q-29.15 12.05 -30.25 6.05 -32.8 4.25 -35.25 7.15 L-36.05 6.8 -36.0 5.8 Q-35.35 0.15 -35.6 -5.65 L-36.05 -6.3 -36.05 -6.65 -36.05 -6.95 Q-38.25 -8.75 -41.45 -7.75 -38.45 -11.7 -34.25 -14.6 L-34.25 -14.9 Q-33.9 -16.45 -33.95 -17.95 L-34.55 -18.4 Q-38.55 -19.6 -38.05 -23.1 -32.75 -25.1 -26.85 -25.1 -20.25 -25.15 -21.85 -31.4 L-22.6 -32.4 -22.65 -32.75 -23.05 -36.1 -22.5 -36.3 -13.9 -37.1 Q-13.1 -37.2 -12.75 -37.9 -13.3 -40.8 -15.45 -42.95 -16.5 -45.25 -16.65 -47.65 -15.65 -47.95 -15.1 -48.9 -12.8 -49.1 -11.35 -50.9 -9.25 -53.6 -11.65 -56.7 L-11.05 -57.4 Q-7.0 -58.1 -3.8 -60.3 -4.2 -65.15 -8.5 -67.95 -11.85 -65.15 -15.9 -63.35 -21.8 -60.75 -27.75 -60.2 -28.1 -60.65 -28.0 -61.2 L-28.9 -62.2 Q-28.95 -65.2 -30.25 -67.95 -30.6 -68.65 -31.35 -68.8 -36.35 -66.5 -40.75 -63.65 -41.85 -63.0 -42.35 -63.45 L-42.3 -63.8 -41.65 -68.15 Q-40.95 -68.5 -40.65 -69.15 -40.05 -71.7 -39.85 -74.2 -39.75 -75.4 -40.8 -75.9 -44.1 -77.45 -47.25 -77.45 L-47.25 -77.8 -47.25 -78.45 Q-46.35 -79.1 -46.35 -80.15 L-45.15 -81.5 Q-40.0 -86.05 -44.55 -90.55 L-44.55 -90.9 -44.55 -91.55 -44.25 -91.9 -42.55 -92.0 -40.8 -91.1 Q-36.6 -89.1 -32.9 -90.8 -32.55 -93.3 -34.25 -95.15 -34.25 -96.2 -35.15 -96.85 L-23.75 -97.5 -19.7 -98.05 Q-19.15 -98.35 -19.0 -98.95 L-19.35 -99.5 Q-21.15 -101.25 -23.95 -100.4 -24.8 -100.85 -24.75 -101.45 L-23.7 -101.75 Q-20.5 -101.9 -19.45 -104.55 -24.85 -109.1 -29.8 -114.0 -24.05 -115.6 -19.15 -118.35 -19.6 -123.2 -23.05 -127.1 L-20.8 -128.65 -12.55 -129.25 Q-11.8 -129.3 -11.2 -129.8 L-11.05 -130.1 Q-10.8 -130.95 -11.05 -131.8 L-11.25 -132.15 Q-12.45 -135.85 -13.2 -139.85 -8.55 -139.7 -4.3 -136.75 1.2 -132.9 5.85 -128.2" fill="#ffff00" fill-opacity="0.5019608" fill-rule="evenodd" stroke="none"/>
  </g>
</svg>
