<?xml version="1.0" encoding="UTF-8" standalone="no"?>
<svg xmlns:ffdec="https://www.free-decompiler.com/flash" xmlns:xlink="http://www.w3.org/1999/xlink" ffdec:objectType="shape" height="124.85px" width="80.35px" xmlns="http://www.w3.org/2000/svg">
  <g transform="matrix(1.0, 0.0, 0.0, 1.0, 34.6, 122.15)">
    <path d="M10.65 -110.35 Q10.65 -105.45 7.2 -102.0 5.5 -100.3 3.4 -99.4 L4.15 -97.35 Q10.75 -95.7 16.15 -91.35 L16.4 -91.1 Q20.5 -88.8 24.95 -88.15 L26.7 -88.3 Q32.4 -90.3 37.9 -92.9 38.0 -98.05 43.25 -96.2 46.9 -94.9 45.25 -91.35 44.1 -88.75 41.3 -87.7 37.6 -86.25 34.05 -84.55 28.0 -81.65 21.55 -82.1 L20.7 -82.4 Q17.3 -84.05 14.15 -85.95 9.8 -88.9 5.15 -91.1 L5.5 -88.75 Q7.0 -79.05 6.8 -68.95 6.65 -60.9 5.9 -53.05 L6.3 -52.0 6.4 -51.7 Q11.4 -46.0 15.05 -39.25 L15.4 -38.25 Q19.25 -33.55 18.5 -27.5 18.3 -25.95 17.35 -24.55 10.65 -14.35 3.6 -4.3 6.15 -3.85 9.15 -1.95 9.85 -1.5 9.7 -0.65 9.0 3.55 4.4 2.45 L-0.65 1.65 Q-6.45 1.2 -4.05 -3.45 L-2.0 -6.75 12.0 -26.8 Q13.85 -29.65 11.85 -32.4 11.2 -33.2 11.1 -34.2 10.45 -34.95 10.05 -35.85 L9.75 -36.9 3.8 -45.8 3.4 -44.75 Q1.75 -38.75 -0.3 -32.95 -2.55 -22.8 -11.05 -16.2 L-12.3 -14.75 Q-15.45 -9.6 -19.9 -5.4 L-11.45 -4.6 Q-9.65 -4.4 -9.5 -2.7 -9.2 0.1 -12.1 0.45 -18.95 1.35 -25.4 -0.6 -26.9 -1.05 -26.75 -2.6 -26.3 -8.35 -21.85 -12.6 -17.85 -16.35 -14.8 -20.9 L-12.75 -23.25 Q-10.1 -25.4 -8.15 -28.15 -6.65 -31.6 -5.6 -35.2 L-5.0 -36.2 -3.7 -42.3 Q-3.5 -43.1 -2.9 -43.6 -2.55 -48.2 0.1 -51.3 L0.1 -51.9 Q1.1 -65.25 0.65 -78.8 L0.2 -85.6 Q-2.0 -82.35 -4.6 -79.35 L-7.25 -75.7 Q-8.5 -73.65 -10.65 -72.65 -12.9 -71.6 -15.3 -72.1 -23.85 -73.85 -32.15 -76.75 -33.65 -77.3 -34.1 -78.8 -36.2 -85.7 -29.05 -86.75 -27.6 -86.95 -26.55 -85.85 -24.5 -83.75 -26.2 -81.35 -20.4 -78.5 -13.1 -78.25 -8.25 -84.45 -4.0 -90.85 L-1.5 -94.7 -2.2 -96.3 -2.35 -97.3 -3.3 -98.6 Q-5.6 -99.95 -8.2 -100.4 L-8.05 -100.75 -9.5 -102.0 Q-12.95 -105.45 -12.95 -110.35 -12.95 -115.25 -9.5 -118.7 -6.05 -122.15 -1.15 -122.15 3.75 -122.15 7.2 -118.7 10.65 -115.25 10.65 -110.35" fill="#000000" fill-rule="evenodd" stroke="none"/>
  </g>
</svg>
