<?xml version="1.0" encoding="UTF-8" standalone="no"?>
<svg xmlns:ffdec="https://www.free-decompiler.com/flash" xmlns:xlink="http://www.w3.org/1999/xlink" ffdec:objectType="shape" height="12.95px" width="43.0px" xmlns="http://www.w3.org/2000/svg">
  <g transform="matrix(1.0, 0.0, 0.0, 1.0, 21.5, 6.5)">
    <path d="M8.45 -1.0 L8.5 -1.75 8.5 -2.5 10.1 -3.9 Q12.05 -5.5 14.0 -6.0 18.95 -7.65 21.35 -3.9 L21.5 -3.25 21.15 -2.6 20.0 -1.25 15.3 -0.3 13.75 0.25 13.55 1.0 13.45 1.75 13.25 2.5 Q3.25 10.5 -7.5 2.25 -15.65 3.05 -21.5 0.0 -16.35 -7.35 -5.1 -2.75 L-0.95 -0.9 Q3.6 1.25 8.25 -0.25 L8.45 -1.0" fill="#000000" fill-rule="evenodd" stroke="none"/>
  </g>
</svg>
