<?xml version="1.0" encoding="UTF-8" standalone="no"?>
<svg xmlns:ffdec="https://www.free-decompiler.com/flash" xmlns:xlink="http://www.w3.org/1999/xlink" ffdec:objectType="shape" height="154.4px" width="107.35px" xmlns="http://www.w3.org/2000/svg">
  <g transform="matrix(1.0, 0.0, 0.0, 1.0, 49.75, 132.7)">
    <path d="M20.2 -118.75 L19.05 -117.3 Q13.7 -113.1 14.25 -106.6 16.35 -105.6 17.75 -103.8 L17.6 -103.45 17.3 -103.1 17.3 -102.8 17.15 -101.75 16.95 -101.45 16.4 -100.75 16.4 -100.4 16.4 -100.1 16.2 -99.75 15.05 -97.75 15.0 -97.05 Q14.95 -96.2 15.15 -95.4 17.75 -93.35 21.2 -93.25 L28.25 -92.8 Q32.6 -92.4 35.55 -95.5 L35.65 -95.85 Q35.8 -97.05 36.9 -97.15 L39.6 -92.0 Q42.6 -85.1 50.0 -84.65 53.0 -84.45 52.7 -81.7 L48.65 -76.65 48.65 -73.65 Q48.65 -72.95 48.95 -72.45 L57.6 -58.2 54.15 -58.5 Q45.6 -61.3 36.75 -61.9 32.75 -62.2 28.95 -63.2 20.95 -65.25 13.45 -68.8 L13.05 -68.65 12.55 -68.35 12.45 -68.05 12.35 -66.35 12.65 -66.0 12.8 -65.7 12.8 -64.7 12.8 -57.95 Q15.2 -54.8 18.3 -52.25 16.8 -51.2 15.5 -49.75 L15.5 -49.1 Q15.4 -47.5 16.05 -46.1 L17.2 -44.9 Q24.05 -38.45 30.15 -31.3 L28.5 -28.6 28.45 -27.95 Q28.4 -26.9 28.6 -25.9 30.15 -22.35 32.5 -19.2 L32.5 -18.85 32.5 -18.5 34.3 -16.15 Q29.25 -16.85 25.35 -13.9 25.5 -10.7 25.9 -7.55 26.75 -0.6 28.5 6.25 25.3 6.35 22.3 4.9 L15.05 4.7 14.95 6.0 Q14.35 11.65 12.25 16.8 L11.45 17.45 10.8 17.55 9.35 16.9 6.2 15.75 Q-1.45 13.4 -6.45 19.7 L-6.5 20.05 -6.6 20.7 -6.9 21.05 Q-7.3 21.6 -7.8 21.7 L-8.05 21.4 Q-9.2 19.7 -9.4 17.7 L-10.5 17.0 Q-10.6 16.4 -11.15 16.3 -18.45 14.8 -24.4 19.6 L-24.4 18.7 Q-24.55 14.9 -24.2 11.3 L-23.8 10.9 -23.6 10.6 -23.55 10.3 -23.5 9.6 Q-23.85 8.9 -24.65 8.7 -32.35 9.45 -40.1 8.5 -37.75 7.0 -37.85 4.45 L-37.6 4.1 -37.4 3.8 -37.45 3.1 -37.85 0.4 Q-36.4 0.55 -35.4 -0.25 -35.05 -1.05 -35.2 -1.95 -35.95 -7.7 -38.3 -13.0 L-33.0 -12.25 Q-29.25 -11.2 -25.7 -9.65 -20.95 -7.5 -21.05 -12.35 -21.1 -17.35 -23.05 -21.75 L-23.05 -22.1 -23.15 -23.45 -20.25 -24.35 -20.05 -24.7 Q-19.45 -25.6 -19.45 -26.7 L-19.7 -27.05 -19.9 -27.35 -19.95 -27.7 -20.15 -28.35 -30.35 -35.75 Q-29.5 -37.1 -27.8 -37.35 -21.25 -38.25 -20.35 -44.15 -20.7 -44.9 -21.5 -45.05 -29.0 -43.45 -36.5 -43.5 -37.4 -44.6 -38.65 -45.2 L-38.8 -45.5 -39.3 -46.2 Q-37.55 -46.45 -36.5 -47.75 L-36.5 -48.1 -36.75 -49.1 Q-43.7 -55.05 -49.75 -61.9 L-40.35 -62.45 Q-40.0 -62.5 -39.8 -62.85 -38.15 -66.25 -38.75 -70.5 L-38.4 -70.85 Q-33.95 -71.6 -29.45 -70.75 -22.2 -69.4 -20.35 -76.1 L-20.15 -76.45 -19.6 -77.1 -19.55 -77.45 Q-19.6 -78.35 -19.25 -79.15 -16.0 -80.9 -16.35 -84.5 L-17.25 -85.5 Q-17.4 -87.05 -18.8 -87.85 L-22.6 -93.25 Q-20.0 -92.8 -19.0 -94.95 -19.05 -95.5 -19.55 -95.85 -26.9 -100.6 -35.4 -103.65 -33.4 -104.15 -32.1 -105.45 L-31.65 -106.2 Q-29.8 -112.7 -32.0 -119.25 -24.9 -119.6 -21.25 -125.3 L-21.2 -125.95 Q-20.85 -128.85 -22.6 -131.0 L-22.65 -131.35 -22.85 -132.0 -23.25 -132.4 -23.5 -132.7 Q-21.4 -132.4 -19.05 -131.3 -16.4 -130.15 -13.55 -129.55 L-4.1 -128.75 Q1.15 -126.55 5.0 -122.2 5.3 -121.8 5.65 -121.8 L21.2 -121.05 21.55 -120.65 21.65 -120.35 Q20.75 -119.7 20.2 -118.75" fill="#ffff00" fill-opacity="0.5019608" fill-rule="evenodd" stroke="none"/>
  </g>
</svg>
