<?xml version="1.0" encoding="UTF-8" standalone="no"?>
<svg xmlns:ffdec="https://www.free-decompiler.com/flash" xmlns:xlink="http://www.w3.org/1999/xlink" ffdec:objectType="shape" height="161.7px" width="97.5px" xmlns="http://www.w3.org/2000/svg">
  <g transform="matrix(1.0, 0.0, 0.0, 1.0, 49.3, 137.05)">
    <path d="M3.25 -137.05 L5.2 -134.25 12.35 -123.3 Q12.1 -121.7 13.15 -120.5 L14.3 -119.6 Q16.85 -118.25 19.05 -118.7 19.2 -116.45 18.85 -114.3 18.1 -109.0 19.2 -103.9 L19.55 -103.6 Q20.85 -102.9 21.75 -104.0 23.1 -104.0 24.0 -104.9 30.8 -106.65 35.35 -101.5 35.95 -100.8 36.75 -100.95 L46.85 -101.75 47.5 -101.2 48.2 -100.2 48.2 -99.85 48.2 -99.2 47.55 -98.15 Q46.0 -95.75 43.85 -93.8 L43.75 -93.45 43.6 -92.8 43.35 -92.5 42.4 -91.45 42.4 -89.8 42.4 -87.4 42.7 -87.1 47.1 -83.05 43.95 -80.45 42.8 -78.85 Q40.15 -73.55 41.05 -67.25 L28.8 -67.05 Q27.0 -67.05 25.8 -65.9 L25.8 -65.25 25.8 -64.25 26.0 -63.9 26.25 -63.55 26.25 -62.55 26.25 -61.55 26.45 -61.2 26.7 -60.85 Q26.65 -59.95 26.85 -59.1 L27.6 -56.5 Q23.7 -55.75 21.3 -52.7 L21.3 -52.35 21.3 -51.7 21.1 -51.35 20.85 -51.0 20.85 -49.65 21.0 -48.3 Q23.75 -45.55 27.3 -43.9 30.5 -42.35 31.05 -39.35 31.2 -38.5 30.8 -37.85 29.3 -35.15 29.4 -31.95 34.0 -28.85 37.35 -24.45 L36.55 -23.8 36.55 -23.45 36.45 -22.75 Q32.3 -19.85 28.05 -17.4 L28.0 -16.05 Q27.95 -15.35 28.15 -14.7 L28.5 -14.4 29.15 -14.05 30.05 -12.55 Q31.1 -11.35 30.6 -9.75 L30.25 -9.45 Q29.8 -9.05 29.7 -8.45 27.3 -7.15 25.35 -5.3 L25.35 -3.95 25.35 -1.95 25.55 -1.6 Q25.95 -0.4 27.25 0.1 L27.7 0.6 Q31.3 3.05 32.85 6.8 L32.4 7.45 Q29.7 10.95 26.25 13.85 L26.25 14.2 26.15 14.9 25.8 15.2 25.15 17.15 Q24.5 18.95 25.35 20.6 20.6 20.15 17.05 16.55 13.55 12.95 10.15 16.5 5.75 21.15 0.35 24.65 L-2.0 24.65 Q-5.8 21.3 -8.15 16.85 -10.7 12.0 -14.2 16.2 L-21.7 21.4 Q-21.7 19.85 -22.1 18.45 -22.85 15.45 -23.05 12.3 -26.05 10.6 -29.6 12.4 -32.35 13.75 -33.95 13.65 L-33.7 13.35 -32.9 12.3 -32.6 8.65 Q-31.65 3.7 -34.15 -0.8 L-36.75 -2.85 Q-38.95 -4.7 -40.55 -5.65 L-39.65 -6.45 Q-35.4 -8.5 -31.35 -10.9 L-30.75 -11.65 Q-29.8 -15.25 -30.55 -19.3 -26.15 -18.85 -21.95 -19.5 L-21.65 -20.55 -21.85 -21.55 Q-22.85 -22.5 -23.15 -23.9 -24.0 -27.4 -26.1 -30.3 L-26.15 -30.95 -26.2 -31.6 -26.45 -31.95 -27.1 -32.95 -26.85 -33.15 -22.85 -33.5 Q-19.3 -33.4 -16.9 -35.45 L-16.85 -36.1 -16.9 -36.8 Q-17.6 -37.5 -18.0 -38.35 -19.8 -42.2 -22.5 -45.5 L-21.85 -46.2 Q-17.55 -45.8 -14.65 -48.0 -14.45 -48.45 -14.6 -49.0 -14.9 -50.25 -15.65 -51.35 -20.0 -52.65 -24.5 -51.25 L-24.85 -51.6 -25.3 -52.25 -25.3 -53.9 -25.3 -56.25 -25.55 -56.55 -26.4 -57.15 -34.05 -52.95 Q-36.75 -51.35 -38.75 -51.45 -38.9 -53.2 -38.65 -54.85 -38.15 -58.65 -38.3 -62.55 -38.6 -62.9 -38.9 -62.9 -42.8 -63.4 -45.9 -60.55 L-47.8 -60.55 -47.6 -61.75 Q-47.3 -63.65 -46.35 -65.3 -42.8 -71.25 -40.55 -77.55 L-40.3 -77.9 -40.1 -78.25 -40.1 -78.9 -40.1 -79.6 Q-40.35 -79.9 -40.7 -80.0 -44.85 -81.15 -48.6 -82.95 -48.65 -83.6 -48.05 -83.95 -46.55 -84.85 -45.6 -86.55 L-45.5 -87.2 -45.6 -87.85 -46.1 -88.55 Q-47.4 -90.5 -49.3 -91.9 -44.6 -91.35 -40.1 -89.95 -34.35 -88.15 -30.0 -91.25 L-29.0 -90.2 Q-28.1 -89.25 -28.0 -87.85 L-26.85 -86.65 Q-24.55 -84.45 -23.85 -81.5 L-23.6 -81.1 Q-23.05 -80.0 -21.95 -79.6 -20.3 -80.25 -19.5 -81.9 -17.2 -86.75 -15.45 -91.7 L-15.65 -92.0 -15.9 -92.35 -15.9 -92.7 -15.9 -93.05 -18.65 -95.15 -28.0 -100.85 -28.3 -101.5 Q-31.3 -105.55 -35.05 -108.95 L-35.35 -109.6 -35.6 -110.3 -35.4 -110.65 -34.7 -111.65 Q-29.85 -111.65 -26.75 -114.75 -26.4 -117.7 -27.3 -120.6 -29.05 -126.25 -27.9 -131.9 L-27.55 -132.25 Q-17.9 -131.45 -9.15 -126.9 -7.9 -126.25 -7.05 -127.2 -2.3 -132.45 3.25 -137.05" fill="#ffff00" fill-opacity="0.5019608" fill-rule="evenodd" stroke="none"/>
  </g>
</svg>
