<?xml version="1.0" encoding="UTF-8" standalone="no"?>
<svg xmlns:ffdec="https://www.free-decompiler.com/flash" xmlns:xlink="http://www.w3.org/1999/xlink" ffdec:objectType="shape" height="122.2px" width="66.55px" xmlns="http://www.w3.org/2000/svg">
  <g transform="matrix(1.0, 0.0, 0.0, 1.0, 37.9, 117.25)">
    <path d="M7.15 -105.45 Q7.15 -100.55 3.7 -97.1 1.45 -94.85 -1.35 -94.05 L-1.3 -91.2 Q0.9 -91.15 1.45 -88.65 1.9 -86.85 2.75 -85.15 6.6 -77.75 11.7 -71.05 13.55 -72.25 14.55 -74.4 L15.6 -76.1 21.15 -84.65 21.85 -86.2 Q18.25 -89.8 21.7 -93.45 22.45 -94.25 23.35 -94.25 30.0 -93.6 28.3 -86.95 27.5 -83.75 25.75 -80.95 L19.25 -70.7 Q16.5 -66.35 12.15 -64.05 10.45 -63.2 9.2 -64.65 4.65 -70.15 1.25 -76.35 L0.4 -77.55 0.65 -76.45 1.25 -73.15 Q2.15 -64.05 2.35 -54.7 L2.25 -53.2 2.25 -53.05 4.0 -50.4 6.1 -46.3 15.05 -29.7 Q18.3 -25.0 14.35 -20.15 L12.7 -17.6 Q12.75 -16.55 12.2 -15.6 L11.35 -14.6 Q9.0 -7.95 4.65 -2.2 L4.15 -1.25 Q8.55 -1.55 13.15 -0.5 15.85 0.1 15.1 2.65 14.65 4.1 13.25 4.35 7.85 5.4 2.45 4.6 -1.55 4.0 -2.4 0.55 -2.85 -1.2 -1.8 -2.75 3.2 -10.2 6.95 -18.2 7.7 -21.55 9.75 -24.35 L10.55 -25.55 9.55 -28.0 9.2 -28.95 0.7 -43.75 Q0.15 -35.5 -2.95 -28.05 -3.4 -26.9 -4.25 -25.9 -8.45 -13.85 -17.25 -4.75 -12.5 -3.25 -15.45 0.4 -15.8 0.85 -16.3 0.95 -22.2 2.25 -23.9 -2.65 -24.25 -3.7 -23.8 -4.85 -22.05 -9.35 -18.15 -12.85 -16.9 -13.9 -16.1 -15.4 -11.45 -23.55 -7.25 -31.75 -4.65 -42.25 -4.15 -53.25 L-4.0 -54.4 Q-3.05 -67.8 -5.65 -80.5 L-5.9 -81.75 Q-9.9 -74.6 -12.15 -66.75 -13.2 -62.95 -17.2 -63.9 -22.7 -65.15 -27.5 -68.55 L-36.05 -74.85 Q-37.8 -76.25 -37.9 -78.55 -38.2 -83.95 -32.55 -82.55 -29.8 -81.85 -29.85 -79.0 L-29.9 -77.65 -27.2 -75.45 Q-22.45 -72.65 -17.55 -69.95 L-17.35 -69.8 -16.9 -69.85 Q-15.15 -76.05 -12.25 -81.85 L-11.3 -83.3 Q-10.9 -84.95 -9.85 -86.4 L-9.05 -87.3 Q-8.55 -89.4 -7.2 -90.9 L-7.45 -94.05 Q-9.45 -95.1 -11.7 -95.5 L-11.55 -95.85 -13.0 -97.1 Q-16.45 -100.55 -16.45 -105.45 -16.45 -110.35 -13.0 -113.8 -9.55 -117.25 -4.65 -117.25 0.25 -117.25 3.7 -113.8 7.15 -110.35 7.15 -105.45" fill="#000000" fill-rule="evenodd" stroke="none"/>
  </g>
</svg>
