<?xml version="1.0" encoding="UTF-8" standalone="no"?>
<svg xmlns:ffdec="https://www.free-decompiler.com/flash" xmlns:xlink="http://www.w3.org/1999/xlink" ffdec:objectType="shape" height="152.95px" width="101.2px" xmlns="http://www.w3.org/2000/svg">
  <g transform="matrix(1.0, 0.0, 0.0, 1.0, 45.6, 131.7)">
    <path d="M4.75 -127.5 L7.4 -127.7 Q13.3 -130.0 19.3 -131.7 L19.75 -131.45 Q23.75 -126.8 24.15 -120.6 24.4 -115.5 23.35 -110.85 L22.9 -110.5 22.65 -110.15 22.6 -109.85 22.1 -108.85 21.45 -108.15 21.35 -107.8 21.3 -107.5 Q20.0 -105.95 18.35 -105.0 16.8 -104.15 16.1 -102.55 15.25 -100.6 15.5 -98.3 L16.7 -96.95 18.2 -95.6 18.2 -95.25 18.3 -94.95 19.7 -93.9 Q21.1 -92.85 21.15 -91.25 L21.45 -88.2 21.8 -87.95 Q22.1 -87.75 22.45 -87.65 L22.95 -87.9 23.3 -88.2 23.55 -88.55 23.6 -89.2 23.8 -89.9 23.9 -90.2 24.0 -90.55 23.9 -90.9 23.8 -91.25 23.65 -91.55 23.75 -91.9 Q23.15 -96.05 23.6 -100.35 23.85 -103.2 25.8 -105.35 L27.9 -105.45 Q30.0 -104.5 32.15 -103.9 36.6 -102.8 38.45 -107.15 L39.45 -107.85 39.8 -108.0 40.15 -107.95 39.8 -105.9 39.5 -103.6 Q39.3 -102.05 38.35 -100.85 L38.35 -99.5 38.3 -97.5 Q38.25 -96.65 38.45 -95.85 45.05 -92.75 51.1 -88.6 54.15 -86.5 55.6 -84.4 53.95 -82.95 51.7 -82.85 43.4 -82.35 37.0 -77.8 36.7 -75.75 37.85 -74.25 39.55 -72.1 41.75 -70.35 44.85 -67.9 44.85 -64.35 L44.4 -64.15 Q40.15 -63.8 36.0 -64.35 L24.45 -65.0 Q23.4 -62.95 21.6 -61.65 19.1 -59.9 17.75 -57.6 18.6 -56.65 20.0 -56.05 30.5 -51.5 38.35 -43.95 L34.9 -41.65 31.3 -39.15 Q28.5 -36.9 29.05 -33.55 L35.6 -29.25 Q39.15 -26.8 41.05 -23.8 L39.25 -22.45 Q37.0 -21.55 35.2 -20.1 L35.15 -19.1 Q35.1 -18.5 35.4 -18.05 L35.65 -17.05 35.95 -16.7 36.1 -16.4 36.1 -16.05 36.1 -15.7 36.35 -15.35 37.0 -14.35 37.45 -13.7 37.55 -12.7 38.15 -11.3 Q38.55 -10.6 38.1 -10.0 35.5 -7.6 31.85 -7.7 27.15 -7.85 24.45 -4.4 L24.35 -3.4 Q23.4 2.6 23.3 8.7 L23.0 21.05 Q21.45 20.55 20.3 19.4 13.7 12.85 4.95 17.7 L3.5 16.2 Q2.65 15.15 1.35 15.0 L-1.35 15.6 Q-2.5 15.75 -3.35 16.55 -5.25 16.9 -6.85 18.1 -9.5 20.0 -12.2 21.25 -12.95 19.0 -14.0 16.9 L-14.95 14.15 Q-15.6 10.65 -18.8 9.6 -25.55 13.45 -32.65 16.6 -37.85 18.95 -42.8 19.6 L-42.7 17.55 -42.1 11.85 Q-41.8 9.5 -42.0 7.15 L-42.2 6.8 -43.8 4.6 -45.6 2.45 Q-39.7 0.95 -33.6 1.45 -30.85 1.65 -29.35 -0.25 L-29.4 -1.25 Q-30.0 -5.25 -32.95 -8.25 L-40.75 -16.4 -40.45 -16.75 -40.2 -17.05 -40.05 -17.7 -39.85 -18.05 -39.65 -18.4 Q-34.25 -19.3 -29.35 -17.05 -25.1 -15.05 -22.25 -17.95 L-22.2 -18.65 Q-22.0 -22.55 -22.35 -26.4 L-22.6 -31.4 Q-17.9 -32.9 -20.25 -37.7 -21.75 -40.8 -24.4 -43.15 -23.25 -44.25 -21.7 -44.8 -17.55 -46.4 -14.1 -49.1 L-14.1 -49.45 -14.1 -49.75 -13.85 -50.1 -13.65 -50.45 -13.65 -50.8 -13.65 -51.1 -13.65 -51.45 -13.65 -51.8 -14.2 -52.1 Q-21.5 -51.55 -28.45 -53.25 L-28.45 -55.6 -28.25 -58.25 Q-28.05 -59.6 -28.0 -61.0 L-27.7 -61.35 -25.9 -63.05 Q-24.95 -63.7 -24.4 -64.8 L-24.4 -65.45 -24.4 -66.15 -24.45 -66.45 -24.5 -66.8 Q-26.35 -69.4 -28.95 -71.25 -35.75 -76.15 -41.9 -81.6 -37.45 -80.9 -34.7 -83.6 L-34.7 -88.0 Q-34.7 -90.0 -35.1 -91.95 -35.6 -94.5 -34.95 -96.95 -33.65 -96.25 -32.65 -95.2 -31.6 -94.0 -30.0 -93.9 -29.55 -94.2 -29.2 -94.6 -28.5 -95.4 -28.2 -96.45 -28.0 -97.45 -27.2 -98.2 -27.0 -98.85 -27.05 -99.55 -27.15 -100.75 -26.85 -101.95 L-26.65 -103.9 -26.4 -104.2 -26.1 -104.6 -25.85 -104.9 -25.8 -105.6 -25.75 -106.6 -25.75 -107.25 Q-23.0 -108.45 -20.05 -107.7 -19.2 -107.5 -18.65 -108.0 -16.7 -109.8 -16.9 -112.65 -17.25 -118.2 -17.25 -123.75 L-13.0 -123.3 Q-5.5 -122.1 -2.0 -128.45 L-2.0 -128.75 -2.0 -129.1 -1.65 -129.4 -0.85 -130.4 -0.55 -130.8 0.35 -130.0 Q2.25 -128.0 4.75 -127.5" fill="#ffff00" fill-opacity="0.5019608" fill-rule="evenodd" stroke="none"/>
  </g>
</svg>
