<?xml version="1.0" encoding="UTF-8" standalone="no"?>
<svg xmlns:ffdec="https://www.free-decompiler.com/flash" xmlns:xlink="http://www.w3.org/1999/xlink" ffdec:objectType="shape" height="122.4px" width="65.65px" xmlns="http://www.w3.org/2000/svg">
  <g transform="matrix(1.0, 0.0, 0.0, 1.0, 27.35, 118.9)">
    <path d="M13.9 -107.1 Q13.9 -102.2 10.45 -98.75 8.15 -96.4 5.15 -95.65 L5.25 -92.05 Q5.9 -91.5 6.3 -90.35 7.95 -85.55 10.65 -81.25 L13.05 -76.95 Q14.15 -74.75 15.5 -72.75 24.3 -78.65 31.3 -86.85 L31.45 -87.5 31.85 -88.2 Q30.9 -92.05 34.35 -93.6 L35.0 -93.8 Q39.8 -92.2 37.6 -86.9 35.2 -81.1 30.4 -77.05 L27.65 -74.7 Q23.25 -70.75 18.55 -67.35 14.85 -64.65 11.85 -67.75 L10.2 -69.75 Q9.6 -70.75 9.3 -71.85 8.65 -72.6 8.25 -73.5 L8.0 -74.55 5.45 -78.7 5.5 -72.5 Q5.55 -62.15 4.15 -52.1 8.3 -50.75 9.85 -46.2 10.45 -44.35 11.45 -42.65 L11.9 -41.7 Q13.6 -38.35 15.1 -34.65 L15.5 -33.3 Q18.4 -30.4 18.2 -26.85 19.2 -25.1 17.7 -22.3 L15.4 -17.4 Q12.35 -9.8 8.1 -2.8 14.25 -2.6 20.15 -1.45 L20.85 -0.7 Q22.0 3.7 17.3 3.5 L2.8 2.05 Q1.7 1.85 1.5 0.75 L1.45 -0.55 Q1.2 -1.3 1.4 -2.15 1.7 -3.7 3.05 -4.85 3.2 -5.75 3.65 -6.55 L4.4 -7.55 Q4.45 -8.3 5.0 -8.85 L5.65 -9.55 Q8.75 -16.9 11.45 -24.4 L12.35 -26.3 12.05 -27.15 Q11.65 -28.75 10.8 -30.1 L8.8 -33.9 Q7.85 -35.9 7.4 -38.0 L3.35 -45.05 3.2 -44.7 Q0.25 -36.15 -1.35 -27.3 L-1.65 -26.6 -1.7 -26.2 Q-1.45 -24.8 -2.65 -22.9 -5.95 -17.5 -10.25 -12.85 L-16.15 -6.8 -19.35 -3.45 Q-16.0 -3.1 -12.75 -2.05 -10.85 -1.45 -11.45 0.45 -12.55 3.8 -16.45 3.05 L-22.8 2.1 Q-26.15 1.75 -26.55 0.1 -28.0 -1.25 -26.9 -3.05 -23.35 -8.9 -18.1 -13.35 -11.6 -18.85 -7.35 -26.2 -7.55 -28.3 -6.35 -29.95 -5.1 -40.55 -0.85 -50.1 L-0.95 -51.55 Q-0.35 -64.9 -0.2 -78.45 L-0.25 -86.65 Q-3.5 -82.9 -6.15 -78.8 -9.95 -72.85 -14.9 -67.5 -18.1 -64.05 -20.05 -68.3 -20.75 -69.75 -20.9 -71.5 -21.75 -82.3 -18.5 -92.4 -17.3 -96.05 -13.85 -96.95 -7.7 -95.4 -10.85 -89.75 -11.3 -88.95 -12.2 -88.6 L-13.55 -88.1 Q-14.95 -83.7 -15.25 -79.05 L-15.55 -76.0 Q-10.1 -82.4 -5.3 -89.6 L-3.05 -92.4 Q-2.0 -93.55 -0.7 -94.2 L-0.85 -95.8 Q-2.8 -96.75 -4.95 -97.15 L-4.8 -97.5 -6.25 -98.75 Q-9.7 -102.2 -9.7 -107.1 -9.7 -112.0 -6.25 -115.45 -2.8 -118.9 2.1 -118.9 7.0 -118.9 10.45 -115.45 13.9 -112.0 13.9 -107.1" fill="#000000" fill-rule="evenodd" stroke="none"/>
  </g>
</svg>
