<?xml version="1.0" encoding="UTF-8" standalone="no"?>
<svg xmlns:ffdec="https://www.free-decompiler.com/flash" xmlns:xlink="http://www.w3.org/1999/xlink" ffdec:objectType="shape" height="163.5px" width="115.15px" xmlns="http://www.w3.org/2000/svg">
  <g transform="matrix(1.0, 0.0, 0.0, 1.0, 47.15, 142.5)">
    <path d="M16.5 -111.9 Q17.65 -113.95 18.25 -116.15 21.6 -129.0 20.45 -142.5 24.95 -133.65 27.6 -123.45 L31.2 -114.35 Q31.1 -113.65 31.3 -113.0 L32.3 -112.45 Q35.3 -114.65 37.5 -118.05 39.7 -113.75 44.75 -115.55 51.6 -118.0 58.35 -118.85 L55.45 -112.45 Q56.35 -111.15 58.25 -111.2 62.6 -109.4 64.4 -105.5 L63.75 -103.8 Q60.55 -102.25 58.15 -99.65 L58.15 -99.3 58.15 -98.3 Q64.1 -91.1 68.0 -82.8 L67.55 -82.15 66.0 -81.75 64.4 -81.5 Q59.25 -81.35 56.35 -78.1 56.35 -77.55 56.8 -77.1 L56.8 -76.75 56.8 -75.4 57.7 -74.4 Q57.95 -73.3 57.8 -72.4 L56.95 -71.95 46.65 -70.6 Q40.9 -70.0 35.7 -68.25 L35.7 -67.9 35.7 -66.55 Q37.8 -64.2 39.15 -61.5 35.35 -59.65 32.55 -56.45 L32.55 -56.1 32.55 -54.45 Q36.55 -50.05 41.05 -46.7 38.1 -43.6 34.35 -41.65 L34.35 -41.3 34.35 -39.95 Q42.3 -35.6 49.25 -30.2 45.55 -25.85 40.3 -23.45 L40.2 -22.8 Q39.35 -22.25 38.85 -21.45 38.65 -19.3 39.4 -17.4 41.3 -14.9 42.55 -12.0 L41.95 -11.65 27.85 -11.1 Q26.7 -11.05 26.25 -10.1 L26.25 -9.1 Q26.25 -7.4 26.65 -5.8 28.15 0.65 30.2 6.95 24.4 7.6 22.65 13.35 21.55 14.35 21.3 15.7 L20.0 15.7 15.6 12.35 12.4 8.25 Q11.2 6.65 9.15 7.85 2.75 11.4 -1.7 17.15 L-2.35 17.15 Q-3.0 16.35 -4.05 16.4 -12.65 18.45 -20.4 21.0 -20.55 19.8 -20.85 18.65 -22.15 16.85 -24.75 17.45 -31.35 19.1 -36.9 18.5 -35.45 15.9 -36.45 13.15 L-37.05 12.8 -37.15 12.1 Q-38.5 10.35 -40.4 9.1 L-47.15 3.35 Q-42.9 1.75 -38.15 1.7 -34.2 1.7 -34.8 -2.0 L-35.25 -2.7 Q-36.8 -6.8 -40.25 -10.15 -43.8 -13.65 -45.55 -17.85 L-44.4 -18.3 Q-41.2 -19.3 -38.1 -18.3 -35.2 -17.45 -33.2 -19.3 -30.35 -21.9 -30.85 -26.1 -31.5 -31.5 -32.55 -36.8 -26.7 -36.1 -22.0 -38.85 -21.55 -41.15 -21.9 -43.55 -22.75 -44.35 -22.8 -45.55 -22.8 -46.8 -21.65 -47.15 -16.85 -48.5 -13.7 -51.85 -14.3 -60.25 -20.4 -66.0 L-8.1 -66.5 Q-7.85 -66.5 -7.65 -66.65 -6.75 -69.95 -8.2 -72.7 L-8.3 -74.05 -6.95 -75.4 Q-4.1 -75.95 -2.0 -77.9 -1.95 -78.6 -2.25 -79.25 -3.85 -81.1 -5.6 -82.6 L-5.85 -83.25 -6.5 -83.95 -4.35 -86.95 Q-1.7 -89.45 0.25 -92.7 0.1 -93.25 0.45 -93.7 1.3 -94.15 1.55 -95.05 1.4 -96.35 0.0 -96.3 -11.3 -93.4 -22.9 -92.5 L-23.1 -92.7 Q-20.35 -95.0 -16.85 -96.15 L2.25 -102.25 Q2.8 -102.5 2.9 -103.15 0.45 -106.25 -2.85 -108.95 -4.95 -110.7 -5.85 -112.0 L2.25 -109.2 6.5 -109.3 Q6.75 -113.8 5.75 -117.95 L8.65 -115.75 9.65 -114.7 Q12.55 -111.3 16.5 -111.9" fill="#ffff00" fill-opacity="0.5019608" fill-rule="evenodd" stroke="none"/>
  </g>
</svg>
