<?xml version="1.0" encoding="UTF-8" standalone="no"?>
<svg xmlns:ffdec="https://www.free-decompiler.com/flash" xmlns:xlink="http://www.w3.org/1999/xlink" ffdec:objectType="shape" height="115.4px" width="84.65px" xmlns="http://www.w3.org/2000/svg">
  <g transform="matrix(1.0, 0.0, 0.0, 1.0, 28.45, 112.25)">
    <path d="M27.4 -108.7 Q30.95 -112.25 35.95 -112.25 41.0 -112.25 44.55 -108.7 47.8 -105.45 48.1 -101.1 48.45 -102.5 49.6 -103.85 50.3 -104.65 51.15 -104.7 57.4 -104.25 55.95 -97.7 54.95 -93.35 52.0 -89.75 46.7 -83.3 40.05 -78.45 36.9 -74.8 32.1 -73.15 L29.65 -72.75 Q25.45 -72.85 23.5 -76.9 21.65 -80.65 18.9 -83.5 16.3 -79.25 14.15 -74.75 L12.25 -70.7 Q10.3 -65.35 9.15 -59.9 8.5 -56.8 7.25 -54.05 L9.3 -51.5 10.0 -50.6 Q16.5 -43.0 22.35 -34.85 23.25 -33.6 23.3 -32.65 23.9 -30.9 22.05 -28.2 18.2 -22.5 17.75 -15.6 17.45 -10.3 15.4 -5.5 L15.4 -5.25 Q19.0 -5.8 22.25 -4.45 26.2 -2.8 23.65 0.45 22.45 1.95 20.6 1.35 16.45 0.1 12.3 0.95 L12.15 1.05 10.9 1.15 Q10.15 1.05 9.7 0.35 9.25 -0.4 9.1 -1.0 8.25 -2.9 9.2 -5.3 11.4 -11.15 12.55 -17.4 L13.4 -22.4 Q14.0 -26.05 15.35 -29.5 15.95 -31.0 16.8 -32.15 11.0 -40.55 4.6 -48.45 2.45 -43.45 1.1 -38.2 -0.05 -33.85 0.1 -29.2 0.15 -26.55 -0.95 -24.9 -1.1 -23.95 -2.05 -22.75 -4.2 -20.05 -6.9 -17.8 -14.5 -11.45 -20.75 -4.05 -15.1 -4.1 -10.15 -1.5 -9.7 -1.3 -9.65 -0.75 -9.15 4.2 -14.2 2.85 -19.4 1.5 -24.7 2.05 -26.5 2.25 -27.05 0.6 L-27.35 -0.85 Q-29.7 -3.85 -26.95 -6.6 L-17.05 -16.5 -13.55 -19.85 -6.4 -25.95 Q-6.75 -27.6 -6.25 -29.5 -5.3 -32.85 -5.05 -36.45 -4.7 -42.1 -2.7 -47.4 -1.35 -50.95 0.45 -54.15 0.4 -54.8 0.75 -55.45 1.25 -56.4 2.0 -56.8 L2.0 -56.9 Q2.9 -61.8 4.85 -66.3 6.25 -72.1 8.95 -77.5 9.6 -78.75 10.65 -79.8 L11.85 -82.8 12.45 -83.85 13.85 -86.35 Q8.3 -84.95 3.0 -82.8 2.2 -82.45 1.5 -83.0 -1.5 -85.45 1.45 -88.45 5.05 -92.1 9.6 -94.75 16.55 -98.85 24.0 -101.9 24.5 -105.75 27.4 -108.7 M48.1 -98.75 Q47.65 -94.6 44.55 -91.55 41.0 -87.95 35.95 -87.95 30.95 -87.95 27.4 -91.55 L25.85 -93.4 22.1 -88.35 Q24.25 -86.7 25.8 -84.4 L29.5 -79.0 Q32.55 -79.85 35.35 -81.45 42.95 -88.1 49.25 -96.3 48.35 -97.55 48.1 -98.75" fill="#000000" fill-rule="evenodd" stroke="none"/>
  </g>
</svg>
