<?xml version="1.0" encoding="UTF-8" standalone="no"?>
<svg xmlns:ffdec="https://www.free-decompiler.com/flash" xmlns:xlink="http://www.w3.org/1999/xlink" ffdec:objectType="shape" height="135.85px" width="124.15px" xmlns="http://www.w3.org/2000/svg">
  <g transform="matrix(1.0, 0.0, 0.0, 1.0, 48.05, 115.9)">
    <path d="M16.35 -111.65 L16.5 -113.9 21.0 -108.55 Q21.75 -107.7 22.7 -108.3 29.4 -112.5 36.8 -115.25 L38.25 -113.6 Q39.3 -112.4 40.85 -112.0 L41.25 -112.15 Q45.25 -114.95 50.15 -115.9 L53.65 -115.8 53.6 -110.85 53.75 -107.15 63.65 -102.1 63.5 -101.8 Q62.9 -100.2 63.0 -98.4 L63.05 -96.05 67.2 -91.45 Q71.9 -86.0 76.1 -80.25 L76.1 -79.9 76.05 -79.55 75.95 -79.25 Q75.15 -78.55 74.05 -78.3 69.65 -77.15 66.2 -74.4 L66.9 -71.45 Q67.25 -70.3 68.0 -69.35 L68.0 -69.0 68.0 -68.7 68.35 -68.35 68.6 -67.95 68.9 -67.35 59.85 -66.75 Q58.6 -66.65 57.6 -66.0 55.1 -64.3 54.75 -60.95 47.5 -60.85 39.95 -61.1 38.85 -61.1 38.7 -60.05 L37.9 -59.85 Q32.9 -59.4 29.85 -55.9 L29.85 -55.55 29.85 -55.2 29.85 -54.9 Q30.4 -53.7 31.3 -52.8 L33.45 -50.85 33.45 -50.5 33.55 -50.15 34.35 -49.5 35.15 -48.5 34.9 -48.15 34.8 -47.8 34.7 -47.45 Q33.45 -46.75 32.3 -45.85 30.7 -44.6 29.4 -43.0 L29.4 -42.3 29.4 -41.95 29.4 -40.95 30.95 -39.35 Q35.6 -35.05 40.65 -31.2 40.15 -29.85 38.95 -29.0 34.45 -25.6 30.3 -21.75 L30.3 -21.45 30.3 -21.1 30.3 -20.75 30.4 -20.1 Q31.45 -18.45 33.15 -17.45 38.05 -14.4 40.2 -9.3 L39.75 -9.0 Q35.0 -9.0 31.65 -5.85 L31.65 -4.85 31.65 -3.8 31.65 -2.8 Q32.95 2.25 34.85 7.25 37.25 13.55 38.25 19.95 L31.9 16.1 Q25.45 12.3 20.2 17.05 19.2 17.3 18.5 18.05 L17.95 18.1 17.75 17.95 17.75 17.6 17.7 17.3 17.5 16.95 17.25 16.65 16.4 15.95 16.35 15.6 16.25 15.25 16.05 14.9 15.1 14.1 Q13.1 11.65 10.0 12.65 4.45 14.45 0.25 18.4 L-1.7 18.3 -3.1 17.8 Q-10.45 16.4 -17.3 19.75 L-17.3 19.4 -17.3 19.1 -17.85 18.75 -30.05 17.95 -30.05 17.75 Q-29.7 16.45 -29.75 15.05 L-29.95 13.0 -30.85 12.0 Q-35.55 7.6 -41.4 4.25 L-40.95 3.95 -40.05 3.55 Q-39.45 3.35 -39.05 2.9 -38.1 -0.5 -40.1 -3.2 L-48.05 -13.9 -31.85 -14.4 -31.4 -14.6 Q-30.8 -17.85 -31.8 -20.95 -33.25 -25.45 -33.9 -30.05 L-31.4 -30.25 Q-27.85 -30.5 -24.45 -31.5 -21.2 -32.5 -22.45 -36.15 L-24.15 -38.05 Q-25.1 -39.1 -24.7 -40.15 L-23.55 -40.85 -21.75 -42.2 Q-19.95 -42.2 -18.35 -43.0 -17.0 -43.65 -15.5 -43.7 -11.0 -43.8 -8.3 -46.9 -8.15 -48.15 -9.15 -49.0 -13.65 -52.95 -18.65 -56.35 L-18.65 -56.65 -18.75 -57.0 -19.0 -57.35 -19.25 -57.7 -19.5 -58.35 -19.45 -58.65 -19.3 -59.0 -18.65 -59.7 Q-17.6 -59.85 -16.75 -60.3 -15.45 -60.9 -14.0 -61.1 -7.6 -61.8 -2.45 -64.85 -3.1 -67.15 -5.45 -68.55 -8.8 -70.6 -8.3 -74.5 L-8.1 -74.85 -7.75 -75.5 Q-6.7 -75.85 -6.2 -76.75 L-5.25 -78.2 -5.2 -78.9 -5.15 -79.9 -5.25 -81.25 Q-5.95 -82.35 -7.15 -82.85 -9.65 -83.8 -11.45 -85.75 L-11.45 -86.05 -11.45 -86.4 -11.45 -86.75 -11.45 -87.4 -11.2 -87.75 -10.55 -88.45 Q-5.35 -89.7 0.0 -89.8 1.3 -89.85 2.0 -90.9 L2.0 -91.25 1.95 -91.9 Q1.75 -92.5 2.0 -92.9 L2.7 -93.6 Q3.15 -94.1 3.8 -94.25 L4.05 -94.5 4.6 -95.15 Q6.95 -94.65 8.85 -95.7 9.4 -96.8 9.15 -98.05 8.7 -99.95 8.6 -101.8 L8.1 -108.75 9.4 -108.0 Q12.6 -105.95 15.7 -106.6 L15.8 -106.95 15.95 -107.25 16.4 -107.95 16.4 -108.3 16.35 -111.65" fill="#ffff00" fill-opacity="0.5019608" fill-rule="evenodd" stroke="none"/>
  </g>
</svg>
