<?xml version="1.0" encoding="UTF-8" standalone="no"?>
<svg xmlns:ffdec="https://www.free-decompiler.com/flash" xmlns:xlink="http://www.w3.org/1999/xlink" ffdec:objectType="shape" height="111.45px" width="86.15px" xmlns="http://www.w3.org/2000/svg">
  <g transform="matrix(1.0, 0.0, 0.0, 1.0, 27.4, 106.65)">
    <path d="M40.3 -106.65 Q45.35 -106.65 48.9 -103.1 51.5 -100.5 52.25 -97.1 52.75 -97.55 53.4 -97.5 59.75 -97.05 58.55 -90.4 57.45 -84.15 52.8 -79.7 49.15 -76.15 45.95 -72.15 44.35 -70.15 42.3 -68.6 37.0 -64.6 30.6 -66.15 29.75 -66.35 29.05 -67.1 25.3 -70.9 23.25 -75.5 22.25 -76.7 21.85 -77.75 L17.45 -71.2 Q15.4 -67.85 13.6 -64.35 L8.65 -54.35 Q10.15 -53.15 11.15 -51.25 13.4 -46.9 16.35 -42.85 19.45 -38.5 21.75 -33.8 23.95 -32.1 22.8 -28.55 21.4 -24.35 20.9 -19.9 L20.45 -16.8 Q19.4 -10.9 17.15 -5.4 L17.2 -4.95 Q22.25 -4.4 26.05 -1.3 26.85 -0.6 26.25 0.4 24.35 3.7 20.3 2.0 19.1 1.5 17.75 1.5 15.1 1.4 12.7 0.35 10.8 -0.55 11.25 -2.65 10.9 -5.9 12.45 -8.85 14.15 -14.3 15.05 -19.95 15.15 -20.55 15.6 -21.0 16.0 -26.2 16.95 -31.15 L16.75 -31.45 6.15 -47.25 5.6 -47.8 Q3.45 -42.95 2.85 -37.65 L1.95 -32.55 Q1.4 -30.2 0.35 -28.15 0.7 -26.85 -0.55 -24.85 -3.95 -19.55 -8.6 -15.2 L-18.4 -5.4 -20.6 -2.9 -9.55 0.05 Q-8.85 0.25 -8.8 1.05 -8.55 5.45 -13.3 4.7 -19.2 3.7 -24.8 1.4 L-25.7 0.9 Q-28.35 -0.55 -26.85 -3.75 L-25.6 -5.8 Q-20.4 -12.55 -13.95 -18.35 -9.2 -22.6 -5.55 -27.7 -5.8 -28.9 -5.3 -30.4 -2.1 -39.35 -0.8 -48.8 -0.6 -50.3 0.35 -51.5 0.35 -54.5 2.95 -55.6 4.25 -59.8 6.45 -63.8 9.95 -70.25 13.75 -76.55 8.6 -76.15 3.75 -77.75 2.6 -78.1 2.75 -79.3 3.15 -83.2 7.05 -85.0 15.85 -89.05 23.7 -94.85 L24.65 -95.35 27.4 -96.15 28.35 -96.35 Q28.85 -100.2 31.75 -103.1 35.3 -106.65 40.3 -106.65 M51.7 -90.1 Q50.8 -87.85 48.9 -85.95 45.35 -82.35 40.3 -82.35 35.3 -82.35 31.75 -85.95 30.6 -87.1 29.85 -88.35 L25.55 -82.9 Q27.25 -81.35 28.1 -79.0 29.6 -74.75 33.0 -71.5 40.85 -72.65 44.85 -79.75 L46.2 -81.4 Q50.05 -84.95 52.05 -89.65 L51.7 -90.1 M18.0 -83.3 L18.1 -83.5 19.2 -84.9 16.4 -82.95 18.0 -83.3" fill="#000000" fill-rule="evenodd" stroke="none"/>
  </g>
</svg>
