<?xml version="1.0" encoding="UTF-8" standalone="no"?>
<svg xmlns:ffdec="https://www.free-decompiler.com/flash" xmlns:xlink="http://www.w3.org/1999/xlink" ffdec:objectType="shape" height="147.55px" width="117.5px" xmlns="http://www.w3.org/2000/svg">
  <g transform="matrix(1.0, 0.0, 0.0, 1.0, 43.1, 122.75)">
    <path d="M13.5 -113.0 L15.3 -112.35 Q19.3 -110.3 22.1 -112.65 L22.2 -113.0 Q23.35 -117.8 23.55 -122.75 29.45 -119.05 33.9 -113.0 L33.9 -112.65 33.9 -111.0 Q36.35 -108.65 39.15 -111.1 L39.8 -111.8 Q42.85 -115.75 46.1 -119.3 47.8 -113.7 51.5 -109.2 51.65 -108.4 52.15 -107.8 52.85 -107.0 53.85 -107.0 60.0 -107.35 65.3 -110.85 65.95 -110.35 66.05 -109.5 66.7 -103.5 68.1 -97.75 70.8 -95.2 74.4 -94.5 72.9 -92.5 70.45 -91.5 65.65 -89.6 62.6 -86.05 L62.75 -84.75 Q64.85 -81.15 67.65 -78.35 L68.9 -76.65 68.8 -75.3 Q62.85 -73.35 57.25 -70.9 L57.25 -70.6 57.25 -66.9 Q60.15 -62.5 61.5 -57.45 L51.6 -57.7 Q49.8 -57.75 48.7 -56.1 L48.7 -55.45 48.6 -47.8 37.75 -54.0 36.05 -54.95 Q31.9 -57.15 28.5 -54.65 L28.5 -54.3 28.5 -52.65 Q29.8 -50.55 31.25 -48.65 36.9 -40.9 41.75 -33.0 36.35 -34.65 33.0 -30.4 L33.0 -30.05 33.0 -27.05 33.9 -25.35 33.9 -25.05 33.9 -24.7 Q37.15 -21.75 39.3 -18.65 39.5 -17.95 40.2 -17.6 40.75 -16.0 40.65 -14.25 37.1 -13.05 33.9 -11.2 33.5 -8.3 35.65 -6.2 L46.45 4.95 Q39.05 5.1 33.45 9.45 33.25 13.3 34.8 16.7 L32.9 16.5 Q30.6 15.55 28.1 15.15 25.3 14.7 23.15 15.85 17.3 19.0 13.6 24.8 L13.15 24.7 Q8.35 20.05 3.9 15.2 3.0 14.2 1.75 14.0 0.35 13.8 -0.4 14.6 -5.4 20.0 -12.6 22.0 -13.65 22.3 -14.15 21.8 -17.8 18.75 -20.4 14.35 L-20.4 14.05 -20.4 13.7 Q-20.9 12.7 -22.0 12.8 -28.65 14.45 -35.35 13.35 L-35.8 11.95 Q-36.4 7.6 -37.8 3.6 L-38.05 2.25 Q-39.6 -0.95 -43.1 -2.0 L-42.65 -2.15 Q-40.65 -3.45 -38.15 -3.95 -35.2 -5.1 -33.1 -7.65 -32.85 -9.0 -33.1 -10.3 -34.65 -11.6 -35.55 -13.35 -37.4 -14.65 -38.4 -16.7 L-38.25 -18.05 -37.95 -18.4 -36.4 -18.85 -34.55 -19.2 Q-27.75 -18.9 -23.1 -23.1 L-23.1 -23.45 -23.1 -24.45 Q-24.05 -25.65 -24.0 -27.15 L-24.9 -28.5 -24.8 -31.55 Q-22.3 -32.75 -19.45 -32.45 -15.7 -32.05 -13.7 -34.8 L-13.7 -35.1 -13.7 -36.15 -22.2 -47.6 Q-22.1 -48.35 -22.55 -48.95 L-21.9 -50.25 -10.8 -50.85 Q-8.95 -51.0 -7.3 -51.75 -6.6 -53.05 -7.2 -54.45 -10.05 -57.2 -11.65 -60.8 L-3.6 -63.95 -2.9 -65.3 -2.9 -65.65 -2.9 -66.65 Q-3.5 -67.6 -4.5 -68.05 -10.0 -70.6 -15.7 -70.15 L-13.45 -72.5 Q-13.3 -73.4 -12.65 -73.95 -8.45 -77.3 -8.85 -82.6 -10.8 -84.2 -12.8 -85.5 -8.45 -87.85 -4.7 -90.9 L-4.7 -91.25 -4.7 -93.6 -5.15 -94.25 -5.15 -94.6 -5.15 -94.95 Q-7.65 -98.3 -10.55 -101.35 -8.75 -102.15 -6.85 -102.55 L-2.45 -103.0 Q3.3 -102.95 6.5 -107.05 6.7 -108.35 6.15 -109.4 3.55 -111.65 1.55 -114.45 7.6 -114.5 13.5 -113.0" fill="#ffff00" fill-opacity="0.5019608" fill-rule="evenodd" stroke="none"/>
  </g>
</svg>
