<?xml version="1.0" encoding="UTF-8" standalone="no"?>
<svg xmlns:ffdec="https://www.free-decompiler.com/flash" xmlns:xlink="http://www.w3.org/1999/xlink" ffdec:objectType="shape" height="111.7px" width="86.85px" xmlns="http://www.w3.org/2000/svg">
  <g transform="matrix(1.0, 0.0, 0.0, 1.0, 29.25, 108.3)">
    <path d="M27.25 -101.45 Q16.9 -95.1 10.25 -85.0 L9.1 -83.25 Q13.95 -82.05 19.55 -83.85 L19.6 -83.85 21.05 -86.0 26.75 -94.05 28.1 -95.3 Q28.9 -98.2 31.2 -100.5 34.75 -104.05 39.75 -104.05 44.8 -104.05 48.35 -100.5 51.35 -97.5 51.85 -93.45 L52.05 -93.5 Q59.2 -93.65 57.15 -86.5 L55.85 -82.9 Q54.8 -80.6 53.1 -78.65 49.1 -69.45 41.05 -63.25 37.05 -60.15 33.6 -64.3 31.05 -67.4 28.0 -70.05 25.2 -72.5 22.65 -75.3 L21.15 -75.85 18.95 -72.5 Q13.7 -62.6 8.85 -52.15 10.75 -50.6 12.2 -48.35 15.75 -42.8 19.8 -37.5 21.4 -35.3 22.1 -32.75 23.7 -31.35 22.85 -28.3 19.4 -16.2 17.75 -3.8 22.35 -3.15 26.55 -1.15 27.2 -0.85 27.2 -0.1 27.25 4.05 22.6 3.3 17.55 2.5 12.65 0.8 11.7 0.45 11.4 -0.3 11.1 -0.8 11.2 -1.55 13.15 -14.65 16.5 -27.4 16.85 -28.75 16.85 -30.2 L16.85 -30.5 16.55 -31.2 15.3 -33.7 10.65 -40.05 6.15 -45.95 Q4.3 -41.85 1.9 -37.95 0.75 -31.75 -0.9 -25.7 -1.25 -24.45 -2.35 -23.7 L-2.9 -22.8 Q-8.85 -13.35 -16.9 -5.3 -18.15 -4.05 -19.45 -3.0 -15.55 -2.35 -11.9 -1.0 -11.5 -0.85 -11.4 -0.3 -10.85 2.75 -13.95 2.85 -20.15 3.1 -26.2 1.5 L-27.05 1.2 -27.7 0.9 Q-30.6 -1.2 -28.05 -3.7 L-23.35 -8.1 Q-14.1 -16.65 -6.7 -26.55 L-6.6 -27.8 Q-5.0 -37.6 -0.1 -46.0 L1.15 -49.5 Q1.0 -50.55 1.5 -51.7 1.25 -52.0 1.35 -52.5 1.75 -54.3 3.35 -54.75 8.35 -65.2 14.2 -75.25 L15.45 -77.35 Q9.4 -77.15 3.4 -77.5 1.8 -77.6 1.65 -79.15 1.2 -83.15 3.8 -86.45 L9.35 -93.35 Q14.0 -99.05 19.95 -103.6 23.75 -106.5 27.85 -108.3 33.35 -108.15 31.7 -103.35 31.1 -101.5 29.15 -101.45 L27.25 -101.45 M48.35 -83.35 Q44.8 -79.75 39.75 -79.75 34.75 -79.75 31.2 -83.35 29.7 -84.85 28.85 -86.55 L24.9 -81.35 24.9 -80.35 Q28.45 -78.7 31.1 -75.65 34.45 -71.85 38.4 -68.9 42.95 -72.45 45.95 -77.5 L46.45 -78.2 Q47.55 -80.95 49.0 -83.55 L50.6 -85.95 50.5 -86.1 Q49.65 -84.65 48.35 -83.35" fill="#000000" fill-rule="evenodd" stroke="none"/>
  </g>
</svg>
