<?xml version="1.0" encoding="UTF-8" standalone="no"?>
<svg xmlns:ffdec="https://www.free-decompiler.com/flash" xmlns:xlink="http://www.w3.org/1999/xlink" ffdec:objectType="shape" height="148.7px" width="121.2px" xmlns="http://www.w3.org/2000/svg">
  <g transform="matrix(1.0, 0.0, 0.0, 1.0, 43.75, 123.7)">
    <path d="M19.2 -119.4 L19.45 -119.7 20.3 -120.75 20.4 -121.1 20.55 -121.75 20.9 -122.0 21.3 -122.1 Q24.9 -120.45 27.45 -117.45 L28.7 -115.55 Q30.95 -110.85 35.7 -113.55 L35.9 -113.8 36.15 -114.15 37.15 -114.55 Q39.75 -115.45 41.3 -117.6 L42.05 -118.0 Q46.1 -120.9 50.3 -123.65 50.95 -123.85 51.25 -122.8 L51.5 -121.1 Q53.0 -118.55 54.0 -115.75 55.65 -111.2 55.55 -106.25 57.8 -105.1 60.55 -104.9 L67.6 -104.05 Q73.2 -103.2 77.45 -101.2 L77.4 -100.9 77.1 -100.2 75.95 -99.55 Q70.25 -96.3 66.2 -91.45 L66.2 -91.1 66.25 -90.8 66.3 -90.1 67.25 -89.05 Q68.6 -87.15 70.25 -85.75 70.35 -85.4 70.6 -85.15 L72.25 -83.4 Q72.5 -82.85 72.85 -82.45 L73.4 -81.35 72.75 -80.95 Q64.4 -78.8 57.7 -73.95 L57.65 -72.6 Q57.6 -71.9 57.8 -71.25 L59.75 -69.85 Q64.35 -65.7 68.25 -61.05 L54.35 -60.45 53.65 -60.15 52.2 -59.6 Q50.5 -58.45 49.15 -56.9 L49.2 -54.9 49.05 -52.85 46.65 -52.7 Q42.4 -54.6 39.3 -52.3 39.25 -50.9 38.8 -49.6 L37.6 -46.45 33.1 -51.05 Q32.6 -51.65 31.95 -51.7 28.5 -51.95 26.25 -48.35 L26.25 -48.05 26.25 -47.35 26.25 -46.7 32.5 -41.4 36.25 -38.55 Q43.05 -33.5 43.2 -25.8 L42.75 -25.55 37.5 -23.35 37.0 -22.85 35.7 -21.45 35.65 -20.75 Q35.5 -19.5 36.25 -18.65 41.65 -12.75 46.55 -6.6 L45.75 -6.2 Q41.9 -4.5 38.85 -2.0 L38.85 -1.7 38.85 -0.65 38.85 0.35 40.1 2.35 41.25 4.9 Q42.8 8.2 43.0 11.55 40.65 10.95 38.45 10.05 31.8 7.35 28.95 13.9 L28.8 14.9 28.05 16.25 Q28.15 17.2 27.7 18.0 L25.8 20.65 25.75 21.3 25.6 22.0 18.4 15.75 Q13.85 11.65 10.1 17.05 L10.05 17.4 10.0 17.75 9.55 18.1 8.85 18.75 8.75 19.1 8.55 19.75 7.65 20.45 Q6.75 21.15 6.3 22.1 L3.25 24.6 Q2.5 25.25 1.7 24.8 -2.7 22.15 -4.9 17.5 -5.15 17.0 -5.75 16.85 -10.2 15.95 -13.5 19.3 -15.85 21.7 -18.2 23.25 -18.9 22.3 -18.95 21.2 -19.0 19.4 -20.4 18.2 L-20.4 17.85 -20.4 17.5 -20.4 16.85 -20.65 16.5 -20.85 16.15 -20.85 15.8 -20.85 15.5 -21.1 15.15 -21.3 14.8 -21.3 14.5 -21.3 14.15 -21.95 13.7 Q-28.8 12.15 -35.7 11.65 L-35.55 7.4 -35.25 2.0 -35.45 1.7 -35.7 1.35 -35.7 1.0 -35.7 0.65 Q-36.05 -0.05 -36.75 -0.35 -40.85 -2.15 -43.75 -5.4 L-43.7 -5.7 -43.45 -6.4 -33.2 -7.1 Q-32.45 -7.15 -32.1 -7.85 -32.0 -10.75 -32.55 -13.5 -33.35 -17.65 -33.0 -22.0 -29.85 -22.0 -26.8 -21.2 -23.5 -18.75 -19.75 -19.55 -19.4 -23.5 -21.15 -27.15 -24.85 -34.8 -27.5 -42.75 L-27.15 -43.1 Q-18.3 -43.0 -10.0 -44.55 -8.95 -46.9 -10.05 -49.1 -12.1 -53.4 -15.05 -57.0 L-14.8 -57.9 Q-11.5 -63.75 -4.6 -66.1 L-3.35 -67.75 Q-2.05 -68.85 -2.6 -70.45 -4.95 -72.1 -7.6 -73.5 L-9.6 -75.1 Q-10.2 -75.8 -11.2 -76.1 -14.15 -76.95 -15.7 -78.8 -14.1 -80.55 -12.05 -81.7 L-9.35 -82.9 Q-2.85 -85.1 -4.95 -90.9 L-6.05 -91.55 Q-6.4 -92.55 -7.15 -93.3 -8.75 -94.85 -9.2 -96.95 L-9.0 -97.65 -8.75 -98.3 -7.65 -98.7 -6.85 -98.9 Q-2.1 -98.9 1.45 -101.45 L1.7 -103.15 Q1.7 -103.9 1.25 -104.5 L0.75 -104.9 0.7 -105.15 Q0.85 -106.1 0.55 -106.9 L-0.15 -109.45 Q-0.75 -112.15 -0.65 -114.9 5.05 -114.75 10.4 -112.55 L12.05 -112.35 Q17.7 -113.3 19.2 -119.4" fill="#ffff00" fill-opacity="0.5019608" fill-rule="evenodd" stroke="none"/>
  </g>
</svg>
