<?xml version="1.0" encoding="UTF-8" standalone="no"?>
<svg xmlns:ffdec="https://www.free-decompiler.com/flash" xmlns:xlink="http://www.w3.org/1999/xlink" ffdec:objectType="shape" height="117.6px" width="83.6px" xmlns="http://www.w3.org/2000/svg">
  <g transform="matrix(1.0, 0.0, 0.0, 1.0, 29.2, 115.55)">
    <path d="M34.65 -115.55 Q39.7 -115.55 43.25 -112.0 46.85 -108.4 46.85 -103.4 46.85 -98.4 43.25 -94.85 39.7 -91.25 34.65 -91.25 30.3 -91.25 27.05 -94.0 L26.15 -93.0 Q27.25 -91.4 27.35 -88.9 L27.75 -86.35 27.85 -86.4 Q30.0 -91.5 34.7 -88.55 35.45 -88.1 35.5 -87.2 35.8 -81.8 29.9 -80.6 L29.25 -80.45 30.2 -77.1 30.6 -76.4 30.95 -75.75 Q40.95 -80.35 48.25 -88.65 45.75 -93.95 51.25 -94.95 52.45 -95.2 53.05 -94.1 56.05 -89.05 52.35 -84.3 49.0 -79.95 44.45 -76.75 38.15 -72.3 31.05 -69.5 27.6 -68.1 26.2 -71.15 25.05 -73.7 24.25 -76.4 L23.45 -79.35 16.6 -78.1 14.35 -72.9 Q11.7 -66.2 8.3 -60.05 7.85 -57.25 6.85 -54.8 11.3 -51.4 13.95 -46.1 16.6 -40.75 19.55 -35.7 L21.65 -32.55 Q22.55 -31.4 22.45 -30.45 23.35 -28.55 22.25 -25.7 19.95 -19.6 17.15 -13.7 17.15 -12.8 16.65 -12.05 L15.95 -11.0 Q15.3 -8.35 14.05 -6.0 19.45 -5.3 24.6 -3.6 25.35 -3.35 25.65 -2.5 27.0 1.65 22.65 1.55 L21.5 1.45 Q15.8 0.6 10.6 -1.15 L9.3 -1.05 Q8.25 -1.6 7.7 -2.25 L7.15 -3.2 Q6.65 -4.6 7.7 -6.55 L8.4 -7.5 Q13.1 -18.15 16.9 -28.95 L16.8 -29.05 Q12.5 -33.3 11.1 -39.15 L9.05 -42.7 Q8.55 -43.55 8.4 -44.55 L4.85 -48.85 Q3.8 -46.55 3.2 -44.1 0.6 -33.55 -3.15 -23.45 L-3.75 -21.95 Q-4.45 -20.5 -5.25 -20.0 L-5.3 -19.95 Q-7.55 -17.2 -10.7 -15.4 -12.2 -14.55 -13.3 -13.15 L-19.2 -6.05 -21.2 -3.9 -12.2 -2.15 Q-11.55 -2.0 -11.4 -1.2 -10.85 1.85 -13.95 2.0 -20.5 2.35 -26.85 0.75 -29.65 0.05 -29.0 -2.4 -29.6 -3.9 -28.4 -5.15 L-19.85 -14.6 -16.65 -17.9 Q-13.1 -21.4 -9.1 -23.75 -8.35 -30.25 -5.4 -36.3 L-4.8 -37.85 Q-2.25 -45.45 -0.3 -53.4 0.0 -54.65 0.65 -55.55 L0.95 -56.7 Q2.5 -60.85 4.3 -64.9 L5.75 -67.65 9.7 -76.95 6.2 -76.4 Q2.35 -75.8 -1.5 -76.25 -3.75 -76.55 -3.45 -78.75 -3.05 -81.65 -0.4 -83.55 9.2 -90.55 19.35 -96.6 20.9 -97.5 22.45 -97.85 L22.8 -98.25 23.4 -98.85 Q22.55 -100.95 22.55 -103.4 22.55 -108.4 26.1 -112.0 29.65 -115.55 34.65 -115.55 M21.7 -87.05 L20.25 -84.75 22.1 -85.15 21.7 -87.05 M13.5 -85.55 L14.25 -86.5 14.5 -86.95 8.55 -82.25 12.4 -83.1 12.9 -83.85 Q13.05 -84.75 13.5 -85.55" fill="#000000" fill-rule="evenodd" stroke="none"/>
  </g>
</svg>
