<?xml version="1.0" encoding="UTF-8" standalone="no"?>
<svg xmlns:ffdec="https://www.free-decompiler.com/flash" xmlns:xlink="http://www.w3.org/1999/xlink" ffdec:objectType="shape" height="125.8px" width="79.8px" xmlns="http://www.w3.org/2000/svg">
  <g transform="matrix(1.0, 0.0, 0.0, 1.0, 28.8, 122.75)">
    <path d="M19.45 -99.0 Q21.1 -97.35 22.0 -94.85 L23.0 -92.15 Q24.65 -91.3 24.15 -89.05 L24.15 -89.0 24.15 -88.95 Q25.2 -86.2 25.25 -83.25 26.5 -81.65 26.45 -79.55 L26.6 -78.35 37.15 -86.85 Q39.6 -90.1 42.85 -92.6 42.35 -98.95 48.3 -98.15 50.15 -97.9 50.65 -96.1 52.15 -90.85 46.85 -87.8 L44.6 -86.15 Q35.75 -77.75 26.0 -70.35 25.5 -69.95 24.75 -70.15 21.4 -70.9 21.0 -74.6 L19.9 -82.1 19.75 -82.9 Q18.85 -82.35 17.75 -81.9 L12.05 -79.45 11.45 -77.45 10.9 -76.4 Q9.1 -69.05 6.25 -61.95 L5.5 -60.6 Q4.8 -58.25 4.4 -55.8 6.65 -54.45 8.3 -51.95 L17.7 -38.0 Q19.15 -35.9 20.75 -34.05 21.85 -32.8 22.15 -31.2 23.85 -29.35 21.95 -26.15 18.65 -20.5 15.8 -14.6 13.05 -9.45 11.5 -3.9 L25.05 -3.5 Q25.75 -3.5 26.0 -2.75 27.35 1.35 22.5 2.25 15.25 3.6 9.2 1.0 7.7 2.05 5.8 -0.45 5.15 -1.35 5.25 -2.6 5.75 -9.6 9.6 -15.55 10.75 -17.4 11.55 -19.45 12.4 -21.5 13.8 -23.1 L13.95 -23.8 Q14.1 -24.4 14.6 -24.8 14.9 -26.7 16.25 -28.2 L16.75 -28.7 Q14.7 -31.0 13.8 -33.9 L7.45 -42.7 Q7.15 -43.1 7.05 -43.65 L4.95 -46.35 Q4.4 -37.0 -0.05 -28.6 L-2.6 -23.55 Q-2.35 -22.1 -4.05 -20.15 L-12.45 -10.45 Q-15.7 -6.65 -19.45 -3.6 -15.3 -3.05 -11.35 -1.75 -10.65 -1.55 -10.6 -0.75 -10.4 3.8 -15.5 2.9 L-21.35 2.3 Q-24.3 2.2 -26.35 0.85 L-26.65 0.75 Q-30.3 -0.9 -27.7 -3.95 -24.75 -7.4 -21.25 -10.4 -16.8 -14.25 -13.4 -18.95 -11.0 -22.3 -7.95 -24.55 L-7.7 -25.4 -2.8 -37.6 Q-0.1 -44.45 -0.1 -52.05 L-0.6 -52.35 Q-1.65 -53.05 -1.55 -54.45 -1.05 -60.95 1.6 -66.9 3.75 -71.8 5.2 -76.8 -0.1 -75.1 -5.65 -74.5 -6.7 -74.35 -7.1 -75.4 -8.3 -78.8 -5.95 -81.8 0.8 -90.4 9.2 -97.5 10.9 -100.55 13.7 -101.75 L14.55 -103.2 Q12.0 -106.4 12.0 -110.6 12.0 -115.6 15.55 -119.2 19.1 -122.75 24.1 -122.75 29.15 -122.75 32.7 -119.2 36.3 -115.6 36.3 -110.6 36.3 -105.6 32.7 -102.05 29.15 -98.45 24.1 -98.45 21.6 -98.45 19.5 -99.3 L19.45 -99.0 M16.2 -91.9 L15.5 -90.9 14.35 -87.1 16.5 -88.2 Q16.35 -89.9 16.75 -91.0 L16.2 -91.9 M9.0 -89.3 L5.85 -86.05 2.6 -82.5 7.1 -84.05 7.8 -86.4 8.4 -87.4 9.0 -89.3" fill="#000000" fill-rule="evenodd" stroke="none"/>
  </g>
</svg>
