<?xml version="1.0" encoding="UTF-8" standalone="no"?>
<svg xmlns:ffdec="https://www.free-decompiler.com/flash" xmlns:xlink="http://www.w3.org/1999/xlink" ffdec:objectType="shape" height="150.45px" width="88.65px" xmlns="http://www.w3.org/2000/svg">
  <g transform="matrix(1.0, 0.0, 0.0, 1.0, 38.7, 135.65)">
    <path d="M13.7 -133.1 L13.7 -132.9 Q14.45 -130.45 14.05 -127.8 L13.7 -127.5 13.7 -127.15 13.6 -125.1 13.25 -124.8 13.25 -124.45 13.25 -121.75 Q15.1 -119.25 18.3 -119.05 19.7 -118.1 21.45 -117.85 26.35 -117.1 29.4 -114.45 L29.05 -113.95 Q24.0 -110.6 19.55 -106.4 L19.55 -106.05 19.55 -104.7 Q19.9 -104.15 20.5 -104.0 25.8 -102.75 31.45 -102.95 L32.1 -102.7 Q31.75 -101.15 30.75 -100.0 29.7 -97.25 29.85 -94.25 L30.3 -93.6 30.8 -93.15 Q36.6 -91.6 42.4 -92.9 L42.4 -92.25 42.4 -85.85 Q44.6 -83.4 47.45 -83.4 L46.75 -81.7 Q45.7 -79.35 45.35 -76.95 44.45 -70.85 46.45 -65.55 L49.95 -61.5 Q45.9 -57.45 41.5 -54.1 L41.5 -53.75 Q41.45 -51.7 41.65 -49.7 L42.75 -49.05 Q43.55 -48.25 43.3 -47.45 L39.95 -46.7 Q32.95 -45.9 34.0 -39.4 36.65 -36.8 37.8 -33.65 35.3 -33.2 33.45 -31.4 L33.45 -31.1 33.45 -26.05 35.15 -23.8 Q37.7 -19.05 40.65 -14.6 40.1 -14.25 39.6 -14.25 33.75 -14.1 30.75 -9.45 30.4 -7.35 31.65 -5.7 L31.65 -5.4 31.65 -5.05 Q35.0 -1.6 37.05 2.7 31.8 2.35 28.5 5.85 L28.5 6.15 28.5 10.55 18.9 9.55 14.8 8.65 Q11.5 7.85 10.1 10.75 L10.1 11.1 10.0 14.5 Q5.25 13.15 1.0 10.05 -2.35 7.55 -5.15 9.2 L-5.15 9.55 -5.25 11.8 Q-7.1 11.4 -8.3 12.55 L-13.7 14.8 -14.9 13.6 -15.0 13.25 -15.15 12.55 -16.4 11.2 -16.4 10.9 -16.4 10.55 Q-17.2 9.2 -18.85 9.5 -23.7 10.35 -27.6 12.9 L-27.6 10.2 -27.6 1.1 -28.2 0.75 Q-33.3 -0.15 -38.15 0.8 L-37.65 -1.25 -35.25 -10.3 -35.35 -10.65 Q-35.7 -11.45 -35.7 -12.35 L-35.9 -12.7 -36.15 -13.0 -36.15 -13.35 -36.15 -13.7 Q-37.1 -15.55 -38.7 -16.7 L-33.0 -19.75 Q-28.6 -20.55 -25.35 -23.55 L-25.35 -23.9 -25.35 -25.25 Q-24.15 -25.7 -23.1 -26.5 -20.6 -27.05 -18.25 -28.0 L-15.9 -28.5 Q-11.8 -28.8 -11.0 -32.1 -11.3 -32.45 -11.6 -32.5 L-29.05 -35.8 Q-21.3 -37.3 -13.75 -39.65 -7.95 -41.45 -3.8 -45.2 -5.2 -47.0 -7.4 -47.8 -5.55 -50.75 -2.9 -53.2 L-2.9 -53.55 -2.9 -53.85 -2.7 -54.2 -2.45 -54.9 Q-3.4 -56.65 -5.4 -57.0 -6.5 -57.2 -7.25 -56.6 -10.4 -54.15 -12.1 -50.4 L-12.9 -49.95 Q-15.6 -50.95 -17.95 -52.75 -21.05 -50.65 -23.55 -47.8 L-23.5 -48.1 Q-22.85 -49.9 -23.1 -51.85 -25.5 -53.15 -28.05 -53.65 -27.05 -58.45 -32.55 -60.05 L-32.55 -60.25 -32.55 -61.6 Q-30.15 -64.5 -28.3 -67.55 -26.8 -70.0 -28.4 -72.2 -30.35 -74.7 -32.55 -75.85 -25.4 -78.55 -20.55 -83.95 L-20.45 -84.3 -20.4 -85.95 -22.2 -88.65 -22.25 -89.0 -22.0 -90.0 Q-21.25 -90.35 -20.75 -90.85 -19.75 -91.85 -18.4 -92.25 -12.8 -93.85 -12.0 -98.75 L-13.9 -100.75 -13.35 -101.45 -13.25 -101.8 -12.8 -104.15 -12.55 -104.5 -12.35 -104.8 -12.35 -105.15 -12.35 -108.85 Q-14.8 -110.8 -18.2 -111.0 -14.95 -114.7 -12.35 -118.75 L-12.35 -119.05 Q-12.25 -120.6 -12.45 -122.1 -13.85 -123.6 -15.7 -124.7 L-17.3 -126.25 -16.15 -126.55 Q-11.15 -126.55 -7.4 -129.5 L-7.4 -129.85 -7.4 -135.2 -7.05 -135.55 -5.5 -135.65 Q-1.4 -133.95 3.05 -133.0 8.25 -130.5 13.7 -133.1" fill="#ffff00" fill-opacity="0.5019608" fill-rule="evenodd" stroke="none"/>
  </g>
</svg>
