<?xml version="1.0" encoding="UTF-8" standalone="no"?>
<svg xmlns:ffdec="https://www.free-decompiler.com/flash" xmlns:xlink="http://www.w3.org/1999/xlink" ffdec:objectType="shape" height="127.55px" width="62.85px" xmlns="http://www.w3.org/2000/svg">
  <g transform="matrix(1.0, 0.0, 0.0, 1.0, 27.4, 124.75)">
    <path d="M16.4 -112.95 Q16.4 -108.05 12.95 -104.6 9.9 -101.55 5.7 -101.2 6.25 -99.9 6.4 -98.55 L9.2 -92.55 Q18.2 -89.75 26.1 -84.65 L29.85 -81.8 Q31.1 -80.65 32.0 -79.15 35.1 -73.95 35.45 -67.9 35.65 -64.85 33.8 -62.75 30.7 -59.15 27.5 -62.8 25.05 -65.55 28.15 -67.5 L29.4 -68.0 Q29.7 -69.0 29.25 -69.95 28.9 -70.8 28.7 -71.75 L28.6 -72.4 Q26.9 -77.55 22.4 -80.1 L16.85 -83.25 12.1 -85.65 15.5 -76.0 Q18.45 -66.75 19.45 -57.1 L20.15 -52.1 20.3 -50.8 Q21.2 -49.3 21.1 -47.0 20.6 -36.35 19.5 -25.85 19.3 -23.8 18.7 -21.8 L13.15 -4.25 Q16.0 -2.55 20.9 -2.85 21.75 -2.9 22.25 -2.2 25.1 1.75 20.15 2.65 L18.85 2.8 Q12.5 3.05 7.6 -0.6 7.1 -1.0 7.15 -1.7 7.3 -8.0 9.6 -13.95 L11.3 -18.3 Q11.9 -19.85 12.8 -21.2 14.2 -27.8 14.7 -34.6 L15.15 -38.1 15.25 -39.1 Q15.65 -42.15 14.5 -44.15 L14.8 -44.25 14.7 -46.45 14.6 -49.5 14.7 -50.55 14.7 -50.6 Q11.75 -45.95 10.4 -40.65 8.35 -32.75 3.4 -26.3 2.95 -25.75 2.3 -25.7 L1.8 -25.3 Q-2.45 -21.9 -6.85 -18.7 -12.05 -14.95 -17.45 -12.0 -18.2 -11.6 -19.05 -11.3 L-19.35 -11.2 -19.05 -11.0 -19.1 -11.0 -8.7 -1.9 Q-7.5 -0.9 -8.55 0.3 -11.45 3.55 -15.05 0.4 -21.25 -5.05 -26.65 -11.1 -28.25 -12.85 -26.5 -14.5 L-25.7 -15.15 -24.85 -15.9 Q-22.85 -17.05 -20.5 -17.45 -19.05 -17.65 -17.85 -18.55 -9.25 -24.8 -0.4 -30.05 L1.75 -34.7 Q3.8 -39.05 5.25 -43.55 6.7 -47.9 9.0 -51.85 10.35 -54.05 11.25 -56.5 12.05 -58.6 13.75 -59.4 L13.45 -60.95 11.45 -69.0 Q9.05 -78.2 5.1 -87.15 L4.75 -88.15 Q1.15 -84.0 -2.9 -80.25 L-6.8 -76.65 Q-8.75 -74.9 -10.15 -72.65 L-15.15 -64.85 Q-15.1 -64.1 -15.4 -63.5 -15.8 -62.7 -16.5 -62.15 -15.0 -57.15 -20.2 -56.8 -22.45 -56.65 -22.7 -58.85 -23.3 -63.9 -20.3 -68.15 L-14.45 -76.65 Q-11.8 -81.55 -6.8 -84.7 -4.15 -86.4 -2.4 -88.95 -0.3 -92.05 2.5 -93.9 -0.3 -99.3 -3.55 -104.4 L-3.75 -104.6 Q-7.2 -108.05 -7.2 -112.95 -7.2 -117.85 -3.75 -121.3 -0.3 -124.75 4.6 -124.75 9.5 -124.75 12.95 -121.3 16.4 -117.85 16.4 -112.95" fill="#000000" fill-rule="evenodd" stroke="none"/>
  </g>
</svg>
