<?xml version="1.0" encoding="UTF-8" standalone="no"?>
<svg xmlns:ffdec="https://www.free-decompiler.com/flash" xmlns:xlink="http://www.w3.org/1999/xlink" ffdec:objectType="shape" height="155.3px" width="85.55px" xmlns="http://www.w3.org/2000/svg">
  <g transform="matrix(1.0, 0.0, 0.0, 1.0, 37.05, 134.1)">
    <path d="M20.45 -129.15 L20.4 -128.5 Q20.4 -127.95 20.65 -127.5 L21.0 -126.45 29.4 -123.45 29.1 -122.75 28.9 -121.4 28.95 -120.4 28.75 -120.05 28.5 -119.75 28.45 -119.05 Q28.35 -118.3 28.7 -117.7 L28.95 -116.7 32.5 -113.8 Q35.6 -111.55 37.8 -108.65 36.05 -107.8 34.2 -107.25 31.4 -106.4 29.4 -104.35 L29.4 -104.05 29.4 -103.35 29.45 -103.0 29.5 -102.7 29.9 -102.4 30.55 -102.0 30.65 -101.7 Q31.0 -100.9 31.8 -100.55 L32.1 -100.2 32.05 -99.9 31.95 -99.55 31.65 -99.2 Q30.0 -99.05 28.55 -98.35 26.05 -97.15 24.9 -95.05 25.8 -93.25 27.55 -92.0 L32.9 -88.0 32.35 -87.0 31.85 -84.25 Q31.65 -82.95 30.75 -81.9 L30.75 -81.6 30.75 -80.9 30.8 -80.6 30.85 -80.25 Q33.3 -79.7 35.6 -78.6 40.9 -76.0 44.35 -71.6 43.45 -70.2 42.15 -69.3 L39.75 -67.35 39.75 -66.65 39.75 -66.3 39.75 -66.0 44.55 -61.35 Q46.95 -58.95 48.5 -55.9 47.55 -55.3 46.55 -55.05 44.45 -54.45 43.3 -52.75 L43.25 -50.75 Q43.1 -48.8 43.5 -46.95 43.95 -44.75 44.65 -42.65 L43.75 -42.65 Q39.35 -45.75 34.8 -44.45 L34.8 -43.75 34.85 -41.4 34.7 -39.4 32.75 -39.05 Q30.0 -38.85 28.5 -36.7 28.35 -35.6 28.8 -34.6 30.3 -31.45 32.15 -28.45 L36.35 -21.55 35.0 -21.25 Q31.5 -20.7 28.5 -18.85 L28.5 -17.85 Q28.5 -16.65 28.8 -15.55 29.1 -14.4 28.95 -13.15 L29.2 -12.8 29.5 -12.45 29.75 -12.1 29.85 -11.45 29.85 -11.1 29.85 -10.75 30.2 -10.45 31.05 -9.45 31.3 -8.4 31.65 -8.1 31.95 -7.7 32.1 -7.4 32.15 -6.75 32.15 -6.4 32.0 -6.05 Q28.15 -3.5 28.65 1.05 L28.95 6.75 Q24.7 7.85 22.7 12.35 L19.55 18.75 19.3 18.6 18.85 18.3 18.4 17.95 Q17.8 16.25 16.3 15.25 14.95 14.35 13.6 14.95 8.4 17.25 4.4 21.2 L4.2 20.95 Q3.5 19.6 2.45 18.4 1.55 17.3 1.55 15.95 L1.1 15.25 0.9 14.9 0.7 14.6 Q0.8 13.6 0.05 12.95 L-2.9 13.0 -4.05 13.25 -4.5 13.35 -4.7 13.45 -5.1 14.05 -5.25 14.35 -5.4 14.7 Q-6.5 15.2 -7.4 15.9 L-12.35 19.75 -13.45 20.0 -13.9 20.05 -14.25 20.1 Q-16.1 16.75 -17.5 13.1 -17.85 12.15 -18.85 12.2 -25.6 12.7 -31.65 14.9 L-31.65 12.9 -31.75 9.55 Q-31.85 7.25 -31.2 5.15 L-31.4 4.85 -31.65 4.5 -31.65 3.8 -31.65 3.5 -31.75 3.15 Q-33.0 1.4 -34.65 0.35 -36.3 -0.65 -37.05 -2.25 L-36.05 -3.1 Q-34.95 -3.7 -34.1 -4.7 L-33.8 -5.3 Q-33.2 -5.9 -33.0 -6.75 L-32.55 -8.1 -32.7 -8.75 Q-32.95 -10.55 -33.95 -12.1 L-36.0 -15.15 -36.2 -15.8 -36.5 -16.85 -36.6 -17.5 Q-32.2 -17.65 -28.0 -18.65 -26.65 -18.95 -25.8 -20.4 -26.25 -24.65 -24.8 -28.45 L-24.4 -28.9 -15.25 -29.85 -14.85 -31.2 Q-14.25 -32.9 -14.7 -34.65 -15.05 -36.1 -15.05 -37.6 L-14.0 -38.65 Q-11.55 -39.95 -8.5 -39.7 -8.05 -39.65 -7.9 -40.1 -6.55 -43.45 -4.7 -46.45 L-4.7 -47.15 -4.4 -48.15 Q-4.2 -48.65 -4.25 -49.15 L-4.5 -49.5 -4.85 -49.8 -5.4 -50.05 -5.85 -49.9 -6.05 -49.85 Q-10.55 -45.2 -16.6 -46.1 L-16.8 -46.5 -16.85 -46.8 -16.95 -47.15 Q-17.9 -49.05 -19.8 -50.0 -23.95 -52.05 -27.95 -51.75 L-27.0 -52.45 -26.35 -53.1 Q-26.2 -53.55 -26.2 -54.1 L-26.25 -55.45 -26.25 -56.8 -26.5 -57.1 -26.7 -57.45 -26.7 -58.15 -26.75 -58.45 -26.8 -58.8 Q-27.85 -60.0 -28.7 -61.35 L-30.75 -64.2 -25.05 -64.9 -24.45 -65.4 Q-23.55 -67.25 -23.9 -69.3 -24.6 -73.15 -24.9 -77.1 L-17.6 -76.85 Q-17.15 -77.45 -17.4 -78.2 L-19.05 -83.95 Q-19.65 -86.4 -19.5 -89.0 -16.2 -90.2 -12.55 -90.45 L-12.4 -91.15 Q-12.35 -91.8 -12.45 -92.45 -12.55 -93.25 -13.15 -93.8 L-13.3 -94.85 -13.3 -96.15 -13.15 -97.5 -12.45 -97.7 Q-11.05 -97.8 -10.1 -98.75 L-8.5 -99.35 -7.85 -99.9 Q-7.9 -102.0 -9.55 -103.45 -11.15 -104.9 -12.35 -106.6 L-10.65 -107.95 Q-9.75 -108.4 -9.2 -109.3 -9.55 -114.0 -11.95 -118.2 -14.0 -121.8 -16.4 -125.1 L-16.4 -125.45 -16.4 -125.8 -16.5 -126.15 Q-13.45 -126.25 -10.8 -124.9 -8.65 -123.85 -7.3 -125.5 -4.4 -129.05 -2.0 -132.85 0.4 -132.55 2.6 -131.3 5.3 -129.75 8.1 -130.55 13.25 -132.05 18.4 -134.1 18.95 -134.15 19.05 -133.55 L19.25 -131.9 19.55 -130.15 19.85 -129.85 20.2 -129.5 20.45 -129.15" fill="#ffff00" fill-opacity="0.5019608" fill-rule="evenodd" stroke="none"/>
  </g>
</svg>
