<?xml version="1.0" encoding="UTF-8" standalone="no"?>
<svg xmlns:ffdec="https://www.free-decompiler.com/flash" xmlns:xlink="http://www.w3.org/1999/xlink" ffdec:objectType="shape" height="126.1px" width="60.65px" xmlns="http://www.w3.org/2000/svg">
  <g transform="matrix(1.0, 0.0, 0.0, 1.0, 25.6, 122.8)">
    <path d="M9.9 -122.8 Q14.8 -122.8 18.25 -119.35 21.7 -115.9 21.7 -111.0 21.7 -106.1 18.25 -102.65 14.85 -99.25 10.1 -99.2 L10.15 -99.1 10.2 -98.95 9.7 -99.0 9.4 -99.1 11.85 -91.3 Q16.2 -90.1 20.0 -86.95 L26.85 -81.45 Q33.85 -75.9 34.85 -66.8 35.25 -63.0 34.9 -59.05 34.45 -53.25 28.4 -55.3 27.15 -55.75 26.7 -57.0 25.35 -60.8 29.05 -62.5 29.2 -64.8 28.6 -66.85 28.0 -68.85 27.7 -70.9 L27.25 -71.6 Q26.8 -72.2 26.8 -72.95 L26.8 -73.3 Q20.7 -79.35 13.45 -83.9 L14.45 -76.55 Q15.1 -69.85 16.35 -63.35 L17.65 -55.6 Q19.35 -54.15 18.1 -51.6 L18.6 -44.05 18.45 -44.1 18.45 -41.95 Q18.25 -39.95 18.35 -38.0 19.9 -36.05 18.85 -32.85 L19.0 -31.9 Q19.65 -28.65 18.15 -27.35 L17.85 -25.5 Q17.2 -19.7 16.1 -13.95 15.15 -9.1 13.7 -4.45 L13.7 -3.95 Q19.75 -4.4 19.75 0.45 19.75 1.45 18.75 1.65 12.35 3.2 7.55 -0.85 6.95 -1.35 7.2 -2.2 10.1 -11.85 11.4 -21.8 L12.05 -27.2 12.35 -27.5 Q12.15 -30.8 12.85 -33.8 12.45 -36.4 12.2 -39.05 L12.1 -40.75 Q7.45 -32.25 1.5 -24.4 -0.4 -21.85 -2.75 -19.7 -7.95 -14.9 -13.4 -10.75 L-16.6 -8.5 -15.2 -7.75 -17.4 -6.4 Q-14.4 -3.85 -10.05 -1.35 -8.65 -0.55 -9.25 0.9 -10.85 4.8 -14.85 2.35 -19.7 -0.65 -24.65 -3.25 -25.85 -3.85 -25.55 -5.25 -25.1 -7.1 -23.8 -8.55 -24.1 -10.1 -22.15 -11.7 L-16.25 -16.05 Q-5.8 -23.15 1.05 -33.85 L4.55 -39.1 6.6 -42.1 Q6.9 -45.1 9.15 -46.25 L9.45 -47.35 Q10.55 -50.35 12.1 -53.2 L11.85 -54.75 Q9.7 -67.8 8.1 -81.05 L6.9 -87.8 -1.0 -80.1 Q-5.3 -76.2 -6.95 -70.55 L-8.6 -63.35 -9.0 -61.15 Q-4.45 -58.35 -8.9 -55.05 -9.3 -54.75 -9.85 -54.75 -15.75 -54.7 -15.25 -60.4 -14.8 -65.9 -12.7 -70.8 -12.6 -72.05 -12.15 -73.2 L-11.45 -74.2 Q-9.35 -82.35 -2.15 -87.6 0.3 -89.4 2.3 -91.6 3.5 -92.9 5.05 -93.85 L5.15 -93.9 2.6 -100.2 Q0.65 -102.05 0.5 -103.8 -1.9 -106.9 -1.9 -111.0 -1.9 -115.9 1.55 -119.35 5.0 -122.8 9.9 -122.8" fill="#000000" fill-rule="evenodd" stroke="none"/>
  </g>
</svg>
