<?xml version="1.0" encoding="UTF-8" standalone="no"?>
<svg xmlns:ffdec="https://www.free-decompiler.com/flash" xmlns:xlink="http://www.w3.org/1999/xlink" ffdec:objectType="shape" height="157.85px" width="90.25px" xmlns="http://www.w3.org/2000/svg">
  <g transform="matrix(1.0, 0.0, 0.0, 1.0, 40.4, 135.65)">
    <path d="M22.55 -133.0 L23.45 -132.3 Q23.5 -131.75 23.8 -131.3 L24.2 -130.95 Q26.25 -128.75 28.65 -127.0 29.1 -126.65 29.6 -126.7 L34.35 -127.5 33.65 -121.75 33.0 -121.1 32.95 -120.75 Q31.85 -117.4 32.1 -113.7 33.05 -111.5 35.25 -110.75 35.35 -110.25 35.7 -109.75 L29.4 -104.5 29.4 -104.15 29.4 -102.8 Q31.4 -98.9 35.45 -97.2 L34.8 -96.5 34.8 -96.15 34.8 -94.85 34.35 -94.15 34.35 -93.8 34.35 -92.45 35.1 -92.0 Q41.25 -90.1 47.35 -90.2 L46.9 -89.65 Q46.9 -88.3 46.0 -87.3 L45.55 -84.95 45.1 -84.3 Q44.0 -79.15 48.7 -77.75 49.0 -77.05 49.85 -77.0 46.3 -75.9 43.75 -73.4 L43.75 -73.05 43.75 -70.05 Q44.4 -69.6 44.65 -69.0 L44.65 -68.7 44.65 -68.35 45.45 -67.1 39.05 -66.9 Q37.75 -66.85 36.7 -66.1 35.85 -63.8 35.6 -61.4 L35.25 -61.05 35.25 -60.7 35.25 -59.7 33.05 -60.25 Q28.7 -61.8 27.15 -58.25 L27.15 -57.9 27.15 -57.55 Q24.75 -56.45 22.65 -55.0 L22.65 -54.65 22.65 -51.6 23.45 -50.95 Q25.3 -47.35 28.05 -44.2 27.75 -42.7 26.7 -41.5 L26.8 -38.5 36.6 -31.1 Q33.45 -30.15 31.2 -27.85 30.95 -24.1 33.9 -21.45 33.85 -20.7 34.25 -20.1 32.0 -19.05 30.3 -17.4 30.2 -14.95 32.55 -14.05 33.4 -12.15 35.25 -11.35 35.85 -10.0 36.9 -9.0 33.5 -8.3 31.2 -6.05 31.1 -5.2 31.3 -4.4 31.5 -4.2 31.7 -4.15 37.0 -2.0 40.75 2.35 36.5 3.5 33.9 6.4 L33.9 6.75 33.9 9.45 28.75 9.4 Q28.05 9.45 27.6 9.85 24.2 13.1 21.55 16.7 18.1 15.25 15.0 13.1 11.55 10.65 8.2 12.25 L7.5 12.25 Q4.2 9.25 1.1 11.8 L1.1 12.1 1.1 12.45 Q-0.9 16.25 -4.5 17.75 L-5.4 17.15 Q-7.95 12.85 -12.1 10.55 -13.3 11.05 -14.15 12.1 -14.05 12.65 -14.25 13.15 L-15.45 14.85 Q-18.4 18.8 -21.75 22.2 L-22.65 20.85 -25.65 13.4 Q-26.0 12.55 -26.85 12.45 -31.25 11.95 -35.7 13.0 L-35.7 12.7 -35.7 10.3 -35.25 9.65 -35.25 7.65 -35.25 7.3 Q-35.0 3.25 -36.25 -0.45 -38.05 -2.25 -40.4 -3.35 -38.1 -6.25 -34.95 -8.2 L-34.25 -8.5 Q-28.45 -10.3 -28.05 -15.5 -30.45 -17.05 -32.45 -18.95 L-28.55 -21.1 Q-23.35 -23.65 -19.1 -27.15 -18.7 -30.7 -22.1 -32.2 L-23.1 -34.1 Q-23.0 -34.95 -22.2 -35.45 -20.85 -35.45 -19.95 -36.35 -14.95 -37.35 -11.1 -40.4 -10.95 -40.9 -11.2 -41.3 L-14.9 -46.8 Q-11.95 -48.8 -8.3 -49.45 -4.55 -50.1 -2.0 -52.4 -2.45 -53.5 -3.35 -54.1 L-3.35 -54.45 -3.35 -55.45 -3.95 -55.8 Q-12.1 -57.1 -19.4 -60.95 L-19.55 -61.85 -19.5 -62.15 Q-19.3 -66.15 -19.85 -69.9 -22.75 -71.85 -25.35 -72.25 -20.75 -75.05 -16.5 -78.1 -15.8 -81.8 -18.85 -83.25 L-17.3 -85.1 Q-13.4 -88.75 -9.65 -92.7 L-9.65 -93.05 -9.65 -94.05 Q-11.65 -95.9 -14.55 -96.35 -18.0 -96.95 -19.75 -99.0 -15.15 -102.0 -11.0 -105.7 -10.85 -107.1 -11.2 -108.4 -14.2 -109.8 -16.85 -111.75 L-15.55 -113.1 -14.7 -113.75 Q-10.35 -116.5 -10.65 -121.2 -12.05 -123.0 -13.9 -124.25 L-15.05 -125.9 -15.05 -126.25 -15.05 -127.95 -4.55 -128.65 Q-3.75 -128.7 -3.35 -129.5 L-3.35 -129.85 -3.35 -135.55 -1.9 -135.65 Q6.7 -132.1 15.85 -129.0 16.85 -128.65 17.6 -129.2 L22.55 -133.0" fill="#ffff00" fill-opacity="0.5019608" fill-rule="evenodd" stroke="none"/>
  </g>
</svg>
