<?xml version="1.0" encoding="UTF-8" standalone="no"?>
<svg xmlns:ffdec="https://www.free-decompiler.com/flash" xmlns:xlink="http://www.w3.org/1999/xlink" ffdec:objectType="shape" height="158.7px" width="95.6px" xmlns="http://www.w3.org/2000/svg">
  <g transform="matrix(1.0, 0.0, 0.0, 1.0, 42.85, 139.15)">
    <path d="M28.3 -134.8 L29.05 -134.45 29.25 -133.75 Q29.3 -132.55 29.5 -131.4 L30.3 -130.4 30.3 -130.05 30.3 -129.75 Q34.1 -125.85 38.7 -123.0 L38.9 -122.7 39.85 -121.3 39.5 -121.0 Q38.0 -119.75 36.25 -118.85 32.9 -117.15 31.2 -114.0 L31.2 -113.35 31.2 -111.3 31.65 -110.65 31.65 -110.3 31.65 -110.0 32.45 -109.3 32.55 -108.95 33.8 -106.25 Q30.45 -104.5 28.05 -101.65 L28.05 -101.0 28.15 -100.0 Q36.4 -99.35 44.55 -99.9 L44.65 -99.2 44.7 -98.85 Q44.95 -94.95 46.0 -91.1 L46.35 -90.8 Q46.9 -90.2 46.9 -89.45 49.0 -86.2 52.75 -86.65 L52.45 -86.15 Q51.95 -85.5 51.75 -84.75 50.35 -84.05 49.6 -82.7 47.0 -81.35 45.1 -79.0 L45.1 -78.35 45.1 -76.3 Q46.65 -74.95 48.5 -74.2 45.5 -72.75 43.75 -70.05 L43.75 -69.7 43.65 -69.35 Q42.3 -65.55 40.5 -61.95 L39.85 -61.85 Q39.0 -62.75 37.8 -63.1 36.3 -63.45 34.95 -64.25 31.35 -66.3 28.5 -64.4 L28.4 -63.4 Q28.0 -60.9 27.95 -58.35 27.1 -58.5 26.5 -59.0 24.7 -60.3 22.8 -59.4 21.2 -58.6 20.95 -56.85 20.25 -51.95 23.35 -49.05 23.8 -47.65 25.35 -47.7 L28.6 -45.1 28.35 -44.8 Q27.85 -44.4 27.6 -43.75 L27.6 -43.1 27.7 -42.1 31.25 -39.9 Q37.05 -36.6 41.4 -31.85 39.3 -30.8 37.7 -29.2 34.85 -29.05 33.45 -26.7 33.45 -25.7 33.85 -24.9 35.95 -20.55 39.6 -16.95 33.9 -15.25 29.4 -11.55 L29.4 -11.2 29.5 -10.2 35.8 -6.95 Q38.85 -3.7 41.5 -0.2 L41.55 0.1 41.4 1.1 Q35.35 2.25 31.2 6.05 L31.2 7.05 31.2 10.75 Q25.55 10.15 19.8 10.95 17.85 11.2 16.85 13.0 L16.7 13.6 Q16.1 14.8 15.8 16.05 L14.6 17.05 14.55 17.35 Q14.1 18.55 13.15 19.4 L12.7 19.55 Q11.05 18.75 9.7 17.5 L7.2 14.65 Q4.75 11.25 1.1 11.2 -1.7 15.4 -5.4 18.85 L-7.3 18.95 -8.4 18.3 Q-10.5 15.1 -13.9 13.7 -19.15 17.45 -24.7 19.2 L-28.15 13.45 Q-28.45 12.95 -28.85 12.85 -33.15 11.45 -37.95 12.25 L-37.95 11.55 -37.8 10.2 -37.05 9.2 -36.85 7.9 Q-36.55 7.05 -36.55 6.15 L-36.6 -1.55 -36.8 -1.9 -37.8 -3.95 Q-40.7 -6.45 -42.85 -9.3 -40.4 -11.35 -37.5 -12.55 -34.3 -13.75 -31.0 -14.55 -26.35 -15.7 -26.25 -20.0 L-27.05 -21.0 -27.1 -21.3 Q-27.1 -21.9 -27.5 -22.35 -30.1 -24.0 -30.95 -26.7 L-30.65 -27.4 -29.65 -27.75 -28.6 -28.05 Q-23.55 -28.6 -19.95 -31.65 L-19.95 -32.3 -19.95 -34.35 -20.2 -34.65 -21.2 -35.35 Q-22.1 -36.95 -23.55 -37.95 L-23.55 -38.6 -23.55 -39.95 -23.3 -40.25 Q-19.2 -44.8 -13.8 -48.05 -13.4 -50.25 -15.4 -51.45 -18.55 -53.35 -19.95 -55.75 L-18.45 -56.85 Q-12.35 -59.95 -6.95 -63.65 -6.95 -64.25 -7.55 -64.3 -13.8 -64.55 -18.75 -68.1 L-18.4 -68.45 -17.05 -69.35 -16.8 -70.0 Q-16.2 -71.3 -16.5 -72.7 L-17.45 -73.65 Q-22.3 -77.35 -27.7 -80.35 L-18.9 -85.45 Q-13.75 -88.25 -15.95 -93.15 L-15.75 -93.45 Q-11.95 -97.5 -7.5 -101.0 L-7.3 -101.65 Q-7.0 -102.3 -6.95 -103.0 L-7.2 -103.7 Q-7.5 -104.7 -7.4 -105.7 -12.7 -108.1 -16.6 -111.55 -12.45 -113.6 -9.2 -116.95 -9.1 -118.7 -10.75 -119.5 -13.2 -120.7 -13.9 -121.85 -13.2 -122.0 -12.7 -122.55 -9.9 -122.95 -7.2 -123.8 -1.15 -125.75 -5.05 -130.6 L-5.1 -130.95 -5.15 -131.95 4.45 -132.55 Q5.25 -132.6 5.85 -133.1 L6.05 -133.75 Q6.8 -135.7 7.05 -137.8 L8.1 -138.5 8.2 -138.8 8.3 -139.15 Q13.3 -137.55 18.2 -134.5 23.55 -131.1 28.3 -134.8" fill="#ffff00" fill-opacity="0.5019608" fill-rule="evenodd" stroke="none"/>
  </g>
</svg>
