<?xml version="1.0" encoding="UTF-8" standalone="no"?>
<svg xmlns:ffdec="https://www.free-decompiler.com/flash" xmlns:xlink="http://www.w3.org/1999/xlink" ffdec:objectType="shape" height="127.1px" width="64.2px" xmlns="http://www.w3.org/2000/svg">
  <g transform="matrix(1.0, 0.0, 0.0, 1.0, 26.35, 124.75)">
    <path d="M3.5 -121.3 Q6.95 -124.75 11.85 -124.75 16.75 -124.75 20.2 -121.3 23.65 -117.85 23.65 -112.95 23.65 -108.05 20.2 -104.6 16.8 -101.2 12.05 -101.15 L12.1 -101.05 12.15 -100.9 11.65 -100.95 9.95 -101.4 9.9 -101.3 9.35 -97.15 Q13.9 -94.0 16.5 -88.65 19.4 -82.55 25.25 -78.8 L26.25 -78.8 Q27.95 -79.65 29.15 -81.15 L29.4 -81.45 Q26.15 -86.3 32.0 -88.35 37.25 -90.15 37.8 -85.25 38.3 -81.2 35.2 -78.25 L34.1 -77.05 Q28.9 -70.95 21.8 -74.0 L20.25 -74.9 Q13.2 -80.2 9.75 -88.1 L8.65 -89.4 8.25 -82.1 Q9.9 -83.2 12.85 -81.7 14.5 -80.85 14.1 -79.1 13.1 -74.25 8.2 -73.3 L8.25 -69.7 Q8.55 -62.4 7.45 -55.45 10.25 -53.2 11.65 -49.55 14.0 -43.4 18.2 -38.3 21.0 -34.9 22.4 -31.1 24.25 -29.7 22.4 -26.65 15.9 -16.1 13.2 -4.1 L21.3 -3.75 Q26.2 -3.4 24.45 0.55 23.9 1.85 22.45 1.85 15.55 1.9 9.1 0.35 8.15 0.15 8.1 -0.9 L8.1 -1.25 Q7.3 -2.15 7.55 -3.6 9.75 -16.65 16.4 -28.0 L16.85 -28.75 16.2 -29.7 Q15.7 -30.55 15.6 -31.55 12.45 -35.85 9.55 -40.35 9.35 -40.6 9.3 -40.95 L6.0 -46.85 Q3.8 -37.2 0.55 -28.05 0.5 -25.7 -0.45 -24.6 -0.75 -23.6 -2.0 -22.35 -10.2 -14.4 -17.05 -5.45 L-18.1 -3.95 -9.95 -2.75 Q-9.35 -2.65 -9.2 -2.0 -8.05 2.4 -12.8 2.35 L-23.5 1.45 Q-27.2 0.85 -26.1 -2.35 -25.65 -3.7 -24.5 -4.05 -21.35 -12.2 -14.6 -18.1 -13.3 -19.25 -12.15 -20.55 -9.1 -23.95 -5.65 -26.35 -5.65 -29.15 -4.6 -31.8 -2.3 -37.5 -1.05 -43.5 L0.85 -51.3 Q1.25 -52.7 1.15 -54.2 1.0 -56.5 2.45 -57.4 L2.9 -73.1 -11.85 -73.55 Q-13.65 -73.65 -13.75 -75.45 -13.95 -79.4 -11.4 -82.6 L-7.3 -87.85 Q-3.25 -94.85 3.7 -98.4 L4.4 -103.85 4.25 -103.9 3.5 -104.6 Q0.05 -108.05 0.05 -112.95 0.05 -117.85 3.5 -121.3 M3.0 -83.25 L3.2 -90.95 -0.3 -87.2 -4.7 -81.7 -5.5 -80.1 -6.4 -79.0 2.95 -78.95 3.0 -83.25" fill="#000000" fill-rule="evenodd" stroke="none"/>
  </g>
</svg>
