<?xml version="1.0" encoding="UTF-8" standalone="no"?>
<svg xmlns:ffdec="https://www.free-decompiler.com/flash" xmlns:xlink="http://www.w3.org/1999/xlink" ffdec:objectType="shape" height="129.15px" width="81.25px" xmlns="http://www.w3.org/2000/svg">
  <g transform="matrix(1.0, 0.0, 0.0, 1.0, 16.0, 124.05)">
    <path d="M38.15 -120.6 Q41.6 -117.15 41.6 -112.25 41.6 -107.35 38.15 -103.9 36.1 -101.85 33.55 -101.0 33.75 -99.1 32.9 -96.75 L32.0 -93.3 31.35 -90.15 31.65 -89.35 30.85 -88.3 30.35 -86.35 Q32.6 -85.9 34.95 -83.45 38.85 -79.35 43.65 -76.65 48.75 -79.85 52.15 -85.6 L59.2 -97.5 Q55.8 -98.85 55.9 -102.25 55.95 -103.9 57.4 -104.7 L57.8 -104.85 58.65 -105.0 58.65 -105.05 Q67.35 -104.75 64.55 -96.45 63.05 -92.0 60.35 -88.1 L51.1 -75.15 Q44.75 -66.45 36.45 -74.0 L28.6 -80.8 Q26.9 -75.8 24.6 -71.0 21.1 -63.4 16.5 -56.45 18.7 -53.95 16.55 -49.75 16.1 -48.95 16.0 -47.9 14.9 -34.5 15.4 -20.85 L17.8 -18.15 18.05 -17.7 26.15 -10.8 Q27.25 -7.7 29.8 -5.4 L30.05 -4.95 Q33.85 -2.15 31.35 0.1 L30.8 0.85 28.7 2.4 27.85 2.7 27.9 2.4 19.35 1.85 Q18.65 1.75 18.05 1.2 L17.9 0.65 Q17.65 -0.9 18.8 -1.95 L19.3 -2.3 19.65 -2.45 20.5 -2.6 20.5 -2.65 24.7 -2.35 Q22.6 -4.3 20.9 -6.75 18.05 -10.7 14.2 -14.05 8.35 -19.05 9.6 -27.3 10.1 -30.65 9.85 -34.1 9.45 -39.9 10.1 -45.4 L9.75 -44.6 9.05 -43.45 Q9.05 -42.65 8.6 -41.9 L7.8 -40.8 Q5.75 -34.1 3.3 -27.55 2.95 -26.6 2.15 -26.0 2.2 -19.25 2.95 -12.55 4.0 -11.35 4.1 -9.4 L4.1 -8.85 Q6.95 -3.9 4.2 1.45 3.85 2.2 2.85 2.2 -4.45 2.45 -11.75 1.8 -12.4 1.75 -13.05 1.2 -13.8 -1.3 -11.3 -1.75 L0.2 -3.05 -0.9 -6.95 -1.4 -6.95 Q-2.7 -15.2 -3.55 -23.55 -3.9 -27.4 -1.8 -30.7 0.15 -33.7 1.0 -37.2 1.95 -40.9 3.55 -44.15 L3.7 -44.7 3.8 -45.2 3.9 -45.75 4.45 -46.3 5.0 -46.8 6.55 -51.45 6.55 -51.6 Q15.95 -64.5 21.9 -79.2 15.55 -74.25 7.55 -71.5 6.85 -71.25 6.25 -72.0 3.1 -75.85 5.1 -80.75 5.75 -82.25 6.05 -83.9 11.45 -91.5 17.4 -98.7 18.45 -99.95 19.8 -100.15 25.75 -100.45 24.2 -95.0 L24.05 -94.5 Q15.2 -90.25 11.0 -80.9 10.5 -79.85 10.45 -78.75 14.6 -80.45 18.6 -83.35 18.9 -84.3 19.8 -85.0 L22.1 -86.55 22.6 -87.5 Q23.45 -88.55 24.75 -89.2 L25.95 -91.0 Q27.2 -95.65 28.0 -100.5 25.35 -100.8 23.4 -103.0 L22.25 -103.15 21.45 -103.9 Q18.0 -107.35 18.0 -112.25 18.0 -117.15 21.45 -120.6 24.9 -124.05 29.8 -124.05 34.7 -124.05 38.15 -120.6 M-16.0 2.7 Q-15.55 4.2 -14.45 5.1 L-15.85 4.05 -16.0 2.95 -16.0 2.7" fill="#000000" fill-rule="evenodd" stroke="none"/>
  </g>
</svg>
