<?xml version="1.0" encoding="UTF-8" standalone="no"?>
<svg xmlns:ffdec="https://www.free-decompiler.com/flash" xmlns:xlink="http://www.w3.org/1999/xlink" ffdec:objectType="shape" height="152.85px" width="99.65px" xmlns="http://www.w3.org/2000/svg">
  <g transform="matrix(1.0, 0.0, 0.0, 1.0, 36.0, 142.2)">
    <path d="M36.6 -135.8 Q40.9 -131.8 45.45 -128.8 L53.35 -133.6 52.65 -131.5 Q50.95 -126.85 50.9 -121.95 52.25 -120.25 54.45 -120.0 57.7 -119.6 59.35 -117.6 58.9 -116.4 57.65 -115.95 53.75 -114.6 51.85 -111.85 52.05 -110.95 52.95 -110.75 60.05 -108.9 63.5 -102.65 L63.6 -101.95 63.5 -100.2 Q60.1 -97.3 56.05 -95.1 L56.05 -94.4 56.05 -93.35 56.3 -93.0 Q58.35 -89.3 60.55 -85.95 55.95 -83.0 50.9 -81.0 L51.0 -79.6 51.85 -75.35 Q50.7 -75.15 49.85 -74.4 47.65 -74.8 46.2 -73.45 L46.2 -72.75 46.2 -72.05 46.5 -71.65 Q48.25 -68.55 50.4 -65.7 L50.4 -65.35 50.4 -65.0 51.25 -64.25 51.45 -63.6 51.95 -62.5 Q42.4 -67.2 33.0 -62.85 L33.05 -61.8 Q33.5 -58.15 35.35 -55.1 L29.5 -54.6 29.0 -54.4 28.95 -53.7 Q29.4 -50.5 31.6 -48.05 27.05 -47.85 24.05 -44.95 L24.05 -44.25 24.05 -42.85 Q28.85 -39.2 34.5 -37.55 42.6 -35.25 48.05 -39.65 51.85 -37.3 55.6 -35.9 54.7 -34.8 53.25 -34.45 45.45 -32.6 37.45 -33.3 32.45 -33.7 27.65 -34.9 22.45 -36.2 17.2 -36.3 15.9 -36.3 16.05 -35.1 L16.2 -34.85 Q17.75 -34.2 18.85 -32.95 15.4 -33.45 13.2 -31.1 13.2 -30.35 13.35 -29.7 L15.45 -20.15 15.1 -19.75 15.1 -19.4 15.0 -18.7 11.1 -17.2 Q10.75 -16.75 10.75 -16.15 10.75 -14.2 11.8 -12.6 L11.8 -12.25 11.8 -11.9 12.05 -11.55 Q15.3 -8.1 16.4 -3.55 14.65 -3.45 13.05 -4.2 8.9 -6.1 5.7 -4.45 L5.9 -3.15 Q7.2 0.75 7.45 4.7 L1.25 5.35 Q-0.25 5.55 -0.9 6.85 L-0.9 7.2 -0.9 7.9 Q-2.1 10.6 -5.15 10.6 L-18.55 10.45 -19.6 10.25 -19.4 9.9 Q-17.9 7.1 -16.1 4.6 L-16.0 4.25 -15.95 3.55 Q-16.55 2.5 -17.75 2.45 -22.55 0.15 -26.7 -1.75 L-26.0 -4.6 Q-24.55 -11.25 -30.55 -13.55 L-29.25 -16.55 Q-28.85 -17.45 -27.9 -17.65 -23.5 -18.7 -20.2 -21.4 -20.5 -24.95 -23.5 -27.4 -26.2 -29.6 -27.05 -31.9 L-26.35 -32.5 Q-24.25 -32.1 -22.8 -33.2 L-22.5 -34.25 Q-22.35 -35.75 -22.9 -37.1 L-23.5 -37.45 Q-26.55 -41.7 -30.1 -45.2 L-19.5 -46.4 -19.35 -47.1 -19.25 -47.8 -19.5 -48.15 -20.8 -49.55 Q-18.0 -50.75 -14.9 -50.95 L-14.65 -51.7 Q-14.45 -52.45 -14.9 -53.1 -26.05 -59.65 -36.0 -67.9 L-34.6 -68.1 Q-27.4 -67.4 -20.5 -65.25 -13.75 -63.15 -6.8 -63.1 -5.7 -63.1 -5.6 -64.15 L-5.75 -64.5 Q-6.05 -65.3 -6.65 -65.9 -3.5 -65.5 -0.45 -65.9 L-0.25 -66.2 0.05 -66.85 Q-1.25 -68.9 -3.55 -70.15 -17.05 -77.5 -29.65 -86.65 -26.95 -86.55 -24.3 -85.85 -17.0 -83.95 -10.1 -85.95 L-9.9 -86.65 -9.95 -88.05 Q-11.1 -89.6 -12.8 -90.5 L-13.0 -90.9 -14.7 -93.35 Q-10.9 -93.15 -7.75 -94.4 L-7.55 -95.1 Q-7.4 -95.85 -7.85 -96.25 L-18.55 -106.4 -18.7 -106.8 Q-18.95 -107.85 -20.1 -108.2 L-20.2 -108.4 -20.55 -109.1 -25.4 -113.0 Q-20.35 -112.95 -15.6 -111.15 -10.35 -109.2 -4.9 -109.1 L-4.6 -109.4 -4.2 -110.05 -4.55 -110.7 -5.6 -111.75 Q-11.85 -117.1 -17.4 -123.25 -17.3 -123.85 -17.55 -124.4 -18.1 -125.8 -17.4 -127.15 -12.65 -127.05 -8.0 -125.7 0.3 -123.2 8.8 -121.5 L10.25 -121.25 Q16.25 -120.1 20.65 -123.35 L20.65 -124.05 Q19.9 -128.55 16.5 -131.85 L16.5 -132.55 16.5 -133.25 21.9 -133.75 Q22.15 -133.8 22.4 -133.95 L22.65 -134.65 Q23.95 -138.3 26.4 -141.4 L27.05 -141.7 27.7 -142.2 Q32.35 -139.7 36.6 -135.8" fill="#ffff00" fill-opacity="0.5019608" fill-rule="evenodd" stroke="none"/>
  </g>
</svg>
