<?xml version="1.0" encoding="UTF-8" standalone="no"?>
<svg xmlns:ffdec="https://www.free-decompiler.com/flash" xmlns:xlink="http://www.w3.org/1999/xlink" ffdec:objectType="shape" height="11.3px" width="41.0px" xmlns="http://www.w3.org/2000/svg">
  <g transform="matrix(1.0, 0.0, 0.0, 1.0, 20.5, 5.65)">
    <path d="M19.15 -2.25 Q20.55 -2.0 20.5 -0.6 L20.15 0.05 19.0 1.4 11.25 2.15 Q4.2 9.45 -1.35 1.5 -1.85 0.75 -2.5 0.15 -9.5 3.7 -18.0 3.5 -20.0 3.5 -20.5 1.65 -20.75 -0.95 -18.0 -1.3 L-12.5 -1.85 Q-11.4 -3.15 -9.85 -3.85 L-6.0 -5.35 Q1.25 -6.8 4.2 -0.85 L4.5 -0.1 5.0 0.0 Q5.5 -0.1 6.0 -0.35 6.55 -2.8 9.05 -2.9 L19.15 -2.25" fill="#000000" fill-rule="evenodd" stroke="none"/>
  </g>
</svg>
