<?xml version="1.0" encoding="UTF-8" standalone="no"?>
<svg xmlns:ffdec="https://www.free-decompiler.com/flash" xmlns:xlink="http://www.w3.org/1999/xlink" ffdec:objectType="shape" height="128.75px" width="62.05px" xmlns="http://www.w3.org/2000/svg">
  <g transform="matrix(1.0, 0.0, 0.0, 1.0, 16.45, 126.05)">
    <path d="M25.2 -105.9 Q21.75 -109.35 21.75 -114.25 21.75 -119.15 25.2 -122.6 28.65 -126.05 33.55 -126.05 38.45 -126.05 41.9 -122.6 45.35 -119.15 45.35 -114.25 45.35 -109.35 41.9 -105.9 38.55 -102.55 33.9 -102.45 L32.85 -99.7 32.1 -97.8 30.85 -94.15 Q32.2 -92.9 32.4 -90.25 L32.35 -88.1 32.75 -87.6 Q33.95 -86.3 33.8 -84.4 L33.75 -83.9 34.15 -83.4 Q35.2 -82.25 35.15 -80.7 L35.15 -80.2 Q36.7 -83.65 37.5 -88.05 L38.35 -92.35 Q36.4 -93.45 36.25 -95.55 36.1 -97.45 36.4 -99.25 L36.75 -99.75 Q37.55 -100.85 38.9 -100.75 L38.9 -100.85 Q45.5 -102.15 45.6 -96.25 45.65 -93.2 43.8 -90.95 42.0 -81.1 38.3 -71.8 37.5 -69.8 35.35 -69.4 31.65 -70.3 31.4 -73.95 L31.1 -76.65 Q28.85 -81.05 27.7 -85.7 L24.75 -78.25 24.05 -77.7 Q23.95 -76.55 23.3 -75.6 L22.45 -74.55 21.15 -71.8 Q22.55 -69.05 19.8 -64.95 L18.1 -62.6 17.0 -61.45 Q13.2 -52.35 10.1 -43.0 9.8 -42.05 9.05 -41.35 L4.75 -29.75 4.1 -28.65 3.05 -20.35 3.55 -19.95 Q4.3 -18.2 3.95 -16.3 L3.55 -14.7 2.2 -13.7 0.3 0.4 Q0.1 1.75 -1.3 2.15 -6.7 3.75 -10.9 0.5 -10.85 -5.2 -4.0 -3.05 L-3.65 -7.2 Q-6.1 -5.15 -9.65 -5.3 -10.3 -5.3 -10.9 -5.85 -10.4 -10.4 -5.8 -13.25 -4.85 -15.6 -2.65 -16.85 L-2.6 -17.1 Q-11.95 -24.95 -16.3 -35.7 -16.75 -36.7 -15.75 -37.5 1.4 -50.95 13.45 -68.9 14.2 -72.25 16.6 -74.75 L17.0 -75.25 Q17.9 -78.35 19.5 -81.05 L19.8 -81.6 22.7 -89.05 22.9 -89.55 Q16.2 -84.5 8.7 -80.55 1.7 -73.6 -3.0 -81.45 -4.25 -83.5 -4.4 -86.0 -5.4 -100.8 1.6 -113.65 3.05 -116.35 5.7 -117.1 11.8 -116.0 9.65 -109.55 8.5 -106.1 4.65 -106.85 1.55 -98.2 0.95 -88.8 L0.95 -87.25 Q0.95 -85.2 2.15 -83.55 14.4 -89.6 26.0 -97.45 L28.25 -104.85 26.0 -105.15 25.2 -105.9 M-1.2 -31.1 L-0.95 -31.55 0.05 -32.7 6.8 -50.6 Q0.15 -43.3 -8.15 -37.3 L-10.75 -34.8 -4.75 -26.85 -1.6 -24.25 -1.15 -27.3 Q-0.9 -29.1 -1.2 -31.1" fill="#000000" fill-rule="evenodd" stroke="none"/>
  </g>
</svg>
