<?xml version="1.0" encoding="UTF-8" standalone="no"?>
<svg xmlns:ffdec="https://www.free-decompiler.com/flash" xmlns:xlink="http://www.w3.org/1999/xlink" ffdec:objectType="shape" height="155.7px" width="105.85px" xmlns="http://www.w3.org/2000/svg">
  <g transform="matrix(1.0, 0.0, 0.0, 1.0, 35.15, 138.9)">
    <path d="M36.65 -138.9 Q37.3 -139.0 37.95 -138.2 39.7 -136.1 41.7 -134.9 45.95 -137.65 50.9 -138.45 L51.5 -138.1 Q52.9 -132.65 53.6 -127.1 53.7 -126.25 54.05 -125.55 56.0 -121.75 60.3 -119.7 L60.45 -119.55 Q61.8 -118.95 61.85 -118.3 L59.75 -116.5 Q57.2 -114.1 55.6 -110.9 L55.6 -109.85 55.6 -108.75 57.0 -107.35 Q58.7 -105.4 60.8 -104.05 60.55 -102.85 59.25 -101.6 54.95 -97.6 51.35 -93.1 L51.35 -92.75 51.35 -92.4 51.1 -92.05 50.9 -91.7 50.9 -91.35 50.9 -90.65 50.9 -89.95 51.95 -88.9 Q52.8 -88.2 52.75 -87.1 L53.5 -86.45 54.2 -85.35 Q53.7 -84.5 52.85 -84.15 49.75 -82.75 47.6 -80.3 L47.6 -79.95 47.6 -78.85 47.6 -77.8 48.25 -77.25 Q49.65 -76.4 50.3 -75.0 L50.45 -74.6 50.4 -74.3 50.3 -73.95 49.25 -74.15 Q47.25 -74.5 47.1 -72.75 L47.7 -72.15 Q48.05 -71.85 48.55 -71.7 L49.1 -71.25 Q50.05 -70.7 51.1 -71.0 L51.25 -70.9 Q59.9 -66.1 66.65 -59.35 L67.85 -57.65 69.25 -55.45 69.25 -55.1 69.3 -54.75 69.5 -54.4 Q70.3 -53.9 70.55 -52.95 70.85 -52.1 70.55 -51.2 L70.1 -50.85 Q63.65 -49.05 57.5 -50.85 L58.65 -51.25 Q60.2 -51.85 61.15 -53.2 L61.3 -54.25 61.25 -55.35 60.7 -55.95 Q53.15 -62.3 43.1 -64.85 L42.25 -65.2 Q38.7 -65.55 35.15 -65.3 33.75 -65.2 33.0 -63.9 L33.0 -62.85 33.0 -61.8 34.25 -60.35 38.55 -56.5 Q38.1 -56.15 37.65 -56.1 33.55 -55.45 30.65 -52.95 L30.65 -51.9 30.65 -50.85 30.95 -50.45 31.1 -50.15 31.1 -49.8 31.1 -49.45 32.1 -48.35 Q33.85 -46.15 36.55 -45.8 L36.9 -45.6 43.6 -42.95 41.55 -41.75 Q36.9 -40.05 31.8 -40.4 30.7 -40.45 30.15 -39.45 L30.15 -39.1 30.15 -38.35 30.15 -37.65 31.0 -36.6 31.95 -34.85 Q28.65 -34.9 26.85 -32.7 L26.9 -31.65 27.0 -30.95 27.9 -29.9 28.75 -28.5 28.0 -28.1 Q22.5 -26.85 18.85 -22.85 L18.9 -21.8 19.0 -21.05 Q21.0 -19.75 22.55 -17.85 L32.05 -5.9 Q32.0 -5.1 32.4 -4.45 L33.45 -2.7 33.45 -2.35 33.45 -2.0 33.45 -1.65 Q29.65 -4.4 25.1 -5.65 L24.35 -6.1 19.1 -8.3 Q15.3 -9.9 13.2 -7.3 L13.2 -6.25 Q13.15 -5.65 13.55 -5.2 11.1 -5.75 9.45 -4.25 L9.45 -2.1 9.45 0.0 8.0 0.3 Q6.25 0.5 5.2 1.9 5.35 4.35 6.9 6.45 9.65 10.25 11.35 14.6 2.8 12.85 -5.6 14.15 -8.45 19.0 -12.2 15.05 L-12.95 14.45 Q-19.5 11.85 -26.7 13.65 -25.75 9.8 -26.85 6.0 -27.05 5.3 -27.6 4.85 -31.4 1.9 -35.15 -0.1 -32.85 -1.45 -32.75 -4.25 -32.65 -7.7 -31.85 -10.95 L-31.5 -11.3 Q-29.3 -11.4 -27.5 -12.5 -27.15 -13.5 -27.2 -14.6 -27.25 -15.65 -27.65 -16.55 -28.9 -19.5 -28.7 -22.7 L-28.35 -23.05 Q-23.45 -22.7 -19.85 -25.05 -19.65 -25.6 -19.75 -26.15 L-19.85 -26.85 -21.25 -28.55 Q-22.3 -30.1 -23.5 -31.45 L-23.5 -31.8 -23.55 -32.15 -23.65 -32.5 -24.2 -33.2 -24.45 -33.55 -24.1 -33.9 -18.7 -34.75 Q-17.4 -35.1 -16.55 -36.25 L-16.5 -36.95 -16.55 -37.65 -17.4 -38.8 -19.15 -40.85 -19.25 -41.2 -19.3 -41.55 -19.4 -41.9 -20.5 -43.45 Q-21.9 -45.3 -23.85 -46.5 -24.8 -48.0 -26.35 -49.1 -30.7 -52.15 -34.8 -50.15 L-34.85 -51.55 -34.7 -53.3 -34.35 -53.7 Q-29.7 -54.7 -26.35 -51.9 L-22.75 -49.25 Q-18.95 -46.05 -15.05 -48.25 L-15.1 -51.45 Q-15.2 -52.95 -14.8 -54.25 -11.65 -54.1 -9.15 -55.9 -8.55 -56.3 -8.35 -56.95 -7.25 -60.2 -9.4 -63.55 -3.95 -64.2 0.4 -66.85 L0.45 -67.2 0.5 -68.65 0.5 -70.4 0.05 -71.1 -0.45 -71.8 Q-0.55 -73.4 -1.65 -74.7 L-9.15 -83.1 -9.95 -83.85 -10.8 -84.85 -10.85 -85.95 -10.9 -86.65 -9.65 -87.1 Q-8.85 -87.45 -8.45 -88.3 L-8.45 -88.65 -8.45 -89.7 Q-8.5 -90.45 -8.9 -91.1 -8.4 -92.15 -8.35 -93.25 -8.15 -97.0 -11.55 -99.2 -15.75 -101.9 -19.25 -104.55 L-8.7 -104.0 Q-6.55 -103.85 -5.6 -105.7 L-5.6 -106.4 -5.6 -107.1 Q-6.15 -108.3 -6.95 -109.3 L-8.9 -112.05 Q-7.55 -112.0 -6.35 -112.5 -4.35 -113.3 -3.25 -115.15 L-2.9 -117.6 Q-2.65 -118.75 -3.05 -119.7 L-3.15 -119.9 Q5.0 -120.9 9.9 -126.9 L10.05 -127.95 10.75 -129.0 10.85 -129.75 10.85 -130.45 11.4 -131.2 12.15 -132.2 Q15.85 -131.55 18.5 -129.0 19.3 -128.2 20.4 -128.6 22.95 -129.6 25.3 -131.2 L36.65 -138.9" fill="#ffff00" fill-opacity="0.5019608" fill-rule="evenodd" stroke="none"/>
  </g>
</svg>
