<?xml version="1.0" encoding="UTF-8" standalone="no"?>
<svg xmlns:ffdec="https://www.free-decompiler.com/flash" xmlns:xlink="http://www.w3.org/1999/xlink" ffdec:objectType="shape" height="125.2px" width="60.2px" xmlns="http://www.w3.org/2000/svg">
  <g transform="matrix(1.0, 0.0, 0.0, 1.0, 15.25, 123.75)">
    <path d="M24.8 -120.3 Q28.25 -123.75 33.15 -123.75 38.05 -123.75 41.5 -120.3 44.95 -116.85 44.95 -111.95 44.95 -107.05 41.5 -103.6 38.15 -100.25 33.45 -100.15 L31.75 -101.15 Q29.2 -98.2 27.0 -95.0 28.2 -93.9 28.65 -91.55 L28.8 -88.8 Q30.5 -84.75 31.3 -80.3 31.5 -79.3 32.0 -78.4 32.75 -78.75 33.1 -79.55 L33.95 -80.7 Q34.35 -84.1 36.25 -86.95 36.85 -87.85 37.1 -89.0 35.85 -89.25 34.85 -90.1 L34.3 -90.6 Q33.3 -94.0 35.65 -96.3 36.5 -97.15 37.45 -97.3 45.2 -95.85 42.55 -87.75 39.35 -77.9 32.2 -70.75 L30.15 -70.8 Q27.25 -73.3 26.3 -77.3 L23.85 -87.7 21.45 -85.8 Q17.7 -78.65 15.3 -70.7 L14.7 -69.6 Q14.35 -64.8 13.0 -60.5 14.95 -58.15 14.85 -54.2 14.8 -52.9 15.2 -51.55 18.3 -42.45 19.0 -33.0 19.05 -32.15 18.15 -31.85 12.05 -29.8 5.7 -28.5 L4.0 -26.6 Q2.65 -25.45 2.15 -23.85 0.95 -22.7 0.2 -21.2 L-0.15 -20.65 Q-0.6 -18.45 -2.55 -16.9 L-2.95 -16.45 Q-5.35 -10.55 -8.45 -4.8 L-8.6 -4.45 Q-3.2 -5.45 -2.25 -1.1 -7.0 4.05 -13.4 -1.3 -15.05 -2.7 -14.8 -5.15 L-14.45 -6.75 -13.55 -7.8 -12.65 -8.85 -12.55 -9.4 -12.3 -10.45 Q-10.95 -11.75 -10.45 -13.65 L-10.2 -14.65 -8.65 -16.3 -8.25 -16.8 Q-7.1 -20.5 -4.7 -23.65 L-4.2 -24.2 -4.05 -24.75 -3.85 -25.8 -2.8 -27.2 -8.6 -26.7 -9.3 -26.15 Q-8.9 -20.5 -11.75 -16.3 -12.05 -15.9 -12.65 -15.75 -14.2 -15.95 -15.15 -17.15 -15.8 -24.8 -12.65 -31.0 -12.4 -31.55 -11.6 -31.6 -4.55 -32.1 2.2 -33.45 2.5 -46.15 5.55 -58.2 L6.05 -59.7 Q6.55 -60.7 7.65 -61.05 L7.7 -61.05 Q8.05 -64.9 8.85 -68.65 L9.55 -72.4 10.45 -73.5 10.8 -74.0 Q11.65 -78.1 13.4 -81.95 L10.7 -80.35 9.4 -79.8 Q4.25 -76.1 -1.0 -80.0 -2.75 -86.55 -1.05 -93.2 -0.2 -96.35 0.2 -99.6 L0.45 -100.1 1.25 -101.2 1.65 -101.7 Q1.5 -102.8 1.95 -103.85 2.6 -105.3 3.75 -106.5 L3.8 -107.0 Q3.9 -108.0 4.6 -108.65 L5.0 -109.15 Q5.85 -113.9 8.7 -118.0 9.5 -119.15 10.65 -119.2 17.2 -118.65 16.2 -111.4 L15.55 -109.3 Q13.4 -107.5 10.45 -108.25 L8.35 -104.15 Q7.8 -102.95 6.9 -101.9 L5.5 -96.05 Q5.15 -94.55 4.1 -93.4 4.45 -90.4 3.75 -87.5 3.4 -86.0 3.4 -84.4 3.55 -84.25 3.75 -84.2 L5.7 -84.25 17.25 -90.2 Q19.1 -94.6 22.1 -98.5 L23.35 -99.95 23.5 -100.5 23.55 -101.0 23.7 -101.55 25.55 -102.95 24.8 -103.6 Q21.35 -107.05 21.35 -111.95 21.35 -116.85 24.8 -120.3 M8.05 -34.85 L13.3 -36.4 Q11.55 -42.9 10.15 -49.75 8.45 -43.8 8.3 -37.6 L8.05 -34.85" fill="#000000" fill-rule="evenodd" stroke="none"/>
  </g>
</svg>
