<?xml version="1.0" encoding="UTF-8" standalone="no"?>
<svg xmlns:ffdec="https://www.free-decompiler.com/flash" xmlns:xlink="http://www.w3.org/1999/xlink" ffdec:objectType="shape" height="145.0px" width="121.95px" xmlns="http://www.w3.org/2000/svg">
  <g transform="matrix(1.0, 0.0, 0.0, 1.0, 46.1, 133.8)">
    <path d="M29.0 -41.2 L29.0 -41.15 28.3 -40.95 Q27.8 -40.55 27.6 -39.95 L27.35 -39.55 27.35 -39.2 27.3 -38.85 27.25 -38.5 Q26.65 -38.05 26.4 -37.45 L26.3 -37.1 Q25.4 -36.9 25.05 -36.1 L25.0 -35.8 Q24.95 -35.1 25.55 -34.7 27.35 -33.3 29.6 -32.6 34.5 -27.7 40.65 -30.7 41.75 -32.15 41.05 -33.75 40.15 -35.7 38.25 -37.0 33.85 -40.1 29.0 -41.2 M29.7 -133.75 L35.25 -133.8 Q46.45 -134.15 55.6 -128.3 52.35 -127.75 50.4 -125.5 L50.4 -124.8 50.55 -123.7 Q53.85 -122.1 57.25 -120.8 55.7 -118.55 52.75 -117.5 L52.75 -116.8 Q52.7 -116.2 52.9 -115.7 59.6 -114.6 66.3 -112.65 L68.3 -111.0 Q66.95 -108.55 63.9 -108.15 L55.0 -107.6 Q50.45 -107.55 47.1 -105.7 L47.1 -105.35 47.1 -104.65 Q48.2 -103.45 49.6 -102.55 L50.2 -102.2 Q53.75 -100.3 56.55 -97.6 L56.7 -97.25 57.95 -95.45 Q55.9 -93.6 53.25 -92.3 L53.25 -91.6 53.25 -90.9 Q54.05 -90.35 54.3 -89.5 L54.55 -89.15 Q57.6 -86.9 61.15 -85.8 61.65 -85.3 62.3 -85.0 69.05 -82.25 75.85 -81.6 73.55 -77.45 68.65 -78.3 67.55 -79.2 66.1 -79.0 58.35 -82.2 49.75 -81.45 48.05 -81.3 47.1 -79.95 L47.1 -79.2 47.1 -78.15 47.45 -77.8 47.6 -77.45 47.6 -76.75 47.6 -75.35 47.95 -74.95 48.55 -74.3 48.55 -73.95 48.55 -73.55 50.3 -71.1 Q46.25 -71.0 43.35 -68.65 L43.35 -67.9 Q43.25 -66.85 43.45 -65.8 48.75 -62.8 53.55 -58.95 56.45 -56.6 55.85 -53.55 53.7 -54.95 51.45 -55.95 44.55 -58.9 36.5 -57.3 35.55 -57.15 35.35 -56.25 L35.35 -55.55 35.35 -53.8 35.6 -53.45 35.8 -53.1 35.8 -52.75 35.8 -52.4 36.05 -52.05 36.4 -51.7 Q34.55 -51.1 32.55 -50.85 L32.35 -50.6 32.05 -49.9 32.1 -49.6 32.55 -48.85 32.55 -48.5 32.55 -48.15 Q33.15 -47.1 34.3 -46.75 35.3 -44.9 36.95 -43.5 L37.65 -42.8 Q39.8 -40.2 42.75 -38.25 44.45 -36.1 46.35 -34.3 L47.45 -33.25 Q49.5 -31.35 51.35 -29.05 L51.2 -28.75 50.75 -27.65 Q49.55 -27.4 49.35 -26.25 L47.1 -24.95 Q35.9 -25.5 26.1 -30.65 22.75 -32.45 21.7 -29.9 22.1 -29.05 23.1 -28.7 21.85 -28.75 21.0 -28.0 L20.8 -27.3 Q20.7 -26.75 20.85 -26.25 22.75 -23.85 25.35 -22.7 L25.6 -22.5 26.85 -21.65 Q21.75 -22.45 16.55 -21.8 16.3 -21.8 16.05 -21.4 L16.05 -20.7 16.05 -19.3 16.35 -18.9 16.5 -18.6 16.5 -18.25 16.5 -17.9 Q20.4 -13.3 24.7 -9.1 L30.3 -2.95 Q25.6 -3.8 20.9 -5.2 19.35 -5.65 17.85 -6.25 13.25 -8.0 9.9 -5.4 L9.9 -2.25 9.95 -1.9 10.85 2.7 11.1 3.05 11.35 3.4 11.35 4.1 11.2 6.6 Q7.8 6.9 4.65 5.6 0.6 3.9 -2.3 6.25 L-2.3 6.95 Q-2.15 8.25 -2.55 9.4 L-8.4 10.2 Q-8.95 10.3 -9.05 10.95 L-9.65 11.1 -10.45 11.2 -11.55 10.75 -15.3 9.3 Q-19.8 7.1 -24.55 5.65 L-24.5 5.35 Q-23.6 4.25 -24.1 2.85 L-26.9 -0.75 -27.05 -1.05 -28.9 -5.65 Q-27.3 -5.7 -26.45 -7.05 L-26.45 -7.4 Q-27.0 -9.15 -27.15 -10.95 -24.35 -10.8 -23.05 -13.05 L-29.45 -17.85 -32.3 -19.9 Q-35.3 -22.1 -36.6 -25.55 -28.35 -25.25 -20.0 -25.65 L-19.8 -26.4 Q-19.65 -27.1 -19.85 -27.8 L-23.7 -33.55 -24.5 -34.55 Q-26.5 -36.5 -26.8 -39.1 L-26.6 -39.45 -26.2 -40.15 -25.65 -40.4 -25.15 -40.75 Q-24.7 -41.95 -25.05 -43.2 L-25.2 -43.55 Q-26.4 -45.75 -26.2 -48.15 -24.15 -48.7 -23.5 -50.5 L-23.65 -50.85 Q-24.5 -52.75 -24.35 -54.75 L-22.55 -56.85 Q-22.65 -57.9 -23.6 -58.45 L-25.05 -59.45 Q-28.65 -62.9 -32.55 -66.0 -36.75 -69.4 -40.45 -65.7 L-40.45 -65.0 -40.45 -63.55 -40.15 -63.2 -40.0 -62.85 -39.85 -62.2 Q-39.3 -60.85 -39.3 -59.55 L-39.85 -59.8 Q-40.6 -61.0 -41.65 -61.95 L-41.9 -62.3 Q-42.8 -65.1 -45.05 -66.85 -46.4 -69.5 -46.05 -72.5 L-45.85 -73.2 Q-44.65 -75.7 -42.8 -77.8 -41.95 -77.9 -41.5 -78.65 L-35.15 -78.5 Q-31.1 -76.5 -27.3 -73.9 -23.45 -71.25 -19.3 -69.05 L-16.45 -67.4 Q-12.2 -64.8 -9.4 -68.05 L-9.4 -68.75 -9.4 -69.45 -10.8 -70.85 -10.6 -71.15 -9.85 -72.3 -9.85 -72.65 Q-9.65 -74.4 -10.8 -75.8 L-10.8 -76.5 -10.9 -77.2 -13.85 -80.4 Q-15.3 -81.65 -16.1 -83.2 -14.25 -84.4 -14.1 -86.4 L-14.3 -86.75 -16.1 -89.95 Q-13.7 -90.55 -12.35 -92.75 L-10.9 -93.2 -10.1 -93.5 -9.55 -93.75 -8.6 -94.15 Q-5.2 -94.85 -4.65 -97.7 -7.15 -100.6 -10.25 -102.95 L-11.45 -104.25 Q-15.65 -110.85 -24.0 -111.95 L-24.2 -112.2 -24.55 -112.55 -20.15 -111.9 Q-14.0 -110.15 -7.75 -110.05 L-7.45 -110.35 -7.05 -111.0 Q-7.9 -113.6 -9.85 -115.6 L-9.85 -115.95 Q-9.65 -118.55 -11.25 -120.55 L-11.25 -120.9 -11.25 -121.25 Q-12.25 -122.05 -12.7 -123.0 -11.15 -123.25 -9.7 -123.0 -5.75 -122.35 -1.95 -121.1 2.7 -119.55 6.65 -121.25 L6.65 -121.6 6.6 -121.95 Q6.35 -124.2 7.1 -126.2 10.9 -126.3 13.7 -128.3 L13.7 -128.65 Q13.7 -129.75 12.75 -130.45 21.8 -129.1 30.9 -130.2 L31.05 -130.9 Q31.2 -131.65 31.0 -132.3 L30.75 -132.65 29.7 -133.75" fill="#ffff00" fill-opacity="0.5019608" fill-rule="evenodd" stroke="none"/>
  </g>
</svg>
