<?xml version="1.0" encoding="UTF-8" standalone="no"?>
<svg xmlns:ffdec="https://www.free-decompiler.com/flash" xmlns:xlink="http://www.w3.org/1999/xlink" ffdec:objectType="shape" height="123.65px" width="63.2px" xmlns="http://www.w3.org/2000/svg">
  <g transform="matrix(1.0, 0.0, 0.0, 1.0, 19.55, 124.15)">
    <path d="M20.0 -104.45 Q17.0 -107.8 17.0 -112.35 17.0 -117.25 20.45 -120.7 23.9 -124.15 28.8 -124.15 33.7 -124.15 37.15 -120.7 40.6 -117.25 40.6 -112.35 40.6 -107.45 37.15 -104.0 35.4 -102.25 33.25 -101.35 32.2 -100.15 30.85 -99.55 L30.55 -98.85 28.95 -94.65 Q30.3 -94.0 30.85 -91.1 32.0 -84.75 31.65 -78.05 L31.9 -78.25 33.0 -79.9 33.95 -80.85 34.05 -81.4 34.15 -81.9 34.3 -82.45 34.8 -83.0 35.2 -83.5 35.55 -84.05 35.6 -85.1 Q35.85 -86.55 36.7 -87.8 L36.95 -88.3 35.3 -88.95 Q33.85 -89.35 32.9 -90.6 32.25 -92.8 33.05 -94.9 33.8 -97.0 35.55 -98.35 L35.9 -98.45 36.75 -98.6 36.75 -98.7 Q44.95 -99.2 43.4 -91.95 42.55 -88.05 41.0 -84.55 40.5 -81.55 39.15 -78.7 38.25 -76.65 36.6 -75.05 33.65 -68.85 28.7 -64.2 27.95 -63.5 26.9 -63.05 26.25 -63.2 25.7 -63.5 L24.4 -64.45 26.0 -76.05 Q26.65 -81.6 26.15 -87.1 25.15 -82.9 23.2 -79.0 L22.45 -77.85 Q21.85 -74.7 20.0 -72.05 L19.65 -71.5 Q17.55 -64.4 13.9 -58.1 L13.9 -58.05 14.0 -57.55 12.9 -56.45 Q9.2 -50.6 4.1 -45.55 4.1 -44.75 3.65 -44.05 L2.7 -42.9 Q1.25 -39.95 -0.6 -37.2 3.95 -35.35 9.2 -34.4 15.1 -33.3 15.65 -28.4 15.85 -26.5 14.75 -24.85 L12.6 -22.05 Q12.05 -18.6 8.8 -19.85 L7.45 -20.65 Q6.8 -23.2 7.95 -25.45 L9.4 -28.1 Q3.5 -30.0 -2.25 -32.5 L-2.35 -32.5 Q-2.85 -19.7 -0.35 -6.85 0.15 -4.15 -2.45 -3.25 L-9.05 -1.2 -18.05 -0.9 Q-18.75 -1.05 -19.4 -1.6 L-19.5 -2.65 -19.55 -4.25 Q-17.25 -7.75 -12.8 -7.15 L-10.35 -7.2 -5.95 -7.95 Q-8.6 -21.25 -7.3 -34.5 -13.45 -37.2 -18.65 -41.85 L-18.8 -42.9 -18.65 -45.55 Q-6.55 -55.05 8.25 -60.1 12.9 -67.1 15.55 -75.1 L16.45 -76.8 Q16.2 -78.25 16.8 -79.55 L17.35 -81.05 Q18.75 -82.35 19.25 -84.25 L19.45 -85.3 20.0 -85.8 20.5 -86.35 21.05 -89.4 Q10.05 -82.2 -2.9 -79.1 -4.3 -78.75 -5.25 -80.0 -7.0 -87.7 -5.0 -95.25 L-3.15 -102.25 -2.6 -102.75 -2.1 -103.3 -1.95 -103.8 -1.7 -104.9 Q1.9 -111.1 7.8 -114.25 15.35 -109.75 8.7 -104.3 7.55 -103.4 5.7 -103.1 L3.4 -102.6 Q3.5 -101.7 2.9 -101.0 L2.0 -99.95 Q0.1 -94.25 -0.85 -88.3 -1.1 -86.8 -0.3 -85.65 12.6 -89.35 23.65 -97.2 L24.4 -99.7 23.85 -99.9 Q21.4 -100.85 20.35 -103.0 20.0 -103.7 20.0 -104.45 M1.8 -51.75 Q-5.3 -48.55 -11.25 -43.8 -8.8 -41.65 -6.0 -39.95 L-4.55 -42.5 2.3 -51.95 1.8 -51.75" fill="#000000" fill-rule="evenodd" stroke="none"/>
  </g>
</svg>
