<?xml version="1.0" encoding="UTF-8" standalone="no"?>
<svg xmlns:ffdec="https://www.free-decompiler.com/flash" xmlns:xlink="http://www.w3.org/1999/xlink" ffdec:objectType="shape" height="139.6px" width="119.5px" xmlns="http://www.w3.org/2000/svg">
  <g transform="matrix(1.0, 0.0, 0.0, 1.0, 62.0, 128.3)">
    <path d="M41.85 -124.2 L41.45 -123.85 Q38.65 -118.05 38.65 -111.5 38.65 -110.6 39.0 -109.9 42.1 -104.05 49.5 -103.6 L49.7 -103.35 50.4 -102.65 49.65 -102.05 Q48.45 -101.3 47.6 -100.2 L47.6 -99.8 47.6 -99.45 47.7 -98.75 Q49.1 -97.35 50.75 -96.3 L51.85 -95.65 Q54.65 -94.1 56.65 -91.7 L56.55 -91.35 56.5 -91.0 56.4 -90.3 56.05 -89.6 55.15 -88.5 54.95 -87.5 54.65 -86.05 53.45 -85.6 Q52.9 -85.4 52.55 -85.0 L52.35 -84.3 Q52.25 -83.75 52.4 -83.2 53.95 -79.1 55.85 -75.0 L56.3 -74.15 Q57.25 -72.2 57.5 -70.15 L57.0 -70.15 41.25 -70.3 Q40.5 -70.3 40.05 -69.7 L40.05 -69.35 40.05 -69.0 40.05 -68.25 Q41.1 -67.05 42.45 -66.2 L43.05 -65.75 47.25 -61.9 47.7 -61.3 48.3 -60.15 48.05 -59.95 Q45.2 -59.4 42.65 -58.15 L42.45 -57.8 42.4 -57.45 Q42.3 -56.65 42.75 -56.0 43.5 -54.9 43.7 -53.55 L42.85 -53.25 35.2 -51.45 Q31.95 -50.85 29.7 -48.4 L29.7 -48.05 29.7 -47.7 29.8 -46.95 Q33.55 -46.0 37.35 -45.55 37.55 -45.4 37.75 -45.35 L40.75 -44.5 Q44.1 -43.4 46.55 -40.85 48.3 -39.1 49.0 -36.85 L48.8 -36.9 47.85 -37.55 47.6 -37.9 46.9 -38.45 Q41.5 -41.15 38.2 -37.2 L38.2 -36.85 38.2 -36.15 Q31.2 -37.5 24.65 -40.55 17.55 -43.85 9.9 -43.3 L9.75 -43.05 9.45 -42.4 Q13.65 -37.9 18.55 -33.55 L23.0 -29.2 21.95 -29.4 Q14.6 -31.6 8.05 -28.7 L8.05 -28.35 8.05 -28.0 8.05 -27.3 Q10.1 -25.35 11.5 -22.8 12.75 -20.5 14.15 -18.3 L16.5 -14.6 Q12.0 -14.5 7.9 -16.6 5.2 -18.0 2.25 -18.9 -5.2 -21.2 -9.4 -15.75 -9.4 -13.25 -9.8 -10.8 L-9.9 -10.5 Q-10.55 -8.6 -10.8 -6.6 -15.45 -7.6 -19.5 -5.9 -19.9 -4.2 -19.75 -2.35 L-19.75 -2.0 Q-19.65 -0.05 -19.85 1.9 L-25.65 2.15 Q-26.6 2.2 -26.8 3.05 L-26.8 3.4 -26.8 4.1 -26.55 4.5 -26.35 4.85 -26.35 7.3 -26.4 7.65 -26.5 8.0 Q-27.2 9.95 -28.55 11.3 L-30.0 10.35 Q-30.4 9.15 -31.3 8.25 L-31.65 7.9 Q-33.5 6.3 -33.85 4.0 L-34.45 3.3 Q-35.25 2.2 -36.45 1.65 L-37.2 2.1 -37.85 3.05 -39.35 4.15 -39.75 4.5 Q-42.5 7.55 -46.6 8.0 -48.3 6.7 -49.2 4.85 L-49.35 4.45 Q-50.05 2.0 -52.0 0.7 L-52.4 0.9 Q-53.05 1.45 -53.8 1.8 -55.35 2.65 -57.05 2.95 -56.35 -0.45 -56.45 -4.0 L-56.4 -6.8 Q-56.35 -8.9 -57.3 -10.7 L-58.6 -11.35 Q-60.8 -12.3 -62.0 -13.55 -61.35 -15.05 -60.1 -16.25 -58.15 -18.15 -55.85 -19.85 -53.4 -21.65 -51.3 -23.8 L-51.0 -25.25 -50.8 -26.6 -51.5 -27.6 Q-52.4 -29.4 -54.35 -30.15 L-54.9 -30.7 -57.4 -32.95 Q-54.15 -35.05 -50.1 -34.7 -46.1 -34.3 -43.4 -36.75 -43.05 -38.15 -43.6 -39.55 L-43.75 -39.9 Q-44.5 -41.9 -45.65 -43.8 L-33.7 -44.7 Q-32.4 -44.85 -32.3 -46.15 -32.0 -48.65 -32.45 -51.1 L-32.75 -51.4 -33.65 -52.15 -34.15 -53.25 Q-34.55 -54.05 -35.3 -54.6 L-32.7 -54.75 Q-26.7 -54.95 -22.2 -57.9 -21.6 -60.1 -23.6 -61.3 L-25.05 -62.1 Q-28.15 -63.95 -30.1 -66.4 L-28.55 -66.9 -25.25 -68.4 Q-24.5 -69.65 -25.6 -70.65 L-30.65 -74.75 Q-35.6 -78.3 -40.45 -80.5 L-39.3 -80.75 -38.85 -80.95 Q-36.4 -82.3 -34.45 -84.3 L-34.4 -84.65 -34.45 -86.4 -34.95 -88.5 -35.2 -88.85 -36.15 -90.25 -37.75 -92.75 -27.1 -93.5 Q-26.15 -93.6 -25.85 -94.55 -23.2 -94.25 -19.85 -92.9 L-19.75 -92.75 Q-18.55 -91.75 -16.9 -91.45 L-16.75 -91.25 Q-16.15 -90.55 -15.15 -90.5 -5.6 -85.65 5.45 -86.95 6.25 -87.05 6.65 -87.8 L6.4 -89.25 5.35 -90.65 Q4.0 -93.75 1.1 -95.75 L-1.4 -97.8 -5.5 -101.95 -5.0 -102.25 -4.45 -102.55 -4.2 -102.65 Q-1.7 -104.0 1.0 -105.0 L1.2 -105.25 1.55 -105.95 2.15 -106.3 3.2 -107.35 3.3 -107.7 3.35 -108.4 3.35 -109.5 3.1 -109.8 2.5 -110.55 2.4 -110.9 2.25 -111.6 1.65 -112.3 1.35 -112.7 Q-0.4 -115.2 -3.25 -116.55 L-2.75 -116.85 -1.85 -117.2 Q2.35 -118.4 6.25 -120.2 L6.5 -120.55 6.7 -120.9 7.25 -122.35 Q7.65 -123.5 7.55 -124.8 L8.5 -124.75 19.45 -125.5 Q23.05 -126.05 26.05 -128.3 30.65 -127.05 34.5 -123.45 35.2 -122.85 36.0 -123.0 L41.85 -124.2" fill="#ffff00" fill-opacity="0.5019608" fill-rule="evenodd" stroke="none"/>
  </g>
</svg>
