<?xml version="1.0" encoding="UTF-8" standalone="no"?>
<svg xmlns:ffdec="https://www.free-decompiler.com/flash" xmlns:xlink="http://www.w3.org/1999/xlink" ffdec:objectType="shape" height="119.65px" width="92.65px" xmlns="http://www.w3.org/2000/svg">
  <g transform="matrix(1.0, 0.0, 0.0, 1.0, 44.85, 119.8)">
    <path d="M32.65 -116.35 Q36.1 -112.9 36.1 -108.0 36.1 -103.1 32.65 -99.65 29.65 -96.65 25.55 -96.25 L21.85 -88.8 Q23.1 -86.8 23.5 -83.95 L24.2 -79.6 Q24.75 -76.7 25.6 -73.8 L25.9 -73.45 Q26.15 -73.3 26.5 -73.3 30.4 -80.3 36.75 -84.95 37.0 -86.35 38.3 -87.1 39.2 -87.65 39.55 -88.65 36.3 -93.75 41.3 -97.45 L42.4 -98.0 Q50.75 -95.55 46.2 -87.85 43.15 -82.75 38.55 -78.85 36.95 -77.5 35.15 -76.45 31.4 -69.25 25.05 -65.05 24.45 -64.65 23.6 -65.05 22.9 -65.35 22.25 -65.9 L19.5 -75.95 Q19.15 -77.25 19.25 -78.6 L18.4 -79.65 18.05 -80.2 17.95 -80.45 14.15 -71.6 13.45 -70.45 Q13.4 -68.7 12.3 -67.35 L11.15 -66.25 Q9.8 -62.25 7.55 -58.75 L7.1 -57.75 6.0 -57.0 5.8 -56.75 Q7.45 -53.9 6.05 -49.65 4.35 -44.45 1.25 -39.75 1.1 -37.55 0.05 -35.6 L-0.7 -34.45 Q-3.3 -28.2 -9.05 -23.5 -15.45 -18.25 -23.3 -14.95 -30.2 -12.05 -36.7 -8.3 -33.9 -5.85 -31.95 -2.5 -35.4 2.25 -40.25 -2.65 -43.0 -2.6 -44.85 -4.45 -42.2 -14.5 -31.05 -17.15 -16.4 -22.95 -6.35 -34.8 L-6.2 -35.35 -6.0 -36.4 Q-4.2 -38.2 -4.05 -40.65 L-4.05 -41.7 Q-2.4 -43.55 -1.95 -45.95 L-1.75 -47.0 -1.4 -47.5 -0.5 -48.6 0.65 -53.6 Q-4.4 -51.0 -9.7 -48.75 -11.35 -47.15 -13.75 -47.15 L-14.4 -46.05 -14.8 -45.05 Q-15.8 -44.45 -16.45 -43.5 L-16.95 -42.95 Q-17.35 -40.0 -19.4 -37.65 L-19.95 -37.1 -21.5 -30.8 Q-21.75 -29.5 -22.75 -28.65 -24.6 -21.65 -32.1 -24.7 -36.2 -26.35 -40.7 -27.1 -41.4 -27.2 -42.0 -27.75 L-42.15 -28.8 -42.2 -30.4 Q-39.5 -34.15 -35.45 -32.15 L-27.9 -31.1 Q-26.15 -33.9 -25.5 -37.2 L-25.05 -39.95 Q-22.4 -43.35 -20.35 -47.2 L-19.05 -48.95 -18.9 -49.45 -18.7 -50.5 Q-15.05 -53.95 -9.65 -55.1 -8.3 -55.35 -6.9 -56.1 -1.9 -58.65 2.6 -61.1 4.05 -65.6 6.85 -69.7 L7.8 -70.8 7.9 -71.35 8.0 -71.85 8.15 -72.4 9.0 -73.5 9.4 -74.0 Q9.8 -75.85 10.6 -77.65 L11.3 -78.75 11.55 -79.45 Q10.2 -77.6 7.8 -76.8 4.45 -71.9 -0.5 -69.95 L-6.0 -69.7 Q-8.85 -70.5 -11.35 -72.2 -17.1 -76.0 -22.25 -80.9 L-22.45 -82.5 -22.4 -84.05 Q-17.55 -89.95 -13.35 -83.9 -12.85 -83.2 -12.8 -82.1 -12.75 -81.3 -13.05 -80.55 -9.4 -76.55 -4.4 -74.55 L-1.4 -74.35 Q8.6 -83.65 17.4 -94.4 L17.85 -94.85 18.2 -94.95 19.05 -95.1 19.1 -95.2 19.2 -95.15 19.25 -95.2 Q19.45 -96.8 20.2 -98.25 L16.75 -98.9 15.95 -99.65 Q12.5 -103.1 12.5 -108.0 12.5 -112.9 15.95 -116.35 19.4 -119.8 24.3 -119.8 29.2 -119.8 32.65 -116.35" fill="#000000" fill-rule="evenodd" stroke="none"/>
  </g>
</svg>
