<?xml version="1.0" encoding="UTF-8" standalone="no"?>
<svg xmlns:ffdec="https://www.free-decompiler.com/flash" xmlns:xlink="http://www.w3.org/1999/xlink" ffdec:objectType="shape" height="84.25px" width="103.1px" xmlns="http://www.w3.org/2000/svg">
  <g transform="matrix(1.0, 0.0, 0.0, 1.0, 47.65, 91.45)">
    <path d="M39.15 -88.0 Q42.6 -84.55 42.6 -79.65 42.6 -74.75 39.15 -71.3 35.8 -67.95 31.1 -67.85 L29.9 -68.6 28.55 -66.05 27.75 -64.8 Q30.45 -61.45 28.1 -56.15 27.3 -54.3 26.0 -52.65 26.2 -50.1 25.55 -47.8 L24.95 -46.3 Q34.9 -42.85 46.5 -42.75 L46.7 -43.0 46.85 -44.0 46.85 -44.55 Q51.75 -49.05 55.2 -43.2 55.65 -42.4 55.25 -41.55 52.6 -35.7 45.9 -36.5 35.8 -37.65 25.95 -39.55 21.95 -40.3 18.75 -42.6 19.1 -48.2 20.65 -53.7 L20.9 -54.75 21.85 -56.75 20.5 -55.15 Q17.1 -51.05 12.6 -48.25 9.05 -45.85 6.4 -42.35 5.25 -40.9 4.55 -39.1 L0.75 -29.5 -0.45 -28.4 -0.85 -27.95 Q-2.05 -24.6 -3.95 -21.55 L-4.2 -21.05 Q-6.85 -18.5 -8.6 -15.2 -9.0 -12.25 -11.7 -11.0 -15.85 -9.0 -20.25 -10.5 -29.25 -13.6 -38.45 -16.1 -39.9 -9.95 -44.85 -7.3 -45.4 -7.0 -46.35 -7.55 L-46.9 -8.0 Q-46.5 -13.5 -43.95 -18.75 L-43.4 -20.15 Q-37.25 -23.55 -30.85 -19.1 -22.75 -16.6 -14.45 -15.75 -11.05 -22.45 -6.3 -28.45 -5.05 -32.45 -2.45 -35.9 L-2.05 -36.4 Q-1.95 -38.0 -1.35 -39.5 L-0.65 -40.65 -0.2 -42.25 Q-8.2 -41.75 -16.2 -42.25 L-17.25 -41.15 -17.8 -40.65 Q-21.1 -37.95 -23.05 -34.25 L-23.25 -33.75 -24.25 -32.55 Q-25.65 -30.0 -27.95 -28.3 -31.5 -25.75 -36.05 -27.2 -37.7 -27.7 -39.0 -28.8 L-39.3 -29.0 -41.6 -29.25 -42.8 -29.6 -43.55 -30.05 -43.9 -30.4 -45.15 -30.6 -46.35 -31.0 -47.05 -31.5 -47.6 -32.0 -47.6 -33.0 Q-46.4 -37.7 -41.3 -35.3 -39.55 -34.45 -37.7 -33.7 -36.25 -33.1 -34.7 -32.9 L-31.0 -32.7 Q-30.9 -33.7 -30.35 -34.4 -27.95 -37.65 -25.15 -40.6 L-22.75 -43.45 Q-20.4 -46.4 -17.6 -47.9 -7.75 -48.05 1.65 -46.4 4.75 -51.65 11.2 -54.4 L12.0 -54.95 15.65 -58.35 -9.8 -59.2 Q-18.55 -60.3 -26.4 -63.9 -28.75 -65.0 -28.55 -67.65 -28.3 -70.65 -25.35 -71.2 -19.0 -72.9 -18.6 -67.65 L-18.65 -67.15 Q-0.7 -60.75 20.35 -66.2 L21.85 -66.4 23.75 -70.5 23.25 -70.55 22.45 -71.3 Q19.0 -74.75 19.0 -79.65 19.0 -84.55 22.45 -88.0 25.9 -91.45 30.8 -91.45 35.7 -91.45 39.15 -88.0" fill="#000000" fill-rule="evenodd" stroke="none"/>
  </g>
</svg>
