<?xml version="1.0" encoding="UTF-8" standalone="no"?>
<svg xmlns:ffdec="https://www.free-decompiler.com/flash" xmlns:xlink="http://www.w3.org/1999/xlink" ffdec:objectType="shape" height="79.75px" width="139.4px" xmlns="http://www.w3.org/2000/svg">
  <g transform="matrix(1.0, 0.0, 0.0, 1.0, 73.7, 72.05)">
    <path d="M1.2 -55.1 L0.7 -54.4 -0.1 -52.95 Q-3.35 -51.15 -5.9 -48.75 L-5.85 -48.05 Q-5.8 -47.3 -6.0 -46.6 -8.65 -44.5 -11.8 -43.1 -17.25 -40.7 -17.55 -35.65 L-15.25 -33.8 Q-11.55 -31.0 -11.2 -26.85 -12.25 -25.15 -14.05 -24.5 -19.1 -22.6 -22.85 -19.05 L-22.85 -18.35 -22.7 -17.3 -20.05 -14.9 Q-16.75 -11.5 -14.35 -7.4 L-14.25 -6.75 -14.0 -6.0 -14.35 -5.65 -15.55 -4.25 -22.1 -1.05 -23.4 -0.4 Q-28.9 2.05 -34.15 5.25 -38.7 8.0 -43.1 7.65 L-43.4 6.2 -43.55 3.05 Q-44.95 1.65 -46.85 0.75 -49.9 -0.65 -53.1 -1.75 L-65.2 -5.9 -60.75 -8.25 -60.35 -9.25 Q-60.15 -9.75 -60.3 -10.25 -63.35 -19.35 -69.15 -27.1 L-69.85 -28.15 Q-72.8 -33.1 -73.7 -38.6 L-70.3 -38.0 Q-66.25 -36.75 -62.6 -38.35 L-61.35 -41.55 Q-60.95 -42.65 -60.9 -43.7 -60.75 -47.85 -60.15 -51.8 L-52.2 -51.05 Q-49.1 -50.55 -46.25 -49.5 -40.85 -47.55 -37.15 -51.75 -34.65 -54.65 -33.2 -58.25 -31.95 -58.85 -30.1 -57.55 -25.5 -54.35 -20.7 -51.9 -19.6 -50.7 -18.2 -51.45 -9.85 -56.2 -2.7 -62.5 -1.1 -62.1 -0.45 -60.4 L1.2 -55.1 M42.6 -67.75 Q46.2 -70.1 49.0 -70.75 45.9 -65.75 45.55 -60.15 46.1 -59.85 46.6 -59.9 57.4 -61.1 65.7 -55.45 L65.7 -54.75 65.7 -54.05 65.05 -53.25 Q64.0 -51.3 62.05 -50.35 54.3 -46.35 54.4 -38.15 56.25 -36.45 57.1 -34.25 L56.8 -33.85 56.65 -33.55 55.55 -33.2 53.4 -32.65 Q48.0 -31.8 44.05 -28.95 L44.05 -28.25 44.05 -27.55 Q43.45 -27.7 43.0 -28.1 39.1 -31.2 34.6 -31.1 L34.15 -30.5 34.05 -30.25 Q29.95 -31.45 27.1 -34.35 L27.1 -35.1 27.1 -37.9 26.4 -38.4 Q23.8 -39.55 20.95 -39.1 L20.9 -39.3 20.0 -40.75 20.0 -41.45 Q19.85 -43.1 20.25 -44.6 24.4 -48.05 20.25 -51.7 L18.15 -55.2 Q23.05 -55.75 28.25 -57.2 L28.4 -57.9 Q28.7 -64.95 30.6 -71.7 L31.2 -72.05 Q33.7 -70.65 35.65 -68.05 37.15 -66.1 39.5 -66.5 41.15 -66.8 42.6 -67.75" fill="#ffff00" fill-opacity="0.5019608" fill-rule="evenodd" stroke="none"/>
  </g>
</svg>
