<?xml version="1.0" encoding="UTF-8" standalone="no"?>
<svg xmlns:ffdec="https://www.free-decompiler.com/flash" xmlns:xlink="http://www.w3.org/1999/xlink" ffdec:objectType="shape" height="60.15px" width="106.6px" xmlns="http://www.w3.org/2000/svg">
  <g transform="matrix(1.0, 0.0, 0.0, 1.0, 58.45, 65.55)">
    <path d="M19.6 -65.3 L20.45 -65.45 20.5 -65.55 Q27.65 -64.9 24.9 -58.0 24.35 -56.6 22.95 -56.05 13.75 -52.5 6.9 -45.4 L6.2 -44.5 4.75 -42.75 Q16.95 -40.4 28.05 -35.7 L31.3 -36.75 28.8 -37.15 28.0 -37.9 Q24.55 -41.35 24.55 -46.25 24.55 -51.15 28.0 -54.6 31.45 -58.05 36.35 -58.05 41.25 -58.05 44.7 -54.6 48.15 -51.15 48.15 -46.25 48.15 -41.35 44.7 -37.9 42.2 -35.4 38.9 -34.7 36.1 -32.45 33.0 -30.8 32.35 -29.65 30.85 -28.9 20.75 -23.85 11.15 -18.2 7.3 -15.95 3.25 -17.8 -2.95 -20.6 -8.3 -24.6 L-9.95 -24.55 Q-14.55 -20.75 -21.35 -20.4 -24.5 -20.25 -27.45 -19.0 L-28.8 -18.45 Q-27.45 -14.3 -25.6 -10.25 -28.55 -6.0 -34.6 -6.15 L-38.15 -5.85 Q-42.75 -4.9 -47.05 -5.85 -47.75 -6.05 -48.35 -6.55 -49.15 -9.75 -45.65 -10.2 -38.95 -11.05 -32.5 -12.75 L-32.6 -13.2 -33.55 -14.35 Q-33.7 -15.65 -34.25 -16.9 L-34.55 -17.5 Q-37.9 -17.55 -41.1 -19.05 L-42.3 -19.8 Q-44.15 -18.55 -46.15 -18.4 L-46.25 -18.3 -46.2 -18.4 Q-48.75 -18.25 -51.6 -19.85 -52.4 -20.3 -52.8 -21.4 -55.3 -28.2 -58.45 -34.65 -57.75 -36.4 -55.8 -36.5 L-55.8 -36.55 Q-51.0 -34.35 -49.3 -28.35 L-47.85 -24.55 -42.95 -24.65 -42.15 -26.1 Q-40.45 -26.25 -39.2 -24.9 -37.75 -23.3 -36.0 -22.9 -37.25 -29.45 -37.35 -36.25 L-37.55 -36.35 -37.35 -37.0 -37.35 -37.65 -37.05 -39.2 -36.8 -39.6 -36.7 -41.35 -34.75 -40.75 -34.6 -40.8 -34.35 -40.65 Q-28.85 -38.9 -23.45 -36.25 L-18.05 -33.8 -18.0 -35.65 Q-17.3 -38.25 -14.85 -38.7 -7.0 -39.55 -7.5 -32.55 L-7.6 -32.0 -6.0 -30.25 -5.15 -29.75 Q7.35 -30.4 19.35 -33.3 9.05 -35.95 -1.05 -39.05 -1.1 -48.35 7.45 -53.85 L17.1 -60.05 17.1 -60.6 17.2 -62.2 17.3 -63.25 17.7 -63.75 18.75 -64.8 19.25 -65.2 19.6 -65.3 M4.85 -25.8 L0.65 -25.45 Q4.35 -23.75 8.7 -23.4 10.4 -23.3 11.9 -24.3 L15.7 -26.7 4.85 -25.8 M-18.05 -27.75 L-31.25 -33.7 -31.35 -32.95 Q-31.6 -30.9 -31.25 -28.8 L-30.35 -24.25 -28.1 -25.0 -17.55 -27.5 -18.05 -27.75" fill="#000000" fill-rule="evenodd" stroke="none"/>
  </g>
</svg>
