<?xml version="1.0" encoding="UTF-8" standalone="no"?>
<svg xmlns:ffdec="https://www.free-decompiler.com/flash" xmlns:xlink="http://www.w3.org/1999/xlink" ffdec:objectType="shape" height="59.1px" width="121.95px" xmlns="http://www.w3.org/2000/svg">
  <g transform="matrix(1.0, 0.0, 0.0, 1.0, 51.3, 62.65)">
    <path d="M2.75 -40.4 Q3.65 -39.9 3.3 -39.3 L-1.75 -35.8 Q-6.75 -32.8 -6.7 -27.65 L-6.35 -27.3 -3.9 -25.2 -2.95 -23.85 Q-1.4 -22.1 -0.6 -19.9 L-11.0 -16.25 -11.55 -15.7 Q-13.05 -10.85 -13.05 -5.55 L-29.9 -5.65 -30.6 -4.75 -30.95 -3.55 Q-37.35 -5.45 -42.9 -9.15 -44.7 -10.35 -46.65 -11.1 -51.5 -12.95 -51.3 -17.2 L-44.75 -18.15 Q-43.7 -20.8 -44.0 -23.8 -44.5 -29.25 -43.1 -34.35 L-42.15 -34.35 -38.0 -31.45 -34.1 -28.35 Q-30.85 -25.6 -28.45 -28.55 -26.85 -30.45 -25.9 -32.75 -21.95 -42.5 -15.2 -50.6 L-12.45 -50.5 Q-9.35 -52.15 -6.45 -54.5 L-6.25 -54.55 -7.75 -51.05 Q-9.05 -47.8 -9.65 -44.4 -9.35 -44.0 -9.0 -43.95 -3.1 -43.0 2.5 -40.6 L2.75 -40.4 M55.0 -62.6 L55.3 -62.65 57.35 -62.25 54.0 -59.25 50.4 -55.9 49.6 -55.4 Q49.05 -55.05 49.2 -54.4 L49.7 -54.0 69.45 -53.05 Q70.7 -53.0 70.65 -52.05 L70.3 -51.7 69.95 -51.3 Q69.75 -49.8 68.75 -48.6 66.5 -45.8 63.1 -44.05 61.0 -42.9 58.75 -42.15 54.1 -40.65 51.1 -37.65 L51.4 -37.0 Q52.1 -36.0 53.35 -35.9 54.9 -34.45 56.7 -33.35 L60.4 -30.6 57.45 -30.4 Q47.8 -30.35 38.85 -27.8 L38.5 -28.15 Q37.75 -28.95 36.6 -29.2 L37.2 -29.4 37.65 -29.55 38.2 -30.15 38.4 -30.5 Q38.4 -31.15 37.75 -31.3 L33.75 -32.2 Q30.4 -33.05 28.5 -36.0 L28.5 -36.35 28.5 -37.1 28.45 -38.15 Q28.4 -38.85 28.6 -39.55 30.85 -42.15 32.55 -45.1 33.6 -46.95 33.8 -49.1 35.05 -50.05 36.7 -50.4 38.45 -50.75 40.05 -51.55 L40.2 -52.25 40.25 -52.95 39.75 -53.65 38.85 -54.75 Q38.75 -57.25 41.0 -58.25 47.65 -61.2 55.0 -62.6" fill="#ffff00" fill-opacity="0.5019608" fill-rule="evenodd" stroke="none"/>
  </g>
</svg>
