<?xml version="1.0" encoding="UTF-8" standalone="no"?>
<svg xmlns:ffdec="https://www.free-decompiler.com/flash" xmlns:xlink="http://www.w3.org/1999/xlink" ffdec:objectType="shape" height="59.9px" width="98.5px" xmlns="http://www.w3.org/2000/svg">
  <g transform="matrix(1.0, 0.0, 0.0, 1.0, 37.25, 46.8)">
    <path d="M37.6 -41.15 Q37.45 -42.55 38.25 -43.6 39.9 -46.0 42.4 -46.45 49.6 -48.1 49.05 -41.9 48.7 -37.65 43.85 -36.7 30.95 -34.3 19.8 -27.55 20.4 -20.05 23.15 -12.8 24.0 -10.65 24.35 -8.5 L28.8 -9.35 28.5 -9.65 Q25.05 -13.1 25.05 -18.0 25.05 -22.9 28.5 -26.35 31.95 -29.8 36.85 -29.8 41.75 -29.8 45.2 -26.35 48.65 -22.9 48.65 -18.0 48.65 -13.1 45.2 -9.65 42.1 -6.55 37.8 -6.2 L34.65 -4.5 45.55 -2.65 51.4 -12.0 52.8 -14.85 52.8 -15.35 52.45 -15.9 51.9 -16.45 51.8 -17.0 51.8 -19.1 51.9 -20.15 52.3 -20.65 53.35 -21.7 53.85 -22.1 54.2 -22.2 55.05 -22.35 55.1 -22.45 Q63.6 -22.85 60.35 -15.3 60.2 -14.95 59.85 -14.7 56.25 -9.75 53.35 -4.5 L52.25 -1.95 Q48.05 5.6 39.55 2.8 L32.65 1.0 Q27.4 0.0 22.8 -2.1 15.5 -0.55 8.55 -1.4 L8.5 -1.25 Q5.05 0.25 2.1 -2.4 0.85 -1.6 -0.55 -0.95 -0.6 -2.3 -1.7 -3.15 -3.8 -4.8 -6.2 -5.85 L-5.8 -5.9 -5.95 -6.0 Q-8.75 -7.5 -11.95 -7.95 L-11.8 -4.0 Q-9.0 -1.75 -6.4 0.9 -4.95 2.35 -3.8 4.0 -2.55 5.8 -3.9 7.6 L-6.35 10.8 Q-9.3 14.8 -13.05 11.8 -13.7 9.95 -12.35 8.65 L-10.25 6.5 -11.05 5.6 Q-11.15 7.7 -13.35 8.4 -20.45 10.6 -27.25 8.35 L-28.6 7.55 Q-29.35 5.05 -26.85 4.6 -21.55 3.6 -16.05 3.35 L-16.5 0.45 Q-17.35 -0.35 -17.85 -1.45 -22.8 -4.55 -27.5 -8.0 L-30.55 -8.05 -30.95 -8.4 Q-35.7 -12.2 -37.25 -17.7 L-37.0 -18.15 Q-36.15 -19.5 -34.6 -19.55 L-34.6 -19.6 Q-27.85 -18.8 -21.4 -16.5 L-21.0 -16.25 -17.65 -15.45 -17.6 -20.0 Q-17.45 -24.05 -16.6 -27.9 L-15.65 -28.95 -14.65 -29.85 -14.3 -30.0 -13.45 -30.1 -13.4 -30.2 Q-7.2 -26.45 -3.9 -19.8 L-3.7 -19.25 Q-1.95 -16.55 0.25 -14.05 L1.4 -12.9 4.2 -9.6 10.75 -7.65 Q13.7 -6.75 16.9 -7.2 L18.2 -7.4 Q16.8 -10.2 16.65 -13.8 16.6 -15.45 16.15 -17.1 14.35 -23.25 13.6 -29.7 22.6 -37.7 34.6 -39.75 L35.2 -40.2 Q36.35 -40.8 37.6 -41.15 M-24.0 -11.9 L-24.2 -12.05 -24.25 -12.0 -24.0 -11.9 M-12.1 -14.05 L-5.35 -12.3 -12.0 -21.75 -12.1 -14.05 M-17.5 -9.85 L-23.05 -11.4 Q-20.15 -9.9 -17.4 -8.1 L-17.5 -9.85" fill="#000000" fill-rule="evenodd" stroke="none"/>
  </g>
</svg>
