<?xml version="1.0" encoding="UTF-8" standalone="no"?>
<svg xmlns:ffdec="https://www.free-decompiler.com/flash" xmlns:xlink="http://www.w3.org/1999/xlink" ffdec:objectType="shape" height="32.0px" width="129.35px" xmlns="http://www.w3.org/2000/svg">
  <g transform="matrix(1.0, 0.0, 0.0, 1.0, 43.95, 20.8)">
    <path d="M45.45 -4.9 L44.7 -3.3 55.3 -3.6 58.65 -3.7 57.15 -4.6 56.85 -4.8 56.25 -4.75 Q50.8 -4.55 45.45 -4.9 M8.2 -7.15 Q10.5 -7.0 11.0 -5.6 L21.6 -5.9 Q21.2 -7.35 21.2 -9.0 21.15 -13.9 24.85 -17.35 28.5 -20.8 33.7 -20.8 38.85 -20.8 42.55 -17.35 45.75 -14.3 46.15 -10.15 L55.45 -10.6 56.6 -10.3 56.85 -10.2 58.35 -10.6 59.45 -10.3 Q61.9 -9.7 64.0 -8.2 66.85 -6.1 65.1 -3.9 L75.8 -4.05 75.8 -4.0 79.45 -3.75 Q84.3 -3.65 85.3 0.1 85.75 2.1 84.25 3.25 81.05 5.65 78.0 3.35 77.4 2.85 77.15 2.2 L75.6 2.0 Q66.1 1.85 56.6 2.0 L55.45 2.05 Q43.9 2.8 32.3 2.65 L32.1 2.75 Q28.5 2.3 25.7 0.1 L7.3 0.5 Q7.0 2.25 6.2 3.9 5.85 4.45 5.9 4.95 6.05 7.95 3.1 8.7 1.1 9.2 0.2 7.45 -0.95 5.3 -0.6 2.95 -0.45 1.65 0.0 0.7 L-2.6 0.75 -6.65 0.75 Q-4.8 2.75 -5.1 5.6 -5.45 8.3 -7.35 10.25 -9.1 12.05 -11.05 10.5 -12.6 9.35 -12.3 7.5 L-12.3 7.2 -12.3 5.75 -22.7 5.5 -23.8 5.45 Q-30.3 5.05 -36.6 3.7 L-39.45 2.8 Q-42.75 1.45 -43.8 -1.65 -44.3 -3.1 -43.2 -4.2 -40.9 -6.55 -37.15 -5.45 L-36.4 -5.25 Q-36.6 -7.85 -33.65 -7.95 L-10.1 -8.25 -4.9 -7.8 8.2 -7.15" fill="#000000" fill-rule="evenodd" stroke="none"/>
  </g>
</svg>
