<?xml version="1.0" encoding="UTF-8" standalone="no"?>
<svg xmlns:ffdec="https://www.free-decompiler.com/flash" xmlns:xlink="http://www.w3.org/1999/xlink" ffdec:objectType="shape" height="157.4px" width="119.2px" xmlns="http://www.w3.org/2000/svg">
  <g transform="matrix(1.0, 0.0, 0.0, 1.0, 50.35, 136.45)">
    <path d="M24.8 -130.8 Q28.55 -133.1 31.85 -132.9 L31.8 -128.55 Q31.75 -124.75 32.0 -121.05 34.7 -119.75 37.85 -121.05 47.1 -124.8 56.6 -123.4 L56.75 -119.85 Q56.55 -115.95 54.5 -112.75 L54.5 -110.0 54.5 -106.05 Q55.2 -104.85 56.4 -104.3 63.0 -101.35 68.85 -97.2 68.4 -96.9 67.9 -96.75 59.0 -94.8 52.4 -89.05 L52.35 -87.05 Q52.3 -85.85 52.55 -84.7 L53.55 -83.5 Q54.35 -82.25 55.4 -81.15 L41.75 -80.5 Q39.5 -80.35 38.15 -78.5 L38.15 -77.3 38.15 -75.35 38.45 -74.9 Q38.65 -74.2 39.2 -73.75 29.5 -73.8 21.85 -68.9 21.2 -65.65 23.55 -63.6 26.65 -61.0 29.6 -59.4 28.7 -58.7 27.7 -58.15 23.35 -55.85 23.55 -51.5 29.3 -48.05 36.35 -46.8 42.8 -45.6 47.8 -42.8 L47.35 -42.45 Q44.2 -39.85 41.35 -36.9 L41.3 -36.5 41.2 -36.1 Q40.55 -35.55 39.75 -35.3 37.9 -34.65 36.6 -33.2 36.65 -30.95 37.5 -28.85 39.3 -24.5 41.85 -20.55 L41.85 -20.15 41.75 -19.35 Q35.5 -19.55 30.8 -16.6 L30.9 -15.05 Q31.4 -11.9 33.75 -9.55 38.0 -5.2 40.8 0.0 L34.1 0.5 Q28.1 2.05 25.0 6.85 L25.0 9.6 25.0 13.15 24.2 13.35 22.6 13.15 Q16.65 9.15 9.45 11.6 6.35 7.45 4.4 2.55 3.8 1.05 2.2 0.95 -5.1 0.75 -11.5 5.25 L-12.8 5.4 -16.95 2.95 -18.1 2.85 Q-27.5 9.45 -35.05 18.45 L-35.25 19.2 -35.6 20.0 -36.85 20.5 Q-37.3 20.65 -37.7 20.95 L-38.7 18.3 Q-40.05 13.15 -44.55 10.0 L-44.35 8.85 -43.1 6.85 Q-42.85 6.05 -42.9 5.25 L-42.95 2.9 -43.75 1.6 Q-45.35 -0.75 -47.45 -2.65 L-48.15 -3.6 Q-49.65 -4.8 -50.35 -6.6 L-50.15 -6.95 -48.75 -8.55 Q-44.2 -10.2 -45.05 -15.15 -45.95 -20.35 -48.75 -25.05 -45.2 -23.05 -41.1 -22.8 -39.75 -22.75 -39.45 -24.2 -38.45 -29.3 -38.75 -34.8 -36.6 -34.9 -34.9 -33.6 -30.0 -29.85 -24.8 -30.3 L-24.65 -31.1 -24.4 -32.3 -24.0 -32.7 -23.45 -33.45 -23.45 -35.85 -23.45 -38.6 -22.7 -38.95 -21.9 -39.5 Q-18.8 -39.95 -15.95 -41.25 L-15.35 -42.45 Q-14.95 -43.2 -15.05 -44.0 L-15.35 -44.35 Q-18.4 -46.55 -20.45 -48.6 -16.45 -50.8 -12.95 -53.5 L-12.9 -54.25 -13.05 -55.85 -13.35 -56.2 Q-15.95 -58.2 -19.0 -59.4 L-18.7 -59.75 -13.45 -64.55 -13.45 -65.35 -13.45 -66.15 Q-19.2 -70.35 -25.7 -73.65 L-26.35 -74.25 Q-27.6 -74.95 -28.2 -75.85 L-26.9 -76.2 Q-25.15 -76.8 -24.0 -78.25 -23.5 -81.7 -25.0 -84.7 -26.95 -88.55 -26.5 -92.85 L-26.1 -93.25 Q-22.3 -93.1 -20.85 -96.7 L-20.85 -97.1 -20.85 -97.45 Q-19.75 -98.4 -19.5 -99.85 -19.05 -102.2 -18.75 -104.6 L-17.8 -105.35 -16.35 -105.5 Q-12.85 -102.8 -9.75 -105.1 L-9.75 -105.5 -9.75 -105.9 -9.5 -106.3 -9.25 -106.7 -9.25 -108.25 -9.25 -110.65 -8.6 -111.9 Q-8.15 -113.05 -7.15 -113.8 -3.7 -112.8 -1.85 -115.1 -0.95 -118.8 -1.8 -122.65 -2.65 -126.65 -2.4 -130.9 -1.2 -130.6 -0.1 -130.1 1.5 -129.4 3.2 -129.15 5.25 -128.9 6.7 -129.9 L16.55 -136.45 Q17.45 -136.0 17.4 -134.1 17.35 -131.45 18.3 -128.95 18.9 -128.6 19.4 -128.7 22.2 -129.25 24.8 -130.8" fill="#ffff00" fill-opacity="0.5019608" fill-rule="evenodd" stroke="none"/>
  </g>
</svg>
