<?xml version="1.0" encoding="UTF-8" standalone="no"?>
<svg xmlns:ffdec="https://www.free-decompiler.com/flash" xmlns:xlink="http://www.w3.org/1999/xlink" ffdec:objectType="shape" height="124.75px" width="77.4px" xmlns="http://www.w3.org/2000/svg">
  <g transform="matrix(1.0, 0.0, 0.0, 1.0, 34.1, 124.1)">
    <path d="M7.8 -120.65 Q11.25 -124.1 16.15 -124.1 21.05 -124.1 24.5 -120.65 27.95 -117.2 27.95 -112.3 27.95 -107.4 24.5 -103.95 21.15 -100.6 16.45 -100.5 L13.65 -101.3 13.5 -101.05 13.2 -100.65 12.75 -98.55 15.75 -95.85 Q17.3 -97.25 20.95 -96.2 23.25 -95.55 22.9 -93.15 22.65 -91.4 21.8 -89.95 L25.55 -86.15 26.0 -86.0 26.5 -86.0 28.05 -87.6 30.55 -89.55 Q35.0 -94.4 36.4 -100.75 36.7 -102.0 37.55 -103.0 37.35 -103.45 36.35 -104.1 35.2 -104.85 34.4 -105.9 L34.1 -107.85 Q33.95 -109.85 35.7 -110.9 L36.1 -111.0 36.9 -111.1 36.9 -111.15 Q44.15 -111.15 43.2 -103.8 42.65 -99.4 40.7 -95.5 37.8 -88.0 31.15 -82.45 L29.65 -81.15 Q25.9 -77.75 22.0 -81.8 L17.55 -86.3 Q13.9 -84.35 10.15 -83.05 9.35 -77.45 8.9 -71.75 8.3 -64.1 7.35 -56.7 L6.3 -50.3 Q8.15 -48.95 9.85 -47.05 10.85 -45.9 12.2 -45.05 L12.9 -44.4 Q21.5 -40.65 27.05 -33.35 27.5 -32.8 27.1 -32.1 20.3 -20.3 12.9 -8.7 14.25 -5.9 17.8 -4.9 23.3 -5.25 23.2 -0.8 23.2 0.3 22.1 0.45 15.55 1.45 10.35 -2.75 9.65 -3.3 9.0 -4.0 L6.45 -6.85 Q6.6 -11.3 9.7 -15.0 L12.15 -17.55 Q14.85 -22.7 18.05 -27.8 L20.7 -32.15 Q18.6 -34.85 15.45 -36.75 L15.3 -36.9 Q9.5 -39.45 4.7 -43.5 2.75 -35.25 1.75 -26.65 1.0 -20.2 -5.55 -18.65 -16.6 -16.05 -28.05 -15.0 -28.2 -10.15 -29.6 -5.65 -29.75 -5.2 -30.3 -5.15 -34.3 -4.85 -34.1 -9.0 -33.9 -12.75 -32.95 -16.35 -31.6 -21.6 -25.8 -21.5 -14.8 -21.35 -4.9 -25.55 -3.85 -26.0 -3.7 -27.15 -2.65 -35.6 -0.7 -43.7 -0.35 -45.25 -0.4 -46.9 L-0.1 -47.3 0.55 -48.05 0.45 -49.0 0.65 -50.6 1.05 -51.15 3.8 -79.2 4.05 -81.4 Q-4.75 -79.65 -14.25 -81.25 -15.05 -81.4 -15.65 -82.05 -16.7 -83.25 -16.2 -84.85 -7.5 -93.8 3.15 -100.75 5.25 -102.15 7.4 -102.75 L8.35 -102.85 8.55 -103.5 8.15 -103.6 7.8 -103.95 Q4.35 -107.4 4.35 -112.3 4.35 -117.2 7.8 -120.65 M6.55 -95.9 Q-1.1 -92.25 -6.95 -85.75 -1.65 -85.9 4.85 -87.2 5.55 -91.6 6.55 -95.9 M11.55 -92.1 L11.05 -89.1 13.4 -90.35 11.55 -92.1" fill="#000000" fill-rule="evenodd" stroke="none"/>
  </g>
</svg>
