<?xml version="1.0" encoding="UTF-8" standalone="no"?>
<svg xmlns:ffdec="https://www.free-decompiler.com/flash" xmlns:xlink="http://www.w3.org/1999/xlink" ffdec:objectType="shape" height="107.05px" width="69.95px" xmlns="http://www.w3.org/2000/svg">
  <g transform="matrix(1.0, 0.0, 0.0, 1.0, 34.3, 110.4)">
    <path d="M15.45 -106.95 Q18.9 -103.5 18.9 -98.6 18.9 -93.7 15.45 -90.25 12.1 -86.9 7.4 -86.8 L3.15 -87.95 2.1 -88.65 2.05 -88.45 1.8 -86.15 1.8 -78.2 Q4.8 -76.8 7.25 -74.15 11.5 -69.6 15.05 -64.55 L22.0 -64.55 22.65 -64.95 22.65 -65.35 22.7 -66.1 22.8 -66.9 Q26.95 -70.5 29.1 -65.3 29.5 -64.3 29.45 -63.1 29.15 -59.75 25.35 -59.2 18.95 -58.25 12.65 -59.75 11.1 -60.15 10.15 -61.35 7.15 -65.3 3.75 -68.8 L2.3 -70.3 Q2.95 -62.7 4.55 -55.3 L6.05 -48.25 6.25 -46.15 6.7 -45.25 Q11.6 -42.15 16.8 -39.55 19.2 -38.35 21.65 -37.3 29.15 -34.05 34.6 -28.05 37.15 -25.25 33.45 -23.7 22.6 -19.2 12.1 -13.8 L9.1 -12.5 Q13.0 -9.55 14.45 -5.3 14.55 -5.0 14.25 -4.75 10.95 -1.6 7.55 -5.5 4.75 -8.7 2.25 -12.15 2.1 -17.65 8.25 -18.6 L10.8 -19.4 27.4 -27.4 Q25.5 -29.2 21.55 -30.95 18.6 -32.3 15.8 -33.75 10.85 -35.25 7.15 -38.15 6.9 -31.35 7.2 -24.5 7.3 -21.25 4.2 -20.95 -1.5 -20.4 -6.95 -21.7 -14.6 -23.55 -21.6 -26.9 L-24.1 -27.55 Q-27.0 -22.65 -31.25 -19.1 -31.8 -18.65 -32.5 -19.1 -35.55 -21.15 -33.5 -24.45 -30.35 -29.5 -25.75 -33.2 L-24.35 -33.35 Q-11.95 -28.2 1.45 -26.35 L1.8 -43.5 Q0.0 -45.2 -0.15 -47.95 L-0.25 -49.45 Q-0.75 -48.9 -1.7 -48.65 -5.2 -47.7 -8.45 -49.4 -21.3 -56.05 -23.65 -69.4 L-23.55 -70.6 Q-14.35 -77.9 -3.7 -82.65 L-3.65 -82.7 -3.25 -82.7 -3.0 -92.45 Q-4.7 -95.15 -4.7 -98.6 -4.7 -103.5 -1.25 -106.95 2.2 -110.4 7.1 -110.4 12.0 -110.4 15.45 -106.95 M-6.7 -75.2 L-17.35 -68.2 -17.9 -67.85 Q-17.5 -65.65 -15.95 -64.1 -15.2 -63.35 -15.25 -62.3 -12.15 -58.15 -7.85 -55.25 -7.05 -54.75 -6.05 -54.4 -2.2 -55.75 -0.7 -54.1 -1.3 -58.85 -2.25 -63.45 L-2.75 -67.3 -3.15 -76.65 -6.7 -75.2" fill="#000000" fill-rule="evenodd" stroke="none"/>
  </g>
</svg>
