<?xml version="1.0" encoding="UTF-8" standalone="no"?>
<svg xmlns:ffdec="https://www.free-decompiler.com/flash" xmlns:xlink="http://www.w3.org/1999/xlink" ffdec:objectType="shape" height="103.0px" width="108.0px" xmlns="http://www.w3.org/2000/svg">
  <g transform="matrix(1.0, 0.0, 0.0, 1.0, 40.2, 95.1)">
    <path d="M51.45 -51.5 L51.85 -51.1 52.4 -50.3 52.4 -49.15 Q52.55 -44.6 54.1 -40.45 54.8 -39.9 55.6 -39.75 L66.75 -38.85 67.1 -38.45 67.3 -38.05 67.05 -37.65 65.95 -35.7 Q64.6 -35.45 64.4 -34.1 62.7 -33.2 61.9 -31.35 L61.9 -30.55 61.9 -28.6 Q65.1 -25.0 67.8 -21.1 61.25 -20.7 58.6 -14.25 56.95 -14.3 55.7 -15.05 52.15 -17.15 48.2 -16.35 47.65 -15.9 47.45 -15.3 45.7 -10.65 47.4 -5.8 42.6 -6.25 38.15 -4.75 L37.55 -3.7 Q36.45 2.4 34.1 7.9 L33.1 7.15 Q29.5 4.2 25.0 4.0 19.85 3.8 15.5 6.05 16.2 3.05 13.7 1.85 L12.75 1.7 Q7.65 3.25 2.85 5.5 L2.85 4.75 2.35 0.8 2.1 0.4 1.8 0.0 Q1.55 -2.8 -0.3 -5.05 -2.7 -8.0 -4.8 -4.9 -7.45 -1.1 -9.25 3.15 L-17.95 1.95 -18.1 1.15 -18.5 0.25 Q-22.3 -4.4 -29.15 -4.6 L-29.4 -4.85 -30.05 -6.05 -30.55 -6.5 -31.1 -7.25 Q-30.1 -9.25 -27.95 -10.3 L-27.8 -11.1 -27.7 -13.45 Q-30.3 -17.55 -34.25 -20.55 -31.65 -20.8 -29.5 -22.4 L-29.4 -22.8 -28.75 -24.0 Q-28.7 -25.0 -29.35 -25.8 -34.45 -31.8 -40.2 -37.4 -36.7 -36.55 -33.85 -38.05 -33.4 -38.6 -33.35 -39.25 -33.05 -44.9 -35.05 -49.95 L-35.15 -50.7 Q-35.6 -52.45 -35.6 -54.25 -31.2 -55.0 -27.15 -53.35 -24.2 -50.65 -21.35 -52.95 L-21.35 -54.55 -20.85 -64.0 -21.1 -64.4 -21.35 -64.8 -21.4 -65.6 -21.5 -66.4 Q-22.5 -68.35 -24.4 -69.55 L-24.55 -69.95 -24.8 -70.35 -26.5 -71.15 Q-25.35 -71.2 -24.4 -71.8 -23.9 -72.55 -23.85 -73.4 -23.4 -79.15 -24.5 -84.85 L-23.2 -84.95 Q-19.85 -81.5 -15.85 -82.45 L-15.7 -82.85 Q-14.05 -89.55 -10.05 -95.1 L-9.6 -95.05 Q-8.5 -94.4 -7.8 -93.25 L-7.7 -92.85 -7.55 -92.05 -6.1 -90.5 -6.05 -90.1 -5.8 -89.3 Q-4.3 -87.25 -2.0 -86.55 L-1.9 -86.4 Q-1.15 -85.4 0.0 -85.1 0.25 -85.15 0.5 -85.3 L1.05 -85.6 1.25 -86.4 1.3 -87.2 2.1 -87.35 2.35 -87.45 Q4.25 -89.05 5.25 -91.3 6.5 -92.3 7.1 -92.6 L7.15 -91.4 Q7.55 -87.6 8.65 -83.9 9.45 -82.7 10.8 -82.5 L18.65 -81.6 Q20.2 -81.45 20.65 -80.5 L19.4 -79.1 Q15.0 -74.55 15.0 -68.65 17.85 -64.95 21.7 -62.3 L21.85 -61.9 22.25 -61.1 22.05 -60.7 21.6 -59.55 Q18.6 -57.4 16.05 -54.8 L16.0 -54.0 Q15.95 -53.0 16.2 -52.05 19.55 -50.0 22.9 -49.15 L22.95 -48.75 Q23.2 -47.65 23.95 -46.75 L24.0 -46.0 24.1 -45.2 Q25.7 -43.8 27.35 -45.05 29.95 -50.5 35.8 -49.65 37.45 -45.85 40.55 -43.45 42.85 -44.0 43.85 -46.0 46.5 -51.2 51.45 -51.5" fill="#ffff00" fill-opacity="0.5019608" fill-rule="evenodd" stroke="none"/>
  </g>
</svg>
