<?xml version="1.0" encoding="UTF-8" standalone="no"?>
<svg xmlns:ffdec="https://www.free-decompiler.com/flash" xmlns:xlink="http://www.w3.org/1999/xlink" ffdec:objectType="shape" height="102.35px" width="112.35px" xmlns="http://www.w3.org/2000/svg">
  <g transform="matrix(1.0, 0.0, 0.0, 1.0, 42.15, 91.85)">
    <path d="M41.4 -61.1 Q42.2 -60.55 43.05 -60.75 47.4 -61.8 50.3 -66.0 L51.45 -66.25 Q54.85 -62.35 57.65 -58.1 58.1 -57.45 58.8 -57.3 L66.05 -56.0 Q67.55 -55.75 68.75 -54.65 L68.75 -54.3 69.0 -53.5 Q70.2 -52.85 70.2 -51.5 L59.25 -42.4 59.25 -41.65 59.25 -38.45 Q62.4 -35.75 64.9 -32.55 L64.5 -32.15 Q61.35 -32.2 59.75 -29.75 L59.8 -29.4 Q60.3 -26.75 61.35 -24.25 L62.95 -23.05 62.95 -22.65 62.95 -22.25 64.5 -20.3 64.5 -19.9 64.5 -19.5 Q66.5 -17.95 67.65 -15.55 L67.7 -15.15 Q68.1 -13.3 69.1 -11.6 L58.6 -10.35 Q50.1 -8.65 50.3 -0.55 L49.5 -0.4 39.25 -7.25 Q37.7 -8.15 36.0 -7.25 31.75 -4.9 31.2 0.1 30.5 0.85 29.5 0.85 22.0 1.0 17.75 6.7 L17.65 7.1 17.5 7.9 16.05 9.45 16.0 9.85 15.9 10.25 Q15.15 10.85 14.75 10.0 14.6 9.8 14.6 9.6 14.6 7.5 13.0 6.05 12.7 4.1 11.5 2.7 10.3 1.3 8.65 2.25 L-3.3 8.8 Q-3.85 6.3 -4.95 4.05 -7.3 -1.05 -12.5 1.2 -18.5 3.75 -24.25 4.85 L-24.4 4.05 Q-24.55 0.1 -26.35 -3.45 -29.1 -5.65 -32.15 -7.1 L-30.45 -8.45 -30.35 -9.25 Q-30.05 -11.5 -30.7 -13.6 -32.55 -14.9 -33.5 -16.75 -30.3 -18.4 -30.85 -21.85 -35.45 -27.35 -42.15 -30.15 -36.2 -31.6 -32.05 -35.85 -31.8 -36.6 -31.8 -37.4 -31.65 -42.25 -32.4 -46.9 L-26.45 -47.65 Q-25.5 -47.85 -25.05 -48.75 L-25.05 -49.15 -25.05 -49.55 -24.8 -49.95 Q-23.25 -52.8 -22.3 -55.85 L-20.3 -58.2 -20.3 -58.6 Q-20.2 -59.65 -20.45 -60.6 L-21.9 -62.15 -21.85 -62.55 Q-21.75 -63.45 -22.3 -64.15 -24.65 -65.75 -26.5 -68.1 L-26.65 -68.5 -26.9 -69.3 Q-28.6 -70.15 -29.8 -71.65 L-20.05 -72.25 -19.5 -72.45 Q-18.85 -73.9 -19.2 -75.3 -20.55 -80.45 -20.3 -85.9 -14.95 -84.0 -9.35 -82.85 -7.3 -80.8 -5.55 -83.0 L-5.5 -83.35 Q-5.0 -85.75 -3.95 -88.1 L-3.7 -88.5 -1.85 -91.7 Q-1.5 -92.05 -1.25 -91.55 2.35 -84.55 8.4 -79.8 19.05 -82.65 29.75 -83.25 27.55 -77.4 24.0 -72.15 19.9 -66.0 20.4 -58.9 20.95 -58.25 21.85 -58.1 L21.4 -56.6 Q20.0 -51.85 20.4 -46.75 20.6 -46.55 20.8 -46.5 L22.25 -46.65 Q27.15 -50.2 30.95 -55.05 L31.6 -55.05 Q34.5 -52.5 36.6 -55.6 L36.6 -56.0 Q36.9 -57.55 38.15 -58.75 L38.15 -59.55 Q38.1 -61.0 38.7 -62.3 L39.2 -62.55 41.4 -61.1" fill="#ffff00" fill-opacity="0.5019608" fill-rule="evenodd" stroke="none"/>
  </g>
</svg>
