<?xml version="1.0" encoding="UTF-8" standalone="no"?>
<svg xmlns:ffdec="https://www.free-decompiler.com/flash" xmlns:xlink="http://www.w3.org/1999/xlink" ffdec:objectType="shape" height="103.4px" width="136.85px" xmlns="http://www.w3.org/2000/svg">
  <g transform="matrix(1.0, 0.0, 0.0, 1.0, 37.7, 91.95)">
    <path d="M41.35 -62.7 Q43.6 -60.0 46.85 -58.75 50.3 -61.2 52.95 -64.65 55.3 -67.8 58.45 -69.7 60.0 -68.25 60.5 -66.1 61.75 -60.6 61.5 -54.65 L62.7 -54.2 Q67.6 -53.15 72.95 -52.8 L73.55 -52.25 74.5 -51.75 75.7 -49.95 Q76.45 -48.45 75.95 -46.75 L75.15 -46.05 Q74.5 -45.55 74.5 -44.8 L73.8 -44.35 72.95 -43.6 72.9 -43.2 72.8 -42.8 72.3 -42.4 Q69.4 -40.3 67.15 -37.7 67.15 -36.9 67.4 -36.2 68.05 -34.25 69.25 -32.55 L69.25 -32.15 69.25 -31.75 70.0 -31.05 71.1 -30.3 71.7 -30.7 85.7 -47.4 86.95 -48.15 87.45 -48.35 86.6 -45.65 Q84.4 -39.75 80.85 -34.5 L80.85 -34.1 80.85 -33.75 80.85 -33.35 79.95 -32.0 79.8 -31.35 80.4 -30.85 Q86.2 -29.2 91.1 -25.55 87.1 -24.6 84.0 -22.4 L84.05 -21.2 84.15 -20.4 85.2 -19.65 Q86.15 -18.65 87.55 -18.6 93.1 -14.55 98.25 -10.0 95.3 -10.7 94.0 -8.7 L94.0 -8.3 94.0 -7.1 94.0 -6.35 94.85 -5.5 95.05 -5.15 Q95.0 -4.55 95.25 -4.0 95.8 -2.9 96.65 -2.0 96.6 -0.95 97.1 -0.05 L99.15 4.75 Q98.7 5.25 98.65 5.9 L98.5 6.7 Q93.45 9.75 88.35 10.9 L87.3 9.35 Q86.75 8.45 85.9 8.25 L76.65 6.85 75.9 5.8 75.05 4.6 75.05 3.0 75.05 1.85 74.8 1.45 74.5 1.05 74.5 0.65 74.5 0.25 Q72.65 -1.9 70.6 0.3 L68.25 3.1 Q64.15 8.95 58.05 11.45 L57.5 11.05 56.85 10.65 Q56.6 10.0 56.05 9.5 L54.65 7.5 Q54.0 7.1 53.25 7.0 42.95 5.5 32.4 6.85 L32.0 6.55 31.7 6.2 31.3 5.8 Q41.7 4.2 51.1 1.3 58.35 5.65 64.5 0.25 L64.5 -1.35 64.5 -2.9 64.25 -3.3 64.0 -3.7 Q64.0 -5.65 62.65 -7.15 59.4 -10.8 54.0 -10.0 50.1 -12.55 45.2 -10.6 40.7 -8.85 36.85 -8.85 L36.55 -9.6 Q34.35 -14.55 28.95 -16.6 L28.45 -16.45 28.2 -16.3 27.9 -16.1 Q27.45 -15.2 27.55 -14.1 L27.65 -10.95 22.35 -8.95 22.4 -7.4 Q22.4 -5.55 23.8 -4.2 L23.9 -3.8 23.95 -3.05 23.95 -2.65 Q13.55 -3.25 7.2 4.6 L6.0 5.5 Q5.45 5.9 5.25 6.6 L4.7 6.75 4.3 6.7 3.95 6.3 3.8 5.9 3.65 5.5 Q-0.45 0.8 -6.4 4.0 -11.3 6.65 -16.1 7.5 -18.8 0.8 -25.45 -0.95 L-29.25 -3.15 -28.55 -4.0 -28.35 -4.35 Q-28.1 -5.3 -28.15 -6.35 L-28.2 -8.7 -29.2 -10.3 -30.85 -13.45 -30.25 -14.15 -27.8 -16.35 -27.75 -16.75 -27.7 -17.9 -27.7 -18.7 -28.0 -19.05 -37.7 -28.7 Q-37.15 -29.1 -36.65 -29.1 -31.3 -28.85 -26.5 -30.7 -25.95 -31.4 -26.05 -32.3 L-26.1 -33.45 -26.35 -33.85 -26.65 -34.25 -27.0 -34.65 -27.1 -35.05 -27.2 -35.45 -27.3 -35.85 -27.6 -36.2 -28.6 -37.0 -29.1 -38.15 -29.8 -39.4 -29.8 -39.8 -29.8 -40.15 -29.9 -40.55 -30.65 -41.25 Q-31.4 -41.7 -31.35 -42.55 L-30.7 -43.35 -30.3 -43.75 -23.75 -44.15 -22.8 -44.4 Q-22.25 -45.1 -22.35 -46.0 L-22.7 -47.15 -23.85 -48.2 -29.8 -57.05 -29.8 -57.45 -29.75 -58.2 -29.65 -58.6 -29.25 -59.0 Q-26.05 -57.85 -24.1 -60.05 -23.9 -62.2 -24.4 -64.3 -25.7 -70.0 -24.5 -75.85 L-24.1 -76.7 -23.85 -77.45 -22.7 -77.6 Q-19.4 -75.65 -15.85 -74.55 -15.0 -74.8 -14.45 -75.4 -10.55 -79.7 -7.8 -84.55 L-7.1 -85.35 -4.1 -88.5 -3.95 -88.9 Q-2.65 -91.2 0.0 -91.95 L0.85 -91.7 1.15 -91.4 1.25 -91.0 1.3 -90.6 1.3 -90.25 Q2.2 -89.35 2.5 -88.2 3.3 -84.85 5.5 -82.3 L5.55 -81.95 5.65 -81.55 6.85 -81.1 15.5 -80.2 Q14.55 -78.95 14.3 -77.5 L13.55 -74.4 Q10.9 -65.85 15.0 -58.5 17.3 -54.3 20.25 -56.1 L20.65 -58.9 21.3 -63.6 21.6 -64.0 21.95 -64.45 22.25 -64.8 22.35 -65.2 22.35 -65.6 22.35 -65.85 Q25.4 -63.0 28.85 -61.05 34.85 -57.6 40.3 -62.7 L41.35 -62.7" fill="#ffff00" fill-opacity="0.5019608" fill-rule="evenodd" stroke="none"/>
  </g>
</svg>
