<?xml version="1.0" encoding="UTF-8" standalone="no"?>
<svg xmlns:ffdec="https://www.free-decompiler.com/flash" xmlns:xlink="http://www.w3.org/1999/xlink" ffdec:objectType="shape" height="68.7px" width="110.8px" xmlns="http://www.w3.org/2000/svg">
  <g transform="matrix(1.0, 0.0, 0.0, 1.0, 20.0, 71.9)">
    <path d="M2.05 -49.6 L5.5 -47.5 Q10.0 -44.4 15.2 -42.65 24.0 -39.65 33.4 -38.1 44.15 -45.9 56.9 -49.55 61.45 -47.5 58.5 -43.1 56.95 -40.75 55.7 -38.25 53.8 -34.35 51.2 -31.0 59.05 -28.65 65.8 -24.6 L66.95 -23.7 80.1 -11.05 Q81.75 -11.0 82.4 -9.65 L83.0 -8.85 Q86.7 -10.2 90.1 -8.95 90.85 -8.7 90.8 -7.8 90.6 -4.05 86.5 -3.35 83.7 -2.85 81.15 -3.85 78.6 -4.8 76.6 -6.8 L61.65 -21.1 Q54.4 -23.95 47.05 -26.45 L43.6 -23.6 46.25 -21.7 46.4 -21.6 Q50.85 -19.85 47.4 -16.5 46.2 -15.35 44.7 -16.15 40.5 -18.4 37.3 -21.6 36.8 -22.1 37.05 -22.85 38.15 -26.1 40.9 -28.5 L39.05 -29.1 Q35.6 -30.2 33.7 -32.8 L33.25 -32.9 31.45 -33.2 26.75 -34.1 Q15.55 -35.9 5.65 -40.6 L5.9 -40.1 Q8.5 -34.5 10.4 -28.8 12.5 -22.45 13.5 -15.8 L14.9 -8.65 Q14.95 -8.3 14.65 -8.1 9.75 -4.8 8.2 -9.6 7.95 -10.3 8.0 -11.1 8.2 -15.5 7.2 -19.8 L5.15 -28.45 4.5 -29.25 3.85 -30.05 3.75 -30.45 3.65 -31.2 3.55 -31.6 Q0.85 -36.45 -1.7 -41.45 L-2.45 -42.6 Q-8.45 -37.1 -14.2 -31.0 L-15.25 -30.05 -14.15 -27.4 Q-13.65 -26.2 -13.7 -24.9 L-10.0 -17.8 -8.4 -14.25 Q-4.75 -9.55 -8.75 -6.8 -10.8 -5.4 -13.65 -5.75 -17.35 -6.2 -15.45 -9.3 -14.6 -10.65 -12.9 -10.8 L-13.25 -11.2 -13.55 -11.6 -13.65 -12.0 -13.7 -12.4 -13.8 -13.2 Q-19.65 -21.65 -20.0 -31.75 -20.05 -33.5 -18.75 -34.85 L-5.45 -47.65 -5.95 -48.25 -6.55 -49.25 -7.4 -49.45 Q-9.05 -50.7 -11.45 -51.4 L-11.8 -51.75 Q-15.25 -55.2 -15.25 -60.1 -15.25 -65.0 -11.8 -68.45 -8.35 -71.9 -3.45 -71.9 1.45 -71.9 4.9 -68.45 8.35 -65.0 8.35 -60.1 8.35 -55.2 4.9 -51.75 3.55 -50.4 2.05 -49.6 M51.65 -41.75 Q45.0 -39.15 38.9 -35.6 42.1 -34.1 45.35 -32.8 49.0 -36.85 51.65 -41.75" fill="#000000" fill-rule="evenodd" stroke="none"/>
  </g>
</svg>
