<?xml version="1.0" encoding="UTF-8" standalone="no"?>
<svg xmlns:ffdec="https://www.free-decompiler.com/flash" xmlns:xlink="http://www.w3.org/1999/xlink" ffdec:objectType="shape" height="103.05px" width="137.85px" xmlns="http://www.w3.org/2000/svg">
  <g transform="matrix(1.0, 0.0, 0.0, 1.0, 32.4, 87.7)">
    <path d="M40.65 -55.45 Q43.55 -53.35 45.85 -56.4 50.0 -61.85 53.7 -67.55 55.35 -66.15 56.6 -64.35 60.6 -58.7 66.25 -54.7 66.8 -54.35 67.2 -54.5 71.85 -56.35 75.6 -60.2 L76.35 -60.45 76.65 -60.45 Q76.65 -57.35 75.3 -54.55 L71.9 -47.15 71.9 -46.35 71.85 -44.8 Q71.8 -44.15 72.0 -43.6 L73.85 -42.45 Q76.7 -40.65 78.75 -38.2 L78.75 -37.4 78.7 -35.05 Q78.65 -34.05 78.85 -33.05 85.0 -30.0 91.9 -29.5 L91.9 -29.25 91.85 -26.5 Q91.8 -25.25 92.05 -24.1 L92.9 -23.4 Q96.65 -20.9 101.15 -19.65 L101.95 -19.05 102.95 -18.6 Q103.55 -17.75 104.4 -17.2 105.1 -16.7 105.45 -15.8 L105.25 -15.4 105.05 -14.65 104.95 -14.25 Q104.25 -13.55 103.9 -12.65 L102.95 -11.05 102.95 -10.7 103.15 -8.35 103.5 -6.35 103.85 -5.9 104.0 -5.55 104.0 -5.15 Q97.5 -4.45 91.4 -1.45 L91.4 2.1 91.4 5.25 78.0 6.15 Q76.35 6.35 75.05 7.35 L75.05 7.75 75.0 8.15 74.9 8.55 74.5 8.95 74.55 9.35 74.3 10.9 73.45 12.1 73.45 12.5 73.45 12.9 73.35 13.3 72.95 13.7 72.95 14.1 72.9 14.85 72.8 15.25 Q66.1 15.7 61.35 14.2 L63.8 11.4 67.65 6.85 69.0 6.65 Q72.55 6.3 74.9 4.2 L75.0 3.8 75.1 3.4 75.2 3.0 75.55 2.6 75.85 2.25 76.1 1.85 76.1 1.45 75.85 0.25 75.45 -0.55 79.55 -1.8 Q83.1 -2.9 82.4 -6.6 78.45 -12.0 72.3 -14.35 68.75 -15.75 67.25 -11.45 65.25 -5.7 60.8 -3.05 L60.1 -3.65 59.4 -4.1 Q56.95 -7.15 53.05 -5.95 48.85 -4.7 45.15 -4.2 L44.7 -8.15 44.5 -11.35 42.95 -13.1 Q41.6 -14.4 39.75 -15.0 39.1 -16.7 39.15 -18.6 L39.2 -21.35 38.95 -21.75 38.7 -22.15 Q37.2 -27.05 32.05 -29.05 30.0 -29.85 28.1 -30.85 23.5 -33.25 21.3 -29.5 L21.3 -28.7 21.3 -26.35 21.3 -24.4 21.6 -24.0 21.95 -23.55 22.25 -23.2 22.35 -22.8 22.4 -22.4 22.5 -22.0 23.85 -20.7 24.35 -20.05 23.65 -19.25 22.9 -18.45 22.9 -18.05 22.85 -17.65 22.75 -17.25 22.35 -16.85 Q22.1 -15.15 22.75 -13.7 24.0 -10.75 27.0 -9.9 27.5 -9.0 28.25 -8.25 29.55 -6.95 31.05 -6.05 L31.2 -5.8 31.3 -5.4 31.45 -5.0 Q30.4 -3.5 28.85 -2.4 24.95 0.5 22.35 4.45 L22.35 5.25 22.3 6.05 22.25 6.45 21.85 6.85 21.85 7.25 Q22.0 8.1 21.65 8.9 L20.8 10.0 18.4 10.0 17.35 9.4 Q16.3 8.9 15.65 8.0 11.95 3.0 6.45 5.8 -0.75 9.45 -8.3 11.7 L-9.3 9.7 -10.3 7.55 Q-11.5 5.0 -11.75 2.25 -12.65 1.4 -13.8 1.25 L-23.45 0.3 Q-24.45 0.25 -25.05 -0.55 -25.0 -1.55 -24.15 -2.15 -23.2 -2.75 -22.55 -3.7 L-22.45 -4.1 -22.35 -5.65 -22.55 -6.85 -24.8 -9.5 -30.6 -15.55 Q-28.7 -16.55 -27.0 -17.75 -25.2 -19.05 -25.55 -21.35 L-26.25 -22.55 -27.15 -23.7 -27.15 -24.1 -27.15 -24.5 -27.85 -25.2 -28.6 -25.7 -30.35 -28.15 Q-31.4 -29.3 -31.35 -30.85 L-31.65 -31.2 -31.9 -31.6 -31.9 -32.0 -31.85 -32.8 -31.75 -33.2 -31.5 -33.55 -30.75 -34.4 -30.45 -34.8 Q-29.7 -35.0 -29.15 -35.35 -28.1 -36.05 -26.9 -36.25 L-25.85 -37.25 -25.2 -38.05 -25.1 -38.45 -25.05 -38.85 -25.05 -39.25 -25.3 -39.65 -25.6 -40.05 -25.95 -40.45 Q-26.6 -43.3 -28.55 -45.5 -32.0 -49.35 -32.4 -54.25 -28.85 -53.65 -25.45 -52.5 -22.4 -51.5 -20.85 -54.55 -20.8 -58.2 -22.25 -61.5 -24.25 -66.1 -24.0 -71.15 L-22.7 -71.4 Q-21.75 -71.6 -21.35 -72.45 L-21.45 -78.0 Q-21.55 -80.8 -21.1 -83.4 L-19.95 -82.55 Q-15.85 -79.2 -11.1 -77.2 -10.8 -77.25 -10.65 -77.4 -3.2 -83.5 5.25 -87.7 L6.15 -87.6 7.7 -85.15 9.2 -82.45 Q9.15 -81.6 9.6 -80.9 10.1 -80.1 10.75 -79.7 16.0 -76.5 21.85 -74.7 21.6 -72.05 20.65 -69.6 19.45 -66.75 19.6 -63.6 L19.2 -63.25 19.2 -62.45 19.15 -60.45 Q19.1 -59.65 19.35 -58.9 21.2 -57.7 23.55 -57.85 L25.25 -55.9 Q28.15 -52.65 32.1 -50.85 L32.6 -51.0 33.05 -51.25 34.75 -54.0 36.85 -57.55 37.65 -57.6 38.05 -57.45 38.95 -56.35 Q39.55 -55.5 40.65 -55.45" fill="#ffff00" fill-opacity="0.5019608" fill-rule="evenodd" stroke="none"/>
  </g>
</svg>
