<?xml version="1.0" encoding="UTF-8" standalone="no"?>
<svg xmlns:ffdec="https://www.free-decompiler.com/flash" xmlns:xlink="http://www.w3.org/1999/xlink" ffdec:objectType="shape" height="66.05px" width="117.4px" xmlns="http://www.w3.org/2000/svg">
  <g transform="matrix(1.0, 0.0, 0.0, 1.0, 19.5, 71.6)">
    <path d="M8.9 -59.8 Q8.9 -54.9 5.45 -51.45 3.8 -49.8 1.85 -48.95 14.6 -45.6 27.95 -43.85 33.15 -43.15 37.9 -41.55 L38.1 -41.45 Q47.95 -45.0 57.45 -49.5 L61.15 -51.1 Q66.85 -50.0 64.15 -44.4 62.7 -41.3 59.95 -39.4 L57.95 -36.1 65.75 -34.3 Q68.3 -33.7 70.5 -31.95 L75.9 -27.4 Q78.65 -25.7 81.3 -23.4 L86.7 -18.75 88.25 -17.0 Q91.6 -16.4 94.35 -19.05 94.7 -19.45 95.3 -19.25 99.8 -17.8 96.5 -14.15 90.5 -7.5 83.85 -13.5 74.5 -22.0 64.4 -29.4 L54.8 -31.3 Q52.15 -27.4 49.3 -23.65 L48.5 -22.8 Q52.2 -20.55 54.8 -17.35 55.6 -16.4 54.55 -15.6 51.35 -13.2 47.7 -15.95 44.25 -18.5 41.25 -21.6 41.85 -25.8 45.7 -29.05 L46.7 -30.0 48.85 -32.35 40.0 -33.85 Q37.1 -34.25 34.65 -35.6 L33.05 -35.5 Q32.35 -35.5 32.15 -36.3 L32.05 -37.25 4.35 -42.1 3.65 -42.25 4.05 -40.35 4.45 -38.4 5.3 -34.8 7.75 -29.65 7.9 -28.45 10.4 -22.9 10.55 -21.75 Q12.05 -19.65 11.7 -17.0 L11.6 -15.4 Q12.55 -14.4 12.6 -13.05 L12.65 -11.85 Q17.4 -9.95 14.3 -6.4 13.65 -5.7 12.65 -5.8 7.0 -6.25 7.4 -11.35 L4.85 -20.7 Q4.1 -23.6 2.95 -26.3 1.8 -28.85 1.05 -31.5 L0.8 -31.85 0.15 -32.65 0.05 -33.05 -0.05 -33.85 -0.1 -34.25 Q-1.9 -37.35 -2.15 -40.85 L-13.95 -34.5 -13.6 -33.75 Q-13.1 -32.8 -13.15 -31.75 -11.9 -29.85 -11.15 -27.75 L-10.5 -25.8 Q-6.5 -17.25 -5.45 -8.0 -5.35 -7.1 -6.25 -6.6 -11.35 -3.85 -13.3 -8.2 -13.85 -9.45 -12.7 -10.3 L-11.2 -11.2 -12.05 -13.6 -12.75 -15.95 -15.65 -23.4 -17.5 -28.6 Q-19.2 -31.1 -19.45 -34.1 L-19.35 -36.9 Q-16.05 -41.2 -10.65 -43.05 -7.85 -44.0 -5.35 -45.45 L-4.25 -46.05 -4.6 -46.35 Q-4.9 -47.35 -4.55 -48.35 L-4.45 -48.55 -6.85 -49.15 Q-8.5 -50.4 -10.9 -51.1 L-11.25 -51.45 Q-14.7 -54.9 -14.7 -59.8 -14.7 -64.7 -11.25 -68.15 -7.8 -71.6 -2.9 -71.6 2.0 -71.6 5.45 -68.15 8.9 -64.7 8.9 -59.8 M56.15 -42.9 L56.5 -43.35 Q55.1 -43.15 52.6 -41.6 49.65 -39.8 46.6 -38.5 L51.85 -37.4 Q54.2 -40.05 56.15 -42.9" fill="#000000" fill-rule="evenodd" stroke="none"/>
  </g>
</svg>
