<?xml version="1.0" encoding="UTF-8" standalone="no"?>
<svg xmlns:ffdec="https://www.free-decompiler.com/flash" xmlns:xlink="http://www.w3.org/1999/xlink" ffdec:objectType="shape" height="102.4px" width="133.15px" xmlns="http://www.w3.org/2000/svg">
  <g transform="matrix(1.0, 0.0, 0.0, 1.0, 37.15, 93.8)">
    <path d="M48.5 -57.4 Q51.75 -57.85 54.6 -56.8 63.1 -53.7 67.9 -45.85 68.3 -45.2 68.95 -45.0 74.15 -43.75 79.25 -45.7 82.3 -40.0 83.8 -33.85 84.0 -33.15 84.55 -33.1 89.95 -32.65 95.05 -33.05 94.7 -29.75 92.45 -27.15 L92.4 -26.75 Q91.75 -24.05 91.9 -21.2 93.75 -18.9 96.0 -17.8 91.35 -15.85 87.15 -13.2 L87.15 -12.8 Q86.85 -10.55 86.0 -8.45 L84.4 -8.55 Q82.2 -10.2 80.25 -8.55 L71.75 -1.45 Q71.05 -0.95 70.3 -1.2 L70.3 -4.35 Q70.3 -5.95 70.7 -7.4 71.75 -10.95 69.0 -12.9 L67.8 -12.25 67.7 -11.85 67.55 -11.05 66.6 -11.2 Q66.45 -15.1 62.55 -16.85 L62.4 -17.25 62.15 -17.65 57.4 -20.3 Q56.35 -20.05 55.7 -19.1 L55.6 -18.7 55.55 -18.3 Q54.75 -17.9 54.5 -17.15 L54.5 -13.95 Q54.6 -7.25 54.35 -0.55 50.65 -1.25 48.7 1.7 47.4 4.8 46.45 8.0 45.05 8.9 43.45 8.4 40.6 7.2 38.55 5.15 L37.45 3.75 Q35.85 1.25 33.3 2.55 28.65 4.9 24.45 5.15 L24.3 4.75 Q23.75 3.65 23.95 2.35 L23.4 1.55 23.4 1.2 23.4 0.8 Q23.0 -0.05 22.1 -0.1 L9.2 -0.55 9.2 -1.2 9.2 -10.3 Q7.35 -11.65 5.4 -12.25 L5.45 -12.65 Q5.55 -15.45 6.05 -18.2 L5.5 -19.0 5.55 -19.35 Q5.65 -20.25 5.1 -20.95 0.6 -25.75 -5.8 -23.45 -7.3 -19.85 -7.9 -15.9 -8.75 -9.95 -11.5 -5.15 L-12.8 -6.6 Q-13.25 -8.1 -14.75 -8.55 L-18.1 -8.4 Q-22.75 -6.35 -27.15 -6.35 L-27.3 -6.75 Q-27.75 -8.1 -27.8 -9.5 L-28.75 -10.7 Q-28.8 -12.45 -30.6 -12.65 L-37.15 -13.3 -36.9 -14.0 Q-33.15 -18.75 -34.15 -24.75 L-36.1 -27.15 Q-33.75 -30.55 -29.8 -32.65 -21.4 -34.65 -24.5 -42.15 L-23.7 -42.95 -22.65 -43.7 Q-17.25 -45.8 -16.6 -50.85 -21.1 -55.0 -26.65 -57.55 L-25.45 -58.1 Q-24.05 -60.2 -21.75 -61.45 -16.65 -64.25 -18.45 -70.35 -21.95 -73.35 -25.85 -75.85 -27.2 -77.3 -29.0 -78.25 -25.6 -80.55 -21.9 -82.2 -19.75 -82.35 -18.2 -83.8 -17.8 -84.15 -17.8 -84.55 -17.8 -89.05 -16.75 -93.25 -14.9 -94.35 -12.95 -93.25 -11.75 -91.65 -9.75 -91.8 -5.55 -89.0 -1.25 -86.55 -0.35 -86.05 0.0 -85.1 1.45 -80.9 5.45 -81.95 L14.75 -84.15 Q15.5 -82.6 16.55 -81.4 L16.55 -81.0 16.55 -80.6 Q18.0 -75.65 21.05 -71.55 21.55 -69.75 23.3 -69.2 26.45 -68.15 28.4 -66.8 L27.65 -65.7 Q23.25 -60.75 24.6 -54.15 L25.75 -53.4 Q26.9 -52.55 28.35 -53.15 34.75 -55.85 40.3 -60.05 43.6 -56.8 48.5 -57.4" fill="#ffff00" fill-opacity="0.5019608" fill-rule="evenodd" stroke="none"/>
  </g>
</svg>
