<?xml version="1.0" encoding="UTF-8" standalone="no"?>
<svg xmlns:ffdec="https://www.free-decompiler.com/flash" xmlns:xlink="http://www.w3.org/1999/xlink" ffdec:objectType="shape" height="73.65px" width="109.25px" xmlns="http://www.w3.org/2000/svg">
  <g transform="matrix(1.0, 0.0, 0.0, 1.0, 23.2, 78.5)">
    <path d="M0.15 -54.8 L0.1 -55.0 -1.3 -54.9 -5.55 -56.05 Q-7.2 -57.3 -9.6 -58.0 L-9.95 -58.35 Q-13.4 -61.8 -13.4 -66.7 -13.4 -71.6 -9.95 -75.05 -6.5 -78.5 -1.6 -78.5 3.3 -78.5 6.75 -75.05 10.2 -71.6 10.2 -66.7 10.2 -61.8 6.75 -58.35 L5.25 -57.05 13.15 -51.15 Q18.8 -46.8 25.3 -44.25 L34.0 -41.75 Q35.05 -42.85 37.3 -42.9 L40.05 -43.15 53.75 -45.3 Q63.9 -45.05 69.55 -36.5 L76.8 -25.55 Q80.5 -27.1 84.8 -26.65 86.05 -26.5 86.05 -25.15 85.95 -21.75 82.0 -21.05 80.0 -20.7 78.35 -19.55 75.25 -17.35 73.35 -20.65 72.25 -22.55 70.75 -24.25 L70.65 -24.65 70.6 -25.05 70.5 -25.45 62.15 -35.85 59.7 -38.1 56.65 -39.9 44.15 -38.2 Q50.3 -35.55 56.15 -32.25 57.0 -31.75 56.6 -30.8 54.8 -25.85 50.1 -22.95 42.35 -18.2 36.1 -11.85 42.45 -12.6 46.1 -8.1 46.45 -7.7 46.1 -7.25 43.3 -3.8 38.1 -5.3 34.4 -6.35 30.5 -6.9 L29.35 -7.3 Q28.2 -7.85 27.55 -8.95 L27.3 -10.55 27.55 -12.15 Q36.95 -21.2 47.7 -28.7 L48.9 -29.5 Q45.3 -32.15 41.1 -33.75 31.15 -36.5 21.6 -40.05 16.9 -41.65 12.8 -44.05 L15.3 -32.15 Q21.25 -27.45 27.95 -24.3 L29.0 -24.1 Q34.45 -24.25 32.55 -19.35 32.05 -18.0 30.55 -18.05 23.85 -18.2 18.45 -22.55 L12.05 -27.7 Q9.3 -29.9 9.0 -33.55 8.55 -40.1 6.35 -46.25 L6.05 -46.6 5.4 -47.4 5.2 -48.0 Q-2.9 -39.05 -8.95 -28.45 -10.25 -25.7 -11.95 -23.0 L-12.65 -22.15 Q-13.75 -16.95 -18.7 -16.65 -23.75 -16.3 -23.15 -21.35 L-23.05 -22.15 Q-21.45 -24.55 -18.8 -23.2 L-18.3 -23.3 -3.3 -47.5 Q-1.3 -50.65 1.65 -53.1 L0.15 -54.8" fill="#000000" fill-rule="evenodd" stroke="none"/>
  </g>
</svg>
