<?xml version="1.0" encoding="UTF-8" standalone="no"?>
<svg xmlns:ffdec="https://www.free-decompiler.com/flash" xmlns:xlink="http://www.w3.org/1999/xlink" ffdec:objectType="shape" height="122.1px" width="99.85px" xmlns="http://www.w3.org/2000/svg">
  <g transform="matrix(1.0, 0.0, 0.0, 1.0, 41.4, 112.1)">
    <path d="M13.95 -112.1 Q15.05 -111.75 15.45 -110.15 16.15 -107.15 17.65 -104.6 L17.65 -104.2 17.65 -103.8 18.25 -103.15 Q21.8 -100.85 26.45 -102.2 25.85 -100.9 25.6 -99.55 L25.25 -98.55 15.65 -83.4 15.25 -82.25 Q14.8 -81.3 15.0 -80.2 16.1 -78.5 18.15 -78.5 18.3 -77.35 18.0 -76.25 L17.1 -72.3 Q16.5 -71.6 16.3 -70.7 15.95 -69.4 16.05 -67.95 13.6 -68.1 13.4 -66.15 17.1 -63.0 20.8 -66.4 22.0 -66.45 23.05 -67.05 L23.35 -67.4 Q29.0 -72.25 34.2 -77.7 L34.9 -75.45 36.7 -69.95 Q36.9 -69.75 37.15 -69.75 L43.05 -70.0 Q48.1 -71.05 52.4 -70.2 L51.7 -67.75 Q50.5 -63.95 47.65 -61.1 L47.1 -59.15 Q46.35 -57.2 45.95 -55.2 L45.55 -54.8 45.5 -53.6 Q45.45 -52.8 45.7 -52.05 51.25 -50.65 55.05 -46.25 L55.0 -45.45 54.9 -44.65 54.55 -44.25 Q53.65 -43.1 52.55 -42.3 L52.45 -41.9 52.4 -41.5 51.95 -41.05 50.8 -39.5 50.85 -38.35 Q50.95 -37.1 51.35 -35.95 L52.0 -35.2 55.55 -30.85 55.55 -30.45 55.55 -30.05 56.45 -29.25 Q57.55 -28.25 57.65 -26.9 L57.5 -26.5 Q57.15 -25.8 56.6 -25.3 L56.55 -24.5 56.5 -24.1 56.1 -23.7 55.7 -23.3 Q55.6 -22.2 55.1 -21.25 54.25 -19.5 54.5 -17.4 L54.85 -16.95 55.05 -16.6 Q55.05 -15.6 55.55 -14.65 56.45 -12.95 56.6 -11.05 L57.2 -10.25 58.45 -7.9 Q57.45 -7.65 56.75 -7.0 L56.65 -6.6 56.6 -6.2 55.9 -5.3 Q55.15 -3.85 54.0 -2.65 L53.95 2.1 54.0 10.0 50.15 9.6 49.95 9.25 48.85 8.0 48.65 7.25 48.3 6.45 Q41.15 2.55 33.45 6.95 L33.45 3.8 33.45 -1.35 Q32.5 -2.9 30.7 -2.35 23.6 0.05 16.55 2.75 L16.45 1.6 Q16.25 0.5 15.5 -0.4 L15.55 -1.2 Q15.75 -2.5 14.85 -3.3 10.75 -7.05 4.45 -7.4 L4.75 -8.65 5.35 -10.8 Q6.75 -15.0 5.0 -18.45 L5.0 -18.85 5.0 -19.25 Q-2.05 -24.95 -10.9 -20.3 -15.15 -18.05 -19.0 -18.6 L-19.45 -20.15 -19.8 -22.95 Q-25.55 -26.55 -32.95 -24.0 L-33.0 -24.75 -32.8 -25.95 Q-31.2 -27.6 -30.9 -29.85 -30.2 -35.05 -34.55 -36.35 -37.3 -38.4 -40.85 -39.0 -39.45 -39.0 -38.2 -39.5 L-37.95 -39.8 -37.7 -40.2 -36.9 -40.5 Q-36.15 -40.85 -35.7 -41.65 -35.5 -43.4 -35.95 -45.1 -37.55 -50.95 -41.4 -55.85 -35.55 -55.15 -30.05 -56.7 L-29.4 -57.2 Q-26.05 -63.25 -28.75 -70.1 -25.35 -70.6 -23.05 -72.7 -22.4 -74.4 -22.45 -76.25 -22.6 -80.3 -24.4 -83.75 L-24.65 -84.5 -26.1 -86.95 Q-22.45 -86.8 -19.1 -88.1 -17.7 -90.3 -17.45 -92.85 L-16.35 -104.2 Q-12.65 -101.35 -9.5 -98.0 -5.6 -93.9 -1.7 -97.8 5.65 -105.15 13.95 -112.1" fill="#ffff00" fill-opacity="0.5019608" fill-rule="evenodd" stroke="none"/>
  </g>
</svg>
