<?xml version="1.0" encoding="UTF-8" standalone="no"?>
<svg xmlns:ffdec="https://www.free-decompiler.com/flash" xmlns:xlink="http://www.w3.org/1999/xlink" ffdec:objectType="shape" height="87.05px" width="71.9px" xmlns="http://www.w3.org/2000/svg">
  <g transform="matrix(1.0, 0.0, 0.0, 1.0, 26.4, 90.7)">
    <path d="M9.4 -87.25 Q12.85 -83.8 12.85 -78.9 12.85 -74.0 9.4 -70.55 6.05 -67.2 1.35 -67.1 2.5 -63.95 3.8 -60.95 5.6 -56.9 7.0 -52.55 8.95 -48.7 12.05 -46.3 L16.75 -47.3 Q21.7 -49.85 26.25 -53.1 24.85 -59.6 31.6 -58.9 32.65 -58.8 32.8 -57.65 33.35 -52.1 30.25 -48.6 L40.05 -49.55 Q45.3 -49.0 42.65 -44.7 L41.8 -43.6 37.4 -39.1 42.55 -37.5 Q42.95 -37.35 42.95 -36.75 42.75 -29.8 38.45 -24.1 38.5 -22.8 37.85 -21.65 L36.9 -20.55 34.65 -14.25 Q34.3 -13.45 34.25 -12.65 L44.2 -8.4 Q45.75 -7.75 45.45 -6.15 44.8 -2.9 41.45 -3.85 34.9 -5.7 29.3 -9.15 28.2 -9.8 28.4 -11.2 29.2 -16.6 31.5 -21.5 31.6 -22.6 32.1 -23.55 L33.05 -24.65 Q33.6 -27.15 35.0 -29.5 L35.45 -30.55 36.1 -31.35 36.75 -32.15 36.8 -32.95 37.0 -34.0 33.05 -34.7 20.3 -22.4 Q21.45 -21.7 22.4 -20.8 L23.2 -20.05 Q29.0 -17.7 24.8 -14.0 24.2 -13.45 23.25 -13.85 21.3 -14.8 19.45 -15.85 15.1 -18.25 13.8 -22.55 13.65 -23.15 13.85 -23.7 L26.35 -35.95 Q19.1 -37.45 11.85 -39.3 7.35 -38.2 2.55 -38.65 1.55 -38.75 1.2 -39.8 -1.55 -47.7 -2.9 -55.9 -3.2 -58.0 -2.55 -59.7 -11.75 -52.95 -20.4 -45.7 -19.9 -45.0 -19.0 -44.85 -18.1 -44.7 -17.65 -43.85 -11.15 -39.45 -3.4 -38.75 1.35 -40.8 1.6 -35.7 1.7 -33.45 -0.5 -33.4 -12.2 -33.05 -21.6 -40.05 -27.45 -41.65 -26.2 -46.95 -25.65 -49.1 -23.8 -50.5 L-16.85 -55.35 Q-11.3 -61.2 -4.5 -65.2 -5.7 -67.5 -6.1 -69.95 L-6.95 -70.2 -7.3 -70.55 Q-10.75 -74.0 -10.75 -78.9 -10.75 -83.8 -7.3 -87.25 -3.85 -90.7 1.05 -90.7 5.95 -90.7 9.4 -87.25 M33.15 -42.75 L33.35 -43.1 Q29.35 -43.35 24.0 -42.15 L31.15 -40.7 33.15 -42.75 M4.3 -46.85 L4.25 -46.9 4.3 -46.85 M5.15 -44.55 Q5.1 -43.85 5.55 -43.45 L7.1 -43.45 4.85 -46.15 Q5.2 -45.45 5.15 -44.55" fill="#000000" fill-rule="evenodd" stroke="none"/>
  </g>
</svg>
