<?xml version="1.0" encoding="UTF-8" standalone="no"?>
<svg xmlns:ffdec="https://www.free-decompiler.com/flash" xmlns:xlink="http://www.w3.org/1999/xlink" ffdec:objectType="shape" height="34.0px" width="29.0px" xmlns="http://www.w3.org/2000/svg">
  <g transform="matrix(1.0, 0.0, 0.0, 1.0, 14.5, 17.0)">
    <path d="M1.5 -15.0 Q1.55 -2.55 4.25 9.3 7.5 5.45 11.95 3.15 L12.0 3.0 Q13.75 3.4 14.4 5.05 L14.5 5.75 Q11.1 12.45 5.45 14.2 L5.5 15.0 4.15 16.35 3.0 17.0 0.75 15.75 0.65 14.75 0.55 14.75 Q-1.3 14.7 -3.0 13.65 -8.8 9.9 -14.5 7.0 -11.8 1.25 -5.0 6.0 L-1.5 8.2 Q-3.45 -2.35 -3.5 -13.5 L-3.5 -15.0 -3.15 -15.7 -2.5 -16.5 -1.05 -16.85 -1.0 -17.0 0.95 -15.65 1.5 -15.0" fill="#000000" fill-rule="evenodd" stroke="none"/>
  </g>
</svg>
