<?xml version="1.0" encoding="UTF-8" standalone="no"?>
<svg xmlns:ffdec="https://www.free-decompiler.com/flash" xmlns:xlink="http://www.w3.org/1999/xlink" ffdec:objectType="shape" height="139.2px" width="107.85px" xmlns="http://www.w3.org/2000/svg">
  <g transform="matrix(1.0, 0.0, 0.0, 1.0, 44.15, 131.7)">
    <path d="M6.8 -125.3 L8.7 -125.15 Q13.4 -127.2 16.3 -131.7 19.75 -125.05 23.75 -117.85 L24.7 -116.1 Q27.2 -110.8 31.85 -109.05 L31.6 -105.95 Q31.0 -102.05 32.0 -98.4 33.0 -97.6 34.2 -97.2 38.55 -97.85 40.95 -101.15 L45.0 -103.55 45.1 -102.35 Q45.35 -99.75 43.45 -98.0 L43.45 -97.2 Q43.45 -95.1 41.85 -93.65 L41.85 -92.05 Q41.75 -89.65 42.0 -87.35 45.7 -83.7 50.3 -81.4 50.15 -80.7 49.35 -80.2 L49.25 -79.8 49.1 -79.05 Q43.25 -74.1 37.1 -69.55 L37.1 -68.75 Q37.05 -67.75 37.25 -66.8 39.35 -65.6 41.75 -64.95 42.5 -63.95 43.85 -63.9 L44.25 -63.5 Q45.15 -62.85 45.4 -61.9 L41.35 -57.95 41.35 -57.55 41.35 -56.4 Q43.5 -54.2 46.6 -53.35 L46.75 -53.1 Q47.3 -52.45 48.2 -52.3 L48.2 -51.25 48.2 -48.5 Q49.7 -47.0 51.75 -46.5 57.6 -44.45 62.4 -40.95 L62.4 -40.6 Q62.5 -39.95 62.25 -39.4 L61.9 -39.0 61.85 -38.6 61.75 -37.8 55.55 -32.65 55.55 -31.9 55.55 -30.7 Q56.25 -29.55 57.5 -29.0 62.5 -26.85 63.7 -21.85 59.5 -20.1 56.1 -17.25 L56.1 -16.85 56.1 -16.45 55.8 -16.1 55.55 -15.7 55.55 -13.3 55.55 -7.4 Q51.95 -5.95 47.9 -6.55 43.45 -7.2 40.8 -4.5 L40.85 -3.3 40.65 -1.45 Q31.1 -3.2 27.0 5.8 L25.9 5.8 Q23.1 4.0 20.65 1.7 18.9 0.05 16.5 1.15 12.75 2.95 10.4 6.6 9.45 7.4 8.55 7.5 L7.6 6.3 7.6 5.5 7.6 3.95 6.95 3.55 -7.95 4.05 -6.7 2.2 Q-3.95 -2.7 0.25 -6.6 L0.35 -7.35 Q0.9 -8.85 0.3 -10.35 -2.0 -16.4 -8.2 -19.65 -2.3 -20.95 2.2 -24.25 L2.3 -25.05 2.35 -26.6 Q0.25 -29.3 -2.9 -30.55 0.15 -32.5 1.8 -35.7 -1.2 -38.65 -6.0 -40.15 L-7.9 -40.4 -18.85 -39.65 -19.25 -40.05 Q-19.65 -42.2 -19.7 -44.4 L-19.8 -51.9 Q-20.1 -52.3 -20.45 -52.3 -25.35 -52.7 -30.3 -52.15 L-30.55 -52.45 -30.85 -52.8 -30.85 -57.15 -30.85 -65.05 Q-31.25 -65.9 -32.15 -65.9 L-44.15 -66.25 -43.3 -67.4 Q-36.5 -76.2 -25.95 -80.2 L-25.55 -81.0 Q-24.7 -82.3 -25.2 -83.75 -26.95 -85.25 -27.7 -86.95 L-26.1 -87.45 -25.85 -87.75 -25.45 -88.5 -22.25 -90.0 Q-18.05 -92.1 -19.8 -96.7 -16.6 -95.35 -13.7 -93.5 L-12.8 -93.9 Q-12.35 -94.4 -12.3 -95.1 -12.1 -97.3 -13.45 -99.05 L-13.5 -99.85 Q-13.55 -101.7 -15.05 -103.0 L-15.05 -103.8 -15.05 -105.0 -9.0 -105.7 Q-8.05 -105.85 -7.65 -106.7 L-7.65 -107.1 -7.65 -107.5 -7.4 -107.9 -7.15 -108.25 -7.2 -109.05 Q-7.45 -110.1 -8.05 -111.05 L-11.75 -114.2 Q-13.75 -115.7 -14.5 -117.75 L-4.5 -122.5 -4.55 -124.05 Q-4.75 -126.15 -4.1 -128.05 1.8 -128.25 6.8 -125.3" fill="#ffff00" fill-opacity="0.5019608" fill-rule="evenodd" stroke="none"/>
  </g>
</svg>
