<?xml version="1.0" encoding="UTF-8" standalone="no"?>
<svg xmlns:ffdec="https://www.free-decompiler.com/flash" xmlns:xlink="http://www.w3.org/1999/xlink" ffdec:objectType="shape" height="109.6px" width="72.2px" xmlns="http://www.w3.org/2000/svg">
  <g transform="matrix(1.0, 0.0, 0.0, 1.0, 23.85, 115.15)">
    <path d="M15.7 -111.7 Q19.15 -108.25 19.15 -103.35 19.15 -98.45 15.7 -95.0 12.35 -91.65 7.65 -91.55 L3.4 -92.7 2.95 -93.0 2.75 -88.65 Q5.2 -87.0 7.0 -84.3 L9.15 -81.3 9.5 -80.1 Q13.85 -74.95 18.35 -70.2 L18.6 -69.95 19.65 -70.45 20.45 -70.85 23.2 -74.8 23.6 -75.2 23.7 -75.6 23.75 -76.0 23.85 -76.4 24.55 -77.15 25.3 -78.0 25.45 -78.75 Q25.6 -79.5 26.25 -79.95 23.65 -81.6 24.1 -84.7 L24.4 -85.9 Q29.1 -89.9 31.2 -84.65 31.6 -83.65 31.65 -82.45 31.9 -75.3 26.7 -70.0 L25.0 -68.0 Q21.05 -62.65 16.0 -65.2 14.1 -66.15 12.85 -67.65 L3.75 -78.35 3.7 -78.4 Q5.6 -67.95 11.2 -58.55 L15.75 -51.0 15.8 -51.05 15.8 -51.1 30.2 -48.5 41.05 -46.8 Q42.15 -46.65 42.25 -45.55 42.5 -41.7 40.4 -38.25 36.3 -31.55 34.6 -23.9 L34.25 -23.05 34.25 -22.65 34.2 -21.9 33.75 -20.7 45.8 -19.65 Q49.25 -19.25 48.05 -16.25 47.5 -14.85 45.85 -14.85 L28.35 -15.4 Q27.6 -15.45 27.25 -16.25 26.65 -17.55 27.0 -19.0 L27.3 -19.35 27.65 -19.8 27.95 -20.15 Q27.85 -20.8 28.05 -21.35 L28.7 -23.35 29.1 -25.3 29.4 -25.7 29.75 -26.1 30.05 -26.5 Q29.95 -28.15 30.45 -29.7 L31.25 -32.0 31.35 -32.4 Q31.55 -33.95 32.55 -35.15 32.55 -36.55 33.35 -37.55 34.2 -38.6 34.5 -39.9 L34.75 -40.7 34.95 -41.1 35.2 -41.5 Q26.8 -42.7 18.0 -45.7 L18.45 -45.0 26.9 -32.4 Q27.75 -31.2 27.3 -29.8 25.45 -24.35 21.15 -20.25 16.5 -15.8 12.25 -10.95 16.3 -11.6 19.95 -9.55 21.4 -8.7 20.9 -7.15 20.55 -6.05 19.45 -5.95 13.2 -5.4 6.9 -5.65 3.8 -5.8 4.5 -8.65 L4.9 -11.05 Q13.0 -19.55 20.45 -28.45 L20.85 -30.0 21.2 -31.6 Q14.45 -39.45 9.85 -48.4 9.4 -49.35 10.05 -50.05 L8.6 -51.65 8.5 -52.05 8.4 -52.4 8.3 -52.8 Q5.05 -56.7 3.7 -61.5 2.75 -62.55 2.25 -63.9 L2.1 -65.05 Q-2.15 -74.55 -2.95 -84.9 -6.9 -81.45 -11.3 -78.9 L-18.15 -73.35 Q-14.15 -66.45 -7.95 -61.2 L-5.8 -59.65 Q-1.55 -63.15 0.15 -58.35 0.95 -56.1 -1.0 -54.85 -4.25 -52.8 -7.85 -54.8 -16.4 -59.6 -21.95 -67.75 -24.0 -70.75 -23.85 -74.25 -23.7 -76.45 -21.75 -77.9 L-3.1 -91.35 -2.95 -94.75 -2.75 -97.2 Q-4.45 -99.9 -4.45 -103.35 -4.45 -108.25 -1.0 -111.7 2.45 -115.15 7.35 -115.15 12.25 -115.15 15.7 -111.7" fill="#000000" fill-rule="evenodd" stroke="none"/>
  </g>
</svg>
