<?xml version="1.0" encoding="UTF-8" standalone="no"?>
<svg xmlns:ffdec="https://www.free-decompiler.com/flash" xmlns:xlink="http://www.w3.org/1999/xlink" ffdec:objectType="shape" height="162.15px" width="84.3px" xmlns="http://www.w3.org/2000/svg">
  <g transform="matrix(1.0, 0.0, 0.0, 1.0, 32.45, 144.5)">
    <path d="M24.75 -143.45 L25.55 -143.3 25.9 -142.5 Q27.85 -137.65 27.65 -132.25 L28.15 -131.45 Q28.05 -130.45 28.3 -129.45 L28.85 -128.6 Q29.25 -127.45 30.55 -127.4 36.25 -127.25 39.35 -125.5 L32.9 -118.0 Q30.55 -116.15 28.7 -113.65 28.8 -112.85 28.55 -112.1 27.95 -111.65 28.15 -110.9 28.4 -109.95 29.3 -110.3 34.95 -112.8 41.35 -114.2 L46.85 -114.7 Q42.35 -110.85 42.5 -105.25 L46.05 -103.4 Q46.95 -102.45 48.2 -102.1 L50.3 -99.3 Q49.35 -97.45 47.35 -96.95 40.4 -95.25 35.0 -91.15 34.9 -89.75 35.15 -88.4 37.05 -85.7 40.0 -84.05 40.45 -83.3 40.55 -82.45 L39.7 -81.6 29.2 -76.15 29.2 -75.75 29.2 -73.75 Q31.25 -71.25 34.2 -69.4 34.65 -68.9 34.5 -68.25 30.85 -66.4 28.15 -63.5 L28.15 -63.1 28.15 -62.3 Q32.9 -58.8 38.55 -56.5 42.0 -55.5 44.35 -52.7 44.7 -51.3 44.35 -49.95 40.55 -46.25 40.3 -41.25 44.8 -36.75 51.2 -35.3 51.95 -34.4 51.85 -33.75 47.9 -32.75 45.0 -30.05 44.5 -28.5 44.5 -26.9 L45.55 -25.3 Q45.45 -22.8 46.6 -20.55 L35.55 -20.1 Q33.95 -20.05 32.9 -19.0 L32.9 -18.6 32.9 -17.4 Q35.55 -15.45 36.6 -12.65 37.4 -12.2 37.5 -11.45 35.2 -10.05 32.65 -9.05 26.75 -6.8 29.2 -0.55 L29.75 0.25 29.75 0.65 29.75 2.6 Q26.2 2.8 22.85 3.75 20.9 4.25 20.15 6.15 17.5 13.0 12.9 17.65 12.45 16.25 11.3 15.25 11.2 12.95 10.35 10.8 9.75 9.25 8.25 8.55 3.4 6.2 -2.4 7.65 L-2.4 7.25 Q-2.95 2.7 -3.95 -1.85 -9.65 -4.95 -15.95 -3.85 -15.7 -5.95 -14.6 -7.65 -11.1 -12.95 -8.9 -18.7 -5.95 -26.45 -13.45 -30.05 L-13.45 -30.45 -13.45 -31.6 Q-7.1 -35.7 -2.0 -41.1 -1.75 -42.25 -1.85 -43.45 -3.2 -44.9 -5.1 -45.6 -9.15 -47.15 -12.95 -46.75 -13.05 -49.6 -12.15 -52.2 -10.6 -56.7 -13.7 -59.3 -18.35 -57.65 -21.9 -54.25 -23.65 -53.65 -25.05 -53.75 L-25.55 -54.55 -25.65 -56.9 Q-26.15 -63.6 -32.4 -63.75 -32.6 -66.2 -31.45 -68.35 -28.3 -74.5 -28.75 -81.4 L-31.9 -83.5 Q-28.15 -88.3 -22.45 -90.95 -17.9 -93.1 -18.2 -97.75 -19.75 -98.85 -20.7 -100.25 -16.45 -104.15 -10.8 -105.9 L-8.7 -109.3 Q-9.5 -113.1 -13.45 -113.8 L-17.15 -116.05 Q-14.65 -119.65 -11.6 -122.75 -9.9 -123.65 -8.7 -125.15 -8.55 -127.55 -9.0 -129.85 L-10.45 -131.05 Q-10.55 -131.7 -10.95 -132.25 -9.6 -132.4 -8.6 -133.3 L-4.8 -133.9 Q-3.2 -134.25 -2.9 -135.75 -2.1 -139.8 -2.4 -144.35 L0.9 -144.5 Q8.15 -141.55 15.25 -137.8 L16.25 -137.6 Q21.65 -138.7 24.75 -143.45" fill="#ffff00" fill-opacity="0.5019608" fill-rule="evenodd" stroke="none"/>
  </g>
</svg>
