<?xml version="1.0" encoding="UTF-8" standalone="no"?>
<svg xmlns:ffdec="https://www.free-decompiler.com/flash" xmlns:xlink="http://www.w3.org/1999/xlink" ffdec:objectType="shape" height="124.15px" width="55.05px" xmlns="http://www.w3.org/2000/svg">
  <g transform="matrix(1.0, 0.0, 0.0, 1.0, 18.9, 127.7)">
    <path d="M19.9 -124.25 Q23.35 -120.8 23.35 -115.9 23.35 -111.0 19.9 -107.55 16.55 -104.2 11.85 -104.1 L7.6 -105.25 5.25 -106.6 5.2 -100.95 Q6.15 -99.95 5.25 -98.4 L5.3 -96.2 Q6.9 -95.5 8.2 -92.95 L9.9 -90.0 Q12.85 -85.5 16.85 -81.65 20.25 -83.2 22.3 -86.85 L26.1 -92.85 Q22.45 -97.95 27.75 -100.9 L28.45 -101.15 Q34.6 -99.9 32.85 -93.75 32.35 -92.0 31.1 -90.6 26.6 -81.65 18.2 -75.95 16.8 -75.0 15.4 -75.95 12.85 -77.7 10.8 -80.05 L5.7 -86.25 6.25 -79.2 6.4 -76.25 9.05 -75.35 Q11.7 -74.15 10.75 -71.1 10.1 -68.9 8.4 -67.9 L9.85 -62.95 10.05 -62.15 Q12.0 -58.9 13.3 -55.45 16.25 -53.8 18.65 -51.05 L18.85 -50.7 Q28.3 -42.75 35.9 -33.1 36.5 -32.35 35.75 -31.6 32.2 -28.2 27.15 -26.95 L17.9 -24.85 13.95 -18.6 Q15.95 -15.95 15.75 -12.8 15.7 -11.6 14.5 -11.55 12.25 -11.5 10.65 -12.75 L9.65 -10.95 Q16.7 -11.1 22.1 -7.25 22.95 -6.6 22.3 -5.7 20.0 -2.35 15.55 -4.2 12.45 -5.5 8.95 -5.55 2.1 -5.65 3.9 -11.7 5.0 -15.3 7.25 -18.3 L7.35 -18.7 7.4 -18.85 Q4.8 -22.1 3.65 -25.7 3.05 -27.6 5.1 -27.9 L14.7 -29.6 14.75 -29.8 14.8 -30.15 14.9 -30.55 15.2 -30.95 15.55 -31.35 Q15.1 -37.45 12.3 -43.25 L11.2 -44.8 9.35 -50.6 Q8.55 -51.4 8.0 -52.7 L7.5 -53.2 Q7.25 -54.0 7.45 -54.8 L7.4 -55.25 7.1 -55.95 7.0 -56.3 6.05 -58.0 Q5.8 -58.55 5.7 -59.15 3.85 -62.95 2.8 -67.05 -5.2 -67.15 -12.1 -70.6 -19.55 -73.2 -18.85 -80.3 -18.7 -81.5 -17.95 -82.45 -9.9 -92.6 -0.05 -100.8 L0.45 -111.8 Q-0.25 -113.7 -0.25 -115.9 -0.25 -120.8 3.2 -124.25 6.65 -127.7 11.55 -127.7 16.45 -127.7 19.9 -124.25 M29.4 -33.85 L18.35 -43.65 Q20.2 -37.55 20.65 -31.1 25.1 -32.3 29.4 -33.85 M-12.95 -79.35 L-13.7 -78.5 Q-7.25 -72.75 1.5 -72.45 -0.15 -78.75 -0.25 -85.6 L-0.2 -93.85 Q-7.15 -87.15 -12.95 -79.35" fill="#000000" fill-rule="evenodd" stroke="none"/>
  </g>
</svg>
