<?xml version="1.0" encoding="UTF-8" standalone="no"?>
<svg xmlns:ffdec="https://www.free-decompiler.com/flash" xmlns:xlink="http://www.w3.org/1999/xlink" ffdec:objectType="shape" height="166.8px" width="94.8px" xmlns="http://www.w3.org/2000/svg">
  <g transform="matrix(1.0, 0.0, 0.0, 1.0, 34.65, 144.95)">
    <path d="M20.5 -143.95 Q21.05 -142.6 22.5 -142.0 23.15 -140.75 23.95 -139.6 L23.95 -139.2 23.95 -138.05 24.3 -137.6 Q25.9 -135.2 26.2 -132.1 27.75 -130.7 29.2 -132.25 32.85 -133.95 36.05 -133.55 L35.9 -133.2 Q34.3 -130.9 34.5 -128.05 L33.45 -126.45 33.05 -123.65 Q31.9 -118.85 33.05 -114.2 34.25 -113.0 35.65 -113.95 39.25 -118.3 43.85 -120.4 L44.45 -119.2 Q46.5 -111.35 51.8 -105.3 L52.4 -104.8 60.15 -100.9 60.0 -100.5 59.4 -99.3 Q53.5 -95.5 48.2 -91.4 L48.15 -91.0 Q48.1 -90.2 48.3 -89.45 L52.55 -83.9 Q49.4 -81.55 45.35 -80.9 36.65 -79.5 37.0 -71.15 29.9 -71.7 22.9 -71.3 22.65 -71.25 22.35 -70.85 L22.35 -70.5 Q22.0 -68.05 23.4 -66.15 L23.45 -65.75 23.8 -62.15 Q21.75 -59.8 19.2 -57.95 L19.2 -57.55 19.2 -56.0 Q21.2 -54.05 23.55 -52.45 28.95 -47.8 33.8 -42.55 31.6 -40.7 29.2 -39.0 L29.2 -38.6 29.2 -37.0 Q34.1 -32.4 38.15 -27.15 L38.15 -26.75 38.15 -25.95 39.1 -24.75 39.2 -24.35 39.2 -23.6 Q34.8 -21.0 31.3 -17.65 L31.3 -17.25 Q31.25 -16.45 31.45 -15.7 32.6 -14.85 33.95 -14.35 36.75 -12.5 38.7 -9.75 36.65 -7.8 35.0 -5.65 L35.05 -5.3 Q35.2 -3.85 35.65 -2.5 L36.05 -2.1 43.45 6.95 43.4 7.35 Q43.35 8.0 43.55 8.55 44.7 9.35 45.0 10.55 36.85 10.45 28.95 12.55 27.8 12.85 27.55 13.9 L25.8 21.85 Q20.75 19.3 16.05 16.05 12.65 13.75 9.45 16.35 6.6 18.65 3.95 18.15 2.75 15.0 0.75 12.25 1.0 10.55 0.4 9.05 -0.35 7.1 -2.5 8.0 -8.35 10.5 -14.1 9.1 -14.6 8.35 -14.7 7.55 -15.35 3.5 -15.05 -0.8 -19.3 -3.0 -24.4 -1.2 -27.25 -0.2 -29.25 -0.8 -28.45 -1.9 -27.95 -3.15 L-26.9 -3.95 -26.75 -4.35 -26.5 -5.15 Q-25.7 -5.6 -25.2 -6.35 L-25.1 -6.75 -25.05 -7.1 Q-24.05 -7.75 -23.45 -8.7 L-23.4 -9.5 Q-23.1 -11.45 -22.95 -13.45 -28.45 -16.7 -34.65 -18.3 -27.3 -21.05 -20.15 -24.4 L-19.9 -24.75 Q-19.2 -25.85 -19.25 -27.15 -20.4 -29.35 -22.0 -31.1 L-11.1 -32.1 Q-9.95 -32.1 -9.35 -33.2 -9.15 -34.35 -9.1 -35.55 -9.0 -40.5 -11.75 -44.65 L-12.95 -45.45 -12.95 -45.85 Q-13.05 -46.5 -13.45 -47.05 -9.85 -49.75 -6.6 -52.95 L-6.6 -53.35 Q-6.5 -54.35 -6.75 -55.35 L-7.45 -56.05 Q-10.2 -58.15 -12.65 -57.85 L-12.5 -58.6 Q-12.4 -61.25 -11.9 -63.75 L-11.35 -64.55 -11.35 -64.95 -11.35 -66.15 Q-11.95 -67.25 -13.1 -66.95 -19.45 -65.1 -25.55 -63.75 L-25.55 -65.6 -25.55 -73.5 Q-25.9 -73.9 -26.3 -73.95 -29.5 -74.55 -30.7 -75.2 -27.7 -80.55 -23.05 -84.3 L-22.95 -84.7 -22.8 -85.5 -21.9 -86.65 -21.9 -87.45 -21.9 -91.4 -27.15 -96.95 -26.3 -97.55 Q-21.3 -99.75 -16.75 -102.75 L-16.65 -103.55 -16.6 -107.5 -3.2 -107.35 -2.85 -107.65 -2.4 -108.4 Q-2.5 -109.35 -3.3 -110.0 L-3.45 -110.4 -3.6 -111.15 Q-5.4 -112.75 -5.8 -115.1 L-6.6 -115.9 -6.5 -117.1 Q-5.75 -121.85 -8.2 -125.4 L-8.2 -125.8 Q-8.1 -127.25 -8.7 -128.55 L2.1 -129.85 2.2 -130.25 Q2.55 -131.25 2.2 -132.25 L2.0 -132.65 Q1.05 -134.75 0.25 -137.0 L6.65 -136.05 Q11.6 -134.75 14.35 -138.55 L14.45 -138.95 Q15.6 -142.0 17.25 -144.9 19.15 -145.25 20.5 -143.95" fill="#ffff00" fill-opacity="0.5019608" fill-rule="evenodd" stroke="none"/>
  </g>
</svg>
