<?xml version="1.0" encoding="UTF-8" standalone="no"?>
<svg xmlns:ffdec="https://www.free-decompiler.com/flash" xmlns:xlink="http://www.w3.org/1999/xlink" ffdec:objectType="shape" height="131.15px" width="58.45px" xmlns="http://www.w3.org/2000/svg">
  <g transform="matrix(1.0, 0.0, 0.0, 1.0, 16.9, 128.3)">
    <path d="M12.65 -128.3 Q17.55 -128.3 21.0 -124.85 24.45 -121.4 24.45 -116.5 24.45 -111.6 21.0 -108.15 17.65 -104.8 13.0 -104.7 L12.65 -104.05 12.5 -103.7 Q15.2 -102.3 16.3 -98.9 L16.35 -98.5 19.55 -92.25 20.05 -90.6 22.4 -87.15 22.65 -85.9 23.9 -84.45 24.5 -83.1 Q26.9 -84.0 29.0 -86.0 30.3 -88.0 32.15 -89.6 L32.55 -89.95 34.2 -94.35 34.9 -95.9 Q34.1 -97.3 34.15 -99.05 L34.4 -100.65 Q38.3 -104.35 40.75 -99.8 42.45 -96.65 40.6 -93.4 L37.65 -88.15 Q32.75 -79.55 23.55 -76.45 22.85 -76.2 22.05 -76.65 20.7 -77.4 20.55 -78.9 L18.85 -81.0 Q18.45 -81.45 18.45 -82.05 L18.15 -82.45 17.8 -82.85 17.55 -83.25 Q14.6 -90.2 11.0 -96.9 L8.85 -87.4 Q10.6 -85.25 9.4 -81.55 9.0 -80.5 9.0 -79.3 L10.8 -79.3 Q16.1 -82.95 17.55 -77.5 18.0 -75.65 16.4 -74.6 15.6 -74.1 14.75 -74.0 L9.1 -73.7 Q9.1 -65.95 8.55 -58.3 10.0 -56.6 10.2 -54.2 12.9 -51.45 14.55 -47.6 17.0 -41.75 20.05 -36.35 25.0 -29.65 20.6 -22.05 L18.05 -17.0 15.0 -5.85 14.25 -2.8 23.15 -1.75 Q26.85 -1.15 25.05 1.95 24.8 2.5 24.2 2.55 17.95 3.0 11.6 2.75 8.7 2.65 8.85 -0.3 9.5 -10.85 13.6 -20.4 L16.5 -27.45 17.4 -29.9 17.15 -30.3 16.9 -31.1 16.85 -31.5 14.2 -35.85 Q15.05 -31.75 14.7 -27.8 14.65 -26.95 13.7 -26.65 1.05 -22.9 -9.2 -14.35 -8.95 -13.45 -8.05 -12.75 L-7.35 -12.15 Q-1.6 -9.85 -1.7 -4.35 -1.7 -3.2 -2.9 -3.1 -5.6 -2.9 -7.6 -5.05 -11.4 -9.0 -16.05 -12.05 -17.05 -12.65 -16.85 -13.95 L-16.7 -14.75 Q-5.7 -25.85 8.95 -31.2 L4.85 -51.3 Q3.95 -51.75 3.6 -52.75 2.75 -53.55 2.65 -54.8 2.55 -55.6 2.8 -56.4 L3.45 -57.1 3.4 -70.6 3.35 -73.9 Q-5.35 -74.55 -13.55 -77.35 -14.0 -77.5 -14.3 -78.15 -15.6 -81.15 -13.3 -83.65 L-13.2 -84.05 -13.1 -84.45 -13.0 -84.85 Q-4.3 -94.8 6.35 -102.9 L6.6 -104.75 7.1 -106.85 4.65 -107.8 4.3 -108.15 Q0.85 -111.6 0.85 -116.5 0.85 -121.4 4.3 -124.85 7.75 -128.3 12.65 -128.3 M4.7 -94.35 Q-2.6 -88.35 -8.3 -80.9 L3.65 -79.55 4.0 -82.15 Q2.75 -83.2 3.25 -85.75 L4.9 -94.5 4.7 -94.35" fill="#000000" fill-rule="evenodd" stroke="none"/>
  </g>
</svg>
