<?xml version="1.0" encoding="UTF-8" standalone="no"?>
<svg xmlns:ffdec="https://www.free-decompiler.com/flash" xmlns:xlink="http://www.w3.org/1999/xlink" ffdec:objectType="shape" height="127.5px" width="57.35px" xmlns="http://www.w3.org/2000/svg">
  <g transform="matrix(1.0, 0.0, 0.0, 1.0, 20.05, 126.35)">
    <path d="M6.05 -122.9 Q9.5 -126.35 14.4 -126.35 19.3 -126.35 22.75 -122.9 26.2 -119.45 26.2 -114.55 26.2 -109.65 22.75 -106.2 20.1 -103.55 16.6 -102.9 L15.8 -103.15 Q12.25 -102.15 9.5 -103.5 L9.05 -101.85 8.95 -100.1 Q8.6 -98.0 8.75 -95.85 9.35 -87.9 10.65 -80.05 L10.65 -80.0 17.8 -81.0 19.75 -81.55 Q24.7 -83.65 29.25 -86.05 29.2 -88.6 30.1 -90.8 30.7 -92.35 32.25 -92.4 37.45 -92.5 37.3 -87.5 37.15 -82.85 32.5 -80.7 25.9 -77.7 19.15 -75.3 L14.85 -74.1 Q10.6 -73.2 6.5 -74.15 5.3 -74.45 5.1 -75.6 L5.1 -75.85 4.75 -76.4 Q4.45 -71.9 4.5 -67.35 5.0 -66.15 4.65 -64.8 L4.55 -64.35 4.65 -61.1 4.65 -60.3 11.4 -57.2 17.35 -54.4 Q22.8 -51.8 27.85 -48.55 29.1 -47.75 29.75 -46.5 L30.0 -46.0 30.4 -44.5 30.05 -43.3 29.55 -42.35 Q26.95 -38.2 22.6 -35.65 L18.0 -32.3 12.0 -27.45 14.7 -25.2 16.45 -23.65 Q19.0 -21.5 16.55 -19.15 15.05 -17.65 13.15 -18.7 8.65 -21.1 6.15 -25.1 L5.45 -25.7 5.0 -24.95 2.1 -20.45 Q-0.75 -15.85 -2.4 -10.75 -3.6 -7.15 -5.75 -4.3 L0.9 -4.05 Q2.55 -3.95 2.95 -2.4 3.7 0.75 0.35 0.9 -5.6 1.25 -11.6 1.05 -12.0 1.25 -12.45 1.05 L-12.55 1.05 -12.9 1.0 Q-14.3 0.9 -14.75 -0.45 -15.55 -2.95 -13.75 -3.9 L-12.7 -5.35 Q-8.95 -9.6 -6.9 -15.0 -5.25 -19.4 -3.05 -23.5 L0.25 -28.95 0.15 -30.65 -0.2 -53.1 -0.2 -55.4 -0.05 -56.35 Q-1.95 -57.75 -1.65 -60.45 L-1.5 -62.1 Q-8.7 -62.25 -12.8 -68.8 L-15.8 -73.25 Q-18.8 -77.3 -19.9 -82.0 -20.45 -84.55 -18.65 -86.4 -11.8 -93.6 -3.55 -99.2 -1.25 -100.75 1.2 -101.85 L2.95 -102.55 3.65 -106.55 Q3.8 -107.5 4.35 -108.35 2.6 -111.1 2.6 -114.55 2.6 -119.45 6.05 -122.9 M1.2 -95.0 Q-6.1 -90.2 -12.4 -84.05 L-14.05 -82.1 Q-12.35 -78.7 -9.75 -75.9 -8.8 -74.85 -8.65 -73.45 L-6.85 -71.25 -5.5 -69.8 Q-3.35 -70.95 -1.5 -71.1 -1.4 -79.85 -0.25 -88.4 0.15 -91.15 0.85 -93.8 L1.2 -95.0 M6.2 -52.2 Q5.95 -49.35 6.0 -46.5 6.15 -37.8 5.55 -29.3 L5.6 -29.2 Q6.15 -30.2 7.0 -31.0 14.3 -37.9 22.65 -43.45 L23.5 -44.05 Q18.1 -47.7 12.05 -50.15 L10.25 -50.75 Q8.0 -51.3 6.25 -52.4 L6.2 -52.2" fill="#000000" fill-rule="evenodd" stroke="none"/>
  </g>
</svg>
