<?xml version="1.0" encoding="UTF-8" standalone="no"?>
<svg xmlns:ffdec="https://www.free-decompiler.com/flash" xmlns:xlink="http://www.w3.org/1999/xlink" ffdec:objectType="shape" height="167.6px" width="101.1px" xmlns="http://www.w3.org/2000/svg">
  <g transform="matrix(1.0, 0.0, 0.0, 1.0, 44.05, 143.55)">
    <path d="M22.1 -139.15 Q24.8 -136.05 27.9 -133.6 L28.4 -133.4 43.45 -134.1 43.0 -131.7 Q42.0 -127.3 40.45 -123.25 L40.45 -122.7 40.45 -122.2 Q41.35 -120.9 42.85 -120.85 43.9 -119.8 45.4 -119.7 L45.85 -119.3 Q46.4 -118.95 46.3 -118.45 L45.95 -117.9 45.65 -117.15 Q42.2 -114.65 38.15 -113.2 34.95 -112.1 34.45 -109.2 41.0 -105.6 48.5 -103.9 L48.7 -103.75 Q49.35 -103.4 49.3 -102.95 49.3 -102.0 48.95 -101.2 47.95 -98.6 48.2 -95.8 L48.05 -95.5 47.85 -95.25 47.85 -94.45 47.85 -93.65 Q49.95 -92.4 51.75 -90.75 L51.8 -90.2 51.85 -89.95 Q55.35 -89.2 57.05 -86.15 L56.85 -85.9 56.0 -85.1 Q50.6 -84.1 46.8 -80.4 L46.8 -79.6 46.9 -78.3 47.85 -77.5 47.85 -77.25 47.85 -76.95 Q48.35 -76.55 48.95 -76.2 L48.95 -75.9 48.95 -75.65 49.4 -75.15 Q50.0 -74.6 50.0 -73.8 L50.2 -73.5 50.35 -73.25 49.75 -72.9 Q48.05 -72.15 46.15 -71.7 L43.6 -71.15 Q40.15 -70.45 38.7 -67.95 L40.3 -66.35 Q46.25 -61.5 50.35 -55.5 47.4 -53.5 44.55 -50.95 L42.5 -49.4 Q39.85 -47.7 39.75 -44.95 40.85 -43.7 42.1 -42.6 L49.65 -35.4 Q47.05 -31.75 42.85 -29.9 39.15 -28.3 38.35 -24.8 38.95 -23.85 40.0 -23.4 49.9 -19.3 56.6 -11.3 L54.4 -11.05 52.4 -10.5 Q48.85 -9.2 45.65 -7.2 44.15 -6.3 43.25 -4.85 40.45 -0.55 38.85 4.05 L33.25 -0.7 Q29.05 -4.55 23.5 -4.25 L23.1 -3.85 Q22.6 -3.5 22.45 -3.0 L22.45 -1.65 Q22.45 0.35 21.05 1.8 17.95 1.55 14.85 1.8 11.7 2.1 11.2 4.95 10.4 9.5 10.35 14.25 10.0 14.7 9.5 14.95 7.5 16.2 4.8 15.95 3.15 15.75 1.85 16.6 -5.45 21.1 -13.15 24.05 -14.2 21.2 -15.85 18.75 -17.25 16.6 -19.8 16.0 -23.8 15.1 -27.35 13.8 -25.2 9.45 -28.95 6.0 -31.5 3.65 -34.45 1.8 -39.15 -1.15 -43.25 -4.4 L-42.35 -5.05 Q-41.65 -5.25 -41.05 -5.65 -36.75 -8.55 -39.0 -13.3 L-39.0 -14.1 -39.1 -15.15 -39.75 -16.0 Q-42.45 -18.95 -44.05 -22.6 -37.0 -22.75 -30.2 -24.5 -29.4 -24.7 -28.95 -25.35 -25.95 -29.45 -28.75 -33.9 L-28.75 -34.7 -28.75 -36.0 Q-22.85 -39.3 -16.3 -41.4 L-15.7 -42.15 Q-14.25 -43.35 -14.65 -45.35 -18.05 -46.9 -21.25 -46.0 L-20.1 -48.5 Q-18.9 -50.5 -17.35 -52.15 -13.75 -56.05 -12.85 -61.1 L-12.7 -61.35 -12.5 -61.6 -12.5 -62.15 -12.5 -62.65 Q-13.05 -63.65 -14.1 -63.25 L-15.8 -62.5 Q-18.3 -61.3 -20.85 -60.25 -23.25 -59.25 -24.6 -59.6 L-24.35 -59.85 Q-23.65 -60.55 -22.6 -60.9 L-22.45 -61.45 -22.4 -61.95 Q-22.7 -62.55 -23.25 -62.45 L-43.35 -61.8 Q-41.55 -63.8 -39.95 -66.05 -35.5 -72.4 -30.6 -78.4 L-30.5 -79.45 -30.8 -80.3 Q-32.85 -83.15 -36.0 -85.05 -39.7 -87.25 -40.85 -90.85 -36.9 -92.15 -33.0 -93.9 -31.95 -93.9 -31.3 -94.7 -30.2 -96.05 -29.9 -97.75 -29.5 -99.85 -29.7 -102.1 -30.4 -108.5 -32.8 -114.5 L-30.8 -113.7 Q-28.4 -112.55 -25.85 -111.55 -21.6 -109.9 -18.0 -112.1 L-17.35 -114.3 Q-16.4 -117.6 -15.95 -121.1 L-15.55 -121.65 -15.35 -122.2 -14.7 -122.2 -14.65 -122.2 Q-10.05 -119.2 -5.6 -116.0 -2.35 -113.7 1.1 -114.25 2.5 -117.75 2.2 -121.95 1.7 -128.05 -0.05 -133.85 L0.75 -133.9 Q4.2 -132.45 7.95 -133.1 L8.3 -133.6 Q9.7 -135.75 11.5 -137.55 L11.5 -137.8 11.5 -138.05 11.75 -138.3 12.45 -139.15 12.6 -139.65 12.75 -140.2 13.05 -140.5 Q14.35 -142.35 16.25 -143.55 17.6 -143.3 18.75 -142.4 L22.1 -139.15" fill="#ffff00" fill-opacity="0.5019608" fill-rule="evenodd" stroke="none"/>
  </g>
</svg>
