<?xml version="1.0" encoding="UTF-8" standalone="no"?>
<svg xmlns:ffdec="https://www.free-decompiler.com/flash" xmlns:xlink="http://www.w3.org/1999/xlink" ffdec:objectType="shape" height="131.75px" width="62.4px" xmlns="http://www.w3.org/2000/svg">
  <g transform="matrix(1.0, 0.0, 0.0, 1.0, 23.3, 129.15)">
    <path d="M18.05 -129.15 Q22.95 -129.15 26.4 -125.7 29.85 -122.25 29.85 -117.35 29.85 -112.45 26.4 -109.0 23.75 -106.35 20.25 -105.7 L19.45 -105.95 14.4 -105.8 13.5 -106.85 11.55 -108.6 11.0 -106.35 10.25 -102.7 10.35 -101.9 Q10.3 -100.6 9.5 -99.9 L9.15 -98.6 Q10.7 -97.05 11.1 -94.15 L11.6 -91.35 12.75 -87.0 Q13.9 -85.4 14.3 -83.45 14.45 -82.6 15.1 -82.0 23.95 -81.95 31.6 -86.2 30.5 -93.0 37.3 -91.3 38.6 -91.0 38.9 -89.6 40.1 -83.75 33.8 -80.9 25.8 -77.25 16.85 -76.4 9.85 -75.7 8.45 -82.6 L7.85 -84.75 6.5 -88.85 Q4.55 -78.7 5.25 -68.05 5.55 -62.9 4.95 -58.0 6.7 -57.7 8.25 -56.7 L8.4 -56.6 Q21.05 -54.45 33.1 -51.0 L33.4 -50.5 Q33.55 -44.1 28.2 -39.65 L25.5 -36.95 Q22.55 -33.55 21.6 -29.2 24.7 -26.3 29.45 -24.65 L30.55 -23.9 Q35.0 -22.15 31.5 -18.9 30.2 -17.65 28.45 -18.65 23.95 -21.25 19.3 -23.4 17.4 -24.3 16.1 -25.8 14.75 -27.4 15.5 -29.45 19.1 -39.7 27.5 -47.25 L9.8 -50.2 Q7.85 -50.5 6.2 -51.1 L6.2 -50.75 6.2 -50.6 6.1 -50.65 5.65 -48.85 Q5.25 -47.6 5.15 -46.25 4.6 -35.5 1.4 -25.4 0.95 -24.15 0.05 -23.05 -3.1 -19.35 -6.5 -16.2 -11.1 -11.45 -17.15 -8.3 -14.0 -2.75 -7.95 -2.15 -4.5 -1.85 -5.75 1.15 -6.3 2.55 -7.95 2.6 -17.4 2.95 -22.3 -5.3 L-23.15 -7.6 Q-24.0 -11.8 -19.7 -13.75 L-17.3 -14.95 Q-13.7 -16.9 -10.55 -19.6 L-3.2 -27.5 Q-0.65 -39.5 0.3 -51.85 L-0.05 -54.95 Q-0.6 -56.1 -0.4 -57.95 0.0 -61.65 -0.25 -65.4 -1.15 -80.5 2.05 -94.7 2.55 -96.85 3.4 -98.75 L-14.5 -96.35 Q-15.4 -93.45 -15.7 -90.4 L-16.2 -87.35 Q-17.5 -82.35 -17.4 -77.0 -13.35 -77.0 -13.0 -73.2 -12.45 -67.25 -18.5 -68.75 -19.3 -68.95 -19.9 -69.65 -24.0 -74.5 -22.6 -81.45 -21.35 -87.3 -20.8 -93.3 -20.5 -96.35 -19.35 -99.25 -18.2 -102.15 -14.9 -102.4 L-0.8 -103.75 -0.4 -104.0 1.0 -104.45 1.05 -104.5 4.95 -104.25 7.05 -113.0 Q6.25 -115.0 6.25 -117.35 6.25 -122.25 9.7 -125.7 13.15 -129.15 18.05 -129.15" fill="#000000" fill-rule="evenodd" stroke="none"/>
  </g>
</svg>
