<?xml version="1.0" encoding="UTF-8" standalone="no"?>
<svg xmlns:ffdec="https://www.free-decompiler.com/flash" xmlns:xlink="http://www.w3.org/1999/xlink" ffdec:objectType="shape" height="139.45px" width="105.6px" xmlns="http://www.w3.org/2000/svg">
  <g transform="matrix(1.0, 0.0, 0.0, 1.0, 31.95, 149.35)">
    <path d="M21.35 -141.15 Q22.1 -139.95 23.55 -140.7 25.65 -141.8 27.5 -142.55 L27.8 -142.0 Q28.3 -140.45 28.45 -138.85 L29.05 -138.05 29.1 -137.55 29.15 -135.7 29.3 -135.4 Q29.75 -134.7 29.85 -133.85 L30.2 -133.3 30.2 -133.05 30.2 -132.75 30.85 -132.25 30.9 -131.95 30.9 -131.7 Q32.6 -130.75 34.1 -129.6 L34.15 -129.35 Q34.55 -128.65 34.55 -128.0 L28.1 -122.0 28.1 -121.75 28.2 -120.65 32.95 -119.3 Q34.9 -118.65 36.7 -119.55 40.9 -121.75 44.8 -124.45 L45.2 -124.45 Q49.95 -118.9 53.5 -112.55 L53.5 -112.3 53.5 -112.0 Q54.1 -111.05 55.2 -110.95 57.15 -109.8 59.45 -109.2 L62.35 -107.15 55.3 -102.95 55.25 -102.4 Q54.85 -99.15 57.25 -96.85 54.1 -94.85 50.5 -93.8 47.25 -92.85 44.7 -90.75 L44.7 -90.2 44.7 -88.65 Q45.6 -87.05 47.45 -86.6 50.4 -84.95 49.8 -81.7 48.9 -77.15 48.95 -72.4 50.2 -70.9 52.0 -70.35 56.3 -68.25 60.05 -65.1 L60.55 -64.3 Q61.6 -59.45 61.1 -54.55 L73.65 -48.55 Q69.85 -46.05 65.9 -43.7 L65.9 -42.1 Q66.0 -36.95 66.25 -31.75 L57.75 -30.7 Q54.4 -29.9 52.1 -27.2 L50.5 -26.9 Q48.0 -28.9 46.0 -31.6 L45.85 -32.05 Q45.0 -33.35 44.7 -34.75 L43.8 -35.5 Q42.3 -34.35 40.5 -33.65 36.9 -32.2 34.45 -29.65 L34.45 -28.85 34.45 -26.2 34.6 -25.95 35.05 -24.9 34.45 -24.35 34.45 -24.1 34.35 -23.55 Q32.45 -19.85 29.15 -17.9 L29.15 -18.7 Q29.0 -21.2 27.75 -23.45 L27.85 -23.75 Q28.25 -24.45 28.1 -25.35 L29.85 -27.7 29.85 -27.95 29.85 -28.25 30.85 -29.3 30.85 -29.55 Q30.85 -30.0 31.0 -30.35 L31.2 -30.6 Q32.65 -32.4 33.15 -34.6 L34.0 -35.65 34.05 -35.9 34.2 -37.25 35.15 -38.3 35.2 -38.55 35.5 -40.4 Q32.9 -41.65 29.65 -40.5 L27.65 -39.75 Q25.9 -39.1 25.2 -37.25 22.8 -31.3 20.85 -25.5 L20.35 -24.95 20.35 -24.7 20.25 -23.9 20.05 -23.65 19.6 -22.85 19.6 -22.6 19.6 -22.3 19.45 -22.05 19.25 -21.8 19.25 -21.55 Q19.3 -20.9 18.85 -20.45 15.6 -20.25 12.55 -21.4 11.6 -21.75 10.85 -22.4 8.35 -24.6 5.85 -23.65 L5.85 -23.4 5.75 -22.85 4.7 -21.15 3.65 -19.5 Q0.7 -14.35 -3.35 -9.9 -4.15 -10.0 -4.65 -10.45 -7.4 -12.8 -10.0 -15.35 L-11.0 -16.25 Q-13.85 -18.4 -17.45 -18.6 -17.2 -19.6 -16.45 -20.35 -11.95 -24.7 -12.85 -30.55 -13.95 -32.6 -16.35 -33.25 -20.0 -34.2 -23.1 -35.55 L-22.5 -37.05 -21.0 -38.6 Q-17.75 -40.75 -16.4 -44.3 L-16.45 -44.55 Q-17.45 -47.8 -19.5 -50.4 -20.6 -51.0 -21.6 -51.7 L-20.2 -52.65 Q-14.4 -55.2 -9.05 -58.35 L-8.95 -59.4 -9.25 -60.6 Q-10.35 -62.55 -13.05 -62.6 L-13.25 -63.4 Q-13.1 -64.75 -14.5 -64.85 L-25.6 -65.4 Q-25.85 -72.3 -26.6 -79.2 -26.65 -79.8 -27.15 -80.0 -29.65 -80.85 -31.95 -80.75 L-31.7 -82.85 Q-29.9 -90.35 -29.1 -98.0 L-29.6 -98.3 -31.65 -98.8 -31.6 -99.05 -31.6 -99.55 Q-30.85 -100.2 -30.5 -101.1 -29.55 -103.6 -27.7 -105.5 -25.05 -108.15 -24.5 -111.75 L-24.7 -112.0 -24.9 -112.3 -24.9 -112.55 -24.9 -112.8 -28.75 -115.8 -24.35 -116.75 Q-24.0 -116.85 -23.8 -117.1 -21.35 -120.1 -23.1 -124.1 -15.4 -123.9 -8.8 -120.6 L-7.05 -121.05 -6.8 -121.25 -6.5 -121.75 Q-7.0 -122.7 -7.95 -123.15 -9.65 -125.5 -11.65 -127.65 L-12.15 -128.2 -12.15 -128.45 -12.15 -128.7 -13.15 -129.75 -13.2 -130.05 -13.2 -130.85 -13.4 -131.1 -13.95 -131.9 -13.95 -132.4 -13.95 -133.5 -13.4 -133.6 -9.55 -134.2 Q-5.3 -135.1 -7.55 -138.75 L-7.6 -139.0 Q-9.5 -144.55 -12.8 -149.35 -2.45 -149.15 7.85 -146.7 11.4 -145.85 12.45 -148.95 16.2 -146.4 19.6 -143.3 L21.35 -141.15" fill="#ffff00" fill-opacity="0.5019608" fill-rule="evenodd" stroke="none"/>
  </g>
</svg>
