<?xml version="1.0" encoding="UTF-8" standalone="no"?>
<svg xmlns:ffdec="https://www.free-decompiler.com/flash" xmlns:xlink="http://www.w3.org/1999/xlink" ffdec:objectType="shape" height="108.45px" width="78.2px" xmlns="http://www.w3.org/2000/svg">
  <g transform="matrix(1.0, 0.0, 0.0, 1.0, 17.65, 139.75)">
    <path d="M9.9 -139.75 Q14.8 -139.75 18.25 -136.3 21.7 -132.85 21.7 -127.95 21.7 -123.05 18.25 -119.6 15.6 -116.95 12.1 -116.3 L11.3 -116.55 6.25 -116.4 5.35 -117.45 5.3 -117.5 5.45 -110.9 5.5 -110.25 Q7.35 -109.9 8.65 -108.5 L8.95 -108.2 Q15.9 -104.3 21.9 -98.8 22.9 -97.85 24.35 -98.4 30.4 -100.8 36.6 -102.7 38.7 -103.35 40.65 -104.15 L40.5 -105.7 Q40.45 -106.75 40.65 -107.7 45.05 -111.55 46.95 -106.45 47.7 -104.3 46.45 -102.45 43.75 -98.45 38.8 -97.2 L36.3 -96.5 Q28.95 -94.2 21.5 -92.85 20.15 -92.6 18.95 -93.5 14.55 -96.85 10.5 -100.85 L6.3 -103.35 Q7.05 -98.35 8.4 -93.45 11.05 -88.3 13.1 -82.8 L13.15 -82.4 Q14.1 -81.6 14.6 -80.4 L14.75 -79.25 Q15.85 -77.8 16.3 -76.45 L20.5 -77.15 41.05 -76.6 Q42.0 -76.55 42.5 -75.85 43.4 -74.5 43.7 -72.9 46.25 -69.1 47.3 -64.75 47.95 -62.15 47.95 -59.5 48.0 -51.65 49.5 -44.2 55.1 -44.4 59.8 -41.9 60.65 -41.45 60.55 -40.4 60.35 -37.95 57.9 -37.8 50.85 -37.25 44.95 -40.1 44.2 -40.45 44.1 -41.3 43.55 -45.65 43.6 -50.0 43.7 -60.1 39.5 -68.95 L39.3 -69.3 Q38.6 -70.0 38.4 -70.95 L38.15 -71.6 Q27.45 -73.0 17.15 -70.55 L16.7 -68.6 Q16.3 -67.35 16.35 -65.95 16.7 -53.55 15.45 -41.5 L14.9 -40.8 Q11.45 -39.15 8.55 -41.2 3.85 -42.2 -0.55 -43.95 L-1.1 -43.8 Q-0.6 -38.25 -0.55 -32.75 -0.55 -31.4 -1.9 -31.3 -5.6 -31.0 -6.1 -34.95 -7.05 -42.0 -6.75 -49.2 -3.3 -52.1 1.25 -49.6 2.6 -48.8 4.05 -48.15 7.35 -46.7 10.9 -46.6 10.85 -59.45 11.55 -72.2 L11.1 -72.9 Q10.5 -74.0 10.5 -75.3 L9.65 -76.9 Q9.4 -77.45 9.45 -78.05 L9.2 -78.45 8.55 -79.25 7.8 -81.2 6.95 -82.4 Q2.1 -92.85 1.0 -104.2 L0.6 -108.1 Q-5.45 -106.8 -11.6 -106.4 L-12.15 -106.0 Q-12.15 -102.05 -12.4 -98.1 -12.8 -91.1 -10.05 -85.05 L-9.65 -84.65 -8.7 -83.5 -8.45 -83.2 Q-3.45 -84.75 -2.95 -80.4 -2.35 -75.05 -7.85 -75.95 -11.95 -76.65 -13.8 -80.4 L-14.9 -82.25 Q-15.4 -82.9 -15.3 -83.7 -17.75 -87.45 -17.65 -92.0 L-17.3 -109.8 Q-11.8 -113.35 -4.35 -113.15 L-0.55 -113.5 -0.15 -113.6 Q-0.65 -117.75 -0.25 -121.9 -1.9 -124.6 -1.9 -127.95 -1.9 -132.85 1.55 -136.3 5.0 -139.75 9.9 -139.75" fill="#000000" fill-rule="evenodd" stroke="none"/>
  </g>
</svg>
