<?xml version="1.0" encoding="UTF-8" standalone="no"?>
<svg xmlns:ffdec="https://www.free-decompiler.com/flash" xmlns:xlink="http://www.w3.org/1999/xlink" ffdec:objectType="shape" height="90.5px" width="96.8px" xmlns="http://www.w3.org/2000/svg">
  <g transform="matrix(1.0, 0.0, 0.0, 1.0, 19.55, 147.15)">
    <path d="M12.7 -143.7 Q16.15 -140.25 16.15 -135.35 16.15 -130.45 12.7 -127.0 10.05 -124.35 6.55 -123.7 L5.75 -123.95 3.5 -123.55 3.95 -122.25 4.4 -121.0 4.5 -120.8 Q5.75 -120.9 7.4 -120.25 12.55 -118.1 17.35 -115.35 22.1 -113.5 26.3 -110.6 35.25 -113.0 41.45 -120.6 40.95 -122.7 41.2 -125.35 41.35 -126.6 42.5 -127.2 L42.9 -127.3 43.65 -127.4 43.7 -127.45 Q50.45 -126.05 47.7 -119.05 47.2 -117.7 45.95 -116.7 44.9 -115.9 43.7 -115.35 36.65 -106.0 25.05 -105.0 24.65 -104.95 24.15 -105.3 L21.7 -107.3 Q17.6 -109.05 13.65 -111.15 12.8 -111.45 12.0 -111.9 L11.55 -112.2 Q9.1 -113.1 6.85 -114.15 L7.85 -111.15 Q8.6 -110.5 8.8 -109.55 L9.05 -108.4 9.6 -107.6 Q10.05 -107.05 9.95 -106.4 L10.8 -105.2 11.15 -104.05 Q12.8 -101.85 13.95 -99.25 L14.2 -98.5 Q17.2 -93.6 20.45 -88.9 L20.75 -88.95 Q22.75 -89.9 25.15 -90.45 L27.55 -91.05 43.7 -95.35 Q47.15 -95.8 48.15 -94.4 51.55 -92.4 53.75 -88.6 55.75 -85.1 58.05 -81.7 L62.1 -75.3 66.8 -69.35 67.25 -68.6 Q69.85 -69.05 71.8 -71.8 74.0 -74.85 76.6 -72.4 77.7 -71.4 76.95 -70.1 L74.25 -66.15 Q70.3 -61.0 64.75 -62.7 63.3 -63.15 63.15 -64.65 L45.9 -88.65 45.2 -89.7 Q34.9 -88.1 25.45 -83.95 L24.65 -83.6 Q28.7 -76.8 33.25 -70.2 L33.55 -69.8 Q33.0 -75.65 38.5 -73.65 41.6 -72.5 44.35 -70.75 47.9 -68.55 44.55 -65.95 L41.65 -65.9 39.75 -67.0 Q41.8 -61.45 38.85 -57.0 38.55 -56.55 38.0 -56.7 34.95 -57.5 33.25 -60.3 L25.95 -71.45 20.4 -79.45 Q19.1 -81.3 18.65 -83.45 17.4 -83.8 16.2 -85.3 13.45 -88.75 11.55 -92.55 L9.15 -96.6 8.9 -97.3 6.5 -101.3 6.3 -102.05 Q4.7 -104.0 3.85 -106.4 L3.5 -107.6 0.15 -116.55 Q-6.8 -112.5 -13.6 -108.0 -9.5 -102.45 -3.65 -98.65 L-1.5 -96.9 -0.95 -96.9 Q3.15 -101.5 6.7 -96.55 7.5 -95.45 7.3 -94.0 6.65 -87.9 0.05 -90.35 -3.6 -91.75 -6.95 -94.05 -13.8 -98.8 -18.9 -105.35 -19.0 -106.75 -19.4 -108.15 -19.65 -109.15 -19.4 -110.1 -11.25 -117.0 -1.85 -121.95 -3.8 -125.1 -4.6 -128.4 L-5.75 -129.1 -5.7 -129.15 Q-7.45 -131.9 -7.45 -135.35 -7.45 -140.25 -4.0 -143.7 -0.55 -147.15 4.35 -147.15 9.25 -147.15 12.7 -143.7" fill="#000000" fill-rule="evenodd" stroke="none"/>
  </g>
</svg>
