<?xml version="1.0" encoding="UTF-8" standalone="no"?>
<svg xmlns:ffdec="https://www.free-decompiler.com/flash" xmlns:xlink="http://www.w3.org/1999/xlink" ffdec:objectType="shape" height="99.2px" width="138.75px" xmlns="http://www.w3.org/2000/svg">
  <g transform="matrix(1.0, 0.0, 0.0, 1.0, 22.3, 162.05)">
    <path d="M106.55 -124.05 Q110.1 -125.5 113.1 -125.9 L113.05 -125.6 Q112.6 -123.4 111.45 -121.65 L111.4 -121.4 Q110.75 -118.9 109.3 -116.85 L109.3 -116.35 109.4 -115.0 112.5 -113.05 112.6 -112.9 113.55 -112.35 116.45 -110.0 116.25 -109.8 Q115.4 -109.45 115.05 -108.55 112.6 -106.1 109.65 -104.05 L109.65 -103.0 Q109.65 -102.35 109.95 -101.8 112.05 -97.45 115.95 -94.25 113.55 -94.4 112.25 -92.75 L112.4 -90.95 Q113.25 -87.05 113.55 -82.95 L105.45 -83.3 103.4 -83.7 Q99.95 -84.8 96.8 -84.55 L96.65 -84.3 Q96.55 -83.5 95.9 -82.95 L95.8 -82.2 Q94.75 -78.6 93.05 -75.3 L92.9 -75.05 92.35 -74.5 Q86.65 -75.7 81.4 -78.4 L80.5 -79.1 78.65 -80.5 Q76.35 -82.65 74.1 -80.95 L73.95 -80.45 73.3 -79.35 73.25 -78.85 Q72.95 -77.1 72.15 -75.5 L68.2 -78.65 Q67.15 -80.4 65.55 -79.1 L65.55 -77.75 65.55 -75.65 64.15 -72.7 63.85 -72.4 Q60.75 -71.0 57.5 -72.75 55.45 -73.9 53.85 -72.35 49.7 -68.4 47.25 -62.85 L46.8 -62.85 42.95 -67.1 42.95 -67.35 42.95 -67.6 42.45 -67.9 Q37.5 -68.3 32.85 -67.95 L32.6 -68.25 32.4 -68.5 Q31.65 -70.3 31.2 -72.2 30.25 -76.45 28.55 -80.4 L28.4 -80.95 Q27.9 -82.6 26.5 -83.5 23.2 -82.0 19.95 -82.25 L19.95 -82.45 19.95 -82.7 19.9 -82.95 19.45 -83.5 19.0 -84.05 18.65 -85.55 Q17.45 -89.2 17.85 -93.05 16.05 -94.6 14.3 -92.8 L11.95 -90.4 Q9.05 -87.35 5.6 -85.9 L5.1 -86.95 2.6 -94.6 2.4 -94.9 Q1.65 -95.95 0.35 -95.85 L0.0 -95.75 -0.1 -95.7 -14.35 -96.1 -14.55 -96.65 -14.65 -96.9 -15.0 -97.45 -15.0 -97.7 Q-14.95 -98.8 -15.3 -99.8 L-16.05 -101.15 Q-15.9 -102.45 -16.45 -103.55 -16.95 -104.6 -18.05 -104.7 L-22.05 -105.0 -22.3 -105.15 -22.2 -105.35 -21.8 -105.9 -21.7 -106.2 -21.7 -106.45 -21.7 -106.7 -21.7 -107.25 -21.5 -107.5 Q-20.95 -108.1 -20.75 -108.85 L-20.65 -109.9 -20.25 -110.4 Q-19.7 -111.15 -19.65 -112.0 L-19.6 -113.05 -19.3 -113.65 Q-18.3 -115.9 -18.0 -118.35 -17.65 -121.05 -19.15 -123.15 L-19.2 -123.4 -19.25 -123.65 -19.3 -123.95 -19.5 -124.2 -19.75 -124.45 -19.05 -125.15 -18.25 -126.05 Q-17.5 -127.4 -16.2 -128.55 -15.05 -129.55 -14.9 -131.1 L-14.65 -131.35 -14.3 -131.9 -14.3 -132.95 -14.3 -133.45 -14.3 -134.0 -15.0 -135.05 Q-15.4 -135.8 -16.3 -135.85 L-17.65 -137.0 Q-18.6 -137.6 -19.5 -137.8 -18.0 -140.65 -16.0 -143.15 -13.85 -145.8 -13.95 -149.2 L-15.1 -151.0 -16.2 -152.65 -15.95 -153.15 -15.75 -153.4 -15.0 -153.95 -11.6 -154.75 Q-10.15 -155.05 -9.05 -155.95 -6.2 -158.2 -7.95 -162.05 L-6.25 -162.05 Q-5.8 -161.75 -5.35 -161.55 -1.65 -159.8 2.2 -158.7 2.55 -158.55 2.85 -158.35 L3.05 -158.5 3.2 -158.45 3.4 -158.65 3.65 -159.0 Q4.65 -159.75 5.5 -159.95 L5.7 -159.45 5.85 -159.15 5.85 -158.65 5.95 -158.1 Q7.25 -155.85 9.1 -154.15 9.65 -152.8 10.75 -151.95 11.9 -151.0 13.35 -151.55 16.6 -152.8 19.25 -155.0 L20.25 -154.75 Q21.3 -153.2 22.7 -151.85 22.8 -150.95 23.25 -150.15 25.65 -146.0 26.0 -141.25 L26.2 -140.95 26.45 -140.7 Q30.35 -139.85 34.25 -141.75 L37.2 -142.95 Q39.3 -143.6 41.0 -144.85 44.85 -147.65 46.45 -143.7 L46.8 -143.15 Q47.7 -141.3 47.5 -139.2 52.95 -136.0 59.5 -135.85 L59.3 -135.3 59.15 -134.8 58.85 -134.5 Q57.9 -133.45 57.4 -132.15 L56.35 -131.35 56.25 -130.85 Q55.85 -130.05 55.8 -129.2 55.55 -124.6 55.75 -119.95 L56.5 -119.5 Q62.05 -122.25 66.95 -126.05 70.9 -126.05 74.55 -124.2 78.45 -122.25 82.55 -122.6 L83.2 -126.3 Q84.45 -133.0 88.9 -137.95 L89.5 -137.4 90.95 -135.75 Q95.75 -129.65 99.15 -123.15 102.8 -122.5 106.55 -124.05" fill="#ffff00" fill-opacity="0.5019608" fill-rule="evenodd" stroke="none"/>
  </g>
</svg>
