<?xml version="1.0" encoding="UTF-8" standalone="no"?>
<svg xmlns:ffdec="https://www.free-decompiler.com/flash" xmlns:xlink="http://www.w3.org/1999/xlink" ffdec:objectType="shape" height="76.95px" width="115.25px" xmlns="http://www.w3.org/2000/svg">
  <g transform="matrix(1.0, 0.0, 0.0, 1.0, 14.65, 156.3)">
    <path d="M100.45 -106.25 L99.7 -102.05 Q98.45 -96.55 92.7 -98.8 L88.9 -100.0 Q74.0 -103.45 58.95 -102.95 47.95 -102.6 37.5 -100.35 L38.9 -99.2 39.25 -98.65 Q40.95 -95.85 43.0 -93.3 46.4 -89.1 50.4 -85.5 L50.9 -85.65 51.0 -86.05 51.1 -86.45 51.2 -86.85 55.15 -91.95 55.8 -92.75 Q57.45 -98.6 61.8 -102.5 62.5 -103.1 63.65 -102.9 70.75 -101.7 74.0 -96.2 74.3 -95.65 73.8 -95.15 70.65 -92.1 67.05 -95.55 66.45 -96.15 65.7 -96.55 65.45 -96.65 65.3 -96.85 L64.1 -97.1 Q61.9 -92.0 58.75 -87.35 L57.35 -85.8 Q55.4 -80.25 49.95 -79.4 49.15 -79.25 48.45 -79.8 42.1 -85.0 37.3 -91.65 L34.15 -95.5 Q32.05 -97.8 31.15 -100.4 29.75 -100.45 28.15 -101.7 L18.05 -109.9 Q18.5 -108.85 17.65 -107.85 16.3 -106.15 14.15 -106.0 -1.0 -104.65 -13.55 -112.1 L-14.65 -113.2 Q-14.75 -119.7 -9.75 -124.6 -8.3 -125.95 -7.15 -127.6 -5.45 -130.0 -3.35 -131.4 L-8.35 -137.95 Q-8.65 -139.15 -8.3 -140.3 L-8.25 -140.35 Q-9.0 -142.25 -9.0 -144.5 -9.0 -149.4 -5.55 -152.85 -2.1 -156.3 2.8 -156.3 7.7 -156.3 11.15 -152.85 14.6 -149.4 14.6 -144.5 14.6 -139.6 11.15 -136.15 8.5 -133.5 5.0 -132.85 L4.2 -133.1 2.9 -132.8 4.1 -131.3 4.5 -130.85 7.2 -130.3 Q14.5 -127.5 21.3 -123.5 25.45 -121.05 30.25 -121.35 L40.0 -126.85 40.6 -127.35 42.6 -130.15 42.55 -130.5 41.45 -131.8 41.15 -132.15 Q40.95 -133.7 41.0 -135.3 41.1 -136.85 42.5 -137.7 L43.65 -137.85 43.7 -137.95 Q49.8 -137.15 48.25 -130.55 46.05 -121.2 36.65 -118.25 L32.1 -116.9 Q28.55 -115.9 24.75 -116.3 22.25 -116.6 20.0 -117.85 L14.15 -120.95 Q20.0 -115.45 26.4 -110.45 L32.15 -105.7 32.6 -105.8 33.3 -105.3 33.65 -105.35 36.0 -105.45 Q41.75 -108.2 48.8 -108.1 53.1 -108.05 57.4 -108.3 73.85 -109.3 90.0 -105.1 L94.8 -104.9 Q94.6 -108.7 95.4 -112.3 95.55 -113.0 96.25 -113.45 L96.65 -113.55 97.4 -113.7 Q101.3 -111.55 100.45 -106.25 M5.1 -122.0 L0.2 -127.2 -0.3 -126.55 Q-4.15 -121.55 -8.5 -116.85 L-8.5 -116.5 -8.65 -116.1 -8.85 -115.7 Q-1.55 -111.85 7.2 -111.6 L7.3 -111.85 7.35 -112.25 7.45 -112.65 Q10.5 -114.95 13.2 -114.25 L5.1 -122.0" fill="#000000" fill-rule="evenodd" stroke="none"/>
  </g>
</svg>
