<?xml version="1.0" encoding="UTF-8" standalone="no"?>
<svg xmlns:ffdec="https://www.free-decompiler.com/flash" xmlns:xlink="http://www.w3.org/1999/xlink" ffdec:objectType="shape" height="97.7px" width="140.65px" xmlns="http://www.w3.org/2000/svg">
  <g transform="matrix(1.0, 0.0, 0.0, 1.0, 26.65, 164.95)">
    <path d="M83.6 -125.35 Q87.3 -129.4 90.7 -133.9 L91.1 -133.9 91.3 -133.8 100.5 -123.05 Q100.85 -122.6 101.3 -122.45 104.25 -121.45 107.4 -121.0 107.7 -118.95 107.35 -116.8 106.95 -113.85 107.55 -110.95 L108.75 -109.8 114.0 -104.35 Q110.75 -103.2 107.9 -101.0 107.75 -97.05 108.55 -93.3 109.7 -87.8 111.35 -82.55 L111.0 -82.6 109.65 -82.95 106.7 -84.95 Q100.6 -88.7 96.25 -83.15 93.55 -79.7 90.15 -82.35 L86.15 -85.2 Q82.55 -87.55 79.65 -85.25 L79.65 -83.15 79.65 -80.5 79.1 -80.4 Q73.1 -84.5 66.25 -83.3 L66.1 -83.15 Q64.55 -80.6 64.65 -77.6 L64.8 -69.35 60.0 -71.1 51.5 -70.8 41.85 -67.25 41.85 -69.1 Q41.8 -70.75 40.8 -72.0 L40.8 -72.3 40.8 -72.55 40.8 -72.8 40.7 -73.1 Q37.75 -75.9 33.5 -76.4 L31.8 -76.55 Q26.35 -76.65 21.75 -78.2 21.95 -82.4 21.4 -86.4 21.35 -86.9 20.9 -87.0 13.9 -88.65 7.25 -89.4 L7.25 -92.05 7.25 -95.5 6.25 -96.65 5.75 -96.85 Q-2.8 -96.8 -10.4 -98.05 L-10.4 -100.2 -10.4 -101.5 -10.65 -102.05 Q-11.0 -103.0 -12.0 -103.1 -19.35 -103.85 -26.65 -103.45 L-26.35 -104.7 Q-25.7 -106.75 -25.6 -108.9 -25.45 -112.65 -26.65 -115.8 L-26.65 -116.1 -26.65 -116.35 -26.65 -116.6 -26.65 -116.85 -22.25 -117.25 Q-22.05 -117.25 -21.85 -117.4 -21.4 -119.0 -22.0 -120.6 L-23.2 -124.3 -23.65 -124.8 -23.9 -125.1 -24.1 -125.35 -24.15 -125.6 -24.15 -125.9 -24.2 -126.15 -24.25 -126.4 -24.45 -126.65 -24.7 -126.95 -24.9 -127.2 -24.9 -127.45 -25.05 -128.0 -25.15 -128.25 -25.25 -128.5 Q-21.55 -128.7 -18.15 -129.85 -17.35 -130.1 -16.65 -130.55 -12.95 -133.05 -16.4 -136.1 L-17.45 -138.05 Q-18.5 -139.6 -18.5 -141.4 L-18.7 -141.65 -18.95 -141.95 -19.25 -142.2 Q-19.25 -142.75 -19.6 -143.2 L-22.15 -146.45 -20.8 -146.75 Q-17.5 -147.3 -15.1 -149.3 -14.3 -149.95 -14.0 -150.95 -13.15 -153.95 -14.75 -156.75 -16.4 -159.6 -17.1 -162.8 -13.3 -162.95 -9.65 -161.9 -5.45 -160.7 -2.65 -164.55 L-1.65 -164.35 Q-0.5 -163.95 0.45 -163.15 L0.6 -162.9 Q2.25 -160.85 4.0 -162.5 L4.0 -162.75 3.9 -163.3 3.9 -163.55 4.0 -163.85 4.3 -164.05 6.65 -164.9 6.9 -164.95 8.3 -164.9 10.05 -162.35 12.1 -157.85 12.2 -157.55 12.25 -157.3 12.3 -157.05 12.5 -156.75 Q13.7 -154.6 15.75 -156.05 L21.05 -156.8 21.25 -156.5 21.4 -156.25 21.4 -155.7 21.6 -153.85 Q21.7 -149.8 24.15 -146.8 25.25 -145.35 27.05 -146.35 31.65 -148.9 36.55 -150.15 L37.2 -149.45 37.45 -149.15 37.65 -148.9 Q37.95 -146.65 40.0 -145.15 L44.25 -145.05 Q46.85 -147.4 48.9 -150.4 50.25 -152.35 51.95 -152.55 53.15 -150.0 53.85 -147.2 L55.65 -139.55 55.85 -139.3 56.05 -139.0 56.25 -138.75 56.35 -138.5 56.35 -138.25 56.45 -137.95 Q57.05 -137.3 57.9 -137.7 L58.45 -138.05 61.4 -138.3 Q62.35 -135.8 61.9 -133.05 61.4 -129.75 61.3 -126.4 62.75 -124.45 65.15 -125.4 70.65 -127.65 76.5 -128.9 L77.0 -128.35 77.25 -128.05 77.45 -127.8 77.5 -127.55 77.55 -127.3 77.6 -127.0 78.25 -126.5 80.2 -124.85 Q81.95 -123.55 83.6 -125.35" fill="#ffff00" fill-opacity="0.5019608" fill-rule="evenodd" stroke="none"/>
  </g>
</svg>
