<?xml version="1.0" encoding="UTF-8" standalone="no"?>
<svg xmlns:ffdec="https://www.free-decompiler.com/flash" xmlns:xlink="http://www.w3.org/1999/xlink" ffdec:objectType="shape" height="100.05px" width="145.95px" xmlns="http://www.w3.org/2000/svg">
  <g transform="matrix(1.0, 0.0, 0.0, 1.0, 34.8, 164.65)">
    <path d="M108.5 -133.05 L108.65 -131.15 108.2 -125.3 Q107.3 -116.85 111.15 -109.7 107.4 -109.3 105.1 -107.0 104.85 -105.4 105.65 -104.05 108.5 -99.35 110.4 -94.25 L99.8 -95.0 Q96.7 -95.6 95.55 -92.5 95.6 -89.9 94.3 -87.9 92.8 -89.0 91.05 -89.6 90.55 -90.2 89.9 -90.5 L86.15 -92.2 Q82.55 -93.65 79.1 -93.4 78.4 -88.5 80.25 -83.85 81.3 -81.1 81.4 -78.0 L68.35 -78.75 67.3 -77.25 67.3 -76.95 67.3 -76.7 66.95 -76.15 Q66.5 -74.4 66.6 -72.45 66.8 -68.55 66.5 -64.6 60.65 -66.8 55.9 -71.0 52.75 -73.8 50.0 -71.3 48.85 -67.4 45.2 -65.95 L44.9 -66.4 44.05 -67.4 Q42.25 -69.5 40.8 -71.9 L36.45 -78.55 Q36.1 -79.1 35.4 -79.1 L28.1 -78.65 28.25 -82.6 Q28.8 -87.1 28.1 -91.6 25.7 -92.85 22.6 -91.6 20.0 -90.55 17.85 -90.1 L17.95 -92.25 Q18.4 -96.3 15.05 -98.35 13.65 -99.25 12.05 -99.8 8.55 -101.05 5.3 -100.8 L4.65 -97.6 Q4.1 -92.85 1.45 -88.95 0.8 -89.15 0.3 -89.6 -4.05 -93.55 -7.2 -98.35 L-7.65 -98.6 -17.9 -97.9 -18.85 -98.95 -18.95 -99.45 Q-19.6 -101.3 -19.9 -103.25 -20.8 -108.8 -23.2 -113.8 L-24.0 -114.55 Q-26.55 -115.4 -29.2 -114.5 -29.35 -114.95 -29.1 -115.45 -27.5 -118.85 -24.95 -121.8 -24.8 -122.6 -24.9 -123.4 L-25.65 -124.2 Q-27.55 -128.0 -30.9 -130.55 -32.15 -132.85 -34.6 -134.25 -35.0 -134.65 -34.6 -135.05 L-33.4 -135.85 Q-32.0 -136.55 -30.5 -136.7 -24.85 -137.35 -20.35 -140.2 -20.3 -142.9 -23.4 -143.25 -28.15 -144.95 -32.8 -147.05 L-14.3 -152.2 -12.95 -153.7 Q-12.8 -156.0 -14.8 -157.4 L-15.35 -158.2 Q-12.3 -157.75 -10.75 -160.15 L-10.7 -160.4 Q-10.3 -162.45 -10.4 -164.65 -5.3 -162.15 -1.05 -158.35 L-0.5 -158.55 -0.15 -159.0 Q0.6 -159.05 0.8 -159.7 L0.65 -160.75 0.9 -161.0 Q1.95 -161.0 2.65 -161.7 L3.75 -161.65 Q5.0 -157.85 8.3 -159.95 11.9 -161.0 15.55 -160.9 15.85 -160.3 15.7 -159.6 15.1 -156.65 15.45 -153.5 18.05 -152.65 20.95 -153.5 L30.2 -156.0 30.2 -152.0 Q30.25 -149.8 31.4 -147.9 34.3 -143.3 39.05 -145.85 L39.35 -146.25 Q42.0 -149.55 45.15 -152.55 50.5 -144.0 60.6 -143.6 L60.6 -143.35 60.6 -143.1 59.15 -141.25 Q56.65 -139.8 54.2 -138.15 51.3 -136.15 51.25 -133.3 57.95 -130.3 64.8 -127.65 L61.65 -123.95 61.75 -122.1 Q65.7 -120.75 69.3 -118.55 72.5 -116.6 75.85 -116.95 L84.45 -123.55 85.8 -124.8 Q89.5 -128.85 94.5 -127.1 95.35 -126.3 96.45 -125.85 L99.0 -125.9 Q104.4 -128.5 108.5 -133.05" fill="#ffff00" fill-opacity="0.5019608" fill-rule="evenodd" stroke="none"/>
  </g>
</svg>
