<?xml version="1.0" encoding="UTF-8" standalone="no"?>
<svg xmlns:ffdec="https://www.free-decompiler.com/flash" xmlns:xlink="http://www.w3.org/1999/xlink" ffdec:objectType="shape" height="83.15px" width="113.1px" xmlns="http://www.w3.org/2000/svg">
  <g transform="matrix(1.0, 0.0, 0.0, 1.0, 20.3, 150.9)">
    <path d="M92.05 -101.1 L91.35 -99.25 Q90.15 -95.6 88.2 -92.35 87.25 -90.8 85.35 -91.0 72.0 -92.5 58.8 -94.7 L45.2 -95.8 45.25 -95.7 44.75 -95.8 44.25 -95.8 42.7 -96.05 40.0 -96.3 36.35 -96.0 Q30.05 -94.65 23.9 -95.15 26.6 -92.45 28.35 -88.7 29.05 -87.3 29.9 -86.0 32.3 -82.4 35.15 -79.3 32.5 -84.55 37.95 -85.0 39.45 -85.15 40.7 -84.3 L43.25 -82.85 Q48.65 -80.25 44.2 -76.9 43.15 -76.15 42.0 -76.9 43.9 -72.0 41.0 -68.05 40.65 -67.65 40.1 -67.75 37.55 -68.25 35.7 -70.25 26.3 -80.25 19.1 -92.2 18.65 -92.95 18.45 -93.65 16.95 -94.1 15.6 -95.75 11.0 -101.4 6.05 -106.7 L4.65 -108.2 -12.15 -107.2 Q-20.25 -107.4 -20.3 -114.6 -20.3 -116.85 -18.5 -118.5 -14.15 -122.3 -9.05 -125.5 L-8.0 -126.25 Q-9.4 -128.75 -8.4 -131.55 L-10.45 -132.85 -10.4 -132.9 Q-12.15 -135.65 -12.15 -139.1 -12.15 -144.0 -8.7 -147.45 -5.25 -150.9 -0.35 -150.9 4.55 -150.9 8.0 -147.45 11.45 -144.0 11.45 -139.1 11.45 -134.2 8.0 -130.75 5.35 -128.1 1.85 -127.45 L1.05 -127.7 -2.3 -127.3 -1.45 -125.7 -1.25 -125.65 7.05 -122.95 Q14.8 -120.6 22.7 -121.8 23.35 -121.9 23.95 -122.45 27.65 -125.85 30.55 -130.0 29.85 -131.8 30.0 -133.95 30.05 -135.45 31.45 -136.2 L31.85 -136.25 32.65 -136.35 32.65 -136.45 Q38.9 -135.8 36.25 -130.05 34.05 -125.3 30.75 -121.2 24.15 -112.95 13.45 -115.8 L5.65 -117.75 3.2 -118.4 8.2 -112.2 Q13.6 -106.15 19.6 -100.9 L20.9 -99.55 28.25 -100.75 38.95 -102.2 46.35 -101.4 45.9 -100.7 Q60.2 -100.95 74.3 -98.25 L84.25 -97.05 87.45 -106.05 88.35 -107.2 88.75 -107.3 89.55 -107.4 89.55 -107.45 Q94.35 -106.1 92.05 -101.1 M-4.65 -119.6 L-4.75 -120.0 -4.8 -120.35 -4.9 -120.75 -5.55 -121.4 Q-10.6 -118.15 -14.75 -113.8 -13.95 -113.0 -12.65 -112.95 L-1.45 -112.45 -0.05 -113.7 -4.65 -119.6" fill="#000000" fill-rule="evenodd" stroke="none"/>
  </g>
</svg>
