<?xml version="1.0" encoding="UTF-8" standalone="no"?>
<svg xmlns:ffdec="https://www.free-decompiler.com/flash" xmlns:xlink="http://www.w3.org/1999/xlink" ffdec:objectType="shape" height="136.05px" width="119.35px" xmlns="http://www.w3.org/2000/svg">
  <g transform="matrix(1.0, 0.0, 0.0, 1.0, 32.3, 152.35)">
    <path d="M7.85 -144.95 L11.55 -141.7 Q15.3 -138.0 19.1 -141.05 20.2 -143.05 22.55 -143.8 27.35 -138.75 33.2 -134.7 40.15 -137.35 45.95 -141.95 L46.05 -141.65 Q47.3 -137.05 46.8 -132.15 45.4 -130.55 44.95 -128.45 L44.0 -127.4 43.95 -127.1 Q43.8 -125.05 44.45 -123.15 50.85 -117.55 58.1 -113.05 57.85 -112.8 57.55 -112.8 51.1 -112.4 44.95 -111.05 L44.35 -109.7 44.35 -109.45 44.35 -108.4 Q45.6 -106.6 47.5 -105.5 L47.5 -105.2 47.5 -102.85 45.4 -100.45 45.4 -100.2 45.5 -98.05 Q47.4 -96.1 49.9 -95.25 56.0 -91.1 63.15 -89.25 63.55 -88.85 64.1 -88.7 L65.45 -87.2 65.5 -86.95 Q66.4 -82.35 66.6 -77.65 L66.95 -77.15 66.95 -76.9 66.95 -76.35 67.45 -76.0 74.7 -76.25 Q77.4 -77.35 79.65 -77.65 L79.2 -68.95 Q78.6 -62.1 84.4 -58.35 84.75 -57.5 85.55 -57.2 87.3 -55.5 87.0 -53.2 83.1 -51.5 78.95 -50.5 L78.95 -50.2 78.95 -49.4 Q82.35 -45.05 79.65 -40.75 79.35 -40.3 78.9 -40.2 72.85 -39.0 66.95 -37.4 67.15 -34.65 68.8 -32.3 71.35 -28.7 72.25 -24.7 L67.4 -23.95 Q61.55 -22.55 60.5 -16.85 60.25 -16.35 59.9 -16.3 L57.45 -17.6 Q55.25 -18.65 53.35 -20.05 L51.2 -21.85 Q47.75 -25.0 43.5 -26.95 L42.35 -26.9 Q35.9 -22.0 28.8 -17.8 L28.8 -22.6 Q28.8 -23.5 29.1 -24.3 31.15 -29.9 31.25 -35.8 L30.8 -36.15 Q27.0 -37.2 23.85 -36.8 23.85 -40.6 26.7 -43.25 L27.05 -43.55 Q30.35 -45.55 31.65 -48.9 L31.15 -49.2 18.55 -51.2 20.6 -54.0 Q21.7 -56.3 20.35 -58.25 L20.35 -58.5 20.35 -58.8 19.85 -59.15 18.05 -59.7 Q12.25 -61.2 6.55 -61.35 L6.5 -61.85 Q5.95 -66.45 6.2 -71.15 L5.75 -71.4 Q2.7 -71.65 0.75 -68.65 L0.35 -68.65 -4.75 -78.75 -4.75 -79.0 -4.75 -79.25 Q-6.05 -80.9 -8.5 -79.95 -11.15 -78.9 -13.45 -77.25 L-19.6 -72.2 Q-20.7 -77.15 -22.4 -81.9 L-22.4 -82.15 -22.4 -82.45 -22.85 -82.7 Q-27.75 -83.05 -31.85 -82.9 L-31.8 -83.9 Q-29.55 -89.65 -30.15 -95.85 -31.05 -97.3 -32.3 -98.5 L-32.3 -98.75 -32.3 -100.35 -31.45 -100.9 -25.65 -103.8 Q-25.45 -107.1 -27.7 -109.65 -27.75 -110.85 -28.75 -111.75 L-28.75 -112.0 -28.75 -113.05 -27.5 -113.3 Q-20.95 -113.6 -14.4 -113.1 -12.75 -112.95 -11.8 -114.2 L-12.0 -114.9 Q-14.3 -118.9 -17.8 -122.15 L-17.45 -122.7 -17.45 -122.95 -17.45 -123.25 -17.1 -123.75 Q-17.3 -125.25 -17.75 -126.65 -19.45 -128.75 -21.5 -130.65 L-22.05 -131.7 -21.95 -132.5 -13.4 -132.95 Q-13.15 -133.45 -13.2 -134.0 L-13.95 -134.8 -13.95 -135.05 -15.7 -143.0 Q-12.95 -143.7 -10.6 -142.45 L-4.5 -142.3 Q-4.3 -142.8 -4.5 -143.35 L-4.7 -144.65 -4.05 -152.35 Q2.1 -149.35 7.85 -144.95" fill="#ffff00" fill-opacity="0.5019608" fill-rule="evenodd" stroke="none"/>
  </g>
</svg>
