<?xml version="1.0" encoding="UTF-8" standalone="no"?>
<svg xmlns:ffdec="https://www.free-decompiler.com/flash" xmlns:xlink="http://www.w3.org/1999/xlink" ffdec:objectType="shape" height="101.35px" width="91.6px" xmlns="http://www.w3.org/2000/svg">
  <g transform="matrix(1.0, 0.0, 0.0, 1.0, 19.4, 136.85)">
    <path d="M32.3 -125.9 Q33.1 -126.35 33.7 -126.45 41.45 -124.25 37.4 -117.6 33.05 -110.45 27.25 -104.7 26.65 -102.9 24.75 -102.85 16.5 -102.65 8.8 -105.45 L5.15 -106.9 5.25 -106.0 8.8 -98.1 8.95 -96.95 Q9.65 -96.3 9.85 -95.35 L10.1 -94.15 10.7 -93.4 11.05 -92.2 11.85 -91.05 11.95 -90.95 Q12.85 -90.2 12.75 -88.9 L12.75 -88.65 17.45 -80.6 19.35 -80.85 Q24.3 -80.8 29.2 -81.9 35.05 -83.75 40.4 -86.65 L40.8 -86.75 41.6 -86.85 41.6 -86.9 Q46.55 -86.9 48.6 -82.1 L49.5 -80.45 Q56.1 -70.85 61.1 -60.6 L61.5 -60.2 62.4 -59.0 62.55 -58.6 Q66.35 -60.05 68.2 -64.15 L68.75 -64.5 Q73.35 -65.0 71.8 -61.15 69.55 -55.6 64.2 -52.6 60.75 -50.65 58.7 -54.3 L57.55 -55.85 57.45 -56.25 57.35 -56.6 57.25 -57.0 Q54.25 -61.35 51.7 -66.0 50.95 -67.4 50.55 -68.9 L44.35 -77.95 42.8 -80.35 Q38.65 -80.05 34.2 -78.05 30.45 -76.35 26.5 -75.6 34.15 -74.1 42.1 -73.3 45.55 -72.95 44.85 -69.8 44.15 -66.6 44.15 -63.2 44.15 -52.95 42.1 -43.05 L42.65 -42.85 52.6 -41.5 Q58.3 -40.6 55.8 -36.25 55.3 -35.35 54.3 -35.55 46.55 -37.4 38.35 -38.1 37.3 -38.2 37.25 -39.25 36.6 -48.15 38.45 -56.7 39.15 -60.1 39.05 -63.75 L38.95 -68.35 Q28.35 -68.65 18.9 -72.65 16.25 -71.65 14.45 -74.65 L13.3 -76.4 13.2 -76.8 13.1 -77.15 13.0 -77.55 Q10.45 -80.9 8.55 -84.6 L7.9 -84.6 Q0.65 -84.5 -6.1 -87.35 -9.05 -88.65 -12.25 -89.3 -17.35 -90.35 -19.15 -94.45 -19.8 -95.9 -18.65 -96.8 -10.35 -103.35 -1.6 -109.35 L-1.6 -109.95 -1.9 -110.35 -2.5 -111.15 -2.6 -111.55 -2.7 -111.95 -2.8 -112.35 Q-4.3 -114.65 -4.5 -117.15 L-7.0 -118.8 -6.95 -118.85 Q-8.7 -121.6 -8.7 -125.05 -8.7 -129.95 -5.25 -133.4 -1.8 -136.85 3.1 -136.85 8.0 -136.85 11.45 -133.4 14.9 -129.95 14.9 -125.05 14.9 -120.15 11.45 -116.7 8.8 -114.05 5.3 -113.4 L4.5 -113.65 2.9 -113.3 3.05 -113.0 Q6.3 -113.75 10.05 -111.6 11.0 -111.1 12.05 -110.75 L19.85 -108.1 22.9 -108.25 Q28.2 -113.5 32.65 -119.7 L32.15 -120.45 31.2 -121.7 31.0 -122.9 Q30.95 -123.9 31.2 -124.85 L32.3 -125.9 M0.1 -103.75 L-1.65 -102.5 -8.25 -97.8 Q-9.7 -96.7 -11.2 -95.75 -8.65 -93.7 -4.25 -92.3 -0.5 -91.1 3.25 -90.35 L4.85 -92.0 Q4.65 -92.45 4.7 -93.0 4.05 -93.9 3.8 -95.0 3.65 -95.55 3.65 -96.15 L0.65 -102.4 0.1 -103.25 0.1 -103.75" fill="#000000" fill-rule="evenodd" stroke="none"/>
  </g>
</svg>
