<?xml version="1.0" encoding="UTF-8" standalone="no"?>
<svg xmlns:ffdec="https://www.free-decompiler.com/flash" xmlns:xlink="http://www.w3.org/1999/xlink" ffdec:objectType="shape" height="150.55px" width="119.95px" xmlns="http://www.w3.org/2000/svg">
  <g transform="matrix(1.0, 0.0, 0.0, 1.0, 34.4, 142.7)">
    <path d="M20.9 -137.25 Q21.1 -136.95 21.4 -136.95 28.55 -137.15 35.15 -136.75 35.3 -135.25 34.75 -133.85 33.85 -131.7 32.35 -129.85 L32.35 -129.6 32.35 -129.35 32.35 -129.05 31.95 -128.85 Q31.45 -128.55 31.25 -128.0 L31.25 -127.75 31.25 -127.5 31.2 -127.2 30.9 -126.95 30.2 -126.4 30.2 -126.15 30.2 -125.9 30.15 -125.6 29.5 -124.9 Q29.1 -124.4 29.15 -123.75 L29.55 -123.4 32.55 -123.25 Q41.6 -125.1 50.0 -123.5 L49.85 -122.95 49.25 -120.15 Q48.65 -118.15 49.0 -116.1 49.7 -115.35 50.65 -115.5 54.15 -116.0 56.9 -114.95 L56.75 -114.4 56.45 -113.6 Q52.8 -110.25 51.9 -105.4 51.75 -104.6 52.05 -103.95 53.0 -101.55 54.6 -99.75 54.5 -99.15 53.85 -98.85 50.35 -97.0 47.8 -94.2 L47.15 -93.75 46.1 -92.8 46.1 -92.5 46.1 -91.7 46.2 -90.65 47.0 -90.2 Q42.3 -88.45 37.1 -88.3 32.7 -88.15 29.5 -85.7 L29.5 -85.45 29.5 -84.65 29.6 -83.6 Q32.25 -81.95 35.5 -81.25 43.05 -79.65 50.0 -77.4 L49.5 -75.5 Q49.15 -74.65 49.35 -73.7 L51.1 -73.6 51.65 -73.9 Q55.65 -75.55 59.7 -75.9 L59.55 -75.75 59.15 -75.2 Q58.65 -71.9 57.1 -68.8 55.45 -65.4 55.75 -61.7 L56.0 -61.55 62.3 -60.95 Q63.75 -60.75 64.8 -59.85 L64.8 -59.6 Q64.85 -56.9 64.4 -54.25 L63.75 -48.45 Q64.05 -48.0 64.5 -47.95 L72.95 -47.65 Q73.85 -47.65 74.0 -46.95 L74.0 -45.9 Q74.05 -44.25 73.45 -42.8 72.45 -40.3 72.7 -37.7 L76.35 -36.25 82.1 -33.4 Q85.1 -31.7 85.55 -28.85 L84.75 -28.5 Q79.4 -26.75 74.7 -24.2 L74.7 -22.05 74.8 -19.7 75.35 -18.9 75.4 -18.1 76.3 -16.75 Q76.6 -15.95 76.4 -15.2 70.65 -17.45 64.65 -16.4 64.45 -14.75 64.6 -12.95 L64.8 -8.75 64.45 -8.45 Q60.75 -8.7 56.95 -8.55 55.9 -8.5 55.3 -7.7 L55.5 0.25 Q55.7 4.05 55.55 7.85 51.05 6.95 47.0 4.7 L46.65 4.25 44.75 2.9 Q41.85 0.95 40.3 -1.95 L40.5 -2.45 40.8 -3.0 Q40.95 -4.05 40.1 -4.7 L37.3 -4.65 37.3 -4.4 37.35 -4.15 Q32.75 -1.0 27.05 -0.8 L26.8 -2.75 Q25.35 -8.55 22.4 -13.8 L20.85 -15.35 Q18.55 -16.55 16.7 -16.5 L16.8 -16.75 16.95 -17.05 17.4 -17.35 17.85 -17.85 Q18.1 -19.65 17.95 -21.5 17.6 -25.9 14.15 -28.45 11.7 -30.35 11.25 -32.9 L12.45 -33.75 Q17.05 -34.9 20.35 -37.95 L20.35 -38.5 20.35 -39.0 19.95 -39.55 19.6 -40.1 Q19.75 -44.95 16.65 -48.2 L16.0 -48.55 1.25 -50.15 1.4 -50.6 Q1.65 -52.35 2.5 -53.95 3.7 -56.2 3.4 -58.8 L2.9 -59.15 -2.45 -60.55 -2.55 -60.85 -2.6 -61.35 -2.55 -61.9 Q-2.0 -62.4 -1.6 -63.0 -0.6 -64.4 0.8 -65.35 L0.9 -65.6 0.9 -65.85 1.2 -66.1 1.95 -66.9 2.05 -67.7 2.6 -68.5 2.7 -69.85 2.65 -71.15 Q1.65 -72.55 -0.35 -71.95 -4.9 -70.6 -9.6 -70.35 L-9.6 -72.75 -9.6 -75.4 Q-9.9 -75.95 -10.5 -76.0 L-11.9 -76.0 Q-21.75 -75.9 -31.6 -76.05 L-34.4 -76.35 -34.25 -77.35 Q-34.0 -78.05 -34.05 -78.75 -33.2 -80.05 -32.65 -81.6 -32.0 -83.15 -31.85 -84.85 L-31.6 -85.1 -30.35 -85.4 Q-29.55 -85.6 -29.1 -86.25 -28.4 -86.4 -27.85 -86.8 -26.9 -87.6 -26.3 -88.8 -26.3 -89.45 -26.45 -90.1 L-26.75 -91.45 -27.75 -93.1 -28.4 -94.65 Q-26.4 -94.75 -24.5 -95.35 -23.15 -95.75 -23.25 -97.2 -23.5 -100.85 -23.1 -104.35 -16.55 -106.65 -9.5 -106.3 -8.9 -106.25 -8.65 -106.8 L-8.7 -108.15 Q-8.8 -108.9 -9.35 -109.45 L-9.35 -112.4 Q-9.45 -115.5 -12.35 -117.15 L-12.95 -118.15 -13.75 -119.55 Q-12.35 -122.05 -12.6 -125.1 -12.85 -128.3 -14.35 -131.2 L-12.3 -130.55 Q-9.25 -129.2 -6.15 -129.95 L-6.0 -130.15 -5.8 -130.4 -5.0 -130.75 -4.75 -131.3 Q-4.25 -132.95 -4.2 -134.7 -4.1 -137.2 -3.25 -139.5 L-2.9 -139.75 -2.0 -140.55 Q2.1 -140.75 5.4 -138.4 5.85 -138.05 6.35 -138.15 11.25 -139.05 15.3 -142.3 L17.05 -142.2 Q19.15 -139.85 20.9 -137.25" fill="#ffff00" fill-opacity="0.5019608" fill-rule="evenodd" stroke="none"/>
  </g>
</svg>
