<?xml version="1.0" encoding="UTF-8" standalone="no"?>
<svg xmlns:ffdec="https://www.free-decompiler.com/flash" xmlns:xlink="http://www.w3.org/1999/xlink" ffdec:objectType="shape" height="122.85px" width="89.35px" xmlns="http://www.w3.org/2000/svg">
  <g transform="matrix(1.0, 0.0, 0.0, 1.0, 19.1, 132.4)">
    <path d="M8.35 -132.4 Q13.25 -132.4 16.7 -128.95 20.15 -125.5 20.15 -120.6 20.15 -115.7 16.7 -112.25 14.05 -109.6 10.55 -108.95 L9.75 -109.2 6.5 -108.8 6.8 -103.15 9.65 -102.35 Q14.35 -100.3 19.45 -99.15 L20.5 -98.5 Q26.45 -97.0 31.5 -100.9 L35.15 -103.65 Q36.4 -104.55 36.7 -106.0 36.15 -106.9 36.2 -108.0 L36.45 -111.15 37.15 -111.9 Q38.0 -112.75 38.95 -112.75 45.7 -112.35 43.1 -105.8 40.25 -98.65 33.0 -95.05 28.75 -92.95 24.15 -92.25 21.5 -91.8 18.8 -92.9 L14.15 -94.55 Q14.85 -93.75 14.95 -92.3 15.35 -87.3 11.1 -85.6 L12.6 -79.55 12.6 -79.15 Q14.7 -74.6 15.9 -69.85 L42.6 -65.65 Q43.9 -65.5 44.15 -64.1 L44.25 -63.35 Q46.95 -59.15 48.95 -54.5 L57.95 -32.55 68.95 -33.0 Q70.05 -32.95 70.2 -31.85 70.65 -28.2 66.4 -27.6 L56.35 -26.75 Q54.0 -26.65 53.2 -28.8 50.85 -34.95 48.85 -41.2 L48.25 -42.05 48.0 -42.4 47.6 -43.25 47.25 -44.4 Q46.65 -44.85 46.45 -45.55 L46.2 -46.75 46.0 -47.55 45.8 -48.35 45.55 -48.7 45.15 -49.15 44.9 -49.5 44.65 -50.7 44.1 -52.3 43.65 -53.05 42.8 -54.25 42.65 -55.05 42.6 -55.45 42.5 -55.85 Q41.85 -56.5 41.5 -57.4 L40.7 -59.0 40.2 -59.75 39.5 -60.6 39.25 -60.95 Q29.55 -61.8 19.9 -63.85 L26.65 -58.05 Q32.85 -52.55 38.45 -46.5 39.1 -45.8 38.95 -44.8 L35.75 -20.2 35.75 -20.05 Q41.05 -17.0 44.95 -12.45 45.45 -11.85 44.85 -11.2 41.8 -7.85 38.0 -11.35 L35.3 -13.75 34.2 -14.75 Q31.55 -15.5 30.75 -17.6 L30.15 -17.85 30.7 -24.85 Q31.1 -29.85 31.8 -34.8 32.55 -39.6 33.55 -44.25 31.95 -45.5 30.7 -47.05 L30.4 -47.4 Q20.95 -54.3 13.45 -63.3 12.0 -63.85 11.25 -66.1 10.95 -66.85 11.05 -67.7 9.95 -68.9 10.05 -70.45 L9.85 -71.65 Q7.15 -77.45 5.9 -83.9 L5.8 -84.5 5.75 -84.5 Q-5.3 -82.55 -16.15 -84.3 -18.6 -84.7 -19.0 -87.1 -19.65 -91.1 -15.65 -93.05 -10.75 -95.4 -6.2 -98.6 -2.35 -101.25 1.4 -104.0 1.1 -108.1 1.35 -112.25 -0.15 -113.4 -1.75 -114.35 L-1.7 -114.4 Q-3.45 -117.15 -3.45 -120.6 -3.45 -125.5 0.0 -128.95 3.45 -132.4 8.35 -132.4 M2.2 -97.45 Q-1.25 -95.0 -5.05 -93.1 -7.6 -90.5 -10.8 -88.65 -3.2 -88.6 4.15 -89.9 L3.4 -92.65 3.0 -93.75 2.2 -97.45 M8.15 -94.8 L9.45 -95.3 10.85 -95.55 7.6 -96.35 8.15 -94.8" fill="#000000" fill-rule="evenodd" stroke="none"/>
  </g>
</svg>
