<?xml version="1.0" encoding="UTF-8" standalone="no"?>
<svg xmlns:ffdec="https://www.free-decompiler.com/flash" xmlns:xlink="http://www.w3.org/1999/xlink" ffdec:objectType="shape" height="132.7px" width="70.55px" xmlns="http://www.w3.org/2000/svg">
  <g transform="matrix(1.0, 0.0, 0.0, 1.0, 26.8, 128.3)">
    <path d="M15.25 -128.3 Q20.15 -128.3 23.6 -124.85 27.05 -121.4 27.05 -116.5 27.05 -111.6 23.6 -108.15 21.15 -105.7 18.0 -105.0 L17.2 -105.0 15.8 -104.75 15.2 -105.0 15.15 -105.0 14.35 -103.15 14.05 -102.1 13.6 -100.6 13.75 -100.35 41.7 -101.2 Q42.15 -101.15 42.5 -100.75 44.7 -98.45 42.95 -95.7 39.95 -91.1 35.75 -94.95 35.2 -95.5 35.3 -96.3 25.4 -96.35 15.15 -94.45 15.25 -90.65 15.85 -86.9 16.4 -83.2 16.3 -79.45 19.05 -79.55 22.75 -81.45 28.1 -84.2 33.85 -86.15 33.6 -87.3 33.6 -88.55 L33.85 -90.1 Q37.45 -93.75 41.85 -90.25 42.6 -89.65 42.7 -88.6 43.35 -83.05 37.4 -81.2 32.2 -79.6 27.4 -77.2 20.75 -73.95 13.65 -73.15 11.55 -72.9 11.5 -74.95 11.35 -82.4 10.5 -89.6 9.15 -78.8 6.35 -68.35 5.2 -64.2 4.95 -59.95 L4.45 -56.0 Q5.4 -55.45 5.75 -54.15 L5.8 -53.75 Q15.65 -43.6 21.15 -31.05 21.75 -29.6 21.25 -28.1 20.65 -26.35 19.6 -24.9 L19.25 -23.35 Q19.05 -22.6 18.45 -22.15 17.35 -19.45 16.75 -16.65 16.5 -15.55 15.8 -14.65 14.7 -10.15 13.9 -5.6 13.7 -4.15 13.15 -2.8 L24.2 -1.75 Q27.65 -1.35 26.4 1.65 25.85 3.05 24.2 3.05 L8.3 2.4 Q7.3 2.35 7.3 1.3 7.15 -3.75 8.55 -8.7 L9.8 -13.75 Q10.35 -16.25 11.45 -18.45 12.6 -22.7 14.3 -26.8 14.85 -28.1 15.8 -29.15 L15.85 -29.5 15.95 -29.9 16.05 -30.3 Q10.9 -39.7 3.4 -47.7 L2.95 -44.8 Q2.0 -39.35 0.5 -34.15 0.6 -28.2 -4.75 -24.5 L-5.35 -23.9 Q-13.5 -13.2 -20.15 -1.45 -13.5 -3.55 -7.55 -1.2 -7.1 -1.0 -7.15 -0.45 -7.5 3.8 -12.7 3.3 L-15.75 3.65 Q-21.45 5.5 -26.15 2.75 -27.0 2.25 -26.75 1.2 -25.15 -5.35 -21.15 -11.15 L-12.8 -22.95 Q-9.3 -28.45 -4.75 -33.2 L-4.8 -34.8 -4.6 -36.35 -4.35 -36.75 -3.7 -37.55 Q-2.5 -44.8 -2.25 -52.2 L-2.15 -53.05 -2.15 -53.25 Q-2.1 -54.45 -1.2 -55.2 0.3 -68.05 3.25 -80.6 L3.95 -83.6 Q5.05 -87.85 5.4 -92.3 L-0.1 -91.05 Q-1.6 -90.7 -2.25 -92.15 -2.9 -93.45 -2.5 -94.85 L5.6 -103.2 7.75 -105.0 8.3 -105.0 8.55 -105.9 9.15 -106.75 8.3 -106.85 8.35 -106.9 6.9 -108.15 Q3.45 -111.6 3.45 -116.5 3.45 -121.4 6.9 -124.85 10.35 -128.3 15.25 -128.3 M15.35 -105.0 L16.0 -105.0 15.35 -105.2 15.35 -105.0" fill="#000000" fill-rule="evenodd" stroke="none"/>
  </g>
</svg>
