<?xml version="1.0" encoding="UTF-8" standalone="no"?>
<svg xmlns:ffdec="https://www.free-decompiler.com/flash" xmlns:xlink="http://www.w3.org/1999/xlink" ffdec:objectType="shape" height="35.0px" width="37.0px" xmlns="http://www.w3.org/2000/svg">
  <g transform="matrix(1.0, 0.0, 0.0, 1.0, 18.5, 17.5)">
    <path d="M1.95 -17.35 L2.0 -17.5 3.9 -16.15 4.5 -15.5 4.5 -14.0 4.5 -12.5 Q2.35 -10.05 0.75 -7.25 L-0.5 -6.5 -0.7 -5.3 9.55 2.45 10.75 3.25 Q12.0 6.55 14.85 8.7 L16.25 10.0 16.45 10.75 16.5 11.5 17.75 12.25 Q18.8 13.55 18.35 15.2 L17.75 16.75 17.0 17.15 16.0 17.5 Q13.35 16.45 11.5 14.0 L11.5 13.25 11.5 12.5 Q4.4 5.7 -3.25 -0.8 L-3.5 -0.5 -3.55 0.25 -3.75 1.75 Q-8.05 7.1 -11.75 13.0 L-12.25 13.75 -13.0 14.15 -14.0 14.5 -16.25 13.25 -16.45 11.75 -16.5 10.25 Q-14.65 5.7 -10.75 3.25 L-10.55 2.5 -10.5 1.0 -9.7 0.3 -8.75 -0.5 -7.9 -3.55 -7.6 -4.45 -16.1 -11.35 Q-17.1 -12.15 -18.25 -12.75 -18.65 -13.85 -18.4 -15.0 L-18.0 -16.5 -17.45 -16.85 -16.05 -17.35 -16.0 -17.5 -5.35 -8.9 Q-2.05 -12.7 0.5 -17.0 L1.95 -17.35" fill="#000000" fill-rule="evenodd" stroke="none"/>
  </g>
</svg>
