<?xml version="1.0" encoding="UTF-8" standalone="no"?>
<svg xmlns:ffdec="https://www.free-decompiler.com/flash" xmlns:xlink="http://www.w3.org/1999/xlink" ffdec:objectType="shape" height="174.95px" width="140.1px" xmlns="http://www.w3.org/2000/svg">
  <g transform="matrix(1.0, 0.0, 0.0, 1.0, 44.5, 147.8)">
    <path d="M86.65 -101.4 L86.65 -100.6 Q86.5 -99.35 86.95 -98.25 L87.7 -97.45 95.25 -89.15 95.35 -88.75 95.6 -87.95 Q88.6 -88.9 82.05 -91.9 77.45 -94.0 74.0 -91.5 L73.95 -89.55 73.5 -84.4 Q71.25 -82.3 67.7 -83.75 L62.95 -87.95 Q58.35 -92.45 52.7 -91.4 52.25 -90.7 52.3 -89.8 L52.45 -85.45 Q52.05 -84.7 51.35 -84.3 48.2 -85.1 46.1 -83.25 45.25 -79.0 45.7 -74.55 46.25 -69.0 44.5 -64.25 42.5 -64.25 40.75 -65.2 35.65 -68.0 31.9 -65.05 L31.85 -64.25 Q31.8 -63.65 32.0 -63.1 32.8 -62.6 32.95 -61.9 32.95 -60.9 33.1 -59.95 33.6 -57.45 33.45 -54.8 L31.6 -54.65 Q26.5 -57.95 22.9 -54.1 L22.9 -53.35 22.9 -50.55 Q24.15 -48.15 26.2 -46.6 29.9 -42.0 34.5 -38.7 L30.85 -36.35 30.8 -35.55 Q30.65 -33.85 31.1 -32.4 L33.35 -30.7 34.0 -30.2 Q38.35 -27.4 38.6 -22.5 34.7 -20.4 31.35 -17.75 L31.3 -17.0 Q31.2 -15.9 31.6 -15.0 36.2 -12.3 39.65 -8.3 37.8 -7.65 36.6 -6.2 L36.6 -5.4 36.6 -3.8 39.0 -1.45 39.2 -1.05 39.5 -0.25 41.35 0.95 Q45.2 4.85 49.8 8.45 L37.5 6.7 Q30.5 5.45 24.0 6.85 L23.95 7.65 24.1 9.6 25.15 10.4 25.3 10.8 25.55 11.6 Q19.75 10.45 13.7 11.4 12.2 11.65 11.35 12.8 L11.35 13.2 11.35 13.6 Q10.8 14.1 10.7 14.75 L9.25 19.5 7.4 19.65 Q6.15 19.2 5.3 18.15 1.95 13.8 -1.05 17.15 -3.05 18.2 -3.95 20.3 L-3.95 20.7 -3.95 21.5 -4.2 21.9 Q-5.9 25.4 -8.95 27.15 -11.45 25.25 -13.2 22.7 -16.7 17.75 -20.55 13.45 -24.3 15.25 -27.65 17.65 L-28.2 17.55 -28.7 16.7 Q-29.95 13.75 -31.85 11.2 L-31.85 10.4 Q-31.85 8.95 -32.4 7.65 L-33.05 7.25 Q-37.7 7.15 -41.6 10.55 -39.8 7.2 -39.4 3.4 -38.95 -1.25 -39.65 -5.65 L-40.3 -6.05 -40.35 -6.45 -40.45 -6.85 Q-41.9 -8.6 -44.25 -9.1 -44.65 -9.6 -44.4 -10.2 -43.3 -12.55 -42.55 -15.0 -40.1 -18.3 -36.5 -20.35 L-29.55 -24.4 Q-24.0 -27.7 -29.1 -31.6 -31.65 -34.55 -34.65 -36.75 -31.5 -39.8 -26.35 -40.15 -20.95 -40.5 -16.7 -43.2 -16.25 -45.05 -16.9 -46.8 -18.5 -51.05 -20.55 -55.05 -19.35 -56.35 -17.1 -56.35 L-16.9 -56.65 -16.45 -57.4 Q-14.7 -57.65 -13.15 -58.6 -12.55 -59.0 -12.35 -59.55 -10.55 -63.85 -13.7 -68.15 -16.95 -72.55 -18.95 -76.75 -14.9 -80.45 -9.75 -82.7 -8.5 -82.75 -7.5 -83.35 L-7.25 -83.75 -5.5 -86.1 Q-5.45 -86.95 -5.9 -87.6 -9.0 -92.0 -12.9 -96.0 L-12.85 -96.8 Q-12.75 -97.7 -13.3 -98.35 L-13.15 -98.75 -12.9 -99.55 Q-9.5 -101.25 -6.0 -102.5 -3.6 -103.4 -4.45 -105.85 -5.65 -109.4 -10.25 -109.15 L-10.3 -109.55 -10.15 -110.75 -9.75 -111.15 -9.2 -111.95 -9.05 -112.65 Q-7.3 -116.1 -4.6 -119.05 L-4.5 -119.45 -4.45 -119.85 -3.7 -120.7 Q-2.55 -122.4 -2.9 -124.6 L-6.45 -127.35 -6.25 -127.7 1.85 -135.65 1.85 -136.45 1.85 -138.8 1.55 -139.15 Q0.8 -139.85 0.55 -140.8 -0.65 -141.5 -0.9 -142.75 3.4 -141.25 8.15 -140.1 L11.05 -139.75 Q19.6 -139.75 23.85 -147.65 L24.35 -147.6 Q25.2 -146.5 25.55 -145.1 26.75 -140.75 28.7 -136.7 L28.7 -135.9 Q28.65 -135.3 28.85 -134.7 33.05 -132.7 37.45 -134.8 40.15 -136.1 41.9 -135.8 L41.9 -135.0 41.9 -132.2 41.35 -131.45 Q40.1 -129.65 40.3 -127.5 L39.75 -126.7 Q38.5 -124.95 38.6 -122.75 L38.3 -122.35 37.65 -121.55 37.65 -121.15 37.65 -120.75 37.4 -120.35 37.15 -119.95 37.15 -119.6 Q37.05 -118.95 37.3 -118.4 38.65 -117.1 40.05 -118.25 L40.15 -119.05 40.3 -120.25 41.35 -120.65 41.6 -120.9 42.0 -121.7 Q45.25 -122.95 48.45 -123.55 L49.15 -122.65 52.35 -117.0 Q52.6 -116.5 53.0 -116.65 56.3 -118.1 58.9 -121.15 61.15 -123.45 64.15 -122.1 67.65 -118.05 70.85 -121.4 L70.85 -121.8 70.85 -122.2 71.3 -122.6 Q71.85 -123.05 72.05 -123.8 74.25 -126.45 77.05 -128.55 77.55 -130.35 78.75 -129.6 L78.55 -120.5 Q78.3 -115.2 79.8 -110.25 80.65 -109.15 81.85 -108.65 86.9 -106.35 92.2 -104.45 89.2 -103.1 86.65 -101.4" fill="#ffff00" fill-opacity="0.5019608" fill-rule="evenodd" stroke="none"/>
  </g>
</svg>
