<?xml version="1.0" encoding="UTF-8" standalone="no"?>
<svg xmlns:ffdec="https://www.free-decompiler.com/flash" xmlns:xlink="http://www.w3.org/1999/xlink" ffdec:objectType="shape" height="175.5px" width="109.7px" xmlns="http://www.w3.org/2000/svg">
  <g transform="matrix(1.0, 0.0, 0.0, 1.0, 33.85, 147.3)">
    <path d="M35.55 -136.7 L35.55 -136.3 Q35.45 -133.1 35.7 -130.0 36.3 -129.65 36.95 -129.5 L42.7 -128.65 41.85 -127.5 31.9 -115.1 Q32.65 -113.85 34.25 -113.5 36.75 -114.05 38.75 -115.65 41.1 -117.5 42.95 -117.2 43.2 -116.25 44.25 -116.15 50.75 -123.4 58.9 -129.2 60.5 -128.4 60.35 -126.55 L63.5 -122.6 Q63.35 -121.95 63.75 -121.4 66.7 -117.35 71.4 -119.45 L70.85 -118.5 Q69.35 -116.5 68.15 -114.35 66.65 -111.55 68.15 -109.1 71.2 -104.25 75.85 -100.6 70.1 -99.75 65.6 -96.4 L65.6 -96.0 Q65.5 -94.8 65.75 -93.65 68.35 -90.4 71.0 -87.55 L56.95 -87.95 Q55.5 -87.75 55.05 -86.25 54.9 -84.35 53.75 -82.7 L52.3 -82.85 51.05 -83.35 Q50.25 -83.6 49.6 -84.05 44.95 -86.95 41.1 -83.95 39.8 -82.95 38.2 -83.55 34.25 -85.15 30.55 -84.0 30.75 -80.4 28.35 -77.8 27.95 -77.35 27.55 -77.5 23.8 -78.75 21.35 -77.15 21.35 -75.6 21.5 -74.0 22.05 -67.7 20.3 -62.15 20.1 -60.3 20.9 -58.8 23.8 -53.5 28.6 -49.5 28.25 -45.65 24.5 -43.2 L24.5 -42.8 24.5 -40.05 25.55 -38.85 Q25.4 -38.15 25.8 -37.65 31.4 -33.1 33.45 -26.2 L32.8 -24.6 Q31.3 -24.05 30.85 -22.5 L30.85 -22.1 30.85 -18.95 32.0 -18.15 40.7 -12.25 Q40.85 -11.6 41.25 -11.05 L40.45 -9.1 Q38.7 -8.45 38.35 -6.7 35.25 -4.25 33.45 -0.8 L33.45 -0.4 Q33.35 0.45 33.6 1.2 L37.55 3.95 37.65 4.75 Q38.5 5.45 39.5 5.95 40.2 7.15 40.3 7.9 35.55 7.85 32.95 11.35 33.1 13.15 31.9 14.5 L31.85 14.9 Q31.65 18.55 32.4 22.0 33.05 22.55 32.8 23.2 26.3 23.0 20.15 20.4 L17.5 19.05 Q12.05 15.45 7.1 17.9 6.55 22.55 5.0 27.0 L3.7 28.2 Q-1.55 23.05 -5.85 17.15 -6.8 15.85 -8.2 16.55 -14.0 19.4 -19.35 23.05 -20.8 19.65 -21.85 16.1 -23.35 12.2 -27.8 13.8 -30.4 14.7 -31.45 13.85 -30.35 12.0 -30.15 9.9 -28.9 8.7 -28.4 7.05 -26.7 1.35 -27.25 -4.75 L-33.85 -9.85 Q-32.25 -11.6 -31.75 -13.8 -26.85 -20.0 -20.65 -24.9 -18.2 -28.85 -22.4 -30.4 -26.25 -33.55 -30.3 -35.95 -23.75 -46.1 -12.0 -51.6 L-11.9 -52.0 -11.85 -54.0 Q-13.15 -56.9 -16.3 -57.2 -21.4 -57.65 -23.95 -61.35 -23.5 -62.1 -23.45 -62.95 -20.45 -66.2 -16.85 -68.75 -16.6 -69.3 -16.6 -69.95 -16.6 -70.5 -16.9 -70.85 -20.35 -74.8 -25.55 -76.9 -26.25 -77.7 -26.6 -78.75 L-25.8 -80.7 Q-20.6 -83.9 -15.65 -87.45 -14.9 -89.35 -15.0 -91.4 -17.45 -94.5 -21.2 -95.75 -22.95 -96.8 -23.45 -97.7 -21.6 -99.45 -19.2 -100.55 -12.45 -103.8 -11.3 -110.35 L-15.0 -113.25 -13.85 -114.15 -5.15 -121.3 Q-4.9 -121.85 -5.0 -122.5 -8.25 -125.05 -9.2 -128.8 -5.6 -129.65 -3.0 -132.2 L-2.95 -132.6 -2.9 -134.6 -3.8 -135.8 Q-4.4 -138.15 -5.9 -140.1 -3.9 -140.35 -2.05 -139.5 3.0 -137.25 7.9 -137.75 8.15 -138.65 8.7 -139.35 L8.7 -139.75 Q9.15 -143.55 9.75 -147.25 L9.75 -147.3 10.55 -147.25 Q16.25 -143.5 20.8 -138.3 L20.8 -137.9 20.8 -137.5 22.0 -136.3 Q22.65 -135.5 23.55 -135.95 28.35 -138.55 31.2 -143.4 L35.55 -136.7" fill="#ffff00" fill-opacity="0.5019608" fill-rule="evenodd" stroke="none"/>
  </g>
</svg>
