<?xml version="1.0" encoding="UTF-8" standalone="no"?>
<svg xmlns:ffdec="https://www.free-decompiler.com/flash" xmlns:xlink="http://www.w3.org/1999/xlink" ffdec:objectType="shape" height="132.9px" width="82.15px" xmlns="http://www.w3.org/2000/svg">
  <g transform="matrix(1.0, 0.0, 0.0, 1.0, 21.7, 128.3)">
    <path d="M15.25 -128.3 Q20.15 -128.3 23.6 -124.85 27.05 -121.4 27.05 -116.5 27.05 -111.6 23.6 -108.15 20.95 -105.5 17.4 -104.85 L17.45 -104.85 Q22.95 -104.65 28.25 -103.35 40.25 -103.3 51.4 -107.8 L55.3 -109.05 Q62.25 -107.9 59.8 -101.4 59.3 -100.15 57.95 -99.95 54.45 -99.45 52.95 -102.25 44.0 -99.3 34.9 -98.45 33.5 -96.5 30.0 -97.3 L26.1 -98.1 13.65 -99.25 10.95 -88.15 10.45 -85.45 Q9.55 -79.95 7.9 -74.85 L5.75 -60.65 5.25 -59.4 Q5.4 -56.6 4.9 -54.05 7.1 -52.45 8.35 -49.55 L9.9 -46.7 14.2 -39.55 Q18.8 -31.55 21.2 -22.85 21.55 -21.55 20.55 -20.55 20.1 -13.35 18.65 -6.35 L17.65 -2.8 Q20.35 -2.85 22.85 -0.7 24.0 0.2 23.5 1.65 22.55 4.25 19.8 3.75 L13.1 2.45 Q11.85 2.2 11.9 0.9 12.05 -4.6 13.65 -9.8 16.35 -18.5 14.2 -27.15 13.7 -27.9 13.35 -28.75 13.1 -29.3 13.15 -29.9 L12.9 -30.3 12.25 -31.1 12.15 -31.5 12.05 -31.9 11.95 -32.3 Q11.35 -32.75 11.15 -33.45 10.95 -34.05 11.05 -34.65 L4.1 -44.95 3.8 -45.35 3.7 -45.75 3.65 -46.05 Q2.65 -43.6 2.5 -40.85 2.05 -33.0 0.4 -25.45 0.0 -23.75 -1.7 -23.05 -7.45 -14.85 -12.65 -6.5 -13.25 -4.15 -14.7 -2.1 L-15.4 -0.95 Q-12.75 -0.9 -9.65 0.2 -7.2 1.0 -8.3 3.3 -8.9 4.65 -10.55 4.6 L-20.1 4.1 Q-20.9 4.0 -21.2 3.2 -22.6 -0.8 -20.05 -3.85 -17.6 -9.5 -14.0 -14.5 L-13.7 -14.9 Q-9.9 -21.75 -4.9 -27.95 L-1.0 -50.2 Q-1.5 -51.55 -1.15 -53.25 -0.3 -58.15 0.9 -62.7 1.5 -69.1 2.4 -75.4 L2.75 -76.95 3.05 -77.3 3.7 -78.1 Q4.35 -83.6 5.3 -89.05 L-0.85 -79.95 Q-2.9 -76.9 -6.35 -76.85 -9.05 -76.8 -8.85 -79.45 -8.25 -86.45 -6.75 -93.25 L-6.45 -93.65 -6.1 -94.1 -5.8 -94.45 Q-5.2 -99.2 -2.65 -103.25 -2.15 -104.1 -1.2 -104.6 L-0.8 -104.7 0.0 -104.8 0.0 -104.85 Q5.55 -103.8 3.0 -98.3 2.15 -96.4 0.1 -95.75 -0.4 -93.1 -1.45 -90.55 L-2.1 -88.8 Q2.4 -94.7 7.5 -100.15 L8.25 -103.45 9.25 -106.7 8.3 -106.85 8.35 -106.9 6.9 -108.15 Q3.45 -111.6 3.45 -116.5 3.45 -121.4 6.9 -124.85 10.35 -128.3 15.25 -128.3" fill="#000000" fill-rule="evenodd" stroke="none"/>
  </g>
</svg>
