<?xml version="1.0" encoding="UTF-8" standalone="no"?>
<svg xmlns:ffdec="https://www.free-decompiler.com/flash" xmlns:xlink="http://www.w3.org/1999/xlink" ffdec:objectType="shape" height="170.05px" width="114.95px" xmlns="http://www.w3.org/2000/svg">
  <g transform="matrix(1.0, 0.0, 0.0, 1.0, 57.25, 147.25)">
    <path d="M40.3 -127.2 L40.25 -126.85 Q39.45 -122.6 39.8 -118.15 40.4 -117.0 41.65 -117.0 49.35 -116.95 54.65 -112.35 53.7 -108.85 50.85 -106.4 L50.85 -106.0 50.85 -104.45 Q51.5 -103.5 52.45 -102.85 L52.55 -102.05 Q53.3 -101.6 53.35 -100.9 L52.45 -100.1 Q49.55 -99.95 47.7 -98.0 47.6 -96.55 47.8 -95.2 53.75 -89.2 57.7 -82.15 52.5 -83.2 49.25 -79.95 L49.25 -79.15 Q48.65 -72.65 50.85 -66.9 L49.8 -66.9 Q47.8 -68.7 44.4 -69.0 43.25 -69.15 42.5 -68.65 39.3 -66.7 35.95 -66.5 34.3 -67.1 33.3 -68.45 30.55 -72.15 26.85 -71.35 26.35 -69.65 26.75 -67.8 L28.2 -65.05 28.05 -63.45 Q24.05 -62.35 20.8 -60.05 20.7 -58.65 20.95 -57.3 21.85 -56.8 22.4 -56.1 L22.4 -55.7 22.4 -55.3 27.55 -50.55 Q27.9 -49.7 27.35 -49.0 24.1 -44.9 21.35 -40.3 L21.35 -39.9 21.35 -37.9 Q26.2 -35.05 31.2 -32.65 27.35 -27.4 21.85 -23.55 21.8 -22.75 22.0 -22.0 23.7 -20.95 25.8 -21.0 31.95 -21.15 36.6 -17.9 36.8 -17.0 36.35 -16.3 31.1 -12.4 25.55 -9.2 25.45 -8.2 25.7 -7.25 34.45 -1.6 40.85 6.35 36.3 5.25 33.45 8.05 33.55 8.85 33.25 9.65 L32.8 11.25 Q32.15 16.85 30.55 22.15 27.6 17.9 23.25 14.9 22.5 14.35 21.7 14.5 12.25 15.8 5.4 22.8 L4.2 22.4 Q1.7 18.65 0.0 14.5 -5.7 12.35 -10.85 16.0 -15.85 19.55 -20.95 19.65 L-22.05 17.6 Q-22.85 15.75 -24.8 15.4 -31.4 14.15 -37.65 11.6 -35.15 10.85 -33.95 8.55 -34.3 6.05 -36.2 4.35 -38.85 1.9 -40.3 -0.5 -39.7 -1.1 -39.0 -1.35 -34.15 -3.0 -30.8 -6.2 -33.95 -10.3 -38.7 -12.9 -39.45 -14.65 -39.1 -16.45 L-37.4 -17.25 -35.8 -17.65 Q-29.9 -17.75 -25.7 -21.05 -25.45 -21.85 -25.9 -22.35 -28.9 -25.85 -32.8 -28.85 L-33.45 -31.2 -32.3 -31.75 -30.45 -32.55 Q-24.75 -34.25 -19.9 -37.4 -19.65 -38.55 -19.75 -39.75 -24.7 -43.35 -30.0 -46.6 -24.8 -51.65 -17.5 -54.05 -9.9 -56.55 -4.45 -61.65 -5.5 -63.95 -8.15 -63.85 L-8.2 -64.65 Q-9.2 -71.3 -10.8 -77.7 L-11.45 -78.05 Q-15.7 -77.8 -20.0 -75.35 L-25.0 -75.7 -24.9 -76.9 Q-24.6 -81.85 -27.4 -85.05 -30.1 -84.3 -32.4 -82.7 L-34.5 -82.85 -34.5 -83.25 -34.5 -84.0 -35.05 -84.8 Q-34.9 -85.5 -35.3 -86.0 -35.0 -86.55 -35.05 -87.2 -35.45 -88.0 -36.35 -88.05 L-51.5 -88.5 -51.35 -88.75 -51.1 -89.55 Q-47.4 -94.7 -42.4 -98.35 -42.35 -99.1 -43.1 -99.3 L-46.95 -100.55 Q-52.2 -102.55 -57.25 -104.85 L-50.35 -105.65 -45.85 -104.55 Q-44.9 -104.75 -44.5 -105.6 L-44.55 -106.8 -44.9 -117.1 -39.4 -111.9 Q-35.85 -108.45 -32.9 -111.4 L-32.8 -112.15 Q-30.45 -118.2 -31.3 -125.05 L-30.25 -119.45 -28.75 -113.4 Q-28.2 -111.4 -26.8 -109.85 -23.3 -105.9 -19.5 -110.25 L-18.85 -109.85 Q-17.65 -108.0 -17.25 -105.9 -16.3 -100.4 -11.6 -101.4 L-11.3 -102.2 Q-8.0 -112.0 -11.3 -121.95 -12.3 -123.05 -12.9 -124.3 -9.2 -124.55 -5.8 -122.95 -1.45 -120.95 1.7 -123.25 2.05 -127.9 0.15 -132.25 -2.95 -139.35 -3.95 -146.95 -3.35 -147.55 -2.75 -146.85 3.3 -140.5 10.0 -135.1 L10.95 -135.5 11.1 -135.9 11.45 -143.4 13.3 -145.4 14.9 -145.5 Q21.05 -141.25 25.65 -134.9 30.05 -128.85 34.8 -123.55 37.5 -126.0 40.3 -127.2" fill="#ffff00" fill-opacity="0.5019608" fill-rule="evenodd" stroke="none"/>
  </g>
</svg>
