<?xml version="1.0" encoding="UTF-8" standalone="no"?>
<svg xmlns:ffdec="https://www.free-decompiler.com/flash" xmlns:xlink="http://www.w3.org/1999/xlink" ffdec:objectType="shape" height="133.0px" width="74.4px" xmlns="http://www.w3.org/2000/svg">
  <g transform="matrix(1.0, 0.0, 0.0, 1.0, 36.55, 128.3)">
    <path d="M12.05 -128.3 Q16.95 -128.3 20.4 -124.85 23.85 -121.4 23.85 -116.5 23.85 -111.6 20.4 -108.15 18.1 -105.85 15.25 -105.1 15.4 -103.8 15.15 -102.15 L14.95 -100.9 15.0 -100.85 Q17.1 -100.5 19.05 -97.7 L19.5 -96.95 Q25.0 -92.7 30.0 -87.85 L30.55 -87.85 Q30.75 -87.85 30.95 -88.0 31.2 -94.15 31.9 -100.25 L32.15 -103.8 Q27.95 -105.95 29.15 -110.9 29.45 -111.95 30.4 -112.5 L31.6 -112.7 31.6 -112.75 Q38.05 -112.65 37.85 -106.15 37.65 -100.35 37.1 -94.7 36.6 -89.5 35.65 -84.5 L35.3 -83.65 Q34.15 -77.6 29.5 -81.35 L23.1 -86.25 Q20.65 -88.05 18.55 -90.1 L18.45 -90.5 18.45 -90.9 16.55 -92.25 Q15.6 -92.7 15.25 -93.65 L13.9 -94.7 12.45 -86.9 Q10.7 -77.7 10.25 -68.25 10.2 -66.6 9.1 -65.5 8.9 -59.5 8.15 -53.6 8.05 -52.75 7.5 -52.05 7.85 -49.75 7.05 -48.85 L7.15 -47.45 Q7.15 -37.25 7.9 -27.25 8.2 -23.65 10.0 -20.55 11.4 -19.4 12.0 -17.75 L12.1 -17.0 Q16.85 -7.75 22.85 0.6 23.25 1.2 22.95 1.95 22.3 3.55 20.55 3.55 L13.6 3.0 Q12.55 2.85 12.35 1.8 11.7 -1.05 14.75 -1.75 11.7 -5.85 9.45 -10.45 7.9 -12.65 6.9 -15.2 L6.7 -15.95 Q2.45 -22.0 2.3 -29.4 2.2 -36.55 1.45 -43.6 -4.65 -30.35 -8.5 -16.35 -9.0 -14.65 -8.85 -12.9 L-7.7 1.3 Q-7.55 3.85 -10.0 4.35 -14.75 5.35 -18.8 3.45 -21.1 2.35 -20.4 0.0 -17.55 -2.7 -13.2 -1.35 -14.05 -10.8 -13.65 -20.3 -13.55 -22.7 -12.25 -24.65 L-11.85 -26.3 -11.45 -27.4 -11.2 -27.8 -10.55 -28.6 -7.5 -36.45 -7.0 -37.3 -5.25 -42.45 -4.35 -43.6 Q-3.4 -47.25 -1.2 -50.45 L-0.95 -51.1 1.2 -53.85 1.95 -54.55 2.35 -54.65 2.6 -54.7 Q3.95 -68.0 6.3 -81.0 7.6 -88.35 8.3 -95.75 L-7.9 -86.95 Q-10.25 -85.65 -12.45 -87.15 L-14.8 -88.75 -15.4 -89.3 -16.35 -89.5 Q-17.65 -89.6 -18.45 -90.65 -28.3 -93.3 -35.3 -100.25 -36.65 -101.6 -36.55 -103.55 -36.4 -106.9 -33.2 -107.5 -26.8 -107.05 -27.6 -100.9 L-27.65 -100.5 Q-21.6 -97.5 -15.3 -94.85 -12.3 -93.85 -9.5 -92.5 -0.2 -97.0 8.8 -101.9 L9.0 -105.95 9.0 -106.15 5.1 -106.85 5.15 -106.9 3.7 -108.15 Q0.25 -111.6 0.25 -116.5 0.25 -121.4 3.7 -124.85 7.15 -128.3 12.05 -128.3" fill="#000000" fill-rule="evenodd" stroke="none"/>
  </g>
</svg>
