<?xml version="1.0" encoding="UTF-8" standalone="no"?>
<svg xmlns:ffdec="https://www.free-decompiler.com/flash" xmlns:xlink="http://www.w3.org/1999/xlink" ffdec:objectType="shape" height="167.25px" width="93.4px" xmlns="http://www.w3.org/2000/svg">
  <g transform="matrix(1.0, 0.0, 0.0, 1.0, 46.5, 141.45)">
    <path d="M28.2 -134.2 L28.05 -131.05 Q27.7 -126.15 27.65 -121.15 L34.0 -114.45 Q32.9 -113.4 32.25 -112.05 L27.15 -107.2 Q27.05 -106.2 27.25 -105.2 L37.15 -101.25 Q42.25 -98.7 46.5 -96.8 42.15 -93.6 39.25 -89.3 L39.25 -88.9 39.25 -88.1 Q42.95 -85.5 46.9 -84.55 43.15 -83.55 40.85 -80.45 L40.85 -80.05 40.85 -79.65 40.3 -78.9 40.3 -78.5 40.3 -73.35 34.8 -77.3 Q32.35 -81.95 28.7 -79.0 28.6 -76.8 27.15 -75.05 L27.2 -74.7 Q27.35 -74.0 26.85 -73.75 23.45 -76.5 22.4 -80.35 22.0 -81.15 21.1 -81.4 18.25 -82.0 17.65 -79.8 18.25 -78.8 19.35 -78.2 L19.1 -76.25 18.7 -75.85 Q16.05 -76.25 14.5 -74.25 L14.5 -73.9 14.5 -72.3 15.0 -71.5 Q14.95 -70.7 15.15 -69.95 L16.35 -68.95 Q23.55 -64.55 28.7 -58.2 26.75 -57.35 25.05 -55.85 L25.0 -55.05 Q24.95 -54.05 25.45 -53.25 30.1 -46.3 37.4 -41.6 L35.2 -41.45 Q26.75 -41.8 20.3 -37.25 L20.3 -36.85 20.3 -34.9 Q21.2 -33.5 22.8 -33.2 26.2 -30.7 29.25 -27.4 29.75 -24.3 28.2 -21.85 28.3 -20.85 28.05 -19.9 L27.65 -19.5 27.65 -19.1 27.65 -17.5 28.7 -16.3 39.65 -5.65 Q36.6 -5.25 34.5 -3.15 L34.5 -2.75 34.5 -1.55 35.05 -0.8 35.05 -0.4 35.05 0.0 Q38.8 3.65 41.9 7.9 33.9 6.75 30.85 13.7 L27.8 13.7 Q26.35 11.9 24.1 11.75 22.65 10.65 21.05 9.85 18.15 8.35 17.55 11.3 16.25 17.8 16.6 24.65 L16.4 24.6 Q7.15 18.55 -1.05 11.35 -3.8 12.4 -3.95 15.3 -6.5 18.95 -8.55 22.8 -10.2 24.95 -11.7 25.8 L-12.0 24.25 Q-12.9 23.4 -13.45 22.35 -14.85 19.55 -16.5 16.9 -16.8 16.4 -17.2 16.55 -21.0 18.05 -24.5 18.3 L-24.45 17.55 Q-24.1 13.15 -25.55 9.25 -27.2 7.7 -29.25 7.9 -29.9 3.75 -31.85 0.4 -32.15 -0.95 -32.9 -1.95 -31.65 -3.15 -30.05 -3.65 L-28.7 -3.9 Q-23.1 -4.2 -24.25 -9.2 L-26.85 -12.35 Q-22.6 -13.85 -18.85 -16.3 -18.6 -16.9 -18.65 -17.5 -18.7 -18.3 -19.05 -18.8 -23.85 -25.3 -30.15 -30.55 L-25.25 -31.55 Q-19.3 -32.25 -17.65 -37.15 L-25.8 -44.65 Q-19.35 -46.9 -13.95 -50.85 L-13.95 -51.2 -13.95 -52.4 Q-8.5 -55.7 -4.45 -60.3 L-4.65 -60.9 Q-7.7 -64.15 -11.3 -66.75 -9.9 -69.25 -7.5 -71.1 -6.3 -71.55 -5.9 -72.7 -4.45 -73.65 -3.4 -75.05 L-3.4 -75.45 -3.4 -76.65 Q-4.6 -78.4 -6.8 -77.5 L-8.2 -77.1 -18.15 -75.45 Q-17.9 -78.35 -18.55 -81.0 -18.75 -81.7 -19.35 -81.75 -23.9 -81.85 -28.55 -80.25 -32.3 -78.95 -35.4 -78.9 L-35.75 -81.3 Q-36.1 -85.8 -36.1 -90.35 -36.4 -90.75 -36.75 -90.75 L-44.0 -91.5 -43.95 -93.95 Q-43.25 -98.4 -43.45 -103.0 -44.75 -104.8 -46.5 -106.15 -41.4 -107.15 -37.65 -110.35 L-37.65 -114.3 Q-37.65 -115.1 -38.05 -115.65 -40.05 -118.7 -40.7 -121.8 -36.25 -120.8 -32.0 -118.65 -31.65 -118.35 -31.3 -118.3 -27.3 -117.9 -25.55 -122.2 -22.6 -121.0 -20.15 -118.75 -16.05 -114.95 -11.2 -114.95 -8.55 -119.85 -12.9 -123.25 L-12.9 -123.65 -12.9 -124.05 Q-16.05 -126.9 -18.15 -130.65 -11.45 -131.05 -6.05 -134.05 L-6.05 -134.45 -6.05 -141.2 Q-5.25 -141.8 -4.35 -141.05 L0.0 -139.5 Q1.2 -139.05 2.2 -138.4 10.9 -132.6 17.65 -140.1 L18.7 -138.95 Q18.55 -138.25 18.95 -137.75 L19.8 -137.0 20.75 -136.2 Q24.05 -133.7 28.2 -134.2" fill="#ffff00" fill-opacity="0.5019608" fill-rule="evenodd" stroke="none"/>
  </g>
</svg>
