<?xml version="1.0" encoding="UTF-8" standalone="no"?>
<svg xmlns:ffdec="https://www.free-decompiler.com/flash" xmlns:xlink="http://www.w3.org/1999/xlink" ffdec:objectType="shape" height="133.5px" width="59.65px" xmlns="http://www.w3.org/2000/svg">
  <g transform="matrix(1.0, 0.0, 0.0, 1.0, 28.7, 128.3)">
    <path d="M10.45 -128.3 Q15.35 -128.3 18.8 -124.85 22.25 -121.4 22.25 -116.5 22.25 -111.6 18.8 -108.15 15.85 -105.2 11.8 -104.75 L11.65 -104.8 11.5 -103.2 11.25 -100.85 Q14.45 -101.2 17.2 -98.05 18.65 -96.4 20.65 -95.35 26.65 -92.15 30.65 -87.2 31.3 -86.4 30.45 -85.6 27.95 -83.1 24.55 -85.05 21.35 -86.95 18.45 -89.6 L11.4 -92.7 12.45 -66.15 Q12.6 -62.05 11.75 -58.25 14.35 -56.0 13.2 -51.55 12.6 -49.35 12.5 -46.9 11.95 -35.5 12.4 -24.4 12.45 -22.4 13.5 -20.65 19.05 -11.05 23.7 -1.1 26.2 2.75 21.5 3.95 15.0 5.6 9.55 3.05 8.15 2.4 8.4 0.75 L8.55 0.0 Q9.75 -1.95 12.1 -1.75 L17.5 -1.35 Q16.15 -3.35 15.35 -5.7 L15.15 -6.5 Q13.8 -8.75 12.85 -11.25 L12.65 -12.0 Q11.15 -13.9 9.85 -15.95 L9.6 -16.35 9.5 -16.75 9.45 -17.55 9.35 -17.95 Q4.4 -23.45 6.35 -30.3 6.85 -31.95 6.8 -33.75 6.6 -40.35 7.0 -46.85 -1.1 -37.55 -8.65 -27.9 L-10.3 -25.55 -9.65 -19.6 -9.5 -18.05 Q-8.35 -13.55 -6.8 -9.05 -4.65 -2.85 -5.3 3.65 -5.4 4.4 -6.15 4.6 -13.55 6.3 -20.35 3.2 -22.1 2.4 -21.5 0.5 -18.15 -2.45 -13.1 -0.8 L-10.8 -0.3 Q-11.7 -6.2 -13.35 -11.85 L-13.7 -14.5 Q-15.8 -20.3 -15.45 -26.75 -15.3 -28.65 -14.25 -30.2 -7.85 -39.35 0.4 -47.3 L0.5 -47.7 0.55 -48.1 0.65 -48.5 Q4.0 -51.55 6.7 -55.2 L6.8 -55.6 6.85 -56.0 6.95 -56.35 Q6.1 -57.65 6.35 -59.75 7.2 -67.7 6.85 -75.5 L6.15 -91.7 6.05 -91.6 Q5.45 -90.9 4.45 -90.55 L1.65 -90.35 -2.55 -87.15 Q-8.35 -82.6 -13.9 -87.5 -16.5 -89.75 -18.7 -92.2 -26.3 -96.5 -28.55 -104.45 -29.1 -106.55 -27.65 -108.3 L-26.5 -109.35 -26.1 -109.45 -25.3 -109.55 -25.3 -109.6 Q-18.5 -109.5 -20.05 -103.4 -20.3 -102.5 -20.95 -101.85 L-18.35 -98.9 -16.85 -97.5 Q-12.45 -94.5 -8.2 -90.9 -8.05 -90.75 -7.9 -90.75 L-7.25 -90.75 -1.75 -94.95 -1.45 -96.95 Q-1.6 -97.85 -1.35 -98.9 -0.75 -101.4 1.55 -101.7 L5.85 -101.05 5.7 -106.5 3.5 -106.85 3.55 -106.9 2.1 -108.15 Q-1.35 -111.6 -1.35 -116.5 -1.35 -121.4 2.1 -124.85 5.55 -128.3 10.45 -128.3" fill="#000000" fill-rule="evenodd" stroke="none"/>
  </g>
</svg>
