<?xml version="1.0" encoding="UTF-8" standalone="no"?>
<svg xmlns:ffdec="https://www.free-decompiler.com/flash" xmlns:xlink="http://www.w3.org/1999/xlink" ffdec:objectType="shape" height="164.6px" width="81.5px" xmlns="http://www.w3.org/2000/svg">
  <g transform="matrix(1.0, 0.0, 0.0, 1.0, 38.7, 139.35)">
    <path d="M22.45 -129.3 Q23.05 -128.15 24.2 -128.25 L31.35 -128.65 31.35 -127.5 Q31.25 -126.05 31.4 -124.65 31.9 -119.8 31.9 -114.85 32.8 -113.6 33.05 -112.05 L33.5 -111.85 40.75 -110.75 40.7 -110.35 Q38.35 -108.25 36.6 -105.6 L36.6 -105.2 Q36.45 -103.75 36.9 -102.45 L42.8 -95.75 Q41.95 -93.7 39.5 -93.45 L29.5 -92.45 29.35 -92.05 Q29.15 -91.25 29.4 -90.45 30.05 -90.0 30.3 -89.3 L30.25 -88.5 Q30.05 -85.4 30.7 -82.55 L30.3 -82.15 21.1 -82.2 Q19.75 -82.15 19.25 -80.85 L19.25 -80.45 19.75 -76.9 20.9 -75.5 Q24.0 -70.4 27.65 -65.85 23.8 -62.95 24.5 -57.95 L25.05 -57.15 25.05 -56.75 25.05 -56.35 Q25.95 -55.75 26.35 -54.8 24.0 -54.5 22.9 -52.4 L22.85 -50.85 Q22.45 -45.25 26.1 -40.95 25.95 -40.25 26.35 -39.75 L27.15 -38.95 Q23.45 -38.75 20.8 -36.35 L20.8 -35.95 Q20.7 -34.75 20.95 -33.55 25.4 -28.85 28.7 -23.7 L27.65 -22.5 27.65 -22.1 27.65 -20.15 Q31.6 -14.55 37.15 -10.8 36.6 -10.4 36.05 -10.35 30.4 -9.75 26.1 -6.7 L26.05 -6.3 Q26.0 -4.9 26.2 -3.55 29.05 0.8 32.95 4.35 29.7 5.45 27.15 8.05 L27.15 8.85 27.15 13.6 Q27.75 14.1 27.55 14.75 L26.6 14.7 Q24.3 14.5 22.2 13.7 16.85 11.7 14.5 16.35 L14.5 17.15 14.5 21.1 13.05 21.2 Q12.1 20.6 11.05 20.15 10.25 18.65 8.45 18.2 7.25 18.55 6.25 19.4 4.0 21.3 1.9 23.55 -1.8 27.55 -5.25 22.05 -9.15 15.85 -14.1 21.1 -16.55 22.8 -19.2 23.7 -21.25 21.5 -22.9 19.0 L-22.9 18.6 -22.9 18.2 Q-25.45 15.8 -28.7 17.65 L-28.8 16.1 -29.9 7.4 Q-32.0 4.4 -35.95 5.3 L-36.6 4.5 -36.55 3.7 -35.4 -0.65 Q-32.6 -3.75 -30.4 -7.35 L-30.35 -8.15 Q-30.1 -12.85 -32.5 -16.85 L-33.85 -18.45 Q-34.35 -19.55 -34.25 -20.4 L-32.85 -20.9 -25.8 -21.75 Q-23.35 -21.9 -22.0 -23.7 -21.4 -26.4 -22.5 -28.95 -25.05 -35.15 -28.95 -40.7 -27.35 -41.9 -25.25 -41.95 -19.95 -42.15 -18.7 -46.1 L-18.95 -46.5 Q-22.8 -52.0 -27.65 -56.35 -24.35 -57.9 -22.5 -61.1 -21.95 -62.45 -22.25 -63.8 -23.05 -67.5 -27.25 -65.75 -30.25 -64.5 -32.4 -65.2 L-32.4 -66.75 Q-32.3 -71.35 -32.5 -75.85 -35.3 -79.05 -38.7 -80.7 -37.85 -81.35 -37.55 -82.3 -36.65 -82.5 -36.05 -83.05 -34.9 -84.2 -34.45 -85.75 -32.45 -92.4 -38.7 -96.4 -33.95 -98.2 -28.8 -96.65 -24.55 -95.35 -21.05 -96.65 L-20.95 -97.45 Q-21.15 -101.2 -21.7 -104.95 -21.25 -105.45 -21.25 -106.15 L-21.35 -114.05 -20.3 -114.85 Q-14.8 -114.55 -13.45 -118.8 L-16.6 -123.55 -16.65 -123.9 -19.2 -129.05 Q-14.4 -128.95 -10.8 -131.45 L-10.8 -131.85 -10.8 -133.0 -11.05 -133.4 Q-13.1 -136.15 -13.95 -139.35 -7.3 -138.6 -0.65 -136.35 5.7 -134.25 12.0 -134.45 L13.95 -137.25 13.95 -137.6 Q13.8 -138.5 14.35 -139.2 19.35 -135.5 22.45 -129.3" fill="#ffff00" fill-opacity="0.5019608" fill-rule="evenodd" stroke="none"/>
  </g>
</svg>
