<?xml version="1.0" encoding="UTF-8" standalone="no"?>
<svg xmlns:ffdec="https://www.free-decompiler.com/flash" xmlns:xlink="http://www.w3.org/1999/xlink" ffdec:objectType="shape" height="133.9px" width="53.4px" xmlns="http://www.w3.org/2000/svg">
  <g transform="matrix(1.0, 0.0, 0.0, 1.0, 25.2, 128.3)">
    <path d="M16.4 -124.85 Q19.85 -121.4 19.85 -116.5 19.85 -111.6 16.4 -108.15 L13.95 -106.2 13.1 -105.3 12.85 -105.1 12.9 -104.75 20.1 -103.4 Q23.3 -102.7 26.1 -101.0 30.1 -98.5 26.4 -97.55 19.9 -95.9 13.1 -95.8 13.3 -92.1 13.75 -88.45 14.2 -84.6 14.1 -80.65 13.85 -69.2 14.75 -58.1 17.45 -57.0 16.55 -54.9 16.65 -53.75 16.2 -52.2 L15.55 -49.6 Q14.35 -42.6 13.7 -35.35 L13.35 -28.2 Q13.25 -24.45 14.75 -21.1 17.65 -16.45 20.0 -11.6 21.2 -10.55 21.9 -9.2 L22.1 -8.45 Q26.35 -3.5 24.4 2.5 24.2 3.0 23.65 3.2 16.1 5.75 9.65 3.25 8.95 2.95 9.05 2.1 9.35 -0.6 12.1 -0.95 L19.5 -1.75 11.2 -16.45 Q7.3 -23.25 8.05 -31.4 L9.65 -47.35 1.9 -38.7 Q-0.25 -36.25 -2.8 -34.15 -6.95 -30.1 -6.9 -24.65 L-6.6 -19.15 -5.4 -10.8 -5.3 -9.65 Q-3.45 -4.35 -3.3 1.45 -3.15 6.35 -8.65 5.45 L-19.05 4.1 Q-19.85 4.0 -20.2 3.25 -20.8 1.9 -20.4 0.5 -18.0 -2.45 -13.6 -1.45 L-8.95 -0.8 Q-9.35 -2.75 -9.4 -4.75 L-9.6 -6.35 Q-13.05 -17.35 -12.5 -28.85 L-12.1 -30.05 Q-4.7 -41.5 5.35 -51.3 L6.5 -52.7 Q7.9 -54.75 9.7 -56.15 8.5 -59.15 8.7 -62.6 9.45 -76.1 8.6 -89.35 2.4 -82.15 -2.35 -73.9 -2.95 -72.85 -4.2 -72.7 -9.2 -72.25 -13.2 -74.85 -20.75 -77.4 -24.85 -83.95 -25.3 -84.65 -25.15 -85.6 -24.2 -91.55 -18.6 -88.25 -15.85 -86.6 -16.25 -83.4 L-16.2 -82.6 -13.75 -81.1 -13.45 -80.75 Q-9.35 -78.4 -5.8 -78.65 -3.65 -82.3 -1.15 -85.75 L-0.55 -86.55 Q3.25 -91.7 7.85 -96.65 7.15 -97.45 7.6 -98.95 L7.4 -99.85 7.1 -99.9 -5.4 -100.9 -6.35 -99.25 Q-8.5 -95.75 -12.6 -97.65 -15.35 -98.9 -14.75 -101.95 L-14.65 -102.75 -14.35 -103.1 Q-13.75 -103.6 -13.45 -104.3 L-12.85 -105.1 Q-12.0 -105.9 -10.8 -106.25 L-10.0 -106.45 3.0 -105.95 2.35 -106.65 2.3 -106.7 1.1 -106.85 1.15 -106.9 -0.3 -108.15 Q-3.75 -111.6 -3.75 -116.5 -3.75 -121.4 -0.3 -124.85 3.15 -128.3 8.05 -128.3 12.95 -128.3 16.4 -124.85" fill="#000000" fill-rule="evenodd" stroke="none"/>
  </g>
</svg>
