<?xml version="1.0" encoding="UTF-8" standalone="no"?>
<svg xmlns:ffdec="https://www.free-decompiler.com/flash" xmlns:xlink="http://www.w3.org/1999/xlink" ffdec:objectType="shape" height="175.05px" width="116.3px" xmlns="http://www.w3.org/2000/svg">
  <g transform="matrix(1.0, 0.0, 0.0, 1.0, 73.35, 145.4)">
    <path d="M21.75 -132.75 L21.85 -132.35 22.0 -131.55 27.65 -130.75 26.6 -129.6 26.6 -129.2 26.5 -128.4 26.15 -127.95 24.5 -125.25 24.5 -124.85 24.5 -123.25 25.15 -122.65 Q29.55 -119.9 32.4 -115.75 24.45 -113.4 17.15 -109.45 L17.15 -109.05 17.15 -107.45 Q19.65 -105.75 22.5 -104.55 25.5 -103.3 28.8 -102.7 37.15 -101.1 42.95 -94.8 35.55 -97.5 29.0 -94.05 L28.8 -93.25 Q28.6 -91.85 28.85 -90.45 L29.25 -90.05 Q30.2 -88.85 30.45 -87.3 L34.25 -82.65 Q37.15 -78.95 36.5 -74.25 31.55 -75.05 28.2 -72.15 L28.2 -71.35 Q28.15 -69.5 28.85 -67.8 29.5 -67.35 29.75 -66.65 L29.75 -66.25 29.75 -65.45 30.25 -64.65 Q31.1 -63.25 30.55 -61.9 25.95 -59.65 21.1 -58.2 20.65 -57.7 20.7 -57.0 L20.8 -53.85 22.7 -51.6 Q25.45 -47.65 28.3 -44.0 L26.6 -42.65 Q24.35 -42.4 22.55 -41.2 L22.25 -39.2 Q21.9 -36.1 23.85 -33.7 L23.95 -33.3 Q24.75 -30.85 26.6 -28.95 L26.65 -28.2 26.5 -26.2 25.8 -25.95 Q22.8 -24.65 21.35 -21.85 L21.35 -21.45 Q21.25 -20.65 21.45 -19.9 L22.25 -19.05 23.05 -18.15 32.55 -9.2 30.85 -7.25 30.85 -6.45 30.85 -4.85 33.0 -2.55 41.25 5.8 Q36.25 5.85 32.95 9.1 L32.95 9.5 32.95 11.05 Q33.6 11.95 33.85 13.05 34.45 15.7 35.45 18.05 30.55 18.15 25.85 16.55 22.0 15.25 19.75 17.9 L19.75 19.1 19.75 22.65 17.8 22.8 Q16.55 21.9 15.0 21.75 9.45 19.65 6.35 25.45 2.8 27.85 -0.1 24.25 -0.45 23.3 -1.3 22.65 L-1.3 22.25 -1.3 21.85 Q-2.7 20.0 -4.85 21.35 -10.4 24.8 -14.5 29.65 L-15.85 26.9 Q-17.2 23.35 -18.15 19.75 L-18.85 18.55 Q-19.35 17.45 -20.5 17.55 -26.1 18.2 -31.35 20.8 L-30.8 17.8 Q-30.3 14.9 -30.3 11.85 L-30.5 11.45 Q-31.3 9.6 -32.4 7.9 -32.4 6.45 -32.85 5.1 -33.75 2.3 -33.45 -0.8 -32.6 -2.95 -30.55 -3.55 L-30.2 -3.85 -29.9 -4.2 Q-26.7 -4.25 -23.85 -5.4 L-23.6 -5.8 Q-23.25 -6.6 -23.55 -7.35 L-24.35 -8.15 Q-26.6 -10.65 -28.2 -13.7 -24.2 -15.25 -22.0 -18.55 L-21.9 -18.95 Q-21.75 -19.75 -22.0 -20.55 -23.1 -22.35 -24.8 -23.35 -27.2 -24.8 -28.2 -26.35 L-27.4 -26.75 Q-21.75 -29.65 -16.7 -33.2 -16.5 -33.95 -16.9 -34.55 -19.75 -38.65 -23.3 -42.25 L-20.8 -43.7 Q-16.6 -43.9 -13.95 -46.6 L-13.9 -47.4 Q-13.55 -49.95 -15.8 -50.95 L-15.0 -51.6 Q-8.9 -52.75 -4.6 -57.0 L-4.35 -57.75 Q-3.85 -58.7 -3.95 -59.8 -5.0 -61.1 -6.85 -61.2 L-20.65 -61.75 -19.95 -64.05 Q-19.2 -66.55 -19.2 -69.25 -23.25 -71.6 -28.2 -69.55 L-30.3 -71.5 Q-30.2 -72.2 -30.5 -72.8 -31.7 -75.25 -33.3 -77.45 L-33.4 -77.85 -33.45 -78.2 Q-33.85 -79.05 -34.75 -79.3 -36.35 -79.0 -37.45 -77.9 L-46.6 -69.0 -47.65 -69.4 -48.15 -70.6 Q-48.75 -74.2 -49.8 -77.7 -51.1 -81.9 -56.1 -79.95 L-55.65 -88.25 Q-55.55 -89.2 -55.95 -90.05 -57.75 -94.1 -62.8 -91.65 L-62.9 -92.3 -62.95 -94.3 Q-62.3 -94.75 -62.0 -95.45 -61.2 -97.55 -61.35 -99.8 L-61.7 -100.15 -62.8 -101.15 -69.4 -108.5 -65.25 -109.3 Q-64.5 -109.5 -64.55 -110.25 -65.9 -115.85 -68.3 -121.25 -71.15 -127.6 -73.35 -134.35 -68.75 -132.2 -64.4 -129.75 -51.65 -122.5 -42.4 -111.95 L-42.4 -111.55 -42.4 -110.75 Q-41.8 -109.6 -40.55 -109.3 L-39.65 -109.7 -39.3 -110.5 -38.7 -112.45 Q-39.5 -113.25 -39.5 -114.05 L-39.4 -114.45 -39.25 -115.25 -38.3 -116.4 -38.2 -116.8 -37.9 -117.6 Q-36.35 -120.05 -33.95 -119.7 L-33.95 -119.3 -33.85 -118.9 Q-29.65 -116.0 -27.1 -111.8 -24.8 -107.9 -21.85 -109.85 L-21.9 -112.2 Q-22.0 -114.65 -21.35 -116.95 -15.05 -115.45 -9.5 -117.2 -9.2 -117.75 -9.2 -118.4 -9.3 -120.95 -11.3 -122.75 L-11.5 -123.45 Q-12.4 -125.35 -12.5 -127.5 L-13.15 -128.25 -11.45 -129.6 Q-10.15 -129.6 -9.1 -130.25 -8.55 -130.95 -8.85 -131.75 -9.65 -133.7 -9.9 -135.8 -10.45 -139.6 -9.75 -143.3 -6.95 -142.85 -4.55 -141.2 -1.85 -139.4 1.4 -139.05 9.0 -138.2 12.9 -145.4 14.55 -144.0 16.0 -141.45 18.65 -136.9 21.75 -132.75" fill="#ffff00" fill-opacity="0.5019608" fill-rule="evenodd" stroke="none"/>
  </g>
</svg>
