<?xml version="1.0" encoding="UTF-8" standalone="no"?>
<svg xmlns:ffdec="https://www.free-decompiler.com/flash" xmlns:xlink="http://www.w3.org/1999/xlink" ffdec:objectType="shape" height="134.35px" width="68.7px" xmlns="http://www.w3.org/2000/svg">
  <g transform="matrix(1.0, 0.0, 0.0, 1.0, 41.65, 128.3)">
    <path d="M15.6 -124.85 Q19.05 -121.4 19.05 -116.5 19.05 -111.6 15.6 -108.15 L15.2 -107.75 14.95 -105.3 Q14.4 -102.7 14.15 -100.0 L14.2 -100.05 14.2 -100.1 Q20.0 -98.5 20.6 -91.95 L20.65 -91.55 Q21.7 -90.2 22.2 -88.5 L22.65 -86.4 Q26.1 -81.8 27.0 -76.5 27.3 -74.65 25.45 -74.4 L14.7 -73.65 15.7 -64.35 Q16.05 -61.8 16.8 -59.25 17.75 -56.25 15.85 -54.4 L15.75 -52.1 Q15.25 -48.8 15.35 -45.45 15.7 -35.25 14.2 -25.3 16.25 -19.95 18.9 -14.6 L18.95 -14.25 Q22.75 -8.75 25.15 -2.5 26.4 0.7 26.4 3.95 26.35 6.05 24.25 5.9 L23.5 5.8 22.1 6.0 Q16.05 6.15 10.0 5.9 7.1 5.8 7.4 2.9 L7.5 2.1 7.8 1.7 8.15 1.3 Q8.35 1.1 8.6 1.0 L10.0 0.55 10.0 0.5 Q15.0 0.1 19.7 0.7 16.3 -9.35 11.15 -19.05 7.4 -26.0 9.6 -33.6 10.0 -35.05 10.0 -36.65 L10.0 -49.1 -3.15 -33.75 Q-2.55 -22.35 -2.5 -10.8 -2.5 -4.65 -2.75 1.25 -2.35 1.6 -2.3 2.25 -2.1 4.8 -4.75 4.95 -11.05 5.25 -17.35 4.7 -20.75 4.45 -19.9 1.05 L-19.25 0.25 -18.8 -0.05 -17.4 -0.55 -7.8 -0.1 Q-7.55 -14.5 -8.75 -28.7 -9.15 -34.05 -6.85 -38.45 -6.15 -39.8 -5.0 -40.85 -0.7 -44.9 2.85 -49.6 6.2 -54.1 9.85 -58.25 L10.25 -58.3 10.4 -58.3 10.75 -58.75 10.55 -59.8 Q9.5 -66.8 8.95 -73.95 2.85 -74.55 -3.1 -76.2 -9.7 -78.0 -8.3 -84.8 -7.85 -86.8 -5.8 -86.9 1.45 -87.3 0.0 -81.15 4.2 -79.85 8.65 -79.35 8.4 -84.95 8.45 -90.65 L8.6 -95.85 Q-4.7 -92.8 -18.4 -93.75 L-23.85 -94.5 -31.1 -95.1 Q-31.25 -94.45 -31.65 -94.0 -33.9 -91.5 -37.4 -92.3 L-39.35 -93.0 Q-40.65 -93.6 -41.5 -94.85 L-41.6 -95.65 -41.65 -96.8 Q-41.75 -97.85 -41.35 -98.8 L-41.15 -99.2 Q-40.75 -100.15 -39.85 -100.65 L-38.45 -101.15 Q-27.7 -101.5 -17.25 -99.85 L-5.3 -99.3 Q0.85 -99.65 6.8 -101.25 L8.85 -101.55 9.0 -104.1 Q3.85 -103.25 0.4 -106.6 L-0.15 -107.3 -1.1 -108.15 Q-4.55 -111.6 -4.55 -116.5 -4.55 -121.4 -1.1 -124.85 2.35 -128.3 7.25 -128.3 12.15 -128.3 15.6 -124.85 M16.05 -88.8 L15.7 -89.2 15.4 -89.6 Q14.8 -91.95 13.85 -94.1 13.8 -86.55 14.3 -79.0 L20.15 -79.3 Q18.0 -82.7 16.6 -86.3 16.2 -87.3 16.3 -88.4 L16.05 -88.8" fill="#000000" fill-rule="evenodd" stroke="none"/>
  </g>
</svg>
