<?xml version="1.0" encoding="UTF-8" standalone="no"?>
<svg xmlns:ffdec="https://www.free-decompiler.com/flash" xmlns:xlink="http://www.w3.org/1999/xlink" ffdec:objectType="shape" height="167.6px" width="84.55px" xmlns="http://www.w3.org/2000/svg">
  <g transform="matrix(1.0, 0.0, 0.0, 1.0, 41.35, 143.75)">
    <path d="M32.4 -125.5 L32.5 -125.15 32.8 -123.9 32.7 -123.5 Q31.5 -117.75 27.65 -113.25 L27.65 -112.85 Q27.55 -111.65 27.8 -110.5 33.2 -108.65 36.35 -104.55 L35.1 -103.7 33.75 -102.9 Q28.85 -100.85 25.55 -97.45 30.65 -92.95 35.45 -87.7 L35.55 -87.3 Q35.9 -85.05 34.4 -83.35 L32.75 -82.35 Q31.3 -80.9 29.2 -80.6 23.55 -79.75 20.8 -75.6 21.05 -74.6 22.15 -74.55 22.2 -73.95 22.65 -73.45 29.05 -66.35 32.95 -57.7 L25.05 -55.3 25.05 -54.5 25.7 -49.4 Q26.35 -48.9 26.6 -48.2 L26.6 -47.8 Q26.45 -47.1 26.85 -46.6 L31.6 -38.7 Q28.4 -37.45 26.6 -34.75 L26.6 -33.95 Q26.3 -30.65 27.4 -27.65 29.4 -24.95 32.35 -23.4 35.95 -21.5 37.65 -18.95 33.35 -17.75 30.3 -14.75 L30.3 -14.35 30.3 -11.6 30.85 -10.8 Q32.25 -6.5 35.95 -3.3 40.3 0.5 43.2 4.5 41.2 4.95 39.5 6.05 38.85 6.45 38.5 7.05 35.75 11.55 36.1 17.15 L35.45 17.15 Q24.6 12.8 17.15 22.15 L15.7 22.0 Q15.6 20.1 14.75 18.4 14.1 17.05 12.65 17.0 5.6 16.6 -0.2 21.15 -3.25 23.55 -5.5 23.85 L-5.7 23.15 Q-7.1 20.3 -7.35 17.15 L-7.95 16.25 Q-8.45 14.95 -9.65 14.4 -19.15 10.25 -28.55 15.15 L-29.1 15.15 -29.25 15.0 -29.15 14.25 Q-28.55 10.6 -27.0 7.1 L-26.2 6.35 -26.05 4.75 Q-26.05 3.95 -26.4 3.4 -28.35 0.1 -30.55 -1.95 -29.15 -2.65 -27.65 -2.65 -21.8 -2.6 -18.7 -7.1 L-18.7 -7.5 -18.7 -8.7 Q-19.85 -10.45 -21.35 -11.85 -23.45 -14.75 -24.25 -17.75 -23.5 -18.15 -23.3 -18.95 -20.2 -19.2 -17.5 -20.65 -15.25 -24.25 -18.45 -27.0 -22.1 -30.15 -24.5 -33.3 -18.25 -37.7 -11.05 -40.8 L-10.8 -41.25 -10.65 -41.6 Q-9.5 -42.15 -8.8 -43.2 L-8.75 -43.6 Q-8.6 -45.0 -8.8 -46.35 -9.7 -47.75 -11.3 -48.35 -11.4 -49.3 -12.25 -49.9 L-12.45 -50.7 Q-13.45 -53.6 -13.95 -56.6 L-13.7 -57.05 Q-13.1 -58.15 -12.9 -59.4 L-10.25 -62.95 -10.25 -63.75 -10.25 -67.7 Q-10.7 -68.55 -11.55 -68.45 L-24.1 -67.55 Q-24.6 -68.7 -25.55 -69.55 L-25.55 -71.5 -25.55 -81.4 Q-25.95 -82.2 -26.85 -82.45 -31.9 -83.65 -36.5 -86.25 L-36.35 -86.5 -35.55 -87.7 -35.55 -88.1 -35.55 -89.3 -35.25 -89.65 Q-33.85 -91.2 -33.95 -93.25 L-33.7 -93.65 -33.45 -94.05 -33.45 -94.4 -33.45 -95.6 -33.7 -96.0 -33.95 -96.4 -33.95 -96.8 -34.1 -98.0 Q-38.55 -101.65 -41.35 -106.3 -39.65 -107.9 -37.4 -109.3 -37.1 -109.85 -37.05 -110.5 -36.5 -115.2 -38.85 -119.2 L-37.8 -119.2 Q-36.25 -117.9 -34.4 -117.05 -29.8 -114.95 -26.05 -117.2 L-26.1 -117.6 -26.2 -119.6 -25.55 -120.35 -25.5 -121.55 -24.6 -130.65 -23.95 -130.65 Q-23.15 -129.85 -22.65 -128.9 -20.25 -124.45 -16.6 -126.7 L-16.6 -127.1 -16.6 -127.85 -15.0 -129.85 -14.95 -130.2 Q-14.15 -132.6 -13.7 -135.0 -13.1 -136.0 -12.25 -135.25 -10.1 -133.75 -7.65 -132.9 -7.25 -132.05 -6.35 -131.85 L-4.9 -131.9 Q-0.7 -133.4 0.25 -138.15 2.25 -140.0 2.4 -142.5 L2.65 -142.9 3.15 -143.7 Q3.75 -143.9 4.3 -143.05 6.75 -139.4 10.55 -138.95 13.2 -141.65 16.45 -143.4 L17.15 -142.65 17.1 -141.45 Q16.8 -136.85 18.2 -132.75 L18.5 -132.3 18.95 -131.9 Q26.0 -129.6 32.4 -125.5" fill="#ffff00" fill-opacity="0.5019608" fill-rule="evenodd" stroke="none"/>
  </g>
</svg>
