<?xml version="1.0" encoding="UTF-8" standalone="no"?>
<svg xmlns:ffdec="https://www.free-decompiler.com/flash" xmlns:xlink="http://www.w3.org/1999/xlink" ffdec:objectType="shape" height="134.3px" width="58.95px" xmlns="http://www.w3.org/2000/svg">
  <g transform="matrix(1.0, 0.0, 0.0, 1.0, 28.0, 128.3)">
    <path d="M14.0 -124.85 Q17.45 -121.4 17.45 -116.5 17.45 -111.6 14.0 -108.15 L11.8 -106.35 11.15 -106.05 Q12.55 -103.95 12.0 -100.6 L11.85 -99.0 Q14.0 -97.9 12.3 -94.95 L11.85 -94.15 Q12.9 -79.1 15.85 -64.3 L16.6 -58.95 Q17.6 -57.95 16.75 -56.25 16.7 -55.8 16.3 -55.5 L16.1 -55.25 Q16.4 -53.65 15.85 -51.55 15.05 -48.8 15.35 -45.75 16.25 -34.45 15.65 -23.2 15.6 -21.75 16.3 -20.45 21.75 -10.2 29.4 -1.25 32.3 2.1 29.8 5.2 29.3 5.8 28.45 5.8 L11.5 5.05 Q10.45 4.95 10.15 3.9 9.6 1.9 11.6 1.55 L23.45 0.25 Q16.95 -7.55 11.7 -16.35 L11.3 -18.4 10.9 -19.5 Q9.05 -24.8 10.1 -30.65 10.55 -33.15 10.3 -35.7 9.7 -42.45 9.95 -49.15 L1.3 -40.6 Q-2.0 -37.2 -0.95 -32.45 -0.55 -30.6 -0.5 -28.6 -0.35 -12.95 -1.25 2.6 -1.25 3.35 -1.85 3.95 -4.25 6.25 -7.95 5.95 L-15.25 5.25 Q-18.95 4.85 -17.2 1.65 -16.6 0.55 -15.3 0.5 L-5.8 -0.3 -5.95 -22.4 Q-6.05 -31.1 -5.5 -39.4 L-4.95 -40.85 Q-0.85 -46.5 4.2 -51.25 7.25 -55.05 11.0 -58.2 L10.9 -58.6 Q8.85 -71.95 7.25 -85.3 6.35 -80.4 4.55 -75.8 4.2 -74.9 3.15 -74.9 -0.05 -75.05 -2.65 -76.95 -4.1 -77.1 -5.25 -78.0 L-5.65 -78.4 Q-14.5 -80.9 -21.5 -86.4 -22.85 -93.45 -15.4 -91.55 -13.55 -91.05 -13.25 -89.15 L-13.2 -88.0 -6.35 -84.3 Q-4.35 -83.95 -2.8 -82.85 L-2.65 -82.75 Q-1.25 -82.5 -0.1 -81.7 L0.4 -81.4 Q2.1 -87.3 4.6 -93.05 L2.55 -92.6 Q-1.65 -91.9 -5.05 -94.5 -8.35 -97.05 -12.1 -99.0 L-19.9 -103.15 Q-26.65 -100.45 -27.9 -106.95 -28.35 -109.2 -26.5 -110.4 L-26.1 -110.5 -25.3 -110.6 -25.3 -110.65 Q-22.65 -111.3 -20.7 -109.75 L-20.55 -109.6 Q-12.35 -106.05 -4.7 -101.5 L-3.7 -100.65 Q-1.9 -100.15 -0.45 -98.9 0.4 -98.2 1.45 -97.9 3.8 -99.65 6.2 -100.2 L6.3 -103.95 Q1.9 -103.65 -1.2 -106.6 L-1.75 -107.3 -2.7 -108.15 Q-6.15 -111.6 -6.15 -116.5 -6.15 -121.4 -2.7 -124.85 0.75 -128.3 5.65 -128.3 10.55 -128.3 14.0 -124.85" fill="#000000" fill-rule="evenodd" stroke="none"/>
  </g>
</svg>
