<?xml version="1.0" encoding="UTF-8" standalone="no"?>
<svg xmlns:ffdec="https://www.free-decompiler.com/flash" xmlns:xlink="http://www.w3.org/1999/xlink" ffdec:objectType="shape" height="133.85px" width="54.25px" xmlns="http://www.w3.org/2000/svg">
  <g transform="matrix(1.0, 0.0, 0.0, 1.0, 31.2, 128.3)">
    <path d="M13.2 -124.85 Q16.65 -121.4 16.65 -116.5 16.65 -112.1 13.9 -108.85 L15.45 -102.3 Q16.25 -97.45 16.15 -92.5 16.05 -87.2 10.6 -88.35 9.15 -88.65 7.95 -89.25 L8.75 -69.85 8.95 -62.3 8.85 -55.35 Q10.3 -54.0 9.9 -52.25 10.9 -50.3 10.5 -47.35 9.6 -41.1 10.6 -35.1 L11.25 -29.25 Q11.4 -26.2 12.1 -23.35 L16.85 -14.65 Q18.6 -12.8 19.35 -10.25 L19.5 -9.5 Q23.65 -3.25 22.95 3.9 22.85 4.55 22.2 4.8 17.65 6.5 13.75 4.25 12.3 3.45 12.95 1.9 14.15 -0.75 17.5 -0.3 L14.85 -6.55 14.35 -7.4 14.25 -7.8 14.2 -8.2 14.1 -8.6 Q12.8 -11.15 10.95 -13.35 L10.65 -13.7 Q6.2 -20.65 5.85 -28.7 L5.35 -35.05 Q4.75 -40.35 4.7 -45.7 L1.25 -41.7 Q-1.8 -37.9 -4.2 -33.6 -3.65 -21.15 -2.35 -8.75 L-1.3 -0.85 Q-0.55 3.7 -4.35 4.35 -9.3 5.1 -14.3 4.55 -15.35 4.45 -15.65 3.4 -16.2 1.4 -14.2 0.9 -10.6 0.0 -6.85 -0.3 -7.9 -6.55 -8.15 -12.95 -8.4 -20.0 -9.6 -26.75 -10.95 -34.55 -6.35 -40.2 -3.3 -44.1 -0.45 -48.45 1.4 -51.2 3.55 -53.3 3.25 -54.15 3.25 -55.35 3.4 -69.05 3.15 -82.6 L2.9 -89.4 Q-1.95 -85.25 -7.8 -82.45 -11.7 -80.55 -15.3 -82.7 -25.75 -89.05 -30.3 -99.85 L-30.75 -101.25 Q-31.5 -104.6 -30.95 -108.0 -30.3 -109.2 -29.05 -109.75 L-27.4 -110.15 Q-21.1 -110.1 -22.55 -104.35 -23.1 -102.15 -25.3 -101.55 -23.95 -97.65 -20.65 -94.9 -19.85 -94.25 -19.5 -93.25 L-18.25 -92.4 Q-17.75 -91.95 -17.55 -91.3 L-11.35 -87.1 Q-5.2 -89.65 -0.15 -94.3 0.85 -96.6 2.4 -97.5 L1.9 -104.3 Q-0.25 -104.95 -2.0 -106.6 L-2.55 -107.3 -3.5 -108.15 Q-6.95 -111.6 -6.95 -116.5 -6.95 -121.4 -3.5 -124.85 -0.05 -128.3 4.85 -128.3 9.75 -128.3 13.2 -124.85 M7.95 -104.4 L7.75 -103.7 Q7.35 -102.4 7.45 -101.05 L7.7 -95.55 9.75 -94.65 Q10.4 -94.25 11.05 -94.05 10.85 -99.75 9.3 -105.05 8.75 -104.65 7.95 -104.4" fill="#000000" fill-rule="evenodd" stroke="none"/>
  </g>
</svg>
