<?xml version="1.0" encoding="UTF-8" standalone="no"?>
<svg xmlns:ffdec="https://www.free-decompiler.com/flash" xmlns:xlink="http://www.w3.org/1999/xlink" ffdec:objectType="shape" height="165.05px" width="91.95px" xmlns="http://www.w3.org/2000/svg">
  <g transform="matrix(1.0, 0.0, 0.0, 1.0, 41.5, 142.9)">
    <path d="M29.8 -130.25 L30.3 -129.45 Q30.3 -129.05 30.45 -128.7 30.9 -127.55 30.95 -126.3 31.55 -125.85 31.65 -125.1 L31.9 -119.6 32.75 -118.35 Q33.8 -115.9 36.0 -115.0 43.1 -112.15 49.8 -111.7 L44.8 -107.45 Q43.35 -107.4 42.4 -106.4 L42.4 -106.0 42.3 -105.2 41.9 -104.85 41.9 -104.05 41.9 -101.65 Q46.1 -98.95 48.2 -94.8 L49.15 -94.05 49.25 -93.65 49.25 -93.25 50.45 -92.05 Q46.05 -91.85 42.4 -89.55 L42.3 -84.4 Q42.05 -79.65 43.45 -75.35 38.95 -75.2 34.6 -76.7 31.15 -77.9 28.7 -75.85 L28.7 -73.9 28.7 -67.95 15.3 -68.75 15.1 -67.95 15.0 -65.95 16.6 -64.0 16.6 -63.6 Q16.5 -62.8 16.75 -62.0 18.25 -60.9 19.25 -59.25 L19.3 -58.45 Q19.4 -57.65 19.65 -56.9 L19.4 -56.5 18.2 -54.5 18.15 -54.1 Q18.1 -53.3 18.3 -52.55 L18.75 -52.2 Q27.25 -46.7 34.25 -40.3 L29.75 -37.4 29.5 -37.15 Q28.7 -36.45 28.2 -35.55 L28.2 -34.75 28.2 -32.8 Q28.65 -32.1 29.25 -31.65 33.9 -28.2 36.6 -23.7 31.9 -21.55 27.65 -18.8 L27.65 -18.45 Q27.6 -17.8 27.8 -17.25 34.3 -14.4 37.65 -8.95 L37.3 -8.55 37.15 -8.15 37.0 -7.35 36.1 -6.2 36.05 -5.0 Q35.9 -3.3 36.35 -1.85 L36.9 -1.45 39.05 2.15 Q41.35 5.75 42.55 10.0 37.15 9.15 32.15 10.8 L32.0 11.6 31.9 14.75 25.85 14.3 Q19.7 13.55 19.1 19.1 L17.9 19.1 14.35 16.95 Q13.5 16.45 12.7 16.55 6.25 17.25 0.8 21.6 L-1.55 22.15 -1.95 21.45 Q-3.05 19.4 -3.4 17.15 -6.1 14.95 -9.95 16.25 -16.8 18.55 -22.9 22.0 L-22.9 17.65 -22.9 9.75 Q-23.3 9.1 -23.95 8.8 L-30.95 5.4 Q-30.2 4.55 -29.1 4.1 -27.55 1.65 -25.15 -0.1 -19.35 -4.45 -19.75 -11.3 -20.25 -12.2 -21.2 -12.5 -25.1 -13.8 -28.2 -15.65 L-26.0 -18.7 Q-22.2 -23.45 -18.7 -28.7 L-18.7 -29.1 -18.7 -29.5 -18.45 -29.9 -18.15 -30.3 -18.15 -31.05 -18.3 -32.65 Q-19.2 -33.85 -20.55 -34.65 -22.15 -37.35 -25.0 -38.6 L-21.45 -42.15 -20.9 -45.6 Q-20.7 -46.55 -21.05 -47.6 -22.55 -52.05 -27.4 -54.0 -19.05 -56.35 -13.95 -62.95 L-13.95 -63.75 -13.95 -66.1 -14.25 -66.4 Q-16.1 -67.55 -17.1 -69.55 L-15.15 -71.1 -15.0 -71.5 -14.6 -72.3 -13.95 -72.7 Q-10.9 -74.55 -11.3 -78.2 -14.2 -80.55 -18.15 -80.6 L-17.95 -80.9 Q-17.45 -81.6 -17.1 -82.45 L-16.2 -83.25 -16.1 -83.65 -16.05 -84.8 -14.6 -86.4 -14.4 -87.55 -14.5 -91.9 Q-17.85 -94.0 -21.85 -95.2 L-21.85 -98.0 -21.85 -105.1 Q-23.4 -106.35 -25.3 -107.1 L-27.45 -107.0 Q-30.1 -105.4 -32.4 -102.7 L-33.6 -103.15 Q-38.35 -105.75 -41.5 -109.55 -37.15 -108.3 -32.65 -108.9 -31.0 -110.25 -29.75 -111.95 L-29.65 -112.7 -28.2 -116.7 Q-21.65 -114.7 -14.9 -114.2 L-13.7 -113.5 -13.2 -113.7 -12.65 -114.05 Q-12.3 -114.8 -12.25 -115.6 -12.15 -119.6 -13.95 -122.75 L-14.15 -123.85 -15.95 -129.45 Q-12.8 -128.4 -10.15 -129.7 -9.5 -131.4 -9.7 -133.3 -10.2 -137.3 -9.1 -140.8 L-8.4 -140.85 -8.3 -140.8 Q-3.0 -137.5 3.3 -136.5 4.55 -136.3 5.45 -136.8 9.25 -138.85 11.45 -142.9 L12.35 -142.85 12.4 -142.65 12.45 -142.25 12.9 -141.45 12.9 -141.05 12.9 -140.25 13.85 -139.05 13.9 -138.3 Q13.95 -136.05 15.55 -134.35 L15.55 -133.95 15.7 -133.15 18.95 -130.1 Q24.85 -124.8 29.65 -130.65 L29.8 -130.25" fill="#ffff00" fill-opacity="0.5019608" fill-rule="evenodd" stroke="none"/>
  </g>
</svg>
