<?xml version="1.0" encoding="UTF-8" standalone="no"?>
<svg xmlns:ffdec="https://www.free-decompiler.com/flash" xmlns:xlink="http://www.w3.org/1999/xlink" ffdec:objectType="shape" height="135.0px" width="54.65px" xmlns="http://www.w3.org/2000/svg">
  <g transform="matrix(1.0, 0.0, 0.0, 1.0, 18.45, 128.3)">
    <path d="M14.8 -124.85 Q18.25 -121.4 18.25 -116.5 18.25 -113.15 16.65 -110.45 L23.15 -111.2 Q29.8 -112.15 29.5 -106.2 29.35 -103.6 26.9 -103.1 23.05 -102.35 20.8 -105.1 L8.0 -103.35 7.8 -102.65 Q6.75 -98.9 6.5 -94.85 L6.4 -93.35 6.55 -93.1 Q9.65 -87.9 11.95 -82.2 12.3 -81.35 12.9 -80.65 17.2 -82.35 21.2 -86.05 L27.8 -92.35 Q27.2 -93.25 27.25 -94.35 L27.5 -97.5 28.6 -98.6 Q29.9 -99.4 31.05 -99.6 38.25 -99.1 35.4 -92.4 35.0 -91.45 34.25 -90.65 29.2 -85.65 23.6 -81.05 L19.7 -77.75 Q16.25 -74.65 12.0 -73.75 10.55 -73.4 9.5 -74.6 L8.55 -75.9 8.45 -76.3 8.4 -76.65 8.3 -77.45 5.25 -83.95 Q3.65 -71.95 3.95 -59.6 5.6 -58.75 5.85 -56.65 L5.9 -56.25 Q12.2 -46.8 17.6 -36.8 L18.05 -35.7 Q22.5 -29.55 20.25 -22.2 19.9 -20.95 18.95 -19.9 18.55 -15.85 17.5 -12.0 17.15 -10.85 16.3 -10.05 15.95 -5.6 15.1 -1.25 L14.6 1.3 Q21.25 -0.35 27.2 2.45 27.65 2.7 27.7 3.3 27.95 5.85 25.25 6.25 L9.45 5.7 Q8.6 5.55 8.65 4.6 9.3 -4.65 11.95 -13.2 L15.0 -25.4 15.55 -28.2 Q13.45 -31.85 11.8 -36.1 11.55 -36.7 11.6 -37.3 L4.55 -48.2 Q3.85 -45.75 3.45 -43.15 2.55 -37.45 2.15 -31.6 1.75 -25.4 -2.1 -20.55 L-4.95 -13.95 -5.55 -13.05 Q-7.55 -7.95 -9.8 -2.8 L-10.15 -2.0 -3.85 -0.85 Q-1.75 -0.3 -2.35 1.8 -2.65 2.9 -3.75 3.25 -11.4 5.55 -17.75 2.75 -18.45 2.45 -18.45 1.55 -18.4 -0.1 -17.8 -1.6 L-15.3 -4.75 -14.9 -5.15 Q-11.5 -13.65 -7.4 -21.75 -2.55 -31.8 -1.55 -43.45 L-0.65 -52.55 Q-1.3 -52.95 -1.35 -53.9 -2.15 -69.6 -0.15 -84.75 L0.3 -88.2 Q-5.9 -90.3 -10.55 -94.85 -17.45 -96.85 -14.4 -102.0 L-13.25 -102.85 Q-6.9 -104.95 -0.45 -106.65 L-0.95 -107.3 -1.9 -108.15 Q-5.35 -111.6 -5.35 -116.5 -5.35 -121.4 -1.9 -124.85 1.55 -128.3 6.45 -128.3 11.35 -128.3 14.8 -124.85 M1.1 -94.9 L1.7 -101.8 Q-2.65 -100.1 -7.25 -98.95 L0.3 -94.2 0.65 -94.65 1.1 -94.9" fill="#000000" fill-rule="evenodd" stroke="none"/>
  </g>
</svg>
