<?xml version="1.0" encoding="UTF-8" standalone="no"?>
<svg xmlns:ffdec="https://www.free-decompiler.com/flash" xmlns:xlink="http://www.w3.org/1999/xlink" ffdec:objectType="shape" height="162.9px" width="130.8px" xmlns="http://www.w3.org/2000/svg">
  <g transform="matrix(1.0, 0.0, 0.0, 1.0, 43.2, 142.5)">
    <path d="M86.55 -109.45 L85.5 -108.85 Q83.55 -107.7 81.4 -106.95 L81.15 -106.65 80.95 -106.25 80.85 -105.9 Q80.85 -105.15 81.55 -104.75 85.4 -102.75 87.6 -99.05 L73.8 -98.35 72.95 -98.0 72.95 -96.4 73.1 -95.2 75.9 -91.9 Q79.7 -87.35 82.7 -82.15 L81.95 -82.05 Q71.3 -86.25 62.5 -93.7 58.35 -97.2 54.55 -95.1 L54.55 -93.9 54.55 -93.1 54.0 -92.7 Q49.9 -93.75 47.15 -91.9 L47.1 -89.95 Q47.0 -88.65 47.7 -87.55 L46.95 -86.95 45.6 -85.85 45.6 -84.3 45.6 -82.7 47.1 -81.25 50.85 -76.4 Q45.65 -76.55 42.4 -72.7 L42.4 -72.3 42.4 -71.9 42.3 -71.5 40.55 -71.1 28.45 -70.15 Q26.85 -70.05 26.1 -68.75 L26.1 -67.55 26.2 -66.75 26.65 -66.45 Q27.95 -65.9 28.7 -64.8 L21.1 -64.1 20.3 -63.75 20.3 -62.55 20.3 -61.75 22.55 -59.4 Q27.0 -55.05 30.95 -50.3 L29.75 -49.6 Q27.2 -48.25 25.55 -46.1 L25.6 -44.9 25.7 -44.1 Q34.65 -41.55 42.55 -36.45 L42.1 -36.15 38.2 -33.45 38.2 -33.05 38.2 -32.65 38.2 -32.25 39.6 -30.65 Q42.7 -27.7 45.2 -24.35 40.0 -23.15 36.6 -19.35 L36.6 -18.15 36.6 -17.0 37.15 -16.2 39.25 -13.4 39.25 -13.05 39.25 -12.65 39.6 -12.2 39.8 -11.85 39.75 -10.65 39.65 -9.85 39.15 -9.25 Q37.7 -8.4 36.6 -7.25 L36.6 -6.05 36.6 -5.25 Q38.1 -3.2 39.9 -1.45 45.35 3.85 49.4 10.15 L45.3 9.75 Q40.15 8.15 34.95 9.85 33.6 10.25 32.95 11.6 L32.9 12.0 32.8 12.4 32.15 13.3 Q31.35 15.4 29.5 15.0 L23.15 9.25 Q19.45 5.8 14.85 4.35 L13.35 4.4 Q8.6 6.55 6.15 11.4 3.95 15.75 0.65 18.3 L-0.1 17.55 -1.3 16.35 -1.3 15.95 -1.3 15.55 Q-2.6 14.3 -4.2 13.45 L-5.1 13.3 Q-12.7 16.0 -19.35 20.4 -19.65 19.45 -20.25 18.65 -21.45 17.05 -21.35 15.0 L-21.6 14.65 Q-24.35 10.75 -29.25 9.5 -30.0 8.75 -30.95 8.3 -34.05 6.7 -35.55 3.7 L-35.2 2.95 -34.65 2.1 Q-33.85 -2.75 -38.0 -5.65 -41.15 -7.85 -43.2 -10.25 L-41.25 -10.55 Q-35.05 -10.0 -30.4 -13.15 L-30.35 -13.55 -30.35 -14.35 -30.4 -14.75 -32.35 -16.95 -38.05 -24.6 -38.15 -25.0 -38.2 -25.4 -38.3 -25.8 -38.95 -26.65 -39.1 -27.0 -38.6 -27.4 Q-33.0 -27.6 -27.65 -28.85 -23.45 -29.8 -24.5 -34.5 L-24.75 -34.9 Q-25.8 -36.35 -27.4 -37.25 L-27.65 -37.65 Q-28.55 -38.9 -30.3 -39.1 L-30.85 -39.85 -32.4 -41.85 Q-31.15 -42.7 -29.65 -42.8 L-17.45 -44.0 Q-16.55 -44.1 -16.05 -45.05 L-16.2 -47.0 -16.6 -49.75 -16.85 -50.15 -17.1 -50.55 -17.1 -50.95 -17.1 -51.35 -18.15 -52.95 Q-18.85 -54.0 -18.7 -55.3 -13.0 -56.55 -7.9 -58.75 L-7.7 -59.55 Q-7.55 -60.55 -8.1 -61.2 L-14.5 -68.75 Q-14.15 -69.65 -13.3 -70.1 -8.6 -72.3 -6.05 -76.65 -5.95 -77.45 -6.25 -78.25 -6.65 -79.35 -6.7 -80.6 L-7.3 -81.4 Q-8.45 -83.3 -10.25 -84.55 L-10.75 -85.25 Q-13.45 -88.55 -17.1 -90.85 L-17.9 -91.9 -22.4 -96.4 -6.3 -97.85 Q-5.15 -97.95 -4.6 -99.05 -4.4 -99.6 -4.45 -100.2 L-4.45 -101.4 Q-5.05 -102.1 -5.35 -102.95 -6.0 -104.7 -7.1 -106.15 -7.0 -106.95 -7.25 -107.7 L-8.3 -110.1 Q-2.75 -110.5 1.7 -113.25 L1.95 -114.85 1.7 -116.4 Q0.55 -117.8 0.0 -119.55 -1.4 -123.6 -3.95 -127.1 L-4.15 -128.3 -4.2 -128.8 Q2.2 -125.55 6.6 -129.85 6.6 -131.9 7.35 -133.85 8.55 -137.05 8.15 -140.5 L8.85 -140.25 Q10.6 -137.95 12.8 -136.0 16.0 -133.25 19.35 -135.3 24.65 -138.5 29.75 -142.5 30.45 -142.5 30.7 -141.35 31.0 -139.95 30.85 -138.55 L31.2 -138.1 31.35 -137.75 31.3 -135.0 Q31.25 -133.0 31.5 -131.05 37.25 -129.4 41.35 -126.45 41.35 -125.8 41.0 -125.3 L39.8 -123.65 39.8 -123.25 39.75 -122.5 39.65 -122.1 39.25 -121.7 39.25 -121.3 39.2 -120.9 39.1 -120.5 38.75 -120.1 38.75 -119.7 38.75 -119.3 38.75 -118.9 38.2 -118.5 37.8 -118.15 37.7 -117.75 37.65 -117.35 37.55 -116.95 37.25 -116.6 35.05 -114.55 35.1 -113.4 35.15 -112.6 35.6 -112.25 Q35.95 -112.05 36.35 -111.95 36.9 -112.25 37.3 -112.7 L37.8 -113.4 Q41.35 -116.55 46.1 -116.95 L46.45 -116.5 46.35 -116.15 Q45.95 -115.45 45.95 -114.55 L46.25 -112.6 Q49.0 -111.35 51.9 -113.25 L52.15 -113.55 52.45 -113.9 Q56.85 -116.75 61.8 -116.15 61.95 -115.35 61.65 -114.5 61.3 -113.55 61.5 -112.6 L78.1 -111.0 86.55 -109.45" fill="#ffff00" fill-opacity="0.5019608" fill-rule="evenodd" stroke="none"/>
  </g>
</svg>
