<?xml version="1.0" encoding="UTF-8" standalone="no"?>
<svg xmlns:ffdec="https://www.free-decompiler.com/flash" xmlns:xlink="http://www.w3.org/1999/xlink" ffdec:objectType="shape" height="158.45px" width="126.7px" xmlns="http://www.w3.org/2000/svg">
  <g transform="matrix(1.0, 0.0, 0.0, 1.0, 43.7, 138.95)">
    <path d="M27.4 -138.95 L27.55 -138.9 27.65 -137.9 Q27.6 -137.05 27.8 -136.3 L28.15 -135.9 28.7 -135.1 28.7 -134.35 28.7 -133.95 29.45 -133.2 30.3 -131.95 30.3 -131.55 30.3 -131.15 32.65 -128.95 Q34.25 -127.05 36.5 -128.25 39.4 -129.8 41.35 -129.45 L41.35 -125.9 41.35 -121.55 40.85 -121.15 Q40.25 -120.7 40.05 -119.95 L39.35 -119.5 37.65 -118.0 37.65 -115.65 37.65 -113.25 38.1 -112.45 Q38.45 -111.5 39.5 -111.4 44.85 -114.85 49.8 -117.6 L49.75 -114.45 Q49.7 -112.45 49.9 -110.5 50.5 -110.15 51.0 -110.3 60.35 -112.5 69.8 -111.7 L68.7 -108.65 Q68.1 -106.7 68.35 -104.7 74.1 -102.55 79.3 -101.0 L79.3 -100.6 79.3 -100.2 Q78.9 -99.65 78.65 -98.95 L77.7 -97.45 77.7 -96.65 77.7 -95.85 79.95 -93.2 83.0 -87.95 79.55 -88.1 Q75.75 -88.1 72.85 -86.4 68.4 -83.8 69.0 -78.1 L68.35 -77.95 60.2 -84.0 Q55.15 -87.4 49.9 -86.5 L49.35 -84.95 Q47.8 -82.25 45.05 -80.6 L41.15 -80.0 Q40.1 -79.75 40.3 -78.75 40.75 -77.65 41.65 -76.9 45.05 -73.95 47.05 -70.05 L36.9 -69.4 Q35.55 -69.3 35.05 -68.2 L35.1 -65.05 34.9 -61.1 22.65 -61.75 Q21.6 -61.8 21.35 -60.85 L21.35 -58.85 Q21.35 -57.9 21.75 -57.1 23.0 -54.5 22.9 -51.75 L22.65 -51.35 22.4 -50.95 22.35 -49.4 Q22.3 -48.55 22.55 -47.8 23.8 -46.45 25.6 -45.9 31.2 -44.05 35.95 -40.95 32.55 -38.9 29.0 -37.15 28.55 -36.05 28.85 -34.8 29.5 -32.35 31.35 -30.4 L31.35 -30.0 31.35 -29.6 31.6 -29.25 31.9 -28.85 31.85 -28.05 31.75 -27.25 31.35 -26.85 30.3 -25.65 30.25 -24.1 Q30.2 -23.3 30.45 -22.5 L31.65 -21.35 Q35.1 -18.3 38.05 -14.6 L37.05 -14.0 35.55 -12.5 35.6 -11.7 35.7 -10.9 Q36.55 -10.2 37.55 -9.75 39.8 -8.75 40.85 -6.85 40.7 -5.95 40.0 -5.35 L35.15 -1.2 Q34.25 1.25 34.45 3.95 34.7 8.15 34.25 12.25 33.55 12.45 32.95 12.25 27.9 10.6 23.65 13.35 19.65 15.9 15.8 17.25 L14.9 15.95 Q14.4 15.3 14.5 14.5 L13.6 13.25 Q10.35 9.65 6.35 13.45 L6.1 13.85 6.05 14.25 4.75 15.0 4.5 15.45 4.2 16.2 3.7 16.6 3.45 16.75 2.2 15.75 0.0 13.7 Q-0.15 13.05 -0.6 12.6 -1.8 11.3 -3.4 12.15 -3.85 12.75 -4.55 12.95 -7.5 13.85 -9.75 15.8 -14.75 18.05 -19.2 19.5 L-19.3 16.7 Q-19.4 14.6 -20.8 13.2 L-20.8 12.8 -20.8 12.4 Q-21.15 12.0 -21.5 11.95 -26.95 11.55 -32.4 13.05 L-32.1 7.3 Q-31.3 -0.55 -37.9 -4.05 L-37.1 -4.65 Q-33.05 -6.65 -34.7 -10.15 -37.8 -16.75 -43.7 -21.7 -38.75 -21.7 -35.05 -23.45 L-35.05 -25.0 -35.05 -26.6 -35.55 -27.4 -36.1 -28.15 Q-36.0 -29.5 -36.75 -30.6 L-38.85 -33.7 -34.5 -34.45 -15.25 -35.05 Q-14.6 -35.05 -14.2 -35.55 L-14.0 -36.35 -13.95 -37.15 Q-14.5 -38.15 -15.65 -38.3 L-16.65 -39.55 Q-19.15 -41.45 -20.8 -43.85 L-20.95 -44.65 -21.05 -45.05 -21.4 -45.5 -21.35 -45.8 Q-20.75 -46.5 -20.5 -47.35 L-19.75 -49.4 -18.55 -50.1 Q-14.25 -52.45 -10.9 -55.85 L-10.8 -56.65 Q-10.7 -57.45 -11.3 -57.8 L-19.2 -62.55 -19.2 -62.95 -19.3 -64.1 Q-19.35 -64.8 -18.95 -65.3 L-17.15 -66.55 -11.85 -72.45 -11.85 -73.2 -11.85 -74.0 -12.15 -74.35 Q-13.55 -75.45 -15.4 -75.7 -18.45 -78.2 -22.25 -78.9 L-22.5 -79.15 -22.9 -79.55 -22.9 -80.35 -22.8 -81.1 -22.15 -81.95 -21.7 -82.7 Q-17.55 -84.25 -14.5 -87.2 -14.25 -89.05 -15.3 -90.6 -17.05 -93.1 -18.3 -95.85 L-17.4 -96.0 Q-11.6 -92.3 -7.1 -96.15 L-7.2 -100.5 -7.65 -105.2 Q-5.0 -104.4 -2.75 -105.5 L-2.45 -106.3 Q-2.3 -106.9 -2.5 -107.45 L-2.75 -107.85 -3.4 -108.65 -4.25 -112.25 Q-4.8 -114.65 -5.5 -116.95 -1.65 -117.35 1.3 -119.3 L1.35 -122.1 1.2 -124.85 -0.6 -127.5 Q-1.75 -129.6 -2.35 -131.95 -0.3 -131.95 1.35 -130.75 5.75 -127.65 9.6 -130.1 L9.75 -130.9 9.9 -131.3 10.95 -132.55 Q11.4 -133.25 11.35 -134.05 L12.35 -135.65 13.95 -138.0 16.6 -137.6 Q16.85 -137.3 17.2 -137.1 L18.7 -136.45 18.75 -136.2 18.85 -135.8 Q19.05 -135.6 19.25 -135.6 23.65 -135.7 27.4 -138.95" fill="#ffff00" fill-opacity="0.5019608" fill-rule="evenodd" stroke="none"/>
  </g>
</svg>
