<?xml version="1.0" encoding="UTF-8" standalone="no"?>
<svg xmlns:ffdec="https://www.free-decompiler.com/flash" xmlns:xlink="http://www.w3.org/1999/xlink" ffdec:objectType="shape" height="131.9px" width="94.05px" xmlns="http://www.w3.org/2000/svg">
  <g transform="matrix(1.0, 0.0, 0.0, 1.0, 25.35, 128.3)">
    <path d="M20.15 -128.3 Q25.05 -128.3 28.5 -124.85 31.95 -121.4 31.95 -116.5 31.95 -111.6 28.5 -108.15 L26.3 -106.35 25.25 -105.8 24.65 -105.1 28.4 -104.6 30.15 -104.45 29.95 -104.35 Q36.7 -103.3 43.3 -101.3 49.35 -99.5 55.6 -98.8 62.05 -98.05 67.6 -95.05 68.45 -94.6 68.6 -93.55 69.25 -89.0 64.75 -88.25 58.55 -87.25 56.9 -92.5 43.7 -94.7 30.45 -98.25 L26.65 -99.3 26.7 -99.0 16.7 -100.85 16.3 -100.3 16.1 -99.7 15.25 -98.55 Q12.45 -89.7 9.95 -80.75 L25.95 -79.95 27.9 -80.35 Q27.65 -83.3 30.55 -83.55 37.35 -84.1 35.1 -77.75 34.3 -75.5 31.7 -74.85 26.45 -73.6 21.05 -73.95 14.7 -74.3 8.55 -75.45 L8.15 -74.05 7.5 -72.85 Q6.1 -68.4 5.25 -63.8 L4.75 -62.6 Q5.0 -58.7 4.45 -55.0 7.45 -53.4 9.5 -50.3 13.05 -45.0 17.1 -40.1 22.55 -33.45 19.9 -25.05 18.5 -20.55 17.95 -15.75 17.4 -10.8 15.8 -6.2 L15.8 -5.8 15.75 -5.45 15.65 -4.65 Q19.9 -4.85 24.6 -3.5 26.7 -2.9 26.05 -0.85 25.55 0.85 23.7 0.85 L10.45 0.3 Q9.4 0.2 9.4 -0.8 9.3 -5.65 11.45 -9.9 L14.4 -26.85 15.25 -32.4 13.65 -35.15 Q13.15 -35.9 13.15 -36.75 L4.65 -46.85 4.35 -46.5 Q4.65 -40.5 2.45 -35.05 L1.7 -33.85 Q1.45 -25.85 -5.7 -21.45 -7.25 -20.5 -8.4 -19.2 -11.85 -15.3 -14.5 -10.75 -16.6 -7.05 -18.85 -3.45 -14.8 -2.1 -10.05 -1.3 -6.4 -0.65 -8.15 2.5 -8.75 3.55 -10.0 3.6 -18.25 3.7 -24.8 -0.3 -25.4 -0.65 -25.35 -1.45 -25.05 -5.55 -22.15 -8.6 -20.3 -15.1 -15.0 -19.25 -10.45 -25.7 -4.2 -30.7 -4.4 -32.6 -3.95 -34.35 L-3.55 -35.85 Q-0.6 -41.45 -0.3 -48.05 L-0.35 -50.05 Q-0.5 -51.4 -0.25 -52.55 -1.1 -53.65 -0.95 -55.75 L-0.4 -64.8 -0.15 -65.2 0.5 -66.0 Q0.75 -70.5 2.25 -74.7 L3.0 -75.9 3.2 -76.6 -5.0 -79.0 Q-7.3 -79.8 -6.45 -82.05 -5.85 -83.85 -4.6 -85.35 2.2 -93.45 9.35 -101.25 10.3 -102.3 11.35 -103.0 L12.4 -106.4 12.7 -107.3 11.8 -108.15 Q8.35 -111.6 8.35 -116.5 8.35 -121.4 11.8 -124.85 15.25 -128.3 20.15 -128.3 M4.65 -81.6 L7.25 -90.7 Q3.6 -86.6 0.65 -82.45 L4.65 -81.6" fill="#000000" fill-rule="evenodd" stroke="none"/>
  </g>
</svg>
