<?xml version="1.0" encoding="UTF-8" standalone="no"?>
<svg xmlns:ffdec="https://www.free-decompiler.com/flash" xmlns:xlink="http://www.w3.org/1999/xlink" ffdec:objectType="shape" height="131.4px" width="91.5px" xmlns="http://www.w3.org/2000/svg">
  <g transform="matrix(1.0, 0.0, 0.0, 1.0, 26.85, 128.3)">
    <path d="M13.85 -104.6 L16.95 -103.55 16.8 -103.3 Q18.95 -102.3 20.9 -100.75 L21.05 -100.65 Q27.2 -98.3 32.6 -94.0 L36.6 -90.9 Q46.05 -90.25 54.25 -92.35 58.75 -98.0 64.15 -92.75 64.85 -92.05 64.6 -91.1 63.35 -86.1 57.4 -86.0 L45.3 -85.7 34.15 -86.05 Q33.4 -86.15 32.65 -86.65 24.25 -92.7 15.45 -97.95 L15.1 -95.55 Q15.0 -94.6 14.35 -93.95 L13.95 -90.75 Q13.75 -90.05 13.15 -89.6 11.05 -84.8 9.5 -79.85 14.75 -80.4 20.0 -82.2 21.65 -88.25 27.7 -84.5 29.2 -83.55 28.65 -81.75 27.6 -78.05 23.55 -76.9 L17.05 -75.55 8.05 -74.65 Q6.4 -68.2 5.65 -61.5 L5.1 -55.95 Q8.65 -52.9 11.35 -48.75 16.1 -41.6 19.6 -34.2 20.0 -33.4 19.8 -32.45 16.6 -18.6 14.75 -4.35 19.6 -2.85 25.3 -1.6 25.9 -1.5 26.1 -0.8 26.9 2.4 23.65 2.7 L19.45 2.75 Q14.1 2.35 9.7 0.05 8.85 -0.4 9.0 -1.45 11.05 -15.95 13.55 -30.25 13.8 -31.9 14.35 -33.5 12.85 -34.9 11.8 -36.6 L11.2 -37.45 11.1 -37.85 11.0 -38.6 10.9 -39.0 Q8.3 -43.65 4.95 -47.75 L3.8 -48.9 3.3 -47.5 2.6 -46.25 Q3.4 -34.6 -3.05 -25.6 L-5.7 -22.3 -13.6 -13.45 Q-15.7 -8.85 -19.3 -5.25 L-20.3 -4.35 Q-15.6 -1.95 -9.0 -1.7 -5.95 -1.55 -6.7 1.25 -7.1 2.95 -8.95 3.05 -18.55 3.65 -26.45 -0.75 -26.9 -1.0 -26.85 -1.6 -26.5 -7.3 -21.9 -11.4 -20.1 -13.0 -18.8 -15.0 -14.7 -21.3 -8.95 -26.5 L-5.6 -31.5 -5.15 -32.4 Q-2.3 -39.95 -2.15 -48.25 L-2.05 -49.85 Q-1.75 -52.6 -0.5 -54.9 L-0.55 -55.85 Q-0.35 -61.55 0.65 -66.9 L2.1 -74.55 -6.85 -74.75 Q-9.95 -74.95 -9.3 -78.1 -8.55 -81.6 -6.35 -84.65 L-4.35 -86.8 -4.25 -87.2 -4.2 -87.6 -4.1 -88.0 Q1.0 -95.9 7.1 -102.75 8.75 -104.65 10.65 -105.8 L13.35 -104.8 Q13.55 -104.6 13.85 -104.6 M9.1 -96.15 Q9.25 -96.9 9.85 -97.35 L9.85 -97.65 Q6.85 -94.4 4.55 -90.55 1.35 -85.25 -2.4 -80.25 L3.8 -79.6 Q4.8 -84.7 7.3 -89.4 L7.9 -90.25 7.85 -91.05 8.0 -92.2 8.3 -92.6 8.95 -93.4 Q8.85 -94.8 9.1 -96.15" fill="#000000" fill-rule="evenodd" stroke="none"/>
    <path d="M16.95 -128.3 Q21.85 -128.3 25.3 -124.85 28.75 -121.4 28.75 -116.5 28.75 -111.6 25.3 -108.15 24.25 -107.1 23.1 -106.35 L22.05 -105.8 Q21.55 -104.75 19.7 -104.3 L18.2 -104.0 17.2 -104.2 16.95 -103.55 13.85 -104.6 Q13.55 -104.6 13.35 -104.8 L10.65 -105.8 10.7 -105.8 10.7 -106.05 10.1 -106.6 9.55 -107.3 8.6 -108.15 Q5.15 -111.6 5.15 -116.5 5.15 -121.4 8.6 -124.85 12.05 -128.3 16.95 -128.3" fill="#000000" fill-rule="evenodd" stroke="none"/>
  </g>
</svg>
