<?xml version="1.0" encoding="UTF-8" standalone="no"?>
<svg xmlns:ffdec="https://www.free-decompiler.com/flash" xmlns:xlink="http://www.w3.org/1999/xlink" ffdec:objectType="shape" height="164.4px" width="116.0px" xmlns="http://www.w3.org/2000/svg">
  <g transform="matrix(1.0, 0.0, 0.0, 1.0, 41.6, 144.35)">
    <path d="M20.3 -141.2 Q20.2 -140.35 20.6 -139.6 22.2 -136.65 22.4 -133.25 L22.8 -132.45 Q23.15 -131.5 24.2 -131.6 L37.65 -132.1 Q37.75 -131.25 37.45 -130.5 36.75 -128.6 36.6 -126.55 L36.35 -126.2 35.55 -125.35 35.55 -124.6 35.55 -123.4 35.3 -123.0 35.05 -122.6 35.0 -121.4 Q34.95 -120.4 35.15 -119.45 39.05 -114.8 42.8 -111.15 40.75 -110.65 38.9 -109.75 35.7 -108.15 32.6 -109.0 L32.7 -108.65 Q33.05 -107.3 32.1 -106.3 L32.8 -106.0 32.9 -105.6 Q33.2 -104.65 34.25 -104.55 L35.05 -104.85 35.3 -104.95 Q37.65 -103.05 40.55 -103.25 L44.0 -103.5 Q48.8 -103.75 51.35 -106.95 54.25 -108.55 56.25 -111.3 L56.95 -110.5 Q58.3 -108.25 59.25 -105.9 L60.15 -105.05 Q60.5 -104.7 60.85 -104.7 67.7 -104.95 74.0 -108.4 L74.0 -103.75 Q73.85 -98.1 74.4 -92.7 68.05 -93.95 63.5 -90.6 L63.5 -88.65 63.5 -83.9 63.75 -83.5 64.0 -83.1 Q63.95 -82.3 64.25 -81.6 64.75 -80.65 64.55 -79.55 L65.4 -78.4 Q66.1 -77.5 66.1 -76.4 L61.0 -76.5 Q58.6 -76.65 56.4 -77.4 51.6 -79.1 48.2 -76.4 L48.2 -74.4 48.2 -66.9 Q40.9 -68.3 34.5 -65.3 L34.55 -63.35 34.4 -58.35 Q32.55 -58.15 30.95 -59.05 25.95 -61.95 22.4 -58.35 L22.2 -57.6 21.35 -56.35 21.35 -54.4 Q21.3 -50.5 22.4 -46.9 25.7 -42.3 30.3 -38.6 L30.35 -38.2 30.45 -37.8 Q33.75 -35.5 35.55 -31.85 31.15 -29.65 28.2 -25.95 28.25 -25.1 28.9 -24.65 38.25 -18.0 47.7 -11.85 L47.4 -11.2 40.85 -3.95 40.85 -2.35 40.85 0.4 41.65 1.4 Q42.55 2.95 42.4 4.75 42.95 5.25 43.15 6.0 L43.75 7.9 36.6 8.35 Q34.8 8.45 33.85 9.85 30.8 14.05 30.3 19.65 25.4 19.2 21.05 16.35 L14.7 12.35 Q9.8 9.4 7.1 15.0 L6.9 16.1 4.9 20.05 -0.2 15.5 Q-0.6 15.15 -0.95 15.1 L-8.75 15.45 -16.85 16.75 -17.35 16.3 Q-18.7 14.7 -20.3 13.2 L-20.3 12.8 -20.3 12.4 Q-22.85 10.25 -24.85 13.8 -26.95 17.6 -30.3 17.0 L-30.45 15.35 Q-30.8 12.7 -32.15 10.3 -36.05 6.4 -41.6 5.55 L-41.2 5.15 -37.65 2.1 Q-33.7 1.8 -31.45 -1.2 L-31.35 -1.95 -31.35 -2.35 Q-34.95 -6.4 -39.75 -8.7 -37.0 -10.3 -34.9 -12.75 L-34.25 -13.05 -33.7 -13.4 -27.25 -19.5 Q-25.4 -25.45 -31.2 -28.95 L-29.2 -29.45 Q-21.35 -31.15 -23.85 -37.9 -18.0 -37.7 -14.5 -41.35 L-14.5 -42.15 -14.5 -42.95 -20.3 -49.65 Q-19.2 -49.85 -18.4 -50.45 L-14.3 -52.85 Q-9.0 -55.2 -13.45 -58.45 L-13.85 -59.05 Q-19.05 -62.15 -25.0 -63.75 -23.6 -65.45 -22.85 -67.6 -22.15 -69.6 -21.9 -71.7 -21.05 -79.15 -27.8 -82.85 -18.65 -86.3 -9.1 -88.65 -8.5 -93.35 -13.8 -95.35 -16.45 -97.9 -19.6 -100.1 -13.4 -102.7 -6.85 -104.15 L-6.5 -104.45 -5.15 -106.0 -4.9 -107.2 Q-4.9 -108.0 -5.25 -108.8 -7.75 -111.9 -10.8 -114.3 -9.55 -114.65 -8.4 -115.15 -2.45 -117.8 -5.4 -123.25 L-5.65 -124.0 -8.95 -129.2 -12.5 -132.75 1.45 -134.45 1.65 -134.9 Q3.35 -140.3 -1.55 -143.95 L-0.9 -144.35 Q2.95 -143.85 6.15 -140.85 10.4 -136.9 13.95 -140.9 L14.0 -141.3 14.1 -141.7 14.6 -142.1 Q15.5 -142.9 16.6 -143.3 L16.85 -143.55 17.15 -143.95 19.25 -143.8 19.2 -143.15 Q19.1 -142.5 19.5 -141.95 L20.0 -141.55 20.3 -141.2" fill="#ffff00" fill-opacity="0.5019608" fill-rule="evenodd" stroke="none"/>
  </g>
</svg>
