<?xml version="1.0" encoding="UTF-8" standalone="no"?>
<svg xmlns:ffdec="https://www.free-decompiler.com/flash" xmlns:xlink="http://www.w3.org/1999/xlink" ffdec:objectType="shape" height="157.8px" width="160.1px" xmlns="http://www.w3.org/2000/svg">
  <g transform="matrix(1.0, 0.0, 0.0, 1.0, 54.65, 152.35)">
    <path d="M92.55 -122.35 Q92.6 -115.95 93.15 -109.65 97.75 -107.85 102.2 -107.0 L95.05 -101.05 95.05 -100.75 95.15 -99.55 Q100.5 -94.8 105.45 -89.85 L103.7 -89.3 102.15 -89.05 92.25 -88.35 92.05 -88.15 91.8 -87.55 91.9 -87.3 93.35 -85.1 Q93.7 -83.55 94.75 -82.25 98.55 -77.4 101.1 -71.8 93.6 -73.3 87.0 -77.5 83.35 -79.8 80.5 -77.75 L80.3 -75.7 Q79.55 -72.4 79.7 -69.0 74.2 -73.9 70.05 -80.2 L69.1 -80.75 Q65.9 -80.95 63.15 -78.35 L60.65 -81.6 58.95 -85.9 58.25 -86.4 Q54.25 -86.5 51.45 -83.1 47.15 -82.8 43.6 -85.55 41.45 -88.65 38.55 -87.55 L38.55 -87.25 38.45 -86.65 38.15 -86.35 Q38.25 -85.65 37.95 -85.05 L35.25 -80.0 34.3 -81.65 Q31.95 -85.1 29.25 -83.1 L29.25 -82.8 29.15 -82.2 28.85 -81.9 28.85 -81.6 Q28.8 -77.35 30.8 -73.6 L33.3 -68.3 33.8 -67.65 Q34.85 -66.4 34.5 -64.65 31.65 -63.2 29.7 -61.2 L29.75 -60.95 30.1 -60.3 Q32.85 -53.85 36.6 -47.75 38.45 -44.85 38.15 -41.55 38.05 -40.45 37.0 -40.1 33.55 -38.9 30.9 -36.9 L31.0 -34.8 Q31.5 -31.0 33.3 -27.5 L33.5 -27.2 33.7 -26.9 33.75 -26.6 33.6 -25.4 24.65 -23.6 24.5 -23.25 Q24.35 -22.65 24.55 -22.05 L24.85 -21.75 Q27.65 -18.85 29.25 -15.4 L29.5 -15.15 30.1 -14.2 Q28.75 -12.25 26.45 -11.3 25.4 -11.3 24.65 -10.65 24.3 -10.3 24.35 -9.75 L24.55 -6.75 Q25.15 -6.2 25.35 -5.45 26.0 -2.95 25.95 -0.4 L20.9 -0.45 18.8 -0.05 Q15.55 1.35 15.15 5.45 8.7 2.65 3.7 -2.75 L3.25 -3.05 Q-1.25 -4.5 -5.65 -2.0 L-6.05 -2.1 Q-7.0 -2.55 -7.6 -3.35 -10.55 -7.3 -11.9 -11.9 L-12.45 -12.35 -14.85 -12.4 Q-20.0 -10.25 -25.3 -9.35 L-25.85 -11.15 -26.8 -17.55 Q-27.65 -18.55 -29.05 -18.65 L-35.7 -18.95 -35.6 -20.4 Q-35.05 -22.7 -34.9 -25.2 -39.6 -28.0 -45.4 -27.8 L-43.05 -30.25 Q-40.5 -35.05 -45.7 -35.8 -49.55 -39.45 -54.65 -41.15 -50.85 -44.05 -46.3 -45.75 -42.05 -47.3 -40.25 -50.7 -40.8 -51.2 -40.55 -51.65 -37.25 -55.55 -31.85 -55.35 L-29.7 -53.6 Q-26.9 -50.3 -23.2 -50.0 L-22.0 -51.45 -21.7 -52.7 Q-20.75 -55.55 -19.25 -58.1 L-16.85 -58.2 -14.65 -56.95 Q-12.75 -56.0 -11.05 -56.75 -10.3 -57.1 -10.3 -57.8 -10.2 -64.45 -10.6 -71.1 -8.45 -72.5 -5.9 -72.0 -3.3 -71.5 -2.2 -73.85 L-2.35 -74.1 Q-2.7 -74.8 -2.6 -75.65 L-2.95 -76.25 Q-3.8 -77.95 -5.0 -79.35 -7.4 -82.35 -6.55 -85.65 -3.15 -87.85 -0.2 -90.55 L-0.2 -90.9 -0.2 -91.2 0.0 -91.5 0.2 -92.1 0.1 -92.7 Q0.0 -94.5 -0.9 -96.0 L-1.0 -96.65 Q-1.1 -97.75 -1.7 -98.75 L-2.2 -99.35 -2.2 -99.95 -2.2 -101.75 Q-0.8 -103.65 1.45 -104.5 6.3 -104.15 9.8 -106.5 L9.9 -107.1 9.8 -108.95 9.2 -109.85 5.75 -115.9 6.7 -116.6 Q11.0 -117.7 15.25 -119.1 L15.4 -119.45 Q15.75 -120.25 15.25 -120.95 L13.55 -122.25 13.25 -122.65 Q7.45 -125.4 4.15 -130.3 L4.4 -130.65 4.75 -131.25 Q8.9 -133.05 13.35 -133.35 L13.45 -133.65 Q13.7 -134.4 13.45 -135.15 L12.75 -136.05 12.5 -136.6 Q11.25 -138.1 11.0 -140.0 L10.8 -140.3 Q9.7 -141.85 9.5 -143.65 15.25 -143.05 20.9 -143.35 21.35 -144.15 21.35 -145.15 21.2 -148.05 21.2 -150.9 L21.8 -151.0 Q30.75 -148.85 38.3 -143.9 L39.4 -143.8 Q44.8 -146.6 47.75 -151.9 L48.15 -152.2 Q48.5 -152.45 48.55 -152.2 48.7 -150.55 49.85 -149.3 L49.9 -148.4 Q50.1 -146.2 51.45 -144.45 L51.55 -142.65 Q51.85 -139.3 53.1 -136.25 L53.1 -135.95 53.1 -135.65 Q56.1 -133.45 59.25 -136.4 L60.35 -136.25 60.3 -132.35 59.65 -122.95 Q62.7 -121.75 65.65 -123.85 L69.3 -126.45 Q72.85 -129.05 76.2 -130.85 L77.05 -129.5 Q79.15 -126.35 80.65 -122.95 81.1 -122.7 81.4 -122.8 87.35 -124.75 91.8 -129.3 92.5 -125.9 92.55 -122.35" fill="#ffff00" fill-opacity="0.5019608" fill-rule="evenodd" stroke="none"/>
  </g>
</svg>
