<?xml version="1.0" encoding="UTF-8" standalone="no"?>
<svg xmlns:ffdec="https://www.free-decompiler.com/flash" xmlns:xlink="http://www.w3.org/1999/xlink" ffdec:objectType="shape" height="130.1px" width="116.5px" xmlns="http://www.w3.org/2000/svg">
  <g transform="matrix(1.0, 0.0, 0.0, 1.0, 34.75, 138.8)">
    <path d="M39.7 -135.35 Q43.15 -131.9 43.15 -127.0 43.15 -122.1 39.75 -118.65 50.5 -114.3 61.95 -112.35 67.55 -111.4 73.15 -112.4 79.5 -113.5 81.0 -108.4 81.55 -106.4 79.7 -105.6 76.2 -104.05 73.95 -106.55 57.7 -106.2 42.85 -112.15 40.55 -112.15 38.9 -113.55 L38.75 -113.7 Q36.0 -114.2 34.1 -115.55 L30.65 -115.85 33.6 -113.4 41.55 -106.3 Q57.1 -99.1 74.2 -101.1 78.35 -101.6 80.85 -98.85 82.1 -97.45 81.65 -95.45 80.35 -89.85 74.75 -92.0 L73.05 -93.1 Q72.35 -93.7 72.15 -94.65 56.45 -94.4 42.2 -100.6 35.4 -103.7 29.5 -108.75 L25.05 -112.9 24.85 -113.15 23.0 -109.35 Q18.85 -100.6 15.35 -91.5 L14.75 -90.3 13.25 -85.15 12.6 -83.3 Q11.85 -81.75 11.8 -80.0 L11.7 -78.8 11.7 -77.4 Q12.6 -75.9 12.7 -73.8 L12.7 -73.4 25.05 -48.45 Q25.5 -47.6 24.9 -46.75 20.3 -40.4 15.3 -34.3 11.65 -29.9 9.1 -24.8 8.3 -23.2 6.85 -21.95 10.6 -16.4 16.15 -12.15 16.75 -11.7 16.5 -11.0 15.25 -7.25 11.55 -9.65 8.15 -11.85 5.8 -15.1 3.75 -17.9 1.15 -20.3 0.6 -24.3 3.35 -27.45 L4.65 -29.1 Q11.35 -39.0 19.2 -48.15 18.1 -53.2 14.8 -57.9 L13.25 -60.25 Q10.6 -64.5 8.9 -69.05 8.25 -67.15 7.15 -65.4 6.9 -63.6 5.85 -62.0 L5.1 -60.85 Q5.25 -59.6 4.6 -58.55 L3.55 -57.4 Q0.7 -50.5 -4.4 -45.45 -5.2 -44.65 -6.55 -44.3 L-29.7 -38.5 Q-29.25 -33.15 -27.85 -28.05 -27.65 -27.35 -28.35 -26.9 -31.5 -24.85 -32.9 -28.5 L-33.0 -29.2 Q-36.15 -35.8 -33.55 -42.3 -33.3 -42.9 -32.35 -43.2 L-19.3 -46.65 Q-12.7 -48.35 -6.75 -50.65 -5.95 -50.95 -5.45 -51.75 -2.55 -56.4 -0.1 -61.35 3.0 -68.7 5.55 -76.4 5.2 -77.7 5.6 -79.25 L7.75 -87.9 8.7 -88.9 9.8 -93.0 10.05 -93.35 10.4 -93.75 10.7 -94.1 14.8 -104.45 Q15.05 -105.1 15.65 -105.55 18.35 -112.45 21.6 -119.35 L21.85 -119.95 Q19.55 -123.0 19.55 -127.0 19.55 -131.9 23.0 -135.35 26.45 -138.8 31.35 -138.8 36.25 -138.8 39.7 -135.35" fill="#000000" fill-rule="evenodd" stroke="none"/>
  </g>
</svg>
