<?xml version="1.0" encoding="UTF-8" standalone="no"?>
<svg xmlns:ffdec="https://www.free-decompiler.com/flash" xmlns:xlink="http://www.w3.org/1999/xlink" ffdec:objectType="shape" height="110.55px" width="111.2px" xmlns="http://www.w3.org/2000/svg">
  <g transform="matrix(1.0, 0.0, 0.0, 1.0, 34.25, 153.4)">
    <path d="M51.75 -153.4 Q56.65 -153.4 60.1 -149.95 63.55 -146.5 63.55 -141.6 63.55 -136.7 60.1 -133.25 L57.9 -131.45 56.85 -130.9 56.05 -130.0 46.95 -130.65 46.75 -130.8 46.75 -130.75 Q47.1 -128.55 47.8 -126.5 50.95 -121.2 53.35 -115.5 L53.75 -114.45 76.0 -108.85 Q77.05 -108.55 76.95 -107.35 76.45 -103.0 72.85 -104.55 L73.75 -102.95 Q74.3 -101.55 72.95 -100.7 67.5 -97.2 60.75 -98.85 L54.75 -99.7 Q46.55 -100.0 40.0 -104.05 L39.25 -104.65 Q37.8 -116.15 37.4 -127.85 L31.65 -120.7 27.2 -114.2 26.6 -114.2 25.4 -112.6 23.8 -110.45 24.45 -110.45 21.85 -105.55 Q23.3 -103.65 20.75 -100.95 L20.7 -97.9 Q20.4 -95.75 20.95 -93.65 L21.55 -91.15 Q23.55 -81.15 24.85 -71.2 24.95 -70.65 24.45 -70.4 24.0 -69.45 22.45 -68.35 19.8 -66.45 16.75 -65.1 8.8 -61.65 0.45 -59.85 0.85 -55.55 2.5 -51.35 L3.25 -48.4 Q6.4 -44.5 1.85 -42.95 0.7 -42.6 0.15 -43.7 -2.25 -48.55 -3.85 -53.8 -4.8 -56.9 -5.35 -60.0 -5.95 -63.8 -2.0 -64.75 9.45 -67.45 19.7 -72.5 L19.65 -72.75 17.55 -83.5 15.45 -93.3 15.4 -93.65 Q11.45 -83.3 4.15 -75.15 3.75 -74.7 3.0 -74.7 1.3 -74.75 0.1 -75.95 -10.95 -78.2 -21.25 -82.55 -23.35 -82.3 -24.8 -83.6 L-27.35 -83.6 Q-28.15 -81.2 -28.25 -78.65 -28.3 -77.7 -29.0 -77.1 -28.15 -73.05 -31.05 -71.0 -32.15 -70.2 -32.9 -71.35 -34.65 -73.85 -34.1 -77.25 -33.2 -83.15 -30.65 -88.4 -30.35 -89.0 -29.5 -89.0 -20.85 -88.9 -13.25 -85.15 -12.3 -84.65 -11.25 -84.35 -4.4 -82.2 2.5 -81.2 4.3 -83.25 5.6 -85.7 L5.9 -86.15 6.0 -86.5 6.1 -86.9 6.2 -87.25 Q7.85 -89.6 8.9 -92.25 L9.25 -93.35 9.5 -93.75 10.1 -94.5 Q10.35 -95.9 11.1 -97.2 L12.0 -98.35 12.1 -98.7 12.2 -99.1 12.3 -99.45 Q13.4 -101.55 14.8 -103.2 L14.8 -103.5 Q14.95 -104.4 15.6 -105.05 L15.65 -105.45 15.75 -106.2 15.85 -106.6 17.2 -108.45 17.4 -108.7 Q17.25 -109.3 17.55 -109.9 L18.7 -111.8 Q19.35 -115.45 22.35 -117.9 L23.25 -118.65 23.7 -118.7 Q30.65 -128.35 38.2 -137.6 L40.05 -139.9 39.95 -141.6 Q39.95 -146.5 43.4 -149.95 46.85 -153.4 51.75 -153.4 M48.8 -112.55 L45.5 -119.5 45.1 -120.55 Q43.8 -122.65 42.9 -124.8 43.3 -116.15 44.2 -107.6 54.65 -104.05 66.85 -104.4 68.0 -105.15 69.0 -105.45 58.7 -106.75 49.6 -110.95 48.65 -111.4 48.8 -112.55" fill="#000000" fill-rule="evenodd" stroke="none"/>
  </g>
</svg>
