<?xml version="1.0" encoding="UTF-8" standalone="no"?>
<svg xmlns:ffdec="https://www.free-decompiler.com/flash" xmlns:xlink="http://www.w3.org/1999/xlink" ffdec:objectType="shape" height="65.25px" width="119.05px" xmlns="http://www.w3.org/2000/svg">
  <g transform="matrix(1.0, 0.0, 0.0, 1.0, 31.55, 166.85)">
    <path d="M87.5 -151.35 Q87.5 -146.45 84.05 -143.0 83.0 -141.95 81.85 -141.2 L80.8 -140.65 80.0 -139.75 77.7 -140.0 Q74.6 -139.0 72.15 -140.35 L70.9 -140.4 68.8 -141.5 68.3 -142.15 67.35 -143.0 66.55 -143.85 66.1 -142.9 Q65.25 -137.25 65.85 -131.9 66.0 -130.55 67.2 -129.75 76.35 -123.55 84.8 -116.7 85.9 -115.8 86.35 -114.5 87.75 -110.25 83.75 -109.15 80.35 -108.15 79.85 -111.3 79.65 -112.65 80.05 -113.95 70.7 -120.3 62.1 -127.9 59.25 -130.45 59.85 -134.55 L60.95 -142.9 Q58.75 -138.75 57.05 -134.25 L55.35 -126.7 54.9 -125.1 Q58.7 -119.8 64.35 -115.7 L77.0 -106.85 77.5 -106.95 Q82.0 -110.8 83.9 -106.0 84.3 -105.05 83.45 -104.35 76.75 -98.65 69.8 -104.7 L61.9 -111.2 Q55.45 -116.1 49.85 -121.95 49.2 -122.6 49.2 -123.6 49.25 -126.35 50.7 -128.55 50.9 -132.5 52.3 -136.2 52.6 -137.05 53.25 -137.7 56.05 -146.35 61.25 -153.7 L63.05 -156.3 Q52.3 -155.4 42.05 -152.2 39.95 -151.55 37.9 -150.7 L35.8 -149.8 35.8 -149.55 28.85 -146.6 Q29.05 -145.5 28.85 -144.1 28.8 -143.75 28.9 -143.35 30.95 -132.7 29.05 -122.05 L28.6 -121.6 Q14.4 -119.4 -0.1 -120.35 L0.1 -118.85 0.05 -117.3 2.25 -109.95 Q2.7 -108.2 1.05 -107.5 -1.25 -106.5 -2.4 -108.85 -4.35 -112.95 -5.3 -117.35 -6.0 -120.65 -5.55 -123.85 -5.35 -125.55 -3.5 -125.6 L23.9 -126.3 24.95 -126.45 Q24.85 -135.35 23.8 -144.15 L19.3 -142.05 Q11.9 -138.3 4.85 -134.25 4.3 -133.95 3.7 -134.4 1.85 -135.7 0.75 -137.7 -1.2 -141.1 -3.9 -144.0 L-13.8 -159.15 -14.85 -160.35 -15.35 -160.35 Q-21.7 -155.5 -28.4 -151.05 -29.55 -150.3 -30.5 -151.3 -31.95 -152.7 -31.35 -154.65 -23.7 -160.7 -15.85 -166.6 L-15.45 -166.7 -14.7 -166.8 -14.7 -166.85 Q-10.7 -165.95 -8.65 -161.8 L-6.35 -157.7 Q-0.85 -148.9 5.5 -140.7 15.25 -146.45 25.6 -150.7 L26.85 -150.95 Q30.85 -153.4 35.25 -155.25 L35.8 -155.5 35.8 -155.45 44.1 -158.5 47.8 -159.55 Q56.35 -161.55 65.05 -161.6 67.65 -162.35 69.9 -161.65 72.5 -163.15 75.7 -163.15 80.6 -163.15 84.05 -159.7 87.5 -156.25 87.5 -151.35" fill="#000000" fill-rule="evenodd" stroke="none"/>
  </g>
</svg>
