<?xml version="1.0" encoding="UTF-8" standalone="no"?>
<svg xmlns:ffdec="https://www.free-decompiler.com/flash" xmlns:xlink="http://www.w3.org/1999/xlink" ffdec:objectType="shape" height="141.65px" width="126.7px" xmlns="http://www.w3.org/2000/svg">
  <g transform="matrix(1.0, 0.0, 0.0, 1.0, 15.5, 232.65)">
    <path d="M59.9 -158.8 L59.85 -158.5 58.9 -157.0 Q58.0 -155.25 57.5 -153.35 L53.6 -152.95 54.25 -153.9 Q54.85 -154.85 54.7 -156.0 L54.5 -156.3 52.8 -157.8 52.4 -158.3 Q51.6 -158.9 52.05 -159.2 L52.45 -159.35 53.6 -159.85 53.9 -159.85 60.25 -159.7 59.95 -159.4 59.9 -158.8 M50.55 -151.65 Q49.4 -151.3 49.1 -150.25 L49.05 -149.95 52.35 -149.85 52.7 -150.15 59.1 -151.45 59.35 -151.55 Q60.0 -155.5 62.55 -158.55 L62.75 -158.8 62.8 -159.1 63.15 -160.95 63.15 -161.25 62.65 -161.55 54.1 -162.05 49.45 -160.95 49.25 -160.85 49.15 -160.5 49.1 -158.4 49.15 -158.1 Q49.65 -157.7 50.25 -157.4 L50.85 -157.1 52.35 -155.25 52.5 -155.0 50.7 -151.95 50.55 -151.65 M36.45 -231.15 L36.5 -230.95 Q38.1 -225.9 39.05 -220.65 39.5 -220.4 40.0 -220.35 L52.9 -218.7 Q55.25 -218.25 56.2 -217.35 52.85 -213.25 48.45 -210.1 43.55 -206.6 39.75 -202.5 L39.85 -200.1 42.6 -197.65 Q38.9 -196.05 35.45 -194.1 32.25 -192.3 30.5 -189.5 L30.95 -189.15 Q32.6 -188.8 34.2 -189.15 39.35 -190.25 44.6 -189.3 L44.65 -189.1 Q45.2 -187.2 45.1 -185.15 L45.9 -185.0 Q52.2 -187.2 58.05 -190.7 L58.65 -190.1 58.75 -189.8 Q60.75 -184.65 61.15 -179.2 61.55 -178.15 62.55 -177.8 69.6 -182.65 75.9 -188.7 L76.2 -187.15 76.8 -185.95 Q77.65 -180.55 77.8 -175.05 81.05 -173.75 83.75 -176.05 89.15 -178.7 93.25 -182.2 L93.75 -181.6 94.45 -176.5 Q94.95 -169.45 95.95 -162.55 L96.85 -162.35 109.2 -162.75 108.75 -162.15 108.75 -161.85 108.75 -161.55 108.35 -160.95 108.3 -160.65 Q105.25 -155.45 104.35 -149.45 L110.2 -142.8 Q110.45 -141.9 111.2 -141.25 108.1 -141.15 105.55 -140.05 L105.65 -138.25 Q106.25 -132.5 107.15 -126.75 99.85 -127.4 93.45 -125.1 93.3 -124.15 93.65 -123.3 L94.05 -123.0 94.45 -122.1 Q98.25 -118.7 101.6 -114.85 94.0 -111.95 87.4 -107.65 L87.4 -107.35 87.4 -105.85 88.8 -104.05 89.2 -103.15 92.85 -99.7 90.0 -100.0 Q85.15 -100.6 82.95 -96.45 83.05 -94.45 82.55 -92.55 L81.75 -91.65 81.7 -91.35 81.55 -91.0 78.15 -94.9 Q77.5 -95.6 76.6 -95.85 72.75 -97.0 68.5 -95.5 64.5 -94.05 60.85 -93.95 L60.7 -95.45 60.75 -106.35 Q60.45 -107.0 59.75 -107.15 56.0 -106.25 52.3 -106.05 52.1 -108.1 52.85 -109.85 55.7 -116.35 56.7 -123.3 L56.15 -123.7 Q49.85 -125.35 43.8 -125.2 44.15 -127.65 45.0 -130.05 47.05 -134.4 46.65 -139.45 46.3 -140.1 45.6 -140.25 41.85 -136.8 39.35 -132.0 L38.65 -131.9 Q38.1 -132.7 37.95 -133.7 L36.85 -134.6 Q36.2 -136.15 35.05 -137.35 33.0 -139.45 31.6 -142.05 30.1 -144.75 27.65 -144.9 L26.45 -143.5 26.35 -141.95 Q24.5 -139.35 23.5 -136.3 20.0 -139.2 17.05 -142.9 15.95 -144.25 14.45 -144.85 L13.65 -144.7 Q9.0 -139.6 4.95 -133.9 L4.25 -134.0 4.25 -135.5 Q4.1 -141.2 4.65 -146.7 L4.15 -147.0 Q-3.15 -147.2 -9.85 -144.6 -9.65 -146.95 -8.45 -149.05 -4.1 -156.7 -1.4 -164.85 -1.65 -165.15 -1.9 -165.15 -8.95 -165.15 -15.5 -167.1 -9.45 -173.7 -1.3 -177.7 -0.6 -178.65 -0.6 -179.8 -4.95 -182.2 -9.75 -183.95 L-10.35 -184.75 Q-4.3 -188.05 2.15 -190.65 L4.35 -191.5 Q8.3 -192.85 10.7 -195.75 L10.15 -196.4 -0.1 -198.55 Q1.7 -199.35 2.45 -201.0 8.1 -204.0 12.35 -208.55 11.2 -210.55 8.05 -210.1 L-0.85 -210.45 Q-5.0 -211.4 -6.85 -213.8 -1.55 -216.3 4.75 -216.0 5.3 -216.7 4.95 -217.55 L4.25 -218.45 Q1.2 -223.85 -3.0 -228.45 7.25 -226.9 16.55 -222.15 17.25 -222.35 17.55 -223.0 L17.6 -223.3 Q18.2 -227.85 17.95 -232.65 23.1 -228.05 28.05 -222.6 L28.05 -222.25 28.05 -221.95 Q28.8 -221.0 29.9 -220.55 L30.6 -220.85 36.45 -231.15" fill="#ffff00" fill-opacity="0.5019608" fill-rule="evenodd" stroke="none"/>
  </g>
</svg>
