<?xml version="1.0" encoding="UTF-8" standalone="no"?>
<svg xmlns:ffdec="https://www.free-decompiler.com/flash" xmlns:xlink="http://www.w3.org/1999/xlink" ffdec:objectType="shape" height="107.2px" width="93.6px" xmlns="http://www.w3.org/2000/svg">
  <g transform="matrix(1.0, 0.0, 0.0, 1.0, -4.4, 214.95)">
    <path d="M17.3 -214.95 L33.55 -211.8 Q34.3 -211.65 34.2 -210.8 33.95 -208.1 31.95 -205.9 L29.0 -202.05 Q22.6 -192.5 14.9 -184.05 23.1 -182.45 31.5 -181.4 35.4 -180.9 38.5 -179.3 53.05 -178.2 66.55 -173.25 75.15 -170.05 82.35 -164.15 86.5 -161.95 90.4 -159.15 L92.4 -157.6 93.65 -156.2 94.55 -155.35 Q98.0 -151.9 98.0 -147.0 98.0 -142.1 94.55 -138.65 L92.35 -136.85 91.3 -136.3 90.5 -135.4 81.4 -136.05 79.3 -137.15 78.8 -137.8 77.85 -138.65 Q75.55 -140.95 74.8 -143.9 L71.65 -138.7 71.45 -138.0 70.9 -136.8 Q71.75 -132.95 73.7 -129.6 74.15 -128.85 74.2 -128.05 L77.5 -122.3 77.9 -121.55 Q80.25 -121.7 81.85 -119.75 83.7 -117.6 81.7 -115.75 78.55 -112.75 75.6 -115.95 72.6 -119.25 70.95 -123.45 70.4 -124.9 69.25 -126.0 L69.15 -126.4 69.1 -126.75 69.0 -127.15 Q68.1 -128.15 67.8 -129.5 L67.45 -130.6 Q65.25 -134.0 65.7 -138.2 65.8 -139.1 66.45 -139.75 L66.55 -140.1 66.65 -140.85 66.7 -141.25 68.05 -143.1 68.6 -143.95 70.1 -146.7 67.1 -143.75 65.45 -142.65 Q63.6 -139.9 61.45 -137.35 L60.75 -136.2 Q63.1 -131.4 66.1 -127.05 67.15 -125.6 67.6 -124.0 L72.1 -116.7 Q72.7 -115.65 73.55 -114.85 78.8 -115.7 78.75 -111.15 78.7 -110.2 78.05 -109.5 74.65 -105.95 71.1 -109.65 68.0 -112.9 65.5 -116.6 L64.7 -117.9 64.3 -119.0 63.9 -120.55 61.85 -123.3 Q61.5 -123.75 61.5 -124.35 L57.6 -130.1 Q57.0 -130.95 56.95 -132.0 55.0 -134.05 55.2 -136.95 L55.55 -139.2 Q58.95 -143.05 62.65 -146.7 L63.8 -147.6 Q65.65 -150.15 67.85 -152.45 L68.5 -152.95 Q71.9 -157.7 76.3 -161.75 L76.4 -161.85 72.7 -164.65 Q64.0 -169.85 53.95 -171.6 L50.3 -172.15 Q45.45 -172.65 40.95 -173.8 L40.6 -172.1 Q40.15 -170.55 40.25 -168.85 40.8 -159.3 42.2 -150.1 42.3 -149.5 41.7 -149.25 38.4 -147.85 35.9 -151.05 34.35 -153.05 32.25 -154.5 L13.75 -166.9 10.2 -159.35 9.65 -158.55 Q8.75 -153.75 5.05 -157.1 4.5 -157.6 4.45 -158.4 4.25 -160.2 5.45 -161.45 L5.55 -161.85 5.65 -162.2 5.75 -162.6 Q7.1 -164.55 8.0 -166.75 L8.5 -167.55 Q8.9 -173.55 14.2 -173.05 16.35 -172.85 17.55 -171.25 25.85 -164.45 35.1 -158.8 L35.6 -158.8 Q34.9 -166.65 35.45 -174.55 L34.85 -174.8 Q30.1 -176.8 24.8 -177.0 16.0 -177.35 8.25 -180.7 7.75 -180.9 7.85 -181.5 8.25 -185.6 11.55 -188.65 L14.9 -192.15 Q19.25 -197.3 22.7 -203.05 24.4 -205.85 26.8 -208.1 21.45 -208.4 16.25 -210.3 15.1 -210.75 14.85 -211.9 14.65 -212.7 14.9 -213.4 L15.55 -214.1 16.55 -214.75 17.3 -214.95" fill="#000000" fill-rule="evenodd" stroke="none"/>
  </g>
</svg>
