<?xml version="1.0" encoding="UTF-8" standalone="no"?>
<svg xmlns:ffdec="https://www.free-decompiler.com/flash" xmlns:xlink="http://www.w3.org/1999/xlink" ffdec:objectType="shape" height="140.0px" width="116.5px" xmlns="http://www.w3.org/2000/svg">
  <g transform="matrix(1.0, 0.0, 0.0, 1.0, 4.2, 232.55)">
    <path d="M21.4 -223.1 Q23.8 -223.9 26.05 -224.8 L45.2 -225.15 45.9 -225.3 46.05 -225.6 Q46.8 -229.3 45.1 -232.55 46.85 -231.55 49.1 -230.5 L58.55 -225.95 Q63.25 -223.65 68.0 -223.2 70.7 -226.75 72.85 -230.85 73.9 -230.6 74.45 -229.85 L74.45 -229.55 74.45 -229.25 75.7 -228.0 75.65 -227.7 Q75.55 -226.9 75.9 -226.2 77.2 -224.15 79.6 -223.7 87.0 -222.35 93.15 -225.6 L95.05 -225.5 95.05 -225.2 95.05 -223.7 94.65 -223.1 Q94.2 -220.3 92.65 -217.9 L92.5 -217.65 Q89.85 -214.0 89.9 -209.75 L90.25 -209.5 90.8 -209.3 Q98.0 -208.2 103.1 -203.1 L103.15 -202.8 Q103.2 -202.3 102.8 -201.9 97.85 -199.25 93.05 -197.15 L93.0 -196.85 Q92.95 -196.25 93.15 -195.65 96.0 -192.35 99.2 -189.6 96.7 -188.1 93.65 -187.25 90.25 -186.3 88.2 -184.05 L88.5 -183.65 100.9 -177.3 Q100.0 -176.7 99.7 -175.75 98.6 -175.25 97.9 -174.25 L97.85 -173.95 98.0 -173.05 Q99.95 -171.15 102.6 -170.7 103.45 -169.8 104.65 -169.6 105.65 -168.95 105.95 -167.9 L105.15 -166.7 105.1 -166.4 Q104.4 -164.65 104.35 -162.75 L103.95 -162.15 103.95 -161.85 Q103.85 -158.95 104.05 -156.1 105.05 -154.65 106.65 -154.3 108.1 -153.2 109.6 -153.05 109.1 -149.05 109.15 -144.9 L109.2 -144.6 Q110.0 -140.4 112.3 -136.7 L112.0 -136.4 Q107.5 -136.3 104.35 -133.8 104.55 -130.2 105.95 -126.85 107.4 -124.95 108.05 -122.6 L110.2 -120.8 108.95 -120.5 108.45 -120.4 Q101.05 -119.7 94.65 -116.25 L94.65 -115.95 94.65 -112.6 Q97.65 -109.8 99.6 -106.25 97.55 -105.1 95.25 -105.0 90.95 -104.8 89.25 -101.4 89.0 -100.9 89.05 -100.3 89.45 -96.35 89.2 -92.55 84.55 -95.6 80.2 -99.3 79.7 -100.45 78.6 -101.25 76.35 -102.8 73.5 -101.85 67.4 -99.85 61.95 -97.05 L61.55 -97.7 60.6 -101.25 Q59.6 -104.25 59.1 -107.4 L58.15 -111.95 Q57.95 -112.9 56.95 -113.1 L49.05 -112.8 Q49.95 -117.25 51.55 -121.6 L51.7 -121.9 Q53.65 -125.65 53.9 -129.75 L53.35 -130.1 Q44.9 -131.45 37.15 -130.35 L37.2 -130.55 37.45 -131.15 40.7 -134.45 41.15 -134.85 Q45.6 -138.15 48.65 -142.65 L48.7 -142.95 49.05 -145.1 48.65 -145.7 48.65 -146.0 48.65 -146.3 44.6 -149.35 Q45.55 -149.45 46.2 -150.15 L50.05 -150.6 53.9 -151.15 Q58.45 -151.6 61.95 -153.55 60.6 -156.75 56.8 -157.7 L55.8 -158.5 Q57.25 -159.65 59.05 -159.95 62.95 -160.55 64.3 -163.45 63.25 -164.5 61.75 -164.6 52.8 -165.2 45.0 -161.05 44.3 -161.15 43.8 -161.5 L40.75 -164.05 39.2 -165.5 Q37.85 -166.8 36.0 -166.25 34.15 -165.7 32.65 -164.3 30.25 -162.1 27.55 -160.75 25.8 -161.3 25.05 -162.85 L23.75 -163.45 21.8 -165.9 Q20.95 -167.65 19.0 -168.5 L12.85 -163.95 12.35 -164.05 11.2 -166.45 10.85 -167.1 9.9 -168.5 Q8.65 -169.95 6.75 -170.6 1.85 -172.25 -3.4 -173.15 -4.1 -173.5 -4.2 -174.05 L-4.1 -174.35 -3.8 -174.95 -3.1 -175.55 -3.05 -175.85 -3.0 -176.75 -2.8 -177.1 -2.65 -177.4 Q-2.1 -178.6 -1.05 -179.45 1.8 -181.85 2.15 -185.25 0.25 -187.05 -2.4 -187.75 L-1.35 -188.1 Q2.65 -189.55 6.15 -191.7 L6.2 -192.6 Q5.1 -195.85 6.15 -198.95 10.5 -198.9 14.35 -196.85 17.0 -195.45 19.7 -194.3 20.55 -193.9 21.4 -193.9 24.3 -193.8 25.75 -196.65 L26.45 -196.65 28.4 -195.15 28.75 -194.8 33.0 -190.8 Q35.4 -188.35 37.95 -188.7 L38.0 -189.0 Q38.25 -191.55 38.15 -194.15 L38.95 -194.15 Q43.75 -191.65 49.25 -191.6 49.75 -191.85 49.85 -192.4 46.1 -195.6 41.6 -198.45 L41.0 -199.35 Q43.1 -199.0 45.0 -199.8 L45.15 -200.0 45.4 -200.6 Q44.6 -202.0 42.9 -202.65 40.2 -203.7 37.4 -204.1 29.6 -205.15 22.4 -208.45 25.95 -209.9 29.9 -209.6 32.7 -209.4 34.4 -211.1 L34.5 -211.4 34.4 -212.3 31.4 -215.05 31.05 -215.3 25.45 -219.15 Q22.6 -221.05 21.4 -223.1" fill="#ffff00" fill-opacity="0.5019608" fill-rule="evenodd" stroke="none"/>
  </g>
</svg>
