<?xml version="1.0" encoding="UTF-8" standalone="no"?>
<svg xmlns:ffdec="https://www.free-decompiler.com/flash" xmlns:xlink="http://www.w3.org/1999/xlink" ffdec:objectType="shape" height="9.85px" width="24.6px" xmlns="http://www.w3.org/2000/svg">
  <g transform="matrix(1.0, 0.0, 0.0, 1.0, 12.3, 4.95)">
    <path d="M-5.95 1.05 Q-3.6 1.6 -4.55 3.7 -4.85 4.45 -5.65 4.45 -7.7 4.55 -7.55 2.6 -7.5 1.65 -6.65 1.3 L-5.95 1.05 M-0.9 1.05 Q0.95 0.85 2.85 1.0 L6.75 1.15 Q4.95 -0.6 3.65 -2.65 3.45 -2.95 3.55 -3.35 3.8 -4.85 5.25 -4.95 7.3 -4.2 8.65 -2.35 L10.45 0.05 Q11.5 1.45 12.2 3.0 12.45 3.55 12.05 4.1 11.55 4.9 10.6 4.9 L2.5 4.7 -1.2 4.45 Q-2.5 4.3 -2.6 2.95 -2.65 1.3 -0.9 1.05 M-10.65 1.4 Q-8.35 1.95 -9.3 4.05 -9.6 4.8 -10.4 4.8 -12.45 4.9 -12.3 2.95 -12.25 2.0 -11.4 1.65 L-10.65 1.4" fill="#000000" fill-rule="evenodd" stroke="none"/>
  </g>
</svg>
