<?xml version="1.0" encoding="UTF-8" standalone="no"?>
<svg xmlns:ffdec="https://www.free-decompiler.com/flash" xmlns:xlink="http://www.w3.org/1999/xlink" ffdec:objectType="shape" height="137.8px" width="61.65px" xmlns="http://www.w3.org/2000/svg">
  <g transform="matrix(1.0, 0.0, 0.0, 1.0, -58.7, 241.5)">
    <path d="M80.0 -237.95 Q83.05 -237.25 81.95 -234.45 80.95 -231.8 79.5 -229.3 77.9 -225.55 76.75 -221.65 L74.4 -214.45 Q74.5 -211.95 74.2 -209.5 L73.4 -202.0 75.05 -201.25 Q76.6 -200.4 77.95 -199.35 86.45 -194.7 94.2 -188.7 L95.5 -187.65 95.4 -188.1 95.8 -188.1 95.85 -188.95 Q96.25 -193.5 96.0 -198.05 95.75 -202.35 95.75 -206.8 L95.45 -207.2 94.85 -207.95 Q94.25 -213.3 94.05 -218.65 94.0 -219.8 95.1 -220.4 L95.5 -220.5 96.25 -220.65 Q99.0 -219.95 99.3 -217.0 L99.3 -216.6 109.25 -193.25 109.45 -192.2 110.05 -191.4 110.6 -190.3 Q113.4 -190.1 116.55 -191.65 118.95 -192.85 119.95 -190.65 121.35 -187.8 118.0 -186.45 113.7 -184.65 109.35 -183.5 107.9 -183.15 107.25 -184.5 106.2 -186.75 105.4 -189.05 L105.15 -189.4 104.5 -190.2 Q103.55 -193.7 101.85 -196.95 L101.35 -198.2 Q101.7 -192.9 100.95 -187.85 101.55 -186.65 101.65 -185.0 L102.2 -174.7 101.95 -174.7 Q102.5 -162.2 101.0 -150.15 102.6 -147.5 102.6 -144.15 102.6 -139.25 99.15 -135.8 L96.95 -134.0 95.9 -133.45 95.1 -132.55 86.0 -133.2 83.9 -134.3 83.4 -134.95 82.45 -135.8 Q79.35 -138.9 79.05 -143.15 L76.5 -141.65 71.65 -137.85 Q72.2 -132.85 74.6 -128.2 76.3 -124.85 78.35 -121.65 82.25 -115.6 84.5 -108.95 86.0 -104.55 81.3 -104.1 79.3 -103.95 78.25 -105.6 76.7 -108.1 77.75 -110.8 76.7 -113.6 74.95 -116.1 L74.35 -116.9 74.25 -117.25 74.2 -117.65 74.1 -118.05 73.05 -119.25 Q72.65 -119.7 72.7 -120.3 71.4 -121.6 71.3 -123.35 L71.05 -124.5 Q69.35 -127.0 68.3 -129.8 L68.1 -131.0 Q64.4 -136.2 67.85 -141.4 L69.15 -142.75 81.55 -151.5 82.45 -152.5 Q75.45 -150.0 68.9 -146.25 L66.85 -144.6 65.05 -142.15 64.25 -135.65 64.05 -130.75 Q64.05 -129.55 63.55 -128.45 L65.05 -122.05 66.1 -118.15 66.2 -117.75 66.55 -117.35 66.9 -116.6 67.1 -115.85 68.9 -113.0 Q69.45 -112.05 69.65 -110.9 73.0 -111.2 76.0 -109.4 76.8 -108.9 76.75 -107.85 76.35 -102.55 70.2 -104.0 65.45 -105.15 63.8 -109.9 L62.7 -112.05 Q62.0 -113.0 62.0 -114.2 L61.75 -114.6 61.4 -115.0 61.1 -115.35 Q58.8 -122.0 58.7 -129.1 58.6 -137.75 60.85 -145.85 L60.95 -146.25 61.0 -146.6 61.1 -147.4 Q71.6 -154.25 83.5 -158.7 89.15 -160.8 95.05 -161.1 L96.9 -160.9 Q97.3 -168.25 96.9 -175.65 L97.1 -175.65 96.4 -181.1 Q95.2 -180.75 93.7 -182.0 82.6 -191.35 69.9 -197.9 67.85 -198.95 68.05 -201.4 L69.85 -217.35 70.2 -218.15 Q70.9 -221.6 72.05 -224.95 73.35 -228.8 75.3 -232.25 L75.4 -232.6 75.4 -233.0 75.45 -233.35 75.55 -233.75 Q72.55 -236.6 67.65 -236.6 66.95 -236.6 66.6 -237.35 66.05 -238.65 66.4 -240.0 L67.1 -240.7 68.1 -241.3 68.8 -241.5 Q74.8 -241.25 79.85 -238.05 L80.0 -237.95 M93.7 -155.6 Q95.1 -155.25 96.4 -154.55 L96.55 -156.15 96.3 -156.1 93.7 -155.6" fill="#000000" fill-rule="evenodd" stroke="none"/>
  </g>
</svg>
