<?xml version="1.0" encoding="UTF-8" standalone="no"?>
<svg xmlns:ffdec="https://www.free-decompiler.com/flash" xmlns:xlink="http://www.w3.org/1999/xlink" ffdec:objectType="shape" height="115.65px" width="108.35px" xmlns="http://www.w3.org/2000/svg">
  <g transform="matrix(1.0, 0.0, 0.0, 1.0, -58.75, 221.15)">
    <path d="M124.45 -206.3 Q124.5 -207.0 125.2 -207.25 139.65 -212.2 155.25 -211.25 L155.4 -211.65 155.65 -212.0 156.0 -212.4 156.1 -212.8 156.15 -213.15 156.25 -213.55 Q157.95 -217.9 161.1 -220.9 L161.75 -221.15 Q166.55 -219.95 163.65 -215.5 161.75 -212.6 160.2 -209.5 159.85 -206.6 157.1 -206.35 L142.4 -205.45 Q135.6 -205.3 129.2 -203.25 128.75 -194.95 127.75 -186.85 L127.2 -181.5 127.0 -179.4 Q132.5 -183.35 137.45 -188.0 144.3 -194.45 152.05 -198.8 154.2 -197.95 154.5 -196.7 156.1 -194.65 155.55 -191.1 155.15 -188.35 155.2 -185.45 155.45 -177.3 154.6 -169.45 160.35 -168.95 166.25 -166.75 167.25 -166.4 167.05 -165.3 166.45 -161.8 162.55 -162.5 L150.5 -164.4 Q149.5 -164.55 149.45 -165.55 149.25 -170.7 149.55 -175.85 150.05 -183.5 149.95 -191.2 L128.65 -173.45 124.7 -170.0 Q125.0 -168.45 123.9 -166.35 L123.7 -165.95 124.4 -165.95 Q121.75 -161.5 118.6 -157.35 L113.4 -151.15 Q108.75 -146.1 104.85 -140.6 104.65 -136.05 101.4 -132.8 L99.2 -131.0 98.15 -130.45 97.35 -129.55 88.25 -130.2 86.15 -131.3 85.65 -131.95 84.7 -132.8 Q81.25 -136.25 81.25 -141.15 L81.25 -141.7 79.8 -141.65 76.65 -141.15 Q75.05 -140.55 73.3 -140.5 L72.1 -132.5 Q71.3 -125.75 71.65 -118.8 L77.85 -112.8 Q78.35 -112.35 78.4 -111.55 78.5 -108.8 75.75 -108.1 75.2 -105.65 72.7 -105.5 68.95 -105.35 66.25 -107.05 64.25 -107.35 62.65 -109.45 60.4 -112.4 59.85 -115.85 58.4 -119.0 58.85 -122.75 L58.95 -125.0 Q58.85 -134.4 59.35 -143.7 59.35 -144.3 59.85 -144.85 60.1 -150.05 65.4 -150.5 L78.3 -151.75 88.45 -152.95 91.95 -152.9 93.05 -152.95 94.65 -152.85 108.0 -152.45 Q112.7 -158.15 117.05 -164.2 L117.25 -164.45 116.75 -164.45 120.5 -171.15 121.0 -172.65 120.95 -173.55 Q121.35 -180.3 122.3 -186.9 L123.95 -199.8 124.45 -206.3 M102.9 -147.75 L103.15 -147.35 103.45 -147.7 102.9 -147.75 M64.0 -138.85 L64.05 -135.05 64.05 -133.9 64.05 -126.3 64.05 -119.05 64.25 -118.65 Q65.1 -116.25 66.4 -114.05 L66.6 -113.7 68.7 -114.05 Q65.25 -117.85 66.1 -123.8 L66.9 -130.2 67.55 -139.75 Q67.75 -144.1 71.0 -145.65 L65.2 -144.6 Q65.1 -144.4 65.15 -144.2 65.2 -143.35 64.7 -142.65 L64.15 -141.9 64.0 -138.85" fill="#000000" fill-rule="evenodd" stroke="none"/>
  </g>
</svg>
