<?xml version="1.0" encoding="UTF-8" standalone="no"?>
<svg xmlns:ffdec="https://www.free-decompiler.com/flash" xmlns:xlink="http://www.w3.org/1999/xlink" ffdec:objectType="shape" height="100.4px" width="159.5px" xmlns="http://www.w3.org/2000/svg">
  <g transform="matrix(1.0, 0.0, 0.0, 1.0, -36.05, 172.25)">
    <path d="M126.0 -155.1 Q128.65 -152.7 130.8 -149.85 133.05 -146.85 136.0 -147.5 139.6 -153.3 144.8 -157.8 L145.4 -157.9 Q149.35 -154.8 152.25 -150.9 153.65 -149.1 156.1 -150.15 L164.05 -153.25 Q164.7 -151.15 164.8 -148.85 165.05 -142.85 164.95 -136.7 L165.85 -136.2 Q171.75 -138.15 177.25 -140.75 L177.7 -137.1 Q178.55 -131.7 178.7 -126.25 179.2 -125.6 180.0 -125.7 L194.45 -126.45 193.35 -124.65 Q189.2 -120.2 189.1 -114.35 193.2 -111.45 195.55 -107.05 194.85 -106.3 193.9 -105.75 L185.25 -105.3 184.85 -105.15 Q184.55 -104.75 184.55 -104.25 L185.05 -100.9 185.65 -100.25 Q187.45 -97.7 188.8 -94.85 L170.3 -95.2 Q169.35 -95.2 168.9 -94.35 L168.9 -93.75 169.0 -91.95 Q170.1 -90.75 171.3 -89.9 L174.15 -86.0 174.25 -85.4 174.9 -83.15 Q176.5 -78.5 176.45 -73.65 167.6 -78.6 160.2 -85.75 159.1 -85.3 158.45 -84.2 L151.55 -71.85 151.15 -72.15 Q150.25 -74.0 148.7 -75.5 L148.7 -75.8 148.7 -76.1 Q145.85 -80.0 141.2 -77.8 137.9 -76.2 134.6 -74.9 L134.2 -75.5 134.2 -75.8 134.2 -76.1 133.8 -76.7 133.6 -77.55 Q132.5 -79.4 132.5 -81.55 L131.75 -82.45 Q131.8 -83.2 131.2 -83.35 127.1 -84.3 122.9 -83.15 L122.9 -83.35 122.9 -83.95 123.55 -84.85 Q125.85 -87.85 126.55 -91.2 L126.95 -91.85 126.95 -92.15 126.95 -93.05 Q125.1 -95.65 122.1 -96.45 L116.25 -99.2 Q118.9 -100.6 121.9 -101.1 129.8 -102.5 135.4 -107.35 133.4 -109.35 130.95 -110.7 L130.95 -112.5 130.95 -118.85 Q130.65 -119.5 129.95 -119.65 123.65 -115.8 116.85 -113.0 114.85 -112.45 113.5 -113.8 110.9 -116.55 108.75 -119.95 L108.75 -120.3 108.75 -120.9 Q108.45 -121.55 107.75 -121.7 L107.0 -121.05 Q103.95 -117.65 102.1 -113.3 L101.7 -113.2 Q98.15 -114.3 95.0 -116.35 91.45 -118.55 88.0 -118.05 L87.85 -117.45 Q87.55 -115.75 88.6 -114.45 88.5 -113.45 88.95 -112.6 L94.75 -101.7 93.65 -101.6 92.6 -102.1 91.35 -102.75 Q86.95 -105.7 83.35 -102.95 L83.35 -102.6 83.25 -102.0 82.95 -101.7 82.65 -95.4 82.5 -92.9 Q82.35 -90.1 80.2 -89.7 76.0 -94.0 73.95 -99.65 73.6 -100.65 72.65 -100.75 71.25 -100.85 69.9 -100.15 65.3 -97.65 61.15 -96.05 61.25 -104.35 58.6 -111.8 58.35 -112.5 57.7 -112.7 52.55 -114.3 47.45 -114.1 L47.45 -115.05 47.45 -118.35 Q48.35 -119.4 48.5 -120.75 48.95 -124.75 48.65 -128.95 47.1 -130.4 45.1 -131.2 40.3 -133.2 36.05 -133.5 37.55 -135.4 39.7 -136.45 43.65 -138.35 44.1 -142.05 41.6 -145.6 38.55 -148.75 L38.55 -149.05 38.65 -150.25 48.45 -150.9 Q49.55 -150.95 50.45 -151.55 50.8 -152.7 50.7 -154.0 L50.15 -161.55 Q55.7 -159.2 61.05 -156.55 62.8 -155.65 64.6 -155.5 L65.15 -155.8 Q66.2 -159.35 66.2 -163.15 71.7 -159.55 76.1 -155.0 L76.05 -154.4 Q76.0 -153.6 76.2 -152.85 L77.1 -152.35 77.8 -152.65 77.95 -153.0 78.1 -153.85 Q78.8 -154.35 78.9 -155.1 L78.75 -155.35 Q78.2 -155.9 78.1 -156.6 L78.4 -157.25 Q78.9 -158.7 79.0 -160.25 L79.5 -160.85 Q81.75 -159.5 83.95 -160.45 L84.25 -162.25 84.15 -168.6 Q87.9 -166.65 90.5 -163.05 L90.6 -162.75 90.7 -162.15 Q91.6 -161.3 92.85 -161.75 94.5 -163.05 95.45 -164.95 L95.9 -165.35 Q98.85 -168.5 101.3 -172.25 L103.05 -156.3 Q103.2 -155.2 104.15 -154.8 106.8 -153.7 109.1 -155.4 L109.35 -154.8 Q110.0 -153.8 110.0 -152.65 L110.2 -152.4 Q111.4 -151.3 111.3 -149.65 L113.6 -146.3 113.6 -146.0 113.6 -145.7 Q115.3 -144.3 116.35 -142.5 116.95 -141.5 117.7 -142.3 122.9 -147.9 126.0 -155.1" fill="#ffff00" fill-opacity="0.5019608" fill-rule="evenodd" stroke="none"/>
  </g>
</svg>
