<?xml version="1.0" encoding="UTF-8" standalone="no"?>
<svg xmlns:ffdec="https://www.free-decompiler.com/flash" xmlns:xlink="http://www.w3.org/1999/xlink" ffdec:objectType="shape" height="67.5px" width="132.7px" xmlns="http://www.w3.org/2000/svg">
  <g transform="matrix(1.0, 0.0, 0.0, 1.0, -49.85, 153.55)">
    <path d="M93.85 -153.55 Q98.75 -153.55 102.2 -150.1 105.65 -146.65 105.65 -141.75 105.65 -138.75 104.4 -136.3 L111.25 -137.15 118.4 -138.75 120.45 -138.85 120.45 -139.15 127.25 -137.7 128.8 -137.8 129.95 -137.9 Q142.65 -137.8 155.35 -137.3 L156.35 -136.85 Q166.25 -127.35 169.1 -114.05 L178.1 -116.5 Q181.6 -117.5 182.45 -114.3 182.85 -112.8 181.4 -112.0 177.85 -110.1 173.7 -109.55 L169.2 -108.5 Q165.55 -107.25 164.45 -110.75 162.7 -116.15 161.45 -121.5 L161.2 -121.9 160.65 -122.7 160.35 -123.45 159.95 -123.85 Q157.35 -128.35 153.4 -131.85 L153.1 -132.2 Q146.15 -132.15 139.2 -132.4 142.35 -130.5 145.3 -128.15 151.35 -123.4 157.0 -118.2 161.4 -114.15 155.8 -110.55 152.65 -108.55 149.75 -105.95 148.5 -104.85 146.85 -104.5 144.75 -101.6 141.9 -99.4 140.75 -98.55 140.15 -97.25 143.9 -94.5 148.35 -92.45 L148.75 -92.2 Q154.95 -90.15 150.8 -86.35 L149.35 -86.25 141.15 -90.55 Q139.15 -91.65 136.95 -92.3 134.8 -92.9 133.15 -94.2 131.1 -95.75 132.85 -97.65 141.8 -107.25 152.2 -114.8 147.0 -121.35 139.65 -125.7 138.2 -126.5 137.1 -127.75 133.5 -129.2 130.7 -131.6 L128.3 -131.85 121.15 -133.4 121.15 -133.25 119.45 -133.2 117.4 -132.9 Q108.6 -130.75 99.85 -131.3 99.45 -130.0 97.6 -130.0 L85.9 -130.7 71.7 -132.5 Q75.35 -127.35 78.4 -121.85 L78.8 -121.45 79.85 -119.95 80.3 -118.4 80.3 -118.05 Q82.8 -115.25 81.0 -111.75 79.9 -109.6 77.3 -110.45 L75.9 -111.0 Q73.3 -110.55 72.55 -113.3 L71.65 -116.75 71.0 -117.5 70.25 -118.25 67.55 -120.3 65.55 -121.95 Q62.55 -123.1 60.35 -125.65 58.45 -127.9 56.15 -129.6 51.9 -132.7 49.95 -137.15 49.75 -137.7 49.95 -138.25 L50.2 -138.6 50.6 -139.0 51.0 -139.25 52.35 -139.7 52.35 -139.75 60.7 -139.35 58.95 -142.15 58.25 -143.4 56.9 -145.75 Q56.2 -146.75 56.55 -147.9 L56.8 -148.25 Q57.35 -149.0 58.2 -149.25 L58.95 -149.4 Q69.4 -148.6 79.4 -145.25 L82.3 -144.25 Q83.0 -147.6 85.5 -150.1 88.95 -153.55 93.85 -153.55 M82.45 -138.6 L74.65 -141.0 67.15 -142.9 64.55 -143.2 Q65.85 -140.9 67.3 -138.75 L78.85 -136.85 83.4 -136.2 Q82.75 -137.35 82.45 -138.6 M66.2 -127.9 L66.55 -127.55 66.7 -127.2 71.3 -124.2 69.4 -126.8 Q66.95 -129.9 64.65 -133.3 L59.2 -133.9 60.0 -133.2 61.15 -132.3 63.05 -130.5 64.75 -128.65 64.8 -128.55 65.55 -128.3 66.2 -127.9" fill="#000000" fill-rule="evenodd" stroke="none"/>
  </g>
</svg>
