<?xml version="1.0" encoding="UTF-8" standalone="no"?>
<svg xmlns:ffdec="https://www.free-decompiler.com/flash" xmlns:xlink="http://www.w3.org/1999/xlink" ffdec:objectType="shape" height="143.85px" width="154.95px" xmlns="http://www.w3.org/2000/svg">
  <g transform="matrix(1.0, 0.0, 0.0, 1.0, -37.65, 176.0)">
    <path d="M122.5 -160.3 L122.25 -159.7 117.35 -152.7 Q115.8 -151.85 114.95 -150.3 L114.5 -149.95 Q112.0 -147.1 110.0 -143.95 L109.95 -143.35 Q109.9 -142.4 110.1 -141.5 L117.4 -141.7 121.5 -142.45 Q121.05 -141.7 121.0 -140.9 L120.55 -137.05 Q119.5 -130.8 119.35 -124.55 L125.3 -124.9 Q135.7 -127.6 145.9 -130.95 145.9 -129.1 146.45 -127.35 147.95 -122.55 148.8 -117.7 L149.65 -117.55 Q156.2 -119.15 161.55 -123.35 160.85 -119.3 160.7 -115.2 160.35 -107.75 160.55 -100.35 165.4 -99.4 170.1 -101.85 L169.9 -98.95 Q169.4 -95.05 169.2 -91.1 L168.9 -90.75 168.9 -90.15 169.0 -88.65 Q175.45 -86.8 182.15 -85.6 L185.8 -84.45 Q190.95 -82.05 192.6 -77.05 191.1 -75.9 189.25 -75.8 184.6 -75.55 181.0 -73.0 L181.0 -72.1 181.0 -70.3 181.2 -70.0 181.4 -69.7 Q181.35 -68.6 181.6 -67.6 182.25 -64.4 182.5 -61.2 L181.7 -61.05 175.0 -60.3 162.8 -60.75 Q160.85 -61.1 160.45 -59.2 161.25 -57.25 162.5 -55.45 164.35 -52.7 164.45 -49.5 L164.05 -49.2 Q160.85 -49.9 158.15 -48.65 156.95 -48.1 156.8 -46.85 L155.1 -32.15 Q150.25 -35.75 146.3 -40.45 L146.05 -41.3 Q145.6 -41.95 144.95 -41.8 138.7 -40.85 133.4 -37.3 L132.8 -38.45 Q131.95 -40.25 132.1 -42.35 L131.85 -42.65 131.35 -43.25 131.35 -44.15 131.35 -46.6 130.85 -46.95 114.85 -47.6 114.9 -52.65 114.45 -53.55 Q107.85 -57.6 101.7 -62.0 L101.85 -62.35 101.9 -62.95 Q109.85 -66.4 118.65 -66.45 124.35 -66.55 128.85 -69.1 L128.9 -69.4 128.85 -70.6 Q120.95 -76.15 112.8 -80.6 113.35 -82.3 115.1 -83.35 119.75 -86.05 121.7 -90.55 118.95 -92.55 115.4 -93.35 111.75 -94.1 109.4 -96.2 L110.25 -97.65 Q112.2 -101.0 112.2 -104.7 111.5 -105.3 110.6 -105.35 L100.3 -105.8 Q100.3 -106.75 100.6 -107.65 101.5 -110.15 101.5 -112.75 L100.95 -113.1 90.5 -112.7 Q85.5 -111.7 81.35 -111.65 L81.45 -114.4 81.75 -121.65 81.2 -122.0 Q76.9 -122.6 72.85 -120.65 L72.35 -125.15 70.45 -137.0 69.45 -137.8 57.0 -127.1 Q56.0 -128.25 56.0 -129.9 L56.3 -137.8 56.1 -138.05 55.5 -138.25 Q49.1 -134.75 43.0 -130.6 L43.0 -133.65 43.0 -141.8 42.4 -142.25 Q40.1 -143.3 37.65 -142.85 L37.75 -143.05 38.15 -143.95 Q40.05 -145.4 41.3 -147.5 42.45 -149.4 42.45 -151.5 42.45 -155.35 38.95 -158.15 45.25 -158.05 51.35 -158.45 51.9 -158.5 51.85 -159.05 L49.85 -161.5 49.85 -162.7 Q49.9 -164.9 48.65 -166.65 L48.4 -167.8 Q47.3 -169.65 47.45 -171.8 49.4 -171.5 51.1 -170.3 54.8 -167.65 58.85 -167.95 L59.25 -168.85 59.75 -172.8 Q60.75 -173.25 60.95 -174.3 64.65 -173.65 67.8 -171.3 L69.2 -169.9 Q71.05 -167.45 73.15 -168.85 77.25 -171.65 80.2 -176.0 L81.75 -174.75 Q85.85 -169.7 88.7 -164.1 L89.6 -163.6 Q93.35 -164.65 96.55 -167.05 99.0 -168.9 101.1 -169.65 L101.7 -166.3 Q102.5 -161.85 102.4 -157.25 102.85 -157.0 103.3 -157.05 110.55 -157.4 117.55 -159.45 120.45 -160.25 122.5 -160.3" fill="#ffff00" fill-opacity="0.5019608" fill-rule="evenodd" stroke="none"/>
  </g>
</svg>
