<?xml version="1.0" encoding="UTF-8" standalone="no"?>
<svg xmlns:ffdec="https://www.free-decompiler.com/flash" xmlns:xlink="http://www.w3.org/1999/xlink" ffdec:objectType="shape" height="112.7px" width="119.05px" xmlns="http://www.w3.org/2000/svg">
  <g transform="matrix(1.0, 0.0, 0.0, 1.0, -54.05, 160.1)">
    <path d="M82.6 -152.3 L89.4 -151.6 Q92.1 -151.2 93.1 -148.45 L93.85 -146.4 Q95.4 -147.2 97.2 -147.4 L97.05 -148.15 96.95 -148.9 96.8 -149.25 96.55 -150.45 96.5 -150.8 96.35 -151.2 96.2 -151.55 96.05 -152.2 68.05 -154.15 67.05 -154.3 Q66.25 -153.45 65.05 -153.0 L63.6 -152.65 Q72.25 -152.85 81.3 -152.35 L82.6 -152.3 M101.2 -154.8 L102.9 -146.9 Q105.3 -146.1 107.3 -144.1 110.75 -140.65 110.75 -135.75 110.75 -130.85 107.3 -127.4 L106.25 -126.45 106.2 -126.4 Q113.85 -123.0 121.15 -119.05 L121.15 -113.4 Q115.65 -116.6 109.8 -118.9 103.8 -120.75 99.05 -124.55 L94.15 -124.8 92.05 -125.9 91.55 -126.55 90.6 -127.4 Q87.15 -130.85 87.15 -135.75 87.15 -139.75 89.45 -142.75 L88.95 -143.5 88.55 -144.7 88.4 -145.05 87.95 -145.85 87.65 -146.25 Q73.4 -148.65 58.4 -146.85 56.1 -146.6 54.95 -148.45 52.45 -152.55 56.95 -154.0 59.6 -154.65 61.5 -152.95 L61.9 -152.6 62.8 -152.6 Q60.55 -152.8 60.75 -156.1 61.0 -159.65 64.55 -160.1 L65.55 -160.0 65.55 -160.1 88.45 -158.2 98.05 -157.6 Q100.6 -157.4 101.2 -154.8 M121.35 -113.05 L121.35 -119.0 122.5 -118.35 Q126.5 -116.05 129.8 -113.05 133.15 -112.7 136.1 -110.8 L136.25 -110.65 150.25 -105.1 Q151.95 -104.45 153.35 -103.2 156.55 -100.3 157.25 -95.85 158.45 -88.75 160.2 -81.7 160.75 -79.45 160.8 -77.1 164.9 -76.55 170.0 -77.65 173.05 -78.3 173.1 -75.45 173.2 -73.15 170.75 -72.55 163.55 -70.75 156.65 -72.35 156.0 -72.5 155.9 -73.2 154.45 -85.95 151.0 -98.35 L136.3 -105.15 135.9 -105.45 135.85 -105.45 136.05 -105.0 Q137.35 -101.55 137.9 -97.95 L138.8 -96.45 138.95 -95.3 Q142.5 -87.8 143.15 -79.65 143.4 -76.65 141.85 -74.15 140.35 -71.65 138.4 -69.35 137.8 -67.1 136.25 -65.2 L135.5 -64.4 Q135.1 -62.3 133.6 -60.7 L132.95 -59.45 Q137.45 -56.05 143.45 -53.3 148.8 -50.85 144.4 -47.65 L143.05 -47.6 Q137.35 -50.7 131.35 -53.25 128.7 -54.4 126.5 -56.0 125.55 -56.7 125.9 -57.9 126.8 -61.1 129.15 -63.65 L129.25 -64.05 129.3 -64.4 129.4 -64.8 132.85 -69.35 133.2 -69.75 Q134.8 -73.65 137.3 -77.35 L137.9 -78.15 138.05 -79.3 138.4 -80.45 Q137.9 -81.75 137.55 -83.1 L137.3 -84.25 Q136.15 -85.3 136.3 -86.9 L136.4 -88.05 136.1 -88.4 135.5 -89.2 Q133.9 -94.65 131.9 -99.85 L130.9 -101.4 Q129.5 -103.8 129.05 -106.3 128.1 -106.8 127.1 -107.9 124.55 -110.8 121.35 -113.05" fill="#000000" fill-rule="evenodd" stroke="none"/>
  </g>
</svg>
