<?xml version="1.0" encoding="UTF-8" standalone="no"?>
<svg xmlns:ffdec="https://www.free-decompiler.com/flash" xmlns:xlink="http://www.w3.org/1999/xlink" ffdec:objectType="shape" height="155.05px" width="81.4px" xmlns="http://www.w3.org/2000/svg">
  <g transform="matrix(1.0, 0.0, 0.0, 1.0, -89.7, 166.95)">
    <path d="M134.15 -163.55 Q133.75 -164.45 134.05 -165.4 L134.7 -166.15 Q135.5 -166.95 136.45 -166.95 143.55 -166.5 143.7 -159.45 L144.05 -156.05 Q145.2 -150.35 145.05 -144.2 144.9 -139.6 144.35 -135.45 L144.0 -134.6 Q143.25 -133.35 142.05 -132.35 L137.95 -124.6 Q137.25 -123.35 136.1 -122.45 L135.2 -120.35 135.3 -118.5 Q135.3 -113.6 131.85 -110.15 L129.65 -108.35 128.6 -107.8 Q128.25 -107.15 127.5 -106.75 L127.7 -106.3 128.3 -105.65 Q129.55 -104.25 128.95 -103.2 130.35 -100.6 131.35 -97.75 L131.9 -95.85 131.95 -95.85 134.55 -88.2 135.2 -85.5 137.5 -80.15 Q137.85 -79.25 137.75 -78.25 141.55 -76.5 144.6 -72.9 145.85 -71.5 147.45 -70.45 150.25 -68.6 152.35 -66.2 157.45 -63.2 160.25 -58.4 L160.65 -57.05 Q161.25 -44.5 158.7 -32.65 L158.55 -31.5 Q160.4 -29.9 164.15 -30.45 167.7 -30.95 170.0 -28.7 172.5 -26.3 169.4 -24.75 L168.2 -24.5 Q160.5 -24.75 153.6 -27.25 153.1 -27.45 153.15 -28.05 L155.1 -47.95 Q155.5 -52.3 155.5 -56.65 149.95 -61.2 144.7 -66.2 L144.35 -66.55 Q141.15 -68.15 138.8 -70.6 140.1 -66.3 140.1 -61.5 140.1 -58.8 140.6 -56.15 142.15 -48.15 137.85 -41.3 136.95 -37.8 135.4 -34.5 L134.8 -33.65 134.45 -32.15 Q134.25 -31.45 133.65 -31.0 132.9 -26.4 130.0 -22.45 L128.2 -19.95 Q131.5 -18.9 136.1 -18.15 139.05 -17.7 140.9 -15.65 142.6 -13.7 140.3 -12.5 138.0 -11.3 135.5 -12.6 132.75 -14.0 129.6 -13.85 125.75 -13.6 122.55 -15.25 121.1 -15.95 121.7 -17.5 123.85 -23.55 127.2 -28.95 L127.8 -29.75 128.45 -30.5 128.75 -32.75 Q128.9 -33.5 129.45 -33.9 129.65 -34.95 130.1 -35.85 L131.0 -36.95 133.25 -43.4 Q133.5 -44.1 134.05 -44.6 136.95 -52.55 135.1 -61.05 L134.4 -64.75 Q133.75 -68.95 133.25 -73.2 133.05 -74.6 133.25 -75.95 129.5 -85.6 126.5 -95.55 L125.9 -96.3 Q125.5 -98.05 124.65 -99.65 L123.9 -100.85 Q123.5 -102.75 122.25 -104.2 121.65 -104.9 121.75 -105.8 120.35 -106.85 119.5 -108.1 L115.8 -109.55 115.15 -110.15 Q112.35 -112.95 111.85 -116.65 107.7 -121.55 104.05 -126.8 L103.95 -127.15 103.9 -127.55 103.8 -127.9 Q102.8 -129.65 102.55 -131.75 L102.3 -132.9 Q101.35 -134.25 100.95 -135.9 100.8 -136.5 100.9 -137.05 99.35 -140.05 98.05 -143.2 L97.85 -143.95 97.55 -144.3 96.95 -145.05 96.85 -145.45 96.8 -145.85 96.7 -146.2 Q95.85 -146.85 95.5 -147.75 L95.3 -148.5 95.05 -148.9 94.4 -149.65 Q92.85 -153.25 90.45 -156.5 L89.85 -157.25 Q88.95 -161.95 93.25 -163.3 L93.25 -163.35 Q96.5 -162.45 95.85 -158.9 L95.8 -158.55 96.0 -158.2 96.3 -157.75 96.45 -157.55 Q101.6 -156.95 100.15 -152.9 L99.6 -152.05 100.05 -151.35 100.4 -150.15 Q101.25 -149.4 101.7 -148.35 L101.9 -147.1 104.3 -141.75 104.45 -141.0 Q106.5 -137.4 107.75 -133.45 L108.0 -131.5 108.9 -129.95 109.0 -128.8 112.9 -123.8 Q113.75 -125.45 115.15 -126.85 118.6 -130.3 123.5 -130.3 128.4 -130.3 131.85 -126.85 L132.55 -126.1 138.35 -136.15 139.5 -137.6 139.6 -149.0 139.4 -153.2 Q138.3 -154.3 138.25 -155.85 L138.0 -159.3 Q135.5 -160.75 134.15 -163.55" fill="#000000" fill-rule="evenodd" stroke="none"/>
  </g>
</svg>
