<?xml version="1.0" encoding="UTF-8" standalone="no"?>
<svg xmlns:ffdec="https://www.free-decompiler.com/flash" xmlns:xlink="http://www.w3.org/1999/xlink" ffdec:objectType="shape" height="166.9px" width="112.55px" xmlns="http://www.w3.org/2000/svg">
  <g transform="matrix(1.0, 0.0, 0.0, 1.0, 56.65, 157.2)">
    <path d="M22.95 -154.65 Q24.7 -153.0 25.25 -150.75 26.6 -149.05 28.15 -147.7 L29.15 -145.8 Q31.2 -142.2 34.95 -142.25 37.1 -144.45 39.35 -145.6 L39.4 -145.3 Q39.75 -139.45 41.0 -133.8 42.7 -131.85 45.4 -131.85 49.55 -129.7 54.3 -128.55 L41.4 -122.7 41.4 -122.4 41.4 -120.85 55.9 -113.3 Q51.9 -111.8 47.65 -111.3 41.25 -110.55 35.35 -109.15 L35.35 -108.85 35.35 -107.95 Q36.45 -106.85 36.15 -105.25 L36.55 -104.65 36.6 -104.35 Q37.65 -100.25 37.35 -95.85 24.0 -96.05 10.5 -95.85 9.5 -95.8 9.1 -94.85 L9.1 -94.55 9.2 -93.35 9.9 -92.4 9.9 -92.1 9.9 -91.8 10.7 -90.9 10.7 -90.6 10.7 -90.3 Q9.85 -88.8 8.7 -87.6 L8.7 -87.25 8.7 -85.45 Q13.2 -82.45 17.6 -80.1 17.15 -79.75 17.1 -79.2 14.95 -78.45 13.75 -76.8 12.7 -76.3 12.35 -75.15 L12.3 -74.85 12.45 -73.95 Q14.55 -72.95 16.95 -72.4 L22.35 -71.25 Q27.8 -70.15 32.1 -68.0 28.1 -65.2 23.9 -62.7 20.55 -60.7 18.8 -57.7 20.05 -56.25 22.1 -56.2 23.9 -55.5 25.95 -55.45 29.2 -55.4 30.9 -53.3 31.45 -49.85 28.9 -47.85 L28.9 -47.55 28.8 -46.3 27.65 -45.4 27.65 -45.1 27.75 -42.1 Q30.25 -39.6 33.6 -38.15 L32.6 -37.05 Q29.35 -33.9 27.25 -30.25 28.5 -29.05 30.35 -28.55 36.6 -26.8 40.5 -22.3 36.2 -18.55 30.9 -15.95 L30.7 -15.75 Q30.0 -14.95 30.1 -13.95 32.3 -11.6 34.85 -9.7 L34.9 -9.4 34.95 -9.1 44.1 -2.15 Q45.1 -0.25 46.75 1.1 41.25 -0.4 35.95 0.0 L35.8 0.6 Q35.6 4.9 36.05 8.85 32.25 6.3 27.65 6.25 L22.8 3.7 20.75 2.1 Q17.45 -1.15 14.75 1.2 13.95 4.55 12.75 7.85 L12.05 7.95 Q10.05 7.05 8.45 5.5 5.85 2.95 3.05 5.45 -1.3 9.45 -7.25 9.7 -9.55 8.1 -11.15 6.0 -12.55 4.15 -14.85 4.7 -17.0 5.2 -18.7 6.55 -20.75 8.25 -22.75 8.75 L-22.8 8.45 -22.9 7.85 -23.9 6.65 Q-23.9 5.25 -24.8 4.25 L-24.8 3.95 -24.8 3.6 Q-25.05 3.3 -25.35 3.3 L-32.75 2.9 Q-31.05 -0.25 -31.6 -3.7 -31.9 -5.45 -33.2 -6.5 -37.6 -10.2 -43.65 -10.9 L-43.05 -11.5 -42.95 -11.8 -42.85 -12.4 Q-39.3 -14.0 -38.5 -17.75 -43.6 -21.45 -49.4 -24.0 L-49.35 -24.3 -48.6 -25.85 -47.95 -26.5 -47.25 -27.2 Q-43.2 -30.4 -37.5 -31.05 -32.35 -31.6 -28.0 -33.5 L-28.0 -33.8 -28.0 -35.9 -31.65 -41.35 -22.15 -43.2 -20.9 -43.4 Q-17.2 -43.75 -14.1 -45.6 L-14.0 -45.9 -13.9 -46.8 -16.1 -48.55 Q-16.45 -49.4 -17.35 -49.75 -18.7 -51.8 -21.15 -52.25 L-21.65 -52.75 -15.9 -56.4 -13.3 -57.65 Q-8.45 -59.3 -6.65 -63.35 -10.2 -65.2 -14.3 -66.4 -16.3 -68.0 -18.75 -68.8 L-17.75 -70.5 Q-14.9 -73.75 -14.3 -77.9 -15.55 -78.85 -17.25 -79.4 -18.0 -80.55 -18.35 -81.9 -19.25 -85.25 -19.55 -88.8 -19.8 -89.1 -20.05 -89.1 -23.05 -89.2 -25.2 -86.35 L-25.6 -86.35 -27.6 -89.1 Q-27.6 -89.55 -27.9 -89.95 -28.9 -91.25 -30.55 -90.55 -35.6 -88.3 -40.15 -84.95 L-40.55 -85.25 -40.55 -85.85 -40.55 -95.25 Q-40.8 -95.55 -41.05 -95.55 L-56.65 -95.95 Q-55.7 -97.85 -54.25 -99.3 L-43.75 -110.2 -43.75 -111.1 Q-43.7 -111.7 -44.1 -112.05 L-48.2 -116.25 -47.05 -116.65 Q-42.35 -117.75 -37.5 -117.65 -35.55 -117.65 -34.15 -118.85 -33.6 -121.85 -35.7 -124.0 L-35.7 -124.3 -35.8 -124.9 Q-36.4 -125.4 -36.5 -126.1 -29.45 -125.25 -24.6 -120.65 L-24.2 -120.8 -23.8 -121.05 -23.65 -121.35 Q-23.25 -122.4 -23.2 -123.5 -23.7 -124.4 -24.8 -124.4 -27.3 -127.95 -30.45 -130.75 L-30.5 -131.05 Q-31.35 -132.9 -31.25 -135.0 -29.25 -134.85 -27.55 -133.7 -24.7 -131.85 -22.35 -133.2 -23.4 -137.35 -23.5 -141.65 L-20.95 -140.8 Q-19.35 -140.1 -18.0 -139.0 -15.15 -136.65 -12.7 -138.0 -11.6 -145.6 -8.95 -152.85 L-3.9 -145.3 Q-1.25 -141.25 1.1 -137.05 2.9 -133.85 5.7 -134.4 6.6 -138.4 7.1 -142.55 11.15 -141.1 14.2 -138.15 16.75 -135.65 19.2 -137.2 L19.1 -148.4 Q19.15 -153.0 20.5 -157.2 21.85 -157.0 22.75 -155.55 L22.8 -155.25 22.95 -154.65" fill="#ffff00" fill-opacity="0.5019608" fill-rule="evenodd" stroke="none"/>
  </g>
</svg>
