<?xml version="1.0" encoding="UTF-8" standalone="no"?>
<svg xmlns:ffdec="https://www.free-decompiler.com/flash" xmlns:xlink="http://www.w3.org/1999/xlink" ffdec:objectType="shape" height="134.45px" width="65.8px" xmlns="http://www.w3.org/2000/svg">
  <g transform="matrix(1.0, 0.0, 0.0, 1.0, 35.65, 134.4)">
    <path d="M25.5 -134.4 Q31.55 -133.15 29.75 -126.9 26.6 -115.75 20.65 -105.75 20.15 -104.9 19.1 -104.85 L0.75 -102.9 -0.65 -102.45 Q-2.5 -101.45 -3.95 -101.35 L-4.1 -100.95 Q-0.95 -90.3 1.9 -79.45 L2.1 -77.95 Q3.5 -73.65 3.85 -69.05 7.55 -67.4 8.7 -63.0 L8.85 -62.6 Q14.0 -55.35 17.0 -47.05 L17.35 -45.45 Q17.95 -45.0 18.15 -44.3 L18.5 -43.15 Q21.95 -38.55 20.15 -32.8 19.8 -31.6 18.85 -30.6 17.55 -23.55 14.8 -16.8 L13.65 -14.2 Q17.65 -9.35 22.95 -5.8 28.8 -4.1 25.35 -0.2 L24.5 0.05 Q18.9 -1.0 14.7 -5.2 L8.35 -11.4 Q7.8 -15.25 9.35 -18.8 9.75 -19.75 10.6 -20.55 L13.4 -30.05 13.9 -32.75 14.2 -33.1 14.55 -33.5 14.8 -33.9 14.95 -36.15 15.3 -37.7 Q14.3 -39.15 13.6 -40.65 13.25 -41.45 13.3 -42.25 L13.0 -42.65 12.65 -43.05 12.4 -43.4 12.25 -44.2 12.15 -44.95 Q10.85 -46.9 9.95 -49.1 9.65 -49.8 9.6 -50.65 L4.85 -59.35 Q1.05 -46.1 -3.2 -32.9 -3.9 -30.6 -5.4 -28.75 L-21.4 -8.5 Q-14.75 -7.3 -8.25 -4.4 -7.8 -4.2 -7.8 -3.65 -7.8 0.95 -12.7 -0.5 L-27.35 -4.35 Q-30.95 -5.15 -29.05 -8.1 L-26.5 -11.5 Q-18.35 -21.05 -10.6 -30.85 -6.25 -36.8 -4.45 -44.5 L0.05 -62.25 Q-1.2 -63.0 -1.3 -64.5 L-2.1 -74.4 Q-5.7 -86.6 -8.9 -99.25 L-9.0 -99.75 -17.35 -100.5 -34.6 -101.45 Q-35.35 -101.55 -35.5 -102.3 -36.45 -106.5 -32.05 -107.8 -31.35 -108.0 -30.7 -108.4 L-17.5 -115.65 -16.55 -116.15 Q-17.35 -118.15 -17.35 -120.45 -17.35 -125.35 -13.9 -128.8 -10.45 -132.25 -5.55 -132.25 -0.65 -132.25 2.8 -128.8 6.25 -125.35 6.25 -120.45 6.25 -115.55 2.8 -112.1 1.75 -111.05 0.6 -110.3 L-0.45 -109.75 Q-0.95 -108.7 -2.8 -108.25 L-4.3 -107.95 -5.7 -108.25 -5.8 -108.3 -5.35 -106.5 Q-2.85 -108.0 0.3 -108.5 L17.6 -109.75 18.55 -111.65 19.0 -113.55 19.25 -113.9 19.6 -114.3 19.9 -114.7 20.65 -117.8 Q20.95 -118.85 21.8 -119.65 22.3 -122.2 23.45 -124.55 23.9 -125.45 23.95 -126.5 23.85 -127.2 23.1 -127.7 22.45 -128.15 22.05 -128.8 21.45 -131.0 22.8 -132.8 23.4 -133.6 24.35 -134.15 L25.45 -134.3 25.5 -134.4 M-12.0 -111.05 L-13.2 -111.5 Q-18.3 -108.2 -24.05 -106.2 L-10.65 -105.3 -12.0 -111.05" fill="#000000" fill-rule="evenodd" stroke="none"/>
  </g>
</svg>
