<?xml version="1.0" encoding="UTF-8" standalone="no"?>
<svg xmlns:ffdec="https://www.free-decompiler.com/flash" xmlns:xlink="http://www.w3.org/1999/xlink" ffdec:objectType="shape" height="143.8px" width="100.45px" xmlns="http://www.w3.org/2000/svg">
  <g transform="matrix(1.0, 0.0, 0.0, 1.0, 51.05, 126.55)">
    <path d="M8.3 17.25 L6.55 17.25 6.7 16.95 6.8 16.6 7.05 16.15 8.3 17.25 M33.75 -126.55 L34.15 -126.55 Q34.05 -120.15 33.35 -113.85 L33.25 -113.65 33.1 -113.45 33.1 -113.05 Q33.05 -112.45 33.15 -111.85 35.4 -110.4 38.15 -110.6 L38.25 -110.7 Q42.8 -110.5 46.4 -110.7 L45.6 -109.7 45.6 -109.3 45.55 -108.9 44.85 -108.15 Q41.0 -103.8 40.6 -98.3 L47.3 -96.85 38.95 -85.75 38.95 -85.35 Q38.9 -85.05 39.0 -84.75 39.8 -84.2 40.8 -84.1 L49.1 -78.3 42.1 -75.4 38.5 -74.4 Q35.6 -73.85 34.7 -71.5 L34.9 -71.3 36.0 -70.4 36.05 -70.25 36.55 -69.6 Q32.45 -68.8 28.55 -67.4 26.0 -66.45 24.3 -64.6 L24.3 -64.2 24.3 -63.8 24.5 -63.6 24.6 -63.4 24.6 -63.2 24.6 -63.0 24.75 -62.8 24.85 -62.6 24.75 -61.25 24.05 -55.65 Q26.05 -54.4 28.7 -54.25 L34.7 -53.55 34.4 -52.9 30.55 -45.8 30.3 -45.6 Q29.6 -44.9 29.4 -44.0 33.7 -41.65 38.75 -40.75 39.6 -40.2 40.55 -39.9 L39.85 -38.6 Q37.1 -33.05 35.15 -27.3 L35.0 -27.1 34.95 -26.7 Q35.75 -25.8 37.05 -25.6 L39.1 -25.3 Q42.65 -25.05 45.05 -23.0 L45.0 -22.8 44.8 -22.6 44.75 -21.6 44.0 -17.8 Q43.45 -17.2 43.25 -16.45 42.15 -12.45 41.95 -8.45 43.3 -7.4 45.0 -7.25 L49.4 -4.85 48.1 -3.65 Q43.85 -0.45 40.3 3.55 L40.3 3.95 40.3 4.55 45.35 11.7 Q36.4 11.35 27.4 11.7 26.75 11.75 26.45 12.3 L26.45 12.7 26.4 13.1 26.2 13.3 26.2 13.9 26.2 15.1 26.05 15.3 25.9 15.5 25.9 15.7 25.9 15.9 25.85 16.1 25.6 16.3 25.4 16.5 25.35 17.25 10.55 17.25 6.65 14.5 Q6.45 14.55 6.3 14.7 5.5 15.25 5.4 16.25 L4.75 17.25 -24.05 17.25 -24.05 16.45 -25.7 15.1 -26.0 14.85 -26.35 14.85 -27.0 10.5 Q-27.5 9.7 -28.35 10.25 -31.3 12.15 -34.7 12.85 L-34.6 10.65 Q-34.25 6.1 -34.2 1.45 -34.35 1.25 -34.55 1.25 -36.45 1.1 -38.45 1.85 L-39.25 2.0 -46.0 2.05 -45.2 1.45 Q-43.25 -1.4 -40.8 -3.9 -39.7 -4.35 -39.25 -5.5 L-38.1 -5.9 Q-36.6 -8.0 -34.55 -9.55 -32.55 -11.05 -31.4 -13.1 L-30.65 -13.7 -28.35 -13.8 -28.2 -14.15 -28.05 -15.55 -28.2 -15.75 -28.35 -15.95 -28.35 -16.35 -28.4 -16.75 -30.05 -18.55 -30.2 -18.75 -31.0 -19.75 -31.0 -19.95 -31.05 -20.15 -31.1 -20.35 -37.1 -26.3 -21.4 -26.85 -21.25 -27.2 -21.15 -27.8 Q-22.2 -29.5 -23.75 -30.75 L-27.8 -35.35 -20.75 -36.6 -20.55 -36.75 -20.35 -36.95 -18.6 -37.15 -18.45 -37.3 -18.2 -37.5 Q-16.7 -37.5 -16.7 -38.8 -21.5 -42.25 -25.15 -46.85 L-25.1 -46.95 Q-24.15 -47.2 -23.55 -47.9 L-22.95 -48.15 -22.0 -48.45 Q-18.4 -49.4 -15.3 -51.2 L-15.3 -51.6 -15.3 -52.0 Q-16.45 -53.25 -17.95 -54.25 L-18.0 -54.45 -18.1 -54.65 -20.9 -56.9 -20.75 -57.1 -20.55 -57.5 Q-19.75 -57.75 -19.5 -58.5 L-19.15 -58.6 -18.75 -58.75 -16.85 -60.7 -16.45 -61.25 Q-15.6 -62.3 -15.85 -63.7 -16.15 -64.3 -16.75 -64.15 -20.45 -61.7 -24.55 -60.2 L-25.1 -61.1 Q-26.85 -63.95 -27.25 -67.15 -27.75 -67.95 -28.75 -67.6 -30.15 -66.0 -31.85 -65.65 L-32.45 -67.65 Q-33.7 -72.8 -34.2 -78.05 -34.35 -78.25 -34.55 -78.25 -38.05 -78.7 -41.35 -77.7 L-41.3 -79.5 -40.55 -87.5 -40.3 -87.9 -39.55 -89.85 -39.5 -90.25 -39.5 -91.05 Q-44.95 -93.7 -51.05 -94.7 -47.1 -96.75 -42.95 -98.4 L-42.85 -98.5 -42.7 -98.7 -42.3 -98.85 -42.0 -99.05 Q-41.85 -99.5 -41.95 -100.05 L-42.5 -103.45 -42.8 -103.85 -42.95 -104.65 -43.35 -105.4 Q-43.9 -107.35 -44.0 -109.4 L-44.15 -109.6 -44.3 -109.8 -44.3 -110.0 -44.3 -110.2 -44.4 -110.4 -44.55 -110.8 -38.65 -109.1 Q-37.95 -108.55 -37.2 -108.3 -35.45 -107.8 -33.9 -106.85 -31.45 -105.35 -28.85 -105.3 L-28.75 -105.45 Q-28.5 -106.6 -27.6 -107.4 L-27.55 -107.6 -27.55 -107.8 -27.55 -108.0 -27.35 -108.2 -27.0 -108.6 -27.0 -108.8 -27.0 -109.0 -26.85 -109.2 -26.75 -109.4 -26.75 -109.6 -26.75 -109.8 -26.55 -110.0 -26.2 -110.4 Q-24.1 -108.7 -22.4 -106.45 L-20.6 -104.85 -20.55 -104.7 -20.35 -104.55 -19.7 -104.45 -19.55 -104.5 -19.5 -104.55 -19.25 -104.85 -19.1 -105.05 -19.0 -105.65 -19.0 -108.2 -19.0 -111.0 -16.05 -110.8 -15.8 -110.65 -11.85 -109.55 Q-11.45 -112.1 -13.2 -114.45 L-16.85 -119.85 -17.15 -120.05 -19.15 -121.85 -18.95 -122.05 Q-13.55 -122.45 -8.25 -123.55 L-7.95 -123.95 -7.85 -124.1 -7.9 -124.3 -7.95 -124.4 Q-8.25 -125.5 -8.9 -126.45 L-8.9 -126.55 -1.8 -126.55 Q0.9 -124.9 3.45 -122.95 8.45 -125.1 13.65 -126.55 L16.4 -126.55 Q16.95 -126.05 17.7 -125.85 L17.7 -125.7 17.7 -125.5 20.2 -122.55 21.25 -121.95 Q24.05 -121.35 26.7 -123.1 L28.45 -123.6 Q31.3 -124.9 33.75 -126.55" fill="#ffff00" fill-opacity="0.5019608" fill-rule="evenodd" stroke="none"/>
  </g>
</svg>
