<?xml version="1.0" encoding="UTF-8" standalone="no"?>
<svg xmlns:ffdec="https://www.free-decompiler.com/flash" xmlns:xlink="http://www.w3.org/1999/xlink" ffdec:objectType="shape" height="122.5px" width="64.95px" xmlns="http://www.w3.org/2000/svg">
  <g transform="matrix(1.0, 0.0, 0.0, 1.0, 33.5, 117.7)">
    <path d="M22.35 -105.9 Q22.35 -103.7 21.65 -101.75 L21.0 -100.35 Q20.2 -98.85 18.9 -97.55 17.15 -95.8 15.1 -94.95 L14.35 -94.65 12.75 -94.25 12.05 -94.15 Q9.2 -95.4 6.05 -95.6 L6.25 -95.25 4.45 -95.95 4.0 -96.25 3.35 -95.35 Q4.15 -94.9 4.8 -93.85 5.95 -92.0 7.45 -90.5 9.85 -88.0 11.9 -85.15 13.85 -82.5 16.15 -80.05 L20.25 -86.2 24.4 -91.85 Q25.1 -92.75 25.45 -93.85 23.8 -96.1 25.8 -97.95 26.5 -98.65 27.4 -98.65 31.75 -98.6 31.4 -94.4 31.25 -92.85 30.4 -91.45 27.2 -86.25 23.65 -81.3 L22.25 -79.1 Q20.35 -75.6 17.35 -73.25 16.8 -72.8 16.15 -73.05 13.1 -74.25 11.15 -76.95 6.35 -83.55 0.75 -89.35 L0.65 -89.45 Q0.0 -86.65 -0.15 -83.7 -0.7 -75.15 3.3 -67.65 5.2 -64.05 6.5 -60.2 9.2 -52.3 15.0 -46.15 L20.65 -39.75 Q22.1 -37.95 22.7 -35.7 23.75 -34.3 23.35 -31.95 L23.0 -29.4 Q22.4 -21.3 20.8 -13.4 L19.15 -4.85 Q23.6 -3.3 28.9 -3.4 29.6 -3.4 30.1 -2.85 32.4 0.0 29.1 1.55 L27.15 1.95 20.45 1.35 Q17.45 1.05 14.8 -0.1 14.2 -0.35 14.0 -0.95 13.35 -2.85 13.65 -4.9 14.85 -12.55 16.45 -20.2 17.3 -24.15 17.6 -28.15 17.8 -30.25 17.6 -32.35 L17.7 -33.85 16.5 -35.9 Q11.3 -42.0 6.45 -48.3 L4.5 -34.45 4.2 -31.7 Q3.9 -27.05 2.4 -22.8 2.05 -21.85 1.3 -21.05 L-9.25 -8.95 Q-12.0 -5.65 -15.25 -2.8 -14.05 -2.2 -12.0 -2.0 -7.95 -1.55 -4.7 0.6 -4.25 0.9 -4.2 1.45 -3.7 5.1 -7.4 4.8 L-8.45 4.65 Q-13.45 3.2 -18.6 2.3 -21.25 1.85 -22.9 -0.15 -23.55 -0.95 -23.25 -1.95 -22.6 -4.0 -20.8 -5.35 -16.75 -8.45 -13.5 -12.4 L-2.6 -25.15 -2.4 -25.35 Q-1.05 -31.15 -0.6 -37.3 L-0.55 -38.1 Q-0.45 -40.6 0.25 -42.9 L1.15 -50.45 Q1.2 -51.1 1.6 -51.65 1.15 -54.0 2.5 -55.2 L2.45 -55.3 Q-0.4 -63.3 -4.05 -71.0 L-4.25 -72.0 Q-5.75 -76.7 -5.55 -81.8 L-5.3 -86.05 -8.55 -83.55 -15.35 -78.5 -16.6 -78.35 Q-18.8 -79.25 -20.4 -81.15 L-21.0 -81.7 Q-27.05 -86.1 -31.9 -91.65 -34.35 -94.4 -33.05 -98.0 -32.75 -98.8 -31.95 -99.15 L-30.85 -99.45 Q-26.2 -100.0 -26.25 -95.6 -26.25 -94.65 -26.75 -93.8 -21.7 -89.15 -16.15 -84.85 L-6.05 -92.65 -4.35 -93.95 Q-4.15 -94.85 -3.5 -95.3 L-2.7 -96.8 -0.25 -100.4 -0.05 -100.65 Q-1.25 -103.05 -1.25 -105.9 -1.25 -110.8 2.2 -114.25 5.65 -117.7 10.55 -117.7 14.9 -117.7 18.1 -114.95 L18.9 -114.25 Q22.35 -110.8 22.35 -105.9" fill="#000000" fill-rule="evenodd" stroke="none"/>
  </g>
</svg>
