<?xml version="1.0" encoding="UTF-8" standalone="no"?>
<svg xmlns:ffdec="https://www.free-decompiler.com/flash" xmlns:xlink="http://www.w3.org/1999/xlink" ffdec:objectType="shape" height="135.6px" width="261.6px" xmlns="http://www.w3.org/2000/svg">
  <g transform="matrix(1.0, 0.0, 0.0, 1.0, 129.9, 118.35)">
    <path d="M88.15 -100.3 L82.05 -99.3 61.75 -96.35 56.75 -95.3 51.8 -94.1 48.1 -93.1 47.85 -93.05 46.25 -92.55 42.65 -90.95 42.65 -90.75 42.65 -90.55 Q42.6 -90.1 42.8 -89.75 43.95 -88.95 45.4 -88.65 L45.95 -88.5 47.6 -87.95 48.8 -87.6 51.45 -86.6 Q52.8 -86.05 53.55 -85.95 L53.95 -85.9 53.45 -85.8 50.1 -84.8 49.6 -84.6 47.9 -84.0 46.35 -83.45 Q44.1 -82.8 42.15 -81.65 L42.15 -81.45 42.2 -80.85 53.75 -78.3 62.25 -76.4 64.95 -75.85 66.15 -75.6 69.9 -74.8 72.85 -74.1 73.1 -74.0 74.45 -73.7 Q79.3 -72.55 84.2 -71.75 L106.5 -68.9 115.4 -68.05 119.8 -67.55 120.25 -67.5 123.15 -67.1 127.35 -66.45 118.3 -66.3 117.6 -66.25 103.6 -65.15 46.25 -61.85 44.0 -61.9 Q40.2 -62.15 36.6 -61.1 L32.95 -60.45 32.15 -60.4 29.5 -60.15 Q27.3 -59.95 25.9 -58.45 L25.9 -58.25 26.0 -57.65 Q27.95 -56.65 30.3 -56.25 L33.4 -55.5 Q35.1 -55.0 36.9 -54.8 L37.4 -54.7 39.8 -54.0 Q41.9 -53.5 43.4 -51.9 L43.45 -51.7 43.45 -51.1 43.05 -50.7 42.8 -50.5 42.25 -50.05 42.05 -49.9 41.6 -49.5 41.25 -49.3 Q40.4 -48.85 40.3 -48.0 41.35 -47.15 42.9 -46.9 L45.85 -46.3 51.2 -44.95 58.65 -43.3 66.0 -41.65 67.95 -41.3 69.85 -41.05 74.45 -40.35 80.5 -39.5 80.95 -39.45 83.3 -39.1 92.25 -37.5 110.4 -34.25 115.45 -33.55 118.05 -33.0 118.3 -32.95 120.1 -32.55 124.45 -31.85 121.5 -31.3 116.2 -30.7 114.6 -30.45 110.9 -29.9 102.85 -28.95 102.35 -28.9 99.25 -28.55 83.55 -26.85 68.8 -24.9 51.85 -23.05 49.15 -22.7 44.45 -22.05 43.85 -21.95 37.5 -21.45 Q35.85 -21.4 35.5 -20.15 L35.8 -19.85 Q39.3 -18.1 43.25 -17.3 L46.0 -16.65 48.05 -16.1 48.3 -16.05 49.85 -15.55 54.3 -13.6 53.55 -13.2 53.05 -12.95 Q51.05 -12.05 48.9 -11.8 L48.75 -11.65 48.55 -11.45 48.5 -11.35 Q47.7 -10.85 47.2 -10.05 L47.2 -9.85 Q47.15 -9.55 47.25 -9.25 49.05 -8.25 51.0 -7.65 54.2 -6.6 57.7 -6.5 L62.6 -6.15 63.2 -6.1 72.1 -5.85 82.7 -5.0 71.5 -3.3 54.8 -0.65 50.3 0.55 47.35 1.3 47.05 1.35 45.0 1.95 Q43.4 2.45 42.65 3.85 L42.7 4.05 42.75 4.25 42.95 4.65 43.05 4.8 Q43.95 5.8 45.25 6.0 L45.75 6.4 46.35 6.6 48.7 7.1 50.8 7.55 53.95 8.5 44.15 9.6 35.05 10.35 28.0 10.8 27.6 10.85 22.85 11.2 Q20.25 11.3 18.2 12.25 L18.2 12.45 18.25 13.05 21.2 14.0 25.3 15.05 25.8 15.2 28.8 16.35 31.15 17.25 23.3 17.25 10.9 15.95 2.25 15.1 -1.75 14.65 -2.15 14.6 -4.0 14.3 Q-6.45 13.95 -8.05 12.95 L-7.3 12.35 -7.3 12.15 -7.3 11.55 Q-7.9 10.8 -8.9 10.75 L-9.3 10.75 -21.7 10.35 -22.5 10.3 -37.95 9.6 Q-35.65 7.85 -32.8 6.9 -30.4 6.1 -28.25 4.95 L-25.5 3.6 -25.3 3.45 Q-24.55 2.9 -23.6 2.6 -21.9 2.0 -20.9 0.65 -20.85 0.35 -20.95 0.05 L-21.05 -0.15 -21.25 -0.35 -22.55 -0.9 -22.9 -1.0 -23.7 -1.15 Q-25.4 -1.35 -26.65 -1.95 L-26.15 -2.5 -25.9 -2.65 -25.35 -3.1 -25.1 -3.25 -24.6 -3.5 -24.45 -3.6 -24.05 -4.0 -23.65 -4.2 Q-22.65 -4.7 -22.2 -5.6 L-22.4 -5.85 Q-27.15 -7.55 -32.45 -7.9 L-46.05 -9.35 -48.95 -9.55 -53.0 -9.95 -57.75 -10.6 -69.2 -11.8 -69.7 -11.85 -71.45 -12.0 -77.8 -12.3 -97.45 -14.6 -114.05 -17.3 -117.25 -18.05 Q-119.45 -18.75 -121.75 -18.85 L-122.0 -18.9 -123.4 -19.2 Q-125.55 -19.45 -127.45 -20.3 L-126.6 -20.4 -101.45 -22.5 -72.2 -25.4 -60.45 -26.1 Q-55.25 -26.3 -50.05 -25.9 L-49.35 -25.8 -47.05 -25.65 Q-39.5 -25.25 -31.9 -25.4 -31.2 -25.4 -31.0 -26.1 L-31.15 -26.3 -37.95 -28.4 -41.35 -29.65 -44.15 -30.55 -44.4 -30.6 -47.55 -31.6 -51.15 -32.8 -40.95 -33.2 Q-29.35 -32.95 -17.8 -33.75 L-17.35 -33.8 -14.9 -34.0 -13.85 -34.1 Q-11.5 -34.15 -10.0 -35.6 -9.95 -35.95 -10.35 -36.15 L-12.9 -36.9 -25.15 -38.9 -33.8 -40.25 -36.15 -40.8 -38.05 -41.25 -42.1 -41.9 -48.15 -42.75 -48.85 -42.85 -51.85 -43.2 -64.75 -45.1 -87.2 -48.15 -94.1 -49.05 -96.55 -49.4 -97.0 -49.5 -99.2 -49.9 -101.8 -50.6 -89.6 -51.8 Q-81.9 -52.15 -74.15 -51.7 -49.05 -50.25 -24.1 -52.75 L-17.3 -53.45 -13.55 -53.95 -13.1 -54.0 -11.15 -54.3 Q-9.65 -54.55 -8.9 -55.8 -9.2 -56.65 -10.25 -56.75 L-18.2 -57.7 -24.0 -58.65 -26.45 -59.2 -26.65 -59.25 -28.9 -59.8 -32.85 -60.6 -25.2 -62.05 -21.55 -62.8 -19.55 -63.25 -19.15 -63.3 -17.0 -63.65 Q-15.05 -64.0 -13.75 -65.5 L-13.7 -65.7 -13.7 -66.1 Q-15.75 -67.15 -18.35 -67.35 L-29.0 -67.65 Q-54.05 -67.4 -79.0 -69.8 L-87.6 -70.5 -91.2 -71.0 -91.55 -71.1 -93.95 -71.5 -98.0 -72.15 -90.1 -73.6 -65.25 -76.8 -55.6 -77.75 -50.05 -78.2 -49.15 -78.25 -43.45 -78.55 -37.75 -79.45 -37.6 -79.6 -37.35 -80.0 Q-38.25 -81.1 -40.15 -81.2 -42.5 -81.35 -44.75 -82.2 L-44.95 -82.25 -46.3 -82.55 -66.15 -86.25 -79.95 -88.4 -85.9 -89.1 -88.3 -89.5 -88.55 -89.55 -92.3 -90.1 -96.2 -90.95 -93.35 -91.75 -84.8 -93.05 -79.85 -93.9 -76.05 -94.45 -75.65 -94.45 -72.85 -94.75 Q-70.7 -95.2 -68.7 -95.9 L-68.55 -96.1 Q-68.45 -96.35 -68.5 -96.7 -69.3 -97.55 -70.7 -97.7 L-84.45 -99.3 -104.95 -102.35 -111.8 -103.3 -118.35 -103.9 -118.75 -103.9 -121.0 -104.2 -129.9 -105.15 -125.25 -105.75 -112.5 -106.05 -111.55 -106.05 -90.5 -107.05 -82.95 -107.4 -82.25 -107.45 Q-69.05 -107.9 -55.85 -108.0 -46.7 -108.05 -37.65 -108.5 L-37.5 -108.65 -37.35 -109.45 -37.75 -109.7 Q-43.35 -111.65 -49.2 -113.05 L-52.0 -113.85 -56.7 -115.1 -57.05 -115.2 -58.75 -115.8 -63.05 -117.4 -51.05 -117.25 -50.25 -117.25 Q-22.45 -116.6 5.3 -116.85 L5.85 -117.0 22.25 -117.9 22.4 -118.1 22.45 -118.3 22.5 -118.35 22.55 -118.3 22.8 -117.8 Q23.25 -117.5 23.8 -117.45 L27.1 -116.95 30.55 -116.5 31.1 -116.5 48.65 -115.7 53.95 -114.85 54.25 -114.75 56.1 -114.4 76.6 -112.75 108.15 -109.65 114.75 -108.9 121.4 -108.3 121.8 -108.25 124.2 -107.9 131.7 -107.2 124.7 -106.1 116.7 -104.5 106.8 -103.0 103.85 -102.6 101.65 -102.25 98.1 -101.75 92.2 -100.8 91.8 -100.75 88.15 -100.3" fill="#ffff00" fill-opacity="0.5019608" fill-rule="evenodd" stroke="none"/>
  </g>
</svg>
