<?xml version="1.0" encoding="UTF-8" standalone="no"?>
<svg xmlns:ffdec="https://www.free-decompiler.com/flash" xmlns:xlink="http://www.w3.org/1999/xlink" ffdec:objectType="shape" height="119.15px" width="66.7px" xmlns="http://www.w3.org/2000/svg">
  <g transform="matrix(1.0, 0.0, 0.0, 1.0, 34.1, 113.3)">
    <path d="M20.0 -101.5 Q20.0 -99.3 19.3 -97.35 L18.65 -95.95 Q17.85 -94.45 16.55 -93.15 14.8 -91.4 12.75 -90.55 L12.0 -90.25 10.4 -89.85 9.7 -89.75 Q6.85 -91.0 3.7 -91.2 L3.9 -90.85 2.1 -91.55 0.0 -93.05 -0.35 -92.4 -0.65 -90.85 Q0.6 -90.7 1.35 -89.7 2.65 -87.9 4.25 -86.45 L10.7 -80.1 12.95 -78.0 Q20.2 -81.95 26.05 -88.0 24.35 -90.75 26.5 -93.25 27.2 -94.1 28.2 -94.15 32.65 -94.3 32.6 -90.1 32.6 -86.4 29.8 -83.7 23.95 -78.1 17.05 -73.55 15.45 -72.5 13.65 -72.1 11.65 -71.6 10.15 -73.1 L1.4 -81.5 -1.6 -84.55 -1.95 -78.25 Q-1.95 -74.95 -0.7 -71.9 L1.25 -66.9 6.9 -56.5 7.7 -56.65 Q10.1 -56.0 11.2 -53.7 13.5 -48.8 16.2 -44.1 L17.75 -40.8 Q20.1 -37.2 21.55 -33.25 23.15 -31.75 21.95 -28.95 21.15 -27.1 20.8 -25.1 19.45 -17.1 19.6 -8.9 L19.65 -4.3 28.15 -3.75 Q31.1 -3.45 30.6 -0.55 30.15 2.15 27.45 1.7 L26.65 1.6 16.35 1.05 Q14.6 0.95 14.4 -0.75 14.0 -3.85 14.1 -6.9 14.25 -13.75 14.85 -20.45 L15.65 -26.85 16.55 -31.2 15.6 -32.75 8.9 -45.8 8.55 -46.5 Q8.0 -41.2 6.45 -36.15 5.95 -34.35 5.85 -32.4 L5.7 -30.15 Q5.45 -27.95 4.8 -25.9 L4.65 -24.3 Q4.35 -23.25 3.45 -22.55 L2.55 -21.95 1.2 -20.95 Q-4.1 -16.4 -8.65 -11.05 L-9.65 -9.8 Q-11.55 -7.25 -13.7 -4.9 L-12.35 -4.0 Q-11.35 -3.3 -10.25 -2.85 -5.95 -1.1 -3.5 2.55 -3.0 3.25 -3.45 4.0 -5.35 7.2 -8.65 4.9 -12.6 2.2 -16.85 0.0 -18.55 -0.9 -19.45 -2.25 -20.3 -2.85 -20.25 -4.1 -20.55 -5.15 -19.85 -5.95 -19.4 -7.05 -18.45 -8.0 L-14.9 -11.9 -11.05 -16.5 -5.55 -22.55 Q-3.2 -25.05 -0.45 -26.7 -0.15 -29.9 0.55 -33.1 L0.95 -36.0 Q1.15 -38.05 1.7 -40.0 3.4 -45.8 3.75 -51.85 2.9 -52.65 2.35 -53.65 -2.1 -61.0 -5.45 -69.0 -8.35 -75.75 -7.45 -83.15 L-7.2 -84.85 -8.05 -84.8 -24.1 -83.8 Q-24.9 -83.75 -25.5 -84.3 -26.95 -85.65 -27.85 -87.5 L-31.9 -95.65 Q-33.0 -97.75 -33.7 -100.0 -34.15 -101.5 -34.1 -103.1 -33.95 -106.75 -30.3 -107.15 -26.25 -106.3 -26.95 -102.35 -27.2 -101.15 -28.15 -100.3 -25.7 -95.15 -22.75 -90.25 L-22.2 -89.35 -6.45 -90.25 -6.4 -90.7 Q-5.8 -94.95 -3.15 -98.15 -3.6 -99.75 -3.6 -101.5 -3.6 -106.4 -0.15 -109.85 3.3 -113.3 8.2 -113.3 12.55 -113.3 15.75 -110.55 L16.55 -109.85 Q20.0 -106.4 20.0 -101.5" fill="#000000" fill-rule="evenodd" stroke="none"/>
  </g>
</svg>
