<?xml version="1.0" encoding="UTF-8" standalone="no"?>
<svg xmlns:ffdec="https://www.free-decompiler.com/flash" xmlns:xlink="http://www.w3.org/1999/xlink" ffdec:objectType="shape" height="111.95px" width="66.1px" xmlns="http://www.w3.org/2000/svg">
  <g transform="matrix(1.0, 0.0, 0.0, 1.0, 38.8, 105.1)">
    <path d="M21.0 -99.45 Q25.35 -98.95 24.85 -94.8 24.55 -92.0 22.85 -89.6 19.75 -82.9 16.95 -76.0 16.15 -74.0 14.65 -73.05 14.15 -72.3 13.15 -72.3 L5.9 -72.8 -1.55 -73.75 -6.7 -74.7 -5.65 -71.2 -3.95 -67.95 Q-0.8 -62.75 3.1 -58.1 6.6 -53.95 9.45 -49.4 11.05 -49.1 11.6 -47.4 L11.65 -47.2 18.05 -33.55 21.55 -25.75 Q22.1 -25.2 22.15 -24.35 22.45 -23.55 21.85 -22.75 L21.7 -22.5 20.1 -19.25 19.4 -18.15 Q18.05 -12.1 16.25 -6.15 L19.2 -4.95 Q22.5 -3.45 25.6 -1.6 28.6 0.2 26.25 2.7 25.4 3.55 24.25 3.25 21.95 2.7 19.8 1.75 15.9 0.0 12.35 -2.25 11.1 -2.6 10.7 -3.45 L10.5 -4.15 10.55 -4.9 10.7 -5.55 13.9 -18.95 Q14.4 -21.1 15.55 -23.1 L16.15 -24.0 15.4 -25.45 12.25 -33.0 9.75 -38.3 7.65 -29.05 7.4 -27.7 Q7.15 -25.75 6.5 -24.05 L6.25 -23.45 Q5.8 -22.35 4.65 -21.85 3.55 -21.4 2.6 -20.65 L-9.9 -10.3 Q-12.05 -8.45 -14.3 -6.85 L-14.3 -6.75 -13.85 -5.65 Q-10.9 -0.85 -9.3 4.55 -9.15 5.1 -9.55 5.55 -11.8 8.1 -14.25 5.7 L-15.15 4.3 Q-16.55 0.55 -18.8 -2.85 -19.95 -4.5 -20.05 -6.2 -20.85 -7.4 -19.6 -9.1 L-19.45 -9.3 -18.9 -9.95 -16.55 -12.2 Q-10.15 -17.15 -4.05 -22.6 -1.35 -25.0 1.75 -26.5 2.05 -29.95 2.9 -33.25 4.3 -38.9 5.2 -44.7 L5.55 -46.1 Q4.7 -46.8 4.15 -47.65 L1.6 -51.1 Q-3.4 -57.45 -8.0 -64.1 -10.1 -67.15 -11.2 -70.7 L-11.85 -73.15 -11.85 -73.2 -12.2 -73.45 -13.65 -74.8 -29.15 -81.1 Q-30.7 -81.75 -30.95 -82.8 L-32.8 -85.3 Q-36.45 -91.15 -38.3 -97.8 L-38.7 -99.7 Q-39.25 -103.05 -36.55 -104.7 L-35.65 -105.05 Q-31.2 -105.2 -31.05 -101.0 -31.0 -98.95 -32.85 -97.8 -30.7 -92.7 -27.6 -88.05 -26.95 -87.1 -26.65 -86.0 L-26.5 -85.75 Q-23.6 -84.8 -20.75 -83.55 -16.75 -81.85 -12.65 -80.4 L-12.4 -80.3 Q-12.3 -83.2 -11.65 -86.15 L-11.5 -86.7 -12.3 -87.75 -12.25 -87.75 Q-13.6 -90.25 -13.6 -93.3 -13.6 -98.2 -10.15 -101.65 -6.7 -105.1 -1.8 -105.1 2.55 -105.1 5.75 -102.35 L6.55 -101.65 Q10.0 -98.2 10.0 -93.3 10.0 -91.1 9.3 -89.15 L8.65 -87.75 Q7.85 -86.25 6.55 -84.95 4.8 -83.2 2.75 -82.35 L2.0 -82.05 0.4 -81.65 -0.3 -81.55 Q-3.15 -82.8 -6.3 -83.0 L-6.1 -82.65 -6.45 -82.75 -6.75 -80.6 -6.8 -80.05 7.6 -78.3 11.2 -77.8 11.45 -78.1 Q12.1 -78.75 12.45 -79.7 15.05 -86.3 18.35 -92.65 16.65 -96.55 20.0 -99.05 L21.0 -99.45" fill="#000000" fill-rule="evenodd" stroke="none"/>
  </g>
</svg>
