<?xml version="1.0" encoding="UTF-8" standalone="no"?>
<svg xmlns:ffdec="https://www.free-decompiler.com/flash" xmlns:xlink="http://www.w3.org/1999/xlink" ffdec:objectType="shape" height="107.35px" width="66.9px" xmlns="http://www.w3.org/2000/svg">
  <g transform="matrix(1.0, 0.0, 0.0, 1.0, 40.7, 101.6)">
    <path d="M16.5 -101.6 Q21.0 -101.45 20.4 -96.95 19.65 -91.95 17.5 -87.3 15.85 -83.75 15.15 -79.95 14.65 -77.35 13.75 -74.85 13.2 -73.3 11.55 -73.1 L7.95 -72.6 5.25 -72.0 Q-0.45 -70.5 -6.2 -70.8 -5.0 -66.9 -2.4 -63.6 L-1.15 -61.9 7.65 -48.5 8.25 -47.35 Q10.7 -46.3 12.2 -43.7 L14.4 -40.0 Q18.4 -33.0 21.65 -25.55 L22.3 -24.25 Q23.75 -21.95 22.45 -20.65 L20.85 -18.2 Q18.75 -15.65 16.95 -12.9 L15.6 -9.7 15.1 -8.9 14.2 -6.75 13.75 -5.7 Q18.85 -2.75 24.55 -0.15 26.85 0.9 25.95 3.2 24.85 5.85 22.1 4.7 14.9 1.75 8.7 -2.8 7.85 -3.45 8.0 -4.6 8.35 -7.5 9.55 -10.15 11.8 -15.15 14.7 -19.85 15.65 -21.4 16.85 -22.5 15.35 -24.95 14.3 -27.6 11.95 -33.75 8.25 -39.1 L7.75 -36.4 Q7.0 -32.1 7.05 -27.65 7.05 -24.8 5.55 -22.6 4.85 -21.6 3.7 -21.25 2.55 -20.9 1.45 -20.25 -5.3 -15.85 -11.7 -11.0 -13.65 -9.55 -14.7 -7.5 L-14.85 -6.6 -13.85 3.8 Q-13.8 4.3 -14.2 4.7 -16.45 6.95 -18.35 4.45 L-19.2 2.6 Q-20.5 -3.5 -19.75 -9.75 -19.55 -11.45 -18.15 -12.65 -11.95 -17.95 -5.2 -22.5 L1.4 -26.6 2.45 -38.75 2.9 -39.95 Q2.85 -42.25 3.3 -44.4 L3.2 -44.6 Q-0.95 -51.6 -5.55 -58.3 -8.6 -62.65 -10.9 -67.35 L-11.85 -69.6 -12.2 -69.8 Q-18.35 -73.0 -25.0 -74.95 -27.25 -75.6 -29.05 -77.15 -30.5 -78.4 -31.5 -80.1 L-34.85 -85.4 -39.95 -94.0 Q-41.45 -96.8 -39.95 -99.6 -39.4 -100.6 -38.2 -100.85 L-37.5 -101.05 Q-33.0 -100.85 -33.15 -96.6 -33.2 -95.5 -33.85 -94.6 -30.45 -88.2 -26.15 -82.15 L-25.6 -81.25 Q-19.1 -79.2 -13.05 -76.2 L-13.25 -78.1 Q-13.45 -79.55 -13.3 -80.95 L-14.05 -81.55 -15.45 -83.75 -15.4 -83.75 Q-16.75 -86.25 -16.75 -89.3 -16.75 -94.2 -13.3 -97.65 -9.85 -101.1 -4.95 -101.1 -0.6 -101.1 2.6 -98.35 L3.4 -97.65 Q6.85 -94.2 6.85 -89.3 6.85 -87.1 6.15 -85.15 L5.5 -83.75 Q4.7 -82.25 3.4 -80.95 1.65 -79.2 -0.4 -78.35 L-1.15 -78.05 -2.75 -77.65 -3.45 -77.55 Q-5.55 -78.45 -7.85 -78.8 L-7.8 -78.1 -7.4 -75.6 -6.85 -75.75 -2.35 -76.3 Q2.2 -76.7 6.55 -77.9 L9.1 -78.3 Q10.2 -85.5 13.25 -92.15 L14.35 -94.25 Q11.85 -98.15 15.35 -101.1 L16.5 -101.6" fill="#000000" fill-rule="evenodd" stroke="none"/>
  </g>
</svg>
