<?xml version="1.0" encoding="UTF-8" standalone="no"?>
<svg xmlns:ffdec="https://www.free-decompiler.com/flash" xmlns:xlink="http://www.w3.org/1999/xlink" ffdec:objectType="shape" height="103.85px" width="71.7px" xmlns="http://www.w3.org/2000/svg">
  <g transform="matrix(1.0, 0.0, 0.0, 1.0, 42.25, 100.0)">
    <path d="M10.65 -93.25 Q6.9 -95.35 9.1 -98.95 9.75 -99.95 10.9 -100.0 15.6 -100.0 15.8 -95.5 16.1 -90.6 15.1 -85.9 L14.1 -82.75 Q12.85 -74.65 6.5 -69.3 2.9 -66.25 -1.3 -64.05 L-3.45 -63.05 Q-2.9 -62.2 -3.1 -61.3 -1.1 -57.35 1.35 -53.6 L5.75 -47.25 Q8.0 -44.2 10.6 -41.4 L11.15 -41.5 Q14.0 -40.6 15.15 -37.7 L15.45 -37.2 Q20.65 -30.9 25.35 -24.4 L29.2 -18.95 Q29.7 -18.3 29.25 -17.55 27.9 -15.3 25.25 -14.35 L24.05 -13.7 11.25 -4.25 Q15.9 -2.35 20.8 -1.4 21.45 -1.3 21.7 -0.65 22.9 2.65 19.35 3.2 L17.95 3.25 Q10.8 2.55 5.2 -1.55 4.5 -2.05 4.45 -2.95 4.3 -5.55 6.45 -7.3 L17.45 -15.65 22.05 -19.2 Q17.8 -25.6 12.75 -31.45 L11.4 -33.25 Q11.55 -27.05 11.35 -20.9 11.3 -19.45 10.1 -18.65 8.25 -17.45 5.9 -17.3 L3.85 -17.05 Q-4.1 -15.25 -11.7 -12.2 L-14.55 -11.05 Q-14.0 -4.25 -14.95 2.5 -15.05 3.35 -15.95 3.6 -18.8 4.55 -19.45 1.7 L-19.65 -0.25 Q-19.6 -5.5 -20.1 -10.6 -20.4 -13.6 -18.1 -15.2 -16.45 -16.35 -14.55 -17.1 -4.35 -21.05 6.35 -23.25 6.15 -30.8 5.15 -38.2 L5.1 -39.1 Q0.3 -44.5 -3.6 -50.7 -6.55 -55.45 -8.9 -60.5 L-10.55 -61.65 Q-17.8 -67.1 -25.75 -71.85 -32.25 -75.75 -38.05 -80.75 -42.4 -84.5 -42.25 -89.95 -42.25 -91.05 -41.55 -91.9 -40.65 -93.0 -39.35 -93.05 -35.1 -92.8 -35.35 -88.6 -35.4 -87.55 -35.85 -86.6 -29.1 -79.95 -20.6 -75.1 L-18.1 -73.6 -19.45 -75.7 -19.4 -75.7 Q-20.75 -78.2 -20.75 -81.25 -20.75 -86.15 -17.3 -89.6 -13.85 -93.05 -8.95 -93.05 -4.6 -93.05 -1.4 -90.3 L-0.6 -89.6 Q2.85 -86.15 2.85 -81.25 2.85 -79.05 2.15 -77.1 L1.5 -75.7 Q0.7 -74.2 -0.6 -72.9 -2.35 -71.15 -4.4 -70.3 L-5.15 -70.0 -6.7 -69.6 -6.1 -67.85 -0.55 -70.85 Q5.05 -73.95 7.45 -79.75 8.55 -82.4 9.1 -85.25 L9.3 -85.7 Q9.65 -88.2 10.3 -90.65 10.65 -91.9 10.65 -93.25 M-13.15 -70.45 L-13.25 -70.9 -13.45 -70.95 -13.25 -70.6 -13.5 -70.7 -13.15 -70.45" fill="#000000" fill-rule="evenodd" stroke="none"/>
  </g>
</svg>
