<?xml version="1.0" encoding="UTF-8" standalone="no"?>
<svg xmlns:ffdec="https://www.free-decompiler.com/flash" xmlns:xlink="http://www.w3.org/1999/xlink" ffdec:objectType="shape" height="98.6px" width="77.2px" xmlns="http://www.w3.org/2000/svg">
  <g transform="matrix(1.0, 0.0, 0.0, 1.0, 42.0, 94.4)">
    <path d="M9.3 -94.4 Q13.5 -94.1 14.15 -89.7 14.85 -84.75 13.75 -79.75 L13.35 -77.8 11.8 -70.25 Q11.0 -66.7 8.85 -63.7 5.4 -58.8 0.6 -55.3 L5.9 -48.15 Q7.45 -45.85 9.35 -43.85 13.2 -39.9 18.0 -36.95 L18.75 -36.35 Q19.75 -35.85 20.1 -34.65 L20.15 -34.45 Q25.5 -28.75 29.2 -21.95 L31.3 -17.7 Q34.15 -14.0 35.15 -9.65 35.3 -9.05 34.95 -8.5 34.0 -7.15 32.3 -7.1 L12.5 -6.5 14.05 2.1 13.8 3.0 Q11.55 5.5 9.3 2.85 8.05 1.35 7.95 -0.6 L7.65 -2.4 Q6.6 -6.4 7.75 -10.2 L-3.75 -8.5 -9.65 -8.1 Q-10.2 -6.45 -10.25 -4.75 -10.25 -4.05 -10.65 -3.55 -11.0 0.55 -14.05 3.1 L-14.9 3.3 Q-17.95 2.9 -17.3 -0.15 L-16.7 -2.45 Q-15.5 -6.15 -15.0 -10.0 -14.65 -12.7 -12.05 -13.15 L-7.15 -13.9 9.9 -15.9 10.5 -16.0 Q11.9 -23.45 12.5 -31.0 12.6 -32.25 13.15 -33.2 7.05 -37.65 2.4 -43.5 L-1.2 -48.35 -5.25 -53.95 -7.8 -55.1 Q-15.55 -58.7 -22.8 -62.9 L-30.3 -67.05 Q-35.45 -69.85 -40.0 -73.5 -42.5 -75.5 -41.9 -78.75 -41.45 -81.1 -39.1 -81.35 -34.55 -81.1 -34.85 -76.65 L-34.85 -76.45 Q-27.7 -71.65 -20.05 -67.45 -20.95 -69.6 -20.95 -72.1 -20.95 -77.0 -17.5 -80.45 -14.05 -83.9 -9.15 -83.9 -4.8 -83.9 -1.6 -81.15 L-0.8 -80.45 Q2.65 -77.0 2.65 -72.1 2.65 -69.9 1.95 -67.95 L1.3 -66.55 Q0.5 -65.05 -0.8 -63.75 -2.3 -62.25 -4.05 -61.4 L-3.95 -61.25 -2.85 -59.6 -2.3 -60.1 Q4.85 -64.75 6.7 -72.8 L8.25 -78.8 Q8.25 -81.95 8.85 -85.0 L9.05 -87.35 Q5.4 -89.15 7.25 -93.05 7.9 -94.35 9.3 -94.4 M17.65 -27.05 Q17.0 -20.25 15.45 -13.55 L14.65 -11.85 28.2 -12.35 20.75 -24.85 19.55 -26.45 17.85 -28.45 17.65 -27.05" fill="#000000" fill-rule="evenodd" stroke="none"/>
  </g>
</svg>
