<?xml version="1.0" encoding="UTF-8" standalone="no"?>
<svg xmlns:ffdec="https://www.free-decompiler.com/flash" xmlns:xlink="http://www.w3.org/1999/xlink" ffdec:objectType="shape" height="91.4px" width="77.1px" xmlns="http://www.w3.org/2000/svg">
  <g transform="matrix(1.0, 0.0, 0.0, 1.0, 38.2, 86.7)">
    <path d="M3.7 -86.7 Q9.15 -86.7 9.8 -81.3 10.7 -73.25 11.05 -65.15 11.25 -61.4 9.05 -58.25 L5.65 -54.15 Q3.35 -51.7 0.85 -49.55 L10.05 -40.6 Q14.65 -36.15 18.85 -31.4 22.1 -30.45 24.05 -27.45 L26.95 -23.05 Q30.25 -18.15 33.8 -13.5 L36.2 -10.6 Q38.1 -8.4 38.85 -5.7 39.1 -4.65 38.35 -3.8 37.55 -3.0 36.45 -3.05 33.15 -3.35 30.0 -3.1 23.85 -2.7 17.7 -2.9 L16.3 -3.05 11.45 -3.6 Q11.4 -0.1 10.4 3.1 9.95 4.7 8.25 4.6 5.5 4.4 5.6 1.75 5.65 -1.85 6.4 -5.3 L-6.1 -5.45 -9.6 2.25 -10.25 3.25 Q-12.5 6.15 -14.7 3.15 -15.3 2.35 -15.05 1.35 -14.15 -2.55 -12.1 -5.95 L-10.6 -8.85 Q-9.35 -11.8 -6.15 -11.5 L8.35 -10.65 12.15 -10.2 12.95 -10.1 Q12.6 -17.6 12.6 -25.2 12.6 -27.45 13.35 -29.5 L2.25 -40.4 -3.0 -45.5 -4.0 -45.6 -12.6 -47.2 Q-15.4 -47.8 -18.15 -48.75 -21.05 -49.75 -23.35 -51.9 L-33.25 -61.15 Q-36.0 -63.8 -37.6 -67.15 -38.2 -68.45 -38.2 -69.85 -38.2 -73.3 -34.85 -73.9 -30.45 -73.7 -30.5 -69.25 -30.5 -68.2 -31.1 -67.3 -26.5 -62.25 -21.5 -57.55 L-21.6 -57.7 -21.55 -57.7 Q-22.9 -60.2 -22.9 -63.25 -22.9 -68.15 -19.45 -71.6 -16.0 -75.05 -11.1 -75.05 -6.75 -75.05 -3.55 -72.3 L-2.75 -71.6 Q0.7 -68.15 0.7 -63.25 0.7 -61.05 0.0 -59.1 L-0.65 -57.7 Q-1.45 -56.2 -2.75 -54.9 L-3.5 -54.2 -3.25 -53.85 -3.0 -53.5 Q2.35 -57.4 4.95 -63.3 5.85 -65.4 5.6 -67.8 L4.8 -78.1 Q0.65 -78.25 0.55 -82.25 0.4 -85.85 3.7 -86.7 M18.55 -8.3 Q24.2 -8.1 29.85 -8.2 L30.65 -8.3 21.85 -20.55 18.35 -25.55 Q17.9 -22.95 18.05 -20.2 18.3 -14.2 18.0 -8.35 L18.55 -8.3" fill="#000000" fill-rule="evenodd" stroke="none"/>
  </g>
</svg>
