<?xml version="1.0" encoding="UTF-8" standalone="no"?>
<svg xmlns:ffdec="https://www.free-decompiler.com/flash" xmlns:xlink="http://www.w3.org/1999/xlink" ffdec:objectType="shape" height="87.4px" width="77.85px" xmlns="http://www.w3.org/2000/svg">
  <g transform="matrix(1.0, 0.0, 0.0, 1.0, 39.7, 82.45)">
    <path d="M3.15 -75.8 Q4.65 -67.85 4.35 -59.65 4.2 -56.2 2.95 -53.0 1.25 -48.8 -1.05 -44.8 L4.0 -40.75 Q8.3 -37.2 12.7 -33.75 15.1 -31.85 16.8 -29.45 19.95 -28.1 22.35 -25.4 27.75 -19.4 32.7 -13.0 L37.75 -6.45 38.05 -5.6 38.1 -4.65 Q37.3 -1.25 33.5 -2.1 L30.35 -2.65 24.35 -3.1 16.85 -3.45 Q15.9 -2.85 14.4 -3.15 L11.9 -3.55 8.5 -3.6 8.45 -1.95 8.3 1.0 Q8.55 4.8 4.85 4.4 3.45 4.3 3.15 2.9 2.8 1.45 2.85 -0.05 2.9 -1.55 3.1 -3.05 L3.25 -4.2 -2.75 -4.9 -2.85 -4.8 -9.45 4.3 Q-10.0 5.0 -10.9 4.95 -14.4 4.65 -13.4 1.45 -12.55 -1.25 -10.8 -3.5 -8.15 -6.95 -5.3 -10.0 L-4.65 -10.3 -4.25 -10.35 -4.05 -10.3 -3.75 -10.35 12.35 -9.35 14.0 -9.1 13.5 -19.05 13.1 -24.4 13.1 -25.4 Q12.75 -25.9 12.65 -26.55 L6.05 -31.8 Q0.15 -36.4 -5.5 -41.35 L-11.95 -41.65 -20.35 -43.35 Q-25.65 -44.15 -28.05 -48.85 L-29.8 -51.8 -33.85 -58.25 -37.85 -65.2 -39.15 -67.6 Q-40.55 -70.35 -38.5 -72.6 -37.65 -73.6 -36.45 -73.65 -31.5 -73.05 -32.25 -68.55 L-32.65 -67.35 -24.95 -54.1 Q-23.25 -51.4 -20.9 -49.35 L-20.15 -48.95 -13.5 -47.6 -15.15 -48.7 -17.65 -49.05 -17.45 -48.7 -19.25 -49.4 -22.25 -51.6 -23.65 -53.8 -23.6 -53.8 Q-24.95 -56.3 -24.95 -59.35 -24.95 -64.25 -21.5 -67.7 -18.05 -71.15 -13.15 -71.15 -8.8 -71.15 -5.6 -68.4 L-4.8 -67.7 Q-1.35 -64.25 -1.35 -59.35 L-1.35 -58.4 Q-0.8 -61.4 -0.95 -64.55 -1.1 -68.2 -1.95 -71.7 -2.25 -72.9 -2.15 -74.1 -4.05 -74.55 -5.4 -76.25 -7.5 -78.95 -4.85 -81.25 -3.65 -82.3 -2.15 -82.45 2.6 -82.6 2.85 -78.0 L3.15 -75.8 M18.65 -20.8 L19.15 -10.8 19.3 -8.6 29.6 -8.15 22.55 -17.0 18.65 -21.35 18.65 -20.8 M-4.8 -51.0 Q-5.75 -50.05 -6.8 -49.35 L-5.55 -48.35 -5.05 -49.25 Q-3.7 -51.4 -2.8 -53.6 -3.6 -52.2 -4.8 -51.0" fill="#000000" fill-rule="evenodd" stroke="none"/>
  </g>
</svg>
