<?xml version="1.0" encoding="UTF-8" standalone="no"?>
<svg xmlns:ffdec="https://www.free-decompiler.com/flash" xmlns:xlink="http://www.w3.org/1999/xlink" ffdec:objectType="shape" height="84.45px" width="79.6px" xmlns="http://www.w3.org/2000/svg">
  <g transform="matrix(1.0, 0.0, 0.0, 1.0, 40.55, 78.7)">
    <path d="M2.35 -58.1 Q2.5 -53.6 0.6 -49.6 -0.55 -47.15 -2.0 -44.85 -2.5 -44.05 -3.15 -43.4 3.45 -39.2 9.25 -34.0 L13.05 -29.9 Q15.35 -29.05 17.25 -27.2 18.9 -25.65 20.7 -24.35 27.4 -19.65 33.1 -13.8 35.3 -11.55 36.9 -8.9 L37.95 -7.9 Q40.5 -5.0 37.1 -3.15 L36.4 -3.0 11.45 -4.8 10.05 -4.35 9.6 -4.25 9.55 -4.0 Q9.3 -2.25 9.35 -0.45 9.5 3.15 6.95 5.35 6.4 5.85 5.6 5.75 2.2 5.15 3.1 1.95 3.9 -1.05 4.2 -4.15 L-3.05 -4.4 -3.25 -4.2 Q-4.5 -2.65 -5.05 -0.75 -5.6 1.05 -6.6 2.6 -6.7 3.6 -7.45 4.25 -9.6 6.35 -11.4 3.9 -12.15 2.85 -11.8 1.5 L-10.7 -2.2 Q-9.15 -6.85 -5.15 -9.55 L-4.55 -9.85 8.95 -9.35 Q9.55 -9.9 10.65 -10.1 L14.25 -9.9 Q14.1 -10.45 14.1 -11.05 L9.55 -20.45 Q8.55 -22.35 8.25 -24.4 7.4 -26.2 7.65 -27.6 L2.1 -32.7 Q-0.8 -35.4 -4.1 -37.55 L-6.0 -38.8 -8.1 -38.65 Q-13.35 -39.8 -18.35 -41.75 -21.35 -42.85 -24.15 -44.35 -29.1 -46.95 -31.75 -51.8 L-33.15 -54.25 -39.7 -64.8 Q-40.65 -66.4 -40.55 -68.3 -40.3 -72.35 -36.45 -73.4 -32.1 -74.05 -31.85 -70.15 -31.65 -67.35 -34.2 -66.15 L-28.9 -57.9 Q-28.2 -61.0 -25.8 -63.4 -22.35 -66.85 -17.45 -66.85 -13.1 -66.85 -9.9 -64.1 L-9.1 -63.4 Q-5.65 -59.95 -5.65 -55.05 -5.65 -52.85 -6.35 -50.9 L-7.0 -49.5 -8.35 -47.45 -7.65 -46.9 Q-5.5 -49.5 -3.8 -52.45 -2.65 -59.1 -3.85 -65.8 L-4.6 -71.0 Q-8.05 -71.65 -8.1 -74.9 -8.2 -78.15 -5.05 -78.7 -0.55 -78.75 0.4 -74.3 2.05 -66.35 2.35 -58.1 M18.25 -14.65 L19.95 -11.0 20.55 -9.45 26.3 -8.9 30.3 -8.65 27.05 -11.95 Q21.5 -17.45 15.0 -21.75 16.4 -18.15 18.25 -14.65" fill="#000000" fill-rule="evenodd" stroke="none"/>
  </g>
</svg>
