<?xml version="1.0" encoding="UTF-8" standalone="no"?>
<svg xmlns:ffdec="https://www.free-decompiler.com/flash" xmlns:xlink="http://www.w3.org/1999/xlink" ffdec:objectType="shape" height="76.75px" width="87.2px" xmlns="http://www.w3.org/2000/svg">
  <g transform="matrix(1.0, 0.0, 0.0, 1.0, 47.95, 70.75)">
    <path d="M3.75 -22.5 L-5.95 -27.85 -7.2 -28.55 -7.55 -28.4 -8.25 -28.25 Q-17.95 -27.9 -25.35 -34.05 L-29.05 -37.45 -30.05 -38.25 -30.3 -38.75 -32.25 -40.95 -41.8 -52.05 Q-44.45 -55.05 -46.4 -58.5 -48.55 -62.3 -47.75 -66.5 L-47.3 -67.3 Q-46.4 -68.3 -45.2 -68.35 -40.2 -67.8 -40.2 -62.9 -40.2 -61.6 -41.1 -60.7 -37.05 -54.8 -32.35 -49.1 -31.6 -52.05 -29.3 -54.35 -25.85 -57.8 -20.95 -57.8 -16.6 -57.8 -13.4 -55.05 L-12.6 -54.35 Q-10.4 -52.15 -9.6 -49.35 -9.7 -56.4 -11.55 -63.0 -14.9 -63.65 -16.05 -66.7 L-16.2 -67.8 Q-16.2 -70.45 -13.55 -70.75 -9.75 -70.85 -7.75 -67.35 L-7.15 -66.2 Q-5.3 -62.45 -4.95 -58.3 L-4.5 -53.7 -4.15 -49.55 Q-3.75 -43.3 -5.15 -37.3 -5.35 -36.45 -5.2 -35.6 L-5.15 -33.95 Q1.45 -29.9 8.35 -26.4 15.65 -22.65 22.35 -18.0 L25.6 -15.55 Q31.8 -10.3 38.3 -5.45 39.6 -4.45 39.1 -2.95 38.4 -0.8 36.7 -0.95 35.9 -0.45 34.3 -0.5 L24.9 -0.6 17.8 -0.4 5.65 -0.05 Q5.6 2.8 4.3 5.2 3.9 5.95 3.05 6.0 0.0 6.05 0.0 3.05 L0.0 2.25 Q0.0 -0.05 0.5 -2.3 0.65 -3.05 1.05 -3.6 L-2.6 -3.6 Q-3.95 0.3 -6.15 3.5 -6.35 3.8 -6.7 3.8 -10.2 4.15 -9.9 0.75 -9.8 -0.9 -9.2 -2.5 -8.0 -5.95 -5.5 -8.5 -5.0 -9.0 -4.25 -9.0 L14.5 -8.9 15.1 -8.85 Q10.35 -14.45 4.55 -19.65 3.0 -21.0 3.75 -22.5 M19.1 -13.15 Q21.55 -10.9 22.55 -7.75 22.85 -6.75 22.75 -6.0 L24.45 -6.1 28.3 -6.25 Q23.25 -10.6 17.85 -14.3 L19.1 -13.15 M-10.5 -37.65 L-10.15 -41.05 -10.5 -40.45 -11.8 -38.5 -10.5 -37.65 M-15.7 -34.8 L-16.15 -35.15 -16.35 -35.05 -15.7 -34.8" fill="#000000" fill-rule="evenodd" stroke="none"/>
  </g>
</svg>
