<?xml version="1.0" encoding="UTF-8" standalone="no"?>
<svg xmlns:ffdec="https://www.free-decompiler.com/flash" xmlns:xlink="http://www.w3.org/1999/xlink" ffdec:objectType="shape" height="71.6px" width="92.1px" xmlns="http://www.w3.org/2000/svg">
  <g transform="matrix(1.0, 0.0, 0.0, 1.0, 51.75, 66.2)">
    <path d="M2.35 -17.0 L-1.05 -19.4 Q-1.7 -19.85 -1.75 -20.6 L-1.75 -21.25 -10.2 -24.2 -13.35 -25.25 Q-14.9 -25.15 -16.4 -25.7 L-21.0 -27.7 -25.65 -29.15 Q-26.75 -29.5 -27.5 -30.15 L-27.35 -29.95 -29.15 -30.65 -32.15 -32.85 -33.55 -35.05 -33.5 -35.05 -34.45 -37.5 Q-37.6 -40.35 -40.6 -43.35 -46.15 -48.9 -50.75 -55.25 -51.85 -56.75 -51.75 -58.7 -51.7 -61.2 -49.2 -61.45 -44.35 -61.4 -44.65 -56.55 L-44.7 -56.35 Q-39.85 -50.15 -34.15 -44.6 -33.35 -47.0 -31.4 -48.95 -27.95 -52.4 -23.05 -52.4 -18.7 -52.4 -15.5 -49.65 L-14.7 -48.95 Q-11.25 -45.5 -11.25 -40.6 -11.25 -38.4 -11.95 -36.45 L-12.6 -35.05 Q-13.4 -33.55 -14.7 -32.25 L-15.3 -31.65 -13.05 -30.9 Q-12.6 -33.1 -11.55 -35.15 -10.75 -36.65 -10.7 -38.45 -10.6 -45.9 -12.2 -53.2 -12.8 -56.05 -13.85 -58.75 -15.85 -58.95 -17.35 -60.45 -18.35 -61.45 -18.25 -62.9 -18.0 -65.8 -15.15 -66.2 -10.1 -65.65 -8.5 -60.6 -7.5 -57.4 -6.9 -54.2 -5.3 -48.0 -5.35 -41.4 L-5.3 -39.8 Q-4.95 -34.3 -7.65 -29.55 L-7.85 -29.15 -2.8 -27.55 Q2.95 -25.8 8.25 -23.1 L8.5 -23.15 Q16.1 -21.75 22.5 -17.35 L35.9 -7.95 Q38.3 -6.2 39.95 -3.85 40.75 -2.75 39.9 -1.7 38.35 0.35 36.3 -0.65 L35.35 -0.55 Q19.8 -0.25 4.3 -0.4 L2.05 4.55 Q1.65 5.4 0.65 5.4 -2.75 5.35 -2.2 1.95 L-1.5 -1.5 Q-0.9 -4.1 0.95 -5.55 L-2.05 -5.75 -2.15 -5.05 Q-2.4 -1.95 -2.8 1.1 -2.95 2.25 -4.1 2.55 -7.25 3.35 -7.5 0.25 -7.7 -2.75 -7.5 -5.7 L-7.25 -8.7 Q-7.15 -10.1 -5.75 -10.65 L-4.8 -10.9 -4.15 -10.75 -3.45 -10.9 10.95 -10.3 2.35 -17.0 M22.3 -10.8 Q17.95 -13.85 13.1 -15.85 L21.35 -8.4 Q21.85 -7.9 21.7 -7.2 L21.05 -5.5 29.85 -5.4 22.3 -10.8" fill="#000000" fill-rule="evenodd" stroke="none"/>
  </g>
</svg>
