<?xml version="1.0" encoding="UTF-8" standalone="no"?>
<svg xmlns:ffdec="https://www.free-decompiler.com/flash" xmlns:xlink="http://www.w3.org/1999/xlink" ffdec:objectType="shape" height="61.1px" width="102.15px" xmlns="http://www.w3.org/2000/svg">
  <g transform="matrix(1.0, 0.0, 0.0, 1.0, 60.85, 54.25)">
    <path d="M39.75 -4.95 Q41.4 -4.3 41.3 -2.55 41.1 -0.3 38.75 0.15 L36.7 0.35 27.0 0.55 19.2 0.4 Q13.45 0.1 7.7 0.15 8.5 4.1 5.75 6.45 5.15 7.0 4.4 6.75 1.25 5.7 2.15 2.4 2.4 1.55 2.25 0.7 2.05 -0.6 2.2 -1.85 L-2.95 -1.2 Q-2.45 2.7 -5.15 5.15 -5.55 5.55 -6.1 5.45 -9.15 5.0 -8.6 1.95 -8.25 0.3 -8.45 -1.45 -8.8 -5.65 -4.6 -6.35 L4.05 -7.6 Q-0.7 -9.75 -5.9 -10.95 L-6.65 -11.65 -6.75 -11.95 Q-11.45 -12.7 -15.95 -13.95 -23.85 -13.6 -31.6 -14.3 L-38.7 -14.95 Q-40.25 -15.05 -41.25 -16.3 -44.8 -20.6 -47.9 -25.15 -49.45 -27.45 -51.3 -29.55 L-55.8 -34.4 -59.95 -39.3 Q-61.0 -40.7 -60.85 -42.4 -60.65 -45.65 -57.45 -46.25 -52.65 -45.7 -51.95 -41.2 -51.75 -40.0 -52.45 -39.0 -47.35 -34.05 -43.4 -28.05 L-43.15 -27.25 -39.75 -23.35 Q-40.15 -24.85 -40.15 -26.45 -40.15 -31.35 -36.7 -34.8 -33.25 -38.25 -28.35 -38.25 -24.0 -38.25 -20.8 -35.5 L-20.0 -34.8 Q-17.2 -32.0 -16.65 -28.25 -16.5 -33.25 -16.75 -38.25 L-18.3 -42.8 -19.35 -45.35 Q-23.95 -45.4 -24.3 -49.6 -24.6 -53.3 -21.3 -54.25 -17.0 -54.2 -15.25 -50.05 -13.6 -46.2 -12.35 -42.15 -11.3 -38.7 -11.1 -35.05 -10.75 -26.75 -11.75 -18.65 L-11.75 -18.5 -8.65 -18.0 7.4 -15.4 Q15.45 -14.15 23.1 -11.45 L32.1 -7.95 Q35.85 -6.35 39.75 -4.95 M20.6 -5.2 L24.5 -5.2 20.05 -6.95 20.5 -5.85 20.6 -5.2 M-16.9 -23.45 L-17.25 -22.3 -17.9 -20.9 -18.05 -20.65 -17.1 -20.2 -16.9 -23.45" fill="#000000" fill-rule="evenodd" stroke="none"/>
  </g>
</svg>
