<?xml version="1.0" encoding="UTF-8" standalone="no"?>
<svg xmlns:ffdec="https://www.free-decompiler.com/flash" xmlns:xlink="http://www.w3.org/1999/xlink" ffdec:objectType="shape" height="48.1px" width="113.5px" xmlns="http://www.w3.org/2000/svg">
  <g transform="matrix(1.0, 0.0, 0.0, 1.0, 71.7, 39.9)">
    <path d="M5.7 -0.1 L2.2 0.15 2.1 0.95 2.1 1.15 2.1 2.5 Q2.0 5.25 0.5 7.35 -0.2 8.35 -1.45 8.15 -3.2 7.9 -3.65 6.2 L-3.7 6.0 -3.0 -1.8 -16.7 -2.05 Q-17.1 -0.8 -19.15 -0.4 L-21.5 -0.3 -25.9 -0.95 -27.0 -0.45 -27.75 -0.15 -29.35 0.25 -30.05 0.35 Q-32.9 -0.9 -36.05 -1.1 L-35.85 -0.75 -37.65 -1.45 -39.4 -2.65 -49.35 -3.15 Q-50.55 -3.2 -51.5 -3.9 L-56.7 -8.3 Q-61.2 -12.65 -66.15 -16.45 -69.0 -18.7 -71.15 -21.5 -71.65 -22.1 -71.7 -22.95 -71.95 -26.45 -68.6 -27.1 -63.45 -26.5 -63.05 -21.45 L-63.05 -21.3 -50.6 -10.2 Q-49.5 -9.2 -48.2 -8.4 L-42.95 -8.3 Q-43.35 -9.8 -43.35 -11.4 -43.35 -16.3 -39.9 -19.75 -36.45 -23.2 -31.55 -23.2 -28.1 -23.2 -25.35 -21.45 -28.45 -27.2 -33.95 -31.1 L-34.85 -31.85 Q-40.0 -30.0 -42.5 -34.4 L-43.0 -35.9 Q-43.3 -39.3 -40.15 -39.9 -35.5 -39.45 -31.7 -36.55 -25.1 -31.5 -20.75 -24.5 -18.65 -21.15 -17.55 -17.3 L-17.2 -15.85 Q-17.05 -15.25 -17.05 -14.65 -14.55 -11.35 -14.7 -7.7 L18.85 -7.25 28.1 -7.05 38.4 -6.75 Q42.3 -6.6 41.75 -3.0 41.45 -1.05 39.45 -0.8 L34.25 -0.35 33.5 -0.35 12.1 -0.2 Q12.2 0.7 11.9 1.8 11.6 3.05 11.8 4.35 12.35 8.2 8.6 7.9 7.3 7.8 6.95 6.55 6.05 3.25 6.65 -0.15 L6.3 -0.15 5.7 -0.1 M-20.15 -8.05 L-20.25 -7.75 -20.1 -7.75 -20.15 -8.05" fill="#000000" fill-rule="evenodd" stroke="none"/>
  </g>
</svg>
