<?xml version="1.0" encoding="UTF-8" standalone="no"?>
<svg xmlns:ffdec="https://www.free-decompiler.com/flash" xmlns:xlink="http://www.w3.org/1999/xlink" ffdec:objectType="shape" height="47.1px" width="115.95px" xmlns="http://www.w3.org/2000/svg">
  <g transform="matrix(1.0, 0.0, 0.0, 1.0, 74.95, 37.75)">
    <path d="M37.7 -6.3 L38.3 -6.65 Q42.05 -6.05 40.6 -2.7 39.7 -0.7 37.45 -0.15 32.3 1.25 26.85 1.1 20.3 0.95 13.95 2.1 13.4 2.7 12.1 3.05 12.1 5.8 11.25 8.35 10.95 9.2 10.0 9.3 6.6 9.7 6.6 6.3 L6.7 3.5 5.6 3.45 1.85 3.3 Q2.3 6.15 0.85 8.4 0.3 9.25 -0.75 9.1 -4.0 8.6 -3.65 5.25 -3.45 3.15 -3.55 1.05 L-3.35 -0.45 -4.8 -0.4 -17.95 0.0 -19.85 0.0 Q-20.55 2.0 -23.8 1.45 L-35.4 -0.85 -44.65 -2.3 Q-48.15 -2.65 -51.0 -4.6 L-52.35 -5.7 Q-55.2 -8.3 -58.45 -10.3 -63.4 -13.35 -68.7 -15.6 -72.75 -13.45 -74.6 -17.45 -75.6 -19.65 -73.65 -21.05 -73.0 -21.5 -72.35 -21.55 -65.9 -21.7 -60.6 -17.95 -58.3 -16.3 -55.85 -14.95 -50.8 -12.05 -46.2 -8.5 -45.8 -8.2 -45.25 -8.15 L-42.25 -7.7 Q-43.35 -10.0 -43.35 -12.7 -43.35 -17.6 -39.9 -21.05 -36.45 -24.5 -31.55 -24.5 L-31.4 -24.5 -37.85 -29.05 -40.8 -30.9 -41.15 -31.0 -41.9 -31.25 Q-45.95 -28.35 -49.4 -32.05 -50.55 -33.3 -50.2 -35.1 -49.65 -37.55 -47.05 -37.75 -40.4 -38.05 -35.05 -33.9 L-32.15 -31.8 -28.0 -28.95 Q-21.05 -24.15 -18.85 -15.8 -18.35 -13.9 -17.35 -12.25 -15.35 -9.0 -14.05 -5.5 L-5.25 -5.55 4.8 -6.65 36.95 -6.4 37.7 -6.3 M-21.1 -7.15 L-21.95 -5.75 -20.0 -5.65 -20.95 -7.35 -21.1 -7.15" fill="#000000" fill-rule="evenodd" stroke="none"/>
  </g>
</svg>
