<?xml version="1.0" encoding="UTF-8" standalone="no"?>
<svg xmlns:ffdec="https://www.free-decompiler.com/flash" xmlns:xlink="http://www.w3.org/1999/xlink" ffdec:objectType="shape" height="45.1px" width="116.15px" xmlns="http://www.w3.org/2000/svg">
  <g transform="matrix(1.0, 0.0, 0.0, 1.0, 75.75, 34.85)">
    <path d="M26.05 -7.15 L38.6 -6.15 39.55 -5.55 Q41.85 -2.0 38.0 -0.5 36.7 0.05 35.3 0.2 L26.8 0.95 16.4 1.5 15.7 1.55 11.8 1.6 11.65 3.45 Q11.1 5.8 11.1 8.15 11.1 9.3 10.1 9.8 7.15 11.2 6.1 8.25 L5.75 6.3 Q5.7 3.85 6.35 1.7 L1.85 1.75 1.85 1.95 1.35 7.1 Q1.0 9.85 -1.75 9.25 -3.65 8.85 -3.7 6.9 L-3.8 4.3 -3.55 2.9 -3.6 2.75 -3.75 2.1 -3.75 1.95 -3.75 0.95 -3.65 -1.25 -3.65 -1.35 Q-10.1 -1.3 -16.55 -1.5 -17.05 -0.55 -18.25 -0.5 L-32.95 -1.35 -36.3 -1.8 -45.95 -2.9 -47.35 -3.35 Q-54.55 -6.95 -62.25 -9.2 L-65.95 -9.85 Q-71.05 -6.9 -74.9 -11.05 -76.1 -12.4 -75.65 -14.25 -75.0 -16.7 -72.6 -17.0 -64.6 -15.75 -56.85 -13.2 -49.85 -10.9 -42.95 -8.25 L-42.15 -7.95 Q-43.1 -10.15 -43.1 -12.7 -43.1 -17.6 -39.65 -21.05 -36.4 -24.3 -31.9 -24.45 -37.2 -26.75 -42.75 -28.4 -47.7 -25.25 -51.55 -29.35 -52.25 -30.1 -52.25 -31.2 -52.3 -34.35 -49.2 -34.85 -41.1 -34.1 -33.5 -31.2 -27.6 -28.95 -22.95 -24.8 -21.4 -23.45 -20.6 -21.6 -17.3 -14.4 -15.15 -6.75 -5.15 -6.6 4.8 -7.2 L26.05 -7.15 M-20.85 -7.1 L-21.05 -6.7 -20.7 -6.75 -20.85 -7.1" fill="#000000" fill-rule="evenodd" stroke="none"/>
  </g>
</svg>
