<?xml version="1.0" encoding="UTF-8" standalone="no"?>
<svg xmlns:ffdec="https://www.free-decompiler.com/flash" xmlns:xlink="http://www.w3.org/1999/xlink" ffdec:objectType="shape" height="36.6px" width="116.1px" xmlns="http://www.w3.org/2000/svg">
  <g transform="matrix(1.0, 0.0, 0.0, 1.0, 75.7, 26.05)">
    <path d="M37.5 -5.35 Q40.2 -5.3 40.4 -2.7 40.6 -0.3 38.15 0.4 L34.95 1.0 32.7 1.1 11.3 1.5 Q11.7 2.7 11.4 4.4 11.15 5.7 11.15 7.0 11.15 10.85 7.5 10.55 6.25 10.45 5.9 9.2 5.4 7.15 5.65 5.05 L5.9 1.65 4.7 1.65 2.4 1.75 2.35 4.1 2.25 4.95 1.9 6.5 1.8 6.7 Q0.65 10.1 -2.5 8.2 -3.2 7.8 -3.3 6.95 -3.55 5.15 -3.2 3.4 L-3.15 3.2 Q-2.85 1.3 -2.85 -0.6 L-17.25 -1.05 Q-18.35 0.55 -20.8 -0.9 L-21.1 -1.1 -25.4 -1.1 -26.6 -1.1 Q-27.7 -0.45 -29.5 -1.1 L-30.3 -1.1 Q-32.25 -1.05 -33.75 -1.95 -41.1 -2.9 -48.4 -4.5 L-54.2 -5.55 Q-60.35 -6.4 -66.6 -5.7 L-67.0 -5.0 Q-70.7 -1.5 -74.95 -4.45 -75.85 -5.1 -75.7 -6.25 -75.25 -9.75 -71.45 -10.95 L-70.45 -11.15 -54.95 -10.85 -45.8 -9.7 -41.8 -8.85 Q-42.55 -10.85 -42.55 -13.1 -42.55 -15.4 -41.8 -17.35 L-46.6 -19.15 Q-51.6 -16.2 -55.9 -19.8 -56.85 -20.65 -56.9 -22.0 -56.95 -25.7 -53.2 -26.05 -47.6 -26.2 -42.55 -23.7 -40.7 -22.8 -38.8 -22.05 L-38.55 -21.95 Q-35.3 -24.9 -30.75 -24.9 -26.4 -24.9 -23.2 -22.15 L-22.4 -21.45 Q-18.95 -18.0 -18.95 -13.1 -18.95 -10.9 -19.65 -8.95 L-20.15 -7.8 -18.95 -6.4 -10.25 -6.35 5.0 -6.05 37.5 -5.35" fill="#000000" fill-rule="evenodd" stroke="none"/>
  </g>
</svg>
