<?xml version="1.0" encoding="UTF-8" standalone="no"?>
<svg xmlns:ffdec="https://www.free-decompiler.com/flash" xmlns:xlink="http://www.w3.org/1999/xlink" ffdec:objectType="shape" height="34.0px" width="118.35px" xmlns="http://www.w3.org/2000/svg">
  <g transform="matrix(1.0, 0.0, 0.0, 1.0, 76.65, 23.3)">
    <path d="M28.4 -6.55 L38.4 -6.1 Q39.85 -6.05 40.75 -4.9 43.05 -1.95 39.85 0.1 L37.4 1.05 Q29.45 2.75 21.2 2.8 L12.1 3.6 12.0 3.8 Q11.25 6.1 10.95 8.55 10.65 10.7 8.5 10.7 6.2 10.65 6.0 8.45 5.8 6.6 6.0 4.85 6.15 3.45 6.6 2.2 L1.85 2.5 Q2.3 5.85 0.9 8.6 0.5 9.4 -0.4 9.35 -3.9 9.3 -3.75 5.7 L-3.45 0.3 -3.15 -1.05 -4.3 -0.9 -7.75 -0.5 -26.75 0.15 -28.2 0.3 -30.3 0.15 -46.5 -2.0 -53.15 -3.0 -67.5 -4.1 Q-69.45 -1.05 -73.45 -1.6 -76.3 -2.0 -76.6 -4.6 -77.05 -8.05 -73.45 -8.95 L-69.95 -9.6 -54.55 -8.75 -41.65 -6.85 Q-42.55 -9.0 -42.55 -11.5 L-42.5 -12.5 Q-45.3 -13.4 -48.25 -13.9 L-48.8 -13.95 Q-51.65 -10.5 -55.8 -12.8 -57.45 -13.7 -57.35 -15.65 -57.2 -19.3 -53.45 -19.95 -48.65 -19.9 -44.1 -18.35 L-40.95 -17.45 Q-40.2 -18.75 -39.1 -19.85 -35.65 -23.3 -30.75 -23.3 -26.4 -23.3 -23.2 -20.55 L-22.4 -19.85 Q-18.95 -16.4 -18.95 -11.5 -18.95 -9.3 -19.65 -7.35 L-20.3 -5.95 -20.8 -5.05 -17.8 -5.25 -8.45 -5.95 -5.5 -6.25 -2.95 -6.65 27.4 -6.6 28.4 -6.55" fill="#000000" fill-rule="evenodd" stroke="none"/>
  </g>
</svg>
