<?xml version="1.0" encoding="UTF-8" standalone="no"?>
<svg xmlns:ffdec="https://www.free-decompiler.com/flash" xmlns:xlink="http://www.w3.org/1999/xlink" ffdec:objectType="shape" height="107.7px" width="122.9px" xmlns="http://www.w3.org/2000/svg">
  <g transform="matrix(1.0, 0.0, 0.0, 1.0, 37.35, 129.2)">
    <path d="M83.25 -100.5 L83.15 -99.25 Q82.1 -94.55 76.85 -95.0 L76.05 -95.05 Q58.7 -94.8 41.6 -96.95 L37.1 -97.95 Q34.85 -98.7 32.85 -99.95 L32.25 -100.45 Q30.6 -101.0 29.8 -102.55 25.9 -96.85 22.9 -90.6 19.85 -84.3 15.75 -78.6 L14.9 -77.1 11.4 -71.45 Q14.0 -70.35 16.2 -68.45 17.5 -67.3 19.05 -66.45 26.85 -62.15 35.0 -58.75 L35.9 -58.1 35.9 -57.15 36.35 -57.15 36.4 -56.9 Q36.7 -54.55 35.6 -52.25 31.65 -44.25 25.15 -38.05 L16.7 -30.35 Q20.95 -28.55 25.65 -27.3 29.7 -26.2 27.7 -22.65 27.05 -21.4 25.6 -21.5 22.35 -21.75 19.25 -22.75 13.7 -24.5 8.7 -27.35 7.65 -27.95 7.75 -29.15 7.9 -32.25 10.95 -33.9 L12.1 -34.65 Q17.85 -39.25 22.75 -44.5 26.85 -49.0 29.6 -54.4 21.95 -58.1 14.4 -62.0 12.15 -63.2 10.15 -64.65 L9.4 -59.0 Q8.75 -54.2 6.8 -49.95 5.45 -44.85 1.95 -41.05 1.6 -40.7 1.05 -40.7 L-26.05 -40.7 -26.5 -40.45 Q-29.8 -36.8 -33.4 -33.5 -33.9 -33.1 -34.5 -33.2 -38.2 -33.7 -37.1 -37.1 -36.55 -39.0 -35.2 -40.45 -32.3 -43.55 -29.0 -46.2 -28.05 -47.0 -26.75 -46.95 L-1.5 -46.7 Q3.0 -54.25 3.8 -62.95 L4.45 -71.25 Q4.45 -71.75 4.9 -72.15 L5.0 -72.2 Q5.35 -73.85 6.25 -75.3 L11.15 -82.85 11.75 -83.55 Q15.85 -90.3 19.35 -97.25 22.95 -104.45 27.65 -110.85 25.7 -113.7 25.7 -117.4 25.7 -122.3 29.15 -125.75 32.6 -129.2 37.5 -129.2 42.4 -129.2 45.85 -125.75 49.3 -122.3 49.3 -117.4 49.3 -112.7 46.15 -109.35 L51.4 -110.0 Q59.1 -109.7 66.75 -109.85 L76.5 -109.85 Q83.1 -109.65 85.4 -104.0 85.8 -103.05 85.2 -102.2 84.35 -100.9 83.25 -100.5 M44.5 -102.6 L48.25 -102.1 64.6 -101.35 Q69.6 -101.1 74.65 -101.1 75.55 -102.9 76.85 -103.6 L76.65 -103.65 75.55 -103.75 Q61.45 -104.1 47.5 -103.15 L44.0 -102.7 44.5 -102.6" fill="#000000" fill-rule="evenodd" stroke="none"/>
  </g>
</svg>
