<?xml version="1.0" encoding="UTF-8" standalone="no"?>
<svg xmlns:ffdec="https://www.free-decompiler.com/flash" xmlns:xlink="http://www.w3.org/1999/xlink" ffdec:objectType="shape" height="104.9px" width="152.2px" xmlns="http://www.w3.org/2000/svg">
  <g transform="matrix(1.0, 0.0, 0.0, 1.0, 41.5, 150.8)">
    <path d="M96.95 -123.95 L97.3 -123.95 98.0 -123.15 98.05 -122.35 Q98.45 -119.6 99.15 -116.8 100.25 -115.95 101.65 -116.4 L104.55 -117.5 Q107.75 -118.9 110.35 -118.75 109.1 -116.0 108.45 -112.95 107.7 -109.65 107.55 -106.3 107.95 -105.3 108.95 -104.95 L110.6 -103.45 110.7 -103.2 110.7 -102.15 Q109.75 -100.5 108.2 -99.3 L97.65 -91.0 97.65 -90.75 97.65 -90.5 97.45 -90.25 97.3 -89.95 97.3 -89.7 97.2 -88.9 96.95 -88.65 96.95 -88.1 Q96.9 -86.85 97.4 -85.75 L98.0 -84.95 Q96.95 -83.6 95.3 -83.05 86.85 -80.15 78.1 -78.4 75.25 -77.85 72.95 -76.8 L72.95 -76.3 72.95 -74.95 73.45 -74.25 Q74.9 -71.35 75.75 -68.05 75.1 -67.7 74.95 -67.0 L69.75 -64.55 69.7 -64.0 Q69.45 -62.0 70.8 -60.55 70.75 -59.15 71.85 -58.2 L71.85 -57.65 72.05 -54.75 54.35 -53.45 Q52.85 -53.25 51.4 -52.25 L51.35 -52.0 51.3 -51.45 50.35 -50.4 50.2 -49.95 Q49.15 -48.05 49.25 -45.9 45.6 -47.1 42.15 -48.95 L34.85 -52.5 Q28.9 -55.05 23.65 -51.4 L23.15 -51.8 Q20.75 -56.05 18.75 -60.35 18.2 -61.55 17.1 -60.95 10.9 -57.7 5.55 -53.15 L5.0 -54.8 Q4.65 -55.85 4.55 -56.95 L4.05 -63.05 Q3.8 -63.6 3.25 -63.45 -6.95 -60.8 -16.2 -55.65 -18.75 -54.25 -20.65 -53.4 L-20.7 -55.8 Q-20.7 -57.3 -20.3 -58.7 -19.35 -61.7 -19.25 -64.8 -19.5 -65.35 -20.15 -65.5 L-21.95 -65.55 Q-32.0 -63.8 -41.5 -60.1 L-38.0 -66.1 -33.45 -72.25 Q-29.0 -77.7 -25.6 -83.6 L-25.0 -84.4 -24.95 -84.65 -24.9 -86.0 Q-25.15 -86.55 -25.8 -86.6 L-30.7 -86.7 -31.05 -86.8 -30.9 -87.05 -30.8 -87.3 -28.2 -89.95 -21.1 -97.1 -21.05 -97.4 -21.1 -99.25 Q-24.2 -102.25 -27.9 -104.35 -26.4 -105.0 -24.7 -104.9 -16.1 -104.45 -7.85 -106.4 L-7.55 -106.9 Q-6.05 -109.35 -7.95 -111.7 2.15 -107.45 11.85 -101.55 14.55 -99.95 17.2 -100.05 18.15 -103.05 18.0 -106.4 L17.85 -113.0 Q20.8 -113.65 23.95 -113.1 26.2 -111.35 28.6 -112.1 L28.7 -112.4 28.8 -113.2 27.7 -114.75 Q27.65 -116.0 26.65 -116.9 L26.45 -118.1 23.85 -124.3 Q27.0 -124.25 30.1 -123.35 L34.6 -122.15 Q38.85 -121.15 41.65 -118.5 L42.0 -118.6 42.4 -118.85 42.45 -119.35 Q42.4 -121.5 41.15 -123.35 40.75 -126.1 38.85 -128.35 36.35 -131.3 36.3 -135.0 40.1 -135.2 43.7 -136.4 L43.85 -136.7 43.95 -138.25 43.05 -140.1 Q41.85 -143.0 41.85 -146.2 44.05 -146.4 46.0 -145.55 49.5 -143.95 53.25 -145.25 L53.4 -145.5 56.35 -150.8 Q58.35 -150.5 60.25 -149.25 L76.95 -137.85 78.3 -137.75 82.1 -139.25 Q84.25 -135.15 84.45 -130.5 L84.6 -122.3 84.75 -122.0 84.95 -121.75 84.9 -121.5 85.0 -120.7 85.8 -120.25 Q91.7 -121.25 96.95 -123.95" fill="#fafa7a" fill-rule="evenodd" stroke="none"/>
  </g>
</svg>
