<?xml version="1.0" encoding="UTF-8" standalone="no"?>
<svg xmlns:ffdec="https://www.free-decompiler.com/flash" xmlns:xlink="http://www.w3.org/1999/xlink" ffdec:objectType="shape" height="74.0px" width="94.2px" xmlns="http://www.w3.org/2000/svg">
  <g transform="matrix(1.0, 0.0, 0.0, 1.0, 6.15, 131.95)">
    <path d="M87.9 -101.75 Q87.2 -99.45 84.75 -99.35 L78.75 -99.35 Q77.85 -97.9 75.65 -97.4 69.7 -96.1 63.9 -94.2 59.5 -92.75 58.15 -96.85 L57.5 -99.0 55.9 -104.5 Q50.55 -101.3 44.95 -98.45 L44.7 -97.55 55.4 -83.9 Q58.35 -80.15 55.05 -76.95 53.2 -75.15 51.0 -73.75 43.5 -68.9 35.1 -65.8 38.95 -64.25 39.5 -60.6 39.55 -60.15 39.25 -59.8 36.75 -56.45 33.2 -59.2 L27.1 -64.35 Q25.55 -65.85 26.85 -67.6 27.7 -68.8 29.1 -69.45 37.55 -73.3 45.75 -77.9 L46.85 -78.5 Q48.45 -79.35 49.85 -80.55 L41.05 -92.3 Q36.6 -86.45 32.75 -80.2 31.6 -78.35 29.3 -78.65 L13.9 -80.8 8.75 -81.55 2.95 -82.25 Q1.5 -80.3 0.7 -78.0 0.6 -77.6 0.3 -77.3 -0.55 -72.55 -4.95 -74.1 -5.75 -74.35 -5.95 -75.25 -6.6 -78.05 -5.15 -80.75 L-3.5 -84.1 Q-1.3 -88.9 3.8 -88.3 L8.15 -87.75 27.2 -85.15 28.65 -85.2 Q33.15 -92.5 38.4 -99.2 L38.5 -99.5 Q38.0 -100.95 39.05 -101.95 41.0 -103.85 43.55 -104.9 47.65 -106.6 51.25 -109.1 L53.85 -110.7 53.7 -111.25 53.1 -111.8 Q49.65 -115.25 49.65 -120.15 49.65 -125.05 53.1 -128.5 56.55 -131.95 61.45 -131.95 66.35 -131.95 69.8 -128.5 73.25 -125.05 73.25 -120.15 73.25 -115.25 69.8 -111.8 L68.7 -110.8 Q73.25 -108.4 77.8 -106.2 79.6 -105.35 81.75 -105.35 85.0 -108.7 87.55 -104.5 88.35 -103.2 87.9 -101.75 M61.6 -107.25 L63.6 -100.5 70.6 -102.45 70.5 -102.5 Q67.85 -104.5 64.8 -105.85 63.1 -106.45 61.6 -107.25" fill="#000000" fill-rule="evenodd" stroke="none"/>
  </g>
</svg>
