<?xml version="1.0" encoding="UTF-8" standalone="no"?>
<svg xmlns:ffdec="https://www.free-decompiler.com/flash" xmlns:xlink="http://www.w3.org/1999/xlink" ffdec:objectType="shape" height="118.6px" width="126.95px" xmlns="http://www.w3.org/2000/svg">
  <g transform="matrix(1.0, 0.0, 0.0, 1.0, 2.45, 152.25)">
    <path d="M99.75 -152.2 Q100.5 -151.3 100.85 -150.2 101.6 -147.5 102.95 -145.15 L103.05 -142.75 103.4 -139.05 103.65 -138.75 104.0 -138.25 104.0 -137.75 104.1 -136.95 104.9 -136.5 Q110.9 -138.35 116.35 -140.8 116.5 -139.2 116.0 -137.65 114.1 -131.9 114.2 -125.7 114.2 -124.85 114.95 -124.4 119.35 -121.75 124.5 -121.75 123.45 -118.45 121.3 -115.75 L119.05 -113.15 Q113.4 -107.2 112.85 -99.25 L114.35 -96.95 Q114.9 -96.15 115.85 -96.0 118.1 -95.7 118.15 -94.2 117.0 -93.6 115.95 -92.8 L108.95 -87.7 Q107.65 -86.7 106.25 -86.0 103.35 -84.5 103.75 -81.5 104.25 -81.0 104.95 -80.95 L108.6 -79.1 Q108.25 -78.4 107.6 -78.0 104.45 -76.0 104.0 -72.5 105.2 -71.2 107.05 -70.85 113.1 -69.6 117.4 -65.85 L117.1 -65.3 116.8 -64.55 116.1 -64.0 115.2 -62.95 Q109.55 -60.0 104.7 -55.7 L104.35 -53.35 Q104.1 -51.1 104.7 -49.1 93.45 -49.35 82.3 -48.75 81.6 -48.75 81.05 -48.35 77.95 -46.05 78.95 -41.65 L74.55 -42.0 Q68.15 -42.75 65.85 -37.35 65.1 -36.9 64.95 -36.0 L64.7 -34.15 64.45 -33.9 64.0 -33.65 Q56.1 -36.9 50.2 -43.2 48.25 -45.3 45.65 -44.2 42.2 -42.75 39.45 -40.5 35.2 -43.8 33.05 -48.7 32.25 -50.55 30.55 -49.35 L18.9 -41.3 18.0 -41.6 Q17.3 -46.25 16.1 -50.85 16.0 -51.35 15.6 -51.45 L10.25 -52.2 11.05 -53.2 Q12.05 -54.1 12.55 -55.35 L13.2 -56.0 14.65 -57.75 14.65 -58.0 14.65 -58.25 Q15.2 -58.65 15.35 -59.35 L15.3 -60.4 Q6.8 -66.7 -2.45 -72.05 L-1.85 -72.0 3.4 -71.4 Q11.55 -70.0 17.75 -74.85 L18.0 -75.7 Q18.55 -76.8 18.2 -77.95 17.2 -81.65 17.9 -85.2 L18.2 -85.45 Q21.8 -86.2 24.95 -84.5 L26.0 -83.85 Q28.6 -82.05 31.35 -82.35 L33.3 -86.5 Q35.55 -91.85 37.15 -97.45 L37.8 -97.55 Q44.15 -93.45 50.35 -88.9 L50.55 -88.4 Q51.25 -86.8 52.9 -87.65 53.55 -91.0 53.3 -94.55 52.85 -101.35 53.15 -108.05 L58.1 -107.1 58.2 -106.95 59.0 -106.45 59.3 -106.6 59.6 -106.75 Q60.1 -108.2 59.2 -109.7 56.6 -113.8 54.55 -118.15 L54.5 -118.65 54.3 -119.45 54.45 -119.75 54.55 -120.25 Q55.8 -121.2 57.3 -121.55 61.65 -122.55 65.7 -124.15 L65.8 -124.4 65.85 -124.65 65.85 -125.2 Q62.0 -127.1 57.55 -127.95 54.75 -128.5 53.25 -129.0 59.35 -131.15 64.35 -134.9 64.5 -135.4 64.3 -135.9 63.35 -137.8 62.0 -139.4 L62.15 -139.7 62.35 -140.2 Q65.6 -140.8 68.8 -140.15 L74.8 -139.6 Q75.25 -141.5 75.25 -143.55 75.3 -147.45 74.7 -151.25 77.0 -150.95 79.4 -149.9 83.75 -148.15 86.6 -144.8 L86.7 -144.5 86.8 -144.0 Q87.8 -143.2 89.05 -143.8 89.95 -144.25 90.7 -144.95 L98.7 -152.2 98.9 -152.25 99.75 -152.2" fill="#fafa7a" fill-rule="evenodd" stroke="none"/>
  </g>
</svg>
