<?xml version="1.0" encoding="UTF-8" standalone="no"?>
<svg xmlns:ffdec="https://www.free-decompiler.com/flash" xmlns:xlink="http://www.w3.org/1999/xlink" ffdec:objectType="shape" height="128.65px" width="128.65px" xmlns="http://www.w3.org/2000/svg">
  <g transform="matrix(1.0, 0.0, 0.0, 1.0, -38.85, 160.35)">
    <path d="M126.95 -156.9 L126.95 -156.6 127.05 -145.75 127.85 -145.4 Q135.95 -143.05 144.35 -142.3 143.9 -141.8 143.8 -141.1 L143.2 -140.55 143.2 -140.3 143.1 -139.5 140.35 -135.5 137.7 -131.45 Q133.2 -124.8 132.95 -117.0 134.05 -115.6 135.95 -115.6 L147.95 -115.4 Q145.95 -111.35 142.85 -107.95 137.65 -102.2 137.2 -94.75 143.7 -90.2 151.7 -88.35 151.95 -87.8 152.65 -87.65 153.3 -86.75 153.1 -85.55 151.95 -84.45 151.95 -82.9 149.4 -80.1 149.3 -76.55 158.15 -73.5 166.75 -70.0 167.6 -69.55 167.5 -69.05 162.1 -64.55 156.25 -60.55 L156.25 -60.3 156.25 -57.9 157.35 -56.05 157.35 -55.8 157.35 -55.55 157.75 -55.0 Q154.9 -54.2 151.85 -54.0 145.55 -53.6 139.85 -51.4 L139.5 -50.6 138.95 -50.05 138.95 -49.8 138.95 -49.55 Q135.6 -44.3 132.4 -38.9 132.05 -38.35 131.45 -38.55 121.55 -42.0 114.45 -49.65 L113.35 -50.35 Q109.25 -51.7 107.25 -47.5 L106.2 -46.7 106.05 -45.9 Q100.05 -37.55 91.65 -31.7 86.2 -35.55 81.5 -40.25 L81.4 -40.8 Q79.75 -42.2 77.7 -40.8 L77.35 -40.0 Q70.55 -36.4 63.4 -35.4 L63.4 -35.95 Q63.95 -44.0 64.1 -52.1 62.75 -53.15 61.05 -53.7 L56.5 -54.6 Q52.7 -54.95 49.8 -55.95 53.1 -61.05 57.65 -65.05 L67.9 -74.25 Q68.05 -74.75 67.8 -75.2 66.45 -77.7 63.2 -78.3 L62.7 -78.75 Q69.3 -82.35 76.5 -84.7 81.35 -86.3 81.75 -90.95 L81.3 -91.2 Q78.45 -91.25 75.55 -90.05 L68.35 -87.25 Q65.1 -86.05 62.25 -86.1 L59.5 -94.8 Q59.25 -95.4 58.65 -95.3 53.0 -94.7 47.85 -92.15 49.9 -98.4 52.9 -104.25 54.6 -105.95 55.25 -108.25 L55.9 -108.75 55.95 -109.05 56.0 -111.4 Q50.65 -114.15 44.7 -116.1 L38.85 -118.15 Q39.35 -118.75 40.1 -119.05 L49.5 -123.1 51.05 -123.55 Q56.5 -124.3 61.1 -127.3 L61.65 -128.35 61.65 -128.65 61.65 -131.55 60.1 -134.2 78.4 -134.5 79.0 -134.65 Q79.85 -135.95 79.4 -137.5 78.05 -141.9 77.45 -146.55 83.8 -145.65 89.95 -143.35 92.6 -142.4 95.0 -142.85 L95.05 -143.1 Q96.05 -151.75 97.65 -160.35 103.05 -158.65 106.4 -154.25 L105.75 -153.2 105.75 -152.9 105.85 -152.1 106.65 -151.9 Q112.55 -152.3 118.15 -154.3 119.55 -155.35 121.3 -155.85 124.45 -156.75 126.95 -156.9" fill="#fafa7a" fill-rule="evenodd" stroke="none"/>
  </g>
</svg>
