<?xml version="1.0" encoding="UTF-8" standalone="no"?>
<svg xmlns:ffdec="https://www.free-decompiler.com/flash" xmlns:xlink="http://www.w3.org/1999/xlink" ffdec:objectType="shape" height="89.75px" width="65.7px" xmlns="http://www.w3.org/2000/svg">
  <g transform="matrix(1.0, 0.0, 0.0, 1.0, -71.7, 142.7)">
    <path d="M103.15 -130.9 Q103.15 -135.8 106.6 -139.25 110.05 -142.7 114.95 -142.7 119.85 -142.7 123.3 -139.25 126.75 -135.8 126.75 -130.9 126.75 -126.0 123.3 -122.55 L122.05 -121.45 122.2 -120.5 122.6 -118.25 Q124.8 -109.55 123.2 -100.65 122.1 -94.45 119.55 -88.6 L117.9 -85.35 117.55 -84.1 115.4 -79.05 114.55 -77.2 112.55 -69.5 Q112.35 -68.7 111.8 -68.0 L111.8 -67.5 111.8 -67.3 111.8 -67.15 128.45 -72.45 Q131.35 -73.4 134.25 -73.2 135.4 -73.15 135.85 -72.1 137.6 -68.25 137.35 -63.85 137.2 -62.0 136.6 -60.3 135.75 -57.9 133.3 -58.65 130.8 -59.35 130.95 -61.95 L131.05 -66.6 108.3 -59.8 Q105.9 -59.1 104.8 -61.25 103.9 -63.05 104.55 -65.0 L106.8 -72.15 107.95 -76.0 99.8 -69.65 95.9 -66.25 Q92.5 -63.15 89.85 -59.5 87.35 -56.05 84.25 -53.3 83.85 -52.95 83.25 -52.95 80.85 -53.0 78.5 -53.7 L74.15 -54.75 Q71.05 -55.3 71.85 -58.25 72.4 -60.25 74.55 -60.55 78.45 -61.1 81.85 -59.65 86.8 -66.2 93.0 -71.6 L96.7 -74.9 103.75 -80.8 Q106.2 -82.75 108.9 -84.55 L109.65 -85.05 110.55 -86.5 Q115.2 -91.6 116.7 -98.3 117.7 -102.65 117.75 -107.1 117.8 -112.65 116.4 -117.85 L115.6 -117.2 Q107.95 -112.65 99.85 -108.9 91.9 -105.2 83.75 -101.8 78.65 -99.65 75.35 -103.3 74.8 -103.9 74.8 -104.7 74.9 -108.8 78.95 -108.35 80.05 -108.25 80.65 -107.35 90.9 -111.2 100.75 -116.2 L108.25 -120.25 Q101.45 -118.15 94.5 -116.35 86.0 -114.2 78.2 -110.25 L75.6 -109.15 Q73.55 -108.4 72.55 -110.35 70.95 -113.35 74.1 -115.15 77.7 -117.2 81.6 -118.6 89.85 -121.65 98.4 -123.75 L104.45 -125.4 Q103.15 -127.9 103.15 -130.9" fill="#000000" fill-rule="evenodd" stroke="none"/>
  </g>
</svg>
