<?xml version="1.0" encoding="UTF-8" standalone="no"?>
<svg xmlns:ffdec="https://www.free-decompiler.com/flash" xmlns:xlink="http://www.w3.org/1999/xlink" ffdec:objectType="shape" height="145.15px" width="128.55px" xmlns="http://www.w3.org/2000/svg">
  <g transform="matrix(1.0, 0.0, 0.0, 1.0, -54.45, 181.5)">
    <path d="M123.6 -173.85 L123.8 -173.55 124.1 -173.3 Q132.45 -173.9 140.4 -175.85 L140.4 -168.55 140.1 -166.5 Q138.65 -160.8 138.6 -154.75 142.15 -152.1 146.65 -151.15 148.05 -150.0 149.8 -149.75 147.05 -144.9 142.95 -140.7 141.05 -139.35 140.0 -137.3 L140.1 -136.2 Q145.9 -133.65 151.5 -131.25 L151.05 -130.75 Q144.25 -122.75 137.9 -114.6 L138.0 -113.25 138.8 -112.8 149.05 -113.8 149.4 -113.55 Q149.75 -112.35 150.7 -111.4 152.95 -106.15 153.55 -100.55 L154.35 -100.1 Q154.85 -100.2 155.2 -100.65 L172.85 -103.9 172.65 -94.75 Q172.5 -91.15 172.95 -87.85 173.45 -87.35 174.2 -87.3 179.65 -84.7 183.0 -79.65 L182.75 -79.1 178.5 -78.4 175.85 -78.15 Q173.15 -78.05 171.45 -76.45 L171.55 -75.1 174.2 -72.5 Q175.75 -70.95 176.2 -69.65 170.5 -62.4 162.55 -57.2 L161.65 -57.45 Q158.25 -60.3 155.55 -63.95 154.95 -64.8 154.5 -65.75 153.2 -68.8 150.95 -67.25 151.0 -65.75 149.9 -64.6 L148.4 -58.1 Q143.4 -61.3 138.85 -65.0 137.45 -66.15 136.7 -64.7 134.35 -59.9 132.6 -54.75 L128.85 -55.35 Q127.7 -55.55 126.65 -56.15 122.8 -58.3 118.85 -56.85 L118.85 -56.3 118.85 -45.7 112.45 -46.95 Q111.75 -47.15 111.2 -47.45 106.0 -50.1 100.65 -49.6 L100.4 -48.0 99.75 -47.25 Q98.45 -41.2 94.45 -36.35 L91.3 -36.35 Q87.95 -40.85 86.35 -46.1 L85.85 -46.95 Q85.6 -47.65 84.8 -47.55 L70.8 -45.35 Q72.1 -49.2 74.35 -52.45 74.55 -54.1 76.0 -55.1 L76.45 -56.15 Q77.2 -56.3 77.45 -56.95 L78.2 -59.3 Q76.4 -63.45 71.95 -64.9 L77.4 -69.45 Q80.7 -72.05 84.4 -73.95 88.05 -75.8 87.75 -79.65 86.4 -81.25 84.3 -81.15 L84.65 -81.65 86.55 -83.8 Q92.75 -89.3 92.7 -97.3 91.75 -98.6 90.6 -97.45 85.85 -90.75 80.1 -84.55 79.9 -85.75 80.0 -87.05 80.55 -93.9 80.7 -100.8 75.55 -103.25 69.8 -104.9 66.65 -105.75 63.55 -106.9 58.0 -108.9 54.45 -112.75 56.85 -114.85 60.4 -115.15 L72.75 -116.0 72.95 -117.05 72.55 -117.6 72.55 -117.85 72.55 -118.1 72.2 -118.65 Q72.4 -120.25 71.55 -121.55 65.55 -130.5 57.3 -137.7 63.5 -137.35 69.6 -136.1 75.25 -135.0 80.8 -135.0 81.2 -135.95 80.9 -137.05 L77.15 -149.3 Q86.65 -147.9 95.95 -145.85 96.35 -145.1 97.1 -144.95 L97.75 -145.2 Q98.25 -145.95 97.8 -146.8 98.65 -148.15 98.25 -149.75 L97.3 -150.8 97.3 -151.05 97.3 -151.3 Q95.2 -153.85 92.9 -155.9 93.2 -156.7 92.95 -157.5 91.25 -159.3 89.95 -161.4 87.1 -166.15 87.75 -171.25 L98.55 -170.3 101.75 -169.65 109.1 -169.3 109.65 -170.4 109.7 -170.65 Q111.0 -175.95 111.4 -181.5 117.65 -178.25 123.6 -173.85" fill="#fafa7a" fill-rule="evenodd" stroke="none"/>
  </g>
</svg>
