<?xml version="1.0" encoding="UTF-8" standalone="no"?>
<svg xmlns:ffdec="https://www.free-decompiler.com/flash" xmlns:xlink="http://www.w3.org/1999/xlink" ffdec:objectType="shape" height="105.2px" width="77.85px" xmlns="http://www.w3.org/2000/svg">
  <g transform="matrix(1.0, 0.0, 0.0, 1.0, -84.8, 160.75)">
    <path d="M131.65 -148.95 Q131.65 -144.05 128.2 -140.6 L126.1 -138.9 126.55 -137.2 Q126.6 -136.6 126.9 -136.0 128.1 -133.75 128.35 -131.3 130.6 -123.55 131.55 -115.5 132.15 -110.15 132.2 -104.7 132.2 -101.4 131.45 -98.3 132.0 -97.5 131.75 -96.35 132.1 -95.25 131.85 -93.65 130.55 -85.05 128.25 -76.8 134.7 -79.3 140.9 -83.4 L146.25 -87.5 Q149.0 -89.9 152.45 -90.85 153.35 -91.1 154.15 -90.6 157.95 -88.2 160.95 -84.8 162.75 -82.85 162.65 -80.4 162.55 -78.55 160.7 -78.2 157.45 -77.55 155.8 -80.5 L154.05 -82.8 153.0 -83.75 152.45 -84.15 Q140.7 -75.15 127.35 -69.0 126.0 -68.4 124.55 -68.15 121.4 -67.7 121.1 -70.7 120.9 -72.3 121.2 -73.85 121.95 -77.7 122.95 -81.55 124.25 -86.35 125.0 -91.25 119.15 -88.75 113.15 -86.65 110.45 -85.7 107.7 -85.2 108.4 -79.6 108.55 -73.9 108.65 -71.0 109.7 -68.3 110.8 -65.6 110.75 -62.65 110.7 -59.15 107.0 -58.45 103.05 -57.75 99.4 -56.15 95.3 -54.35 93.75 -58.0 93.3 -59.1 94.05 -60.1 95.5 -61.9 98.0 -62.05 L98.7 -62.25 Q101.4 -63.5 104.3 -64.3 102.3 -69.7 102.55 -75.6 102.6 -77.75 102.15 -79.9 101.4 -83.35 101.6 -86.85 101.65 -88.15 102.65 -89.0 105.05 -91.15 108.25 -91.65 L109.05 -91.85 Q117.7 -94.9 125.9 -98.4 125.75 -101.2 125.9 -103.95 126.4 -111.9 124.9 -119.5 123.55 -126.1 121.55 -132.5 L120.75 -134.35 120.25 -135.45 119.0 -133.6 Q113.9 -126.35 108.0 -119.65 L104.2 -115.0 Q101.1 -110.95 96.85 -108.05 95.25 -106.95 93.35 -107.7 90.25 -108.9 91.1 -112.3 91.8 -114.9 94.5 -115.8 L96.85 -116.2 108.8 -130.5 112.45 -135.05 Q107.45 -132.5 102.95 -129.1 L93.05 -121.6 Q92.05 -117.45 88.05 -117.15 86.4 -117.05 85.55 -118.45 83.55 -121.85 86.75 -124.5 93.4 -130.0 100.45 -134.9 L104.05 -137.35 Q107.35 -139.6 110.85 -141.3 108.05 -144.55 108.05 -148.95 108.05 -153.85 111.5 -157.3 114.95 -160.75 119.85 -160.75 124.75 -160.75 128.2 -157.3 131.65 -153.85 131.65 -148.95" fill="#000000" fill-rule="evenodd" stroke="none"/>
  </g>
</svg>
