<?xml version="1.0" encoding="UTF-8" standalone="no"?>
<svg xmlns:ffdec="https://www.free-decompiler.com/flash" xmlns:xlink="http://www.w3.org/1999/xlink" ffdec:objectType="shape" height="103.15px" width="94.9px" xmlns="http://www.w3.org/2000/svg">
  <g transform="matrix(1.0, 0.0, 0.0, 1.0, -83.8, 186.5)">
    <path d="M135.35 -174.7 Q135.35 -169.8 131.9 -166.35 L130.45 -165.05 Q132.15 -163.75 133.1 -161.45 136.6 -153.3 140.3 -145.25 143.0 -139.3 144.15 -133.0 145.25 -132.4 145.65 -130.6 147.15 -123.95 149.3 -117.35 L149.35 -117.15 Q150.55 -117.85 151.45 -119.1 L152.0 -119.6 Q157.55 -125.95 161.8 -133.25 L165.1 -138.4 Q165.65 -139.25 166.65 -139.35 L167.1 -139.45 Q170.4 -138.5 172.15 -135.15 L173.3 -133.55 175.9 -130.5 Q177.55 -128.5 178.5 -126.2 179.0 -125.1 178.25 -124.15 176.25 -121.6 173.65 -123.55 L172.45 -124.75 167.85 -130.6 Q163.3 -123.5 157.95 -117.15 154.0 -112.45 149.15 -108.85 148.5 -108.4 147.75 -108.65 144.4 -109.9 143.9 -113.7 L143.3 -116.25 Q142.1 -119.7 141.3 -123.2 139.1 -119.8 138.15 -115.9 137.3 -112.55 135.6 -109.5 L135.0 -108.25 Q143.95 -101.65 154.55 -98.3 157.6 -97.3 157.55 -94.35 157.5 -90.7 156.25 -87.3 155.4 -84.95 153.3 -83.75 151.9 -82.9 150.55 -83.95 148.3 -85.75 149.8 -88.2 151.05 -90.2 151.2 -92.55 146.1 -95.15 140.85 -97.25 L140.4 -97.5 Q134.4 -100.95 129.0 -105.15 128.35 -105.65 128.4 -106.55 128.75 -110.25 130.55 -113.65 131.3 -115.05 131.75 -116.7 132.9 -121.4 135.45 -125.6 L138.6 -130.65 Q138.2 -131.35 138.05 -132.1 L135.85 -140.25 129.4 -154.4 Q128.6 -149.8 126.25 -145.75 L125.45 -145.0 109.7 -136.8 107.5 -135.9 106.6 -134.75 Q103.4 -131.65 100.85 -134.95 100.45 -135.5 100.45 -136.1 99.95 -136.45 99.6 -136.95 97.0 -140.65 100.75 -143.15 101.65 -143.75 102.8 -143.65 104.6 -143.55 105.4 -142.0 112.0 -144.25 117.95 -147.95 119.45 -148.9 121.1 -149.65 L121.8 -150.05 Q123.15 -153.95 123.8 -158.0 117.05 -155.6 109.8 -155.1 100.95 -154.5 92.7 -151.3 L90.45 -150.7 90.3 -150.5 Q87.95 -147.4 84.75 -149.95 83.85 -150.65 83.8 -151.75 83.55 -155.8 87.45 -156.6 L87.95 -156.55 88.9 -156.9 92.6 -158.05 Q100.9 -160.6 109.7 -161.3 114.85 -161.7 119.65 -163.15 L117.25 -164.0 117.3 -164.0 117.3 -164.25 116.7 -164.8 116.15 -165.5 115.2 -166.35 Q111.75 -169.8 111.75 -174.7 111.75 -179.6 115.2 -183.05 118.65 -186.5 123.55 -186.5 128.45 -186.5 131.9 -183.05 135.35 -179.6 135.35 -174.7" fill="#000000" fill-rule="evenodd" stroke="none"/>
  </g>
</svg>
