<?xml version="1.0" encoding="UTF-8" standalone="no"?>
<svg xmlns:ffdec="https://www.free-decompiler.com/flash" xmlns:xlink="http://www.w3.org/1999/xlink" ffdec:objectType="shape" height="44.05px" width="18.2px" xmlns="http://www.w3.org/2000/svg">
  <g transform="matrix(1.0, 0.0, 0.0, 1.0, 3.65, 40.15)">
    <path d="M6.9 -39.95 L7.55 -40.1 8.1 -40.15 Q11.85 -37.8 12.6 -33.15 13.9 -25.5 14.5 -17.75 L14.5 -15.4 Q14.1 -9.15 9.55 -4.7 4.9 -0.2 -0.1 3.7 L-1.05 3.85 Q-4.8 2.65 -3.15 -0.95 -2.55 -2.25 -1.45 -3.2 2.7 -6.9 6.25 -11.25 8.75 -14.35 8.25 -18.4 L6.85 -28.35 6.2 -31.25 Q5.75 -31.4 5.25 -31.7 2.95 -33.15 3.1 -35.9 3.2 -37.3 3.95 -38.2 5.55 -39.8 6.9 -39.95" fill="#000000" fill-rule="evenodd" stroke="none"/>
  </g>
</svg>
