<?xml version="1.0" encoding="UTF-8" standalone="no"?>
<svg xmlns:ffdec="https://www.free-decompiler.com/flash" xmlns:xlink="http://www.w3.org/1999/xlink" ffdec:objectType="shape" height="28.2px" width="24.75px" xmlns="http://www.w3.org/2000/svg">
  <g transform="matrix(1.0, 0.0, 0.0, 1.0, 12.35, 14.1)">
    <path d="M4.5 -4.65 L3.7 -3.45 1.7 -1.3 5.75 2.95 Q6.25 3.5 6.0 4.15 5.35 6.0 3.5 5.25 L2.15 4.35 -0.45 1.7 -0.75 2.1 Q-2.1 4.1 -4.0 5.65 L-4.9 5.8 Q-7.0 5.15 -6.15 3.0 L-5.55 2.1 -3.2 -0.75 -5.4 -2.65 Q-7.15 -4.05 -8.5 -5.7 -8.85 -6.15 -8.65 -6.7 -8.3 -8.0 -6.95 -8.05 -4.7 -7.4 -3.0 -5.6 L-1.15 -3.85 -0.95 -3.7 2.05 -6.9 2.45 -7.1 2.75 -7.15 Q5.35 -7.0 4.5 -4.65 M-10.7 -12.5 Q-8.35 -11.95 -9.3 -9.85 -9.65 -9.1 -10.4 -9.1 -12.45 -9.0 -12.35 -10.95 -12.25 -11.9 -11.4 -12.25 L-10.7 -12.5 M-9.25 10.7 Q-6.95 11.25 -7.9 13.35 -8.2 14.1 -9.0 14.1 -11.05 14.2 -10.9 12.25 -10.85 11.3 -10.0 10.95 L-9.25 10.7 M9.85 9.65 Q12.2 10.2 11.25 12.3 10.9 13.0 10.1 13.05 8.1 13.15 8.2 11.15 8.25 10.25 9.1 9.85 L9.85 9.65 M10.75 -14.1 Q13.1 -13.55 12.1 -11.45 11.8 -10.7 11.0 -10.65 8.95 -10.6 9.1 -12.55 9.15 -13.5 10.0 -13.85 L10.75 -14.1" fill="#000000" fill-rule="evenodd" stroke="none"/>
  </g>
</svg>
