<?xml version="1.0" encoding="UTF-8" standalone="no"?>
<svg xmlns:ffdec="https://www.free-decompiler.com/flash" xmlns:xlink="http://www.w3.org/1999/xlink" ffdec:objectType="shape" height="30.65px" width="37.8px" xmlns="http://www.w3.org/2000/svg">
  <g transform="matrix(1.0, 0.0, 0.0, 1.0, 3.4, 2.6)">
    <path d="M29.1 12.1 Q33.3 18.15 34.35 25.35 34.55 26.45 33.6 27.2 30.7 29.3 29.1 26.15 28.3 24.7 27.8 23.1 26.7 19.75 24.9 16.8 L6.05 23.65 2.35 25.05 -0.25 25.5 Q-3.35 25.3 -3.35 22.3 -3.3 15.75 -3.4 9.2 -3.5 3.75 -3.15 -1.65 L-3.05 -2.5 -0.9 -2.55 3.15 0.1 3.05 0.8 Q2.45 9.25 2.75 17.85 L16.4 13.45 Q19.7 12.3 22.8 10.7 26.8 8.7 29.1 12.1" fill="#000000" fill-rule="evenodd" stroke="none"/>
  </g>
</svg>
