<?xml version="1.0" encoding="UTF-8" standalone="no"?>
<svg xmlns:ffdec="https://www.free-decompiler.com/flash" xmlns:xlink="http://www.w3.org/1999/xlink" ffdec:objectType="shape" height="139.8px" width="144.85px" xmlns="http://www.w3.org/2000/svg">
  <g transform="matrix(1.0, 0.0, 0.0, 1.0, -63.45, 233.25)">
    <path d="M189.35 -187.0 L188.55 -186.75 188.55 -187.4 188.55 -187.5 189.35 -187.0 M175.7 -221.4 Q176.15 -221.1 176.5 -221.15 184.15 -221.85 191.2 -223.75 L191.2 -222.15 Q191.2 -221.15 190.75 -220.4 187.35 -213.9 188.15 -206.45 188.75 -206.15 189.35 -206.1 196.5 -205.55 203.2 -202.95 200.25 -201.0 196.75 -200.05 188.3 -197.9 181.25 -193.8 L181.2 -193.4 Q181.15 -192.6 181.35 -191.8 L185.95 -189.15 186.0 -188.45 185.8 -187.25 Q180.25 -186.95 175.2 -184.25 171.2 -182.1 167.65 -179.7 L167.6 -176.15 Q167.55 -173.0 167.75 -169.85 L168.95 -169.2 169.55 -169.55 170.25 -170.25 170.25 -170.65 170.25 -171.05 170.5 -171.45 170.8 -171.85 170.8 -172.25 Q171.1 -174.65 171.95 -176.95 L172.6 -177.25 173.15 -177.6 173.25 -178.0 173.4 -178.35 Q180.65 -182.75 188.8 -183.35 L190.1 -183.7 Q190.1 -180.15 190.25 -176.65 190.85 -176.35 191.35 -176.4 L207.9 -177.2 Q203.05 -170.45 197.45 -164.25 L197.45 -163.85 197.45 -160.7 Q202.2 -157.55 204.8 -152.6 203.7 -151.85 202.3 -151.3 L200.75 -150.75 Q193.85 -148.6 188.55 -144.2 L188.55 -143.85 188.55 -142.25 Q189.6 -140.7 191.0 -139.5 200.15 -131.5 208.3 -121.85 201.4 -121.45 198.0 -115.85 L198.0 -115.45 Q198.2 -107.0 202.15 -99.35 189.85 -102.55 181.9 -93.5 L181.25 -93.45 181.25 -93.5 181.15 -94.1 Q178.55 -100.95 177.95 -108.25 177.15 -109.55 175.75 -110.1 168.15 -103.35 159.4 -98.35 157.7 -102.35 156.7 -106.5 156.3 -108.1 155.5 -109.55 153.3 -113.65 148.7 -112.2 137.6 -108.8 125.95 -107.85 130.0 -113.65 135.6 -117.7 138.35 -122.05 142.4 -125.15 L142.5 -125.55 142.55 -126.3 Q135.35 -130.25 130.0 -136.0 L135.35 -141.85 Q138.3 -144.65 140.95 -147.75 141.95 -150.05 142.55 -152.45 142.15 -153.3 141.25 -153.5 135.45 -152.35 131.05 -154.15 L131.05 -155.35 131.05 -168.7 Q130.6 -169.5 129.7 -169.7 121.95 -162.2 112.2 -157.95 112.2 -159.85 110.65 -161.1 L110.65 -161.5 110.5 -162.65 109.05 -164.25 109.1 -164.6 108.95 -165.8 Q107.35 -168.15 105.15 -169.2 L102.55 -167.75 Q99.2 -165.65 95.6 -164.15 92.95 -163.1 90.45 -161.75 86.75 -159.75 84.1 -160.2 L84.25 -160.6 Q85.8 -166.95 84.85 -173.1 L83.55 -175.1 Q79.4 -177.5 74.8 -178.7 68.9 -180.2 63.45 -182.3 68.85 -185.65 74.75 -188.15 77.4 -189.25 77.75 -191.9 78.4 -196.7 76.7 -201.05 75.25 -204.85 75.6 -208.95 81.3 -205.55 87.1 -202.95 89.6 -200.9 92.6 -199.55 93.85 -199.85 94.4 -201.1 L94.45 -201.5 94.95 -204.25 Q101.65 -202.85 108.2 -200.9 111.3 -200.0 112.6 -202.0 112.55 -204.4 110.25 -205.55 106.25 -210.6 101.2 -214.95 106.05 -214.8 110.9 -214.95 112.05 -215.0 112.35 -216.15 113.05 -216.3 113.5 -216.8 L113.65 -217.2 118.1 -233.25 Q122.6 -230.35 124.75 -224.9 126.2 -222.8 128.15 -221.5 136.35 -227.25 144.65 -230.0 L144.8 -229.2 Q145.95 -220.55 146.7 -211.95 147.35 -210.85 148.55 -210.5 152.35 -213.5 156.8 -214.85 158.6 -213.4 160.85 -214.45 161.95 -215.55 161.9 -217.05 164.95 -222.2 167.25 -227.65 171.35 -224.35 175.7 -221.4" fill="#fafa7a" fill-rule="evenodd" stroke="none"/>
  </g>
</svg>
