<?xml version="1.0" encoding="UTF-8" standalone="no"?>
<svg xmlns:ffdec="https://www.free-decompiler.com/flash" xmlns:xlink="http://www.w3.org/1999/xlink" ffdec:objectType="shape" height="94.8px" width="95.7px" xmlns="http://www.w3.org/2000/svg">
  <g transform="matrix(1.0, 0.0, 0.0, 1.0, -97.75, 211.05)">
    <path d="M125.9 -207.6 Q129.35 -211.05 134.25 -211.05 139.15 -211.05 142.6 -207.6 146.05 -204.15 146.05 -199.25 146.05 -194.35 142.6 -190.9 L141.85 -190.2 151.7 -189.45 Q160.5 -188.45 169.1 -186.5 172.65 -185.7 174.85 -183.05 L175.65 -181.6 Q176.95 -177.5 172.85 -176.7 169.5 -176.0 167.05 -178.25 166.15 -179.1 166.3 -180.4 164.6 -181.35 162.4 -181.65 L154.75 -182.85 147.45 -183.55 144.45 -183.65 Q148.85 -177.75 151.2 -170.8 L151.95 -168.2 Q153.4 -166.8 153.3 -164.05 153.25 -163.2 153.5 -162.4 155.8 -153.85 157.35 -145.15 L159.05 -136.35 159.1 -136.15 161.3 -131.85 161.4 -131.65 161.5 -131.55 161.85 -131.6 Q169.15 -135.75 175.0 -141.95 177.1 -144.2 179.75 -145.6 181.6 -146.55 183.15 -145.1 186.85 -141.55 189.95 -137.55 190.35 -137.0 190.15 -136.35 188.95 -132.7 185.35 -134.5 183.7 -135.3 182.45 -136.55 L180.8 -138.35 180.4 -138.35 Q173.0 -130.0 163.05 -125.7 L162.2 -125.4 162.7 -122.8 Q174.2 -123.3 184.9 -128.3 189.2 -130.3 191.5 -126.45 193.45 -123.3 193.45 -119.65 193.5 -115.85 189.75 -116.4 188.05 -116.65 187.7 -118.35 L186.95 -122.2 Q176.45 -117.7 164.95 -116.65 L162.6 -116.35 Q157.85 -115.6 157.05 -119.75 L155.65 -125.5 Q154.6 -126.0 153.65 -126.95 152.05 -128.6 151.7 -130.8 150.75 -136.35 150.65 -142.1 150.6 -143.1 151.0 -144.0 L149.8 -150.0 148.95 -154.3 147.1 -163.8 146.2 -163.65 145.7 -167.65 145.1 -169.75 Q142.05 -177.4 136.85 -183.85 L135.85 -183.7 108.9 -182.85 101.2 -183.35 Q99.2 -183.6 98.35 -185.45 96.35 -189.9 100.85 -191.65 L101.3 -191.75 Q104.7 -192.0 106.4 -189.35 L106.5 -189.15 Q116.2 -188.0 126.3 -189.5 L127.15 -189.6 126.85 -190.05 125.9 -190.9 Q122.45 -194.35 122.45 -199.25 122.45 -204.15 125.9 -207.6" fill="#000000" fill-rule="evenodd" stroke="none"/>
  </g>
</svg>
