<?xml version="1.0" encoding="UTF-8" standalone="no"?>
<svg xmlns:ffdec="https://www.free-decompiler.com/flash" xmlns:xlink="http://www.w3.org/1999/xlink" ffdec:objectType="shape" height="158.4px" width="124.6px" xmlns="http://www.w3.org/2000/svg">
  <g transform="matrix(1.0, 0.0, 0.0, 1.0, 91.15, 233.85)">
    <path d="M0.4 -217.55 L0.3 -213.0 Q0.15 -210.45 -0.65 -208.0 -3.0 -200.8 -3.15 -193.4 L-1.9 -192.9 1.7 -193.15 Q8.15 -195.55 14.5 -197.3 L14.5 -191.4 Q14.4 -186.1 14.65 -180.85 L21.3 -180.05 21.3 -179.25 21.3 -174.15 Q23.4 -170.15 26.0 -166.3 L6.65 -164.9 6.15 -164.5 6.15 -163.7 6.15 -159.0 -6.1 -158.25 Q-7.1 -158.2 -6.95 -157.15 -6.65 -156.75 -6.3 -156.65 -1.85 -155.35 -2.2 -150.75 L-1.7 -149.95 -1.7 -148.8 Q-1.8 -146.2 -1.55 -143.7 -1.0 -143.35 -0.4 -143.35 1.45 -143.35 3.25 -144.15 12.3 -148.1 21.45 -149.95 22.75 -147.2 22.95 -144.1 23.3 -138.3 24.05 -132.7 28.55 -131.25 33.35 -130.35 L33.45 -126.2 Q33.55 -124.7 32.75 -123.7 28.55 -118.25 22.9 -114.0 L22.9 -113.6 22.9 -112.05 26.55 -107.75 Q20.0 -109.6 17.65 -103.8 16.35 -99.8 13.6 -96.35 L13.45 -95.55 12.55 -95.05 Q6.0 -99.2 1.05 -105.1 0.5 -106.75 -0.75 -107.9 -1.75 -108.8 -2.75 -108.05 -5.6 -105.95 -7.95 -103.05 -7.9 -102.4 -8.1 -101.85 -10.8 -97.95 -13.95 -101.7 -17.4 -105.8 -21.05 -103.8 L-20.8 -99.9 Q-20.1 -94.85 -17.5 -90.2 -21.85 -91.95 -26.1 -94.3 L-26.95 -94.8 Q-31.8 -98.25 -35.15 -94.65 -35.1 -94.05 -35.3 -93.5 -35.95 -93.0 -36.2 -92.3 -36.55 -89.5 -37.85 -86.8 -40.85 -80.55 -45.65 -75.45 L-46.0 -76.2 Q-48.1 -77.45 -48.25 -79.75 -49.75 -81.05 -49.8 -82.9 -50.15 -83.3 -50.45 -83.3 -64.7 -83.5 -78.6 -86.7 L-78.6 -87.35 -78.6 -90.1 -78.3 -90.45 Q-76.95 -92.4 -76.9 -94.8 L-71.9 -101.45 -71.75 -101.85 Q-71.15 -103.5 -71.25 -105.4 L-71.95 -105.8 -81.7 -107.2 -81.65 -108.25 -80.95 -113.35 Q-77.15 -119.15 -69.95 -120.0 L-69.85 -120.4 Q-69.5 -122.5 -70.6 -124.35 L-71.25 -124.75 Q-71.75 -126.5 -72.75 -128.15 -75.25 -132.45 -75.45 -137.3 -67.05 -138.9 -58.45 -138.85 -58.1 -139.6 -58.2 -140.4 L-58.7 -141.2 -58.7 -141.6 -58.7 -142.0 -63.15 -147.9 -63.35 -148.3 -64.45 -150.6 -64.45 -151.0 -64.45 -151.4 -65.0 -152.2 Q-53.75 -159.1 -40.65 -161.85 -40.3 -162.6 -40.4 -163.45 -43.15 -165.75 -46.15 -167.1 L-46.15 -168.65 -46.15 -176.5 -46.75 -176.85 Q-52.45 -176.05 -58.05 -173.1 L-59.35 -177.1 Q-60.3 -181.05 -63.15 -182.8 -69.4 -179.0 -75.85 -175.85 L-76.5 -176.0 Q-77.3 -178.0 -77.2 -180.3 L-77.0 -190.1 -77.7 -190.55 -91.15 -191.95 -90.65 -192.65 Q-86.95 -199.15 -79.9 -202.15 L-79.7 -202.95 -79.65 -205.3 Q-80.6 -206.9 -82.0 -208.0 L-86.95 -213.9 -75.6 -211.6 Q-73.6 -211.1 -71.95 -211.9 -67.95 -213.8 -67.6 -218.6 -67.2 -219.65 -66.55 -219.15 -60.95 -213.9 -54.8 -208.95 L-54.0 -207.35 -54.0 -207.0 -54.0 -206.2 Q-53.4 -205.05 -52.15 -204.75 -51.25 -204.95 -50.85 -205.8 -50.05 -205.75 -49.55 -206.3 -49.2 -207.1 -49.3 -207.9 L-51.9 -210.0 -51.95 -211.2 Q-52.7 -214.95 -52.45 -219.0 L-51.4 -218.75 Q-50.55 -217.5 -48.9 -217.7 -48.15 -216.7 -46.95 -216.8 -46.05 -217.0 -45.65 -217.85 L-45.9 -222.1 Q-46.5 -226.5 -46.15 -231.15 -44.1 -230.45 -41.85 -230.25 -34.65 -225.6 -26.55 -226.7 -26.05 -228.15 -24.85 -229.1 L-24.75 -229.45 -24.7 -231.45 -23.8 -232.2 -23.7 -232.6 -23.65 -233.8 -23.5 -233.8 Q-19.45 -230.6 -18.3 -225.8 L-17.7 -224.95 Q-16.15 -221.7 -16.2 -217.95 -8.2 -216.9 0.4 -217.55" fill="#fafa7a" fill-rule="evenodd" stroke="none"/>
  </g>
</svg>
