<?xml version="1.0" encoding="UTF-8" standalone="no"?>
<svg xmlns:ffdec="https://www.free-decompiler.com/flash" xmlns:xlink="http://www.w3.org/1999/xlink" ffdec:objectType="shape" height="115.85px" width="85.5px" xmlns="http://www.w3.org/2000/svg">
  <g transform="matrix(1.0, 0.0, 0.0, 1.0, 72.15, 213.55)">
    <path d="M1.45 -166.2 Q0.45 -165.75 -0.55 -166.2 -3.8 -167.55 -3.05 -171.15 L-2.8 -172.1 Q-5.05 -175.4 -8.05 -178.25 L-11.3 -181.25 -21.4 -184.1 -20.7 -178.9 Q-19.8 -169.95 -20.9 -161.1 -21.6 -155.35 -23.75 -150.05 L-24.45 -147.85 Q-22.5 -146.35 -22.95 -143.05 -23.2 -141.35 -22.85 -139.65 -21.9 -135.35 -21.65 -130.9 L-21.05 -126.15 -20.0 -121.45 Q-9.35 -123.95 0.8 -128.05 3.3 -129.05 5.9 -129.65 6.9 -129.85 7.65 -129.2 9.9 -127.2 11.4 -124.5 13.15 -121.3 13.35 -117.8 13.4 -117.1 12.8 -116.6 10.1 -114.2 7.95 -117.2 6.95 -118.6 6.3 -120.15 L5.1 -122.85 Q-6.05 -118.6 -17.65 -115.45 L-21.1 -114.55 Q-25.5 -113.5 -25.95 -117.55 -26.75 -124.65 -27.85 -131.75 L-28.4 -136.2 -28.9 -139.15 -29.25 -141.55 -29.4 -141.5 -29.5 -141.45 Q-36.25 -135.85 -43.65 -131.1 L-44.0 -130.9 -43.65 -118.75 Q-43.55 -111.45 -43.85 -104.3 L-43.75 -101.6 Q-43.45 -98.6 -46.35 -98.0 -49.7 -97.35 -53.05 -98.0 L-58.2 -98.8 Q-60.25 -99.0 -61.85 -100.15 -63.05 -101.0 -62.75 -102.4 -62.05 -106.0 -58.0 -105.2 L-50.15 -103.85 Q-49.6 -109.85 -49.55 -115.95 -49.5 -123.25 -50.2 -130.4 -50.65 -135.05 -46.2 -137.35 -41.3 -139.85 -37.2 -143.45 -34.8 -145.55 -32.2 -146.85 L-31.5 -148.3 Q-29.05 -152.35 -27.95 -156.95 -25.95 -165.45 -26.35 -174.35 -26.6 -180.4 -28.25 -186.15 L-28.95 -186.1 Q-42.45 -185.95 -55.6 -188.45 -61.15 -189.5 -66.4 -191.35 -69.55 -192.45 -71.3 -194.95 -71.95 -195.95 -72.1 -197.1 -72.55 -201.35 -68.7 -202.3 -63.2 -202.5 -63.4 -197.45 L-63.45 -197.25 Q-62.0 -196.05 -59.8 -195.55 L-54.25 -194.4 Q-44.5 -192.7 -34.6 -192.0 L-35.0 -192.55 -35.95 -193.4 Q-39.4 -196.85 -39.4 -201.75 -39.4 -206.65 -35.95 -210.1 -32.5 -213.55 -27.6 -213.55 -22.7 -213.55 -19.25 -210.1 -15.8 -206.65 -15.8 -201.75 -15.8 -196.85 -19.25 -193.4 L-21.45 -191.6 -22.5 -191.05 -22.55 -190.95 -10.7 -187.6 -8.6 -186.75 Q-7.25 -186.1 -6.1 -185.1 -2.35 -181.9 0.75 -178.05 2.65 -175.65 3.8 -172.9 5.8 -168.15 1.45 -166.2" fill="#000000" fill-rule="evenodd" stroke="none"/>
  </g>
</svg>
