<?xml version="1.0" encoding="UTF-8" standalone="no"?>
<svg xmlns:ffdec="https://www.free-decompiler.com/flash" xmlns:xlink="http://www.w3.org/1999/xlink" ffdec:objectType="shape" height="237.0px" width="331.35px" xmlns="http://www.w3.org/2000/svg">
  <g transform="matrix(1.0, 0.0, 0.0, 1.0, 358.45, 258.2)">
    <path d="M-358.45 -207.1 Q-358.05 -211.2 -353.0 -211.2 -276.7 -211.8 -201.3 -198.55 -188.6 -196.35 -175.8 -196.8 L-175.1 -197.65 -174.7 -198.4 Q-174.85 -200.15 -175.35 -201.8 -175.8 -203.3 -175.8 -204.95 -175.3 -206.95 -173.1 -207.0 -160.4 -207.45 -148.35 -205.2 -157.1 -212.0 -167.9 -215.55 -176.4 -217.3 -183.4 -221.8 -192.1 -224.1 -198.6 -230.5 L-199.45 -231.3 Q-199.9 -232.45 -199.6 -233.75 L-199.15 -235.4 Q-186.1 -239.25 -173.2 -233.85 -170.4 -232.7 -167.65 -231.05 L-166.3 -231.05 -170.95 -247.8 Q-172.0 -251.7 -171.45 -256.05 L-171.1 -256.8 -170.35 -257.65 -168.75 -258.05 -168.75 -258.2 -168.65 -258.15 Q-160.95 -253.1 -155.2 -246.2 L-154.6 -245.45 Q-136.25 -223.6 -122.0 -199.25 -120.95 -197.45 -119.0 -196.5 -112.45 -187.25 -102.4 -181.3 L-101.05 -180.45 -99.7 -180.45 Q-99.7 -180.9 -99.85 -181.2 L-100.8 -182.9 Q-100.95 -188.7 -104.2 -193.6 -105.6 -195.75 -105.15 -198.4 L-106.4 -200.8 -107.3 -202.5 -107.3 -203.3 -107.3 -204.1 -107.85 -204.95 -108.4 -205.75 -108.4 -206.55 -108.4 -207.4 -108.4 -208.2 Q-102.0 -212.45 -96.9 -204.8 -91.3 -196.45 -83.95 -189.7 -83.5 -187.7 -82.0 -186.2 L-81.2 -184.8 -78.5 -183.2 Q-73.7 -175.95 -67.65 -169.55 L-65.7 -167.45 -64.9 -166.05 -65.3 -165.35 -66.55 -163.9 Q-68.95 -163.2 -71.45 -163.9 -69.25 -157.8 -64.35 -153.05 L-61.35 -150.85 Q-60.25 -149.4 -60.75 -147.65 L-61.35 -145.95 Q-62.3 -145.55 -63.3 -145.45 L-75.8 -144.6 Q-76.15 -141.95 -75.35 -139.65 -74.8 -137.9 -73.6 -136.45 -72.25 -128.0 -65.9 -121.85 -63.75 -119.8 -63.0 -116.85 -43.8 -94.25 -28.75 -68.1 -27.1 -65.25 -27.1 -62.25 -34.0 -58.75 -39.2 -67.85 -45.25 -78.5 -53.7 -87.55 -58.35 -92.5 -62.6 -97.7 -76.35 -114.45 -92.35 -128.55 L-94.25 -128.3 Q-98.95 -125.15 -101.6 -120.3 L-102.95 -118.5 Q-103.9 -113.65 -105.1 -108.9 -105.75 -106.35 -106.75 -103.85 L-107.35 -103.35 -107.85 -103.05 -108.95 -102.75 -111.4 -104.1 Q-109.9 -112.4 -110.2 -121.2 -110.4 -127.0 -112.2 -132.8 -112.7 -134.45 -113.85 -135.9 -121.35 -134.65 -124.95 -125.9 -130.1 -113.5 -131.95 -100.35 -135.45 -75.35 -142.2 -51.15 -145.0 -41.2 -148.6 -31.8 -148.35 -29.55 -149.15 -27.5 -149.7 -26.1 -149.7 -24.45 -150.65 -22.6 -152.5 -21.6 -152.95 -21.35 -153.5 -21.2 L-155.95 -22.55 Q-153.35 -46.8 -151.5 -71.5 -149.65 -96.4 -148.25 -121.25 -147.55 -133.85 -147.55 -146.5 -152.3 -146.55 -158.4 -144.6 L-189.4 -127.75 -191.85 -129.1 -192.05 -130.75 -192.1 -132.35 Q-181.4 -146.1 -169.4 -158.3 L-167.35 -160.1 -167.15 -160.9 -167.1 -161.7 -165.5 -163.4 -164.95 -164.15 Q-168.95 -166.8 -176.35 -166.65 -216.7 -165.9 -256.15 -172.5 -256.8 -172.6 -257.35 -173.4 -256.3 -178.75 -249.1 -177.6 L-245.9 -177.4 Q-226.6 -178.15 -207.85 -182.1 L-211.4 -184.55 Q-242.6 -195.9 -277.5 -193.5 L-280.75 -193.55 Q-319.4 -197.1 -357.2 -206.15 -357.9 -206.3 -358.45 -207.1" fill="#ffff00" fill-rule="evenodd" stroke="none"/>
  </g>
</svg>
