<?xml version="1.0" encoding="UTF-8" standalone="no"?>
<svg xmlns:ffdec="https://www.free-decompiler.com/flash" xmlns:xlink="http://www.w3.org/1999/xlink" ffdec:objectType="shape" height="85.2px" width="110.2px" xmlns="http://www.w3.org/2000/svg">
  <g transform="matrix(1.0, 0.0, 0.0, 1.0, 92.8, 209.55)">
    <path d="M6.75 -189.4 L4.55 -187.6 3.5 -187.05 Q3.0 -186.0 1.15 -185.55 L-0.35 -185.25 -1.15 -185.4 -1.5 -185.0 -1.55 -185.0 -1.6 -184.8 -1.7 -184.8 -2.05 -184.4 Q1.1 -183.4 3.8 -181.25 9.55 -176.85 14.35 -171.45 15.45 -170.3 15.8 -168.75 16.95 -164.4 17.3 -159.9 17.7 -154.45 16.3 -149.35 16.15 -148.8 15.65 -148.45 12.5 -146.1 8.8 -148.35 7.95 -148.9 7.45 -149.75 5.5 -153.3 9.35 -154.55 L11.15 -154.7 Q11.45 -158.2 10.95 -161.65 10.5 -164.75 9.45 -167.7 4.4 -173.55 -2.35 -177.5 -4.0 -178.4 -5.6 -179.4 L-6.45 -179.45 -10.0 -175.1 -14.15 -169.8 Q-18.1 -164.85 -22.5 -160.25 -27.1 -155.5 -32.85 -152.4 -33.1 -151.6 -33.5 -150.85 -35.6 -146.95 -36.75 -142.6 -37.9 -138.25 -39.3 -134.0 L-25.85 -135.15 Q-19.45 -136.15 -13.05 -135.25 -12.25 -135.15 -11.85 -134.35 -10.2 -130.85 -10.05 -127.0 -10.0 -125.35 -11.45 -124.75 -14.35 -123.45 -15.65 -126.35 L-16.4 -128.25 -16.7 -129.6 -33.8 -127.9 -45.3 -128.3 Q-46.4 -128.5 -46.65 -129.65 -47.3 -132.65 -45.7 -135.4 -44.25 -138.0 -43.55 -140.9 -42.7 -144.7 -41.35 -148.4 L-40.35 -151.3 -40.15 -151.8 Q-45.95 -152.5 -51.3 -155.35 L-54.6 -156.95 Q-56.5 -157.85 -58.55 -157.8 L-61.6 -157.2 Q-68.35 -154.6 -74.8 -151.4 -81.0 -148.3 -87.4 -146.0 L-88.7 -146.05 Q-91.35 -147.3 -91.95 -150.3 -93.15 -155.85 -92.7 -161.65 -92.45 -164.85 -89.45 -165.3 -85.25 -164.0 -86.5 -159.55 L-86.7 -158.05 Q-86.6 -155.65 -86.15 -153.3 -83.15 -154.05 -79.95 -155.8 -70.45 -160.85 -60.1 -163.9 -57.15 -164.75 -54.5 -163.6 -47.7 -160.6 -40.75 -158.15 L-38.8 -157.85 -36.3 -157.45 -36.15 -157.55 Q-28.4 -162.0 -22.8 -169.0 L-19.3 -173.35 Q-20.65 -172.7 -22.0 -172.2 -22.65 -170.45 -25.4 -170.6 L-28.75 -171.25 Q-35.75 -173.55 -41.65 -177.8 -45.65 -180.65 -45.5 -185.6 -45.4 -190.1 -40.95 -191.0 -35.35 -190.65 -35.4 -185.6 L-35.5 -184.8 Q-35.9 -183.35 -37.15 -182.4 -34.95 -180.25 -31.3 -179.1 -28.65 -178.3 -26.2 -177.1 L-25.15 -177.8 Q-18.9 -181.1 -12.8 -184.45 -11.0 -185.45 -9.15 -185.7 L-8.9 -185.7 -8.75 -187.25 -8.25 -187.05 -7.95 -187.4 -8.45 -187.85 -9.0 -188.55 -9.15 -188.65 -9.95 -189.4 Q-13.4 -192.85 -13.4 -197.75 -13.4 -202.65 -9.95 -206.1 -6.5 -209.55 -1.6 -209.55 3.3 -209.55 6.75 -206.1 10.2 -202.65 10.2 -197.75 10.2 -192.85 6.75 -189.4" fill="#000000" fill-rule="evenodd" stroke="none"/>
  </g>
</svg>
