<?xml version="1.0" encoding="UTF-8" standalone="no"?>
<svg xmlns:ffdec="https://www.free-decompiler.com/flash" xmlns:xlink="http://www.w3.org/1999/xlink" ffdec:objectType="shape" height="333.75px" width="419.7px" xmlns="http://www.w3.org/2000/svg">
  <g transform="matrix(1.0, 0.0, 0.0, 1.0, 419.35, 306.05)">
    <path d="M-67.7 -299.15 L-67.1 -298.45 Q-66.2 -292.65 -68.6 -287.9 L-69.25 -287.0 -72.4 -276.4 -72.5 -275.6 Q-81.4 -263.45 -89.9 -251.15 L-89.9 -250.35 -89.9 -249.5 -90.45 -248.7 -91.0 -247.9 -91.0 -247.05 -91.0 -246.25 -92.4 -244.65 -93.15 -243.8 Q-94.8 -233.85 -94.35 -223.4 L-94.25 -220.15 -94.8 -219.35 -95.35 -218.55 -95.35 -217.7 -95.35 -216.9 -95.9 -216.1 -96.45 -215.25 -96.45 -208.75 -96.45 -207.1 Q-94.0 -205.6 -93.15 -203.05 L-94.1 -201.5 -94.8 -200.85 Q-99.65 -199.25 -101.05 -203.6 L-103.75 -205.2 Q-104.25 -208.8 -103.75 -212.5 L-103.25 -214.2 Q-106.4 -226.8 -105.25 -240.3 L-105.15 -243.55 Q-95.45 -257.65 -84.8 -271.7 -78.4 -280.1 -73.75 -289.55 -72.5 -292.05 -72.5 -294.9 L-72.5 -299.0 -71.65 -299.75 -70.9 -300.35 -69.85 -300.45 -69.8 -300.6 -67.7 -299.15 M-169.25 -252.75 Q-169.8 -254.25 -171.05 -255.35 L-171.45 -256.05 Q-171.45 -256.85 -171.1 -257.5 -170.65 -258.35 -169.8 -259.0 L-168.75 -259.15 -168.75 -259.3 Q-161.4 -256.05 -157.8 -248.2 L-157.3 -247.35 -157.3 -246.5 -157.3 -245.7 -156.7 -244.95 -155.7 -244.1 -153.25 -235.85 Q-152.8 -234.25 -153.25 -232.65 L-155.85 -229.3 -156.75 -227.75 Q-158.9 -226.9 -160.3 -225.3 -154.65 -221.5 -146.35 -218.9 -138.4 -216.4 -133.4 -211.75 -133.8 -210.9 -134.35 -210.2 L-135.05 -209.55 Q-154.0 -209.9 -167.9 -222.6 L-168.1 -224.25 -168.2 -225.85 -167.6 -226.6 -166.55 -227.5 Q-165.05 -230.95 -162.4 -233.95 L-160.85 -235.65 -160.65 -237.3 -160.6 -238.9 Q-163.9 -243.8 -168.2 -247.9 L-169.0 -248.7 Q-169.45 -249.85 -169.35 -251.15 L-169.25 -252.75 M-148.05 -270.15 L-146.95 -270.9 -145.9 -271.25 Q-143.15 -269.55 -141.5 -266.65 L-141.0 -265.8 Q-135.0 -250.1 -126.2 -235.55 L-125.5 -234.0 Q-119.65 -230.65 -119.25 -224.25 -114.25 -215.75 -109.65 -207.0 L-109.5 -206.3 Q-109.9 -205.5 -110.45 -204.8 L-111.65 -203.85 Q-109.35 -195.3 -105.2 -187.5 L-104.05 -185.1 Q-104.85 -182.8 -106.75 -181.0 L-107.3 -180.45 -107.85 -180.25 -108.95 -179.95 Q-111.15 -180.1 -111.65 -182.1 L-116.7 -182.85 -111.4 -179.1 Q-97.15 -179.0 -83.8 -176.75 -82.5 -176.55 -82.3 -175.05 L-82.6 -174.25 -83.4 -172.85 Q-104.0 -165.15 -125.75 -165.9 L-127.55 -166.25 Q-132.95 -168.2 -137.2 -172.05 L-139.4 -172.3 Q-141.35 -172.5 -142.1 -174.2 L-142.65 -174.4 Q-144.5 -174.8 -145.65 -176.4 -159.45 -177.5 -171.05 -169.3 -174.5 -166.85 -178.05 -165.85 -176.0 -165.7 -174.7 -163.6 -174.7 -161.8 -175.75 -160.35 L-176.9 -158.75 -176.9 -157.1 -176.9 -155.45 -176.35 -154.65 -175.8 -153.85 Q-179.4 -144.25 -192.1 -144.6 L-192.15 -142.95 -192.4 -141.35 -194.6 -138.1 -195.1 -137.25 Q-204.75 -133.0 -213.6 -138.9 -214.35 -147.9 -204.65 -150.7 -193.95 -153.8 -186.65 -162.25 L-186.55 -165.55 Q-191.55 -166.55 -196.7 -170.35 L-201.9 -174.2 Q-218.05 -180.25 -235.65 -175.9 -244.55 -173.7 -253.95 -175.0 -255.3 -175.2 -256.7 -176.15 L-258.55 -177.65 Q-273.35 -176.0 -287.45 -171.9 -289.2 -171.4 -289.95 -173.15 -292.4 -173.1 -294.05 -174.75 L-294.25 -176.4 -294.3 -178.05 -293.7 -178.8 -292.95 -179.65 -293.15 -180.5 -293.2 -181.3 -293.2 -182.1 -293.6 -182.85 -294.3 -183.75 Q-294.65 -186.35 -293.4 -188.6 L-292.4 -190.25 -293.1 -191.95 -293.2 -192.7 Q-282.4 -202.9 -265.8 -202.6 -262.55 -206.95 -257.9 -210.1 -253.9 -212.9 -250.25 -210.1 -237.8 -215.65 -224.2 -218.0 -213.55 -218.35 -206.35 -210.25 L-205.95 -209.55 Q-190.15 -192.35 -166.6 -197.4 -150.8 -200.8 -134.9 -197.3 -133.8 -197.05 -132.85 -196.25 L-121.5 -186.8 -121.5 -188.65 -121.45 -190.25 -119.85 -191.95 -119.25 -192.7 -119.25 -193.5 -119.25 -195.15 -120.4 -196.75 -121.15 -197.6 Q-121.15 -202.95 -123.65 -207.35 L-124.7 -209.0 -124.7 -209.85 -124.7 -211.45 Q-125.65 -213.35 -127.35 -214.8 L-127.95 -215.55 -128.05 -218.0 -128.25 -219.6 -129.55 -221.25 -130.15 -222.05 -130.15 -222.9 -130.15 -224.5 Q-138.9 -243.25 -147.05 -262.25 -147.55 -263.4 -148.6 -264.45 L-148.45 -268.5 -148.05 -270.15 M-75.3 -129.35 Q-71.6 -126.1 -69.25 -122.6 -69.65 -121.75 -70.2 -121.05 -70.5 -120.7 -70.9 -120.4 -75.8 -120.05 -78.75 -124.75 -79.05 -123.75 -78.4 -122.5 -77.8 -121.4 -77.95 -120.15 L-79.45 -118.65 Q-80.0 -118.25 -80.65 -117.95 -87.65 -124.55 -91.8 -134.1 -92.4 -135.4 -91.55 -136.45 -93.55 -140.4 -96.55 -143.9 L-97.5 -145.4 -97.05 -146.95 -96.45 -147.85 -94.85 -148.25 -94.8 -148.4 Q-87.65 -144.4 -82.2 -136.9 -79.15 -132.8 -75.3 -129.35 M-58.9 -101.65 Q-50.45 -97.25 -45.4 -88.85 L-45.05 -88.05 Q-34.9 -75.55 -23.25 -63.4 L-22.25 -61.95 Q-14.5 -51.9 -5.25 -42.3 L-4.0 -40.75 -4.1 -39.95 -4.35 -39.15 -4.85 -38.3 Q-3.1 -35.6 -0.7 -33.25 L0.35 -31.8 Q-4.55 -25.75 -9.75 -33.7 -10.8 -35.35 -12.45 -36.7 L-12.65 -37.5 -12.7 -38.3 -47.85 -75.75 -48.85 -77.2 Q-55.65 -84.2 -63.4 -90.15 -63.7 -90.35 -63.8 -90.8 -64.1 -93.6 -61.1 -93.9 L-58.65 -94.05 -59.0 -94.5 -61.1 -96.2 -61.45 -97.05 -61.65 -98.65 -61.65 -99.5 -61.3 -100.25 -60.55 -101.1 -58.95 -101.5 -58.9 -101.65 M-110.55 -153.85 L-110.55 -145.7 -110.55 -144.05 -110.65 -143.25 -110.85 -142.4 Q-113.65 -136.85 -118.8 -133.55 L-119.95 -132.75 -123.35 -129.65 Q-124.4 -124.6 -126.05 -119.75 -126.9 -117.4 -127.2 -114.9 L-128.5 -106.0 -128.15 -104.35 -128.25 -103.55 Q-129.85 -100.45 -133.3 -102.35 -133.8 -102.6 -134.2 -103.0 -134.3 -107.9 -134.0 -112.85 -133.8 -115.9 -132.65 -118.65 -130.7 -123.3 -130.15 -128.3 L-129.4 -129.15 -129.05 -129.9 Q-131.45 -128.55 -132.15 -123.9 L-132.4 -121.5 -132.6 -120.7 Q-135.35 -119.0 -136.95 -116.35 L-137.45 -115.5 Q-140.85 -112.1 -144.55 -112.85 L-145.1 -112.25 -145.3 -111.45 -145.65 -109.8 Q-150.75 -104.45 -156.55 -100.5 L-158.25 -93.45 -158.4 -91.85 Q-166.75 -77.25 -170.45 -60.9 L-170.9 -59.25 -171.5 -58.8 -173.1 -58.15 -175.55 -59.5 Q-176.75 -67.95 -174.95 -75.9 -174.7 -77.05 -174.7 -78.3 L-173.85 -79.05 -172.8 -79.9 Q-172.35 -81.9 -172.5 -84.0 L-172.55 -85.6 Q-170.45 -89.1 -169.25 -92.95 L-169.0 -93.75 -167.2 -94.8 Q-172.7 -92.55 -178.65 -91.35 -180.7 -90.95 -181.25 -92.95 -177.65 -101.4 -167.9 -104.6 -163.65 -105.95 -160.0 -108.0 L-158.95 -109.25 -158.4 -109.8 -157.85 -110.0 -156.8 -110.2 -156.75 -110.35 -156.55 -110.2 Q-152.95 -112.75 -150.0 -116.05 L-151.1 -117.65 -151.9 -118.5 -151.9 -120.15 -151.9 -121.75 -151.05 -122.55 -150.7 -122.8 Q-155.4 -126.1 -160.8 -128.65 -166.1 -131.1 -170.0 -135.75 -171.05 -137.0 -172.55 -137.8 -178.65 -133.2 -185.25 -130.45 -185.85 -130.2 -186.5 -130.7 L-187.75 -132.1 Q-184.95 -139.5 -178.75 -144.9 -177.0 -146.5 -174.95 -147.55 -167.35 -151.65 -164.25 -143.2 L-163.85 -141.6 -162.45 -140.0 -161.65 -139.15 Q-153.0 -134.75 -145.05 -138.1 -144.55 -138.35 -144.25 -139.15 -144.2 -140.7 -145.55 -141.7 L-146.45 -142.4 -146.45 -146.5 -146.45 -147.85 Q-154.7 -147.55 -158.4 -153.3 L-157.75 -154.85 -157.3 -155.45 Q-151.8 -157.0 -146.15 -157.35 -148.2 -159.05 -150.7 -160.05 L-151.6 -160.65 Q-152.05 -161.8 -151.8 -163.05 L-151.35 -164.7 -150.2 -165.4 -149.15 -165.8 Q-134.7 -156.95 -116.5 -158.5 -114.0 -158.7 -113.85 -156.3 -111.6 -155.8 -110.55 -153.85 M-140.9 -152.85 L-139.65 -151.95 Q-138.4 -149.7 -138.75 -147.05 L-138.85 -145.7 -134.75 -145.4 Q-133.7 -146.25 -133.2 -147.5 L-132.3 -148.95 Q-129.95 -149.5 -127.95 -150.85 L-132.05 -153.0 Q-137.25 -155.35 -141.55 -153.55 L-140.9 -152.85 M-133.95 -136.7 L-135.05 -135.9 Q-135.65 -134.2 -136.75 -132.7 L-137.45 -131.8 Q-137.9 -130.65 -137.8 -129.35 L-137.75 -128.7 -137.2 -128.85 -136.8 -128.85 Q-134.25 -132.95 -132.55 -137.6 -132.35 -138.15 -132.85 -137.55 L-133.95 -136.7 M-163.1 -119.45 Q-161.6 -118.7 -161.65 -117.15 -175.75 -104.75 -195.05 -99.25 -200.5 -97.75 -205.55 -95.45 -208.7 -94.05 -212.2 -93.5 -227.2 -85.15 -241.45 -76.75 -242.95 -75.85 -244.85 -75.6 -247.75 -75.2 -248.65 -77.75 -241.25 -91.7 -227.45 -102.1 L-223.5 -105.3 Q-211.65 -115.5 -203.0 -128.3 L-201.4 -128.7 -201.35 -128.85 -199.25 -127.35 -198.65 -126.65 -198.65 -125.85 -198.9 -124.2 -211.65 -108.7 Q-207.3 -111.05 -202.15 -109.25 -186.7 -117.35 -169.7 -120.4 -166.25 -121.0 -163.1 -119.45 M-142.1 -120.4 L-140.6 -121.6 Q-141.45 -121.8 -142.3 -122.2 L-142.15 -121.2 -142.1 -120.4 M-97.5 -144.05 L-97.5 -142.4 -97.5 -140.8 -103.45 -127.0 Q-103.65 -126.5 -104.05 -126.1 -114.6 -96.7 -130.0 -68.8 -137.75 -54.75 -144.35 -40.55 -154.35 -19.05 -163.65 2.2 -166.15 7.95 -166.65 14.15 -167.1 19.95 -168.2 25.55 -168.85 26.35 -169.7 27.0 -170.25 27.45 -170.9 27.7 L-173.35 26.35 Q-173.8 24.4 -173.7 22.3 L-173.6 20.65 -172.8 19.85 -172.6 18.2 -172.55 16.6 -173.9 14.95 -174.7 14.15 Q-172.55 3.55 -169.65 -7.25 -166.5 -19.2 -164.95 -31.55 L-164.1 -32.35 Q-158.4 -54.9 -155.4 -78.05 -155.15 -80.05 -155.15 -82.1 L-154.0 -83.65 -153.25 -84.55 Q-152.8 -85.7 -152.75 -86.95 L-152.4 -88.6 -151.8 -89.05 -150.25 -89.7 -148.15 -88.2 -147.55 -87.5 Q-147.5 -76.35 -149.45 -65.45 L-149.7 -62.5 -145.9 -68.5 -145.35 -69.3 -145.35 -70.1 -145.35 -71.75 Q-143.45 -74.8 -141.0 -77.45 L-141.0 -78.3 -141.0 -79.9 Q-134.2 -88.25 -130.15 -97.85 -118.9 -113.55 -108.4 -129.65 L-108.4 -130.45 -108.4 -132.1 -107.2 -133.65 -106.2 -134.55 Q-106.5 -136.75 -105.6 -138.7 L-105.15 -140.25 Q-103.6 -142.55 -102.3 -145.1 L-101.85 -145.7 -101.3 -145.85 -100.25 -146.1 -100.25 -146.25 -98.15 -144.75 -97.5 -144.05 M-127.95 -87.0 Q-132.7 -80.35 -136.65 -73.2 -131.8 -79.75 -127.4 -86.65 -127.25 -87.35 -127.95 -87.0 M-230.75 -302.05 L-231.25 -303.6 -230.3 -305.15 -229.6 -305.75 -228.55 -305.9 -228.55 -306.05 Q-203.55 -287.35 -185.25 -261.1 -179.85 -253.35 -176.05 -245.15 -174.75 -243.6 -173.85 -241.8 L-173.35 -240.25 Q-172.3 -239.15 -171.75 -237.8 L-171.45 -237.0 -171.7 -236.2 -172.05 -235.45 -172.55 -234.85 -176.8 -234.95 -177.7 -235.65 Q-178.2 -237.7 -179.15 -239.65 L-180.15 -241.35 -182.85 -240.8 Q-185.45 -241.65 -187.5 -243.25 L-187.9 -244.85 -188.55 -246.5 Q-217.4 -260.8 -249.35 -264.65 -250.85 -264.85 -250.8 -266.35 L-250.15 -267.95 -249.75 -268.55 Q-231.85 -267.7 -213.75 -264.4 -209.0 -263.5 -204.85 -261.1 -202.05 -259.45 -199.7 -258.75 L-199.7 -259.55 -199.8 -260.35 -200.0 -261.2 Q-207.9 -276.65 -221.25 -288.35 -226.45 -292.85 -229.9 -298.7 -230.05 -300.5 -230.75 -302.05 M-392.2 -204.6 Q-387.2 -205.65 -382.9 -207.1 -360.05 -206.95 -338.4 -202.15 L-337.8 -201.7 -337.8 -200.85 -337.85 -200.05 -338.05 -199.25 Q-338.2 -198.8 -338.45 -198.5 L-339.35 -197.55 -339.9 -196.75 -340.25 -195.95 -340.5 -195.15 -341.1 -194.65 Q-341.3 -194.45 -341.6 -194.4 L-342.7 -194.05 -344.25 -194.75 -345.1 -195.45 -345.75 -196.15 -346.5 -196.8 Q-367.7 -202.5 -388.4 -196.0 -390.1 -195.5 -391.75 -194.6 -403.8 -188.05 -417.1 -188.85 -417.95 -188.9 -418.6 -189.85 L-419.35 -191.35 -419.2 -192.1 -418.75 -192.95 -418.25 -193.5 Q-411.15 -194.2 -404.75 -197.25 -400.15 -199.45 -396.1 -202.8 -394.45 -204.15 -392.2 -204.6 M-268.2 -189.15 L-267.05 -189.1 -267.15 -190.15 -268.2 -189.15 M-234.2 -88.0 L-234.8 -87.5 Q-230.1 -88.8 -229.75 -91.45 L-230.15 -91.35 -234.2 -88.0" fill="#ffff00" fill-rule="evenodd" stroke="none"/>
  </g>
</svg>
