<?xml version="1.0" encoding="UTF-8" standalone="no"?>
<svg xmlns:ffdec="https://www.free-decompiler.com/flash" xmlns:xlink="http://www.w3.org/1999/xlink" ffdec:objectType="shape" height="83.8px" width="116.7px" xmlns="http://www.w3.org/2000/svg">
  <g transform="matrix(1.0, 0.0, 0.0, 1.0, 71.15, 203.3)">
    <path d="M8.25 -200.95 Q12.15 -198.05 12.85 -193.2 13.55 -188.35 10.65 -184.45 9.75 -183.25 8.7 -182.35 L7.75 -181.65 Q7.4 -180.55 5.65 -179.85 L4.2 -179.35 3.6 -179.35 3.55 -179.4 3.45 -179.35 3.15 -179.4 3.15 -179.35 18.2 -177.3 31.9 -174.4 39.25 -173.05 Q42.2 -172.65 44.55 -171.05 45.35 -170.5 45.5 -169.45 46.1 -164.3 41.15 -162.95 37.7 -161.95 35.2 -164.05 33.65 -165.35 34.0 -167.4 25.0 -170.1 15.25 -171.45 L7.5 -172.45 -1.1 -173.65 -1.2 -173.2 Q-1.45 -171.6 -1.1 -170.05 1.2 -160.4 0.0 -150.5 -0.05 -149.85 -0.65 -149.5 -4.75 -147.1 -8.65 -144.35 L-14.6 -140.55 Q-16.15 -139.65 -17.95 -140.1 -22.95 -141.35 -22.85 -146.3 -22.8 -149.7 -19.4 -150.4 -16.15 -151.05 -14.1 -148.8 L-5.55 -153.9 Q-5.95 -160.85 -6.95 -167.7 L-9.3 -164.4 -11.6 -161.6 Q-17.8 -155.4 -25.3 -150.9 L-27.05 -149.6 Q-27.3 -149.0 -27.8 -148.55 -29.9 -146.85 -32.25 -146.45 L-32.3 -146.35 -32.5 -146.2 Q-32.8 -145.35 -33.45 -144.6 -39.05 -138.2 -43.25 -130.8 -27.55 -133.4 -11.9 -135.2 L-11.3 -135.0 Q-9.4 -133.2 -9.25 -130.35 -9.15 -128.5 -9.3 -126.75 -9.55 -125.15 -9.15 -123.55 -8.45 -120.75 -11.2 -119.7 -13.35 -118.95 -14.35 -120.95 -15.2 -122.75 -15.3 -124.8 L-15.35 -128.85 -43.45 -124.4 Q-46.05 -124.0 -48.6 -124.3 -52.85 -124.7 -52.15 -128.8 -51.9 -130.4 -50.85 -131.55 -47.45 -135.5 -44.65 -139.9 L-44.0 -140.95 -41.35 -144.95 Q-39.75 -147.2 -37.75 -149.1 L-37.75 -149.15 -40.1 -164.05 Q-40.95 -169.55 -40.85 -175.0 L-65.95 -166.7 Q-66.55 -166.55 -67.1 -166.95 -69.4 -168.75 -69.45 -171.95 -69.5 -174.4 -70.3 -176.65 L-71.0 -179.45 Q-71.7 -182.75 -68.55 -183.65 -64.45 -183.0 -64.5 -178.45 L-64.25 -177.15 Q-63.6 -175.55 -63.45 -173.7 L-38.1 -182.35 -36.95 -182.2 Q-34.4 -180.25 -34.8 -176.85 L-34.9 -175.05 Q-34.65 -167.65 -33.2 -160.25 -32.6 -156.95 -32.3 -153.6 -31.4 -154.8 -29.9 -155.55 L-27.75 -156.7 Q-23.75 -159.15 -20.1 -162.15 -13.8 -167.45 -9.5 -174.4 L-8.65 -174.9 -8.55 -174.95 -7.7 -176.6 -6.25 -178.6 -6.25 -179.7 Q-6.15 -180.5 -5.55 -181.0 L-5.1 -182.25 -5.15 -182.35 Q-5.65 -183.2 -6.85 -183.65 L-8.0 -184.0 -8.1 -184.15 Q-8.25 -185.55 -9.3 -186.5 L-9.7 -186.8 -10.5 -189.8 Q-11.2 -194.65 -8.3 -198.55 -5.4 -202.5 -0.5 -203.15 4.3 -203.9 8.25 -200.95" fill="#000000" fill-rule="evenodd" stroke="none"/>
  </g>
</svg>
