<?xml version="1.0" encoding="UTF-8" standalone="no"?>
<svg xmlns:ffdec="https://www.free-decompiler.com/flash" xmlns:xlink="http://www.w3.org/1999/xlink" ffdec:objectType="shape" height="360.5px" width="628.8px" xmlns="http://www.w3.org/2000/svg">
  <g transform="matrix(1.0, 0.0, 0.0, 1.0, 609.55, 312.7)">
    <path d="M-79.6 -303.45 Q-78.6 -306.1 -75.7 -306.2 L-75.65 -306.3 Q-68.45 -303.45 -69.75 -293.9 -70.2 -290.85 -69.65 -287.75 -68.3 -279.4 -73.65 -275.45 -78.05 -272.3 -84.2 -271.15 -90.55 -269.95 -93.7 -263.95 -93.2 -254.1 -101.3 -258.7 -101.75 -261.8 -101.75 -265.0 L-101.3 -267.35 -100.0 -268.9 -98.7 -270.5 -98.5 -271.25 -98.35 -272.05 -98.15 -272.85 Q-90.15 -281.9 -77.5 -280.7 -77.65 -291.1 -79.4 -301.1 L-79.6 -303.45 M-155.45 -22.85 L-159.25 -21.35 Q-173.45 -16.85 -187.6 -12.85 -186.3 -0.8 -180.55 10.45 -175.65 20.05 -179.5 28.75 -184.15 38.1 -191.4 45.65 -195.45 49.85 -199.65 45.75 -200.45 41.3 -196.25 38.7 L-194.95 37.9 Q-192.35 33.3 -188.95 29.25 L-187.6 27.7 -186.85 24.65 -186.05 23.0 -194.55 -6.15 Q-198.65 -20.1 -183.1 -22.95 -168.5 -25.6 -155.2 -31.15 -147.35 -26.7 -155.45 -22.85 M-19.7 -31.65 L-19.9 -33.25 -19.95 -34.8 -19.95 -35.6 Q-19.45 -37.15 -17.8 -37.85 L-16.05 -38.45 Q2.6 -28.75 18.85 -15.8 L19.25 -15.2 Q14.5 -6.4 5.75 -14.7 -2.65 -22.7 -13.25 -27.5 -16.8 -29.15 -19.7 -31.65 M-586.75 -257.55 L-568.8 -258.2 Q-554.75 -259.55 -541.6 -262.55 -518.75 -265.4 -501.85 -249.8 -495.9 -244.3 -488.3 -243.6 -467.55 -241.8 -446.8 -244.4 -434.25 -245.95 -421.55 -244.75 -419.7 -244.6 -417.95 -243.6 -395.25 -230.5 -374.75 -213.9 L-373.25 -213.4 Q-369.4 -211.25 -365.3 -209.65 L-364.15 -209.0 Q-339.55 -210.8 -315.3 -208.05 -309.85 -207.45 -307.05 -203.0 L-305.45 -202.2 -298.9 -199.2 Q-291.4 -197.7 -283.55 -198.8 -280.8 -199.15 -278.3 -197.75 -276.85 -196.95 -276.9 -195.4 -277.9 -192.95 -280.7 -192.85 -304.6 -192.0 -328.35 -194.9 L-332.6 -194.6 -340.65 -192.7 Q-360.55 -188.25 -376.9 -197.05 L-378.4 -197.55 Q-382.95 -199.95 -387.55 -202.15 -389.2 -202.9 -389.95 -204.65 -394.35 -206.9 -398.15 -210.0 -406.3 -216.7 -415.25 -222.05 L-416.55 -222.4 Q-421.25 -224.0 -425.55 -225.85 -446.9 -228.1 -468.5 -222.9 -490.3 -217.65 -509.55 -225.3 -529.25 -237.25 -552.2 -232.5 L-559.0 -231.75 Q-579.4 -231.3 -599.75 -232.5 -605.0 -232.8 -609.3 -235.65 L-609.45 -236.45 -609.55 -242.15 -609.55 -247.85 Q-601.35 -257.85 -586.75 -257.55 M-239.0 -301.1 L-239.15 -279.9 Q-239.05 -278.4 -237.05 -278.4 -214.1 -278.4 -192.25 -272.8 -191.3 -272.55 -191.1 -271.25 L-191.0 -269.7 -184.4 -260.05 Q-182.8 -257.55 -181.6 -254.8 -181.55 -253.05 -182.9 -251.95 -184.1 -251.0 -185.55 -250.35 -191.5 -253.6 -195.05 -259.6 -195.9 -261.0 -195.75 -262.65 L-196.85 -264.15 -198.25 -265.85 -198.6 -266.55 Q-221.6 -270.75 -244.85 -272.5 -245.8 -272.55 -246.75 -273.35 -247.2 -279.6 -247.1 -285.9 L-247.0 -297.7 Q-257.65 -302.9 -269.9 -305.8 -270.95 -306.05 -271.85 -306.85 -272.45 -308.4 -271.9 -310.0 -271.45 -311.45 -270.0 -312.05 L-269.45 -312.25 -268.2 -312.45 -268.2 -312.6 Q-265.35 -313.05 -263.25 -311.25 L-262.7 -310.75 Q-250.35 -309.1 -240.15 -303.35 -239.0 -302.7 -239.0 -301.1 M-461.25 -198.95 Q-459.85 -197.95 -459.9 -196.2 -460.3 -195.4 -460.85 -194.8 -464.6 -190.7 -471.15 -192.25 L-475.2 -187.25 Q-476.0 -186.1 -477.5 -185.75 L-484.75 -184.4 Q-485.65 -184.7 -486.45 -185.15 -487.5 -185.75 -488.4 -186.5 L-488.4 -188.05 Q-487.4 -194.0 -480.55 -193.85 L-479.8 -194.6 -479.05 -195.45 -478.45 -196.2 -478.25 -197.0 -478.15 -197.75 -477.95 -198.55 -477.15 -199.3 Q-475.7 -200.45 -474.3 -200.65 -466.8 -202.95 -461.25 -198.95 M-349.25 -69.35 Q-347.85 -78.25 -340.95 -85.35 -339.15 -87.2 -338.8 -89.75 -328.15 -103.4 -311.35 -99.4 -309.2 -102.6 -305.85 -103.2 L-305.85 -103.35 Q-302.5 -102.9 -302.0 -99.65 L-301.9 -98.9 -305.15 -93.3 -305.85 -91.85 Q-314.3 -89.2 -323.9 -91.85 L-331.2 -85.55 -342.15 -69.6 Q-345.15 -65.2 -349.25 -69.35" fill="#ffff00" fill-rule="evenodd" stroke="none"/>
  </g>
</svg>
