<?xml version="1.0" encoding="UTF-8" standalone="no"?>
<svg xmlns:ffdec="https://www.free-decompiler.com/flash" xmlns:xlink="http://www.w3.org/1999/xlink" ffdec:objectType="shape" height="333.0px" width="379.3px" xmlns="http://www.w3.org/2000/svg">
  <g transform="matrix(1.0, 0.0, 0.0, 1.0, 330.75, 320.95)">
    <path d="M-83.8 -301.35 Q-82.8 -304.0 -79.85 -304.1 L-79.85 -304.2 Q-70.2 -298.45 -79.3 -293.0 -80.25 -292.45 -81.55 -293.0 L-83.5 -294.3 Q-83.95 -296.55 -83.85 -299.0 L-83.8 -301.35 M48.55 8.35 L48.3 9.15 48.05 9.9 47.8 10.7 Q46.5 12.05 44.65 12.05 42.55 12.05 41.25 10.45 38.0 10.75 35.55 8.8 L34.7 8.1 34.5 7.3 34.45 6.5 34.45 4.95 34.45 4.15 35.65 2.75 Q36.95 1.5 38.35 1.3 45.5 1.6 48.25 7.6 L48.55 8.35 M-316.6 -312.75 L-328.5 -314.25 Q-329.5 -314.4 -330.45 -315.2 L-330.65 -316.0 Q-331.05 -318.35 -329.35 -319.85 L-328.6 -320.45 -328.05 -320.6 -326.8 -320.8 -326.75 -320.95 -311.45 -319.65 Q-309.55 -319.35 -309.55 -317.3 -309.55 -315.8 -308.2 -315.2 L-287.05 -314.3 Q-283.15 -314.05 -283.1 -310.25 -283.95 -307.2 -287.0 -307.15 L-311.8 -308.2 Q-315.95 -308.55 -316.3 -312.6 L-316.6 -312.75" fill="#ffff00" fill-rule="evenodd" stroke="none"/>
  </g>
</svg>
