<?xml version="1.0" encoding="UTF-8" standalone="no"?>
<svg xmlns:ffdec="https://www.free-decompiler.com/flash" xmlns:xlink="http://www.w3.org/1999/xlink" ffdec:objectType="shape" height="82.55px" width="80.7px" xmlns="http://www.w3.org/2000/svg">
  <g transform="matrix(1.0, 0.0, 0.0, 1.0, 54.8, 201.5)">
    <path d="M-0.2 -201.5 Q4.7 -201.5 8.15 -198.05 11.6 -194.6 11.6 -189.7 L11.6 -189.45 Q15.6 -192.75 20.15 -194.85 25.75 -194.55 25.9 -189.0 26.05 -184.55 21.2 -183.7 18.6 -183.2 16.9 -185.05 L16.45 -185.05 Q10.4 -179.55 3.4 -175.65 L0.6 -174.05 0.15 -173.35 Q4.4 -171.85 7.95 -168.75 9.05 -167.75 10.4 -167.15 13.7 -165.6 14.45 -162.35 L16.45 -154.85 Q17.65 -150.95 17.5 -146.65 17.45 -144.6 16.65 -142.75 16.0 -141.3 14.4 -140.8 9.45 -139.3 8.25 -144.35 7.45 -147.85 11.05 -149.3 L11.05 -149.8 11.05 -150.6 11.05 -150.9 9.25 -156.5 7.85 -160.95 Q2.45 -165.05 -3.4 -168.6 -8.35 -162.35 -14.25 -156.8 -17.4 -153.8 -20.8 -151.2 L-29.35 -145.0 -29.5 -144.4 Q-29.9 -142.8 -31.6 -142.4 -38.35 -140.95 -42.1 -135.05 L-37.95 -135.3 Q-31.45 -136.2 -25.0 -135.3 -23.85 -135.1 -23.5 -133.95 -22.55 -131.05 -25.2 -129.1 L-34.75 -121.7 Q-37.25 -119.7 -40.3 -119.0 -41.2 -118.8 -41.85 -119.45 -44.8 -122.15 -41.65 -124.6 L-35.4 -129.25 Q-43.1 -128.05 -51.5 -129.5 -51.95 -129.55 -52.15 -130.05 -53.85 -133.65 -50.3 -136.25 -48.25 -137.8 -46.7 -139.85 -43.95 -143.5 -40.1 -145.9 -37.65 -147.45 -35.0 -148.15 L-34.4 -148.9 -34.35 -148.95 Q-34.05 -152.75 -32.05 -156.0 L-28.9 -165.55 -28.6 -166.6 Q-27.9 -169.1 -27.45 -171.6 L-39.0 -171.8 -40.25 -171.8 Q-46.35 -171.75 -52.4 -172.05 -54.2 -172.15 -54.65 -173.9 -55.35 -176.5 -53.05 -178.2 L-51.35 -179.8 Q-47.9 -183.85 -43.4 -186.0 -38.7 -185.15 -40.9 -181.1 -41.5 -180.05 -42.5 -179.35 L-43.95 -178.05 Q-33.6 -178.3 -23.2 -177.7 -22.35 -177.65 -22.05 -176.85 -20.85 -173.8 -21.3 -170.3 -21.65 -167.9 -22.3 -165.55 L-25.0 -156.4 Q-20.4 -160.05 -16.2 -164.25 -10.8 -169.7 -6.45 -175.9 L-6.25 -176.3 -5.45 -177.3 -4.4 -178.95 -7.75 -180.6 -8.55 -181.35 Q-12.0 -184.8 -12.0 -189.7 -12.0 -194.6 -8.55 -198.05 -5.1 -201.5 -0.2 -201.5" fill="#000000" fill-rule="evenodd" stroke="none"/>
  </g>
</svg>
