<?xml version="1.0" encoding="UTF-8" standalone="no"?>
<svg xmlns:ffdec="https://www.free-decompiler.com/flash" xmlns:xlink="http://www.w3.org/1999/xlink" ffdec:objectType="shape" height="92.85px" width="70.25px" xmlns="http://www.w3.org/2000/svg">
  <g transform="matrix(1.0, 0.0, 0.0, 1.0, 54.45, 196.3)">
    <path d="M5.1 -179.4 Q5.1 -174.5 1.65 -171.05 L-0.55 -169.25 -1.6 -168.7 -2.1 -168.05 2.7 -168.3 3.9 -168.4 Q7.3 -169.3 9.6 -167.15 10.65 -166.15 11.2 -164.8 L14.95 -154.9 Q16.8 -149.7 14.7 -144.95 14.15 -143.85 12.95 -143.5 7.95 -142.2 6.95 -146.65 6.15 -150.25 8.95 -152.45 8.3 -155.2 7.05 -157.8 L5.15 -161.95 3.55 -162.2 Q-3.35 -161.9 -10.2 -162.2 -14.35 -156.35 -17.95 -150.15 L-22.9 -141.45 Q-25.25 -137.2 -28.85 -134.1 L-29.1 -132.65 Q-29.5 -122.2 -29.1 -111.75 -28.95 -108.0 -30.25 -104.7 -30.65 -103.55 -31.95 -103.45 -35.6 -103.15 -37.25 -106.6 -38.95 -110.15 -41.05 -113.45 -43.1 -116.75 -44.8 -120.2 -48.05 -118.35 -49.8 -114.8 -50.15 -114.1 -51.0 -114.1 -55.35 -114.25 -54.2 -118.55 -53.35 -121.8 -50.85 -124.15 -47.7 -127.15 -44.15 -129.25 L-42.7 -129.15 Q-39.7 -127.0 -39.0 -123.25 L-38.65 -122.15 Q-37.55 -119.55 -35.65 -117.45 -35.7 -125.85 -35.05 -134.2 -35.95 -134.9 -35.85 -136.1 -35.3 -141.4 -32.3 -145.9 -37.9 -142.05 -42.25 -136.7 -42.95 -135.85 -44.1 -135.95 -47.55 -136.3 -47.45 -139.7 -47.35 -143.8 -45.3 -147.3 -43.9 -149.65 -41.8 -151.4 -40.4 -152.5 -38.75 -151.9 -37.75 -151.5 -37.2 -150.55 -35.4 -151.05 -33.45 -152.4 -27.7 -156.25 -21.5 -158.5 L-20.55 -158.1 Q-17.9 -162.7 -14.85 -167.05 L-15.3 -171.3 Q-18.5 -174.7 -18.5 -179.4 -18.5 -181.9 -17.6 -183.95 L-19.05 -188.1 Q-22.35 -187.25 -24.6 -189.5 -26.2 -191.1 -25.25 -193.2 -24.05 -195.8 -21.5 -196.3 -14.9 -196.45 -12.95 -190.3 L-12.7 -189.55 Q-10.05 -191.2 -6.7 -191.2 -1.8 -191.2 1.65 -187.75 5.1 -184.3 5.1 -179.4" fill="#000000" fill-rule="evenodd" stroke="none"/>
  </g>
</svg>
