<?xml version="1.0" encoding="UTF-8" standalone="no"?>
<svg xmlns:ffdec="https://www.free-decompiler.com/flash" xmlns:xlink="http://www.w3.org/1999/xlink" ffdec:objectType="shape" height="104.45px" width="66.1px" xmlns="http://www.w3.org/2000/svg">
  <g transform="matrix(1.0, 0.0, 0.0, 1.0, 48.05, 192.75)">
    <path d="M1.5 -161.5 L-0.7 -159.7 -0.9 -159.6 1.15 -158.9 1.25 -158.85 Q6.35 -156.35 10.25 -152.1 14.8 -147.15 17.4 -141.1 19.5 -136.25 14.6 -134.65 12.8 -134.05 11.1 -135.05 6.75 -137.7 9.9 -141.7 L6.5 -146.5 Q3.0 -150.95 -2.0 -153.45 L-12.5 -154.45 Q-13.05 -153.5 -13.25 -152.4 L-20.35 -139.3 -22.9 -134.3 -16.4 -140.5 Q-14.3 -142.55 -11.8 -144.0 L-10.95 -144.35 Q-6.65 -142.75 -8.2 -137.85 -8.9 -135.75 -9.85 -133.75 -12.5 -128.4 -13.85 -122.75 -9.85 -125.4 -7.55 -121.6 -6.9 -120.55 -7.7 -119.55 -9.85 -116.75 -13.35 -115.65 L-14.1 -115.2 Q-17.3 -112.45 -20.6 -114.15 -21.75 -114.75 -21.65 -116.0 -21.3 -121.15 -19.7 -125.95 L-18.95 -128.2 -18.8 -129.0 -29.65 -120.05 Q-28.65 -118.75 -28.3 -116.85 L-26.65 -108.35 -26.55 -107.55 Q-25.3 -103.05 -24.35 -98.3 -23.6 -94.65 -23.95 -90.9 -24.2 -88.3 -26.8 -88.3 -28.7 -88.3 -30.25 -89.45 L-34.1 -91.7 Q-36.0 -92.55 -37.8 -93.6 L-41.65 -96.35 Q-41.45 -92.85 -42.15 -89.6 -42.35 -88.7 -43.3 -88.5 -47.0 -87.55 -47.7 -91.25 L-48.0 -93.85 Q-48.25 -98.9 -47.15 -103.6 -46.95 -104.5 -46.0 -104.7 -43.15 -105.4 -40.6 -103.55 -36.0 -100.2 -31.3 -97.15 L-30.7 -97.15 -31.85 -102.75 -32.05 -104.3 Q-33.05 -108.7 -34.55 -113.25 -35.3 -115.6 -35.55 -118.05 L-35.45 -119.75 Q-35.95 -120.7 -35.7 -122.25 -35.5 -123.6 -34.9 -124.85 L-31.7 -130.25 Q-27.9 -138.95 -23.35 -147.3 L-20.7 -151.85 -19.0 -154.8 -19.45 -155.1 Q-18.65 -156.2 -18.2 -157.7 -17.1 -161.25 -19.15 -163.0 L-19.65 -164.25 Q-23.65 -173.8 -28.3 -182.95 -33.15 -183.4 -33.5 -187.9 -33.85 -191.95 -30.0 -192.75 -25.1 -192.15 -23.15 -187.3 L-22.0 -184.7 -17.5 -175.0 Q-16.65 -176.75 -15.2 -178.2 -11.75 -181.65 -6.85 -181.65 -1.95 -181.65 1.5 -178.2 4.95 -174.75 4.95 -169.85 4.95 -164.95 1.5 -161.5" fill="#000000" fill-rule="evenodd" stroke="none"/>
  </g>
</svg>
