<?xml version="1.0" encoding="UTF-8" standalone="no"?>
<svg xmlns:ffdec="https://www.free-decompiler.com/flash" xmlns:xlink="http://www.w3.org/1999/xlink" ffdec:objectType="shape" height="106.7px" width="69.05px" xmlns="http://www.w3.org/2000/svg">
  <g transform="matrix(1.0, 0.0, 0.0, 1.0, 49.7, 165.55)">
    <path d="M-17.65 -150.55 L-17.65 -150.8 Q-17.65 -155.7 -14.2 -159.15 -10.75 -162.6 -5.85 -162.6 -0.95 -162.6 2.5 -159.15 5.95 -155.7 5.95 -150.8 5.95 -145.9 2.5 -142.45 L0.3 -140.65 Q-0.25 -140.4 -0.75 -140.1 -1.25 -139.05 -3.1 -138.6 L-4.6 -138.3 -5.4 -138.45 -5.75 -138.05 -5.8 -138.05 -6.35 -138.1 -6.7 -138.45 -7.65 -138.9 -8.3 -137.6 Q-6.5 -136.3 -5.4 -134.05 -4.5 -132.1 -3.85 -129.95 3.55 -127.6 11.3 -129.15 11.85 -134.0 16.65 -132.85 19.6 -132.15 19.35 -129.15 19.0 -124.4 13.9 -123.2 2.05 -120.3 -8.5 -125.4 -9.3 -125.75 -9.65 -126.6 L-11.55 -131.1 -16.45 -121.25 -17.75 -118.85 Q-21.2 -112.8 -24.05 -106.45 -20.25 -108.5 -16.7 -111.0 -9.85 -115.7 -2.45 -118.95 2.1 -117.3 0.1 -112.65 L-4.7 -101.9 Q-5.9 -99.25 -6.55 -96.5 L-8.0 -90.85 -4.3 -88.4 Q-3.2 -87.65 -3.45 -86.3 -4.2 -82.7 -7.95 -83.55 -12.3 -84.55 -14.65 -88.1 -15.25 -89.0 -14.95 -90.05 L-12.25 -98.8 Q-11.55 -103.05 -9.65 -106.95 L-9.15 -108.1 Q-10.2 -108.05 -11.85 -106.8 -13.55 -105.55 -15.45 -104.65 -20.3 -100.65 -26.1 -98.55 -25.35 -97.0 -25.15 -94.95 -24.95 -92.4 -23.85 -90.05 L-19.6 -80.7 Q-17.55 -76.2 -16.7 -71.55 -16.5 -70.5 -17.4 -69.75 -18.25 -69.05 -19.4 -69.1 -28.35 -69.6 -37.1 -68.15 L-41.35 -67.55 -43.0 -67.2 Q-41.45 -63.95 -41.95 -60.6 -42.05 -59.75 -42.85 -59.4 -46.6 -57.65 -48.1 -61.3 -49.85 -65.5 -49.7 -70.1 -49.65 -72.6 -47.1 -73.0 -35.9 -74.8 -24.5 -75.3 L-31.1 -92.1 -32.2 -94.85 Q-32.75 -96.2 -32.95 -97.55 -34.4 -99.15 -33.5 -101.5 -29.7 -111.0 -24.55 -119.85 -20.65 -126.5 -17.5 -133.6 L-15.85 -137.0 Q-20.5 -143.1 -24.45 -149.5 -27.7 -154.65 -33.1 -157.15 -37.8 -154.45 -41.05 -158.75 -41.65 -159.6 -41.6 -160.7 -41.3 -164.8 -37.05 -165.55 -26.7 -163.05 -20.4 -154.35 L-17.65 -150.55" fill="#000000" fill-rule="evenodd" stroke="none"/>
  </g>
</svg>
