<?xml version="1.0" encoding="UTF-8" standalone="no"?>
<svg xmlns:ffdec="https://www.free-decompiler.com/flash" xmlns:xlink="http://www.w3.org/1999/xlink" ffdec:objectType="shape" height="108.4px" width="82.75px" xmlns="http://www.w3.org/2000/svg">
  <g transform="matrix(1.0, 0.0, 0.0, 1.0, 47.7, 126.55)">
    <path d="M14.45 -114.75 Q14.45 -109.85 11.0 -106.4 L8.8 -104.6 7.75 -104.05 Q7.25 -103.0 5.4 -102.55 L3.9 -102.25 3.1 -102.4 2.75 -102.0 2.7 -102.0 2.15 -102.05 1.8 -102.4 -0.8 -103.65 4.1 -99.85 4.25 -99.65 Q13.8 -98.4 23.4 -99.65 23.45 -103.1 27.0 -104.05 30.6 -105.0 33.25 -103.0 35.4 -101.4 34.95 -98.8 34.1 -94.45 29.6 -93.8 15.45 -91.7 1.45 -94.05 1.1 -94.1 0.75 -94.4 -3.6 -97.95 -8.35 -100.85 L-9.8 -101.7 -10.8 -102.7 Q-15.55 -98.05 -19.7 -92.7 L-27.95 -82.25 Q-19.4 -82.2 -11.0 -80.4 -7.0 -79.5 -3.4 -77.9 -2.4 -77.45 -2.3 -76.35 -1.6 -69.65 -3.25 -63.4 -3.2 -62.3 -3.4 -61.25 L-4.7 -55.45 -5.65 -50.2 Q-0.95 -50.35 1.9 -47.25 2.5 -46.55 2.2 -45.65 1.0 -42.3 -2.75 -43.05 L-11.55 -45.05 Q-12.35 -45.3 -12.55 -46.1 -13.15 -48.7 -12.35 -51.4 -9.5 -60.85 -8.5 -70.7 -8.35 -71.85 -8.35 -73.0 -15.05 -74.8 -22.05 -75.75 L-29.85 -76.35 -28.8 -73.0 Q-25.1 -63.45 -20.95 -54.0 L-20.3 -52.35 -20.35 -52.35 -20.95 -52.15 Q-20.6 -49.3 -23.6 -46.8 -27.95 -43.25 -31.3 -38.8 L-38.75 -29.3 Q-35.9 -25.9 -33.3 -22.0 -32.7 -21.05 -33.3 -20.1 -35.35 -16.65 -38.45 -19.35 -41.35 -21.85 -43.7 -24.8 -45.15 -26.6 -45.5 -28.75 -45.8 -30.75 -44.5 -32.4 -38.2 -40.7 -31.3 -48.5 L-28.15 -52.0 Q-29.05 -54.1 -28.9 -56.2 -30.55 -60.35 -32.45 -64.35 L-32.75 -65.4 -36.45 -74.05 Q-37.45 -76.35 -37.4 -78.9 -37.35 -81.0 -36.1 -81.9 L-34.45 -84.35 -23.2 -97.95 -16.5 -106.0 -15.65 -106.95 Q-25.2 -110.9 -35.1 -113.85 L-35.8 -114.05 Q-40.2 -109.7 -46.1 -112.5 -47.15 -113.0 -47.4 -114.1 -49.0 -120.5 -42.35 -121.4 -32.05 -120.6 -22.5 -116.55 -16.5 -113.95 -10.4 -111.9 L-9.0 -112.85 -9.15 -114.75 Q-9.15 -119.65 -5.7 -123.1 -2.25 -126.55 2.65 -126.55 7.55 -126.55 11.0 -123.1 14.45 -119.65 14.45 -114.75 M-6.35 -106.8 L-5.85 -106.55 -6.2 -106.9 -6.3 -106.85 -6.35 -106.8" fill="#000000" fill-rule="evenodd" stroke="none"/>
  </g>
</svg>
