<?xml version="1.0" encoding="UTF-8" standalone="no"?>
<svg xmlns:ffdec="https://www.free-decompiler.com/flash" xmlns:xlink="http://www.w3.org/1999/xlink" ffdec:objectType="shape" height="101.2px" width="116.35px" xmlns="http://www.w3.org/2000/svg">
  <g transform="matrix(1.0, 0.0, 0.0, 1.0, 65.9, 86.8)">
    <path d="M4.9 -59.7 L3.9 -60.4 3.9 -60.3 3.1 -60.15 2.8 -59.7 2.45 -58.95 Q-4.1 -53.85 -11.5 -50.6 L-11.5 -49.8 -11.4 -49.0 Q-9.95 -48.2 -8.4 -47.6 L-8.0 -47.05 Q-3.5 -44.45 1.4 -43.0 3.1 -41.25 5.35 -42.5 L5.6 -43.3 Q6.35 -47.3 4.7 -50.7 L4.7 -51.1 4.7 -51.5 4.45 -51.9 4.15 -52.7 4.4 -53.1 Q5.7 -56.0 5.2 -59.35 L4.9 -59.7 M38.45 -79.75 L37.1 -77.4 36.9 -76.3 Q35.15 -72.4 36.7 -68.35 38.05 -67.95 38.15 -66.8 36.2 -65.95 33.7 -65.1 33.3 -64.6 33.3 -63.9 L32.95 -58.45 32.4 -58.05 Q26.8 -59.75 23.0 -56.75 L23.0 -55.95 23.0 -54.0 Q25.65 -51.95 28.25 -50.45 L28.25 -49.65 28.25 -47.7 Q29.05 -46.25 30.7 -46.15 35.35 -44.25 40.1 -42.5 L40.4 -42.2 Q40.95 -41.6 41.8 -41.45 L41.8 -40.4 41.95 -38.05 Q45.05 -35.0 49.0 -33.05 L49.15 -32.95 Q50.35 -32.15 50.45 -31.1 L50.3 -30.7 50.2 -29.95 49.95 -29.5 48.6 -27.2 46.8 -27.25 38.7 -26.55 38.45 -26.95 37.75 -28.1 37.1 -28.5 36.95 -28.85 35.3 -31.65 30.2 -36.25 Q26.95 -39.4 23.4 -38.3 19.35 -42.15 14.9 -45.25 L14.4 -45.05 13.85 -44.7 13.8 -44.0 16.35 -36.45 Q17.7 -34.05 19.75 -32.55 L19.7 -32.4 18.3 -31.35 18.4 -30.2 Q18.85 -27.7 18.8 -25.1 15.6 -25.35 12.75 -26.85 8.75 -29.0 5.75 -26.9 L5.75 -26.15 Q5.75 -24.7 5.2 -23.4 L3.65 -21.8 3.65 -21.05 Q3.75 -18.45 4.45 -16.85 L4.2 -16.7 3.1 -15.65 3.1 -14.5 Q2.95 -12.25 3.4 -10.2 L6.8 -6.65 6.6 -6.3 5.75 -5.1 5.75 -3.9 Q5.85 -2.1 5.6 -0.4 L5.2 0.0 Q0.65 -2.0 -4.05 -3.5 L-4.25 -3.85 -5.0 -5.5 -5.75 -6.25 -5.75 -6.65 -5.75 -7.05 -7.1 -9.0 Q-8.05 -10.5 -9.75 -10.7 -17.65 -11.7 -24.1 -6.25 L-24.1 -5.5 -24.1 -4.3 Q-22.35 -2.6 -20.95 -0.75 L-20.95 0.0 -20.8 2.75 -18.85 4.7 Q-20.75 5.2 -22.0 6.8 L-22.0 7.6 -22.0 8.4 Q-24.8 7.85 -27.45 6.6 -32.7 4.05 -35.2 8.5 -40.25 11.8 -45.5 14.4 L-45.4 12.85 Q-44.7 8.25 -45.0 3.4 -45.35 3.0 -45.75 2.9 L-65.9 -2.6 Q-56.65 -2.75 -47.35 -3.05 L-46.45 -3.25 Q-46.0 -3.75 -46.0 -4.45 L-46.05 -8.35 -43.95 -8.35 Q-43.05 -7.05 -41.45 -6.9 -39.75 -4.95 -37.55 -5.85 -36.6 -8.0 -34.75 -9.2 L-33.9 -9.6 Q-29.25 -10.8 -26.05 -13.7 -25.5 -13.95 -25.0 -14.25 L-24.75 -14.65 Q-23.4 -17.85 -21.35 -20.5 L-18.3 -22.45 Q-15.3 -24.5 -14.15 -27.45 L-18.05 -31.75 -23.8 -38.05 -23.25 -39.25 Q-22.1 -42.6 -22.5 -46.25 -25.05 -49.45 -27.2 -52.95 L-26.3 -53.2 Q-24.2 -53.6 -22.9 -54.75 -20.4 -57.0 -18.45 -60.15 -12.85 -59.85 -10.5 -64.6 L-10.45 -64.95 Q-10.2 -66.55 -8.9 -67.7 L-8.9 -68.1 Q-8.9 -69.35 -7.85 -70.05 L6.0 -70.65 Q6.25 -70.65 6.5 -70.85 L6.7 -71.2 9.0 -74.4 Q14.45 -73.85 17.65 -77.9 L17.75 -78.7 17.75 -79.5 18.05 -79.9 18.3 -80.25 18.3 -80.65 18.3 -81.05 18.55 -81.45 18.8 -81.85 18.85 -82.2 19.05 -83.0 19.6 -83.4 19.75 -83.8 Q20.35 -85.4 21.7 -86.55 22.15 -86.85 22.75 -86.75 25.6 -86.3 27.6 -84.8 32.35 -81.35 39.2 -81.6 L38.95 -81.3 38.7 -80.9 38.7 -80.55 38.7 -80.15 38.45 -79.75" fill="#fafa7a" fill-rule="evenodd" stroke="none"/>
  </g>
</svg>
