<?xml version="1.0" encoding="UTF-8" standalone="no"?>
<svg xmlns:ffdec="https://www.free-decompiler.com/flash" xmlns:xlink="http://www.w3.org/1999/xlink" ffdec:objectType="shape" height="88.65px" width="87.45px" xmlns="http://www.w3.org/2000/svg">
  <g transform="matrix(1.0, 0.0, 0.0, 1.0, 39.9, 83.8)">
    <path d="M32.4 -80.35 Q35.85 -76.9 35.85 -72.0 35.85 -67.1 32.4 -63.65 L30.2 -61.85 29.15 -61.3 Q28.65 -60.25 26.8 -59.8 L25.3 -59.5 24.5 -59.65 24.15 -59.25 24.1 -59.25 23.55 -59.3 23.2 -59.65 16.95 -62.65 18.35 -60.35 19.2 -58.55 Q22.55 -52.35 27.35 -47.2 29.3 -45.15 31.7 -43.6 L47.1 -33.65 Q47.55 -33.35 47.55 -32.75 47.6 -28.6 43.25 -28.65 41.9 -28.65 40.75 -29.5 L36.95 -32.35 Q32.65 -35.75 27.8 -38.45 22.6 -41.35 19.45 -46.25 L13.35 -55.5 Q12.5 -46.15 12.9 -36.55 17.25 -37.45 19.15 -33.8 19.55 -33.0 19.45 -32.1 19.05 -29.15 16.1 -28.7 9.35 -27.7 7.25 -33.55 L7.2 -33.7 6.55 -31.85 Q2.3 -22.6 -2.7 -13.6 -0.05 -10.15 3.55 -7.55 4.35 -6.95 4.25 -5.95 3.75 -1.65 -0.4 -3.4 -4.0 -5.0 -6.75 -8.0 -8.7 -10.15 -9.7 -12.75 -10.1 -13.75 -9.6 -14.7 L-8.2 -16.9 -7.5 -18.3 -8.2 -18.0 Q-17.75 -13.75 -25.65 -6.9 L-30.2 -2.75 Q-25.4 -1.95 -20.85 -0.3 -20.3 -0.1 -20.1 0.55 -18.9 4.8 -23.3 4.85 L-25.15 4.7 Q-31.8 3.75 -38.25 2.0 L-38.8 1.6 Q-41.45 -1.75 -37.7 -4.7 L-35.9 -6.2 Q-29.45 -11.95 -22.45 -16.95 L-18.45 -19.7 Q-14.35 -22.45 -9.9 -24.55 -11.4 -28.25 -14.1 -31.8 L-20.4 -40.2 Q-22.5 -41.7 -23.3 -43.8 -23.9 -44.15 -24.2 -44.9 -25.7 -48.35 -22.5 -50.6 L-19.9 -52.6 Q-12.2 -59.35 -3.15 -64.25 4.35 -68.35 12.3 -71.2 L12.25 -72.0 Q12.25 -76.9 15.7 -80.35 19.15 -83.8 24.05 -83.8 28.95 -83.8 32.4 -80.35 M7.45 -59.45 Q7.5 -61.1 7.9 -62.65 L3.35 -60.55 Q-5.75 -56.0 -13.9 -49.45 L-14.8 -48.65 -8.75 -46.4 -8.55 -46.3 Q-1.2 -44.25 4.85 -39.55 L6.5 -37.8 6.5 -38.25 Q6.7 -47.15 7.25 -56.0 L7.45 -59.45 M0.35 -33.55 L0.55 -34.1 0.65 -34.35 Q-2.6 -37.5 -6.75 -38.85 -7.7 -39.15 -8.35 -39.9 L-13.5 -41.55 Q-8.0 -34.25 -3.3 -26.3 L0.3 -32.75 0.35 -33.55" fill="#000000" fill-rule="evenodd" stroke="none"/>
  </g>
</svg>
