<?xml version="1.0" encoding="UTF-8" standalone="no"?>
<svg xmlns:ffdec="https://www.free-decompiler.com/flash" xmlns:xlink="http://www.w3.org/1999/xlink" ffdec:objectType="shape" height="63.4px" width="98.5px" xmlns="http://www.w3.org/2000/svg">
  <g transform="matrix(1.0, 0.0, 0.0, 1.0, 51.45, 57.95)">
    <path d="M33.35 -54.5 Q36.8 -51.05 36.8 -46.15 36.8 -41.25 33.35 -37.8 L31.15 -36.0 30.1 -35.45 Q29.6 -34.4 27.75 -33.95 L26.25 -33.65 25.45 -33.8 25.1 -33.4 25.05 -33.4 24.5 -33.45 24.15 -33.8 23.3 -34.2 26.3 -26.3 Q28.4 -20.3 33.85 -16.45 L37.55 -13.25 Q41.85 -9.6 46.45 -6.55 47.05 -6.2 47.05 -5.5 47.15 -1.5 42.95 -2.2 40.15 -2.7 38.0 -4.5 31.0 -10.45 24.25 -16.85 21.4 -19.55 20.35 -23.1 18.3 -29.85 15.2 -36.3 L14.45 -38.05 Q13.3 -30.4 14.3 -22.55 14.45 -21.6 15.05 -20.8 L18.1 -16.55 Q20.2 -13.45 23.0 -10.95 25.3 -8.85 26.85 -6.1 31.15 -5.65 31.45 -1.85 31.55 -0.8 30.7 -0.15 27.9 2.05 24.5 0.2 23.75 -0.25 23.15 -1.0 19.1 -6.25 14.5 -11.05 11.65 -14.05 9.35 -17.45 8.35 -18.95 7.95 -20.6 7.45 -22.35 7.4 -24.2 7.25 -31.9 8.25 -39.3 8.65 -42.1 9.35 -44.75 0.75 -45.05 -7.5 -42.45 -16.0 -39.7 -23.8 -35.45 L-28.65 -32.5 -28.1 -32.0 Q-27.85 -33.4 -26.3 -33.75 L-21.5 -34.9 -4.4 -34.9 Q-0.1 -34.9 0.0 -31.1 0.1 -27.9 -0.8 -24.9 L-1.2 -23.15 Q-2.3 -16.7 -4.3 -10.45 L-4.3 -10.15 Q-4.55 -7.9 -5.15 -5.7 L-5.45 -3.55 Q-2.95 -2.65 0.55 -2.25 5.3 -1.7 3.9 2.35 3.45 3.8 1.95 3.8 L-5.2 3.45 -10.35 2.75 Q-13.2 2.2 -12.75 -0.6 L-11.75 -5.7 -8.4 -20.25 Q-7.45 -24.3 -6.85 -28.45 L-21.0 -28.4 -23.45 -28.05 -24.55 -27.85 -21.05 -23.45 Q-18.75 -20.55 -17.35 -17.25 -14.3 -12.3 -13.2 -6.85 -13.0 -6.0 -13.65 -5.3 -14.65 -4.1 -16.25 -4.05 L-40.25 -2.4 Q-35.5 -1.75 -31.4 0.35 -30.3 0.95 -30.3 2.2 -30.4 5.75 -34.05 5.45 -44.05 4.5 -51.0 -2.15 -51.55 -2.7 -51.45 -3.55 -51.1 -7.25 -46.8 -7.9 L-43.2 -8.35 -32.45 -9.2 -20.9 -10.35 Q-24.55 -18.2 -30.4 -24.7 -33.2 -27.8 -35.6 -31.15 -35.95 -31.65 -35.9 -32.35 -35.65 -34.0 -34.5 -34.7 L-34.35 -35.15 Q-34.0 -36.15 -33.15 -36.8 -25.35 -43.45 -15.4 -46.35 -10.95 -47.6 -6.5 -49.0 -0.45 -50.85 5.65 -51.15 L14.15 -50.8 Q15.0 -52.85 16.65 -54.5 20.1 -57.95 25.0 -57.95 29.9 -57.95 33.35 -54.5" fill="#000000" fill-rule="evenodd" stroke="none"/>
  </g>
</svg>
