<?xml version="1.0" encoding="UTF-8" standalone="no"?>
<svg xmlns:ffdec="https://www.free-decompiler.com/flash" xmlns:xlink="http://www.w3.org/1999/xlink" ffdec:objectType="shape" height="88.6px" width="124.75px" xmlns="http://www.w3.org/2000/svg">
  <g transform="matrix(1.0, 0.0, 0.0, 1.0, 73.1, 68.05)">
    <path d="M-39.9 -56.6 L-39.5 -57.0 -38.85 -57.8 Q-36.95 -57.35 -35.45 -55.95 -31.05 -51.75 -25.75 -51.25 L-25.25 -51.9 Q-21.8 -57.1 -17.5 -61.7 L-17.3 -62.05 Q-15.65 -63.8 -14.5 -66.0 L-13.85 -66.45 Q-12.95 -67.1 -12.3 -68.0 L-11.95 -68.0 Q-10.55 -63.25 -7.8 -58.95 -7.25 -58.15 -6.35 -58.0 -2.1 -57.35 2.2 -59.45 4.1 -60.4 6.1 -61.2 L11.9 -63.25 Q11.3 -61.75 10.95 -60.15 9.85 -55.4 10.35 -50.35 L10.55 -49.9 11.4 -48.35 11.4 -47.95 11.4 -47.2 12.1 -46.65 Q17.15 -45.1 22.25 -47.45 L23.15 -47.3 23.4 -47.05 Q24.35 -45.8 25.75 -45.25 L26.2 -45.45 Q27.55 -46.45 29.15 -47.05 L29.4 -47.35 30.1 -48.1 32.8 -48.1 32.8 -47.85 32.8 -47.05 33.35 -46.25 33.9 -45.85 43.8 -44.7 43.6 -44.35 42.9 -43.55 42.8 -43.15 42.75 -42.75 Q41.95 -42.35 41.7 -41.55 L41.7 -40.8 Q41.65 -40.15 41.85 -39.6 44.7 -38.25 46.95 -36.05 L47.0 -34.9 46.8 -33.35 46.2 -33.05 Q45.25 -32.55 44.85 -31.65 L44.85 -30.45 44.85 -28.9 45.1 -28.45 Q45.65 -27.15 46.95 -26.15 43.15 -25.0 40.65 -21.8 L40.65 -20.65 Q40.6 -19.65 40.8 -18.7 41.85 -17.85 43.3 -17.75 L43.55 -17.55 Q44.5 -16.8 44.85 -15.95 L44.85 -14.75 44.85 -13.2 45.15 -12.85 Q48.75 -9.05 51.65 -4.95 L51.45 -4.6 50.1 -3.0 Q50.1 -1.6 50.25 -0.25 L51.15 6.8 38.45 6.6 36.85 6.35 34.1 5.3 Q29.65 2.75 28.1 7.35 L27.2 7.45 Q25.8 6.45 24.05 6.4 15.0 -0.75 3.8 2.35 L3.6 3.15 3.55 4.7 5.05 6.1 Q10.0 12.65 13.1 20.0 L13.45 20.4 11.4 20.55 Q1.15 17.35 -7.7 11.8 L-8.2 11.95 -8.75 12.3 -8.9 13.1 -9.15 14.65 -9.45 15.05 -10.6 16.25 -11.5 16.35 -13.3 15.25 -14.8 13.85 Q-16.35 11.9 -18.5 11.05 -23.9 8.8 -30.25 10.0 -33.25 10.6 -36.05 11.9 -39.8 13.65 -42.5 14.4 L-42.5 12.85 -42.5 9.7 Q-42.8 9.3 -43.2 9.2 -52.45 7.0 -61.4 10.55 -67.5 13.0 -73.1 16.5 L-71.65 14.8 -69.6 12.4 Q-65.45 8.3 -64.6 3.15 L-65.55 1.9 Q-69.5 -2.8 -72.3 -8.2 -67.25 -6.7 -62.25 -6.9 -61.55 -9.55 -61.9 -12.4 -62.95 -21.75 -66.05 -30.85 L-61.3 -27.15 -54.95 -21.85 Q-51.0 -18.5 -46.55 -18.4 -45.95 -19.3 -45.85 -20.35 L-45.1 -26.25 -44.7 -26.65 Q-43.1 -26.55 -41.85 -27.3 -41.3 -28.0 -41.5 -28.85 -43.05 -35.7 -48.9 -40.25 -45.3 -39.1 -42.25 -40.5 -41.8 -42.05 -41.95 -43.65 -42.25 -48.1 -41.45 -52.3 L-41.2 -52.7 -40.9 -53.05 -40.9 -53.45 -40.9 -54.25 -40.65 -54.65 -40.0 -55.4 -39.9 -55.8 -39.9 -56.6" fill="#fafa7a" fill-rule="evenodd" stroke="none"/>
  </g>
</svg>
