<?xml version="1.0" encoding="UTF-8" standalone="no"?>
<svg xmlns:ffdec="https://www.free-decompiler.com/flash" xmlns:xlink="http://www.w3.org/1999/xlink" ffdec:objectType="shape" height="50.05px" width="100.45px" xmlns="http://www.w3.org/2000/svg">
  <g transform="matrix(1.0, 0.0, 0.0, 1.0, 52.45, 45.75)">
    <path d="M-52.4 -4.75 Q-52.0 -6.8 -49.95 -6.95 L-36.15 -6.3 -22.4 -5.4 Q-24.9 -14.85 -29.05 -23.55 L-30.35 -26.85 Q-31.55 -30.45 -30.65 -33.9 -30.95 -34.55 -31.05 -35.45 -31.3 -38.0 -28.8 -38.95 -21.1 -41.85 -12.7 -41.8 L-3.5 -42.65 Q5.9 -43.3 15.1 -41.65 L19.6 -41.2 20.75 -41.15 21.75 -42.3 Q25.2 -45.75 30.1 -45.75 35.0 -45.75 38.45 -42.3 41.9 -38.85 41.9 -33.95 41.9 -29.05 38.45 -25.6 L36.25 -23.8 35.2 -23.25 Q34.7 -22.2 32.85 -21.75 L31.9 -21.55 42.65 -12.2 46.4 -8.4 Q47.7 -6.8 47.95 -4.75 48.35 -1.3 44.5 -0.95 40.3 -0.6 39.4 -4.1 39.2 -4.9 39.5 -5.65 32.05 -13.15 24.0 -20.2 20.35 -23.4 17.7 -27.3 L17.2 -28.15 Q13.65 -24.1 11.95 -19.2 11.35 -16.2 10.15 -13.35 L9.55 -12.1 20.6 -8.15 Q24.75 -8.15 27.5 -5.5 28.45 -4.6 28.0 -3.35 27.3 -1.3 25.1 -1.3 19.85 -1.3 14.95 -3.3 9.55 -5.5 3.95 -6.9 2.45 -7.25 2.2 -8.8 1.65 -12.45 3.85 -15.55 4.65 -16.7 5.0 -18.05 5.6 -20.55 6.75 -22.8 9.3 -29.65 14.2 -35.3 L11.85 -35.65 Q2.6 -37.2 -6.7 -36.05 L-12.45 -35.65 -18.15 -35.15 -3.8 -34.25 Q0.55 -33.8 4.4 -32.4 5.0 -32.2 5.25 -31.6 5.95 -29.95 4.85 -28.45 L4.9 -28.2 4.7 -27.4 4.6 -27.1 4.15 -26.05 3.1 -24.45 Q2.85 -22.95 2.15 -21.55 -1.4 -14.15 -5.75 -7.1 L-7.1 -4.65 -7.5 -4.1 -7.55 -3.8 -7.75 -3.05 -7.9 -2.75 -8.0 -2.6 -0.5 -1.25 0.45 -0.45 Q1.9 3.25 -2.1 4.0 L-7.35 4.15 -11.8 3.5 Q-16.35 2.7 -15.05 -1.8 L-14.2 -4.2 Q-11.2 -11.45 -7.05 -18.15 -4.3 -22.55 -2.45 -27.5 -5.7 -28.4 -9.7 -28.35 -17.1 -28.25 -24.25 -29.6 -20.05 -20.3 -17.25 -10.5 L-15.95 -5.5 Q-13.3 -1.25 -17.7 -0.25 -23.0 0.9 -28.55 0.65 L-36.95 -0.15 -39.25 0.0 Q-38.15 4.35 -42.9 4.2 L-44.65 3.75 Q-49.55 1.0 -52.25 -3.65 -52.5 -4.1 -52.4 -4.75" fill="#000000" fill-rule="evenodd" stroke="none"/>
  </g>
</svg>
