<?xml version="1.0" encoding="UTF-8" standalone="no"?>
<svg xmlns:ffdec="https://www.free-decompiler.com/flash" xmlns:xlink="http://www.w3.org/1999/xlink" ffdec:objectType="shape" height="97.3px" width="136.5px" xmlns="http://www.w3.org/2000/svg">
  <g transform="matrix(1.0, 0.0, 0.0, 1.0, 77.0, 67.85)">
    <path d="M-17.4 -56.6 L-16.65 -56.1 Q-12.3 -54.7 -8.1 -58.3 -2.15 -63.35 4.45 -67.05 L5.45 -67.5 5.9 -67.85 Q8.45 -63.6 11.0 -58.3 11.55 -57.15 12.7 -57.2 17.1 -57.3 21.4 -58.7 L30.2 -61.05 30.15 -59.85 29.65 -56.6 Q29.05 -54.15 29.3 -51.65 L29.7 -51.45 53.85 -50.5 59.5 -50.2 57.65 -48.4 Q54.6 -45.65 52.45 -42.5 L50.75 -41.1 Q48.65 -39.65 47.45 -37.5 L47.55 -35.55 47.85 -33.2 47.05 -32.35 45.4 -30.05 45.35 -28.5 Q45.3 -27.5 45.5 -26.55 L46.2 -25.7 46.55 -24.95 45.85 -24.65 Q44.1 -24.2 42.75 -23.0 L42.75 -21.8 Q42.7 -21.0 42.9 -20.25 L43.55 -19.4 Q44.6 -17.6 46.95 -17.25 L46.95 -17.0 47.1 -16.6 48.0 -15.8 49.55 -13.85 49.55 -10.7 49.55 -6.8 50.35 -5.65 50.75 -4.05 51.9 -2.85 Q52.7 -2.05 52.85 -0.9 L53.5 -0.05 53.75 0.65 Q48.1 4.5 41.2 3.8 L41.0 3.6 Q39.95 2.7 38.6 2.65 L37.65 0.35 Q36.2 -3.35 33.35 -0.5 L33.35 -0.1 33.3 0.25 33.2 0.65 32.4 1.2 Q31.7 1.85 30.75 1.9 26.8 2.0 25.4 4.9 22.25 11.35 21.2 18.45 L20.8 18.85 20.65 19.1 18.65 13.45 Q16.65 7.8 13.1 3.3 L13.0 2.9 12.9 2.5 12.8 2.1 Q12.0 0.8 10.55 0.7 6.65 0.35 6.15 4.05 4.7 5.8 4.15 8.0 3.45 10.7 3.25 13.2 L2.8 12.9 Q-1.55 8.6 -5.35 13.1 -6.45 16.3 -6.65 19.75 L-7.2 29.45 -7.6 28.85 Q-9.25 25.25 -11.7 22.1 L-18.3 13.2 -18.95 12.85 -19.6 12.45 -21.0 10.15 Q-23.9 6.25 -27.6 3.95 -28.0 4.05 -28.3 4.3 L-28.9 5.0 -29.0 6.55 -29.5 9.0 Q-30.2 12.1 -31.5 14.8 L-31.5 15.2 -31.5 15.6 -31.5 15.95 -33.25 12.8 Q-36.2 7.0 -41.05 10.1 L-45.7 13.0 Q-51.6 16.75 -57.65 18.2 -57.6 14.2 -57.85 10.3 -58.25 4.95 -59.25 -0.25 -65.35 -3.75 -72.0 -6.7 -75.4 -8.2 -77.0 -10.05 -70.75 -11.75 -64.25 -13.05 -62.65 -13.4 -61.3 -14.2 -58.05 -16.2 -59.9 -20.4 L-60.5 -21.2 -61.3 -22.35 Q-61.25 -22.95 -61.5 -23.5 -62.05 -24.8 -62.9 -25.85 L-62.9 -26.25 -62.9 -26.65 -62.9 -27.05 -62.1 -26.9 -61.45 -26.8 Q-58.9 -24.7 -55.7 -24.15 -55.0 -23.4 -53.95 -23.1 L-49.45 -21.55 Q-45.55 -19.95 -41.7 -19.75 L-41.35 -20.0 -41.1 -20.4 -40.9 -20.75 Q-40.9 -21.5 -41.6 -21.9 -48.85 -25.8 -54.65 -31.35 -47.2 -30.3 -43.0 -35.8 -42.85 -38.8 -43.55 -41.65 -44.7 -46.1 -45.1 -50.7 -39.7 -47.1 -34.0 -48.75 L-30.15 -54.6 Q-26.0 -60.05 -23.65 -66.4 -21.15 -61.15 -17.4 -56.6" fill="#fafa7a" fill-rule="evenodd" stroke="none"/>
  </g>
</svg>
