<?xml version="1.0" encoding="UTF-8" standalone="no"?>
<svg xmlns:ffdec="https://www.free-decompiler.com/flash" xmlns:xlink="http://www.w3.org/1999/xlink" ffdec:objectType="shape" height="154.5px" width="121.85px" xmlns="http://www.w3.org/2000/svg">
  <g transform="matrix(1.0, 0.0, 0.0, 1.0, 35.9, 133.8)">
    <path d="M25.7 -130.35 Q28.6 -128.85 28.95 -132.55 29.75 -131.4 30.7 -130.45 L30.75 -130.2 Q30.7 -129.65 31.0 -129.3 L31.6 -128.7 31.6 -128.4 31.7 -127.8 Q32.2 -127.25 32.95 -127.35 L35.6 -128.8 Q36.85 -130.3 38.65 -131.05 L39.05 -130.45 39.05 -129.9 39.05 -129.3 39.15 -124.3 43.85 -124.2 43.6 -123.1 43.0 -121.65 40.25 -116.05 40.25 -115.75 40.25 -114.3 Q40.85 -113.4 41.85 -113.25 44.45 -112.9 44.75 -111.35 41.9 -109.0 39.05 -106.95 L39.05 -106.65 39.05 -106.05 Q41.25 -104.1 44.45 -105.1 L44.35 -104.95 44.2 -104.65 Q44.1 -104.05 44.25 -103.5 44.75 -102.9 45.55 -103.0 49.8 -104.5 52.6 -108.3 54.3 -108.05 55.15 -109.3 L55.1 -109.55 Q55.05 -110.1 55.35 -110.45 L56.55 -111.15 Q60.45 -114.05 64.15 -116.15 64.7 -114.15 64.85 -112.05 L65.05 -109.05 Q65.2 -106.2 65.85 -103.5 L66.7 -103.0 Q67.95 -103.85 69.35 -104.45 73.45 -106.15 77.1 -108.4 76.95 -106.55 77.3 -104.8 L77.45 -102.5 Q77.35 -99.55 78.3 -96.9 L79.2 -95.95 Q82.85 -93.45 85.95 -90.35 79.1 -87.9 72.4 -85.15 L71.25 -83.8 71.2 -83.5 71.3 -81.15 Q72.1 -79.2 73.2 -77.3 73.35 -76.05 74.05 -74.95 L67.15 -75.55 Q64.65 -75.9 63.4 -74.05 L63.05 -72.6 62.85 -71.45 Q62.25 -68.65 62.1 -65.85 L61.7 -65.35 Q58.8 -66.3 56.3 -68.05 54.0 -69.65 52.1 -71.6 48.7 -75.05 46.1 -72.0 L46.1 -71.7 46.1 -71.15 43.75 -67.9 Q40.55 -68.55 38.1 -71.15 35.7 -73.8 33.15 -72.0 L33.15 -71.7 Q32.8 -69.05 33.95 -66.7 L26.3 -66.25 Q25.45 -66.15 24.95 -65.45 L24.95 -65.15 24.95 -63.95 25.45 -63.35 Q27.05 -60.7 29.25 -58.75 L30.4 -57.0 30.05 -56.4 30.0 -56.1 29.95 -55.55 Q28.15 -53.9 28.45 -51.4 31.9 -48.5 35.9 -46.9 L35.9 -46.6 35.9 -46.0 35.5 -45.45 Q35.65 -44.5 35.2 -43.7 L33.55 -41.4 Q31.35 -38.7 29.65 -35.7 L29.65 -35.4 Q29.55 -34.5 29.75 -33.65 33.05 -31.6 36.9 -30.7 37.6 -30.35 37.9 -29.65 L37.85 -29.35 37.25 -28.2 Q35.5 -25.25 33.15 -22.6 L33.15 -22.3 Q33.05 -21.2 33.35 -20.2 L40.6 -17.55 Q39.6 -16.8 39.25 -15.5 38.05 -15.25 37.5 -14.35 L37.45 -14.05 37.3 -13.45 36.7 -12.85 36.7 -12.55 36.8 -11.7 Q45.7 -9.9 54.95 -9.0 57.9 -8.75 59.25 -7.25 58.3 -6.4 57.1 -5.85 52.25 -3.55 48.45 0.1 L48.45 0.4 48.55 2.45 Q49.35 3.15 49.25 4.2 L53.55 8.6 41.6 8.95 Q38.35 9.05 36.3 11.15 L36.3 11.45 36.3 12.95 31.7 12.6 27.4 11.9 Q21.15 10.8 21.4 16.55 L20.4 16.95 15.2 14.1 Q14.25 12.4 12.2 12.35 10.95 12.95 10.4 14.3 L10.4 14.9 Q10.25 17.7 8.55 19.7 L7.9 19.05 3.05 13.3 2.95 12.75 2.75 12.45 Q2.3 11.85 1.7 12.2 -0.8 13.6 -2.05 16.35 L-2.15 16.65 -2.25 17.25 Q-4.05 19.95 -6.95 20.7 -8.0 20.3 -8.6 19.45 L-10.2 16.9 Q-11.7 14.05 -13.5 11.35 L-13.5 11.05 -13.5 10.75 Q-16.2 9.2 -19.0 11.35 L-19.6 12.15 -22.15 13.4 -22.15 11.65 -22.15 10.5 Q-22.1 7.65 -22.55 4.9 -22.8 4.6 -23.05 4.6 -27.75 4.35 -31.95 6.55 L-29.7 -0.8 Q-28.65 -3.95 -28.8 -7.25 -29.1 -7.9 -29.8 -8.05 L-35.9 -7.25 Q-34.1 -10.35 -31.4 -12.8 L-29.6 -14.35 Q-25.5 -17.85 -24.5 -22.6 -25.9 -23.7 -27.85 -24.05 L-26.45 -25.5 Q-25.8 -25.65 -25.2 -26.0 -21.15 -28.05 -17.55 -30.7 -17.05 -33.6 -20.1 -34.55 L-21.75 -36.6 Q-18.65 -37.85 -15.4 -38.2 -9.75 -38.75 -7.65 -43.0 -8.4 -44.35 -9.9 -44.75 -11.65 -47.05 -14.1 -48.55 L-15.3 -50.05 -10.2 -54.15 -9.0 -54.75 -8.1 -56.2 -8.05 -56.5 Q-7.95 -57.1 -8.1 -57.7 -10.5 -60.35 -13.8 -61.6 L-12.55 -62.5 Q-8.15 -64.85 -4.5 -68.1 L-4.45 -68.4 Q-4.35 -69.35 -4.8 -70.15 L-9.1 -73.1 Q-7.9 -74.25 -7.25 -75.75 -11.05 -79.0 -15.75 -80.95 -13.95 -82.15 -11.8 -82.8 -7.1 -84.2 -3.7 -87.3 L-3.7 -87.6 -3.7 -88.5 -8.7 -92.5 -7.5 -93.05 Q-3.4 -94.6 0.1 -96.9 L0.2 -97.2 Q0.3 -98.6 -0.2 -99.85 -1.15 -101.45 -2.85 -101.95 -3.3 -102.2 -3.3 -102.7 L-3.15 -103.0 Q-2.85 -103.55 -2.95 -104.2 L-1.65 -105.95 -0.75 -106.55 Q0.4 -107.85 0.1 -109.5 -1.95 -112.1 -4.7 -114.1 L-4.4 -114.95 -3.95 -115.3 Q-0.55 -118.05 3.15 -120.25 L3.25 -120.55 3.35 -121.45 Q2.4 -122.45 2.0 -123.8 -0.25 -125.6 -1.85 -127.9 L14.15 -129.7 Q14.3 -130.35 14.75 -130.85 L14.75 -131.15 Q14.9 -132.3 15.5 -133.2 L15.5 -133.5 15.5 -133.8 Q16.75 -133.15 18.75 -133.1 22.15 -131.5 25.7 -130.35" fill="#ffff00" fill-opacity="0.5019608" fill-rule="evenodd" stroke="none"/>
  </g>
</svg>
