<?xml version="1.0" encoding="UTF-8" standalone="no"?>
<svg xmlns:ffdec="https://www.free-decompiler.com/flash" xmlns:xlink="http://www.w3.org/1999/xlink" ffdec:objectType="shape" height="160.25px" width="101.8px" xmlns="http://www.w3.org/2000/svg">
  <g transform="matrix(1.0, 0.0, 0.0, 1.0, 30.0, 133.9)">
    <path d="M27.1 -127.35 L27.45 -127.5 35.15 -133.9 Q35.65 -132.1 35.95 -129.4 36.5 -125.05 36.3 -120.55 L36.5 -120.25 36.7 -119.95 36.75 -119.4 36.8 -118.8 42.9 -119.0 Q42.25 -118.05 41.95 -117.0 41.15 -114.6 39.85 -112.5 39.95 -111.7 39.45 -111.05 38.4 -109.55 38.75 -107.8 42.25 -106.5 45.35 -107.05 L45.1 -106.75 Q38.8 -101.5 32.8 -95.75 L32.8 -95.15 32.8 -94.55 32.95 -94.25 Q33.2 -93.35 34.15 -93.2 36.9 -94.45 39.55 -94.85 L40.3 -94.75 Q44.05 -96.05 47.9 -97.6 L48.4 -98.0 Q50.2 -99.0 52.15 -99.8 55.75 -101.35 58.65 -101.35 L58.65 -98.1 58.75 -92.5 Q65.35 -91.15 71.6 -93.7 L67.8 -86.9 Q65.65 -82.85 65.35 -78.5 L71.8 -73.85 Q71.1 -73.45 70.3 -73.25 65.75 -72.15 62.2 -69.75 62.0 -68.5 62.35 -67.35 63.1 -64.9 64.55 -62.7 L64.55 -62.4 64.65 -61.8 60.75 -63.0 52.2 -66.25 Q47.45 -68.05 43.75 -65.55 L43.75 -65.25 43.75 -64.65 42.9 -63.75 Q42.5 -63.1 42.6 -62.3 L41.8 -62.0 Q37.1 -63.6 32.6 -63.4 32.3 -61.9 33.35 -60.55 L42.4 -48.65 Q38.65 -48.15 35.5 -46.3 L35.5 -45.7 35.5 -45.15 Q36.65 -43.7 37.25 -41.95 38.4 -38.35 38.95 -34.85 38.3 -34.6 37.8 -34.15 L32.6 -33.75 32.2 -33.55 Q31.85 -32.9 31.95 -32.1 32.1 -31.2 32.4 -30.3 L32.9 -29.4 Q33.3 -28.3 34.25 -27.7 L34.3 -27.4 34.35 -27.1 34.95 -26.55 Q35.7 -25.9 35.5 -25.05 L31.7 -21.9 Q29.8 -20.6 28.85 -19.05 29.65 -17.75 31.25 -18.3 40.5 -21.4 50.05 -20.1 L49.25 -18.1 Q48.45 -16.4 48.45 -14.55 L47.3 -12.4 Q46.25 -9.85 44.55 -7.75 L44.55 -7.2 44.55 -6.3 Q45.7 -4.75 47.6 -4.7 L56.2 -0.3 Q52.85 1.85 50.05 4.7 L50.0 5.55 50.15 6.75 50.45 7.0 Q55.45 10.4 59.75 14.7 51.45 12.7 43.15 13.5 42.85 14.9 43.05 16.45 43.45 19.05 43.35 21.75 38.8 19.3 33.95 17.25 L33.45 16.8 Q32.25 15.75 31.0 16.65 L30.9 16.95 30.8 17.55 30.6 17.85 30.4 18.15 30.35 21.1 29.65 26.35 Q27.95 25.65 26.65 24.25 22.9 20.2 20.05 15.7 17.6 11.9 15.2 15.2 L15.1 15.5 14.95 16.05 Q14.3 16.35 13.95 16.95 L13.95 17.25 13.95 17.55 13.3 18.5 Q12.2 20.1 10.7 21.05 L9.6 19.15 Q8.4 17.45 8.05 15.5 L7.85 15.2 Q7.4 14.6 6.7 14.7 L5.85 15.25 Q5.05 15.85 4.55 16.75 L4.65 10.7 4.9 -0.2 4.4 -0.7 2.95 -0.8 1.2 0.7 Q-2.55 3.15 -5.65 6.15 L-6.05 6.2 -6.25 6.05 -7.85 0.8 -8.05 -0.1 Q-8.2 -4.3 -11.95 -3.95 -15.85 -1.1 -19.4 0.55 L-18.25 -3.55 -15.85 -11.2 Q-16.2 -11.8 -16.85 -12.05 L-19.65 -12.8 Q-24.85 -13.7 -30.0 -15.1 -26.1 -17.75 -21.9 -19.7 -15.9 -22.45 -11.65 -27.1 L-11.55 -27.95 -11.55 -28.85 -12.25 -29.75 -15.95 -33.25 Q-9.55 -35.6 -3.7 -39.05 L-3.7 -39.65 -3.7 -40.25 -4.15 -40.8 -6.85 -43.85 -5.45 -45.7 Q-2.6 -48.55 -2.55 -52.4 -5.45 -54.5 -9.3 -54.25 L-9.6 -54.55 Q-8.8 -55.1 -8.5 -55.9 L-6.05 -60.75 -5.55 -61.3 -4.9 -62.2 -4.85 -62.5 -4.7 -63.1 -4.35 -63.4 -4.2 -63.65 Q-4.05 -64.1 -4.05 -64.55 L-4.1 -65.75 Q-4.4 -66.35 -5.1 -66.4 L-19.3 -66.8 -15.1 -70.85 Q-7.0 -78.3 -1.75 -87.7 -1.7 -88.15 -1.95 -88.5 -3.25 -90.25 -4.9 -91.65 L-4.15 -92.7 -0.1 -97.8 0.4 -98.05 0.8 -98.3 1.05 -99.45 1.0 -100.65 0.45 -101.1 Q-1.85 -102.2 -3.7 -103.8 L-3.25 -104.15 Q0.45 -108.05 4.8 -111.45 L4.95 -112.3 4.9 -113.2 Q0.1 -118.0 -5.5 -121.85 5.1 -122.0 15.3 -123.8 L15.6 -125.25 Q15.65 -126.35 15.3 -127.35 L14.95 -127.65 14.75 -127.9 14.75 -128.2 14.85 -128.8 15.1 -129.1 Q17.8 -128.4 19.95 -129.6 20.35 -130.25 20.3 -131.05 L20.2 -132.8 20.35 -132.75 Q23.6 -129.75 27.1 -127.35" fill="#ffff00" fill-opacity="0.5019608" fill-rule="evenodd" stroke="none"/>
  </g>
</svg>
