<?xml version="1.0" encoding="UTF-8" standalone="no"?>
<svg xmlns:ffdec="https://www.free-decompiler.com/flash" xmlns:xlink="http://www.w3.org/1999/xlink" ffdec:objectType="shape" height="125.55px" width="59.95px" xmlns="http://www.w3.org/2000/svg">
  <g transform="matrix(1.0, 0.0, 0.0, 1.0, 7.0, 121.25)">
    <path d="M9.65 -109.45 Q9.65 -114.35 13.1 -117.8 16.55 -121.25 21.45 -121.25 26.35 -121.25 29.8 -117.8 33.25 -114.35 33.25 -109.45 33.25 -104.55 29.8 -101.1 26.4 -97.7 21.65 -97.65 L21.65 -97.6 18.65 -97.75 17.8 -98.5 17.65 -97.0 Q16.9 -91.35 17.8 -85.9 L17.95 -84.85 Q30.6 -84.45 43.15 -86.9 L43.9 -86.45 Q44.75 -87.8 47.05 -89.1 L47.05 -89.25 Q51.2 -86.8 49.7 -83.25 55.45 -81.2 51.0 -75.55 L50.5 -75.1 Q49.2 -72.85 46.3 -72.8 29.9 -72.55 13.55 -73.3 12.85 -73.35 12.15 -73.95 11.85 -75.25 12.1 -76.05 L11.8 -80.2 Q11.1 -80.45 10.75 -81.3 L10.45 -82.15 10.35 -81.25 Q9.9 -75.15 10.55 -68.9 L10.65 -66.85 Q13.65 -66.0 15.8 -63.3 L16.1 -62.75 Q22.35 -59.6 25.7 -54.05 28.2 -52.5 26.9 -49.0 L26.65 -48.45 20.05 -42.4 21.7 -37.8 Q24.05 -34.5 21.7 -29.25 20.75 -27.1 20.25 -24.85 18.75 -18.2 19.0 -11.15 19.15 -6.0 17.8 -1.3 L34.3 -0.5 Q35.45 -0.4 35.7 0.8 L35.9 2.0 Q35.25 4.25 32.95 4.3 L14.35 3.6 Q13.65 3.55 12.95 2.95 L12.8 2.35 Q12.65 1.35 12.95 0.6 11.6 -18.1 16.35 -35.55 15.3 -36.3 14.4 -37.65 L13.15 -36.65 9.4 -31.95 8.6 -31.4 7.65 -30.8 Q7.2 -29.65 6.25 -29.05 L5.3 -28.45 Q4.45 -26.7 2.9 -25.5 L2.15 -24.9 0.8 -22.35 Q6.0 -19.3 10.5 -15.0 L10.8 -14.5 Q7.3 -8.2 0.55 -14.0 L-3.65 -17.3 Q-5.45 -18.65 -6.25 -20.4 L-6.7 -20.6 -7.0 -22.95 -6.7 -24.7 Q2.2 -34.45 11.6 -43.35 10.3 -46.65 9.6 -50.2 8.15 -52.05 7.35 -54.35 L7.05 -55.5 Q4.35 -59.2 3.4 -63.75 3.2 -64.65 3.5 -65.5 L3.95 -66.1 Q3.0 -68.8 3.6 -72.45 L4.3 -78.85 Q4.85 -87.25 6.75 -95.3 8.0 -100.6 10.4 -105.25 9.65 -107.2 9.65 -109.45 M44.9 -81.6 L45.0 -81.75 Q44.25 -81.15 43.0 -80.55 41.6 -79.8 40.0 -79.6 28.5 -78.0 17.7 -79.3 L17.25 -77.8 44.85 -78.9 44.9 -81.6 M13.6 -57.0 L16.8 -48.15 20.6 -51.5 13.6 -57.0" fill="#000000" fill-rule="evenodd" stroke="none"/>
  </g>
</svg>
