<?xml version="1.0" encoding="UTF-8" standalone="no"?>
<svg xmlns:ffdec="https://www.free-decompiler.com/flash" xmlns:xlink="http://www.w3.org/1999/xlink" ffdec:objectType="shape" height="157.2px" width="84.45px" xmlns="http://www.w3.org/2000/svg">
  <g transform="matrix(1.0, 0.0, 0.0, 1.0, 23.05, 135.65)">
    <path d="M24.5 -128.15 L25.65 -127.0 Q27.65 -124.85 30.25 -123.8 33.0 -125.35 35.45 -127.45 L35.9 -126.55 35.95 -126.25 Q36.75 -124.0 36.8 -121.55 L37.7 -121.05 45.7 -126.75 45.7 -126.45 45.7 -124.4 Q44.5 -122.95 44.45 -121.15 42.4 -118.2 41.8 -114.7 L49.15 -109.0 Q44.05 -106.0 39.85 -101.95 L39.85 -101.65 39.85 -100.45 42.3 -97.8 Q40.65 -96.8 38.8 -96.15 37.9 -95.8 37.1 -95.25 34.75 -93.7 32.2 -93.6 L31.8 -93.45 31.4 -93.2 31.25 -92.9 31.3 -91.7 40.35 -90.65 40.25 -90.45 Q39.95 -88.5 39.95 -86.6 L40.8 -86.4 Q50.5 -86.9 58.85 -90.95 L58.35 -89.3 Q56.25 -82.25 54.75 -75.05 L54.35 -74.45 54.35 -74.15 54.45 -72.1 Q54.95 -71.6 55.7 -71.45 58.35 -70.9 59.55 -69.95 57.2 -68.35 55.65 -66.1 L52.8 -63.2 52.75 -62.9 Q52.15 -61.5 52.5 -59.95 L53.35 -59.35 Q53.65 -58.4 54.65 -58.2 55.15 -57.1 56.05 -56.25 59.05 -53.3 61.4 -49.95 54.25 -47.7 48.45 -43.35 L48.45 -43.05 48.45 -42.5 Q49.4 -39.75 51.2 -37.5 L51.2 -37.2 51.2 -36.6 52.0 -35.7 42.8 -35.2 42.2 -34.95 42.2 -34.65 Q42.6 -29.4 43.75 -24.35 39.0 -25.7 35.5 -24.15 L35.55 -23.85 35.45 -20.05 Q33.05 -20.6 32.0 -19.05 L32.0 -18.75 32.0 -18.15 Q35.35 -13.85 40.2 -11.1 46.45 -7.6 51.8 -3.65 47.7 -0.85 45.7 3.4 L54.75 10.6 Q49.85 12.0 44.75 12.0 40.8 12.05 38.25 14.6 L38.25 14.9 Q38.2 18.3 38.55 21.55 L35.15 20.35 Q30.1 18.25 25.2 15.75 19.2 12.75 15.3 18.15 L14.35 18.05 Q14.25 16.75 13.55 15.6 L12.6 14.85 Q7.55 13.65 2.95 15.6 L2.95 15.3 2.95 8.8 Q2.7 8.5 2.45 8.5 L-12.75 7.95 -12.7 7.65 -12.35 6.75 Q-10.9 5.4 -9.85 3.5 -6.15 -3.2 -1.05 -8.95 2.3 -12.8 2.55 -17.65 L2.3 -18.65 Q-0.5 -22.4 -4.8 -24.65 -1.2 -28.35 0.6 -32.8 -3.45 -34.85 -7.85 -34.65 -4.4 -37.85 -4.5 -42.6 -5.9 -43.7 -7.85 -43.85 L-18.6 -44.35 -17.5 -47.45 Q-15.25 -52.3 -13.4 -57.3 -12.25 -60.4 -11.85 -63.65 -11.65 -65.6 -12.7 -67.0 -13.4 -67.8 -14.45 -67.7 -16.75 -67.4 -17.45 -68.75 -15.6 -71.55 -15.1 -74.65 -13.05 -77.3 -11.55 -80.25 L-11.55 -80.55 -11.55 -82.6 Q-16.75 -85.55 -23.05 -86.25 -18.3 -87.85 -13.7 -89.65 -8.0 -91.85 -3.7 -95.65 -4.85 -98.25 -7.15 -100.05 -7.3 -100.65 -7.85 -100.95 L-6.75 -101.3 Q-0.5 -103.0 4.15 -107.3 L4.15 -107.6 4.15 -108.5 Q3.7 -109.0 3.55 -109.65 2.2 -110.6 2.0 -111.75 L6.0 -114.6 6.05 -114.9 6.0 -116.95 3.75 -119.85 2.95 -121.65 Q5.5 -121.7 7.9 -122.6 L8.35 -123.05 Q8.75 -129.5 10.5 -135.65 18.35 -133.8 24.5 -128.15" fill="#ffff00" fill-opacity="0.5019608" fill-rule="evenodd" stroke="none"/>
  </g>
</svg>
