<?xml version="1.0" encoding="UTF-8" standalone="no"?>
<svg xmlns:ffdec="https://www.free-decompiler.com/flash" xmlns:xlink="http://www.w3.org/1999/xlink" ffdec:objectType="shape" height="124.4px" width="47.7px" xmlns="http://www.w3.org/2000/svg">
  <g transform="matrix(1.0, 0.0, 0.0, 1.0, 3.2, 119.85)">
    <path d="M9.2 -101.7 Q9.9 -103.35 11.0 -104.75 L11.15 -105.35 11.2 -105.9 11.25 -105.95 11.05 -108.05 Q11.05 -112.95 14.5 -116.4 17.95 -119.85 22.85 -119.85 27.75 -119.85 31.2 -116.4 34.65 -112.95 34.65 -108.05 34.65 -103.15 31.2 -99.7 27.8 -96.3 23.05 -96.25 L23.05 -96.2 20.05 -96.35 Q18.75 -97.7 16.35 -98.5 L15.3 -99.9 14.7 -99.25 13.8 -96.9 Q14.4 -96.25 14.65 -95.1 L14.7 -94.55 10.6 -86.2 Q9.75 -82.25 9.3 -78.2 17.1 -77.4 25.3 -79.1 L25.4 -80.15 Q25.8 -82.25 27.65 -83.35 L28.05 -83.5 29.0 -83.65 29.05 -83.75 Q37.15 -84.25 33.75 -77.65 31.45 -73.2 28.15 -73.65 L28.05 -73.6 Q26.3 -72.75 24.3 -72.75 16.55 -72.65 8.9 -72.9 L8.9 -72.8 27.85 -71.6 Q32.65 -75.5 35.6 -72.7 L40.8 -73.55 Q43.9 -73.7 44.45 -70.8 L44.5 -70.2 43.65 -69.25 Q43.5 -68.3 42.8 -67.15 L42.15 -66.5 39.65 -60.6 39.25 -59.4 Q37.55 -57.7 36.45 -55.4 L35.9 -54.7 Q35.8 -53.5 35.2 -52.4 L34.3 -51.2 Q31.5 -46.85 28.3 -42.65 32.1 -39.6 34.85 -35.45 L35.1 -34.9 Q31.95 -28.4 27.3 -34.65 25.5 -37.1 23.15 -39.0 24.1 -36.45 22.7 -32.8 18.55 -21.6 17.25 -9.45 16.9 -6.0 17.45 -2.4 L17.45 -2.3 Q23.6 -2.6 29.45 -1.15 31.25 -0.75 31.2 1.2 30.55 3.5 28.25 3.8 21.65 4.8 15.45 3.8 L14.1 4.55 Q12.4 4.3 11.35 2.95 11.15 -13.8 14.7 -29.95 14.95 -30.95 15.7 -31.75 15.6 -35.95 17.25 -38.8 L17.2 -38.85 Q13.1 -44.2 8.25 -49.05 L8.1 -49.6 8.0 -50.2 7.85 -50.8 Q4.9 -54.15 2.25 -57.8 L1.15 -59.05 1.05 -60.2 0.95 -61.95 Q1.25 -62.85 2.05 -63.35 L2.15 -67.45 0.25 -67.75 Q-0.5 -67.85 -1.2 -68.45 -1.2 -71.0 -0.8 -73.45 L-1.3 -73.5 Q-2.85 -73.65 -3.05 -75.2 -3.95 -81.5 -0.2 -87.0 0.3 -87.75 0.2 -88.65 3.45 -95.0 8.25 -99.25 L9.2 -101.7 M14.9 -51.95 Q16.75 -48.95 19.15 -46.15 L20.4 -44.9 21.25 -43.4 Q21.25 -44.3 21.55 -45.1 24.3 -47.5 26.65 -50.4 L26.85 -51.0 27.05 -52.15 Q29.75 -55.45 31.7 -59.15 L32.15 -59.8 32.35 -60.4 32.55 -61.6 Q33.95 -63.2 34.9 -65.05 L31.4 -64.85 Q26.05 -64.9 21.0 -63.6 15.0 -62.0 9.4 -59.5 L11.9 -55.45 Q12.95 -53.35 14.9 -51.95" fill="#000000" fill-rule="evenodd" stroke="none"/>
  </g>
</svg>
