<?xml version="1.0" encoding="UTF-8" standalone="no"?>
<svg xmlns:ffdec="https://www.free-decompiler.com/flash" xmlns:xlink="http://www.w3.org/1999/xlink" ffdec:objectType="shape" height="152.45px" width="94.75px" xmlns="http://www.w3.org/2000/svg">
  <g transform="matrix(1.0, 0.0, 0.0, 1.0, 35.7, 133.85)">
    <path d="M26.9 -133.8 Q27.3 -134.0 27.65 -133.55 L33.45 -126.45 Q36.5 -122.7 39.85 -125.75 L39.9 -124.6 Q40.35 -121.2 39.05 -118.4 L39.05 -118.1 39.05 -117.8 38.9 -117.5 37.9 -115.75 37.9 -115.15 37.9 -114.3 Q39.15 -112.15 41.5 -111.95 42.95 -110.65 44.75 -110.05 40.15 -107.35 36.3 -103.8 L36.3 -103.2 36.3 -102.0 37.1 -101.15 37.1 -100.85 37.2 -99.95 37.9 -99.1 37.9 -98.8 37.9 -98.2 33.95 -94.0 Q34.9 -92.55 36.8 -93.15 43.15 -95.1 49.25 -96.05 L49.25 -94.85 49.35 -89.0 Q49.8 -88.75 50.25 -88.65 L56.1 -88.0 55.85 -87.65 54.35 -85.05 54.35 -84.75 Q54.2 -83.55 53.2 -82.7 L53.2 -82.1 53.2 -81.25 Q53.5 -80.95 53.9 -80.8 57.1 -79.55 59.05 -77.3 55.6 -75.85 53.2 -73.2 L53.2 -72.9 53.2 -72.3 52.0 -70.85 52.0 -70.55 52.1 -69.35 53.0 -68.75 57.5 -64.65 Q52.7 -62.75 48.85 -59.85 L48.85 -59.55 48.85 -58.95 49.5 -58.05 Q52.15 -54.2 55.55 -51.0 52.15 -50.05 48.65 -49.6 45.25 -49.15 42.6 -47.5 42.6 -46.0 42.75 -44.55 43.2 -41.3 44.05 -38.05 L31.4 -37.95 Q30.8 -37.95 30.8 -37.4 L31.0 -36.85 Q31.75 -35.6 32.0 -34.15 L33.15 -32.95 33.25 -32.7 34.05 -30.9 Q31.55 -30.9 29.45 -30.05 L29.3 -29.7 Q29.2 -29.15 29.35 -28.55 L31.2 -27.3 39.55 -19.75 Q36.9 -18.95 35.15 -17.1 L35.1 -16.8 Q35.05 -16.2 35.25 -15.6 L47.0 -11.6 Q51.95 -9.75 55.55 -6.4 L55.35 -6.1 54.95 -5.2 Q53.45 -3.7 51.5 -2.7 46.45 -0.2 46.2 4.8 48.5 6.55 51.2 7.85 L40.15 8.25 Q37.05 8.4 34.75 10.3 L34.75 10.6 34.65 11.45 34.35 11.75 34.3 12.05 34.15 12.35 Q32.95 11.2 31.4 10.75 30.45 11.15 30.05 12.15 L29.85 12.7 Q29.5 13.55 29.65 14.5 L29.5 14.8 Q28.7 17.15 27.3 18.6 24.3 16.5 21.85 13.7 19.25 10.65 16.7 13.3 L16.4 14.15 Q15.4 15.55 15.1 17.25 L14.75 16.5 Q13.65 14.55 13.55 12.35 13.25 11.7 12.55 11.55 L1.0 16.85 1.0 15.8 Q0.95 13.4 1.25 11.1 1.75 7.4 1.0 3.7 -0.2 2.7 -0.85 2.45 L1.1 0.05 Q3.8 -3.25 4.55 -7.25 3.95 -8.15 2.9 -8.45 -4.4 -10.5 -12.05 -11.8 L-11.4 -12.4 -9.75 -13.6 Q-2.65 -17.55 3.45 -22.4 5.25 -23.45 6.1 -25.3 5.05 -27.9 2.45 -29.05 5.3 -31.1 5.3 -34.35 2.8 -36.2 -0.55 -36.5 L1.3 -38.85 1.35 -39.45 1.4 -40.6 Q-2.0 -42.3 -6.05 -42.0 L-6.05 -43.15 Q-5.55 -45.6 -5.3 -48.1 -5.6 -48.7 -6.25 -48.85 L-18.25 -46.3 -18.15 -46.8 Q-17.9 -47.95 -17.05 -48.85 L-17.0 -50.05 -16.25 -55.9 Q-17.1 -57.2 -18.7 -56.8 -24.3 -55.25 -29.2 -55.65 -28.35 -59.8 -26.2 -63.6 -23.5 -68.25 -23.7 -73.6 -25.9 -75.45 -28.6 -75.05 L-28.15 -75.65 -23.7 -81.8 -23.7 -82.1 -23.7 -82.4 Q-22.95 -82.65 -22.65 -83.3 L-22.55 -83.6 -22.55 -83.9 -21.85 -84.75 -21.8 -85.35 -21.75 -86.55 -22.75 -87.3 -35.7 -87.9 Q-30.2 -90.1 -24.35 -91.25 -18.15 -92.45 -13.9 -96.45 L-14.0 -96.7 Q-15.1 -98.4 -15.85 -100.25 L-14.7 -101.25 Q-11.7 -100.85 -10.4 -103.2 L-10.5 -103.5 Q-10.95 -104.65 -11.85 -105.55 L-12.0 -105.85 -13.8 -109.1 Q-9.6 -109.7 -6.45 -108.5 -6.25 -107.8 -5.5 -107.7 -3.1 -108.95 -1.05 -110.35 -0.9 -111.35 -1.3 -112.25 -3.25 -116.2 -7.45 -118.5 -5.0 -118.6 -2.7 -119.5 L-1.2 -119.75 Q2.3 -119.3 4.45 -121.65 L4.5 -122.25 4.55 -123.4 4.3 -123.7 Q3.75 -124.35 3.65 -125.15 L3.45 -125.45 1.8 -128.1 1.7 -128.65 Q1.4 -129.35 1.7 -129.9 8.75 -130.1 15.75 -128.9 L20.35 -127.9 Q23.05 -127.2 24.45 -129.1 L24.5 -129.4 Q25.0 -131.85 26.9 -133.8" fill="#ffff00" fill-opacity="0.5019608" fill-rule="evenodd" stroke="none"/>
  </g>
</svg>
