<?xml version="1.0" encoding="UTF-8" standalone="no"?>
<svg xmlns:ffdec="https://www.free-decompiler.com/flash" xmlns:xlink="http://www.w3.org/1999/xlink" ffdec:objectType="shape" height="123.95px" width="46.95px" xmlns="http://www.w3.org/2000/svg">
  <g transform="matrix(1.0, 0.0, 0.0, 1.0, 13.75, 121.3)">
    <path d="M5.5 -103.35 L5.9 -103.4 Q4.25 -106.1 4.25 -109.5 4.25 -114.4 7.7 -117.85 11.15 -121.3 16.05 -121.3 20.95 -121.3 24.4 -117.85 27.85 -114.4 27.85 -109.5 27.85 -104.6 24.4 -101.15 21.0 -97.75 16.25 -97.7 L16.25 -97.65 14.35 -97.8 Q15.3 -94.8 11.8 -90.85 L10.45 -89.25 Q9.95 -87.35 8.45 -85.9 L8.1 -83.25 Q15.8 -79.55 25.3 -81.0 L25.35 -81.6 25.5 -82.75 Q31.8 -87.45 33.1 -80.5 33.55 -78.1 32.15 -75.9 20.5 -71.85 8.4 -75.55 6.75 -76.05 5.3 -76.85 L5.2 -76.6 Q4.65 -73.9 5.15 -71.9 L9.0 -69.8 Q16.15 -74.45 19.55 -68.1 20.35 -66.6 19.6 -64.9 L18.6 -64.2 25.75 -63.15 26.1 -63.75 26.5 -63.85 27.45 -64.05 27.45 -64.15 29.4 -62.6 29.55 -62.6 Q29.9 -62.55 30.1 -61.95 L30.4 -60.8 30.4 -60.75 Q30.95 -58.4 28.5 -55.3 L16.25 -40.35 18.35 -34.8 Q20.75 -31.55 19.95 -26.2 19.25 -21.5 18.85 -16.8 L19.4 -16.05 18.7 -14.95 Q18.3 -10.0 18.25 -4.95 25.3 -5.45 29.45 -0.85 L29.6 -0.4 Q27.55 3.95 22.0 2.1 18.45 0.95 14.9 2.15 L13.55 1.7 12.75 1.15 12.15 0.6 12.0 0.0 11.95 -0.55 11.95 -1.15 11.95 -2.35 12.2 -2.9 12.3 -2.95 12.8 -13.6 Q11.2 -14.4 9.35 -16.2 5.7 -19.7 1.15 -22.1 L-2.75 -24.5 -2.9 -25.7 Q-3.05 -27.3 -1.8 -28.15 0.05 -33.55 4.65 -37.9 L9.1 -42.25 8.25 -43.55 2.0 -55.45 Q1.75 -55.9 1.75 -56.5 L1.5 -57.0 0.4 -58.25 Q-0.4 -61.8 -0.15 -65.3 L0.05 -66.1 -0.4 -68.2 -9.05 -75.3 Q-12.2 -76.35 -13.75 -79.45 -12.95 -85.1 -7.15 -88.7 -5.05 -90.0 -3.3 -91.75 1.0 -96.0 5.75 -98.95 5.95 -101.3 4.85 -103.0 L5.45 -103.25 5.5 -103.35 M0.8 -77.7 L1.25 -80.2 Q-0.1 -82.05 0.45 -84.5 L1.0 -86.75 -6.1 -81.0 -4.55 -79.2 -3.75 -78.25 Q-1.2 -77.6 0.65 -76.15 L0.65 -77.75 0.8 -77.7 M6.95 -59.45 Q10.5 -53.35 13.4 -46.9 18.1 -52.25 22.2 -57.95 14.3 -57.8 6.95 -59.45 M5.05 -27.1 Q8.3 -25.7 11.5 -23.6 L13.35 -22.25 14.15 -32.0 Q12.7 -32.9 12.15 -35.15 L12.05 -35.5 5.3 -27.85 5.05 -27.1" fill="#000000" fill-rule="evenodd" stroke="none"/>
  </g>
</svg>
