<?xml version="1.0" encoding="UTF-8" standalone="no"?>
<svg xmlns:ffdec="https://www.free-decompiler.com/flash" xmlns:xlink="http://www.w3.org/1999/xlink" ffdec:objectType="shape" height="157.85px" width="87.2px" xmlns="http://www.w3.org/2000/svg">
  <g transform="matrix(1.0, 0.0, 0.0, 1.0, 34.0, 140.3)">
    <path d="M31.0 -140.3 Q31.35 -136.4 30.1 -132.25 29.4 -129.9 29.75 -127.45 38.7 -126.65 47.7 -124.9 L47.3 -124.35 47.2 -124.1 47.0 -123.8 Q45.15 -122.35 43.75 -120.65 41.4 -117.85 38.35 -115.85 L38.3 -115.55 38.25 -115.25 38.15 -114.95 37.95 -114.7 37.7 -114.35 37.5 -114.1 37.5 -113.5 37.5 -113.2 37.6 -112.9 39.8 -111.75 Q41.9 -110.8 43.75 -109.5 L41.3 -106.7 39.45 -104.75 39.45 -103.9 39.45 -103.0 39.45 -102.1 42.55 -99.55 45.7 -96.75 45.7 -96.45 45.7 -96.15 46.0 -95.8 46.1 -95.55 46.1 -95.25 46.05 -95.0 45.8 -94.35 45.55 -93.8 44.35 -93.05 41.75 -91.05 39.05 -88.3 39.05 -87.7 39.05 -87.1 39.05 -86.55 39.05 -85.95 39.35 -85.65 39.75 -85.35 39.8 -85.05 39.85 -84.75 Q42.55 -82.05 44.9 -79.0 48.75 -73.95 52.8 -69.15 L52.8 -68.85 52.9 -68.6 53.2 -68.3 Q41.4 -66.9 29.45 -67.95 28.65 -68.0 28.45 -67.3 L28.45 -67.0 28.45 -66.7 28.45 -66.4 29.9 -64.9 Q30.95 -63.95 32.3 -63.2 L16.9 -63.25 Q15.8 -63.25 15.9 -62.2 L16.05 -61.95 16.3 -61.6 16.7 -61.3 16.7 -61.05 16.8 -60.75 17.7 -60.35 19.05 -60.05 Q21.45 -57.65 25.05 -58.45 L24.35 -57.45 22.55 -54.15 Q21.75 -52.95 21.8 -51.5 22.25 -50.65 23.15 -50.65 26.9 -50.6 28.85 -48.45 L28.75 -47.9 26.65 -43.15 Q25.9 -41.7 26.0 -39.95 L25.7 -39.65 25.7 -39.05 25.7 -38.75 25.7 -38.45 26.1 -37.9 26.55 -37.4 Q26.9 -37.15 27.3 -37.0 L30.75 -33.8 33.55 -30.9 Q32.8 -29.6 31.6 -28.7 30.4 -27.75 29.65 -26.5 L29.65 -26.2 29.65 -25.6 29.65 -25.35 29.75 -25.05 Q31.9 -23.95 33.6 -22.05 35.9 -19.45 38.55 -17.45 37.05 -16.6 35.3 -16.4 32.9 -16.15 31.6 -14.35 L31.6 -14.05 31.6 -13.45 31.6 -13.15 31.7 -12.85 33.55 -11.35 35.25 -9.65 35.0 -9.4 34.1 -8.7 33.95 -8.45 33.95 -8.15 33.95 -7.55 34.0 -7.3 34.05 -7.0 34.9 -6.45 36.15 -5.55 37.5 -4.45 37.5 -4.15 37.6 -3.85 37.9 -3.55 38.15 -3.2 38.05 -2.95 37.8 -2.65 37.5 -2.35 37.45 -2.1 37.4 -1.8 37.0 -1.5 36.7 -1.2 36.7 0.3 36.7 2.05 36.7 3.5 Q38.35 6.2 39.25 9.4 L40.25 12.95 40.5 13.25 40.6 13.5 40.6 13.8 39.85 13.95 Q38.3 13.95 36.95 13.25 31.2 10.3 28.45 15.8 L28.45 16.05 28.45 16.35 27.95 16.95 27.65 17.2 27.4 17.25 26.15 15.5 24.35 13.5 Q21.25 10.5 17.5 10.2 L17.05 10.65 Q16.1 11.5 15.7 12.75 15.3 13.95 14.15 14.5 L12.5 12.55 Q11.55 11.4 10.2 10.7 10.0 10.1 9.5 9.8 8.75 9.3 7.85 9.2 L7.35 9.5 5.55 11.2 4.65 12.45 4.25 12.55 3.5 12.1 1.9 11.2 Q-2.45 8.85 -6.25 11.95 L-6.4 12.25 -6.45 12.55 Q-8.2 13.8 -9.75 15.35 L-12.45 17.55 -12.4 17.25 Q-12.3 14.1 -11.45 11.1 -10.95 9.25 -11.15 7.25 L-11.35 6.95 -11.55 6.65 -11.55 6.35 -11.55 6.05 -12.1 5.75 -17.85 4.8 Q-17.35 3.55 -17.3 2.15 -17.25 0.7 -18.2 -0.3 -20.95 -3.3 -23.7 -5.5 L-23.15 -5.7 Q-22.2 -6.0 -21.5 -6.85 L-20.3 -8.35 -20.15 -9.25 -20.15 -10.1 -20.3 -11.0 Q-21.75 -13.9 -23.95 -16.35 -28.15 -21.1 -33.15 -25.15 -26.05 -25.2 -19.3 -26.8 -18.85 -27.45 -18.95 -28.25 L-19.0 -30.05 -19.0 -31.8 Q-15.15 -31.4 -11.45 -31.9 -11.0 -32.85 -10.8 -33.9 -10.55 -35.4 -9.1 -36.0 -6.8 -36.85 -5.65 -38.85 -5.75 -39.4 -6.15 -39.7 -6.95 -40.35 -7.85 -40.45 L-8.2 -40.85 Q-8.9 -41.55 -10.0 -41.6 L-11.3 -42.6 -12.35 -43.05 -12.2 -43.8 Q-11.3 -46.05 -9.8 -48.1 L-6.95 -51.8 -6.75 -52.7 -6.3 -53.6 Q-6.0 -54.0 -6.15 -54.45 L-6.3 -54.65 Q-8.95 -56.25 -11.95 -56.2 L-11.95 -56.5 -11.95 -56.8 -11.95 -57.1 -11.5 -57.45 -11.25 -57.7 -10.95 -58.5 Q-10.7 -58.95 -10.8 -59.45 -10.9 -59.95 -10.6 -60.35 L-10.25 -60.65 -10.1 -60.95 Q-9.9 -61.65 -9.95 -62.4 L-9.85 -63.85 -9.2 -65.35 -9.2 -65.95 -9.2 -66.2 -9.2 -66.5 -9.75 -66.85 Q-22.5 -68.55 -34.0 -73.95 L-31.3 -75.45 Q-27.85 -77.2 -24.8 -79.35 L-24.6 -79.65 -24.35 -80.25 -24.05 -80.8 -23.7 -81.45 -23.7 -81.7 -23.7 -82.0 -23.7 -82.3 -23.7 -82.9 -23.7 -83.2 Q-20.95 -83.1 -19.0 -84.55 L-19.0 -85.75 Q-19.0 -87.65 -19.4 -89.5 L-19.8 -92.2 Q-18.25 -91.55 -16.85 -92.4 -15.9 -92.9 -15.5 -94.0 L-15.35 -95.1 Q-14.7 -97.6 -14.6 -100.15 L-14.3 -103.4 -13.8 -103.55 -7.5 -104.55 Q-5.6 -104.95 -4.2 -106.35 -3.9 -107.3 -4.55 -108.05 -6.8 -110.85 -9.65 -113.0 -17.25 -118.85 -24.5 -125.15 L-11.05 -121.95 -10.15 -121.55 Q-9.05 -121.15 -8.2 -121.85 L-5.25 -127.15 Q-4.2 -129.0 -3.4 -130.95 L-2.35 -131.15 Q-0.45 -131.1 1.3 -130.35 1.7 -129.8 2.35 -129.9 5.4 -130.4 7.5 -133.25 L12.55 -140.2 12.8 -139.95 13.2 -139.45 13.75 -138.8 Q14.2 -137.6 15.2 -136.65 L18.35 -136.55 19.9 -137.0 Q25.2 -139.4 31.0 -140.3" fill="#ffff00" fill-opacity="0.5019608" fill-rule="evenodd" stroke="none"/>
  </g>
</svg>
