<?xml version="1.0" encoding="UTF-8" standalone="no"?>
<svg xmlns:ffdec="https://www.free-decompiler.com/flash" xmlns:xlink="http://www.w3.org/1999/xlink" ffdec:objectType="shape" height="127.25px" width="48.75px" xmlns="http://www.w3.org/2000/svg">
  <g transform="matrix(1.0, 0.0, 0.0, 1.0, 14.2, 123.75)">
    <path d="M6.1 -120.3 Q9.55 -123.75 14.45 -123.75 19.35 -123.75 22.8 -120.3 26.25 -116.85 26.25 -111.95 26.25 -107.05 22.8 -103.6 19.4 -100.2 14.65 -100.15 L14.65 -100.1 12.85 -100.25 12.2 -98.55 12.0 -98.05 Q12.9 -96.4 13.15 -94.3 14.5 -95.75 16.45 -96.3 22.3 -92.45 16.95 -86.65 L13.6 -83.0 Q13.95 -79.7 14.7 -76.5 20.6 -81.4 25.3 -87.65 L25.35 -88.25 25.7 -89.45 Q23.9 -91.55 23.85 -94.75 L23.95 -95.3 Q28.5 -102.2 33.7 -96.9 34.45 -96.15 34.55 -94.95 34.7 -92.5 32.95 -90.8 28.3 -79.15 18.95 -70.25 17.5 -68.85 15.6 -68.05 9.5 -65.35 8.7 -71.95 L8.05 -77.65 7.0 -76.85 Q6.65 -70.1 4.8 -64.05 6.65 -62.55 7.55 -60.0 L7.65 -59.4 10.15 -55.4 Q10.8 -54.25 10.8 -52.95 L11.8 -51.8 Q12.45 -51.0 12.35 -50.0 19.0 -43.65 19.15 -35.65 21.45 -32.65 20.45 -27.6 18.2 -15.95 16.6 -4.2 22.55 -4.35 27.8 -1.5 28.85 -0.9 28.85 0.4 27.25 4.15 22.7 3.4 L13.55 1.85 12.55 2.15 Q11.4 2.0 10.6 1.4 L10.45 1.35 Q9.7 1.2 9.0 0.6 L8.9 0.0 8.9 -1.15 Q9.05 -2.6 10.35 -3.25 L14.2 -33.55 14.3 -34.3 13.6 -36.1 Q13.15 -37.15 12.15 -37.85 10.6 -42.7 7.65 -46.8 8.8 -41.9 10.8 -37.25 13.15 -34.45 9.4 -30.6 3.6 -24.7 -1.45 -18.2 -4.35 -14.4 -8.15 -12.05 -6.9 -9.4 -7.25 -5.65 L-7.25 -5.1 Q-3.95 -3.2 -1.75 -0.4 -5.55 6.2 -11.7 -0.8 -13.5 -2.85 -13.9 -5.55 -14.45 -9.3 -13.95 -13.3 L-13.4 -14.25 Q-12.45 -18.45 -8.45 -21.65 -6.1 -23.5 -4.0 -25.75 0.45 -30.35 4.45 -35.2 L4.3 -35.5 Q0.55 -46.85 0.1 -59.05 L0.1 -59.4 -0.15 -59.65 -1.2 -60.8 Q-1.5 -61.95 -1.35 -63.15 -1.2 -64.4 -0.2 -65.05 L0.4 -73.0 Q-3.9 -71.15 -8.7 -70.45 -10.35 -70.25 -11.4 -71.6 -12.05 -76.6 -9.75 -81.15 -9.1 -82.45 -9.25 -83.95 -3.1 -93.15 4.3 -101.4 4.85 -102.05 5.45 -102.35 L5.8 -103.75 5.85 -103.85 Q2.65 -107.25 2.65 -111.95 2.65 -116.85 6.1 -120.3 M2.7 -89.65 L-2.6 -82.8 -3.15 -82.2 -3.6 -79.25 -3.95 -77.45 1.3 -80.6 2.7 -89.65" fill="#000000" fill-rule="evenodd" stroke="none"/>
  </g>
</svg>
