<?xml version="1.0" encoding="UTF-8" standalone="no"?>
<svg xmlns:ffdec="https://www.free-decompiler.com/flash" xmlns:xlink="http://www.w3.org/1999/xlink" ffdec:objectType="shape" height="169.65px" width="113.35px" xmlns="http://www.w3.org/2000/svg">
  <g transform="matrix(1.0, 0.0, 0.0, 1.0, 47.3, 144.05)">
    <path d="M31.45 -141.4 L31.4 -139.95 Q30.35 -134.8 30.75 -129.4 L31.7 -128.7 Q36.35 -127.45 40.6 -125.0 39.35 -121.85 36.9 -119.15 35.6 -118.9 35.0 -117.75 L35.0 -117.2 Q35.1 -116.1 34.8 -115.1 L33.55 -113.5 33.55 -113.0 Q33.45 -111.1 33.75 -109.25 34.0 -109.0 34.3 -109.0 L42.4 -108.55 Q43.5 -108.55 44.15 -109.45 50.95 -110.75 54.55 -117.05 L54.65 -116.5 Q54.6 -113.55 54.95 -110.7 55.2 -110.4 55.5 -110.4 L66.05 -109.45 Q62.85 -108.0 60.6 -105.55 59.7 -104.6 59.2 -103.45 55.6 -95.5 63.2 -89.3 62.5 -88.8 61.8 -88.8 56.35 -88.8 52.65 -85.45 L52.65 -84.9 52.65 -83.3 53.35 -82.25 Q53.35 -79.4 55.3 -77.5 53.45 -76.4 51.35 -76.2 L29.7 -73.8 29.45 -73.25 Q29.2 -72.15 29.5 -71.15 L32.85 -66.9 Q26.8 -65.7 21.55 -62.85 L21.55 -62.3 Q21.45 -60.7 21.75 -59.15 25.05 -57.8 28.1 -55.95 L26.85 -54.35 Q24.0 -53.2 22.25 -50.65 L22.25 -50.15 Q22.15 -49.3 22.45 -48.55 27.5 -45.8 32.15 -42.7 29.5 -39.65 29.5 -35.8 39.5 -30.45 45.9 -23.1 39.5 -21.5 33.55 -19.05 L33.55 -18.5 Q33.45 -16.9 33.75 -15.35 L36.05 -13.75 Q39.85 -8.15 42.75 -2.1 L35.4 -1.15 Q34.35 -0.9 33.55 0.0 L33.6 1.6 Q33.7 8.7 33.4 15.75 26.35 12.35 18.75 13.45 L15.55 16.95 Q11.8 20.35 9.4 25.6 L8.2 23.95 Q7.05 22.8 6.4 21.4 3.2 14.75 -3.5 16.65 -9.2 18.25 -14.45 19.1 L-14.45 18.55 -14.45 18.0 -15.2 17.0 Q-22.3 8.5 -32.8 14.85 L-34.25 14.3 -34.2 13.8 Q-34.15 12.9 -34.75 12.2 -40.2 6.55 -47.3 3.7 -44.55 2.3 -42.25 0.4 -40.7 -0.9 -40.5 -2.85 -39.9 -9.35 -45.55 -13.4 -38.25 -12.1 -31.95 -15.0 -31.75 -15.25 -31.7 -15.55 -31.3 -18.15 -31.4 -20.8 L-35.45 -28.25 -23.3 -28.8 -22.05 -29.1 -21.8 -29.65 Q-21.4 -31.2 -21.5 -32.8 L-22.95 -34.4 -23.0 -34.9 Q-23.35 -36.05 -24.0 -37.05 L-26.1 -38.1 Q-27.85 -40.1 -29.1 -42.35 -26.9 -43.15 -25.05 -44.45 -17.3 -45.7 -12.35 -51.35 -15.3 -55.8 -21.15 -56.15 -20.3 -59.3 -17.3 -62.5 L-17.3 -63.0 -17.3 -64.6 Q-19.05 -66.85 -22.05 -66.9 -29.0 -70.05 -36.55 -71.5 -34.85 -73.3 -30.7 -74.15 L-28.6 -76.6 -28.6 -77.15 -28.6 -80.85 -29.8 -82.45 Q-31.4 -88.0 -35.1 -92.5 L-19.7 -91.85 Q-18.25 -91.6 -17.25 -92.4 -13.3 -95.45 -17.3 -99.2 L-16.6 -100.25 Q-10.75 -100.25 -6.0 -103.1 L-4.95 -102.75 -4.25 -103.0 -3.5 -103.45 -3.35 -103.95 Q-3.05 -104.75 -3.15 -105.55 -8.7 -109.45 -14.65 -113.0 -8.45 -112.4 -4.55 -116.85 L-4.7 -117.9 Q-6.65 -126.25 -11.65 -133.3 L-10.8 -133.25 Q-3.35 -129.05 4.25 -130.3 L4.4 -130.8 Q4.7 -131.85 4.6 -132.95 L4.9 -133.5 9.4 -144.05 Q10.5 -142.3 12.75 -140.35 L13.15 -139.35 Q13.65 -138.4 14.55 -138.35 23.1 -137.75 31.45 -141.4" fill="#ffff00" fill-opacity="0.5019608" fill-rule="evenodd" stroke="none"/>
  </g>
</svg>
