<?xml version="1.0" encoding="UTF-8" standalone="no"?>
<svg xmlns:ffdec="https://www.free-decompiler.com/flash" xmlns:xlink="http://www.w3.org/1999/xlink" ffdec:objectType="shape" height="168.3px" width="116.7px" xmlns="http://www.w3.org/2000/svg">
  <g transform="matrix(1.0, 0.0, 0.0, 1.0, 51.9, 146.55)">
    <path d="M37.8 -135.2 Q37.95 -133.85 37.65 -132.55 36.0 -125.25 36.55 -117.75 40.9 -116.4 44.85 -117.05 L44.75 -114.95 Q44.0 -107.4 42.9 -100.1 45.05 -98.3 47.7 -99.55 L48.4 -100.45 53.5 -101.85 54.2 -102.9 Q57.0 -104.1 59.7 -104.5 55.55 -98.2 50.5 -92.3 L50.5 -91.8 50.5 -91.25 49.8 -90.2 49.8 -89.65 Q49.7 -87.8 50.0 -85.95 50.75 -85.15 51.9 -84.9 L64.8 -78.55 Q60.25 -76.7 56.15 -74.15 L56.15 -73.6 56.15 -67.25 56.85 -66.2 56.85 -65.65 56.85 -65.15 Q58.6 -63.6 58.3 -62.85 L50.2 -65.8 Q43.55 -68.0 37.8 -66.35 L37.8 -65.85 Q37.95 -63.5 37.6 -61.25 L36.0 -61.7 Q33.7 -62.3 31.75 -63.6 26.1 -67.45 20.85 -65.65 20.2 -62.15 22.6 -59.85 23.55 -57.85 25.1 -56.15 24.8 -54.15 25.8 -52.4 L25.1 -51.35 25.1 -50.85 25.1 -48.7 Q34.75 -40.7 42.55 -32.8 35.4 -27.55 27.9 -22.4 L27.9 -21.9 27.9 -19.75 Q34.0 -14.05 41.7 -9.7 34.9 -8.4 30.75 -3.35 L30.75 -2.8 30.75 -0.15 Q34.3 3.5 36.9 7.8 26.95 7.4 17.0 8.0 14.8 8.15 13.8 10.25 L13.8 10.8 Q13.9 15.5 13.6 20.15 9.65 19.25 6.55 16.25 -0.15 9.8 -6.0 15.0 L-6.0 15.55 -6.0 16.6 Q-8.85 20.65 -12.5 21.75 -15.1 18.75 -17.1 15.5 -20.55 10.0 -26.25 14.5 -30.05 17.55 -32.8 17.85 L-32.85 17.3 Q-33.05 11.25 -34.95 5.65 L-34.95 5.15 -34.95 4.6 -35.8 4.05 Q-43.65 4.0 -51.9 4.25 -44.9 -2.4 -36.9 -8.45 -34.85 -9.65 -33.55 -11.65 L-33.55 -13.25 Q-33.55 -14.0 -33.9 -14.4 -38.9 -19.1 -45.0 -23.3 L-31.05 -23.85 -29.8 -24.15 Q-29.05 -25.35 -29.65 -26.65 -31.85 -31.05 -35.1 -34.75 -26.85 -37.3 -18.1 -38.8 -11.1 -40.05 -6.0 -43.6 -5.95 -44.6 -6.95 -45.0 -14.6 -48.2 -21.15 -51.9 -17.4 -54.1 -14.65 -57.2 L-14.55 -57.7 -14.45 -60.35 Q-17.0 -63.75 -20.1 -61.4 -24.9 -59.75 -28.6 -59.85 L-28.55 -60.35 Q-27.45 -65.5 -27.9 -70.95 -28.3 -71.5 -28.8 -71.55 -34.55 -72.3 -35.8 -73.25 -31.1 -76.8 -26.75 -80.95 -24.15 -83.4 -22.2 -86.3 -17.65 -93.05 -25.95 -96.9 L-16.6 -98.85 -15.85 -99.75 Q-14.55 -99.9 -13.95 -100.95 L-13.85 -101.5 -13.75 -106.25 -16.2 -108.9 Q-8.45 -108.45 -0.7 -108.55 0.2 -109.0 0.35 -110.0 -0.85 -112.05 -3.15 -113.7 -2.8 -117.3 -3.7 -120.55 L-4.55 -121.1 Q-8.05 -126.45 -8.8 -132.75 L-5.0 -132.15 Q1.45 -130.6 4.45 -135.75 L4.5 -136.3 Q4.25 -141.4 5.15 -146.35 5.6 -146.85 6.55 -146.15 L6.95 -145.7 Q15.55 -136.55 26.15 -130.3 31.75 -133.8 37.8 -135.2" fill="#ffff00" fill-opacity="0.5019608" fill-rule="evenodd" stroke="none"/>
  </g>
</svg>
