<?xml version="1.0" encoding="UTF-8" standalone="no"?>
<svg xmlns:ffdec="https://www.free-decompiler.com/flash" xmlns:xlink="http://www.w3.org/1999/xlink" ffdec:objectType="shape" height="128.55px" width="71.7px" xmlns="http://www.w3.org/2000/svg">
  <g transform="matrix(1.0, 0.0, 0.0, 1.0, 27.4, 125.3)">
    <path d="M12.85 -125.3 Q22.95 -125.55 25.6 -116.05 L26.05 -113.2 Q26.3 -107.5 22.35 -104.6 L23.45 -104.95 21.35 -103.55 20.4 -103.45 16.65 -102.45 14.7 -102.1 Q16.3 -100.9 16.15 -98.25 16.1 -97.85 16.35 -97.45 18.85 -93.6 20.75 -89.5 21.45 -88.85 21.65 -87.9 L21.8 -86.85 22.6 -85.55 22.85 -84.2 Q24.25 -82.2 24.5 -80.15 L34.25 -80.5 Q35.3 -80.55 36.05 -81.25 L36.8 -81.85 Q36.4 -84.7 38.6 -86.45 39.4 -87.05 40.25 -87.15 45.4 -86.75 44.0 -81.65 43.45 -79.8 42.3 -78.25 40.95 -76.35 38.8 -75.25 37.2 -74.45 35.45 -74.25 28.35 -73.4 21.4 -74.15 20.45 -74.25 19.85 -75.15 L19.2 -76.35 Q18.25 -77.25 17.85 -78.95 L16.8 -82.15 10.85 -94.9 8.85 -83.55 10.0 -84.05 10.95 -84.3 Q16.25 -83.8 14.65 -78.55 14.05 -76.55 12.3 -75.4 11.7 -75.0 10.95 -75.0 L7.55 -74.9 6.8 -67.0 Q6.7 -65.85 6.75 -64.6 L6.65 -58.3 Q7.7 -57.05 6.75 -54.85 L6.7 -54.7 Q7.8 -53.7 8.5 -52.2 10.45 -48.1 13.2 -44.45 16.2 -40.4 18.7 -36.05 22.1 -34.6 21.15 -30.65 L19.4 -23.2 Q19.05 -21.85 18.25 -20.65 16.85 -13.55 14.2 -6.6 13.95 -5.95 14.05 -5.3 16.05 -3.95 19.6 -4.15 20.85 -4.2 21.45 -3.1 23.35 0.45 19.55 1.85 L18.1 2.1 Q13.2 1.85 8.75 -0.05 7.3 -0.65 7.3 -2.2 7.2 -6.6 8.7 -10.7 11.05 -17.25 12.8 -23.9 13.45 -27.75 14.65 -31.4 13.25 -32.45 12.45 -33.95 L11.35 -35.7 Q7.75 -40.25 4.9 -45.2 L4.15 -43.2 3.45 -41.85 Q1.55 -32.5 -0.85 -23.35 -1.0 -22.8 -1.55 -22.6 L-3.2 -22.15 -3.9 -20.45 Q-5.25 -18.0 -7.45 -16.15 -14.05 -10.7 -18.75 -3.5 -14.65 -3.25 -10.8 -1.95 -10.1 -1.7 -9.9 -0.95 -9.15 2.45 -12.75 3.05 L-16.2 3.2 -22.8 2.9 Q-25.9 2.9 -26.6 1.0 L-26.75 0.85 Q-27.6 0.1 -27.3 -1.0 -26.65 -3.95 -24.55 -6.25 L-23.75 -7.4 Q-19.6 -14.85 -12.9 -20.35 L-7.8 -24.7 Q-7.1 -25.3 -6.35 -25.35 L-6.0 -25.25 Q-6.2 -26.9 -5.85 -28.6 L-4.55 -35.15 Q-4.25 -36.55 -4.1 -37.9 L-3.5 -40.75 -2.85 -41.85 Q-1.75 -46.5 -0.15 -51.1 L0.45 -52.15 Q-0.05 -54.55 0.55 -56.25 0.3 -65.1 1.0 -73.7 L1.15 -75.15 -9.4 -76.55 Q-11.4 -76.95 -12.2 -78.35 -13.3 -79.55 -12.65 -81.75 -12.25 -82.95 -11.45 -83.95 L-1.1 -95.8 0.8 -98.35 Q3.05 -101.95 6.05 -104.75 L6.1 -104.9 5.95 -105.0 4.65 -106.9 4.7 -107.25 Q0.9 -113.95 5.3 -120.95 7.1 -123.8 10.25 -124.65 L12.85 -125.3 M3.5 -91.05 Q0.65 -87.5 -2.6 -84.25 L-4.25 -82.5 Q-1.25 -81.65 1.85 -81.4 2.45 -86.25 3.5 -91.05" fill="#000000" fill-rule="evenodd" stroke="none"/>
  </g>
</svg>
