<?xml version="1.0" encoding="UTF-8" standalone="no"?>
<svg xmlns:ffdec="https://www.free-decompiler.com/flash" xmlns:xlink="http://www.w3.org/1999/xlink" ffdec:objectType="shape" height="172.4px" width="113.15px" xmlns="http://www.w3.org/2000/svg">
  <g transform="matrix(1.0, 0.0, 0.0, 1.0, 50.65, 147.65)">
    <path d="M22.0 -138.7 Q25.05 -133.2 27.4 -127.65 34.6 -123.7 43.45 -125.0 41.5 -122.15 38.8 -120.0 33.85 -116.0 35.0 -109.6 37.7 -106.75 40.8 -104.35 39.3 -103.75 39.05 -102.2 33.55 -97.85 26.85 -96.4 L26.6 -95.85 Q26.4 -94.75 26.7 -93.75 29.0 -92.65 31.8 -92.85 L32.7 -93.05 41.15 -93.2 40.6 -92.3 Q39.45 -90.35 40.1 -88.1 L59.0 -87.4 58.7 -86.35 Q57.0 -82.45 54.05 -79.45 L54.05 -77.85 54.05 -74.15 Q55.6 -71.95 58.1 -71.5 60.0 -69.55 62.5 -68.5 L48.05 -67.7 47.35 -67.45 47.1 -66.35 47.0 -63.7 47.75 -62.6 Q48.85 -60.65 49.45 -58.4 43.0 -60.55 38.5 -56.15 L37.45 -56.3 34.65 -60.3 Q29.85 -66.2 24.4 -63.2 23.85 -58.35 25.35 -53.95 28.55 -44.2 32.5 -34.6 30.45 -34.7 28.95 -33.55 28.4 -32.85 28.4 -31.95 28.35 -29.45 28.95 -27.15 L29.7 -26.65 Q32.5 -24.65 32.85 -21.35 L33.85 -20.45 Q35.45 -19.4 36.6 -17.9 40.4 -12.9 44.5 -8.65 39.25 -7.05 35.0 -4.05 35.0 -1.65 35.3 0.7 35.9 5.4 38.5 9.2 32.65 8.7 28.6 12.2 28.6 14.3 29.0 16.35 L30.55 24.2 Q18.7 21.3 8.85 13.5 2.6 8.5 -1.05 13.6 L-1.05 14.15 -1.0 17.3 Q-0.9 20.7 -1.2 23.85 -3.5 20.95 -6.3 18.7 -6.95 18.2 -7.5 18.25 -15.3 19.1 -21.85 24.75 L-22.6 24.55 Q-23.7 23.7 -24.2 22.45 -25.55 18.75 -27.7 15.55 L-27.85 15.0 -27.9 14.5 Q-28.3 13.95 -28.8 13.9 -34.85 13.1 -40.6 14.15 -39.7 8.75 -39.8 3.2 L-39.9 -9.5 Q-45.2 -12.75 -50.65 -13.6 -47.65 -14.7 -45.25 -16.8 -42.8 -19.0 -39.7 -19.95 -29.4 -23.05 -27.9 -32.1 -32.2 -35.55 -37.6 -37.4 -35.05 -38.25 -32.45 -38.45 -22.5 -39.35 -14.65 -44.45 L-14.5 -45.55 -14.45 -47.65 Q-15.3 -49.0 -16.8 -49.65 -21.55 -51.75 -24.35 -53.65 L-21.85 -55.2 Q-16.75 -57.8 -17.3 -63.2 -19.25 -65.4 -22.55 -65.15 -29.8 -64.65 -34.05 -67.05 L-33.9 -67.6 -33.7 -68.15 Q-30.95 -70.45 -28.75 -73.45 L-28.1 -75.95 Q-26.75 -79.3 -27.15 -82.95 -29.15 -85.3 -32.1 -85.95 -34.45 -88.1 -37.75 -88.1 L-37.95 -88.4 -38.45 -88.95 Q-34.8 -90.75 -31.0 -92.0 -21.45 -95.15 -15.85 -102.75 L-15.85 -103.25 -15.85 -104.85 Q-16.8 -106.3 -18.5 -106.6 L-18.75 -107.1 -19.6 -108.2 Q-15.3 -110.8 -11.65 -114.05 -11.4 -116.55 -12.35 -118.65 L-16.4 -127.3 Q-9.1 -127.75 -2.3 -130.1 -1.4 -133.1 -1.55 -136.45 L-1.75 -144.95 Q1.95 -144.3 5.3 -142.65 11.6 -139.45 15.55 -144.4 L15.8 -144.9 17.5 -147.6 17.65 -147.65 18.0 -147.55 18.75 -146.7 Q19.85 -142.6 22.0 -138.7" fill="#ffff00" fill-opacity="0.5019608" fill-rule="evenodd" stroke="none"/>
  </g>
</svg>
