<?xml version="1.0" encoding="UTF-8" standalone="no"?>
<svg xmlns:ffdec="https://www.free-decompiler.com/flash" xmlns:xlink="http://www.w3.org/1999/xlink" ffdec:objectType="shape" height="127.15px" width="67.5px" xmlns="http://www.w3.org/2000/svg">
  <g transform="matrix(1.0, 0.0, 0.0, 1.0, 26.0, 124.7)">
    <path d="M11.65 -124.7 Q21.75 -124.95 24.4 -115.45 L24.85 -112.6 Q25.1 -106.9 21.15 -104.0 L22.25 -104.35 20.15 -102.95 19.2 -102.85 15.45 -101.85 13.3 -101.5 12.85 -101.45 12.5 -101.55 10.1 -102.2 9.75 -100.65 Q12.55 -99.35 14.45 -96.55 L16.5 -93.55 17.65 -91.9 23.4 -83.6 Q24.35 -82.25 24.75 -80.75 26.35 -79.5 27.5 -77.6 27.95 -76.8 28.85 -76.35 31.8 -74.9 34.85 -73.7 38.0 -77.25 40.75 -73.45 41.8 -72.0 41.4 -70.2 40.55 -66.05 36.05 -66.75 33.5 -67.2 31.15 -68.15 26.25 -70.1 22.3 -73.45 L21.15 -74.45 Q20.0 -75.6 19.55 -76.9 18.7 -77.55 18.1 -78.8 L15.75 -83.3 Q13.25 -87.65 9.75 -91.45 L8.7 -92.65 7.85 -82.2 Q7.15 -71.9 6.85 -61.55 6.75 -58.4 6.95 -55.25 8.9 -53.95 10.2 -51.6 11.6 -49.0 13.15 -46.55 L18.45 -38.6 19.8 -36.25 Q21.75 -34.4 21.05 -31.0 L20.4 -29.05 Q18.25 -24.2 17.15 -19.1 16.6 -16.6 16.3 -14.1 L14.9 -4.3 Q19.25 -4.35 23.0 -2.45 23.6 -2.15 23.7 -1.4 24.15 1.85 20.8 2.1 15.6 2.5 10.65 1.25 L9.95 0.65 Q9.35 -0.7 9.45 -1.65 9.25 -2.1 9.2 -2.7 8.8 -5.85 9.15 -9.0 10.0 -16.5 11.8 -23.75 12.75 -27.55 14.55 -31.0 14.2 -32.3 14.25 -33.45 10.55 -38.05 7.75 -43.3 L5.25 -47.35 4.35 -43.3 Q3.8 -39.65 2.4 -36.2 1.8 -30.2 -0.85 -24.95 -0.9 -23.95 -1.7 -22.6 L-1.85 -22.35 Q-3.95 -17.8 -7.7 -14.3 L-17.85 -4.25 -10.35 -3.05 Q-9.85 -2.95 -9.6 -2.45 -7.8 1.35 -12.05 2.1 L-19.1 2.3 Q-22.5 1.85 -25.1 0.05 -26.2 -0.7 -25.95 -2.1 L-25.5 -3.35 -25.15 -4.7 Q-24.55 -6.1 -23.55 -7.2 L-8.95 -23.05 Q-8.6 -23.45 -8.4 -23.95 -7.65 -25.95 -6.15 -27.05 L-4.25 -35.6 -0.25 -53.1 0.2 -54.25 0.2 -55.2 Q1.3 -65.4 1.45 -75.85 1.55 -81.55 1.9 -87.25 2.15 -90.9 2.55 -94.4 L-1.65 -90.0 Q-5.15 -86.8 -7.75 -82.75 L-9.2 -80.5 -8.7 -78.9 -8.2 -77.6 Q-7.35 -76.8 -6.95 -75.75 L-6.8 -74.7 -4.85 -71.85 -4.25 -70.95 Q-0.4 -71.45 0.35 -67.9 0.75 -65.95 0.15 -64.1 -0.4 -62.2 -2.3 -61.65 -5.95 -60.65 -7.9 -63.95 -11.45 -69.95 -14.4 -76.35 -17.1 -82.2 -12.9 -87.3 -9.5 -91.4 -5.55 -95.0 -0.1 -100.0 3.15 -106.35 L3.45 -106.75 Q-0.3 -113.4 4.1 -120.35 5.9 -123.2 9.05 -124.05 L11.65 -124.7" fill="#000000" fill-rule="evenodd" stroke="none"/>
  </g>
</svg>
