<?xml version="1.0" encoding="UTF-8" standalone="no"?>
<svg xmlns:ffdec="https://www.free-decompiler.com/flash" xmlns:xlink="http://www.w3.org/1999/xlink" ffdec:objectType="shape" height="163.3px" width="100.6px" xmlns="http://www.w3.org/2000/svg">
  <g transform="matrix(1.0, 0.0, 0.0, 1.0, 43.75, 142.8)">
    <path d="M25.8 -142.1 L25.8 -141.05 Q25.65 -135.7 25.95 -130.45 L38.5 -128.35 38.45 -127.8 36.9 -122.0 Q34.95 -118.65 32.15 -115.65 L32.1 -115.1 Q32.05 -114.25 32.35 -113.5 34.5 -111.7 37.45 -111.45 43.35 -111.0 47.15 -108.2 40.15 -97.75 27.55 -97.1 L27.3 -96.55 Q27.1 -95.45 27.4 -94.45 30.1 -93.35 32.15 -93.55 32.5 -92.25 33.9 -92.15 41.25 -95.9 47.5 -94.1 43.8 -89.85 39.1 -86.6 34.15 -83.15 31.45 -78.75 31.8 -78.2 32.2 -78.15 L54.05 -76.9 54.95 -76.6 Q50.2 -72.7 46.25 -68.15 L46.25 -67.6 Q46.15 -66.5 46.45 -65.5 L56.0 -60.2 52.65 -57.9 52.65 -57.35 Q53.15 -47.65 56.85 -38.85 52.6 -38.6 48.8 -40.65 43.55 -43.45 39.2 -41.65 L39.2 -41.1 Q39.05 -37.05 40.25 -33.2 35.65 -34.45 33.55 -31.4 L33.55 -30.9 Q33.45 -29.8 33.75 -28.75 L43.45 -17.65 26.5 -16.8 Q24.8 -16.7 23.7 -15.5 L23.65 -15.0 Q23.45 -13.55 24.05 -12.35 33.65 -3.75 38.7 7.8 34.3 6.2 30.75 7.8 L30.7 8.3 Q29.95 14.45 28.6 20.5 L27.9 20.5 Q25.75 18.95 23.4 17.7 L22.0 17.15 Q13.5 15.1 5.3 19.1 L4.1 18.9 Q1.45 14.4 -3.7 15.95 -6.8 16.9 -9.6 18.35 -13.4 20.3 -15.85 19.95 L-15.85 18.9 -15.85 13.1 Q-16.4 11.95 -17.65 11.65 -26.95 14.1 -36.55 14.3 L-36.2 13.75 Q-33.9 8.85 -34.25 3.2 L-34.6 2.65 -35.3 1.1 Q-40.1 -0.8 -43.75 -2.65 -37.45 -4.05 -33.0 -8.45 -32.7 -9.5 -32.75 -10.6 -32.8 -11.65 -33.35 -12.3 -36.65 -16.65 -37.75 -21.7 L-35.95 -22.3 Q-30.65 -22.65 -27.35 -26.3 L-27.25 -26.85 Q-27.05 -28.95 -27.35 -31.05 -29.0 -32.65 -29.8 -34.75 -22.65 -37.55 -16.75 -42.35 L-16.6 -42.9 -16.6 -43.4 -15.35 -44.45 -15.25 -45.0 -15.15 -47.65 Q-15.6 -48.2 -16.1 -48.25 L-27.85 -49.65 Q-28.25 -49.7 -28.6 -50.1 -29.05 -54.6 -26.1 -58.1 -22.85 -61.95 -20.3 -66.55 L-20.15 -67.1 -20.1 -68.15 Q-20.55 -68.65 -21.05 -68.7 -30.55 -69.4 -39.7 -71.15 L-39.95 -71.65 -40.6 -72.7 -40.25 -73.25 -39.9 -73.8 -39.9 -74.3 -39.9 -75.9 Q-37.0 -80.35 -33.55 -84.4 -32.75 -89.15 -36.7 -91.8 -32.5 -90.85 -29.1 -92.65 L-28.85 -93.25 Q-27.3 -99.35 -27.9 -105.9 -21.6 -104.05 -16.6 -106.25 L-16.6 -106.8 Q-16.8 -109.35 -15.85 -111.55 -11.25 -110.15 -8.1 -112.6 L-8.1 -113.7 -8.1 -126.4 -7.4 -126.55 Q-3.15 -123.45 1.45 -125.35 2.0 -127.35 3.75 -128.5 L3.85 -129.05 Q4.8 -134.5 4.6 -140.15 L4.95 -140.7 6.35 -142.8 11.85 -139.1 Q13.3 -136.7 16.05 -137.8 L25.8 -142.1" fill="#ffff00" fill-opacity="0.5019608" fill-rule="evenodd" stroke="none"/>
  </g>
</svg>
