<?xml version="1.0" encoding="UTF-8" standalone="no"?>
<svg xmlns:ffdec="https://www.free-decompiler.com/flash" xmlns:xlink="http://www.w3.org/1999/xlink" ffdec:objectType="shape" height="125.85px" width="61.55px" xmlns="http://www.w3.org/2000/svg">
  <g transform="matrix(1.0, 0.0, 0.0, 1.0, 25.05, 123.85)">
    <path d="M9.05 -123.2 L11.65 -123.85 Q21.75 -124.1 24.4 -114.6 L24.85 -111.75 Q25.1 -106.05 21.15 -103.15 L22.25 -103.5 20.15 -102.1 19.2 -102.0 15.45 -101.0 13.3 -100.65 12.85 -100.6 12.5 -100.7 11.3 -101.0 12.55 -98.6 Q14.8 -92.6 18.15 -87.1 L19.05 -85.45 Q23.5 -76.2 28.55 -67.3 L28.85 -66.55 32.1 -62.4 32.85 -61.5 Q38.05 -60.45 35.8 -55.9 35.1 -54.55 33.6 -54.2 30.85 -53.55 28.85 -55.25 27.9 -56.05 27.95 -57.3 21.5 -64.95 17.3 -74.15 13.0 -83.5 8.3 -92.65 L8.25 -92.8 Q7.85 -88.5 8.1 -84.0 L8.45 -73.45 Q8.55 -63.95 8.3 -54.55 10.25 -53.3 11.45 -51.0 12.65 -48.7 14.2 -46.6 16.6 -43.3 18.25 -39.7 20.55 -37.65 20.95 -35.15 22.25 -33.35 20.8 -30.3 18.55 -25.55 17.6 -20.3 L15.1 -4.9 Q16.9 -4.1 19.95 -3.3 20.75 -3.1 21.05 -2.25 22.1 0.9 18.8 1.65 L13.2 1.85 Q11.0 1.6 9.55 0.1 8.2 -1.3 8.45 -3.45 9.25 -9.6 10.2 -15.6 11.25 -22.3 13.55 -28.75 L14.2 -31.3 14.75 -33.1 14.4 -33.65 Q10.75 -40.25 6.6 -46.55 L6.25 -46.05 Q2.6 -37.05 -0.25 -27.8 -0.55 -26.9 -1.15 -26.2 -1.35 -24.8 -1.85 -23.9 -2.0 -23.1 -2.5 -22.1 -4.05 -19.05 -6.1 -16.25 -9.9 -11.05 -14.45 -6.6 L-16.3 -4.8 Q-12.4 -4.3 -8.7 -3.0 -8.0 -2.75 -7.8 -2.0 -7.05 1.4 -10.65 1.8 -13.6 2.1 -16.55 1.75 L-21.85 1.1 Q-25.75 0.55 -24.9 -2.95 L-24.85 -4.55 Q-24.3 -6.75 -22.25 -8.2 -21.0 -9.05 -20.0 -10.15 -15.4 -15.15 -11.15 -20.4 -10.05 -21.75 -9.45 -23.4 -8.85 -25.1 -7.8 -26.2 -7.7 -28.65 -6.45 -31.0 -4.8 -34.15 -3.7 -37.45 -1.6 -43.8 1.15 -49.7 1.0 -50.5 1.15 -51.55 2.75 -61.65 2.5 -72.2 2.2 -82.65 2.2 -93.1 L2.3 -96.5 -0.7 -93.45 -2.0 -92.25 Q-6.3 -88.95 -9.75 -84.85 -9.7 -83.85 -10.05 -82.65 L-10.35 -80.6 Q-10.55 -73.3 -10.1 -66.1 -5.45 -65.2 -7.05 -60.75 -8.45 -56.8 -12.8 -58.5 -14.6 -59.2 -15.3 -60.95 -17.05 -65.25 -16.8 -70.2 L-16.4 -84.45 Q-16.35 -86.5 -15.2 -87.55 -14.6 -89.2 -13.25 -90.45 L1.95 -104.65 3.45 -105.6 3.5 -105.8 Q-0.3 -112.5 4.1 -119.5 5.9 -122.35 9.05 -123.2" fill="#000000" fill-rule="evenodd" stroke="none"/>
  </g>
</svg>
