<?xml version="1.0" encoding="UTF-8" standalone="no"?>
<svg xmlns:ffdec="https://www.free-decompiler.com/flash" xmlns:xlink="http://www.w3.org/1999/xlink" ffdec:objectType="shape" height="171.95px" width="95.85px" xmlns="http://www.w3.org/2000/svg">
  <g transform="matrix(1.0, 0.0, 0.0, 1.0, 49.05, 143.35)">
    <path d="M21.75 -137.5 Q23.55 -135.75 25.45 -137.35 26.7 -140.0 28.45 -142.45 29.4 -139.1 29.8 -135.6 30.5 -128.35 32.35 -121.3 36.05 -120.05 37.8 -118.8 33.35 -115.8 30.75 -111.4 L30.8 -110.85 31.45 -106.6 37.1 -100.8 Q30.55 -96.55 22.95 -94.6 L22.95 -94.1 22.95 -92.5 Q24.3 -90.85 26.25 -90.35 34.2 -88.45 39.4 -83.65 34.8 -80.75 30.75 -77.5 L30.7 -76.95 Q30.6 -75.05 30.9 -73.25 L33.15 -70.95 Q40.15 -64.0 46.8 -56.5 41.25 -55.9 37.1 -52.25 L37.1 -51.7 37.1 -48.0 37.8 -46.95 37.8 -46.4 37.8 -45.35 Q40.45 -43.05 39.9 -39.55 35.55 -40.65 33.55 -37.75 L33.55 -37.25 Q33.7 -34.3 33.4 -31.4 29.2 -29.65 30.2 -25.25 31.3 -23.05 33.4 -22.05 L44.35 -13.95 Q37.7 -12.55 32.85 -8.8 L32.85 -8.3 Q32.75 -6.15 33.05 -4.05 38.8 1.3 42.75 7.1 L37.1 7.8 Q30.4 7.85 27.2 12.2 L27.15 12.7 Q26.7 16.15 28.25 19.1 21.5 17.45 14.5 16.35 12.9 16.1 11.85 16.75 7.15 19.85 7.8 26.15 3.25 23.4 0.25 19.15 -3.3 14.0 -8.8 14.15 L-9.1 14.5 Q-12.45 19.65 -13.4 25.25 -14.1 23.3 -15.85 22.25 -15.75 21.15 -16.55 20.7 -23.8 16.3 -28.6 22.6 L-35.65 28.6 -35.6 26.7 Q-35.25 20.45 -36.35 14.5 -36.8 13.95 -37.3 13.9 L-46.6 12.95 -47.45 12.75 -47.25 12.25 Q-43.15 5.65 -37.95 0.0 L-37.75 -0.5 Q-36.95 -2.3 -37.05 -4.2 L-36.35 -5.3 -36.35 -5.8 -36.35 -7.4 Q-42.4 -11.15 -49.05 -12.85 -45.85 -15.3 -41.4 -16.05 -32.85 -17.6 -25.95 -21.9 -25.65 -25.65 -28.95 -28.25 -27.3 -28.95 -25.65 -29.25 -16.75 -30.95 -10.2 -36.35 L-10.2 -36.9 Q-10.2 -37.7 -10.6 -38.45 -11.45 -39.0 -12.4 -39.1 L-35.65 -40.95 -33.8 -42.35 Q-28.35 -46.8 -29.3 -54.0 -32.0 -56.7 -35.65 -56.3 -35.25 -58.7 -34.1 -61.0 -30.75 -67.45 -31.6 -74.85 -35.4 -77.9 -39.2 -78.9 -35.15 -83.55 -30.0 -87.4 -28.35 -87.75 -27.35 -88.95 L-27.15 -89.5 Q-26.25 -91.75 -26.45 -94.25 -27.25 -95.2 -27.5 -96.4 L-28.05 -97.45 Q-26.5 -97.55 -25.05 -98.15 -24.45 -98.8 -24.0 -99.55 -17.6 -100.5 -13.2 -105.2 L-13.1 -105.75 -13.05 -108.4 Q-14.7 -111.25 -17.3 -113.15 -13.25 -114.3 -10.2 -116.85 L-10.2 -117.4 Q-10.1 -118.75 -10.4 -120.05 -11.3 -121.45 -12.85 -122.15 -13.6 -124.6 -15.7 -126.4 L-4.1 -127.55 Q-3.6 -127.65 -3.15 -128.15 -4.4 -132.3 -7.55 -135.6 -0.6 -131.4 6.9 -132.2 L7.15 -132.8 Q8.55 -138.2 10.95 -143.35 16.15 -139.8 21.75 -137.5" fill="#ffff00" fill-opacity="0.5019608" fill-rule="evenodd" stroke="none"/>
  </g>
</svg>
