<?xml version="1.0" encoding="UTF-8" standalone="no"?>
<svg xmlns:ffdec="https://www.free-decompiler.com/flash" xmlns:xlink="http://www.w3.org/1999/xlink" ffdec:objectType="shape" height="125.45px" width="56.9px" xmlns="http://www.w3.org/2000/svg">
  <g transform="matrix(1.0, 0.0, 0.0, 1.0, 27.75, 122.7)">
    <path d="M8.55 -122.05 L11.15 -122.7 Q21.25 -122.95 23.9 -113.45 24.3 -112.1 24.35 -110.6 24.6 -104.9 20.65 -102.0 L21.75 -102.35 19.65 -100.95 18.7 -100.85 14.95 -99.85 12.8 -99.5 12.35 -99.45 12.0 -99.55 8.95 -100.4 9.4 -98.65 Q9.5 -97.7 9.9 -96.8 11.9 -91.95 14.15 -87.3 14.9 -85.75 14.75 -84.05 L16.6 -79.85 16.85 -78.2 Q20.3 -70.3 24.7 -62.85 L25.0 -62.05 Q27.8 -57.4 29.0 -52.2 29.6 -49.5 27.65 -47.65 25.1 -45.1 22.6 -47.75 20.9 -49.55 22.15 -51.4 L22.1 -51.8 22.2 -52.9 Q20.95 -56.45 19.15 -59.7 L18.7 -60.9 Q13.25 -69.25 10.3 -78.45 L9.35 -80.45 Q8.25 -82.1 8.45 -84.2 7.1 -86.25 6.4 -88.7 L6.25 -89.15 Q6.05 -85.7 6.2 -82.1 L6.9 -61.45 6.75 -57.5 Q8.1 -56.15 8.9 -54.1 9.2 -53.3 9.8 -52.6 16.45 -44.75 20.45 -35.15 L20.95 -33.45 Q21.75 -31.8 21.05 -29.25 18.25 -19.45 15.8 -9.6 L15.05 -7.45 Q14.45 -5.85 14.45 -4.15 L14.45 -4.1 Q18.55 -3.5 22.45 -2.4 L23.05 -1.8 Q24.5 1.85 20.45 2.4 L12.15 1.95 10.1 1.45 9.65 1.3 Q8.45 1.35 7.85 0.25 6.55 -2.35 7.95 -5.05 L8.4 -6.2 Q8.95 -8.1 8.95 -9.95 8.9 -12.1 10.3 -13.65 11.65 -20.55 13.4 -27.2 13.75 -28.5 14.55 -29.55 14.4 -31.3 14.9 -32.65 11.4 -40.35 6.25 -47.2 L4.95 -48.55 Q3.7 -39.0 0.8 -29.8 -0.15 -26.75 -2.05 -24.2 L-2.1 -24.1 Q-2.6 -22.65 -3.8 -21.6 -7.05 -18.75 -9.65 -15.25 -13.15 -9.3 -17.9 -4.1 -13.6 -3.6 -9.45 -2.4 -8.55 -2.15 -8.3 -1.3 -7.15 2.8 -11.65 2.75 L-15.0 2.65 Q-19.6 2.45 -23.9 1.35 -25.5 1.95 -26.7 0.55 -27.55 0.2 -27.7 -0.7 -27.9 -2.5 -26.95 -3.5 L-25.3 -5.7 Q-18.45 -12.3 -13.35 -20.45 -11.5 -23.4 -8.95 -25.95 L-6.85 -27.6 Q-3.05 -36.8 -1.85 -46.7 -1.35 -50.85 -0.25 -54.85 -0.05 -55.65 0.4 -56.15 0.7 -65.25 0.3 -74.25 -0.2 -84.75 0.65 -95.15 L0.8 -96.55 -7.55 -90.2 -9.9 -88.35 -13.85 -85.1 -13.9 -83.0 -14.2 -78.55 -14.2 -65.3 Q-10.7 -62.35 -12.95 -58.05 -13.7 -56.6 -15.4 -56.4 -20.3 -55.8 -20.35 -60.45 L-20.7 -79.0 Q-20.85 -82.15 -20.2 -84.95 -20.6 -86.15 -19.8 -87.9 L-18.5 -89.55 Q-10.4 -96.0 -2.15 -102.1 L1.95 -105.65 2.35 -106.0 Q-0.4 -112.05 3.6 -118.35 5.4 -121.2 8.55 -122.05" fill="#000000" fill-rule="evenodd" stroke="none"/>
  </g>
</svg>
