<?xml version="1.0" encoding="UTF-8" standalone="no"?>
<svg xmlns:ffdec="https://www.free-decompiler.com/flash" xmlns:xlink="http://www.w3.org/1999/xlink" ffdec:objectType="shape" height="157.5px" width="98.9px" xmlns="http://www.w3.org/2000/svg">
  <g transform="matrix(1.0, 0.0, 0.0, 1.0, 48.55, 138.05)">
    <path d="M20.5 -131.7 Q21.65 -133.9 23.5 -135.75 23.95 -134.3 24.55 -132.95 27.4 -126.35 31.45 -120.9 L31.5 -120.4 31.6 -119.85 Q32.55 -119.15 33.6 -118.8 38.05 -117.25 42.75 -117.9 L40.45 -115.8 32.85 -107.85 32.85 -107.35 32.85 -104.7 33.55 -103.6 33.55 -103.1 Q33.45 -102.25 33.75 -101.5 34.5 -100.7 35.7 -100.45 29.85 -98.2 26.5 -93.75 31.1 -89.4 37.1 -85.95 L36.55 -84.9 Q33.4 -79.4 34.25 -72.7 40.1 -68.5 46.65 -65.15 L43.45 -62.85 Q43.45 -60.45 43.75 -58.1 44.6 -51.1 50.35 -45.9 L34.65 -45.0 Q32.85 -44.9 32.15 -43.4 L32.15 -42.9 32.15 -41.85 32.85 -40.75 32.85 -40.25 Q32.75 -39.4 33.05 -38.65 36.25 -35.5 38.35 -31.75 34.7 -31.95 32.15 -29.65 L32.15 -29.1 Q32.0 -26.45 32.35 -23.8 L34.25 -22.6 34.3 -22.05 34.45 -21.0 Q39.75 -15.9 44.35 -10.4 36.25 -8.95 30.05 -4.55 L30.15 -3.0 Q30.95 3.75 35.5 9.2 L33.25 8.7 Q26.45 6.8 22.95 12.2 23.25 15.45 20.85 16.95 14.9 12.55 10.05 6.95 9.1 5.9 8.2 6.6 2.8 10.45 0.9 17.3 L0.05 16.4 -4.15 12.25 Q-8.95 7.95 -12.5 12.2 -14.7 13.5 -16.4 15.4 L-16.55 15.9 -16.6 16.45 Q-17.35 17.25 -18.35 17.65 -19.15 12.4 -23.3 9.55 -28.1 11.9 -32.15 15.65 -35.95 19.2 -38.8 19.45 L-38.3 18.4 Q-35.15 12.2 -31.25 6.2 -30.3 6.0 -29.65 5.3 -28.8 3.25 -28.6 1.1 -29.15 -0.05 -30.35 -0.35 -32.7 0.25 -34.25 2.15 L-43.95 1.95 Q-39.05 -1.3 -35.65 -6.0 L-35.65 -6.5 -35.65 -8.1 Q-37.45 -10.35 -40.4 -10.4 -45.45 -12.75 -48.55 -15.35 L-33.15 -20.8 Q-31.4 -27.1 -36.9 -30.9 -31.6 -34.85 -25.4 -37.05 L-25.2 -37.6 Q-24.95 -38.35 -25.05 -39.2 -26.05 -40.45 -27.6 -40.95 -34.2 -43.3 -39.35 -46.6 -33.05 -49.6 -33.55 -56.15 -36.95 -58.45 -40.4 -60.2 L-37.35 -63.5 -34.0 -66.65 Q-31.8 -68.75 -30.8 -71.45 -27.75 -79.55 -34.4 -83.5 -33.1 -84.2 -32.65 -85.6 -25.55 -88.55 -27.9 -95.3 L-17.3 -104.85 Q-16.95 -106.85 -17.8 -108.55 -19.75 -110.0 -20.3 -112.25 -19.5 -112.9 -19.25 -113.85 -12.85 -115.35 -9.5 -120.2 -10.35 -123.0 -13.2 -123.9 -14.45 -127.05 -17.65 -128.7 -10.45 -125.35 -2.45 -127.1 L-2.15 -127.5 Q0.55 -132.4 0.7 -138.05 4.75 -137.25 8.55 -134.6 14.3 -130.7 20.5 -131.7" fill="#ffff00" fill-opacity="0.5019608" fill-rule="evenodd" stroke="none"/>
  </g>
</svg>
