<?xml version="1.0" encoding="UTF-8" standalone="no"?>
<svg xmlns:ffdec="https://www.free-decompiler.com/flash" xmlns:xlink="http://www.w3.org/1999/xlink" ffdec:objectType="shape" height="172.45px" width="96.05px" xmlns="http://www.w3.org/2000/svg">
  <g transform="matrix(1.0, 0.0, 0.0, 1.0, 48.2, 144.9)">
    <path d="M29.35 -137.7 Q29.45 -136.15 28.55 -134.85 25.5 -130.55 25.8 -125.15 26.25 -124.65 26.75 -124.55 33.85 -123.7 39.9 -120.05 L39.4 -119.1 28.6 -105.75 28.55 -103.6 Q28.5 -102.55 28.8 -101.5 L30.25 -100.45 Q31.3 -99.45 32.7 -99.05 32.5 -98.3 31.65 -97.8 27.9 -95.6 25.8 -91.8 L25.8 -90.2 25.8 -89.15 Q27.45 -86.7 30.55 -86.85 32.35 -84.4 36.05 -84.3 41.2 -84.2 43.1 -82.1 41.0 -80.55 38.6 -79.45 33.8 -77.2 31.45 -73.8 33.75 -71.5 37.45 -71.4 43.5 -71.2 47.85 -68.85 43.25 -66.35 39.9 -62.5 L39.95 -60.9 40.1 -59.85 Q44.6 -57.4 47.0 -54.35 L45.85 -53.45 Q44.7 -52.75 43.55 -52.9 38.75 -53.55 35.7 -50.85 L35.7 -48.7 35.7 -46.6 36.25 -46.1 38.0 -45.0 38.2 -44.5 Q39.3 -42.7 41.35 -41.85 37.7 -40.1 35.0 -37.25 L35.0 -35.65 35.0 -34.05 35.4 -33.6 37.8 -31.4 Q37.25 -30.95 36.65 -30.8 30.35 -28.8 26.5 -24.7 26.7 -24.15 27.05 -24.0 36.3 -19.05 45.75 -15.0 39.0 -11.95 32.85 -8.8 L32.85 -8.3 32.85 -7.75 32.85 -7.2 33.45 -6.1 Q33.9 -5.0 35.0 -4.05 34.9 -2.3 35.9 -0.8 38.7 3.4 37.8 8.65 36.85 8.6 36.3 8.05 32.25 4.1 29.35 8.15 L29.35 8.65 29.35 9.2 29.35 9.75 28.95 10.25 28.6 10.8 28.6 11.85 28.45 12.9 Q26.9 14.1 26.4 15.95 L22.8 27.55 Q17.85 19.05 10.35 12.5 9.65 11.85 8.85 12.3 1.6 16.25 -6.0 19.6 -6.8 18.85 -7.1 17.65 -7.5 16.1 -7.4 14.5 -9.1 12.25 -11.9 12.8 -24.1 15.15 -35.65 19.6 -35.9 18.25 -35.6 17.0 L-34.25 12.35 -34.65 11.95 Q-36.65 10.65 -38.8 9.55 L-39.1 9.15 -39.2 8.65 -39.2 8.15 Q-37.85 6.5 -35.3 6.55 L-34.8 6.15 -34.45 5.65 -34.25 5.15 Q-34.2 4.15 -35.2 3.95 L-44.3 2.85 -43.75 2.3 Q-41.1 -0.2 -37.05 -0.7 L-36.75 -1.05 -36.4 -1.6 -36.2 -2.1 -35.3 -2.45 Q-33.4 -3.15 -32.3 -4.95 -32.0 -6.5 -32.5 -8.0 -33.9 -12.25 -37.95 -15.0 L-31.75 -15.95 Q-30.55 -16.15 -30.0 -17.3 L-30.0 -18.35 -30.0 -19.4 -30.65 -20.5 Q-32.45 -23.9 -35.3 -26.3 L-35.6 -27.3 Q-36.3 -29.1 -37.75 -30.55 L-37.25 -31.05 -23.3 -34.95 -23.0 -36.0 -22.95 -37.05 Q-32.15 -43.8 -42.2 -47.85 -40.7 -49.0 -40.25 -50.9 -39.9 -52.4 -40.4 -53.8 -42.9 -60.4 -48.2 -65.65 -43.15 -65.6 -38.8 -67.45 -37.95 -69.0 -37.55 -70.7 -36.25 -76.3 -38.45 -81.2 -34.35 -80.5 -30.55 -81.35 -29.7 -82.8 -29.8 -84.55 L-30.0 -90.9 -29.0 -92.45 Q-28.5 -93.45 -28.4 -94.6 -25.4 -93.45 -23.65 -95.65 L-23.65 -96.2 -23.65 -96.75 -23.3 -97.25 -22.95 -97.8 -22.95 -99.9 -22.95 -103.1 Q-16.55 -101.0 -11.65 -103.45 -11.65 -105.05 -12.2 -106.35 -14.45 -111.6 -16.05 -117.2 -11.9 -117.0 -8.45 -119.0 -7.9 -121.05 -7.75 -123.2 L-6.7 -134.85 Q-4.25 -131.85 -0.65 -131.45 0.5 -131.35 1.2 -132.35 6.05 -139.3 12.75 -144.75 13.55 -145.2 13.8 -144.1 14.15 -142.8 15.2 -141.95 15.1 -141.1 15.45 -140.4 16.0 -139.4 16.1 -138.2 22.4 -136.55 29.35 -137.7" fill="#ffff00" fill-opacity="0.5019608" fill-rule="evenodd" stroke="none"/>
  </g>
</svg>
