<?xml version="1.0" encoding="UTF-8" standalone="no"?>
<svg xmlns:ffdec="https://www.free-decompiler.com/flash" xmlns:xlink="http://www.w3.org/1999/xlink" ffdec:objectType="shape" height="170.9px" width="107.0px" xmlns="http://www.w3.org/2000/svg">
  <g transform="matrix(1.0, 0.0, 0.0, 1.0, 52.6, 145.1)">
    <path d="M20.3 -127.65 Q25.55 -126.55 30.05 -126.9 L30.05 -126.4 30.0 -125.35 29.85 -124.3 Q28.25 -122.45 27.2 -120.3 25.7 -117.4 24.9 -114.2 L23.9 -113.15 22.95 -112.1 22.95 -111.55 22.95 -111.05 22.6 -110.5 22.25 -110.0 22.25 -108.9 22.2 -107.35 Q22.15 -106.5 22.45 -105.75 30.2 -105.05 37.8 -103.1 L37.8 -102.75 37.8 -102.2 37.8 -101.7 37.8 -101.15 Q36.8 -99.95 36.55 -98.45 36.25 -97.15 36.55 -95.85 L54.4 -90.55 Q52.7 -89.75 51.45 -88.35 L47.0 -83.15 47.0 -82.1 46.95 -80.5 Q46.85 -79.65 47.15 -78.9 L48.9 -77.85 49.45 -77.0 54.4 -73.1 Q54.05 -72.65 53.7 -72.65 47.95 -72.7 43.45 -69.9 43.3 -67.2 43.8 -64.65 44.7 -59.9 48.4 -56.65 48.2 -55.25 48.9 -54.0 L50.5 -50.85 36.45 -49.65 Q36.05 -49.6 35.7 -49.05 L35.8 -44.3 Q35.9 -41.8 37.1 -39.55 35.5 -39.7 34.0 -40.2 28.05 -42.05 23.7 -39.9 L23.7 -39.35 23.7 -38.3 23.85 -37.25 25.4 -36.3 38.7 -26.45 38.25 -26.1 35.4 -24.85 29.7 -22.25 Q29.15 -21.55 29.25 -20.65 L29.35 -19.05 Q34.0 -14.9 39.9 -12.7 L38.15 -11.4 Q37.0 -10.85 36.4 -9.7 L36.4 -8.65 36.35 -7.05 Q36.3 -6.2 36.55 -5.45 38.3 -3.9 39.45 -2.0 L43.45 5.15 42.5 5.15 Q37.2 3.45 32.5 4.6 31.9 9.25 32.05 14.15 32.3 19.95 31.95 25.6 23.35 22.4 15.8 16.7 12.5 14.15 9.0 16.3 L3.75 19.6 2.4 17.85 Q1.45 16.05 -0.7 15.4 -1.35 13.3 -2.65 11.55 -7.4 5.25 -11.65 12.75 L-11.65 13.25 -11.7 13.8 -11.8 14.3 -14.8 17.9 -20.65 25.8 Q-20.7 22.8 -19.5 19.85 -18.0 16.2 -18.0 12.35 -18.45 11.85 -18.95 11.75 -23.2 10.85 -27.55 12.5 -31.3 13.85 -33.15 13.8 -31.45 12.25 -31.1 10.0 -30.45 6.1 -34.05 4.25 L-34.75 3.4 Q-39.35 -0.4 -44.1 -3.7 -38.95 -3.95 -35.8 -7.75 -35.35 -9.35 -35.9 -10.95 -36.9 -13.9 -39.55 -15.7 -39.7 -17.45 -40.8 -18.85 L-43.75 -22.6 Q-34.0 -21.9 -25.4 -25.05 -25.05 -25.8 -25.0 -26.65 -24.95 -27.45 -25.25 -28.25 L-26.05 -29.35 -27.0 -30.9 -28.3 -32.05 -29.8 -34.05 -28.2 -35.6 Q-25.35 -38.3 -22.05 -40.4 L-21.15 -42.0 Q-20.7 -42.8 -21.0 -43.6 -21.6 -45.1 -23.3 -45.5 -32.3 -47.5 -40.6 -47.1 -38.25 -49.3 -38.25 -52.4 -38.25 -55.4 -38.8 -58.25 -45.3 -62.35 -52.6 -65.15 -43.05 -66.45 -36.35 -72.35 L-36.3 -78.2 Q-36.2 -81.25 -37.05 -84.0 L-33.9 -83.5 Q-30.8 -80.85 -27.0 -82.8 -26.1 -86.35 -26.85 -90.1 L-28.6 -100.25 Q-19.6 -97.4 -10.6 -98.5 L-10.4 -99.05 -10.3 -99.55 -10.2 -100.6 -10.6 -101.15 -10.95 -101.7 -10.95 -102.2 -10.95 -102.75 -11.1 -103.8 -11.5 -104.3 -11.95 -104.9 -12.35 -105.4 -12.25 -109.1 Q-12.2 -110.7 -12.5 -112.25 L-14.65 -114.75 Q-16.7 -117.1 -18.0 -119.7 -14.5 -118.5 -12.0 -120.4 -11.4 -124.05 -11.5 -127.8 L-11.65 -136.3 Q-8.05 -135.15 -5.15 -132.55 -3.4 -130.95 -1.35 -132.25 8.65 -138.5 18.75 -145.1 19.9 -142.3 19.95 -137.7 20.0 -132.65 20.3 -127.65" fill="#ffff00" fill-opacity="0.5019608" fill-rule="evenodd" stroke="none"/>
  </g>
</svg>
