<?xml version="1.0" encoding="UTF-8" standalone="no"?>
<svg xmlns:ffdec="https://www.free-decompiler.com/flash" xmlns:xlink="http://www.w3.org/1999/xlink" ffdec:objectType="shape" height="125.6px" width="59.55px" xmlns="http://www.w3.org/2000/svg">
  <g transform="matrix(1.0, 0.0, 0.0, 1.0, 26.7, 122.55)">
    <path d="M4.8 -122.55 Q14.9 -122.8 17.55 -113.3 17.95 -111.95 18.0 -110.45 18.25 -104.75 14.3 -101.85 L15.4 -102.2 13.3 -100.8 12.35 -100.7 11.8 -100.55 11.55 -99.55 Q15.15 -98.3 18.15 -95.4 25.45 -88.4 31.55 -80.5 33.15 -78.95 32.75 -75.95 32.4 -73.35 32.4 -70.7 32.45 -63.55 30.75 -56.75 30.4 -55.5 29.2 -55.05 24.15 -53.05 22.25 -57.5 20.35 -61.85 24.75 -63.0 L25.85 -63.2 Q26.05 -70.45 26.6 -77.6 L23.6 -80.85 Q17.8 -87.75 10.75 -93.3 L10.2 -89.6 9.8 -88.8 Q9.7 -84.55 8.6 -80.55 7.2 -75.6 6.35 -70.55 L4.65 -61.55 Q7.45 -60.05 8.5 -56.55 L8.9 -55.7 Q11.6 -51.5 12.95 -46.95 16.35 -40.3 18.25 -33.15 19.65 -31.55 18.6 -28.65 L17.9 -27.35 15.5 -18.85 Q14.0 -13.9 13.6 -8.8 L13.1 -5.25 Q17.9 -4.65 22.4 -3.0 23.1 -2.75 23.25 -2.0 24.0 1.4 20.45 1.75 L15.85 1.85 Q12.4 1.65 9.25 0.6 L8.3 0.25 Q6.2 -0.5 6.35 -3.35 6.8 -12.0 9.25 -20.0 10.05 -23.8 11.2 -27.5 L12.1 -30.4 12.5 -31.4 Q11.05 -34.05 10.65 -37.05 7.65 -44.05 4.05 -50.75 L3.85 -50.05 3.45 -49.25 Q1.85 -39.75 -0.55 -30.35 L-1.55 -27.25 Q-0.8 -26.25 -1.35 -24.35 -1.7 -23.0 -2.8 -22.0 L-6.3 -18.35 -10.3 -14.15 Q-14.85 -9.8 -18.5 -4.85 -14.05 -3.9 -9.95 -1.85 -9.3 -1.5 -9.2 -0.75 -8.75 3.05 -12.75 3.05 -13.9 3.1 -14.75 2.3 -20.45 1.65 -25.6 -0.4 -26.5 -0.8 -26.65 -1.75 -26.9 -3.8 -25.7 -4.75 -25.4 -6.75 -23.95 -8.45 L-10.45 -23.8 -7.9 -26.3 -7.8 -27.55 -5.85 -36.6 -3.1 -47.2 -2.85 -48.55 -3.25 -48.85 Q-2.75 -49.75 -2.55 -50.7 L-2.4 -51.15 Q-1.6 -55.4 -1.8 -59.75 -0.85 -62.65 -0.8 -65.7 L-0.7 -65.85 Q0.8 -75.4 2.75 -84.85 L3.2 -87.1 3.75 -90.75 Q3.8 -91.4 4.2 -91.9 L-1.95 -87.3 Q-8.6 -81.35 -13.1 -73.85 -15.8 -69.45 -18.1 -65.05 L-18.95 -62.35 -19.45 -60.8 Q-18.3 -55.8 -23.65 -56.2 -27.1 -56.45 -26.6 -59.8 -26.0 -63.55 -24.25 -67.0 -20.0 -75.5 -14.25 -83.2 L-11.35 -86.65 Q-4.25 -94.25 4.6 -99.65 L1.55 -100.55 Q-0.45 -101.15 -2.1 -102.25 L-3.4 -104.15 -3.35 -104.5 Q-7.15 -111.2 -2.75 -118.2 -0.95 -121.05 2.2 -121.9 L4.8 -122.55" fill="#000000" fill-rule="evenodd" stroke="none"/>
  </g>
</svg>
