<?xml version="1.0" encoding="UTF-8" standalone="no"?>
<svg xmlns:ffdec="https://www.free-decompiler.com/flash" xmlns:xlink="http://www.w3.org/1999/xlink" ffdec:objectType="shape" height="169.9px" width="102.75px" xmlns="http://www.w3.org/2000/svg">
  <g transform="matrix(1.0, 0.0, 0.0, 1.0, 50.1, 142.5)">
    <path d="M19.6 -139.65 L19.55 -138.6 Q19.6 -131.6 18.55 -124.8 L18.05 -124.3 18.0 -123.75 Q17.9 -122.1 18.2 -120.55 24.8 -119.2 30.05 -119.85 L29.9 -119.35 Q29.6 -118.2 28.95 -117.2 27.35 -116.95 26.5 -115.65 26.05 -112.1 23.7 -109.25 L23.65 -108.75 Q23.55 -107.9 23.85 -107.15 24.65 -106.7 25.45 -106.65 L52.65 -105.75 Q48.7 -101.8 45.2 -97.25 43.4 -96.05 42.2 -94.1 L42.1 -93.55 42.05 -93.05 Q40.15 -91.85 39.55 -89.85 L38.5 -88.8 38.5 -88.25 Q38.4 -86.35 38.7 -84.55 L42.05 -82.95 Q42.35 -81.65 43.8 -81.55 46.9 -82.55 46.8 -81.9 41.95 -79.35 37.8 -75.55 L37.8 -75.0 37.8 -71.3 Q41.05 -66.4 45.55 -62.85 L45.65 -62.35 45.9 -61.8 46.25 -60.7 Q39.95 -58.8 34.25 -55.75 L34.25 -55.25 34.25 -51.0 Q34.9 -49.9 36.05 -49.4 36.95 -47.35 38.5 -45.7 33.05 -42.7 26.15 -42.0 L25.9 -41.45 25.8 -40.4 26.85 -39.35 Q27.7 -36.85 30.2 -35.65 31.65 -32.55 34.25 -30.35 34.1 -29.8 33.75 -29.6 29.15 -26.85 26.5 -22.95 30.25 -19.3 35.35 -17.15 41.9 -14.35 46.25 -11.3 L42.0 -9.95 Q36.6 -8.35 33.55 -4.75 L33.65 -3.15 Q34.3 3.65 34.25 10.6 L33.05 10.55 Q31.35 10.35 30.05 9.5 22.85 5.05 15.2 7.8 L15.1 8.25 Q12.45 14.15 11.65 20.5 L10.95 20.6 10.95 20.5 Q7.1 18.2 3.8 15.3 1.4 13.15 -0.9 14.8 L-18.35 27.4 -18.55 26.3 Q-18.95 19.55 -20.1 13.1 -20.65 11.95 -21.9 11.9 L-38.3 11.15 Q-37.0 9.95 -36.2 8.5 -33.1 6.45 -31.4 3.2 L-31.4 2.65 Q-31.3 1.3 -31.6 0.0 -40.65 -6.75 -50.1 -13.4 -37.75 -11.9 -26.3 -15.0 -25.35 -16.2 -26.3 -17.3 -30.75 -22.55 -34.95 -28.25 -33.9 -29.4 -32.5 -29.65 -26.2 -30.95 -21.7 -34.6 L-21.6 -35.1 -21.5 -39.9 Q-21.95 -40.4 -22.45 -40.45 L-35.0 -41.8 Q-39.55 -42.5 -41.45 -44.45 -40.7 -46.6 -39.35 -48.35 -35.4 -53.45 -34.4 -59.3 -40.35 -66.4 -47.65 -72.0 L-42.4 -72.65 Q-41.55 -72.8 -41.3 -73.45 -37.1 -83.6 -42.0 -93.9 L-34.65 -93.35 Q-23.35 -91.65 -12.0 -91.6 L-11.55 -92.05 -10.95 -93.05 Q-11.1 -94.35 -12.35 -95.15 L-12.45 -95.6 Q-14.9 -99.05 -15.35 -103.1 L-18.15 -107.35 Q-13.9 -106.15 -11.65 -109.1 L-11.7 -110.15 Q-12.4 -115.3 -14.1 -120.2 L-9.35 -121.65 -9.1 -122.2 Q-7.65 -132.7 -2.8 -142.3 -2.45 -142.7 -2.1 -142.3 2.7 -136.3 7.8 -131.0 8.15 -131.05 8.45 -131.25 L9.2 -131.7 Q10.9 -134.5 13.65 -136.65 17.15 -139.3 19.6 -139.65" fill="#ffff00" fill-opacity="0.5019608" fill-rule="evenodd" stroke="none"/>
  </g>
</svg>
