<?xml version="1.0" encoding="UTF-8" standalone="no"?>
<svg xmlns:ffdec="https://www.free-decompiler.com/flash" xmlns:xlink="http://www.w3.org/1999/xlink" ffdec:objectType="shape" height="30.2px" width="27.65px" xmlns="http://www.w3.org/2000/svg">
  <g transform="matrix(1.0, 0.0, 0.0, 1.0, 13.8, 15.1)">
    <path d="M1.75 -13.8 L3.1 -14.75 3.9 -15.1 13.65 -2.9 13.85 -2.35 13.1 -1.15 12.55 -0.65 Q2.8 -2.25 -6.85 -0.85 L-6.85 1.55 -0.3 2.3 Q1.4 2.55 1.75 4.3 L1.55 4.95 1.25 5.55 0.9 6.05 -1.2 6.25 Q-4.05 5.3 -6.85 5.55 L-6.85 5.6 -7.8 6.85 -8.4 7.55 Q-8.7 9.9 -9.3 12.15 L-9.45 13.35 -10.65 14.55 -11.6 15.1 -13.55 14.0 Q-13.9 12.45 -13.8 10.8 L-13.75 9.5 -13.15 8.85 -12.95 7.55 -12.9 6.25 -12.4 5.65 -12.7 5.4 -12.85 4.75 -12.75 2.85 -12.5 2.15 -12.0 1.75 -11.6 1.55 -11.15 1.4 -11.15 -1.5 -11.2 -3.45 Q-5.1 -8.55 3.7 -6.7 L2.15 -9.9 1.75 -10.55 1.75 -12.5 1.75 -13.8" fill="#000000" fill-rule="evenodd" stroke="none"/>
  </g>
</svg>
