<?xml version="1.0" encoding="UTF-8" standalone="no"?>
<svg xmlns:ffdec="https://www.free-decompiler.com/flash" xmlns:xlink="http://www.w3.org/1999/xlink" ffdec:objectType="shape" height="126.55px" width="58.35px" xmlns="http://www.w3.org/2000/svg">
  <g transform="matrix(1.0, 0.0, 0.0, 1.0, 25.25, 123.2)">
    <path d="M4.25 -123.2 Q14.35 -123.45 17.0 -113.95 17.4 -112.6 17.45 -111.1 17.7 -105.4 13.75 -102.5 L14.85 -102.85 12.75 -101.45 11.95 -101.35 11.9 -101.0 11.85 -100.5 Q13.8 -99.6 15.45 -98.0 17.3 -96.1 19.45 -94.4 24.6 -90.35 29.9 -86.8 34.2 -83.9 32.7 -79.25 31.5 -75.55 29.9 -72.1 29.25 -70.4 29.05 -68.65 28.85 -67.25 27.9 -66.3 27.85 -64.4 27.25 -62.9 27.05 -62.0 26.35 -60.95 25.15 -59.15 23.4 -57.9 19.15 -54.8 17.0 -59.35 16.6 -60.15 16.65 -61.05 16.7 -65.05 20.85 -64.95 22.0 -69.3 23.75 -73.35 24.5 -75.7 25.55 -78.0 26.05 -79.05 26.2 -80.25 L26.1 -81.05 Q22.7 -84.55 18.45 -86.9 17.7 -87.3 17.0 -87.85 L11.45 -92.55 10.75 -85.4 9.25 -75.4 Q8.35 -68.8 5.85 -62.8 7.95 -61.65 7.7 -58.7 L7.75 -58.4 Q12.7 -50.25 14.75 -40.95 15.75 -36.65 17.25 -32.6 19.35 -30.7 17.7 -27.1 13.35 -17.7 12.55 -7.35 L12.45 -5.6 Q16.35 -5.5 19.8 -3.85 20.65 -3.45 20.8 -2.5 21.35 1.05 17.65 1.1 L9.85 0.35 7.5 -0.1 Q6.7 -0.45 6.55 -1.25 5.7 -5.6 6.55 -10.0 L6.95 -12.6 Q7.65 -17.65 8.95 -22.4 9.85 -25.45 11.4 -28.4 L12.0 -29.65 Q11.1 -30.75 10.75 -32.1 8.25 -40.95 4.95 -49.5 L3.6 -53.15 3.35 -51.2 Q3.25 -50.3 2.7 -49.6 2.55 -42.35 0.25 -35.5 L-2.0 -27.45 Q-1.75 -26.2 -2.7 -24.45 -5.7 -19.0 -10.3 -14.6 L-18.2 -7.15 Q-14.95 -2.9 -9.7 -1.9 -9.0 -1.8 -8.75 -1.1 -7.3 2.55 -11.35 3.2 -16.0 3.95 -19.45 0.85 -22.45 -1.75 -24.55 -5.1 -26.15 -7.55 -24.15 -9.75 -18.85 -15.75 -13.2 -21.2 -10.35 -24.0 -8.0 -27.15 L-8.0 -27.45 Q-7.95 -32.2 -6.45 -36.55 L-3.8 -44.55 Q-3.15 -46.6 -3.45 -48.9 -3.8 -51.05 -2.75 -52.85 L-2.7 -53.15 Q-3.7 -54.3 -3.0 -56.7 -1.1 -63.0 1.4 -68.95 3.6 -78.4 4.25 -88.3 4.35 -90.25 5.05 -92.0 -2.15 -86.75 -7.75 -79.65 -12.7 -73.45 -16.2 -66.45 -16.95 -65.0 -17.3 -63.35 -14.6 -59.0 -18.9 -56.5 L-22.8 -56.65 Q-24.65 -57.85 -24.45 -60.1 -23.75 -69.0 -18.35 -76.15 -11.95 -84.7 -4.6 -92.5 -2.15 -95.1 0.8 -97.05 2.95 -98.5 5.2 -99.75 L5.4 -99.85 5.4 -99.95 5.1 -100.05 1.0 -101.2 Q-1.0 -101.8 -2.65 -102.9 L-3.95 -104.8 -3.9 -105.15 Q-7.7 -111.85 -3.3 -118.85 -1.5 -121.7 1.65 -122.55 L4.25 -123.2" fill="#000000" fill-rule="evenodd" stroke="none"/>
  </g>
</svg>
