<?xml version="1.0" encoding="UTF-8" standalone="no"?>
<svg xmlns:ffdec="https://www.free-decompiler.com/flash" xmlns:xlink="http://www.w3.org/1999/xlink" ffdec:objectType="shape" height="170.7px" width="102.2px" xmlns="http://www.w3.org/2000/svg">
  <g transform="matrix(1.0, 0.0, 0.0, 1.0, 49.05, 146.75)">
    <path d="M23.95 -124.05 Q26.9 -126.05 28.6 -126.2 L27.75 -123.4 Q25.4 -117.35 21.55 -111.9 L21.55 -111.4 21.5 -110.9 21.2 -110.35 Q20.3 -109.75 19.85 -108.7 19.1 -106.9 19.6 -105.05 L20.2 -104.6 Q20.65 -104.35 21.2 -104.15 30.75 -108.4 39.75 -111.75 L39.95 -112.05 41.35 -112.1 41.2 -103.6 Q41.1 -99.9 44.65 -99.15 L53.15 -97.95 52.1 -96.9 41.35 -84.75 41.35 -82.6 41.35 -78.35 41.9 -77.95 Q43.85 -76.8 44.15 -74.65 39.55 -75.1 35.35 -73.1 34.7 -70.75 35.85 -68.4 39.05 -61.95 39.9 -55.05 L27.25 -53.9 Q26.85 -53.85 26.5 -53.3 L26.5 -52.75 26.5 -52.25 26.5 -51.7 26.9 -51.2 28.6 -49.6 Q28.6 -48.75 29.15 -48.15 30.95 -46.2 31.45 -43.75 L31.8 -43.2 31.8 -42.7 Q27.15 -39.8 23.7 -35.65 L23.75 -34.05 23.85 -33.0 Q25.2 -31.85 27.05 -31.75 L36.75 -24.9 37.2 -23.8 37.45 -22.75 36.85 -22.15 Q34.4 -18.6 31.45 -15.35 L31.4 -13.75 Q31.3 -12.4 31.6 -11.1 40.25 -7.2 47.0 -1.05 40.95 0.1 36.4 3.7 L36.4 5.3 36.4 8.5 36.85 9.05 37.1 9.55 37.1 10.1 37.1 10.6 Q37.9 11.3 38.35 12.25 39.25 14.3 40.45 16.25 32.65 14.8 25.5 11.25 20.7 8.9 17.3 10.95 L17.25 13.6 Q17.1 17.95 18.05 22.1 14.65 21.2 11.15 19.8 9.75 19.25 8.7 18.3 3.75 13.95 -1.55 15.4 L-1.7 15.9 -1.8 16.45 -1.9 16.95 -3.0 18.65 -5.3 23.85 -6.15 23.95 -6.15 23.85 -6.35 23.5 Q-7.6 21.2 -9.85 19.8 L-10.15 18.7 Q-10.6 16.25 -12.7 15.0 -13.1 14.0 -13.95 14.0 -19.65 13.7 -24.15 18.2 L-24.85 18.25 -25.05 18.0 Q-25.05 16.15 -25.3 14.35 L-26.45 5.3 Q-31.0 2.9 -36.2 6.2 L-34.7 0.8 Q-33.15 -5.55 -33.55 -12.35 -37.95 -15.5 -43.75 -15.7 -38.8 -17.9 -34.95 -21.5 -35.6 -25.7 -40.05 -27.35 -35.5 -29.0 -30.7 -29.45 -19.7 -30.45 -11.1 -36.2 L-10.95 -36.7 -10.95 -37.25 -10.95 -37.75 Q-11.35 -38.3 -11.85 -38.35 L-29.3 -39.0 Q-28.85 -40.35 -28.55 -41.75 -27.75 -45.3 -27.9 -49.05 -28.3 -49.6 -28.8 -49.65 L-48.2 -50.65 -48.35 -50.8 -48.95 -51.3 -49.05 -51.7 -48.55 -52.75 -48.0 -53.85 -47.2 -54.45 -46.25 -55.4 -46.25 -55.95 -46.2 -56.45 -46.05 -57.0 Q-43.6 -59.8 -40.55 -62.0 -36.9 -64.6 -36.95 -68.65 -36.95 -74.95 -44.1 -76.1 L-44.35 -76.3 Q-45.7 -76.95 -45.55 -78.0 -42.7 -80.3 -39.0 -81.25 L-34.5 -82.15 Q-29.15 -82.75 -28.6 -87.2 -31.9 -90.3 -35.8 -92.65 -28.65 -94.45 -21.75 -97.2 -20.65 -97.6 -19.95 -98.45 -15.65 -103.5 -22.75 -105.9 L-22.95 -106.45 -23.2 -107.0 -23.3 -107.5 -21.7 -108.6 Q-17.2 -111.95 -19.25 -117.05 -23.15 -118.9 -25.05 -122.85 -19.55 -124.2 -14.0 -124.75 -13.5 -124.8 -13.05 -125.35 L-13.05 -126.4 -13.05 -127.45 -13.45 -127.95 -14.45 -129.05 -15.1 -133.3 -16.4 -144.95 Q-9.8 -140.35 -2.8 -137.15 L-2.25 -136.85 -0.7 -135.95 Q0.7 -136.35 1.75 -137.4 L10.6 -146.7 Q11.45 -146.9 11.95 -145.75 12.65 -143.95 12.4 -141.95 14.15 -139.6 14.2 -136.65 L14.65 -123.4 Q19.45 -121.05 23.95 -124.05" fill="#ffff00" fill-opacity="0.5019608" fill-rule="evenodd" stroke="none"/>
  </g>
</svg>
