<?xml version="1.0" encoding="UTF-8" standalone="no"?>
<svg xmlns:ffdec="https://www.free-decompiler.com/flash" xmlns:xlink="http://www.w3.org/1999/xlink" ffdec:objectType="shape" height="162.3px" width="105.75px" xmlns="http://www.w3.org/2000/svg">
  <g transform="matrix(1.0, 0.0, 0.0, 1.0, 51.35, 138.75)">
    <path d="M31.2 -134.9 Q34.95 -137.2 36.55 -137.0 35.8 -136.05 35.4 -134.9 L32.15 -125.85 30.5 -123.55 Q27.5 -119.2 27.4 -114.2 31.4 -112.1 36.05 -112.45 32.9 -108.7 29.35 -105.55 L29.3 -104.5 Q29.2 -103.65 29.5 -102.9 34.5 -99.55 39.9 -96.9 37.0 -95.2 35.7 -92.85 37.15 -90.8 39.9 -90.55 45.75 -87.65 52.65 -86.3 50.2 -84.5 47.0 -83.85 40.3 -82.5 37.1 -78.0 43.9 -73.0 51.9 -69.9 L52.35 -69.5 Q53.05 -68.3 54.4 -68.15 52.35 -67.3 50.15 -66.9 42.45 -65.45 36.4 -61.8 L36.45 -60.75 36.75 -59.65 37.4 -59.1 38.5 -58.05 38.5 -57.55 38.5 -57.0 38.5 -56.5 40.6 -54.9 39.9 -54.35 Q29.45 -55.75 21.55 -51.2 L21.55 -50.65 21.55 -50.1 21.55 -49.6 Q23.0 -47.35 25.8 -47.3 L26.25 -46.9 Q27.2 -45.7 28.6 -45.2 L28.2 -44.15 Q26.7 -41.5 27.2 -38.3 L28.2 -37.6 Q34.15 -36.0 39.75 -33.9 38.25 -32.5 36.4 -31.65 30.0 -28.8 25.1 -23.8 L25.15 -22.75 25.25 -21.7 41.35 -14.3 Q35.4 -13.25 30.75 -10.95 L30.75 -9.85 30.75 -7.75 31.3 -7.25 32.7 -5.65 32.9 -4.6 33.05 -4.05 33.55 -3.5 Q36.3 -0.8 37.1 2.85 L37.45 3.35 39.9 6.55 39.9 7.1 39.9 7.6 39.9 8.15 Q30.5 3.5 22.95 9.2 L23.0 10.8 Q23.1 11.9 22.8 12.9 21.65 13.75 21.1 14.95 19.1 19.15 18.05 23.5 L17.15 23.55 16.6 23.3 14.15 21.2 Q10.15 13.0 2.5 16.95 L2.2 17.35 Q0.6 19.8 -1.55 21.9 -4.35 16.6 -7.95 12.2 -8.7 11.3 -9.7 11.55 -18.45 13.95 -25.05 20.5 L-26.45 20.5 -26.45 20.3 -26.25 10.8 Q-26.15 8.9 -27.65 8.15 -31.55 6.2 -34.75 6.9 L-33.6 4.75 Q-31.9 1.0 -32.1 -3.15 -34.7 -7.2 -39.35 -8.45 -34.45 -9.45 -31.4 -13.05 L-31.4 -14.1 -31.4 -15.15 -42.2 -25.25 Q-38.25 -26.9 -33.9 -26.95 -26.0 -27.05 -20.3 -31.05 L-20.15 -32.1 -20.1 -34.25 Q-25.25 -38.15 -31.25 -40.05 L-34.25 -42.2 -34.25 -43.25 Q-34.35 -44.35 -34.05 -45.35 L-32.95 -46.3 Q-29.3 -48.95 -30.0 -53.3 -33.1 -55.9 -37.0 -57.35 -46.85 -60.9 -51.35 -69.9 L-34.45 -70.4 Q-33.95 -70.45 -33.55 -70.95 L-33.45 -73.6 Q-33.2 -78.05 -34.6 -82.1 L-30.15 -82.2 Q-23.9 -79.7 -20.1 -83.65 L-19.95 -86.9 Q-19.65 -92.15 -20.1 -97.45 -16.25 -96.8 -14.45 -99.9 L-14.4 -103.1 Q-14.15 -107.95 -15.15 -112.6 L-15.5 -113.15 -15.85 -113.7 -15.9 -114.75 -16.05 -115.8 Q-14.1 -115.75 -12.7 -116.85 -12.15 -118.4 -12.9 -119.7 -17.75 -128.1 -23.3 -135.75 -14.5 -130.55 -4.95 -128.35 L-4.45 -128.75 -2.65 -130.8 -2.3 -133.0 Q-1.5 -135.75 -1.75 -138.75 L-1.5 -138.65 Q2.55 -133.35 7.1 -128.85 9.0 -129.6 10.1 -131.35 L10.55 -132.9 Q11.15 -134.7 10.95 -136.65 L11.3 -137.15 11.4 -137.35 11.65 -137.0 12.1 -136.0 12.9 -134.85 13.2 -133.85 Q14.0 -132.05 13.8 -130.1 14.35 -129.1 15.25 -128.55 16.2 -127.85 17.3 -127.6 L17.35 -126.6 17.5 -125.5 19.1 -124.65 Q24.2 -130.6 31.2 -134.9" fill="#ffff00" fill-opacity="0.5019608" fill-rule="evenodd" stroke="none"/>
  </g>
</svg>
