<?xml version="1.0" encoding="UTF-8" standalone="no"?>
<svg xmlns:ffdec="https://www.free-decompiler.com/flash" xmlns:xlink="http://www.w3.org/1999/xlink" ffdec:objectType="shape" height="166.2px" width="98.35px" xmlns="http://www.w3.org/2000/svg">
  <g transform="matrix(1.0, 0.0, 0.0, 1.0, 47.3, 142.35)">
    <path d="M19.45 -138.05 Q20.4 -136.35 19.9 -134.4 18.1 -127.65 18.9 -120.55 24.1 -118.15 29.85 -116.7 33.9 -115.05 37.6 -112.45 32.25 -108.85 26.15 -106.95 25.45 -105.75 25.95 -104.35 L27.4 -103.25 27.25 -102.9 27.2 -101.85 Q27.65 -101.3 28.2 -101.1 37.5 -97.25 47.0 -93.75 42.55 -92.25 39.9 -88.95 L39.9 -88.45 39.9 -86.3 Q40.75 -85.05 42.05 -84.2 L42.1 -83.7 42.2 -83.15 51.05 -72.0 46.55 -71.55 Q40.95 -70.9 38.5 -66.9 38.3 -63.05 39.2 -59.5 42.0 -55.8 43.25 -51.55 39.75 -52.35 36.1 -51.65 34.15 -51.25 33.55 -49.25 L33.55 -48.7 33.55 -44.45 25.45 -43.75 24.75 -43.4 Q24.15 -41.95 24.4 -40.25 L28.55 -33.2 30.0 -31.15 Q33.65 -26.7 34.1 -21.7 29.9 -20.35 27.2 -17.3 L27.2 -16.75 Q27.1 -15.65 27.4 -14.65 29.45 -13.0 32.15 -12.7 35.2 -10.35 38.5 -8.45 36.3 -8.1 35.0 -6.35 34.95 -5.55 35.25 -4.85 L39.55 6.35 Q31.9 5.6 24.05 6.25 22.5 6.4 21.55 7.8 L21.55 8.3 Q21.3 11.3 21.9 14.15 19.15 14.1 16.6 12.75 9.3 9.0 3.2 12.9 L3.2 13.45 3.2 16.6 2.5 16.6 Q-0.15 11.65 -4.55 11.3 -9.35 18.05 -14.65 23.85 -16.3 21.4 -16.95 18.6 -17.35 17.05 -19.0 17.2 L-30.15 18.2 Q-29.3 13.25 -29.3 8.15 -32.1 5.55 -36.35 7.6 L-36.3 7.25 Q-35.2 2.9 -35.65 -1.75 -40.9 -5.15 -47.3 -5.8 -44.55 -6.8 -41.65 -6.85 -34.55 -6.95 -30.0 -10.95 L-30.0 -11.45 -30.0 -13.05 Q-36.2 -16.05 -43.05 -18.5 -32.4 -22.35 -21.5 -24.7 -19.25 -27.2 -16.6 -29.35 -8.7 -35.8 -10.2 -46.25 -10.75 -47.35 -12.0 -47.65 L-17.75 -43.95 Q-19.9 -42.4 -21.35 -40.25 -24.6 -35.45 -28.95 -35.8 -31.15 -38.7 -31.95 -42.2 -35.6 -45.2 -39.9 -43.95 L-39.8 -44.4 Q-35.6 -53.0 -36.2 -62.5 -36.25 -63.3 -36.8 -63.75 -40.8 -67.15 -46.4 -68.5 -40.1 -72.35 -33.7 -75.7 L-33.6 -76.25 -33.55 -79.45 Q-34.55 -80.95 -36.35 -81.2 L-32.1 -84.75 Q-24.05 -86.05 -17.45 -89.65 -16.9 -91.1 -17.8 -92.3 L-20.8 -94.45 Q-21.15 -96.1 -22.95 -96.75 -20.45 -96.75 -18.25 -97.75 -10.35 -101.15 -14.8 -107.7 -18.7 -110.6 -20.8 -113.7 -17.5 -114.9 -15.15 -117.55 L-15.15 -118.1 Q-14.95 -120.0 -15.5 -121.8 L-16.6 -122.85 -16.6 -123.4 -16.6 -123.9 Q-20.8 -128.05 -22.25 -133.45 -20.65 -133.2 -19.35 -132.4 -11.9 -127.9 -3.7 -129.4 L-3.5 -129.95 -2.8 -142.1 Q-1.6 -142.75 -1.05 -141.75 0.6 -139.7 3.45 -138.05 6.15 -136.5 9.05 -135.45 11.15 -134.7 13.05 -135.45 L19.45 -138.05" fill="#ffff00" fill-opacity="0.5019608" fill-rule="evenodd" stroke="none"/>
  </g>
</svg>
