<?xml version="1.0" encoding="UTF-8" standalone="no"?>
<svg xmlns:ffdec="https://www.free-decompiler.com/flash" xmlns:xlink="http://www.w3.org/1999/xlink" ffdec:objectType="shape" height="167.2px" width="103.5px" xmlns="http://www.w3.org/2000/svg">
  <g transform="matrix(1.0, 0.0, 0.0, 1.0, 56.15, 147.05)">
    <path d="M26.4 -135.9 Q28.9 -137.6 31.45 -137.85 L31.4 -134.7 Q31.3 -128.3 31.6 -122.0 38.55 -116.65 47.35 -115.1 40.05 -111.2 35.7 -104.5 L35.7 -103.95 35.7 -102.4 Q37.6 -98.85 40.6 -96.05 L37.1 -95.75 Q30.45 -96.0 26.5 -92.65 L26.6 -92.15 27.05 -91.1 26.75 -90.55 Q26.25 -88.95 26.7 -87.4 32.2 -83.25 38.35 -79.95 35.3 -77.25 32.85 -73.8 L32.85 -72.7 32.85 -68.5 Q38.45 -64.05 45.4 -62.15 41.6 -62.95 39.9 -60.35 L39.9 -59.3 Q39.8 -57.4 40.1 -55.6 L42.05 -53.5 42.05 -52.95 42.05 -52.4 44.15 -49.75 44.15 -49.25 44.15 -48.7 45.55 -46.6 Q37.8 -48.9 31.45 -45.9 31.15 -43.9 32.15 -42.3 L40.45 -29.45 Q35.2 -29.25 32.15 -25.75 L32.15 -24.7 32.15 -22.05 Q33.7 -17.9 37.1 -15.15 L37.1 -14.65 37.1 -13.6 42.4 -7.75 Q37.75 -9.55 33.9 -7.4 33.2 -5.9 33.8 -4.25 L34.65 -0.95 Q35.95 5.95 37.6 12.75 32.65 11.85 28.25 9.3 20.9 5.05 13.45 6.0 12.85 6.95 13.1 8.15 14.3 13.45 14.15 18.4 8.6 16.3 4.2 12.4 -1.4 7.3 -6.7 11.5 L-6.7 12.0 -6.7 12.55 -7.0 13.1 Q-8.15 15.1 -8.65 17.3 -9.75 17.35 -10.2 16.25 L-10.2 15.75 -10.2 15.2 Q-10.75 14.05 -11.75 14.45 L-28.6 20.15 -28.75 18.75 Q-29.65 14.65 -29.3 10.25 -33.2 7.5 -38.45 9.35 L-38.15 7.25 Q-37.75 1.7 -37.75 -3.85 -46.1 -8.8 -56.15 -9.15 L-54.7 -9.55 Q-43.0 -9.9 -33.15 -15.85 L-32.95 -16.95 Q-32.8 -18.5 -32.8 -20.1 -33.7 -21.65 -35.45 -21.7 -37.85 -23.65 -40.4 -25.05 -37.7 -26.8 -34.5 -27.3 -26.05 -28.65 -19.4 -33.2 -17.55 -33.2 -15.85 -33.9 L-12.35 -37.95 Q-12.45 -39.5 -14.1 -39.6 -22.8 -40.2 -28.6 -39.55 L-28.6 -40.4 Q-28.65 -42.5 -27.15 -44.1 L-27.1 -45.7 Q-27.05 -46.8 -27.75 -47.35 -31.95 -50.75 -38.1 -51.35 -35.75 -52.75 -34.25 -55.05 -30.05 -56.9 -27.9 -61.05 L-27.9 -61.6 -27.9 -63.2 Q-33.25 -65.9 -39.2 -67.8 -39.2 -70.6 -36.35 -72.65 -29.05 -77.9 -28.75 -86.15 -30.55 -88.75 -33.7 -89.15 L-24.7 -95.65 -24.5 -96.75 Q-24.35 -98.3 -24.35 -99.9 L-24.75 -100.35 -26.65 -101.85 Q-19.35 -103.7 -14.45 -109.1 L-14.4 -110.15 Q-14.25 -111.8 -14.8 -113.35 -16.35 -113.95 -16.95 -115.45 -19.65 -116.95 -21.85 -119.15 -13.95 -121.4 -6.35 -123.9 L-6.1 -125.0 Q-5.7 -131.0 -9.5 -135.6 -4.75 -135.3 0.0 -135.4 0.55 -135.4 0.8 -135.75 L7.8 -147.05 Q16.6 -142.8 24.8 -136.1 25.6 -135.4 26.4 -135.9" fill="#ffff00" fill-opacity="0.5019608" fill-rule="evenodd" stroke="none"/>
  </g>
</svg>
