<?xml version="1.0" encoding="UTF-8" standalone="no"?>
<svg xmlns:ffdec="https://www.free-decompiler.com/flash" xmlns:xlink="http://www.w3.org/1999/xlink" ffdec:objectType="shape" height="164.5px" width="91.8px" xmlns="http://www.w3.org/2000/svg">
  <g transform="matrix(1.0, 0.0, 0.0, 1.0, 44.45, 140.85)">
    <path d="M25.8 -139.8 L26.5 -139.8 26.75 -138.8 Q29.35 -131.5 29.5 -123.4 38.2 -120.3 47.35 -118.1 40.05 -114.75 34.25 -109.8 L34.25 -109.25 34.25 -108.2 Q35.5 -106.95 36.4 -105.55 L36.4 -105.05 36.4 -104.5 Q38.75 -102.75 40.25 -100.25 33.1 -97.65 26.15 -95.5 24.9 -96.55 23.3 -97.1 21.5 -96.85 21.55 -95.15 21.65 -94.25 22.45 -93.55 22.0 -92.25 22.45 -90.9 L24.05 -90.05 Q25.55 -90.85 27.2 -91.1 L27.9 -90.05 27.2 -88.95 27.2 -88.45 Q27.1 -85.75 27.4 -83.15 34.8 -80.8 41.7 -77.5 39.9 -75.2 37.8 -73.25 L37.8 -72.75 Q37.55 -69.95 38.15 -67.45 42.05 -64.25 46.25 -61.4 40.1 -62.4 35.35 -58.95 34.8 -58.25 35.0 -57.35 36.85 -54.7 39.2 -52.6 L39.2 -52.05 39.2 -51.55 Q41.75 -48.1 44.7 -45.2 39.45 -45.95 34.25 -45.2 L32.15 -41.65 Q32.25 -40.85 31.95 -40.05 L31.45 -39.55 Q31.45 -37.95 31.85 -36.5 33.85 -29.75 41.0 -26.3 35.6 -23.15 30.75 -19.4 L30.75 -18.85 30.75 -15.7 Q37.15 -9.1 44.7 -3.15 39.1 -2.4 34.25 0.0 L34.25 0.55 Q33.6 6.6 35.5 12.2 29.3 11.7 23.3 9.55 20.85 10.15 19.45 12.2 L19.45 12.75 19.45 13.25 Q17.8 16.15 17.15 19.45 L8.0 14.8 Q-1.45 9.8 -6.0 18.4 L-5.95 18.9 Q-5.6 21.2 -7.2 22.1 -9.3 19.6 -12.0 18.0 -13.65 18.45 -14.55 19.9 -16.85 23.7 -19.4 23.65 L-19.4 23.15 -19.4 21.55 Q-22.8 16.95 -24.55 11.5 -24.85 10.45 -25.95 10.45 -32.6 10.5 -39.2 13.1 L-39.15 12.75 Q-39.0 7.75 -40.6 3.2 -42.5 0.55 -44.45 -1.55 -34.65 -5.65 -25.95 -12.0 L-25.85 -12.5 -25.75 -15.15 Q-29.05 -18.15 -33.35 -19.6 -34.55 -20.2 -33.9 -21.0 L-33.35 -22.05 Q-24.05 -24.25 -15.0 -27.0 -13.75 -28.65 -13.75 -30.7 -15.9 -32.6 -16.4 -34.4 -13.75 -35.7 -11.8 -37.6 L-11.7 -38.1 -11.65 -41.3 Q-12.2 -42.4 -13.4 -42.5 L-32.8 -43.05 -32.75 -43.4 Q-30.8 -48.45 -30.55 -54.0 -30.3 -60.2 -36.2 -60.9 L-35.4 -61.9 Q-29.2 -68.3 -29.3 -77.3 L-30.25 -77.95 -42.55 -80.65 Q-35.85 -86.2 -30.35 -92.3 -28.95 -92.85 -28.05 -93.9 L-27.95 -94.45 -27.9 -99.2 Q-30.7 -101.3 -34.05 -102.9 L-14.3 -108.2 Q-12.5 -112.95 -15.85 -116.7 -15.85 -117.85 -16.6 -118.8 -13.45 -119.75 -10.6 -121.1 L-10.45 -121.65 Q-10.1 -123.45 -10.2 -125.35 -11.45 -126.4 -11.65 -127.45 -3.75 -125.6 4.1 -126.55 L4.3 -127.1 Q5.55 -133.95 6.0 -140.85 8.1 -140.0 10.35 -138.15 19.1 -130.9 25.8 -139.8" fill="#ffff00" fill-opacity="0.5019608" fill-rule="evenodd" stroke="none"/>
  </g>
</svg>
