<?xml version="1.0" encoding="UTF-8" standalone="no"?>
<svg xmlns:ffdec="https://www.free-decompiler.com/flash" xmlns:xlink="http://www.w3.org/1999/xlink" ffdec:objectType="shape" height="161.9px" width="112.55px" xmlns="http://www.w3.org/2000/svg">
  <g transform="matrix(1.0, 0.0, 0.0, 1.0, 49.7, 142.1)">
    <path d="M20.6 -133.35 Q21.9 -132.75 23.15 -133.05 27.75 -134.2 30.75 -137.0 L32.1 -129.55 33.55 -117.9 Q37.45 -114.05 43.25 -112.25 L43.0 -111.85 Q39.2 -107.9 35.0 -104.35 L35.0 -103.8 35.05 -102.75 35.15 -102.2 40.8 -99.75 39.8 -98.65 37.25 -95.5 36.65 -92.75 Q36.25 -91.5 36.55 -90.2 37.35 -89.75 38.1 -89.85 47.25 -90.7 55.45 -92.3 L55.4 -85.45 Q55.3 -80.35 55.65 -75.35 59.65 -73.55 62.85 -71.3 58.6 -69.9 54.75 -67.8 L54.7 -65.15 Q54.6 -63.5 54.95 -61.95 L56.5 -60.35 58.1 -58.25 Q56.35 -58.55 54.45 -59.6 49.3 -62.35 44.85 -60.7 L44.95 -58.05 Q45.0 -56.8 44.7 -55.6 38.45 -57.3 33.9 -61.75 27.0 -68.45 18.75 -66.35 L18.6 -63.75 Q18.5 -62.25 19.1 -61.05 L20.45 -59.95 20.85 -59.5 20.85 -58.95 20.85 -58.4 20.85 -57.9 22.45 -56.15 Q23.4 -54.95 23.5 -53.65 22.35 -53.35 21.4 -52.7 20.6 -52.2 20.85 -51.2 22.0 -50.1 23.1 -49.75 L23.0 -48.9 23.15 -47.85 Q25.4 -46.55 28.1 -46.4 28.7 -45.9 29.4 -45.45 33.0 -43.3 35.85 -40.4 L34.7 -39.55 Q32.05 -38.2 30.05 -36.0 L30.05 -33.35 30.05 -31.25 31.1 -29.45 Q32.45 -27.0 35.35 -26.8 35.7 -26.0 36.5 -25.75 38.2 -25.25 39.05 -24.35 L38.9 -24.0 30.75 -18.35 30.75 -17.8 30.7 -16.25 Q30.65 -15.4 30.9 -14.65 L32.7 -13.6 Q33.3 -12.45 34.3 -11.7 40.3 -7.3 44.7 -1.4 40.75 -1.7 38.5 1.45 L38.5 1.95 38.45 2.5 38.35 3.0 Q36.95 5.75 36.3 8.8 35.3 13.55 34.8 18.4 L31.15 17.75 16.4 12.65 Q7.7 9.65 3.2 17.85 L3.15 18.35 3.0 18.9 2.65 19.8 1.8 19.6 -0.2 16.55 Q-3.1 11.5 -7.75 8.15 -8.6 8.2 -9.3 8.65 -16.4 13.7 -22.4 19.1 -23.05 17.8 -23.2 16.4 -23.45 14.3 -24.9 12.75 L-25.0 12.2 -25.05 11.65 -26.05 10.9 Q-29.5 9.55 -33.1 8.7 -40.3 7.05 -46.05 6.55 L-45.5 6.05 -44.3 4.95 -44.1 4.45 -43.75 3.35 Q-41.95 2.45 -41.0 0.8 L-37.75 -4.55 -37.75 -5.1 -37.75 -5.65 -37.75 -6.7 Q-38.2 -7.2 -38.75 -7.35 L-49.7 -10.15 Q-41.5 -10.9 -33.35 -12.85 -32.6 -13.8 -32.7 -15.0 -33.15 -20.8 -39.35 -23.3 L-35.3 -23.7 -33.55 -23.7 Q-24.9 -22.6 -18.85 -27.7 -18.55 -29.0 -18.65 -30.35 L-18.7 -31.4 -19.1 -31.85 -22.95 -34.6 -23.1 -35.1 -23.3 -35.65 -24.0 -36.2 -10.4 -44.45 Q-10.1 -45.5 -10.2 -46.6 L-10.2 -47.65 Q-11.85 -49.4 -14.35 -50.15 -18.05 -51.25 -19.6 -52.6 -15.6 -54.7 -12.5 -57.9 -12.4 -59.05 -11.95 -60.05 L-11.65 -61.05 Q-12.1 -61.6 -12.55 -61.65 L-27.15 -62.65 -27.15 -66.9 -27.15 -73.8 Q-31.4 -78.35 -38.1 -77.15 L-35.85 -78.75 -33.55 -79.85 Q-25.75 -82.7 -22.95 -89.3 L-23.35 -89.8 Q-25.9 -92.1 -28.95 -93.2 L-28.3 -93.8 Q-19.3 -98.0 -11.65 -104.15 L-11.65 -106.8 -11.65 -108.4 -12.65 -109.15 Q-15.3 -110.35 -17.3 -112.25 L-16.15 -113.25 Q-13.3 -115.55 -9.85 -116.85 -9.35 -118.4 -9.5 -120.05 -9.85 -124.4 -13.6 -127.45 -9.9 -127.3 -6.45 -125.9 1.15 -122.8 4.6 -128.85 4.45 -131.05 4.95 -133.1 6.0 -137.8 8.15 -142.1 9.15 -142.05 9.9 -141.2 14.5 -136.15 20.6 -133.35" fill="#ffff00" fill-opacity="0.5019608" fill-rule="evenodd" stroke="none"/>
  </g>
</svg>
