<?xml version="1.0" encoding="UTF-8" standalone="no"?>
<svg xmlns:ffdec="https://www.free-decompiler.com/flash" xmlns:xlink="http://www.w3.org/1999/xlink" ffdec:objectType="shape" height="108.75px" width="79.5px" xmlns="http://www.w3.org/2000/svg">
  <g transform="matrix(1.0, 0.0, 0.0, 1.0, 27.45, 105.4)">
    <path d="M12.65 -105.4 Q26.0 -103.25 23.9 -90.65 22.9 -84.75 17.25 -82.8 18.8 -81.35 20.5 -79.9 26.75 -80.95 32.75 -83.65 38.05 -86.0 43.45 -88.2 46.8 -89.5 50.15 -88.65 51.95 -88.2 52.05 -86.35 52.35 -81.45 47.45 -81.95 45.65 -82.15 43.95 -81.45 34.05 -77.35 23.85 -74.0 20.85 -73.0 17.9 -74.0 16.8 -74.4 15.9 -75.1 L8.1 -81.4 2.6 -84.65 -2.4 -74.75 Q-6.5 -66.2 -9.55 -57.35 L-9.5 -57.25 Q-5.8 -56.2 -2.4 -54.0 L2.4 -50.95 16.7 -42.2 17.6 -41.5 Q19.5 -39.8 18.5 -36.45 L18.2 -34.7 Q17.5 -24.35 16.15 -14.05 15.55 -9.65 14.3 -5.35 19.3 -4.95 24.2 -3.65 25.0 -3.45 25.25 -2.6 26.35 0.95 22.6 1.6 L19.85 1.75 Q15.1 1.5 10.7 0.3 9.0 1.05 7.4 -0.6 6.0 -2.05 6.75 -4.05 L8.5 -9.25 Q11.35 -19.15 11.6 -29.55 L11.8 -36.45 12.0 -38.0 Q7.25 -40.5 2.75 -43.4 -2.6 -46.9 -8.25 -49.8 -6.5 -41.7 -5.55 -33.45 -5.3 -31.2 -5.4 -29.05 -4.75 -27.7 -5.95 -25.55 -6.55 -24.4 -7.4 -23.35 -13.75 -15.25 -18.65 -6.2 L-20.0 -3.55 -11.3 -3.2 Q-9.95 -3.35 -9.15 -2.25 -7.15 0.55 -10.1 2.6 L-11.15 3.05 Q-18.5 4.15 -24.75 1.2 -25.35 1.1 -25.9 0.6 L-26.7 0.15 Q-27.4 -0.25 -27.45 -1.15 L-27.35 -2.45 -27.2 -3.35 Q-26.45 -6.1 -24.65 -8.35 L-23.35 -10.3 -19.7 -16.15 Q-17.4 -20.85 -14.5 -25.35 L-13.5 -26.2 -11.85 -28.4 -11.9 -28.75 Q-12.15 -39.1 -14.9 -48.85 -15.25 -50.05 -15.1 -51.3 -16.15 -53.4 -16.05 -55.45 L-16.15 -56.5 Q-15.7 -60.7 -13.8 -64.45 L-13.45 -65.75 -12.7 -66.8 Q-9.4 -75.65 -5.2 -84.05 L-3.85 -86.35 Q-8.45 -86.6 -13.0 -86.3 L-15.9 -85.75 Q-12.35 -83.75 -12.55 -79.45 -12.7 -76.2 -16.0 -75.7 -21.45 -74.85 -24.3 -79.55 -26.45 -83.0 -26.7 -87.0 -26.9 -89.65 -25.35 -91.45 -24.55 -92.4 -23.3 -92.4 L-12.65 -92.65 -11.65 -92.8 -11.5 -92.8 -1.05 -94.55 0.75 -94.8 Q0.95 -99.65 6.1 -103.15 9.2 -105.25 12.65 -105.4" fill="#000000" fill-rule="evenodd" stroke="none"/>
  </g>
</svg>
