<?xml version="1.0" encoding="UTF-8" standalone="no"?>
<svg xmlns:ffdec="https://www.free-decompiler.com/flash" xmlns:xlink="http://www.w3.org/1999/xlink" ffdec:objectType="shape" height="102.85px" width="103.3px" xmlns="http://www.w3.org/2000/svg">
  <g transform="matrix(1.0, 0.0, 0.0, 1.0, 48.45, 100.2)">
    <path d="M48.15 -86.85 L48.95 -86.25 51.9 -85.15 Q56.55 -83.35 53.85 -78.95 L52.6 -77.65 52.35 -77.25 Q49.0 -73.95 44.7 -76.7 L44.15 -77.15 44.05 -77.7 43.95 -79.25 43.95 -80.3 43.95 -81.4 43.95 -81.55 43.85 -81.6 Q40.4 -83.9 36.1 -84.25 30.6 -84.7 25.4 -86.05 L22.5 -86.4 22.35 -85.45 Q21.3 -79.3 15.25 -77.45 5.95 -74.65 1.6 -81.65 -1.1 -80.4 -2.9 -77.8 -6.8 -71.95 -10.0 -65.75 L-13.7 -54.15 Q-9.3 -53.7 -5.05 -52.45 8.75 -49.9 20.1 -41.05 21.05 -40.35 21.0 -39.2 L20.95 -39.1 Q22.0 -36.45 20.5 -32.75 L18.6 -27.2 17.25 -23.35 17.25 -23.3 Q15.9 -16.4 14.05 -9.7 13.95 -7.5 13.0 -5.95 19.25 -5.35 24.65 -2.85 25.25 -2.6 25.25 -1.75 24.7 0.3 22.6 0.5 13.7 1.45 6.0 -1.6 L5.85 -2.1 5.85 -2.65 5.85 -3.15 5.85 -3.7 5.85 -4.25 6.05 -4.7 6.1 -4.7 Q6.5 -13.0 10.1 -20.65 L12.35 -32.7 13.15 -37.45 Q4.55 -42.35 -4.85 -45.7 -8.8 -47.05 -12.9 -47.9 L-13.55 -48.0 Q-9.6 -43.4 -6.3 -38.4 L-5.8 -37.4 -5.9 -37.05 Q-5.05 -34.6 -6.75 -31.2 L-7.7 -29.2 -10.7 -20.65 Q-10.85 -19.6 -11.45 -18.6 L-12.95 -14.5 Q-13.4 -13.35 -14.15 -12.4 L-18.6 -6.55 Q-18.8 -5.9 -19.3 -5.35 L-20.1 -4.55 -20.55 -3.9 -20.8 -3.2 -9.4 -2.4 Q-8.15 -2.25 -8.0 -0.85 -7.7 2.05 -10.6 2.65 -17.3 0.6 -24.1 2.4 -26.4 3.05 -27.9 1.25 L-27.95 0.7 -27.85 -0.1 -27.9 -0.15 -28.0 -1.25 -28.0 -1.65 Q-29.2 -3.6 -27.3 -5.8 L-23.65 -10.25 -22.35 -11.95 -18.65 -17.45 -18.4 -18.45 -17.65 -19.5 -17.35 -21.05 -16.6 -22.4 -13.55 -34.1 -14.35 -35.25 Q-17.75 -40.65 -20.6 -46.35 L-20.7 -46.4 -21.65 -47.25 Q-22.8 -47.8 -22.7 -49.1 -22.2 -54.75 -19.85 -60.05 L-19.45 -61.0 Q-17.6 -65.55 -15.2 -69.85 L-14.4 -72.35 Q-13.9 -73.45 -12.8 -74.2 L-12.65 -74.5 -12.6 -74.85 -12.5 -75.35 -12.35 -75.9 -12.0 -76.4 -11.5 -77.0 -11.1 -77.5 -8.25 -81.6 -7.55 -82.8 Q-6.35 -84.75 -4.85 -86.2 -7.7 -86.75 -9.9 -88.8 -11.9 -89.1 -13.55 -89.9 -17.7 -90.7 -21.95 -89.3 L-23.7 -88.75 Q-30.6 -87.0 -36.85 -83.75 -36.9 -80.4 -40.95 -79.25 -45.55 -77.9 -48.35 -82.1 -49.1 -87.65 -43.4 -89.7 -36.6 -92.1 -29.5 -93.65 -24.75 -95.35 -19.8 -96.3 L-18.95 -96.3 -16.05 -96.25 Q-8.75 -95.85 -2.3 -92.05 L-2.05 -91.8 -0.45 -91.7 Q0.55 -95.25 4.55 -97.95 7.65 -100.05 11.1 -100.2 19.75 -98.8 21.95 -93.0 L41.7 -89.35 Q45.15 -88.7 48.15 -86.85" fill="#000000" fill-rule="evenodd" stroke="none"/>
  </g>
</svg>
