<?xml version="1.0" encoding="UTF-8" standalone="no"?>
<svg xmlns:ffdec="https://www.free-decompiler.com/flash" xmlns:xlink="http://www.w3.org/1999/xlink" ffdec:objectType="shape" height="116.65px" width="96.3px" xmlns="http://www.w3.org/2000/svg">
  <g transform="matrix(1.0, 0.0, 0.0, 1.0, 38.7, 114.35)">
    <path d="M1.8 -99.4 Q1.25 -105.15 7.1 -109.15 10.2 -111.25 13.65 -111.4 27.0 -109.25 24.9 -96.65 L24.35 -94.6 54.75 -93.9 Q57.4 -93.85 57.6 -91.25 57.75 -88.75 55.3 -87.95 L49.3 -85.8 47.85 -85.85 Q46.5 -86.45 46.1 -87.85 30.7 -87.9 15.35 -88.1 L9.6 -88.35 4.45 -88.75 Q3.05 -88.85 2.5 -89.75 L2.1 -89.7 -5.05 -78.35 -10.25 -69.75 Q-12.75 -65.9 -14.05 -61.6 L-13.9 -60.9 -13.85 -60.65 -13.7 -60.35 Q-6.55 -59.0 -0.9 -54.3 L3.35 -51.25 Q8.25 -48.15 12.85 -44.6 15.7 -43.6 15.7 -40.25 15.65 -30.5 13.6 -21.1 L13.2 -19.05 Q12.1 -12.45 11.4 -5.8 18.25 -5.5 24.9 -4.0 25.7 -3.8 25.95 -2.95 27.05 0.6 23.25 1.15 L16.0 0.9 13.25 0.7 8.0 0.15 Q7.15 0.15 6.15 -0.5 L6.05 -0.55 5.15 -1.4 Q4.4 -2.45 4.6 -3.95 L7.65 -24.3 8.15 -27.0 Q9.55 -33.3 9.35 -39.6 8.05 -40.25 7.0 -41.35 L5.25 -42.65 2.35 -44.45 Q-3.1 -48.15 -8.65 -51.45 L-8.55 -51.1 Q-3.8 -43.35 -2.85 -34.4 -2.5 -31.25 -4.9 -28.9 -9.0 -24.85 -12.5 -20.3 -17.1 -14.2 -21.0 -7.65 -17.9 -5.9 -13.85 -4.7 L-10.5 -3.85 Q-5.85 -2.8 -8.1 1.1 -8.8 2.35 -10.25 2.3 -16.55 2.2 -22.05 -0.85 L-23.55 -1.4 Q-26.6 -2.15 -28.05 -4.75 -28.65 -5.75 -28.3 -6.9 -27.35 -10.55 -25.05 -13.65 L-12.65 -29.85 -8.85 -34.8 Q-11.1 -43.6 -15.95 -51.6 L-19.45 -57.15 Q-20.6 -58.9 -20.45 -60.95 L-20.05 -62.45 Q-19.55 -67.2 -16.9 -71.35 L-11.2 -80.55 -10.55 -81.7 -4.3 -91.5 -4.75 -91.65 -11.35 -94.1 -15.1 -95.2 -16.95 -95.8 Q-20.95 -97.5 -24.45 -100.2 -27.35 -102.4 -30.45 -104.15 -35.75 -105.55 -38.4 -110.0 -38.85 -110.75 -38.65 -111.65 -38.15 -114.1 -35.65 -114.3 -31.85 -114.7 -30.25 -111.75 L-29.65 -111.85 Q-26.35 -110.55 -23.55 -108.15 -21.85 -106.65 -19.9 -105.55 L-9.5 -99.8 -8.05 -99.5 Q-3.85 -98.75 -0.35 -96.8 L1.5 -99.1 1.8 -99.4" fill="#000000" fill-rule="evenodd" stroke="none"/>
  </g>
</svg>
