<?xml version="1.0" encoding="UTF-8" standalone="no"?>
<svg xmlns:ffdec="https://www.free-decompiler.com/flash" xmlns:xlink="http://www.w3.org/1999/xlink" ffdec:objectType="shape" height="210.1px" width="138.25px" xmlns="http://www.w3.org/2000/svg">
  <g transform="matrix(1.0, 0.0, 0.0, 1.0, 51.9, 190.3)">
    <path d="M47.7 -180.75 L54.65 -174.65 Q61.45 -168.35 68.85 -172.45 L68.85 -171.95 Q68.75 -165.3 69.05 -158.7 71.05 -157.15 73.8 -157.65 L73.1 -156.6 73.1 -156.05 73.1 -153.95 Q79.4 -150.2 86.35 -147.05 72.2 -145.7 60.4 -138.95 60.25 -137.85 60.55 -136.8 63.1 -134.15 66.05 -132.05 58.45 -132.25 51.55 -130.3 50.85 -129.05 51.4 -127.65 56.2 -123.75 59.35 -118.65 48.5 -120.1 38.15 -119.0 38.15 -115.2 38.5 -111.05 39.2 -110.35 39.2 -109.45 27.65 -111.55 21.55 -101.7 L21.35 -100.6 20.15 -99.55 Q20.0 -97.65 20.3 -95.85 22.6 -94.65 24.35 -94.1 L24.35 -93.55 Q24.25 -90.1 24.55 -86.65 L26.15 -85.8 Q29.05 -86.9 31.45 -88.95 36.2 -90.1 38.85 -92.5 37.85 -90.75 37.6 -88.8 34.85 -85.35 33.55 -81.35 32.35 -80.1 31.45 -78.7 L31.45 -78.2 31.45 -75.0 Q36.2 -71.4 39.55 -67.45 31.75 -64.2 29.3 -57.35 36.75 -52.3 42.9 -46.95 34.4 -44.35 27.9 -38.65 27.8 -37.55 28.1 -36.55 33.55 -34.1 39.05 -33.0 35.3 -31.0 32.15 -28.6 L32.15 -28.05 32.15 -24.9 34.25 -22.4 Q27.8 -24.55 21.9 -23.65 L21.7 -23.1 Q21.7 -19.75 21.35 -16.6 19.75 -17.5 17.95 -18.05 10.2 -20.3 4.6 -17.3 L4.6 -16.75 4.6 -15.7 Q5.7 -13.75 7.95 -13.6 15.7 -9.75 22.1 -4.2 17.3 -3.45 13.8 -0.5 L13.8 0.0 13.8 2.15 20.15 10.6 Q11.5 10.2 2.9 10.95 0.6 11.15 -0.35 13.45 -0.25 14.25 -0.5 15.0 L-1.05 15.55 Q-0.95 16.4 -1.25 17.15 -2.15 18.3 -2.45 19.8 L-3.9 19.8 -13.9 11.9 Q-19.95 7.15 -24.0 14.3 L-25.6 13.1 Q-27.6 9.5 -28.75 5.65 -30.95 2.15 -34.6 3.75 -34.45 -0.2 -32.1 -3.85 -31.95 -7.0 -29.5 -9.15 L-29.4 -9.7 -29.3 -16.6 -31.75 -18.85 Q-30.15 -20.15 -29.3 -22.05 -27.85 -22.35 -27.2 -23.65 -27.3 -24.45 -27.0 -25.25 L-25.6 -26.3 Q-23.95 -28.45 -24.55 -31.05 -25.95 -33.4 -28.6 -33.7 -32.0 -36.7 -36.2 -38.45 -30.25 -42.8 -23.3 -45.55 -22.75 -47.6 -22.95 -49.75 -25.7 -53.0 -28.75 -54.9 -27.65 -55.75 -26.1 -56.15 -20.7 -57.45 -19.4 -61.8 -20.0 -62.85 -21.2 -63.35 -23.75 -65.75 -27.0 -67.6 -27.85 -69.25 -29.3 -70.25 -22.1 -73.55 -15.9 -78.7 L-15.9 -79.25 -15.9 -80.85 Q-21.25 -83.7 -24.55 -87.55 -17.8 -95.65 -8.8 -101.3 L-8.8 -101.85 -8.8 -103.45 Q-12.45 -105.5 -16.4 -107.35 -10.45 -111.3 -3.9 -113.7 -2.4 -115.0 -1.75 -116.7 -2.5 -119.5 -5.3 -120.05 -5.45 -120.5 -5.75 -120.55 -16.7 -123.15 -27.9 -125.0 -24.45 -130.75 -22.4 -137.0 -22.1 -138.55 -22.25 -140.15 -22.7 -140.7 -23.2 -140.85 L-30.4 -142.0 -51.85 -143.85 -51.9 -144.4 Q-46.85 -150.3 -40.6 -155.0 L-40.6 -155.5 -40.6 -157.1 Q-46.75 -160.9 -51.9 -165.6 -51.65 -166.55 -50.9 -167.25 -50.05 -168.05 -49.05 -168.1 -41.65 -168.25 -35.3 -171.25 L-35.2 -171.75 Q-34.8 -181.0 -34.95 -190.3 -30.05 -183.35 -22.85 -177.3 -21.15 -175.95 -19.1 -175.5 -9.4 -173.35 0.9 -174.35 L0.7 -174.05 Q-0.6 -167.6 -0.15 -160.8 0.65 -160.4 1.45 -160.25 L8.85 -159.4 Q7.8 -154.2 8.3 -148.8 9.2 -147.75 10.2 -148.45 15.4 -152.2 20.15 -156.4 21.2 -155.9 22.0 -155.1 26.75 -150.25 32.5 -151.45 33.1 -155.9 32.8 -160.45 32.75 -161.6 33.65 -162.1 39.05 -165.1 45.35 -165.7 46.0 -165.75 46.0 -166.3 46.35 -173.5 46.25 -181.1 L47.7 -180.75" fill="#ffff00" fill-opacity="0.5019608" fill-rule="evenodd" stroke="none"/>
  </g>
</svg>
