<?xml version="1.0" encoding="UTF-8" standalone="no"?>
<svg xmlns:ffdec="https://www.free-decompiler.com/flash" xmlns:xlink="http://www.w3.org/1999/xlink" ffdec:objectType="shape" height="168.4px" width="86.45px" xmlns="http://www.w3.org/2000/svg">
  <g transform="matrix(1.0, 0.0, 0.0, 1.0, 22.8, 165.5)">
    <path d="M63.25 -156.9 L62.0 -154.4 61.0 -152.7 Q60.55 -149.75 57.6 -148.55 L55.8 -147.3 Q47.5 -138.25 37.35 -131.35 L29.4 -125.4 26.15 -122.65 25.35 -122.0 Q24.15 -116.35 18.4 -114.6 15.4 -113.7 12.95 -113.85 L12.9 -113.45 Q12.5 -105.7 10.7 -98.3 L9.15 -92.3 8.8 -91.7 Q7.35 -84.0 4.1 -76.65 L3.55 -75.8 1.65 -69.1 3.6 -69.65 Q14.85 -72.8 25.4 -76.9 30.45 -75.65 28.35 -70.7 L21.9 -56.9 Q17.2 -47.65 11.8 -38.9 L9.8 -35.85 17.5 -30.9 Q18.05 -30.55 18.1 -29.85 18.4 -25.55 14.0 -26.4 L12.35 -26.9 Q6.6 -29.2 2.9 -33.7 2.55 -34.15 2.6 -34.8 3.1 -39.2 6.2 -42.65 8.4 -45.1 9.95 -48.0 L16.3 -59.8 Q18.45 -63.9 20.1 -68.2 10.65 -65.0 0.9 -62.95 L0.5 -61.65 0.15 -60.4 Q-1.65 -50.3 -3.7 -40.3 -5.75 -30.3 -8.6 -20.45 -9.25 -18.3 -10.35 -16.45 -11.2 -13.7 -12.8 -11.2 L-13.35 -10.1 Q-10.55 -5.85 -6.05 -3.9 -4.95 -3.4 -4.25 -2.35 -1.85 1.25 -5.95 2.65 L-8.75 2.7 Q-12.65 1.45 -15.05 -1.9 -16.9 -4.45 -19.05 -6.75 -21.4 -9.35 -19.65 -12.5 L-15.45 -20.05 Q-12.45 -29.2 -10.45 -38.85 -8.35 -48.9 -6.75 -59.0 -6.45 -61.25 -5.7 -63.3 -6.9 -64.95 -6.05 -67.15 L-5.15 -69.65 Q-1.5 -79.5 1.45 -89.4 1.85 -90.65 2.55 -91.7 4.8 -101.2 6.3 -110.8 L6.9 -115.6 Q4.05 -118.45 1.9 -121.95 L-0.85 -125.95 Q-6.9 -133.85 -12.2 -142.35 -15.85 -148.1 -18.65 -154.25 L-18.75 -154.55 Q-20.55 -155.1 -22.05 -157.0 -23.2 -158.4 -22.55 -160.15 L-21.6 -163.1 Q-21.05 -165.35 -18.7 -165.5 -15.85 -164.8 -14.95 -161.85 L-14.85 -161.55 Q-11.25 -161.45 -11.0 -158.1 -10.85 -156.55 -12.1 -155.75 -8.55 -147.95 -3.7 -140.7 -0.3 -135.6 3.45 -130.65 4.8 -133.1 7.7 -135.1 10.8 -137.2 14.25 -137.35 23.1 -135.95 25.15 -129.95 L34.85 -137.45 Q37.2 -139.35 39.7 -141.15 46.9 -146.3 52.6 -153.05 52.6 -157.2 55.9 -160.15 57.45 -161.55 59.25 -162.6 L60.4 -163.05 Q64.85 -161.55 63.25 -156.9" fill="#000000" fill-rule="evenodd" stroke="none"/>
  </g>
</svg>
