<?xml version="1.0" encoding="UTF-8" standalone="no"?>
<svg xmlns:ffdec="https://www.free-decompiler.com/flash" xmlns:xlink="http://www.w3.org/1999/xlink" ffdec:objectType="shape" height="194.25px" width="145.85px" xmlns="http://www.w3.org/2000/svg">
  <g transform="matrix(1.0, 0.0, 0.0, 1.0, 55.8, 192.8)">
    <path d="M48.4 -167.7 L48.25 -169.3 Q46.75 -178.6 49.45 -187.3 55.05 -183.5 59.15 -178.2 65.65 -169.95 72.2 -176.9 L73.45 -176.7 73.9 -175.15 Q74.4 -167.8 76.1 -160.8 81.8 -154.25 90.05 -151.1 81.25 -148.65 73.1 -144.75 L71.0 -142.3 71.0 -141.2 71.0 -137.0 72.4 -135.4 72.4 -134.35 Q72.4 -131.25 73.65 -128.5 L62.15 -127.75 61.45 -127.45 61.25 -126.9 Q61.1 -125.6 61.1 -124.3 64.65 -118.2 67.45 -111.55 52.75 -113.8 38.15 -112.6 L37.9 -112.05 Q37.65 -111.0 37.95 -109.95 L37.45 -109.45 Q26.9 -107.85 16.95 -104.85 L16.7 -104.3 Q16.5 -103.25 16.8 -102.2 20.6 -100.25 25.45 -100.2 28.0 -100.2 29.3 -98.65 32.95 -94.4 32.3 -88.1 33.1 -87.65 33.65 -87.85 44.0 -91.6 54.9 -91.95 50.1 -88.45 46.25 -84.0 L46.25 -82.95 46.25 -77.65 Q49.25 -75.8 50.35 -73.95 45.85 -72.05 43.45 -68.3 L43.4 -67.8 Q43.35 -66.95 43.6 -66.2 48.6 -63.45 53.85 -62.65 L53.3 -61.55 Q52.3 -58.5 52.6 -55.25 58.35 -51.45 65.15 -49.95 66.1 -48.95 66.05 -47.85 L58.25 -42.35 58.25 -41.85 58.1 -41.3 56.85 -40.25 56.8 -39.2 Q56.75 -37.8 57.05 -36.55 62.6 -32.65 66.75 -27.5 L47.35 -26.4 Q46.1 -26.3 45.55 -25.05 L45.6 -23.45 Q45.7 -20.25 44.7 -17.3 40.8 -21.55 36.05 -24.35 31.85 -21.65 29.65 -17.1 28.25 -15.95 26.85 -15.85 L26.75 -16.4 Q27.0 -20.4 24.35 -23.3 L24.4 -23.8 Q24.7 -26.0 23.15 -27.5 L23.0 -28.05 22.95 -28.6 Q21.3 -31.0 19.1 -29.3 L18.9 -28.75 18.55 -26.65 18.0 -26.1 18.0 -25.6 18.0 -23.45 17.15 -22.4 Q14.75 -22.45 12.7 -23.8 6.0 -28.2 1.05 -23.65 L1.05 -22.05 1.05 -14.1 -2.3 -13.95 Q-8.2 -18.9 -11.65 -13.95 -11.65 -13.4 -11.8 -12.9 -14.2 -5.7 -16.95 1.45 -18.7 1.45 -19.35 -0.1 -21.85 -6.1 -24.9 -11.8 -30.55 -14.95 -36.35 -13.05 L-36.3 -13.55 -35.65 -17.3 -35.35 -17.85 -31.4 -25.75 -31.4 -29.45 Q-31.4 -30.25 -31.8 -30.7 -36.2 -35.75 -43.25 -38.1 L-18.0 -50.5 -18.0 -51.0 -18.0 -52.6 Q-24.35 -55.2 -29.65 -57.0 -22.4 -63.85 -13.4 -68.15 L-13.25 -68.65 Q-12.95 -69.4 -13.05 -70.25 -16.85 -72.2 -19.6 -74.85 -17.65 -76.55 -16.6 -78.55 L-15.15 -79.1 -14.85 -79.45 -14.45 -79.95 Q-13.4 -80.1 -12.7 -80.85 -11.05 -85.95 -16.45 -87.65 -21.1 -89.15 -24.0 -92.15 -19.4 -99.4 -12.35 -104.85 L-12.35 -105.4 Q-12.35 -106.2 -12.7 -106.95 -17.05 -108.5 -20.1 -111.05 L-20.1 -111.55 -20.1 -112.1 Q-18.35 -113.9 -17.8 -116.35 -16.85 -117.05 -16.05 -117.9 L-15.95 -118.45 -15.9 -121.1 Q-16.3 -121.65 -16.9 -121.8 -22.1 -123.55 -27.2 -124.45 L-27.1 -125.5 Q-26.6 -128.9 -26.45 -132.4 -26.9 -132.95 -27.4 -132.95 -34.35 -133.3 -39.9 -136.3 L-39.75 -137.85 Q-38.95 -142.8 -39.2 -147.95 -39.75 -149.05 -40.95 -149.15 L-55.45 -149.9 -55.25 -150.85 Q-53.6 -155.1 -52.6 -159.4 -48.4 -166.2 -55.8 -168.25 -48.65 -171.65 -40.95 -174.75 L-40.75 -175.85 Q-40.6 -177.4 -40.6 -179.0 L-42.0 -180.6 -42.1 -181.1 Q-42.8 -183.15 -42.7 -185.35 L-44.15 -186.95 -44.1 -187.5 Q-43.95 -189.35 -45.35 -190.65 L-45.45 -191.2 Q-45.55 -192.1 -46.25 -192.8 L-33.15 -183.7 Q-29.9 -181.45 -27.1 -178.7 -20.5 -172.25 -12.35 -174.4 L-12.0 -174.8 -11.65 -175.3 -10.25 -175.5 -10.25 -174.4 Q-10.3 -169.3 -11.1 -164.35 L-11.65 -163.8 -11.65 -162.25 Q-11.75 -159.0 -11.45 -155.9 -10.65 -155.45 -10.0 -155.6 L1.05 -158.15 1.05 -156.75 Q0.95 -152.75 1.25 -148.8 L2.85 -147.95 4.05 -148.45 4.35 -149.0 Q4.7 -150.0 4.6 -151.1 5.75 -152.6 7.4 -153.25 11.4 -158.45 17.5 -158.0 19.2 -156.85 21.35 -156.6 24.35 -153.45 28.25 -151.45 29.45 -151.75 30.0 -152.9 L30.0 -155.0 30.0 -170.35 30.55 -170.9 33.9 -170.45 Q34.95 -170.25 35.75 -169.65 42.15 -164.7 48.4 -167.7" fill="#ffff00" fill-opacity="0.5019608" fill-rule="evenodd" stroke="none"/>
  </g>
</svg>
