<?xml version="1.0" encoding="UTF-8" standalone="no"?>
<svg xmlns:ffdec="https://www.free-decompiler.com/flash" xmlns:xlink="http://www.w3.org/1999/xlink" ffdec:objectType="shape" height="147.5px" width="97.7px" xmlns="http://www.w3.org/2000/svg">
  <g transform="matrix(1.0, 0.0, 0.0, 1.0, 30.85, 164.8)">
    <path d="M60.2 -157.4 Q61.85 -159.1 63.9 -159.5 68.3 -158.25 66.15 -154.35 65.0 -152.35 63.35 -150.8 L63.15 -150.4 62.0 -148.75 60.55 -147.4 59.65 -146.8 58.75 -146.35 Q58.35 -146.15 57.95 -146.1 L55.55 -143.95 Q47.85 -137.0 38.85 -131.85 L25.85 -124.3 Q25.35 -124.0 24.7 -123.85 L22.9 -122.85 Q21.25 -121.4 18.8 -120.65 16.65 -120.05 14.8 -119.9 L11.6 -119.25 Q9.5 -111.1 8.5 -102.6 7.9 -97.5 7.55 -92.25 L6.95 -82.15 6.55 -77.6 Q9.3 -77.9 12.2 -77.6 L13.4 -77.6 25.7 -77.3 26.3 -77.5 26.85 -77.6 Q28.4 -77.2 29.15 -76.45 31.5 -74.75 30.7 -71.1 29.5 -65.55 29.15 -59.75 L29.0 -58.65 Q27.55 -51.2 27.1 -43.6 32.15 -43.0 36.25 -40.3 37.4 -39.6 37.1 -38.25 36.4 -34.65 32.65 -35.5 30.55 -36.0 28.7 -36.9 24.75 -37.2 21.5 -39.2 20.5 -39.8 20.6 -41.05 L21.3 -52.45 Q21.3 -53.45 22.0 -54.3 23.2 -63.05 24.0 -71.85 L13.6 -71.15 12.35 -71.05 5.05 -70.65 2.85 -55.45 1.45 -45.35 Q1.1 -42.8 0.25 -40.45 0.65 -39.35 -0.1 -37.6 -0.75 -36.15 -2.2 -35.55 -9.5 -32.45 -17.3 -30.45 -18.95 -25.65 -19.25 -20.65 -19.35 -18.2 -21.7 -17.5 -24.7 -16.6 -25.3 -19.5 -25.75 -21.5 -25.6 -23.65 -25.35 -27.2 -23.6 -30.25 -23.9 -36.2 -17.7 -37.3 -13.45 -38.0 -9.45 -39.8 L-5.9 -41.4 -5.75 -41.45 Q-4.2 -49.75 -3.15 -58.1 -2.25 -65.7 -0.8 -73.05 -1.15 -74.35 -0.4 -75.2 L0.1 -77.65 0.15 -77.75 Q0.05 -79.7 0.25 -81.65 L1.15 -92.0 Q1.8 -100.3 2.95 -108.45 L3.75 -113.45 Q4.25 -116.65 5.05 -119.7 L4.75 -120.15 4.5 -120.7 Q-2.4 -127.3 -8.65 -134.5 -15.3 -142.25 -22.3 -149.75 L-25.7 -153.5 Q-28.95 -157.35 -30.75 -161.85 -31.05 -162.6 -30.55 -163.3 -29.5 -164.75 -27.9 -164.8 L-21.1 -162.3 Q-16.2 -160.25 -19.5 -156.15 -13.95 -148.8 -7.2 -142.2 L-3.7 -138.55 2.8 -131.3 Q2.2 -137.15 8.1 -141.15 11.2 -143.25 14.65 -143.4 26.35 -141.5 26.2 -131.6 29.9 -133.6 33.4 -135.95 L38.1 -138.95 Q45.8 -143.55 52.35 -149.65 L53.05 -150.25 Q52.15 -153.05 55.05 -154.35 L58.8 -155.9 60.2 -157.4" fill="#000000" fill-rule="evenodd" stroke="none"/>
  </g>
</svg>
