<?xml version="1.0" encoding="UTF-8" standalone="no"?>
<svg xmlns:ffdec="https://www.free-decompiler.com/flash" xmlns:xlink="http://www.w3.org/1999/xlink" ffdec:objectType="shape" height="130.05px" width="100.5px" xmlns="http://www.w3.org/2000/svg">
  <g transform="matrix(1.0, 0.0, 0.0, 1.0, 36.45, 170.5)">
    <path d="M62.75 -149.8 L63.05 -149.15 Q65.75 -145.35 61.25 -143.6 L59.95 -142.9 Q51.7 -136.8 42.55 -132.1 37.9 -129.75 33.15 -127.8 L29.3 -126.35 Q26.7 -125.4 24.1 -124.75 22.3 -122.65 19.15 -121.65 15.0 -120.45 11.9 -121.1 11.5 -118.05 11.45 -114.95 11.35 -110.6 10.15 -106.45 10.35 -101.4 9.25 -96.6 L8.3 -91.65 Q7.8 -88.4 6.95 -85.25 L6.25 -81.85 24.5 -81.5 25.75 -81.85 Q30.1 -80.45 32.15 -76.05 33.6 -72.8 34.5 -69.4 37.3 -62.8 38.25 -55.65 L38.5 -52.95 45.4 -52.0 Q46.2 -51.8 46.45 -50.95 47.55 -47.45 43.75 -47.0 L36.6 -45.95 Q32.95 -45.3 32.55 -48.8 31.8 -55.65 30.45 -62.3 L27.25 -71.15 Q26.35 -73.75 24.6 -75.85 14.85 -75.7 5.2 -75.9 L3.1 -71.4 Q0.65 -62.6 -0.25 -53.4 L-1.25 -45.7 Q-1.55 -43.65 -2.7 -41.95 -4.3 -39.45 -6.9 -41.15 -8.2 -42.0 -9.15 -43.2 L-17.15 -53.05 -18.1 -52.85 -18.65 -52.7 Q-20.8 -50.4 -23.2 -48.5 -23.8 -48.05 -24.5 -48.3 -28.05 -49.55 -26.6 -53.05 -25.55 -55.6 -23.3 -57.35 -20.75 -59.3 -17.6 -60.15 -13.6 -61.25 -11.6 -57.35 -10.5 -55.2 -9.0 -53.25 L-7.15 -50.95 Q-5.8 -53.85 -5.95 -57.4 L-5.9 -58.7 Q-4.85 -69.1 -1.2 -78.65 L-0.6 -79.85 -0.45 -80.05 -0.2 -81.9 Q2.1 -92.05 3.6 -102.35 L4.5 -108.35 Q5.5 -115.2 5.8 -122.2 L5.75 -122.25 Q-0.75 -126.35 -6.45 -131.7 L-14.0 -138.5 Q-18.2 -142.1 -21.9 -146.35 L-28.3 -153.3 Q-31.45 -156.55 -34.2 -160.1 -35.95 -162.4 -36.35 -165.05 -37.05 -169.65 -32.5 -170.5 -29.0 -169.9 -26.85 -166.85 L-26.15 -166.2 Q-22.8 -164.3 -25.15 -161.35 L-26.25 -160.5 Q-23.65 -156.6 -19.9 -153.2 L-19.15 -152.05 -3.35 -137.3 Q-0.2 -134.45 3.2 -131.9 2.35 -138.0 8.45 -142.15 11.55 -144.25 15.0 -144.4 27.15 -142.45 26.5 -131.85 33.15 -133.9 39.3 -137.35 L42.35 -139.05 Q49.3 -143.05 55.9 -147.55 55.05 -151.45 57.75 -153.7 L58.95 -154.25 Q62.3 -153.35 62.75 -149.8" fill="#000000" fill-rule="evenodd" stroke="none"/>
  </g>
</svg>
