<?xml version="1.0" encoding="UTF-8" standalone="no"?>
<svg xmlns:ffdec="https://www.free-decompiler.com/flash" xmlns:xlink="http://www.w3.org/1999/xlink" ffdec:objectType="shape" height="178.65px" width="105.05px" xmlns="http://www.w3.org/2000/svg">
  <g transform="matrix(1.0, 0.0, 0.0, 1.0, 49.8, 180.4)">
    <path d="M40.95 -180.05 L41.15 -179.7 Q42.25 -177.15 42.05 -174.4 46.5 -168.8 46.25 -161.7 48.4 -158.15 52.45 -158.0 50.9 -155.2 48.4 -153.25 48.5 -150.85 46.95 -149.0 46.85 -147.1 47.15 -145.3 49.9 -142.05 53.5 -139.45 49.15 -138.25 46.25 -135.2 46.15 -133.85 46.45 -132.55 L48.2 -131.5 Q51.55 -127.4 55.25 -123.55 L47.0 -122.95 44.9 -123.05 Q37.4 -124.25 34.95 -119.0 36.5 -115.6 39.2 -113.15 L39.4 -112.1 41.3 -110.5 41.3 -109.95 41.3 -109.45 Q42.55 -108.65 42.75 -107.35 L27.55 -108.25 Q26.1 -108.25 25.8 -106.95 25.65 -103.5 25.95 -100.1 L26.5 -99.55 13.15 -98.35 Q12.7 -98.3 12.35 -97.8 12.25 -96.45 12.55 -95.15 25.45 -89.05 36.9 -80.5 29.7 -77.45 22.95 -73.95 22.85 -72.85 23.15 -71.85 35.7 -64.2 46.8 -54.9 41.35 -52.75 37.1 -48.7 36.95 -46.8 37.25 -45.0 44.15 -40.9 50.5 -36.2 L46.95 -33.15 46.95 -32.65 46.95 -28.4 54.55 -20.45 38.2 -19.4 Q36.9 -19.25 36.4 -18.0 L36.4 -17.45 36.4 -14.3 37.1 -13.2 37.05 -12.7 36.9 -11.8 Q34.65 -12.2 32.7 -13.1 30.05 -14.2 28.2 -16.15 23.4 -21.0 19.1 -16.75 15.2 -13.25 12.9 -8.45 10.0 -15.35 6.25 -22.2 3.25 -27.7 -1.95 -25.3 -3.45 -24.6 -3.35 -22.95 -3.0 -15.15 -5.3 -8.1 L-6.0 -8.1 -6.85 -9.2 -8.15 -11.05 Q-12.35 -18.0 -17.3 -13.75 L-17.3 -13.2 -17.3 -12.15 -17.9 -11.05 Q-20.5 -2.65 -28.6 -1.75 -30.45 -4.05 -32.1 -6.5 -32.7 -9.25 -34.25 -11.6 -35.85 -14.05 -38.7 -13.25 -44.4 -11.65 -48.2 -11.8 -46.5 -18.1 -42.45 -23.0 -36.5 -30.1 -36.55 -38.8 -39.4 -42.3 -43.95 -42.9 -45.2 -44.15 -46.95 -44.45 -43.5 -46.8 -39.9 -48.7 L-36.2 -49.55 -32.95 -50.1 Q-25.45 -50.9 -20.8 -55.6 -21.15 -57.35 -23.1 -57.9 -23.45 -58.7 -24.1 -59.1 -27.5 -61.45 -28.95 -63.35 L-23.45 -66.35 Q-17.55 -66.9 -12.15 -69.35 -11.25 -70.6 -11.8 -72.0 -16.05 -76.55 -21.2 -79.95 -16.45 -81.9 -12.35 -84.35 L-12.35 -84.9 -12.35 -86.5 Q-17.4 -90.85 -22.05 -95.5 -21.55 -96.05 -20.9 -96.15 -14.55 -97.65 -9.55 -101.3 L-9.55 -101.85 -9.55 -103.45 Q-12.15 -105.6 -15.55 -106.95 L-14.3 -107.5 Q-12.7 -109.7 -12.15 -112.25 -10.8 -113.55 -10.95 -115.45 -11.4 -116.0 -11.8 -116.0 L-28.6 -114.9 Q-26.55 -120.25 -26.45 -126.05 -27.0 -127.15 -28.1 -126.9 -33.95 -125.55 -39.2 -125.15 L-36.85 -138.5 Q-36.2 -141.9 -39.55 -142.95 -45.35 -144.8 -49.8 -147.6 -45.45 -152.35 -39.55 -155.0 L-39.2 -156.05 Q-36.95 -157.3 -35.15 -158.9 -34.85 -159.9 -35.4 -160.65 -37.95 -164.05 -41.85 -166.1 L-41.0 -166.25 Q-35.3 -165.45 -30.35 -167.7 L-30.15 -168.25 Q-27.65 -173.9 -28.6 -180.4 L-21.1 -172.05 Q-17.2 -167.7 -11.05 -170.05 -5.3 -172.2 -1.6 -171.05 L-2.15 -170.05 -3.0 -168.75 Q-5.95 -164.1 -5.3 -158.35 -0.85 -155.0 3.0 -153.75 -1.3 -150.15 -3.9 -145.8 -1.7 -143.15 1.4 -145.1 L1.75 -146.15 Q9.5 -148.35 13.95 -154.45 18.1 -149.35 23.3 -150.05 23.9 -153.95 23.8 -158.0 23.55 -166.25 23.85 -174.4 27.25 -172.1 31.6 -170.7 36.85 -168.85 37.25 -175.3 L40.95 -180.05" fill="#ffff00" fill-opacity="0.5019608" fill-rule="evenodd" stroke="none"/>
  </g>
</svg>
