<?xml version="1.0" encoding="UTF-8" standalone="no"?>
<svg xmlns:ffdec="https://www.free-decompiler.com/flash" xmlns:xlink="http://www.w3.org/1999/xlink" ffdec:objectType="shape" height="143.1px" width="67.0px" xmlns="http://www.w3.org/2000/svg">
  <g transform="matrix(1.0, 0.0, 0.0, 1.0, 23.55, 163.45)">
    <path d="M38.15 -156.7 Q43.95 -157.5 43.4 -152.25 43.1 -149.5 41.65 -147.15 40.9 -143.95 39.7 -140.7 39.1 -139.15 38.05 -137.9 L38.05 -137.35 Q38.0 -136.2 37.35 -135.25 L37.0 -134.7 36.95 -133.65 Q36.75 -132.0 35.55 -130.75 34.35 -126.05 29.85 -123.45 L28.65 -122.55 23.1 -118.05 23.05 -118.0 Q20.6 -113.0 15.35 -112.9 L14.75 -112.35 Q14.05 -111.55 13.05 -111.15 10.7 -107.7 7.65 -110.55 6.05 -102.3 4.85 -93.95 L4.3 -89.65 Q3.75 -84.6 2.7 -79.65 L2.4 -78.2 Q7.05 -76.5 10.7 -72.75 L14.8 -68.55 Q17.45 -65.85 19.3 -62.7 21.15 -61.15 20.75 -57.95 20.4 -55.35 20.4 -52.7 L20.65 -32.0 Q25.15 -31.8 29.5 -30.8 30.3 -30.65 30.55 -29.8 31.65 -26.25 27.85 -25.75 L18.15 -26.1 Q17.3 -25.85 16.2 -26.35 13.7 -27.55 13.9 -30.4 14.2 -35.65 14.15 -40.95 14.1 -50.25 14.6 -59.4 L11.65 -62.4 Q7.45 -67.2 2.55 -71.2 L2.9 -69.85 5.3 -59.8 Q6.1 -55.85 5.3 -52.05 5.6 -50.85 4.65 -49.15 L3.05 -47.1 Q-4.35 -40.05 -13.05 -34.6 L-15.95 -32.25 -16.65 -31.65 -16.7 -29.8 Q-17.05 -27.6 -16.85 -25.35 -16.55 -22.7 -18.5 -21.05 L-21.75 -20.95 Q-23.65 -22.3 -23.55 -24.75 L-22.9 -32.5 Q-23.7 -34.9 -21.15 -36.5 -16.5 -39.35 -12.15 -42.7 L-9.5 -44.7 -6.15 -47.55 -2.2 -51.2 -0.55 -52.55 Q-1.25 -60.9 -3.5 -68.85 -4.15 -69.5 -4.25 -70.8 L-4.25 -71.25 -4.3 -71.35 Q-5.3 -74.6 -4.2 -77.65 L-4.0 -78.05 -3.5 -81.15 Q-2.4 -86.25 -1.75 -91.4 L-1.15 -96.0 Q-0.05 -104.35 1.45 -112.55 L0.6 -113.35 Q-4.5 -118.75 -10.55 -123.35 -13.65 -125.7 -16.3 -128.4 -18.55 -129.0 -18.55 -131.9 -18.5 -140.85 -19.4 -149.65 -20.0 -155.35 -19.45 -161.0 -19.35 -161.9 -18.6 -162.6 -17.7 -163.4 -16.6 -163.4 -11.55 -163.85 -11.1 -159.2 -10.85 -156.05 -13.25 -154.15 L-12.05 -137.2 Q-11.9 -135.0 -12.15 -132.85 -8.9 -131.2 -6.2 -128.45 -3.2 -125.35 0.25 -122.75 L2.05 -121.25 Q1.45 -124.4 2.75 -128.75 4.75 -135.2 11.4 -136.6 L13.6 -137.0 Q23.9 -134.4 25.05 -127.65 L25.15 -127.75 Q27.9 -130.05 29.55 -133.1 L30.7 -134.65 Q31.8 -139.5 33.9 -144.15 L35.05 -147.35 Q31.75 -151.6 35.7 -155.6 36.8 -156.65 38.15 -156.7" fill="#000000" fill-rule="evenodd" stroke="none"/>
  </g>
</svg>
