<?xml version="1.0" encoding="UTF-8" standalone="no"?>
<svg xmlns:ffdec="https://www.free-decompiler.com/flash" xmlns:xlink="http://www.w3.org/1999/xlink" ffdec:objectType="shape" height="181.3px" width="119.5px" xmlns="http://www.w3.org/2000/svg">
  <g transform="matrix(1.0, 0.0, 0.0, 1.0, 51.35, 158.15)">
    <path d="M11.5 -158.15 L10.7 -154.35 Q9.4 -149.45 5.85 -146.0 L4.05 -144.95 3.95 -144.4 3.9 -143.85 3.2 -143.35 1.75 -141.75 1.8 -140.7 1.95 -139.65 Q2.75 -139.2 3.55 -139.2 L14.1 -138.85 Q14.65 -138.85 15.2 -138.4 14.75 -135.05 13.2 -132.05 10.45 -126.85 7.4 -122.0 L7.45 -120.9 7.6 -119.85 8.2 -119.4 Q8.65 -119.15 9.2 -119.0 L26.15 -121.8 Q26.7 -123.85 26.6 -126.05 L26.5 -131.85 Q29.65 -131.0 32.5 -132.4 37.45 -134.95 40.8 -139.65 L41.35 -138.6 Q42.15 -137.05 43.75 -137.2 L68.15 -139.8 64.45 -137.35 Q56.2 -132.5 51.9 -125.0 52.1 -124.45 52.45 -124.2 59.55 -118.95 66.75 -114.2 64.25 -113.0 61.25 -112.0 52.15 -108.95 46.25 -102.05 L46.2 -100.95 Q46.15 -100.15 46.45 -99.4 L47.5 -98.35 Q53.25 -92.95 59.85 -88.8 49.65 -88.35 40.6 -84.0 L14.2 -80.95 Q12.1 -80.65 10.95 -78.9 L11.0 -77.85 11.15 -76.8 Q19.15 -75.05 27.2 -72.7 25.3 -70.95 22.7 -70.5 13.6 -68.75 13.25 -60.55 L25.8 -56.65 25.8 -56.3 25.8 -55.75 25.8 -55.25 25.45 -54.7 25.1 -54.2 25.05 -52.6 Q24.95 -51.25 25.25 -49.95 26.05 -49.5 26.9 -49.35 L35.85 -48.2 Q32.95 -46.8 30.75 -44.45 L30.7 -43.95 30.55 -43.4 29.85 -42.85 29.3 -42.35 29.25 -40.75 Q29.2 -39.65 29.5 -38.65 L30.1 -38.25 Q38.15 -34.35 45.4 -29.45 L44.7 -28.95 Q38.7 -30.0 35.65 -25.25 L35.65 -23.65 Q35.55 -22.3 35.85 -21.0 L37.0 -19.85 Q40.4 -15.8 44.3 -12.5 37.9 -11.4 32.85 -7.55 L32.85 -4.95 32.85 -0.7 33.3 -0.1 33.55 0.35 33.55 0.9 33.55 1.45 33.55 1.95 33.9 2.5 Q35.15 4.85 37.45 6.2 L38.05 7.15 40.45 9.75 Q31.3 8.0 22.25 8.1 20.85 8.15 20.0 9.05 14.2 15.0 12.2 23.15 4.8 17.3 -2.25 11.1 -3.6 9.9 -5.3 9.9 -15.8 9.75 -23.3 18.05 L-23.95 18.05 -24.2 17.85 -24.75 16.8 -25.05 16.25 -25.05 14.65 -25.05 13.1 Q-28.35 10.25 -33.15 10.5 -44.3 11.0 -51.35 10.1 -51.1 8.35 -50.1 6.9 -48.15 4.15 -47.3 1.1 L-45.95 0.1 Q-42.85 -2.35 -40.6 -5.45 -40.6 -6.35 -41.25 -7.1 -43.6 -9.9 -46.25 -12.0 -46.4 -12.5 -46.7 -13.0 L-47.15 -13.6 -43.75 -14.35 -36.65 -15.95 Q-33.15 -16.95 -31.8 -19.95 -31.3 -21.1 -32.05 -22.0 L-40.6 -31.95 -26.45 -36.0 -25.85 -36.75 Q-24.95 -37.5 -24.35 -38.45 L-24.3 -40.05 Q-24.2 -41.45 -24.7 -42.7 L-25.65 -43.85 -26.1 -44.85 Q-31.4 -48.0 -35.65 -52.25 L-35.55 -53.3 -35.3 -53.85 Q-34.6 -54.85 -33.25 -55.2 L-31.4 -55.75 Q-25.75 -57.6 -24.35 -62.5 L-24.8 -62.9 Q-33.2 -68.55 -42.7 -73.25 -36.95 -77.1 -30.8 -80.25 L-29.2 -80.95 Q-21.85 -83.45 -16.05 -88.25 L-15.95 -89.3 -16.05 -90.4 Q-28.7 -98.35 -44.15 -100.25 L-43.1 -100.85 Q-39.75 -103.05 -37.25 -106.1 -36.6 -109.2 -38.4 -111.95 -41.65 -117.0 -45.7 -121.45 L-35.35 -122.35 Q-34.4 -122.5 -34.2 -123.45 L-31.4 -135.55 Q-27.65 -134.95 -24.35 -136.3 L-23.7 -137.05 Q-22.85 -137.75 -22.25 -138.75 L-22.25 -139.3 -22.25 -139.8 Q-19.55 -142.8 -18.95 -146.65 -18.15 -151.9 -15.7 -155.7 L-15.0 -154.65 -13.05 -151.45 -13.05 -150.95 -13.05 -150.4 Q-11.35 -149.0 -10.45 -147.1 -9.9 -145.95 -8.65 -146.35 2.6 -149.95 11.5 -158.15" fill="#ffff00" fill-opacity="0.5019608" fill-rule="evenodd" stroke="none"/>
  </g>
</svg>
