<?xml version="1.0" encoding="UTF-8" standalone="no"?>
<svg xmlns:ffdec="https://www.free-decompiler.com/flash" xmlns:xlink="http://www.w3.org/1999/xlink" ffdec:objectType="shape" height="168.95px" width="119.0px" xmlns="http://www.w3.org/2000/svg">
  <g transform="matrix(1.0, 0.0, 0.0, 1.0, 55.25, 141.75)">
    <path d="M21.7 -129.75 L22.05 -129.2 22.25 -128.7 22.45 -127.65 23.85 -127.35 Q29.95 -128.95 34.1 -134.0 L34.3 -133.5 34.95 -132.4 34.95 -131.85 34.95 -131.35 34.95 -130.8 37.45 -128.65 Q42.0 -125.45 47.7 -126.9 L47.0 -126.35 46.45 -125.85 Q45.45 -123.6 45.5 -121.1 L45.55 -115.25 Q46.4 -113.75 48.0 -113.2 55.75 -110.65 63.75 -108.75 L61.3 -106.55 Q55.95 -102.5 52.6 -96.55 L52.6 -96.05 52.6 -95.5 52.25 -94.95 51.9 -94.45 51.9 -93.4 51.9 -92.85 51.9 -91.8 Q57.1 -88.25 63.2 -85.95 L62.5 -85.45 Q54.45 -86.75 49.1 -82.25 L49.05 -79.1 Q49.0 -77.95 49.45 -76.95 L24.0 -77.75 Q22.2 -77.8 22.25 -76.1 22.3 -75.1 23.35 -74.55 25.25 -73.55 26.3 -71.85 20.8 -70.5 16.6 -66.9 L16.6 -66.35 16.55 -64.25 Q16.5 -63.4 16.8 -62.65 21.05 -60.2 25.8 -59.15 L25.8 -58.6 25.8 -58.05 24.05 -55.4 Q22.45 -53.25 23.15 -50.65 23.95 -50.2 24.75 -50.1 L27.2 -49.9 34.25 -49.6 34.2 -45.35 Q34.15 -42.65 34.45 -40.05 38.55 -39.1 40.95 -37.75 L39.35 -36.25 Q35.35 -32.7 32.15 -28.25 L32.15 -27.7 32.1 -26.1 Q32.05 -25.3 32.3 -24.5 40.4 -20.8 47.3 -14.8 L38.9 -13.95 Q38.3 -13.85 37.8 -13.4 37.35 -9.75 38.8 -6.65 42.05 0.3 43.95 7.8 L41.65 7.6 Q35.65 7.5 30.5 9.65 24.3 12.25 25.1 20.3 L25.45 20.85 25.8 21.4 25.8 24.55 25.8 27.2 Q23.9 26.75 22.65 25.05 16.45 16.5 6.35 17.4 4.85 17.5 4.0 18.5 -0.15 23.15 -4.95 26.85 L-5.9 23.7 Q-6.65 21.15 -8.1 18.9 L-8.1 18.4 -8.1 16.8 -8.1 15.2 Q-12.15 12.5 -17.7 14.25 -25.45 16.75 -32.5 18.05 -31.9 16.85 -32.0 15.35 L-32.1 12.75 Q-31.25 11.5 -30.95 10.05 -30.7 8.75 -30.7 7.45 -39.05 3.45 -48.7 1.8 -53.3 1.05 -55.25 0.0 L-48.7 -3.15 -48.4 -3.7 -48.2 -4.2 Q-41.65 -6.75 -36.55 -11.3 -36.05 -12.9 -36.35 -14.55 -36.95 -17.55 -39.2 -19.75 -31.0 -18.85 -23.3 -20.1 -22.5 -22.25 -23.8 -24.0 -26.7 -28.05 -28.25 -32.8 L-26.8 -33.6 Q-23.75 -34.9 -21.7 -37.4 L-21.6 -37.95 -21.55 -39.0 -21.55 -40.6 Q-22.95 -42.7 -25.75 -42.35 -27.9 -44.6 -30.95 -45.35 -34.9 -46.4 -36.0 -48.7 L-33.9 -50.05 Q-25.4 -55.4 -20.1 -63.35 -20.3 -63.9 -20.65 -64.1 -24.75 -66.3 -29.1 -65.85 L-27.9 -67.0 Q-26.25 -68.25 -25.75 -70.05 L-24.6 -70.7 -22.05 -72.2 -20.95 -73.55 -15.35 -78.35 Q-15.05 -79.4 -15.05 -80.5 -15.0 -86.55 -20.65 -84.2 L-20.8 -83.65 -21.0 -82.6 -21.85 -82.2 Q-25.7 -79.75 -29.85 -78.0 -29.05 -79.75 -28.85 -81.6 -28.6 -83.65 -28.6 -85.8 -34.1 -88.4 -38.3 -88.45 L-37.05 -89.75 Q-35.1 -91.15 -33.7 -93.2 -33.4 -94.5 -33.4 -95.85 -33.4 -97.25 -33.9 -98.5 L-35.55 -99.7 Q-42.5 -105.85 -48.35 -112.25 L-34.75 -113.7 Q-33.1 -114.0 -31.95 -115.6 -28.2 -121.0 -28.95 -128.0 L-26.35 -125.85 Q-19.9 -121.3 -16.6 -127.45 L-16.6 -128.0 -16.6 -128.5 -16.6 -129.05 -14.9 -131.75 Q-13.65 -133.95 -13.6 -136.45 -12.85 -137.15 -12.4 -138.05 L-11.1 -140.0 -9.85 -138.95 Q-8.75 -138.1 -8.1 -136.8 L-8.1 -136.3 -8.1 -135.75 -7.2 -134.7 Q-6.05 -133.4 -4.6 -134.35 L6.7 -141.75 Q8.6 -139.95 8.35 -135.55 8.0 -130.5 8.3 -125.5 L9.9 -124.65 Q12.35 -125.5 14.55 -127.05 18.45 -129.85 21.7 -129.75" fill="#ffff00" fill-opacity="0.5019608" fill-rule="evenodd" stroke="none"/>
  </g>
</svg>
