<?xml version="1.0" encoding="UTF-8" standalone="no"?>
<svg xmlns:ffdec="https://www.free-decompiler.com/flash" xmlns:xlink="http://www.w3.org/1999/xlink" ffdec:objectType="shape" height="125.6px" width="65.75px" xmlns="http://www.w3.org/2000/svg">
  <g transform="matrix(1.0, 0.0, 0.0, 1.0, 27.65, 121.95)">
    <path d="M6.35 -109.85 Q16.45 -110.1 19.1 -100.6 19.5 -99.25 19.55 -97.75 19.65 -94.95 18.8 -92.8 L28.9 -94.9 31.35 -95.4 Q31.65 -98.0 31.55 -100.7 L31.5 -105.2 31.1 -106.1 Q30.4 -107.4 30.2 -108.9 26.4 -107.55 24.8 -111.25 24.4 -112.15 24.35 -113.25 24.25 -117.35 28.25 -118.2 33.35 -119.2 34.85 -114.85 L35.85 -112.1 Q38.55 -104.8 38.0 -96.7 37.85 -94.55 37.15 -92.6 36.2 -90.05 33.35 -89.3 23.9 -86.95 14.15 -85.35 7.7 -84.3 1.35 -85.0 -0.35 -78.6 -0.7 -71.85 L-0.8 -68.95 Q-1.1 -59.7 -0.9 -50.35 3.5 -49.2 7.4 -46.7 L10.55 -44.75 Q15.85 -41.7 19.8 -37.4 22.3 -35.85 21.8 -32.15 L21.35 -26.9 Q21.0 -16.55 18.1 -6.7 L17.55 -4.75 25.6 -4.45 Q27.35 -4.35 27.8 -2.65 28.65 0.35 25.55 0.7 L15.0 1.75 13.3 1.5 12.45 1.15 Q11.3 0.75 10.95 -0.4 L10.8 -1.0 10.8 -2.25 Q11.45 -9.25 13.85 -15.8 15.35 -24.35 15.5 -33.25 7.7 -39.3 -1.05 -43.55 L-1.15 -42.4 -1.55 -37.4 -1.85 -26.55 Q-1.35 -25.5 -2.0 -24.0 L-2.2 -23.7 -2.8 -22.75 Q-8.8 -14.5 -15.4 -6.8 L-17.85 -4.2 Q-12.4 -3.55 -7.25 -1.55 -6.55 -1.25 -6.4 -0.5 -5.55 3.35 -9.55 3.65 L-10.8 3.55 Q-18.55 1.85 -26.45 0.85 L-27.1 0.3 Q-28.05 -1.75 -27.3 -2.95 -27.15 -3.8 -26.35 -4.75 L-24.65 -6.55 Q-17.15 -13.7 -11.05 -22.05 L-9.35 -24.25 Q-8.8 -25.55 -7.9 -26.5 L-7.95 -26.8 Q-8.35 -31.95 -8.0 -37.15 L-7.35 -45.2 Q-7.65 -46.0 -7.6 -47.05 -7.35 -52.35 -7.4 -57.65 -7.55 -68.05 -6.2 -78.25 L-4.8 -86.65 -17.5 -95.15 -19.7 -96.55 Q-24.4 -99.4 -27.2 -103.8 L-27.4 -104.7 Q-27.1 -108.55 -23.8 -111.3 -15.55 -118.1 -5.45 -121.6 L-4.95 -121.7 Q-1.6 -122.5 1.2 -120.95 3.6 -119.6 3.65 -116.95 3.8 -112.7 -0.7 -113.1 -3.05 -113.3 -4.6 -115.0 -13.45 -111.8 -20.5 -105.5 -13.5 -99.05 -5.0 -94.75 L-2.6 -93.3 -2.55 -93.4 Q-5.1 -99.35 -1.2 -105.5 0.6 -108.35 3.75 -109.2 L6.35 -109.85" fill="#000000" fill-rule="evenodd" stroke="none"/>
  </g>
</svg>
