<?xml version="1.0" encoding="UTF-8" standalone="no"?>
<svg xmlns:ffdec="https://www.free-decompiler.com/flash" xmlns:xlink="http://www.w3.org/1999/xlink" ffdec:objectType="shape" height="169.95px" width="111.25px" xmlns="http://www.w3.org/2000/svg">
  <g transform="matrix(1.0, 0.0, 0.0, 1.0, 56.85, 140.9)">
    <path d="M23.65 -128.25 Q26.8 -131.8 30.0 -132.4 L30.3 -131.95 Q31.1 -131.25 31.45 -130.3 L31.45 -129.75 31.45 -129.2 31.9 -128.65 32.15 -128.15 32.3 -126.6 32.85 -122.85 33.2 -122.35 34.25 -120.75 Q34.65 -117.75 35.5 -114.9 36.15 -112.7 38.2 -112.5 L51.75 -111.55 Q50.5 -109.45 48.4 -108.05 L48.4 -107.0 Q48.5 -105.6 48.2 -104.3 L47.7 -103.8 47.7 -102.75 47.7 -101.15 48.05 -100.6 48.4 -100.1 48.4 -99.55 48.4 -99.05 Q51.35 -95.95 54.4 -93.2 48.55 -92.25 44.15 -89.3 L44.15 -88.8 44.15 -87.75 46.95 -84.55 46.95 -84.0 46.95 -83.5 47.4 -83.0 Q49.95 -80.65 51.75 -77.65 46.65 -77.7 41.6 -79.0 L33.1 -80.8 22.65 -82.8 Q17.85 -83.85 16.6 -80.3 23.05 -75.65 30.75 -71.85 L25.9 -70.6 Q21.45 -69.75 19.25 -66.9 15.8 -66.2 13.8 -63.35 L13.8 -62.3 13.95 -61.25 Q30.1 -56.5 42.9 -46.05 37.4 -42.2 33.55 -37.05 L33.55 -36.0 33.55 -33.35 Q35.65 -30.2 39.05 -29.1 39.9 -28.0 41.3 -27.7 L41.55 -27.45 Q42.6 -26.75 42.75 -25.75 L41.3 -24.7 39.9 -23.6 Q35.15 -20.1 35.65 -14.3 36.85 -12.25 39.2 -12.15 44.3 -9.0 48.4 -4.2 42.55 -3.9 38.5 -0.35 L38.45 1.8 Q38.2 5.8 39.9 9.2 L28.75 8.05 22.4 6.55 Q17.95 5.3 15.9 8.85 L15.75 11.55 Q14.95 15.3 15.2 18.4 L12.0 16.8 Q10.5 16.0 9.25 15.0 7.15 13.3 4.4 13.1 -0.5 12.65 -3.7 17.5 L-3.85 18.05 -3.9 18.55 Q-7.0 22.7 -10.95 23.3 -13.45 15.8 -20.8 16.95 -27.85 22.7 -34.6 28.95 L-35.65 29.05 -35.65 28.95 -35.65 25.95 -35.65 15.9 Q-45.45 11.7 -54.2 8.65 L-37.25 -5.65 -37.1 -6.7 -37.05 -7.75 -36.7 -8.3 -36.35 -8.8 -36.35 -9.85 -36.35 -13.05 -36.75 -13.5 -40.4 -16.05 -39.85 -16.5 Q-32.7 -17.2 -28.6 -22.95 L-28.6 -24.0 -28.6 -25.05 Q-32.05 -27.6 -34.4 -30.55 -26.9 -35.0 -18.35 -38.45 L-18.15 -39.55 Q-18.0 -41.1 -18.0 -42.7 -22.5 -47.5 -28.6 -49.6 L-28.85 -50.05 -29.85 -51.2 Q-28.85 -51.9 -27.85 -52.3 -22.25 -54.7 -18.2 -59.3 L-18.05 -60.35 -18.0 -62.5 Q-26.75 -67.6 -36.55 -71.3 -34.5 -73.4 -31.75 -74.5 L-31.45 -75.05 -31.25 -75.55 Q-26.9 -77.85 -25.05 -82.45 -25.15 -84.0 -26.85 -84.1 L-43.4 -84.9 -43.3 -85.4 -42.7 -86.5 -42.7 -88.6 -42.7 -94.95 Q-48.45 -97.9 -54.7 -97.6 L-54.15 -98.1 Q-48.65 -101.65 -48.35 -107.7 L-48.75 -108.2 -49.45 -109.8 -51.2 -110.85 Q-53.65 -114.25 -56.85 -117.2 L-45.7 -116.75 Q-36.7 -114.85 -28.25 -115.45 -27.7 -117.25 -28.1 -119.1 -29.55 -125.6 -30.0 -132.4 -21.15 -128.75 -13.75 -122.85 L-13.75 -122.35 -13.6 -121.25 -12.0 -120.4 -11.3 -120.55 -10.8 -120.95 -10.4 -121.45 -7.05 -122.0 -6.6 -122.4 -6.0 -123.4 -7.4 -125.7 -6.9 -126.25 -6.0 -127.3 -4.4 -128.0 -3.8 -129.0 Q-1.5 -132.65 0.2 -136.45 1.75 -136.65 2.5 -138.05 L2.55 -138.55 2.85 -139.65 3.5 -140.2 3.9 -140.7 4.45 -140.75 Q10.35 -134.45 15.0 -127.1 L15.15 -126.55 15.35 -125.5 Q19.85 -124.0 23.65 -128.25" fill="#ffff00" fill-opacity="0.5019608" fill-rule="evenodd" stroke="none"/>
  </g>
</svg>
