<?xml version="1.0" encoding="UTF-8" standalone="no"?>
<svg xmlns:ffdec="https://www.free-decompiler.com/flash" xmlns:xlink="http://www.w3.org/1999/xlink" ffdec:objectType="shape" height="37.45px" width="35.4px" xmlns="http://www.w3.org/2000/svg">
  <g transform="matrix(1.0, 0.0, 0.0, 1.0, 17.7, 18.75)">
    <path d="M10.65 -13.6 Q8.35 -11.75 6.85 -9.15 5.65 -7.1 4.15 -5.2 L4.0 -4.55 3.9 -3.95 3.75 -3.25 Q1.5 -0.7 -0.45 2.05 0.7 2.9 1.2 4.55 L1.35 5.8 0.85 6.35 -0.8 7.5 -2.0 6.9 -2.95 6.0 -3.0 5.95 -5.6 10.7 Q-6.65 12.85 -8.15 14.85 L-8.15 15.5 -8.15 16.15 -8.55 16.8 Q-9.4 18.4 -11.15 18.7 L-12.4 18.2 -13.1 17.65 -13.25 17.0 -13.3 15.7 -13.3 15.05 -12.95 14.4 Q-12.4 12.9 -11.2 11.75 L-10.7 11.2 -10.7 10.55 -10.7 9.9 -10.7 9.25 -10.4 8.7 -8.55 7.3 -6.75 4.0 Q-10.5 1.75 -13.7 -1.15 L-14.4 -1.75 Q-16.2 -1.8 -17.3 -3.15 L-17.6 -3.7 Q-17.95 -4.95 -16.95 -5.6 L-15.45 -6.3 Q-9.7 -4.25 -4.75 0.15 L-3.7 -1.8 Q-2.55 -4.0 -0.6 -5.65 L-0.4 -6.3 -0.35 -6.95 -0.35 -7.6 Q2.45 -10.9 4.65 -14.8 5.6 -16.5 7.4 -17.95 L8.65 -18.25 8.7 -18.35 Q13.95 -19.85 17.05 -15.95 L17.55 -15.35 17.65 -14.7 Q17.75 -12.75 17.5 -10.85 L17.1 -9.55 16.4 -9.15 15.6 -8.9 Q14.95 -9.1 14.35 -9.4 L13.65 -9.95 13.5 -10.6 13.45 -12.55 13.45 -13.6 13.2 -13.75 10.65 -13.6" fill="#000000" fill-rule="evenodd" stroke="none"/>
  </g>
</svg>
