<?xml version="1.0" encoding="UTF-8" standalone="no"?>
<svg xmlns:ffdec="https://www.free-decompiler.com/flash" xmlns:xlink="http://www.w3.org/1999/xlink" ffdec:objectType="shape" height="118.6px" width="68.3px" xmlns="http://www.w3.org/2000/svg">
  <g transform="matrix(1.0, 0.0, 0.0, 1.0, 30.15, 114.6)">
    <path d="M19.3 -102.1 L19.75 -99.25 Q19.9 -95.85 18.55 -93.4 24.95 -95.35 30.7 -98.75 30.7 -99.4 30.0 -99.85 28.95 -100.5 28.05 -101.4 22.75 -99.75 21.2 -104.35 20.9 -105.15 20.85 -106.1 20.5 -109.8 24.0 -110.4 29.2 -110.25 32.7 -106.1 L34.6 -104.4 Q38.6 -101.6 38.1 -96.95 37.8 -94.0 34.85 -93.25 33.45 -92.9 32.2 -92.25 23.0 -87.45 12.6 -85.35 7.25 -84.25 2.1 -85.1 1.55 -82.05 1.4 -78.85 L0.55 -67.4 0.0 -62.15 Q-0.45 -58.8 -0.4 -55.4 2.55 -54.15 4.95 -51.75 6.95 -49.8 9.3 -48.25 16.8 -43.2 22.2 -36.2 L22.4 -35.7 Q23.1 -34.55 22.3 -32.55 L22.15 -32.3 Q22.0 -28.1 21.45 -24.05 L20.9 -20.9 20.4 -19.85 Q19.9 -12.55 18.5 -5.45 L19.05 -5.55 27.35 -5.15 Q29.3 -5.0 29.6 -3.1 30.15 0.1 26.8 0.4 L19.7 1.05 16.4 1.2 15.75 1.4 Q13.6 1.8 12.7 0.75 11.0 0.05 11.3 -2.05 11.45 -3.15 12.0 -3.8 12.1 -7.25 12.9 -10.55 L13.25 -12.85 Q13.7 -18.15 14.9 -23.2 14.95 -27.65 15.7 -32.0 L16.1 -33.95 15.65 -34.35 Q8.15 -41.45 -0.4 -47.2 L-1.25 -47.8 -1.4 -40.7 Q-1.1 -32.8 -2.6 -25.4 -2.8 -24.4 -3.85 -24.15 L-4.45 -24.0 -11.9 -11.8 Q-13.8 -8.55 -16.4 -5.7 L-18.7 -2.85 -7.55 -1.55 Q-6.9 -1.45 -6.6 -0.75 -5.2 2.9 -9.25 3.45 L-14.65 3.95 Q-19.15 4.2 -23.45 3.15 -26.0 2.5 -26.45 1.1 -28.3 -0.9 -26.4 -3.85 L-23.3 -7.8 Q-19.65 -11.65 -16.75 -16.15 -14.45 -19.75 -12.35 -23.65 -10.65 -26.85 -7.8 -29.2 L-7.95 -34.85 Q-8.05 -45.25 -6.65 -55.3 L-6.6 -59.25 Q-5.95 -69.6 -4.75 -79.9 L-3.85 -87.05 -4.8 -87.45 -7.25 -89.05 -27.7 -97.85 Q-31.3 -99.4 -29.6 -102.8 -28.15 -105.55 -25.5 -107.1 L-18.3 -111.0 Q-14.0 -113.2 -9.55 -114.3 -5.35 -115.45 -3.75 -112.05 -2.95 -110.3 -3.9 -108.6 -5.5 -105.75 -9.0 -107.05 L-9.9 -107.5 Q-16.15 -105.85 -21.3 -101.85 L-6.45 -95.75 Q-4.5 -94.95 -2.85 -93.6 L-2.7 -93.45 -2.25 -94.65 Q-4.95 -100.7 -1.0 -107.0 0.8 -109.85 3.95 -110.7 L6.55 -111.35 Q16.65 -111.6 19.3 -102.1" fill="#000000" fill-rule="evenodd" stroke="none"/>
  </g>
</svg>
