<?xml version="1.0" encoding="UTF-8" standalone="no"?>
<svg xmlns:ffdec="https://www.free-decompiler.com/flash" xmlns:xlink="http://www.w3.org/1999/xlink" ffdec:objectType="shape" height="166.5px" width="104.35px" xmlns="http://www.w3.org/2000/svg">
  <g transform="matrix(1.0, 0.0, 0.0, 1.0, 47.65, 143.35)">
    <path d="M39.9 -131.15 L39.9 -130.65 Q44.35 -125.55 49.8 -122.85 47.85 -120.85 47.3 -118.1 L46.25 -117.05 Q46.2 -114.7 44.85 -112.8 L44.85 -112.25 44.85 -107.5 50.35 -102.2 45.55 -98.85 Q45.45 -96.95 45.75 -95.15 52.35 -89.8 56.7 -84.0 L40.3 -82.7 Q38.6 -82.55 37.8 -81.0 L37.8 -80.5 37.8 -76.25 38.5 -75.2 38.5 -74.65 38.5 -74.15 39.2 -73.05 Q39.95 -70.4 41.3 -67.8 L37.95 -68.3 34.6 -71.0 Q27.6 -75.2 20.5 -74.5 19.9 -73.0 20.15 -71.3 L13.2 -70.15 Q12.25 -69.9 11.65 -69.0 11.55 -67.9 11.85 -66.9 17.75 -60.4 25.45 -55.4 26.15 -54.35 26.15 -53.3 L25.45 -51.7 24.35 -50.65 24.35 -50.1 24.35 -47.45 Q25.85 -45.2 28.6 -45.2 L29.55 -44.6 Q36.05 -43.05 39.9 -39.55 33.7 -35.95 28.6 -31.05 L28.6 -30.55 28.6 -28.4 Q36.05 -23.75 45.55 -23.3 48.45 -21.15 51.2 -19.75 45.2 -17.3 39.9 -14.1 37.4 -14.25 36.4 -12.35 L36.4 -11.8 36.4 -8.65 Q40.7 -4.45 45.9 -1.4 40.75 -1.1 37.8 2.5 L37.8 3.0 37.8 4.1 39.05 5.65 Q31.6 2.9 28.6 8.5 L27.35 8.65 Q23.8 7.3 20.5 5.5 19.5 4.95 18.45 4.75 15.3 4.1 12.65 5.3 6.5 8.05 5.85 15.2 L4.0 13.7 Q3.45 13.25 2.95 13.25 -3.5 12.75 -8.1 18.4 -7.75 21.55 -9.9 23.15 -11.8 19.35 -11.65 15.2 -13.45 12.65 -16.6 14.35 -21.75 17.2 -26.1 21.4 L-27.2 20.85 Q-27.35 15.95 -28.75 11.3 L-29.75 10.45 Q-34.4 7.9 -39.9 9.0 -38.0 3.2 -38.5 -3.15 -40.8 -6.45 -44.85 -7.05 L-45.35 -7.55 -43.25 -8.65 Q-42.85 -9.55 -42.05 -9.95 L-38.3 -11.5 Q-28.1 -14.45 -20.1 -20.8 L-20.1 -21.35 -20.1 -25.05 Q-22.05 -28.6 -25.8 -30.3 -30.35 -32.45 -31.75 -35.1 -26.9 -37.3 -23.1 -40.95 -22.8 -42.5 -22.95 -44.1 L-26.45 -48.9 Q-22.2 -50.7 -18.35 -53.3 -17.7 -54.85 -18.2 -56.5 -21.9 -59.6 -25.75 -61.8 -19.1 -67.95 -13.05 -74.5 L-13.05 -75.0 -13.05 -76.6 Q-13.5 -77.15 -14.0 -77.2 -21.55 -78.3 -28.6 -76.95 L-28.5 -83.15 Q-28.45 -84.5 -29.35 -85.25 -34.25 -89.1 -40.6 -87.0 -37.7 -92.75 -37.75 -99.2 -42.85 -101.9 -47.65 -101.7 -46.85 -102.45 -46.95 -103.6 -45.8 -104.75 -45.35 -106.25 L-44.3 -107.35 Q-43.2 -112.35 -46.95 -115.8 -39.95 -116.1 -33.35 -113.6 -27.7 -111.45 -23.65 -114.05 L-23.65 -114.55 -23.65 -126.2 -8.45 -116.85 Q-7.25 -117.15 -6.7 -118.25 -6.8 -120.4 -8.1 -122.0 -6.35 -123.8 -6.0 -126.2 -5.05 -127.15 -4.6 -128.35 -0.9 -128.1 3.45 -124.7 7.9 -121.3 12.55 -121.65 13.45 -122.85 12.9 -124.3 L11.65 -125.85 11.65 -126.4 Q10.7 -134.75 10.95 -143.35 21.7 -137.7 33.2 -131.7 L34.45 -132.2 Q34.75 -136.55 36.05 -140.7 L39.9 -131.7 39.9 -131.15" fill="#ffff00" fill-opacity="0.5019608" fill-rule="evenodd" stroke="none"/>
  </g>
</svg>
