<?xml version="1.0" encoding="UTF-8" standalone="no"?>
<svg xmlns:ffdec="https://www.free-decompiler.com/flash" xmlns:xlink="http://www.w3.org/1999/xlink" ffdec:objectType="shape" height="119.2px" width="67.7px" xmlns="http://www.w3.org/2000/svg">
  <g transform="matrix(1.0, 0.0, 0.0, 1.0, 28.8, 115.35)">
    <path d="M19.3 -105.6 L19.75 -102.75 Q20.1 -94.75 12.15 -92.25 9.0 -91.25 5.7 -91.5 L3.3 -92.05 3.25 -91.4 10.45 -91.05 18.9 -90.5 19.6 -90.45 23.85 -90.45 Q29.0 -97.5 31.45 -105.9 L31.95 -106.9 Q28.75 -110.85 32.0 -114.6 L33.0 -115.25 33.55 -115.35 Q39.1 -114.7 38.9 -109.3 38.8 -106.25 37.8 -103.35 L35.35 -97.35 Q32.05 -90.0 26.35 -84.6 26.0 -84.25 25.4 -84.25 L5.45 -85.0 3.0 -85.25 Q2.65 -76.8 1.8 -68.35 L1.15 -62.45 0.35 -58.1 Q2.25 -57.0 3.85 -55.2 L4.65 -54.4 Q11.2 -48.3 16.35 -41.1 18.7 -39.6 18.25 -35.95 17.9 -33.35 17.85 -30.7 17.55 -20.25 18.9 -10.05 L19.25 -6.2 26.3 -5.9 Q28.05 -5.8 28.5 -4.05 29.3 -0.7 25.75 -0.45 20.9 -0.1 16.1 -0.45 15.0 -0.55 14.4 -1.1 12.45 -2.1 12.5 -4.4 12.65 -9.65 12.05 -14.75 11.75 -17.35 11.7 -20.0 11.55 -28.55 12.05 -37.0 L11.85 -37.2 Q10.8 -38.1 9.9 -39.3 5.1 -45.65 -0.95 -50.6 L-1.0 -45.2 Q-0.8 -38.0 -3.45 -31.5 -4.2 -29.65 -5.55 -28.35 L-5.7 -28.05 -14.4 -9.4 -17.3 -3.4 Q-13.7 -2.25 -9.15 -1.8 -6.3 -1.5 -6.4 1.15 -6.45 3.85 -9.2 3.85 L-16.8 3.6 -23.05 2.6 Q-24.35 2.25 -24.6 0.95 -25.25 -2.4 -23.7 -5.5 L-20.15 -11.7 -16.05 -20.85 -14.5 -25.0 Q-13.35 -28.5 -11.0 -31.0 L-10.6 -31.95 Q-6.1 -39.9 -7.0 -49.45 L-7.25 -55.75 Q-7.2 -57.85 -6.35 -59.6 L-5.75 -60.5 -4.85 -65.3 Q-3.6 -70.35 -3.6 -75.65 L-3.4 -85.95 -3.35 -86.45 -6.45 -87.2 Q-12.15 -89.15 -17.55 -91.6 -24.2 -92.8 -28.45 -97.65 -28.95 -98.2 -28.75 -99.0 -27.7 -102.3 -24.45 -104.25 -18.3 -107.95 -11.3 -109.25 -8.0 -109.9 -4.95 -108.75 -3.4 -108.1 -2.7 -106.9 -2.15 -108.7 -1.0 -110.5 0.8 -113.35 3.95 -114.2 L6.55 -114.85 Q16.65 -115.1 19.3 -105.6 M-4.9 -100.95 Q-7.9 -99.75 -10.55 -101.45 L-12.0 -102.55 -16.65 -101.2 Q-18.55 -100.7 -19.95 -99.3 -11.45 -95.85 -2.95 -92.55 L-2.2 -98.0 Q-3.1 -99.95 -3.3 -101.95 -3.9 -101.3 -4.9 -100.95" fill="#000000" fill-rule="evenodd" stroke="none"/>
  </g>
</svg>
