<?xml version="1.0" encoding="UTF-8" standalone="no"?>
<svg xmlns:ffdec="https://www.free-decompiler.com/flash" xmlns:xlink="http://www.w3.org/1999/xlink" ffdec:objectType="shape" height="176.2px" width="126.75px" xmlns="http://www.w3.org/2000/svg">
  <g transform="matrix(1.0, 0.0, 0.0, 1.0, 56.65, 149.35)">
    <path d="M30.05 -124.65 L30.2 -124.1 Q32.05 -122.35 33.4 -124.25 39.05 -132.05 43.45 -140.85 45.15 -139.65 46.95 -140.5 L47.3 -140.9 49.1 -143.0 49.1 -143.5 49.1 -144.05 Q51.65 -145.05 51.9 -147.75 L52.45 -148.25 53.7 -149.35 Q54.25 -149.25 54.4 -147.4 54.75 -142.95 55.45 -138.4 58.95 -133.65 66.05 -134.15 60.95 -132.15 56.5 -129.55 59.15 -127.35 59.4 -122.65 59.45 -121.1 59.0 -119.95 64.95 -116.85 70.1 -112.8 62.0 -110.65 54.75 -106.6 L54.7 -105.55 Q54.6 -104.2 54.9 -102.9 L60.75 -96.05 44.9 -94.85 Q44.5 -94.8 44.15 -94.25 L44.15 -93.2 44.15 -90.55 45.35 -88.5 Q46.45 -85.65 46.25 -82.6 38.75 -85.15 31.8 -89.3 L31.15 -89.05 30.0 -88.25 30.0 -86.65 30.0 -81.9 29.3 -81.9 25.35 -85.2 20.8 -88.65 Q15.25 -93.2 9.2 -92.15 8.6 -91.2 9.1 -90.15 10.4 -87.55 10.25 -84.75 L10.8 -84.2 12.2 -82.6 Q12.35 -81.8 12.75 -81.15 L17.3 -73.05 17.3 -72.55 17.3 -72.0 17.3 -71.5 17.0 -70.95 16.6 -69.9 Q18.0 -67.15 21.35 -65.9 25.15 -64.45 28.65 -62.55 35.0 -59.15 37.6 -53.65 L37.2 -53.2 Q36.35 -52.55 36.4 -51.55 34.8 -51.3 33.75 -50.3 L33.55 -49.75 33.2 -48.7 Q30.95 -47.35 30.0 -45.0 L30.05 -43.95 30.2 -42.9 Q37.95 -40.3 45.2 -36.35 L32.15 -28.95 32.1 -27.9 Q32.0 -26.5 32.3 -25.25 40.55 -22.95 46.6 -18.7 L42.75 -15.5 42.7 -14.45 Q42.6 -13.1 42.9 -11.8 48.0 -9.25 52.25 -5.3 46.15 -3.6 40.6 -0.7 L40.6 0.35 40.6 1.95 40.95 2.5 41.3 3.0 Q41.3 3.8 41.6 4.45 42.8 7.1 44.15 9.35 36.55 9.55 27.55 9.05 26.1 8.95 25.8 10.25 L25.8 12.4 25.8 17.65 25.1 17.65 Q23.35 16.05 21.2 15.0 19.3 12.4 16.1 11.55 14.15 11.05 12.9 12.15 5.9 18.3 1.4 26.85 L-0.5 26.85 Q-1.85 25.5 -3.7 24.75 -5.15 22.35 -7.1 20.25 -9.0 18.15 -11.4 16.8 L-13.65 16.7 Q-18.1 19.3 -22.4 22.45 L-22.7 22.05 Q-23.4 20.7 -24.35 19.45 -24.25 18.6 -24.6 17.85 -26.15 14.4 -27.2 10.95 L-28.5 9.0 Q-29.35 7.4 -30.8 8.05 -36.4 10.6 -41.65 13.25 L-40.95 10.6 Q-39.5 6.45 -39.2 2.15 -35.1 -3.35 -33.85 -9.95 -32.2 -18.55 -39.9 -20.45 L-40.25 -21.05 -40.25 -21.5 Q-31.85 -27.55 -23.85 -34.05 L-23.7 -34.6 -23.65 -35.1 -23.65 -35.65 Q-29.95 -38.3 -34.05 -42.9 -26.15 -49.8 -17.45 -55.75 L-17.35 -56.85 -17.3 -58.95 Q-20.1 -61.25 -22.95 -61.6 L-21.15 -64.25 Q-16.0 -70.15 -16.6 -78.0 -17.85 -80.1 -20.45 -79.3 -23.35 -78.35 -25.6 -76.25 L-27.6 -74.5 Q-34.0 -69.2 -40.95 -69.0 -41.5 -69.95 -41.45 -71.15 -41.3 -74.55 -41.3 -78.0 L-41.85 -79.15 Q-42.15 -80.05 -43.0 -80.35 -47.8 -82.05 -52.6 -81.35 L-52.2 -82.45 Q-51.75 -84.0 -51.9 -85.6 -47.15 -91.55 -47.0 -98.85 -46.95 -99.9 -47.45 -100.55 -51.15 -104.95 -56.65 -107.35 L-51.2 -108.0 -47.7 -108.25 Q-39.45 -107.5 -34.25 -112.6 L-34.25 -113.7 -34.25 -114.75 Q-34.95 -116.15 -36.35 -116.85 L-36.4 -117.4 -36.55 -117.9 Q-38.4 -119.9 -39.9 -122.15 L-13.4 -121.1 -12.7 -121.3 -12.35 -121.5 -12.0 -121.8 Q-11.8 -122.35 -11.75 -122.9 L-11.65 -123.9 Q-12.65 -125.5 -14.65 -125.7 L-14.15 -126.25 -13.75 -126.75 -13.95 -127.75 Q-14.6 -129.3 -14.45 -131.0 L-14.85 -131.45 Q-15.65 -132.2 -16.6 -132.75 L-16.6 -133.8 -16.6 -134.85 -12.15 -135.05 Q-11.55 -135.75 -11.6 -136.65 L-11.65 -140.85 -12.0 -141.4 -12.35 -141.95 -12.35 -143.0 -12.35 -145.1 Q-9.6 -144.45 -7.2 -142.75 -4.7 -140.95 -2.5 -138.85 2.55 -134.0 7.8 -136.65 L7.95 -137.7 8.3 -139.8 9.15 -140.4 Q12.05 -143.0 13.05 -146.7 L13.45 -147.2 15.0 -148.65 16.8 -144.95 Q19.85 -137.1 21.7 -129.05 23.55 -127.3 25.45 -128.85 L25.55 -129.4 Q25.8 -130.55 26.85 -130.45 L27.0 -129.9 Q27.95 -127.1 30.0 -125.15 L30.05 -124.65" fill="#ffff00" fill-opacity="0.5019608" fill-rule="evenodd" stroke="none"/>
  </g>
</svg>
