<?xml version="1.0" encoding="UTF-8" standalone="no"?>
<svg xmlns:ffdec="https://www.free-decompiler.com/flash" xmlns:xlink="http://www.w3.org/1999/xlink" ffdec:objectType="shape" height="133.65px" width="83.05px" xmlns="http://www.w3.org/2000/svg">
  <g transform="matrix(1.0, 0.0, 0.0, 1.0, 30.1, 128.85)">
    <path d="M7.05 -128.85 Q17.15 -129.1 19.8 -119.6 20.2 -118.25 20.25 -116.75 20.6 -108.75 12.65 -106.25 10.4 -105.55 8.1 -105.45 15.35 -103.0 23.1 -102.75 L25.2 -102.8 Q27.4 -103.0 29.15 -104.6 33.25 -108.35 37.75 -111.55 L39.5 -112.95 40.35 -113.55 40.65 -114.05 Q41.15 -114.9 42.0 -115.4 L42.5 -116.1 43.8 -117.75 Q42.55 -121.55 45.25 -124.2 46.3 -125.25 47.65 -125.25 53.05 -125.45 52.95 -120.25 52.9 -116.15 49.55 -113.65 L45.75 -110.5 Q38.05 -103.65 29.6 -97.7 26.15 -95.25 22.0 -96.5 L19.85 -96.85 Q13.3 -97.1 7.0 -98.85 L4.65 -99.6 4.4 -90.35 3.8 -81.4 3.5 -78.45 Q2.85 -74.0 1.6 -69.7 L0.65 -66.7 0.65 -65.7 Q2.7 -64.25 4.2 -61.95 7.05 -57.6 10.1 -53.4 14.45 -47.45 17.6 -40.85 L17.65 -40.85 Q21.85 -39.6 20.6 -35.25 19.9 -32.7 19.85 -30.0 L19.55 -9.15 19.6 -8.9 26.55 -6.25 Q29.75 -5.1 28.75 -2.1 28.05 0.0 25.85 -0.4 L21.3 -1.25 Q17.75 -2.0 14.7 -3.6 13.45 -4.25 13.3 -5.7 13.05 -7.6 13.75 -9.15 L13.35 -18.95 Q13.05 -27.1 14.2 -34.85 L13.9 -35.15 Q13.3 -35.75 12.85 -36.5 7.9 -45.45 1.8 -53.6 L0.7 -55.05 0.7 -53.05 Q0.95 -44.25 0.1 -35.7 0.8 -34.05 -0.5 -31.55 L-5.25 -22.95 Q-9.05 -16.4 -13.95 -10.6 L-14.25 -10.2 Q-13.1 -9.05 -12.3 -7.45 L-11.7 -6.2 Q-9.95 -2.6 -6.7 -0.7 -4.65 0.55 -5.5 2.65 -6.6 5.55 -9.65 4.5 -14.75 2.65 -16.5 -2.45 -19.1 -4.6 -20.3 -7.4 -21.6 -8.3 -21.25 -10.1 L-21.2 -10.35 -21.0 -11.15 Q-20.2 -13.95 -18.1 -15.95 -11.3 -23.85 -7.2 -33.55 L-5.75 -35.95 Q-5.3 -45.85 -5.85 -55.95 L-5.85 -58.15 -5.95 -58.35 Q-7.1 -60.7 -6.45 -63.35 -5.8 -65.9 -5.5 -68.55 -5.4 -69.45 -4.9 -69.95 L-4.2 -72.85 Q-1.3 -82.7 -1.65 -93.3 L-1.6 -94.6 -1.45 -98.9 Q-5.6 -95.95 -10.6 -94.9 -17.7 -92.0 -25.35 -90.45 -29.75 -89.55 -30.05 -93.85 -30.35 -97.6 -27.2 -99.9 -20.05 -105.2 -12.6 -109.9 -10.25 -111.4 -7.75 -111.85 -1.55 -110.9 -3.3 -104.95 L-3.35 -104.7 Q-2.35 -104.6 -1.6 -104.1 -1.9 -109.75 -2.85 -115.3 L-2.8 -116.15 Q-3.15 -120.3 -0.5 -124.5 1.3 -127.35 4.45 -128.2 L7.05 -128.85 M-10.6 -103.75 Q-14.15 -100.85 -18.25 -98.8 L-18.55 -98.6 -9.1 -102.0 -7.4 -102.65 Q-8.75 -102.7 -10.45 -103.75 L-10.6 -103.75" fill="#000000" fill-rule="evenodd" stroke="none"/>
  </g>
</svg>
