<?xml version="1.0" encoding="UTF-8" standalone="no"?>
<svg xmlns:ffdec="https://www.free-decompiler.com/flash" xmlns:xlink="http://www.w3.org/1999/xlink" ffdec:objectType="shape" height="167.05px" width="117.05px" xmlns="http://www.w3.org/2000/svg">
  <g transform="matrix(1.0, 0.0, 0.0, 1.0, 40.75, 174.6)">
    <path d="M11.15 -174.6 L11.4 -174.55 Q11.65 -172.75 12.05 -171.0 12.8 -167.65 12.35 -164.0 L12.7 -163.45 13.05 -162.95 Q12.95 -162.1 13.3 -161.4 13.9 -160.15 13.95 -158.7 15.95 -157.1 18.55 -158.05 25.95 -160.7 32.15 -160.45 30.7 -157.2 30.15 -153.65 29.45 -149.25 30.2 -144.6 40.75 -143.15 49.8 -148.3 L49.8 -147.95 49.8 -147.4 49.8 -146.85 50.85 -145.7 Q51.6 -144.6 52.95 -144.7 58.55 -145.15 62.15 -148.1 61.5 -146.55 61.3 -144.9 60.95 -142.25 61.25 -139.65 69.85 -138.15 76.3 -134.5 L75.75 -134.0 Q75.1 -133.3 74.7 -132.4 70.55 -129.95 66.75 -127.1 65.25 -126.95 63.9 -126.4 L63.3 -125.45 Q62.7 -124.35 61.8 -123.4 61.8 -122.6 62.1 -121.9 62.7 -120.35 62.5 -118.65 L63.0 -118.05 63.2 -117.55 63.2 -117.05 63.2 -116.5 63.8 -116.05 Q64.65 -115.4 64.65 -114.4 L49.1 -115.35 Q46.1 -115.75 43.25 -116.65 38.0 -118.3 33.55 -116.5 L33.5 -113.85 Q33.4 -111.15 33.75 -108.55 L34.3 -108.05 Q35.0 -107.4 35.15 -106.45 33.25 -105.55 31.8 -106.8 27.25 -109.3 22.25 -110.85 L20.6 -112.35 Q15.75 -116.0 13.8 -111.9 14.5 -110.4 16.45 -110.15 18.15 -107.05 22.1 -106.8 L22.6 -106.3 24.55 -104.15 Q16.35 -100.6 9.55 -95.15 L9.6 -94.1 9.7 -93.05 Q21.15 -90.55 33.2 -89.25 34.65 -89.1 34.1 -87.9 L33.65 -87.5 Q31.7 -86.3 31.1 -84.2 L30.0 -83.15 30.05 -82.1 30.2 -81.0 Q35.95 -78.6 42.05 -78.9 L40.95 -77.85 34.95 -71.3 34.95 -70.25 34.95 -68.65 Q35.55 -67.75 36.45 -67.15 41.6 -63.35 46.1 -58.6 40.9 -56.15 36.75 -52.75 L36.05 -52.4 34.25 -50.85 34.2 -49.25 Q34.15 -48.15 34.45 -47.1 L35.35 -46.05 38.85 -41.3 Q33.15 -39.55 30.0 -35.1 29.9 -34.0 30.25 -33.0 30.95 -31.0 30.9 -28.75 32.35 -27.5 32.55 -25.65 32.9 -22.7 33.55 -19.75 24.5 -22.25 20.15 -15.35 L20.1 -13.75 Q20.1 -12.7 19.45 -12.15 L16.85 -15.8 Q16.1 -16.9 15.0 -16.65 7.05 -14.75 2.3 -7.55 L1.7 -7.75 Q1.5 -7.85 1.4 -8.1 0.55 -10.05 -1.4 -10.7 -7.3 -12.65 -12.35 -12.5 -11.85 -13.25 -11.75 -14.1 L-11.65 -17.3 Q-17.1 -20.05 -22.95 -21.35 -20.9 -21.85 -19.05 -22.95 L-18.75 -23.5 -18.55 -24.0 Q-17.75 -24.25 -17.05 -24.7 L-14.1 -26.45 Q-13.75 -27.25 -13.75 -28.05 L-13.75 -30.7 -14.15 -31.2 Q-18.35 -35.45 -23.45 -38.65 -22.75 -39.2 -22.0 -39.35 -16.5 -40.65 -13.05 -44.3 -13.2 -45.95 -14.6 -46.95 -20.0 -50.85 -24.35 -55.4 L-24.1 -55.85 Q-20.5 -58.7 -17.3 -61.8 L-17.3 -62.85 -17.3 -63.9 Q-17.8 -64.8 -18.65 -65.25 -26.55 -69.4 -32.85 -74.65 L-32.4 -75.7 Q-31.25 -78.3 -29.1 -79.95 L-28.5 -80.95 Q-27.1 -82.65 -26.3 -84.75 -25.0 -85.2 -24.55 -86.3 L-24.45 -87.4 Q-24.35 -89.65 -22.4 -91.1 L-22.3 -91.6 -22.25 -92.15 Q-21.8 -92.4 -21.45 -92.75 L-20.8 -93.75 Q-22.15 -97.0 -26.45 -96.2 L-25.65 -97.05 Q-18.75 -101.55 -11.45 -105.4 L-11.15 -105.9 -9.55 -108.55 -9.95 -109.15 -40.75 -112.8 -40.4 -113.05 Q-38.95 -113.7 -37.6 -114.55 -36.7 -116.3 -35.45 -117.85 L-34.75 -118.55 Q-29.2 -122.5 -29.3 -128.85 L-29.9 -129.95 -32.1 -134.15 -32.1 -134.7 -32.1 -135.75 Q-28.25 -138.2 -28.1 -143.15 L-27.9 -158.55 Q-23.95 -157.15 -19.8 -157.9 -18.1 -158.2 -18.0 -159.75 L-16.4 -160.45 Q-15.8 -162.25 -14.75 -163.7 -11.75 -167.95 -8.1 -171.05 L-7.85 -170.05 -6.7 -167.9 -6.7 -167.35 -6.7 -166.8 -6.3 -166.3 Q-5.8 -165.75 -5.3 -165.8 4.5 -166.35 11.15 -174.6" fill="#ffff00" fill-opacity="0.5019608" fill-rule="evenodd" stroke="none"/>
  </g>
</svg>
