<?xml version="1.0" encoding="UTF-8" standalone="no"?>
<svg xmlns:ffdec="https://www.free-decompiler.com/flash" xmlns:xlink="http://www.w3.org/1999/xlink" ffdec:objectType="shape" height="135.6px" width="78.4px" xmlns="http://www.w3.org/2000/svg">
  <g transform="matrix(1.0, 0.0, 0.0, 1.0, 22.4, 151.4)">
    <path d="M6.35 -150.9 Q16.45 -151.15 19.1 -141.65 19.5 -140.3 19.55 -138.8 19.8 -133.0 15.75 -130.1 L22.9 -129.85 Q28.95 -129.5 34.6 -131.75 L42.5 -134.5 Q45.95 -135.6 49.15 -137.25 49.75 -140.05 52.6 -140.4 L52.6 -140.45 Q57.35 -139.35 55.45 -134.7 54.05 -131.45 50.4 -130.4 L46.5 -129.25 33.45 -124.8 Q31.9 -124.2 30.15 -123.95 22.55 -122.9 14.8 -123.55 L5.7 -124.2 Q6.1 -116.1 5.8 -107.85 L5.3 -90.9 Q7.5 -89.65 9.35 -87.65 L16.95 -79.5 17.75 -78.65 21.4 -74.75 22.55 -73.85 Q27.05 -70.95 27.65 -66.05 L27.65 -65.0 Q26.85 -59.1 23.55 -53.9 21.7 -49.25 18.75 -45.0 L17.9 -43.55 16.95 -42.25 16.75 -41.45 16.4 -40.4 Q17.4 -39.4 19.45 -38.65 23.8 -37.0 23.5 -33.0 23.4 -31.75 22.15 -31.35 18.75 -30.25 16.0 -32.9 14.55 -34.25 12.6 -34.75 7.7 -35.95 9.35 -40.55 12.1 -48.25 17.4 -54.6 L20.65 -62.45 Q21.1 -63.5 21.2 -64.65 L21.3 -66.0 7.8 -79.55 4.6 -83.0 4.5 -81.55 4.0 -76.35 Q3.45 -66.1 1.7 -55.95 1.2 -53.15 1.4 -50.4 1.8 -45.25 2.75 -40.25 L3.5 -36.65 Q4.6 -31.9 4.4 -26.8 4.3 -24.3 2.75 -22.4 0.7 -19.85 -0.6 -16.85 -0.95 -15.95 -1.9 -15.85 -6.1 -15.3 -5.65 -19.45 -5.4 -22.05 -4.1 -24.4 L-3.25 -25.8 -2.05 -27.4 Q-2.2 -32.4 -3.1 -37.2 -4.6 -44.8 -4.9 -52.6 L-4.75 -55.25 -3.25 -65.3 Q-2.75 -69.4 -2.4 -73.5 L-1.5 -85.4 -1.45 -85.6 -1.4 -87.65 Q-0.8 -90.75 -0.7 -94.0 -0.35 -104.25 -0.15 -114.65 -0.05 -118.75 -0.25 -122.8 -7.1 -121.3 -13.7 -118.65 -15.8 -117.85 -18.0 -118.0 -21.15 -118.2 -21.7 -121.35 -22.8 -127.85 -22.2 -134.35 -21.7 -139.25 -19.7 -143.5 -18.6 -145.8 -17.1 -147.95 -15.2 -150.6 -12.35 -151.4 -7.55 -151.2 -8.05 -146.35 -8.5 -141.75 -13.25 -141.65 L-13.65 -140.85 -14.55 -139.3 Q-15.55 -135.95 -15.8 -132.4 -15.85 -131.25 -16.35 -130.3 -15.9 -128.85 -16.05 -127.35 -16.1 -126.15 -15.7 -125.0 -12.15 -125.5 -8.45 -126.95 -4.6 -128.45 -0.65 -129.0 L-0.9 -131.45 Q-6.1 -138.85 -1.2 -146.55 0.6 -149.4 3.75 -150.25 L6.35 -150.9" fill="#000000" fill-rule="evenodd" stroke="none"/>
  </g>
</svg>
