<?xml version="1.0" encoding="UTF-8" standalone="no"?>
<svg xmlns:ffdec="https://www.free-decompiler.com/flash" xmlns:xlink="http://www.w3.org/1999/xlink" ffdec:objectType="shape" height="124.3px" width="79.85px" xmlns="http://www.w3.org/2000/svg">
  <g transform="matrix(1.0, 0.0, 0.0, 1.0, 23.45, 159.55)">
    <path d="M56.1 -152.3 Q55.65 -150.65 54.45 -149.4 53.0 -147.9 51.05 -147.0 42.15 -143.1 33.65 -138.4 28.8 -135.7 23.8 -133.15 15.75 -129.05 8.05 -124.55 L7.0 -124.2 Q5.85 -116.2 5.75 -107.95 5.65 -101.55 5.15 -95.25 L5.05 -93.05 Q14.2 -92.6 23.25 -90.7 28.15 -89.7 31.95 -86.7 33.35 -85.6 33.4 -83.75 33.85 -73.1 29.6 -63.5 L24.65 -53.05 Q27.75 -51.15 31.7 -50.25 33.25 -49.9 33.7 -48.4 34.8 -44.95 31.05 -44.35 29.7 -44.15 28.7 -45.0 23.8 -46.2 19.2 -48.2 18.0 -48.75 17.9 -50.05 17.6 -55.55 20.6 -60.2 22.9 -63.75 24.35 -67.8 25.65 -71.5 26.55 -75.2 L26.55 -76.25 26.7 -77.3 26.95 -79.7 26.9 -82.35 Q21.35 -85.2 15.05 -85.95 L5.85 -86.85 5.8 -86.65 4.55 -80.9 Q3.25 -75.75 3.3 -70.5 3.4 -62.5 6.0 -54.9 7.9 -49.25 8.8 -43.45 9.1 -41.5 7.65 -40.1 L7.05 -39.55 Q4.95 -34.8 0.2 -35.3 -0.75 -35.4 -1.1 -36.35 -2.35 -39.7 0.7 -42.2 1.8 -43.05 2.55 -44.2 -0.5 -53.5 -2.5 -63.35 L-2.95 -65.9 Q-3.8 -71.0 -2.65 -75.9 -1.6 -80.3 -1.25 -84.75 L-1.2 -85.4 Q-1.7 -86.75 -1.6 -88.3 L-1.15 -97.3 -0.85 -102.6 Q-0.25 -109.55 -0.1 -116.6 -0.05 -119.8 0.4 -122.85 -8.3 -121.8 -16.8 -119.9 -19.1 -119.4 -21.25 -120.3 -23.55 -121.25 -23.45 -123.8 -23.2 -128.4 -23.35 -133.05 -23.55 -138.25 -21.55 -142.95 L-20.65 -145.2 Q-18.1 -151.95 -11.8 -155.3 L-10.95 -155.65 Q-6.1 -155.05 -6.85 -150.1 -7.7 -144.35 -13.6 -145.5 L-14.2 -144.2 -14.95 -142.85 -16.4 -136.95 Q-17.25 -133.35 -17.1 -129.6 L-17.05 -126.95 -8.45 -127.95 1.75 -129.05 2.8 -132.3 Q1.0 -133.1 -0.3 -134.75 -6.35 -142.5 -1.2 -150.65 0.6 -153.5 3.75 -154.35 L6.35 -155.0 Q16.45 -155.25 19.1 -145.75 19.5 -144.4 19.55 -142.9 19.7 -139.7 18.5 -137.35 L34.8 -146.0 39.05 -148.3 47.25 -152.45 Q47.35 -158.05 52.6 -159.55 57.45 -157.7 56.1 -152.3" fill="#000000" fill-rule="evenodd" stroke="none"/>
  </g>
</svg>
