<?xml version="1.0" encoding="UTF-8" standalone="no"?>
<svg xmlns:ffdec="https://www.free-decompiler.com/flash" xmlns:xlink="http://www.w3.org/1999/xlink" ffdec:objectType="shape" height="160.45px" width="115.5px" xmlns="http://www.w3.org/2000/svg">
  <g transform="matrix(1.0, 0.0, 0.0, 1.0, 44.5, 176.7)">
    <path d="M42.35 -166.3 Q46.6 -172.05 52.8 -176.7 53.75 -175.5 53.95 -172.35 L54.2 -164.35 Q62.05 -162.7 71.0 -163.3 L67.65 -159.35 Q61.4 -151.45 61.25 -141.75 66.8 -139.8 69.4 -135.95 L68.05 -135.15 Q54.1 -130.1 39.2 -127.8 L38.85 -127.45 38.6 -126.9 38.5 -126.4 Q38.65 -125.85 39.05 -125.6 43.0 -122.6 46.25 -119.15 L45.55 -118.65 24.0 -116.4 18.05 -116.2 Q13.25 -116.45 12.35 -112.6 L12.65 -112.25 Q14.45 -111.15 15.9 -110.85 L15.9 -110.35 15.95 -109.8 16.05 -109.25 Q22.45 -108.25 28.1 -105.4 L27.2 -104.9 Q25.4 -104.05 24.9 -102.2 L24.05 -101.8 22.95 -100.95 22.95 -100.45 22.9 -99.9 22.8 -99.4 22.35 -98.8 22.25 -98.3 22.25 -97.8 Q22.6 -97.25 23.0 -97.2 L39.0 -95.75 41.3 -95.3 40.25 -94.25 34.25 -87.9 34.3 -86.3 34.45 -85.25 Q39.6 -82.9 45.55 -83.3 L45.9 -82.95 46.2 -82.4 46.25 -81.9 Q41.85 -79.75 38.85 -76.1 L37.85 -75.45 Q36.45 -74.5 35.65 -73.05 L35.7 -71.5 35.85 -70.45 36.45 -70.05 Q37.6 -69.55 38.65 -69.2 44.65 -63.75 52.1 -60.55 47.05 -59.3 42.75 -56.15 L42.55 -52.95 Q42.1 -49.25 44.7 -46.6 L44.8 -45.55 44.85 -44.45 Q40.1 -44.25 37.1 -40.95 L36.9 -35.6 36.2 -27.0 Q35.0 -28.55 33.15 -28.9 25.9 -30.25 21.2 -23.45 L20.35 -23.45 20.15 -23.65 19.0 -29.55 Q18.2 -32.9 15.4 -34.85 L14.05 -35.0 Q8.05 -29.25 2.5 -22.6 L2.5 -22.05 2.45 -21.55 2.3 -21.0 1.25 -19.9 -2.3 -16.25 Q-2.1 -19.35 -3.45 -22.1 -4.0 -23.2 -4.95 -23.5 -11.95 -25.6 -18.7 -24.7 -16.95 -26.45 -15.6 -28.5 -12.95 -32.6 -13.75 -37.75 L-14.15 -38.25 Q-18.85 -42.3 -24.9 -44.3 -21.55 -46.4 -17.6 -48.45 -16.1 -49.25 -15.05 -50.45 -10.35 -55.9 -17.05 -59.3 L-18.35 -60.0 Q-23.2 -63.0 -25.4 -66.9 -24.05 -67.5 -22.95 -68.5 -21.45 -68.65 -20.45 -69.55 -14.35 -75.35 -22.05 -81.2 L-21.15 -81.55 Q-18.05 -82.7 -16.05 -85.45 -15.95 -86.6 -15.1 -87.5 L-8.1 -94.95 Q-8.0 -95.8 -8.55 -96.2 -13.95 -100.2 -21.55 -100.95 -19.95 -102.35 -18.0 -103.05 -13.0 -104.95 -11.65 -109.1 -12.2 -110.2 -13.4 -110.25 L-44.5 -111.05 Q-36.5 -116.8 -29.3 -123.2 L-29.25 -125.35 Q-29.2 -126.45 -29.65 -127.45 -30.65 -128.05 -31.35 -128.95 L-37.05 -135.95 -35.4 -136.95 Q-33.55 -138.4 -32.3 -140.5 L-32.2 -141.6 -32.25 -144.8 Q-32.75 -150.05 -36.2 -153.75 L-36.65 -155.3 Q-37.1 -156.35 -36.9 -157.3 -31.5 -154.35 -27.35 -158.15 L-26.5 -163.05 Q-25.7 -166.65 -25.05 -170.35 L-24.6 -170.25 -22.75 -169.3 -22.45 -168.75 Q-21.55 -167.0 -19.6 -166.1 L-19.45 -165.6 Q-19.1 -164.3 -17.65 -164.2 -16.55 -164.5 -15.6 -165.15 -9.95 -168.95 -6.15 -174.6 L-4.95 -174.7 -4.75 -174.6 -4.2 -172.65 Q-3.7 -171.1 -3.9 -169.45 L-3.35 -168.95 -2.45 -167.9 -2.45 -167.35 -2.45 -166.8 -2.1 -166.3 -1.75 -165.75 -1.75 -165.25 -1.7 -164.75 -1.4 -164.2 -0.75 -163.6 -0.35 -163.1 -0.35 -162.6 -0.3 -162.05 -0.15 -161.55 Q1.0 -160.25 2.45 -161.2 7.2 -164.25 12.2 -165.95 12.45 -164.9 13.0 -163.95 14.05 -162.3 13.8 -160.3 L14.25 -159.7 14.5 -159.25 14.5 -158.7 14.5 -158.15 14.95 -157.6 Q15.2 -157.1 15.55 -157.0 19.6 -155.35 21.55 -160.3 L22.25 -159.75 22.3 -159.25 22.45 -158.7 23.0 -158.25 Q25.15 -157.1 26.85 -158.55 L27.55 -160.0 Q29.6 -163.25 32.15 -165.95 33.3 -164.9 34.05 -163.55 37.55 -157.35 40.35 -163.05 L42.35 -166.3" fill="#ffff00" fill-opacity="0.5019608" fill-rule="evenodd" stroke="none"/>
  </g>
</svg>
