<?xml version="1.0" encoding="UTF-8" standalone="no"?>
<svg xmlns:ffdec="https://www.free-decompiler.com/flash" xmlns:xlink="http://www.w3.org/1999/xlink" ffdec:objectType="shape" height="123.65px" width="73.3px" xmlns="http://www.w3.org/2000/svg">
  <g transform="matrix(1.0, 0.0, 0.0, 1.0, 22.9, 157.4)">
    <path d="M50.3 -152.4 Q49.85 -149.55 47.6 -147.7 39.7 -141.1 32.2 -134.0 L24.95 -127.5 Q17.25 -120.9 8.4 -116.1 7.45 -115.6 6.65 -115.4 6.2 -107.45 6.35 -99.3 6.45 -93.35 5.95 -87.45 L24.2 -87.1 Q25.75 -87.05 26.2 -85.55 26.9 -83.05 26.6 -80.35 L26.1 -75.05 Q25.5 -64.75 23.7 -54.65 L22.85 -50.15 Q22.95 -49.8 23.45 -49.7 28.65 -48.6 33.25 -46.25 33.85 -45.9 33.95 -45.2 34.4 -40.65 29.9 -41.6 L25.0 -42.6 Q20.8 -43.55 17.45 -46.05 16.0 -47.1 16.4 -49.0 18.2 -57.9 19.35 -66.95 L19.8 -73.6 Q19.8 -77.4 20.55 -81.05 L5.45 -81.5 4.85 -80.6 Q2.3 -76.0 -1.7 -72.4 0.0 -64.25 3.1 -56.3 L5.55 -49.35 Q9.4 -44.0 5.2 -39.1 L2.0 -35.5 Q-1.25 -31.9 -4.05 -35.65 -4.75 -36.65 -4.15 -37.8 -3.05 -40.05 -1.0 -41.6 -0.9 -42.45 -0.3 -43.15 L0.7 -44.2 0.55 -44.75 0.45 -45.3 0.45 -45.55 Q-2.0 -51.05 -3.9 -56.9 L-4.5 -59.05 Q-6.3 -62.9 -7.4 -67.2 -8.25 -70.45 -8.05 -73.85 -7.95 -75.5 -6.7 -76.7 -2.8 -80.5 0.55 -84.85 L0.35 -85.45 0.1 -88.0 Q0.1 -98.5 0.4 -108.95 L0.4 -115.5 -8.15 -116.15 Q-14.2 -117.1 -19.75 -119.15 -23.4 -120.55 -22.8 -124.7 -22.35 -127.9 -22.6 -131.05 L-22.75 -137.35 Q-22.65 -141.1 -21.6 -144.55 -20.85 -147.2 -19.25 -149.45 -16.65 -153.15 -12.35 -154.25 -6.7 -153.65 -8.45 -148.25 -8.9 -146.9 -10.15 -146.2 L-13.8 -146.1 Q-17.65 -138.95 -16.65 -130.7 -16.25 -127.7 -16.35 -124.65 -8.15 -122.1 0.65 -121.5 L1.05 -123.75 -0.75 -125.5 Q-6.8 -133.25 -1.65 -141.4 0.15 -144.25 3.3 -145.1 L5.9 -145.75 Q16.0 -146.0 18.65 -136.5 19.05 -135.15 19.1 -133.65 L18.9 -130.65 Q23.95 -134.95 28.55 -139.8 29.55 -140.9 31.0 -141.45 36.05 -146.55 41.65 -150.95 41.3 -154.0 43.2 -156.25 44.2 -157.35 45.55 -157.4 51.15 -157.6 50.3 -152.4" fill="#000000" fill-rule="evenodd" stroke="none"/>
  </g>
</svg>
