<?xml version="1.0" encoding="UTF-8" standalone="no"?>
<svg xmlns:ffdec="https://www.free-decompiler.com/flash" xmlns:xlink="http://www.w3.org/1999/xlink" ffdec:objectType="shape" height="176.05px" width="123.6px" xmlns="http://www.w3.org/2000/svg">
  <g transform="matrix(1.0, 0.0, 0.0, 1.0, 52.6, 159.25)">
    <path d="M70.3 -149.7 L70.85 -149.55 71.0 -149.15 Q70.5 -146.35 68.45 -144.1 65.15 -140.5 62.85 -136.45 L62.2 -135.9 61.8 -135.4 61.8 -134.85 61.8 -134.35 61.85 -133.8 62.0 -133.3 64.5 -131.6 Q67.15 -129.45 69.05 -126.75 L67.7 -125.85 Q55.9 -119.6 44.15 -113.7 43.95 -109.25 46.75 -105.7 49.7 -101.9 52.1 -97.8 33.4 -91.0 13.15 -88.5 L12.35 -87.9 12.35 -87.4 12.4 -86.3 12.55 -85.25 13.1 -84.8 14.15 -84.35 Q21.5 -84.85 29.15 -84.0 28.0 -83.5 27.0 -82.75 L26.15 -81.9 Q24.7 -81.75 23.4 -81.2 L21.35 -80.3 Q17.4 -78.65 16.6 -74.5 24.35 -69.85 34.25 -70.6 31.85 -69.4 30.65 -67.1 29.15 -64.2 27.2 -61.8 L27.2 -61.25 27.25 -60.2 27.35 -59.15 Q36.25 -58.1 43.1 -54.7 41.95 -53.15 40.45 -52.05 36.15 -48.8 32.15 -45.2 L32.15 -44.65 32.15 -42.0 32.15 -40.4 Q32.95 -38.45 34.15 -36.65 L37.1 -32.45 34.65 -31.8 33.9 -31.4 33.7 -30.35 Q33.55 -27.7 33.55 -25.05 L33.55 -19.75 Q34.65 -18.35 35.2 -16.65 L35.85 -13.95 36.45 -13.5 Q36.9 -13.2 37.4 -13.0 L37.45 -12.9 37.6 -12.5 Q37.5 -11.5 35.8 -10.9 L34.25 -9.85 Q33.9 -6.0 34.55 -2.4 35.35 1.85 36.4 4.95 33.8 3.15 30.65 2.35 L27.8 2.45 Q21.75 4.8 17.15 9.0 15.2 4.2 11.8 0.35 10.5 -1.1 8.7 -0.45 4.55 1.15 1.75 4.6 1.9 6.55 0.6 8.0 L-2.45 11.5 Q-2.8 13.15 -3.85 14.6 L-5.3 16.8 Q-6.1 13.9 -8.15 11.85 -8.9 11.15 -9.8 11.0 -22.1 8.9 -32.5 11.85 L-32.3 11.3 Q-32.0 10.05 -32.1 8.65 L-32.1 7.1 -31.75 6.55 -31.4 6.0 Q-30.05 -1.85 -37.9 -4.4 -42.4 -5.85 -43.95 -7.2 -42.9 -8.15 -41.5 -8.45 -39.2 -8.9 -37.4 -10.2 L-37.3 -10.75 -36.6 -12.9 Q-36.25 -13.65 -36.35 -14.45 L-36.7 -15.0 -37.05 -15.5 Q-36.65 -18.4 -38.55 -20.55 -42.2 -24.6 -46.4 -28.25 -36.8 -27.65 -27.55 -28.6 -26.45 -31.7 -28.3 -34.5 -31.35 -39.05 -35.3 -42.35 L-35.5 -42.9 Q-35.75 -43.75 -36.35 -44.5 L-37.05 -45.55 -36.85 -46.0 -36.35 -46.6 -23.15 -47.45 Q-20.35 -47.7 -18.7 -49.75 L-18.7 -50.3 -18.7 -52.4 Q-18.7 -53.25 -19.05 -54.0 -20.35 -54.45 -20.95 -55.55 -21.55 -56.65 -22.75 -57.2 -23.25 -58.45 -24.25 -59.4 -25.9 -61.0 -27.7 -62.15 L-25.2 -63.1 Q-19.15 -65.25 -15.15 -70.25 L-15.1 -71.3 Q-14.8 -73.45 -16.4 -74.55 -21.75 -78.15 -25.95 -81.9 -24.65 -82.75 -23.9 -84.05 -22.85 -85.75 -20.8 -86.15 L-20.5 -86.5 -19.6 -87.55 -18.7 -88.6 -18.6 -89.1 Q-17.7 -91.1 -17.85 -93.4 L-18.0 -97.1 -18.4 -97.6 -18.95 -98.05 -19.75 -98.5 Q-30.55 -97.75 -40.6 -99.4 L-38.45 -103.6 Q-36.95 -106.45 -35.15 -108.9 L-35.0 -109.45 -34.95 -109.95 -34.95 -110.5 -35.95 -111.3 -38.05 -112.25 Q-45.05 -115.15 -51.55 -118.65 L-51.85 -119.0 -52.15 -119.45 -52.6 -120.05 Q-50.25 -120.5 -48.15 -121.5 -44.5 -123.2 -43.4 -126.9 -40.7 -129.65 -41.75 -133.2 L-44.15 -140.7 -43.1 -141.05 -42.75 -141.25 -42.35 -141.6 Q-41.75 -145.5 -41.9 -149.55 -42.05 -153.55 -41.3 -157.45 -38.55 -155.65 -37.0 -152.9 -35.45 -150.25 -32.1 -152.1 L-18.35 -159.25 Q-17.6 -154.5 -18.45 -148.3 -19.05 -143.9 -18.7 -139.3 L-19.05 -138.75 -19.4 -138.2 -19.4 -137.7 -19.4 -137.15 -19.35 -136.65 -19.25 -136.1 Q-17.15 -134.4 -14.7 -135.9 -8.0 -140.05 -0.5 -143.0 L-0.2 -142.45 0.8 -139.75 1.05 -137.7 1.55 -137.1 1.75 -136.65 1.75 -136.1 1.75 -135.55 1.75 -135.05 Q3.65 -131.9 6.35 -134.0 9.95 -136.7 11.5 -140.85 L13.1 -141.9 13.95 -142.45 15.9 -140.2 Q16.6 -139.35 16.8 -138.2 L17.35 -137.75 18.35 -137.15 Q18.9 -135.55 20.5 -135.35 25.6 -134.75 26.65 -139.8 L27.2 -140.35 28.45 -140.0 28.65 -139.5 29.45 -138.55 Q30.0 -138.15 30.75 -137.85 L30.95 -137.55 Q31.15 -137.25 31.5 -137.1 31.95 -136.8 32.5 -136.65 L33.2 -136.8 Q36.5 -139.85 38.7 -143.85 40.8 -147.7 41.85 -151.8 42.55 -147.6 45.65 -144.8 L46.5 -144.3 Q59.1 -142.0 70.3 -149.7" fill="#ffff00" fill-opacity="0.5019608" fill-rule="evenodd" stroke="none"/>
  </g>
</svg>
