<?xml version="1.0" encoding="UTF-8" standalone="no"?>
<svg xmlns:ffdec="https://www.free-decompiler.com/flash" xmlns:xlink="http://www.w3.org/1999/xlink" ffdec:objectType="shape" height="143.7px" width="81.65px" xmlns="http://www.w3.org/2000/svg">
  <g transform="matrix(1.0, 0.0, 0.0, 1.0, 33.2, 138.7)">
    <path d="M23.3 -101.85 L23.3 -108.4 Q26.2 -109.45 28.15 -111.8 L35.4 -121.2 Q37.45 -123.95 39.05 -126.95 L40.8 -130.8 Q39.8 -133.35 41.1 -135.7 41.9 -137.2 43.45 -137.25 47.9 -138.05 48.4 -134.05 48.8 -130.65 46.8 -127.8 45.7 -126.3 44.95 -124.6 44.55 -123.75 43.8 -123.25 40.8 -116.7 35.95 -111.15 32.85 -107.65 29.45 -104.55 27.9 -103.2 25.9 -102.6 L23.3 -101.85 M0.85 -83.9 Q0.6 -81.4 0.65 -78.9 0.75 -73.9 0.35 -68.95 4.25 -66.85 7.85 -63.95 L12.35 -60.4 Q17.1 -56.8 21.5 -52.45 24.1 -49.85 23.9 -45.85 23.65 -40.65 22.95 -35.6 L21.75 -28.85 18.25 -13.3 Q22.35 -11.15 26.55 -9.15 27.55 -8.65 27.55 -7.55 27.6 -3.3 23.2 -4.45 18.45 -5.7 14.2 -8.35 10.7 -10.55 11.85 -14.6 L12.35 -16.3 Q12.95 -18.15 12.85 -20.1 12.8 -22.25 14.1 -23.8 15.2 -30.1 16.55 -36.3 L17.65 -42.85 Q18.0 -46.5 15.95 -49.25 9.0 -54.8 1.85 -60.05 L2.0 -58.7 2.95 -48.35 Q3.15 -43.0 1.95 -38.1 L1.6 -37.5 Q-5.1 -29.55 -10.5 -20.7 L-11.25 -19.5 -12.8 -17.1 Q-14.05 -13.2 -15.8 -9.45 L-16.05 -8.65 Q-11.85 -3.25 -6.1 0.7 -5.55 1.1 -5.6 1.75 -5.9 6.05 -10.35 4.7 -12.4 4.1 -14.0 2.6 -18.95 -1.85 -22.7 -7.0 L-22.8 -7.65 Q-22.05 -12.9 -19.35 -17.6 L-18.7 -18.95 Q-16.65 -23.7 -13.75 -27.9 -8.9 -34.95 -3.45 -41.55 -3.4 -51.35 -4.55 -60.9 -4.85 -63.2 -4.45 -65.3 -4.95 -65.85 -5.25 -66.8 -5.65 -68.05 -5.65 -69.35 -5.95 -79.85 -4.9 -90.0 L-3.85 -98.35 2.65 -98.35 0.85 -83.9 M-32.75 -135.3 Q-32.55 -136.6 -31.55 -137.55 -30.4 -138.65 -28.95 -138.7 -23.05 -138.55 -23.4 -133.15 -23.5 -131.2 -25.3 -130.45 -26.1 -130.1 -26.95 -129.85 L-26.95 -129.6 -26.95 -129.05 -26.95 -128.5 -25.6 -126.7 Q-24.65 -125.8 -24.45 -124.55 L-19.15 -115.8 Q-18.45 -114.7 -18.2 -113.45 L-6.0 -108.2 -6.0 -101.5 -6.35 -101.65 Q-14.2 -105.15 -22.2 -108.35 -23.0 -108.65 -23.35 -109.45 -25.8 -115.75 -30.05 -121.2 -33.4 -125.6 -33.2 -131.05 L-32.75 -135.3" fill="#000000" fill-rule="evenodd" stroke="none"/>
    <path d="M21.6 -107.9 L23.3 -108.4 23.3 -101.85 12.45 -98.65 11.25 -98.35 Q9.35 -98.0 7.5 -98.35 L6.6 -98.55 6.05 -98.7 3.5 -98.95 2.8 -99.15 2.65 -98.35 -3.85 -98.35 -3.6 -100.1 -4.45 -100.6 -6.0 -101.5 -6.0 -108.2 -2.55 -106.7 -2.3 -108.3 Q-6.1 -115.0 -1.7 -122.0 0.1 -124.85 3.25 -125.7 L5.85 -126.35 Q15.95 -126.6 18.6 -117.1 L19.05 -114.25 Q19.3 -108.55 15.35 -105.65 17.65 -106.35 19.9 -107.35 L21.6 -107.9" fill="#000000" fill-rule="evenodd" stroke="none"/>
  </g>
</svg>
