<?xml version="1.0" encoding="UTF-8" standalone="no"?>
<svg xmlns:ffdec="https://www.free-decompiler.com/flash" xmlns:xlink="http://www.w3.org/1999/xlink" ffdec:objectType="shape" height="163.85px" width="117.25px" xmlns="http://www.w3.org/2000/svg">
  <g transform="matrix(1.0, 0.0, 0.0, 1.0, 62.15, 137.7)">
    <path d="M36.4 -127.45 L36.4 -126.4 Q41.5 -122.2 48.4 -125.35 L48.35 -123.15 Q47.4 -117.2 47.7 -111.05 L48.4 -109.95 48.4 -109.45 48.4 -108.9 Q51.95 -105.15 55.1 -103.25 51.35 -100.85 48.4 -97.45 L48.4 -96.9 48.4 -95.3 49.1 -94.25 49.1 -93.75 49.1 -93.2 Q51.8 -91.1 52.25 -87.9 53.7 -86.6 54.55 -84.75 L39.55 -83.95 38.85 -83.65 38.7 -83.15 Q38.85 -78.75 37.6 -74.65 L37.1 -74.15 Q32.3 -74.85 27.9 -77.5 24.6 -81.3 20.85 -79.1 L20.9 -77.5 Q21.3 -71.75 18.35 -67.45 16.95 -72.35 13.25 -75.35 L13.15 -75.75 13.05 -77.3 Q12.5 -78.45 11.3 -78.7 10.45 -78.65 9.9 -78.0 L9.7 -77.45 9.55 -74.3 Q13.25 -71.4 12.2 -66.9 9.8 -62.75 6.7 -58.95 6.6 -57.6 6.9 -56.3 22.15 -51.85 38.3 -49.4 33.9 -46.05 30.75 -41.45 L30.75 -40.95 30.75 -38.8 Q36.0 -33.85 42.55 -30.65 45.4 -29.25 45.55 -27.35 38.25 -24.0 32.85 -18.0 32.75 -16.65 33.0 -15.35 40.05 -12.8 47.85 -12.5 L49.25 -11.45 Q48.7 -10.05 47.7 -9.0 L47.7 -8.45 47.7 -7.95 46.95 -6.85 46.95 -6.35 46.95 -4.2 Q50.15 -1.3 52.6 2.15 L41.7 2.9 Q41.3 2.95 40.95 3.2 40.4 4.15 40.5 5.3 41.0 11.35 41.85 17.3 L40.7 16.4 Q35.8 10.55 30.75 15.75 30.85 16.8 30.55 17.85 28.3 20.6 26.15 22.25 24.9 18.0 21.6 14.8 L18.6 11.85 Q13.25 6.25 7.4 9.55 L7.45 10.6 Q7.65 14.4 7.05 18.05 L6.0 18.05 0.7 13.3 Q-3.6 9.15 -7.4 11.65 L-7.45 12.2 Q-8.85 19.95 -13.4 26.15 L-14.45 24.75 -14.45 24.2 -14.45 23.7 -18.75 17.35 Q-19.15 16.8 -19.65 16.7 -28.0 15.25 -35.65 17.85 -35.65 13.35 -36.3 8.95 -37.5 0.7 -46.95 0.7 -43.0 -2.25 -39.7 -5.65 -33.45 -8.65 -33.0 -14.8 -35.9 -17.35 -37.6 -20.65 -29.65 -19.8 -23.3 -23.65 -22.55 -29.5 -27.7 -33.15 -28.8 -34.45 -28.25 -35.1 -26.9 -36.65 -24.9 -37.15 -17.1 -39.1 -13.75 -45.55 -18.1 -50.1 -23.3 -53.5 L-24.7 -55.6 -22.5 -57.3 Q-21.95 -57.7 -21.4 -57.9 -14.05 -60.25 -15.0 -66.2 L-21.9 -71.15 -21.2 -71.65 Q-19.4 -74.55 -16.75 -76.95 L-16.25 -78.55 Q-14.0 -79.75 -13.75 -82.25 L-14.65 -82.8 Q-25.15 -83.1 -35.65 -80.65 -35.8 -81.75 -35.4 -82.75 -32.6 -89.1 -33.55 -96.4 -36.25 -99.1 -40.25 -98.4 L-54.35 -97.95 Q-53.05 -101.75 -50.5 -104.85 L-50.45 -105.4 Q-50.0 -107.8 -49.95 -110.15 -55.45 -113.7 -62.15 -115.25 -56.45 -118.05 -51.35 -121.45 -51.05 -123.0 -51.2 -124.65 -55.35 -128.85 -59.15 -133.65 L-58.25 -133.65 -55.1 -131.7 Q-40.9 -124.45 -31.25 -135.55 L-29.5 -135.4 Q-29.2 -134.1 -29.3 -132.75 -26.95 -128.8 -25.05 -124.3 -25.5 -119.2 -20.45 -119.85 -17.45 -122.0 -15.0 -124.45 L-11.65 -126.55 -11.65 -125.0 Q-11.8 -119.9 -11.45 -114.9 L-9.9 -114.05 -9.15 -114.2 -7.05 -116.15 Q-5.2 -120.2 -2.3 -123.55 4.6 -121.4 11.3 -121.8 11.75 -122.8 11.65 -123.9 L11.25 -124.4 Q6.0 -130.2 5.3 -137.7 9.6 -136.5 14.4 -134.4 16.45 -133.55 18.2 -132.4 24.45 -128.35 31.1 -129.55 31.4 -130.75 32.15 -131.7 L32.1 -132.2 Q32.0 -133.0 32.3 -133.3 L33.55 -132.2 Q34.0 -129.55 36.4 -128.0 L36.4 -127.45" fill="#ffff00" fill-opacity="0.5019608" fill-rule="evenodd" stroke="none"/>
  </g>
</svg>
