<?xml version="1.0" encoding="UTF-8" standalone="no"?>
<svg xmlns:ffdec="https://www.free-decompiler.com/flash" xmlns:xlink="http://www.w3.org/1999/xlink" ffdec:objectType="shape" height="153.1px" width="116.35px" xmlns="http://www.w3.org/2000/svg">
  <g transform="matrix(1.0, 0.0, 0.0, 1.0, 66.9, 132.05)">
    <path d="M5.75 -120.0 Q8.05 -118.2 10.0 -120.0 15.9 -125.25 21.55 -129.2 22.5 -125.35 24.35 -121.8 L24.35 -121.25 24.35 -120.75 25.1 -119.7 25.1 -119.15 Q25.25 -117.5 25.8 -116.0 26.25 -115.45 26.75 -115.35 L42.75 -113.85 42.7 -113.35 Q42.2 -110.45 40.6 -108.05 L40.6 -106.95 40.6 -101.7 47.7 -96.05 Q46.25 -95.8 45.2 -94.95 L45.0 -94.4 Q44.6 -90.35 45.2 -86.5 L46.1 -85.45 31.5 -84.15 Q30.6 -84.0 30.0 -83.15 L30.0 -82.1 30.0 -72.0 29.3 -72.0 Q26.75 -74.75 22.95 -74.85 L17.4 -78.15 Q11.75 -81.65 9.55 -77.3 10.7 -75.75 12.35 -75.35 L12.35 -74.85 12.35 -72.2 16.45 -66.35 16.6 -65.85 16.8 -64.8 Q20.65 -61.7 25.1 -59.5 L25.1 -59.15 25.1 -57.0 Q23.0 -55.4 21.55 -53.3 L21.55 -52.75 21.55 -51.7 Q25.9 -48.15 30.75 -45.35 36.55 -41.95 43.45 -40.75 39.8 -38.2 37.1 -34.95 L37.05 -34.4 Q36.95 -32.25 37.25 -30.15 41.55 -25.75 46.1 -21.7 39.0 -19.25 33.55 -14.45 L33.55 -13.95 33.55 -12.85 Q36.15 -10.35 39.9 -9.35 44.15 -5.05 49.45 -2.1 42.8 -1.15 37.45 2.5 37.25 2.75 37.2 3.05 L37.1 4.1 Q39.25 7.2 42.2 9.35 34.7 6.2 29.3 10.8 29.35 12.9 27.9 14.5 L27.9 15.0 Q28.1 18.2 26.3 20.85 L25.45 21.05 Q22.05 20.05 19.3 17.9 13.15 13.2 6.0 13.45 L5.7 13.8 Q4.65 15.55 4.25 17.5 L2.15 19.45 0.7 18.75 Q-1.1 15.2 -4.25 13.1 -6.5 13.9 -8.1 15.75 L-8.1 16.25 -8.1 16.8 Q-10.25 20.25 -13.95 21.05 -15.05 20.55 -15.15 19.6 L-15.2 19.1 Q-15.25 16.9 -16.05 14.85 -17.15 13.1 -19.05 12.4 -20.15 12.55 -20.8 13.45 -22.05 13.7 -23.05 14.35 -28.65 17.85 -34.05 17.85 L-34.25 17.3 Q-35.75 13.25 -35.65 8.85 L-36.35 7.8 -36.35 7.25 -36.35 6.75 -40.4 3.75 -39.6 2.2 Q-37.9 -0.3 -36.9 -3.15 -34.05 -11.3 -41.5 -14.3 -34.45 -16.75 -27.0 -18.5 -26.4 -19.2 -26.7 -20.05 -28.85 -25.8 -34.25 -29.65 L-34.3 -30.15 -34.6 -31.25 Q-24.7 -33.9 -14.1 -33.0 -13.25 -33.45 -13.05 -34.4 -14.4 -38.15 -18.7 -38.65 L-32.85 -47.45 Q-30.45 -48.95 -27.75 -49.7 -20.25 -51.7 -17.3 -58.25 -19.1 -61.85 -22.95 -62.85 -23.55 -63.4 -23.15 -64.35 L-22.5 -65.9 Q-20.05 -71.65 -20.1 -78.0 -22.0 -80.6 -25.35 -79.15 -34.25 -75.4 -42.7 -75.0 L-42.7 -75.55 -42.0 -85.1 Q-42.55 -86.2 -43.75 -86.1 L-53.3 -85.25 -53.3 -87.4 -53.2 -88.4 Q-52.15 -94.35 -52.6 -100.6 -57.7 -102.95 -62.5 -103.6 L-61.25 -105.2 -61.15 -105.75 -61.1 -107.85 -59.85 -109.45 Q-58.35 -115.05 -63.55 -117.05 -64.6 -119.0 -66.9 -119.5 L-52.25 -120.65 Q-50.25 -120.85 -49.05 -122.5 L-49.05 -123.05 Q-49.05 -127.85 -46.4 -132.05 L-42.7 -129.2 -40.7 -123.95 Q-39.05 -119.85 -35.7 -121.4 -28.65 -124.6 -21.55 -126.55 L-21.55 -123.4 -21.55 -120.75 Q-21.5 -114.6 -20.65 -108.55 L-19.05 -107.7 Q-16.75 -108.6 -15.55 -110.85 -12.1 -112.3 -10.05 -115.1 -6.6 -115.75 -3.5 -116.85 -3.35 -117.4 -3.35 -117.9 L-3.0 -126.2 5.75 -120.0" fill="#ffff00" fill-opacity="0.5019608" fill-rule="evenodd" stroke="none"/>
  </g>
</svg>
