<?xml version="1.0" encoding="UTF-8" standalone="no"?>
<svg xmlns:ffdec="https://www.free-decompiler.com/flash" xmlns:xlink="http://www.w3.org/1999/xlink" ffdec:objectType="shape" height="117.7px" width="77.5px" xmlns="http://www.w3.org/2000/svg">
  <g transform="matrix(1.0, 0.0, 0.0, 1.0, 43.2, 114.35)">
    <path d="M27.05 -106.45 L29.85 -102.9 33.65 -97.15 Q34.25 -96.15 34.3 -94.9 34.5 -90.0 29.25 -89.15 L14.95 -86.55 12.95 -85.2 12.0 -85.1 8.25 -84.1 6.1 -83.75 5.65 -83.7 5.3 -83.8 1.2 -84.95 Q0.2 -85.25 -0.7 -85.65 -1.9 -77.9 -1.65 -69.8 -1.4 -62.0 0.4 -54.5 0.8 -52.9 0.75 -51.3 3.95 -50.0 6.95 -47.85 L9.25 -45.9 Q13.7 -43.85 17.75 -40.9 21.7 -38.0 25.1 -34.4 27.2 -33.0 26.05 -29.8 L25.1 -26.5 Q23.9 -21.35 22.15 -16.4 20.75 -11.45 18.75 -6.6 L18.0 -5.55 17.95 -5.0 17.9 -4.5 17.9 -4.3 25.55 -3.8 Q28.4 -3.25 27.9 -0.45 27.45 1.85 25.05 1.9 19.15 2.0 13.25 1.6 11.1 1.5 10.95 -0.65 10.75 -3.2 11.6 -5.6 L17.15 -21.9 18.45 -26.3 19.65 -30.65 18.55 -31.55 Q12.25 -37.35 4.75 -41.4 3.4 -42.1 2.1 -42.9 L2.7 -23.85 Q2.8 -19.75 -1.0 -17.6 -10.0 -12.55 -17.05 -5.1 L-18.1 -4.05 Q-12.05 -3.75 -6.7 -1.35 -6.05 -1.05 -5.95 -0.35 -5.5 2.9 -8.85 3.25 L-15.8 2.8 -19.25 2.35 Q-22.6 2.25 -25.1 0.4 -26.25 -0.5 -26.05 -2.0 -25.45 -6.7 -21.65 -10.05 -14.95 -16.0 -7.65 -20.9 -6.3 -21.75 -5.2 -22.85 L-3.45 -24.6 Q-3.75 -34.05 -4.4 -43.4 -4.5 -45.5 -5.6 -47.25 -5.95 -47.8 -5.8 -48.45 L-5.2 -49.85 -5.7 -51.15 Q-7.55 -59.75 -7.85 -68.65 -8.15 -77.1 -7.0 -85.2 -9.7 -85.25 -12.4 -85.95 L-15.0 -86.25 Q-20.6 -86.25 -25.5 -88.2 L-26.4 -88.8 Q-31.4 -93.45 -35.25 -98.85 -38.65 -101.8 -41.35 -105.6 -42.6 -107.3 -43.05 -109.25 -43.8 -112.65 -40.45 -114.0 L-39.55 -114.3 Q-33.5 -114.8 -33.3 -109.3 -33.25 -108.0 -34.35 -107.15 -30.35 -103.25 -27.05 -98.9 L-25.8 -96.85 -21.45 -93.7 Q-20.5 -93.15 -19.25 -93.0 L-5.8 -91.2 -5.2 -92.75 Q-6.25 -97.6 -3.1 -102.6 -1.3 -105.45 1.85 -106.3 L4.45 -106.95 Q14.55 -107.2 17.2 -97.7 17.6 -96.35 17.65 -94.85 L17.65 -93.25 22.45 -94.4 27.3 -95.45 Q24.45 -100.7 19.0 -103.45 17.4 -104.3 15.4 -104.7 12.25 -105.3 12.4 -108.5 12.55 -111.5 15.55 -111.85 22.55 -112.05 27.05 -106.45 M14.15 -86.4 L13.95 -86.25 14.8 -86.5 14.15 -86.4" fill="#000000" fill-rule="evenodd" stroke="none"/>
  </g>
</svg>
