<?xml version="1.0" encoding="UTF-8" standalone="no"?>
<svg xmlns:ffdec="https://www.free-decompiler.com/flash" xmlns:xlink="http://www.w3.org/1999/xlink" ffdec:objectType="shape" height="150.4px" width="117.95px" xmlns="http://www.w3.org/2000/svg">
  <g transform="matrix(1.0, 0.0, 0.0, 1.0, 64.6, 128.15)">
    <path d="M13.25 -123.9 L14.15 -123.9 Q17.6 -121.3 20.1 -117.65 24.2 -111.8 28.45 -116.5 L28.6 -117.05 28.95 -118.1 Q32.2 -120.4 34.1 -123.9 L34.15 -123.55 Q34.15 -121.7 34.45 -119.85 L34.9 -118.75 Q35.65 -113.85 37.25 -109.25 45.95 -106.25 53.35 -103.1 48.55 -99.3 44.15 -95.15 L44.15 -94.6 44.15 -90.4 Q46.95 -88.25 47.3 -86.3 41.65 -85.25 37.1 -82.6 L37.1 -82.1 37.1 -77.85 37.8 -76.8 37.8 -76.25 37.8 -74.65 37.1 -74.15 22.6 -73.35 21.9 -73.05 21.7 -72.55 21.55 -69.9 Q24.5 -65.6 27.9 -61.4 L18.4 -60.5 Q17.05 -60.3 17.3 -58.95 20.4 -56.2 24.9 -55.25 L35.5 -47.45 Q37.55 -45.3 39.9 -43.75 L42.75 -39.55 Q34.3 -38.1 27.9 -33.55 L27.9 -33.0 27.9 -31.95 Q34.7 -25.15 42.05 -19.25 42.5 -18.0 42.2 -17.1 39.3 -14.45 37.1 -11.3 L37.1 -10.75 37.1 -8.65 Q42.2 -4.05 48.4 -0.7 44.05 0.65 40.6 3.55 L40.55 4.6 Q40.25 8.5 41.15 12.0 L39.2 11.9 Q36.75 11.65 34.5 10.7 30.1 8.8 27.2 12.0 27.5 14.5 25.8 16.25 L25.8 16.8 Q25.8 20.05 24.0 22.25 L20.15 17.65 20.1 17.15 19.8 16.1 15.15 10.9 Q13.75 9.25 11.3 9.25 5.4 9.35 1.25 14.6 L0.05 16.2 Q-2.65 20.1 -6.7 21.2 -7.45 17.85 -7.8 14.45 -8.25 10.3 -12.2 11.7 -18.3 13.75 -24.35 16.8 L-24.35 15.9 -24.35 11.65 -25.3 11.1 -40.6 9.35 Q-32.8 3.35 -32.1 -6.0 -37.4 -10.0 -43.95 -11.45 -35.0 -16.05 -26.85 -21.85 -24.5 -23.55 -23.05 -26.05 -21.25 -29.0 -24.1 -30.5 -29.7 -33.4 -33.2 -36.7 -31.7 -36.95 -30.4 -37.65 -28.0 -38.95 -25.35 -39.2 -18.65 -39.85 -13.95 -43.75 L-13.8 -44.3 Q-13.6 -45.7 -14.1 -46.95 -15.75 -48.25 -17.8 -48.55 -20.8 -51.15 -22.95 -52.25 L-22.65 -52.65 Q-22.15 -53.6 -22.25 -54.7 -16.25 -58.85 -13.05 -65.3 L-13.05 -65.85 -13.05 -67.45 Q-13.5 -67.95 -14.0 -68.0 L-29.3 -68.5 -29.3 -68.85 -29.3 -70.95 -27.9 -73.05 -27.9 -73.6 -27.9 -75.2 -28.75 -75.75 -54.0 -76.8 Q-53.2 -80.65 -52.85 -84.7 -52.15 -92.6 -60.75 -92.3 -62.55 -93.8 -64.6 -93.9 -62.6 -95.7 -61.25 -97.95 -57.65 -100.05 -54.35 -102.75 -54.1 -103.9 -53.3 -104.85 -53.8 -107.85 -56.15 -110.15 L-51.65 -109.4 Q-46.0 -107.85 -42.0 -110.5 L-42.0 -111.05 -41.3 -117.4 -41.0 -117.95 Q-39.7 -120.4 -39.2 -123.2 -35.35 -118.85 -30.55 -115.4 -29.5 -114.65 -28.85 -113.6 -25.65 -108.15 -20.65 -108.2 -20.4 -108.75 -20.45 -109.25 -20.95 -114.9 -18.0 -119.35 -16.75 -119.6 -15.7 -120.2 L-15.4 -120.75 Q-14.95 -121.8 -15.35 -122.85 L-16.6 -124.45 -16.55 -125.0 Q-16.4 -126.7 -17.3 -128.15 -4.15 -124.6 7.8 -116.85 11.25 -118.4 11.85 -122.35 L13.25 -123.9" fill="#ffff00" fill-opacity="0.5019608" fill-rule="evenodd" stroke="none"/>
  </g>
</svg>
