<?xml version="1.0" encoding="UTF-8" standalone="no"?>
<svg xmlns:ffdec="https://www.free-decompiler.com/flash" xmlns:xlink="http://www.w3.org/1999/xlink" ffdec:objectType="shape" height="116.3px" width="77.5px" xmlns="http://www.w3.org/2000/svg">
  <g transform="matrix(1.0, 0.0, 0.0, 1.0, 44.4, 112.1)">
    <path d="M27.9 -104.45 Q33.3 -103.9 33.1 -98.6 33.0 -96.0 32.3 -93.6 L31.35 -92.0 31.15 -90.7 Q30.9 -89.8 30.3 -89.05 30.25 -87.65 29.45 -86.5 L28.15 -84.85 Q27.75 -80.15 23.55 -78.75 L21.75 -78.85 Q13.35 -82.75 4.35 -84.95 L4.2 -85.0 4.4 -69.3 Q4.55 -63.3 4.15 -57.5 6.45 -56.25 7.65 -53.5 8.2 -52.3 9.0 -51.2 12.15 -47.1 15.65 -43.2 19.15 -39.3 21.45 -34.75 22.9 -33.1 22.45 -30.15 L19.45 -9.8 19.1 -6.35 19.0 -3.0 26.85 -2.6 Q28.65 -2.0 28.7 -0.15 28.8 2.4 26.25 2.8 L20.05 3.5 Q17.5 3.75 15.05 3.45 12.85 3.25 12.75 1.15 12.55 -1.5 12.7 -4.15 13.15 -12.15 14.55 -20.05 L15.6 -27.15 15.7 -29.05 Q15.7 -30.75 16.05 -32.35 13.75 -34.8 11.6 -37.35 6.95 -42.75 3.1 -48.65 L2.7 -46.1 Q4.1 -44.45 3.55 -41.45 2.2 -34.4 0.5 -27.4 0.0 -25.3 -1.4 -24.1 L-1.65 -23.7 -2.75 -22.15 Q-9.7 -14.55 -14.85 -5.65 L-16.65 -2.55 -8.3 -2.0 Q-6.9 -2.0 -6.35 -0.7 -4.85 2.9 -8.85 3.7 -13.25 4.6 -17.55 3.8 L-20.95 3.1 Q-23.15 2.65 -23.9 1.5 -24.95 0.35 -24.15 -1.65 -22.3 -6.4 -19.4 -10.6 L-13.0 -19.65 -9.35 -24.85 Q-8.25 -26.45 -6.85 -27.45 L-6.2 -29.2 Q-4.95 -31.3 -4.45 -33.75 L-2.95 -40.9 -2.6 -43.0 -3.15 -44.2 Q-3.5 -45.45 -3.35 -46.75 -2.55 -53.1 -2.35 -59.5 -2.05 -69.95 -2.2 -80.4 L-2.15 -85.1 -16.7 -81.55 Q-19.7 -80.8 -22.15 -82.45 -31.15 -85.35 -39.7 -89.5 -41.8 -90.5 -43.25 -92.2 -44.9 -94.1 -44.15 -96.75 -43.1 -100.25 -39.55 -100.9 -34.55 -100.6 -35.55 -95.6 L-35.65 -95.35 Q-27.7 -90.3 -18.3 -88.05 L-17.5 -88.05 Q-9.6 -89.5 -1.9 -91.55 L-1.85 -92.15 -2.9 -93.7 -2.85 -94.05 Q-6.65 -100.75 -2.25 -107.75 -0.45 -110.6 2.7 -111.45 L5.3 -112.1 Q15.4 -112.35 18.05 -102.85 18.45 -101.5 18.5 -100.0 18.75 -94.3 14.8 -91.4 L15.9 -91.75 13.8 -90.35 12.85 -90.25 11.3 -89.85 14.25 -88.65 21.2 -85.7 21.9 -85.7 Q23.45 -89.95 25.3 -94.15 L26.4 -95.7 Q25.75 -96.65 25.2 -98.2 24.75 -99.4 24.7 -100.7 24.65 -104.0 27.9 -104.45" fill="#000000" fill-rule="evenodd" stroke="none"/>
  </g>
</svg>
