<?xml version="1.0" encoding="UTF-8" standalone="no"?>
<svg xmlns:ffdec="https://www.free-decompiler.com/flash" xmlns:xlink="http://www.w3.org/1999/xlink" ffdec:objectType="shape" height="163.3px" width="104.5px" xmlns="http://www.w3.org/2000/svg">
  <g transform="matrix(1.0, 0.0, 0.0, 1.0, 51.9, 140.85)">
    <path d="M37.45 -124.45 Q38.35 -125.2 39.4 -125.5 41.35 -121.35 42.6 -116.95 44.8 -109.1 52.6 -108.9 46.6 -103.7 41.3 -97.8 41.05 -95.55 41.65 -93.55 45.25 -90.3 48.2 -86.65 45.55 -85.6 43.1 -84.35 42.55 -83.7 42.75 -82.8 L42.05 -81.75 42.05 -81.2 42.05 -78.55 Q43.55 -76.15 43.6 -73.25 45.3 -72.0 45.55 -70.05 L46.8 -68.5 34.95 -67.9 Q32.15 -67.75 30.75 -65.5 L30.75 -64.95 30.75 -59.65 Q27.7 -61.3 24.75 -63.35 24.1 -64.95 22.75 -65.95 17.9 -69.4 15.9 -65.3 16.3 -63.95 17.85 -63.7 L27.2 -52.05 27.2 -51.55 27.2 -51.0 25.1 -48.35 Q24.95 -47.0 25.25 -45.7 34.6 -38.3 43.25 -30.35 L42.25 -29.6 Q35.65 -27.3 31.45 -21.5 L31.45 -21.0 31.45 -19.95 Q37.7 -15.3 43.25 -10.4 38.5 -9.05 38.5 -4.4 41.75 -1.2 46.6 -0.85 L51.2 2.15 Q48.45 2.7 46.95 5.15 L46.95 5.65 46.95 8.3 47.7 9.35 Q47.45 11.1 48.05 12.55 48.1 13.6 46.25 12.75 45.3 11.5 43.85 10.85 35.75 7.25 31.45 13.45 27.45 11.35 22.8 7.85 16.8 3.3 12.35 7.45 L12.35 7.95 12.35 9.0 11.65 10.1 Q10.8 15.05 8.3 18.55 6.15 17.25 4.45 15.35 -1.65 8.55 -7.75 15.0 -11.1 18.45 -13.6 22.45 L-15.35 15.55 Q-16.45 13.8 -18.35 13.1 -23.4 15.7 -28.0 19.4 -31.5 22.15 -34.25 21.75 -36.45 14.8 -37.05 7.45 -37.75 6.3 -39.0 5.85 L-36.55 2.85 Q-36.25 1.8 -36.35 0.7 -34.5 -1.6 -34.95 -4.55 -38.6 -9.25 -42.55 -12.15 L-42.0 -12.7 Q-32.75 -14.75 -23.3 -15.35 -22.4 -15.8 -22.25 -16.75 -23.6 -19.2 -25.4 -21.5 -30.7 -24.55 -34.95 -28.95 -25.8 -31.55 -16.25 -32.1 -13.55 -32.25 -13.75 -34.95 -15.75 -37.95 -18.9 -39.7 -19.85 -41.5 -21.35 -42.9 -15.6 -46.85 -10.4 -51.55 -10.1 -53.1 -10.25 -54.7 -14.7 -57.05 -19.4 -57.7 -18.25 -62.3 -18.9 -67.2 -19.45 -71.2 -23.8 -69.65 -31.35 -66.95 -38.3 -66.55 -35.15 -74.65 -33.55 -82.95 L-34.5 -83.6 Q-41.05 -84.7 -46.25 -86.65 -45.5 -90.3 -43.4 -93.55 -43.3 -95.2 -43.6 -96.75 -48.35 -100.05 -51.9 -104.5 L-51.9 -105.05 -51.9 -106.6 -50.65 -106.6 Q-49.3 -105.1 -47.45 -104.35 -38.75 -100.8 -36.2 -108.75 L-33.35 -111.9 Q-29.5 -109.8 -25.9 -107.05 L-24.0 -105.4 Q-20.1 -101.4 -16.6 -104.15 L-16.6 -104.7 -16.6 -105.2 -15.9 -106.25 -15.9 -106.8 -15.9 -109.45 -15.15 -110.5 -15.15 -111.05 -15.15 -112.6 Q-15.95 -113.55 -16.25 -114.75 L-21.35 -120.55 -21.7 -122.15 Q-15.7 -120.6 -10.05 -122.35 L-9.85 -122.85 Q-9.4 -131.85 -9.55 -140.85 -3.1 -136.7 3.0 -131.0 L4.9 -128.9 Q9.8 -122.25 15.0 -127.1 L15.35 -129.2 16.25 -129.75 Q21.05 -124.2 26.25 -118.75 31.05 -113.65 33.55 -119.15 35.1 -121.15 36.9 -122.85 37.0 -123.75 37.45 -124.45" fill="#ffff00" fill-opacity="0.5019608" fill-rule="evenodd" stroke="none"/>
  </g>
</svg>
