<?xml version="1.0" encoding="UTF-8" standalone="no"?>
<svg xmlns:ffdec="https://www.free-decompiler.com/flash" xmlns:xlink="http://www.w3.org/1999/xlink" ffdec:objectType="shape" height="122.7px" width="65.75px" xmlns="http://www.w3.org/2000/svg">
  <g transform="matrix(1.0, 0.0, 0.0, 1.0, 31.1, 118.85)">
    <path d="M19.05 -106.75 Q19.3 -101.05 15.35 -98.15 L16.45 -98.5 14.35 -97.1 13.4 -97.0 9.65 -96.0 8.1 -95.7 Q10.25 -94.7 11.8 -92.5 L13.15 -90.95 20.8 -82.95 21.0 -82.7 27.65 -97.0 27.65 -97.55 27.85 -98.6 28.05 -99.15 Q25.3 -101.7 27.85 -104.3 28.65 -105.1 29.65 -105.15 35.3 -104.95 34.55 -99.35 34.3 -97.3 33.6 -95.4 L30.85 -88.3 27.1 -79.85 Q25.5 -76.5 23.3 -73.75 23.0 -73.35 22.4 -73.3 L21.95 -73.3 20.2 -73.6 Q19.7 -73.9 19.2 -74.35 L18.85 -74.7 17.25 -76.65 Q12.55 -82.85 7.15 -88.35 L6.55 -87.65 6.7 -80.0 6.7 -77.35 6.6 -57.15 Q8.45 -56.05 9.55 -53.8 10.2 -52.5 11.0 -51.35 16.9 -42.85 20.35 -33.15 20.8 -31.95 20.8 -30.65 L20.75 -9.7 20.75 -2.9 Q24.2 -3.4 27.55 -2.2 29.85 -1.4 29.35 0.95 28.85 3.25 26.5 3.6 20.8 4.4 15.7 2.7 15.0 2.45 14.9 1.65 14.5 -3.05 14.5 -7.85 L14.55 -28.25 Q14.55 -33.4 11.9 -37.9 L6.65 -46.15 6.35 -44.65 Q4.75 -34.4 0.05 -25.2 -1.7 -21.8 -4.05 -18.8 -10.25 -10.9 -17.15 -3.35 L-7.2 -2.0 Q-6.65 -1.9 -6.4 -1.4 -4.6 2.4 -8.85 3.3 L-15.5 3.6 Q-19.4 3.15 -23.1 2.0 -27.3 0.75 -25.2 -2.85 -22.65 -7.35 -18.95 -11.1 -11.4 -18.8 -5.7 -27.95 -2.8 -32.65 -1.5 -38.2 L-0.3 -44.4 Q-1.15 -45.3 -1.05 -47.2 L-0.75 -49.85 Q0.6 -57.35 0.45 -65.25 L0.45 -67.9 0.45 -84.0 Q-5.65 -80.15 -11.05 -75.4 -13.55 -73.2 -15.55 -75.55 L-16.35 -76.0 -18.5 -77.45 Q-26.3 -83.25 -30.75 -91.75 L-31.05 -92.7 Q-31.45 -96.4 -27.9 -97.0 -22.0 -96.8 -21.7 -91.45 -21.65 -90.75 -22.0 -90.15 -18.4 -85.35 -13.9 -81.25 L-11.9 -83.15 Q-8.0 -86.5 -3.6 -89.1 L0.25 -91.3 -0.3 -98.05 -1.05 -98.55 -2.35 -100.45 -2.3 -100.8 Q-6.1 -107.5 -1.7 -114.5 0.1 -117.35 3.25 -118.2 L5.85 -118.85 Q15.95 -119.1 18.6 -109.6 L19.05 -106.75" fill="#000000" fill-rule="evenodd" stroke="none"/>
  </g>
</svg>
