<?xml version="1.0" encoding="UTF-8" standalone="no"?>
<svg xmlns:ffdec="https://www.free-decompiler.com/flash" xmlns:xlink="http://www.w3.org/1999/xlink" ffdec:objectType="shape" height="128.85px" width="60.65px" xmlns="http://www.w3.org/2000/svg">
  <g transform="matrix(1.0, 0.0, 0.0, 1.0, 21.9, 124.55)">
    <path d="M34.6 -124.55 Q39.35 -124.85 38.65 -120.65 37.05 -110.55 31.75 -101.65 L26.9 -93.7 24.2 -89.95 22.95 -88.75 Q22.4 -88.3 21.75 -88.2 20.85 -88.1 19.7 -88.75 L19.3 -89.0 14.3 -92.25 9.15 -95.55 9.2 -93.3 Q9.1 -82.85 9.4 -72.4 9.55 -67.6 8.9 -63.0 11.95 -61.5 10.3 -57.85 L10.15 -57.45 10.5 -55.6 10.5 -55.35 Q15.0 -46.8 17.65 -37.55 19.05 -32.7 19.65 -27.55 L21.55 -12.15 21.9 -7.4 Q21.95 -4.95 22.5 -2.65 L30.15 -2.0 Q32.45 -1.7 32.5 0.55 32.6 4.45 28.7 4.3 L18.95 3.35 Q16.1 2.95 16.05 0.1 L15.65 -9.7 Q15.35 -14.8 14.35 -19.8 13.35 -24.95 12.65 -30.1 11.5 -38.8 7.6 -46.75 L6.9 -48.15 5.2 -41.5 Q5.35 -38.25 4.4 -35.3 L4.0 -33.55 Q3.8 -32.15 3.1 -30.9 1.9 -23.35 -2.85 -17.1 -8.3 -9.95 -12.75 -2.25 L-7.25 -2.0 Q-5.5 -1.9 -5.05 -0.2 -4.25 3.15 -7.8 3.4 -12.4 3.7 -16.95 3.5 -19.1 3.75 -19.95 2.65 -20.45 2.1 -20.5 1.15 L-20.5 0.2 -20.5 0.1 Q-20.35 -3.05 -18.3 -5.65 L-15.9 -9.1 -13.7 -12.6 Q-10.9 -17.4 -7.6 -22.0 -3.95 -27.15 -2.45 -33.2 -2.2 -34.3 -2.3 -35.35 -2.55 -38.1 -1.0 -40.15 -0.85 -44.9 0.6 -49.35 L2.95 -56.95 3.05 -57.15 2.65 -58.15 Q2.1 -59.0 2.25 -60.3 3.3 -70.45 3.05 -80.95 L3.0 -85.9 Q0.05 -81.95 -3.6 -78.5 L-6.25 -76.3 Q-9.0 -74.25 -11.15 -76.85 L-12.65 -78.85 Q-13.4 -79.95 -13.4 -81.4 L-17.35 -89.9 -21.3 -97.95 Q-21.95 -99.2 -21.9 -100.7 -21.8 -104.2 -18.35 -104.8 -12.75 -104.5 -12.75 -98.95 -12.7 -97.65 -13.5 -96.6 -11.15 -92.0 -9.1 -87.35 -8.6 -86.3 -8.5 -85.2 L-8.25 -84.9 -7.85 -84.4 -7.7 -84.15 Q-1.05 -89.65 2.5 -97.4 L1.2 -101.7 Q-0.6 -102.3 -2.1 -103.3 L-3.4 -105.2 -3.35 -105.55 Q-7.15 -112.25 -2.75 -119.25 -0.95 -122.1 2.2 -122.95 L4.8 -123.6 Q14.9 -123.85 17.55 -114.35 17.95 -113.0 18.0 -111.5 18.25 -105.8 14.3 -102.9 L15.4 -103.25 13.3 -101.85 12.35 -101.75 11.25 -101.45 Q15.35 -99.7 19.05 -96.95 L20.6 -95.75 20.9 -96.2 Q27.1 -104.4 30.2 -114.05 L30.7 -115.3 31.0 -115.8 Q29.15 -120.55 33.0 -123.85 33.75 -124.5 34.6 -124.55" fill="#000000" fill-rule="evenodd" stroke="none"/>
  </g>
</svg>
