<?xml version="1.0" encoding="UTF-8" standalone="no"?>
<svg xmlns:ffdec="https://www.free-decompiler.com/flash" xmlns:xlink="http://www.w3.org/1999/xlink" ffdec:objectType="shape" height="196.25px" width="103.1px" xmlns="http://www.w3.org/2000/svg">
  <g transform="matrix(1.0, 0.0, 0.0, 1.0, 45.35, 171.0)">
    <path d="M41.0 -153.95 L57.75 -153.25 Q56.2 -150.85 54.3 -148.7 47.9 -141.45 47.7 -132.2 L55.8 -126.2 Q49.45 -124.65 45.55 -120.05 L45.55 -119.5 45.55 -117.4 Q49.8 -114.1 51.2 -109.95 40.4 -107.95 32.15 -101.7 L32.1 -101.15 Q31.4 -96.2 33.55 -92.15 29.85 -89.8 24.9 -89.15 L23.3 -90.0 22.65 -89.8 21.9 -89.3 21.65 -88.75 Q21.45 -87.7 21.7 -86.65 L29.85 -79.45 Q26.45 -77.35 23.65 -74.65 L23.6 -73.6 Q23.35 -71.6 24.55 -70.2 31.35 -62.5 37.1 -54.55 L31.8 -46.6 Q29.65 -46.2 28.95 -44.3 27.05 -43.0 25.8 -40.95 L25.8 -39.9 25.8 -36.7 41.15 -21.85 Q37.5 -20.75 34.25 -19.05 L34.25 -18.5 Q34.15 -16.9 34.45 -15.35 L36.05 -14.3 Q36.25 -13.45 36.9 -12.85 44.6 -5.65 51.05 3.0 L50.5 3.55 Q41.25 4.45 34.25 10.1 L34.3 11.15 Q34.4 13.05 34.1 14.85 28.25 15.0 22.95 12.75 17.2 10.35 15.2 15.0 L15.15 15.55 Q14.55 18.8 13.45 21.9 12.0 22.55 10.6 22.25 L5.65 17.5 Q4.25 16.0 2.45 17.15 L-5.25 22.15 Q-9.85 25.3 -13.75 25.25 -14.15 23.75 -15.15 22.6 L-15.15 22.1 -15.15 21.55 -15.55 21.05 -15.9 20.5 -15.9 19.95 -15.9 19.45 Q-16.45 18.3 -17.65 18.15 L-28.05 17.15 -27.75 15.55 -27.2 3.9 Q-28.15 2.4 -29.65 1.55 -32.05 0.1 -34.75 -0.85 -40.8 -2.95 -45.35 -4.95 -37.6 -11.25 -27.5 -12.05 -18.15 -12.85 -11.1 -17.65 -10.6 -22.25 -15.0 -24.5 L-15.1 -25.05 Q-15.1 -25.95 -15.7 -26.65 -20.05 -29.65 -24.0 -33.0 -21.2 -34.6 -18.7 -36.7 -11.45 -38.05 -6.7 -43.4 L-6.7 -43.95 -6.7 -45.55 Q-8.35 -49.05 -12.0 -49.75 L-3.35 -59.3 -3.25 -59.85 -3.15 -62.5 Q-3.6 -63.0 -4.15 -63.1 L-10.3 -62.9 Q-20.55 -60.0 -30.0 -61.25 -30.25 -62.95 -29.75 -64.45 -27.6 -71.3 -27.9 -78.7 -32.25 -81.15 -36.7 -81.9 L-36.65 -82.2 -35.85 -83.3 -32.1 -92.1 Q-28.5 -100.65 -36.7 -104.15 -34.1 -105.65 -31.25 -106.8 -29.1 -109.2 -26.65 -111.05 L-26.5 -111.55 Q-26.15 -114.1 -27.0 -116.35 L-30.0 -118.65 Q-30.3 -119.95 -31.4 -120.75 -25.2 -120.0 -19.25 -120.9 -18.6 -121.6 -18.9 -122.45 -21.3 -129.25 -19.4 -136.3 -14.95 -135.85 -10.75 -134.1 -5.6 -131.9 -1.75 -134.5 L-1.75 -135.05 Q-1.7 -139.75 0.35 -144.05 6.95 -142.55 12.9 -139.0 17.8 -136.05 21.55 -138.75 L21.5 -143.0 Q21.4 -150.45 21.7 -157.8 L22.8 -158.9 Q25.9 -159.75 28.65 -158.2 30.45 -157.2 31.25 -158.95 L36.75 -170.9 Q37.25 -171.25 37.4 -170.4 37.8 -168.3 37.8 -166.1 L38.15 -165.6 38.5 -165.05 38.5 -164.0 Q38.7 -159.2 39.4 -154.45 40.15 -154.0 41.0 -153.95" fill="#ffff00" fill-opacity="0.5019608" fill-rule="evenodd" stroke="none"/>
  </g>
</svg>
