<?xml version="1.0" encoding="UTF-8" standalone="no"?>
<svg xmlns:ffdec="https://www.free-decompiler.com/flash" xmlns:xlink="http://www.w3.org/1999/xlink" ffdec:objectType="shape" height="157.75px" width="58.2px" xmlns="http://www.w3.org/2000/svg">
  <g transform="matrix(1.0, 0.0, 0.0, 1.0, 16.1, 153.45)">
    <path d="M33.1 -146.05 Q32.45 -151.9 38.15 -153.45 43.15 -152.7 41.85 -147.7 40.95 -144.05 38.75 -140.95 32.8 -132.55 28.25 -123.3 L25.7 -119.05 Q23.05 -112.1 17.65 -106.85 L17.3 -106.6 Q13.9 -102.3 11.0 -97.7 10.55 -97.0 9.7 -97.0 L9.6 -97.0 Q10.05 -90.9 10.1 -84.7 L10.3 -63.75 10.3 -62.1 Q12.9 -61.0 13.35 -57.9 13.5 -56.55 13.95 -55.2 17.2 -45.4 18.7 -35.3 L19.05 -31.35 Q19.35 -21.0 20.1 -10.7 L20.3 -5.7 Q21.45 -5.05 21.75 -3.55 L21.8 -3.3 27.7 -2.65 Q30.15 -2.3 30.05 0.15 29.95 2.85 27.2 2.95 22.7 3.1 18.2 2.75 16.05 2.6 15.6 0.5 L15.5 -0.05 Q14.9 -0.75 14.5 -1.95 14.2 -2.8 14.15 -3.7 13.2 -14.0 13.2 -24.4 13.15 -34.95 10.3 -44.8 L9.4 -48.1 9.3 -48.05 Q8.25 -45.1 7.5 -42.05 6.55 -38.1 4.85 -34.65 3.9 -30.65 2.5 -26.7 L1.75 -25.6 1.35 -24.05 0.6 -22.95 -0.8 -19.55 -1.5 -18.45 -6.35 -7.05 -7.85 -2.65 Q-4.15 -2.05 -1.0 -0.3 -0.4 0.05 -0.35 0.8 0.0 4.75 -4.2 4.25 L-8.85 3.7 Q-11.3 3.4 -13.2 2.15 -15.15 0.8 -14.55 -1.55 -12.15 -11.3 -7.65 -20.4 -5.5 -24.8 -3.75 -29.55 L0.0 -38.95 2.25 -47.4 Q2.9 -49.9 3.9 -52.05 L4.05 -72.95 Q4.1 -81.5 3.75 -89.95 1.6 -87.4 -1.05 -85.3 -5.5 -80.2 -10.85 -75.95 -11.45 -75.5 -12.15 -75.8 -15.25 -77.0 -15.35 -80.6 L-15.5 -86.2 -16.1 -102.85 Q-16.2 -106.35 -14.9 -109.35 -14.45 -110.45 -13.25 -110.65 L-12.7 -110.75 Q-6.2 -109.95 -7.25 -103.6 -7.45 -102.25 -8.7 -101.5 L-9.65 -101.0 -9.7 -89.9 Q-9.75 -87.8 -9.45 -85.75 -1.6 -92.05 2.95 -100.65 L2.8 -101.6 2.2 -105.2 1.7 -108.4 0.1 -108.85 Q-1.9 -109.45 -3.55 -110.55 L-4.85 -112.45 -4.8 -112.8 Q-8.6 -119.5 -4.2 -126.5 -2.4 -129.35 0.75 -130.2 L3.35 -130.85 Q13.45 -131.1 16.1 -121.6 16.5 -120.25 16.55 -118.75 16.65 -116.85 16.25 -115.2 L24.75 -130.15 33.0 -145.4 33.1 -146.05 M8.65 -106.0 L11.2 -109.0 10.9 -109.0 8.4 -108.35 8.65 -106.0" fill="#000000" fill-rule="evenodd" stroke="none"/>
  </g>
</svg>
