<?xml version="1.0" encoding="UTF-8" standalone="no"?>
<svg xmlns:ffdec="https://www.free-decompiler.com/flash" xmlns:xlink="http://www.w3.org/1999/xlink" ffdec:objectType="shape" height="195.95px" width="93.05px" xmlns="http://www.w3.org/2000/svg">
  <g transform="matrix(1.0, 0.0, 0.0, 1.0, 35.65, 173.0)">
    <path d="M42.2 -167.55 L42.55 -168.05 Q44.45 -171.15 47.7 -173.0 49.35 -171.75 49.35 -168.05 49.4 -163.0 49.95 -158.0 L51.05 -156.95 51.45 -155.35 Q52.0 -153.55 52.1 -151.65 55.7 -149.65 57.4 -148.8 51.4 -146.45 46.25 -142.65 46.4 -141.55 46.0 -140.55 44.95 -137.65 46.45 -134.7 L48.2 -133.65 49.0 -132.65 Q51.05 -130.3 51.9 -127.8 L39.2 -125.0 38.85 -124.65 Q37.75 -123.7 37.1 -122.5 L37.05 -120.4 Q37.0 -116.6 39.2 -113.5 L39.15 -113.0 39.05 -111.9 Q32.25 -109.65 27.2 -104.5 27.2 -103.2 27.35 -101.85 L27.9 -95.5 28.2 -94.95 28.45 -93.9 Q25.1 -92.9 22.25 -91.1 L22.2 -89.5 Q22.15 -88.4 22.45 -87.4 23.5 -86.45 24.0 -85.2 25.65 -81.2 26.15 -77.3 L25.1 -76.25 25.0 -74.65 Q24.7 -71.25 27.2 -68.85 L27.2 -68.3 27.2 -67.25 29.1 -64.7 37.1 -55.05 Q29.95 -55.2 25.8 -50.5 L25.75 -49.4 Q25.7 -48.6 25.95 -47.85 L26.55 -47.35 27.55 -46.75 Q28.65 -44.75 30.45 -43.15 38.0 -36.35 43.25 -28.95 L42.2 -28.45 Q40.95 -27.9 39.75 -27.9 34.65 -27.9 32.15 -24.35 L32.1 -23.3 Q32.05 -22.45 32.3 -21.7 34.35 -20.1 36.75 -19.05 L37.55 -18.15 39.4 -16.75 Q45.2 -12.1 49.1 -6.35 45.3 -3.8 42.05 -0.5 L41.95 2.15 Q41.75 5.6 43.45 8.5 L26.9 9.4 Q26.3 9.45 25.8 9.9 L25.8 13.1 25.8 20.5 Q23.8 20.45 22.05 19.55 13.65 15.15 5.3 17.65 L5.35 19.8 Q5.45 21.85 5.15 22.95 -0.25 14.35 -8.3 19.8 -13.0 21.15 -16.95 20.65 L-17.9 14.9 Q-18.45 10.2 -18.0 5.3 -20.35 1.5 -24.35 1.25 L-24.2 -0.3 Q-23.85 -2.15 -23.65 -4.05 L-21.15 -7.5 Q-18.15 -11.95 -18.0 -17.3 -19.7 -19.0 -22.25 -19.75 -27.35 -21.25 -30.0 -23.45 -25.3 -28.35 -19.95 -32.45 L-19.05 -32.8 Q-16.35 -33.65 -16.6 -36.35 L-17.35 -37.35 -21.55 -42.0 -21.55 -43.05 -21.55 -44.1 -21.95 -44.55 Q-25.4 -46.55 -27.2 -49.75 L-25.95 -50.85 -22.65 -50.95 Q-15.15 -50.25 -9.7 -54.35 -9.6 -54.9 -9.75 -55.35 -10.85 -59.3 -13.05 -61.8 L-12.25 -62.4 Q-10.0 -64.5 -8.3 -67.05 L-8.15 -68.15 -8.1 -70.25 Q-8.55 -70.8 -9.1 -70.9 -17.45 -72.75 -25.75 -72.0 -25.8 -73.35 -25.25 -74.55 -23.9 -77.5 -24.35 -80.85 L-25.35 -81.6 Q-30.3 -83.75 -34.95 -83.85 L-34.8 -84.4 Q-33.75 -87.7 -30.9 -89.65 L-30.8 -90.75 Q-30.85 -91.8 -30.55 -92.85 L-30.1 -93.3 Q-29.2 -94.0 -28.6 -94.95 -28.7 -96.05 -28.4 -97.15 -27.65 -100.15 -27.9 -103.45 -31.6 -106.65 -35.65 -109.1 -34.15 -110.45 -32.25 -110.95 -24.6 -113.05 -23.85 -119.35 -24.8 -120.85 -26.45 -121.45 L-26.65 -122.0 -26.85 -122.5 Q-28.45 -123.8 -30.55 -124.1 L-30.7 -124.25 Q-31.55 -125.05 -32.5 -125.7 -24.0 -125.25 -15.7 -125.85 -15.1 -126.55 -15.05 -127.45 -15.0 -129.35 -16.4 -130.65 L-16.5 -131.15 Q-16.6 -132.05 -17.3 -132.75 L-17.3 -133.3 -17.3 -133.8 -18.2 -135.4 Q-18.85 -137.15 -18.9 -139.1 L-19.25 -139.6 -20.1 -140.7 Q-20.0 -141.8 -20.4 -142.75 -21.15 -144.5 -20.8 -146.5 L-16.55 -145.05 Q-11.0 -142.7 -6.2 -139.1 -0.2 -134.6 6.2 -134.35 L6.5 -135.4 6.9 -137.0 Q7.8 -137.95 8.25 -139.15 L9.7 -143.85 10.3 -143.4 11.65 -141.75 11.7 -140.7 11.85 -139.65 13.15 -138.45 Q14.35 -137.15 14.65 -135.4 L15.25 -134.95 18.7 -134.85 19.0 -135.25 19.45 -136.3 19.25 -136.8 Q18.9 -137.75 18.0 -138.4 L17.9 -142.65 Q17.65 -147.05 18.55 -151.1 21.85 -150.5 24.55 -152.0 25.45 -155.8 25.5 -159.95 25.6 -166.4 28.25 -171.95 34.45 -165.2 42.2 -167.55" fill="#ffff00" fill-opacity="0.5019608" fill-rule="evenodd" stroke="none"/>
  </g>
</svg>
