<?xml version="1.0" encoding="UTF-8" standalone="no"?>
<svg xmlns:ffdec="https://www.free-decompiler.com/flash" xmlns:xlink="http://www.w3.org/1999/xlink" ffdec:objectType="shape" height="156.9px" width="60.3px" xmlns="http://www.w3.org/2000/svg">
  <g transform="matrix(1.0, 0.0, 0.0, 1.0, 19.7, 152.45)">
    <path d="M36.35 -152.45 Q41.5 -152.25 40.4 -147.5 40.05 -146.05 39.35 -144.65 L38.2 -142.35 Q37.6 -141.1 36.45 -140.3 33.1 -131.45 28.1 -123.4 L25.25 -118.55 Q22.9 -113.45 19.0 -109.35 L16.95 -106.7 16.5 -106.1 12.25 -99.6 Q11.15 -98.15 9.65 -97.15 11.0 -86.95 11.1 -76.55 11.15 -70.55 10.7 -64.7 12.0 -63.45 12.05 -61.15 L12.35 -59.35 13.35 -54.55 14.2 -52.7 14.4 -51.35 Q16.75 -42.25 17.95 -32.85 18.6 -27.8 19.5 -22.8 21.25 -13.2 21.45 -3.25 25.4 -4.5 28.25 -2.15 29.4 -1.2 29.05 0.25 28.5 2.55 26.15 2.85 21.25 3.45 16.7 2.25 15.9 2.05 15.7 1.2 14.7 -3.65 14.75 -8.8 14.8 -13.95 13.8 -18.95 L12.1 -28.95 Q10.75 -38.4 8.9 -47.75 L8.5 -48.9 8.0 -46.65 7.5 -44.05 Q6.9 -40.4 5.55 -36.9 5.4 -33.45 3.9 -30.3 L3.15 -29.2 Q-0.85 -19.65 -5.65 -10.25 L-6.85 -7.2 -8.25 -2.9 Q-4.15 -2.2 -0.25 -0.55 0.6 -0.2 0.7 0.75 1.2 5.25 -3.3 4.3 L-9.0 3.4 Q-12.3 3.1 -14.85 1.45 -15.9 0.8 -15.75 -0.45 -15.6 -1.8 -14.85 -2.55 L-14.0 -6.35 Q-11.3 -14.9 -6.95 -22.8 -4.1 -28.0 -1.75 -33.35 1.0 -42.5 2.55 -52.15 L3.05 -55.4 Q3.5 -58.3 5.2 -60.35 L5.0 -60.8 Q4.6 -62.05 4.65 -63.4 4.8 -73.9 4.2 -84.3 L3.7 -91.15 Q-2.25 -84.8 -8.55 -78.7 -12.0 -75.35 -14.3 -79.6 -16.4 -83.45 -17.8 -87.6 -20.15 -94.7 -19.6 -102.5 L-18.95 -108.25 Q-18.7 -109.55 -17.45 -110.05 L-16.25 -110.45 Q-10.3 -109.75 -9.95 -103.8 -9.75 -100.3 -13.15 -99.65 -13.75 -94.2 -11.45 -89.5 -11.05 -88.7 -10.8 -87.8 L-10.4 -86.4 Q-7.05 -88.7 -4.1 -91.95 L1.25 -97.9 Q1.95 -99.45 2.9 -100.3 L2.25 -107.85 -1.3 -108.85 Q-3.3 -109.45 -4.95 -110.55 L-6.25 -112.45 -6.2 -112.8 Q-10.0 -119.5 -5.6 -126.5 -3.8 -129.35 -0.65 -130.2 L1.95 -130.85 Q12.05 -131.1 14.7 -121.6 15.1 -120.25 15.15 -118.75 15.3 -115.75 14.25 -113.45 L18.7 -119.85 21.15 -123.8 25.75 -132.0 27.7 -136.2 Q29.35 -140.6 31.8 -144.6 31.2 -149.2 34.9 -151.9 35.6 -152.4 36.35 -152.45 M8.85 -106.25 L11.5 -109.75 10.45 -109.1 9.5 -109.0 9.1 -108.9 9.1 -108.8 8.85 -106.25 M11.9 -110.25 L12.3 -110.85 11.45 -110.15 11.9 -110.25" fill="#000000" fill-rule="evenodd" stroke="none"/>
  </g>
</svg>
