<?xml version="1.0" encoding="UTF-8" standalone="no"?>
<svg xmlns:ffdec="https://www.free-decompiler.com/flash" xmlns:xlink="http://www.w3.org/1999/xlink" ffdec:objectType="shape" height="135.75px" width="57.25px" xmlns="http://www.w3.org/2000/svg">
  <g transform="matrix(1.0, 0.0, 0.0, 1.0, 18.05, 131.3)">
    <path d="M39.2 -127.55 Q39.15 -125.15 37.9 -122.95 L32.8 -114.0 Q29.65 -108.45 26.05 -103.2 23.85 -98.1 19.75 -94.35 L19.05 -93.75 Q18.2 -93.2 17.15 -93.55 L16.8 -93.7 Q12.95 -94.05 9.35 -95.65 L6.4 -96.9 Q6.7 -88.4 7.7 -79.95 L8.1 -74.7 Q8.25 -66.6 9.3 -58.65 12.25 -56.5 13.6 -52.6 L14.0 -50.4 14.05 -49.6 Q16.55 -42.1 17.65 -34.25 L20.2 -14.15 20.45 -12.3 Q21.15 -8.0 21.45 -3.75 L27.7 -3.4 Q29.65 -3.25 29.95 -1.35 30.5 1.85 27.15 2.05 23.45 2.3 19.7 2.05 16.65 2.95 15.95 -0.6 15.1 -4.9 14.5 -9.3 13.0 -19.3 11.9 -29.35 L10.85 -36.3 Q10.7 -37.05 10.7 -37.85 L8.9 -44.2 8.55 -46.35 8.45 -46.5 Q7.15 -36.85 4.35 -27.45 L3.5 -25.2 Q2.25 -22.5 0.25 -20.2 -4.85 -11.5 -8.05 -1.8 L-3.5 -1.7 Q-1.4 -1.85 -0.85 0.15 0.05 3.15 -3.05 3.9 L-12.8 3.6 Q-14.45 3.1 -14.6 1.55 L-14.75 0.65 Q-14.55 -6.6 -11.0 -13.0 L-0.8 -31.4 -0.6 -31.7 Q1.4 -41.2 2.3 -50.8 2.45 -52.25 3.1 -53.65 L3.8 -54.7 Q3.05 -57.95 2.6 -61.3 L2.35 -64.0 Q1.75 -72.3 1.5 -80.7 L1.4 -82.0 Q0.65 -86.95 0.25 -92.0 L-3.55 -88.45 -10.2 -81.25 Q-12.4 -78.5 -15.7 -78.8 -17.85 -79.05 -17.95 -81.15 L-17.95 -88.55 Q-17.65 -95.65 -16.3 -102.6 -15.7 -105.9 -13.8 -108.35 -12.8 -109.65 -11.3 -109.75 -6.45 -108.05 -8.0 -102.95 -8.5 -101.25 -10.0 -100.2 -11.05 -95.75 -11.5 -91.2 L-11.75 -89.15 -2.95 -98.2 Q-1.65 -99.5 -0.15 -100.35 L-0.2 -102.65 0.1 -106.55 -0.9 -106.85 Q-2.9 -107.45 -4.55 -108.55 L-5.85 -110.45 -5.8 -110.8 Q-9.6 -117.5 -5.2 -124.5 -3.4 -127.35 -0.25 -128.2 L2.35 -128.85 Q12.45 -129.1 15.1 -119.6 L15.55 -116.75 Q15.8 -111.05 11.85 -108.15 L12.95 -108.5 10.85 -107.1 9.9 -107.0 6.65 -106.15 6.6 -105.6 6.35 -102.95 Q11.0 -102.5 15.45 -100.5 L16.75 -100.05 26.45 -115.8 Q28.15 -118.65 29.65 -121.65 28.55 -126.75 32.5 -130.35 33.45 -131.25 34.6 -131.25 39.25 -131.8 39.2 -127.55" fill="#000000" fill-rule="evenodd" stroke="none"/>
  </g>
</svg>
