<?xml version="1.0" encoding="UTF-8" standalone="no"?>
<svg xmlns:ffdec="https://www.free-decompiler.com/flash" xmlns:xlink="http://www.w3.org/1999/xlink" ffdec:objectType="shape" height="171.55px" width="99.95px" xmlns="http://www.w3.org/2000/svg">
  <g transform="matrix(1.0, 0.0, 0.0, 1.0, 44.15, 144.85)">
    <path d="M30.75 -128.35 Q30.75 -127.25 30.35 -126.35 29.55 -124.25 30.2 -122.0 31.0 -121.55 31.75 -121.55 44.6 -122.1 55.8 -122.0 L55.4 -121.5 54.05 -119.85 54.0 -119.35 53.85 -118.25 53.2 -117.7 Q52.0 -116.3 51.55 -114.55 L50.85 -114.05 50.6 -113.5 50.5 -113.0 41.3 -109.1 41.3 -108.05 Q41.2 -107.2 41.5 -106.45 41.75 -106.2 42.1 -106.0 46.15 -103.95 47.5 -99.75 45.25 -98.65 43.05 -97.4 39.45 -95.35 35.35 -94.5 25.9 -92.6 27.55 -84.35 32.1 -79.95 36.05 -75.35 32.1 -72.8 27.75 -71.05 L24.1 -70.05 Q17.45 -69.0 12.35 -65.5 L12.4 -64.45 12.55 -63.35 Q19.85 -60.0 26.5 -55.75 L26.45 -53.65 Q26.35 -50.7 26.65 -47.85 L36.2 -46.75 35.7 -45.8 Q31.7 -40.25 26.5 -35.8 L26.55 -34.75 26.65 -33.7 Q35.25 -32.65 41.65 -27.7 37.05 -25.55 33.55 -21.85 L33.5 -20.3 Q33.45 -19.2 33.75 -18.15 L36.05 -16.6 39.5 -14.0 48.4 -7.05 Q40.4 -8.75 34.25 -5.3 34.25 -1.85 34.8 1.5 35.9 8.3 38.15 14.85 26.9 14.9 19.8 24.2 19.0 23.9 18.65 23.0 17.1 19.15 15.2 15.55 L15.2 15.0 15.2 14.5 Q11.95 11.25 9.7 15.2 7.1 17.0 5.35 19.7 2.1 24.7 -1.95 26.7 -4.25 22.65 -6.7 18.75 L-8.25 15.85 Q-9.6 12.5 -13.25 13.55 -23.4 16.55 -32.85 21.2 -33.0 18.3 -32.3 15.5 -30.05 6.4 -37.4 2.3 L-33.35 0.5 Q-23.95 -3.25 -25.95 -12.0 -28.35 -15.45 -31.4 -18.35 L-29.95 -19.05 Q-17.4 -21.85 -4.95 -23.65 -3.75 -29.75 -10.45 -31.6 -20.4 -34.4 -28.05 -40.05 -18.9 -43.85 -9.55 -47.3 L-9.2 -47.65 -7.4 -49.75 -7.4 -50.85 -7.4 -51.9 Q-8.6 -53.45 -10.55 -53.35 -16.15 -53.1 -18.0 -56.5 L-17.6 -56.95 Q-15.05 -58.9 -13.75 -61.8 L-13.75 -64.4 -13.75 -70.8 Q-10.95 -73.0 -8.65 -75.55 L-6.35 -76.1 -5.9 -76.5 -5.3 -77.5 Q-5.4 -79.05 -6.95 -78.8 -11.8 -77.95 -15.95 -74.5 L-18.35 -72.4 Q-24.0 -67.3 -28.6 -61.8 -28.35 -63.85 -28.45 -65.8 -28.65 -71.25 -26.45 -75.9 L-26.45 -76.95 -26.45 -78.0 -27.45 -78.7 -34.6 -79.9 Q-42.1 -80.55 -44.15 -85.45 -38.45 -85.9 -34.4 -89.65 L-34.0 -91.75 Q-33.5 -95.5 -35.65 -98.15 L-35.85 -99.2 Q-36.3 -101.1 -37.75 -102.4 -33.0 -102.65 -28.65 -104.1 -25.85 -105.05 -24.55 -108.05 -24.25 -109.05 -24.3 -110.15 L-24.35 -114.4 Q-19.6 -112.7 -16.6 -116.0 -15.25 -116.1 -14.65 -117.2 L-14.5 -117.75 -14.3 -118.8 Q-13.0 -119.2 -12.35 -120.4 -12.5 -122.9 -12.3 -125.2 L-11.45 -134.7 Q-9.15 -132.75 -6.6 -134.7 -0.85 -139.05 3.9 -144.75 4.75 -145.15 5.3 -143.95 6.35 -141.85 6.9 -139.65 10.2 -133.65 16.6 -134.0 L16.6 -132.95 16.6 -130.8 Q17.2 -129.9 18.15 -129.7 25.55 -127.9 30.75 -128.35" fill="#ffff00" fill-opacity="0.5019608" fill-rule="evenodd" stroke="none"/>
  </g>
</svg>
