<?xml version="1.0" encoding="UTF-8" standalone="no"?>
<svg xmlns:ffdec="https://www.free-decompiler.com/flash" xmlns:xlink="http://www.w3.org/1999/xlink" ffdec:objectType="shape" height="167.2px" width="102.05px" xmlns="http://www.w3.org/2000/svg">
  <g transform="matrix(1.0, 0.0, 0.0, 1.0, 50.85, 146.35)">
    <path d="M32.15 -140.5 Q30.45 -133.9 27.0 -128.35 26.15 -127.7 25.8 -126.75 L25.75 -126.2 Q25.65 -125.1 25.95 -124.1 L26.5 -123.8 37.45 -123.0 Q39.65 -122.85 40.6 -121.65 38.85 -118.7 36.4 -116.35 L36.4 -115.8 36.4 -115.25 33.55 -112.1 33.55 -111.55 Q33.45 -110.75 33.75 -109.95 42.15 -107.85 48.4 -104.5 45.3 -101.95 43.45 -98.7 L43.45 -98.15 43.45 -96.05 Q44.2 -94.25 45.9 -93.4 46.75 -91.3 49.1 -91.1 L49.1 -90.75 49.25 -90.2 51.2 -88.6 Q50.5 -87.7 49.2 -87.3 42.4 -85.1 36.4 -81.9 L36.4 -81.35 36.4 -79.25 Q41.4 -73.65 45.55 -67.6 L45.6 -67.05 Q45.65 -66.25 46.1 -65.5 38.05 -65.75 32.15 -61.8 L32.15 -60.7 32.15 -54.35 23.35 -53.55 Q21.55 -53.35 20.85 -51.9 L20.8 -51.35 Q20.7 -50.25 21.0 -49.25 21.8 -48.5 22.6 -48.2 L22.75 -47.8 22.95 -46.75 Q26.95 -42.25 31.8 -39.7 32.9 -38.0 33.9 -37.05 29.65 -34.4 27.2 -30.35 30.85 -24.7 36.05 -20.65 32.15 -18.75 29.3 -15.85 L29.3 -15.35 29.3 -12.7 Q34.25 -8.55 36.75 -3.85 35.65 -3.7 34.95 -2.8 L35.15 -0.75 Q37.1 8.55 36.4 18.4 L34.8 18.4 Q32.3 17.15 30.3 15.25 L28.5 13.3 Q22.45 5.7 13.45 10.95 L13.15 11.5 13.05 12.0 Q8.65 14.2 5.65 18.2 5.1 17.75 4.85 16.95 4.55 16.0 3.65 15.85 -9.1 13.95 -20.8 20.85 L-20.8 20.5 Q-20.8 18.15 -22.25 16.25 L-22.25 15.75 -22.25 12.0 Q-20.6 10.85 -20.8 8.85 -25.3 6.7 -29.3 3.55 -27.85 0.4 -24.2 -0.85 -21.0 -5.7 -25.75 -8.8 L-25.85 -9.3 -26.3 -10.4 Q-28.2 -11.45 -28.6 -13.05 -26.0 -16.7 -21.35 -18.5 -17.75 -25.1 -25.4 -27.5 L-27.2 -29.65 Q-20.6 -31.7 -15.35 -36.0 L-15.2 -37.05 Q-15.05 -37.9 -15.6 -38.25 -20.35 -41.55 -24.35 -45.2 -18.5 -51.2 -11.65 -55.4 L-11.65 -55.95 -11.65 -57.55 Q-12.2 -58.65 -13.4 -58.95 L-30.0 -58.6 Q-18.75 -65.0 -10.25 -74.5 L-10.2 -75.0 Q-10.15 -77.05 -8.8 -78.7 L-8.8 -79.25 -8.8 -80.85 Q-9.35 -81.95 -10.6 -82.25 -30.65 -74.75 -50.15 -71.85 L-43.4 -85.6 Q-40.95 -87.5 -41.5 -90.4 -46.0 -94.8 -50.85 -98.85 -43.55 -97.6 -36.7 -97.8 L-36.6 -98.3 Q-36.5 -107.8 -42.0 -115.8 L-40.05 -115.8 Q-33.6 -109.15 -24.6 -105.85 -22.75 -105.15 -22.0 -106.85 -18.75 -113.75 -20.8 -121.45 -17.85 -119.6 -15.9 -116.7 L-15.85 -116.15 -15.7 -115.6 Q-13.35 -113.6 -11.65 -116.15 L-11.75 -117.75 Q-12.55 -124.45 -11.65 -131.0 L-7.4 -139.45 -7.35 -140.0 Q-6.9 -143.35 -5.3 -146.35 L0.9 -142.8 2.9 -140.95 5.75 -137.9 Q9.55 -133.0 14.65 -133.65 L15.0 -134.15 15.35 -134.7 16.95 -133.8 Q24.3 -138.4 32.15 -140.5" fill="#ffff00" fill-opacity="0.5019608" fill-rule="evenodd" stroke="none"/>
  </g>
</svg>
