<?xml version="1.0" encoding="UTF-8" standalone="no"?>
<svg xmlns:ffdec="https://www.free-decompiler.com/flash" xmlns:xlink="http://www.w3.org/1999/xlink" ffdec:objectType="shape" height="129.55px" width="57.2px" xmlns="http://www.w3.org/2000/svg">
  <g transform="matrix(1.0, 0.0, 0.0, 1.0, 28.5, 125.15)">
    <path d="M5.0 -125.15 Q15.1 -125.4 17.75 -115.9 18.15 -114.55 18.2 -113.05 18.45 -107.35 14.5 -104.45 L15.6 -104.8 13.5 -103.4 12.55 -103.3 8.8 -102.3 6.85 -101.95 Q8.65 -100.85 9.4 -98.55 10.5 -95.1 12.1 -91.9 L15.2 -85.2 Q16.25 -84.3 16.65 -83.05 L16.95 -82.0 20.2 -76.25 Q22.15 -82.85 22.5 -89.8 L22.35 -92.15 Q20.05 -92.9 18.6 -95.15 18.0 -96.15 18.0 -97.35 18.0 -102.3 22.6 -103.35 28.45 -102.65 28.35 -96.85 L28.45 -95.0 Q29.45 -84.55 26.5 -74.55 25.55 -71.3 22.65 -70.05 22.4 -67.6 18.9 -67.85 17.3 -68.0 16.5 -69.45 13.35 -75.25 10.6 -81.05 7.6 -86.05 5.35 -91.35 5.8 -84.9 6.95 -78.6 L8.0 -70.95 Q8.6 -65.0 9.45 -59.1 11.55 -57.7 11.25 -54.35 11.15 -53.15 11.75 -52.0 12.3 -50.85 12.25 -49.6 14.8 -40.45 16.25 -31.0 L17.75 -21.05 Q19.0 -12.65 19.35 -4.15 23.4 -4.35 26.95 -2.65 28.45 -1.9 28.25 -0.3 27.7 3.45 23.7 2.85 L18.9 2.5 Q16.25 2.45 14.45 0.8 13.45 -0.15 13.35 -1.65 12.8 -11.85 11.35 -21.85 L10.55 -27.1 Q9.2 -35.65 7.3 -44.05 L7.05 -45.35 6.85 -45.85 6.4 -41.25 6.3 -39.9 Q5.6 -34.5 4.3 -29.3 4.4 -28.25 3.6 -26.8 L3.55 -26.7 3.35 -26.25 -1.6 -17.6 Q-4.8 -12.15 -7.4 -6.35 L-9.15 -2.5 Q-5.1 -1.9 -1.25 -0.6 -0.7 -0.4 -0.5 0.25 0.55 3.75 -3.2 4.25 -6.0 4.6 -8.8 4.25 -11.55 3.9 -13.3 1.95 L-13.45 1.75 -14.65 1.25 Q-16.45 0.2 -15.95 -1.9 -14.95 -6.2 -12.75 -10.05 -10.95 -13.15 -9.45 -16.4 -7.5 -20.55 -5.05 -24.5 L-1.55 -29.4 Q-1.7 -31.6 -1.25 -33.75 0.4 -41.2 0.85 -48.85 1.0 -51.1 1.7 -53.2 2.05 -54.3 1.95 -55.4 1.7 -58.0 3.1 -59.25 L2.85 -60.55 0.75 -77.75 -0.5 -88.1 Q-1.0 -92.75 -1.0 -97.4 L-1.05 -97.4 -1.95 -97.15 Q-6.8 -94.6 -11.35 -91.7 -16.4 -88.4 -21.95 -86.1 -24.9 -84.85 -27.25 -86.6 -29.0 -87.85 -28.3 -90.0 -27.25 -93.35 -24.15 -95.55 L-17.0 -100.6 Q-13.45 -103.1 -9.55 -104.45 -7.0 -104.4 -6.15 -102.05 L-6.1 -101.85 Q-3.55 -104.2 -0.8 -103.95 L-0.75 -104.15 -1.9 -104.85 -3.2 -106.75 -3.15 -107.1 Q-6.95 -113.8 -2.55 -120.8 -0.75 -123.65 2.4 -124.5 L5.0 -125.15" fill="#000000" fill-rule="evenodd" stroke="none"/>
  </g>
</svg>
