<?xml version="1.0" encoding="UTF-8" standalone="no"?>
<svg xmlns:ffdec="https://www.free-decompiler.com/flash" xmlns:xlink="http://www.w3.org/1999/xlink" ffdec:objectType="shape" height="168.05px" width="98.5px" xmlns="http://www.w3.org/2000/svg">
  <g transform="matrix(1.0, 0.0, 0.0, 1.0, 45.9, 144.55)">
    <path d="M29.3 -126.9 L29.3 -124.3 Q29.2 -120.25 29.5 -116.35 39.0 -113.8 49.1 -112.25 44.7 -109.2 40.1 -106.8 L39.95 -106.25 39.9 -105.75 Q38.85 -105.2 38.5 -104.15 L38.45 -103.1 Q38.25 -101.35 38.85 -99.9 39.95 -98.8 41.2 -97.85 46.55 -93.55 51.4 -88.8 L50.85 -88.25 Q43.35 -88.0 37.8 -84.35 L37.8 -83.85 37.8 -82.8 Q38.85 -81.15 40.35 -79.95 46.9 -74.8 52.6 -68.5 L27.55 -67.7 26.85 -67.45 26.6 -66.35 26.5 -64.25 28.45 -62.15 28.55 -61.6 28.6 -60.0 29.15 -59.55 Q31.2 -58.1 31.45 -55.75 L23.35 -54.9 22.25 -54.35 22.25 -53.85 22.25 -51.7 23.5 -50.1 23.6 -49.6 23.65 -48.0 Q24.75 -47.05 26.15 -46.4 26.4 -45.6 26.8 -44.9 28.3 -42.35 30.4 -40.25 L42.75 -27.35 42.75 -26.8 42.75 -25.25 Q37.75 -23.9 33.55 -21.15 L33.5 -19.6 Q33.45 -17.45 33.75 -15.35 34.5 -14.9 35.35 -14.5 41.35 -11.5 45.4 -6.85 40.25 -6.2 36.4 -2.45 L36.4 -1.4 36.4 0.7 36.85 1.3 37.1 1.8 37.05 2.3 Q36.9 3.2 37.45 3.9 39.85 6.3 41.85 9.2 L41.95 9.75 42.05 11.3 36.15 10.45 Q26.95 8.25 20.15 13.1 L20.15 14.65 Q20.25 17.0 19.95 19.25 L18.55 18.9 15.9 16.45 Q10.6 11.1 4.25 12.4 L3.95 12.95 3.55 13.95 Q2.55 14.55 1.95 15.55 -0.2 19.35 -1.6 23.5 L-3.0 23.3 Q-3.3 21.3 -4.05 19.4 -4.5 18.35 -5.6 17.9 -12.35 15.5 -18.0 18.4 L-18.0 18.05 -18.2 16.95 -20.1 14.85 Q-20.1 14.05 -20.25 13.3 L-21.0 8.5 -21.4 8.0 Q-22.45 6.9 -22.25 5.3 -24.75 3.1 -26.85 3.0 L-26.45 2.5 -21.0 -4.95 -20.6 -6.5 Q-20.2 -9.35 -20.1 -12.35 -23.35 -14.9 -27.2 -16.25 L-27.0 -17.2 -24.7 -22.05 Q-23.55 -22.55 -22.95 -23.65 L-22.95 -24.15 -22.95 -24.7 -22.25 -25.75 Q-21.0 -27.8 -21.9 -30.0 L-24.0 -32.1 Q-19.1 -32.95 -16.05 -36.7 L-16.05 -37.75 Q-16.9 -42.05 -20.8 -44.45 L-20.5 -45.0 -19.95 -46.05 Q-13.6 -49.2 -7.05 -51.9 L-6.85 -52.4 Q-6.6 -53.2 -6.7 -54.0 -10.5 -56.7 -15.15 -57.35 -14.0 -59.35 -13.35 -61.5 -12.1 -65.45 -12.35 -69.55 -12.9 -70.65 -14.1 -70.95 L-21.6 -66.75 Q-26.6 -63.75 -30.7 -64.05 L-30.75 -66.2 Q-30.8 -69.7 -31.4 -73.05 L-32.35 -73.65 -45.9 -74.3 -45.75 -74.85 -45.35 -76.95 -43.1 -79.5 Q-39.7 -83.4 -36.55 -87.55 -32.2 -88.8 -32.85 -93.55 -36.7 -96.45 -41.65 -97.6 -37.05 -99.7 -32.85 -102.4 -26.3 -103.5 -24.35 -109.1 -26.4 -112.05 -29.85 -113.35 -22.0 -111.5 -14.1 -111.4 L-13.65 -111.8 -13.05 -112.8 -13.15 -113.25 -15.15 -116.0 -15.1 -117.05 Q-14.8 -119.35 -16.6 -120.75 L-16.6 -121.25 -16.6 -121.8 -17.0 -122.3 Q-17.95 -123.2 -18.0 -124.45 -15.5 -124.65 -12.7 -126.05 -12.25 -127.05 -12.45 -128.15 L-13.1 -132.0 Q-13.75 -135.85 -13.75 -139.8 L-8.35 -138.9 Q-6.35 -138.55 -4.65 -137.75 2.75 -134.25 7.95 -139.1 L8.15 -139.65 Q9.25 -142.2 11.3 -144.4 L11.5 -144.5 Q12.75 -144.8 13.05 -143.7 L13.05 -143.15 13.05 -142.65 Q15.7 -140.8 17.0 -137.9 20.95 -129.1 29.3 -126.9" fill="#ffff00" fill-opacity="0.5019608" fill-rule="evenodd" stroke="none"/>
  </g>
</svg>
