<?xml version="1.0" encoding="UTF-8" standalone="no"?>
<svg xmlns:ffdec="https://www.free-decompiler.com/flash" xmlns:xlink="http://www.w3.org/1999/xlink" ffdec:objectType="shape" height="126.2px" width="58.25px" xmlns="http://www.w3.org/2000/svg">
  <g transform="matrix(1.0, 0.0, 0.0, 1.0, 23.55, 122.35)">
    <path d="M5.35 -122.35 Q15.45 -122.6 18.1 -113.1 18.5 -111.75 18.55 -110.25 18.8 -104.55 14.85 -101.65 L15.95 -102.0 13.85 -100.6 12.9 -100.5 9.15 -99.5 8.15 -99.25 8.25 -99.1 11.55 -92.45 Q16.2 -85.45 21.25 -78.85 24.45 -84.75 26.15 -91.2 L26.5 -92.0 Q25.25 -96.55 27.7 -100.9 28.9 -103.0 31.05 -103.35 35.55 -102.35 34.5 -97.55 32.25 -87.35 28.3 -77.85 26.7 -74.0 24.0 -70.95 L23.0 -70.4 Q19.5 -69.6 17.3 -72.8 L13.95 -77.85 10.05 -83.1 8.15 -85.55 8.3 -75.9 Q8.45 -70.75 9.0 -65.6 L9.25 -63.2 9.75 -58.85 Q10.4 -57.85 10.35 -56.45 10.95 -55.5 11.1 -54.05 L11.3 -51.9 Q11.8 -46.7 13.2 -41.75 L15.6 -31.75 Q17.65 -21.75 19.05 -11.65 19.65 -7.6 19.15 -3.7 L24.5 -3.4 Q26.65 -3.2 26.9 -1.1 27.2 1.95 24.0 2.1 20.05 2.35 16.1 2.0 14.15 1.85 13.8 0.15 13.1 -0.7 13.1 -2.35 L12.8 -12.45 Q11.85 -15.2 11.55 -18.25 L11.35 -20.15 Q9.75 -30.2 7.1 -39.95 L6.7 -41.4 6.0 -39.45 Q3.25 -30.05 0.1 -20.75 L-0.55 -19.0 -3.25 -12.15 Q-4.3 -8.25 -5.75 -4.5 L-6.1 -3.5 Q-2.1 -3.2 0.85 -1.15 1.7 -0.6 1.45 0.4 0.6 4.6 -4.3 3.65 -8.3 2.9 -11.8 1.0 -13.05 0.3 -13.1 -1.15 -13.2 -4.9 -11.2 -8.0 -11.35 -9.15 -10.8 -10.15 L-9.9 -11.45 -3.6 -30.35 -0.25 -40.05 Q2.25 -47.1 3.2 -54.65 L3.6 -56.5 Q2.2 -66.5 2.05 -76.7 L1.75 -92.5 Q-5.9 -87.8 -12.8 -82.15 L-15.5 -79.9 Q-17.95 -77.7 -21.0 -78.15 -23.7 -78.55 -23.55 -81.2 -23.3 -87.95 -19.45 -93.7 -14.75 -100.8 -8.2 -106.15 L-7.4 -106.55 Q-3.75 -106.5 -2.85 -103.95 L-2.8 -104.3 Q-6.6 -111.0 -2.2 -118.0 -0.4 -120.85 2.75 -121.7 L5.35 -122.35 M1.7 -100.45 Q-0.05 -101.05 -1.55 -102.05 L-2.85 -103.95 Q-2.5 -102.85 -2.65 -101.25 -2.75 -100.0 -3.3 -98.95 -4.9 -95.75 -8.55 -97.3 -11.4 -94.05 -13.8 -90.45 L-14.3 -89.85 -14.45 -89.35 Q-14.7 -88.5 -15.35 -88.0 L-15.65 -87.75 -14.05 -88.85 -12.65 -89.85 Q-8.15 -94.2 -2.8 -97.5 -0.65 -98.85 1.65 -99.75 L1.7 -100.45" fill="#000000" fill-rule="evenodd" stroke="none"/>
  </g>
</svg>
