<?xml version="1.0" encoding="UTF-8" standalone="no"?>
<svg xmlns:ffdec="https://www.free-decompiler.com/flash" xmlns:xlink="http://www.w3.org/1999/xlink" ffdec:objectType="shape" height="176.0px" width="106.3px" xmlns="http://www.w3.org/2000/svg">
  <g transform="matrix(1.0, 0.0, 0.0, 1.0, 47.3, 151.95)">
    <path d="M6.2 -130.1 Q7.55 -129.3 8.95 -128.85 9.9 -128.5 10.25 -127.65 13.4 -121.85 16.0 -128.1 16.95 -130.4 17.3 -132.85 18.4 -141.05 23.65 -147.25 L23.65 -147.75 23.65 -148.3 24.2 -148.8 31.5 -143.25 Q33.55 -141.45 35.45 -143.25 40.2 -147.85 44.7 -150.95 L46.4 -148.25 Q48.45 -144.4 48.7 -140.3 L49.25 -131.85 Q49.55 -131.6 49.8 -131.6 56.4 -130.95 59.0 -126.9 57.9 -125.9 56.35 -125.2 52.1 -123.25 49.1 -119.7 L49.0 -116.0 Q48.95 -114.35 49.25 -112.8 L50.85 -111.2 51.9 -110.15 50.15 -109.75 Q46.45 -108.9 43.45 -106.6 L43.45 -106.1 43.45 -102.9 43.45 -100.25 Q44.7 -99.4 45.25 -98.1 L45.75 -96.55 Q47.1 -95.5 47.85 -94.0 49.1 -91.65 50.85 -89.65 43.35 -89.1 36.15 -91.1 30.15 -92.75 27.9 -88.25 L27.9 -85.6 27.9 -84.0 28.35 -83.45 28.6 -82.95 Q28.5 -81.8 29.1 -80.85 29.75 -79.85 30.75 -79.25 L30.75 -78.75 30.9 -78.2 31.1 -77.65 Q27.45 -78.45 25.1 -76.25 L25.1 -75.7 25.1 -75.2 25.1 -74.65 25.1 -74.15 25.65 -73.65 26.3 -73.05 26.45 -72.55 26.5 -72.0 33.7 -63.15 Q38.2 -57.2 42.05 -50.85 L42.05 -50.3 42.05 -49.8 42.2 -49.25 Q36.0 -47.25 29.35 -46.9 26.4 -46.75 25.1 -44.1 L25.1 -43.6 25.1 -42.55 25.1 -42.0 25.25 -41.45 25.85 -41.0 26.85 -40.4 Q29.4 -37.15 32.5 -34.25 38.6 -28.6 44.15 -22.4 L44.25 -21.35 44.45 -20.8 44.7 -20.3 Q40.95 -17.2 36.05 -16.6 L35.8 -16.05 35.6 -13.4 Q35.55 -12.55 35.85 -11.8 L41.45 -6.5 51.9 3.55 37.1 4.6 Q32.85 5.0 30.75 8.85 L30.75 10.45 30.8 14.65 Q30.85 17.6 30.55 20.5 24.3 20.1 18.95 16.75 11.9 12.35 5.3 15.55 L5.3 16.1 5.25 16.6 5.15 17.15 Q3.9 18.5 3.5 20.3 3.1 22.15 3.0 24.05 1.95 23.35 1.3 21.9 L-0.15 19.8 -0.3 19.25 -0.35 18.75 Q-0.8 18.2 -1.35 18.0 L-3.8 18.1 Q-10.7 22.0 -17.8 21.4 L-17.95 20.85 -18.0 19.8 -18.0 19.25 -18.0 18.75 -18.35 18.2 -18.7 17.65 Q-18.5 15.95 -19.1 14.35 L-19.4 12.4 -19.75 11.85 -20.1 11.3 -20.1 10.8 -20.1 10.25 Q-24.5 7.7 -29.3 9.0 -28.2 2.8 -28.05 -3.7 L-27.9 -14.8 -26.1 -15.8 Q-22.3 -17.7 -19.75 -21.15 L-18.55 -21.75 -17.65 -22.25 -17.35 -22.8 -17.1 -23.3 Q-16.3 -23.8 -15.6 -24.45 L-14.65 -25.4 Q-14.35 -26.95 -14.4 -28.6 L-14.45 -30.7 -16.2 -34.1 Q-18.35 -38.0 -22.4 -40.25 -18.5 -39.8 -15.55 -42.0 L-15.35 -42.55 -15.2 -43.05 -15.15 -43.6 -15.15 -44.1 Q-15.8 -45.3 -17.0 -45.95 -21.05 -48.15 -23.85 -51.55 L-16.95 -52.9 -13.65 -53.0 Q-7.9 -52.35 -5.3 -56.85 -5.15 -58.3 -6.1 -59.4 -9.05 -62.9 -12.7 -65.85 -11.55 -66.3 -10.55 -66.95 -9.45 -67.65 -8.8 -68.85 L-8.8 -69.35 -8.85 -70.95 -9.0 -72.0 -9.35 -72.5 -9.85 -73.1 -10.25 -73.6 -10.25 -74.15 -10.4 -74.65 -10.6 -75.2 Q-12.2 -77.25 -14.1 -78.75 -20.45 -83.95 -28.6 -86.15 L-29.1 -86.65 -29.45 -87.25 -29.3 -87.75 -29.1 -88.25 -28.75 -88.8 Q-26.95 -89.65 -25.35 -90.8 -20.4 -94.35 -16.05 -98.85 L-15.95 -99.9 -16.15 -100.95 -16.4 -101.5 -33.0 -106.85 Q-41.05 -109.4 -47.3 -112.6 L-44.1 -115.55 Q-41.4 -117.9 -39.9 -121.1 -39.9 -123.15 -41.25 -124.7 -43.7 -127.55 -46.6 -130.3 -45.8 -131.4 -44.5 -131.8 -42.15 -132.55 -40.6 -134.5 L-40.6 -137.15 -40.6 -138.75 -41.35 -139.8 -41.75 -140.4 -42.0 -140.85 Q-41.75 -142.85 -42.85 -144.5 -44.05 -146.25 -44.15 -148.3 L-39.55 -147.9 Q-38.3 -147.75 -37.3 -147.15 -25.5 -140.3 -16.4 -149.7 L-15.5 -150.2 -11.65 -151.8 -11.3 -151.95 -10.25 -151.9 -10.25 -151.8 -10.25 -150.4 -10.3 -144.05 Q-10.35 -140.05 -10.05 -136.1 -6.8 -133.6 -2.1 -135.05 L-1.75 -134.6 -1.75 -134.15 -1.95 -133.65 -2.35 -133.15 -3.15 -132.55 -3.9 -132.05 Q-7.55 -132.05 -10.6 -130.3 L-10.85 -129.2 -10.9 -128.15 -10.75 -127.65 -10.2 -127.2 Q-9.7 -126.9 -9.15 -126.75 L-9.0 -126.75 -8.6 -126.3 Q-7.85 -125.8 -7.4 -126.0 -1.1 -129.1 6.2 -130.1" fill="#ffff00" fill-opacity="0.5019608" fill-rule="evenodd" stroke="none"/>
  </g>
</svg>
