<?xml version="1.0" encoding="UTF-8" standalone="no"?>
<svg xmlns:ffdec="https://www.free-decompiler.com/flash" xmlns:xlink="http://www.w3.org/1999/xlink" ffdec:objectType="shape" height="138.6px" width="64.3px" xmlns="http://www.w3.org/2000/svg">
  <g transform="matrix(1.0, 0.0, 0.0, 1.0, 25.55, 134.8)">
    <path d="M38.55 -125.85 L37.4 -121.2 36.9 -119.75 Q33.05 -110.25 27.3 -101.7 24.95 -98.2 20.3 -98.05 16.35 -97.9 12.5 -96.95 L10.25 -96.75 10.2 -96.75 10.1 -96.6 Q9.6 -87.15 9.7 -77.6 L9.85 -62.3 Q11.75 -61.0 11.65 -58.1 11.6 -55.5 12.0 -53.0 L15.6 -32.9 Q17.5 -22.8 17.95 -12.5 18.15 -8.5 18.9 -4.6 L19.0 -3.6 Q22.3 -4.3 24.65 -2.15 26.3 -0.6 25.1 1.3 24.25 2.65 22.6 2.9 18.25 3.55 14.75 1.3 13.4 0.45 13.05 -1.1 11.95 -6.0 11.75 -11.1 11.35 -21.4 9.45 -31.5 L7.4 -42.75 Q6.7 -34.4 4.75 -26.35 4.05 -23.55 2.4 -21.25 -2.25 -13.25 -5.6 -4.45 -2.45 -2.95 0.1 -0.5 L0.45 0.35 Q0.35 5.05 -4.15 3.35 L-8.95 1.2 Q-10.35 0.55 -11.3 -0.6 -12.45 -2.0 -12.15 -3.3 L-12.05 -3.9 Q-9.25 -13.65 -4.15 -22.55 L-1.7 -26.75 Q-0.25 -31.4 0.4 -36.25 L1.8 -49.75 Q2.0 -51.75 3.65 -52.9 L3.6 -72.75 3.45 -93.65 3.45 -94.8 Q-3.3 -94.2 -9.7 -96.2 -10.45 -96.4 -10.8 -97.2 -15.15 -106.4 -20.9 -115.1 L-23.4 -119.35 Q-25.45 -123.25 -25.55 -127.65 -25.65 -130.4 -24.65 -132.85 -24.35 -133.65 -23.6 -134.15 -22.75 -134.75 -21.9 -134.8 -15.75 -133.8 -17.65 -127.9 -18.0 -126.85 -19.0 -126.25 -18.75 -124.35 -17.6 -122.75 -17.05 -121.95 -17.05 -120.95 -16.2 -120.3 -15.85 -119.35 L-15.55 -118.05 Q-13.1 -114.4 -11.0 -110.6 L-10.6 -109.55 Q-7.8 -106.3 -5.95 -102.4 L-5.75 -101.6 Q-5.3 -101.05 -4.4 -101.1 L4.05 -101.2 4.1 -101.55 3.1 -101.85 Q1.1 -102.45 -0.55 -103.55 L-1.85 -105.45 -1.8 -105.8 Q-5.6 -112.5 -1.2 -119.5 0.6 -122.35 3.75 -123.2 L6.35 -123.85 Q16.45 -124.1 19.1 -114.6 19.5 -113.25 19.55 -111.75 19.75 -107.25 17.35 -104.5 L18.5 -104.65 Q22.85 -105.15 24.6 -109.25 L25.45 -111.0 26.55 -112.55 30.3 -121.0 30.7 -122.1 Q29.5 -127.9 34.45 -130.75 L34.95 -130.9 Q39.7 -130.45 38.55 -125.85" fill="#000000" fill-rule="evenodd" stroke="none"/>
  </g>
</svg>
