<?xml version="1.0" encoding="UTF-8" standalone="no"?>
<svg xmlns:ffdec="https://www.free-decompiler.com/flash" xmlns:xlink="http://www.w3.org/1999/xlink" ffdec:objectType="shape" height="203.05px" width="97.1px" xmlns="http://www.w3.org/2000/svg">
  <g transform="matrix(1.0, 0.0, 0.0, 1.0, 39.2, 178.65)">
    <path d="M11.0 -148.1 L10.95 -141.2 Q8.95 -141.2 7.6 -140.0 L7.05 -140.15 7.4 -140.7 Q9.4 -144.5 10.8 -148.65 11.0 -148.95 11.0 -148.1 M40.6 -169.3 L40.6 -168.75 40.6 -155.5 46.8 -150.4 Q42.85 -147.15 38.5 -144.6 L38.5 -144.05 Q38.3 -141.0 39.4 -138.2 45.75 -133.2 50.5 -126.55 50.05 -126.05 49.6 -126.0 43.85 -125.65 38.85 -123.2 L38.65 -122.65 37.8 -115.8 38.5 -114.75 38.5 -114.2 38.5 -100.95 27.55 -100.45 26.5 -100.25 Q23.6 -96.7 26.5 -93.05 27.6 -88.4 30.75 -84.55 L30.75 -84.0 30.75 -81.9 Q26.45 -83.0 23.65 -80.5 L23.65 -79.95 23.65 -77.85 Q29.75 -69.3 32.65 -59.85 29.8 -59.3 27.9 -57.2 24.65 -57.15 23.65 -54.2 L23.65 -53.65 Q23.55 -52.85 23.85 -52.05 26.2 -50.2 29.15 -49.25 33.8 -45.9 39.55 -43.75 L46.95 -36.35 Q42.9 -33.75 38.5 -31.75 L38.5 -31.25 38.5 -29.1 Q49.25 -23.35 57.9 -14.65 55.75 -13.2 53.15 -13.05 44.9 -12.55 39.9 -7.75 43.4 -3.4 48.4 -0.15 L48.55 0.2 Q50.3 3.35 49.95 6.55 42.0 6.5 36.4 11.3 L36.35 11.85 36.2 12.9 35.65 13.45 35.65 13.95 Q35.25 17.05 36.4 19.8 L35.65 19.95 34.2 19.25 Q32.35 18.6 30.7 17.65 21.8 12.55 12.35 12.0 L12.15 12.4 Q10.4 18.1 10.8 24.4 L9.9 23.55 Q5.6 17.75 -1.05 18.4 L-1.35 18.75 -1.95 19.8 Q-5.55 22.75 -10.25 23.3 L-10.95 22.25 Q-10.1 14.85 -13.05 8.5 L-13.05 7.95 -13.05 7.45 Q-13.5 6.9 -14.0 6.85 -18.6 6.35 -22.95 7.8 L-22.9 6.9 Q-21.4 -7.0 -21.35 -20.65 -20.6 -21.35 -20.1 -22.25 L-20.1 -22.75 -20.1 -23.3 -19.75 -23.8 -19.4 -24.35 -19.4 -24.9 -19.4 -26.45 Q-22.05 -29.4 -24.35 -30.35 -23.15 -30.8 -22.25 -31.75 -15.4 -33.25 -10.95 -38.45 L-10.95 -39.0 -10.95 -42.7 Q-11.85 -43.9 -12.15 -45.35 -10.05 -48.2 -6.7 -49.75 L-6.7 -50.3 -6.7 -51.9 Q-11.8 -55.6 -17.45 -58.75 -10.5 -59.75 -4.75 -63.55 L-4.65 -64.1 Q-4.45 -65.95 -4.75 -67.8 -8.15 -71.75 -10.75 -76.25 -8.6 -76.1 -7.05 -77.3 L-6.85 -77.85 Q-6.6 -78.6 -6.7 -79.45 -8.25 -82.6 -11.1 -84.75 L-9.15 -85.25 Q-6.6 -86.25 -5.1 -88.45 -4.15 -88.65 -3.5 -89.3 L-3.4 -89.85 Q-3.05 -92.7 -3.15 -95.65 -3.8 -96.75 -4.95 -97.2 -10.15 -99.15 -13.75 -101.3 L-13.7 -101.85 Q-12.15 -108.4 -12.55 -115.1 -19.5 -120.65 -28.6 -120.2 -25.65 -126.35 -25.05 -133.45 L-24.7 -134.0 -24.35 -134.5 -24.35 -135.05 -24.35 -138.75 Q-24.9 -139.9 -26.1 -140.25 -32.4 -142.35 -39.2 -141.2 -33.2 -146.65 -33.35 -153.75 -35.75 -156.05 -39.2 -156.75 L-37.4 -157.3 Q-35.5 -159.05 -32.8 -159.35 -24.65 -160.2 -27.2 -166.8 L-16.8 -170.05 Q-10.9 -172.05 -6.0 -171.75 L-5.95 -171.25 Q-5.05 -163.65 -5.1 -155.9 -4.3 -155.45 -3.5 -155.3 L8.15 -154.1 Q7.2 -145.85 1.75 -139.8 L1.75 -139.3 Q1.65 -137.65 1.95 -136.1 5.8 -134.35 9.7 -137.15 12.4 -134.7 14.5 -137.35 L14.5 -137.85 14.5 -149.0 14.85 -149.5 15.2 -150.05 15.25 -150.55 Q15.9 -152.85 15.9 -155.35 L16.25 -155.9 16.6 -156.4 16.6 -156.95 16.6 -174.4 16.95 -174.95 17.3 -175.5 17.3 -176.0 Q17.15 -177.5 18.2 -178.65 20.6 -178.3 22.0 -175.9 28.55 -164.7 40.6 -169.3" fill="#ffff00" fill-opacity="0.5019608" fill-rule="evenodd" stroke="none"/>
  </g>
</svg>
