<?xml version="1.0" encoding="UTF-8" standalone="no"?>
<svg xmlns:ffdec="https://www.free-decompiler.com/flash" xmlns:xlink="http://www.w3.org/1999/xlink" ffdec:objectType="shape" height="160.05px" width="53.4px" xmlns="http://www.w3.org/2000/svg">
  <g transform="matrix(1.0, 0.0, 0.0, 1.0, 19.2, 155.65)">
    <path d="M34.1 -149.75 L33.5 -146.15 Q31.55 -136.2 28.15 -126.55 L26.05 -121.2 25.5 -119.6 24.7 -118.55 Q23.7 -115.15 21.65 -112.2 L21.1 -111.4 Q19.15 -106.55 16.15 -102.05 15.25 -100.7 14.85 -99.15 14.3 -96.9 12.95 -95.15 12.1 -94.05 10.95 -94.1 L11.15 -82.25 Q11.25 -71.75 10.45 -61.6 L10.05 -59.7 Q10.75 -58.25 10.45 -56.0 L10.55 -55.0 Q11.45 -51.9 11.75 -48.65 11.95 -45.95 12.9 -43.35 L12.95 -42.55 Q14.4 -38.05 15.1 -33.3 L17.9 -15.0 Q18.85 -11.15 19.15 -7.05 L19.2 -4.85 Q23.0 -4.3 26.65 -3.05 27.2 -2.85 27.4 -2.25 28.45 1.3 24.7 1.8 L17.1 1.4 15.9 1.2 Q13.55 0.8 13.1 -0.7 12.4 -1.75 12.5 -3.55 12.75 -8.6 11.9 -13.6 L9.45 -28.7 Q8.6 -34.55 7.15 -40.2 6.2 -35.15 4.75 -30.2 L3.15 -24.15 Q0.65 -14.2 -4.5 -5.25 L-5.05 -4.3 -3.65 -2.65 -3.45 -2.35 Q-0.15 -2.3 0.6 0.7 1.1 2.8 -1.0 3.85 L-5.45 4.0 Q-8.55 2.75 -10.25 -0.25 L-10.8 -0.95 Q-12.35 -2.5 -12.2 -3.8 L-11.95 -4.9 Q-10.05 -9.5 -7.35 -13.65 L-6.3 -16.65 -5.55 -17.9 -2.9 -26.35 -2.4 -27.45 Q-1.85 -31.6 -0.6 -35.7 L0.1 -37.0 Q1.85 -46.4 2.6 -56.05 2.75 -57.6 3.35 -58.9 3.1 -60.15 3.85 -61.0 L3.85 -61.2 Q4.9 -71.35 4.9 -81.85 4.9 -89.2 4.5 -96.45 L4.05 -97.35 Q2.35 -101.7 0.05 -105.9 L-0.3 -106.15 -1.6 -108.05 -1.55 -108.4 Q-2.8 -110.65 -3.15 -112.9 -5.65 -119.95 -9.2 -126.5 L-12.4 -132.45 -15.65 -139.1 Q-17.5 -143.0 -18.8 -147.1 -19.4 -148.8 -19.05 -150.55 -18.35 -153.9 -15.2 -154.6 -10.4 -152.75 -11.95 -147.45 L-12.0 -147.15 Q-9.8 -142.8 -8.15 -138.25 -6.6 -133.9 -4.15 -130.05 L-3.2 -128.3 -0.55 -122.7 Q1.2 -125.05 4.0 -125.8 L6.6 -126.45 Q15.25 -126.65 18.45 -119.75 L21.4 -126.85 23.65 -132.15 Q25.05 -138.3 26.8 -144.35 L27.0 -145.4 Q24.55 -149.4 27.2 -153.55 28.4 -155.4 30.35 -155.65 34.8 -154.65 34.1 -149.75" fill="#000000" fill-rule="evenodd" stroke="none"/>
  </g>
</svg>
