<?xml version="1.0" encoding="UTF-8" standalone="no"?>
<svg xmlns:ffdec="https://www.free-decompiler.com/flash" xmlns:xlink="http://www.w3.org/1999/xlink" ffdec:objectType="shape" height="165.35px" width="48.35px" xmlns="http://www.w3.org/2000/svg">
  <g transform="matrix(1.0, 0.0, 0.0, 1.0, 15.75, 161.65)">
    <path d="M32.35 -155.2 L29.7 -145.25 26.8 -135.1 26.0 -132.0 21.0 -112.15 Q19.25 -105.65 15.1 -100.25 L14.3 -98.8 Q13.65 -97.15 12.25 -96.3 L12.3 -85.8 12.0 -64.9 Q11.95 -61.5 11.45 -58.2 L11.15 -56.35 11.45 -54.75 Q11.65 -52.8 12.35 -51.0 16.1 -41.35 17.2 -31.15 L17.9 -25.6 Q18.95 -21.05 19.35 -16.35 20.0 -9.65 20.05 -2.9 23.05 -3.4 24.7 -1.0 25.95 0.9 24.35 2.55 23.5 3.4 22.25 3.55 18.9 4.0 15.85 2.85 13.5 2.0 13.6 -0.5 13.9 -10.6 12.5 -20.4 11.0 -30.65 8.7 -40.75 L8.45 -41.95 Q7.45 -37.35 5.9 -33.0 4.8 -27.9 3.0 -22.95 L2.45 -22.15 2.2 -20.3 Q2.0 -19.5 1.4 -18.95 0.85 -16.55 -0.1 -14.2 L-0.8 -13.15 -5.9 -4.95 Q-5.9 -4.4 -5.5 -3.8 L-4.6 -2.9 Q-1.35 -3.45 0.3 -1.0 1.6 0.9 -0.2 2.3 -2.85 4.45 -6.45 3.15 -10.0 1.8 -12.05 -1.5 -14.5 -5.6 -11.25 -9.45 L-9.75 -11.35 Q-5.3 -17.1 -3.5 -24.1 L-2.5 -25.95 Q-2.4 -28.5 -1.45 -30.75 0.55 -35.6 1.75 -40.7 2.65 -44.55 2.9 -48.45 3.1 -51.05 3.95 -53.4 L4.4 -54.15 4.55 -55.4 Q4.55 -56.9 4.85 -58.45 L4.95 -58.75 5.8 -67.75 6.1 -75.65 6.15 -95.05 Q5.45 -95.7 5.05 -96.9 L1.85 -106.0 Q0.85 -106.45 -0.05 -107.05 L-1.35 -108.95 -1.3 -109.3 Q-3.95 -113.95 -2.65 -118.7 -5.05 -125.4 -7.75 -131.9 -12.3 -139.6 -14.8 -148.25 L-15.55 -151.2 Q-16.35 -155.4 -13.55 -157.9 -13.0 -158.4 -12.35 -158.45 -6.6 -158.05 -6.05 -152.4 -5.75 -149.75 -7.85 -148.15 -4.9 -139.6 -0.95 -131.6 L1.7 -125.5 Q2.85 -126.3 4.25 -126.7 L6.85 -127.35 Q13.95 -127.55 17.4 -122.85 L18.45 -127.75 Q20.3 -136.9 23.4 -145.75 L24.25 -149.2 24.55 -150.8 Q21.9 -155.0 25.0 -159.3 26.45 -161.3 28.6 -161.65 33.65 -160.45 32.35 -155.2" fill="#000000" fill-rule="evenodd" stroke="none"/>
  </g>
</svg>
