<?xml version="1.0" encoding="UTF-8" standalone="no"?>
<svg xmlns:ffdec="https://www.free-decompiler.com/flash" xmlns:xlink="http://www.w3.org/1999/xlink" ffdec:objectType="shape" height="200.35px" width="81.05px" xmlns="http://www.w3.org/2000/svg">
  <g transform="matrix(1.0, 0.0, 0.0, 1.0, 32.3, 174.05)">
    <path d="M0.0 -156.4 Q1.75 -157.4 3.2 -156.95 6.35 -153.5 9.85 -150.4 10.5 -149.8 11.1 -149.95 14.9 -151.1 17.35 -155.0 18.45 -156.7 18.8 -158.8 L21.35 -174.05 Q23.9 -173.5 26.85 -171.95 33.05 -168.8 37.25 -173.35 37.6 -171.9 38.5 -170.7 L40.1 -158.0 Q44.45 -156.5 47.7 -153.6 L39.2 -140.35 39.2 -139.8 39.2 -137.7 41.35 -135.6 44.25 -133.4 Q48.0 -131.2 48.75 -128.7 44.85 -125.5 40.25 -123.9 L39.9 -122.85 Q38.55 -122.45 37.8 -121.25 L37.75 -120.75 Q37.55 -117.95 38.15 -115.45 40.8 -114.2 42.05 -111.75 41.45 -111.0 41.15 -110.15 35.4 -106.9 31.25 -102.2 29.7 -101.95 29.3 -100.6 L29.3 -100.1 Q29.2 -99.0 29.5 -97.95 30.25 -97.15 31.45 -96.9 32.0 -95.75 33.4 -95.5 34.6 -93.55 36.4 -92.3 L28.95 -91.55 Q25.55 -91.25 25.1 -88.6 26.25 -87.05 27.9 -86.65 L27.9 -86.15 27.9 -83.5 Q29.2 -82.1 29.85 -80.3 28.65 -80.0 27.9 -79.1 L27.85 -78.55 27.75 -77.5 27.2 -76.95 27.2 -76.45 27.2 -74.3 27.9 -73.25 27.9 -72.7 27.9 -72.2 Q35.35 -66.35 40.25 -58.95 L29.3 -49.4 29.3 -48.9 Q29.2 -47.25 29.5 -45.7 35.9 -40.25 41.3 -34.05 36.8 -31.2 32.85 -27.35 L32.85 -26.8 Q32.7 -23.85 33.0 -21.0 34.7 -18.9 37.1 -17.9 44.4 -14.8 45.4 -8.3 41.15 -4.1 36.4 -0.35 L36.35 0.2 Q36.25 2.35 36.55 4.45 40.45 7.8 43.45 11.3 L26.9 12.4 Q25.6 12.55 25.1 13.8 L25.05 14.3 Q24.65 17.95 25.8 21.2 L23.5 21.05 Q19.25 17.8 14.05 16.1 11.6 15.25 10.65 17.4 8.75 21.7 5.85 25.6 4.3 26.75 2.85 25.95 L1.95 24.9 1.8 24.4 1.6 23.3 Q-2.15 18.0 -6.9 13.65 -7.9 12.75 -9.1 12.95 L-22.95 14.3 -22.85 10.1 Q-22.45 0.25 -31.4 -0.7 L-28.6 -5.3 Q-28.75 -7.15 -27.35 -8.45 L-26.85 -9.95 Q-23.2 -17.35 -29.85 -19.95 -27.65 -24.55 -22.8 -26.4 -15.8 -29.1 -15.35 -35.3 -19.35 -38.1 -22.4 -40.95 -19.85 -42.85 -17.65 -45.2 -14.8 -46.3 -13.05 -48.9 L-11.65 -49.4 -11.35 -49.8 Q-9.7 -52.65 -10.25 -56.15 -10.95 -57.35 -12.35 -57.7 -12.6 -60.3 -15.0 -61.25 L-15.2 -61.6 Q-15.75 -62.4 -15.55 -63.2 -11.6 -65.5 -10.25 -69.55 L-10.95 -70.6 -10.95 -71.15 -10.95 -71.65 Q-11.85 -73.1 -13.6 -73.45 L-15.55 -76.1 Q-10.05 -78.15 -5.3 -81.55 L-5.3 -82.1 -5.3 -83.65 Q-13.05 -87.85 -20.3 -90.9 L-15.9 -94.25 Q-15.35 -100.0 -21.35 -101.9 -25.15 -103.1 -26.65 -105.05 L-20.65 -108.9 -18.9 -111.55 -18.75 -112.1 Q-18.6 -114.0 -18.9 -115.8 -22.1 -119.2 -26.85 -120.55 -27.35 -122.1 -28.95 -122.5 -27.75 -122.8 -27.2 -123.9 -24.85 -127.85 -24.35 -132.4 -27.95 -136.0 -32.3 -137.5 L-21.7 -145.45 -21.6 -146.0 -21.55 -148.65 Q-22.35 -149.8 -23.65 -150.4 L-23.85 -150.95 -24.0 -151.45 Q-27.85 -152.9 -29.65 -156.25 -23.05 -156.25 -18.7 -159.95 L-18.7 -160.45 -18.7 -162.05 Q-21.0 -165.6 -22.05 -169.3 -18.65 -166.85 -14.9 -165.1 L-11.95 -165.2 Q-6.8 -168.45 -2.45 -172.65 L-2.5 -172.1 Q-2.9 -164.5 -1.6 -157.3 L0.0 -156.4" fill="#ffff00" fill-opacity="0.5019608" fill-rule="evenodd" stroke="none"/>
  </g>
</svg>
