<?xml version="1.0" encoding="UTF-8" standalone="no"?>
<svg xmlns:ffdec="https://www.free-decompiler.com/flash" xmlns:xlink="http://www.w3.org/1999/xlink" ffdec:objectType="shape" height="159.65px" width="50.4px" xmlns="http://www.w3.org/2000/svg">
  <g transform="matrix(1.0, 0.0, 0.0, 1.0, 15.9, 156.05)">
    <path d="M29.3 -156.0 Q34.35 -156.45 34.5 -151.75 34.55 -149.05 33.45 -146.7 33.25 -144.1 32.4 -141.65 31.95 -140.35 31.0 -139.3 30.3 -135.5 29.0 -131.8 28.55 -130.5 27.55 -129.5 26.7 -126.0 25.5 -122.6 25.05 -121.35 24.25 -120.25 23.9 -118.3 23.15 -116.45 L21.8 -113.9 Q18.45 -105.25 14.55 -96.8 14.1 -95.7 12.9 -95.6 L12.75 -95.55 Q12.45 -86.65 12.3 -77.6 L12.1 -61.4 Q13.35 -59.8 12.9 -57.0 L12.8 -56.3 12.95 -54.8 Q13.05 -49.65 14.15 -44.7 16.35 -34.8 17.55 -24.6 18.75 -14.4 20.35 -4.25 L20.4 -3.15 Q22.95 -3.2 25.55 -1.95 27.05 -1.2 26.95 0.45 26.85 2.8 24.5 3.3 L17.2 3.1 Q14.3 2.35 14.0 -0.75 L13.0 -10.85 Q12.05 -21.05 10.45 -31.0 L9.5 -36.8 Q8.3 -32.4 6.65 -28.1 5.2 -24.25 3.3 -20.6 1.4 -17.05 -0.95 -13.7 -3.7 -9.8 -5.85 -5.55 L-6.7 -4.05 Q-3.45 -2.9 -0.35 -1.35 0.45 -0.95 0.4 -0.1 0.3 4.2 -4.35 3.05 L-9.6 1.85 Q-11.2 1.5 -12.6 0.65 -14.55 -0.55 -14.65 -1.95 -15.2 -3.4 -14.05 -5.25 L-3.0 -22.5 -1.45 -25.25 Q2.7 -34.55 4.45 -44.7 L4.75 -46.4 Q4.55 -47.25 4.75 -48.35 5.4 -52.3 5.65 -56.25 L5.5 -56.95 Q5.1 -58.85 5.8 -60.0 L6.15 -79.6 6.45 -98.1 1.25 -105.05 0.45 -105.55 -0.85 -107.45 -0.8 -107.7 -1.55 -108.55 Q-5.45 -112.7 -8.25 -117.4 L-8.95 -118.8 Q-11.55 -125.85 -13.75 -132.85 -16.15 -140.5 -15.9 -148.75 -15.8 -152.95 -12.0 -153.85 -6.5 -152.95 -7.6 -148.0 -8.0 -146.4 -9.65 -145.95 -9.15 -136.85 -5.85 -128.35 L-3.9 -123.4 Q-2.95 -120.95 -1.6 -118.75 L-0.2 -121.5 Q1.6 -124.35 4.75 -125.2 L7.35 -125.85 Q14.65 -126.05 18.1 -121.1 L20.15 -127.55 Q20.55 -128.75 21.25 -129.85 L25.9 -144.0 26.4 -145.5 26.65 -146.0 Q24.8 -147.85 25.0 -150.8 25.25 -155.05 29.3 -156.0" fill="#000000" fill-rule="evenodd" stroke="none"/>
  </g>
</svg>
