<?xml version="1.0" encoding="UTF-8" standalone="no"?>
<svg xmlns:ffdec="https://www.free-decompiler.com/flash" xmlns:xlink="http://www.w3.org/1999/xlink" ffdec:objectType="shape" height="198.45px" width="83.7px" xmlns="http://www.w3.org/2000/svg">
  <g transform="matrix(1.0, 0.0, 0.0, 1.0, 33.9, 172.85)">
    <path d="M40.65 -166.4 L46.25 -165.6 Q45.9 -164.65 45.05 -164.0 L44.85 -163.45 Q43.65 -159.05 44.3 -154.45 45.3 -153.45 46.8 -153.4 49.15 -152.1 49.6 -150.75 48.65 -148.4 46.45 -147.05 L46.25 -146.5 45.9 -145.45 42.05 -141.2 42.0 -140.7 41.85 -139.65 40.6 -137.5 40.6 -137.0 40.6 -134.85 41.8 -134.1 Q46.7 -132.15 49.8 -128.0 L39.9 -118.45 39.9 -117.9 39.9 -115.25 Q42.0 -112.15 44.7 -109.45 36.7 -105.7 28.95 -101.3 L28.25 -99.75 27.2 -98.7 27.2 -98.15 27.2 -95.5 Q31.2 -92.7 32.5 -89.85 30.65 -90.35 28.95 -91.45 27.85 -91.3 27.2 -90.4 L27.2 -89.85 Q27.05 -88.2 27.35 -86.65 29.45 -85.9 29.5 -84.9 L29.3 -84.35 29.15 -83.85 Q27.95 -83.55 27.2 -82.6 27.2 -81.0 27.75 -79.65 30.65 -72.0 36.9 -66.2 L36.4 -65.65 Q28.4 -64.9 22.25 -60.7 L22.25 -60.2 22.25 -58.05 23.35 -56.7 Q29.45 -45.85 37.8 -36.9 L37.8 -36.35 37.8 -34.75 36.75 -33.15 Q29.8 -31.5 25.1 -26.8 L25.1 -26.3 25.1 -24.7 Q36.8 -16.75 49.6 -10.95 43.25 -10.15 38.5 -6.15 L38.45 -5.65 Q38.25 -2.85 38.85 -0.35 43.05 3.65 46.45 8.65 42.65 8.25 38.95 6.8 32.5 4.2 27.9 7.8 L27.9 8.85 Q28.15 15.85 27.55 22.6 25.0 23.0 23.25 21.25 L21.4 19.7 Q20.05 18.7 19.15 17.35 15.75 12.3 10.6 13.8 L10.4 14.35 9.55 19.1 8.15 21.2 8.15 21.75 Q8.3 22.45 7.95 22.95 6.65 21.25 4.95 20.15 -0.4 24.1 -6.15 25.6 -8.25 21.45 -11.35 18.05 -15.95 13.05 -22.95 15.4 L-22.95 14.85 -22.95 13.8 -23.65 12.75 -23.7 12.2 Q-24.3 8.8 -24.35 5.3 -27.2 2.2 -31.6 2.85 -28.55 -1.45 -25.75 -6.0 -25.6 -12.15 -32.1 -14.1 -23.9 -15.9 -17.45 -20.45 -17.2 -21.25 -17.55 -21.9 -20.3 -27.1 -26.3 -29.65 -23.15 -30.35 -20.5 -32.35 L-19.15 -32.95 Q-12.45 -34.1 -12.55 -40.25 -14.3 -41.7 -14.8 -43.4 -9.65 -45.85 -4.75 -48.7 L-4.65 -49.25 -4.6 -51.9 Q-7.2 -54.35 -10.65 -55.85 -16.35 -58.3 -19.75 -61.25 -11.85 -63.55 -5.45 -68.5 L-5.35 -69.0 -5.3 -71.65 Q-5.95 -72.95 -7.4 -73.25 L-12.0 -78.0 -7.6 -81.9 -7.5 -82.45 -7.4 -86.15 -3.35 -90.4 -3.2 -90.9 Q-3.05 -91.75 -3.35 -92.5 -3.95 -93.5 -5.0 -93.8 L-25.05 -99.55 -19.85 -103.4 Q-13.0 -107.95 -12.35 -115.45 -13.7 -117.0 -15.8 -117.75 -24.5 -120.95 -33.35 -120.05 L-33.2 -120.4 -32.65 -121.45 Q-28.35 -125.15 -28.6 -131.0 -31.3 -134.6 -33.9 -136.65 -29.25 -140.65 -25.05 -145.1 L-25.05 -145.65 -25.05 -147.25 Q-27.1 -150.1 -29.5 -152.5 L-19.65 -153.7 Q-19.15 -153.75 -18.7 -154.3 L-18.7 -154.8 -18.7 -155.35 -18.0 -156.4 Q-19.4 -164.25 -15.55 -169.65 -13.35 -167.0 -13.05 -163.8 L-12.5 -162.7 Q-12.0 -161.45 -10.75 -161.85 -5.95 -163.4 -1.75 -163.65 L-1.7 -159.95 Q-1.6 -152.05 0.55 -144.6 2.85 -142.55 4.6 -145.1 3.9 -149.25 5.85 -152.5 5.5 -158.35 9.0 -163.1 L9.9 -163.3 Q12.1 -162.2 14.5 -161.9 17.8 -158.6 21.9 -160.65 L22.0 -161.15 Q21.85 -167.25 23.65 -172.85 30.8 -167.55 40.65 -166.4" fill="#ffff00" fill-opacity="0.5019608" fill-rule="evenodd" stroke="none"/>
  </g>
</svg>
