<?xml version="1.0" encoding="UTF-8" standalone="no"?>
<svg xmlns:ffdec="https://www.free-decompiler.com/flash" xmlns:xlink="http://www.w3.org/1999/xlink" ffdec:objectType="shape" height="157.8px" width="49.45px" xmlns="http://www.w3.org/2000/svg">
  <g transform="matrix(1.0, 0.0, 0.0, 1.0, 16.75, 154.25)">
    <path d="M25.95 -153.85 L27.9 -154.25 Q33.4 -153.65 32.6 -148.15 31.6 -141.1 29.55 -134.35 29.7 -132.35 29.4 -130.4 29.2 -129.1 28.5 -128.0 27.25 -118.55 22.6 -110.1 L21.3 -107.65 Q17.7 -100.7 15.0 -93.5 L14.45 -92.3 Q13.75 -91.05 12.9 -90.55 L13.15 -79.55 13.6 -58.6 13.5 -54.35 Q15.9 -52.65 16.15 -49.0 L16.3 -47.65 19.25 -27.25 Q20.6 -16.95 20.3 -6.6 L20.15 -3.85 Q24.25 -3.85 26.95 -1.0 27.55 -0.3 27.2 0.55 25.75 4.35 21.35 2.95 L17.55 1.85 17.35 1.8 Q14.2 2.1 14.2 -1.15 L14.05 -13.85 Q13.85 -24.25 12.0 -34.3 11.75 -35.55 11.65 -36.9 11.35 -40.5 10.65 -44.0 L9.95 -40.05 9.05 -34.5 Q8.25 -29.65 6.9 -25.0 4.75 -17.8 -0.8 -12.4 -5.1 -8.2 -8.5 -3.45 L-1.3 -1.65 Q-0.3 -1.35 -0.05 -0.35 0.8 3.6 -3.55 3.55 L-7.6 3.3 Q-11.15 3.0 -14.1 1.5 -15.3 1.45 -16.0 0.35 -16.9 -0.4 -16.75 -1.55 -16.85 -2.45 -16.45 -3.3 -13.9 -8.6 -9.25 -12.1 -5.1 -16.55 -1.65 -21.6 1.05 -25.55 1.85 -30.35 L2.1 -30.9 Q2.2 -34.6 2.95 -38.1 L3.5 -40.4 Q5.0 -46.45 5.8 -52.55 6.0 -54.3 7.15 -55.1 L7.2 -74.5 Q7.25 -83.95 6.8 -93.35 6.05 -93.55 5.45 -94.2 -1.0 -101.3 -6.25 -109.25 -11.6 -117.3 -13.05 -126.8 L-16.0 -146.7 Q-16.55 -150.55 -14.25 -153.15 -13.85 -153.55 -13.25 -153.75 L-12.7 -153.85 Q-7.8 -153.1 -8.15 -148.05 -8.25 -146.65 -9.25 -145.65 L-6.7 -127.65 Q-5.5 -120.3 -1.55 -113.9 -1.45 -117.45 0.8 -121.0 2.6 -123.85 5.75 -124.7 L8.35 -125.35 Q16.4 -125.55 19.75 -119.5 L20.2 -120.3 20.25 -121.15 20.9 -122.45 24.65 -140.15 25.4 -144.45 Q21.9 -147.8 24.25 -152.55 24.75 -153.6 25.95 -153.85" fill="#000000" fill-rule="evenodd" stroke="none"/>
  </g>
</svg>
