<?xml version="1.0" encoding="UTF-8" standalone="no"?>
<svg xmlns:ffdec="https://www.free-decompiler.com/flash" xmlns:xlink="http://www.w3.org/1999/xlink" ffdec:objectType="shape" height="155.65px" width="50.1px" xmlns="http://www.w3.org/2000/svg">
  <g transform="matrix(1.0, 0.0, 0.0, 1.0, 16.45, 151.75)">
    <path d="M29.65 -151.75 Q34.7 -150.35 33.4 -145.05 33.1 -143.8 33.1 -142.5 33.15 -133.1 29.55 -124.75 28.1 -119.75 25.5 -115.25 20.05 -105.6 16.2 -95.4 15.1 -92.35 12.75 -92.95 L12.5 -84.45 Q11.85 -74.2 12.15 -63.8 L12.2 -59.55 Q16.15 -58.3 14.8 -54.4 L15.1 -53.55 Q15.5 -52.15 16.15 -50.8 20.75 -41.5 21.05 -31.0 21.35 -20.65 20.35 -10.3 L20.0 -4.75 19.85 -2.8 25.95 -1.5 Q26.9 -1.25 27.15 -0.2 27.9 3.15 24.35 3.7 20.3 4.35 17.0 2.8 13.3 3.0 13.5 -0.85 13.9 -11.2 14.75 -21.5 15.15 -26.8 14.55 -31.9 L13.8 -37.4 13.6 -38.8 12.1 -44.55 11.85 -45.15 8.4 -33.15 7.6 -30.1 7.2 -28.35 Q6.9 -26.85 6.3 -25.9 6.3 -24.7 5.5 -23.05 3.25 -18.5 0.15 -14.4 -3.65 -9.35 -6.7 -3.8 -3.35 -3.25 -0.35 -1.7 0.45 -1.35 0.4 -0.45 0.25 4.0 -4.8 3.2 L-9.4 2.65 Q-12.55 2.3 -13.2 -0.05 -14.0 -2.3 -13.1 -4.8 -11.25 -9.65 -8.05 -13.85 -3.25 -20.15 0.25 -27.0 -0.05 -29.0 0.85 -31.0 L2.65 -35.9 Q5.05 -43.85 7.05 -51.85 5.8 -52.75 5.8 -54.9 L5.7 -60.75 Q5.5 -71.15 6.05 -81.4 L6.3 -89.25 6.2 -89.4 Q5.05 -90.95 4.15 -92.6 L-6.6 -111.5 Q-7.95 -113.85 -8.4 -116.55 -9.0 -117.35 -9.2 -118.35 L-9.55 -119.95 Q-11.6 -124.35 -13.05 -129.15 -15.0 -135.75 -16.3 -142.45 -16.8 -145.2 -15.85 -147.7 -15.3 -148.95 -13.95 -149.2 L-13.4 -149.3 Q-8.2 -148.1 -9.25 -142.85 -9.65 -140.95 -9.05 -138.9 -6.7 -131.4 -4.7 -123.85 -3.3 -121.35 -2.4 -118.55 L-2.2 -117.25 -1.2 -115.5 0.3 -118.5 Q2.1 -121.35 5.25 -122.2 L7.85 -122.85 Q16.0 -123.05 19.3 -116.9 L19.75 -117.75 22.7 -124.6 23.3 -125.45 Q26.5 -133.1 26.8 -141.6 L26.9 -142.65 Q23.95 -146.35 26.75 -150.05 27.95 -151.6 29.65 -151.75" fill="#000000" fill-rule="evenodd" stroke="none"/>
  </g>
</svg>
