<?xml version="1.0" encoding="UTF-8" standalone="no"?>
<svg xmlns:ffdec="https://www.free-decompiler.com/flash" xmlns:xlink="http://www.w3.org/1999/xlink" ffdec:objectType="shape" height="201.0px" width="92.0px" xmlns="http://www.w3.org/2000/svg">
  <g transform="matrix(1.0, 0.0, 0.0, 1.0, 41.65, 172.55)">
    <path d="M44.15 -161.55 Q44.35 -158.9 42.05 -157.45 42.35 -153.8 39.9 -151.1 L39.9 -150.6 39.9 -144.25 45.55 -136.3 Q45.4 -135.75 45.05 -135.55 40.45 -133.25 36.4 -131.0 L36.4 -130.45 36.4 -127.3 Q43.15 -119.1 47.3 -109.8 46.2 -107.7 42.05 -107.55 36.85 -107.4 33.55 -104.3 L33.55 -103.8 33.55 -99.55 38.3 -91.1 38.45 -90.55 38.5 -88.95 31.8 -89.15 Q27.25 -91.45 26.5 -86.5 27.75 -84.35 30.75 -84.75 35.75 -82.0 37.25 -76.8 28.9 -73.4 22.25 -68.15 L22.25 -67.6 Q22.15 -66.5 22.45 -65.5 L40.95 -47.45 41.1 -46.95 41.3 -45.9 41.65 -44.85 41.35 -44.3 41.15 -43.75 Q39.0 -42.6 37.8 -40.6 L37.8 -40.05 Q37.65 -37.9 37.95 -35.8 39.05 -35.2 39.2 -34.25 L39.2 -33.7 39.2 -33.15 Q45.1 -29.05 44.7 -22.6 L32.15 -16.25 32.15 -14.65 Q32.15 -13.6 32.65 -12.9 40.85 -1.65 50.35 8.65 L37.5 10.05 Q35.45 10.35 34.25 12.2 32.75 18.0 30.0 23.3 L28.95 23.5 25.55 21.45 Q18.8 16.85 11.85 18.2 10.6 23.9 7.05 28.25 L6.2 28.45 Q3.95 25.35 1.25 22.6 L1.1 22.1 1.05 21.55 Q0.5 20.45 -0.7 20.45 -7.9 20.5 -13.75 22.45 L-13.75 21.9 -13.75 19.8 Q-11.7 16.15 -12.25 11.85 -12.35 11.0 -12.95 10.65 -18.9 6.8 -25.75 9.2 L-25.55 8.8 Q-23.35 1.65 -24.2 -5.45 -27.35 -7.85 -30.9 -8.65 -27.4 -13.9 -21.7 -17.1 L-21.55 -17.65 -21.55 -18.15 -20.3 -19.75 -20.2 -20.3 -20.1 -22.95 Q-23.0 -25.45 -27.0 -26.45 -24.45 -28.35 -21.45 -29.45 -13.1 -32.45 -6.0 -37.05 L-5.95 -37.6 Q-5.7 -39.35 -6.5 -40.75 -10.7 -43.5 -15.15 -45.2 -17.0 -46.5 -17.65 -47.85 L-16.75 -49.95 Q-14.2 -51.2 -12.7 -53.65 -6.65 -55.75 -2.45 -60.35 -4.05 -64.7 -9.7 -66.0 -5.45 -68.5 -2.45 -72.35 -2.45 -73.7 -3.0 -74.75 -5.55 -79.6 -11.8 -80.65 -8.95 -84.1 -4.95 -86.5 -4.25 -88.35 -2.65 -89.65 L-2.55 -90.2 -2.45 -92.85 Q-8.7 -96.9 -14.45 -100.25 L-13.75 -101.3 -13.75 -101.85 -13.75 -105.55 Q-15.25 -107.9 -18.05 -108.5 -24.35 -109.85 -28.6 -109.6 -27.9 -110.85 -27.7 -112.25 L-27.4 -112.8 Q-25.05 -117.9 -25.75 -123.9 L-26.95 -125.15 Q-33.15 -130.2 -41.65 -131.85 L-40.35 -132.7 Q-35.1 -134.95 -31.4 -139.1 L-29.65 -139.65 Q-28.3 -140.7 -27.35 -142.1 L-27.25 -142.65 -27.2 -143.7 Q-32.65 -147.5 -36.35 -152.7 L-26.85 -153.05 Q-25.2 -154.45 -23.85 -156.05 -23.6 -158.05 -22.25 -159.6 L-21.0 -158.25 Q-20.0 -156.95 -18.4 -157.0 L-1.95 -158.0 -2.45 -157.45 -2.45 -156.95 -2.45 -154.8 -3.15 -153.75 -3.2 -153.25 Q-3.3 -150.3 -3.0 -147.4 L0.35 -145.65 0.35 -145.1 Q-0.15 -139.8 1.75 -135.05 4.25 -131.6 8.3 -133.65 9.15 -135.35 8.9 -137.35 7.45 -148.1 9.55 -158.55 16.05 -156.8 21.9 -153.6 23.15 -153.95 23.35 -155.1 24.8 -164.0 27.9 -172.45 L28.1 -172.55 Q31.95 -166.7 34.45 -159.4 39.4 -158.05 44.15 -161.55" fill="#ffff00" fill-opacity="0.5019608" fill-rule="evenodd" stroke="none"/>
  </g>
</svg>
