<?xml version="1.0" encoding="UTF-8" standalone="no"?>
<svg xmlns:ffdec="https://www.free-decompiler.com/flash" xmlns:xlink="http://www.w3.org/1999/xlink" ffdec:objectType="shape" height="152.85px" width="52.1px" xmlns="http://www.w3.org/2000/svg">
  <g transform="matrix(1.0, 0.0, 0.0, 1.0, 19.45, 148.95)">
    <path d="M27.2 -148.4 L28.25 -148.95 Q33.3 -148.35 32.55 -142.85 31.1 -132.8 28.3 -122.9 L25.7 -114.25 25.55 -112.1 Q25.3 -111.0 24.65 -110.0 22.8 -102.55 18.1 -96.35 16.35 -94.1 14.2 -92.2 13.15 -91.25 11.95 -91.3 L12.2 -82.25 Q12.25 -71.9 12.45 -61.5 14.1 -60.3 14.55 -57.95 L14.85 -57.15 Q19.5 -47.9 21.55 -37.8 22.1 -35.25 22.05 -32.7 23.2 -31.2 22.85 -28.65 22.15 -23.55 22.35 -18.35 22.65 -10.75 21.1 -3.5 23.55 -2.8 25.55 -1.15 26.6 -0.3 26.15 0.9 24.85 4.5 20.6 3.5 18.2 2.9 16.1 1.7 14.85 1.0 14.75 -0.4 14.45 -4.1 15.6 -7.3 16.0 -17.0 16.0 -26.65 16.0 -28.65 16.4 -30.5 16.15 -31.1 16.05 -31.85 15.0 -39.4 12.3 -46.4 11.0 -37.25 9.35 -28.05 9.1 -26.7 8.3 -26.0 L6.6 -22.85 Q1.85 -13.8 -3.85 -5.3 L-5.2 -3.35 Q-2.1 -2.5 0.65 -0.85 1.45 -0.35 1.45 0.55 1.45 4.85 -2.95 3.65 -6.2 2.75 -9.55 2.45 -12.7 2.1 -13.25 0.0 -13.7 -1.05 -13.1 -2.7 L-11.8 -5.2 Q-5.95 -13.5 -1.15 -22.5 0.8 -26.15 3.4 -29.2 3.3 -30.2 3.5 -31.25 5.15 -41.25 6.1 -51.3 L6.05 -52.15 6.1 -70.95 Q6.1 -81.35 5.6 -91.6 L5.6 -92.05 4.6 -92.8 Q3.35 -94.1 2.25 -95.55 -3.65 -103.45 -8.1 -112.05 L-10.85 -117.15 Q-12.95 -121.1 -14.5 -125.2 L-18.15 -134.45 Q-18.65 -135.7 -18.65 -137.1 -20.45 -141.5 -18.15 -145.45 -17.65 -146.2 -16.75 -146.5 L-15.55 -146.8 Q-10.1 -146.35 -10.75 -141.3 -10.95 -139.7 -12.35 -138.85 -11.7 -135.05 -9.9 -131.5 -9.35 -130.35 -9.25 -129.05 L-8.55 -128.0 -8.2 -126.7 -1.75 -114.4 -0.2 -117.5 Q1.6 -120.35 4.75 -121.2 L7.35 -121.85 Q16.3 -122.05 19.4 -114.65 21.05 -121.45 23.05 -128.2 24.85 -134.45 25.95 -140.7 23.05 -145.25 27.2 -148.4 M11.4 -99.05 L11.4 -98.65 11.8 -99.15 11.4 -99.05" fill="#000000" fill-rule="evenodd" stroke="none"/>
  </g>
</svg>
