<?xml version="1.0" encoding="UTF-8" standalone="no"?>
<svg xmlns:ffdec="https://www.free-decompiler.com/flash" xmlns:xlink="http://www.w3.org/1999/xlink" ffdec:objectType="shape" height="198.25px" width="89.35px" xmlns="http://www.w3.org/2000/svg">
  <g transform="matrix(1.0, 0.0, 0.0, 1.0, 38.5, 170.7)">
    <path d="M47.5 -159.6 Q46.45 -159.15 45.9 -158.35 43.35 -154.7 39.2 -152.35 L39.2 -151.8 39.2 -151.3 38.5 -150.25 38.5 -149.7 Q38.35 -147.8 38.65 -146.0 46.2 -141.4 50.85 -135.2 48.05 -133.55 44.85 -132.8 39.95 -131.65 36.4 -128.5 L36.4 -127.45 36.4 -120.05 37.8 -118.45 37.85 -117.95 38.15 -116.85 Q42.05 -115.0 43.25 -111.55 L30.75 -105.05 30.7 -104.5 Q30.6 -103.65 30.9 -102.9 36.15 -99.65 38.3 -94.45 33.25 -93.3 28.25 -92.65 27.3 -94.7 25.45 -95.65 24.35 -95.5 23.65 -94.6 L23.65 -94.1 23.65 -92.5 24.55 -91.45 Q23.5 -90.6 23.65 -89.3 24.8 -87.75 26.5 -87.4 26.65 -86.55 27.2 -85.8 L27.2 -85.25 27.2 -84.2 Q29.3 -80.2 32.85 -77.85 33.5 -76.65 34.95 -76.45 L34.95 -76.1 34.95 -75.55 Q36.6 -73.75 37.95 -72.9 L37.85 -72.55 37.6 -71.5 Q29.85 -68.4 30.0 -60.9 33.55 -53.85 39.2 -48.7 L39.55 -48.2 Q40.85 -46.45 40.45 -44.45 L29.3 -35.65 29.3 -34.05 Q29.3 -33.0 29.85 -32.35 36.95 -23.1 45.55 -15.0 L45.55 -14.45 45.55 -13.4 Q39.7 -10.4 39.9 -4.4 41.45 -2.0 43.45 -0.15 L43.5 0.35 43.6 0.9 45.2 1.8 47.7 5.3 Q41.45 6.8 36.4 10.25 L36.45 10.8 39.2 25.1 Q36.4 24.15 33.75 22.7 30.85 21.15 27.75 19.95 19.85 16.9 15.2 22.25 L15.2 22.8 15.2 23.3 13.8 25.45 13.8 25.95 Q13.9 26.8 13.6 27.55 L12.9 27.55 4.4 18.2 Q3.45 17.2 2.45 17.85 -2.4 20.75 -7.25 22.1 L-8.1 20.9 Q-9.05 18.95 -10.5 17.6 -15.15 13.2 -21.55 13.6 -21.6 10.15 -18.9 7.8 -17.8 5.3 -17.75 2.5 -17.75 0.4 -19.75 -0.2 -29.85 -3.15 -38.5 -7.55 -27.9 -11.7 -18.0 -16.6 L-18.05 -17.1 Q-18.25 -18.8 -17.65 -20.3 -13.35 -23.5 -9.55 -27.15 L-9.55 -27.7 -9.55 -29.3 Q-11.0 -31.05 -13.25 -31.95 -13.9 -33.55 -15.35 -34.6 -8.75 -36.55 -8.8 -42.7 -9.15 -43.25 -9.65 -43.45 -15.85 -46.4 -21.7 -49.95 -9.2 -54.05 0.9 -62.15 L1.0 -62.65 1.05 -65.3 Q-1.2 -67.35 -4.15 -68.55 -8.35 -70.25 -9.55 -73.05 -8.1 -74.75 -5.8 -75.7 -4.9 -77.3 -3.35 -78.35 L-3.2 -78.9 Q-2.85 -81.2 -3.7 -83.15 -7.35 -85.6 -10.25 -88.45 -6.65 -91.75 -6.0 -96.4 -11.95 -99.75 -19.4 -99.55 -18.0 -100.55 -18.0 -102.2 -14.3 -106.05 -14.45 -111.2 -17.75 -113.9 -21.55 -115.8 L-21.4 -116.25 Q-20.8 -117.3 -20.8 -118.45 L-19.6 -120.05 -19.4 -120.55 Q-18.35 -123.85 -18.7 -127.45 -26.3 -132.8 -35.3 -136.3 -34.3 -136.65 -33.35 -137.15 L-33.0 -137.7 Q-31.5 -140.2 -32.5 -143.0 L-34.05 -144.05 Q-36.1 -148.4 -37.6 -153.05 -33.65 -152.0 -30.7 -149.15 -30.2 -148.05 -28.95 -147.95 -19.5 -154.95 -10.6 -163.1 L-9.55 -162.6 -9.85 -161.5 Q-11.45 -156.4 -10.75 -150.95 -9.95 -150.5 -9.15 -150.4 L1.05 -149.5 1.05 -149.0 1.05 -148.45 1.4 -147.9 Q3.05 -144.4 3.2 -140.5 L3.55 -140.0 Q5.3 -137.6 5.5 -134.7 L7.05 -133.8 Q8.3 -134.1 8.85 -135.2 L8.8 -136.25 Q7.8 -145.7 10.45 -154.3 L12.35 -153.95 Q15.55 -150.2 19.8 -152.15 L19.9 -152.7 Q20.3 -162.2 24.55 -170.7 L30.8 -166.15 Q39.1 -159.75 47.5 -159.6" fill="#ffff00" fill-opacity="0.5019608" fill-rule="evenodd" stroke="none"/>
  </g>
</svg>
