<?xml version="1.0" encoding="UTF-8" standalone="no"?>
<svg xmlns:ffdec="https://www.free-decompiler.com/flash" xmlns:xlink="http://www.w3.org/1999/xlink" ffdec:objectType="shape" height="149.9px" width="54.25px" xmlns="http://www.w3.org/2000/svg">
  <g transform="matrix(1.0, 0.0, 0.0, 1.0, 19.9, 146.45)">
    <path d="M25.85 -135.4 L26.3 -137.25 Q24.3 -141.15 26.9 -144.5 27.85 -145.75 29.4 -146.2 L30.35 -146.45 Q35.85 -144.95 33.75 -139.7 L33.35 -138.5 Q30.9 -128.6 27.55 -119.0 26.3 -115.45 24.65 -112.05 L21.45 -105.15 Q20.3 -99.8 16.3 -95.7 L11.6 -90.75 10.95 -90.3 Q11.1 -89.6 10.75 -89.0 11.05 -82.05 11.85 -75.15 12.8 -66.6 11.9 -58.2 13.85 -56.9 14.75 -54.3 L15.4 -52.65 19.75 -41.75 Q20.6 -40.85 20.95 -39.65 L21.1 -38.3 Q22.3 -34.0 22.15 -29.3 21.8 -19.5 21.85 -9.7 21.85 -6.35 21.25 -3.15 23.85 -2.7 26.2 -1.45 26.7 -1.2 26.85 -0.6 27.6 2.45 24.5 3.15 21.6 3.75 18.7 3.15 L18.2 3.2 Q13.9 3.05 14.6 -1.3 16.05 -10.15 15.8 -19.35 L15.6 -34.7 Q13.8 -40.2 11.45 -45.55 10.95 -37.2 8.35 -29.2 L8.3 -29.0 Q8.1 -27.95 7.25 -26.7 L-4.15 -9.55 Q-5.85 -7.0 -6.95 -4.15 L-7.2 -3.7 Q-3.6 -3.3 -0.35 -1.7 0.45 -1.35 0.4 -0.45 0.3 3.85 -4.6 3.15 L-10.65 2.05 Q-11.75 2.25 -13.3 1.55 -14.5 1.05 -14.55 -0.25 -14.7 -4.95 -12.1 -8.9 L-10.0 -12.1 Q-4.3 -20.7 1.1 -29.55 1.7 -30.55 2.55 -31.25 L3.05 -33.75 Q5.7 -43.65 5.2 -54.1 5.1 -56.7 6.15 -58.95 L6.1 -59.75 Q6.2 -70.2 5.05 -80.4 4.5 -85.5 4.25 -90.65 L1.35 -94.8 -1.7 -98.9 Q-7.75 -106.95 -12.25 -115.9 -14.05 -119.55 -15.1 -123.35 -18.55 -130.25 -19.8 -137.9 -20.6 -142.9 -15.55 -143.65 -9.2 -144.0 -8.9 -138.05 -8.8 -135.95 -10.8 -134.9 -11.7 -134.4 -12.7 -134.2 L-6.7 -119.75 -5.6 -117.25 -2.75 -111.9 Q-2.4 -114.8 -0.5 -117.8 1.3 -120.65 4.45 -121.5 L7.05 -122.15 Q15.75 -122.35 18.95 -115.3 L20.35 -118.35 Q21.9 -121.5 23.05 -124.85 L24.45 -128.8 Q25.0 -132.15 25.85 -135.4 M10.65 -99.25 L10.65 -99.05 10.85 -99.3 10.65 -99.25" fill="#000000" fill-rule="evenodd" stroke="none"/>
  </g>
</svg>
