<?xml version="1.0" encoding="UTF-8" standalone="no"?>
<svg xmlns:ffdec="https://www.free-decompiler.com/flash" xmlns:xlink="http://www.w3.org/1999/xlink" ffdec:objectType="shape" height="152.15px" width="53.3px" xmlns="http://www.w3.org/2000/svg">
  <g transform="matrix(1.0, 0.0, 0.0, 1.0, 20.4, 148.2)">
    <path d="M32.7 -143.5 L31.0 -137.9 Q28.75 -129.05 26.05 -120.1 25.1 -117.05 23.65 -114.3 20.15 -105.4 15.1 -97.1 L14.45 -96.3 Q14.95 -93.05 12.65 -91.9 L12.8 -78.05 Q12.7 -67.75 12.25 -57.5 15.15 -55.7 16.2 -51.9 L18.2 -45.65 20.05 -39.9 Q21.85 -37.65 21.65 -35.45 22.45 -34.0 22.15 -31.8 21.8 -29.2 21.85 -26.55 22.15 -16.1 21.15 -5.95 20.95 -4.25 21.1 -2.55 24.25 -3.15 26.5 -1.1 27.85 0.15 27.2 1.85 26.55 3.4 24.9 3.45 L18.35 3.9 Q15.95 4.15 15.25 1.95 14.85 0.75 14.85 -0.6 14.85 -5.85 15.25 -10.95 L15.6 -19.15 15.3 -30.0 Q15.2 -31.9 15.6 -33.6 14.95 -34.45 14.65 -35.65 L13.05 -41.1 11.75 -45.3 11.75 -45.35 11.45 -43.25 10.65 -34.5 Q10.45 -32.0 9.05 -30.3 L9.0 -30.25 Q7.25 -26.7 5.05 -23.35 L-0.6 -14.65 Q-4.2 -8.9 -8.25 -3.65 L-2.05 -2.85 Q-1.05 -2.8 -0.6 -1.8 0.8 1.45 -2.75 2.4 -7.15 3.55 -11.4 2.2 -13.05 1.7 -13.6 0.6 -16.2 -0.1 -15.6 -3.5 -15.25 -5.3 -14.05 -6.85 -9.2 -12.75 -5.45 -19.3 L-2.65 -23.65 3.45 -32.3 Q3.35 -33.3 3.65 -34.55 4.8 -39.2 5.1 -44.05 L5.5 -47.55 Q5.15 -48.5 5.35 -49.8 6.8 -59.95 6.65 -70.45 L6.25 -91.35 6.25 -91.9 5.5 -92.25 Q3.45 -93.35 1.8 -95.1 -5.0 -102.3 -8.85 -111.05 -13.25 -118.6 -17.3 -126.3 -19.55 -130.55 -20.25 -135.4 -20.9 -139.95 -18.45 -143.55 -17.35 -145.25 -15.55 -145.4 -9.8 -145.55 -9.35 -140.1 -9.0 -135.55 -13.4 -134.2 L-13.0 -133.45 Q-12.5 -132.4 -12.45 -131.25 L-12.45 -131.0 Q-11.2 -129.45 -10.35 -127.7 L-9.25 -124.9 -2.45 -112.6 Q-2.1 -115.5 -0.2 -118.5 1.6 -121.35 4.75 -122.2 L7.35 -122.85 Q14.85 -123.05 18.25 -117.85 L20.15 -123.3 Q22.85 -131.95 25.05 -140.7 23.75 -145.15 27.65 -147.7 28.3 -148.15 28.95 -148.2 33.85 -148.1 32.7 -143.5 M6.2 -99.55 L6.2 -100.25 5.35 -100.5 6.2 -99.55" fill="#000000" fill-rule="evenodd" stroke="none"/>
  </g>
</svg>
