<?xml version="1.0" encoding="UTF-8" standalone="no"?>
<svg xmlns:ffdec="https://www.free-decompiler.com/flash" xmlns:xlink="http://www.w3.org/1999/xlink" ffdec:objectType="shape" height="414.5px" width="650.55px" xmlns="http://www.w3.org/2000/svg">
  <g transform="matrix(1.0, 0.0, 0.0, 1.0, 2.25, 0.2)">
    <path d="M467.55 1.8 L646.3 1.8 646.3 189.3 386.1 189.3 386.1 265.45 309.95 265.45 309.95 144.05 220.2 144.05 220.2 36.2 467.55 36.2 467.55 1.8 M-0.25 144.05 L-0.25 36.2 104.8 36.2 104.8 144.05 -0.25 144.05" fill="#000000" fill-rule="evenodd" stroke="none"/>
    <path d="M-0.25 36.2 L-0.25 1.8 104.8 1.8 104.8 36.2 -0.25 36.2" fill="url(#gradient0)" fill-rule="evenodd" stroke="none"/>
    <path d="M646.3 353.7 L646.3 412.3 -0.25 412.3 -0.25 144.05 104.8 144.05 104.8 184.0 220.2 184.0 220.2 144.05 309.95 144.05 309.95 265.45 386.1 265.45 386.1 353.7 646.3 353.7" fill="url(#gradient1)" fill-rule="evenodd" stroke="none"/>
    <path d="M646.3 189.3 L646.3 353.7 386.1 353.7 386.1 265.45 386.1 189.3 646.3 189.3" fill="url(#gradient2)" fill-rule="evenodd" stroke="none"/>
    <path d="M220.2 1.8 L467.55 1.8 467.55 36.2 220.2 36.2 220.2 1.8" fill="url(#gradient3)" fill-rule="evenodd" stroke="none"/>
    <path d="M104.8 1.8 L220.2 1.8 220.2 36.2 220.2 144.05 220.2 184.0 104.8 184.0 104.8 144.05 104.8 36.2 104.8 1.8" fill="url(#gradient4)" fill-rule="evenodd" stroke="none"/>
    <path d="M467.55 1.8 L646.3 1.8 646.3 189.3 646.3 353.7 646.3 412.3 -0.25 412.3 -0.25 144.05 -0.25 36.2 -0.25 1.8 104.8 1.8 220.2 1.8 467.55 1.8 Z" fill="none" stroke="#000000" stroke-linecap="round" stroke-linejoin="round" stroke-width="4.0"/>
  </g>
  <defs>
    <linearGradient gradientTransform="matrix(0.2855, 0.0, 0.0, 0.021, 233.65, 19.0)" gradientUnits="userSpaceOnUse" id="gradient0" spreadMethod="pad" x1="-819.2" x2="819.2">
      <stop offset="0.0" stop-color="#000000"/>
      <stop offset="1.0" stop-color="#003300"/>
    </linearGradient>
    <linearGradient gradientTransform="matrix(0.0471, -0.1293, 0.401, 0.1463, 313.9, 303.25)" gradientUnits="userSpaceOnUse" id="gradient1" spreadMethod="pad" x1="-819.2" x2="819.2">
      <stop offset="0.0" stop-color="#000000"/>
      <stop offset="1.0" stop-color="#003300"/>
    </linearGradient>
    <linearGradient gradientTransform="matrix(0.0976, -0.0376, 0.0542, 0.1407, 579.55, 247.05)" gradientUnits="userSpaceOnUse" id="gradient2" spreadMethod="pad" x1="-819.2" x2="819.2">
      <stop offset="0.0" stop-color="#000000"/>
      <stop offset="1.0" stop-color="#003300"/>
    </linearGradient>
    <linearGradient gradientTransform="matrix(-0.0175, -0.0296, 0.1211, -0.0715, 324.6, -13.5)" gradientUnits="userSpaceOnUse" id="gradient3" spreadMethod="pad" x1="-819.2" x2="819.2">
      <stop offset="0.0" stop-color="#000000"/>
      <stop offset="1.0" stop-color="#003300"/>
    </linearGradient>
    <linearGradient gradientTransform="matrix(0.0695, 0.0148, -0.0257, 0.1208, 193.55, 99.5)" gradientUnits="userSpaceOnUse" id="gradient4" spreadMethod="pad" x1="-819.2" x2="819.2">
      <stop offset="0.0" stop-color="#000000"/>
      <stop offset="1.0" stop-color="#003300"/>
    </linearGradient>
  </defs>
</svg>
