<?xml version="1.0" encoding="UTF-8" standalone="no"?>
<svg xmlns:ffdec="https://www.free-decompiler.com/flash" xmlns:xlink="http://www.w3.org/1999/xlink" ffdec:objectType="shape" height="178.3px" width="475.3px" xmlns="http://www.w3.org/2000/svg">
  <g transform="matrix(1.0, 0.0, 0.0, 1.0, -63.95, -115.2)">
    <path d="M489.55 187.45 L486.35 190.35 456.4 190.35 453.25 187.45 453.25 161.95 456.4 159.05 486.35 159.05 489.55 161.95 489.55 187.45 M500.9 197.25 L530.85 197.25 534.0 200.2 534.0 225.65 530.85 228.55 500.9 228.55 497.75 225.65 497.75 200.2 500.9 197.25 M412.05 197.25 L442.0 197.25 445.2 200.15 445.2 225.6 442.0 228.55 412.05 228.55 408.9 225.6 408.9 200.15 412.05 197.25 M459.05 170.55 L462.55 166.15 462.95 177.85 462.55 166.15 459.05 170.55 M463.0 165.5 L462.55 166.15 463.0 165.5 467.0 170.55 463.0 165.5 M453.25 200.2 L456.4 197.25 486.35 197.25 489.55 200.2 489.55 225.65 486.35 228.6 456.4 228.6 453.25 225.65 453.25 200.2 M462.95 203.7 L462.55 215.45 459.05 211.05 462.55 215.45 462.95 203.7 M463.0 216.05 L462.55 215.45 463.0 216.05 467.0 211.05 463.0 216.05 M419.45 210.95 L414.45 206.95 419.45 210.95 M426.8 206.9 L415.1 206.45 419.45 202.95 415.1 206.45 426.8 206.9 M414.45 206.95 L415.1 206.45 414.45 206.95 M510.55 210.95 L515.6 206.95 510.55 210.95 M510.55 202.95 L515.0 206.5 503.25 206.9 515.0 206.5 510.55 202.95 M515.6 206.95 L515.0 206.5 515.6 206.95 M182.35 163.65 L185.45 160.75 215.05 160.75 218.15 163.65 218.15 188.85 215.05 191.75 185.45 191.75 182.35 188.85 182.35 163.65 M175.05 163.6 L175.05 188.8 171.95 191.65 142.35 191.65 139.25 188.8 139.25 163.6 142.35 160.75 171.95 160.75 175.05 163.6 M155.35 229.15 L152.3 226.25 152.3 201.1 155.35 198.2 185.0 198.2 188.1 201.1 188.1 226.25 185.0 229.15 155.35 229.15 M273.95 226.35 L270.85 229.2 241.25 229.2 238.15 226.35 238.15 201.15 241.25 198.2 270.85 198.2 273.95 201.15 273.95 226.35 M228.1 198.2 L231.2 201.15 231.2 226.35 228.1 229.2 198.5 229.2 195.4 226.35 195.4 201.15 198.5 198.2 228.1 198.2" fill="#003300" fill-rule="evenodd" stroke="none"/>
    <path d="M489.55 187.45 L489.55 161.95 Q489.55 160.75 488.6 159.9 488.0 159.35 487.3 159.2 L486.35 159.05 456.4 159.05 Q455.1 159.05 454.15 159.9 453.25 160.75 453.25 161.95 L453.25 187.45 Q453.25 188.65 454.15 189.5 455.1 190.35 456.4 190.35 L486.35 190.35 Q487.65 190.35 488.6 189.5 489.55 188.65 489.55 187.45 M530.85 197.25 L500.9 197.25 Q499.6 197.2 498.65 198.05 497.75 198.95 497.75 200.2 L497.75 225.65 Q497.75 226.85 498.65 227.7 499.6 228.55 500.9 228.55 L530.85 228.55 Q532.15 228.55 533.05 227.7 534.0 226.85 534.0 225.65 L534.0 200.2 Q534.0 198.95 533.05 198.05 532.15 197.2 530.85 197.25 M412.05 197.25 L442.0 197.25 Q443.3 197.2 444.2 198.05 445.15 198.9 445.2 200.15 L445.2 225.6 Q445.2 226.45 444.7 227.15 L444.2 227.65 Q443.3 228.55 442.0 228.55 L412.05 228.55 Q410.75 228.55 409.8 227.65 L409.65 227.5 409.35 227.15 Q408.9 226.45 408.9 225.6 L408.9 200.15 Q408.9 198.9 409.8 198.05 410.75 197.2 412.05 197.25 M462.55 166.15 L463.0 165.5 M456.4 197.25 Q455.1 197.25 454.15 198.1 453.25 198.95 453.25 200.2 L453.25 225.65 Q453.25 226.85 454.15 227.7 455.1 228.55 456.4 228.6 L486.35 228.6 Q487.65 228.55 488.6 227.7 489.55 226.85 489.55 225.65 L489.55 200.2 Q489.55 198.95 488.6 198.1 487.65 197.25 486.35 197.25 L456.4 197.25 M462.55 215.45 L463.0 216.05 M415.1 206.45 L414.45 206.95 M469.95 293.0 L469.95 235.0 M281.4 212.75 L324.35 232.0 324.35 243.85 M400.95 283.0 L400.95 269.4 426.4 234.95 M515.0 206.5 L515.6 206.95 M538.75 284.0 L538.75 270.4 514.2 235.95 M185.45 160.75 Q184.15 160.75 183.2 161.6 182.35 162.45 182.35 163.65 L182.35 188.85 Q182.35 190.05 183.2 190.85 184.15 191.7 185.45 191.75 L215.05 191.75 Q216.35 191.7 217.2 190.85 218.15 190.05 218.15 188.85 L218.15 163.65 Q218.15 162.45 217.2 161.6 216.35 160.75 215.05 160.75 L185.45 160.75 M171.95 160.75 Q173.2 160.75 174.1 161.6 175.05 162.45 175.05 163.6 L175.05 188.8 Q175.05 190.0 174.1 190.8 173.2 191.65 171.95 191.65 L142.35 191.65 Q141.05 191.65 140.1 190.8 139.2 190.0 139.25 188.8 L139.25 163.6 Q139.2 162.45 140.1 161.6 141.05 160.75 142.35 160.75 L171.95 160.75 M225.1 163.65 L225.1 188.85 Q225.1 190.05 225.95 190.85 226.9 191.7 228.2 191.75 L257.8 191.75 Q259.1 191.7 259.95 190.85 260.9 190.05 260.9 188.85 L260.9 163.65 Q260.9 162.45 259.95 161.6 259.1 160.75 257.8 160.75 L228.2 160.75 Q226.9 160.75 225.95 161.6 225.1 162.45 225.1 163.65 M155.35 229.15 L185.0 229.15 Q186.25 229.15 187.15 228.3 188.1 227.45 188.1 226.25 L188.1 201.1 Q188.1 199.9 187.15 199.1 186.25 198.25 185.0 198.2 L155.35 198.2 Q154.05 198.25 153.15 199.1 152.25 199.9 152.3 201.1 L152.3 226.25 Q152.25 227.45 153.15 228.3 154.05 229.15 155.35 229.15 M270.85 229.2 L272.25 228.9 273.0 228.35 Q273.95 227.5 273.95 226.35 L273.95 201.15 Q273.95 199.95 273.0 199.1 272.1 198.25 270.85 198.2 L241.25 198.2 Q239.95 198.25 239.0 199.1 238.1 199.95 238.15 201.15 L238.15 226.35 Q238.1 227.5 239.0 228.35 239.95 229.2 241.25 229.2 L270.85 229.2 M231.2 201.15 Q231.2 199.95 230.25 199.1 229.35 198.25 228.1 198.2 L198.5 198.2 Q197.2 198.25 196.25 199.1 195.35 199.95 195.4 201.15 L195.4 226.35 Q195.35 227.5 196.25 228.35 197.2 229.2 198.5 229.2 L228.1 229.2 Q229.35 229.2 230.25 228.35 231.2 227.5 231.2 226.35 L231.2 201.15" fill="none" stroke="#00ff00" stroke-linecap="round" stroke-linejoin="round" stroke-width="1.0"/>
    <path d="M270.3 175.7 L325.1 155.7 325.1 143.1 M197.75 154.95 L188.85 128.3 188.85 115.7 M133.3 175.7 L64.45 155.7 64.45 144.6 M146.65 207.55 L67.4 217.15 67.4 227.5 M210.3 235.65 L194.75 259.35 194.75 270.45" fill="none" stroke="#00ff00" stroke-linecap="round" stroke-linejoin="round" stroke-width="1.0"/>
    <path d="M462.95 177.85 L462.55 166.15 459.05 170.55 M463.0 165.5 L467.0 170.55 M459.05 211.05 L462.55 215.45 462.95 203.7 M463.0 216.05 L467.0 211.05 M419.45 202.95 L415.1 206.45 426.8 206.9 M414.45 206.95 L419.45 210.95 M503.25 206.9 L515.0 206.5 510.55 202.95 M515.6 206.95 L510.55 210.95" fill="none" stroke="#00ff00" stroke-linecap="round" stroke-linejoin="round" stroke-width="1.75"/>
  </g>
</svg>
