<?xml version="1.0" encoding="UTF-8" standalone="no"?>
<svg xmlns:ffdec="https://www.free-decompiler.com/flash" xmlns:xlink="http://www.w3.org/1999/xlink" ffdec:objectType="shape" height="90.35px" width="88.8px" xmlns="http://www.w3.org/2000/svg">
  <g transform="matrix(1.0, 0.0, 0.0, 1.0, 44.15, 44.55)">
    <path d="M0.2 -33.75 Q8.3 -39.1 16.9 -43.55 L17.75 -44.05 3.8 -10.1 0.45 -10.6 0.2 -10.6 0.2 -33.75" fill="url(#gradient0)" fill-rule="evenodd" stroke="none"/>
    <path d="M10.45 -4.25 Q9.65 -5.95 8.25 -7.35 L7.95 -7.6 24.3 -24.15 31.25 -23.2 Q35.7 -21.65 40.35 -20.5 L41.5 -20.2 42.3 -19.7 Q43.25 -19.15 44.15 -18.85 L10.45 -4.25" fill="url(#gradient1)" fill-rule="evenodd" stroke="none"/>
    <path d="M0.2 -10.6 L0.45 -10.6 3.8 -10.1 Q6.1 -9.4 7.95 -7.6 L8.25 -7.35 Q9.65 -5.95 10.45 -4.25 11.35 -2.4 11.45 -0.2 L11.45 0.4 Q11.45 2.7 10.65 4.65 9.8 6.55 8.25 8.15 L7.65 8.7 4.1 10.8 Q2.4 11.4 0.45 11.4 L0.2 11.4 Q-2.4 11.35 -4.55 10.25 L-7.3 8.15 -7.45 8.0 Q-9.0 6.35 -9.8 4.45 -10.55 2.55 -10.55 0.4 L-10.55 -0.2 Q-10.45 -2.5 -9.45 -4.4 -8.65 -6.0 -7.3 -7.35 L-6.8 -7.85 Q-5.35 -9.15 -3.6 -9.85 -1.85 -10.55 0.2 -10.6 M0.2 -0.2 L0.0 -0.2 -0.1 -0.5 -0.25 -0.25 -0.55 0.45 0.1 0.2 0.2 0.15 0.2 0.25 0.25 0.2 0.3 0.1 0.45 0.05 0.4 0.0 0.6 -0.2 0.2 -0.2" fill="url(#gradient2)" fill-rule="evenodd" stroke="none"/>
    <path d="M11.45 -0.2 L33.05 -0.2 42.1 17.0 42.9 18.2 43.3 19.4 10.65 4.65 Q11.45 2.7 11.45 0.4 L11.45 -0.2" fill="url(#gradient3)" fill-rule="evenodd" stroke="none"/>
    <path d="M4.1 10.8 L7.65 8.7 21.65 24.7 20.4 29.3 Q18.15 36.55 17.9 44.2 L17.6 45.15 17.1 45.3 4.1 10.8" fill="url(#gradient4)" fill-rule="evenodd" stroke="none"/>
    <path d="M0.2 11.4 L0.2 30.45 -0.4 31.15 Q-1.5 31.9 -2.45 33.0 L-2.8 33.45 -5.0 34.7 Q-8.3 36.9 -11.75 38.7 -15.4 40.55 -17.75 43.85 L-18.2 44.55 -18.6 44.35 -4.55 10.25 Q-2.4 11.35 0.2 11.4" fill="url(#gradient5)" fill-rule="evenodd" stroke="none"/>
    <path d="M-20.75 -23.75 L-20.15 -25.7 Q-19.1 -30.25 -19.0 -35.0 L-16.15 -43.25 -3.6 -9.85 Q-5.35 -9.15 -6.8 -7.85 L-20.75 -23.75" fill="url(#gradient6)" fill-rule="evenodd" stroke="none"/>
    <path d="M-27.6 -0.2 Q-29.7 -2.45 -32.25 -4.1 -34.05 -5.3 -35.65 -6.6 -37.3 -9.8 -38.45 -13.1 L-40.0 -16.35 -40.4 -18.2 -40.5 -18.5 -9.45 -4.4 Q-10.45 -2.5 -10.55 -0.2 L-27.6 -0.2" fill="url(#gradient7)" fill-rule="evenodd" stroke="none"/>
    <path d="M-9.8 4.45 Q-9.0 6.35 -7.45 8.0 L-20.95 21.6 -36.5 20.85 Q-39.7 19.75 -43.1 19.3 L-43.55 19.3 -43.65 19.05 -9.8 4.45" fill="url(#gradient8)" fill-rule="evenodd" stroke="none"/>
    <path d="M0.2 -10.6 L0.45 -10.6 3.8 -10.1 Q6.1 -9.4 7.95 -7.6 L8.25 -7.35 Q9.65 -5.95 10.45 -4.25 11.35 -2.4 11.45 -0.2 L11.45 0.4 Q11.45 2.7 10.65 4.65 9.8 6.55 8.25 8.15 L7.65 8.7 4.1 10.8 Q2.4 11.4 0.45 11.4 L0.2 11.4 Q-2.4 11.35 -4.55 10.25 L-7.3 8.15 -7.45 8.0 Q-9.0 6.35 -9.8 4.45 -10.55 2.55 -10.55 0.4 L-10.55 -0.2 Q-10.45 -2.5 -9.45 -4.4 -8.65 -6.0 -7.3 -7.35 L-6.8 -7.85 Q-5.35 -9.15 -3.6 -9.85 -1.85 -10.55 0.2 -10.6 M17.1 45.3 L17.6 45.15 M-18.6 44.35 L-18.2 44.55 M-43.65 19.05 L-43.55 19.3" fill="none" stroke="#0c0c0c" stroke-linecap="round" stroke-linejoin="round" stroke-width="1.0"/>
    <path d="M0.2 -33.75 L0.2 -10.6 M3.8 -10.1 L17.75 -44.05 M10.45 -4.25 L44.15 -18.85 M24.3 -24.15 L7.95 -7.6 M0.2 -0.2 L0.6 -0.2 0.4 0.0 0.45 0.05 0.3 0.1 0.25 0.2 0.2 0.25 0.2 0.15 0.1 0.2 -0.55 0.45 -0.25 -0.25 -0.1 -0.5 0.0 -0.2 0.2 -0.2 0.2 -0.05 0.4 0.0 0.3 0.1 0.2 0.15 0.25 0.2 M0.0 -0.15 L0.05 0.0 0.2 0.15 0.2 -0.05 0.0 -0.15 -0.1 -0.2 0.05 0.0 0.1 0.2 M0.0 -0.15 L0.0 -0.2 -0.1 -0.2 -0.25 -0.25 M33.05 -0.2 L11.45 -0.2 M10.65 4.65 L43.3 19.4 M21.65 24.7 L7.65 8.7 M0.2 30.45 L0.2 11.4 M-4.55 10.25 L-18.6 44.35 M4.1 10.8 L17.1 45.3 M-20.75 -23.75 L-6.8 -7.85 M-3.6 -9.85 L-16.15 -43.25 M-27.6 -0.2 L-10.55 -0.2 M-9.45 -4.4 L-40.5 -18.5 M-9.8 4.45 L-43.65 19.05 M-20.95 21.6 L-7.45 8.0" fill="none" stroke="#0c0c0c" stroke-linecap="round" stroke-linejoin="round" stroke-width="1.0"/>
  </g>
  <defs>
    <linearGradient gradientTransform="matrix(0.0089, 0.0, 0.0, 0.0227, 9.4, -28.65)" gradientUnits="userSpaceOnUse" id="gradient0" spreadMethod="pad" x1="-819.2" x2="819.2">
      <stop offset="0.0" stop-color="#000000"/>
      <stop offset="1.0" stop-color="#999999"/>
    </linearGradient>
    <linearGradient gradientTransform="matrix(0.0049, 0.0085, -0.0197, 0.0113, 25.45, -14.6)" gradientUnits="userSpaceOnUse" id="gradient1" spreadMethod="pad" x1="-819.2" x2="819.2">
      <stop offset="0.0" stop-color="#000000"/>
      <stop offset="1.0" stop-color="#999999"/>
    </linearGradient>
    <radialGradient cx="0" cy="0" gradientTransform="matrix(0.0149, 0.0, 0.0, 0.0149, 0.15, 0.25)" gradientUnits="userSpaceOnUse" id="gradient2" r="819.2" spreadMethod="pad">
      <stop offset="0.0" stop-color="#000000"/>
      <stop offset="1.0" stop-color="#999999"/>
    </radialGradient>
    <linearGradient gradientTransform="matrix(-0.0029, 0.011, -0.022, -0.0059, 28.35, 8.65)" gradientUnits="userSpaceOnUse" id="gradient3" spreadMethod="pad" x1="-819.2" x2="819.2">
      <stop offset="0.0" stop-color="#000000"/>
      <stop offset="1.0" stop-color="#999999"/>
    </linearGradient>
    <linearGradient gradientTransform="matrix(-0.0085, 0.0022, -0.0059, -0.0224, 15.0, 26.35)" gradientUnits="userSpaceOnUse" id="gradient4" spreadMethod="pad" x1="-819.2" x2="819.2">
      <stop offset="0.0" stop-color="#000000"/>
      <stop offset="1.0" stop-color="#999999"/>
    </linearGradient>
    <linearGradient gradientTransform="matrix(-0.0096, -0.0026, 0.0059, -0.022, -8.8, 28.25)" gradientUnits="userSpaceOnUse" id="gradient5" spreadMethod="pad" x1="-819.2" x2="819.2">
      <stop offset="0.0" stop-color="#000000"/>
      <stop offset="1.0" stop-color="#999999"/>
    </linearGradient>
    <linearGradient gradientTransform="matrix(0.0077, -0.002, 0.0059, 0.0223, -16.5, -24.8)" gradientUnits="userSpaceOnUse" id="gradient6" spreadMethod="pad" x1="-819.2" x2="819.2">
      <stop offset="0.0" stop-color="#000000"/>
      <stop offset="1.0" stop-color="#999999"/>
    </linearGradient>
    <linearGradient gradientTransform="matrix(0.0026, -0.0097, 0.0219, 0.0058, -27.4, -8.85)" gradientUnits="userSpaceOnUse" id="gradient7" spreadMethod="pad" x1="-819.2" x2="819.2">
      <stop offset="0.0" stop-color="#000000"/>
      <stop offset="1.0" stop-color="#999999"/>
    </linearGradient>
    <linearGradient gradientTransform="matrix(-0.0061, -0.0061, 0.0163, -0.0163, -28.05, 12.8)" gradientUnits="userSpaceOnUse" id="gradient8" spreadMethod="pad" x1="-819.2" x2="819.2">
      <stop offset="0.0" stop-color="#000000"/>
      <stop offset="1.0" stop-color="#999999"/>
    </linearGradient>
  </defs>
</svg>
