<?xml version="1.0" encoding="UTF-8" standalone="no"?>
<svg xmlns:ffdec="https://www.free-decompiler.com/flash" xmlns:xlink="http://www.w3.org/1999/xlink" ffdec:objectType="shape" height="19.4px" width="384.6px" xmlns="http://www.w3.org/2000/svg">
  <g transform="matrix(1.0, 0.0, 0.0, 1.0, 192.3, 9.7)">
    <path d="M134.9 -5.85 Q190.8 -3.4 190.8 0.0 190.8 3.35 134.9 5.75 94.6 7.5 42.2 8.0 L9.05 8.2 0.0 8.2 Q-79.05 8.2 -134.95 5.75 -190.8 3.35 -190.8 0.0 -190.8 -3.4 -134.95 -5.85 -79.05 -8.2 0.0 -8.2 79.05 -8.2 134.9 -5.85" fill="#ffffff" fill-rule="evenodd" stroke="none"/>
    <path d="M134.9 -5.85 Q190.8 -3.4 190.8 0.0 190.8 3.35 134.9 5.75 94.6 7.5 42.2 8.0 L9.05 8.2 0.0 8.2 Q-79.05 8.2 -134.95 5.75 -190.8 3.35 -190.8 0.0 -190.8 -3.4 -134.95 -5.85 -79.05 -8.2 0.0 -8.2 79.05 -8.2 134.9 -5.85 Z" fill="none" stroke="#66ff00" stroke-linecap="round" stroke-linejoin="round" stroke-width="3.0"/>
  </g>
</svg>
