<?xml version="1.0" encoding="UTF-8" standalone="no"?>
<svg xmlns:ffdec="https://www.free-decompiler.com/flash" xmlns:xlink="http://www.w3.org/1999/xlink" ffdec:objectType="shape" height="405.25px" width="735.15px" xmlns="http://www.w3.org/2000/svg">
  <g transform="matrix(1.0, 0.0, 0.0, 1.0, 350.15, 423.6)">
    <path d="M-299.25 -269.8 L341.7 -269.8 341.7 -18.85 -299.25 -18.85 -299.25 -269.8" fill="#ffffff" fill-rule="evenodd" stroke="none"/>
    <path d="M329.6 -406.0 L330.05 -405.9 330.45 -405.5 329.6 -404.7 328.8 -405.5 329.3 -406.0 329.6 -406.0 M281.75 -310.65 L282.15 -310.25 281.35 -309.45 280.5 -310.25 281.0 -310.75 281.35 -310.75 281.75 -310.65 M259.5 -328.65 L259.95 -328.5 260.35 -328.15 259.5 -327.3 258.7 -328.15 259.2 -328.65 259.5 -328.65 M248.1 -322.2 L248.6 -322.7 248.95 -322.7 249.35 -322.55 249.75 -322.2 248.95 -321.35 248.1 -322.2 M263.9 -331.15 L264.3 -330.8 263.5 -329.95 262.65 -330.8 263.15 -331.3 263.5 -331.3 263.9 -331.15 M281.65 -337.2 L282.0 -337.2 282.45 -337.1 282.85 -336.7 282.0 -335.9 281.15 -336.7 281.65 -337.2 M281.85 -344.65 L282.35 -345.15 282.65 -345.15 283.1 -345.05 283.5 -344.65 282.65 -343.85 281.85 -344.65 M281.35 -343.85 L281.75 -343.75 282.15 -343.35 281.35 -342.5 280.5 -343.35 281.0 -343.85 281.35 -343.85 M282.65 -348.45 L281.85 -349.3 282.35 -349.8 282.65 -349.8 283.1 -349.65 283.5 -349.3 282.65 -348.45 M273.4 -357.15 L273.75 -357.7 274.75 -357.9 275.45 -357.3 275.55 -356.9 Q274.45 -355.5 273.4 -356.7 L273.4 -357.15 M264.8 -354.4 L265.25 -354.3 265.65 -353.95 264.8 -353.1 264.0 -353.95 264.5 -354.4 264.8 -354.4 M267.6 -365.15 L266.8 -364.35 265.95 -365.15 266.45 -365.65 266.8 -365.65 267.2 -365.55 267.6 -365.15 M277.35 -365.65 L277.8 -365.55 278.2 -365.15 277.35 -364.3 276.55 -365.15 277.05 -365.65 277.35 -365.65 M256.7 -353.95 L257.2 -354.4 257.55 -354.4 257.95 -354.3 258.35 -353.95 257.55 -353.1 256.7 -353.95 M245.65 -370.1 L245.75 -369.75 Q246.0 -368.95 245.45 -368.3 L244.65 -368.3 244.25 -368.85 244.15 -369.3 244.25 -369.75 244.65 -370.3 245.45 -370.2 245.65 -370.1 M262.15 -372.95 L262.6 -372.85 263.0 -372.45 262.15 -371.6 261.35 -372.45 261.85 -372.95 262.15 -372.95 M243.0 -382.85 L243.4 -382.75 243.8 -382.35 243.0 -381.5 242.15 -382.35 242.65 -382.85 243.0 -382.85 M250.6 -382.2 L251.4 -382.15 251.6 -382.05 251.85 -381.7 252.4 -380.7 250.6 -380.2 250.2 -380.75 250.1 -381.2 250.2 -381.65 250.6 -382.2 M257.35 -385.0 L257.85 -385.5 258.2 -385.5 258.6 -385.4 259.0 -385.0 258.2 -384.2 257.35 -385.0 M264.8 -372.3 L265.25 -372.15 265.65 -371.8 264.8 -370.95 264.0 -371.8 264.5 -372.3 264.8 -372.3 M303.15 -372.3 L302.35 -373.1 302.85 -373.6 303.15 -373.6 303.6 -373.5 304.0 -373.1 303.15 -372.3 M310.25 -386.95 L310.75 -387.45 311.1 -387.45 311.55 -387.35 311.9 -386.95 311.1 -386.15 310.25 -386.95 M299.2 -411.95 L299.6 -411.85 300.0 -411.45 299.2 -410.65 298.35 -411.45 298.85 -411.95 299.2 -411.95 M267.9 -399.95 L268.3 -399.55 267.45 -398.75 266.6 -399.55 267.1 -400.05 267.45 -400.05 267.9 -399.95 M235.2 -400.9 L234.4 -400.05 233.55 -400.9 234.05 -401.4 234.4 -401.4 234.8 -401.25 235.2 -400.9 M233.4 -405.35 L233.7 -405.35 234.15 -405.25 234.55 -404.85 233.7 -404.0 232.9 -404.85 233.4 -405.35 M223.55 -401.25 L223.95 -400.9 223.15 -400.05 222.3 -400.9 222.8 -401.4 223.15 -401.4 223.55 -401.25 M206.95 -396.1 L207.25 -396.1 207.7 -396.0 208.1 -395.6 207.25 -394.75 206.45 -395.6 206.95 -396.1 M211.05 -396.25 L211.55 -396.75 211.9 -396.75 212.35 -396.65 212.75 -396.25 211.9 -395.45 211.05 -396.25 M211.05 -410.8 L211.55 -411.3 211.9 -411.3 212.35 -411.2 212.75 -410.8 211.9 -409.95 211.05 -410.8 M220.45 -412.05 L220.85 -412.6 221.65 -412.55 221.8 -412.45 221.95 -412.1 Q222.15 -411.3 221.65 -410.65 L220.85 -410.65 220.45 -411.2 220.35 -411.65 220.45 -412.05 M200.65 -408.0 L201.1 -407.9 201.5 -407.5 200.65 -406.65 199.85 -407.5 200.35 -408.0 200.65 -408.0 M189.4 -399.4 L188.6 -400.2 189.1 -400.7 189.4 -400.7 189.85 -400.6 190.25 -400.2 189.4 -399.4 M194.4 -411.95 L194.7 -411.95 195.15 -411.85 195.55 -411.45 194.7 -410.65 193.9 -411.45 194.4 -411.95 M175.95 -413.85 L176.35 -413.45 175.55 -412.6 174.7 -413.45 175.2 -413.95 175.55 -413.95 175.95 -413.85 M145.75 -402.05 L144.95 -402.85 145.45 -403.35 145.75 -403.35 146.2 -403.25 146.6 -402.85 145.75 -402.05 M227.45 -361.7 L227.75 -361.7 228.2 -361.6 228.6 -361.2 227.75 -360.4 226.95 -361.2 227.45 -361.7 M224.25 -363.55 L224.65 -363.2 223.8 -362.35 223.0 -363.2 223.45 -363.7 223.8 -363.7 224.25 -363.55 M208.25 -391.45 L208.6 -391.45 209.05 -391.35 209.4 -390.95 208.6 -390.15 207.75 -390.95 208.25 -391.45 M213.0 -392.0 L213.4 -391.6 212.55 -390.8 211.75 -391.6 212.25 -392.1 212.55 -392.1 213.0 -392.0 M226.45 -378.9 L225.6 -379.7 226.1 -380.2 226.45 -380.2 226.9 -380.1 227.3 -379.7 226.45 -378.9 M230.2 -382.75 L230.6 -382.35 229.75 -381.55 228.95 -382.35 229.45 -382.85 229.75 -382.85 230.2 -382.75 M224.8 -394.75 L225.15 -394.75 225.55 -394.65 225.95 -394.25 225.15 -393.45 224.3 -394.25 224.8 -394.75 M241.65 -384.7 L241.8 -384.35 Q242.0 -383.5 241.5 -382.85 L240.65 -382.85 240.25 -383.4 240.15 -383.85 240.25 -384.3 240.65 -384.85 241.5 -384.8 241.65 -384.7 M239.15 -393.6 Q239.35 -392.75 238.85 -392.1 L238.0 -392.1 237.65 -392.65 237.55 -393.1 237.65 -393.55 238.0 -394.1 238.85 -394.05 239.0 -393.95 239.15 -393.6 M322.0 -297.55 L322.35 -297.55 322.75 -297.45 323.15 -297.05 322.35 -296.25 321.5 -297.05 322.0 -297.55 M318.35 -304.15 L318.8 -304.05 319.2 -303.65 318.35 -302.85 317.55 -303.65 318.05 -304.15 318.35 -304.15 M322.2 -305.65 L322.65 -306.15 323.0 -306.15 323.45 -306.05 323.85 -305.65 323.0 -304.85 322.2 -305.65 M307.55 -319.95 L307.95 -319.55 307.15 -318.7 306.3 -319.55 306.8 -320.05 307.15 -320.05 307.55 -319.95 M309.8 -316.05 L308.95 -316.85 309.45 -317.35 309.8 -317.35 310.2 -317.25 310.6 -316.85 309.8 -316.05 M309.6 -320.85 L310.1 -321.35 310.45 -321.35 310.85 -321.25 311.25 -320.85 310.45 -320.05 309.6 -320.85 M314.75 -313.4 L315.05 -313.4 315.5 -313.3 315.9 -312.95 315.05 -312.1 314.25 -312.95 314.75 -313.4 M317.7 -317.35 L316.9 -318.2 317.4 -318.7 317.7 -318.7 318.15 -318.6 318.55 -318.2 317.7 -317.35 M292.6 -301.5 L291.75 -302.35 292.25 -302.8 292.6 -302.8 293.0 -302.7 293.4 -302.35 292.6 -301.5 M296.4 -324.85 L296.9 -325.35 297.2 -325.35 297.65 -325.2 298.05 -324.85 297.2 -324.0 296.4 -324.85 M300.2 -331.3 L301.2 -331.45 301.9 -330.85 302.0 -330.45 Q300.9 -329.05 299.85 -330.3 L299.85 -330.75 300.2 -331.3 M299.6 -333.15 L300.0 -332.75 299.2 -331.95 298.35 -332.75 298.85 -333.25 299.2 -333.25 299.6 -333.15 M291.1 -333.4 L291.6 -333.9 291.9 -333.9 292.35 -333.8 292.75 -333.4 291.9 -332.6 291.1 -333.4 M285.8 -343.35 L286.3 -343.85 286.65 -343.85 287.05 -343.75 287.45 -343.35 286.65 -342.5 285.8 -343.35 M292.1 -341.35 L291.25 -340.55 290.45 -341.35 290.95 -341.85 291.25 -341.85 291.7 -341.75 292.1 -341.35 M306.45 -327.3 L306.9 -327.2 307.3 -326.8 306.45 -326.0 305.65 -326.8 306.15 -327.3 306.45 -327.3 M307.55 -337.1 L307.95 -336.7 307.15 -335.9 306.3 -336.7 306.8 -337.2 307.15 -337.2 307.55 -337.1 M315.05 -336.55 L314.25 -337.4 314.75 -337.85 315.05 -337.85 315.5 -337.75 315.9 -337.4 315.05 -336.55 M194.7 -363.7 L193.9 -364.5 194.4 -365.0 194.7 -365.0 195.15 -364.9 195.55 -364.5 194.7 -363.7 M198.7 -383.35 L198.8 -383.0 Q199.0 -382.15 198.5 -381.5 L197.7 -381.5 197.3 -382.05 197.2 -382.5 197.3 -382.95 197.7 -383.5 198.5 -383.45 198.7 -383.35 M240.1 -342.4 L240.5 -342.0 239.7 -341.2 238.85 -342.0 239.35 -342.5 239.7 -342.5 240.1 -342.4 M337.55 -276.9 L337.7 -276.55 Q337.9 -275.7 337.4 -275.05 L336.55 -275.05 336.15 -275.6 336.05 -276.05 336.15 -276.5 336.55 -277.05 337.35 -277.0 337.55 -276.9 M333.35 -294.1 L333.75 -293.75 332.9 -292.9 332.1 -293.75 332.6 -294.2 332.9 -294.2 333.35 -294.1 M335.05 -289.75 L334.25 -288.95 333.4 -289.75 333.9 -290.25 334.25 -290.25 334.65 -290.15 335.05 -289.75 M339.3 -305.4 L339.7 -305.0 338.85 -304.15 338.05 -305.0 338.55 -305.5 338.85 -305.5 339.3 -305.4 M330.3 -316.05 L330.7 -315.95 331.1 -315.55 330.3 -314.75 329.45 -315.55 329.95 -316.05 330.3 -316.05 M341.7 -309.9 L341.85 -310.1 342.65 -310.05 342.85 -309.95 342.95 -309.6 Q343.2 -308.75 342.7 -308.15 L341.85 -308.15 341.7 -308.3 341.45 -308.7 341.35 -309.1 341.45 -309.55 341.7 -309.9 M336.55 -309.45 L336.9 -309.45 337.3 -309.35 337.7 -308.95 336.9 -308.15 336.05 -308.95 336.55 -309.45 M334.9 -316.55 L335.05 -316.2 Q335.25 -315.35 334.75 -314.75 L333.9 -314.75 333.5 -315.25 333.4 -315.7 333.5 -316.15 333.9 -316.7 334.75 -316.65 334.9 -316.55 M333.25 -345.8 L333.6 -345.8 334.0 -345.7 334.4 -345.3 333.6 -344.5 332.75 -345.3 333.25 -345.8 M331.35 -350.35 L331.75 -349.95 330.95 -349.1 330.1 -349.95 330.6 -350.45 330.95 -350.45 331.35 -350.35 M320.15 -280.25 L320.5 -279.85 319.7 -279.0 318.85 -279.85 319.35 -280.35 319.7 -280.35 320.15 -280.25 M322.0 -285.65 L322.35 -285.65 322.75 -285.55 323.15 -285.15 322.35 -284.35 321.5 -285.15 322.0 -285.65 M213.9 -345.15 L214.3 -345.05 214.7 -344.65 213.9 -343.85 213.05 -344.65 213.55 -345.15 213.9 -345.15" fill="#66ffff" fill-rule="evenodd" stroke="none"/>
    <path d="M329.6 -406.0 L329.3 -406.0 328.8 -405.5 329.6 -404.7 330.45 -405.5 330.05 -405.9 329.6 -406.0 M125.05 -397.3 L124.6 -397.4 124.3 -397.4 123.8 -396.9 124.6 -396.1 125.45 -396.9 125.05 -397.3 M145.75 -402.05 L146.6 -402.85 146.2 -403.25 145.75 -403.35 145.45 -403.35 144.95 -402.85 145.75 -402.05 M175.95 -413.85 L175.55 -413.95 175.2 -413.95 174.7 -413.45 175.55 -412.6 176.35 -413.45 175.95 -413.85 M194.4 -411.95 L193.9 -411.45 194.7 -410.65 195.55 -411.45 195.15 -411.85 194.7 -411.95 194.4 -411.95 M189.4 -399.4 L190.25 -400.2 189.85 -400.6 189.4 -400.7 189.1 -400.7 188.6 -400.2 189.4 -399.4 M200.65 -408.0 L200.35 -408.0 199.85 -407.5 200.65 -406.65 201.5 -407.5 201.1 -407.9 200.65 -408.0 M220.45 -412.05 L220.35 -411.65 220.45 -411.2 220.85 -410.65 221.65 -410.65 Q222.15 -411.3 221.95 -412.1 L221.8 -412.45 221.65 -412.55 220.85 -412.6 220.45 -412.05 M211.05 -410.8 L211.9 -409.95 212.75 -410.8 212.35 -411.2 211.9 -411.3 211.55 -411.3 211.05 -410.8 M211.05 -396.25 L211.9 -395.45 212.75 -396.25 212.35 -396.65 211.9 -396.75 211.55 -396.75 211.05 -396.25 M206.95 -396.1 L206.45 -395.6 207.25 -394.75 208.1 -395.6 207.7 -396.0 207.25 -396.1 206.95 -396.1 M223.55 -401.25 L223.15 -401.4 222.8 -401.4 222.3 -400.9 223.15 -400.05 223.95 -400.9 223.55 -401.25 M233.4 -405.35 L232.9 -404.85 233.7 -404.0 234.55 -404.85 234.15 -405.25 233.7 -405.35 233.4 -405.35 M235.2 -400.9 L234.8 -401.25 234.4 -401.4 234.05 -401.4 233.55 -400.9 234.4 -400.05 235.2 -400.9 M267.9 -399.95 L267.45 -400.05 267.1 -400.05 266.6 -399.55 267.45 -398.75 268.3 -399.55 267.9 -399.95 M299.2 -411.95 L298.85 -411.95 298.35 -411.45 299.2 -410.65 300.0 -411.45 299.6 -411.85 299.2 -411.95 M310.25 -386.95 L311.1 -386.15 311.9 -386.95 311.55 -387.35 311.1 -387.45 310.75 -387.45 310.25 -386.95 M303.15 -372.3 L304.0 -373.1 303.6 -373.5 303.15 -373.6 302.85 -373.6 302.35 -373.1 303.15 -372.3 M264.8 -372.3 L264.5 -372.3 264.0 -371.8 264.8 -370.95 265.65 -371.8 265.25 -372.15 264.8 -372.3 M257.35 -385.0 L258.2 -384.2 259.0 -385.0 258.6 -385.4 258.2 -385.5 257.85 -385.5 257.35 -385.0 M250.6 -382.2 L250.2 -381.65 250.1 -381.2 250.2 -380.75 250.6 -380.2 252.4 -380.7 251.85 -381.7 251.6 -382.05 251.4 -382.15 250.6 -382.2 M243.0 -382.85 L242.65 -382.85 242.15 -382.35 243.0 -381.5 243.8 -382.35 243.4 -382.75 243.0 -382.85 M262.15 -372.95 L261.85 -372.95 261.35 -372.45 262.15 -371.6 263.0 -372.45 262.6 -372.85 262.15 -372.95 M245.65 -370.1 L245.45 -370.2 244.65 -370.3 244.25 -369.75 244.15 -369.3 244.25 -368.85 244.65 -368.3 245.45 -368.3 Q246.0 -368.95 245.75 -369.75 L245.65 -370.1 M256.7 -353.95 L257.55 -353.1 258.35 -353.95 257.95 -354.3 257.55 -354.4 257.2 -354.4 256.7 -353.95 M277.35 -365.65 L277.05 -365.65 276.55 -365.15 277.35 -364.3 278.2 -365.15 277.8 -365.55 277.35 -365.65 M267.6 -365.15 L267.2 -365.55 266.8 -365.65 266.45 -365.65 265.95 -365.15 266.8 -364.35 267.6 -365.15 M264.8 -354.4 L264.5 -354.4 264.0 -353.95 264.8 -353.1 265.65 -353.95 265.25 -354.3 264.8 -354.4 M273.4 -357.15 L273.4 -356.7 Q274.45 -355.5 275.55 -356.9 L275.45 -357.3 274.75 -357.9 273.75 -357.7 273.4 -357.15 M282.65 -348.45 L283.5 -349.3 283.1 -349.65 282.65 -349.8 282.35 -349.8 281.85 -349.3 282.65 -348.45 M281.35 -343.85 L281.0 -343.85 280.5 -343.35 281.35 -342.5 282.15 -343.35 281.75 -343.75 281.35 -343.85 M281.85 -344.65 L282.65 -343.85 283.5 -344.65 283.1 -345.05 282.65 -345.15 282.35 -345.15 281.85 -344.65 M281.65 -337.2 L281.15 -336.7 282.0 -335.9 282.85 -336.7 282.45 -337.1 282.0 -337.2 281.65 -337.2 M263.9 -331.15 L263.5 -331.3 263.15 -331.3 262.65 -330.8 263.5 -329.95 264.3 -330.8 263.9 -331.15 M248.1 -322.2 L248.95 -321.35 249.75 -322.2 249.35 -322.55 248.95 -322.7 248.6 -322.7 248.1 -322.2 M259.5 -328.65 L259.2 -328.65 258.7 -328.15 259.5 -327.3 260.35 -328.15 259.95 -328.5 259.5 -328.65 M281.75 -310.65 L281.35 -310.75 281.0 -310.75 280.5 -310.25 281.35 -309.45 282.15 -310.25 281.75 -310.65 M272.05 -300.3 L272.1 -299.85 Q273.15 -298.65 274.25 -300.05 L274.1 -300.45 273.4 -301.0 272.4 -300.85 272.05 -300.3 M315.05 -336.55 L315.9 -337.4 315.5 -337.75 315.05 -337.85 314.75 -337.85 314.25 -337.4 315.05 -336.55 M307.55 -337.1 L307.15 -337.2 306.8 -337.2 306.3 -336.7 307.15 -335.9 307.95 -336.7 307.55 -337.1 M306.45 -327.3 L306.15 -327.3 305.65 -326.8 306.45 -326.0 307.3 -326.8 306.9 -327.2 306.45 -327.3 M292.1 -341.35 L291.7 -341.75 291.25 -341.85 290.95 -341.85 290.45 -341.35 291.25 -340.55 292.1 -341.35 M285.8 -343.35 L286.65 -342.5 287.45 -343.35 287.05 -343.75 286.65 -343.85 286.3 -343.85 285.8 -343.35 M291.1 -333.4 L291.9 -332.6 292.75 -333.4 292.35 -333.8 291.9 -333.9 291.6 -333.9 291.1 -333.4 M299.6 -333.15 L299.2 -333.25 298.85 -333.25 298.35 -332.75 299.2 -331.95 300.0 -332.75 299.6 -333.15 M300.2 -331.3 L299.85 -330.75 299.85 -330.3 Q300.9 -329.05 302.0 -330.45 L301.9 -330.85 301.2 -331.45 300.2 -331.3 M296.4 -324.85 L297.2 -324.0 298.05 -324.85 297.65 -325.2 297.2 -325.35 296.9 -325.35 296.4 -324.85 M292.6 -301.5 L293.4 -302.35 293.0 -302.7 292.6 -302.8 292.25 -302.8 291.75 -302.35 292.6 -301.5 M317.7 -317.35 L318.55 -318.2 318.15 -318.6 317.7 -318.7 317.4 -318.7 316.9 -318.2 317.7 -317.35 M314.75 -313.4 L314.25 -312.95 315.05 -312.1 315.9 -312.95 315.5 -313.3 315.05 -313.4 314.75 -313.4 M309.6 -320.85 L310.45 -320.05 311.25 -320.85 310.85 -321.25 310.45 -321.35 310.1 -321.35 309.6 -320.85 M309.8 -316.05 L310.6 -316.85 310.2 -317.25 309.8 -317.35 309.45 -317.35 308.95 -316.85 309.8 -316.05 M307.55 -319.95 L307.15 -320.05 306.8 -320.05 306.3 -319.55 307.15 -318.7 307.95 -319.55 307.55 -319.95 M322.2 -305.65 L323.0 -304.85 323.85 -305.65 323.45 -306.05 323.0 -306.15 322.65 -306.15 322.2 -305.65 M318.35 -304.15 L318.05 -304.15 317.55 -303.65 318.35 -302.85 319.2 -303.65 318.8 -304.05 318.35 -304.15 M322.0 -297.55 L321.5 -297.05 322.35 -296.25 323.15 -297.05 322.75 -297.45 322.35 -297.55 322.0 -297.55 M239.15 -393.6 L239.0 -393.95 238.85 -394.05 238.0 -394.1 237.65 -393.55 237.55 -393.1 237.65 -392.65 238.0 -392.1 238.85 -392.1 Q239.35 -392.75 239.15 -393.6 M241.65 -384.7 L241.5 -384.8 240.65 -384.85 240.25 -384.3 240.15 -383.85 240.25 -383.4 240.65 -382.85 241.5 -382.85 Q242.0 -383.5 241.8 -384.35 L241.65 -384.7 M224.8 -394.75 L224.3 -394.25 225.15 -393.45 225.95 -394.25 225.55 -394.65 225.15 -394.75 224.8 -394.75 M230.2 -382.75 L229.75 -382.85 229.45 -382.85 228.95 -382.35 229.75 -381.55 230.6 -382.35 230.2 -382.75 M226.45 -378.9 L227.3 -379.7 226.9 -380.1 226.45 -380.2 226.1 -380.2 225.6 -379.7 226.45 -378.9 M213.0 -392.0 L212.55 -392.1 212.25 -392.1 211.75 -391.6 212.55 -390.8 213.4 -391.6 213.0 -392.0 M208.25 -391.45 L207.75 -390.95 208.6 -390.15 209.4 -390.95 209.05 -391.35 208.6 -391.45 208.25 -391.45 M224.25 -363.55 L223.8 -363.7 223.45 -363.7 223.0 -363.2 223.8 -362.35 224.65 -363.2 224.25 -363.55 M227.45 -361.7 L226.95 -361.2 227.75 -360.4 228.6 -361.2 228.2 -361.6 227.75 -361.7 227.45 -361.7 M183.9 -386.05 L183.45 -386.15 183.15 -386.15 182.65 -385.65 183.45 -384.85 184.3 -385.65 183.9 -386.05 M198.7 -383.35 L198.5 -383.45 197.7 -383.5 197.3 -382.95 197.2 -382.5 197.3 -382.05 197.7 -381.5 198.5 -381.5 Q199.0 -382.15 198.8 -383.0 L198.7 -383.35 M194.7 -363.7 L195.55 -364.5 195.15 -364.9 194.7 -365.0 194.4 -365.0 193.9 -364.5 194.7 -363.7 M192.4 -355.1 L191.9 -354.6 192.7 -353.75 193.55 -354.6 193.15 -355.0 192.7 -355.1 192.4 -355.1 M240.1 -342.4 L239.7 -342.5 239.35 -342.5 238.85 -342.0 239.7 -341.2 240.5 -342.0 240.1 -342.4 M239.7 -324.0 L239.35 -324.0 238.85 -323.5 239.7 -322.7 240.5 -323.5 240.1 -323.9 239.7 -324.0 M213.9 -345.15 L213.55 -345.15 213.05 -344.65 213.9 -343.85 214.7 -344.65 214.3 -345.05 213.9 -345.15 M322.0 -285.65 L321.5 -285.15 322.35 -284.35 323.15 -285.15 322.75 -285.55 322.35 -285.65 322.0 -285.65 M320.15 -280.25 L319.7 -280.35 319.35 -280.35 318.85 -279.85 319.7 -279.0 320.5 -279.85 320.15 -280.25 M331.35 -350.35 L330.95 -350.45 330.6 -350.45 330.1 -349.95 330.95 -349.1 331.75 -349.95 331.35 -350.35 M333.25 -345.8 L332.75 -345.3 333.6 -344.5 334.4 -345.3 334.0 -345.7 333.6 -345.8 333.25 -345.8 M334.9 -316.55 L334.75 -316.65 333.9 -316.7 333.5 -316.15 333.4 -315.7 333.5 -315.25 333.9 -314.75 334.75 -314.75 Q335.25 -315.35 335.05 -316.2 L334.9 -316.55 M336.55 -309.45 L336.05 -308.95 336.9 -308.15 337.7 -308.95 337.3 -309.35 336.9 -309.45 336.55 -309.45 M341.7 -309.9 L341.45 -309.55 341.35 -309.1 341.45 -308.7 341.7 -308.3 341.85 -308.15 342.7 -308.15 Q343.2 -308.75 342.95 -309.6 L342.85 -309.95 342.65 -310.05 341.85 -310.1 341.7 -309.9 M330.3 -316.05 L329.95 -316.05 329.45 -315.55 330.3 -314.75 331.1 -315.55 330.7 -315.95 330.3 -316.05 M339.3 -305.4 L338.85 -305.5 338.55 -305.5 338.05 -305.0 338.85 -304.15 339.7 -305.0 339.3 -305.4 M335.05 -289.75 L334.65 -290.15 334.25 -290.25 333.9 -290.25 333.4 -289.75 334.25 -288.95 335.05 -289.75 M333.35 -294.1 L332.9 -294.2 332.6 -294.2 332.1 -293.75 332.9 -292.9 333.75 -293.75 333.35 -294.1 M337.55 -276.9 L337.35 -277.0 336.55 -277.05 336.15 -276.5 336.05 -276.05 336.15 -275.6 336.55 -275.05 337.4 -275.05 Q337.9 -275.7 337.7 -276.55 L337.55 -276.9 M-299.25 -269.8 L-305.2 -269.8 -305.2 -423.6 344.2 -423.6 344.2 -269.8 341.7 -269.8 -299.25 -269.8" fill="url(#gradient0)" fill-rule="evenodd" stroke="none"/>
    <path d="M125.05 -397.3 L125.45 -396.9 124.6 -396.1 123.8 -396.9 124.3 -397.4 124.6 -397.4 125.05 -397.3 M272.05 -300.3 L272.4 -300.85 273.4 -301.0 274.1 -300.45 274.25 -300.05 Q273.15 -298.65 272.1 -299.85 L272.05 -300.3 M183.9 -386.05 L184.3 -385.65 183.45 -384.85 182.65 -385.65 183.15 -386.15 183.45 -386.15 183.9 -386.05 M192.4 -355.1 L192.7 -355.1 193.15 -355.0 193.55 -354.6 192.7 -353.75 191.9 -354.6 192.4 -355.1 M239.7 -324.0 L240.1 -323.9 240.5 -323.5 239.7 -322.7 238.85 -323.5 239.35 -324.0 239.7 -324.0" fill="#66ccff" fill-rule="evenodd" stroke="none"/>
    <path d="M341.7 -269.8 L341.7 -18.85 -299.25 -18.85 -299.25 -269.8" fill="none" stroke="#000000" stroke-linecap="round" stroke-linejoin="round" stroke-width="1.0"/>
    <path d="M384.0 -229.95 L384.0 -218.75 352.5 -218.9 351.2 -218.9 217.65 -219.05 214.35 -218.75 92.95 -217.95 91.5 -217.95 72.35 -216.9 57.55 -216.15 12.55 -215.15 9.2 -215.05 -2.95 -214.45 -6.85 -214.25 -17.0 -213.85 -18.3 -213.7 -19.55 -213.6 -29.15 -213.4 Q-178.95 -212.7 -328.75 -214.3 L-328.75 -233.9 Q-216.25 -233.15 -103.7 -232.8 L-102.6 -232.7 -100.35 -232.55 Q-45.0 -232.15 10.3 -231.2 L33.35 -230.35 34.65 -230.3 64.35 -229.6 65.65 -229.55 Q100.6 -228.75 135.55 -227.55 L139.45 -227.45 206.4 -227.45 Q262.3 -227.6 318.0 -229.5 L318.75 -229.6 319.45 -229.7 384.0 -229.95 M384.0 -168.65 L384.0 -152.5 367.95 -153.1 Q347.8 -153.95 327.6 -153.75 306.2 -153.6 284.45 -153.6 256.55 -153.6 228.75 -152.5 208.55 -151.7 188.15 -151.5 L168.6 -151.25 Q135.75 -150.8 102.9 -151.65 83.6 -152.15 64.2 -152.25 L-145.2 -153.35 -155.45 -154.15 Q-172.2 -156.65 -189.15 -157.35 -164.7 -157.05 -140.2 -157.25 L-138.9 -157.3 -129.15 -157.9 -128.4 -158.0 -127.9 -158.45 -127.5 -158.95 -127.3 -159.5 Q-127.4 -161.1 -129.15 -161.2 L-139.3 -161.3 Q-167.15 -161.15 -195.0 -161.35 L-196.3 -161.35 -245.0 -161.5 -245.0 -161.4 -245.7 -161.25 -246.25 -160.95 -246.7 -160.35 -246.85 -159.85 -246.85 -159.3 Q-246.45 -158.75 -246.05 -158.75 L-209.8 -157.65 -270.8 -157.85 Q-275.3 -156.55 -280.4 -156.2 L-281.5 -156.15 -328.75 -153.65 -328.75 -165.95 -286.75 -165.75 Q-287.95 -165.55 -288.1 -164.3 L-288.15 -163.75 -287.4 -163.15 Q-264.0 -162.45 -240.55 -162.45 L-239.1 -162.45 -81.9 -163.1 -81.2 -163.2 -80.7 -163.7 -73.25 -163.8 Q-32.35 -163.3 8.4 -161.4 L-118.8 -161.5 -118.8 -161.4 Q-120.5 -161.45 -120.65 -159.85 L-120.65 -159.3 Q-120.3 -158.75 -119.9 -158.75 -9.05 -158.0 101.8 -157.9 L102.55 -158.0 103.4 -159.0 103.65 -159.5 Q103.55 -161.1 101.8 -161.15 L97.65 -161.15 97.9 -161.4 98.25 -161.9 98.5 -162.45 98.0 -163.05 86.2 -165.15 86.45 -165.5 106.05 -165.55 138.15 -165.4 139.45 -165.4 Q202.7 -165.4 266.0 -165.75 L270.05 -165.85 Q326.95 -167.95 384.0 -168.65 M384.0 -103.3 L384.0 -26.05 -328.75 -26.05 -328.75 -96.9 -324.3 -97.15 -322.45 -97.25 -313.95 -98.4 -310.65 -98.9 -308.8 -99.15 Q-300.05 -100.05 -291.5 -101.8 -284.6 -103.2 -277.45 -103.45 L-234.1 -105.55 -219.9 -106.1 Q-166.55 -106.95 -113.1 -107.4 -112.85 -107.1 -112.6 -107.15 L-109.3 -107.45 Q-33.65 -108.15 42.05 -108.1 L42.8 -108.1 Q69.2 -106.2 95.9 -106.6 128.5 -107.1 160.85 -105.85 192.5 -104.7 224.1 -104.2 L251.6 -103.7 252.35 -103.6 253.05 -103.5 384.0 -103.3 M220.95 -222.75 Q221.35 -222.2 221.7 -222.2 L342.35 -222.0 343.1 -222.25 343.45 -222.4 343.8 -222.75 344.0 -223.3 344.15 -224.4 344.2 -224.95 Q343.75 -225.5 343.25 -225.55 324.75 -226.25 306.2 -226.45 264.6 -224.5 222.1 -224.2 220.7 -224.2 220.95 -222.75 M216.35 -221.85 L216.55 -222.4 Q216.25 -223.85 214.85 -224.0 L199.2 -224.95 Q159.75 -223.85 120.25 -223.45 118.85 -223.45 119.15 -222.0 119.5 -220.65 121.0 -220.6 167.85 -219.6 214.7 -220.55 L215.45 -220.75 215.8 -220.9 216.1 -221.3 216.35 -221.85 M3.7 -221.8 L3.35 -221.6 2.95 -221.3 Q2.35 -220.55 2.5 -219.6 L2.6 -219.05 2.75 -218.5 Q3.6 -218.05 4.4 -218.05 43.5 -217.6 82.6 -217.7 L83.35 -217.8 83.85 -218.2 84.25 -218.7 84.45 -219.25 Q84.35 -220.9 82.6 -220.9 L5.35 -221.85 4.4 -222.0 3.7 -221.8 M105.85 -225.15 L105.85 -225.7 Q105.3 -226.9 104.0 -226.9 L-0.75 -227.2 -0.8 -227.1 -1.55 -226.8 -23.25 -227.8 -25.1 -227.75 -64.2 -228.5 -131.0 -229.15 Q-131.3 -230.5 -132.85 -230.5 L-271.55 -230.75 -307.9 -230.7 -322.45 -230.85 -322.5 -230.75 -323.15 -230.6 -323.7 -230.3 -324.2 -229.7 -324.3 -229.2 -324.3 -228.65 Q-323.95 -228.1 -323.5 -228.05 L-308.25 -226.65 -306.95 -226.65 -272.45 -226.7 -141.3 -227.3 -141.3 -227.2 Q-138.9 -224.45 -134.3 -224.5 -78.25 -224.9 -22.35 -223.6 L-21.4 -223.6 -2.35 -223.65 -1.8 -223.2 -0.75 -222.75 102.9 -222.95 104.0 -222.75 104.75 -222.95 105.1 -223.15 105.5 -223.5 105.65 -224.05 105.85 -225.15 M116.55 -161.3 Q114.9 -161.35 114.75 -159.85 L114.7 -159.3 Q115.05 -157.95 116.55 -157.95 149.75 -157.85 182.95 -158.9 252.15 -161.1 321.7 -160.85 L322.45 -160.95 323.25 -161.95 323.55 -162.45 Q323.4 -164.05 321.7 -164.1 293.65 -164.45 265.6 -164.45 L264.5 -164.25 222.25 -163.35 199.95 -162.5 Q158.45 -160.05 116.55 -161.3 M120.6 -102.5 Q121.0 -101.95 121.4 -101.9 162.1 -100.25 202.9 -99.85 L205.1 -99.75 222.8 -99.2 Q261.4 -99.35 299.55 -95.75 L304.75 -95.2 314.3 -94.6 333.55 -93.35 340.85 -93.1 341.4 -93.5 341.75 -94.0 342.0 -94.55 Q341.8 -95.1 341.45 -95.25 334.35 -97.8 326.3 -98.1 L304.4 -99.8 Q282.9 -102.35 261.0 -102.4 241.7 -102.5 222.45 -102.75 212.7 -102.85 202.85 -103.3 184.25 -104.05 165.65 -104.25 L122.45 -104.7 121.2 -104.1 120.75 -103.55 120.6 -103.05 120.6 -102.5 M92.95 -101.1 L93.7 -101.2 94.2 -101.6 94.6 -102.15 94.8 -102.65 Q94.85 -103.7 93.85 -103.8 L76.0 -104.75 Q4.8 -105.45 -66.4 -105.45 -92.6 -105.95 -118.8 -103.45 -119.95 -103.35 -119.9 -102.3 L-119.9 -101.75 Q-119.55 -101.2 -119.2 -101.2 -13.35 -101.95 92.95 -101.1 M25.8 -163.5 L45.9 -163.0 86.85 -161.2 19.7 -161.35 19.7 -161.4 20.05 -161.9 20.3 -162.45 19.8 -163.05 17.2 -163.45 25.8 -163.5 M-122.15 -221.1 L-122.15 -220.55 -121.3 -219.9 -111.8 -218.55 -110.7 -218.5 -5.2 -217.6 -4.45 -217.8 -4.1 -218.0 -3.7 -218.35 -3.5 -218.9 -3.4 -219.45 -3.35 -220.0 -3.35 -220.55 Q-3.9 -221.7 -5.2 -221.75 L-111.05 -222.55 -120.3 -222.75 Q-120.8 -222.65 -121.55 -222.15 L-122.0 -221.6 -122.15 -221.1 M-146.85 -219.85 L-146.1 -220.0 -145.25 -220.95 -145.0 -221.45 Q-144.95 -222.5 -146.0 -222.7 -155.55 -224.6 -165.65 -224.1 L-167.5 -224.05 -261.2 -224.25 -261.25 -224.15 -261.95 -223.95 Q-263.1 -223.6 -263.05 -222.55 L-263.05 -222.0 Q-262.7 -221.45 -262.3 -221.45 -214.45 -220.65 -166.65 -218.65 -156.9 -218.2 -146.85 -219.85 M-266.05 -100.1 L-270.8 -99.5 -290.0 -98.7 Q-295.25 -98.75 -296.25 -95.1 -295.9 -94.55 -295.5 -94.55 L-271.15 -95.4 -266.4 -96.05 Q-256.9 -97.6 -247.2 -97.7 L-131.35 -99.4 -128.4 -99.7 -127.55 -100.7 -127.3 -101.2 -127.4 -101.7 Q-128.65 -103.95 -131.35 -103.2 L-131.35 -103.15 Q-188.55 -102.75 -245.7 -101.75 -255.9 -101.6 -266.05 -100.1" fill="#666666" fill-rule="evenodd" stroke="none"/>
    <path d="M300.65 -268.1 L384.0 -268.1 384.0 -229.95 319.45 -229.7 318.75 -229.6 318.0 -229.5 Q262.3 -227.6 206.4 -227.45 L139.45 -227.45 135.55 -227.55 Q100.6 -228.75 65.65 -229.55 L64.35 -229.6 34.65 -230.3 33.35 -230.35 10.3 -231.2 Q-45.0 -232.15 -100.35 -232.55 L-102.6 -232.7 -103.7 -232.8 Q-216.25 -233.15 -328.75 -233.9 L-344.2 -234.0 Q-344.6 -234.0 -344.95 -234.55 L-344.95 -235.1 Q-345.0 -236.15 -343.85 -236.5 L-343.15 -236.7 -343.1 -236.8 -328.75 -236.8 -328.75 -245.65 -328.75 -258.25 Q-325.45 -258.2 -322.1 -258.3 L-319.5 -258.35 -248.7 -256.05 Q-227.85 -255.2 -207.0 -254.9 L-188.9 -253.65 -186.5 -253.35 Q-230.15 -253.15 -273.75 -253.35 L-276.7 -253.4 -316.55 -253.75 -316.6 -253.65 -317.25 -253.45 -317.75 -253.15 -318.3 -252.05 -318.4 -251.55 -317.65 -250.95 -276.7 -249.7 -273.75 -249.5 -272.3 -249.4 -173.4 -248.25 -170.45 -247.85 -169.75 -248.05 Q-169.55 -248.1 -169.35 -248.25 L-169.0 -248.6 -168.95 -248.65 -158.65 -247.8 -158.7 -247.75 -159.35 -247.55 Q-160.5 -247.25 -160.5 -246.2 L-160.5 -245.65 Q-160.15 -245.1 -159.7 -245.05 L-139.3 -243.8 -137.45 -243.6 -136.5 -243.5 -94.1 -241.8 Q-53.05 -240.15 -12.05 -240.6 L-12.55 -240.45 -12.55 -240.35 Q-50.95 -238.85 -89.3 -239.5 L-91.9 -239.55 Q-123.45 -239.45 -154.95 -238.95 -156.35 -238.95 -156.05 -237.5 L-155.3 -236.95 -127.1 -235.7 -124.55 -235.65 Q-109.5 -235.4 -94.5 -236.3 -84.95 -236.85 -75.25 -236.4 -41.35 -234.75 -7.4 -236.95 L-6.55 -237.95 -6.3 -238.45 -6.4 -238.9 Q-7.25 -240.15 -8.45 -240.65 L-8.15 -240.65 -7.3 -241.65 Q-7.1 -241.85 -7.05 -242.15 -7.0 -243.15 -8.0 -243.3 L-23.65 -244.45 -91.5 -245.55 -96.5 -245.75 -102.5 -246.0 -96.1 -246.1 -94.85 -246.0 -93.55 -245.9 -39.85 -245.7 -38.55 -245.7 Q-24.35 -245.6 -10.35 -247.3 L-9.85 -247.7 -9.45 -248.25 -9.25 -248.75 Q-9.2 -249.8 -10.2 -249.9 L-13.4 -250.15 -11.1 -250.15 -10.35 -250.25 -9.85 -250.65 -9.45 -251.2 -9.25 -251.7 Q-9.4 -252.25 -9.7 -252.3 -28.7 -255.75 -48.9 -255.55 L-51.55 -255.5 -51.4 -256.35 -51.5 -256.85 -51.75 -257.35 -52.75 -258.55 -52.7 -259.65 -52.3 -263.35 Q-49.25 -261.85 -46.15 -264.45 L-45.75 -264.8 -44.85 -265.9 Q-39.0 -265.85 -33.7 -268.1 L6.75 -268.1 7.35 -267.75 8.1 -268.0 8.3 -268.1 11.5 -268.1 11.6 -267.2 Q12.45 -266.75 13.25 -266.8 17.05 -267.1 20.6 -268.1 L49.8 -268.1 50.0 -266.45 Q51.9 -264.65 53.85 -266.3 L54.6 -268.1 59.55 -268.1 59.55 -266.45 61.25 -265.55 61.9 -265.8 Q63.15 -266.45 63.8 -267.75 L63.8 -268.1 194.6 -268.1 194.6 -266.45 196.25 -265.55 Q197.7 -266.35 199.2 -265.55 L200.05 -266.05 201.05 -267.0 201.0 -268.1 296.1 -268.1 296.4 -267.2 Q297.7 -265.8 299.55 -266.45 L300.0 -266.9 300.65 -267.95 300.65 -268.1 M384.0 -218.75 L384.0 -168.65 Q326.95 -167.95 270.05 -165.85 L266.0 -165.75 Q202.7 -165.4 139.45 -165.4 L138.15 -165.4 106.05 -165.55 86.45 -165.5 86.2 -165.15 98.0 -163.05 98.5 -162.45 98.25 -161.9 97.9 -161.4 97.65 -161.15 101.8 -161.15 Q103.55 -161.1 103.65 -159.5 L103.4 -159.0 102.55 -158.0 101.8 -157.9 Q-9.05 -158.0 -119.9 -158.75 -120.3 -158.75 -120.65 -159.3 L-120.65 -159.85 Q-120.5 -161.45 -118.8 -161.4 L-118.8 -161.5 8.4 -161.4 Q-32.35 -163.3 -73.25 -163.8 -45.3 -164.15 -17.15 -163.85 L-16.25 -163.8 Q0.5 -163.45 17.2 -163.45 L19.8 -163.05 20.3 -162.45 20.05 -161.9 19.7 -161.4 19.7 -161.35 86.85 -161.2 45.9 -163.0 25.8 -163.5 Q53.5 -163.65 81.15 -164.65 L82.0 -165.65 82.25 -166.15 Q82.15 -167.75 80.4 -167.8 L56.25 -167.9 Q25.05 -167.75 -6.15 -168.7 25.6 -168.6 57.35 -169.35 L58.65 -169.25 59.95 -169.15 Q73.1 -169.0 86.3 -169.0 L87.05 -169.1 87.55 -169.5 87.95 -170.0 88.15 -170.55 Q88.2 -171.6 87.2 -171.7 L58.65 -173.15 56.05 -173.15 37.8 -173.1 Q2.75 -172.85 -32.3 -173.05 L-36.15 -173.05 -104.05 -173.3 -104.05 -173.2 -104.75 -173.05 -105.25 -172.7 -105.8 -171.65 -105.9 -171.1 Q-105.55 -169.75 -104.05 -169.75 L-33.6 -168.95 -27.15 -168.85 -33.2 -168.15 -33.2 -168.05 -98.9 -167.2 Q-101.9 -167.15 -104.6 -166.1 L-105.5 -165.75 Q-106.9 -165.15 -106.65 -163.75 -106.25 -163.2 -105.9 -163.2 L-80.7 -163.7 -81.2 -163.2 -81.9 -163.1 -239.1 -162.45 -240.55 -162.45 Q-264.0 -162.45 -287.4 -163.15 L-288.15 -163.75 -288.1 -164.3 Q-287.95 -165.55 -286.75 -165.75 L-328.75 -165.95 -344.6 -166.05 Q-346.1 -166.05 -346.45 -167.4 L-346.4 -167.95 Q-346.25 -169.45 -344.6 -169.45 L-328.75 -169.45 -328.75 -183.25 -320.6 -182.85 -278.9 -180.55 -233.2 -177.8 Q-184.9 -175.45 -136.5 -176.45 L-135.65 -177.45 -135.4 -177.95 Q-135.5 -179.55 -137.25 -179.6 L-188.85 -181.4 Q-203.55 -182.2 -218.45 -181.15 L-221.4 -181.15 -266.0 -183.55 -267.05 -183.6 Q-199.45 -182.5 -132.1 -183.1 L-131.6 -183.5 -131.2 -184.05 -131.0 -184.55 Q-131.85 -187.05 -135.05 -187.05 L-160.5 -187.1 Q-215.85 -186.95 -271.2 -187.3 L-282.25 -187.65 -298.45 -188.9 -328.75 -190.95 -328.75 -193.25 Q-328.35 -192.7 -327.95 -192.65 L-306.8 -191.5 -305.85 -191.4 -304.95 -191.2 -304.0 -191.1 -293.3 -190.55 -291.45 -190.45 Q-210.7 -188.35 -129.9 -189.0 L-129.05 -190.0 -128.75 -190.5 Q-128.9 -192.1 -130.6 -192.15 L-195.75 -193.05 -197.0 -193.05 -276.9 -193.6 -278.75 -193.65 -292.35 -194.55 -293.25 -194.6 -233.55 -194.15 -232.45 -194.15 -127.65 -194.15 -127.15 -194.6 -126.8 -195.1 -126.55 -195.65 Q-126.65 -197.3 -128.4 -197.3 L-232.8 -198.2 -233.9 -198.25 -328.75 -198.95 -328.75 -209.1 -331.5 -209.1 -333.35 -209.2 -343.4 -210.35 -344.2 -210.95 -344.2 -211.5 -344.1 -212.0 -343.6 -212.45 Q-337.7 -214.4 -331.5 -214.35 L-328.75 -214.3 Q-178.95 -212.7 -29.15 -213.4 L-19.55 -213.6 -18.3 -213.7 -17.0 -213.85 -6.85 -214.25 -2.95 -214.45 9.2 -215.05 12.55 -215.15 57.55 -216.15 72.35 -216.9 91.5 -217.95 92.95 -217.95 214.35 -218.75 217.65 -219.05 351.2 -218.9 352.5 -218.9 384.0 -218.75 M384.0 -152.5 L384.0 -103.3 253.05 -103.5 252.35 -103.6 251.6 -103.7 224.1 -104.2 Q192.5 -104.7 160.85 -105.85 128.5 -107.1 95.9 -106.6 69.2 -106.2 42.8 -108.1 L42.05 -108.1 Q-33.65 -108.15 -109.3 -107.45 L-83.75 -108.65 -82.65 -108.7 Q-22.35 -112.3 38.35 -110.8 L40.2 -110.9 Q60.95 -113.65 81.9 -112.25 L82.4 -112.7 82.75 -113.2 83.0 -113.75 Q82.5 -115.95 79.85 -116.05 L56.05 -116.5 Q52.1 -115.45 47.2 -115.3 L39.3 -115.1 -48.7 -113.6 -100.35 -111.75 -101.8 -111.8 Q-109.9 -112.85 -113.3 -107.65 L-113.1 -107.4 Q-166.55 -106.95 -219.9 -106.1 L-234.1 -105.55 -277.45 -103.45 Q-284.6 -103.2 -291.5 -101.8 -300.05 -100.05 -308.8 -99.15 L-310.65 -98.9 -313.95 -98.4 -322.45 -97.25 -324.3 -97.15 -328.75 -96.9 Q-332.4 -96.5 -335.8 -95.3 L-338.05 -94.5 Q-343.5 -92.35 -346.45 -95.85 L-346.45 -96.4 Q-346.45 -97.45 -345.3 -97.85 L-344.6 -97.95 Q-339.9 -97.95 -335.35 -99.05 L-328.75 -100.35 -328.75 -149.65 -347.55 -148.95 -348.25 -149.05 -349.35 -149.45 -349.9 -149.95 -350.15 -150.45 -350.05 -151.0 Q-349.6 -152.95 -347.55 -153.0 L-328.75 -153.65 -281.5 -156.15 -280.4 -156.2 Q-275.3 -156.55 -270.8 -157.85 L-209.8 -157.65 -246.05 -158.75 Q-246.45 -158.75 -246.85 -159.3 L-246.85 -159.85 -246.7 -160.35 -246.25 -160.95 -245.7 -161.25 -245.0 -161.4 -245.0 -161.5 -196.3 -161.35 -195.0 -161.35 Q-167.15 -161.15 -139.3 -161.3 L-129.15 -161.2 Q-127.4 -161.1 -127.3 -159.5 L-127.5 -158.95 -127.9 -158.45 -128.4 -158.0 -129.15 -157.9 -138.9 -157.3 -140.2 -157.25 Q-164.7 -157.05 -189.15 -157.35 -172.2 -156.65 -155.45 -154.15 L-145.2 -153.35 64.2 -152.25 Q83.6 -152.15 102.9 -151.65 135.75 -150.8 168.6 -151.25 L188.15 -151.5 Q208.55 -151.7 228.75 -152.5 256.55 -153.6 284.45 -153.6 306.2 -153.6 327.6 -153.75 347.8 -153.95 367.95 -153.1 L384.0 -152.5 M-328.75 -187.25 L-328.75 -187.5 -326.05 -187.1 -328.75 -187.25 M-328.75 -193.8 L-328.75 -194.85 -328.25 -194.85 Q-328.75 -194.5 -328.75 -193.8 M-328.75 -263.4 L-328.75 -268.1 -260.95 -268.1 -259.2 -268.1 -215.65 -268.1 -215.65 -267.95 Q-213.0 -265.8 -210.95 -268.1 L-208.85 -268.1 -209.0 -263.5 Q-207.1 -261.7 -205.15 -263.35 L-205.15 -268.1 -197.5 -268.1 -197.4 -267.95 -197.35 -266.85 -197.2 -265.75 -195.55 -264.8 -194.85 -265.05 Q-194.55 -265.15 -194.25 -265.35 -193.95 -266.7 -193.8 -268.1 L-178.85 -268.1 -178.75 -266.45 -177.1 -265.55 -176.4 -265.8 -175.8 -266.1 -175.75 -266.15 -175.6 -266.3 -175.45 -266.95 -175.1 -268.1 -147.9 -268.1 -147.9 -267.6 -147.75 -266.45 -146.1 -265.55 -145.25 -266.0 -144.25 -267.0 -144.0 -268.1 -139.4 -268.1 Q-138.8 -265.7 -137.45 -263.5 L-135.8 -262.6 -134.7 -263.05 -134.3 -263.35 Q-133.9 -264.1 -133.9 -265.0 L-133.9 -268.1 -108.65 -268.1 -108.65 -267.95 -107.0 -267.0 -105.95 -267.5 -105.2 -268.1 -105.1 -268.1 Q-104.4 -266.2 -102.55 -265.55 L-101.75 -266.0 -100.75 -267.0 -100.9 -268.05 -100.9 -268.1 -71.7 -268.1 -71.75 -266.45 -70.1 -265.55 -69.25 -266.0 -68.25 -267.0 -68.25 -268.1 -65.9 -268.1 Q-65.1 -266.65 -63.45 -266.3 -63.0 -266.45 -62.65 -266.75 L-61.6 -267.75 -61.6 -268.1 -55.7 -268.1 -56.25 -255.5 -71.6 -255.55 Q-112.9 -255.95 -154.25 -255.95 L-154.25 -255.85 -154.95 -255.7 -155.5 -255.4 -155.95 -254.8 -156.05 -254.3 -156.05 -253.75 Q-155.7 -252.4 -154.25 -252.4 -100.9 -253.45 -47.95 -251.15 L-27.05 -250.4 -34.7 -249.95 -38.55 -249.75 Q-66.05 -249.5 -93.55 -249.75 L-97.4 -249.8 -141.8 -251.25 Q-155.35 -251.9 -169.0 -251.55 L-169.3 -251.4 Q-171.8 -253.45 -175.6 -253.45 L-178.25 -253.4 -178.05 -253.6 -177.7 -254.15 -177.45 -254.65 Q-177.45 -255.7 -178.45 -255.95 -191.85 -258.75 -205.7 -258.95 -227.15 -259.25 -248.65 -259.9 L-293.3 -261.35 -320.7 -263.0 -328.75 -263.4 M241.9 -253.75 Q222.65 -255.9 203.4 -254.2 L194.8 -253.9 Q164.55 -254.5 134.25 -254.5 L134.25 -254.4 133.55 -254.2 Q133.25 -254.1 133.05 -253.85 L132.5 -252.8 132.45 -252.25 Q132.8 -251.7 133.2 -251.7 165.15 -249.55 198.1 -249.9 L203.45 -250.05 Q228.65 -251.1 253.8 -250.15 L254.55 -250.25 255.05 -250.65 255.45 -251.2 255.65 -251.7 255.55 -252.35 255.85 -252.4 290.65 -255.1 338.65 -257.6 339.5 -258.6 339.75 -259.1 Q339.8 -260.15 338.8 -260.25 L322.45 -261.1 322.4 -261.05 286.25 -258.7 Q265.7 -257.6 245.7 -255.2 L245.45 -254.65 245.4 -253.45 241.9 -253.75 M173.4 -248.3 L171.9 -248.3 Q154.2 -248.05 136.5 -248.25 132.0 -248.3 130.35 -245.4 L130.2 -244.9 Q130.55 -243.55 132.05 -243.55 L135.55 -243.65 168.9 -244.95 Q205.0 -247.05 241.25 -245.75 L242.0 -245.8 242.85 -246.8 243.1 -247.3 Q243.0 -248.95 241.25 -248.95 215.05 -249.3 188.85 -249.3 L173.4 -248.3 M232.4 -234.3 Q230.35 -234.3 230.55 -232.35 230.95 -231.8 231.3 -231.8 267.1 -230.3 302.9 -232.5 L315.75 -233.55 338.0 -235.2 Q337.35 -234.85 337.55 -233.8 337.9 -233.25 338.35 -233.25 350.6 -232.3 363.0 -233.25 L363.85 -234.25 364.1 -234.75 Q364.15 -235.8 363.15 -235.9 L357.25 -236.45 357.45 -236.95 Q357.5 -238.0 356.5 -238.1 L340.15 -239.0 319.45 -237.8 Q276.05 -234.4 232.4 -234.3 M231.05 -240.15 L231.3 -240.65 Q231.2 -242.3 229.45 -242.3 192.55 -242.7 155.65 -242.7 L155.65 -242.6 Q141.0 -241.4 126.15 -241.75 124.5 -241.75 124.35 -240.3 L124.3 -239.75 Q124.7 -239.15 125.1 -239.15 137.4 -238.45 149.75 -238.45 L152.7 -238.45 229.45 -239.1 230.2 -239.15 231.05 -240.15 M240.25 -236.55 L240.15 -236.05 Q240.5 -234.7 242.0 -234.6 L242.75 -234.55 Q253.25 -237.45 264.3 -237.45 L270.75 -237.65 Q311.6 -240.25 352.7 -239.1 L353.4 -239.15 354.25 -240.15 354.5 -240.65 Q354.4 -242.3 352.7 -242.3 323.15 -242.7 293.65 -242.7 L293.65 -242.6 249.75 -239.95 246.45 -239.85 Q241.85 -239.95 240.25 -236.55 M240.15 -241.95 Q240.5 -241.4 240.95 -241.35 250.6 -240.3 260.5 -241.4 L268.55 -242.05 291.45 -242.9 337.9 -243.6 338.75 -244.6 339.05 -245.1 Q339.05 -246.1 338.1 -246.15 316.65 -246.9 295.15 -247.05 L335.35 -247.55 335.35 -247.1 Q335.7 -246.55 336.1 -246.55 352.05 -245.65 368.15 -246.55 L369.0 -247.55 369.25 -247.85 380.0 -247.95 380.7 -248.05 381.55 -249.0 381.8 -249.5 Q381.7 -251.15 380.0 -251.15 333.5 -251.55 287.0 -251.55 L284.6 -251.0 283.7 -250.8 282.05 -250.6 249.4 -249.9 Q247.7 -249.9 247.55 -248.4 L247.55 -247.85 Q247.9 -246.5 249.4 -246.45 264.85 -246.35 280.35 -246.85 L285.35 -246.95 292.6 -247.05 257.5 -245.2 250.85 -244.7 248.75 -244.85 Q243.5 -246.0 240.45 -242.8 240.15 -242.5 240.15 -241.95 M189.6 -235.3 L187.4 -234.95 128.4 -232.85 Q126.35 -232.8 126.55 -230.85 126.6 -230.6 126.75 -230.6 146.75 -229.0 167.45 -230.25 L213.95 -231.8 214.8 -232.75 215.05 -233.25 Q215.1 -234.3 214.1 -234.35 L189.6 -235.3 M216.35 -221.85 L216.1 -221.3 215.8 -220.9 215.45 -220.75 214.7 -220.55 Q167.85 -219.6 121.0 -220.6 119.5 -220.65 119.15 -222.0 118.85 -223.45 120.25 -223.45 159.75 -223.85 199.2 -224.95 L214.85 -224.0 Q216.25 -223.85 216.55 -222.4 L216.35 -221.85 M220.95 -222.75 Q220.7 -224.2 222.1 -224.2 264.6 -224.5 306.2 -226.45 324.75 -226.25 343.25 -225.55 343.75 -225.5 344.2 -224.95 L344.15 -224.4 344.0 -223.3 343.8 -222.75 343.45 -222.4 343.1 -222.25 342.35 -222.0 221.7 -222.2 Q221.35 -222.2 220.95 -222.75 M57.55 -251.1 L53.3 -251.2 47.2 -251.3 -0.75 -251.55 -0.8 -251.45 -1.45 -251.25 -2.0 -250.95 -2.5 -250.35 -2.6 -249.85 -2.6 -249.3 -2.2 -248.85 -2.6 -247.85 Q-2.25 -247.3 -1.85 -247.3 30.65 -247.05 63.2 -247.25 L94.45 -246.7 101.1 -246.55 119.5 -245.75 120.25 -245.8 120.75 -246.25 121.15 -246.75 121.35 -247.3 Q121.4 -248.35 120.35 -248.55 L117.45 -249.05 117.65 -249.5 Q117.7 -250.55 116.75 -250.6 98.6 -251.35 80.4 -251.55 L78.95 -251.25 57.55 -251.1 M3.7 -221.8 L4.4 -222.0 5.35 -221.85 82.6 -220.9 Q84.35 -220.9 84.45 -219.25 L84.25 -218.7 83.85 -218.2 83.35 -217.8 82.6 -217.7 Q43.5 -217.6 4.4 -218.05 3.6 -218.05 2.75 -218.5 L2.6 -219.05 2.5 -219.6 Q2.35 -220.55 2.95 -221.3 L3.35 -221.6 3.7 -221.8 M104.4 -235.5 Q104.45 -236.55 103.4 -236.6 L84.1 -237.6 Q42.05 -238.25 0.0 -238.25 L-0.05 -238.15 -0.75 -238.0 -1.1 -237.9 -2.05 -236.95 -2.5 -236.35 -2.6 -235.85 -2.6 -235.3 -2.35 -234.8 -1.8 -234.3 -0.75 -233.9 0.0 -233.8 Q51.3 -234.55 102.55 -233.9 L103.3 -234.0 103.8 -234.4 104.15 -234.95 104.4 -235.5 M115.45 -239.15 L121.0 -239.1 121.75 -239.15 122.25 -239.6 122.6 -240.1 122.85 -240.65 Q122.85 -241.7 121.8 -242.0 118.5 -242.85 115.1 -242.9 58.25 -243.4 1.45 -243.4 -0.2 -242.95 -2.0 -242.0 L-2.5 -241.5 -2.6 -241.0 -2.6 -240.45 Q-1.7 -238.45 0.7 -238.5 58.1 -239.15 115.45 -239.15 M105.85 -225.15 L105.65 -224.05 105.5 -223.5 105.1 -223.15 104.75 -222.95 104.0 -222.75 102.9 -222.95 -0.75 -222.75 -1.8 -223.2 -2.35 -223.65 -21.4 -223.6 -22.35 -223.6 Q-78.25 -224.9 -134.3 -224.5 -138.9 -224.45 -141.3 -227.2 L-141.3 -227.3 -272.45 -226.7 -306.95 -226.65 -308.25 -226.65 -323.5 -228.05 Q-323.95 -228.1 -324.3 -228.65 L-324.3 -229.2 -324.2 -229.7 -323.7 -230.3 -323.15 -230.6 -322.5 -230.75 -322.45 -230.85 -307.9 -230.7 -271.55 -230.75 -132.85 -230.5 Q-131.3 -230.5 -131.0 -229.15 L-64.2 -228.5 -25.1 -227.75 -23.25 -227.8 -1.55 -226.8 -0.8 -227.1 -0.75 -227.2 104.0 -226.9 Q105.3 -226.9 105.85 -225.7 L105.85 -225.15 M126.15 -171.7 Q124.5 -171.65 124.35 -170.2 L124.3 -169.65 Q124.65 -168.25 126.15 -168.25 167.4 -168.25 208.6 -168.5 L211.2 -168.55 268.2 -168.4 Q296.0 -168.15 323.9 -169.0 L324.65 -169.1 325.15 -169.5 325.5 -170.0 325.75 -170.55 Q325.65 -172.2 323.9 -172.2 308.7 -172.5 293.45 -172.25 L291.6 -172.2 Q279.9 -172.1 268.2 -172.35 L265.6 -172.4 212.5 -172.6 209.9 -172.35 126.15 -171.7 M124.35 -193.8 L124.3 -193.25 Q124.65 -191.9 126.15 -191.85 139.8 -191.75 153.45 -192.15 245.95 -194.9 338.65 -193.35 L339.4 -193.45 339.9 -193.85 340.3 -194.35 340.5 -194.9 Q339.4 -197.7 335.7 -197.7 L228.0 -197.65 227.25 -197.5 226.5 -197.4 126.15 -195.3 Q124.5 -195.3 124.35 -193.8 M128.05 -184.3 L121.75 -184.4 121.7 -184.3 121.05 -184.05 120.1 -183.15 119.9 -182.15 Q122.75 -179.75 127.25 -179.7 L180.75 -179.3 182.05 -179.4 183.35 -179.5 293.05 -179.4 Q208.25 -177.55 123.2 -177.45 121.15 -177.45 121.35 -175.55 121.75 -175.0 122.1 -175.0 202.95 -173.9 284.05 -174.95 L285.5 -174.95 Q304.2 -173.85 322.45 -177.2 L323.25 -178.15 323.55 -178.65 323.4 -179.15 322.65 -180.05 323.15 -180.15 323.65 -180.55 324.05 -181.1 324.25 -181.6 Q324.3 -182.65 323.3 -182.75 L301.05 -183.55 Q243.5 -183.65 185.9 -183.4 L182.05 -183.35 Q155.05 -183.2 128.05 -184.3 M83.35 -176.45 L83.85 -176.85 84.25 -177.4 84.45 -177.95 Q84.35 -179.55 82.6 -179.65 L75.6 -179.75 Q25.9 -179.6 -23.8 -179.75 L-25.1 -179.8 -119.55 -179.95 -119.55 -179.85 -120.25 -179.7 -120.8 -179.4 -121.3 -178.8 -121.4 -178.3 -121.4 -177.75 -120.65 -177.2 Q-22.75 -175.35 75.25 -175.7 L76.35 -175.8 82.6 -176.35 83.35 -176.45 M84.95 -192.2 L85.2 -192.7 Q85.25 -193.75 84.25 -193.8 L51.45 -195.15 37.65 -195.85 35.4 -195.95 -50.2 -196.2 -54.05 -195.85 -106.65 -194.85 -112.8 -194.15 Q-114.4 -193.75 -114.7 -192.3 L-114.75 -191.75 -114.4 -191.05 -115.1 -191.05 -116.35 -190.4 -116.85 -189.85 -116.95 -189.35 -116.95 -188.8 Q-116.6 -188.25 -116.25 -188.25 -73.0 -187.45 -29.9 -186.3 L-41.5 -186.4 -42.8 -186.4 -110.5 -187.15 -111.45 -187.35 -111.45 -187.25 -112.15 -187.1 -112.5 -186.95 -112.9 -186.6 -113.2 -186.0 -113.3 -185.5 -113.3 -184.95 -113.25 -184.4 -113.1 -183.85 Q-33.65 -181.65 46.45 -181.7 L47.2 -181.6 47.95 -181.55 81.9 -181.55 82.6 -181.6 83.15 -182.05 83.5 -182.55 83.75 -183.1 Q83.6 -184.75 81.9 -184.8 L46.45 -185.65 45.0 -185.7 32.0 -185.9 Q56.6 -186.15 81.15 -186.7 L81.9 -186.8 82.4 -187.2 82.75 -187.75 83.0 -188.25 Q82.9 -189.9 81.15 -189.95 67.15 -190.2 53.1 -189.95 L51.65 -189.9 Q17.3 -189.75 -17.0 -190.0 L-19.2 -190.05 Q-35.05 -190.65 -50.95 -190.8 L-102.5 -191.05 -54.05 -192.1 -51.5 -192.15 Q-7.3 -192.25 36.9 -190.9 60.0 -190.2 83.35 -191.1 L84.1 -191.2 84.95 -192.2 M140.75 -184.8 L143.3 -184.75 Q185.65 -184.5 228.0 -184.55 L229.85 -184.65 268.6 -186.7 288.45 -187.85 333.5 -189.75 334.35 -190.7 334.6 -191.2 Q334.65 -192.25 333.65 -192.35 L315.8 -193.25 315.8 -193.15 292.9 -191.85 258.2 -190.45 Q184.15 -186.8 109.9 -188.5 107.9 -188.55 108.1 -186.6 108.45 -186.05 108.85 -186.05 L140.75 -184.8 M116.55 -161.3 Q158.45 -160.05 199.95 -162.5 L222.25 -163.35 264.5 -164.25 265.6 -164.45 Q293.65 -164.45 321.7 -164.1 323.4 -164.05 323.55 -162.45 L323.25 -161.95 322.45 -160.95 321.7 -160.85 Q252.15 -161.1 182.95 -158.9 149.75 -157.85 116.55 -157.95 115.05 -157.95 114.7 -159.3 L114.75 -159.85 Q114.9 -161.35 116.55 -161.3 M85.7 -117.65 L85.95 -118.15 Q86.0 -119.2 85.0 -119.3 L66.4 -120.45 34.65 -121.3 -14.05 -122.1 -16.25 -122.15 -76.0 -122.4 -78.6 -122.15 -109.95 -121.6 -110.7 -121.45 Q-111.8 -121.05 -111.8 -120.0 L-111.8 -119.45 Q-111.45 -118.1 -109.95 -118.1 -94.9 -118.05 -79.9 -118.35 L-77.3 -118.35 Q-46.05 -118.45 -14.75 -118.1 L64.9 -116.95 65.65 -116.85 66.4 -116.8 84.1 -116.6 84.85 -116.7 85.7 -117.65 M84.2 -141.3 L84.45 -141.8 Q84.35 -143.4 82.6 -143.45 23.95 -143.8 -34.7 -143.8 L-34.7 -143.7 -37.3 -143.5 -109.95 -142.9 Q-111.6 -142.9 -111.75 -141.4 L-111.8 -140.85 -111.05 -140.3 Q-75.45 -139.55 -39.85 -139.55 L-37.3 -139.55 82.6 -140.2 83.35 -140.3 84.2 -141.3 M82.0 -128.0 L82.25 -128.5 82.15 -128.95 Q80.1 -132.0 76.0 -130.55 L33.2 -128.2 30.6 -128.1 Q-42.9 -127.95 -116.4 -128.7 -117.8 -128.75 -119.2 -127.95 L-119.55 -127.55 -119.85 -127.0 -119.9 -126.45 Q-119.55 -124.4 -117.35 -124.4 -44.0 -124.0 29.3 -125.05 L81.15 -127.0 82.0 -128.0 M92.95 -101.1 Q-13.35 -101.95 -119.2 -101.2 -119.55 -101.2 -119.9 -101.75 L-119.9 -102.3 Q-119.95 -103.35 -118.8 -103.45 -92.6 -105.95 -66.4 -105.45 4.8 -105.45 76.0 -104.75 L93.85 -103.8 Q94.85 -103.7 94.8 -102.65 L94.6 -102.15 94.2 -101.6 93.7 -101.2 92.95 -101.1 M120.6 -102.5 L120.6 -103.05 120.75 -103.55 121.2 -104.1 122.45 -104.7 165.65 -104.25 Q184.25 -104.05 202.85 -103.3 212.7 -102.85 222.45 -102.75 241.7 -102.5 261.0 -102.4 282.9 -102.35 304.4 -99.8 L326.3 -98.1 Q334.35 -97.8 341.45 -95.25 341.8 -95.1 342.0 -94.55 L341.75 -94.0 341.4 -93.5 340.85 -93.1 333.55 -93.35 314.3 -94.6 304.75 -95.2 299.55 -95.75 Q261.4 -99.35 222.8 -99.2 L205.1 -99.75 202.9 -99.85 Q162.1 -100.25 121.4 -101.9 121.0 -101.95 120.6 -102.5 M123.55 -127.55 L122.9 -126.6 122.85 -126.1 Q123.2 -125.55 123.55 -125.55 156.7 -124.7 189.8 -124.25 L192.95 -124.15 Q257.9 -120.9 323.15 -121.75 L341.8 -120.7 342.7 -120.55 Q350.6 -119.05 358.6 -118.8 L359.3 -118.9 359.85 -119.3 360.2 -119.85 360.4 -120.4 359.85 -121.3 Q358.05 -123.0 355.3 -123.3 L318.75 -125.5 Q275.3 -126.2 231.85 -127.2 L199.2 -127.65 188.15 -127.75 Q156.4 -128.3 124.7 -128.3 L124.65 -128.2 123.55 -127.55 M128.4 -131.7 Q128.1 -131.65 127.9 -131.4 L127.35 -130.3 127.25 -129.8 Q127.65 -129.25 128.0 -129.25 215.25 -128.4 302.5 -127.05 L335.35 -126.65 335.7 -126.85 335.9 -127.4 336.0 -127.95 335.9 -128.5 334.7 -129.15 Q320.25 -131.3 305.45 -131.65 L301.05 -131.75 129.1 -132.0 129.1 -131.9 128.4 -131.7 M152.35 -142.65 L150.15 -142.7 Q139.2 -142.55 128.75 -139.65 L128.35 -139.4 128.1 -138.8 128.0 -138.25 128.05 -137.15 128.15 -136.75 127.9 -136.55 127.35 -135.5 127.25 -134.95 Q127.65 -134.4 128.1 -134.3 134.15 -133.0 140.55 -132.95 L143.15 -132.95 Q212.15 -133.35 281.1 -132.85 L282.6 -132.8 315.8 -132.4 317.25 -132.2 318.0 -132.05 334.25 -131.45 334.75 -131.85 335.1 -132.4 335.35 -132.9 334.85 -133.6 Q325.8 -136.45 315.8 -136.25 297.8 -135.85 279.65 -136.9 L276.7 -137.0 Q236.1 -137.15 195.5 -136.9 L189.45 -136.85 Q165.65 -136.6 141.85 -137.5 L138.8 -137.55 Q152.5 -139.4 166.35 -139.5 217.65 -139.85 268.95 -138.85 L283.65 -138.45 Q315.95 -137.25 348.25 -137.25 L349.0 -137.35 349.5 -137.75 349.85 -138.3 350.1 -138.85 Q350.15 -139.85 349.15 -139.85 L315.75 -141.05 271.15 -143.45 267.8 -143.55 168.2 -143.8 Q160.95 -142.35 152.35 -142.65 M119.15 -112.8 Q119.5 -111.45 121.0 -111.45 160.45 -111.35 199.95 -112.2 272.55 -113.7 345.3 -112.9 L346.05 -113.0 346.9 -114.0 347.15 -114.5 347.05 -115.1 365.95 -115.1 366.7 -115.2 367.2 -115.65 367.6 -116.15 367.8 -116.7 Q367.7 -118.35 365.95 -118.35 L312.1 -119.15 307.65 -119.2 128.35 -119.45 128.35 -119.35 127.65 -119.2 127.15 -118.85 126.6 -117.75 126.55 -117.25 Q126.9 -116.7 127.25 -116.7 L225.2 -115.9 205.85 -115.6 202.9 -115.55 121.0 -114.85 Q119.35 -114.85 119.2 -113.35 L119.15 -112.8 M1.45 -132.4 L13.25 -132.25 Q45.75 -131.45 78.2 -131.35 L78.95 -131.45 79.45 -131.85 79.8 -132.4 80.05 -132.9 Q80.1 -133.95 79.1 -134.05 L53.65 -135.25 12.9 -136.35 -0.75 -136.65 Q-54.25 -137.15 -107.75 -137.15 L-107.75 -137.05 -108.45 -136.9 -108.85 -136.8 -109.2 -136.45 -109.75 -135.85 -110.2 -135.25 -110.3 -134.75 -110.3 -134.2 -110.1 -133.7 -109.55 -133.2 -108.45 -132.8 -107.75 -132.75 -106.8 -132.9 Q-52.7 -132.9 1.45 -132.4 M-328.0 -168.15 L-327.2 -167.55 -311.4 -166.4 -310.65 -166.3 -309.9 -166.2 -250.7 -165.65 -249.05 -165.55 -245.7 -165.4 -139.45 -165.4 -138.6 -166.35 -138.35 -166.85 Q-138.45 -168.5 -140.2 -168.5 L-247.4 -169.35 -248.65 -169.35 Q-193.35 -169.0 -138.0 -169.1 L-137.5 -169.5 -137.1 -170.0 -136.9 -170.55 Q-137.0 -172.2 -138.75 -172.2 -208.0 -172.65 -277.25 -173.4 -295.15 -173.6 -312.85 -175.55 L-312.9 -175.45 -313.55 -175.25 -314.15 -174.95 -314.55 -174.35 -314.7 -173.3 Q-314.05 -172.1 -312.85 -171.6 -319.4 -171.7 -326.15 -170.35 L-326.15 -170.25 -326.85 -170.1 Q-328.0 -169.75 -328.0 -168.7 L-328.0 -168.15 M-328.75 -245.65 L-328.0 -245.05 -256.95 -243.15 -255.7 -243.05 -254.4 -242.95 Q-214.55 -242.6 -174.7 -241.6 L-166.05 -241.3 -165.3 -241.4 -164.8 -241.8 -164.4 -242.35 -164.2 -242.85 -164.75 -243.65 Q-169.5 -246.8 -175.6 -246.75 -215.0 -246.45 -254.4 -247.0 L-278.2 -247.4 Q-302.55 -247.85 -326.9 -247.85 L-326.9 -247.75 -327.6 -247.55 -328.1 -247.2 -328.65 -246.15 -328.75 -245.65 M373.35 -256.9 L374.2 -257.85 374.45 -258.35 374.35 -258.85 Q373.35 -260.8 371.1 -260.4 L362.65 -259.45 363.1 -260.05 363.4 -260.55 Q363.4 -261.6 362.4 -261.8 L354.9 -262.6 342.35 -261.1 342.1 -260.55 342.05 -258.9 342.15 -258.35 342.75 -257.9 343.45 -257.55 Q338.65 -257.0 336.8 -253.75 L337.1 -253.3 338.65 -252.25 339.4 -252.45 Q356.25 -255.45 373.35 -256.9 M-146.85 -219.85 Q-156.9 -218.2 -166.65 -218.65 -214.45 -220.65 -262.3 -221.45 -262.7 -221.45 -263.05 -222.0 L-263.05 -222.55 Q-263.1 -223.6 -261.95 -223.95 L-261.25 -224.15 -261.2 -224.25 -167.5 -224.05 -165.65 -224.1 Q-155.55 -224.6 -146.0 -222.7 -144.95 -222.5 -145.0 -221.45 L-145.25 -220.95 -146.1 -220.0 -146.85 -219.85 M-122.15 -221.1 L-122.0 -221.6 -121.55 -222.15 Q-120.8 -222.65 -120.3 -222.75 L-111.05 -222.55 -5.2 -221.75 Q-3.9 -221.7 -3.35 -220.55 L-3.35 -220.0 -3.4 -219.45 -3.5 -218.9 -3.7 -218.35 -4.1 -218.0 -4.45 -217.8 -5.2 -217.6 -110.7 -218.5 -111.8 -218.55 -121.3 -219.9 -122.15 -220.55 -122.15 -221.1 M-313.4 -241.35 L-313.85 -240.8 -313.95 -240.3 -313.95 -239.75 Q-311.9 -236.7 -307.25 -237.6 L-306.2 -237.65 -298.1 -237.15 Q-231.7 -236.85 -165.3 -236.95 L-164.8 -237.4 -164.4 -237.9 -164.2 -238.45 Q-164.3 -240.05 -166.05 -240.1 -232.55 -240.65 -299.05 -241.9 L-312.15 -241.95 -312.15 -241.85 -312.85 -241.65 -313.4 -241.35 M-188.9 -143.45 L-175.65 -144.1 Q-149.85 -146.05 -123.95 -145.45 L-123.15 -146.45 -122.85 -146.95 Q-122.85 -148.0 -123.8 -148.05 -140.85 -148.8 -157.9 -148.95 L-157.9 -148.9 -185.95 -147.65 Q-236.15 -147.45 -286.3 -145.8 -288.35 -145.75 -288.15 -143.8 -287.8 -143.25 -287.4 -143.25 -238.4 -142.25 -188.9 -143.45 M-163.1 -122.2 L-165.3 -122.15 Q-223.2 -122.5 -281.15 -123.75 L-292.2 -123.9 -293.45 -123.25 -293.95 -122.7 -294.05 -122.2 -294.05 -121.65 Q-288.55 -118.5 -281.15 -118.55 -222.85 -118.7 -164.55 -118.45 L-163.8 -118.4 Q-150.45 -116.95 -137.25 -118.9 L-136.75 -119.3 -136.35 -119.85 -136.15 -120.4 -136.6 -121.0 Q-149.2 -123.4 -163.1 -122.2 M-184.5 -117.25 L-184.5 -117.15 -205.15 -115.5 -255.3 -113.7 Q-281.1 -112.6 -306.95 -112.55 -309.0 -112.55 -308.8 -110.6 L-308.05 -110.05 Q-294.25 -109.3 -280.4 -109.75 -242.8 -110.95 -205.15 -111.65 L-188.9 -112.65 Q-166.0 -115.0 -143.15 -113.0 L-142.65 -113.4 -142.25 -113.95 -142.05 -114.5 Q-142.55 -116.7 -145.2 -116.75 L-184.5 -117.25 M-187.05 -133.1 L-188.95 -133.0 Q-237.8 -129.35 -287.05 -129.75 -288.4 -129.75 -288.15 -128.3 L-287.95 -128.05 Q-239.6 -125.45 -191.1 -128.15 L-138.75 -130.7 -137.9 -131.7 -137.6 -132.2 Q-137.6 -133.25 -138.6 -133.3 L-153.15 -134.1 -144.65 -134.4 Q-144.15 -134.85 -143.8 -135.4 -143.6 -135.6 -143.55 -135.85 L-143.65 -136.35 Q-144.8 -138.1 -146.7 -138.25 L-146.0 -139.05 -145.75 -139.55 Q-145.85 -141.2 -147.6 -141.2 -213.25 -141.6 -278.9 -141.6 L-280.4 -141.3 -300.3 -140.7 -301.4 -140.4 -301.8 -140.1 -302.05 -139.55 -302.1 -137.9 -302.0 -137.35 -301.4 -136.9 Q-300.85 -136.6 -300.3 -136.45 L-281.9 -137.3 -280.4 -137.35 -148.75 -138.0 -149.05 -137.9 -149.05 -137.8 -191.1 -137.0 -192.6 -137.0 -287.05 -136.05 Q-290.05 -136.0 -290.35 -133.5 L-289.6 -132.9 Q-238.3 -132.0 -187.05 -133.1 M-266.05 -100.1 Q-255.9 -101.6 -245.7 -101.75 -188.55 -102.75 -131.35 -103.15 L-131.35 -103.2 Q-128.65 -103.95 -127.4 -101.7 L-127.3 -101.2 -127.55 -100.7 -128.4 -99.7 -131.35 -99.4 -247.2 -97.7 Q-256.9 -97.6 -266.4 -96.05 L-271.15 -95.4 -295.5 -94.55 Q-295.9 -94.55 -296.25 -95.1 -295.25 -98.75 -290.0 -98.7 L-270.8 -99.5 -266.05 -100.1" fill="#535353" fill-rule="evenodd" stroke="none"/>
    <path d="M-328.75 -183.25 L-339.4 -184.1 -340.15 -184.1 -348.3 -183.65 -349.35 -184.1 -349.95 -184.55 -350.05 -185.15 -350.0 -186.75 -349.75 -187.35 -349.35 -187.6 -348.3 -188.0 -348.3 -188.1 -328.75 -187.25 -326.05 -187.1 -328.75 -187.5 -333.05 -188.2 Q-333.5 -188.25 -333.9 -188.8 L-333.75 -189.85 -333.3 -190.45 -332.75 -190.75 -332.05 -190.95 -332.05 -191.05 -328.75 -190.95 -298.45 -188.9 -282.25 -187.65 -271.2 -187.3 Q-215.85 -186.95 -160.5 -187.1 L-135.05 -187.05 Q-131.85 -187.05 -131.0 -184.55 L-131.2 -184.05 -131.6 -183.5 -132.1 -183.1 Q-199.45 -182.5 -267.05 -183.6 L-266.0 -183.55 -221.4 -181.15 -218.45 -181.15 Q-203.55 -182.2 -188.85 -181.4 L-137.25 -179.6 Q-135.5 -179.55 -135.4 -177.95 L-135.65 -177.45 -136.5 -176.45 Q-184.9 -175.45 -233.2 -177.8 L-278.9 -180.55 -320.6 -182.85 -328.75 -183.25 M-328.75 -193.25 L-328.75 -193.8 Q-328.75 -194.5 -328.25 -194.85 L-328.75 -194.85 -330.55 -194.9 -331.65 -194.85 Q-334.8 -194.65 -336.1 -196.95 L-336.1 -197.5 -336.0 -198.0 -335.55 -198.55 -334.95 -198.85 -334.3 -199.05 -334.25 -199.15 -330.4 -198.95 -328.75 -198.95 -233.9 -198.25 -232.8 -198.2 -128.4 -197.3 Q-126.65 -197.3 -126.55 -195.65 L-126.8 -195.1 -127.15 -194.6 -127.65 -194.15 -232.45 -194.15 -233.55 -194.15 -293.25 -194.6 -292.35 -194.55 -278.75 -193.65 -276.9 -193.6 -197.0 -193.05 -195.75 -193.05 -130.6 -192.15 Q-128.9 -192.1 -128.75 -190.5 L-129.05 -190.0 -129.9 -189.0 Q-210.7 -188.35 -291.45 -190.45 L-293.3 -190.55 -304.0 -191.1 -304.95 -191.2 -305.85 -191.4 -306.8 -191.5 -327.95 -192.65 Q-328.35 -192.7 -328.75 -193.25 M-328.75 -258.25 Q-338.05 -258.45 -347.1 -259.75 L-347.9 -260.4 -347.85 -260.9 -347.25 -262.0 -346.8 -262.3 -346.1 -262.5 -346.05 -262.6 -328.75 -263.4 -320.7 -263.0 -293.3 -261.35 -248.65 -259.9 Q-227.15 -259.25 -205.7 -258.95 -191.85 -258.75 -178.45 -255.95 -177.45 -255.7 -177.45 -254.65 L-177.7 -254.15 -178.05 -253.6 -178.25 -253.4 -175.6 -253.45 Q-171.8 -253.45 -169.3 -251.4 L-169.0 -251.55 Q-155.35 -251.9 -141.8 -251.25 L-97.4 -249.8 -93.55 -249.75 Q-66.05 -249.5 -38.55 -249.75 L-34.7 -249.95 -27.05 -250.4 -47.95 -251.15 Q-100.9 -253.45 -154.25 -252.4 -155.7 -252.4 -156.05 -253.75 L-156.05 -254.3 -155.95 -254.8 -155.5 -255.4 -154.95 -255.7 -154.25 -255.85 -154.25 -255.95 Q-112.9 -255.95 -71.6 -255.55 L-56.25 -255.5 -56.25 -255.4 Q-54.0 -253.45 -51.65 -255.2 L-51.55 -255.5 -48.9 -255.55 Q-28.7 -255.75 -9.7 -252.3 -9.4 -252.25 -9.25 -251.7 L-9.45 -251.2 -9.85 -250.65 -10.35 -250.25 -11.1 -250.15 -13.4 -250.15 -10.2 -249.9 Q-9.2 -249.8 -9.25 -248.75 L-9.45 -248.25 -9.85 -247.7 -10.35 -247.3 Q-24.35 -245.6 -38.55 -245.7 L-39.85 -245.7 -93.55 -245.9 -94.85 -246.0 -96.1 -246.1 -102.5 -246.0 -96.5 -245.75 -91.5 -245.55 -23.65 -244.45 -8.0 -243.3 Q-7.0 -243.15 -7.05 -242.15 -7.1 -241.85 -7.3 -241.65 L-8.15 -240.65 -8.45 -240.65 Q-7.25 -240.15 -6.4 -238.9 L-6.3 -238.45 -6.55 -237.95 -7.4 -236.95 Q-41.35 -234.75 -75.25 -236.4 -84.95 -236.85 -94.5 -236.3 -109.5 -235.4 -124.55 -235.65 L-127.1 -235.7 -155.3 -236.95 -156.05 -237.5 Q-156.35 -238.95 -154.95 -238.95 -123.45 -239.45 -91.9 -239.55 L-89.3 -239.5 Q-50.95 -238.85 -12.55 -240.35 L-12.55 -240.45 -12.05 -240.6 Q-53.05 -240.15 -94.1 -241.8 L-136.5 -243.5 -137.45 -243.6 -139.3 -243.8 -159.7 -245.05 Q-160.15 -245.1 -160.5 -245.65 L-160.5 -246.2 Q-160.5 -247.25 -159.35 -247.55 L-158.7 -247.75 -158.65 -247.8 -168.95 -248.65 -169.0 -248.6 -169.35 -248.25 Q-169.55 -248.1 -169.75 -248.05 L-170.45 -247.85 -173.4 -248.25 -272.3 -249.4 -273.75 -249.5 -276.7 -249.7 -317.65 -250.95 -318.4 -251.55 -318.3 -252.05 -317.75 -253.15 -317.25 -253.45 -316.6 -253.65 -316.55 -253.75 -276.7 -253.4 -273.75 -253.35 Q-230.15 -253.15 -186.5 -253.35 L-188.9 -253.65 -207.0 -254.9 Q-227.85 -255.2 -248.7 -256.05 L-319.5 -258.35 -322.1 -258.3 Q-325.45 -258.2 -328.75 -258.25 M241.9 -253.75 L245.4 -253.45 245.45 -254.65 245.7 -255.2 Q265.7 -257.6 286.25 -258.7 L322.4 -261.05 322.45 -261.1 338.8 -260.25 Q339.8 -260.15 339.75 -259.1 L339.5 -258.6 338.65 -257.6 290.65 -255.1 255.85 -252.4 255.55 -252.35 255.65 -251.7 255.45 -251.2 255.05 -250.65 254.55 -250.25 253.8 -250.15 Q228.65 -251.1 203.45 -250.05 L198.1 -249.9 Q165.15 -249.55 133.2 -251.7 132.8 -251.7 132.45 -252.25 L132.5 -252.8 133.05 -253.85 Q133.25 -254.1 133.55 -254.2 L134.25 -254.4 134.25 -254.5 Q164.55 -254.5 194.8 -253.9 L203.4 -254.2 Q222.65 -255.9 241.9 -253.75 M173.4 -248.3 L188.85 -249.3 Q215.05 -249.3 241.25 -248.95 243.0 -248.95 243.1 -247.3 L242.85 -246.8 242.0 -245.8 241.25 -245.75 Q205.0 -247.05 168.9 -244.95 L135.55 -243.65 132.05 -243.55 Q130.55 -243.55 130.2 -244.9 L130.35 -245.4 Q132.0 -248.3 136.5 -248.25 154.2 -248.05 171.9 -248.3 L173.4 -248.3 M189.6 -235.3 L214.1 -234.35 Q215.1 -234.3 215.05 -233.25 L214.8 -232.75 213.95 -231.8 167.45 -230.25 Q146.75 -229.0 126.75 -230.6 126.6 -230.6 126.55 -230.85 126.35 -232.8 128.4 -232.85 L187.4 -234.95 189.6 -235.3 M240.15 -241.95 Q240.15 -242.5 240.45 -242.8 243.5 -246.0 248.75 -244.85 L250.85 -244.7 257.5 -245.2 292.6 -247.05 285.35 -246.95 280.35 -246.85 Q264.85 -246.35 249.4 -246.45 247.9 -246.5 247.55 -247.85 L247.55 -248.4 Q247.7 -249.9 249.4 -249.9 L282.05 -250.6 283.7 -250.8 284.6 -251.0 287.0 -251.55 Q333.5 -251.55 380.0 -251.15 381.7 -251.15 381.8 -249.5 L381.55 -249.0 380.7 -248.05 380.0 -247.95 369.25 -247.85 369.0 -247.55 368.15 -246.55 Q352.05 -245.65 336.1 -246.55 335.7 -246.55 335.35 -247.1 L335.35 -247.55 295.15 -247.05 Q316.65 -246.9 338.1 -246.15 339.05 -246.1 339.05 -245.1 L338.75 -244.6 337.9 -243.6 291.45 -242.9 268.55 -242.05 260.5 -241.4 Q250.6 -240.3 240.95 -241.35 240.5 -241.4 240.15 -241.95 M240.25 -236.55 Q241.85 -239.95 246.45 -239.85 L249.75 -239.95 293.65 -242.6 293.65 -242.7 Q323.15 -242.7 352.7 -242.3 354.4 -242.3 354.5 -240.65 L354.25 -240.15 353.4 -239.15 352.7 -239.1 Q311.6 -240.25 270.75 -237.65 L264.3 -237.45 Q253.25 -237.45 242.75 -234.55 L242.0 -234.6 Q240.5 -234.7 240.15 -236.05 L240.25 -236.55 M231.05 -240.15 L230.2 -239.15 229.45 -239.1 152.7 -238.45 149.75 -238.45 Q137.4 -238.45 125.1 -239.15 124.7 -239.15 124.3 -239.75 L124.35 -240.3 Q124.5 -241.75 126.15 -241.75 141.0 -241.4 155.65 -242.6 L155.65 -242.7 Q192.55 -242.7 229.45 -242.3 231.2 -242.3 231.3 -240.65 L231.05 -240.15 M232.4 -234.3 Q276.05 -234.4 319.45 -237.8 L340.15 -239.0 356.5 -238.1 Q357.5 -238.0 357.45 -236.95 L357.25 -236.45 363.15 -235.9 Q364.15 -235.8 364.1 -234.75 L363.85 -234.25 363.0 -233.25 Q350.6 -232.3 338.35 -233.25 337.9 -233.25 337.55 -233.8 337.35 -234.85 338.0 -235.2 L315.75 -233.55 302.9 -232.5 Q267.1 -230.3 231.3 -231.8 230.95 -231.8 230.55 -232.35 230.35 -234.3 232.4 -234.3 M57.55 -251.1 L78.95 -251.25 80.4 -251.55 Q98.6 -251.35 116.75 -250.6 117.7 -250.55 117.65 -249.5 L117.45 -249.05 120.35 -248.55 Q121.4 -248.35 121.35 -247.3 L121.15 -246.75 120.75 -246.25 120.25 -245.8 119.5 -245.75 101.1 -246.55 94.45 -246.7 63.2 -247.25 Q30.65 -247.05 -1.85 -247.3 -2.25 -247.3 -2.6 -247.85 L-2.2 -248.85 -2.6 -249.3 -2.6 -249.85 -2.5 -250.35 -2.0 -250.95 -1.45 -251.25 -0.8 -251.45 -0.75 -251.55 47.2 -251.3 53.3 -251.2 57.55 -251.1 M115.45 -239.15 Q58.1 -239.15 0.7 -238.5 -1.7 -238.45 -2.6 -240.45 L-2.6 -241.0 -2.5 -241.5 -2.0 -242.0 Q-0.2 -242.95 1.45 -243.4 58.25 -243.4 115.1 -242.9 118.5 -242.85 121.8 -242.0 122.85 -241.7 122.85 -240.65 L122.6 -240.1 122.25 -239.6 121.75 -239.15 121.0 -239.1 115.45 -239.15 M104.4 -235.5 L104.15 -234.95 103.8 -234.4 103.3 -234.0 102.55 -233.9 Q51.3 -234.55 0.0 -233.8 L-0.75 -233.9 -1.8 -234.3 -2.35 -234.8 -2.6 -235.3 -2.6 -235.85 -2.5 -236.35 -2.05 -236.95 -1.1 -237.9 -0.75 -238.0 -0.05 -238.15 0.0 -238.25 Q42.05 -238.25 84.1 -237.6 L103.4 -236.6 Q104.45 -236.55 104.4 -235.5 M128.05 -184.3 Q155.05 -183.2 182.05 -183.35 L185.9 -183.4 Q243.5 -183.65 301.05 -183.55 L323.3 -182.75 Q324.3 -182.65 324.25 -181.6 L324.05 -181.1 323.65 -180.55 323.15 -180.15 322.65 -180.05 323.4 -179.15 323.55 -178.65 323.25 -178.15 322.45 -177.2 Q304.2 -173.85 285.5 -174.95 L284.05 -174.95 Q202.95 -173.9 122.1 -175.0 121.75 -175.0 121.35 -175.55 121.15 -177.45 123.2 -177.45 208.25 -177.55 293.05 -179.4 L183.35 -179.5 182.05 -179.4 180.75 -179.3 127.25 -179.7 Q122.75 -179.75 119.9 -182.15 L120.1 -183.15 121.05 -184.05 121.7 -184.3 121.75 -184.4 128.05 -184.3 M124.35 -193.8 Q124.5 -195.3 126.15 -195.3 L226.5 -197.4 227.25 -197.5 228.0 -197.65 335.7 -197.7 Q339.4 -197.7 340.5 -194.9 L340.3 -194.35 339.9 -193.85 339.4 -193.45 338.65 -193.35 Q245.95 -194.9 153.45 -192.15 139.8 -191.75 126.15 -191.85 124.65 -191.9 124.3 -193.25 L124.35 -193.8 M126.15 -171.7 L209.9 -172.35 212.5 -172.6 265.6 -172.4 268.2 -172.35 Q279.9 -172.1 291.6 -172.2 L293.45 -172.25 Q308.7 -172.5 323.9 -172.2 325.65 -172.2 325.75 -170.55 L325.5 -170.0 325.15 -169.5 324.65 -169.1 323.9 -169.0 Q296.0 -168.15 268.2 -168.4 L211.2 -168.55 208.6 -168.5 Q167.4 -168.25 126.15 -168.25 124.65 -168.25 124.3 -169.65 L124.35 -170.2 Q124.5 -171.65 126.15 -171.7 M-73.25 -163.8 L-80.7 -163.7 -105.9 -163.2 Q-106.25 -163.2 -106.65 -163.75 -106.9 -165.15 -105.5 -165.75 L-104.6 -166.1 Q-101.9 -167.15 -98.9 -167.2 L-33.2 -168.05 -33.2 -168.15 -27.15 -168.85 -33.6 -168.95 -104.05 -169.75 Q-105.55 -169.75 -105.9 -171.1 L-105.8 -171.65 -105.25 -172.7 -104.75 -173.05 -104.05 -173.2 -104.05 -173.3 -36.15 -173.05 -32.3 -173.05 Q2.75 -172.85 37.8 -173.1 L56.05 -173.15 58.65 -173.15 87.2 -171.7 Q88.2 -171.6 88.15 -170.55 L87.95 -170.0 87.55 -169.5 87.05 -169.1 86.3 -169.0 Q73.1 -169.0 59.95 -169.15 L58.65 -169.25 57.35 -169.35 Q25.6 -168.6 -6.15 -168.7 25.05 -167.75 56.25 -167.9 L80.4 -167.8 Q82.15 -167.75 82.25 -166.15 L82.0 -165.65 81.15 -164.65 Q53.5 -163.65 25.8 -163.5 L17.2 -163.45 Q0.5 -163.45 -16.25 -163.8 L-17.15 -163.85 Q-45.3 -164.15 -73.25 -163.8 M140.75 -184.8 L108.85 -186.05 Q108.45 -186.05 108.1 -186.6 107.9 -188.55 109.9 -188.5 184.15 -186.8 258.2 -190.45 L292.9 -191.85 315.8 -193.15 315.8 -193.25 333.65 -192.35 Q334.65 -192.25 334.6 -191.2 L334.35 -190.7 333.5 -189.75 288.45 -187.85 268.6 -186.7 229.85 -184.65 228.0 -184.55 Q185.65 -184.5 143.3 -184.75 L140.75 -184.8 M84.95 -192.2 L84.1 -191.2 83.35 -191.1 Q60.0 -190.2 36.9 -190.9 -7.3 -192.25 -51.5 -192.15 L-54.05 -192.1 -102.5 -191.05 -50.95 -190.8 Q-35.05 -190.65 -19.2 -190.05 L-17.0 -190.0 Q17.3 -189.75 51.65 -189.9 L53.1 -189.95 Q67.15 -190.2 81.15 -189.95 82.9 -189.9 83.0 -188.25 L82.75 -187.75 82.4 -187.2 81.9 -186.8 81.15 -186.7 Q56.6 -186.15 32.0 -185.9 L45.0 -185.7 46.45 -185.65 81.9 -184.8 Q83.6 -184.75 83.75 -183.1 L83.5 -182.55 83.15 -182.05 82.6 -181.6 81.9 -181.55 47.95 -181.55 47.2 -181.6 46.45 -181.7 Q-33.65 -181.65 -113.1 -183.85 L-113.25 -184.4 -113.3 -184.95 -113.3 -185.5 -113.2 -186.0 -112.9 -186.6 -112.5 -186.95 -112.15 -187.1 -111.45 -187.25 -111.45 -187.35 -110.5 -187.15 -42.8 -186.4 -41.5 -186.4 -29.9 -186.3 Q-73.0 -187.45 -116.25 -188.25 -116.6 -188.25 -116.95 -188.8 L-116.95 -189.35 -116.85 -189.85 -116.35 -190.4 -115.1 -191.05 -114.4 -191.05 -114.75 -191.75 -114.7 -192.3 Q-114.4 -193.75 -112.8 -194.15 L-106.65 -194.85 -54.05 -195.85 -50.2 -196.2 35.4 -195.95 37.65 -195.85 51.45 -195.15 84.25 -193.8 Q85.25 -193.75 85.2 -192.7 L84.95 -192.2 M83.35 -176.45 L82.6 -176.35 76.35 -175.8 75.25 -175.7 Q-22.75 -175.35 -120.65 -177.2 L-121.4 -177.75 -121.4 -178.3 -121.3 -178.8 -120.8 -179.4 -120.25 -179.7 -119.55 -179.85 -119.55 -179.95 -25.1 -179.8 -23.8 -179.75 Q25.9 -179.6 75.6 -179.75 L82.6 -179.65 Q84.35 -179.55 84.45 -177.95 L84.25 -177.4 83.85 -176.85 83.35 -176.45 M82.0 -128.0 L81.15 -127.0 29.3 -125.05 Q-44.0 -124.0 -117.35 -124.4 -119.55 -124.4 -119.9 -126.45 L-119.85 -127.0 -119.55 -127.55 -119.2 -127.95 Q-117.8 -128.75 -116.4 -128.7 -42.9 -127.95 30.6 -128.1 L33.2 -128.2 76.0 -130.55 Q80.1 -132.0 82.15 -128.95 L82.25 -128.5 82.0 -128.0 M84.2 -141.3 L83.35 -140.3 82.6 -140.2 -37.3 -139.55 -39.85 -139.55 Q-75.45 -139.55 -111.05 -140.3 L-111.8 -140.85 -111.75 -141.4 Q-111.6 -142.9 -109.95 -142.9 L-37.3 -143.5 -34.7 -143.7 -34.7 -143.8 Q23.95 -143.8 82.6 -143.45 84.35 -143.4 84.45 -141.8 L84.2 -141.3 M85.7 -117.65 L84.85 -116.7 84.1 -116.6 66.4 -116.8 65.65 -116.85 64.9 -116.95 -14.75 -118.1 Q-46.05 -118.45 -77.3 -118.35 L-79.9 -118.35 Q-94.9 -118.05 -109.95 -118.1 -111.45 -118.1 -111.8 -119.45 L-111.8 -120.0 Q-111.8 -121.05 -110.7 -121.45 L-109.95 -121.6 -78.6 -122.15 -76.0 -122.4 -16.25 -122.15 -14.05 -122.1 34.65 -121.3 66.4 -120.45 85.0 -119.3 Q86.0 -119.2 85.95 -118.15 L85.7 -117.65 M-113.1 -107.4 L-113.3 -107.65 Q-109.9 -112.85 -101.8 -111.8 L-100.35 -111.75 -48.7 -113.6 39.3 -115.1 47.2 -115.3 Q52.1 -115.45 56.05 -116.5 L79.85 -116.05 Q82.5 -115.95 83.0 -113.75 L82.75 -113.2 82.4 -112.7 81.9 -112.25 Q60.95 -113.65 40.2 -110.9 L38.35 -110.8 Q-22.35 -112.3 -82.65 -108.7 L-83.75 -108.65 -109.3 -107.45 -112.6 -107.15 Q-112.85 -107.1 -113.1 -107.4 M119.15 -112.8 L119.2 -113.35 Q119.35 -114.85 121.0 -114.85 L202.9 -115.55 205.85 -115.6 225.2 -115.9 127.25 -116.7 Q126.9 -116.7 126.55 -117.25 L126.6 -117.75 127.15 -118.85 127.65 -119.2 128.35 -119.35 128.35 -119.45 307.65 -119.2 312.1 -119.15 365.95 -118.35 Q367.7 -118.35 367.8 -116.7 L367.6 -116.15 367.2 -115.65 366.7 -115.2 365.95 -115.1 347.05 -115.1 347.15 -114.5 346.9 -114.0 346.05 -113.0 345.3 -112.9 Q272.55 -113.7 199.95 -112.2 160.45 -111.35 121.0 -111.45 119.5 -111.45 119.15 -112.8 M152.35 -142.65 Q160.95 -142.35 168.2 -143.8 L267.8 -143.55 271.15 -143.45 315.75 -141.05 349.15 -139.85 Q350.15 -139.85 350.1 -138.85 L349.85 -138.3 349.5 -137.75 349.0 -137.35 348.25 -137.25 Q315.95 -137.25 283.65 -138.45 L268.95 -138.85 Q217.65 -139.85 166.35 -139.5 152.5 -139.4 138.8 -137.55 L141.85 -137.5 Q165.65 -136.6 189.45 -136.85 L195.5 -136.9 Q236.1 -137.15 276.7 -137.0 L279.65 -136.9 Q297.8 -135.85 315.8 -136.25 325.8 -136.45 334.85 -133.6 L335.35 -132.9 335.1 -132.4 334.75 -131.85 334.25 -131.45 318.0 -132.05 317.25 -132.2 315.8 -132.4 282.6 -132.8 281.1 -132.85 Q212.15 -133.35 143.15 -132.95 L140.55 -132.95 Q134.15 -133.0 128.1 -134.3 127.65 -134.4 127.25 -134.95 L127.35 -135.5 127.9 -136.55 128.15 -136.75 128.05 -137.15 128.0 -138.25 128.1 -138.8 128.35 -139.4 128.75 -139.65 Q139.2 -142.55 150.15 -142.7 L152.35 -142.65 M128.4 -131.7 L129.1 -131.9 129.1 -132.0 301.05 -131.75 305.45 -131.65 Q320.25 -131.3 334.7 -129.15 L335.9 -128.5 336.0 -127.95 335.9 -127.4 335.7 -126.85 335.35 -126.65 302.5 -127.05 Q215.25 -128.4 128.0 -129.25 127.65 -129.25 127.25 -129.8 L127.35 -130.3 127.9 -131.4 Q128.1 -131.65 128.4 -131.7 M123.55 -127.55 L124.65 -128.2 124.7 -128.3 Q156.4 -128.3 188.15 -127.75 L199.2 -127.65 231.85 -127.2 Q275.3 -126.2 318.75 -125.5 L355.3 -123.3 Q358.05 -123.0 359.85 -121.3 L360.4 -120.4 360.2 -119.85 359.85 -119.3 359.3 -118.9 358.6 -118.8 Q350.6 -119.05 342.7 -120.55 L341.8 -120.7 323.15 -121.75 Q257.9 -120.9 192.95 -124.15 L189.8 -124.25 Q156.7 -124.7 123.55 -125.55 123.2 -125.55 122.85 -126.1 L122.9 -126.6 123.55 -127.55 M1.45 -132.4 Q-52.7 -132.9 -106.8 -132.9 L-107.75 -132.75 -108.45 -132.8 -109.55 -133.2 -110.1 -133.7 -110.3 -134.2 -110.3 -134.75 -110.2 -135.25 -109.75 -135.85 -109.2 -136.45 -108.85 -136.8 -108.45 -136.9 -107.75 -137.05 -107.75 -137.15 Q-54.25 -137.15 -0.75 -136.65 L12.9 -136.35 53.65 -135.25 79.1 -134.05 Q80.1 -133.95 80.05 -132.9 L79.8 -132.4 79.45 -131.85 78.95 -131.45 78.2 -131.35 Q45.75 -131.45 13.25 -132.25 L1.45 -132.4 M373.35 -256.9 Q356.25 -255.45 339.4 -252.45 L338.65 -252.25 337.1 -253.3 336.8 -253.75 Q338.65 -257.0 343.45 -257.55 L342.75 -257.9 342.15 -258.35 342.05 -258.9 342.1 -260.55 342.35 -261.1 354.9 -262.6 362.4 -261.8 Q363.4 -261.6 363.4 -260.55 L363.1 -260.05 362.65 -259.45 371.1 -260.4 Q373.35 -260.8 374.35 -258.85 L374.45 -258.35 374.2 -257.85 373.35 -256.9 M-328.75 -245.65 L-328.65 -246.15 -328.1 -247.2 -327.6 -247.55 -326.9 -247.75 -326.9 -247.85 Q-302.55 -247.85 -278.2 -247.4 L-254.4 -247.0 Q-215.0 -246.45 -175.6 -246.75 -169.5 -246.8 -164.75 -243.65 L-164.2 -242.85 -164.4 -242.35 -164.8 -241.8 -165.3 -241.4 -166.05 -241.3 -174.7 -241.6 Q-214.55 -242.6 -254.4 -242.95 L-255.7 -243.05 -256.95 -243.15 -328.0 -245.05 -328.75 -245.65 M-328.0 -168.15 L-328.0 -168.7 Q-328.0 -169.75 -326.85 -170.1 L-326.15 -170.25 -326.15 -170.35 Q-319.4 -171.7 -312.85 -171.6 -314.05 -172.1 -314.7 -173.3 L-314.55 -174.35 -314.15 -174.95 -313.55 -175.25 -312.9 -175.45 -312.85 -175.55 Q-295.15 -173.6 -277.25 -173.4 -208.0 -172.65 -138.75 -172.2 -137.0 -172.2 -136.9 -170.55 L-137.1 -170.0 -137.5 -169.5 -138.0 -169.1 Q-193.35 -169.0 -248.65 -169.35 L-247.4 -169.35 -140.2 -168.5 Q-138.45 -168.5 -138.35 -166.85 L-138.6 -166.35 -139.45 -165.4 -245.7 -165.4 -249.05 -165.55 -250.7 -165.65 -309.9 -166.2 -310.65 -166.3 -311.4 -166.4 -327.2 -167.55 -328.0 -168.15 M-313.4 -241.35 L-312.85 -241.65 -312.15 -241.85 -312.15 -241.95 -299.05 -241.9 Q-232.55 -240.65 -166.05 -240.1 -164.3 -240.05 -164.2 -238.45 L-164.4 -237.9 -164.8 -237.4 -165.3 -236.95 Q-231.7 -236.85 -298.1 -237.15 L-306.2 -237.65 -307.25 -237.6 Q-311.9 -236.7 -313.95 -239.75 L-313.95 -240.3 -313.85 -240.8 -313.4 -241.35 M-187.05 -133.1 Q-238.3 -132.0 -289.6 -132.9 L-290.35 -133.5 Q-290.05 -136.0 -287.05 -136.05 L-192.6 -137.0 -191.1 -137.0 -149.05 -137.8 -149.05 -137.9 -148.75 -138.0 -280.4 -137.35 -281.9 -137.3 -300.3 -136.45 Q-300.85 -136.6 -301.4 -136.9 L-302.0 -137.35 -302.1 -137.9 -302.05 -139.55 -301.8 -140.1 -301.4 -140.4 -300.3 -140.7 -280.4 -141.3 -278.9 -141.6 Q-213.25 -141.6 -147.6 -141.2 -145.85 -141.2 -145.75 -139.55 L-146.0 -139.05 -146.7 -138.25 Q-144.8 -138.1 -143.65 -136.35 L-143.55 -135.85 Q-143.6 -135.6 -143.8 -135.4 -144.15 -134.85 -144.65 -134.4 L-153.15 -134.1 -138.6 -133.3 Q-137.6 -133.25 -137.6 -132.2 L-137.9 -131.7 -138.75 -130.7 -191.1 -128.15 Q-239.6 -125.45 -287.95 -128.05 L-288.15 -128.3 Q-288.4 -129.75 -287.05 -129.75 -237.8 -129.35 -188.95 -133.0 L-187.05 -133.1 M-184.5 -117.25 L-145.2 -116.75 Q-142.55 -116.7 -142.05 -114.5 L-142.25 -113.95 -142.65 -113.4 -143.15 -113.0 Q-166.0 -115.0 -188.9 -112.65 L-205.15 -111.65 Q-242.8 -110.95 -280.4 -109.75 -294.25 -109.3 -308.05 -110.05 L-308.8 -110.6 Q-309.0 -112.55 -306.95 -112.55 -281.1 -112.6 -255.3 -113.7 L-205.15 -115.5 -184.5 -117.15 -184.5 -117.25 M-163.1 -122.2 Q-149.2 -123.4 -136.6 -121.0 L-136.15 -120.4 -136.35 -119.85 -136.75 -119.3 -137.25 -118.9 Q-150.45 -116.95 -163.8 -118.4 L-164.55 -118.45 Q-222.85 -118.7 -281.15 -118.55 -288.55 -118.5 -294.05 -121.65 L-294.05 -122.2 -293.95 -122.7 -293.45 -123.25 -292.2 -123.9 -281.15 -123.75 Q-223.2 -122.5 -165.3 -122.15 L-163.1 -122.2 M-188.9 -143.45 Q-238.4 -142.25 -287.4 -143.25 -287.8 -143.25 -288.15 -143.8 -288.35 -145.75 -286.3 -145.8 -236.15 -147.45 -185.95 -147.65 L-157.9 -148.9 -157.9 -148.95 Q-140.85 -148.8 -123.8 -148.05 -122.85 -148.0 -122.85 -146.95 L-123.15 -146.45 -123.95 -145.45 Q-149.85 -146.05 -175.65 -144.1 L-188.9 -143.45" fill="#4a4a4a" fill-rule="evenodd" stroke="none"/>
    <path d="M277.05 -317.2 Q277.35 -295.35 280.75 -274.05 281.0 -272.5 280.2 -271.25 278.55 -270.6 276.7 -270.7 L275.0 -271.65 Q274.3 -293.3 272.8 -314.8 L272.6 -319.8 273.8 -320.6 274.45 -320.9 275.9 -319.9 276.3 -319.4 276.3 -318.85 276.3 -318.3 276.7 -317.75 277.05 -317.2 M300.65 -316.8 L301.85 -317.65 302.5 -317.95 303.9 -316.95 304.35 -316.45 Q308.65 -295.2 308.8 -273.3 L308.8 -269.95 307.75 -269.0 306.95 -268.5 305.25 -269.4 Q305.0 -270.2 305.05 -271.1 L305.1 -272.2 Q303.1 -271.85 301.6 -273.1 298.8 -293.95 300.6 -315.15 L300.65 -316.8 M296.1 -268.1 Q295.45 -270.1 295.4 -272.2 L295.3 -273.3 Q292.45 -269.7 289.6 -272.9 291.65 -275.4 292.65 -278.85 293.3 -280.85 293.25 -283.05 293.0 -297.3 293.65 -311.3 L294.45 -311.75 295.15 -312.05 296.55 -311.05 296.95 -310.55 Q299.6 -292.0 299.2 -272.9 L299.2 -271.8 299.55 -271.25 299.95 -270.7 299.95 -270.15 299.95 -269.6 300.55 -268.45 300.65 -268.1 300.65 -267.95 300.0 -266.9 299.55 -266.45 Q297.7 -265.8 296.4 -267.2 L296.1 -268.1 M-260.95 -268.1 L-262.85 -268.7 -264.7 -273.65 -264.9 -274.2 Q-266.35 -273.35 -268.05 -273.65 L-268.55 -273.1 -268.95 -272.55 -268.95 -272.0 -268.95 -271.45 -269.95 -270.45 Q-270.35 -270.15 -270.8 -269.95 L-272.45 -270.9 Q-272.75 -272.25 -272.7 -273.65 L-272.65 -274.75 -272.05 -275.3 -271.35 -275.85 Q-271.05 -280.25 -271.15 -284.75 L-271.15 -285.85 -270.0 -286.65 -269.35 -286.95 -267.9 -285.95 -267.5 -285.45 -266.85 -280.45 -266.75 -279.55 -265.6 -280.05 -264.9 -280.3 Q-261.15 -277.2 -259.75 -272.55 L-259.5 -272.95 -259.35 -274.05 -258.3 -275.15 -257.9 -275.7 Q-257.65 -278.15 -256.05 -280.15 L-255.7 -280.65 Q-251.9 -302.45 -249.95 -324.4 L-249.75 -328.25 Q-249.15 -329.55 -247.95 -330.5 L-247.55 -330.85 -247.2 -330.95 -246.5 -331.1 -246.45 -331.2 -245.05 -330.2 -244.6 -329.75 Q-247.0 -313.7 -246.45 -297.05 -246.1 -285.75 -246.1 -274.4 L-247.0 -272.75 -247.2 -272.2 -247.6 -271.9 -248.65 -271.45 Q-250.4 -272.0 -251.8 -273.1 L-252.7 -277.0 -252.9 -277.9 Q-254.1 -276.45 -254.25 -274.6 L-254.4 -274.05 -255.3 -272.9 -255.7 -272.35 Q-256.75 -268.6 -259.2 -268.1 L-260.95 -268.1 M-215.65 -268.1 L-215.8 -269.05 -215.85 -270.15 -215.7 -270.85 -216.2 -270.7 -217.85 -271.65 Q-218.2 -273.0 -218.1 -274.4 L-218.05 -275.5 -217.5 -276.05 Q-216.05 -291.2 -213.65 -305.95 L-213.6 -306.5 -213.05 -307.05 -212.95 -307.6 -212.9 -308.7 -212.35 -309.25 -212.2 -309.8 -212.15 -310.9 Q-210.65 -313.05 -208.8 -314.8 -208.45 -316.05 -207.55 -317.0 L-207.0 -317.55 -205.9 -317.85 -205.85 -317.95 -204.45 -316.95 -204.05 -316.45 -205.1 -272.75 -205.15 -268.1 -205.15 -263.35 Q-207.1 -261.7 -209.0 -263.5 L-208.85 -268.1 -208.75 -271.8 -209.1 -271.35 -209.55 -270.9 -210.3 -270.7 -210.6 -270.95 -210.65 -269.6 -210.65 -268.5 -210.95 -268.1 Q-213.0 -265.8 -215.65 -267.95 L-215.65 -268.1 M-197.5 -268.1 L-197.75 -268.5 -198.1 -269.05 Q-198.15 -282.95 -198.95 -296.7 -199.15 -299.35 -198.5 -301.7 L-197.7 -302.2 -197.0 -302.45 Q-195.65 -302.6 -194.8 -301.5 L-194.45 -300.95 -194.7 -299.9 -195.0 -299.3 Q-192.05 -290.0 -189.95 -280.5 L-189.65 -279.4 -188.0 -279.2 Q-187.3 -281.25 -185.2 -281.8 -183.95 -281.45 -183.45 -280.25 L-183.35 -279.75 Q-182.35 -279.8 -181.7 -280.85 L-181.35 -281.4 Q-181.05 -282.2 -181.1 -283.05 L-181.15 -284.15 -180.25 -285.3 -179.85 -285.85 Q-179.4 -291.8 -177.7 -297.5 -177.45 -298.3 -177.45 -299.1 L-176.3 -299.95 -175.6 -300.2 -174.2 -299.2 -173.8 -298.75 Q-173.45 -284.4 -174.7 -270.45 L-175.1 -268.1 -175.45 -266.95 -175.6 -266.3 -175.75 -266.15 -175.8 -266.1 -176.4 -265.8 -177.1 -265.55 -178.75 -266.45 -178.85 -268.1 -178.9 -271.15 -178.85 -277.6 -183.0 -271.45 Q-185.45 -271.6 -186.3 -274.05 L-186.3 -274.6 -186.3 -275.15 Q-191.6 -273.6 -193.7 -277.7 L-193.8 -279.9 -194.05 -281.05 Q-194.55 -278.7 -193.95 -274.2 -193.5 -271.05 -193.8 -268.1 -193.95 -266.7 -194.25 -265.35 -194.55 -265.15 -194.85 -265.05 L-195.55 -264.8 -197.2 -265.75 -197.35 -266.85 -197.4 -267.95 -197.5 -268.1 M-147.9 -268.1 L-147.95 -268.7 Q-150.55 -269.45 -152.55 -272.35 L-153.55 -271.7 -154.2 -271.45 Q-155.5 -271.9 -156.6 -272.75 -157.15 -272.05 -157.95 -271.7 L-158.65 -271.45 -160.3 -272.35 -160.45 -273.5 -160.5 -274.6 Q-159.75 -275.3 -159.55 -276.2 L-159.2 -276.8 Q-158.9 -281.45 -159.0 -286.2 L-159.0 -287.3 -157.85 -288.15 -157.15 -288.4 -155.75 -287.4 -155.35 -286.95 Q-154.8 -283.7 -154.6 -280.3 L-154.6 -279.4 Q-152.1 -281.45 -150.15 -278.8 L-150.15 -278.25 -150.15 -277.15 -149.35 -275.95 -145.95 -275.55 Q-141.3 -285.0 -142.05 -296.0 L-141.7 -296.55 -141.3 -297.1 -141.3 -307.6 -141.3 -308.7 -140.15 -309.55 -139.45 -309.8 -138.05 -308.8 -137.6 -308.35 -137.6 -291.75 -137.6 -290.65 -136.85 -290.95 -135.8 -291.35 -134.35 -290.35 -133.95 -289.9 -133.9 -268.1 -133.9 -265.0 Q-133.9 -264.1 -134.3 -263.35 L-134.7 -263.05 -135.8 -262.6 -137.45 -263.5 Q-138.8 -265.7 -139.4 -268.1 L-139.9 -271.25 -140.0 -271.8 -141.45 -273.5 -141.95 -272.8 -142.4 -272.35 -143.35 -272.35 Q-143.35 -270.1 -144.0 -268.1 L-144.25 -267.0 -145.25 -266.0 -146.1 -265.55 -147.75 -266.45 -147.9 -267.6 -147.9 -268.1 M-108.65 -268.1 Q-109.0 -274.65 -108.85 -281.2 L-108.85 -282.9 -107.7 -283.7 -107.0 -284.0 -105.6 -283.0 -105.15 -282.5 Q-104.05 -277.45 -102.45 -272.45 -101.2 -273.85 -99.25 -274.95 -98.8 -281.95 -99.5 -289.4 -100.25 -297.5 -99.6 -305.4 L-99.2 -305.65 -98.15 -306.0 -98.15 -306.15 Q-92.9 -300.5 -92.65 -291.9 -92.6 -288.2 -92.85 -284.7 -93.15 -280.95 -94.65 -277.55 -91.15 -275.6 -90.4 -272.2 L-91.4 -271.2 -92.25 -270.7 -95.55 -272.55 Q-97.4 -272.3 -98.05 -270.35 L-98.35 -269.8 Q-100.0 -268.9 -101.25 -269.05 L-100.9 -268.1 -100.9 -268.05 -100.75 -267.0 -101.75 -266.0 -102.55 -265.55 Q-104.4 -266.2 -105.1 -268.1 L-105.15 -268.15 -105.2 -268.1 -105.95 -267.5 -107.0 -267.0 -108.65 -267.95 -108.65 -268.1 M-71.7 -268.1 L-71.45 -276.85 Q-72.0 -274.7 -72.7 -272.55 L-73.05 -271.45 -73.45 -271.1 -73.8 -270.9 -74.55 -270.7 -76.2 -271.65 -76.35 -272.75 -76.4 -273.85 Q-71.75 -289.65 -72.65 -305.95 L-72.7 -307.6 -72.45 -308.1 -71.95 -308.7 -70.85 -309.0 -70.85 -309.1 Q-66.9 -305.85 -68.1 -299.8 -68.5 -297.9 -67.9 -296.15 L-66.9 -297.35 -65.7 -298.0 -64.25 -297.0 -64.05 -296.8 -64.0 -295.65 Q-66.4 -283.9 -63.4 -272.65 L-62.9 -271.1 Q-61.95 -270.15 -61.7 -268.85 L-61.6 -268.1 -61.6 -267.75 -62.65 -266.75 Q-63.0 -266.45 -63.45 -266.3 -65.1 -266.65 -65.9 -268.1 L-66.05 -268.3 Q-66.2 -269.8 -67.1 -271.1 L-67.7 -272.2 -67.9 -272.3 -68.0 -272.3 -68.25 -268.1 -68.25 -267.0 -69.25 -266.0 -70.1 -265.55 -71.75 -266.45 -71.7 -268.1 M-55.7 -268.1 L-55.15 -286.4 -55.55 -289.3 Q-52.4 -289.55 -51.15 -292.7 -49.35 -297.15 -48.4 -301.85 L-47.45 -306.7 Q-46.35 -289.15 -46.85 -271.25 L-46.85 -269.8 -42.45 -270.35 -38.75 -273.5 Q-37.45 -295.5 -34.25 -317.2 L-32.85 -326.05 -32.6 -326.55 -32.1 -327.15 -31.05 -327.4 -31.0 -327.5 -29.6 -326.5 -29.15 -326.05 Q-29.45 -304.25 -30.15 -282.35 -30.3 -276.75 -34.15 -272.35 -34.05 -271.25 -33.1 -270.1 L-32.85 -269.6 -33.05 -269.05 -33.6 -268.15 -33.7 -268.1 Q-39.0 -265.85 -44.85 -265.9 L-45.75 -264.8 -46.15 -264.45 Q-49.25 -261.85 -52.3 -263.35 L-52.7 -259.65 -52.75 -258.55 -51.75 -257.35 -51.5 -256.85 -51.4 -256.35 -51.55 -255.5 -51.65 -255.2 Q-54.0 -253.45 -56.25 -255.4 L-56.25 -255.5 -55.7 -268.1 M6.75 -268.1 L5.7 -268.7 5.55 -269.8 5.5 -270.9 7.5 -273.85 6.65 -273.65 5.9 -273.7 Q4.75 -273.75 4.3 -274.55 1.65 -273.1 -1.1 -272.0 L-1.5 -271.45 -1.85 -271.1 -2.25 -270.9 -3.35 -270.5 Q-3.3 -269.5 -4.3 -268.9 L-5.2 -268.5 Q-7.15 -268.25 -7.75 -269.95 -5.0 -276.45 2.8 -278.5 5.4 -279.2 7.75 -280.6 10.8 -282.5 14.0 -284.0 L15.4 -283.0 15.85 -282.5 Q15.75 -279.85 14.2 -277.55 L13.8 -277.0 Q13.75 -275.55 14.75 -274.2 L15.1 -273.65 15.1 -272.0 15.1 -271.1 Q31.5 -272.25 36.5 -287.3 L37.05 -287.85 Q37.05 -290.2 37.9 -292.35 L38.15 -293.4 39.85 -294.3 41.25 -293.3 41.7 -292.85 Q40.8 -284.55 38.0 -276.8 L37.8 -276.25 Q39.65 -275.2 41.7 -273.3 L42.35 -273.4 42.95 -273.85 Q47.2 -295.4 47.55 -317.55 L47.6 -319.8 48.75 -320.6 49.4 -320.9 50.85 -319.9 51.25 -319.4 Q52.45 -297.6 52.85 -275.7 L52.95 -274.75 Q57.05 -282.85 57.1 -292.1 57.2 -300.95 57.9 -309.8 60.15 -313.7 63.05 -310.55 62.9 -294.3 63.15 -278.45 L63.05 -277.15 64.7 -281.35 65.1 -281.95 65.25 -283.05 65.3 -284.15 Q66.15 -285.75 67.85 -286.2 L69.3 -285.2 69.7 -284.75 69.7 -284.15 69.7 -283.6 70.1 -283.05 70.45 -282.5 70.45 -274.75 70.45 -273.65 69.45 -272.65 Q69.05 -272.35 68.6 -272.2 L66.95 -273.1 66.75 -274.2 66.6 -275.3 Q65.55 -273.85 65.3 -272.2 L65.1 -271.1 64.2 -269.95 63.8 -269.4 63.8 -268.85 63.8 -268.1 63.8 -267.75 Q63.15 -266.45 61.9 -265.8 L61.25 -265.55 59.55 -266.45 59.55 -268.1 Q59.4 -273.1 58.9 -278.05 L58.65 -279.0 Q56.8 -273.5 54.6 -268.1 L53.85 -266.3 Q51.9 -264.65 50.0 -266.45 L49.8 -268.1 Q49.7 -269.2 49.75 -270.35 L49.8 -271.45 49.55 -271.95 49.05 -272.55 48.95 -280.85 48.85 -281.8 Q47.65 -277.95 46.95 -274.0 L46.85 -272.9 46.05 -271.85 45.55 -271.25 45.3 -270.2 44.8 -269.05 Q40.85 -266.95 39.3 -270.5 36.7 -267.0 33.0 -268.7 32.7 -270.85 32.8 -273.1 L32.8 -274.2 Q27.15 -269.95 20.6 -268.1 17.05 -267.1 13.25 -266.8 12.45 -266.75 11.6 -267.2 L11.5 -268.1 Q11.3 -269.55 11.4 -271.1 L11.45 -272.2 Q10.0 -270.9 9.0 -268.9 L8.65 -268.3 8.3 -268.1 8.1 -268.0 7.35 -267.75 6.75 -268.1 M194.6 -268.1 Q194.55 -278.05 195.1 -288.05 L195.15 -289.15 195.4 -289.65 195.9 -290.25 196.95 -290.55 197.0 -290.65 198.4 -289.65 198.85 -289.15 Q199.85 -278.6 201.0 -268.1 L201.05 -267.0 200.05 -266.05 199.2 -265.55 Q197.7 -266.35 196.25 -265.55 L194.6 -266.45 194.6 -268.1 M315.0 -299.95 L315.4 -299.5 317.6 -280.65 317.65 -279.55 316.6 -278.55 315.8 -278.1 314.7 -278.25 314.55 -273.3 314.3 -272.2 313.9 -271.9 312.85 -271.45 311.2 -272.35 Q310.65 -284.65 311.6 -296.75 L311.75 -299.5 312.0 -300.0 312.45 -300.6 313.55 -300.85 313.6 -300.95 315.0 -299.95 M167.85 -305.4 Q169.6 -289.5 172.95 -273.85 173.3 -272.0 172.45 -270.5 L171.9 -270.2 171.15 -269.95 169.5 -270.9 169.35 -271.45 169.15 -272.55 Q167.4 -270.35 165.1 -272.35 165.0 -288.5 164.0 -304.45 163.95 -305.4 164.55 -306.15 L165.3 -306.6 166.0 -306.85 167.4 -305.85 167.85 -305.4 M168.95 -274.4 Q169.4 -274.85 168.8 -276.65 168.7 -277.05 168.6 -276.6 L168.7 -274.95 168.95 -274.4 M303.8 -289.9 Q304.55 -283.85 304.7 -277.7 L304.9 -277.15 Q305.8 -283.5 303.9 -289.85 L303.8 -289.9 M266.25 -275.75 Q266.75 -274.2 266.7 -272.55 L267.35 -271.4 267.45 -270.9 266.8 -269.85 266.35 -269.4 Q264.5 -268.75 263.2 -270.15 262.9 -271.5 262.95 -272.9 L262.85 -274.05 262.2 -273.4 261.2 -272.9 259.55 -273.85 Q259.2 -275.45 259.3 -277.15 L259.35 -278.25 258.95 -278.8 258.6 -279.4 Q258.5 -284.95 257.8 -290.45 257.65 -291.4 258.25 -292.1 L259.0 -292.6 259.7 -292.85 Q263.7 -287.95 264.95 -280.95 265.45 -278.3 266.25 -275.75 M248.65 -284.0 Q250.3 -283.4 251.4 -281.95 L251.8 -281.4 251.95 -280.3 252.15 -279.2 253.6 -277.5 254.0 -277.0 254.25 -275.3 254.2 -273.65 253.15 -272.65 252.35 -272.2 250.65 -273.1 250.55 -274.2 250.5 -275.3 Q249.3 -275.35 249.7 -272.9 249.85 -272.0 249.2 -271.25 L248.6 -270.95 247.9 -270.7 246.25 -271.65 Q245.95 -276.35 246.45 -281.05 246.55 -282.25 247.15 -283.25 L247.6 -283.5 248.6 -283.9 248.65 -284.0 M-84.5 -279.55 Q-83.15 -276.1 -83.3 -272.4 -83.3 -271.8 -83.55 -271.25 L-84.15 -270.95 -84.85 -270.7 Q-86.7 -271.4 -87.45 -273.3 -88.0 -276.0 -88.15 -278.85 L-88.2 -279.95 -87.0 -280.75 -86.35 -281.05 -84.95 -280.05 -84.5 -279.55 M-14.1 -276.35 L-13.65 -275.85 Q-13.65 -273.0 -11.7 -270.8 L-11.45 -270.35 -11.65 -269.8 -12.2 -268.85 -12.55 -268.7 -13.3 -268.5 Q-16.05 -268.95 -16.6 -271.25 L-25.1 -268.5 Q-27.05 -268.25 -27.7 -269.95 -26.8 -273.9 -21.95 -273.3 -19.1 -276.05 -15.55 -277.25 L-15.5 -277.35 -14.1 -276.35 M-32.95 -293.3 L-33.05 -293.2 Q-33.65 -285.7 -34.95 -278.25 L-34.85 -278.1 Q-32.2 -285.4 -32.95 -293.3 M-208.45 -307.8 L-208.8 -306.5 -208.45 -306.15 -208.45 -306.7 -208.45 -307.8 M-284.8 -314.25 L-283.4 -313.25 -283.0 -312.75 Q-282.15 -295.9 -282.7 -279.0 -282.7 -278.45 -283.0 -277.9 -282.1 -276.0 -282.55 -274.05 L-282.8 -273.5 -283.35 -273.15 -284.1 -272.9 Q-286.05 -274.4 -286.85 -274.2 -288.4 -271.7 -290.9 -273.85 -290.5 -292.55 -287.2 -310.9 L-286.85 -311.45 -286.75 -312.05 -286.65 -313.15 -285.5 -313.95 -284.8 -314.25 M-249.95 -291.9 L-250.65 -288.6 -250.7 -288.05 -249.95 -287.7 Q-249.65 -289.75 -249.85 -291.9 L-249.95 -291.9 M-286.65 -279.55 L-286.35 -280.5 -286.7 -280.4 -286.7 -280.1 -286.65 -279.55 M-222.45 -275.3 Q-223.4 -273.05 -225.8 -272.2 -227.3 -273.0 -228.75 -272.2 L-230.4 -273.1 Q-230.05 -281.85 -227.8 -290.3 L-227.65 -291.35 -227.4 -291.9 -226.9 -292.5 -225.8 -292.75 -225.8 -292.85 -224.4 -291.85 -223.95 -291.35 -223.95 -278.65 -223.95 -277.55 Q-223.1 -276.8 -222.6 -275.8 L-222.45 -275.3 M-208.7 -274.5 Q-208.4 -290.25 -208.45 -306.15 L-209.5 -291.0 -209.2 -290.65 Q-209.6 -282.45 -208.7 -274.5" fill="#000000" fill-rule="evenodd" stroke="none"/>
    <path d="M300.65 -268.1 L384.0 -268.1 M384.0 -26.05 L-328.75 -26.05 -328.75 -96.9 M-328.75 -100.35 L-328.75 -149.65 M-328.75 -153.65 L-328.75 -165.95 M-328.75 -169.45 L-328.75 -183.25 M-328.75 -187.25 L-328.75 -187.5 M-328.75 -190.95 L-328.75 -193.25 -328.75 -193.8 -328.75 -194.85 M-328.75 -198.95 L-328.75 -209.1 M-328.75 -214.3 L-328.75 -233.9 M-328.75 -236.8 L-328.75 -245.65 -328.75 -258.25 M-328.75 -263.4 L-328.75 -268.1 -260.95 -268.1 -259.2 -268.1 -215.65 -268.1 M-205.15 -268.1 L-197.5 -268.1 M-175.1 -268.1 L-147.9 -268.1 M-133.9 -268.1 L-108.65 -268.1 M-100.9 -268.1 L-71.7 -268.1 M-61.6 -268.1 L-55.7 -268.1 M-33.7 -268.1 L6.75 -268.1 M63.8 -268.1 L194.6 -268.1 M201.0 -268.1 L296.1 -268.1 M20.6 -268.1 L49.8 -268.1 M59.55 -268.1 L54.6 -268.1 M11.5 -268.1 L8.3 -268.1 M-105.2 -268.1 L-105.1 -268.1 M-144.0 -268.1 L-139.4 -268.1 M-68.25 -268.1 L-65.9 -268.1 M-193.8 -268.1 L-178.85 -268.1 M-210.95 -268.1 L-208.85 -268.1" fill="none" stroke="#000000" stroke-linecap="round" stroke-linejoin="round" stroke-width="2.0"/>
  </g>
  <defs>
    <linearGradient gradientTransform="matrix(0.0448, -0.1485, -0.4325, -0.1304, 62.25, -360.35)" gradientUnits="userSpaceOnUse" id="gradient0" spreadMethod="pad" x1="-819.2" x2="819.2">
      <stop offset="0.0" stop-color="#330000"/>
      <stop offset="1.0" stop-color="#000000"/>
    </linearGradient>
  </defs>
</svg>
