<?xml version="1.0" encoding="UTF-8" standalone="no"?>
<svg xmlns:ffdec="https://www.free-decompiler.com/flash" xmlns:xlink="http://www.w3.org/1999/xlink" ffdec:objectType="shape" height="176.35px" width="169.1px" xmlns="http://www.w3.org/2000/svg">
  <g transform="matrix(1.0, 0.0, 0.0, 1.0, -84.85, 241.1)">
    <path d="M195.35 -235.85 L195.8 -236.8 200.4 -237.25 Q203.25 -237.0 206.6 -235.05 L206.45 -234.8 206.1 -234.65 Q205.5 -234.55 204.9 -233.6 L204.2 -232.15 203.9 -231.45 203.85 -231.3 202.9 -230.3 202.45 -230.2 200.45 -229.9 198.9 -229.8 Q197.5 -229.8 197.9 -231.3 L197.85 -231.4 197.9 -231.8 197.45 -232.0 196.85 -231.9 196.8 -231.9 195.5 -231.8 195.45 -232.1 Q195.5 -233.15 196.2 -234.3 L196.25 -234.4 196.55 -234.6 196.0 -234.8 195.45 -234.8 195.35 -235.85 M211.55 -231.65 L213.4 -230.55 230.5 -220.35 229.8 -219.45 Q228.6 -219.75 227.7 -218.75 L227.65 -218.6 227.25 -218.0 227.25 -217.55 Q226.95 -217.15 227.25 -216.85 L227.4 -216.65 Q223.65 -219.6 219.8 -221.95 L218.6 -220.95 Q219.15 -219.6 220.4 -218.65 L220.6 -218.4 221.35 -217.85 Q222.05 -216.15 223.7 -215.1 L224.45 -213.65 224.5 -213.5 223.25 -213.65 Q223.1 -213.2 223.35 -212.9 L223.4 -212.85 222.9 -212.3 222.8 -212.35 216.3 -218.7 209.9 -225.85 208.3 -227.8 207.25 -228.85 208.05 -229.7 208.15 -229.8 208.3 -230.0 208.35 -230.05 209.3 -230.9 209.8 -231.2 210.85 -232.1 211.55 -231.65 M145.85 -227.15 L146.55 -227.15 146.75 -226.65 147.05 -225.9 147.35 -225.4 147.8 -224.25 147.85 -224.2 147.85 -224.0 147.9 -223.85 Q148.05 -223.4 148.5 -223.05 L148.55 -222.9 Q148.5 -223.1 148.6 -223.05 L148.75 -223.3 148.85 -223.35 148.9 -223.65 148.65 -223.85 148.7 -224.0 148.65 -224.4 148.3 -225.0 148.3 -225.05 148.3 -225.45 147.9 -225.7 147.85 -225.7 147.9 -226.2 148.4 -226.0 Q150.65 -224.85 152.3 -223.05 L152.15 -222.0 151.5 -221.2 151.1 -221.5 150.75 -221.6 150.45 -221.65 150.65 -221.3 150.6 -221.2 Q150.6 -219.85 150.15 -218.9 L149.95 -218.7 148.85 -219.45 148.75 -219.5 148.3 -219.9 147.85 -220.0 147.65 -219.6 147.6 -219.5 Q147.1 -218.1 145.9 -218.8 L144.55 -219.8 144.75 -221.65 146.8 -222.4 148.2 -222.75 147.9 -223.85 148.2 -222.75 146.8 -222.4 144.75 -221.65 Q145.05 -224.45 145.85 -227.15 M146.95 -214.2 L146.0 -215.6 147.0 -214.4 146.95 -214.2 M154.25 -218.95 Q153.9 -218.95 153.9 -219.15 153.8 -219.95 153.25 -220.0 L153.15 -221.2 Q152.9 -221.65 152.9 -222.3 152.6 -224.5 153.55 -225.35 L153.8 -225.7 154.1 -226.2 154.3 -226.5 Q154.4 -227.25 154.95 -227.45 L155.2 -227.7 155.4 -231.15 Q155.6 -232.55 157.35 -232.45 L157.75 -232.35 157.85 -232.25 Q158.05 -231.95 158.65 -232.0 L160.7 -232.0 161.0 -231.95 161.65 -231.7 163.4 -231.35 163.85 -231.3 164.8 -231.05 166.5 -230.4 166.85 -230.2 168.55 -229.95 169.25 -229.9 173.0 -229.45 173.65 -229.45 173.65 -228.9 172.8 -228.5 172.4 -228.05 172.4 -227.7 Q172.35 -227.4 172.6 -226.95 L173.0 -226.4 Q171.7 -226.2 170.85 -225.1 170.05 -224.25 170.4 -222.95 L170.75 -222.75 174.2 -220.9 174.45 -220.5 174.65 -220.15 174.75 -219.95 165.8 -219.5 Q165.0 -219.4 164.6 -218.75 L164.6 -218.2 164.6 -218.0 164.6 -217.7 Q165.7 -216.25 167.1 -215.8 L166.9 -215.2 165.8 -215.4 162.75 -215.95 162.4 -216.05 161.45 -216.3 161.0 -216.5 159.75 -216.9 Q159.4 -217.0 158.95 -217.25 L157.35 -217.7 Q156.8 -217.7 156.35 -218.0 155.5 -218.65 154.55 -218.9 L154.55 -218.95 154.25 -218.95 M206.95 -229.0 L206.85 -228.8 206.8 -228.7 206.65 -228.55 206.65 -228.65 206.95 -229.0 M205.55 -232.75 Q206.2 -234.1 207.8 -234.1 207.85 -234.2 208.05 -234.3 L208.15 -234.35 Q209.75 -234.5 210.9 -233.9 L211.05 -233.85 211.1 -233.75 211.2 -233.4 211.3 -233.2 211.15 -232.9 211.1 -232.65 210.8 -232.65 210.65 -232.5 209.45 -232.25 209.15 -232.05 209.05 -231.4 209.0 -231.45 208.5 -231.4 Q208.2 -231.45 208.25 -232.05 L208.15 -232.0 207.7 -232.45 Q206.75 -233.45 205.55 -232.75 M186.65 -216.8 Q188.45 -215.4 189.95 -217.0 L190.2 -217.4 189.9 -216.4 189.75 -216.35 Q189.1 -215.95 188.25 -215.85 L187.25 -215.7 187.0 -215.6 186.9 -215.6 186.65 -216.8 M195.75 -226.4 L195.8 -226.6 197.2 -227.1 195.75 -226.4 M196.85 -231.55 L196.7 -231.55 196.8 -231.6 196.85 -231.55 M196.9 -228.35 L196.85 -228.25 196.7 -228.25 196.9 -228.35 M204.55 -228.35 L204.2 -228.1 203.95 -228.3 204.0 -228.4 202.7 -228.55 202.8 -228.85 204.2 -228.9 204.2 -229.05 204.55 -228.35 M237.2 -214.95 L237.05 -215.0 237.9 -215.95 238.6 -215.45 237.6 -214.9 237.25 -214.9 237.2 -214.95 M116.0 -227.0 L116.25 -225.85 116.15 -225.85 116.1 -225.85 115.75 -226.0 115.15 -226.95 116.0 -227.0 M127.15 -216.75 L126.95 -217.5 127.0 -217.5 Q127.35 -217.6 127.45 -218.05 127.05 -218.65 126.3 -218.55 L126.45 -218.65 127.75 -219.45 Q129.65 -219.5 131.0 -220.55 L131.9 -220.65 132.2 -220.8 Q133.7 -220.95 134.8 -221.8 L134.3 -223.2 125.3 -222.5 125.5 -222.6 Q125.9 -222.7 125.85 -223.15 L126.0 -223.55 125.95 -224.25 125.95 -224.35 Q125.65 -225.6 124.55 -225.95 L124.3 -227.05 138.4 -227.1 137.65 -219.35 135.75 -218.8 127.25 -216.75 127.15 -216.75 M150.05 -222.25 L150.1 -222.1 150.05 -221.95 150.2 -222.0 150.2 -222.3 150.2 -222.45 150.05 -222.5 150.05 -222.25 M148.75 -219.1 L148.6 -219.2 148.7 -219.2 148.75 -219.1 M146.9 -216.4 L146.9 -216.5 147.1 -216.3 146.9 -216.4" fill="#ffffff" fill-rule="evenodd" stroke="none"/>
    <path d="M240.15 -214.55 L242.25 -213.3 241.6 -210.85 241.35 -210.35 240.15 -208.85 239.7 -208.65 Q238.55 -208.2 236.45 -205.25 L236.65 -205.15 Q235.85 -203.7 234.2 -202.4 L232.25 -204.25 232.15 -204.35 230.15 -206.05 230.75 -206.6 Q230.3 -206.85 230.25 -207.6 L230.6 -207.7 232.1 -207.55 232.15 -207.7 232.5 -207.9 232.15 -208.25 231.7 -208.85 Q230.2 -209.8 229.15 -210.8 227.95 -211.9 229.0 -213.2 L229.25 -213.2 235.25 -210.4 235.25 -210.7 235.25 -210.8 235.3 -210.95 235.25 -211.45 235.5 -213.55 236.05 -214.35 236.4 -214.9 236.6 -214.9 237.2 -214.95 237.25 -214.9 237.6 -214.9 238.6 -215.45 240.15 -214.55 M222.3 -201.65 Q224.05 -200.35 225.6 -198.4 L226.0 -197.9 226.65 -197.0 Q228.55 -194.3 229.45 -191.55 L225.6 -189.2 Q225.55 -189.85 224.7 -190.55 L223.65 -191.55 222.75 -194.35 224.15 -194.3 224.25 -194.3 224.7 -194.3 225.3 -195.2 224.2 -196.35 Q223.85 -197.8 222.55 -198.55 L222.4 -198.65 222.0 -198.85 221.45 -199.2 221.1 -199.6 220.35 -201.7 220.65 -201.85 220.9 -201.85 222.15 -201.55 222.3 -201.65 M239.55 -174.65 Q241.65 -174.0 243.3 -175.6 L243.35 -175.8 243.45 -175.8 243.55 -175.8 Q242.65 -171.6 240.3 -171.25 237.95 -170.8 237.85 -168.35 L236.0 -168.65 236.3 -169.5 Q234.6 -170.15 233.85 -171.55 234.55 -172.1 234.05 -173.45 L233.15 -174.7 233.1 -175.3 Q233.8 -174.3 234.9 -173.9 L235.1 -173.85 235.4 -173.7 235.6 -173.6 Q237.55 -172.6 239.25 -174.0 L239.35 -173.85 239.55 -174.65 M233.5 -169.95 L232.55 -169.05 231.25 -169.1 229.4 -169.35 228.9 -171.45 228.6 -172.7 228.95 -172.65 230.2 -172.45 230.4 -172.55 230.5 -172.35 231.45 -172.85 232.1 -171.7 Q232.65 -170.7 233.5 -169.95 M220.15 -176.35 L219.75 -176.85 219.95 -177.0 220.15 -176.35 M207.1 -169.8 Q207.8 -167.7 210.1 -167.35 L210.35 -167.4 210.35 -167.3 210.4 -167.25 204.85 -167.1 Q203.05 -168.75 201.05 -167.4 L200.2 -169.1 201.05 -169.4 Q200.55 -171.15 201.2 -172.55 202.1 -172.3 202.9 -173.5 203.3 -174.15 203.35 -175.0 L203.85 -175.35 Q203.4 -174.2 203.75 -173.1 L203.85 -172.9 203.9 -172.6 203.95 -172.3 Q204.3 -170.15 206.4 -169.6 L206.35 -169.5 207.1 -169.8 M199.75 -171.85 L199.65 -171.55 Q197.25 -172.2 196.05 -170.1 194.95 -168.0 190.55 -168.5 L190.55 -168.6 190.55 -168.7 190.8 -168.7 Q192.05 -169.3 192.65 -170.35 193.6 -170.8 193.9 -171.95 L193.95 -172.2 Q195.55 -173.35 195.25 -175.35 L195.25 -175.6 195.2 -175.9 195.2 -176.15 Q195.2 -177.35 194.45 -178.3 L195.05 -178.1 Q195.35 -177.3 195.95 -176.85 L196.1 -176.75 Q197.15 -175.95 197.9 -176.45 199.0 -175.25 199.05 -173.35 L200.0 -173.35 Q200.0 -174.9 199.5 -176.15 L198.25 -178.1 197.35 -179.1 198.2 -179.85 198.05 -180.0 198.2 -180.15 198.4 -181.4 198.45 -182.2 198.45 -182.5 Q198.35 -183.6 197.85 -184.55 L197.7 -185.65 197.5 -186.75 197.15 -187.0 196.95 -187.25 194.0 -192.2 194.75 -192.55 196.35 -191.85 196.85 -192.2 197.1 -191.85 198.3 -190.1 199.2 -188.7 199.3 -188.75 200.0 -188.7 199.8 -187.6 200.75 -185.5 201.0 -184.9 201.35 -183.8 201.4 -183.65 201.55 -182.05 Q201.65 -180.2 201.1 -178.05 L201.0 -177.6 200.7 -176.8 199.65 -176.25 199.8 -176.05 199.95 -175.95 199.9 -175.75 200.85 -175.3 200.35 -174.05 199.95 -173.0 199.75 -171.85 M181.3 -185.7 L180.7 -186.55 180.1 -186.8 Q178.5 -187.95 177.1 -189.5 L175.4 -191.5 174.7 -192.45 Q173.45 -194.25 172.7 -196.1 L172.35 -197.2 172.4 -197.3 Q172.25 -197.9 172.55 -198.6 L172.65 -198.85 Q172.8 -199.2 173.2 -199.2 L173.4 -199.55 173.4 -199.9 173.4 -199.95 173.8 -200.05 173.9 -200.0 174.5 -198.95 174.4 -198.75 174.4 -198.55 174.55 -198.25 Q174.6 -198.15 174.75 -198.15 174.65 -197.6 174.95 -197.2 L175.1 -196.6 175.2 -196.1 Q175.45 -194.5 176.85 -193.65 L177.1 -193.15 177.6 -192.2 Q178.2 -192.15 178.65 -192.55 L178.75 -192.95 178.8 -193.0 179.15 -193.9 179.3 -193.85 Q180.4 -193.5 181.05 -192.55 L181.75 -190.8 Q182.15 -188.45 182.8 -186.15 L182.8 -186.05 181.3 -185.7 M152.95 -188.35 L152.5 -188.35 145.35 -187.8 144.95 -187.85 143.6 -188.0 143.45 -188.05 142.0 -188.55 Q140.2 -189.25 138.55 -190.65 L137.6 -191.5 137.6 -192.15 137.55 -192.85 138.7 -192.85 139.8 -193.1 141.05 -193.5 141.35 -192.5 141.6 -192.5 141.65 -192.3 142.7 -191.6 Q144.1 -190.7 145.75 -190.75 L146.8 -190.45 147.0 -190.4 147.85 -190.1 Q148.1 -190.35 148.5 -190.4 L154.2 -190.9 154.2 -190.1 152.9 -188.95 152.95 -188.35 M138.2 -180.55 Q136.0 -178.65 133.35 -177.2 L131.8 -176.55 131.65 -176.5 130.2 -176.15 Q128.4 -175.9 126.3 -176.2 L125.1 -176.5 124.4 -177.55 Q125.35 -178.05 126.15 -178.9 L127.0 -179.8 127.75 -179.15 127.9 -179.3 128.05 -179.15 129.25 -179.05 Q130.85 -179.05 132.2 -179.9 L133.25 -180.1 134.25 -180.4 134.65 -181.0 137.85 -183.3 139.1 -184.15 139.5 -183.5 139.0 -182.0 139.35 -181.5 139.0 -181.25 138.2 -180.55 M121.8 -176.85 L120.05 -176.95 Q120.4 -179.3 118.3 -180.2 116.45 -180.9 116.25 -184.1 L112.45 -183.5 110.75 -183.5 110.6 -183.55 109.15 -183.8 Q107.35 -184.25 105.65 -185.4 L104.6 -186.1 104.35 -187.35 106.45 -187.9 107.65 -188.4 108.1 -187.5 108.25 -187.55 108.35 -187.35 Q108.85 -187.05 109.45 -186.8 110.9 -186.15 112.45 -186.4 L113.45 -186.2 114.5 -186.05 115.15 -186.4 116.1 -186.65 117.9 -184.5 116.95 -184.25 Q118.05 -183.1 119.75 -183.2 L119.75 -182.45 119.9 -182.55 Q121.15 -180.9 123.2 -181.4 L123.45 -181.45 123.75 -181.5 123.95 -181.55 Q125.05 -181.7 125.95 -182.4 L125.8 -181.85 124.65 -180.95 Q123.85 -179.8 124.45 -179.1 123.4 -177.95 121.7 -177.7 L121.8 -176.85 M101.7 -187.8 Q100.9 -188.1 100.15 -188.6 101.4 -190.55 99.8 -192.2 98.2 -193.8 99.95 -197.55 L100.0 -197.55 100.15 -197.55 100.1 -197.3 Q100.35 -195.15 102.35 -194.4 L102.1 -193.7 102.2 -193.75 Q102.7 -191.75 104.8 -191.4 L105.05 -191.35 105.35 -191.25 105.55 -191.2 107.75 -191.25 107.4 -190.8 105.95 -190.4 Q104.75 -189.65 105.0 -188.75 L101.95 -188.6 101.7 -187.8 M118.2 -200.75 L119.15 -201.05 119.55 -201.5 Q121.9 -203.2 125.2 -204.3 L126.2 -204.65 Q128.75 -205.4 131.2 -205.35 L131.2 -205.25 Q131.8 -205.2 132.4 -204.75 L132.55 -204.6 132.7 -204.0 133.0 -203.75 133.25 -203.65 133.3 -203.6 133.35 -203.2 133.3 -203.1 132.15 -202.95 132.0 -203.05 131.85 -203.15 131.5 -203.05 131.3 -202.95 130.45 -203.05 129.8 -203.1 129.35 -203.15 Q127.8 -203.4 126.65 -202.4 L125.15 -202.1 Q124.9 -201.6 125.15 -201.1 L125.45 -200.9 125.55 -200.85 Q125.95 -200.3 126.65 -200.05 L126.85 -200.0 126.95 -199.8 127.0 -199.75 126.9 -199.6 126.9 -199.2 127.0 -198.95 126.95 -198.9 126.5 -199.05 126.1 -198.75 122.95 -198.2 Q121.85 -198.15 121.45 -197.65 L121.25 -197.8 120.7 -198.0 120.5 -197.95 Q120.1 -197.95 120.0 -197.5 119.15 -197.1 118.45 -196.55 L117.8 -197.7 117.7 -197.9 Q118.25 -199.45 118.2 -200.75 M115.45 -214.7 L112.9 -214.2 Q112.05 -216.0 112.1 -217.6 L112.3 -217.6 Q111.85 -221.0 111.1 -221.9 L110.8 -222.25 Q110.55 -223.2 110.45 -224.05 L110.45 -224.65 111.05 -226.95 113.4 -226.95 115.15 -226.95 115.75 -226.0 116.1 -225.85 116.15 -225.85 116.6 -225.5 116.8 -225.45 116.8 -224.8 116.95 -223.95 116.2 -222.05 115.85 -221.65 115.85 -221.55 115.85 -221.45 115.7 -221.25 122.15 -220.6 122.35 -220.5 Q122.6 -218.95 121.1 -218.6 L118.0 -218.2 117.3 -217.95 116.9 -217.85 117.1 -217.5 117.1 -217.35 118.45 -216.75 118.7 -216.55 117.85 -215.95 118.05 -215.2 115.55 -214.75 115.45 -214.7 M152.3 -220.05 Q152.3 -218.15 151.9 -216.6 L151.6 -215.45 150.8 -214.85 150.75 -214.8 148.95 -213.6 148.3 -213.25 146.95 -214.2 147.0 -214.4 146.0 -215.6 145.9 -216.65 145.95 -217.05 146.2 -217.2 145.95 -217.45 145.6 -217.9 145.5 -218.0 145.9 -218.8 Q147.1 -218.1 147.6 -219.5 L147.65 -219.6 147.85 -220.0 148.3 -219.9 148.75 -219.5 148.85 -219.45 149.95 -218.7 150.15 -218.9 Q150.6 -219.85 150.6 -221.2 L150.65 -221.3 150.45 -221.65 150.75 -221.6 151.1 -221.5 151.5 -221.2 151.55 -220.95 151.45 -220.4 151.6 -220.25 152.3 -220.05 M153.6 -204.75 L154.6 -204.95 155.05 -205.35 Q157.65 -206.75 161.0 -207.45 162.2 -206.45 163.5 -205.7 L162.55 -205.3 160.95 -205.25 Q160.6 -204.75 160.8 -204.2 L161.1 -203.9 161.2 -203.8 Q161.5 -203.25 162.2 -202.9 L162.4 -202.8 162.5 -202.6 162.6 -202.55 162.35 -202.4 162.3 -202.0 162.4 -201.75 162.35 -201.65 161.95 -201.85 161.45 -201.65 158.15 -201.5 Q157.0 -201.6 156.5 -201.1 L156.35 -201.3 155.8 -201.6 155.6 -201.6 Q155.15 -201.65 155.0 -201.2 153.6 -200.65 152.4 -199.9 L152.4 -199.7 152.05 -199.6 152.05 -199.7 Q152.0 -199.9 152.1 -199.95 L151.8 -200.45 Q153.45 -202.75 153.6 -204.75 M207.0 -229.15 L206.95 -229.0 206.65 -228.65 206.65 -228.55 206.15 -228.25 Q205.45 -228.3 205.25 -229.0 L205.2 -229.25 205.3 -229.3 205.45 -229.55 205.05 -229.7 204.8 -230.0 204.4 -230.4 204.4 -230.8 204.55 -230.95 204.65 -231.05 204.45 -231.3 204.55 -231.5 204.6 -231.7 204.75 -232.0 204.9 -232.15 205.05 -232.25 205.2 -232.45 205.25 -232.65 205.4 -232.7 205.55 -232.75 Q206.75 -233.45 207.7 -232.45 L208.15 -232.0 208.25 -232.05 Q208.2 -231.45 208.5 -231.4 L208.35 -231.0 208.2 -230.95 207.7 -230.6 207.4 -230.25 207.35 -230.1 207.05 -230.0 206.95 -229.75 207.0 -229.6 207.0 -229.3 207.0 -229.15 M181.85 -229.3 Q183.05 -229.35 183.8 -229.75 L184.15 -229.95 188.25 -230.1 188.5 -230.1 189.6 -227.65 Q190.55 -224.8 190.55 -221.5 190.55 -219.4 190.2 -217.45 L190.2 -217.4 189.95 -217.0 Q188.45 -215.4 186.65 -216.8 184.0 -219.0 180.55 -219.95 180.05 -220.1 179.75 -220.5 L179.3 -221.0 179.15 -221.2 179.15 -221.8 179.15 -222.0 179.15 -222.3 Q181.3 -223.85 183.7 -225.25 L185.55 -226.0 Q184.2 -226.0 181.95 -226.75 L181.45 -227.1 Q181.2 -227.4 181.35 -227.8 L181.35 -228.05 Q181.55 -228.6 181.95 -228.8 L181.85 -229.3 M198.8 -228.85 L198.65 -228.85 198.15 -228.65 197.8 -228.55 197.95 -228.3 197.8 -227.95 197.2 -227.1 195.8 -226.6 195.75 -226.4 194.1 -226.3 192.9 -228.95 192.55 -229.9 192.85 -231.0 Q193.25 -232.6 194.25 -234.2 L194.95 -234.0 195.1 -234.05 195.35 -234.6 195.45 -234.8 196.0 -234.8 196.55 -234.6 196.25 -234.4 196.2 -234.3 Q195.5 -233.15 195.45 -232.1 L195.5 -231.8 196.8 -231.9 196.85 -231.9 197.45 -232.0 197.9 -231.8 197.85 -231.4 197.9 -231.3 Q197.5 -229.8 198.9 -229.8 L198.8 -228.85 M196.9 -228.35 L196.7 -228.25 196.85 -228.25 196.9 -228.35 M196.85 -231.55 L196.8 -231.6 196.7 -231.55 196.85 -231.55 M201.25 -227.15 Q201.15 -227.2 201.2 -227.3 L201.3 -227.5 202.6 -228.0 202.65 -228.1 Q203.1 -228.45 203.65 -228.3 L203.8 -228.25 203.8 -228.15 203.85 -227.9 203.75 -227.8 203.55 -227.6 203.3 -227.3 202.8 -227.1 201.25 -227.15 M163.7 -201.4 L163.8 -201.3 163.8 -201.2 163.8 -201.05 163.75 -201.0 163.65 -201.0 163.45 -201.1 163.7 -201.4 M216.4 -202.0 L216.5 -202.0 216.8 -202.0 216.95 -201.65 217.2 -201.35 Q217.55 -201.45 217.8 -201.15 L218.0 -201.0 218.2 -200.7 218.5 -199.8 218.6 -199.7 218.6 -199.2 218.55 -198.45 218.55 -198.4 Q218.45 -196.55 217.85 -194.55 L217.5 -193.5 216.4 -190.75 214.55 -187.65 214.15 -187.25 214.05 -187.2 213.75 -186.25 Q211.75 -186.35 209.25 -185.0 L208.75 -185.35 208.55 -185.35 208.45 -185.35 208.55 -185.7 208.75 -185.65 210.4 -188.1 Q210.8 -188.25 210.85 -188.65 L210.9 -188.85 210.75 -189.4 210.55 -189.65 Q211.05 -190.05 211.15 -191.2 211.15 -192.35 211.45 -193.55 L211.7 -194.45 212.05 -194.9 211.85 -195.35 211.95 -195.4 212.2 -195.35 212.6 -195.3 212.8 -195.45 212.85 -195.35 213.0 -195.25 213.1 -195.0 Q213.35 -194.35 213.9 -193.9 L213.95 -193.8 214.15 -193.45 215.25 -193.5 215.45 -194.5 215.55 -195.05 Q216.55 -196.25 216.35 -197.8 L216.25 -198.35 216.2 -198.95 Q216.35 -199.45 216.1 -199.9 L216.15 -199.9 216.25 -200.05 216.35 -200.4 216.25 -200.6 216.1 -200.75 Q216.15 -201.35 216.35 -201.95 L216.35 -202.0 216.4 -202.0 M133.8 -202.95 L134.3 -203.8 134.4 -204.0 134.45 -203.9 134.55 -203.9 134.45 -203.65 Q134.45 -201.7 135.95 -200.7 L136.7 -201.4 137.1 -201.75 Q137.55 -200.55 138.35 -199.95 L138.2 -199.8 Q137.15 -200.05 136.45 -200.4 L136.1 -199.7 136.2 -199.75 Q136.45 -197.55 138.55 -196.95 L138.85 -196.85 139.1 -196.75 139.25 -196.65 139.55 -196.5 141.55 -196.4 141.1 -195.95 139.6 -195.7 Q138.25 -195.1 138.45 -194.2 L136.1 -194.15 135.25 -194.45 134.85 -193.65 133.3 -194.7 Q134.8 -196.4 133.75 -198.2 134.8 -196.4 133.3 -194.7 L134.85 -193.65 Q134.55 -193.5 134.65 -193.1 L134.1 -192.4 133.15 -190.75 133.25 -190.55 132.95 -190.35 132.95 -190.4 132.9 -190.6 132.35 -190.9 132.4 -191.35 Q132.5 -193.75 131.7 -195.35 L132.5 -196.0 Q132.5 -196.4 132.65 -196.55 L133.75 -198.2 133.55 -198.5 Q132.7 -199.55 133.15 -201.25 133.3 -202.05 133.8 -202.95 M128.2 -198.85 L128.4 -198.7 128.4 -198.65 128.4 -198.5 128.25 -198.45 128.05 -198.5 128.2 -198.85 M143.5 -203.0 L143.7 -204.25 143.75 -204.15 144.15 -204.05 144.5 -204.05 144.65 -203.65 144.6 -203.55 143.65 -202.95 143.5 -203.0 M134.45 -203.9 L134.45 -203.65 134.45 -203.9 M135.95 -200.7 L136.45 -200.4 135.95 -200.7 M142.75 -195.55 L142.4 -195.35 142.7 -195.6 142.75 -195.55 M148.75 -219.1 L148.7 -219.2 148.6 -219.2 148.75 -219.1 M146.9 -216.4 L147.1 -216.3 146.9 -216.5 146.9 -216.4 M155.95 -200.2 L156.15 -200.25 156.15 -200.2 155.95 -200.2 M161.05 -200.25 L161.45 -200.15 161.55 -200.1 Q161.4 -199.8 161.15 -199.95 L160.5 -200.1 160.2 -200.15 161.05 -200.25 M135.95 -192.8 L136.1 -192.95 136.1 -192.85 135.95 -192.8 M127.35 -182.35 L127.1 -182.0 127.3 -182.4 127.35 -182.35 M125.95 -197.1 L125.35 -197.15 125.1 -197.2 125.85 -197.4 125.9 -197.4 126.3 -197.3 126.35 -197.3 Q126.25 -197.0 125.95 -197.1 M121.05 -196.7 L121.2 -196.8 121.2 -196.75 121.05 -196.7 M108.65 -190.35 L108.95 -190.65 109.05 -190.55 108.65 -190.35 M100.0 -197.55 L100.1 -197.3 100.0 -197.55 M116.25 -184.1 Q116.25 -184.6 116.5 -184.9 L116.95 -184.25 116.5 -184.9 Q116.25 -184.6 116.25 -184.1 M243.45 -175.8 L243.3 -175.6 243.45 -175.8 M231.6 -175.55 L231.7 -175.5 231.8 -175.1 231.6 -175.55 M211.8 -196.7 L211.5 -196.55 211.4 -196.75 211.5 -196.8 211.5 -196.9 211.6 -196.85 211.7 -196.85 211.8 -196.7 M210.1 -193.7 L210.05 -194.35 Q209.9 -194.65 210.2 -194.75 L210.2 -194.65 210.3 -194.3 210.3 -194.25 210.1 -193.45 210.1 -193.7 M209.55 -189.2 L209.55 -189.4 209.7 -189.4 209.55 -189.2 M203.15 -176.75 L203.15 -176.65 202.9 -176.35 203.15 -176.75 M210.1 -167.35 L210.35 -167.3 210.1 -167.35 M199.8 -187.6 L199.2 -188.7 199.8 -187.6 M195.05 -179.55 L194.7 -179.7 194.7 -179.8 195.05 -179.55 M199.95 -173.0 L200.0 -173.35 199.95 -173.0 M190.8 -168.7 L190.55 -168.6 190.8 -168.7" fill="#cccccc" fill-rule="evenodd" stroke="none"/>
    <path d="M213.4 -230.55 Q215.65 -232.55 218.7 -233.7 225.0 -236.0 231.1 -233.15 237.2 -230.35 239.55 -224.05 241.35 -219.25 240.15 -214.55 L238.6 -215.45 237.9 -215.95 230.5 -220.35 213.4 -230.55 M232.25 -204.25 Q231.15 -203.65 229.95 -203.2 224.9 -201.35 220.0 -202.75 L220.2 -202.15 220.35 -201.7 221.1 -199.6 221.35 -198.7 221.9 -197.05 222.3 -195.75 222.7 -194.5 222.75 -194.35 223.65 -191.55 224.5 -188.5 225.6 -189.2 229.45 -191.55 233.0 -193.7 232.9 -194.65 Q232.9 -198.5 236.6 -199.0 L237.55 -199.25 Q238.6 -200.9 241.55 -201.7 249.5 -198.75 245.5 -190.8 245.05 -190.0 244.9 -188.95 244.7 -187.8 243.95 -186.85 243.65 -181.0 240.0 -176.85 239.2 -175.9 238.15 -176.5 233.75 -179.0 235.45 -184.15 L236.35 -186.95 234.5 -185.8 232.45 -184.7 228.35 -182.3 226.55 -181.2 228.1 -174.85 228.15 -174.6 228.6 -172.7 228.9 -171.45 229.4 -169.35 230.75 -164.0 Q231.95 -162.35 232.3 -160.35 L232.3 -159.05 Q236.9 -146.0 240.95 -132.6 L241.15 -130.95 Q243.75 -123.0 247.0 -115.2 247.25 -114.7 247.15 -114.05 250.85 -110.2 248.25 -107.95 248.65 -106.0 247.85 -103.4 244.0 -90.55 241.75 -77.6 247.4 -78.2 253.05 -76.55 253.8 -76.3 253.9 -75.3 254.4 -70.6 249.25 -70.5 L247.6 -70.35 Q240.85 -69.05 235.25 -71.45 234.2 -71.9 234.2 -73.1 233.95 -78.0 235.8 -82.2 236.05 -89.65 238.5 -96.65 238.7 -97.35 239.2 -97.95 241.05 -103.4 241.7 -109.1 240.35 -111.05 240.35 -113.65 237.35 -119.0 235.55 -124.8 L235.25 -126.05 233.65 -131.4 233.45 -130.15 Q231.75 -118.1 228.45 -106.65 228.25 -100.85 223.9 -96.55 217.85 -90.55 210.95 -85.0 208.05 -82.65 205.9 -79.75 209.65 -76.8 213.15 -72.85 213.75 -72.1 213.3 -71.1 211.2 -66.25 206.4 -69.65 201.3 -73.25 196.85 -77.6 196.15 -78.3 196.5 -79.25 197.8 -83.3 201.35 -86.35 206.85 -91.15 212.7 -95.6 217.85 -99.75 221.45 -105.4 L221.8 -109.1 Q221.9 -110.3 222.7 -111.2 L225.5 -126.5 Q227.05 -135.35 229.5 -143.65 L229.75 -144.25 225.75 -157.1 Q225.45 -157.85 225.5 -158.7 223.75 -162.45 222.7 -166.55 L220.15 -176.35 219.95 -177.0 219.75 -176.85 Q215.4 -173.95 211.2 -170.75 210.0 -169.8 208.7 -170.75 206.8 -172.15 206.8 -173.6 L206.9 -174.25 Q207.15 -175.3 208.35 -176.35 212.05 -179.9 216.2 -182.95 L218.1 -184.35 216.4 -190.75 217.5 -193.5 217.85 -194.55 Q218.45 -196.55 218.55 -198.4 L218.55 -198.45 218.6 -199.2 218.6 -199.7 218.65 -199.8 218.65 -199.9 218.25 -200.9 217.6 -202.15 Q216.6 -203.75 215.05 -205.1 213.35 -206.55 210.8 -206.7 L209.9 -208.95 Q209.1 -211.0 209.15 -212.6 L209.1 -212.8 Q206.75 -219.15 209.6 -225.25 L209.9 -225.85 216.3 -218.7 222.8 -212.35 222.9 -212.3 228.25 -207.55 230.15 -206.05 232.15 -204.35 232.25 -204.25 M192.65 -170.35 L192.25 -170.2 Q188.55 -169.1 187.15 -172.5 186.9 -173.2 187.0 -174.0 185.05 -178.3 183.7 -182.75 L182.8 -186.05 182.8 -186.15 Q182.15 -188.45 181.75 -190.8 L181.05 -192.55 Q180.4 -193.5 179.3 -193.85 L179.15 -193.9 178.85 -194.05 178.15 -194.7 177.85 -195.05 Q176.75 -196.55 176.65 -198.1 L176.65 -198.15 176.65 -198.35 176.8 -199.35 Q177.0 -200.5 177.7 -201.65 178.65 -203.3 180.5 -203.35 185.85 -203.05 187.0 -197.8 L187.7 -195.05 Q189.1 -189.7 190.8 -184.4 L191.85 -181.15 192.0 -180.65 192.15 -180.2 193.0 -177.9 193.35 -177.05 Q194.3 -175.1 194.1 -173.1 L193.95 -172.2 193.9 -171.95 Q193.6 -170.8 192.65 -170.35 M177.1 -189.5 L177.2 -181.15 177.3 -177.2 Q177.45 -169.35 178.75 -161.75 179.85 -155.15 179.5 -148.55 180.65 -147.1 180.25 -144.6 180.15 -143.8 180.35 -143.1 182.0 -137.15 184.1 -131.1 186.7 -124.5 189.6 -117.8 191.2 -114.25 192.4 -110.55 L193.55 -106.3 Q194.6 -101.6 189.95 -101.2 L188.4 -101.55 Q185.6 -102.8 182.95 -104.6 L181.05 -105.85 Q181.45 -102.35 182.25 -98.95 183.1 -95.2 179.1 -94.55 177.25 -94.4 176.3 -95.8 175.0 -97.55 174.85 -99.8 L174.65 -100.85 Q173.25 -107.15 174.3 -113.45 174.4 -113.9 174.85 -114.15 177.55 -116.1 180.7 -114.4 L183.75 -112.65 178.7 -126.05 176.05 -133.35 174.9 -127.0 Q174.1 -122.3 172.1 -117.8 171.3 -116.1 170.8 -114.25 L167.65 -103.2 Q166.8 -100.4 168.55 -97.8 L169.5 -96.05 174.05 -85.3 Q176.2 -80.15 177.35 -74.7 177.8 -72.6 175.95 -71.4 L168.95 -67.2 165.55 -65.35 Q161.95 -63.6 160.3 -67.1 159.75 -68.15 160.2 -69.2 161.15 -71.35 163.25 -72.5 L163.7 -72.8 166.45 -74.15 169.75 -75.75 Q167.9 -82.75 164.75 -89.4 L161.25 -96.75 Q160.4 -98.35 160.2 -100.15 159.85 -102.7 160.55 -105.15 L160.85 -106.3 Q161.25 -108.25 162.25 -109.8 162.2 -110.5 162.3 -111.0 162.5 -111.8 163.0 -112.3 164.15 -117.55 166.25 -122.65 L166.85 -123.7 Q168.8 -130.25 169.95 -137.25 170.55 -141.45 171.7 -145.45 172.05 -146.7 173.1 -147.25 172.75 -148.25 172.75 -149.3 172.65 -153.2 172.2 -156.95 171.25 -164.65 170.65 -172.25 L170.3 -178.0 Q169.9 -185.8 170.0 -193.75 L170.0 -194.5 169.7 -203.6 169.4 -203.65 Q166.2 -204.15 163.5 -205.7 162.2 -206.45 161.0 -207.45 L159.6 -208.7 Q155.3 -213.05 154.55 -218.9 155.5 -218.65 156.35 -218.0 156.8 -217.7 157.35 -217.7 L158.95 -217.25 Q159.4 -217.0 159.75 -216.9 L161.0 -216.5 161.45 -216.3 162.4 -216.05 162.75 -215.95 165.8 -215.4 166.9 -215.2 167.85 -214.95 168.9 -214.9 171.0 -214.55 174.0 -214.45 179.4 -214.65 180.1 -214.75 182.2 -214.95 183.8 -215.05 184.9 -215.2 185.85 -215.4 186.5 -215.5 186.9 -215.6 187.0 -215.6 187.25 -215.7 188.25 -215.85 Q189.1 -215.95 189.75 -216.35 L189.9 -216.4 Q188.7 -212.1 185.3 -208.7 183.8 -207.25 182.2 -206.15 L182.0 -206.35 Q181.2 -207.1 180.0 -206.85 175.8 -206.05 174.15 -203.45 L173.2 -201.65 Q172.3 -199.55 172.25 -197.4 L172.35 -197.25 172.35 -197.2 172.7 -196.1 Q173.45 -194.25 174.7 -192.45 L175.4 -191.5 177.1 -189.5 M144.35 -187.05 L145.6 -178.8 146.5 -171.1 148.4 -155.9 148.5 -152.4 148.3 -150.65 Q147.8 -148.0 146.65 -145.55 L144.4 -140.85 142.05 -136.8 141.7 -136.35 134.85 -123.85 141.75 -122.35 144.5 -121.85 151.65 -120.7 158.3 -119.5 Q159.75 -119.05 160.15 -117.55 160.9 -114.25 158.05 -112.05 152.85 -108.15 148.65 -103.05 147.85 -102.1 146.65 -102.15 143.25 -102.45 143.35 -105.6 143.4 -107.85 145.0 -109.7 L148.95 -113.8 134.4 -116.75 Q134.8 -113.7 135.9 -110.75 L136.35 -108.9 Q137.75 -105.75 139.4 -102.85 L139.75 -102.1 147.9 -88.8 150.0 -85.0 Q151.65 -81.9 148.5 -80.1 L147.6 -79.85 Q140.15 -80.15 132.65 -80.05 L131.2 -80.1 Q127.4 -80.55 128.05 -84.15 128.35 -86.05 130.2 -86.75 L131.1 -87.05 140.45 -87.3 132.5 -100.75 Q128.8 -107.1 127.7 -114.15 127.3 -116.4 127.2 -118.6 120.8 -120.45 114.55 -122.7 113.85 -123.0 113.5 -123.75 112.35 -126.9 115.0 -129.2 117.35 -131.2 119.1 -133.75 L123.4 -139.5 Q126.1 -143.1 129.6 -145.8 135.3 -150.35 141.35 -154.4 L141.15 -157.0 140.8 -159.8 Q140.1 -167.5 138.95 -175.1 L138.2 -180.55 139.0 -181.25 139.35 -181.5 139.4 -181.55 143.75 -186.3 144.35 -187.05 M105.45 -194.1 L104.15 -194.45 Q102.3 -195.1 101.45 -196.8 100.55 -198.65 99.25 -200.3 L97.0 -203.45 Q92.75 -209.85 88.85 -216.5 86.45 -220.5 85.0 -224.9 84.7 -225.45 85.0 -226.05 85.85 -228.3 88.25 -228.5 91.65 -227.9 93.05 -224.55 L93.85 -222.75 Q96.5 -222.1 97.25 -219.2 97.5 -218.2 96.9 -217.3 L96.7 -217.05 Q98.45 -213.9 100.5 -210.9 L109.05 -198.15 109.2 -197.15 Q108.85 -195.15 107.7 -194.4 L105.45 -194.1 M110.7 -195.75 L108.35 -200.05 107.9 -200.85 Q104.85 -205.85 102.05 -211.0 101.4 -211.95 101.6 -213.15 102.05 -216.15 105.0 -216.4 108.25 -215.55 109.55 -212.3 109.8 -211.6 110.2 -211.0 L111.4 -208.95 Q115.0 -208.45 114.45 -204.6 L114.25 -204.05 115.95 -201.05 117.7 -197.9 117.8 -197.7 118.45 -196.55 119.6 -194.6 122.0 -191.05 Q123.3 -189.3 124.2 -187.3 L124.3 -187.0 Q124.6 -186.0 124.15 -184.95 L123.9 -184.55 Q123.05 -183.25 121.95 -182.9 L121.6 -182.85 Q120.7 -182.75 119.75 -183.2 L118.85 -183.8 117.9 -184.5 116.1 -186.65 115.95 -186.85 115.2 -188.1 113.05 -191.6 110.7 -195.75 M132.8 -204.75 L132.35 -205.9 129.0 -205.75 Q122.95 -206.1 119.3 -210.45 118.0 -211.45 116.9 -212.75 L115.45 -214.7 115.55 -214.75 118.05 -215.2 120.4 -215.5 120.75 -215.55 122.4 -215.85 127.15 -216.75 127.25 -216.75 135.75 -218.8 137.65 -219.35 138.4 -227.1 124.3 -227.05 116.0 -227.0 115.15 -226.95 113.4 -226.95 Q114.55 -231.4 118.3 -234.45 123.2 -238.45 129.75 -237.8 135.85 -237.2 140.05 -232.8 142.05 -238.05 147.25 -240.8 L147.95 -241.1 Q152.7 -240.55 152.95 -236.1 153.2 -231.05 147.95 -230.75 L147.1 -230.75 145.85 -227.15 Q145.05 -224.45 144.75 -221.65 L144.55 -219.8 144.55 -219.65 144.5 -218.7 144.45 -217.9 143.85 -208.7 143.85 -208.0 143.8 -204.9 143.7 -204.25 143.5 -203.0 143.0 -200.85 142.95 -200.8 142.1 -199.9 141.45 -199.6 138.65 -199.75 138.35 -199.95 Q137.55 -200.55 137.1 -201.75 L136.7 -201.4 136.35 -201.9 134.45 -203.65 134.55 -203.9 134.45 -203.9 134.4 -204.0 134.3 -203.8 132.8 -204.75 M157.85 -232.25 L159.6 -234.35 Q164.95 -239.6 172.45 -239.6 180.0 -239.6 185.3 -234.35 187.25 -232.35 188.5 -230.1 L188.25 -230.1 184.15 -229.95 183.8 -229.75 Q183.05 -229.35 181.85 -229.3 L181.8 -229.3 173.65 -229.45 173.0 -229.45 169.25 -229.9 168.55 -229.95 166.85 -230.2 166.5 -230.4 164.8 -231.05 163.85 -231.3 163.4 -231.35 161.65 -231.7 161.0 -231.95 160.7 -232.0 158.65 -232.0 Q158.05 -231.95 157.85 -232.25 M121.35 -209.15 Q120.25 -209.75 119.3 -210.45 120.25 -209.75 121.35 -209.15 M137.35 -142.85 Q133.45 -139.6 129.95 -135.95 L126.2 -131.65 Q124.45 -129.55 123.05 -127.2 125.2 -126.3 127.75 -125.55 L127.85 -126.05 128.4 -127.1 Q131.0 -130.8 132.95 -134.7 134.65 -138.3 136.7 -141.7 L137.35 -142.85 M162.9 -74.1 L162.5 -73.75 162.6 -74.1 162.9 -74.1" fill="#000000" fill-rule="evenodd" stroke="none"/>
    <path d="M205.25 -229.0 L204.85 -229.1 204.7 -229.25 204.6 -229.5 204.8 -230.0 205.05 -229.7 205.3 -229.3 205.2 -229.25 205.25 -229.0 M181.85 -229.3 L181.95 -228.8 Q181.55 -228.6 181.35 -228.05 L181.35 -227.8 Q181.2 -227.4 181.45 -227.1 L181.95 -226.75 Q184.2 -226.0 185.55 -226.0 L183.7 -225.25 Q181.3 -223.85 179.15 -222.3 L179.15 -222.0 179.15 -221.8 179.15 -221.2 179.3 -221.0 179.75 -220.5 Q180.05 -220.1 180.55 -219.95 184.0 -219.0 186.65 -216.8 L186.9 -215.6 186.5 -215.5 185.85 -215.4 184.9 -215.2 183.8 -215.05 182.2 -214.95 180.1 -214.75 179.4 -214.65 174.0 -214.45 171.0 -214.55 168.9 -214.9 167.85 -214.95 166.9 -215.2 167.1 -215.8 Q165.7 -216.25 164.6 -217.7 L164.6 -218.0 164.6 -218.2 164.6 -218.75 Q165.0 -219.4 165.8 -219.5 L174.75 -219.95 174.65 -220.15 174.45 -220.5 174.2 -220.9 170.75 -222.75 170.4 -222.95 Q170.05 -224.25 170.85 -225.1 171.7 -226.2 173.0 -226.4 L172.6 -226.95 Q172.35 -227.4 172.4 -227.7 L172.4 -228.05 172.8 -228.5 173.65 -228.9 173.65 -229.45 181.8 -229.3 181.85 -229.3 M169.4 -203.65 Q168.9 -202.9 168.05 -202.9 L167.8 -202.85 166.6 -203.55 165.85 -204.0 165.2 -204.05 164.8 -204.05 164.75 -204.2 164.4 -204.25 163.85 -204.4 163.5 -204.4 163.2 -204.1 163.25 -204.05 163.45 -203.6 163.5 -203.45 Q164.6 -202.9 164.95 -201.7 L165.2 -200.95 Q164.9 -199.85 164.05 -199.45 163.35 -198.65 162.2 -198.6 L162.0 -198.6 161.9 -198.75 160.0 -198.85 159.8 -198.75 156.65 -198.75 156.05 -198.6 155.9 -198.65 155.85 -198.85 155.6 -198.9 Q153.8 -197.85 151.8 -197.95 L151.45 -198.0 151.1 -198.55 Q150.9 -198.95 151.1 -199.3 L151.4 -199.45 152.05 -199.6 152.4 -199.7 152.4 -199.9 Q153.6 -200.65 155.0 -201.2 155.15 -201.65 155.6 -201.6 L155.8 -201.6 156.35 -201.3 156.5 -201.1 Q157.0 -201.6 158.15 -201.5 L161.45 -201.65 161.95 -201.85 162.35 -201.65 162.4 -201.75 162.3 -202.0 162.35 -202.4 162.6 -202.55 162.5 -202.6 162.4 -202.8 161.95 -203.45 161.7 -204.15 Q161.75 -204.6 162.05 -204.85 L162.2 -205.1 162.55 -205.3 163.5 -205.7 Q166.2 -204.15 169.4 -203.65 M141.6 -192.5 L141.65 -192.85 141.7 -193.2 Q142.7 -193.9 143.8 -192.95 L144.5 -192.55 145.15 -192.35 Q145.65 -192.4 145.95 -192.1 L147.2 -192.1 147.95 -192.0 148.25 -192.05 152.15 -192.45 152.75 -192.45 Q153.95 -193.05 155.3 -193.15 L155.8 -193.2 155.95 -193.0 156.1 -193.0 156.25 -192.85 156.4 -192.75 156.5 -192.3 156.6 -191.8 156.55 -191.65 156.7 -191.5 156.7 -191.3 156.65 -191.0 Q155.95 -189.75 154.6 -189.75 L154.35 -189.85 154.2 -190.1 154.2 -190.9 148.5 -190.4 Q148.1 -190.35 147.85 -190.1 L147.0 -190.4 146.8 -190.45 145.75 -190.75 Q144.1 -190.7 142.7 -191.6 L141.65 -192.3 141.6 -192.5 M163.8 -201.3 L163.7 -201.65 163.7 -201.4 163.45 -201.1 163.65 -201.0 163.75 -201.0 163.8 -201.05 163.8 -201.2 163.8 -201.3 M173.8 -200.05 L173.75 -200.3 173.85 -200.5 174.0 -200.65 174.1 -200.75 174.15 -200.8 174.4 -200.85 174.95 -200.65 175.05 -200.65 175.25 -200.6 Q176.2 -200.55 176.6 -199.7 L176.8 -199.55 176.8 -199.35 176.65 -198.35 176.65 -198.15 176.65 -198.1 176.6 -197.25 Q176.55 -196.95 176.8 -196.6 L177.0 -196.3 176.85 -196.15 177.0 -195.8 177.05 -195.25 177.1 -195.2 177.3 -194.9 177.65 -194.75 177.65 -194.85 177.85 -195.05 178.15 -194.7 178.85 -194.05 178.75 -193.95 178.25 -193.35 177.5 -193.4 177.15 -193.4 177.1 -193.45 176.85 -193.65 Q175.45 -194.5 175.2 -196.1 L175.1 -196.6 174.95 -197.2 Q174.65 -197.6 174.75 -198.15 174.6 -198.15 174.55 -198.25 L174.4 -198.55 174.4 -198.75 174.5 -198.95 173.9 -200.0 173.8 -200.05 M198.05 -180.0 L197.75 -179.95 197.35 -179.85 Q196.3 -180.45 196.65 -181.9 L196.75 -182.75 196.6 -183.4 Q196.35 -183.85 196.5 -184.15 L196.45 -184.45 195.95 -185.3 Q195.7 -185.65 195.7 -186.1 194.4 -187.8 193.45 -189.7 L193.15 -190.25 Q192.05 -191.1 191.35 -192.3 L191.1 -192.7 191.25 -192.9 191.15 -193.05 191.25 -193.25 191.25 -193.45 191.6 -193.75 192.05 -194.0 192.2 -194.05 192.25 -194.25 192.5 -194.3 192.8 -194.4 Q194.25 -194.35 194.85 -193.15 L194.85 -192.85 194.75 -192.55 194.0 -192.2 196.95 -187.25 197.15 -187.0 197.5 -186.75 197.7 -185.65 197.85 -184.55 Q198.35 -183.6 198.45 -182.5 L198.45 -182.2 198.4 -181.4 198.2 -180.15 198.05 -180.0 M222.9 -212.3 L223.4 -212.85 223.35 -212.9 Q223.1 -213.2 223.25 -213.65 L224.5 -213.5 224.45 -213.65 223.7 -215.1 Q222.05 -216.15 221.35 -217.85 L220.6 -218.4 220.4 -218.65 Q219.15 -219.6 218.6 -220.95 L219.8 -221.95 Q223.65 -219.6 227.4 -216.65 L227.25 -216.85 Q226.95 -217.15 227.25 -217.55 L227.25 -218.0 227.65 -218.6 227.7 -218.75 Q228.6 -219.75 229.8 -219.45 L230.5 -220.35 237.9 -215.95 237.05 -215.0 237.2 -214.95 236.6 -214.9 236.4 -214.9 236.05 -214.35 235.5 -213.55 235.25 -211.45 235.3 -210.95 235.25 -210.8 235.25 -210.7 235.25 -210.4 229.25 -213.2 229.0 -213.2 Q227.95 -211.9 229.15 -210.8 230.2 -209.8 231.7 -208.85 L232.15 -208.25 232.5 -207.9 232.15 -207.7 232.1 -207.55 230.6 -207.7 230.25 -207.6 Q230.3 -206.85 230.75 -206.6 L230.15 -206.05 228.25 -207.55 222.9 -212.3 M208.45 -185.35 L208.05 -184.5 207.3 -184.6 206.75 -185.05 Q206.8 -187.25 208.25 -189.0 L208.15 -189.25 208.05 -189.35 208.05 -189.5 208.2 -190.1 208.65 -193.2 208.75 -193.4 Q208.6 -194.4 208.95 -195.25 L208.8 -195.4 208.85 -195.6 Q209.0 -196.75 209.9 -197.35 210.3 -198.0 211.15 -198.2 L211.55 -198.25 212.25 -197.9 Q213.4 -197.45 213.85 -196.25 L213.95 -196.15 214.35 -195.95 214.45 -195.85 214.75 -196.1 214.8 -196.45 214.7 -197.05 214.75 -197.45 214.6 -197.5 214.65 -197.85 214.65 -198.5 214.3 -199.3 213.8 -200.6 213.9 -200.8 213.9 -200.85 213.95 -201.05 Q214.1 -201.8 214.85 -202.1 L215.1 -202.2 215.15 -202.25 215.65 -202.55 215.85 -202.55 215.95 -202.6 216.05 -202.5 216.25 -202.4 216.4 -202.3 216.4 -202.0 216.35 -202.0 216.35 -201.95 Q216.15 -201.35 216.1 -200.75 L216.25 -200.6 216.35 -200.4 216.25 -200.05 216.15 -199.9 216.1 -199.9 Q216.35 -199.45 216.2 -198.95 L216.25 -198.35 216.35 -197.8 Q216.55 -196.25 215.55 -195.05 L215.35 -194.75 215.35 -194.7 215.0 -194.6 Q214.7 -194.35 214.3 -194.35 L213.6 -194.7 213.0 -195.25 212.85 -195.35 212.8 -195.45 212.6 -195.3 212.2 -195.35 211.95 -195.4 211.85 -195.35 212.05 -194.9 211.7 -194.45 211.45 -193.55 Q211.15 -192.35 211.15 -191.2 211.05 -190.05 210.55 -189.65 L210.75 -189.4 210.9 -188.85 210.85 -188.65 Q210.8 -188.25 210.4 -188.1 L208.75 -185.65 208.55 -185.7 208.45 -185.35 M221.9 -197.05 L221.35 -198.7 221.1 -199.6 221.45 -199.2 222.0 -198.85 222.4 -198.65 222.55 -198.55 Q223.85 -197.8 224.2 -196.35 L224.35 -196.0 224.25 -195.65 224.05 -194.95 223.35 -194.65 222.7 -194.5 222.3 -195.75 222.35 -195.75 222.85 -195.95 222.95 -195.95 222.9 -196.35 222.7 -196.65 Q222.35 -196.7 222.15 -196.85 L221.9 -197.05 M116.15 -225.85 L116.25 -225.85 116.0 -227.0 124.3 -227.05 124.55 -225.95 Q125.65 -225.6 125.95 -224.35 L125.95 -224.25 126.0 -223.55 125.85 -223.15 Q125.9 -222.7 125.5 -222.6 L125.3 -222.5 134.3 -223.2 134.8 -221.8 Q133.7 -220.95 132.2 -220.8 L131.9 -220.65 131.0 -220.55 Q129.65 -219.5 127.75 -219.45 L126.45 -218.65 126.3 -218.55 Q127.05 -218.65 127.45 -218.05 127.35 -217.6 127.0 -217.5 L126.95 -217.5 127.15 -216.75 122.4 -215.85 120.75 -215.55 120.4 -215.5 118.05 -215.2 117.85 -215.95 118.7 -216.55 118.45 -216.75 117.1 -217.35 117.1 -217.5 116.9 -217.85 117.3 -217.95 118.0 -218.2 121.1 -218.6 Q122.6 -218.95 122.35 -220.5 L122.15 -220.6 115.7 -221.25 115.85 -221.45 115.85 -221.55 115.85 -221.65 116.2 -222.05 116.95 -223.95 116.8 -224.8 116.8 -225.45 116.6 -225.5 116.15 -225.85 M133.35 -203.2 L133.6 -203.2 133.7 -203.05 133.8 -202.95 Q133.3 -202.05 133.15 -201.25 132.8 -200.9 132.25 -200.8 L132.0 -200.7 130.75 -201.25 Q130.3 -201.35 130.0 -201.55 L129.35 -201.55 129.05 -201.5 128.95 -201.65 128.55 -201.6 128.05 -201.7 127.7 -201.65 127.4 -201.35 127.5 -201.3 127.7 -200.95 127.8 -200.75 Q128.9 -200.4 129.4 -199.25 L129.75 -198.55 Q129.6 -197.45 128.8 -197.0 128.25 -196.15 127.15 -196.0 L127.0 -195.95 126.85 -196.05 125.05 -195.9 124.9 -195.75 121.85 -195.4 121.35 -195.25 121.15 -195.25 121.1 -195.35 120.85 -195.4 119.6 -194.6 118.45 -196.55 Q119.15 -197.1 120.0 -197.5 120.1 -197.95 120.5 -197.95 L120.7 -198.0 121.25 -197.8 121.45 -197.65 Q121.85 -198.15 122.95 -198.2 L126.1 -198.75 126.5 -199.05 126.95 -198.9 127.0 -198.95 126.9 -199.2 126.9 -199.6 127.0 -199.75 126.95 -199.8 126.85 -200.0 126.35 -200.6 126.0 -201.25 Q125.95 -201.65 126.25 -201.9 L126.35 -202.2 126.65 -202.4 Q127.8 -203.4 129.35 -203.15 L129.8 -203.1 130.45 -203.05 131.3 -202.95 131.5 -203.05 131.85 -203.15 132.0 -203.05 132.15 -202.95 133.3 -203.1 133.35 -203.2 M128.4 -198.7 L128.25 -199.05 128.2 -198.85 128.05 -198.5 128.25 -198.45 128.4 -198.5 128.4 -198.65 128.4 -198.7 M142.95 -200.8 L143.0 -200.85 143.5 -203.0 143.65 -202.95 144.6 -203.55 144.65 -203.65 144.85 -203.75 145.05 -203.7 145.2 -203.55 145.3 -203.5 145.35 -203.35 Q145.3 -203.3 145.4 -203.2 L145.3 -202.7 145.3 -202.65 145.3 -202.35 Q145.3 -201.45 144.55 -201.0 L144.4 -200.85 143.1 -200.8 142.95 -200.8 M138.45 -194.2 Q138.25 -195.1 139.6 -195.7 L141.1 -195.95 141.55 -196.4 139.55 -196.5 139.25 -196.65 139.1 -196.75 138.85 -196.85 Q137.8 -197.35 137.0 -198.15 136.75 -198.45 136.85 -198.8 L137.6 -199.1 138.45 -198.85 138.55 -198.65 139.0 -198.7 139.6 -198.65 139.8 -198.6 141.7 -197.9 142.1 -197.55 143.0 -197.6 143.2 -197.7 143.25 -197.7 144.2 -197.45 144.9 -197.6 145.45 -197.35 145.75 -197.15 145.7 -196.9 145.75 -196.65 145.6 -196.55 145.65 -196.45 145.25 -196.3 145.1 -196.0 144.6 -195.8 144.5 -195.9 144.3 -195.9 142.8 -195.55 142.75 -195.55 142.7 -195.6 142.4 -195.35 Q141.15 -194.65 139.75 -194.3 139.4 -193.6 138.7 -193.65 L138.45 -194.2 M150.2 -222.3 L150.2 -222.0 150.05 -221.95 150.1 -222.1 150.05 -222.25 150.2 -222.3 M156.15 -200.2 L156.15 -200.25 155.95 -200.2 155.85 -200.15 156.1 -200.15 156.15 -200.2 M161.05 -200.25 L160.2 -200.15 160.5 -200.1 161.15 -199.95 Q161.4 -199.8 161.55 -200.1 L161.45 -200.15 161.05 -200.25 M137.6 -192.15 L137.2 -191.9 136.8 -191.5 136.65 -191.5 136.5 -191.5 136.45 -191.5 136.25 -191.5 Q135.3 -189.6 133.35 -188.7 133.1 -188.8 132.75 -189.0 132.4 -189.2 132.35 -189.65 L132.95 -190.35 133.25 -190.55 133.15 -190.75 134.1 -192.4 134.65 -193.1 Q134.55 -193.5 134.85 -193.65 136.2 -192.95 137.55 -192.85 L137.6 -192.15 M127.9 -179.3 L127.75 -179.55 127.7 -179.9 Q128.15 -180.95 129.55 -180.75 L130.3 -180.7 130.95 -180.95 131.7 -181.05 132.75 -181.7 Q133.0 -181.95 133.45 -182.0 L136.65 -184.45 137.15 -184.75 137.5 -185.3 138.9 -186.6 139.3 -186.9 139.5 -186.85 139.65 -186.9 139.85 -186.8 140.0 -186.85 140.3 -186.55 140.65 -186.15 140.65 -186.05 140.85 -185.95 141.0 -185.8 141.1 -185.5 Q141.15 -184.15 140.0 -183.45 L139.75 -183.45 139.5 -183.5 139.1 -184.15 137.85 -183.3 134.65 -181.0 134.25 -180.4 133.25 -180.1 132.2 -179.9 Q130.85 -179.05 129.25 -179.05 L128.05 -179.15 127.9 -179.3 M136.1 -192.85 L136.1 -192.95 135.95 -192.8 135.85 -192.7 136.1 -192.8 136.1 -192.85 M121.95 -182.9 L122.15 -182.9 122.35 -182.8 123.2 -183.35 123.4 -183.4 125.3 -183.8 125.85 -183.7 126.5 -184.15 126.65 -184.35 127.6 -184.6 128.1 -185.15 128.7 -185.2 129.0 -185.2 129.1 -184.9 129.25 -184.75 129.15 -184.6 129.25 -184.55 129.05 -184.2 129.1 -183.9 128.75 -183.5 128.6 -183.45 128.5 -183.4 128.4 -183.4 127.35 -182.35 127.3 -182.4 127.1 -182.0 125.5 -179.8 Q125.5 -179.1 124.9 -178.75 L124.45 -179.1 Q123.85 -179.8 124.65 -180.95 L125.8 -181.85 125.95 -182.4 Q125.05 -181.7 123.95 -181.55 L123.75 -181.5 123.45 -181.45 121.3 -181.65 120.85 -182.05 Q121.1 -182.65 121.6 -182.85 L121.95 -182.9 M125.95 -197.1 Q126.25 -197.0 126.35 -197.3 L126.3 -197.3 125.9 -197.4 125.85 -197.4 125.1 -197.2 125.35 -197.15 125.95 -197.1 M121.05 -196.7 L120.95 -196.65 121.15 -196.7 121.2 -196.75 121.2 -196.8 121.05 -196.7 M105.05 -191.35 Q104.05 -191.7 103.2 -192.35 102.85 -192.65 102.9 -192.95 103.65 -193.65 104.45 -193.2 L104.6 -193.0 105.6 -193.15 105.75 -193.15 107.7 -192.7 108.15 -192.45 108.95 -192.6 109.15 -192.7 110.15 -192.55 110.85 -192.85 111.35 -192.65 111.65 -192.55 111.65 -192.25 111.7 -192.05 111.6 -191.9 111.65 -191.85 111.3 -191.6 111.2 -191.3 110.7 -191.15 110.6 -191.15 110.45 -191.1 110.4 -191.15 Q109.7 -190.8 109.05 -190.55 L108.95 -190.65 108.65 -190.35 Q107.55 -189.55 106.3 -189.0 106.0 -188.3 105.35 -188.3 L105.0 -188.75 Q104.75 -189.65 105.95 -190.4 L107.4 -190.8 107.75 -191.25 105.55 -191.2 105.35 -191.25 105.05 -191.35 M108.25 -187.55 L108.25 -187.85 108.3 -188.2 110.35 -188.3 111.05 -187.95 111.7 -187.85 112.45 -187.65 113.7 -187.85 114.45 -187.85 115.2 -188.1 115.95 -186.85 116.1 -186.65 115.15 -186.4 114.5 -186.05 113.45 -186.2 112.45 -186.4 Q110.9 -186.15 109.45 -186.8 108.85 -187.05 108.35 -187.35 L108.25 -187.55 M223.65 -191.55 L224.7 -190.55 Q225.55 -189.85 225.6 -189.2 L224.5 -188.5 223.65 -191.55 M231.6 -175.55 L230.8 -176.85 230.75 -176.85 230.65 -176.95 230.5 -177.0 230.3 -177.5 230.4 -177.85 230.2 -178.25 230.3 -178.25 230.25 -178.4 230.45 -178.6 230.65 -178.8 231.0 -178.7 231.5 -178.5 231.95 -177.9 232.8 -177.4 232.9 -177.2 233.5 -176.5 234.05 -176.5 235.9 -175.65 236.05 -175.55 236.8 -174.8 237.05 -174.9 Q237.95 -174.75 238.15 -173.7 238.0 -173.4 237.6 -173.35 L235.4 -173.7 235.1 -173.85 234.9 -173.9 Q233.8 -174.3 233.1 -175.3 L233.15 -174.7 234.05 -173.45 Q234.55 -172.1 233.85 -171.55 L233.25 -171.35 Q232.7 -171.8 232.95 -172.5 232.2 -173.75 231.8 -175.1 L231.7 -175.5 231.6 -175.55 M228.15 -174.6 L228.25 -174.6 229.05 -174.4 Q230.5 -174.3 230.75 -173.1 L230.55 -172.8 230.4 -172.55 230.2 -172.45 228.95 -172.65 228.6 -172.7 228.15 -174.6 M211.7 -196.85 L211.6 -196.85 211.5 -196.9 211.5 -196.8 211.4 -196.75 211.5 -196.55 211.8 -196.7 212.0 -196.7 211.7 -196.85 M210.1 -193.7 L210.1 -193.45 210.3 -194.25 210.3 -194.3 210.2 -194.65 210.2 -194.75 Q209.9 -194.65 210.05 -194.35 L210.1 -193.7 M209.55 -189.4 L209.5 -189.35 209.5 -189.05 209.55 -189.2 209.7 -189.4 209.55 -189.4 M203.15 -176.75 L203.7 -178.2 203.7 -178.25 203.7 -178.35 203.7 -178.45 203.9 -178.95 204.2 -179.05 204.45 -179.45 204.55 -179.35 204.65 -179.5 204.9 -179.4 205.2 -179.4 205.3 -179.15 205.5 -178.6 205.25 -177.9 205.35 -176.85 205.25 -176.6 205.05 -175.8 205.35 -175.3 205.8 -173.35 205.8 -173.15 205.65 -172.1 205.8 -171.95 Q206.25 -171.15 205.6 -170.35 205.2 -170.3 204.9 -170.6 204.2 -171.55 203.9 -172.6 L203.85 -172.9 203.75 -173.1 Q203.4 -174.2 203.85 -175.35 L203.35 -175.0 Q203.3 -174.15 202.9 -173.5 202.1 -172.3 201.2 -172.55 L200.7 -172.9 Q200.75 -173.6 201.45 -173.85 202.0 -175.25 202.9 -176.35 L203.15 -176.65 203.15 -176.75 M199.3 -188.75 L199.05 -189.0 199.0 -189.3 Q199.15 -190.65 200.45 -191.15 L200.8 -191.15 201.05 -191.05 201.15 -190.95 201.3 -190.9 201.8 -190.8 202.2 -190.65 202.25 -190.45 202.45 -190.3 202.45 -190.1 202.55 -190.0 202.45 -189.5 Q202.15 -188.15 201.4 -187.0 L201.3 -186.4 201.0 -184.9 200.75 -185.5 199.8 -187.6 200.0 -188.7 199.3 -188.75 M201.0 -177.6 Q201.3 -176.7 200.7 -176.0 L200.3 -175.9 199.95 -175.95 199.8 -176.05 199.65 -176.25 200.7 -176.8 201.0 -177.6 M193.0 -177.9 L193.1 -178.3 192.65 -179.1 192.5 -179.25 192.3 -180.3 192.0 -180.65 191.85 -181.15 191.85 -181.45 191.85 -181.8 192.1 -181.85 192.35 -182.05 192.5 -181.95 192.55 -182.05 192.9 -181.7 193.25 -181.7 193.65 -181.35 193.65 -181.2 193.7 -181.05 194.7 -179.8 194.7 -179.7 195.05 -179.55 195.75 -179.0 197.2 -177.55 Q198.0 -177.55 198.25 -176.85 L197.9 -176.45 Q197.15 -175.95 196.1 -176.75 L195.95 -176.85 Q195.35 -177.3 195.05 -178.1 L194.45 -178.3 Q195.2 -177.35 195.2 -176.15 L195.2 -175.9 195.25 -175.6 195.25 -175.35 Q195.2 -174.4 194.8 -173.4 L194.3 -173.0 194.1 -173.1 Q194.3 -175.1 193.35 -177.05 L193.0 -177.9" fill="#eeeeee" fill-rule="evenodd" stroke="none"/>
    <path d="M146.55 -227.15 L146.9 -227.4 Q147.25 -226.9 147.85 -226.6 L147.95 -226.4 148.0 -226.35 147.9 -226.2 147.85 -225.7 147.9 -225.7 Q147.6 -224.9 147.8 -224.25 L147.35 -225.4 147.05 -225.9 146.75 -226.65 146.55 -227.15 M210.65 -232.5 L210.85 -232.1 209.8 -231.2 209.3 -230.9 208.35 -230.05 209.0 -231.45 209.05 -231.4 209.15 -232.05 209.3 -232.1 209.45 -232.25 210.65 -232.5 M202.2 -229.2 L201.25 -229.25 201.2 -229.2 200.35 -229.1 198.8 -228.85 198.9 -229.8 200.45 -229.9 202.45 -230.2 202.9 -230.3 203.05 -230.15 203.05 -229.9 202.9 -229.55 Q202.65 -229.2 202.2 -229.2 M144.55 -219.8 L145.9 -218.8 145.5 -218.0 Q144.95 -218.25 144.5 -218.7 L144.55 -219.65 144.55 -219.8" fill="#cc0000" fill-rule="evenodd" stroke="none"/>
    <path d="M147.85 -226.6 L148.0 -226.35 147.95 -226.4 147.85 -226.6 M146.0 -215.6 L145.95 -215.7 144.45 -217.9 144.5 -218.7 Q144.95 -218.25 145.5 -218.0 L145.6 -217.9 145.95 -217.45 146.2 -217.2 145.95 -217.05 145.9 -216.65 146.0 -215.6 M208.05 -229.7 Q207.65 -229.4 207.1 -229.25 L207.25 -229.55 207.2 -229.75 207.05 -230.0 207.35 -230.1 207.4 -230.25 207.7 -230.6 208.2 -230.95 208.35 -231.0 208.5 -231.4 209.0 -231.45 208.35 -230.05 208.3 -230.0 208.15 -229.8 208.05 -229.7 M198.8 -228.85 L200.35 -229.1 201.2 -229.2 201.25 -229.25 202.2 -229.2 202.2 -228.85 200.35 -228.5 Q198.85 -228.1 197.3 -227.15 L197.2 -227.1 197.8 -227.95 197.95 -228.3 197.8 -228.55 198.15 -228.65 198.65 -228.85 198.8 -228.85 M209.15 -232.05 L209.45 -232.25 209.3 -232.1 209.15 -232.05 M147.9 -225.7 L148.3 -225.45 148.3 -225.05 148.3 -225.0 148.65 -224.4 148.7 -224.0 148.65 -223.85 148.9 -223.65 148.65 -223.45 148.5 -223.3 148.5 -223.05 Q148.05 -223.4 147.9 -223.85 L147.85 -224.0 147.85 -224.2 147.8 -224.25 Q147.6 -224.9 147.9 -225.7" fill="#ffcc00" fill-rule="evenodd" stroke="none"/>
    <path d="M204.55 -231.5 L204.65 -232.0 204.75 -232.0 204.6 -231.7 204.55 -231.5 M200.35 -228.5 L202.2 -228.85 202.8 -228.85 202.7 -228.55 204.0 -228.4 203.95 -228.3 204.2 -228.1 204.55 -228.35 204.75 -228.15 Q205.45 -227.65 205.95 -227.8 L201.55 -224.9 Q200.6 -226.5 200.35 -228.5 M201.25 -227.15 L202.8 -227.1 203.3 -227.3 203.55 -227.6 203.75 -227.8 203.85 -227.9 203.8 -228.15 203.8 -228.25 203.65 -228.3 Q203.1 -228.45 202.65 -228.1 L202.6 -228.0 201.3 -227.5 201.2 -227.3 Q201.15 -227.2 201.25 -227.15" fill="#a8672d" fill-rule="evenodd" stroke="none"/>
    <path d="M202.2 -228.85 L202.2 -229.2 Q202.65 -229.2 202.9 -229.55 L203.05 -229.9 203.05 -230.15 202.9 -230.3 203.85 -231.3 203.65 -230.4 203.7 -230.2 203.65 -229.7 203.85 -229.5 204.15 -229.1 204.2 -229.05 204.2 -228.9 202.8 -228.85 202.2 -228.85" fill="#ffcccc" fill-rule="evenodd" stroke="none"/>
    <path d="M220.2 -202.15 L222.15 -201.75 222.25 -201.65 222.3 -201.65 222.15 -201.55 220.9 -201.85 220.65 -201.85 220.35 -201.7 220.2 -202.15 M232.45 -184.7 Q232.8 -182.4 233.6 -180.55 234.6 -177.8 237.55 -175.6 238.6 -174.9 239.55 -174.65 L239.35 -173.85 239.25 -174.0 Q237.55 -172.6 235.6 -173.6 L235.4 -173.7 237.6 -173.35 Q238.0 -173.4 238.15 -173.7 237.95 -174.75 237.05 -174.9 L236.8 -174.8 236.05 -175.55 235.9 -175.65 234.05 -176.5 233.5 -176.5 232.9 -177.2 232.8 -177.4 231.95 -177.9 231.5 -178.5 231.0 -178.7 230.65 -178.8 230.45 -178.6 230.25 -178.4 230.3 -178.25 230.2 -178.25 230.4 -177.85 230.3 -177.5 230.5 -177.0 230.65 -176.95 230.75 -176.85 230.8 -176.85 231.6 -175.55 231.8 -175.1 Q232.2 -173.75 232.95 -172.5 232.7 -171.8 233.25 -171.35 L233.85 -171.55 Q234.6 -170.15 236.3 -169.5 L236.0 -168.65 Q234.55 -169.1 233.5 -169.95 232.65 -170.7 232.1 -171.7 L231.45 -172.85 231.4 -173.0 Q230.3 -175.1 229.7 -176.75 L229.45 -177.15 Q228.4 -179.5 228.35 -182.3 228.4 -179.5 229.45 -177.15 L229.7 -176.75 Q230.3 -175.1 231.4 -173.0 L231.45 -172.85 230.5 -172.35 230.4 -172.55 230.55 -172.8 230.75 -173.1 Q230.5 -174.3 229.05 -174.4 L228.25 -174.6 228.15 -174.6 228.1 -174.85 226.55 -181.2 228.35 -182.3 232.45 -184.7 M206.8 -173.6 L206.7 -171.95 Q206.75 -170.7 207.1 -169.8 L206.35 -169.5 206.4 -169.6 Q204.3 -170.15 203.95 -172.3 L203.9 -172.6 Q204.2 -171.55 204.9 -170.6 205.2 -170.3 205.6 -170.35 206.25 -171.15 205.8 -171.95 L205.65 -172.1 205.8 -173.15 205.8 -173.35 205.35 -175.3 205.05 -175.8 205.25 -176.6 205.35 -176.85 205.25 -177.9 205.5 -178.6 205.3 -179.15 205.2 -179.4 204.9 -179.4 204.65 -179.5 204.55 -179.35 204.45 -179.45 204.2 -179.05 203.9 -178.95 203.7 -178.45 203.7 -178.35 203.7 -178.25 203.7 -178.2 203.15 -176.75 202.9 -176.35 Q202.0 -175.25 201.45 -173.85 200.75 -173.6 200.7 -172.9 L201.2 -172.55 Q200.55 -171.15 201.05 -169.4 L200.2 -169.1 Q199.65 -170.5 199.75 -171.85 L199.95 -173.0 200.35 -174.05 200.85 -175.3 201.0 -175.4 Q202.0 -177.55 202.95 -179.0 L203.15 -179.4 Q205.1 -182.75 209.1 -184.9 L209.25 -185.0 209.1 -184.9 Q205.1 -182.75 203.15 -179.4 L202.95 -179.0 Q202.0 -177.55 201.0 -175.4 L200.85 -175.3 199.9 -175.75 199.95 -175.95 200.3 -175.9 200.7 -176.0 Q201.3 -176.7 201.0 -177.6 L201.1 -178.05 Q201.65 -180.2 201.55 -182.05 L201.4 -183.65 201.35 -183.8 201.0 -184.9 201.3 -186.4 201.4 -187.0 Q202.15 -188.15 202.45 -189.5 L202.55 -190.0 202.45 -190.1 202.45 -190.3 202.25 -190.45 202.2 -190.65 201.8 -190.8 201.3 -190.9 201.15 -190.95 201.05 -191.05 200.8 -191.15 200.45 -191.15 Q199.15 -190.65 199.0 -189.3 L199.05 -189.0 199.3 -188.75 199.2 -188.7 198.3 -190.1 200.2 -194.0 203.5 -200.15 Q204.55 -202.05 206.75 -205.35 L206.9 -205.55 Q207.35 -206.55 208.6 -206.65 L210.8 -206.7 Q213.35 -206.55 215.05 -205.1 216.6 -203.75 217.6 -202.15 L218.25 -200.9 218.65 -199.9 218.65 -199.8 218.6 -199.7 218.5 -199.8 218.2 -200.7 218.0 -201.0 217.8 -201.15 Q217.55 -201.45 217.2 -201.35 L216.95 -201.65 216.8 -202.0 216.5 -202.0 216.4 -202.0 216.4 -202.3 216.25 -202.4 216.05 -202.5 215.95 -202.6 215.85 -202.55 215.65 -202.55 215.15 -202.25 215.1 -202.2 214.85 -202.1 Q214.1 -201.8 213.95 -201.05 L213.9 -200.85 213.9 -200.8 213.8 -200.6 214.3 -199.3 214.65 -198.5 214.65 -197.85 214.6 -197.5 214.75 -197.45 214.7 -197.05 214.8 -196.45 214.75 -196.1 214.45 -195.85 214.35 -195.95 213.95 -196.15 213.85 -196.25 Q213.4 -197.45 212.25 -197.9 L211.55 -198.25 211.15 -198.2 Q210.3 -198.0 209.9 -197.35 209.0 -196.75 208.85 -195.6 L208.8 -195.4 208.95 -195.25 Q208.6 -194.4 208.75 -193.4 L208.65 -193.2 208.2 -190.1 208.05 -189.5 208.05 -189.35 208.15 -189.25 208.25 -189.0 Q206.8 -187.25 206.75 -185.05 L207.3 -184.6 208.05 -184.5 208.45 -185.35 208.55 -185.35 208.75 -185.35 209.25 -185.0 Q211.75 -186.35 213.75 -186.25 L214.75 -185.9 214.15 -187.25 214.55 -187.65 216.4 -190.75 218.1 -184.35 216.2 -182.95 216.0 -183.4 214.95 -185.55 214.75 -185.9 214.95 -185.55 214.7 -184.7 Q214.0 -183.65 212.9 -183.15 209.85 -180.7 208.35 -178.05 207.25 -176.45 206.9 -174.25 L206.8 -173.6 M183.7 -182.75 L183.1 -183.05 Q181.85 -183.15 180.8 -183.95 179.65 -185.15 181.3 -185.7 L182.8 -186.05 183.7 -182.75 M170.0 -194.5 L165.95 -192.75 159.45 -190.3 Q155.95 -189.05 153.05 -188.35 L152.95 -188.35 152.9 -188.95 154.2 -190.1 154.35 -189.85 154.6 -189.75 Q155.95 -189.75 156.65 -191.0 L156.7 -191.3 156.7 -191.5 156.55 -191.65 156.6 -191.8 156.5 -192.3 156.4 -192.75 156.25 -192.85 156.1 -193.0 155.95 -193.0 155.8 -193.2 155.3 -193.15 Q153.95 -193.05 152.75 -192.45 L152.15 -192.45 148.25 -192.05 147.95 -192.0 147.2 -192.1 145.95 -192.1 Q145.65 -192.4 145.15 -192.35 L144.5 -192.55 143.8 -192.95 Q142.7 -193.9 141.7 -193.2 L141.65 -192.85 141.6 -192.5 141.35 -192.5 141.05 -193.5 141.2 -193.6 Q143.4 -194.35 145.0 -195.05 L145.45 -195.2 Q148.7 -196.55 151.25 -199.75 L151.65 -200.25 151.8 -200.45 151.65 -200.25 151.25 -199.75 Q148.7 -196.55 145.45 -195.2 L145.0 -195.05 Q143.4 -194.35 141.2 -193.6 L141.05 -193.5 139.8 -193.1 138.7 -192.85 137.55 -192.85 Q136.2 -192.95 134.85 -193.65 L135.25 -194.45 136.1 -194.15 138.45 -194.2 138.7 -193.65 Q139.4 -193.6 139.75 -194.3 141.15 -194.65 142.4 -195.35 L142.75 -195.55 142.8 -195.55 144.3 -195.9 144.5 -195.9 144.6 -195.8 145.1 -196.0 145.25 -196.3 145.65 -196.45 145.6 -196.55 145.75 -196.65 145.7 -196.9 145.75 -197.15 145.45 -197.35 144.9 -197.6 144.2 -197.45 143.25 -197.7 143.2 -197.7 143.0 -197.6 142.1 -197.55 141.7 -197.9 139.8 -198.6 139.6 -198.65 139.0 -198.7 138.55 -198.65 138.45 -198.85 137.6 -199.1 136.85 -198.8 Q136.75 -198.45 137.0 -198.15 137.8 -197.35 138.85 -196.85 L138.55 -196.95 Q136.45 -197.55 136.2 -199.75 L136.1 -199.7 136.45 -200.4 Q137.15 -200.05 138.2 -199.8 L138.35 -199.95 138.65 -199.75 141.45 -199.6 142.1 -199.9 142.95 -200.8 143.1 -200.8 144.4 -200.85 144.55 -201.0 Q145.3 -201.45 145.3 -202.35 L145.3 -202.65 145.3 -202.7 145.4 -203.2 Q145.3 -203.3 145.35 -203.35 L145.3 -203.5 145.2 -203.55 145.05 -203.7 144.85 -203.75 144.65 -203.65 144.5 -204.05 144.15 -204.05 143.75 -204.15 143.7 -204.25 143.8 -204.9 Q145.8 -204.7 147.9 -203.7 L148.95 -203.0 150.45 -204.35 Q151.05 -205.35 152.2 -205.9 153.75 -206.45 153.6 -204.75 153.45 -202.75 151.8 -200.45 L152.1 -199.95 Q152.0 -199.9 152.05 -199.7 L152.05 -199.6 151.4 -199.45 151.1 -199.3 Q150.9 -198.95 151.1 -198.55 L151.45 -198.0 151.8 -197.95 Q153.8 -197.85 155.6 -198.9 L155.85 -198.85 155.9 -198.65 156.05 -198.6 156.65 -198.75 159.8 -198.75 160.0 -198.85 161.9 -198.75 162.0 -198.6 162.2 -198.6 Q163.35 -198.65 164.05 -199.45 164.9 -199.85 165.2 -200.95 L164.95 -201.7 Q164.6 -202.9 163.5 -203.45 L163.45 -203.6 163.25 -204.05 163.2 -204.1 163.5 -204.4 163.85 -204.4 164.4 -204.25 164.75 -204.2 164.8 -204.05 165.2 -204.05 165.85 -204.0 166.6 -203.55 167.8 -202.85 168.05 -202.9 Q168.9 -202.9 169.4 -203.65 L169.7 -203.6 170.0 -194.5 M144.95 -187.85 L144.35 -187.05 143.75 -186.3 139.4 -181.55 139.35 -181.5 139.0 -182.0 139.5 -183.5 139.75 -183.45 140.0 -183.45 Q141.15 -184.15 141.1 -185.5 L141.0 -185.8 140.85 -185.95 140.65 -186.05 140.65 -186.15 140.3 -186.55 140.0 -186.85 139.85 -186.8 139.65 -186.9 139.5 -186.85 139.3 -186.9 138.9 -186.6 137.5 -185.3 137.15 -184.75 136.65 -184.45 133.45 -182.0 Q133.0 -181.95 132.75 -181.7 L131.7 -181.05 130.95 -180.95 130.3 -180.7 129.55 -180.75 Q128.15 -180.95 127.7 -179.9 L127.75 -179.55 127.9 -179.3 127.75 -179.15 127.0 -179.8 127.0 -179.95 129.45 -183.05 129.75 -183.4 Q131.95 -186.35 132.35 -190.7 L132.35 -190.9 132.35 -190.7 Q131.95 -186.35 129.75 -183.4 L129.45 -183.05 127.0 -179.95 127.0 -179.8 126.15 -178.9 Q125.35 -178.05 124.4 -177.55 123.25 -176.95 121.8 -176.85 L121.7 -177.7 Q123.4 -177.95 124.45 -179.1 L124.9 -178.75 Q125.5 -179.1 125.5 -179.8 L127.1 -182.0 127.35 -182.35 128.4 -183.4 128.5 -183.4 128.6 -183.45 128.75 -183.5 129.1 -183.9 129.05 -184.2 129.25 -184.55 129.15 -184.6 129.25 -184.75 129.1 -184.9 129.0 -185.2 128.7 -185.2 128.1 -185.15 127.6 -184.6 126.65 -184.35 126.5 -184.15 125.85 -183.7 125.3 -183.8 123.4 -183.4 123.2 -183.35 122.35 -182.8 122.15 -182.9 121.95 -182.9 Q123.05 -183.25 123.9 -184.55 L124.15 -184.95 Q125.65 -186.05 126.6 -187.45 L127.35 -188.55 Q128.55 -190.65 129.35 -193.45 129.3 -194.6 130.0 -195.6 131.0 -196.8 131.7 -195.35 131.0 -196.8 130.0 -195.6 129.3 -194.6 129.35 -193.45 128.55 -190.65 127.35 -188.55 L125.6 -187.65 124.3 -187.0 124.2 -187.3 Q123.3 -189.3 122.0 -191.05 L119.6 -194.6 120.85 -195.4 121.1 -195.35 121.15 -195.25 121.35 -195.25 121.85 -195.4 124.9 -195.75 125.05 -195.9 126.85 -196.05 127.0 -195.95 127.15 -196.0 Q128.25 -196.15 128.8 -197.0 129.6 -197.45 129.75 -198.55 L129.4 -199.25 Q128.9 -200.4 127.8 -200.75 L127.7 -200.95 127.5 -201.3 127.4 -201.35 127.7 -201.65 128.05 -201.7 128.55 -201.6 128.95 -201.65 129.05 -201.5 129.35 -201.55 130.0 -201.55 Q130.3 -201.35 130.75 -201.25 L132.0 -200.7 132.25 -200.8 Q132.8 -200.9 133.15 -201.25 132.7 -199.55 133.55 -198.5 L133.75 -198.2 132.65 -196.55 Q132.5 -196.4 132.5 -196.0 L131.7 -195.35 Q132.5 -193.75 132.4 -191.35 L132.35 -190.9 132.9 -190.6 132.95 -190.4 132.95 -190.35 132.35 -189.65 Q132.4 -189.2 132.75 -189.0 133.1 -188.8 133.35 -188.7 135.3 -189.6 136.25 -191.5 L136.45 -191.5 136.5 -191.5 136.65 -191.5 136.8 -191.5 137.2 -191.9 137.6 -192.15 137.6 -191.5 138.55 -190.65 Q140.2 -189.25 142.0 -188.55 L143.45 -188.05 143.6 -188.0 144.95 -187.85 M104.35 -187.35 Q103.05 -187.3 101.7 -187.8 L101.95 -188.6 105.0 -188.75 105.35 -188.3 Q106.0 -188.3 106.3 -189.0 107.55 -189.55 108.65 -190.35 L109.05 -190.55 Q109.7 -190.8 110.4 -191.15 L110.45 -191.1 110.6 -191.15 110.7 -191.15 111.2 -191.3 111.3 -191.6 111.65 -191.85 111.6 -191.9 111.7 -192.05 111.65 -192.25 111.65 -192.55 111.35 -192.65 110.85 -192.85 110.15 -192.55 109.15 -192.7 108.95 -192.6 108.15 -192.45 107.7 -192.7 105.75 -193.15 105.6 -193.15 104.6 -193.0 104.45 -193.2 Q103.65 -193.65 102.9 -192.95 102.85 -192.65 103.2 -192.35 104.05 -191.7 105.05 -191.35 L104.8 -191.4 Q102.7 -191.75 102.2 -193.75 L102.1 -193.7 102.35 -194.4 104.45 -194.05 105.45 -194.1 107.7 -194.4 Q109.15 -194.8 110.35 -195.55 L110.7 -195.75 113.05 -191.6 115.2 -188.1 114.45 -187.85 113.7 -187.85 112.45 -187.65 111.7 -187.85 111.05 -187.95 110.35 -188.3 108.3 -188.2 108.25 -187.85 108.25 -187.55 108.1 -187.5 107.65 -188.4 106.45 -187.9 104.35 -187.35 M115.95 -201.05 L116.7 -201.65 Q118.1 -202.4 118.2 -200.75 118.25 -199.45 117.7 -197.9 L115.95 -201.05 M131.2 -205.35 L131.2 -205.4 131.35 -205.4 132.8 -204.75 134.3 -203.8 133.8 -202.95 133.7 -203.05 133.6 -203.2 133.35 -203.2 133.3 -203.6 133.25 -203.65 133.0 -203.75 132.7 -204.0 132.55 -204.6 132.4 -204.75 Q131.8 -205.2 131.2 -205.25 L131.2 -205.35 M182.2 -206.15 L187.05 -202.15 192.2 -197.3 196.85 -192.25 196.85 -192.2 196.35 -191.85 194.75 -192.55 194.85 -192.85 194.85 -193.15 Q194.25 -194.35 192.8 -194.4 L192.5 -194.3 192.25 -194.25 192.2 -194.05 192.05 -194.0 191.6 -193.75 191.25 -193.45 191.25 -193.25 191.15 -193.05 191.25 -192.9 191.1 -192.7 191.35 -192.3 Q192.05 -191.1 193.15 -190.25 L193.45 -189.7 Q194.4 -187.8 195.7 -186.1 195.7 -185.65 195.95 -185.3 L196.45 -184.45 196.5 -184.15 Q196.35 -183.85 196.6 -183.4 L196.75 -182.75 196.65 -181.9 Q196.3 -180.45 197.35 -179.85 L197.75 -179.95 198.05 -180.0 198.2 -179.85 197.35 -179.1 197.2 -179.2 195.8 -180.6 194.15 -182.05 193.8 -182.4 Q192.45 -183.6 190.8 -184.4 192.45 -183.6 193.8 -182.4 L194.15 -182.05 195.8 -180.6 197.2 -179.2 197.35 -179.1 198.25 -178.1 199.5 -176.15 Q200.0 -174.9 200.0 -173.35 L199.05 -173.35 Q199.0 -175.25 197.9 -176.45 L198.25 -176.85 Q198.0 -177.55 197.2 -177.55 L195.75 -179.0 195.05 -179.55 194.7 -179.8 193.7 -181.05 193.65 -181.2 193.65 -181.35 193.25 -181.7 192.9 -181.7 192.55 -182.05 192.5 -181.95 192.35 -182.05 192.1 -181.85 191.85 -181.8 191.85 -181.45 191.85 -181.15 190.8 -184.4 Q189.1 -189.7 187.7 -195.05 L187.0 -197.8 Q185.85 -203.05 180.5 -203.35 178.65 -203.3 177.7 -201.65 177.0 -200.5 176.8 -199.35 L176.8 -199.55 176.6 -199.7 Q176.2 -200.55 175.25 -200.6 L175.05 -200.65 174.95 -200.65 174.4 -200.85 174.15 -200.8 174.1 -200.75 174.0 -200.65 173.85 -200.5 173.75 -200.3 173.8 -200.05 173.4 -199.95 173.4 -199.9 173.4 -199.55 173.2 -199.2 Q172.8 -199.2 172.65 -198.85 L172.55 -198.6 Q172.25 -197.9 172.4 -197.3 L172.35 -197.2 172.35 -197.25 172.25 -197.4 Q172.3 -199.55 173.2 -201.65 L174.15 -203.45 Q175.8 -206.05 180.0 -206.85 181.2 -207.1 182.0 -206.35 L182.2 -206.15 M162.55 -205.3 L162.2 -205.1 162.05 -204.85 Q161.75 -204.6 161.7 -204.15 L161.95 -203.45 162.4 -202.8 162.2 -202.9 Q161.5 -203.25 161.2 -203.8 L161.1 -203.9 160.8 -204.2 Q160.6 -204.75 160.95 -205.25 L162.55 -205.3 M163.7 -201.4 L163.7 -201.65 163.8 -201.3 163.7 -201.4 M176.85 -193.65 L177.1 -193.45 177.15 -193.4 177.5 -193.4 178.25 -193.35 178.75 -193.95 178.85 -194.05 179.15 -193.9 178.8 -193.0 178.75 -192.95 178.65 -192.55 Q178.2 -192.15 177.6 -192.2 L177.1 -193.15 176.85 -193.65 M177.85 -195.05 L177.65 -194.85 177.65 -194.75 177.3 -194.9 177.1 -195.2 177.05 -195.25 177.0 -195.8 176.85 -196.15 177.0 -196.3 176.8 -196.6 Q176.55 -196.95 176.6 -197.25 L176.65 -198.1 Q176.75 -196.55 177.85 -195.05 M215.55 -195.05 L215.45 -194.5 215.25 -193.5 214.15 -193.45 213.95 -193.8 213.9 -193.9 Q213.35 -194.35 213.1 -195.0 L213.0 -195.25 213.6 -194.7 214.3 -194.35 Q214.7 -194.35 215.0 -194.6 L215.35 -194.7 215.35 -194.75 215.55 -195.05 M221.9 -197.05 L222.15 -196.85 Q222.35 -196.7 222.7 -196.65 L222.9 -196.35 222.95 -195.95 222.85 -195.95 222.35 -195.75 222.3 -195.75 221.9 -197.05 M222.7 -194.5 L223.35 -194.65 224.05 -194.95 224.25 -195.65 224.35 -196.0 224.2 -196.35 225.3 -195.2 224.7 -194.3 224.25 -194.3 224.15 -194.3 222.75 -194.35 222.7 -194.5 M126.85 -200.0 L126.65 -200.05 Q125.95 -200.3 125.55 -200.85 L125.45 -200.9 125.15 -201.1 Q124.9 -201.6 125.15 -202.1 L126.65 -202.4 126.35 -202.2 126.25 -201.9 Q125.95 -201.65 126.0 -201.25 L126.35 -200.6 126.85 -200.0 M128.2 -198.85 L128.25 -199.05 128.4 -198.7 128.2 -198.85 M134.45 -203.65 L136.35 -201.9 136.7 -201.4 135.95 -200.7 Q134.45 -201.7 134.45 -203.65 M138.2 -199.8 L138.55 -199.75 138.65 -199.75 138.55 -199.75 138.2 -199.8 M148.95 -203.0 Q146.85 -201.35 144.85 -200.5 143.3 -199.75 141.45 -199.6 143.3 -199.75 144.85 -200.5 146.85 -201.35 148.95 -203.0 M156.15 -200.2 L156.1 -200.15 155.85 -200.15 155.95 -200.2 156.15 -200.2 M136.1 -192.85 L136.1 -192.8 135.85 -192.7 135.95 -192.8 136.1 -192.85 M123.45 -181.45 L123.2 -181.4 Q121.15 -180.9 119.9 -182.55 L119.75 -182.45 119.75 -183.2 Q120.7 -182.75 121.6 -182.85 121.1 -182.65 120.85 -182.05 L121.3 -181.65 123.45 -181.45 M121.2 -196.75 L121.15 -196.7 120.95 -196.65 121.05 -196.7 121.2 -196.75 M107.65 -188.4 L107.75 -188.5 Q109.8 -189.5 111.25 -190.4 L111.6 -190.6 113.05 -191.6 111.6 -190.6 111.25 -190.4 Q109.8 -189.5 107.75 -188.5 L107.65 -188.4 M211.7 -196.85 L212.0 -196.7 211.8 -196.7 211.7 -196.85 M209.55 -189.4 L209.55 -189.2 209.5 -189.05 209.5 -189.35 209.55 -189.4 M192.0 -180.65 L192.3 -180.3 192.5 -179.25 192.65 -179.1 193.1 -178.3 193.0 -177.9 192.15 -180.2 192.0 -180.65 M194.1 -173.1 L194.3 -173.0 194.8 -173.4 Q195.2 -174.4 195.25 -175.35 195.55 -173.35 193.95 -172.2 L194.1 -173.1" fill="#fcfcfc" fill-rule="evenodd" stroke="none"/>
    <path d="M207.1 -229.25 L207.0 -229.15 207.0 -229.3 207.0 -229.6 206.95 -229.75 207.05 -230.0 207.2 -229.75 207.25 -229.55 207.1 -229.25 M205.05 -229.7 L205.45 -229.55 205.3 -229.3 205.05 -229.7 M148.9 -223.65 L148.85 -223.35 148.75 -223.3 148.6 -223.05 Q148.5 -223.1 148.55 -222.9 L148.5 -223.05 148.5 -223.3 148.65 -223.45 148.9 -223.65 M150.05 -222.25 L150.05 -222.5 150.2 -222.45 150.2 -222.3 150.05 -222.25" fill="#dddddd" fill-rule="evenodd" stroke="none"/>
    <path d="M195.8 -236.8 L200.4 -237.25 Q203.25 -237.0 206.6 -235.05 L206.8 -234.95 207.25 -235.05 207.7 -235.05 208.05 -235.15 208.55 -235.3 209.0 -235.4 209.45 -235.25 210.0 -235.0 Q210.85 -234.7 211.35 -234.2 L211.4 -234.1 211.7 -233.65 211.75 -233.4 211.85 -233.25 211.75 -232.35 211.55 -231.65 213.4 -230.55 230.5 -220.35 237.9 -215.95 238.6 -215.45 240.15 -214.55 242.25 -213.3 241.6 -210.85 241.35 -210.35 240.15 -208.85 239.7 -208.65 Q238.55 -208.2 236.45 -205.25 237.45 -206.5 236.65 -205.15 235.85 -203.7 234.2 -202.4 L232.25 -204.25 232.15 -204.35 230.15 -206.05 228.25 -207.55 222.9 -212.3 222.8 -212.35 216.3 -218.7 209.9 -225.85 208.3 -227.8 207.25 -228.85 208.05 -229.7 208.15 -229.8 208.3 -230.0 208.35 -230.05 209.3 -230.9 209.8 -231.2 210.85 -232.1 211.55 -231.65 M147.9 -226.2 L148.4 -226.0 Q150.65 -224.85 152.3 -223.05 M152.15 -222.0 L152.3 -220.05 Q152.3 -218.15 151.9 -216.6 L151.6 -215.45 150.8 -214.85 150.75 -214.8 148.95 -213.6 148.3 -213.25 M146.95 -214.2 L146.0 -215.6 145.95 -215.7 144.45 -217.9 M154.55 -218.9 L154.25 -218.95 Q153.9 -218.95 153.9 -219.15 153.8 -219.95 153.25 -220.0 L153.15 -221.2 Q152.9 -221.65 152.9 -222.3 152.6 -224.5 153.55 -225.35 L153.8 -225.7 154.1 -226.2 154.3 -226.5 Q154.4 -227.25 154.95 -227.45 L155.2 -227.7 155.4 -231.15 Q155.6 -232.55 157.35 -232.45 L157.75 -232.35 157.85 -232.25 Q158.05 -231.95 158.65 -232.0 L160.7 -232.0 161.0 -231.95 161.65 -231.7 163.4 -231.35 163.85 -231.3 164.8 -231.05 166.5 -230.4 166.85 -230.2 168.55 -229.95 169.25 -229.9 173.0 -229.45 173.65 -229.45 181.8 -229.3 181.85 -229.3 Q183.05 -229.35 183.8 -229.75 L184.15 -229.95 188.25 -230.1 188.5 -230.1 188.9 -229.95 Q190.0 -229.45 190.55 -228.35 L190.75 -227.8 Q191.05 -227.3 190.9 -226.4 190.9 -226.0 191.05 -225.7 L191.15 -225.35 191.15 -225.0 Q190.9 -223.2 190.9 -221.2 190.9 -220.9 191.05 -220.55 L191.35 -220.25 191.6 -219.6 191.7 -218.55 Q191.8 -217.6 190.9 -217.45 L190.75 -217.25 190.2 -216.6 189.9 -216.4 189.75 -216.35 Q189.1 -215.95 188.25 -215.85 L187.25 -215.7 187.0 -215.6 186.9 -215.6 186.5 -215.5 185.85 -215.4 184.9 -215.2 183.8 -215.05 182.2 -214.95 180.1 -214.75 179.4 -214.65 174.0 -214.45 171.0 -214.55 168.9 -214.9 167.85 -214.95 166.9 -215.2 165.8 -215.4 162.75 -215.95 162.4 -216.05 161.45 -216.3 161.0 -216.5 159.75 -216.9 Q159.4 -217.0 158.95 -217.25 L157.35 -217.7 Q156.8 -217.7 156.35 -218.0 155.5 -218.65 154.55 -218.9 M197.2 -227.1 L197.3 -227.15 Q198.85 -228.1 200.35 -228.5 L202.2 -228.85 202.8 -228.85 204.2 -228.9 204.2 -229.05 204.55 -228.35 204.75 -228.15 Q205.45 -227.65 205.95 -227.8 L201.55 -224.9 Q200.6 -226.5 200.35 -228.5 M194.25 -234.2 Q193.25 -232.6 192.85 -231.0 L192.55 -229.9 192.9 -228.95 194.1 -226.3 M197.2 -227.1 L195.75 -226.4 M195.35 -235.85 L194.25 -234.2 M206.45 -234.8 L206.8 -234.95 M206.45 -234.8 L206.1 -234.65 Q205.5 -234.55 204.9 -233.6 L204.2 -232.15 203.9 -231.45 203.85 -231.3 203.65 -230.4 203.7 -230.2 203.65 -229.7 203.85 -229.5 204.15 -229.1 204.2 -229.05" fill="none" stroke="#666666" stroke-linecap="round" stroke-linejoin="round" stroke-width="2.0"/>
    <path d="M213.4 -230.55 Q215.65 -232.55 218.7 -233.7 225.0 -236.0 231.1 -233.15 237.2 -230.35 239.55 -224.05 241.35 -219.25 240.15 -214.55 M232.25 -204.25 Q231.15 -203.65 229.95 -203.2 224.9 -201.35 220.0 -202.75 M220.2 -202.15 L222.15 -201.75 222.25 -201.65 222.3 -201.65 Q224.05 -200.35 225.6 -198.4 L226.0 -197.9 226.65 -197.0 Q228.55 -194.3 229.45 -191.55 M232.45 -184.7 Q232.8 -182.4 233.6 -180.55 234.6 -177.8 237.55 -175.6 238.6 -174.9 239.55 -174.65 241.65 -174.0 243.3 -175.6 L243.45 -175.8 M243.55 -175.8 Q242.65 -171.6 240.3 -171.25 237.95 -170.8 237.85 -168.35 L236.0 -168.65 Q234.55 -169.1 233.5 -169.95 232.65 -170.7 232.1 -171.7 L231.45 -172.85 231.4 -173.0 Q230.3 -175.1 229.7 -176.75 L229.45 -177.15 Q228.4 -179.5 228.35 -182.3 M232.55 -169.05 L231.25 -169.1 229.4 -169.35 M220.15 -176.35 L219.75 -176.85 M206.8 -173.6 L206.7 -171.95 Q206.75 -170.7 207.1 -169.8 207.8 -167.7 210.1 -167.35 L210.35 -167.3 M210.4 -167.25 L204.85 -167.1 Q203.05 -168.75 201.05 -167.4 L200.2 -169.1 Q199.65 -170.5 199.75 -171.85 L199.65 -171.55 Q197.25 -172.2 196.05 -170.1 194.95 -168.0 190.55 -168.5 M190.8 -168.7 Q192.05 -169.3 192.65 -170.35 M183.7 -182.75 L183.1 -183.05 Q181.85 -183.15 180.8 -183.95 179.65 -185.15 181.3 -185.7 L182.8 -186.05 M180.7 -186.55 L180.1 -186.8 Q178.5 -187.95 177.1 -189.5 L175.4 -191.5 174.7 -192.45 Q173.45 -194.25 172.7 -196.1 L172.35 -197.2 172.35 -197.25 172.25 -197.4 Q172.3 -199.55 173.2 -201.65 L174.15 -203.45 Q175.8 -206.05 180.0 -206.85 181.2 -207.1 182.0 -206.35 L182.2 -206.15 187.05 -202.15 192.2 -197.3 196.85 -192.25 196.85 -192.2 197.1 -191.85 198.3 -190.1 200.2 -194.0 203.5 -200.15 Q204.55 -202.05 206.75 -205.35 L206.9 -205.55 Q207.35 -206.55 208.6 -206.65 L210.8 -206.7 Q213.35 -206.55 215.05 -205.1 216.6 -203.75 217.6 -202.15 L218.25 -200.9 218.65 -199.9 218.65 -199.8 218.6 -199.7 218.6 -199.2 218.55 -198.45 218.55 -198.4 Q218.45 -196.55 217.85 -194.55 L217.5 -193.5 216.4 -190.75 214.55 -187.65 214.15 -187.25 214.75 -185.9 214.95 -185.55 216.0 -183.4 216.2 -182.95 M170.0 -194.5 L165.95 -192.75 159.45 -190.3 Q155.95 -189.05 153.05 -188.35 L152.95 -188.35 152.5 -188.35 145.35 -187.8 144.95 -187.85 144.35 -187.05 143.75 -186.3 139.4 -181.55 139.35 -181.5 139.0 -181.25 138.2 -180.55 Q136.0 -178.65 133.35 -177.2 L131.8 -176.55 131.65 -176.5 130.2 -176.15 Q128.4 -175.9 126.3 -176.2 L125.1 -176.5 M124.4 -177.55 Q123.25 -176.95 121.8 -176.85 L120.05 -176.95 Q120.4 -179.3 118.3 -180.2 116.45 -180.9 116.25 -184.1 L112.45 -183.5 110.75 -183.5 110.6 -183.55 109.15 -183.8 Q107.35 -184.25 105.65 -185.4 L104.6 -186.1 M104.35 -187.35 Q103.05 -187.3 101.7 -187.8 100.9 -188.1 100.15 -188.6 101.4 -190.55 99.8 -192.2 98.2 -193.8 99.95 -197.55 M100.1 -197.3 Q100.35 -195.15 102.35 -194.4 L104.45 -194.05 105.45 -194.1 107.7 -194.4 Q109.15 -194.8 110.35 -195.55 L110.7 -195.75 M115.95 -201.05 L116.7 -201.65 Q118.1 -202.4 118.2 -200.75 118.25 -199.45 117.7 -197.9 M119.15 -201.05 L119.55 -201.5 Q121.9 -203.2 125.2 -204.3 L126.2 -204.65 Q128.75 -205.4 131.2 -205.35 L131.2 -205.4 131.35 -205.4 132.8 -204.75 134.3 -203.8 133.8 -202.95 Q133.3 -202.05 133.15 -201.25 132.7 -199.55 133.55 -198.5 L133.75 -198.2 Q134.8 -196.4 133.3 -194.7 L134.85 -193.65 Q136.2 -192.95 137.55 -192.85 L138.7 -192.85 139.8 -193.1 141.05 -193.5 141.2 -193.6 Q143.4 -194.35 145.0 -195.05 L145.45 -195.2 Q148.7 -196.55 151.25 -199.75 L151.65 -200.25 151.8 -200.45 Q153.45 -202.75 153.6 -204.75 153.75 -206.45 152.2 -205.9 151.05 -205.35 150.45 -204.35 L148.95 -203.0 147.9 -203.7 Q145.8 -204.7 143.8 -204.9 M119.3 -210.45 Q118.0 -211.45 116.9 -212.75 L115.45 -214.7 M113.4 -226.95 Q114.55 -231.4 118.3 -234.45 123.2 -238.45 129.75 -237.8 135.85 -237.2 140.05 -232.8 M154.6 -204.95 L155.05 -205.35 Q157.65 -206.75 161.0 -207.45 M209.1 -212.8 Q206.75 -219.15 209.6 -225.25 L209.9 -225.85 M190.8 -184.4 Q192.45 -183.6 193.8 -182.4 L194.15 -182.05 195.8 -180.6 197.2 -179.2 197.35 -179.1 198.25 -178.1 199.5 -176.15 Q200.0 -174.9 200.0 -173.35 L199.95 -173.0 199.75 -171.85 M209.25 -185.0 Q211.75 -186.35 213.75 -186.25 L214.75 -185.9 M214.05 -187.2 L214.15 -187.25 M119.3 -210.45 Q120.25 -209.75 121.35 -209.15 M134.45 -203.65 L136.35 -201.9 136.7 -201.4 137.1 -201.75 M134.45 -203.65 Q134.45 -201.7 135.95 -200.7 L136.7 -201.4 M134.4 -204.0 L134.3 -203.8 M134.45 -203.65 L134.45 -203.9 M136.45 -200.4 L135.95 -200.7 M138.65 -199.75 L138.55 -199.75 138.2 -199.8 Q137.15 -200.05 136.45 -200.4 M141.45 -199.6 Q143.3 -199.75 144.85 -200.5 146.85 -201.35 148.95 -203.0 M144.95 -187.85 L143.6 -188.0 143.45 -188.05 142.0 -188.55 Q140.2 -189.25 138.55 -190.65 L137.6 -191.5 M132.35 -190.9 L132.35 -190.7 Q131.95 -186.35 129.75 -183.4 L129.45 -183.05 127.0 -179.95 127.0 -179.8 126.15 -178.9 Q125.35 -178.05 124.4 -177.55 M131.7 -195.35 Q132.5 -193.75 132.4 -191.35 L132.35 -190.9 M133.75 -198.2 L132.65 -196.55 Q132.5 -196.4 132.5 -196.0 M131.7 -195.35 Q131.0 -196.8 130.0 -195.6 129.3 -194.6 129.35 -193.45 128.55 -190.65 127.35 -188.55 L126.6 -187.45 Q125.65 -186.05 124.15 -184.95 M127.35 -188.55 L125.6 -187.65 124.3 -187.0 M117.9 -184.5 L116.95 -184.25 Q118.05 -183.1 119.75 -183.2 M113.05 -191.6 L111.6 -190.6 111.25 -190.4 Q109.8 -189.5 107.75 -188.5 L107.65 -188.4 106.45 -187.9 104.35 -187.35 M116.95 -184.25 L116.5 -184.9 Q116.25 -184.6 116.25 -184.1 M100.1 -197.3 L100.0 -197.55 M209.25 -185.0 L209.1 -184.9 Q205.1 -182.75 203.15 -179.4 L202.95 -179.0 Q202.0 -177.55 201.0 -175.4 L200.85 -175.3 200.35 -174.05 199.95 -173.0 M206.9 -174.25 L206.8 -173.6 M206.9 -174.25 Q207.25 -176.45 208.35 -178.05 209.85 -180.7 212.9 -183.15 214.0 -183.65 214.7 -184.7 L214.95 -185.55 M199.8 -187.6 L200.75 -185.5 201.0 -184.9 201.35 -183.8 201.4 -183.65 201.55 -182.05 Q201.65 -180.2 201.1 -178.05 L201.0 -177.6 200.7 -176.8 M199.2 -188.7 L199.8 -187.6 M199.2 -188.7 L198.3 -190.1 M190.55 -168.6 L190.8 -168.7" fill="none" stroke="#000000" stroke-linecap="round" stroke-linejoin="round" stroke-width="2.0"/>
    <path d="M115.45 -214.7 L112.9 -214.2 Q112.05 -216.0 112.1 -217.6 112.0 -219.1 112.3 -217.6 111.85 -221.0 111.1 -221.9 L110.8 -222.25 Q110.55 -223.2 110.45 -224.05 L110.45 -224.65 111.05 -226.95 113.4 -226.95 115.15 -226.95 116.0 -227.0 124.3 -227.05 138.4 -227.1 M145.85 -227.15 L146.55 -227.15 146.75 -226.65 147.05 -225.9 147.35 -225.4 147.8 -224.25 147.85 -224.2 147.85 -224.0 147.9 -223.85 148.2 -222.75 146.8 -222.4 144.75 -221.65 M118.05 -215.2 L120.4 -215.5 120.75 -215.55 122.4 -215.85 127.15 -216.75 127.25 -216.75 135.75 -218.8 137.65 -219.35 M118.05 -215.2 L115.55 -214.75 115.45 -214.7" fill="none" stroke="#666666" stroke-linecap="round" stroke-linejoin="round" stroke-width="2.0"/>
  </g>
</svg>
