<?xml version="1.0" encoding="UTF-8" standalone="no"?>
<svg xmlns:ffdec="https://www.free-decompiler.com/flash" xmlns:xlink="http://www.w3.org/1999/xlink" ffdec:objectType="shape" height="16.75px" width="15.95px" xmlns="http://www.w3.org/2000/svg">
  <g transform="matrix(1.0, 0.0, 0.0, 1.0, 2.5, 2.5)">
    <path d="M3.75 1.7 L4.05 1.7 4.15 1.7 Q6.8 4.95 8.9 8.55 L8.95 8.75 9.0 9.0 9.05 9.25 9.3 9.45 Q10.35 10.0 10.8 9.1 L10.75 8.65 Q10.45 7.65 9.7 6.95 L9.65 6.7 9.6 6.45 8.4 4.45 Q7.2 2.05 5.25 0.7 L4.85 -0.1 Q3.3 -1.2 1.2 -0.6 L1.2 -0.55 0.8 -0.5 0.65 -0.45 0.4 -0.25 Q-0.05 0.15 0.05 0.8 L-0.1 0.7 -0.2 0.75 Q-0.55 0.85 -0.5 1.2 L-0.4 1.35 -0.1 1.65 -0.05 1.8 Q0.05 2.3 0.45 2.6 L0.45 2.75 0.55 3.1 0.95 3.35 1.35 3.0 1.3 2.85 0.7 1.75 0.5 1.6 0.5 1.45 0.5 1.4 0.65 1.45 3.3 1.7 3.5 1.9 3.75 1.7 M3.1 2.95 L2.9 2.8 2.45 2.4 2.35 2.45 2.1 2.75 2.2 2.9 2.8 4.0 3.2 3.95 3.4 3.6 3.3 3.45 3.1 2.95 M0.4 3.85 L0.2 3.75 -0.05 3.6 -0.15 3.65 -0.3 3.7 -0.35 3.75 -0.35 3.9 -0.15 4.35 0.35 4.2 0.45 4.0 0.4 3.85 M2.4 4.2 L2.35 4.25 2.3 4.35 2.2 4.75 2.85 4.75 2.95 4.55 2.9 4.35 2.85 4.25 2.65 4.1 2.4 4.2 M3.75 6.35 L3.85 6.0 3.55 5.7 3.2 5.7 2.85 5.7 2.75 5.75 2.6 5.8 2.55 5.85 2.6 6.15 2.75 6.45 3.65 6.35 3.45 6.4 3.4 6.55 Q3.45 7.0 3.85 7.4 L4.15 7.45 4.3 7.25 4.35 7.1 4.3 6.95 3.8 6.35 3.75 6.35 M8.05 7.7 L8.05 7.55 7.5 6.95 7.4 7.0 Q6.95 7.05 6.95 7.4 L7.05 7.55 7.4 8.0 Q7.95 8.1 8.05 7.7 M7.15 7.95 L6.9 7.85 6.6 8.0 6.55 8.05 6.55 8.2 Q6.55 9.1 7.05 9.85 L7.45 9.5 7.45 9.35 Q7.5 8.6 7.15 7.95 M10.35 13.4 L-1.65 4.7 -1.65 -1.6 5.95 -1.6 12.6 10.5 10.35 13.4" fill="#999999" fill-rule="evenodd" stroke="none"/>
    <path d="M0.05 0.8 Q-0.05 0.15 0.4 -0.25 L0.65 -0.45 0.8 -0.5 1.2 -0.55 1.2 -0.6 Q3.3 -1.2 4.85 -0.1 L5.25 0.7 Q7.2 2.05 8.4 4.45 L9.6 6.45 9.65 6.7 9.7 6.95 Q10.45 7.65 10.75 8.65 L10.8 9.1 Q10.35 10.0 9.3 9.45 L9.05 9.25 9.0 9.0 8.95 8.75 8.9 8.55 Q6.8 4.95 4.15 1.7 L4.05 1.7 3.75 1.7 3.9 1.55 3.85 1.4 3.7 1.05 3.5 0.95 3.4 1.0 3.15 1.25 3.2 1.45 3.3 1.7 0.65 1.45 0.5 1.4 0.45 1.1 0.25 0.95 0.05 0.8" fill="#cccccc" fill-rule="evenodd" stroke="none"/>
    <path d="M2.4 4.2 L2.65 4.1 2.85 4.25 2.9 4.35 2.95 4.55 2.85 4.75 2.2 4.75 2.3 4.35 2.35 4.25 2.4 4.2 M0.4 3.85 L0.45 4.0 0.35 4.2 -0.15 4.35 -0.35 3.9 -0.35 3.75 -0.3 3.7 -0.15 3.65 -0.05 3.6 0.2 3.75 0.4 3.85 M3.75 6.35 L3.8 6.35 4.3 6.95 4.35 7.1 4.3 7.25 4.15 7.45 3.85 7.4 Q3.45 7.0 3.4 6.55 L3.45 6.4 3.65 6.35 3.75 6.35 M7.15 7.95 Q7.5 8.6 7.45 9.35 L7.45 9.5 7.05 9.85 Q6.55 9.1 6.55 8.2 L6.55 8.05 6.6 8.0 6.9 7.85 7.15 7.95" fill="#838383" fill-rule="evenodd" stroke="none"/>
    <path d="M3.1 2.95 L3.3 3.45 3.4 3.6 3.2 3.95 2.8 4.0 2.2 2.9 2.1 2.75 2.35 2.45 2.45 2.4 2.9 2.8 3.1 2.95" fill="#9e9e9e" fill-rule="evenodd" stroke="none"/>
    <path d="M3.75 1.7 L3.5 1.9 3.3 1.7 3.2 1.45 3.15 1.25 3.4 1.0 3.5 0.95 3.7 1.05 3.85 1.4 3.9 1.55 3.75 1.7 M0.5 1.4 L0.5 1.45 0.5 1.6 0.7 1.75 1.3 2.85 1.35 3.0 0.95 3.35 0.55 3.1 0.45 2.75 0.45 2.6 Q0.05 2.3 -0.05 1.8 L-0.1 1.65 -0.4 1.35 -0.5 1.2 Q-0.55 0.85 -0.2 0.75 L-0.1 0.7 0.05 0.8 0.25 0.95 0.45 1.1 0.5 1.4 M3.65 6.35 L2.75 6.45 2.6 6.15 2.55 5.85 2.6 5.8 2.75 5.75 2.85 5.7 3.2 5.7 3.55 5.7 3.85 6.0 3.75 6.35 3.65 6.35 M8.05 7.7 Q7.95 8.1 7.4 8.0 L7.05 7.55 6.95 7.4 Q6.95 7.05 7.4 7.0 L7.5 6.95 8.05 7.55 8.05 7.7" fill="#b2b2b2" fill-rule="evenodd" stroke="none"/>
    <path d="M10.35 13.4 L-1.65 4.7 -1.65 -1.6 5.95 -1.6 12.6 10.5 10.35 13.4 Z" fill="none" stroke="#000000" stroke-linecap="round" stroke-linejoin="round" stroke-width="1.75"/>
    <path d="M7.85 1.7 L7.8 1.2 7.0 0.15 6.95 0.1 6.95 -0.05 6.4 -0.45 6.35 -0.45 6.25 -0.55 6.15 -0.6 4.45 -0.8 4.35 -0.8 3.8 -0.7 -0.65 -0.55 -0.75 -0.45 -0.85 -0.4 -0.8 -0.35 -0.85 -0.25 -0.8 -0.15 -0.75 -0.1 -0.75 -0.05 -0.75 0.0 -0.8 0.1 -0.7 0.15 -0.15 0.15 1.3 0.0 5.25 -0.05 5.3 0.0 5.9 0.15 6.2 0.35 7.0 0.95 7.3 1.3 7.45 1.7 6.3 1.7 Q5.95 1.35 5.5 1.55 L5.3 1.4 5.15 1.45 5.0 1.65 4.9 1.65 4.8 1.6 4.8 1.55 Q4.65 1.3 4.35 1.25 L4.35 1.15 4.1 1.05 4.0 1.05 3.9 1.1 3.9 1.2 3.9 1.25 3.95 1.35 4.45 1.75 4.35 1.9 4.35 1.95 5.5 2.15 6.05 2.2 6.1 2.3 6.25 2.35 6.35 2.35 6.45 2.25 6.45 2.2 6.75 2.2 Q7.55 2.35 8.0 1.85 L8.0 1.8 7.85 1.7 M9.05 0.6 L8.85 2.55 4.2 2.65 2.75 0.95 -1.65 1.3 -1.15 -1.3 -0.9 -1.25 6.1 -1.9 9.05 0.4 9.05 0.6" fill="#999999" fill-rule="evenodd" stroke="none"/>
    <path d="M7.45 1.7 L7.3 1.3 7.0 0.95 6.2 0.35 5.9 0.15 5.3 0.0 5.25 -0.05 1.3 0.0 -0.15 0.15 -0.7 0.15 -0.8 0.1 -0.75 0.0 -0.75 -0.05 -0.75 -0.1 -0.8 -0.15 -0.85 -0.25 -0.8 -0.35 -0.85 -0.4 -0.75 -0.45 -0.65 -0.55 3.8 -0.7 4.35 -0.8 4.45 -0.8 6.15 -0.6 6.25 -0.55 6.35 -0.45 6.4 -0.45 6.95 -0.05 6.95 0.1 7.0 0.15 7.8 1.2 7.85 1.7 7.75 1.7 7.45 1.7" fill="#cccccc" fill-rule="evenodd" stroke="none"/>
    <path d="M7.85 1.7 L8.0 1.8 8.0 1.85 Q7.55 2.35 6.75 2.2 L6.45 2.2 6.45 2.25 6.35 2.35 6.25 2.35 6.1 2.3 6.05 2.2 5.5 2.15 4.35 1.95 4.35 1.9 4.45 1.75 3.95 1.35 3.9 1.25 3.9 1.2 3.9 1.1 4.0 1.05 4.1 1.05 4.35 1.15 4.35 1.25 Q4.65 1.3 4.8 1.55 L4.8 1.6 4.9 1.65 5.0 1.65 5.15 1.45 5.3 1.4 5.5 1.55 Q5.95 1.35 6.3 1.7 L7.45 1.7 7.75 1.7 7.85 1.7" fill="#838383" fill-rule="evenodd" stroke="none"/>
    <path d="M-1.15 -1.3 L-1.65 1.3 2.75 0.95 4.2 2.65 8.85 2.55 9.05 0.6 M9.05 0.4 L6.1 -1.9 -0.9 -1.25" fill="none" stroke="#000000" stroke-linecap="round" stroke-linejoin="round" stroke-width="1.25"/>
  </g>
</svg>
