<?xml version="1.0" encoding="UTF-8" standalone="no"?>
<svg xmlns:ffdec="https://www.free-decompiler.com/flash" xmlns:xlink="http://www.w3.org/1999/xlink" ffdec:objectType="shape" height="24.4px" width="25.15px" xmlns="http://www.w3.org/2000/svg">
  <g transform="matrix(1.0, 0.0, 0.0, 1.0, 2.45, 9.3)">
    <path d="M1.6 -0.7 L1.7 -0.45 1.75 -0.25 3.5 -0.45 3.25 0.2 3.4 0.3 3.35 0.35 3.35 0.45 3.35 0.6 3.6 0.65 7.95 -0.3 Q9.5 -0.3 11.15 -1.2 11.7 -0.8 12.45 -1.35 L12.5 -1.5 12.6 -1.75 12.55 -1.85 12.05 -2.1 11.55 -2.0 11.4 -2.0 8.45 -1.35 8.3 -1.35 7.8 -1.25 7.45 -1.2 7.45 -1.15 4.9 -0.75 4.95 -1.05 4.9 -1.15 Q4.75 -1.4 4.45 -1.4 L4.45 -1.35 4.4 -1.3 4.4 -1.4 4.25 -1.5 3.9 -1.6 Q5.95 -3.0 7.4 -4.95 L7.35 -5.05 6.7 -5.3 6.7 -5.25 3.0 -1.95 Q2.2 -1.4 1.6 -0.7 M-1.5 -0.95 L-1.5 -1.1 3.6 -4.5 11.8 -8.45 4.95 -1.4 19.6 -3.95 7.3 1.5 21.85 2.15 11.35 4.2 7.65 4.9 -1.5 -0.95 7.65 4.9 11.35 4.2 11.8 4.5 11.7 4.5 Q9.6 4.65 7.55 5.3 L7.4 4.95 7.35 4.85 Q6.15 4.1 4.9 3.6 L4.9 3.65 4.85 3.7 0.65 0.7 0.55 0.5 0.5 0.35 0.4 0.3 0.05 0.15 -0.1 0.25 -0.25 0.4 -0.25 0.65 0.0 1.5 3.85 3.95 3.9 4.05 4.05 4.25 4.25 4.35 6.15 5.8 Q6.55 6.45 7.3 6.6 L7.45 6.45 7.6 6.15 7.6 6.1 11.2 5.25 11.35 5.25 11.75 5.2 12.0 4.95 12.05 4.7 14.25 6.4 14.25 13.0 9.3 14.25 9.15 10.5 -0.45 2.95 -1.5 -0.95 M14.4 2.9 L14.55 2.65 14.55 2.55 14.5 2.45 12.8 2.4 9.0 2.3 8.05 2.2 8.05 2.1 8.05 1.95 7.9 1.85 7.4 1.75 6.45 2.4 6.45 2.5 6.5 2.75 Q7.45 3.3 8.55 3.05 L9.85 3.0 9.9 3.05 10.3 3.1 12.2 2.95 12.25 3.05 12.35 3.15 14.4 2.9 M12.95 6.2 L12.85 6.25 12.65 6.55 12.5 7.5 12.45 8.2 12.3 8.25 Q12.05 8.15 11.65 8.4 L11.55 8.45 11.45 8.45 11.35 8.7 11.4 10.55 10.7 10.7 10.65 10.7 10.4 10.7 Q10.15 10.8 10.05 11.05 9.8 11.15 9.75 11.4 L9.8 11.65 10.05 12.6 10.0 12.9 Q10.05 13.25 10.45 13.35 L10.6 13.35 11.25 13.4 11.35 13.3 Q11.95 12.5 11.7 11.5 L11.75 11.4 11.9 11.35 12.25 11.2 Q12.75 10.95 12.65 10.35 L12.55 9.05 12.7 9.0 13.4 8.95 Q14.0 8.85 13.9 8.3 L13.8 8.2 13.5 8.2 13.7 7.65 13.6 7.0 Q13.6 6.3 12.95 6.2" fill="#666666" fill-rule="evenodd" stroke="none"/>
    <path d="M1.6 -0.7 Q2.2 -1.4 3.0 -1.95 L6.7 -5.25 6.7 -5.3 7.35 -5.05 7.4 -4.95 Q5.95 -3.0 3.9 -1.6 L4.25 -1.5 4.4 -1.4 4.4 -1.3 4.45 -1.35 4.45 -1.4 Q4.75 -1.4 4.9 -1.15 L4.95 -1.05 4.9 -0.75 7.45 -1.15 7.45 -1.2 7.8 -1.25 8.3 -1.35 8.45 -1.35 11.4 -2.0 11.55 -2.0 12.05 -2.1 12.55 -1.85 12.6 -1.75 12.5 -1.5 12.45 -1.35 Q11.7 -0.8 11.15 -1.2 9.5 -0.3 7.95 -0.3 L3.6 0.65 3.35 0.6 3.35 0.45 3.35 0.35 3.4 0.3 3.25 0.2 3.5 -0.45 1.75 -0.25 1.7 -0.45 1.6 -0.7 M11.8 4.5 L12.05 4.7 12.0 4.95 11.75 5.2 11.35 5.25 11.2 5.25 7.6 6.1 7.6 6.15 7.45 6.45 7.3 6.6 Q6.55 6.45 6.15 5.8 L4.25 4.35 4.05 4.25 3.9 4.05 3.85 3.95 0.0 1.5 -0.25 0.65 -0.25 0.4 -0.1 0.25 0.05 0.15 0.4 0.3 0.5 0.35 0.55 0.5 0.65 0.7 4.85 3.7 4.9 3.65 4.9 3.6 Q6.15 4.1 7.35 4.85 L7.4 4.95 7.55 5.3 Q9.6 4.65 11.7 4.5 L11.8 4.5 M14.4 2.9 L12.35 3.15 12.25 3.05 12.2 2.95 10.3 3.1 9.9 3.05 9.85 3.0 8.55 3.05 Q7.45 3.3 6.5 2.75 L6.45 2.5 6.45 2.4 7.4 1.75 7.9 1.85 8.05 1.95 8.05 2.1 8.05 2.2 9.0 2.3 12.8 2.4 14.5 2.45 14.55 2.55 14.55 2.65 14.4 2.9" fill="#333333" fill-rule="evenodd" stroke="none"/>
    <path d="M12.95 6.2 Q13.6 6.3 13.6 7.0 L13.7 7.65 13.5 8.2 13.8 8.2 13.9 8.3 Q14.0 8.85 13.4 8.95 L12.7 9.0 12.55 9.05 12.65 10.35 Q12.75 10.95 12.25 11.2 L11.9 11.35 11.75 11.4 11.7 11.5 Q11.95 12.5 11.35 13.3 L11.25 13.4 10.6 13.35 10.45 13.35 Q10.05 13.25 10.0 12.9 L10.05 12.6 9.8 11.65 9.75 11.4 Q9.8 11.15 10.05 11.05 10.15 10.8 10.4 10.7 L10.65 10.7 10.7 10.7 11.4 10.55 11.35 8.7 11.45 8.45 11.55 8.45 11.65 8.4 Q12.05 8.15 12.3 8.25 L12.45 8.2 12.5 7.5 12.65 6.55 12.85 6.25 12.95 6.2" fill="#66ff00" fill-rule="evenodd" stroke="none"/>
    <path d="M11.35 4.2 L21.85 2.15 7.3 1.5 19.6 -3.95 4.95 -1.4 11.8 -8.45 3.6 -4.5 -1.5 -1.1 -1.5 -0.95 -1.6 -1.05 -1.5 -1.1 M11.35 4.2 L11.8 4.5 12.05 4.7 14.25 6.4 14.25 13.0 9.3 14.25 9.15 10.5 -0.45 2.95 -1.5 -0.95" fill="none" stroke="#000000" stroke-linecap="round" stroke-linejoin="round" stroke-width="1.75"/>
    <path d="M-1.5 -0.95 L7.65 4.9 11.35 4.2" fill="none" stroke="#000000" stroke-linecap="round" stroke-linejoin="round" stroke-width="1.0"/>
  </g>
</svg>
