<?xml version="1.0" encoding="UTF-8" standalone="no"?>
<svg xmlns:ffdec="https://www.free-decompiler.com/flash" xmlns:xlink="http://www.w3.org/1999/xlink" ffdec:objectType="shape" height="25.4px" width="20.0px" xmlns="http://www.w3.org/2000/svg">
  <g transform="matrix(1.0, 0.0, 0.0, 1.0, 2.45, 10.3)">
    <path d="M7.2 -8.35 L6.9 -8.3 Q6.25 -8.1 6.0 -7.45 L6.15 -6.85 6.55 -5.55 7.0 -5.4 7.1 -5.5 7.2 -5.6 7.25 -5.9 7.2 -6.15 7.25 -6.4 7.15 -7.15 7.25 -7.3 7.4 -4.95 4.95 -1.4 12.55 -4.3 12.35 -4.2 Q11.5 -2.8 10.25 -1.85 L9.35 -1.5 Q7.5 -1.35 7.0 0.1 L7.65 0.2 8.4 -0.05 Q9.9 -0.5 11.1 -1.35 L11.15 -1.2 12.05 -1.1 7.3 1.5 11.5 1.0 8.7 1.7 8.55 1.75 8.45 1.9 8.4 2.05 8.4 2.15 8.45 2.25 Q8.7 2.6 9.2 2.5 L12.15 1.8 12.35 1.8 Q13.85 1.75 15.25 1.15 L15.35 1.0 15.4 0.85 15.4 0.75 15.3 0.55 16.7 1.15 14.4 2.9 13.8 3.15 11.35 4.2 7.65 4.9 -1.5 -0.95 7.65 4.9 11.35 4.2 11.8 4.5 11.7 4.5 Q9.6 4.65 7.55 5.3 L7.4 4.95 7.35 4.85 Q6.15 4.1 4.9 3.6 L4.9 3.65 4.85 3.7 0.65 0.7 0.55 0.5 0.5 0.35 0.4 0.3 0.05 0.15 -0.1 0.25 -0.25 0.4 -0.25 0.65 0.0 1.5 3.85 3.95 3.9 4.05 4.05 4.25 4.25 4.35 6.15 5.8 Q6.55 6.45 7.3 6.6 L7.45 6.45 7.6 6.15 7.6 6.1 11.2 5.25 11.35 5.25 11.75 5.2 12.0 4.95 12.05 4.7 14.25 6.4 14.25 13.0 9.3 14.25 9.15 10.5 Q1.7 7.65 -0.45 2.95 L-1.5 -0.95 -1.5 -1.1 6.65 -9.45 7.2 -8.35 M7.4 -4.95 L7.35 -5.05 6.7 -5.3 6.7 -5.25 3.35 -2.2 3.9 -1.6 Q5.85 -2.95 7.25 -4.75 L7.4 -4.95 M12.75 -4.4 L14.45 -4.95 12.5 -1.4 12.5 -1.5 12.6 -1.75 12.55 -1.85 12.4 -2.0 Q13.3 -2.8 13.6 -4.1 L13.5 -4.2 13.05 -4.3 12.75 -4.4 M10.7 11.95 L10.75 12.2 Q10.9 12.45 11.25 12.45 L13.85 11.95 13.9 11.8 13.9 11.65 13.85 11.4 13.75 11.35 11.0 11.6 11.0 11.65 10.85 11.7 10.75 11.8 10.7 11.95 M13.5 9.25 L13.25 9.25 Q12.4 9.25 11.55 9.6 11.0 9.6 10.8 10.1 L10.8 10.35 12.8 10.15 13.35 10.15 13.5 10.1 13.6 10.0 13.65 9.85 13.6 9.5 13.55 9.4 13.5 9.25 M13.9 7.7 L13.85 7.6 13.7 7.5 11.05 7.8 11.05 7.85 10.9 7.9 10.8 8.0 10.7 8.2 10.7 8.3 10.75 8.4 Q12.35 8.8 13.9 8.1 L13.9 7.95 13.9 7.8 13.9 7.7" fill="#666666" fill-rule="evenodd" stroke="none"/>
    <path d="M13.9 7.7 L13.9 7.8 13.9 7.95 13.9 8.1 Q12.35 8.8 10.75 8.4 L10.7 8.3 10.7 8.2 10.8 8.0 10.9 7.9 11.05 7.85 11.05 7.8 13.7 7.5 13.85 7.6 13.9 7.7 M13.5 9.25 L13.55 9.4 13.6 9.5 13.65 9.85 13.6 10.0 13.5 10.1 13.35 10.15 12.8 10.15 10.8 10.35 10.8 10.1 Q11.0 9.6 11.55 9.6 12.4 9.25 13.25 9.25 L13.5 9.25 M10.7 11.95 L10.75 11.8 10.85 11.7 11.0 11.65 11.0 11.6 13.75 11.35 13.85 11.4 13.9 11.65 13.9 11.8 13.85 11.95 11.25 12.45 Q10.9 12.45 10.75 12.2 L10.7 11.95" fill="#66ff00" fill-rule="evenodd" stroke="none"/>
    <path d="M7.25 -7.3 L7.15 -7.15 7.25 -6.4 7.2 -6.15 7.25 -5.9 7.2 -5.6 7.1 -5.5 7.0 -5.4 6.55 -5.55 6.15 -6.85 6.0 -7.45 Q6.25 -8.1 6.9 -8.3 L7.2 -8.35 7.25 -7.3 7.2 -8.35 Q7.4 -8.35 7.55 -8.15 L7.6 -8.05 7.25 -7.3 M13.8 3.15 L14.4 2.9 13.8 3.15 M15.3 0.55 L15.4 0.75 15.4 0.85 15.35 1.0 15.25 1.15 Q13.85 1.75 12.35 1.8 L12.15 1.8 9.2 2.5 Q8.7 2.6 8.45 2.25 L8.4 2.15 8.4 2.05 8.45 1.9 8.55 1.75 8.7 1.7 11.5 1.0 14.6 0.35 Q15.05 0.25 15.3 0.55 L11.5 1.0 15.3 0.55 M12.05 -1.1 L11.15 -1.2 11.1 -1.35 Q9.9 -0.5 8.4 -0.05 L7.65 0.2 7.0 0.1 Q7.5 -1.35 9.35 -1.5 L10.25 -1.85 Q11.5 -2.8 12.35 -4.2 L12.55 -4.3 12.75 -4.4 12.55 -4.3 12.55 -4.35 12.75 -4.4 13.05 -4.3 13.5 -4.2 13.6 -4.1 Q13.3 -2.8 12.4 -2.0 L12.55 -1.85 12.6 -1.75 12.5 -1.5 12.5 -1.4 12.45 -1.35 12.05 -1.1 12.45 -1.35 12.05 -1.1 M7.4 -4.95 L7.25 -4.75 Q5.85 -2.95 3.9 -1.6 L3.35 -2.2 6.7 -5.25 6.7 -5.3 7.35 -5.05 7.4 -4.95 M11.8 4.5 L12.05 4.7 12.0 4.95 11.75 5.2 11.35 5.25 11.2 5.25 7.6 6.1 7.6 6.15 7.45 6.45 7.3 6.6 Q6.55 6.45 6.15 5.8 L4.25 4.35 4.05 4.25 3.9 4.05 3.85 3.95 0.0 1.5 -0.25 0.65 -0.25 0.4 -0.1 0.25 0.05 0.15 0.4 0.3 0.5 0.35 0.55 0.5 0.65 0.7 4.85 3.7 4.9 3.65 4.9 3.6 Q6.15 4.1 7.35 4.85 L7.4 4.95 7.55 5.3 Q9.6 4.65 11.7 4.5 L11.8 4.5" fill="#333333" fill-rule="evenodd" stroke="none"/>
    <path d="M7.25 -7.3 L7.2 -8.35 6.65 -9.45 -1.5 -1.1 -1.5 -0.95 -1.6 -1.05 -1.5 -1.1 M11.35 4.2 L13.8 3.15 14.4 2.9 16.7 1.15 15.3 0.55 11.5 1.0 7.3 1.5 12.05 -1.1 12.45 -1.35 12.5 -1.4 14.45 -4.95 12.75 -4.4 12.55 -4.3 4.95 -1.4 7.4 -4.95 7.25 -7.3 M11.35 4.2 L11.8 4.5 12.05 4.7 14.25 6.4 14.25 13.0 9.3 14.25 9.15 10.5 Q1.7 7.65 -0.45 2.95 L-1.5 -0.95" fill="none" stroke="#000000" stroke-linecap="round" stroke-linejoin="round" stroke-width="1.75"/>
    <path d="M-1.5 -0.95 L7.65 4.9 11.35 4.2" fill="none" stroke="#000000" stroke-linecap="round" stroke-linejoin="round" stroke-width="1.0"/>
  </g>
</svg>
