<?xml version="1.0" encoding="UTF-8" standalone="no"?>
<svg xmlns:ffdec="https://www.free-decompiler.com/flash" xmlns:xlink="http://www.w3.org/1999/xlink" ffdec:objectType="shape" height="24.1px" width="17.6px" xmlns="http://www.w3.org/2000/svg">
  <g transform="matrix(1.0, 0.0, 0.0, 1.0, 2.45, 8.35)">
    <path d="M2.8 -3.2 L2.8 -3.25 2.8 -4.2 2.75 -4.3 2.55 -4.4 2.25 -4.1 2.3 -3.95 2.4 -2.7 2.35 -2.6 2.3 -2.45 2.35 -2.25 2.65 -1.15 Q2.75 -1.0 2.9 -1.05 L3.0 -1.1 3.05 -1.2 3.05 -1.4 Q2.75 -2.3 2.8 -3.2 M3.75 -1.45 L5.7 -0.05 5.35 0.2 5.3 0.2 7.3 1.5 12.15 -1.95 14.3 2.9 13.7 3.15 11.25 4.2 7.65 4.9 -1.5 -0.95 7.65 4.9 11.25 4.2 14.25 6.4 9.9 14.9 8.6 9.75 3.25 7.85 -0.45 2.95 -1.5 -0.95 -1.5 -1.1 -0.45 -7.5 1.0 -3.1 3.4 -6.9 3.75 -1.45 M3.35 -1.25 L5.35 0.2 3.35 -1.25 M11.95 1.8 L12.2 2.4 9.4 3.45 9.2 3.5 8.95 3.55 8.9 3.6 Q8.4 3.75 8.3 4.2 L8.55 4.3 9.15 4.05 9.3 4.1 Q10.3 4.15 11.05 3.45 L11.05 3.4 11.05 3.3 12.0 2.95 12.35 2.85 12.55 2.95 12.6 2.85 12.7 2.75 Q12.6 3.3 13.05 3.4 L13.15 3.35 13.2 3.2 13.15 2.95 12.6 0.25 12.2 0.05 12.15 -0.05 11.85 -0.8 11.85 -0.95 11.8 -1.15 11.75 -1.15 11.55 -1.25 11.45 -1.15 11.4 -1.0 11.4 -0.9 11.5 -0.25 11.45 -0.15 11.5 0.05 11.55 0.2 11.0 0.0 10.8 0.1 Q10.5 0.5 10.8 0.95 L10.95 1.25 11.4 1.9 11.75 1.9 11.95 1.8 M10.5 2.6 L10.75 2.25 10.6 1.4 Q10.4 0.75 9.85 0.65 L9.75 0.7 9.7 0.75 9.6 0.95 Q9.6 1.75 9.95 2.45 L10.5 2.6 M10.7 4.4 L10.5 4.5 9.5 4.6 9.4 4.65 9.35 4.7 9.3 4.8 9.35 4.85 9.4 4.95 9.45 5.05 9.2 5.05 9.15 5.05 9.05 5.0 9.0 5.05 8.6 4.85 8.4 5.05 8.4 5.15 8.6 5.4 8.95 5.5 9.15 5.7 9.35 5.85 9.45 6.45 9.8 7.1 9.85 7.2 9.9 7.35 9.95 7.5 10.0 7.55 10.1 7.6 10.15 7.65 10.2 7.7 10.3 7.8 10.5 7.9 10.55 7.85 10.6 7.8 10.4 6.85 9.9 5.35 10.05 5.2 10.2 5.15 10.3 5.15 10.45 5.35 10.55 5.45 11.3 6.0 11.35 6.05 11.75 6.35 11.75 6.45 11.85 6.5 11.9 6.55 11.95 6.65 12.0 6.7 12.75 7.05 12.85 7.0 12.9 7.0 13.1 7.05 13.2 7.05 13.2 7.0 13.25 6.8 13.25 6.65 13.3 6.6 13.35 6.4 13.25 6.3 13.05 6.1 12.95 6.05 10.7 4.4 M5.85 4.65 L5.85 4.85 5.8 4.75 5.8 4.65 5.85 4.55 5.85 4.65 M5.4 4.15 L5.35 4.15 5.4 4.15 M5.1 3.45 L5.1 3.4 5.05 3.3 5.0 3.3 4.85 3.2 4.45 2.95 3.9 2.5 3.3 2.55 3.1 2.35 3.1 2.25 3.05 2.2 3.0 2.15 2.8 2.05 2.8 2.1 2.7 2.15 2.65 2.2 2.65 2.35 1.6 1.35 1.55 1.25 1.5 1.05 1.4 1.0 1.25 0.95 1.2 1.0 1.2 0.9 1.0 0.7 0.55 0.55 0.55 0.5 0.5 0.35 0.4 0.3 0.55 0.55 0.45 0.6 0.3 0.55 0.2 0.6 0.15 0.7 -0.1 0.6 -0.2 0.65 -0.2 0.7 -0.25 0.75 -0.25 0.9 -0.2 1.0 -0.1 1.05 -0.05 1.1 -0.05 1.2 0.0 1.3 0.4 1.55 0.4 1.6 0.45 1.7 0.5 1.75 0.55 1.75 0.65 1.95 1.75 3.45 2.15 3.35 2.2 3.1 1.75 2.1 3.65 3.8 5.3 4.95 5.3 4.9 5.5 4.95 5.6 5.0 5.8 5.35 6.1 5.45 6.05 5.3 6.3 4.4 6.25 4.3 6.2 4.2 Q5.6 3.9 5.1 3.45 M8.45 1.9 L8.7 1.75 8.55 1.75 8.45 1.9" fill="#666666" fill-rule="evenodd" stroke="none"/>
    <path d="M11.95 1.8 L11.75 1.9 11.4 1.9 10.95 1.25 10.8 0.95 Q10.5 0.5 10.8 0.1 L11.0 0.0 11.55 0.2 11.8 0.95 11.8 1.0 Q12.25 1.45 11.95 1.8 M10.5 2.6 L9.95 2.45 Q9.6 1.75 9.6 0.95 L9.7 0.75 9.75 0.7 9.85 0.65 Q10.4 0.75 10.6 1.4 L10.75 2.25 10.5 2.6" fill="#66ff00" fill-rule="evenodd" stroke="none"/>
    <path d="M2.8 -3.2 Q2.75 -2.3 3.05 -1.4 L3.05 -1.2 3.0 -1.1 2.9 -1.05 Q2.75 -1.0 2.65 -1.15 L2.35 -2.25 2.3 -2.45 2.35 -2.6 2.4 -2.7 2.3 -3.95 2.25 -4.1 2.55 -4.4 2.75 -4.3 2.8 -4.2 2.8 -3.25 2.8 -3.2 M11.55 0.2 L11.5 0.05 11.45 -0.15 11.5 -0.25 11.4 -0.9 11.4 -1.0 11.45 -1.15 11.55 -1.25 11.75 -1.15 11.8 -1.15 11.85 -0.95 11.85 -0.8 12.15 -0.05 12.2 0.05 12.6 0.25 13.15 2.95 13.2 3.2 13.15 3.35 13.05 3.4 Q12.6 3.3 12.7 2.75 L12.6 2.85 12.55 2.95 12.35 2.85 12.0 2.95 11.05 3.3 11.05 3.4 11.05 3.45 Q10.3 4.15 9.3 4.1 L9.15 4.05 8.55 4.3 8.3 4.2 Q8.4 3.75 8.9 3.6 L8.95 3.55 9.2 3.5 9.4 3.45 12.2 2.4 11.95 1.8 Q12.25 1.45 11.8 1.0 L11.8 0.95 11.55 0.2 M10.7 4.4 L12.95 6.05 13.05 6.1 13.25 6.3 13.35 6.4 13.3 6.6 13.25 6.65 13.25 6.8 13.2 7.0 13.2 7.05 13.1 7.05 12.9 7.0 12.85 7.0 12.75 7.05 12.0 6.7 11.95 6.65 11.9 6.55 11.85 6.5 11.75 6.45 11.75 6.35 11.35 6.05 11.3 6.0 10.55 5.45 10.45 5.35 10.3 5.15 10.2 5.15 10.05 5.2 9.9 5.35 10.4 6.85 10.6 7.8 10.55 7.85 10.5 7.9 10.3 7.8 10.2 7.7 10.15 7.65 10.1 7.6 10.0 7.55 9.95 7.5 9.9 7.35 9.85 7.2 9.8 7.1 9.45 6.45 9.35 5.85 9.15 5.7 8.95 5.5 8.6 5.4 8.4 5.15 8.4 5.05 8.6 4.85 9.0 5.05 9.05 5.0 9.15 5.05 9.2 5.05 9.45 5.05 9.4 4.95 9.35 4.85 9.3 4.8 9.35 4.7 9.4 4.65 9.5 4.6 10.5 4.5 10.7 4.4 M8.45 1.9 L8.55 1.75 8.7 1.75 8.45 1.9 M5.1 3.45 Q5.6 3.9 6.2 4.2 L6.25 4.3 6.3 4.4 6.05 5.3 6.1 5.45 5.8 5.35 5.6 5.0 5.5 4.95 5.3 4.9 5.3 4.95 3.65 3.8 1.75 2.1 2.2 3.1 2.15 3.35 1.75 3.45 0.65 1.95 0.55 1.75 0.5 1.75 0.45 1.7 0.4 1.6 0.4 1.55 0.0 1.3 -0.05 1.2 -0.05 1.1 -0.1 1.05 -0.2 1.0 -0.25 0.9 -0.25 0.75 -0.2 0.7 -0.2 0.65 -0.1 0.6 0.15 0.7 0.2 0.6 0.3 0.55 0.45 0.6 0.55 0.55 0.4 0.3 0.5 0.35 0.55 0.5 0.55 0.55 1.0 0.7 1.2 0.9 1.2 1.0 1.25 0.95 1.4 1.0 1.5 1.05 1.55 1.25 1.6 1.35 2.65 2.35 2.65 2.2 2.7 2.15 2.8 2.1 2.8 2.05 3.0 2.15 3.05 2.2 3.1 2.25 3.1 2.35 3.3 2.55 3.9 2.5 4.45 2.95 4.85 3.2 5.0 3.3 5.05 3.3 5.1 3.4 5.1 3.45 M5.4 4.15 L5.35 4.15 5.4 4.15 M5.85 4.65 L5.85 4.55 5.8 4.65 5.8 4.75 5.85 4.85 5.85 4.65" fill="#333333" fill-rule="evenodd" stroke="none"/>
    <path d="M3.75 -1.45 L3.4 -6.9 1.0 -3.1 -0.45 -7.5 -1.5 -1.1 -1.5 -0.95 -0.45 2.95 3.25 7.85 8.6 9.75 9.9 14.9 14.25 6.4 11.25 4.2 13.7 3.15 M14.3 2.9 L12.15 -1.95 7.3 1.5 5.3 0.2 M5.35 0.2 L3.35 -1.25 M-1.5 -1.1 L-1.6 -1.05 -1.5 -0.95" fill="none" stroke="#000000" stroke-linecap="round" stroke-linejoin="round" stroke-width="1.75"/>
    <path d="M-1.5 -0.95 L7.65 4.9 11.25 4.2" fill="none" stroke="#000000" stroke-linecap="round" stroke-linejoin="round" stroke-width="1.0"/>
  </g>
</svg>
