<?xml version="1.0" encoding="UTF-8" standalone="no"?>
<svg xmlns:ffdec="https://www.free-decompiler.com/flash" xmlns:xlink="http://www.w3.org/1999/xlink" ffdec:objectType="shape" height="19.45px" width="18.9px" xmlns="http://www.w3.org/2000/svg">
  <g transform="matrix(1.0, 0.0, 0.0, 1.0, 3.3, 5.05)">
    <path d="M2.15 -3.4 L2.15 -3.35 2.2 -3.15 2.3 -2.9 Q2.8 -2.55 3.35 -2.4 L3.45 -2.5 3.55 -2.8 3.45 -2.95 3.45 -3.05 3.3 -3.1 2.4 -3.65 2.4 -3.6 2.2 -3.55 2.15 -3.4 M5.25 -2.45 Q2.6 -2.3 1.05 -0.35 L2.15 0.6 3.35 1.7 4.6 2.85 5.85 3.95 Q7.4 1.95 10.05 1.95 L10.45 2.35 Q12.65 4.85 14.2 7.6 L13.8 7.8 13.7 7.75 13.65 7.75 13.65 7.65 13.2 6.1 13.1 6.05 12.85 5.95 12.7 6.05 12.65 6.15 12.65 6.25 12.7 6.4 12.8 6.7 12.2 5.5 12.15 5.45 11.9 5.15 11.85 5.0 11.8 4.8 11.75 4.75 11.5 4.55 11.45 4.45 11.1 4.25 10.95 4.35 10.9 4.45 10.85 4.55 10.9 4.7 10.95 4.85 11.05 5.0 11.15 5.15 11.25 5.25 11.3 5.3 11.35 5.45 11.45 5.65 11.5 5.7 11.75 6.05 11.85 6.4 11.95 6.5 12.15 6.7 12.2 6.85 12.4 7.6 12.35 7.7 12.35 7.8 12.35 7.9 12.25 8.0 12.2 8.2 12.2 8.3 12.2 8.35 12.15 8.45 11.9 8.95 11.85 9.0 10.0 8.8 9.85 8.65 Q9.05 8.15 8.2 7.8 L7.45 7.45 6.3 7.0 6.25 6.9 6.2 6.8 6.05 6.75 5.6 6.65 5.55 6.6 Q4.95 6.2 4.35 5.95 L4.25 5.85 3.0 5.3 1.95 4.5 0.15 3.35 0.1 3.3 -1.05 2.7 -1.1 2.65 Q-1.35 2.45 -1.7 2.4 L-1.8 2.45 -1.9 2.55 -1.95 2.75 -2.5 2.7 Q-2.5 -2.5 2.7 -4.3 L5.25 -2.45" fill="#ffffff" fill-rule="evenodd" stroke="none"/>
    <path d="M2.15 -3.4 L2.2 -3.55 2.4 -3.6 2.4 -3.65 3.3 -3.1 3.45 -3.05 3.45 -2.95 3.55 -2.8 3.45 -2.5 3.35 -2.4 Q2.8 -2.55 2.3 -2.9 L2.2 -3.15 2.15 -3.35 2.15 -3.4 M-2.5 2.7 L-1.95 2.75 -1.9 2.55 -1.8 2.45 -1.7 2.4 Q-1.35 2.45 -1.1 2.65 L-1.05 2.7 0.1 3.3 0.15 3.35 1.95 4.5 3.0 5.3 4.25 5.85 4.35 5.95 Q4.95 6.2 5.55 6.6 L5.6 6.65 6.05 6.75 6.2 6.8 6.25 6.9 6.3 7.0 7.45 7.45 8.2 7.8 Q9.05 8.15 9.85 8.65 L10.0 8.8 11.85 9.0 11.9 8.95 12.15 8.45 12.2 8.35 12.2 8.3 12.2 8.2 12.25 8.0 12.35 7.9 12.35 7.8 12.35 7.7 12.4 7.6 12.2 6.85 12.15 6.7 11.95 6.5 11.85 6.4 11.75 6.05 11.5 5.7 11.45 5.65 11.35 5.45 11.3 5.3 11.25 5.25 11.15 5.15 11.05 5.0 10.95 4.85 10.9 4.7 10.85 4.55 10.9 4.45 10.95 4.35 11.1 4.25 11.45 4.45 11.5 4.55 11.75 4.75 11.8 4.8 11.85 5.0 11.9 5.15 12.15 5.45 12.2 5.5 12.8 6.7 12.7 6.4 12.65 6.25 12.65 6.15 12.7 6.05 12.85 5.95 13.1 6.05 13.2 6.1 13.65 7.65 13.65 7.75 13.7 7.75 13.8 7.8 14.2 7.6 14.85 8.8 11.0 13.65 Q9.95 11.05 8.95 10.25 8.1 9.55 5.0 8.6 2.7 7.85 -2.5 3.45 L-2.5 2.7" fill="#e0e0e0" fill-rule="evenodd" stroke="none"/>
    <path d="M4.05 -0.05 L3.7 -0.15 Q3.15 0.0 2.9 0.5 L2.95 0.65 3.0 0.75 Q3.65 0.85 4.15 0.25 L4.15 0.1 4.1 0.0 4.05 -0.05 M4.9 -0.9 Q4.55 -0.85 4.65 -0.45 4.8 -0.25 5.15 -0.25 L5.25 -0.4 5.3 -0.45 5.3 -0.6 5.3 -0.7 5.25 -0.8 4.9 -0.95 4.9 -0.9 M4.05 -1.75 L3.95 -1.85 3.7 -1.9 3.55 -1.8 3.5 -1.7 Q3.45 -1.5 3.55 -1.3 L3.85 -1.2 3.95 -1.3 4.05 -1.75 M2.15 -0.05 L2.25 -0.15 2.35 -0.2 Q2.9 -0.3 3.25 -0.7 L3.25 -0.85 3.2 -0.95 3.15 -1.0 2.8 -1.1 Q2.2 -0.95 1.75 -0.45 L1.8 -0.4 1.85 -0.25 1.85 -0.15 2.0 -0.1 2.15 -0.05 M10.05 1.95 Q7.4 1.95 5.85 3.95 L4.6 2.85 3.35 1.7 2.15 0.6 1.05 -0.35 Q2.6 -2.3 5.25 -2.45 L8.85 0.7 10.05 1.95 M4.6 2.85 Q6.1 0.85 8.85 0.7 6.1 0.85 4.6 2.85 M6.25 2.15 L6.2 2.1 5.8 2.05 Q5.35 2.25 5.3 2.75 L5.8 2.95 5.9 2.9 6.0 2.8 6.0 2.75 Q6.65 2.9 6.75 2.25 L6.7 2.2 6.55 2.15 6.4 2.1 6.3 2.15 6.25 2.15 M5.5 1.05 L5.45 1.0 5.0 0.95 5.0 1.0 4.9 1.0 Q4.3 1.25 4.0 1.75 L4.0 1.85 4.05 1.95 4.1 2.0 4.2 2.05 4.4 2.1 Q5.25 1.75 5.5 1.05 M6.45 1.0 L6.55 0.95 6.6 0.6 6.55 0.55 6.3 0.45 6.3 0.5 6.2 0.5 6.1 0.6 6.1 0.85 6.45 1.0 M7.85 1.75 L7.8 1.65 Q7.55 1.35 7.2 1.35 L7.1 1.4 7.05 1.45 6.95 1.65 7.0 1.75 7.0 1.85 7.05 1.9 Q7.6 2.5 7.85 1.75 M7.25 -0.05 Q4.85 -0.15 3.35 1.7 4.85 -0.15 7.25 -0.05 M6.05 -1.15 Q3.65 -1.25 2.15 0.6 3.65 -1.25 6.05 -1.15" fill="#666666" fill-rule="evenodd" stroke="none"/>
    <path d="M2.15 -0.05 L2.0 -0.1 1.85 -0.15 1.85 -0.25 1.8 -0.4 1.75 -0.45 Q2.2 -0.95 2.8 -1.1 L3.15 -1.0 3.2 -0.95 3.25 -0.85 3.25 -0.7 Q2.9 -0.3 2.35 -0.2 L2.25 -0.15 2.15 -0.05 M4.05 -1.75 L3.95 -1.3 3.85 -1.2 3.55 -1.3 Q3.45 -1.5 3.5 -1.7 L3.55 -1.8 3.7 -1.9 3.95 -1.85 4.05 -1.75 M4.9 -0.9 L4.9 -0.95 5.25 -0.8 5.3 -0.7 5.3 -0.6 5.3 -0.45 5.25 -0.4 5.15 -0.25 Q4.8 -0.25 4.65 -0.45 4.55 -0.85 4.9 -0.9 M4.05 -0.05 L4.1 0.0 4.15 0.1 4.15 0.25 Q3.65 0.85 3.0 0.75 L2.95 0.65 2.9 0.5 Q3.15 0.0 3.7 -0.15 L4.05 -0.05 M7.85 1.75 Q7.6 2.5 7.05 1.9 L7.0 1.85 7.0 1.75 6.95 1.65 7.05 1.45 7.1 1.4 7.2 1.35 Q7.55 1.35 7.8 1.65 L7.85 1.75 M6.45 1.0 L6.1 0.85 6.1 0.6 6.2 0.5 6.3 0.5 6.3 0.45 6.55 0.55 6.6 0.6 6.55 0.95 6.45 1.0 M5.5 1.05 Q5.25 1.75 4.4 2.1 L4.2 2.05 4.1 2.0 4.05 1.95 4.0 1.85 4.0 1.75 Q4.3 1.25 4.9 1.0 L5.0 1.0 5.0 0.95 5.45 1.0 5.5 1.05 M6.25 2.15 L6.3 2.15 6.4 2.1 6.55 2.15 6.7 2.2 6.75 2.25 Q6.65 2.9 6.0 2.75 L6.0 2.8 5.9 2.9 5.8 2.95 5.3 2.75 Q5.35 2.25 5.8 2.05 L6.2 2.1 6.25 2.15" fill="#999999" fill-rule="evenodd" stroke="none"/>
    <path d="M10.05 1.95 Q7.4 1.95 5.85 3.95 L4.6 2.85 3.35 1.7 2.15 0.6 1.05 -0.35 Q2.6 -2.3 5.25 -2.45 M8.85 0.7 Q6.1 0.85 4.6 2.85 M2.15 0.6 Q3.65 -1.25 6.05 -1.15 M3.35 1.7 Q4.85 -0.15 7.25 -0.05" fill="none" stroke="#000000" stroke-linecap="round" stroke-linejoin="round" stroke-width="1.0"/>
    <path d="M5.25 -2.45 L2.7 -4.3 M14.2 7.6 Q12.65 4.85 10.45 2.35 L10.05 1.95 8.85 0.7 5.25 -2.45 M-2.5 3.45 Q2.7 7.85 5.0 8.6 8.1 9.55 8.95 10.25 9.95 11.05 11.0 13.65 L14.85 8.8 14.2 7.6" fill="none" stroke="#000000" stroke-linecap="round" stroke-linejoin="round" stroke-width="1.5"/>
    <path d="M2.7 -4.3 Q-2.5 -2.5 -2.5 2.7 L-2.5 3.45" fill="none" stroke="#000000" stroke-linecap="round" stroke-linejoin="round" stroke-width="1.5"/>
  </g>
</svg>
