<?xml version="1.0" encoding="UTF-8" standalone="no"?>
<svg xmlns:ffdec="https://www.free-decompiler.com/flash" xmlns:xlink="http://www.w3.org/1999/xlink" ffdec:objectType="shape" height="18.25px" width="16.5px" xmlns="http://www.w3.org/2000/svg">
  <g transform="matrix(1.0, 0.0, 0.0, 1.0, 2.0, 3.4)">
    <path d="M0.0 -0.6 L-0.05 -0.5 0.0 -0.3 -0.05 -0.2 -0.1 -0.05 -0.05 0.15 -0.05 0.3 0.0 0.3 0.0 0.35 0.15 0.45 -0.4 1.9 -0.35 2.05 -0.35 2.2 -0.45 2.35 -0.55 2.5 -0.45 2.8 -0.4 3.05 -0.45 3.2 -0.65 3.5 -0.55 3.75 -0.45 4.0 0.0 4.15 0.1 4.0 Q0.5 3.5 0.55 2.8 L0.65 2.65 0.7 2.5 0.75 2.25 0.95 1.2 1.4 1.45 2.25 2.2 2.35 2.3 2.5 2.55 2.65 2.6 2.7 2.65 2.8 2.7 2.85 2.75 3.2 3.05 3.25 3.1 3.3 3.2 3.4 3.3 3.75 3.6 4.35 4.5 4.8 4.7 4.85 4.8 4.9 4.95 5.0 5.05 6.45 6.1 7.7 7.2 7.65 7.95 7.2 8.3 6.5 7.8 4.7 6.45 2.7 6.7 2.5 6.75 1.95 6.8 -1.25 3.6 -0.7 -0.6 -0.65 -1.0 -0.05 -1.25 0.0 -1.15 -0.7 -0.6 -0.4 -0.4 0.0 -0.6 M12.4 6.7 L12.55 7.25 12.1 7.35 12.1 7.05 12.05 6.8 12.0 6.8 12.4 6.7 M13.65 11.8 L13.75 12.2 10.3 14.1 9.5 12.6 Q10.05 13.15 10.45 12.9 L10.75 13.0 10.8 13.0 10.85 13.0 13.15 12.05 13.15 11.9 13.65 11.8" fill="#3b3bfa" fill-rule="evenodd" stroke="none"/>
    <path d="M1.0 -0.15 Q2.1 -0.85 3.45 -1.2 L3.55 -1.35 3.6 -1.5 3.6 -1.65 3.55 -1.7 2.6 -1.95 2.6 -2.0 2.4 -2.25 1.8 -2.0 Q1.7 -1.9 1.55 -1.9 0.65 -1.6 0.0 -1.15 L-0.05 -1.25 3.1 -2.65 12.05 5.2 12.2 5.7 11.4 5.85 9.95 5.95 Q9.2 5.65 8.65 5.05 L8.6 4.8 8.35 4.45 8.1 4.35 8.0 4.25 7.95 4.15 Q7.8 3.6 7.2 3.55 L7.2 3.6 7.0 3.7 Q6.8 4.05 6.95 4.4 L7.35 5.3 7.7 7.2 6.45 6.1 6.8 6.2 7.0 6.0 7.1 5.6 6.9 5.4 5.6 4.2 5.6 4.05 5.55 3.95 5.4 3.85 5.05 3.65 5.05 3.5 5.0 3.4 4.65 3.1 3.4 1.75 3.2 1.65 2.9 1.3 2.75 1.2 1.0 -0.15 M-0.05 -0.2 L-0.05 -0.1 -0.05 0.15 -0.1 -0.05 -0.05 -0.2 M0.0 0.3 L0.1 0.4 0.15 0.45 0.0 0.35 0.0 0.3 M0.95 1.2 L0.95 1.15 1.4 1.45 0.95 1.2 M2.65 2.6 L2.8 2.7 2.7 2.65 2.65 2.6 M3.2 3.05 L3.75 3.6 3.4 3.3 3.3 3.2 3.25 3.1 3.2 3.05" fill="#276ffe" fill-rule="evenodd" stroke="none"/>
    <path d="M0.0 -0.3 L0.0 -0.25 0.05 -0.15 0.1 0.0 0.3 0.05 0.55 0.1 1.0 -0.15 2.75 1.2 2.9 1.3 3.2 1.65 3.4 1.75 4.65 3.1 5.0 3.4 5.05 3.5 5.05 3.65 5.4 3.85 5.55 3.95 5.6 4.05 5.6 4.2 6.9 5.4 7.1 5.6 7.0 6.0 6.8 6.2 6.45 6.1 5.0 5.05 4.9 4.95 4.85 4.8 4.8 4.7 4.35 4.5 3.75 3.6 3.2 3.05 2.85 2.75 2.8 2.7 2.65 2.6 2.5 2.55 2.35 2.3 2.25 2.2 1.4 1.45 0.95 1.15 0.95 1.2 0.75 2.25 0.7 2.5 0.65 2.65 0.55 2.8 Q0.5 3.5 0.1 4.0 L0.0 4.15 -0.45 4.0 -0.55 3.75 -0.65 3.5 -0.45 3.2 -0.4 3.05 -0.45 2.8 -0.55 2.5 -0.45 2.35 -0.35 2.2 -0.35 2.05 -0.4 1.9 0.15 0.45 0.1 0.4 0.0 0.3 -0.05 0.3 -0.05 0.15 -0.05 -0.1 -0.05 -0.2 0.0 -0.3" fill="#5f93fe" fill-rule="evenodd" stroke="none"/>
    <path d="M1.0 -0.15 L0.55 0.1 0.3 0.05 0.1 0.0 0.05 -0.15 0.0 -0.25 0.0 -0.3 -0.05 -0.5 0.0 -0.6 0.2 -0.7 0.8 -0.9 0.9 -0.95 1.0 -1.05 Q1.95 -1.3 2.6 -1.85 L2.6 -1.95 3.55 -1.7 3.6 -1.65 3.6 -1.5 3.55 -1.35 3.45 -1.2 Q2.1 -0.85 1.0 -0.15 M7.65 7.95 L7.7 7.2 7.35 5.3 6.95 4.4 Q6.8 4.05 7.0 3.7 L7.2 3.6 7.2 3.55 Q7.8 3.6 7.95 4.15 L8.0 4.25 8.1 4.35 8.35 4.45 8.6 4.8 8.65 5.05 Q9.2 5.65 9.95 5.95 L11.4 5.85 Q10.9 6.8 10.2 6.95 9.5 7.05 8.6 6.4 8.85 7.0 8.6 7.55 L8.5 7.8 8.3 8.0 7.65 7.95 M9.5 12.6 L9.45 12.55 9.3 12.45 9.2 12.1 9.2 12.0 9.2 11.8 9.25 11.7 9.5 11.55 Q10.05 11.6 10.45 12.0 10.65 11.7 11.05 11.6 L11.15 11.35 11.25 11.15 11.3 11.0 11.35 10.7 11.75 10.4 Q13.05 10.45 13.15 11.9 L13.15 12.05 10.85 13.0 10.8 13.0 11.15 12.8 Q12.25 12.4 13.05 11.7 L13.05 11.55 12.9 11.45 11.95 11.65 11.8 11.8 Q11.3 12.3 10.55 12.45 L10.5 12.7 10.5 12.85 10.55 12.9 10.75 13.0 10.45 12.9 Q10.05 13.15 9.5 12.6" fill="#cccccc" fill-rule="evenodd" stroke="none"/>
    <path d="M2.6 -1.95 L2.6 -1.85 Q1.95 -1.3 1.0 -1.05 L0.9 -0.95 0.8 -0.9 0.2 -0.7 0.0 -0.6 -0.4 -0.4 -0.7 -0.6 0.0 -1.15 Q0.65 -1.6 1.55 -1.9 1.7 -1.9 1.8 -2.0 L2.4 -2.25 2.6 -2.0 2.6 -1.95 M10.75 13.0 L10.55 12.9 10.5 12.85 10.5 12.7 10.55 12.45 Q11.3 12.3 11.8 11.8 L11.95 11.65 12.9 11.45 13.05 11.55 13.05 11.7 Q12.25 12.4 11.15 12.8 L10.8 13.0 10.75 13.0" fill="#fafafa" fill-rule="evenodd" stroke="none"/>
    <path d="M7.2 8.3 L7.65 7.95 8.3 8.0 8.5 7.8 8.6 7.55 Q8.85 7.0 8.6 6.4 9.5 7.05 10.2 6.95 10.9 6.8 11.4 5.85 L12.2 5.7 12.4 6.7 12.0 6.8 11.9 6.7 11.5 6.55 11.5 6.6 10.35 7.2 9.25 7.7 9.25 7.95 9.35 8.35 9.55 8.4 Q11.05 8.7 12.1 7.35 L12.55 7.25 13.65 11.8 13.15 11.9 Q13.05 10.45 11.75 10.4 L11.35 10.7 11.3 11.0 11.25 11.15 11.15 11.35 11.05 11.6 Q10.65 11.7 10.45 12.0 10.05 11.6 9.5 11.55 L9.25 11.7 9.2 11.8 9.2 12.0 7.2 8.3" fill="#eeeeee" fill-rule="evenodd" stroke="none"/>
    <path d="M12.1 7.35 Q11.05 8.7 9.55 8.4 L9.35 8.35 9.25 7.95 9.25 7.7 10.35 7.2 11.5 6.6 11.5 6.55 11.9 6.7 12.0 6.8 12.05 6.8 12.1 7.05 12.1 7.35" fill="#ffffff" fill-rule="evenodd" stroke="none"/>
    <path d="M-0.05 -1.25 L-0.65 -1.0 -0.7 -0.6 -1.25 3.6 1.95 6.8 2.5 6.75 M2.7 6.7 L4.7 6.45 6.5 7.8 7.2 8.3 9.2 12.0 M-0.05 -1.25 L3.1 -2.65 12.05 5.2 12.2 5.7 12.4 6.7 12.55 7.25 13.65 11.8 13.75 12.2 10.3 14.1 9.5 12.6" fill="none" stroke="#000000" stroke-linecap="round" stroke-linejoin="round" stroke-width="1.5"/>
    <path d="M2.5 6.75 L2.7 6.7 5.55 8.35 6.5 7.8" fill="none" stroke="#000000" stroke-linecap="round" stroke-linejoin="round" stroke-width="1.0"/>
  </g>
</svg>
