<?xml version="1.0" encoding="UTF-8" standalone="no"?>
<svg xmlns:ffdec="https://www.free-decompiler.com/flash" xmlns:xlink="http://www.w3.org/1999/xlink" ffdec:objectType="shape" height="19.2px" width="17.65px" xmlns="http://www.w3.org/2000/svg">
  <g transform="matrix(1.0, 0.0, 0.0, 1.0, 2.95, 5.95)">
    <path d="M-0.45 -4.85 Q0.5 -1.8 3.55 -4.5 3.8 -0.35 5.8 -0.75 7.85 -1.1 8.95 -2.1 8.15 -0.9 8.45 1.45 8.7 3.05 9.45 3.8 11.3 5.65 13.4 5.95 L13.85 6.2 13.7 7.9 Q13.1 10.4 12.0 12.4 10.35 11.6 8.8 10.6 L8.9 10.35 7.5 7.7 7.25 7.3 Q5.65 4.95 3.45 3.7 L1.35 2.6 -1.0 1.7 -1.3 1.25 -1.8 -0.55 Q-2.8 -3.6 -0.7 -5.1 L-0.45 -4.85 M0.85 -0.8 L0.45 -1.0 Q0.15 -1.55 -0.45 -1.55 -0.9 -1.4 -0.95 -0.95 L-0.9 -0.7 -1.0 -0.55 -0.95 -0.25 -0.9 -0.15 -0.85 -0.05 -0.7 0.05 -0.65 0.2 -0.7 0.45 -0.6 0.95 Q0.1 1.8 0.75 1.6 L2.5 2.35 5.3 4.05 5.4 4.3 5.7 4.5 5.9 4.7 5.95 4.8 Q7.0 7.0 8.8 7.9 L8.7 8.2 8.65 8.3 Q8.85 9.15 9.4 9.75 L9.45 9.8 9.35 9.9 Q9.25 10.45 9.5 10.9 L9.7 10.95 10.05 10.95 10.6 10.2 Q11.35 10.15 11.4 8.9 L11.55 7.8 11.35 7.55 8.3 5.9 8.1 5.55 7.7 5.0 7.5 4.9 7.4 4.8 7.35 4.65 Q7.15 3.75 6.55 3.25 L6.95 2.25 6.8 1.25 6.6 1.05 Q4.75 1.2 3.3 0.4 L3.0 -0.2 Q2.2 -1.5 1.2 -0.7 L0.95 -0.7 0.85 -0.8" fill="#ff0000" fill-rule="evenodd" stroke="none"/>
    <path d="M0.85 -0.8 L0.95 -0.7 1.2 -0.7 Q2.2 -1.5 3.0 -0.2 L3.3 0.4 Q4.75 1.2 6.6 1.05 L6.8 1.25 6.95 2.25 6.55 3.25 Q7.15 3.75 7.35 4.65 L7.4 4.8 7.5 4.9 7.7 5.0 8.1 5.55 8.3 5.9 11.35 7.55 11.55 7.8 11.4 8.9 Q11.35 10.15 10.6 10.2 L10.05 10.95 9.7 10.95 9.5 10.9 Q9.25 10.45 9.35 9.9 L9.45 9.8 9.4 9.75 Q8.85 9.15 8.65 8.3 L8.7 8.2 8.8 7.9 Q7.0 7.0 5.95 4.8 L5.9 4.7 5.7 4.5 5.4 4.3 5.3 4.05 2.5 2.35 0.75 1.6 Q0.1 1.8 -0.6 0.95 L-0.7 0.45 -0.65 0.2 -0.7 0.05 -0.85 -0.05 -0.9 -0.15 -0.95 -0.25 -1.0 -0.55 -0.9 -0.7 -0.95 -0.95 Q-0.9 -1.4 -0.45 -1.55 0.15 -1.55 0.45 -1.0 L0.85 -0.8" fill="#ff6600" fill-rule="evenodd" stroke="none"/>
    <path d="M7.5 7.7 L7.8 9.0 Q7.1 9.05 3.75 6.75 1.0 4.85 0.5 2.75 L1.35 2.6 3.45 3.7 Q5.65 4.95 7.25 7.3 L7.5 7.7" fill="#cc0000" fill-rule="evenodd" stroke="none"/>
    <path d="M-0.45 -4.85 Q0.5 -1.8 3.55 -4.5 3.8 -0.35 5.8 -0.75 7.85 -1.1 8.95 -2.1 8.15 -0.9 8.45 1.45 8.7 3.05 9.45 3.8 11.3 5.65 13.4 5.95 M13.85 6.2 L13.7 7.9 Q13.1 10.4 12.0 12.4 10.35 11.6 8.8 10.6 M8.9 10.35 L7.5 7.7 7.25 7.3 Q5.65 4.95 3.45 3.7 L1.35 2.6 -1.0 1.7 M7.8 9.0 Q7.1 9.05 3.75 6.75 1.0 4.85 0.5 2.75 M-1.3 1.25 L-1.8 -0.55 Q-2.8 -3.6 -0.7 -5.1" fill="none" stroke="#990000" stroke-linecap="round" stroke-linejoin="round" stroke-width="1.75"/>
  </g>
</svg>
