<?xml version="1.0" encoding="UTF-8" standalone="no"?>
<svg xmlns:ffdec="https://www.free-decompiler.com/flash" xmlns:xlink="http://www.w3.org/1999/xlink" ffdec:objectType="shape" height="19.45px" width="18.9px" xmlns="http://www.w3.org/2000/svg">
  <g transform="matrix(1.0, 0.0, 0.0, 1.0, 3.3, 5.05)">
    <path d="M2.15 -3.35 L2.2 -3.15 2.3 -2.9 Q2.8 -2.55 3.35 -2.4 L3.45 -2.5 3.55 -2.8 3.45 -2.95 3.45 -3.05 3.3 -3.1 2.4 -3.65 2.4 -3.6 2.2 -3.55 2.15 -3.4 2.15 -3.35 M5.25 -2.45 L3.65 -2.15 3.6 -2.15 Q2.05 -1.65 1.05 -0.35 L5.85 3.95 Q7.4 1.95 10.05 1.95 L10.45 2.35 10.95 2.95 12.7 5.25 13.3 6.05 14.2 7.6 13.8 7.8 13.7 7.75 13.65 7.75 13.65 7.65 13.2 6.1 13.1 6.05 12.85 5.95 12.7 6.05 12.65 6.15 12.65 6.25 12.7 6.4 12.8 6.7 12.2 5.5 12.15 5.45 11.9 5.15 11.85 5.0 11.8 4.8 11.75 4.75 11.5 4.55 11.45 4.45 11.1 4.25 10.95 4.35 10.9 4.45 10.85 4.55 10.9 4.7 10.95 4.85 11.05 5.0 11.15 5.15 11.25 5.25 11.3 5.3 11.35 5.45 11.45 5.65 11.5 5.7 11.75 6.05 11.85 6.4 11.95 6.5 12.15 6.7 12.2 6.85 12.4 7.6 12.35 7.7 12.35 7.8 12.35 7.9 12.25 8.0 12.2 8.2 12.2 8.3 12.2 8.35 12.15 8.45 11.9 8.95 11.85 9.0 10.0 8.8 9.85 8.65 Q9.05 8.15 8.2 7.8 L7.45 7.45 6.3 7.0 6.25 6.9 6.2 6.8 6.05 6.75 5.6 6.65 5.55 6.6 Q4.95 6.2 4.35 5.95 L4.25 5.85 3.0 5.3 1.95 4.5 0.15 3.35 0.1 3.3 -1.05 2.7 -1.1 2.65 Q-1.35 2.45 -1.7 2.4 L-1.8 2.45 -1.9 2.55 -1.95 2.75 -2.5 2.7 Q-2.5 -2.5 2.7 -4.3 L5.25 -2.45" fill="#ffffff" fill-rule="evenodd" stroke="none"/>
    <path d="M2.15 -3.35 L2.15 -3.4 2.2 -3.55 2.4 -3.6 2.4 -3.65 3.3 -3.1 3.45 -3.05 3.45 -2.95 3.55 -2.8 3.45 -2.5 3.35 -2.4 Q2.8 -2.55 2.3 -2.9 L2.2 -3.15 2.15 -3.35 M-2.5 2.7 L-1.95 2.75 -1.9 2.55 -1.8 2.45 -1.7 2.4 Q-1.35 2.45 -1.1 2.65 L-1.05 2.7 0.1 3.3 0.15 3.35 1.95 4.5 3.0 5.3 4.25 5.85 4.35 5.95 Q4.95 6.2 5.55 6.6 L5.6 6.65 6.05 6.75 6.2 6.8 6.25 6.9 6.3 7.0 7.45 7.45 8.2 7.8 Q9.05 8.15 9.85 8.65 L10.0 8.8 11.85 9.0 11.9 8.95 12.15 8.45 12.2 8.35 12.2 8.3 12.2 8.2 12.25 8.0 12.35 7.9 12.35 7.8 12.35 7.7 12.4 7.6 12.2 6.85 12.15 6.7 11.95 6.5 11.85 6.4 11.75 6.05 11.5 5.7 11.45 5.65 11.35 5.45 11.3 5.3 11.25 5.25 11.15 5.15 11.05 5.0 10.95 4.85 10.9 4.7 10.85 4.55 10.9 4.45 10.95 4.35 11.1 4.25 11.45 4.45 11.5 4.55 11.75 4.75 11.8 4.8 11.85 5.0 11.9 5.15 12.15 5.45 12.2 5.5 12.8 6.7 12.7 6.4 12.65 6.25 12.65 6.15 12.7 6.05 12.85 5.95 13.1 6.05 13.2 6.1 13.65 7.65 13.65 7.75 13.7 7.75 13.8 7.8 14.2 7.6 14.85 8.8 11.0 13.65 Q9.95 11.05 8.95 10.25 8.1 9.55 5.0 8.6 2.7 7.85 -2.5 3.45 L-2.5 2.7" fill="#e0e0e0" fill-rule="evenodd" stroke="none"/>
    <path d="M5.6 2.6 L5.55 2.8 Q5.45 3.3 5.95 3.15 L6.1 3.05 Q6.5 3.2 6.75 2.85 L7.0 2.45 Q7.5 1.8 8.4 1.8 L8.6 1.6 8.6 1.45 8.45 1.35 8.35 1.35 8.35 1.3 8.3 1.25 8.25 1.2 8.2 1.15 8.05 1.05 8.0 1.0 7.65 0.65 7.9 0.3 7.85 0.25 7.7 0.1 7.65 0.0 6.85 -0.7 6.3 -1.0 6.25 -1.05 6.2 -1.1 5.9 -1.3 4.9 -1.8 4.65 -1.9 4.5 -1.8 4.1 -1.95 4.05 -1.9 4.0 -1.9 3.9 -1.7 3.95 -1.5 4.05 -1.45 4.15 -1.25 4.55 -0.65 4.45 -0.45 4.55 0.1 4.0 -0.05 3.8 0.0 Q2.85 0.1 2.9 0.9 L3.0 0.95 Q3.35 1.05 3.5 0.75 L4.1 0.55 4.2 0.6 4.25 0.85 4.3 0.9 4.55 0.9 4.45 1.05 Q4.2 1.3 4.35 1.6 L4.6 1.65 4.95 1.5 Q5.4 1.15 5.25 0.75 L5.65 1.1 5.75 1.3 5.8 1.4 5.4 1.6 Q4.9 1.9 5.05 2.3 L5.35 2.35 5.4 2.55 5.45 2.6 5.6 2.6 M6.8 1.7 L6.6 1.8 6.65 1.7 6.8 1.65 6.8 1.7 M10.05 1.95 Q7.4 1.95 5.85 3.95 L1.05 -0.35 Q2.05 -1.65 3.6 -2.15 L3.65 -2.15 5.25 -2.45 8.85 0.7 10.05 1.95 M3.1 -0.4 L3.4 -0.4 Q4.0 -0.45 4.2 -0.9 L4.1 -1.0 2.9 -0.9 2.85 -0.85 2.55 -0.7 Q2.1 -0.55 1.85 -0.2 L1.9 0.0 1.9 0.05 2.0 0.1 Q2.7 0.15 3.1 -0.4 M4.8 0.35 L4.75 0.35 4.7 0.3 4.55 0.1 4.65 0.2 4.8 0.35" fill="#8ac1ff" fill-rule="evenodd" stroke="none"/>
    <path d="M4.5 -1.8 L4.65 -1.9 4.9 -1.8 5.9 -1.3 6.2 -1.1 6.25 -1.05 6.3 -1.0 6.85 -0.7 7.65 0.0 7.7 0.1 7.85 0.25 7.9 0.3 7.65 0.65 8.0 1.0 8.05 1.05 8.2 1.15 8.25 1.2 8.3 1.25 8.35 1.3 8.35 1.35 8.45 1.35 8.6 1.45 8.6 1.6 8.4 1.8 Q7.5 1.8 7.0 2.45 L6.75 2.85 Q6.5 3.2 6.1 3.05 L5.95 3.15 Q5.45 3.3 5.55 2.8 L5.6 2.6 5.7 2.6 6.25 2.15 6.6 1.8 6.8 1.7 6.85 1.8 6.95 1.85 7.05 1.85 Q7.3 2.05 7.5 1.75 L7.5 1.55 7.2 1.0 7.15 0.9 7.1 0.8 7.05 0.75 6.9 0.7 6.9 0.65 7.15 0.45 7.15 0.4 7.15 0.3 7.05 0.15 6.65 -0.4 6.6 -0.45 Q6.5 -0.9 6.0 -0.8 L5.9 -0.75 5.2 -1.3 5.15 -1.2 5.1 -0.95 4.95 -1.25 4.5 -1.8 M5.5 0.15 L5.25 -0.05 5.25 -0.1 5.45 0.05 5.5 0.15 M6.4 1.15 L6.5 1.15 6.7 1.3 6.75 1.4 6.8 1.5 6.8 1.65 6.65 1.7 6.4 1.15" fill="#689cff" fill-rule="evenodd" stroke="none"/>
    <path d="M5.6 2.6 L5.45 2.6 5.4 2.55 5.35 2.35 5.9 1.95 Q6.45 1.9 6.6 1.5 L6.55 1.45 Q6.35 1.15 5.9 1.3 L5.8 1.4 5.75 1.3 5.65 1.1 5.25 0.75 5.15 0.6 5.1 0.55 4.8 0.35 4.65 0.2 4.55 0.1 4.45 -0.45 4.55 -0.65 4.15 -1.25 4.05 -1.45 3.95 -1.5 3.9 -1.7 4.0 -1.9 4.05 -1.9 4.1 -1.95 4.5 -1.8 4.95 -1.25 5.1 -0.95 5.1 -0.65 4.95 -0.5 5.0 -0.3 5.05 -0.2 5.1 -0.2 5.25 -0.1 5.25 -0.05 5.5 0.15 6.0 0.75 6.4 1.15 6.65 1.7 6.6 1.8 6.25 2.15 5.7 2.6 5.6 2.6" fill="#83b8ff" fill-rule="evenodd" stroke="none"/>
    <path d="M5.35 2.35 L5.05 2.3 Q4.9 1.9 5.4 1.6 L5.8 1.4 5.9 1.3 Q6.35 1.15 6.55 1.45 L6.6 1.5 Q6.45 1.9 5.9 1.95 L5.35 2.35 M5.25 0.75 Q5.4 1.15 4.95 1.5 L4.6 1.65 4.35 1.6 Q4.2 1.3 4.45 1.05 L4.55 0.9 4.3 0.9 4.25 0.85 4.2 0.6 4.1 0.55 3.5 0.75 Q3.35 1.05 3.0 0.95 L2.9 0.9 Q2.85 0.1 3.8 0.0 L4.0 -0.05 4.55 0.1 4.7 0.3 4.75 0.35 4.8 0.35 5.1 0.55 5.15 0.6 5.25 0.75 M3.1 -0.4 Q2.7 0.15 2.0 0.1 L1.9 0.05 1.9 0.0 1.85 -0.2 Q2.1 -0.55 2.55 -0.7 L2.85 -0.85 2.9 -0.9 4.1 -1.0 4.2 -0.9 Q4.0 -0.45 3.4 -0.4 L3.1 -0.4" fill="#a8e1ff" fill-rule="evenodd" stroke="none"/>
    <path d="M5.1 -0.95 L5.15 -1.2 5.2 -1.3 5.9 -0.75 6.0 -0.8 Q6.5 -0.9 6.6 -0.45 L6.65 -0.4 7.05 0.15 7.15 0.3 7.15 0.4 7.15 0.45 6.9 0.65 6.9 0.7 7.05 0.75 7.1 0.8 7.15 0.9 7.2 1.0 7.5 1.55 7.5 1.75 Q7.3 2.05 7.05 1.85 L6.95 1.85 6.85 1.8 6.8 1.7 6.8 1.65 6.8 1.5 6.75 1.4 6.7 1.3 6.5 1.15 6.4 1.15 6.0 0.75 5.5 0.15 5.45 0.05 5.25 -0.1 5.1 -0.2 5.05 -0.2 5.0 -0.3 4.95 -0.5 5.1 -0.65 5.1 -0.95" fill="#74a8ff" fill-rule="evenodd" stroke="none"/>
    <path d="M5.25 -2.45 L2.7 -4.3 Q-2.5 -2.5 -2.5 2.7 L-2.5 3.45 Q2.7 7.85 5.0 8.6 8.1 9.55 8.95 10.25 9.95 11.05 11.0 13.65 L14.85 8.8 14.2 7.6 13.3 6.05 12.7 5.25 10.95 2.95 10.45 2.35 10.05 1.95 8.85 0.7 5.25 -2.45" fill="none" stroke="#000000" stroke-linecap="round" stroke-linejoin="round" stroke-width="1.5"/>
    <path d="M10.05 1.95 Q7.4 1.95 5.85 3.95 L1.05 -0.35 Q2.05 -1.65 3.6 -2.15 L3.65 -2.15 5.25 -2.45" fill="none" stroke="#000000" stroke-linecap="round" stroke-linejoin="round" stroke-width="1.0"/>
  </g>
</svg>
