<?xml version="1.0" encoding="UTF-8" standalone="no"?>
<svg xmlns:ffdec="https://www.free-decompiler.com/flash" xmlns:xlink="http://www.w3.org/1999/xlink" ffdec:objectType="shape" height="18.0px" width="17.2px" xmlns="http://www.w3.org/2000/svg">
  <g transform="matrix(1.0, 0.0, 0.0, 1.0, 2.85, 3.15)">
    <path d="M-2.1 3.05 L-2.1 3.0 -2.15 2.95 Q-2.55 1.45 -2.05 -0.15 -1.6 -1.6 0.25 -2.5 0.75 -2.8 1.25 -2.5 L4.1 -1.15 7.1 0.5 Q8.7 1.4 9.9 2.3 L9.9 2.35 9.7 2.55 8.9 2.45 8.9 2.3 8.85 2.15 Q8.45 1.65 7.75 1.8 L7.6 1.85 7.55 1.95 7.5 2.05 7.45 2.1 7.3 2.25 7.15 2.45 7.2 2.55 7.15 2.65 7.2 2.7 7.2 2.8 7.35 3.0 8.45 3.75 8.65 3.95 10.15 5.4 10.35 5.7 10.8 6.2 10.9 6.55 11.05 6.85 11.1 7.25 Q11.1 7.95 11.7 8.15 L11.9 8.05 12.0 7.95 12.1 8.05 11.8 8.5 11.75 8.45 Q10.75 7.85 9.95 7.5 L9.75 7.4 Q8.05 6.5 5.85 6.65 L5.75 6.65 5.85 6.65 Q8.05 6.5 9.75 7.4 L9.95 7.5 Q10.75 7.85 11.75 8.45 L11.8 8.5 12.35 8.85 13.2 9.6 13.75 10.9 13.3 11.0 Q13.05 10.1 12.4 9.7 L12.5 9.45 Q12.3 9.15 11.95 9.25 L10.7 8.6 10.5 8.5 9.85 8.05 9.85 8.0 9.8 7.95 9.8 7.9 9.55 7.75 9.4 7.8 9.2 7.7 9.2 7.75 9.1 7.75 9.05 7.85 8.9 7.9 8.95 8.05 9.0 8.35 9.3 8.55 9.55 9.05 9.65 9.1 9.95 9.4 9.95 9.65 10.3 10.6 10.35 10.7 10.65 11.1 10.65 11.2 Q10.65 11.65 11.15 11.8 L11.35 11.5 11.25 10.4 11.3 10.55 Q11.75 11.5 11.0 12.3 L11.05 12.35 10.7 12.45 10.25 11.45 Q9.3 9.9 7.95 9.3 6.6 8.6 4.7 8.4 L3.55 8.25 Q2.85 7.85 3.55 7.35 4.35 6.75 5.75 6.65 L5.85 6.4 5.95 6.35 5.95 6.3 6.35 6.55 6.65 6.3 6.75 6.0 Q6.15 5.05 5.1 4.75 L5.05 4.6 5.1 4.55 5.05 4.45 4.8 4.3 3.8 3.1 3.7 3.05 3.15 2.3 3.15 2.2 3.1 2.15 Q2.7 1.7 2.2 1.7 L1.25 1.75 1.05 2.1 Q0.7 2.6 0.85 3.2 L0.8 3.3 0.7 3.5 0.7 3.55 0.5 3.5 0.35 3.4 0.25 3.1 0.15 2.95 0.2 2.9 0.05 2.75 -0.1 2.5 -0.2 2.05 -0.3 1.4 -0.4 1.3 Q-0.7 0.95 -1.15 1.05 L-1.3 1.05 -1.6 1.05 -1.7 1.1 -1.75 1.15 -1.75 1.2 -1.8 1.3 -1.85 1.4 -1.75 1.5 -1.95 1.6 -1.9 1.8 -1.95 2.0 -2.15 2.25 -2.15 2.35 -2.05 3.0 -2.1 3.05 M1.55 2.4 L1.55 2.5 1.45 2.55 1.55 2.4 M1.45 3.4 L1.45 3.5 1.45 4.2 1.45 4.25 1.45 4.45 1.0 4.75 0.45 4.15 0.6 4.25 0.8 4.2 1.15 4.1 1.3 3.8 1.45 3.4 M4.45 4.95 L4.55 5.05 4.5 5.0 4.45 4.95" fill="#fcfcfc" fill-rule="evenodd" stroke="none"/>
    <path d="M9.9 2.35 L10.1 2.5 Q11.45 3.55 12.6 5.05 L13.05 5.75 13.1 5.85 13.4 6.55 13.7 8.5 13.65 9.15 13.2 9.6 12.35 8.85 11.8 8.5 12.1 8.05 12.0 7.95 12.05 7.9 12.0 7.25 Q11.9 6.4 11.35 5.85 L11.15 5.35 10.9 4.85 10.6 4.7 8.6 2.7 8.9 2.45 9.7 2.55 9.9 2.35 M13.75 10.9 L13.85 11.8 Q12.6 11.75 12.35 12.95 12.1 14.05 10.0 14.35 L9.95 14.3 10.1 14.25 Q10.95 13.5 10.7 12.45 L11.05 12.35 11.0 12.3 Q11.75 11.5 11.3 10.55 L11.25 10.4 11.2 10.25 11.2 10.15 10.55 9.25 10.85 9.25 Q11.1 9.6 11.45 9.75 L12.4 9.7 Q13.05 10.1 13.3 11.0 L13.75 10.9 M3.55 7.35 L3.15 7.05 2.85 7.0 Q1.4 6.45 0.05 5.35 L-0.4 5.0 -2.1 3.05 -2.05 3.0 -2.15 2.35 -2.15 2.25 -1.95 2.0 -1.9 1.8 -1.95 1.6 -1.75 1.5 -1.7 1.5 -1.3 1.95 -1.35 2.05 -1.3 2.15 -1.2 2.25 -1.1 2.3 -0.9 2.7 -0.75 3.0 -0.65 3.2 Q-0.3 3.95 0.45 4.15 L1.0 4.75 1.45 4.45 1.45 4.25 1.45 4.2 1.45 3.5 1.45 3.4 1.5 3.3 1.5 3.25 1.6 3.3 1.75 3.15 1.85 3.05 1.9 3.05 1.95 3.3 2.2 3.4 3.3 4.6 3.95 5.1 3.95 5.25 4.0 5.5 4.1 5.6 4.45 5.7 5.75 6.25 5.85 6.2 5.95 6.3 5.95 6.35 5.85 6.4 5.75 6.65 Q4.35 6.75 3.55 7.35 M10.5 8.5 L10.7 8.6 10.5 8.55 10.5 8.5 M2.85 3.1 L2.75 2.9 2.75 2.85 2.9 3.0 Q2.9 3.2 3.05 3.25 L3.15 3.4 2.85 3.1 M1.55 2.5 L1.55 2.4 1.6 2.35 1.65 2.3 1.65 2.35 1.7 2.35 1.75 2.45 1.55 2.5 M4.45 4.95 L4.5 5.0 4.4 4.95 4.45 4.95 M10.1 14.25 L10.0 14.35 10.1 14.25" fill="#cccccc" fill-rule="evenodd" stroke="none"/>
    <path d="M-1.75 1.5 L-1.85 1.4 -1.8 1.3 -1.75 1.2 -1.75 1.15 -1.7 1.1 -1.6 1.05 -1.3 1.05 -1.15 1.05 Q-0.7 0.95 -0.4 1.3 L-0.3 1.4 -0.2 2.05 -0.1 2.5 0.05 2.75 0.2 2.9 0.15 2.95 0.25 3.1 0.35 3.4 0.5 3.5 0.7 3.55 0.7 3.5 0.8 3.3 0.85 3.2 Q0.7 2.6 1.05 2.1 L1.25 1.75 2.2 1.7 Q2.7 1.7 3.1 2.15 L3.15 2.2 3.15 2.3 3.7 3.05 3.8 3.1 4.8 4.3 5.05 4.45 5.1 4.55 5.05 4.6 5.1 4.75 Q6.15 5.05 6.75 6.0 L6.65 6.3 6.35 6.55 5.95 6.3 5.85 6.2 5.75 6.25 4.45 5.7 4.1 5.6 4.0 5.5 3.95 5.25 3.95 5.1 3.3 4.6 2.2 3.4 1.95 3.3 1.9 3.05 1.85 3.05 1.75 3.15 1.6 3.3 1.5 3.25 1.5 3.3 1.45 3.4 1.3 3.8 1.15 4.1 0.8 4.2 0.6 4.25 0.45 4.15 Q-0.3 3.95 -0.65 3.2 L-0.75 3.0 -0.9 2.7 -1.1 2.3 -1.2 2.25 -1.3 2.15 -1.35 2.05 -1.3 1.95 -1.7 1.5 -1.75 1.5 M12.0 7.95 L11.9 8.05 11.7 8.15 Q11.1 7.95 11.1 7.25 L11.05 6.85 10.9 6.55 10.8 6.2 10.35 5.7 10.15 5.4 8.65 3.95 8.45 3.75 7.35 3.0 7.2 2.8 7.2 2.7 7.15 2.65 7.2 2.55 7.15 2.45 7.3 2.25 7.45 2.1 7.5 2.05 7.55 1.95 7.6 1.85 7.75 1.8 Q8.45 1.65 8.85 2.15 L8.9 2.3 8.9 2.45 8.6 2.7 10.6 4.7 10.9 4.85 11.15 5.35 11.35 5.85 Q11.9 6.4 12.0 7.25 L12.05 7.9 12.0 7.95 M10.5 8.5 L10.5 8.55 10.7 8.6 11.95 9.25 Q12.3 9.15 12.5 9.45 L12.4 9.7 11.45 9.75 Q11.1 9.6 10.85 9.25 L10.55 9.25 11.2 10.15 11.2 10.25 11.25 10.4 11.35 11.5 11.15 11.8 Q10.65 11.65 10.65 11.2 L10.65 11.1 10.35 10.7 10.3 10.6 9.95 9.65 9.95 9.4 9.65 9.1 9.55 9.05 9.3 8.55 9.0 8.35 8.95 8.05 8.9 7.9 9.05 7.85 9.1 7.75 9.2 7.75 9.2 7.7 9.4 7.8 9.55 7.75 9.8 7.9 9.8 7.95 9.85 8.0 9.85 8.05 10.5 8.5 M2.85 3.1 L3.15 3.4 3.05 3.25 Q2.9 3.2 2.9 3.0 L2.75 2.85 2.75 2.9 2.85 3.1 M1.55 2.5 L1.75 2.45 1.7 2.35 1.65 2.35 1.65 2.3 1.6 2.35 1.55 2.4 1.45 2.55 1.55 2.5 M4.5 5.0 L4.55 5.05 4.45 4.95 4.4 4.95 4.5 5.0" fill="#eeeeee" fill-rule="evenodd" stroke="none"/>
    <path d="M-2.1 3.05 L-2.1 3.0 -2.15 2.95 Q-2.55 1.45 -2.05 -0.15 -1.6 -1.6 0.25 -2.5 0.75 -2.8 1.25 -2.5 L4.1 -1.15 7.1 0.5 Q8.7 1.4 9.9 2.3 L9.9 2.35 10.1 2.5 Q11.45 3.55 12.6 5.05 L13.05 5.75 13.1 5.85 13.4 6.55 13.7 8.5 13.65 9.15 M13.2 9.6 L13.75 10.9 13.85 11.8 Q12.6 11.75 12.35 12.95 12.1 14.05 10.0 14.35 L10.1 14.25 Q10.95 13.5 10.7 12.45 L10.25 11.45 Q9.3 9.9 7.95 9.3 6.6 8.6 4.7 8.4 L3.55 8.25 Q2.85 7.85 3.55 7.35 4.35 6.75 5.75 6.65 L5.85 6.65 Q8.05 6.5 9.75 7.4 L9.95 7.5 Q10.75 7.85 11.75 8.45 L11.8 8.5 12.35 8.85 13.2 9.6 M3.15 7.05 L2.85 7.0 Q1.4 6.45 0.05 5.35 L-0.4 5.0 -2.1 3.05" fill="none" stroke="#000000" stroke-linecap="round" stroke-linejoin="round" stroke-width="1.0"/>
  </g>
</svg>
