<?xml version="1.0" encoding="UTF-8" standalone="no"?>
<svg xmlns:ffdec="https://www.free-decompiler.com/flash" xmlns:xlink="http://www.w3.org/1999/xlink" ffdec:objectType="shape" height="18.95px" width="18.95px" xmlns="http://www.w3.org/2000/svg">
  <g transform="matrix(1.0, 0.0, 0.0, 1.0, 4.35, 4.15)">
    <path d="M8.65 1.25 L10.15 2.25 10.15 2.3 9.95 2.5 9.15 2.4 9.15 2.25 9.1 2.1 Q8.85 1.75 8.5 1.7 L8.65 1.25 M13.45 9.55 L14.0 10.85 13.55 10.95 Q13.3 10.0 12.65 9.65 L12.75 9.4 12.2 9.2 Q11.65 8.8 10.95 8.55 L10.75 8.45 10.1 8.0 10.1 7.95 10.05 7.9 10.05 7.85 9.8 7.7 9.65 7.75 9.45 7.65 9.45 7.7 9.35 7.7 9.3 7.8 9.15 7.85 9.2 8.0 9.25 8.3 9.55 8.5 9.8 9.0 9.9 9.05 10.2 9.35 10.2 9.6 10.55 10.55 10.6 10.65 10.9 11.05 10.9 11.15 Q10.9 11.6 11.4 11.75 L11.6 11.45 11.5 10.35 11.55 10.5 Q12.0 11.45 11.25 12.25 L11.3 12.3 10.95 12.4 10.5 11.4 Q9.55 9.85 8.2 9.25 6.85 8.6 4.95 8.35 L4.15 8.35 3.8 8.2 Q3.15 7.85 3.8 7.3 L3.9 7.25 Q4.25 7.0 4.7 6.85 L5.75 6.65 6.0 6.6 6.1 6.6 Q8.3 6.45 10.0 7.35 L12.0 8.4 12.05 8.45 12.0 8.4 10.0 7.35 Q8.3 6.45 6.1 6.6 L6.0 6.6 6.1 6.35 6.2 6.3 6.2 6.25 6.6 6.5 6.9 6.25 7.0 5.95 6.6 5.45 6.75 5.2 Q7.45 4.85 7.95 4.2 L9.0 4.05 10.4 5.35 10.6 5.65 11.05 6.15 11.15 6.5 11.3 6.8 11.35 7.2 Q11.35 7.9 11.95 8.1 L12.15 8.0 12.25 7.9 12.35 8.0 12.05 8.45 12.6 8.8 13.45 9.55 M4.5 5.05 L4.45 5.0 4.55 5.1 4.5 5.05" fill="#fcfcfc" fill-rule="evenodd" stroke="none"/>
    <path d="M9.0 4.05 L9.2 3.95 10.5 4.4 10.6 4.4 10.85 4.65 11.15 4.8 11.6 5.8 Q12.2 6.4 12.25 7.2 L12.3 7.85 12.25 7.9 12.15 8.0 11.95 8.1 Q11.35 7.9 11.35 7.2 L11.3 6.8 11.15 6.5 11.05 6.15 10.6 5.65 10.4 5.35 9.0 4.05 M12.65 9.65 L11.7 9.7 Q11.3 9.55 11.1 9.2 L10.8 9.2 11.45 10.1 11.45 10.2 11.5 10.35 11.6 11.45 11.4 11.75 Q10.9 11.6 10.9 11.15 L10.9 11.05 10.6 10.65 10.55 10.55 10.2 9.6 10.2 9.35 9.9 9.05 9.8 9.0 9.55 8.5 9.25 8.3 9.2 8.0 9.15 7.85 9.3 7.8 9.35 7.7 9.45 7.7 9.45 7.65 9.65 7.75 9.8 7.7 10.05 7.85 10.05 7.9 10.1 7.95 10.1 8.0 10.75 8.45 10.75 8.5 10.95 8.55 Q11.65 8.8 12.2 9.2 L12.75 9.4 12.65 9.65 M6.1 6.15 L6.6 5.45 7.0 5.95 6.9 6.25 6.6 6.5 6.2 6.25 6.1 6.15" fill="#eeeeee" fill-rule="evenodd" stroke="none"/>
    <path d="M3.3 -3.55 L4.55 -3.55 4.25 -2.9 4.45 -2.85 Q5.25 -2.6 5.7 -2.2 L6.45 -1.4 5.6 -0.55 Q4.7 0.55 4.15 1.4 L3.8 1.1 3.7 1.15 3.25 1.1 2.95 0.95 2.2 0.8 1.9 0.65 Q1.35 0.55 1.05 0.2 L0.95 -0.1 1.05 -0.55 0.9 -0.6 0.8 -0.7 0.65 -0.8 0.4 -0.85 -0.4 -1.15 -0.6 -1.2 -1.4 -1.3 Q-1.55 -1.2 -1.65 -1.4 L-2.15 -1.5 -2.2 -1.55 -2.2 -1.7 -2.25 -1.75 -2.6 -1.9 -2.85 -2.1 -3.05 -2.25 -2.0 -3.4 -1.3 -3.65 -0.95 -3.6 0.35 -3.6 0.35 -3.15 Q1.2 -3.0 1.9 -2.5 L1.95 -2.45 2.8 -2.15 3.1 -2.15 2.95 -2.25 2.75 -2.35 Q2.55 -2.65 2.8 -2.9 L3.3 -3.0 3.3 -3.55 M10.15 2.3 L10.35 2.45 Q11.75 3.55 12.85 5.0 L13.3 5.7 13.65 6.5 13.95 8.45 13.9 9.1 13.45 9.55 12.6 8.8 12.05 8.45 12.35 8.0 12.25 7.9 12.3 7.85 12.25 7.2 Q12.2 6.4 11.6 5.8 L11.15 4.8 10.85 4.65 10.6 4.4 10.5 4.4 9.2 3.95 9.0 4.05 7.95 4.2 Q7.45 4.85 6.75 5.2 L5.7 5.55 5.0 6.45 4.75 6.65 4.45 6.6 4.3 6.55 Q4.2 5.8 4.65 5.3 L4.55 5.1 4.45 5.0 4.5 5.05 4.4 5.0 4.05 4.9 Q4.2 3.9 4.65 3.1 5.6 1.35 7.4 0.45 L8.65 1.25 8.5 1.7 Q8.85 1.75 9.1 2.1 L9.15 2.25 9.15 2.4 9.95 2.5 10.15 2.3 M14.0 10.85 L14.1 11.75 Q12.85 11.7 12.6 12.9 12.4 14.0 10.25 14.3 L10.2 14.25 10.35 14.2 Q11.2 13.45 10.95 12.4 L11.3 12.3 11.25 12.25 Q12.0 11.45 11.55 10.5 L11.5 10.35 11.45 10.2 11.45 10.1 10.8 9.2 11.1 9.2 Q11.3 9.55 11.7 9.7 L12.65 9.65 Q13.3 10.0 13.55 10.95 L14.0 10.85 M10.75 8.45 L10.95 8.55 10.75 8.5 10.75 8.45 M6.0 6.6 L5.75 6.65 6.1 6.15 6.2 6.25 6.2 6.3 6.1 6.35 6.0 6.6 M10.25 14.3 L10.35 14.2 10.25 14.3" fill="#cccccc" fill-rule="evenodd" stroke="none"/>
    <path d="M3.3 -3.55 L3.3 -3.0 2.8 -2.9 Q2.55 -2.65 2.75 -2.35 L2.95 -2.25 3.1 -2.15 2.8 -2.15 1.95 -2.45 1.9 -2.5 Q1.2 -3.0 0.35 -3.15 L0.35 -3.6 3.3 -3.55 M-3.05 -2.25 L-2.85 -2.1 -2.6 -1.9 -2.25 -1.75 -2.2 -1.7 -2.2 -1.55 -2.15 -1.5 -1.65 -1.4 Q-1.55 -1.2 -1.4 -1.3 L-0.6 -1.2 -0.4 -1.15 0.4 -0.85 0.65 -0.8 0.8 -0.7 0.9 -0.6 1.05 -0.55 0.95 -0.1 1.05 0.2 Q1.35 0.55 1.9 0.65 L2.2 0.8 2.95 0.95 3.25 1.1 3.7 1.15 3.8 1.1 4.15 1.4 3.45 2.75 3.0 2.55 2.6 2.45 2.55 2.4 2.25 2.3 Q1.8 2.4 1.5 2.6 L1.55 2.75 1.55 2.9 1.45 2.95 1.1 2.65 -0.35 1.65 -1.0 1.3 -1.25 1.55 -1.2 1.8 -1.1 2.1 -1.0 2.7 0.05 3.6 0.05 3.75 -0.1 4.1 -0.25 4.05 -0.25 4.0 -0.4 3.9 -0.4 3.85 -0.55 3.7 -0.65 3.5 -0.9 3.1 -0.9 3.0 -1.05 2.85 -1.35 2.2 -1.45 2.15 -1.5 2.1 -1.5 2.05 -1.55 1.95 -1.55 1.9 -2.0 1.45 -1.95 1.35 -2.0 1.25 -2.05 1.2 -2.15 1.15 -2.2 1.05 -2.3 0.9 -2.4 0.7 -2.5 0.65 -2.55 0.6 -2.55 0.45 -2.75 0.25 -3.35 -0.25 -3.6 0.05 -3.85 0.1 -3.85 -0.1 Q-3.85 -0.8 -3.1 -2.25 L-3.05 -2.25 M6.45 -1.4 L5.7 -2.2 Q5.25 -2.6 4.45 -2.85 L4.25 -2.9 4.55 -3.55 8.3 -2.35 Q7.55 -2.4 6.45 -1.45 L6.45 -1.4" fill="#999999" fill-rule="evenodd" stroke="none"/>
    <path d="M4.15 1.4 Q4.7 0.55 5.6 -0.55 L6.45 -1.4 6.45 -1.45 Q7.55 -2.4 8.3 -2.35 L8.6 -2.3 8.65 -2.25 Q9.3 -1.85 8.9 0.2 L8.65 1.25 7.4 0.45 Q5.6 1.35 4.65 3.1 4.2 3.9 4.05 4.9 3.9 5.6 3.9 6.5 L3.9 7.25 3.8 7.3 Q3.15 7.85 3.8 8.2 L4.15 8.35 Q3.15 9.15 2.45 8.85 L2.1 8.5 -0.75 5.65 -3.6 1.0 -3.75 0.75 -3.85 0.1 -3.6 0.05 -3.35 -0.25 -2.75 0.25 -2.55 0.45 -2.55 0.6 -2.5 0.65 -2.4 0.7 -2.3 0.9 -2.2 1.05 -2.15 1.15 -2.05 1.2 -2.0 1.25 -1.95 1.35 -2.0 1.45 -1.55 1.9 -1.55 1.95 -1.5 2.05 -1.5 2.1 -1.45 2.15 -1.35 2.2 -1.05 2.85 -0.9 3.0 -0.9 3.1 -0.65 3.5 -0.55 3.7 -0.4 3.85 -0.4 3.9 -0.25 4.0 -0.25 4.05 -0.1 4.1 0.05 3.75 0.05 3.6 -1.0 2.7 -1.1 2.1 -1.2 1.8 -1.25 1.55 -1.0 1.3 -0.35 1.65 1.1 2.65 1.45 2.95 1.55 2.9 1.55 2.75 1.5 2.6 Q1.8 2.4 2.25 2.3 L2.55 2.4 2.6 2.45 3.0 2.55 3.45 2.75 4.15 1.4 M2.1 8.5 Q1.75 7.95 2.0 6.45 L2.9 3.8 3.45 2.75 2.9 3.8 2.0 6.45 Q1.75 7.95 2.1 8.5" fill="#666666" fill-rule="evenodd" stroke="none"/>
    <path d="M4.55 -3.55 L3.3 -3.55 0.35 -3.6 -0.95 -3.6 -1.3 -3.65 -2.0 -3.4 -3.05 -2.25 -3.1 -2.25 Q-3.85 -0.8 -3.85 -0.1 L-3.85 0.1 -3.75 0.75 -3.6 1.0 -0.75 5.65 2.1 8.5 2.45 8.85 2.35 8.8 2.1 8.5 Q1.75 7.95 2.0 6.45 L2.9 3.8 3.45 2.75 4.15 1.4 Q4.7 0.55 5.6 -0.55 L6.45 -1.4 6.45 -1.45 Q7.55 -2.4 8.3 -2.35 L4.55 -3.55 M8.65 -2.25 Q9.3 -1.85 8.9 0.2 L8.65 1.25 10.15 2.25 10.15 2.3 10.35 2.45 Q11.75 3.55 12.85 5.0 L13.3 5.7 13.65 6.5 13.95 8.45 13.9 9.1 M13.45 9.55 L14.0 10.85 14.1 11.75 Q12.85 11.7 12.6 12.9 12.4 14.0 10.25 14.3 L10.35 14.2 Q11.2 13.45 10.95 12.4 L10.5 11.4 Q9.55 9.85 8.2 9.25 6.85 8.6 4.95 8.35 L4.15 8.35 Q3.15 9.15 2.45 8.85 M12.05 8.45 L12.6 8.8 13.45 9.55 M12.05 8.45 L12.0 8.4 10.0 7.35 Q8.3 6.45 6.1 6.6 L6.0 6.6 5.75 6.65 4.7 6.85 Q4.25 7.0 3.9 7.25 L3.8 7.3 Q3.15 7.85 3.8 8.2 L4.15 8.35 M8.65 1.25 L7.4 0.45 Q5.6 1.35 4.65 3.1 4.2 3.9 4.05 4.9 3.9 5.6 3.9 6.5 L3.9 7.25" fill="none" stroke="#000000" stroke-linecap="round" stroke-linejoin="round" stroke-width="1.0"/>
  </g>
</svg>
