<?xml version="1.0" encoding="UTF-8" standalone="no"?>
<svg xmlns:ffdec="https://www.free-decompiler.com/flash" xmlns:xlink="http://www.w3.org/1999/xlink" ffdec:objectType="shape" height="25.55px" width="19.7px" xmlns="http://www.w3.org/2000/svg">
  <g transform="matrix(1.0, 0.0, 0.0, 1.0, 2.45, 10.45)">
    <path d="M11.35 4.2 L11.8 4.5 11.7 4.5 Q9.6 4.65 7.55 5.3 L7.4 4.95 7.35 4.85 Q6.15 4.1 4.9 3.6 L4.9 3.65 4.85 3.7 0.65 0.7 0.55 0.5 0.5 0.35 0.55 0.35 7.65 4.9 11.35 4.2" fill="#666666" fill-rule="evenodd" stroke="none"/>
    <path d="M11.8 4.5 L11.9 4.6 12.05 4.7 12.0 4.95 11.95 5.05 11.75 5.2 11.35 5.25 11.2 5.25 7.6 6.1 7.6 6.15 7.45 6.45 7.3 6.6 Q6.55 6.45 6.15 5.8 L4.25 4.35 4.05 4.25 3.9 4.05 3.85 3.95 0.0 1.5 -0.25 0.65 -0.25 0.4 -0.1 0.25 0.05 0.15 0.4 0.3 0.5 0.35 0.55 0.5 0.65 0.7 4.85 3.7 4.9 3.65 4.9 3.6 Q6.15 4.1 7.35 4.85 L7.4 4.95 7.55 5.3 Q9.6 4.65 11.7 4.5 L11.8 4.5" fill="#333333" fill-rule="evenodd" stroke="none"/>
    <path d="M2.85 -3.95 L3.55 -3.55 1.2 -2.0 1.25 -2.0 2.15 -1.25 1.6 -0.7 1.7 -0.45 1.75 -0.25 3.3 -0.4 3.4 -0.3 3.25 0.2 3.4 0.3 3.35 0.35 3.35 0.45 3.35 0.6 3.6 0.65 6.6 0.15 7.7 1.35 7.3 1.5 7.85 1.55 8.25 2.15 8.05 2.2 8.05 2.1 8.05 1.95 7.9 1.85 7.4 1.75 6.45 2.4 6.45 2.5 6.5 2.75 Q7.45 3.3 8.55 3.05 L9.85 3.0 9.9 3.05 10.3 3.1 11.75 2.95 12.2 2.95 12.25 3.05 12.35 3.15 12.65 3.2 12.65 3.65 12.7 3.9 11.85 4.1 11.35 4.2 7.65 4.9 0.55 0.35 0.5 0.35 0.4 0.3 0.05 0.15 -0.1 0.25 -0.25 0.4 -0.25 0.65 0.0 1.5 3.85 3.95 3.9 4.05 4.05 4.25 4.25 4.35 6.15 5.8 Q6.55 6.45 7.3 6.6 L7.45 6.45 7.6 6.15 7.6 6.1 11.2 5.25 11.35 5.25 11.75 5.2 11.95 5.05 12.0 4.95 12.05 4.7 14.25 6.4 14.25 13.0 9.3 14.25 9.15 10.5 -0.45 2.95 -1.5 -0.95 0.55 0.35 -1.5 -0.95 -1.5 -1.1 2.85 -3.95 M11.65 1.7 L12.15 1.7 13.15 2.35 12.8 2.4 11.65 2.05 11.65 1.7 11.65 2.05 9.65 2.15 10.25 1.65 11.65 1.7 M12.95 6.2 L12.85 6.25 12.65 6.55 12.5 7.5 12.45 8.2 12.3 8.25 Q12.05 8.15 11.65 8.4 L11.55 8.45 11.45 8.45 11.35 8.7 11.4 10.55 10.7 10.7 10.65 10.7 10.4 10.7 Q10.15 10.8 10.05 11.05 9.8 11.15 9.75 11.4 L9.8 11.65 10.05 12.6 10.0 12.9 Q10.05 13.25 10.45 13.35 L10.6 13.35 11.25 13.4 11.35 13.3 Q11.95 12.5 11.7 11.5 L11.75 11.4 11.9 11.35 12.25 11.2 Q12.75 10.95 12.65 10.35 L12.55 9.05 12.7 9.0 13.4 8.95 Q14.0 8.85 13.9 8.3 L13.8 8.2 13.5 8.2 13.7 7.65 13.6 7.0 Q13.6 6.3 12.95 6.2 M5.0 0.7 L5.0 0.65 4.95 0.65 5.0 0.7" fill="#ffffff" fill-rule="evenodd" stroke="none"/>
    <path d="M6.6 -1.65 L8.35 -0.6 6.65 0.0 6.6 0.1 6.6 0.15 3.6 0.65 3.35 0.6 3.35 0.45 3.35 0.35 3.4 0.3 3.25 0.2 3.4 -0.3 3.95 0.1 4.15 -0.05 5.45 -1.45 6.6 -1.65 M11.0 1.05 L11.6 1.4 11.65 1.7 10.25 1.65 11.0 1.05 M11.65 2.05 L11.75 2.95 10.3 3.1 9.9 3.05 9.85 3.0 8.55 3.05 Q7.45 3.3 6.5 2.75 L6.45 2.5 6.45 2.4 7.4 1.75 7.9 1.85 8.05 1.95 8.05 2.1 8.05 2.2 8.25 2.15 8.35 2.35 8.65 2.95 9.65 2.15 11.65 2.05 M3.3 -0.4 L1.75 -0.25 1.7 -0.45 1.6 -0.7 2.15 -1.25 3.3 -0.4 M12.95 6.2 Q13.6 6.3 13.6 7.0 L13.7 7.65 13.5 8.2 13.8 8.2 13.9 8.3 Q14.0 8.85 13.4 8.95 L12.7 9.0 12.55 9.05 12.65 10.35 Q12.75 10.95 12.25 11.2 L11.9 11.35 11.75 11.4 11.7 11.5 Q11.95 12.5 11.35 13.3 L11.25 13.4 10.6 13.35 10.45 13.35 Q10.05 13.25 10.0 12.9 L10.05 12.6 9.8 11.65 9.75 11.4 Q9.8 11.15 10.05 11.05 10.15 10.8 10.4 10.7 L10.65 10.7 10.7 10.7 11.4 10.55 11.35 8.7 11.45 8.45 11.55 8.45 11.65 8.4 Q12.05 8.15 12.3 8.25 L12.45 8.2 12.5 7.5 12.65 6.55 12.85 6.25 12.95 6.2 M7.7 1.35 L7.85 1.55 7.3 1.5 7.7 1.35" fill="#cccccc" fill-rule="evenodd" stroke="none"/>
    <path d="M3.55 -3.55 L13.4 -9.95 6.0 -2.05 5.45 -1.45 4.15 -0.05 2.3 -1.4 2.1 -1.55 1.25 -2.0 1.2 -2.0 3.55 -3.55 M8.35 -0.6 L16.75 -3.6 11.0 1.05 10.25 1.65 9.65 2.15 8.65 2.95 8.35 2.35 8.25 2.15 7.85 1.55 7.7 1.35 6.6 0.15 6.6 0.1 6.65 0.0 8.35 -0.6 M5.05 -4.1 L4.2 -3.4 4.15 -3.35 4.1 -3.3 4.0 -3.25 3.95 -3.25 3.9 -3.2 3.75 -3.05 3.65 -2.95 2.8 -2.6 2.7 -2.4 2.5 -2.0 2.75 -1.75 3.0 -1.7 3.15 -1.8 3.3 -2.0 Q4.0 -2.1 4.3 -2.6 L4.45 -2.65 4.65 -2.8 4.7 -2.8 4.75 -2.85 5.65 -3.55 5.7 -3.65 5.75 -3.75 6.75 -4.25 6.85 -4.4 7.35 -5.0 7.3 -5.15 7.15 -5.4 7.0 -5.4 6.8 -5.4 6.65 -5.25 6.6 -5.2 6.5 -5.2 6.45 -5.1 Q6.25 -4.8 5.85 -4.75 L5.75 -4.6 5.65 -4.45 5.55 -4.45 5.3 -4.35 5.2 -4.25 5.15 -4.15 5.05 -4.1 M8.85 -0.55 L8.55 -0.5 8.25 -0.3 7.9 0.05 Q7.95 0.5 8.4 0.5 L9.4 0.05 10.95 -0.45 11.0 -0.5 11.95 -1.3 11.9 -1.45 11.7 -1.75 11.6 -1.75 Q10.35 -1.05 8.9 -0.75 L8.85 -0.65 8.85 -0.55 M5.0 0.7 L4.95 0.65 5.0 0.65 5.0 0.7" fill="#000099" fill-rule="evenodd" stroke="none"/>
    <path d="M5.05 -4.1 L5.15 -4.15 5.2 -4.25 5.3 -4.35 5.55 -4.45 5.65 -4.45 5.75 -4.6 5.85 -4.75 Q6.25 -4.8 6.45 -5.1 L6.5 -5.2 6.6 -5.2 6.65 -5.25 6.8 -5.4 7.0 -5.4 7.15 -5.4 7.3 -5.15 7.35 -5.0 6.85 -4.4 6.75 -4.25 5.75 -3.75 5.7 -3.65 5.65 -3.55 4.75 -2.85 4.7 -2.8 4.65 -2.8 4.45 -2.65 4.3 -2.6 Q4.0 -2.1 3.3 -2.0 L3.15 -1.8 3.0 -1.7 2.75 -1.75 2.5 -2.0 2.7 -2.4 2.8 -2.6 3.65 -2.95 3.75 -3.05 3.9 -3.2 3.95 -3.25 4.0 -3.25 4.1 -3.3 4.15 -3.35 4.2 -3.4 5.05 -4.1 M8.85 -0.55 L8.85 -0.65 8.9 -0.75 Q10.35 -1.05 11.6 -1.75 L11.7 -1.75 11.9 -1.45 11.95 -1.3 11.0 -0.5 10.95 -0.45 9.4 0.05 8.4 0.5 Q7.95 0.5 7.9 0.05 L8.25 -0.3 8.55 -0.5 8.85 -0.55" fill="#8c88d2" fill-rule="evenodd" stroke="none"/>
    <path d="M1.25 -2.0 L2.1 -1.55 2.3 -1.4 4.15 -0.05 3.95 0.1 3.4 -0.3 3.3 -0.4 2.15 -1.25 1.25 -2.0" fill="#fefefe" fill-rule="evenodd" stroke="none"/>
    <path d="M11.85 4.1 L11.35 4.2 11.8 4.5 M12.05 4.7 L14.25 6.4 14.25 13.0 9.3 14.25 9.15 10.5 -0.45 2.95 -1.5 -0.95 -1.6 -1.05 -1.5 -1.1 2.85 -3.95 M-1.5 -0.95 L-1.5 -1.1" fill="none" stroke="#000000" stroke-linecap="round" stroke-linejoin="round" stroke-width="1.75"/>
    <path d="M3.55 -3.55 L13.4 -9.95 6.0 -2.05 5.45 -1.45 4.15 -0.05 3.95 0.1 3.4 -0.3 3.3 -0.4 2.15 -1.25 1.25 -2.0 M8.35 -0.6 L16.75 -3.6 11.0 1.05 10.25 1.65 9.65 2.15 8.65 2.95 M1.2 -2.0 L3.55 -3.55 M0.55 0.35 L-1.5 -0.95 M11.35 4.2 L7.65 4.9 0.55 0.35 M8.35 -0.6 L6.65 0.0" fill="none" stroke="#000000" stroke-linecap="round" stroke-linejoin="round" stroke-width="1.0"/>
    <path d="M6.0 -2.05 L6.6 -1.65 8.35 -0.6 M11.6 1.4 L11.65 1.7 11.65 2.05 11.75 2.95" fill="none" stroke="#000000" stroke-linecap="round" stroke-linejoin="round" stroke-width="2.0"/>
    <path d="M1.25 -2.0 L1.2 -2.0 M8.65 2.95 L8.35 2.35 8.25 2.15 7.85 1.55 7.7 1.35 6.6 0.15 6.6 0.1" fill="none" stroke="#000000" stroke-linecap="round" stroke-linejoin="round" stroke-width="1.0"/>
  </g>
</svg>
