<?xml version="1.0" encoding="UTF-8" standalone="no"?>
<svg xmlns:ffdec="https://www.free-decompiler.com/flash" xmlns:xlink="http://www.w3.org/1999/xlink" ffdec:objectType="shape" height="75.7px" width="40.35px" xmlns="http://www.w3.org/2000/svg">
  <g transform="matrix(1.0, 0.0, 0.0, 1.0, 25.3, 73.25)">
    <path d="M8.75 -50.6 Q7.85 -47.85 5.5 -49.7 L1.2 -51.9 1.25 -50.65 1.3 -49.8 2.05 -44.7 2.1 -44.6 1.8 -44.1 2.5 -38.75 2.6 -37.15 Q3.75 -36.35 4.1 -34.85 L4.2 -33.4 Q4.1 -29.55 4.9 -25.8 5.45 -23.1 5.05 -20.5 6.4 -19.15 7.2 -17.15 L9.15 -12.75 9.35 -12.1 Q12.45 -6.9 14.85 -1.5 L15.05 -0.45 14.85 1.05 Q14.45 2.65 12.1 2.45 8.35 2.1 4.9 1.05 4.25 0.85 4.2 0.15 4.1 -1.95 6.1 -2.15 L10.45 -2.0 9.35 -4.15 Q6.65 -7.85 4.85 -12.0 L4.1 -13.55 Q3.0 -15.55 2.2 -17.6 L1.9 -18.45 Q1.15 -19.0 1.1 -20.5 1.1 -25.6 0.2 -30.55 L0.05 -31.45 -2.7 -28.05 Q-5.55 -24.9 -7.65 -21.3 -7.25 -20.4 -7.25 -19.15 L-7.15 -14.35 Q-6.9 -9.9 -5.4 -5.75 -4.5 -3.4 -4.65 -1.05 L-4.5 -0.7 Q-4.25 0.75 -5.15 1.25 L-5.8 1.6 -6.6 1.6 -13.25 1.9 -15.15 1.65 Q-18.35 0.75 -16.15 -1.6 -15.55 -2.25 -14.55 -2.4 L-13.6 -2.5 -8.95 -2.3 Q-9.25 -5.3 -10.0 -8.25 -10.9 -11.85 -11.35 -15.55 L-11.9 -19.85 Q-12.1 -21.1 -11.65 -21.95 L-11.3 -22.85 -9.2 -26.1 -4.2 -32.95 -2.85 -34.85 -2.05 -36.05 -1.9 -36.35 -1.85 -36.95 Q-1.65 -38.7 -1.75 -40.5 L-2.0 -44.6 -2.05 -45.15 -1.8 -45.2 -1.9 -45.8 -2.1 -46.85 Q-2.9 -48.95 -2.95 -51.25 L-2.9 -51.95 -2.9 -52.85 -3.1 -54.45 -4.5 -55.4 Q-8.95 -57.0 -11.05 -60.9 -11.6 -61.8 -11.4 -62.9 -11.15 -64.45 -9.65 -64.55 -5.9 -64.6 -6.35 -61.05 L-6.35 -60.8 -6.15 -60.6 -6.0 -60.45 -3.85 -59.3 -3.9 -59.55 Q-4.8 -64.75 -6.35 -69.75 -7.85 -71.7 -5.7 -72.95 L-5.0 -73.25 Q-1.6 -72.15 -1.4 -68.25 L-1.2 -66.55 Q-0.25 -61.7 0.45 -56.75 L8.45 -51.65 Q9.0 -51.3 8.75 -50.6 M-23.15 -66.0 Q-19.05 -66.25 -19.5 -62.5 -19.6 -61.75 -20.3 -61.45 L-21.15 -61.1 Q-20.5 -59.35 -19.1 -58.05 L-17.95 -56.7 Q-13.9 -54.3 -11.35 -50.55 -10.9 -49.9 -11.45 -49.25 -13.05 -47.4 -14.85 -49.2 L-19.2 -53.25 Q-25.5 -57.05 -25.3 -64.25 L-25.0 -64.95 Q-24.2 -65.9 -23.15 -66.0" fill="#666666" fill-rule="evenodd" stroke="none"/>
  </g>
</svg>
