<?xml version="1.0" encoding="UTF-8" standalone="no"?>
<svg xmlns:ffdec="https://www.free-decompiler.com/flash" xmlns:xlink="http://www.w3.org/1999/xlink" ffdec:objectType="shape" height="26.1px" width="19.15px" xmlns="http://www.w3.org/2000/svg">
  <g transform="matrix(1.0, 0.0, 0.0, 1.0, 1.95, 14.0)">
    <path d="M0.55 -4.4 L0.0 -4.25 Q-2.8 -4.5 -1.6 -6.85 L-0.75 -8.15 Q3.0 -12.6 8.5 -13.85 13.2 -14.7 15.1 -10.9 15.3 -10.5 15.0 -10.15 L14.55 -9.65 Q17.05 -7.05 17.2 -3.1 17.35 1.55 16.55 5.95 16.05 8.55 13.9 10.0 14.4 12.05 11.85 12.1 11.15 12.1 10.65 11.5 L5.65 5.2 5.6 5.05 3.05 3.4 Q1.95 2.75 1.4 1.55 L-0.1 -2.55 -0.4 -3.95 0.3 -4.15 1.95 -4.95 1.05 -4.9 0.55 -4.4" fill="#ff0000" fill-rule="evenodd" stroke="none"/>
  </g>
</svg>
