<?xml version="1.0" encoding="UTF-8" standalone="no"?>
<svg xmlns:ffdec="https://www.free-decompiler.com/flash" xmlns:xlink="http://www.w3.org/1999/xlink" ffdec:objectType="shape" height="13.2px" width="11.45px" xmlns="http://www.w3.org/2000/svg">
  <g transform="matrix(1.0, 0.0, 0.0, 1.0, 7.2, 5.8)">
    <path d="M0.25 -5.1 L0.3 -5.0 1.45 -4.15 1.45 -4.05 Q1.15 -3.6 0.55 -3.9 L0.45 -4.1 0.35 -4.25 Q-0.45 -4.7 -0.9 -5.45 L-0.75 -5.7 -0.45 -5.8 -0.2 -5.65 0.1 -5.45 0.15 -5.3 0.25 -5.1" fill="#4a4a4a" fill-rule="evenodd" stroke="none"/>
    <path d="M-5.0 3.05 L-5.45 3.05 -5.6 2.95 -5.65 2.9 -7.05 2.5 -7.2 2.4 -7.15 2.2 -7.05 2.1 -6.9 2.05 -5.7 2.2 -5.75 2.1 -5.65 1.95 -5.45 1.85 -5.45 1.8 -5.0 1.9 -4.85 1.85 -4.85 1.8 -0.55 2.2 0.0 2.25 0.35 2.25 -0.7 2.1 -1.4 1.9 -1.4 1.75 -1.3 1.65 -1.15 1.6 -1.15 1.55 2.0 2.2 2.5 2.3 3.65 2.3 3.9 2.5 4.25 2.85 4.15 3.0 3.95 3.15 3.55 3.05 3.45 2.95 3.35 2.9 2.8 2.9 2.8 2.95 2.65 3.05 2.55 3.05 2.1 3.05 -3.65 3.1 -5.0 3.05 M-3.6 2.5 L-3.6 2.55 -3.5 2.55 -3.6 2.5" fill="#000000" fill-opacity="0.2" fill-rule="evenodd" stroke="none"/>
    <path d="M2.65 3.05 Q3.0 3.75 2.85 4.7 L2.85 4.85 2.4 5.1 Q2.05 4.2 2.1 3.2 L2.1 3.05 2.55 3.05 2.65 3.05 M2.4 6.6 L2.15 7.1 2.1 7.3 1.85 7.4 1.45 7.35 Q1.3 6.95 1.5 6.65 L1.65 6.3 1.85 6.2 2.2 6.25 2.35 6.45 2.4 6.6" fill="#3b3b3b" fill-rule="evenodd" stroke="none"/>
    <path d="M0.1 7.2 L-0.05 7.4 -1.05 7.1 -1.2 7.0 -1.15 6.85 -0.9 6.7 -0.9 6.65 -0.05 6.7 0.1 6.9 0.15 7.05 0.1 7.2" fill="#6a6a6a" fill-rule="evenodd" stroke="none"/>
    <path d="M-3.65 3.1 L-3.7 3.1 -4.0 3.45 -5.1 3.3 -5.1 3.15 -5.0 3.05 -3.65 3.1 M-6.0 -4.95 L-5.9 -5.25 -5.75 -5.25 -5.65 -5.25 -4.9 -5.05 -4.75 -4.9 -4.6 -4.65 -4.6 -4.85 -4.3 -5.05 -4.2 -5.05 -3.25 -3.7 -3.15 -3.5 -3.15 -3.35 -3.15 -3.15 -3.6 -2.95 -4.1 -3.45 -4.6 -3.8 -5.15 -3.7 -5.25 -3.85 -5.15 -4.35 -5.25 -4.45 -5.3 -4.5 -6.05 -4.8 -6.0 -4.95 M-2.2 -4.5 L-2.05 -4.65 -1.7 -4.6 -1.55 -4.4 -1.55 -4.25 -1.55 -4.1 -1.7 -3.9 -2.0 -3.9 Q-2.45 -4.15 -2.2 -4.5 M-3.15 5.25 L-2.65 5.3 -2.5 5.5 -2.5 5.65 -3.45 5.6 -3.4 5.45 -3.15 5.25" fill="#878787" fill-rule="evenodd" stroke="none"/>
  </g>
</svg>
