<?xml version="1.0" encoding="UTF-8" standalone="no"?>
<svg xmlns:ffdec="https://www.free-decompiler.com/flash" xmlns:xlink="http://www.w3.org/1999/xlink" ffdec:objectType="shape" height="12.9px" width="15.1px" xmlns="http://www.w3.org/2000/svg">
  <g transform="matrix(1.0, 0.0, 0.0, 1.0, -3.3, 9.9)">
    <path d="M6.3 -9.65 L6.3 -9.55 6.25 -9.4 6.3 -9.4 6.3 -9.35 6.25 -8.65 6.4 -8.5 6.75 -7.8 7.8 -7.6 7.95 -7.8 8.0 -7.95 7.3 -8.8 7.25 -9.0 7.2 -9.15 6.95 -9.35 9.95 -9.25 10.2 -9.35 10.2 -9.5 10.05 -9.7 6.55 -9.75 6.45 -9.65 6.4 -9.65 6.3 -9.65 M7.95 -6.55 L6.95 -7.45 5.2 -6.05 4.85 -5.85 3.3 -8.35 5.05 -9.2 4.3 -9.9 14.75 -9.7 7.95 -6.55" fill="#4120a2" fill-rule="evenodd" stroke="none"/>
    <path d="M6.3 -9.65 L6.4 -9.65 6.45 -9.65 6.55 -9.75 10.05 -9.7 10.2 -9.5 10.2 -9.35 9.95 -9.25 6.95 -9.35 7.2 -9.15 7.25 -9.0 7.3 -8.8 8.0 -7.95 7.95 -7.8 7.8 -7.6 6.75 -7.8 6.4 -8.5 6.25 -8.65 6.3 -9.35 6.3 -9.4 6.25 -9.4 6.3 -9.55 6.3 -9.65" fill="#582cdc" fill-rule="evenodd" stroke="none"/>
    <path d="M5.85 -4.6 L6.0 -4.8 9.6 -5.3 9.2 -6.2 18.2 -5.95 10.85 -2.5 10.15 -3.4 7.7 -2.8 5.85 -4.6 M13.9 -5.5 L13.85 -5.65 13.65 -5.75 10.85 -6.05 10.8 -6.05 10.7 -6.05 10.55 -6.0 10.45 -5.85 10.4 -5.7 10.55 -5.6 10.75 -5.55 10.85 -5.15 11.1 -4.95 11.2 -4.8 11.5 -4.8 11.7 -4.95 11.65 -5.3 11.65 -5.45 13.75 -5.3 13.9 -5.5" fill="#221155" fill-rule="evenodd" stroke="none"/>
    <path d="M13.9 -5.5 L13.75 -5.3 11.65 -5.45 11.65 -5.3 11.7 -4.95 11.5 -4.8 11.2 -4.8 11.1 -4.95 10.85 -5.15 10.75 -5.55 10.55 -5.6 10.4 -5.7 10.45 -5.85 10.55 -6.0 10.7 -6.05 10.8 -6.05 10.85 -6.05 13.65 -5.75 13.85 -5.65 13.9 -5.5" fill="#5028ca" fill-rule="evenodd" stroke="none"/>
    <path d="M8.45 -0.65 L10.65 -0.4 11.05 -1.7 18.4 -2.6 9.65 3.0 9.9 2.05 8.0 2.25 8.05 -0.65 8.45 -0.65" fill="#0e0723" fill-rule="evenodd" stroke="none"/>
  </g>
</svg>
