<?xml version="1.0" encoding="UTF-8" standalone="no"?>
<svg xmlns:ffdec="https://www.free-decompiler.com/flash" xmlns:xlink="http://www.w3.org/1999/xlink" ffdec:objectType="shape" height="17.35px" width="16.55px" xmlns="http://www.w3.org/2000/svg">
  <g transform="matrix(1.0, 0.0, 0.0, 1.0, 7.95, 8.3)">
    <path d="M-7.7 3.5 L-7.95 2.95 -7.95 -3.15 -7.85 -3.25 Q-7.25 -4.7 -6.0 -5.9 -3.5 -8.3 0.05 -8.3 3.6 -8.3 6.1 -5.9 8.6 -3.45 8.6 0.0 8.6 1.9 7.85 3.5 L-7.7 3.5" fill="url(#gradient0)" fill-rule="evenodd" stroke="none"/>
    <path d="M7.85 3.5 L6.1 6.25 5.6 6.75 3.2 8.4 Q1.75 9.05 0.05 9.05 L-3.05 8.4 Q-4.4 7.8 -5.5 6.75 L-6.0 6.25 Q-7.1 5.0 -7.7 3.5 L7.85 3.5" fill="url(#gradient1)" fill-rule="evenodd" stroke="none"/>
  </g>
  <defs>
    <radialGradient cx="0" cy="0" gradientTransform="matrix(0.0159, 0.0, 0.0, 0.0159, -2.75, -3.7)" gradientUnits="userSpaceOnUse" id="gradient0" r="819.2" spreadMethod="pad">
      <stop offset="0.0" stop-color="#6699ff"/>
      <stop offset="0.23921568627450981" stop-color="#6633ff"/>
      <stop offset="1.0" stop-color="#000000"/>
    </radialGradient>
    <radialGradient cx="0" cy="0" gradientTransform="matrix(0.0159, 0.0, 0.0, 0.0184, -2.75, -4.85)" gradientUnits="userSpaceOnUse" id="gradient1" r="819.2" spreadMethod="pad">
      <stop offset="0.0" stop-color="#6699ff"/>
      <stop offset="0.23921568627450981" stop-color="#6633ff"/>
      <stop offset="1.0" stop-color="#000000"/>
    </radialGradient>
  </defs>
</svg>
