<?xml version="1.0" encoding="UTF-8" standalone="no"?>
<svg xmlns:ffdec="https://www.free-decompiler.com/flash" xmlns:xlink="http://www.w3.org/1999/xlink" ffdec:objectType="shape" height="8.4px" width="14.05px" xmlns="http://www.w3.org/2000/svg">
  <g transform="matrix(1.0, 0.0, 0.0, 1.0, 6.05, 7.25)">
    <path d="M0.25 -6.85 L0.3 -7.1 0.35 -7.15 0.7 -7.25 Q1.55 -6.85 2.0 -6.1 L2.1 -5.9 2.0 -3.7 1.9 -3.15 1.7 -3.0 1.4 -3.15 1.4 -3.3 1.35 -3.5 1.2 -3.2 1.05 -3.0 0.4 -3.2 0.75 -3.85 0.9 -4.05 Q1.0 -4.9 0.7 -5.6 0.6 -5.85 0.65 -6.15 L0.25 -6.65 0.25 -6.85 M1.45 -5.5 L1.45 -3.95 1.45 -3.85 Q1.7 -4.6 1.5 -5.55 L1.45 -5.5" fill="#5329cf" fill-rule="evenodd" stroke="none"/>
    <path d="M4.7 -4.2 L4.7 -3.2 4.7 -3.0 4.45 -2.7 4.45 -2.0 4.45 -1.8 3.6 -1.1 3.55 -0.95 3.5 -0.75 2.85 -0.5 2.55 -0.75 Q2.5 -1.15 2.9 -1.3 L2.95 -1.45 3.05 -1.65 3.9 -2.5 3.75 -2.65 4.0 -2.95 4.0 -3.15 4.0 -4.2 4.35 -4.3 4.45 -4.4 4.45 -4.5 4.5 -4.45 4.7 -4.2 M4.4 -6.15 L4.2 -6.1 4.2 -6.25 4.4 -6.15" fill="#4321a8" fill-rule="evenodd" stroke="none"/>
    <path d="M3.75 -2.65 L3.25 -1.95 2.85 -1.85 Q2.6 -2.2 2.8 -2.55 L2.9 -2.75 2.75 -2.9 Q2.9 -3.4 3.35 -3.75 L3.45 -5.45 3.4 -5.5 3.4 -5.7 3.45 -5.75 3.4 -6.2 3.4 -6.55 3.65 -6.7 3.7 -6.8 3.95 -6.95 3.95 -7.0 Q5.15 -6.7 6.05 -5.75 L6.25 -5.55 6.3 -5.4 6.3 -5.25 6.75 -4.9 7.0 -4.25 7.15 -4.05 7.2 -3.9 7.25 -3.75 7.15 -3.85 6.8 -4.3 6.65 -4.45 6.35 -4.65 6.25 -4.65 6.15 -4.55 5.9 -4.65 5.65 -4.5 5.5 -4.25 5.75 -3.9 5.75 -3.85 5.5 -3.5 4.7 -4.2 4.5 -4.45 4.45 -4.5 4.45 -4.4 4.35 -4.3 4.0 -4.2 4.0 -3.15 4.0 -2.95 3.75 -2.65 M7.5 -3.35 L7.65 -3.2 7.7 -2.9 7.55 -3.1 7.5 -3.25 7.5 -3.35 M7.7 -2.8 L7.75 -2.3 7.7 -2.4 7.7 -2.45 7.7 -2.55 7.7 -2.8 M4.4 -6.15 L4.2 -6.25 4.2 -6.1 4.4 -6.15 M4.8 -5.2 L4.75 -5.15 5.4 -4.4 5.45 -4.35 4.9 -5.15 4.8 -5.2" fill="#6331f8" fill-rule="evenodd" stroke="none"/>
    <path d="M-2.55 -6.8 L-2.55 -6.85 -1.95 -6.75 -1.85 -6.85 -0.8 -6.75 -0.6 -6.6 Q-1.25 -5.75 -2.45 -5.55 L-3.05 -5.15 -3.35 -5.15 -3.55 -5.15 -4.05 -4.85 -4.55 -4.5 -4.65 -4.4 -4.7 -4.3 -5.05 -3.75 -5.45 -3.7 -5.75 -3.5 -6.0 -3.65 -6.05 -3.75 -5.85 -4.3 Q-5.6 -4.5 -5.6 -4.8 L-3.4 -6.15 Q-3.0 -6.35 -2.75 -6.7 L-2.55 -6.8" fill="#6679ff" fill-rule="evenodd" stroke="none"/>
    <path d="M7.25 -3.75 L7.4 -3.55 7.45 -3.45 7.5 -3.35 7.5 -3.25 7.55 -3.1 7.7 -2.9 7.7 -2.8 7.7 -2.55 7.7 -2.45 7.7 -2.4 7.75 -2.3 7.75 -2.25 7.9 -2.05 8.0 -1.35 8.0 -1.2 7.8 -1.0 7.7 -1.0 7.7 0.2 7.7 0.4 7.7 0.65 7.7 0.85 7.4 1.15 7.1 1.0 7.1 0.55 6.95 0.65 6.65 0.55 6.65 -1.5 6.65 -2.05 6.35 -2.35 6.25 -2.7 6.25 -2.85 5.95 -3.2 5.5 -3.5 5.75 -3.85 5.75 -3.9 5.5 -4.25 5.65 -4.5 5.9 -4.65 6.15 -4.55 6.25 -4.65 6.35 -4.65 6.65 -4.45 6.8 -4.3 7.15 -3.85 7.25 -3.75" fill="#2e1774" fill-rule="evenodd" stroke="none"/>
  </g>
</svg>
