<?xml version="1.0" encoding="UTF-8" standalone="no"?>
<svg xmlns:ffdec="https://www.free-decompiler.com/flash" xmlns:xlink="http://www.w3.org/1999/xlink" ffdec:objectType="shape" height="7.5px" width="10.5px" xmlns="http://www.w3.org/2000/svg">
  <g transform="matrix(1.0, 0.0, 0.0, 1.0, 11.95, 5.05)">
    <path d="M-3.8 1.45 L-3.7 1.65 -3.7 1.8 -5.95 1.8 -8.0 1.7 -8.1 1.7 -8.15 1.7 -8.25 1.9 -10.0 1.75 Q-9.85 1.25 -9.4 1.05 L-8.4 0.9 -8.3 0.9 -4.75 0.95 -4.65 1.1 -4.6 1.15 -4.4 1.35 -4.4 1.4 -3.8 1.45 M-7.35 1.3 L-7.4 1.3 -7.35 1.3" fill="#99732b" fill-rule="evenodd" stroke="none"/>
    <path d="M-2.2 -4.3 L-2.2 1.7 Q-5.85 -0.45 -9.45 0.9 L-9.5 0.9 -11.2 1.7 -11.2 -4.3 -2.2 -4.3 Z" fill="none" stroke="#000000" stroke-linecap="round" stroke-linejoin="round" stroke-width="1.5"/>
  </g>
</svg>
