<?xml version="1.0" encoding="UTF-8" standalone="no"?>
<svg xmlns:ffdec="https://www.free-decompiler.com/flash" xmlns:xlink="http://www.w3.org/1999/xlink" ffdec:objectType="shape" height="27.05px" width="25.75px" xmlns="http://www.w3.org/2000/svg">
  <g transform="matrix(1.0, 0.0, 0.0, 1.0, 12.2, 11.1)">
    <path d="M5.4 10.65 L5.45 10.55 5.75 10.2 5.75 10.05 5.35 9.75 5.55 9.75 5.6 9.85 5.95 10.05 Q6.9 9.5 7.4 8.5 8.0 8.3 8.05 7.75 L7.95 7.6 7.5 7.4 7.5 7.45 7.25 7.5 7.2 7.55 7.0 7.4 7.0 7.45 6.85 7.5 6.8 7.45 6.5 7.25 6.25 7.3 5.55 7.9 5.55 8.05 5.55 8.15 5.4 8.25 Q5.05 8.55 4.95 8.95 L4.45 8.9 Q3.1 9.15 1.75 9.9 0.5 10.6 -0.6 11.65 L-0.6 11.75 -0.65 11.9 -0.8 12.0 -0.95 12.15 -0.95 12.25 -0.95 12.4 -0.95 12.5 -1.1 12.65 -1.2 12.75 -1.2 12.9 -1.25 13.0 -1.25 13.15 -1.5 13.4 -1.6 13.5 -1.6 13.65 -1.7 14.25 -1.7 14.4 -1.0 14.55 -0.9 14.45 -0.65 14.0 -0.3 13.25 -0.1 12.7 0.1 12.6 0.2 12.45 0.2 12.35 0.25 12.25 0.25 12.1 0.65 11.9 0.75 11.95 1.15 12.0 1.25 11.95 Q2.45 11.25 3.75 10.8 L5.1 10.75 Q-0.6 12.35 0.05 15.2 L-11.3 15.2 -11.3 14.7 -10.5 11.35 -1.8 10.9 Q-0.9 11.25 0.15 10.9 L0.25 10.85 0.75 10.4 0.8 7.8 Q0.9 6.15 -0.2 5.45 L-0.35 5.5 -0.6 5.85 -0.5 6.05 -0.5 6.45 -0.65 6.6 -0.7 6.7 -0.75 7.05 -0.6 8.95 -0.7 9.2 -0.95 9.7 -1.2 9.75 -1.95 9.9 -4.0 10.15 -5.15 10.1 -5.35 10.15 Q-7.75 10.05 -10.2 10.25 L-10.1 9.65 -1.15 9.65 -1.15 5.5 -9.3 6.2 -8.8 4.1 3.85 -10.35 -1.4 0.55 9.45 -8.8 3.35 2.55 12.8 -4.2 5.5 6.1 5.35 6.35 5.15 6.6 9.3 7.75 6.6 10.35 5.4 10.65 M8.2 -0.3 L8.3 -0.35 8.85 -0.7 9.4 -0.35 9.4 -0.25 9.45 -0.35 9.55 -0.75 9.45 -0.85 9.1 -1.05 8.95 -1.0 8.85 -1.0 8.3 -0.35 Q6.55 0.65 5.2 2.1 L5.2 2.35 5.25 2.6 5.65 2.8 Q6.15 2.35 6.8 1.95 L7.05 1.6 7.1 1.35 8.15 0.1 8.2 -0.05 8.2 -0.3 M2.05 -1.65 L2.1 -1.25 Q2.3 -1.0 2.65 -1.1 L4.45 -2.6 4.55 -2.65 4.5 -2.55 4.35 -2.45 4.2 -2.3 4.2 -2.2 4.2 -2.05 4.05 -1.95 3.95 -1.8 3.9 -1.55 3.9 -1.45 3.8 -1.3 3.55 -0.95 3.55 -0.7 3.5 -0.55 3.05 0.05 3.0 0.3 2.55 1.3 Q2.8 1.8 3.35 1.6 L3.55 1.35 3.9 0.4 4.35 -0.1 4.35 -0.35 4.4 -0.6 4.5 -0.75 4.7 -1.0 4.75 -1.25 4.75 -1.35 5.35 -2.1 5.4 -2.35 5.55 -2.85 5.75 -3.0 5.85 -3.1 5.9 -3.35 6.25 -4.2 6.9 -4.85 6.9 -5.1 6.9 -5.2 6.8 -5.35 6.75 -5.35 6.75 -5.4 6.35 -5.7 6.15 -5.65 Q5.2 -5.3 5.0 -4.3 L2.05 -1.9 2.05 -1.65 M0.2 -5.35 L0.2 -5.3 Q-0.45 -5.15 -0.85 -4.55 L-0.9 -4.45 -1.1 -4.05 -1.15 -3.85 -1.2 -3.7 -2.1 -2.8 -2.1 -2.7 -2.15 -2.55 -2.25 -2.45 -4.1 -0.3 -4.1 -0.2 -4.15 -0.05 -4.3 0.05 Q-5.35 0.85 -5.85 1.95 L-5.8 2.1 -5.15 2.25 -5.05 2.15 -4.45 1.55 -4.4 1.45 -4.4 1.3 -4.15 1.2 -4.1 1.2 -3.35 0.45 -2.45 -0.55 -2.4 -0.65 -0.85 -2.75 -0.5 -2.85 -0.4 -3.1 -0.3 -3.4 0.1 -3.9 0.1 -4.0 0.05 -4.1 0.15 -4.35 Q0.6 -4.45 0.75 -4.9 L0.7 -5.0 0.2 -5.35 M-8.5 12.8 L-8.8 12.55 -9.0 12.6 -9.25 12.8 -9.25 12.95 -9.3 13.05 -9.4 13.2 -9.55 13.3 -9.55 13.55 -9.5 14.65 -8.8 14.75 -8.75 14.5 -8.65 13.75 -8.55 13.65 -8.4 12.9 -8.5 12.8 M-7.0 12.8 L-7.35 12.55 -7.45 12.6 Q-7.95 13.0 -7.9 13.7 L-8.05 13.8 -8.05 14.05 -8.0 14.65 -7.35 14.75 -7.2 14.5 -6.9 12.9 -7.0 12.8 M-5.4 13.1 L-5.5 13.0 Q-5.65 12.85 -5.85 12.75 L-5.95 12.85 Q-6.6 13.7 -6.35 14.9 L-5.65 14.95 -5.6 14.7 -5.4 13.1" fill="#666666" fill-rule="evenodd" stroke="none"/>
    <path d="M0.2 -5.35 L0.7 -5.0 0.75 -4.9 Q0.6 -4.45 0.15 -4.35 L0.05 -4.1 0.1 -4.0 0.1 -3.9 -0.3 -3.4 -0.4 -3.1 -0.5 -2.85 -0.85 -2.75 -2.4 -0.65 -2.45 -0.55 -3.35 0.45 -4.1 1.2 -4.15 1.2 -4.4 1.3 -4.4 1.45 -4.45 1.55 -5.05 2.15 -5.15 2.25 -5.8 2.1 -5.85 1.95 Q-5.35 0.85 -4.3 0.05 L-4.15 -0.05 -4.1 -0.2 -4.1 -0.3 -2.25 -2.45 -2.15 -2.55 -2.1 -2.7 -2.1 -2.8 -1.2 -3.7 -1.15 -3.85 -1.1 -4.05 -0.9 -4.45 -0.85 -4.55 Q-0.45 -5.15 0.2 -5.3 L0.2 -5.35 M2.05 -1.65 L2.05 -1.9 5.0 -4.3 Q5.2 -5.3 6.15 -5.65 L6.35 -5.7 6.75 -5.4 6.75 -5.35 6.8 -5.35 6.9 -5.2 6.9 -5.1 6.9 -4.85 6.25 -4.2 5.9 -3.35 5.85 -3.1 5.75 -3.0 5.55 -2.85 5.4 -2.35 5.35 -2.1 4.75 -1.35 4.75 -1.25 4.7 -1.0 4.5 -0.75 4.4 -0.6 4.35 -0.35 4.35 -0.1 3.9 0.4 3.55 1.35 3.35 1.6 Q2.8 1.8 2.55 1.3 L3.0 0.3 3.05 0.05 3.5 -0.55 3.55 -0.7 3.55 -0.95 3.8 -1.3 3.9 -1.45 3.9 -1.55 3.95 -1.8 4.05 -1.95 4.2 -2.05 4.2 -2.2 4.2 -2.3 4.35 -2.45 4.5 -2.55 4.55 -2.65 4.45 -2.6 2.65 -1.1 Q2.3 -1.0 2.1 -1.25 L2.05 -1.65 M8.2 -0.3 L8.2 -0.05 8.15 0.1 7.1 1.35 7.05 1.6 6.8 1.95 Q6.15 2.35 5.65 2.8 L5.25 2.6 5.2 2.35 5.2 2.1 Q6.55 0.65 8.3 -0.35 L8.85 -1.0 8.95 -1.0 9.1 -1.05 9.45 -0.85 9.55 -0.75 9.45 -0.35 9.4 -0.25 9.4 -0.35 8.85 -0.7 8.3 -0.35 8.2 -0.3 M5.1 10.75 L3.75 10.8 Q2.45 11.25 1.25 11.95 L1.15 12.0 0.75 11.95 0.65 11.9 0.25 12.1 0.25 12.25 0.2 12.35 0.2 12.45 0.1 12.6 -0.1 12.7 -0.3 13.25 -0.65 14.0 -0.9 14.45 -1.0 14.55 -1.7 14.4 -1.7 14.25 -1.6 13.65 -1.6 13.5 -1.5 13.4 -1.25 13.15 -1.25 13.0 -1.2 12.9 -1.2 12.75 -1.1 12.65 -0.95 12.5 -0.95 12.4 -0.95 12.25 -0.95 12.15 -0.8 12.0 -0.65 11.9 -0.6 11.75 -0.6 11.65 Q0.5 10.6 1.75 9.9 3.1 9.15 4.45 8.9 L4.95 8.95 Q5.05 8.55 5.4 8.25 L5.55 8.15 5.55 8.05 5.55 7.9 6.25 7.3 6.5 7.25 6.8 7.45 6.85 7.5 7.0 7.45 7.0 7.4 7.2 7.55 7.25 7.5 7.5 7.45 7.5 7.4 7.95 7.6 8.05 7.75 Q8.0 8.3 7.4 8.5 6.9 9.5 5.95 10.05 L5.6 9.85 5.55 9.75 5.35 9.75 5.75 10.05 5.75 10.2 5.45 10.55 5.4 10.65 5.3 10.7 5.1 10.75 M5.35 6.35 L5.5 6.1 5.45 6.25 5.35 6.35 M-10.2 10.25 Q-7.75 10.05 -5.35 10.15 L-5.15 10.1 -4.0 10.15 -1.95 9.9 -1.2 9.75 -0.95 9.7 -0.7 9.2 -0.6 8.95 -0.75 7.05 -0.7 6.7 -0.65 6.6 -0.5 6.45 -0.5 6.05 -0.6 5.85 -0.35 5.5 -0.2 5.45 Q0.9 6.15 0.8 7.8 L0.75 10.4 0.25 10.85 0.15 10.9 Q-0.9 11.25 -1.8 10.9 L-10.5 11.35 -10.55 11.35 -10.9 11.1 -10.9 11.0 -10.65 10.65 -10.55 10.65 -10.55 10.6 -10.3 10.25 -10.2 10.25 M-5.4 13.1 L-5.6 14.7 -5.65 14.95 -6.35 14.9 Q-6.6 13.7 -5.95 12.85 L-5.85 12.75 Q-5.65 12.85 -5.5 13.0 L-5.4 13.1 M-7.0 12.8 L-6.9 12.9 -7.2 14.5 -7.35 14.75 -8.0 14.65 -8.05 14.05 -8.05 13.8 -7.9 13.7 Q-7.95 13.0 -7.45 12.6 L-7.35 12.55 -7.0 12.8 M-8.5 12.8 L-8.4 12.9 -8.55 13.65 -8.65 13.75 -8.75 14.5 -8.8 14.75 -9.5 14.65 -9.55 13.55 -9.55 13.3 -9.4 13.2 -9.3 13.05 -9.25 12.95 -9.25 12.8 -9.0 12.6 -8.8 12.55 -8.5 12.8" fill="#333333" fill-rule="evenodd" stroke="none"/>
    <path d="M-9.3 6.2 L-1.15 5.5 -1.15 9.65 -10.1 9.65 -11.45 9.65 -11.45 6.4 -9.3 6.2" fill="#000000" fill-rule="evenodd" stroke="none"/>
    <path d="M5.4 10.65 L6.6 10.35 9.3 7.75 5.15 6.6 5.35 6.35 M5.5 6.1 L12.8 -4.2 3.35 2.55 9.45 -8.8 -1.4 0.55 3.85 -10.35 -8.8 4.1 -9.3 6.2 -1.15 5.5 -1.15 9.65 -10.1 9.65 -10.2 10.25 M-10.5 11.35 L-11.3 14.7 M-11.3 15.2 L0.05 15.2 Q-0.6 12.35 5.1 10.75 M-10.1 9.65 L-11.45 9.65 -11.45 6.4 -9.3 6.2" fill="none" stroke="#000000" stroke-linecap="round" stroke-linejoin="round" stroke-width="1.5"/>
  </g>
</svg>
