<?xml version="1.0" encoding="UTF-8" standalone="no"?>
<svg xmlns:ffdec="https://www.free-decompiler.com/flash" xmlns:xlink="http://www.w3.org/1999/xlink" ffdec:objectType="shape" height="24.55px" width="27.7px" xmlns="http://www.w3.org/2000/svg">
  <g transform="matrix(1.0, 0.0, 0.0, 1.0, 14.35, 8.4)">
    <path d="M-2.05 -4.35 L-1.2 -4.05 -2.4 -3.5 -3.3 -2.6 -3.3 -2.5 -3.35 -2.35 -3.45 -2.25 -5.3 -0.1 -5.3 0.0 -5.35 0.15 -5.5 0.25 Q-6.2 0.8 -5.85 1.95 L-5.8 2.1 -5.15 2.25 -5.05 2.15 -4.7 1.85 -4.65 1.75 -4.45 1.55 -4.4 1.5 -4.4 1.45 -4.2 1.25 -4.15 1.2 -4.1 1.2 -4.15 1.2 -3.7 0.65 -2.25 -1.1 Q-0.8 -2.8 0.25 -4.75 L0.4 -4.95 0.4 -5.1 0.45 -5.2 0.55 -5.65 0.15 -5.95 Q-0.35 -5.85 -0.4 -5.35 L-0.5 -5.15 -0.5 -5.05 -0.55 -4.9 -1.0 -5.15 -1.0 -5.1 -1.5 -4.95 0.85 -7.65 1.15 -2.45 1.45 -2.75 1.45 -2.2 1.15 -1.95 0.85 -1.7 0.85 -1.45 0.9 -1.05 1.2 -0.9 1.5 3.65 7.1 3.1 5.6 4.7 7.1 3.1 1.5 3.65 1.2 -0.9 1.45 -0.9 1.45 0.0 9.6 -2.4 6.0 1.7 12.6 1.25 6.0 6.6 5.8 7.35 8.1 7.95 5.4 10.55 4.2 10.85 4.25 10.75 4.55 10.4 4.55 10.25 4.15 9.95 4.35 9.95 4.4 10.05 4.75 10.25 6.2 8.7 Q6.8 8.5 6.85 7.95 L6.75 7.8 6.3 7.6 6.3 7.65 6.05 7.7 6.0 7.75 5.8 7.6 5.8 7.65 5.65 7.7 5.6 7.65 5.3 7.45 5.05 7.5 4.35 8.1 4.35 8.35 4.2 8.45 Q3.85 8.75 3.75 9.15 L3.25 9.1 1.75 9.9 0.3 10.9 0.2 10.95 -0.6 11.65 -0.6 11.75 -0.65 11.9 -0.8 12.0 -0.95 12.15 -0.95 12.25 -0.95 12.4 -0.95 12.5 -1.1 12.65 -1.2 12.75 -1.2 12.9 -1.25 13.0 -1.25 13.15 -1.5 13.4 -1.6 13.5 -1.6 13.65 -1.7 14.25 -1.7 14.4 -1.0 14.55 -0.9 14.45 -0.65 14.05 -0.65 14.0 -0.3 13.25 -0.1 12.7 0.1 12.6 0.2 12.45 0.2 12.35 0.25 12.25 0.25 12.1 0.65 11.9 0.75 11.95 1.15 12.0 Q-0.1 12.95 -0.05 14.4 L-0.05 14.45 0.05 15.2 -10.0 15.4 -10.0 14.9 -10.5 11.35 -1.8 10.9 Q-0.9 11.25 0.15 10.9 L0.25 10.85 0.75 10.4 0.8 7.8 Q0.9 6.15 -0.2 5.45 L-0.35 5.5 -0.55 5.65 -0.95 5.2 -1.15 5.05 -1.15 4.9 -1.3 4.9 Q-2.1 4.35 -3.15 4.3 L-3.4 4.3 -3.7 4.3 -4.75 4.55 -8.85 4.45 -8.8 4.1 -2.05 -4.35 M4.25 6.45 L4.05 6.7 3.95 6.8 5.8 7.35 3.95 6.8 4.05 6.7 4.25 6.45 4.3 6.35 4.7 5.8 4.3 6.3 4.25 6.45 4.15 6.55 4.25 6.45 M5.0 5.35 L4.7 5.8 5.0 5.35 5.6 4.7 5.5 4.6 5.0 5.35 M1.15 -2.45 L1.15 -1.95 1.15 -2.45 M-9.8 10.25 L-9.7 10.2 -9.3 10.1 Q-7.4 9.5 -5.35 10.15 L-9.8 10.25 M-5.3 12.3 Q-5.4 11.65 -6.25 11.85 L-6.45 11.85 -6.55 12.0 -6.7 12.6 -6.8 14.75 Q-6.85 15.0 -6.55 15.1 L-6.3 15.1 Q-5.8 14.7 -5.85 14.0 L-5.35 12.95 -5.3 12.3 M-7.95 11.85 L-8.15 11.85 -8.35 12.25 -8.1 13.75 -7.95 15.0 -7.8 15.1 Q-7.15 15.2 -7.15 14.45 L-7.15 13.85 -7.15 12.9 Q-7.0 11.85 -7.95 11.85 M6.9 4.2 L6.75 4.25 6.25 4.65 Q5.8 5.05 5.5 5.55 5.25 5.95 5.65 6.15 L5.85 6.15 6.7 5.4 7.75 4.55 8.15 4.1 8.65 3.85 9.05 3.55 9.15 3.4 9.2 3.35 Q9.8 2.8 9.0 2.55 8.45 2.7 8.0 3.1 L8.0 3.2 Q7.4 3.45 6.85 3.85 L6.9 4.2 M5.25 1.95 L5.15 1.9 3.1 1.7 3.3 1.2 Q3.85 0.5 3.0 0.3 L2.85 0.3 2.75 0.35 2.4 0.1 2.3 0.1 2.25 0.1 2.1 0.3 Q1.95 0.7 2.1 1.05 1.9 1.7 1.95 2.35 2.0 2.95 2.5 3.1 L2.75 3.05 3.0 2.75 3.1 2.8 5.9 2.85 Q6.4 2.8 6.25 2.35 L6.05 2.2 5.35 2.15 5.25 1.95 M4.05 6.7 L4.15 6.55 4.05 6.7 M1.3 11.95 Q1.55 11.35 2.55 11.0 L3.9 10.95 Q1.9 11.5 1.3 11.95" fill="#666666" fill-rule="evenodd" stroke="none"/>
    <path d="M-1.5 -4.95 L-1.0 -5.1 -1.0 -5.15 -0.55 -4.9 -0.5 -5.05 -0.5 -5.15 -0.4 -5.35 Q-0.35 -5.85 0.15 -5.95 L0.55 -5.65 0.45 -5.2 0.4 -5.1 0.4 -4.95 0.25 -4.75 Q-0.8 -2.8 -2.25 -1.1 L-3.7 0.65 -4.15 1.2 -4.1 1.2 -4.15 1.2 -4.2 1.25 -4.4 1.45 -4.4 1.5 -4.45 1.55 -4.65 1.75 -4.7 1.85 -5.05 2.15 -5.15 2.25 -5.8 2.1 -5.85 1.95 Q-6.2 0.8 -5.5 0.25 L-5.35 0.15 -5.3 0.0 -5.3 -0.1 -3.45 -2.25 -3.35 -2.35 -3.3 -2.5 -3.3 -2.6 -2.4 -3.5 -1.2 -4.05 -2.05 -4.35 -1.5 -4.95 M-0.55 5.65 L-0.35 5.5 -0.2 5.45 Q0.9 6.15 0.8 7.8 L0.75 10.4 0.25 10.85 0.15 10.9 Q-0.9 11.25 -1.8 10.9 L-10.5 11.35 -10.55 11.35 -10.9 11.1 -10.9 11.0 -10.65 10.65 -10.55 10.65 -10.55 10.6 -10.4 10.3 -9.8 10.25 -5.35 10.15 -4.95 10.3 -4.5 10.5 -3.4 10.65 -3.2 10.65 Q-1.9 10.6 -0.95 9.7 0.05 8.8 0.05 7.5 0.05 6.45 -0.55 5.65 M1.15 12.0 L0.75 11.95 0.65 11.9 0.25 12.1 0.25 12.25 0.2 12.35 0.2 12.45 0.1 12.6 -0.1 12.7 -0.3 13.25 -0.65 14.0 -0.65 14.05 -0.9 14.45 -1.0 14.55 -1.7 14.4 -1.7 14.25 -1.6 13.65 -1.6 13.5 -1.5 13.4 -1.25 13.15 -1.25 13.0 -1.2 12.9 -1.2 12.75 -1.1 12.65 -0.95 12.5 -0.95 12.4 -0.95 12.25 -0.95 12.15 -0.8 12.0 -0.65 11.9 -0.6 11.75 -0.6 11.65 0.2 10.95 0.3 10.9 1.75 9.9 3.25 9.1 3.75 9.15 Q3.85 8.75 4.2 8.45 L4.35 8.35 4.35 8.1 5.05 7.5 5.3 7.45 5.6 7.65 5.65 7.7 5.8 7.65 5.8 7.6 6.0 7.75 6.05 7.7 6.3 7.65 6.3 7.6 6.75 7.8 6.85 7.95 Q6.8 8.5 6.2 8.7 L4.75 10.25 4.4 10.05 4.35 9.95 4.15 9.95 4.55 10.25 4.55 10.4 4.25 10.75 4.2 10.85 4.1 10.9 3.9 10.95 2.55 11.0 Q1.55 11.35 1.3 11.95 L1.25 11.95 1.2 12.0 1.15 12.0 M4.25 6.45 L4.3 6.3 4.3 6.35 4.25 6.45 4.3 6.35 4.25 6.45 4.15 6.55 4.25 6.45 M1.2 -0.9 L0.9 -1.05 0.85 -1.45 0.85 -1.7 1.15 -1.95 1.45 -2.2 1.45 -0.9 1.2 -0.9 1.15 -1.95 1.2 -0.9 M-7.95 11.85 Q-7.0 11.85 -7.15 12.9 L-7.15 13.85 -7.15 14.45 Q-7.15 15.2 -7.8 15.1 L-7.95 15.0 -8.1 13.75 -8.35 12.25 -8.15 11.85 -7.95 11.85 M-5.3 12.3 L-5.35 12.95 -5.85 14.0 Q-5.8 14.7 -6.3 15.1 L-6.55 15.1 Q-6.85 15.0 -6.8 14.75 L-6.7 12.6 -6.55 12.0 -6.45 11.85 -6.25 11.85 Q-5.4 11.65 -5.3 12.3 M5.25 1.95 L5.35 2.15 6.05 2.2 6.25 2.35 Q6.4 2.8 5.9 2.85 L3.1 2.8 3.0 2.75 2.75 3.05 2.5 3.1 Q2.0 2.95 1.95 2.35 1.9 1.7 2.1 1.05 1.95 0.7 2.1 0.3 L2.25 0.1 2.3 0.1 2.4 0.1 2.75 0.35 2.85 0.3 3.0 0.3 Q3.85 0.5 3.3 1.2 L3.1 1.7 5.15 1.9 5.25 1.95 M6.9 4.2 L6.85 3.85 Q7.4 3.45 8.0 3.2 L8.0 3.1 Q8.45 2.7 9.0 2.55 9.8 2.8 9.2 3.35 L9.15 3.4 9.05 3.55 8.65 3.85 8.15 4.1 7.75 4.55 6.7 5.4 5.85 6.15 5.65 6.15 Q5.25 5.95 5.5 5.55 5.8 5.05 6.25 4.65 L6.75 4.25 6.9 4.2 M1.3 11.95 L1.25 11.95 1.3 11.95" fill="#333333" fill-rule="evenodd" stroke="none"/>
    <path d="M-8.85 4.45 L-4.75 4.55 -3.7 4.3 -3.4 4.3 -3.15 4.3 Q-2.1 4.35 -1.3 4.9 L-1.15 5.05 -0.95 5.2 -0.55 5.65 Q0.05 6.45 0.05 7.5 0.05 8.8 -0.95 9.7 -1.9 10.6 -3.2 10.65 L-3.4 10.65 -4.5 10.5 -4.95 10.3 -5.35 10.15 Q-7.4 9.5 -9.3 10.1 L-9.7 10.2 -9.8 10.25 -10.4 10.3 -10.5 10.3 -10.9 10.3 Q-11.95 10.15 -12.7 9.35 -13.6 8.45 -13.6 7.15 -13.6 5.85 -12.7 4.9 -11.8 4.0 -10.5 4.0 L-10.45 4.0 -10.2 4.0 Q-9.5 4.05 -8.9 4.4 L-8.85 4.45 M-3.2 10.65 L-4.5 10.5 -3.2 10.65 M-10.9 10.3 L-9.7 10.2 -10.9 10.3" fill="#66ff00" fill-rule="evenodd" stroke="none"/>
    <path d="M-2.05 -4.35 L-8.8 4.1 M-8.85 4.45 L-4.75 4.55 -3.7 4.3 -3.4 4.3 -3.15 4.3 Q-2.1 4.35 -1.3 4.9 L-1.15 5.05 -0.95 5.2 -0.55 5.65 Q0.05 6.45 0.05 7.5 0.05 8.8 -0.95 9.7 -1.9 10.6 -3.2 10.65 L-3.4 10.65 -4.5 10.5 -3.2 10.65 M-10.5 11.35 L-10.0 14.9 M-10.0 15.4 L0.05 15.2 -0.05 14.45 -0.05 14.4 Q-0.1 12.95 1.15 12.0 L1.2 12.0 1.25 11.95 1.3 11.95 Q1.9 11.5 3.9 10.95 M4.2 10.85 L5.4 10.55 8.1 7.95 5.8 7.35 3.95 6.8 4.05 6.7 4.25 6.45 4.3 6.35 4.7 5.8 5.0 5.35 5.6 4.7 7.1 3.1 1.5 3.65 1.2 -0.9 1.15 -1.95 1.15 -2.45 0.85 -7.65 -1.5 -4.95 -2.05 -4.35 M1.45 0.0 L9.6 -2.4 6.0 1.7 12.6 1.25 6.0 6.6 M-10.4 10.3 L-10.5 10.3 -10.9 10.3 Q-11.95 10.15 -12.7 9.35 -13.6 8.45 -13.6 7.15 -13.6 5.85 -12.7 4.9 -11.8 4.0 -10.5 4.0 L-10.45 4.0 -10.2 4.0 Q-9.5 4.05 -8.9 4.4 L-8.85 4.45 M-5.35 10.15 Q-7.4 9.5 -9.3 10.1 L-9.7 10.2 -9.8 10.25 -10.4 10.3 M-5.35 10.15 L-4.95 10.3 -4.5 10.5 M-9.7 10.2 L-10.9 10.3 M4.15 6.55 L4.05 6.7" fill="none" stroke="#000000" stroke-linecap="round" stroke-linejoin="round" stroke-width="1.5"/>
  </g>
</svg>
