<?xml version="1.0" encoding="UTF-8" standalone="no"?>
<svg xmlns:ffdec="https://www.free-decompiler.com/flash" xmlns:xlink="http://www.w3.org/1999/xlink" ffdec:objectType="shape" height="27.5px" width="22.65px" xmlns="http://www.w3.org/2000/svg">
  <g transform="matrix(1.0, 0.0, 0.0, 1.0, 11.8, 10.4)">
    <path d="M1.35 -4.7 L-0.1 -0.8 -0.15 -0.75 -0.15 -0.7 0.1 -0.6 5.7 -4.45 5.9 -4.1 2.4 0.6 2.5 1.05 9.25 -0.25 3.75 4.55 10.1 5.25 4.55 7.05 4.5 7.35 6.6 7.95 5.4 10.55 4.45 10.8 4.2 10.85 3.9 10.95 Q1.9 11.5 1.3 11.95 L1.25 11.95 1.2 12.0 1.15 12.0 1.1 12.05 1.05 12.1 1.05 12.0 1.1 11.9 Q2.25 10.75 3.9 10.2 L4.3 10.2 4.45 10.1 4.65 9.9 5.25 9.95 5.35 9.7 5.4 9.05 5.7 8.8 5.7 8.7 5.7 8.55 5.7 8.45 5.65 8.3 5.5 8.2 5.45 8.1 Q5.3 7.85 5.0 7.9 4.5 8.1 4.3 8.7 L4.0 8.9 Q2.5 8.85 1.35 9.65 L1.0 10.5 1.0 10.55 0.95 10.6 0.5 11.1 -0.4 11.75 -0.4 11.9 -0.4 12.0 -0.55 12.15 -0.75 12.4 -0.75 12.65 -0.7 13.4 -0.35 13.6 0.3 13.0 Q-0.05 13.65 -0.05 14.4 L-0.05 14.45 -0.05 14.5 -2.1 14.5 -2.4 14.5 -2.85 16.25 -9.55 16.35 -9.55 16.0 -10.7 11.4 -10.5 11.35 -1.8 10.9 Q-0.9 11.25 0.15 10.9 L0.25 10.85 0.75 10.4 0.8 7.8 0.6 6.4 Q0.35 5.8 -0.2 5.45 L-0.35 5.5 -0.6 5.85 -0.5 6.05 -0.5 6.45 -0.65 6.6 -0.7 6.65 Q-0.85 6.0 -1.4 5.5 -2.15 4.75 -3.25 4.75 -4.35 4.75 -5.1 5.5 -5.85 6.25 -5.85 7.35 -5.85 6.25 -6.65 5.45 -7.45 4.7 -8.55 4.7 L-9.2 4.8 -8.9 2.75 -7.1 0.6 -6.1 -0.55 -4.8 -2.15 -4.5 -2.5 -2.75 -4.6 -2.65 -4.55 -0.55 -4.55 -0.65 -4.45 -0.75 -4.3 -0.75 -4.05 -0.8 -3.55 Q-0.8 -2.7 -1.25 -2.05 L-1.3 -1.55 -1.45 -0.95 -1.6 -0.8 -1.6 -0.45 -1.55 0.05 Q-1.3 0.4 -0.9 0.2 L-0.7 -0.25 -0.45 -0.8 -0.4 -0.85 -0.4 -0.9 -0.45 -1.3 -0.35 -1.8 -0.2 -1.9 -0.15 -2.0 -0.1 -2.15 -0.1 -2.65 0.3 -3.4 Q0.65 -4.15 0.55 -5.0 L1.35 -4.7 M-2.0 -5.45 L-1.45 -6.1 -1.0 -5.7 -1.5 -5.45 -1.95 -5.45 -2.0 -5.45 M5.45 0.8 L5.2 0.85 5.05 0.95 4.7 1.45 Q3.65 2.1 3.0 3.05 L2.9 3.2 2.9 3.15 2.9 3.05 2.9 2.9 2.75 2.65 2.5 1.9 2.3 1.8 2.2 1.65 2.15 1.55 2.1 1.45 2.1 1.4 1.85 1.15 1.55 1.0 1.55 0.9 1.55 0.75 1.5 0.65 Q1.2 0.35 0.8 0.3 L0.75 0.3 0.55 0.4 0.4 0.5 0.35 0.65 0.35 0.75 0.35 0.9 0.35 1.0 0.5 1.15 1.05 1.55 1.05 1.65 1.2 1.8 1.1 1.8 Q0.8 1.95 0.85 2.25 L1.05 2.5 1.95 4.25 2.4 4.8 2.35 5.05 2.35 5.55 2.95 6.2 2.95 6.25 3.65 6.65 5.05 6.5 5.7 6.3 5.6 6.1 5.85 5.9 5.65 5.7 5.35 5.7 Q4.8 5.15 3.9 4.95 L3.85 4.85 3.75 4.7 3.7 4.65 3.4 4.4 3.2 3.8 3.25 3.8 Q3.85 3.55 4.15 2.95 5.35 2.6 6.05 1.45 L6.05 1.35 6.05 1.2 6.05 1.1 5.95 0.95 Q5.75 0.7 5.45 0.75 L5.45 0.8 M2.75 6.45 L4.45 7.35 4.5 7.35 4.45 7.35 2.75 6.45 2.8 6.35 2.8 6.3 2.75 6.45 M-2.35 0.65 L-2.5 0.75 -2.55 1.0 -2.6 1.25 -2.65 1.4 -2.8 1.5 -2.85 1.75 -2.9 2.5 -3.0 2.65 -3.3 3.25 -3.3 3.5 -3.25 3.85 -0.65 4.15 -0.4 3.85 Q-0.6 3.35 -1.1 3.15 L-1.55 2.4 -1.5 2.15 -1.5 2.05 -1.55 1.95 -1.75 1.65 -1.75 1.4 -1.75 0.9 -1.85 0.8 -2.15 0.6 -2.35 0.65 M-0.7 8.2 L-0.65 8.75 -1.0 8.75 -0.7 8.2 M-5.45 8.8 L-6.25 8.8 Q-5.85 8.15 -5.85 7.4 -5.85 8.15 -5.45 8.8 M-4.1 12.9 L-4.2 12.8 -4.5 12.55 -4.5 12.6 -4.75 12.65 -4.85 12.75 -4.9 12.9 -4.9 13.15 -4.95 14.65 -5.1 15.25 -5.1 15.2 -5.1 14.6 -5.15 14.45 -5.25 14.35 Q-5.2 13.15 -6.15 12.75 L-6.4 12.85 -6.5 12.95 -6.6 13.3 -6.6 15.05 -7.1 15.2 -7.2 15.1 -7.6 13.95 -7.6 13.85 Q-7.3 13.35 -7.4 12.7 L-7.5 12.6 -7.8 12.4 -8.15 12.7 Q-8.8 14.15 -8.5 15.9 L-8.15 16.1 -7.95 16.0 -7.8 16.0 Q-7.0 16.35 -6.2 16.0 L-5.65 16.15 -5.55 16.05 -5.3 15.7 -5.3 15.75 Q-4.8 16.45 -4.25 15.75 L-4.25 15.5 -4.25 15.4 -4.1 15.25 -4.0 15.15 -3.95 14.9 Q-3.9 13.85 -4.1 12.9 M2.05 6.05 L-0.55 0.35 -0.15 -0.7 -0.55 0.35 2.05 6.05" fill="#666666" fill-rule="evenodd" stroke="none"/>
    <path d="M-1.45 -6.1 L1.5 -9.65 1.8 -5.95 1.35 -4.7 0.55 -5.0 Q0.65 -4.15 0.3 -3.4 L-0.1 -2.65 -0.1 -2.15 -0.15 -2.0 -0.2 -1.9 -0.35 -1.8 -0.45 -1.3 -0.4 -0.9 -0.4 -0.85 -0.45 -0.8 -0.7 -0.25 -0.9 0.2 Q-1.3 0.4 -1.55 0.05 L-1.6 -0.45 -1.6 -0.8 -1.45 -0.95 -1.3 -1.55 -1.25 -2.05 Q-0.8 -2.7 -0.8 -3.55 L-0.75 -4.05 -0.75 -4.3 -0.65 -4.45 -0.55 -4.55 -2.65 -4.55 -2.75 -4.6 -2.8 -5.1 -2.8 -5.45 -2.4 -5.7 -2.05 -5.5 -2.0 -5.45 -1.95 -5.45 -1.5 -5.45 -1.0 -5.7 -1.45 -6.1 M1.3 11.95 L1.25 11.95 1.3 11.95 M1.05 12.1 L1.05 12.15 0.3 13.0 -0.35 13.6 -0.7 13.4 -0.75 12.65 -0.75 12.4 -0.55 12.15 -0.4 12.0 -0.4 11.9 -0.4 11.75 0.5 11.1 0.95 10.6 1.0 10.55 1.0 10.5 1.35 9.65 Q2.5 8.85 4.0 8.9 L4.3 8.7 Q4.5 8.1 5.0 7.9 5.3 7.85 5.45 8.1 L5.5 8.2 5.65 8.3 5.7 8.45 5.7 8.55 5.7 8.7 5.7 8.8 5.4 9.05 5.35 9.7 5.25 9.95 4.65 9.9 4.45 10.1 4.3 10.2 3.9 10.2 Q2.25 10.75 1.1 11.9 L1.05 12.0 1.05 12.1 M-10.5 11.35 L-10.55 11.35 -10.6 11.35 -10.65 11.35 -10.7 11.35 -10.75 11.3 -10.9 11.1 -10.9 11.0 -10.65 10.65 -10.55 10.65 -10.55 10.6 -10.3 10.25 -10.2 10.25 -10.1 9.55 Q-9.4 10.05 -8.55 10.05 -7.45 10.05 -6.65 9.25 L-6.25 8.8 -5.45 8.8 -5.1 9.2 Q-4.35 10.0 -3.25 10.0 -2.15 10.0 -1.4 9.2 L-1.0 8.75 -0.65 8.75 -0.7 8.2 -0.6 7.35 -0.7 6.65 -0.65 6.6 -0.5 6.45 -0.5 6.05 -0.6 5.85 -0.35 5.5 -0.2 5.45 Q0.35 5.8 0.6 6.4 L0.8 7.8 0.75 10.4 0.25 10.85 0.15 10.9 Q-0.9 11.25 -1.8 10.9 L-10.5 11.35 M-7.1 0.6 L-6.95 0.35 -6.95 0.2 -6.95 0.1 -6.6 -0.3 -6.4 -0.5 -6.3 -0.5 -6.15 -0.55 -6.1 -0.55 -7.1 0.6 M-4.8 -2.15 L-4.8 -2.3 -4.5 -2.5 -4.8 -2.15 M-2.75 -4.6 L-2.0 -5.45 -2.75 -4.6 M5.45 0.8 L5.45 0.75 Q5.75 0.7 5.95 0.95 L6.05 1.1 6.05 1.2 6.05 1.35 6.05 1.45 Q5.35 2.6 4.15 2.95 3.85 3.55 3.25 3.8 L3.2 3.8 3.4 4.4 3.7 4.65 3.75 4.7 3.85 4.85 3.9 4.95 Q4.8 5.15 5.35 5.7 L5.65 5.7 5.85 5.9 5.6 6.1 5.7 6.3 5.05 6.5 3.65 6.65 2.95 6.25 2.95 6.2 2.35 5.55 2.35 5.05 2.4 4.8 1.95 4.25 1.05 2.5 0.85 2.25 Q0.8 1.95 1.1 1.8 L1.2 1.8 1.05 1.65 1.05 1.55 0.5 1.15 0.35 1.0 0.35 0.9 0.35 0.75 0.35 0.65 0.4 0.5 0.55 0.4 0.75 0.3 0.8 0.3 Q1.2 0.35 1.5 0.65 L1.55 0.75 1.55 0.9 1.55 1.0 1.85 1.15 2.1 1.4 2.1 1.45 2.15 1.55 2.2 1.65 2.3 1.8 2.5 1.9 2.75 2.65 2.9 2.9 2.9 3.05 2.9 3.15 2.9 3.2 3.0 3.05 Q3.65 2.1 4.7 1.45 L5.05 0.95 5.2 0.85 5.45 0.8 M2.75 6.45 L2.8 6.3 2.8 6.35 2.75 6.45 M-2.35 0.65 L-2.15 0.6 -1.85 0.8 -1.75 0.9 -1.75 1.4 -1.75 1.65 -1.55 1.95 -1.5 2.05 -1.5 2.15 -1.55 2.4 -1.1 3.15 Q-0.6 3.35 -0.4 3.85 L-0.65 4.15 -3.25 3.85 -3.3 3.5 -3.3 3.25 -3.0 2.65 -2.9 2.5 -2.85 1.75 -2.8 1.5 -2.65 1.4 -2.6 1.25 -2.55 1.0 -2.5 0.75 -2.35 0.65 M-10.55 10.65 L-10.7 11.35 -10.55 10.65 M-4.1 12.9 Q-3.9 13.85 -3.95 14.9 L-4.0 15.15 -4.1 15.25 -4.25 15.4 -4.25 15.5 -4.25 15.75 Q-4.8 16.45 -5.3 15.75 L-5.3 15.7 -5.55 16.05 -5.65 16.15 -6.2 16.0 Q-7.0 16.35 -7.8 16.0 L-7.95 16.0 -8.15 16.1 -8.5 15.9 Q-8.8 14.15 -8.15 12.7 L-7.8 12.4 -7.5 12.6 -7.4 12.7 Q-7.3 13.35 -7.6 13.85 L-7.6 13.95 -7.2 15.1 -7.1 15.2 -6.6 15.05 -6.6 13.3 -6.5 12.95 -6.4 12.85 -6.15 12.75 Q-5.2 13.15 -5.25 14.35 L-5.15 14.45 -5.1 14.6 -5.1 15.2 -5.1 15.25 -4.95 14.65 -4.9 13.15 -4.9 12.9 -4.85 12.75 -4.75 12.65 -4.5 12.6 -4.5 12.55 -4.2 12.8 -4.1 12.9" fill="#333333" fill-rule="evenodd" stroke="none"/>
    <path d="M-10.1 9.55 L-10.45 9.25 Q-11.2 8.45 -11.2 7.35 -11.2 6.25 -10.45 5.45 -9.9 4.95 -9.2 4.8 L-8.55 4.7 Q-7.45 4.7 -6.65 5.45 -5.85 6.25 -5.85 7.35 -5.85 6.25 -5.1 5.5 -4.35 4.75 -3.25 4.75 -2.15 4.75 -1.4 5.5 -0.85 6.0 -0.7 6.65 L-0.6 7.35 -0.7 8.2 -1.0 8.75 -1.4 9.2 Q-2.15 10.0 -3.25 10.0 -4.35 10.0 -5.1 9.2 L-5.45 8.8 Q-5.85 8.15 -5.85 7.4 -5.85 8.15 -6.25 8.8 L-6.65 9.25 Q-7.45 10.05 -8.55 10.05 -9.4 10.05 -10.1 9.55 M-5.85 7.4 L-5.85 7.35 -5.85 7.4" fill="#66ff00" fill-rule="evenodd" stroke="none"/>
    <path d="M-1.45 -6.1 L1.5 -9.65 1.8 -5.95 1.35 -4.7 -0.1 -0.8 -0.15 -0.75 -0.15 -0.7 -0.55 0.35 2.05 6.05 M0.1 -0.6 L5.7 -4.45 M5.9 -4.1 L2.4 0.6 M2.5 1.05 L9.25 -0.25 3.75 4.55 10.1 5.25 4.55 7.05 M4.5 7.35 L6.6 7.95 5.4 10.55 4.45 10.8 4.2 10.85 M3.9 10.95 Q1.9 11.5 1.3 11.95 L1.25 11.95 1.2 12.0 1.15 12.0 1.1 12.05 1.05 12.1 M0.3 13.0 Q-0.05 13.65 -0.05 14.4 L-0.05 14.45 -0.05 14.5 -2.1 14.5 M-2.4 14.5 L-2.85 16.25 -9.55 16.35 M-9.55 16.0 L-10.7 11.4 M-8.9 2.75 L-7.1 0.6 -6.1 -0.55 -4.8 -2.15 -4.5 -2.5 -2.75 -4.6 -2.0 -5.45 -1.45 -6.1 M4.5 7.35 L4.45 7.35 2.75 6.45 M-10.7 11.35 L-10.55 10.65" fill="none" stroke="#000000" stroke-linecap="round" stroke-linejoin="round" stroke-width="1.5"/>
    <path d="M-10.1 9.55 L-10.45 9.25 Q-11.2 8.45 -11.2 7.35 -11.2 6.25 -10.45 5.45 -9.9 4.95 -9.2 4.8 L-8.55 4.7 Q-7.45 4.7 -6.65 5.45 -5.85 6.25 -5.85 7.35 -5.85 6.25 -5.1 5.5 -4.35 4.75 -3.25 4.75 -2.15 4.75 -1.4 5.5 -0.85 6.0 -0.7 6.65 L-0.6 7.35 -0.7 8.2 -1.0 8.75 -1.4 9.2 Q-2.15 10.0 -3.25 10.0 -4.35 10.0 -5.1 9.2 L-5.45 8.8 Q-5.85 8.15 -5.85 7.4 -5.85 8.15 -6.25 8.8 L-6.65 9.25 Q-7.45 10.05 -8.55 10.05 -9.4 10.05 -10.1 9.55 M-5.85 7.35 L-5.85 7.4" fill="none" stroke="#000000" stroke-linecap="round" stroke-linejoin="round" stroke-width="1.25"/>
    <path d="M-10.2 10.25 L-10.1 9.55 M-9.2 4.8 L-8.9 2.75" fill="none" stroke="#000000" stroke-linecap="round" stroke-linejoin="round" stroke-width="1.25"/>
  </g>
</svg>
