<?xml version="1.0" encoding="UTF-8" standalone="no"?>
<svg xmlns:ffdec="https://www.free-decompiler.com/flash" xmlns:xlink="http://www.w3.org/1999/xlink" ffdec:objectType="shape" height="20.65px" width="29.6px" xmlns="http://www.w3.org/2000/svg">
  <g transform="matrix(1.0, 0.0, 0.0, 1.0, 18.25, 10.3)">
    <path d="M9.65 -5.55 L9.75 -5.45 8.5 -5.75 8.65 -5.7 8.65 -5.65 8.7 -5.55 8.75 -5.5 8.7 -5.4 8.65 -5.3 8.75 -4.6 8.75 -4.55 8.85 -4.85 8.9 -5.0 9.0 -5.0 9.15 -5.0 9.2 -5.0 9.4 -4.45 9.35 -4.4 9.45 -4.0 9.4 -3.9 9.5 -3.7 9.5 -3.6 9.45 -3.35 9.35 -3.15 9.4 -3.0 9.4 -2.85 9.3 -2.55 9.2 -2.45 9.3 -1.95 9.35 -1.8 9.35 -1.65 9.25 -1.45 9.05 -1.4 8.9 -1.4 8.8 -1.65 8.75 -1.55 Q8.95 -0.95 8.7 -0.3 L8.65 -0.2 8.75 0.05 8.75 0.15 8.6 0.35 8.5 0.5 8.05 0.35 7.6 -0.05 7.6 -0.15 7.55 -0.2 7.6 -0.2 7.7 -0.65 7.75 -0.9 7.75 -1.0 7.75 -2.95 7.75 -3.05 7.7 -3.85 7.75 -4.0 7.5 -4.8 Q6.75 -6.45 5.05 -7.1 L4.85 -7.05 4.75 -7.05 4.8 -7.15 4.85 -7.3 4.85 -7.35 5.0 -7.4 5.1 -7.45 5.25 -7.4 6.3 -6.75 6.4 -6.8 6.65 -6.75 6.65 -6.8 7.0 -6.65 8.95 -5.75 9.15 -5.8 9.25 -5.85 9.35 -5.7 9.4 -5.7 9.55 -5.75 9.6 -5.55 9.65 -5.55 M-10.15 -1.2 L-8.45 -0.45 -7.15 -1.05 -5.6 0.75 0.05 3.1 1.15 2.15 4.25 3.45 4.2 3.45 4.2 3.5 4.1 3.65 4.1 3.75 3.9 4.0 4.15 4.05 4.3 3.9 4.35 3.8 4.4 3.55 5.1 3.8 8.2 5.1 6.95 6.15 6.75 5.9 6.5 5.9 6.8 6.25 2.85 9.6 -9.55 4.4 -9.4 4.0 -9.55 3.7 -9.4 3.35 -9.3 3.3 Q-4.55 4.55 0.0 6.8 L0.95 7.1 2.9 7.5 4.4 6.3 4.45 6.15 5.0 5.9 5.15 5.55 5.2 5.4 3.75 4.9 3.5 4.8 3.2 4.65 3.2 4.7 2.15 4.35 1.35 4.05 1.25 4.15 0.8 4.4 0.75 4.45 0.6 4.6 0.6 4.7 0.15 4.7 Q-5.25 2.8 -10.2 0.1 L-10.2 0.0 -10.5 -0.15 -10.4 -0.55 -10.35 -0.55 -10.35 -0.65 -10.35 -0.7 -10.15 -1.2 M6.9 -5.85 L7.0 -5.8 7.0 -5.85 6.95 -5.9 6.9 -5.85 M7.25 -5.5 L7.25 -5.55 7.1 -5.65 7.25 -5.5 M9.4 1.35 L9.45 1.3 9.75 1.3 9.85 1.4 9.95 1.5 9.95 1.55 9.85 1.8 9.95 1.8 10.1 1.9 10.15 2.0 9.7 2.9 9.65 2.95 9.15 4.1 9.1 4.3 8.85 4.4 8.8 4.4 8.7 4.55 8.55 4.7 8.35 4.65 8.0 4.5 Q7.3 4.45 6.85 4.0 L5.9 3.6 5.45 3.45 5.45 3.25 5.4 3.2 5.35 3.2 5.25 3.2 5.25 3.25 5.2 3.3 5.2 3.35 2.25 2.05 2.25 1.95 2.2 1.8 2.25 1.75 2.3 1.65 2.45 1.6 2.65 1.65 2.7 1.6 5.3 2.75 5.3 2.8 5.55 2.85 6.5 3.3 7.8 3.1 Q8.0 2.85 8.3 2.85 L8.9 1.7 8.95 1.55 9.25 1.5 9.3 1.55 9.35 1.5 9.4 1.35 M8.4 3.6 L8.25 3.7 8.4 3.65 8.4 3.6" fill="#e0e0e0" fill-rule="evenodd" stroke="none"/>
    <path d="M-5.05 -9.2 L-4.85 -9.25 Q-1.0 -10.35 5.3 -7.65 L5.35 -7.65 Q6.15 -7.3 7.0 -6.9 L7.1 -6.85 9.0 -5.9 9.15 -5.8 8.95 -5.75 7.0 -6.65 6.65 -6.8 6.65 -6.75 6.4 -6.8 6.3 -6.75 5.25 -7.4 5.1 -7.45 5.0 -7.4 4.85 -7.35 4.85 -7.3 4.8 -7.15 4.75 -7.05 4.85 -7.05 5.05 -7.1 Q6.75 -6.45 7.5 -4.8 L7.75 -4.0 7.7 -3.85 7.75 -3.05 7.75 -2.95 7.75 -1.0 7.75 -0.9 7.7 -0.65 7.6 -0.2 7.55 -0.2 7.6 -0.15 7.6 -0.05 8.05 0.35 8.5 0.5 8.6 0.35 8.75 0.15 8.75 0.05 8.65 -0.2 8.7 -0.3 Q8.95 -0.95 8.75 -1.55 L8.8 -1.65 8.9 -1.4 9.05 -1.4 9.25 -1.45 9.35 -1.65 9.35 -1.8 9.3 -1.95 9.2 -2.45 9.3 -2.55 9.4 -2.85 9.4 -3.0 9.35 -3.15 9.45 -3.35 9.5 -3.6 9.5 -3.7 9.4 -3.9 9.45 -4.0 9.35 -4.4 9.4 -4.45 9.2 -5.0 9.15 -5.0 9.0 -5.0 8.9 -5.0 8.85 -4.85 8.75 -4.55 8.75 -4.6 8.65 -5.3 8.7 -5.4 8.75 -5.5 8.7 -5.55 8.65 -5.65 8.65 -5.7 8.5 -5.75 9.75 -5.45 9.65 -5.55 10.05 -5.3 9.4 1.3 9.4 1.35 6.4 0.05 9.4 1.35 9.35 1.5 9.3 1.55 9.25 1.5 8.95 1.55 8.9 1.7 8.3 2.85 Q8.0 2.85 7.8 3.1 L6.5 3.3 5.55 2.85 5.3 2.8 5.3 2.75 5.3 2.65 5.35 2.65 Q5.3 2.45 5.4 2.35 L5.45 2.3 5.45 2.2 5.5 2.2 5.5 2.1 5.5 2.0 5.55 1.85 5.6 1.85 5.6 1.75 5.65 1.7 5.65 1.65 5.8 1.2 5.85 1.15 5.95 0.8 5.95 0.75 6.05 0.6 6.05 0.5 6.1 0.5 6.1 0.45 6.15 0.4 6.15 0.3 6.2 0.25 6.2 0.2 6.25 0.15 6.25 0.1 6.3 0.05 6.4 0.05 5.65 -0.25 5.65 -0.35 5.65 -0.5 5.65 -0.65 5.7 -0.75 5.75 -0.75 5.75 -0.85 5.75 -0.9 5.8 -0.95 5.85 -1.05 5.85 -1.1 5.9 -1.2 5.95 -1.2 5.95 -1.3 5.95 -1.4 6.0 -1.45 6.0 -1.55 6.05 -1.65 6.05 -1.75 6.15 -1.95 6.2 -2.0 6.2 -2.1 6.25 -2.1 6.25 -2.5 6.25 -2.7 6.25 -2.75 6.3 -2.75 6.25 -3.2 6.25 -3.4 6.2 -3.45 6.2 -3.55 6.05 -3.7 6.05 -3.8 5.7 -4.15 5.65 -4.25 5.4 -4.35 5.4 -4.4 4.65 -4.75 2.1 -5.85 2.0 -5.85 1.95 -5.9 Q1.5 -6.05 1.05 -6.4 L0.2 -6.75 0.1 -6.85 -0.05 -6.9 -3.0 -8.2 Q-4.0 -8.55 -4.95 -9.05 L-5.05 -9.2 M7.25 -5.5 L7.1 -5.65 7.25 -5.55 7.25 -5.5 M6.9 -5.85 L6.95 -5.9 7.0 -5.85 7.0 -5.8 6.9 -5.85 M5.45 3.45 L5.9 3.6 6.85 4.0 Q7.3 4.45 8.0 4.5 L8.35 4.65 8.55 4.7 8.7 4.55 8.8 4.4 8.85 4.4 9.1 4.3 9.15 4.1 9.65 2.95 9.7 2.9 10.15 2.0 10.1 1.9 9.95 1.8 9.85 1.8 9.95 1.55 10.6 1.85 9.05 5.5 8.2 5.1 5.1 3.8 5.4 3.5 5.45 3.45 M6.95 6.15 L6.8 6.25 6.5 5.9 6.75 5.9 6.95 6.15 M-9.55 4.4 L-9.65 4.35 -9.9 3.75 Q-10.7 1.55 -10.55 0.1 L-10.5 -0.15 -10.2 0.0 -10.2 0.1 Q-5.25 2.8 0.15 4.7 L0.6 4.7 0.6 4.6 0.75 4.45 0.8 4.4 1.25 4.15 1.35 4.05 2.15 4.35 3.2 4.7 3.2 4.65 3.5 4.8 3.75 4.9 5.2 5.4 5.15 5.55 5.0 5.9 4.45 6.15 4.4 6.3 2.9 7.5 0.95 7.1 0.0 6.8 Q-4.55 4.55 -9.3 3.3 L-9.4 3.35 -9.55 3.7 -9.4 4.0 -9.55 4.4 M4.4 3.55 L4.35 3.8 4.3 3.9 4.15 4.05 3.9 4.0 4.1 3.75 4.1 3.65 4.2 3.5 4.2 3.45 4.25 3.45 4.3 3.45 4.35 3.45 4.4 3.5 4.4 3.55 M8.4 3.6 L8.4 3.65 8.25 3.7 8.4 3.6" fill="#ffffff" fill-rule="evenodd" stroke="none"/>
    <path d="M-2.5 -3.35 L-2.5 -3.4 -2.5 -3.35" fill="#83b8ff" fill-rule="evenodd" stroke="none"/>
    <path d="M-0.55 -2.85 L-0.55 -2.8 -0.6 -2.85 -0.55 -2.85 M-9.05 -4.55 L-9.05 -4.6 -8.95 -4.55 -9.05 -4.55 M-2.3 -0.35 L-2.3 -0.3 -2.3 -0.35" fill="url(#gradient0)" fill-rule="evenodd" stroke="none"/>
    <path d="M-3.45 -2.75 L-3.7 -2.8 -3.8 -2.7 -3.85 -2.65 -3.9 -2.65 -4.0 -2.7 -4.15 -2.7 -4.25 -2.65 -5.35 -3.25 -5.6 -3.25 -5.7 -3.25 -8.6 -4.55 -8.95 -4.55 -9.05 -4.6 -9.05 -4.55 -9.25 -4.55 -9.4 -4.55 -9.45 -4.4 -9.5 -4.3 -9.45 -4.25 -9.25 -4.05 -9.2 -4.0 -9.2 -3.95 -9.2 -3.85 -9.0 -3.55 -9.35 -3.5 -9.45 -3.45 -9.6 -3.6 -9.65 -3.7 -9.7 -3.85 -9.65 -3.9 -9.65 -4.0 -9.85 -4.25 -9.65 -4.9 -9.65 -5.0 -9.7 -5.1 -9.65 -5.2 -9.6 -5.3 -9.5 -5.4 -9.35 -5.5 -9.2 -5.4 -9.15 -5.45 Q-6.05 -4.45 -3.45 -2.75" fill="#66cc00" fill-rule="evenodd" stroke="none"/>
    <path d="M-0.55 -2.85 L0.15 -2.6 0.75 -2.5 0.85 -2.6 2.2 -2.1 2.25 -2.1 2.4 -2.25 2.5 -2.3 2.3 -2.7 0.3 -3.75 0.25 -3.7 0.05 -3.7 -0.1 -3.65 Q-2.9 -5.2 -5.85 -6.45 L-6.1 -6.4 -6.2 -6.4 -6.25 -6.3 -6.25 -6.25 -6.3 -6.15 Q-6.0 -5.65 -5.4 -5.4 -3.8 -4.9 -2.5 -3.85 L-2.45 -3.8 -2.45 -3.7 -2.1 -3.55 -1.45 -2.95 -0.85 -2.55 -0.8 -2.6 -0.7 -2.7 -0.65 -2.8 -0.55 -2.8 -0.55 -2.85 M0.35 -0.35 L0.25 -0.3 0.15 -0.05 0.4 0.35 0.45 0.4 0.55 0.75 0.55 0.9 Q0.6 1.55 1.15 1.75 L1.35 1.65 1.4 1.25 1.25 0.7 Q2.1 0.75 2.65 -0.05 L2.85 -0.1 2.95 -0.15 3.05 -0.3 3.35 -0.75 3.25 -0.8 3.15 -1.05 2.85 -1.1 2.7 -1.0 2.55 -0.85 2.4 -0.8 2.2 -0.7 2.1 -0.5 2.05 -0.45 1.65 -0.1 1.45 -0.15 0.35 -0.35 M-7.6 -7.8 L4.8 -2.55 3.9 -1.0 1.15 2.15 0.05 3.1 -5.6 0.75 -7.15 -1.05 -8.45 -0.45 -10.15 -1.2 -10.9 -1.5 Q-10.85 -4.65 -8.75 -8.25 L-7.6 -7.8 M-3.45 -2.75 Q-6.05 -4.45 -9.15 -5.45 L-9.2 -5.4 -9.35 -5.5 -9.5 -5.4 -9.6 -5.3 -9.65 -5.2 -9.7 -5.1 -9.65 -5.0 -9.65 -4.9 -9.85 -4.25 -9.65 -4.0 -9.65 -3.9 -9.7 -3.85 -9.65 -3.7 -9.6 -3.6 -9.45 -3.45 -9.35 -3.5 -9.0 -3.55 Q-8.7 -3.25 -8.05 -3.2 L-7.95 -3.15 -8.9 -2.85 -9.0 -2.8 -9.05 -2.7 -9.1 -2.6 -9.1 -2.5 -8.75 -2.2 -8.25 -2.25 -7.0 -2.55 -6.85 -2.6 -4.95 -2.0 -4.95 -1.9 -4.9 -1.8 -4.75 -1.65 -4.6 -1.65 -4.45 -1.7 -4.4 -1.75 -4.35 -1.75 -4.5 -1.3 -4.3 -1.05 -5.8 -0.75 -5.85 -0.65 -5.85 -0.6 -5.85 -0.5 Q-5.8 -0.15 -5.4 -0.1 L-5.35 0.0 -5.2 0.15 -5.05 0.15 -4.9 0.1 -4.1 0.3 -4.05 0.3 -3.45 0.7 -1.4 1.35 -1.2 1.2 -1.2 1.1 -1.2 1.0 Q-1.45 0.5 -2.0 0.45 L-2.65 0.25 -2.5 0.15 -2.5 0.05 -2.45 -0.1 -2.4 -0.15 -2.3 -0.2 -2.3 -0.3 -2.3 -0.35 -1.0 -0.05 -0.9 -0.15 -0.85 -0.25 -0.9 -0.35 Q-1.15 -0.95 -1.8 -0.95 L-3.5 -1.15 -4.05 -1.05 -3.85 -1.15 -3.85 -1.2 -3.75 -1.35 -3.65 -1.25 -3.5 -1.2 -3.25 -1.45 -2.8 -2.05 -2.65 -2.05 -2.5 -2.05 -2.35 -2.15 -2.3 -2.3 -2.35 -2.4 -2.5 -2.65 -2.35 -3.15 -2.4 -3.2 -2.5 -3.35 -2.85 -3.35 -2.9 -3.35 -3.05 -3.35 -3.25 -3.15 -3.35 -2.75 -3.45 -2.8 -3.45 -2.75 M-2.5 -3.35 L-2.5 -3.4 -2.5 -3.35" fill="url(#gradient1)" fill-rule="evenodd" stroke="none"/>
    <path d="M0.35 -0.35 L1.45 -0.15 1.65 -0.1 2.05 -0.45 2.1 -0.5 2.2 -0.7 2.4 -0.8 2.55 -0.85 2.7 -1.0 2.85 -1.1 3.15 -1.05 3.25 -0.8 3.35 -0.75 3.05 -0.3 2.95 -0.15 2.85 -0.1 2.65 -0.05 Q2.1 0.75 1.25 0.7 L1.4 1.25 1.35 1.65 1.15 1.75 Q0.6 1.55 0.55 0.9 L0.55 0.75 0.45 0.4 0.4 0.35 0.15 -0.05 0.25 -0.3 0.35 -0.35" fill="#66a600" fill-rule="evenodd" stroke="none"/>
    <path d="M-0.55 -2.8 L-0.65 -2.8 -0.7 -2.7 -0.8 -2.6 -0.85 -2.55 -1.45 -2.95 -2.1 -3.55 -2.45 -3.7 -2.45 -3.8 -2.5 -3.85 Q-3.8 -4.9 -5.4 -5.4 -6.0 -5.65 -6.3 -6.15 L-6.25 -6.25 -6.25 -6.3 -6.2 -6.4 -6.1 -6.4 -5.85 -6.45 Q-2.9 -5.2 -0.1 -3.65 L0.05 -3.7 0.25 -3.7 0.3 -3.75 2.3 -2.7 2.5 -2.3 2.4 -2.25 2.25 -2.1 2.2 -2.1 0.85 -2.6 0.75 -2.5 0.15 -2.6 -0.55 -2.85 -0.6 -2.85 -0.55 -2.8 M-8.95 -4.55 L-8.6 -4.55 -5.7 -3.25 -5.6 -3.25 -5.35 -3.25 -4.25 -2.65 -4.15 -2.7 -4.0 -2.7 -3.9 -2.65 -3.85 -2.65 -3.8 -2.7 -3.7 -2.8 -3.45 -2.75 -3.45 -2.8 -3.35 -2.75 -3.25 -3.15 -3.05 -3.35 -2.9 -3.35 -2.85 -3.35 -2.5 -3.35 -2.4 -3.2 -2.35 -3.15 -2.5 -2.65 -2.35 -2.4 -2.3 -2.3 -2.35 -2.15 -2.5 -2.05 -2.65 -2.05 -2.8 -2.05 -3.25 -1.45 -3.5 -1.2 -3.65 -1.25 -3.75 -1.35 -3.85 -1.2 -3.85 -1.15 -4.05 -1.05 -3.5 -1.15 -1.8 -0.95 Q-1.15 -0.95 -0.9 -0.35 L-0.85 -0.25 -0.9 -0.15 -1.0 -0.05 -2.3 -0.35 -2.3 -0.3 -2.3 -0.2 -2.4 -0.15 -2.45 -0.1 -2.5 0.05 -2.5 0.15 -2.65 0.25 -2.0 0.45 Q-1.45 0.5 -1.2 1.0 L-1.2 1.1 -1.2 1.2 -1.4 1.35 -3.45 0.7 -4.05 0.3 -4.1 0.3 -4.9 0.1 -5.05 0.15 -5.2 0.15 -5.35 0.0 -5.4 -0.1 Q-5.8 -0.15 -5.85 -0.5 L-5.85 -0.6 -5.85 -0.65 -5.8 -0.75 -4.3 -1.05 -4.5 -1.3 -4.35 -1.75 -4.4 -1.75 -4.45 -1.7 -4.6 -1.65 -4.75 -1.65 -4.9 -1.8 -4.95 -1.9 -4.95 -2.0 -6.85 -2.6 -7.0 -2.55 -8.25 -2.25 -8.75 -2.2 -9.1 -2.5 -9.1 -2.6 -9.05 -2.7 -9.0 -2.8 -8.9 -2.85 -7.95 -3.15 -8.05 -3.2 Q-8.7 -3.25 -9.0 -3.55 L-9.2 -3.85 -9.2 -3.95 -9.2 -4.0 -9.25 -4.05 -9.45 -4.25 -9.5 -4.3 -9.45 -4.4 -9.4 -4.55 -9.25 -4.55 -9.05 -4.55 -8.95 -4.55" fill="#55d500" fill-rule="evenodd" stroke="none"/>
    <path d="M-18.25 -1.7 L-18.25 -1.75 -18.25 -1.8 -17.4 -1.55 -18.25 -1.7" fill="url(#gradient2)" fill-rule="evenodd" stroke="none"/>
    <path d="M5.2 3.35 L5.2 3.3 5.25 3.25 5.25 3.2 5.35 3.2 5.4 3.2 5.45 3.25 5.45 3.45 5.4 3.5 5.1 3.8 5.0 3.75 5.0 3.65 5.0 3.6 5.1 3.5 5.15 3.4 5.2 3.4 5.2 3.35" fill="#66ccff" fill-rule="evenodd" stroke="none"/>
    <path d="M-5.05 -9.2 L-4.95 -9.05 Q-4.0 -8.55 -3.0 -8.2 L-0.05 -6.9 0.1 -6.85 0.2 -6.75 1.05 -6.4 Q1.5 -6.05 1.95 -5.9 L2.0 -5.85 2.1 -5.85 4.65 -4.75 5.4 -4.4 5.4 -4.35 5.65 -4.25 5.7 -4.15 6.05 -3.8 6.05 -3.7 6.2 -3.55 6.2 -3.45 6.25 -3.4 6.25 -3.2 6.3 -2.75 6.25 -2.75 6.25 -2.7 6.25 -2.5 6.25 -2.1 6.2 -2.1 6.2 -2.0 6.15 -1.95 6.05 -1.75 6.05 -1.65 6.0 -1.55 6.0 -1.45 5.95 -1.4 5.95 -1.3 5.95 -1.2 5.9 -1.2 5.85 -1.1 5.85 -1.05 5.8 -0.95 5.75 -0.9 5.75 -0.85 5.75 -0.75 5.7 -0.75 5.65 -0.65 5.65 -0.5 5.65 -0.35 5.65 -0.25 3.9 -1.0 4.8 -2.55 -7.6 -7.8 -6.4 -8.65 -6.35 -8.65 -5.05 -9.2" fill="url(#gradient3)" fill-rule="evenodd" stroke="none"/>
    <path d="M5.65 -0.25 L6.4 0.05 6.3 0.05 6.25 0.1 6.25 0.15 6.2 0.2 6.2 0.25 6.15 0.3 6.15 0.4 6.1 0.45 6.1 0.5 6.05 0.5 6.05 0.6 5.95 0.75 5.95 0.8 5.85 1.15 5.8 1.2 5.65 1.65 5.65 1.7 5.6 1.75 5.6 1.85 5.55 1.85 5.5 2.0 5.5 2.1 5.5 2.2 5.45 2.2 5.45 2.3 5.4 2.35 Q5.3 2.45 5.35 2.65 L5.3 2.65 5.3 2.75 2.7 1.6 2.65 1.65 2.45 1.6 2.3 1.65 2.25 1.75 2.2 1.8 2.25 1.95 2.25 2.05 5.2 3.35 5.2 3.4 5.15 3.4 5.1 3.5 5.0 3.6 5.0 3.65 5.0 3.75 5.1 3.8 4.4 3.55 4.4 3.5 4.35 3.45 4.3 3.45 4.25 3.45 1.15 2.15 3.9 -1.0 5.65 -0.25" fill="url(#gradient4)" fill-rule="evenodd" stroke="none"/>
    <path d="M9.15 -5.8 L9.0 -5.9 7.1 -6.85 7.0 -6.9 Q6.15 -7.3 5.35 -7.65 L5.3 -7.65 Q-1.0 -10.35 -4.85 -9.25 L-5.05 -9.2 -6.35 -8.65 M5.65 -0.25 L6.4 0.05 9.4 1.35 9.4 1.3 10.05 -5.3 9.65 -5.55 9.6 -5.55 M3.9 -1.0 L4.8 -2.55 -7.6 -7.8 -8.75 -8.25 Q-10.85 -4.65 -10.9 -1.5 L-10.15 -1.2 -8.45 -0.45 -7.15 -1.05 -5.6 0.75 0.05 3.1 1.15 2.15 3.9 -1.0 5.65 -0.25 M9.95 1.55 L10.6 1.85 9.05 5.5 8.2 5.1 6.95 6.15 6.8 6.25 2.85 9.6 -9.55 4.4 -9.65 4.35 -9.9 3.75 Q-10.7 1.55 -10.55 0.1 L-10.5 -0.15 -10.4 -0.55 M-10.35 -0.7 L-10.15 -1.2 M5.1 3.8 L8.2 5.1 M5.1 3.8 L4.4 3.55 M4.25 3.45 L1.15 2.15 M-6.4 -8.65 L-7.6 -7.8" fill="none" stroke="#000000" stroke-linecap="round" stroke-linejoin="round" stroke-width="1.5"/>
  </g>
  <defs>
    <linearGradient gradientTransform="matrix(-0.0057, -0.0036, 0.003, -0.0048, -4.2, -2.8)" gradientUnits="userSpaceOnUse" id="gradient0" spreadMethod="pad" x1="-819.2" x2="819.2">
      <stop offset="0.0" stop-color="#6699ff"/>
      <stop offset="1.0" stop-color="#aae3ff"/>
    </linearGradient>
    <linearGradient gradientTransform="matrix(-0.0057, -0.0036, 0.003, -0.0048, -4.2, -2.8)" gradientUnits="userSpaceOnUse" id="gradient1" spreadMethod="pad" x1="-819.2" x2="819.2">
      <stop offset="0.0" stop-color="#669900"/>
      <stop offset="1.0" stop-color="#66cc00"/>
    </linearGradient>
    <linearGradient gradientTransform="matrix(-0.0027, -0.0011, 0.0029, -0.0072, -13.4, -6.55)" gradientUnits="userSpaceOnUse" id="gradient2" spreadMethod="pad" x1="-819.2" x2="819.2">
      <stop offset="0.0" stop-color="#66ff00"/>
      <stop offset="1.0" stop-color="#66ff00" stop-opacity="0.0"/>
    </linearGradient>
    <linearGradient gradientTransform="matrix(5.0E-4, -8.0E-4, 0.008, 0.0048, 0.15, -5.95)" gradientUnits="userSpaceOnUse" id="gradient3" spreadMethod="pad" x1="-819.2" x2="819.2">
      <stop offset="0.0" stop-color="#66ff00"/>
      <stop offset="1.0" stop-color="#ffffff"/>
    </linearGradient>
    <linearGradient gradientTransform="matrix(9.0E-4, 3.0E-4, -9.0E-4, 0.0024, 4.45, 1.35)" gradientUnits="userSpaceOnUse" id="gradient4" spreadMethod="pad" x1="-819.2" x2="819.2">
      <stop offset="0.0" stop-color="#66ff00"/>
      <stop offset="1.0" stop-color="#ffffff"/>
    </linearGradient>
  </defs>
</svg>
