<?xml version="1.0" encoding="UTF-8" standalone="no"?>
<svg xmlns:ffdec="https://www.free-decompiler.com/flash" xmlns:xlink="http://www.w3.org/1999/xlink" ffdec:objectType="shape" height="18.4px" width="23.5px" xmlns="http://www.w3.org/2000/svg">
  <g transform="matrix(1.0, 0.0, 0.0, 1.0, 11.75, 9.2)">
    <path d="M6.65 -8.25 L6.75 -8.35 6.9 -8.25 6.95 -8.25 7.05 -8.35 7.2 -8.2 7.25 -8.2 7.35 -8.15 6.1 -7.95 6.25 -7.95 6.35 -7.85 6.4 -7.8 6.4 -7.7 6.4 -7.6 6.75 -7.0 6.8 -6.95 6.75 -7.25 6.75 -7.4 6.85 -7.45 7.0 -7.5 7.0 -7.55 7.4 -7.1 7.4 -7.05 7.65 -6.7 7.65 -6.6 7.8 -6.45 7.85 -6.35 7.9 -6.1 7.9 -5.9 8.0 -5.75 8.05 -5.65 8.05 -5.3 8.05 -5.2 8.3 -4.75 8.4 -4.65 8.45 -4.5 8.45 -4.3 8.3 -4.15 8.15 -4.1 7.95 -4.3 7.95 -4.2 Q8.4 -3.7 8.4 -3.0 L8.4 -2.9 8.6 -2.7 8.65 -2.6 8.6 -2.35 8.5 -2.15 8.05 -2.15 Q7.7 -2.05 7.45 -2.35 L7.45 -2.45 7.4 -2.45 7.4 -2.5 7.3 -2.95 7.25 -3.2 7.25 -3.25 6.5 -5.1 6.45 -5.2 6.1 -5.85 6.1 -5.9 6.05 -6.05 5.55 -6.7 Q4.25 -7.9 2.4 -7.85 L2.2 -7.75 2.15 -7.7 2.15 -7.8 2.15 -7.95 2.15 -8.0 2.25 -8.1 2.3 -8.15 2.45 -8.2 3.65 -8.0 3.75 -8.1 4.0 -8.15 4.0 -8.2 4.35 -8.2 6.5 -8.15 6.65 -8.25 M9.7 -1.75 L9.7 -1.8 10.0 -1.95 10.15 -1.9 10.25 -1.8 10.25 -1.75 10.3 -1.5 10.35 -1.55 10.55 -1.5 10.65 -1.45 10.6 -0.4 10.55 -0.35 10.55 0.85 10.55 0.9 10.55 1.1 10.35 1.3 10.3 1.3 10.3 1.5 10.2 1.65 10.0 1.7 9.6 1.7 Q8.95 1.9 8.4 1.7 L7.35 1.7 3.35 1.65 3.3 1.6 3.25 1.5 3.25 1.45 3.25 1.3 3.35 1.2 3.6 1.15 3.6 1.1 7.8 1.2 8.9 0.5 9.25 0.1 9.35 -1.2 9.35 -1.35 9.6 -1.55 9.7 -1.55 9.7 -1.6 9.7 -1.75 M10.05 2.2 L9.3 3.65 9.0 3.5 8.8 3.55 9.2 3.8 6.85 8.45 -6.6 8.45 -6.6 8.0 -6.9 7.8 -6.9 7.45 -6.85 7.3 3.15 6.9 4.15 6.85 6.05 6.45 7.0 4.75 7.0 4.6 7.4 4.2 7.4 3.8 7.4 3.65 4.15 3.85 3.3 3.9 3.25 4.0 2.9 4.4 2.9 4.45 2.85 4.7 2.85 4.8 2.45 4.95 Q-3.25 5.3 -8.85 4.75 L-8.9 4.6 -9.25 4.6 -9.3 3.5 -7.45 3.5 -6.5 2.5 -4.4 3.5 1.75 3.5 2.4 2.2 10.05 2.2 M4.85 -7.3 L5.05 -7.2 5.0 -7.25 4.85 -7.3 M4.6 -7.45 L4.7 -7.4 4.65 -7.45 4.6 -7.5 4.6 -7.45 M9.55 0.9 L9.65 0.75 9.55 0.9" fill="#e0e0e0" fill-rule="evenodd" stroke="none"/>
    <path d="M7.25 -8.2 L7.7 -8.15 9.7 -1.75 9.7 -1.6 9.7 -1.55 9.6 -1.55 9.35 -1.35 9.35 -1.2 9.25 0.1 8.9 0.5 7.8 1.2 3.6 1.1 3.6 1.15 3.35 1.2 3.25 1.3 3.25 1.45 3.25 1.5 3.3 1.6 3.35 1.65 7.35 1.7 8.4 1.7 Q8.95 1.9 9.6 1.7 L10.0 1.7 10.2 1.65 10.3 1.5 10.3 1.3 10.35 1.3 10.55 1.1 10.55 0.9 10.55 0.85 10.55 -0.35 10.6 -0.4 10.65 -1.45 10.55 -1.5 10.35 -1.55 10.3 -1.5 10.25 -1.75 11.0 -1.75 11.0 2.2 10.05 2.2 2.4 2.2 3.4 -0.6 3.7 -1.75 3.9 -3.55 -9.55 -3.55 Q-6.75 -9.5 6.65 -8.25 L6.5 -8.15 4.35 -8.2 4.0 -8.2 4.0 -8.15 3.75 -8.1 3.65 -8.0 2.45 -8.2 2.3 -8.15 2.25 -8.1 2.15 -8.0 2.15 -7.95 2.15 -7.8 2.15 -7.7 2.2 -7.75 2.4 -7.85 Q4.25 -7.9 5.55 -6.7 L6.05 -6.05 6.1 -5.9 6.1 -5.85 6.45 -5.2 6.5 -5.1 7.25 -3.25 7.25 -3.2 7.3 -2.95 7.4 -2.5 7.4 -2.45 7.45 -2.45 7.45 -2.35 Q7.7 -2.05 8.05 -2.15 L8.5 -2.15 8.6 -2.35 8.65 -2.6 8.6 -2.7 8.4 -2.9 8.4 -3.0 Q8.4 -3.7 7.95 -4.2 L7.95 -4.3 8.15 -4.1 8.3 -4.15 8.45 -4.3 8.45 -4.5 8.4 -4.65 8.3 -4.75 8.05 -5.2 8.05 -5.3 8.05 -5.65 8.0 -5.75 7.9 -5.9 7.9 -6.1 7.85 -6.35 7.8 -6.45 7.65 -6.6 7.65 -6.7 7.4 -7.05 7.4 -7.1 7.0 -7.55 7.0 -7.5 6.85 -7.45 6.75 -7.4 6.75 -7.25 6.8 -6.95 6.75 -7.0 6.4 -7.6 6.4 -7.7 6.4 -7.8 6.35 -7.85 6.25 -7.95 6.1 -7.95 7.35 -8.15 7.25 -8.2 M9.3 3.65 L9.2 3.8 8.8 3.55 9.0 3.5 9.3 3.65 M-6.6 8.45 L-6.75 8.45 -7.2 7.95 Q-8.8 6.25 -9.2 4.85 L-9.25 4.6 -8.9 4.6 -8.85 4.75 Q-3.25 5.3 2.45 4.95 L2.85 4.8 2.85 4.7 2.9 4.45 2.9 4.4 3.25 4.0 3.3 3.9 4.15 3.85 7.4 3.65 7.4 3.8 7.4 4.2 7.0 4.6 7.0 4.75 6.05 6.45 4.15 6.85 3.15 6.9 -6.85 7.3 -6.9 7.45 -6.9 7.8 -6.6 8.0 -6.6 8.45 M4.6 -7.45 L4.6 -7.5 4.65 -7.45 4.7 -7.4 4.6 -7.45 M4.85 -7.3 L5.0 -7.25 5.05 -7.2 4.85 -7.3 M9.7 -1.75 L3.7 -1.75 9.7 -1.75 M9.55 0.9 L9.65 0.75 9.55 0.9" fill="#ffffff" fill-rule="evenodd" stroke="none"/>
    <path d="M-8.15 0.9 L-8.2 0.85 -8.1 0.85 -8.15 0.9 M-9.65 -0.05 L-9.55 -0.05 -9.65 0.0 -9.65 -0.05 M-1.75 1.2 L-1.75 1.25 -1.8 1.25 -1.75 1.2 M-3.65 1.25 L-3.55 1.1 -3.5 1.15 -3.65 1.25" fill="url(#gradient0)" fill-rule="evenodd" stroke="none"/>
    <path d="M-1.15 -1.75 L-1.1 -1.7 -1.2 -1.65 -1.15 -1.75" fill="#7db2ff" fill-rule="evenodd" stroke="none"/>
    <path d="M-9.3 3.5 L-10.15 3.5 Q-10.85 1.75 -10.95 -0.45 L-10.8 -3.55 -9.55 -3.55 3.9 -3.55 3.7 -1.75 3.4 -0.6 2.4 2.2 1.75 3.5 -4.4 3.5 -6.5 2.5 -7.45 3.5 -9.3 3.5 M-1.15 -1.75 L-0.4 -1.75 Q-0.05 -1.8 0.2 -1.95 L0.3 -2.05 1.7 -2.1 1.75 -2.15 1.85 -2.35 1.9 -2.45 1.55 -2.7 -0.7 -2.9 -0.7 -2.85 -0.9 -2.8 -1.0 -2.65 -7.4 -3.0 -7.65 -2.9 -7.75 -2.85 -7.75 -2.7 -7.7 -2.65 -7.7 -2.55 -6.6 -2.2 -3.3 -1.95 -3.25 -1.9 -3.2 -1.8 -3.1 -1.8 -2.85 -1.8 -2.0 -1.5 -1.3 -1.35 -1.25 -1.45 -1.2 -1.55 -1.2 -1.65 -1.1 -1.7 -1.15 -1.75 M1.95 -0.05 L1.8 -0.05 0.65 0.2 0.6 0.3 0.6 0.6 1.0 0.8 1.05 0.85 1.3 1.15 1.35 1.25 1.35 1.3 Q1.65 1.85 2.25 1.8 L2.35 1.65 2.3 1.25 1.95 0.85 Q2.75 0.55 2.9 -0.4 L3.1 -0.55 3.15 -0.65 3.2 -0.8 3.3 -1.3 3.2 -1.35 2.95 -1.55 2.7 -1.45 2.6 -1.3 2.5 -1.1 2.4 -1.0 2.25 -0.8 2.25 -0.65 2.25 -0.55 1.95 -0.05 M-8.15 0.9 L-8.8 1.5 -8.9 1.6 -8.9 1.7 -8.9 1.8 -8.85 1.9 -8.4 2.05 -8.0 1.8 -6.95 1.05 -6.85 0.9 -4.85 0.75 -4.8 0.8 -4.7 0.9 -4.55 1.0 -4.4 0.9 -4.25 0.8 -4.25 0.75 -4.2 0.75 -4.1 0.35 -4.0 0.15 -3.75 -0.35 -3.7 -0.4 -3.65 -0.5 -3.65 -0.55 -3.7 -0.55 -3.65 -0.75 -3.75 -0.8 -3.95 -0.95 -4.05 -0.9 -4.25 -0.8 -4.25 -0.6 -10.1 -0.8 -10.1 -0.75 -10.25 -0.75 -10.35 -0.65 -10.45 -0.5 -10.45 -0.35 -10.45 -0.25 -10.35 -0.2 -10.3 -0.1 -10.25 0.6 -9.95 0.75 -9.95 0.8 -9.95 0.85 -9.85 1.0 -9.75 1.1 Q-9.7 1.05 -9.6 1.15 L-9.5 1.1 -9.2 0.85 -8.2 0.85 -8.15 0.9 M-1.75 1.2 L-0.45 1.05 -0.4 0.85 -0.4 0.75 -0.45 0.7 Q-0.9 0.25 -1.55 0.5 -2.4 0.6 -3.15 1.0 L-3.2 0.9 -3.35 0.9 -3.5 0.9 -3.55 1.05 -3.55 1.1 -3.65 1.25 -3.7 1.3 -3.85 1.35 -5.15 2.2 -5.15 2.35 -5.15 2.4 -5.1 2.5 -4.55 2.65 -4.45 2.75 -4.25 2.85 -4.1 2.75 -4.0 2.65 -3.15 2.5 -3.1 2.5 -2.45 2.65 -0.3 2.45 -0.15 2.25 -0.15 2.15 -0.25 2.05 Q-0.65 1.7 -1.2 1.9 L-1.85 1.9 -1.75 1.75 -1.8 1.65 -1.8 1.55 -1.8 1.5 -1.75 1.35 -1.75 1.25 -1.75 1.2" fill="#333333" fill-rule="evenodd" stroke="none"/>
    <path d="M-1.2 -1.65 L-1.2 -1.55 -1.25 -1.45 -1.3 -1.35 -2.0 -1.5 -2.85 -1.8 -3.1 -1.8 -3.2 -1.8 -3.25 -1.9 -3.3 -1.95 -6.6 -2.2 -7.7 -2.55 -7.7 -2.65 -7.75 -2.7 -7.75 -2.85 -7.65 -2.9 -7.4 -3.0 -1.0 -2.65 -0.9 -2.8 -0.7 -2.85 -0.7 -2.9 1.55 -2.7 1.9 -2.45 1.85 -2.35 1.75 -2.15 1.7 -2.1 0.3 -2.05 0.2 -1.95 Q-0.05 -1.8 -0.4 -1.75 L-1.15 -1.75 -1.2 -1.65 M1.95 -0.05 L2.25 -0.55 2.25 -0.65 2.25 -0.8 2.4 -1.0 2.5 -1.1 2.6 -1.3 2.7 -1.45 2.95 -1.55 3.2 -1.35 3.3 -1.3 3.2 -0.8 3.15 -0.65 3.1 -0.55 2.9 -0.4 Q2.75 0.55 1.95 0.85 L2.3 1.25 2.35 1.65 2.25 1.8 Q1.65 1.85 1.35 1.3 L1.35 1.25 1.3 1.15 1.05 0.85 1.0 0.8 0.6 0.6 0.6 0.3 0.65 0.2 1.8 -0.05 1.95 -0.05 M-8.2 0.85 L-9.2 0.85 -9.5 1.1 -9.6 1.15 Q-9.7 1.05 -9.75 1.1 L-9.85 1.0 -9.95 0.85 -9.95 0.8 -9.95 0.75 -10.25 0.6 -10.3 -0.1 -10.35 -0.2 -10.45 -0.25 -10.45 -0.35 -10.45 -0.5 -10.35 -0.65 -10.25 -0.75 -10.1 -0.75 -10.1 -0.8 -4.25 -0.6 -4.25 -0.8 -4.05 -0.9 -3.95 -0.95 -3.75 -0.8 -3.65 -0.75 -3.7 -0.55 -3.65 -0.55 -3.65 -0.5 -3.7 -0.4 -3.75 -0.35 -4.0 0.15 -4.1 0.35 -4.2 0.75 -4.25 0.75 -4.25 0.8 -4.4 0.9 -4.55 1.0 -4.7 0.9 -4.8 0.8 -4.85 0.75 -6.85 0.9 -6.95 1.05 -8.0 1.8 -8.4 2.05 -8.85 1.9 -8.9 1.8 -8.9 1.7 -8.9 1.6 -8.8 1.5 -8.15 0.9 -8.1 0.85 -8.2 0.85 M-9.65 -0.05 L-9.65 0.0 -9.55 -0.05 -9.65 -0.05 M-3.55 1.1 L-3.55 1.05 -3.5 0.9 -3.35 0.9 -3.2 0.9 -3.15 1.0 Q-2.4 0.6 -1.55 0.5 -0.9 0.25 -0.45 0.7 L-0.4 0.75 -0.4 0.85 -0.45 1.05 -1.75 1.2 -1.8 1.25 -1.75 1.25 -1.75 1.35 -1.8 1.5 -1.8 1.55 -1.8 1.65 -1.75 1.75 -1.85 1.9 -1.2 1.9 Q-0.65 1.7 -0.25 2.05 L-0.15 2.15 -0.15 2.25 -0.3 2.45 -2.45 2.65 -3.1 2.5 -3.15 2.5 -4.0 2.65 -4.1 2.75 -4.25 2.85 -4.45 2.75 -4.55 2.65 -5.1 2.5 -5.15 2.4 -5.15 2.35 -5.15 2.2 -3.85 1.35 -3.7 1.3 -3.65 1.25 -3.5 1.15 -3.55 1.1" fill="#000000" fill-rule="evenodd" stroke="none"/>
    <path d="M7.2 -8.2 L7.25 -8.2 7.7 -8.15 9.7 -1.75 3.7 -1.75 3.9 -3.55 -9.55 -3.55 Q-6.75 -9.5 6.65 -8.25 M10.25 -1.75 L11.0 -1.75 11.0 2.2 10.05 2.2 9.3 3.65 9.2 3.8 6.85 8.45 -6.6 8.45 -6.75 8.45 -7.2 7.95 Q-8.8 6.25 -9.2 4.85 L-9.25 4.6 -9.3 3.5 -10.15 3.5 Q-10.85 1.75 -10.95 -0.45 L-10.8 -3.55 -9.55 -3.55 M2.4 2.2 L3.4 -0.6 3.7 -1.75 M-9.3 3.5 L-7.45 3.5 -6.5 2.5 -4.4 3.5 1.75 3.5 2.4 2.2 10.05 2.2" fill="none" stroke="#000000" stroke-linecap="round" stroke-linejoin="round" stroke-width="1.5"/>
  </g>
  <defs>
    <linearGradient gradientTransform="matrix(-0.0066, -0.0011, 9.0E-4, -0.0056, -4.45, -0.25)" gradientUnits="userSpaceOnUse" id="gradient0" spreadMethod="pad" x1="-819.2" x2="819.2">
      <stop offset="0.0" stop-color="#6699ff"/>
      <stop offset="1.0" stop-color="#aae3ff"/>
    </linearGradient>
  </defs>
</svg>
