<?xml version="1.0" encoding="UTF-8" standalone="no"?>
<svg xmlns:ffdec="https://www.free-decompiler.com/flash" xmlns:xlink="http://www.w3.org/1999/xlink" ffdec:objectType="shape" height="23.05px" width="24.05px" xmlns="http://www.w3.org/2000/svg">
  <g transform="matrix(1.0, 0.0, 0.0, 1.0, 12.15, 11.5)">
    <path d="M6.25 -4.35 L6.25 -4.55 5.75 -4.65 5.6 -4.8 5.8 -5.3 6.1 -5.65 6.1 -5.75 6.1 -5.85 6.35 -6.15 6.55 -6.5 6.6 -6.85 6.6 -7.25 5.25 -8.7 4.85 -9.05 4.75 -9.15 Q4.55 -9.2 4.35 -9.35 L4.15 -9.5 4.3 -9.8 4.55 -9.9 4.6 -10.15 9.25 -8.3 10.1 -6.45 9.05 -6.15 8.95 -6.1 Q7.65 -5.55 7.4 -4.4 L6.25 -4.35 M-3.85 4.25 L-3.7 4.0 Q-3.0 3.2 -1.8 2.7 L-1.05 2.4 1.1 1.35 Q3.5 1.25 5.75 2.1 L6.55 1.15 6.6 1.05 4.8 -0.85 Q4.7 -1.25 4.75 -1.7 L4.75 -2.0 4.95 -2.15 5.1 -2.2 5.1 -2.35 6.55 -2.25 Q6.45 -1.5 6.6 -0.9 6.75 -0.3 7.15 0.2 L7.65 0.7 8.15 1.0 8.6 1.3 7.15 3.75 5.0 3.3 Q1.25 3.0 -2.15 6.35 L-2.6 5.8 Q-3.05 5.0 -3.85 4.25 M-8.35 4.95 L-8.25 4.95 -7.65 5.35 -6.95 5.85 -6.75 6.0 -7.0 6.75 Q-8.15 5.8 -9.2 5.35 L-8.9 4.95 -8.6 5.0 -8.35 4.95" fill="#55e1b7" fill-rule="evenodd" stroke="none"/>
    <path d="M4.6 -10.15 L4.55 -9.9 4.3 -9.8 4.15 -9.5 4.35 -9.35 Q4.55 -9.2 4.75 -9.15 L4.85 -9.05 5.25 -8.7 6.6 -7.25 6.6 -6.85 6.55 -6.5 6.35 -6.15 6.1 -5.85 6.1 -5.75 6.1 -5.65 5.8 -5.3 5.6 -4.8 5.75 -4.65 6.25 -4.55 6.25 -4.35 4.95 -4.25 4.9 -4.55 4.8 -4.55 4.45 -4.7 4.45 -4.8 4.4 -5.0 4.4 -5.15 4.4 -5.25 4.45 -5.3 4.75 -5.55 4.85 -5.65 4.95 -6.4 Q5.15 -7.15 5.0 -7.9 L5.0 -8.0 4.9 -8.1 4.85 -8.2 4.85 -8.3 Q3.65 -9.25 2.05 -9.45 L1.7 -9.75 1.75 -9.85 1.85 -10.05 1.95 -10.1 2.1 -10.15 3.35 -10.05 3.45 -10.45 4.6 -10.15 M5.1 -2.35 L5.1 -2.2 4.95 -2.15 4.75 -2.0 4.75 -1.7 Q4.7 -1.25 4.8 -0.85 L6.6 1.05 6.55 1.15 5.75 2.1 Q3.5 1.25 1.1 1.35 L-1.05 2.4 -1.8 2.7 Q-3.0 3.2 -3.7 4.0 L-3.85 4.25 -4.3 3.85 -3.95 3.4 -4.05 3.3 Q-3.6 2.55 -2.5 2.4 L-1.25 1.95 1.45 0.15 3.15 -1.7 3.85 -2.45 3.9 -2.5 3.9 -2.55 4.05 -2.45 5.1 -2.35 M-6.9 3.35 L-6.9 3.55 -6.9 3.85 Q-7.5 4.7 -8.35 4.95 L-8.6 5.0 -8.9 4.95 -8.9 4.85 -8.95 4.55 -8.95 4.1 -7.55 3.1 -7.55 3.05 Q-7.2 2.95 -7.0 3.25 L-6.9 3.35" fill="#66ffcc" fill-rule="evenodd" stroke="none"/>
    <path d="M6.25 -4.35 L7.4 -4.4 9.6 -4.5 11.1 -4.6 11.4 -1.95 9.8 -2.05 9.3 -2.05 9.2 -2.15 8.95 -2.35 8.9 -2.35 8.55 -2.1 6.55 -2.25 5.1 -2.35 4.05 -2.45 3.9 -2.55 3.9 -2.5 3.85 -2.45 3.15 -1.7 1.45 0.15 -1.25 1.95 -2.5 2.4 Q-3.6 2.55 -4.05 3.3 L-3.95 3.4 -4.3 3.85 -4.7 3.55 Q-6.1 2.4 -7.35 2.0 L-8.1 1.9 -8.1 1.5 -7.6 -0.75 -6.9 -0.65 Q-5.95 -0.65 -5.25 -1.35 -4.75 -1.85 -4.6 -2.5 L-4.55 -3.0 -4.7 -3.8 -5.25 -4.65 Q-5.9 -5.3 -6.8 -5.35 -3.95 -12.1 3.45 -10.45 L3.35 -10.05 2.1 -10.15 1.95 -10.1 1.85 -10.05 1.75 -9.85 1.7 -9.75 2.05 -9.45 Q3.65 -9.25 4.85 -8.3 L4.85 -8.2 4.9 -8.1 5.0 -8.0 5.0 -7.9 Q5.15 -7.15 4.95 -6.4 L4.85 -5.65 4.75 -5.55 4.45 -5.3 4.4 -5.25 4.4 -5.15 4.4 -5.0 4.45 -4.8 4.45 -4.7 4.8 -4.55 4.9 -4.55 4.95 -4.25 6.25 -4.35 M1.1 -9.85 L0.55 -10.05 0.4 -10.0 Q-0.25 -9.65 -0.35 -9.05 0.0 -8.5 0.75 -8.8 L1.0 -9.1 1.2 -9.75 1.1 -9.85 M1.3 -4.6 Q0.65 -5.25 -0.35 -5.25 -1.3 -5.25 -1.95 -4.6 L-2.45 -3.8 -2.6 -2.95 -2.55 -2.5 Q-2.45 -1.85 -1.95 -1.35 -1.3 -0.65 -0.35 -0.65 0.65 -0.65 1.3 -1.35 1.85 -1.9 2.0 -2.6 L2.0 -2.95 1.7 -4.1 1.3 -4.6 M1.7 -4.1 L4.95 -4.25 1.7 -4.1 M3.85 -2.45 L2.0 -2.6 3.85 -2.45 M-0.9 -9.6 L-1.5 -9.8 Q-3.75 -8.85 -5.05 -6.7 L-5.05 -6.25 -5.05 -5.95 -4.3 -5.8 -4.2 -5.9 -3.2 -7.05 -2.9 -7.3 -2.8 -7.45 -1.95 -7.8 -1.85 -7.9 -0.85 -8.95 -0.8 -9.3 -0.8 -9.5 -0.9 -9.6 M-2.55 -2.5 L-4.6 -2.5 -2.55 -2.5 M-4.7 -3.8 L-2.45 -3.8 -4.7 -3.8 M-6.15 1.35 Q-5.7 1.4 -5.5 1.05 L-5.5 0.85 -5.5 0.3 -5.6 0.2 Q-5.75 0.0 -6.0 0.0 L-6.15 0.1 -6.45 0.45 -6.6 0.55 -6.75 0.75 -6.8 1.0 -6.75 1.3 -6.25 1.45 -6.15 1.35" fill="#a8ffe2" fill-rule="evenodd" stroke="none"/>
    <path d="M1.1 -9.85 L1.2 -9.75 1.0 -9.1 0.75 -8.8 Q0.0 -8.5 -0.35 -9.05 -0.25 -9.65 0.4 -10.0 L0.55 -10.05 1.1 -9.85 M1.3 -4.6 L1.7 -4.1 2.0 -2.95 2.0 -2.6 Q1.85 -1.9 1.3 -1.35 0.65 -0.65 -0.35 -0.65 -1.3 -0.65 -1.95 -1.35 -2.45 -1.85 -2.55 -2.5 L-2.6 -2.95 -2.45 -3.8 -1.95 -4.6 Q-1.3 -5.25 -0.35 -5.25 0.65 -5.25 1.3 -4.6 M-0.9 -9.6 L-0.8 -9.5 -0.8 -9.3 -0.85 -8.95 -1.85 -7.9 -1.95 -7.8 -2.8 -7.45 -2.9 -7.3 -3.2 -7.05 -4.2 -5.9 -4.3 -5.8 -5.05 -5.95 -5.05 -6.25 -5.05 -6.7 Q-3.75 -8.85 -1.5 -9.8 L-0.9 -9.6 M-6.8 -5.35 Q-5.9 -5.3 -5.25 -4.65 L-4.7 -3.8 -4.55 -3.0 -4.6 -2.5 Q-4.75 -1.85 -5.25 -1.35 -5.95 -0.65 -6.9 -0.65 L-7.6 -0.75 -8.55 -1.35 Q-9.25 -2.0 -9.25 -3.0 -9.25 -3.95 -8.55 -4.65 -7.85 -5.35 -6.9 -5.35 L-6.8 -5.35 M-5.4 -3.6 L-7.35 -4.95 -5.4 -3.6 M-0.85 -4.55 L-2.1 -2.7 -0.85 -4.55 M-6.15 1.35 L-6.25 1.45 -6.75 1.3 -6.8 1.0 -6.75 0.75 -6.6 0.55 -6.45 0.45 -6.15 0.1 -6.0 0.0 Q-5.75 0.0 -5.6 0.2 L-5.5 0.3 -5.5 0.85 -5.5 1.05 Q-5.7 1.4 -6.15 1.35" fill="#ffffff" fill-rule="evenodd" stroke="none"/>
    <path d="M7.4 -4.4 Q7.65 -5.55 8.95 -6.1 L9.6 -4.5 7.4 -4.4 M8.15 1.0 L7.65 0.7 7.15 0.2 Q6.75 -0.3 6.6 -0.9 6.45 -1.5 6.55 -2.25 L8.55 -2.1 8.1 -1.6 8.1 -1.4 8.1 -1.2 7.1 -0.1 Q7.3 0.3 7.8 0.2 L8.2 0.3 9.3 -0.65 9.3 -0.85 9.4 -1.95 9.3 -2.0 9.3 -2.05 9.8 -2.05 Q9.75 -0.5 8.15 1.0 M9.0 -5.25 L9.0 -5.35 Q8.85 -5.65 8.45 -5.6 L8.35 -5.6 Q8.05 -5.45 8.1 -5.2 8.3 -4.8 8.8 -4.95 L8.95 -5.15 9.0 -5.25 M-7.0 6.75 Q-5.6 7.85 -4.9 9.0 L-4.4 10.05 -4.35 10.15 -4.4 10.25 -4.5 10.6 -5.0 10.8 -6.15 10.6 -6.7 10.35 -8.8 9.0 -9.6 8.3 -10.9 6.8 Q-11.5 5.9 -11.35 5.4 L-11.05 5.05 -9.65 5.2 -9.2 5.35 Q-8.15 5.8 -7.0 6.75" fill="#666666" fill-rule="evenodd" stroke="none"/>
    <path d="M9.0 -5.25 L8.95 -5.15 8.8 -4.95 Q8.3 -4.8 8.1 -5.2 8.05 -5.45 8.35 -5.6 L8.45 -5.6 Q8.85 -5.65 9.0 -5.35 L9.0 -5.25 M8.55 -2.1 L8.9 -2.35 8.95 -2.35 9.2 -2.15 9.3 -2.05 9.3 -2.0 9.4 -1.95 9.3 -0.85 9.3 -0.65 8.2 0.3 7.8 0.2 Q7.3 0.3 7.1 -0.1 L8.1 -1.2 8.1 -1.4 8.1 -1.6 8.55 -2.1" fill="#333333" fill-rule="evenodd" stroke="none"/>
    <path d="M-4.3 3.85 L-3.85 4.25 Q-3.05 5.0 -2.6 5.8 L-2.2 6.4 -2.15 6.65 Q-2.05 6.95 -2.1 7.2 L-2.1 7.25 -2.3 7.5 -4.4 10.25 -4.35 10.15 -4.4 10.05 -4.9 9.0 Q-5.6 7.85 -7.0 6.75 L-6.75 6.0 -6.15 6.1 -5.4 6.15 -5.3 6.1 -5.2 6.0 -4.9 5.7 -4.8 5.6 -4.85 5.5 -5.25 4.8 Q-5.9 3.8 -6.9 3.35 L-7.0 3.25 Q-7.2 2.95 -7.55 3.05 L-7.55 3.1 -8.95 2.85 -9.0 2.9 -9.2 3.0 -9.3 3.1 -9.45 3.0 -9.05 2.55 -9.05 2.3 -8.7 2.2 -8.4 1.95 -8.1 1.9 -7.35 2.0 Q-6.1 2.4 -4.7 3.55 L-4.3 3.85" fill="#2bb380" fill-rule="evenodd" stroke="none"/>
    <path d="M-6.9 3.35 Q-5.9 3.8 -5.25 4.8 L-4.85 5.5 -4.8 5.6 -4.9 5.7 -5.2 6.0 -5.3 6.1 -5.4 6.15 -6.15 6.1 -6.75 6.0 -6.95 5.85 -7.65 5.35 -8.25 4.95 -8.35 4.95 Q-7.5 4.7 -6.9 3.85 L-6.9 3.55 -6.9 3.35 M-7.55 3.1 L-8.95 4.1 -8.95 4.55 -8.9 4.85 -9.1 4.8 -9.6 4.35 -9.6 4.25 -9.55 3.6 -9.35 3.3 -9.35 3.2 -9.3 3.1 -9.2 3.0 -9.0 2.9 -8.95 2.85 -7.55 3.1 M-5.8 5.2 L-6.05 5.0 -5.85 5.2 -5.8 5.2" fill="#4fd2ab" fill-rule="evenodd" stroke="none"/>
    <path d="M-8.9 4.85 L-8.9 4.95 -9.2 5.35 -9.65 5.2 -11.05 5.05 -9.45 3.0 -9.3 3.1 -9.35 3.2 -9.35 3.3 -9.55 3.6 -9.6 4.25 -9.6 4.35 -9.1 4.8 -8.9 4.85 M-5.8 5.2 L-5.85 5.2 -6.05 5.0 -5.8 5.2" fill="#ff9900" fill-rule="evenodd" stroke="none"/>
    <path d="M9.25 -8.3 L4.6 -10.15 3.45 -10.45 Q-3.95 -12.1 -6.8 -5.35 L-6.9 -5.35 Q-7.85 -5.35 -8.55 -4.65 -9.25 -3.95 -9.25 -3.0 -9.25 -2.0 -8.55 -1.35 L-7.6 -0.75 -8.1 1.5 M-2.15 6.35 Q1.25 3.0 5.0 3.3 L7.15 3.75 8.6 1.3 8.65 1.2 M-7.6 -0.75 L-6.9 -0.65 Q-5.95 -0.65 -5.25 -1.35 -4.75 -1.85 -4.6 -2.5 L-4.55 -3.0 -4.7 -3.8 -5.25 -4.65 Q-5.9 -5.3 -6.8 -5.35 M-2.15 6.35 L-2.2 6.4" fill="none" stroke="#000000" stroke-linecap="round" stroke-linejoin="round" stroke-width="1.5"/>
    <path d="M1.3 -4.6 Q0.65 -5.25 -0.35 -5.25 -1.3 -5.25 -1.95 -4.6 L-2.45 -3.8 -2.6 -2.95 -2.55 -2.5 Q-2.45 -1.85 -1.95 -1.35 -1.3 -0.65 -0.35 -0.65 0.65 -0.65 1.3 -1.35 1.85 -1.9 2.0 -2.6 L2.0 -2.95 1.7 -4.1 1.3 -4.6 M-4.4 10.25 L-2.3 7.5 -2.1 7.25 -2.1 7.2 Q-2.05 6.95 -2.15 6.65 L-2.2 6.4 M-8.7 2.2 L-8.4 1.95 -8.1 1.9 M-9.45 3.0 L-9.05 2.55 M-11.05 5.05 L-11.35 5.4 Q-11.5 5.9 -10.9 6.8 L-9.6 8.3 -8.8 9.0 -6.7 10.35 -6.15 10.6 -5.0 10.8 -4.5 10.6 -4.4 10.25 M-2.1 7.25 L-2.15 7.3 -2.2 7.4 -2.3 7.5 M-11.35 5.4 L-11.25 5.2 -11.05 5.05 -9.45 3.0" fill="none" stroke="#000000" stroke-linecap="round" stroke-linejoin="round" stroke-width="1.5"/>
    <path d="M-9.05 2.3 L-8.7 2.2" fill="none" stroke="#000000" stroke-linecap="round" stroke-linejoin="round" stroke-width="1.25"/>
    <path d="M6.25 -4.35 L7.4 -4.4 Q7.65 -5.55 8.95 -6.1 L9.05 -6.15 10.1 -6.45 9.25 -8.3 M4.95 -4.25 L6.25 -4.35 M5.1 -2.35 L4.05 -2.45 M-4.3 3.85 L-3.85 4.25 Q-3.05 5.0 -2.6 5.8 L-2.2 6.4 M8.15 1.0 L7.65 0.7 7.15 0.2 Q6.75 -0.3 6.6 -0.9 6.45 -1.5 6.55 -2.25 L5.1 -2.35 M2.0 -2.6 L3.85 -2.45 M4.95 -4.25 L1.7 -4.1 M8.95 -6.1 L9.6 -4.5 11.1 -4.6 11.4 -1.95 9.8 -2.05 Q9.75 -0.5 8.15 1.0 L8.65 1.2 M9.3 -2.05 L9.8 -2.05 M8.55 -2.1 L6.55 -2.25 M9.6 -4.5 L7.4 -4.4 M-8.1 1.9 L-7.35 2.0 Q-6.1 2.4 -4.7 3.55 L-4.3 3.85 M-4.6 -2.5 L-2.55 -2.5 M-2.45 -3.8 L-4.7 -3.8 M-7.0 6.75 Q-5.6 7.85 -4.9 9.0 L-4.4 10.05 -4.35 10.15 -4.4 10.25 M-9.2 5.35 Q-8.15 5.8 -7.0 6.75 M-9.2 5.35 L-9.65 5.2 -11.05 5.05" fill="none" stroke="#000000" stroke-linecap="round" stroke-linejoin="round" stroke-width="1.0"/>
    <path d="M-7.35 -4.95 L-5.4 -3.6 M-2.1 -2.7 L-0.85 -4.55" fill="none" stroke="#a8ffe2" stroke-linecap="round" stroke-linejoin="round" stroke-width="1.0"/>
  </g>
</svg>
