<?xml version="1.0" encoding="UTF-8" standalone="no"?>
<svg xmlns:ffdec="https://www.free-decompiler.com/flash" xmlns:xlink="http://www.w3.org/1999/xlink" ffdec:objectType="shape" height="21.05px" width="25.7px" xmlns="http://www.w3.org/2000/svg">
  <g transform="matrix(1.0, 0.0, 0.0, 1.0, 13.25, 11.25)">
    <path d="M7.2 -2.45 L7.25 -2.65 Q7.0 -2.65 6.8 -2.9 L6.7 -3.1 7.05 -3.5 7.4 -3.75 7.45 -3.85 7.45 -3.95 7.8 -4.2 8.1 -4.45 8.2 -4.8 8.35 -5.15 7.4 -6.95 7.15 -7.35 7.05 -7.5 6.75 -7.8 6.6 -8.0 6.8 -8.25 7.1 -8.25 7.15 -8.55 11.15 -5.45 11.5 -3.45 10.4 -3.45 10.25 -3.45 Q8.85 -3.25 8.3 -2.2 L7.2 -2.45 M5.55 -0.9 L6.9 -0.4 Q6.6 0.3 6.6 0.95 6.55 1.55 6.8 2.15 L7.15 2.75 7.6 3.2 7.95 3.55 5.85 5.55 Q4.9 4.9 3.9 4.55 0.35 3.25 -3.75 5.5 L-4.05 4.85 Q-4.3 4.0 -4.85 3.05 L-4.65 2.85 Q-3.75 2.25 -2.45 2.1 L-1.65 2.0 0.7 1.6 Q3.05 2.15 4.95 3.6 L6.0 2.9 6.05 2.8 Q5.3 1.7 4.85 0.5 L5.05 -0.35 5.1 -0.6 5.35 -0.7 5.5 -0.7 5.55 -0.9 M-9.4 2.5 L-9.25 2.55 -8.8 3.05 -8.25 3.75 -8.1 3.9 -8.55 4.6 Q-9.4 3.35 -10.3 2.65 L-9.9 2.35 -9.6 2.5 -9.4 2.5" fill="#55e1b7" fill-rule="evenodd" stroke="none"/>
    <path d="M7.15 -8.55 L7.1 -8.25 6.8 -8.25 6.6 -8.0 6.75 -7.8 7.05 -7.5 7.15 -7.35 7.4 -6.95 8.35 -5.15 8.2 -4.8 8.1 -4.45 7.8 -4.2 7.45 -3.95 7.45 -3.85 7.4 -3.75 7.05 -3.5 6.7 -3.1 6.8 -2.9 Q7.0 -2.65 7.25 -2.65 L7.2 -2.45 5.9 -2.75 5.95 -3.05 5.85 -3.05 5.55 -3.3 5.6 -3.4 5.6 -3.6 5.65 -3.75 5.65 -3.85 5.75 -3.85 6.1 -4.05 6.2 -4.1 6.5 -4.8 Q6.9 -5.5 6.95 -6.25 L7.0 -6.3 6.9 -6.45 6.9 -6.55 6.95 -6.65 Q6.05 -7.9 4.55 -8.5 4.3 -8.65 4.3 -8.9 L4.35 -9.0 4.5 -9.15 4.65 -9.15 4.8 -9.2 5.95 -8.75 6.15 -9.15 7.15 -8.55 M4.35 -1.35 L4.45 -1.35 4.45 -1.4 4.55 -1.25 5.55 -0.9 5.5 -0.7 5.35 -0.7 5.1 -0.6 5.05 -0.35 4.85 0.5 Q5.3 1.7 6.05 2.8 L6.0 2.9 4.95 3.6 Q3.05 2.15 0.7 1.6 L-1.65 2.0 -2.45 2.1 Q-3.75 2.25 -4.65 2.85 L-4.85 3.05 -5.2 2.55 -4.7 2.2 -4.8 2.1 Q-4.15 1.45 -3.05 1.65 L-1.7 1.55 1.35 0.55 3.5 -0.75 Q3.8 -1.25 4.35 -1.35 M-7.55 1.35 L-7.6 1.55 -7.65 1.85 Q-8.45 2.5 -9.4 2.5 L-9.6 2.5 -9.9 2.35 -9.9 2.25 -9.85 1.95 -9.7 1.5 -8.1 0.9 -7.6 1.25 -7.55 1.35" fill="#66ffcc" fill-rule="evenodd" stroke="none"/>
    <path d="M7.2 -2.45 L8.3 -2.2 10.45 -1.75 11.95 -1.4 11.5 1.25 10.0 0.7 9.5 0.55 9.45 0.45 9.25 0.2 9.2 0.15 8.8 0.3 6.9 -0.4 5.55 -0.9 4.55 -1.25 4.45 -1.4 4.45 -1.35 4.35 -1.35 Q3.8 -1.25 3.5 -0.75 L1.35 0.55 -1.7 1.55 -3.05 1.65 Q-4.15 1.45 -4.8 2.1 L-4.7 2.2 -5.2 2.55 -5.45 2.15 Q-6.5 0.65 -7.6 -0.1 L-8.3 -0.4 -8.2 -0.75 -7.1 -2.8 -6.45 -2.5 -4.65 -2.7 Q-4.05 -3.05 -3.75 -3.65 L-3.55 -4.1 -3.45 -4.9 -3.75 -5.9 Q-4.25 -6.7 -5.05 -7.0 -0.5 -12.7 6.15 -9.15 L5.95 -8.75 4.8 -9.2 4.65 -9.15 4.5 -9.15 4.35 -9.0 4.3 -8.9 Q4.3 -8.65 4.55 -8.5 6.05 -7.9 6.95 -6.65 L6.9 -6.55 6.9 -6.45 7.0 -6.3 6.95 -6.25 Q6.9 -5.5 6.5 -4.8 L6.2 -4.1 6.1 -4.05 5.75 -3.85 5.65 -3.85 5.65 -3.75 5.6 -3.6 5.6 -3.4 5.55 -3.3 5.85 -3.05 5.95 -3.05 5.9 -2.75 7.2 -2.45 M1.8 -9.35 L1.75 -9.45 1.25 -9.8 Q-1.2 -9.55 -3.0 -7.8 L-3.15 -7.35 -3.25 -7.1 Q-3.0 -6.7 -2.55 -6.75 L-2.4 -6.8 -1.15 -7.65 -0.8 -7.8 -0.65 -7.9 0.25 -8.0 0.4 -8.1 1.65 -8.8 1.75 -9.15 1.8 -9.35 M3.25 -9.5 L3.1 -9.5 Q2.4 -9.35 2.15 -8.8 2.3 -8.15 3.1 -8.25 L3.45 -8.45 3.8 -9.05 3.75 -9.15 3.25 -9.5 M2.75 -3.5 L2.5 -4.05 Q2.05 -4.9 1.1 -5.15 L-0.6 -4.95 Q-1.05 -4.7 -1.3 -4.3 L-1.7 -3.55 -1.75 -3.1 -1.75 -2.65 -1.5 -1.8 Q-1.05 -1.0 -0.15 -0.7 0.8 -0.45 1.65 -0.95 2.3 -1.3 2.6 -1.95 L2.75 -2.3 2.75 -3.45 2.75 -3.5 M4.35 -1.35 L2.6 -1.95 4.35 -1.35 M2.75 -3.45 L5.9 -2.75 2.75 -3.45 M-5.75 -1.6 L-5.95 -1.55 -6.3 -1.3 -6.5 -1.25 -6.7 -1.1 -6.8 -0.85 -6.85 -0.55 -6.4 -0.3 -6.25 -0.35 -5.55 -0.45 -5.5 -0.65 -5.35 -1.2 -5.45 -1.3 -5.75 -1.6 M-1.75 -3.1 L-3.75 -3.65 -1.75 -3.1 M-3.45 -4.9 L-1.3 -4.3 -3.45 -4.9" fill="#a8ffe2" fill-rule="evenodd" stroke="none"/>
    <path d="M3.25 -9.5 L3.75 -9.15 3.8 -9.05 3.45 -8.45 3.1 -8.25 Q2.3 -8.15 2.15 -8.8 2.4 -9.35 3.1 -9.5 L3.25 -9.5 M1.8 -9.35 L1.75 -9.15 1.65 -8.8 0.4 -8.1 0.25 -8.0 -0.65 -7.9 -0.8 -7.8 -1.15 -7.65 -2.4 -6.8 -2.55 -6.75 Q-3.0 -6.7 -3.25 -7.1 L-3.15 -7.35 -3.0 -7.8 Q-1.2 -9.55 1.25 -9.8 L1.75 -9.45 1.8 -9.35 M-5.75 -1.6 L-5.45 -1.3 -5.35 -1.2 -5.5 -0.65 -5.55 -0.45 -6.25 -0.35 -6.4 -0.3 -6.85 -0.55 -6.8 -0.85 -6.7 -1.1 -6.5 -1.25 -6.3 -1.3 -5.95 -1.55 -5.75 -1.6" fill="#ffffff" fill-rule="evenodd" stroke="none"/>
    <path d="M8.3 -2.2 Q8.85 -3.25 10.25 -3.45 L10.45 -1.75 8.3 -2.2 M6.9 -0.4 L8.8 0.3 Q8.5 0.4 8.25 0.65 L8.2 0.85 8.15 1.05 Q7.4 1.4 6.85 1.85 6.95 2.25 7.45 2.3 L7.8 2.55 9.15 1.9 9.2 1.7 9.6 0.7 9.5 0.6 9.5 0.55 10.0 0.7 Q9.5 2.15 7.6 3.2 L7.15 2.75 6.8 2.15 Q6.55 1.55 6.6 0.95 6.6 0.3 6.9 -0.4 M9.65 -3.1 L9.55 -3.1 Q9.2 -3.05 9.2 -2.8 9.3 -2.35 9.8 -2.35 L10.0 -2.5 10.1 -2.6 10.1 -2.7 9.65 -3.1 M-7.0 8.65 L-7.2 8.95 -7.75 9.05 -8.8 8.5 -9.25 8.15 -10.9 6.3 -11.45 5.4 -12.35 3.55 Q-12.65 2.55 -12.35 2.1 L-12.0 1.85 Q-11.55 1.75 -10.65 2.35 L-10.3 2.65 Q-9.4 3.35 -8.55 4.6 -7.5 6.05 -7.15 7.3 -6.9 8.05 -6.95 8.45 L-6.95 8.55 -7.0 8.65" fill="#666666" fill-rule="evenodd" stroke="none"/>
    <path d="M8.8 0.3 L9.2 0.15 9.25 0.2 9.45 0.45 9.5 0.55 9.5 0.6 9.6 0.7 9.2 1.7 9.15 1.9 7.8 2.55 7.45 2.3 Q6.95 2.25 6.85 1.85 7.4 1.4 8.15 1.05 L8.2 0.85 8.25 0.65 Q8.5 0.4 8.8 0.3 M9.65 -3.1 L10.1 -2.7 10.1 -2.6 10.0 -2.5 9.8 -2.35 Q9.3 -2.35 9.2 -2.8 9.2 -3.05 9.55 -3.1 L9.65 -3.1" fill="#333333" fill-rule="evenodd" stroke="none"/>
    <path d="M-5.2 2.55 L-4.85 3.05 Q-4.3 4.0 -4.05 4.85 L-3.85 5.55 -3.85 5.8 -3.95 6.35 -4.0 6.4 -4.05 6.45 -4.25 6.55 -4.25 6.6 -7.0 8.65 -6.95 8.55 -6.95 8.45 Q-6.9 8.05 -7.15 7.3 -7.5 6.05 -8.55 4.6 L-8.1 3.9 -7.55 4.2 -6.85 4.45 -6.75 4.45 -6.6 4.35 -6.25 4.15 -6.1 4.1 -6.15 4.0 -6.35 3.15 Q-6.7 2.05 -7.55 1.35 L-7.6 1.25 -8.1 0.9 Q-8.65 0.55 -9.35 0.3 L-9.45 0.35 -9.65 0.4 -9.75 0.45 -9.9 0.35 -9.4 0.0 -9.3 -0.25 -8.95 -0.25 -8.6 -0.4 -8.3 -0.4 -7.6 -0.1 Q-6.5 0.65 -5.45 2.15 L-5.2 2.55" fill="#2bb380" fill-rule="evenodd" stroke="none"/>
    <path d="M-9.4 2.5 Q-8.45 2.5 -7.65 1.85 L-7.6 1.55 -7.55 1.35 Q-6.7 2.05 -6.35 3.15 L-6.15 4.0 -6.1 4.1 -6.25 4.15 -6.6 4.35 -6.75 4.45 -6.85 4.45 -7.55 4.2 -8.1 3.9 -8.25 3.75 -8.8 3.05 -9.25 2.55 -9.4 2.5 M-8.1 0.9 L-9.7 1.5 -9.85 1.95 -9.9 2.25 -10.05 2.15 -10.4 1.6 -10.35 1.5 -10.15 0.9 -9.85 0.65 -9.85 0.55 -9.75 0.45 -9.65 0.4 -9.45 0.35 -9.35 0.3 Q-8.65 0.55 -8.1 0.9 M-7.05 3.4 L-7.0 3.4 -7.15 3.2 -7.05 3.4" fill="#4fd2ab" fill-rule="evenodd" stroke="none"/>
    <path d="M-12.0 1.85 L-9.9 0.35 -9.75 0.45 -9.85 0.55 -9.85 0.65 -10.15 0.9 -10.35 1.5 -10.4 1.6 -10.05 2.15 -9.9 2.25 -9.9 2.35 -10.3 2.65 -10.65 2.35 Q-11.55 1.75 -12.0 1.85 M-7.05 3.4 L-7.15 3.2 -7.0 3.4 -7.05 3.4" fill="#ff9900" fill-rule="evenodd" stroke="none"/>
    <path d="M2.75 -3.5 L2.75 -3.45 2.75 -2.3 2.6 -1.95 Q2.3 -1.3 1.65 -0.95 0.8 -0.45 -0.15 -0.7 -1.05 -1.0 -1.5 -1.8 L-1.75 -2.65 -1.75 -3.1 -1.7 -3.55 -1.3 -4.3 Q-1.05 -4.7 -0.6 -4.95 L1.1 -5.15 Q2.05 -4.9 2.5 -4.05 L2.75 -3.5 2.6 -3.5 -0.95 -2.8 2.6 -3.5 2.75 -3.5 M-7.1 -2.8 L-7.85 -3.6 Q-8.35 -4.45 -8.05 -5.4 L-7.6 -6.25 -6.95 -6.8 -5.15 -7.0 -5.05 -7.0 Q-4.25 -6.7 -3.75 -5.9 L-3.45 -4.9 -3.55 -4.1 -3.75 -3.65 Q-4.05 -3.05 -4.65 -2.7 L-6.45 -2.5 -7.1 -2.8 M-4.75 -3.95 L-7.6 -6.25 -4.75 -3.95" fill="#cccccc" fill-rule="evenodd" stroke="none"/>
    <path d="M7.2 -2.45 L8.3 -2.2 Q8.85 -3.25 10.25 -3.45 L10.4 -3.45 11.5 -3.45 11.15 -5.45 M5.9 -2.75 L7.2 -2.45 M4.55 -1.25 L5.55 -0.9 6.9 -0.4 8.8 0.3 M9.5 0.55 L10.0 0.7 11.5 1.25 11.95 -1.4 10.45 -1.75 8.3 -2.2 M-5.2 2.55 L-4.85 3.05 Q-4.3 4.0 -4.05 4.85 L-3.85 5.55 M2.6 -1.95 L4.35 -1.35 M5.9 -2.75 L2.75 -3.45 M10.45 -1.75 L10.25 -3.45 M6.9 -0.4 Q6.6 0.3 6.6 0.95 6.55 1.55 6.8 2.15 L7.15 2.75 7.6 3.2 Q9.5 2.15 10.0 0.7 M8.0 3.5 L7.6 3.2 M-5.2 2.55 L-5.45 2.15 Q-6.5 0.65 -7.6 -0.1 L-8.3 -0.4 M-1.3 -4.3 L-3.45 -4.9 M-3.75 -3.65 L-1.75 -3.1 M-7.0 8.65 L-6.95 8.55 -6.95 8.45 Q-6.9 8.05 -7.15 7.3 -7.5 6.05 -8.55 4.6 -9.4 3.35 -10.3 2.65 L-10.65 2.35 Q-11.55 1.75 -12.0 1.85" fill="none" stroke="#000000" stroke-linecap="round" stroke-linejoin="round" stroke-width="1.0"/>
    <path d="M11.15 -5.45 L7.15 -8.55 6.15 -9.15 Q-0.5 -12.7 -5.05 -7.0 L-5.15 -7.0 -6.95 -6.8 -7.6 -6.25 -8.05 -5.4 Q-8.35 -4.45 -7.85 -3.6 L-7.1 -2.8 -6.45 -2.5 -4.65 -2.7 Q-4.05 -3.05 -3.75 -3.65 L-3.55 -4.1 -3.45 -4.9 -3.75 -5.9 Q-4.25 -6.7 -5.05 -7.0 M7.95 3.55 L8.0 3.5 M7.95 3.55 L5.85 5.55 Q4.9 4.9 3.9 4.55 0.35 3.25 -3.75 5.5 L-3.85 5.55 M-8.2 -0.75 L-7.1 -2.8" fill="none" stroke="#000000" stroke-linecap="round" stroke-linejoin="round" stroke-width="1.5"/>
    <path d="M2.75 -3.5 L2.5 -4.05 Q2.05 -4.9 1.1 -5.15 L-0.6 -4.95 Q-1.05 -4.7 -1.3 -4.3 L-1.7 -3.55 -1.75 -3.1 -1.75 -2.65 -1.5 -1.8 Q-1.05 -1.0 -0.15 -0.7 0.8 -0.45 1.65 -0.95 2.3 -1.3 2.6 -1.95 L2.75 -2.3 2.75 -3.45 2.75 -3.5 M-3.85 5.55 L-3.85 5.8 -3.95 6.35 -4.0 6.4 -4.05 6.45 -4.1 6.5 -4.25 6.55 -4.25 6.6 -7.0 8.65 -7.2 8.95 -7.75 9.05 -8.8 8.5 -9.25 8.15 -10.9 6.3 -11.45 5.4 -12.35 3.55 Q-12.65 2.55 -12.35 2.1 L-12.2 1.95 -12.0 1.85 -9.9 0.35 -9.4 0.0 M-8.95 -0.25 L-8.6 -0.4 -8.3 -0.4 M-12.0 1.85 L-12.35 2.1 M-4.05 6.45 L-4.25 6.55" fill="none" stroke="#000000" stroke-linecap="round" stroke-linejoin="round" stroke-width="1.5"/>
    <path d="M-9.3 -0.25 L-8.95 -0.25" fill="none" stroke="#000000" stroke-linecap="round" stroke-linejoin="round" stroke-width="1.25"/>
    <path d="M2.75 -3.5 L2.6 -3.5 -0.95 -2.8 M-7.6 -6.25 L-4.75 -3.95" fill="none" stroke="#000000" stroke-linecap="round" stroke-linejoin="round" stroke-width="1.0"/>
  </g>
</svg>
