<?xml version="1.0" encoding="UTF-8" standalone="no"?>
<svg xmlns:ffdec="https://www.free-decompiler.com/flash" xmlns:xlink="http://www.w3.org/1999/xlink" ffdec:objectType="shape" height="21.5px" width="21.5px" xmlns="http://www.w3.org/2000/svg">
  <g transform="matrix(1.0, 0.0, 0.0, 1.0, 10.7, 10.75)">
    <path d="M0.05 -10.75 Q4.45 -10.75 7.65 -7.6 10.8 -4.45 10.8 0.0 10.8 4.4 7.65 7.6 4.45 10.75 0.05 10.75 -4.35 10.75 -7.5 7.6 -10.7 4.4 -10.7 0.0 -10.7 -4.45 -7.5 -7.6 -4.35 -10.75 0.05 -10.75" fill="#ffcc00" fill-opacity="0.4627451" fill-rule="evenodd" stroke="none"/>
    <path d="M-7.05 4.85 L-6.95 4.95 -6.65 5.15 -6.3 5.35 -5.65 5.55 Q-4.5 5.8 -3.3 5.55 L-2.9 5.35 -2.5 5.3 -1.4 5.1 -0.7 4.7 -0.1 4.35 Q1.9 3.25 3.25 1.45 L3.45 1.0 Q4.3 -1.0 4.15 -3.25 4.1 -4.45 3.45 -5.45 L3.1 -6.05 1.45 -7.7 0.65 -8.15 0.5 -8.2 0.5 -8.15 0.2 -8.25 -1.4 -8.3 -1.6 -8.5 0.05 -8.65 Q3.6 -8.65 6.1 -6.15 8.65 -3.6 8.65 -0.05 8.65 3.5 6.1 6.05 3.6 8.6 0.05 8.6 -3.5 8.6 -6.05 6.05 L-7.05 4.85 M-4.95 -7.05 L-4.65 -6.75 -5.0 -6.35 -5.55 -5.7 -6.7 -3.95 -7.3 -3.0 -7.45 -2.4 -7.6 -0.9 -7.55 2.2 -7.5 2.4 -7.85 2.6 -8.05 2.95 Q-8.6 1.55 -8.6 -0.05 -8.6 -3.6 -6.05 -6.15 L-4.95 -7.05" fill="#ff0000" fill-rule="evenodd" stroke="none"/>
    <path d="M-1.6 -8.5 L-1.4 -8.3 0.2 -8.25 0.5 -8.15 0.5 -8.2 0.65 -8.15 1.45 -7.7 3.1 -6.05 3.45 -5.45 Q4.1 -4.45 4.15 -3.25 4.3 -1.0 3.45 1.0 L3.25 1.45 Q1.9 3.25 -0.1 4.35 L-0.7 4.7 -1.4 5.1 -2.5 5.3 -2.9 5.35 -3.3 5.55 Q-4.5 5.8 -5.65 5.55 L-6.3 5.35 -6.65 5.15 -6.95 4.95 -7.05 4.85 -7.1 4.8 -7.7 3.85 -8.05 2.95 -7.85 2.6 -7.5 2.4 -7.45 2.4 Q-7.0 2.45 -6.7 2.85 L-6.55 2.8 -4.85 3.55 -3.75 3.75 -2.5 3.7 Q-0.65 3.1 0.9 1.75 L1.45 1.2 2.4 -0.35 Q2.7 -1.6 2.6 -2.85 L2.45 -4.1 0.45 -6.55 -0.25 -6.7 -2.0 -6.8 Q-2.35 -6.75 -2.5 -6.95 L-3.9 -6.65 -4.65 -6.75 -4.95 -7.05 Q-3.4 -8.15 -1.6 -8.5" fill="#ff3300" fill-rule="evenodd" stroke="none"/>
    <path d="M-4.65 -6.75 L-3.9 -6.65 -2.5 -6.95 Q-2.35 -6.75 -2.0 -6.8 L-0.25 -6.7 0.45 -6.55 2.45 -4.1 2.6 -2.85 Q2.7 -1.6 2.4 -0.35 L1.45 1.2 0.9 1.75 Q-0.65 3.1 -2.5 3.7 L-3.75 3.75 -4.85 3.55 -6.55 2.8 -6.7 2.85 Q-7.0 2.45 -7.45 2.4 L-7.5 2.4 -7.55 2.2 -7.6 -0.9 -7.45 -2.4 -7.3 -3.0 -6.7 -3.95 -5.55 -5.7 -5.0 -6.35 -4.65 -6.75" fill="#ff6600" fill-rule="evenodd" stroke="none"/>
    <path d="M-7.05 4.85 L-6.05 6.05 Q-3.5 8.6 0.05 8.6 3.6 8.6 6.1 6.05 8.65 3.5 8.65 -0.05 8.65 -3.6 6.1 -6.15 3.6 -8.65 0.05 -8.65 L-1.6 -8.5 Q-3.4 -8.15 -4.95 -7.05 L-6.05 -6.15 Q-8.6 -3.6 -8.6 -0.05 -8.6 1.55 -8.05 2.95 L-7.7 3.85 -7.1 4.8 -7.05 4.85 Z" fill="none" stroke="#990000" stroke-linecap="round" stroke-linejoin="round" stroke-width="1.75"/>
  </g>
</svg>
