<?xml version="1.0" encoding="UTF-8" standalone="no"?>
<svg xmlns:ffdec="https://www.free-decompiler.com/flash" xmlns:xlink="http://www.w3.org/1999/xlink" ffdec:objectType="shape" height="8.95px" width="17.65px" xmlns="http://www.w3.org/2000/svg">
  <g transform="matrix(1.0, 0.0, 0.0, 1.0, 5.3, 2.45)">
    <path d="M9.95 -2.45 Q10.65 -2.3 10.8 -1.55 L10.9 -1.2 12.0 -1.15 12.2 -1.05 Q12.55 -0.55 12.2 0.0 L10.2 2.15 9.55 2.7 9.45 2.75 Q9.9 3.55 9.3 4.1 L9.0 4.3 6.05 4.75 Q6.2 5.55 5.5 5.8 L4.9 5.85 0.5 5.15 0.3 5.25 Q-0.25 6.05 -1.05 6.5 L-1.25 6.5 -1.4 6.4 -1.75 6.3 -2.05 6.05 -3.55 4.3 -3.7 4.1 Q-4.15 3.45 -4.75 2.9 L-5.25 2.1 -5.25 1.85 -5.3 1.7 -5.05 0.95 -4.65 0.7 -4.3 0.7 -1.2 0.7 Q-0.75 0.7 -0.55 1.1 L2.75 0.25 3.95 0.2 4.4 0.55 6.3 0.25 6.65 0.15 8.3 -0.25 9.3 -2.0 9.95 -2.45 M10.5 0.1 Q9.9 0.05 9.85 -0.55 L8.95 0.75 8.55 0.95 6.4 1.45 3.7 1.75 3.45 1.65 3.35 1.4 Q2.25 1.4 1.2 1.85 L-0.15 2.3 -1.4 2.15 -1.55 1.85 -3.95 1.85 -3.35 2.65 -2.25 4.05 -1.95 4.4 -1.2 5.2 -0.1 4.0 0.05 3.95 2.2 4.15 3.45 4.4 4.8 4.55 Q4.7 3.6 5.7 3.55 L6.4 3.5 8.3 3.25 Q7.85 2.5 8.45 1.95 L9.05 1.55 9.6 1.2 10.5 0.15 10.5 0.1" fill="#ffcc00" fill-rule="evenodd" stroke="none"/>
    <path d="M10.5 0.1 L10.5 0.15 9.6 1.2 9.05 1.55 8.45 1.95 Q7.85 2.5 8.3 3.25 L6.4 3.5 5.7 3.55 Q4.7 3.6 4.8 4.55 L3.45 4.4 2.2 4.15 0.05 3.95 -0.1 4.0 -1.2 5.2 -1.95 4.4 -2.25 4.05 -3.35 2.65 -3.95 1.85 -1.55 1.85 -1.4 2.15 -0.15 2.3 1.2 1.85 Q2.25 1.4 3.35 1.4 L3.45 1.65 3.7 1.75 6.4 1.45 8.55 0.95 8.95 0.75 9.85 -0.55 Q9.9 0.05 10.5 0.1" fill="#ffff00" fill-rule="evenodd" stroke="none"/>
  </g>
</svg>
