<?xml version="1.0" encoding="UTF-8" standalone="no"?>
<svg xmlns:ffdec="https://www.free-decompiler.com/flash" xmlns:xlink="http://www.w3.org/1999/xlink" ffdec:objectType="shape" height="16.7px" width="15.75px" xmlns="http://www.w3.org/2000/svg">
  <g transform="matrix(1.0, 0.0, 0.0, 1.0, 3.45, 6.1)">
    <path d="M9.6 -3.25 L9.8 -2.95 9.85 -2.7 9.85 -2.55 Q10.35 -2.7 10.3 -3.3 L10.3 -3.6 9.55 -3.75 9.6 -3.25 M7.65 -4.3 L7.35 -4.7 Q7.1 -5.05 7.3 -5.45 7.55 -5.9 8.0 -5.7 L9.05 -5.4 9.5 -5.3 Q9.95 -5.15 10.4 -5.3 10.6 -5.9 11.2 -6.1 11.85 -5.9 12.0 -5.2 L12.1 -4.5 11.9 -3.85 11.65 -3.45 11.85 -2.45 Q12.6 -1.8 12.15 -0.9 L11.7 -0.05 10.65 1.2 Q10.95 2.15 10.2 2.8 L9.65 3.3 9.35 3.5 Q8.55 3.8 8.0 4.45 L7.95 4.6 Q7.8 5.4 7.05 5.4 L6.65 5.3 6.3 5.1 2.65 3.6 1.7 3.1 0.9 2.7 0.85 2.7 0.75 2.65 0.45 2.4 Q0.2 1.75 0.9 1.55 L2.55 0.9 3.1 0.6 4.0 0.1 Q4.55 -0.15 4.85 0.35 L5.8 -0.1 6.5 -0.4 7.75 -0.5 Q8.05 -0.5 8.15 -0.8 L8.8 -1.7 Q8.4 -1.95 8.45 -2.4 L8.5 -2.6 8.35 -3.0 7.9 -3.8 7.65 -4.3 M9.65 -0.75 Q9.55 -0.65 9.45 -0.65 L9.4 -0.5 9.3 -0.4 Q8.95 0.55 7.9 0.7 L6.8 0.8 6.4 0.9 4.8 1.65 4.4 1.7 Q4.15 1.7 4.0 1.5 L2.55 2.2 5.25 3.45 6.8 4.05 Q7.2 3.1 8.15 2.75 L8.5 2.6 9.5 1.8 Q9.2 0.85 9.9 0.15 10.4 -0.25 10.7 -0.8 L11.1 -1.4 10.9 -1.65 10.75 -1.55 Q10.4 -1.3 10.0 -1.35 L9.65 -0.75 M0.4 8.5 Q-0.75 7.8 -1.35 6.6 L-2.2 5.75 Q-2.5 7.25 -1.8 8.6 L-1.75 8.85 -1.7 8.95 -1.6 8.95 Q-0.85 8.3 -0.05 8.8 L0.3 9.1 1.15 9.4 1.4 9.15 0.4 8.5 M2.9 8.8 Q2.95 9.75 2.05 10.25 L1.95 10.3 Q1.0 10.9 0.05 10.3 L-0.2 10.15 -0.65 9.8 -1.4 10.15 -1.85 10.2 Q-2.8 9.9 -3.0 8.95 L-3.05 8.75 Q-3.55 7.75 -3.45 6.6 L-3.4 5.6 -3.3 4.6 -3.15 3.7 -2.85 3.45 -2.7 3.4 Q-1.95 3.7 -1.55 4.45 L-0.9 5.3 Q-0.5 5.65 -0.25 6.15 0.5 7.45 1.9 8.05 2.35 8.25 2.75 8.55 L2.9 8.8" fill="#ffcc00" fill-rule="evenodd" stroke="none"/>
    <path d="M9.6 -3.25 L9.55 -3.75 10.3 -3.6 10.3 -3.3 Q10.35 -2.7 9.85 -2.55 L9.85 -2.7 9.8 -2.95 9.6 -3.25 M0.4 8.5 L1.4 9.15 1.15 9.4 0.3 9.1 -0.05 8.8 Q-0.85 8.3 -1.6 8.95 L-1.7 8.95 -1.75 8.85 -1.8 8.6 Q-2.5 7.25 -2.2 5.75 L-1.35 6.6 Q-0.75 7.8 0.4 8.5 M9.65 -0.75 L10.0 -1.35 Q10.4 -1.3 10.75 -1.55 L10.9 -1.65 11.1 -1.4 10.7 -0.8 Q10.4 -0.25 9.9 0.15 9.2 0.85 9.5 1.8 L8.5 2.6 8.15 2.75 Q7.2 3.1 6.8 4.05 L5.25 3.45 2.55 2.2 4.0 1.5 Q4.15 1.7 4.4 1.7 L4.8 1.65 6.4 0.9 6.8 0.8 7.9 0.7 Q8.95 0.55 9.3 -0.4 L9.4 -0.5 9.45 -0.65 Q9.55 -0.65 9.65 -0.75" fill="#ffff00" fill-rule="evenodd" stroke="none"/>
  </g>
</svg>
