<?xml version="1.0" encoding="UTF-8" standalone="no"?>
<svg xmlns:ffdec="https://www.free-decompiler.com/flash" xmlns:xlink="http://www.w3.org/1999/xlink" ffdec:objectType="shape" height="18.25px" width="21.65px" xmlns="http://www.w3.org/2000/svg">
  <g transform="matrix(1.0, 0.0, 0.0, 1.0, 9.35, 12.45)">
    <path d="M9.1 -10.9 L9.85 -10.0 9.9 -9.9 9.9 -9.85 10.35 -10.6 10.55 -10.85 9.1 -11.2 9.1 -10.9 M8.5 -9.35 L8.25 -8.9 8.05 -8.65 Q8.7 -8.1 8.0 -7.6 L7.5 -7.45 5.4 -7.3 5.35 -7.25 Q4.75 -6.6 3.8 -6.8 3.1 -6.9 2.4 -7.3 L1.65 -7.75 1.6 -7.8 -0.2 -8.35 -1.5 -8.9 -1.7 -9.2 Q-1.9 -9.85 -1.25 -10.15 L0.95 -10.65 4.6 -10.45 5.0 -10.4 6.25 -10.5 6.55 -10.7 6.7 -10.85 6.2 -11.3 Q6.05 -11.55 6.25 -11.8 6.5 -12.1 6.9 -12.2 L7.7 -12.35 8.6 -12.4 Q10.1 -12.55 11.4 -11.85 L11.7 -11.75 Q12.5 -11.45 12.2 -10.65 L11.8 -10.25 Q11.0 -9.85 11.1 -8.95 L10.95 -7.8 Q10.85 -7.55 10.55 -7.55 9.95 -7.55 9.7 -8.1 L9.2 -8.8 Q8.7 -9.0 8.65 -9.55 L8.65 -9.6 8.5 -9.35 M7.2 -9.7 Q6.8 -9.35 6.25 -9.25 L4.8 -9.2 3.35 -9.45 0.4 -9.4 1.95 -8.95 2.8 -8.45 Q3.15 -8.1 3.7 -8.05 L3.95 -8.05 4.35 -8.0 5.1 -8.55 6.45 -8.6 Q6.5 -9.0 6.9 -9.2 L7.2 -9.55 7.25 -9.65 7.25 -9.7 7.2 -9.7 M-5.75 -8.3 Q-4.95 -8.2 -5.2 -7.45 L-5.5 -7.0 -5.6 -6.75 Q-5.7 -5.25 -5.15 -3.85 -4.8 -2.95 -5.25 -2.15 L-3.65 -0.3 -2.8 0.75 -2.75 1.35 -1.5 3.2 -1.35 3.4 -0.9 4.15 Q-0.45 4.65 -0.3 5.25 L-0.35 5.45 Q-0.75 6.05 -1.35 5.55 L-1.5 5.4 -3.0 5.55 -3.45 5.45 -4.1 5.15 Q-5.45 4.15 -6.5 2.8 L-7.5 2.9 -7.75 2.7 -8.25 1.3 -8.6 -1.55 -8.65 -2.4 Q-9.5 -2.5 -9.35 -3.4 L-9.3 -3.9 -8.95 -5.35 -8.5 -6.1 -8.4 -6.25 -7.85 -6.85 -7.5 -7.15 -6.65 -7.8 -6.35 -8.0 -5.75 -8.3 M-6.8 -6.15 L-7.7 -5.2 -8.0 -4.2 -8.1 -3.8 -8.15 -3.6 Q-7.5 -3.2 -7.45 -2.4 L-7.3 0.3 -7.0 1.3 -6.95 1.6 Q-6.05 1.2 -5.55 2.0 L-4.8 2.95 -3.15 4.3 -2.5 4.4 -2.3 4.2 -4.0 1.7 -4.05 1.05 -5.5 -0.55 -6.4 -1.8 Q-6.7 -2.25 -6.5 -2.75 L-6.2 -3.1 -6.45 -4.05 -6.65 -4.6 -6.8 -6.15" fill="#ffcc00" fill-rule="evenodd" stroke="none"/>
    <path d="M9.1 -10.9 L9.1 -11.2 10.55 -10.85 10.35 -10.6 9.9 -9.85 9.9 -9.9 9.85 -10.0 9.1 -10.9 M7.2 -9.7 L7.25 -9.7 7.25 -9.65 7.2 -9.55 6.9 -9.2 Q6.5 -9.0 6.45 -8.6 L5.1 -8.55 4.35 -8.0 3.95 -8.05 3.7 -8.05 Q3.15 -8.1 2.8 -8.45 L1.95 -8.95 0.4 -9.4 3.35 -9.45 4.8 -9.2 6.25 -9.25 Q6.8 -9.35 7.2 -9.7 M-6.8 -6.15 L-6.65 -4.6 -6.45 -4.05 -6.2 -3.1 -6.5 -2.75 Q-6.7 -2.25 -6.4 -1.8 L-5.5 -0.55 -4.05 1.05 -4.0 1.7 -2.3 4.2 -2.5 4.4 -3.15 4.3 -4.8 2.95 -5.55 2.0 Q-6.05 1.2 -6.95 1.6 L-7.0 1.3 -7.3 0.3 -7.45 -2.4 Q-7.5 -3.2 -8.15 -3.6 L-8.1 -3.8 -8.0 -4.2 -7.7 -5.2 -6.8 -6.15" fill="#ffff00" fill-rule="evenodd" stroke="none"/>
  </g>
</svg>
