<?xml version="1.0" encoding="UTF-8" standalone="no"?>
<svg xmlns:ffdec="https://www.free-decompiler.com/flash" xmlns:xlink="http://www.w3.org/1999/xlink" ffdec:objectType="shape" height="20.5px" width="23.7px" xmlns="http://www.w3.org/2000/svg">
  <g transform="matrix(1.0, 0.0, 0.0, 1.0, 9.35, 12.15)">
    <path d="M9.2 -7.55 Q8.9 -8.3 9.55 -8.7 L9.75 -8.8 10.05 -9.05 Q10.3 -9.5 10.2 -10.0 L10.15 -10.2 8.9 -11.05 Q8.75 -11.15 8.75 -11.4 8.75 -12.1 9.4 -12.15 11.65 -12.25 13.6 -11.2 14.1 -10.95 14.2 -10.4 L14.25 -10.05 Q14.5 -9.1 14.05 -8.35 13.4 -7.3 12.15 -7.05 10.7 -6.8 9.4 -7.35 L9.2 -7.55 M11.35 -8.35 L12.55 -8.75 Q13.3 -9.25 12.75 -10.05 L12.1 -10.45 11.6 -10.5 Q11.75 -9.4 11.3 -8.45 L11.25 -8.35 11.35 -8.35 M-6.45 -6.4 L-4.85 -8.25 -4.85 -8.9 -4.85 -8.95 Q-5.75 -8.65 -6.6 -9.2 L-6.7 -9.2 Q-6.85 -7.8 -6.5 -6.45 L-6.5 -6.4 -6.45 -6.4 M-3.05 -10.0 Q-2.85 -9.3 -3.35 -8.75 -3.25 -8.2 -3.5 -7.75 L-3.85 -7.45 -5.0 -6.0 -5.3 -5.5 -5.65 -5.0 Q-5.5 -3.95 -6.5 -3.9 L-6.9 -4.1 Q-7.6 -5.05 -7.8 -6.15 -8.15 -7.25 -8.1 -8.45 L-7.85 -10.05 -7.75 -10.65 Q-7.6 -11.4 -6.8 -11.5 -5.85 -11.3 -5.65 -10.3 L-5.65 -10.25 -3.25 -10.2 -3.05 -10.0 M-4.6 5.1 Q-5.7 4.7 -6.95 4.65 L-7.35 4.6 -7.7 4.6 -7.9 4.85 -7.95 4.9 Q-7.3 5.25 -7.1 5.9 L-7.1 5.95 -7.0 6.1 -3.65 6.8 -3.35 6.85 Q-2.95 6.05 -2.0 5.85 L-1.7 5.7 -1.6 5.55 Q-3.25 5.75 -4.6 5.1 M-4.6 3.65 Q-2.85 4.5 -0.95 4.1 0.1 3.9 0.05 4.8 -0.05 5.85 -0.65 6.6 L-1.35 7.15 Q-0.9 8.05 -1.85 8.25 L-2.85 8.3 -4.2 8.05 -5.2 7.85 -7.7 7.25 -7.85 7.15 -8.4 6.9 -8.55 6.7 -8.6 6.5 -8.6 6.2 -9.3 5.3 Q-9.45 4.85 -9.2 4.45 L-8.8 3.7 Q-8.65 3.25 -8.2 3.25 L-5.0 3.55 -4.6 3.65" fill="#ffcc00" fill-rule="evenodd" stroke="none"/>
    <path d="M11.3 -8.45 Q11.75 -9.4 11.6 -10.5 L12.1 -10.45 12.75 -10.05 Q13.3 -9.25 12.55 -8.75 L11.35 -8.35 11.3 -8.45 M-6.5 -6.45 Q-6.85 -7.8 -6.7 -9.2 L-6.6 -9.2 Q-5.75 -8.65 -4.85 -8.95 L-4.85 -8.9 -4.85 -8.25 -6.45 -6.4 -6.5 -6.45 M-4.6 5.1 Q-3.25 5.75 -1.6 5.55 L-1.7 5.7 -2.0 5.85 Q-2.95 6.05 -3.35 6.85 L-3.65 6.8 -7.0 6.1 -7.1 5.95 -7.1 5.9 Q-7.3 5.25 -7.95 4.9 L-7.9 4.85 -7.7 4.6 -7.35 4.6 -6.95 4.65 Q-5.7 4.7 -4.6 5.1" fill="#ffff00" fill-rule="evenodd" stroke="none"/>
  </g>
</svg>
