<?xml version="1.0" encoding="UTF-8" standalone="no"?>
<svg xmlns:ffdec="https://www.free-decompiler.com/flash" xmlns:xlink="http://www.w3.org/1999/xlink" ffdec:objectType="shape" height="20.95px" width="13.65px" xmlns="http://www.w3.org/2000/svg">
  <g transform="matrix(1.0, 0.0, 0.0, 1.0, 9.35, 11.8)">
    <path d="M3.55 -10.65 Q3.45 -10.05 2.85 -9.8 2.2 -9.55 1.7 -9.15 1.5 -8.4 0.75 -8.3 L-1.0 -8.25 -1.15 -8.2 -4.45 -7.1 -5.35 -7.0 Q-5.8 -7.05 -5.85 -7.35 L-5.95 -7.5 -5.95 -8.0 Q-5.45 -9.0 -4.45 -9.65 L-3.4 -10.5 -2.6 -11.15 -1.35 -11.75 -1.25 -11.8 Q-0.75 -11.75 -0.55 -11.3 L-0.5 -11.2 1.55 -11.3 3.2 -11.2 3.55 -10.65 M0.5 -9.7 L0.55 -9.8 0.5 -9.8 -1.15 -9.75 Q-1.5 -9.7 -1.7 -10.0 L-1.75 -10.0 -1.95 -9.95 -2.9 -9.1 -2.1 -9.4 -1.65 -9.5 -1.25 -9.5 0.45 -9.65 0.5 -9.7 M2.4 4.9 L2.4 4.85 Q0.25 5.3 -1.65 6.2 L-3.65 6.15 -6.75 6.05 -7.35 5.9 -7.5 5.85 -7.45 5.95 -7.0 6.4 -4.5 7.65 -4.25 7.65 Q-3.8 6.65 -2.8 6.8 L0.4 7.05 Q-0.15 6.05 0.9 5.65 L1.55 5.4 2.4 4.9 M4.05 4.85 Q3.45 6.25 1.95 6.7 L1.9 6.75 Q2.4 7.8 1.35 8.2 L0.75 8.35 0.5 8.35 -2.95 8.35 Q-3.3 9.4 -4.5 9.1 -6.05 8.65 -7.45 7.75 L-7.95 7.4 Q-8.95 6.7 -9.2 5.5 -9.7 4.5 -8.7 4.2 L-8.4 4.2 -6.3 4.65 -4.95 4.7 -3.5 4.8 -2.9 4.95 -2.25 5.05 Q-0.2 3.9 2.15 3.5 L2.8 3.25 3.3 3.1 Q4.45 3.05 4.25 4.2 L4.05 4.85" fill="#ffcc00" fill-rule="evenodd" stroke="none"/>
    <path d="M0.5 -9.8 L0.5 -9.7 0.45 -9.65 -1.25 -9.5 -1.65 -9.5 -2.1 -9.4 -2.9 -9.1 -1.95 -9.95 -1.75 -10.0 -1.7 -10.0 Q-1.5 -9.7 -1.15 -9.75 L0.5 -9.8 M2.4 4.9 L1.55 5.4 0.9 5.65 Q-0.15 6.05 0.4 7.05 L-2.8 6.8 Q-3.8 6.65 -4.25 7.65 L-4.5 7.65 -7.0 6.4 -7.45 5.95 -7.35 5.9 -6.75 6.05 -3.65 6.15 -1.65 6.2 Q0.25 5.3 2.4 4.85 L2.4 4.9" fill="#ffff00" fill-rule="evenodd" stroke="none"/>
  </g>
</svg>
