<?xml version="1.0" encoding="UTF-8" standalone="no"?>
<svg xmlns:ffdec="https://www.free-decompiler.com/flash" xmlns:xlink="http://www.w3.org/1999/xlink" ffdec:objectType="shape" height="16.25px" width="17.3px" xmlns="http://www.w3.org/2000/svg">
  <g transform="matrix(1.0, 0.0, 0.0, 1.0, 3.35, 9.6)">
    <path d="M8.15 -6.3 L8.6 -6.2 11.4 -6.2 11.75 -6.5 11.55 -6.6 Q9.9 -6.4 8.45 -7.2 7.9 -7.5 7.4 -7.75 L6.2 -8.15 Q6.65 -6.65 8.15 -6.3 M3.8 -8.75 Q3.85 -9.15 4.2 -9.35 L4.95 -9.6 Q7.2 -9.5 9.15 -8.4 10.2 -7.85 11.35 -7.95 L13.0 -8.1 Q13.9 -8.15 13.95 -7.3 14.05 -6.25 13.1 -5.7 12.35 -5.2 11.5 -5.1 L8.5 -4.9 7.55 -5.15 7.1 -5.3 Q5.5 -5.8 4.95 -7.4 L4.65 -7.65 Q3.65 -7.85 3.8 -8.75 M8.7 -4.5 Q9.85 -4.2 10.9 -3.55 L11.15 -3.4 Q11.85 -3.1 11.75 -2.3 L11.55 -0.7 Q12.5 0.0 11.65 0.8 L10.45 2.05 9.55 2.8 9.5 2.85 9.4 2.9 9.4 3.0 Q10.15 3.85 9.1 4.45 L8.35 4.85 Q6.6 5.75 4.7 6.25 L4.25 6.4 3.55 6.6 0.7 6.6 -2.6 6.4 Q-2.95 6.4 -3.15 6.1 -3.5 5.65 -3.15 5.25 L-2.8 4.9 Q-2.95 4.25 -2.3 4.15 L-0.85 4.0 -0.55 3.95 -0.1 3.9 -0.05 3.85 Q0.35 3.5 0.9 3.5 2.4 3.6 3.6 2.8 L4.15 2.35 6.1 0.95 6.55 0.5 8.1 -1.4 8.25 -1.75 8.25 -2.4 8.1 -3.3 8.1 -3.65 8.05 -3.85 Q8.15 -4.45 8.7 -4.5 M8.9 -0.1 L8.15 0.75 Q6.65 2.4 4.8 3.55 L3.5 4.35 Q2.55 4.9 1.45 4.85 L1.2 4.9 0.9 5.2 3.9 5.05 Q5.95 4.5 7.8 3.55 7.6 2.5 8.5 1.9 9.6 1.15 10.35 0.1 9.95 -0.5 10.15 -1.15 L10.4 -2.2 9.65 -2.6 Q9.75 -1.15 8.9 -0.1" fill="#ffcc00" fill-rule="evenodd" stroke="none"/>
    <path d="M8.15 -6.3 Q6.65 -6.65 6.2 -8.15 L7.4 -7.75 Q7.9 -7.5 8.45 -7.2 9.9 -6.4 11.55 -6.6 L11.75 -6.5 11.4 -6.2 8.6 -6.2 8.15 -6.3 M8.9 -0.1 Q9.75 -1.15 9.65 -2.6 L10.4 -2.2 10.15 -1.15 Q9.95 -0.5 10.35 0.1 9.6 1.15 8.5 1.9 7.6 2.5 7.8 3.55 5.95 4.5 3.9 5.05 L0.9 5.2 1.2 4.9 1.45 4.85 Q2.55 4.9 3.5 4.35 L4.8 3.55 Q6.65 2.4 8.15 0.75 L8.9 -0.1" fill="#ffff00" fill-rule="evenodd" stroke="none"/>
  </g>
</svg>
