<?xml version="1.0" encoding="UTF-8" standalone="no"?>
<svg xmlns:ffdec="https://www.free-decompiler.com/flash" xmlns:xlink="http://www.w3.org/1999/xlink" ffdec:objectType="shape" height="12.3px" width="11.85px" xmlns="http://www.w3.org/2000/svg">
  <g transform="matrix(1.0, 0.0, 0.0, 1.0, -3.4, 8.2)">
    <path d="M8.7 -5.25 L10.4 -5.2 10.35 -5.3 Q10.3 -5.9 10.65 -6.35 L10.9 -6.5 Q11.6 -6.6 12.15 -7.0 L12.4 -7.15 14.6 -8.2 Q15.5 -7.85 15.2 -6.85 L14.95 -5.9 14.9 -5.4 Q14.65 -3.85 13.05 -3.9 L12.75 -3.95 12.5 -3.3 12.2 -2.8 12.2 -2.75 12.2 -2.65 12.2 -2.6 12.25 -2.55 12.45 -1.25 12.2 -0.9 Q12.05 -0.75 11.8 -0.75 L11.8 -0.65 11.75 -0.55 11.7 -0.4 11.6 -0.3 11.55 0.8 Q11.5 1.45 10.85 1.65 L9.7 2.0 9.25 2.3 Q8.75 2.85 7.95 2.9 L6.15 3.25 5.55 3.5 5.1 3.6 4.15 4.1 3.8 4.05 Q3.1 3.65 3.65 3.1 L5.25 1.45 6.6 0.25 7.0 -0.2 8.1 -2.05 8.2 -2.6 8.1 -3.7 Q7.95 -3.85 7.9 -4.15 7.8 -4.7 8.3 -5.1 L8.7 -5.25 M9.5 -3.65 L9.4 -1.6 Q9.35 -1.05 8.95 -0.65 8.25 0.1 7.8 1.05 L7.65 1.25 7.1 1.7 8.2 1.5 8.2 1.4 Q8.4 0.85 9.05 0.7 L9.3 0.65 10.3 0.4 10.3 0.35 Q10.25 -0.6 10.55 -1.45 L11.0 -1.95 11.0 -2.0 Q10.8 -2.6 10.95 -3.2 L11.2 -3.85 11.2 -3.9 9.45 -3.9 9.5 -3.65 M12.45 -5.55 L13.15 -5.25 13.25 -5.2 13.3 -5.25 13.4 -5.25 13.6 -5.85 13.55 -6.2 12.45 -5.6 12.4 -5.55 12.45 -5.55" fill="#ffcc00" fill-rule="evenodd" stroke="none"/>
    <path d="M12.45 -5.6 L13.55 -6.2 13.6 -5.85 13.4 -5.25 13.3 -5.25 13.25 -5.2 13.15 -5.25 12.45 -5.55 12.45 -5.6 M9.5 -3.65 L9.45 -3.9 11.2 -3.9 11.2 -3.85 10.95 -3.2 Q10.8 -2.6 11.0 -2.0 L11.0 -1.95 10.55 -1.45 Q10.25 -0.6 10.3 0.35 L10.3 0.4 9.3 0.65 9.05 0.7 Q8.4 0.85 8.2 1.4 L8.2 1.5 7.1 1.7 7.65 1.25 7.8 1.05 Q8.25 0.1 8.95 -0.65 9.35 -1.05 9.4 -1.6 L9.5 -3.65" fill="#ffff00" fill-rule="evenodd" stroke="none"/>
  </g>
</svg>
