<?xml version="1.0" encoding="UTF-8" standalone="no"?>
<svg xmlns:ffdec="https://www.free-decompiler.com/flash" xmlns:xlink="http://www.w3.org/1999/xlink" ffdec:objectType="shape" height="20.75px" width="17.95px" xmlns="http://www.w3.org/2000/svg">
  <g transform="matrix(1.0, 0.0, 0.0, 1.0, 6.9, 11.0)">
    <path d="M5.9 -11.0 L7.8 -9.45 8.55 -8.7 10.0 -6.95 10.9 -5.8 11.05 -5.35 10.85 -4.15 10.85 -3.7 Q11.0 -2.55 10.1 -2.0 L9.45 -1.85 Q8.65 -1.95 8.45 -2.75 8.15 -3.85 7.35 -4.65 6.9 -5.15 6.9 -5.9 L6.85 -6.15 Q6.05 -7.4 5.55 -8.75 5.35 -9.2 5.4 -9.7 5.1 -10.2 5.4 -10.7 L5.9 -11.0 M8.1 -6.55 Q8.4 -6.25 8.3 -5.8 L8.3 -5.65 9.5 -3.95 9.55 -4.95 9.7 -5.15 8.1 -7.2 7.5 -7.75 8.1 -6.65 8.1 -6.55 M1.35 4.45 L1.85 5.65 2.15 6.2 Q2.15 6.9 1.55 7.25 L1.25 7.5 1.65 8.55 Q1.75 9.35 0.95 9.45 L-0.85 9.65 -1.0 9.65 -2.6 9.55 Q-3.05 9.4 -3.0 8.9 -2.85 7.8 -2.3 6.85 L-2.25 6.65 -2.25 6.3 -2.25 5.85 -2.25 5.6 -2.3 5.5 -2.35 5.4 -2.35 5.35 -2.4 5.15 -2.5 4.9 -2.9 4.55 -3.35 4.15 Q-4.0 4.05 -4.35 3.55 L-4.65 3.2 -5.7 2.5 -5.75 2.45 -6.05 2.35 -6.25 2.25 -6.3 2.2 Q-6.8 2.15 -6.9 1.65 -7.0 1.05 -6.45 0.85 L-6.0 0.75 Q-3.75 0.65 -1.85 1.8 L-1.8 1.8 Q-0.45 2.35 0.8 3.15 L1.05 3.55 1.35 4.45 M-1.3 8.35 L0.05 8.25 Q-0.2 7.55 0.15 6.85 L0.4 6.5 0.65 6.25 Q0.3 5.0 -0.5 4.0 L-0.7 3.85 -1.25 3.5 -3.2 2.65 -1.55 4.05 Q-1.1 4.5 -0.95 5.15 -0.8 5.95 -0.9 6.8 L-1.05 7.35 -1.3 7.95 -1.4 8.35 -1.3 8.35" fill="#ffcc00" fill-rule="evenodd" stroke="none"/>
    <path d="M8.1 -6.55 L8.1 -6.65 7.5 -7.75 8.1 -7.2 9.7 -5.15 9.55 -4.95 9.5 -3.95 8.3 -5.65 8.3 -5.8 Q8.4 -6.25 8.1 -6.55 M-1.4 8.35 L-1.3 7.95 -1.05 7.35 -0.9 6.8 Q-0.8 5.95 -0.95 5.15 -1.1 4.5 -1.55 4.05 L-3.2 2.65 -1.25 3.5 -0.7 3.85 -0.5 4.0 Q0.3 5.0 0.65 6.25 L0.4 6.5 0.15 6.85 Q-0.2 7.55 0.05 8.25 L-1.3 8.35 -1.4 8.35" fill="#ffff00" fill-rule="evenodd" stroke="none"/>
  </g>
</svg>
