<?xml version="1.0" encoding="UTF-8" standalone="no"?>
<svg xmlns:ffdec="https://www.free-decompiler.com/flash" xmlns:xlink="http://www.w3.org/1999/xlink" ffdec:objectType="shape" height="18.15px" width="20.2px" xmlns="http://www.w3.org/2000/svg">
  <g transform="matrix(1.0, 0.0, 0.0, 1.0, 10.2, 12.1)">
    <path d="M7.9 -10.7 L7.05 -9.65 7.0 -9.6 Q6.7 -8.65 6.8 -7.7 L6.8 -7.35 7.25 -6.5 7.4 -6.35 7.45 -6.65 7.5 -6.85 7.7 -9.5 Q7.75 -10.15 8.2 -10.7 L7.9 -10.7 M10.0 -11.15 L9.45 -10.05 Q8.75 -9.15 8.85 -7.9 L8.85 -6.8 8.95 -5.2 8.9 -4.15 8.6 -3.8 Q7.8 -3.6 7.35 -4.3 L6.6 -5.15 Q5.95 -5.8 5.7 -6.65 5.15 -7.95 5.5 -9.35 L5.9 -10.3 Q6.45 -11.3 7.35 -11.9 L7.7 -12.0 7.8 -12.05 Q9.1 -12.3 9.9 -11.45 L10.0 -11.15 M1.65 3.1 Q2.0 3.65 1.4 4.0 L1.15 4.05 0.2 4.1 0.15 4.2 -0.8 4.9 Q-0.6 5.95 -1.65 6.05 L-2.25 5.8 -2.65 5.2 -3.0 4.95 -3.3 4.5 -3.3 4.05 Q-3.7 2.8 -4.9 2.1 L-5.95 1.55 -6.75 1.15 -8.95 1.0 Q-9.4 0.95 -9.55 0.5 L-10.15 -1.05 -10.15 -1.35 -9.35 -1.9 -5.2 -2.5 -4.6 -2.55 -3.3 -2.4 Q-2.85 -2.25 -2.95 -1.8 L-3.05 -1.05 Q-2.3 -0.35 -1.35 0.3 -0.05 1.15 1.05 2.3 L1.65 3.1 M-8.45 -0.65 L-8.45 -0.55 -8.4 -0.45 -8.35 -0.3 -6.65 -0.15 -5.55 0.25 -5.3 0.35 Q-4.0 1.0 -3.0 2.1 L-2.35 2.95 -1.9 3.8 -1.4 3.65 -1.2 3.55 -1.0 3.45 -0.85 3.35 -0.7 3.05 -0.5 2.85 -0.4 2.8 -1.95 1.5 -4.35 -0.35 -4.55 -0.85 -4.55 -1.15 -4.55 -1.2 -4.65 -1.2 -8.3 -0.65 -8.45 -0.65" fill="#ffcc00" fill-rule="evenodd" stroke="none"/>
    <path d="M7.9 -10.7 L8.2 -10.7 Q7.75 -10.15 7.7 -9.5 L7.5 -6.85 7.45 -6.65 7.4 -6.35 7.25 -6.5 6.8 -7.35 6.8 -7.7 Q6.7 -8.65 7.0 -9.6 L7.05 -9.65 7.9 -10.7 M-8.45 -0.65 L-8.3 -0.65 -4.65 -1.2 -4.55 -1.2 -4.55 -1.15 -4.55 -0.85 -4.35 -0.35 -1.95 1.5 -0.4 2.8 -0.5 2.85 -0.7 3.05 -0.85 3.35 -1.0 3.45 -1.2 3.55 -1.4 3.65 -1.9 3.8 -2.35 2.95 -3.0 2.1 Q-4.0 1.0 -5.3 0.35 L-5.55 0.25 -6.65 -0.15 -8.35 -0.3 -8.4 -0.45 -8.45 -0.55 -8.45 -0.65" fill="#ffff00" fill-rule="evenodd" stroke="none"/>
  </g>
</svg>
