<?xml version="1.0" encoding="UTF-8" standalone="no"?>
<svg xmlns:ffdec="https://www.free-decompiler.com/flash" xmlns:xlink="http://www.w3.org/1999/xlink" ffdec:objectType="shape" height="15.0px" width="24.95px" xmlns="http://www.w3.org/2000/svg">
  <g transform="matrix(1.0, 0.0, 0.0, 1.0, 12.65, 11.8)">
    <path d="M8.45 -9.85 L10.25 -10.5 9.05 -10.45 8.4 -9.95 8.4 -9.85 8.45 -9.85 M7.4 -10.85 L7.5 -10.95 Q8.1 -11.6 8.85 -11.8 L10.65 -11.75 11.15 -11.6 12.0 -10.95 Q12.7 -10.1 11.65 -9.55 L9.75 -8.9 8.75 -8.15 7.95 -7.15 7.4 -7.1 Q6.85 -7.45 7.0 -8.1 L6.7 -8.95 Q6.6 -9.95 7.2 -10.7 L7.4 -10.85 M-12.65 -0.3 Q-12.55 -0.95 -11.85 -1.3 L-10.4 -1.9 -8.35 -2.55 -3.95 -2.0 Q-3.0 -1.75 -3.45 -0.85 L-3.65 -0.6 Q-3.9 -0.4 -4.2 -0.3 -3.7 0.25 -4.1 0.85 -4.3 1.15 -4.65 1.1 L-8.55 1.3 -8.7 2.5 Q-8.65 3.25 -9.45 3.2 L-9.8 3.1 Q-11.05 2.6 -11.5 1.4 L-11.55 1.1 -11.55 0.85 -12.6 -0.05 -12.65 -0.3 M-10.65 -0.4 Q-10.2 -0.1 -10.25 0.45 -10.35 1.05 -9.95 1.45 -9.9 -0.05 -8.3 -0.15 L-7.65 -0.2 -5.6 -0.35 -5.55 -0.65 -5.4 -1.0 -5.45 -1.05 -8.3 -1.2 Q-9.35 -0.75 -10.45 -0.45 L-10.65 -0.4" fill="#ffcc00" fill-rule="evenodd" stroke="none"/>
    <path d="M8.45 -9.85 L8.4 -9.95 9.05 -10.45 10.25 -10.5 8.45 -9.85 M-10.65 -0.4 L-10.45 -0.45 Q-9.35 -0.75 -8.3 -1.2 L-5.45 -1.05 -5.4 -1.0 -5.55 -0.65 -5.6 -0.35 -7.65 -0.2 -8.3 -0.15 Q-9.9 -0.05 -9.95 1.45 -10.35 1.05 -10.25 0.45 -10.2 -0.1 -10.65 -0.4" fill="#ffff00" fill-rule="evenodd" stroke="none"/>
  </g>
</svg>
