<?xml version="1.0" encoding="UTF-8" standalone="no"?>
<svg xmlns:ffdec="https://www.free-decompiler.com/flash" xmlns:xlink="http://www.w3.org/1999/xlink" ffdec:objectType="shape" height="414.5px" width="650.55px" xmlns="http://www.w3.org/2000/svg">
  <g transform="matrix(1.0, 0.0, 0.0, 1.0, 2.25, 0.2)">
    <path d="M467.55 1.8 L646.3 1.8 646.3 189.3 386.1 189.3 386.1 353.7 646.3 353.7 646.3 412.3 -0.25 412.3 -0.25 36.2 104.8 36.2 104.8 184.0 220.2 184.0 220.2 36.2 467.55 36.2 467.55 1.8" fill="#000000" fill-rule="evenodd" stroke="none"/>
    <path d="M-0.25 36.2 L-0.25 1.8 104.8 1.8 104.8 36.2 -0.25 36.2 M220.2 1.8 L467.55 1.8 467.55 36.2 220.2 36.2 220.2 1.8" fill="url(#gradient0)" fill-rule="evenodd" stroke="none"/>
    <path d="M104.8 1.8 L220.2 1.8 220.2 36.2 220.2 184.0 104.8 184.0 104.8 36.2 104.8 1.8" fill="url(#gradient1)" fill-rule="evenodd" stroke="none"/>
    <path d="M646.3 189.3 L646.3 353.7 386.1 353.7 386.1 189.3 646.3 189.3" fill="url(#gradient2)" fill-rule="evenodd" stroke="none"/>
    <path d="M467.55 1.8 L646.3 1.8 646.3 189.3 646.3 353.7 646.3 412.3 -0.25 412.3 -0.25 36.2 -0.25 1.8 104.8 1.8 220.2 1.8 467.55 1.8 Z" fill="none" stroke="#000000" stroke-linecap="round" stroke-linejoin="round" stroke-width="4.0"/>
  </g>
  <defs>
    <linearGradient gradientTransform="matrix(0.2855, 0.0, 0.0, 0.021, 233.65, 19.0)" gradientUnits="userSpaceOnUse" id="gradient0" spreadMethod="pad" x1="-819.2" x2="819.2">
      <stop offset="0.0" stop-color="#000000"/>
      <stop offset="1.0" stop-color="#003300"/>
    </linearGradient>
    <linearGradient gradientTransform="matrix(0.0534, 0.0092, -0.0206, 0.1198, 173.3, 94.7)" gradientUnits="userSpaceOnUse" id="gradient1" spreadMethod="pad" x1="-819.2" x2="819.2">
      <stop offset="0.0" stop-color="#000000"/>
      <stop offset="1.0" stop-color="#003300"/>
    </linearGradient>
    <linearGradient gradientTransform="matrix(0.0373, 0.0764, -0.1678, 0.082, 506.6, 251.9)" gradientUnits="userSpaceOnUse" id="gradient2" spreadMethod="pad" x1="-819.2" x2="819.2">
      <stop offset="0.0" stop-color="#000000"/>
      <stop offset="1.0" stop-color="#003300"/>
    </linearGradient>
  </defs>
</svg>
