<?xml version="1.0" encoding="UTF-8" standalone="no"?>
<svg xmlns:ffdec="https://www.free-decompiler.com/flash" xmlns:xlink="http://www.w3.org/1999/xlink" ffdec:objectType="shape" height="5.9px" width="15.0px" xmlns="http://www.w3.org/2000/svg">
  <g transform="matrix(1.0, 0.0, 0.0, 1.0, 8.15, -0.4)">
    <path d="M6.7 1.4 L6.45 1.75 5.65 2.6 4.7 3.45 Q4.85 4.35 4.0 4.55 L0.9 5.1 Q0.85 5.75 0.25 5.75 L-2.65 5.5 -2.7 5.5 -2.8 5.5 Q-3.1 6.7 -4.2 6.15 L-6.6 4.8 -7.95 3.55 Q-8.35 2.95 -7.9 2.35 L-7.35 2.0 -6.05 1.85 -1.4 1.95 -0.35 1.9 2.45 1.55 3.9 1.15 4.5 1.0 6.05 0.4 Q7.15 0.45 6.7 1.4 M3.3 2.8 L3.3 2.75 3.25 2.75 -1.15 3.35 -1.3 3.35 -6.2 3.4 -5.3 4.0 Q-4.9 4.15 -4.6 4.4 L-4.4 4.55 -4.3 4.55 -4.0 4.7 Q-3.55 3.85 -2.6 4.15 L-1.8 4.35 -1.7 4.35 -0.6 4.45 Q-0.6 3.95 -0.05 3.9 L2.5 3.5 2.6 3.5 3.15 3.35 3.2 3.0 3.3 2.8" fill="#ffcc00" fill-rule="evenodd" stroke="none"/>
    <path d="M3.3 2.8 L3.2 3.0 3.15 3.35 2.6 3.5 2.5 3.5 -0.05 3.9 Q-0.6 3.95 -0.6 4.45 L-1.7 4.35 -1.8 4.35 -2.6 4.15 Q-3.55 3.85 -4.0 4.7 L-4.3 4.55 -4.4 4.55 -4.6 4.4 Q-4.9 4.15 -5.3 4.0 L-6.2 3.4 -1.3 3.35 -1.15 3.35 3.25 2.75 3.3 2.75 3.3 2.8" fill="#ffff00" fill-rule="evenodd" stroke="none"/>
  </g>
</svg>
