<?xml version="1.0" encoding="UTF-8" standalone="no"?>
<svg xmlns:ffdec="https://www.free-decompiler.com/flash" xmlns:xlink="http://www.w3.org/1999/xlink" ffdec:objectType="shape" height="8.1px" width="14.7px" xmlns="http://www.w3.org/2000/svg">
  <g transform="matrix(1.0, 0.0, 0.0, 1.0, 2.9, 2.85)">
    <path d="M6.8 -0.25 L7.65 -0.4 8.6 -1.1 8.85 -1.35 8.85 -1.4 8.85 -1.5 8.85 -1.6 Q8.6 -2.05 8.85 -2.55 9.0 -2.85 9.3 -2.85 10.05 -2.75 10.45 -2.1 L11.3 -0.85 11.8 0.35 11.7 0.9 11.15 1.35 Q10.45 1.65 10.35 2.35 10.25 2.95 9.6 3.05 L9.45 3.1 7.05 3.55 5.65 4.0 Q5.55 5.05 4.4 5.1 L3.8 5.1 0.2 5.25 -0.25 5.2 -0.95 4.65 -2.0 3.5 -2.85 2.25 -2.9 1.85 Q-3.0 1.25 -2.35 1.2 L0.1 1.1 0.4 1.05 3.8 0.5 4.45 0.4 Q5.3 -0.4 6.55 -0.25 L6.8 -0.25 M9.9 -0.7 L8.95 0.25 8.15 0.75 6.7 0.95 5.6 1.1 5.2 1.3 4.0 1.7 1.05 2.1 -1.4 2.35 -0.55 3.3 -0.3 3.55 0.0 3.95 3.75 3.95 3.9 3.95 4.45 3.85 Q4.6 2.9 5.55 2.7 L5.9 2.6 6.65 2.4 8.05 2.15 9.15 1.95 Q9.45 1.05 10.3 0.5 L10.5 0.3 10.05 -0.55 9.9 -0.7" fill="#ffcc00" fill-rule="evenodd" stroke="none"/>
    <path d="M9.9 -0.7 L10.05 -0.55 10.5 0.3 10.3 0.5 Q9.45 1.05 9.15 1.95 L8.05 2.15 6.65 2.4 5.9 2.6 5.55 2.7 Q4.6 2.9 4.45 3.85 L3.9 3.95 3.75 3.95 0.0 3.95 -0.3 3.55 -0.55 3.3 -1.4 2.35 1.05 2.1 4.0 1.7 5.2 1.3 5.6 1.1 6.7 0.95 8.15 0.75 8.95 0.25 9.9 -0.7" fill="#ffff00" fill-rule="evenodd" stroke="none"/>
  </g>
</svg>
