<?xml version="1.0" encoding="UTF-8" standalone="no"?>
<svg xmlns:ffdec="https://www.free-decompiler.com/flash" xmlns:xlink="http://www.w3.org/1999/xlink" ffdec:objectType="shape" height="14.45px" width="14.45px" xmlns="http://www.w3.org/2000/svg">
  <g transform="matrix(1.0, 0.0, 0.0, 1.0, 2.3, 3.95)">
    <path d="M8.85 -3.95 L9.95 -3.5 10.7 -2.9 11.9 -1.75 Q12.45 -1.15 11.9 -0.55 L11.8 -0.45 11.8 0.0 11.85 0.3 Q12.25 1.05 11.6 1.5 L11.25 1.65 Q10.7 1.7 10.45 2.2 L10.25 3.3 9.9 3.6 8.6 3.9 6.95 4.25 5.75 4.55 Q5.75 5.4 4.85 5.45 L4.65 5.45 2.35 5.35 2.1 5.2 Q0.8 4.35 -0.6 3.65 L-0.8 3.5 Q-1.65 2.75 -1.6 1.7 L-1.6 1.55 Q-1.6 1.0 -1.0 0.95 L2.25 0.85 2.35 0.8 2.8 0.75 Q3.2 0.45 3.8 0.45 L5.35 0.4 5.65 0.35 7.15 -0.2 7.3 -0.35 Q7.6 -0.85 8.2 -0.95 L8.55 -1.1 8.55 -2.5 8.4 -2.85 Q8.2 -3.15 8.3 -3.5 8.45 -3.9 8.85 -3.95 M9.75 -2.4 L9.65 -2.4 9.55 -2.3 Q9.5 -2.05 9.6 -1.85 L9.55 -1.55 9.5 -0.65 9.05 -0.25 8.9 -0.1 8.6 0.4 8.05 0.75 7.65 1.05 6.35 1.4 5.0 1.75 4.75 1.9 Q4.45 1.95 4.2 2.1 L4.15 2.1 3.7 2.2 1.8 2.3 1.65 2.35 1.5 2.4 1.35 2.35 0.15 2.15 0.15 2.2 0.05 2.2 -0.05 2.35 -0.05 2.45 -0.05 2.5 0.85 3.3 1.25 3.45 2.7 3.95 Q3.2 4.45 3.9 4.4 L4.2 4.3 Q4.85 3.75 5.75 3.6 L6.05 3.55 8.75 2.75 Q9.55 2.55 9.7 1.7 L9.8 1.45 10.2 0.85 10.6 0.35 Q11.15 0.0 11.15 -0.6 L11.15 -0.9 Q11.05 -1.6 10.6 -1.85 L10.0 -2.3 9.75 -2.45 9.75 -2.4 M2.25 9.65 Q2.4 10.25 1.8 10.35 L-0.3 10.5 Q-1.05 10.5 -1.65 10.1 -2.15 9.75 -2.15 9.15 L-2.3 7.75 -2.15 7.05 -1.95 6.85 Q-1.95 6.4 -1.6 6.25 L-1.35 6.15 Q-0.95 6.25 -0.6 6.55 L-0.5 6.65 Q-0.25 6.7 -0.1 6.9 L2.55 8.55 2.65 8.7 Q2.85 9.35 2.25 9.65 M1.15 9.45 Q1.5 8.8 0.8 8.5 0.2 8.05 -0.5 7.9 L-0.9 8.15 -1.15 8.8 Q-1.1 9.45 -0.45 9.55 L-0.2 9.6 0.8 9.75 1.15 9.45" fill="#ffcc00" fill-rule="evenodd" stroke="none"/>
    <path d="M9.75 -2.4 L9.75 -2.45 10.0 -2.3 10.6 -1.85 Q11.05 -1.6 11.15 -0.9 L11.15 -0.6 Q11.15 0.0 10.6 0.35 L10.2 0.85 9.8 1.45 9.7 1.7 Q9.55 2.55 8.75 2.75 L6.05 3.55 5.75 3.6 Q4.85 3.75 4.2 4.3 L3.9 4.4 Q3.2 4.45 2.7 3.95 L1.25 3.45 0.85 3.3 -0.05 2.5 -0.05 2.45 -0.05 2.35 0.05 2.2 0.15 2.2 0.15 2.15 1.35 2.35 1.5 2.4 1.65 2.35 1.8 2.3 3.7 2.2 4.15 2.1 4.2 2.1 Q4.45 1.95 4.75 1.9 L5.0 1.75 6.35 1.4 7.65 1.05 8.05 0.75 8.6 0.4 8.9 -0.1 9.05 -0.25 9.5 -0.65 9.55 -1.55 9.6 -1.85 Q9.5 -2.05 9.55 -2.3 L9.65 -2.4 9.75 -2.4 M1.15 9.45 L0.8 9.75 -0.2 9.6 -0.45 9.55 Q-1.1 9.45 -1.15 8.8 L-0.9 8.15 -0.5 7.9 Q0.2 8.05 0.8 8.5 1.5 8.8 1.15 9.45" fill="#ffff00" fill-rule="evenodd" stroke="none"/>
  </g>
</svg>
