<?xml version="1.0" encoding="UTF-8" standalone="no"?>
<svg xmlns:ffdec="https://www.free-decompiler.com/flash" xmlns:xlink="http://www.w3.org/1999/xlink" ffdec:objectType="shape" height="17.25px" width="16.65px" xmlns="http://www.w3.org/2000/svg">
  <g transform="matrix(1.0, 0.0, 0.0, 1.0, 4.05, 6.65)">
    <path d="M9.3 -4.8 L9.25 -4.8 9.05 -4.7 8.95 -4.7 9.3 -4.2 9.35 -4.2 9.65 -4.7 9.7 -4.75 9.3 -4.8 M9.7 -6.05 L10.45 -6.65 Q11.4 -6.6 12.0 -5.85 L12.45 -5.05 12.6 -3.95 Q12.65 -2.45 12.25 -1.05 L11.5 1.0 11.2 1.55 10.05 2.5 Q9.65 2.65 9.5 3.05 L9.45 3.15 9.35 3.35 8.85 4.15 8.35 4.6 7.2 4.65 5.0 3.25 3.95 2.65 3.65 2.4 3.55 2.3 3.0 2.25 Q2.6 2.15 2.6 1.75 2.6 1.25 3.1 1.1 L4.4 0.65 5.2 0.25 6.5 -0.4 Q7.0 -0.6 7.45 -0.95 L7.5 -0.95 7.9 -1.3 8.05 -1.4 8.15 -1.6 8.95 -2.35 Q9.0 -3.1 8.35 -3.5 L7.85 -4.0 7.6 -4.35 Q7.35 -4.65 7.5 -5.05 7.65 -5.6 8.25 -5.8 L9.15 -6.0 9.7 -6.05 M9.55 -1.15 L8.85 -0.5 7.0 0.7 6.15 1.1 5.05 1.7 4.95 1.75 5.4 2.05 5.9 2.4 6.35 2.75 7.45 3.4 7.6 3.5 8.5 2.4 8.55 2.3 Q8.95 1.5 9.8 1.2 L10.4 0.55 10.7 -0.2 Q11.3 -1.55 11.35 -3.05 L11.4 -4.35 11.35 -4.4 11.3 -4.6 11.3 -4.65 11.25 -4.75 11.2 -4.7 10.7 -3.95 10.4 -3.35 10.25 -2.9 10.15 -2.75 Q10.35 -1.95 9.75 -1.35 L9.55 -1.15 M0.25 7.4 Q1.1 8.4 2.35 9.0 L2.55 9.2 Q2.8 9.85 2.15 10.1 L1.85 10.35 1.4 10.55 -1.55 10.25 Q-2.55 9.95 -3.15 9.15 L-3.75 8.4 -3.95 7.9 -3.9 5.7 -4.0 4.9 -4.0 4.1 -3.65 3.75 -3.5 3.7 Q-2.1 4.3 -1.05 5.35 L-0.55 6.0 0.15 7.25 0.25 7.4 M-2.7 7.7 L-1.3 9.1 -1.15 9.2 0.7 9.4 -0.85 7.95 -1.5 6.8 -1.6 6.6 -2.7 5.55 -2.7 7.65 -2.7 7.7" fill="#ffcc00" fill-rule="evenodd" stroke="none"/>
    <path d="M9.3 -4.8 L9.7 -4.75 9.65 -4.7 9.35 -4.2 9.3 -4.2 8.95 -4.7 9.05 -4.7 9.25 -4.8 9.3 -4.8 M9.55 -1.15 L9.75 -1.35 Q10.35 -1.95 10.15 -2.75 L10.25 -2.9 10.4 -3.35 10.7 -3.95 11.2 -4.7 11.25 -4.75 11.3 -4.65 11.3 -4.6 11.35 -4.4 11.4 -4.35 11.35 -3.05 Q11.3 -1.55 10.7 -0.2 L10.4 0.55 9.8 1.2 Q8.95 1.5 8.55 2.3 L8.5 2.4 7.6 3.5 7.45 3.4 6.35 2.75 5.9 2.4 5.4 2.05 4.95 1.75 5.05 1.7 6.15 1.1 7.0 0.7 8.85 -0.5 9.55 -1.15 M-2.7 7.7 L-2.7 7.65 -2.7 5.55 -1.6 6.6 -1.5 6.8 -0.85 7.95 0.7 9.4 -1.15 9.2 -1.3 9.1 -2.7 7.7" fill="#ffff00" fill-rule="evenodd" stroke="none"/>
  </g>
</svg>
