<?xml version="1.0" encoding="UTF-8" standalone="no"?>
<svg xmlns:ffdec="https://www.free-decompiler.com/flash" xmlns:xlink="http://www.w3.org/1999/xlink" ffdec:objectType="shape" height="20.6px" width="18.9px" xmlns="http://www.w3.org/2000/svg">
  <g transform="matrix(1.0, 0.0, 0.0, 1.0, 5.95, 9.95)">
    <path d="M9.85 -9.95 Q11.05 -9.75 11.7 -8.75 L11.75 -8.6 12.1 -7.9 12.2 -7.45 12.65 -5.95 12.7 -5.6 12.75 -4.15 12.35 -3.6 12.55 -3.1 12.5 -2.7 12.1 -2.3 12.2 -1.6 12.1 -1.1 12.1 -0.95 12.85 -0.05 12.95 0.25 Q12.95 1.0 12.25 1.4 L11.3 1.95 10.3 3.0 10.0 3.15 Q9.35 3.45 8.8 2.9 L8.75 2.85 6.3 2.15 5.6 2.0 5.3 1.6 Q5.1 1.35 5.25 0.95 L5.65 0.55 6.4 0.25 7.7 -0.7 8.55 -1.95 9.1 -2.85 8.05 -3.85 Q7.4 -4.4 7.8 -5.05 L8.0 -5.2 9.3 -5.45 9.65 -6.0 9.8 -6.2 9.85 -6.3 9.7 -7.4 9.65 -7.65 9.55 -8.8 Q9.1 -9.2 9.4 -9.65 9.55 -9.95 9.85 -9.95 M10.0 -4.35 L9.55 -4.25 9.45 -4.2 10.15 -3.5 10.3 -3.25 10.55 -3.0 10.65 -2.85 10.95 -3.1 11.15 -3.2 10.95 -3.65 10.8 -3.95 10.1 -4.3 10.1 -4.35 10.0 -4.35 M9.75 -1.5 Q8.95 -0.25 7.85 0.75 L7.25 1.15 8.65 1.6 9.55 1.85 9.65 1.8 Q10.45 1.1 11.35 0.5 L11.55 0.35 Q11.0 -0.15 10.95 -0.85 10.9 -1.25 11.0 -1.65 L10.75 -1.7 9.95 -1.8 9.75 -1.5 M11.4 -5.85 L11.0 -7.1 Q11.2 -6.15 10.75 -5.35 L11.55 -4.95 11.4 -5.85 M1.8 10.15 Q0.55 10.85 -0.85 10.6 L-1.3 10.35 -2.65 9.15 -3.25 8.65 -4.55 7.7 -4.75 7.35 -5.35 6.25 -5.65 5.85 -5.85 5.15 -5.85 3.0 -5.95 1.4 -5.6 0.9 -5.4 0.85 Q-4.95 0.9 -4.65 1.3 L-4.15 1.85 -4.1 1.95 -3.45 2.5 -2.85 3.1 -0.65 5.1 -0.4 5.4 -0.05 6.45 1.15 7.7 1.25 7.8 2.85 8.9 2.9 9.15 Q2.85 9.8 2.15 10.0 L1.8 10.15 M0.25 8.6 L-1.0 7.2 -1.25 6.7 -1.35 6.35 -1.6 5.85 -2.6 5.0 -2.75 4.9 -3.25 4.3 Q-3.95 3.75 -4.6 3.25 -4.45 4.15 -4.65 5.05 L-4.65 5.1 -4.0 6.1 -3.55 6.9 -2.85 7.5 -1.3 8.8 -0.5 9.35 0.55 9.4 1.15 9.15 0.25 8.6" fill="#ffcc00" fill-rule="evenodd" stroke="none"/>
    <path d="M11.4 -5.85 L11.55 -4.95 10.75 -5.35 Q11.2 -6.15 11.0 -7.1 L11.4 -5.85 M9.75 -1.5 L9.95 -1.8 10.75 -1.7 11.0 -1.65 Q10.9 -1.25 10.95 -0.85 11.0 -0.15 11.55 0.35 L11.35 0.5 Q10.45 1.1 9.65 1.8 L9.55 1.85 8.65 1.6 7.25 1.15 7.85 0.75 Q8.95 -0.25 9.75 -1.5 M10.0 -4.35 L10.1 -4.35 10.1 -4.3 10.8 -3.95 10.95 -3.65 11.15 -3.2 10.95 -3.1 10.65 -2.85 10.55 -3.0 10.3 -3.25 10.15 -3.5 9.45 -4.2 9.55 -4.25 10.0 -4.35 M0.25 8.6 L1.15 9.15 0.55 9.4 -0.5 9.35 -1.3 8.8 -2.85 7.5 -3.55 6.9 -4.0 6.1 -4.65 5.1 -4.65 5.05 Q-4.45 4.15 -4.6 3.25 -3.95 3.75 -3.25 4.3 L-2.75 4.9 -2.6 5.0 -1.6 5.85 -1.35 6.35 -1.25 6.7 -1.0 7.2 0.25 8.6" fill="#ffff00" fill-rule="evenodd" stroke="none"/>
  </g>
</svg>
