<?xml version="1.0" encoding="UTF-8" standalone="no"?>
<svg xmlns:ffdec="https://www.free-decompiler.com/flash" xmlns:xlink="http://www.w3.org/1999/xlink" ffdec:objectType="shape" height="114.95px" width="916.1px" xmlns="http://www.w3.org/2000/svg">
  <g transform="matrix(1.0, 0.0, 0.0, 1.0, 458.05, 57.5)">
    <path d="M-102.1 -38.4 L-102.1 -40.4 101.9 -40.4 101.9 -31.4 101.9 -30.4 101.9 -29.4 -102.1 -29.4 -102.1 -38.4" fill="url(#gradient0)" fill-rule="evenodd" stroke="none"/>
    <path d="M-102.1 -38.4 L-102.1 -29.4 -102.1 -28.4 -102.1 -27.4 -458.05 -27.4 -458.05 -29.4 -223.1 -29.4 -223.1 -38.4 -102.1 -38.4" fill="url(#gradient1)" fill-rule="evenodd" stroke="none"/>
    <path d="M-102.1 -29.4 L101.9 -29.4 101.9 -28.4 -102.1 -28.4 -102.1 -29.4 M101.9 -20.4 L101.9 -26.4 101.9 -28.4 191.9 -28.4 191.9 -20.4 101.9 -20.4" fill="url(#gradient2)" fill-rule="evenodd" stroke="none"/>
    <path d="M-102.1 -27.4 L-102.1 -26.4 101.9 -26.4 101.9 -20.4 101.9 -18.4 191.9 -18.4 191.9 -12.4 -458.05 -12.4 -458.05 -27.4 -102.1 -27.4 M191.9 37.4 L191.9 40.6 166.9 40.6 162.9 40.6 162.9 37.6 162.9 34.6 109.9 34.6 109.9 37.6 109.9 40.6 75.9 40.6 71.9 40.6 71.9 44.6 -458.05 44.6 -458.05 29.6 191.35 29.6 191.35 30.0 191.9 30.0 191.9 32.15 191.35 32.15 191.35 33.2 191.35 37.4 191.9 37.4" fill="url(#gradient3)" fill-rule="evenodd" stroke="none"/>
    <path d="M101.9 -31.4 L101.9 -40.4 101.9 -42.4 145.9 -42.4 145.9 -35.4 191.35 -35.4 191.35 -31.4 101.9 -31.4" fill="url(#gradient4)" fill-rule="evenodd" stroke="none"/>
    <path d="M101.9 -30.4 L101.9 -31.4 191.35 -31.4 191.35 -31.15 191.9 -31.15 191.9 -30.4 101.9 -30.4" fill="url(#gradient5)" fill-rule="evenodd" stroke="none"/>
    <path d="M189.7 -46.95 L189.7 -47.4 189.7 -54.35 191.9 -54.35 201.6 -54.35 201.6 -50.1 201.6 -46.95 189.7 -46.95 M223.35 -54.35 L238.95 -54.35 238.95 -46.95 223.35 -46.95 223.35 -50.1 223.35 -54.35" fill="url(#gradient6)" fill-rule="evenodd" stroke="none"/>
    <path d="M189.7 -47.4 L145.9 -47.4 145.9 -54.4 191.9 -54.4 191.9 -54.35 189.7 -54.35 189.7 -47.4" fill="url(#gradient7)" fill-rule="evenodd" stroke="none"/>
    <path d="M191.35 -35.4 L191.35 -42.75 201.6 -42.75 203.25 -42.75 203.25 -39.6 203.25 -36.4 225.0 -36.4 225.0 -39.6 225.0 -42.75 238.95 -42.75 240.6 -42.75 240.6 -46.95 458.05 -46.95 458.05 -31.15 191.9 -31.15 191.35 -31.15 191.35 -31.4 191.35 -35.4 M228.3 21.6 L228.3 19.5 191.35 19.5 191.35 13.15 458.05 13.15 458.05 28.95 312.0 28.95 312.0 27.9 228.3 27.9 228.3 21.6" fill="url(#gradient8)" fill-rule="evenodd" stroke="none"/>
    <path d="M191.35 -42.75 L189.7 -42.75 189.7 -46.95 201.6 -46.95 201.6 -42.75 191.35 -42.75 M238.95 -46.95 L238.95 -42.75 225.0 -42.75 223.35 -42.75 223.35 -46.95 238.95 -46.95" fill="url(#gradient9)" fill-rule="evenodd" stroke="none"/>
    <path d="M201.6 -54.35 L201.6 -57.5 223.35 -57.5 223.35 -54.35 223.35 -50.1 201.6 -50.1 201.6 -54.35" fill="url(#gradient10)" fill-rule="evenodd" stroke="none"/>
    <path d="M201.6 -50.1 L223.35 -50.1 223.35 -46.95 223.35 -42.75 203.25 -42.75 201.6 -42.75 201.6 -46.95 201.6 -50.1" fill="url(#gradient11)" fill-rule="evenodd" stroke="none"/>
    <path d="M203.25 -42.75 L223.35 -42.75 225.0 -42.75 225.0 -39.6 203.25 -39.6 203.25 -42.75" fill="url(#gradient12)" fill-rule="evenodd" stroke="none"/>
    <path d="M240.6 -46.95 L240.6 -54.35 458.05 -54.35 458.05 -46.95 240.6 -46.95" fill="url(#gradient13)" fill-rule="evenodd" stroke="none"/>
    <path d="M458.05 28.95 L458.05 31.1 361.65 31.1 361.65 40.55 312.0 40.55 312.0 31.1 312.0 30.0 312.0 28.95 458.05 28.95" fill="url(#gradient14)" fill-rule="evenodd" stroke="none"/>
    <path d="M312.0 40.55 L312.0 42.7 228.3 42.7 228.3 33.2 228.3 32.15 228.3 31.1 312.0 31.1 312.0 40.55" fill="url(#gradient15)" fill-rule="evenodd" stroke="none"/>
    <path d="M191.35 29.6 L191.35 21.6 228.3 21.6 228.3 27.9 228.3 30.0 312.0 30.0 312.0 31.1 228.3 31.1 228.3 30.0 191.9 30.0 191.35 30.0 191.35 29.6" fill="url(#gradient16)" fill-rule="evenodd" stroke="none"/>
    <path d="M228.3 42.7 L228.3 44.8 210.2 44.8 210.2 37.4 191.9 37.4 191.35 37.4 191.35 33.2 228.3 33.2 228.3 42.7" fill="url(#gradient17)" fill-rule="evenodd" stroke="none"/>
    <path d="M191.9 40.6 L195.9 40.6 195.9 44.6 166.9 44.6 166.9 40.6 191.9 40.6 M75.9 44.6 L75.9 40.6 109.9 40.6 113.9 40.6 113.9 44.6 75.9 44.6" fill="url(#gradient18)" fill-rule="evenodd" stroke="none"/>
    <path d="M228.3 32.15 L228.3 33.2 191.35 33.2 191.35 32.15 191.9 32.15 228.3 32.15" fill="url(#gradient19)" fill-rule="evenodd" stroke="none"/>
    <path d="M195.9 50.05 L210.2 50.05 210.2 57.45 191.35 57.45 191.35 51.6 191.35 50.05 195.9 50.05" fill="url(#gradient20)" fill-rule="evenodd" stroke="none"/>
    <path d="M195.9 44.6 L195.9 50.05 191.35 50.05 191.35 51.6 166.9 51.6 166.9 47.6 166.9 44.6 195.9 44.6 M113.9 51.6 L75.9 51.6 75.9 44.6 113.9 44.6 113.9 47.6 113.9 51.6" fill="url(#gradient21)" fill-rule="evenodd" stroke="none"/>
    <path d="M113.9 40.6 L162.9 40.6 166.9 40.6 166.9 44.6 166.9 47.6 113.9 47.6 113.9 44.6 113.9 40.6" fill="url(#gradient22)" fill-rule="evenodd" stroke="none"/>
    <path d="M162.9 37.6 L162.9 40.6 113.9 40.6 109.9 40.6 109.9 37.6 162.9 37.6" fill="url(#gradient23)" fill-rule="evenodd" stroke="none"/>
    <path d="M166.9 51.6 L166.9 54.6 113.9 54.6 113.9 51.6 113.9 47.6 166.9 47.6 166.9 51.6" fill="url(#gradient24)" fill-rule="evenodd" stroke="none"/>
    <path d="M71.9 44.6 L71.9 51.6 -458.05 51.6 -458.05 44.6 71.9 44.6" fill="url(#gradient25)" fill-rule="evenodd" stroke="none"/>
  </g>
  <defs>
    <linearGradient gradientTransform="matrix(0.3723, -3.0E-4, 0.0, 0.007, -138.1, -34.9)" gradientUnits="userSpaceOnUse" id="gradient0" spreadMethod="pad" x1="-819.2" x2="819.2">
      <stop offset="0.0" stop-color="#006600"/>
      <stop offset="0.40784313725490196" stop-color="#000500"/>
      <stop offset="0.6313725490196078" stop-color="#000000"/>
      <stop offset="0.7215686274509804" stop-color="#000000"/>
      <stop offset="1.0" stop-color="#006600"/>
    </linearGradient>
    <linearGradient gradientTransform="matrix(0.3723, -3.0E-4, 0.0, 0.007, -138.1, -32.9)" gradientUnits="userSpaceOnUse" id="gradient1" spreadMethod="pad" x1="-819.2" x2="819.2">
      <stop offset="0.0" stop-color="#006600"/>
      <stop offset="0.40784313725490196" stop-color="#000500"/>
      <stop offset="0.6313725490196078" stop-color="#000000"/>
      <stop offset="0.7215686274509804" stop-color="#000000"/>
      <stop offset="1.0" stop-color="#006600"/>
    </linearGradient>
    <radialGradient cx="0" cy="0" gradientTransform="matrix(0.9687, 0.0, 0.0, 0.9687, 245.9, -14.4)" gradientUnits="userSpaceOnUse" id="gradient2" r="819.2" spreadMethod="pad">
      <stop offset="0.0" stop-color="#009900"/>
      <stop offset="0.20784313725490197" stop-color="#006600"/>
      <stop offset="0.4196078431372549" stop-color="#000000"/>
    </radialGradient>
    <radialGradient cx="0" cy="0" gradientTransform="matrix(0.9687, 0.0, 0.0, 0.9687, 245.9, -12.4)" gradientUnits="userSpaceOnUse" id="gradient3" r="819.2" spreadMethod="pad">
      <stop offset="0.0" stop-color="#009900"/>
      <stop offset="0.20784313725490197" stop-color="#006600"/>
      <stop offset="0.4196078431372549" stop-color="#000000"/>
    </radialGradient>
    <linearGradient gradientTransform="matrix(0.3723, -3.0E-4, 0.0, 0.007, -138.1, -36.9)" gradientUnits="userSpaceOnUse" id="gradient4" spreadMethod="pad" x1="-819.2" x2="819.2">
      <stop offset="0.0" stop-color="#006600"/>
      <stop offset="0.40784313725490196" stop-color="#000500"/>
      <stop offset="0.6313725490196078" stop-color="#000000"/>
      <stop offset="0.7215686274509804" stop-color="#000000"/>
      <stop offset="1.0" stop-color="#006600"/>
    </linearGradient>
    <radialGradient cx="0" cy="0" gradientTransform="matrix(0.9687, 0.0, 0.0, 0.9687, 245.9, -16.4)" gradientUnits="userSpaceOnUse" id="gradient5" r="819.2" spreadMethod="pad">
      <stop offset="0.0" stop-color="#009900"/>
      <stop offset="0.20784313725490197" stop-color="#006600"/>
      <stop offset="0.4196078431372549" stop-color="#000000"/>
    </radialGradient>
    <linearGradient gradientTransform="matrix(-0.1628, 0.0, 0.0, -0.0045, 323.05, -50.65)" gradientUnits="userSpaceOnUse" id="gradient6" spreadMethod="pad" x1="-819.2" x2="819.2">
      <stop offset="0.4745098039215686" stop-color="#000000"/>
      <stop offset="1.0" stop-color="#006600"/>
    </linearGradient>
    <linearGradient gradientTransform="matrix(0.3723, -3.0E-4, 0.0, 0.007, -138.1, -48.9)" gradientUnits="userSpaceOnUse" id="gradient7" spreadMethod="pad" x1="-819.2" x2="819.2">
      <stop offset="0.0" stop-color="#006600"/>
      <stop offset="0.40784313725490196" stop-color="#000500"/>
      <stop offset="0.6313725490196078" stop-color="#000000"/>
      <stop offset="0.7215686274509804" stop-color="#000000"/>
      <stop offset="1.0" stop-color="#006600"/>
    </linearGradient>
    <radialGradient cx="0" cy="0" gradientTransform="matrix(-0.3975, 0.0, 0.0, -1.0215, 169.15, 13.15)" gradientUnits="userSpaceOnUse" id="gradient8" r="819.2" spreadMethod="pad">
      <stop offset="0.0" stop-color="#009900"/>
      <stop offset="0.20784313725490197" stop-color="#006600"/>
      <stop offset="0.4196078431372549" stop-color="#000000"/>
    </radialGradient>
    <radialGradient cx="0" cy="0" gradientTransform="matrix(-0.3975, 0.0, 0.0, -1.0215, 167.55, 13.15)" gradientUnits="userSpaceOnUse" id="gradient9" r="819.2" spreadMethod="pad">
      <stop offset="0.0" stop-color="#009900"/>
      <stop offset="0.20784313725490197" stop-color="#006600"/>
      <stop offset="0.4196078431372549" stop-color="#000000"/>
    </radialGradient>
    <linearGradient gradientTransform="matrix(-0.1628, 0.0, 0.0, -0.0045, 323.05, -53.85)" gradientUnits="userSpaceOnUse" id="gradient10" spreadMethod="pad" x1="-819.2" x2="819.2">
      <stop offset="0.4745098039215686" stop-color="#000000"/>
      <stop offset="1.0" stop-color="#006600"/>
    </linearGradient>
    <radialGradient cx="0" cy="0" gradientTransform="matrix(-0.3975, 0.0, 0.0, -1.0215, 167.55, 9.95)" gradientUnits="userSpaceOnUse" id="gradient11" r="819.2" spreadMethod="pad">
      <stop offset="0.0" stop-color="#009900"/>
      <stop offset="0.20784313725490197" stop-color="#006600"/>
      <stop offset="0.4196078431372549" stop-color="#000000"/>
    </radialGradient>
    <radialGradient cx="0" cy="0" gradientTransform="matrix(-0.3975, 0.0, 0.0, -1.0215, 169.15, 9.95)" gradientUnits="userSpaceOnUse" id="gradient12" r="819.2" spreadMethod="pad">
      <stop offset="0.0" stop-color="#009900"/>
      <stop offset="0.20784313725490197" stop-color="#006600"/>
      <stop offset="0.4196078431372549" stop-color="#000000"/>
    </radialGradient>
    <linearGradient gradientTransform="matrix(-0.1628, 0.0, 0.0, -0.0045, 324.7, -50.65)" gradientUnits="userSpaceOnUse" id="gradient13" spreadMethod="pad" x1="-819.2" x2="819.2">
      <stop offset="0.4745098039215686" stop-color="#000000"/>
      <stop offset="1.0" stop-color="#006600"/>
    </linearGradient>
    <linearGradient gradientTransform="matrix(-0.1528, 3.0E-4, 0.0, -0.0074, 326.75, 34.75)" gradientUnits="userSpaceOnUse" id="gradient14" spreadMethod="pad" x1="-819.2" x2="819.2">
      <stop offset="0.0" stop-color="#006600"/>
      <stop offset="0.40784313725490196" stop-color="#000500"/>
      <stop offset="0.6313725490196078" stop-color="#000000"/>
      <stop offset="0.7215686274509804" stop-color="#000000"/>
      <stop offset="1.0" stop-color="#006600"/>
    </linearGradient>
    <linearGradient gradientTransform="matrix(-0.1528, 3.0E-4, 0.0, -0.0074, 326.75, 36.85)" gradientUnits="userSpaceOnUse" id="gradient15" spreadMethod="pad" x1="-819.2" x2="819.2">
      <stop offset="0.0" stop-color="#006600"/>
      <stop offset="0.40784313725490196" stop-color="#000500"/>
      <stop offset="0.6313725490196078" stop-color="#000000"/>
      <stop offset="0.7215686274509804" stop-color="#000000"/>
      <stop offset="1.0" stop-color="#006600"/>
    </linearGradient>
    <radialGradient cx="0" cy="0" gradientTransform="matrix(-0.3975, 0.0, 0.0, -1.0215, 169.15, 15.25)" gradientUnits="userSpaceOnUse" id="gradient16" r="819.2" spreadMethod="pad">
      <stop offset="0.0" stop-color="#009900"/>
      <stop offset="0.20784313725490197" stop-color="#006600"/>
      <stop offset="0.4196078431372549" stop-color="#000000"/>
    </radialGradient>
    <linearGradient gradientTransform="matrix(-0.1528, 3.0E-4, 0.0, -0.0074, 326.75, 38.95)" gradientUnits="userSpaceOnUse" id="gradient17" spreadMethod="pad" x1="-819.2" x2="819.2">
      <stop offset="0.0" stop-color="#006600"/>
      <stop offset="0.40784313725490196" stop-color="#000500"/>
      <stop offset="0.6313725490196078" stop-color="#000000"/>
      <stop offset="0.7215686274509804" stop-color="#000000"/>
      <stop offset="1.0" stop-color="#006600"/>
    </linearGradient>
    <radialGradient cx="0" cy="0" gradientTransform="matrix(0.9687, 0.0, 0.0, 0.9687, 249.9, -12.4)" gradientUnits="userSpaceOnUse" id="gradient18" r="819.2" spreadMethod="pad">
      <stop offset="0.0" stop-color="#009900"/>
      <stop offset="0.20784313725490197" stop-color="#006600"/>
      <stop offset="0.4196078431372549" stop-color="#000000"/>
    </radialGradient>
    <radialGradient cx="0" cy="0" gradientTransform="matrix(-0.3975, 0.0, 0.0, -1.0215, 169.15, 17.35)" gradientUnits="userSpaceOnUse" id="gradient19" r="819.2" spreadMethod="pad">
      <stop offset="0.0" stop-color="#009900"/>
      <stop offset="0.20784313725490197" stop-color="#006600"/>
      <stop offset="0.4196078431372549" stop-color="#000000"/>
    </radialGradient>
    <linearGradient gradientTransform="matrix(-0.1528, 3.0E-4, 0.0, -0.0074, 326.75, 51.65)" gradientUnits="userSpaceOnUse" id="gradient20" spreadMethod="pad" x1="-819.2" x2="819.2">
      <stop offset="0.0" stop-color="#006600"/>
      <stop offset="0.40784313725490196" stop-color="#000500"/>
      <stop offset="0.6313725490196078" stop-color="#000000"/>
      <stop offset="0.7215686274509804" stop-color="#000000"/>
      <stop offset="1.0" stop-color="#006600"/>
    </linearGradient>
    <linearGradient gradientTransform="matrix(0.3967, 0.0, 0.0, 0.0043, -129.1, 48.1)" gradientUnits="userSpaceOnUse" id="gradient21" spreadMethod="pad" x1="-819.2" x2="819.2">
      <stop offset="0.4745098039215686" stop-color="#000000"/>
      <stop offset="1.0" stop-color="#006600"/>
    </linearGradient>
    <radialGradient cx="0" cy="0" gradientTransform="matrix(0.9687, 0.0, 0.0, 0.9687, 249.9, -9.4)" gradientUnits="userSpaceOnUse" id="gradient22" r="819.2" spreadMethod="pad">
      <stop offset="0.0" stop-color="#009900"/>
      <stop offset="0.20784313725490197" stop-color="#006600"/>
      <stop offset="0.4196078431372549" stop-color="#000000"/>
    </radialGradient>
    <radialGradient cx="0" cy="0" gradientTransform="matrix(0.9687, 0.0, 0.0, 0.9687, 245.9, -9.4)" gradientUnits="userSpaceOnUse" id="gradient23" r="819.2" spreadMethod="pad">
      <stop offset="0.0" stop-color="#009900"/>
      <stop offset="0.20784313725490197" stop-color="#006600"/>
      <stop offset="0.4196078431372549" stop-color="#000000"/>
    </radialGradient>
    <linearGradient gradientTransform="matrix(0.3967, 0.0, 0.0, 0.0043, -129.1, 51.1)" gradientUnits="userSpaceOnUse" id="gradient24" spreadMethod="pad" x1="-819.2" x2="819.2">
      <stop offset="0.4745098039215686" stop-color="#000000"/>
      <stop offset="1.0" stop-color="#006600"/>
    </linearGradient>
    <linearGradient gradientTransform="matrix(0.3967, 0.0, 0.0, 0.0043, -133.1, 48.1)" gradientUnits="userSpaceOnUse" id="gradient25" spreadMethod="pad" x1="-819.2" x2="819.2">
      <stop offset="0.4745098039215686" stop-color="#000000"/>
      <stop offset="1.0" stop-color="#006600"/>
    </linearGradient>
  </defs>
</svg>
