<?xml version="1.0" encoding="UTF-8" standalone="no"?>
<svg xmlns:ffdec="https://www.free-decompiler.com/flash" xmlns:xlink="http://www.w3.org/1999/xlink" ffdec:objectType="shape" height="21.5px" width="19.9px" xmlns="http://www.w3.org/2000/svg">
  <g transform="matrix(1.0, 0.0, 0.0, 1.0, 7.15, 11.15)">
    <path d="M8.9 -11.0 L9.25 -11.15 Q10.75 -10.8 11.7 -9.55 12.65 -8.4 12.5 -6.8 L12.2 -4.4 Q12.7 -4.1 12.65 -3.55 L12.35 -2.8 11.9 -2.1 Q12.65 -1.9 12.75 -1.2 L12.65 -0.85 11.55 0.4 10.8 0.95 10.1 1.6 Q10.25 2.4 9.6 2.85 L9.45 2.9 Q8.45 2.9 7.65 2.3 6.75 2.0 6.0 1.45 L5.85 1.25 Q5.75 0.8 6.1 0.55 6.3 -0.05 6.85 -0.4 L7.55 -1.0 7.95 -1.35 Q8.65 -1.85 8.7 -2.55 7.85 -3.1 7.6 -4.1 L7.55 -4.35 7.25 -4.85 7.25 -5.25 Q7.4 -5.8 8.05 -5.8 L9.25 -5.75 9.1 -7.2 Q9.05 -7.4 9.15 -7.6 9.4 -8.0 9.85 -7.95 L9.9 -8.0 Q9.9 -8.7 9.35 -9.25 8.8 -9.8 8.7 -10.55 L8.9 -11.0 M9.8 -3.2 L9.9 -3.15 10.15 -2.65 10.75 -2.7 10.85 -2.85 10.85 -4.1 10.8 -4.3 10.75 -4.4 9.6 -4.45 9.45 -4.5 9.2 -4.5 9.8 -3.2 M9.4 -1.1 L8.35 -0.1 8.2 0.05 7.35 0.85 7.9 1.15 8.65 1.5 8.9 1.6 Q8.85 0.75 9.65 0.35 L10.5 -0.3 11.0 -0.75 11.25 -1.05 Q10.75 -1.1 10.65 -1.4 L10.15 -1.4 9.7 -1.4 9.6 -1.4 9.4 -1.1 M11.1 -8.2 Q11.2 -7.35 10.5 -6.95 L10.45 -6.9 10.45 -5.9 10.9 -6.15 10.95 -6.15 11.2 -6.05 11.3 -7.2 11.1 -8.2 M3.1 9.05 L2.6 9.45 Q2.2 9.9 1.5 10.0 L0.9 10.15 -0.25 10.3 -1.4 9.95 -1.75 9.85 Q-2.55 9.9 -3.0 9.2 L-3.4 8.65 -4.15 7.7 -5.15 6.1 -5.2 5.85 Q-6.15 6.0 -6.35 5.1 L-6.8 3.0 -7.05 1.4 -7.15 -0.4 Q-7.2 -1.05 -6.55 -1.15 -6.0 -1.0 -5.6 -0.55 L-4.15 0.8 Q-3.75 1.1 -3.7 1.55 L-3.65 1.8 -1.85 3.15 -1.65 3.35 Q-0.7 4.05 -0.35 5.1 L-0.35 5.4 -0.5 5.65 0.5 6.55 0.8 6.8 1.1 7.1 Q1.55 7.75 2.3 8.05 2.8 8.2 3.05 8.65 L3.1 9.05 M0.4 9.05 L1.1 8.8 -0.05 7.7 -0.85 7.15 -1.3 6.6 -2.25 5.2 -2.3 5.05 -2.05 4.6 Q-2.85 3.85 -3.8 3.2 L-4.6 2.6 Q-5.05 2.3 -4.9 1.75 L-5.85 0.95 -5.4 3.85 -5.35 4.1 -5.25 4.55 -4.75 4.7 -4.35 5.05 -3.75 6.1 -2.9 7.35 -1.9 8.6 -0.7 8.9 0.15 9.1 0.4 9.05" fill="#ffcc00" fill-rule="evenodd" stroke="none"/>
    <path d="M11.1 -8.2 L11.3 -7.2 11.2 -6.05 10.95 -6.15 10.9 -6.15 10.45 -5.9 10.45 -6.9 10.5 -6.95 Q11.2 -7.35 11.1 -8.2 M9.4 -1.1 L9.6 -1.4 9.7 -1.4 10.15 -1.4 10.65 -1.4 Q10.75 -1.1 11.25 -1.05 L11.0 -0.75 10.5 -0.3 9.65 0.35 Q8.85 0.75 8.9 1.6 L8.65 1.5 7.9 1.15 7.35 0.85 8.2 0.05 8.35 -0.1 9.4 -1.1 M9.8 -3.2 L9.2 -4.5 9.45 -4.5 9.6 -4.45 10.75 -4.4 10.8 -4.3 10.85 -4.1 10.85 -2.85 10.75 -2.7 10.15 -2.65 9.9 -3.15 9.8 -3.2 M0.4 9.05 L0.15 9.1 -0.7 8.9 -1.9 8.6 -2.9 7.35 -3.75 6.1 -4.35 5.05 -4.75 4.7 -5.25 4.55 -5.35 4.1 -5.4 3.85 -5.85 0.95 -4.9 1.75 Q-5.05 2.3 -4.6 2.6 L-3.8 3.2 Q-2.85 3.85 -2.05 4.6 L-2.3 5.05 -2.25 5.2 -1.3 6.6 -0.85 7.15 -0.05 7.7 1.1 8.8 0.4 9.05" fill="#ffff00" fill-rule="evenodd" stroke="none"/>
  </g>
</svg>
