<?xml version="1.0" encoding="UTF-8" standalone="no"?>
<svg xmlns:ffdec="https://www.free-decompiler.com/flash" xmlns:xlink="http://www.w3.org/1999/xlink" ffdec:objectType="shape" height="19.9px" width="19.95px" xmlns="http://www.w3.org/2000/svg">
  <g transform="matrix(1.0, 0.0, 0.0, 1.0, 7.25, 9.9)">
    <path d="M9.55 -7.8 L9.45 -9.25 Q9.5 -9.85 10.05 -9.9 L11.05 -9.25 11.6 -8.6 Q12.7 -7.5 12.6 -5.9 L12.6 -5.85 Q12.85 -5.05 12.55 -4.25 L12.5 -4.15 12.05 -3.8 12.1 -3.45 12.1 -2.0 12.05 -1.1 Q12.0 -0.55 11.5 -0.35 L11.0 0.2 10.35 1.15 10.1 1.2 Q9.35 1.2 8.85 0.6 L8.75 0.5 Q8.05 0.7 7.85 0.05 7.8 -0.2 7.9 -0.45 L8.25 -1.35 8.3 -1.7 8.05 -3.55 7.8 -4.55 Q7.7 -5.25 8.4 -5.4 L9.65 -4.9 9.6 -4.95 Q9.25 -5.15 9.35 -5.55 L9.5 -6.45 9.55 -7.8 M9.35 -0.7 L9.8 -0.2 9.85 -0.2 Q10.15 -1.0 10.9 -1.45 L10.95 -3.2 10.95 -3.25 9.2 -3.8 Q9.65 -2.35 9.35 -0.85 L9.35 -0.7 M10.65 -5.7 L11.5 -5.1 11.3 -6.65 11.25 -6.95 10.75 -7.7 Q10.9 -6.75 10.65 -5.75 L10.6 -5.75 10.65 -5.7 M0.2 7.8 L0.0 7.65 -1.4 6.5 -2.25 5.4 -2.85 4.25 -2.95 4.15 -3.8 3.2 -3.85 3.1 -4.3 2.5 -4.45 2.35 -5.9 0.4 -6.0 0.3 -5.95 3.05 -5.9 3.25 -5.65 4.2 -4.6 5.25 -4.5 5.35 -3.4 6.8 -3.0 7.3 -2.65 7.55 -2.25 7.9 -1.5 8.55 0.1 8.8 0.85 8.75 1.15 8.75 0.2 7.8 M2.5 8.65 Q2.8 9.5 2.05 9.9 L1.9 9.95 -1.4 9.85 -1.5 9.8 Q-2.5 9.5 -3.2 8.75 L-3.55 8.4 -5.1 6.55 -5.5 6.1 -6.1 5.6 -6.85 4.35 Q-7.3 3.25 -7.25 2.1 L-7.25 -0.25 -7.0 -1.6 -6.8 -1.85 -6.45 -2.0 Q-5.3 -1.75 -5.1 -0.65 L-5.1 -0.6 -3.4 1.7 -3.0 2.2 -2.0 3.35 -1.7 3.85 -1.05 5.1 0.4 6.4 0.95 6.9 Q1.95 7.45 2.45 8.45 L2.5 8.65" fill="#ffcc00" fill-rule="evenodd" stroke="none"/>
    <path d="M10.65 -5.75 Q10.9 -6.75 10.75 -7.7 L11.25 -6.95 11.3 -6.65 11.5 -5.1 10.65 -5.7 10.65 -5.75 M9.35 -0.7 L9.35 -0.85 Q9.65 -2.35 9.2 -3.8 L10.95 -3.25 10.95 -3.2 10.9 -1.45 Q10.15 -1.0 9.85 -0.2 L9.8 -0.2 9.35 -0.7 M0.2 7.8 L1.15 8.75 0.85 8.75 0.1 8.8 -1.5 8.55 -2.25 7.9 -2.65 7.55 -3.0 7.3 -3.4 6.8 -4.5 5.35 -4.6 5.25 -5.65 4.2 -5.9 3.25 -5.95 3.05 -6.0 0.3 -5.9 0.4 -4.45 2.35 -4.3 2.5 -3.85 3.1 -3.8 3.2 -2.95 4.15 -2.85 4.25 -2.25 5.4 -1.4 6.5 0.0 7.65 0.2 7.8" fill="#ffff00" fill-rule="evenodd" stroke="none"/>
  </g>
</svg>
