<?xml version="1.0" encoding="UTF-8" standalone="no"?>
<svg xmlns:ffdec="https://www.free-decompiler.com/flash" xmlns:xlink="http://www.w3.org/1999/xlink" ffdec:objectType="shape" height="21.6px" width="21.6px" xmlns="http://www.w3.org/2000/svg">
  <g transform="matrix(1.0, 0.0, 0.0, 1.0, 8.1, 11.45)">
    <path d="M9.95 -7.5 L9.85 -8.5 9.85 -8.8 8.75 -10.15 8.65 -10.35 Q8.55 -10.9 8.9 -11.3 L9.25 -11.45 Q10.75 -11.35 12.1 -10.7 L12.45 -10.45 13.25 -9.65 Q13.75 -8.95 13.25 -8.2 13.05 -7.85 13.15 -7.5 L13.5 -6.2 13.45 -5.45 13.3 -4.9 13.2 -4.7 13.1 -4.4 12.9 -4.15 12.85 -4.05 Q12.8 -3.4 12.35 -3.3 L12.3 -3.15 12.25 -2.55 12.25 -2.1 Q12.4 -1.4 11.75 -1.05 L10.55 -0.2 10.25 0.05 9.4 0.25 Q8.7 0.5 8.6 -0.2 L8.7 -0.75 8.9 -1.1 8.9 -1.15 8.95 -1.25 8.95 -1.35 Q8.45 -2.0 8.1 -2.8 7.7 -3.8 7.55 -4.85 L7.7 -5.2 8.1 -5.35 9.85 -4.9 10.75 -4.65 10.1 -5.2 10.0 -5.35 Q9.8 -6.3 9.95 -7.2 L9.95 -7.5 M9.05 -3.85 Q9.3 -2.9 9.95 -2.2 L10.2 -1.7 10.25 -1.55 11.0 -2.1 11.1 -3.25 11.1 -3.35 9.45 -3.75 9.4 -3.75 9.05 -3.85 M12.05 -6.9 Q11.85 -7.65 12.05 -8.4 L12.3 -8.9 Q11.65 -9.75 10.65 -9.95 11.2 -9.05 11.1 -7.95 L11.1 -7.8 Q11.3 -7.05 11.15 -6.3 L11.15 -6.1 11.15 -5.95 12.05 -5.25 12.15 -5.35 12.2 -5.4 Q12.35 -6.1 12.1 -6.75 L12.05 -6.9 M0.9 8.15 Q-0.85 6.85 -2.3 5.25 L-2.7 4.55 -2.75 4.5 Q-2.9 3.65 -3.5 3.05 L-5.1 1.4 Q-5.6 0.75 -5.5 -0.05 L-5.5 -0.25 -6.7 -1.9 Q-7.0 -0.4 -6.7 1.0 L-6.5 1.65 -6.35 2.4 -5.85 3.8 -5.5 4.7 Q-4.85 5.05 -4.45 5.75 L-3.6 6.85 -3.45 7.05 -2.3 8.6 -1.8 8.8 -1.75 8.8 -1.35 8.6 0.65 8.85 1.3 8.9 1.55 8.9 0.9 8.15 M2.1 10.05 Q0.75 10.3 -0.45 9.75 L-0.9 9.75 Q-1.45 10.3 -2.25 9.95 L-3.25 9.3 -3.45 9.05 -4.0 8.35 -4.85 7.2 -5.75 6.05 Q-6.5 5.95 -6.65 5.2 L-6.8 4.85 -6.95 4.5 -7.3 3.25 -7.4 3.0 -7.55 2.5 -7.65 2.0 -7.85 1.55 -7.9 1.35 Q-8.15 0.2 -8.05 -0.95 L-7.95 -1.6 -7.75 -2.85 -7.3 -3.75 -6.95 -3.9 Q-6.35 -3.8 -6.2 -3.2 L-6.05 -2.95 -5.55 -2.35 -4.5 -0.9 Q-4.25 -0.6 -4.3 -0.2 L-4.3 0.4 -3.35 1.5 -2.1 2.75 -1.9 3.15 -1.7 3.75 -1.15 4.7 1.2 6.85 2.6 8.05 3.35 9.05 3.4 9.45 Q3.2 10.05 2.5 10.0 L2.1 10.05" fill="#ffcc00" fill-rule="evenodd" stroke="none"/>
    <path d="M0.9 8.15 L1.55 8.9 1.3 8.9 0.65 8.85 -1.35 8.6 -1.75 8.8 -1.8 8.8 -2.3 8.6 -3.45 7.05 -3.6 6.85 -4.45 5.75 Q-4.85 5.05 -5.5 4.7 L-5.85 3.8 -6.35 2.4 -6.5 1.65 -6.7 1.0 Q-7.0 -0.4 -6.7 -1.9 L-5.5 -0.25 -5.5 -0.05 Q-5.6 0.75 -5.1 1.4 L-3.5 3.05 Q-2.9 3.65 -2.75 4.5 L-2.7 4.55 -2.3 5.25 Q-0.85 6.85 0.9 8.15 M12.05 -6.9 L12.1 -6.75 Q12.35 -6.1 12.2 -5.4 L12.15 -5.35 12.05 -5.25 11.15 -5.95 11.15 -6.1 11.15 -6.3 Q11.3 -7.05 11.1 -7.8 L11.1 -7.95 Q11.2 -9.05 10.65 -9.95 11.65 -9.75 12.3 -8.9 L12.05 -8.4 Q11.85 -7.65 12.05 -6.9 M9.05 -3.85 L9.4 -3.75 9.45 -3.75 11.1 -3.35 11.1 -3.25 11.0 -2.1 10.25 -1.55 10.2 -1.7 9.95 -2.2 Q9.3 -2.9 9.05 -3.85" fill="#ffff00" fill-rule="evenodd" stroke="none"/>
  </g>
</svg>
