<?xml version="1.0" encoding="UTF-8" standalone="no"?>
<svg xmlns:ffdec="https://www.free-decompiler.com/flash" xmlns:xlink="http://www.w3.org/1999/xlink" ffdec:objectType="shape" height="21.55px" width="21.4px" xmlns="http://www.w3.org/2000/svg">
  <g transform="matrix(1.0, 0.0, 0.0, 1.0, 7.8, 11.5)">
    <path d="M7.15 -10.8 Q7.2 -11.5 7.95 -11.5 L10.6 -11.15 10.75 -11.1 12.6 -10.55 Q13.6 -10.25 13.35 -9.25 L13.0 -8.4 13.35 -7.4 Q13.65 -6.8 13.6 -6.1 13.55 -5.4 13.0 -5.0 L12.75 -4.9 12.25 -4.85 11.25 -5.0 10.7 -5.25 Q9.65 -5.55 9.65 -6.55 9.6 -7.25 9.9 -7.85 L9.9 -7.9 9.85 -8.15 9.85 -8.5 9.85 -8.6 8.7 -9.55 7.2 -10.55 7.15 -10.8 M8.35 -5.25 L8.45 -5.25 10.15 -5.0 11.25 -4.75 11.35 -4.75 Q12.35 -4.5 12.05 -3.5 L11.9 -3.1 11.6 -2.1 11.5 -1.95 Q11.1 -1.7 10.6 -1.95 L10.15 -1.95 Q9.7 -1.4 9.15 -1.95 L8.85 -2.5 8.65 -3.2 8.55 -3.45 8.2 -3.95 Q7.65 -4.45 8.05 -5.05 L8.35 -5.25 M9.8 -3.55 L9.8 -3.5 9.95 -3.15 10.55 -3.15 10.8 -3.6 9.75 -3.8 9.8 -3.55 M10.3 -9.95 Q10.9 -9.5 11.05 -8.75 11.2 -7.65 10.8 -6.65 11.45 -6.05 12.35 -6.0 12.5 -6.6 12.1 -7.15 L11.9 -7.7 Q11.5 -8.5 12.0 -9.25 L12.15 -9.45 10.3 -9.95 M0.1 7.2 L-1.35 5.75 -2.4 4.4 Q-2.85 3.6 -3.6 3.05 L-4.1 2.4 -4.15 2.0 Q-4.1 1.55 -4.3 1.2 L-4.6 0.9 -4.75 0.7 -5.8 -0.5 -6.6 -1.85 -6.6 -1.25 -6.6 -1.2 -6.25 0.7 -6.2 0.95 Q-5.5 1.5 -5.65 2.4 -5.75 3.25 -5.2 3.8 L-4.5 4.65 -4.45 4.8 Q-4.3 5.0 -4.3 5.25 L-3.25 6.7 -2.1 7.8 -1.85 8.1 Q-0.9 8.1 -0.2 8.75 L0.05 8.85 Q0.45 8.5 1.0 8.6 L0.15 7.4 0.1 7.2 M2.45 8.55 Q2.65 9.45 1.7 9.75 L1.55 9.75 0.5 9.95 0.25 10.05 Q-0.5 10.15 -1.05 9.6 -1.5 9.15 -2.2 9.25 L-2.7 9.05 -5.0 6.6 -5.15 6.3 Q-5.35 5.5 -5.9 4.9 L-6.35 4.4 -6.6 4.0 -6.75 2.9 Q-6.7 2.4 -6.95 2.0 L-7.0 1.85 Q-7.7 1.15 -7.6 0.1 L-7.6 -0.2 -7.7 -0.7 -7.8 -1.85 -7.8 -3.65 Q-7.8 -4.25 -7.2 -4.35 -6.7 -4.3 -6.6 -3.85 L-6.6 -3.8 -5.85 -2.85 -5.8 -2.8 -5.1 -1.85 -4.45 -0.7 Q-3.6 0.05 -3.05 1.0 L-3.0 1.2 -3.0 1.85 -1.9 3.05 -1.75 3.25 0.3 5.65 1.15 6.55 1.3 7.05 2.3 8.2 2.45 8.55" fill="#ffcc00" fill-rule="evenodd" stroke="none"/>
    <path d="M0.1 7.2 L0.15 7.4 1.0 8.6 Q0.45 8.5 0.05 8.85 L-0.2 8.75 Q-0.9 8.1 -1.85 8.1 L-2.1 7.8 -3.25 6.7 -4.3 5.25 Q-4.3 5.0 -4.45 4.8 L-4.5 4.65 -5.2 3.8 Q-5.75 3.25 -5.65 2.4 -5.5 1.5 -6.2 0.95 L-6.25 0.7 -6.6 -1.2 -6.6 -1.25 -6.6 -1.85 -5.8 -0.5 -4.75 0.7 -4.6 0.9 -4.3 1.2 Q-4.1 1.55 -4.15 2.0 L-4.1 2.4 -3.6 3.05 Q-2.85 3.6 -2.4 4.4 L-1.35 5.75 0.1 7.2 M10.3 -9.95 L12.15 -9.45 12.0 -9.25 Q11.5 -8.5 11.9 -7.7 L12.1 -7.15 Q12.5 -6.6 12.35 -6.0 11.45 -6.05 10.8 -6.65 11.2 -7.65 11.05 -8.75 10.9 -9.5 10.3 -9.95 M9.8 -3.55 L9.75 -3.8 10.8 -3.6 10.55 -3.15 9.95 -3.15 9.8 -3.5 9.8 -3.55" fill="#ffff00" fill-rule="evenodd" stroke="none"/>
  </g>
</svg>
