<?xml version="1.0" encoding="UTF-8" standalone="no"?>
<svg xmlns:ffdec="https://www.free-decompiler.com/flash" xmlns:xlink="http://www.w3.org/1999/xlink" ffdec:objectType="shape" height="21.5px" width="21.55px" xmlns="http://www.w3.org/2000/svg">
  <g transform="matrix(1.0, 0.0, 0.0, 1.0, 8.45, 12.3)">
    <path d="M8.2 -10.05 L7.0 -10.45 Q6.85 -10.45 6.8 -10.55 6.4 -11.1 6.95 -11.55 L8.65 -12.3 11.0 -11.85 Q12.45 -11.25 12.65 -9.8 L12.5 -9.4 Q12.2 -9.15 12.25 -8.75 L12.65 -7.35 12.8 -6.85 Q13.15 -6.3 13.1 -5.65 L12.75 -5.1 11.9 -4.45 11.85 -4.4 12.0 -4.35 12.1 -4.2 Q12.3 -3.55 11.7 -3.1 L11.6 -3.0 Q12.05 -2.45 11.5 -1.95 L11.15 -1.75 9.25 -1.45 8.9 -1.55 Q8.35 -1.95 8.35 -2.65 L8.3 -3.2 7.6 -4.4 7.3 -5.1 Q7.2 -5.5 7.6 -5.7 L7.85 -5.8 9.1 -5.65 Q8.85 -6.1 9.3 -6.55 L9.35 -6.85 Q9.15 -7.55 9.5 -8.25 L9.55 -8.4 9.6 -8.55 8.6 -9.8 8.2 -10.05 M9.05 -10.95 L10.1 -10.0 10.75 -8.8 10.75 -8.05 10.5 -7.3 10.55 -6.35 10.35 -5.85 11.1 -5.45 11.85 -5.9 11.5 -6.95 Q10.9 -8.25 11.25 -9.65 L11.4 -9.95 Q10.95 -10.8 9.9 -11.0 L9.15 -11.1 8.85 -11.1 9.05 -10.95 M3.4 -9.8 L2.9 -8.6 2.7 -8.4 2.55 -8.4 -0.1 -8.35 -0.35 -8.5 -0.45 -8.65 Q-1.2 -8.95 -0.85 -9.7 L-0.1 -10.45 1.5 -10.95 2.8 -11.2 Q3.4 -11.35 3.75 -10.9 L3.8 -10.35 3.4 -9.8 M2.05 -9.65 L2.05 -9.8 1.95 -9.85 1.9 -9.85 0.95 -9.55 2.0 -9.55 2.05 -9.65 M9.6 -2.75 L10.35 -2.85 10.5 -3.6 9.1 -4.2 9.6 -2.75 M2.6 8.25 Q2.85 8.55 2.65 8.9 L2.2 9.2 0.45 8.9 0.25 8.85 Q-0.65 9.5 -1.55 8.85 L-2.25 8.25 -2.55 8.0 Q-3.2 8.7 -3.9 8.0 L-4.8 6.75 -4.95 6.5 -5.95 5.0 Q-6.75 5.15 -6.85 4.35 -7.05 3.05 -7.4 1.75 L-7.5 1.55 Q-8.3 1.25 -8.25 0.3 L-8.2 -0.15 -8.3 -2.75 -8.45 -5.15 -8.1 -6.2 -7.75 -6.4 Q-7.15 -6.2 -6.9 -5.5 L-6.4 -4.2 -5.9 -3.3 -5.6 -2.95 -5.35 -2.5 Q-5.0 -1.95 -5.0 -1.25 L-4.95 -1.15 -4.85 -0.95 -2.7 1.55 Q-2.15 2.15 -2.15 3.0 L-1.0 4.3 -0.95 4.4 1.45 7.0 2.6 8.25 M-6.25 -1.4 L-6.25 -1.55 -7.15 -3.05 -7.0 -0.1 -7.0 0.25 Q-6.25 0.4 -6.3 1.2 L-6.25 1.45 -5.75 3.6 Q-5.1 3.9 -4.75 4.65 L-4.5 5.05 -3.3 6.8 -3.25 6.85 -1.95 6.9 -1.3 7.45 -0.75 7.9 -0.6 7.95 Q-0.2 7.45 0.5 7.7 L-0.45 6.65 -1.85 5.2 -2.65 4.3 -3.3 3.5 Q-3.55 3.15 -3.4 2.7 L-4.55 1.25 -5.8 -0.15 Q-6.25 -0.7 -6.25 -1.4" fill="#ffcc00" fill-rule="evenodd" stroke="none"/>
    <path d="M9.05 -10.95 L9.15 -11.1 9.9 -11.0 Q10.95 -10.8 11.4 -9.95 L11.25 -9.65 Q10.9 -8.25 11.5 -6.95 L11.85 -5.9 11.1 -5.45 10.35 -5.85 10.55 -6.35 10.5 -7.3 10.75 -8.05 10.75 -8.8 10.1 -10.0 9.05 -10.95 M9.6 -2.75 L9.1 -4.2 10.5 -3.6 10.35 -2.85 9.6 -2.75 M2.05 -9.65 L2.0 -9.55 0.95 -9.55 1.9 -9.85 1.95 -9.85 2.05 -9.8 2.05 -9.65 M-6.25 -1.4 Q-6.25 -0.7 -5.8 -0.15 L-4.55 1.25 -3.4 2.7 Q-3.55 3.15 -3.3 3.5 L-2.65 4.3 -1.85 5.2 -0.45 6.65 0.5 7.7 Q-0.2 7.45 -0.6 7.95 L-0.75 7.9 -1.3 7.45 -1.95 6.9 -3.25 6.85 -3.3 6.8 -4.5 5.05 -4.75 4.65 Q-5.1 3.9 -5.75 3.6 L-6.25 1.45 -6.3 1.2 Q-6.25 0.4 -7.0 0.25 L-7.0 -0.1 -7.15 -3.05 -6.25 -1.55 -6.25 -1.4" fill="#ffff00" fill-rule="evenodd" stroke="none"/>
  </g>
</svg>
