<?xml version="1.0" encoding="UTF-8" standalone="no"?>
<svg xmlns:ffdec="https://www.free-decompiler.com/flash" xmlns:xlink="http://www.w3.org/1999/xlink" ffdec:objectType="shape" height="19.65px" width="21.85px" xmlns="http://www.w3.org/2000/svg">
  <g transform="matrix(1.0, 0.0, 0.0, 1.0, 9.4, 11.55)">
    <path d="M8.25 -11.5 Q9.8 -11.65 11.15 -11.0 L12.35 -9.95 12.45 -9.45 Q12.45 -8.55 12.05 -7.75 L11.85 -7.15 11.55 -6.45 Q11.25 -6.0 10.7 -5.8 L10.6 -5.8 Q9.95 -5.5 9.75 -6.2 L9.7 -6.45 Q9.8 -7.3 9.25 -8.0 L8.85 -8.6 8.2 -9.85 8.2 -9.95 8.15 -10.0 8.1 -10.15 8.05 -10.2 8.05 -10.25 7.7 -10.6 Q7.5 -11.15 8.05 -11.45 L8.25 -11.5 M9.4 -10.15 L10.45 -8.4 10.75 -7.85 11.2 -9.2 11.25 -9.35 10.15 -10.1 9.4 -10.25 9.4 -10.15 M4.9 -10.0 L4.7 -9.6 4.1 -9.05 3.85 -8.0 3.6 -7.8 1.5 -8.0 -0.05 -7.9 Q-0.65 -8.0 -0.8 -8.55 L-0.7 -8.95 1.15 -10.35 2.05 -10.55 3.95 -10.7 4.2 -10.75 Q5.05 -10.75 4.9 -10.0 M2.2 -9.45 L1.75 -9.25 1.65 -9.2 2.85 -8.95 2.9 -9.2 2.9 -9.4 2.25 -9.45 2.2 -9.45 M9.05 -5.05 L11.25 -4.75 Q11.65 -4.55 11.65 -4.15 L11.45 -3.25 11.3 -2.75 Q11.2 -2.2 10.65 -2.05 9.75 -1.8 9.0 -2.35 L8.8 -2.55 8.65 -2.95 8.4 -4.1 8.4 -4.4 Q8.45 -5.0 9.05 -5.05 M10.1 -3.15 L10.35 -3.8 9.7 -3.85 9.8 -3.4 9.8 -3.35 9.9 -3.25 10.1 -3.15 M0.05 7.85 L-0.75 7.7 -1.2 7.8 -1.3 7.85 Q-2.35 8.0 -3.1 7.25 L-4.4 5.9 -5.2 5.35 -5.35 5.25 Q-6.3 4.95 -6.85 4.15 L-7.45 2.95 -8.1 0.45 -8.5 -1.05 Q-9.4 -1.4 -9.4 -2.5 -9.4 -4.05 -8.45 -5.35 L-7.2 -6.85 -7.05 -7.0 -6.7 -7.1 Q-5.8 -7.15 -5.85 -6.3 L-5.85 -6.25 Q-5.3 -5.05 -5.35 -3.75 L-5.2 -2.9 -5.15 -2.8 -3.55 -0.35 -2.75 1.05 -1.2 3.55 -0.15 4.85 1.15 6.15 1.9 6.95 Q2.45 7.7 1.65 8.05 L1.25 8.1 0.05 7.85 M-6.85 -5.4 L-6.85 -5.45 -6.85 -5.4 -8.0 -3.55 -8.05 -3.5 -8.2 -2.5 -8.15 -2.25 Q-7.35 -1.95 -7.15 -1.05 L-6.65 1.5 Q-6.4 2.7 -5.65 3.65 L-5.4 3.85 -4.45 4.3 -4.05 4.6 -3.95 4.7 -2.1 6.45 -1.2 6.5 -1.05 6.45 -0.25 6.5 -2.5 3.9 -4.0 1.3 -4.8 0.0 -5.6 -1.25 -6.35 -2.6 -6.35 -2.65 Q-6.65 -3.5 -6.55 -4.45 L-6.6 -4.65 -6.7 -5.1 -6.85 -5.4" fill="#ffcc00" fill-rule="evenodd" stroke="none"/>
    <path d="M9.4 -10.15 L9.4 -10.25 10.15 -10.1 11.25 -9.35 11.2 -9.2 10.75 -7.85 10.45 -8.4 9.4 -10.15 M2.2 -9.45 L2.25 -9.45 2.9 -9.4 2.9 -9.2 2.85 -8.95 1.65 -9.2 1.75 -9.25 2.2 -9.45 M10.1 -3.15 L9.9 -3.25 9.8 -3.35 9.8 -3.4 9.7 -3.85 10.35 -3.8 10.1 -3.15 M-6.85 -5.4 L-6.7 -5.1 -6.6 -4.65 -6.55 -4.45 Q-6.65 -3.5 -6.35 -2.65 L-6.35 -2.6 -5.6 -1.25 -4.8 0.0 -4.0 1.3 -2.5 3.9 -0.25 6.5 -1.05 6.45 -1.2 6.5 -2.1 6.45 -3.95 4.7 -4.05 4.6 -4.45 4.3 -5.4 3.85 -5.65 3.65 Q-6.4 2.7 -6.65 1.5 L-7.15 -1.05 Q-7.35 -1.95 -8.15 -2.25 L-8.2 -2.5 -8.05 -3.5 -8.0 -3.55 -6.85 -5.4" fill="#ffff00" fill-rule="evenodd" stroke="none"/>
  </g>
</svg>
