<?xml version="1.0" encoding="UTF-8" standalone="no"?>
<svg xmlns:ffdec="https://www.free-decompiler.com/flash" xmlns:xlink="http://www.w3.org/1999/xlink" ffdec:objectType="shape" height="18.85px" width="22.4px" xmlns="http://www.w3.org/2000/svg">
  <g transform="matrix(1.0, 0.0, 0.0, 1.0, 9.7, 11.65)">
    <path d="M8.45 -11.65 L11.35 -11.2 11.95 -10.85 12.65 -9.9 12.7 -9.6 Q12.8 -8.95 12.5 -8.4 L12.45 -7.65 Q12.7 -6.85 12.0 -6.5 L11.55 -6.25 11.05 -5.75 10.9 -5.6 9.95 -5.65 Q9.75 -5.8 9.8 -6.1 L9.8 -6.15 9.75 -6.25 9.7 -6.3 9.7 -6.5 9.25 -7.1 Q9.0 -7.3 9.0 -7.65 L9.0 -8.8 8.5 -9.55 7.45 -10.45 7.35 -10.85 Q7.45 -11.4 8.05 -11.55 L8.45 -11.65 M9.4 -10.45 Q10.4 -9.35 10.2 -7.9 L10.2 -7.85 10.7 -7.25 Q10.95 -7.25 11.2 -7.5 11.15 -8.45 11.5 -9.35 L11.5 -9.5 Q11.0 -10.25 10.1 -10.4 L9.4 -10.45 M6.0 -9.55 L5.8 -9.2 5.25 -8.4 5.4 -8.05 Q5.5 -7.45 4.9 -7.3 L4.15 -7.35 3.2 -7.6 Q2.45 -7.75 1.75 -8.05 L1.3 -8.1 0.35 -8.05 -0.7 -8.15 Q-1.35 -8.2 -1.25 -8.85 L-0.95 -9.35 -0.8 -9.7 -0.1 -10.15 2.2 -10.8 4.1 -10.75 4.65 -10.7 5.35 -10.6 Q6.25 -10.35 6.0 -9.55 M1.1 -9.3 L1.05 -9.25 1.85 -9.2 2.9 -8.95 3.15 -8.85 4.0 -8.65 4.2 -9.1 4.5 -9.5 2.3 -9.6 1.1 -9.3 M0.15 6.85 L-0.6 6.7 Q-0.95 7.35 -1.65 7.15 L-1.95 7.0 -3.7 5.85 Q-5.2 4.95 -6.15 3.4 -6.7 3.55 -7.15 3.15 L-7.3 2.8 -7.3 2.65 -7.6 1.65 -7.7 1.25 -8.15 -0.2 -8.3 -1.0 -8.4 -1.65 -8.45 -1.85 -8.55 -2.1 -9.3 -2.2 -9.6 -2.5 Q-9.85 -3.45 -9.4 -4.35 L-8.45 -5.75 -7.45 -6.85 -6.95 -7.35 -6.05 -8.0 -5.9 -8.05 Q-5.2 -7.85 -5.25 -7.1 L-5.3 -6.35 -5.25 -4.4 -5.2 -4.2 Q-4.95 -3.2 -4.4 -2.35 L-4.35 -2.1 -4.0 -0.85 -3.65 -0.35 Q-3.05 0.2 -2.9 0.95 L-2.25 2.35 -0.8 4.1 0.25 5.55 Q1.0 5.85 0.65 6.55 0.5 6.9 0.15 6.85 M-7.3 -5.2 L-8.45 -3.4 -7.7 -3.15 -7.4 -2.75 -7.1 -0.95 -7.0 -0.55 -6.7 0.45 -6.65 0.65 -6.35 1.6 -6.3 1.9 -6.2 2.15 -5.35 2.45 -5.15 2.75 -3.85 4.3 -3.4 4.65 -3.2 4.75 -1.55 5.85 -1.55 5.9 -1.45 5.9 -1.25 5.6 -1.2 5.55 -3.0 3.25 -3.8 2.15 -4.0 1.6 -4.1 1.05 -5.0 -0.1 -5.15 -0.4 -5.5 -1.5 Q-5.55 -2.1 -5.85 -2.6 L-6.2 -3.3 -6.4 -4.05 -6.5 -4.6 -6.5 -6.0 -7.2 -5.3 -7.3 -5.2" fill="#ffcc00" fill-rule="evenodd" stroke="none"/>
    <path d="M9.4 -10.45 L10.1 -10.4 Q11.0 -10.25 11.5 -9.5 L11.5 -9.35 Q11.15 -8.45 11.2 -7.5 10.95 -7.25 10.7 -7.25 L10.2 -7.85 10.2 -7.9 Q10.4 -9.35 9.4 -10.45 M1.1 -9.3 L2.3 -9.6 4.5 -9.5 4.2 -9.1 4.0 -8.65 3.15 -8.85 2.9 -8.95 1.85 -9.2 1.05 -9.25 1.1 -9.3 M-7.3 -5.2 L-7.2 -5.3 -6.5 -6.0 -6.5 -4.6 -6.4 -4.05 -6.2 -3.3 -5.85 -2.6 Q-5.55 -2.1 -5.5 -1.5 L-5.15 -0.4 -5.0 -0.1 -4.1 1.05 -4.0 1.6 -3.8 2.15 -3.0 3.25 -1.2 5.55 -1.25 5.6 -1.45 5.9 -1.55 5.9 -1.55 5.85 -3.2 4.75 -3.4 4.65 -3.85 4.3 -5.15 2.75 -5.35 2.45 -6.2 2.15 -6.3 1.9 -6.35 1.6 -6.65 0.65 -6.7 0.45 -7.0 -0.55 -7.1 -0.95 -7.4 -2.75 -7.7 -3.15 -8.45 -3.4 -7.3 -5.2" fill="#ffff00" fill-rule="evenodd" stroke="none"/>
  </g>
</svg>
