<?xml version="1.0" encoding="UTF-8" standalone="no"?>
<svg xmlns:ffdec="https://www.free-decompiler.com/flash" xmlns:xlink="http://www.w3.org/1999/xlink" ffdec:objectType="shape" height="17.65px" width="21.7px" xmlns="http://www.w3.org/2000/svg">
  <g transform="matrix(1.0, 0.0, 0.0, 1.0, 9.15, 11.0)">
    <path d="M8.0 -10.4 Q8.0 -10.75 8.35 -10.85 L8.95 -11.0 11.5 -10.8 11.6 -10.8 Q12.25 -10.65 12.45 -10.15 L12.55 -9.7 12.15 -8.65 12.05 -8.45 11.8 -7.65 11.75 -7.35 Q11.6 -6.95 11.2 -6.9 L10.9 -6.65 Q10.35 -6.45 10.1 -7.0 L10.0 -7.35 10.0 -7.4 9.95 -7.5 9.9 -7.55 9.9 -7.65 9.9 -7.7 9.85 -8.0 9.35 -8.65 8.35 -9.55 Q8.0 -9.95 8.0 -10.4 M7.45 -9.4 L7.2 -9.0 6.25 -7.95 5.0 -7.1 4.2 -7.1 3.0 -7.5 1.8 -7.8 1.2 -7.95 0.55 -8.15 -0.7 -8.3 -1.1 -8.55 Q-1.4 -9.15 -0.8 -9.45 L0.1 -9.8 0.55 -9.95 3.55 -10.05 3.7 -10.05 5.7 -10.05 6.15 -10.1 6.9 -10.25 Q7.65 -10.1 7.45 -9.4 M5.35 -8.8 L2.7 -8.85 3.0 -8.7 3.0 -8.65 4.6 -8.3 4.8 -8.3 5.25 -8.65 5.35 -8.8 M11.25 -9.6 L10.0 -9.75 Q10.6 -9.35 10.8 -8.75 L10.85 -8.7 11.15 -9.35 11.25 -9.6 M-5.9 -8.0 Q-5.05 -7.8 -5.3 -7.0 L-5.35 -6.05 -5.35 -5.9 Q-5.05 -5.3 -5.1 -4.6 L-5.0 -3.4 -4.8 -2.9 -4.7 -2.65 -4.0 -1.35 -3.55 -0.5 Q-3.3 -0.1 -3.35 0.35 -2.9 0.95 -2.8 1.65 -2.7 2.5 -2.25 3.15 L-0.15 5.25 Q0.15 5.5 0.05 5.9 L-0.15 6.3 -0.35 6.55 -0.4 6.6 -0.7 6.65 -1.7 6.4 -2.3 6.0 -4.9 4.5 -5.95 3.7 -6.1 3.45 -6.1 3.4 -6.25 3.35 -6.55 2.75 Q-7.45 2.65 -7.7 1.65 L-8.3 -0.85 -8.45 -1.7 -8.5 -2.05 -8.9 -2.5 -9.05 -2.65 -9.05 -3.8 -8.9 -4.25 -8.3 -5.65 -7.4 -6.7 -6.7 -7.45 -5.9 -8.0 M-6.25 -4.4 L-6.5 -5.7 -6.55 -5.9 -7.65 -4.3 -7.8 -3.6 -7.85 -3.4 Q-7.3 -2.7 -7.2 -1.8 L-7.15 -1.5 -6.95 -0.3 -6.55 1.2 -6.45 1.5 Q-5.65 1.6 -5.3 2.45 L-5.1 2.9 -4.2 3.45 -3.9 3.8 -2.85 4.35 -3.5 3.4 -3.9 2.25 Q-4.0 1.55 -4.45 1.05 L-4.8 0.6 Q-5.0 0.2 -4.7 -0.15 L-5.85 -2.25 -5.9 -2.35 Q-6.35 -3.2 -6.35 -4.15 L-6.25 -4.4" fill="#ffcc00" fill-rule="evenodd" stroke="none"/>
    <path d="M11.25 -9.6 L11.15 -9.35 10.85 -8.7 10.8 -8.75 Q10.6 -9.35 10.0 -9.75 L11.25 -9.6 M5.35 -8.8 L5.25 -8.65 4.8 -8.3 4.6 -8.3 3.0 -8.65 3.0 -8.7 2.7 -8.85 5.35 -8.8 M-6.25 -4.4 L-6.35 -4.15 Q-6.35 -3.2 -5.9 -2.35 L-5.85 -2.25 -4.7 -0.15 Q-5.0 0.2 -4.8 0.6 L-4.45 1.05 Q-4.0 1.55 -3.9 2.25 L-3.5 3.4 -2.85 4.35 -3.9 3.8 -4.2 3.45 -5.1 2.9 -5.3 2.45 Q-5.65 1.6 -6.45 1.5 L-6.55 1.2 -6.95 -0.3 -7.15 -1.5 -7.2 -1.8 Q-7.3 -2.7 -7.85 -3.4 L-7.8 -3.6 -7.65 -4.3 -6.55 -5.9 -6.5 -5.7 -6.25 -4.4" fill="#ffff00" fill-rule="evenodd" stroke="none"/>
  </g>
</svg>
