<?xml version="1.0" encoding="UTF-8" standalone="no"?>
<svg xmlns:ffdec="https://www.free-decompiler.com/flash" xmlns:xlink="http://www.w3.org/1999/xlink" ffdec:objectType="shape" height="13.85px" width="20.1px" xmlns="http://www.w3.org/2000/svg">
  <g transform="matrix(1.0, 0.0, 0.0, 1.0, 9.05, 10.65)">
    <path d="M8.3 -10.15 L10.5 -10.1 11.05 -9.65 Q11.1 -9.15 10.7 -8.75 10.15 -8.2 9.45 -7.95 L7.25 -7.45 6.5 -7.35 4.75 -6.95 4.4 -7.0 2.7 -7.75 1.9 -8.0 0.5 -8.4 Q0.05 -8.5 -0.35 -8.7 L-0.5 -8.95 -0.55 -9.0 -0.75 -9.5 Q-0.7 -10.1 -0.1 -10.2 L0.25 -10.25 2.15 -10.5 3.05 -10.6 5.4 -10.45 8.3 -10.15 M5.1 -9.3 L3.0 -9.4 2.15 -9.3 1.8 -9.25 3.9 -8.55 Q4.25 -8.35 4.65 -8.25 L5.65 -8.35 7.0 -8.65 7.85 -8.75 8.4 -8.9 5.5 -9.25 5.1 -9.3 M-3.75 -7.85 L-3.95 -7.3 -4.15 -6.95 -4.6 -5.9 -4.75 -5.35 Q-4.75 -4.4 -4.9 -3.5 L-4.85 -3.1 -4.8 -2.8 Q-4.9 -1.65 -4.25 -0.75 L-3.95 -0.25 -3.0 1.4 -2.3 2.35 -2.3 2.7 Q-2.35 3.1 -2.75 3.15 L-3.5 3.0 Q-3.6 2.85 -3.8 2.8 L-4.15 2.6 -4.3 2.45 -5.2 1.9 -6.35 2.05 Q-6.8 2.15 -7.05 1.8 L-7.2 1.45 -7.55 0.55 -7.6 -0.05 -7.9 -1.05 -7.95 -1.65 -8.15 -2.35 -8.8 -2.5 -9.0 -2.8 -8.9 -3.8 -8.6 -5.0 Q-8.45 -5.75 -7.95 -6.35 L-7.75 -6.6 Q-7.1 -7.45 -6.1 -7.8 L-5.6 -8.05 -4.25 -8.7 Q-3.55 -8.55 -3.75 -7.85 M-4.75 0.75 L-5.05 0.3 -5.2 -0.05 Q-5.95 -1.05 -6.0 -2.3 L-6.1 -3.5 -6.0 -4.25 -5.85 -5.9 -5.8 -6.35 -5.8 -6.6 Q-7.0 -6.05 -7.45 -4.75 L-7.45 -4.7 -7.5 -4.2 -7.7 -3.75 Q-7.0 -3.5 -6.95 -2.7 L-6.85 -2.05 -6.25 0.65 -6.2 0.7 -6.15 0.8 -6.1 0.8 -4.8 0.75 -4.75 0.75" fill="#ffcc00" fill-rule="evenodd" stroke="none"/>
    <path d="M5.1 -9.3 L5.5 -9.25 8.4 -8.9 7.85 -8.75 7.0 -8.65 5.65 -8.35 4.65 -8.25 Q4.25 -8.35 3.9 -8.55 L1.8 -9.25 2.15 -9.3 3.0 -9.4 5.1 -9.3 M-4.8 0.75 L-6.1 0.8 -6.15 0.8 -6.2 0.7 -6.25 0.65 -6.85 -2.05 -6.95 -2.7 Q-7.0 -3.5 -7.7 -3.75 L-7.5 -4.2 -7.45 -4.7 -7.45 -4.75 Q-7.0 -6.05 -5.8 -6.6 L-5.8 -6.35 -5.85 -5.9 -6.0 -4.25 -6.1 -3.5 -6.0 -2.3 Q-5.95 -1.05 -5.2 -0.05 L-5.05 0.3 -4.75 0.75 -4.8 0.75" fill="#ffff00" fill-rule="evenodd" stroke="none"/>
  </g>
</svg>
