<?xml version="1.0" encoding="UTF-8" standalone="no"?>
<svg xmlns:ffdec="https://www.free-decompiler.com/flash" xmlns:xlink="http://www.w3.org/1999/xlink" ffdec:objectType="shape" height="19.05px" width="21.55px" xmlns="http://www.w3.org/2000/svg">
  <g transform="matrix(1.0, 0.0, 0.0, 1.0, 9.4, 11.0)">
    <path d="M8.8 -6.75 L5.75 -6.7 Q4.9 -6.7 4.15 -7.1 2.85 -7.75 1.6 -8.5 L1.1 -8.8 Q0.45 -9.2 0.95 -9.75 1.05 -9.95 1.3 -9.95 L1.5 -9.95 Q2.0 -10.5 2.8 -10.5 L4.3 -10.4 6.9 -10.15 9.8 -10.3 10.2 -10.5 11.45 -11.0 Q12.15 -10.85 12.15 -10.15 L12.15 -9.25 Q12.05 -8.2 11.25 -7.55 L10.85 -7.25 Q10.0 -6.65 8.95 -6.7 L8.8 -6.75 M10.9 -9.45 Q9.95 -8.9 8.8 -8.9 L5.9 -9.05 5.6 -9.1 2.8 -9.2 4.25 -8.45 4.7 -8.15 Q5.15 -7.85 5.7 -7.9 L5.9 -7.9 9.7 -8.05 Q10.1 -8.15 10.35 -8.45 L10.45 -8.55 10.95 -9.4 10.95 -9.45 10.9 -9.45 M-3.5 -8.25 L-3.75 -7.6 -3.85 -7.55 -5.15 -5.5 -5.1 -3.2 -5.0 -2.5 -5.0 -2.05 -4.85 -1.75 -4.8 -1.45 Q-4.5 -0.75 -5.15 -0.45 L-5.55 -0.5 -6.25 -1.2 Q-6.65 -2.0 -7.45 -2.45 L-7.75 -2.6 Q-8.35 -3.05 -9.1 -3.25 L-9.25 -3.4 Q-9.5 -4.05 -8.95 -4.6 L-8.8 -4.85 -8.45 -5.35 -8.25 -5.9 -8.3 -6.0 -8.3 -6.1 Q-8.8 -6.6 -8.4 -7.25 L-8.0 -7.75 -6.65 -8.45 -5.9 -8.65 -4.3 -8.9 Q-3.55 -8.95 -3.5 -8.25 M-6.3 -3.25 L-6.4 -5.2 -6.25 -6.0 -5.5 -7.25 -5.45 -7.35 -5.35 -7.5 -5.5 -7.5 Q-6.4 -7.35 -7.15 -6.8 L-7.2 -6.75 Q-6.85 -5.8 -7.4 -4.9 L-7.8 -4.15 -6.35 -3.25 -6.3 -3.2 -6.3 -3.25 M-9.4 4.95 L-9.25 3.95 -8.85 3.55 -8.6 3.45 -7.1 3.95 -6.85 4.05 Q-5.95 4.05 -5.3 4.5 L-5.2 4.65 -5.1 5.75 -5.05 5.9 Q-4.85 6.6 -5.15 7.2 -5.1 8.15 -6.05 8.05 L-6.75 7.8 Q-7.25 7.45 -7.85 7.2 -8.9 6.75 -9.3 5.75 L-9.4 4.95 M-6.6 6.15 L-6.6 5.8 -6.6 5.65 -6.65 5.55 -7.85 5.3 Q-7.4 5.85 -6.7 6.1 L-6.6 6.15" fill="#ffcc00" fill-rule="evenodd" stroke="none"/>
    <path d="M10.95 -9.4 L10.45 -8.55 10.35 -8.45 Q10.1 -8.15 9.7 -8.05 L5.9 -7.9 5.7 -7.9 Q5.15 -7.85 4.7 -8.15 L4.25 -8.45 2.8 -9.2 5.6 -9.1 5.9 -9.05 8.8 -8.9 Q9.95 -8.9 10.9 -9.45 L10.95 -9.4 M-6.35 -3.25 L-7.8 -4.15 -7.4 -4.9 Q-6.85 -5.8 -7.2 -6.75 L-7.15 -6.8 Q-6.4 -7.35 -5.5 -7.5 L-5.35 -7.5 -5.45 -7.35 -5.5 -7.25 -6.25 -6.0 -6.4 -5.2 -6.3 -3.25 -6.35 -3.25 M-6.6 6.15 L-6.7 6.1 Q-7.4 5.85 -7.85 5.3 L-6.65 5.55 -6.6 5.65 -6.6 5.8 -6.6 6.15" fill="#ffff00" fill-rule="evenodd" stroke="none"/>
  </g>
</svg>
