<?xml version="1.0" encoding="UTF-8" standalone="no"?>
<svg xmlns:ffdec="https://www.free-decompiler.com/flash" xmlns:xlink="http://www.w3.org/1999/xlink" ffdec:objectType="shape" height="18.95px" width="22.95px" xmlns="http://www.w3.org/2000/svg">
  <g transform="matrix(1.0, 0.0, 0.0, 1.0, 9.15, 11.4)">
    <path d="M5.9 -9.55 L9.75 -10.0 Q10.1 -10.05 10.3 -10.35 L10.4 -10.5 10.55 -10.8 Q10.55 -11.1 10.8 -11.25 L11.15 -11.4 12.55 -10.65 Q12.85 -10.45 13.25 -10.3 13.9 -10.05 13.75 -9.4 13.55 -8.75 13.05 -8.35 11.85 -7.5 10.45 -7.05 L8.45 -6.7 8.1 -6.7 6.1 -6.75 Q5.55 -6.75 5.1 -7.0 L4.85 -7.35 Q4.8 -7.95 5.25 -8.4 L5.45 -8.55 Q5.1 -9.25 5.75 -9.55 L5.9 -9.55 M6.7 -8.4 L6.6 -8.05 6.55 -7.9 Q7.45 -7.7 8.45 -7.9 L9.6 -8.05 10.0 -8.15 Q11.2 -8.5 12.15 -9.25 L12.35 -9.4 11.45 -9.9 10.55 -9.0 10.2 -8.85 7.55 -8.45 6.7 -8.4 M-4.4 -7.2 Q-4.25 -6.65 -4.55 -6.15 L-4.75 -5.45 -4.95 -4.75 -5.25 -3.65 -5.45 -3.25 -5.6 -3.1 -6.65 -3.15 -7.35 -3.75 -8.85 -5.15 -8.95 -5.4 Q-9.0 -5.85 -8.65 -6.15 L-8.65 -6.45 -8.7 -6.8 -8.8 -7.65 Q-8.7 -8.3 -8.1 -8.45 L-7.15 -8.05 -7.0 -8.0 -4.95 -7.75 Q-4.5 -7.65 -4.4 -7.2 M-7.5 -6.85 Q-7.4 -6.2 -7.55 -5.6 L-7.55 -5.55 -7.25 -5.25 -6.3 -4.5 -5.8 -6.4 -5.7 -6.65 -7.5 -6.85 M-4.0 4.45 Q-3.95 4.9 -4.2 5.25 L-4.85 6.4 Q-5.15 7.3 -6.05 7.45 L-6.2 7.45 Q-7.05 7.7 -7.8 7.2 L-8.6 6.6 Q-9.15 6.0 -9.15 5.2 L-9.0 4.3 -8.6 3.8 -8.1 3.6 -5.8 3.75 -4.6 3.9 Q-4.1 3.95 -4.0 4.45 M-6.05 5.35 L-7.6 5.1 Q-7.6 5.55 -7.15 5.8 L-6.75 6.05 -6.3 5.9 -6.1 5.4 -6.05 5.35" fill="#ffcc00" fill-rule="evenodd" stroke="none"/>
    <path d="M6.7 -8.4 L7.55 -8.45 10.2 -8.85 10.55 -9.0 11.45 -9.9 12.35 -9.4 12.15 -9.25 Q11.2 -8.5 10.0 -8.15 L9.6 -8.05 8.45 -7.9 Q7.45 -7.7 6.55 -7.9 L6.6 -8.05 6.7 -8.4 M-7.5 -6.85 L-5.7 -6.65 -5.8 -6.4 -6.3 -4.5 -7.25 -5.25 -7.55 -5.55 -7.55 -5.6 Q-7.4 -6.2 -7.5 -6.85 M-6.05 5.35 L-6.1 5.4 -6.3 5.9 -6.75 6.05 -7.15 5.8 Q-7.6 5.55 -7.6 5.1 L-6.05 5.35" fill="#ffff00" fill-rule="evenodd" stroke="none"/>
  </g>
</svg>
