<?xml version="1.0" encoding="UTF-8" standalone="no"?>
<svg xmlns:ffdec="https://www.free-decompiler.com/flash" xmlns:xlink="http://www.w3.org/1999/xlink" ffdec:objectType="shape" height="19.35px" width="23.85px" xmlns="http://www.w3.org/2000/svg">
  <g transform="matrix(1.0, 0.0, 0.0, 1.0, 9.3, 11.8)">
    <path d="M9.45 -9.65 L10.65 -9.7 10.7 -9.7 10.7 -9.8 10.7 -10.0 10.15 -10.9 10.05 -11.15 Q10.1 -11.75 10.65 -11.8 L12.7 -11.05 13.05 -10.85 13.9 -10.4 14.4 -9.8 14.5 -9.55 14.55 -9.15 14.45 -8.8 Q14.35 -8.3 13.9 -8.05 12.65 -7.2 11.2 -6.85 L8.2 -6.4 7.9 -6.45 7.1 -7.0 Q6.6 -7.6 7.15 -8.1 L7.45 -8.25 Q7.95 -8.4 8.45 -8.7 L8.1 -9.2 Q8.0 -9.35 8.05 -9.5 8.25 -10.1 8.9 -9.9 L9.45 -9.65 M9.15 -7.65 L10.95 -8.05 11.35 -8.15 12.8 -8.8 13.1 -9.0 13.25 -9.15 12.75 -9.7 11.9 -10.1 Q12.05 -9.25 11.45 -8.75 L10.75 -8.45 9.8 -8.45 Q9.65 -7.95 9.15 -7.65 M-3.35 -8.25 L-3.1 -8.05 Q-2.85 -7.55 -3.2 -7.1 L-4.4 -6.0 -5.3 -5.15 -5.7 -4.55 -5.85 -4.35 Q-6.05 -3.7 -6.75 -4.0 L-6.9 -4.15 Q-7.9 -4.55 -8.25 -5.6 L-8.3 -6.05 Q-8.25 -6.6 -8.55 -7.1 L-8.8 -7.65 -8.75 -8.6 -8.4 -8.85 -7.4 -8.85 -5.85 -9.55 -5.75 -9.6 Q-4.95 -9.45 -4.95 -8.55 L-4.95 -8.5 -3.35 -8.25 M-7.1 -7.65 L-7.4 -7.6 Q-7.05 -6.8 -7.05 -5.9 L-6.9 -5.6 -6.65 -5.4 -5.35 -6.8 -4.75 -7.25 Q-5.8 -7.1 -6.05 -8.05 L-6.15 -8.1 Q-6.6 -7.75 -7.1 -7.65 M-2.5 5.15 Q-2.5 5.45 -2.8 5.55 L-4.0 6.4 Q-3.9 7.0 -4.3 7.4 L-4.6 7.5 -7.4 7.5 -7.8 7.35 -8.1 7.0 -8.8 5.8 -9.25 4.75 -9.25 4.0 Q-9.1 3.65 -8.7 3.6 L-5.75 4.1 -3.45 4.25 -3.2 4.25 Q-2.35 4.4 -2.5 5.15 M-7.4 5.95 L-6.95 6.35 -5.2 6.3 Q-5.2 5.75 -4.75 5.45 L-7.85 5.05 -7.45 5.9 -7.4 5.95" fill="#ffcc00" fill-rule="evenodd" stroke="none"/>
    <path d="M9.15 -7.65 Q9.65 -7.95 9.8 -8.45 L10.75 -8.45 11.45 -8.75 Q12.05 -9.25 11.9 -10.1 L12.75 -9.7 13.25 -9.15 13.1 -9.0 12.8 -8.8 11.35 -8.15 10.95 -8.05 9.15 -7.65 M-7.1 -7.65 Q-6.6 -7.75 -6.15 -8.1 L-6.05 -8.05 Q-5.8 -7.1 -4.75 -7.25 L-5.35 -6.8 -6.65 -5.4 -6.9 -5.6 -7.05 -5.9 Q-7.05 -6.8 -7.4 -7.6 L-7.1 -7.65 M-7.4 5.95 L-7.45 5.9 -7.85 5.05 -4.75 5.45 Q-5.2 5.75 -5.2 6.3 L-6.95 6.35 -7.4 5.95" fill="#ffff00" fill-rule="evenodd" stroke="none"/>
  </g>
</svg>
