<?xml version="1.0" encoding="UTF-8" standalone="no"?>
<svg xmlns:ffdec="https://www.free-decompiler.com/flash" xmlns:xlink="http://www.w3.org/1999/xlink" ffdec:objectType="shape" height="19.45px" width="23.15px" xmlns="http://www.w3.org/2000/svg">
  <g transform="matrix(1.0, 0.0, 0.0, 1.0, 8.65, 11.45)">
    <path d="M14.4 -10.55 L14.5 -9.65 Q14.4 -9.0 13.85 -8.55 L12.65 -7.75 12.15 -7.6 12.0 -7.55 Q11.3 -7.45 11.3 -8.15 L11.3 -8.7 Q11.4 -9.4 10.95 -9.95 L10.75 -10.15 Q10.3 -10.8 10.95 -11.2 L11.15 -11.3 13.7 -11.05 Q14.25 -11.05 14.4 -10.55 M13.3 -9.85 L12.4 -9.9 12.5 -9.3 12.5 -9.25 12.75 -9.3 13.3 -9.85 M-2.05 -10.15 Q-1.65 -9.65 -1.85 -9.1 L-1.85 -8.5 Q-1.65 -8.1 -2.0 -7.8 -2.35 -7.45 -2.85 -7.45 L-4.65 -6.15 -5.0 -5.7 -5.3 -4.9 -5.45 -4.6 -5.95 -4.1 Q-6.5 -3.7 -6.8 -4.3 L-6.95 -5.0 -7.0 -7.2 Q-7.15 -8.4 -6.6 -9.45 L-5.85 -11.05 Q-5.65 -11.4 -5.25 -11.45 -4.5 -11.3 -4.55 -10.5 L-4.55 -10.35 -4.5 -10.3 -2.15 -10.2 -2.05 -10.15 M-5.75 -6.7 Q-5.15 -7.7 -4.05 -8.2 L-3.1 -8.6 -3.1 -9.0 -3.1 -9.1 -5.0 -9.15 -5.3 -9.25 -5.35 -9.25 Q-6.05 -8.1 -5.8 -6.75 L-5.8 -6.7 -5.75 -6.7 M-0.75 4.5 Q0.1 4.5 0.1 5.3 L-0.15 5.95 Q-0.35 6.6 -0.95 7.05 L-1.0 7.05 -1.05 7.1 Q-1.95 7.9 -3.15 7.85 L-6.4 8.0 -6.9 7.85 -8.15 6.35 -8.25 6.1 -8.5 5.6 -8.65 4.75 Q-8.6 4.1 -7.95 4.05 L-6.35 4.3 -5.15 4.5 -4.95 4.5 -0.95 4.5 -0.75 4.5 M-5.4 6.0 L-6.7 5.8 -6.25 6.4 -6.2 6.45 -2.4 6.2 -2.15 6.05 -5.1 6.0 -5.4 6.0" fill="#ffcc00" fill-rule="evenodd" stroke="none"/>
    <path d="M13.3 -9.85 L12.75 -9.3 12.5 -9.25 12.5 -9.3 12.4 -9.9 13.3 -9.85 M-5.8 -6.75 Q-6.05 -8.1 -5.35 -9.25 L-5.3 -9.25 -5.0 -9.15 -3.1 -9.1 -3.1 -9.0 -3.1 -8.6 -4.05 -8.2 Q-5.15 -7.7 -5.75 -6.7 L-5.8 -6.75 M-5.4 6.0 L-5.1 6.0 -2.15 6.05 -2.4 6.2 -6.2 6.45 -6.25 6.4 -6.7 5.8 -5.4 6.0" fill="#ffff00" fill-rule="evenodd" stroke="none"/>
  </g>
</svg>
