<?xml version="1.0" encoding="UTF-8" standalone="no"?>
<svg xmlns:ffdec="https://www.free-decompiler.com/flash" xmlns:xlink="http://www.w3.org/1999/xlink" ffdec:objectType="shape" height="20.3px" width="23.35px" xmlns="http://www.w3.org/2000/svg">
  <g transform="matrix(1.0, 0.0, 0.0, 1.0, 9.0, 12.1)">
    <path d="M0.55 -10.15 Q0.6 -9.45 -0.1 -9.3 -1.3 -8.95 -2.0 -7.9 L-2.2 -7.75 Q-3.55 -7.0 -4.6 -5.9 -4.85 -5.6 -5.2 -5.4 L-5.5 -5.35 Q-6.4 -5.25 -6.3 -6.1 L-6.25 -7.4 -6.05 -8.85 -5.95 -9.25 Q-5.25 -10.85 -3.8 -11.85 L-3.25 -12.1 Q-2.45 -11.95 -2.6 -11.1 L-2.6 -11.05 -0.4 -10.8 0.35 -10.5 0.55 -10.15 M14.35 -10.3 Q14.4 -9.65 13.8 -9.3 L13.1 -8.6 12.05 -7.6 11.75 -7.5 Q11.25 -7.55 10.95 -7.95 10.85 -8.1 10.9 -8.3 L11.05 -9.0 10.95 -9.95 10.65 -10.55 Q10.5 -10.7 10.5 -10.95 10.6 -11.45 11.1 -11.5 L13.95 -10.8 Q14.35 -10.7 14.35 -10.3 M12.25 -9.45 L12.65 -9.9 12.2 -9.95 12.25 -9.45 M-3.75 -10.35 Q-4.9 -9.3 -5.0 -7.75 L-5.0 -7.2 -2.75 -8.9 -1.9 -9.8 -3.05 -9.85 -3.55 -10.15 -3.75 -10.35 M-0.35 5.7 L-4.2 5.8 -5.1 5.7 -7.5 5.55 -6.65 6.2 -6.4 6.45 -6.1 6.8 -5.6 6.9 -3.55 6.95 -1.3 7.05 -0.55 5.95 -0.35 5.7 M-0.15 4.5 L1.1 4.05 1.2 4.0 Q1.75 3.9 2.1 4.3 2.3 4.55 2.15 4.85 1.95 5.15 1.55 5.3 L1.45 5.35 0.0 7.2 Q0.3 8.0 -0.5 8.1 L-3.8 8.2 -6.7 7.85 -7.3 7.45 -7.45 7.15 -7.6 7.0 -7.7 6.9 Q-8.95 6.3 -9.0 4.95 -9.0 4.35 -8.4 4.3 L-6.8 4.35 -6.0 4.45 -1.2 4.65 -1.0 4.6 -0.3 4.5 -0.15 4.5" fill="#ffcc00" fill-rule="evenodd" stroke="none"/>
    <path d="M-0.35 5.7 L-0.55 5.95 -1.3 7.05 -3.55 6.95 -5.6 6.9 -6.1 6.8 -6.4 6.45 -6.65 6.2 -7.5 5.55 -5.1 5.7 -4.2 5.8 -0.35 5.7 M-3.75 -10.35 L-3.55 -10.15 -3.05 -9.85 -1.9 -9.8 -2.75 -8.9 -5.0 -7.2 -5.0 -7.75 Q-4.9 -9.3 -3.75 -10.35 M12.25 -9.45 L12.2 -9.95 12.65 -9.9 12.25 -9.45" fill="#ffff00" fill-rule="evenodd" stroke="none"/>
  </g>
</svg>
