<?xml version="1.0" encoding="UTF-8" standalone="no"?>
<svg xmlns:ffdec="https://www.free-decompiler.com/flash" xmlns:xlink="http://www.w3.org/1999/xlink" ffdec:objectType="shape" height="130.15px" width="649.95px" xmlns="http://www.w3.org/2000/svg">
  <g transform="matrix(1.0, 0.0, 0.0, 1.0, 325.0, 66.05)">
    <path d="M-38.0 -29.05 L-38.0 -27.55 5.0 -27.55 5.0 -29.05 6.95 -29.05 6.95 -12.05 6.95 -29.05 17.5 -29.05 17.5 -23.55 17.5 -23.05 71.5 -23.05 71.5 -23.55 71.5 -29.05 324.95 -29.05 324.95 12.95 150.95 12.95 150.95 12.45 130.0 12.45 130.0 12.95 128.0 12.95 128.0 -1.05 128.0 12.95 126.0 12.95 126.0 11.95 110.1 11.95 108.25 12.95 65.95 12.95 65.95 5.95 65.95 12.95 -31.0 12.95 -31.0 1.95 -31.0 -1.05 -31.0 -12.05 -31.0 -15.05 -54.05 -15.05 -60.0 -15.05 -60.0 -12.05 -60.0 -1.05 -60.0 1.95 -60.0 12.95 -187.0 12.95 -325.0 12.95 -325.0 -29.05 -182.3 -29.05 -179.4 -28.25 -164.0 -28.25 -164.0 -22.55 -163.0 -22.55 -163.0 -22.05 -163.0 -19.05 -163.0 -18.55 -146.0 -18.55 -146.0 -19.05 -146.0 -22.05 -146.0 -22.55 -146.0 -29.05 -124.0 -29.05 -124.0 -20.05 -124.0 -19.05 -146.0 -19.05 -124.0 -19.05 -124.0 -12.55 -124.0 -11.55 -95.5 -11.55 -95.5 -12.55 -95.5 -19.05 -95.5 -20.05 -95.5 -29.05 -38.0 -29.05 M-82.05 -19.05 L-95.5 -19.05 -82.05 -19.05 -54.05 -19.05 -52.0 -19.05 -54.05 -19.05 -82.05 -19.05 M159.95 -11.05 L131.95 -11.05 159.95 -11.05 M128.0 -1.05 L2.95 -1.05 128.0 -1.05 M131.95 -11.05 L8.95 -11.05 131.95 -11.05 M253.95 -6.05 L150.95 -6.05 253.95 -6.05 M2.95 4.95 L63.95 4.95 2.95 4.95 -19.05 4.95 2.95 4.95 M-230.0 7.95 L-187.0 7.95 -187.0 12.95 -187.0 7.95 -230.0 7.95 M-286.0 -19.05 L-163.0 -19.05 -286.0 -19.05 M-160.0 -1.05 L-82.05 -1.05 -160.0 -1.05 M-54.05 -19.05 L-54.05 -15.05 -54.05 -19.05 M-82.05 -1.05 L-60.0 -1.05 -82.05 -1.05 M-20.05 -21.05 L-20.05 -2.05 -20.05 -21.05 M-4.05 -23.05 L-20.05 -23.05 -4.05 -23.05 M-94.05 7.95 L-187.0 7.95 -187.0 -6.05 -187.0 7.95 -94.05 7.95 M2.95 -1.05 L-31.0 -1.05 2.95 -1.05" fill="url(#gradient0)" fill-rule="evenodd" stroke="none"/>
    <path d="M5.0 -29.05 L5.0 -27.55 -38.0 -27.55 -38.0 -29.05 -38.0 -63.55 5.0 -63.55 5.0 -29.05" fill="url(#gradient1)" fill-rule="evenodd" stroke="none"/>
    <path d="M17.5 -29.05 L17.5 -29.55 71.5 -29.55 71.5 -29.05 71.5 -23.55 17.5 -23.55 17.5 -29.05" fill="url(#gradient2)" fill-rule="evenodd" stroke="none"/>
    <path d="M150.95 12.95 L150.95 35.45 130.0 35.45 130.0 12.95 130.0 12.45 150.95 12.45 150.95 12.95" fill="url(#gradient3)" fill-rule="evenodd" stroke="none"/>
    <path d="M126.0 12.95 L126.0 20.95 45.95 64.1 38.6 50.5 108.25 12.95 110.1 11.95 126.0 11.95 126.0 12.95" fill="url(#gradient4)" fill-rule="evenodd" stroke="none"/>
    <path d="M-31.0 15.45 L64.5 15.45 64.5 21.45 -31.0 21.45 -31.0 18.45 -31.0 15.95 -31.0 15.45 M-60.0 21.45 L-127.0 21.45 -127.0 15.45 -60.0 15.45 -60.0 15.95 -60.0 18.45 -60.0 21.45" fill="url(#gradient5)" fill-rule="evenodd" stroke="none"/>
    <path d="M-182.3 -29.05 L-250.9 -48.1 -250.0 -48.95 -221.4 -48.95 -163.5 -32.9 -163.5 -32.55 -164.0 -32.55 -164.0 -28.25 -179.4 -28.25 -182.3 -29.05" fill="url(#gradient6)" fill-rule="evenodd" stroke="none"/>
    <path d="M-163.5 -32.55 L-147.0 -32.55 -147.0 -22.55 -163.0 -22.55 -164.0 -22.55 -164.0 -28.25 -164.0 -32.55 -163.5 -32.55" fill="url(#gradient7)" fill-rule="evenodd" stroke="none"/>
    <path d="M-147.0 -22.55 L-146.0 -22.55 -146.0 -22.05 -163.0 -22.05 -163.0 -22.55 -147.0 -22.55" fill="url(#gradient8)" fill-rule="evenodd" stroke="none"/>
    <path d="M-95.5 -29.05 L-95.5 -20.05 -95.5 -19.05 -95.5 -12.55 -124.0 -12.55 -124.0 -19.05 -124.0 -20.05 -124.0 -29.05 -124.0 -30.05 -95.5 -30.05 -95.5 -29.05 M-95.5 -20.05 L-124.0 -20.05 -95.5 -20.05" fill="url(#gradient9)" fill-rule="evenodd" stroke="none"/>
    <path d="M-31.0 15.45 L-31.0 15.95 -60.0 15.95 -60.0 15.45 -60.0 12.95 -60.0 1.95 -60.0 -1.05 -60.0 -12.05 -54.05 -12.05 -31.0 -12.05 -31.0 -1.05 -31.0 1.95 -60.0 1.95 -31.0 1.95 -31.0 12.95 -31.0 15.45 M-54.05 -8.05 L-54.05 -12.05 -54.05 -8.05" fill="url(#gradient10)" fill-rule="evenodd" stroke="none"/>
    <path d="M-31.0 18.45 L-31.0 21.45 -31.0 24.45 -60.0 24.45 -60.0 21.45 -60.0 18.45 -31.0 18.45" fill="url(#gradient11)" fill-rule="evenodd" stroke="none"/>
    <path d="M6.95 -29.05 L6.95 -12.05 M6.95 -29.05 L6.95 -64.05 M8.95 -11.05 L131.95 -11.05 M2.95 -1.05 L128.0 -1.05 M65.95 12.95 L65.95 18.95 M65.95 5.95 L65.95 12.95 M63.95 4.95 L2.95 4.95" fill="none" stroke="#009900" stroke-linecap="round" stroke-linejoin="round" stroke-width="4.0"/>
    <path d="M131.95 -11.05 L159.95 -11.05 M150.95 -6.05 L253.95 -6.05" fill="none" stroke="#00cc00" stroke-linecap="round" stroke-linejoin="round" stroke-width="4.0"/>
    <path d="M128.0 12.95 L128.0 34.95 M128.0 -1.05 L128.0 12.95" fill="none" stroke="#009900" stroke-linecap="round" stroke-linejoin="round" stroke-width="4.0"/>
    <path d="M-95.5 -19.05 L-82.05 -19.05 M-187.0 12.95 L-187.0 19.95 M-147.0 -22.55 L-146.0 -22.55 M-163.0 -22.55 L-147.0 -22.55 M-187.0 12.95 L-187.0 7.95 -230.0 7.95 M-163.0 -19.05 L-286.0 -19.05 M-146.0 -19.05 L-124.0 -19.05 M-82.05 -1.05 L-160.0 -1.05 M-124.0 -20.05 L-95.5 -20.05 M-187.0 -6.05 L-187.0 7.95 -94.05 7.95" fill="none" stroke="#003300" stroke-linecap="round" stroke-linejoin="round" stroke-width="4.0"/>
    <path d="M-82.05 -19.05 L-54.05 -19.05 -52.0 -19.05 M2.95 4.95 L-19.05 4.95 M-60.0 1.95 L-31.0 1.95 M-54.05 -12.05 L-54.05 -8.05 M-54.05 -15.05 L-54.05 -19.05 M-20.05 -23.05 L-4.05 -23.05 M-20.05 -2.05 L-20.05 -21.05 M-60.0 -1.05 L-82.05 -1.05 M-31.0 -1.05 L2.95 -1.05" fill="none" stroke="#006600" stroke-linecap="round" stroke-linejoin="round" stroke-width="4.0"/>
  </g>
  <defs>
    <radialGradient cx="0" cy="0" gradientTransform="matrix(0.9687, 0.0, 0.0, 0.9687, 378.95, -29.05)" gradientUnits="userSpaceOnUse" id="gradient0" r="819.2" spreadMethod="pad">
      <stop offset="0.0" stop-color="#00cc00"/>
      <stop offset="0.6196078431372549" stop-color="#006600"/>
      <stop offset="0.8862745098039215" stop-color="#000000"/>
    </radialGradient>
    <linearGradient gradientTransform="matrix(0.0192, 0.0122, -0.0175, 0.0276, -16.15, -45.35)" gradientUnits="userSpaceOnUse" id="gradient1" spreadMethod="pad" x1="-819.2" x2="819.2">
      <stop offset="0.4745098039215686" stop-color="#000000"/>
      <stop offset="1.0" stop-color="#006600"/>
    </linearGradient>
    <radialGradient cx="0" cy="0" gradientTransform="matrix(0.9687, 0.0, 0.0, 0.9687, 378.95, -29.55)" gradientUnits="userSpaceOnUse" id="gradient2" r="819.2" spreadMethod="pad">
      <stop offset="0.0" stop-color="#00cc00"/>
      <stop offset="0.6196078431372549" stop-color="#006600"/>
      <stop offset="0.8862745098039215" stop-color="#000000"/>
    </radialGradient>
    <radialGradient cx="0" cy="0" gradientTransform="matrix(0.0458, 0.0, 0.0, 0.0458, 125.35, 8.05)" gradientUnits="userSpaceOnUse" id="gradient3" r="819.2" spreadMethod="pad">
      <stop offset="0.32941176470588235" stop-color="#006600"/>
      <stop offset="1.0" stop-color="#000000"/>
    </radialGradient>
    <radialGradient cx="0" cy="0" gradientTransform="matrix(0.1017, -0.0548, 0.0548, 0.1017, 124.45, 11.15)" gradientUnits="userSpaceOnUse" id="gradient4" r="819.2" spreadMethod="pad">
      <stop offset="0.32941176470588235" stop-color="#006600"/>
      <stop offset="1.0" stop-color="#000000"/>
    </radialGradient>
    <linearGradient gradientTransform="matrix(0.0873, 0.0015, -1.0E-4, 0.0057, -15.65, 18.75)" gradientUnits="userSpaceOnUse" id="gradient5" spreadMethod="pad" x1="-819.2" x2="819.2">
      <stop offset="0.4745098039215686" stop-color="#000000"/>
      <stop offset="1.0" stop-color="#006600"/>
    </linearGradient>
    <radialGradient cx="0" cy="0" gradientTransform="matrix(0.1017, 0.0282, 0.0548, -0.0524, -165.05, -27.85)" gradientUnits="userSpaceOnUse" id="gradient6" r="819.2" spreadMethod="pad">
      <stop offset="0.32941176470588235" stop-color="#006600"/>
      <stop offset="1.0" stop-color="#000000"/>
    </radialGradient>
    <radialGradient cx="0" cy="0" gradientTransform="matrix(0.9687, 0.0, 0.0, 0.9687, 377.95, -32.55)" gradientUnits="userSpaceOnUse" id="gradient7" r="819.2" spreadMethod="pad">
      <stop offset="0.0" stop-color="#00cc00"/>
      <stop offset="0.6196078431372549" stop-color="#006600"/>
      <stop offset="0.8862745098039215" stop-color="#000000"/>
    </radialGradient>
    <radialGradient cx="0" cy="0" gradientTransform="matrix(0.9687, 0.0, 0.0, 0.9687, 378.95, -32.55)" gradientUnits="userSpaceOnUse" id="gradient8" r="819.2" spreadMethod="pad">
      <stop offset="0.0" stop-color="#00cc00"/>
      <stop offset="0.6196078431372549" stop-color="#006600"/>
      <stop offset="0.8862745098039215" stop-color="#000000"/>
    </radialGradient>
    <radialGradient cx="0" cy="0" gradientTransform="matrix(0.9687, 0.0, 0.0, 0.9687, 378.95, -30.05)" gradientUnits="userSpaceOnUse" id="gradient9" r="819.2" spreadMethod="pad">
      <stop offset="0.0" stop-color="#00cc00"/>
      <stop offset="0.6196078431372549" stop-color="#006600"/>
      <stop offset="0.8862745098039215" stop-color="#000000"/>
    </radialGradient>
    <radialGradient cx="0" cy="0" gradientTransform="matrix(0.9687, 0.0, 0.0, 0.9687, 378.95, -26.05)" gradientUnits="userSpaceOnUse" id="gradient10" r="819.2" spreadMethod="pad">
      <stop offset="0.0" stop-color="#00cc00"/>
      <stop offset="0.6196078431372549" stop-color="#006600"/>
      <stop offset="0.8862745098039215" stop-color="#000000"/>
    </radialGradient>
    <linearGradient gradientTransform="matrix(0.0873, 0.0015, -1.0E-4, 0.0057, -15.65, 21.75)" gradientUnits="userSpaceOnUse" id="gradient11" spreadMethod="pad" x1="-819.2" x2="819.2">
      <stop offset="0.4745098039215686" stop-color="#000000"/>
      <stop offset="1.0" stop-color="#006600"/>
    </linearGradient>
  </defs>
</svg>
