<?xml version="1.0" encoding="UTF-8" standalone="no"?>
<svg xmlns:ffdec="https://www.free-decompiler.com/flash" xmlns:xlink="http://www.w3.org/1999/xlink" ffdec:objectType="shape" height="20.75px" width="16.05px" xmlns="http://www.w3.org/2000/svg">
  <g transform="matrix(1.0, 0.0, 0.0, 1.0, 8.2, 11.3)">
    <path d="M6.8 -9.4 L7.65 -8.75 7.85 -8.25 Q7.75 -7.45 6.95 -7.65 L5.9 -7.75 3.3 -7.8 1.8 -7.8 0.7 -8.05 -1.25 -8.1 -1.3 -8.1 -2.55 -8.0 -3.1 -8.05 Q-3.55 -8.35 -3.25 -8.8 L-2.75 -9.2 Q-1.85 -9.45 -1.05 -9.95 L-0.3 -10.4 0.45 -10.85 0.7 -10.95 1.7 -11.3 Q2.25 -11.4 2.55 -11.0 L2.6 -10.95 5.55 -10.9 6.05 -10.55 6.1 -10.55 6.1 -9.85 6.7 -9.45 6.8 -9.4 M4.8 -9.7 L2.25 -9.75 Q1.85 -9.75 1.65 -10.05 L1.6 -10.05 0.3 -9.35 0.25 -9.3 1.35 -9.05 5.05 -9.0 4.85 -9.4 4.8 -9.7 M4.1 2.3 L4.45 2.25 4.55 2.2 Q5.35 2.45 5.1 3.3 L4.9 4.15 4.8 4.45 Q4.6 5.6 3.85 6.45 L3.5 6.8 2.75 7.7 2.2 8.05 Q1.75 8.15 1.5 7.8 0.2 8.55 -1.3 8.95 L-2.0 9.25 -3.0 9.15 -3.15 8.65 -3.15 8.5 -7.2 8.45 Q-7.85 8.35 -8.15 7.8 L-8.2 7.5 -8.05 5.75 -7.9 5.55 -7.55 5.4 -3.2 5.25 -2.45 5.1 0.8 3.9 1.15 3.8 1.8 3.55 2.95 3.1 3.75 2.5 4.1 2.3 M3.45 4.85 L3.6 4.1 0.85 5.15 -1.9 6.2 -4.8 6.5 -4.95 6.5 -6.95 6.55 -6.95 6.9 -6.95 7.2 -2.55 7.35 -2.15 7.4 -1.8 7.8 Q-0.35 7.5 0.85 6.7 L2.2 6.5 Q2.35 6.0 2.8 5.65 L3.45 4.85" fill="#ffcc00" fill-rule="evenodd" stroke="none"/>
    <path d="M4.8 -9.7 L4.85 -9.4 5.05 -9.0 1.35 -9.05 0.25 -9.3 0.3 -9.35 1.6 -10.05 1.65 -10.05 Q1.85 -9.75 2.25 -9.75 L4.8 -9.7 M3.45 4.85 L2.8 5.65 Q2.35 6.0 2.2 6.5 L0.85 6.7 Q-0.35 7.5 -1.8 7.8 L-2.15 7.4 -2.55 7.35 -6.95 7.2 -6.95 6.9 -6.95 6.55 -4.95 6.5 -4.8 6.5 -1.9 6.2 0.85 5.15 3.6 4.1 3.45 4.85" fill="#ffff00" fill-rule="evenodd" stroke="none"/>
  </g>
</svg>
