<?xml version="1.0" encoding="UTF-8" standalone="no"?>
<svg xmlns:ffdec="https://www.free-decompiler.com/flash" xmlns:xlink="http://www.w3.org/1999/xlink" ffdec:objectType="shape" height="20.5px" width="16.45px" xmlns="http://www.w3.org/2000/svg">
  <g transform="matrix(1.0, 0.0, 0.0, 1.0, 8.05, 11.15)">
    <path d="M7.35 -9.7 L7.7 -9.5 Q8.45 -9.25 8.4 -8.5 8.35 -8.1 7.95 -8.05 L6.9 -7.95 6.7 -7.95 5.35 -7.9 5.1 -7.75 4.55 -7.45 Q3.4 -7.3 2.2 -7.45 L-0.65 -7.7 Q-1.0 -7.7 -1.15 -8.05 L-1.25 -8.25 Q-1.6 -8.55 -1.4 -9.0 L-0.95 -9.3 -0.7 -9.4 0.55 -9.8 1.3 -10.05 4.1 -11.05 4.55 -11.15 5.2 -10.75 5.25 -10.7 Q6.4 -10.4 7.35 -9.7 M4.25 -9.8 L1.5 -8.85 1.4 -8.8 3.45 -8.65 4.2 -8.65 4.45 -8.75 Q4.6 -9.0 4.9 -9.05 L5.95 -9.1 4.4 -9.7 4.3 -9.8 4.25 -9.8 M6.25 1.75 Q6.5 2.85 5.85 3.7 L4.9 4.9 4.55 5.5 3.35 6.95 2.45 7.25 1.2 7.25 1.05 7.35 -0.25 8.3 -1.15 8.85 -3.2 8.8 -3.4 8.7 -3.55 8.6 -3.75 8.6 Q-4.85 9.15 -6.0 9.35 -6.8 9.45 -7.25 8.85 -8.0 7.75 -8.05 6.4 -8.1 5.7 -7.5 5.3 L-7.35 5.2 -6.15 4.95 -4.5 5.0 -2.9 4.8 -2.45 4.75 Q-1.05 4.6 0.3 4.05 L1.2 3.5 Q1.95 2.9 2.8 2.45 L4.95 1.1 5.25 0.95 Q6.05 1.0 6.25 1.75 M1.85 5.75 Q2.55 5.95 2.9 5.3 L3.1 4.9 3.75 3.9 3.95 3.6 4.05 3.45 3.95 3.45 Q2.65 4.2 1.55 5.15 L0.75 5.55 -1.9 6.15 -4.5 6.45 -6.2 6.5 -6.55 6.5 -6.35 7.3 -6.05 7.8 -4.6 7.35 Q-3.4 6.75 -2.4 7.55 -1.45 7.6 -0.85 6.95 L-0.55 6.6 Q0.35 5.65 1.65 5.75 L1.85 5.75" fill="#ffcc00" fill-rule="evenodd" stroke="none"/>
    <path d="M4.25 -9.8 L4.3 -9.8 4.4 -9.7 5.95 -9.1 4.9 -9.05 Q4.6 -9.0 4.45 -8.75 L4.2 -8.65 3.45 -8.65 1.4 -8.8 1.5 -8.85 4.25 -9.8 M1.85 5.75 L1.65 5.75 Q0.35 5.65 -0.55 6.6 L-0.85 6.95 Q-1.45 7.6 -2.4 7.55 -3.4 6.75 -4.6 7.35 L-6.05 7.8 -6.35 7.3 -6.55 6.5 -6.2 6.5 -4.5 6.45 -1.9 6.15 0.75 5.55 1.55 5.15 Q2.65 4.2 3.95 3.45 L4.05 3.45 3.95 3.6 3.75 3.9 3.1 4.9 2.9 5.3 Q2.55 5.95 1.85 5.75" fill="#ffff00" fill-rule="evenodd" stroke="none"/>
  </g>
</svg>
