<?xml version="1.0" encoding="UTF-8" standalone="no"?>
<svg xmlns:ffdec="https://www.free-decompiler.com/flash" xmlns:xlink="http://www.w3.org/1999/xlink" ffdec:objectType="shape" height="18.8px" width="18.8px" xmlns="http://www.w3.org/2000/svg">
  <g transform="matrix(1.0, 0.0, 0.0, 1.0, 6.8, 10.5)">
    <path d="M7.5 -9.65 L9.6 -8.85 10.9 -8.35 Q11.85 -8.1 12.0 -7.25 L11.85 -6.8 11.3 -6.6 8.6 -6.45 8.25 -6.4 6.1 -5.95 5.7 -6.05 Q4.9 -6.75 3.8 -7.05 L3.7 -7.1 2.9 -7.35 2.7 -7.4 Q2.0 -7.45 1.5 -7.9 L1.3 -7.9 Q1.05 -7.95 0.85 -8.1 L0.85 -8.15 Q0.05 -8.35 0.4 -9.05 L0.7 -9.35 1.85 -9.8 3.25 -10.1 5.55 -10.45 7.25 -10.2 7.45 -10.05 7.5 -9.65 M6.5 -7.25 L8.15 -7.65 9.05 -7.7 7.15 -8.4 Q6.5 -8.6 6.3 -9.25 L5.65 -9.25 2.75 -8.75 2.6 -8.7 4.75 -7.95 5.3 -7.75 5.7 -7.55 6.4 -7.25 6.5 -7.25 M8.5 -1.3 L9.05 -0.75 9.25 0.05 9.25 1.5 Q9.35 2.65 8.95 3.7 L8.6 4.7 Q8.35 5.45 7.55 5.5 L6.65 5.55 5.0 6.5 3.8 7.15 3.5 7.4 Q2.8 8.15 1.75 8.3 L0.7 8.15 Q0.35 7.95 0.3 7.6 L-4.05 7.45 Q-5.45 7.4 -6.55 6.6 -6.95 6.3 -6.75 5.8 L-6.25 5.25 -5.4 5.05 -2.4 4.6 0.5 3.7 3.6 2.55 4.15 1.95 4.45 1.35 Q5.2 0.45 6.25 -0.1 L6.85 -1.15 7.1 -1.4 7.4 -1.5 8.5 -1.3 M7.75 0.75 L7.7 0.45 6.25 1.7 Q5.55 2.1 5.35 2.9 L5.2 3.2 Q4.75 3.75 4.05 4.0 L1.3 5.0 -1.5 5.9 -1.7 5.95 -2.05 6.05 1.05 6.2 1.35 6.3 1.7 6.7 Q2.25 6.7 2.65 6.15 L3.1 5.75 Q3.85 5.25 4.75 4.9 L5.2 4.65 Q5.7 4.2 6.3 4.05 L6.65 4.0 7.2 4.05 7.75 2.05 7.75 0.75" fill="#ffcc00" fill-rule="evenodd" stroke="none"/>
    <path d="M6.5 -7.25 L6.4 -7.25 5.7 -7.55 5.3 -7.75 4.75 -7.95 2.6 -8.7 2.75 -8.75 5.65 -9.25 6.3 -9.25 Q6.5 -8.6 7.15 -8.4 L9.05 -7.7 8.15 -7.65 6.5 -7.25 M7.75 0.75 L7.75 2.05 7.2 4.05 6.65 4.0 6.3 4.05 Q5.7 4.2 5.2 4.65 L4.75 4.9 Q3.85 5.25 3.1 5.75 L2.65 6.15 Q2.25 6.7 1.7 6.7 L1.35 6.3 1.05 6.2 -2.05 6.05 -1.7 5.95 -1.5 5.9 1.3 5.0 4.05 4.0 Q4.75 3.75 5.2 3.2 L5.35 2.9 Q5.55 2.1 6.25 1.7 L7.7 0.45 7.75 0.75" fill="#ffff00" fill-rule="evenodd" stroke="none"/>
  </g>
</svg>
