<?xml version="1.0" encoding="UTF-8" standalone="no"?>
<svg xmlns:ffdec="https://www.free-decompiler.com/flash" xmlns:xlink="http://www.w3.org/1999/xlink" ffdec:objectType="shape" height="17.5px" width="17.6px" xmlns="http://www.w3.org/2000/svg">
  <g transform="matrix(1.0, 0.0, 0.0, 1.0, 5.3, 10.15)">
    <path d="M7.85 -9.4 Q8.0 -9.2 8.25 -9.15 L10.3 -8.8 11.1 -8.4 11.25 -7.95 Q11.6 -7.6 12.1 -7.4 L12.25 -7.2 Q12.5 -6.4 11.6 -6.25 L10.9 -6.15 6.65 -6.15 Q6.2 -6.15 5.95 -6.5 L5.85 -6.6 5.1 -7.2 3.75 -7.5 Q3.15 -7.6 2.7 -8.05 1.9 -8.25 2.2 -9.0 L2.5 -9.3 4.05 -9.8 5.55 -10.15 7.15 -10.1 Q7.5 -10.05 7.65 -9.75 L7.85 -9.4 M5.6 -8.95 L4.45 -8.7 4.35 -8.65 Q5.7 -8.4 6.75 -7.5 L6.95 -7.3 10.15 -7.3 10.1 -7.45 10.05 -7.55 8.05 -7.95 7.45 -8.1 Q6.9 -8.35 6.7 -8.95 L5.6 -8.95 M7.85 -2.85 Q9.3 -2.8 10.15 -1.65 L10.75 -0.9 Q11.3 -0.3 10.75 0.25 L10.55 0.4 10.05 0.5 9.3 2.2 8.1 4.1 Q7.5 5.05 6.45 4.55 L6.3 4.5 4.25 6.15 3.85 6.45 3.3 6.8 Q2.7 7.05 2.45 6.45 L2.4 6.1 -0.5 6.9 -1.25 7.1 -1.9 7.25 Q-2.7 7.5 -3.2 6.95 L-4.6 6.9 Q-5.45 6.8 -5.25 6.0 L-5.05 5.7 Q-4.1 5.2 -3.1 5.05 L-0.8 4.5 -0.4 4.3 1.65 3.15 1.8 3.05 3.95 1.9 4.95 1.25 5.8 0.65 5.95 0.5 6.8 -1.15 6.85 -1.5 7.05 -2.3 7.35 -2.6 7.5 -2.7 7.85 -2.85 M8.1 -1.65 L7.85 -0.25 6.7 1.5 6.5 1.65 4.9 2.75 0.95 4.95 0.15 5.35 -0.65 5.75 1.2 5.15 1.35 5.1 3.25 4.9 3.6 5.1 5.05 3.95 5.9 3.35 6.95 3.4 7.1 3.5 7.85 2.3 8.55 0.95 8.7 0.6 9.2 -0.4 9.35 -0.5 Q8.95 -1.35 8.1 -1.65 M-1.9 6.0 L-2.05 6.05 -1.8 6.0 -1.9 6.0" fill="#ffcc00" fill-rule="evenodd" stroke="none"/>
    <path d="M5.6 -8.95 L6.7 -8.95 Q6.9 -8.35 7.45 -8.1 L8.05 -7.95 10.05 -7.55 10.1 -7.45 10.15 -7.3 6.95 -7.3 6.75 -7.5 Q5.7 -8.4 4.35 -8.65 L4.45 -8.7 5.6 -8.95 M8.1 -1.65 Q8.95 -1.35 9.35 -0.5 L9.2 -0.4 8.7 0.6 8.55 0.95 7.85 2.3 7.1 3.5 6.95 3.4 5.9 3.35 5.05 3.95 3.6 5.1 3.25 4.9 1.35 5.1 1.2 5.15 -0.65 5.75 0.15 5.35 0.95 4.95 4.9 2.75 6.5 1.65 6.7 1.5 7.85 -0.25 8.1 -1.65" fill="#ffff00" fill-rule="evenodd" stroke="none"/>
  </g>
</svg>
