<?xml version="1.0" encoding="UTF-8" standalone="no"?>
<svg xmlns:ffdec="https://www.free-decompiler.com/flash" xmlns:xlink="http://www.w3.org/1999/xlink" ffdec:objectType="shape" height="16.6px" width="16.25px" xmlns="http://www.w3.org/2000/svg">
  <g transform="matrix(1.0, 0.0, 0.0, 1.0, 3.75, 9.7)">
    <path d="M6.75 -8.45 L4.85 -8.15 4.6 -8.15 5.95 -6.85 6.05 -6.8 10.5 -7.05 10.05 -7.3 Q9.9 -7.35 9.8 -7.45 L9.8 -7.5 8.2 -7.75 Q7.5 -7.9 7.1 -8.45 L6.75 -8.45 M8.7 -8.85 L10.25 -8.55 10.85 -8.3 11.7 -8.0 12.3 -7.75 Q12.65 -7.45 12.4 -7.05 L11.85 -6.45 Q10.8 -5.7 9.5 -5.6 L7.45 -5.55 5.65 -5.6 5.2 -5.8 5.05 -6.0 4.05 -7.05 3.35 -7.55 3.25 -7.7 3.0 -8.1 Q2.75 -8.4 3.0 -8.7 L3.85 -9.25 6.6 -9.65 7.8 -9.55 8.15 -9.25 Q8.3 -8.9 8.7 -8.85 M9.85 -3.1 L10.15 -2.75 11.45 -1.25 11.6 -0.95 Q11.85 0.3 10.75 0.75 L10.2 1.1 10.15 1.35 Q10.3 2.2 10.05 3.05 L9.8 3.45 Q9.3 3.95 8.65 4.05 8.1 4.1 7.7 4.35 L7.6 4.45 Q7.25 5.4 6.2 5.65 L3.35 6.25 0.5 6.75 -1.2 6.9 -3.1 6.85 Q-3.5 6.85 -3.7 6.45 -3.95 5.8 -3.3 5.5 L-2.9 5.4 -2.6 5.45 Q-2.45 4.85 -1.85 4.7 L-1.3 4.55 0.15 4.1 1.55 3.55 1.85 3.4 4.05 2.6 4.4 2.4 6.05 0.8 6.5 0.35 7.45 -0.55 Q7.8 -0.9 7.8 -1.4 7.75 -2.35 8.0 -3.2 L8.2 -3.55 Q8.45 -3.9 8.85 -3.9 L9.85 -3.1 M9.3 -1.45 Q9.35 0.15 8.05 1.05 7.1 1.65 6.5 2.6 L5.5 3.55 Q4.4 4.2 3.2 4.5 L2.85 4.6 1.85 5.0 3.8 4.65 5.7 4.2 6.15 4.05 Q6.4 3.0 7.4 2.8 L7.8 2.7 8.7 2.45 Q8.6 1.5 8.75 0.6 8.85 0.25 9.1 0.05 L10.05 -0.6 9.3 -1.45" fill="#ffcc00" fill-rule="evenodd" stroke="none"/>
    <path d="M6.75 -8.45 L7.1 -8.45 Q7.5 -7.9 8.2 -7.75 L9.8 -7.5 9.8 -7.45 Q9.9 -7.35 10.05 -7.3 L10.5 -7.05 6.05 -6.8 5.95 -6.85 4.6 -8.15 4.85 -8.15 6.75 -8.45 M9.3 -1.45 L10.05 -0.6 9.1 0.05 Q8.85 0.25 8.75 0.6 8.6 1.5 8.7 2.45 L7.8 2.7 7.4 2.8 Q6.4 3.0 6.15 4.05 L5.7 4.2 3.8 4.65 1.85 5.0 2.85 4.6 3.2 4.5 Q4.4 4.2 5.5 3.55 L6.5 2.6 Q7.1 1.65 8.05 1.05 9.35 0.15 9.3 -1.45" fill="#ffff00" fill-rule="evenodd" stroke="none"/>
  </g>
</svg>
