<?xml version="1.0" encoding="UTF-8" standalone="no"?>
<svg xmlns:ffdec="https://www.free-decompiler.com/flash" xmlns:xlink="http://www.w3.org/1999/xlink" ffdec:objectType="shape" height="13.05px" width="14.0px" xmlns="http://www.w3.org/2000/svg">
  <g transform="matrix(1.0, 0.0, 0.0, 1.0, -1.25, 8.3)">
    <path d="M8.8 -7.65 L8.95 -7.65 10.4 -7.65 13.3 -7.95 14.1 -8.15 14.55 -8.3 Q15.4 -8.25 15.25 -7.45 L15.0 -5.8 14.9 -5.45 14.05 -4.6 13.8 -4.45 12.95 -4.25 12.35 -4.35 12.05 -4.4 10.4 -4.55 Q9.55 -4.75 8.9 -5.3 L8.0 -6.1 7.7 -6.45 Q7.45 -6.85 7.75 -7.3 8.15 -7.75 8.8 -7.65 M8.8 -4.9 L10.3 -4.55 Q11.35 -4.2 11.85 -3.3 L12.35 -2.4 12.35 -2.2 Q12.25 -1.75 11.75 -1.7 L11.95 -0.3 11.65 0.55 11.4 0.65 10.6 0.7 10.55 0.75 10.25 2.2 10.15 2.5 Q10.05 3.0 9.6 3.15 L8.5 3.1 6.7 3.25 6.4 3.35 Q5.4 3.6 4.5 4.1 4.35 4.2 4.15 4.25 L3.4 4.55 1.65 4.7 Q1.3 4.65 1.25 4.3 1.2 3.65 1.8 3.5 L2.4 3.3 3.6 2.65 4.45 2.1 4.75 1.85 5.45 1.1 6.75 -0.45 7.05 -0.85 7.55 -1.45 8.05 -2.05 8.35 -3.05 8.25 -3.95 Q8.05 -4.75 8.8 -4.9 M9.2 -1.7 L8.3 -0.35 7.8 0.25 7.45 0.65 7.15 1.05 6.15 2.15 6.6 2.05 Q7.35 1.6 8.2 1.8 L8.65 1.9 9.0 2.0 9.3 0.65 Q9.55 -0.5 10.7 -0.5 L10.5 -1.75 Q10.2 -2.4 10.7 -2.85 10.25 -3.45 9.5 -3.5 L9.35 -2.0 9.2 -1.7 M12.45 -6.6 L10.55 -6.5 10.4 -6.45 9.5 -6.45 Q9.9 -5.9 10.55 -5.75 L10.9 -5.7 13.1 -5.55 13.25 -5.55 Q13.75 -5.9 13.9 -6.45 L13.95 -6.85 12.45 -6.6" fill="#ffcc00" fill-rule="evenodd" stroke="none"/>
    <path d="M12.45 -6.6 L13.95 -6.85 13.9 -6.45 Q13.75 -5.9 13.25 -5.55 L13.1 -5.55 10.9 -5.7 10.55 -5.75 Q9.9 -5.9 9.5 -6.45 L10.4 -6.45 10.55 -6.5 12.45 -6.6 M9.2 -1.7 L9.35 -2.0 9.5 -3.5 Q10.25 -3.45 10.7 -2.85 10.2 -2.4 10.5 -1.75 L10.7 -0.5 Q9.55 -0.5 9.3 0.65 L9.0 2.0 8.65 1.9 8.2 1.8 Q7.35 1.6 6.6 2.05 L6.15 2.15 7.15 1.05 7.45 0.65 7.8 0.25 8.3 -0.35 9.2 -1.7" fill="#ffff00" fill-rule="evenodd" stroke="none"/>
  </g>
</svg>
