<?xml version="1.0" encoding="UTF-8" standalone="no"?>
<svg xmlns:ffdec="https://www.free-decompiler.com/flash" xmlns:xlink="http://www.w3.org/1999/xlink" ffdec:objectType="shape" height="12.0px" width="11.3px" xmlns="http://www.w3.org/2000/svg">
  <g transform="matrix(1.0, 0.0, 0.0, 1.0, -3.55, 7.9)">
    <path d="M10.05 -6.85 L11.95 -7.1 12.5 -7.25 14.2 -7.9 Q15.0 -7.8 14.85 -7.0 14.7 -6.3 14.2 -5.8 L13.85 -5.45 Q13.0 -4.5 11.75 -4.15 L11.7 -4.1 12.0 -4.0 12.95 -3.15 13.05 -2.75 Q13.0 -2.0 12.35 -1.55 L11.95 -1.3 11.05 -0.35 Q11.25 0.25 11.1 0.8 L10.7 1.4 10.5 1.5 10.2 1.65 Q9.6 2.7 8.45 3.0 L6.75 3.4 5.55 3.5 5.45 3.55 4.25 4.1 4.1 4.1 Q3.3 3.8 3.65 3.05 L4.1 2.55 5.45 1.55 5.75 1.25 6.6 0.45 7.65 -0.95 8.1 -2.1 8.3 -3.5 8.25 -3.6 Q7.85 -4.45 8.6 -4.95 L8.85 -5.05 10.0 -4.8 10.0 -4.85 9.6 -5.65 Q9.4 -6.3 9.8 -6.75 L10.05 -6.85 M9.1 -0.4 L8.55 0.5 7.55 1.65 8.35 1.35 9.0 0.65 Q9.05 0.5 9.25 0.45 L9.65 0.25 Q9.3 -0.75 10.1 -1.55 L11.2 -2.6 9.85 -3.25 Q9.7 -1.75 9.1 -0.4 M12.55 -5.9 L11.05 -5.75 11.0 -5.7 11.2 -5.35 11.25 -5.25 11.3 -5.25 Q11.85 -5.2 12.2 -5.65 L12.55 -5.9" fill="#ffcc00" fill-rule="evenodd" stroke="none"/>
    <path d="M12.55 -5.9 L12.2 -5.65 Q11.85 -5.2 11.3 -5.25 L11.25 -5.25 11.2 -5.35 11.0 -5.7 11.05 -5.75 12.55 -5.9 M9.1 -0.4 Q9.7 -1.75 9.85 -3.25 L11.2 -2.6 10.1 -1.55 Q9.3 -0.75 9.65 0.25 L9.25 0.45 Q9.05 0.5 9.0 0.65 L8.35 1.35 7.55 1.65 8.55 0.5 9.1 -0.4" fill="#ffff00" fill-rule="evenodd" stroke="none"/>
  </g>
</svg>
