<?xml version="1.0" encoding="UTF-8" standalone="no"?>
<svg xmlns:ffdec="https://www.free-decompiler.com/flash" xmlns:xlink="http://www.w3.org/1999/xlink" ffdec:objectType="shape" height="10.95px" width="9.85px" xmlns="http://www.w3.org/2000/svg">
  <g transform="matrix(1.0, 0.0, 0.0, 1.0, -5.65, 7.9)">
    <path d="M9.4 -0.1 L9.15 0.4 Q10.0 0.1 10.35 -0.75 L10.5 -1.1 10.65 -1.4 9.9 -2.95 Q10.0 -1.45 9.4 -0.1 M8.05 -0.95 L8.2 -1.25 8.35 -2.2 8.4 -2.8 8.15 -4.4 Q7.95 -5.25 8.75 -5.45 L8.85 -5.5 Q9.65 -5.3 10.3 -4.7 L10.9 -4.05 11.75 -2.75 11.9 -2.4 12.1 -1.85 Q12.3 -1.1 11.9 -0.5 L10.9 1.1 10.55 1.45 Q9.25 2.25 7.85 2.65 L7.0 2.75 Q6.45 3.35 5.85 2.75 5.6 2.5 5.7 2.1 L6.45 1.1 7.3 0.45 7.65 0.1 7.9 -0.6 8.05 -0.95 M15.35 -6.35 L15.3 -5.95 15.05 -4.85 Q14.8 -4.0 14.0 -3.85 13.3 -3.45 12.7 -4.05 L12.0 -4.8 11.7 -5.3 Q11.4 -5.9 11.95 -6.25 L12.85 -6.65 13.3 -6.9 13.45 -7.0 14.5 -7.8 14.65 -7.9 Q15.5 -7.9 15.5 -7.05 L15.35 -6.35 M13.15 -5.4 L13.45 -5.1 13.6 -4.95 13.7 -4.95 14.0 -5.55 13.95 -5.9 Q13.6 -5.6 13.15 -5.45 L13.1 -5.45 13.15 -5.4" fill="#ffcc00" fill-rule="evenodd" stroke="none"/>
    <path d="M9.4 -0.1 Q10.0 -1.45 9.9 -2.95 L10.65 -1.4 10.5 -1.1 10.35 -0.75 Q10.0 0.1 9.15 0.4 L9.4 -0.1 M13.15 -5.45 Q13.6 -5.6 13.95 -5.9 L14.0 -5.55 13.7 -4.95 13.6 -4.95 13.45 -5.1 13.15 -5.4 13.15 -5.45" fill="#ffff00" fill-rule="evenodd" stroke="none"/>
  </g>
</svg>
