<?xml version="1.0" encoding="UTF-8" standalone="no"?>
<svg xmlns:ffdec="https://www.free-decompiler.com/flash" xmlns:xlink="http://www.w3.org/1999/xlink" ffdec:objectType="shape" height="18.9px" width="17.05px" xmlns="http://www.w3.org/2000/svg">
  <g transform="matrix(1.0, 0.0, 0.0, 1.0, 1.55, 8.7)">
    <path d="M9.6 -3.1 L9.65 -2.75 Q9.75 -1.7 9.2 -0.85 L8.9 -0.35 8.75 -0.2 9.15 -0.2 10.95 -1.35 Q10.7 -1.95 10.6 -2.6 L10.55 -3.15 9.15 -4.15 9.6 -3.1 M9.8 -5.25 L10.85 -4.6 Q11.6 -4.15 11.7 -3.35 L11.75 -2.8 12.0 -2.0 Q12.5 -0.9 11.5 -0.2 L10.95 0.15 Q10.4 0.65 9.7 0.9 L9.4 1.0 7.25 1.6 6.45 1.6 Q6.05 1.45 6.15 1.05 6.2 0.55 6.7 0.45 L7.5 -0.6 7.75 -0.85 8.45 -2.35 Q8.55 -2.9 8.25 -3.4 L7.9 -3.95 7.7 -4.6 Q7.45 -5.5 8.25 -5.75 L9.8 -5.25 M13.6 -6.55 L13.6 -6.5 14.05 -6.05 14.1 -5.9 14.15 -5.9 14.2 -5.95 14.2 -6.0 14.25 -6.55 14.15 -6.95 13.6 -6.55 M14.55 -8.65 L14.7 -8.7 Q15.55 -8.65 15.5 -7.85 L15.3 -5.55 Q15.3 -4.95 14.9 -4.5 L14.55 -4.4 Q14.0 -4.5 13.55 -4.85 L12.35 -6.15 Q11.7 -6.65 12.35 -7.2 L13.55 -8.05 14.55 -8.65 M2.25 8.5 Q2.7 9.3 2.1 9.9 L1.75 10.05 1.3 10.05 1.0 10.15 -0.8 10.05 Q-1.7 9.8 -1.55 8.9 L-1.35 8.35 -1.0 7.7 -0.7 6.9 -0.65 6.6 -0.45 5.95 Q-0.3 5.6 0.05 5.6 0.7 5.7 0.95 6.35 L0.95 6.4 1.7 7.35 2.25 8.5 M0.35 7.55 L-0.3 8.9 -0.25 8.95 0.9 8.9 1.05 8.85 0.35 7.55" fill="#ffcc00" fill-rule="evenodd" stroke="none"/>
    <path d="M9.6 -3.1 L9.15 -4.15 10.55 -3.15 10.6 -2.6 Q10.7 -1.95 10.95 -1.35 L9.15 -0.2 8.75 -0.2 8.9 -0.35 9.2 -0.85 Q9.75 -1.7 9.65 -2.75 L9.6 -3.1 M13.6 -6.55 L14.15 -6.95 14.25 -6.55 14.2 -6.0 14.2 -5.95 14.15 -5.9 14.1 -5.9 14.05 -6.05 13.6 -6.5 13.6 -6.55 M0.35 7.55 L1.05 8.85 0.9 8.9 -0.25 8.95 -0.3 8.9 0.35 7.55" fill="#ffff00" fill-rule="evenodd" stroke="none"/>
  </g>
</svg>
