<?xml version="1.0" encoding="UTF-8" standalone="no"?>
<svg xmlns:ffdec="https://www.free-decompiler.com/flash" xmlns:xlink="http://www.w3.org/1999/xlink" ffdec:objectType="shape" height="15.7px" width="13.55px" xmlns="http://www.w3.org/2000/svg">
  <g transform="matrix(1.0, 0.0, 0.0, 1.0, 1.55, 5.4)">
    <path d="M9.25 -3.9 L9.75 -2.5 Q10.1 -1.45 9.55 -0.5 10.25 -0.55 10.8 -1.0 10.5 -1.8 10.55 -2.75 L10.4 -3.15 9.7 -3.7 9.25 -3.9 M8.05 -3.75 L7.95 -4.3 Q7.6 -4.6 7.8 -5.05 L8.3 -5.4 Q9.8 -5.25 10.95 -4.25 L11.15 -4.05 Q11.8 -3.6 11.85 -2.9 L11.85 -2.65 11.85 -1.8 Q12.1 -1.2 11.95 -0.5 L11.4 0.1 Q10.35 0.6 9.15 0.9 L8.05 0.7 7.9 0.5 Q7.8 -0.2 8.3 -0.8 L8.7 -1.6 8.25 -3.2 8.05 -3.75 M0.3 6.45 L-0.15 7.7 -0.35 8.35 -0.35 9.0 1.5 9.05 1.35 7.8 1.05 7.2 0.3 6.45 M2.55 7.6 L2.65 8.25 2.7 9.2 Q2.75 10.0 1.95 10.15 L-0.9 10.05 Q-1.5 9.85 -1.55 9.2 L-1.45 7.75 -1.15 6.75 -1.1 6.6 -0.9 6.15 -0.85 5.1 Q-0.8 4.75 -0.45 4.65 L-0.3 4.6 Q0.5 4.8 1.1 5.45 L1.8 6.25 2.55 7.6" fill="#ffcc00" fill-rule="evenodd" stroke="none"/>
    <path d="M9.25 -3.9 L9.7 -3.7 10.4 -3.15 10.55 -2.75 Q10.5 -1.8 10.8 -1.0 10.25 -0.55 9.55 -0.5 10.1 -1.45 9.75 -2.5 L9.25 -3.9 M0.3 6.45 L1.05 7.2 1.35 7.8 1.5 9.05 -0.35 9.0 -0.35 8.35 -0.15 7.7 0.3 6.45" fill="#ffff00" fill-rule="evenodd" stroke="none"/>
  </g>
</svg>
