<?xml version="1.0" encoding="UTF-8" standalone="no"?>
<svg xmlns:ffdec="https://www.free-decompiler.com/flash" xmlns:xlink="http://www.w3.org/1999/xlink" ffdec:objectType="shape" height="16.3px" width="15.45px" xmlns="http://www.w3.org/2000/svg">
  <g transform="matrix(1.0, 0.0, 0.0, 1.0, 2.6, 5.7)">
    <path d="M8.1 -3.65 L7.95 -3.85 7.8 -3.95 Q7.2 -4.45 7.25 -5.15 L7.5 -5.55 7.9 -5.7 11.0 -5.5 11.2 -5.4 Q12.0 -4.95 11.75 -4.0 L12.85 -2.6 12.85 -2.15 Q12.65 -1.2 11.6 -0.95 L8.9 -0.45 Q8.7 -0.45 8.6 -0.6 8.15 -1.15 8.65 -1.7 L8.7 -1.9 8.7 -1.95 8.8 -2.15 8.65 -2.35 8.6 -2.4 8.5 -2.8 8.45 -2.95 8.25 -3.15 8.2 -3.2 8.1 -3.6 8.1 -3.65 M10.1 -2.1 L11.0 -2.2 11.4 -2.4 10.9 -2.9 Q10.1 -3.25 10.35 -4.2 L9.25 -4.25 Q9.9 -3.3 10.1 -2.15 L10.1 -2.1 M1.9 9.25 L1.6 9.9 0.85 10.4 -0.95 10.55 Q-1.85 10.45 -2.3 9.7 -2.8 8.9 -2.2 8.1 L-1.6 7.0 -1.4 6.65 -1.95 5.4 Q-1.95 5.0 -2.25 4.65 L-2.6 3.85 Q-2.6 3.25 -2.0 3.2 -1.05 3.25 -0.3 3.85 1.45 4.75 2.0 6.55 L2.05 7.0 1.9 9.25 M-0.6 5.35 L-0.6 5.4 Q0.0 6.0 0.0 6.75 0.0 7.25 -0.35 7.65 L-0.6 8.1 -0.95 9.0 -0.85 9.15 0.55 9.0 0.65 8.7 0.7 8.6 0.75 7.1 0.75 6.85 Q0.2 5.9 -0.55 5.3 L-0.6 5.25 -0.6 5.35" fill="#ffcc00" fill-rule="evenodd" stroke="none"/>
    <path d="M10.1 -2.1 L10.1 -2.15 Q9.9 -3.3 9.25 -4.25 L10.35 -4.2 Q10.1 -3.25 10.9 -2.9 L11.4 -2.4 11.0 -2.2 10.1 -2.1 M-0.55 5.3 Q0.2 5.9 0.75 6.85 L0.75 7.1 0.7 8.6 0.65 8.7 0.55 9.0 -0.85 9.15 -0.95 9.0 -0.6 8.1 -0.35 7.65 Q0.0 7.25 0.0 6.75 0.0 6.0 -0.6 5.4 L-0.6 5.35 -0.55 5.3" fill="#ffff00" fill-rule="evenodd" stroke="none"/>
  </g>
</svg>
