<?xml version="1.0" encoding="UTF-8" standalone="no"?>
<svg xmlns:ffdec="https://www.free-decompiler.com/flash" xmlns:xlink="http://www.w3.org/1999/xlink" ffdec:objectType="shape" height="16.85px" width="15.25px" xmlns="http://www.w3.org/2000/svg">
  <g transform="matrix(1.0, 0.0, 0.0, 1.0, 2.8, 6.35)">
    <path d="M9.55 -6.35 Q10.3 -6.15 10.7 -5.45 L11.15 -4.8 12.2 -3.6 12.45 -3.15 Q12.55 -2.7 12.2 -2.35 L11.7 -1.8 11.3 -1.4 Q10.6 -0.7 9.6 -0.8 L9.45 -0.85 Q8.75 -0.75 8.7 -1.45 L8.65 -1.65 8.05 -2.8 Q7.65 -3.35 7.7 -4.0 7.7 -4.55 8.15 -5.0 L8.65 -5.55 8.9 -5.75 Q9.0 -6.15 9.4 -6.3 L9.55 -6.35 M8.9 -3.9 L8.85 -3.85 9.75 -2.15 9.8 -2.0 11.1 -2.9 9.6 -4.75 8.9 -3.9 M0.85 5.3 Q2.0 6.3 1.8 7.85 2.15 8.6 2.15 9.5 2.15 10.3 1.35 10.45 -0.05 10.65 -1.15 9.95 L-1.5 9.5 -1.55 9.15 -1.75 8.25 -1.7 7.5 -2.15 6.25 -2.4 5.4 -2.55 5.05 -2.55 4.8 -2.8 3.8 Q-2.7 3.35 -2.25 3.3 -1.75 3.5 -1.3 3.85 L-1.0 4.0 0.25 4.85 0.85 5.3 M0.55 7.1 L0.35 6.55 -1.15 5.35 -0.65 6.8 Q-0.45 7.55 -0.5 8.35 L-0.5 8.6 -0.35 9.05 -0.3 9.1 0.1 9.25 0.95 9.3 0.75 8.55 0.75 8.5 Q0.5 7.8 0.55 7.1" fill="#ffcc00" fill-rule="evenodd" stroke="none"/>
    <path d="M8.9 -3.9 L9.6 -4.75 11.1 -2.9 9.8 -2.0 9.75 -2.15 8.85 -3.85 8.9 -3.9 M0.55 7.1 Q0.5 7.8 0.75 8.5 L0.75 8.55 0.95 9.3 0.1 9.25 -0.3 9.1 -0.35 9.05 -0.5 8.6 -0.5 8.35 Q-0.45 7.55 -0.65 6.8 L-1.15 5.35 0.35 6.55 0.55 7.1" fill="#ffff00" fill-rule="evenodd" stroke="none"/>
  </g>
</svg>
