<?xml version="1.0" encoding="UTF-8" standalone="no"?>
<svg xmlns:ffdec="https://www.free-decompiler.com/flash" xmlns:xlink="http://www.w3.org/1999/xlink" ffdec:objectType="shape" height="19.5px" width="16.5px" xmlns="http://www.w3.org/2000/svg">
  <g transform="matrix(1.0, 0.0, 0.0, 1.0, 4.15, 8.6)">
    <path d="M8.15 -8.6 L9.05 -8.0 9.8 -7.2 11.85 -5.1 Q12.4 -4.45 12.35 -3.6 L12.25 -3.15 11.7 -2.2 Q11.35 -1.65 10.65 -1.5 9.75 -1.25 9.0 -1.75 8.55 -2.05 8.8 -2.55 L8.6 -2.9 8.45 -3.05 Q7.8 -3.2 7.65 -3.8 L7.6 -4.1 Q7.6 -4.6 7.9 -4.95 L7.8 -6.95 7.7 -7.2 Q7.45 -7.8 7.7 -8.3 L7.95 -8.55 8.15 -8.6 M9.85 -3.25 L10.05 -2.8 10.15 -2.65 Q10.6 -2.6 10.8 -3.1 L11.15 -3.65 11.15 -3.95 10.2 -5.15 9.1 -6.1 8.95 -4.5 8.85 -4.25 8.9 -4.2 9.85 -3.25 M1.65 5.95 L1.35 6.65 1.35 6.75 1.45 7.85 2.25 9.4 2.3 9.85 Q2.15 10.65 1.3 10.85 L0.2 10.85 Q-0.9 10.6 -1.65 9.7 -2.45 9.5 -2.25 8.65 L-2.15 8.3 -2.1 6.95 -1.95 6.45 Q-1.8 5.55 -2.35 4.9 L-3.7 3.35 Q-4.3 3.15 -4.1 2.55 -4.0 2.15 -3.6 2.15 -2.8 2.25 -2.15 2.75 L-1.8 3.0 0.4 4.35 1.55 5.5 1.65 5.95 M0.25 8.0 Q0.0 6.9 0.35 5.9 -0.15 5.35 -0.85 5.1 -0.65 6.25 -0.85 7.35 L-0.95 7.75 -1.0 8.15 Q-0.65 8.4 -0.6 8.85 L-0.45 9.2 Q0.25 9.8 1.1 9.7 L0.3 8.2 0.25 8.0" fill="#ffcc00" fill-rule="evenodd" stroke="none"/>
    <path d="M9.85 -3.25 L8.9 -4.2 8.85 -4.25 8.95 -4.5 9.1 -6.1 10.2 -5.15 11.15 -3.95 11.15 -3.65 10.8 -3.1 Q10.6 -2.6 10.15 -2.65 L10.05 -2.8 9.85 -3.25 M0.25 8.0 L0.3 8.2 1.1 9.7 Q0.25 9.8 -0.45 9.2 L-0.6 8.85 Q-0.65 8.4 -1.0 8.15 L-0.95 7.75 -0.85 7.35 Q-0.65 6.25 -0.85 5.1 -0.15 5.35 0.35 5.9 0.0 6.9 0.25 8.0" fill="#ffff00" fill-rule="evenodd" stroke="none"/>
  </g>
</svg>
