<?xml version="1.0" encoding="UTF-8" standalone="no"?>
<svg xmlns:ffdec="https://www.free-decompiler.com/flash" xmlns:xlink="http://www.w3.org/1999/xlink" ffdec:objectType="shape" height="21.25px" width="18.05px" xmlns="http://www.w3.org/2000/svg">
  <g transform="matrix(1.0, 0.0, 0.0, 1.0, 7.2, 11.35)">
    <path d="M7.25 -10.45 L7.3 -10.2 Q7.85 -8.85 8.7 -7.65 L8.75 -7.55 8.85 -7.4 9.4 -7.05 9.6 -6.85 10.5 -5.85 Q10.9 -5.35 10.85 -4.65 L10.5 -3.15 Q10.15 -2.3 9.3 -2.45 L8.85 -2.65 8.5 -3.05 8.3 -3.15 7.95 -3.4 Q7.0 -4.5 6.4 -5.8 L6.35 -6.0 Q6.0 -7.25 5.9 -8.5 L5.85 -9.8 6.05 -11.0 6.2 -11.25 6.5 -11.35 Q7.15 -11.15 7.25 -10.45 M7.7 -6.8 L7.25 -7.55 Q7.3 -6.15 8.2 -5.05 L8.4 -4.8 9.0 -4.05 9.25 -3.95 9.45 -3.85 9.45 -3.9 9.5 -3.95 9.5 -4.0 9.55 -5.1 9.5 -5.2 8.4 -6.3 7.7 -6.8 M2.3 4.25 L2.25 4.75 1.85 5.2 1.75 5.3 1.6 6.6 1.55 6.8 Q1.35 7.2 1.5 7.7 1.75 8.5 1.45 9.3 L0.75 9.85 -1.8 9.7 -2.15 9.45 -2.4 8.6 Q-2.5 7.2 -2.0 5.9 L-1.9 5.65 -1.9 5.6 -1.95 5.4 -1.95 5.25 -2.7 3.95 Q-3.3 3.0 -4.3 2.4 L-5.85 1.45 -6.15 1.25 -7.05 0.55 -7.15 0.05 Q-7.0 -0.35 -6.6 -0.4 L-4.9 -0.15 -4.0 0.1 -1.15 0.85 Q-0.75 1.0 -0.4 1.3 -0.05 1.65 -0.2 2.15 L1.6 3.35 Q2.1 3.65 2.3 4.25 M-3.6 1.4 Q-2.35 2.15 -1.55 3.4 L-0.85 4.8 -0.7 5.25 Q-0.65 6.0 -0.95 6.7 -1.35 7.6 -1.2 8.5 L-1.15 8.6 -1.05 8.65 0.4 8.65 0.25 7.6 Q0.1 6.75 0.45 6.0 L0.55 5.45 Q0.45 4.8 0.85 4.35 L-0.3 3.55 -0.35 3.5 Q-1.1 3.15 -1.45 2.45 L-1.45 2.1 Q-1.95 1.75 -2.55 1.65 L-3.6 1.35 -3.65 1.35 -3.6 1.4" fill="#ffcc00" fill-rule="evenodd" stroke="none"/>
    <path d="M7.7 -6.8 L8.4 -6.3 9.5 -5.2 9.55 -5.1 9.5 -4.0 9.5 -3.95 9.45 -3.9 9.45 -3.85 9.25 -3.95 9.0 -4.05 8.4 -4.8 8.2 -5.05 Q7.3 -6.15 7.25 -7.55 L7.7 -6.8 M-3.6 1.35 L-2.55 1.65 Q-1.95 1.75 -1.45 2.1 L-1.45 2.45 Q-1.1 3.15 -0.35 3.5 L-0.3 3.55 0.85 4.35 Q0.45 4.8 0.55 5.45 L0.45 6.0 Q0.1 6.75 0.25 7.6 L0.4 8.65 -1.05 8.65 -1.15 8.6 -1.2 8.5 Q-1.35 7.6 -0.95 6.7 -0.65 6.0 -0.7 5.25 L-0.85 4.8 -1.55 3.4 Q-2.35 2.15 -3.6 1.4 L-3.6 1.35" fill="#ffff00" fill-rule="evenodd" stroke="none"/>
  </g>
</svg>
