<?xml version="1.0" encoding="UTF-8" standalone="no"?>
<svg xmlns:ffdec="https://www.free-decompiler.com/flash" xmlns:xlink="http://www.w3.org/1999/xlink" ffdec:objectType="shape" height="19.85px" width="18.75px" xmlns="http://www.w3.org/2000/svg">
  <g transform="matrix(1.0, 0.0, 0.0, 1.0, 9.2, 11.7)">
    <path d="M8.9 -10.8 L8.8 -7.85 8.9 -7.1 9.45 -5.85 9.5 -4.95 9.3 -4.65 9.25 -4.55 9.2 -4.5 9.15 -4.3 9.1 -4.2 Q9.25 -3.4 8.45 -3.35 8.2 -3.35 8.05 -3.55 L7.95 -3.75 Q6.6 -4.8 5.75 -6.3 5.45 -6.85 5.45 -7.55 L5.6 -9.45 5.7 -9.8 7.05 -11.35 7.2 -11.45 8.0 -11.7 Q8.9 -11.7 8.9 -10.8 M6.7 -9.1 L6.8 -7.0 Q6.85 -6.65 7.05 -6.45 L7.2 -6.3 8.15 -5.2 Q8.5 -5.5 8.15 -5.95 L8.0 -6.15 7.7 -7.1 7.65 -7.85 7.65 -10.3 6.7 -9.15 6.7 -9.1 M0.15 3.9 L-1.0 2.6 -1.45 2.05 -2.45 1.1 -3.45 0.15 -3.6 -0.3 -3.4 -0.8 -3.45 -0.85 -4.65 -0.85 -7.25 -0.3 -7.35 -0.25 -6.0 0.65 Q-5.75 0.8 -5.45 0.9 -5.2 0.15 -4.4 0.35 L-4.2 0.45 -2.9 1.4 Q-2.0 2.15 -1.6 3.2 L-1.45 3.55 -1.25 4.05 -1.0 4.7 -0.9 5.15 -0.9 5.25 -0.8 5.5 -0.75 5.7 -0.7 5.95 -0.6 6.2 0.3 6.25 0.35 6.15 0.4 6.05 0.4 5.8 0.4 5.6 0.4 5.55 0.25 4.85 0.25 4.25 0.25 4.1 0.2 4.0 0.15 3.9 M1.6 5.65 L1.55 6.6 1.05 7.65 0.45 7.75 0.0 7.45 Q0.05 7.9 -0.4 8.1 L-1.05 8.1 -1.55 7.55 -1.65 7.35 -2.15 5.35 -2.2 4.9 -2.45 4.5 -2.45 4.2 -2.7 3.8 -2.8 3.45 -3.0 3.1 Q-3.5 2.35 -4.3 1.8 -4.35 2.25 -4.85 2.35 -5.5 2.45 -6.05 2.0 L-6.25 1.9 -9.0 -0.1 Q-9.25 -0.3 -9.15 -0.65 L-8.7 -1.2 -7.6 -1.5 -6.5 -1.65 -5.5 -1.85 -4.8 -2.05 -3.05 -2.0 -2.75 -1.95 -2.0 -1.5 -1.75 -1.05 Q-1.8 -0.6 -2.15 -0.25 L-1.3 0.5 Q-0.95 0.7 -0.65 1.05 L0.3 2.1 1.25 3.4 1.45 4.2 1.5 4.95 1.6 5.65" fill="#ffcc00" fill-rule="evenodd" stroke="none"/>
    <path d="M0.15 3.9 L0.2 4.0 0.25 4.1 0.25 4.25 0.25 4.85 0.4 5.55 0.4 5.6 0.4 5.8 0.4 6.05 0.35 6.15 0.3 6.25 -0.6 6.2 -0.7 5.95 -0.75 5.7 -0.8 5.5 -0.9 5.25 -0.9 5.15 -1.0 4.7 -1.25 4.05 -1.45 3.55 -1.6 3.2 Q-2.0 2.15 -2.9 1.4 L-4.2 0.45 -4.4 0.35 Q-5.2 0.15 -5.45 0.9 -5.75 0.8 -6.0 0.65 L-7.35 -0.25 -7.25 -0.3 -4.65 -0.85 -3.45 -0.85 -3.4 -0.8 -3.6 -0.3 -3.45 0.15 -2.45 1.1 -1.45 2.05 -1.0 2.6 0.15 3.9 M6.7 -9.1 L6.7 -9.15 7.65 -10.3 7.65 -7.85 7.7 -7.1 8.0 -6.15 8.15 -5.95 Q8.5 -5.5 8.15 -5.2 L7.2 -6.3 7.05 -6.45 Q6.85 -6.65 6.8 -7.0 L6.7 -9.1" fill="#ffff00" fill-rule="evenodd" stroke="none"/>
  </g>
</svg>
