<?xml version="1.0" encoding="UTF-8" standalone="no"?>
<svg xmlns:ffdec="https://www.free-decompiler.com/flash" xmlns:xlink="http://www.w3.org/1999/xlink" ffdec:objectType="shape" height="15.7px" width="20.75px" xmlns="http://www.w3.org/2000/svg">
  <g transform="matrix(1.0, 0.0, 0.0, 1.0, 11.0, 12.05)">
    <path d="M9.45 -11.9 L9.75 -11.4 9.5 -9.25 8.85 -7.5 8.9 -7.5 8.85 -7.2 8.8 -7.05 9.1 -5.2 Q9.15 -4.7 8.75 -4.55 L8.3 -4.5 Q7.5 -4.25 7.05 -4.95 L6.8 -5.3 Q5.45 -6.4 5.7 -8.15 L6.05 -9.95 Q6.25 -10.6 6.75 -11.1 L8.3 -12.0 9.45 -11.9 M8.4 -10.8 Q7.45 -10.4 7.15 -9.4 L7.15 -9.35 6.85 -7.8 6.85 -7.4 Q7.0 -6.7 7.55 -6.25 L7.7 -6.1 Q7.5 -7.05 7.8 -7.95 L8.2 -9.35 8.3 -9.6 8.5 -10.75 8.4 -10.8 M-7.9 -1.85 L-7.5 -2.0 -7.2 -2.1 -4.9 -2.0 -4.35 -1.8 Q-3.95 -1.55 -4.0 -1.1 L-3.1 -0.55 -1.15 0.6 -0.25 1.15 0.2 1.75 Q0.3 2.3 -0.3 2.4 L-1.1 2.5 -1.35 3.15 -1.8 3.6 -2.45 3.55 Q-3.7 2.8 -5.0 2.15 L-5.25 2.0 -6.8 1.45 -7.85 1.5 -8.65 1.75 -9.7 1.75 -10.3 1.5 Q-11.1 1.1 -11.0 0.15 L-10.9 -0.5 Q-10.9 -1.3 -10.05 -1.4 L-9.45 -1.45 Q-8.6 -1.4 -7.9 -1.85 M-8.3 -0.35 L-9.75 -0.25 -9.75 0.0 -9.75 0.35 -9.7 0.4 -9.6 0.5 -9.15 0.55 -9.0 0.6 Q-7.6 -0.1 -6.05 0.35 L-5.7 0.5 -5.45 0.65 Q-4.3 1.1 -3.2 1.7 L-2.6 2.1 -2.4 2.2 -2.1 1.85 -1.9 1.55 -2.5 1.15 -2.6 1.05 Q-3.6 0.5 -4.7 0.05 -5.3 -0.2 -5.25 -0.8 L-5.6 -0.9 -7.1 -0.9 -8.05 -0.45 -8.3 -0.35" fill="#ffcc00" fill-rule="evenodd" stroke="none"/>
    <path d="M8.4 -10.8 L8.5 -10.75 8.3 -9.6 8.2 -9.35 7.8 -7.95 Q7.5 -7.05 7.7 -6.1 L7.55 -6.25 Q7.0 -6.7 6.85 -7.4 L6.85 -7.8 7.15 -9.35 7.15 -9.4 Q7.45 -10.4 8.4 -10.8 M-8.3 -0.35 L-8.05 -0.45 -7.1 -0.9 -5.6 -0.9 -5.25 -0.8 Q-5.3 -0.2 -4.7 0.05 -3.6 0.5 -2.6 1.05 L-2.5 1.15 -1.9 1.55 -2.1 1.85 -2.4 2.2 -2.6 2.1 -3.2 1.7 Q-4.3 1.1 -5.45 0.65 L-5.7 0.5 -6.05 0.35 Q-7.6 -0.1 -9.0 0.6 L-9.15 0.55 -9.6 0.5 -9.7 0.4 -9.75 0.35 -9.75 0.0 -9.75 -0.25 -8.3 -0.35" fill="#ffff00" fill-rule="evenodd" stroke="none"/>
  </g>
</svg>
