<?xml version="1.0" encoding="UTF-8" standalone="no"?>
<svg xmlns:ffdec="https://www.free-decompiler.com/flash" xmlns:xlink="http://www.w3.org/1999/xlink" ffdec:objectType="shape" height="15.0px" width="21.4px" xmlns="http://www.w3.org/2000/svg">
  <g transform="matrix(1.0, 0.0, 0.0, 1.0, 11.3, 11.7)">
    <path d="M8.2 -9.95 L7.25 -9.25 7.1 -9.15 7.0 -9.05 7.1 -7.7 7.2 -7.1 7.35 -6.8 7.45 -6.6 7.5 -6.65 7.6 -6.65 Q7.45 -7.75 7.7 -8.85 L7.8 -9.15 8.2 -9.8 8.2 -9.95 M10.1 -10.9 L9.9 -10.3 9.5 -9.65 8.8 -8.25 8.75 -7.95 8.8 -5.85 Q8.75 -5.15 8.05 -5.2 7.75 -5.2 7.55 -5.35 6.55 -5.45 6.15 -6.4 5.7 -7.65 5.75 -9.05 5.85 -10.0 6.75 -10.45 L7.25 -10.75 7.5 -10.95 Q8.4 -11.5 9.45 -11.7 10.2 -11.65 10.1 -10.9 M-10.6 -1.3 L-9.5 -1.7 -9.35 -1.75 -9.35 -1.8 -8.95 -2.35 -8.45 -2.5 -5.5 -2.45 -5.0 -2.35 -4.75 -2.25 -3.75 -1.7 -3.1 -1.15 -1.4 0.4 Q-1.1 0.7 -1.15 1.1 -1.25 1.65 -1.8 1.65 L-1.8 1.7 -1.8 2.95 -1.9 3.1 -2.85 3.05 -3.25 2.65 -3.85 2.1 Q-4.25 1.7 -4.8 1.45 L-6.15 1.05 -8.15 1.25 Q-8.95 1.5 -9.35 2.25 L-9.65 2.5 -10.5 2.35 -10.8 2.1 Q-11.1 1.7 -11.0 1.2 L-10.9 0.6 Q-11.65 -0.2 -11.0 -1.05 L-10.6 -1.3 M-10.0 -0.25 L-9.6 0.45 -9.55 0.5 -9.2 0.45 Q-7.75 -0.45 -6.05 -0.15 L-5.6 -0.05 Q-4.1 0.15 -3.0 1.15 L-2.95 1.2 -2.75 0.85 -2.7 0.8 -4.55 -0.7 -4.65 -0.8 -5.65 -1.3 -8.15 -1.3 Q-8.3 -0.7 -8.9 -0.6 L-9.05 -0.55 -10.0 -0.25" fill="#ffcc00" fill-rule="evenodd" stroke="none"/>
    <path d="M8.2 -9.95 L8.2 -9.8 7.8 -9.15 7.7 -8.85 Q7.45 -7.75 7.6 -6.65 L7.5 -6.65 7.45 -6.6 7.35 -6.8 7.2 -7.1 7.1 -7.7 7.0 -9.05 7.1 -9.15 7.25 -9.25 8.2 -9.95 M-10.0 -0.25 L-9.05 -0.55 -8.9 -0.6 Q-8.3 -0.7 -8.15 -1.3 L-5.65 -1.3 -4.65 -0.8 -4.55 -0.7 -2.7 0.8 -2.75 0.85 -2.95 1.2 -3.0 1.15 Q-4.1 0.15 -5.6 -0.05 L-6.05 -0.15 Q-7.75 -0.45 -9.2 0.45 L-9.55 0.5 -9.6 0.45 -10.0 -0.25" fill="#ffff00" fill-rule="evenodd" stroke="none"/>
  </g>
</svg>
