<?xml version="1.0" encoding="UTF-8" standalone="no"?>
<svg xmlns:ffdec="https://www.free-decompiler.com/flash" xmlns:xlink="http://www.w3.org/1999/xlink" ffdec:objectType="shape" height="14.25px" width="22.7px" xmlns="http://www.w3.org/2000/svg">
  <g transform="matrix(1.0, 0.0, 0.0, 1.0, 11.55, 11.3)">
    <path d="M8.85 -10.0 Q7.55 -9.55 7.05 -8.35 6.95 -8.05 7.15 -7.75 L7.55 -7.2 7.65 -7.2 Q7.75 -8.35 8.35 -9.3 L8.9 -9.95 8.9 -10.0 8.85 -10.0 M7.4 -10.65 Q8.35 -11.3 9.45 -11.3 L10.7 -11.25 11.1 -10.85 Q11.25 -10.3 10.75 -10.0 L10.25 -9.6 9.15 -8.25 8.85 -6.85 8.8 -6.25 8.45 -5.85 7.8 -5.8 Q6.85 -5.95 6.35 -6.7 L6.0 -7.3 Q5.65 -8.0 5.9 -8.75 L6.4 -9.75 6.95 -10.35 7.4 -10.65 M-8.25 -2.7 Q-6.7 -2.9 -5.35 -2.25 L-3.6 -1.5 Q-2.75 -1.2 -2.2 -0.5 L-2.1 -0.15 Q-2.2 0.5 -2.95 0.65 L-3.0 1.55 Q-3.05 1.9 -3.4 1.95 L-4.15 1.75 -4.5 1.55 -5.2 1.25 Q-6.3 1.0 -7.35 1.25 -8.1 1.4 -8.4 2.0 L-8.9 2.8 -9.35 2.95 -9.85 2.55 -10.5 2.25 -10.8 1.95 -10.95 0.95 -11.5 0.0 Q-11.75 -1.0 -10.75 -1.35 L-10.05 -1.7 Q-9.85 -1.8 -9.8 -2.05 L-9.55 -2.3 -8.25 -2.7 M-8.75 -1.35 Q-9.25 -0.45 -10.35 -0.25 -9.8 0.2 -9.75 0.85 L-9.75 1.25 -9.6 1.35 -9.5 1.35 Q-8.65 0.15 -7.15 0.0 L-4.7 0.15 -4.55 0.2 -4.15 0.3 -4.05 0.0 -3.9 -0.3 -5.55 -0.95 -6.05 -1.15 -6.15 -1.3 -8.15 -1.55 -8.65 -1.4 -8.75 -1.35" fill="#ffcc00" fill-rule="evenodd" stroke="none"/>
    <path d="M8.85 -10.0 L8.9 -9.95 8.35 -9.3 Q7.75 -8.35 7.65 -7.2 L7.55 -7.2 7.15 -7.75 Q6.95 -8.05 7.05 -8.35 7.55 -9.55 8.85 -10.0 M-8.75 -1.35 L-8.65 -1.4 -8.15 -1.55 -6.15 -1.3 -6.05 -1.15 -5.55 -0.95 -3.9 -0.3 -4.05 0.0 -4.15 0.3 -4.55 0.2 -4.7 0.15 -7.15 0.0 Q-8.65 0.15 -9.5 1.35 L-9.6 1.35 -9.75 1.25 -9.75 0.85 Q-9.8 0.2 -10.35 -0.25 -9.25 -0.45 -8.75 -1.35" fill="#ffff00" fill-rule="evenodd" stroke="none"/>
  </g>
</svg>
