<?xml version="1.0" encoding="UTF-8" standalone="no"?>
<svg xmlns:ffdec="https://www.free-decompiler.com/flash" xmlns:xlink="http://www.w3.org/1999/xlink" ffdec:objectType="shape" height="14.65px" width="23.2px" xmlns="http://www.w3.org/2000/svg">
  <g transform="matrix(1.0, 0.0, 0.0, 1.0, 11.55, 11.7)">
    <path d="M7.95 -10.65 Q8.15 -11.3 8.7 -11.6 L8.95 -11.7 10.75 -11.6 Q11.45 -11.6 11.65 -10.9 L11.6 -10.3 11.4 -10.0 9.35 -7.85 9.2 -7.7 8.25 -7.6 Q7.6 -7.95 7.65 -8.75 L7.7 -9.45 7.95 -10.65 M8.9 -9.45 L8.85 -9.4 8.85 -9.3 8.85 -9.2 10.2 -10.45 9.25 -10.5 9.25 -10.45 8.9 -9.45 M-9.7 -0.2 L-9.9 0.2 -10.2 0.7 -10.3 0.8 -10.25 0.9 -10.25 0.95 -10.2 1.0 Q-9.95 1.1 -9.8 1.3 L-9.6 1.5 Q-9.25 0.9 -8.55 0.7 L-6.65 0.15 -6.85 -0.25 -6.95 -0.6 -6.95 -0.7 -7.35 -0.75 -9.6 -0.25 -9.7 -0.2 M-6.3 -1.9 Q-5.9 -1.85 -5.85 -1.5 L-5.8 -0.75 -5.75 -0.75 -5.1 -0.1 Q-4.35 0.25 -4.8 0.9 L-5.2 1.2 -5.5 1.25 Q-7.05 1.4 -8.45 2.0 -8.45 2.75 -9.1 2.9 -9.85 3.05 -10.35 2.5 L-11.15 1.8 -11.25 1.7 Q-11.75 1.0 -11.4 0.25 -11.8 -0.5 -11.05 -0.9 -9.35 -1.75 -7.5 -1.95 L-6.3 -1.9" fill="#ffcc00" fill-rule="evenodd" stroke="none"/>
    <path d="M-9.7 -0.2 L-9.6 -0.25 -7.35 -0.75 -6.95 -0.7 -6.95 -0.6 -6.85 -0.25 -6.65 0.15 -8.55 0.7 Q-9.25 0.9 -9.6 1.5 L-9.8 1.3 Q-9.95 1.1 -10.2 1.0 L-10.25 0.95 -10.25 0.9 -10.3 0.8 -10.2 0.7 -9.9 0.2 -9.7 -0.2 M8.9 -9.45 L9.25 -10.45 9.25 -10.5 10.2 -10.45 8.85 -9.2 8.85 -9.3 8.85 -9.4 8.9 -9.45" fill="#ffff00" fill-rule="evenodd" stroke="none"/>
  </g>
</svg>
