<?xml version="1.0" encoding="UTF-8" standalone="no"?>
<svg xmlns:ffdec="https://www.free-decompiler.com/flash" xmlns:xlink="http://www.w3.org/1999/xlink" ffdec:objectType="shape" height="14.95px" width="23.95px" xmlns="http://www.w3.org/2000/svg">
  <g transform="matrix(1.0, 0.0, 0.0, 1.0, 11.75, 11.65)">
    <path d="M8.4 -10.3 L8.5 -10.5 8.55 -10.7 8.8 -11.2 Q9.05 -11.6 9.45 -11.65 L11.75 -11.5 11.95 -11.35 Q12.35 -10.8 12.05 -10.2 L11.25 -9.2 10.0 -8.45 9.75 -8.25 9.7 -8.2 9.4 -8.1 8.95 -8.2 Q8.25 -8.05 8.2 -8.75 L8.25 -9.5 8.4 -10.3 M9.5 -9.7 L9.5 -9.65 9.55 -9.65 9.9 -9.8 10.15 -10.0 10.75 -10.4 9.75 -10.45 9.5 -9.7 M-10.7 -0.75 Q-10.1 -1.55 -9.1 -1.85 L-8.45 -2.0 Q-7.6 -2.15 -7.25 -1.45 L-7.2 -1.25 -6.0 -0.7 -5.45 -0.45 Q-5.15 -0.3 -5.2 0.05 -5.25 0.55 -5.75 0.65 L-6.2 0.8 -6.8 1.2 -7.95 1.8 -8.4 2.0 -8.5 2.15 Q-8.1 2.95 -8.9 3.25 L-9.1 3.3 Q-10.2 3.25 -10.9 2.5 L-11.6 1.55 -11.7 1.3 Q-11.9 0.4 -11.2 -0.2 L-10.7 -0.75 M-8.25 -0.5 L-8.4 -0.8 -8.45 -0.8 Q-9.25 -0.6 -9.75 0.05 L-10.55 0.9 -10.25 1.5 -9.7 1.85 Q-9.35 0.9 -8.35 0.65 L-8.2 0.6 -7.3 0.05 -7.4 0.0 -7.45 0.0 -7.45 -0.05 Q-8.0 -0.1 -8.25 -0.5" fill="#ffcc00" fill-rule="evenodd" stroke="none"/>
    <path d="M9.55 -9.65 L9.5 -9.7 9.75 -10.45 10.75 -10.4 10.15 -10.0 9.9 -9.8 9.55 -9.65 M-8.25 -0.5 Q-8.0 -0.1 -7.45 -0.05 L-7.45 0.0 -7.4 0.0 -7.3 0.05 -8.2 0.6 -8.35 0.65 Q-9.35 0.9 -9.7 1.85 L-10.25 1.5 -10.55 0.9 -9.75 0.05 Q-9.25 -0.6 -8.45 -0.8 L-8.4 -0.8 -8.25 -0.5" fill="#ffff00" fill-rule="evenodd" stroke="none"/>
  </g>
</svg>
