<?xml version="1.0" encoding="UTF-8" standalone="no"?>
<svg xmlns:ffdec="https://www.free-decompiler.com/flash" xmlns:xlink="http://www.w3.org/1999/xlink" ffdec:objectType="shape" height="4.05px" width="4.8px" xmlns="http://www.w3.org/2000/svg">
  <g transform="matrix(1.0, 0.0, 0.0, 1.0, 10.95, 0.35)">
    <path d="M-10.15 -0.35 Q-9.35 -0.3 -8.8 0.3 L-8.8 0.35 -8.35 0.55 -8.0 0.75 Q-7.1 0.9 -6.35 1.3 L-6.15 1.6 Q-6.1 2.15 -6.65 2.45 L-6.95 2.55 -7.35 2.85 -7.6 2.95 Q-8.25 3.85 -9.45 3.7 L-10.25 3.55 -10.6 3.2 -10.65 2.85 -10.95 1.6 -10.9 0.45 Q-10.85 0.0 -10.45 -0.25 L-10.15 -0.35 M-9.45 2.45 Q-8.7 2.65 -8.35 2.0 L-8.25 1.95 Q-9.1 1.6 -9.8 1.1 L-9.65 2.05 -9.65 2.1 -9.45 2.45" fill="#ffcc00" fill-rule="evenodd" stroke="none"/>
    <path d="M-9.45 2.45 L-9.65 2.1 -9.65 2.05 -9.8 1.1 Q-9.1 1.6 -8.25 1.95 L-8.35 2.0 Q-8.7 2.65 -9.45 2.45" fill="#ffff00" fill-rule="evenodd" stroke="none"/>
  </g>
</svg>
