<?xml version="1.0" encoding="UTF-8" standalone="no"?>
<svg xmlns:ffdec="https://www.free-decompiler.com/flash" xmlns:xlink="http://www.w3.org/1999/xlink" ffdec:objectType="shape" height="4.55px" width="6.35px" xmlns="http://www.w3.org/2000/svg">
  <g transform="matrix(1.0, 0.0, 0.0, 1.0, 10.75, -0.2)">
    <path d="M-4.45 2.5 Q-4.2 3.2 -4.9 3.5 L-6.0 3.9 Q-6.05 4.75 -7.0 4.75 L-7.2 4.75 -9.2 4.7 -9.9 4.55 -10.5 4.1 -10.7 3.4 -10.75 2.3 -10.45 0.8 -10.15 0.45 -9.55 0.2 Q-8.7 0.25 -8.0 0.8 -7.4 1.3 -6.6 1.45 L-6.4 1.5 -4.65 2.2 -4.45 2.5 M-8.9 1.7 Q-9.15 1.45 -9.4 1.45 L-9.5 3.3 -9.45 3.3 Q-9.3 3.5 -9.05 3.5 L-7.45 3.55 Q-7.4 2.85 -6.65 2.7 L-8.2 2.1 -8.9 1.7" fill="#ffcc00" fill-rule="evenodd" stroke="none"/>
    <path d="M-8.9 1.7 L-8.2 2.1 -6.65 2.7 Q-7.4 2.85 -7.45 3.55 L-9.05 3.5 Q-9.3 3.5 -9.45 3.3 L-9.5 3.3 -9.4 1.45 Q-9.15 1.45 -8.9 1.7" fill="#ffff00" fill-rule="evenodd" stroke="none"/>
  </g>
</svg>
