<?xml version="1.0" encoding="UTF-8" standalone="no"?>
<svg xmlns:ffdec="https://www.free-decompiler.com/flash" xmlns:xlink="http://www.w3.org/1999/xlink" ffdec:objectType="shape" height="4.65px" width="7.55px" xmlns="http://www.w3.org/2000/svg">
  <g transform="matrix(1.0, 0.0, 0.0, 1.0, 11.35, -0.05)">
    <path d="M-4.1 2.15 Q-3.75 2.35 -3.8 2.75 -3.85 3.2 -4.35 3.3 L-5.1 3.55 Q-4.6 4.25 -5.35 4.7 L-5.5 4.7 -8.8 4.7 Q-10.05 4.7 -11.05 4.0 L-11.3 3.55 -11.2 1.35 -11.15 1.0 -11.0 0.75 -10.95 0.7 Q-10.3 0.3 -9.6 0.05 L-8.3 0.75 Q-7.75 1.2 -7.05 1.45 L-6.4 1.65 -6.2 1.7 -5.05 1.95 -4.1 2.15 M-8.15 2.3 L-9.35 1.55 -9.55 1.45 -9.65 1.45 -9.95 1.55 -10.0 1.55 -10.15 2.95 -10.15 3.15 Q-9.55 3.55 -8.8 3.55 L-8.7 3.55 -6.55 3.55 -6.45 3.1 -6.35 2.95 -7.95 2.4 -8.15 2.3" fill="#ffcc00" fill-rule="evenodd" stroke="none"/>
    <path d="M-8.15 2.3 L-7.95 2.4 -6.35 2.95 -6.45 3.1 -6.55 3.55 -8.7 3.55 -8.8 3.55 Q-9.55 3.55 -10.15 3.15 L-10.15 2.95 -10.0 1.55 -9.95 1.55 -9.65 1.45 -9.55 1.45 -9.35 1.55 -8.15 2.3" fill="#ffff00" fill-rule="evenodd" stroke="none"/>
  </g>
</svg>
