<?xml version="1.0" encoding="UTF-8" standalone="no"?>
<svg xmlns:ffdec="https://www.free-decompiler.com/flash" xmlns:xlink="http://www.w3.org/1999/xlink" ffdec:objectType="shape" height="4.75px" width="7.75px" xmlns="http://www.w3.org/2000/svg">
  <g transform="matrix(1.0, 0.0, 0.0, 1.0, 10.65, -0.75)">
    <path d="M-3.4 2.55 L-3.0 2.95 Q-2.8 3.35 -3.05 3.65 -3.45 4.1 -4.0 4.15 L-4.3 4.2 -4.95 4.4 -5.1 5.15 Q-5.45 5.65 -6.05 5.45 -7.35 4.95 -8.8 4.8 L-9.1 4.75 -10.2 3.9 -10.6 2.9 Q-10.8 1.9 -10.2 1.15 L-9.95 0.95 -9.3 0.8 -6.85 1.05 -6.45 1.15 Q-5.35 1.35 -4.4 1.95 L-3.4 2.55 M-7.3 2.25 L-7.6 2.15 -9.15 2.0 -9.25 2.05 -9.35 2.05 -9.4 2.45 -9.4 2.6 -9.2 3.15 -9.15 3.25 Q-8.75 3.35 -8.35 3.55 L-8.15 3.65 -6.15 4.05 Q-6.15 3.35 -5.4 3.25 L-4.9 3.05 -6.4 2.4 -7.3 2.25" fill="#ffcc00" fill-rule="evenodd" stroke="none"/>
    <path d="M-7.3 2.25 L-6.4 2.4 -4.9 3.05 -5.4 3.25 Q-6.15 3.35 -6.15 4.05 L-8.15 3.65 -8.35 3.55 Q-8.75 3.35 -9.15 3.25 L-9.2 3.15 -9.4 2.6 -9.4 2.45 -9.35 2.05 -9.25 2.05 -9.15 2.0 -7.6 2.15 -7.3 2.25" fill="#ffff00" fill-rule="evenodd" stroke="none"/>
  </g>
</svg>
