<?xml version="1.0" encoding="UTF-8" standalone="no"?>
<svg xmlns:ffdec="https://www.free-decompiler.com/flash" xmlns:xlink="http://www.w3.org/1999/xlink" ffdec:objectType="shape" height="4.55px" width="11.4px" xmlns="http://www.w3.org/2000/svg">
  <g transform="matrix(1.0, 0.0, 0.0, 1.0, 10.3, -1.0)">
    <path d="M1.1 3.1 Q1.0 3.8 0.3 3.8 L-0.6 3.95 -1.1 4.05 Q-2.05 4.1 -2.75 4.6 L-3.45 5.2 Q-3.95 5.7 -4.6 5.5 L-5.65 5.2 -7.45 4.85 -9.2 4.75 -9.55 4.6 Q-10.25 4.1 -10.3 3.3 L-10.25 2.5 -9.9 1.7 -9.75 1.2 -9.3 1.0 -7.4 1.5 -7.1 1.55 -5.8 1.8 -1.8 2.3 -0.2 2.4 -0.05 2.4 0.75 2.6 Q1.15 2.7 1.1 3.1 M-4.3 4.25 L-3.2 3.35 -6.85 2.8 -8.85 2.35 Q-9.2 2.65 -9.15 3.15 L-9.1 3.2 -8.9 3.55 -8.85 3.55 -4.95 4.15 -4.6 4.25 -4.3 4.25" fill="#ffcc00" fill-rule="evenodd" stroke="none"/>
    <path d="M-4.3 4.25 L-4.6 4.25 -4.95 4.15 -8.85 3.55 -8.9 3.55 -9.1 3.2 -9.15 3.15 Q-9.2 2.65 -8.85 2.35 L-6.85 2.8 -3.2 3.35 -4.3 4.25" fill="#ffff00" fill-rule="evenodd" stroke="none"/>
  </g>
</svg>
