<?xml version="1.0" encoding="UTF-8" standalone="no"?>
<svg xmlns:ffdec="https://www.free-decompiler.com/flash" xmlns:xlink="http://www.w3.org/1999/xlink" ffdec:objectType="shape" height="4.9px" width="13.55px" xmlns="http://www.w3.org/2000/svg">
  <g transform="matrix(1.0, 0.0, 0.0, 1.0, 10.35, -0.2)">
    <path d="M3.2 2.05 Q3.25 2.55 2.75 2.75 L1.95 3.05 0.7 3.5 0.15 3.65 -0.35 3.8 -1.05 3.9 -3.1 4.1 Q-3.15 4.95 -4.05 5.05 L-7.65 4.75 -7.7 4.75 -7.8 4.7 -7.9 4.7 Q-8.55 5.2 -9.2 4.7 L-9.9 3.85 -10.2 3.1 -10.2 3.05 Q-10.45 2.15 -10.25 1.15 L-10.15 0.95 Q-10.2 0.6 -9.95 0.4 L-9.55 0.2 -8.5 0.75 -8.05 0.95 -7.55 1.1 -5.35 1.3 -5.1 1.35 -3.25 1.55 2.65 1.6 Q3.15 1.6 3.2 2.05 M-1.4 2.8 L-5.3 2.5 -7.55 2.3 -7.95 2.2 -9.15 1.8 -9.0 2.9 -8.6 3.55 -7.0 3.75 -4.35 3.85 Q-4.3 3.05 -3.4 2.95 L-1.4 2.8" fill="#ffcc00" fill-rule="evenodd" stroke="none"/>
    <path d="M-1.4 2.8 L-3.4 2.95 Q-4.3 3.05 -4.35 3.85 L-7.0 3.75 -8.6 3.55 -9.0 2.9 -9.15 1.8 -7.95 2.2 -7.55 2.3 -5.3 2.5 -1.4 2.8" fill="#ffff00" fill-rule="evenodd" stroke="none"/>
  </g>
</svg>
