<?xml version="1.0" encoding="UTF-8" standalone="no"?>
<svg xmlns:ffdec="https://www.free-decompiler.com/flash" xmlns:xlink="http://www.w3.org/1999/xlink" ffdec:objectType="shape" height="5.4px" width="14.45px" xmlns="http://www.w3.org/2000/svg">
  <g transform="matrix(1.0, 0.0, 0.0, 1.0, 9.35, -0.8)">
    <path d="M3.35 1.4 Q4.1 1.2 4.85 1.4 L5.0 1.5 5.05 1.65 Q5.2 2.05 4.85 2.4 L3.75 3.45 2.2 4.4 1.8 5.05 1.35 5.2 0.85 5.3 Q0.75 5.8 0.2 5.85 L-1.15 5.8 -1.8 5.7 -2.8 5.6 -3.2 5.55 Q-3.45 6.3 -4.15 6.2 L-4.95 5.85 -5.1 5.75 -5.4 5.6 -5.7 5.4 -5.9 5.2 Q-6.3 4.9 -6.8 4.75 L-6.95 4.75 Q-7.8 4.95 -8.4 4.35 L-8.55 4.15 -9.2 2.85 -9.35 1.45 Q-9.25 0.9 -8.7 0.8 L-7.7 1.05 -6.3 1.25 -5.05 1.5 Q-1.0 1.8 3.05 1.45 L3.35 1.4 M2.45 2.85 L2.6 2.75 Q-1.45 3.0 -5.45 2.6 L-5.75 2.55 -7.9 2.35 -8.05 2.3 -8.1 2.35 -7.5 3.5 -7.45 3.55 Q-6.35 3.35 -5.45 4.05 L-4.2 4.85 -3.5 4.35 -2.3 4.45 -1.8 4.55 -0.35 4.7 Q0.05 4.05 0.85 4.05 0.85 3.35 1.55 3.25 L2.2 3.05 2.45 2.85" fill="#ffcc00" fill-rule="evenodd" stroke="none"/>
    <path d="M2.45 2.85 L2.2 3.05 1.55 3.25 Q0.85 3.35 0.85 4.05 0.05 4.05 -0.35 4.7 L-1.8 4.55 -2.3 4.45 -3.5 4.35 -4.2 4.85 -5.45 4.05 Q-6.35 3.35 -7.45 3.55 L-7.5 3.5 -8.1 2.35 -8.05 2.3 -7.9 2.35 -5.75 2.55 -5.45 2.6 Q-1.45 3.0 2.6 2.75 L2.45 2.85" fill="#ffff00" fill-rule="evenodd" stroke="none"/>
  </g>
</svg>
