<?xml version="1.0" encoding="UTF-8" standalone="no"?>
<svg xmlns:ffdec="https://www.free-decompiler.com/flash" xmlns:xlink="http://www.w3.org/1999/xlink" ffdec:objectType="shape" height="5.7px" width="14.85px" xmlns="http://www.w3.org/2000/svg">
  <g transform="matrix(1.0, 0.0, 0.0, 1.0, 6.8, 0.0)">
    <path d="M7.65 1.8 Q6.9 2.95 5.65 3.6 5.4 4.45 4.5 4.55 L3.3 4.75 Q3.25 5.55 2.45 5.65 L0.0 5.7 -0.1 5.7 -3.55 5.65 -4.4 5.55 -5.15 5.4 Q-6.05 5.25 -5.9 4.3 L-6.0 4.2 -6.1 4.05 Q-7.05 3.6 -6.7 2.65 L-6.4 2.4 -5.9 2.3 3.0 1.55 4.6 1.05 4.9 0.95 7.05 0.1 7.4 0.05 7.4 0.0 Q8.15 0.1 8.05 0.8 L7.65 1.8 M5.75 2.05 L5.85 2.0 3.9 2.55 2.9 2.75 1.05 2.95 0.25 3.05 -1.85 3.25 -4.15 3.4 -4.95 3.45 -4.8 3.8 -4.7 4.2 -3.4 4.4 0.1 4.55 0.2 4.55 2.1 4.55 Q2.0 3.65 2.9 3.55 L3.2 3.5 4.3 3.3 Q4.45 2.7 5.1 2.4 L5.75 2.05" fill="#ffcc00" fill-rule="evenodd" stroke="none"/>
    <path d="M5.75 2.05 L5.1 2.4 Q4.45 2.7 4.3 3.3 L3.2 3.5 2.9 3.55 Q2.0 3.65 2.1 4.55 L0.2 4.55 0.1 4.55 -3.4 4.4 -4.7 4.2 -4.8 3.8 -4.95 3.45 -4.15 3.4 -1.85 3.25 0.25 3.05 1.05 2.95 2.9 2.75 3.9 2.55 5.85 2.0 5.75 2.05" fill="#ffff00" fill-rule="evenodd" stroke="none"/>
  </g>
</svg>
