<?xml version="1.0" encoding="UTF-8" standalone="no"?>
<svg xmlns:ffdec="https://www.free-decompiler.com/flash" xmlns:xlink="http://www.w3.org/1999/xlink" ffdec:objectType="shape" height="7.15px" width="15.35px" xmlns="http://www.w3.org/2000/svg">
  <g transform="matrix(1.0, 0.0, 0.0, 1.0, 5.1, 1.35)">
    <path d="M9.95 -1.05 Q10.35 -0.9 10.25 -0.35 L10.15 0.0 9.25 1.35 8.9 1.65 8.25 2.15 8.1 2.3 7.15 3.3 Q7.4 4.05 6.65 4.3 L5.2 4.55 4.95 4.55 4.2 4.85 4.2 4.9 Q4.15 5.75 3.25 5.75 L3.1 5.8 -1.65 5.75 -2.5 5.7 -3.1 5.6 -3.85 5.1 -4.55 4.4 -5.0 3.25 Q-5.35 2.55 -4.65 2.25 L-4.3 2.25 -2.25 2.2 0.0 1.9 2.05 1.55 2.65 1.4 4.3 1.05 7.05 0.0 8.4 -0.8 8.55 -0.9 9.35 -1.35 9.95 -1.05 M6.8 1.95 L7.65 1.1 7.2 1.3 4.45 2.25 2.95 2.6 2.15 2.75 1.5 2.85 -1.15 3.3 -2.0 3.4 -2.15 3.4 -3.7 3.4 -3.35 3.9 -2.85 4.35 -2.65 4.4 -2.6 4.45 -1.5 4.5 3.0 4.55 Q3.1 3.85 3.85 3.65 L4.95 3.35 5.9 3.25 Q5.85 2.35 6.7 2.0 L6.8 1.95" fill="#ffcc00" fill-rule="evenodd" stroke="none"/>
    <path d="M6.8 1.95 L6.7 2.0 Q5.85 2.35 5.9 3.25 L4.95 3.35 3.85 3.65 Q3.1 3.85 3.0 4.55 L-1.5 4.5 -2.6 4.45 -2.65 4.4 -2.85 4.35 -3.35 3.9 -3.7 3.4 -2.15 3.4 -2.0 3.4 -1.15 3.3 1.5 2.85 2.15 2.75 2.95 2.6 4.45 2.25 7.2 1.3 7.65 1.1 6.8 1.95" fill="#ffff00" fill-rule="evenodd" stroke="none"/>
  </g>
</svg>
