<?xml version="1.0" encoding="UTF-8" standalone="no"?>
<svg xmlns:ffdec="https://www.free-decompiler.com/flash" xmlns:xlink="http://www.w3.org/1999/xlink" ffdec:objectType="shape" height="10.4px" width="26.6px" xmlns="http://www.w3.org/2000/svg">
  <g transform="matrix(1.0, 0.0, 0.0, 1.0, 13.95, 4.7)">
    <path d="M6.85 -3.55 L10.05 -3.25 Q11.1 -2.9 11.95 -2.1 L11.95 -1.6 11.7 -1.15 11.45 -1.25 11.2 -1.3 11.25 -1.15 11.25 -1.1 11.15 0.0 11.05 0.15 10.55 -0.15 10.5 -0.2 10.25 -0.35 10.05 -0.35 9.95 -0.15 9.9 -0.1 Q9.75 0.6 9.2 0.35 L8.5 -0.05 7.7 -0.55 Q7.55 -0.6 7.5 -0.7 L7.3 -1.3 7.3 -1.4 7.3 -1.8 7.3 -2.55 7.0 -3.25 6.85 -3.4 6.85 -3.55 M9.9 2.45 L9.4 1.85 9.9 2.35 9.9 2.45 M6.4 -0.2 L6.7 -0.4 6.7 -0.35 7.3 -0.05 7.25 0.1 6.65 -0.1 6.65 -0.05 6.5 0.0 6.4 -0.2 M4.55 -3.25 L4.5 -3.35 4.4 -3.4 4.4 -3.5 4.4 -3.7 4.5 -3.75 4.6 -3.85 4.65 -3.9 4.75 -3.9 6.05 -3.55 6.1 -3.5 6.15 -3.35 Q6.8 -3.05 6.85 -2.3 6.45 -2.9 5.85 -2.65 L5.55 -2.5 5.55 -2.55 5.3 -2.35 5.1 -2.45 5.05 -2.45 5.15 -2.75 5.1 -2.8 5.05 -2.9 4.55 -3.25 M5.55 -0.7 L5.5 -0.8 5.5 -0.85 5.5 -0.95 5.55 -0.75 5.55 -0.7 M5.15 -1.5 L5.3 -0.95 4.65 -0.7 -0.7 1.7 -4.85 3.15 -4.9 3.15 -5.0 2.8 -4.95 2.8 -4.8 2.5 Q-5.0 2.2 -5.35 2.3 L-5.3 2.25 -4.7 1.75 Q-3.75 1.65 -3.1 1.0 L-2.65 0.95 -2.5 0.85 Q-1.8 0.7 -1.25 0.2 L-1.6 -0.45 -6.0 0.35 -5.9 0.25 Q-5.7 0.2 -5.75 -0.05 L-5.65 -0.25 -5.7 -0.6 -5.7 -0.65 Q-5.95 -1.3 -6.5 -1.4 L-6.6 -1.95 4.0 -3.05 4.4 -3.1 4.7 -2.5 4.85 -2.25 5.1 -1.7 5.1 -1.65 5.1 -1.55 5.15 -1.5 M-11.15 -1.4 L-10.75 -1.5 -10.6 -0.9 -10.65 -0.9 -10.85 -0.95 -11.15 -1.4 M10.4 -0.05 L10.45 -0.05 10.5 0.0 10.4 -0.05 M9.85 1.45 L9.75 1.4 9.75 1.35 9.85 1.45" fill="#ffffff" fill-rule="evenodd" stroke="none"/>
    <path d="M4.4 -3.1 L4.55 -3.25 5.05 -2.9 5.1 -2.8 5.15 -2.75 5.05 -2.45 5.1 -2.45 Q4.95 -2.0 5.1 -1.7 L4.85 -2.25 4.7 -2.5 4.4 -3.1 M7.6 -0.1 L7.35 -0.4 7.4 -0.55 7.45 -0.65 7.5 -0.7 Q7.55 -0.6 7.7 -0.55 L8.5 -0.05 9.2 0.35 9.05 0.75 8.4 0.35 Q8.1 0.35 8.05 0.15 L8.05 0.1 Q7.75 0.0 7.6 -0.1" fill="#cc0000" fill-rule="evenodd" stroke="none"/>
    <path d="M12.1 -0.65 L12.1 1.0 12.0 1.6 11.65 1.9 10.55 2.85 9.9 2.45 9.9 2.35 9.4 1.85 9.3 1.35 9.3 1.15 9.4 1.1 9.3 1.0 9.1 0.8 9.05 0.75 9.2 0.35 Q9.75 0.6 9.9 -0.1 L9.95 -0.15 10.05 -0.35 10.25 -0.35 10.5 -0.2 10.55 -0.15 11.05 0.15 11.15 0.0 11.25 -1.1 11.25 -1.15 11.2 -1.3 11.45 -1.25 11.7 -1.15 11.7 -1.05 11.7 -0.75 11.75 -0.7 12.1 -0.65 M6.85 -2.3 L6.9 -2.25 6.95 -2.2 6.95 -2.1 6.95 -2.0 7.0 -1.95 7.05 -1.85 7.05 -1.65 7.05 -1.55 7.05 -1.45 6.9 -1.4 6.95 -1.35 6.95 -1.25 6.9 -1.05 6.65 -0.95 6.45 -0.9 6.25 -0.9 6.25 -0.75 6.3 -0.7 6.25 -0.6 Q6.0 -0.35 5.7 -0.45 L5.55 -0.7 5.55 -0.75 5.5 -0.95 5.5 -1.0 5.5 -1.1 5.6 -1.25 5.65 -1.3 5.65 -1.4 5.55 -1.5 5.55 -1.6 5.5 -1.8 5.35 -2.05 5.3 -2.1 5.3 -2.35 5.55 -2.55 5.55 -2.5 5.85 -2.65 Q6.45 -2.9 6.85 -2.3 M-9.35 4.4 L-10.6 4.75 -11.9 5.2 Q-12.35 4.3 -12.4 3.5 L-12.3 3.5 Q-12.65 1.75 -13.0 1.35 L-13.15 1.15 -13.4 0.25 -13.4 0.0 -13.2 -1.2 -11.15 -1.4 -10.85 -0.95 -10.65 -0.9 -10.4 -0.8 -10.3 -0.75 -10.25 -0.4 -10.2 0.05 -10.5 1.0 -10.65 1.2 -10.65 1.3 -10.65 1.35 -10.7 1.45 -7.5 1.45 -7.4 1.5 Q-7.2 2.3 -7.95 2.55 L-9.45 2.9 -9.8 3.05 -10.0 3.1 -9.9 3.3 -9.9 3.35 -9.2 3.6 -9.1 3.7 -9.5 4.05 -9.35 4.4 M10.4 -0.05 L10.5 0.0 10.45 -0.05 10.4 -0.05 M9.85 1.45 L9.75 1.35 9.75 1.4 9.85 1.45 M7.65 0.95 L7.6 1.0 Q7.2 1.3 6.9 0.75 L6.75 0.55 6.7 0.35 6.65 0.25 6.65 0.15 6.7 0.05 6.7 0.0 6.8 0.0 7.2 0.3 7.2 0.35 7.65 0.85 7.65 0.95" fill="#cccccc" fill-rule="evenodd" stroke="none"/>
    <path d="M8.3 0.6 L7.0 1.95 5.7 -0.2 6.3 -0.15 6.4 -0.2 6.5 0.0 6.65 -0.05 6.65 -0.1 7.25 0.1 7.3 -0.05 7.55 0.05 8.3 0.6 M7.05 -1.85 L7.1 -1.8 7.05 -1.55 7.05 -1.65 7.05 -1.85 M7.65 0.95 L7.65 0.85 7.2 0.35 7.2 0.3 6.8 0.0 6.7 0.0 6.7 0.05 6.65 0.15 6.65 0.25 6.7 0.35 6.75 0.55 6.9 0.75 Q7.2 1.3 7.6 1.0 L7.65 0.95" fill="#a8672d" fill-rule="evenodd" stroke="none"/>
    <path d="M9.4 1.85 L9.35 1.8 8.3 0.6 7.55 0.05 7.6 -0.1 Q7.75 0.0 8.05 0.1 L8.05 0.15 Q8.1 0.35 8.4 0.35 L9.05 0.75 9.1 0.8 9.3 1.0 9.4 1.1 9.3 1.15 9.3 1.35 9.4 1.85 M5.45 -1.1 L5.15 -1.5 5.1 -1.55 5.1 -1.65 5.1 -1.7 Q4.95 -2.0 5.1 -2.45 L5.3 -2.35 5.3 -2.1 5.35 -2.05 5.5 -1.8 5.55 -1.6 5.55 -1.5 5.65 -1.4 5.55 -1.35 5.45 -1.25 5.45 -1.1 M5.05 -2.9 L5.1 -2.8 5.15 -2.75 5.1 -2.8 5.05 -2.9" fill="#ffcc00" fill-rule="evenodd" stroke="none"/>
    <path d="M5.5 -1.0 L5.45 -1.1 5.45 -1.25 5.55 -1.35 5.65 -1.4 5.65 -1.3 5.6 -1.25 5.5 -1.1 5.5 -1.0 M6.25 -0.75 L6.25 -0.9 6.45 -0.9 6.25 -0.75" fill="#dddddd" fill-rule="evenodd" stroke="none"/>
    <path d="M6.65 -0.95 L6.6 -0.7 6.55 -0.65 6.5 -0.6 6.45 -0.55 6.25 -0.6 6.3 -0.7 6.25 -0.75 6.45 -0.9 6.65 -0.95 M-4.9 3.15 L-8.2 4.15 -9.35 4.4 -9.5 4.05 -9.1 3.7 -9.2 3.6 -9.9 3.35 -9.9 3.3 -10.0 3.1 -9.8 3.05 -9.45 2.9 -7.95 2.55 Q-7.2 2.3 -7.4 1.5 L-7.5 1.45 -10.7 1.45 -10.65 1.35 -10.65 1.3 -10.65 1.2 -10.5 1.0 -10.2 0.05 -10.25 -0.4 -10.3 -0.75 -10.4 -0.8 -10.65 -0.9 -10.6 -0.9 -10.75 -1.5 -6.6 -1.95 -6.5 -1.4 Q-5.95 -1.3 -5.7 -0.65 L-5.7 -0.6 -5.65 -0.25 -5.75 -0.05 Q-5.7 0.2 -5.9 0.25 L-6.0 0.35 -1.6 -0.45 -1.25 0.2 Q-1.8 0.7 -2.5 0.85 L-2.65 0.95 -3.1 1.0 Q-3.75 1.65 -4.7 1.75 L-5.3 2.25 -5.35 2.3 Q-5.0 2.2 -4.8 2.5 L-4.95 2.8 -5.0 2.8 -4.9 3.15" fill="#eeeeee" fill-rule="evenodd" stroke="none"/>
    <path d="M6.7 -0.4 L6.75 -0.4 6.95 -0.55 7.05 -0.6 7.15 -0.8 7.2 -0.9 7.3 -1.3 7.5 -0.7 7.45 -0.65 7.4 -0.55 7.35 -0.4 7.6 -0.1 7.55 0.05 7.3 -0.05 6.7 -0.35 6.7 -0.4" fill="#ffcccc" fill-rule="evenodd" stroke="none"/>
    <path d="M4.0 -3.05 L4.05 -3.4 4.2 -3.8 4.25 -3.85 4.35 -3.95 4.55 -4.1 4.6 -4.15 5.35 -4.2 5.65 -4.2 5.9 -4.15 6.05 -4.05 6.25 -3.9 6.4 -3.75 6.6 -3.65 6.75 -3.55 6.85 -3.55 10.05 -3.25 Q11.1 -2.9 11.95 -2.1 M11.95 -1.6 L12.1 -0.65 12.1 1.0 12.0 1.6 11.65 1.9 10.55 2.85 M9.9 2.45 L9.4 1.85 9.35 1.8 8.3 0.6 7.0 1.95 5.7 -0.2 6.3 -0.15 6.4 -0.2 6.7 -0.4 6.75 -0.4 6.95 -0.55 7.05 -0.6 7.15 -0.8 7.2 -0.9 7.3 -1.3 7.3 -1.4 7.3 -1.8 7.3 -2.55 7.0 -3.25 6.85 -3.4 6.75 -3.55 M5.15 -1.5 L5.3 -0.95 4.65 -0.7 -0.7 1.7 -4.85 3.15 -4.9 3.15 -8.2 4.15 -9.35 4.4 -10.6 4.75 -11.9 5.2 Q-12.35 4.3 -12.4 3.5 -12.5 2.75 -12.3 3.5 -12.65 1.75 -13.0 1.35 L-13.15 1.15 -13.4 0.25 -13.4 0.0 -13.2 -1.2 -11.15 -1.4 -10.75 -1.5 -6.6 -1.95 4.0 -3.05 4.4 -3.1 4.7 -2.5 4.85 -2.25 5.1 -1.7 5.1 -1.65 5.1 -1.55 5.15 -1.5 M6.7 -0.4 L6.7 -0.35 7.3 -0.05 7.55 0.05 8.3 0.6" fill="none" stroke="#666666" stroke-linecap="round" stroke-linejoin="round" stroke-width="1.0"/>
  </g>
</svg>
