<?xml version="1.0" encoding="UTF-8" standalone="no"?>
<svg xmlns:ffdec="https://www.free-decompiler.com/flash" xmlns:xlink="http://www.w3.org/1999/xlink" ffdec:objectType="shape" height="12.3px" width="16.05px" xmlns="http://www.w3.org/2000/svg">
  <g transform="matrix(1.0, 0.0, 0.0, 1.0, -1.65, 8.4)">
    <path d="M9.85 -5.0 L9.05 -5.1 8.35 -5.25 7.5 -5.4 6.7 -5.4 5.35 -5.35 Q5.6 -4.7 6.5 -4.6 L6.6 -4.55 6.5 -4.4 6.35 -3.95 6.6 -3.65 6.75 -3.7 7.3 -4.05 7.55 -4.0 8.2 -4.1 8.4 -4.1 8.5 -4.05 8.6 -4.1 9.7 -4.05 9.95 -4.15 10.0 -4.25 10.1 -4.35 10.05 -4.35 10.1 -4.4 10.15 -4.5 9.85 -5.0 M9.9 -1.85 L9.55 -1.6 9.45 -1.45 9.35 -1.45 9.3 -1.45 Q9.55 -1.75 9.9 -1.85 M16.75 -1.65 L16.5 -2.05 16.4 -2.3 16.15 -2.5 15.8 -2.95 15.7 -3.0 15.65 -3.0 15.45 -2.95 15.35 -3.05 15.7 -3.05 15.7 -3.15 Q15.65 -3.9 14.7 -4.0 L13.85 -4.25 13.6 -4.3 12.5 -4.15 Q10.6 -3.95 9.0 -3.15 L8.9 -3.05 8.9 -2.95 8.85 -2.8 8.65 -2.8 8.5 -2.75 8.45 -2.7 8.2 -2.1 8.15 -2.0 8.2 -1.85 8.2 -1.7 8.15 -1.6 7.6 -0.9 7.35 -0.45 Q7.45 -0.15 7.75 -0.1 L7.85 -0.1 7.9 -0.15 8.0 -0.2 7.8 0.35 7.85 0.4 7.85 0.45 8.0 1.25 7.75 1.85 7.7 1.8 7.6 1.8 7.45 1.75 7.25 1.95 7.15 2.25 7.45 2.65 7.65 3.4 7.65 3.5 7.6 3.65 7.7 3.8 5.9 3.05 1.65 -8.4 16.05 -4.05 17.7 -0.5 17.05 -0.9 17.3 -1.05 17.3 -1.15 16.75 -1.65 M9.15 -1.15 L9.25 -1.35 9.3 -1.4 9.2 -1.2 9.15 -1.15 M10.65 -1.55 L10.75 -1.75 10.9 -1.7 11.0 -1.7 10.3 -1.0 10.25 -1.05 10.55 -1.35 10.65 -1.55 M14.65 -1.95 L14.8 -1.9 15.2 -1.75 14.65 -1.95" fill="#4b25bd" fill-rule="evenodd" stroke="none"/>
    <path d="M11.4 -2.45 L11.8 -2.55 11.9 -2.6 11.95 -2.65 12.4 -2.6 12.45 -2.6 13.05 -2.8 13.35 -2.8 14.25 -2.45 14.0 -2.5 11.45 -2.45 11.4 -2.45 M16.5 -2.05 L16.15 -2.5 16.4 -2.3 16.5 -2.05 M15.45 -2.95 L15.35 -2.85 15.15 -2.9 14.95 -3.0 15.35 -3.05 15.45 -2.95" fill="#0f0727" fill-rule="evenodd" stroke="none"/>
    <path d="M9.85 -5.0 L10.15 -4.5 10.1 -4.4 10.05 -4.35 10.1 -4.35 10.0 -4.25 9.95 -4.15 9.7 -4.05 8.6 -4.1 8.5 -4.05 8.4 -4.1 8.2 -4.1 7.55 -4.0 7.3 -4.05 6.75 -3.7 6.6 -3.65 6.35 -3.95 6.5 -4.4 6.6 -4.55 6.5 -4.6 Q5.6 -4.7 5.35 -5.35 L6.7 -5.4 7.5 -5.4 8.35 -5.25 9.05 -5.1 9.85 -5.0" fill="#6331f8" fill-rule="evenodd" stroke="none"/>
    <path d="M10.3 -2.25 L10.2 -2.25 9.9 -2.1 9.2 -1.55 9.2 -1.45 9.25 -1.4 9.25 -1.35 9.15 -1.15 8.55 0.35 8.45 0.5 8.2 0.6 8.05 0.6 7.85 0.4 7.8 0.35 8.0 -0.2 7.9 -0.15 7.85 -0.1 7.75 -0.1 Q7.45 -0.15 7.35 -0.45 L7.6 -0.9 8.15 -1.6 8.2 -1.7 8.2 -1.85 8.15 -2.0 8.2 -2.1 8.45 -2.7 8.5 -2.75 8.65 -2.8 8.85 -2.8 8.9 -2.95 8.9 -3.05 9.0 -3.15 Q10.6 -3.95 12.5 -4.15 L13.6 -4.3 13.85 -4.25 14.7 -4.0 Q15.65 -3.9 15.7 -3.15 L15.7 -3.05 15.35 -3.05 14.95 -3.0 15.15 -2.9 15.35 -2.85 15.45 -2.95 15.65 -3.0 15.7 -3.0 15.8 -2.95 16.15 -2.5 16.5 -2.05 16.75 -1.65 16.85 -1.5 16.85 -1.4 16.8 -1.35 15.8 -2.05 14.65 -2.6 14.6 -2.55 14.4 -2.5 14.35 -2.4 14.4 -2.35 14.25 -2.45 13.35 -2.8 13.05 -2.8 12.45 -2.6 12.4 -2.6 11.95 -2.65 11.9 -2.6 11.8 -2.55 11.4 -2.45 11.05 -2.45 10.85 -2.4 10.3 -2.25" fill="#4120a4" fill-rule="evenodd" stroke="none"/>
    <path d="M11.05 -2.45 L11.4 -2.45 11.45 -2.45 11.1 -2.35 11.05 -2.45" fill="#2a1569" fill-rule="evenodd" stroke="none"/>
    <path d="M9.2 -1.45 L9.2 -1.55 9.9 -2.1 10.2 -2.25 10.3 -2.25 10.2 -2.2 9.2 -1.45 M7.85 0.4 L8.05 0.6 8.2 0.6 8.45 0.5 8.55 0.35 8.65 0.4 8.85 0.45 9.0 0.45 9.05 0.4 9.15 0.35 9.25 0.25 9.3 0.15 9.35 0.05 9.35 -0.1 9.55 -0.2 9.6 -0.3 9.65 -0.4 9.65 -0.5 9.65 -0.65 9.65 -0.75 10.1 -1.25 10.65 -1.55 10.55 -1.35 10.25 -1.05 10.3 -1.0 9.55 0.25 9.35 0.15 7.8 3.9 7.7 3.8 7.6 3.65 7.65 3.5 7.65 3.4 7.45 2.65 7.15 2.25 7.25 1.95 7.45 1.75 7.6 1.8 7.7 1.8 7.75 1.85 8.0 1.25 7.85 0.45 7.85 0.4" fill="#351a84" fill-rule="evenodd" stroke="none"/>
    <path d="M9.9 -1.85 Q9.55 -1.75 9.3 -1.45 L9.35 -1.45 9.45 -1.45 9.55 -1.6 9.9 -1.85 M10.3 -2.25 L10.85 -2.4 11.05 -2.45 11.1 -2.35 11.45 -2.45 14.0 -2.5 14.25 -2.45 14.4 -2.35 14.35 -2.4 14.4 -2.5 14.6 -2.55 14.65 -2.6 15.8 -2.05 16.8 -1.35 16.85 -1.4 16.85 -1.5 16.75 -1.65 17.3 -1.15 17.3 -1.05 17.05 -0.9 16.4 -1.2 16.1 -1.35 15.75 -1.5 15.7 -1.5 15.7 -1.55 15.65 -1.55 15.55 -1.6 15.2 -1.75 14.8 -1.9 14.65 -1.95 14.6 -1.95 14.4 -2.0 13.8 -2.15 13.05 -2.2 13.0 -2.2 Q11.9 -2.25 11.1 -1.75 L11.05 -1.7 11.0 -1.7 10.9 -1.7 10.75 -1.75 10.65 -1.55 10.1 -1.25 9.65 -0.75 9.65 -0.65 9.65 -0.5 9.65 -0.4 9.6 -0.3 9.55 -0.2 9.35 -0.1 9.35 0.05 9.3 0.15 9.25 0.25 9.15 0.35 9.05 0.4 9.0 0.45 8.85 0.45 8.65 0.4 8.55 0.35 9.15 -1.15 9.2 -1.2 9.3 -1.4 9.25 -1.35 9.25 -1.4 9.2 -1.45 10.2 -2.2 10.3 -2.25" fill="#0a051a" fill-rule="evenodd" stroke="none"/>
  </g>
</svg>
