<?xml version="1.0" encoding="UTF-8" standalone="no"?>
<svg xmlns:ffdec="https://www.free-decompiler.com/flash" xmlns:xlink="http://www.w3.org/1999/xlink" ffdec:objectType="shape" height="16.7px" width="16.7px" xmlns="http://www.w3.org/2000/svg">
  <g transform="matrix(1.0, 0.0, 0.0, 1.0, 12.65, 8.2)">
    <path d="M-2.05 -7.4 Q-0.2 -6.85 1.25 -5.4 3.55 -3.1 3.55 0.15 3.55 3.4 1.25 5.7 -1.05 8.0 -4.3 8.0 -7.55 8.0 -9.85 5.7 -12.15 3.4 -12.15 0.15 -12.15 -3.1 -9.85 -5.4 -8.4 -6.85 -6.5 -7.4 L-4.3 -7.7 -2.05 -7.4" fill="#000000" fill-rule="evenodd" stroke="none"/>
    <path d="M-2.05 -7.4 Q-0.2 -6.85 1.25 -5.4 3.55 -3.1 3.55 0.15 3.55 3.4 1.25 5.7 -1.05 8.0 -4.3 8.0 -7.55 8.0 -9.85 5.7 -12.15 3.4 -12.15 0.15 -12.15 -3.1 -9.85 -5.4 -8.4 -6.85 -6.5 -7.4 L-4.3 -7.7 -2.05 -7.4 Z" fill="none" stroke="#000000" stroke-linecap="round" stroke-linejoin="round" stroke-width="1.0"/>
  </g>
</svg>
