<?xml version="1.0" encoding="UTF-8" standalone="no"?>
<svg xmlns:ffdec="https://www.free-decompiler.com/flash" xmlns:xlink="http://www.w3.org/1999/xlink" ffdec:objectType="shape" height="19.0px" width="18.55px" xmlns="http://www.w3.org/2000/svg">
  <g transform="matrix(1.0, 0.0, 0.0, 1.0, 9.25, 9.5)">
    <path d="M-8.2 0.9 Q-8.65 -0.15 -8.75 -1.35 L-8.75 -1.75 Q-8.75 -4.75 -6.2 -6.9 -3.6 -9.05 0.05 -9.0 3.6 -9.05 6.1 -7.05 L6.25 -6.9 5.85 -6.6 Q3.05 -7.6 -0.15 -7.2 L-1.25 -6.75 -2.8 -5.75 -2.95 -5.65 -2.95 -5.5 -3.0 -5.4 -3.35 -5.2 -3.45 -5.1 -3.65 -4.85 -3.7 -4.7 -3.85 -4.6 -4.0 -4.45 -4.0 -4.4 -4.25 -3.7 -4.3 -3.55 -4.4 -3.3 -4.5 -3.2 -4.5 -2.65 -4.5 -2.55 -4.5 -2.3 -4.45 -2.15 -4.7 -1.9 Q-3.95 -1.35 -3.55 -0.65 L-3.65 -0.55 Q-4.45 -0.7 -5.25 -1.25 -6.15 -1.9 -6.65 -2.75 L-6.7 -2.75 Q-7.6 -2.8 -7.9 -2.15 L-8.0 -1.6 -8.0 -1.45 -7.75 -0.6 -6.3 1.0 Q-5.5 1.55 -4.7 1.7 L-4.9 2.0 -5.15 2.05 -5.25 2.2 -5.35 2.45 -5.3 2.55 -5.15 2.85 -5.15 3.1 -4.8 4.5 -4.65 4.6 -4.8 4.85 -4.8 6.25 -4.75 7.45 -4.85 7.5 -4.85 7.75 -4.8 8.4 -4.4 8.6 -4.4 9.0 -6.0 9.0 -6.85 6.25 -8.2 0.9 M-6.85 6.25 L-4.8 6.25 -6.85 6.25" fill="#fefefe" fill-rule="evenodd" stroke="none"/>
    <path d="M6.25 -6.9 Q8.8 -4.75 8.8 -1.75 8.8 1.3 6.25 3.4 L4.55 4.95 3.2 9.0 -4.4 9.0 -4.4 8.6 -4.8 8.4 -4.85 7.75 -4.85 7.5 -4.75 7.45 -4.8 6.25 -4.8 4.85 -4.65 4.6 -4.8 4.5 -5.15 3.1 -5.15 2.85 -5.3 2.55 -5.35 2.45 -5.25 2.2 -5.15 2.05 -4.9 2.0 -4.7 1.7 -4.45 1.75 Q-3.6 1.75 -3.25 1.15 -2.95 0.45 -3.4 -0.45 L-3.45 -0.5 -3.55 -0.65 Q-3.95 -1.35 -4.7 -1.9 L-4.45 -2.15 -4.5 -2.3 -4.5 -2.55 -4.5 -2.65 -4.5 -3.2 -4.4 -3.3 -4.3 -3.55 -4.25 -3.7 -4.0 -4.4 -4.0 -4.45 -3.85 -4.6 -3.7 -4.7 -3.65 -4.85 -3.45 -5.1 -3.35 -5.2 -3.0 -5.4 -2.95 -5.5 -2.95 -5.65 -2.8 -5.75 -1.25 -6.75 -0.15 -7.2 Q3.05 -7.6 5.85 -6.6 L6.25 -6.9 M-2.7 6.25 L-4.8 6.25 -2.7 6.25 -2.7 4.9 -2.7 6.25 -0.45 6.25 -2.7 6.25 -2.7 7.45 -2.7 6.25 M3.05 -2.9 L2.9 -2.7 Q2.3 -1.75 1.1 -1.1 -0.05 -0.4 -1.15 -0.35 L-1.25 -0.4 -1.3 -0.35 Q-1.65 0.35 -1.3 0.95 -0.95 1.55 0.1 1.55 1.2 1.5 2.35 0.8 3.55 0.15 4.15 -0.8 L4.5 -1.95 4.35 -2.35 3.6 -2.9 3.05 -2.95 2.9 -2.95 3.05 -2.9 M-0.45 6.25 L-0.45 7.45 -0.45 6.25 -0.45 4.9 -0.45 6.25 1.6 6.25 -0.45 6.25" fill="#e8e8e8" fill-rule="evenodd" stroke="none"/>
    <path d="M-3.45 -0.5 L-3.4 -0.45 Q-2.95 0.45 -3.25 1.15 -3.6 1.75 -4.45 1.75 L-4.7 1.7 Q-5.5 1.55 -6.3 1.0 L-7.75 -0.6 -8.0 -1.45 -8.0 -1.6 -7.9 -2.15 Q-7.6 -2.8 -6.7 -2.75 L-6.65 -2.75 Q-6.15 -1.9 -5.25 -1.25 -4.45 -0.7 -3.65 -0.55 L-3.45 -0.5 M-1.15 -0.35 Q-0.05 -0.4 1.1 -1.1 2.3 -1.75 2.9 -2.7 L3.05 -2.9 3.05 -2.95 3.6 -2.9 4.35 -2.35 4.5 -1.95 4.15 -0.8 Q3.55 0.15 2.35 0.8 1.2 1.5 0.1 1.55 -0.95 1.55 -1.3 0.95 -1.65 0.35 -1.3 -0.35 L-1.15 -0.35" fill="#333333" fill-rule="evenodd" stroke="none"/>
    <path d="M-8.2 0.9 Q-8.65 -0.15 -8.75 -1.35 L-8.75 -1.75 Q-8.75 -4.75 -6.2 -6.9 -3.6 -9.05 0.05 -9.0 3.6 -9.05 6.1 -7.05 L6.25 -6.9 Q8.8 -4.75 8.8 -1.75 8.8 1.3 6.25 3.4 L4.55 4.95 M-3.45 -0.5 L-3.4 -0.45 Q-2.95 0.45 -3.25 1.15 -3.6 1.75 -4.45 1.75 L-4.7 1.7 Q-5.5 1.55 -6.3 1.0 L-7.75 -0.6 -8.0 -1.45 -8.0 -1.6 -7.9 -2.15 Q-7.6 -2.8 -6.7 -2.75 L-6.65 -2.75 Q-6.15 -1.9 -5.25 -1.25 -4.45 -0.7 -3.65 -0.55 L-3.45 -0.5 M-4.8 4.85 L-4.8 6.25 -4.75 7.45 M-2.7 6.25 L-2.7 4.9 M-1.15 -0.35 Q-0.05 -0.4 1.1 -1.1 2.3 -1.75 2.9 -2.7 L3.05 -2.9 3.05 -2.95 3.6 -2.9 4.35 -2.35 4.5 -1.95 4.15 -0.8 Q3.55 0.15 2.35 0.8 1.2 1.5 0.1 1.55 -0.95 1.55 -1.3 0.95 -1.65 0.35 -1.3 -0.35 L-1.15 -0.35 M-0.45 7.45 L-0.45 6.25 -0.45 4.9 M-2.7 6.25 L-2.7 7.45" fill="none" stroke="#000000" stroke-linecap="round" stroke-linejoin="round" stroke-width="1.0"/>
    <path d="M4.55 4.95 L3.2 9.0 -4.4 9.0 -6.0 9.0 -6.85 6.25 -8.2 0.9 M-4.8 6.25 L-2.7 6.25 -0.45 6.25 1.6 6.25 M-4.8 6.25 L-6.85 6.25" fill="none" stroke="#000000" stroke-linecap="round" stroke-linejoin="round" stroke-width="1.0"/>
  </g>
</svg>
