<?xml version="1.0" encoding="UTF-8" standalone="no"?>
<svg xmlns:ffdec="https://www.free-decompiler.com/flash" xmlns:xlink="http://www.w3.org/1999/xlink" ffdec:objectType="shape" height="20.55px" width="18.4px" xmlns="http://www.w3.org/2000/svg">
  <g transform="matrix(1.0, 0.0, 0.0, 1.0, 8.2, 9.5)">
    <path d="M8.4 -5.0 L7.9 -4.8 Q5.5 -6.45 2.3 -6.95 L1.1 -6.8 Q0.15 -6.65 -0.65 -6.2 L-0.8 -6.15 -0.85 -6.0 -0.95 -5.95 -1.35 -5.85 -1.7 -5.55 -1.8 -5.45 -1.95 -5.4 -2.15 -5.25 -2.6 -4.6 -2.85 -4.25 -2.95 -4.2 -3.2 -3.3 -3.2 -3.15 -3.5 -3.0 -3.6 -3.1 -5.2 -4.35 -6.3 -4.2 -6.5 -4.05 -6.75 -3.55 -6.8 -3.4 -6.75 -2.5 Q-6.55 -1.5 -5.8 -0.6 L-4.4 0.5 -4.7 0.75 -4.95 0.7 -5.1 0.85 -5.25 1.05 -5.15 1.5 -5.2 1.7 -5.2 1.75 -7.6 1.75 -7.6 -1.2 Q-7.8 -2.4 -7.55 -3.5 L-7.45 -3.9 Q-6.7 -6.75 -3.65 -8.2 -0.55 -9.6 2.95 -8.6 6.4 -7.75 8.3 -5.15 L8.4 -5.0" fill="#fefefe" fill-rule="evenodd" stroke="none"/>
    <path d="M-3.5 -3.0 L-3.2 -3.15 -3.2 -3.3 -2.95 -4.2 -2.85 -4.25 -2.6 -4.6 -2.15 -5.25 -1.95 -5.4 -1.8 -5.45 -1.7 -5.55 -1.35 -5.85 -0.95 -5.95 -0.85 -6.0 -0.8 -6.15 -0.65 -6.2 Q0.15 -6.65 1.1 -6.8 L2.3 -6.95 Q5.5 -6.45 7.9 -4.8 L8.4 -5.0 Q10.25 -2.2 9.5 0.65 L9.35 1.2 9.1 1.75 -5.2 1.75 -5.2 1.7 -5.15 1.5 -5.25 1.05 -5.1 0.85 -4.95 0.7 -4.7 0.75 -4.4 0.5 -4.2 0.6 -3.15 0.55 -2.85 0.35 Q-2.4 -0.3 -2.6 -1.25 -2.85 -2.2 -3.5 -3.0 M1.7 -1.95 Q0.4 -1.6 -0.4 -0.85 -1.2 -0.15 -0.95 0.6 L-0.85 0.85 -0.55 1.2 0.25 1.55 2.65 1.45 3.35 1.2 4.8 0.35 Q5.3 -0.15 5.4 -0.65 L5.35 -1.1 5.25 -1.3 4.8 -1.8 4.15 -2.05 1.7 -1.95" fill="#e8e8e8" fill-rule="evenodd" stroke="none"/>
    <path d="M-3.5 -3.0 Q-2.85 -2.2 -2.6 -1.25 -2.4 -0.3 -2.85 0.35 L-3.15 0.55 -4.2 0.6 -4.4 0.5 -5.8 -0.6 Q-6.55 -1.5 -6.75 -2.5 L-6.8 -3.4 -6.75 -3.55 -6.5 -4.05 -6.3 -4.2 -5.2 -4.35 -3.6 -3.1 -3.5 -3.0 M1.7 -1.95 L4.15 -2.05 4.8 -1.8 5.25 -1.3 5.35 -1.1 5.4 -0.65 Q5.3 -0.15 4.8 0.35 L3.35 1.2 2.65 1.45 0.25 1.55 -0.55 1.2 -0.85 0.85 -0.95 0.6 Q-1.2 -0.15 -0.4 -0.85 0.4 -1.6 1.7 -1.95" fill="#333333" fill-rule="evenodd" stroke="none"/>
    <path d="M-3.5 -3.0 Q-2.85 -2.2 -2.6 -1.25 -2.4 -0.3 -2.85 0.35 L-3.15 0.55 -4.2 0.6 -4.4 0.5 -5.8 -0.6 Q-6.55 -1.5 -6.75 -2.5 L-6.8 -3.4 -6.75 -3.55 -6.5 -4.05 -6.3 -4.2 -5.2 -4.35 -3.6 -3.1 -3.5 -3.0 M9.1 1.75 L9.35 1.2 9.5 0.65 Q10.25 -2.2 8.4 -5.0 L8.3 -5.15 Q6.4 -7.75 2.95 -8.6 -0.55 -9.6 -3.65 -8.2 -6.7 -6.75 -7.45 -3.9 L-7.55 -3.5 Q-7.8 -2.4 -7.6 -1.2 L-7.6 1.75 M1.7 -1.95 Q0.4 -1.6 -0.4 -0.85 -1.2 -0.15 -0.95 0.6 L-0.85 0.85 -0.55 1.2 0.25 1.55 2.65 1.45 3.35 1.2 4.8 0.35 Q5.3 -0.15 5.4 -0.65 L5.35 -1.1 5.25 -1.3 4.8 -1.8 4.15 -2.05 1.7 -1.95 Z" fill="none" stroke="#000000" stroke-linecap="round" stroke-linejoin="round" stroke-width="1.0"/>
    <path d="M9.1 1.75 Q8.1 3.85 5.7 4.95 L3.95 6.1 3.2 7.25 2.5 10.55 -5.1 10.55 -5.1 10.15 -5.5 9.95 -5.55 9.05 -5.45 9.0 -5.5 7.8 -3.4 7.8 -1.15 7.9 0.4 7.85 0.15 6.45 -1.5 6.05 -1.5 6.0 -3.65 5.4 -5.7 4.85 -5.35 3.5 -5.1 3.3 -5.25 3.15 -5.2 1.75 9.1 1.75 M-3.3 4.1 L-3.65 5.4 -3.3 4.1 M-1.15 4.7 L-1.5 6.0 -1.15 4.7 M-1.5 6.0 L0.15 6.45 -1.5 6.0 M-3.4 9.0 L-3.4 7.8 -3.4 9.0 M-1.2 9.05 L-1.2 7.95 -1.15 7.9 -1.2 7.95 -1.2 9.05" fill="#e8e8e8" fill-rule="evenodd" stroke="none"/>
    <path d="M-5.1 10.55 L-6.7 10.55 -7.5 7.85 -7.55 7.8 -7.45 7.8 -5.5 7.8 -5.45 9.0 -5.55 9.05 -5.5 9.95 -5.1 10.15 -5.1 10.55 M-5.7 4.85 L-7.65 4.35 -7.6 1.75 -5.2 1.75 -5.25 3.15 -5.1 3.3 -5.35 3.5 -5.7 4.85" fill="#fefefe" fill-rule="evenodd" stroke="none"/>
    <path d="M9.1 1.75 Q8.1 3.85 5.7 4.95 L3.95 6.1 3.2 7.25 2.5 10.55 -5.1 10.55 -6.7 10.55 -7.5 7.85 -7.55 7.8 M-1.5 6.0 L-3.65 5.4 -5.7 4.85 -7.65 4.35 -7.6 1.75 M-1.5 6.0 L-1.15 4.7 M-3.65 5.4 L-3.3 4.1 M-5.7 4.85 L-5.35 3.5 M-5.45 9.0 L-5.5 7.8 M-1.15 7.9 L-1.2 7.95 -1.2 9.05 M-3.4 7.8 L-3.4 9.0 M0.15 6.45 L-1.5 6.0" fill="none" stroke="#000000" stroke-linecap="round" stroke-linejoin="round" stroke-width="1.0"/>
    <path d="M-7.45 7.8 L-5.5 7.8 -3.4 7.8 -1.15 7.9 0.4 7.85 0.15 6.45" fill="none" stroke="#000000" stroke-linecap="round" stroke-linejoin="round" stroke-width="1.0"/>
  </g>
</svg>
