<?xml version="1.0" encoding="UTF-8" standalone="no"?>
<svg xmlns:ffdec="https://www.free-decompiler.com/flash" xmlns:xlink="http://www.w3.org/1999/xlink" ffdec:objectType="shape" height="35.45px" width="23.35px" xmlns="http://www.w3.org/2000/svg">
  <g transform="matrix(1.0, 0.0, 0.0, 1.0, 10.05, 25.95)">
    <path d="M-4.4 9.0 L-6.0 9.0 -6.85 6.25 -8.15 1.0 -5.5 1.45 -4.7 1.7 -4.9 2.0 -5.15 2.05 -5.25 2.2 -5.35 2.45 -5.3 2.55 -5.15 2.85 -5.15 3.1 -4.8 4.5 -4.65 4.6 -4.8 4.85 -4.8 6.25 -4.75 7.45 -4.85 7.5 -4.85 7.75 -4.8 8.4 -4.4 8.6 -4.4 9.0 M-8.65 -2.95 Q-8.3 -4.8 -6.9 -6.25 L-6.2 -6.9 Q-4.05 -8.7 -1.1 -8.95 L-0.95 -8.95 2.55 -8.4 2.7 -8.7 2.55 -8.4 -0.95 -8.95 0.05 -9.0 2.7 -8.7 3.75 -8.4 6.1 -7.05 6.25 -6.9 5.85 -6.6 2.4 -7.3 -0.15 -7.2 -1.25 -6.75 -2.15 -6.25 -2.8 -5.75 -2.95 -5.65 -2.95 -5.5 -3.0 -5.4 -3.35 -5.2 -3.45 -5.1 -3.65 -4.85 -3.7 -4.7 -3.85 -4.6 -4.0 -4.45 -4.0 -4.4 -4.25 -3.7 -4.3 -3.55 -4.4 -3.3 -4.5 -3.2 -4.5 -2.75 -8.65 -2.95 M-6.85 6.25 L-4.8 6.25 -6.85 6.25" fill="#fefefe" fill-rule="evenodd" stroke="none"/>
    <path d="M6.75 -6.45 L6.95 -6.25 7.7 -5.3 Q8.45 -4.2 8.7 -2.9 L8.8 -1.75 Q8.8 1.3 6.25 3.4 L4.55 4.95 3.2 9.0 -4.4 9.0 -4.4 8.6 -4.8 8.4 -4.85 7.75 -4.85 7.5 -4.75 7.45 -4.8 6.25 -4.8 4.85 -4.65 4.6 -4.8 4.5 -5.15 3.1 -5.15 2.85 -5.3 2.55 -5.35 2.45 -5.25 2.2 -5.15 2.05 -4.9 2.0 -4.7 1.7 -4.45 1.75 -3.75 1.6 -0.35 1.5 0.1 1.55 1.45 1.25 4.1 0.6 4.1 -0.7 4.15 -0.8 4.5 -1.95 4.35 -2.35 4.1 -2.65 4.1 -3.05 3.25 -2.95 3.05 -2.95 2.9 -2.95 3.0 -2.95 -4.5 -2.75 -4.5 -3.2 -4.4 -3.3 -4.3 -3.55 -4.25 -3.7 -4.0 -4.4 -4.0 -4.45 -3.85 -4.6 -3.7 -4.7 -3.65 -4.85 -3.45 -5.1 -3.35 -5.2 -3.0 -5.4 -2.95 -5.5 -2.95 -5.65 -2.8 -5.75 -2.15 -6.25 -1.25 -6.75 -0.15 -7.2 2.4 -7.3 5.85 -6.6 6.25 -6.9 6.75 -6.45 M-2.7 6.25 L-4.8 6.25 -2.7 6.25 -2.7 4.9 -2.7 6.25 -0.45 6.25 -2.7 6.25 -2.7 7.45 -2.7 6.25 M-0.45 6.25 L-0.45 7.45 -0.45 6.25 -0.45 4.9 -0.45 6.25 1.6 6.25 -0.45 6.25" fill="#e8e8e8" fill-rule="evenodd" stroke="none"/>
    <path d="M3.05 -2.95 L3.25 -2.95 3.05 -2.95 M4.1 -2.65 L4.35 -2.35 4.5 -1.95 4.15 -0.8 4.1 -0.7 4.1 -2.65 M1.45 1.25 L0.1 1.55 -0.35 1.5 1.45 1.25 M-3.75 1.6 L-4.45 1.75 -4.7 1.7 -5.5 1.45 -3.75 1.6" fill="#333333" fill-rule="evenodd" stroke="none"/>
    <path d="M8.3 -11.65 L8.2 -11.75 7.9 -11.95 7.8 -11.9 Q6.9 -10.8 5.65 -10.0 L5.65 -9.9 5.65 -9.8 Q5.1 -9.45 5.0 -8.9 5.2 -8.5 5.65 -8.65 6.5 -9.7 7.65 -10.45 L7.7 -10.55 8.3 -11.65 M2.85 -16.25 L2.6 -16.45 2.45 -16.4 2.25 -16.25 2.2 -16.0 2.2 -15.9 2.1 -15.8 2.1 -15.7 Q2.1 -15.25 1.75 -14.9 L1.75 -14.7 1.75 -14.5 1.65 -14.4 1.45 -14.15 1.45 -13.95 1.45 -13.85 1.4 -13.7 0.95 -12.4 0.95 -12.3 0.95 -12.2 0.85 -12.1 0.8 -12.0 0.75 -11.75 0.75 -11.55 0.15 -10.6 0.15 -10.35 0.2 -9.8 0.8 -9.75 0.85 -9.95 0.9 -10.3 Q1.5 -10.8 1.5 -11.6 L1.6 -11.7 1.7 -12.05 1.75 -12.15 2.2 -13.45 2.2 -13.65 2.2 -13.75 2.8 -14.95 2.85 -15.15 2.95 -16.15 2.85 -16.25 M7.7 -5.3 L12.8 -7.45 8.7 -2.9 Q8.45 -4.2 7.7 -5.3 M-0.95 -8.95 L5.85 -25.45 2.7 -8.7 0.05 -9.0 -0.95 -8.95 M3.75 -8.4 L11.95 -15.5 6.75 -6.45 6.25 -6.9 6.1 -7.05 3.75 -8.4 M9.35 -5.4 L8.95 -5.6 8.8 -5.5 8.55 -5.35 8.5 -5.15 8.5 -4.7 Q8.75 -4.45 9.1 -4.55 L9.25 -4.75 9.45 -5.3 9.35 -5.4" fill="#000099" fill-rule="evenodd" stroke="none"/>
    <path d="M2.85 -16.25 L2.95 -16.15 2.85 -15.15 2.8 -14.95 2.2 -13.75 2.2 -13.65 2.2 -13.45 1.75 -12.15 1.7 -12.05 1.6 -11.7 1.5 -11.6 Q1.5 -10.8 0.9 -10.3 L0.85 -9.95 0.8 -9.75 0.2 -9.8 0.15 -10.35 0.15 -10.6 0.75 -11.55 0.75 -11.75 0.8 -12.0 0.85 -12.1 0.95 -12.2 0.95 -12.3 0.95 -12.4 1.4 -13.7 1.45 -13.85 1.45 -13.95 1.45 -14.15 1.65 -14.4 1.75 -14.5 1.75 -14.7 1.75 -14.9 Q2.1 -15.25 2.1 -15.7 L2.1 -15.8 2.2 -15.9 2.2 -16.0 2.25 -16.25 2.45 -16.4 2.6 -16.45 2.85 -16.25 M8.3 -11.65 L7.7 -10.55 7.65 -10.45 Q6.5 -9.7 5.65 -8.65 5.2 -8.5 5.0 -8.9 5.1 -9.45 5.65 -9.8 L5.65 -9.9 5.65 -10.0 Q6.9 -10.8 7.8 -11.9 L7.9 -11.95 8.2 -11.75 8.3 -11.65 M9.35 -5.4 L9.45 -5.3 9.25 -4.75 9.1 -4.55 Q8.75 -4.45 8.5 -4.7 L8.5 -5.15 8.55 -5.35 8.8 -5.5 8.95 -5.6 9.35 -5.4" fill="#8c88d2" fill-rule="evenodd" stroke="none"/>
    <path d="M-8.15 1.0 L-9.55 0.6 -9.55 -3.05 -8.65 -2.95 -4.5 -2.75 3.0 -2.95 3.05 -2.95 3.25 -2.95 4.1 -3.05 4.1 -2.65 4.1 -0.7 4.1 0.6 1.45 1.25 -0.35 1.5 -3.75 1.6 -5.5 1.45 -8.15 1.0 M2.5 -0.15 L2.5 -1.6 1.85 -1.55 -4.1 -1.4 -5.5 -1.45 -8.0 -1.6 -8.4 -1.6 -8.4 -0.15 -7.4 -0.05 -3.15 0.25 -1.45 0.2 2.5 -0.15" fill="#666666" fill-rule="evenodd" stroke="none"/>
    <path d="M2.5 -0.15 L-1.45 0.2 -3.15 0.25 -7.4 -0.05 -8.4 -0.15 -8.4 -1.6 -8.0 -1.6 -5.5 -1.45 -4.1 -1.4 1.85 -1.55 2.5 -1.6 2.5 -0.15" fill="#66ffff" fill-rule="evenodd" stroke="none"/>
    <path d="M6.75 -6.45 L6.95 -6.25 7.7 -5.3 Q8.45 -4.2 8.7 -2.9 L8.8 -1.75 Q8.8 1.3 6.25 3.4 L4.55 4.95 M-8.15 1.0 L-9.55 0.6 -9.55 -3.05 -8.65 -2.95 Q-8.3 -4.8 -6.9 -6.25 L-6.2 -6.9 Q-4.05 -8.7 -1.1 -8.95 M2.7 -8.7 L3.75 -8.4 6.1 -7.05 6.25 -6.9 6.75 -6.45 M-4.5 -2.75 L3.0 -2.95 3.05 -2.95 3.25 -2.95 4.1 -3.05 4.1 -2.65 4.35 -2.35 4.5 -1.95 4.15 -0.8 4.1 -0.7 4.1 0.6 1.45 1.25 0.1 1.55 -0.35 1.5 -3.75 1.6 -4.45 1.75 -4.7 1.7 -5.5 1.45 -3.75 1.6 M-4.8 4.85 L-4.8 6.25 -4.75 7.45 M-2.7 6.25 L-2.7 4.9 M2.5 -0.15 L-1.45 0.2 -3.15 0.25 -7.4 -0.05 -8.4 -0.15 -8.4 -1.6 -8.0 -1.6 -5.5 -1.45 -4.1 -1.4 1.85 -1.55 2.5 -1.6 2.5 -0.15 M3.25 -2.95 L3.05 -2.95 M4.1 -0.7 L4.1 -2.65 M-4.5 -2.75 L-8.65 -2.95 M-8.15 1.0 L-5.5 1.45 M-0.45 7.45 L-0.45 6.25 -0.45 4.9 M-2.7 6.25 L-2.7 7.45 M-0.35 1.5 L1.45 1.25" fill="none" stroke="#000000" stroke-linecap="round" stroke-linejoin="round" stroke-width="1.0"/>
    <path d="M7.7 -5.3 L12.8 -7.45 8.7 -2.9 M4.55 4.95 L3.2 9.0 -4.4 9.0 -6.0 9.0 -6.85 6.25 -8.15 1.0 M-1.1 -8.95 L-0.95 -8.95 5.85 -25.45 2.7 -8.7 2.55 -8.4 -0.95 -8.95 M3.75 -8.4 L11.95 -15.5 6.75 -6.45 M-4.8 6.25 L-2.7 6.25 -0.45 6.25 1.6 6.25 M-4.8 6.25 L-6.85 6.25" fill="none" stroke="#000000" stroke-linecap="round" stroke-linejoin="round" stroke-width="1.0"/>
  </g>
</svg>
