<?xml version="1.0" encoding="UTF-8" standalone="no"?>
<svg xmlns:ffdec="https://www.free-decompiler.com/flash" xmlns:xlink="http://www.w3.org/1999/xlink" ffdec:objectType="shape" height="33.45px" width="25.95px" xmlns="http://www.w3.org/2000/svg">
  <g transform="matrix(1.0, 0.0, 0.0, 1.0, 12.95, 17.1)">
    <path d="M2.3 -7.05 L2.0 -6.9 1.95 -6.65 1.95 -6.6 1.85 -6.45 1.1 -5.3 1.05 -5.2 1.05 -5.15 0.9 -5.05 0.85 -5.0 0.75 -4.75 0.65 -4.55 -0.15 -3.8 -0.2 -3.55 -0.3 -3.0 Q-0.15 -2.65 0.25 -2.8 L0.35 -3.0 0.5 -3.3 Q1.2 -3.65 1.4 -4.4 L1.55 -4.45 1.7 -4.8 1.8 -4.85 2.55 -6.0 2.6 -6.2 2.65 -6.3 3.55 -7.3 3.65 -7.45 4.0 -8.4 3.95 -8.5 3.75 -8.8 3.6 -8.8 3.35 -8.7 3.25 -8.45 3.2 -8.35 3.1 -8.3 3.05 -8.2 Q2.95 -7.8 2.5 -7.55 L2.45 -7.3 2.4 -7.15 2.3 -7.05 M-1.65 -2.5 L-1.65 -2.55 9.25 -16.6 1.8 -1.35 -0.65 -2.3 -1.65 -2.5 M4.75 1.35 L4.65 1.2 2.7 -0.75 7.55 -3.05 Q6.4 -2.25 5.0 -1.8 L4.95 -1.65 4.95 -1.55 Q4.3 -1.4 4.05 -0.9 4.15 -0.45 4.65 -0.45 5.7 -1.25 7.05 -1.65 L7.1 -1.75 7.95 -2.65 7.9 -2.8 7.65 -3.05 7.55 -3.05 12.5 -5.4 5.1 1.9 4.75 1.35 M7.05 4.2 L7.4 3.75 7.35 3.65 7.0 3.35 6.85 3.4 6.55 3.45 6.45 3.65 6.35 4.05 Q6.5 4.35 6.9 4.35 L7.05 4.2 M6.05 5.85 Q6.15 4.55 5.75 3.25 L11.2 2.55 6.05 5.85" fill="#000099" fill-rule="evenodd" stroke="none"/>
    <path d="M2.3 -7.05 L2.4 -7.15 2.45 -7.3 2.5 -7.55 Q2.95 -7.8 3.05 -8.2 L3.1 -8.3 3.2 -8.35 3.25 -8.45 3.35 -8.7 3.6 -8.8 3.75 -8.8 3.95 -8.5 4.0 -8.4 3.65 -7.45 3.55 -7.3 2.65 -6.3 2.6 -6.2 2.55 -6.0 1.8 -4.85 1.7 -4.8 1.55 -4.45 1.4 -4.4 Q1.2 -3.65 0.5 -3.3 L0.35 -3.0 0.25 -2.8 Q-0.15 -2.65 -0.3 -3.0 L-0.2 -3.55 -0.15 -3.8 0.65 -4.55 0.75 -4.75 0.85 -5.0 0.9 -5.05 1.05 -5.15 1.05 -5.2 1.1 -5.3 1.85 -6.45 1.95 -6.6 1.95 -6.65 2.0 -6.9 2.3 -7.05 M7.55 -3.05 L7.65 -3.05 7.9 -2.8 7.95 -2.65 7.1 -1.75 7.05 -1.65 Q5.7 -1.25 4.65 -0.45 4.15 -0.45 4.05 -0.9 4.3 -1.4 4.95 -1.55 L4.95 -1.65 5.0 -1.8 Q6.4 -2.25 7.55 -3.05 M7.05 4.2 L6.9 4.35 Q6.5 4.35 6.35 4.05 L6.45 3.65 6.55 3.45 6.85 3.4 7.0 3.35 7.35 3.65 7.4 3.75 7.05 4.2" fill="#8c88d2" fill-rule="evenodd" stroke="none"/>
    <path d="M-1.65 -2.5 L1.6 -1.05 1.8 -1.35 1.6 -1.05 -1.65 -2.5 -0.65 -2.3 1.8 -1.35 2.7 -0.75 4.65 1.2 4.75 1.35 4.3 1.55 Q2.85 0.55 1.15 -0.05 L-1.35 -0.6 -2.55 -0.45 -4.25 0.1 -4.45 0.15 -4.5 0.3 -4.55 0.4 -4.95 0.5 -5.05 0.55 -5.3 0.75 -5.45 0.9 -5.6 0.95 -5.75 1.05 -5.8 1.05 -6.2 1.7 -6.3 1.85 -6.45 2.05 -6.6 2.1 -6.7 2.5 -10.65 1.25 Q-9.65 -0.85 -7.25 -1.95 -4.7 -3.05 -1.8 -2.55 L-1.65 -2.55 -1.65 -2.5 M-8.1 6.75 L-8.3 7.0 -8.6 7.0 -8.7 7.1 -8.9 7.3 -8.85 7.45 -8.8 7.75 -8.85 8.0 -8.95 8.6 -9.3 8.55 -11.3 8.4 -11.25 6.6 -11.2 5.15 -8.75 6.3 -8.1 6.75" fill="#fefefe" fill-rule="evenodd" stroke="none"/>
    <path d="M-6.7 2.5 L-6.6 2.1 -6.45 2.05 -6.3 1.85 -6.2 1.7 -5.8 1.05 -5.75 1.05 -5.6 0.95 -5.45 0.9 -5.3 0.75 -5.05 0.55 -4.95 0.5 -4.55 0.4 -4.5 0.3 -4.45 0.15 -4.25 0.1 -2.55 -0.45 -1.35 -0.6 1.15 -0.05 Q2.85 0.55 4.3 1.55 L4.75 1.35 5.1 1.9 5.75 3.25 Q6.15 4.55 6.05 5.85 L5.85 7.0 5.15 8.7 Q4.2 10.15 2.45 11.1 L2.05 11.3 Q1.7 11.4 1.3 11.65 L1.2 11.6 -0.45 12.35 -1.35 12.65 -2.45 15.85 -11.15 14.05 -11.6 11.25 -10.05 11.65 -7.95 12.05 -5.75 12.6 -4.2 12.9 -4.3 12.25 -5.85 11.6 -5.85 11.55 -7.9 10.7 -9.85 9.9 -9.3 8.55 -8.95 8.6 -8.85 8.0 -8.8 7.75 -8.85 7.45 -8.9 7.3 -8.7 7.1 -8.6 7.0 -8.3 7.0 -8.1 6.75 -7.85 6.85 -7.1 6.95 -3.85 7.7 -3.4 7.85 -2.05 7.95 0.7 8.0 1.0 6.75 1.1 6.7 1.75 5.65 1.7 5.25 1.55 4.9 1.65 4.5 0.8 4.35 0.6 4.3 0.5 4.25 0.55 4.3 -6.7 2.5 M-7.4 9.45 L-7.9 10.7 -7.4 9.45 M1.2 11.6 L1.45 11.45 2.45 11.1 1.45 11.45 1.2 11.6 M-5.3 10.3 L-5.85 11.55 -5.3 10.3 M-5.85 11.55 L-4.3 12.25 -5.85 11.55 M-10.15 12.85 L-10.05 11.65 -10.15 12.85 M-8.1 13.25 L-7.95 12.05 -8.1 13.25 M-5.75 12.6 L-5.75 12.65 -5.95 13.75 -5.75 12.65 -5.75 12.6" fill="#e8e8e8" fill-rule="evenodd" stroke="none"/>
    <path d="M0.6 4.3 L0.8 4.35 0.65 4.35 0.6 4.3 M1.55 4.9 L1.7 5.25 1.75 5.65 1.1 6.7 1.0 6.75 1.55 4.9 M-2.05 7.95 L-3.4 7.85 -3.85 7.7 -2.05 7.95 M-7.1 6.95 L-7.85 6.85 -8.1 6.75 -8.75 6.3 -7.1 6.95" fill="#333333" fill-rule="evenodd" stroke="none"/>
    <path d="M-10.65 1.25 L-6.7 2.5 0.55 4.3 0.65 4.35 0.8 4.35 1.65 4.5 1.55 4.9 1.0 6.75 0.7 8.0 -2.05 7.95 -3.85 7.7 -7.1 6.95 -8.75 6.3 -11.2 5.15 -12.45 4.45 -11.5 0.9 -10.65 1.25 M-0.25 5.45 L-0.9 5.35 -6.7 3.95 -8.0 3.5 -10.4 2.7 -10.75 2.6 -11.15 4.0 -10.2 4.4 -6.2 5.75 -4.55 6.2 -0.65 6.85 -0.25 5.45" fill="#666666" fill-rule="evenodd" stroke="none"/>
    <path d="M-0.25 5.45 L-0.65 6.85 -4.55 6.2 -6.2 5.75 -10.2 4.4 -11.15 4.0 -10.75 2.6 -10.4 2.7 -8.0 3.5 -6.7 3.95 -0.9 5.35 -0.25 5.45" fill="#66ffff" fill-rule="evenodd" stroke="none"/>
    <path d="M1.8 -1.35 L1.6 -1.05 -1.65 -2.5 -1.65 -2.55 -1.8 -2.55 Q-4.7 -3.05 -7.25 -1.95 -9.65 -0.85 -10.65 1.25 L-6.7 2.5 0.55 4.3 0.65 4.35 0.8 4.35 1.65 4.5 1.55 4.9 1.7 5.25 1.75 5.65 1.1 6.7 1.0 6.75 0.7 8.0 -2.05 7.95 -3.4 7.85 -3.85 7.7 -7.1 6.95 -7.85 6.85 -8.1 6.75 -8.75 6.3 -11.2 5.15 -11.25 6.6 -11.3 8.4 M4.75 1.35 L4.65 1.2 2.7 -0.75 1.8 -1.35 9.25 -16.6 -1.65 -2.55 M7.55 -3.05 L2.7 -0.75 M5.1 1.9 L12.5 -5.4 7.55 -3.05 M5.75 3.25 Q6.15 4.55 6.05 5.85 L11.2 2.55 5.75 3.25 5.1 1.9 4.75 1.35 M0.6 4.3 L0.8 4.35 M-9.3 8.55 L-9.85 9.9 -7.9 10.7 -7.4 9.45 M1.2 11.6 L-0.45 12.35 -1.35 12.65 -2.45 15.85 -11.15 14.05 -11.6 11.25 -10.05 11.65 -7.95 12.05 -5.75 12.6 -4.2 12.9 -4.3 12.25 -5.85 11.55 -7.9 10.7 M6.05 5.85 L5.85 7.0 5.15 8.7 Q4.2 10.15 2.45 11.1 L2.05 11.3 Q1.7 11.4 1.3 11.65 M2.45 11.1 L1.45 11.45 1.2 11.6 M1.0 6.75 L1.55 4.9 M-0.25 5.45 L-0.65 6.85 -4.55 6.2 -6.2 5.75 -10.2 4.4 -11.15 4.0 -10.75 2.6 -10.4 2.7 -8.0 3.5 -6.7 3.95 -0.9 5.35 -0.25 5.45 M-5.85 11.55 L-5.3 10.3 M-7.1 6.95 L-8.75 6.3 M-2.05 7.95 L-3.85 7.7 M-10.65 1.25 L-11.5 0.9 -12.45 4.45 -11.2 5.15 M-9.85 9.9 L-11.7 9.1 -11.25 6.6 M-5.95 13.75 L-5.75 12.65 -5.75 12.6 M-7.95 12.05 L-8.1 13.25 M-10.05 11.65 L-10.15 12.85" fill="none" stroke="#000000" stroke-linecap="round" stroke-linejoin="round" stroke-width="1.0"/>
  </g>
</svg>
