<?xml version="1.0" encoding="UTF-8" standalone="no"?>
<svg xmlns:ffdec="https://www.free-decompiler.com/flash" xmlns:xlink="http://www.w3.org/1999/xlink" ffdec:objectType="shape" height="33.9px" width="25.65px" xmlns="http://www.w3.org/2000/svg">
  <g transform="matrix(1.0, 0.0, 0.0, 1.0, 12.7, 17.3)">
    <path d="M2.15 -7.0 L1.9 -6.8 1.85 -6.6 1.85 -6.5 1.75 -6.4 1.0 -5.2 1.0 -5.15 1.0 -5.05 0.85 -4.95 0.8 -4.85 0.7 -4.65 0.65 -4.45 -0.15 -3.65 -0.2 -3.4 -0.3 -2.85 0.25 -2.7 0.35 -2.85 0.5 -3.2 Q1.15 -3.55 1.35 -4.3 L1.5 -4.4 1.65 -4.7 1.75 -4.8 2.5 -5.95 2.5 -6.15 2.55 -6.25 3.4 -7.3 3.5 -7.45 3.85 -8.4 3.75 -8.55 3.55 -8.8 3.4 -8.75 3.15 -8.65 3.05 -8.45 3.05 -8.35 2.9 -8.25 2.9 -8.15 2.35 -7.45 2.35 -7.3 2.3 -7.1 2.15 -7.0 M-1.6 -2.35 L-1.65 -2.35 8.75 -16.8 1.85 -1.25 -0.6 -2.15 -1.6 -2.35 M4.9 1.3 L4.8 1.15 Q3.95 0.05 2.8 -0.7 L12.45 -5.7 5.3 1.85 4.9 1.3 M4.15 -0.9 Q4.25 -0.45 4.75 -0.5 5.8 -1.35 7.1 -1.8 L7.15 -1.9 8.0 -2.8 7.9 -2.95 7.7 -3.2 7.55 -3.15 Q6.4 -2.3 5.05 -1.8 L5.0 -1.7 5.0 -1.6 4.15 -0.9 M7.15 4.25 L7.35 4.1 7.65 3.6 7.6 3.5 7.25 3.2 7.1 3.3 6.8 3.35 6.7 3.55 6.6 4.0 7.15 4.25 M6.4 5.8 Q6.45 4.45 5.95 3.2 L11.4 2.3 6.4 5.8" fill="#000099" fill-rule="evenodd" stroke="none"/>
    <path d="M2.15 -7.0 L2.3 -7.1 2.35 -7.3 2.35 -7.45 2.9 -8.15 2.9 -8.25 3.05 -8.35 3.05 -8.45 3.15 -8.65 3.4 -8.75 3.55 -8.8 3.75 -8.55 3.85 -8.4 3.5 -7.45 3.4 -7.3 2.55 -6.25 2.5 -6.15 2.5 -5.95 1.75 -4.8 1.65 -4.7 1.5 -4.4 1.35 -4.3 Q1.15 -3.55 0.5 -3.2 L0.35 -2.85 0.25 -2.7 -0.3 -2.85 -0.2 -3.4 -0.15 -3.65 0.65 -4.45 0.7 -4.65 0.8 -4.85 0.85 -4.95 1.0 -5.05 1.0 -5.15 1.0 -5.2 1.75 -6.4 1.85 -6.5 1.85 -6.6 1.9 -6.8 2.15 -7.0 M4.15 -0.9 L5.0 -1.6 5.0 -1.7 5.05 -1.8 Q6.4 -2.3 7.55 -3.15 L7.7 -3.2 7.9 -2.95 8.0 -2.8 7.15 -1.9 7.1 -1.8 Q5.8 -1.35 4.75 -0.5 4.25 -0.45 4.15 -0.9 M7.15 4.25 L6.6 4.0 6.7 3.55 6.8 3.35 7.1 3.3 7.25 3.2 7.6 3.5 7.65 3.6 7.35 4.1 7.15 4.25" fill="#8c88d2" fill-rule="evenodd" stroke="none"/>
    <path d="M-1.6 -2.35 L1.65 -0.95 1.85 -1.25 1.65 -0.95 -1.6 -2.35 -0.6 -2.15 1.85 -1.25 2.8 -0.7 Q3.95 0.05 4.8 1.15 L4.9 1.3 4.45 1.55 Q3.0 0.55 1.25 0.05 L-1.25 -0.4 -2.4 -0.25 -4.15 0.4 -4.3 0.45 -4.35 0.6 -4.4 0.7 -4.8 0.8 -4.9 0.85 -5.2 1.05 -5.25 1.2 -5.45 1.25 -5.6 1.35 -5.6 1.4 -6.0 2.05 -6.1 2.2 -6.25 2.4 -6.4 2.45 -6.5 2.9 -10.45 1.75 Q-9.55 -0.35 -7.2 -1.55 -4.7 -2.75 -1.8 -2.35 L-1.65 -2.35 -1.6 -2.35 M-7.7 7.2 L-7.95 7.45 -8.2 7.45 -8.35 7.55 -8.5 7.75 -8.45 7.9 -8.4 8.2 -8.45 8.45 -8.45 9.9 -8.3 10.0 -8.5 10.25 -8.85 11.6 -10.85 11.1 -8.85 11.6 -9.1 12.75 -9.15 12.8 -9.25 13.05 -9.35 13.7 Q-9.2 13.8 -9.0 13.95 L-9.05 14.35 -10.65 14.0 -10.85 11.1 -10.9 5.7 -8.4 6.75 -7.7 7.2" fill="#fefefe" fill-rule="evenodd" stroke="none"/>
    <path d="M-6.5 2.9 L-6.4 2.45 -6.25 2.4 -6.1 2.2 -6.0 2.05 -5.6 1.4 -5.6 1.35 -5.45 1.25 -5.25 1.2 -5.2 1.05 -4.9 0.85 -4.8 0.8 -4.4 0.7 -4.35 0.6 -4.3 0.45 -4.15 0.4 -2.4 -0.25 -1.25 -0.4 1.25 0.05 Q3.0 0.55 4.45 1.55 L4.9 1.3 5.3 1.85 5.95 3.2 Q6.45 4.45 6.4 5.8 L6.2 6.9 Q5.5 9.85 2.55 11.35 1.7 11.75 0.55 12.45 L-1.7 16.1 -9.05 14.35 -9.0 13.95 Q-9.2 13.8 -9.35 13.7 L-9.25 13.05 -9.15 12.8 -9.1 12.75 -8.85 11.6 -8.5 10.25 -8.3 10.0 -8.45 9.9 -8.45 8.45 -8.4 8.2 -8.45 7.9 -8.5 7.75 -8.35 7.55 -8.2 7.45 -7.95 7.45 -7.7 7.2 -7.45 7.25 -6.75 7.3 -3.45 8.0 -3.0 8.1 -1.65 8.15 1.1 8.15 1.4 6.85 1.5 6.8 2.05 5.75 2.0 5.3 1.85 4.95 1.9 4.6 1.1 4.45 0.9 4.4 0.75 4.4 0.85 4.45 -6.5 2.9 M-6.5 10.75 L-6.8 12.05 -8.85 11.6 -6.8 12.05 -6.5 10.75 M-7.05 13.25 L-6.8 12.05 -4.6 12.6 -4.9 13.75 -4.6 12.6 -6.8 12.05 -7.05 13.25 M-2.6 13.05 L-4.6 12.6 -4.3 11.25 -4.6 12.6 -2.6 13.05" fill="#e8e8e8" fill-rule="evenodd" stroke="none"/>
    <path d="M0.9 4.45 L0.9 4.4 1.1 4.45 0.9 4.45 M1.85 4.95 L2.0 5.3 2.05 5.75 1.5 6.8 1.4 6.85 1.85 4.95 M-1.65 8.15 L-3.0 8.1 -3.45 8.0 -1.65 8.15 M-6.75 7.3 L-7.45 7.25 -7.7 7.2 -8.4 6.75 -6.75 7.3" fill="#333333" fill-rule="evenodd" stroke="none"/>
    <path d="M-10.45 1.75 L-6.5 2.9 0.85 4.45 0.9 4.45 1.1 4.45 1.9 4.6 1.85 4.95 1.4 6.85 1.1 8.15 -1.65 8.15 -3.45 8.0 -6.75 7.3 -8.4 6.75 -10.9 5.7 -12.2 5.0 -11.35 1.45 -10.45 1.75 M-9.9 4.85 L-5.9 6.1 -4.2 6.45 -0.25 7.0 0.05 5.6 -0.6 5.5 -6.45 4.3 -7.75 3.95 -10.15 3.2 -10.55 3.1 -10.85 4.5 -9.9 4.85" fill="#666666" fill-rule="evenodd" stroke="none"/>
    <path d="M-9.9 4.85 L-10.85 4.5 -10.55 3.1 -10.15 3.2 -7.75 3.95 -6.45 4.3 -0.6 5.5 0.05 5.6 -0.25 7.0 -4.2 6.45 -5.9 6.1 -9.9 4.85" fill="#66ffff" fill-rule="evenodd" stroke="none"/>
    <path d="M1.85 -1.25 L1.65 -0.95 -1.6 -2.35 -1.65 -2.35 -1.8 -2.35 Q-4.7 -2.75 -7.2 -1.55 -9.55 -0.35 -10.45 1.75 L-6.5 2.9 0.85 4.45 0.9 4.45 1.1 4.45 1.9 4.6 1.85 4.95 2.0 5.3 2.05 5.75 1.5 6.8 1.4 6.85 1.1 8.15 -1.65 8.15 -3.0 8.1 -3.45 8.0 -6.75 7.3 -7.45 7.25 -7.7 7.2 -8.4 6.75 -10.9 5.7 -10.85 11.1 -8.85 11.6 -9.1 12.75 M4.9 1.3 L4.8 1.15 Q3.95 0.05 2.8 -0.7 L1.85 -1.25 8.75 -16.8 -1.65 -2.35 M5.3 1.85 L12.45 -5.7 2.8 -0.7 M6.4 5.8 Q6.45 4.45 5.95 3.2 L5.3 1.85 4.9 1.3 M0.9 4.4 L1.1 4.45 M-8.5 10.25 L-8.85 11.6 -6.8 12.05 -6.5 10.75 M1.4 6.85 L1.85 4.95 M-9.05 14.35 L-1.7 16.1 0.55 12.45 Q1.7 11.75 2.55 11.35 5.5 9.85 6.2 6.9 L6.4 5.8 11.4 2.3 5.95 3.2 M-9.9 4.85 L-10.85 4.5 -10.55 3.1 -10.15 3.2 -7.75 3.95 -6.45 4.3 -0.6 5.5 0.05 5.6 -0.25 7.0 -4.2 6.45 -5.9 6.1 -9.9 4.85 M-9.05 14.35 L-10.65 14.0 -10.85 11.1 M-6.75 7.3 L-8.4 6.75 M-1.65 8.15 L-3.45 8.0 M-10.45 1.75 L-11.35 1.45 -12.2 5.0 -10.9 5.7 M-4.3 11.25 L-4.6 12.6 -2.6 13.05 M-4.9 13.75 L-4.6 12.6 -6.8 12.05 -7.05 13.25" fill="none" stroke="#000000" stroke-linecap="round" stroke-linejoin="round" stroke-width="1.0"/>
  </g>
</svg>
