<?xml version="1.0" encoding="UTF-8" standalone="no"?>
<svg xmlns:ffdec="https://www.free-decompiler.com/flash" xmlns:xlink="http://www.w3.org/1999/xlink" ffdec:objectType="shape" height="33.45px" width="25.95px" xmlns="http://www.w3.org/2000/svg">
  <g transform="matrix(1.0, 0.0, 0.0, 1.0, 12.95, 16.35)">
    <path d="M2.5 -6.8 L2.45 -6.55 2.4 -6.4 2.3 -6.3 2.0 -6.15 1.95 -5.9 1.95 -5.85 1.85 -5.7 1.1 -4.55 1.05 -4.45 1.05 -4.4 0.9 -4.3 0.85 -4.25 0.75 -4.0 0.65 -3.8 -0.15 -3.05 -0.2 -2.8 -0.3 -2.25 Q-0.15 -1.9 0.25 -2.05 L0.35 -2.25 0.5 -2.55 Q1.2 -2.9 1.4 -3.65 L1.55 -3.7 1.7 -4.05 1.8 -4.1 2.55 -5.25 2.6 -5.45 2.65 -5.55 3.55 -6.55 3.65 -6.7 4.0 -7.65 3.95 -7.75 3.75 -8.05 3.6 -8.05 3.35 -7.95 3.25 -7.7 3.2 -7.6 3.1 -7.55 3.05 -7.45 Q2.95 -7.05 2.5 -6.8 M-1.65 -1.75 L-1.65 -1.8 9.25 -15.85 1.8 -0.6 -0.65 -1.55 -1.65 -1.75 M4.75 2.1 L4.65 1.95 2.7 0.0 7.55 -2.3 Q6.4 -1.5 5.0 -1.05 L4.95 -0.9 4.95 -0.8 Q4.3 -0.65 4.05 -0.15 4.15 0.3 4.65 0.3 5.7 -0.5 7.05 -0.9 L7.1 -1.0 7.95 -1.9 7.9 -2.05 7.65 -2.3 7.55 -2.3 12.5 -4.65 5.1 2.65 4.75 2.1 M7.4 4.5 L7.35 4.4 7.0 4.1 6.85 4.15 6.55 4.2 6.45 4.4 6.35 4.8 Q6.5 5.1 6.9 5.1 L7.05 4.95 7.4 4.5 M6.05 6.6 Q6.15 5.3 5.75 4.0 L11.2 3.3 6.05 6.6" fill="#000099" fill-rule="evenodd" stroke="none"/>
    <path d="M2.5 -6.8 Q2.95 -7.05 3.05 -7.45 L3.1 -7.55 3.2 -7.6 3.25 -7.7 3.35 -7.95 3.6 -8.05 3.75 -8.05 3.95 -7.75 4.0 -7.65 3.65 -6.7 3.55 -6.55 2.65 -5.55 2.6 -5.45 2.55 -5.25 1.8 -4.1 1.7 -4.05 1.55 -3.7 1.4 -3.65 Q1.2 -2.9 0.5 -2.55 L0.35 -2.25 0.25 -2.05 Q-0.15 -1.9 -0.3 -2.25 L-0.2 -2.8 -0.15 -3.05 0.65 -3.8 0.75 -4.0 0.85 -4.25 0.9 -4.3 1.05 -4.4 1.05 -4.45 1.1 -4.55 1.85 -5.7 1.95 -5.85 1.95 -5.9 2.0 -6.15 2.3 -6.3 2.4 -6.4 2.45 -6.55 2.5 -6.8 M7.55 -2.3 L7.65 -2.3 7.9 -2.05 7.95 -1.9 7.1 -1.0 7.05 -0.9 Q5.7 -0.5 4.65 0.3 4.15 0.3 4.05 -0.15 4.3 -0.65 4.95 -0.8 L4.95 -0.9 5.0 -1.05 Q6.4 -1.5 7.55 -2.3 M7.4 4.5 L7.05 4.95 6.9 5.1 Q6.5 5.1 6.35 4.8 L6.45 4.4 6.55 4.2 6.85 4.15 7.0 4.1 7.35 4.4 7.4 4.5" fill="#8c88d2" fill-rule="evenodd" stroke="none"/>
    <path d="M-1.65 -1.75 L1.6 -0.3 1.8 -0.6 1.6 -0.3 -1.65 -1.75 -0.65 -1.55 1.8 -0.6 2.7 0.0 4.65 1.95 4.75 2.1 4.3 2.3 Q2.85 1.3 1.15 0.7 L-1.35 0.15 -2.55 0.3 -4.25 0.85 -4.45 0.9 -4.5 1.05 -4.55 1.15 -4.95 1.25 -5.05 1.3 -5.3 1.5 -5.45 1.65 -5.6 1.7 -5.75 1.8 -5.8 1.8 -6.2 2.45 -6.3 2.6 -6.45 2.8 -6.6 2.85 -6.7 3.25 -10.65 2.0 Q-9.65 -0.1 -7.25 -1.2 -4.7 -2.3 -1.8 -1.8 L-1.65 -1.8 -1.65 -1.75 M-8.1 7.5 L-8.3 7.75 -8.6 7.75 -8.7 7.85 -8.9 8.05 -8.85 8.2 -8.8 8.5 -8.85 8.75 -8.95 9.35 -9.3 9.3 -11.3 9.15 -11.25 7.35 -11.2 5.9 -8.75 7.05 -8.1 7.5" fill="#fefefe" fill-rule="evenodd" stroke="none"/>
    <path d="M-6.7 3.25 L-6.6 2.85 -6.45 2.8 -6.3 2.6 -6.2 2.45 -5.8 1.8 -5.75 1.8 -5.6 1.7 -5.45 1.65 -5.3 1.5 -5.05 1.3 -4.95 1.25 -4.55 1.15 -4.5 1.05 -4.45 0.9 -4.25 0.85 -2.55 0.3 -1.35 0.15 1.15 0.7 Q2.85 1.3 4.3 2.3 L4.75 2.1 5.1 2.65 5.75 4.0 Q6.15 5.3 6.05 6.6 L5.85 7.75 5.15 9.45 Q4.2 10.9 2.45 11.85 L2.05 12.05 Q1.7 12.15 1.3 12.4 L1.2 12.35 1.45 12.2 2.45 11.85 1.45 12.2 1.2 12.35 -0.45 13.1 -1.35 13.4 -2.45 16.6 -11.15 14.8 -11.6 12.0 -10.05 12.4 -7.95 12.8 -5.75 13.35 -4.2 13.65 -4.3 13.0 -5.85 12.35 -5.85 12.3 -4.3 13.0 -5.85 12.3 -7.9 11.45 -9.85 10.65 -9.3 9.3 -8.95 9.35 -8.85 8.75 -8.8 8.5 -8.85 8.2 -8.9 8.05 -8.7 7.85 -8.6 7.75 -8.3 7.75 -8.1 7.5 -7.85 7.6 -7.1 7.7 -3.85 8.45 -3.4 8.6 -2.05 8.7 0.7 8.75 1.0 7.5 1.1 7.45 1.75 6.4 1.7 6.0 1.55 5.65 1.65 5.25 0.8 5.1 0.6 5.05 0.5 5.0 0.55 5.05 -6.7 3.25 M-7.4 10.2 L-7.9 11.45 -7.4 10.2 M-5.3 11.05 L-5.85 12.3 -5.3 11.05 M-10.15 13.6 L-10.05 12.4 -10.15 13.6 M-5.95 14.5 L-5.75 13.4 -5.75 13.35 -5.75 13.4 -5.95 14.5 M-8.1 14.0 L-7.95 12.8 -8.1 14.0" fill="#e8e8e8" fill-rule="evenodd" stroke="none"/>
    <path d="M0.6 5.05 L0.8 5.1 0.65 5.1 0.6 5.05 M1.55 5.65 L1.7 6.0 1.75 6.4 1.1 7.45 1.0 7.5 1.55 5.65 M-2.05 8.7 L-3.4 8.6 -3.85 8.45 -2.05 8.7 M-7.1 7.7 L-7.85 7.6 -8.1 7.5 -8.75 7.05 -7.1 7.7" fill="#333333" fill-rule="evenodd" stroke="none"/>
    <path d="M-10.65 2.0 L-6.7 3.25 0.55 5.05 0.65 5.1 0.8 5.1 1.65 5.25 1.55 5.65 1.0 7.5 0.7 8.75 -2.05 8.7 -3.85 8.45 -7.1 7.7 -8.75 7.05 -11.2 5.9 -12.45 5.2 -11.5 1.65 -10.65 2.0 M-6.7 4.7 L-8.0 4.25 -10.4 3.45 -10.75 3.35 -11.15 4.75 -10.2 5.15 -6.2 6.5 -4.55 6.95 -0.65 7.6 -0.25 6.2 -0.9 6.1 -6.7 4.7" fill="#666666" fill-rule="evenodd" stroke="none"/>
    <path d="M-6.7 4.7 L-0.9 6.1 -0.25 6.2 -0.65 7.6 -4.55 6.95 -6.2 6.5 -10.2 5.15 -11.15 4.75 -10.75 3.35 -10.4 3.45 -8.0 4.25 -6.7 4.7" fill="#66ffff" fill-rule="evenodd" stroke="none"/>
    <path d="M1.8 -0.6 L1.6 -0.3 -1.65 -1.75 -1.65 -1.8 -1.8 -1.8 Q-4.7 -2.3 -7.25 -1.2 -9.65 -0.1 -10.65 2.0 L-6.7 3.25 0.55 5.05 0.65 5.1 0.8 5.1 1.65 5.25 1.55 5.65 1.7 6.0 1.75 6.4 1.1 7.45 1.0 7.5 0.7 8.75 -2.05 8.7 -3.4 8.6 -3.85 8.45 -7.1 7.7 -7.85 7.6 -8.1 7.5 -8.75 7.05 -11.2 5.9 -11.25 7.35 -11.3 9.15 M4.75 2.1 L4.65 1.95 2.7 0.0 1.8 -0.6 9.25 -15.85 -1.65 -1.8 M7.55 -2.3 L2.7 0.0 M5.1 2.65 L12.5 -4.65 7.55 -2.3 M5.75 4.0 L5.1 2.65 4.75 2.1 M0.6 5.05 L0.8 5.1 M-9.3 9.3 L-9.85 10.65 -7.9 11.45 -7.4 10.2 M2.45 11.85 L1.45 12.2 1.2 12.35 -0.45 13.1 -1.35 13.4 -2.45 16.6 -11.15 14.8 -11.6 12.0 -10.05 12.4 -7.95 12.8 -5.75 13.35 -4.2 13.65 -4.3 13.0 -5.85 12.3 -7.9 11.45 M1.3 12.4 Q1.7 12.15 2.05 12.05 L2.45 11.85 Q4.2 10.9 5.15 9.45 L5.85 7.75 6.05 6.6 Q6.15 5.3 5.75 4.0 L11.2 3.3 6.05 6.6 M1.55 5.65 L1.0 7.5 M-6.7 4.7 L-0.9 6.1 -0.25 6.2 -0.65 7.6 -4.55 6.95 -6.2 6.5 -10.2 5.15 -11.15 4.75 -10.75 3.35 -10.4 3.45 -8.0 4.25 -6.7 4.7 M-5.85 12.3 L-5.3 11.05 M-7.1 7.7 L-8.75 7.05 M-2.05 8.7 L-3.85 8.45 M-10.65 2.0 L-11.5 1.65 -12.45 5.2 -11.2 5.9 M-11.25 7.35 L-11.7 9.85 -9.85 10.65 M-7.95 12.8 L-8.1 14.0 M-5.75 13.35 L-5.75 13.4 -5.95 14.5 M-10.05 12.4 L-10.15 13.6" fill="none" stroke="#000000" stroke-linecap="round" stroke-linejoin="round" stroke-width="1.0"/>
  </g>
</svg>
