<?xml version="1.0" encoding="UTF-8" standalone="no"?>
<svg xmlns:ffdec="https://www.free-decompiler.com/flash" xmlns:xlink="http://www.w3.org/1999/xlink" ffdec:objectType="shape" height="23.8px" width="12.85px" xmlns="http://www.w3.org/2000/svg">
  <g transform="matrix(1.0, 0.0, 0.0, 1.0, 5.95, 11.9)">
    <path d="M-2.05 -7.95 L-2.0 -8.0 -2.05 -7.6 -2.05 -7.95" fill="#ff9900" fill-rule="evenodd" stroke="none"/>
    <path d="M-0.6 -10.05 L-0.4 -10.45 -0.1 -10.4 0.35 -9.9 0.35 -9.15 0.5 -9.95 0.4 -10.05 0.1 -10.3 0.0 -10.45 Q-0.15 -10.7 -0.4 -10.65 L-0.55 -10.6 -0.65 -10.5 -0.7 -10.05 -0.75 -7.25 -0.65 -7.15 -0.6 -7.0 -0.6 -3.5 -0.45 -3.4 Q-0.25 -3.25 -0.05 -3.4 L0.05 -3.7 0.1 -6.95 0.15 -7.2 0.2 -8.1 0.05 -8.4 0.0 -8.8 -0.1 -8.9 -0.15 -9.05 -0.15 -9.8 -0.25 -9.4 -0.2 -8.9 -0.3 -8.8 -0.4 -8.7 -0.6 -8.8 -0.6 -10.05 M2.05 -6.85 L1.85 -6.85 2.05 -6.85 3.9 -6.85 4.3 -6.85 6.0 9.7 6.15 10.35 6.2 10.4 6.0 10.6 5.4 10.6 5.55 10.45 5.5 10.35 5.45 10.35 5.4 10.3 5.45 10.25 5.45 10.2 5.55 10.15 5.55 10.05 5.6 9.95 5.6 9.9 5.6 9.8 5.6 9.75 5.7 9.55 5.7 9.4 5.6 9.2 5.45 7.45 5.35 6.85 5.35 6.0 5.3 5.85 5.2 5.75 5.2 3.15 5.0 2.9 4.9 2.8 4.8 2.2 4.8 2.15 4.8 -0.35 4.7 -0.55 4.55 -1.05 4.4 -1.2 4.2 -1.35 4.1 -2.8 4.1 -2.85 4.0 -3.65 4.0 -3.9 3.9 -5.5 3.8 -5.8 3.75 -5.85 3.75 -6.0 3.75 -6.05 3.75 -5.9 3.5 -6.15 3.45 -6.1 3.3 -6.25 3.15 -6.35 3.05 -6.3 3.05 -6.25 2.9 -6.15 2.9 -6.05 2.75 -5.9 2.75 -5.35 2.7 -5.3 2.7 -5.35 2.7 -5.45 2.4 -5.8 2.25 -5.75 Q1.95 -5.6 2.05 -5.3 2.15 -4.9 2.5 -5.0 L2.55 -5.05 2.6 -5.1 2.6 -5.0 2.6 -4.4 1.85 -4.3 1.85 -4.25 1.6 -4.25 1.1 -3.75 1.05 -3.6 1.05 -3.0 1.05 -1.85 1.05 -0.3 1.15 -0.1 1.3 0.05 1.3 2.15 1.3 5.25 1.2 5.45 1.05 5.6 1.1 5.8 1.05 5.95 1.0 6.15 0.8 6.35 0.7 6.5 0.55 6.75 0.55 6.65 0.45 6.5 0.2 6.35 0.1 6.4 0.0 6.45 -0.15 6.85 -0.05 7.0 -0.2 7.05 -0.35 7.25 -0.6 7.2 Q-1.4 7.3 -2.0 6.85 L-2.9 6.75 -2.95 6.75 -3.1 6.75 -3.15 6.75 -3.3 6.7 -3.5 6.7 -3.55 6.6 -3.75 6.5 -3.95 6.6 -4.0 6.7 -4.25 6.7 -4.6 7.0 -4.65 7.2 -4.55 7.3 -5.15 7.25 -4.7 -0.65 -4.7 -0.7 -4.7 -1.05 -4.15 -10.8 -4.15 -11.15 0.65 -11.15 1.85 -6.85 2.4 -7.75 2.05 -6.85 M3.5 -6.25 L3.4 -6.35 3.4 -6.3 3.5 -6.25 M1.7 -5.8 L1.5 -5.75 Q1.25 -5.6 1.3 -5.3 1.45 -4.9 1.8 -5.0 L1.9 -5.1 2.0 -5.35 1.95 -5.45 1.7 -5.8 M3.45 -1.2 L3.4 -1.5 3.3 -1.65 3.4 -1.75 3.5 -2.0 3.5 -1.25 3.45 -1.2 M-1.7 -9.15 L-1.7 -9.05 -1.7 -9.15 M-2.05 -7.95 L-2.05 -7.6 -2.0 -8.0 -2.05 -7.95 M-0.3 2.05 L-0.25 2.3 -0.15 3.3 0.05 3.45 0.45 3.4 0.5 3.15 0.55 2.0 0.45 1.9 Q0.3 1.65 0.1 1.7 L-0.1 1.75 -0.3 2.05 M-2.55 -1.9 L-2.75 -1.5 Q-2.65 -1.05 -2.25 -1.2 L-2.2 -1.3 -2.05 -1.5 -2.05 -1.65 -2.4 -2.0 -2.55 -1.9 M-1.5 3.7 L-1.75 3.45 -1.75 3.5 -1.95 3.55 -2.05 3.7 -2.1 3.8 -2.1 4.05 -2.1 4.55 -2.05 4.65 -1.95 4.7 -1.95 4.8 -1.95 5.05 -1.9 5.8 -1.55 6.0 -1.45 5.9 -1.25 5.65 -1.25 5.4 -1.25 4.8 -1.3 4.5 -1.3 4.2 -1.4 3.8 -1.5 3.7 M-0.65 8.1 L-0.4 8.0 -0.4 8.1 -0.5 8.25 -0.65 8.25 -0.65 8.1 M-0.35 8.0 L-0.3 7.95 -0.35 8.0 M5.5 9.85 L5.5 9.9 5.5 9.85" fill="#999999" fill-rule="evenodd" stroke="none"/>
    <path d="M3.5 -6.25 L3.4 -6.3 3.4 -6.35 3.5 -6.25 M-1.5 8.1 L-1.6 8.1 -1.45 8.0 -1.4 8.05 -1.5 8.1 M-0.3 7.95 L-0.2 8.05 -0.35 8.0 -0.3 7.95 M4.75 10.65 L4.8 10.6 5.4 10.6 4.75 10.65" fill="#99732b" fill-rule="evenodd" stroke="none"/>
    <path d="M-1.7 -9.15 L-1.7 -9.05 -1.7 -9.15" fill="#ffcc00" fill-rule="evenodd" stroke="none"/>
    <path d="M-0.6 -10.05 L-0.6 -8.8 -0.4 -8.7 -0.3 -8.8 -0.2 -8.9 -0.25 -9.4 -0.15 -9.8 -0.15 -9.05 -0.1 -8.9 0.0 -8.8 0.05 -8.4 0.2 -8.1 0.15 -7.2 0.1 -6.95 0.05 -3.7 -0.05 -3.4 Q-0.25 -3.25 -0.45 -3.4 L-0.6 -3.5 -0.6 -7.0 -0.65 -7.15 -0.75 -7.25 -0.7 -10.05 -0.6 -10.05 M5.55 10.05 L5.55 10.15 5.45 10.2 5.45 10.0 5.5 10.0 5.55 10.05" fill="#cccccc" fill-rule="evenodd" stroke="none"/>
    <path d="M-4.55 7.3 L-4.65 7.2 -4.6 7.0 -4.25 6.7 -4.0 6.7 -3.95 6.6 -3.75 6.5 -3.55 6.6 -3.5 6.7 -3.3 6.7 -3.15 6.75 -3.1 6.75 -2.95 6.75 -2.9 6.75 -2.0 6.85 Q-1.4 7.3 -0.6 7.2 L-0.35 7.25 -0.2 7.05 -0.05 7.0 0.35 7.1 0.55 6.75 0.7 6.5 0.8 6.35 1.0 6.15 1.05 5.95 1.1 5.8 1.05 5.6 1.2 5.45 1.3 5.25 1.3 2.15 1.3 0.05 1.15 -0.1 1.05 -0.3 1.05 -1.85 1.05 -3.0 1.05 -3.6 1.1 -3.75 1.6 -4.25 1.85 -4.25 1.85 -4.3 2.6 -4.4 2.6 -5.0 2.6 -5.1 2.7 -5.3 2.75 -5.35 2.75 -5.9 2.9 -6.05 2.9 -6.15 3.05 -6.25 3.05 -6.3 3.15 -6.35 3.3 -6.25 3.45 -6.1 3.5 -6.15 3.75 -5.9 3.75 -6.05 3.75 -6.0 3.75 -5.85 3.8 -5.8 3.9 -5.5 4.0 -3.9 4.0 -3.65 4.1 -2.85 4.1 -2.8 4.2 -1.35 3.95 -1.5 3.7 -1.45 3.55 -1.35 3.5 -1.25 3.5 -2.0 3.4 -1.75 3.3 -1.65 3.4 -1.5 3.45 -1.2 3.35 -1.15 3.35 -0.8 3.45 0.05 3.6 0.25 3.65 0.4 3.65 0.75 Q3.55 4.8 4.05 8.8 L3.7 8.8 3.7 6.15 3.55 6.0 3.1 5.65 3.1 5.7 2.75 5.8 2.6 5.95 2.5 6.15 2.5 6.5 2.5 8.85 2.35 8.9 2.35 8.95 2.15 8.95 Q1.8 9.1 1.8 9.45 L1.8 9.6 1.85 9.75 Q2.8 10.3 4.0 10.3 L4.2 10.25 4.35 10.15 4.4 10.1 4.7 10.0 4.75 10.0 5.4 10.0 5.5 9.9 5.5 9.85 5.6 9.75 5.6 9.8 5.6 9.9 5.6 9.95 5.55 10.05 5.5 10.0 5.45 10.0 5.45 10.2 5.45 10.25 5.4 10.3 5.45 10.35 5.5 10.35 5.55 10.45 5.4 10.6 4.8 10.6 4.75 10.65 4.65 10.7 4.1 10.8 4.0 10.8 3.95 10.8 3.4 10.75 3.25 10.8 3.05 10.7 2.75 10.6 2.6 10.55 2.6 10.45 2.05 10.05 2.0 10.1 1.9 10.1 1.8 10.1 1.6 10.1 1.45 10.05 1.45 9.9 1.4 9.8 1.35 9.7 1.0 9.0 1.0 8.75 -0.2 8.05 -0.3 7.95 -0.35 8.0 -0.4 8.0 -0.65 8.1 -1.4 8.05 -1.45 8.0 -1.6 8.1 -1.5 8.1 -1.5 8.15 -1.7 8.5 -4.15 8.45 -4.75 7.95 -4.75 7.85 -4.65 7.6 -4.45 7.5 -4.55 7.3 M4.8 2.2 L4.9 2.8 5.0 2.9 5.2 3.15 5.2 5.75 5.3 5.85 5.35 6.0 5.35 6.85 5.45 7.45 5.6 9.2 5.25 8.5 5.3 8.15 5.3 7.95 5.2 7.8 5.1 7.65 5.05 7.1 Q4.8 4.65 4.8 2.2" fill="#666666" fill-rule="evenodd" stroke="none"/>
    <path d="M-0.05 7.0 L-0.15 6.85 0.0 6.45 0.1 6.4 0.2 6.35 0.45 6.5 0.55 6.65 0.55 6.75 0.35 7.1 -0.05 7.0 M2.6 -5.1 L2.55 -5.05 2.5 -5.0 Q2.15 -4.9 2.05 -5.3 1.95 -5.6 2.25 -5.75 L2.4 -5.8 2.7 -5.45 2.7 -5.35 2.7 -5.3 2.6 -5.1 M1.7 -5.8 L1.95 -5.45 2.0 -5.35 1.9 -5.1 1.8 -5.0 Q1.45 -4.9 1.3 -5.3 1.25 -5.6 1.5 -5.75 L1.7 -5.8 M-2.55 -1.9 L-2.4 -2.0 -2.05 -1.65 -2.05 -1.5 -2.2 -1.3 -2.25 -1.2 Q-2.65 -1.05 -2.75 -1.5 L-2.55 -1.9 M-0.3 2.05 L-0.1 1.75 0.1 1.7 Q0.3 1.65 0.45 1.9 L0.55 2.0 0.5 3.15 0.45 3.4 0.05 3.45 -0.15 3.3 -0.25 2.3 -0.3 2.05" fill="#acacac" fill-rule="evenodd" stroke="none"/>
    <path d="M-1.5 3.7 L-1.4 3.8 -1.3 4.2 -1.3 4.5 -1.25 4.8 -1.25 5.4 -1.25 5.65 -1.45 5.9 -1.55 6.0 -1.9 5.8 -1.95 5.05 -1.95 4.8 -1.95 4.7 -2.05 4.65 -2.1 4.55 -2.1 4.05 -2.1 3.8 -2.05 3.7 -1.95 3.55 -1.75 3.5 -1.75 3.45 -1.5 3.7" fill="#8b8b8b" fill-rule="evenodd" stroke="none"/>
    <path d="M4.2 -1.35 L4.4 -1.2 4.55 -1.05 4.7 -0.55 4.8 -0.35 4.8 2.15 4.8 2.2 Q4.8 4.65 5.05 7.1 L5.1 7.65 5.2 7.8 5.3 7.95 5.3 8.15 5.25 8.5 5.6 9.2 5.7 9.4 5.7 9.55 5.6 9.75 5.5 9.85 5.5 9.9 5.4 10.0 4.75 10.0 4.7 10.0 4.4 10.1 4.35 10.15 4.2 10.25 4.0 10.3 Q2.8 10.3 1.85 9.75 L1.8 9.6 1.8 9.45 Q1.8 9.1 2.15 8.95 L2.35 8.95 2.35 8.9 2.5 8.85 2.5 6.5 2.5 6.15 2.6 5.95 2.75 5.8 3.1 5.7 3.1 5.65 3.55 6.0 3.7 6.15 3.7 8.8 4.05 8.8 Q3.55 4.8 3.65 0.75 L3.65 0.4 3.6 0.25 3.45 0.05 3.35 -0.8 3.35 -1.15 3.45 -1.2 3.5 -1.25 3.55 -1.35 3.7 -1.45 3.95 -1.5 4.2 -1.35" fill="#333333" fill-rule="evenodd" stroke="none"/>
    <path d="M1.85 -6.85 L2.05 -6.85 3.9 -6.85 M1.85 -6.85 L0.65 -11.15 -4.15 -11.15 M-4.15 -10.8 L-4.7 -1.05 M-4.7 -0.65 L-5.15 7.25 -5.2 8.8 0.35 8.8 0.95 9.7 2.7 11.15 6.1 11.0 M6.15 10.35 L6.0 9.7 4.3 -6.85" fill="none" stroke="#000000" stroke-linecap="round" stroke-linejoin="round" stroke-width="1.5"/>
  </g>
</svg>
