<?xml version="1.0" encoding="UTF-8" standalone="no"?>
<svg xmlns:ffdec="https://www.free-decompiler.com/flash" xmlns:xlink="http://www.w3.org/1999/xlink" ffdec:objectType="shape" height="25.0px" width="12.85px" xmlns="http://www.w3.org/2000/svg">
  <g transform="matrix(1.0, 0.0, 0.0, 1.0, 5.75, 11.6)">
    <path d="M1.05 -2.15 L0.8 -2.05 0.65 -1.6 0.85 -1.4 1.15 -1.2 1.15 -1.1 1.15 -0.95 1.2 -0.85 1.55 -0.6 1.65 -0.6 Q2.35 0.15 3.3 -0.15 L3.4 -0.25 3.45 -0.55 3.45 -0.65 3.4 -0.75 Q2.35 -1.85 1.05 -2.15 M4.15 -1.7 L4.5 -1.7 6.35 10.95 3.3 12.65 Q1.7 6.6 -2.8 3.75 L-5.0 -8.4 -4.65 -8.6 -2.35 -10.85 -1.85 -10.5 Q-0.8 -3.45 4.15 -1.7 M3.05 2.0 L2.75 1.75 2.55 1.8 2.4 1.95 Q2.25 2.25 2.25 2.75 L2.35 6.6 Q2.55 6.9 2.9 6.8 L2.95 6.75 3.05 6.8 3.05 6.95 3.0 7.2 3.2 7.45 3.3 7.95 3.75 8.4 Q3.9 8.95 4.45 9.1 L4.75 9.25 4.9 9.15 5.15 8.9 5.1 8.7 Q4.65 7.6 4.65 6.45 L4.55 6.35 4.45 6.25 4.5 6.2 4.45 5.95 4.35 4.8 4.25 4.65 4.15 4.55 4.15 4.5 4.1 4.3 3.7 3.8 3.65 3.7 3.65 3.55 3.15 2.9 3.15 2.65 3.15 2.15 3.05 2.0 M-2.75 -4.75 Q-2.7 -6.0 -3.15 -7.1 L-3.15 -7.2 -2.85 -7.6 -2.8 -7.9 -2.8 -8.1 -2.5 -8.35 -2.45 -8.5 -2.5 -8.6 Q-2.7 -9.1 -3.2 -9.0 L-3.2 -8.9 -3.35 -8.9 -3.45 -8.85 -3.65 -8.65 -3.9 -8.4 -4.05 -7.8 -4.0 -7.6 -4.05 -7.55 Q-4.25 -6.95 -3.95 -6.4 L-4.0 -5.95 -3.8 -5.55 -3.65 -5.2 -3.65 -5.15 -3.6 -4.6 -3.65 -4.5 -3.6 -3.6 -3.2 -3.45 -2.95 -3.45 Q-2.7 -3.75 -2.75 -4.2 L-2.75 -4.75 M-2.8 -6.6 L-2.8 -6.2 -2.65 -6.05 -2.6 -5.8 -2.3 -4.65 -2.2 -4.5 -2.15 -4.4 -2.1 -4.15 -1.95 -3.6 -1.8 -3.5 Q-1.3 -3.2 -1.05 -3.65 L-1.1 -3.9 -1.5 -5.2 -1.55 -5.5 -1.9 -6.7 -2.05 -6.8 -2.4 -7.0 -2.65 -6.9 -2.75 -6.85 -2.8 -6.6 M-0.55 -1.55 L-0.5 -1.7 -0.15 -2.35 -0.15 -2.45 -0.15 -2.7 -0.25 -2.9 -0.7 -3.1 -0.7 -3.05 -0.9 -3.05 -0.95 -3.0 -1.05 -2.9 -1.35 -2.3 Q-2.05 -2.1 -2.5 -1.45 L-2.5 -1.35 -2.55 -1.1 -2.35 0.9 -2.25 1.0 Q-2.0 1.35 -2.0 1.75 L-2.0 2.0 -2.0 2.55 -1.9 2.7 -1.85 2.8 -1.85 3.05 -1.8 3.35 -1.15 3.45 -1.05 3.15 -1.05 2.55 -0.95 2.55 -0.85 2.35 -0.9 1.8 -1.15 1.55 -1.2 1.3 -1.5 0.15 -1.55 0.0 -1.65 -0.25 -0.55 -1.55" fill="url(#gradient0)" fill-rule="evenodd" stroke="none"/>
    <path d="M1.05 -2.15 Q2.35 -1.85 3.4 -0.75 L3.45 -0.65 3.45 -0.55 3.4 -0.25 3.3 -0.15 Q2.35 0.15 1.65 -0.6 L1.55 -0.6 1.2 -0.85 1.15 -0.95 1.15 -1.1 1.15 -1.2 0.85 -1.4 0.65 -1.6 0.8 -2.05 1.05 -2.15 M-2.75 -4.75 L-2.75 -4.2 Q-2.7 -3.75 -2.95 -3.45 L-3.2 -3.45 -3.6 -3.6 -3.65 -4.5 -3.6 -4.6 -3.6 -5.15 -3.65 -5.2 -3.8 -5.55 -4.0 -5.95 -3.95 -6.4 -4.0 -7.6 -4.05 -7.8 -3.9 -8.4 -3.65 -8.65 -3.45 -8.85 -3.35 -8.9 -3.2 -8.9 -3.2 -9.0 Q-2.7 -9.1 -2.5 -8.6 L-2.45 -8.5 -2.5 -8.35 -2.8 -8.1 -2.85 -8.0 -2.9 -7.85 -3.1 -7.75 -3.15 -6.7 -2.95 -6.15 -2.95 -6.0 -2.95 -5.9 -2.85 -5.75 -2.8 -5.65 -2.75 -4.75 M-2.8 -6.6 L-2.75 -6.85 -2.65 -6.9 -2.4 -7.0 -2.05 -6.8 -1.9 -6.7 -1.55 -5.5 -1.5 -5.2 -1.1 -3.9 -1.05 -3.65 Q-1.3 -3.2 -1.8 -3.5 L-1.95 -3.6 -2.1 -4.15 -2.15 -4.4 -2.2 -4.5 -2.3 -4.65 -2.6 -5.8 -2.65 -6.05 -2.8 -6.2 -2.8 -6.6" fill="#6657ff" fill-rule="evenodd" stroke="none"/>
    <path d="M3.05 2.0 L3.15 2.15 3.15 2.65 3.15 2.9 3.65 3.55 3.65 3.7 3.7 3.8 4.1 4.3 4.15 4.5 4.15 4.55 4.25 4.65 4.35 4.8 4.45 5.95 4.5 6.2 4.45 6.25 4.55 6.35 4.65 6.45 Q4.65 7.6 5.1 8.7 L5.15 8.9 4.9 9.15 4.75 9.25 4.45 9.1 Q3.9 8.95 3.75 8.4 L3.3 7.95 3.2 7.45 3.0 7.2 3.05 6.95 3.05 6.8 2.95 6.75 2.9 6.8 Q2.55 6.9 2.35 6.6 L2.25 2.75 Q2.25 2.25 2.4 1.95 L2.55 1.8 2.75 1.75 3.05 2.0" fill="#3c1e97" fill-rule="evenodd" stroke="none"/>
    <path d="M-2.8 -8.1 L-2.8 -7.9 -2.85 -7.6 -3.15 -7.2 -3.15 -7.1 Q-2.7 -6.0 -2.75 -4.75 L-2.8 -5.65 -2.85 -5.75 -2.95 -5.9 -2.95 -6.0 -2.95 -6.15 -3.15 -6.7 -3.1 -7.75 -2.9 -7.85 -2.85 -8.0 -2.8 -8.1 M-3.6 -4.6 L-3.65 -5.15 -3.65 -5.2 -3.6 -5.15 -3.6 -4.6 M-3.95 -6.4 Q-4.25 -6.95 -4.05 -7.55 L-4.0 -7.6 -3.95 -6.4 M-0.55 -1.55 L-1.65 -0.25 -1.55 0.0 -1.5 0.15 -1.2 1.3 -1.15 1.55 -0.9 1.8 -0.85 2.35 -0.95 2.55 -1.05 2.55 -1.05 3.15 -1.15 3.45 -1.8 3.35 -1.85 3.05 -1.85 2.8 -1.9 2.7 -2.0 2.55 -2.0 2.0 -2.0 1.75 Q-2.0 1.35 -2.25 1.0 L-2.35 0.9 -2.55 -1.1 -2.5 -1.35 -2.5 -1.45 Q-2.05 -2.1 -1.35 -2.3 L-1.05 -2.9 -0.95 -3.0 -0.9 -3.05 -0.7 -3.05 -0.7 -3.1 -0.25 -2.9 -0.15 -2.7 -0.15 -2.45 -0.15 -2.35 -0.5 -1.7 -0.55 -1.55" fill="#666aff" fill-rule="evenodd" stroke="none"/>
    <path d="M6.35 10.95 L3.3 12.65" fill="none" stroke="#000000" stroke-linecap="round" stroke-linejoin="round" stroke-width="1.5"/>
    <path d="M4.5 -1.7 L6.35 10.95 M3.3 12.65 Q1.7 6.6 -2.8 3.75 L-5.0 -8.4 M-4.65 -8.6 L-2.35 -10.85 M-1.85 -10.5 Q-0.8 -3.45 4.15 -1.7" fill="none" stroke="#000000" stroke-linecap="round" stroke-linejoin="round" stroke-width="1.5"/>
  </g>
  <defs>
    <radialGradient cx="0" cy="0" gradientTransform="matrix(0.0234, 0.0, 0.0, 0.0244, -1.9, -6.6)" gradientUnits="userSpaceOnUse" id="gradient0" r="819.2" spreadMethod="pad">
      <stop offset="0.0" stop-color="#6699ff"/>
      <stop offset="0.23921568627450981" stop-color="#6633ff"/>
      <stop offset="1.0" stop-color="#000000"/>
    </radialGradient>
  </defs>
</svg>
