<?xml version="1.0" encoding="UTF-8" standalone="no"?>
<svg xmlns:ffdec="https://www.free-decompiler.com/flash" xmlns:xlink="http://www.w3.org/1999/xlink" ffdec:objectType="shape" height="29.75px" width="17.0px" xmlns="http://www.w3.org/2000/svg">
  <g transform="matrix(1.0, 0.0, 0.0, 1.0, 8.9, 16.85)">
    <path d="M3.15 -10.7 L2.9 -10.95 3.15 -11.75 3.05 -11.85 2.7 -12.15 2.5 -12.1 2.45 -12.05 2.35 -12.0 1.85 -11.3 1.85 -11.5 1.85 -11.75 1.75 -11.85 1.45 -12.15 Q0.95 -12.05 0.8 -11.5 L0.75 -11.25 Q0.55 -10.8 0.7 -10.45 0.95 -10.1 1.3 -10.2 L1.4 -10.35 1.7 -10.7 1.7 -10.85 1.7 -10.95 1.75 -11.1 1.85 -11.25 1.8 -11.05 1.75 -10.5 1.35 -10.05 1.35 -9.9 1.35 -9.7 Q1.3 -9.6 1.4 -9.55 L1.55 -9.4 1.95 -9.35 2.3 -9.65 2.6 -10.15 3.0 -10.4 3.15 -10.6 3.15 -10.7 M2.7 -6.95 L2.7 -7.05 2.45 -7.05 2.35 -6.25 2.35 -6.05 2.45 -5.15 2.45 -5.0 2.45 -4.75 2.2 -4.5 1.95 -4.5 1.85 -5.3 1.85 -5.45 1.6 -5.7 1.35 -6.5 1.35 -6.6 1.35 -6.7 0.8 -6.85 0.85 -7.55 0.85 -7.6 0.9 -7.65 1.1 -7.65 1.3 -7.4 1.35 -7.4 Q1.4 -7.9 1.8 -7.8 L3.15 -7.7 3.3 -7.65 3.4 -7.65 3.55 -7.55 3.55 -7.45 3.55 -7.3 3.55 -7.15 3.3 -6.75 2.8 -6.75 2.7 -6.95 M2.2 -8.3 L1.1 -8.3 -0.4 -12.9 -4.0 -12.9 -4.0 -13.4 -3.95 -16.35 Q1.55 -14.75 3.75 -11.2 L2.2 -8.3 M-3.2 -12.1 L-3.15 -12.1 -3.0 -12.0 -2.9 -11.0 -2.85 -10.65 -3.0 -10.5 -3.2 -10.5 -3.35 -10.95 -3.4 -11.0 -3.4 -11.45 -3.45 -11.5 -3.55 -11.5 -3.55 -10.65 -3.65 -8.65 -3.65 -8.0 -3.9 -7.7 -3.9 -7.45 -3.9 -7.3 -4.2 -6.75 -4.4 -6.75 -4.5 -8.25 -4.5 -10.9 -4.5 -11.05 -4.35 -10.9 -4.25 -10.8 -4.05 -10.8 -3.9 -10.95 -3.9 -11.05 -3.95 -11.45 -3.95 -11.6 -4.1 -11.7 -4.1 -11.85 -4.1 -11.9 -4.05 -11.9 -4.0 -11.85 -3.95 -11.9 -3.6 -12.15 -3.2 -12.1 M3.85 10.9 L3.4 10.95 3.15 10.95 3.05 11.1 2.6 10.95 2.7 10.6 2.6 10.45 2.65 10.35 2.8 10.3 2.75 10.3 2.7 9.75 2.7 9.65 2.9 9.4 3.25 9.45 3.4 9.6 3.4 10.15 3.4 10.25 3.45 10.3 3.6 10.3 4.0 9.85 4.0 9.9 4.0 10.6 4.2 10.65 4.4 10.45 4.45 10.35 4.45 10.3 4.75 10.3 4.85 10.45 4.95 10.55 5.15 10.55 5.3 10.4 5.4 10.3 5.75 10.2 5.8 10.35 5.8 10.45 Q5.65 10.8 5.25 10.65 L5.05 10.85 3.85 10.9 M0.05 8.05 L-0.35 8.05 -0.55 7.8 -0.65 7.65 -0.65 7.55 -0.65 7.45 -1.2 7.35 -1.4 7.25 -1.8 7.5 -1.8 7.6 -1.9 7.75 -2.15 7.75 -2.15 7.4 -2.2 7.25 -2.2 6.85 -2.25 4.45 -2.25 3.9 -2.15 3.9 -2.0 3.8 -1.9 3.8 -1.8 3.9 -1.8 6.3 -1.8 6.45 -1.65 6.6 -1.3 6.9 -0.6 6.65 -0.4 6.6 -0.3 6.7 -0.25 6.75 -0.2 7.1 -0.2 7.25 0.15 7.8 0.15 7.9 0.05 8.05 M-0.85 -10.8 L-0.85 -10.4 -0.75 -10.2 -0.55 -9.95 -0.55 -9.7 -0.55 -9.15 -0.7 -9.05 -0.9 -9.05 -0.95 -9.15 -1.0 -9.4 -1.0 -9.6 -1.05 -9.65 -1.2 -9.95 -1.3 -10.4 -1.4 -10.5 -1.5 -10.65 -1.5 -10.9 -1.5 -11.45 -1.6 -11.0 -1.55 -10.5 -1.65 -10.4 -1.8 -10.25 -2.0 -10.4 -2.0 -11.7 Q-2.1 -12.1 -1.8 -12.15 L-1.4 -12.1 -1.1 -11.8 -0.85 -11.55 -0.85 -10.9 -0.85 -10.8 M4.1 8.8 L4.3 8.15 4.45 8.05 4.6 8.2 4.6 9.15 4.6 9.3 4.95 9.7 5.2 9.75 5.25 9.3 5.2 9.15 5.5 8.85 5.65 9.0 5.75 9.8 5.0 9.85 4.8 9.75 4.6 9.65 4.2 9.65 Q4.0 9.65 4.0 9.75 L4.1 8.8 M-2.15 7.4 L-2.15 3.9 -2.15 7.4 M-3.1 -15.1 L-3.1 -14.9 -3.2 -13.4 -2.75 -13.2 -2.6 -13.3 Q-2.05 -14.1 -2.2 -15.1 L-2.3 -15.25 -2.65 -15.5 -2.9 -15.4 -3.05 -15.25 -3.1 -15.1 M-5.3 -11.8 L-5.35 -11.7 -5.4 -11.3 -5.3 -11.25 -5.0 -11.25 -4.7 -11.55 -4.7 -11.5 -4.6 -11.25 -4.6 -11.2 -4.6 -11.0 -4.85 -10.8 -5.05 -10.9 -5.05 -11.2 -5.25 -11.1 -5.25 -10.35 -5.25 -9.65 -5.45 -9.4 -5.75 -9.55 -5.75 -11.25 -5.7 -11.85 -5.45 -11.9 -5.4 -11.9 -5.3 -11.8 M-4.1 -9.5 L-4.1 -9.1 -4.0 -9.55 -4.1 -9.5 M-5.7 6.35 L-5.75 6.3 -5.45 6.05 -5.2 6.15 -5.1 6.3 -5.0 6.3 Q-4.85 5.05 -5.2 3.65 L-4.95 3.4 -4.5 3.8 -4.2 6.3 -4.15 6.3 -4.15 4.45 -4.15 4.35 -3.85 4.2 -3.65 4.35 -3.65 5.4 -3.65 5.5 -3.55 5.65 -3.45 5.75 -3.25 0.05 -3.15 0.0 -3.0 0.1 -2.9 6.05 -3.0 6.0 -3.2 6.0 -3.25 6.0 -3.25 6.1 -3.35 6.5 -5.1 6.65 -5.15 6.75 -5.1 7.35 -4.9 7.35 -4.75 7.25 -3.9 7.25 -4.0 7.3 -3.65 7.35 -3.6 7.55 -3.6 7.6 -3.6 7.65 -4.85 7.65 -6.1 7.35 -6.1 7.25 Q-6.1 7.15 -5.95 7.15 L-5.75 7.0 -5.25 7.05 -5.7 6.35 M-2.85 6.8 L-3.0 7.1 -3.0 7.15 -3.0 7.25 -3.15 7.35 -3.5 7.35 -3.6 7.25 -3.6 7.2 -3.2 7.15 -2.85 6.8" fill="#999999" fill-rule="evenodd" stroke="none"/>
    <path d="M3.15 -10.7 L3.15 -10.6 3.0 -10.4 2.6 -10.15 2.3 -9.65 1.95 -9.35 1.55 -9.4 1.4 -9.55 Q1.3 -9.6 1.35 -9.7 L1.35 -9.9 1.35 -10.05 1.75 -10.5 1.8 -11.05 1.85 -11.25 1.75 -11.1 1.7 -10.95 1.7 -10.85 1.7 -10.7 1.4 -10.35 1.3 -10.2 Q0.95 -10.1 0.7 -10.45 0.55 -10.8 0.75 -11.25 L0.8 -11.5 Q0.95 -12.05 1.45 -12.15 L1.75 -11.85 1.85 -11.75 1.85 -11.5 1.85 -11.3 2.35 -12.0 2.45 -12.05 2.5 -12.1 2.7 -12.15 3.05 -11.85 3.15 -11.75 2.9 -10.95 3.15 -10.7 M3.25 1.25 Q4.2 1.55 4.95 2.3 L4.95 2.45 4.9 2.55 4.7 2.8 3.55 2.5 1.45 1.65 1.45 1.55 Q1.5 1.15 1.85 1.15 L1.85 1.1 3.25 1.25 M3.65 3.5 L4.8 4.35 4.85 4.45 4.8 4.55 4.7 4.65 4.55 4.75 4.0 4.7 3.75 4.55 3.7 4.5 Q2.7 4.35 1.85 3.8 L1.65 3.6 1.65 3.35 1.7 3.15 1.75 3.05 1.85 2.95 1.9 2.95 2.05 2.9 2.05 2.85 3.65 3.5 M3.95 5.2 Q4.45 5.4 4.95 5.75 L4.95 5.8 4.9 5.95 4.85 6.05 4.7 6.15 4.0 6.15 Q2.65 6.05 1.65 5.3 L1.7 5.1 Q1.8 4.75 2.05 4.8 L2.05 4.75 3.95 5.2" fill="#666666" fill-rule="evenodd" stroke="none"/>
    <path d="M3.15 -7.7 L1.8 -7.8 Q1.4 -7.9 1.35 -7.4 L1.3 -7.4 1.1 -7.65 0.9 -7.65 0.85 -7.6 0.85 -7.55 0.8 -6.85 1.35 -6.7 1.35 -6.6 1.35 -6.5 1.6 -5.7 1.85 -5.45 1.85 -5.3 1.95 -4.5 2.2 -4.5 2.45 -4.75 2.45 -5.0 2.45 -5.15 2.35 -6.05 2.35 -6.25 2.45 -7.05 2.7 -7.05 2.7 -6.95 2.7 -6.6 2.8 -6.35 3.1 -4.2 3.2 -4.1 3.25 -3.95 3.25 -3.6 3.25 1.25 1.85 1.1 1.85 1.15 Q1.5 1.15 1.45 1.55 L1.45 1.65 3.55 2.5 3.65 3.5 2.05 2.85 2.05 2.9 1.9 2.95 1.85 2.95 1.75 3.05 1.7 3.15 1.65 3.35 1.65 3.6 1.85 3.8 Q2.7 4.35 3.7 4.5 L3.75 4.55 3.75 4.65 3.9 4.75 3.95 4.95 3.95 5.2 2.05 4.75 2.05 4.8 Q1.8 4.75 1.7 5.1 L1.65 5.3 Q2.65 6.05 4.0 6.15 L4.1 8.8 4.0 9.75 3.6 9.75 3.35 9.5 3.3 9.4 Q2.4 7.6 0.65 6.8 L0.45 6.85 -0.3 6.7 -0.4 6.6 -0.6 6.65 -1.65 6.6 -1.8 6.45 -1.8 6.3 -1.8 3.9 -1.9 3.8 -2.0 3.8 -2.15 3.9 -2.25 3.9 -2.25 4.45 -2.2 6.85 -2.25 7.0 -2.25 7.1 -2.2 7.25 -2.15 7.4 -2.15 7.75 -1.9 7.75 -1.8 7.6 -1.8 7.5 -0.65 7.65 -0.55 7.8 -0.35 8.05 0.05 8.05 0.05 8.1 0.05 8.2 0.05 8.3 0.05 8.4 0.05 8.55 0.55 9.45 0.6 9.6 0.65 9.85 0.8 10.0 1.05 10.05 1.2 10.05 1.35 10.0 1.35 9.9 2.9 11.35 3.15 11.25 3.4 11.0 3.4 10.95 3.85 10.9 6.5 10.95 6.7 10.65 6.75 11.15 6.65 11.7 2.25 12.05 -0.85 8.35 -7.7 8.35 -8.05 8.3 -7.35 -1.7 Q-7.05 -1.2 -6.45 -1.55 L-6.4 -1.6 -5.95 -1.7 -5.85 -2.0 -5.8 -3.15 -5.75 -3.3 -5.6 -4.05 -5.05 -5.95 -5.05 -6.25 -5.0 -6.6 -4.95 -7.0 -4.85 -7.1 -4.75 -7.25 -4.75 -7.5 -4.75 -7.55 -4.75 -7.8 -4.6 -7.9 -4.5 -8.25 -4.4 -6.75 -4.2 -6.75 -3.9 -7.3 -3.9 -7.45 -3.9 -7.7 -3.65 -8.0 -3.65 -8.65 -3.55 -10.65 -3.45 -10.8 -3.35 -10.95 -3.2 -10.5 -3.0 -10.5 -2.85 -10.65 -2.9 -11.0 -3.0 -12.0 -3.15 -12.1 -3.2 -12.1 -3.25 -12.15 -3.6 -12.35 -3.75 -12.3 -3.9 -12.15 -5.45 -12.35 -5.95 -12.05 -6.15 -11.65 -6.15 -11.4 -6.2 -9.9 -6.3 -9.8 -6.3 -9.55 -6.4 -8.75 -6.5 -8.75 -6.5 -8.35 -6.45 -8.0 -6.5 -6.5 -6.6 -6.35 -6.85 -5.95 -6.85 -5.7 -6.8 -5.3 -6.4 -5.1 -6.85 -4.0 -6.85 -3.9 Q-6.8 -3.3 -7.2 -2.85 L-7.2 -2.55 -7.2 -2.3 -7.3 -2.2 -7.35 -2.15 -6.65 -12.5 -6.65 -12.9 -4.0 -12.9 -0.4 -12.9 1.1 -8.3 2.2 -8.3 3.75 -8.3 4.3 -8.3 4.8 -4.25 5.7 2.9 5.9 4.3 5.5 4.2 5.9 4.3 6.65 10.5 6.15 10.3 6.2 10.2 5.95 9.9 5.9 9.9 6.0 9.6 6.0 9.45 5.7 6.25 5.7 6.0 5.7 5.35 5.6 5.2 5.5 5.1 5.5 4.8 5.5 4.2 5.5 2.3 5.35 2.2 5.05 1.95 4.95 1.25 4.9 1.15 4.6 0.95 4.3 -1.55 4.25 -1.7 3.95 -4.9 3.95 -5.15 3.75 -6.85 3.65 -7.05 3.6 -7.15 3.6 -7.3 3.6 -7.4 3.55 -7.45 3.55 -7.55 3.4 -7.65 3.3 -7.65 3.15 -7.8 3.15 -7.7 M-2.2 -8.7 L-2.15 3.9 -2.2 -8.7 -2.15 -8.65 -2.05 -8.45 -2.05 -8.1 -2.0 -4.75 -1.85 -4.65 Q-1.6 -4.5 -1.35 -4.65 L-1.2 -4.95 -1.15 -8.4 -1.05 -8.7 -1.05 -9.65 -1.0 -9.6 -1.0 -9.4 -0.95 -9.15 -0.9 -9.05 -0.7 -9.05 -0.55 -9.15 -0.55 -9.7 -0.55 -9.95 -0.75 -10.2 -0.85 -10.4 -0.85 -10.8 -0.65 -11.6 -0.75 -11.7 -1.15 -12.0 -1.3 -12.15 -1.8 -12.35 -1.95 -12.3 -2.15 -12.2 -2.2 -11.9 -2.25 -8.75 -2.2 -8.7 M4.9 6.8 L4.95 6.8 5.0 6.95 5.0 7.2 5.0 7.65 4.9 6.8 M-4.1 -9.5 L-4.0 -9.55 -4.1 -9.1 -4.1 -9.5 M-2.9 6.05 L-3.0 0.1 -3.15 0.0 -3.25 0.05 -3.45 5.75 -3.55 5.65 -3.65 5.5 -3.65 5.4 -3.65 4.35 -3.85 4.2 -4.15 4.35 -4.15 4.45 -4.15 6.3 -4.2 6.3 -4.5 3.8 -4.95 3.4 -5.2 3.65 Q-4.85 5.05 -5.0 6.3 L-5.1 6.3 -5.2 6.15 -5.45 6.05 -5.75 6.3 -5.7 6.35 -6.55 6.35 -6.55 6.4 -6.8 6.45 -6.95 6.6 -7.0 6.75 -7.0 6.85 -7.0 7.0 -6.95 7.25 -4.85 7.65 -3.6 7.65 -3.6 7.6 -3.2 7.6 -3.1 7.5 -2.9 7.25 -3.0 7.15 -3.0 7.1 -2.85 6.8 -2.85 6.75 -2.85 6.65 -2.85 6.6 -2.85 6.1 -2.9 6.05" fill="#ff9900" fill-rule="evenodd" stroke="none"/>
    <path d="M3.15 -7.7 L3.15 -7.8 3.3 -7.65 3.15 -7.7 M3.55 -7.45 L3.6 -7.4 3.6 -7.3 3.6 -7.15 3.65 -7.05 3.75 -6.85 3.95 -5.15 3.95 -4.9 4.25 -1.7 4.3 -1.55 4.6 0.95 4.9 1.15 4.95 1.25 5.05 1.95 5.35 2.2 5.5 2.3 5.5 4.2 5.5 4.8 5.5 5.1 5.6 5.2 5.7 5.35 5.7 6.0 5.7 6.25 6.0 9.45 6.0 9.6 5.9 9.9 5.85 9.8 5.75 9.8 5.65 9.0 5.5 8.85 5.2 9.15 5.25 9.3 5.2 9.75 4.95 9.7 4.6 9.3 4.6 9.15 4.6 8.2 4.45 8.05 4.3 8.15 4.1 8.8 4.0 6.15 4.7 6.15 4.85 6.05 4.9 5.95 4.95 5.8 4.95 5.75 Q4.45 5.4 3.95 5.2 L3.95 4.95 3.9 4.75 3.75 4.65 3.75 4.55 4.0 4.7 4.55 4.75 4.7 4.65 4.8 4.55 4.85 4.45 4.8 4.35 3.65 3.5 3.55 2.5 4.7 2.8 4.9 2.55 4.95 2.45 4.95 2.3 Q4.2 1.55 3.25 1.25 L3.25 -3.6 3.25 -3.95 3.2 -4.1 3.1 -4.2 2.8 -6.35 2.7 -6.6 2.7 -6.95 2.8 -6.75 3.3 -6.75 3.55 -7.15 3.55 -7.3 3.55 -7.45 M6.7 10.65 L6.5 10.95 3.85 10.9 5.05 10.85 5.25 10.65 Q5.65 10.8 5.8 10.45 L5.8 10.35 5.75 10.2 5.9 10.15 5.95 10.1 5.95 10.0 5.95 9.9 6.2 10.2 6.15 10.3 6.65 10.5 6.7 10.5 6.75 10.55 6.7 10.65 M3.4 10.95 L3.4 11.0 3.15 11.25 2.9 11.35 1.35 9.9 1.35 10.0 1.2 10.05 1.05 10.05 0.8 10.0 0.65 9.85 0.6 9.6 0.55 9.45 0.05 8.55 0.05 8.4 0.05 8.3 0.05 8.2 0.05 8.1 0.05 8.05 0.15 7.9 0.15 7.8 -0.2 7.25 -0.2 7.1 -0.25 6.75 -0.3 6.7 0.45 6.85 0.65 6.8 Q2.4 7.6 3.3 9.4 L3.35 9.5 3.6 9.75 4.0 9.75 4.0 9.85 3.6 10.3 3.45 10.3 3.4 10.25 3.4 10.15 3.4 9.6 3.25 9.45 2.9 9.4 2.7 9.65 2.7 9.75 2.75 10.3 2.8 10.3 2.65 10.35 2.6 10.45 2.7 10.6 2.6 10.95 3.05 11.1 3.15 10.95 3.4 10.95 M-0.65 7.65 L-1.8 7.5 -1.4 7.25 -1.2 7.35 -0.65 7.45 -0.65 7.55 -0.65 7.65 M-2.2 7.25 L-2.25 7.1 -2.25 7.0 -2.2 6.85 -2.2 7.25 M4.9 6.8 L5.0 7.65 5.0 7.2 5.0 6.95 4.95 6.8 4.9 6.8 M-0.6 6.65 L-1.3 6.9 -1.65 6.6 -0.6 6.65 M-3.0 7.15 L-2.9 7.25 -3.1 7.5 -3.2 7.6 -3.6 7.6 -3.6 7.55 -3.65 7.35 -4.0 7.3 -3.9 7.25 -3.6 7.2 -3.6 7.25 -3.5 7.35 -3.15 7.35 -3.0 7.25 -3.0 7.15 M-4.85 7.65 L-6.95 7.25 -7.0 7.0 -7.0 6.85 -7.0 6.75 -6.95 6.6 -6.8 6.45 -6.55 6.4 -6.55 6.35 -5.7 6.35 -5.25 7.05 -5.75 7.0 -5.95 7.15 Q-6.1 7.15 -6.1 7.25 L-6.1 7.35 -4.85 7.65" fill="#99732b" fill-rule="evenodd" stroke="none"/>
    <path d="M5.75 9.8 L5.85 9.8 5.9 9.9 5.95 9.9 5.95 10.0 5.95 10.1 5.9 10.15 5.75 10.2 5.4 10.3 5.3 10.4 5.15 10.55 4.95 10.55 4.85 10.45 4.75 10.3 4.45 10.3 4.45 10.35 4.4 10.45 4.2 10.65 4.0 10.6 4.0 9.9 4.0 9.85 4.0 9.75 Q4.0 9.65 4.2 9.65 L4.6 9.65 4.8 9.75 5.0 9.85 5.75 9.8 M-3.1 -15.1 L-3.05 -15.25 -2.9 -15.4 -2.65 -15.5 -2.3 -15.25 -2.2 -15.1 Q-2.05 -14.1 -2.6 -13.3 L-2.75 -13.2 -3.2 -13.4 -3.1 -14.9 -3.1 -15.1 M-5.3 -11.8 L-4.95 -12.15 -4.3 -12.15 -4.15 -12.0 -4.1 -11.9 -4.1 -11.85 -4.1 -11.7 -3.95 -11.6 -3.95 -11.45 -3.9 -11.05 -3.9 -10.95 -4.05 -10.8 -4.25 -10.8 -4.35 -10.9 -4.5 -11.05 -4.6 -11.25 -4.7 -11.5 -4.7 -11.55 -5.0 -11.25 -5.3 -11.25 -5.4 -11.3 -5.35 -11.7 -5.3 -11.8 M-2.9 6.05 L-2.85 6.1 -2.85 6.6 -2.85 6.65 -2.85 6.75 -2.85 6.8 -3.2 7.15 -3.6 7.2 -3.9 7.25 -4.75 7.25 -4.9 7.35 -5.1 7.35 -5.15 6.75 -5.1 6.65 -3.35 6.5 -3.25 6.1 -3.25 6.0 -3.2 6.0 -3.0 6.0 -2.9 6.05" fill="#cccccc" fill-rule="evenodd" stroke="none"/>
    <path d="M-7.35 -2.15 L-7.3 -2.2 -7.2 -2.3 -7.2 -2.55 -7.2 -2.85 Q-6.8 -3.3 -6.85 -3.9 L-6.85 -4.0 -6.4 -5.1 -6.8 -5.3 -6.85 -5.7 -6.85 -5.95 -6.6 -6.35 -6.5 -6.5 -6.45 -8.0 -6.5 -8.35 -6.5 -8.75 -6.4 -8.75 -6.3 -9.55 -6.3 -9.8 -6.2 -9.9 -6.15 -11.4 -6.15 -11.65 -5.95 -12.05 -5.45 -12.35 -3.9 -12.15 -3.75 -12.3 -3.6 -12.35 -3.25 -12.15 -3.2 -12.1 -3.6 -12.15 -3.95 -11.9 -4.0 -11.85 -4.05 -11.9 -4.1 -11.9 -4.15 -12.0 -4.3 -12.15 -4.95 -12.15 -5.3 -11.8 -5.4 -11.9 -5.45 -11.9 -5.7 -11.85 -5.75 -11.25 -5.75 -9.55 -5.45 -9.4 -5.25 -9.65 -5.25 -10.35 -5.25 -11.1 -5.05 -11.2 -5.05 -10.9 -4.85 -10.8 -4.6 -11.0 -4.6 -11.2 -4.6 -11.25 -4.5 -11.05 -4.5 -10.9 -4.5 -8.25 -4.6 -7.9 -4.75 -7.8 -4.75 -7.55 -4.75 -7.5 -4.75 -7.25 -4.85 -7.1 -4.95 -7.0 -5.0 -6.6 -5.05 -6.25 -5.05 -5.95 -5.6 -4.05 -5.75 -3.3 -5.8 -3.15 -5.85 -2.0 -5.95 -1.7 -6.4 -1.6 -6.45 -1.55 Q-7.05 -1.2 -7.35 -1.7 L-7.4 -1.75 -7.35 -2.15 M-3.35 -10.95 L-3.45 -10.8 -3.55 -10.65 -3.55 -11.5 -3.45 -11.5 -3.4 -11.45 -3.4 -11.0 -3.35 -10.95 M-2.2 -8.7 L-2.25 -8.75 -2.2 -11.9 -2.15 -12.2 -1.95 -12.3 -1.8 -12.35 -1.3 -12.15 -1.15 -12.0 -0.75 -11.7 -0.65 -11.6 -0.85 -10.8 -0.85 -10.9 -0.85 -11.55 -1.1 -11.8 -1.4 -12.1 -1.8 -12.15 Q-2.1 -12.1 -2.0 -11.7 L-2.0 -10.4 -1.8 -10.25 -1.65 -10.4 -1.55 -10.5 -1.6 -11.0 -1.5 -11.45 -1.5 -10.9 -1.5 -10.65 -1.4 -10.5 -1.3 -10.4 -1.2 -9.95 -1.05 -9.65 -1.05 -8.7 -1.15 -8.4 -1.2 -4.95 -1.35 -4.65 Q-1.6 -4.5 -1.85 -4.65 L-2.0 -4.75 -2.05 -8.1 -2.05 -8.45 -2.15 -8.65 -2.2 -8.7 -2.15 -12.2 -2.2 -8.7" fill="#ffcc00" fill-rule="evenodd" stroke="none"/>
    <path d="M5.9 4.3 L5.7 2.9 4.8 -4.25 4.3 -8.3 M3.75 -8.3 L2.2 -8.3 1.1 -8.3 -0.4 -12.9 -4.0 -12.9 -6.65 -12.9 M-6.65 -12.5 L-7.35 -2.15 M-7.35 -1.7 L-8.05 8.3 M-7.7 8.35 L-0.85 8.35 2.25 12.05 6.65 11.7 M6.75 11.15 L6.7 10.65 M5.9 4.3 L6.65 10.5" fill="none" stroke="#000000" stroke-linecap="round" stroke-linejoin="round" stroke-width="1.75"/>
    <path d="M5.5 4.2 L5.9 4.3 M-2.15 3.9 L-2.2 -8.7 -2.15 -12.2 M-4.0 -13.4 L-3.95 -16.35 Q1.55 -14.75 3.75 -11.2 L2.2 -8.3 M5.7 2.9 L6.5 3.95 Q8.2 6.5 7.3 9.05 M-2.15 3.9 L-2.15 7.4 M4.8 -4.25 Q9.3 -1.55 6.4 2.05" fill="none" stroke="#000000" stroke-linecap="round" stroke-linejoin="round" stroke-width="1.0"/>
  </g>
</svg>
