<?xml version="1.0" encoding="UTF-8" standalone="no"?>
<svg xmlns:ffdec="https://www.free-decompiler.com/flash" xmlns:xlink="http://www.w3.org/1999/xlink" ffdec:objectType="shape" height="26.45px" width="15.55px" xmlns="http://www.w3.org/2000/svg">
  <g transform="matrix(1.0, 0.0, 0.0, 1.0, 9.0, 13.55)">
    <path d="M0.9 -7.05 L0.75 -7.35 0.75 -7.4 Q0.15 -8.05 -0.8 -8.1 L-1.85 -8.0 -1.95 -8.2 -2.15 -8.65 -2.15 -8.75 Q-2.2 -9.75 -2.75 -10.5 L-2.75 -10.65 -2.85 -10.75 -3.0 -10.95 -3.0 -11.05 -3.05 -11.2 -3.45 -11.65 -3.6 -11.65 -3.8 -11.6 -3.9 -11.35 -4.05 -10.35 -4.0 -10.2 -3.85 -9.25 -3.75 -9.1 -3.75 -9.05 -3.8 -8.35 -3.6 -8.0 -3.35 -6.9 -3.2 -6.75 -0.1 -6.5 Q0.15 -6.05 0.7 -6.2 L0.8 -6.3 0.9 -6.5 0.9 -6.65 0.85 -6.8 0.85 -6.95 0.9 -7.05 M-5.5 -12.8 L-2.65 -11.95 -1.5 -8.15 0.95 -8.75 1.35 -6.45 1.5 -5.9 3.55 -6.45 0.45 -2.85 5.4 -1.4 1.75 0.5 3.55 2.5 1.65 2.05 1.2 1.85 0.45 1.7 0.4 1.65 0.4 1.55 0.4 1.25 0.25 1.05 0.1 0.6 0.15 0.65 0.85 0.4 0.95 0.3 1.0 0.2 Q1.55 0.0 1.9 -0.5 2.85 -0.55 3.5 -1.15 L3.55 -1.3 3.1 -1.75 Q1.65 -1.5 0.4 -0.65 L0.35 -0.55 0.3 -0.4 0.2 -0.3 -0.05 -0.15 -0.1 0.05 -0.55 -1.1 -0.7 -1.25 -1.0 -1.65 -1.0 -1.7 -1.0 -1.85 -1.0 -1.95 -1.75 -3.35 -1.7 -3.45 -1.7 -3.6 -0.7 -3.85 -0.85 -3.6 -1.0 -3.55 -1.2 -3.2 Q-1.15 -2.75 -0.7 -2.65 -0.2 -2.7 0.05 -3.05 L0.2 -3.15 1.65 -4.95 1.6 -5.05 1.2 -5.45 1.15 -5.45 0.9 -5.45 0.75 -5.35 0.65 -5.25 -0.2 -4.5 -0.25 -4.6 -0.5 -4.9 -0.65 -4.9 Q-1.6 -4.75 -2.2 -4.2 L-2.3 -4.2 -2.4 -4.2 -2.5 -4.15 -2.6 -4.05 -2.65 -3.8 -2.7 -3.05 -2.6 -2.9 -2.3 -2.6 -1.75 -1.25 Q-0.85 0.45 -0.3 2.35 L-0.35 2.6 -0.35 2.75 -0.05 3.05 0.3 2.85 0.55 2.55 Q2.05 3.2 3.7 3.35 L3.8 3.3 4.0 3.1 4.05 3.05 5.8 4.95 2.55 4.05 4.5 12.15 2.4 10.4 2.45 10.4 2.65 10.35 2.95 10.2 2.95 10.05 2.95 9.95 3.15 9.9 3.35 9.8 3.4 9.55 3.4 8.9 3.3 8.7 3.0 7.1 2.9 6.95 2.75 6.7 2.8 6.65 2.9 6.55 3.0 6.45 3.0 6.35 2.65 6.0 2.65 5.9 2.55 5.75 2.3 5.45 2.5 5.45 2.6 5.3 2.65 5.2 2.65 5.1 2.6 5.0 Q1.8 4.25 0.65 4.1 L-0.4 3.9 -1.0 3.3 -1.35 3.3 Q-1.7 3.3 -1.75 3.6 L-1.7 3.75 -1.15 4.35 -0.9 4.55 0.0 4.85 0.25 5.25 0.05 5.4 0.0 5.45 -0.05 5.6 0.0 5.7 0.65 6.15 0.65 6.35 0.7 6.5 0.8 6.65 0.8 6.9 0.45 6.9 0.4 7.0 0.25 7.2 0.2 7.3 1.3 8.05 1.3 8.15 Q1.4 9.2 2.05 9.9 L2.1 9.9 2.1 9.95 2.2 10.2 0.25 8.55 -2.85 8.5 -6.2 -4.95 -8.25 -6.95 -5.75 -12.5 -5.5 -12.8 M-6.15 -10.3 L-6.3 -10.1 -6.6 -9.2 -6.85 -9.2 -7.0 -9.15 -7.1 -9.05 -7.15 -8.8 -7.35 -8.05 -7.1 -7.5 -7.2 -7.1 Q-7.25 -6.65 -6.85 -6.4 L-6.7 -6.4 -6.45 -6.1 -6.15 -6.15 -6.05 -6.2 -6.0 -6.4 -5.45 -9.1 -5.55 -9.25 -5.65 -9.45 -5.5 -9.95 -5.55 -10.1 -5.8 -10.4 -5.95 -10.4 -6.15 -10.3 M-2.5 -7.45 L-2.45 -7.4 -2.55 -7.4 -2.5 -7.45 M2.55 4.05 L-0.95 3.0 -3.7 -4.55 1.5 -5.9 -3.7 -4.55 -0.95 3.0 2.55 4.05" fill="#666666" fill-rule="evenodd" stroke="none"/>
    <path d="M0.9 -7.05 L0.85 -6.95 0.85 -6.8 0.9 -6.65 0.9 -6.5 0.8 -6.3 0.7 -6.2 Q0.15 -6.05 -0.1 -6.5 L-3.2 -6.75 -3.35 -6.9 -3.6 -8.0 -3.8 -8.35 -3.75 -9.05 -3.75 -9.1 -3.85 -9.25 -4.0 -10.2 -4.05 -10.35 -3.9 -11.35 -3.8 -11.6 -3.6 -11.65 -3.45 -11.65 -3.05 -11.2 -3.0 -11.05 -3.0 -10.95 -2.85 -10.75 -2.75 -10.65 -2.75 -10.5 Q-2.2 -9.75 -2.15 -8.75 L-2.15 -8.65 -1.95 -8.2 -1.85 -8.0 -0.8 -8.1 Q0.15 -8.05 0.75 -7.4 L0.75 -7.35 0.9 -7.05 M3.55 2.5 L3.6 2.5 4.05 2.95 4.05 3.05 4.0 3.1 3.8 3.3 3.7 3.35 Q2.05 3.2 0.55 2.55 0.7 2.15 0.45 1.7 L1.2 1.85 1.65 2.05 3.55 2.5 M2.4 10.4 L2.2 10.2 2.1 9.95 2.1 9.9 2.05 9.9 Q1.4 9.2 1.3 8.15 L1.3 8.05 2.75 8.2 2.9 8.0 2.95 7.9 2.9 7.75 Q2.6 7.2 1.85 7.2 L1.4 7.05 0.8 6.9 0.8 6.65 0.7 6.5 0.65 6.35 0.65 6.15 2.65 6.7 2.75 6.7 2.9 6.95 3.0 7.1 3.3 8.7 3.4 8.9 3.4 9.55 3.35 9.8 3.15 9.9 2.95 9.95 2.95 10.05 2.95 10.2 2.65 10.35 2.45 10.4 2.4 10.4 M-0.2 -4.5 L0.65 -5.25 0.75 -5.35 0.9 -5.45 1.15 -5.45 1.2 -5.45 1.6 -5.05 1.65 -4.95 0.2 -3.15 0.05 -3.05 Q-0.2 -2.7 -0.7 -2.65 -1.15 -2.75 -1.2 -3.2 L-1.0 -3.55 -0.85 -3.6 -0.7 -3.85 -0.4 -4.0 -0.3 -4.25 -0.2 -4.45 -0.2 -4.5 M-0.1 0.05 L-0.05 -0.15 0.2 -0.3 0.3 -0.4 0.35 -0.55 0.4 -0.65 Q1.65 -1.5 3.1 -1.75 L3.55 -1.3 3.5 -1.15 Q2.85 -0.55 1.9 -0.5 1.55 0.0 1.0 0.2 L0.95 0.3 0.85 0.4 0.15 0.65 0.1 0.6 -0.1 0.05 M2.65 6.0 Q1.8 5.35 0.5 5.25 L0.3 5.2 0.25 5.25 0.0 4.85 -0.9 4.55 -1.15 4.35 -1.7 3.75 -1.75 3.6 Q-1.7 3.3 -1.35 3.3 L-1.0 3.3 -0.4 3.9 0.65 4.1 Q1.8 4.25 2.6 5.0 L2.65 5.1 2.65 5.2 2.6 5.3 2.5 5.45 2.3 5.45 2.55 5.75 2.65 5.9 2.65 6.0 M-2.5 -7.45 L-2.55 -7.4 -2.45 -7.4 -2.5 -7.45 M-6.15 -10.3 L-5.95 -10.4 -5.8 -10.4 -5.55 -10.1 -5.5 -9.95 -5.65 -9.45 -5.55 -9.25 -5.45 -9.1 -6.0 -6.4 -6.05 -6.2 -6.15 -6.15 -6.45 -6.1 -6.7 -6.4 -6.85 -6.4 Q-7.25 -6.65 -7.2 -7.1 L-7.1 -7.5 -7.35 -8.05 -7.15 -8.8 -7.1 -9.05 -7.0 -9.15 -6.85 -9.2 -6.6 -9.2 -6.3 -10.1 -6.15 -10.3" fill="#333333" fill-rule="evenodd" stroke="none"/>
    <path d="M-0.7 -3.85 L-1.7 -3.6 -1.7 -3.45 -1.75 -3.35 -1.0 -1.95 -1.0 -1.85 -1.0 -1.7 -1.0 -1.65 -0.7 -1.25 -0.55 -1.1 -0.1 0.05 0.1 0.6 0.25 1.05 0.4 1.25 0.4 1.55 0.4 1.65 0.45 1.7 Q0.7 2.15 0.55 2.55 L0.3 2.85 -0.05 3.05 -0.35 2.75 -0.35 2.6 -0.3 2.35 Q-0.85 0.45 -1.75 -1.25 L-2.3 -2.6 -2.6 -2.9 -2.7 -3.05 -2.65 -3.8 -2.6 -4.05 -2.5 -4.15 -2.4 -4.2 -2.3 -4.2 -2.2 -4.2 Q-1.6 -4.75 -0.65 -4.9 L-0.5 -4.9 -0.25 -4.6 -0.2 -4.5 -0.2 -4.45 -0.3 -4.25 -0.4 -4.0 -0.7 -3.85 M0.65 6.15 L0.0 5.7 -0.05 5.6 0.0 5.45 0.05 5.4 0.25 5.25 0.3 5.2 0.5 5.25 Q1.8 5.35 2.65 6.0 L3.0 6.35 3.0 6.45 2.9 6.55 2.8 6.65 2.75 6.7 2.65 6.7 0.65 6.15 M0.8 6.9 L1.4 7.05 1.85 7.2 Q2.6 7.2 2.9 7.75 L2.95 7.9 2.9 8.0 2.75 8.2 1.3 8.05 0.2 7.3 0.25 7.2 0.4 7.0 0.45 6.9 0.8 6.9" fill="#66ff00" fill-rule="evenodd" stroke="none"/>
    <path d="M-5.5 -12.8 L-2.65 -11.95 -1.5 -8.15 0.95 -8.75 1.35 -6.45 M1.5 -5.9 L3.55 -6.45 0.45 -2.85 5.4 -1.4 1.75 0.5 3.55 2.5 M4.05 3.05 L5.8 4.95 2.55 4.05 4.5 12.15 2.4 10.4 2.2 10.2 0.25 8.55 -2.85 8.5 -6.2 -4.95 -8.25 -6.95 -5.75 -12.5 M1.5 -5.9 L-3.7 -4.55 -0.95 3.0 2.55 4.05" fill="none" stroke="#000000" stroke-linecap="round" stroke-linejoin="round" stroke-width="1.5"/>
  </g>
</svg>
