<?xml version="1.0" encoding="UTF-8" standalone="no"?>
<svg xmlns:ffdec="https://www.free-decompiler.com/flash" xmlns:xlink="http://www.w3.org/1999/xlink" ffdec:objectType="shape" height="28.25px" width="17.95px" xmlns="http://www.w3.org/2000/svg">
  <g transform="matrix(1.0, 0.0, 0.0, 1.0, 9.05, 14.6)">
    <path d="M2.35 -9.3 Q1.95 -10.3 0.65 -9.9 L0.5 -10.0 -3.6 -12.3 Q-4.3 -12.45 -4.6 -11.8 -4.8 -11.45 -4.55 -11.25 -3.15 -9.85 -1.35 -9.05 0.0 -7.8 1.4 -8.15 L1.0 -7.75 0.85 -7.4 4.35 -5.65 4.6 -5.3 4.1 -5.6 3.45 -5.5 3.2 -5.35 Q2.95 -5.0 3.1 -4.65 L3.55 -3.55 Q4.0 -2.55 5.05 -2.5 L5.5 -2.85 5.55 -3.95 8.15 -0.25 0.5 -4.1 7.85 3.15 3.95 1.65 4.15 1.5 Q5.0 0.45 3.55 -0.2 L3.2 -0.2 Q2.35 -0.1 2.35 0.7 L2.55 1.1 2.3 1.0 1.9 0.55 1.55 0.5 1.15 0.8 Q0.45 2.0 1.35 3.2 L1.35 3.65 2.4 7.25 2.35 7.55 Q2.0 7.1 1.1 7.05 L0.95 6.95 0.15 6.7 -0.1 4.45 0.0 3.95 Q-0.35 1.15 -1.15 -1.45 -1.05 -2.2 -1.3 -2.95 L-1.55 -4.45 Q-1.7 -5.8 -2.55 -6.6 L-2.95 -6.65 Q-3.5 -6.5 -3.45 -5.95 L-3.3 -3.95 Q-4.0 -5.1 -5.05 -5.9 L-5.2 -5.9 -5.35 -5.9 -5.5 -5.85 -5.55 -5.85 -5.75 -5.75 -5.85 -5.55 -6.6 -2.9 -6.3 -2.6 -6.05 -2.65 -5.95 -2.65 -5.85 -2.9 -5.2 -4.9 -5.0 -4.8 Q-4.55 -3.3 -3.3 -2.7 L-3.2 -2.75 -3.1 -2.15 -2.95 -1.65 Q-2.8 -1.45 -2.9 -1.15 L-2.8 -0.85 -2.3 1.15 -2.4 1.5 -2.25 3.0 -2.35 3.65 Q-2.3 4.7 -2.7 5.75 L-2.75 5.8 -3.2 5.65 -4.0 5.5 Q-4.85 5.35 -5.15 6.15 -5.35 6.85 -4.65 7.0 L-1.4 7.9 -0.8 8.25 -0.35 8.25 0.0 8.4 2.0 8.85 2.2 9.15 2.45 9.55 3.45 12.0 Q3.6 12.45 4.05 12.3 5.4 11.9 4.75 10.45 L4.65 10.15 4.25 8.75 Q4.5 8.4 4.1 7.65 L3.9 6.25 5.65 12.0 5.75 12.55 3.3 12.9 1.6 9.25 -5.8 7.4 -8.3 -7.5 -6.85 -11.25 -5.8 -10.7 -5.05 -13.85 -0.15 -11.55 4.45 -11.75 2.35 -9.3 M0.85 -7.4 L-5.8 -10.7 0.85 -7.4 M-3.4 -6.5 L-3.4 -6.6 -3.45 -6.75 Q-4.1 -8.35 -5.6 -9.2 L-5.75 -9.2 -5.8 -9.25 -6.05 -9.25 -6.2 -9.15 -6.3 -9.05 -6.4 -8.8 -7.15 -6.55 -6.85 -6.25 -6.65 -6.3 -6.35 -6.45 -6.25 -6.7 -5.65 -8.2 -3.95 -6.1 -3.65 -6.2 -3.5 -6.25 -3.45 -6.35 -3.4 -6.5" fill="#666666" fill-rule="evenodd" stroke="none"/>
    <path d="M1.4 -8.15 Q0.0 -7.8 -1.35 -9.05 -3.15 -9.85 -4.55 -11.25 -4.8 -11.45 -4.6 -11.8 -4.3 -12.45 -3.6 -12.3 L0.5 -10.0 0.65 -9.9 Q1.95 -10.3 2.35 -9.3 L2.4 -9.2 Q2.55 -8.8 2.2 -8.55 L1.4 -8.15 M5.55 -3.95 L5.5 -2.85 5.05 -2.5 Q4.0 -2.55 3.55 -3.55 L3.1 -4.65 Q2.95 -5.0 3.2 -5.35 L3.45 -5.5 4.1 -5.6 4.6 -5.3 5.55 -3.95 M3.95 1.65 L3.5 1.7 2.55 1.1 2.35 0.7 Q2.35 -0.1 3.2 -0.2 L3.55 -0.2 Q5.0 0.45 4.15 1.5 L3.95 1.65 M2.3 1.0 L3.15 2.9 3.9 6.25 4.1 7.65 Q4.5 8.4 4.25 8.75 L4.65 10.15 4.75 10.45 Q5.4 11.9 4.05 12.3 3.6 12.45 3.45 12.0 L2.45 9.55 2.2 9.15 2.0 8.85 0.0 8.4 -0.35 8.25 -0.8 8.25 -1.4 7.9 -4.65 7.0 Q-5.35 6.85 -5.15 6.15 -4.85 5.35 -4.0 5.5 L-3.2 5.65 -2.75 5.8 -2.7 5.75 Q-2.3 4.7 -2.35 3.65 L-2.25 3.0 -2.4 1.5 -2.3 1.15 -2.8 -0.85 -2.9 -1.15 Q-2.8 -1.45 -2.95 -1.65 L-3.1 -2.15 -3.2 -2.75 -3.1 -2.85 Q-2.95 -2.95 -2.95 -3.2 L-3.0 -3.3 -3.3 -3.95 -3.45 -5.95 Q-3.5 -6.5 -2.95 -6.65 L-2.55 -6.6 Q-1.7 -5.8 -1.55 -4.45 L-1.3 -2.95 Q-1.05 -2.2 -1.15 -1.45 -0.35 1.15 0.0 3.95 L-0.1 4.45 0.15 6.7 0.95 6.95 1.1 7.05 Q2.0 7.1 2.35 7.55 L2.4 7.25 1.35 3.65 1.35 3.2 Q0.45 2.0 1.15 0.8 L1.55 0.5 1.9 0.55 2.3 1.0" fill="#333333" fill-rule="evenodd" stroke="none"/>
    <path d="M-3.3 -3.95 L-3.0 -3.3 -2.95 -3.2 Q-2.95 -2.95 -3.1 -2.85 L-3.2 -2.75 -3.3 -2.7 Q-4.55 -3.3 -5.0 -4.8 L-5.2 -4.9 -5.85 -2.9 -5.95 -2.65 -6.05 -2.65 -6.3 -2.6 -6.6 -2.9 -5.85 -5.55 -5.75 -5.75 -5.55 -5.85 -5.5 -5.85 -5.35 -5.9 -5.2 -5.9 -5.05 -5.9 Q-4.0 -5.1 -3.3 -3.95 M-3.4 -6.5 L-3.45 -6.35 -3.5 -6.25 -3.65 -6.2 -3.95 -6.1 -5.65 -8.2 -6.25 -6.7 -6.35 -6.45 -6.65 -6.3 -6.85 -6.25 -7.15 -6.55 -6.4 -8.8 -6.3 -9.05 -6.2 -9.15 -6.05 -9.25 -5.8 -9.25 -5.75 -9.2 -5.6 -9.2 Q-4.1 -8.35 -3.45 -6.75 L-3.4 -6.6 -3.4 -6.5" fill="#66ff00" fill-rule="evenodd" stroke="none"/>
    <path d="M1.6 9.25 L-5.8 7.4" fill="none" stroke="#000000" stroke-linecap="round" stroke-linejoin="round" stroke-width="1.5"/>
    <path d="M2.35 -9.3 L4.45 -11.75 -0.15 -11.55 -5.05 -13.85 -5.8 -10.7 0.85 -7.4 4.35 -5.65 4.6 -5.3 5.55 -3.95 8.15 -0.25 0.5 -4.1 7.85 3.15 3.95 1.65 M1.0 -7.75 L1.4 -8.15 M2.55 1.1 L2.3 1.0 M3.9 6.25 L5.65 12.0 M5.75 12.55 L3.3 12.9 1.6 9.25 M-5.8 7.4 L-8.3 -7.5 -6.85 -11.25 -5.8 -10.7" fill="none" stroke="#000000" stroke-linecap="round" stroke-linejoin="round" stroke-width="1.5"/>
  </g>
</svg>
