<?xml version="1.0" encoding="UTF-8" standalone="no"?>
<svg xmlns:ffdec="https://www.free-decompiler.com/flash" xmlns:xlink="http://www.w3.org/1999/xlink" ffdec:objectType="shape" height="26.55px" width="18.4px" xmlns="http://www.w3.org/2000/svg">
  <g transform="matrix(1.0, 0.0, 0.0, 1.0, 8.1, 13.15)">
    <path d="M0.3 -7.8 L0.65 -7.1 0.8 -7.1 1.4 -7.15 1.55 -7.4 1.65 -7.6 Q2.35 -7.7 2.85 -8.15 L2.95 -8.4 3.05 -8.75 3.0 -8.9 2.55 -9.25 Q1.75 -9.4 1.1 -8.85 0.45 -9.45 0.1 -8.75 L0.1 -8.7 Q-1.3 -9.85 -3.0 -10.45 L-3.05 -10.4 -3.2 -10.45 -3.45 -10.3 -3.5 -10.2 -3.55 -10.1 Q-3.55 -9.75 -3.25 -9.65 -2.65 -9.45 -2.3 -9.1 -1.15 -8.05 0.3 -7.8 M-4.45 -12.25 L0.45 -9.65 4.35 -9.15 0.7 -4.15 0.95 -3.95 1.3 -2.8 5.8 -1.7 9.55 5.7 9.35 5.9 4.55 1.4 4.2 1.35 3.85 4.4 3.5 4.5 5.8 12.3 3.55 12.65 3.45 12.4 2.4 10.55 2.3 10.3 -5.85 6.75 -4.9 -4.2 -7.35 -11.35 -4.9 -12.4 -4.45 -12.25 M3.65 -0.55 L3.6 -0.5 3.45 -0.55 3.3 -0.5 3.15 -0.4 3.05 0.2 2.95 0.8 2.9 0.95 3.05 1.25 3.15 1.4 3.35 1.55 3.55 1.55 3.65 1.55 3.75 1.5 3.8 1.4 3.95 0.9 3.9 0.65 3.85 0.5 4.35 0.6 4.7 0.75 4.7 0.8 Q5.0 1.25 5.6 1.35 5.85 1.7 6.45 1.55 L6.5 1.45 6.6 1.2 6.55 1.1 6.05 0.65 5.5 0.35 5.4 0.35 5.35 0.25 Q4.65 -0.45 3.65 -0.55 M0.85 3.75 L1.2 3.7 1.55 3.0 1.65 2.4 1.6 2.25 Q1.35 1.75 0.7 1.8 L0.55 1.75 0.4 1.8 0.4 1.85 -0.35 -0.35 -0.3 -0.45 Q-0.25 -0.9 -0.55 -1.3 L-0.55 -1.45 -0.5 -1.55 -0.55 -1.7 -0.8 -2.0 -0.95 -2.0 -1.1 -1.95 -1.25 -1.85 -1.35 -1.65 -1.5 -1.05 -1.35 -0.7 -1.05 1.15 -1.2 1.4 -1.3 1.9 -1.2 2.05 -1.05 2.2 -1.1 2.45 -1.15 3.25 -1.05 3.55 Q-0.95 4.1 -1.2 4.65 -1.1 4.9 -1.15 5.2 L-1.55 6.9 -3.35 5.95 -3.35 6.0 -4.05 5.8 -4.95 5.5 -4.95 5.55 -5.1 5.5 -5.25 5.55 -5.35 5.65 -5.5 5.85 -5.45 5.95 Q-4.2 7.05 -2.55 7.4 L-2.5 7.4 2.1 9.4 2.05 9.55 2.9 10.45 3.05 10.45 3.25 10.45 3.4 10.4 3.5 10.3 3.6 10.2 3.55 10.1 Q3.3 9.4 2.6 9.15 2.6 8.8 2.3 8.6 L1.8 7.1 1.8 6.95 1.75 6.8 1.95 6.7 Q3.35 5.85 2.1 4.8 L1.15 4.65 1.05 4.7 1.0 4.75 0.95 4.7 1.0 4.45 1.0 4.35 0.85 4.15 0.85 4.05 0.85 3.75 M3.5 4.5 L1.3 -2.8 3.5 4.5 M-0.25 7.45 L-0.25 7.5 -0.3 7.45 -0.25 7.45 M-4.8 -11.95 L-4.85 -11.95 -5.0 -12.0 -5.15 -11.95 -5.6 -11.9 -5.7 -11.85 -5.85 -11.75 -5.9 -11.5 -6.35 -10.05 -6.25 -9.9 -6.15 -9.75 -5.4 -7.85 -5.45 -7.75 -5.5 -7.6 -5.5 -7.5 -5.2 -6.85 Q-4.95 -5.9 -4.45 -5.85 L-4.25 -5.7 -4.25 -5.65 -4.1 -5.3 -4.05 -5.15 Q-4.05 -4.75 -3.6 -4.65 -3.0 -3.6 -1.75 -3.6 L-1.65 -3.7 -1.55 -3.9 -3.15 -5.4 -3.15 -5.45 Q-3.35 -6.15 -3.9 -6.55 L-3.85 -7.15 -4.25 -8.7 -4.25 -9.0 -4.25 -9.25 -4.8 -10.45 -4.7 -10.7 -4.35 -11.5 -4.4 -11.65 Q-4.5 -11.9 -4.8 -11.95" fill="#666666" fill-rule="evenodd" stroke="none"/>
    <path d="M0.3 -7.8 Q0.8 -7.35 1.7 -7.65 L1.85 -7.85 1.95 -8.1 1.9 -8.25 Q1.8 -8.5 1.45 -8.55 L0.45 -8.45 0.1 -8.7 0.1 -8.75 Q0.45 -9.45 1.1 -8.85 1.75 -9.4 2.55 -9.25 L3.0 -8.9 3.05 -8.75 2.95 -8.4 2.85 -8.15 Q2.35 -7.7 1.65 -7.6 L1.55 -7.4 1.4 -7.15 0.8 -7.1 0.65 -7.1 0.3 -7.8 M3.65 -0.55 Q4.65 -0.45 5.35 0.25 L5.4 0.35 5.5 0.35 6.05 0.65 6.55 1.1 6.6 1.2 6.5 1.45 6.45 1.55 Q5.85 1.7 5.6 1.35 5.0 1.25 4.7 0.8 L4.7 0.75 4.35 0.6 3.85 0.5 3.9 0.65 3.95 0.9 3.8 1.4 3.75 1.5 3.65 1.55 3.55 1.55 3.35 1.55 3.15 1.4 3.05 1.25 2.9 0.95 2.95 0.8 3.05 0.2 3.15 -0.4 3.3 -0.5 3.45 -0.55 3.6 -0.5 3.65 -0.55 M0.4 1.85 L0.25 1.9 -0.05 2.6 -0.1 3.0 Q0.15 3.7 0.85 3.75 L0.85 4.05 0.85 4.15 1.0 4.35 1.0 4.45 0.95 4.7 1.0 4.75 0.95 4.8 0.8 5.15 Q0.65 5.5 0.65 5.9 0.8 6.5 1.3 6.8 L1.5 6.8 1.75 6.8 1.8 6.95 1.8 7.1 2.3 8.6 Q2.6 8.8 2.6 9.15 3.3 9.4 3.55 10.1 L3.6 10.2 3.5 10.3 3.4 10.4 3.25 10.45 3.05 10.45 2.9 10.45 2.05 9.55 2.1 9.4 -2.5 7.4 -2.55 7.4 Q-4.2 7.05 -5.45 5.95 L-5.5 5.85 -5.35 5.65 -5.25 5.55 -5.1 5.5 -4.95 5.55 -4.95 5.5 -4.05 5.8 -3.35 6.0 -3.35 5.95 -1.55 6.9 -1.15 5.2 Q-1.1 4.9 -1.2 4.65 -0.95 4.1 -1.05 3.55 L-1.15 3.25 -1.1 2.45 -1.05 2.2 -1.2 2.05 -1.3 1.9 -1.2 1.4 -1.05 1.15 -1.35 -0.7 -1.5 -1.05 -1.35 -1.65 -1.25 -1.85 -1.1 -1.95 -0.95 -2.0 -0.8 -2.0 -0.55 -1.7 -0.5 -1.55 -0.55 -1.45 -0.55 -1.3 Q-0.25 -0.9 -0.3 -0.45 L-0.35 -0.35 0.4 1.85 M-4.8 -11.95 Q-4.5 -11.9 -4.4 -11.65 L-4.35 -11.5 -4.7 -10.7 -4.8 -10.45 -4.25 -9.25 -4.25 -9.0 -4.25 -8.7 -3.85 -7.15 -3.9 -6.55 Q-3.35 -6.15 -3.15 -5.45 L-3.15 -5.4 -1.55 -3.9 -1.65 -3.7 -1.75 -3.6 Q-3.0 -3.6 -3.6 -4.65 -4.05 -4.75 -4.05 -5.15 L-4.1 -5.3 -4.25 -5.65 -4.25 -5.7 -4.45 -5.85 Q-4.95 -5.9 -5.2 -6.85 L-5.5 -7.5 -5.5 -7.6 -5.45 -7.75 -5.4 -7.85 -6.15 -9.75 -6.25 -9.9 -6.35 -10.05 -5.9 -11.5 -5.85 -11.75 -5.7 -11.85 -5.6 -11.9 -5.15 -11.95 -5.0 -12.0 -4.85 -11.95 -4.8 -11.95 M-0.25 7.45 L-0.3 7.45 -0.25 7.5 -0.25 7.45" fill="#333333" fill-rule="evenodd" stroke="none"/>
    <path d="M0.1 -8.7 L0.45 -8.45 1.45 -8.55 Q1.8 -8.5 1.9 -8.25 L1.95 -8.1 1.85 -7.85 1.7 -7.65 Q0.8 -7.35 0.3 -7.8 -1.15 -8.05 -2.3 -9.1 -2.65 -9.45 -3.25 -9.65 -3.55 -9.75 -3.55 -10.1 L-3.5 -10.2 -3.45 -10.3 -3.2 -10.45 -3.05 -10.4 -3.0 -10.45 Q-1.3 -9.85 0.1 -8.7 M0.4 1.85 L0.4 1.8 0.55 1.75 0.7 1.8 Q1.35 1.75 1.6 2.25 L1.65 2.4 1.55 3.0 1.2 3.7 0.85 3.75 Q0.15 3.7 -0.1 3.0 L-0.05 2.6 0.25 1.9 0.4 1.85 M1.0 4.75 L1.05 4.7 1.15 4.65 2.1 4.8 Q3.35 5.85 1.95 6.7 L1.75 6.8 1.5 6.8 1.3 6.8 Q0.8 6.5 0.65 5.9 0.65 5.5 0.8 5.15 L0.95 4.8 1.0 4.75" fill="#66ff00" fill-rule="evenodd" stroke="none"/>
    <path d="M2.3 10.3 L-5.85 6.75" fill="none" stroke="#000000" stroke-linecap="round" stroke-linejoin="round" stroke-width="1.5"/>
    <path d="M-4.45 -12.25 L0.45 -9.65 4.35 -9.15 0.7 -4.15 M0.95 -3.95 L1.3 -2.8 5.8 -1.7 9.55 5.7 M9.35 5.9 L4.55 1.4 M4.2 1.35 L3.85 4.4 M3.5 4.5 L5.8 12.3 3.55 12.65 M3.45 12.4 L2.4 10.55 M-5.85 6.75 L-4.9 -4.2 -7.35 -11.35 -4.9 -12.4 M1.3 -2.8 L3.5 4.5" fill="none" stroke="#000000" stroke-linecap="round" stroke-linejoin="round" stroke-width="1.5"/>
  </g>
</svg>
