<?xml version="1.0" encoding="UTF-8" standalone="no"?>
<svg xmlns:ffdec="https://www.free-decompiler.com/flash" xmlns:xlink="http://www.w3.org/1999/xlink" ffdec:objectType="shape" height="22.0px" width="17.3px" xmlns="http://www.w3.org/2000/svg">
  <g transform="matrix(1.0, 0.0, 0.0, 1.0, 9.3, 9.3)">
    <path d="M4.3 -3.8 L4.25 -3.85 4.15 -3.9 4.05 -4.0 4.05 -3.95 3.9 -3.95 3.85 -3.95 3.55 -3.75 3.35 -6.25 3.3 -6.35 3.15 -6.5 3.15 -6.65 3.0 -7.1 2.95 -7.15 2.7 -7.25 2.45 -7.1 2.45 -6.95 2.45 -6.9 2.35 -7.0 2.3 -6.95 2.05 -6.85 2.05 -6.65 2.05 -6.5 2.15 -6.3 2.25 -5.9 2.35 -5.8 2.4 -5.7 2.4 -5.45 2.6 -3.25 2.6 -2.95 2.9 -2.8 3.0 -2.9 3.05 -2.9 3.25 -2.8 3.55 -2.95 4.3 -3.4 4.35 -3.55 4.45 -3.0 3.1 -2.35 0.8 -2.1 0.9 -0.1 1.0 2.5 1.05 4.75 1.15 7.55 3.5 7.35 3.5 7.45 Q2.9 7.75 2.55 8.4 L1.6 8.85 1.55 8.9 1.45 9.0 Q-1.55 9.3 -4.5 9.05 L-5.1 8.9 Q-5.15 8.65 -5.45 8.55 L-5.45 8.5 -5.8 8.05 -5.8 7.9 -5.85 7.7 -5.95 7.65 -6.1 3.55 -6.2 3.45 -6.35 3.4 -6.45 3.45 -6.6 3.5 -6.6 3.7 -6.65 4.9 -6.65 5.0 -6.95 6.2 -7.05 6.3 -7.1 6.4 -7.1 6.55 -7.1 7.35 -7.15 7.3 -7.25 7.35 -7.45 7.45 -7.45 7.65 -7.4 8.45 -7.45 8.45 -7.45 8.55 -7.7 8.55 -7.75 8.65 -8.2 8.55 -4.4 -7.95 Q-0.5 -6.55 3.4 -7.95 L4.3 -3.8" fill="#ffffff" fill-rule="evenodd" stroke="none"/>
    <path d="M3.5 7.35 L1.15 7.55 1.05 4.75 1.0 2.5 0.9 -0.1 0.8 -2.1 3.1 -2.35 4.45 -3.0 4.9 -1.05 6.4 5.95 6.0 6.05 Q4.75 7.0 3.5 7.35 M4.15 -0.2 L4.05 -0.3 3.9 -0.25 3.8 -0.2 3.75 0.0 3.75 0.45 3.8 0.5 3.9 0.7 4.05 1.4 4.5 1.45 4.55 1.25 4.65 1.1 4.7 0.9 4.6 0.3 4.5 0.25 4.45 0.2 4.4 0.15 4.35 0.1 4.3 0.05 4.25 -0.15 4.15 -0.2 M2.8 -1.9 L2.7 -1.85 2.55 -1.75 2.55 -1.6 Q2.5 -1.0 2.6 -0.45 L3.25 -0.5 3.25 -0.7 3.0 -1.75 2.95 -1.8 2.8 -1.9 M4.0 -1.55 L3.95 -1.75 3.85 -2.1 3.8 -2.15 3.5 -2.4 3.4 -2.35 3.2 -2.2 3.2 -2.05 3.2 -1.9 3.3 -1.7 3.45 -1.1 Q3.75 -0.75 4.15 -0.95 L4.2 -1.15 4.2 -1.4 4.1 -1.45 4.0 -1.55 M0.9 -0.1 Q2.95 0.1 4.9 -1.05 2.95 0.1 0.9 -0.1 M4.95 3.85 L4.95 3.7 4.95 3.25 5.0 3.15 5.0 3.1 4.95 2.75 4.85 2.05 4.8 1.95 4.65 1.9 4.55 1.95 4.4 2.0 4.4 2.15 4.4 2.2 4.4 2.3 4.25 2.35 4.2 2.55 4.2 2.8 4.25 2.9 4.35 3.15 4.35 3.6 4.45 3.65 4.6 3.85 4.75 3.85 4.95 3.85 Q3.45 4.95 1.05 4.75 3.45 4.95 4.95 3.85 M3.45 2.5 L3.4 2.65 Q3.35 3.3 3.45 3.85 3.7 4.15 4.0 4.05 L4.1 3.9 4.1 3.65 4.1 3.55 3.9 2.5 3.8 2.45 3.7 2.35 3.6 2.4 3.45 2.5 M3.5 0.1 L3.4 0.05 3.25 -0.05 3.15 0.0 3.0 0.1 3.0 0.15 3.0 1.05 3.1 1.75 3.15 1.8 3.3 2.0 3.5 2.0 3.65 2.0 3.75 1.85 Q3.85 1.5 3.55 1.25 L3.5 0.1 M5.6 5.25 L5.1 4.65 5.05 4.45 5.0 4.35 4.85 4.3 4.75 4.35 4.55 4.45 4.55 4.65 4.55 5.75 4.6 5.8 4.3 5.9 4.2 5.05 4.1 4.95 3.95 4.9 3.85 4.95 3.65 5.1 3.65 5.25 3.75 6.05 2.7 6.4 1.65 6.4 1.6 6.5 1.6 6.75 1.6 6.8 1.6 7.05 1.85 7.1 2.75 7.0 Q4.15 7.1 5.35 6.2 L5.4 6.15 5.45 6.1 5.6 5.95 5.6 5.75 5.6 5.35 5.6 5.25 M1.0 2.5 L4.4 2.15 1.0 2.5" fill="#666666" fill-rule="evenodd" stroke="none"/>
    <path d="M4.0 -1.55 L4.1 -1.45 4.2 -1.4 4.2 -1.15 4.15 -0.95 Q3.75 -0.75 3.45 -1.1 L3.3 -1.7 3.2 -1.9 3.2 -2.05 3.2 -2.2 3.4 -2.35 3.5 -2.4 3.8 -2.15 3.85 -2.1 3.95 -1.75 4.0 -1.55 M2.8 -1.9 L2.95 -1.8 3.0 -1.75 3.25 -0.7 3.25 -0.5 2.6 -0.45 Q2.5 -1.0 2.55 -1.6 L2.55 -1.75 2.7 -1.85 2.8 -1.9 M4.15 -0.2 L4.25 -0.15 4.3 0.05 4.35 0.1 4.4 0.15 4.45 0.2 4.5 0.25 4.6 0.3 4.7 0.9 4.65 1.1 4.55 1.25 4.5 1.45 4.05 1.4 3.9 0.7 3.8 0.5 3.75 0.45 3.75 0.0 3.8 -0.2 3.9 -0.25 4.05 -0.3 4.15 -0.2 M5.6 5.25 L5.6 5.35 5.6 5.75 5.6 5.95 5.45 6.1 5.4 6.15 5.35 6.2 Q4.15 7.1 2.75 7.0 L1.85 7.1 1.6 7.05 1.6 6.8 1.6 6.75 1.6 6.5 1.65 6.4 2.7 6.4 3.75 6.05 3.65 5.25 3.65 5.1 3.85 4.95 3.95 4.9 4.1 4.95 4.2 5.05 4.3 5.9 4.6 5.8 4.55 5.75 4.55 4.65 4.55 4.45 4.75 4.35 4.85 4.3 5.0 4.35 5.05 4.45 5.1 4.65 5.6 5.25 M3.5 0.1 L3.55 1.25 Q3.85 1.5 3.75 1.85 L3.65 2.0 3.5 2.0 3.3 2.0 3.15 1.8 3.1 1.75 3.0 1.05 3.0 0.15 3.0 0.1 3.15 0.0 3.25 -0.05 3.4 0.05 3.5 0.1 M3.45 2.5 L3.6 2.4 3.7 2.35 3.8 2.45 3.9 2.5 4.1 3.55 4.1 3.65 4.1 3.9 4.0 4.05 Q3.7 4.15 3.45 3.85 3.35 3.3 3.4 2.65 L3.45 2.5 M4.4 2.15 L4.4 2.0 4.55 1.95 4.65 1.9 4.8 1.95 4.85 2.05 4.95 2.75 5.0 3.1 5.0 3.15 4.95 3.25 4.95 3.7 4.95 3.85 4.75 3.85 4.6 3.85 4.45 3.65 4.35 3.6 4.35 3.15 4.25 2.9 4.2 2.8 4.2 2.55 4.25 2.35 4.4 2.3 4.4 2.2 4.4 2.15 4.8 1.95 4.4 2.15" fill="#999999" fill-rule="evenodd" stroke="none"/>
    <path d="M4.35 -3.55 L4.3 -3.4 3.55 -2.95 3.25 -2.8 3.05 -2.9 3.0 -2.9 2.9 -2.8 2.6 -2.95 2.6 -3.25 2.4 -5.45 2.4 -5.7 2.35 -5.8 2.25 -5.9 2.15 -6.3 2.05 -6.5 2.05 -6.65 2.05 -6.85 2.3 -6.95 2.35 -7.0 2.45 -6.9 2.45 -6.95 2.45 -7.1 2.7 -7.25 2.95 -7.15 3.0 -7.1 3.15 -6.65 3.15 -6.5 3.3 -6.35 3.35 -6.25 3.55 -3.75 3.85 -3.95 3.9 -3.95 4.05 -3.95 4.05 -4.0 4.15 -3.9 4.25 -3.85 4.3 -3.8 4.35 -3.6 4.35 -3.55 M-8.2 8.55 L-7.75 8.65 -7.7 8.55 -7.45 8.55 -7.45 8.45 -7.4 8.45 -7.45 7.65 -7.45 7.45 -7.25 7.35 -7.15 7.3 -7.1 7.35 -7.1 6.55 -7.1 6.4 -7.05 6.3 -6.95 6.2 -6.65 5.0 -6.65 4.9 -6.6 3.7 -6.6 3.5 -6.45 3.45 -6.35 3.4 -6.2 3.45 -6.1 3.55 -5.95 7.65 -5.85 7.7 -5.8 7.9 -5.8 8.05 -5.45 8.5 -5.45 8.55 Q-5.15 8.65 -5.1 8.9 L-4.5 9.05 Q-1.55 9.3 1.45 9.0 L1.55 8.9 1.6 8.85 2.55 8.4 Q2.9 7.75 3.5 7.45 L3.5 7.35 Q4.75 7.0 6.0 6.05 L6.4 5.95 7.25 9.8 Q-0.05 14.0 -8.55 10.0 L-8.2 8.55" fill="#cccccc" fill-rule="evenodd" stroke="none"/>
    <path d="M2.05 -8.4 L1.95 -8.7 Q1.85 -8.9 1.9 -9.1 L2.0 -9.25 2.05 -9.25 2.2 -9.3 Q2.85 -9.25 3.25 -8.75 L3.3 -8.7 3.2 -8.55 3.0 -8.35 2.9 -8.4 2.7 -8.45 2.55 -8.35 2.45 -8.3 2.15 -8.35 2.05 -8.4 M-2.9 -8.6 L-2.9 -8.25 -3.0 -8.2 -3.2 -8.0 -3.35 -8.1 -3.45 -8.15 -3.5 -8.25 -3.5 -8.35 -3.5 -8.45 -4.5 -8.4 -4.55 -8.5 -4.55 -8.55 -4.55 -8.65 -3.45 -9.2 -3.05 -9.1 -3.0 -9.05 -2.9 -8.6" fill="#000000" fill-rule="evenodd" stroke="none"/>
    <path d="M1.15 7.55 L1.05 4.75 1.0 2.5 0.9 -0.1 0.8 -2.1" fill="none" stroke="#000000" stroke-linecap="round" stroke-linejoin="round" stroke-width="1.0"/>
    <path d="M4.3 -3.8 L3.4 -7.95 Q-0.5 -6.55 -4.4 -7.95 L-8.2 8.55 -8.55 10.0 Q-0.05 14.0 7.25 9.8 L6.4 5.95 4.9 -1.05 4.45 -3.0 4.35 -3.55" fill="none" stroke="#000000" stroke-linecap="round" stroke-linejoin="round" stroke-width="1.5"/>
    <path d="M3.5 7.35 L1.15 7.55 M0.8 -2.1 L3.1 -2.35 4.45 -3.0 M4.9 -1.05 Q2.95 0.1 0.9 -0.1 M4.95 3.85 Q3.45 4.95 1.05 4.75 M4.4 2.15 L1.0 2.5 M4.8 1.95 L4.4 2.15 M6.0 6.05 Q4.75 7.0 3.5 7.35" fill="none" stroke="#000000" stroke-linecap="round" stroke-linejoin="round" stroke-width="1.0"/>
  </g>
</svg>
