<?xml version="1.0" encoding="UTF-8" standalone="no"?>
<svg xmlns:ffdec="https://www.free-decompiler.com/flash" xmlns:xlink="http://www.w3.org/1999/xlink" ffdec:objectType="shape" height="22.6px" width="18.85px" xmlns="http://www.w3.org/2000/svg">
  <g transform="matrix(1.0, 0.0, 0.0, 1.0, 13.1, 6.7)">
    <path d="M1.6 -4.8 L1.45 -4.5 1.3 -4.4 1.3 -4.35 1.3 -4.25 0.55 -4.35 0.5 -4.35 0.25 -4.6 0.25 -4.75 0.15 -5.05 0.1 -5.2 0.15 -5.4 0.25 -5.6 0.35 -5.6 0.45 -5.65 0.6 -5.65 1.05 -5.2 1.1 -5.2 1.25 -5.2 1.6 -4.9 1.6 -4.8 M1.5 -1.7 L1.35 -2.15 1.25 -2.4 1.25 -2.5 1.3 -2.75 1.2 -3.0 1.15 -3.1 1.2 -3.3 1.25 -3.5 1.35 -3.6 1.5 -3.65 1.4 -3.95 3.45 -4.6 4.85 12.5 5.0 14.7 Q-3.9 16.15 -12.35 12.7 L-11.9 10.75 -6.65 12.3 -6.6 12.3 -6.6 12.05 -6.5 12.0 -6.45 12.0 -6.9 11.85 -7.0 11.7 Q-6.4 11.2 -5.45 11.3 L-5.2 11.35 Q-2.1 11.9 0.9 10.95 L1.1 9.55 1.25 9.15 Q1.15 8.65 1.4 8.2 L1.5 7.9 1.45 7.65 1.6 7.6 1.95 7.35 2.45 7.05 2.5 6.95 2.55 6.9 2.65 6.8 2.8 6.7 2.85 6.65 2.9 6.55 3.0 6.2 3.05 6.0 3.0 5.9 Q2.7 5.5 2.1 5.4 L1.85 5.45 1.6 5.55 1.55 5.65 1.45 5.95 1.45 6.0 1.35 5.75 1.55 4.9 1.5 4.7 1.55 4.55 1.6 4.35 1.85 4.05 2.25 3.7 2.35 3.5 2.4 3.4 2.4 3.3 2.35 3.2 1.7 2.75 1.75 1.85 1.9 1.35 1.8 1.2 1.75 1.05 1.8 0.65 1.9 0.45 1.5 -1.7 M-5.45 -5.65 L-5.3 -5.65 -4.85 -5.45 -4.85 -5.5 -4.6 -5.6 -4.45 -5.65 -4.25 -5.35 -4.2 -5.25 -4.35 -4.75 -4.5 -4.55 Q-4.75 -4.45 -4.9 -4.65 L-5.0 -4.65 Q-5.55 -4.85 -5.75 -5.35 L-5.45 -5.65 M-6.6 12.3 Q-1.0 13.45 4.85 12.5 -1.0 13.45 -6.6 12.3" fill="#55e1b7" fill-rule="evenodd" stroke="none"/>
    <path d="M1.4 -3.95 L1.5 -3.65 1.35 -3.6 1.25 -3.5 1.2 -3.3 1.15 -3.1 1.2 -3.0 1.3 -2.75 1.25 -2.5 1.25 -2.4 1.35 -2.15 1.5 -1.7 1.2 -1.5 1.1 -1.4 0.5 -1.4 Q0.0 -1.15 -0.6 -1.05 L-0.65 -0.95 -0.75 -0.75 -0.7 -0.55 -0.7 -0.4 -0.7 -0.3 -0.75 -0.2 -0.45 1.9 -0.45 2.0 -0.3 2.5 -0.25 2.6 Q-0.05 3.9 0.0 5.25 L-0.1 5.15 -0.1 5.1 -0.3 4.75 -0.55 4.5 -0.55 4.55 Q-0.9 4.4 -1.15 4.55 L-1.4 4.9 -1.7 6.25 Q-1.55 6.6 -1.1 6.55 L-1.05 6.6 Q-0.45 6.55 -0.1 6.15 L-0.05 6.05 -0.1 5.9 0.0 5.8 Q-0.05 6.5 -0.45 7.0 L-0.5 7.1 -0.6 7.3 -1.4 7.8 -1.65 7.8 -1.85 7.75 -2.45 8.0 -2.8 7.9 -3.95 8.8 -3.95 8.9 -4.0 9.0 -4.15 9.2 -4.2 9.25 Q-4.2 9.7 -4.55 9.95 L-4.65 10.05 -4.65 10.25 -4.7 10.45 -4.8 10.55 -4.9 10.65 -4.95 10.75 -4.95 10.85 -5.45 11.3 Q-6.4 11.2 -7.0 11.7 L-6.9 11.85 -6.45 12.0 -6.5 12.0 -6.6 12.05 -6.65 12.3 -11.9 10.75 -11.4 9.1 Q-9.85 6.25 -5.3 5.35 L-7.3 -4.95 Q-3.0 -2.85 1.4 -3.95 M-5.1 -1.0 L-5.15 -0.8 -4.9 0.3 -4.95 0.4 -4.95 0.5 -4.9 0.6 -4.8 0.75 -4.75 0.95 -4.5 2.05 -4.45 2.2 -4.25 2.7 -4.3 2.8 -4.3 2.9 -4.15 3.5 Q-4.0 4.6 -3.2 5.1 L-3.15 5.05 -2.75 5.3 -2.6 5.25 -2.45 5.05 -2.4 5.0 -2.45 4.45 -2.6 4.15 -2.55 3.4 -2.95 0.15 -3.05 0.0 -3.1 -0.1 -3.05 -0.2 -3.0 -0.3 -3.0 -0.4 -2.95 -0.5 -3.0 -0.65 -3.1 -1.0 -3.15 -1.25 -3.25 -1.4 -3.3 -1.5 Q-3.45 -2.25 -4.35 -2.35 L-4.5 -2.35 -4.55 -2.35 -4.65 -2.3 -5.0 -1.65 -5.1 -1.0 M-5.85 6.85 L-6.05 6.9 Q-8.0 7.35 -9.6 8.75 L-9.65 9.05 -9.95 10.1 Q-9.65 10.65 -9.05 10.6 L-8.95 10.55 -8.3 10.0 -8.2 9.65 -8.05 9.15 -7.9 9.1 -7.6 8.85 Q-6.85 8.35 -5.95 8.15 L-5.8 8.0 Q-5.5 7.75 -5.5 7.4 L-5.55 7.25 -5.85 6.85" fill="#a8ffe2" fill-rule="evenodd" stroke="none"/>
    <path d="M-6.65 12.3 L-6.6 12.05 -6.6 12.3 -6.65 12.3 M-5.45 11.3 L-4.95 10.85 -4.95 10.75 -4.9 10.65 -4.8 10.55 -4.7 10.45 -4.65 10.25 -4.65 10.05 -4.55 9.95 Q-4.2 9.7 -4.2 9.25 L-4.15 9.2 -4.0 9.0 -3.95 8.9 -3.95 8.8 -2.8 7.9 -2.45 8.0 -1.85 7.75 -1.65 7.8 -1.4 7.8 -0.6 7.3 -0.5 7.1 -0.45 7.0 Q-0.05 6.5 0.0 5.8 L0.1 5.6 0.1 5.5 0.05 5.35 0.0 5.25 Q-0.05 3.9 -0.25 2.6 L-0.3 2.5 -0.45 2.0 -0.45 1.9 -0.75 -0.2 -0.7 -0.3 -0.7 -0.4 -0.7 -0.55 -0.75 -0.75 -0.65 -0.95 -0.6 -1.05 Q0.0 -1.15 0.5 -1.4 L1.1 -1.4 1.2 -1.5 1.5 -1.7 1.9 0.45 1.8 0.65 1.75 1.05 1.8 1.2 1.9 1.35 1.75 1.85 1.7 2.75 1.45 2.7 0.9 2.6 0.7 2.6 0.4 3.0 0.35 3.25 0.45 3.5 Q0.55 4.4 1.45 4.45 L1.6 4.35 1.55 4.55 1.5 4.7 1.55 4.9 1.35 5.75 1.45 6.0 1.35 6.1 1.1 6.15 0.9 6.3 0.85 6.4 0.8 6.5 0.8 6.6 0.75 6.7 0.8 6.8 0.85 6.95 0.8 7.05 0.8 7.15 0.8 7.25 0.85 7.35 Q1.15 7.65 1.45 7.65 L1.5 7.9 1.4 8.2 Q1.15 8.65 1.25 9.15 L1.1 9.55 0.9 10.95 Q-2.1 11.9 -5.2 11.35 L-5.45 11.3 M0.4 4.8 L0.35 5.25 0.3 5.45 0.4 5.55 Q0.7 5.9 1.15 5.8 L1.4 5.4 1.4 5.1 1.35 5.0 Q1.2 4.65 0.85 4.65 L0.6 4.65 0.5 4.75 0.4 4.8 M-4.25 -1.3 L-4.25 -1.45 -4.05 -1.3 -4.25 -1.3" fill="#66ffcc" fill-rule="evenodd" stroke="none"/>
    <path d="M0.0 5.8 L-0.1 5.9 -0.05 6.05 -0.1 6.15 Q-0.45 6.55 -1.05 6.6 L-1.1 6.55 Q-1.55 6.6 -1.7 6.25 L-1.4 4.9 -1.15 4.55 Q-0.9 4.4 -0.55 4.55 L-0.55 4.5 -0.3 4.75 -0.1 5.1 -0.1 5.15 0.0 5.25 0.05 5.35 0.1 5.5 0.1 5.6 0.0 5.8 M1.7 2.75 L2.35 3.2 2.4 3.3 2.4 3.4 2.35 3.5 2.25 3.7 1.85 4.05 1.6 4.35 1.45 4.45 Q0.55 4.4 0.45 3.5 L0.35 3.25 0.4 3.0 0.7 2.6 0.9 2.6 1.45 2.7 1.7 2.75 M1.45 6.0 L1.45 5.95 1.55 5.65 1.6 5.55 1.85 5.45 2.1 5.4 Q2.7 5.5 3.0 5.9 L3.05 6.0 3.0 6.2 2.9 6.55 2.85 6.65 2.8 6.7 2.65 6.8 2.55 6.9 2.5 6.95 2.45 7.05 1.95 7.35 1.6 7.6 1.45 7.65 Q1.15 7.65 0.85 7.35 L0.8 7.25 0.8 7.15 0.8 7.05 0.85 6.95 0.8 6.8 0.75 6.7 0.8 6.6 0.8 6.5 0.85 6.4 0.9 6.3 1.1 6.15 1.35 6.1 1.45 6.0 M0.4 4.8 L0.5 4.75 0.6 4.65 0.85 4.65 Q1.2 4.65 1.35 5.0 L1.4 5.1 1.4 5.4 1.15 5.8 Q0.7 5.9 0.4 5.55 L0.3 5.45 0.35 5.25 0.4 4.8" fill="#666666" fill-rule="evenodd" stroke="none"/>
    <path d="M-5.1 -1.0 L-5.0 -1.65 -4.65 -2.3 -4.55 -2.35 -4.5 -2.35 -4.35 -2.35 Q-3.45 -2.25 -3.3 -1.5 L-3.25 -1.4 -3.15 -1.25 -3.1 -1.0 -3.0 -0.65 -2.95 -0.5 -3.0 -0.4 -3.0 -0.3 -3.05 -0.2 -3.1 -0.1 -3.05 0.0 -2.95 0.15 -2.55 3.4 -2.6 4.15 -2.45 4.45 -2.4 5.0 -2.45 5.05 -2.6 5.25 -2.75 5.3 -3.15 5.05 -3.2 5.1 Q-4.0 4.6 -4.15 3.5 L-4.3 2.9 -4.3 2.8 -4.25 2.7 -4.45 2.2 -4.5 2.05 -4.75 0.95 -4.8 0.75 -4.9 0.6 -4.95 0.5 -4.95 0.4 -4.9 0.3 -5.15 -0.8 -5.1 -1.0 M-4.25 -1.3 L-4.05 -1.3 -4.25 -1.45 -4.25 -1.3 M-5.85 6.85 L-5.55 7.25 -5.5 7.4 Q-5.5 7.75 -5.8 8.0 L-5.95 8.15 Q-6.85 8.35 -7.6 8.85 L-7.9 9.1 -8.05 9.15 -8.2 9.65 -8.3 10.0 -8.95 10.55 -9.05 10.6 Q-9.65 10.65 -9.95 10.1 L-9.65 9.05 -9.6 8.75 Q-8.0 7.35 -6.05 6.9 L-5.85 6.85" fill="#ffffff" fill-rule="evenodd" stroke="none"/>
    <path d="M1.4 -3.95 Q-3.0 -2.85 -7.3 -4.95 L-5.3 5.35 Q-9.85 6.25 -11.4 9.1 L-11.9 10.75 -12.35 12.7 Q-3.9 16.15 5.0 14.7 L4.85 12.5 3.45 -4.6 1.4 -3.95 M3.45 -5.1 L1.4 -5.8 0.75 -5.95 M-4.85 -5.9 L-7.3 -4.95" fill="none" stroke="#000000" stroke-linecap="round" stroke-linejoin="round" stroke-width="1.5"/>
    <path d="M-11.9 10.75 L-6.65 12.3 -6.6 12.3 Q-1.0 13.45 4.85 12.5" fill="none" stroke="#000000" stroke-linecap="round" stroke-linejoin="round" stroke-width="1.0"/>
  </g>
</svg>
