<?xml version="1.0" encoding="UTF-8" standalone="no"?>
<svg xmlns:ffdec="https://www.free-decompiler.com/flash" xmlns:xlink="http://www.w3.org/1999/xlink" ffdec:objectType="shape" height="26.3px" width="12.7px" xmlns="http://www.w3.org/2000/svg">
  <g transform="matrix(1.0, 0.0, 0.0, 1.0, 7.05, 11.8)">
    <path d="M0.75 -0.95 L0.9 -1.15 Q2.5 -1.5 3.8 -2.6 L3.9 -2.6 4.1 -2.6 4.35 -2.3 4.45 -2.15 Q3.75 -1.1 2.6 -0.45 L2.5 -0.4 1.5 -0.2 1.25 0.4 1.15 0.4 1.0 0.4 0.9 0.4 0.8 0.5 0.35 0.75 0.2 0.85 -0.15 1.3 Q-0.3 1.1 -0.5 1.05 L-0.5 1.1 -0.7 1.1 -0.8 1.1 -0.9 1.15 -1.0 1.25 -1.0 1.3 -1.9 0.3 -2.75 -1.15 -3.0 -1.15 -3.1 -1.1 -3.15 -0.95 -3.2 -0.85 -3.55 -0.5 -3.6 -0.4 -4.0 -0.35 -4.15 -0.4 -4.5 -0.85 -4.45 -0.9 -4.2 -1.25 -3.85 -1.75 -3.8 -1.9 Q-3.35 -2.1 -3.25 -2.55 L-3.2 -2.7 -2.45 -2.9 -0.35 0.25 0.25 0.65 0.6 -0.65 0.65 -0.8 0.75 -0.95 M-2.5 6.55 L-2.0 6.45 0.35 7.05 1.05 7.6 2.5 6.8 2.7 6.85 2.85 7.0 2.95 7.15 3.0 7.3 2.95 7.4 2.9 7.55 2.85 7.8 1.15 8.55 1.1 8.55 1.0 8.55 0.95 8.5 -0.4 7.95 -2.45 7.0 -2.6 6.8 -2.5 6.55" fill="#cccccc" fill-rule="evenodd" stroke="none"/>
    <path d="M-1.0 1.3 L-1.0 1.25 -0.9 1.15 -0.8 1.1 -0.7 1.1 -0.5 1.1 -0.5 1.05 Q-0.3 1.1 -0.15 1.3 L0.2 0.85 0.35 0.75 0.8 0.5 0.9 0.4 1.0 0.4 1.15 0.4 1.25 0.4 1.65 0.8 1.7 0.95 1.4 1.4 1.15 1.6 0.65 1.95 -0.3 2.55 -0.4 2.55 -0.55 2.55 -0.9 2.2 -0.85 2.0 -1.05 1.35 -1.0 1.3 M-2.65 -0.5 L-2.65 -0.55 Q-2.35 -0.4 -2.35 -0.05 L-2.35 0.05 -2.55 0.25 -2.7 0.35 Q-3.35 0.4 -3.45 -0.15 -3.25 -0.75 -2.65 -0.5 M-2.05 2.7 L-1.95 3.15 -2.0 3.4 -2.0 3.55 -1.85 3.75 -1.75 4.15 -1.75 4.45 Q-2.6 5.2 -3.05 3.95 L-3.0 3.7 -2.9 3.3 -2.95 2.15 -2.85 1.8 -3.0 1.45 -3.1 1.3 -3.05 1.15 -3.0 1.05 -2.95 0.9 -2.85 0.8 -2.7 0.7 -2.45 0.7 Q-1.65 1.45 -2.0 2.6 L-2.05 2.7" fill="#ffffff" fill-rule="evenodd" stroke="none"/>
    <path d="M1.05 -8.05 L1.1 -8.0 1.65 -7.45 1.85 -7.25 1.95 -6.85 2.05 -6.9 2.2 -6.9 2.25 -6.85 2.3 -6.8 2.35 -6.8 2.55 -6.8 2.85 -6.35 2.85 -6.2 2.65 -6.0 2.5 -5.95 2.3 -5.95 2.25 -5.95 2.2 -5.95 2.15 -5.9 2.05 -5.8 1.95 -5.7 1.8 -5.75 1.8 -5.7 1.7 -5.65 1.4 -5.45 Q0.6 -5.6 0.5 -6.45 L0.65 -6.7 0.7 -6.75 0.35 -7.35 0.25 -7.65 0.65 -8.0 1.05 -8.05 M3.5 0.5 L3.7 0.7 4.4 8.55 4.1 8.8 2.95 7.4 3.0 7.3 2.95 7.15 2.85 7.0 1.95 1.85 3.5 0.5" fill="#666666" fill-rule="evenodd" stroke="none"/>
    <path d="M-3.75 6.25 L-3.9 2.9 -4.0 0.25 -4.0 -0.35 -3.6 -0.4 -3.55 -0.5 -3.2 -0.85 -3.15 -0.95 -3.1 -1.1 -3.0 -1.15 -2.75 -1.15 -1.9 0.3 -1.0 1.3 -1.05 1.35 -0.85 2.0 -0.9 2.2 -0.55 2.55 -0.4 2.55 -0.3 2.55 0.65 1.95 0.65 2.0 0.7 2.2 0.7 2.3 0.7 2.45 0.8 2.65 0.35 4.05 0.3 4.3 Q0.55 5.0 0.25 5.65 L0.2 5.8 0.2 5.95 0.3 6.1 0.25 6.8 -0.55 6.35 -2.6 5.85 Q-3.1 5.75 -3.2 6.2 L-3.75 6.25 M-2.05 2.7 L-2.0 2.6 Q-1.65 1.45 -2.45 0.7 L-2.7 0.7 -2.85 0.8 -2.95 0.9 -3.0 1.05 -3.05 1.15 -3.1 1.3 -3.0 1.45 -2.85 1.8 -2.95 2.15 -2.9 3.3 -3.0 3.7 -3.05 3.95 Q-2.6 5.2 -1.75 4.45 L-1.75 4.15 -1.85 3.75 -2.0 3.55 -2.0 3.4 -1.95 3.15 -2.05 2.7 M-2.65 -0.5 Q-3.25 -0.75 -3.45 -0.15 -3.35 0.4 -2.7 0.35 L-2.55 0.25 -2.35 0.05 -2.35 -0.05 Q-2.35 -0.4 -2.65 -0.55 L-2.65 -0.5" fill="#eeeeee" fill-rule="evenodd" stroke="none"/>
    <path d="M1.0 -5.3 L1.85 -4.9 3.45 -6.65 4.8 -5.45 4.7 -2.15 4.45 -2.15 4.35 -2.3 4.1 -2.6 3.9 -2.6 3.8 -2.6 Q2.5 -1.5 0.9 -1.15 L0.75 -0.95 0.8 -1.25 0.55 -1.75 0.6 -1.9 0.75 -2.55 0.6 -3.15 0.65 -3.25 0.7 -3.8 0.75 -4.35 0.6 -4.55 1.0 -5.3 M4.1 8.8 L4.9 9.75 4.15 13.75 -0.25 8.5 -0.6 8.35 -0.4 7.95 0.95 8.5 1.0 8.55 1.1 8.55 1.15 8.55 2.85 7.8 2.9 7.55 2.95 7.4 4.1 8.8" fill="#3b3bfa" fill-rule="evenodd" stroke="none"/>
    <path d="M-0.75 -9.1 L0.35 -5.65 1.0 -5.3 0.6 -4.55 0.75 -4.35 0.7 -3.8 0.65 -3.25 0.6 -3.15 0.75 -2.55 0.6 -1.9 0.55 -1.75 0.8 -1.25 0.75 -0.95 0.65 -0.8 0.6 -0.65 0.25 0.65 -0.35 0.25 -2.45 -2.9 -3.2 -2.7 -3.25 -2.55 Q-3.35 -2.1 -3.8 -1.9 L-3.85 -1.75 -4.2 -1.25 -4.2 -1.35 Q-4.05 -2.1 -4.25 -2.9 L-4.2 -3.25 -4.3 -4.6 -4.4 -4.9 -4.6 -5.65 -4.6 -5.75 -4.55 -5.9 -4.5 -6.0 -4.55 -6.15 -4.75 -6.45 -5.15 -6.6 -5.15 -6.55 -5.3 -6.55 -5.4 -6.55 -5.5 -6.5 -5.65 -6.4 -5.7 -6.25 -5.65 -6.0 -5.55 -5.65 -5.55 -5.55 -5.6 -5.4 -5.6 -5.3 -5.5 -4.95 -5.5 -4.55 -5.35 -4.2 -5.15 -3.05 -5.15 -2.9 -5.2 -2.8 -5.25 -2.65 -5.1 -2.35 -5.0 -2.2 -5.1 -1.9 -5.1 -1.3 -4.75 -0.9 -4.55 -0.9 -4.45 -0.9 -4.5 -0.85 -4.15 -0.4 -4.0 -0.35 -4.0 0.25 -5.1 -0.7 -5.65 -1.15 -5.65 -1.25 -6.3 -6.55 -5.15 -7.25 -5.35 -11.05 -1.1 -10.2 -0.75 -9.1 M-0.6 8.35 L-3.75 7.1 -3.75 6.25 -3.2 6.2 -3.05 6.4 -2.5 6.55 -2.6 6.8 -2.45 7.0 -0.4 7.95 -0.6 8.35 M-1.45 -6.5 L-1.6 -6.45 -1.8 -6.1 Q-1.85 -5.8 -1.5 -5.65 L-1.3 -5.65 -1.15 -5.7 -0.95 -5.9 -0.95 -6.05 -1.25 -6.5 -1.45 -6.5 M-2.1 -8.5 L-2.15 -8.45 -2.3 -8.4 -2.35 -8.15 -2.4 -7.85 -2.05 -7.55 -1.9 -7.55 -1.7 -7.6 -1.55 -7.8 -1.45 -8.05 -1.5 -8.2 -1.75 -8.55 -1.8 -8.5 -1.95 -8.55 -2.1 -8.5 M-4.55 -9.85 L-4.4 -9.4 -4.6 -8.75 Q-4.7 -8.05 -4.4 -7.45 L-4.45 -7.3 -4.45 -7.15 -4.35 -7.0 Q-3.85 -6.55 -3.5 -7.0 -3.3 -7.25 -3.4 -7.55 L-3.3 -8.75 -2.25 -8.7 -2.15 -8.8 -1.9 -9.0 -1.9 -9.1 Q-2.45 -9.85 -3.5 -9.85 L-3.55 -9.95 -4.0 -10.35 -4.0 -10.3 -4.25 -10.3 -4.4 -10.2 -4.55 -10.0 -4.55 -9.85 M-0.05 -4.0 Q-0.05 -4.35 -0.35 -4.5 L-0.35 -4.45 -0.55 -4.5 -0.7 -4.45 -0.95 -4.1 Q-0.95 -3.75 -0.6 -3.65 L-0.4 -3.6 -0.3 -3.7 -0.05 -3.9 -0.05 -4.0" fill="#2473fe" fill-rule="evenodd" stroke="none"/>
    <path d="M-4.2 -1.25 L-4.45 -0.9 -4.55 -0.9 -4.75 -0.9 -5.1 -1.3 -5.1 -1.9 -5.0 -2.2 -5.1 -2.35 -5.25 -2.65 -5.2 -2.8 -5.15 -2.9 -5.15 -3.05 -5.35 -4.2 -5.5 -4.55 -5.5 -4.95 -5.6 -5.3 -5.6 -5.4 -5.55 -5.55 -5.55 -5.65 -5.65 -6.0 -5.7 -6.25 -5.65 -6.4 -5.5 -6.5 -5.4 -6.55 -5.3 -6.55 -5.15 -6.55 -5.15 -6.6 -4.75 -6.45 -4.55 -6.15 -4.5 -6.0 -4.55 -5.9 -4.6 -5.75 -4.6 -5.65 -4.4 -4.9 -4.3 -4.6 -4.2 -3.25 -4.25 -2.9 Q-4.05 -2.1 -4.2 -1.35 L-4.2 -1.25 M-4.55 -9.85 L-4.55 -10.0 -4.4 -10.2 -4.25 -10.3 -4.0 -10.3 -4.0 -10.35 -3.55 -9.95 -3.5 -9.85 Q-2.45 -9.85 -1.9 -9.1 L-1.9 -9.0 -2.15 -8.8 -2.25 -8.7 -3.3 -8.75 -3.4 -7.55 Q-3.3 -7.25 -3.5 -7.0 -3.85 -6.55 -4.35 -7.0 L-4.45 -7.15 -4.45 -7.3 -4.4 -7.45 Q-4.7 -8.05 -4.6 -8.75 L-4.4 -9.4 -4.55 -9.85 M-2.1 -8.5 L-1.95 -8.55 -1.8 -8.5 -1.75 -8.55 -1.5 -8.2 -1.45 -8.05 -1.55 -7.8 -1.7 -7.6 -1.9 -7.55 -2.05 -7.55 -2.4 -7.85 -2.35 -8.15 -2.3 -8.4 -2.15 -8.45 -2.1 -8.5 M-1.45 -6.5 L-1.25 -6.5 -0.95 -6.05 -0.95 -5.9 -1.15 -5.7 -1.3 -5.65 -1.5 -5.65 Q-1.85 -5.8 -1.8 -6.1 L-1.6 -6.45 -1.45 -6.5 M-0.05 -4.0 L-0.05 -3.9 -0.3 -3.7 -0.4 -3.6 -0.6 -3.65 Q-0.95 -3.75 -0.95 -4.1 L-0.7 -4.45 -0.55 -4.5 -0.35 -4.45 -0.35 -4.5 Q-0.05 -4.35 -0.05 -4.0" fill="#5691fe" fill-rule="evenodd" stroke="none"/>
    <path d="M4.7 -2.15 L4.6 -0.5 3.5 0.5 1.95 1.85 2.85 7.0 2.7 6.85 2.5 6.8 1.05 7.6 0.35 7.05 -2.0 6.45 -2.5 6.55 -3.05 6.4 -3.2 6.2 Q-3.1 5.75 -2.6 5.85 L-0.55 6.35 0.25 6.8 0.3 6.1 0.2 5.95 0.2 5.8 0.25 5.65 Q0.55 5.0 0.3 4.3 L0.35 4.05 0.8 2.65 0.7 2.45 0.7 2.3 0.7 2.2 0.65 2.0 0.65 1.95 1.15 1.6 1.4 1.4 1.7 0.95 1.65 0.8 1.25 0.4 1.5 -0.2 2.5 -0.4 2.6 -0.45 Q3.75 -1.1 4.45 -2.15 L4.7 -2.15" fill="#dddddd" fill-rule="evenodd" stroke="none"/>
    <path d="M-0.75 -9.1 L0.35 -5.65 1.0 -5.3 1.85 -4.9 3.45 -6.65 4.8 -5.45 4.7 -2.15 4.6 -0.5 3.5 0.5 1.95 1.85 2.85 7.0 M4.1 8.8 L4.9 9.75 4.15 13.75 -0.25 8.5 -0.6 8.35 -3.75 7.1 -3.75 6.25 -3.9 2.9 -4.0 0.25 -5.1 -0.7 -5.65 -1.15 -5.65 -1.25 -6.3 -6.55 -5.15 -7.25 -5.35 -11.05 -1.1 -10.2 -0.75 -9.1 M2.95 7.4 L4.1 8.8" fill="none" stroke="#000000" stroke-linecap="round" stroke-linejoin="round" stroke-width="1.5"/>
    <path d="M1.05 -8.05 L1.1 -8.0 1.85 -7.65 1.9 -7.4 1.9 -7.25 2.25 -6.85 M1.05 -8.05 L1.05 -8.2 0.95 -8.45 -0.75 -9.1 M3.7 0.7 L4.4 8.55 M-3.9 2.9 L-5.1 -0.7" fill="none" stroke="#000000" stroke-linecap="round" stroke-linejoin="round" stroke-width="1.0"/>
  </g>
</svg>
