<?xml version="1.0" encoding="UTF-8" standalone="no"?>
<svg xmlns:ffdec="https://www.free-decompiler.com/flash" xmlns:xlink="http://www.w3.org/1999/xlink" ffdec:objectType="shape" height="75.7px" width="41.3px" xmlns="http://www.w3.org/2000/svg">
  <g transform="matrix(1.0, 0.0, 0.0, 1.0, 26.25, 73.25)">
    <path d="M4.55 -55.15 Q6.95 -54.3 9.3 -53.6 9.75 -53.45 9.85 -52.95 10.2 -50.95 8.2 -50.8 4.35 -50.45 1.05 -52.65 L-1.6 -54.2 Q-1.8 -54.05 -2.1 -54.05 -4.15 -53.95 -4.5 -55.6 -8.0 -57.4 -9.85 -60.75 L-10.0 -61.55 Q-9.85 -63.2 -8.2 -63.35 -5.9 -63.6 -5.15 -62.05 L-5.35 -65.7 Q-6.25 -67.05 -5.85 -68.05 L-6.35 -69.75 Q-7.85 -71.7 -5.7 -72.95 L-5.0 -73.25 Q-1.6 -72.15 -1.4 -68.25 L-1.35 -67.6 -1.95 -67.55 Q-1.35 -66.35 -1.45 -64.65 -1.55 -63.1 -1.2 -61.6 -0.75 -59.85 -0.75 -58.15 1.7 -56.7 4.3 -55.35 L4.55 -55.15 M2.5 -38.75 L2.6 -37.15 Q4.25 -35.95 4.2 -33.4 4.1 -29.55 4.9 -25.8 5.45 -23.1 5.05 -20.5 6.4 -19.15 7.2 -17.15 L9.15 -12.75 9.35 -12.1 Q12.45 -6.9 14.85 -1.5 L15.05 -0.45 14.85 1.05 Q14.45 2.65 12.1 2.45 8.35 2.1 4.9 1.05 4.25 0.85 4.2 0.15 4.1 -1.95 6.1 -2.15 L10.45 -2.0 9.35 -4.15 Q6.65 -7.85 4.85 -12.0 L4.1 -13.55 Q2.8 -15.95 1.9 -18.45 1.15 -19.0 1.1 -20.5 1.1 -25.6 0.2 -30.55 L0.05 -31.45 -2.7 -28.05 Q-5.55 -24.9 -7.65 -21.3 -7.25 -20.4 -7.25 -19.15 L-7.15 -14.35 Q-6.9 -9.9 -5.4 -5.75 -4.5 -3.4 -4.65 -1.05 L-4.5 -0.7 Q-4.25 0.75 -5.15 1.25 L-5.8 1.6 -6.6 1.6 -13.25 1.9 -15.15 1.65 Q-18.35 0.75 -16.15 -1.6 -15.55 -2.25 -14.55 -2.4 L-13.6 -2.5 -8.95 -2.3 Q-9.25 -5.3 -10.0 -8.25 -10.9 -11.85 -11.35 -15.55 L-11.9 -19.85 Q-12.1 -21.1 -11.65 -21.95 L-11.3 -22.85 -9.2 -26.1 -4.2 -32.95 -1.9 -36.35 -1.85 -36.95 Q-1.65 -38.7 -1.75 -40.5 L-1.75 -41.05 2.25 -40.6 2.5 -38.75 M-24.3 -66.25 Q-20.1 -66.4 -19.65 -62.65 -19.5 -61.55 -20.35 -60.9 -16.25 -57.25 -11.75 -53.95 -10.1 -52.7 -10.55 -50.85 -10.95 -48.95 -12.75 -49.85 -14.4 -50.7 -15.75 -52.1 L-17.8 -53.8 Q-22.85 -57.05 -25.95 -62.1 L-26.2 -62.85 Q-26.65 -65.6 -24.3 -66.25" fill="#666666" fill-rule="evenodd" stroke="none"/>
  </g>
</svg>
