<?xml version="1.0" encoding="UTF-8" standalone="no"?>
<svg xmlns:ffdec="https://www.free-decompiler.com/flash" xmlns:xlink="http://www.w3.org/1999/xlink" ffdec:objectType="shape" height="75.7px" width="38.75px" xmlns="http://www.w3.org/2000/svg">
  <g transform="matrix(1.0, 0.0, 0.0, 1.0, 23.7, 73.25)">
    <path d="M8.7 -53.45 Q8.25 -50.7 5.4 -51.95 1.4 -53.65 -2.3 -56.0 -2.95 -56.2 -3.3 -56.65 -5.1 -57.8 -6.7 -59.25 -9.5 -61.85 -7.6 -64.85 -7.25 -65.4 -6.65 -65.4 L-5.05 -65.2 -6.35 -69.75 Q-7.85 -71.7 -5.7 -72.95 L-5.0 -73.25 Q-1.7 -72.15 -1.4 -68.4 -0.05 -67.1 -0.5 -64.55 L-0.45 -63.95 Q0.05 -61.5 -0.1 -59.15 4.1 -56.4 8.45 -54.05 8.8 -53.85 8.7 -53.45 M0.45 -41.25 L2.15 -41.1 2.5 -38.75 2.6 -37.15 Q4.25 -35.95 4.2 -33.4 4.1 -29.55 4.9 -25.8 5.45 -23.1 5.05 -20.5 6.4 -19.15 7.2 -17.15 L9.15 -12.75 9.35 -12.1 Q12.45 -6.9 14.85 -1.5 L15.05 -0.45 14.85 1.05 Q14.45 2.65 12.1 2.45 8.35 2.1 4.9 1.05 4.25 0.85 4.2 0.15 4.1 -1.95 6.1 -2.15 L10.45 -2.0 9.35 -4.15 Q6.65 -7.85 4.85 -12.0 L4.1 -13.55 Q2.8 -15.95 1.9 -18.45 1.15 -19.0 1.1 -20.5 1.1 -25.6 0.2 -30.55 L0.05 -31.45 -2.7 -28.05 Q-5.55 -24.9 -7.65 -21.3 -7.25 -20.4 -7.25 -19.15 L-7.15 -14.35 Q-6.9 -9.9 -5.4 -5.75 -4.5 -3.4 -4.65 -1.05 L-4.5 -0.7 Q-4.25 0.75 -5.15 1.25 L-5.8 1.6 -6.6 1.6 -13.25 1.9 -15.15 1.65 Q-18.35 0.75 -16.15 -1.6 -15.55 -2.25 -14.55 -2.4 L-13.6 -2.5 -8.95 -2.3 Q-9.25 -5.3 -10.0 -8.25 -10.9 -11.85 -11.35 -15.55 L-11.9 -19.85 Q-12.1 -21.1 -11.65 -21.95 L-11.3 -22.85 -9.2 -26.1 -4.2 -32.95 -1.9 -36.35 -1.85 -36.95 Q-1.65 -38.7 -1.75 -40.5 L-1.8 -41.4 0.45 -41.25 M-23.65 -64.1 Q-24.1 -67.2 -21.6 -68.0 -17.75 -68.15 -17.8 -64.65 -17.85 -63.65 -18.65 -63.1 -14.45 -58.1 -10.5 -52.6 -9.95 -51.85 -10.65 -51.15 -12.45 -49.4 -14.1 -51.4 L-22.95 -62.5 Q-23.5 -63.2 -23.65 -64.1" fill="#666666" fill-rule="evenodd" stroke="none"/>
  </g>
</svg>
