<?xml version="1.0" encoding="UTF-8" standalone="no"?>
<svg xmlns:ffdec="https://www.free-decompiler.com/flash" xmlns:xlink="http://www.w3.org/1999/xlink" ffdec:objectType="shape" height="75.7px" width="40.7px" xmlns="http://www.w3.org/2000/svg">
  <g transform="matrix(1.0, 0.0, 0.0, 1.0, 25.65, 73.25)">
    <path d="M0.5 -57.45 Q2.35 -56.35 4.3 -55.35 L4.55 -55.15 Q6.95 -54.3 9.3 -53.6 9.75 -53.45 9.85 -52.95 10.2 -50.95 8.2 -50.8 4.35 -50.45 1.05 -52.65 L-0.55 -53.65 -0.95 -53.5 Q-1.55 -53.25 -2.05 -53.7 -2.55 -54.15 -2.65 -54.7 L-3.5 -55.1 Q-7.75 -56.95 -9.85 -60.75 L-10.0 -61.55 Q-9.85 -63.2 -8.2 -63.35 -5.2 -63.7 -4.85 -60.95 L-4.8 -60.7 -3.6 -59.9 -3.7 -60.7 Q-3.9 -63.1 -4.75 -65.3 -5.2 -66.55 -5.05 -67.4 L-5.65 -67.4 -6.35 -69.75 Q-7.85 -71.7 -5.7 -72.95 L-5.0 -73.25 Q-1.6 -72.15 -1.4 -68.25 L-1.35 -67.85 Q-0.55 -66.75 -0.5 -65.05 L-0.25 -63.5 Q0.5 -60.6 0.4 -57.55 L0.5 -57.45 M2.5 -38.75 L2.6 -37.15 Q4.25 -35.95 4.2 -33.4 4.1 -29.55 4.9 -25.8 5.45 -23.1 5.05 -20.5 6.4 -19.15 7.2 -17.15 L9.15 -12.75 9.35 -12.1 Q12.45 -6.9 14.85 -1.5 L15.05 -0.45 14.85 1.05 Q14.45 2.65 12.1 2.45 8.35 2.1 4.9 1.05 4.25 0.85 4.2 0.15 4.1 -1.95 6.1 -2.15 L10.45 -2.0 9.35 -4.15 Q6.65 -7.85 4.85 -12.0 L4.1 -13.55 Q2.8 -15.95 1.9 -18.45 1.15 -19.0 1.1 -20.5 1.1 -25.6 0.2 -30.55 L0.05 -31.45 -2.7 -28.05 Q-5.55 -24.9 -7.65 -21.3 -7.25 -20.4 -7.25 -19.15 L-7.15 -14.35 Q-6.9 -9.9 -5.4 -5.75 -4.5 -3.4 -4.65 -1.05 L-4.5 -0.7 Q-4.25 0.75 -5.15 1.25 L-5.8 1.6 -6.6 1.6 -13.25 1.9 -15.15 1.65 Q-18.35 0.75 -16.15 -1.6 -15.55 -2.25 -14.55 -2.4 L-13.6 -2.5 -8.95 -2.3 Q-9.25 -5.3 -10.0 -8.25 -10.9 -11.85 -11.35 -15.55 L-11.9 -19.85 Q-12.1 -21.1 -11.65 -21.95 L-11.3 -22.85 -9.2 -26.1 -4.2 -32.95 -1.9 -36.35 -1.85 -36.95 Q-1.65 -38.7 -1.75 -40.5 L-1.75 -41.05 2.25 -40.6 2.5 -38.75 M-23.7 -65.95 Q-19.5 -66.1 -19.05 -62.35 -18.9 -61.25 -19.75 -60.6 -15.65 -56.95 -11.15 -53.65 -9.5 -52.4 -9.95 -50.55 -10.35 -48.65 -12.15 -49.55 -13.8 -50.4 -15.15 -51.8 -16.1 -52.75 -17.2 -53.5 -22.25 -56.75 -25.35 -61.8 L-25.6 -62.55 Q-26.05 -65.3 -23.7 -65.95" fill="#666666" fill-rule="evenodd" stroke="none"/>
  </g>
</svg>
