<?xml version="1.0" encoding="UTF-8" standalone="no"?>
<svg xmlns:ffdec="https://www.free-decompiler.com/flash" xmlns:xlink="http://www.w3.org/1999/xlink" ffdec:objectType="shape" height="75.7px" width="40.85px" xmlns="http://www.w3.org/2000/svg">
  <g transform="matrix(1.0, 0.0, 0.0, 1.0, -10.55, 72.75)">
    <path d="M42.45 -50.45 Q40.0 -51.15 37.7 -52.25 L36.9 -52.65 Q36.2 -52.05 34.65 -52.3 34.05 -52.4 33.9 -53.0 L33.55 -54.2 29.75 -55.9 Q26.7 -57.25 25.15 -60.05 24.8 -60.7 24.95 -61.45 25.15 -63.05 26.7 -63.15 29.95 -63.25 30.85 -60.35 L30.85 -60.15 32.45 -59.2 32.3 -59.95 31.8 -62.25 Q31.55 -63.2 31.6 -64.2 30.05 -66.8 32.15 -68.35 L31.95 -68.35 30.35 -68.1 30.0 -69.25 Q28.5 -71.2 30.65 -72.45 L31.35 -72.75 Q34.5 -71.75 34.9 -68.3 L33.5 -68.35 Q35.15 -67.2 35.35 -64.75 35.6 -61.95 36.25 -59.2 L36.8 -56.85 38.9 -55.85 45.3 -52.9 45.6 -52.45 Q45.7 -49.45 42.45 -50.45 M12.65 -65.5 Q16.45 -65.2 15.55 -61.95 15.35 -61.35 14.75 -61.05 19.3 -55.7 25.2 -51.75 25.65 -51.45 25.5 -50.85 24.7 -47.75 21.75 -49.65 15.7 -53.6 11.4 -59.05 9.85 -61.75 11.15 -64.5 11.65 -65.5 12.65 -65.5 M34.45 -42.75 L38.3 -42.5 Q38.5 -40.4 38.85 -38.25 L38.95 -36.65 Q40.6 -35.45 40.55 -32.9 40.45 -29.05 41.25 -25.3 41.8 -22.6 41.4 -20.0 42.75 -18.65 43.55 -16.65 L45.5 -12.25 45.7 -11.6 Q48.8 -6.4 51.2 -1.0 L51.4 0.05 51.2 1.55 Q50.8 3.15 48.45 2.95 44.7 2.6 41.25 1.55 40.6 1.35 40.55 0.65 40.45 -1.45 42.45 -1.65 L46.8 -1.5 45.7 -3.65 Q43.0 -7.35 41.2 -11.5 L40.45 -13.05 Q39.15 -15.45 38.25 -17.95 37.5 -18.5 37.45 -20.0 37.45 -25.1 36.55 -30.05 L36.4 -30.95 33.65 -27.55 Q30.8 -24.4 28.7 -20.8 29.1 -19.9 29.1 -18.65 L29.2 -13.85 Q29.45 -9.4 30.95 -5.25 31.85 -2.9 31.7 -0.55 L31.85 -0.2 Q32.1 1.25 31.2 1.75 L30.55 2.1 29.75 2.1 23.1 2.4 21.2 2.15 Q18.0 1.25 20.2 -1.1 20.8 -1.75 21.8 -1.9 L22.75 -2.0 27.4 -1.8 26.35 -7.75 Q25.45 -11.35 25.0 -15.05 L24.45 -19.35 Q24.25 -20.6 24.7 -21.45 L25.05 -22.35 27.15 -25.6 32.15 -32.45 34.45 -35.85 34.5 -36.45 34.6 -40.0 34.45 -42.75" fill="#666666" fill-rule="evenodd" stroke="none"/>
  </g>
</svg>
