<?xml version="1.0" encoding="UTF-8" standalone="no"?>
<svg xmlns:ffdec="https://www.free-decompiler.com/flash" xmlns:xlink="http://www.w3.org/1999/xlink" ffdec:objectType="shape" height="27.75px" width="50.8px" xmlns="http://www.w3.org/2000/svg">
  <g transform="matrix(1.0, 0.0, 0.0, 1.0, 36.95, 58.7)">
    <path d="M12.4 -49.95 Q12.4 -49.15 12.65 -48.4 14.7 -41.0 13.25 -33.45 12.55 -30.0 8.85 -31.35 8.15 -31.6 7.8 -32.25 6.15 -35.5 9.75 -36.75 10.75 -43.55 8.2 -49.95 7.05 -52.8 9.7 -53.7 12.35 -53.05 12.4 -49.95 M-36.65 -57.5 Q-36.25 -58.6 -35.15 -58.65 -32.25 -59.05 -31.3 -56.45 L-31.25 -56.25 Q-28.1 -54.75 -24.1 -55.05 L-15.05 -54.7 Q-14.3 -54.55 -14.2 -53.8 -13.95 -51.55 -16.4 -51.2 -26.3 -49.95 -35.05 -53.65 -37.65 -54.75 -36.65 -57.5" fill="#666666" fill-rule="evenodd" stroke="none"/>
  </g>
</svg>
