<?xml version="1.0" encoding="UTF-8" standalone="no"?>
<svg xmlns:ffdec="https://www.free-decompiler.com/flash" xmlns:xlink="http://www.w3.org/1999/xlink" ffdec:objectType="shape" height="66.85px" width="47.55px" xmlns="http://www.w3.org/2000/svg">
  <g transform="matrix(1.0, 0.0, 0.0, 1.0, 31.95, 71.25)">
    <path d="M1.9 -29.25 L1.1 -28.05 0.75 -27.6 0.0 -23.65 -0.4 -22.75 -1.75 -18.5 Q6.1 -18.55 13.7 -17.2 14.35 -17.05 14.5 -16.35 16.1 -14.95 15.4 -12.3 L14.5 -8.15 Q14.35 -7.15 13.7 -6.35 12.3 -4.75 11.0 -6.5 10.45 -7.2 10.6 -8.1 L11.45 -13.7 11.4 -13.7 0.45 -14.7 -3.8 -15.0 -4.05 -15.05 -4.5 -15.15 -5.6 -15.8 Q-6.25 -16.6 -5.9 -18.0 -4.95 -21.7 -3.65 -25.2 L-3.15 -27.45 -8.05 -24.25 Q-10.2 -22.95 -12.5 -22.1 -12.5 -21.5 -12.8 -20.65 L-16.65 -9.15 Q-17.2 -7.3 -18.15 -5.55 -18.2 -4.95 -18.75 -4.65 -19.25 -4.25 -19.9 -4.5 -21.55 -4.5 -23.0 -5.65 -23.9 -6.4 -25.05 -6.7 -28.6 -7.7 -31.65 -9.5 L-31.95 -10.15 Q-31.85 -11.95 -30.15 -12.05 -25.4 -11.6 -21.3 -9.2 L-21.2 -9.15 -20.95 -9.05 -18.7 -15.8 Q-17.2 -19.35 -16.0 -22.9 -16.5 -24.55 -14.45 -25.45 -7.85 -28.45 -2.0 -32.65 L-2.05 -33.4 -2.25 -36.5 Q-2.35 -37.35 -2.05 -37.85 -3.45 -44.7 -4.3 -51.75 L-4.7 -54.85 -4.75 -55.75 Q-6.0 -60.1 -7.55 -64.45 L-7.65 -65.4 Q-9.95 -68.15 -8.2 -70.75 -7.85 -71.25 -7.3 -71.25 -5.05 -70.1 -4.1 -67.4 -1.25 -59.1 -0.2 -50.4 L1.7 -36.35 Q2.3 -35.05 2.15 -33.2 L2.1 -32.65 Q3.0 -31.45 1.9 -29.25" fill="#666666" fill-rule="evenodd" stroke="none"/>
  </g>
</svg>
