<?xml version="1.0" encoding="UTF-8" standalone="no"?>
<svg xmlns:ffdec="https://www.free-decompiler.com/flash" xmlns:xlink="http://www.w3.org/1999/xlink" ffdec:objectType="shape" height="440.2px" width="331.7px" xmlns="http://www.w3.org/2000/svg">
  <g transform="matrix(1.0, 0.0, 0.0, 1.0, 165.85, 220.1)">
    <path d="M30.6 -219.1 L164.85 216.8 152.7 216.85 18.45 -219.05 30.6 -219.1 M0.4 219.1 L-133.85 -216.8 4.9 -216.8 139.15 219.1 0.4 219.1 M-152.7 -217.6 L-18.45 218.3 -30.6 218.35 -164.85 -217.55 -152.7 -217.6" fill="#000000" fill-rule="evenodd" stroke="none"/>
    <path d="M30.6 -219.1 L164.85 216.8 152.7 216.85 18.45 -219.05 30.6 -219.1 M0.4 219.1 L-133.85 -216.8 4.9 -216.8 139.15 219.1 0.4 219.1 M-152.7 -217.6 L-18.45 218.3 -30.6 218.35 -164.85 -217.55 -152.7 -217.6 Z" fill="none" stroke="#000000" stroke-linecap="round" stroke-linejoin="round" stroke-width="2.0"/>
  </g>
</svg>
