<?xml version="1.0" encoding="UTF-8" standalone="no"?>
<svg xmlns:ffdec="https://www.free-decompiler.com/flash" xmlns:xlink="http://www.w3.org/1999/xlink" ffdec:objectType="shape" height="75.7px" width="32.1px" xmlns="http://www.w3.org/2000/svg">
  <g transform="matrix(1.0, 0.0, 0.0, 1.0, 17.05, 73.25)">
    <path d="M0.75 -57.1 L1.95 -51.1 4.0 -52.5 Q6.65 -54.4 9.7 -55.15 13.05 -55.2 11.75 -52.45 11.25 -51.4 10.0 -51.15 L8.95 -50.75 Q5.6 -48.7 2.2 -46.85 L1.95 -46.45 1.9 -46.3 2.05 -44.7 Q2.15 -44.3 1.8 -44.1 L2.5 -38.75 2.6 -37.15 Q4.25 -35.95 4.2 -33.4 4.1 -29.55 4.9 -25.8 5.45 -23.1 5.05 -20.5 6.4 -19.15 7.2 -17.15 L9.15 -12.75 9.35 -12.1 Q12.45 -6.9 14.85 -1.5 L15.05 -0.45 14.85 1.05 Q14.45 2.65 12.1 2.45 8.35 2.1 4.9 1.05 4.25 0.85 4.2 0.15 4.1 -1.95 6.1 -2.15 L10.45 -2.0 9.35 -4.15 Q6.65 -7.85 4.85 -12.0 L4.1 -13.55 Q2.8 -15.95 1.9 -18.45 1.15 -19.0 1.1 -20.5 1.1 -25.6 0.2 -30.55 L0.05 -31.45 -2.7 -28.05 Q-5.55 -24.9 -7.65 -21.3 -7.25 -20.4 -7.25 -19.15 L-7.15 -14.35 Q-6.9 -9.9 -5.4 -5.75 -4.5 -3.4 -4.65 -1.05 L-4.5 -0.7 Q-4.25 0.75 -5.15 1.25 L-5.8 1.6 -6.6 1.6 -13.25 1.9 -15.15 1.65 Q-18.35 0.75 -16.15 -1.6 -15.55 -2.25 -14.55 -2.4 L-13.6 -2.5 -8.95 -2.3 Q-9.25 -5.3 -10.0 -8.25 -10.9 -11.85 -11.35 -15.55 L-11.9 -19.85 Q-12.1 -21.1 -11.65 -21.95 L-11.3 -22.85 -9.2 -26.1 -4.2 -32.95 -1.9 -36.35 -1.85 -36.95 Q-1.65 -38.7 -1.75 -40.5 L-2.05 -44.75 Q-5.05 -43.8 -6.55 -46.8 L-6.75 -48.0 Q-6.5 -51.0 -3.05 -50.05 -2.6 -49.95 -2.25 -49.7 L-1.65 -49.55 -2.65 -54.6 -3.6 -58.15 -3.8 -59.4 -3.85 -59.4 -3.9 -59.55 Q-4.8 -64.75 -6.35 -69.75 -7.85 -71.7 -5.7 -72.95 L-5.0 -73.25 Q-1.6 -72.15 -1.4 -68.25 L-1.2 -66.55 0.15 -58.9 0.75 -57.1 M-4.2 -59.5 L-4.55 -59.6 -4.65 -59.75 -4.2 -59.5" fill="#666666" fill-rule="evenodd" stroke="none"/>
  </g>
</svg>
