<?xml version="1.0" encoding="UTF-8" standalone="no"?>
<svg xmlns:ffdec="https://www.free-decompiler.com/flash" xmlns:xlink="http://www.w3.org/1999/xlink" ffdec:objectType="shape" height="76.35px" width="43.5px" xmlns="http://www.w3.org/2000/svg">
  <g transform="matrix(1.0, 0.0, 0.0, 1.0, 28.45, 73.9)">
    <path d="M3.35 -36.1 L3.55 -36.15 Q4.25 -35.05 4.2 -33.4 4.1 -29.55 4.9 -25.8 5.45 -23.1 5.05 -20.5 6.4 -19.15 7.2 -17.15 L9.15 -12.75 9.35 -12.1 Q12.45 -6.9 14.85 -1.5 L15.05 -0.45 14.85 1.05 Q14.45 2.65 12.1 2.45 8.35 2.1 4.9 1.05 4.25 0.85 4.2 0.15 4.1 -1.95 6.1 -2.15 L10.45 -2.0 9.35 -4.15 Q6.65 -7.85 4.85 -12.0 L4.1 -13.55 Q2.8 -15.95 1.9 -18.45 1.15 -19.0 1.1 -20.5 1.1 -25.6 0.2 -30.55 L0.05 -31.45 -2.7 -28.05 Q-5.55 -24.9 -7.65 -21.3 -7.25 -20.4 -7.25 -19.15 L-7.15 -14.35 Q-6.9 -9.9 -5.4 -5.75 -4.5 -3.4 -4.65 -1.05 L-4.5 -0.7 Q-4.25 0.75 -5.15 1.25 L-5.8 1.6 -6.6 1.6 -13.25 1.9 -15.15 1.65 Q-18.35 0.75 -16.15 -1.6 -15.55 -2.25 -14.55 -2.4 L-13.6 -2.5 -8.95 -2.3 Q-9.25 -5.3 -10.0 -8.25 -10.9 -11.85 -11.35 -15.55 L-11.9 -19.85 Q-12.1 -21.1 -11.65 -21.95 L-11.3 -22.85 -9.2 -26.1 -4.2 -32.95 -3.05 -34.55 Q-2.25 -36.7 -0.55 -37.7 -0.6 -40.8 -1.1 -43.85 -1.85 -48.15 -2.1 -52.6 -2.5 -59.15 -4.15 -65.35 -5.15 -66.95 -5.8 -68.6 L-5.9 -69.5 Q-8.4 -71.6 -6.3 -73.5 L-5.55 -73.9 Q-2.65 -72.9 -1.75 -69.55 L-1.3 -68.15 Q1.55 -59.85 1.95 -50.85 2.2 -46.4 2.85 -42.05 L3.35 -36.1 M-26.65 -67.15 Q-23.25 -67.55 -23.1 -64.3 L-23.15 -64.1 Q-19.9 -62.6 -16.9 -60.5 L-16.85 -60.45 Q-12.8 -58.7 -9.35 -56.15 -8.95 -55.8 -9.1 -55.3 -9.95 -52.55 -12.55 -53.9 -15.95 -55.6 -19.2 -57.65 L-19.45 -57.7 Q-20.15 -57.9 -20.55 -58.45 L-20.65 -58.55 -20.95 -58.6 -22.05 -59.35 -22.1 -59.4 -22.4 -59.5 Q-23.05 -59.65 -23.5 -60.2 -27.95 -60.75 -28.4 -64.7 -28.7 -66.85 -26.65 -67.15 M-4.6 -52.25 Q-1.7 -51.65 -3.25 -49.25 L-4.0 -48.45 Q-10.7 -43.15 -19.1 -41.45 L-20.3 -41.7 Q-22.35 -42.85 -21.65 -45.45 -20.9 -48.15 -18.2 -46.6 L-17.05 -45.7 Q-10.75 -48.3 -5.0 -52.1 L-4.6 -52.25" fill="#666666" fill-rule="evenodd" stroke="none"/>
  </g>
</svg>
