<?xml version="1.0" encoding="UTF-8" standalone="no"?>
<svg xmlns:ffdec="https://www.free-decompiler.com/flash" xmlns:xlink="http://www.w3.org/1999/xlink" ffdec:objectType="shape" height="76.35px" width="46.4px" xmlns="http://www.w3.org/2000/svg">
  <g transform="matrix(1.0, 0.0, 0.0, 1.0, 31.35, 73.9)">
    <path d="M2.85 -37.55 L3.3 -37.55 3.35 -36.1 3.55 -36.15 Q4.25 -35.05 4.2 -33.4 4.1 -29.55 4.9 -25.8 5.45 -23.1 5.05 -20.5 6.4 -19.15 7.2 -17.15 L9.15 -12.75 9.35 -12.1 Q12.45 -6.9 14.85 -1.5 L15.05 -0.45 14.85 1.05 Q14.45 2.65 12.1 2.45 8.35 2.1 4.9 1.05 4.25 0.85 4.2 0.15 4.1 -1.95 6.1 -2.15 L10.45 -2.0 9.35 -4.15 Q6.65 -7.85 4.85 -12.0 L4.1 -13.55 Q2.8 -15.95 1.9 -18.45 1.15 -19.0 1.1 -20.5 1.1 -25.6 0.2 -30.55 L0.05 -31.45 -2.7 -28.05 Q-5.55 -24.9 -7.65 -21.3 -7.25 -20.4 -7.25 -19.15 L-7.15 -14.35 Q-6.9 -9.9 -5.4 -5.75 -4.5 -3.4 -4.65 -1.05 L-4.5 -0.7 Q-4.25 0.75 -5.15 1.25 L-5.8 1.6 -6.6 1.6 -13.25 1.9 -15.15 1.65 Q-18.35 0.75 -16.15 -1.6 -15.55 -2.25 -14.55 -2.4 L-13.6 -2.5 -8.95 -2.3 Q-9.25 -5.3 -10.0 -8.25 -10.9 -11.85 -11.35 -15.55 L-11.9 -19.85 Q-12.1 -21.1 -11.65 -21.95 L-11.3 -22.85 -9.2 -26.1 -4.2 -32.95 -3.05 -34.55 Q-2.3 -36.55 -0.75 -37.55 -0.4 -45.9 -1.4 -53.95 -2.2 -60.3 -4.15 -66.25 -5.05 -68.8 -6.7 -71.05 -7.3 -71.8 -6.8 -72.7 L-6.95 -72.7 -6.3 -73.5 -5.55 -73.9 -5.45 -73.85 -5.25 -73.9 -4.5 -73.45 -3.7 -72.85 -3.75 -72.85 Q-1.7 -71.05 -0.75 -68.15 1.95 -59.8 2.8 -51.05 L3.1 -46.65 Q3.25 -42.05 2.85 -37.55 M-31.3 -60.45 Q-31.55 -62.5 -29.6 -62.75 -26.75 -62.85 -25.75 -60.35 L-25.7 -60.15 -17.25 -56.9 -18.95 -58.85 Q-20.45 -60.9 -20.15 -63.6 -20.0 -65.5 -18.15 -65.7 -13.9 -66.0 -14.6 -62.35 -14.75 -61.7 -15.3 -61.2 L-15.75 -60.8 Q-12.4 -57.5 -7.95 -55.45 -4.65 -53.9 -2.3 -51.45 -1.75 -50.85 -2.35 -50.2 L-6.85 -50.1 -9.2 -51.8 -10.0 -52.25 Q-10.7 -49.2 -13.85 -50.95 L-15.85 -51.9 -29.05 -57.55 Q-31.0 -58.4 -31.3 -60.45 M-21.25 -42.5 L-21.1 -42.5 -21.05 -42.25 -21.25 -42.5" fill="#666666" fill-rule="evenodd" stroke="none"/>
  </g>
</svg>
