<?xml version="1.0" encoding="UTF-8" standalone="no"?>
<svg xmlns:ffdec="https://www.free-decompiler.com/flash" xmlns:xlink="http://www.w3.org/1999/xlink" ffdec:objectType="shape" height="74.95px" width="35.05px" xmlns="http://www.w3.org/2000/svg">
  <g transform="matrix(1.0, 0.0, 0.0, 1.0, 16.6, 73.25)">
    <path d="M9.0 -50.85 Q8.7 -48.2 6.0 -49.35 3.4 -50.4 0.95 -51.65 2.15 -45.1 2.4 -38.25 L2.4 -37.2 Q3.0 -36.1 2.75 -34.35 2.45 -32.3 2.55 -30.2 2.7 -26.45 3.3 -22.8 6.75 -20.65 9.5 -17.5 L12.55 -13.9 18.0 -7.15 Q18.9 -6.05 18.0 -4.95 16.15 -2.6 13.15 -1.55 10.45 -0.65 7.65 -0.45 6.15 -0.35 6.05 -1.8 5.9 -3.8 8.1 -4.25 11.1 -4.9 13.85 -6.25 8.65 -12.7 2.65 -18.3 L1.1 -20.15 Q0.1 -20.4 -0.25 -21.8 -1.35 -25.95 -1.45 -30.4 L-1.45 -31.75 -6.0 -25.2 -7.0 -23.3 -7.65 -22.1 Q-7.35 -21.2 -7.5 -19.9 L-7.85 -15.55 Q-8.0 -9.25 -5.5 -3.8 -4.95 -2.55 -4.75 -1.25 -4.65 -0.55 -5.0 -0.15 L-5.1 0.05 Q-5.45 0.95 -6.45 1.15 -11.35 2.25 -15.95 1.15 -16.5 1.05 -16.55 0.5 -16.9 -2.4 -13.75 -2.15 L-9.45 -2.25 Q-10.95 -6.0 -11.3 -10.1 -11.85 -15.95 -11.1 -21.7 -11.95 -23.65 -10.4 -25.5 -7.2 -29.3 -5.1 -33.65 -4.7 -34.5 -3.85 -34.95 -3.05 -36.75 -1.7 -37.95 -1.5 -40.1 -1.7 -42.2 -2.2 -48.25 -3.4 -54.05 L-9.45 -58.15 Q-13.0 -60.85 -10.95 -64.5 -10.6 -65.15 -9.95 -65.15 -5.7 -65.05 -6.7 -61.2 L-6.8 -60.95 -4.6 -59.45 -4.65 -59.5 -5.2 -61.55 Q-5.95 -64.35 -5.9 -67.25 -7.65 -70.5 -4.6 -71.85 L-4.6 -71.9 Q-2.3 -70.8 -2.25 -67.9 -2.15 -63.75 -1.0 -59.95 L-0.05 -56.45 Q4.2 -53.8 8.7 -51.5 9.05 -51.35 9.0 -50.85 M-4.25 -72.95 L-5.1 -72.8 -6.6 -72.2 -5.7 -72.95 -5.0 -73.25 -4.25 -72.95 M-14.65 -49.15 L-14.65 -49.0 -14.8 -49.15 -14.65 -49.15" fill="#666666" fill-rule="evenodd" stroke="none"/>
  </g>
</svg>
