<?xml version="1.0" encoding="UTF-8" standalone="no"?>
<svg xmlns:ffdec="https://www.free-decompiler.com/flash" xmlns:xlink="http://www.w3.org/1999/xlink" ffdec:objectType="shape" height="75.5px" width="39.4px" xmlns="http://www.w3.org/2000/svg">
  <g transform="matrix(1.0, 0.0, 0.0, 1.0, 16.1, 73.25)">
    <path d="M8.7 -54.85 Q11.45 -55.55 11.2 -53.0 11.05 -51.7 9.75 -51.25 5.35 -49.75 0.45 -49.9 L0.45 -49.75 Q0.8 -44.4 0.75 -38.9 2.7 -37.7 2.65 -34.95 L2.65 -34.4 2.45 -34.35 2.75 -33.25 Q3.75 -28.35 4.1 -23.4 L4.1 -22.35 Q4.0 -20.6 4.15 -18.9 11.85 -20.3 19.35 -22.05 L20.6 -22.05 Q21.9 -21.9 22.1 -20.9 23.55 -19.3 23.25 -16.55 L22.95 -15.45 Q22.7 -13.85 22.05 -12.3 21.55 -9.25 18.95 -11.05 18.3 -11.5 18.25 -12.4 18.2 -13.65 19.0 -14.6 L19.2 -16.1 19.1 -16.55 19.05 -17.9 3.5 -15.15 3.0 -15.1 Q0.8 -14.8 0.4 -17.3 -0.1 -20.45 0.25 -23.45 L-0.15 -27.5 -1.3 -32.65 -2.4 -31.1 -5.45 -26.15 Q-7.3 -22.75 -7.1 -18.9 -6.65 -10.7 -5.85 -2.45 -5.6 -0.05 -7.1 1.55 -7.9 2.4 -9.1 2.25 L-14.75 1.55 Q-15.9 1.4 -16.05 0.25 -16.3 -1.3 -14.75 -1.5 L-9.7 -2.0 -10.9 -16.5 Q-11.65 -23.75 -8.2 -29.8 -6.35 -33.1 -3.65 -35.6 L-3.2 -36.5 -3.15 -37.2 -3.25 -38.7 Q-3.05 -44.45 -3.35 -50.1 L-7.0 -50.3 Q-9.75 -50.5 -9.6 -53.15 -9.5 -55.4 -7.3 -55.75 -4.8 -56.1 -3.8 -54.0 L-3.7 -53.85 -3.55 -53.85 -3.8 -56.3 Q-4.4 -62.5 -6.35 -68.3 -6.85 -69.85 -6.55 -71.4 -6.4 -72.25 -5.8 -72.6 L-6.6 -72.2 -5.7 -72.95 -5.0 -73.25 -4.25 -72.95 -4.9 -72.8 Q-2.45 -71.8 -2.1 -68.9 L-1.8 -67.1 Q-0.45 -60.5 0.2 -53.7 4.5 -53.8 8.7 -54.85 M-14.65 -49.15 L-14.65 -49.0 -14.8 -49.15 -14.65 -49.15" fill="#666666" fill-rule="evenodd" stroke="none"/>
  </g>
</svg>
