<?xml version="1.0" encoding="UTF-8" standalone="no"?>
<svg xmlns:ffdec="https://www.free-decompiler.com/flash" xmlns:xlink="http://www.w3.org/1999/xlink" ffdec:objectType="shape" height="77.55px" width="50.8px" xmlns="http://www.w3.org/2000/svg">
  <g transform="matrix(1.0, 0.0, 0.0, 1.0, 28.3, 74.9)">
    <path d="M22.5 -36.0 Q22.55 -32.8 18.85 -33.65 L15.9 -34.0 15.7 -33.1 15.5 -32.2 Q15.3 -31.5 14.75 -30.95 L14.55 -30.1 Q14.15 -29.45 14.1 -28.75 14.1 -27.7 13.3 -26.95 11.4 -22.7 9.0 -18.55 8.25 -17.25 7.05 -16.45 6.1 -15.85 5.2 -16.45 3.8 -17.4 3.3 -19.05 L2.4 -21.75 2.3 -22.65 -1.25 -30.2 -3.35 -25.95 -5.65 -22.0 -6.5 -20.5 Q-5.9 -19.55 -5.8 -18.1 -5.6 -14.75 -5.05 -11.45 -4.1 -5.55 -4.55 0.55 -4.7 3.05 -7.9 2.55 L-14.85 1.65 Q-17.15 1.35 -16.3 -0.75 -15.9 -1.8 -14.85 -1.85 L-8.0 -1.35 Q-7.75 -7.5 -8.95 -13.25 -9.6 -16.3 -9.85 -19.4 -10.65 -20.25 -10.2 -21.75 -9.7 -23.25 -8.45 -24.35 L-7.4 -26.75 -7.1 -27.2 -4.1 -32.9 -3.95 -33.15 Q-4.2 -35.0 -2.85 -35.8 L-3.3 -46.1 Q-3.55 -55.05 -5.1 -63.7 L-5.55 -66.05 -6.9 -70.75 Q-7.1 -71.35 -6.65 -71.8 -6.0 -72.45 -5.25 -72.45 -2.45 -71.65 -1.9 -68.55 -1.5 -66.35 -1.65 -64.1 0.1 -56.2 0.3 -47.85 0.4 -41.2 1.4 -34.7 L1.45 -34.15 2.15 -32.95 6.45 -22.0 7.6 -23.7 8.6 -25.85 9.6 -27.8 9.6 -28.0 9.8 -28.65 9.95 -28.85 10.5 -29.55 10.55 -29.75 10.65 -30.4 10.7 -30.65 11.1 -31.3 11.7 -34.0 Q12.2 -36.1 13.75 -37.5 L14.45 -37.9 Q18.6 -38.05 22.2 -36.45 L22.5 -36.0 M-24.5 -70.25 Q-24.45 -68.25 -23.15 -66.65 -22.6 -66.05 -22.45 -65.2 -19.45 -61.5 -15.35 -58.9 -15.0 -58.7 -15.05 -58.3 -15.45 -55.25 -18.35 -56.8 -21.35 -58.4 -23.9 -60.85 -29.1 -65.85 -28.15 -73.1 -27.95 -74.75 -26.35 -74.9 -22.3 -74.75 -23.55 -71.2 -23.75 -70.5 -24.5 -70.25" fill="#666666" fill-rule="evenodd" stroke="none"/>
  </g>
</svg>
