<?xml version="1.0" encoding="UTF-8" standalone="no"?>
<svg xmlns:ffdec="https://www.free-decompiler.com/flash" xmlns:xlink="http://www.w3.org/1999/xlink" ffdec:objectType="shape" height="27.55px" width="19.9px" xmlns="http://www.w3.org/2000/svg">
  <g transform="matrix(1.0, 0.0, 0.0, 1.0, 5.55, 69.25)">
    <path d="M13.55 -52.6 Q13.3 -51.45 12.7 -50.4 11.2 -44.65 6.1 -41.8 5.7 -41.6 5.2 -41.8 1.7 -43.15 3.5 -46.5 3.85 -47.25 4.7 -47.25 L6.75 -47.05 Q10.2 -51.7 10.5 -57.6 10.5 -58.0 10.85 -58.3 11.55 -58.95 12.4 -59.0 15.1 -57.85 14.1 -54.75 L13.55 -52.6 M-0.95 -59.1 Q-0.7 -57.05 -1.0 -55.0 -1.3 -52.8 -3.3 -53.7 -4.6 -54.25 -4.55 -55.7 -4.35 -61.2 -5.45 -66.5 -5.95 -68.85 -3.8 -69.25 -1.45 -68.2 -1.35 -65.3 L-0.95 -59.1" fill="#666666" fill-rule="evenodd" stroke="none"/>
  </g>
</svg>
