<?xml version="1.0" encoding="UTF-8" standalone="no"?>
<svg xmlns:ffdec="https://www.free-decompiler.com/flash" xmlns:xlink="http://www.w3.org/1999/xlink" ffdec:objectType="shape" height="75.45px" width="39.45px" xmlns="http://www.w3.org/2000/svg">
  <g transform="matrix(1.0, 0.0, 0.0, 1.0, 18.85, 73.05)">
    <path d="M17.1 -56.45 Q19.5 -52.6 20.1 -48.2 L20.6 -44.3 Q20.75 -42.3 19.3 -41.25 16.55 -39.2 15.1 -42.25 14.55 -43.5 14.65 -45.0 14.8 -46.9 16.75 -47.35 15.35 -53.25 11.25 -57.8 L11.15 -58.3 Q11.5 -59.75 12.9 -59.85 15.55 -59.0 17.1 -56.45 M1.0 -31.1 L0.55 -29.55 Q0.35 -28.85 -0.2 -28.3 L-4.0 -19.4 -4.35 -17.8 Q0.05 -15.75 4.6 -13.95 6.95 -13.05 6.15 -10.65 L5.85 -9.6 Q5.75 -9.1 5.35 -8.75 5.2 -5.3 2.2 -4.95 1.5 -4.9 1.25 -5.6 0.45 -7.5 1.55 -9.35 L1.75 -9.9 2.15 -10.55 Q1.05 -12.05 -1.4 -12.7 L-4.15 -13.65 -3.5 -5.0 Q-3.05 -0.9 -5.65 2.0 -6.05 2.4 -6.65 2.4 L-14.75 2.1 Q-15.9 2.0 -16.05 0.85 -16.3 -0.7 -14.75 -0.9 L-7.8 -1.4 Q-6.95 -7.15 -7.7 -13.1 L-8.0 -15.5 Q-13.95 -18.7 -17.9 -24.1 -20.4 -27.5 -16.3 -29.45 -12.9 -31.1 -9.65 -33.3 -6.9 -35.1 -3.85 -36.1 L-3.85 -36.3 Q-3.7 -45.2 -4.15 -54.05 -4.4 -58.5 -5.25 -62.8 L-6.15 -67.05 Q-6.8 -69.75 -5.9 -72.25 -5.65 -72.85 -5.05 -72.95 L-4.6 -73.05 Q-2.3 -72.2 -2.35 -69.55 -2.35 -67.3 -1.8 -65.1 -0.95 -61.85 -0.7 -58.55 0.05 -49.75 0.0 -40.75 -0.05 -38.2 -0.25 -35.85 L0.05 -35.05 Q1.75 -33.75 1.0 -31.1 M-3.7 -29.75 L-3.25 -30.4 -2.95 -32.2 Q-6.05 -31.3 -8.7 -29.4 -11.5 -27.45 -14.5 -25.75 -11.85 -22.25 -8.1 -19.8 -7.85 -21.55 -7.05 -23.05 L-3.85 -28.9 -3.7 -29.75" fill="#666666" fill-rule="evenodd" stroke="none"/>
  </g>
</svg>
