<?xml version="1.0" encoding="UTF-8" standalone="no"?>
<svg xmlns:ffdec="https://www.free-decompiler.com/flash" xmlns:xlink="http://www.w3.org/1999/xlink" ffdec:objectType="shape" height="75.75px" width="57.15px" xmlns="http://www.w3.org/2000/svg">
  <g transform="matrix(1.0, 0.0, 0.0, 1.0, 35.65, 74.0)">
    <path d="M17.85 -56.35 L20.85 -48.0 Q22.3 -43.55 20.6 -39.45 L20.05 -39.05 Q16.45 -38.15 16.25 -41.3 16.15 -43.2 17.6 -44.4 L17.1 -46.85 17.0 -47.7 14.85 -52.75 14.65 -53.65 Q12.05 -56.5 14.3 -59.15 L14.95 -59.55 Q16.95 -58.6 17.85 -56.35 M1.0 -34.8 Q1.7 -33.8 0.5 -31.95 L-2.25 -27.9 Q-2.6 -26.4 -3.3 -25.05 L-3.95 -24.2 Q-4.25 -22.6 -4.95 -21.1 L-5.4 -20.0 -5.25 -19.35 Q-5.15 -18.8 -5.2 -18.25 -4.0 -14.65 -3.7 -10.8 -3.2 -4.9 -3.9 0.85 -3.95 1.4 -4.55 1.55 -6.7 2.0 -8.8 1.5 L-15.2 1.25 Q-16.3 1.45 -16.7 0.4 -17.5 -1.9 -15.1 -2.35 -11.0 -3.05 -7.1 -2.2 -6.95 -9.9 -8.7 -17.15 -9.7 -21.15 -7.75 -24.65 L-6.55 -27.45 -5.9 -28.35 Q-4.9 -30.75 -3.55 -32.85 L-18.5 -33.85 -19.75 -31.9 -20.35 -30.8 -20.55 -30.4 -22.1 -26.25 Q-22.6 -24.6 -23.35 -23.1 -24.5 -20.8 -25.95 -18.7 -26.85 -17.4 -28.2 -18.25 -29.15 -18.85 -29.9 -19.8 -32.05 -22.45 -35.2 -23.95 -35.75 -24.2 -35.65 -24.85 -35.2 -28.15 -31.85 -26.45 -29.55 -25.25 -27.9 -23.25 L-27.3 -24.1 -26.95 -24.65 -26.7 -25.35 -26.3 -26.25 -26.2 -26.45 -25.85 -26.9 -25.85 -27.1 -25.7 -27.75 -25.55 -28.0 -25.2 -28.45 -24.7 -30.2 -24.2 -31.5 -24.15 -31.75 -22.05 -35.7 -21.8 -36.35 -21.0 -37.2 -20.6 -37.4 -19.9 -37.6 -8.95 -36.9 -2.9 -36.3 Q-2.6 -42.65 -3.0 -48.95 -4.2 -52.9 -4.0 -57.3 -3.75 -62.05 -5.4 -66.4 L-6.3 -69.15 Q-6.6 -70.45 -6.1 -71.7 -5.65 -72.8 -4.6 -72.85 -1.95 -72.15 -2.0 -69.1 -2.05 -66.75 -1.25 -64.65 0.25 -60.5 0.1 -55.9 -0.05 -52.0 0.45 -48.2 1.15 -43.1 1.25 -37.9 1.3 -36.25 1.0 -34.8 M-30.1 -68.3 L-30.25 -68.65 Q-31.95 -70.5 -30.9 -72.8 -30.4 -73.9 -29.3 -73.95 -25.3 -74.5 -25.55 -70.85 -25.6 -70.15 -26.0 -69.55 -23.55 -66.0 -20.15 -63.2 -18.4 -61.75 -16.95 -60.0 -16.2 -59.15 -16.0 -58.05 -15.6 -56.25 -17.55 -56.15 -19.65 -56.0 -20.7 -57.75 L-22.3 -60.3 Q-26.7 -63.8 -30.1 -68.3" fill="#666666" fill-rule="evenodd" stroke="none"/>
  </g>
</svg>
