<?xml version="1.0" encoding="UTF-8" standalone="no"?>
<svg xmlns:ffdec="https://www.free-decompiler.com/flash" xmlns:xlink="http://www.w3.org/1999/xlink" ffdec:objectType="shape" height="85.45px" width="53.6px" xmlns="http://www.w3.org/2000/svg">
  <g transform="matrix(1.0, 0.0, 0.0, 1.0, 17.85, 83.9)">
    <path d="M18.0 -62.55 Q18.95 -63.25 19.8 -62.55 27.0 -56.4 34.6 -51.0 37.2 -47.9 34.0 -46.05 L32.95 -45.9 Q30.15 -46.45 30.0 -49.35 25.4 -53.65 20.15 -57.3 18.25 -58.65 17.45 -60.65 16.95 -61.85 18.0 -62.55 M2.7 -59.45 Q2.3 -50.55 2.45 -41.6 L2.25 -37.75 Q2.8 -36.55 1.7 -34.8 L1.85 -33.05 1.85 -32.85 Q3.15 -29.55 3.9 -25.95 L4.35 -24.05 5.95 -18.35 7.95 -15.4 8.1 -15.05 Q11.85 -9.2 15.1 -3.05 L15.6 -1.6 Q15.95 0.35 14.15 0.65 L6.5 1.55 5.25 1.3 Q2.55 -0.1 4.85 -2.05 L5.6 -2.35 10.8 -2.6 6.5 -10.7 6.4 -10.95 Q4.5 -13.55 2.9 -16.2 1.3 -20.0 0.6 -24.15 L0.55 -25.0 -0.85 -29.4 -0.95 -30.25 -1.1 -30.6 -3.15 -27.55 -6.5 -23.15 Q-6.15 -22.15 -6.35 -20.8 -6.7 -18.6 -6.55 -16.4 -6.15 -12.1 -5.4 -7.85 L-4.3 -1.85 Q-3.9 0.05 -5.85 0.2 L-11.55 0.6 -13.75 0.7 Q-15.55 0.7 -15.4 -1.0 -15.15 -3.55 -12.15 -3.4 -10.25 -3.35 -8.4 -3.45 -10.3 -11.7 -10.5 -20.4 -10.5 -21.75 -10.1 -22.95 -10.35 -23.9 -9.55 -25.15 L-7.75 -27.95 -2.7 -35.2 -2.25 -37.0 -1.3 -37.8 Q-0.85 -46.6 -0.95 -55.45 -1.05 -59.65 -0.55 -63.8 -0.2 -66.5 -0.25 -69.3 -0.25 -70.75 0.75 -71.65 1.25 -72.15 1.85 -72.15 4.65 -71.35 3.9 -68.15 2.9 -63.9 2.7 -59.45 M-14.85 -83.9 Q-10.7 -83.6 -12.6 -79.85 -13.0 -79.1 -13.9 -79.0 -13.8 -71.6 -13.1 -64.3 L-12.9 -62.75 Q-12.4 -59.5 -15.3 -59.45 -16.15 -59.45 -16.35 -60.25 -17.65 -66.15 -17.55 -72.3 -17.5 -75.4 -17.8 -78.45 -18.1 -81.25 -16.35 -83.15 L-15.55 -83.7 -14.85 -83.9" fill="#656565" fill-rule="evenodd" stroke="none"/>
  </g>
</svg>
