<?xml version="1.0" encoding="UTF-8" standalone="no"?>
<svg xmlns:ffdec="https://www.free-decompiler.com/flash" xmlns:xlink="http://www.w3.org/1999/xlink" ffdec:objectType="shape" height="74.9px" width="45.2px" xmlns="http://www.w3.org/2000/svg">
  <g transform="matrix(1.0, 0.0, 0.0, 1.0, 27.8, 74.2)">
    <path d="M1.65 -65.15 Q1.95 -56.25 3.15 -47.55 3.7 -43.45 3.9 -39.2 4.0 -37.0 3.45 -35.1 4.2 -33.9 3.9 -32.0 3.55 -29.9 4.1 -27.9 5.2 -23.9 5.95 -19.75 L5.95 -18.4 Q7.05 -17.25 7.7 -15.6 L8.7 -13.75 14.75 -5.05 Q15.95 -4.55 15.75 -3.55 15.9 -3.05 15.35 -2.5 L14.95 -2.2 13.25 -0.7 Q9.9 1.4 6.3 -0.05 5.45 -0.4 5.65 -1.3 6.25 -3.55 8.95 -3.45 10.0 -3.4 10.9 -3.85 6.15 -10.0 2.8 -16.95 1.95 -17.8 1.8 -19.1 1.6 -21.35 0.95 -23.45 -0.15 -26.8 -0.25 -30.35 L-0.1 -32.65 -5.7 -26.0 -7.8 -23.15 -7.95 -22.7 Q-7.6 -21.85 -7.55 -20.75 L-7.5 -18.55 Q-7.6 -13.0 -6.4 -7.7 L-5.35 -2.7 Q-5.0 -0.65 -6.25 -0.3 L-7.15 0.2 -14.9 0.5 Q-15.5 0.4 -15.6 -0.2 -16.1 -3.2 -12.55 -3.0 L-11.7 -3.05 -9.2 -3.3 -10.5 -10.0 -10.85 -12.05 Q-11.35 -15.35 -11.45 -18.85 L-11.7 -20.6 -11.9 -22.05 -11.95 -22.55 Q-11.25 -25.4 -9.4 -27.75 L-6.0 -31.6 -4.45 -33.5 Q-2.65 -36.2 -0.15 -37.65 0.3 -42.05 -0.45 -46.4 L-0.65 -49.0 Q-1.45 -52.05 -1.7 -55.4 -2.25 -62.7 -1.7 -70.1 -1.65 -70.6 -1.2 -70.95 L-0.2 -71.3 Q2.6 -70.5 1.85 -67.3 L1.65 -65.15 M16.5 -56.5 Q16.55 -53.15 17.1 -49.9 18.0 -44.15 16.4 -38.8 16.15 -38.05 15.4 -37.9 11.75 -37.35 11.35 -40.6 11.0 -43.25 13.7 -43.6 L12.6 -59.2 Q12.6 -59.85 13.25 -60.2 L14.1 -60.45 Q16.45 -59.4 16.5 -56.5 M-25.75 -74.2 Q-22.25 -74.45 -23.05 -71.4 L-23.55 -70.5 Q-19.45 -65.3 -14.5 -60.8 L-14.35 -60.6 Q-11.1 -59.7 -12.25 -57.05 -12.55 -56.25 -13.45 -56.35 -16.2 -56.65 -18.1 -58.9 L-19.15 -60.1 -25.0 -66.05 Q-26.95 -68.05 -27.65 -70.55 -28.4 -73.45 -25.75 -74.2" fill="#656565" fill-rule="evenodd" stroke="none"/>
  </g>
</svg>
