<?xml version="1.0" encoding="UTF-8" standalone="no"?>
<svg xmlns:ffdec="https://www.free-decompiler.com/flash" xmlns:xlink="http://www.w3.org/1999/xlink" ffdec:objectType="shape" height="69.95px" width="32.5px" xmlns="http://www.w3.org/2000/svg">
  <g transform="matrix(1.0, 0.0, 0.0, 1.0, 17.25, 68.15)">
    <path d="M13.0 -52.65 Q11.75 -49.2 9.65 -46.1 8.1 -43.8 6.0 -41.9 5.15 -41.15 4.45 -40.9 4.4 -37.75 3.9 -34.65 4.65 -33.6 4.5 -31.9 4.15 -26.6 5.35 -21.65 5.75 -20.1 6.55 -18.7 L14.9 -3.25 Q16.0 -1.1 13.85 0.0 12.1 0.9 10.15 1.1 8.2 1.35 6.2 1.1 3.9 0.8 4.65 -1.35 4.9 -2.15 5.75 -2.3 L10.85 -3.15 10.45 -3.85 Q10.25 -4.1 10.2 -4.45 L2.3 -18.55 Q0.65 -22.75 0.5 -27.35 -1.35 -25.1 -3.45 -23.25 L-6.45 -20.45 Q-8.6 -18.25 -7.75 -15.05 -7.2 -12.85 -7.1 -10.5 -6.95 -6.6 -6.35 -2.8 -3.95 0.35 -7.2 1.3 L-11.0 1.8 -16.35 1.1 Q-17.2 0.85 -17.25 0.0 -17.45 -1.85 -15.55 -2.0 L-10.05 -2.05 Q-11.0 -8.55 -11.45 -15.25 L-11.55 -17.45 Q-11.6 -21.85 -7.85 -24.7 L-6.1 -26.15 Q-4.15 -27.8 -2.85 -30.05 -1.65 -32.15 0.4 -32.85 0.3 -33.85 0.6 -34.5 L0.6 -34.6 Q0.9 -39.05 0.45 -43.4 -0.45 -52.1 -2.4 -60.6 L-2.4 -60.8 Q-4.25 -63.35 -5.7 -66.0 -5.95 -66.45 -5.75 -66.9 -5.25 -68.1 -4.1 -68.15 -1.45 -67.3 -0.15 -64.6 3.2 -57.65 3.55 -49.9 L3.85 -47.35 5.45 -47.5 Q6.55 -47.45 7.15 -48.6 8.35 -50.95 9.2 -53.4 L10.0 -55.9 Q10.2 -56.7 11.0 -56.9 L11.45 -57.0 Q14.1 -55.8 13.0 -52.65 M-10.0 -51.9 Q-8.3 -49.5 -5.7 -48.5 -2.2 -50.45 -0.3 -47.15 0.25 -46.2 -0.05 -45.1 -0.35 -43.75 -1.75 -43.7 -7.45 -43.4 -11.55 -47.5 -13.9 -49.9 -15.75 -52.55 -15.95 -52.9 -15.8 -53.3 -15.35 -54.6 -14.1 -54.65 -11.6 -54.2 -10.0 -51.9" fill="#666666" fill-rule="evenodd" stroke="none"/>
  </g>
</svg>
