<?xml version="1.0" encoding="UTF-8" standalone="no"?>
<svg xmlns:ffdec="https://www.free-decompiler.com/flash" xmlns:xlink="http://www.w3.org/1999/xlink" ffdec:objectType="shape" height="71.0px" width="31.85px" xmlns="http://www.w3.org/2000/svg">
  <g transform="matrix(1.0, 0.0, 0.0, 1.0, 16.0, 69.3)">
    <path d="M8.8 -54.95 Q11.95 -54.25 10.1 -51.55 9.5 -50.65 8.45 -50.35 L1.3 -48.4 1.95 -43.6 3.15 -36.75 3.25 -34.8 Q3.8 -34.05 3.5 -33.1 4.05 -32.3 4.15 -31.15 L4.45 -30.0 Q6.3 -24.9 5.55 -19.55 6.9 -18.35 7.55 -16.3 L8.0 -15.15 Q11.55 -8.2 15.7 -1.55 15.95 -1.15 15.8 -0.6 L15.75 -0.3 Q15.75 0.5 15.0 0.9 L14.45 1.15 Q9.7 2.5 5.5 0.6 4.85 0.35 4.95 -0.45 5.05 -1.7 6.35 -1.9 L10.8 -2.3 Q6.8 -8.4 3.75 -15.05 2.2 -16.8 2.5 -18.45 1.9 -19.2 2.0 -20.65 2.15 -22.95 1.65 -25.2 L0.75 -29.15 -4.8 -21.65 Q-5.5 -20.65 -6.4 -20.15 L-6.45 -18.45 Q-6.8 -16.2 -6.65 -14.05 L-6.15 -5.95 -5.7 -2.0 -5.65 -2.0 Q-5.0 -1.95 -4.9 -1.3 -4.4 1.4 -7.6 1.45 L-13.9 1.25 Q-16.6 1.05 -15.8 -1.3 -15.4 -2.4 -14.35 -2.4 L-9.4 -2.2 Q-10.3 -6.4 -10.3 -10.85 L-10.5 -17.2 Q-10.65 -19.05 -10.15 -20.65 L-10.15 -21.05 Q-10.0 -23.1 -8.2 -24.3 -7.35 -24.85 -6.8 -25.65 L-0.75 -33.95 -0.65 -34.05 -0.75 -34.75 Q-0.95 -38.7 -1.75 -42.5 L-2.5 -47.5 -3.65 -47.2 Q-6.5 -46.35 -7.95 -48.6 -8.35 -49.25 -8.15 -50.0 L-8.1 -50.15 Q-9.15 -49.15 -10.95 -48.8 -13.0 -48.45 -14.5 -49.55 -15.95 -50.65 -14.65 -51.85 -13.55 -52.85 -11.95 -52.9 -12.8 -55.9 -9.8 -56.9 L-9.4 -57.0 Q-6.05 -56.45 -6.75 -52.85 L-7.05 -51.7 Q-6.1 -52.5 -4.4 -52.3 -3.45 -52.2 -2.85 -51.5 L-2.8 -51.5 Q-3.0 -55.4 -3.7 -59.25 -4.5 -63.3 -5.7 -67.2 -6.1 -68.4 -4.95 -69.0 L-4.1 -69.3 Q-0.75 -67.5 -0.65 -63.4 L-0.35 -61.15 Q0.7 -56.85 0.95 -52.35 L0.95 -52.3 Q5.05 -53.35 8.8 -54.95" fill="#666666" fill-rule="evenodd" stroke="none"/>
  </g>
</svg>
