<?xml version="1.0" encoding="UTF-8" standalone="no"?>
<svg xmlns:ffdec="https://www.free-decompiler.com/flash" xmlns:xlink="http://www.w3.org/1999/xlink" ffdec:objectType="shape" height="74.6px" width="36.3px" xmlns="http://www.w3.org/2000/svg">
  <g transform="matrix(1.0, 0.0, 0.0, 1.0, 13.95, 225.55)">
    <path d="M5.1 -224.25 Q5.7 -225.45 6.95 -225.55 10.25 -224.6 8.4 -221.35 L5.85 -216.5 Q2.95 -208.7 -0.8 -201.2 -2.65 -197.55 -4.9 -194.0 -5.9 -192.5 -6.15 -190.75 -2.6 -183.25 2.65 -177.05 3.15 -176.45 3.95 -176.2 13.15 -172.8 22.05 -168.9 L22.35 -168.45 Q22.45 -165.5 20.0 -163.45 18.75 -162.45 17.9 -161.1 15.95 -158.1 14.2 -160.8 13.75 -161.5 14.2 -162.2 15.85 -164.7 17.8 -166.85 9.2 -170.05 0.5 -173.95 -1.9 -175.05 -3.2 -177.45 L-6.3 -183.05 -7.6 -185.4 -7.75 -185.35 Q-8.25 -182.85 -9.1 -180.4 -9.15 -179.15 -9.55 -178.0 L-10.0 -177.1 -10.0 -175.35 -10.0 -174.25 -3.15 -162.45 Q-2.95 -162.05 -2.9 -161.5 -2.7 -159.9 -3.55 -158.6 -3.4 -157.45 -3.85 -156.45 -4.05 -156.05 -4.4 -155.75 -3.75 -152.55 -6.2 -151.1 -6.9 -150.7 -7.55 -151.25 -9.3 -152.6 -8.5 -154.9 L-7.75 -157.2 -6.6 -161.2 Q-10.25 -167.4 -13.7 -173.85 -14.0 -174.4 -13.95 -175.05 -13.7 -179.2 -11.95 -182.75 L-11.4 -187.1 -11.65 -188.55 Q-11.5 -195.5 -10.15 -202.2 -9.6 -204.8 -7.4 -205.55 -4.35 -204.95 -5.8 -202.25 -6.85 -200.25 -7.1 -197.95 L-5.6 -200.45 -3.15 -204.4 Q-1.45 -209.55 1.0 -214.55 L1.6 -215.4 Q3.1 -219.95 5.1 -224.25 M12.85 -202.6 Q10.35 -196.45 5.15 -192.0 3.05 -190.25 0.6 -190.95 -0.55 -191.3 -0.6 -192.45 -0.85 -196.55 3.4 -196.35 4.05 -196.3 4.5 -196.7 7.15 -199.05 8.6 -202.25 L9.95 -205.65 Q10.35 -206.7 11.35 -206.75 14.1 -205.65 12.85 -202.6" fill="#666666" fill-rule="evenodd" stroke="none"/>
  </g>
</svg>
