<?xml version="1.0" encoding="UTF-8" standalone="no"?>
<svg xmlns:ffdec="https://www.free-decompiler.com/flash" xmlns:xlink="http://www.w3.org/1999/xlink" ffdec:objectType="shape" height="63.45px" width="39.75px" xmlns="http://www.w3.org/2000/svg">
  <g transform="matrix(1.0, 0.0, 0.0, 1.0, 25.05, 64.35)">
    <path d="M4.1 -61.2 Q-0.95 -55.1 -2.85 -47.6 -4.2 -43.35 -6.05 -39.2 L-6.95 -37.7 Q-7.0 -36.6 -7.3 -35.75 -5.55 -35.35 -5.9 -33.45 L-5.95 -33.25 Q-5.2 -29.8 -5.2 -26.2 -5.25 -22.65 -6.05 -19.4 L-6.1 -18.25 10.0 -14.35 11.85 -13.95 Q15.55 -13.25 14.45 -9.55 14.0 -8.1 13.05 -6.95 L12.6 -6.1 Q11.85 -3.3 9.2 -4.2 8.1 -4.55 8.1 -5.7 8.1 -6.6 8.75 -7.25 9.45 -8.65 10.6 -9.9 L10.8 -10.1 Q2.25 -12.35 -7.05 -14.1 -8.85 -14.45 -9.5 -16.0 -9.8 -16.8 -9.7 -17.65 -8.95 -23.3 -9.3 -29.1 L-9.5 -32.35 Q-12.0 -29.25 -15.05 -26.65 L-16.45 -25.35 -20.75 -20.7 Q-15.25 -15.55 -9.0 -11.2 -7.2 -9.95 -7.8 -7.95 -8.65 -4.9 -11.65 -3.15 L-14.7 -1.2 Q-15.5 -0.6 -16.3 -1.2 -18.35 -2.65 -16.35 -4.2 -14.0 -6.1 -12.0 -8.3 -17.85 -13.0 -23.55 -17.85 -25.55 -19.5 -24.85 -21.65 L-24.1 -22.9 Q-18.65 -28.95 -12.85 -34.65 L-11.65 -35.7 Q-11.6 -36.95 -10.8 -38.25 L-10.5 -38.75 Q-6.85 -46.75 -4.2 -55.05 L-3.3 -56.85 Q-1.3 -60.9 2.2 -63.95 L2.95 -64.35 Q6.15 -63.65 4.1 -61.2 M9.4 -49.65 Q12.9 -48.5 10.5 -45.2 7.65 -41.2 3.15 -39.5 2.2 -39.15 1.65 -39.95 -0.15 -42.55 1.7 -45.05 2.05 -45.55 2.65 -45.55 L5.3 -45.25 Q6.7 -46.25 7.45 -47.8 L7.55 -48.05 Q7.75 -49.25 8.95 -49.55 L9.4 -49.65 M-14.95 -51.4 Q-11.8 -50.75 -13.65 -48.05 L-15.2 -46.1 Q-18.2 -42.85 -20.15 -38.85 -18.5 -36.1 -21.1 -34.6 L-22.7 -34.7 Q-24.3 -35.85 -24.1 -38.0 -23.7 -42.0 -21.1 -45.2 L-20.15 -46.35 Q-18.0 -49.15 -15.35 -51.25 L-14.95 -51.4" fill="#666666" fill-rule="evenodd" stroke="none"/>
  </g>
</svg>
