<?xml version="1.0" encoding="UTF-8" standalone="no"?>
<svg xmlns:ffdec="https://www.free-decompiler.com/flash" xmlns:xlink="http://www.w3.org/1999/xlink" ffdec:objectType="shape" height="63.0px" width="59.3px" xmlns="http://www.w3.org/2000/svg">
  <g transform="matrix(1.0, 0.0, 0.0, 1.0, 28.75, 209.1)">
    <path d="M26.6 -201.15 Q31.35 -201.0 30.4 -196.1 29.15 -189.8 24.4 -185.15 L21.5 -182.45 19.7 -182.35 Q17.75 -183.75 19.5 -185.65 22.0 -188.25 24.0 -191.1 25.65 -193.35 26.7 -195.95 23.65 -197.5 25.55 -200.55 25.95 -201.15 26.6 -201.15 M6.05 -190.6 Q9.15 -189.05 7.0 -185.8 2.65 -179.4 -3.35 -174.55 -5.25 -173.05 -6.35 -170.75 L-7.45 -169.1 Q-7.45 -168.25 -8.3 -167.1 -7.35 -165.8 -7.7 -163.65 L-8.2 -158.4 -8.25 -153.55 -3.1 -153.7 -2.65 -153.55 9.2 -154.8 9.75 -154.55 Q12.1 -151.4 14.8 -148.75 15.4 -148.2 15.0 -147.45 13.65 -145.05 11.45 -146.95 9.45 -148.7 7.9 -150.95 L-3.5 -149.65 Q-4.0 -149.25 -4.75 -148.9 L-7.65 -147.5 Q-10.45 -146.2 -10.7 -149.2 L-10.95 -149.2 -11.35 -149.5 -11.35 -149.55 Q-19.6 -149.3 -27.95 -149.85 -28.55 -149.9 -28.65 -150.5 -29.15 -153.4 -26.4 -155.0 L-25.15 -155.95 -14.5 -165.95 Q-12.85 -167.5 -11.5 -169.25 L-11.0 -170.0 -10.95 -170.05 Q-11.1 -171.25 -10.25 -172.55 -8.25 -175.6 -5.4 -177.8 0.2 -182.2 3.95 -188.1 4.05 -190.25 6.05 -190.55 L6.05 -190.6 M-18.0 -209.1 Q-14.3 -207.85 -12.6 -204.1 L-12.05 -202.95 Q-11.75 -202.4 -11.75 -201.8 -10.9 -200.05 -10.4 -198.1 -10.2 -197.35 -10.3 -196.55 -8.55 -193.15 -10.45 -190.05 -10.85 -189.4 -11.6 -189.8 -13.4 -190.75 -13.4 -193.1 L-13.35 -194.4 -14.65 -198.1 -14.85 -199.7 -16.1 -202.05 -16.8 -203.45 Q-19.8 -203.55 -20.05 -206.15 -20.3 -208.6 -18.0 -209.1 M-11.85 -163.2 L-17.9 -157.15 -22.55 -153.15 -12.15 -153.4 -12.15 -153.6 -11.9 -162.2 -11.85 -163.2" fill="#666666" fill-rule="evenodd" stroke="none"/>
  </g>
</svg>
