<?xml version="1.0" encoding="UTF-8" standalone="no"?>
<svg xmlns:ffdec="https://www.free-decompiler.com/flash" xmlns:xlink="http://www.w3.org/1999/xlink" ffdec:objectType="shape" height="55.65px" width="63.9px" xmlns="http://www.w3.org/2000/svg">
  <g transform="matrix(1.0, 0.0, 0.0, 1.0, 34.85, 184.75)">
    <path d="M24.95 -174.2 Q29.2 -174.4 29.05 -170.0 28.7 -161.15 25.55 -152.95 L25.0 -151.05 Q24.4 -147.65 21.65 -149.4 20.95 -149.8 21.1 -150.7 22.45 -157.2 24.4 -163.55 25.2 -166.05 25.45 -168.7 21.8 -170.05 23.8 -173.5 24.2 -174.2 24.95 -174.2 M11.75 -156.9 Q15.0 -156.6 13.4 -153.95 L12.05 -152.3 Q5.3 -146.25 -3.4 -144.35 L-8.15 -143.3 -8.8 -142.3 -10.05 -141.1 -12.55 -139.05 Q-6.5 -140.4 -0.3 -140.95 L4.1 -141.05 Q5.6 -141.0 6.45 -139.75 L7.3 -138.2 7.4 -137.8 Q10.15 -135.5 7.35 -133.8 L6.25 -133.9 Q4.35 -135.35 3.1 -137.2 L-9.4 -135.75 -9.45 -135.55 Q-9.7 -133.6 -11.5 -132.4 -13.2 -131.35 -14.55 -129.85 -15.05 -129.35 -15.75 -129.2 -18.5 -128.65 -18.0 -131.45 -17.7 -133.1 -16.2 -134.1 L-15.55 -134.5 -20.6 -133.15 Q-21.2 -133.0 -21.65 -133.45 -22.3 -134.2 -22.35 -134.9 L-30.8 -135.1 -31.3 -135.1 -33.6 -134.75 Q-34.3 -134.7 -34.6 -135.4 -35.35 -137.4 -33.9 -138.4 -33.55 -139.0 -32.85 -139.0 L-32.75 -139.0 -32.7 -139.0 -31.6 -139.5 Q-23.65 -143.45 -15.05 -145.75 L-5.45 -147.85 Q1.25 -148.95 6.55 -153.3 9.15 -155.4 11.75 -156.9 M0.05 -162.75 Q-0.05 -161.35 -0.75 -160.2 -1.55 -159.0 -2.8 -159.85 -4.3 -160.85 -4.05 -162.9 -3.1 -170.9 -2.45 -178.95 -4.9 -179.45 -4.5 -181.95 -4.2 -184.25 -2.05 -184.75 2.1 -184.75 1.65 -180.35 0.7 -171.6 0.05 -162.75 M-15.85 -141.45 Q-19.8 -140.4 -23.5 -138.8 L-18.75 -138.65 -15.85 -141.45" fill="#666666" fill-rule="evenodd" stroke="none"/>
  </g>
</svg>
