<?xml version="1.0" encoding="UTF-8" standalone="no"?>
<svg xmlns:ffdec="https://www.free-decompiler.com/flash" xmlns:xlink="http://www.w3.org/1999/xlink" ffdec:objectType="shape" height="43.4px" width="66.45px" xmlns="http://www.w3.org/2000/svg">
  <g transform="matrix(1.0, 0.0, 0.0, 1.0, 30.6, 150.25)">
    <path d="M19.95 -150.25 Q24.45 -149.9 22.5 -146.15 L21.8 -145.35 Q20.45 -144.4 18.7 -144.9 L8.8 -134.6 6.35 -132.1 4.8 -132.0 Q3.05 -133.3 4.25 -135.25 5.35 -137.05 6.9 -138.5 L10.15 -141.75 15.6 -147.3 Q15.25 -148.15 16.3 -149.2 16.75 -149.65 17.3 -149.65 L17.85 -149.4 Q18.8 -150.1 19.95 -150.25 M35.6 -143.5 Q33.1 -134.95 26.95 -128.45 25.95 -127.4 24.65 -126.8 22.45 -125.8 22.15 -128.15 21.95 -129.8 23.4 -130.95 L25.4 -132.9 Q28.8 -136.85 30.8 -141.55 29.85 -142.4 30.7 -144.15 31.1 -144.8 31.75 -144.9 L32.75 -147.55 Q33.05 -148.2 33.75 -148.2 36.55 -146.85 35.6 -143.5 M18.9 -120.2 Q19.95 -118.45 17.95 -117.85 L15.1 -117.8 13.2 -118.55 Q4.55 -120.0 -4.15 -118.75 L-5.05 -118.6 -5.2 -117.4 -5.3 -117.15 6.45 -116.55 9.15 -115.95 15.65 -113.0 16.0 -112.55 Q16.3 -110.55 15.0 -110.25 L14.85 -109.15 Q14.25 -106.35 11.95 -108.1 11.2 -108.7 11.1 -109.65 L10.9 -111.0 6.6 -111.75 -5.45 -113.0 Q-5.25 -111.2 -6.6 -109.9 -8.85 -107.8 -11.8 -106.9 -12.4 -106.7 -12.85 -107.2 -14.55 -109.25 -12.2 -110.65 L-29.9 -111.55 Q-30.35 -111.6 -30.45 -112.0 -31.25 -114.9 -28.25 -116.45 -22.9 -119.3 -16.85 -120.35 L-8.2 -121.8 -0.9 -122.95 Q8.2 -123.85 16.8 -121.7 18.2 -121.35 18.9 -120.2 M-13.25 -116.0 L-13.05 -116.15 Q-11.45 -116.8 -10.15 -117.75 L-18.75 -115.95 Q-20.75 -115.5 -22.55 -114.65 L-13.35 -114.2 Q-13.6 -114.7 -13.45 -115.55 L-13.25 -116.0" fill="#666666" fill-rule="evenodd" stroke="none"/>
  </g>
</svg>
