<?xml version="1.0" encoding="UTF-8" standalone="no"?>
<svg xmlns:ffdec="https://www.free-decompiler.com/flash" xmlns:xlink="http://www.w3.org/1999/xlink" ffdec:objectType="shape" height="22.4px" width="76.35px" xmlns="http://www.w3.org/2000/svg">
  <g transform="matrix(1.0, 0.0, 0.0, 1.0, 33.0, 18.0)">
    <path d="M16.25 -13.15 L13.7 -10.4 Q14.0 -9.75 13.35 -9.1 12.5 -8.15 11.4 -7.8 L10.6 -6.95 8.25 -4.3 Q7.25 -3.2 6.15 -2.8 L7.55 -1.95 8.25 -1.3 Q10.55 1.4 8.4 4.05 7.95 4.6 7.25 4.3 5.55 3.45 5.1 1.45 L4.8 0.3 Q-2.45 -1.6 -9.55 -3.9 L-8.25 -2.85 Q-7.75 -2.35 -8.0 -1.6 -8.95 0.95 -11.45 2.3 -13.55 3.4 -15.85 3.65 -17.2 3.8 -17.4 2.55 -17.8 0.3 -15.3 -0.3 -14.2 -0.55 -13.35 -1.25 L-17.05 -1.95 -30.35 -3.55 Q-33.75 -4.0 -32.75 -6.9 -32.35 -7.95 -31.45 -8.65 -29.2 -10.3 -26.55 -11.2 -22.5 -12.65 -18.5 -13.25 L-0.75 -12.35 Q4.35 -11.7 9.55 -12.1 L10.0 -12.1 12.25 -14.65 Q13.6 -16.1 15.25 -16.5 18.65 -15.65 16.25 -13.15 M2.85 -4.3 Q3.45 -6.4 5.8 -7.35 L6.45 -8.1 1.5 -8.65 -7.9 -9.5 -8.65 -9.55 -9.45 -8.4 -9.6 -8.2 Q-7.5 -6.65 -4.45 -6.05 L0.2 -5.05 2.85 -4.3 M23.8 -8.55 Q28.65 -7.95 32.95 -5.7 L33.05 -5.65 Q35.25 -4.6 37.45 -3.7 37.9 -4.15 38.45 -4.15 40.1 -3.55 40.2 -2.65 L42.4 -1.9 Q43.65 -1.5 43.25 -0.3 42.45 2.0 39.85 1.3 36.3 0.3 33.1 -1.45 30.4 -2.95 27.5 -3.95 L26.95 -4.25 Q23.15 -3.9 22.2 -6.9 21.95 -7.65 22.6 -8.1 L23.8 -8.55 M-26.9 -6.95 Q-27.3 -6.7 -26.55 -6.7 L-14.15 -5.45 -14.2 -5.5 Q-14.85 -5.75 -15.0 -6.45 -15.4 -8.4 -13.55 -9.75 L-19.95 -9.15 -21.9 -8.7 Q-24.5 -8.05 -26.9 -6.95 M-1.0 -15.15 Q-0.7 -12.75 -3.2 -13.1 L-12.1 -14.0 -17.0 -14.25 Q-18.95 -14.35 -18.95 -16.2 -18.9 -17.85 -17.3 -17.95 -9.15 -18.25 -1.55 -15.8 -1.1 -15.7 -1.0 -15.15" fill="#666666" fill-rule="evenodd" stroke="none"/>
  </g>
</svg>
