<?xml version="1.0" encoding="UTF-8" standalone="no"?>
<svg xmlns:ffdec="https://www.free-decompiler.com/flash" xmlns:xlink="http://www.w3.org/1999/xlink" ffdec:objectType="shape" height="25.7px" width="77.25px" xmlns="http://www.w3.org/2000/svg">
  <g transform="matrix(1.0, 0.0, 0.0, 1.0, 32.05, 23.5)">
    <path d="M9.75 -2.75 Q9.3 -0.05 7.6 1.8 7.4 2.05 7.05 1.95 4.65 1.45 5.2 -1.15 L5.85 -3.3 -9.1 -3.8 -9.0 -3.4 Q-8.55 -0.6 -11.3 0.25 -12.25 0.55 -13.1 1.05 -13.5 1.5 -14.1 1.75 -17.15 3.1 -17.95 0.3 -18.3 -0.85 -17.15 -1.35 L-17.0 -1.4 Q-21.15 -2.15 -25.35 -3.25 L-27.05 -3.75 -30.95 -5.1 Q-32.25 -5.6 -32.0 -7.05 -31.65 -9.5 -28.75 -10.0 L-27.1 -10.45 Q-18.9 -13.55 -10.05 -13.8 L-11.8 -13.95 -11.15 -14.05 -10.8 -14.1 -10.5 -14.05 -8.85 -14.15 Q-4.95 -13.95 -1.0 -14.1 L-1.05 -14.0 12.0 -14.15 Q15.0 -13.55 13.5 -10.95 13.0 -10.15 12.0 -10.15 L-4.55 -10.05 -10.65 -9.8 -10.75 -8.55 -10.8 -8.35 Q-1.65 -5.9 8.25 -7.15 10.0 -7.4 10.05 -5.65 L9.75 -2.75 M36.4 -7.9 L36.9 -7.85 Q40.1 -9.5 41.9 -6.95 45.2 -6.65 45.2 -3.9 45.2 -3.4 44.75 -3.2 L39.3 -3.0 Q36.55 -4.05 33.65 -4.4 28.9 -5.0 24.9 -7.2 24.55 -7.4 24.6 -7.85 24.65 -9.6 26.35 -9.75 31.45 -9.2 36.4 -7.9 M-24.75 -6.95 Q-19.7 -5.6 -14.55 -4.9 L-13.25 -4.75 Q-14.9 -5.65 -14.7 -7.95 L-14.55 -9.35 -20.45 -8.35 -22.65 -7.8 -24.75 -6.95 M-2.2 -15.95 Q-2.85 -13.65 -5.3 -14.6 L-18.95 -20.25 Q-19.8 -20.6 -19.6 -21.55 -19.3 -23.3 -17.6 -23.5 -13.05 -22.4 -8.7 -20.55 L-2.9 -17.7 Q-1.85 -17.1 -2.2 -15.95" fill="#666666" fill-rule="evenodd" stroke="none"/>
  </g>
</svg>
