<?xml version="1.0" encoding="UTF-8" standalone="no"?>
<svg xmlns:ffdec="https://www.free-decompiler.com/flash" xmlns:xlink="http://www.w3.org/1999/xlink" ffdec:objectType="shape" height="27.35px" width="57.8px" xmlns="http://www.w3.org/2000/svg">
  <g transform="matrix(1.0, 0.0, 0.0, 1.0, 31.05, 22.05)">
    <path d="M16.15 -18.9 Q10.6 -11.9 1.95 -9.5 L-4.65 -8.0 Q-5.95 -7.75 -7.1 -8.0 L-7.5 -7.4 -8.85 -5.85 7.15 -5.3 Q8.15 -5.25 8.45 -4.25 L9.1 -1.05 Q9.2 0.45 8.6 1.7 8.0 2.95 6.65 2.4 4.65 1.6 5.1 -0.85 L5.2 -1.9 Q-4.6 -2.2 -14.35 -1.85 -14.6 -1.85 -14.8 -2.1 -15.9 -3.65 -14.7 -5.1 L-10.9 -9.1 -14.65 -10.35 Q-15.75 -10.2 -17.05 -10.75 -18.4 -11.3 -18.45 -12.1 L-22.8 -13.8 Q-22.95 -8.85 -22.25 -4.15 -21.75 -0.75 -22.8 2.4 -23.1 3.25 -24.05 3.35 -27.85 3.7 -30.8 1.9 L-31.05 1.45 Q-31.2 -0.4 -29.3 -0.55 L-25.95 -0.65 Q-26.5 -5.35 -26.6 -10.25 -26.6 -13.25 -26.0 -16.15 L-25.6 -16.9 Q-24.7 -18.05 -23.45 -18.25 L-16.7 -15.4 Q-15.9 -16.0 -14.2 -15.85 L-13.5 -15.9 -8.1 -15.6 -7.3 -15.35 Q-2.5 -15.95 1.6 -14.15 L1.9 -13.7 1.95 -13.5 Q6.95 -15.35 11.05 -19.05 11.7 -19.65 12.5 -20.1 13.3 -21.75 14.95 -22.05 18.15 -21.35 16.15 -18.9 M24.9 -10.05 Q27.9 -8.6 26.05 -5.35 L20.2 4.6 19.35 5.2 Q17.25 5.6 15.7 4.4 14.15 3.15 15.75 1.95 16.75 1.15 18.1 1.25 L18.5 0.1 18.95 -0.5 Q21.3 -5.2 24.05 -9.65 L24.45 -9.95 24.9 -10.05" fill="#666666" fill-rule="evenodd" stroke="none"/>
  </g>
</svg>
