<?xml version="1.0" encoding="UTF-8" standalone="no"?>
<svg xmlns:ffdec="https://www.free-decompiler.com/flash" xmlns:xlink="http://www.w3.org/1999/xlink" ffdec:objectType="shape" height="33.55px" width="58.85px" xmlns="http://www.w3.org/2000/svg">
  <g transform="matrix(1.0, 0.0, 0.0, 1.0, 33.0, 27.6)">
    <path d="M16.1 -27.6 Q19.3 -26.55 17.7 -23.0 13.95 -14.65 4.55 -12.25 L4.2 -12.15 2.1 -8.35 Q1.75 -6.45 1.05 -4.65 L0.65 -3.95 Q0.35 -2.75 -0.35 -2.25 L2.65 -2.0 Q5.25 -1.75 7.5 -0.6 8.55 -0.05 8.35 1.15 7.9 3.4 5.55 4.15 L1.7 5.5 -2.15 5.85 Q-3.9 5.55 -3.3 3.9 -2.8 2.55 -1.3 2.15 L0.0 1.9 -10.9 0.1 Q-13.5 -0.25 -15.9 -1.45 -17.65 -2.3 -16.65 -3.95 L-15.15 -5.7 Q-12.2 -8.1 -9.4 -10.65 L-9.8 -10.85 Q-15.9 -14.2 -22.2 -17.0 -23.95 -10.55 -23.2 -3.6 -22.85 -0.7 -25.55 -0.15 L-28.25 0.45 Q-30.3 0.9 -32.2 0.5 -32.8 0.4 -32.9 -0.2 -33.55 -3.3 -29.9 -3.45 L-27.05 -3.75 Q-27.55 -10.65 -26.4 -17.2 -25.95 -19.55 -24.15 -21.05 -23.5 -21.6 -22.65 -21.3 -20.7 -20.65 -18.85 -19.65 -12.55 -16.25 -5.8 -13.75 L-5.4 -13.75 Q-2.1 -14.3 1.05 -15.3 1.25 -15.85 1.8 -16.2 2.25 -16.45 2.65 -16.5 L3.5 -16.2 Q7.1 -17.65 10.4 -19.75 11.95 -20.75 13.0 -22.2 L13.7 -23.1 Q13.95 -25.65 15.55 -27.3 15.85 -27.55 16.1 -27.6 M25.3 -8.05 L22.7 -2.7 Q20.9 1.3 18.6 4.9 18.25 5.4 17.55 5.4 14.25 5.5 14.6 2.65 14.7 1.7 15.65 1.4 L16.55 1.1 Q19.2 -3.7 21.25 -9.0 L21.55 -9.45 Q21.55 -11.7 23.7 -12.05 L23.75 -12.1 Q26.95 -11.25 25.3 -8.05 M-5.05 -10.15 L-5.4 -10.1 Q-5.6 -9.4 -6.35 -8.6 L-10.7 -4.1 -3.45 -2.65 Q-4.45 -3.25 -3.9 -4.3 L-2.45 -6.4 -0.7 -11.0 -5.05 -10.15" fill="#666666" fill-rule="evenodd" stroke="none"/>
  </g>
</svg>
