<?xml version="1.0" encoding="UTF-8" standalone="no"?>
<svg xmlns:ffdec="https://www.free-decompiler.com/flash" xmlns:xlink="http://www.w3.org/1999/xlink" ffdec:objectType="shape" height="40.3px" width="55.75px" xmlns="http://www.w3.org/2000/svg">
  <g transform="matrix(1.0, 0.0, 0.0, 1.0, 32.2, 32.45)">
    <path d="M17.65 -26.5 Q15.9 -20.8 10.95 -17.0 L9.0 -15.6 8.9 -14.3 8.6 -12.05 7.8 -5.45 Q10.45 -3.7 8.05 -1.75 7.7 -1.45 7.25 -1.45 4.0 -1.25 3.75 -4.1 3.55 -6.1 4.0 -8.05 4.6 -10.75 4.75 -13.5 L0.45 -12.3 -2.45 -11.7 -4.25 -11.3 -6.3 -10.95 -6.4 -10.8 Q-6.8 -9.95 -7.45 -9.3 L-11.95 -5.1 -12.25 -4.65 -12.45 -4.3 Q-12.05 -3.7 -10.95 -3.3 -3.95 -0.85 3.25 1.15 3.7 1.3 3.85 1.8 4.55 4.35 1.85 5.55 1.4 5.75 1.05 6.2 -0.45 8.1 -2.6 7.8 L-3.3 7.25 Q-4.35 5.2 -2.25 3.95 L-1.7 3.55 -6.0 2.15 Q-11.45 0.75 -16.4 -1.85 -18.2 -2.75 -17.25 -4.45 -16.35 -6.0 -15.0 -7.2 L-10.65 -11.6 -11.45 -11.95 -16.35 -14.2 Q-19.35 -15.45 -22.25 -16.95 L-21.55 -6.7 -21.4 -4.65 Q-21.25 -1.85 -22.0 0.65 L-22.45 1.05 -26.5 2.2 Q-29.2 3.0 -31.55 1.85 -32.25 1.5 -32.2 0.75 -32.2 -1.0 -30.4 -1.05 -27.75 -1.2 -25.2 -2.1 L-25.4 -9.75 Q-25.45 -12.05 -25.85 -14.25 -26.35 -17.0 -25.45 -19.55 -24.7 -21.65 -22.5 -20.9 L-18.85 -19.35 Q-14.8 -17.5 -10.6 -15.9 L-8.1 -15.0 -6.15 -14.8 -1.35 -15.65 Q2.05 -16.35 5.0 -17.85 L5.75 -18.4 6.3 -18.55 9.15 -20.6 Q12.05 -22.95 13.55 -26.15 14.15 -29.35 15.9 -32.0 16.15 -32.35 16.55 -32.4 L16.9 -32.45 Q19.65 -31.45 18.45 -28.65 L17.65 -26.5 M23.45 -12.25 Q22.85 -7.9 22.6 -3.5 22.4 0.45 21.3 4.1 L20.65 4.7 Q18.45 5.2 16.5 4.3 15.25 3.75 15.6 2.4 16.15 0.45 18.4 0.65 L19.25 -14.1 Q19.35 -15.5 20.55 -16.15 L21.4 -16.5 Q23.95 -15.4 23.45 -12.25" fill="#666666" fill-rule="evenodd" stroke="none"/>
  </g>
</svg>
