<?xml version="1.0" encoding="UTF-8" standalone="no"?>
<svg xmlns:ffdec="https://www.free-decompiler.com/flash" xmlns:xlink="http://www.w3.org/1999/xlink" ffdec:objectType="shape" height="38.1px" width="55.8px" xmlns="http://www.w3.org/2000/svg">
  <g transform="matrix(1.0, 0.0, 0.0, 1.0, 32.25, 33.2)">
    <path d="M16.4 -33.2 Q19.6 -32.2 17.8 -28.9 L16.05 -26.5 Q12.4 -22.45 7.85 -19.75 8.95 -18.4 8.35 -16.0 7.95 -14.15 7.7 -12.3 7.2 -7.85 6.1 -3.6 6.0 -3.1 5.4 -3.0 1.55 -2.35 2.1 -5.7 2.2 -6.5 3.05 -6.8 3.85 -12.6 4.95 -18.25 L1.4 -16.85 -1.35 -15.7 -2.4 -15.25 -2.65 -14.75 Q-3.05 -14.0 -3.9 -13.75 L-5.45 -13.05 -12.55 -9.25 Q-7.3 -3.45 -1.7 1.9 -1.3 2.3 -1.5 2.85 -1.8 3.8 -2.8 3.95 -7.55 4.65 -12.0 3.95 -12.7 3.85 -12.9 3.15 -13.35 1.3 -11.5 0.8 L-8.65 0.35 Q-13.5 -3.9 -16.9 -9.2 -17.1 -9.55 -16.95 -9.95 -16.4 -12.15 -14.05 -13.15 -11.6 -14.15 -9.35 -15.4 L-21.7 -15.95 Q-22.4 -14.3 -22.3 -12.45 -22.2 -9.15 -22.95 -6.05 L-23.95 -2.35 Q-24.5 -0.45 -26.4 0.0 L-31.55 -0.3 Q-32.4 -0.65 -32.25 -1.6 -32.05 -3.05 -30.6 -3.35 L-27.55 -3.75 -26.7 -7.25 Q-25.9 -10.4 -25.9 -13.65 -25.9 -16.85 -24.35 -19.4 -24.05 -20.0 -23.45 -20.0 L-5.85 -19.1 -4.55 -18.9 -3.05 -19.35 -2.45 -19.45 Q6.3 -21.75 12.4 -28.5 L14.4 -30.7 Q14.4 -32.45 16.0 -33.05 L16.4 -33.2 M22.6 -3.5 Q22.4 0.45 21.3 4.1 L20.65 4.7 Q18.45 5.2 16.5 4.3 15.25 3.75 15.6 2.4 16.15 0.45 18.4 0.65 L19.25 -14.1 Q19.35 -15.5 20.55 -16.15 L21.4 -16.5 Q23.95 -15.4 23.45 -12.25 22.85 -7.9 22.6 -3.5" fill="#666666" fill-rule="evenodd" stroke="none"/>
  </g>
</svg>
