<?xml version="1.0" encoding="UTF-8" standalone="no"?>
<svg xmlns:ffdec="https://www.free-decompiler.com/flash" xmlns:xlink="http://www.w3.org/1999/xlink" ffdec:objectType="shape" height="48.8px" width="42.05px" xmlns="http://www.w3.org/2000/svg">
  <g transform="matrix(1.0, 0.0, 0.0, 1.0, 24.0, 46.65)">
    <path d="M10.9 -40.75 L10.6 -40.3 Q7.95 -33.6 4.4 -27.3 5.6 -26.45 4.5 -24.5 L1.05 -18.5 Q-0.8 -15.1 -3.4 -12.3 -2.95 -5.65 -3.95 0.85 -4.05 1.6 -4.85 1.7 L-14.05 1.95 Q-14.45 1.9 -14.65 1.45 -15.7 -0.9 -13.15 -1.3 L-8.35 -1.75 -7.1 -2.0 Q-6.9 -7.1 -6.95 -12.3 -6.95 -13.9 -6.15 -15.15 -7.0 -16.45 -5.85 -17.8 L-4.55 -18.85 -3.45 -23.2 -9.6 -22.95 -9.6 -22.7 -10.3 -18.3 -10.35 -18.1 Q-10.7 -16.5 -11.35 -15.0 -11.9 -12.65 -12.75 -10.35 -13.8 -7.6 -16.2 -6.65 -17.25 -6.25 -18.25 -6.65 L-22.25 -7.75 Q-24.65 -8.1 -23.75 -10.3 -23.15 -11.8 -21.45 -11.35 L-17.2 -10.55 Q-16.05 -12.8 -15.15 -15.1 -13.65 -18.95 -13.6 -23.1 -13.5 -25.95 -11.15 -26.75 L-2.65 -26.55 -2.1 -29.2 -1.55 -31.85 Q-1.2 -33.6 0.6 -33.75 2.2 -33.05 2.5 -31.75 3.75 -34.85 5.5 -37.75 L5.9 -38.85 6.35 -39.5 7.05 -41.9 7.45 -42.55 Q7.4 -45.3 9.55 -46.55 L9.95 -46.65 Q12.7 -45.35 11.5 -41.95 L10.9 -40.75 M14.95 -31.45 Q17.75 -30.05 17.9 -26.6 L17.95 -18.0 18.05 -14.05 17.9 -11.0 Q17.75 -9.7 16.4 -9.75 13.35 -9.9 13.75 -13.15 L14.55 -18.4 Q14.4 -23.45 13.15 -28.2 12.9 -29.2 13.3 -30.2 13.8 -31.4 14.95 -31.45" fill="#666666" fill-rule="evenodd" stroke="none"/>
  </g>
</svg>
