<?xml version="1.0" encoding="UTF-8" standalone="no"?>
<svg xmlns:ffdec="https://www.free-decompiler.com/flash" xmlns:xlink="http://www.w3.org/1999/xlink" ffdec:objectType="shape" height="50.4px" width="39.8px" xmlns="http://www.w3.org/2000/svg">
  <g transform="matrix(1.0, 0.0, 0.0, 1.0, 19.5, 51.95)">
    <path d="M8.2 -51.95 Q10.8 -50.8 10.3 -47.5 L10.0 -44.25 Q9.45 -35.4 4.15 -28.2 3.8 -27.1 3.3 -26.65 L2.85 -25.0 Q0.9 -20.8 -2.55 -17.6 L-1.55 -16.7 -1.35 -16.5 Q3.1 -14.5 6.85 -11.65 7.5 -11.15 7.15 -10.4 6.35 -8.45 4.6 -7.1 L1.95 -5.2 Q-0.1 -3.95 -0.75 -6.2 -1.15 -7.7 0.1 -8.6 L1.95 -10.1 1.8 -10.55 1.6 -10.75 Q-1.1 -12.0 -3.6 -13.65 -6.5 -14.25 -7.15 -16.85 -7.3 -17.6 -6.8 -18.3 -4.95 -20.85 -2.8 -22.95 -2.0 -23.95 -1.35 -25.05 L-4.85 -25.05 -4.95 -24.65 Q-5.55 -21.55 -6.7 -18.65 -7.05 -17.85 -7.9 -18.0 -10.3 -18.5 -10.05 -21.15 L-9.55 -24.85 -15.1 -24.4 -12.75 -19.4 Q-11.8 -17.4 -11.3 -15.15 -10.3 -11.15 -10.55 -7.05 -10.6 -5.7 -12.0 -5.05 -14.5 -3.85 -16.25 -1.75 -16.55 -1.45 -16.95 -1.55 -19.55 -2.15 -18.4 -4.6 L-17.15 -6.25 Q-15.65 -7.65 -13.95 -8.6 -14.55 -10.9 -14.7 -13.4 L-14.75 -13.6 -14.85 -13.85 -15.3 -15.6 -17.3 -19.75 -17.6 -20.65 -17.65 -20.9 Q-19.05 -23.25 -19.45 -26.0 -19.65 -27.4 -18.25 -27.85 L-13.2 -28.4 -12.75 -28.35 -8.85 -28.5 Q-8.15 -31.0 -6.75 -33.1 L-6.25 -33.5 -4.8 -36.1 -4.5 -36.55 Q-3.75 -39.1 -2.15 -41.0 L-1.45 -41.4 Q1.85 -40.35 -0.15 -37.0 -2.55 -33.0 -3.9 -28.65 L-1.05 -28.8 -0.15 -29.0 0.3 -29.1 0.65 -29.0 Q1.25 -31.65 3.35 -33.75 L4.0 -35.8 4.55 -36.4 5.0 -38.4 5.4 -39.05 Q6.45 -44.55 6.6 -50.25 6.65 -51.85 8.2 -51.95 M13.2 -39.35 Q16.0 -38.3 16.9 -35.0 17.25 -33.7 17.75 -32.5 20.7 -25.35 20.25 -17.35 20.2 -15.95 19.4 -14.9 18.3 -13.4 16.85 -14.65 14.75 -16.4 15.75 -19.0 L16.25 -19.7 Q16.85 -24.9 14.8 -29.6 L14.3 -31.15 Q12.6 -34.4 11.6 -37.8 11.4 -38.4 11.95 -38.85 12.5 -39.35 13.2 -39.35" fill="#666666" fill-rule="evenodd" stroke="none"/>
  </g>
</svg>
