<?xml version="1.0" encoding="UTF-8" standalone="no"?>
<svg xmlns:ffdec="https://www.free-decompiler.com/flash" xmlns:xlink="http://www.w3.org/1999/xlink" ffdec:objectType="shape" height="68.45px" width="43.1px" xmlns="http://www.w3.org/2000/svg">
  <g transform="matrix(1.0, 0.0, 0.0, 1.0, 28.75, 66.9)">
    <path d="M6.05 -52.95 L6.45 -53.1 Q9.7 -52.8 8.15 -50.15 L7.3 -49.3 1.8 -45.65 2.5 -38.95 2.95 -35.65 Q4.2 -34.5 3.85 -32.2 3.0 -26.05 2.65 -19.9 L2.5 -18.7 5.2 -16.4 6.95 -14.95 12.1 -11.2 Q13.85 -10.7 14.15 -9.8 14.8 -8.8 13.2 -7.4 L11.25 -5.55 7.1 -1.05 Q6.35 2.0 3.7 0.1 3.0 -0.35 3.3 -1.2 4.35 -4.6 7.2 -6.95 L8.85 -8.5 9.0 -8.65 Q7.3 -9.6 5.75 -10.85 L3.3 -12.7 Q0.85 -14.4 -0.7 -16.9 L-1.1 -17.8 Q-1.45 -18.4 -1.4 -19.2 L-0.6 -27.75 -0.4 -29.3 Q-4.7 -24.4 -10.05 -20.75 L-9.9 -20.0 -9.9 -19.8 Q-9.45 -19.3 -9.35 -18.7 L-9.3 -18.0 Q-7.55 -12.0 -6.15 -5.75 L-6.1 -4.6 Q-5.2 -3.3 -5.1 -2.0 -4.2 -1.15 -5.4 0.55 L-6.3 1.1 -14.65 1.35 Q-15.2 1.3 -15.4 0.7 -16.05 -1.45 -13.75 -1.7 L-9.2 -2.35 Q-11.05 -8.15 -12.25 -14.15 L-13.65 -19.85 Q-14.45 -20.7 -13.9 -21.65 L-13.6 -22.05 -13.35 -22.35 -6.55 -28.85 Q-4.4 -30.85 -2.55 -33.1 L-1.05 -34.6 -1.2 -36.15 Q-0.9 -39.5 -1.45 -42.75 L-1.6 -43.65 Q-4.0 -42.3 -6.6 -41.4 -9.55 -40.4 -10.35 -43.25 -11.15 -45.95 -8.5 -46.6 -6.8 -47.0 -5.8 -45.8 L-5.45 -45.8 -2.2 -47.85 -3.05 -55.65 Q-3.35 -59.3 -4.0 -62.9 -4.55 -66.0 -2.05 -66.9 0.55 -65.7 0.0 -62.45 L0.1 -60.9 Q1.1 -56.65 1.3 -52.15 L1.45 -50.1 6.05 -52.95 M-9.45 -52.85 Q-11.95 -49.55 -15.4 -47.3 -19.7 -44.55 -24.7 -43.2 -28.35 -42.25 -28.7 -45.45 -29.1 -49.05 -25.35 -48.55 -24.3 -48.45 -23.5 -47.75 -16.0 -50.05 -11.1 -56.3 L-10.55 -56.6 -10.55 -56.65 Q-7.25 -55.75 -9.45 -52.85" fill="#666666" fill-rule="evenodd" stroke="none"/>
  </g>
</svg>
