<?xml version="1.0" encoding="UTF-8" standalone="no"?>
<svg xmlns:ffdec="https://www.free-decompiler.com/flash" xmlns:xlink="http://www.w3.org/1999/xlink" ffdec:objectType="shape" height="70.0px" width="41.95px" xmlns="http://www.w3.org/2000/svg">
  <g transform="matrix(1.0, 0.0, 0.0, 1.0, 32.4, 70.8)">
    <path d="M3.15 -60.2 L2.8 -61.3 2.8 -61.65 1.75 -63.3 Q1.45 -63.7 1.45 -64.25 -0.35 -66.2 -1.2 -68.6 -1.45 -69.3 -1.0 -69.9 -0.35 -70.75 0.65 -70.8 2.65 -70.1 3.8 -68.2 7.45 -62.55 8.95 -56.05 9.5 -53.65 9.55 -51.05 9.6 -46.55 8.75 -42.25 8.1 -39.25 6.4 -36.7 2.7 -31.1 -2.7 -27.05 -3.2 -26.7 -3.7 -26.5 L-9.35 -17.25 Q-3.05 -13.4 3.6 -9.6 5.0 -8.8 4.65 -7.35 4.25 -5.85 2.9 -4.9 L-2.5 -1.45 Q-5.25 0.3 -6.25 -2.55 -6.5 -3.2 -6.05 -3.75 L-3.5 -5.7 -0.8 -7.5 Q-2.5 -9.1 -5.2 -10.05 L-7.5 -11.15 -11.95 -13.8 Q-13.15 -14.6 -13.95 -15.85 -14.6 -16.95 -13.95 -18.0 L-8.9 -26.05 -7.95 -27.45 -8.45 -27.95 -10.8 -29.9 -15.55 -33.15 -18.7 -35.3 Q-20.3 -29.95 -20.7 -24.4 L-21.05 -21.15 -21.35 -19.0 -21.3 -16.6 Q-20.8 -14.15 -22.65 -12.85 -23.3 -12.45 -24.0 -12.65 -26.7 -13.5 -29.5 -14.0 -31.45 -14.3 -32.2 -16.0 -32.8 -17.4 -31.4 -18.2 L-28.55 -18.3 -25.65 -17.5 Q-25.7 -20.1 -25.1 -22.65 -24.4 -25.7 -24.1 -28.85 -23.6 -33.85 -21.9 -38.65 -20.95 -41.5 -18.35 -40.1 L-17.35 -39.5 -10.9 -35.0 -6.7 -31.75 -5.3 -30.75 -5.05 -30.8 Q1.1 -35.0 4.15 -41.8 4.85 -43.35 5.05 -45.0 5.7 -50.65 5.0 -56.25 L3.15 -60.2" fill="#666666" fill-rule="evenodd" stroke="none"/>
  </g>
</svg>
