<?xml version="1.0" encoding="UTF-8" standalone="no"?>
<svg xmlns:ffdec="https://www.free-decompiler.com/flash" xmlns:xlink="http://www.w3.org/1999/xlink" ffdec:objectType="shape" height="18.45px" width="22.5px" xmlns="http://www.w3.org/2000/svg">
  <g transform="matrix(1.0, 0.0, 0.0, 1.0, 8.8, 55.1)">
    <path d="M11.1 -54.3 L11.8 -54.65 Q14.65 -53.85 13.25 -51.3 L11.35 -48.8 Q6.95 -44.45 1.65 -41.2 L2.2 -39.9 Q2.75 -37.2 0.2 -36.75 -2.9 -36.2 -4.5 -39.0 L-4.65 -39.25 -5.2 -39.3 Q-6.5 -39.4 -7.0 -40.55 -8.0 -42.85 -6.7 -44.1 L-7.15 -45.65 -8.65 -51.45 Q-9.35 -54.4 -6.75 -55.1 -4.35 -54.45 -4.45 -51.8 L-4.35 -50.95 -2.2 -44.15 Q0.5 -45.15 2.95 -46.95 L6.85 -50.3 11.1 -54.3" fill="#666666" fill-rule="evenodd" stroke="none"/>
  </g>
</svg>
