<?xml version="1.0" encoding="UTF-8" standalone="no"?>
<svg xmlns:ffdec="https://www.free-decompiler.com/flash" xmlns:xlink="http://www.w3.org/1999/xlink" ffdec:objectType="shape" height="56.15px" width="50.5px" xmlns="http://www.w3.org/2000/svg">
  <g transform="matrix(1.0, 0.0, 0.0, 1.0, 31.05, 53.75)">
    <path d="M7.75 -53.2 Q8.3 -53.75 9.0 -53.75 11.7 -52.85 11.2 -49.75 11.0 -48.5 11.1 -47.2 11.35 -43.9 11.25 -40.6 11.2 -38.0 10.55 -35.6 12.45 -36.75 14.25 -38.15 15.7 -39.25 17.3 -39.7 20.45 -39.15 18.95 -36.5 18.5 -35.7 17.7 -35.25 L9.55 -30.25 8.95 -29.9 7.7 -29.3 7.05 -28.4 Q3.8 -24.0 -0.3 -20.35 L-0.6 -19.35 Q-0.95 -18.5 -1.8 -18.0 -4.4 -16.55 -7.2 -15.35 -9.7 -14.25 -12.35 -13.55 -9.25 -9.75 -4.85 -7.15 L-4.3 -6.65 Q-1.05 -5.75 -0.25 -2.8 0.0 -1.9 -0.75 -1.25 -2.45 0.25 -4.7 0.95 -5.6 1.25 -6.35 1.7 -7.7 2.55 -9.25 2.35 -11.65 2.0 -11.0 -0.25 -10.75 -1.15 -9.9 -1.45 -8.1 -2.15 -6.4 -3.0 -11.4 -6.5 -15.8 -10.7 -17.15 -12.0 -17.9 -13.65 -18.4 -14.75 -17.5 -15.55 -16.15 -16.85 -14.35 -17.4 -11.25 -18.25 -8.35 -19.65 L-6.5 -20.5 -6.85 -20.8 Q-10.5 -23.7 -13.45 -27.25 -16.2 -22.4 -19.8 -18.0 L-21.95 -14.7 Q-23.3 -12.1 -26.0 -13.3 -26.7 -13.6 -27.1 -14.25 L-27.75 -15.05 -30.9 -18.95 Q-31.15 -19.25 -31.0 -19.65 -30.1 -22.3 -27.6 -20.75 L-26.55 -19.85 -25.0 -18.2 Q-23.6 -20.35 -21.65 -22.05 L-15.2 -32.05 -14.7 -32.3 Q-12.2 -32.65 -10.65 -30.45 -7.6 -26.25 -3.2 -23.4 L-2.95 -23.45 Q-0.25 -25.85 1.85 -28.6 0.2 -28.85 -1.4 -29.6 -2.2 -29.95 -2.15 -30.8 -2.0 -33.95 1.6 -33.45 2.6 -33.3 3.35 -32.6 L4.7 -33.0 6.15 -35.95 6.95 -38.0 Q7.25 -44.15 6.8 -50.45 6.65 -52.1 7.75 -53.2 M-5.55 -47.75 Q-2.65 -46.9 -3.8 -44.05 -4.55 -42.2 -4.65 -40.15 L-4.7 -39.45 Q-4.75 -37.15 -4.4 -34.95 -2.55 -33.95 -2.45 -31.8 -2.25 -29.3 -4.85 -29.05 -8.1 -28.7 -8.4 -31.7 -8.95 -36.85 -8.65 -41.95 L-8.1 -45.25 -7.35 -46.75 Q-6.6 -47.7 -5.55 -47.75" fill="#666666" fill-rule="evenodd" stroke="none"/>
  </g>
</svg>
