<?xml version="1.0" encoding="UTF-8" standalone="no"?>
<svg xmlns:ffdec="https://www.free-decompiler.com/flash" xmlns:xlink="http://www.w3.org/1999/xlink" ffdec:objectType="shape" height="26.15px" width="73.6px" xmlns="http://www.w3.org/2000/svg">
  <g transform="matrix(1.0, 0.0, 0.0, 1.0, 39.55, 20.35)">
    <path d="M25.15 -20.35 Q28.05 -19.4 26.75 -16.6 L25.95 -15.5 Q21.15 -10.7 14.65 -8.95 8.25 -7.2 1.75 -5.95 L0.9 -5.8 Q0.45 -5.45 -0.15 -5.5 L-0.45 -5.5 -7.05 -3.25 Q-1.8 -2.1 3.75 -2.15 4.3 -2.2 4.55 -1.65 5.75 0.9 2.8 1.8 -1.4 3.1 -5.0 5.65 L-5.7 5.8 Q-8.2 5.35 -7.6 2.95 -7.25 1.4 -5.65 1.15 -12.5 0.7 -19.0 -1.05 -19.4 -1.15 -19.5 -1.6 -20.15 -4.1 -17.35 -4.8 L-9.45 -6.95 -9.75 -7.2 -15.05 -8.3 -16.8 -8.35 Q-19.55 -6.2 -22.55 -4.35 -26.45 -1.95 -29.75 1.2 -30.7 2.1 -31.85 1.75 -33.45 1.35 -34.75 0.25 L-35.55 -0.25 Q-37.35 -1.1 -38.9 -2.25 -39.9 -2.95 -39.4 -4.1 -38.55 -6.1 -36.4 -5.25 -33.8 -4.25 -31.45 -2.8 -29.15 -5.15 -26.35 -6.9 L-18.0 -12.35 -17.7 -12.5 -9.3 -11.35 -8.6 -11.2 -7.75 -11.65 Q-0.6 -14.5 6.25 -17.95 L7.0 -18.25 Q9.9 -17.75 8.7 -15.2 8.2 -14.15 7.1 -13.65 L-1.4 -9.85 -1.0 -9.75 -0.6 -9.65 1.3 -10.1 Q7.6 -11.25 13.8 -13.05 18.35 -14.4 21.85 -17.55 L24.3 -19.9 Q24.7 -20.3 25.15 -20.35 M14.15 -0.15 Q13.3 -3.6 16.7 -4.35 18.65 -4.75 20.15 -3.55 L23.55 -3.8 28.5 -5.3 32.1 -6.5 Q34.9 -5.7 33.65 -3.1 33.1 -2.0 31.85 -1.7 25.9 -0.1 19.9 1.1 17.1 1.65 14.75 0.6 14.25 0.35 14.15 -0.15" fill="#666666" fill-rule="evenodd" stroke="none"/>
  </g>
</svg>
