<?xml version="1.0" encoding="UTF-8" standalone="no"?>
<svg xmlns:ffdec="https://www.free-decompiler.com/flash" xmlns:xlink="http://www.w3.org/1999/xlink" ffdec:objectType="shape" height="17.9px" width="84.55px" xmlns="http://www.w3.org/2000/svg">
  <g transform="matrix(1.0, 0.0, 0.0, 1.0, 42.4, 12.6)">
    <path d="M13.2 -9.3 L30.1 -9.2 Q31.75 -9.2 31.95 -7.6 32.15 -5.6 30.1 -5.6 15.0 -5.3 -0.1 -5.15 L-0.9 -5.0 -2.15 -4.75 Q-2.7 -4.35 -3.4 -4.2 L-7.65 -3.05 2.25 -1.65 2.8 -1.3 Q4.35 1.5 1.2 3.15 L-0.55 4.25 Q-2.85 6.05 -5.15 4.8 -6.05 4.35 -5.9 3.3 -5.75 2.25 -4.85 1.6 -11.35 0.65 -17.4 -1.6 L-18.0 -2.15 Q-18.9 -4.5 -16.3 -5.5 L-15.7 -5.65 -9.4 -6.9 Q-15.0 -8.4 -20.6 -8.1 L-21.25 -7.9 -29.6 -3.4 Q-30.8 -2.75 -32.05 -2.3 -35.65 -0.85 -39.1 -3.0 L-40.2 -3.4 Q-43.25 -4.1 -42.1 -6.7 -41.85 -7.3 -41.15 -7.4 -38.75 -7.75 -36.5 -6.5 -34.2 -5.2 -31.75 -6.7 -26.45 -10.05 -21.0 -12.6 -14.3 -12.55 -7.85 -10.85 L-4.6 -9.85 -3.8 -10.05 -0.9 -10.5 12.1 -9.8 13.2 -9.3 M19.25 -0.55 Q17.8 -3.25 20.75 -4.4 L21.1 -4.5 Q23.25 -4.95 24.85 -3.65 L25.0 -3.45 40.55 -3.15 Q41.45 -3.1 41.95 -2.3 L42.0 -2.15 Q42.65 -0.05 40.5 0.1 30.9 0.65 21.25 0.6 20.1 0.6 19.4 -0.35 L19.25 -0.55" fill="#666666" fill-rule="evenodd" stroke="none"/>
  </g>
</svg>
