<?xml version="1.0" encoding="UTF-8" standalone="no"?>
<svg xmlns:ffdec="https://www.free-decompiler.com/flash" xmlns:xlink="http://www.w3.org/1999/xlink" ffdec:objectType="shape" height="10.65px" width="41.9px" xmlns="http://www.w3.org/2000/svg">
  <g transform="matrix(1.0, 0.0, 0.0, 1.0, 41.1, 11.55)">
    <path d="M0.3 -8.3 Q-1.0 -7.05 -2.95 -6.9 L-13.15 -6.45 -20.1 -6.2 -21.25 -5.9 Q-22.25 -5.35 -23.4 -5.0 L-28.5 -2.75 -31.9 -1.3 Q-34.6 -0.3 -36.9 -1.9 L-37.7 -2.3 Q-40.6 -3.2 -41.05 -5.9 -41.2 -6.7 -40.45 -7.15 -38.55 -8.3 -36.9 -6.6 -36.5 -6.25 -36.0 -6.1 -34.8 -5.85 -33.8 -5.15 -27.6 -7.45 -21.55 -10.25 L-20.75 -10.4 -3.0 -11.4 Q-0.55 -12.05 0.55 -10.1 1.15 -9.1 0.3 -8.3" fill="#666666" fill-rule="evenodd" stroke="none"/>
  </g>
</svg>
