<?xml version="1.0" encoding="UTF-8" standalone="no"?>
<svg xmlns:ffdec="https://www.free-decompiler.com/flash" xmlns:xlink="http://www.w3.org/1999/xlink" ffdec:objectType="shape" height="15.8px" width="60.4px" xmlns="http://www.w3.org/2000/svg">
  <g transform="matrix(1.0, 0.0, 0.0, 1.0, 14.55, 12.1)">
    <path d="M6.5 -2.9 Q8.05 -0.1 4.9 1.55 4.0 2.0 3.15 2.65 0.85 4.45 -1.45 3.2 -2.35 2.75 -2.2 1.7 -2.05 0.65 -1.15 0.0 -7.65 -0.95 -13.7 -3.2 -14.1 -3.35 -14.3 -3.75 -15.2 -6.1 -12.6 -7.1 L-12.0 -7.25 -8.65 -7.85 Q-7.65 -7.3 -6.35 -7.85 L-3.85 -9.0 Q-1.8 -10.05 -1.7 -11.75 L-0.9 -11.45 -0.1 -11.65 2.8 -12.1 15.8 -11.4 16.9 -10.9 33.8 -10.8 Q35.45 -10.8 35.65 -9.2 35.85 -7.2 33.8 -7.2 18.7 -6.9 3.6 -6.75 L2.8 -6.6 1.55 -6.35 Q1.0 -5.95 0.3 -5.8 L-3.95 -4.65 5.95 -3.25 6.5 -2.9 M24.45 -6.0 L24.8 -6.1 Q26.95 -6.55 28.55 -5.25 L28.7 -5.05 44.25 -4.75 Q45.15 -4.7 45.65 -3.9 L45.7 -3.75 Q46.35 -1.65 44.2 -1.5 34.6 -0.95 24.95 -1.0 23.8 -1.0 23.1 -1.95 L22.95 -2.15 Q21.5 -4.85 24.45 -6.0" fill="#666666" fill-rule="evenodd" stroke="none"/>
  </g>
</svg>
