<?xml version="1.0" encoding="UTF-8" standalone="no"?>
<svg xmlns:ffdec="https://www.free-decompiler.com/flash" xmlns:xlink="http://www.w3.org/1999/xlink" ffdec:objectType="shape" height="17.9px" width="84.55px" xmlns="http://www.w3.org/2000/svg">
  <g transform="matrix(1.0, 0.0, 0.0, 1.0, 34.95, 11.9)">
    <path d="M6.55 -9.8 L19.55 -9.1 20.65 -8.6 37.55 -8.5 Q39.2 -8.5 39.4 -6.9 39.6 -4.9 37.55 -4.9 22.45 -4.6 7.35 -4.45 L6.55 -4.3 5.3 -4.05 4.05 -3.5 -0.2 -2.35 9.7 -0.95 10.25 -0.6 Q11.8 2.2 8.65 3.85 L6.9 4.95 Q4.6 6.75 2.3 5.5 1.4 5.05 1.55 4.0 1.7 2.95 2.6 2.3 -3.9 1.35 -9.95 -0.9 L-10.55 -1.45 Q-11.45 -3.8 -8.85 -4.8 L-8.25 -4.95 -1.95 -6.2 Q-7.55 -7.7 -13.15 -7.4 L-13.8 -7.2 -22.15 -2.7 -24.6 -1.6 Q-28.2 -0.15 -31.65 -2.3 L-32.75 -2.7 Q-35.8 -3.4 -34.65 -6.0 -34.4 -6.6 -33.7 -6.7 -31.3 -7.05 -29.05 -5.8 -26.75 -4.5 -24.3 -6.0 -19.0 -9.35 -13.55 -11.9 -6.85 -11.85 -0.4 -10.15 L2.85 -9.15 3.65 -9.35 6.55 -9.8 M28.55 -3.8 Q30.7 -4.25 32.3 -2.95 L32.45 -2.75 48.0 -2.45 Q48.9 -2.4 49.4 -1.6 L49.45 -1.45 Q50.1 0.65 47.95 0.8 L32.25 1.3 32.1 1.4 Q30.75 2.5 28.9 2.3 L28.25 2.3 Q24.7 3.0 22.3 0.7 21.85 0.3 21.85 -0.35 21.8 -2.55 23.95 -2.9 L27.0 -3.0 Q27.45 -3.4 28.2 -3.7 L28.55 -3.8" fill="#666666" fill-rule="evenodd" stroke="none"/>
  </g>
</svg>
