<?xml version="1.0" encoding="UTF-8" standalone="no"?>
<svg xmlns:ffdec="https://www.free-decompiler.com/flash" xmlns:xlink="http://www.w3.org/1999/xlink" ffdec:objectType="shape" height="19.7px" width="84.0px" xmlns="http://www.w3.org/2000/svg">
  <g transform="matrix(1.0, 0.0, 0.0, 1.0, 34.25, 14.2)">
    <path d="M8.15 -9.25 L20.6 -9.45 31.3 -10.25 31.95 -10.4 35.8 -11.7 Q38.65 -11.35 37.7 -8.85 37.4 -8.0 36.55 -7.6 32.45 -5.75 27.95 -5.6 L21.7 -5.45 21.1 -5.4 20.45 -5.4 20.0 -4.95 Q17.8 -2.95 15.25 -1.25 14.9 1.25 12.3 0.85 L10.4 0.5 Q7.5 -0.2 8.7 -2.7 9.05 -3.45 9.9 -3.55 L11.35 -3.75 13.9 -5.4 8.6 -5.5 6.25 -5.35 -1.05 -3.2 3.9 -1.85 Q6.7 -1.05 9.1 0.25 9.6 0.5 9.6 1.1 L9.35 2.35 9.2 2.7 Q8.85 3.5 8.0 3.85 4.6 5.15 1.05 5.5 0.35 5.6 -0.05 5.0 -1.5 2.8 1.15 1.8 L-6.5 -0.25 Q-8.3 -0.7 -9.8 -1.7 L-10.55 -1.95 Q-11.15 -2.2 -11.25 -2.85 -11.65 -5.55 -8.65 -5.75 L-4.9 -6.45 -1.6 -7.45 -6.55 -8.75 -10.2 -10.05 -10.6 -9.75 Q-14.85 -7.35 -18.9 -4.65 -20.8 -3.4 -22.8 -2.45 -23.05 -1.35 -24.7 -1.2 L-28.75 -1.4 Q-30.95 -1.9 -33.05 -2.7 -34.55 -3.25 -34.2 -4.75 -33.85 -6.3 -32.3 -6.4 L-25.85 -5.0 -25.8 -5.1 -24.05 -6.5 -12.9 -13.5 Q-11.95 -14.1 -11.0 -14.2 L-10.85 -14.15 -10.6 -14.2 2.0 -10.55 Q4.05 -9.9 6.25 -9.75 L8.15 -9.25 M28.7 -3.85 Q30.85 -4.3 32.45 -3.0 L32.6 -2.8 48.15 -2.5 Q49.05 -2.45 49.55 -1.65 L49.6 -1.5 Q50.25 0.6 48.1 0.75 L32.4 1.25 32.25 1.35 Q30.9 2.45 29.05 2.25 L28.4 2.25 Q24.85 2.95 22.45 0.65 22.0 0.25 22.0 -0.4 21.95 -2.6 24.1 -2.95 L27.15 -3.05 Q27.6 -3.45 28.35 -3.75 L28.7 -3.85" fill="#666666" fill-rule="evenodd" stroke="none"/>
  </g>
</svg>
