<?xml version="1.0" encoding="UTF-8" standalone="no"?>
<svg xmlns:ffdec="https://www.free-decompiler.com/flash" xmlns:xlink="http://www.w3.org/1999/xlink" ffdec:objectType="shape" height="25.85px" width="77.0px" xmlns="http://www.w3.org/2000/svg">
  <g transform="matrix(1.0, 0.0, 0.0, 1.0, 33.45, 19.3)">
    <path d="M6.0 -11.0 L6.45 -10.85 9.95 -11.35 15.65 -12.3 Q19.85 -13.2 23.8 -14.85 28.25 -16.7 32.25 -19.2 L32.55 -19.3 Q35.45 -18.5 34.05 -15.95 L32.95 -14.8 Q27.4 -11.05 20.9 -9.3 L18.5 -8.7 18.35 -8.2 Q17.65 -5.9 16.2 -4.0 15.05 -2.5 14.45 -0.75 14.2 0.0 13.5 0.45 L9.95 0.6 Q7.95 -0.5 9.25 -2.35 9.75 -3.1 10.7 -3.2 12.35 -5.3 13.35 -7.6 L7.75 -6.7 6.15 -6.5 Q2.45 -4.6 -1.6 -3.4 4.1 -2.05 9.3 0.25 L9.8 0.8 Q10.6 3.05 8.2 4.0 L6.15 4.65 Q2.95 6.8 -0.75 6.5 -1.3 6.45 -1.55 5.95 -2.75 3.75 -0.3 2.75 L2.1 2.05 Q-4.7 -0.15 -11.7 -1.5 L-12.15 -1.9 Q-13.45 -4.45 -10.6 -5.15 -5.0 -6.5 0.3 -8.6 L-2.75 -9.6 Q-6.85 -10.85 -10.75 -12.55 -13.65 -9.85 -15.9 -6.6 L-16.55 -5.75 Q-19.4 -2.45 -23.4 -0.7 L-24.8 -0.5 -30.15 -1.2 -32.1 -1.75 Q-34.0 -2.65 -33.2 -4.45 -32.6 -5.9 -31.05 -5.6 L-24.3 -4.9 Q-20.3 -7.25 -17.6 -10.9 -15.3 -14.0 -12.6 -16.7 -12.15 -17.2 -11.55 -17.25 L-5.2 -15.0 Q-1.5 -13.45 2.3 -12.5 4.2 -12.0 5.75 -10.95 L6.0 -11.0 M37.35 -5.6 Q39.15 -6.4 40.75 -7.45 L41.65 -7.8 Q44.5 -6.95 43.1 -4.4 L42.0 -3.4 30.2 2.4 Q26.7 4.1 22.9 5.1 L21.05 5.0 Q19.5 4.35 18.7 3.05 18.15 2.15 18.8 1.35 20.15 -0.3 22.4 0.3 23.9 0.65 25.35 -0.05 L37.35 -5.6" fill="#666666" fill-rule="evenodd" stroke="none"/>
  </g>
</svg>
