<?xml version="1.0" encoding="UTF-8" standalone="no"?>
<svg xmlns:ffdec="https://www.free-decompiler.com/flash" xmlns:xlink="http://www.w3.org/1999/xlink" ffdec:objectType="shape" height="31.75px" width="64.8px" xmlns="http://www.w3.org/2000/svg">
  <g transform="matrix(1.0, 0.0, 0.0, 1.0, 31.85, 26.0)">
    <path d="M25.4 -26.0 Q28.45 -25.0 26.85 -22.1 L26.1 -21.0 Q23.1 -17.4 18.95 -15.05 L15.9 -13.5 15.65 -12.35 Q14.8 -9.9 14.25 -7.35 L13.2 -3.75 12.65 -2.55 Q13.4 -0.15 10.9 0.45 8.8 0.95 7.4 -0.4 6.25 -1.55 7.35 -2.75 L8.7 -4.5 Q9.35 -5.5 9.6 -6.65 L9.75 -7.05 Q10.15 -9.35 10.9 -11.5 L6.4 -10.35 2.3 -9.7 2.1 -9.6 Q-2.15 -7.45 -6.6 -5.95 L-6.8 -5.75 Q-5.85 -4.95 -4.1 -4.5 1.1 -3.1 6.05 -0.95 8.2 -0.05 7.5 2.1 7.15 3.25 5.95 3.7 L4.95 4.1 Q2.3 5.35 -0.5 5.75 -1.2 5.8 -1.6 5.25 -3.05 3.1 -0.7 1.8 L0.55 1.2 Q-6.55 -1.0 -13.55 -3.5 -14.05 -3.7 -14.2 -4.2 -15.0 -6.9 -12.1 -7.85 -11.45 -8.05 -10.85 -8.35 L-6.05 -10.6 -12.8 -11.65 -13.4 -11.75 -17.4 -12.75 Q-18.8 -10.55 -19.45 -8.1 -20.35 -4.95 -21.85 -2.0 -21.9 -1.15 -22.6 -0.8 -23.3 -0.15 -24.2 -0.5 -27.25 -0.3 -30.35 -0.55 -31.75 -0.65 -31.85 -2.0 -32.05 -4.05 -30.0 -4.3 L-25.3 -4.2 -24.05 -7.8 -23.1 -10.3 -20.95 -15.75 Q-20.35 -17.15 -18.85 -17.25 -12.4 -15.75 -5.8 -15.0 -2.35 -14.6 0.9 -13.6 L1.4 -13.8 2.25 -13.6 8.45 -15.35 Q15.05 -16.95 20.3 -21.2 22.65 -23.15 24.45 -25.55 L25.05 -25.95 25.4 -26.0 M32.35 -9.1 Q29.4 -4.15 25.45 0.05 24.25 1.35 23.2 2.8 21.8 4.6 19.45 4.05 16.5 3.35 17.95 0.9 18.3 0.25 19.05 0.1 L20.1 -0.05 Q24.55 -5.15 28.25 -10.7 L29.85 -12.4 30.95 -12.85 Q34.0 -11.85 32.35 -9.1" fill="#666666" fill-rule="evenodd" stroke="none"/>
  </g>
</svg>
