<?xml version="1.0" encoding="UTF-8" standalone="no"?>
<svg xmlns:ffdec="https://www.free-decompiler.com/flash" xmlns:xlink="http://www.w3.org/1999/xlink" ffdec:objectType="shape" height="27.75px" width="51.95px" xmlns="http://www.w3.org/2000/svg">
  <g transform="matrix(1.0, 0.0, 0.0, 1.0, 14.3, 58.7)">
    <path d="M-10.1 -53.7 Q-7.4 -52.8 -8.55 -49.95 -11.15 -43.55 -10.15 -36.75 -6.45 -35.5 -8.15 -32.25 -8.5 -31.6 -9.2 -31.35 -13.0 -30.0 -13.7 -33.45 -15.2 -41.0 -13.1 -48.4 -12.85 -49.15 -12.85 -49.95 -12.8 -53.05 -10.1 -53.7 M14.4 -53.8 Q14.5 -54.55 15.3 -54.7 L24.55 -55.05 Q28.65 -54.75 31.9 -56.25 L31.95 -56.45 Q32.9 -59.05 35.9 -58.65 37.0 -58.6 37.4 -57.5 38.4 -54.75 35.75 -53.65 26.8 -49.95 16.65 -51.2 14.15 -51.55 14.4 -53.8" fill="#666666" fill-rule="evenodd" stroke="none"/>
  </g>
</svg>
