<?xml version="1.0" encoding="UTF-8" standalone="no"?>
<svg xmlns:ffdec="https://www.free-decompiler.com/flash" xmlns:xlink="http://www.w3.org/1999/xlink" ffdec:objectType="shape" height="66.85px" width="48.75px" xmlns="http://www.w3.org/2000/svg">
  <g transform="matrix(1.0, 0.0, 0.0, 1.0, 16.15, 71.25)">
    <path d="M0.05 -50.4 Q1.15 -59.1 4.05 -67.4 5.0 -70.1 7.35 -71.25 7.9 -71.25 8.25 -70.75 10.05 -68.15 7.7 -65.4 L7.6 -64.45 Q6.0 -60.1 4.75 -55.75 L4.7 -54.85 4.25 -51.75 Q3.4 -44.7 2.0 -37.85 2.25 -37.35 2.15 -36.5 L1.95 -33.4 1.9 -32.65 Q7.9 -28.45 14.65 -25.45 16.75 -24.55 16.25 -22.9 17.45 -19.35 19.0 -15.8 20.4 -12.55 21.35 -9.05 L21.6 -9.15 21.7 -9.2 Q25.9 -11.6 30.75 -12.05 32.5 -11.95 32.6 -10.15 L32.3 -9.5 Q29.15 -7.7 25.55 -6.7 24.35 -6.4 23.45 -5.65 21.95 -4.5 20.25 -4.5 L19.05 -4.65 Q18.5 -4.95 18.45 -5.55 17.5 -7.3 16.9 -9.15 L13.0 -20.65 Q12.65 -21.5 12.7 -22.1 10.3 -22.95 8.1 -24.25 5.5 -25.8 3.1 -27.45 L3.6 -25.2 Q4.95 -21.7 5.9 -18.0 6.3 -16.6 5.65 -15.8 5.2 -15.35 4.45 -15.15 L4.0 -15.05 3.8 -15.0 -0.6 -14.7 -11.8 -13.7 -11.85 -13.7 -11.0 -8.1 Q-10.85 -7.2 -11.4 -6.5 -12.75 -4.75 -14.15 -6.35 -14.85 -7.15 -15.0 -8.15 L-15.9 -12.3 Q-16.65 -14.95 -15.0 -16.35 -14.85 -17.05 -14.15 -17.2 -6.4 -18.55 1.65 -18.5 L0.25 -22.75 -0.15 -23.65 -0.9 -27.6 -1.25 -28.05 -2.1 -29.25 Q-3.25 -31.45 -2.25 -32.65 L-2.35 -33.2 Q-2.5 -35.05 -1.9 -36.35 -0.8 -43.35 0.05 -50.4" fill="#666666" fill-rule="evenodd" stroke="none"/>
  </g>
</svg>
