<?xml version="1.0" encoding="UTF-8" standalone="no"?>
<svg xmlns:ffdec="https://www.free-decompiler.com/flash" xmlns:xlink="http://www.w3.org/1999/xlink" ffdec:objectType="shape" height="72.55px" width="33.75px" xmlns="http://www.w3.org/2000/svg">
  <g transform="matrix(1.0, 0.0, 0.0, 1.0, 8.25, 70.95)">
    <path d="M20.4 -42.0 Q20.7 -42.8 21.6 -43.0 25.25 -44.0 25.5 -40.5 25.5 -39.55 25.0 -38.9 23.3 -36.5 20.05 -38.05 13.95 -41.0 9.1 -45.55 L7.55 -47.3 7.3 -47.6 8.4 -47.8 Q9.9 -48.3 10.35 -49.25 15.1 -45.3 20.4 -42.0 M0.05 -50.1 Q1.15 -58.8 4.05 -67.1 5.0 -69.8 7.35 -70.95 7.9 -70.95 8.25 -70.45 10.05 -67.85 7.7 -65.1 L7.6 -64.15 Q6.0 -59.8 4.75 -55.45 L4.7 -54.55 4.25 -51.45 2.9 -42.4 Q4.9 -38.45 7.5 -35.05 9.6 -36.2 10.95 -34.45 12.45 -32.45 10.65 -30.8 8.2 -28.6 6.0 -30.95 3.85 -33.25 2.1 -35.9 L1.95 -33.5 2.5 -32.45 Q5.05 -29.6 8.05 -27.15 L11.5 -24.0 Q14.4 -21.05 10.75 -19.25 L10.3 -18.95 10.3 -18.5 Q9.8 -10.25 9.7 -1.95 L15.4 -2.15 15.9 -2.05 Q16.95 -1.75 17.1 -0.7 17.35 -0.1 17.0 0.45 L16.3 1.05 15.8 1.3 Q15.2 1.55 14.75 1.3 L7.95 1.55 Q7.0 1.5 6.6 1.1 L6.45 0.9 6.4 0.85 6.2 -0.05 Q5.85 -2.1 5.9 -4.3 L6.3 -12.4 Q6.45 -14.6 6.15 -16.8 1.4 -14.6 -3.35 -12.7 L-3.05 -12.05 -2.95 -11.6 -2.45 -11.15 Q-1.2 -9.8 -0.25 -8.2 1.2 -5.85 -1.3 -4.85 -2.6 -4.3 -3.3 -5.45 L-8.0 -13.05 Q-8.7 -14.3 -7.35 -14.95 -2.45 -17.4 2.85 -19.35 4.1 -19.85 5.2 -20.4 L4.9 -21.05 Q1.3 -25.6 -1.35 -30.6 L-1.6 -31.05 -2.6 -30.35 Q-2.9 -31.55 -2.25 -32.35 L-2.35 -32.9 Q-2.5 -34.75 -1.9 -36.05 L-1.05 -41.7 -1.3 -42.35 -3.15 -45.65 Q-5.55 -48.95 -2.05 -50.15 -0.75 -50.0 -0.1 -48.7 L0.05 -50.1" fill="#666666" fill-rule="evenodd" stroke="none"/>
  </g>
</svg>
