<?xml version="1.0" encoding="UTF-8" standalone="no"?>
<svg xmlns:ffdec="https://www.free-decompiler.com/flash" xmlns:xlink="http://www.w3.org/1999/xlink" ffdec:objectType="shape" height="74.2px" width="35.2px" xmlns="http://www.w3.org/2000/svg">
  <g transform="matrix(1.0, 0.0, 0.0, 1.0, 10.7, 72.45)">
    <path d="M7.95 -72.45 L8.35 -72.3 Q10.9 -70.7 9.25 -67.95 L9.15 -67.3 Q7.95 -62.25 6.2 -57.4 L6.1 -56.8 4.2 -51.85 4.3 -51.9 17.65 -47.75 Q19.7 -50.05 22.7 -48.6 24.45 -47.75 24.5 -45.9 24.5 -44.35 23.1 -43.75 21.2 -42.85 19.05 -43.45 12.05 -45.3 5.05 -47.55 9.1 -44.7 13.75 -42.75 L14.9 -43.25 Q18.1 -44.05 18.75 -41.2 19.05 -39.65 18.2 -38.5 17.25 -37.4 15.85 -37.95 8.6 -40.55 2.3 -44.95 1.55 -40.3 1.75 -35.45 L1.75 -35.15 2.0 -34.55 2.05 -34.2 Q7.35 -33.3 12.75 -31.85 L15.0 -31.55 Q16.8 -30.95 16.3 -28.7 16.1 -27.7 15.5 -26.8 L8.0 -16.15 7.65 -15.3 9.15 -14.5 10.2 -14.05 Q13.75 -13.3 13.5 -10.3 13.4 -9.6 12.7 -9.45 10.55 -9.05 8.5 -10.3 L6.2 -11.6 Q4.75 -12.25 3.75 -13.45 3.3 -13.8 2.95 -14.4 2.6 -14.85 2.9 -15.3 2.9 -15.9 3.6 -16.3 7.8 -21.95 11.15 -28.2 L11.15 -28.25 2.25 -30.2 2.4 -22.0 Q2.45 -19.75 2.95 -17.65 3.45 -15.4 1.8 -14.0 0.0 -11.3 -2.25 -8.75 -2.95 -6.3 -4.55 -4.05 L-5.8 -1.95 -1.65 -2.1 Q-0.6 -2.05 -0.15 -1.0 0.65 0.8 -1.25 1.25 -5.15 2.15 -8.95 1.35 L-9.3 1.35 Q-9.95 1.3 -10.15 0.95 -10.8 0.45 -10.65 -0.55 L-10.3 -1.35 Q-10.0 -3.8 -8.05 -5.9 -6.55 -8.2 -5.3 -10.65 L-4.7 -11.95 Q-3.25 -14.6 -1.0 -16.15 -1.45 -17.35 -1.3 -18.9 -0.95 -23.1 -1.25 -27.25 L-1.75 -31.55 Q-1.95 -32.9 -1.55 -33.85 L-1.65 -34.2 Q-2.5 -41.25 -0.95 -48.05 -1.8 -49.4 -0.4 -50.05 L0.2 -51.9 Q3.2 -59.9 5.45 -68.05 L5.5 -68.25 Q5.55 -71.3 7.95 -72.45" fill="#666666" fill-rule="evenodd" stroke="none"/>
  </g>
</svg>
