<?xml version="1.0" encoding="UTF-8" standalone="no"?>
<svg xmlns:ffdec="https://www.free-decompiler.com/flash" xmlns:xlink="http://www.w3.org/1999/xlink" ffdec:objectType="shape" height="70.7px" width="53.5px" xmlns="http://www.w3.org/2000/svg">
  <g transform="matrix(1.0, 0.0, 0.0, 1.0, 21.1, 73.35)">
    <path d="M16.35 -50.5 L10.65 -49.95 10.6 -52.1 10.25 -53.5 Q18.35 -54.05 25.9 -56.35 25.75 -57.3 26.3 -58.1 27.7 -60.0 30.4 -59.25 31.9 -59.1 32.3 -57.55 32.8 -55.05 30.5 -54.0 23.7 -50.95 16.35 -50.5 M5.45 -68.95 L5.5 -69.15 Q5.55 -72.2 7.95 -73.35 L8.35 -73.2 Q10.9 -71.6 9.25 -68.85 L9.15 -68.2 Q7.95 -63.15 6.2 -58.3 L6.1 -57.7 5.55 -56.3 3.55 -56.6 Q1.65 -51.55 2.15 -45.85 L2.35 -39.25 2.1 -38.0 2.15 -37.2 2.05 -35.9 2.5 -35.8 Q8.55 -34.35 14.95 -33.8 15.85 -33.75 16.2 -32.95 16.55 -32.15 16.25 -31.55 L19.0 -18.9 18.9 -18.85 19.3 -15.4 26.55 -18.8 Q27.3 -18.8 27.8 -18.15 29.25 -16.15 26.95 -14.9 23.15 -12.75 19.0 -11.2 15.85 -10.05 15.25 -12.95 15.15 -13.4 15.5 -13.55 L15.65 -13.6 Q15.3 -14.9 15.1 -16.2 L15.05 -17.75 14.95 -18.8 14.8 -20.4 Q14.0 -24.3 13.35 -28.25 L12.85 -29.65 12.6 -30.2 11.55 -30.3 6.25 -31.3 2.0 -31.7 1.85 -31.7 Q1.6 -25.6 2.0 -19.4 2.15 -17.3 0.7 -16.7 -0.25 -15.9 -1.4 -15.35 L-15.4 -9.1 -12.45 -6.85 Q-10.45 -5.25 -11.8 -3.3 -12.55 -2.25 -13.65 -2.9 L-17.55 -5.6 -20.0 -7.95 Q-20.7 -8.3 -21.0 -9.35 L-21.05 -9.45 -21.1 -9.85 Q-21.15 -10.8 -19.55 -11.3 -16.5 -13.1 -13.1 -14.45 -11.75 -15.0 -10.6 -15.65 -6.3 -18.0 -1.65 -19.5 -2.25 -24.9 -2.15 -30.5 L-2.15 -35.15 Q-2.15 -36.45 -1.65 -37.35 L-1.9 -37.35 -1.85 -42.75 -1.55 -42.7 Q-2.2 -51.0 0.05 -58.85 1.0 -62.15 3.75 -63.65 L3.9 -63.6 5.45 -68.95 M17.35 -43.65 L18.05 -43.55 18.4 -43.1 17.35 -43.65 M-8.35 -54.85 L-7.75 -54.5 Q-5.25 -52.45 -7.55 -49.85 -7.65 -49.2 -7.9 -48.65 -10.5 -42.9 -9.95 -36.45 -8.35 -36.1 -8.15 -34.55 -8.05 -33.35 -8.7 -32.5 -10.55 -30.25 -12.6 -32.15 -13.25 -32.75 -13.35 -33.55 -14.75 -42.7 -11.65 -50.95 -10.7 -53.65 -8.35 -54.85" fill="#666666" fill-rule="evenodd" stroke="none"/>
  </g>
</svg>
