<?xml version="1.0" encoding="UTF-8" standalone="no"?>
<svg xmlns:ffdec="https://www.free-decompiler.com/flash" xmlns:xlink="http://www.w3.org/1999/xlink" ffdec:objectType="shape" height="70.7px" width="52.25px" xmlns="http://www.w3.org/2000/svg">
  <g transform="matrix(1.0, 0.0, 0.0, 1.0, 31.75, 73.35)">
    <path d="M7.45 -54.5 L8.0 -54.85 Q10.3 -53.65 11.25 -50.95 14.25 -42.7 12.9 -33.55 12.8 -32.75 12.15 -32.15 10.15 -30.25 8.35 -32.5 7.7 -33.35 7.8 -34.55 8.0 -36.1 9.6 -36.45 10.1 -42.9 7.6 -48.65 7.35 -49.2 7.25 -49.85 5.0 -52.45 7.45 -54.5 M1.7 -42.75 L1.7 -37.35 1.5 -37.35 Q1.95 -36.45 1.95 -35.15 L1.95 -30.5 Q2.05 -24.9 1.5 -19.5 6.05 -18.0 10.2 -15.65 11.35 -15.0 12.65 -14.45 15.95 -13.1 18.95 -11.3 20.5 -10.8 20.5 -9.85 L20.4 -9.45 20.4 -9.35 Q20.05 -8.3 19.4 -7.95 L17.0 -5.6 13.2 -2.9 Q12.1 -2.25 11.4 -3.3 10.05 -5.25 12.0 -6.85 L14.9 -9.1 Q8.05 -12.1 1.25 -15.35 L-0.8 -16.7 Q-2.25 -17.3 -2.1 -19.4 -1.7 -25.6 -1.9 -31.7 L-2.1 -31.7 -6.25 -31.3 -11.4 -30.3 -12.45 -30.2 -12.7 -29.65 -13.15 -28.25 Q-13.8 -24.3 -14.6 -20.4 L-14.75 -18.8 -14.8 -17.75 -14.85 -16.2 -15.4 -13.6 -15.25 -13.55 Q-14.95 -13.4 -15.0 -12.95 -15.6 -10.05 -18.7 -11.2 -22.75 -12.75 -26.45 -14.9 -28.7 -16.15 -27.25 -18.15 -26.8 -18.8 -26.05 -18.8 L-18.95 -15.4 -18.6 -18.85 -18.65 -18.9 Q-17.5 -25.3 -15.95 -31.55 -16.3 -32.15 -15.95 -32.95 -15.6 -33.75 -14.75 -33.8 -8.5 -34.35 -2.55 -35.8 L-2.15 -35.9 -2.25 -37.2 -2.2 -38.0 -2.45 -39.25 -2.25 -45.85 Q-1.8 -51.55 -3.6 -56.6 L-5.55 -56.3 -6.1 -57.7 -6.2 -58.3 Q-7.9 -63.15 -9.05 -68.2 L-9.15 -68.85 Q-10.8 -71.6 -8.3 -73.2 L-7.9 -73.35 Q-5.55 -72.2 -5.5 -69.15 L-5.45 -68.95 -3.95 -63.6 -3.8 -63.65 Q-1.1 -62.15 -0.2 -58.85 2.0 -51.0 1.4 -42.7 L1.7 -42.75 M-25.8 -58.1 Q-25.3 -57.3 -25.4 -56.35 -18.05 -54.05 -10.15 -53.5 L-10.5 -52.1 -10.55 -49.95 -16.1 -50.5 Q-23.3 -50.95 -29.9 -54.0 -32.15 -55.05 -31.65 -57.55 -31.3 -59.1 -29.8 -59.25 -27.2 -60.0 -25.8 -58.1 M-18.1 -43.1 L-17.75 -43.55 -17.05 -43.65 -18.1 -43.1" fill="#666666" fill-rule="evenodd" stroke="none"/>
  </g>
</svg>
