<?xml version="1.0" encoding="UTF-8" standalone="no"?>
<svg xmlns:ffdec="https://www.free-decompiler.com/flash" xmlns:xlink="http://www.w3.org/1999/xlink" ffdec:objectType="shape" height="59.95px" width="54.7px" xmlns="http://www.w3.org/2000/svg">
  <g transform="matrix(1.0, 0.0, 0.0, 1.0, 32.55, 72.15)">
    <path d="M2.9 -33.05 L2.65 -18.9 11.85 -20.7 Q15.75 -21.35 19.35 -22.35 L19.7 -22.3 19.95 -22.35 20.4 -22.1 Q21.6 -21.7 21.6 -20.9 22.35 -19.65 22.05 -17.7 L21.55 -13.6 Q21.45 -12.1 19.95 -12.2 17.8 -12.4 17.9 -14.6 L18.1 -18.0 Q10.05 -16.2 1.9 -15.05 -1.3 -14.6 -0.55 -17.4 L-0.55 -17.45 Q-1.15 -23.8 -1.15 -30.25 L-1.15 -33.15 -13.65 -32.55 -13.7 -32.2 -14.55 -32.7 Q-14.35 -31.7 -15.05 -30.2 -16.75 -26.6 -17.15 -22.6 -17.15 -22.2 -17.4 -21.9 -17.8 -18.75 -18.75 -15.7 -19.15 -14.35 -20.5 -14.25 -21.8 -13.7 -23.15 -14.6 L-32.2 -19.7 Q-32.6 -19.9 -32.55 -20.35 -32.5 -22.15 -30.75 -22.35 -26.15 -21.15 -22.1 -18.65 L-21.35 -22.2 -19.8 -28.75 Q-19.35 -30.8 -18.5 -32.7 -18.5 -33.75 -17.85 -34.2 L-17.8 -34.35 Q-17.95 -35.2 -17.15 -35.6 -16.7 -36.1 -16.1 -36.1 L-15.85 -36.05 -15.8 -36.05 -14.95 -36.1 -1.65 -36.85 Q-3.35 -44.65 -4.3 -52.65 L-4.7 -55.75 -4.75 -56.65 Q-6.0 -61.0 -7.55 -65.35 L-7.65 -66.3 Q-9.95 -69.05 -8.2 -71.65 -7.85 -72.15 -7.3 -72.15 -5.05 -71.0 -4.1 -68.3 -1.25 -60.0 -0.2 -51.3 0.7 -43.65 1.9 -36.1 2.95 -35.05 2.9 -33.05" fill="#666666" fill-rule="evenodd" stroke="none"/>
  </g>
</svg>
