<?xml version="1.0" encoding="UTF-8" standalone="no"?>
<svg xmlns:ffdec="https://www.free-decompiler.com/flash" xmlns:xlink="http://www.w3.org/1999/xlink" ffdec:objectType="shape" height="14.05px" width="25.0px" xmlns="http://www.w3.org/2000/svg">
  <g transform="matrix(1.0, 0.0, 0.0, 1.0, 34.85, 59.3)">
    <path d="M-30.85 -59.05 Q-28.55 -58.85 -27.5 -57.65 L-18.6 -59.05 Q-15.45 -60.0 -14.55 -57.55 L-14.45 -57.25 -15.45 -56.05 -11.4 -57.35 Q-8.25 -55.6 -11.45 -53.7 -15.05 -51.5 -19.0 -50.9 -20.35 -50.2 -21.85 -49.85 -22.9 -48.95 -23.95 -48.75 L-24.0 -48.15 Q-24.05 -47.0 -24.5 -45.95 -25.05 -45.4 -25.75 -45.3 -27.2 -45.1 -28.1 -46.15 L-28.2 -46.45 Q-28.35 -47.4 -27.75 -48.1 -27.5 -48.35 -27.35 -48.7 L-27.6 -49.0 -27.85 -49.3 -28.1 -49.65 -30.05 -49.25 Q-31.4 -48.9 -32.3 -49.95 -32.7 -51.05 -31.8 -51.75 L-30.75 -52.45 -30.6 -52.9 Q-30.1 -54.0 -30.0 -55.1 -31.75 -54.3 -34.1 -54.65 -34.5 -54.7 -34.85 -55.0 -34.8 -57.8 -31.6 -58.8 L-30.85 -59.05 M-23.95 -53.05 Q-22.3 -53.4 -20.65 -54.1 L-18.0 -55.15 -19.05 -55.15 -20.7 -55.0 -26.65 -54.6 -26.9 -53.1 -26.9 -52.95 -25.55 -52.4 -23.95 -53.05" fill="#666666" fill-rule="evenodd" stroke="none"/>
  </g>
</svg>
