<?xml version="1.0" encoding="UTF-8" standalone="no"?>
<svg xmlns:ffdec="https://www.free-decompiler.com/flash" xmlns:xlink="http://www.w3.org/1999/xlink" ffdec:objectType="shape" height="12.7px" width="26.0px" xmlns="http://www.w3.org/2000/svg">
  <g transform="matrix(1.0, 0.0, 0.0, 1.0, 34.15, 59.25)">
    <path d="M-32.55 -57.7 L-32.55 -57.75 Q-29.85 -58.25 -28.6 -57.2 L-28.3 -57.25 -18.6 -59.05 Q-15.75 -59.85 -14.95 -57.55 L-14.9 -57.25 Q-15.65 -56.35 -16.65 -55.8 L-13.95 -56.3 Q-13.05 -57.1 -11.75 -57.2 L-11.0 -57.35 Q-8.75 -57.8 -8.2 -55.85 L-8.15 -55.55 Q-10.75 -53.05 -14.85 -52.3 L-20.35 -50.85 Q-23.05 -49.85 -25.75 -49.65 -26.0 -48.8 -26.6 -47.8 -27.2 -46.8 -28.3 -46.55 L-29.0 -46.85 -29.45 -47.1 -29.8 -47.4 -29.85 -47.75 -29.9 -48.05 -29.9 -48.7 -29.9 -49.0 -29.75 -49.3 -29.45 -49.65 -28.85 -50.25 -29.15 -50.6 -29.6 -50.65 Q-31.35 -49.65 -33.15 -51.2 L-33.15 -51.8 Q-32.75 -53.55 -31.15 -54.05 L-31.15 -54.2 Q-32.85 -54.3 -34.0 -55.45 L-34.1 -55.75 Q-34.25 -56.7 -33.55 -57.3 L-33.25 -57.55 -33.05 -57.6 -32.55 -57.7 M-27.6 -53.7 L-27.6 -53.6 -26.5 -52.9 -24.5 -53.6 -20.3 -54.6 -19.55 -54.9 -21.25 -54.85 -23.2 -54.5 Q-25.55 -53.6 -27.55 -54.05 L-27.6 -53.7" fill="#666666" fill-rule="evenodd" stroke="none"/>
  </g>
</svg>
