<?xml version="1.0" encoding="UTF-8" standalone="no"?>
<svg xmlns:ffdec="https://www.free-decompiler.com/flash" xmlns:xlink="http://www.w3.org/1999/xlink" ffdec:objectType="shape" height="17.5px" width="35.4px" xmlns="http://www.w3.org/2000/svg">
  <g transform="matrix(1.0, 0.0, 0.0, 1.0, 34.5, 60.3)">
    <path d="M0.4 -43.4 Q-1.0 -42.1 -2.35 -43.6 -2.2 -47.75 -4.0 -51.3 -4.2 -51.7 -4.0 -52.15 L-3.05 -53.0 -2.55 -53.1 Q2.05 -49.75 0.5 -43.7 L0.4 -43.4 M-32.95 -60.25 L-32.95 -60.3 Q-29.35 -60.5 -28.05 -58.7 L-23.65 -59.05 -15.35 -58.55 Q-14.7 -58.5 -14.6 -57.85 L-14.45 -57.25 Q-14.55 -56.8 -14.8 -56.5 L-11.85 -57.35 Q-9.6 -57.8 -9.0 -55.85 L-9.0 -55.55 Q-11.2 -53.15 -14.95 -52.5 -18.55 -51.85 -22.0 -50.4 -23.15 -49.9 -24.25 -49.85 L-24.3 -48.9 Q-24.7 -44.25 -28.5 -46.15 L-28.6 -46.45 Q-28.7 -47.85 -27.5 -48.75 L-27.35 -49.0 -27.4 -49.3 -27.45 -49.6 -27.7 -50.15 -32.4 -50.0 -33.15 -50.35 Q-33.55 -51.45 -32.7 -52.2 L-32.45 -52.4 -33.15 -52.9 Q-33.4 -53.55 -33.05 -54.1 -32.15 -55.4 -30.4 -55.95 L-30.65 -56.25 -30.95 -56.6 -32.95 -57.05 Q-33.85 -57.25 -34.45 -57.95 L-34.5 -58.3 -34.25 -59.5 -33.7 -60.1 -33.5 -60.15 -32.95 -60.25 M-26.55 -53.4 Q-25.65 -54.0 -24.0 -54.0 L-22.9 -54.2 -16.9 -55.9 -27.45 -55.15 -27.6 -54.45 -27.9 -53.6 -26.55 -53.4" fill="#666666" fill-rule="evenodd" stroke="none"/>
  </g>
</svg>
