<?xml version="1.0" encoding="UTF-8" standalone="no"?>
<svg xmlns:ffdec="https://www.free-decompiler.com/flash" xmlns:xlink="http://www.w3.org/1999/xlink" ffdec:objectType="shape" height="15.5px" width="23.85px" xmlns="http://www.w3.org/2000/svg">
  <g transform="matrix(1.0, 0.0, 0.0, 1.0, 34.95, 62.9)">
    <path d="M-32.85 -56.6 L-32.7 -56.9 Q-32.1 -57.65 -31.15 -57.85 L-31.0 -58.15 -30.45 -58.85 -30.3 -59.15 -33.05 -59.1 Q-34.15 -58.75 -34.85 -59.65 -35.15 -60.45 -34.6 -61.15 -33.6 -62.55 -32.1 -62.85 -27.55 -63.2 -27.3 -59.85 L-14.9 -59.4 Q-14.3 -59.35 -14.15 -58.7 L-14.05 -58.1 -14.2 -57.7 -13.95 -57.75 Q-11.7 -58.25 -11.15 -56.25 L-11.1 -55.95 Q-14.2 -53.2 -18.9 -52.55 -20.9 -52.3 -22.7 -51.55 -23.55 -50.6 -24.5 -50.35 -24.65 -48.7 -26.05 -47.9 -27.9 -46.75 -29.35 -48.25 L-29.45 -48.55 -29.45 -49.2 -29.45 -49.85 -29.3 -50.1 -28.6 -50.75 -28.0 -51.1 -32.4 -51.7 -33.15 -52.05 Q-33.35 -52.5 -33.15 -52.95 -32.75 -54.0 -31.85 -54.45 -32.3 -54.65 -32.75 -55.0 L-32.8 -55.35 -32.85 -55.95 -32.85 -56.6 M-27.95 -56.5 Q-28.35 -55.75 -29.05 -55.15 L-29.3 -54.95 Q-26.55 -55.2 -25.4 -53.8 -21.5 -55.8 -17.2 -56.95 L-27.9 -56.5 -27.95 -56.5" fill="#666666" fill-rule="evenodd" stroke="none"/>
  </g>
</svg>
