<?xml version="1.0" encoding="UTF-8" standalone="no"?>
<svg xmlns:ffdec="https://www.free-decompiler.com/flash" xmlns:xlink="http://www.w3.org/1999/xlink" ffdec:objectType="shape" height="63.25px" width="37.55px" xmlns="http://www.w3.org/2000/svg">
  <g transform="matrix(1.0, 0.0, 0.0, 1.0, -13.0, 60.65)">
    <path d="M19.4 -49.6 L19.5 -49.35 Q24.4 -47.75 29.9 -47.15 30.6 -47.05 30.65 -46.3 31.0 -43.65 27.85 -44.05 22.2 -44.75 16.8 -46.15 12.45 -47.25 13.1 -51.35 L13.85 -52.05 14.75 -52.35 Q17.95 -52.25 19.4 -49.6 M29.9 -53.4 Q33.1 -53.85 34.0 -51.3 L34.05 -51.1 35.1 -51.05 35.05 -51.25 32.8 -54.6 32.4 -55.1 32.35 -55.4 32.3 -55.65 32.25 -55.9 Q30.95 -57.65 31.65 -59.7 31.8 -60.2 32.25 -60.45 L32.5 -60.55 33.0 -60.65 Q34.9 -60.25 35.1 -58.4 L35.15 -58.15 35.5 -57.65 35.75 -56.85 39.05 -51.15 39.2 -50.55 Q43.15 -49.85 47.0 -48.25 47.45 -48.1 47.3 -47.6 46.65 -44.95 43.6 -45.9 L41.1 -46.45 43.55 -41.15 Q43.8 -40.65 43.7 -40.05 45.65 -36.45 46.6 -32.5 47.65 -31.7 47.5 -30.4 48.9 -29.4 46.75 -27.7 L45.95 -27.1 45.85 -26.7 43.25 -14.5 Q42.8 -12.4 43.95 -10.45 L47.8 -3.45 Q50.1 -1.3 50.55 1.5 50.65 2.1 50.0 2.4 L49.2 2.6 41.55 2.3 Q40.9 2.2 40.7 1.55 40.3 0.2 41.65 -0.15 L45.4 -0.85 Q43.0 -4.3 41.3 -8.1 L41.2 -8.35 Q37.75 -13.4 40.35 -19.05 L40.75 -20.2 41.65 -24.35 Q35.65 -20.95 30.7 -16.3 30.55 -10.1 30.85 -3.9 31.0 -1.05 29.4 1.1 29.1 1.5 28.5 1.65 L21.3 1.4 Q20.6 1.1 20.55 0.35 L20.7 -0.7 Q21.1 -1.4 21.85 -1.5 L26.95 -1.9 Q27.3 -6.5 27.15 -11.2 L27.25 -17.9 Q34.25 -24.8 42.85 -29.6 L43.45 -31.0 43.05 -31.85 41.25 -37.05 Q40.6 -37.95 40.3 -39.1 L40.25 -39.9 40.05 -40.15 39.65 -40.65 Q39.05 -43.0 37.7 -45.1 37.45 -45.55 37.5 -46.1 L36.85 -46.95 30.55 -47.95 Q27.95 -48.45 27.9 -50.8 27.8 -53.05 29.9 -53.4" fill="#666666" fill-rule="evenodd" stroke="none"/>
  </g>
</svg>
