<?xml version="1.0" encoding="UTF-8" standalone="no"?>
<svg xmlns:ffdec="https://www.free-decompiler.com/flash" xmlns:xlink="http://www.w3.org/1999/xlink" ffdec:objectType="shape" height="54.75px" width="52.0px" xmlns="http://www.w3.org/2000/svg">
  <g transform="matrix(1.0, 0.0, 0.0, 1.0, 4.6, 52.7)">
    <path d="M1.45 -51.6 L2.25 -52.55 2.5 -52.6 3.05 -52.65 3.05 -52.7 Q7.75 -50.4 11.65 -46.5 L13.4 -44.8 13.55 -45.0 14.4 -45.9 Q14.55 -47.15 15.6 -47.85 16.05 -48.2 16.45 -48.25 20.2 -47.65 18.05 -44.85 L16.5 -42.8 16.1 -42.25 21.5 -37.75 Q23.4 -37.3 24.85 -36.1 L25.05 -36.15 25.1 -36.2 Q26.8 -35.9 26.8 -34.2 L26.8 -33.95 28.35 -31.15 28.5 -30.3 29.4 -29.1 29.55 -28.25 31.15 -24.1 31.35 -23.35 Q32.65 -17.65 37.25 -13.85 L46.45 -5.6 Q48.1 -3.95 46.9 -1.8 45.4 0.9 42.85 2.0 42.45 2.2 42.1 1.8 40.45 -0.2 42.45 -2.05 43.15 -2.7 43.35 -3.45 38.75 -8.1 33.5 -12.35 29.15 -15.85 28.5 -21.3 L28.35 -21.55 27.9 -22.05 Q27.75 -23.7 27.0 -25.2 L26.7 -26.2 25.45 -28.7 24.3 -21.4 23.7 -19.75 Q22.25 -17.2 23.8 -14.6 L25.05 -12.5 Q27.5 -8.2 29.3 -3.55 29.75 -2.35 28.9 -1.5 27.35 0.15 25.2 0.95 22.65 1.95 20.75 0.45 20.15 0.0 20.25 -0.85 L20.35 -1.4 Q22.05 -2.9 24.55 -2.95 L24.85 -3.15 25.35 -3.45 25.2 -3.95 25.1 -4.75 Q23.2 -7.3 22.0 -10.2 L21.9 -10.45 Q21.5 -10.75 21.35 -11.2 21.25 -11.6 21.3 -12.0 L21.1 -12.25 20.7 -12.75 Q19.7 -15.2 19.2 -17.75 19.0 -18.55 19.45 -19.35 20.9 -21.9 21.25 -24.85 L22.0 -29.85 22.6 -32.35 22.75 -32.7 22.1 -33.0 Q20.9 -33.65 20.2 -34.55 L19.35 -35.1 14.35 -39.15 12.4 -34.6 11.65 -33.35 Q10.5 -28.25 5.4 -29.05 4.7 -29.15 4.55 -29.8 4.3 -31.1 4.5 -32.4 5.75 -33.95 7.95 -33.5 L8.1 -33.8 8.2 -34.3 8.3 -34.8 8.45 -35.05 8.7 -35.35 8.9 -35.6 10.7 -39.95 11.55 -41.25 11.6 -41.35 3.3 -48.3 1.4 -50.3 Q1.2 -50.95 1.45 -51.6 M4.4 -40.95 L4.4 -41.0 Q7.8 -39.85 5.7 -36.3 5.0 -35.1 4.7 -33.8 4.55 -32.9 4.0 -32.1 L3.45 -31.55 3.25 -30.5 2.8 -29.7 1.4 -25.9 0.95 -25.05 Q1.0 -21.75 -2.15 -21.3 -3.15 -21.1 -3.75 -22.0 -5.7 -24.95 -3.15 -26.85 L-1.8 -27.4 -1.35 -29.2 -0.85 -30.0 -0.75 -30.5 -0.65 -31.0 -0.5 -31.25 -0.25 -31.55 -0.05 -31.8 0.4 -33.35 0.9 -34.1 2.95 -40.0 Q3.15 -40.55 3.65 -40.85 L4.4 -40.95" fill="#666666" fill-rule="evenodd" stroke="none"/>
  </g>
</svg>
