<?xml version="1.0" encoding="UTF-8" standalone="no"?>
<svg xmlns:ffdec="https://www.free-decompiler.com/flash" xmlns:xlink="http://www.w3.org/1999/xlink" ffdec:objectType="shape" height="49.95px" width="57.5px" xmlns="http://www.w3.org/2000/svg">
  <g transform="matrix(1.0, 0.0, 0.0, 1.0, 58.4, 59.6)">
    <path d="M-35.3 -56.4 L-35.2 -56.45 -35.2 -56.5 Q-32.15 -55.45 -33.7 -51.95 -37.8 -42.5 -35.2 -32.55 L-33.8 -29.0 Q-30.0 -27.95 -26.35 -26.25 L-26.25 -26.2 Q-18.55 -25.95 -10.9 -28.1 -6.75 -30.5 -4.05 -27.15 -2.4 -25.05 -1.1 -22.7 -0.5 -21.65 -1.5 -21.0 -3.35 -19.85 -4.65 -21.8 -5.85 -23.6 -7.45 -25.05 L-11.95 -24.3 Q-18.45 -22.8 -25.25 -22.25 L-27.0 -22.55 -31.8 -24.6 -31.75 -24.35 Q-31.4 -22.1 -30.65 -19.9 -29.95 -18.9 -29.7 -17.6 L-29.35 -16.8 Q-26.55 -17.0 -23.4 -18.1 -20.55 -19.05 -18.0 -20.4 -14.85 -22.05 -14.2 -19.05 -13.25 -15.8 -11.65 -12.75 -10.2 -9.95 -13.2 -9.65 -14.75 -9.5 -14.85 -11.05 L-14.9 -11.55 Q-16.1 -13.7 -16.85 -15.95 L-16.95 -16.45 Q-22.55 -15.45 -28.25 -12.75 -32.1 -10.95 -32.45 -15.1 L-32.6 -15.35 -33.05 -15.85 Q-34.9 -20.75 -35.85 -25.95 -37.25 -26.45 -37.85 -28.45 L-37.95 -29.8 -38.85 -32.9 Q-39.0 -29.7 -39.8 -26.6 -40.05 -25.55 -41.2 -25.25 -43.7 -24.6 -45.1 -26.9 L-45.25 -27.9 -45.1 -28.95 Q-44.15 -30.25 -42.45 -30.15 -42.65 -37.1 -41.7 -43.8 L-41.15 -44.6 -40.4 -44.75 -40.35 -44.8 -39.3 -44.4 -38.35 -48.85 Q-38.0 -49.9 -37.9 -51.0 -37.8 -52.2 -37.0 -53.05 L-36.55 -55.6 -36.35 -55.95 Q-37.1 -56.05 -37.95 -57.05 -38.2 -57.35 -38.1 -57.75 -37.85 -60.0 -35.6 -59.5 -34.9 -59.2 -34.6 -58.45 L-34.5 -57.95 Q-34.85 -56.95 -35.3 -56.4 M-47.2 -51.25 Q-48.65 -49.2 -49.5 -46.85 L-50.45 -45.15 -52.4 -42.4 -52.5 -41.6 -52.7 -40.85 Q-51.95 -38.4 -54.75 -38.05 -54.05 -34.2 -57.35 -34.3 -57.95 -34.3 -58.15 -35.0 -59.0 -38.75 -57.0 -41.7 L-56.95 -41.95 -56.85 -42.45 -56.8 -42.7 -52.4 -48.65 Q-51.2 -52.45 -49.15 -55.85 L-48.7 -56.35 -48.45 -56.4 -47.95 -56.5 Q-44.85 -54.75 -47.2 -51.25" fill="#666666" fill-rule="evenodd" stroke="none"/>
  </g>
</svg>
