<?xml version="1.0" encoding="UTF-8" standalone="no"?>
<svg xmlns:ffdec="https://www.free-decompiler.com/flash" xmlns:xlink="http://www.w3.org/1999/xlink" ffdec:objectType="shape" height="57.2px" width="59.15px" xmlns="http://www.w3.org/2000/svg">
  <g transform="matrix(1.0, 0.0, 0.0, 1.0, 106.75, 89.65)">
    <path d="M-102.15 -58.4 L-100.5 -56.9 -99.35 -56.0 -97.35 -60.7 -95.55 -64.35 -95.3 -65.1 Q-95.1 -65.6 -95.05 -66.15 L-94.85 -66.4 -94.65 -66.65 -94.45 -66.9 Q-93.65 -69.4 -91.7 -71.35 -90.6 -72.45 -89.3 -72.7 -84.95 -70.45 -80.75 -67.6 L-80.65 -67.55 Q-78.65 -67.15 -77.15 -66.15 -73.55 -70.05 -69.5 -73.5 -61.45 -80.4 -50.7 -80.95 -46.65 -81.45 -47.85 -78.3 -48.15 -77.6 -49.0 -77.55 -59.55 -77.05 -67.3 -70.55 L-73.75 -64.25 Q-74.55 -63.4 -75.5 -63.0 -75.5 -62.0 -76.5 -60.65 -79.05 -57.1 -80.65 -53.05 -77.6 -47.55 -73.8 -42.7 -70.5 -39.55 -73.0 -35.65 L-74.9 -33.1 Q-75.95 -31.9 -77.2 -32.95 -78.25 -33.8 -77.85 -35.15 L-75.8 -38.25 -75.5 -38.75 -77.05 -41.15 -77.2 -41.6 Q-81.9 -46.7 -84.2 -53.05 -84.55 -53.95 -84.0 -54.75 L-83.4 -55.55 Q-81.95 -59.5 -79.6 -62.75 L-80.05 -63.0 -83.05 -64.8 Q-86.15 -66.6 -89.1 -68.65 L-89.45 -68.45 Q-89.75 -67.7 -90.4 -67.15 L-91.0 -66.4 -92.45 -62.15 Q-93.0 -60.75 -94.0 -59.7 -94.4 -57.8 -95.15 -55.95 L-96.45 -53.5 Q-97.55 -49.5 -100.55 -52.35 L-102.95 -54.0 Q-106.4 -55.65 -106.75 -58.9 -104.55 -60.95 -102.15 -58.4 M-58.6 -86.0 Q-65.4 -84.8 -70.95 -80.7 -71.5 -76.9 -74.8 -78.2 -75.9 -78.6 -75.75 -79.75 -75.35 -82.5 -72.75 -84.15 L-66.7 -87.35 Q-63.55 -88.75 -60.35 -89.55 -56.9 -90.2 -57.25 -87.35 -57.4 -86.25 -58.6 -86.0 M-61.1 -69.5 L-60.8 -71.0 -60.1 -71.85 -59.3 -71.95 -59.3 -72.0 Q-55.95 -70.95 -58.1 -67.65 -60.45 -63.95 -62.4 -59.95 -63.55 -56.6 -66.55 -54.85 L-67.85 -54.7 Q-70.4 -55.4 -69.55 -58.25 -68.55 -59.6 -66.7 -59.45 L-66.25 -60.2 -65.85 -60.7 Q-65.0 -63.45 -63.25 -65.9 L-62.85 -66.4 Q-62.7 -67.9 -61.65 -69.0 L-61.1 -69.5" fill="#666666" fill-rule="evenodd" stroke="none"/>
  </g>
</svg>
