<?xml version="1.0" encoding="UTF-8" standalone="no"?>
<svg xmlns:ffdec="https://www.free-decompiler.com/flash" xmlns:xlink="http://www.w3.org/1999/xlink" ffdec:objectType="shape" height="52.25px" width="62.95px" xmlns="http://www.w3.org/2000/svg">
  <g transform="matrix(1.0, 0.0, 0.0, 1.0, 95.85, 145.0)">
    <path d="M-53.1 -126.05 Q-47.7 -124.2 -42.65 -121.5 L-39.75 -119.75 Q-37.75 -118.5 -37.6 -116.5 -37.5 -115.6 -38.35 -115.45 -41.15 -114.95 -43.1 -117.45 L-51.3 -121.65 Q-55.5 -120.1 -55.25 -124.0 -55.1 -125.9 -53.1 -126.05 M-60.7 -137.85 Q-59.25 -133.15 -58.7 -128.1 L-58.0 -119.8 Q-49.2 -118.15 -41.65 -113.2 -38.9 -111.4 -36.35 -109.25 L-34.85 -107.8 Q-31.45 -106.2 -34.05 -103.75 L-35.6 -103.8 Q-41.35 -109.15 -48.1 -112.7 -51.5 -114.5 -55.2 -115.65 -58.9 -115.35 -61.25 -117.4 -62.6 -117.4 -63.1 -118.75 L-63.75 -119.75 -71.95 -129.7 Q-76.45 -128.1 -80.95 -124.95 -84.75 -121.05 -89.75 -119.15 -90.5 -118.85 -90.9 -119.55 -92.65 -122.35 -95.05 -124.7 L-95.1 -124.95 -95.15 -125.2 -95.2 -125.7 Q-96.9 -128.2 -94.05 -128.9 -93.25 -129.1 -92.7 -128.5 -91.9 -127.6 -91.7 -126.4 L-89.9 -124.4 -89.35 -123.55 -89.15 -123.4 -88.7 -123.3 Q-80.95 -129.7 -72.05 -134.0 -69.25 -133.4 -67.85 -130.55 L-67.45 -129.85 Q-64.85 -126.25 -61.8 -123.05 L-62.0 -124.45 -62.4 -129.1 -62.6 -129.35 -63.0 -129.85 Q-63.0 -134.25 -63.9 -138.45 L-64.15 -140.45 Q-69.65 -138.6 -75.85 -137.1 L-83.45 -135.6 Q-84.65 -135.45 -84.85 -136.6 L-85.5 -142.3 Q-85.6 -143.2 -84.6 -143.25 -82.35 -143.4 -81.75 -140.9 L-81.7 -139.85 Q-79.65 -139.7 -76.9 -140.5 -72.05 -141.85 -67.35 -143.55 L-63.1 -145.0 Q-59.95 -143.2 -60.6 -139.15 L-60.7 -137.85 M-66.6 -92.8 Q-67.5 -92.8 -68.1 -93.5 L-68.55 -94.05 -68.65 -94.8 -68.55 -96.1 Q-65.75 -99.0 -62.65 -96.2 -57.9 -96.2 -53.05 -97.9 -49.75 -99.1 -46.55 -99.9 -42.75 -99.25 -45.35 -96.8 L-46.4 -96.15 Q-56.2 -92.35 -66.6 -92.8" fill="#666666" fill-rule="evenodd" stroke="none"/>
  </g>
</svg>
