<?xml version="1.0" encoding="UTF-8" standalone="no"?>
<svg xmlns:ffdec="https://www.free-decompiler.com/flash" xmlns:xlink="http://www.w3.org/1999/xlink" ffdec:objectType="shape" height="54.45px" width="62.65px" xmlns="http://www.w3.org/2000/svg">
  <g transform="matrix(1.0, 0.0, 0.0, 1.0, 90.3, 154.55)">
    <path d="M-75.25 -153.6 Q-74.95 -154.2 -74.3 -154.4 L-73.8 -154.55 Q-71.45 -153.0 -71.85 -149.6 L-71.95 -148.75 -56.25 -146.45 -55.55 -146.9 -55.05 -147.0 -54.15 -146.2 -53.9 -146.2 -53.65 -145.85 -53.5 -145.25 -53.5 -145.15 Q-52.9 -143.6 -53.65 -141.4 -55.25 -136.95 -54.5 -132.1 -54.0 -128.4 -55.05 -124.95 L-55.35 -124.65 Q-45.15 -119.3 -36.35 -111.75 -35.3 -110.8 -34.0 -110.25 L-28.0 -107.55 Q-27.6 -107.4 -27.65 -106.9 -27.65 -105.4 -29.2 -105.15 -31.6 -105.25 -33.45 -106.7 -39.1 -108.7 -43.75 -112.85 -44.8 -113.85 -46.1 -114.7 L-57.2 -122.5 Q-58.75 -122.5 -59.9 -125.25 L-59.95 -125.55 Q-64.1 -130.5 -67.05 -135.95 L-70.45 -135.75 Q-77.15 -133.45 -84.2 -131.8 L-85.9 -131.4 -86.55 -131.7 -87.35 -132.2 -87.4 -132.55 -87.4 -132.7 -87.75 -133.05 -87.85 -133.4 -87.9 -133.7 -87.95 -134.0 -88.9 -135.6 -89.2 -136.5 -89.75 -137.1 -90.25 -137.75 -90.3 -138.35 -90.25 -139.0 Q-89.95 -139.6 -89.3 -139.8 L-88.8 -139.95 Q-85.45 -138.4 -85.0 -135.05 -82.55 -136.15 -79.6 -136.7 L-76.7 -137.3 Q-73.55 -137.95 -70.9 -139.1 L-66.8 -139.0 -66.7 -139.05 -66.7 -139.1 Q-63.75 -137.95 -62.4 -134.65 L-61.55 -133.3 -60.85 -132.65 -57.5 -127.65 Q-57.3 -131.4 -57.55 -135.15 -57.8 -139.55 -57.0 -143.7 -65.35 -143.15 -72.95 -145.9 -74.15 -145.1 -75.25 -146.4 L-75.4 -152.65 -75.25 -153.6 M-48.4 -132.4 L-48.35 -132.45 Q-42.45 -131.95 -38.5 -127.0 L-37.45 -125.95 Q-34.0 -123.15 -33.35 -118.95 -33.25 -118.25 -33.95 -118.05 -36.2 -117.4 -36.6 -119.7 L-42.95 -126.35 Q-44.2 -127.6 -45.75 -128.35 -47.3 -127.55 -48.65 -128.6 L-49.85 -129.85 -49.9 -130.15 -49.85 -131.4 Q-49.65 -131.95 -49.1 -132.2 L-48.9 -132.3 -48.4 -132.4 M-67.1 -100.95 Q-67.65 -101.8 -67.35 -102.75 -65.35 -104.8 -62.65 -103.15 -55.1 -103.05 -47.95 -104.9 -45.45 -105.55 -44.75 -103.45 L-44.7 -103.15 Q-46.85 -100.85 -50.45 -100.5 -58.35 -99.8 -66.15 -100.3 -66.75 -100.35 -67.1 -100.95" fill="#666666" fill-rule="evenodd" stroke="none"/>
  </g>
</svg>
