<?xml version="1.0" encoding="UTF-8" standalone="no"?>
<svg xmlns:ffdec="https://www.free-decompiler.com/flash" xmlns:xlink="http://www.w3.org/1999/xlink" ffdec:objectType="shape" height="61.1px" width="44.35px" xmlns="http://www.w3.org/2000/svg">
  <g transform="matrix(1.0, 0.0, 0.0, 1.0, 73.65, 170.35)">
    <path d="M-40.1 -156.15 Q-40.15 -155.5 -40.75 -154.65 L-40.95 -154.3 Q-42.9 -146.25 -45.6 -138.4 L-45.95 -137.75 Q-45.9 -136.05 -46.35 -135.2 -43.9 -132.8 -42.05 -129.65 -39.8 -125.8 -37.0 -122.5 L-29.3 -112.95 -29.4 -112.65 -29.6 -112.0 Q-33.2 -110.7 -35.1 -114.6 L-36.55 -116.75 Q-41.45 -122.2 -45.65 -128.15 L-45.75 -128.5 -45.85 -129.1 Q-47.8 -131.0 -48.9 -133.35 -50.3 -133.75 -51.25 -135.7 -51.65 -136.45 -51.7 -137.35 -52.6 -138.3 -52.8 -139.55 L-52.85 -140.15 Q-54.8 -143.65 -55.8 -147.4 L-69.5 -146.8 -70.85 -146.9 -71.5 -147.25 Q-72.45 -148.05 -72.7 -150.0 -72.8 -150.85 -73.2 -151.6 -73.85 -152.95 -73.6 -154.4 -73.3 -155.05 -72.65 -155.25 L-72.15 -155.35 Q-70.4 -155.0 -70.15 -153.25 L-70.15 -152.95 Q-69.15 -151.3 -68.8 -149.4 L-57.55 -150.75 Q-54.25 -151.85 -53.15 -149.45 -52.0 -148.05 -51.45 -145.95 L-50.95 -144.3 -50.55 -142.75 Q-49.6 -141.35 -49.05 -139.65 L-48.8 -139.3 -48.75 -139.25 -48.35 -139.75 Q-46.35 -148.15 -43.35 -156.15 -44.4 -156.5 -45.5 -157.2 -50.7 -160.7 -56.5 -162.65 L-56.55 -162.95 -56.55 -163.6 -56.45 -164.0 Q-56.2 -166.85 -55.0 -169.55 L-54.5 -170.15 -54.3 -170.25 -53.8 -170.3 -53.8 -170.35 Q-51.0 -168.4 -52.75 -164.7 L-52.85 -164.5 Q-47.35 -163.2 -42.55 -160.0 L-40.45 -158.45 Q-39.3 -157.55 -40.05 -156.2 L-40.1 -156.15 M-65.05 -114.95 Q-56.95 -114.8 -48.9 -115.05 -46.0 -115.15 -45.55 -112.75 L-45.95 -112.15 Q-47.1 -110.75 -49.25 -110.9 L-62.65 -111.6 -62.7 -111.3 Q-63.8 -108.15 -67.0 -109.85 L-67.35 -110.15 -67.4 -110.45 Q-67.55 -111.75 -67.15 -112.9 -66.75 -114.05 -65.75 -114.7 L-65.55 -114.8 -65.05 -114.85 -65.05 -114.95 M-33.05 -145.55 Q-32.85 -139.0 -31.4 -132.75 -30.55 -129.05 -32.95 -127.2 L-34.05 -127.8 -34.4 -128.05 Q-35.1 -133.55 -35.4 -139.0 -35.55 -142.2 -36.3 -145.2 -37.3 -149.1 -33.8 -150.75 -30.15 -150.15 -32.0 -146.6 -32.35 -145.9 -33.05 -145.55" fill="#666666" fill-rule="evenodd" stroke="none"/>
  </g>
</svg>
