<?xml version="1.0" encoding="UTF-8" standalone="no"?>
<svg xmlns:ffdec="https://www.free-decompiler.com/flash" xmlns:xlink="http://www.w3.org/1999/xlink" ffdec:objectType="shape" height="63.45px" width="50.8px" xmlns="http://www.w3.org/2000/svg">
  <g transform="matrix(1.0, 0.0, 0.0, 1.0, 64.5, 181.6)">
    <path d="M-32.0 -175.05 L-30.25 -177.85 -30.05 -178.2 Q-29.65 -180.75 -27.55 -181.55 L-27.55 -181.6 Q-24.7 -179.7 -27.35 -176.4 L-27.65 -176.1 -28.15 -174.45 Q-24.1 -170.5 -21.05 -165.55 L-20.95 -165.25 -19.65 -163.35 -19.3 -162.75 -19.85 -161.8 Q-19.3 -160.3 -21.5 -158.45 -24.3 -156.05 -26.25 -152.95 L-27.55 -151.2 Q-30.8 -147.7 -34.6 -145.25 -33.95 -144.25 -33.7 -142.85 L-33.05 -138.35 Q-30.45 -130.5 -28.1 -122.45 L-28.05 -121.5 Q-25.8 -118.1 -29.5 -118.15 -29.85 -118.15 -30.25 -118.45 L-30.3 -118.8 -30.45 -119.4 Q-33.3 -127.05 -35.3 -135.05 L-35.45 -135.65 Q-37.65 -140.3 -37.4 -145.35 L-37.4 -145.4 -37.45 -146.3 -37.25 -146.5 -37.2 -146.55 Q-36.95 -152.7 -37.4 -158.95 -44.35 -159.1 -50.55 -162.15 L-51.95 -162.6 -52.75 -163.05 -52.85 -163.7 -52.8 -164.2 -52.85 -169.1 -52.85 -170.05 Q-52.45 -171.1 -51.3 -171.15 L-51.3 -171.2 Q-48.9 -169.5 -49.4 -165.95 L-49.55 -165.2 -48.9 -164.85 -48.7 -164.65 Q-42.55 -162.5 -36.15 -161.55 L-35.85 -161.6 -35.6 -161.45 -35.2 -161.4 Q-34.25 -161.3 -34.3 -160.25 L-34.35 -160.05 Q-33.7 -158.85 -33.95 -157.0 L-34.0 -153.9 Q-33.8 -151.85 -33.95 -149.8 L-29.7 -153.8 -28.85 -155.0 -28.35 -155.35 Q-26.3 -159.1 -23.05 -162.15 L-23.5 -162.65 Q-24.05 -163.4 -24.1 -164.3 -27.3 -168.5 -30.85 -172.45 L-31.05 -172.75 -31.2 -173.2 -31.9 -173.5 -32.0 -174.1 -32.0 -175.05 M-17.1 -149.95 Q-13.4 -150.75 -13.7 -147.55 -13.85 -146.15 -15.2 -145.55 L-17.1 -144.95 Q-19.6 -140.25 -20.8 -135.25 -21.35 -133.0 -23.35 -132.2 L-24.05 -132.5 -24.8 -133.05 Q-23.4 -140.3 -20.2 -147.25 L-19.0 -148.9 Q-18.1 -149.75 -17.1 -149.95 M-43.1 -124.3 Q-42.9 -122.55 -44.6 -122.2 -50.75 -123.9 -57.1 -123.8 L-59.1 -124.1 -60.0 -123.0 -60.65 -122.45 Q-63.85 -120.9 -64.4 -124.2 L-64.5 -125.45 -64.35 -125.75 -63.1 -126.75 -62.75 -127.0 -62.45 -127.2 -62.2 -127.3 -61.7 -127.4 -61.7 -127.45 Q-52.8 -127.1 -43.95 -125.3 -43.2 -125.15 -43.1 -124.3" fill="#666666" fill-rule="evenodd" stroke="none"/>
  </g>
</svg>
