<?xml version="1.0" encoding="UTF-8" standalone="no"?>
<svg xmlns:ffdec="https://www.free-decompiler.com/flash" xmlns:xlink="http://www.w3.org/1999/xlink" ffdec:objectType="shape" height="63.1px" width="55.05px" xmlns="http://www.w3.org/2000/svg">
  <g transform="matrix(1.0, 0.0, 0.0, 1.0, 61.05, 185.0)">
    <path d="M-13.15 -185.0 Q-9.9 -183.4 -12.85 -181.25 -15.3 -179.4 -17.1 -177.05 -11.4 -170.75 -6.8 -163.75 -6.55 -163.35 -6.85 -163.0 -8.55 -160.85 -10.7 -159.0 L-19.7 -151.55 Q-23.55 -148.5 -27.65 -146.2 L-27.9 -145.5 Q-27.45 -144.45 -27.55 -142.95 L-27.4 -141.4 Q-25.75 -133.7 -24.85 -125.9 -22.95 -123.0 -26.0 -121.95 -26.45 -121.8 -26.8 -122.2 -28.55 -124.25 -28.8 -126.9 -29.0 -129.8 -29.55 -132.6 -30.1 -135.25 -30.05 -138.05 L-30.2 -138.3 -30.65 -138.85 Q-31.4 -142.0 -31.4 -145.2 -31.85 -145.85 -31.55 -147.05 -30.1 -152.95 -27.3 -158.2 L-27.2 -159.0 -26.65 -159.75 -26.0 -161.85 -38.05 -166.1 -41.0 -166.9 Q-43.35 -167.45 -43.0 -170.05 -42.8 -172.05 -43.0 -174.1 -43.3 -176.6 -41.85 -178.25 L-41.05 -178.4 -41.05 -178.45 Q-38.5 -177.05 -39.05 -173.6 L-39.35 -170.35 Q-34.95 -169.8 -31.15 -167.5 -30.15 -167.45 -29.45 -166.8 L-29.35 -166.75 Q-25.6 -165.6 -22.4 -163.85 -21.65 -163.4 -21.55 -162.9 -21.05 -161.7 -22.55 -159.8 L-23.45 -158.2 Q-24.05 -156.7 -24.85 -155.35 L-26.45 -150.95 Q-21.0 -155.75 -14.95 -159.85 -12.85 -161.8 -11.0 -164.0 -15.3 -169.55 -20.0 -174.6 L-20.65 -175.35 Q-21.1 -180.3 -16.4 -182.95 -15.05 -183.7 -13.95 -184.8 L-13.65 -184.9 -13.15 -185.0 M-9.35 -149.8 L-9.35 -149.85 Q-4.65 -149.85 -6.5 -145.4 -6.95 -144.3 -8.2 -143.8 L-9.8 -143.85 -12.25 -140.45 -13.15 -139.2 -13.2 -138.95 -13.45 -138.4 -13.75 -137.9 Q-14.25 -135.35 -15.65 -133.45 -16.15 -132.75 -16.85 -133.35 -18.45 -134.7 -17.75 -136.95 L-16.5 -140.9 Q-14.5 -143.5 -12.75 -146.25 L-11.85 -147.35 -11.8 -147.6 -11.75 -147.85 -11.7 -148.15 -11.5 -148.4 -10.15 -149.7 -9.35 -149.8 M-56.15 -129.3 Q-57.25 -128.4 -58.6 -128.65 -60.1 -128.85 -60.95 -130.2 L-61.0 -130.5 -61.05 -131.0 -61.05 -131.25 -61.05 -131.5 -61.0 -132.05 -60.95 -132.3 -60.75 -132.55 -60.25 -133.05 -60.0 -133.3 -59.75 -133.5 -59.5 -133.55 -58.95 -133.6 -58.95 -133.65 Q-49.25 -134.15 -40.75 -130.15 L-40.55 -129.95 Q-37.4 -128.8 -39.75 -126.6 -40.6 -125.8 -41.7 -126.4 -47.9 -130.0 -55.35 -130.05 L-56.15 -129.3" fill="#666666" fill-rule="evenodd" stroke="none"/>
  </g>
</svg>
