<?xml version="1.0" encoding="UTF-8" standalone="no"?>
<svg xmlns:ffdec="https://www.free-decompiler.com/flash" xmlns:xlink="http://www.w3.org/1999/xlink" ffdec:objectType="shape" height="62.7px" width="65.65px" xmlns="http://www.w3.org/2000/svg">
  <g transform="matrix(1.0, 0.0, 0.0, 1.0, 58.7, 185.3)">
    <path d="M6.95 -183.2 Q6.65 -182.0 5.4 -181.95 L2.75 -182.05 2.75 -180.0 Q2.5 -178.0 2.7 -176.0 3.25 -170.5 2.1 -165.5 L2.35 -164.75 2.4 -164.45 1.45 -163.35 1.35 -163.25 Q-0.5 -161.65 -3.25 -161.3 -5.1 -160.1 -7.4 -159.65 L-19.1 -153.45 -19.2 -153.3 -19.45 -153.05 Q-19.15 -152.05 -19.3 -150.75 L-20.75 -138.3 -22.5 -123.25 Q-24.15 -121.9 -25.65 -123.45 L-23.25 -147.9 -22.75 -154.4 -22.0 -155.15 -21.9 -155.65 Q-20.3 -157.45 -19.55 -159.75 L-19.4 -160.35 -15.8 -165.45 Q-17.85 -165.6 -19.9 -166.85 -20.65 -167.3 -21.55 -167.55 -26.55 -169.1 -30.75 -171.5 L-31.15 -171.5 Q-31.55 -171.5 -31.9 -171.8 L-32.0 -172.45 -32.0 -173.4 -30.75 -175.25 -30.45 -175.6 -30.05 -178.1 -29.8 -179.0 Q-29.5 -179.6 -28.85 -179.8 L-28.35 -179.95 Q-25.75 -178.35 -26.85 -174.95 -27.2 -173.85 -27.75 -173.1 -20.35 -171.1 -13.4 -167.9 L-13.25 -167.85 Q-12.1 -167.7 -11.8 -166.4 L-11.8 -166.1 Q-12.8 -163.65 -14.5 -161.7 L-14.7 -161.4 Q-15.0 -160.2 -15.85 -159.2 L-16.4 -158.6 -16.45 -158.3 Q-9.15 -163.05 -0.55 -165.9 L-0.25 -182.4 -0.65 -182.65 -0.7 -183.0 Q-0.9 -183.9 -0.2 -184.5 L0.1 -184.75 0.3 -184.8 0.8 -184.9 0.8 -184.95 Q4.05 -185.95 6.45 -184.25 7.0 -183.9 6.95 -183.2 M-58.6 -137.35 L-58.35 -137.6 -57.6 -138.1 -57.1 -138.25 Q-50.75 -137.9 -44.75 -135.6 L-44.5 -135.45 -41.85 -135.0 -40.35 -134.2 -39.2 -134.1 Q-38.35 -134.0 -37.85 -133.35 L-36.0 -132.9 Q-34.85 -132.5 -33.8 -131.8 L-33.7 -131.5 -33.55 -131.2 -33.45 -130.85 -33.55 -130.55 -33.7 -130.25 -33.8 -129.95 Q-37.4 -129.15 -41.3 -130.95 -46.45 -133.25 -52.1 -134.1 -53.7 -132.3 -56.3 -133.05 -57.75 -133.5 -58.6 -134.85 L-58.65 -135.15 -58.7 -136.1 -58.65 -137.0 -58.6 -137.35 M-1.7 -147.0 Q2.45 -146.05 -0.75 -143.1 -1.35 -142.5 -2.3 -142.65 -5.35 -139.5 -7.65 -135.85 L-8.45 -134.85 Q-8.7 -133.1 -10.2 -132.1 L-10.85 -131.8 Q-11.45 -132.05 -11.95 -132.4 L-12.3 -132.65 Q-12.65 -134.7 -11.2 -136.35 L-10.45 -137.35 -10.35 -137.65 -10.3 -137.95 -10.25 -138.25 Q-7.05 -143.45 -2.15 -146.85 L-1.7 -147.0" fill="#666666" fill-rule="evenodd" stroke="none"/>
  </g>
</svg>
