<?xml version="1.0" encoding="UTF-8" standalone="no"?>
<svg xmlns:ffdec="https://www.free-decompiler.com/flash" xmlns:xlink="http://www.w3.org/1999/xlink" ffdec:objectType="shape" height="62.4px" width="74.35px" xmlns="http://www.w3.org/2000/svg">
  <g transform="matrix(1.0, 0.0, 0.0, 1.0, 50.4, 186.25)">
    <path d="M23.45 -179.7 Q21.85 -178.0 19.2 -178.35 L17.95 -178.25 Q17.8 -177.35 17.8 -176.45 L17.8 -174.4 Q17.75 -173.5 17.15 -172.8 17.05 -168.1 16.05 -163.55 15.65 -161.75 13.75 -161.45 L8.7 -160.7 8.35 -160.45 Q7.1 -159.9 5.6 -160.0 -2.9 -158.15 -10.95 -154.95 L-11.8 -152.6 -11.85 -152.25 -11.9 -152.3 -13.05 -149.25 -13.45 -148.6 Q-16.9 -139.25 -20.65 -130.0 L-21.2 -128.25 Q-21.45 -127.15 -22.2 -126.4 -22.15 -125.85 -22.5 -125.45 L-22.95 -124.5 Q-24.55 -123.15 -26.05 -124.7 -26.35 -126.1 -25.6 -127.3 L-25.25 -128.15 -24.7 -128.8 -24.5 -129.1 -23.5 -133.45 -22.95 -134.4 -22.85 -134.75 -22.8 -135.05 -22.75 -135.35 -22.4 -135.65 -22.1 -136.0 -22.05 -136.3 -22.0 -136.6 -21.9 -136.9 -21.4 -137.55 -21.15 -137.85 -20.0 -141.25 -19.6 -141.9 -18.35 -145.0 -17.95 -145.65 -16.75 -149.45 -16.5 -150.35 -16.15 -150.65 -15.85 -151.0 -15.2 -153.2 -15.5 -153.1 -15.5 -154.9 Q-15.75 -155.95 -14.95 -157.1 L-12.9 -159.3 Q-9.55 -163.8 -5.0 -167.35 L-4.3 -168.1 Q-7.95 -171.3 -12.45 -173.25 -17.0 -174.35 -19.85 -177.55 L-19.95 -178.15 Q-19.2 -182.1 -17.55 -185.9 L-13.85 -186.25 -13.85 -186.0 Q-13.7 -184.8 -14.55 -183.95 L-14.55 -183.7 Q-14.8 -182.55 -15.5 -181.6 L-15.55 -181.35 Q-15.6 -180.1 -16.15 -179.0 -11.15 -176.0 -5.5 -173.5 L-4.25 -172.9 Q-1.4 -171.35 -0.35 -168.65 0.25 -167.15 -1.0 -166.15 -4.75 -163.15 -7.9 -159.7 2.25 -163.1 12.85 -165.15 13.7 -171.2 14.15 -177.3 14.25 -178.75 14.7 -180.15 15.45 -182.6 18.45 -182.2 L19.2 -182.2 Q21.55 -182.8 23.3 -181.55 24.5 -180.7 23.45 -179.7 M1.3 -137.25 Q-3.7 -134.4 -8.8 -132.25 -9.55 -131.95 -9.9 -132.7 -10.95 -134.85 -8.5 -136.1 -2.7 -139.2 3.05 -141.9 6.95 -141.8 5.55 -138.45 L4.75 -137.65 Q3.1 -136.85 1.3 -137.25 M-49.0 -138.45 Q-50.4 -138.6 -50.4 -139.95 -50.45 -142.05 -48.1 -142.5 L-47.6 -142.6 Q-43.4 -142.8 -39.6 -141.1 L-39.4 -140.95 Q-32.0 -139.85 -26.95 -134.75 -26.4 -134.15 -26.9 -133.45 -28.5 -131.15 -30.7 -133.55 L-32.2 -134.7 Q-37.8 -137.45 -44.0 -138.65 -44.65 -137.95 -45.55 -137.7 -47.45 -137.15 -49.0 -138.45" fill="#666666" fill-rule="evenodd" stroke="none"/>
  </g>
</svg>
