<?xml version="1.0" encoding="UTF-8" standalone="no"?>
<svg xmlns:ffdec="https://www.free-decompiler.com/flash" xmlns:xlink="http://www.w3.org/1999/xlink" ffdec:objectType="shape" height="61.05px" width="74.85px" xmlns="http://www.w3.org/2000/svg">
  <g transform="matrix(1.0, 0.0, 0.0, 1.0, 46.2, 187.05)">
    <path d="M23.75 -177.35 L26.65 -177.85 Q28.3 -177.95 28.6 -176.4 L28.65 -176.1 Q26.75 -173.75 24.3 -173.8 24.25 -172.7 23.55 -171.35 L23.2 -170.25 Q22.3 -165.05 20.65 -160.2 L20.65 -160.15 20.7 -159.85 20.4 -159.45 20.35 -159.4 Q20.05 -158.65 19.25 -158.5 17.7 -157.5 15.45 -157.35 4.7 -156.65 -5.55 -153.75 L-7.6 -150.1 -8.05 -149.4 Q-11.1 -138.75 -14.45 -128.2 L-15.0 -126.6 Q-16.45 -125.35 -17.75 -126.8 -16.8 -132.5 -15.05 -138.15 L-12.0 -148.1 Q-11.4 -149.9 -10.45 -151.5 -9.65 -154.85 -7.05 -156.65 L-7.05 -156.8 -6.9 -157.75 -4.9 -160.25 -4.6 -160.55 -4.5 -160.9 -4.45 -161.2 -4.4 -161.5 Q-1.75 -164.6 1.25 -167.1 L0.2 -168.4 Q-0.9 -170.0 -2.4 -171.3 L-5.35 -174.2 Q-8.15 -175.7 -10.0 -178.3 L-10.25 -178.6 -10.3 -179.2 -10.25 -179.85 -9.95 -180.25 -8.45 -185.25 -8.15 -186.1 Q-7.85 -186.7 -7.2 -186.9 L-6.7 -187.05 Q-5.05 -187.1 -4.75 -185.55 L-4.7 -185.25 -5.6 -182.5 -5.95 -181.85 -6.75 -179.65 -6.75 -179.55 Q-3.15 -177.15 0.0 -173.9 L4.0 -170.0 Q5.25 -168.8 5.25 -167.4 L5.25 -167.25 5.3 -166.95 5.15 -166.75 5.0 -166.2 4.6 -166.05 Q1.9 -162.9 -1.15 -160.0 L-1.35 -159.75 -2.45 -157.75 1.65 -158.7 Q8.7 -160.75 16.0 -161.45 L17.1 -161.6 18.05 -161.8 Q19.1 -168.6 20.85 -175.3 L20.95 -175.9 Q21.2 -176.65 21.85 -176.85 22.55 -177.35 23.75 -177.35 M12.6 -136.5 Q12.25 -136.0 11.65 -136.0 6.65 -135.9 2.55 -132.75 L-2.9 -128.6 Q-4.75 -127.25 -6.5 -128.9 -6.15 -131.95 -2.5 -133.15 L-0.65 -134.15 Q4.5 -138.2 10.4 -140.35 15.3 -140.2 12.6 -136.5 M-46.15 -136.7 L-46.2 -137.35 -46.15 -138.25 -46.1 -138.6 -45.85 -138.9 -45.55 -139.2 -45.25 -139.5 -44.95 -139.75 -44.7 -139.8 -44.2 -139.9 -44.2 -139.95 -31.85 -139.4 Q-29.15 -139.2 -27.0 -137.55 L-26.3 -137.45 Q-24.8 -137.15 -24.0 -135.95 L-23.9 -135.65 -23.95 -135.4 Q-25.7 -132.6 -28.95 -134.95 L-30.95 -136.3 -32.1 -136.35 -39.6 -136.6 -40.05 -136.3 Q-43.15 -134.35 -46.1 -136.4 L-46.15 -136.7" fill="#666666" fill-rule="evenodd" stroke="none"/>
  </g>
</svg>
