<?xml version="1.0" encoding="UTF-8" standalone="no"?>
<svg xmlns:ffdec="https://www.free-decompiler.com/flash" xmlns:xlink="http://www.w3.org/1999/xlink" ffdec:objectType="shape" height="56.9px" width="78.1px" xmlns="http://www.w3.org/2000/svg">
  <g transform="matrix(1.0, 0.0, 0.0, 1.0, 41.95, 184.55)">
    <path d="M8.2 -182.75 Q7.1 -180.05 5.35 -177.95 6.55 -177.0 7.55 -175.5 L7.9 -175.15 Q10.35 -171.05 11.4 -166.35 11.6 -165.65 11.4 -164.95 11.9 -163.4 9.8 -161.45 L4.5 -156.3 12.9 -157.4 12.9 -157.45 21.45 -157.1 Q22.2 -159.65 23.6 -162.0 24.5 -163.55 25.05 -165.3 25.95 -168.3 27.55 -170.85 28.35 -173.15 32.1 -172.8 L32.1 -172.85 Q35.15 -173.85 36.1 -171.4 L36.15 -171.1 Q33.5 -168.7 30.3 -168.95 30.2 -167.8 29.3 -166.35 L29.0 -165.55 Q27.3 -160.3 24.0 -156.0 L24.05 -155.65 Q23.7 -154.45 22.5 -154.4 L1.1 -152.95 0.15 -152.65 Q-3.8 -146.25 -8.15 -140.15 L-8.45 -139.85 -12.65 -129.95 -13.35 -128.25 Q-14.75 -127.0 -16.05 -128.45 L-16.25 -129.7 -16.05 -130.65 -15.85 -130.95 -15.35 -131.6 Q-12.2 -141.2 -6.05 -149.4 L-5.0 -150.65 -4.95 -151.0 -4.8 -151.6 Q-3.45 -153.8 -1.45 -155.0 -0.6 -157.05 1.4 -158.8 L5.8 -163.05 8.4 -165.45 Q7.05 -171.45 2.65 -175.95 L2.2 -176.5 1.85 -176.85 1.7 -178.1 Q1.7 -178.55 1.85 -179.0 L4.35 -182.45 4.55 -182.75 4.65 -183.1 4.7 -183.4 4.8 -183.7 Q5.3 -184.45 6.25 -184.5 L6.25 -184.55 Q7.85 -184.6 8.2 -183.05 L8.2 -182.75 M20.9 -134.75 Q20.95 -131.8 17.45 -132.55 16.65 -132.75 16.15 -133.35 8.15 -131.85 1.0 -128.1 L0.1 -128.2 -0.2 -128.45 Q0.55 -132.1 4.6 -133.75 7.8 -135.05 11.25 -135.55 13.0 -136.5 15.05 -137.15 L16.25 -137.45 Q20.8 -138.55 20.9 -134.75 M-41.7 -137.2 L-41.35 -137.5 -40.95 -137.7 -40.45 -137.85 -39.5 -138.05 -38.8 -138.25 Q-29.7 -138.8 -21.7 -135.85 -21.35 -135.75 -21.4 -135.25 -21.7 -134.05 -22.95 -134.1 L-36.3 -134.95 -37.3 -134.25 Q-37.75 -133.95 -38.35 -133.85 -42.3 -133.45 -41.9 -136.9 L-41.7 -137.2" fill="#666666" fill-rule="evenodd" stroke="none"/>
  </g>
</svg>
