<?xml version="1.0" encoding="UTF-8" standalone="no"?>
<svg xmlns:ffdec="https://www.free-decompiler.com/flash" xmlns:xlink="http://www.w3.org/1999/xlink" ffdec:objectType="shape" height="54.4px" width="78.6px" xmlns="http://www.w3.org/2000/svg">
  <g transform="matrix(1.0, 0.0, 0.0, 1.0, 37.85, 180.35)">
    <path d="M12.7 -175.6 Q12.75 -178.45 16.3 -179.0 17.35 -179.15 18.4 -179.65 19.45 -180.1 20.4 -180.35 23.75 -178.25 19.9 -176.2 18.05 -175.2 16.15 -175.05 16.8 -173.6 16.9 -171.65 L17.1 -169.15 19.0 -156.95 19.45 -156.0 19.45 -155.65 19.15 -155.35 Q19.05 -154.55 18.0 -154.45 15.6 -152.7 12.35 -151.95 L9.6 -151.05 24.85 -149.0 Q28.9 -155.55 29.95 -163.15 30.3 -165.85 32.15 -167.2 L32.2 -167.25 32.5 -167.45 32.65 -167.35 32.9 -167.4 32.9 -167.45 39.85 -166.85 Q40.75 -166.7 40.75 -165.7 40.4 -164.45 39.15 -164.45 L34.1 -164.6 Q34.2 -163.2 33.25 -161.45 32.75 -160.55 32.55 -159.5 31.65 -155.0 29.5 -151.0 29.15 -148.65 27.6 -147.25 27.2 -146.6 26.4 -146.45 L26.25 -146.4 26.05 -146.4 Q15.25 -145.65 5.4 -149.1 L5.15 -148.85 Q4.85 -147.85 3.7 -146.65 1.3 -144.15 -0.45 -141.2 -2.25 -139.0 -3.65 -136.5 L-3.75 -136.2 -10.8 -126.7 Q-11.1 -126.25 -11.7 -125.95 -12.6 -126.1 -13.15 -126.8 L-13.2 -127.45 -13.25 -128.35 Q-8.35 -136.0 -3.05 -143.4 L-2.85 -143.7 Q-0.45 -148.1 3.0 -151.3 4.15 -153.25 7.1 -153.95 L8.85 -154.55 Q12.4 -156.05 15.95 -157.1 13.8 -166.1 13.25 -175.25 12.95 -175.35 12.7 -175.6 M21.65 -127.35 Q20.5 -127.35 20.1 -128.35 14.7 -128.65 8.75 -126.7 6.35 -125.9 3.75 -126.05 2.85 -126.1 2.3 -126.8 2.35 -129.9 6.3 -130.15 L7.9 -130.35 17.9 -132.0 24.45 -131.5 Q25.05 -131.4 25.5 -130.85 26.95 -129.0 25.0 -128.05 23.5 -127.35 21.65 -127.35 M-17.4 -133.3 L-31.8 -132.85 -31.8 -132.55 Q-32.35 -129.2 -36.3 -130.05 -37.2 -130.25 -37.75 -130.95 L-37.8 -131.3 -37.8 -132.55 -37.75 -133.15 -37.5 -133.45 Q-35.3 -135.6 -32.55 -136.2 L-17.2 -135.7 Q-16.6 -135.65 -16.5 -135.05 L-16.4 -134.4 Q-16.55 -133.9 -16.95 -133.5 -17.15 -133.3 -17.4 -133.3" fill="#666666" fill-rule="evenodd" stroke="none"/>
  </g>
</svg>
