<?xml version="1.0" encoding="UTF-8" standalone="no"?>
<svg xmlns:ffdec="https://www.free-decompiler.com/flash" xmlns:xlink="http://www.w3.org/1999/xlink" ffdec:objectType="shape" height="53.0px" width="82.95px" xmlns="http://www.w3.org/2000/svg">
  <g transform="matrix(1.0, 0.0, 0.0, 1.0, 34.9, 175.65)">
    <path d="M41.3 -157.1 L40.5 -157.5 34.75 -144.95 32.1 -140.3 Q31.45 -139.35 30.4 -139.25 26.6 -138.75 23.0 -139.75 L8.85 -144.0 Q5.9 -140.75 3.5 -137.15 L-1.35 -129.25 Q-2.1 -124.65 -5.8 -122.7 -6.15 -122.5 -6.5 -122.9 -8.05 -124.6 -6.35 -126.3 -4.25 -132.3 -0.45 -137.45 L0.55 -138.7 0.6 -139.0 0.65 -139.25 0.7 -139.5 Q4.0 -144.15 7.8 -148.35 L8.55 -148.8 9.15 -148.6 9.4 -148.75 Q15.9 -152.15 23.0 -153.8 21.85 -159.15 21.05 -164.6 L20.15 -169.8 Q18.0 -174.35 23.35 -174.85 L28.5 -175.65 Q32.25 -174.4 28.85 -172.25 28.25 -171.85 27.5 -171.75 L23.8 -171.0 Q25.0 -163.45 26.5 -155.85 26.95 -153.4 26.15 -151.2 26.0 -150.65 25.4 -150.55 L21.8 -150.0 12.7 -146.5 Q20.7 -144.1 28.85 -142.6 30.1 -144.15 30.9 -146.0 L32.55 -149.05 32.65 -149.3 32.7 -149.55 32.75 -149.85 32.95 -150.1 33.15 -150.35 33.35 -150.6 33.5 -151.4 34.2 -152.45 34.4 -152.65 36.4 -157.55 Q37.2 -159.6 38.45 -161.35 L38.7 -161.45 39.2 -161.5 39.2 -161.55 Q44.25 -160.6 47.75 -157.2 48.35 -156.65 47.8 -155.95 46.45 -154.2 44.7 -155.7 42.95 -156.25 41.3 -157.1 M-13.25 -133.55 Q-12.5 -132.85 -13.25 -132.0 -14.3 -130.85 -15.95 -131.0 L-29.35 -130.35 Q-31.15 -127.05 -34.35 -129.1 -35.0 -129.5 -34.9 -130.35 L-34.85 -131.4 -34.75 -131.9 Q-31.9 -134.5 -27.65 -134.7 L-19.7 -135.0 Q-15.75 -135.95 -13.25 -133.55" fill="#666666" fill-rule="evenodd" stroke="none"/>
  </g>
</svg>
