<?xml version="1.0" encoding="UTF-8" standalone="no"?>
<svg xmlns:ffdec="https://www.free-decompiler.com/flash" xmlns:xlink="http://www.w3.org/1999/xlink" ffdec:objectType="shape" height="40.3px" width="172.05px" xmlns="http://www.w3.org/2000/svg">
  <g transform="matrix(1.0, 0.0, 0.0, 1.0, 86.0, 21.15)">
    <path d="M5.3 -6.3 L5.3 -0.6 5.3 -6.3 M1.1 -6.85 L5.3 -6.85 1.1 -6.85 M14.3 -4.5 L8.2 -4.5 8.2 -3.6 8.2 -0.3 8.2 0.6 8.2 3.9 -17.45 3.9 -17.45 1.8 -17.45 3.9 -28.65 3.9 -29.15 3.6 -33.35 3.6 -33.35 3.9 -33.85 3.9 -34.4 3.9 -34.4 3.75 -39.95 3.75 -39.95 3.9 -86.0 3.9 -86.0 -8.65 -18.9 -8.65 -18.9 -7.0 -18.9 -6.85 -4.6 -6.85 -4.6 -7.0 -4.6 -8.65 -1.85 -8.65 -1.3 -8.65 -1.3 -8.2 10.05 -8.2 10.05 -8.65 25.3 -8.65 25.3 -6.0 25.3 -5.7 25.3 -3.75 25.3 -3.45 32.85 -3.45 32.85 -3.75 32.85 -5.7 32.85 -6.0 32.85 -8.65 38.65 -8.65 38.65 -6.75 38.65 -6.6 38.65 -5.7 38.65 -5.55 43.15 -5.55 43.15 -5.7 43.15 -6.6 43.15 -6.75 43.45 -6.75 43.45 -8.45 47.5 -8.45 48.25 -8.65 86.05 -8.65 86.05 3.9 49.5 3.9 49.5 2.4 24.9 2.4 49.5 2.4 49.5 3.9 15.9 3.9 15.9 0.6 15.9 -0.3 15.9 -3.6 15.9 -4.5 14.3 -4.5 14.3 -5.7 13.8 -5.7 14.3 -5.7 14.3 -4.5 M-1.85 -3.6 L-1.85 -8.65 -1.85 -3.6 M21.75 -5.7 L25.3 -5.7 21.75 -5.7 14.3 -5.7 21.75 -5.7 M38.65 -5.7 L32.85 -5.7 38.65 -5.7 M21.75 -0.3 L15.9 -0.3 21.75 -0.3 42.35 -0.3 21.75 -0.3 M75.7 -5.7 L43.15 -5.7 75.7 -5.7 M60.9 2.4 L49.5 2.4 49.5 -1.8 49.5 2.4 60.9 2.4 M-0.75 -0.3 L-33.85 -0.3 -33.85 3.9 -33.85 -0.3 -0.75 -0.3 8.2 -0.3 -0.75 -0.3 M-34.9 -3.3 L-2.35 -3.3 -34.9 -3.3 -42.35 -3.3 -34.9 -3.3 M-67.2 -1.8 L-39.95 -1.8 -67.2 -1.8 M-0.75 1.5 L-16.9 1.5 -0.75 1.5 5.05 1.5 -0.75 1.5" fill="url(#gradient0)" fill-rule="evenodd" stroke="none"/>
    <path d="M10.05 -8.65 L10.05 -8.2 -1.3 -8.2 -1.3 -8.65 -1.3 -19.0 10.05 -19.0 10.05 -8.65" fill="url(#gradient1)" fill-rule="evenodd" stroke="none"/>
    <path d="M8.2 0.6 L8.2 -0.3 8.2 -3.6 14.3 -3.6 15.9 -3.6 15.9 -0.3 15.9 0.6 8.2 0.6 15.9 0.6 15.9 3.9 15.9 4.65 15.9 4.8 8.2 4.8 8.2 4.65 8.2 3.9 8.2 0.6 M14.3 -2.4 L14.3 -3.6 14.3 -2.4" fill="url(#gradient2)" fill-rule="evenodd" stroke="none"/>
    <path d="M25.3 -3.75 L25.3 -5.7 25.3 -6.0 32.85 -6.0 25.3 -6.0 25.3 -8.65 25.3 -8.95 32.85 -8.95 32.85 -8.65 32.85 -6.0 32.85 -5.7 32.85 -3.75 25.3 -3.75" fill="url(#gradient3)" fill-rule="evenodd" stroke="none"/>
    <path d="M38.65 -6.75 L38.95 -6.75 43.15 -6.75 43.15 -6.6 38.65 -6.6 38.65 -6.75" fill="url(#gradient4)" fill-rule="evenodd" stroke="none"/>
    <path d="M38.95 -6.75 L38.95 -9.7 43.3 -9.7 43.45 -9.7 43.45 -8.45 43.45 -6.75 43.15 -6.75 38.95 -6.75" fill="url(#gradient5)" fill-rule="evenodd" stroke="none"/>
    <path d="M43.3 -9.7 L43.3 -9.8 58.6 -14.6 66.2 -14.6 66.45 -14.35 48.25 -8.65 47.5 -8.45 43.45 -8.45 43.45 -9.7 43.3 -9.7" fill="url(#gradient6)" fill-rule="evenodd" stroke="none"/>
    <path d="M15.9 4.65 L33.65 4.65 33.65 6.4 15.9 6.4 15.9 5.55 15.9 4.8 15.9 4.65 M8.2 6.4 L-17.05 6.4 -17.05 4.65 8.2 4.65 8.2 4.8 8.2 5.55 8.2 6.4" fill="url(#gradient7)" fill-rule="evenodd" stroke="none"/>
    <path d="M15.9 5.55 L15.9 6.4 15.9 7.3 8.2 7.3 8.2 6.4 8.2 5.55 15.9 5.55" fill="url(#gradient8)" fill-rule="evenodd" stroke="none"/>
    <path d="M-18.9 -7.0 L-18.9 -8.65 -18.9 -8.8 -4.6 -8.8 -4.6 -8.65 -4.6 -7.0 -18.9 -7.0" fill="url(#gradient9)" fill-rule="evenodd" stroke="none"/>
    <path d="M-28.65 3.9 L-10.2 15.1 -12.15 19.15 -33.35 6.25 -33.35 3.9 -33.35 3.6 -29.15 3.6 -28.65 3.9" fill="url(#gradient10)" fill-rule="evenodd" stroke="none"/>
    <path d="M-39.95 3.9 L-39.95 3.75 -34.4 3.75 -34.4 3.9 -34.4 10.6 -39.95 10.6 -39.95 3.9" fill="url(#gradient11)" fill-rule="evenodd" stroke="none"/>
    <path d="M5.3 -6.85 L1.1 -6.85 M5.3 -0.6 L5.3 -6.3 M14.3 -4.5 L14.3 -5.7 13.8 -5.7 M8.2 0.6 L15.9 0.6 M14.3 -3.6 L14.3 -2.4 M21.75 -5.7 L14.3 -5.7 M15.9 -0.3 L21.75 -0.3 M-0.75 -0.3 L8.2 -0.3 M-0.75 1.5 L5.05 1.5" fill="none" stroke="#006600" stroke-linecap="round" stroke-linejoin="round" stroke-width="4.0"/>
    <path d="M25.3 -5.7 L21.75 -5.7 M32.85 -6.0 L25.3 -6.0 M38.65 -6.75 L38.95 -6.75 43.15 -6.75 M49.5 3.9 L49.5 5.95 M32.85 -5.7 L38.65 -5.7 M21.75 -0.3 L42.35 -0.3 M43.15 -5.7 L75.7 -5.7 M49.5 -1.8 L49.5 2.4 60.9 2.4 M49.5 3.9 L49.5 2.4 24.9 2.4" fill="none" stroke="#003300" stroke-linecap="round" stroke-linejoin="round" stroke-width="4.0"/>
    <path d="M-1.85 -8.65 L-1.85 -3.6 M-17.45 3.9 L-17.45 5.65 M-33.85 3.9 L-33.85 -0.3 -0.75 -0.3 M-1.85 -8.65 L-1.85 -19.15 M-2.35 -3.3 L-34.9 -3.3 M-16.9 1.5 L-0.75 1.5 M-17.45 3.9 L-17.45 1.8 M-33.85 3.9 L-33.85 10.45" fill="none" stroke="#009900" stroke-linecap="round" stroke-linejoin="round" stroke-width="4.0"/>
    <path d="M-34.9 -3.3 L-42.35 -3.3 M-39.95 -1.8 L-67.2 -1.8" fill="none" stroke="#00cc00" stroke-linecap="round" stroke-linejoin="round" stroke-width="4.0"/>
  </g>
  <defs>
    <radialGradient cx="0" cy="0" gradientTransform="matrix(-0.2564, 0.0, 0.0, 0.2894, -100.3, -8.7)" gradientUnits="userSpaceOnUse" id="gradient0" r="819.2" spreadMethod="pad">
      <stop offset="0.0" stop-color="#00cc00"/>
      <stop offset="0.6196078431372549" stop-color="#006600"/>
      <stop offset="0.8862745098039215" stop-color="#000000"/>
    </radialGradient>
    <linearGradient gradientTransform="matrix(-0.0051, 0.0036, 0.0046, 0.0082, 4.3, -13.55)" gradientUnits="userSpaceOnUse" id="gradient1" spreadMethod="pad" x1="-819.2" x2="819.2">
      <stop offset="0.4745098039215686" stop-color="#000000"/>
      <stop offset="1.0" stop-color="#006600"/>
    </linearGradient>
    <radialGradient cx="0" cy="0" gradientTransform="matrix(-0.2564, 0.0, 0.0, 0.2894, -100.3, -7.8)" gradientUnits="userSpaceOnUse" id="gradient2" r="819.2" spreadMethod="pad">
      <stop offset="0.0" stop-color="#00cc00"/>
      <stop offset="0.6196078431372549" stop-color="#006600"/>
      <stop offset="0.8862745098039215" stop-color="#000000"/>
    </radialGradient>
    <radialGradient cx="0" cy="0" gradientTransform="matrix(-0.2564, 0.0, 0.0, 0.2894, -100.3, -9.0)" gradientUnits="userSpaceOnUse" id="gradient3" r="819.2" spreadMethod="pad">
      <stop offset="0.0" stop-color="#00cc00"/>
      <stop offset="0.6196078431372549" stop-color="#006600"/>
      <stop offset="0.8862745098039215" stop-color="#000000"/>
    </radialGradient>
    <radialGradient cx="0" cy="0" gradientTransform="matrix(-0.2564, 0.0, 0.0, 0.2894, -100.3, -9.75)" gradientUnits="userSpaceOnUse" id="gradient4" r="819.2" spreadMethod="pad">
      <stop offset="0.0" stop-color="#00cc00"/>
      <stop offset="0.6196078431372549" stop-color="#006600"/>
      <stop offset="0.8862745098039215" stop-color="#000000"/>
    </radialGradient>
    <radialGradient cx="0" cy="0" gradientTransform="matrix(-0.2564, 0.0, 0.0, 0.2894, -100.05, -9.75)" gradientUnits="userSpaceOnUse" id="gradient5" r="819.2" spreadMethod="pad">
      <stop offset="0.0" stop-color="#00cc00"/>
      <stop offset="0.6196078431372549" stop-color="#006600"/>
      <stop offset="0.8862745098039215" stop-color="#000000"/>
    </radialGradient>
    <radialGradient cx="0" cy="0" gradientTransform="matrix(-0.0269, 0.0084, -0.0145, -0.0157, 43.7, -8.3)" gradientUnits="userSpaceOnUse" id="gradient6" r="819.2" spreadMethod="pad">
      <stop offset="0.32941176470588235" stop-color="#006600"/>
      <stop offset="1.0" stop-color="#000000"/>
    </radialGradient>
    <linearGradient gradientTransform="matrix(-0.0231, 5.0E-4, 0.0, 0.0017, 4.15, 5.6)" gradientUnits="userSpaceOnUse" id="gradient7" spreadMethod="pad" x1="-819.2" x2="819.2">
      <stop offset="0.4745098039215686" stop-color="#000000"/>
      <stop offset="1.0" stop-color="#006600"/>
    </linearGradient>
    <linearGradient gradientTransform="matrix(-0.0231, 5.0E-4, 0.0, 0.0017, 4.15, 6.5)" gradientUnits="userSpaceOnUse" id="gradient8" spreadMethod="pad" x1="-819.2" x2="819.2">
      <stop offset="0.4745098039215686" stop-color="#000000"/>
      <stop offset="1.0" stop-color="#006600"/>
    </linearGradient>
    <radialGradient cx="0" cy="0" gradientTransform="matrix(-0.2564, 0.0, 0.0, 0.2894, -100.3, -8.85)" gradientUnits="userSpaceOnUse" id="gradient9" r="819.2" spreadMethod="pad">
      <stop offset="0.0" stop-color="#00cc00"/>
      <stop offset="0.6196078431372549" stop-color="#006600"/>
      <stop offset="0.8862745098039215" stop-color="#000000"/>
    </radialGradient>
    <radialGradient cx="0" cy="0" gradientTransform="matrix(-0.0269, -0.0164, -0.0145, 0.0304, -32.95, 3.35)" gradientUnits="userSpaceOnUse" id="gradient10" r="819.2" spreadMethod="pad">
      <stop offset="0.32941176470588235" stop-color="#006600"/>
      <stop offset="1.0" stop-color="#000000"/>
    </radialGradient>
    <radialGradient cx="0" cy="0" gradientTransform="matrix(-0.0121, 0.0, 0.0, 0.0137, -33.2, 2.4)" gradientUnits="userSpaceOnUse" id="gradient11" r="819.2" spreadMethod="pad">
      <stop offset="0.32941176470588235" stop-color="#006600"/>
      <stop offset="1.0" stop-color="#000000"/>
    </radialGradient>
  </defs>
</svg>
