<?xml version="1.0" encoding="UTF-8" standalone="no"?>
<svg xmlns:ffdec="https://www.free-decompiler.com/flash" xmlns:xlink="http://www.w3.org/1999/xlink" ffdec:objectType="shape" height="52.8px" width="80.1px" xmlns="http://www.w3.org/2000/svg">
  <g transform="matrix(1.0, 0.0, 0.0, 1.0, 32.4, 171.75)">
    <path d="M41.85 -151.5 Q41.55 -150.55 40.45 -149.4 L39.3 -147.75 37.0 -142.75 Q36.7 -138.85 33.35 -137.25 L33.1 -137.3 Q31.9 -136.8 29.95 -137.9 26.85 -139.7 23.65 -141.3 18.35 -142.8 13.0 -143.45 12.55 -142.6 11.4 -141.65 L11.15 -141.4 Q6.4 -134.15 0.2 -127.95 -1.55 -124.3 -4.95 -124.0 -5.3 -124.0 -5.65 -124.3 L-5.7 -124.95 -5.75 -125.85 Q-2.95 -129.75 0.8 -132.75 L0.9 -133.05 1.05 -133.7 Q4.25 -138.3 8.0 -142.45 9.0 -144.45 10.65 -146.15 L10.95 -146.4 11.15 -146.45 Q12.1 -148.0 14.7 -148.35 L17.4 -148.95 26.7 -151.35 Q25.25 -159.3 25.1 -167.45 L25.1 -168.4 25.2 -168.6 Q25.1 -171.6 28.85 -171.3 L30.3 -171.5 30.85 -171.6 Q33.35 -172.25 34.0 -170.15 L34.05 -169.85 Q31.55 -167.4 28.45 -167.6 29.35 -165.9 28.95 -163.35 28.45 -159.85 29.35 -156.6 30.15 -153.75 29.55 -150.9 L29.85 -150.15 29.9 -149.85 Q25.7 -146.65 19.95 -145.8 L19.35 -145.7 Q25.9 -144.6 31.65 -140.95 L31.75 -140.85 32.35 -140.75 33.1 -141.55 33.35 -141.8 35.35 -147.75 35.6 -148.7 Q37.2 -151.95 39.7 -154.0 L39.95 -154.2 40.4 -154.55 40.6 -154.4 40.85 -154.45 40.85 -154.55 Q45.1 -155.5 47.4 -152.7 48.05 -151.95 47.25 -151.25 L46.25 -150.55 41.85 -151.5 M30.6 -124.5 Q33.8 -121.65 30.6 -119.45 29.85 -118.95 28.75 -118.95 27.85 -119.0 27.3 -119.7 L27.2 -120.05 27.2 -121.3 27.3 -121.9 14.9 -121.9 12.9 -121.9 Q12.0 -121.9 11.45 -122.65 L11.4 -122.95 Q11.5 -125.3 14.15 -125.3 L14.15 -125.35 29.9 -124.85 Q30.25 -124.85 30.6 -124.5 M-9.8 -134.6 L-9.7 -134.0 Q-9.95 -133.1 -10.8 -133.05 L-20.1 -132.05 -24.8 -131.2 -24.75 -130.85 Q-24.65 -129.45 -26.05 -128.85 -29.65 -127.2 -32.3 -129.3 L-32.4 -129.6 -32.4 -130.85 -32.3 -131.5 Q-29.85 -133.65 -26.45 -134.5 L-21.2 -135.6 -20.45 -135.75 -10.55 -135.3 Q-9.95 -135.25 -9.8 -134.6" fill="#666666" fill-rule="evenodd" stroke="none"/>
  </g>
</svg>
