<?xml version="1.0" encoding="UTF-8" standalone="no"?>
<svg xmlns:ffdec="https://www.free-decompiler.com/flash" xmlns:xlink="http://www.w3.org/1999/xlink" ffdec:objectType="shape" height="51.7px" width="80.8px" xmlns="http://www.w3.org/2000/svg">
  <g transform="matrix(1.0, 0.0, 0.0, 1.0, 28.9, 167.4)">
    <path d="M41.45 -165.95 Q41.65 -164.25 39.9 -163.9 L35.95 -163.7 Q36.05 -162.9 35.75 -161.9 35.4 -160.7 35.4 -159.4 35.2 -153.4 33.9 -147.6 33.65 -146.45 32.8 -146.55 L32.0 -145.8 Q31.45 -145.35 30.75 -145.25 L20.8 -142.85 21.2 -142.7 21.3 -142.6 Q26.4 -141.15 30.4 -137.6 L30.95 -137.1 32.65 -136.35 Q35.05 -140.2 38.1 -143.55 L38.15 -143.85 38.2 -144.1 38.25 -144.35 Q40.65 -147.6 44.1 -149.15 L44.5 -149.5 45.4 -149.85 Q49.05 -148.55 51.6 -145.8 52.0 -145.35 51.85 -144.7 51.0 -141.85 48.5 -143.65 L45.4 -145.85 45.1 -145.7 44.1 -145.3 Q43.2 -144.05 41.9 -143.2 L41.6 -142.95 35.45 -133.75 Q35.9 -133.15 35.1 -132.65 32.95 -131.25 30.8 -132.9 26.4 -136.1 21.65 -138.45 L19.9 -139.1 Q17.8 -139.55 16.35 -140.85 L16.15 -140.7 14.1 -138.7 Q8.95 -133.5 5.45 -127.05 4.8 -123.65 2.35 -121.45 L1.35 -121.35 Q0.0 -121.95 0.25 -123.4 0.55 -125.5 1.9 -127.05 2.5 -130.35 4.55 -133.15 5.15 -134.0 6.15 -134.55 L6.15 -134.8 6.2 -135.05 Q9.55 -139.35 13.4 -143.1 L13.75 -143.4 13.8 -143.65 Q15.65 -145.4 18.35 -145.55 24.4 -147.9 30.8 -149.05 L30.85 -149.45 Q32.0 -156.95 32.05 -164.65 L32.75 -165.45 32.85 -165.5 32.85 -165.55 Q33.4 -167.4 35.4 -167.4 L40.55 -166.95 Q41.4 -166.85 41.45 -165.95 M12.85 -120.1 Q13.5 -122.0 15.8 -122.05 L20.95 -122.65 Q26.25 -123.4 31.25 -122.0 35.7 -120.75 34.2 -116.6 33.9 -115.8 33.0 -115.7 30.05 -115.5 30.25 -118.25 25.1 -120.2 18.95 -118.45 15.7 -117.5 13.15 -119.1 12.6 -119.45 12.85 -120.1 M-4.25 -130.25 Q-7.3 -128.45 -10.5 -129.95 -15.95 -130.25 -21.25 -128.25 L-22.1 -128.0 Q-23.9 -123.8 -28.2 -126.0 -29.25 -126.55 -28.75 -127.7 -27.8 -129.85 -25.6 -130.65 -20.0 -132.75 -14.2 -133.65 L-8.7 -133.3 -8.05 -133.05 Q-5.25 -133.85 -3.9 -131.95 -3.15 -130.9 -4.25 -130.25" fill="#666666" fill-rule="evenodd" stroke="none"/>
  </g>
</svg>
