<?xml version="1.0" encoding="UTF-8" standalone="no"?>
<svg xmlns:ffdec="https://www.free-decompiler.com/flash" xmlns:xlink="http://www.w3.org/1999/xlink" ffdec:objectType="shape" height="51.0px" width="84.9px" xmlns="http://www.w3.org/2000/svg">
  <g transform="matrix(1.0, 0.0, 0.0, 1.0, 23.8, 159.5)">
    <path d="M42.6 -158.35 Q42.75 -158.95 43.4 -159.2 L44.35 -159.5 49.85 -159.0 Q50.7 -158.9 50.8 -158.0 51.1 -156.05 49.15 -155.9 L45.4 -155.85 Q44.35 -150.4 44.25 -144.75 44.15 -141.2 41.0 -140.25 L38.2 -139.4 27.85 -136.85 Q33.35 -132.8 39.4 -129.15 L41.7 -131.65 43.25 -133.2 43.3 -133.45 43.35 -133.75 43.4 -134.0 43.8 -134.55 44.5 -135.55 44.7 -135.8 Q46.25 -138.8 48.65 -141.4 L50.85 -143.8 51.6 -143.95 51.6 -144.0 Q57.1 -142.45 60.65 -137.75 61.85 -136.1 59.95 -135.45 58.15 -134.8 56.85 -136.35 55.05 -138.45 52.7 -140.0 47.45 -133.75 42.55 -127.2 39.8 -123.5 35.9 -126.5 L28.4 -132.15 24.4 -135.15 24.2 -135.0 Q15.85 -128.65 10.95 -119.65 L9.7 -117.2 Q9.4 -116.5 8.6 -116.65 6.2 -117.25 7.05 -119.9 7.85 -122.45 9.5 -124.6 L9.55 -124.85 9.6 -125.1 9.65 -125.4 Q15.5 -133.2 23.5 -139.0 24.15 -139.45 24.75 -139.5 26.4 -140.55 28.6 -140.85 L32.85 -141.85 40.25 -143.7 Q40.35 -147.85 41.15 -151.75 L42.6 -158.35 M0.3 -128.1 Q-1.35 -126.15 -4.4 -126.8 L-8.35 -127.2 Q-12.95 -127.25 -17.3 -125.7 -17.85 -122.95 -20.9 -122.35 -22.6 -122.0 -23.4 -123.6 -24.0 -124.75 -23.75 -126.05 -19.9 -129.75 -14.45 -130.45 L-8.35 -130.9 Q-3.35 -131.75 0.2 -129.35 0.9 -128.8 0.3 -128.1 M17.4 -113.65 Q17.5 -115.5 19.25 -115.75 L29.9 -115.2 33.75 -114.6 Q37.55 -113.6 37.35 -110.05 37.25 -109.0 36.25 -108.7 33.3 -107.85 33.0 -110.45 31.25 -111.65 28.8 -112.0 23.75 -112.75 18.85 -112.25 17.3 -112.1 17.4 -113.65" fill="#666666" fill-rule="evenodd" stroke="none"/>
  </g>
</svg>
