<?xml version="1.0" encoding="UTF-8" standalone="no"?>
<svg xmlns:ffdec="https://www.free-decompiler.com/flash" xmlns:xlink="http://www.w3.org/1999/xlink" ffdec:objectType="shape" height="46.9px" width="90.2px" xmlns="http://www.w3.org/2000/svg">
  <g transform="matrix(1.0, 0.0, 0.0, 1.0, 17.0, 147.3)">
    <path d="M31.85 -129.5 Q33.25 -130.95 36.15 -131.25 L52.1 -132.0 52.55 -132.0 54.2 -136.3 54.4 -136.9 54.6 -137.2 55.1 -137.85 Q55.3 -139.0 55.85 -140.1 L56.05 -140.65 59.3 -145.5 59.3 -145.65 Q59.4 -146.45 60.1 -146.8 L60.35 -146.9 60.85 -146.95 60.85 -147.0 Q65.2 -148.0 68.3 -145.6 L68.65 -144.85 Q67.8 -142.85 65.4 -143.3 L62.35 -143.9 Q62.1 -143.0 61.25 -141.95 L59.6 -139.65 59.05 -139.0 Q57.25 -133.6 54.0 -129.2 53.8 -128.95 53.35 -128.95 L53.05 -129.0 52.1 -128.8 Q44.5 -129.0 37.2 -127.45 38.5 -126.75 39.65 -125.7 L39.8 -125.45 Q46.15 -121.7 52.8 -118.5 53.7 -119.9 55.2 -121.05 L67.2 -130.15 67.4 -130.2 67.9 -130.3 67.95 -130.35 68.35 -130.35 69.2 -130.1 Q71.0 -129.35 72.45 -127.6 74.3 -125.4 71.7 -124.3 69.65 -125.4 68.25 -127.0 63.5 -122.6 58.3 -118.65 L55.1 -115.7 Q54.05 -114.55 52.95 -114.7 L52.9 -114.7 52.8 -114.75 51.85 -115.2 Q41.8 -120.1 32.35 -126.15 31.4 -125.55 30.1 -125.45 26.75 -123.45 23.0 -122.1 L11.75 -116.3 Q8.95 -113.05 5.6 -114.7 5.6 -117.15 8.25 -118.45 L12.25 -120.45 Q18.55 -123.65 25.0 -126.4 28.1 -128.7 31.65 -129.5 L31.85 -129.5 M6.45 -127.55 L6.55 -126.9 Q6.2 -125.7 5.0 -125.7 L-9.7 -124.95 -10.1 -124.6 -10.2 -124.3 Q-11.2 -120.3 -15.45 -121.0 L-16.1 -121.25 -16.9 -121.8 -16.95 -122.1 -17.0 -124.0 -17.0 -124.6 -16.6 -125.25 Q-14.55 -128.1 -10.55 -128.25 L-7.0 -128.55 -6.25 -128.7 5.7 -128.2 Q6.3 -128.15 6.45 -127.55 M21.45 -110.15 L21.6 -110.4 21.9 -110.75 22.2 -110.95 22.4 -111.05 22.9 -111.1 22.9 -111.15 Q32.35 -111.2 40.8 -107.2 L40.95 -107.1 41.65 -106.95 Q42.65 -106.75 43.55 -106.2 L44.6 -105.55 44.8 -104.9 44.95 -104.0 44.9 -102.75 Q44.95 -101.9 44.6 -101.15 44.05 -100.65 43.35 -100.5 41.75 -100.15 40.55 -101.1 L40.2 -101.4 40.15 -101.7 40.1 -102.65 40.1 -102.95 40.1 -103.25 40.1 -103.55 Q33.75 -107.4 25.7 -107.45 23.25 -107.45 21.45 -108.9 L21.35 -109.2 21.45 -110.15" fill="#666666" fill-rule="evenodd" stroke="none"/>
  </g>
</svg>
