<?xml version="1.0" encoding="UTF-8" standalone="no"?>
<svg xmlns:ffdec="https://www.free-decompiler.com/flash" xmlns:xlink="http://www.w3.org/1999/xlink" ffdec:objectType="shape" height="38.85px" width="93.95px" xmlns="http://www.w3.org/2000/svg">
  <g transform="matrix(1.0, 0.0, 0.0, 1.0, 9.7, 129.9)">
    <path d="M84.05 -124.85 Q82.05 -122.65 78.95 -124.7 L76.4 -126.4 76.05 -126.1 Q71.55 -121.8 66.15 -118.25 63.2 -116.4 60.05 -116.2 59.45 -115.95 58.7 -116.2 52.75 -118.05 46.6 -119.1 L47.8 -118.15 Q51.9 -116.2 55.75 -113.55 L59.0 -111.2 59.6 -110.7 72.8 -115.25 Q74.4 -115.8 75.95 -116.65 L76.4 -116.8 76.65 -116.7 76.75 -116.75 76.75 -116.8 Q79.25 -115.65 80.5 -113.25 L80.55 -113.0 Q83.8 -110.8 81.25 -108.7 L80.2 -108.6 Q78.4 -109.35 77.4 -111.1 L76.25 -112.85 Q72.45 -110.3 67.85 -109.35 64.35 -108.65 61.0 -107.45 L58.0 -107.5 57.75 -107.6 Q57.0 -107.95 56.45 -108.5 49.5 -113.35 41.9 -117.0 40.85 -117.5 40.05 -118.35 L38.55 -118.65 Q31.85 -117.0 25.65 -114.3 L20.05 -111.8 14.95 -109.6 Q14.55 -109.4 14.1 -109.8 13.05 -110.65 13.45 -111.95 16.5 -114.7 20.5 -116.05 21.15 -116.25 21.8 -116.6 30.45 -120.85 39.9 -122.65 L41.2 -122.5 41.6 -122.6 41.6 -122.65 Q49.55 -123.15 56.95 -120.5 L59.8 -119.45 Q59.95 -119.4 60.15 -119.3 67.85 -123.6 74.6 -129.7 L75.35 -129.85 75.35 -129.9 75.95 -129.8 76.05 -129.85 76.05 -129.9 Q81.15 -129.2 84.15 -125.4 84.35 -125.15 84.05 -124.85 M2.65 -123.6 Q-0.6 -124.55 -3.95 -124.9 -4.65 -123.55 -6.25 -123.45 -10.2 -123.2 -9.65 -127.1 -9.5 -127.9 -8.75 -128.35 L-8.5 -128.4 -8.0 -128.45 -8.0 -128.5 Q2.7 -129.1 11.35 -123.25 12.9 -122.2 11.75 -120.8 10.5 -119.3 8.85 -120.5 L5.45 -122.65 2.65 -123.6 M26.4 -103.5 Q26.35 -104.65 27.4 -105.25 L27.65 -105.3 28.15 -105.35 28.2 -105.4 Q29.5 -105.15 30.4 -104.2 L30.6 -104.05 Q38.85 -101.2 44.75 -95.2 L45.2 -94.15 Q45.45 -91.85 43.35 -91.25 40.5 -90.45 39.5 -92.6 38.95 -93.85 39.55 -95.1 L37.65 -96.65 37.5 -96.8 Q31.65 -99.3 26.65 -102.95 26.4 -103.1 26.4 -103.5" fill="#666666" fill-rule="evenodd" stroke="none"/>
  </g>
</svg>
