<?xml version="1.0" encoding="UTF-8" standalone="no"?>
<svg xmlns:ffdec="https://www.free-decompiler.com/flash" xmlns:xlink="http://www.w3.org/1999/xlink" ffdec:objectType="shape" height="42.25px" width="92.75px" xmlns="http://www.w3.org/2000/svg">
  <g transform="matrix(1.0, 0.0, 0.0, 1.0, 6.15, 125.75)">
    <path d="M86.6 -115.25 Q85.25 -111.95 82.4 -114.8 81.35 -115.85 80.1 -116.6 78.25 -115.05 75.55 -114.6 73.85 -113.35 71.8 -112.95 68.45 -110.5 64.75 -109.0 64.45 -108.5 63.85 -108.4 61.3 -107.95 58.9 -109.15 L58.25 -109.6 49.55 -111.35 50.8 -109.6 52.4 -107.0 Q56.1 -103.7 58.5 -99.5 L76.6 -99.3 77.85 -99.1 Q79.2 -99.0 79.45 -97.6 L79.5 -97.3 Q80.95 -95.25 81.35 -92.65 81.4 -92.15 81.6 -91.7 L81.5 -91.35 81.35 -91.05 81.25 -90.75 Q79.65 -89.4 78.15 -90.95 L77.8 -93.5 77.5 -94.4 76.7 -95.65 76.25 -95.65 58.55 -96.8 Q56.0 -96.3 54.35 -99.2 52.25 -102.75 49.5 -105.8 L44.6 -111.6 Q43.65 -112.0 42.85 -112.65 32.65 -112.25 23.0 -108.8 L22.7 -108.5 Q19.65 -106.05 16.85 -107.2 L16.8 -107.55 16.75 -108.15 16.75 -108.8 Q19.2 -111.3 22.8 -112.35 L31.75 -114.75 34.15 -115.35 42.95 -115.0 43.75 -115.35 44.15 -115.2 44.6 -115.3 44.6 -115.35 Q51.9 -114.6 59.05 -112.45 L62.85 -111.55 63.0 -111.5 Q64.0 -112.75 65.85 -113.55 68.2 -114.55 70.45 -115.85 L71.75 -116.5 79.2 -119.5 80.1 -119.4 80.45 -119.45 80.45 -119.5 Q84.3 -119.05 86.45 -115.55 L86.6 -115.25 M16.55 -119.2 L16.45 -118.9 16.35 -118.55 16.25 -118.25 Q15.55 -117.55 14.6 -117.8 13.4 -118.05 12.3 -118.65 11.2 -119.25 10.3 -120.05 L3.8 -121.35 -1.05 -122.0 Q-0.9 -120.85 -2.0 -120.35 -5.4 -118.8 -6.05 -122.15 -6.25 -123.1 -6.05 -124.0 L-5.85 -124.3 -4.9 -125.2 -4.45 -125.5 -3.75 -125.75 Q5.85 -125.75 14.3 -121.9 16.05 -121.1 16.55 -119.2 M28.45 -100.85 Q28.65 -101.5 29.3 -101.75 L30.0 -102.0 Q36.0 -98.5 40.1 -92.9 42.65 -89.4 42.5 -85.25 42.4 -82.8 39.7 -83.75 36.75 -84.75 37.8 -88.0 L38.15 -88.65 Q37.95 -89.95 37.0 -90.9 L36.45 -91.5 36.4 -91.8 36.35 -92.1 36.25 -92.4 Q31.95 -95.75 28.65 -100.0 28.35 -100.35 28.45 -100.85" fill="#666666" fill-rule="evenodd" stroke="none"/>
  </g>
</svg>
