<?xml version="1.0" encoding="UTF-8" standalone="no"?>
<svg xmlns:ffdec="https://www.free-decompiler.com/flash" xmlns:xlink="http://www.w3.org/1999/xlink" ffdec:objectType="shape" height="47.9px" width="89.4px" xmlns="http://www.w3.org/2000/svg">
  <g transform="matrix(1.0, 0.0, 0.0, 1.0, 4.45, 124.7)">
    <path d="M11.75 -117.1 Q11.35 -117.2 11.0 -117.4 L8.4 -118.75 8.3 -118.85 Q7.35 -118.95 6.5 -119.4 4.65 -120.35 2.6 -120.9 1.8 -119.45 0.2 -119.0 -2.65 -118.15 -4.35 -120.55 L-4.4 -120.8 -4.45 -121.6 -4.4 -122.35 -4.35 -122.6 -4.2 -122.9 -3.2 -124.1 Q-2.7 -124.7 -2.05 -124.7 6.5 -124.7 13.95 -120.3 15.9 -119.1 17.45 -117.5 20.05 -114.7 16.5 -113.95 15.55 -113.75 14.85 -114.55 13.5 -116.1 11.75 -117.1 M36.9 -106.8 L46.15 -106.4 Q48.0 -106.3 48.95 -105.55 L49.1 -105.6 49.65 -105.75 Q54.8 -101.9 58.95 -96.8 L59.2 -96.55 81.7 -93.6 Q82.3 -93.55 82.55 -92.9 L84.75 -87.2 Q85.6 -85.0 83.05 -85.0 81.25 -85.0 81.3 -86.7 L81.15 -86.95 80.7 -87.5 80.65 -87.75 80.6 -88.25 80.55 -88.5 80.15 -89.05 79.95 -89.8 79.75 -90.05 79.35 -90.6 79.35 -90.75 57.5 -93.3 56.95 -93.6 Q54.1 -96.95 50.95 -99.8 L51.0 -98.0 51.35 -91.55 Q58.8 -89.35 66.65 -87.45 L68.55 -87.0 Q71.75 -86.1 71.25 -82.55 70.75 -79.15 68.25 -77.0 L67.2 -76.85 Q66.05 -77.25 66.3 -78.4 L67.55 -83.5 Q57.85 -85.95 48.3 -88.75 48.0 -88.85 48.0 -89.3 47.85 -95.05 47.05 -100.65 46.9 -101.65 47.0 -102.6 37.65 -104.35 28.05 -101.95 25.8 -101.35 24.0 -99.95 L22.45 -98.75 Q20.0 -96.7 19.6 -99.85 19.35 -101.6 21.05 -102.65 27.5 -106.7 35.5 -106.65 L36.9 -106.8 M36.75 -89.45 Q39.1 -85.5 40.4 -81.3 41.65 -77.2 37.9 -77.05 36.75 -77.0 36.25 -78.1 35.4 -80.0 36.45 -81.65 34.55 -86.25 31.5 -90.45 L30.85 -91.45 Q28.45 -92.65 29.75 -95.0 L30.25 -95.6 31.0 -95.7 31.05 -95.75 Q34.45 -93.3 36.75 -89.45" fill="#666666" fill-rule="evenodd" stroke="none"/>
  </g>
</svg>
