<?xml version="1.0" encoding="UTF-8" standalone="no"?>
<svg xmlns:ffdec="https://www.free-decompiler.com/flash" xmlns:xlink="http://www.w3.org/1999/xlink" ffdec:objectType="shape" height="40.3px" width="138.15px" xmlns="http://www.w3.org/2000/svg">
  <g transform="matrix(1.0, 0.0, 0.0, 1.0, 86.0, 21.15)">
    <path d="M-10.35 0.6 L-10.35 -0.3 -10.35 -3.6 -5.45 -3.6 -4.2 -3.6 -4.2 -0.3 -4.2 0.6 -10.35 0.6 -4.2 0.6 -4.2 3.9 -4.2 4.65 -4.2 4.8 -10.35 4.8 -10.35 4.65 -10.35 3.9 -10.35 0.6 M-5.45 -2.4 L-5.45 -3.6 -5.45 -2.4" fill="url(#gradient0)" fill-rule="evenodd" stroke="none"/>
    <path d="M-12.7 -6.3 L-12.7 -0.6 -12.7 -6.3 M-18.0 -8.65 L-18.0 -8.2 -8.9 -8.2 -8.9 -8.65 3.35 -8.65 3.35 -6.0 3.35 -5.7 3.35 -3.75 3.35 -3.45 9.45 -3.45 9.45 -3.75 9.45 -5.7 9.45 -6.0 9.45 -8.65 14.1 -8.65 14.1 -6.75 14.1 -6.6 14.1 -5.7 9.45 -5.7 14.1 -5.7 14.1 -5.55 17.7 -5.55 17.7 -5.7 17.7 -6.6 17.7 -6.75 17.95 -6.75 17.95 -8.45 21.2 -8.45 21.8 -8.65 52.15 -8.65 52.15 3.9 22.8 3.9 22.8 2.4 3.05 2.4 22.8 2.4 22.8 3.9 -4.2 3.9 -4.2 0.6 -4.2 -0.3 -4.2 -3.6 -4.2 -4.5 -5.45 -4.5 -10.35 -4.5 -10.35 -3.6 -10.35 -0.3 -10.35 0.6 -10.35 3.9 -30.95 3.9 -39.95 3.9 -40.35 3.6 -43.75 3.6 -43.75 3.9 -44.15 3.9 -44.15 -0.3 -17.55 -0.3 -44.15 -0.3 -44.15 3.9 -44.55 3.9 -44.55 3.75 -49.05 3.75 -49.05 3.9 -86.0 3.9 -86.0 -8.65 -32.15 -8.65 -32.15 -7.0 -32.15 -6.85 -20.65 -6.85 -20.65 -7.0 -20.65 -8.65 -18.45 -8.65 -18.0 -8.65 M-18.45 -3.6 L-18.45 -8.65 -18.45 -3.6 M-16.05 -6.85 L-12.7 -6.85 -16.05 -6.85 M-5.85 -5.7 L-5.45 -5.7 -5.45 -4.5 -5.45 -5.7 -5.85 -5.7 M0.5 -5.7 L3.35 -5.7 0.5 -5.7 -5.45 -5.7 0.5 -5.7 M0.5 -0.3 L-4.2 -0.3 0.5 -0.3 17.05 -0.3 0.5 -0.3 M31.95 2.4 L22.8 2.4 22.8 -1.8 22.8 2.4 31.95 2.4 M43.85 -5.7 L17.7 -5.7 43.85 -5.7 M-44.95 -3.3 L-18.85 -3.3 -44.95 -3.3 -50.95 -3.3 -44.95 -3.3 M-30.95 1.8 L-30.95 3.9 -30.95 1.8 M-70.9 -1.8 L-49.05 -1.8 -70.9 -1.8 M-17.55 1.5 L-30.5 1.5 -17.55 1.5 -12.9 1.5 -17.55 1.5 M-17.55 -0.3 L-10.35 -0.3 -17.55 -0.3" fill="url(#gradient1)" fill-rule="evenodd" stroke="none"/>
    <path d="M-8.9 -8.65 L-8.9 -8.2 -18.0 -8.2 -18.0 -8.65 -18.0 -19.0 -8.9 -19.0 -8.9 -8.65" fill="url(#gradient2)" fill-rule="evenodd" stroke="none"/>
    <path d="M3.35 -3.75 L3.35 -5.7 3.35 -6.0 3.35 -8.65 3.35 -8.95 9.45 -8.95 9.45 -8.65 9.45 -6.0 9.45 -5.7 9.45 -3.75 3.35 -3.75 M9.45 -6.0 L3.35 -6.0 9.45 -6.0" fill="url(#gradient3)" fill-rule="evenodd" stroke="none"/>
    <path d="M14.1 -6.75 L14.35 -6.75 17.7 -6.75 17.7 -6.6 14.1 -6.6 14.1 -6.75" fill="url(#gradient4)" fill-rule="evenodd" stroke="none"/>
    <path d="M14.35 -6.75 L14.35 -9.7 17.8 -9.7 17.95 -9.7 17.95 -8.45 17.95 -6.75 17.7 -6.75 14.35 -6.75" fill="url(#gradient5)" fill-rule="evenodd" stroke="none"/>
    <path d="M17.8 -9.7 L17.8 -9.8 30.1 -14.6 36.2 -14.6 36.4 -14.35 21.8 -8.65 21.2 -8.45 17.95 -8.45 17.95 -9.7 17.8 -9.7" fill="url(#gradient6)" fill-rule="evenodd" stroke="none"/>
    <path d="M-4.2 4.65 L10.05 4.65 10.05 6.4 -4.2 6.4 -4.2 5.55 -4.2 4.8 -4.2 4.65 M-10.35 6.4 L-30.65 6.4 -30.65 4.65 -10.35 4.65 -10.35 4.8 -10.35 5.55 -10.35 6.4" fill="url(#gradient7)" fill-rule="evenodd" stroke="none"/>
    <path d="M-4.2 5.55 L-4.2 6.4 -4.2 7.3 -10.35 7.3 -10.35 6.4 -10.35 5.55 -4.2 5.55" fill="url(#gradient8)" fill-rule="evenodd" stroke="none"/>
    <path d="M-32.15 -8.65 L-32.15 -8.8 -20.65 -8.8 -20.65 -8.65 -20.65 -7.0 -32.15 -7.0 -32.15 -8.65" fill="url(#gradient9)" fill-rule="evenodd" stroke="none"/>
    <path d="M-43.75 3.9 L-43.75 3.6 -40.35 3.6 -39.95 3.9 -25.15 15.1 -26.7 19.15 -43.75 6.25 -43.75 3.9" fill="url(#gradient10)" fill-rule="evenodd" stroke="none"/>
    <path d="M-44.55 3.9 L-44.55 10.6 -49.05 10.6 -49.05 3.9 -49.05 3.75 -44.55 3.75 -44.55 3.9" fill="url(#gradient11)" fill-rule="evenodd" stroke="none"/>
    <path d="M-12.7 -0.6 L-12.7 -6.3 M-12.7 -6.85 L-16.05 -6.85 M-5.45 -4.5 L-5.45 -5.7 -5.85 -5.7 M-10.35 0.6 L-4.2 0.6 M-5.45 -3.6 L-5.45 -2.4 M0.5 -5.7 L-5.45 -5.7 M-4.2 -0.3 L0.5 -0.3 M-17.55 1.5 L-12.9 1.5 M-10.35 -0.3 L-17.55 -0.3" fill="none" stroke="#006600" stroke-linecap="round" stroke-linejoin="round" stroke-width="4.0"/>
    <path d="M3.35 -5.7 L0.5 -5.7 M14.1 -6.75 L14.35 -6.75 17.7 -6.75 M22.8 3.9 L22.8 5.95 M9.45 -5.7 L14.1 -5.7 M3.35 -6.0 L9.45 -6.0 M0.5 -0.3 L17.05 -0.3 M17.7 -5.7 L43.85 -5.7 M22.8 -1.8 L22.8 2.4 31.95 2.4 M22.8 3.9 L22.8 2.4 3.05 2.4" fill="none" stroke="#003300" stroke-linecap="round" stroke-linejoin="round" stroke-width="4.0"/>
    <path d="M-18.45 -8.65 L-18.45 -3.6 M-30.95 3.9 L-30.95 5.65 M-18.45 -8.65 L-18.45 -19.15 M-18.85 -3.3 L-44.95 -3.3 M-17.55 -0.3 L-44.15 -0.3 -44.15 3.9 -44.15 10.45 M-30.95 3.9 L-30.95 1.8 M-30.5 1.5 L-17.55 1.5" fill="none" stroke="#009900" stroke-linecap="round" stroke-linejoin="round" stroke-width="4.0"/>
    <path d="M-44.95 -3.3 L-50.95 -3.3 M-49.05 -1.8 L-70.9 -1.8" fill="none" stroke="#00cc00" stroke-linecap="round" stroke-linejoin="round" stroke-width="4.0"/>
  </g>
  <defs>
    <radialGradient cx="0" cy="0" gradientTransform="matrix(-0.2059, 0.0, 0.0, 0.2894, -97.5, -7.8)" gradientUnits="userSpaceOnUse" id="gradient0" r="819.2" spreadMethod="pad">
      <stop offset="0.0" stop-color="#00cc00"/>
      <stop offset="0.6196078431372549" stop-color="#006600"/>
      <stop offset="0.8862745098039215" stop-color="#000000"/>
    </radialGradient>
    <radialGradient cx="0" cy="0" gradientTransform="matrix(-0.2059, 0.0, 0.0, 0.2894, -97.5, -8.7)" gradientUnits="userSpaceOnUse" id="gradient1" r="819.2" spreadMethod="pad">
      <stop offset="0.0" stop-color="#00cc00"/>
      <stop offset="0.6196078431372549" stop-color="#006600"/>
      <stop offset="0.8862745098039215" stop-color="#000000"/>
    </radialGradient>
    <linearGradient gradientTransform="matrix(-0.0041, 0.0036, 0.0037, 0.0082, -13.5, -13.55)" gradientUnits="userSpaceOnUse" id="gradient2" spreadMethod="pad" x1="-819.2" x2="819.2">
      <stop offset="0.4745098039215686" stop-color="#000000"/>
      <stop offset="1.0" stop-color="#006600"/>
    </linearGradient>
    <radialGradient cx="0" cy="0" gradientTransform="matrix(-0.2059, 0.0, 0.0, 0.2894, -97.5, -9.0)" gradientUnits="userSpaceOnUse" id="gradient3" r="819.2" spreadMethod="pad">
      <stop offset="0.0" stop-color="#00cc00"/>
      <stop offset="0.6196078431372549" stop-color="#006600"/>
      <stop offset="0.8862745098039215" stop-color="#000000"/>
    </radialGradient>
    <radialGradient cx="0" cy="0" gradientTransform="matrix(-0.2059, 0.0, 0.0, 0.2894, -97.5, -9.75)" gradientUnits="userSpaceOnUse" id="gradient4" r="819.2" spreadMethod="pad">
      <stop offset="0.0" stop-color="#00cc00"/>
      <stop offset="0.6196078431372549" stop-color="#006600"/>
      <stop offset="0.8862745098039215" stop-color="#000000"/>
    </radialGradient>
    <radialGradient cx="0" cy="0" gradientTransform="matrix(-0.2059, 0.0, 0.0, 0.2894, -97.3, -9.75)" gradientUnits="userSpaceOnUse" id="gradient5" r="819.2" spreadMethod="pad">
      <stop offset="0.0" stop-color="#00cc00"/>
      <stop offset="0.6196078431372549" stop-color="#006600"/>
      <stop offset="0.8862745098039215" stop-color="#000000"/>
    </radialGradient>
    <radialGradient cx="0" cy="0" gradientTransform="matrix(-0.0216, 0.0084, -0.0117, -0.0157, 18.15, -8.3)" gradientUnits="userSpaceOnUse" id="gradient6" r="819.2" spreadMethod="pad">
      <stop offset="0.32941176470588235" stop-color="#006600"/>
      <stop offset="1.0" stop-color="#000000"/>
    </radialGradient>
    <linearGradient gradientTransform="matrix(-0.0186, 5.0E-4, 0.0, 0.0017, -13.6, 5.6)" gradientUnits="userSpaceOnUse" id="gradient7" spreadMethod="pad" x1="-819.2" x2="819.2">
      <stop offset="0.4745098039215686" stop-color="#000000"/>
      <stop offset="1.0" stop-color="#006600"/>
    </linearGradient>
    <linearGradient gradientTransform="matrix(-0.0186, 5.0E-4, 0.0, 0.0017, -13.6, 6.5)" gradientUnits="userSpaceOnUse" id="gradient8" spreadMethod="pad" x1="-819.2" x2="819.2">
      <stop offset="0.4745098039215686" stop-color="#000000"/>
      <stop offset="1.0" stop-color="#006600"/>
    </linearGradient>
    <radialGradient cx="0" cy="0" gradientTransform="matrix(-0.2059, 0.0, 0.0, 0.2894, -97.5, -8.85)" gradientUnits="userSpaceOnUse" id="gradient9" r="819.2" spreadMethod="pad">
      <stop offset="0.0" stop-color="#00cc00"/>
      <stop offset="0.6196078431372549" stop-color="#006600"/>
      <stop offset="0.8862745098039215" stop-color="#000000"/>
    </radialGradient>
    <radialGradient cx="0" cy="0" gradientTransform="matrix(-0.0216, -0.0164, -0.0117, 0.0304, -43.4, 3.35)" gradientUnits="userSpaceOnUse" id="gradient10" r="819.2" spreadMethod="pad">
      <stop offset="0.32941176470588235" stop-color="#006600"/>
      <stop offset="1.0" stop-color="#000000"/>
    </radialGradient>
    <radialGradient cx="0" cy="0" gradientTransform="matrix(-0.0097, 0.0, 0.0, 0.0137, -43.6, 2.4)" gradientUnits="userSpaceOnUse" id="gradient11" r="819.2" spreadMethod="pad">
      <stop offset="0.32941176470588235" stop-color="#006600"/>
      <stop offset="1.0" stop-color="#000000"/>
    </radialGradient>
  </defs>
</svg>
