<?xml version="1.0" encoding="UTF-8" standalone="no"?>
<svg xmlns:ffdec="https://www.free-decompiler.com/flash" xmlns:xlink="http://www.w3.org/1999/xlink" ffdec:objectType="shape" height="49.2px" width="88.6px" xmlns="http://www.w3.org/2000/svg">
  <g transform="matrix(1.0, 0.0, 0.0, 1.0, 13.7, 123.45)">
    <path d="M9.8 -113.0 Q3.05 -112.15 -3.8 -109.55 -6.85 -108.4 -7.4 -111.25 -8.2 -115.7 -9.95 -119.8 -11.2 -122.65 -8.55 -123.45 -5.95 -122.05 -5.35 -118.9 L-4.1 -113.8 Q-2.1 -113.85 0.3 -114.6 L9.1 -117.05 Q13.55 -118.15 13.65 -113.55 13.75 -110.4 14.35 -107.4 L14.8 -105.25 Q15.1 -103.6 15.85 -102.05 16.55 -100.55 16.35 -98.85 17.5 -97.45 17.45 -96.1 L33.9 -97.5 37.4 -98.0 Q46.35 -98.3 54.9 -95.85 56.55 -95.35 56.8 -93.8 57.1 -92.0 55.25 -91.95 52.8 -91.95 50.5 -92.65 41.85 -95.3 32.75 -94.05 L21.6 -92.65 16.95 -92.5 16.35 -92.3 Q7.6 -90.5 -1.35 -89.75 L-1.95 -89.65 17.1 -86.65 Q17.95 -86.5 18.0 -85.65 18.05 -82.1 16.7 -78.75 15.75 -76.45 13.75 -75.3 12.95 -74.85 12.35 -75.55 10.95 -77.15 12.25 -79.05 13.7 -81.1 14.2 -83.6 L-8.4 -86.85 -10.75 -87.0 Q-14.1 -87.0 -13.65 -89.9 -13.5 -90.9 -12.5 -91.15 -1.55 -93.4 9.45 -94.85 11.6 -95.1 13.6 -95.65 L13.6 -96.1 11.75 -101.05 Q10.75 -103.95 10.9 -107.05 9.9 -109.4 9.8 -112.1 L9.8 -113.0 M50.4 -111.15 Q51.65 -113.3 53.75 -114.9 57.4 -117.7 61.9 -119.1 66.8 -120.6 71.55 -121.7 76.05 -121.7 74.55 -117.35 74.2 -116.35 73.1 -116.2 71.4 -116.0 70.6 -117.3 60.8 -116.55 53.85 -109.75 51.8 -107.05 50.35 -110.0 50.05 -110.6 50.4 -111.15 M46.4 -79.2 L44.45 -77.9 39.25 -75.75 Q33.1 -73.6 26.6 -74.5 26.3 -74.55 26.0 -74.75 22.85 -76.75 25.05 -79.65 25.35 -80.15 25.95 -80.2 28.9 -80.65 29.85 -78.15 35.15 -77.85 40.3 -80.45 L45.6 -82.8 Q49.1 -81.75 46.4 -79.2" fill="#666666" fill-rule="evenodd" stroke="none"/>
  </g>
</svg>
