<?xml version="1.0" encoding="UTF-8" standalone="no"?>
<svg xmlns:ffdec="https://www.free-decompiler.com/flash" xmlns:xlink="http://www.w3.org/1999/xlink" ffdec:objectType="shape" height="70.5px" width="79.95px" xmlns="http://www.w3.org/2000/svg">
  <g transform="matrix(1.0, 0.0, 0.0, 1.0, 2.55, 137.3)">
    <path d="M32.0 -133.45 Q35.15 -137.4 40.35 -137.2 L41.25 -137.25 Q44.85 -137.7 44.05 -134.65 43.8 -133.65 42.7 -133.6 39.25 -133.55 36.1 -132.4 40.05 -127.55 43.6 -122.4 47.15 -117.3 49.8 -111.9 50.1 -111.3 49.65 -110.75 48.85 -109.75 47.5 -109.75 L35.15 -109.15 33.45 -108.8 Q36.6 -106.9 38.65 -103.65 L38.75 -103.45 45.4 -95.45 Q45.95 -94.7 46.0 -93.8 49.7 -88.05 50.0 -81.3 50.15 -77.95 47.2 -79.3 46.3 -79.7 46.25 -80.75 46.2 -85.65 43.8 -89.95 L42.3 -93.05 40.65 -94.85 Q40.3 -95.2 40.3 -95.7 L35.3 -102.05 Q32.95 -105.0 29.85 -107.05 28.9 -107.7 29.35 -108.75 L29.3 -108.85 29.15 -109.25 29.1 -109.35 Q28.85 -110.2 29.15 -110.75 29.25 -114.5 28.55 -118.05 27.65 -120.9 27.2 -124.0 L27.05 -124.9 Q17.45 -125.2 8.15 -122.2 L3.5 -120.6 0.75 -120.45 Q-0.8 -120.85 -0.85 -122.55 L-1.35 -126.7 Q-3.25 -130.25 -2.1 -133.9 -1.9 -134.4 -1.35 -134.55 L-0.9 -134.6 Q1.3 -133.5 1.45 -130.65 1.45 -129.75 1.75 -128.9 2.55 -127.3 2.65 -125.4 L2.7 -124.5 Q9.45 -127.25 16.75 -128.15 23.1 -128.95 29.4 -128.25 30.15 -128.15 30.3 -127.4 L32.0 -119.8 Q32.9 -116.2 32.85 -112.45 L34.7 -112.75 45.2 -113.4 Q42.95 -116.0 41.1 -118.75 40.4 -119.75 40.0 -120.85 36.55 -126.35 32.1 -131.1 31.05 -132.25 32.0 -133.45 M68.35 -87.55 Q73.7 -82.85 76.25 -76.2 L76.65 -74.2 Q78.35 -70.6 76.25 -67.45 76.0 -67.05 75.55 -66.95 71.45 -66.05 70.65 -69.8 70.1 -72.7 73.25 -72.75 L73.05 -73.4 72.95 -74.05 71.25 -77.5 70.4 -79.3 Q68.0 -82.85 64.9 -85.75 62.75 -87.75 61.05 -90.0 60.55 -90.65 61.1 -91.35 61.7 -92.15 62.6 -92.2 66.05 -90.9 68.2 -87.8 L68.35 -87.55 M22.95 -84.5 L29.1 -79.0 Q32.95 -75.8 37.55 -73.35 39.3 -72.35 38.0 -70.8 37.05 -69.75 35.6 -70.4 31.2 -72.4 27.35 -75.4 22.4 -79.3 18.25 -83.95 16.4 -86.0 17.65 -88.65 18.1 -89.55 19.0 -89.55 23.25 -89.5 23.25 -85.4 L22.95 -84.5" fill="#666666" fill-rule="evenodd" stroke="none"/>
  </g>
</svg>
