<?xml version="1.0" encoding="UTF-8" standalone="no"?>
<svg xmlns:ffdec="https://www.free-decompiler.com/flash" xmlns:xlink="http://www.w3.org/1999/xlink" ffdec:objectType="shape" height="63.35px" width="85.4px" xmlns="http://www.w3.org/2000/svg">
  <g transform="matrix(1.0, 0.0, 0.0, 1.0, 30.05, 351.4)">
    <path d="M46.4 -348.3 Q45.55 -347.45 44.45 -347.05 L42.4 -346.2 Q47.65 -340.35 52.1 -333.95 54.45 -330.5 55.3 -326.4 55.5 -325.45 54.6 -325.05 L50.65 -324.85 Q47.45 -325.9 44.1 -326.45 L31.3 -328.75 31.2 -328.5 31.0 -327.05 31.0 -317.4 48.85 -318.3 Q49.4 -318.4 49.65 -317.9 50.5 -316.0 50.5 -313.8 50.45 -312.35 51.05 -311.0 52.55 -307.65 49.95 -305.9 L48.9 -305.95 Q47.5 -307.1 47.45 -309.1 L47.15 -310.65 Q46.5 -312.55 46.5 -314.6 38.2 -312.8 29.6 -313.05 28.75 -313.05 28.05 -313.6 26.2 -315.1 27.1 -317.45 L27.35 -318.9 27.15 -325.95 27.2 -327.7 Q20.95 -325.2 16.5 -320.0 13.85 -316.95 11.7 -313.6 L11.65 -312.7 Q11.55 -312.05 11.05 -311.6 11.0 -307.9 7.9 -309.7 7.3 -310.05 7.25 -310.8 7.05 -312.65 7.95 -314.1 11.3 -320.85 17.15 -325.9 19.75 -328.1 22.65 -329.75 24.65 -330.9 26.7 -331.65 27.05 -332.4 28.3 -332.45 L35.45 -331.8 42.35 -330.45 50.65 -329.0 Q46.8 -335.6 41.55 -341.25 39.25 -343.8 37.75 -346.65 37.5 -347.15 37.95 -347.55 41.35 -350.4 45.55 -351.4 48.45 -350.4 46.4 -348.3 M19.95 -309.65 Q20.5 -310.7 21.55 -310.7 25.2 -309.95 27.9 -306.95 L34.2 -299.9 Q37.45 -296.25 38.65 -291.55 39.6 -287.8 36.05 -288.05 34.9 -288.15 34.05 -288.95 32.05 -290.85 34.3 -292.6 34.1 -293.7 33.2 -294.75 32.55 -295.55 32.25 -296.55 27.55 -302.2 21.75 -306.55 20.8 -307.2 20.1 -308.1 19.55 -308.8 19.95 -309.65 M-29.05 -312.75 Q-30.15 -313.15 -30.05 -314.3 -29.7 -318.7 -24.9 -319.4 L-20.0 -320.4 Q-13.6 -321.15 -7.75 -319.15 -4.8 -318.2 -6.9 -316.1 -7.75 -315.25 -9.05 -315.7 -16.3 -318.1 -23.7 -315.7 -24.4 -311.0 -29.05 -312.75" fill="#666666" fill-rule="evenodd" stroke="none"/>
  </g>
</svg>
