<?xml version="1.0" encoding="UTF-8" standalone="no"?>
<svg xmlns:ffdec="https://www.free-decompiler.com/flash" xmlns:xlink="http://www.w3.org/1999/xlink" ffdec:objectType="shape" height="79.6px" width="50.65px" xmlns="http://www.w3.org/2000/svg">
  <g transform="matrix(1.0, 0.0, 0.0, 1.0, 4.45, 288.45)">
    <path d="M19.25 -275.85 Q21.8 -273.25 19.55 -271.05 L19.0 -270.9 Q16.95 -271.55 15.75 -273.5 L14.5 -275.25 Q9.7 -281.55 2.25 -283.85 -0.55 -280.85 -2.6 -284.3 L-2.85 -285.1 Q-3.1 -287.8 -0.65 -288.45 2.2 -288.3 4.85 -287.1 13.05 -283.5 18.7 -276.45 L19.25 -275.85 M12.4 -258.5 Q12.85 -259.2 13.6 -259.2 17.3 -257.75 19.9 -254.6 L24.3 -249.3 Q29.7 -243.65 34.0 -236.95 34.6 -236.05 34.4 -235.35 35.5 -234.0 34.5 -231.7 33.35 -229.15 32.45 -226.6 L31.6 -225.0 Q30.05 -222.8 29.1 -220.35 32.05 -219.35 35.6 -219.75 40.2 -220.25 44.8 -219.95 45.95 -219.85 45.95 -218.75 45.95 -215.4 46.2 -211.95 L46.05 -210.45 Q45.3 -207.8 43.2 -209.6 41.9 -210.65 42.1 -212.45 L42.25 -216.4 25.15 -216.35 Q24.45 -216.3 24.2 -217.0 23.5 -218.75 24.85 -220.35 L25.15 -220.8 Q27.05 -224.9 29.35 -228.75 L30.6 -232.65 Q25.25 -232.85 20.05 -233.9 L19.1 -234.05 19.4 -233.15 Q21.2 -229.3 22.35 -225.1 L22.8 -221.95 Q22.85 -218.5 19.4 -218.05 18.3 -217.9 17.8 -218.95 16.75 -220.95 18.7 -222.2 18.3 -226.25 16.65 -230.15 L16.55 -230.75 15.05 -234.3 14.6 -234.3 12.95 -229.5 Q11.75 -226.2 11.45 -222.7 L10.6 -214.85 Q10.45 -213.75 9.3 -213.85 L-3.55 -215.3 Q-4.15 -215.4 -4.3 -216.0 -4.95 -218.1 -2.7 -218.25 L5.0 -217.75 7.4 -217.65 7.6 -222.4 Q7.8 -225.95 8.95 -229.25 L10.0 -232.15 10.95 -235.6 Q11.35 -237.75 13.4 -238.15 L13.85 -238.1 13.8 -238.4 Q12.05 -241.6 14.2 -244.15 14.5 -244.5 14.85 -244.55 17.2 -243.55 17.25 -240.6 L17.45 -239.1 17.85 -237.9 28.5 -236.5 30.0 -236.2 Q27.35 -239.5 24.95 -242.95 L24.15 -244.0 Q19.05 -249.9 13.6 -255.4 10.9 -256.3 12.4 -258.5" fill="#666666" fill-rule="evenodd" stroke="none"/>
  </g>
</svg>
