<?xml version="1.0" encoding="UTF-8" standalone="no"?>
<svg xmlns:ffdec="https://www.free-decompiler.com/flash" xmlns:xlink="http://www.w3.org/1999/xlink" ffdec:objectType="shape" height="53.0px" width="78.65px" xmlns="http://www.w3.org/2000/svg">
  <g transform="matrix(1.0, 0.0, 0.0, 1.0, 18.8, 193.15)">
    <path d="M56.85 -191.35 Q61.35 -189.4 59.15 -184.55 56.1 -178.0 49.35 -174.65 47.65 -173.8 45.85 -174.25 44.0 -174.75 44.8 -176.5 45.35 -177.7 46.75 -177.95 L47.65 -178.2 Q52.65 -180.45 55.15 -185.0 52.0 -186.3 53.9 -189.3 55.0 -191.05 56.85 -191.35 M22.95 -175.3 Q25.9 -174.15 24.3 -171.2 L23.05 -168.3 Q27.1 -170.95 29.9 -175.15 29.85 -175.75 30.25 -176.2 L30.8 -176.9 Q31.0 -177.7 31.55 -178.45 L32.15 -179.1 Q32.1 -181.0 33.3 -182.2 L33.7 -182.55 34.3 -182.9 Q37.55 -182.05 36.1 -178.65 34.95 -175.85 33.3 -173.45 30.05 -168.65 25.05 -165.25 L21.75 -163.25 21.15 -159.7 21.0 -159.25 Q20.8 -157.35 20.0 -155.6 L19.8 -154.65 Q22.7 -153.1 20.7 -150.05 19.35 -148.0 17.2 -149.35 14.7 -150.9 15.6 -153.9 L16.6 -157.4 17.7 -161.65 13.55 -160.75 10.95 -160.45 Q9.75 -160.35 9.3 -160.9 L9.2 -160.9 Q4.75 -160.95 0.4 -161.9 L-6.75 -163.45 -6.85 -154.65 -6.6 -146.1 Q-6.45 -143.2 -7.55 -140.7 -7.85 -140.05 -8.6 -140.15 L-13.8 -140.95 -14.5 -140.9 Q-17.8 -140.4 -18.7 -143.05 -19.0 -143.9 -18.15 -144.35 -16.55 -145.2 -14.6 -145.0 L-10.55 -144.35 -10.45 -153.05 -10.7 -161.6 Q-10.8 -164.55 -9.7 -166.95 -9.35 -167.7 -8.65 -167.65 L6.4 -164.75 9.3 -164.15 Q9.3 -166.5 9.9 -168.75 L11.3 -174.8 12.35 -178.8 Q10.6 -180.4 7.7 -180.05 L6.35 -180.0 Q-1.6 -180.55 -9.4 -181.8 -12.75 -182.3 -11.75 -185.6 L-11.35 -186.25 -10.9 -188.25 -10.45 -188.9 Q-10.45 -191.6 -8.45 -193.0 L-8.05 -193.15 Q-5.25 -192.0 -6.4 -188.9 L-7.25 -186.8 -7.7 -186.1 -7.7 -185.9 -7.7 -185.65 -7.7 -185.3 11.35 -183.35 Q14.7 -183.2 16.25 -180.7 16.6 -180.15 16.45 -179.45 L14.95 -173.35 12.9 -164.85 12.9 -164.7 16.05 -165.4 18.8 -166.1 19.15 -167.6 Q19.9 -170.75 21.05 -173.75 21.6 -175.15 22.95 -175.3" fill="#666666" fill-rule="evenodd" stroke="none"/>
  </g>
</svg>
