<?xml version="1.0" encoding="UTF-8" standalone="no"?>
<svg xmlns:ffdec="https://www.free-decompiler.com/flash" xmlns:xlink="http://www.w3.org/1999/xlink" ffdec:objectType="shape" height="68.05px" width="75.6px" xmlns="http://www.w3.org/2000/svg">
  <g transform="matrix(1.0, 0.0, 0.0, 1.0, 13.9, 133.05)">
    <path d="M33.95 -128.75 L28.65 -127.85 Q29.9 -121.9 32.55 -116.35 34.5 -112.35 36.05 -108.25 36.4 -107.35 35.7 -106.7 34.4 -105.6 32.6 -105.55 L29.55 -104.95 Q25.7 -103.45 21.8 -102.3 L22.95 -100.9 25.0 -98.3 Q31.85 -101.25 39.1 -102.35 42.15 -101.85 40.55 -99.4 39.85 -98.35 38.6 -98.15 33.0 -97.45 27.9 -95.25 33.0 -90.25 39.55 -86.9 L44.5 -83.75 Q45.15 -83.25 44.75 -82.5 43.65 -80.3 41.2 -81.65 L35.2 -85.2 Q29.2 -88.65 24.2 -93.45 L23.8 -93.25 Q23.8 -89.2 20.1 -90.6 18.6 -91.15 19.0 -92.7 19.6 -94.95 21.4 -96.4 L20.75 -97.1 18.05 -100.55 Q17.15 -100.9 16.7 -102.05 16.3 -103.0 16.2 -104.1 13.4 -111.05 12.5 -118.55 L12.45 -119.2 Q11.85 -119.75 11.85 -120.55 L11.75 -121.2 Q8.3 -117.7 5.35 -113.15 L0.15 -105.55 Q-1.55 -103.15 -3.9 -101.6 L-5.05 -101.55 Q-7.75 -103.0 -9.95 -105.05 L-12.6 -107.35 Q-15.25 -109.4 -12.45 -110.8 -11.45 -111.3 -10.6 -110.6 L-4.65 -105.75 Q-0.05 -111.7 4.15 -118.05 7.55 -123.2 12.45 -126.75 L12.85 -126.9 Q15.45 -126.25 15.4 -123.15 L15.45 -121.65 Q16.4 -118.7 16.85 -115.5 17.5 -111.1 19.2 -106.95 L19.7 -105.6 Q25.65 -107.35 31.5 -109.35 L26.85 -120.7 Q24.9 -125.15 24.5 -129.8 24.45 -130.3 24.95 -130.45 29.95 -132.15 35.0 -133.05 38.4 -132.2 35.95 -129.75 35.15 -128.9 33.95 -128.75 M61.2 -72.35 Q60.6 -71.15 59.45 -70.4 52.55 -66.05 44.15 -65.1 41.25 -64.75 38.65 -65.7 37.95 -65.95 38.1 -66.75 38.55 -69.2 41.5 -69.2 49.95 -69.05 56.85 -73.75 56.55 -75.75 58.4 -76.6 L59.05 -76.85 Q62.9 -76.0 61.2 -72.35" fill="#666666" fill-rule="evenodd" stroke="none"/>
  </g>
</svg>
