<?xml version="1.0" encoding="UTF-8" standalone="no"?>
<svg xmlns:ffdec="https://www.free-decompiler.com/flash" xmlns:xlink="http://www.w3.org/1999/xlink" ffdec:objectType="shape" height="65.95px" width="60.95px" xmlns="http://www.w3.org/2000/svg">
  <g transform="matrix(1.0, 0.0, 0.0, 1.0, 7.85, 130.7)">
    <path d="M33.35 -127.6 Q38.6 -126.45 42.7 -123.2 43.05 -122.9 42.95 -122.5 42.05 -119.35 38.95 -121.3 L35.1 -123.3 34.9 -122.25 Q35.0 -121.1 35.25 -120.0 35.4 -119.3 35.2 -118.6 35.65 -117.5 35.7 -116.25 35.7 -113.95 35.95 -111.65 37.25 -107.9 36.9 -104.0 36.8 -103.25 36.2 -102.8 35.45 -102.3 34.55 -102.45 30.35 -103.2 26.3 -104.2 L26.5 -103.75 Q27.2 -102.0 28.3 -100.45 L29.35 -98.8 Q35.05 -100.4 40.8 -99.9 44.25 -99.6 43.1 -96.9 42.65 -95.75 41.4 -95.9 L31.5 -95.45 34.05 -91.0 Q37.65 -86.25 41.6 -82.05 41.85 -81.75 41.75 -81.3 40.85 -78.0 38.35 -80.4 31.9 -86.55 27.5 -94.2 L25.2 -93.3 Q24.5 -90.15 21.5 -91.95 20.7 -92.4 20.7 -93.25 20.45 -96.55 24.2 -97.4 L25.45 -97.7 22.1 -103.05 Q21.25 -104.45 21.3 -105.5 20.8 -105.95 20.75 -106.8 20.5 -114.85 20.8 -123.0 L20.6 -125.3 Q15.8 -123.2 11.2 -119.65 6.15 -115.8 0.2 -114.05 -0.25 -113.9 -0.6 -114.25 -2.4 -115.55 -3.55 -117.45 -5.4 -120.45 -7.55 -123.1 -8.2 -123.85 -7.45 -124.6 -5.75 -126.55 -3.95 -124.4 L0.75 -118.1 Q5.95 -120.2 10.55 -123.75 16.1 -128.05 22.6 -130.65 L23.0 -130.65 Q25.05 -129.2 24.6 -126.45 L24.5 -124.6 24.4 -123.55 24.35 -113.85 24.25 -113.0 24.35 -108.0 33.0 -106.75 33.0 -106.95 32.5 -108.8 32.4 -110.05 Q32.05 -110.6 32.1 -111.25 L31.95 -113.55 Q31.8 -114.1 32.0 -114.65 L31.9 -114.9 Q31.65 -115.3 31.7 -115.8 L31.85 -116.5 Q31.15 -117.95 31.15 -119.5 31.05 -121.95 31.3 -124.3 31.0 -125.0 31.05 -125.7 31.15 -127.25 32.6 -127.5 L33.35 -127.6 M49.95 -71.7 L50.9 -71.85 Q54.6 -69.95 52.05 -66.55 51.2 -65.5 49.85 -65.2 L42.15 -64.9 Q36.9 -65.45 31.7 -64.8 29.0 -64.45 29.4 -66.95 29.55 -67.9 30.55 -68.1 L38.8 -68.65 Q43.45 -68.2 48.05 -68.65 48.05 -70.8 49.95 -71.7" fill="#666666" fill-rule="evenodd" stroke="none"/>
  </g>
</svg>
