<?xml version="1.0" encoding="UTF-8" standalone="no"?>
<svg xmlns:ffdec="https://www.free-decompiler.com/flash" xmlns:xlink="http://www.w3.org/1999/xlink" ffdec:objectType="shape" height="85.75px" width="45.75px" xmlns="http://www.w3.org/2000/svg">
  <g transform="matrix(1.0, 0.0, 0.0, 1.0, 1.7, 141.55)">
    <path d="M28.85 -124.65 L28.3 -123.45 Q26.2 -116.1 25.4 -108.4 L25.4 -108.3 Q27.9 -106.3 30.7 -104.65 L30.7 -104.75 Q30.55 -105.25 30.65 -105.75 L30.75 -106.2 30.55 -108.65 Q30.55 -111.45 31.25 -114.1 L32.1 -117.4 Q31.9 -118.6 32.1 -119.75 L32.2 -122.5 Q32.15 -124.15 32.75 -125.55 33.45 -127.25 35.15 -126.7 L43.35 -122.55 Q44.3 -122.0 44.0 -120.9 43.55 -119.45 42.1 -119.85 39.2 -120.75 36.45 -121.9 L35.65 -117.2 Q34.95 -113.35 34.75 -109.5 L34.4 -105.2 Q34.9 -102.7 33.8 -100.45 33.45 -99.65 32.65 -99.85 29.35 -100.65 26.6 -102.5 L25.0 -103.7 24.9 -103.15 24.7 -100.35 24.7 -99.0 26.1 -98.55 Q30.5 -98.2 34.7 -96.95 37.6 -95.35 35.05 -93.6 L33.95 -93.4 25.05 -95.05 Q26.0 -89.05 29.35 -83.65 L32.1 -79.5 Q33.5 -77.55 31.75 -76.15 30.65 -75.3 29.7 -76.3 27.3 -78.85 25.95 -82.05 L25.6 -82.65 Q21.9 -89.0 21.05 -95.85 L16.8 -96.85 14.5 -97.35 Q12.65 -94.3 10.15 -96.85 8.75 -98.4 10.1 -100.0 11.35 -101.5 13.5 -101.3 L20.7 -100.15 20.75 -100.25 20.9 -100.95 Q20.2 -103.5 21.1 -105.45 20.45 -106.55 20.95 -107.9 20.9 -108.35 21.3 -108.75 L21.75 -110.4 Q22.75 -118.05 24.8 -125.4 L21.65 -125.85 Q14.4 -125.9 7.2 -127.45 4.0 -128.15 1.15 -129.55 -0.15 -130.15 -0.5 -131.6 -1.3 -134.6 -1.4 -137.6 -2.55 -141.1 0.7 -141.55 1.35 -141.65 1.7 -141.0 2.45 -139.35 2.3 -137.45 2.5 -135.45 3.05 -133.5 L3.05 -133.0 Q6.05 -131.6 9.7 -130.85 18.95 -129.1 28.1 -129.6 30.8 -127.75 28.85 -124.65 M18.75 -67.55 Q20.95 -68.3 22.75 -66.4 L23.15 -66.15 34.95 -60.75 Q35.95 -61.9 37.55 -61.65 L38.45 -61.55 Q42.1 -59.75 39.4 -56.6 38.45 -55.55 37.0 -55.85 L36.25 -56.1 20.9 -63.0 Q18.55 -64.0 18.1 -66.3 17.85 -67.25 18.75 -67.55" fill="#666666" fill-rule="evenodd" stroke="none"/>
  </g>
</svg>
