<?xml version="1.0" encoding="UTF-8" standalone="no"?>
<svg xmlns:ffdec="https://www.free-decompiler.com/flash" xmlns:xlink="http://www.w3.org/1999/xlink" ffdec:objectType="shape" height="70.65px" width="41.45px" xmlns="http://www.w3.org/2000/svg">
  <g transform="matrix(1.0, 0.0, 0.0, 1.0, -1.1, 146.95)">
    <path d="M28.3 -124.5 L27.5 -123.5 Q23.95 -116.75 21.5 -109.4 L21.45 -109.3 Q23.5 -106.75 25.85 -104.55 L25.9 -104.65 26.05 -105.65 26.25 -106.1 26.6 -108.5 Q27.2 -111.25 28.4 -113.7 L29.95 -116.7 Q30.0 -117.9 30.45 -119.0 L31.15 -121.65 Q31.4 -123.3 32.3 -124.55 33.35 -126.05 34.9 -125.15 L42.05 -119.35 Q42.85 -118.6 42.35 -117.65 41.55 -116.3 40.25 -117.0 L35.15 -120.25 33.35 -115.8 Q31.85 -112.15 30.9 -108.45 L29.65 -104.35 Q29.55 -101.8 28.0 -99.8 27.45 -99.1 26.7 -99.5 23.7 -100.95 21.4 -103.35 L20.05 -104.9 19.9 -104.35 19.05 -101.65 18.8 -100.4 20.05 -99.6 Q24.3 -98.3 28.15 -96.2 30.55 -94.0 27.7 -92.85 27.2 -92.65 26.65 -92.85 L18.3 -96.4 Q17.95 -90.35 20.1 -84.35 L21.9 -79.7 Q22.85 -77.5 20.85 -76.5 19.55 -75.9 18.85 -77.15 17.05 -80.1 16.45 -83.55 L16.25 -84.2 Q13.95 -91.15 14.6 -98.05 L10.65 -99.9 8.5 -100.9 Q6.1 -98.35 4.2 -101.35 3.15 -103.15 4.8 -104.4 6.3 -105.65 8.35 -105.0 11.9 -103.95 15.15 -102.35 L15.2 -102.45 15.5 -103.05 Q15.35 -105.7 16.65 -107.4 16.25 -108.6 17.05 -109.8 L17.6 -110.6 18.35 -112.1 Q20.95 -119.35 24.55 -126.05 23.4 -126.75 21.55 -127.2 14.5 -128.85 7.8 -131.85 4.8 -133.25 2.3 -135.15 1.2 -136.05 1.15 -137.55 1.0 -140.65 1.55 -143.55 1.2 -147.25 4.5 -146.95 5.1 -146.9 5.3 -146.25 5.7 -144.45 5.15 -142.6 4.9 -140.65 5.0 -138.6 L4.95 -138.1 Q7.55 -136.15 10.95 -134.65 19.55 -131.0 28.65 -129.5 30.85 -127.15 28.3 -124.5" fill="#666666" fill-rule="evenodd" stroke="none"/>
  </g>
</svg>
