<?xml version="1.0" encoding="UTF-8" standalone="no"?>
<svg xmlns:ffdec="https://www.free-decompiler.com/flash" xmlns:xlink="http://www.w3.org/1999/xlink" ffdec:objectType="shape" height="36.0px" width="144.15px" xmlns="http://www.w3.org/2000/svg">
  <g transform="matrix(1.0, 0.0, 0.0, 1.0, 86.0, 18.35)">
    <path d="M7.25 -7.05 L7.25 -7.3 13.55 -7.3 13.55 -7.05 13.55 -4.7 7.25 -4.7 13.55 -4.7 13.55 -4.4 13.55 -2.7 7.25 -2.7 7.25 -4.4 7.25 -4.7 7.25 -7.05" fill="url(#gradient0)" fill-rule="evenodd" stroke="none"/>
    <path d="M7.25 -7.05 L7.25 -4.7 7.25 -4.4 7.25 -2.7 7.25 -2.4 13.55 -2.4 13.55 -2.7 13.55 -4.4 13.55 -4.7 13.55 -7.05 18.45 -7.05 18.45 -5.35 18.45 -5.2 18.45 -4.4 18.45 -4.3 22.2 -4.3 22.2 -4.4 22.2 -5.2 22.2 -5.35 22.5 -5.35 22.5 -6.85 25.85 -6.85 26.5 -7.05 58.15 -7.05 58.15 4.1 27.55 4.1 27.55 2.8 6.95 2.8 27.55 2.8 27.55 4.1 -0.65 4.1 -0.65 1.2 -0.65 0.4 -0.65 -2.55 -0.65 -3.35 -1.95 -3.35 -1.95 -4.4 4.25 -4.4 -1.95 -4.4 -1.95 -3.35 -7.05 -3.35 -7.05 -2.55 -7.05 0.4 -14.55 0.4 -7.05 0.4 -7.05 1.2 -7.05 4.1 -28.55 4.1 -28.55 2.25 -28.55 4.1 -37.95 4.1 -38.35 3.85 -41.85 3.85 -41.85 4.1 -42.3 4.1 -42.8 4.1 -42.8 4.0 -47.4 4.0 -47.4 4.1 -86.0 4.1 -86.0 -7.05 -29.8 -7.05 -29.8 -5.55 -29.8 -5.45 -17.8 -5.45 -17.8 -5.55 -17.8 -7.05 -15.45 -7.05 -15.05 -7.05 -15.05 -6.65 -5.5 -6.65 -5.5 -7.05 7.25 -7.05 M4.25 -4.4 L7.25 -4.4 4.25 -4.4 M4.25 0.4 L-0.65 0.4 4.25 0.4 21.55 0.4 4.25 0.4 M49.5 -4.4 L22.2 -4.4 49.5 -4.4 M18.45 -4.4 L13.55 -4.4 18.45 -4.4 M37.1 2.8 L27.55 2.8 27.55 -0.95 27.55 2.8 37.1 2.8 M-70.25 -0.95 L-47.4 -0.95 -70.25 -0.95 M-49.4 -2.3 L-43.2 -2.3 -49.4 -2.3 M-14.55 0.4 L-42.3 0.4 -42.3 4.1 -42.3 0.4 -14.55 0.4 M-9.5 -4.95 L-9.5 0.1 -9.5 -4.95 M-15.45 -2.55 L-15.45 -7.05 -15.45 -2.55 M-13.0 -5.45 L-9.5 -5.45 -13.0 -5.45 M-2.4 -4.4 L-1.95 -4.4 -2.4 -4.4 M-43.2 -2.3 L-15.9 -2.3 -43.2 -2.3 M-9.7 2.0 L-14.55 2.0 -9.7 2.0 M-14.55 2.0 L-28.15 2.0 -14.55 2.0" fill="url(#gradient1)" fill-rule="evenodd" stroke="none"/>
    <path d="M22.3 -7.95 L22.3 -8.05 35.15 -12.3 41.5 -12.3 41.75 -12.1 26.5 -7.05 25.85 -6.85 22.5 -6.85 22.5 -7.95 22.3 -7.95" fill="url(#gradient2)" fill-rule="evenodd" stroke="none"/>
    <path d="M18.65 -5.35 L18.65 -7.95 22.3 -7.95 22.5 -7.95 22.5 -6.85 22.5 -5.35 22.2 -5.35 18.65 -5.35" fill="url(#gradient3)" fill-rule="evenodd" stroke="none"/>
    <path d="M18.45 -5.35 L18.65 -5.35 22.2 -5.35 22.2 -5.2 18.45 -5.2 18.45 -5.35" fill="url(#gradient4)" fill-rule="evenodd" stroke="none"/>
    <path d="M-0.65 4.8 L14.25 4.8 14.25 6.35 -0.65 6.35 -0.65 5.6 -0.65 4.9 -0.65 4.8 M-7.05 6.35 L-28.25 6.35 -28.25 4.8 -7.05 4.8 -7.05 4.9 -7.05 5.6 -7.05 6.35" fill="url(#gradient5)" fill-rule="evenodd" stroke="none"/>
    <path d="M-17.8 -5.55 L-29.8 -5.55 -29.8 -7.05 -29.8 -7.15 -17.8 -7.15 -17.8 -7.05 -17.8 -5.55" fill="url(#gradient6)" fill-rule="evenodd" stroke="none"/>
    <path d="M-0.65 -2.55 L-0.65 0.4 -0.65 1.2 -0.65 4.1 -0.65 4.8 -0.65 4.9 -7.05 4.9 -7.05 4.8 -7.05 4.1 -7.05 1.2 -7.05 0.4 -7.05 -2.55 -1.95 -2.55 -0.65 -2.55 M-1.95 -1.5 L-1.95 -2.55 -1.95 -1.5 M-7.05 1.2 L-0.65 1.2 -7.05 1.2" fill="url(#gradient7)" fill-rule="evenodd" stroke="none"/>
    <path d="M-5.5 -7.05 L-5.5 -6.65 -15.05 -6.65 -15.05 -7.05 -15.05 -16.2 -5.5 -16.2 -5.5 -7.05" fill="url(#gradient8)" fill-rule="evenodd" stroke="none"/>
    <path d="M-0.65 5.6 L-0.65 6.35 -0.65 7.15 -7.05 7.15 -7.05 6.35 -7.05 5.6 -0.65 5.6" fill="url(#gradient9)" fill-rule="evenodd" stroke="none"/>
    <path d="M-41.85 4.1 L-41.85 3.85 -38.35 3.85 -37.95 4.1 -22.5 14.05 -24.1 17.65 -41.85 6.2 -41.85 4.1" fill="url(#gradient10)" fill-rule="evenodd" stroke="none"/>
    <path d="M-47.4 4.1 L-47.4 4.0 -42.8 4.0 -42.8 4.1 -42.8 10.05 -47.4 10.05 -47.4 4.1" fill="url(#gradient11)" fill-rule="evenodd" stroke="none"/>
    <path d="M7.25 -4.7 L13.55 -4.7 M18.45 -5.35 L18.65 -5.35 22.2 -5.35 M27.55 4.1 L27.55 5.95 M7.25 -4.4 L4.25 -4.4 M4.25 0.4 L21.55 0.4 M22.2 -4.4 L49.5 -4.4 M13.55 -4.4 L18.45 -4.4 M27.55 4.1 L27.55 2.8 6.95 2.8 M27.55 -0.95 L27.55 2.8 37.1 2.8" fill="none" stroke="#003300" stroke-linecap="round" stroke-linejoin="round" stroke-width="4.0"/>
    <path d="M-43.2 -2.3 L-49.4 -2.3 M-47.4 -0.95 L-70.25 -0.95" fill="none" stroke="#00cc00" stroke-linecap="round" stroke-linejoin="round" stroke-width="4.0"/>
    <path d="M4.25 -4.4 L-1.95 -4.4 -1.95 -3.35 M-0.65 0.4 L4.25 0.4 M-14.55 0.4 L-7.05 0.4 M-9.5 0.1 L-9.5 -4.95 M-9.5 -5.45 L-13.0 -5.45 M-1.95 -2.55 L-1.95 -1.5 M-1.95 -4.4 L-2.4 -4.4 M-0.65 1.2 L-7.05 1.2 M-14.55 2.0 L-9.7 2.0" fill="none" stroke="#006600" stroke-linecap="round" stroke-linejoin="round" stroke-width="4.0"/>
    <path d="M-28.55 4.1 L-28.55 5.65 M-42.3 4.1 L-42.3 0.4 -14.55 0.4 M-15.45 -7.05 L-15.45 -16.35 M-15.45 -7.05 L-15.45 -2.55 M-15.9 -2.3 L-43.2 -2.3 M-28.55 4.1 L-28.55 2.25 M-28.15 2.0 L-14.55 2.0 M-42.3 4.1 L-42.3 9.95" fill="none" stroke="#009900" stroke-linecap="round" stroke-linejoin="round" stroke-width="4.0"/>
  </g>
  <defs>
    <radialGradient cx="0" cy="0" gradientTransform="matrix(-0.2149, 0.0, 0.0, 0.2569, -98.0, -7.35)" gradientUnits="userSpaceOnUse" id="gradient0" r="819.2" spreadMethod="pad">
      <stop offset="0.0" stop-color="#00cc00"/>
      <stop offset="0.6196078431372549" stop-color="#006600"/>
      <stop offset="0.8862745098039215" stop-color="#000000"/>
    </radialGradient>
    <radialGradient cx="0" cy="0" gradientTransform="matrix(-0.2149, 0.0, 0.0, 0.2569, -98.0, -7.05)" gradientUnits="userSpaceOnUse" id="gradient1" r="819.2" spreadMethod="pad">
      <stop offset="0.0" stop-color="#00cc00"/>
      <stop offset="0.6196078431372549" stop-color="#006600"/>
      <stop offset="0.8862745098039215" stop-color="#000000"/>
    </radialGradient>
    <radialGradient cx="0" cy="0" gradientTransform="matrix(-0.0226, 0.0075, -0.0122, -0.0139, 22.7, -6.7)" gradientUnits="userSpaceOnUse" id="gradient2" r="819.2" spreadMethod="pad">
      <stop offset="0.32941176470588235" stop-color="#006600"/>
      <stop offset="1.0" stop-color="#000000"/>
    </radialGradient>
    <radialGradient cx="0" cy="0" gradientTransform="matrix(-0.2149, 0.0, 0.0, 0.2569, -97.8, -8.0)" gradientUnits="userSpaceOnUse" id="gradient3" r="819.2" spreadMethod="pad">
      <stop offset="0.0" stop-color="#00cc00"/>
      <stop offset="0.6196078431372549" stop-color="#006600"/>
      <stop offset="0.8862745098039215" stop-color="#000000"/>
    </radialGradient>
    <radialGradient cx="0" cy="0" gradientTransform="matrix(-0.2149, 0.0, 0.0, 0.2569, -98.0, -8.0)" gradientUnits="userSpaceOnUse" id="gradient4" r="819.2" spreadMethod="pad">
      <stop offset="0.0" stop-color="#00cc00"/>
      <stop offset="0.6196078431372549" stop-color="#006600"/>
      <stop offset="0.8862745098039215" stop-color="#000000"/>
    </radialGradient>
    <linearGradient gradientTransform="matrix(-0.0194, 4.0E-4, 0.0, 0.0015, -10.45, 5.6)" gradientUnits="userSpaceOnUse" id="gradient5" spreadMethod="pad" x1="-819.2" x2="819.2">
      <stop offset="0.4745098039215686" stop-color="#000000"/>
      <stop offset="1.0" stop-color="#006600"/>
    </linearGradient>
    <radialGradient cx="0" cy="0" gradientTransform="matrix(-0.2149, 0.0, 0.0, 0.2569, -98.0, -7.2)" gradientUnits="userSpaceOnUse" id="gradient6" r="819.2" spreadMethod="pad">
      <stop offset="0.0" stop-color="#00cc00"/>
      <stop offset="0.6196078431372549" stop-color="#006600"/>
      <stop offset="0.8862745098039215" stop-color="#000000"/>
    </radialGradient>
    <radialGradient cx="0" cy="0" gradientTransform="matrix(-0.2149, 0.0, 0.0, 0.2569, -98.0, -6.25)" gradientUnits="userSpaceOnUse" id="gradient7" r="819.2" spreadMethod="pad">
      <stop offset="0.0" stop-color="#00cc00"/>
      <stop offset="0.6196078431372549" stop-color="#006600"/>
      <stop offset="0.8862745098039215" stop-color="#000000"/>
    </radialGradient>
    <linearGradient gradientTransform="matrix(-0.0043, 0.0032, 0.0039, 0.0073, -10.35, -11.4)" gradientUnits="userSpaceOnUse" id="gradient8" spreadMethod="pad" x1="-819.2" x2="819.2">
      <stop offset="0.4745098039215686" stop-color="#000000"/>
      <stop offset="1.0" stop-color="#006600"/>
    </linearGradient>
    <linearGradient gradientTransform="matrix(-0.0194, 4.0E-4, 0.0, 0.0015, -10.45, 6.4)" gradientUnits="userSpaceOnUse" id="gradient9" spreadMethod="pad" x1="-819.2" x2="819.2">
      <stop offset="0.4745098039215686" stop-color="#000000"/>
      <stop offset="1.0" stop-color="#006600"/>
    </linearGradient>
    <radialGradient cx="0" cy="0" gradientTransform="matrix(-0.0226, -0.0145, -0.0122, 0.027, -41.55, 3.6)" gradientUnits="userSpaceOnUse" id="gradient10" r="819.2" spreadMethod="pad">
      <stop offset="0.32941176470588235" stop-color="#006600"/>
      <stop offset="1.0" stop-color="#000000"/>
    </radialGradient>
    <radialGradient cx="0" cy="0" gradientTransform="matrix(-0.0102, 0.0, 0.0, 0.0121, -41.75, 2.8)" gradientUnits="userSpaceOnUse" id="gradient11" r="819.2" spreadMethod="pad">
      <stop offset="0.32941176470588235" stop-color="#006600"/>
      <stop offset="1.0" stop-color="#000000"/>
    </radialGradient>
  </defs>
</svg>
