<?xml version="1.0" encoding="UTF-8" standalone="no"?>
<svg xmlns:ffdec="https://www.free-decompiler.com/flash" xmlns:xlink="http://www.w3.org/1999/xlink" ffdec:objectType="shape" height="96.55px" width="56.95px" xmlns="http://www.w3.org/2000/svg">
  <g transform="matrix(1.0, 0.0, 0.0, 1.0, 11.55, 148.05)">
    <path d="M22.05 -147.15 Q22.85 -143.55 18.95 -141.15 L18.7 -140.9 Q24.9 -131.55 31.2 -120.35 31.65 -119.55 30.9 -118.8 L24.2 -112.8 Q21.0 -110.0 18.35 -106.7 20.85 -104.7 21.9 -101.75 22.5 -99.95 23.5 -98.25 27.4 -101.75 31.85 -104.7 36.15 -107.55 39.9 -110.75 L40.35 -110.75 Q41.4 -110.75 41.9 -109.85 L41.95 -109.9 Q45.4 -107.2 45.4 -103.4 45.35 -102.6 44.6 -102.05 L44.2 -102.0 Q41.2 -102.0 39.9 -105.35 31.2 -98.85 22.15 -93.45 21.35 -92.95 20.75 -93.9 17.7 -98.6 16.0 -103.6 L13.75 -100.15 18.85 -92.1 Q19.25 -91.45 18.7 -90.8 L18.15 -90.25 17.7 -90.15 Q16.8 -90.0 16.3 -90.65 L11.85 -96.3 11.15 -94.3 11.0 -93.65 Q8.9 -89.1 8.8 -84.0 L8.75 -83.45 8.65 -82.85 Q10.2 -80.5 8.3 -78.9 3.2 -79.6 4.2 -85.6 L4.85 -88.25 4.95 -88.95 Q4.9 -90.3 5.75 -91.35 6.2 -95.75 8.7 -99.7 L8.95 -100.1 6.55 -103.35 Q6.4 -103.15 6.25 -103.1 2.0 -101.4 1.9 -106.75 L2.25 -107.05 Q4.4 -109.2 7.3 -108.3 L7.8 -108.1 8.3 -107.95 8.5 -107.8 8.95 -107.35 9.05 -107.35 11.05 -104.35 15.0 -109.2 15.5 -109.8 Q20.65 -115.35 26.3 -120.45 L14.0 -139.6 Q13.35 -140.6 13.7 -141.7 L18.75 -147.2 19.0 -147.45 19.65 -147.95 Q21.1 -148.35 22.0 -147.15 L22.05 -147.15 M-7.95 -73.3 Q-6.5 -68.2 -6.0 -62.6 -5.75 -59.85 -4.25 -57.75 0.9 -55.5 -2.55 -52.2 L-5.45 -52.1 Q-9.0 -55.3 -10.15 -59.9 -11.85 -66.45 -11.45 -73.15 L-10.55 -74.0 -8.7 -73.9 -8.5 -73.75 -8.05 -73.35 -7.95 -73.3" fill="#666666" fill-rule="evenodd" stroke="none"/>
  </g>
</svg>
