<?xml version="1.0" encoding="UTF-8" standalone="no"?>
<svg xmlns:ffdec="https://www.free-decompiler.com/flash" xmlns:xlink="http://www.w3.org/1999/xlink" ffdec:objectType="shape" height="94.75px" width="58.2px" xmlns="http://www.w3.org/2000/svg">
  <g transform="matrix(1.0, 0.0, 0.0, 1.0, 24.9, 142.5)">
    <path d="M23.05 -141.85 L23.1 -141.85 Q24.2 -138.35 20.4 -137.85 L19.85 -137.85 Q19.45 -137.35 18.85 -137.2 L17.7 -136.65 Q18.45 -130.4 20.8 -123.9 22.2 -119.9 21.85 -116.05 L8.05 -108.4 Q6.6 -107.65 5.1 -107.2 9.75 -102.35 13.25 -96.75 L18.7 -101.6 Q22.65 -105.15 27.05 -107.9 L27.9 -108.05 28.15 -107.9 28.65 -107.5 28.7 -107.5 Q33.9 -103.9 33.2 -98.75 33.0 -97.55 31.65 -97.65 L30.15 -98.05 29.75 -98.95 Q28.7 -101.35 26.8 -103.15 L21.35 -98.35 12.2 -90.35 Q8.75 -92.7 7.3 -97.4 5.95 -101.7 2.6 -105.0 L1.85 -104.35 1.55 -104.1 Q0.9 -101.65 -1.05 -99.75 L-1.65 -99.2 -1.7 -98.9 0.9 -97.6 Q3.45 -96.25 5.7 -94.65 7.15 -93.15 5.95 -91.5 L5.6 -91.25 Q1.0 -92.15 -3.6 -94.6 -5.0 -90.05 -4.15 -85.2 -3.35 -80.65 -4.25 -76.25 -4.5 -75.0 -5.85 -75.1 L-7.35 -75.55 Q-9.7 -84.95 -7.8 -94.2 L-7.2 -96.15 -10.4 -96.95 Q-13.45 -92.75 -16.8 -97.3 -17.5 -98.2 -17.25 -99.3 -12.4 -103.8 -5.5 -100.7 L-5.4 -100.65 Q-2.8 -105.45 0.9 -109.55 L1.9 -110.3 2.25 -110.35 Q5.45 -112.6 9.05 -114.15 10.05 -114.55 10.75 -115.3 L11.7 -115.45 12.7 -115.5 Q14.5 -116.45 16.1 -117.75 L17.0 -118.55 Q16.3 -126.95 13.1 -134.8 11.9 -136.1 12.1 -137.75 14.3 -140.35 17.5 -141.4 L18.7 -141.9 19.15 -141.95 20.2 -141.95 Q20.65 -142.4 21.3 -142.5 L22.3 -142.45 22.55 -142.25 23.05 -141.85 M-20.3 -54.1 L-19.75 -53.75 Q-14.8 -53.05 -17.8 -48.65 -18.8 -47.15 -20.4 -48.15 -25.45 -51.4 -24.85 -57.15 -24.2 -64.4 -22.25 -71.2 -22.15 -71.9 -21.35 -72.25 L-19.8 -72.05 -19.2 -71.6 Q-19.5 -63.35 -20.35 -54.8 L-20.3 -54.1" fill="#666666" fill-rule="evenodd" stroke="none"/>
  </g>
</svg>
