<?xml version="1.0" encoding="UTF-8" standalone="no"?>
<svg xmlns:ffdec="https://www.free-decompiler.com/flash" xmlns:xlink="http://www.w3.org/1999/xlink" ffdec:objectType="shape" height="63.45px" width="39.75px" xmlns="http://www.w3.org/2000/svg">
  <g transform="matrix(1.0, 0.0, 0.0, 1.0, 21.3, 95.65)">
    <path d="M5.95 -95.25 L6.7 -95.65 Q9.9 -94.95 7.85 -92.5 2.8 -86.4 0.9 -78.9 -0.45 -74.65 -2.3 -70.5 L-3.2 -69.0 Q-3.25 -67.9 -3.55 -67.05 -1.8 -66.65 -2.15 -64.75 L-2.2 -64.55 Q-1.5 -61.45 -1.45 -58.2 L-1.45 -57.5 Q-1.5 -53.95 -2.3 -50.7 L-2.35 -49.55 13.75 -45.65 15.6 -45.25 Q19.3 -44.55 18.2 -40.85 17.75 -39.4 16.8 -38.25 L16.45 -37.7 16.35 -37.4 Q15.6 -34.6 12.95 -35.5 11.85 -35.85 11.85 -37.0 L11.95 -37.7 12.5 -38.55 Q13.2 -39.95 14.35 -41.2 L14.55 -41.4 Q6.0 -43.65 -3.3 -45.4 -5.1 -45.75 -5.75 -47.3 -6.05 -48.1 -5.95 -48.95 -5.35 -53.55 -5.45 -58.2 L-5.55 -60.4 -5.75 -63.65 Q-8.15 -60.7 -11.0 -58.2 L-11.3 -57.95 -12.7 -56.65 -17.0 -52.0 Q-11.5 -46.85 -5.25 -42.5 -3.45 -41.25 -4.05 -39.25 L-4.65 -37.7 Q-5.7 -35.75 -7.9 -34.45 L-10.95 -32.5 Q-11.75 -31.9 -12.55 -32.5 -14.6 -33.95 -12.6 -35.5 L-10.1 -37.7 -8.25 -39.6 -19.8 -49.15 Q-21.8 -50.8 -21.1 -52.95 L-20.35 -54.2 -16.65 -58.2 -9.1 -65.95 -7.9 -67.0 Q-7.85 -68.25 -7.05 -69.55 L-6.75 -70.05 Q-3.1 -78.05 -0.45 -86.35 L0.45 -88.15 Q2.45 -92.2 5.95 -95.25 M6.4 -76.85 L9.05 -76.55 Q10.45 -77.55 11.2 -79.1 L11.3 -79.35 Q11.5 -80.55 12.7 -80.85 L13.15 -80.95 Q16.65 -79.8 14.25 -76.5 11.4 -72.5 6.9 -70.8 5.95 -70.45 5.4 -71.25 3.6 -73.85 5.45 -76.35 5.8 -76.85 6.4 -76.85 M-11.2 -82.7 Q-8.05 -82.05 -9.9 -79.35 -10.6 -78.3 -11.45 -77.4 -14.45 -74.15 -16.4 -70.15 -14.75 -67.4 -17.35 -65.9 L-18.95 -66.0 Q-20.55 -67.15 -20.35 -69.3 -19.95 -73.3 -17.35 -76.5 L-16.4 -77.65 Q-14.25 -80.45 -11.6 -82.55 L-11.2 -82.7" fill="#666666" fill-rule="evenodd" stroke="none"/>
  </g>
</svg>
