<?xml version="1.0" encoding="UTF-8" standalone="no"?>
<svg xmlns:ffdec="https://www.free-decompiler.com/flash" xmlns:xlink="http://www.w3.org/1999/xlink" ffdec:objectType="shape" height="86.55px" width="53.0px" xmlns="http://www.w3.org/2000/svg">
  <g transform="matrix(1.0, 0.0, 0.0, 1.0, -5.4, 105.55)">
    <path d="M57.9 -104.1 Q58.45 -103.55 58.4 -102.9 57.75 -94.4 52.8 -87.25 51.45 -85.4 49.75 -84.0 46.75 -81.6 46.3 -85.2 46.15 -86.2 47.0 -86.8 48.65 -88.05 49.8 -89.7 L50.15 -90.45 51.7 -92.9 51.8 -93.0 Q51.95 -93.95 52.45 -94.75 53.55 -96.55 54.25 -98.55 52.85 -99.45 52.55 -101.1 51.9 -104.0 54.4 -105.5 L54.7 -105.55 55.5 -105.5 56.2 -105.4 56.45 -105.35 56.75 -105.15 57.9 -104.1 M30.7 -80.4 Q28.8 -83.0 32.0 -83.15 33.75 -83.3 34.7 -81.5 38.25 -74.8 37.6 -66.8 37.5 -66.05 37.65 -65.4 L36.55 -56.2 Q36.3 -54.35 35.5 -53.5 L35.55 -53.3 35.65 -52.75 Q31.4 -47.95 26.05 -44.15 L25.75 -43.95 Q23.3 -32.95 21.15 -21.7 21.05 -21.15 20.4 -20.9 L14.55 -19.15 Q12.25 -18.5 12.45 -21.0 12.6 -22.8 14.3 -22.65 L14.55 -22.75 15.15 -23.15 15.4 -23.2 15.9 -23.2 16.15 -23.25 16.75 -23.6 17.5 -23.75 17.75 -23.9 18.35 -24.3 18.5 -24.25 Q20.3 -35.1 22.65 -45.85 L23.0 -46.4 Q26.5 -49.0 29.65 -51.95 L27.8 -52.0 Q24.6 -51.85 21.35 -52.15 18.6 -44.9 16.15 -37.2 L15.55 -35.3 Q14.4 -32.2 10.9 -32.95 7.55 -33.7 5.6 -36.35 5.25 -36.8 5.55 -37.4 6.0 -38.55 7.15 -38.2 L12.15 -36.55 Q15.3 -46.05 18.8 -55.35 18.9 -55.7 19.35 -55.65 25.1 -55.35 30.75 -55.75 L32.7 -55.65 Q35.1 -64.85 33.45 -74.6 33.0 -76.9 31.75 -78.75 L30.7 -80.4 M9.1 -68.2 Q11.05 -68.9 12.6 -67.7 17.3 -69.25 21.75 -72.0 22.2 -72.35 22.8 -72.55 24.15 -74.9 26.4 -73.4 L26.95 -72.85 Q26.9 -72.5 27.0 -72.1 L27.05 -72.05 Q24.35 -68.85 20.35 -66.85 16.25 -64.8 11.95 -63.8 7.75 -62.9 7.9 -66.6 7.95 -67.8 9.1 -68.2" fill="#666666" fill-rule="evenodd" stroke="none"/>
  </g>
</svg>
