<?xml version="1.0" encoding="UTF-8" standalone="no"?>
<svg xmlns:ffdec="https://www.free-decompiler.com/flash" xmlns:xlink="http://www.w3.org/1999/xlink" ffdec:objectType="shape" height="51.95px" width="85.95px" xmlns="http://www.w3.org/2000/svg">
  <g transform="matrix(1.0, 0.0, 0.0, 1.0, 16.25, 86.15)">
    <path d="M65.55 -80.9 L66.95 -81.25 Q70.35 -81.1 69.55 -77.8 69.1 -76.15 67.6 -75.1 64.7 -73.15 61.2 -72.3 L57.55 -71.25 51.55 -69.3 Q49.6 -68.65 49.0 -70.6 48.6 -71.8 49.7 -72.45 L51.55 -73.2 Q57.7 -74.75 63.6 -77.0 62.25 -79.9 65.55 -80.9 M35.95 -81.5 L36.25 -81.65 Q38.85 -81.2 37.7 -78.95 L36.0 -76.35 Q33.95 -73.9 31.5 -71.85 L25.3 -66.8 Q21.7 -63.95 17.85 -61.65 17.4 -61.15 16.65 -61.05 L16.2 -61.0 Q12.0 -60.5 8.05 -59.15 6.1 -58.45 4.1 -58.1 L3.9 -57.4 3.45 -55.4 Q2.9 -48.8 3.2 -42.05 L3.7 -37.05 Q3.85 -35.95 3.45 -35.25 L2.5 -34.45 2.15 -34.3 Q1.55 -34.1 1.15 -34.3 -2.5 -34.1 -6.1 -34.35 -7.2 -34.4 -7.35 -35.5 -7.55 -37.3 -5.75 -37.55 L-0.1 -37.4 -0.2 -38.9 Q-0.5 -45.5 -0.2 -52.25 -0.05 -55.75 0.5 -59.15 L0.75 -59.95 1.15 -60.5 1.9 -61.0 2.3 -61.15 10.9 -63.6 9.7 -64.3 Q4.9 -67.0 0.35 -70.25 -3.6 -65.1 -6.75 -59.45 L-8.75 -56.4 Q-8.85 -55.55 -9.75 -55.25 L-9.8 -55.25 Q-10.15 -54.85 -10.7 -55.05 L-10.9 -55.15 -12.0 -55.8 -16.1 -60.75 -16.25 -61.3 Q-16.0 -62.8 -14.55 -62.95 -12.2 -62.15 -10.6 -60.25 L-4.95 -69.4 -1.8 -73.3 Q-1.1 -74.05 -0.25 -74.05 L-0.15 -74.0 0.0 -74.05 Q3.1 -73.35 5.55 -71.1 L6.75 -70.15 Q11.25 -67.4 15.95 -65.0 L16.6 -64.6 21.3 -68.4 Q25.4 -71.35 29.25 -74.65 L31.3 -76.8 Q33.4 -79.55 35.95 -81.5 M4.5 -83.9 L19.45 -84.05 Q19.7 -84.05 19.8 -83.85 21.3 -81.4 18.3 -81.0 L2.35 -80.25 Q0.3 -80.35 -0.55 -82.2 -1.0 -83.3 -0.65 -84.45 -0.25 -85.9 1.15 -86.1 3.8 -86.4 4.5 -84.0 L4.5 -83.9" fill="#666666" fill-rule="evenodd" stroke="none"/>
  </g>
</svg>
