<?xml version="1.0" encoding="UTF-8" standalone="no"?>
<svg xmlns:ffdec="https://www.free-decompiler.com/flash" xmlns:xlink="http://www.w3.org/1999/xlink" ffdec:objectType="shape" height="60.15px" width="80.15px" xmlns="http://www.w3.org/2000/svg">
  <g transform="matrix(1.0, 0.0, 0.0, 1.0, 27.65, 107.45)">
    <path d="M14.95 -103.55 Q18.5 -100.1 22.95 -97.45 L23.95 -96.75 Q26.6 -96.6 26.35 -93.95 L26.1 -93.2 25.5 -92.8 25.45 -92.75 Q21.35 -93.65 17.75 -96.3 14.05 -99.0 11.2 -102.35 8.45 -105.65 11.85 -107.25 12.85 -107.75 13.8 -106.9 15.3 -105.5 14.95 -103.55 M52.5 -50.25 L52.45 -49.95 52.15 -49.25 51.75 -48.6 51.6 -48.4 51.35 -48.15 49.9 -47.5 48.6 -47.45 Q40.85 -51.0 36.0 -58.05 34.75 -59.95 34.05 -62.0 32.95 -65.6 36.5 -64.8 37.45 -64.6 37.75 -63.55 38.25 -61.6 39.45 -60.0 L40.0 -59.4 41.75 -57.1 41.8 -57.0 43.15 -55.75 Q44.4 -54.15 46.05 -52.8 47.4 -53.8 49.05 -53.5 52.0 -53.1 52.5 -50.25 M35.3 -82.05 Q37.95 -81.65 36.8 -79.35 36.4 -78.6 35.6 -78.25 29.45 -75.75 22.9 -74.35 16.45 -72.9 9.8 -72.1 L5.05 -72.0 Q4.35 -71.2 2.4 -71.75 L-10.4 -75.0 Q-11.5 -75.25 -12.5 -75.6 -12.3 -69.0 -12.4 -62.35 -12.4 -58.3 -12.55 -54.4 L-12.5 -53.95 -12.65 -53.15 Q-12.75 -52.75 -13.05 -52.5 -13.7 -51.9 -15.1 -52.25 L-18.7 -52.7 Q-20.65 -52.7 -22.1 -53.65 -22.95 -54.2 -22.6 -55.2 -22.2 -56.35 -21.0 -56.45 L-15.95 -55.9 Q-15.75 -61.65 -15.8 -67.45 L-15.75 -77.55 Q-16.15 -78.1 -15.9 -78.8 -15.45 -79.95 -14.3 -80.0 L-1.6 -76.55 0.5 -75.95 Q-1.3 -81.4 -3.95 -86.5 L-6.4 -91.25 -6.5 -91.45 Q-11.9 -89.2 -17.35 -87.1 L-19.45 -86.55 Q-21.95 -85.3 -24.65 -84.6 L-26.05 -84.5 Q-27.15 -84.65 -27.2 -86.3 L-27.65 -94.75 Q-27.85 -96.9 -25.85 -97.25 -23.5 -96.4 -23.95 -93.6 L-24.0 -92.55 Q-23.8 -90.55 -23.9 -88.6 -18.8 -90.45 -13.8 -92.5 L-6.0 -95.7 -5.45 -95.65 -5.3 -95.7 -5.05 -95.6 -3.9 -94.9 Q-3.15 -94.2 -2.8 -93.0 L-1.95 -90.65 1.05 -84.25 2.1 -82.2 2.2 -81.5 Q3.85 -78.5 4.45 -75.25 L9.55 -75.8 Q16.05 -76.4 22.4 -77.9 28.85 -79.45 35.0 -81.95 L35.3 -82.05" fill="#666666" fill-rule="evenodd" stroke="none"/>
  </g>
</svg>
