<?xml version="1.0" encoding="UTF-8" standalone="no"?>
<svg xmlns:ffdec="https://www.free-decompiler.com/flash" xmlns:xlink="http://www.w3.org/1999/xlink" ffdec:objectType="shape" height="69.15px" width="57.15px" xmlns="http://www.w3.org/2000/svg">
  <g transform="matrix(1.0, 0.0, 0.0, 1.0, 19.45, 114.4)">
    <path d="M3.8 -105.2 Q4.55 -104.15 4.3 -102.4 L4.25 -101.55 Q5.05 -98.55 5.35 -95.35 L6.05 -87.2 6.05 -86.3 17.4 -83.6 26.1 -82.55 26.85 -82.5 34.05 -82.05 Q35.2 -81.95 35.3 -80.75 35.45 -79.35 34.05 -79.1 29.1 -78.25 24.25 -79.0 L20.25 -79.6 16.5 -80.15 Q10.45 -81.25 4.7 -83.25 L4.25 -83.1 -1.1 -82.2 -10.4 -81.35 -13.55 -81.3 -12.15 -79.4 -11.25 -78.25 Q-9.6 -76.2 -8.4 -74.0 L-1.85 -64.75 Q-1.25 -64.35 -1.2 -63.7 -1.0 -63.05 -1.6 -62.5 L-1.8 -62.3 -1.9 -62.2 Q-2.65 -61.25 -3.8 -60.75 -6.5 -59.65 -9.4 -58.95 -10.8 -58.65 -11.2 -60.0 -11.75 -62.1 -9.65 -62.7 -8.25 -63.05 -6.9 -63.55 L-5.55 -64.05 -12.05 -73.3 Q-13.9 -76.05 -16.2 -78.45 -17.55 -79.85 -18.45 -81.4 -19.1 -81.8 -19.15 -82.75 L-19.35 -83.15 Q-19.6 -83.85 -19.1 -84.45 -18.55 -85.1 -17.8 -85.1 L-17.1 -84.7 -5.1 -85.45 2.25 -86.3 2.2 -87.05 2.15 -89.95 Q1.55 -96.45 0.55 -102.9 L-7.05 -103.2 -13.05 -103.55 Q-15.15 -103.55 -17.05 -104.1 L-17.1 -104.1 Q-17.85 -103.95 -18.25 -104.5 L-18.7 -105.15 -18.75 -105.55 Q-19.05 -106.45 -19.0 -107.4 -19.0 -109.8 -18.45 -112.05 L-17.85 -112.7 -17.1 -112.95 Q-14.65 -111.9 -15.2 -108.9 L-15.25 -107.3 -3.95 -106.65 -1.75 -106.45 1.7 -106.1 2.3 -106.25 3.0 -105.9 3.8 -105.2 M33.35 -113.2 Q33.95 -114.3 35.1 -114.4 38.25 -114.1 37.6 -110.9 37.4 -109.85 36.3 -109.35 L36.45 -98.1 Q36.45 -95.75 34.15 -96.45 33.15 -96.75 33.1 -97.8 L32.6 -109.75 Q32.55 -111.65 33.35 -113.2 M23.95 -66.8 Q23.8 -68.35 24.8 -69.35 25.3 -69.8 25.85 -69.8 28.25 -68.85 27.7 -66.0 L27.65 -65.5 27.8 -52.15 27.8 -50.95 Q30.75 -48.95 28.8 -45.9 L28.05 -45.4 Q24.85 -44.65 24.55 -47.45 L24.35 -50.7 24.15 -63.15 23.95 -66.8" fill="#666666" fill-rule="evenodd" stroke="none"/>
  </g>
</svg>
