<?xml version="1.0" encoding="UTF-8" standalone="no"?>
<svg xmlns:ffdec="https://www.free-decompiler.com/flash" xmlns:xlink="http://www.w3.org/1999/xlink" ffdec:objectType="shape" height="73.6px" width="83.2px" xmlns="http://www.w3.org/2000/svg">
  <g transform="matrix(1.0, 0.0, 0.0, 1.0, 14.25, 132.5)">
    <path d="M12.3 -119.1 Q10.85 -114.5 10.35 -109.75 L9.5 -99.9 9.95 -99.4 Q13.5 -95.25 18.1 -92.55 L33.25 -83.85 Q35.05 -82.9 36.65 -81.65 L38.35 -80.35 Q39.15 -79.65 39.15 -78.65 37.45 -75.7 34.4 -78.15 31.0 -81.0 27.05 -83.2 L19.45 -87.7 14.1 -90.85 Q10.3 -92.9 7.8 -96.2 L6.05 -94.75 -6.85 -86.5 5.8 -85.35 8.3 -84.75 Q9.45 -84.6 9.75 -83.6 L9.85 -82.9 Q9.65 -78.0 7.4 -73.9 7.2 -73.55 6.8 -73.6 3.55 -74.3 5.05 -78.05 L6.05 -81.1 5.5 -81.2 2.1 -81.7 -10.6 -83.3 -12.95 -83.9 -13.0 -83.9 Q-13.4 -83.85 -13.65 -84.2 L-13.7 -84.25 Q-14.25 -84.95 -14.25 -85.6 -14.35 -86.7 -12.9 -87.5 L-11.55 -88.35 Q-3.85 -92.65 3.4 -98.0 4.55 -98.9 5.85 -99.6 L5.8 -99.95 Q5.85 -108.85 8.1 -117.25 L7.65 -117.35 4.2 -117.9 -11.15 -118.9 -11.35 -118.95 -12.5 -119.15 Q-13.4 -119.5 -13.3 -120.4 -13.65 -121.2 -13.25 -121.9 -10.2 -127.45 -6.15 -132.15 -5.7 -132.65 -5.0 -132.45 -3.6 -132.0 -3.6 -130.6 -5.7 -126.5 -8.3 -122.45 L6.3 -121.6 Q8.35 -121.5 10.2 -120.85 11.95 -121.25 12.3 -119.1 M68.05 -106.1 Q69.0 -105.6 68.95 -104.6 68.15 -100.6 64.45 -102.4 L64.2 -102.55 Q56.4 -99.35 49.15 -94.7 47.05 -93.4 44.9 -93.8 44.2 -93.95 44.1 -94.65 43.7 -97.6 46.8 -98.2 48.4 -98.55 49.85 -99.4 56.5 -103.35 63.6 -106.2 L68.05 -106.1 M25.4 -80.35 Q26.35 -79.75 26.3 -78.75 25.55 -76.6 23.95 -74.7 L22.65 -72.95 Q18.25 -66.4 13.35 -60.15 11.7 -58.0 9.6 -59.6 7.95 -60.9 9.0 -63.05 10.05 -65.2 12.3 -64.95 L23.2 -79.9 Q24.1 -81.2 25.4 -80.35" fill="#666666" fill-rule="evenodd" stroke="none"/>
  </g>
</svg>
