<?xml version="1.0" encoding="UTF-8" standalone="no"?>
<svg xmlns:ffdec="https://www.free-decompiler.com/flash" xmlns:xlink="http://www.w3.org/1999/xlink" ffdec:objectType="shape" height="68.75px" width="83.6px" xmlns="http://www.w3.org/2000/svg">
  <g transform="matrix(1.0, 0.0, 0.0, 1.0, 7.15, 147.9)">
    <path d="M21.4 -147.55 Q22.45 -146.55 21.9 -145.3 18.2 -142.5 14.15 -139.95 L27.0 -132.95 30.15 -130.6 Q31.95 -130.2 31.3 -128.15 28.0 -124.6 25.55 -120.5 L20.6 -112.0 20.75 -111.35 Q22.2 -106.1 25.2 -101.7 30.05 -94.45 35.15 -87.35 L37.3 -83.95 38.25 -82.0 Q38.65 -81.05 38.25 -80.15 35.45 -78.2 33.75 -81.75 31.9 -85.75 29.3 -89.4 L24.35 -96.75 20.85 -101.9 Q18.35 -105.35 17.45 -109.4 L15.3 -108.85 0.1 -106.9 Q5.35 -103.45 11.05 -100.45 12.25 -99.85 13.0 -98.85 14.0 -98.2 13.8 -97.15 L13.6 -96.5 Q11.35 -92.2 7.6 -89.45 7.25 -89.2 6.9 -89.45 4.3 -91.45 7.25 -94.2 L9.4 -96.5 9.0 -96.8 6.1 -98.75 Q0.45 -101.85 -4.65 -105.6 -5.65 -106.3 -6.5 -107.15 L-6.55 -107.2 Q-6.95 -107.3 -7.05 -107.75 L-7.05 -107.8 Q-7.25 -108.65 -7.0 -109.25 -6.6 -110.25 -4.95 -110.4 L-3.35 -110.6 Q5.45 -111.15 14.25 -112.9 L17.15 -113.3 17.25 -113.65 Q21.1 -121.65 26.7 -128.25 L26.4 -128.55 23.5 -130.5 10.1 -137.95 9.9 -138.1 8.95 -138.75 Q8.3 -139.45 8.75 -140.25 8.75 -141.1 9.45 -141.55 14.55 -145.25 20.25 -147.8 20.85 -148.05 21.4 -147.55 M76.25 -90.85 Q73.8 -87.6 71.2 -90.75 L71.05 -91.05 54.15 -90.35 Q51.7 -90.1 49.9 -91.4 49.35 -91.8 49.55 -92.45 50.45 -95.3 53.5 -94.5 L56.8 -94.3 Q64.45 -95.0 72.1 -94.55 74.5 -94.45 76.05 -92.55 76.7 -91.75 76.25 -90.85 M26.95 -87.8 Q27.3 -86.75 26.6 -86.0 24.6 -84.75 22.15 -84.25 L20.0 -83.65 Q12.35 -81.25 4.55 -79.3 1.9 -78.65 1.35 -81.15 0.85 -83.15 3.1 -84.2 5.25 -85.25 6.85 -83.65 L24.95 -88.75 Q26.5 -89.25 26.95 -87.8" fill="#666666" fill-rule="evenodd" stroke="none"/>
  </g>
</svg>
