<?xml version="1.0" encoding="UTF-8" standalone="no"?>
<svg xmlns:ffdec="https://www.free-decompiler.com/flash" xmlns:xlink="http://www.w3.org/1999/xlink" ffdec:objectType="shape" height="44.85px" width="107.95px" xmlns="http://www.w3.org/2000/svg">
  <g transform="matrix(1.0, 0.0, 0.0, 1.0, 86.0, 23.45)">
    <path d="M-16.15 -4.2 L-16.15 -6.4 -16.15 -6.7 -16.15 -9.75 -16.15 -10.05 -11.45 -10.05 -11.45 -9.75 -11.45 -6.7 -11.45 -6.4 -11.45 -4.2 -16.15 -4.2 M-11.45 -6.7 L-16.15 -6.7 -11.45 -6.7" fill="url(#gradient0)" fill-rule="evenodd" stroke="none"/>
    <path d="M-16.15 -4.2 L-16.15 -3.85 -11.45 -3.85 -11.45 -4.2 -11.45 -6.4 -11.45 -6.7 -11.45 -9.75 -7.8 -9.75 -7.8 -7.6 -7.8 -7.4 -7.8 -6.4 -7.8 -6.2 -4.95 -6.2 -4.95 -6.4 -4.95 -7.4 -4.95 -7.6 -4.8 -7.6 -4.8 -9.5 -2.2 -9.5 -1.75 -9.75 21.95 -9.75 21.95 4.3 -0.95 4.3 -0.95 2.6 -16.4 2.6 -0.95 2.6 -0.95 4.3 -22.05 4.3 -22.05 0.6 -22.05 -0.4 -22.05 -4.05 -22.05 -5.05 -23.05 -5.05 -23.05 -6.4 -18.4 -6.4 -23.05 -6.4 -23.05 -5.05 -26.9 -5.05 -26.9 -4.05 -26.9 -0.4 -26.9 0.6 -26.9 4.3 -43.0 4.3 -43.0 2.0 -43.0 4.3 -50.0 4.3 -50.3 4.0 -52.95 4.0 -52.95 4.3 -53.3 4.3 -53.6 4.3 -53.6 4.15 -57.1 4.15 -57.1 4.3 -86.0 4.3 -86.0 -9.75 -43.9 -9.75 -43.9 -7.85 -43.9 -7.7 -34.95 -7.7 -34.95 -7.85 -34.95 -9.75 -33.15 -9.75 -32.85 -9.75 -32.85 -9.25 -25.7 -9.25 -25.7 -9.75 -16.15 -9.75 -16.15 -6.7 -16.15 -6.4 -16.15 -4.2 M-18.4 -6.4 L-16.15 -6.4 -18.4 -6.4 M-18.4 -0.4 L-22.05 -0.4 -18.4 -0.4 -5.45 -0.4 -18.4 -0.4 M-33.15 -4.05 L-33.15 -9.75 -33.15 -4.05 M-7.8 -6.4 L-11.45 -6.4 -7.8 -6.4 M15.45 -6.4 L-4.95 -6.4 15.45 -6.4 M6.15 2.6 L-0.95 2.6 -0.95 -2.05 -0.95 2.6 6.15 2.6 M-58.6 -3.7 L-53.95 -3.7 -58.6 -3.7 M-74.2 -2.05 L-57.1 -2.05 -74.2 -2.05 M-32.55 -0.4 L-53.3 -0.4 -53.3 4.3 -53.3 -0.4 -32.55 -0.4 -28.7 -0.4 -28.7 -7.1 -28.7 -0.4 -32.55 -0.4 M-23.4 -6.4 L-23.05 -6.4 -23.4 -6.4 M-31.35 -7.7 L-28.7 -7.7 -31.35 -7.7 M-53.95 -3.7 L-33.5 -3.7 -53.95 -3.7 M-28.7 -0.4 L-26.9 -0.4 -28.7 -0.4 M-28.85 1.6 L-32.55 1.6 -28.85 1.6 M-32.55 1.6 L-42.65 1.6 -32.55 1.6" fill="url(#gradient1)" fill-rule="evenodd" stroke="none"/>
    <path d="M-7.8 -7.4 L-7.8 -7.6 -7.6 -7.6 -4.95 -7.6 -4.95 -7.4 -7.8 -7.4" fill="url(#gradient2)" fill-rule="evenodd" stroke="none"/>
    <path d="M-4.95 -7.6 L-7.6 -7.6 -7.6 -10.85 -4.85 -10.85 -4.8 -10.85 -4.8 -9.5 -4.8 -7.6 -4.95 -7.6" fill="url(#gradient3)" fill-rule="evenodd" stroke="none"/>
    <path d="M-4.85 -10.85 L-4.85 -11.0 4.7 -16.35 9.5 -16.35 9.65 -16.1 -1.75 -9.75 -2.2 -9.5 -4.8 -9.5 -4.8 -10.85 -4.85 -10.85" fill="url(#gradient4)" fill-rule="evenodd" stroke="none"/>
    <path d="M-22.05 5.15 L-10.95 5.15 -10.95 7.15 -22.05 7.15 -22.05 6.15 -22.05 5.35 -22.05 5.15 M-26.9 7.15 L-42.7 7.15 -42.7 5.15 -26.9 5.15 -26.9 5.35 -26.9 6.15 -26.9 7.15" fill="url(#gradient5)" fill-rule="evenodd" stroke="none"/>
    <path d="M-43.9 -9.75 L-43.9 -9.85 -34.95 -9.85 -34.95 -9.75 -34.95 -7.85 -43.9 -7.85 -43.9 -9.75" fill="url(#gradient6)" fill-rule="evenodd" stroke="none"/>
    <path d="M-25.7 -9.75 L-25.7 -9.25 -32.85 -9.25 -32.85 -9.75 -32.85 -21.25 -25.7 -21.25 -25.7 -9.75" fill="url(#gradient7)" fill-rule="evenodd" stroke="none"/>
    <path d="M-22.05 -4.05 L-22.05 -0.4 -22.05 0.6 -22.05 4.3 -22.05 5.15 -22.05 5.35 -26.9 5.35 -26.9 5.15 -26.9 4.3 -26.9 0.6 -26.9 -0.4 -26.9 -4.05 -23.05 -4.05 -22.05 -4.05 M-23.05 -2.7 L-23.05 -4.05 -23.05 -2.7 M-22.05 0.6 L-26.9 0.6 -22.05 0.6" fill="url(#gradient8)" fill-rule="evenodd" stroke="none"/>
    <path d="M-22.05 6.15 L-22.05 7.15 -22.05 8.15 -26.9 8.15 -26.9 7.15 -26.9 6.15 -22.05 6.15" fill="url(#gradient9)" fill-rule="evenodd" stroke="none"/>
    <path d="M-52.95 4.3 L-52.95 4.0 -50.3 4.0 -50.0 4.3 -38.45 16.85 -39.65 21.4 -52.95 6.95 -52.95 4.3" fill="url(#gradient10)" fill-rule="evenodd" stroke="none"/>
    <path d="M-57.1 4.3 L-57.1 4.15 -53.6 4.15 -53.6 4.3 -53.6 11.8 -57.1 11.8 -57.1 4.3" fill="url(#gradient11)" fill-rule="evenodd" stroke="none"/>
    <path d="M-16.15 -6.4 L-18.4 -6.4 M-18.4 -0.4 L-5.45 -0.4 M-16.15 -6.7 L-11.45 -6.7 M-4.95 -7.6 L-7.6 -7.6 -7.8 -7.6 M-0.95 4.3 L-0.95 6.65 M-11.45 -6.4 L-7.8 -6.4 M-4.95 -6.4 L15.45 -6.4 M-0.95 -2.05 L-0.95 2.6 6.15 2.6 M-0.95 4.3 L-0.95 2.6 -16.4 2.6" fill="none" stroke="#003300" stroke-linecap="round" stroke-linejoin="round" stroke-width="4.0"/>
    <path d="M-57.1 -2.05 L-74.2 -2.05 M-53.95 -3.7 L-58.6 -3.7" fill="none" stroke="#00cc00" stroke-linecap="round" stroke-linejoin="round" stroke-width="4.0"/>
    <path d="M-33.15 -9.75 L-33.15 -4.05 M-43.0 4.3 L-43.0 6.35 M-33.15 -9.75 L-33.15 -21.45 M-53.3 4.3 L-53.3 -0.4 -32.55 -0.4 M-33.5 -3.7 L-53.95 -3.7 M-43.0 4.3 L-43.0 2.0 M-42.65 1.6 L-32.55 1.6 M-53.3 4.3 L-53.3 11.7" fill="none" stroke="#009900" stroke-linecap="round" stroke-linejoin="round" stroke-width="4.0"/>
    <path d="M-18.4 -6.4 L-23.05 -6.4 -23.05 -5.05 M-22.05 -0.4 L-18.4 -0.4 M-32.55 -0.4 L-28.7 -0.4 -28.7 -7.1 M-23.05 -4.05 L-23.05 -2.7 M-23.05 -6.4 L-23.4 -6.4 M-26.9 0.6 L-22.05 0.6 M-28.7 -7.7 L-31.35 -7.7 M-26.9 -0.4 L-28.7 -0.4 M-32.55 1.6 L-28.85 1.6" fill="none" stroke="#006600" stroke-linecap="round" stroke-linejoin="round" stroke-width="4.0"/>
  </g>
  <defs>
    <radialGradient cx="0" cy="0" gradientTransform="matrix(-0.1609, 0.0, 0.0, 0.3238, -95.0, -10.1)" gradientUnits="userSpaceOnUse" id="gradient0" r="819.2" spreadMethod="pad">
      <stop offset="0.0" stop-color="#00cc00"/>
      <stop offset="0.6196078431372549" stop-color="#006600"/>
      <stop offset="0.8862745098039215" stop-color="#000000"/>
    </radialGradient>
    <radialGradient cx="0" cy="0" gradientTransform="matrix(-0.1609, 0.0, 0.0, 0.3238, -95.0, -9.75)" gradientUnits="userSpaceOnUse" id="gradient1" r="819.2" spreadMethod="pad">
      <stop offset="0.0" stop-color="#00cc00"/>
      <stop offset="0.6196078431372549" stop-color="#006600"/>
      <stop offset="0.8862745098039215" stop-color="#000000"/>
    </radialGradient>
    <radialGradient cx="0" cy="0" gradientTransform="matrix(-0.1609, 0.0, 0.0, 0.3238, -95.0, -10.95)" gradientUnits="userSpaceOnUse" id="gradient2" r="819.2" spreadMethod="pad">
      <stop offset="0.0" stop-color="#00cc00"/>
      <stop offset="0.6196078431372549" stop-color="#006600"/>
      <stop offset="0.8862745098039215" stop-color="#000000"/>
    </radialGradient>
    <radialGradient cx="0" cy="0" gradientTransform="matrix(-0.1609, 0.0, 0.0, 0.3238, -94.85, -10.95)" gradientUnits="userSpaceOnUse" id="gradient3" r="819.2" spreadMethod="pad">
      <stop offset="0.0" stop-color="#00cc00"/>
      <stop offset="0.6196078431372549" stop-color="#006600"/>
      <stop offset="0.8862745098039215" stop-color="#000000"/>
    </radialGradient>
    <radialGradient cx="0" cy="0" gradientTransform="matrix(-0.0169, 0.0094, -0.0091, -0.0175, -4.6, -9.3)" gradientUnits="userSpaceOnUse" id="gradient4" r="819.2" spreadMethod="pad">
      <stop offset="0.32941176470588235" stop-color="#006600"/>
      <stop offset="1.0" stop-color="#000000"/>
    </radialGradient>
    <linearGradient gradientTransform="matrix(-0.0145, 5.0E-4, 0.0, 0.0019, -29.45, 6.2)" gradientUnits="userSpaceOnUse" id="gradient5" spreadMethod="pad" x1="-819.2" x2="819.2">
      <stop offset="0.4745098039215686" stop-color="#000000"/>
      <stop offset="1.0" stop-color="#006600"/>
    </linearGradient>
    <radialGradient cx="0" cy="0" gradientTransform="matrix(-0.1609, 0.0, 0.0, 0.3238, -95.0, -9.9)" gradientUnits="userSpaceOnUse" id="gradient6" r="819.2" spreadMethod="pad">
      <stop offset="0.0" stop-color="#00cc00"/>
      <stop offset="0.6196078431372549" stop-color="#006600"/>
      <stop offset="0.8862745098039215" stop-color="#000000"/>
    </radialGradient>
    <linearGradient gradientTransform="matrix(-0.0032, 0.0041, 0.0029, 0.0092, -29.35, -15.2)" gradientUnits="userSpaceOnUse" id="gradient7" spreadMethod="pad" x1="-819.2" x2="819.2">
      <stop offset="0.4745098039215686" stop-color="#000000"/>
      <stop offset="1.0" stop-color="#006600"/>
    </linearGradient>
    <radialGradient cx="0" cy="0" gradientTransform="matrix(-0.1609, 0.0, 0.0, 0.3238, -95.0, -8.75)" gradientUnits="userSpaceOnUse" id="gradient8" r="819.2" spreadMethod="pad">
      <stop offset="0.0" stop-color="#00cc00"/>
      <stop offset="0.6196078431372549" stop-color="#006600"/>
      <stop offset="0.8862745098039215" stop-color="#000000"/>
    </radialGradient>
    <linearGradient gradientTransform="matrix(-0.0145, 5.0E-4, 0.0, 0.0019, -29.45, 7.2)" gradientUnits="userSpaceOnUse" id="gradient9" spreadMethod="pad" x1="-819.2" x2="819.2">
      <stop offset="0.4745098039215686" stop-color="#000000"/>
      <stop offset="1.0" stop-color="#006600"/>
    </linearGradient>
    <radialGradient cx="0" cy="0" gradientTransform="matrix(-0.0169, -0.0183, -0.0091, 0.034, -52.7, 3.7)" gradientUnits="userSpaceOnUse" id="gradient10" r="819.2" spreadMethod="pad">
      <stop offset="0.32941176470588235" stop-color="#006600"/>
      <stop offset="1.0" stop-color="#000000"/>
    </radialGradient>
    <radialGradient cx="0" cy="0" gradientTransform="matrix(-0.0076, 0.0, 0.0, 0.0153, -52.85, 2.7)" gradientUnits="userSpaceOnUse" id="gradient11" r="819.2" spreadMethod="pad">
      <stop offset="0.32941176470588235" stop-color="#006600"/>
      <stop offset="1.0" stop-color="#000000"/>
    </radialGradient>
  </defs>
</svg>
