<?xml version="1.0" encoding="UTF-8" standalone="no"?>
<svg xmlns:ffdec="https://www.free-decompiler.com/flash" xmlns:xlink="http://www.w3.org/1999/xlink" ffdec:objectType="shape" height="74.85px" width="74.15px" xmlns="http://www.w3.org/2000/svg">
  <g transform="matrix(1.0, 0.0, 0.0, 1.0, 2.2, 154.8)">
    <path d="M22.2 -149.55 Q21.8 -150.4 22.45 -151.0 22.7 -151.85 23.5 -152.1 29.5 -154.1 35.7 -154.8 36.3 -154.9 36.7 -154.25 37.4 -153.0 36.5 -151.95 32.15 -150.35 27.55 -149.1 L37.7 -138.65 40.05 -135.45 Q41.6 -134.55 40.4 -132.75 36.2 -130.35 32.65 -127.2 L25.35 -120.5 25.35 -119.85 Q25.15 -114.4 26.7 -109.35 29.2 -101.0 32.0 -92.7 L33.0 -88.75 33.35 -86.65 Q33.45 -85.6 32.8 -84.9 29.55 -83.85 29.0 -87.7 28.4 -92.1 27.0 -96.4 25.65 -100.5 24.45 -104.85 L22.65 -110.8 Q21.25 -114.85 21.6 -118.95 L19.35 -119.1 8.75 -120.95 7.85 -121.45 8.4 -121.0 6.05 -121.4 6.4 -121.05 8.6 -118.9 14.4 -113.6 Q15.45 -112.75 16.0 -111.6 16.8 -110.8 16.4 -109.8 L16.1 -109.2 Q12.9 -105.5 8.6 -103.65 8.25 -103.5 7.95 -103.8 5.85 -106.35 9.35 -108.35 10.7 -109.2 11.95 -110.15 L11.6 -110.55 9.25 -113.05 Q4.4 -117.3 0.25 -122.1 L-1.2 -124.05 -1.25 -124.05 -1.6 -124.55 -1.6 -124.7 -1.6 -124.8 -1.6 -124.9 -2.2 -125.2 -2.1 -125.5 -1.75 -126.1 Q-1.1 -126.95 0.55 -126.6 L2.1 -126.3 Q10.65 -124.25 19.6 -123.25 L22.5 -122.8 22.7 -123.05 Q28.75 -129.55 36.05 -134.25 L35.8 -134.6 33.65 -137.35 Q28.5 -143.15 23.05 -148.45 L22.95 -148.6 22.2 -149.55 M5.1 -103.45 Q13.6 -99.95 22.3 -96.7 23.75 -96.2 23.25 -94.7 22.9 -93.65 21.95 -93.45 19.65 -93.6 17.45 -94.7 L15.4 -95.5 Q8.0 -98.15 0.75 -101.25 -1.75 -102.35 -0.7 -104.75 0.1 -106.7 2.5 -106.2 4.8 -105.7 5.1 -103.45 M71.35 -80.6 Q67.8 -78.6 66.75 -82.55 L66.7 -82.85 Q59.15 -86.6 50.95 -89.0 48.55 -89.7 47.45 -91.6 47.1 -92.2 47.55 -92.75 49.5 -94.95 52.0 -93.05 53.3 -92.05 54.95 -91.55 62.25 -89.1 69.05 -85.65 71.2 -84.6 71.9 -82.25 72.15 -81.2 71.35 -80.6" fill="#666666" fill-rule="evenodd" stroke="none"/>
  </g>
</svg>
