<?xml version="1.0" encoding="UTF-8" standalone="no"?>
<svg xmlns:ffdec="https://www.free-decompiler.com/flash" xmlns:xlink="http://www.w3.org/1999/xlink" ffdec:objectType="shape" height="90.6px" width="52.1px" xmlns="http://www.w3.org/2000/svg">
  <g transform="matrix(1.0, 0.0, 0.0, 1.0, -5.55, 160.55)">
    <path d="M45.4 -152.65 Q49.85 -153.1 54.1 -154.55 57.0 -155.6 57.65 -152.85 56.05 -150.4 52.85 -150.0 L47.65 -149.15 Q47.55 -147.2 48.15 -144.7 L49.95 -135.75 Q50.7 -131.25 46.1 -131.45 L39.9 -131.25 37.75 -130.95 34.45 -130.15 31.25 -129.9 Q29.7 -128.85 28.4 -129.0 L28.6 -112.5 Q28.6 -110.6 28.85 -108.95 28.45 -100.0 25.4 -91.65 24.75 -90.05 23.2 -89.9 21.35 -89.75 21.45 -91.6 21.65 -94.05 22.5 -96.3 25.8 -104.75 25.25 -113.9 L24.65 -125.1 Q24.55 -127.45 24.85 -129.75 L24.7 -130.35 Q23.55 -139.25 23.5 -148.2 L23.45 -148.8 19.05 -130.05 Q18.8 -129.2 17.95 -129.2 14.4 -129.45 11.2 -131.0 8.95 -132.15 7.95 -134.2 7.55 -135.05 8.3 -135.6 10.0 -136.9 11.8 -135.45 13.75 -133.85 16.2 -133.15 18.5 -144.2 21.15 -155.45 L21.45 -157.8 Q21.7 -161.15 24.55 -160.45 25.55 -160.25 25.7 -159.2 27.15 -148.15 27.75 -137.05 27.85 -134.9 28.3 -132.85 L28.7 -132.8 Q31.2 -133.65 33.8 -134.3 L39.85 -134.7 Q42.25 -135.5 44.95 -135.4 L45.85 -135.35 Q45.5 -142.15 43.4 -149.15 42.5 -152.3 45.4 -152.65 M11.95 -121.7 Q12.15 -118.75 9.6 -117.95 8.9 -112.7 11.1 -107.35 L13.05 -101.9 Q11.75 -98.5 9.4 -101.4 8.65 -102.3 8.25 -103.4 7.25 -106.0 6.5 -108.75 4.8 -115.05 6.2 -121.45 L6.5 -122.05 Q8.75 -125.05 11.45 -122.65 11.9 -122.3 11.95 -121.7 M44.45 -91.4 Q46.95 -87.55 48.05 -82.95 L49.9 -73.15 Q49.55 -68.65 45.35 -70.45 44.35 -70.9 44.3 -72.0 44.25 -73.75 45.6 -74.4 45.55 -84.25 39.3 -91.7 36.75 -93.95 39.85 -95.15 L40.95 -95.0 Q43.0 -93.6 44.45 -91.4" fill="#666666" fill-rule="evenodd" stroke="none"/>
  </g>
</svg>
