<?xml version="1.0" encoding="UTF-8" standalone="no"?>
<svg xmlns:ffdec="https://www.free-decompiler.com/flash" xmlns:xlink="http://www.w3.org/1999/xlink" ffdec:objectType="shape" height="80.5px" width="55.1px" xmlns="http://www.w3.org/2000/svg">
  <g transform="matrix(1.0, 0.0, 0.0, 1.0, -10.95, 155.75)">
    <path d="M18.65 -151.75 L18.7 -151.6 21.15 -147.6 Q23.55 -149.1 26.25 -150.0 30.9 -151.65 35.15 -153.9 L37.7 -155.2 Q38.2 -155.65 39.0 -155.75 41.15 -155.4 40.8 -153.85 40.85 -153.1 40.35 -152.05 39.1 -149.55 38.5 -146.8 L36.8 -140.3 35.15 -134.4 35.15 -134.3 Q40.25 -134.3 45.25 -132.95 L47.15 -132.5 51.0 -131.85 52.3 -135.85 Q53.65 -141.9 56.15 -147.5 L56.8 -148.4 56.85 -148.45 Q57.35 -148.85 57.95 -148.9 L65.1 -148.05 Q65.75 -147.95 65.9 -147.35 66.5 -145.4 64.4 -145.15 L60.0 -145.0 59.15 -145.1 Q57.7 -142.4 56.95 -139.55 L55.3 -133.65 55.2 -132.95 54.8 -132.25 Q54.5 -129.95 53.1 -128.4 52.65 -127.95 52.1 -128.2 L51.9 -128.3 39.05 -130.4 33.5 -131.1 33.05 -130.0 29.15 -118.0 28.85 -117.2 28.45 -116.5 27.35 -111.15 26.9 -110.1 Q26.3 -106.95 24.6 -104.15 23.05 -101.6 21.15 -103.85 20.8 -104.25 21.0 -104.75 L23.1 -110.2 23.7 -111.85 25.45 -118.45 Q26.2 -122.25 27.8 -125.8 L28.05 -126.6 Q29.3 -130.85 31.3 -134.65 L31.35 -134.7 Q31.3 -135.7 31.8 -136.65 L32.45 -138.3 35.15 -147.85 35.75 -149.8 Q33.15 -148.6 30.35 -147.8 25.65 -146.4 21.4 -143.9 20.75 -143.5 20.2 -143.7 19.6 -143.75 19.15 -144.3 16.85 -147.25 15.45 -150.55 L15.35 -151.35 Q15.55 -152.85 17.0 -153.0 18.25 -152.9 18.65 -151.75 M21.85 -131.8 Q20.8 -129.0 18.2 -129.35 15.35 -124.85 15.2 -119.1 L14.7 -113.35 Q12.1 -110.8 11.2 -114.35 10.85 -115.5 10.95 -116.65 11.1 -119.45 11.6 -122.25 12.65 -128.7 16.55 -133.95 L17.05 -134.35 17.75 -134.7 21.8 -132.85 21.85 -131.8 M38.15 -94.35 L38.05 -92.3 38.1 -89.9 Q38.2 -86.25 37.4 -82.85 L36.3 -78.4 Q35.9 -77.05 34.75 -76.05 32.45 -74.1 31.0 -76.8 30.75 -77.25 30.75 -77.75 30.7 -79.95 32.95 -80.35 35.15 -85.65 34.55 -91.65 L34.7 -92.3 Q34.15 -94.9 35.05 -97.25 35.25 -97.85 35.9 -97.95 L36.25 -98.05 Q38.6 -97.15 38.15 -94.35" fill="#666666" fill-rule="evenodd" stroke="none"/>
  </g>
</svg>
