<?xml version="1.0" encoding="UTF-8" standalone="no"?>
<svg xmlns:ffdec="https://www.free-decompiler.com/flash" xmlns:xlink="http://www.w3.org/1999/xlink" ffdec:objectType="shape" height="82.85px" width="65.65px" xmlns="http://www.w3.org/2000/svg">
  <g transform="matrix(1.0, 0.0, 0.0, 1.0, -5.7, 171.7)">
    <path d="M44.8 -168.2 Q44.65 -167.25 44.65 -166.3 L44.35 -164.0 Q46.45 -162.55 48.0 -160.2 L50.4 -156.6 55.5 -149.15 56.2 -148.1 Q56.75 -147.7 56.7 -147.0 56.9 -146.15 56.05 -145.6 55.4 -144.85 54.35 -144.65 52.3 -144.3 50.3 -143.6 L39.95 -139.95 41.0 -138.95 Q45.0 -134.95 48.4 -130.35 53.15 -134.45 57.3 -139.15 59.45 -141.6 62.05 -143.55 62.5 -144.35 63.5 -144.45 67.7 -143.7 71.0 -140.9 71.55 -140.45 71.25 -139.75 70.25 -137.7 68.05 -138.9 L65.75 -140.1 63.9 -140.7 61.85 -138.45 54.55 -131.1 Q51.95 -128.2 48.65 -126.2 L47.55 -126.25 47.1 -126.6 46.5 -127.2 Q42.55 -132.6 37.45 -136.85 L36.2 -138.1 35.4 -137.35 30.45 -132.7 21.05 -123.2 Q18.4 -120.5 15.05 -118.8 L13.85 -118.85 Q12.0 -120.05 13.55 -121.55 L15.75 -123.5 Q21.05 -127.5 25.4 -132.5 L27.8 -135.15 29.7 -137.15 Q32.6 -140.35 36.15 -142.75 L36.45 -142.85 37.25 -142.65 Q37.95 -143.1 38.85 -143.3 L40.85 -143.95 Q46.2 -146.05 51.8 -147.75 50.6 -149.2 49.75 -150.9 L48.45 -153.05 Q45.5 -157.6 42.1 -161.75 40.75 -162.15 40.85 -163.95 41.0 -167.45 41.55 -170.85 L41.8 -171.2 Q42.3 -171.7 42.95 -171.7 45.25 -170.9 44.8 -168.2 M24.6 -150.65 Q24.35 -148.1 21.7 -148.15 20.9 -148.2 20.3 -148.75 L14.75 -143.75 Q12.1 -140.1 9.85 -136.2 L8.9 -134.6 Q7.7 -132.45 6.0 -134.4 5.55 -134.9 5.75 -135.6 7.2 -140.05 10.15 -143.75 L11.85 -145.7 18.55 -152.25 Q19.55 -153.15 20.75 -153.65 L21.45 -153.9 Q24.95 -154.05 24.6 -150.65 M23.85 -103.95 L22.9 -102.45 Q18.8 -97.3 14.0 -92.75 L9.8 -89.1 Q9.35 -88.75 8.8 -88.9 6.55 -89.35 6.8 -91.75 7.1 -94.35 9.9 -93.95 15.15 -98.55 19.35 -104.1 L21.3 -106.2 Q21.8 -106.6 22.4 -106.65 25.0 -106.2 23.85 -103.95" fill="#666666" fill-rule="evenodd" stroke="none"/>
  </g>
</svg>
