<?xml version="1.0" encoding="UTF-8" standalone="no"?>
<svg xmlns:ffdec="https://www.free-decompiler.com/flash" xmlns:xlink="http://www.w3.org/1999/xlink" ffdec:objectType="shape" height="75.3px" width="73.2px" xmlns="http://www.w3.org/2000/svg">
  <g transform="matrix(1.0, 0.0, 0.0, 1.0, 8.75, 179.6)">
    <path d="M64.45 -178.1 L64.45 -177.65 Q63.2 -175.55 60.35 -175.6 L58.6 -175.45 Q56.9 -174.8 55.05 -174.8 L54.15 -174.8 Q56.35 -167.9 56.75 -160.55 57.05 -154.15 55.9 -147.95 55.7 -147.2 54.95 -147.1 L47.25 -145.95 39.9 -145.7 40.05 -143.8 39.9 -133.3 Q42.65 -135.35 45.55 -136.95 46.55 -137.6 47.7 -137.9 53.45 -140.95 58.55 -145.0 L60.9 -144.95 Q64.55 -141.5 64.0 -136.35 L64.0 -135.45 Q64.15 -131.85 61.2 -132.85 60.2 -133.15 60.25 -134.25 60.4 -137.7 59.5 -140.95 54.35 -137.4 49.0 -134.2 43.65 -131.05 38.05 -128.8 37.45 -128.55 36.95 -129.05 36.0 -129.95 36.1 -131.25 L36.4 -143.6 36.2 -145.35 Q34.05 -142.35 30.65 -140.55 L30.45 -140.45 22.0 -134.4 Q21.2 -133.95 20.3 -133.95 14.3 -130.7 7.55 -130.9 4.2 -131.0 5.75 -133.85 6.2 -134.7 7.25 -134.65 12.15 -134.35 16.65 -136.4 L19.85 -137.7 21.75 -139.2 Q22.1 -139.55 22.6 -139.5 L29.35 -144.0 Q32.45 -146.15 34.7 -149.05 35.4 -149.95 36.45 -149.45 L36.55 -149.5 36.95 -149.6 37.05 -149.65 38.5 -149.5 Q42.15 -149.1 45.8 -149.55 L51.8 -150.45 52.7 -150.5 Q53.7 -160.1 51.45 -169.55 L50.2 -174.3 Q49.75 -175.7 50.25 -177.05 50.75 -178.6 52.45 -178.5 L56.65 -178.7 63.85 -178.9 Q64.35 -178.7 64.45 -178.1 M17.3 -162.6 Q18.15 -162.1 18.1 -161.2 17.7 -156.95 13.6 -157.25 13.1 -157.3 12.75 -157.6 L6.8 -151.9 Q3.3 -148.3 0.55 -143.9 -0.6 -142.25 -2.05 -143.65 -3.05 -144.7 -2.25 -146.05 0.05 -150.3 3.35 -153.9 7.6 -158.55 12.55 -162.35 14.7 -164.05 17.3 -162.6 M12.4 -112.1 Q7.3 -107.15 0.5 -105.1 L-1.5 -104.85 Q-5.25 -103.4 -8.2 -105.75 -8.6 -106.05 -8.65 -106.5 -9.25 -110.65 -5.45 -111.15 -2.55 -111.5 -2.7 -108.35 L-2.05 -108.5 -1.4 -108.55 2.15 -110.0 4.05 -110.7 Q7.75 -112.85 10.85 -115.7 13.0 -117.7 15.4 -119.2 16.05 -119.7 16.75 -119.05 17.45 -118.4 17.45 -117.5 15.9 -114.2 12.65 -112.25 L12.4 -112.1" fill="#666666" fill-rule="evenodd" stroke="none"/>
  </g>
</svg>
