<?xml version="1.0" encoding="UTF-8" standalone="no"?>
<svg xmlns:ffdec="https://www.free-decompiler.com/flash" xmlns:xlink="http://www.w3.org/1999/xlink" ffdec:objectType="shape" height="62.75px" width="77.95px" xmlns="http://www.w3.org/2000/svg">
  <g transform="matrix(1.0, 0.0, 0.0, 1.0, 10.75, 176.9)">
    <path d="M55.65 -165.9 L65.9 -165.65 Q67.0 -165.6 67.15 -164.5 67.4 -162.75 65.55 -162.65 L57.6 -162.55 57.55 -162.05 57.35 -159.5 Q57.45 -152.85 57.7 -146.15 57.85 -143.45 57.55 -140.8 57.4 -139.85 56.45 -139.75 55.3 -139.65 54.8 -140.2 L51.9 -140.95 Q45.65 -142.85 39.7 -145.6 L38.15 -146.3 37.75 -145.55 Q37.3 -140.9 35.8 -136.55 L35.45 -135.85 35.0 -133.9 Q37.2 -133.15 39.3 -132.0 42.55 -130.2 46.05 -128.8 48.4 -127.85 50.55 -126.6 52.9 -126.05 52.2 -123.5 51.35 -120.5 49.7 -117.9 L49.05 -117.05 Q47.15 -115.0 46.0 -117.5 45.75 -118.05 46.0 -118.6 L48.05 -123.0 48.45 -123.85 Q43.1 -125.9 38.05 -128.65 35.15 -130.25 32.05 -131.4 30.9 -131.85 31.1 -132.95 30.75 -133.75 31.3 -134.95 L31.9 -136.4 Q33.8 -141.95 34.55 -147.75 29.5 -146.5 24.3 -145.85 21.55 -145.45 18.95 -144.6 15.75 -143.5 12.8 -141.85 10.2 -140.4 7.25 -140.35 6.4 -140.35 6.15 -141.2 5.55 -143.3 7.9 -143.9 10.1 -144.5 12.15 -145.55 L13.1 -146.05 Q19.2 -148.85 25.8 -149.75 31.25 -150.5 36.45 -151.9 38.45 -151.75 38.5 -150.5 L38.6 -150.25 Q43.25 -148.0 48.1 -146.0 51.1 -144.75 54.25 -143.8 L53.85 -154.8 Q53.75 -159.2 54.2 -163.45 L54.15 -163.55 Q53.75 -164.95 54.6 -165.5 L54.9 -165.7 55.65 -165.9 M16.6 -173.65 Q16.15 -172.4 14.85 -172.05 L12.4 -172.0 Q8.7 -168.8 6.3 -164.65 L5.0 -162.5 Q3.65 -160.45 2.65 -158.2 1.65 -156.0 -0.1 -157.7 -0.75 -158.35 -0.5 -159.25 0.05 -161.55 1.35 -163.55 L5.1 -169.1 8.4 -173.25 Q11.0 -176.0 14.55 -176.9 17.6 -176.55 16.6 -173.65 M9.15 -126.9 Q11.9 -126.45 10.7 -124.0 10.25 -123.1 9.15 -123.05 8.7 -123.05 8.35 -122.75 3.05 -118.75 -3.05 -116.35 L-6.8 -114.6 Q-8.95 -113.5 -10.35 -115.2 -10.85 -115.8 -10.7 -116.6 -10.0 -120.0 -6.35 -119.4 -5.3 -119.25 -4.25 -119.75 -1.2 -121.2 1.7 -122.85 L5.1 -125.05 Q7.0 -126.4 9.15 -126.9" fill="#666666" fill-rule="evenodd" stroke="none"/>
  </g>
</svg>
