<?xml version="1.0" encoding="UTF-8" standalone="no"?>
<svg xmlns:ffdec="https://www.free-decompiler.com/flash" xmlns:xlink="http://www.w3.org/1999/xlink" ffdec:objectType="shape" height="83.0px" width="89.35px" xmlns="http://www.w3.org/2000/svg">
  <g transform="matrix(1.0, 0.0, 0.0, 1.0, 21.5, 195.45)">
    <path d="M55.25 -154.75 Q55.3 -156.75 56.4 -157.85 56.65 -158.7 57.95 -158.95 62.95 -159.05 67.3 -156.9 67.95 -156.6 67.85 -155.9 67.55 -153.6 65.2 -154.25 L59.3 -155.5 58.2 -152.9 58.0 -152.55 Q56.7 -146.2 53.5 -140.5 51.4 -136.8 50.15 -132.85 L50.2 -132.55 Q50.35 -131.25 49.0 -131.05 47.4 -130.8 46.45 -132.3 43.2 -137.6 39.15 -142.35 L38.45 -143.15 Q36.3 -145.55 34.55 -148.25 L32.9 -146.35 29.7 -142.9 24.7 -137.7 24.9 -136.55 25.05 -136.0 Q28.2 -130.15 30.8 -124.1 L32.65 -118.75 Q33.4 -118.2 33.05 -117.1 33.15 -116.65 32.7 -116.35 L32.65 -116.3 32.05 -115.85 Q28.4 -113.95 24.6 -112.5 L24.0 -112.6 Q22.2 -113.75 23.6 -115.3 24.55 -116.35 25.8 -117.0 L29.15 -118.45 28.5 -119.95 Q26.4 -125.85 23.5 -131.4 L21.5 -135.6 Q21.15 -136.4 21.1 -137.05 20.75 -137.7 21.2 -138.75 L22.1 -140.05 Q26.85 -144.75 31.1 -149.8 L32.5 -151.6 Q28.85 -152.95 24.85 -152.8 L17.5 -152.5 7.2 -151.75 4.6 -151.5 Q2.5 -151.25 2.6 -153.2 2.65 -154.5 4.0 -154.85 8.65 -156.15 13.5 -155.9 L17.3 -156.2 30.45 -155.75 Q34.35 -155.4 37.0 -152.75 37.3 -152.45 37.2 -152.05 L36.95 -151.4 37.15 -150.8 37.35 -150.4 45.65 -139.95 47.75 -137.25 47.8 -137.5 48.75 -139.0 Q50.2 -142.5 52.0 -145.7 L52.25 -146.1 Q53.95 -149.95 54.85 -154.0 L55.25 -154.75 M9.1 -193.7 L9.1 -193.5 Q10.85 -191.7 9.15 -189.75 8.8 -189.4 8.75 -188.85 7.9 -182.4 6.15 -176.2 L5.65 -175.15 5.6 -174.65 Q5.5 -174.15 5.2 -173.8 5.2 -171.0 2.45 -171.75 1.65 -172.0 1.65 -172.8 1.55 -174.5 2.15 -176.1 4.5 -182.25 5.35 -188.9 L5.35 -190.45 Q3.85 -192.8 5.6 -194.9 6.05 -195.45 6.7 -195.45 8.8 -195.65 9.1 -193.7 M3.3 -139.1 Q2.2 -135.7 -0.8 -133.45 L-1.0 -133.3 Q-5.45 -127.85 -11.95 -125.15 L-13.9 -124.65 Q-17.45 -122.85 -20.7 -124.85 L-21.25 -125.5 Q-22.4 -129.55 -18.7 -130.45 -15.85 -131.1 -15.6 -127.95 L-14.95 -128.2 -14.3 -128.3 Q-12.6 -129.15 -10.95 -130.1 L-9.15 -131.0 Q-5.75 -133.5 -3.05 -136.65 -1.2 -138.85 1.0 -140.6 1.6 -141.1 2.35 -140.6 3.2 -140.0 3.3 -139.1" fill="#666666" fill-rule="evenodd" stroke="none"/>
  </g>
</svg>
