<?xml version="1.0" encoding="UTF-8" standalone="no"?>
<svg xmlns:ffdec="https://www.free-decompiler.com/flash" xmlns:xlink="http://www.w3.org/1999/xlink" ffdec:objectType="shape" height="79.65px" width="74.25px" xmlns="http://www.w3.org/2000/svg">
  <g transform="matrix(1.0, 0.0, 0.0, 1.0, 15.75, 204.45)">
    <path d="M18.05 -199.25 Q18.5 -194.95 18.3 -190.6 18.25 -189.0 17.6 -187.65 L16.65 -184.5 15.75 -182.8 Q15.05 -180.35 12.9 -181.8 12.1 -182.35 12.35 -183.35 L13.45 -186.7 Q15.95 -193.0 14.3 -199.65 L14.2 -199.95 Q11.1 -199.85 11.3 -202.65 11.35 -203.8 12.55 -204.25 L13.15 -204.45 Q17.6 -203.6 18.05 -199.25 M52.05 -153.8 L52.15 -153.85 52.35 -153.75 Q53.3 -153.55 53.6 -153.0 L55.35 -151.2 57.05 -149.35 57.2 -149.2 Q59.7 -147.6 57.35 -145.8 L56.8 -145.7 Q54.15 -146.35 52.35 -148.6 L52.05 -148.95 51.55 -148.35 49.6 -146.05 45.15 -140.8 Q41.8 -137.0 38.9 -132.95 L37.85 -131.05 37.75 -130.6 37.6 -130.05 37.1 -129.5 Q36.75 -129.25 36.3 -129.3 35.25 -129.25 34.85 -129.95 34.35 -130.5 34.5 -131.4 L36.05 -144.55 36.45 -148.65 25.5 -147.3 23.9 -147.1 23.8 -146.5 23.6 -143.95 Q23.6 -137.25 23.75 -130.6 L23.75 -127.25 23.75 -127.2 Q24.0 -126.2 23.4 -125.65 23.05 -125.2 22.4 -125.2 18.2 -124.4 14.0 -125.25 12.3 -125.6 12.8 -127.2 13.15 -128.4 14.3 -128.45 L20.25 -128.35 Q19.95 -134.25 19.95 -140.25 20.0 -144.25 20.35 -148.15 20.15 -148.95 20.45 -149.5 L20.6 -149.75 Q21.1 -150.3 21.8 -150.35 L22.0 -150.4 34.3 -152.05 Q30.65 -155.15 26.05 -156.9 19.8 -159.25 13.75 -161.95 L8.6 -163.65 Q6.8 -164.1 6.75 -165.75 6.7 -167.3 8.3 -167.5 14.6 -166.05 20.45 -163.15 22.9 -161.9 25.45 -160.9 30.4 -158.95 34.8 -156.1 L36.4 -155.05 Q38.45 -153.6 39.7 -151.5 40.25 -151.05 40.2 -150.4 L40.15 -150.05 40.0 -149.0 39.75 -147.35 39.1 -139.0 Q41.8 -142.65 44.8 -146.1 L50.9 -153.3 Q51.3 -153.85 51.95 -153.85 L52.05 -153.8 M5.75 -150.8 Q8.4 -150.4 7.2 -148.1 L6.45 -147.3 Q0.85 -143.8 -4.95 -140.65 -7.95 -139.0 -11.2 -138.15 -13.4 -137.55 -14.95 -138.8 -15.8 -139.45 -15.75 -140.6 -15.7 -142.15 -14.35 -143.15 -11.55 -145.25 -9.35 -142.7 -5.45 -143.65 -2.15 -146.1 L0.55 -147.9 5.45 -150.7 5.75 -150.8" fill="#666666" fill-rule="evenodd" stroke="none"/>
  </g>
</svg>
