<?xml version="1.0" encoding="UTF-8" standalone="no"?>
<svg xmlns:ffdec="https://www.free-decompiler.com/flash" xmlns:xlink="http://www.w3.org/1999/xlink" ffdec:objectType="shape" height="24.5px" width="175.85px" xmlns="http://www.w3.org/2000/svg">
  <g transform="matrix(1.0, 0.0, 0.0, 1.0, 86.0, 12.9)">
    <path d="M46.2 -5.35 L46.2 -5.4 61.85 -8.25 69.6 -8.25 69.8 -8.05 51.25 -4.75 50.5 -4.6 46.3 -4.6 46.3 -5.35 46.2 -5.35" fill="url(#gradient0)" fill-rule="evenodd" stroke="none"/>
    <path d="M46.3 -4.6 L50.5 -4.6 51.25 -4.75 89.85 -4.75 89.85 2.6 52.55 2.6 52.55 1.75 27.4 1.75 52.55 1.75 52.55 2.6 18.2 2.6 18.2 0.65 18.2 0.15 18.2 -1.75 18.2 -2.3 16.55 -2.3 16.55 -3.0 24.15 -3.0 16.55 -3.0 16.55 -2.3 10.3 -2.3 10.3 -1.75 10.3 0.15 7.35 0.15 1.15 0.15 7.35 0.15 7.35 -3.35 7.35 0.15 10.3 0.15 10.3 0.65 10.3 2.6 -15.85 2.6 -15.85 1.4 -15.85 2.6 -27.35 2.6 -27.85 2.45 -32.15 2.45 -32.15 2.6 -32.75 2.6 -33.2 2.6 -33.2 2.5 -38.9 2.5 -38.9 2.6 -86.0 2.6 -86.0 -4.75 -17.4 -4.75 -17.4 -3.75 -17.4 -3.7 -2.85 -3.7 -2.85 -3.75 -2.85 -4.75 0.0 -4.75 0.6 -4.75 0.6 -4.5 12.25 -4.5 12.25 -4.75 27.8 -4.75 27.8 -3.2 27.8 -3.0 27.8 -1.85 27.8 -1.65 35.45 -1.65 35.45 -1.85 35.45 -3.0 41.4 -3.0 35.45 -3.0 35.45 -3.2 35.45 -4.75 41.4 -4.75 41.4 -3.6 41.4 -3.5 41.4 -3.0 41.4 -2.9 46.05 -2.9 46.05 -3.0 79.25 -3.0 46.05 -3.0 46.05 -3.5 46.05 -3.6 46.3 -3.6 46.3 -4.6 M1.15 0.15 L-32.75 0.15 -32.75 2.6 -32.75 0.15 1.15 0.15 M0.0 -1.75 L0.0 -4.75 0.0 -1.75 M3.05 -3.7 L7.35 -3.7 3.05 -3.7 M64.1 1.75 L52.55 1.75 52.55 -0.7 52.55 1.75 64.1 1.75 M24.15 -3.0 L27.8 -3.0 24.15 -3.0 M24.15 0.15 L18.2 0.15 24.15 0.15 45.2 0.15 24.15 0.15 M16.0 -3.0 L16.55 -3.0 16.0 -3.0 M7.1 1.2 L1.15 1.2 7.1 1.2 M-41.35 -1.6 L-33.8 -1.6 -41.35 -1.6 M-66.75 -0.7 L-38.9 -0.7 -66.75 -0.7 M-33.8 -1.6 L-0.45 -1.6 -33.8 -1.6 M1.15 1.2 L-15.4 1.2 1.15 1.2" fill="url(#gradient1)" fill-rule="evenodd" stroke="none"/>
    <path d="M-17.4 -3.75 L-17.4 -4.75 -17.4 -4.85 -2.85 -4.85 -2.85 -4.75 -2.85 -3.75 -17.4 -3.75" fill="url(#gradient2)" fill-rule="evenodd" stroke="none"/>
    <path d="M0.6 -4.75 L0.6 -10.8 12.25 -10.8 12.25 -4.75 12.25 -4.5 0.6 -4.5 0.6 -4.75" fill="url(#gradient3)" fill-rule="evenodd" stroke="none"/>
    <path d="M27.8 -4.75 L27.8 -4.95 35.45 -4.95 35.45 -4.75 35.45 -3.2 35.45 -3.0 35.45 -1.85 27.8 -1.85 27.8 -3.0 27.8 -3.2 27.8 -4.75 M27.8 -3.2 L35.45 -3.2 27.8 -3.2" fill="url(#gradient4)" fill-rule="evenodd" stroke="none"/>
    <path d="M46.2 -5.35 L46.3 -5.35 46.3 -4.6 46.3 -3.6 46.05 -3.6 41.7 -3.6 41.7 -5.35 46.2 -5.35" fill="url(#gradient5)" fill-rule="evenodd" stroke="none"/>
    <path d="M41.4 -3.6 L41.7 -3.6 46.05 -3.6 46.05 -3.5 41.4 -3.5 41.4 -3.6" fill="url(#gradient6)" fill-rule="evenodd" stroke="none"/>
    <path d="M18.2 3.05 L36.25 3.05 36.25 4.1 18.2 4.1 18.2 3.6 18.2 3.2 18.2 3.05 M10.3 4.1 L-15.45 4.1 -15.45 3.05 10.3 3.05 10.3 3.2 10.3 3.6 10.3 4.1" fill="url(#gradient7)" fill-rule="evenodd" stroke="none"/>
    <path d="M18.2 -1.75 L18.2 0.15 18.2 0.65 18.2 2.6 18.2 3.05 18.2 3.2 10.3 3.2 10.3 3.05 10.3 2.6 10.3 0.65 10.3 0.15 10.3 -1.75 16.55 -1.75 18.2 -1.75 M16.55 -1.05 L16.55 -1.75 16.55 -1.05 M10.3 0.65 L18.2 0.65 10.3 0.65" fill="url(#gradient8)" fill-rule="evenodd" stroke="none"/>
    <path d="M18.2 3.6 L18.2 4.1 18.2 4.65 10.3 4.65 10.3 4.1 10.3 3.6 18.2 3.6" fill="url(#gradient9)" fill-rule="evenodd" stroke="none"/>
    <path d="M-27.35 2.6 L-8.55 9.2 -10.5 11.6 -32.15 4.0 -32.15 2.6 -32.15 2.45 -27.85 2.45 -27.35 2.6" fill="url(#gradient10)" fill-rule="evenodd" stroke="none"/>
    <path d="M-38.9 2.6 L-38.9 2.5 -33.2 2.5 -33.2 2.6 -33.2 6.6 -38.9 6.6 -38.9 2.6" fill="url(#gradient11)" fill-rule="evenodd" stroke="none"/>
    <path d="M-32.75 2.6 L-32.75 0.15 1.15 0.15 M0.0 -4.75 L0.0 -10.9 M0.0 -4.75 L0.0 -1.75 M-15.85 2.6 L-15.85 3.65 M-32.75 2.6 L-32.75 6.5 M-15.85 2.6 L-15.85 1.4 M-15.4 1.2 L1.15 1.2 M-0.45 -1.6 L-33.8 -1.6" fill="none" stroke="#009900" stroke-linecap="round" stroke-linejoin="round" stroke-width="4.0"/>
    <path d="M1.15 0.15 L7.35 0.15 7.35 -3.35 M7.35 -3.7 L3.05 -3.7 M24.15 -3.0 L16.55 -3.0 16.55 -2.3 M18.2 0.15 L24.15 0.15 M16.55 -1.75 L16.55 -1.05 M16.55 -3.0 L16.0 -3.0 M10.3 0.15 L7.35 0.15 M18.2 0.65 L10.3 0.65 M1.15 1.2 L7.1 1.2" fill="none" stroke="#006600" stroke-linecap="round" stroke-linejoin="round" stroke-width="4.0"/>
    <path d="M52.55 2.6 L52.55 3.85 M41.4 -3.6 L41.7 -3.6 46.05 -3.6 M52.55 2.6 L52.55 1.75 27.4 1.75 M52.55 -0.7 L52.55 1.75 64.1 1.75 M41.4 -3.0 L35.45 -3.0 M27.8 -3.0 L24.15 -3.0 M24.15 0.15 L45.2 0.15 M35.45 -3.2 L27.8 -3.2 M46.05 -3.0 L79.25 -3.0" fill="none" stroke="#003300" stroke-linecap="round" stroke-linejoin="round" stroke-width="4.0"/>
    <path d="M-33.8 -1.6 L-41.35 -1.6 M-38.9 -0.7 L-66.75 -0.7" fill="none" stroke="#00cc00" stroke-linecap="round" stroke-linejoin="round" stroke-width="4.0"/>
  </g>
  <defs>
    <radialGradient cx="0" cy="0" gradientTransform="matrix(-0.0275, 0.005, -0.0148, -0.0092, 46.6, -4.5)" gradientUnits="userSpaceOnUse" id="gradient0" r="819.2" spreadMethod="pad">
      <stop offset="0.32941176470588235" stop-color="#006600"/>
      <stop offset="1.0" stop-color="#000000"/>
    </radialGradient>
    <radialGradient cx="0" cy="0" gradientTransform="matrix(-0.2621, 0.0, 0.0, 0.17, -100.65, -4.75)" gradientUnits="userSpaceOnUse" id="gradient1" r="819.2" spreadMethod="pad">
      <stop offset="0.0" stop-color="#00cc00"/>
      <stop offset="0.6196078431372549" stop-color="#006600"/>
      <stop offset="0.8862745098039215" stop-color="#000000"/>
    </radialGradient>
    <radialGradient cx="0" cy="0" gradientTransform="matrix(-0.2621, 0.0, 0.0, 0.17, -100.65, -4.85)" gradientUnits="userSpaceOnUse" id="gradient2" r="819.2" spreadMethod="pad">
      <stop offset="0.0" stop-color="#00cc00"/>
      <stop offset="0.6196078431372549" stop-color="#006600"/>
      <stop offset="0.8862745098039215" stop-color="#000000"/>
    </radialGradient>
    <linearGradient gradientTransform="matrix(-0.0052, 0.0021, 0.0047, 0.0048, 6.3, -7.6)" gradientUnits="userSpaceOnUse" id="gradient3" spreadMethod="pad" x1="-819.2" x2="819.2">
      <stop offset="0.4745098039215686" stop-color="#000000"/>
      <stop offset="1.0" stop-color="#006600"/>
    </linearGradient>
    <radialGradient cx="0" cy="0" gradientTransform="matrix(-0.2621, 0.0, 0.0, 0.17, -100.65, -4.95)" gradientUnits="userSpaceOnUse" id="gradient4" r="819.2" spreadMethod="pad">
      <stop offset="0.0" stop-color="#00cc00"/>
      <stop offset="0.6196078431372549" stop-color="#006600"/>
      <stop offset="0.8862745098039215" stop-color="#000000"/>
    </radialGradient>
    <radialGradient cx="0" cy="0" gradientTransform="matrix(-0.2621, 0.0, 0.0, 0.17, -100.4, -5.4)" gradientUnits="userSpaceOnUse" id="gradient5" r="819.2" spreadMethod="pad">
      <stop offset="0.0" stop-color="#00cc00"/>
      <stop offset="0.6196078431372549" stop-color="#006600"/>
      <stop offset="0.8862745098039215" stop-color="#000000"/>
    </radialGradient>
    <radialGradient cx="0" cy="0" gradientTransform="matrix(-0.2621, 0.0, 0.0, 0.17, -100.65, -5.4)" gradientUnits="userSpaceOnUse" id="gradient6" r="819.2" spreadMethod="pad">
      <stop offset="0.0" stop-color="#00cc00"/>
      <stop offset="0.6196078431372549" stop-color="#006600"/>
      <stop offset="0.8862745098039215" stop-color="#000000"/>
    </radialGradient>
    <linearGradient gradientTransform="matrix(-0.0236, 3.0E-4, 0.0, 0.001, 6.15, 3.6)" gradientUnits="userSpaceOnUse" id="gradient7" spreadMethod="pad" x1="-819.2" x2="819.2">
      <stop offset="0.4745098039215686" stop-color="#000000"/>
      <stop offset="1.0" stop-color="#006600"/>
    </linearGradient>
    <radialGradient cx="0" cy="0" gradientTransform="matrix(-0.2621, 0.0, 0.0, 0.17, -100.65, -4.25)" gradientUnits="userSpaceOnUse" id="gradient8" r="819.2" spreadMethod="pad">
      <stop offset="0.0" stop-color="#00cc00"/>
      <stop offset="0.6196078431372549" stop-color="#006600"/>
      <stop offset="0.8862745098039215" stop-color="#000000"/>
    </radialGradient>
    <linearGradient gradientTransform="matrix(-0.0236, 3.0E-4, 0.0, 0.001, 6.15, 4.15)" gradientUnits="userSpaceOnUse" id="gradient9" spreadMethod="pad" x1="-819.2" x2="819.2">
      <stop offset="0.4745098039215686" stop-color="#000000"/>
      <stop offset="1.0" stop-color="#006600"/>
    </linearGradient>
    <radialGradient cx="0" cy="0" gradientTransform="matrix(-0.0275, -0.0096, -0.0148, 0.0179, -31.75, 2.3)" gradientUnits="userSpaceOnUse" id="gradient10" r="819.2" spreadMethod="pad">
      <stop offset="0.32941176470588235" stop-color="#006600"/>
      <stop offset="1.0" stop-color="#000000"/>
    </radialGradient>
    <radialGradient cx="0" cy="0" gradientTransform="matrix(-0.0124, 0.0, 0.0, 0.008, -32.0, 1.8)" gradientUnits="userSpaceOnUse" id="gradient11" r="819.2" spreadMethod="pad">
      <stop offset="0.32941176470588235" stop-color="#006600"/>
      <stop offset="1.0" stop-color="#000000"/>
    </radialGradient>
  </defs>
</svg>
