<?xml version="1.0" encoding="UTF-8" standalone="no"?>
<svg xmlns:ffdec="https://www.free-decompiler.com/flash" xmlns:xlink="http://www.w3.org/1999/xlink" ffdec:objectType="shape" height="86.05px" width="62.5px" xmlns="http://www.w3.org/2000/svg">
  <g transform="matrix(1.0, 0.0, 0.0, 1.0, 10.1, 216.7)">
    <path d="M19.45 -215.75 Q19.9 -216.85 21.05 -216.65 25.4 -216.0 25.75 -211.15 25.95 -208.55 26.4 -206.15 26.65 -199.75 24.25 -194.05 23.05 -191.2 21.15 -193.45 20.35 -194.35 20.9 -195.6 23.8 -202.65 22.0 -210.2 17.35 -211.25 19.45 -215.75 M18.05 -178.75 Q24.5 -174.95 29.1 -168.7 31.1 -166.0 32.55 -162.95 L34.15 -158.8 Q34.85 -158.35 34.8 -157.1 34.75 -153.5 33.65 -150.05 32.5 -146.75 31.75 -143.25 L29.7 -135.1 Q36.55 -138.45 42.6 -143.25 45.3 -145.35 48.25 -146.65 48.8 -146.85 49.15 -146.35 51.75 -142.8 52.4 -138.5 51.2 -135.7 49.25 -137.9 48.45 -138.8 48.15 -139.95 L47.45 -142.05 Q41.25 -137.25 34.55 -133.3 30.9 -131.2 26.75 -130.65 25.8 -130.55 25.5 -131.45 24.75 -133.4 25.55 -135.4 26.85 -138.55 27.65 -141.8 29.15 -148.2 30.95 -154.45 L30.65 -154.5 29.25 -154.85 19.6 -155.55 Q18.6 -146.7 19.2 -137.7 19.25 -137.15 18.7 -136.9 L14.55 -136.35 11.75 -136.05 Q8.25 -134.8 6.75 -137.5 6.35 -138.1 6.85 -138.55 8.1 -139.9 10.1 -139.75 L11.7 -139.95 15.65 -140.3 Q14.5 -148.75 15.4 -157.25 15.45 -158.1 16.05 -158.75 17.65 -160.5 19.95 -159.45 L21.4 -159.1 28.4 -158.75 30.2 -158.6 Q28.15 -165.0 23.3 -169.8 20.45 -172.7 17.25 -175.05 L16.35 -175.2 15.3 -175.85 Q11.6 -176.2 13.65 -179.15 14.05 -179.75 14.8 -179.7 16.65 -179.8 18.05 -178.75 M11.15 -167.1 L12.7 -167.15 Q13.7 -166.5 13.65 -165.45 12.6 -161.9 9.4 -159.4 L1.9 -153.65 Q-2.0 -150.7 -6.75 -149.85 -10.55 -149.2 -10.05 -152.7 -9.85 -153.85 -9.0 -154.65 -6.95 -156.5 -5.35 -154.1 -4.25 -154.25 -3.15 -155.05 -2.3 -155.65 -1.25 -155.85 4.7 -160.15 9.5 -165.6 10.2 -166.5 11.15 -167.1" fill="#666666" fill-rule="evenodd" stroke="none"/>
  </g>
</svg>
