<?xml version="1.0" encoding="UTF-8" standalone="no"?>
<svg xmlns:ffdec="https://www.free-decompiler.com/flash" xmlns:xlink="http://www.w3.org/1999/xlink" ffdec:objectType="shape" height="50.45px" width="82.7px" xmlns="http://www.w3.org/2000/svg">
  <g transform="matrix(1.0, 0.0, 0.0, 1.0, 16.55, 206.15)">
    <path d="M63.0 -199.45 Q65.7 -199.5 66.15 -197.0 65.8 -194.15 64.4 -191.6 60.2 -183.7 52.75 -178.6 L52.1 -178.1 Q49.3 -175.75 47.3 -178.15 47.05 -178.45 47.2 -178.7 48.0 -180.7 50.05 -181.75 L51.9 -182.85 Q58.5 -187.2 61.35 -194.45 58.55 -197.45 62.15 -199.25 L63.0 -199.45 M35.95 -184.95 Q34.2 -181.4 30.9 -179.05 L25.3 -175.05 Q19.25 -170.1 12.25 -166.3 11.3 -165.8 10.6 -166.0 9.15 -165.0 6.95 -166.2 L2.05 -168.6 Q1.2 -168.95 0.5 -169.55 -1.6 -171.3 -3.95 -172.4 -5.2 -169.55 -5.05 -165.95 -4.9 -161.35 -5.5 -156.8 -5.7 -155.65 -6.8 -155.7 L-13.6 -156.0 -15.1 -156.25 Q-17.7 -157.2 -15.7 -159.15 -14.6 -160.4 -12.8 -160.05 L-8.85 -159.6 Q-8.1 -167.95 -7.65 -176.65 -7.65 -177.35 -6.9 -177.55 -5.15 -178.1 -3.65 -176.65 L-3.2 -176.3 Q0.75 -174.15 4.4 -171.55 L8.2 -170.0 Q8.8 -175.3 10.25 -180.4 L10.45 -181.4 9.55 -181.1 Q5.55 -179.65 1.3 -178.8 L-1.9 -178.55 Q-5.35 -178.8 -5.5 -182.25 -5.6 -183.35 -4.5 -183.75 -2.45 -184.7 -1.3 -182.65 2.75 -182.75 6.75 -184.1 L7.35 -184.15 11.0 -185.35 11.05 -185.8 6.4 -187.8 Q3.15 -189.3 -0.3 -189.85 L-8.05 -191.25 Q-9.15 -191.5 -8.95 -192.65 -7.95 -199.05 -6.55 -205.35 -6.4 -205.95 -5.8 -206.05 -3.65 -206.55 -3.65 -204.25 -3.75 -200.35 -4.75 -196.6 L-5.0 -194.25 -0.3 -193.7 Q3.2 -193.25 6.45 -191.85 L9.25 -190.55 12.6 -189.35 Q14.7 -188.8 14.95 -186.75 L14.9 -186.3 15.2 -186.3 Q18.5 -187.85 20.9 -185.5 L21.25 -184.8 Q20.05 -182.55 17.15 -182.7 L15.6 -182.6 14.4 -182.35 Q13.6 -177.05 12.2 -171.8 L11.8 -170.3 Q15.25 -172.75 18.9 -174.85 L20.0 -175.6 Q26.25 -180.25 32.15 -185.25 33.25 -187.9 35.35 -186.2 36.0 -185.7 35.95 -184.95" fill="#666666" fill-rule="evenodd" stroke="none"/>
  </g>
</svg>
