<?xml version="1.0" encoding="UTF-8" standalone="no"?>
<svg xmlns:ffdec="https://www.free-decompiler.com/flash" xmlns:xlink="http://www.w3.org/1999/xlink" ffdec:objectType="shape" height="81.65px" width="52.85px" xmlns="http://www.w3.org/2000/svg">
  <g transform="matrix(1.0, 0.0, 0.0, 1.0, 10.35, 222.65)">
    <path d="M4.05 -209.95 L-4.5 -210.35 Q-7.4 -210.4 -9.8 -211.7 -10.45 -212.05 -10.3 -212.75 L-9.1 -217.9 -9.1 -218.6 Q-9.35 -221.95 -6.65 -222.6 -5.8 -222.85 -5.4 -221.95 -4.7 -220.3 -5.0 -218.4 -5.35 -216.35 -5.95 -214.4 L2.7 -213.65 11.25 -213.25 Q14.2 -213.15 16.5 -211.85 17.2 -211.45 17.15 -210.75 L13.1 -196.0 12.35 -193.15 Q14.65 -193.0 16.85 -192.2 19.8 -191.15 22.75 -190.35 L26.7 -189.0 Q28.4 -190.65 28.3 -193.55 L28.35 -194.9 Q29.45 -202.8 31.3 -210.45 32.05 -213.75 35.25 -212.5 L35.9 -212.05 37.85 -211.5 38.45 -211.0 Q41.15 -210.8 42.4 -208.7 L42.5 -208.25 Q41.15 -205.55 38.15 -206.95 L36.1 -207.95 35.45 -208.45 35.25 -208.45 35.0 -208.5 34.65 -208.5 Q32.55 -199.2 31.3 -189.65 30.9 -186.35 28.3 -184.95 L27.05 -184.85 21.05 -186.8 12.75 -189.5 12.6 -189.5 13.05 -186.3 Q13.1 -184.85 13.55 -183.55 L15.0 -183.05 Q18.1 -182.1 21.0 -180.7 22.35 -180.05 22.4 -178.7 21.05 -175.85 18.2 -177.65 L15.45 -179.1 Q17.75 -174.9 21.75 -171.8 22.35 -171.8 22.75 -171.35 L23.4 -170.75 24.9 -169.9 25.5 -169.25 Q27.4 -169.15 28.5 -167.85 L28.85 -167.45 29.15 -166.8 Q28.05 -163.65 24.75 -165.35 22.05 -166.7 19.8 -168.5 15.25 -172.1 12.25 -177.35 11.25 -179.05 10.5 -180.8 L7.0 -181.65 6.55 -181.85 Q4.65 -182.2 3.0 -183.1 L2.05 -183.35 Q0.3 -180.6 -2.6 -182.8 -4.55 -184.35 -3.05 -186.35 -1.3 -188.75 1.6 -187.6 L5.05 -186.35 9.2 -184.95 Q8.75 -187.0 8.6 -189.15 L8.5 -191.75 Q8.45 -192.95 9.05 -193.4 L9.05 -193.45 Q9.45 -197.9 10.7 -202.15 L12.8 -209.2 4.05 -209.95 M19.65 -155.95 Q20.3 -157.75 21.95 -156.8 23.1 -156.2 23.25 -154.75 L23.45 -153.85 Q25.3 -148.7 29.7 -145.85 31.2 -148.9 34.05 -146.8 35.7 -145.6 35.9 -143.7 33.6 -139.4 28.95 -141.9 22.6 -145.45 19.8 -152.4 19.05 -154.2 19.65 -155.95" fill="#666666" fill-rule="evenodd" stroke="none"/>
  </g>
</svg>
