<?xml version="1.0" encoding="UTF-8" standalone="no"?>
<svg xmlns:ffdec="https://www.free-decompiler.com/flash" xmlns:xlink="http://www.w3.org/1999/xlink" ffdec:objectType="shape" height="72.75px" width="68.4px" xmlns="http://www.w3.org/2000/svg">
  <g transform="matrix(1.0, 0.0, 0.0, 1.0, 1.7, 242.4)">
    <path d="M38.3 -234.15 Q39.9 -236.75 42.15 -238.8 L44.65 -241.25 Q46.85 -243.75 48.05 -240.85 48.45 -239.8 47.7 -239.0 L42.45 -233.45 Q48.0 -228.45 54.05 -223.75 58.9 -220.0 62.1 -214.85 L62.2 -214.45 Q61.35 -211.9 58.3 -212.15 L56.8 -212.25 50.55 -211.3 Q46.1 -211.0 41.85 -209.6 L40.5 -209.2 Q41.75 -203.15 43.35 -197.15 L55.0 -200.95 Q59.55 -202.55 64.25 -202.6 64.75 -202.6 64.85 -202.1 66.2 -197.0 66.7 -191.9 65.6 -188.55 63.35 -191.2 62.55 -192.05 62.5 -193.25 L62.0 -198.6 Q55.95 -197.8 50.25 -195.55 46.1 -193.95 41.9 -192.7 40.95 -192.4 40.4 -193.15 39.35 -194.55 39.45 -196.35 39.5 -197.95 39.1 -199.4 37.9 -203.4 37.05 -207.35 L35.55 -206.3 32.85 -204.45 Q35.25 -197.4 35.8 -190.1 35.05 -187.1 32.75 -188.85 31.75 -189.65 31.65 -190.9 31.35 -196.55 29.55 -201.8 24.15 -197.05 20.35 -190.8 L16.85 -186.1 Q16.3 -185.5 15.6 -185.95 13.45 -187.2 15.0 -189.55 L19.0 -195.25 Q22.85 -201.0 28.05 -205.6 L27.85 -206.0 Q23.8 -206.35 25.5 -209.9 26.15 -211.35 27.65 -210.85 29.85 -210.1 31.2 -208.2 L31.9 -208.75 35.55 -211.2 Q35.95 -212.1 37.15 -212.45 L39.25 -212.8 Q46.35 -215.05 53.9 -215.4 L54.6 -215.4 Q55.15 -215.95 55.95 -215.9 L56.6 -215.95 Q53.35 -219.65 49.05 -222.95 L41.9 -228.7 Q39.6 -230.55 38.25 -233.0 37.85 -233.6 38.3 -234.15 M5.95 -174.5 Q7.95 -174.7 8.7 -172.75 L8.9 -172.1 Q7.75 -168.35 4.25 -170.3 3.05 -171.0 2.4 -172.15 -1.4 -179.4 -1.7 -187.8 -1.85 -190.75 -0.7 -193.25 -0.45 -193.95 0.35 -193.75 2.75 -193.1 2.55 -190.15 1.75 -181.75 5.95 -174.5" fill="#666666" fill-rule="evenodd" stroke="none"/>
  </g>
</svg>
