<?xml version="1.0" encoding="UTF-8" standalone="no"?>
<svg xmlns:ffdec="https://www.free-decompiler.com/flash" xmlns:xlink="http://www.w3.org/1999/xlink" ffdec:objectType="shape" height="56.7px" width="67.45px" xmlns="http://www.w3.org/2000/svg">
  <g transform="matrix(1.0, 0.0, 0.0, 1.0, -0.6, 240.85)">
    <path d="M5.0 -198.45 Q4.2 -193.85 4.35 -189.25 6.45 -189.1 7.25 -187.1 L7.35 -186.15 Q5.15 -182.6 1.95 -185.4 0.95 -186.3 0.8 -187.7 0.35 -191.6 1.05 -195.4 1.95 -200.6 1.7 -205.8 1.5 -208.55 4.0 -207.95 4.95 -207.75 5.1 -206.75 5.75 -202.65 5.0 -198.45 M30.6 -210.15 Q27.5 -211.15 29.55 -214.0 30.0 -214.75 30.9 -214.7 34.2 -214.7 34.75 -210.9 L35.0 -209.6 40.6 -212.55 Q42.0 -213.3 43.05 -213.15 43.55 -213.65 44.4 -213.6 L60.55 -212.35 62.9 -212.4 Q61.1 -217.35 57.9 -222.15 54.45 -227.5 53.15 -233.55 53.05 -234.0 53.4 -234.35 54.85 -236.05 56.85 -237.05 L62.75 -240.6 Q63.55 -241.2 64.25 -240.4 66.05 -238.55 63.8 -236.9 L57.2 -232.7 Q58.85 -227.35 62.1 -222.5 65.9 -216.65 68.05 -210.0 L68.05 -209.6 Q66.4 -207.65 63.7 -208.3 L61.9 -208.55 60.85 -208.75 51.15 -209.5 50.35 -209.65 45.3 -209.9 43.45 -201.4 43.65 -201.4 45.55 -201.75 46.8 -201.75 48.0 -201.95 Q49.05 -201.75 50.3 -201.95 L51.4 -201.8 51.65 -201.9 52.6 -202.0 53.25 -201.85 Q54.7 -202.45 56.3 -202.3 L61.1 -201.8 62.5 -201.95 Q64.0 -201.75 64.15 -200.25 L64.2 -199.5 Q62.65 -194.35 59.1 -190.5 58.8 -190.2 58.4 -190.3 55.3 -191.4 57.5 -194.35 L59.8 -198.1 58.75 -198.35 56.5 -198.15 55.1 -198.3 52.7 -198.0 48.1 -198.1 40.4 -197.75 Q39.65 -197.9 39.25 -198.5 38.8 -199.3 39.05 -200.15 40.05 -204.3 41.4 -208.25 L40.95 -208.1 Q39.15 -207.55 37.55 -206.55 L35.8 -205.6 Q36.9 -199.8 36.05 -194.15 35.45 -190.75 32.85 -192.1 31.75 -192.6 32.0 -193.8 32.95 -198.85 32.3 -203.75 L27.65 -201.5 Q22.65 -198.3 18.15 -194.65 L17.45 -194.55 Q14.15 -195.75 16.75 -198.05 23.35 -204.0 31.35 -207.85 L30.6 -210.15" fill="#666666" fill-rule="evenodd" stroke="none"/>
  </g>
</svg>
