<?xml version="1.0" encoding="UTF-8" standalone="no"?>
<svg xmlns:ffdec="https://www.free-decompiler.com/flash" xmlns:xlink="http://www.w3.org/1999/xlink" ffdec:objectType="shape" height="44.35px" width="88.25px" xmlns="http://www.w3.org/2000/svg">
  <g transform="matrix(1.0, 0.0, 0.0, 1.0, 3.1, 232.65)">
    <path d="M17.95 -206.0 Q20.6 -208.2 23.95 -209.3 L24.6 -209.6 Q31.15 -212.85 38.1 -213.15 L39.35 -217.35 40.05 -219.6 Q37.15 -221.65 39.9 -223.95 41.5 -225.25 43.0 -223.75 44.4 -222.45 44.05 -220.3 43.5 -216.65 42.4 -213.2 L42.5 -213.15 43.15 -212.95 Q45.75 -213.45 47.65 -212.4 48.75 -212.95 50.1 -212.4 50.5 -212.4 50.9 -212.0 51.65 -211.65 52.5 -211.4 60.05 -209.8 67.25 -207.2 L67.9 -210.35 Q68.5 -217.6 70.6 -224.65 71.5 -227.75 73.15 -230.5 73.85 -231.75 75.3 -232.0 L81.35 -232.45 Q84.95 -233.35 85.15 -230.05 85.15 -229.4 84.55 -229.1 82.8 -228.45 80.95 -228.75 L76.95 -228.35 76.45 -228.35 Q74.8 -225.45 73.8 -221.85 71.35 -212.8 71.2 -203.6 69.15 -201.1 66.2 -203.25 L65.05 -203.9 Q57.85 -206.5 50.25 -207.9 L50.15 -207.9 Q47.95 -205.55 46.1 -202.9 L46.2 -202.9 47.2 -202.85 47.65 -202.75 50.15 -202.75 Q52.9 -202.55 55.5 -201.65 L58.7 -200.55 61.05 -200.35 63.8 -200.05 Q65.4 -200.0 66.8 -199.3 68.4 -198.45 67.75 -196.85 L63.05 -188.95 Q62.35 -188.0 61.35 -188.4 59.9 -189.0 60.45 -190.4 61.5 -193.2 62.9 -195.9 L58.25 -197.05 50.65 -198.5 46.4 -199.15 Q43.85 -198.9 41.7 -200.1 40.9 -200.55 41.2 -201.35 42.2 -204.55 44.3 -207.15 L45.6 -208.65 45.05 -208.8 42.3 -209.2 40.95 -209.3 40.4 -207.95 Q39.65 -203.55 38.15 -199.45 36.3 -196.75 34.75 -199.4 34.5 -199.9 34.65 -200.5 L36.95 -209.25 Q30.85 -208.75 25.25 -205.8 23.05 -204.7 20.95 -203.4 18.9 -202.15 17.6 -203.95 16.8 -205.15 17.95 -206.0 M8.6 -213.65 L8.3 -213.3 2.05 -201.9 Q3.1 -200.85 2.75 -199.25 L2.6 -198.4 Q0.45 -194.9 -2.4 -197.8 -3.4 -198.8 -3.0 -200.25 L-2.7 -201.0 5.3 -215.75 Q6.5 -218.05 8.85 -218.35 9.75 -218.5 10.0 -217.55 10.55 -215.3 8.6 -213.65" fill="#666666" fill-rule="evenodd" stroke="none"/>
  </g>
</svg>
