<?xml version="1.0" encoding="UTF-8" standalone="no"?>
<svg xmlns:ffdec="https://www.free-decompiler.com/flash" xmlns:xlink="http://www.w3.org/1999/xlink" ffdec:objectType="shape" height="39.8px" width="71.65px" xmlns="http://www.w3.org/2000/svg">
  <g transform="matrix(1.0, 0.0, 0.0, 1.0, -17.7, 228.05)">
    <path d="M18.65 -214.9 Q21.7 -216.45 25.2 -216.85 L25.85 -217.0 Q32.95 -218.75 39.8 -217.6 L41.95 -221.4 43.05 -223.45 Q40.65 -226.05 43.85 -227.75 45.7 -228.65 46.85 -226.9 47.95 -225.3 47.15 -223.3 45.85 -219.85 44.05 -216.7 L44.1 -216.65 44.7 -216.3 Q47.3 -216.25 48.95 -214.85 50.15 -215.15 51.35 -214.25 L52.1 -213.7 Q52.7 -213.2 53.5 -212.8 60.55 -209.65 67.0 -205.6 L68.3 -208.5 Q70.45 -215.4 74.0 -221.85 75.55 -224.75 77.7 -227.1 78.65 -228.15 80.2 -228.05 L86.15 -227.2 Q89.8 -227.3 89.3 -224.05 89.2 -223.45 88.55 -223.3 86.7 -223.0 84.9 -223.7 L80.95 -224.15 80.45 -224.2 Q78.3 -221.75 76.55 -218.5 72.25 -210.2 70.1 -201.25 67.55 -199.25 65.15 -202.0 64.75 -202.5 64.2 -202.8 57.7 -206.9 50.6 -209.9 L50.5 -209.9 Q47.8 -208.1 45.4 -205.9 L45.55 -205.85 46.55 -205.6 46.95 -205.4 49.3 -204.85 Q52.0 -204.05 54.35 -202.65 L57.25 -200.9 Q58.45 -200.75 59.5 -200.2 L62.1 -199.3 Q63.7 -198.95 64.9 -197.95 66.3 -196.8 65.3 -195.35 L59.0 -188.65 Q58.15 -187.9 57.25 -188.5 55.95 -189.35 56.8 -190.6 L60.4 -195.45 56.1 -197.6 Q52.55 -199.35 48.95 -200.55 46.9 -201.3 44.95 -202.15 42.4 -202.4 40.55 -204.1 39.85 -204.7 40.3 -205.4 42.0 -208.3 44.6 -210.4 L46.2 -211.65 45.65 -211.85 43.05 -212.85 41.8 -213.25 40.9 -212.05 Q39.3 -207.9 36.95 -204.25 34.55 -202.0 33.65 -204.9 33.45 -205.45 33.7 -206.0 L37.9 -214.05 Q31.8 -214.85 25.7 -213.1 L20.95 -211.7 Q18.65 -210.9 17.85 -213.0 17.35 -214.3 18.65 -214.9" fill="#666666" fill-rule="evenodd" stroke="none"/>
  </g>
</svg>
