<?xml version="1.0" encoding="UTF-8" standalone="no"?>
<svg xmlns:ffdec="https://www.free-decompiler.com/flash" xmlns:xlink="http://www.w3.org/1999/xlink" ffdec:objectType="shape" height="61.35px" width="91.45px" xmlns="http://www.w3.org/2000/svg">
  <g transform="matrix(1.0, 0.0, 0.0, 1.0, 8.75, 228.75)">
    <path d="M15.85 -223.95 Q15.95 -223.15 15.5 -222.4 L15.05 -221.85 -1.6 -224.25 -2.3 -224.25 -2.75 -223.75 Q-3.85 -218.85 -7.95 -222.15 -9.35 -223.3 -8.25 -224.8 -4.65 -229.6 1.05 -228.6 8.2 -227.35 14.85 -224.95 15.55 -224.75 15.85 -223.95 M18.1 -209.75 Q27.65 -211.4 36.7 -208.8 L38.65 -208.05 39.65 -211.2 Q35.65 -214.55 40.45 -217.55 41.4 -218.15 42.5 -217.85 46.6 -212.7 43.05 -206.05 L42.95 -205.95 Q47.55 -203.0 51.4 -199.0 L52.05 -197.95 52.1 -197.6 Q54.05 -194.25 55.35 -190.5 55.7 -189.5 56.35 -188.75 L56.45 -187.8 56.45 -186.8 Q57.2 -184.95 58.45 -183.2 L59.15 -182.25 Q67.55 -182.3 75.65 -184.95 77.0 -186.05 78.65 -185.7 81.1 -183.35 81.9 -180.05 L82.3 -178.85 82.35 -178.35 82.25 -177.35 82.7 -176.2 82.55 -175.2 82.4 -174.95 81.9 -174.5 81.95 -174.45 Q78.35 -173.6 78.15 -177.45 L78.2 -178.0 Q77.7 -178.45 77.6 -179.05 L77.15 -180.25 Q70.8 -179.95 64.2 -178.1 60.1 -177.0 56.3 -177.6 52.85 -184.8 49.7 -191.95 49.05 -193.45 48.7 -195.0 43.55 -190.7 37.7 -187.6 L42.15 -181.85 Q45.35 -177.65 47.8 -173.05 L47.9 -172.2 47.7 -171.95 47.25 -171.45 47.3 -171.4 Q43.25 -166.5 38.2 -167.6 37.0 -167.9 37.25 -169.2 37.35 -169.95 37.75 -170.7 L38.7 -171.05 Q41.15 -171.9 43.05 -173.65 L38.7 -179.45 31.4 -189.15 Q33.95 -192.45 38.75 -193.5 43.15 -194.55 46.7 -197.65 L46.15 -198.4 45.9 -198.75 Q43.45 -199.55 41.75 -201.65 L41.25 -202.3 40.95 -202.4 39.45 -199.9 36.2 -195.35 Q34.55 -194.0 33.0 -195.3 L32.75 -195.7 Q34.0 -200.2 36.8 -204.6 32.3 -206.35 27.45 -205.85 22.85 -205.4 18.55 -206.6 17.3 -206.95 17.55 -208.3 L18.1 -209.75" fill="#666666" fill-rule="evenodd" stroke="none"/>
  </g>
</svg>
