<?xml version="1.0" encoding="UTF-8" standalone="no"?>
<svg xmlns:ffdec="https://www.free-decompiler.com/flash" xmlns:xlink="http://www.w3.org/1999/xlink" ffdec:objectType="shape" height="63.45px" width="39.75px" xmlns="http://www.w3.org/2000/svg">
  <g transform="matrix(1.0, 0.0, 0.0, 1.0, 22.85, 213.85)">
    <path d="M11.6 -199.15 Q15.1 -198.0 12.7 -194.7 9.85 -190.7 5.35 -189.0 4.4 -188.65 3.85 -189.45 2.05 -192.05 3.9 -194.55 4.25 -195.05 4.85 -195.05 L7.5 -194.75 Q8.9 -195.75 9.65 -197.3 L9.75 -197.55 Q9.95 -198.75 11.15 -199.05 L11.6 -199.15 M6.3 -210.7 Q1.25 -204.6 -0.65 -197.1 -2.0 -192.85 -3.85 -188.7 L-4.75 -187.2 Q-4.8 -186.1 -5.1 -185.25 -3.35 -184.85 -3.7 -182.95 L-3.75 -182.75 Q-3.0 -179.3 -3.0 -175.7 L-3.05 -173.95 Q-3.25 -171.35 -3.85 -168.9 L-3.9 -167.75 12.2 -163.85 14.05 -163.45 Q17.75 -162.75 16.65 -159.05 16.2 -157.6 15.25 -156.45 L14.8 -155.6 Q14.05 -152.8 11.4 -153.7 10.3 -154.05 10.3 -155.2 10.3 -156.1 10.95 -156.75 11.65 -158.15 12.8 -159.4 L13.0 -159.6 Q4.45 -161.85 -4.85 -163.6 -6.65 -163.95 -7.3 -165.5 -7.6 -166.3 -7.5 -167.15 -7.05 -170.5 -7.0 -173.95 L-7.1 -178.6 -7.3 -181.85 Q-9.8 -178.75 -12.85 -176.15 L-14.25 -174.85 -15.1 -173.95 -18.55 -170.2 Q-13.05 -165.05 -6.8 -160.7 -5.0 -159.45 -5.6 -157.45 -6.45 -154.4 -9.45 -152.65 L-12.5 -150.7 Q-13.3 -150.1 -14.1 -150.7 -16.15 -152.15 -14.15 -153.7 -11.8 -155.6 -9.8 -157.8 L-21.35 -167.35 Q-23.35 -169.0 -22.65 -171.15 L-21.9 -172.4 -20.5 -173.95 -10.65 -184.15 -9.45 -185.2 Q-9.4 -186.45 -8.6 -187.75 L-8.3 -188.25 Q-4.65 -196.25 -2.0 -204.55 L-1.1 -206.35 Q0.9 -210.4 4.4 -213.45 4.8 -213.75 5.15 -213.85 8.35 -213.15 6.3 -210.7 M-12.75 -200.9 Q-9.6 -200.25 -11.45 -197.55 -12.15 -196.5 -13.0 -195.6 -16.0 -192.35 -17.95 -188.35 -16.3 -185.6 -18.9 -184.1 L-20.5 -184.2 Q-22.1 -185.35 -21.9 -187.5 -21.5 -191.5 -18.9 -194.7 L-17.95 -195.85 Q-15.8 -198.65 -13.15 -200.75 L-12.75 -200.9" fill="#666666" fill-rule="evenodd" stroke="none"/>
  </g>
</svg>
