<?xml version="1.0" encoding="UTF-8" standalone="no"?>
<svg xmlns:ffdec="https://www.free-decompiler.com/flash" xmlns:xlink="http://www.w3.org/1999/xlink" ffdec:objectType="shape" height="74.7px" width="45.1px" xmlns="http://www.w3.org/2000/svg">
  <g transform="matrix(1.0, 0.0, 0.0, 1.0, -17.2, 72.0)">
    <path d="M46.1 -68.2 Q45.2 -65.25 45.2 -62.1 45.25 -58.05 45.45 -53.95 L45.6 -51.95 Q49.45 -51.95 53.35 -53.45 55.3 -54.2 55.9 -52.3 56.65 -50.1 54.3 -49.45 L50.9 -48.35 Q48.55 -47.55 46.05 -47.65 46.7 -42.85 47.95 -38.1 L48.45 -35.25 Q48.85 -34.35 48.6 -33.05 L48.6 -32.85 Q50.45 -26.55 51.1 -19.85 51.3 -18.05 52.3 -16.55 L57.65 -8.25 61.25 -3.05 Q62.45 -1.5 62.3 0.35 62.25 0.95 61.85 1.35 61.45 1.7 61.0 1.75 55.7 2.4 50.55 2.0 49.95 1.95 49.75 1.4 48.75 -0.95 51.4 -1.35 L56.5 -2.25 Q51.7 -9.65 47.4 -17.4 47.0 -18.2 46.9 -19.1 46.4 -24.3 45.45 -29.4 L41.1 -23.8 Q39.35 -21.55 39.15 -18.95 L39.15 -17.95 Q39.8 -10.8 41.2 -3.85 L41.65 -0.95 Q41.85 1.75 39.2 2.35 36.35 3.0 33.6 2.45 L30.45 1.85 Q28.5 1.5 29.0 -0.35 29.4 -1.7 30.8 -1.7 L37.5 -1.65 Q36.3 -7.5 35.5 -13.5 35.3 -15.1 35.4 -16.7 33.85 -20.25 35.85 -23.35 39.55 -29.05 44.1 -34.0 L44.4 -34.3 44.35 -34.65 Q44.0 -38.7 43.0 -42.6 42.25 -45.5 41.9 -48.5 40.35 -49.35 39.6 -51.2 39.05 -52.7 40.2 -53.7 40.75 -54.2 41.4 -54.3 L41.3 -55.8 Q41.05 -59.75 41.2 -63.75 L41.65 -68.3 Q41.9 -69.8 42.6 -70.95 43.2 -71.95 44.25 -72.0 47.0 -71.1 46.1 -68.2 M19.2 -67.05 Q22.65 -66.75 21.95 -63.05 L21.95 -62.9 Q27.4 -58.9 32.9 -55.1 35.0 -53.65 33.05 -52.05 L30.45 -51.95 23.25 -56.7 Q20.5 -58.5 18.4 -60.95 16.65 -63.05 17.5 -65.7 17.95 -67.0 19.2 -67.05" fill="#666666" fill-rule="evenodd" stroke="none"/>
  </g>
</svg>
