<?xml version="1.0" encoding="UTF-8" standalone="no"?>
<svg xmlns:ffdec="https://www.free-decompiler.com/flash" xmlns:xlink="http://www.w3.org/1999/xlink" ffdec:objectType="shape" height="74.7px" width="48.05px" xmlns="http://www.w3.org/2000/svg">
  <g transform="matrix(1.0, 0.0, 0.0, 1.0, -13.6, 71.8)">
    <path d="M46.65 -67.35 Q45.3 -63.3 44.65 -59.1 L43.6 -54.15 Q42.6 -46.55 44.25 -39.15 L45.0 -35.4 Q46.25 -34.15 46.7 -32.15 L47.4 -29.75 Q47.8 -28.7 47.8 -27.5 L49.3 -23.55 49.4 -22.75 49.85 -21.8 49.9 -21.0 Q50.4 -19.05 51.35 -17.3 53.5 -13.4 55.9 -9.6 L57.75 -6.75 Q59.95 -3.5 61.55 -0.1 61.8 0.4 61.55 0.85 60.4 2.95 57.7 2.9 L51.8 2.6 Q50.55 2.5 50.3 1.3 50.0 -0.5 51.8 -0.75 L56.45 -1.2 Q53.1 -6.1 50.1 -11.0 L49.65 -11.65 Q48.95 -12.8 48.55 -14.05 46.15 -17.2 45.5 -21.15 45.0 -24.05 43.9 -26.75 43.55 -27.6 43.35 -28.5 40.7 -25.35 38.65 -21.7 37.6 -19.2 38.65 -16.75 L38.85 -15.4 Q41.2 -8.9 42.35 -2.15 42.85 0.65 40.3 1.25 L35.3 1.95 Q32.4 2.1 29.95 1.05 29.25 0.75 29.2 0.05 28.95 -2.0 31.05 -2.1 L38.2 -2.25 35.85 -10.9 Q35.5 -12.0 35.4 -13.15 32.35 -20.1 36.65 -26.3 L39.35 -30.3 Q40.4 -31.9 41.85 -32.7 41.45 -33.15 41.2 -33.85 40.35 -36.25 40.15 -38.8 38.4 -46.2 39.45 -53.85 40.55 -61.95 42.65 -69.9 43.1 -71.6 44.75 -71.8 47.7 -70.65 46.65 -67.35 M56.45 -50.2 L56.2 -48.5 Q56.0 -45.8 55.2 -43.35 54.5 -39.8 51.05 -41.2 50.5 -41.45 50.2 -42.0 48.45 -45.05 50.5 -47.4 L51.0 -47.7 52.05 -47.9 Q52.05 -50.65 52.9 -53.15 53.15 -53.85 53.85 -53.95 L54.25 -54.05 Q57.25 -53.4 56.45 -50.2 M31.15 -56.85 Q31.75 -56.4 31.6 -55.65 31.1 -52.6 28.45 -54.3 21.1 -58.95 14.7 -64.9 13.3 -66.25 13.65 -68.25 14.0 -70.25 16.0 -70.4 19.9 -70.2 19.2 -66.6 L19.1 -66.35 Q24.9 -61.4 31.15 -56.85" fill="#666666" fill-rule="evenodd" stroke="none"/>
  </g>
</svg>
