<?xml version="1.0" encoding="UTF-8" standalone="no"?>
<svg xmlns:ffdec="https://www.free-decompiler.com/flash" xmlns:xlink="http://www.w3.org/1999/xlink" ffdec:objectType="shape" height="79.25px" width="56.55px" xmlns="http://www.w3.org/2000/svg">
  <g transform="matrix(1.0, 0.0, 0.0, 1.0, -9.75, 77.0)">
    <path d="M47.1 -68.5 L46.4 -65.7 45.95 -64.9 Q44.75 -60.8 44.55 -56.4 44.5 -55.75 44.1 -55.25 43.85 -47.85 44.3 -40.6 L44.65 -36.5 Q45.85 -35.55 45.7 -33.6 L45.7 -33.4 47.75 -26.1 47.8 -25.3 Q48.75 -22.1 50.35 -19.3 L51.1 -18.15 59.9 -7.65 60.5 -6.25 Q60.9 -3.6 58.25 -2.15 56.15 -1.0 54.65 0.9 53.05 3.0 51.3 1.85 48.85 1.85 49.2 -0.7 49.35 -1.8 50.45 -2.05 L50.85 -2.15 51.6 -2.15 52.75 -3.4 55.8 -5.8 49.7 -13.2 46.25 -17.85 Q45.2 -19.4 44.85 -21.25 43.4 -25.7 42.35 -30.4 L42.25 -31.15 41.95 -31.75 Q38.65 -27.05 36.35 -21.85 L39.75 -8.6 40.7 -4.65 Q42.85 -1.75 40.45 0.45 40.05 0.85 39.45 0.9 L38.7 0.95 30.65 0.75 Q29.4 0.65 29.2 -0.55 28.9 -2.35 30.7 -2.55 L36.85 -3.05 33.55 -16.3 32.55 -21.1 Q32.15 -23.6 33.35 -25.9 35.0 -29.05 37.05 -32.05 38.65 -34.45 40.75 -36.4 L40.4 -37.7 Q39.55 -45.15 39.9 -52.75 40.0 -54.85 40.4 -56.85 L40.7 -57.45 Q41.0 -65.25 44.55 -72.0 45.1 -73.0 46.1 -73.05 49.1 -72.55 47.95 -69.85 L47.1 -68.5 M55.2 -58.7 L55.6 -58.8 Q58.95 -58.15 60.6 -54.8 L60.65 -54.65 Q66.1 -49.7 66.3 -42.55 66.3 -41.75 65.6 -41.3 62.8 -39.5 61.55 -42.45 60.95 -43.95 61.9 -45.15 60.9 -48.6 58.45 -51.45 L55.25 -54.45 Q54.5 -55.05 54.05 -55.9 53.0 -57.9 55.2 -58.7 M11.8 -77.0 Q14.7 -76.6 14.75 -73.45 L14.9 -72.65 Q21.2 -68.6 27.75 -65.2 28.55 -64.8 28.45 -63.9 28.0 -60.8 25.1 -62.25 L23.85 -63.05 Q17.35 -65.75 11.8 -70.15 L10.7 -71.3 Q8.7 -74.15 10.95 -76.55 11.35 -76.95 11.8 -77.0" fill="#666666" fill-rule="evenodd" stroke="none"/>
  </g>
</svg>
