<?xml version="1.0" encoding="UTF-8" standalone="no"?>
<svg xmlns:ffdec="https://www.free-decompiler.com/flash" xmlns:xlink="http://www.w3.org/1999/xlink" ffdec:objectType="shape" height="86.6px" width="57.55px" xmlns="http://www.w3.org/2000/svg">
  <g transform="matrix(1.0, 0.0, 0.0, 1.0, -14.75, 85.45)">
    <path d="M47.0 -65.25 Q45.4 -58.0 44.35 -50.55 L44.05 -47.45 43.3 -42.15 Q44.45 -41.0 43.85 -38.8 L43.6 -36.9 Q43.6 -31.1 44.4 -25.45 44.45 -25.15 44.65 -24.8 L44.9 -24.2 Q51.85 -19.25 57.15 -12.6 57.8 -11.85 57.3 -11.0 L53.1 -4.1 Q52.15 -2.75 50.65 -2.4 48.35 -1.85 48.3 -4.05 48.25 -5.3 48.95 -6.35 50.7 -8.85 52.8 -11.15 49.6 -15.35 45.25 -18.7 L41.6 -21.6 41.05 -22.4 Q39.2 -26.1 39.6 -30.6 L39.65 -32.4 38.85 -30.15 Q37.5 -24.8 36.95 -19.25 36.7 -16.7 37.9 -14.3 L38.85 -11.75 Q41.45 -6.7 41.05 -1.3 41.0 -0.5 40.2 -0.4 37.8 -0.05 35.55 0.65 L29.9 0.8 Q27.85 0.3 28.6 -1.65 29.0 -2.85 30.25 -2.95 L37.1 -4.1 34.5 -11.35 Q33.35 -14.3 33.0 -17.4 32.75 -19.65 33.05 -21.9 33.7 -27.2 35.35 -32.2 L36.15 -35.4 36.65 -36.15 Q37.4 -39.6 39.65 -42.1 L39.65 -42.15 Q39.65 -49.65 40.95 -56.85 L41.8 -60.95 43.6 -67.7 Q43.7 -70.65 46.0 -72.25 L46.6 -72.55 Q49.8 -72.0 48.55 -69.1 L47.0 -65.25 M55.4 -57.4 Q55.35 -59.2 57.15 -59.4 60.05 -58.3 62.5 -56.1 63.9 -54.85 65.65 -53.85 L67.2 -52.7 67.65 -52.3 Q70.75 -53.45 72.0 -51.0 72.6 -49.8 71.9 -48.6 70.5 -46.3 67.75 -47.35 65.85 -48.1 64.3 -49.55 L60.7 -52.45 57.0 -54.8 Q55.4 -55.7 55.4 -57.4 M19.2 -80.7 Q23.45 -75.8 28.4 -71.6 28.7 -71.4 28.65 -71.0 28.45 -68.3 25.75 -69.2 24.7 -69.55 23.85 -70.3 L17.7 -75.8 Q15.95 -77.5 15.15 -79.75 13.7 -83.9 17.35 -85.45 20.95 -84.85 19.75 -81.5 L19.2 -80.7" fill="#666666" fill-rule="evenodd" stroke="none"/>
  </g>
</svg>
