<?xml version="1.0" encoding="UTF-8" standalone="no"?>
<svg xmlns:ffdec="https://www.free-decompiler.com/flash" xmlns:xlink="http://www.w3.org/1999/xlink" ffdec:objectType="shape" height="91.9px" width="52.3px" xmlns="http://www.w3.org/2000/svg">
  <g transform="matrix(1.0, 0.0, 0.0, 1.0, -23.45, 91.35)">
    <path d="M49.0 -73.45 Q52.0 -73.0 50.65 -70.4 L49.8 -69.45 Q42.75 -64.75 40.25 -56.85 38.25 -50.55 38.45 -43.9 39.3 -42.9 39.25 -41.2 39.2 -40.55 39.3 -39.85 39.3 -39.55 39.45 -39.25 40.8 -36.15 41.7 -32.75 L41.75 -31.9 Q42.6 -27.7 45.7 -24.7 49.75 -20.8 52.9 -16.15 53.6 -15.1 53.05 -14.0 51.35 -10.7 49.2 -7.7 48.4 -6.6 47.2 -7.3 45.3 -8.45 46.35 -10.4 L48.85 -15.05 40.95 -23.75 Q38.65 -26.25 38.3 -29.7 37.2 -32.95 36.35 -36.25 L36.15 -37.0 35.9 -37.5 34.1 -32.4 Q33.6 -26.85 35.7 -21.5 37.2 -17.7 37.75 -13.6 L38.1 -11.2 Q38.75 -6.55 35.6 -3.2 L32.5 0.1 31.85 0.45 Q28.5 1.05 28.5 -1.9 28.5 -2.6 29.1 -2.95 32.55 -5.1 33.85 -8.9 L34.0 -10.4 Q33.25 -16.3 31.25 -21.9 28.95 -28.3 30.85 -34.7 L32.65 -41.15 33.45 -44.3 Q33.7 -45.4 34.45 -46.2 L34.5 -46.2 Q34.5 -51.4 35.7 -56.4 36.1 -58.05 36.9 -59.5 39.15 -66.5 45.0 -71.25 46.65 -72.6 48.6 -73.35 L49.0 -73.45 M55.9 -56.8 Q56.0 -58.5 57.7 -58.65 63.85 -56.85 70.2 -55.6 L70.75 -55.6 Q73.4 -58.8 75.35 -55.7 76.1 -54.5 75.5 -53.2 74.85 -51.7 73.25 -51.7 67.85 -51.55 62.6 -52.85 L58.4 -54.2 Q55.75 -54.35 55.9 -56.8 M28.4 -87.05 L27.75 -86.4 Q27.6 -85.9 27.7 -85.4 L27.75 -84.25 30.7 -77.4 31.6 -75.05 Q32.65 -72.15 29.6 -72.15 28.5 -72.15 28.0 -73.15 26.35 -76.6 24.85 -80.05 23.55 -82.95 23.45 -86.05 23.4 -88.85 25.2 -90.65 25.8 -91.3 26.55 -91.35 30.25 -90.3 28.4 -87.05" fill="#666666" fill-rule="evenodd" stroke="none"/>
  </g>
</svg>
