<?xml version="1.0" encoding="UTF-8" standalone="no"?>
<svg xmlns:ffdec="https://www.free-decompiler.com/flash" xmlns:xlink="http://www.w3.org/1999/xlink" ffdec:objectType="shape" height="97.55px" width="48.35px" xmlns="http://www.w3.org/2000/svg">
  <g transform="matrix(1.0, 0.0, 0.0, 1.0, -28.15, 100.3)">
    <path d="M32.1 -100.3 Q35.6 -99.85 34.55 -96.4 34.1 -94.95 32.5 -94.7 32.0 -87.8 32.4 -80.85 32.55 -77.95 29.7 -78.6 29.05 -78.75 28.9 -79.45 L28.35 -83.15 Q27.7 -90.75 29.35 -97.95 29.55 -98.9 30.3 -99.55 31.1 -100.25 32.1 -100.3 M44.3 -73.25 Q45.95 -74.75 47.95 -75.3 51.05 -74.25 49.05 -71.75 L47.6 -70.3 Q43.2 -67.05 40.15 -62.65 38.3 -57.1 37.8 -51.2 L37.65 -47.95 Q38.3 -46.95 38.25 -45.45 38.2 -44.45 38.45 -43.45 40.25 -36.35 42.55 -29.4 L45.55 -26.45 Q49.35 -23.2 52.55 -19.35 52.85 -19.05 52.65 -18.6 51.1 -14.55 48.35 -11.3 48.0 -10.9 47.45 -11.0 44.7 -11.5 45.6 -13.95 L46.2 -15.2 48.0 -18.2 40.55 -25.8 Q37.55 -28.75 36.85 -33.0 L36.15 -36.45 34.85 -29.15 Q34.55 -27.65 35.15 -26.25 L35.95 -23.7 39.7 -12.95 Q40.0 -11.95 39.5 -11.1 L37.05 -7.4 Q35.4 -5.15 33.5 -3.25 L32.9 -2.95 Q29.4 -2.0 29.3 -5.15 29.25 -5.85 29.9 -6.25 L31.45 -6.9 Q31.6 -7.65 32.2 -8.1 L32.75 -8.5 Q33.95 -10.5 35.5 -12.3 L35.6 -12.45 35.55 -13.1 Q35.35 -13.45 35.4 -13.85 33.65 -17.45 32.35 -21.3 31.3 -24.3 30.8 -27.35 30.35 -29.85 31.1 -32.05 32.15 -37.7 32.85 -43.35 33.1 -45.0 33.85 -46.4 L33.75 -47.1 Q33.75 -54.6 35.65 -61.7 37.25 -67.7 42.4 -71.6 L44.3 -73.25 M59.45 -61.6 L65.8 -63.85 Q68.95 -64.9 71.8 -66.5 71.7 -68.65 73.65 -69.35 L74.05 -69.45 Q77.8 -68.35 75.85 -64.65 75.25 -63.4 73.9 -62.8 67.1 -59.6 59.75 -58.05 59.0 -57.85 58.5 -58.5 56.9 -60.65 59.45 -61.6" fill="#666666" fill-rule="evenodd" stroke="none"/>
  </g>
</svg>
