<?xml version="1.0" encoding="UTF-8" standalone="no"?>
<svg xmlns:ffdec="https://www.free-decompiler.com/flash" xmlns:xlink="http://www.w3.org/1999/xlink" ffdec:objectType="shape" height="101.6px" width="48.0px" xmlns="http://www.w3.org/2000/svg">
  <g transform="matrix(1.0, 0.0, 0.0, 1.0, -29.2, 103.2)">
    <path d="M39.75 -103.2 Q44.0 -102.8 42.6 -98.9 42.3 -98.1 41.45 -97.95 40.4 -97.75 39.35 -97.95 35.6 -92.85 35.65 -86.3 35.7 -83.9 34.75 -81.8 34.3 -80.8 33.2 -80.9 30.9 -81.1 31.1 -83.25 L31.6 -88.8 Q32.15 -95.65 36.5 -100.85 37.95 -102.5 39.75 -103.2 M44.15 -71.75 Q47.25 -71.2 45.8 -68.5 44.95 -66.95 43.55 -65.85 40.25 -63.35 38.3 -59.7 L34.8 -53.55 Q33.75 -50.85 33.5 -48.1 34.55 -47.05 35.15 -45.4 35.7 -43.9 36.6 -42.5 39.1 -38.5 40.9 -34.25 42.1 -32.0 43.7 -30.2 L44.45 -29.45 51.9 -22.8 Q52.35 -22.4 52.25 -21.8 51.7 -18.45 49.7 -15.55 48.85 -14.25 47.4 -13.95 45.65 -13.55 45.3 -15.3 44.95 -16.95 46.1 -18.35 47.2 -19.6 47.9 -21.2 45.45 -23.15 43.3 -25.35 39.3 -27.55 37.45 -31.7 L33.95 -38.65 33.7 -39.05 Q34.2 -35.2 35.2 -31.4 37.3 -23.4 40.2 -15.65 40.95 -13.65 41.15 -11.6 41.4 -8.85 39.55 -6.75 36.95 -3.8 33.5 -2.0 31.25 -0.85 30.3 -3.0 29.75 -4.2 30.85 -5.05 31.55 -5.55 32.35 -5.75 35.2 -8.05 37.2 -11.1 35.0 -17.15 33.1 -23.35 30.9 -30.65 29.7 -38.2 28.8 -43.65 29.5 -49.05 30.0 -53.2 31.85 -56.85 34.7 -62.45 38.8 -67.15 L42.0 -70.6 43.45 -71.55 44.15 -71.75 M57.55 -58.85 Q56.3 -61.45 59.35 -62.25 65.45 -63.9 71.35 -66.15 71.2 -67.15 71.45 -68.15 71.8 -69.6 73.25 -69.65 77.5 -70.15 77.15 -66.35 77.05 -65.3 76.2 -64.65 71.7 -61.4 66.25 -59.9 62.4 -58.8 58.6 -58.3 57.9 -58.2 57.55 -58.85" fill="#666666" fill-rule="evenodd" stroke="none"/>
  </g>
</svg>
