<?xml version="1.0" encoding="UTF-8" standalone="no"?>
<svg xmlns:ffdec="https://www.free-decompiler.com/flash" xmlns:xlink="http://www.w3.org/1999/xlink" ffdec:objectType="shape" height="31.0px" width="229.4px" xmlns="http://www.w3.org/2000/svg">
  <g transform="matrix(1.0, 0.0, 0.0, 1.0, 86.05, 16.4)">
    <path d="M3.45 -6.45 L3.45 -5.2 3.45 -5.1 22.5 -5.1 22.5 -5.2 22.5 -6.45 26.2 -6.45 26.2 -2.6 26.2 -6.45 26.9 -6.45 26.9 -6.1 42.1 -6.1 42.1 -6.45 62.35 -6.45 62.35 -4.45 62.35 -4.2 62.35 -2.7 62.35 -2.5 72.4 -2.5 72.4 -2.7 72.4 -4.2 72.4 -4.45 72.4 -6.45 80.15 -6.45 80.15 -5.0 80.15 -4.9 80.15 -4.2 80.15 -4.1 86.2 -4.1 86.2 -4.2 86.2 -4.9 86.2 -5.0 86.55 -5.0 86.55 -6.3 92.05 -6.3 93.05 -6.45 143.35 -6.45 143.35 3.05 94.7 3.05 94.7 1.9 61.85 1.9 94.7 1.9 94.7 3.05 49.85 3.05 49.85 0.55 49.85 -0.15 49.85 -2.6 49.85 -3.3 47.7 -3.3 39.55 -3.3 39.55 -2.6 39.55 -0.15 39.55 0.55 39.55 3.05 5.45 3.05 5.45 1.45 5.45 3.05 -9.5 3.05 -10.15 2.8 -15.75 2.8 -15.75 3.05 -16.5 3.05 -17.2 3.05 -17.2 2.9 -24.6 2.9 -24.6 3.05 -86.05 3.05 -86.05 -6.45 3.45 -6.45 M27.65 -0.15 L-16.5 -0.15 -16.5 3.05 -16.5 -0.15 27.65 -0.15 35.7 -0.15 35.7 -4.7 35.7 -0.15 27.65 -0.15 M35.7 -0.15 L39.55 -0.15 35.7 -0.15 M47.0 -4.2 L47.7 -4.2 47.7 -3.3 47.7 -4.2 47.0 -4.2 M30.1 -5.1 L35.7 -5.1 30.1 -5.1 M57.65 -0.15 L49.85 -0.15 57.65 -0.15 85.15 -0.15 57.65 -0.15 M47.7 -4.2 L57.65 -4.2 47.7 -4.2 M57.65 -4.2 L62.35 -4.2 57.65 -4.2 M80.15 -4.2 L72.4 -4.2 80.15 -4.2 M129.6 -4.2 L86.2 -4.2 129.6 -4.2 M109.85 1.9 L94.7 1.9 94.7 -1.25 94.7 1.9 109.85 1.9 M35.45 1.2 L27.65 1.2 35.45 1.2 M27.65 1.2 L6.1 1.2 27.65 1.2 M-60.95 -1.25 L-24.6 -1.25 -60.95 -1.25 M-27.75 -2.4 L-17.9 -2.4 -27.75 -2.4 M-17.9 -2.4 L25.55 -2.4 -17.9 -2.4" fill="url(#gradient0)" fill-rule="evenodd" stroke="none"/>
    <path d="M3.45 -5.2 L3.45 -6.45 3.45 -6.6 22.5 -6.6 22.5 -6.45 22.5 -5.2 3.45 -5.2" fill="url(#gradient1)" fill-rule="evenodd" stroke="none"/>
    <path d="M42.1 -6.45 L42.1 -6.1 26.9 -6.1 26.9 -6.45 26.9 -14.3 42.1 -14.3 42.1 -6.45" fill="url(#gradient2)" fill-rule="evenodd" stroke="none"/>
    <path d="M39.55 0.55 L39.55 -0.15 39.55 -2.6 47.7 -2.6 49.85 -2.6 49.85 -0.15 49.85 0.55 39.55 0.55 49.85 0.55 49.85 3.05 49.85 3.6 49.85 3.7 39.55 3.7 39.55 3.6 39.55 3.05 39.55 0.55 M47.7 -1.7 L47.7 -2.6 47.7 -1.7" fill="url(#gradient3)" fill-rule="evenodd" stroke="none"/>
    <path d="M62.35 -6.45 L62.35 -6.7 72.4 -6.7 72.4 -6.45 72.4 -4.45 62.35 -4.45 72.4 -4.45 72.4 -4.2 72.4 -2.7 62.35 -2.7 62.35 -4.2 62.35 -4.45 62.35 -6.45" fill="url(#gradient4)" fill-rule="evenodd" stroke="none"/>
    <path d="M80.15 -5.0 L80.55 -5.0 86.2 -5.0 86.2 -4.9 80.15 -4.9 80.15 -5.0" fill="url(#gradient5)" fill-rule="evenodd" stroke="none"/>
    <path d="M80.55 -5.0 L80.55 -7.25 86.35 -7.25 86.55 -7.25 86.55 -6.3 86.55 -5.0 86.2 -5.0 80.55 -5.0" fill="url(#gradient6)" fill-rule="evenodd" stroke="none"/>
    <path d="M86.35 -7.25 L86.35 -7.35 106.8 -10.95 116.95 -10.95 117.2 -10.75 93.05 -6.45 92.05 -6.3 86.55 -6.3 86.55 -7.25 86.35 -7.25" fill="url(#gradient7)" fill-rule="evenodd" stroke="none"/>
    <path d="M49.85 3.6 L73.5 3.6 73.5 4.95 49.85 4.95 49.85 4.25 49.85 3.7 49.85 3.6 M39.55 4.95 L5.95 4.95 5.95 3.6 39.55 3.6 39.55 3.7 39.55 4.25 39.55 4.95" fill="url(#gradient8)" fill-rule="evenodd" stroke="none"/>
    <path d="M49.85 4.25 L49.85 4.95 49.85 5.6 39.55 5.6 39.55 4.95 39.55 4.25 49.85 4.25" fill="url(#gradient9)" fill-rule="evenodd" stroke="none"/>
    <path d="M-9.5 3.05 L15.05 11.5 12.45 14.6 -15.75 4.85 -15.75 3.05 -15.75 2.8 -10.15 2.8 -9.5 3.05" fill="url(#gradient10)" fill-rule="evenodd" stroke="none"/>
    <path d="M-24.6 3.05 L-24.6 2.9 -17.2 2.9 -17.2 3.05 -17.2 8.15 -24.6 8.15 -24.6 3.05" fill="url(#gradient11)" fill-rule="evenodd" stroke="none"/>
    <path d="M80.15 -5.0 L80.55 -5.0 86.2 -5.0 M94.7 3.05 L94.7 4.6 M57.65 -0.15 L85.15 -0.15 M62.35 -4.45 L72.4 -4.45 M72.4 -4.2 L80.15 -4.2 M62.35 -4.2 L57.65 -4.2 M86.2 -4.2 L129.6 -4.2 M94.7 -1.25 L94.7 1.9 109.85 1.9 M94.7 3.05 L94.7 1.9 61.85 1.9" fill="none" stroke="#003300" stroke-linecap="round" stroke-linejoin="round" stroke-width="4.0"/>
    <path d="M-17.9 -2.4 L-27.75 -2.4 M-24.6 -1.25 L-60.95 -1.25" fill="none" stroke="#00cc00" stroke-linecap="round" stroke-linejoin="round" stroke-width="4.0"/>
    <path d="M-16.5 3.05 L-16.5 -0.15 27.65 -0.15 M26.2 -6.45 L26.2 -14.4 M26.2 -6.45 L26.2 -2.6 M5.45 3.05 L5.45 4.4 M-16.5 3.05 L-16.5 8.0 M5.45 3.05 L5.45 1.45 M6.1 1.2 L27.65 1.2 M25.55 -2.4 L-17.9 -2.4" fill="none" stroke="#009900" stroke-linecap="round" stroke-linejoin="round" stroke-width="4.0"/>
    <path d="M27.65 -0.15 L35.7 -0.15 35.7 -4.7 M47.7 -3.3 L47.7 -4.2 47.0 -4.2 M39.55 -0.15 L35.7 -0.15 M39.55 0.55 L49.85 0.55 M47.7 -2.6 L47.7 -1.7 M35.7 -5.1 L30.1 -5.1 M49.85 -0.15 L57.65 -0.15 M57.65 -4.2 L47.7 -4.2 M27.65 1.2 L35.45 1.2" fill="none" stroke="#006600" stroke-linecap="round" stroke-linejoin="round" stroke-width="4.0"/>
  </g>
  <defs>
    <radialGradient cx="0" cy="0" gradientTransform="matrix(-0.3419, 0.0, 0.0, 0.219, -105.15, -6.45)" gradientUnits="userSpaceOnUse" id="gradient0" r="819.2" spreadMethod="pad">
      <stop offset="0.0" stop-color="#00cc00"/>
      <stop offset="0.6196078431372549" stop-color="#006600"/>
      <stop offset="0.8862745098039215" stop-color="#000000"/>
    </radialGradient>
    <radialGradient cx="0" cy="0" gradientTransform="matrix(-0.3419, 0.0, 0.0, 0.219, -105.15, -6.6)" gradientUnits="userSpaceOnUse" id="gradient1" r="819.2" spreadMethod="pad">
      <stop offset="0.0" stop-color="#00cc00"/>
      <stop offset="0.6196078431372549" stop-color="#006600"/>
      <stop offset="0.8862745098039215" stop-color="#000000"/>
    </radialGradient>
    <linearGradient gradientTransform="matrix(-0.0068, 0.0027, 0.0062, 0.0062, 34.35, -10.15)" gradientUnits="userSpaceOnUse" id="gradient2" spreadMethod="pad" x1="-819.2" x2="819.2">
      <stop offset="0.4745098039215686" stop-color="#000000"/>
      <stop offset="1.0" stop-color="#006600"/>
    </linearGradient>
    <radialGradient cx="0" cy="0" gradientTransform="matrix(-0.3419, 0.0, 0.0, 0.219, -105.15, -5.8)" gradientUnits="userSpaceOnUse" id="gradient3" r="819.2" spreadMethod="pad">
      <stop offset="0.0" stop-color="#00cc00"/>
      <stop offset="0.6196078431372549" stop-color="#006600"/>
      <stop offset="0.8862745098039215" stop-color="#000000"/>
    </radialGradient>
    <radialGradient cx="0" cy="0" gradientTransform="matrix(-0.3419, 0.0, 0.0, 0.219, -105.15, -6.75)" gradientUnits="userSpaceOnUse" id="gradient4" r="819.2" spreadMethod="pad">
      <stop offset="0.0" stop-color="#00cc00"/>
      <stop offset="0.6196078431372549" stop-color="#006600"/>
      <stop offset="0.8862745098039215" stop-color="#000000"/>
    </radialGradient>
    <radialGradient cx="0" cy="0" gradientTransform="matrix(-0.3419, 0.0, 0.0, 0.219, -105.15, -7.3)" gradientUnits="userSpaceOnUse" id="gradient5" r="819.2" spreadMethod="pad">
      <stop offset="0.0" stop-color="#00cc00"/>
      <stop offset="0.6196078431372549" stop-color="#006600"/>
      <stop offset="0.8862745098039215" stop-color="#000000"/>
    </radialGradient>
    <radialGradient cx="0" cy="0" gradientTransform="matrix(-0.3419, 0.0, 0.0, 0.219, -104.8, -7.3)" gradientUnits="userSpaceOnUse" id="gradient6" r="819.2" spreadMethod="pad">
      <stop offset="0.0" stop-color="#00cc00"/>
      <stop offset="0.6196078431372549" stop-color="#006600"/>
      <stop offset="0.8862745098039215" stop-color="#000000"/>
    </radialGradient>
    <radialGradient cx="0" cy="0" gradientTransform="matrix(-0.0359, 0.0064, -0.0194, -0.0119, 86.95, -6.15)" gradientUnits="userSpaceOnUse" id="gradient7" r="819.2" spreadMethod="pad">
      <stop offset="0.32941176470588235" stop-color="#006600"/>
      <stop offset="1.0" stop-color="#000000"/>
    </radialGradient>
    <linearGradient gradientTransform="matrix(-0.0308, 4.0E-4, 0.0, 0.0013, 34.2, 4.3)" gradientUnits="userSpaceOnUse" id="gradient8" spreadMethod="pad" x1="-819.2" x2="819.2">
      <stop offset="0.4745098039215686" stop-color="#000000"/>
      <stop offset="1.0" stop-color="#006600"/>
    </linearGradient>
    <linearGradient gradientTransform="matrix(-0.0308, 4.0E-4, 0.0, 0.0013, 34.2, 5.0)" gradientUnits="userSpaceOnUse" id="gradient9" spreadMethod="pad" x1="-819.2" x2="819.2">
      <stop offset="0.4745098039215686" stop-color="#000000"/>
      <stop offset="1.0" stop-color="#006600"/>
    </linearGradient>
    <radialGradient cx="0" cy="0" gradientTransform="matrix(-0.0359, -0.0124, -0.0194, 0.023, -15.25, 2.6)" gradientUnits="userSpaceOnUse" id="gradient10" r="819.2" spreadMethod="pad">
      <stop offset="0.32941176470588235" stop-color="#006600"/>
      <stop offset="1.0" stop-color="#000000"/>
    </radialGradient>
    <radialGradient cx="0" cy="0" gradientTransform="matrix(-0.0162, 0.0, 0.0, 0.0103, -15.55, 1.95)" gradientUnits="userSpaceOnUse" id="gradient11" r="819.2" spreadMethod="pad">
      <stop offset="0.32941176470588235" stop-color="#006600"/>
      <stop offset="1.0" stop-color="#000000"/>
    </radialGradient>
  </defs>
</svg>
