<?xml version="1.0" encoding="UTF-8" standalone="no"?>
<svg xmlns:ffdec="https://www.free-decompiler.com/flash" xmlns:xlink="http://www.w3.org/1999/xlink" ffdec:objectType="shape" height="59.4px" width="80.95px" xmlns="http://www.w3.org/2000/svg">
  <g transform="matrix(1.0, 0.0, 0.0, 1.0, 24.85, 124.75)">
    <path d="M9.85 -109.15 Q17.75 -107.6 25.5 -105.1 L29.4 -103.55 Q33.65 -101.55 37.15 -98.45 39.55 -96.25 36.65 -94.95 35.55 -94.45 34.6 -95.2 28.25 -100.2 20.45 -102.5 L15.95 -103.55 Q12.9 -104.1 10.2 -105.25 L9.4 -105.0 Q2.7 -103.95 -3.6 -101.4 2.7 -98.3 8.65 -94.8 L8.85 -94.4 Q8.95 -91.2 7.55 -88.35 6.35 -85.85 4.3 -87.75 3.6 -88.4 3.85 -89.35 L4.65 -92.15 Q1.95 -94.45 -1.85 -95.75 -2.8 -96.05 -3.5 -96.8 -7.9 -98.35 -10.3 -102.05 -10.55 -102.45 -10.25 -102.85 -9.1 -104.5 -6.9 -105.0 -3.4 -105.8 0.05 -107.0 L5.05 -108.4 Q3.85 -109.85 2.95 -111.4 0.0 -116.35 -3.7 -120.7 -11.35 -118.1 -18.0 -113.55 -20.5 -111.85 -21.9 -114.35 L-22.1 -115.25 Q-23.8 -118.35 -24.8 -121.65 -25.0 -122.3 -24.45 -122.7 -22.15 -124.35 -20.75 -121.7 L-19.7 -120.0 Q-19.0 -119.05 -18.95 -117.9 -12.0 -122.15 -4.3 -124.75 -0.7 -124.9 1.2 -121.65 3.05 -118.45 5.2 -115.3 L5.9 -114.25 9.85 -109.15 M32.8 -114.9 Q32.8 -116.85 34.75 -117.1 42.8 -115.9 49.9 -111.7 53.25 -109.7 55.5 -106.7 56.2 -105.85 56.1 -104.7 55.85 -101.45 52.65 -102.9 50.7 -103.8 50.9 -105.9 47.35 -108.6 43.1 -110.35 41.6 -110.9 40.35 -111.75 36.55 -112.5 33.25 -114.15 32.8 -114.35 32.8 -114.9 M50.45 -65.45 Q42.5 -67.45 36.35 -73.0 34.55 -74.6 33.8 -76.8 33.4 -77.95 34.4 -78.65 L35.55 -79.1 Q37.45 -78.8 38.35 -77.0 L38.35 -76.95 Q42.35 -73.35 47.15 -70.95 L51.1 -70.8 Q53.1 -71.55 53.8 -69.55 54.65 -67.2 52.7 -65.85 51.7 -65.15 50.45 -65.45" fill="#666666" fill-rule="evenodd" stroke="none"/>
  </g>
</svg>
