<?xml version="1.0" encoding="UTF-8" standalone="no"?>
<svg xmlns:ffdec="https://www.free-decompiler.com/flash" xmlns:xlink="http://www.w3.org/1999/xlink" ffdec:objectType="shape" height="31.85px" width="38.05px" xmlns="http://www.w3.org/2000/svg">
  <g transform="matrix(1.0, 0.0, 0.0, 1.0, -29.4, 226.8)">
    <path d="M31.85 -226.8 Q34.8 -225.6 33.8 -222.2 L33.55 -220.85 Q33.0 -213.85 33.55 -206.9 37.3 -206.0 35.9 -202.65 35.5 -201.8 34.5 -201.8 30.05 -201.8 29.7 -206.1 29.15 -213.45 29.55 -220.9 L29.75 -224.3 Q29.85 -226.5 31.85 -226.8 M66.85 -206.65 L67.25 -204.15 Q67.8 -200.5 66.8 -197.05 65.85 -193.7 62.8 -195.65 62.05 -196.15 61.85 -197.05 61.4 -199.65 63.4 -201.2 63.2 -204.6 62.65 -207.9 L62.6 -209.1 Q61.8 -212.5 61.45 -216.05 61.25 -218.1 63.25 -218.35 65.75 -217.6 65.95 -214.8 66.2 -210.7 66.85 -206.65" fill="#666666" fill-rule="evenodd" stroke="none"/>
  </g>
</svg>
