<?xml version="1.0" encoding="UTF-8" standalone="no"?>
<svg xmlns:ffdec="https://www.free-decompiler.com/flash" xmlns:xlink="http://www.w3.org/1999/xlink" ffdec:objectType="shape" height="64.35px" width="75.35px" xmlns="http://www.w3.org/2000/svg">
  <g transform="matrix(1.0, 0.0, 0.0, 1.0, -9.55, 348.4)">
    <path d="M83.9 -308.85 Q81.2 -308.4 79.3 -310.6 L77.8 -312.0 Q71.65 -316.95 64.9 -321.05 L63.4 -321.35 Q57.8 -323.2 51.8 -323.05 43.65 -322.85 35.8 -320.85 L30.75 -319.35 Q29.0 -318.75 28.25 -320.4 27.55 -321.95 29.15 -322.7 35.5 -325.75 42.65 -326.55 L52.35 -327.0 Q58.9 -327.05 64.8 -324.75 65.2 -325.45 66.25 -325.75 L74.15 -327.8 74.15 -327.85 Q73.95 -328.3 73.9 -328.85 72.7 -330.85 73.35 -332.5 L69.8 -334.65 Q65.75 -337.2 61.35 -339.0 58.85 -340.05 60.15 -342.55 L62.45 -347.15 Q63.05 -348.3 64.2 -348.4 67.35 -347.85 65.9 -344.95 L64.35 -342.25 Q67.6 -340.5 71.3 -338.7 73.9 -337.45 76.1 -335.4 L79.6 -338.0 80.3 -338.35 Q83.55 -337.7 81.75 -335.15 80.9 -333.9 79.65 -333.05 L79.55 -332.95 83.55 -329.85 Q85.05 -328.5 83.6 -327.2 82.1 -325.85 80.1 -325.25 82.9 -320.5 84.4 -315.2 85.25 -312.3 84.65 -309.5 84.5 -308.95 83.9 -308.85 M28.35 -335.2 Q27.1 -335.2 26.1 -336.0 23.55 -338.05 20.55 -339.3 L15.15 -341.6 Q12.2 -338.95 9.85 -342.0 9.25 -342.85 9.8 -343.75 11.1 -345.95 13.55 -346.0 21.35 -344.15 28.35 -339.85 30.0 -338.85 30.1 -337.1 30.25 -335.2 28.35 -335.2 M34.3 -305.05 L34.65 -305.1 Q37.45 -303.95 36.9 -300.55 L36.65 -297.6 Q36.7 -293.85 35.7 -290.35 L34.75 -286.9 Q33.9 -283.5 30.7 -284.15 29.3 -284.45 28.95 -285.75 27.9 -289.45 31.5 -290.2 33.25 -296.5 32.9 -303.3 32.85 -304.7 34.3 -305.05 M78.35 -329.0 L78.2 -329.05 78.25 -328.95 78.35 -329.0 M76.0 -324.25 L69.8 -322.6 Q74.6 -319.45 79.05 -315.85 79.75 -315.3 80.45 -315.0 79.15 -318.2 77.3 -321.2 76.8 -322.1 76.75 -323.1 L76.0 -324.25" fill="#666666" fill-rule="evenodd" stroke="none"/>
  </g>
</svg>
