<?xml version="1.0" encoding="UTF-8" standalone="no"?>
<svg xmlns:ffdec="https://www.free-decompiler.com/flash" xmlns:xlink="http://www.w3.org/1999/xlink" ffdec:objectType="shape" height="72.55px" width="32.65px" xmlns="http://www.w3.org/2000/svg">
  <g transform="matrix(1.0, 0.0, 0.0, 1.0, 16.45, 70.4)">
    <path d="M4.75 -37.35 Q5.5 -36.35 5.4 -34.65 L5.2 -30.2 5.1 -18.2 Q5.05 -17.2 5.55 -16.4 L7.0 -13.65 Q8.05 -11.55 9.3 -9.6 11.8 -5.65 14.95 -2.15 L15.15 -2.1 Q16.35 -1.65 16.2 -0.4 16.05 1.2 14.4 1.35 L10.9 1.6 9.0 1.9 Q7.1 2.35 5.5 1.5 4.7 1.05 4.65 0.15 4.6 -1.5 6.25 -1.7 L8.9 -2.1 9.6 -2.25 Q6.55 -5.8 4.6 -10.0 2.7 -12.9 1.35 -16.1 1.05 -16.85 1.1 -17.65 1.55 -23.6 1.45 -29.6 L1.45 -30.35 Q-0.2 -27.8 -2.2 -25.4 -5.15 -21.9 -7.3 -17.85 -6.75 -15.45 -6.6 -12.95 L-6.5 -11.6 -6.1 -6.7 -5.4 -3.15 Q-5.15 -2.2 -5.15 -1.25 L-4.95 -0.95 Q-3.95 1.25 -6.25 2.0 L-7.25 2.15 -15.45 1.35 Q-16.15 1.25 -16.35 0.55 -16.95 -1.7 -14.65 -2.1 L-9.3 -1.9 -9.8 -4.7 -10.4 -10.45 -10.55 -12.35 -10.95 -17.4 Q-11.25 -20.3 -9.45 -22.55 L-8.65 -23.55 -2.15 -32.5 Q-1.05 -34.1 -0.2 -35.8 L0.8 -37.25 -0.25 -41.2 Q-1.9 -46.8 -3.95 -52.25 -4.95 -55.0 -6.2 -57.65 L-10.9 -67.7 Q-11.35 -68.6 -10.8 -69.45 -10.25 -70.4 -9.2 -70.4 -7.4 -69.95 -6.7 -68.1 L-6.5 -67.6 -1.45 -56.95 Q1.0 -51.6 2.55 -45.85 L3.15 -43.8 3.65 -41.8 Q4.4 -39.65 4.75 -37.35" fill="#666666" fill-rule="evenodd" stroke="none"/>
  </g>
</svg>
