<?xml version="1.0" encoding="UTF-8" standalone="no"?>
<svg xmlns:ffdec="https://www.free-decompiler.com/flash" xmlns:xlink="http://www.w3.org/1999/xlink" ffdec:objectType="shape" height="11.05px" width="39.65px" xmlns="http://www.w3.org/2000/svg">
  <g transform="matrix(1.0, 0.0, 0.0, 1.0, 30.55, 55.95)">
    <path d="M6.9 -53.05 Q9.85 -52.75 8.8 -50.15 8.5 -49.45 7.8 -49.1 L5.95 -48.05 Q1.15 -44.4 -5.0 -45.0 -6.75 -45.15 -7.65 -46.65 -8.7 -48.5 -7.25 -50.1 -6.1 -51.4 -4.3 -50.9 -2.65 -50.45 -2.15 -48.95 2.15 -49.4 5.45 -52.4 5.95 -52.85 6.6 -53.0 L6.9 -53.05 M-28.05 -55.95 Q-24.75 -56.15 -24.45 -53.05 L-24.45 -52.9 Q-20.2 -51.45 -15.7 -51.15 -15.35 -51.15 -15.15 -50.85 -13.8 -48.85 -16.0 -47.8 L-16.5 -47.7 Q-23.55 -47.5 -29.5 -51.05 -30.55 -51.65 -30.55 -52.9 -30.5 -55.45 -28.05 -55.95" fill="#666666" fill-rule="evenodd" stroke="none"/>
  </g>
</svg>
