<?xml version="1.0" encoding="UTF-8" standalone="no"?>
<svg xmlns:ffdec="https://www.free-decompiler.com/flash" xmlns:xlink="http://www.w3.org/1999/xlink" ffdec:objectType="shape" height="31.0px" width="62.7px" xmlns="http://www.w3.org/2000/svg">
  <g transform="matrix(1.0, 0.0, 0.0, 1.0, 86.05, 16.4)">
    <path d="M-61.6 -6.45 L-61.6 -5.2 -61.6 -5.1 -56.4 -5.1 -56.4 -5.2 -56.4 -6.45 -55.4 -6.45 -55.4 -2.6 -55.4 -6.45 -55.2 -6.45 -55.2 -6.1 -51.05 -6.1 -51.05 -6.45 -45.5 -6.45 -45.5 -4.45 -45.5 -4.2 -45.5 -2.7 -45.5 -2.5 -42.75 -2.5 -42.75 -2.7 -42.75 -4.2 -42.75 -4.45 -42.75 -6.45 -40.65 -6.45 -40.65 -5.0 -40.65 -4.9 -40.65 -4.2 -40.65 -4.1 -39.0 -4.1 -39.0 -4.2 -39.0 -4.9 -39.0 -5.0 -38.9 -5.0 -38.9 -6.3 -37.4 -6.3 -37.1 -6.45 -23.35 -6.45 -23.35 3.05 -36.65 3.05 -36.65 1.9 -45.65 1.9 -36.65 1.9 -36.65 3.05 -48.95 3.05 -48.95 0.55 -48.95 -0.15 -48.95 -2.6 -48.95 -3.3 -49.5 -3.3 -51.75 -3.3 -51.75 -2.6 -51.75 -0.15 -51.75 0.55 -51.75 3.05 -61.05 3.05 -61.05 1.45 -61.05 3.05 -65.15 3.05 -65.3 2.8 -66.85 2.8 -66.85 3.05 -67.05 3.05 -67.25 3.05 -67.25 2.9 -69.25 2.9 -69.25 3.05 -86.05 3.05 -86.05 -6.45 -61.6 -6.45 M-55.0 -0.15 L-67.05 -0.15 -67.05 3.05 -67.05 -0.15 -55.0 -0.15 -52.8 -0.15 -52.8 -4.7 -52.8 -0.15 -55.0 -0.15 M-52.8 -0.15 L-51.75 -0.15 -52.8 -0.15 M-54.3 -5.1 L-52.8 -5.1 -54.3 -5.1 M-49.7 -4.2 L-49.5 -4.2 -49.5 -3.3 -49.5 -4.2 -49.7 -4.2 M-46.8 -0.15 L-48.95 -0.15 -46.8 -0.15 -39.3 -0.15 -46.8 -0.15 M-49.5 -4.2 L-46.8 -4.2 -49.5 -4.2 M-46.8 -4.2 L-45.5 -4.2 -46.8 -4.2 M-40.65 -4.2 L-42.75 -4.2 -40.65 -4.2 M-27.15 -4.2 L-39.0 -4.2 -27.15 -4.2 M-32.55 1.9 L-36.65 1.9 -36.65 -1.25 -36.65 1.9 -32.55 1.9 M-52.85 1.2 L-55.0 1.2 -52.85 1.2 M-55.0 1.2 L-60.9 1.2 -55.0 1.2 M-79.2 -1.25 L-69.25 -1.25 -79.2 -1.25 M-70.15 -2.4 L-67.45 -2.4 -70.15 -2.4 M-67.45 -2.4 L-55.55 -2.4 -67.45 -2.4" fill="url(#gradient0)" fill-rule="evenodd" stroke="none"/>
    <path d="M-61.6 -5.2 L-61.6 -6.45 -61.6 -6.6 -56.4 -6.6 -56.4 -6.45 -56.4 -5.2 -61.6 -5.2" fill="url(#gradient1)" fill-rule="evenodd" stroke="none"/>
    <path d="M-51.05 -6.45 L-51.05 -6.1 -55.2 -6.1 -55.2 -6.45 -55.2 -14.3 -51.05 -14.3 -51.05 -6.45" fill="url(#gradient2)" fill-rule="evenodd" stroke="none"/>
    <path d="M-51.75 0.55 L-51.75 -0.15 -51.75 -2.6 -49.5 -2.6 -48.95 -2.6 -48.95 -0.15 -48.95 0.55 -51.75 0.55 -48.95 0.55 -48.95 3.05 -48.95 3.6 -48.95 3.7 -51.75 3.7 -51.75 3.6 -51.75 3.05 -51.75 0.55 M-49.5 -1.7 L-49.5 -2.6 -49.5 -1.7" fill="url(#gradient3)" fill-rule="evenodd" stroke="none"/>
    <path d="M-45.5 -6.45 L-45.5 -6.7 -42.75 -6.7 -42.75 -6.45 -42.75 -4.45 -45.5 -4.45 -42.75 -4.45 -42.75 -4.2 -42.75 -2.7 -45.5 -2.7 -45.5 -4.2 -45.5 -4.45 -45.5 -6.45" fill="url(#gradient4)" fill-rule="evenodd" stroke="none"/>
    <path d="M-40.65 -5.0 L-40.55 -5.0 -39.0 -5.0 -39.0 -4.9 -40.65 -4.9 -40.65 -5.0" fill="url(#gradient5)" fill-rule="evenodd" stroke="none"/>
    <path d="M-40.55 -5.0 L-40.55 -7.25 -38.95 -7.25 -38.9 -7.25 -38.9 -6.3 -38.9 -5.0 -39.0 -5.0 -40.55 -5.0" fill="url(#gradient6)" fill-rule="evenodd" stroke="none"/>
    <path d="M-38.95 -7.25 L-38.95 -7.35 -33.35 -10.95 -30.6 -10.95 -30.5 -10.75 -37.1 -6.45 -37.4 -6.3 -38.9 -6.3 -38.9 -7.25 -38.95 -7.25" fill="url(#gradient7)" fill-rule="evenodd" stroke="none"/>
    <path d="M-48.95 3.6 L-42.45 3.6 -42.45 4.95 -48.95 4.95 -48.95 4.25 -48.95 3.7 -48.95 3.6 M-51.75 4.95 L-60.9 4.95 -60.9 3.6 -51.75 3.6 -51.75 3.7 -51.75 4.25 -51.75 4.95" fill="url(#gradient8)" fill-rule="evenodd" stroke="none"/>
    <path d="M-48.95 4.25 L-48.95 4.95 -48.95 5.6 -51.75 5.6 -51.75 4.95 -51.75 4.25 -48.95 4.25" fill="url(#gradient9)" fill-rule="evenodd" stroke="none"/>
    <path d="M-65.15 3.05 L-58.45 11.5 -59.15 14.6 -66.85 4.85 -66.85 3.05 -66.85 2.8 -65.3 2.8 -65.15 3.05" fill="url(#gradient10)" fill-rule="evenodd" stroke="none"/>
    <path d="M-69.25 3.05 L-69.25 2.9 -67.25 2.9 -67.25 3.05 -67.25 8.15 -69.25 8.15 -69.25 3.05" fill="url(#gradient11)" fill-rule="evenodd" stroke="none"/>
    <path d="M-67.05 3.05 L-67.05 -0.15 -55.0 -0.15 M-55.4 -6.45 L-55.4 -14.4 M-55.4 -6.45 L-55.4 -2.6 M-61.05 3.05 L-61.05 4.4 M-61.05 3.05 L-61.05 1.45 M-67.05 3.05 L-67.05 8.0 M-60.9 1.2 L-55.0 1.2 M-55.55 -2.4 L-67.45 -2.4" fill="none" stroke="#009900" stroke-linecap="round" stroke-linejoin="round" stroke-width="4.0"/>
    <path d="M-55.0 -0.15 L-52.8 -0.15 -52.8 -4.7 M-51.75 -0.15 L-52.8 -0.15 M-51.75 0.55 L-48.95 0.55 M-49.5 -2.6 L-49.5 -1.7 M-49.5 -3.3 L-49.5 -4.2 -49.7 -4.2 M-52.8 -5.1 L-54.3 -5.1 M-48.95 -0.15 L-46.8 -0.15 M-46.8 -4.2 L-49.5 -4.2 M-55.0 1.2 L-52.85 1.2" fill="none" stroke="#006600" stroke-linecap="round" stroke-linejoin="round" stroke-width="4.0"/>
    <path d="M-40.65 -5.0 L-40.55 -5.0 -39.0 -5.0 M-36.65 3.05 L-36.65 4.6 M-46.8 -0.15 L-39.3 -0.15 M-45.5 -4.45 L-42.75 -4.45 M-42.75 -4.2 L-40.65 -4.2 M-45.5 -4.2 L-46.8 -4.2 M-39.0 -4.2 L-27.15 -4.2 M-36.65 -1.25 L-36.65 1.9 -32.55 1.9 M-36.65 3.05 L-36.65 1.9 -45.65 1.9" fill="none" stroke="#003300" stroke-linecap="round" stroke-linejoin="round" stroke-width="4.0"/>
    <path d="M-67.45 -2.4 L-70.15 -2.4 M-69.25 -1.25 L-79.2 -1.25" fill="none" stroke="#00cc00" stroke-linecap="round" stroke-linejoin="round" stroke-width="4.0"/>
  </g>
  <defs>
    <radialGradient cx="0" cy="0" gradientTransform="matrix(-0.0935, 0.0, 0.0, 0.219, -91.3, -6.45)" gradientUnits="userSpaceOnUse" id="gradient0" r="819.2" spreadMethod="pad">
      <stop offset="0.0" stop-color="#00cc00"/>
      <stop offset="0.6196078431372549" stop-color="#006600"/>
      <stop offset="0.8862745098039215" stop-color="#000000"/>
    </radialGradient>
    <radialGradient cx="0" cy="0" gradientTransform="matrix(-0.0935, 0.0, 0.0, 0.219, -91.3, -6.6)" gradientUnits="userSpaceOnUse" id="gradient1" r="819.2" spreadMethod="pad">
      <stop offset="0.0" stop-color="#00cc00"/>
      <stop offset="0.6196078431372549" stop-color="#006600"/>
      <stop offset="0.8862745098039215" stop-color="#000000"/>
    </radialGradient>
    <linearGradient gradientTransform="matrix(-0.0019, 0.0027, 0.0017, 0.0062, -53.15, -10.15)" gradientUnits="userSpaceOnUse" id="gradient2" spreadMethod="pad" x1="-819.2" x2="819.2">
      <stop offset="0.4745098039215686" stop-color="#000000"/>
      <stop offset="1.0" stop-color="#006600"/>
    </linearGradient>
    <radialGradient cx="0" cy="0" gradientTransform="matrix(-0.0935, 0.0, 0.0, 0.219, -91.3, -5.8)" gradientUnits="userSpaceOnUse" id="gradient3" r="819.2" spreadMethod="pad">
      <stop offset="0.0" stop-color="#00cc00"/>
      <stop offset="0.6196078431372549" stop-color="#006600"/>
      <stop offset="0.8862745098039215" stop-color="#000000"/>
    </radialGradient>
    <radialGradient cx="0" cy="0" gradientTransform="matrix(-0.0935, 0.0, 0.0, 0.219, -91.3, -6.75)" gradientUnits="userSpaceOnUse" id="gradient4" r="819.2" spreadMethod="pad">
      <stop offset="0.0" stop-color="#00cc00"/>
      <stop offset="0.6196078431372549" stop-color="#006600"/>
      <stop offset="0.8862745098039215" stop-color="#000000"/>
    </radialGradient>
    <radialGradient cx="0" cy="0" gradientTransform="matrix(-0.0935, 0.0, 0.0, 0.219, -91.3, -7.3)" gradientUnits="userSpaceOnUse" id="gradient5" r="819.2" spreadMethod="pad">
      <stop offset="0.0" stop-color="#00cc00"/>
      <stop offset="0.6196078431372549" stop-color="#006600"/>
      <stop offset="0.8862745098039215" stop-color="#000000"/>
    </radialGradient>
    <radialGradient cx="0" cy="0" gradientTransform="matrix(-0.0935, 0.0, 0.0, 0.219, -91.2, -7.3)" gradientUnits="userSpaceOnUse" id="gradient6" r="819.2" spreadMethod="pad">
      <stop offset="0.0" stop-color="#00cc00"/>
      <stop offset="0.6196078431372549" stop-color="#006600"/>
      <stop offset="0.8862745098039215" stop-color="#000000"/>
    </radialGradient>
    <radialGradient cx="0" cy="0" gradientTransform="matrix(-0.0098, 0.0064, -0.0053, -0.0119, -38.8, -6.15)" gradientUnits="userSpaceOnUse" id="gradient7" r="819.2" spreadMethod="pad">
      <stop offset="0.32941176470588235" stop-color="#006600"/>
      <stop offset="1.0" stop-color="#000000"/>
    </radialGradient>
    <linearGradient gradientTransform="matrix(-0.0084, 4.0E-4, 0.0, 0.0013, -53.2, 4.3)" gradientUnits="userSpaceOnUse" id="gradient8" spreadMethod="pad" x1="-819.2" x2="819.2">
      <stop offset="0.4745098039215686" stop-color="#000000"/>
      <stop offset="1.0" stop-color="#006600"/>
    </linearGradient>
    <linearGradient gradientTransform="matrix(-0.0084, 4.0E-4, 0.0, 0.0013, -53.2, 5.0)" gradientUnits="userSpaceOnUse" id="gradient9" spreadMethod="pad" x1="-819.2" x2="819.2">
      <stop offset="0.4745098039215686" stop-color="#000000"/>
      <stop offset="1.0" stop-color="#006600"/>
    </linearGradient>
    <radialGradient cx="0" cy="0" gradientTransform="matrix(-0.0098, -0.0124, -0.0053, 0.023, -66.7, 2.6)" gradientUnits="userSpaceOnUse" id="gradient10" r="819.2" spreadMethod="pad">
      <stop offset="0.32941176470588235" stop-color="#006600"/>
      <stop offset="1.0" stop-color="#000000"/>
    </radialGradient>
    <radialGradient cx="0" cy="0" gradientTransform="matrix(-0.0044, 0.0, 0.0, 0.0103, -66.8, 1.95)" gradientUnits="userSpaceOnUse" id="gradient11" r="819.2" spreadMethod="pad">
      <stop offset="0.32941176470588235" stop-color="#006600"/>
      <stop offset="1.0" stop-color="#000000"/>
    </radialGradient>
  </defs>
</svg>
