<?xml version="1.0" encoding="UTF-8" standalone="no"?>
<svg xmlns:ffdec="https://www.free-decompiler.com/flash" xmlns:xlink="http://www.w3.org/1999/xlink" ffdec:objectType="shape" height="41.6px" width="60.9px" xmlns="http://www.w3.org/2000/svg">
  <g transform="matrix(1.0, 0.0, 0.0, 1.0, 37.25, 39.6)">
    <path d="M22.75 -27.15 Q24.65 -24.35 22.6 -21.8 22.2 -21.3 21.5 -21.3 18.05 -21.25 18.05 -24.45 18.05 -25.15 18.35 -25.75 16.9 -27.15 15.05 -27.95 L13.9 -28.7 11.45 -29.95 14.1 -27.4 Q16.1 -25.2 17.7 -22.8 18.4 -21.7 17.7 -20.65 L17.55 -20.4 17.45 -20.25 17.2 -19.8 17.15 -19.7 Q16.9 -18.9 16.1 -18.65 L4.95 -14.6 3.35 -13.95 4.9 -12.8 7.5 -10.5 12.8 -5.35 15.2 -2.4 15.35 -1.8 Q16.0 -1.1 15.6 -0.05 15.15 1.05 13.9 1.15 L6.3 1.95 Q5.5 2.1 5.0 1.45 3.7 -0.35 5.6 -1.35 L6.85 -1.8 9.65 -2.4 Q7.75 -4.2 6.25 -6.25 2.65 -9.5 -1.25 -12.45 L-1.9 -12.9 -2.0 -13.0 Q-2.45 -13.35 -2.45 -13.9 L-2.35 -14.8 Q-2.2 -15.65 -1.3 -16.15 2.75 -18.3 7.05 -19.85 L4.2 -20.1 4.2 -20.05 4.0 -20.0 -0.2 -20.35 -2.9 -20.6 -3.05 -19.8 -3.35 -17.7 -3.35 -17.55 -3.45 -17.4 -3.5 -17.35 -3.5 -17.3 -3.55 -17.25 -3.55 -17.05 -3.6 -16.9 -3.7 -16.75 -3.8 -16.65 -3.75 -16.2 -3.8 -13.8 -3.95 -13.55 -3.95 -13.1 -3.95 -11.15 Q-4.7 -5.95 -4.85 -0.6 L-4.9 -0.05 -4.9 0.2 Q-4.9 0.65 -5.3 0.85 -6.25 1.4 -6.9 1.3 L-10.9 1.55 -14.65 1.2 Q-16.35 1.0 -16.2 -0.65 -16.05 -2.3 -14.4 -2.45 L-8.45 -2.25 Q-8.65 -7.85 -7.7 -13.25 L-7.25 -15.95 Q-6.95 -17.9 -7.15 -20.0 -7.3 -21.45 -6.6 -22.45 -6.65 -24.2 -4.85 -24.4 L4.75 -24.0 7.95 -23.7 12.4 -23.4 Q9.6 -26.8 5.75 -29.05 0.7 -32.05 -4.8 -34.1 L-9.05 -35.35 -12.3 -35.9 Q-14.55 -36.15 -14.0 -38.25 -13.7 -39.55 -12.35 -39.6 -6.35 -39.45 -0.95 -36.85 L4.7 -34.2 6.8 -33.1 7.05 -33.9 Q7.55 -34.95 8.7 -35.0 13.05 -34.15 17.0 -31.75 L20.3 -29.6 22.75 -27.15 M-21.5 -30.15 Q-18.75 -29.85 -19.65 -27.4 -20.0 -26.5 -20.95 -26.05 L-23.0 -25.15 Q-26.55 -23.65 -29.85 -21.8 L-31.3 -20.7 Q-31.35 -17.5 -34.45 -16.65 -35.6 -16.35 -36.45 -17.1 -37.6 -18.15 -37.1 -19.7 L-35.85 -21.85 Q-33.35 -24.65 -29.95 -26.2 L-21.5 -30.15" fill="#666666" fill-rule="evenodd" stroke="none"/>
  </g>
</svg>
