<?xml version="1.0" encoding="UTF-8" standalone="no"?>
<svg xmlns:ffdec="https://www.free-decompiler.com/flash" xmlns:xlink="http://www.w3.org/1999/xlink" ffdec:objectType="shape" height="39.85px" width="57.25px" xmlns="http://www.w3.org/2000/svg">
  <g transform="matrix(1.0, 0.0, 0.0, 1.0, 33.65, 38.1)">
    <path d="M2.05 -29.55 Q-3.05 -32.6 -9.0 -33.6 L-14.3 -34.6 Q-15.0 -34.7 -15.2 -35.45 -15.8 -37.7 -13.5 -38.1 -7.65 -37.85 -2.05 -35.9 2.25 -34.35 5.85 -31.75 5.55 -33.65 7.65 -34.0 12.3 -33.75 16.1 -30.9 17.65 -29.65 19.35 -28.7 23.0 -26.6 23.55 -22.7 23.9 -20.5 22.0 -19.7 L19.85 -19.8 Q17.2 -21.35 18.25 -24.25 14.55 -27.2 10.2 -29.35 L7.8 -30.3 8.05 -30.05 12.5 -25.85 15.6 -22.3 15.9 -22.25 15.95 -21.8 16.1 -21.7 16.65 -21.1 16.65 -20.5 16.8 -20.35 16.85 -20.25 16.85 -19.95 16.85 -18.85 16.45 -18.6 Q10.9 -16.4 5.1 -15.3 L2.75 -14.8 Q6.1 -10.85 9.85 -7.25 11.95 -5.25 14.4 -3.7 17.05 -2.05 15.7 0.4 15.3 1.15 14.4 1.25 L5.5 1.75 Q4.95 1.75 4.75 1.2 3.7 -1.05 6.1 -1.75 L7.5 -2.05 9.3 -2.15 7.2 -4.2 Q4.85 -6.2 2.85 -8.6 0.2 -11.65 -2.85 -14.4 -3.85 -15.3 -3.4 -16.6 -2.95 -18.05 -1.3 -18.25 2.9 -18.65 7.0 -19.6 L-0.35 -20.4 -3.85 -20.5 -3.9 -18.15 Q-4.05 -15.4 -4.35 -12.7 L-4.75 -7.5 -4.65 -4.05 Q-4.55 -2.6 -4.6 -1.15 -4.7 1.45 -7.25 1.2 L-14.5 0.95 Q-15.5 1.0 -15.85 0.05 -16.7 -2.1 -14.45 -2.45 L-8.65 -2.95 -8.55 -5.25 -8.3 -10.75 -7.9 -15.95 Q-7.65 -18.25 -7.85 -20.55 -8.1 -23.6 -5.55 -24.4 L6.35 -23.85 9.15 -23.5 3.5 -28.5 2.05 -29.55 M-22.35 -28.8 Q-19.6 -28.35 -20.65 -25.9 -20.9 -25.3 -21.55 -25.05 -25.6 -23.3 -28.05 -19.75 -26.4 -16.35 -29.75 -14.4 -29.95 -14.25 -30.25 -14.25 -33.8 -13.9 -33.65 -17.3 -33.65 -18.1 -33.25 -18.85 -30.75 -24.2 -25.75 -27.3 -24.05 -28.3 -22.35 -28.8" fill="#666666" fill-rule="evenodd" stroke="none"/>
  </g>
</svg>
