<?xml version="1.0" encoding="UTF-8" standalone="no"?>
<svg xmlns:ffdec="https://www.free-decompiler.com/flash" xmlns:xlink="http://www.w3.org/1999/xlink" ffdec:objectType="shape" height="36.7px" width="59.1px" xmlns="http://www.w3.org/2000/svg">
  <g transform="matrix(1.0, 0.0, 0.0, 1.0, 35.1, 34.8)">
    <path d="M7.1 -31.3 Q6.6 -31.8 6.25 -32.45 L6.2 -33.1 Q6.6 -34.55 8.05 -34.6 11.2 -33.9 14.1 -32.1 19.1 -29.0 23.45 -24.85 L23.95 -23.85 Q24.4 -20.55 21.0 -20.95 19.55 -21.1 18.5 -22.25 17.7 -23.2 17.9 -24.4 L14.0 -27.45 13.05 -28.25 Q11.9 -28.7 10.8 -29.3 L10.5 -29.6 Q9.7 -29.7 9.05 -29.95 L10.45 -28.9 13.3 -26.55 17.4 -22.3 Q17.75 -21.9 17.6 -21.4 17.3 -20.1 16.45 -19.8 15.9 -18.85 14.85 -18.65 L11.6 -17.6 Q7.65 -15.95 3.5 -14.8 L2.75 -14.6 3.25 -14.05 Q5.6 -11.3 8.3 -9.0 L10.35 -7.3 13.1 -5.05 Q14.75 -3.85 15.65 -2.05 16.15 -1.0 15.65 -0.25 L15.6 -0.2 Q15.3 0.9 14.15 1.0 L9.55 1.7 Q7.05 2.3 4.95 1.1 4.45 0.85 4.35 0.25 4.05 -1.6 5.9 -1.85 L8.5 -2.25 9.75 -2.5 4.05 -7.6 -2.3 -13.35 -2.8 -13.75 Q-3.85 -14.5 -3.85 -15.35 L-4.3 -13.8 -4.4 -13.2 Q-4.4 -9.95 -5.05 -6.85 L-5.35 -5.3 -5.65 -2.3 Q-5.25 -2.0 -5.15 -1.35 -4.8 0.65 -6.9 0.75 -10.55 0.95 -14.15 0.8 -15.45 0.7 -15.65 -0.55 -15.95 -2.6 -13.9 -2.85 L-9.65 -2.75 -9.55 -3.8 Q-8.65 -8.8 -8.1 -13.85 L-7.25 -19.1 -6.7 -22.5 Q-6.65 -23.05 -6.15 -23.4 L-5.05 -23.8 Q-0.1 -23.95 4.75 -23.65 L10.9 -23.25 6.6 -26.85 Q2.2 -29.9 -3.1 -30.5 L-10.25 -30.7 Q-12.55 -30.6 -12.6 -32.85 -12.6 -34.65 -10.8 -34.8 L-2.25 -34.55 Q0.8 -34.4 3.6 -33.15 L7.1 -31.3 M3.9 -19.55 L1.6 -19.65 -3.1 -19.85 Q-3.05 -19.05 -3.15 -18.25 L-3.3 -17.4 -3.65 -16.0 -3.05 -16.8 Q-2.6 -17.3 -1.95 -17.3 L-1.9 -17.25 4.6 -19.55 3.9 -19.55 M-22.1 -24.95 L-29.6 -19.7 Q-28.3 -16.5 -31.5 -15.4 -32.95 -14.9 -34.05 -15.8 -35.55 -17.0 -34.95 -18.8 -34.4 -20.5 -33.05 -21.8 -28.5 -26.2 -22.85 -28.8 -20.05 -28.25 -21.35 -25.8 -21.6 -25.25 -22.1 -24.95" fill="#666666" fill-rule="evenodd" stroke="none"/>
  </g>
</svg>
