<?xml version="1.0" encoding="UTF-8" standalone="no"?>
<svg xmlns:ffdec="https://www.free-decompiler.com/flash" xmlns:xlink="http://www.w3.org/1999/xlink" ffdec:objectType="shape" height="72.5px" width="42.05px" xmlns="http://www.w3.org/2000/svg">
  <g transform="matrix(1.0, 0.0, 0.0, 1.0, 27.75, 71.2)">
    <path d="M12.1 -52.65 Q14.9 -51.9 13.55 -49.45 L12.4 -48.25 Q8.5 -45.55 4.1 -43.8 L3.1 -43.5 2.15 -43.35 2.0 -42.8 0.7 -37.85 Q1.45 -37.0 1.5 -35.55 1.5 -34.05 1.9 -32.6 L2.25 -30.7 2.75 -26.3 Q3.25 -20.3 5.75 -15.0 L6.55 -13.6 Q9.75 -8.65 13.45 -3.95 15.15 -1.85 13.4 0.2 L12.4 0.65 3.75 1.0 Q1.95 1.25 1.65 -0.5 1.4 -1.8 2.55 -2.45 3.7 -3.1 5.0 -3.35 L8.7 -3.5 Q4.9 -8.5 1.65 -13.9 1.3 -14.4 1.1 -14.95 -0.05 -17.75 -0.55 -20.75 -1.3 -24.9 -1.45 -29.15 L-2.3 -32.85 Q-5.6 -28.95 -8.3 -24.6 L-10.25 -21.45 Q-10.0 -20.95 -10.05 -20.2 L-10.05 -20.05 Q-7.75 -16.5 -7.15 -12.25 L-6.95 -11.2 Q-6.15 -6.1 -4.7 -1.15 -4.5 -0.5 -4.9 0.05 -6.0 1.65 -7.35 0.8 L-11.4 1.3 -15.05 1.15 Q-16.55 1.05 -16.6 -0.45 -16.7 -2.3 -14.75 -2.4 L-9.35 -2.85 Q-10.35 -8.15 -11.6 -13.35 L-12.4 -15.45 Q-13.25 -17.05 -13.7 -18.75 -15.35 -19.3 -14.75 -21.25 -14.3 -22.8 -13.45 -24.2 -10.5 -29.25 -6.9 -33.95 -5.55 -35.7 -3.9 -37.05 -2.6 -40.35 -1.85 -43.75 -3.05 -44.25 -3.15 -45.55 -3.25 -48.35 -1.0 -48.7 -0.5 -53.55 -0.45 -58.45 L-0.5 -59.2 Q-0.75 -62.15 0.25 -64.75 L1.05 -65.45 1.75 -65.65 Q4.55 -65.2 3.8 -62.6 3.45 -61.45 3.45 -60.3 L2.9 -48.5 2.85 -47.95 3.2 -47.75 3.3 -47.7 3.55 -47.7 11.85 -52.55 12.1 -52.65 M-21.95 -68.85 Q-21.85 -68.35 -21.9 -67.85 -18.25 -65.2 -14.2 -62.9 -11.9 -61.6 -13.55 -59.6 -14.25 -58.75 -15.25 -59.2 -16.9 -59.9 -18.45 -60.8 -23.1 -63.35 -27.2 -66.6 L-27.55 -67.2 Q-28.35 -70.3 -25.55 -71.15 -22.45 -71.6 -21.95 -68.85" fill="#666666" fill-rule="evenodd" stroke="none"/>
  </g>
</svg>
