<?xml version="1.0" encoding="UTF-8" standalone="no"?>
<svg xmlns:ffdec="https://www.free-decompiler.com/flash" xmlns:xlink="http://www.w3.org/1999/xlink" ffdec:objectType="shape" height="73.3px" width="47.3px" xmlns="http://www.w3.org/2000/svg">
  <g transform="matrix(1.0, 0.0, 0.0, 1.0, 23.6, 71.6)">
    <path d="M11.1 -57.15 Q10.2 -55.05 8.9 -53.2 7.6 -51.3 6.75 -49.15 L2.0 -38.45 1.05 -36.25 0.95 -35.95 Q1.4 -35.1 1.45 -33.85 L1.9 -27.95 2.4 -22.35 Q2.7 -17.6 6.3 -14.1 8.55 -11.95 10.35 -9.45 12.4 -6.7 13.65 -3.55 15.1 -3.05 14.65 -1.05 14.45 -0.35 13.75 -0.15 10.65 0.75 7.45 0.9 L2.4 0.7 Q1.35 0.6 1.15 -0.4 0.7 -2.5 2.85 -2.85 L6.6 -3.2 9.25 -3.4 Q6.65 -7.8 3.2 -11.55 0.4 -14.65 -1.1 -18.6 L-1.25 -19.25 -2.35 -30.3 -2.55 -30.1 -10.3 -21.25 Q-10.8 -20.7 -11.5 -20.35 L-11.9 -19.45 Q-11.45 -18.75 -11.15 -17.8 -10.05 -14.2 -8.35 -10.9 -6.9 -8.2 -5.95 -5.3 -5.0 -2.4 -5.55 0.45 -5.7 1.1 -6.3 1.35 L-6.85 1.5 -15.85 1.25 -16.4 0.8 Q-17.35 -1.35 -15.0 -1.9 L-12.55 -2.35 -9.5 -2.45 Q-10.95 -7.65 -13.45 -12.5 -14.9 -15.3 -15.75 -18.35 L-16.15 -19.1 Q-16.45 -20.9 -15.15 -22.35 L-7.35 -30.95 -3.6 -35.1 Q-4.0 -36.15 -3.25 -37.35 -0.05 -42.3 1.9 -47.9 3.45 -52.5 6.1 -56.5 7.15 -58.65 8.85 -60.2 L9.55 -60.5 Q12.3 -59.75 11.1 -57.15 M21.6 -48.55 Q24.25 -47.75 23.55 -44.9 L23.3 -43.05 Q23.15 -39.45 19.8 -38.45 L18.2 -38.4 Q14.95 -39.15 15.0 -42.2 15.05 -44.0 16.95 -44.25 L19.4 -44.1 Q19.05 -46.7 20.9 -48.2 L21.6 -48.55 M-21.5 -71.55 Q-18.15 -72.0 -17.95 -68.95 -17.9 -68.35 -18.2 -67.8 -15.5 -66.0 -12.45 -64.55 L-6.75 -61.45 -6.25 -60.5 Q-6.1 -58.15 -8.55 -58.45 -10.15 -58.65 -11.6 -59.4 -16.45 -62.0 -21.15 -64.8 -23.35 -66.1 -23.6 -68.4 -23.85 -71.05 -21.5 -71.55" fill="#666666" fill-rule="evenodd" stroke="none"/>
  </g>
</svg>
