<?xml version="1.0" encoding="UTF-8" standalone="no"?>
<svg xmlns:ffdec="https://www.free-decompiler.com/flash" xmlns:xlink="http://www.w3.org/1999/xlink" ffdec:objectType="shape" height="73.75px" width="55.15px" xmlns="http://www.w3.org/2000/svg">
  <g transform="matrix(1.0, 0.0, 0.0, 1.0, 19.2, 72.3)">
    <path d="M32.2 -50.95 Q35.45 -51.25 35.9 -48.35 36.2 -46.35 34.5 -45.15 29.75 -41.6 23.9 -40.35 L19.1 -39.75 Q18.55 -39.7 18.25 -40.2 16.85 -42.5 19.55 -43.45 L22.3 -44.2 Q26.4 -45.0 30.05 -46.95 29.35 -48.55 30.4 -49.95 31.1 -50.9 32.2 -50.95 M13.15 -52.2 Q12.1 -49.55 10.5 -47.15 7.25 -42.25 4.3 -37.15 2.4 -33.85 0.05 -30.9 0.75 -29.85 0.45 -28.15 0.2 -26.7 0.45 -25.35 L1.25 -20.05 Q1.45 -18.35 2.8 -17.05 L5.05 -14.25 6.9 -11.6 Q9.7 -8.05 12.05 -4.05 12.9 -2.55 12.45 -0.95 12.05 0.5 10.5 0.55 L3.3 0.85 2.05 0.6 Q0.0 -0.25 0.9 -2.3 1.3 -3.2 2.25 -3.25 L7.5 -3.45 Q4.0 -9.15 -0.3 -14.3 -1.7 -15.9 -2.4 -17.8 -2.8 -18.75 -2.85 -19.8 -3.05 -22.3 -3.4 -24.7 L-3.6 -26.35 Q-8.6 -23.9 -12.6 -20.1 L-14.65 -18.1 Q-11.8 -14.5 -9.55 -10.55 L-4.7 -2.7 Q-4.0 -1.6 -4.2 -0.25 -4.4 1.35 -6.1 1.4 L-14.65 1.35 Q-15.95 1.3 -16.2 0.05 -16.55 -1.85 -14.6 -2.1 L-9.7 -2.45 Q-11.55 -6.4 -13.95 -10.0 L-16.4 -13.55 -18.95 -17.45 Q-19.35 -18.05 -19.15 -18.8 -18.75 -20.25 -17.4 -21.05 -13.25 -25.35 -8.1 -28.6 L-5.35 -30.1 Q-5.1 -31.0 -4.45 -31.8 -0.7 -36.35 2.25 -41.45 L6.85 -49.05 9.4 -53.3 Q9.5 -55.35 11.55 -55.6 L11.6 -55.6 Q14.25 -54.85 13.15 -52.2 M0.75 -62.0 Q-1.6 -62.35 -3.5 -63.7 -7.5 -65.25 -11.25 -67.3 -12.15 -67.75 -13.1 -67.7 -15.95 -65.85 -18.55 -67.95 -19.15 -68.4 -19.15 -69.1 -19.2 -71.8 -16.5 -72.3 -11.15 -72.2 -6.45 -69.5 -5.2 -68.75 -3.85 -68.2 L0.9 -66.05 Q3.75 -64.7 1.75 -62.4 1.35 -61.95 0.75 -62.0" fill="#666666" fill-rule="evenodd" stroke="none"/>
  </g>
</svg>
