<?xml version="1.0" encoding="UTF-8" standalone="no"?>
<svg xmlns:ffdec="https://www.free-decompiler.com/flash" xmlns:xlink="http://www.w3.org/1999/xlink" ffdec:objectType="shape" height="75.5px" width="55.1px" xmlns="http://www.w3.org/2000/svg">
  <g transform="matrix(1.0, 0.0, 0.0, 1.0, 19.05, 73.7)">
    <path d="M16.0 -52.3 Q13.7 -46.95 10.3 -42.1 L3.4 -32.7 0.35 -29.35 0.35 -29.25 0.55 -28.5 1.35 -25.6 1.8 -23.05 Q1.9 -19.3 2.5 -15.65 5.5 -11.1 9.6 -7.45 L12.0 -5.35 Q13.55 -3.95 13.7 -1.95 13.85 -0.8 12.7 -0.35 L9.25 -0.05 Q7.25 -0.45 5.3 0.0 3.0 0.55 1.1 -0.45 0.65 -0.65 0.5 -1.2 -0.05 -3.3 2.1 -3.7 L4.75 -4.15 7.2 -4.25 Q2.95 -7.95 -0.25 -12.4 -1.7 -14.35 -1.8 -16.75 L-1.8 -18.1 Q-1.75 -22.25 -3.05 -26.15 -7.65 -24.1 -11.75 -21.3 L-14.6 -18.85 -8.9 -11.55 Q-6.15 -8.1 -3.95 -4.3 -2.4 -1.55 -4.7 0.25 L-5.4 0.5 -12.85 1.6 -14.3 1.75 Q-16.3 2.0 -16.35 0.0 -16.45 -2.05 -14.25 -2.45 L-8.1 -3.1 Q-10.2 -6.95 -13.0 -10.3 L-18.6 -17.75 Q-19.55 -19.2 -18.45 -20.55 -16.2 -23.4 -13.15 -25.35 -8.6 -28.3 -3.65 -30.4 L-3.5 -30.95 -2.85 -31.9 Q1.1 -36.25 4.4 -41.1 L8.25 -46.6 Q10.5 -50.05 11.95 -53.9 12.6 -55.6 14.35 -55.8 17.15 -55.0 16.0 -52.3 M2.65 -57.55 Q1.05 -56.1 -0.35 -57.7 -4.35 -62.15 -8.8 -66.1 L-10.9 -68.3 Q-14.2 -67.75 -14.65 -70.65 -15.0 -73.0 -12.7 -73.6 L-12.4 -73.7 Q-9.9 -73.35 -8.15 -71.35 -4.65 -67.4 -0.75 -63.85 1.4 -61.95 2.9 -59.55 3.6 -58.45 2.65 -57.55 M34.6 -46.75 L26.45 -38.75 25.45 -38.1 Q23.15 -37.25 22.7 -39.55 22.4 -41.2 23.7 -42.3 L30.8 -48.55 Q30.45 -51.8 33.8 -52.45 36.65 -51.85 35.9 -48.9 35.55 -47.65 34.6 -46.75" fill="#666666" fill-rule="evenodd" stroke="none"/>
  </g>
</svg>
