<?xml version="1.0" encoding="UTF-8" standalone="no"?>
<svg xmlns:ffdec="https://www.free-decompiler.com/flash" xmlns:xlink="http://www.w3.org/1999/xlink" ffdec:objectType="shape" height="73.25px" width="57.05px" xmlns="http://www.w3.org/2000/svg">
  <g transform="matrix(1.0, 0.0, 0.0, 1.0, 19.05, 72.3)">
    <path d="M3.2 -59.05 Q3.55 -58.6 3.4 -58.0 2.65 -55.4 0.15 -56.85 L-1.45 -58.15 -9.2 -66.3 -9.55 -66.65 Q-12.45 -66.4 -12.25 -69.05 -12.1 -71.65 -9.9 -72.3 -7.05 -72.4 -6.7 -69.75 L-6.7 -69.6 0.7 -62.05 3.2 -59.05 M38.0 -51.55 Q38.15 -47.55 35.45 -44.55 32.5 -41.3 29.0 -38.7 27.35 -37.5 26.15 -39.15 25.4 -40.2 26.2 -41.15 27.45 -42.65 29.0 -43.8 32.1 -46.1 33.8 -49.5 32.6 -50.45 32.5 -52.05 32.3 -54.4 34.5 -54.8 37.85 -54.85 38.0 -51.55 M14.35 -50.7 Q17.25 -50.1 16.05 -47.4 14.75 -44.4 12.55 -41.85 L9.8 -38.6 Q6.1 -34.0 2.0 -29.75 L0.95 -28.6 0.8 -27.6 Q0.1 -24.7 0.1 -21.7 L0.15 -15.3 Q7.4 -10.95 12.95 -4.5 14.9 -2.25 12.6 -0.6 L12.2 -0.45 2.45 -0.15 Q1.9 -0.2 1.65 -0.75 0.6 -3.3 3.3 -3.85 L3.8 -3.85 8.05 -4.05 Q4.05 -7.65 -0.3 -10.65 L-2.45 -12.15 Q-4.35 -13.55 -3.95 -16.05 -3.8 -17.1 -3.8 -18.25 L-3.75 -24.5 -10.95 -20.65 -14.2 -19.0 -9.85 -11.15 -5.65 -3.75 Q-5.2 -2.95 -5.05 -2.05 -4.7 0.15 -6.9 0.5 L-15.55 0.8 Q-16.15 0.75 -16.35 0.2 -17.35 -2.15 -14.75 -2.6 L-10.25 -3.2 -14.35 -11.05 -16.9 -15.25 -18.9 -18.75 Q-19.2 -19.35 -18.85 -19.95 -17.25 -22.6 -14.2 -23.55 L-13.1 -24.0 Q-8.6 -26.35 -4.15 -28.85 -4.1 -29.85 -3.35 -30.55 0.9 -34.6 4.75 -39.05 8.6 -43.5 11.8 -48.35 L12.65 -49.7 Q13.25 -50.65 14.35 -50.7" fill="#666666" fill-rule="evenodd" stroke="none"/>
  </g>
</svg>
