<?xml version="1.0" encoding="UTF-8" standalone="no"?>
<svg xmlns:ffdec="https://www.free-decompiler.com/flash" xmlns:xlink="http://www.w3.org/1999/xlink" ffdec:objectType="shape" height="18.95px" width="173.55px" xmlns="http://www.w3.org/2000/svg">
  <g transform="matrix(1.0, 0.0, 0.0, 1.0, 86.05, 9.6)">
    <path d="M-42.0 -0.6 L-34.55 -0.6 -42.0 -0.6 M-67.05 0.05 L-39.55 0.05 -67.05 0.05 M-18.35 -3.0 L-18.35 -2.25 -18.35 -2.2 -3.95 -2.2 -3.95 -2.25 -3.95 -3.0 -1.2 -3.0 -0.65 -3.0 -0.65 -2.8 10.85 -2.8 10.85 -3.0 26.2 -3.0 26.2 -1.8 26.2 -1.65 22.6 -1.65 26.2 -1.65 26.2 -0.8 26.2 -0.65 33.8 -0.65 33.8 -0.8 33.8 -1.65 33.8 -1.8 33.8 -3.0 39.65 -3.0 39.65 -2.15 39.65 -2.1 39.65 -1.65 33.8 -1.65 39.65 -1.65 39.65 -1.6 44.2 -1.6 44.2 -1.65 44.2 -2.1 44.2 -2.15 44.5 -2.15 44.5 -2.9 48.65 -2.9 49.45 -3.0 87.5 -3.0 87.5 2.6 50.7 2.6 50.7 1.9 25.8 1.9 50.7 1.9 50.7 2.6 16.8 2.6 16.8 1.1 16.8 0.7 16.8 -0.75 16.8 -1.15 15.15 -1.15 8.9 -1.15 8.9 -0.75 8.9 0.7 8.9 1.1 8.9 2.6 -16.85 2.6 -28.2 2.6 -28.6 2.45 -32.9 2.45 -32.9 2.6 -33.45 2.6 -33.45 0.7 -0.1 0.7 6.0 0.7 6.0 -1.95 6.0 0.7 -0.1 0.7 -33.45 0.7 -33.45 2.6 -34.0 2.6 -34.0 2.5 -39.55 2.5 -39.55 2.6 -86.05 2.6 -86.05 -3.0 -18.35 -3.0 M-1.2 -0.75 L-1.2 -3.0 -1.2 -0.75 M22.6 -1.65 L15.15 -1.65 15.15 -1.15 15.15 -1.65 22.6 -1.65 M6.0 0.7 L8.9 0.7 6.0 0.7 M1.85 -2.2 L6.0 -2.2 1.85 -2.2 M22.6 0.7 L16.8 0.7 22.6 0.7 43.5 0.7 22.6 0.7 M-34.55 -0.6 L-1.6 -0.6 -34.55 -0.6 M-16.85 1.65 L-16.85 2.6 -16.85 1.65 M77.15 -1.65 L44.2 -1.65 77.15 -1.65 M62.2 1.9 L50.7 1.9 50.7 0.05 50.7 1.9 62.2 1.9 M5.85 1.5 L-0.1 1.5 5.85 1.5 M-0.1 1.5 L-16.3 1.5 -0.1 1.5" fill="url(#gradient0)" fill-rule="evenodd" stroke="none"/>
    <path d="M-18.35 -3.0 L-18.35 -3.05 -3.95 -3.05 -3.95 -3.0 -3.95 -2.25 -18.35 -2.25 -18.35 -3.0" fill="url(#gradient1)" fill-rule="evenodd" stroke="none"/>
    <path d="M-0.65 -7.6 L10.85 -7.6 10.85 -3.0 10.85 -2.8 -0.65 -2.8 -0.65 -3.0 -0.65 -7.6" fill="url(#gradient2)" fill-rule="evenodd" stroke="none"/>
    <path d="M8.9 1.1 L8.9 0.7 8.9 -0.75 15.15 -0.75 16.8 -0.75 16.8 0.7 16.8 1.1 8.9 1.1 16.8 1.1 16.8 2.6 16.8 2.9 16.8 2.95 8.9 2.95 8.9 2.9 8.9 2.6 8.9 1.1 M15.15 -0.2 L15.15 -0.75 15.15 -0.2" fill="url(#gradient3)" fill-rule="evenodd" stroke="none"/>
    <path d="M26.2 -3.0 L26.2 -3.15 33.8 -3.15 33.8 -3.0 33.8 -1.8 33.8 -1.65 33.8 -0.8 26.2 -0.8 26.2 -1.65 26.2 -1.8 26.2 -3.0 M33.8 -1.8 L26.2 -1.8 33.8 -1.8" fill="url(#gradient4)" fill-rule="evenodd" stroke="none"/>
    <path d="M39.65 -2.15 L39.9 -2.15 44.2 -2.15 44.2 -2.1 39.65 -2.1 39.65 -2.15" fill="url(#gradient5)" fill-rule="evenodd" stroke="none"/>
    <path d="M39.9 -2.15 L39.9 -3.45 44.35 -3.45 44.5 -3.45 44.5 -2.9 44.5 -2.15 44.2 -2.15 39.9 -2.15" fill="url(#gradient6)" fill-rule="evenodd" stroke="none"/>
    <path d="M44.35 -3.45 L44.35 -3.5 59.85 -5.65 67.6 -5.65 67.75 -5.5 49.45 -3.0 48.65 -2.9 44.5 -2.9 44.5 -3.45 44.35 -3.45" fill="url(#gradient7)" fill-rule="evenodd" stroke="none"/>
    <path d="M16.8 2.9 L34.65 2.9 34.65 3.7 16.8 3.7 16.8 3.3 16.8 2.95 16.8 2.9 M8.9 3.7 L-16.4 3.7 -16.4 3.4 -16.4 2.9 8.9 2.9 8.9 2.95 8.9 3.3 8.9 3.7" fill="url(#gradient8)" fill-rule="evenodd" stroke="none"/>
    <path d="M16.8 3.3 L16.8 3.7 16.8 4.1 8.9 4.1 8.9 3.7 8.9 3.3 16.8 3.3" fill="url(#gradient9)" fill-rule="evenodd" stroke="none"/>
    <path d="M-32.9 2.6 L-32.9 2.45 -28.6 2.45 -28.2 2.6 -9.65 7.55 -11.55 9.35 -32.9 3.65 -32.9 2.6" fill="url(#gradient10)" fill-rule="evenodd" stroke="none"/>
    <path d="M-39.55 2.6 L-39.55 2.5 -34.0 2.5 -34.0 2.6 -34.0 5.5 -34.0 5.6 -39.55 5.6 -39.55 2.6" fill="url(#gradient11)" fill-rule="evenodd" stroke="none"/>
    <path d="M-39.55 0.05 L-67.05 0.05 M-34.55 -0.6 L-42.0 -0.6" fill="none" stroke="#00cc00" stroke-linecap="round" stroke-linejoin="round" stroke-width="4.0"/>
    <path d="M-0.1 0.7 L6.0 0.7 6.0 -1.95 M15.15 -1.15 L15.15 -1.65 22.6 -1.65 M8.9 0.7 L6.0 0.7 M8.9 1.1 L16.8 1.1 M15.15 -0.75 L15.15 -0.2 M6.0 -2.2 L1.85 -2.2 M16.8 0.7 L22.6 0.7 M-0.1 1.5 L5.85 1.5" fill="none" stroke="#006600" stroke-linecap="round" stroke-linejoin="round" stroke-width="4.0"/>
    <path d="M-1.2 -3.0 L-0.65 -7.6 M-1.2 -3.0 L-1.2 -0.75 M-1.6 -0.6 L-34.55 -0.6 M-0.1 0.7 L-33.45 0.7 -33.45 2.6 -34.0 5.5 M-16.85 2.6 L-16.85 1.65 M-16.4 3.4 L-16.85 2.6 M-16.3 1.5 L-0.1 1.5" fill="none" stroke="#009900" stroke-linecap="round" stroke-linejoin="round" stroke-width="4.0"/>
    <path d="M39.65 -2.15 L39.9 -2.15 44.2 -2.15 M50.7 2.6 L50.7 3.5 M22.6 -1.65 L26.2 -1.65 M22.6 0.7 L43.5 0.7 M33.8 -1.65 L39.65 -1.65 M26.2 -1.8 L33.8 -1.8 M44.2 -1.65 L77.15 -1.65 M50.7 0.05 L50.7 1.9 62.2 1.9 M50.7 2.6 L50.7 1.9 25.8 1.9" fill="none" stroke="#003300" stroke-linecap="round" stroke-linejoin="round" stroke-width="4.0"/>
  </g>
  <defs>
    <radialGradient cx="0" cy="0" gradientTransform="matrix(-0.2587, 0.0, 0.0, 0.1286, -100.55, -3.0)" gradientUnits="userSpaceOnUse" id="gradient0" r="819.2" spreadMethod="pad">
      <stop offset="0.0" stop-color="#00cc00"/>
      <stop offset="0.6196078431372549" stop-color="#006600"/>
      <stop offset="0.8862745098039215" stop-color="#000000"/>
    </radialGradient>
    <radialGradient cx="0" cy="0" gradientTransform="matrix(-0.2587, 0.0, 0.0, 0.1286, -100.55, -3.05)" gradientUnits="userSpaceOnUse" id="gradient1" r="819.2" spreadMethod="pad">
      <stop offset="0.0" stop-color="#00cc00"/>
      <stop offset="0.6196078431372549" stop-color="#006600"/>
      <stop offset="0.8862745098039215" stop-color="#000000"/>
    </radialGradient>
    <linearGradient gradientTransform="matrix(-0.0052, 0.0016, 0.0046, 0.0036, 5.05, -5.15)" gradientUnits="userSpaceOnUse" id="gradient2" spreadMethod="pad" x1="-819.2" x2="819.2">
      <stop offset="0.4745098039215686" stop-color="#000000"/>
      <stop offset="1.0" stop-color="#006600"/>
    </linearGradient>
    <radialGradient cx="0" cy="0" gradientTransform="matrix(-0.2587, 0.0, 0.0, 0.1286, -100.55, -2.6)" gradientUnits="userSpaceOnUse" id="gradient3" r="819.2" spreadMethod="pad">
      <stop offset="0.0" stop-color="#00cc00"/>
      <stop offset="0.6196078431372549" stop-color="#006600"/>
      <stop offset="0.8862745098039215" stop-color="#000000"/>
    </radialGradient>
    <radialGradient cx="0" cy="0" gradientTransform="matrix(-0.2587, 0.0, 0.0, 0.1286, -100.55, -3.15)" gradientUnits="userSpaceOnUse" id="gradient4" r="819.2" spreadMethod="pad">
      <stop offset="0.0" stop-color="#00cc00"/>
      <stop offset="0.6196078431372549" stop-color="#006600"/>
      <stop offset="0.8862745098039215" stop-color="#000000"/>
    </radialGradient>
    <radialGradient cx="0" cy="0" gradientTransform="matrix(-0.2587, 0.0, 0.0, 0.1286, -100.55, -3.5)" gradientUnits="userSpaceOnUse" id="gradient5" r="819.2" spreadMethod="pad">
      <stop offset="0.0" stop-color="#00cc00"/>
      <stop offset="0.6196078431372549" stop-color="#006600"/>
      <stop offset="0.8862745098039215" stop-color="#000000"/>
    </radialGradient>
    <radialGradient cx="0" cy="0" gradientTransform="matrix(-0.2587, 0.0, 0.0, 0.1286, -100.3, -3.5)" gradientUnits="userSpaceOnUse" id="gradient6" r="819.2" spreadMethod="pad">
      <stop offset="0.0" stop-color="#00cc00"/>
      <stop offset="0.6196078431372549" stop-color="#006600"/>
      <stop offset="0.8862745098039215" stop-color="#000000"/>
    </radialGradient>
    <radialGradient cx="0" cy="0" gradientTransform="matrix(-0.0272, 0.0038, -0.0146, -0.007, 44.75, -2.8)" gradientUnits="userSpaceOnUse" id="gradient7" r="819.2" spreadMethod="pad">
      <stop offset="0.32941176470588235" stop-color="#006600"/>
      <stop offset="1.0" stop-color="#000000"/>
    </radialGradient>
    <linearGradient gradientTransform="matrix(-0.0233, 2.0E-4, 0.0, 7.0E-4, 4.9, 3.3)" gradientUnits="userSpaceOnUse" id="gradient8" spreadMethod="pad" x1="-819.2" x2="819.2">
      <stop offset="0.4745098039215686" stop-color="#000000"/>
      <stop offset="1.0" stop-color="#006600"/>
    </linearGradient>
    <linearGradient gradientTransform="matrix(-0.0233, 2.0E-4, 0.0, 7.0E-4, 4.9, 3.75)" gradientUnits="userSpaceOnUse" id="gradient9" spreadMethod="pad" x1="-819.2" x2="819.2">
      <stop offset="0.4745098039215686" stop-color="#000000"/>
      <stop offset="1.0" stop-color="#006600"/>
    </linearGradient>
    <radialGradient cx="0" cy="0" gradientTransform="matrix(-0.0272, -0.0073, -0.0146, 0.0135, -32.45, 2.35)" gradientUnits="userSpaceOnUse" id="gradient10" r="819.2" spreadMethod="pad">
      <stop offset="0.32941176470588235" stop-color="#006600"/>
      <stop offset="1.0" stop-color="#000000"/>
    </radialGradient>
    <radialGradient cx="0" cy="0" gradientTransform="matrix(-0.0123, 0.0, 0.0, 0.0061, -32.75, 1.95)" gradientUnits="userSpaceOnUse" id="gradient11" r="819.2" spreadMethod="pad">
      <stop offset="0.32941176470588235" stop-color="#006600"/>
      <stop offset="1.0" stop-color="#000000"/>
    </radialGradient>
  </defs>
</svg>
