<?xml version="1.0" encoding="UTF-8" standalone="no"?>
<svg xmlns:ffdec="https://www.free-decompiler.com/flash" xmlns:xlink="http://www.w3.org/1999/xlink" ffdec:objectType="shape" height="75.2px" width="55.4px" xmlns="http://www.w3.org/2000/svg">
  <g transform="matrix(1.0, 0.0, 0.0, 1.0, 17.05, 73.7)">
    <path d="M16.0 -52.6 L14.45 -50.1 9.75 -42.95 4.9 -33.35 2.45 -28.45 2.35 -27.6 2.05 -26.2 Q1.15 -20.55 0.6 -14.85 7.65 -10.15 13.8 -4.2 L14.7 -2.9 Q15.85 -0.45 13.1 0.05 L10.7 0.35 3.5 0.7 Q2.85 0.75 2.55 0.15 1.35 -2.1 3.85 -2.95 6.05 -3.7 8.45 -3.65 3.35 -8.1 -2.25 -11.9 -3.5 -12.75 -3.35 -14.25 L-2.35 -23.2 -2.25 -23.85 Q-6.75 -21.9 -11.35 -20.25 L-12.6 -19.7 Q-11.15 -16.05 -9.2 -12.55 L-7.95 -10.1 -4.1 -2.7 -3.9 -2.05 Q-3.5 0.55 -5.95 0.95 L-9.95 1.3 -10.5 1.35 -15.25 1.1 Q-17.05 0.6 -16.55 -1.15 -16.25 -2.3 -15.05 -2.4 L-8.6 -2.85 Q-10.55 -5.75 -12.05 -9.0 L-12.75 -10.45 -13.25 -12.0 Q-15.5 -15.3 -16.8 -19.05 -17.8 -21.95 -14.65 -23.25 -8.2 -25.85 -1.9 -28.55 L-1.35 -29.85 -0.85 -30.3 Q-0.35 -32.6 0.8 -34.7 L6.1 -44.3 10.15 -51.05 Q11.5 -53.25 13.2 -55.15 13.75 -55.75 14.5 -55.8 17.5 -55.2 16.0 -52.6 M38.35 -49.8 Q38.4 -48.5 37.55 -47.45 L30.95 -40.15 Q29.3 -38.5 27.9 -40.3 27.4 -41.0 27.55 -41.85 27.9 -43.55 29.4 -44.65 L30.0 -45.1 Q31.75 -46.7 33.15 -48.65 31.6 -50.45 33.0 -52.4 33.6 -53.25 34.5 -53.25 38.25 -53.4 38.35 -49.8 M-9.65 -68.8 Q-7.65 -65.05 -4.55 -62.2 -1.4 -59.35 -0.75 -55.35 L-0.85 -54.85 Q-2.4 -52.7 -4.1 -54.7 L-5.05 -56.05 Q-7.05 -59.05 -9.55 -61.75 -11.65 -64.05 -13.4 -66.7 -14.25 -68.05 -14.45 -69.6 -14.9 -72.85 -12.0 -73.7 -8.2 -73.75 -8.6 -70.25 -8.7 -69.25 -9.65 -68.8" fill="#666666" fill-rule="evenodd" stroke="none"/>
  </g>
</svg>
