<?xml version="1.0" encoding="UTF-8" standalone="no"?>
<svg xmlns:ffdec="https://www.free-decompiler.com/flash" xmlns:xlink="http://www.w3.org/1999/xlink" ffdec:objectType="shape" height="76.0px" width="49.55px" xmlns="http://www.w3.org/2000/svg">
  <g transform="matrix(1.0, 0.0, 0.0, 1.0, 16.8, 74.1)">
    <path d="M32.65 -51.0 L32.75 -50.0 Q32.25 -46.7 28.75 -46.1 L21.55 -44.8 Q19.9 -44.5 19.1 -45.95 18.35 -47.45 19.7 -48.4 20.55 -49.0 21.6 -49.15 L25.75 -49.6 Q25.45 -51.25 26.65 -52.4 27.45 -53.15 28.45 -53.25 31.65 -53.6 32.65 -51.0 M9.95 -59.7 L9.8 -58.7 Q9.8 -52.75 7.45 -47.25 5.3 -42.35 4.3 -37.2 L2.75 -31.85 Q3.1 -31.15 2.85 -30.0 L2.35 -26.8 Q1.75 -21.3 1.95 -15.7 6.95 -10.1 12.4 -4.95 L13.4 -4.15 Q14.85 -3.1 14.85 -1.45 14.8 0.75 12.5 1.2 L11.7 1.3 4.3 1.2 Q2.4 1.15 2.45 -0.75 2.55 -2.2 4.05 -2.35 L8.55 -2.65 Q3.25 -7.9 -1.35 -13.65 -2.25 -14.75 -2.15 -16.25 L-1.9 -21.2 -1.7 -25.2 Q-5.15 -22.55 -9.0 -20.4 L-10.5 -19.35 -7.4 -11.2 Q-6.5 -9.1 -6.1 -6.85 L-5.1 -0.6 Q-4.9 0.75 -6.2 1.3 L-8.3 1.8 Q-11.25 2.0 -14.25 1.85 -16.95 1.75 -16.25 -0.85 -15.95 -1.95 -14.85 -1.95 L-9.45 -2.3 Q-10.15 -6.4 -11.3 -10.4 L-11.8 -11.65 -13.7 -16.0 Q-14.45 -17.8 -14.65 -19.7 -14.75 -20.9 -13.8 -21.65 L-6.6 -26.9 -1.35 -30.55 -1.15 -31.35 -1.15 -31.5 Q-1.0 -34.0 -0.2 -36.4 L1.6 -42.8 2.55 -45.8 Q4.05 -49.55 5.15 -53.45 6.05 -56.55 5.75 -59.75 5.45 -62.75 8.05 -63.45 11.05 -62.75 9.95 -59.7 M-11.5 -70.4 Q-11.75 -69.35 -12.8 -68.85 -12.05 -63.5 -9.15 -58.95 -8.45 -57.85 -8.05 -56.6 -7.9 -56.05 -8.25 -55.55 -9.55 -53.65 -11.4 -55.2 -12.55 -56.15 -13.25 -57.5 -15.55 -61.9 -16.6 -66.7 -17.3 -69.9 -15.8 -72.65 L-15.2 -73.45 Q-14.55 -74.05 -13.75 -74.1 -10.65 -73.55 -11.5 -70.4" fill="#666666" fill-rule="evenodd" stroke="none"/>
  </g>
</svg>
