<?xml version="1.0" encoding="UTF-8" standalone="no"?>
<svg xmlns:ffdec="https://www.free-decompiler.com/flash" xmlns:xlink="http://www.w3.org/1999/xlink" ffdec:objectType="shape" height="73.8px" width="37.85px" xmlns="http://www.w3.org/2000/svg">
  <g transform="matrix(1.0, 0.0, 0.0, 1.0, 22.9, 72.3)">
    <path d="M2.3 -65.65 L2.2 -63.45 2.5 -53.5 8.05 -53.9 10.75 -54.4 Q13.15 -55.0 13.35 -52.65 13.55 -50.95 11.9 -50.45 8.2 -49.25 4.2 -49.45 L2.65 -49.45 2.5 -49.45 2.5 -45.8 2.45 -37.05 Q3.3 -36.1 3.15 -34.45 L3.1 -33.75 3.55 -21.95 Q3.6 -20.2 4.1 -18.55 8.95 -13.8 12.15 -7.7 L14.6 -2.6 14.7 -2.35 Q15.25 -1.6 14.65 -0.25 14.3 0.55 13.45 0.75 10.0 1.65 6.4 1.35 L5.7 1.25 Q3.3 0.9 3.95 -1.45 4.25 -2.5 5.4 -2.6 L9.85 -2.9 9.7 -3.2 7.3 -7.85 3.7 -12.95 0.6 -16.35 Q0.15 -16.75 0.05 -17.4 L-0.3 -21.95 -0.75 -29.4 -4.95 -24.85 Q-6.7 -23.1 -7.65 -20.8 -8.05 -20.0 -7.7 -19.05 L-7.15 -16.9 -6.3 -11.15 Q-6.05 -8.25 -5.15 -5.4 -4.25 -2.5 -5.3 0.25 -5.6 1.05 -6.4 1.15 -10.6 1.9 -14.75 1.0 -15.5 0.85 -15.75 0.15 -16.35 -1.9 -14.2 -2.2 L-8.75 -2.65 Q-10.05 -7.05 -10.5 -11.65 -10.75 -14.15 -11.3 -16.65 L-11.9 -20.2 Q-12.1 -22.25 -10.95 -23.95 L-8.85 -26.85 -3.85 -32.4 -3.45 -32.9 -1.2 -35.15 -1.2 -35.2 -1.5 -36.75 -1.35 -48.7 -1.35 -49.4 -3.35 -49.5 Q-4.9 -49.55 -5.7 -50.9 -6.7 -52.7 -5.3 -54.15 -4.5 -54.9 -3.55 -55.0 L-1.35 -54.95 -1.65 -60.45 Q-1.95 -64.6 -1.4 -68.55 L-1.15 -69.0 Q-0.55 -69.55 0.2 -69.55 2.8 -68.7 2.3 -65.65 M-20.65 -72.3 Q-17.25 -72.35 -17.75 -69.3 -17.85 -68.5 -18.5 -67.95 -16.0 -63.15 -12.75 -58.75 -11.3 -56.85 -12.75 -55.05 -13.45 -54.25 -14.45 -54.65 -15.9 -55.3 -16.65 -56.75 L-17.8 -58.6 Q-20.8 -63.0 -22.6 -67.95 L-22.9 -69.2 Q-23.1 -71.8 -20.65 -72.3" fill="#666666" fill-rule="evenodd" stroke="none"/>
  </g>
</svg>
