<?xml version="1.0" encoding="UTF-8" standalone="no"?>
<svg xmlns:ffdec="https://www.free-decompiler.com/flash" xmlns:xlink="http://www.w3.org/1999/xlink" ffdec:objectType="shape" height="70.35px" width="42.25px" xmlns="http://www.w3.org/2000/svg">
  <g transform="matrix(1.0, 0.0, 0.0, 1.0, 25.7, 67.85)">
    <path d="M10.05 -51.65 Q10.45 -51.5 10.5 -51.05 10.75 -48.05 7.4 -48.8 4.3 -49.55 1.5 -50.8 L2.45 -47.4 2.5 -46.65 Q3.45 -45.6 3.25 -44.15 L3.25 -43.4 6.2 -31.1 6.35 -30.55 Q7.1 -29.6 6.35 -27.85 L4.3 -22.95 Q2.7 -19.05 2.05 -14.85 L8.8 -8.4 Q12.15 -5.35 15.8 -2.65 L16.05 -2.4 Q17.55 0.25 14.55 0.75 L9.25 1.5 6.6 1.75 Q3.9 2.1 3.9 -0.55 3.95 -1.45 4.75 -1.7 L7.85 -2.5 8.95 -2.8 Q5.15 -5.5 2.2 -8.95 0.5 -10.95 -1.6 -12.5 -2.25 -13.0 -2.15 -13.9 -1.45 -19.65 0.65 -25.1 L-1.65 -23.4 -7.2 -18.6 Q-7.25 -15.65 -6.6 -12.85 L-6.25 -10.5 Q-5.15 -8.2 -4.65 -5.55 L-4.25 -4.2 Q-3.35 -2.25 -3.75 -0.35 -3.95 0.6 -4.9 0.85 L-9.85 2.2 -14.3 2.1 Q-15.4 1.75 -15.3 0.6 -15.0 -1.6 -12.45 -1.8 L-8.1 -2.5 -10.65 -12.55 -11.05 -14.8 Q-11.35 -17.7 -10.7 -20.5 -10.5 -21.2 -9.9 -21.7 L0.5 -29.9 2.15 -30.95 1.95 -32.25 0.9 -35.65 -0.65 -43.0 Q-1.3 -46.65 -2.4 -50.15 L-3.2 -53.4 -6.2 -55.65 Q-7.65 -56.9 -7.1 -58.9 -6.65 -60.5 -5.1 -60.65 L-4.55 -60.65 -4.55 -61.1 Q-4.55 -63.2 -5.25 -65.2 -5.5 -65.95 -5.2 -66.65 -4.65 -67.75 -3.5 -67.85 -1.4 -67.0 -0.95 -64.55 -0.45 -61.65 -0.45 -58.6 L-0.15 -57.05 0.25 -55.95 Q4.9 -53.25 10.05 -51.65 M-24.8 -64.4 Q-24.2 -65.25 -23.25 -65.25 -19.5 -65.1 -19.9 -61.45 -20.0 -60.55 -20.65 -59.9 -17.55 -55.15 -13.4 -51.3 -13.0 -50.95 -13.25 -50.5 -14.55 -47.65 -17.2 -49.85 -22.4 -54.2 -25.25 -60.3 -26.3 -62.45 -24.8 -64.4" fill="#666666" fill-rule="evenodd" stroke="none"/>
  </g>
</svg>
