<?xml version="1.0" encoding="UTF-8" standalone="no"?>
<svg xmlns:ffdec="https://www.free-decompiler.com/flash" xmlns:xlink="http://www.w3.org/1999/xlink" ffdec:objectType="shape" height="75.95px" width="35.95px" xmlns="http://www.w3.org/2000/svg">
  <g transform="matrix(1.0, 0.0, 0.0, 1.0, 20.9, 73.5)">
    <path d="M9.1 -51.8 L8.25 -50.7 Q5.55 -48.25 2.2 -47.1 L2.2 -46.95 2.3 -43.85 2.2 -42.7 2.05 -42.0 2.5 -38.75 2.55 -38.2 2.6 -37.15 Q4.25 -35.95 4.2 -33.4 4.1 -29.55 4.9 -25.8 5.45 -23.1 5.05 -20.5 6.4 -19.15 7.2 -17.15 L9.15 -12.75 9.35 -12.1 Q12.45 -6.9 14.85 -1.5 L15.05 -0.45 14.85 1.05 Q14.45 2.65 12.1 2.45 8.35 2.1 4.9 1.05 4.25 0.85 4.2 0.15 4.1 -1.95 6.1 -2.15 L10.45 -2.0 9.35 -4.15 Q6.65 -7.85 4.85 -12.0 L4.1 -13.55 Q3.0 -15.55 2.2 -17.6 L1.9 -18.45 Q1.15 -19.0 1.1 -20.5 1.1 -25.6 0.2 -30.55 L0.05 -31.45 -2.7 -28.05 Q-5.55 -24.9 -7.65 -21.3 -7.25 -20.4 -7.25 -19.15 L-7.15 -14.35 Q-6.9 -9.9 -5.4 -5.75 -4.5 -3.4 -4.65 -1.05 L-4.5 -0.7 Q-4.25 0.75 -5.15 1.25 L-5.8 1.6 -6.6 1.6 -13.25 1.9 -15.15 1.65 Q-18.35 0.75 -16.15 -1.6 -15.55 -2.25 -14.55 -2.4 L-13.6 -2.5 -8.95 -2.3 Q-9.25 -5.3 -10.0 -8.25 -10.9 -11.85 -11.35 -15.55 L-11.9 -19.85 Q-12.1 -21.1 -11.65 -21.95 L-11.3 -22.85 -9.2 -26.1 -4.2 -32.95 -2.05 -36.05 -1.9 -36.35 -1.85 -36.95 -1.75 -38.2 -1.75 -40.5 -1.95 -44.05 -1.85 -44.05 -1.75 -46.15 -1.75 -46.35 Q-3.2 -46.35 -4.55 -46.9 -6.15 -47.6 -6.4 -49.2 -6.75 -52.05 -3.75 -52.95 L-2.15 -53.2 Q-2.55 -56.35 -3.25 -59.45 -4.5 -64.95 -6.3 -70.2 -7.2 -72.85 -4.6 -73.5 -2.1 -72.4 -1.45 -69.45 -1.25 -68.7 -1.3 -67.9 0.5 -61.4 1.5 -54.65 L1.9 -51.45 Q4.75 -52.45 6.9 -54.7 L7.45 -55.0 Q10.45 -54.45 9.1 -51.8 M-17.95 -57.85 Q-14.85 -58.05 -14.25 -55.15 L-14.2 -54.95 Q-11.95 -54.85 -10.25 -53.3 -9.9 -53.0 -10.0 -52.55 -10.4 -50.0 -13.3 -50.4 L-18.7 -51.3 Q-19.8 -51.55 -20.35 -52.5 -21.6 -54.8 -19.9 -56.75 -19.05 -57.7 -17.95 -57.85" fill="#666666" fill-rule="evenodd" stroke="none"/>
  </g>
</svg>
