<?xml version="1.0" encoding="UTF-8" standalone="no"?>
<svg xmlns:ffdec="https://www.free-decompiler.com/flash" xmlns:xlink="http://www.w3.org/1999/xlink" ffdec:objectType="shape" height="19.0px" width="137.35px" xmlns="http://www.w3.org/2000/svg">
  <g transform="matrix(1.0, 0.0, 0.0, 1.0, 86.1, 12.6)">
    <path d="M-16.55 -5.2 L-13.2 -5.2 -16.55 -5.2 M-6.0 -4.15 L-10.9 -4.15 -10.9 -3.75 -10.9 -2.3 -10.9 -1.9 -10.9 -0.4 -31.3 -0.4 -40.25 -0.4 -40.6 -0.55 -43.95 -0.55 -43.95 -0.4 -44.45 -0.4 -44.45 -2.3 -18.0 -2.3 -44.45 -2.3 -44.45 -0.4 -44.85 -0.4 -44.85 -0.5 -49.3 -0.5 -49.3 -0.4 -86.1 -0.4 -86.1 -6.0 -32.5 -6.0 -32.5 -5.25 -32.5 -5.2 -21.1 -5.2 -21.1 -5.25 -21.1 -6.0 -18.9 -6.0 -18.45 -6.0 -18.45 -5.8 -9.35 -5.8 -9.35 -6.0 2.8 -6.0 2.8 -4.8 2.8 -4.65 -0.05 -4.65 2.8 -4.65 2.8 -3.8 2.8 -3.65 8.85 -3.65 8.85 -3.8 8.85 -4.65 8.85 -4.8 8.85 -6.0 13.45 -6.0 13.45 -5.15 13.45 -5.05 13.45 -4.65 13.45 -4.6 17.05 -4.6 17.05 -4.65 17.05 -5.05 17.05 -5.15 17.25 -5.15 17.25 -5.9 20.55 -5.9 21.15 -6.0 51.25 -6.0 51.25 -0.4 22.15 -0.4 22.15 -1.1 2.45 -1.1 22.15 -1.1 22.15 -0.4 -4.7 -0.4 -4.7 -1.9 -4.7 -2.3 -4.7 -3.75 -4.7 -4.15 -6.0 -4.15 -6.0 -4.65 -0.05 -4.65 -6.0 -4.65 -6.0 -4.15 M-18.9 -3.75 L-18.9 -6.0 -18.9 -3.75 M13.45 -4.65 L8.85 -4.65 13.45 -4.65 M31.25 -1.1 L22.15 -1.1 22.15 -2.95 22.15 -1.1 31.25 -1.1 M43.05 -4.65 L17.05 -4.65 43.05 -4.65 M-18.0 -2.3 L-13.2 -2.3 -10.9 -2.3 -13.2 -2.3 -18.0 -2.3 M-31.3 -1.35 L-31.3 -0.4 -31.3 -1.35 M-0.05 -2.3 L-4.7 -2.3 -0.05 -2.3 16.45 -2.3 -0.05 -2.3 M-13.2 -4.95 L-13.2 -2.3 -13.2 -4.95 M-45.3 -3.6 L-19.25 -3.6 -45.3 -3.6 -51.2 -3.6 -45.3 -3.6 M-18.0 -1.5 L-30.9 -1.5 -18.0 -1.5 -13.35 -1.5 -18.0 -1.5 M-71.0 -2.95 L-49.3 -2.95 -71.0 -2.95" fill="url(#gradient0)" fill-rule="evenodd" stroke="none"/>
    <path d="M-9.35 -6.0 L-9.35 -5.8 -18.45 -5.8 -18.45 -6.0 -18.45 -10.6 -9.35 -10.6 -9.35 -6.0" fill="url(#gradient1)" fill-rule="evenodd" stroke="none"/>
    <path d="M-6.0 -3.2 L-6.0 -3.75 -6.0 -3.2 M-10.9 -3.75 L-6.0 -3.75 -4.7 -3.75 -4.7 -2.3 -4.7 -1.9 -10.9 -1.9 -4.7 -1.9 -4.7 -0.4 -4.7 -0.1 -4.7 0.0 -10.9 0.0 -10.9 -0.1 -10.9 -0.4 -10.9 -1.9 -10.9 -2.3 -10.9 -3.75" fill="url(#gradient2)" fill-rule="evenodd" stroke="none"/>
    <path d="M2.8 -4.65 L2.8 -4.8 2.8 -6.0 2.8 -6.1 8.85 -6.1 8.85 -6.0 8.85 -4.8 8.85 -4.65 8.85 -3.8 2.8 -3.8 2.8 -4.65 M2.8 -4.8 L8.85 -4.8 2.8 -4.8" fill="url(#gradient3)" fill-rule="evenodd" stroke="none"/>
    <path d="M13.45 -5.15 L13.65 -5.15 17.05 -5.15 17.05 -5.05 13.45 -5.05 13.45 -5.15" fill="url(#gradient4)" fill-rule="evenodd" stroke="none"/>
    <path d="M13.65 -5.15 L13.65 -6.45 17.15 -6.45 17.25 -6.45 17.25 -5.9 17.25 -5.15 17.05 -5.15 13.65 -5.15" fill="url(#gradient5)" fill-rule="evenodd" stroke="none"/>
    <path d="M17.15 -6.45 L17.15 -6.5 29.4 -8.65 35.5 -8.65 35.6 -8.5 21.15 -6.0 20.55 -5.9 17.25 -5.9 17.25 -6.45 17.15 -6.45" fill="url(#gradient6)" fill-rule="evenodd" stroke="none"/>
    <path d="M-4.7 -0.1 L9.45 -0.1 9.45 0.7 -4.7 0.7 -4.7 0.3 -4.7 0.0 -4.7 -0.1 M-10.9 0.7 L-30.95 0.7 -30.95 0.4 -30.95 -0.1 -10.9 -0.1 -10.9 0.0 -10.9 0.3 -10.9 0.7" fill="url(#gradient7)" fill-rule="evenodd" stroke="none"/>
    <path d="M-4.7 0.3 L-4.7 0.7 -4.7 1.1 -10.9 1.1 -10.9 0.7 -10.9 0.3 -4.7 0.3" fill="url(#gradient8)" fill-rule="evenodd" stroke="none"/>
    <path d="M-32.5 -6.0 L-32.5 -6.05 -21.1 -6.05 -21.1 -6.0 -21.1 -5.25 -32.5 -5.25 -32.5 -6.0" fill="url(#gradient9)" fill-rule="evenodd" stroke="none"/>
    <path d="M-40.25 -0.4 L-25.55 4.55 -27.1 6.4 -43.95 0.65 -43.95 -0.4 -43.95 -0.55 -40.6 -0.55 -40.25 -0.4" fill="url(#gradient10)" fill-rule="evenodd" stroke="none"/>
    <path d="M-44.85 2.5 L-44.85 2.6 -49.3 2.6 -49.3 -0.4 -49.3 -0.5 -44.85 -0.5 -44.85 -0.4 -44.85 2.5" fill="url(#gradient11)" fill-rule="evenodd" stroke="none"/>
    <path d="M-13.2 -5.2 L-16.55 -5.2 M-6.0 -4.15 L-6.0 -4.65 -0.05 -4.65 M-6.0 -3.75 L-6.0 -3.2 M-10.9 -1.9 L-4.7 -1.9 M-10.9 -2.3 L-13.2 -2.3 -18.0 -2.3 M-4.7 -2.3 L-0.05 -2.3 M-13.2 -2.3 L-13.2 -4.95 M-18.0 -1.5 L-13.35 -1.5" fill="none" stroke="#006600" stroke-linecap="round" stroke-linejoin="round" stroke-width="4.0"/>
    <path d="M-0.05 -4.65 L2.8 -4.65 M8.85 -4.8 L2.8 -4.8 M13.45 -5.15 L13.65 -5.15 17.05 -5.15 M22.15 -0.4 L22.15 0.5 M8.85 -4.65 L13.45 -4.65 M17.05 -4.65 L43.05 -4.65 M22.15 -2.95 L22.15 -1.1 31.25 -1.1 M22.15 -0.4 L22.15 -1.1 2.45 -1.1 M-0.05 -2.3 L16.45 -2.3" fill="none" stroke="#003300" stroke-linecap="round" stroke-linejoin="round" stroke-width="4.0"/>
    <path d="M-18.9 -6.0 L-18.9 -3.75 M-30.95 0.4 L-31.3 -0.4 -31.3 -1.35 M-44.45 -0.4 L-44.85 2.5 M-18.9 -6.0 L-18.45 -10.6 M-18.0 -2.3 L-44.45 -2.3 -44.45 -0.4 M-19.25 -3.6 L-45.3 -3.6 M-30.9 -1.5 L-18.0 -1.5" fill="none" stroke="#009900" stroke-linecap="round" stroke-linejoin="round" stroke-width="4.0"/>
    <path d="M-45.3 -3.6 L-51.2 -3.6 M-49.3 -2.95 L-71.0 -2.95" fill="none" stroke="#00cc00" stroke-linecap="round" stroke-linejoin="round" stroke-width="4.0"/>
  </g>
  <defs>
    <radialGradient cx="0" cy="0" gradientTransform="matrix(-0.2047, 0.0, 0.0, 0.1286, -97.55, -6.0)" gradientUnits="userSpaceOnUse" id="gradient0" r="819.2" spreadMethod="pad">
      <stop offset="0.0" stop-color="#00cc00"/>
      <stop offset="0.6196078431372549" stop-color="#006600"/>
      <stop offset="0.8862745098039215" stop-color="#000000"/>
    </radialGradient>
    <linearGradient gradientTransform="matrix(-0.0041, 0.0016, 0.0037, 0.0036, -13.95, -8.15)" gradientUnits="userSpaceOnUse" id="gradient1" spreadMethod="pad" x1="-819.2" x2="819.2">
      <stop offset="0.4745098039215686" stop-color="#000000"/>
      <stop offset="1.0" stop-color="#006600"/>
    </linearGradient>
    <radialGradient cx="0" cy="0" gradientTransform="matrix(-0.2047, 0.0, 0.0, 0.1286, -97.55, -5.6)" gradientUnits="userSpaceOnUse" id="gradient2" r="819.2" spreadMethod="pad">
      <stop offset="0.0" stop-color="#00cc00"/>
      <stop offset="0.6196078431372549" stop-color="#006600"/>
      <stop offset="0.8862745098039215" stop-color="#000000"/>
    </radialGradient>
    <radialGradient cx="0" cy="0" gradientTransform="matrix(-0.2047, 0.0, 0.0, 0.1286, -97.55, -6.15)" gradientUnits="userSpaceOnUse" id="gradient3" r="819.2" spreadMethod="pad">
      <stop offset="0.0" stop-color="#00cc00"/>
      <stop offset="0.6196078431372549" stop-color="#006600"/>
      <stop offset="0.8862745098039215" stop-color="#000000"/>
    </radialGradient>
    <radialGradient cx="0" cy="0" gradientTransform="matrix(-0.2047, 0.0, 0.0, 0.1286, -97.55, -6.5)" gradientUnits="userSpaceOnUse" id="gradient4" r="819.2" spreadMethod="pad">
      <stop offset="0.0" stop-color="#00cc00"/>
      <stop offset="0.6196078431372549" stop-color="#006600"/>
      <stop offset="0.8862745098039215" stop-color="#000000"/>
    </radialGradient>
    <radialGradient cx="0" cy="0" gradientTransform="matrix(-0.2047, 0.0, 0.0, 0.1286, -97.35, -6.5)" gradientUnits="userSpaceOnUse" id="gradient5" r="819.2" spreadMethod="pad">
      <stop offset="0.0" stop-color="#00cc00"/>
      <stop offset="0.6196078431372549" stop-color="#006600"/>
      <stop offset="0.8862745098039215" stop-color="#000000"/>
    </radialGradient>
    <radialGradient cx="0" cy="0" gradientTransform="matrix(-0.0215, 0.0038, -0.0116, -0.007, 17.45, -5.8)" gradientUnits="userSpaceOnUse" id="gradient6" r="819.2" spreadMethod="pad">
      <stop offset="0.32941176470588235" stop-color="#006600"/>
      <stop offset="1.0" stop-color="#000000"/>
    </radialGradient>
    <linearGradient gradientTransform="matrix(-0.0184, 2.0E-4, 0.0, 7.0E-4, -14.05, 0.3)" gradientUnits="userSpaceOnUse" id="gradient7" spreadMethod="pad" x1="-819.2" x2="819.2">
      <stop offset="0.4745098039215686" stop-color="#000000"/>
      <stop offset="1.0" stop-color="#006600"/>
    </linearGradient>
    <linearGradient gradientTransform="matrix(-0.0184, 2.0E-4, 0.0, 7.0E-4, -14.05, 0.75)" gradientUnits="userSpaceOnUse" id="gradient8" spreadMethod="pad" x1="-819.2" x2="819.2">
      <stop offset="0.4745098039215686" stop-color="#000000"/>
      <stop offset="1.0" stop-color="#006600"/>
    </linearGradient>
    <radialGradient cx="0" cy="0" gradientTransform="matrix(-0.2047, 0.0, 0.0, 0.1286, -97.55, -6.05)" gradientUnits="userSpaceOnUse" id="gradient9" r="819.2" spreadMethod="pad">
      <stop offset="0.0" stop-color="#00cc00"/>
      <stop offset="0.6196078431372549" stop-color="#006600"/>
      <stop offset="0.8862745098039215" stop-color="#000000"/>
    </radialGradient>
    <radialGradient cx="0" cy="0" gradientTransform="matrix(-0.0215, -0.0073, -0.0116, 0.0135, -43.65, -0.65)" gradientUnits="userSpaceOnUse" id="gradient10" r="819.2" spreadMethod="pad">
      <stop offset="0.32941176470588235" stop-color="#006600"/>
      <stop offset="1.0" stop-color="#000000"/>
    </radialGradient>
    <radialGradient cx="0" cy="0" gradientTransform="matrix(-0.0097, 0.0, 0.0, 0.0061, -43.85, -1.05)" gradientUnits="userSpaceOnUse" id="gradient11" r="819.2" spreadMethod="pad">
      <stop offset="0.32941176470588235" stop-color="#006600"/>
      <stop offset="1.0" stop-color="#000000"/>
    </radialGradient>
  </defs>
</svg>
