<?xml version="1.0" encoding="UTF-8" standalone="no"?>
<svg xmlns:ffdec="https://www.free-decompiler.com/flash" xmlns:xlink="http://www.w3.org/1999/xlink" ffdec:objectType="shape" height="53.2px" width="47.75px" xmlns="http://www.w3.org/2000/svg">
  <g transform="matrix(1.0, 0.0, 0.0, 1.0, 28.7, 87.35)">
    <path d="M10.1 -76.55 Q12.5 -75.9 13.65 -73.4 14.5 -71.5 15.7 -69.85 18.45 -66.1 19.0 -61.55 19.4 -58.3 16.0 -58.35 13.35 -58.35 13.1 -60.75 12.95 -62.4 14.15 -63.45 14.35 -63.75 14.2 -64.1 L14.0 -64.65 Q10.95 -69.5 8.35 -74.5 8.1 -74.95 8.35 -75.4 8.95 -76.5 10.1 -76.55 M2.35 -63.1 Q2.45 -57.1 1.35 -51.45 1.7 -50.6 1.35 -49.25 L1.05 -47.95 Q0.35 -44.05 -1.05 -40.25 6.1 -42.3 13.9 -43.0 15.1 -43.15 15.45 -42.0 L16.0 -38.4 Q16.05 -36.5 15.25 -34.8 14.95 -34.2 14.25 -34.15 11.9 -34.0 11.95 -36.3 L11.95 -38.8 8.45 -38.45 Q1.8 -37.0 -4.45 -34.45 L-5.1 -34.55 Q-6.95 -35.8 -6.2 -37.95 L-5.9 -39.05 -5.25 -40.0 Q-3.55 -44.8 -2.9 -49.75 L-3.3 -50.2 Q-6.75 -54.55 -11.35 -57.7 -15.85 -53.5 -18.9 -48.1 -19.9 -46.4 -21.45 -45.25 L-22.05 -45.1 Q-24.35 -45.4 -25.65 -47.6 L-27.85 -50.45 Q-29.7 -52.25 -27.6 -53.65 L-25.95 -53.6 Q-24.1 -52.4 -22.7 -50.7 L-22.4 -50.7 Q-19.05 -56.0 -14.5 -60.4 -13.05 -61.8 -11.2 -62.15 -9.0 -61.75 -7.3 -60.15 L-1.85 -54.95 Q-1.45 -60.25 -1.75 -65.45 L-2.15 -70.45 Q-4.4 -77.0 -7.15 -83.55 -8.35 -86.5 -5.55 -87.35 -3.2 -86.35 -2.55 -83.55 L-1.75 -80.95 -0.1 -76.75 Q2.4 -70.8 2.3 -64.05 L2.35 -63.1 M-20.7 -67.05 L-19.1 -69.45 Q-18.1 -72.2 -15.65 -73.9 L-15.05 -74.2 Q-12.25 -73.35 -13.7 -70.85 L-14.65 -69.15 -17.3 -64.55 Q-14.55 -61.4 -17.25 -58.3 -18.0 -57.4 -19.15 -57.2 -21.2 -56.85 -22.85 -57.85 -23.9 -58.55 -23.7 -59.8 -23.15 -63.75 -20.7 -67.05" fill="#666666" fill-rule="evenodd" stroke="none"/>
  </g>
</svg>
