<?xml version="1.0" encoding="UTF-8" standalone="no"?>
<svg xmlns:ffdec="https://www.free-decompiler.com/flash" xmlns:xlink="http://www.w3.org/1999/xlink" ffdec:objectType="shape" height="71.25px" width="47.1px" xmlns="http://www.w3.org/2000/svg">
  <g transform="matrix(1.0, 0.0, 0.0, 1.0, 26.15, 69.9)">
    <path d="M17.7 -66.3 Q21.5 -65.9 20.85 -62.1 20.3 -58.75 18.55 -55.8 L16.15 -52.6 Q15.7 -52.1 15.05 -52.35 12.8 -53.35 13.8 -55.75 L15.1 -58.35 16.4 -60.65 Q13.9 -63.75 17.15 -66.0 L17.7 -66.3 M4.5 -65.8 Q3.7 -64.3 3.35 -62.6 2.15 -56.4 1.8 -49.9 1.6 -46.35 1.8 -42.8 1.9 -40.35 1.4 -38.05 2.95 -37.05 2.9 -34.75 L3.0 -33.4 Q3.75 -29.25 4.0 -24.95 5.05 -21.45 5.0 -17.65 L5.1 -16.5 14.6 -4.7 Q16.6 -2.3 15.5 0.35 15.25 1.0 14.6 1.05 9.85 1.7 5.4 0.85 L4.9 0.4 Q3.95 -1.85 6.55 -2.25 L10.75 -2.8 Q7.1 -8.0 2.9 -12.7 1.65 -14.15 1.35 -15.95 L1.0 -18.4 Q0.7 -20.4 0.75 -22.45 -0.1 -24.8 -0.25 -27.45 L-0.4 -29.65 -3.3 -24.95 -6.4 -20.0 Q-7.65 -17.95 -6.4 -15.55 L-6.2 -14.9 Q-5.55 -12.35 -5.45 -9.7 -3.8 -5.1 -3.65 -0.25 L-3.9 0.5 Q-4.3 1.0 -4.9 1.05 L-12.85 1.25 Q-13.4 1.2 -13.6 0.65 -14.55 -1.7 -11.85 -2.3 L-7.8 -2.8 -10.45 -14.9 -10.8 -16.3 Q-11.95 -19.95 -9.55 -23.3 L-5.55 -29.3 -4.15 -31.55 -1.55 -35.55 -1.7 -36.15 -1.75 -37.1 -1.95 -38.0 Q-2.45 -45.5 -1.85 -52.8 L-1.4 -58.15 Q-1.0 -62.8 0.4 -67.2 1.1 -69.35 3.1 -69.9 6.1 -68.8 4.5 -65.8 M-20.9 -61.7 L-21.15 -60.9 Q-18.3 -58.05 -14.5 -56.4 -12.75 -55.65 -11.5 -54.4 -11.05 -53.95 -11.2 -53.25 -11.85 -50.75 -14.4 -51.9 -18.35 -53.6 -22.0 -55.95 -25.35 -58.15 -26.05 -61.75 -26.65 -64.8 -24.1 -65.55 -20.5 -65.3 -20.9 -61.7" fill="#666666" fill-rule="evenodd" stroke="none"/>
  </g>
</svg>
