<?xml version="1.0" encoding="UTF-8" standalone="no"?>
<svg xmlns:ffdec="https://www.free-decompiler.com/flash" xmlns:xlink="http://www.w3.org/1999/xlink" ffdec:objectType="shape" height="58.05px" width="53.9px" xmlns="http://www.w3.org/2000/svg">
  <g transform="matrix(1.0, 0.0, 0.0, 1.0, 25.3, 63.15)">
    <path d="M7.7 -58.45 Q8.55 -59.15 9.55 -59.4 12.45 -59.05 11.35 -56.3 L10.5 -55.25 Q4.5 -51.15 -0.95 -46.3 -2.4 -45.0 -3.45 -43.35 L-5.4 -40.35 -4.8 -38.9 Q-4.05 -34.85 -2.35 -31.15 L-2.2 -30.8 Q-0.9 -30.0 -0.2 -28.25 L0.85 -26.2 Q4.8 -20.05 9.4 -14.35 9.95 -13.7 9.7 -12.8 9.0 -10.25 7.9 -7.85 L7.15 -6.3 Q6.35 -4.4 4.55 -5.55 3.45 -6.3 3.65 -7.7 4.05 -10.45 5.6 -12.9 1.05 -18.6 -3.15 -24.55 L-3.85 -25.65 -4.05 -25.85 Q-5.15 -26.85 -5.6 -28.15 L-7.9 -34.45 -8.4 -36.45 -8.8 -37.0 -9.1 -36.65 -9.15 -37.25 -18.4 -34.3 -10.15 -24.65 -8.7 -23.2 Q-7.05 -21.85 -7.3 -19.9 -7.45 -18.6 -8.7 -18.0 -12.55 -16.0 -16.65 -15.0 -17.15 -14.9 -17.5 -15.35 -19.15 -17.7 -16.4 -18.95 -14.45 -19.85 -12.6 -20.8 -14.2 -23.5 -16.35 -25.9 L-20.05 -29.9 Q-21.9 -31.8 -23.25 -33.95 -23.55 -34.4 -23.45 -35.0 -23.05 -37.3 -20.45 -38.1 L-11.7 -40.4 Q-10.0 -40.75 -9.3 -42.1 L-9.4 -42.25 -9.15 -42.45 -9.15 -42.5 Q-8.8 -43.4 -8.15 -43.75 -4.9 -49.3 0.5 -53.05 4.2 -55.65 7.7 -58.45 M25.4 -38.35 L22.5 -38.4 Q18.25 -38.8 14.5 -40.4 13.85 -40.7 13.8 -41.45 13.65 -43.35 15.4 -43.75 19.15 -42.85 23.05 -42.45 L23.3 -42.45 Q25.35 -45.6 27.9 -43.05 L28.4 -42.2 Q29.45 -38.55 25.4 -38.35 M-23.35 -63.15 Q-19.2 -63.3 -19.5 -59.3 L-19.55 -59.1 Q-15.3 -57.5 -10.55 -57.8 -9.05 -57.9 -8.05 -56.8 -7.1 -55.7 -7.95 -54.5 -8.9 -53.2 -10.65 -53.35 L-19.5 -54.7 -21.4 -55.3 Q-24.1 -56.5 -25.05 -59.1 -26.05 -62.0 -23.35 -63.15" fill="#666666" fill-rule="evenodd" stroke="none"/>
  </g>
</svg>
