<?xml version="1.0" encoding="UTF-8" standalone="no"?>
<svg xmlns:ffdec="https://www.free-decompiler.com/flash" xmlns:xlink="http://www.w3.org/1999/xlink" ffdec:objectType="shape" height="55.15px" width="42.3px" xmlns="http://www.w3.org/2000/svg">
  <g transform="matrix(1.0, 0.0, 0.0, 1.0, 20.6, 84.8)">
    <path d="M19.4 -82.7 Q22.85 -81.3 21.15 -78.4 19.65 -75.95 16.95 -77.25 13.8 -73.05 11.95 -68.15 11.55 -66.95 10.3 -67.15 L10.25 -67.2 Q9.6 -66.7 8.85 -66.35 5.3 -64.6 1.35 -64.25 L-0.2 -64.1 9.55 -58.1 9.95 -57.8 Q14.6 -54.4 19.7 -52.05 20.65 -51.6 20.55 -50.5 20.35 -48.3 18.05 -48.7 L17.35 -48.9 7.5 -54.85 7.1 -55.1 Q0.65 -59.0 -5.65 -63.0 -6.85 -63.75 -6.6 -64.75 L-13.55 -70.5 -12.2 -66.2 Q-11.95 -65.5 -12.05 -64.7 -11.3 -63.35 -11.05 -61.7 L-11.05 -61.05 Q-10.0 -58.6 -10.15 -55.95 -10.2 -55.4 -10.7 -55.1 L-15.55 -54.95 -19.15 -55.9 Q-20.8 -56.2 -20.55 -57.75 -20.25 -60.1 -17.95 -59.65 L-14.75 -59.1 Q-15.8 -63.9 -17.2 -68.5 -18.7 -73.05 -19.5 -77.7 -19.7 -78.75 -18.8 -79.3 L-16.75 -79.4 -11.7 -74.4 Q-12.1 -74.9 -12.05 -75.65 L-11.0 -81.4 Q-10.65 -83.05 -9.5 -84.3 -8.95 -84.9 -8.1 -84.75 L-7.4 -84.55 Q-5.75 -82.45 -7.0 -79.7 L-7.65 -77.85 -7.85 -77.1 Q-3.5 -75.85 1.15 -74.9 5.5 -74.0 9.6 -72.25 9.9 -73.15 10.35 -74.05 12.3 -78.4 15.7 -81.75 17.3 -83.45 19.4 -82.7 M5.85 -69.55 L-10.8 -73.8 -11.4 -74.1 Q-8.75 -71.6 -5.95 -69.25 L-3.95 -67.3 Q-0.8 -68.35 2.55 -68.7 4.25 -68.9 5.85 -69.55 M8.3 -37.95 Q8.85 -36.5 9.8 -35.2 L12.45 -34.6 Q14.25 -34.05 14.0 -32.2 13.5 -29.1 10.7 -29.8 8.85 -30.3 7.7 -31.7 3.95 -36.2 1.8 -41.7 1.35 -42.85 1.9 -43.9 2.75 -45.65 4.45 -44.85 6.9 -41.8 8.3 -37.95" fill="#666666" fill-rule="evenodd" stroke="none"/>
  </g>
</svg>
