<?xml version="1.0" encoding="UTF-8" standalone="no"?>
<svg xmlns:ffdec="https://www.free-decompiler.com/flash" xmlns:xlink="http://www.w3.org/1999/xlink" ffdec:objectType="shape" height="58.9px" width="51.85px" xmlns="http://www.w3.org/2000/svg">
  <g transform="matrix(1.0, 0.0, 0.0, 1.0, 14.2, 99.4)">
    <path d="M4.2 -99.4 Q6.75 -98.5 6.3 -95.5 L6.1 -93.1 Q15.25 -93.3 23.95 -90.85 24.65 -90.65 24.7 -89.9 24.95 -87.4 22.2 -86.75 19.9 -86.25 17.75 -85.4 L10.3 -82.55 11.35 -81.3 16.4 -74.2 Q20.45 -78.1 24.05 -82.55 25.0 -83.7 26.35 -84.45 28.65 -85.7 30.65 -83.55 L34.3 -79.5 Q35.1 -78.6 34.5 -77.6 33.15 -75.3 31.1 -77.4 L29.5 -79.05 27.85 -80.5 17.8 -69.65 Q16.7 -68.45 15.25 -69.2 14.1 -69.8 13.5 -70.9 10.95 -75.35 7.55 -79.1 7.2 -77.3 7.3 -75.35 7.65 -70.05 8.7 -64.95 9.55 -63.2 9.95 -61.3 L10.05 -60.75 10.6 -59.95 10.75 -59.4 Q13.1 -56.55 14.65 -53.35 14.9 -52.8 14.55 -52.35 13.05 -50.2 11.2 -52.15 8.25 -55.3 6.4 -59.05 6.15 -59.6 6.2 -60.2 3.7 -66.8 3.4 -74.05 3.2 -78.4 3.85 -82.55 4.1 -84.15 5.35 -84.6 L5.7 -84.8 Q6.4 -85.3 7.25 -85.6 11.45 -87.05 14.85 -88.75 L3.9 -89.55 Q2.5 -89.65 2.3 -90.95 2.0 -92.7 2.15 -94.4 L2.45 -97.85 Q2.6 -99.05 3.8 -99.3 L4.2 -99.4 M19.35 -65.85 Q17.25 -67.25 19.05 -69.05 19.75 -69.75 20.7 -70.2 26.05 -72.75 31.7 -74.0 36.05 -74.45 37.5 -70.8 L37.65 -69.9 Q37.45 -67.05 34.35 -67.8 32.55 -68.2 32.55 -70.05 26.05 -68.5 20.0 -65.75 L19.35 -65.85 M-3.0 -54.75 Q0.15 -54.15 -1.55 -51.6 -2.0 -50.9 -2.7 -50.35 L-8.9 -45.35 Q-7.9 -42.05 -10.7 -40.7 L-11.85 -40.55 Q-14.7 -41.15 -14.1 -44.05 -13.5 -47.25 -10.6 -49.2 -9.6 -49.9 -8.7 -50.75 -6.05 -53.3 -3.0 -54.75" fill="#666666" fill-rule="evenodd" stroke="none"/>
  </g>
</svg>
