<?xml version="1.0" encoding="UTF-8" standalone="no"?>
<svg xmlns:ffdec="https://www.free-decompiler.com/flash" xmlns:xlink="http://www.w3.org/1999/xlink" ffdec:objectType="shape" height="59.85px" width="53.4px" xmlns="http://www.w3.org/2000/svg">
  <g transform="matrix(1.0, 0.0, 0.0, 1.0, 2.15, 57.1)">
    <path d="M45.15 -51.3 Q40.55 -53.45 35.45 -53.65 35.0 -53.65 34.8 -54.05 33.55 -56.45 36.25 -57.1 43.95 -57.45 49.9 -52.9 52.1 -51.25 50.7 -48.9 50.25 -48.15 49.45 -47.9 47.25 -47.3 45.8 -48.6 44.75 -49.5 45.1 -50.95 L45.15 -51.3 M22.35 -52.45 L24.55 -49.3 Q25.75 -47.85 26.4 -46.2 L31.1 -39.1 31.45 -38.1 32.25 -36.95 32.45 -36.2 Q33.65 -34.5 34.3 -32.55 L34.5 -31.55 35.2 -30.6 35.3 -29.85 Q36.3 -28.6 36.4 -27.4 L36.4 -27.25 36.4 -27.15 36.15 -25.9 35.5 -24.95 35.25 -24.7 34.8 -24.15 33.3 -22.2 28.1 -15.5 27.7 -14.85 27.65 -14.75 28.7 -13.35 28.8 -13.15 32.4 -9.0 Q35.6 -4.5 39.75 -0.9 40.3 -0.45 40.2 0.3 L40.1 0.9 Q40.1 2.1 38.6 2.55 L36.95 2.75 29.75 2.15 Q28.5 2.05 28.35 0.85 28.1 -1.15 30.1 -1.45 L33.65 -1.35 Q30.35 -4.55 27.6 -8.25 25.95 -10.5 24.55 -12.9 24.15 -13.6 24.6 -14.3 L24.65 -14.35 24.45 -14.55 Q23.95 -15.15 24.0 -16.0 24.1 -18.6 26.4 -20.2 L27.1 -20.95 Q27.5 -21.65 28.25 -21.95 L29.55 -24.05 18.3 -22.45 17.8 -22.35 19.7 -14.85 20.95 -6.75 Q21.2 -4.0 18.4 -4.5 L10.6 -5.5 Q8.35 -5.65 8.9 -7.75 9.2 -9.0 10.6 -9.05 L16.8 -8.75 15.85 -13.15 Q15.35 -14.85 15.3 -16.65 L15.15 -16.8 Q14.65 -17.4 14.75 -18.15 L14.75 -18.75 Q13.2 -21.65 13.65 -24.7 13.7 -25.3 14.35 -25.45 L28.4 -28.1 31.4 -28.65 30.85 -30.1 30.65 -31.05 28.85 -34.35 28.55 -35.3 Q25.1 -41.2 21.1 -46.8 L17.55 -51.55 Q16.05 -53.45 17.55 -55.2 18.05 -55.8 18.75 -55.8 20.95 -54.75 22.35 -52.45 M12.15 -37.35 Q15.15 -37.35 14.35 -34.7 14.05 -33.6 12.9 -33.25 6.25 -31.15 -0.65 -30.95 -1.5 -30.9 -1.8 -31.7 -2.45 -33.1 -1.95 -34.65 -1.65 -35.95 -0.25 -36.2 1.65 -36.5 3.15 -35.7 L3.7 -35.3 Q8.1 -35.7 12.15 -37.35" fill="#666666" fill-rule="evenodd" stroke="none"/>
  </g>
</svg>
