<?xml version="1.0" encoding="UTF-8" standalone="no"?>
<svg xmlns:ffdec="https://www.free-decompiler.com/flash" xmlns:xlink="http://www.w3.org/1999/xlink" ffdec:objectType="shape" height="22.7px" width="43.15px" xmlns="http://www.w3.org/2000/svg">
  <g transform="matrix(1.0, 0.0, 0.0, 1.0, 1.45, 49.35)">
    <path d="M37.4 -31.65 L35.55 -37.3 Q35.4 -37.75 35.65 -38.15 36.3 -39.05 37.3 -39.1 39.75 -38.85 40.4 -36.25 L41.6 -31.05 Q42.2 -28.0 39.85 -26.85 L38.55 -26.7 Q35.2 -27.35 36.2 -30.5 36.5 -31.4 37.4 -31.65 M1.6 -40.15 Q-2.7 -43.5 -0.95 -48.35 -0.7 -49.15 0.15 -49.3 L0.55 -49.35 Q4.2 -49.55 3.95 -46.25 3.85 -45.25 3.1 -44.7 5.5 -41.55 9.35 -40.0 11.2 -39.2 11.95 -37.55 12.35 -36.65 11.6 -36.0 10.15 -34.6 8.35 -35.65 4.8 -37.7 1.6 -40.15" fill="#666666" fill-rule="evenodd" stroke="none"/>
  </g>
</svg>
