<?xml version="1.0" encoding="UTF-8" standalone="no"?>
<svg xmlns:ffdec="https://www.free-decompiler.com/flash" xmlns:xlink="http://www.w3.org/1999/xlink" ffdec:objectType="shape" height="19.0px" width="222.6px" xmlns="http://www.w3.org/2000/svg">
  <g transform="matrix(1.0, 0.0, 0.0, 1.0, 86.1, 4.35)">
    <path d="M23.5 2.25 L23.5 -2.35 38.25 -2.35 38.25 2.25 38.25 2.45 23.5 2.45 23.5 2.25" fill="url(#gradient0)" fill-rule="evenodd" stroke="none"/>
    <path d="M81.25 1.8 L81.25 1.75 101.05 -0.4 111.0 -0.4 111.15 -0.25 87.75 2.25 86.75 2.35 81.4 2.35 81.4 1.8 81.25 1.8" fill="url(#gradient1)" fill-rule="evenodd" stroke="none"/>
    <path d="M23.5 2.25 L23.5 2.45 38.25 2.45 38.25 2.25 57.95 2.25 57.95 3.45 57.95 3.6 57.95 4.45 57.95 4.6 67.75 4.6 67.75 4.45 67.75 3.6 75.2 3.6 67.75 3.6 67.75 3.45 67.75 2.25 75.2 2.25 75.2 3.1 75.2 3.2 75.2 3.6 75.2 3.65 81.05 3.65 81.05 3.6 81.05 3.2 81.05 3.1 81.4 3.1 81.4 2.35 86.75 2.35 87.75 2.25 136.5 2.25 136.5 7.85 89.3 7.85 89.3 7.15 57.45 7.15 89.3 7.15 89.3 7.85 45.8 7.85 45.8 6.35 45.8 5.95 45.8 4.5 45.8 4.1 43.7 4.1 43.7 3.6 53.35 3.6 43.7 3.6 43.7 4.1 35.8 4.1 35.8 4.5 35.8 5.95 35.8 6.35 35.8 7.85 2.7 7.85 -11.75 7.85 -12.4 7.7 -17.8 7.7 -17.8 7.85 -18.6 7.85 -19.2 7.85 -19.2 7.75 -26.45 7.75 -26.45 7.85 -86.1 7.85 -86.1 2.25 0.75 2.25 0.75 3.0 0.75 3.05 19.3 3.05 19.3 3.0 19.3 2.25 22.85 2.25 22.85 4.5 22.85 2.25 23.5 2.25 M123.25 3.6 L81.05 3.6 123.25 3.6 M53.35 3.6 L57.95 3.6 53.35 3.6 M53.35 5.95 L45.8 5.95 53.35 5.95 80.1 5.95 53.35 5.95 M104.05 7.15 L89.3 7.15 89.3 5.3 89.3 7.15 104.05 7.15 M32.05 3.3 L32.05 5.95 24.3 5.95 32.05 5.95 32.05 3.3 M2.7 6.9 L2.7 7.85 2.7 6.9 M32.05 5.95 L35.8 5.95 32.05 5.95 M26.65 3.05 L32.05 3.05 26.65 3.05 M31.85 6.75 L24.3 6.75 31.85 6.75 M24.3 6.75 L3.4 6.75 24.3 6.75 M24.3 5.95 L-18.6 5.95 -18.6 7.85 -18.6 5.95 24.3 5.95 M-61.65 5.3 L-26.45 5.3 -61.65 5.3 M-29.5 4.65 L-19.95 4.65 -29.5 4.65 M-19.95 4.65 L22.2 4.65 -19.95 4.65" fill="url(#gradient2)" fill-rule="evenodd" stroke="none"/>
    <path d="M75.55 3.1 L75.55 1.8 81.25 1.8 81.4 1.8 81.4 2.35 81.4 3.1 81.05 3.1 75.55 3.1" fill="url(#gradient3)" fill-rule="evenodd" stroke="none"/>
    <path d="M75.2 3.1 L75.55 3.1 81.05 3.1 81.05 3.2 75.2 3.2 75.2 3.1" fill="url(#gradient4)" fill-rule="evenodd" stroke="none"/>
    <path d="M57.95 2.25 L57.95 2.15 67.75 2.15 67.75 2.25 67.75 3.45 67.75 3.6 67.75 4.45 57.95 4.45 57.95 3.6 57.95 3.45 57.95 2.25 M67.75 3.45 L57.95 3.45 67.75 3.45" fill="url(#gradient5)" fill-rule="evenodd" stroke="none"/>
    <path d="M45.8 8.15 L68.75 8.15 68.75 8.95 45.8 8.95 45.8 8.55 45.8 8.25 45.8 8.15 M35.8 8.95 L3.2 8.95 3.2 8.65 3.2 8.15 35.8 8.15 35.8 8.25 35.8 8.55 35.8 8.95" fill="url(#gradient6)" fill-rule="evenodd" stroke="none"/>
    <path d="M45.8 4.5 L45.8 5.95 45.8 6.35 45.8 7.85 45.8 8.15 45.8 8.25 35.8 8.25 35.8 8.15 35.8 7.85 35.8 6.35 35.8 5.95 35.8 4.5 43.7 4.5 45.8 4.5 M43.7 5.05 L43.7 4.5 43.7 5.05 M45.8 6.35 L35.8 6.35 45.8 6.35" fill="url(#gradient7)" fill-rule="evenodd" stroke="none"/>
    <path d="M45.8 8.55 L45.8 8.95 45.8 9.35 35.8 9.35 35.8 8.95 35.8 8.55 45.8 8.55" fill="url(#gradient8)" fill-rule="evenodd" stroke="none"/>
    <path d="M0.75 2.25 L0.75 2.2 19.3 2.2 19.3 2.25 19.3 3.0 0.75 3.0 0.75 2.25" fill="url(#gradient9)" fill-rule="evenodd" stroke="none"/>
    <path d="M-11.75 7.85 L12.0 12.8 9.55 14.65 -17.8 8.9 -17.8 7.85 -17.8 7.7 -12.4 7.7 -11.75 7.85" fill="url(#gradient10)" fill-rule="evenodd" stroke="none"/>
    <path d="M-19.2 10.75 L-19.2 10.85 -26.45 10.85 -26.45 7.85 -26.45 7.75 -19.2 7.75 -19.2 7.85 -19.2 10.75" fill="url(#gradient11)" fill-rule="evenodd" stroke="none"/>
    <path d="M75.2 3.1 L75.55 3.1 81.05 3.1 M89.3 7.85 L89.3 8.75 M81.05 3.6 L123.25 3.6 M75.2 3.6 L67.75 3.6 M57.95 3.6 L53.35 3.6 M53.35 5.95 L80.1 5.95 M89.3 7.85 L89.3 7.15 57.45 7.15 M89.3 5.3 L89.3 7.15 104.05 7.15 M57.95 3.45 L67.75 3.45" fill="none" stroke="#003300" stroke-linecap="round" stroke-linejoin="round" stroke-width="4.0"/>
    <path d="M3.2 8.65 L2.7 7.85 2.7 6.9 M-18.6 7.85 L-19.2 10.75 M22.85 2.25 L23.5 -2.35 M22.85 2.25 L22.85 4.5 M3.4 6.75 L24.3 6.75 M-18.6 7.85 L-18.6 5.95 24.3 5.95 M22.2 4.65 L-19.95 4.65" fill="none" stroke="#009900" stroke-linecap="round" stroke-linejoin="round" stroke-width="4.0"/>
    <path d="M-19.95 4.65 L-29.5 4.65 M-26.45 5.3 L-61.65 5.3" fill="none" stroke="#00cc00" stroke-linecap="round" stroke-linejoin="round" stroke-width="4.0"/>
    <path d="M53.35 3.6 L43.7 3.6 43.7 4.1 M45.8 5.95 L53.35 5.95 M43.7 4.5 L43.7 5.05 M35.8 6.35 L45.8 6.35 M24.3 5.95 L32.05 5.95 32.05 3.3 M35.8 5.95 L32.05 5.95 M24.3 6.75 L31.85 6.75 M32.05 3.05 L26.65 3.05" fill="none" stroke="#006600" stroke-linecap="round" stroke-linejoin="round" stroke-width="4.0"/>
  </g>
  <defs>
    <linearGradient gradientTransform="matrix(-0.0066, 0.0016, 0.006, 0.0036, 30.85, 0.1)" gradientUnits="userSpaceOnUse" id="gradient0" spreadMethod="pad" x1="-819.2" x2="819.2">
      <stop offset="0.4745098039215686" stop-color="#000000"/>
      <stop offset="1.0" stop-color="#006600"/>
    </linearGradient>
    <radialGradient cx="0" cy="0" gradientTransform="matrix(-0.0349, 0.0038, -0.0188, -0.007, 81.75, 2.45)" gradientUnits="userSpaceOnUse" id="gradient1" r="819.2" spreadMethod="pad">
      <stop offset="0.32941176470588235" stop-color="#006600"/>
      <stop offset="1.0" stop-color="#000000"/>
    </radialGradient>
    <radialGradient cx="0" cy="0" gradientTransform="matrix(-0.3318, 0.0, 0.0, 0.1286, -104.65, 2.25)" gradientUnits="userSpaceOnUse" id="gradient2" r="819.2" spreadMethod="pad">
      <stop offset="0.0" stop-color="#00cc00"/>
      <stop offset="0.6196078431372549" stop-color="#006600"/>
      <stop offset="0.8862745098039215" stop-color="#000000"/>
    </radialGradient>
    <radialGradient cx="0" cy="0" gradientTransform="matrix(-0.3318, 0.0, 0.0, 0.1286, -104.3, 1.75)" gradientUnits="userSpaceOnUse" id="gradient3" r="819.2" spreadMethod="pad">
      <stop offset="0.0" stop-color="#00cc00"/>
      <stop offset="0.6196078431372549" stop-color="#006600"/>
      <stop offset="0.8862745098039215" stop-color="#000000"/>
    </radialGradient>
    <radialGradient cx="0" cy="0" gradientTransform="matrix(-0.3318, 0.0, 0.0, 0.1286, -104.65, 1.75)" gradientUnits="userSpaceOnUse" id="gradient4" r="819.2" spreadMethod="pad">
      <stop offset="0.0" stop-color="#00cc00"/>
      <stop offset="0.6196078431372549" stop-color="#006600"/>
      <stop offset="0.8862745098039215" stop-color="#000000"/>
    </radialGradient>
    <radialGradient cx="0" cy="0" gradientTransform="matrix(-0.3318, 0.0, 0.0, 0.1286, -104.65, 2.1)" gradientUnits="userSpaceOnUse" id="gradient5" r="819.2" spreadMethod="pad">
      <stop offset="0.0" stop-color="#00cc00"/>
      <stop offset="0.6196078431372549" stop-color="#006600"/>
      <stop offset="0.8862745098039215" stop-color="#000000"/>
    </radialGradient>
    <linearGradient gradientTransform="matrix(-0.0299, 2.0E-4, 0.0, 7.0E-4, 30.7, 8.55)" gradientUnits="userSpaceOnUse" id="gradient6" spreadMethod="pad" x1="-819.2" x2="819.2">
      <stop offset="0.4745098039215686" stop-color="#000000"/>
      <stop offset="1.0" stop-color="#006600"/>
    </linearGradient>
    <radialGradient cx="0" cy="0" gradientTransform="matrix(-0.3318, 0.0, 0.0, 0.1286, -104.65, 2.65)" gradientUnits="userSpaceOnUse" id="gradient7" r="819.2" spreadMethod="pad">
      <stop offset="0.0" stop-color="#00cc00"/>
      <stop offset="0.6196078431372549" stop-color="#006600"/>
      <stop offset="0.8862745098039215" stop-color="#000000"/>
    </radialGradient>
    <linearGradient gradientTransform="matrix(-0.0299, 2.0E-4, 0.0, 7.0E-4, 30.7, 9.0)" gradientUnits="userSpaceOnUse" id="gradient8" spreadMethod="pad" x1="-819.2" x2="819.2">
      <stop offset="0.4745098039215686" stop-color="#000000"/>
      <stop offset="1.0" stop-color="#006600"/>
    </linearGradient>
    <radialGradient cx="0" cy="0" gradientTransform="matrix(-0.3318, 0.0, 0.0, 0.1286, -104.65, 2.2)" gradientUnits="userSpaceOnUse" id="gradient9" r="819.2" spreadMethod="pad">
      <stop offset="0.0" stop-color="#00cc00"/>
      <stop offset="0.6196078431372549" stop-color="#006600"/>
      <stop offset="0.8862745098039215" stop-color="#000000"/>
    </radialGradient>
    <radialGradient cx="0" cy="0" gradientTransform="matrix(-0.0349, -0.0073, -0.0188, 0.0135, -17.3, 7.6)" gradientUnits="userSpaceOnUse" id="gradient10" r="819.2" spreadMethod="pad">
      <stop offset="0.32941176470588235" stop-color="#006600"/>
      <stop offset="1.0" stop-color="#000000"/>
    </radialGradient>
    <radialGradient cx="0" cy="0" gradientTransform="matrix(-0.0157, 0.0, 0.0, 0.0061, -17.6, 7.2)" gradientUnits="userSpaceOnUse" id="gradient11" r="819.2" spreadMethod="pad">
      <stop offset="0.32941176470588235" stop-color="#006600"/>
      <stop offset="1.0" stop-color="#000000"/>
    </radialGradient>
  </defs>
</svg>
