<?xml version="1.0" encoding="UTF-8" standalone="no"?>
<svg xmlns:ffdec="https://www.free-decompiler.com/flash" xmlns:xlink="http://www.w3.org/1999/xlink" ffdec:objectType="shape" height="54.15px" width="28.45px" xmlns="http://www.w3.org/2000/svg">
  <g transform="matrix(1.0, 0.0, 0.0, 1.0, -11.9, 51.15)">
    <path d="M21.65 -51.15 Q24.1 -50.15 25.15 -47.6 L26.6 -43.65 Q28.35 -40.95 29.5 -37.9 L29.7 -36.9 34.45 -24.45 Q34.95 -23.2 34.8 -21.95 34.6 -20.5 33.1 -20.1 29.85 -19.2 26.9 -17.45 L24.1 -15.5 23.0 -14.75 22.15 -14.15 Q30.7 -8.55 38.35 -1.8 L39.35 -0.85 Q41.65 1.4 38.6 2.75 L37.15 3.0 30.05 2.05 Q29.25 1.9 29.05 1.1 28.6 -0.75 30.45 -1.2 L32.5 -1.5 21.15 -10.1 21.85 -7.3 22.9 -3.25 23.0 -2.65 Q24.05 -0.95 23.0 -0.1 23.3 2.25 20.7 1.95 L15.85 1.7 13.2 1.3 Q12.05 0.95 12.05 -0.25 12.05 -2.2 13.95 -2.4 L19.05 -2.1 18.95 -2.4 Q17.7 -6.65 16.85 -10.9 L16.45 -11.7 16.3 -12.25 12.6 -18.55 Q11.4 -20.55 12.3 -22.5 12.7 -23.4 13.7 -23.55 L24.0 -25.05 27.55 -25.4 29.6 -25.5 25.7 -36.1 22.8 -43.15 20.05 -48.4 Q19.55 -49.15 19.95 -49.95 20.5 -51.1 21.65 -51.15 M19.35 -17.05 Q22.5 -19.4 25.9 -21.3 21.2 -20.95 16.65 -19.8 L18.65 -16.5 19.35 -17.05" fill="#666666" fill-rule="evenodd" stroke="none"/>
  </g>
</svg>
