<?xml version="1.0" encoding="UTF-8" standalone="no"?>
<svg xmlns:ffdec="https://www.free-decompiler.com/flash" xmlns:xlink="http://www.w3.org/1999/xlink" ffdec:objectType="shape" height="83.95px" width="50.35px" xmlns="http://www.w3.org/2000/svg">
  <g transform="matrix(1.0, 0.0, 0.0, 1.0, -26.75, 76.75)">
    <path d="M54.9 -76.75 Q57.35 -76.0 58.3 -73.85 59.75 -73.0 59.9 -71.0 L60.1 -69.85 Q61.3 -63.6 61.5 -57.1 L61.7 -55.5 61.85 -54.8 68.7 -56.25 Q71.95 -56.7 71.95 -53.75 71.95 -52.7 70.85 -52.3 L68.0 -51.55 62.55 -50.25 63.3 -42.8 63.15 -37.8 63.25 -37.8 63.25 -36.8 Q65.1 -35.45 65.1 -32.6 64.95 -28.35 65.85 -24.15 66.45 -21.2 66.0 -18.3 67.5 -16.85 68.4 -14.6 L70.55 -9.7 70.8 -9.0 Q74.2 -3.2 76.85 2.8 L77.1 3.95 76.85 5.6 Q76.45 7.4 73.85 7.15 69.65 6.75 65.85 5.6 65.15 5.35 65.1 4.6 64.95 2.25 67.2 2.05 L72.0 2.2 70.8 -0.15 Q67.8 -4.3 65.8 -8.85 L64.95 -10.6 Q63.75 -12.8 62.85 -15.05 L62.5 -16.0 Q61.65 -16.65 61.65 -18.3 61.6 -23.95 60.65 -29.45 L60.5 -30.4 57.4 -26.65 Q54.25 -23.2 51.95 -19.2 52.35 -18.2 52.4 -16.8 L52.5 -11.45 Q52.75 -6.55 54.45 -1.95 55.4 0.7 55.25 3.25 L55.45 3.65 Q55.7 5.25 54.7 5.85 L54.0 6.2 53.1 6.2 45.75 6.55 43.6 6.25 Q40.05 5.25 42.5 2.65 43.15 1.95 44.3 1.8 L45.35 1.65 50.5 1.9 49.35 -4.7 Q48.35 -8.7 47.85 -12.8 L47.25 -17.55 Q47.0 -19.0 47.45 -19.95 L47.9 -20.9 50.2 -24.5 55.75 -32.1 58.15 -35.55 58.3 -35.85 58.35 -36.5 58.45 -37.8 58.95 -37.8 58.85 -39.0 58.1 -49.15 53.75 -49.05 Q50.3 -49.6 51.05 -53.05 51.4 -54.55 52.85 -55.05 55.65 -56.1 57.4 -53.7 L57.45 -53.75 57.15 -56.75 56.5 -62.8 55.9 -62.8 Q54.9 -67.95 53.4 -72.9 51.7 -75.05 54.1 -76.4 L54.9 -76.75 M46.9 -54.35 Q47.35 -53.65 47.05 -52.9 45.95 -50.45 43.7 -51.95 37.1 -56.25 29.8 -59.45 26.4 -60.95 26.8 -64.35 26.9 -65.3 27.65 -65.85 28.55 -66.6 29.6 -66.7 33.55 -66.6 33.45 -62.8 L33.45 -62.7 Q34.55 -61.65 36.15 -61.0 40.0 -59.35 43.65 -57.35 45.7 -56.25 46.9 -54.35" fill="#666666" fill-rule="evenodd" stroke="none"/>
  </g>
</svg>
