<?xml version="1.0" encoding="UTF-8" standalone="no"?>
<svg xmlns:ffdec="https://www.free-decompiler.com/flash" xmlns:xlink="http://www.w3.org/1999/xlink" ffdec:objectType="shape" height="75.05px" width="47.85px" xmlns="http://www.w3.org/2000/svg">
  <g transform="matrix(1.0, 0.0, 0.0, 1.0, -27.2, 68.4)">
    <path d="M60.4 -64.6 L60.4 -64.1 Q61.65 -59.3 62.15 -54.3 L57.75 -53.3 Q57.3 -57.45 56.25 -61.4 55.35 -64.65 56.5 -67.55 56.7 -68.1 57.25 -68.2 L58.05 -68.4 Q60.75 -67.65 60.4 -64.6 M46.35 -55.9 Q46.4 -55.0 45.6 -54.6 L42.0 -54.75 40.25 -55.15 30.25 -55.25 Q27.0 -55.4 27.2 -58.4 27.3 -59.95 28.8 -60.65 L30.05 -61.0 Q31.9 -61.15 33.3 -59.95 L33.4 -59.8 42.6 -59.4 Q46.15 -59.05 46.35 -55.9 M60.4 -52.65 L62.25 -53.05 62.35 -51.6 62.4 -49.95 62.55 -45.5 62.8 -46.3 Q63.2 -47.3 64.2 -47.7 L66.55 -47.9 Q67.7 -51.1 68.2 -54.4 70.2 -55.2 71.85 -56.55 72.85 -55.45 72.55 -53.4 L72.05 -50.5 Q71.2 -45.45 67.85 -41.65 67.45 -41.25 66.85 -41.1 63.4 -40.55 62.6 -43.6 L62.8 -37.1 62.8 -36.85 Q63.7 -35.9 63.85 -34.25 64.0 -32.65 64.6 -31.05 66.9 -25.15 67.8 -18.9 68.25 -15.8 68.3 -12.6 L68.3 -11.75 Q68.5 -5.3 69.8 0.95 L69.9 1.55 73.35 1.75 Q74.75 1.85 75.0 3.2 75.35 5.45 73.05 5.6 L68.95 5.7 68.35 5.85 66.65 5.65 66.2 5.65 Q64.75 5.55 64.55 4.15 64.3 2.6 65.25 1.95 L65.0 0.45 Q64.25 -4.2 64.05 -8.95 L63.9 -12.9 Q63.8 -16.1 63.3 -19.2 L61.85 -25.45 60.3 -29.95 59.3 -32.6 Q56.15 -27.55 54.35 -21.8 52.45 -15.7 52.45 -9.25 52.4 -3.35 53.05 2.45 L53.15 3.15 Q53.75 5.5 51.35 5.95 L48.45 6.5 43.25 6.3 Q40.9 5.75 41.65 3.55 42.0 2.35 43.25 2.35 L47.55 2.0 48.3 1.85 48.2 -8.95 Q48.05 -13.6 48.85 -18.05 50.1 -24.65 52.9 -30.8 54.6 -34.45 57.35 -37.3 L58.1 -37.75 Q58.3 -43.35 58.1 -48.9 L57.9 -52.05 60.4 -52.65 M70.2 -57.55 L70.9 -57.3 Q70.3 -56.8 69.55 -56.55 L68.45 -56.15 68.5 -56.45 68.75 -56.95 Q69.4 -57.5 70.2 -57.55" fill="#666666" fill-rule="evenodd" stroke="none"/>
  </g>
</svg>
