<?xml version="1.0" encoding="UTF-8" standalone="no"?>
<svg xmlns:ffdec="https://www.free-decompiler.com/flash" xmlns:xlink="http://www.w3.org/1999/xlink" ffdec:objectType="shape" height="80.8px" width="50.7px" xmlns="http://www.w3.org/2000/svg">
  <g transform="matrix(1.0, 0.0, 0.0, 1.0, -27.05, 74.5)">
    <path d="M73.5 -52.3 L73.75 -52.35 74.25 -52.45 74.3 -52.45 Q76.95 -51.6 77.25 -48.5 77.4 -46.75 76.8 -45.25 76.3 -43.95 75.05 -44.75 73.3 -45.85 73.05 -48.0 L72.7 -50.85 Q72.6 -51.8 73.5 -52.3 M61.65 -35.1 Q64.35 -33.35 64.85 -29.8 65.2 -27.15 63.15 -27.7 62.5 -26.4 60.85 -27.85 60.2 -28.45 60.0 -29.3 59.5 -31.25 60.0 -33.1 L60.05 -34.05 61.15 -35.0 61.65 -35.1 M52.75 -28.8 L53.0 -28.85 53.5 -28.95 Q56.25 -27.55 54.7 -24.3 53.95 -22.8 52.5 -22.2 50.7 -21.45 50.35 -23.3 50.15 -24.35 50.5 -25.4 51.05 -27.05 52.25 -28.35 L52.75 -28.8" fill="#666666" fill-rule="evenodd" stroke="none"/>
    <path d="M53.5 -62.8 L48.3 -62.8 48.2 -63.05 Q47.55 -64.1 47.8 -65.3 48.05 -67.0 49.75 -67.1 53.9 -67.2 53.4 -63.25 L53.4 -62.95 53.5 -62.8 M57.15 -71.5 Q56.65 -74.05 59.1 -74.5 61.8 -73.5 62.05 -70.35 L62.25 -68.75 Q63.25 -62.35 62.75 -55.85 62.25 -49.5 60.8 -43.35 L60.75 -43.15 Q62.1 -42.15 62.4 -40.1 L62.75 -38.45 64.25 -32.25 64.3 -31.95 60.15 -31.75 59.7 -31.7 58.85 -35.25 Q57.35 -32.45 56.4 -29.35 L55.45 -26.8 54.55 -26.9 Q52.0 -27.2 50.4 -26.1 L51.3 -28.55 51.95 -29.8 Q53.1 -34.2 55.35 -38.05 55.25 -39.9 55.75 -41.7 57.3 -47.9 58.05 -54.2 58.85 -60.6 57.95 -66.85 L57.15 -71.5 M41.55 -55.4 L39.35 -54.2 Q36.0 -52.4 32.7 -50.4 32.75 -46.55 28.8 -47.45 27.45 -47.75 27.15 -49.15 26.45 -52.6 29.85 -54.15 32.9 -55.6 35.8 -57.35 L41.1 -60.15 Q44.1 -59.75 43.1 -57.1 42.65 -55.95 41.55 -55.4 M69.85 -55.4 Q70.25 -57.0 71.95 -57.1 74.55 -56.2 75.7 -53.4 L76.15 -51.9 76.55 -51.0 Q75.95 -50.05 75.85 -48.9 76.5 -48.2 77.5 -47.85 78.1 -44.7 77.35 -41.35 77.15 -40.75 76.65 -40.55 72.95 -39.45 71.85 -42.9 L71.7 -43.8 Q71.55 -45.7 73.3 -46.4 72.0 -50.75 69.9 -54.65 69.7 -55.0 69.85 -55.4 M48.9 -22.05 L49.05 -22.45 49.35 -22.65 49.5 -22.8 Q49.55 -23.75 50.25 -24.35 L50.95 -24.7 54.95 -25.35 52.05 -17.4 Q49.75 -11.4 48.85 -5.05 L47.45 2.5 47.85 3.45 Q48.25 5.65 45.85 5.9 L41.05 6.3 39.25 6.05 Q37.1 5.25 38.05 3.2 38.5 2.0 39.85 1.85 L40.45 1.75 43.25 1.8 Q44.1 -4.3 45.3 -10.45 45.9 -13.55 46.95 -16.65 L47.95 -19.55 48.1 -19.55 48.2 -19.75 48.3 -20.1 48.35 -20.35 48.7 -20.7 48.8 -20.9 48.9 -22.05 M60.0 -30.4 L64.55 -30.6 66.0 -22.15 67.85 -9.45 68.5 -1.0 Q71.25 -1.9 73.05 0.05 73.5 0.55 73.35 1.2 72.85 3.6 70.15 3.45 L68.55 3.7 Q65.9 4.65 64.35 2.75 63.75 2.0 63.8 1.1 63.8 0.15 64.05 -0.75 64.05 -6.55 63.15 -12.15 L62.75 -14.9 60.6 -27.4 60.0 -30.4" fill="#666666" fill-rule="evenodd" stroke="none"/>
  </g>
</svg>
