<?xml version="1.0" encoding="UTF-8" standalone="no"?>
<svg xmlns:ffdec="https://www.free-decompiler.com/flash" xmlns:xlink="http://www.w3.org/1999/xlink" ffdec:objectType="shape" height="49.2px" width="10.55px" xmlns="http://www.w3.org/2000/svg">
  <g transform="matrix(1.0, 0.0, 0.0, 1.0, -49.35, 73.6)">
    <path d="M56.2 -69.05 Q56.05 -68.0 55.45 -67.15 53.95 -65.1 52.85 -67.45 52.4 -68.45 52.25 -69.55 52.0 -71.9 53.4 -73.45 L54.15 -73.55 54.2 -73.6 Q56.65 -72.3 56.2 -69.05 M52.8 -44.4 L52.8 -44.1 55.1 -38.25 55.2 -37.5 Q56.25 -36.35 56.75 -34.9 L56.9 -34.4 Q58.55 -31.2 59.35 -27.7 L59.4 -27.35 Q60.95 -25.05 57.9 -24.45 56.9 -24.25 56.45 -25.15 55.15 -28.1 53.4 -30.9 51.95 -33.2 52.2 -35.7 51.0 -38.25 50.2 -41.0 L50.1 -41.5 49.9 -41.75 49.5 -42.25 Q49.35 -43.25 49.35 -44.3 L49.5 -45.3 Q49.9 -46.0 50.6 -46.2 L51.1 -46.35 Q52.85 -46.05 52.8 -44.4" fill="#666666" fill-rule="evenodd" stroke="none"/>
  </g>
</svg>
