<?xml version="1.0" encoding="UTF-8" standalone="no"?>
<svg xmlns:ffdec="https://www.free-decompiler.com/flash" xmlns:xlink="http://www.w3.org/1999/xlink" ffdec:objectType="shape" height="83.95px" width="48.05px" xmlns="http://www.w3.org/2000/svg">
  <g transform="matrix(1.0, 0.0, 0.0, 1.0, -33.25, 84.05)">
    <path d="M59.95 -79.6 Q57.45 -75.35 56.4 -70.5 L52.05 -72.05 Q53.25 -77.45 56.25 -82.2 56.7 -83.05 57.4 -83.55 58.0 -84.05 58.7 -84.05 61.65 -83.65 60.7 -80.9 L59.95 -79.6 M51.8 -70.9 L56.1 -69.2 56.0 -68.65 54.75 -60.85 54.45 -58.9 54.15 -58.25 52.8 -47.3 Q52.65 -46.0 52.1 -44.85 L52.25 -44.6 51.5 -43.95 51.15 -43.7 50.85 -43.4 50.85 -43.05 50.85 -42.85 50.9 -42.65 Q51.3 -42.3 51.85 -42.2 L53.7 -41.55 55.3 -38.2 54.15 -37.05 Q53.35 -36.05 53.1 -34.8 L52.2 -33.7 51.5 -35.5 50.5 -37.8 50.25 -36.8 Q48.95 -30.55 48.15 -24.25 47.7 -20.7 45.45 -17.8 L44.6 -16.35 40.75 -8.0 39.15 -4.75 39.1 -4.7 44.65 -4.2 45.45 -3.65 Q46.7 -1.45 44.35 -0.4 L43.75 -0.25 35.6 -0.75 35.45 -0.75 Q32.65 -1.05 33.45 -3.6 33.9 -5.15 34.8 -6.55 38.15 -11.95 40.4 -17.9 L41.15 -19.35 Q42.9 -21.85 43.6 -24.7 L44.7 -31.0 Q45.5 -37.3 47.3 -43.4 L47.65 -44.25 47.85 -45.0 47.85 -46.15 49.85 -58.7 51.65 -69.75 51.8 -70.9 M42.9 -71.85 Q46.0 -70.95 44.65 -67.9 42.05 -62.35 41.55 -56.15 45.15 -54.9 43.6 -51.5 43.05 -50.25 41.7 -50.0 38.15 -49.45 37.4 -52.65 37.2 -53.35 37.15 -54.05 36.85 -59.7 38.6 -64.9 L39.3 -66.7 Q40.05 -68.8 41.15 -70.75 41.75 -71.85 42.9 -71.85 M77.35 -71.0 Q80.8 -70.9 81.25 -67.5 81.6 -64.7 78.85 -64.45 74.25 -64.1 69.65 -64.25 68.2 -64.35 67.95 -65.75 67.55 -67.8 69.7 -68.1 L74.75 -68.5 Q75.05 -69.65 75.95 -70.4 76.6 -70.95 77.35 -71.0 M52.75 -43.45 L52.75 -43.4 52.7 -43.4 52.75 -43.45 M57.55 -33.1 L57.85 -32.35 58.45 -30.75 58.6 -30.45 54.0 -29.7 53.0 -32.0 54.45 -34.45 Q54.55 -35.65 55.6 -36.35 L55.85 -36.95 57.55 -33.1 M59.2 -29.4 L60.7 -26.1 Q63.05 -25.05 62.55 -21.95 L62.5 -21.15 Q62.85 -14.7 62.25 -8.3 L62.0 -6.55 Q64.8 -7.4 67.6 -7.65 68.65 -7.8 69.25 -6.9 70.45 -5.0 68.45 -3.9 67.75 -3.55 67.0 -3.3 L61.5 -1.5 Q58.8 -0.55 57.45 -2.75 57.0 -3.6 57.25 -4.5 L57.5 -5.6 Q58.2 -10.15 58.3 -14.75 58.35 -18.45 57.9 -22.05 L57.85 -22.3 56.85 -23.9 54.5 -28.65 59.2 -29.4" fill="#666666" fill-rule="evenodd" stroke="none"/>
  </g>
</svg>
