<?xml version="1.0" encoding="UTF-8" standalone="no"?>
<svg xmlns:ffdec="https://www.free-decompiler.com/flash" xmlns:xlink="http://www.w3.org/1999/xlink" ffdec:objectType="shape" height="107.35px" width="49.6px" xmlns="http://www.w3.org/2000/svg">
  <g transform="matrix(1.0, 0.0, 0.0, 1.0, 18.95, 36.35)">
    <path d="M3.8 -30.4 Q5.2 -21.7 5.95 -12.85 L6.2 -10.6 Q7.4 -1.7 6.85 7.25 L6.8 7.95 Q9.7 9.15 11.0 12.5 L11.5 13.7 Q14.8 22.0 18.6 30.05 21.65 36.55 21.65 43.9 21.65 47.1 22.1 50.2 22.8 55.55 23.1 60.95 26.35 60.45 29.25 61.6 30.45 62.05 30.6 63.35 30.95 66.55 27.7 66.8 23.7 67.05 19.7 66.75 17.4 66.6 17.3 64.3 17.0 56.1 15.9 48.05 15.55 45.85 15.55 43.6 15.5 39.1 13.9 34.9 L12.35 31.25 Q9.35 24.9 6.75 18.4 L6.3 17.1 5.85 19.05 Q4.0 27.65 1.0 35.9 L-5.2 52.3 Q-7.45 58.05 -9.05 63.9 -6.9 64.9 -3.85 65.15 L-3.05 65.65 Q-0.75 69.25 -4.75 70.65 L-7.2 70.95 Q-11.3 70.4 -14.8 68.25 -15.95 67.55 -15.8 66.2 -15.45 61.9 -13.85 57.8 L-8.95 45.55 Q-6.25 38.95 -4.25 32.15 -1.55 24.3 -0.05 16.15 0.25 14.45 0.8 12.9 0.5 11.8 0.6 10.6 1.15 1.65 0.2 -7.2 L-1.65 -24.75 Q-2.05 -28.55 -3.15 -32.3 -4.15 -35.75 -0.55 -36.35 3.15 -35.6 3.6 -31.55 L3.8 -30.4 M17.15 -15.95 Q16.75 -16.5 16.85 -17.2 17.35 -19.6 19.8 -19.8 24.15 -19.3 25.45 -14.85 L25.95 -12.95 Q27.7 -5.55 26.55 2.1 26.2 4.45 24.75 6.5 22.75 9.2 19.8 10.8 15.75 12.95 13.05 9.7 12.55 9.1 12.55 8.3 12.55 3.1 18.0 3.25 L19.2 3.25 Q19.8 2.8 20.0 2.15 L20.7 0.85 Q21.2 -4.05 20.55 -8.85 L20.35 -9.8 Q20.05 -10.65 20.1 -11.55 L17.15 -15.95 M-12.5 -7.85 Q-13.1 -4.85 -13.05 -1.8 -13.0 1.2 -12.4 4.05 -7.95 5.8 -9.4 10.15 -9.85 11.55 -11.3 11.7 -16.55 12.4 -17.8 7.6 -18.6 4.35 -18.8 0.9 -19.25 -5.6 -18.15 -11.9 -17.9 -13.3 -16.45 -13.6 L-15.65 -13.8 Q-11.6 -12.45 -12.5 -7.85" fill="#666666" fill-rule="evenodd" stroke="none"/>
  </g>
</svg>
