<?xml version="1.0" encoding="UTF-8" standalone="no"?>
<svg xmlns:ffdec="https://www.free-decompiler.com/flash" xmlns:xlink="http://www.w3.org/1999/xlink" ffdec:objectType="shape" height="44.6px" width="69.75px" xmlns="http://www.w3.org/2000/svg">
  <g transform="matrix(1.0, 0.0, 0.0, 1.0, -40.15, 118.35)">
    <path d="M84.7 -102.8 L88.05 -104.0 Q86.75 -104.7 85.65 -105.65 84.7 -106.55 85.1 -107.8 85.55 -109.35 87.15 -109.45 L91.45 -107.5 Q94.5 -108.2 95.8 -105.6 L98.85 -104.3 106.25 -100.95 Q107.0 -100.6 107.45 -99.9 109.15 -97.3 106.6 -95.55 105.8 -95.0 104.8 -95.1 101.6 -95.35 100.35 -97.85 L100.15 -98.6 100.1 -98.9 94.05 -101.4 Q89.9 -100.05 85.6 -99.1 L85.35 -99.05 Q88.65 -97.85 91.85 -96.1 L99.0 -91.85 Q100.2 -91.1 101.55 -90.45 L107.8 -92.75 108.65 -92.65 Q110.75 -91.3 109.35 -89.2 108.65 -88.25 107.5 -87.95 106.45 -87.7 105.45 -87.15 103.25 -86.0 100.9 -86.0 100.05 -86.05 99.35 -86.5 L89.6 -92.05 89.35 -92.2 84.25 -94.75 Q81.35 -96.0 78.15 -96.25 L69.55 -96.7 72.6 -94.25 76.95 -90.6 Q81.95 -86.7 86.45 -82.1 L89.0 -80.0 91.1 -78.05 97.9 -77.7 Q99.3 -77.4 99.35 -75.95 99.4 -73.9 97.35 -73.85 93.45 -73.65 89.6 -73.85 88.85 -73.9 88.35 -74.45 L83.05 -79.55 Q78.25 -83.95 73.1 -87.95 L64.45 -94.55 62.9 -95.45 Q61.6 -96.0 60.75 -96.85 L57.15 -96.8 Q53.8 -96.75 52.05 -99.5 51.05 -101.0 51.45 -102.75 47.65 -98.85 45.25 -93.9 L47.4 -91.95 Q48.0 -91.2 47.9 -90.15 47.6 -86.8 44.0 -87.3 39.85 -87.95 40.15 -91.95 40.25 -93.45 40.9 -94.9 42.8 -99.2 45.75 -103.0 47.6 -105.4 49.8 -107.65 50.65 -108.5 51.75 -108.6 53.05 -108.25 53.55 -107.5 54.7 -109.2 56.4 -110.45 L58.5 -112.05 Q63.25 -115.4 68.75 -117.45 70.35 -118.1 71.95 -118.35 75.35 -118.25 74.35 -115.25 73.95 -114.1 72.7 -113.8 69.65 -113.15 66.8 -111.9 64.15 -110.75 61.75 -109.1 57.7 -106.3 55.75 -102.0 56.3 -101.2 57.35 -101.2 L78.85 -100.55 Q81.45 -100.35 83.95 -99.55 L83.6 -100.1 Q82.7 -102.0 84.7 -102.8" fill="#666666" fill-rule="evenodd" stroke="none"/>
  </g>
</svg>
