<?xml version="1.0" encoding="UTF-8" standalone="no"?>
<svg xmlns:ffdec="https://www.free-decompiler.com/flash" xmlns:xlink="http://www.w3.org/1999/xlink" ffdec:objectType="shape" height="41.35px" width="69.15px" xmlns="http://www.w3.org/2000/svg">
  <g transform="matrix(1.0, 0.0, 0.0, 1.0, 31.75, 147.75)">
    <path d="M24.45 -137.85 L32.25 -135.6 Q33.0 -135.4 33.6 -134.75 35.65 -132.45 33.4 -130.35 32.7 -129.7 31.7 -129.6 28.5 -129.4 26.85 -131.7 L26.6 -132.35 26.5 -132.7 20.1 -134.25 Q16.2 -132.3 12.1 -130.75 L11.85 -130.65 Q15.35 -129.95 18.75 -128.7 L26.45 -125.55 29.15 -124.55 Q32.05 -126.3 35.0 -127.75 L35.85 -127.8 Q38.15 -126.75 37.05 -124.45 36.5 -123.45 35.45 -123.0 L33.5 -121.85 Q31.5 -120.4 29.2 -120.05 L27.6 -120.3 17.1 -124.35 16.85 -124.45 11.45 -126.25 5.2 -126.8 -3.4 -126.0 0.0 -124.0 Q2.35 -122.45 4.85 -121.05 10.35 -117.95 15.5 -114.05 16.8 -113.1 18.3 -112.35 19.6 -111.75 20.65 -110.75 L27.45 -111.4 Q28.9 -111.3 29.15 -109.9 29.5 -107.9 27.45 -107.5 L19.85 -106.4 Q19.05 -106.35 18.5 -106.8 L12.5 -111.0 Q7.1 -114.65 1.4 -117.85 L-8.1 -123.05 Q-8.95 -123.55 -9.8 -123.75 -11.15 -124.1 -12.1 -124.8 L-15.65 -124.25 Q-18.95 -123.7 -21.1 -126.1 -22.3 -127.45 -22.2 -129.25 -25.35 -124.85 -27.0 -119.6 L-24.55 -118.0 Q-23.85 -117.35 -23.8 -116.25 -23.6 -112.95 -27.25 -112.9 -31.45 -112.9 -31.75 -116.95 -31.85 -118.45 -31.45 -119.95 -30.2 -124.5 -27.85 -128.65 -26.4 -131.35 -24.55 -133.85 -23.8 -134.85 -22.75 -135.1 -21.4 -134.95 -20.8 -134.3 -19.9 -136.1 -18.45 -137.6 L-16.6 -139.5 Q-12.4 -143.5 -7.25 -146.4 -5.8 -147.25 -4.25 -147.7 -0.9 -148.15 -1.45 -145.05 -1.65 -143.85 -2.8 -143.35 -5.7 -142.25 -8.35 -140.6 -10.85 -139.05 -12.95 -137.05 -16.55 -133.75 -17.8 -129.2 -17.15 -128.45 -16.1 -128.6 -5.5 -130.45 5.2 -131.2 L10.4 -130.95 10.0 -131.45 Q8.8 -133.2 10.65 -134.25 L13.8 -135.95 Q12.45 -136.45 11.2 -137.25 10.15 -137.95 10.35 -139.25 10.55 -140.85 12.1 -141.2 L16.65 -139.9 Q19.55 -141.05 21.2 -138.65 L24.45 -137.85" fill="#666666" fill-rule="evenodd" stroke="none"/>
  </g>
</svg>
