<?xml version="1.0" encoding="UTF-8" standalone="no"?>
<svg xmlns:ffdec="https://www.free-decompiler.com/flash" xmlns:xlink="http://www.w3.org/1999/xlink" ffdec:objectType="shape" height="40.4px" width="64.7px" xmlns="http://www.w3.org/2000/svg">
  <g transform="matrix(1.0, 0.0, 0.0, 1.0, 34.75, 186.55)">
    <path d="M27.85 -177.9 Q30.35 -177.55 29.9 -175.05 29.7 -173.9 28.75 -173.15 27.9 -172.45 27.2 -171.55 25.7 -169.6 23.55 -168.65 L21.95 -168.5 10.8 -169.5 10.5 -169.55 4.8 -169.8 Q1.65 -169.7 -1.35 -168.6 L-9.4 -165.5 -5.6 -164.5 -0.15 -163.0 Q6.05 -161.5 12.0 -159.15 L15.2 -158.3 Q16.6 -158.05 17.9 -157.4 20.9 -159.25 24.25 -159.9 25.65 -160.2 26.3 -158.9 27.2 -157.05 25.3 -156.1 21.85 -154.35 18.25 -152.95 L16.85 -153.0 9.95 -155.45 Q3.8 -157.5 -2.55 -159.0 L-13.1 -161.4 -14.95 -161.6 Q-16.3 -161.55 -17.45 -162.0 L-20.7 -160.5 Q-23.75 -159.05 -26.45 -160.8 -27.95 -161.75 -28.35 -163.55 -30.2 -158.4 -30.3 -152.9 -29.0 -152.75 -27.55 -152.05 -26.7 -151.6 -26.35 -150.6 -25.25 -147.45 -28.75 -146.4 -32.75 -145.3 -34.15 -149.1 -34.7 -150.5 -34.75 -152.05 -34.75 -156.75 -33.65 -161.4 -32.95 -164.4 -31.85 -167.3 -31.4 -168.5 -30.45 -169.0 L-28.4 -168.75 Q-28.0 -170.75 -27.05 -172.55 L-25.75 -174.9 Q-22.8 -179.9 -18.65 -184.05 -17.5 -185.3 -16.15 -186.15 -13.0 -187.5 -12.7 -184.35 -12.6 -183.15 -13.55 -182.35 L-18.1 -178.2 Q-20.1 -176.05 -21.6 -173.55 -24.15 -169.35 -24.1 -164.65 L-22.3 -164.55 Q-12.6 -169.25 -2.55 -172.85 L2.55 -174.0 2.0 -174.4 Q0.4 -175.75 1.9 -177.3 L4.45 -179.75 1.6 -180.3 Q0.35 -180.7 0.2 -181.95 -0.05 -183.6 1.4 -184.35 L6.1 -184.35 Q8.55 -186.2 10.8 -184.4 L14.15 -184.45 22.3 -184.45 23.8 -184.0 Q26.4 -182.3 24.8 -179.65 24.25 -178.85 23.35 -178.5 20.35 -177.45 18.15 -179.2 17.85 -179.45 17.7 -179.8 L17.5 -180.1 10.95 -179.85 4.25 -174.25 4.0 -174.15 Q7.55 -174.4 11.15 -174.1 L19.4 -173.15 22.3 -172.95 27.05 -177.65 Q27.4 -178.0 27.85 -177.9" fill="#666666" fill-rule="evenodd" stroke="none"/>
  </g>
</svg>
