<?xml version="1.0" encoding="UTF-8" standalone="no"?>
<svg xmlns:ffdec="https://www.free-decompiler.com/flash" xmlns:xlink="http://www.w3.org/1999/xlink" ffdec:objectType="shape" height="50.85px" width="59.2px" xmlns="http://www.w3.org/2000/svg">
  <g transform="matrix(1.0, 0.0, 0.0, 1.0, 28.45, 218.65)">
    <path d="M16.4 -212.9 L16.15 -213.1 9.85 -211.2 4.8 -204.05 4.65 -203.85 Q8.0 -205.05 11.55 -205.7 L19.75 -206.9 22.6 -207.45 26.0 -213.2 26.7 -213.7 Q29.2 -214.0 29.4 -211.45 29.5 -210.3 28.8 -209.35 L27.7 -207.35 Q26.75 -205.1 24.95 -203.65 24.25 -203.2 23.4 -203.05 L12.4 -201.15 12.1 -201.1 6.55 -199.9 Q3.5 -199.0 0.9 -197.15 L-6.05 -192.05 -2.15 -192.1 Q0.7 -191.95 3.5 -192.05 L16.25 -191.5 Q17.85 -191.35 19.55 -191.5 L22.35 -191.3 Q24.8 -193.85 27.9 -195.35 29.15 -196.0 30.1 -194.9 31.45 -193.4 29.9 -192.0 27.0 -189.4 23.9 -187.1 23.25 -186.65 22.55 -186.75 L15.25 -187.35 Q8.75 -187.75 2.25 -187.55 L-8.6 -187.15 -10.4 -186.85 -12.95 -186.6 -15.7 -184.3 Q-18.25 -182.1 -21.35 -183.1 -23.05 -183.65 -23.9 -185.25 -24.3 -179.85 -23.0 -174.5 L-20.15 -174.35 Q-19.2 -174.2 -18.6 -173.3 -16.7 -170.55 -19.85 -168.6 -23.45 -166.5 -25.75 -169.8 -26.65 -171.0 -27.05 -172.5 -28.3 -177.05 -28.45 -181.85 L-28.2 -188.0 Q-28.1 -189.25 -27.35 -190.0 L-25.25 -190.25 Q-25.4 -192.3 -24.95 -194.3 L-24.3 -196.9 Q-22.75 -202.5 -19.85 -207.6 L-17.95 -210.25 Q-15.25 -212.35 -14.15 -209.45 -13.7 -208.3 -14.45 -207.25 -16.4 -204.85 -17.8 -202.05 -19.1 -199.45 -19.95 -196.7 -21.3 -192.0 -20.05 -187.4 -19.15 -187.15 -18.3 -187.8 -10.15 -194.85 -1.35 -200.9 0.8 -202.45 3.25 -203.35 L2.6 -203.6 Q0.7 -204.5 1.75 -206.35 2.6 -207.95 3.6 -209.4 L0.7 -209.2 Q-0.6 -209.25 -1.1 -210.45 -1.7 -211.95 -0.55 -213.05 L4.0 -214.3 Q5.9 -216.75 8.55 -215.55 L11.75 -216.45 19.65 -218.55 21.2 -218.5 Q24.15 -217.6 23.3 -214.6 23.0 -213.7 22.15 -213.1 19.55 -211.3 17.0 -212.45 L16.4 -212.9" fill="#666666" fill-rule="evenodd" stroke="none"/>
  </g>
</svg>
