<?xml version="1.0" encoding="UTF-8" standalone="no"?>
<svg xmlns:ffdec="https://www.free-decompiler.com/flash" xmlns:xlink="http://www.w3.org/1999/xlink" ffdec:objectType="shape" height="65.4px" width="35.1px" xmlns="http://www.w3.org/2000/svg">
  <g transform="matrix(1.0, 0.0, 0.0, 1.0, -9.85, 64.5)">
    <path d="M42.75 -51.3 Q38.7 -48.0 35.9 -43.7 34.8 -41.95 33.6 -41.15 L33.65 -37.05 Q34.45 -36.65 34.7 -35.5 L34.75 -35.15 Q34.15 -33.6 33.05 -32.45 L32.7 -32.05 Q32.7 -30.9 31.85 -30.1 L31.15 -29.35 Q27.75 -25.1 24.9 -19.95 26.05 -18.15 26.4 -15.7 26.85 -12.8 28.95 -10.6 29.75 -9.8 29.6 -8.7 31.85 -5.9 32.35 -2.75 L32.6 -2.7 Q33.75 -2.55 33.7 -1.25 33.3 0.15 31.9 0.25 L31.3 0.4 31.1 0.25 24.25 -0.2 Q23.8 -0.25 23.35 -0.65 L23.25 -1.0 Q23.05 -2.15 23.85 -2.9 L24.25 -3.2 24.5 -3.3 25.1 -3.4 25.15 -3.45 27.9 -3.25 Q26.45 -5.35 25.65 -7.95 L25.0 -8.7 24.35 -9.5 24.25 -9.85 24.1 -10.65 Q21.5 -14.65 20.8 -19.55 L20.75 -19.6 20.7 -20.5 20.65 -21.0 20.85 -21.4 21.55 -22.7 22.2 -23.45 23.65 -25.65 19.05 -22.5 Q19.85 -20.85 19.75 -18.6 L19.85 -13.55 Q20.1 -9.85 20.95 -6.3 21.6 -3.55 20.9 -1.15 L20.9 -0.75 Q20.7 -0.05 20.3 0.3 L19.5 0.9 18.9 0.75 10.95 0.3 10.0 -0.1 9.9 -0.5 Q9.7 -1.65 10.55 -2.4 L10.9 -2.7 11.15 -2.75 11.75 -2.85 11.8 -2.95 17.4 -2.5 15.05 -22.45 15.0 -23.6 15.0 -24.1 Q20.55 -29.2 27.05 -33.35 28.0 -35.05 29.9 -35.85 L29.4 -41.0 27.75 -42.25 Q27.15 -42.9 27.45 -43.85 28.05 -44.8 28.8 -45.2 L28.35 -48.15 Q26.2 -46.75 23.55 -46.65 L14.0 -46.95 Q13.25 -47.05 12.7 -47.7 L12.05 -48.45 Q11.65 -52.95 16.75 -51.3 17.45 -51.05 17.7 -50.4 23.0 -49.95 27.6 -52.15 L26.9 -55.3 Q26.0 -59.25 26.4 -63.35 26.8 -64.1 27.55 -64.35 L28.2 -64.5 Q30.8 -62.75 30.9 -58.85 31.05 -52.65 32.65 -46.65 37.2 -52.8 43.1 -57.3 47.0 -54.8 42.75 -51.3" fill="#666666" fill-rule="evenodd" stroke="none"/>
  </g>
</svg>
