<?xml version="1.0" encoding="UTF-8" standalone="no"?>
<svg xmlns:ffdec="https://www.free-decompiler.com/flash" xmlns:xlink="http://www.w3.org/1999/xlink" ffdec:objectType="shape" height="64.9px" width="40.4px" xmlns="http://www.w3.org/2000/svg">
  <g transform="matrix(1.0, 0.0, 0.0, 1.0, -10.35, 61.95)">
    <path d="M50.25 -50.9 Q52.3 -45.0 46.15 -45.35 45.05 -45.4 44.35 -46.3 L44.3 -47.05 44.25 -48.2 44.4 -48.55 44.75 -49.0 Q42.15 -51.55 38.1 -53.85 L36.4 -54.9 37.05 -53.9 37.45 -53.45 Q39.25 -51.25 39.35 -48.45 39.4 -47.45 39.0 -46.55 36.7 -44.8 34.6 -46.8 34.4 -47.35 34.5 -47.95 L35.0 -49.1 Q32.7 -52.9 29.45 -56.0 L28.45 -57.2 28.35 -57.95 28.35 -58.35 28.45 -58.75 Q28.85 -59.5 29.65 -59.7 L30.25 -59.9 31.0 -59.55 30.95 -60.0 31.05 -60.8 Q31.4 -61.55 32.2 -61.8 L32.8 -61.95 Q41.35 -57.05 49.75 -51.3 L50.25 -50.9 M16.4 -60.4 Q20.95 -57.95 23.45 -52.95 26.8 -46.25 28.6 -39.0 30.15 -35.45 30.8 -31.55 31.8 -31.15 32.15 -29.85 L32.2 -29.5 31.15 -28.4 31.05 -28.0 31.65 -26.8 31.65 -26.4 29.2 -19.15 Q29.05 -18.7 28.7 -18.35 28.55 -14.75 26.7 -12.35 32.2 -7.0 35.5 0.3 L35.75 1.05 35.75 1.3 35.45 2.0 35.4 2.2 Q34.05 3.3 32.75 2.8 L24.25 2.35 Q23.8 2.3 23.35 1.95 L23.25 1.55 Q23.05 0.4 23.85 -0.35 L24.25 -0.65 24.5 -0.7 25.1 -0.8 25.15 -0.9 30.65 -0.55 Q26.8 -5.45 23.4 -10.75 L23.3 -10.9 22.8 -11.4 22.8 -11.55 22.75 -11.9 22.75 -12.7 22.8 -13.05 23.0 -13.35 Q23.35 -15.95 24.5 -18.45 L24.75 -19.5 24.9 -19.85 25.65 -20.65 Q26.2 -23.15 27.25 -25.35 L26.7 -25.0 25.75 -24.6 25.45 -24.2 25.25 -23.85 25.15 -23.45 Q21.65 -21.05 17.95 -19.95 18.7 -18.45 18.85 -16.45 19.0 -14.1 19.6 -11.85 21.1 -6.35 19.9 -0.95 20.4 -0.6 20.4 0.25 20.0 1.55 18.85 1.75 L18.45 1.95 17.75 1.75 11.45 1.35 10.5 0.9 10.4 0.5 Q10.2 -0.65 11.05 -1.4 L11.4 -1.65 11.65 -1.75 12.3 -1.85 12.3 -1.9 16.65 -1.55 Q16.4 -9.65 14.45 -17.3 13.95 -19.1 13.95 -21.0 14.25 -21.85 14.95 -22.15 16.15 -24.05 19.05 -24.85 20.0 -25.1 20.8 -25.7 L26.9 -30.05 25.95 -33.0 Q25.6 -33.95 25.75 -35.0 L25.15 -35.8 24.85 -36.15 Q24.15 -41.2 21.8 -45.8 21.25 -46.9 21.0 -48.1 L20.65 -48.45 20.25 -48.85 20.15 -49.25 20.1 -49.6 20.0 -50.0 18.45 -52.4 17.95 -53.45 Q16.35 -54.95 15.2 -56.9 L14.6 -57.7 14.55 -58.5 14.6 -59.25 Q15.0 -60.0 15.75 -60.25 L16.4 -60.4" fill="#666666" fill-rule="evenodd" stroke="none"/>
  </g>
</svg>
