<?xml version="1.0" encoding="UTF-8" standalone="no"?>
<svg xmlns:ffdec="https://www.free-decompiler.com/flash" xmlns:xlink="http://www.w3.org/1999/xlink" ffdec:objectType="shape" height="74.5px" width="37.45px" xmlns="http://www.w3.org/2000/svg">
  <g transform="matrix(1.0, 0.0, 0.0, 1.0, -7.85, 72.55)">
    <path d="M45.2 -56.75 Q43.9 -52.05 39.25 -55.0 L39.15 -55.4 39.1 -55.8 39.15 -56.15 39.25 -56.55 39.35 -56.8 24.6 -57.3 Q23.5 -57.2 22.8 -58.1 L22.7 -58.5 Q22.6 -59.1 22.95 -59.55 24.2 -61.45 26.65 -61.45 36.2 -62.95 44.2 -59.05 45.65 -58.35 45.2 -56.75 M19.15 -62.55 L18.2 -63.2 18.1 -63.6 18.05 -64.4 18.05 -65.15 Q22.65 -68.9 28.35 -71.35 29.7 -71.95 30.75 -72.2 34.15 -73.25 36.55 -71.25 37.65 -70.3 37.2 -68.85 L36.95 -68.1 36.4 -67.75 Q34.6 -66.7 32.95 -67.95 26.85 -66.7 21.35 -62.95 L20.0 -62.2 Q19.55 -62.3 19.15 -62.55 M7.95 -52.45 L7.85 -53.2 Q7.8 -53.8 8.15 -54.3 L8.85 -55.0 9.1 -55.1 9.7 -55.2 9.75 -55.25 Q14.3 -54.7 17.5 -51.1 L17.7 -50.8 19.7 -49.35 Q20.45 -48.65 20.75 -47.7 24.4 -44.7 27.4 -41.05 28.5 -39.7 29.1 -38.1 30.9 -35.95 32.25 -33.4 L32.9 -32.1 33.2 -31.4 33.65 -30.25 32.95 -30.25 32.1 -29.15 31.55 -28.7 Q31.25 -26.75 30.0 -25.25 L29.6 -24.85 25.3 -17.6 25.0 -17.2 Q24.6 -15.7 24.0 -14.8 L27.8 -11.5 Q31.15 -8.25 35.0 -5.5 38.65 -4.75 38.65 -1.55 L38.45 -0.35 Q33.9 1.6 28.7 1.95 27.6 1.8 26.9 0.9 L26.85 0.15 26.8 -1.0 Q28.5 -3.1 31.65 -3.05 25.2 -7.8 20.0 -13.65 L19.25 -13.95 19.3 -14.5 Q19.0 -14.9 19.1 -15.4 L19.6 -16.2 20.8 -18.35 21.3 -19.35 25.6 -25.95 Q24.35 -24.95 22.7 -24.6 L15.65 -19.75 15.65 -19.35 15.75 -18.6 18.15 -14.45 18.35 -13.2 19.6 -11.35 20.0 -10.9 Q22.55 -7.75 21.4 -4.55 21.2 -4.05 20.5 -4.0 L10.4 -4.3 Q9.95 -4.35 9.5 -4.75 8.9 -6.55 10.75 -7.0 L16.55 -7.8 16.25 -8.2 15.65 -8.95 15.55 -9.35 15.4 -10.5 Q13.95 -12.45 13.15 -14.75 L12.95 -15.5 12.65 -15.9 12.05 -16.65 11.95 -17.05 11.8 -17.8 Q10.55 -18.9 10.45 -20.5 L10.5 -21.3 Q19.0 -27.35 27.95 -32.4 21.05 -43.7 9.7 -50.85 L7.95 -52.45" fill="#666666" fill-rule="evenodd" stroke="none"/>
  </g>
</svg>
