<?xml version="1.0" encoding="UTF-8" standalone="no"?>
<svg xmlns:ffdec="https://www.free-decompiler.com/flash" xmlns:xlink="http://www.w3.org/1999/xlink" ffdec:objectType="shape" height="75.65px" width="40.3px" xmlns="http://www.w3.org/2000/svg">
  <g transform="matrix(1.0, 0.0, 0.0, 1.0, 25.25, 73.2)">
    <path d="M0.65 -57.15 L5.9 -55.05 6.6 -54.75 Q8.75 -54.1 7.65 -52.25 7.2 -51.5 6.4 -51.55 3.5 -51.75 1.0 -53.15 1.4 -49.45 1.45 -45.55 L1.65 -43.9 Q2.25 -40.5 1.9 -37.1 L2.7 -37.1 Q4.25 -35.9 4.2 -33.4 4.1 -29.55 4.9 -25.8 5.45 -23.1 5.05 -20.5 6.4 -19.15 7.2 -17.15 L9.15 -12.75 9.35 -12.1 Q12.45 -6.9 14.85 -1.5 L15.05 -0.45 14.85 1.05 Q14.45 2.65 12.1 2.45 8.35 2.1 4.9 1.05 4.25 0.85 4.2 0.15 4.1 -1.95 6.1 -2.15 L10.45 -2.0 9.35 -4.15 Q6.65 -7.85 4.85 -12.0 L4.1 -13.55 Q2.8 -15.95 1.9 -18.45 1.15 -19.0 1.1 -20.5 1.1 -25.6 0.2 -30.55 L0.05 -31.45 -2.7 -28.05 Q-5.55 -24.9 -7.65 -21.3 -7.25 -20.4 -7.25 -19.15 L-7.15 -14.35 Q-6.9 -9.9 -5.4 -5.75 -4.5 -3.4 -4.65 -1.05 L-4.5 -0.7 Q-4.25 0.75 -5.15 1.25 L-5.8 1.6 -6.6 1.6 -13.25 1.9 -15.15 1.65 Q-18.35 0.75 -16.15 -1.6 -15.55 -2.25 -14.55 -2.4 L-13.6 -2.5 -8.95 -2.3 Q-9.25 -5.3 -10.0 -8.25 -10.9 -11.85 -11.35 -15.55 L-11.9 -19.85 Q-12.1 -21.1 -11.65 -21.95 L-11.3 -22.85 -9.2 -26.1 -4.2 -32.95 -1.9 -36.35 -1.85 -36.95 -1.8 -37.1 -1.35 -37.1 -1.35 -37.55 Q-1.35 -41.45 -1.85 -45.25 L-2.15 -47.8 -2.65 -54.7 Q-6.35 -56.15 -9.55 -58.5 -11.0 -59.55 -10.7 -61.55 -10.4 -63.25 -8.65 -63.45 -5.2 -63.6 -4.8 -60.3 L-4.85 -59.7 -2.95 -58.65 -3.3 -60.65 Q-3.8 -63.15 -4.9 -65.55 L-6.0 -68.55 -6.4 -70.1 Q-6.8 -71.65 -5.75 -72.75 -5.3 -73.15 -4.75 -73.2 -2.75 -72.55 -2.5 -70.35 -2.2 -67.7 -1.1 -65.3 0.45 -62.05 0.6 -58.4 L0.65 -57.15 M-25.15 -61.5 L-25.25 -62.6 Q-25.0 -65.05 -22.75 -65.65 -20.05 -66.0 -19.95 -63.55 -19.9 -62.15 -20.9 -61.15 L-20.05 -60.1 -19.2 -59.1 Q-15.2 -55.5 -11.55 -51.55 -11.2 -51.15 -11.4 -50.65 -12.1 -48.65 -14.1 -49.65 -14.85 -50.05 -15.45 -50.6 L-22.9 -57.8 Q-24.55 -59.45 -25.15 -61.5" fill="#666666" fill-rule="evenodd" stroke="none"/>
  </g>
</svg>
