<?xml version="1.0" encoding="UTF-8" standalone="no"?>
<svg xmlns:ffdec="https://www.free-decompiler.com/flash" xmlns:xlink="http://www.w3.org/1999/xlink" ffdec:objectType="shape" height="75.45px" width="41.5px" xmlns="http://www.w3.org/2000/svg">
  <g transform="matrix(1.0, 0.0, 0.0, 1.0, 26.45, 73.0)">
    <path d="M0.55 -53.85 L0.6 -52.9 Q0.95 -47.75 2.05 -42.7 2.45 -40.9 2.25 -39.1 L2.45 -39.1 2.5 -38.75 2.6 -37.15 Q4.25 -35.95 4.2 -33.4 4.1 -29.55 4.9 -25.8 5.45 -23.1 5.05 -20.5 6.4 -19.15 7.2 -17.15 L9.15 -12.75 9.35 -12.1 Q12.45 -6.9 14.85 -1.5 L15.05 -0.45 14.85 1.05 Q14.45 2.65 12.1 2.45 8.35 2.1 4.9 1.05 4.25 0.85 4.2 0.15 4.1 -1.95 6.1 -2.15 L10.45 -2.0 9.35 -4.15 Q6.65 -7.85 4.85 -12.0 L4.1 -13.55 Q2.8 -15.95 1.9 -18.45 1.15 -19.0 1.1 -20.5 1.1 -25.6 0.2 -30.55 L0.05 -31.45 -2.7 -28.05 Q-5.55 -24.9 -7.65 -21.3 -7.25 -20.4 -7.25 -19.15 L-7.15 -14.35 Q-6.9 -9.9 -5.4 -5.75 -4.5 -3.4 -4.65 -1.05 L-4.5 -0.7 Q-4.25 0.75 -5.15 1.25 L-5.8 1.6 -6.6 1.6 -13.25 1.9 -15.15 1.65 Q-18.35 0.75 -16.15 -1.6 -15.55 -2.25 -14.55 -2.4 L-13.6 -2.5 -8.95 -2.3 Q-9.25 -5.3 -10.0 -8.25 -10.9 -11.85 -11.35 -15.55 L-11.9 -19.85 Q-12.1 -21.1 -11.65 -21.95 L-11.3 -22.85 -9.2 -26.1 -4.2 -32.95 -1.9 -36.35 -1.85 -36.95 -1.7 -39.1 -1.65 -39.1 -1.85 -41.65 Q-2.2 -46.75 -3.05 -51.8 L-3.75 -55.75 -5.95 -56.6 -7.0 -57.05 Q-9.1 -58.0 -10.5 -59.8 -11.0 -60.5 -11.0 -61.4 -11.0 -63.4 -9.05 -63.75 -6.45 -64.25 -5.4 -62.15 -4.95 -61.2 -5.2 -60.25 L-4.4 -59.75 -4.5 -60.45 -4.85 -61.4 -5.2 -63.1 -5.15 -63.95 -5.75 -69.2 -5.9 -70.35 Q-6.3 -72.6 -4.2 -73.0 -2.3 -72.45 -2.2 -70.3 L-1.75 -65.15 -1.45 -63.2 -1.2 -61.85 -0.1 -57.9 0.35 -57.75 3.2 -56.55 Q4.85 -55.6 6.6 -54.9 9.0 -53.85 7.6 -51.9 7.05 -51.2 6.2 -51.45 4.5 -51.85 2.9 -52.7 L0.55 -53.85 M-21.3 -61.1 L-12.8 -54.15 Q-12.3 -53.8 -11.9 -53.3 -10.55 -51.75 -12.4 -50.7 -13.2 -50.3 -13.95 -50.7 -16.5 -52.05 -18.6 -54.0 L-22.55 -57.3 Q-24.75 -59.05 -26.0 -61.45 L-26.45 -63.05 Q-26.55 -64.65 -25.45 -65.7 -25.0 -66.1 -24.45 -66.15 -22.25 -66.7 -21.2 -65.0 -20.65 -64.1 -20.75 -63.0 -20.8 -62.0 -21.3 -61.1" fill="#666666" fill-rule="evenodd" stroke="none"/>
  </g>
</svg>
