<?xml version="1.0" encoding="UTF-8" standalone="no"?>
<svg xmlns:ffdec="https://www.free-decompiler.com/flash" xmlns:xlink="http://www.w3.org/1999/xlink" ffdec:objectType="shape" height="75.8px" width="40.85px" xmlns="http://www.w3.org/2000/svg">
  <g transform="matrix(1.0, 0.0, 0.0, 1.0, 25.8, 73.35)">
    <path d="M0.95 -52.9 L1.1 -50.7 1.1 -50.5 2.5 -40.35 2.5 -38.85 2.5 -38.75 2.6 -37.15 Q4.25 -35.95 4.2 -33.4 4.1 -29.55 4.9 -25.8 5.45 -23.1 5.05 -20.5 6.4 -19.15 7.2 -17.15 L9.15 -12.75 9.35 -12.1 Q12.45 -6.9 14.85 -1.5 L15.05 -0.45 14.85 1.05 Q14.45 2.65 12.1 2.45 8.35 2.1 4.9 1.05 4.25 0.85 4.2 0.15 4.1 -1.95 6.1 -2.15 L10.45 -2.0 9.35 -4.15 Q6.65 -7.85 4.85 -12.0 L4.1 -13.55 Q2.8 -15.95 1.9 -18.45 1.15 -19.0 1.1 -20.5 1.1 -25.6 0.2 -30.55 L0.05 -31.45 -2.7 -28.05 Q-5.55 -24.9 -7.65 -21.3 -7.25 -20.4 -7.25 -19.15 L-7.15 -14.35 Q-6.9 -9.9 -5.4 -5.75 -4.5 -3.4 -4.65 -1.05 L-4.5 -0.7 Q-4.25 0.75 -5.15 1.25 L-5.8 1.6 -6.6 1.6 -13.25 1.9 -15.15 1.65 Q-18.35 0.75 -16.15 -1.6 -15.55 -2.25 -14.55 -2.4 L-13.6 -2.5 -8.95 -2.3 Q-9.25 -5.3 -10.0 -8.25 -10.9 -11.85 -11.35 -15.55 L-11.9 -19.85 Q-12.1 -21.1 -11.65 -21.95 L-11.3 -22.85 -9.2 -26.1 -4.2 -32.95 -1.9 -36.35 -1.85 -36.95 -1.7 -39.1 -1.2 -39.1 -1.15 -39.6 -1.45 -41.55 -1.9 -44.1 Q-2.55 -47.0 -2.5 -50.0 L-2.9 -52.25 -3.35 -55.1 -3.45 -55.85 -4.85 -56.8 -6.75 -58.2 -9.0 -59.8 -9.4 -60.3 Q-10.0 -62.0 -9.3 -63.6 -8.9 -64.45 -8.0 -64.45 -5.45 -64.5 -5.3 -62.0 L-5.3 -61.85 -4.25 -60.9 -4.85 -65.2 -5.3 -67.95 -6.15 -70.95 Q-6.4 -71.6 -6.1 -72.25 -5.7 -73.3 -4.6 -73.35 -2.9 -72.95 -2.45 -71.15 -1.5 -67.45 -1.1 -63.55 L-0.35 -57.95 Q1.6 -56.7 3.7 -55.65 5.45 -54.75 6.6 -53.25 7.0 -52.7 6.65 -52.1 5.55 -50.1 3.45 -51.35 L0.95 -52.9 M-25.7 -63.2 L-25.75 -64.05 Q-25.25 -66.0 -23.25 -66.15 -19.85 -66.2 -20.05 -63.0 -20.1 -62.3 -20.6 -61.75 -17.8 -58.8 -14.55 -56.25 L-11.7 -54.35 Q-10.85 -53.8 -10.5 -52.9 -9.95 -51.5 -11.4 -50.9 -12.55 -50.4 -13.65 -51.2 L-15.85 -52.8 -22.05 -57.9 Q-24.6 -60.15 -25.7 -63.2" fill="#666666" fill-rule="evenodd" stroke="none"/>
  </g>
</svg>
