<?xml version="1.0" encoding="UTF-8" standalone="no"?>
<svg xmlns:ffdec="https://www.free-decompiler.com/flash" xmlns:xlink="http://www.w3.org/1999/xlink" ffdec:objectType="shape" height="75.65px" width="39.65px" xmlns="http://www.w3.org/2000/svg">
  <g transform="matrix(1.0, 0.0, 0.0, 1.0, 24.6, 73.2)">
    <path d="M0.4 -54.2 L1.05 -50.45 2.5 -43.05 Q2.2 -42.15 2.3 -41.15 L2.25 -38.6 Q2.05 -37.05 3.1 -36.35 L3.95 -34.1 4.2 -33.35 Q4.1 -29.55 4.9 -25.8 5.45 -23.1 5.05 -20.5 6.4 -19.15 7.2 -17.15 L9.15 -12.75 9.35 -12.1 Q12.45 -6.9 14.85 -1.5 L15.05 -0.45 14.85 1.05 Q14.45 2.65 12.1 2.45 8.35 2.1 4.9 1.05 4.25 0.85 4.2 0.15 4.1 -1.95 6.1 -2.15 L10.45 -2.0 9.35 -4.15 Q6.65 -7.85 4.85 -12.0 L4.1 -13.55 Q2.8 -15.95 1.9 -18.45 1.15 -19.0 1.1 -20.5 1.1 -25.6 0.2 -30.55 L0.05 -31.45 -2.7 -28.05 Q-5.55 -24.9 -7.65 -21.3 -7.25 -20.4 -7.25 -19.15 L-7.15 -14.35 Q-6.9 -9.9 -5.4 -5.75 -4.5 -3.4 -4.65 -1.05 L-4.5 -0.7 Q-4.25 0.75 -5.15 1.25 L-5.8 1.6 -6.6 1.6 -13.25 1.9 -15.15 1.65 Q-18.35 0.75 -16.15 -1.6 -15.55 -2.25 -14.55 -2.4 L-13.6 -2.5 -8.95 -2.3 Q-9.25 -5.3 -10.0 -8.25 -10.9 -11.85 -11.35 -15.55 L-11.9 -19.85 Q-12.1 -21.1 -11.65 -21.95 L-11.3 -22.85 -9.2 -26.1 -4.2 -32.95 -1.9 -36.35 -1.85 -36.95 -1.7 -38.55 -1.9 -39.4 Q-2.05 -42.95 -1.8 -46.4 L-2.45 -49.5 -3.3 -54.6 -3.5 -56.45 -5.55 -57.7 Q-7.2 -58.75 -8.5 -60.1 -10.65 -62.3 -8.9 -64.65 -8.6 -65.05 -8.1 -65.1 L-7.85 -65.15 Q-5.4 -65.6 -4.4 -63.6 L-4.55 -64.9 -4.6 -65.8 -6.15 -71.5 Q-6.35 -72.1 -5.9 -72.6 -5.35 -73.15 -4.6 -73.2 -2.2 -72.65 -1.95 -70.1 L-1.65 -68.15 -0.5 -60.6 -0.25 -58.55 0.35 -58.15 Q1.6 -57.35 2.95 -56.8 L5.5 -55.65 Q6.75 -55.0 7.55 -53.95 8.8 -52.2 6.8 -51.35 L5.25 -51.5 4.2 -52.2 0.4 -54.2 M-24.6 -64.9 Q-24.5 -67.2 -22.15 -67.35 -19.25 -67.0 -19.4 -64.1 -19.45 -63.4 -19.9 -62.85 -16.3 -58.6 -12.0 -54.95 -11.1 -54.2 -10.8 -53.15 -10.45 -51.95 -11.6 -51.4 -13.1 -50.75 -14.25 -51.85 L-17.7 -55.15 -18.35 -56.15 Q-22.6 -59.3 -24.5 -64.15 L-24.6 -64.9" fill="#666666" fill-rule="evenodd" stroke="none"/>
  </g>
</svg>
