<?xml version="1.0" encoding="UTF-8" standalone="no"?>
<svg xmlns:ffdec="https://www.free-decompiler.com/flash" xmlns:xlink="http://www.w3.org/1999/xlink" ffdec:objectType="shape" height="75.65px" width="38.5px" xmlns="http://www.w3.org/2000/svg">
  <g transform="matrix(1.0, 0.0, 0.0, 1.0, 23.45, 73.2)">
    <path d="M0.55 -54.4 L0.7 -52.75 0.8 -52.1 1.8 -41.85 2.0 -39.1 2.3 -39.1 2.25 -38.6 Q2.05 -37.05 3.1 -36.35 L3.95 -34.1 4.2 -33.35 Q4.1 -29.55 4.9 -25.8 5.45 -23.1 5.05 -20.5 6.4 -19.15 7.2 -17.15 L9.15 -12.75 9.35 -12.1 Q12.45 -6.9 14.85 -1.5 L15.05 -0.45 14.85 1.05 Q14.45 2.65 12.1 2.45 8.35 2.1 4.9 1.05 4.25 0.85 4.2 0.15 4.1 -1.95 6.1 -2.15 L10.45 -2.0 9.35 -4.15 Q6.65 -7.85 4.85 -12.0 L4.1 -13.55 Q2.8 -15.95 1.9 -18.45 1.15 -19.0 1.1 -20.5 1.1 -25.6 0.2 -30.55 L0.05 -31.45 -2.7 -28.05 Q-5.55 -24.9 -7.65 -21.3 -7.25 -20.4 -7.25 -19.15 L-7.15 -14.35 Q-6.9 -9.9 -5.4 -5.75 -4.5 -3.4 -4.65 -1.05 L-4.5 -0.7 Q-4.25 0.75 -5.15 1.25 L-5.8 1.6 -6.6 1.6 -13.25 1.9 -15.15 1.65 Q-18.35 0.75 -16.15 -1.6 -15.55 -2.25 -14.55 -2.4 L-13.6 -2.5 -8.95 -2.3 Q-9.25 -5.3 -10.0 -8.25 -10.9 -11.85 -11.35 -15.55 L-11.9 -19.85 Q-12.1 -21.1 -11.65 -21.95 L-11.3 -22.85 -9.2 -26.1 -4.2 -32.95 -1.9 -36.35 -1.85 -36.95 -1.7 -38.55 -1.85 -39.1 -1.45 -39.1 -1.7 -42.6 -2.15 -47.05 Q-2.35 -50.1 -2.85 -53.1 L-3.4 -56.95 -3.4 -57.2 -6.7 -59.4 Q-9.25 -61.05 -8.65 -63.95 -8.35 -65.35 -7.0 -65.5 -5.4 -65.55 -4.6 -64.75 L-5.05 -67.2 Q-5.4 -69.2 -6.45 -71.0 -6.8 -71.65 -6.4 -72.3 -5.85 -73.15 -4.95 -73.2 -2.9 -72.9 -2.25 -70.75 L-1.35 -67.4 Q-0.7 -64.65 -0.65 -61.85 L-0.1 -59.3 3.05 -57.05 Q4.45 -56.0 6.15 -55.5 7.5 -55.05 8.0 -53.8 8.45 -52.8 7.55 -52.2 L4.55 -52.05 1.6 -53.75 0.55 -54.4 M-23.25 -64.1 L-23.45 -64.8 Q-23.6 -67.1 -21.3 -67.55 -18.55 -67.45 -18.55 -64.7 -18.6 -64.05 -18.9 -63.55 -16.65 -59.75 -13.7 -56.4 L-11.6 -54.2 Q-10.1 -52.8 -11.4 -51.45 -12.1 -50.75 -13.05 -51.1 L-14.85 -52.3 Q-18.2 -55.65 -20.8 -59.6 L-23.25 -64.1" fill="#666666" fill-rule="evenodd" stroke="none"/>
  </g>
</svg>
