<?xml version="1.0" encoding="UTF-8" standalone="no"?>
<svg xmlns:ffdec="https://www.free-decompiler.com/flash" xmlns:xlink="http://www.w3.org/1999/xlink" ffdec:objectType="shape" height="75.65px" width="38.15px" xmlns="http://www.w3.org/2000/svg">
  <g transform="matrix(1.0, 0.0, 0.0, 1.0, 23.1, 73.2)">
    <path d="M0.4 -55.2 L1.25 -48.5 1.55 -45.85 1.75 -43.0 Q2.1 -42.3 2.1 -41.3 L2.0 -40.0 2.3 -40.0 2.5 -38.75 2.6 -37.15 Q4.25 -35.95 4.2 -33.4 4.1 -29.55 4.9 -25.8 5.45 -23.1 5.05 -20.5 6.4 -19.15 7.2 -17.15 L9.15 -12.75 9.35 -12.1 Q12.45 -6.9 14.85 -1.5 L15.05 -0.45 14.85 1.05 Q14.45 2.65 12.1 2.45 8.35 2.1 4.9 1.05 4.25 0.85 4.2 0.15 4.1 -1.95 6.1 -2.15 L10.45 -2.0 9.35 -4.15 Q6.65 -7.85 4.85 -12.0 L4.1 -13.55 Q2.8 -15.95 1.9 -18.45 1.15 -19.0 1.1 -20.5 1.1 -25.6 0.2 -30.55 L0.05 -31.45 -2.7 -28.05 Q-5.55 -24.9 -7.65 -21.3 -7.25 -20.4 -7.25 -19.15 L-7.15 -14.35 Q-6.9 -9.9 -5.4 -5.75 -4.5 -3.4 -4.65 -1.05 L-4.5 -0.7 Q-4.25 0.75 -5.15 1.25 L-5.8 1.6 -6.6 1.6 -13.25 1.9 -15.15 1.65 Q-18.35 0.75 -16.15 -1.6 -15.55 -2.25 -14.55 -2.4 L-13.6 -2.5 -8.95 -2.3 Q-9.25 -5.3 -10.0 -8.25 -10.9 -11.85 -11.35 -15.55 L-11.9 -19.85 Q-12.1 -21.1 -11.65 -21.95 L-11.3 -22.85 -9.2 -26.1 -4.2 -32.95 -1.9 -36.35 -1.85 -36.95 Q-1.7 -38.45 -1.7 -40.0 -1.65 -44.65 -2.3 -49.15 L-3.45 -57.95 -3.65 -58.1 -5.85 -59.95 Q-7.9 -61.75 -7.4 -64.25 -7.2 -65.05 -6.4 -65.2 L-5.95 -65.3 -4.25 -64.95 -4.65 -66.85 Q-5.05 -68.65 -6.0 -70.1 -6.45 -70.75 -6.4 -71.5 -6.3 -73.05 -4.75 -73.2 -2.25 -72.8 -1.8 -70.25 L-1.55 -68.9 Q-0.65 -65.2 -0.25 -61.35 L-0.1 -59.95 Q3.1 -57.6 6.7 -55.75 L8.05 -54.5 Q8.9 -53.05 7.4 -52.3 L5.5 -52.25 Q2.95 -53.5 0.6 -55.05 L0.4 -55.2 M-23.0 -64.35 Q-23.55 -67.0 -21.2 -67.7 -18.15 -67.7 -18.25 -64.85 -18.3 -64.2 -18.7 -63.7 L-12.15 -56.15 Q-11.1 -54.9 -10.4 -53.5 -10.25 -53.15 -10.4 -52.85 -11.3 -50.7 -13.3 -52.15 -14.65 -53.15 -15.65 -54.5 L-18.6 -58.1 -20.95 -60.6 Q-22.55 -62.2 -23.0 -64.35" fill="#666666" fill-rule="evenodd" stroke="none"/>
  </g>
</svg>
