<?xml version="1.0" encoding="UTF-8" standalone="no"?>
<svg xmlns:ffdec="https://www.free-decompiler.com/flash" xmlns:xlink="http://www.w3.org/1999/xlink" ffdec:objectType="shape" height="76.15px" width="37.95px" xmlns="http://www.w3.org/2000/svg">
  <g transform="matrix(1.0, 0.0, 0.0, 1.0, 22.9, 73.7)">
    <path d="M0.0 -55.35 Q0.25 -52.75 0.75 -50.2 L1.75 -45.05 Q2.3 -42.1 2.2 -39.1 L2.45 -39.1 2.5 -38.75 2.6 -37.15 Q4.25 -35.95 4.2 -33.4 4.1 -29.55 4.9 -25.8 5.45 -23.1 5.05 -20.5 6.4 -19.15 7.2 -17.15 L9.15 -12.75 9.35 -12.1 Q12.45 -6.9 14.85 -1.5 L15.05 -0.45 14.85 1.05 Q14.45 2.65 12.1 2.45 8.35 2.1 4.9 1.05 4.25 0.85 4.2 0.15 4.1 -1.95 6.1 -2.15 L10.45 -2.0 9.35 -4.15 Q6.65 -7.85 4.85 -12.0 L4.1 -13.55 Q2.8 -15.95 1.9 -18.45 1.15 -19.0 1.1 -20.5 1.1 -25.6 0.2 -30.55 L0.05 -31.45 -2.7 -28.05 Q-5.55 -24.9 -7.65 -21.3 -7.25 -20.4 -7.25 -19.15 L-7.15 -14.35 Q-6.9 -9.9 -5.4 -5.75 -4.5 -3.4 -4.65 -1.05 L-4.5 -0.7 Q-4.25 0.75 -5.15 1.25 L-5.8 1.6 -6.6 1.6 -13.25 1.9 -15.15 1.65 Q-18.35 0.75 -16.15 -1.6 -15.55 -2.25 -14.55 -2.4 L-13.6 -2.5 -8.95 -2.3 Q-9.25 -5.3 -10.0 -8.25 -10.9 -11.85 -11.35 -15.55 L-11.9 -19.85 Q-12.1 -21.1 -11.65 -21.95 L-11.3 -22.85 -9.2 -26.1 -4.2 -32.95 -1.9 -36.35 -1.85 -36.95 -1.7 -39.1 -1.2 -39.1 -1.2 -40.0 Q-1.7 -45.15 -2.8 -50.15 -3.6 -53.85 -3.85 -57.6 L-5.0 -58.45 Q-6.6 -59.7 -7.4 -61.55 L-7.55 -63.0 Q-7.25 -64.85 -5.4 -65.15 L-4.45 -64.85 Q-5.05 -67.7 -6.4 -70.3 -7.6 -72.65 -5.3 -73.65 L-5.05 -73.7 Q-3.4 -73.2 -2.75 -71.4 -1.85 -68.9 -1.2 -66.3 L-0.9 -64.8 -0.35 -59.5 Q1.15 -58.45 2.85 -57.55 L8.0 -54.9 Q8.45 -54.65 8.5 -54.1 8.5 -51.95 6.15 -52.35 5.05 -52.55 4.05 -53.1 L0.0 -55.35 M-22.85 -65.3 Q-23.1 -67.6 -21.0 -68.05 -18.0 -68.1 -18.05 -65.2 -18.05 -64.6 -18.35 -64.05 L-12.8 -56.2 -11.6 -54.1 Q-10.9 -52.6 -12.4 -51.9 -13.3 -51.45 -14.0 -52.2 -17.35 -55.7 -19.9 -59.85 L-21.4 -61.95 Q-22.6 -63.45 -22.85 -65.3" fill="#666666" fill-rule="evenodd" stroke="none"/>
  </g>
</svg>
