<?xml version="1.0" encoding="UTF-8" standalone="no"?>
<svg xmlns:ffdec="https://www.free-decompiler.com/flash" xmlns:xlink="http://www.w3.org/1999/xlink" ffdec:objectType="shape" height="75.65px" width="37.35px" xmlns="http://www.w3.org/2000/svg">
  <g transform="matrix(1.0, 0.0, 0.0, 1.0, 22.3, 73.2)">
    <path d="M0.05 -56.7 Q0.35 -54.55 0.8 -52.35 1.35 -49.55 1.35 -46.6 L1.35 -45.95 1.8 -40.95 Q2.6 -40.2 2.5 -38.9 L2.5 -38.75 2.6 -37.15 Q4.25 -35.95 4.2 -33.4 4.1 -29.55 4.9 -25.8 5.45 -23.1 5.05 -20.5 6.4 -19.15 7.2 -17.15 L9.15 -12.75 9.35 -12.1 Q12.45 -6.9 14.85 -1.5 L15.05 -0.45 14.85 1.05 Q14.45 2.65 12.1 2.45 8.35 2.1 4.9 1.05 4.25 0.85 4.2 0.15 4.1 -1.95 6.1 -2.15 L10.45 -2.0 9.35 -4.15 Q6.65 -7.85 4.85 -12.0 L4.1 -13.55 Q2.8 -15.95 1.9 -18.45 1.15 -19.0 1.1 -20.5 1.1 -25.6 0.2 -30.55 L0.05 -31.45 -2.7 -28.05 Q-5.55 -24.9 -7.65 -21.3 -7.25 -20.4 -7.25 -19.15 L-7.15 -14.35 Q-6.9 -9.9 -5.4 -5.75 -4.5 -3.4 -4.65 -1.05 L-4.5 -0.7 Q-4.25 0.75 -5.15 1.25 L-5.8 1.6 -6.6 1.6 -13.25 1.9 -15.15 1.65 Q-18.35 0.75 -16.15 -1.6 -15.55 -2.25 -14.55 -2.4 L-13.6 -2.5 -8.95 -2.3 Q-9.25 -5.3 -10.0 -8.25 -10.9 -11.85 -11.35 -15.55 L-11.9 -19.85 Q-12.1 -21.1 -11.65 -21.95 L-11.3 -22.85 -9.2 -26.1 -4.2 -32.95 -1.9 -36.35 -1.85 -36.95 -1.7 -39.1 -1.6 -39.1 -1.9 -43.45 -2.2 -47.3 Q-2.4 -51.55 -3.3 -55.55 L-3.5 -56.55 -3.95 -59.9 -5.65 -61.25 Q-7.65 -62.8 -6.55 -65.05 -6.3 -65.6 -5.65 -65.85 L-4.95 -66.0 -4.65 -65.95 -4.8 -66.7 Q-5.2 -68.55 -6.25 -70.1 -7.15 -71.45 -6.05 -72.65 -5.6 -73.15 -4.95 -73.2 -2.6 -72.6 -1.95 -70.1 -0.95 -66.35 -0.6 -62.5 L-0.5 -61.65 5.75 -56.95 Q6.15 -56.65 6.6 -56.45 8.75 -55.4 7.75 -53.45 7.2 -52.5 6.15 -52.85 3.95 -53.55 2.15 -55.0 L0.05 -56.7 M-21.15 -68.8 L-20.45 -69.05 Q-17.55 -68.95 -17.45 -66.05 -17.45 -64.9 -18.05 -64.0 -15.85 -59.6 -12.6 -55.75 -11.2 -54.1 -12.95 -52.95 L-14.25 -52.85 Q-15.35 -53.3 -16.1 -54.3 -18.95 -58.05 -21.3 -62.2 -22.7 -64.7 -22.15 -67.55 -22.0 -68.45 -21.15 -68.8" fill="#666666" fill-rule="evenodd" stroke="none"/>
  </g>
</svg>
