<?xml version="1.0" encoding="UTF-8" standalone="no"?>
<svg xmlns:ffdec="https://www.free-decompiler.com/flash" xmlns:xlink="http://www.w3.org/1999/xlink" ffdec:objectType="shape" height="61.35px" width="59.1px" xmlns="http://www.w3.org/2000/svg">
  <g transform="matrix(1.0, 0.0, 0.0, 1.0, 37.7, 71.75)">
    <path d="M15.1 -52.7 L15.6 -50.95 17.9 -44.55 Q19.05 -40.75 17.75 -37.1 17.5 -36.45 16.75 -36.3 13.65 -35.65 13.15 -38.5 12.85 -40.3 14.15 -41.45 13.2 -46.25 11.05 -50.8 10.8 -51.3 10.85 -51.85 8.9 -54.75 11.45 -56.55 L12.0 -56.8 Q14.6 -55.75 15.1 -52.7 M1.95 -33.1 L1.8 -30.55 1.55 -19.3 18.35 -21.25 19.7 -21.05 Q22.0 -20.25 21.15 -17.95 L20.9 -17.4 Q21.15 -14.2 20.4 -11.2 20.25 -10.7 19.75 -10.55 17.2 -9.8 17.0 -12.3 16.85 -14.45 16.85 -16.6 8.1 -16.5 -0.5 -14.8 -1.4 -14.65 -1.9 -15.35 -2.8 -16.7 -2.7 -18.45 L-2.3 -29.15 -2.35 -32.2 -12.8 -31.25 -13.75 -27.7 -14.1 -26.75 -14.85 -25.5 -16.4 -19.4 Q-17.15 -16.0 -19.25 -13.35 -19.65 -12.8 -20.35 -12.85 L-26.6 -14.15 Q-27.9 -14.55 -28.8 -15.6 -29.6 -16.6 -28.85 -17.65 -27.8 -19.1 -26.05 -18.4 -23.9 -17.55 -21.6 -17.35 L-20.05 -22.7 -19.05 -26.0 -17.95 -28.6 Q-17.3 -31.45 -16.15 -34.05 -15.7 -35.0 -14.65 -35.15 L-2.6 -36.5 -3.65 -48.5 Q-4.3 -54.2 -5.5 -59.75 -6.5 -64.35 -7.85 -68.8 -8.1 -69.65 -7.8 -70.45 -7.3 -71.7 -6.0 -71.75 -3.85 -71.15 -3.55 -68.85 L-3.4 -68.3 Q-1.3 -62.0 -0.45 -55.45 L1.15 -42.35 1.5 -35.85 Q2.25 -34.85 1.95 -33.1 M-37.7 -67.6 Q-37.65 -69.95 -35.35 -70.35 -31.5 -69.65 -31.9 -65.85 L-31.95 -65.7 Q-25.6 -60.3 -17.85 -57.1 -15.55 -56.1 -16.8 -54.1 -17.55 -52.95 -18.85 -53.35 L-22.9 -54.95 Q-29.1 -58.0 -34.45 -62.35 L-36.4 -64.2 Q-37.7 -65.65 -37.7 -67.6" fill="#666666" fill-rule="evenodd" stroke="none"/>
  </g>
</svg>
