<?xml version="1.0" encoding="UTF-8" standalone="no"?>
<svg xmlns:ffdec="https://www.free-decompiler.com/flash" xmlns:xlink="http://www.w3.org/1999/xlink" ffdec:objectType="shape" height="62.85px" width="56.9px" xmlns="http://www.w3.org/2000/svg">
  <g transform="matrix(1.0, 0.0, 0.0, 1.0, 38.2, 71.45)">
    <path d="M13.95 -53.3 Q14.7 -50.05 15.05 -46.7 L15.95 -40.6 16.25 -38.6 Q16.65 -36.05 14.4 -35.25 12.7 -34.65 11.9 -36.1 11.35 -37.1 11.55 -38.25 11.7 -39.5 12.35 -40.5 L10.95 -49.5 10.0 -53.75 Q9.75 -54.5 10.05 -55.2 10.55 -56.2 11.55 -56.2 13.45 -55.45 13.95 -53.3 M1.05 -42.85 L2.05 -37.15 2.2 -36.0 Q2.85 -35.0 2.45 -33.35 L2.25 -31.7 Q2.05 -25.9 1.05 -20.25 L1.0 -19.95 4.4 -20.65 16.25 -20.45 16.85 -20.65 17.35 -20.4 Q18.1 -20.35 18.35 -19.6 L18.35 -19.55 Q19.0 -18.6 18.4 -17.0 17.9 -15.55 18.0 -13.9 18.25 -11.35 17.4 -9.15 17.15 -8.6 16.6 -8.6 14.1 -8.65 14.3 -11.2 L14.7 -16.2 14.85 -17.35 4.8 -16.9 Q2.5 -16.8 0.3 -15.9 L-0.55 -15.7 -1.05 -15.7 Q-1.65 -15.65 -2.1 -15.95 -2.65 -16.25 -2.65 -16.85 -3.0 -17.6 -2.85 -18.35 -1.9 -24.85 -1.35 -31.35 L-1.25 -32.4 -11.8 -29.1 -12.35 -28.9 -12.55 -28.5 -12.9 -27.0 Q-13.05 -23.7 -14.45 -20.7 L-16.95 -15.15 Q-17.75 -13.4 -18.85 -11.95 -19.6 -10.1 -21.85 -10.95 L-24.75 -11.6 Q-28.8 -12.05 -31.65 -14.8 -32.0 -15.1 -31.95 -15.5 -31.75 -17.05 -30.25 -17.2 -27.3 -15.9 -24.1 -15.4 L-21.35 -14.65 Q-18.75 -20.3 -16.65 -26.05 -16.15 -27.4 -16.15 -28.9 L-16.05 -29.7 -16.1 -29.85 Q-16.3 -31.2 -15.0 -31.7 L-5.9 -34.75 -1.5 -36.1 -2.2 -40.05 -3.3 -45.8 Q-4.75 -52.2 -5.45 -58.8 L-5.75 -61.9 Q-5.9 -64.3 -6.9 -66.35 -7.85 -66.8 -8.35 -67.9 L-8.7 -69.05 Q-9.15 -71.1 -7.15 -71.45 -5.8 -70.9 -5.15 -69.95 -4.0 -69.15 -3.45 -67.6 -2.25 -64.45 -2.1 -61.0 -1.9 -56.05 -0.9 -51.3 L0.65 -44.8 1.05 -42.85 M-37.65 -62.55 Q-38.2 -63.1 -38.2 -63.85 -38.15 -66.55 -35.55 -67.3 -32.35 -67.3 -32.6 -64.35 -32.65 -63.75 -33.0 -63.15 -26.95 -58.2 -19.25 -57.0 -16.7 -56.6 -15.4 -54.65 -14.95 -54.1 -15.45 -53.5 -16.75 -51.9 -18.8 -52.75 -20.65 -53.5 -22.6 -53.85 -24.35 -54.1 -25.8 -55.0 -32.55 -57.4 -37.65 -62.55" fill="#666666" fill-rule="evenodd" stroke="none"/>
  </g>
</svg>
