<?xml version="1.0" encoding="UTF-8" standalone="no"?>
<svg xmlns:ffdec="https://www.free-decompiler.com/flash" xmlns:xlink="http://www.w3.org/1999/xlink" ffdec:objectType="shape" height="71.0px" width="42.5px" xmlns="http://www.w3.org/2000/svg">
  <g transform="matrix(1.0, 0.0, 0.0, 1.0, 30.95, 69.6)">
    <path d="M5.8 -51.85 Q8.5 -51.2 7.75 -48.3 L7.5 -46.65 Q7.4 -40.0 6.1 -33.65 5.35 -30.1 2.0 -29.25 0.2 -25.0 -2.65 -21.1 L-3.95 -19.2 6.4 -17.75 Q8.65 -17.35 10.6 -16.25 11.4 -15.8 11.35 -15.1 11.65 -14.35 11.5 -13.25 11.1 -10.3 9.85 -7.5 L9.25 -6.45 6.55 -6.4 Q6.0 -7.1 6.2 -8.0 L7.35 -12.05 7.65 -13.45 2.2 -14.6 -6.25 -16.2 -6.65 -16.2 Q-7.3 -16.3 -7.7 -16.55 L-8.1 -16.9 -8.3 -17.85 -8.2 -18.55 -8.2 -18.6 Q-7.75 -20.15 -6.8 -21.55 L-4.9 -24.4 -8.35 -20.6 -9.15 -19.8 Q-9.2 -19.1 -9.65 -18.25 L-10.7 -15.55 -12.1 -11.2 -13.35 -5.65 -13.7 -4.8 Q-13.75 -1.8 -15.25 0.5 L-15.35 0.7 Q-15.8 1.55 -16.8 1.35 -20.6 0.5 -24.2 -0.9 -25.4 -1.4 -25.15 -2.65 -24.8 -3.95 -23.55 -4.05 L-17.8 -2.4 -16.7 -6.75 Q-15.6 -12.85 -13.65 -18.75 L-12.9 -20.85 -12.15 -21.9 Q-8.1 -26.95 -3.25 -31.25 L-2.4 -31.95 -2.55 -34.8 -3.4 -44.15 -4.7 -55.55 -5.2 -58.0 Q-6.5 -62.6 -8.1 -67.05 -8.9 -69.15 -6.7 -69.6 -4.45 -69.05 -4.05 -66.5 L-3.9 -66.0 Q-2.5 -62.5 -1.7 -58.7 -0.4 -52.95 0.1 -46.95 L0.2 -45.2 Q0.5 -39.6 1.3 -34.0 L2.45 -34.15 2.5 -34.85 2.9 -35.55 Q3.9 -41.75 3.85 -48.0 3.85 -49.7 4.6 -51.05 5.0 -51.8 5.8 -51.85 M-26.6 -49.6 Q-19.7 -50.15 -13.3 -52.55 -10.6 -52.55 -11.3 -50.15 -11.6 -49.2 -12.65 -48.85 -18.3 -46.95 -24.2 -46.0 -27.4 -45.45 -30.2 -46.5 -30.75 -46.7 -30.85 -47.25 -31.5 -50.3 -28.4 -50.25 -27.4 -50.25 -26.6 -49.6" fill="#666666" fill-rule="evenodd" stroke="none"/>
  </g>
</svg>
