<?xml version="1.0" encoding="UTF-8" standalone="no"?>
<svg xmlns:ffdec="https://www.free-decompiler.com/flash" xmlns:xlink="http://www.w3.org/1999/xlink" ffdec:objectType="shape" height="71.6px" width="38.05px" xmlns="http://www.w3.org/2000/svg">
  <g transform="matrix(1.0, 0.0, 0.0, 1.0, 28.8, 70.35)">
    <path d="M4.85 -49.8 Q7.95 -48.75 6.4 -45.75 5.55 -44.15 5.1 -42.35 L4.1 -38.9 Q3.4 -36.1 1.9 -33.7 L1.85 -31.25 Q1.8 -30.0 0.6 -29.65 L-1.1 -29.8 -1.65 -28.55 -6.35 -20.75 Q-1.15 -19.75 3.65 -17.6 L8.8 -15.25 9.25 -14.55 Q9.4 -11.85 7.95 -9.45 7.15 -8.1 6.8 -6.55 6.55 -5.3 5.65 -4.45 3.8 -2.6 2.45 -4.85 1.9 -5.65 2.2 -6.7 3.05 -9.6 4.45 -12.35 3.45 -13.25 1.75 -13.95 -3.5 -16.0 -8.9 -17.4 L-9.2 -15.85 Q-10.15 -9.35 -11.35 -2.9 -11.65 -1.3 -12.3 0.2 -12.7 1.25 -13.85 1.25 L-22.05 0.95 Q-22.55 0.9 -22.85 0.4 -24.0 -1.8 -21.55 -2.45 L-19.35 -2.95 -15.4 -3.05 Q-14.15 -9.15 -13.45 -15.35 L-13.25 -18.15 Q-13.2 -19.2 -12.8 -20.05 -12.85 -21.05 -11.9 -21.95 -10.3 -23.4 -9.25 -25.3 -7.25 -29.05 -4.65 -32.35 L-4.7 -32.55 Q-5.0 -35.55 -2.15 -35.75 -2.45 -40.45 -3.0 -45.0 L-3.8 -51.55 Q-4.6 -58.4 -7.75 -64.6 L-8.25 -65.9 Q-8.75 -67.95 -7.55 -69.65 -7.05 -70.35 -6.25 -70.35 -3.9 -69.65 -3.85 -67.1 -3.8 -65.65 -3.25 -64.3 -2.65 -63.8 -2.5 -63.1 L-2.3 -62.4 Q0.05 -56.9 0.5 -50.8 L1.2 -44.35 Q2.05 -47.05 3.75 -49.35 4.0 -49.7 4.5 -49.75 L4.85 -49.8 M-11.6 -47.3 L-24.05 -42.85 Q-26.35 -42.0 -27.95 -43.55 -28.75 -44.35 -28.8 -45.5 -28.8 -47.0 -27.5 -47.75 -25.25 -49.0 -23.2 -47.75 -17.25 -49.7 -11.55 -51.95 -8.85 -51.25 -10.0 -48.75 -10.5 -47.7 -11.6 -47.3" fill="#666666" fill-rule="evenodd" stroke="none"/>
  </g>
</svg>
