<?xml version="1.0" encoding="UTF-8" standalone="no"?>
<svg xmlns:ffdec="https://www.free-decompiler.com/flash" xmlns:xlink="http://www.w3.org/1999/xlink" ffdec:objectType="shape" height="72.55px" width="32.9px" xmlns="http://www.w3.org/2000/svg">
  <g transform="matrix(1.0, 0.0, 0.0, 1.0, 25.0, 70.95)">
    <path d="M1.15 -42.35 L0.9 -41.7 1.7 -36.05 Q2.3 -34.75 2.15 -32.9 L2.1 -32.35 2.15 -32.25 1.6 -30.95 1.45 -31.05 1.2 -30.6 Q-1.4 -25.6 -4.9 -21.05 L-5.2 -20.4 -2.9 -19.35 Q2.25 -17.4 7.05 -14.95 8.35 -14.3 7.65 -13.05 L3.1 -5.45 Q2.4 -4.3 1.15 -4.85 -1.3 -5.85 0.1 -8.2 L2.25 -11.15 2.75 -11.6 2.85 -12.05 3.15 -12.7 Q-1.5 -14.6 -6.1 -16.8 -6.45 -14.6 -6.3 -12.4 L-5.9 -4.3 Q-5.85 -2.1 -6.2 -0.05 L-6.4 0.85 -6.4 0.9 -6.55 1.1 Q-7.0 1.5 -7.9 1.55 L-14.55 1.3 Q-15.0 1.55 -15.55 1.3 L-16.0 1.05 -16.05 1.05 Q-16.55 0.9 -16.7 0.45 -17.1 -0.1 -16.8 -0.7 -16.7 -1.75 -15.65 -2.05 L-15.15 -2.15 -9.6 -1.95 Q-9.75 -10.25 -10.2 -18.5 L-10.2 -18.95 -10.65 -19.25 Q-14.2 -21.05 -11.35 -24.0 L-8.0 -27.15 Q-5.1 -29.6 -2.55 -32.45 L-2.05 -33.5 Q-2.05 -34.7 -2.2 -35.9 -3.9 -33.25 -6.0 -30.95 -8.15 -28.6 -10.55 -30.8 -12.3 -32.45 -10.8 -34.45 -9.5 -36.2 -7.45 -35.05 -4.95 -38.45 -2.95 -42.4 L-4.3 -51.45 -4.7 -54.55 -4.75 -55.45 Q-6.0 -59.8 -7.55 -64.15 L-7.65 -65.1 Q-9.95 -67.85 -8.2 -70.45 -7.85 -70.95 -7.3 -70.95 -5.05 -69.8 -4.1 -67.1 -1.25 -58.8 -0.2 -50.1 L0.0 -48.7 Q0.55 -50.0 1.85 -50.15 5.25 -48.95 2.95 -45.65 1.9 -44.1 1.15 -42.35 M-9.0 -45.55 Q-13.75 -41.0 -19.7 -38.05 -22.9 -36.5 -24.55 -38.9 -25.05 -39.55 -25.0 -40.5 -24.8 -44.0 -21.2 -43.0 -20.35 -42.8 -20.05 -42.0 -14.9 -45.3 -10.2 -49.25 -9.8 -48.3 -8.35 -47.8 L-7.25 -47.6 -7.5 -47.3 Q-8.15 -46.35 -9.0 -45.55" fill="#666666" fill-rule="evenodd" stroke="none"/>
  </g>
</svg>
