<?xml version="1.0" encoding="UTF-8" standalone="no"?>
<svg xmlns:ffdec="https://www.free-decompiler.com/flash" xmlns:xlink="http://www.w3.org/1999/xlink" ffdec:objectType="shape" height="71.1px" width="26.55px" xmlns="http://www.w3.org/2000/svg">
  <g transform="matrix(1.0, 0.0, 0.0, 1.0, 22.35, 69.2)">
    <path d="M2.5 -46.6 L0.8 -43.75 -0.05 -42.5 0.0 -42.0 0.3 -39.6 0.75 -36.0 Q1.0 -34.3 0.85 -32.5 2.0 -30.05 -0.35 -29.5 L-0.4 -29.45 -1.6 -26.4 -4.1 -19.5 -3.9 -19.4 Q-0.7 -17.6 2.8 -16.35 4.35 -15.8 4.2 -14.4 4.25 -13.65 3.7 -12.6 L1.05 -7.8 0.45 -6.9 -2.7 -6.85 Q-3.35 -7.55 -3.1 -8.6 -2.55 -10.9 -1.0 -12.85 L-0.65 -13.3 -5.05 -15.35 -4.95 -14.55 Q-4.7 -11.2 -3.7 -8.0 -2.55 -4.35 -2.55 -0.5 -2.35 0.3 -2.6 0.8 L-3.0 1.3 Q-4.35 2.3 -5.3 1.7 -8.4 1.95 -11.55 1.8 -13.6 1.75 -13.4 -0.2 -13.2 -1.9 -11.55 -2.05 L-6.8 -1.9 -8.55 -10.15 -9.35 -13.55 -9.6 -15.65 Q-9.8 -16.15 -9.65 -16.75 L-9.4 -17.6 -12.9 -19.65 Q-14.05 -20.35 -14.5 -21.4 -15.35 -22.4 -14.55 -23.45 L-14.15 -23.95 Q-9.65 -28.75 -4.15 -32.45 L-3.5 -32.9 -3.35 -33.1 -3.45 -34.25 -3.55 -35.95 -3.7 -37.55 -5.4 -35.5 -6.55 -34.1 Q-8.1 -32.05 -10.5 -31.5 -11.5 -31.25 -12.15 -32.0 -12.85 -32.8 -12.65 -33.85 -12.15 -36.45 -9.35 -36.65 -9.0 -36.65 -8.75 -36.95 L-4.25 -43.1 -4.75 -49.15 Q-5.1 -54.75 -6.35 -60.15 L-6.6 -60.9 Q-7.75 -64.05 -8.05 -67.35 -8.15 -68.5 -7.0 -68.95 L-6.25 -69.2 Q-3.95 -68.4 -3.5 -65.8 L-3.25 -64.9 Q-1.15 -58.6 -0.9 -51.9 L-0.65 -48.0 0.4 -49.15 0.8 -49.4 1.05 -49.45 Q3.7 -48.9 2.5 -46.6 M-7.35 -44.55 L-12.75 -40.95 Q-16.0 -39.0 -19.5 -37.75 L-20.5 -37.7 Q-22.5 -38.2 -22.35 -40.3 L-21.95 -41.55 Q-20.9 -43.2 -18.85 -42.65 -18.3 -42.55 -17.8 -42.25 -13.35 -44.7 -9.4 -47.65 L-8.55 -48.4 Q-8.05 -48.9 -7.4 -48.9 -5.0 -48.3 -6.05 -46.1 -6.5 -45.15 -7.35 -44.55 M-8.8 -22.55 L-7.85 -21.95 -6.95 -23.65 -6.3 -25.5 -9.45 -22.95 -8.8 -22.55" fill="#666666" fill-rule="evenodd" stroke="none"/>
  </g>
</svg>
