<?xml version="1.0" encoding="UTF-8" standalone="no"?>
<svg xmlns:ffdec="https://www.free-decompiler.com/flash" xmlns:xlink="http://www.w3.org/1999/xlink" ffdec:objectType="shape" height="71.4px" width="28.5px" xmlns="http://www.w3.org/2000/svg">
  <g transform="matrix(1.0, 0.0, 0.0, 1.0, 22.45, 70.15)">
    <path d="M1.15 -31.25 L0.6 -30.75 0.35 -29.9 0.15 -28.65 -0.15 -20.25 -0.15 -19.35 Q0.0 -18.2 -0.2 -17.2 0.3 -16.55 0.45 -15.55 L0.85 -13.7 Q2.2 -8.8 4.8 -4.35 6.0 -2.3 6.05 -0.05 6.05 0.4 5.65 0.7 4.8 1.3 4.1 1.2 L2.55 1.25 -3.85 0.7 Q-5.0 0.65 -5.15 -0.5 -5.45 -2.3 -3.6 -2.55 L1.45 -2.5 Q-0.6 -6.55 -2.1 -10.8 L-2.7 -12.8 -3.65 -11.75 -4.9 -10.3 -5.5 -9.75 Q-6.6 -7.2 -9.0 -8.0 -9.5 -8.15 -9.6 -8.65 -9.95 -10.65 -8.25 -12.1 L-7.3 -13.05 -4.85 -16.1 -6.25 -17.55 Q-9.45 -21.6 -13.7 -24.45 -14.95 -25.3 -15.75 -26.5 L-16.1 -26.9 Q-16.75 -28.05 -16.2 -28.8 L-16.05 -28.95 Q-15.65 -29.45 -15.0 -29.55 -11.65 -30.9 -8.1 -31.85 L-1.6 -33.85 -1.55 -36.45 Q-1.3 -40.5 -1.75 -44.45 -5.65 -42.25 -9.7 -40.45 -12.65 -39.15 -15.85 -38.5 -17.7 -38.15 -19.15 -39.15 -20.05 -39.75 -19.95 -40.75 -21.9 -40.55 -22.35 -42.5 -22.7 -44.0 -21.55 -45.0 -19.5 -46.75 -16.95 -45.45 L-16.3 -45.5 Q-11.85 -48.05 -7.1 -50.15 L-4.65 -50.95 Q-2.15 -50.6 -3.1 -48.4 -3.3 -47.9 -3.8 -47.7 -8.55 -45.8 -13.05 -43.3 L-13.35 -43.15 -13.2 -43.0 Q-10.6 -43.5 -8.2 -45.0 -5.3 -46.8 -2.25 -48.2 L-3.0 -51.8 -3.85 -55.2 -4.8 -58.5 Q-6.8 -62.9 -8.6 -67.45 -9.45 -69.65 -7.15 -70.15 -5.05 -69.5 -4.45 -67.15 L-3.55 -64.7 Q-1.4 -60.0 -0.15 -55.1 1.0 -50.45 1.55 -45.7 2.15 -40.6 2.05 -35.35 2.0 -33.75 1.55 -32.25 1.6 -31.75 1.15 -31.25 M-10.35 -26.8 Q-6.75 -23.8 -3.65 -20.25 L-3.55 -21.6 Q-3.3 -24.15 -3.45 -26.75 L-3.3 -29.6 -10.9 -27.2 -10.35 -26.8" fill="#666666" fill-rule="evenodd" stroke="none"/>
  </g>
</svg>
