<?xml version="1.0" encoding="UTF-8" standalone="no"?>
<svg xmlns:ffdec="https://www.free-decompiler.com/flash" xmlns:xlink="http://www.w3.org/1999/xlink" ffdec:objectType="shape" height="72.25px" width="36.8px" xmlns="http://www.w3.org/2000/svg">
  <g transform="matrix(1.0, 0.0, 0.0, 1.0, 24.25, 70.05)">
    <path d="M1.8 -50.75 Q4.4 -50.5 3.45 -48.2 L2.95 -47.35 2.4 -46.55 3.0 -40.05 3.0 -34.75 2.95 -33.05 Q2.95 -32.1 2.55 -31.6 L2.4 -30.8 Q2.2 -29.9 2.15 -28.9 1.95 -26.05 1.2 -23.35 L0.8 -18.4 2.4 -16.75 3.1 -15.85 9.75 -7.9 12.1 -4.7 12.5 -4.05 12.45 -3.25 12.35 -3.0 12.2 -2.65 Q11.75 -1.65 10.75 -1.1 8.25 0.3 5.9 1.85 L5.25 2.1 Q3.05 2.6 2.0 0.9 1.55 0.25 2.0 -0.5 2.85 -1.85 4.6 -1.45 L8.3 -3.95 2.35 -10.9 -2.35 -16.85 -2.55 -17.55 -2.5 -17.7 -2.6 -18.45 Q-2.5 -23.0 -1.7 -27.4 -1.35 -29.15 -1.3 -31.0 L-1.25 -31.3 -11.05 -29.65 -11.35 -29.55 -11.2 -29.05 -10.55 -27.15 -7.55 -18.65 Q-6.5 -17.55 -6.5 -16.45 -6.45 -15.95 -6.7 -15.25 -7.0 -14.5 -7.8 -14.25 -10.5 -13.3 -13.05 -11.9 -14.15 -11.3 -15.4 -11.4 -16.8 -11.5 -16.75 -12.9 -16.7 -14.65 -14.9 -15.2 L-13.35 -15.8 -10.75 -16.8 -11.7 -19.3 -11.85 -20.4 Q-13.35 -24.95 -15.35 -29.35 L-15.6 -30.6 Q-15.65 -31.5 -14.55 -32.1 L-12.75 -32.8 -3.05 -34.65 -0.9 -34.85 -0.65 -34.9 -0.4 -34.95 -0.75 -42.45 -3.4 -39.3 -5.4 -37.35 Q-7.85 -35.3 -11.0 -35.05 -12.1 -34.95 -12.45 -36.0 -13.35 -38.6 -10.9 -39.7 L-9.55 -39.85 Q-7.9 -39.5 -6.6 -40.9 -3.75 -44.05 -1.4 -47.6 L-1.45 -47.8 -1.6 -48.5 Q-2.0 -48.1 -2.9 -47.9 -12.65 -45.95 -22.65 -46.55 -23.8 -46.6 -24.1 -47.65 -24.35 -48.5 -24.1 -49.3 -23.75 -50.45 -22.65 -51.0 L-21.7 -51.3 Q-19.55 -51.8 -18.6 -50.1 L-18.55 -49.95 Q-12.95 -49.7 -7.25 -50.85 L-6.3 -51.0 Q-4.2 -51.4 -2.15 -51.0 L-2.1 -51.0 -3.65 -57.9 -3.85 -58.75 Q-5.25 -63.6 -8.25 -67.65 L-8.4 -68.3 Q-8.25 -69.9 -6.7 -70.05 -4.95 -69.35 -3.85 -67.6 -2.4 -65.3 -1.5 -62.75 -0.2 -59.1 0.6 -55.3 L1.55 -50.65 1.8 -50.75" fill="#666666" fill-rule="evenodd" stroke="none"/>
  </g>
</svg>
