<?xml version="1.0" encoding="UTF-8" standalone="no"?>
<svg xmlns:ffdec="https://www.free-decompiler.com/flash" xmlns:xlink="http://www.w3.org/1999/xlink" ffdec:objectType="shape" height="71.7px" width="40.5px" xmlns="http://www.w3.org/2000/svg">
  <g transform="matrix(1.0, 0.0, 0.0, 1.0, 27.15, 70.5)">
    <path d="M3.8 -51.5 L4.15 -51.6 Q6.7 -50.7 5.75 -48.05 4.65 -44.95 2.95 -42.1 L3.0 -41.05 Q3.1 -37.4 2.55 -33.85 2.95 -33.3 2.55 -32.4 2.95 -31.65 2.65 -30.4 L2.4 -28.7 Q2.1 -23.9 2.05 -19.0 L1.95 -17.95 Q3.3 -17.3 4.4 -16.1 6.9 -13.5 9.7 -11.15 L12.25 -9.0 Q14.2 -7.75 12.75 -5.25 12.0 -4.0 11.6 -2.55 11.25 -1.3 10.55 -0.3 8.75 2.25 6.35 0.45 5.8 0.05 6.0 -0.6 6.35 -1.95 7.7 -2.7 8.25 -4.95 9.35 -6.85 L8.35 -7.65 -0.5 -15.35 -0.9 -15.55 -1.8 -16.5 -1.85 -16.65 Q-2.3 -17.55 -1.9 -18.75 -1.3 -20.65 -1.3 -22.7 L-1.25 -28.45 -1.1 -30.45 -9.5 -29.05 -11.5 -29.0 -11.65 -27.75 Q-11.65 -21.0 -10.85 -14.4 -10.7 -13.35 -11.05 -12.55 -11.2 -11.7 -12.05 -11.45 -12.65 -11.0 -13.25 -11.3 -17.3 -11.15 -21.35 -11.35 -22.2 -11.35 -22.45 -12.2 -23.1 -14.2 -21.0 -14.6 L-14.65 -14.4 -15.1 -24.1 Q-15.3 -28.0 -14.7 -31.7 L-14.1 -32.35 -13.4 -32.6 -13.15 -32.55 -12.85 -32.6 Q-6.6 -33.05 -0.55 -34.45 L-0.45 -34.45 -0.5 -37.4 -1.0 -36.85 -4.05 -34.05 -4.6 -33.85 Q-8.2 -33.65 -8.15 -37.1 -8.1 -38.25 -7.2 -38.95 -5.8 -40.05 -4.25 -39.2 L-3.85 -39.2 Q-2.1 -41.05 -0.7 -43.1 L-0.8 -44.4 Q-2.0 -48.85 -2.75 -53.4 L-2.9 -55.5 Q-5.25 -61.25 -8.65 -66.35 -9.45 -67.5 -9.6 -68.85 -9.75 -69.95 -8.7 -70.3 L-8.1 -70.5 Q-5.65 -70.05 -4.7 -67.45 -4.1 -65.75 -3.1 -64.2 0.6 -58.7 1.05 -52.15 L2.05 -48.5 2.75 -50.55 Q2.95 -51.35 3.8 -51.5 M-25.4 -53.9 Q-23.45 -53.85 -22.25 -52.15 L-22.15 -52.05 Q-13.75 -52.1 -5.5 -51.65 L-5.05 -51.45 Q-4.65 -51.1 -4.55 -50.6 L-4.55 -50.1 Q-5.2 -48.0 -7.7 -48.35 L-8.3 -48.4 Q-16.25 -47.9 -24.1 -48.8 -25.2 -48.95 -26.05 -49.7 L-26.2 -49.85 Q-28.15 -51.75 -26.15 -53.55 L-25.4 -53.9" fill="#666666" fill-rule="evenodd" stroke="none"/>
  </g>
</svg>
