<?xml version="1.0" encoding="UTF-8" standalone="no"?>
<svg xmlns:ffdec="https://www.free-decompiler.com/flash" xmlns:xlink="http://www.w3.org/1999/xlink" ffdec:objectType="shape" height="72.25px" width="45.3px" xmlns="http://www.w3.org/2000/svg">
  <g transform="matrix(1.0, 0.0, 0.0, 1.0, 27.95, 71.45)">
    <path d="M8.8 -49.75 L8.55 -47.85 Q8.2 -42.75 7.1 -37.75 6.2 -33.7 2.7 -31.6 L2.4 -31.5 2.3 -30.25 Q2.2 -26.05 1.5 -21.95 L1.15 -19.35 2.05 -18.6 Q2.55 -18.1 3.15 -17.7 7.25 -14.65 11.75 -12.25 L16.35 -9.2 Q17.15 -8.9 17.3 -8.2 L17.3 -7.35 17.05 -6.65 Q16.3 -5.05 15.2 -3.75 14.4 -2.8 14.0 -1.65 13.35 0.1 11.75 0.7 10.95 1.0 10.35 0.35 9.15 -0.9 10.05 -2.5 L12.3 -6.05 13.1 -7.2 13.15 -7.2 10.8 -8.65 4.85 -12.4 Q2.15 -14.0 -0.45 -15.7 -1.4 -16.35 -1.75 -17.25 L-2.1 -18.25 Q-2.35 -23.45 -1.3 -28.45 L-1.2 -29.85 -1.2 -31.65 -9.4 -30.3 -11.8 -29.8 -11.9 -27.5 -12.4 -18.45 -12.9 -14.15 -12.9 -13.45 Q-13.05 -12.25 -14.2 -12.15 L-20.15 -12.45 -22.45 -12.9 Q-24.2 -13.25 -23.75 -14.95 -23.4 -16.1 -22.2 -16.15 -20.1 -16.65 -18.2 -16.15 L-16.15 -15.65 -15.6 -24.55 Q-15.35 -26.7 -15.45 -28.9 L-15.4 -31.1 Q-15.3 -32.55 -13.95 -32.8 -11.65 -33.7 -9.2 -34.15 L-6.7 -34.5 -1.9 -35.1 -2.95 -43.0 -3.65 -48.55 Q-4.1 -52.95 -4.9 -57.3 -5.85 -62.65 -8.35 -67.5 -9.5 -69.8 -7.7 -71.15 L-7.05 -71.45 Q-5.15 -70.85 -4.75 -68.7 L-4.4 -67.8 Q-2.3 -63.0 -1.4 -57.95 -0.6 -53.3 -0.35 -48.55 0.3 -46.35 0.55 -44.05 1.0 -40.15 1.6 -36.3 L2.6 -36.4 Q4.55 -40.95 4.9 -45.95 L5.0 -48.8 Q5.0 -50.7 5.6 -52.4 5.75 -52.8 6.2 -53.0 L6.9 -53.2 Q9.2 -52.45 8.8 -49.75 M-27.95 -52.15 Q-27.85 -54.7 -25.45 -55.25 -22.6 -55.55 -22.15 -53.05 L-22.15 -52.95 Q-20.95 -53.1 -20.25 -52.5 L-17.4 -52.35 -11.85 -52.15 -10.2 -52.35 Q-8.7 -52.65 -7.55 -51.75 -6.5 -50.9 -7.25 -49.75 -8.1 -48.55 -9.7 -48.65 L-11.0 -48.65 Q-16.2 -48.15 -21.2 -49.3 L-21.35 -49.35 Q-22.05 -49.2 -22.85 -49.35 L-26.55 -50.25 Q-28.0 -50.65 -27.95 -52.15" fill="#666666" fill-rule="evenodd" stroke="none"/>
  </g>
</svg>
