<?xml version="1.0" encoding="UTF-8" standalone="no"?>
<svg xmlns:ffdec="https://www.free-decompiler.com/flash" xmlns:xlink="http://www.w3.org/1999/xlink" ffdec:objectType="shape" height="67.25px" width="51.25px" xmlns="http://www.w3.org/2000/svg">
  <g transform="matrix(1.0, 0.0, 0.0, 1.0, 30.95, 71.75)">
    <path d="M11.8 -52.35 L12.4 -50.85 12.45 -50.35 Q14.15 -46.0 14.7 -41.3 15.15 -37.65 14.2 -34.1 13.9 -33.15 12.9 -32.95 9.8 -32.4 9.65 -35.25 9.55 -37.2 11.35 -37.95 11.25 -42.6 9.95 -47.05 9.35 -49.2 8.15 -51.05 7.1 -52.65 8.05 -54.15 8.5 -54.9 9.3 -54.9 11.15 -54.3 11.8 -52.35 M2.55 -32.05 L2.45 -30.9 2.75 -20.45 2.75 -19.75 Q6.3 -19.25 9.7 -17.95 L12.2 -17.1 18.05 -15.65 Q19.05 -15.4 19.75 -14.7 20.35 -14.1 20.3 -13.45 L20.1 -12.3 Q19.5 -10.5 18.15 -9.05 17.5 -6.25 15.25 -4.7 L14.4 -4.6 Q12.6 -5.45 13.5 -7.3 L15.65 -11.45 16.15 -12.3 7.75 -14.8 3.4 -16.05 1.25 -16.5 0.45 -16.7 Q0.1 -16.75 -0.25 -16.95 -0.95 -17.35 -0.9 -18.15 -0.65 -23.3 -0.85 -28.6 L-0.95 -32.05 -1.8 -32.05 -10.5 -31.15 -12.7 -31.0 -12.75 -30.9 -14.5 -23.35 -14.85 -20.8 Q-15.0 -17.1 -16.05 -13.6 -16.3 -12.8 -17.1 -12.65 L-18.3 -12.7 -18.7 -12.7 Q-20.85 -12.85 -22.7 -14.0 -25.0 -15.45 -27.65 -16.15 L-28.15 -16.65 Q-28.85 -18.7 -26.7 -19.1 -23.05 -18.75 -19.9 -16.75 L-19.0 -16.25 -18.85 -17.55 -18.25 -22.95 Q-18.1 -24.7 -17.55 -26.3 -16.8 -29.3 -16.35 -32.3 L-16.15 -32.85 Q-16.05 -33.6 -15.2 -33.95 L-14.45 -34.15 -5.95 -35.15 -4.65 -35.2 -1.9 -35.5 -1.5 -35.55 -2.2 -39.35 -4.1 -47.95 Q-5.25 -52.55 -5.9 -57.25 -6.6 -62.35 -8.25 -67.3 -8.7 -68.75 -8.65 -70.3 -8.6 -71.2 -7.75 -71.55 L-7.05 -71.75 Q-4.95 -71.1 -4.7 -68.75 L-4.3 -67.1 Q-3.95 -66.25 -3.9 -65.4 -2.7 -60.8 -2.05 -56.1 -1.3 -51.0 -0.15 -46.0 L1.95 -36.05 2.2 -34.35 Q2.75 -33.45 2.55 -32.05 M-20.85 -55.8 L-20.0 -55.7 -12.2 -54.3 -9.65 -54.05 Q-8.05 -54.05 -6.65 -53.4 -5.9 -53.05 -5.9 -52.25 -5.85 -50.65 -7.55 -50.55 -11.55 -50.3 -15.45 -51.2 L-22.85 -52.55 Q-25.35 -52.9 -27.45 -54.15 -29.3 -55.3 -30.45 -57.15 -31.7 -59.3 -29.95 -60.8 L-29.2 -61.1 Q-26.3 -61.05 -26.55 -58.25 L-26.55 -58.1 Q-24.3 -55.85 -20.85 -55.8" fill="#666666" fill-rule="evenodd" stroke="none"/>
  </g>
</svg>
