<?xml version="1.0" encoding="UTF-8" standalone="no"?>
<svg xmlns:ffdec="https://www.free-decompiler.com/flash" xmlns:xlink="http://www.w3.org/1999/xlink" ffdec:objectType="shape" height="66.25px" width="53.7px" xmlns="http://www.w3.org/2000/svg">
  <g transform="matrix(1.0, 0.0, 0.0, 1.0, 32.25, 72.3)">
    <path d="M11.0 -55.05 L10.95 -54.85 Q13.35 -49.05 15.25 -43.05 16.15 -40.1 15.65 -37.05 15.15 -34.1 12.45 -35.25 11.5 -35.65 11.35 -36.6 11.05 -38.95 12.25 -40.8 10.8 -46.05 8.5 -51.0 7.1 -53.95 7.65 -57.0 7.75 -57.45 8.15 -57.7 L9.0 -58.0 Q11.1 -57.35 11.0 -55.05 M2.65 -32.05 L2.45 -29.45 2.1 -19.55 13.5 -17.9 Q16.7 -17.55 19.6 -16.5 L19.65 -16.5 20.15 -16.3 20.75 -16.05 Q21.2 -15.85 21.25 -15.35 L21.25 -15.15 Q21.6 -14.3 21.3 -13.05 20.65 -10.1 19.6 -7.25 19.25 -6.2 18.1 -6.05 16.1 -5.85 16.15 -7.75 16.25 -10.2 17.35 -12.5 L17.7 -13.3 9.8 -14.7 Q5.15 -15.25 0.7 -16.55 -0.1 -16.35 -0.65 -16.95 L-0.7 -17.0 Q-1.15 -17.15 -1.2 -17.65 L-1.2 -18.4 -1.25 -19.0 Q-1.05 -25.3 -1.2 -31.6 L-4.6 -31.3 -13.2 -31.4 -13.4 -30.1 -16.75 -17.45 Q-17.35 -15.0 -19.0 -13.3 -19.25 -13.05 -19.6 -13.15 -20.1 -13.25 -20.45 -13.45 L-21.45 -13.75 Q-24.65 -15.45 -28.15 -16.2 -28.95 -16.35 -29.55 -16.9 -31.2 -18.4 -29.3 -19.6 L-28.6 -19.9 Q-24.45 -19.45 -20.8 -17.35 L-17.65 -28.5 -16.55 -32.0 -16.7 -32.35 Q-17.35 -34.3 -15.2 -34.45 L-4.75 -34.9 -1.8 -35.15 -1.8 -35.2 -4.0 -48.15 -5.0 -54.05 -6.4 -63.4 -6.85 -64.8 Q-8.5 -67.95 -8.05 -71.35 L-7.55 -72.05 -6.7 -72.3 Q-4.5 -71.45 -4.25 -68.85 L-4.1 -67.8 -4.05 -67.45 Q-2.15 -63.2 -1.9 -58.45 -1.8 -55.85 -1.1 -53.3 -0.45 -50.7 -0.35 -48.05 0.55 -45.1 0.9 -42.0 L1.6 -35.4 Q3.0 -34.35 2.65 -32.05 M-31.0 -59.2 Q-33.5 -61.5 -30.95 -63.55 L-30.0 -64.0 Q-27.1 -63.95 -27.1 -61.2 L-27.1 -61.05 -13.5 -55.95 Q-12.3 -55.45 -11.45 -54.6 -10.7 -53.85 -11.35 -52.95 -12.35 -51.5 -14.15 -52.2 L-17.75 -53.65 Q-23.45 -56.1 -29.3 -58.15 -30.25 -58.5 -31.0 -59.2" fill="#666666" fill-rule="evenodd" stroke="none"/>
  </g>
</svg>
