<?xml version="1.0" encoding="UTF-8" standalone="no"?>
<svg xmlns:ffdec="https://www.free-decompiler.com/flash" xmlns:xlink="http://www.w3.org/1999/xlink" ffdec:objectType="shape" height="63.15px" width="55.9px" xmlns="http://www.w3.org/2000/svg">
  <g transform="matrix(1.0, 0.0, 0.0, 1.0, 34.0, 72.05)">
    <path d="M13.0 -55.4 Q14.75 -51.85 15.75 -48.05 L16.7 -44.35 Q17.4 -41.25 16.65 -38.15 16.4 -37.2 15.45 -37.0 12.65 -36.35 12.05 -38.8 11.8 -39.65 12.3 -40.4 L13.35 -41.25 Q13.15 -45.7 11.35 -49.85 L8.25 -56.4 Q8.1 -56.7 8.25 -57.0 8.65 -58.15 9.9 -58.2 11.95 -57.55 13.0 -55.4 M1.5 -40.35 Q2.2 -37.3 2.45 -34.05 L2.45 -32.6 Q2.3 -31.7 2.3 -30.7 2.2 -25.45 3.0 -20.4 L3.1 -19.25 7.7 -19.55 8.35 -19.65 18.75 -19.4 Q20.25 -19.3 21.3 -18.45 21.85 -18.05 21.85 -17.4 22.05 -16.7 21.65 -15.65 21.25 -14.55 21.15 -13.4 21.0 -11.7 20.45 -10.1 19.95 -8.45 18.3 -9.1 17.15 -9.55 17.2 -10.8 17.3 -13.35 17.9 -15.85 L12.35 -16.15 5.55 -16.0 1.2 -16.1 Q0.2 -16.15 -0.05 -16.95 L-0.45 -18.15 Q-1.0 -23.25 -1.2 -28.45 L-1.1 -32.55 -9.55 -32.15 -13.7 -32.15 Q-13.7 -31.55 -14.0 -30.75 L-17.0 -23.7 Q-17.2 -21.7 -17.8 -19.8 L-18.2 -19.05 Q-18.55 -17.45 -19.2 -16.0 L-19.3 -15.8 -19.55 -15.35 -19.6 -15.25 Q-19.85 -14.75 -20.4 -14.75 -21.25 -14.75 -21.7 -15.05 L-24.0 -15.95 -29.4 -17.8 Q-30.3 -18.1 -31.05 -18.65 -31.7 -19.1 -31.65 -19.95 -31.6 -21.6 -29.95 -21.75 L-22.6 -19.25 -21.95 -19.0 -21.6 -20.1 Q-20.6 -22.7 -20.1 -25.4 L-19.95 -25.65 Q-18.75 -29.35 -16.9 -32.65 L-17.2 -33.25 Q-17.6 -35.15 -15.6 -35.35 L-9.65 -35.85 -1.3 -35.7 -1.8 -37.95 -2.2 -40.8 -3.1 -45.45 Q-3.7 -50.45 -4.75 -55.35 L-6.5 -63.05 Q-7.1 -65.45 -8.1 -67.75 -8.65 -68.9 -8.55 -70.25 -8.45 -71.9 -6.85 -72.05 -5.15 -71.8 -5.1 -70.2 L-5.1 -70.05 Q-3.3 -65.65 -2.2 -60.9 L-1.5 -57.0 Q-0.35 -52.5 0.15 -47.85 0.6 -44.05 1.5 -40.35 M-31.95 -66.95 Q-29.35 -66.75 -29.4 -64.2 L-29.45 -64.05 Q-27.1 -62.45 -24.2 -61.4 -19.95 -59.85 -15.95 -57.7 L-14.15 -56.9 Q-12.75 -56.45 -12.2 -55.2 -11.8 -54.35 -12.55 -53.7 -13.95 -52.55 -15.6 -53.45 -20.4 -56.0 -25.45 -58.0 -29.4 -59.55 -32.75 -62.05 -33.6 -62.65 -33.85 -63.7 -34.55 -66.3 -31.95 -66.95" fill="#666666" fill-rule="evenodd" stroke="none"/>
  </g>
</svg>
