<?xml version="1.0" encoding="UTF-8" standalone="no"?>
<svg xmlns:ffdec="https://www.free-decompiler.com/flash" xmlns:xlink="http://www.w3.org/1999/xlink" ffdec:objectType="shape" height="60.15px" width="53.3px" xmlns="http://www.w3.org/2000/svg">
  <g transform="matrix(1.0, 0.0, 0.0, 1.0, 35.7, 69.6)">
    <path d="M13.25 -53.55 L13.65 -52.05 Q14.85 -47.25 15.5 -42.4 L15.9 -37.9 Q15.9 -37.05 15.35 -36.35 15.05 -33.35 12.0 -34.3 11.2 -34.55 11.05 -35.35 10.65 -37.5 12.15 -39.0 12.05 -44.3 10.55 -49.35 L8.85 -55.15 Q8.55 -56.35 9.65 -56.9 L10.4 -57.1 Q12.55 -56.1 13.25 -53.55 M1.5 -40.85 Q2.6 -37.2 2.7 -33.4 2.75 -32.45 2.1 -32.1 2.3 -31.3 2.15 -30.2 L2.0 -27.6 Q2.2 -23.25 1.75 -18.95 L3.05 -19.0 13.65 -19.5 Q16.95 -20.15 17.3 -17.2 L17.55 -14.3 Q17.75 -12.25 17.3 -10.35 17.15 -9.5 16.25 -9.45 14.15 -9.35 14.0 -11.5 13.9 -13.55 13.95 -15.7 7.35 -15.45 0.6 -15.85 L-1.2 -16.05 Q-1.9 -16.4 -1.85 -17.1 L-1.65 -21.3 Q-1.5 -25.8 -1.6 -30.35 L-3.15 -30.15 -10.45 -28.6 -14.5 -27.75 -14.7 -27.35 -17.55 -21.25 Q-19.45 -17.1 -20.25 -12.7 -20.35 -12.05 -20.75 -11.55 -21.8 -10.35 -22.6 -10.5 L-23.75 -10.8 -26.25 -11.8 Q-29.7 -13.15 -33.0 -14.8 -33.65 -15.1 -33.55 -15.85 -33.45 -17.4 -31.85 -17.6 -27.4 -16.75 -23.65 -14.5 -22.55 -19.25 -20.4 -23.65 L-19.5 -25.45 -17.55 -29.55 -17.05 -30.2 -15.6 -31.05 Q-8.35 -33.15 -0.95 -34.1 -0.95 -36.2 -1.45 -38.3 L-1.5 -38.65 Q-2.35 -41.6 -2.85 -44.7 L-3.65 -48.65 Q-4.15 -50.55 -4.25 -52.5 -5.8 -58.45 -7.85 -64.4 -8.45 -66.2 -8.25 -68.05 -8.1 -69.5 -6.7 -69.6 -4.75 -68.9 -4.35 -66.65 L-3.3 -62.3 Q-1.2 -56.0 0.1 -49.55 L0.95 -45.2 1.5 -40.85 M-23.25 -59.75 L-20.0 -58.65 Q-16.25 -57.4 -12.8 -55.55 -12.5 -55.4 -12.5 -55.05 -12.5 -52.45 -15.45 -52.95 -16.3 -53.1 -16.9 -53.65 L-30.6 -58.55 Q-33.25 -59.5 -35.15 -61.4 -35.6 -61.85 -35.65 -62.5 -35.9 -64.75 -33.7 -65.15 -31.05 -65.1 -30.4 -62.7 L-30.35 -62.55 Q-26.85 -61.1 -23.25 -59.75" fill="#666666" fill-rule="evenodd" stroke="none"/>
  </g>
</svg>
