<?xml version="1.0" encoding="UTF-8" standalone="no"?>
<svg xmlns:ffdec="https://www.free-decompiler.com/flash" xmlns:xlink="http://www.w3.org/1999/xlink" ffdec:objectType="shape" height="68.2px" width="46.1px" xmlns="http://www.w3.org/2000/svg">
  <g transform="matrix(1.0, 0.0, 0.0, 1.0, 33.6, 70.6)">
    <path d="M9.0 -50.35 L8.9 -46.35 Q9.0 -41.1 8.65 -35.9 L8.5 -33.8 Q8.2 -31.1 5.45 -31.25 4.4 -31.3 4.0 -32.3 2.95 -34.65 5.2 -36.0 5.65 -40.75 5.6 -45.55 L5.2 -51.9 Q5.05 -53.35 6.5 -53.7 L6.8 -53.75 Q9.2 -53.0 9.0 -50.35 M2.15 -31.15 L1.95 -30.5 1.3 -29.6 0.5 -27.35 Q-0.8 -23.05 -2.5 -18.9 L5.2 -17.95 10.15 -16.75 10.75 -16.9 Q13.0 -16.35 12.35 -14.1 11.7 -11.85 11.4 -9.5 L11.25 -7.15 Q11.25 -6.0 10.1 -5.75 8.4 -5.35 8.05 -7.0 L7.95 -8.3 Q7.95 -10.95 8.55 -13.45 L8.25 -13.55 6.95 -13.95 Q2.0 -15.3 -3.2 -15.3 -5.0 -15.3 -6.35 -16.25 -6.75 -16.5 -6.8 -17.0 L-6.8 -17.1 Q-7.05 -18.4 -6.3 -19.6 -5.15 -21.3 -4.6 -23.3 L-3.25 -26.9 -3.2 -27.05 -8.25 -24.05 -11.7 -22.1 -11.85 -21.65 Q-13.45 -17.4 -15.4 -13.3 L-17.5 -8.6 -19.25 -4.8 -19.1 -4.15 Q-19.05 -2.2 -21.0 -2.45 -22.45 -2.65 -23.7 -3.4 L-28.65 -6.25 Q-30.0 -7.0 -29.3 -8.4 -28.85 -9.3 -27.9 -9.35 -26.7 -9.35 -25.75 -8.6 L-22.15 -6.7 -21.65 -8.25 -17.45 -17.6 -16.3 -19.8 -14.9 -23.55 -14.3 -24.35 -13.65 -24.95 -4.75 -30.45 Q-3.1 -31.45 -1.35 -32.25 L-1.3 -32.3 Q-1.5 -33.2 -1.3 -34.15 L-2.85 -43.2 -4.6 -53.4 -6.1 -63.45 -6.25 -64.0 -6.35 -64.9 -7.05 -66.55 -7.2 -67.35 Q-8.75 -69.1 -6.85 -70.35 L-6.2 -70.6 Q-3.95 -69.9 -3.45 -67.5 L-3.15 -66.2 Q-1.95 -61.2 -1.4 -56.15 L-0.7 -51.05 Q0.1 -46.05 1.15 -41.0 L2.25 -35.05 Q2.4 -34.0 2.15 -33.0 2.5 -31.85 2.15 -31.15 M-28.05 -53.05 L-28.0 -52.95 -12.5 -53.55 Q-10.5 -53.85 -10.45 -51.9 -10.45 -50.45 -11.9 -50.2 L-27.0 -49.35 -27.45 -49.35 -31.35 -49.6 Q-32.55 -49.75 -33.2 -50.65 -33.7 -51.3 -33.6 -52.15 -33.45 -54.25 -31.5 -54.65 -29.4 -54.75 -28.05 -53.05" fill="#666666" fill-rule="evenodd" stroke="none"/>
  </g>
</svg>
