<?xml version="1.0" encoding="UTF-8" standalone="no"?>
<svg xmlns:ffdec="https://www.free-decompiler.com/flash" xmlns:xlink="http://www.w3.org/1999/xlink" ffdec:objectType="shape" height="71.15px" width="42.2px" xmlns="http://www.w3.org/2000/svg">
  <g transform="matrix(1.0, 0.0, 0.0, 1.0, 30.75, 70.7)">
    <path d="M5.3 -52.45 Q7.7 -51.5 7.25 -48.6 7.05 -47.4 7.1 -46.2 7.25 -39.45 5.2 -33.1 4.7 -31.55 3.4 -30.6 3.1 -30.35 2.7 -30.3 L1.85 -30.25 1.6 -29.65 1.35 -29.2 -4.25 -20.3 Q0.6 -18.15 5.85 -17.0 L8.3 -16.4 Q9.45 -16.15 10.35 -15.55 L11.3 -14.4 Q11.65 -13.55 11.1 -12.3 L9.45 -7.9 Q8.9 -6.2 7.85 -4.75 7.0 -3.6 5.75 -4.5 4.7 -5.25 5.1 -6.6 5.8 -9.05 6.95 -11.35 L7.45 -12.75 -4.0 -16.05 Q-6.6 -16.8 -7.9 -18.9 L-7.95 -18.95 -8.15 -19.85 -7.9 -20.9 -6.25 -24.0 -4.75 -26.4 -8.0 -23.65 -9.3 -22.25 -9.9 -21.6 Q-9.8 -20.9 -10.1 -19.9 -10.5 -18.6 -11.15 -17.35 -12.1 -14.35 -13.45 -11.4 -14.75 -8.4 -15.6 -5.25 -16.2 -2.85 -17.2 -0.65 -17.4 -0.2 -17.9 -0.2 L-18.05 -0.2 -18.8 0.3 Q-20.35 0.8 -21.7 -0.15 -23.05 -1.1 -24.6 -1.7 -26.15 -2.3 -27.2 -3.4 -27.8 -4.0 -27.4 -4.8 -26.9 -5.8 -25.85 -5.85 -22.65 -5.25 -19.75 -3.6 L-19.7 -3.55 Q-19.25 -6.0 -18.4 -8.35 L-13.9 -21.05 -13.55 -21.85 Q-13.9 -22.95 -12.9 -23.95 -8.1 -28.65 -2.45 -32.2 L-1.75 -32.6 -1.8 -33.55 Q-2.2 -40.2 -3.15 -46.75 L-3.65 -50.0 Q-4.8 -56.6 -6.5 -62.95 L-7.8 -67.15 Q-8.75 -69.85 -6.25 -70.7 -4.3 -70.2 -4.25 -68.1 L-4.25 -67.9 Q-2.15 -62.1 -1.05 -55.95 L1.0 -43.0 1.6 -35.9 2.3 -36.0 Q4.0 -42.1 3.45 -48.6 3.25 -50.45 4.25 -51.85 4.65 -52.45 5.3 -52.45 M-9.65 -50.05 Q-9.95 -49.45 -10.6 -49.2 -16.65 -47.0 -22.85 -45.2 L-25.5 -44.7 Q-26.9 -43.7 -28.6 -44.5 L-29.2 -44.85 Q-30.25 -44.95 -30.65 -46.6 -31.05 -48.2 -29.6 -49.1 L-28.6 -49.45 Q-26.3 -49.65 -25.3 -48.45 -18.15 -50.25 -11.3 -52.75 -8.45 -52.5 -9.65 -50.05" fill="#666666" fill-rule="evenodd" stroke="none"/>
  </g>
</svg>
