<?xml version="1.0" encoding="UTF-8" standalone="no"?>
<svg xmlns:ffdec="https://www.free-decompiler.com/flash" xmlns:xlink="http://www.w3.org/1999/xlink" ffdec:objectType="shape" height="70.85px" width="26.7px" xmlns="http://www.w3.org/2000/svg">
  <g transform="matrix(1.0, 0.0, 0.0, 1.0, 23.15, 69.3)">
    <path d="M1.45 -31.5 L0.8 -30.35 -2.15 -20.6 -1.3 -20.0 2.7 -16.8 Q3.95 -15.65 3.4 -14.65 L2.65 -13.55 0.55 -11.45 -0.4 -10.6 0.75 -6.5 0.8 -5.8 1.9 -2.5 1.95 -1.8 2.4 -0.75 Q3.05 1.1 0.9 1.35 L0.8 1.35 0.65 1.4 0.2 1.4 -2.9 1.55 Q-5.3 1.5 -7.45 0.65 L-8.05 -0.1 Q-8.4 -2.05 -6.45 -2.35 L-1.9 -2.0 -2.05 -2.7 -2.5 -4.7 -3.45 -8.25 -3.7 -8.1 -4.25 -8.05 Q-6.3 -8.8 -5.25 -10.75 L-4.4 -12.0 -4.95 -14.15 Q-5.9 -16.4 -5.75 -18.7 -7.45 -19.8 -9.3 -20.7 L-12.2 -22.0 Q-14.1 -22.7 -14.35 -24.0 -14.8 -24.75 -14.1 -25.8 L-13.05 -26.8 -7.35 -30.35 -3.85 -32.45 -1.9 -33.5 -1.9 -33.6 Q-1.7 -37.3 -2.3 -40.85 L-2.75 -43.4 Q-6.75 -39.75 -11.05 -36.4 -12.4 -35.3 -14.0 -34.6 -16.9 -33.35 -18.35 -35.6 -18.6 -36.0 -18.5 -36.5 -17.65 -39.6 -14.15 -39.0 -13.3 -38.85 -12.65 -39.45 -8.05 -43.45 -3.55 -47.6 L-4.95 -53.85 -5.65 -58.0 Q-6.35 -60.85 -7.4 -63.65 L-8.45 -66.85 Q-8.95 -68.95 -6.9 -69.3 -4.95 -68.85 -4.75 -66.85 L-4.75 -66.7 Q-3.35 -64.05 -2.75 -61.15 L-2.65 -60.3 Q-1.85 -57.4 -1.35 -54.45 L-0.05 -48.2 Q0.4 -47.75 0.25 -47.0 1.55 -41.2 1.9 -35.0 L1.85 -33.0 1.6 -31.9 1.55 -31.8 1.45 -31.5 M-6.6 -45.6 Q-10.65 -42.7 -15.2 -40.9 -19.0 -39.4 -22.35 -41.35 -23.05 -41.75 -23.15 -42.55 -23.25 -44.3 -21.8 -45.2 L-18.2 -45.3 -16.95 -44.2 Q-12.45 -45.75 -8.6 -48.9 -7.6 -49.75 -6.45 -49.95 -3.65 -49.4 -5.15 -47.1 -5.75 -46.2 -6.6 -45.6 M-9.4 -24.9 Q-7.45 -23.95 -5.55 -22.8 L-4.75 -24.5 -3.7 -28.25 -5.9 -26.8 Q-6.15 -26.6 -6.5 -26.45 L-9.4 -24.9 M-0.9 -15.2 L-1.8 -15.9 -1.5 -14.7 -0.9 -15.2" fill="#666666" fill-rule="evenodd" stroke="none"/>
  </g>
</svg>
