<?xml version="1.0" encoding="UTF-8" standalone="no"?>
<svg xmlns:ffdec="https://www.free-decompiler.com/flash" xmlns:xlink="http://www.w3.org/1999/xlink" ffdec:objectType="shape" height="71.15px" width="28.6px" xmlns="http://www.w3.org/2000/svg">
  <g transform="matrix(1.0, 0.0, 0.0, 1.0, 21.85, 69.8)">
    <path d="M1.3 -33.5 L1.3 -33.45 1.2 -32.25 0.5 -28.2 -0.2 -23.05 -0.55 -19.1 -0.6 -18.55 Q-0.45 -18.05 -0.45 -17.35 L-0.25 -16.6 3.95 -7.15 6.45 -2.05 Q7.05 -1.0 6.45 0.1 L6.35 0.3 5.55 1.1 4.65 1.35 -3.1 1.2 Q-4.25 1.15 -4.45 0.0 -4.75 -1.8 -2.85 -1.9 L2.25 -2.15 0.9 -5.15 -0.1 -7.55 -2.3 -12.3 -2.4 -12.55 Q-3.95 -11.15 -5.8 -10.2 L-6.5 -9.85 Q-8.55 -8.85 -9.25 -10.9 -9.6 -11.9 -8.65 -12.55 -6.7 -13.8 -5.05 -15.3 L-5.0 -15.35 Q-8.35 -18.35 -11.4 -21.65 L-13.15 -23.55 Q-14.6 -25.15 -15.2 -27.25 L-15.25 -27.45 Q-15.75 -28.95 -13.95 -29.7 L-4.55 -33.65 -2.2 -34.6 -3.1 -43.1 -3.3 -44.85 Q-6.4 -43.3 -9.75 -42.45 L-14.05 -40.05 Q-16.95 -38.7 -19.85 -39.75 L-20.6 -40.45 -20.85 -41.6 -21.1 -41.85 Q-22.65 -43.8 -21.05 -45.7 -20.6 -46.3 -19.85 -46.4 -17.65 -46.8 -16.35 -45.0 L-11.45 -45.7 Q-9.5 -46.95 -7.8 -48.6 L-5.9 -49.7 -5.6 -49.8 Q-4.1 -49.5 -3.9 -48.55 L-3.6 -48.7 Q-3.9 -53.5 -4.7 -58.2 -5.4 -62.35 -7.85 -65.85 -9.4 -68.0 -7.5 -69.5 L-6.85 -69.8 Q-5.25 -69.45 -4.7 -67.85 L-4.5 -67.45 Q-3.25 -65.6 -2.7 -63.55 -1.9 -61.8 -1.45 -59.95 L-1.35 -59.05 -0.6 -54.65 0.2 -44.85 Q0.45 -40.6 1.1 -36.4 L1.35 -34.8 Q1.5 -34.15 1.3 -33.5 M-11.2 -26.95 Q-8.35 -23.1 -4.65 -19.95 L-4.2 -19.55 Q-3.95 -22.0 -3.25 -24.35 L-2.65 -30.5 -10.3 -27.35 -11.2 -26.95" fill="#666666" fill-rule="evenodd" stroke="none"/>
  </g>
</svg>
