<?xml version="1.0" encoding="UTF-8" standalone="no"?>
<svg xmlns:ffdec="https://www.free-decompiler.com/flash" xmlns:xlink="http://www.w3.org/1999/xlink" ffdec:objectType="shape" height="72.7px" width="36.65px" xmlns="http://www.w3.org/2000/svg">
  <g transform="matrix(1.0, 0.0, 0.0, 1.0, 23.75, 70.95)">
    <path d="M0.6 -43.35 L0.95 -40.3 Q1.3 -37.5 1.05 -34.75 L1.6 -34.3 Q2.85 -33.35 2.2 -31.4 L2.05 -30.55 Q1.75 -25.4 0.9 -20.3 L0.75 -18.9 0.65 -18.0 1.3 -16.95 1.8 -16.15 4.15 -13.45 Q5.7 -11.4 7.7 -9.65 10.15 -7.55 12.15 -5.1 L12.8 -4.3 12.85 -3.75 12.85 -3.65 12.55 -2.8 Q12.15 -1.9 11.2 -1.5 8.7 -0.35 6.4 1.15 4.6 2.35 2.75 1.15 2.1 0.75 2.2 0.0 2.5 -2.0 4.8 -2.05 5.0 -2.05 5.15 -2.2 L8.25 -4.2 5.45 -6.8 2.15 -10.2 -0.6 -13.35 -1.35 -14.15 Q-2.4 -15.1 -2.65 -16.35 -3.05 -16.9 -3.0 -17.8 -2.8 -22.25 -1.7 -26.45 L-1.3 -31.3 -5.1 -30.55 -11.75 -29.25 -8.8 -20.8 -7.35 -16.3 -7.05 -15.15 -7.05 -15.1 Q-6.95 -14.65 -7.25 -14.3 -7.55 -13.65 -8.3 -13.45 -11.4 -12.5 -14.6 -12.05 -15.45 -11.95 -15.85 -12.65 -17.05 -14.7 -14.8 -15.35 L-12.9 -15.8 -11.0 -16.2 -11.75 -18.1 -12.9 -21.75 Q-14.6 -25.6 -15.25 -29.65 -16.2 -31.25 -14.35 -31.95 L-11.45 -32.9 -8.05 -33.7 -9.35 -34.85 Q-10.2 -36.1 -9.4 -37.45 -8.9 -38.3 -7.85 -38.4 L-6.15 -38.35 Q-4.15 -41.2 -2.95 -44.35 L-3.05 -45.05 -3.25 -46.35 Q-4.3 -45.7 -5.55 -45.45 L-14.75 -44.85 -15.25 -44.85 -21.1 -44.85 Q-22.95 -44.9 -23.55 -46.5 -23.9 -47.45 -23.55 -48.4 -23.1 -49.65 -21.8 -49.8 -19.85 -49.85 -18.65 -48.5 L-18.55 -48.35 -7.85 -48.8 Q-6.45 -48.9 -5.15 -49.45 L-3.7 -49.7 -3.8 -50.2 -5.5 -60.3 Q-6.2 -64.35 -7.8 -68.2 -8.55 -70.05 -6.75 -70.8 L-6.3 -70.95 Q-4.5 -70.4 -4.0 -68.4 L-3.15 -65.75 Q-2.3 -63.3 -1.85 -60.75 L-0.3 -50.5 -0.25 -50.3 0.0 -50.35 Q2.4 -49.6 1.75 -47.05 L0.6 -43.35 M-5.15 -34.25 L-2.35 -34.7 -2.4 -37.2 Q-3.5 -35.45 -5.15 -34.3 L-5.15 -34.25" fill="#666666" fill-rule="evenodd" stroke="none"/>
  </g>
</svg>
