<?xml version="1.0" encoding="UTF-8" standalone="no"?>
<svg xmlns:ffdec="https://www.free-decompiler.com/flash" xmlns:xlink="http://www.w3.org/1999/xlink" ffdec:objectType="shape" height="59.55px" width="24.35px" xmlns="http://www.w3.org/2000/svg">
  <g transform="matrix(1.0, 0.0, 0.0, 1.0, 22.0, 70.3)">
    <path d="M2.2 -30.35 Q1.7 -27.05 1.55 -23.65 L1.55 -22.1 Q1.75 -18.95 1.0 -16.05 0.7 -14.95 -0.45 -15.05 -2.45 -15.25 -2.2 -17.3 -1.8 -20.6 -1.75 -24.05 L-1.75 -25.1 Q-1.8 -27.9 -1.45 -30.6 -4.45 -29.75 -7.55 -29.4 L-12.1 -28.8 -12.15 -28.5 -12.3 -26.15 -11.3 -12.95 Q-11.15 -11.55 -12.55 -11.2 -17.2 -10.1 -21.45 -11.6 -21.9 -11.75 -22.0 -12.3 -22.2 -13.85 -20.65 -14.05 L-15.2 -14.45 Q-15.35 -20.65 -15.9 -26.9 -16.1 -29.45 -15.2 -31.55 -15.0 -32.05 -14.45 -32.15 L-14.1 -32.2 -13.7 -32.0 -7.5 -33.2 -1.35 -34.25 -1.35 -36.1 Q-1.45 -40.55 -1.95 -44.9 L-2.5 -48.1 -4.75 -57.95 Q-5.4 -61.3 -7.05 -64.3 -8.35 -66.65 -8.15 -69.15 -8.1 -69.75 -7.55 -70.0 L-6.7 -70.3 Q-4.55 -69.35 -3.85 -66.9 L-2.85 -64.05 Q-1.35 -60.15 -0.8 -55.9 L0.7 -50.05 Q2.4 -43.8 2.15 -37.2 2.1 -36.0 2.3 -34.8 2.5 -33.3 2.15 -32.05 2.35 -31.35 2.2 -30.35" fill="#666666" fill-rule="evenodd" stroke="none"/>
  </g>
</svg>
