<?xml version="1.0" encoding="UTF-8" standalone="no"?>
<svg xmlns:ffdec="https://www.free-decompiler.com/flash" xmlns:xlink="http://www.w3.org/1999/xlink" ffdec:objectType="shape" height="53.2px" width="39.95px" xmlns="http://www.w3.org/2000/svg">
  <g transform="matrix(1.0, 0.0, 0.0, 1.0, 25.05, 51.3)">
    <path d="M4.4 -41.1 L3.85 -39.6 Q2.55 -35.85 -0.2 -32.95 -2.35 -30.65 -4.25 -32.9 -4.55 -33.25 -4.5 -33.8 -4.3 -36.05 -1.95 -36.2 1.35 -41.8 2.7 -48.2 L3.05 -49.35 Q3.5 -50.75 4.85 -50.9 7.4 -49.95 6.45 -47.2 L4.4 -41.1 M11.75 -9.9 Q13.8 -8.7 14.75 -6.6 L14.9 -5.8 Q14.8 -3.45 12.95 -1.7 L11.0 0.45 Q9.05 2.95 6.55 1.15 6.05 0.75 6.25 0.1 6.75 -1.4 8.2 -2.35 9.2 -2.95 9.8 -3.9 L11.25 -5.65 Q5.5 -9.2 0.95 -14.1 -1.65 -15.45 -2.25 -17.95 -2.45 -18.8 -1.8 -19.3 -1.25 -19.7 -0.7 -19.7 2.15 -18.15 4.5 -15.65 7.7 -12.25 11.75 -9.9 M-3.25 -48.7 Q-2.8 -48.1 -3.05 -47.4 -3.65 -45.65 -5.75 -45.6 L-6.9 -45.6 -21.1 -45.5 Q-23.8 -45.45 -24.9 -47.55 L-24.95 -47.7 Q-25.45 -50.55 -22.85 -51.3 -20.45 -51.3 -19.4 -49.2 L-19.35 -49.1 Q-11.55 -49.3 -3.85 -49.05 -3.5 -49.05 -3.25 -48.7" fill="#666666" fill-rule="evenodd" stroke="none"/>
  </g>
</svg>
