<?xml version="1.0" encoding="UTF-8" standalone="no"?>
<svg xmlns:ffdec="https://www.free-decompiler.com/flash" xmlns:xlink="http://www.w3.org/1999/xlink" ffdec:objectType="shape" height="70.7px" width="46.35px" xmlns="http://www.w3.org/2000/svg">
  <g transform="matrix(1.0, 0.0, 0.0, 1.0, 28.65, 71.15)">
    <path d="M7.1 -52.2 Q9.4 -51.4 9.0 -48.75 L8.9 -46.85 Q9.35 -41.55 7.45 -36.75 L5.8 -33.1 Q4.95 -31.25 2.75 -31.85 2.15 -32.0 1.8 -32.3 L1.75 -32.05 1.65 -30.0 1.85 -19.55 1.85 -19.3 1.8 -19.25 Q5.9 -15.85 10.95 -13.4 L15.55 -10.7 17.15 -9.2 17.7 -8.2 17.7 -7.7 17.45 -6.85 Q16.8 -5.3 15.75 -3.95 14.35 -2.1 12.6 -0.65 12.25 -0.35 11.85 -0.5 9.85 -1.1 10.6 -3.1 L11.05 -3.95 13.75 -7.35 10.45 -9.85 Q4.85 -12.45 -0.2 -15.9 -1.45 -16.8 -2.0 -18.2 L-2.05 -18.2 -2.25 -18.1 -2.15 -18.85 -2.2 -19.5 -1.8 -20.9 -1.9 -28.9 -1.8 -31.95 Q-6.0 -30.65 -10.25 -29.9 L-12.0 -29.75 -12.05 -29.65 -12.15 -27.75 Q-11.95 -22.45 -12.95 -17.4 -13.3 -15.75 -13.25 -14.05 L-13.25 -13.55 -13.65 -12.5 -14.1 -12.2 -14.7 -12.0 -16.8 -11.9 -19.7 -12.25 -23.25 -12.65 Q-24.75 -12.85 -24.6 -14.3 -24.5 -15.8 -23.0 -15.9 L-16.6 -15.45 Q-16.6 -19.05 -15.85 -22.45 -15.6 -23.7 -15.65 -25.0 L-15.5 -30.95 Q-16.0 -32.9 -13.9 -33.15 L-10.15 -33.65 Q-6.1 -34.35 -2.2 -35.5 L-2.35 -45.0 Q-2.4 -48.5 -2.8 -52.0 -3.3 -55.75 -4.2 -59.45 -5.3 -63.8 -7.2 -67.9 -8.35 -70.4 -5.85 -71.15 -3.9 -70.45 -3.45 -68.3 L-3.25 -67.65 Q-1.1 -63.0 -0.25 -57.9 L0.55 -52.75 Q1.4 -47.7 1.4 -42.4 L1.1 -34.8 1.15 -34.75 Q1.45 -36.7 3.6 -36.95 L4.55 -39.65 4.85 -40.2 Q5.7 -44.95 5.35 -49.85 5.2 -51.9 7.1 -52.2 M-26.45 -55.3 Q-24.1 -55.3 -23.2 -53.25 L-23.2 -53.2 -10.5 -51.85 -9.75 -51.85 Q-7.4 -52.05 -5.65 -50.7 -5.0 -50.15 -5.2 -49.35 -5.75 -47.45 -7.9 -47.9 L-15.2 -48.85 -25.2 -49.9 Q-26.85 -50.2 -28.05 -51.35 -28.9 -52.25 -28.55 -53.4 -28.1 -55.05 -26.45 -55.3" fill="#666666" fill-rule="evenodd" stroke="none"/>
  </g>
</svg>
