<?xml version="1.0" encoding="UTF-8" standalone="no"?>
<svg xmlns:ffdec="https://www.free-decompiler.com/flash" xmlns:xlink="http://www.w3.org/1999/xlink" ffdec:objectType="shape" height="67.25px" width="53.05px" xmlns="http://www.w3.org/2000/svg">
  <g transform="matrix(1.0, 0.0, 0.0, 1.0, 32.5, 72.05)">
    <path d="M12.1 -51.25 L12.05 -50.35 Q12.15 -45.1 12.75 -40.0 L12.8 -39.35 Q14.9 -37.45 13.7 -34.65 13.15 -33.45 11.8 -33.65 9.65 -34.05 9.6 -36.2 L9.55 -36.85 Q9.05 -41.75 8.8 -46.7 L8.45 -50.95 Q8.3 -52.25 8.55 -53.5 8.7 -54.3 9.55 -54.55 L10.0 -54.65 Q12.45 -53.9 12.1 -51.25 M2.1 -42.15 Q3.3 -39.15 3.45 -36.0 4.0 -35.1 3.65 -33.6 L3.45 -32.35 2.1 -22.1 1.95 -20.7 Q6.15 -19.9 10.1 -18.2 L11.3 -17.7 Q13.85 -16.7 16.6 -16.05 18.35 -15.65 19.65 -14.65 L20.2 -14.2 20.25 -14.15 20.55 -13.4 20.3 -12.05 19.3 -9.9 Q17.85 -7.35 16.25 -5.1 16.0 -4.8 15.65 -4.8 13.45 -4.85 13.8 -7.05 L14.4 -8.6 16.45 -12.2 7.95 -15.25 2.95 -16.8 -0.45 -17.75 Q-1.4 -18.05 -1.45 -19.05 L-1.4 -19.7 -1.35 -22.5 -0.3 -30.15 0.05 -32.75 -5.2 -32.1 -7.25 -31.85 Q-10.45 -31.8 -13.2 -30.55 L-14.7 -21.75 -15.25 -17.25 Q-15.55 -14.8 -16.3 -12.5 -16.45 -12.05 -16.9 -11.9 -17.95 -11.65 -18.5 -12.1 L-18.95 -12.05 -20.35 -12.3 Q-24.25 -13.75 -27.8 -15.9 -29.05 -16.65 -28.85 -18.1 -28.65 -19.55 -27.2 -19.65 -25.15 -18.8 -23.25 -17.55 L-22.8 -17.3 -19.15 -15.6 -19.0 -16.7 Q-18.35 -19.5 -18.1 -22.35 -17.6 -27.5 -16.25 -32.55 -15.9 -33.85 -14.6 -33.95 L-14.45 -33.9 Q-11.1 -35.05 -7.5 -35.3 L-2.85 -35.9 -1.3 -36.05 -0.1 -36.2 Q-0.5 -39.0 -1.3 -41.6 L-1.35 -42.0 Q-2.8 -46.5 -3.7 -51.15 -4.65 -56.2 -6.25 -61.05 L-6.35 -62.15 -8.7 -68.95 Q-9.6 -71.4 -7.15 -72.05 -5.3 -71.4 -4.75 -69.3 L-4.1 -66.3 Q-2.4 -61.8 -1.35 -57.15 L0.85 -47.2 2.1 -42.15 M-21.75 -56.65 L-12.9 -53.9 -11.95 -53.6 Q-9.95 -53.05 -10.65 -51.15 -11.0 -50.2 -12.05 -50.25 -15.1 -50.45 -17.8 -51.75 -18.95 -52.3 -20.2 -52.55 -25.5 -53.8 -30.2 -56.35 -31.15 -56.85 -31.75 -57.7 -33.35 -59.9 -31.5 -61.5 L-30.75 -61.85 Q-27.35 -62.05 -27.15 -58.8 L-27.15 -58.65 Q-24.6 -57.4 -21.75 -56.65" fill="#666666" fill-rule="evenodd" stroke="none"/>
  </g>
</svg>
