<?xml version="1.0" encoding="UTF-8" standalone="no"?>
<svg xmlns:ffdec="https://www.free-decompiler.com/flash" xmlns:xlink="http://www.w3.org/1999/xlink" ffdec:objectType="shape" height="64.4px" width="54.15px" xmlns="http://www.w3.org/2000/svg">
  <g transform="matrix(1.0, 0.0, 0.0, 1.0, 32.65, 71.85)">
    <path d="M13.25 -52.85 Q14.4 -48.1 14.75 -43.25 L14.9 -40.15 Q15.9 -39.25 15.45 -38.05 L15.15 -37.55 Q14.7 -34.45 11.7 -35.6 11.25 -35.8 11.2 -36.35 L11.25 -41.2 Q11.45 -44.65 10.7 -48.0 10.25 -50.1 9.4 -52.1 8.25 -54.85 10.85 -55.75 12.75 -55.05 13.25 -52.85 M1.7 -45.15 L1.75 -44.3 Q3.1 -39.95 3.55 -35.3 3.7 -33.95 3.05 -33.25 2.75 -31.65 2.8 -29.95 L2.9 -19.7 Q9.7 -17.35 16.95 -16.65 L20.8 -15.7 Q21.45 -15.4 21.5 -14.65 21.7 -11.65 19.8 -9.45 19.6 -6.7 17.05 -7.75 16.35 -8.05 16.3 -8.8 16.15 -10.9 17.55 -12.45 15.8 -13.45 13.3 -13.5 L11.3 -13.7 Q5.45 -15.0 0.0 -17.1 -0.45 -17.3 -0.45 -17.8 L-0.55 -29.25 -0.5 -32.05 -1.05 -32.05 -3.7 -31.9 -7.95 -31.5 -13.95 -30.9 -14.05 -30.55 Q-14.25 -29.55 -14.8 -28.65 L-14.9 -28.5 Q-14.9 -25.75 -15.6 -23.1 L-16.4 -18.8 -16.75 -16.35 Q-17.05 -14.1 -18.6 -12.5 -19.1 -12.0 -19.85 -12.2 -22.2 -12.8 -24.25 -14.25 -26.65 -15.9 -29.25 -17.1 L-29.6 -17.65 Q-29.65 -20.3 -27.0 -19.55 -24.4 -18.85 -22.15 -17.25 -21.4 -16.7 -20.55 -16.35 -19.8 -18.9 -19.45 -21.6 L-19.25 -22.85 -18.0 -30.25 Q-17.65 -32.9 -15.45 -34.1 L-14.45 -34.45 -4.1 -35.5 -1.4 -35.9 -0.35 -36.05 -0.6 -37.95 Q-1.25 -42.6 -2.4 -47.15 -3.0 -49.3 -3.2 -51.65 -3.9 -58.2 -6.05 -64.4 L-7.8 -69.0 -7.95 -69.8 Q-8.0 -71.65 -6.25 -71.85 -4.55 -71.6 -4.5 -69.95 L-4.5 -69.75 Q-1.4 -64.15 -0.65 -57.8 L-0.55 -56.75 Q0.2 -53.65 0.5 -50.35 L0.6 -49.15 Q1.4 -47.25 1.7 -45.15 M-25.45 -56.2 Q-29.7 -57.7 -32.25 -61.3 -32.85 -62.05 -32.5 -63.0 -32.0 -64.3 -30.7 -64.45 -27.8 -64.55 -27.8 -61.85 L-27.8 -61.7 Q-21.35 -58.0 -14.45 -55.1 -12.0 -54.1 -13.55 -52.1 -14.15 -51.35 -15.1 -51.7 -18.15 -52.8 -21.1 -54.2 L-23.6 -55.5 Q-24.5 -55.65 -25.25 -56.05 L-25.45 -56.2" fill="#666666" fill-rule="evenodd" stroke="none"/>
  </g>
</svg>
