<?xml version="1.0" encoding="UTF-8" standalone="no"?>
<svg xmlns:ffdec="https://www.free-decompiler.com/flash" xmlns:xlink="http://www.w3.org/1999/xlink" ffdec:objectType="shape" height="62.15px" width="55.3px" xmlns="http://www.w3.org/2000/svg">
  <g transform="matrix(1.0, 0.0, 0.0, 1.0, 33.25, 71.35)">
    <path d="M14.65 -53.05 Q14.75 -51.8 15.0 -50.5 L16.45 -42.95 Q16.85 -40.75 16.4 -38.6 16.15 -37.35 14.9 -37.2 13.15 -37.0 12.55 -38.65 11.8 -40.5 13.15 -42.0 L11.5 -50.15 11.3 -51.05 Q10.7 -53.0 10.55 -54.9 10.5 -55.45 11.0 -55.8 11.5 -56.2 12.05 -56.2 14.4 -55.65 14.65 -53.05 M1.6 -39.25 L1.85 -36.95 1.95 -35.8 2.4 -34.4 3.15 -24.15 3.45 -19.65 10.35 -19.0 16.35 -18.75 18.4 -18.55 20.4 -18.1 Q22.05 -17.75 22.05 -16.05 22.0 -13.8 21.6 -11.65 21.4 -10.4 20.5 -9.55 19.85 -9.0 19.1 -9.3 17.3 -10.05 17.95 -11.9 18.45 -13.2 18.45 -14.6 17.1 -15.2 15.4 -15.25 L10.6 -15.55 8.45 -15.9 8.2 -15.9 0.6 -16.45 0.15 -16.85 0.05 -17.15 Q-0.4 -17.75 -0.35 -18.7 -0.15 -21.3 -0.25 -23.85 L-0.35 -25.3 -0.95 -32.55 -2.6 -32.4 -4.75 -32.15 Q-7.4 -31.65 -10.05 -32.05 L-10.55 -32.15 -13.4 -32.35 -14.1 -29.75 -14.9 -27.25 -16.85 -21.25 -17.6 -19.0 -19.15 -15.3 Q-19.6 -14.25 -20.7 -14.5 L-21.35 -14.7 -22.75 -14.9 Q-26.75 -16.65 -30.5 -18.95 L-30.75 -19.4 Q-30.95 -21.25 -29.1 -21.55 -26.2 -20.6 -23.45 -19.3 L-21.6 -18.25 -20.35 -22.05 Q-19.45 -24.05 -18.95 -26.25 L-17.75 -29.9 Q-17.15 -31.45 -17.1 -33.1 L-17.05 -33.4 Q-17.45 -34.45 -16.35 -35.4 L-15.5 -35.65 -15.15 -35.7 -14.95 -35.65 Q-10.1 -35.55 -5.25 -35.7 L-3.0 -35.9 -1.6 -36.05 -2.0 -39.3 -2.45 -44.5 -2.85 -49.65 Q-3.4 -54.8 -4.6 -59.85 -5.35 -62.9 -6.75 -65.75 -7.65 -67.6 -8.1 -69.6 -8.3 -70.45 -7.6 -70.95 -7.1 -71.35 -6.55 -71.35 -4.45 -70.6 -3.7 -68.4 L-2.75 -65.9 Q-0.75 -61.1 -0.05 -55.95 L0.55 -50.75 0.95 -45.6 Q1.15 -42.4 1.6 -39.25 M-32.3 -62.85 Q-33.55 -64.15 -33.15 -65.95 -32.85 -67.3 -31.5 -67.4 -28.8 -67.3 -28.25 -64.5 L-28.25 -63.85 Q-23.7 -60.5 -18.45 -58.25 L-17.1 -57.6 Q-14.35 -56.2 -12.6 -53.85 -12.2 -53.3 -12.6 -52.7 -13.8 -50.95 -15.6 -52.3 -19.7 -55.4 -24.45 -57.45 -28.95 -59.35 -32.3 -62.85" fill="#666666" fill-rule="evenodd" stroke="none"/>
  </g>
</svg>
