<?xml version="1.0" encoding="UTF-8" standalone="no"?>
<svg xmlns:ffdec="https://www.free-decompiler.com/flash" xmlns:xlink="http://www.w3.org/1999/xlink" ffdec:objectType="shape" height="75.25px" width="42.85px" xmlns="http://www.w3.org/2000/svg">
  <g transform="matrix(1.0, 0.0, 0.0, 1.0, 27.55, 72.95)">
    <path d="M5.95 -51.5 Q7.8 -50.65 6.75 -48.95 6.0 -47.7 4.55 -48.15 L1.75 -49.2 2.0 -45.55 2.05 -44.25 2.55 -39.8 2.75 -37.65 3.15 -36.75 Q4.05 -35.8 4.15 -34.15 L4.85 -22.75 Q4.9 -21.85 4.6 -21.1 8.1 -15.3 10.3 -8.9 L15.15 -0.9 Q15.45 -0.35 15.1 0.15 14.35 1.2 13.55 1.25 13.0 1.95 11.5 1.9 L5.3 1.55 Q3.2 1.4 3.55 -0.55 3.8 -2.05 5.3 -2.15 L9.7 -2.0 8.4 -4.1 Q5.3 -9.9 2.75 -16.0 L2.05 -17.7 Q0.0 -20.1 0.7 -23.35 L0.75 -23.95 0.25 -31.65 -5.15 -23.35 -6.9 -20.5 -7.55 -19.55 -7.4 -18.2 -7.1 -14.9 Q-6.5 -11.3 -5.55 -7.8 -3.05 -3.4 -4.35 1.4 -4.5 1.85 -4.95 1.95 -8.3 2.7 -11.6 1.95 L-13.95 1.55 Q-16.85 1.1 -15.8 -1.4 L-14.85 -2.1 Q-12.95 -2.35 -11.0 -2.05 L-7.85 -1.75 -9.9 -9.35 Q-11.1 -14.05 -11.6 -18.9 -11.7 -19.85 -11.3 -20.45 L-11.1 -21.45 Q-10.4 -23.0 -9.35 -24.4 -6.45 -28.3 -4.2 -32.6 -3.0 -34.85 -1.25 -36.5 L-1.3 -37.65 -2.6 -50.65 -2.7 -51.5 -6.55 -53.65 Q-9.8 -55.45 -11.95 -58.35 -12.95 -59.75 -11.9 -61.0 -11.1 -62.05 -9.9 -62.15 -6.85 -61.85 -6.7 -59.0 L-6.7 -58.85 -3.4 -56.65 Q-4.25 -61.75 -4.5 -67.0 -4.55 -68.05 -5.25 -68.9 -6.45 -70.45 -5.55 -72.0 -5.05 -72.9 -4.1 -72.95 -1.55 -72.4 -0.95 -69.65 -0.1 -65.45 0.1 -61.05 0.25 -57.55 0.95 -54.05 3.35 -52.7 5.95 -51.5 M-21.55 -60.55 L-21.55 -60.4 Q-15.65 -57.1 -10.5 -52.65 -8.15 -50.6 -10.6 -48.95 -11.25 -48.5 -11.9 -48.95 -14.8 -50.85 -17.5 -53.1 L-19.15 -54.2 Q-22.9 -56.25 -26.35 -58.8 -28.15 -60.1 -27.2 -62.0 -26.45 -63.45 -25.05 -63.7 -21.85 -63.6 -21.55 -60.55" fill="#666666" fill-rule="evenodd" stroke="none"/>
  </g>
</svg>
