<?xml version="1.0" encoding="UTF-8" standalone="no"?>
<svg xmlns:ffdec="https://www.free-decompiler.com/flash" xmlns:xlink="http://www.w3.org/1999/xlink" ffdec:objectType="shape" height="75.1px" width="42.7px" xmlns="http://www.w3.org/2000/svg">
  <g transform="matrix(1.0, 0.0, 0.0, 1.0, 27.65, 73.1)">
    <path d="M3.2 -52.1 L3.65 -51.5 Q3.85 -49.0 1.65 -48.75 L2.65 -41.85 Q3.0 -39.25 2.75 -36.75 3.5 -35.85 3.55 -34.25 L4.05 -26.2 4.5 -21.65 4.6 -20.5 Q6.05 -19.2 7.05 -17.25 L12.15 -6.45 14.9 -0.5 Q15.35 0.4 14.5 1.0 13.4 1.8 12.55 1.65 L11.9 1.8 3.35 1.4 2.85 1.0 Q1.9 -1.35 4.55 -1.8 L7.75 -2.1 8.45 -2.2 9.45 -2.4 Q6.4 -8.0 4.05 -14.0 L3.55 -14.95 1.5 -18.0 Q-0.1 -18.8 0.2 -21.1 L0.25 -23.25 -0.6 -30.9 Q-3.4 -25.85 -6.65 -20.95 L-7.6 -19.7 Q-7.35 -18.85 -7.5 -17.7 L-7.4 -16.7 Q-5.5 -9.95 -4.45 -2.9 -4.1 -0.5 -6.0 0.6 L-6.05 0.65 Q-6.55 1.25 -7.65 1.35 L-15.35 1.55 Q-15.9 1.55 -16.1 0.95 -17.15 -2.1 -13.65 -2.35 L-12.9 -2.5 -8.75 -2.3 -8.75 -2.85 -8.85 -4.4 Q-10.0 -10.4 -11.6 -16.25 -12.1 -18.15 -11.55 -19.65 -11.9 -20.65 -11.05 -21.85 -6.4 -28.5 -2.9 -35.75 -2.25 -37.05 -1.05 -37.6 -1.35 -43.5 -2.5 -49.2 L-2.65 -49.9 Q-7.0 -51.3 -10.6 -54.0 -14.75 -56.15 -13.65 -60.85 -13.3 -62.3 -11.85 -62.35 -7.7 -62.4 -8.35 -58.4 -8.45 -57.95 -8.8 -57.6 L-3.4 -54.6 -3.75 -57.25 -3.8 -57.9 Q-4.2 -61.85 -5.05 -65.75 L-6.0 -71.55 Q-6.05 -72.15 -5.6 -72.55 -4.95 -73.1 -4.2 -73.1 -1.3 -71.85 -0.95 -68.4 L-0.65 -66.2 Q-0.25 -62.95 -0.1 -59.65 0.8 -56.35 1.15 -52.75 L3.2 -52.1 M-25.75 -60.4 L-24.8 -60.7 Q-21.6 -60.95 -21.75 -57.95 L-21.75 -57.75 -14.1 -55.15 Q-11.5 -54.3 -9.7 -52.6 -9.25 -52.15 -9.5 -51.6 -10.55 -49.1 -13.4 -50.35 -15.55 -51.3 -17.8 -52.05 L-26.35 -54.9 -26.9 -55.35 Q-28.8 -58.5 -25.75 -60.4" fill="#666666" fill-rule="evenodd" stroke="none"/>
  </g>
</svg>
