<?xml version="1.0" encoding="UTF-8" standalone="no"?>
<svg xmlns:ffdec="https://www.free-decompiler.com/flash" xmlns:xlink="http://www.w3.org/1999/xlink" ffdec:objectType="shape" height="76.35px" width="45.15px" xmlns="http://www.w3.org/2000/svg">
  <g transform="matrix(1.0, 0.0, 0.0, 1.0, 29.25, 74.05)">
    <path d="M1.1 -52.9 L1.5 -50.45 Q2.55 -46.05 2.75 -41.4 2.8 -39.95 3.15 -38.6 L3.55 -36.1 Q4.3 -35.2 4.25 -33.75 4.25 -32.35 4.4 -30.95 5.0 -25.05 6.45 -19.45 L7.2 -17.85 Q9.2 -15.05 10.7 -11.95 13.5 -6.35 15.8 -0.7 L15.75 0.2 Q15.15 1.35 13.85 1.45 L7.9 1.85 6.1 1.75 Q4.25 1.35 4.65 -0.5 5.05 -2.2 6.95 -2.3 L10.9 -2.45 5.75 -12.45 3.0 -17.2 Q1.75 -19.15 1.55 -21.55 L0.8 -27.55 0.45 -30.6 Q-2.8 -26.3 -7.1 -22.9 L-6.15 -12.7 -5.5 -6.75 -4.9 -0.15 Q-4.75 1.85 -6.8 2.2 L-8.9 2.25 -13.75 1.75 Q-16.5 1.55 -16.2 -0.9 -16.05 -1.9 -15.1 -2.15 L-12.75 -2.3 -8.95 -2.0 Q-9.2 -6.85 -9.85 -11.6 L-10.8 -18.65 Q-11.1 -21.0 -10.9 -23.3 -10.75 -25.3 -9.15 -26.65 -4.5 -30.55 -0.8 -35.2 L-0.55 -35.45 Q-1.1 -38.2 -1.25 -40.95 -1.6 -47.55 -3.1 -54.0 L-3.75 -58.25 -4.15 -61.9 Q-4.65 -65.15 -5.55 -68.3 L-6.2 -71.45 Q-6.5 -73.7 -4.4 -74.05 -2.25 -73.4 -2.05 -71.05 L-2.05 -70.9 Q-0.8 -67.15 -0.5 -63.15 L-0.5 -62.15 Q0.4 -59.55 0.5 -56.7 0.55 -54.8 1.1 -52.9 M-29.25 -59.7 Q-29.05 -61.95 -26.8 -62.4 -24.55 -62.8 -23.4 -60.9 L-23.3 -60.75 Q-16.75 -59.55 -10.5 -57.4 L-8.4 -56.05 Q-7.2 -54.85 -8.45 -53.7 -9.6 -52.6 -11.15 -53.2 -17.5 -55.7 -24.3 -56.6 -26.55 -56.9 -28.4 -58.0 -29.3 -58.6 -29.25 -59.7 M-21.1 -51.8 Q-19.35 -51.95 -18.4 -50.5 L-18.3 -50.4 -6.9 -51.6 Q-6.25 -51.65 -5.9 -51.1 -4.55 -49.0 -7.0 -48.25 -10.8 -47.05 -14.75 -46.55 -17.85 -46.15 -20.9 -46.55 L-21.75 -46.9 Q-24.35 -49.05 -22.05 -51.35 L-21.1 -51.8" fill="#666666" fill-rule="evenodd" stroke="none"/>
  </g>
</svg>
