<?xml version="1.0" encoding="UTF-8" standalone="no"?>
<svg xmlns:ffdec="https://www.free-decompiler.com/flash" xmlns:xlink="http://www.w3.org/1999/xlink" ffdec:objectType="shape" height="75.15px" width="48.1px" xmlns="http://www.w3.org/2000/svg">
  <g transform="matrix(1.0, 0.0, 0.0, 1.0, 32.8, 72.9)">
    <path d="M3.25 -37.9 Q4.5 -36.6 4.1 -34.25 3.95 -33.3 4.1 -32.3 5.15 -26.8 5.05 -21.3 6.25 -20.45 6.85 -18.85 9.7 -11.35 13.5 -4.3 14.65 -2.2 15.2 0.0 15.65 1.85 13.8 2.2 12.6 2.45 11.8 1.8 L5.55 2.1 Q4.3 2.25 3.9 1.1 3.2 -0.95 5.4 -1.75 L6.1 -1.95 9.85 -1.8 7.55 -6.6 2.55 -17.4 1.65 -19.7 1.6 -20.5 0.25 -29.1 0.05 -30.55 Q-2.2 -27.45 -5.1 -24.8 L-7.15 -23.0 Q-6.7 -22.0 -6.7 -20.6 L-6.65 -19.05 Q-6.35 -10.95 -5.2 -3.05 -4.95 -1.1 -5.45 0.7 -5.8 1.95 -7.1 1.95 -11.9 2.05 -16.3 0.7 L-16.8 0.1 Q-17.25 -2.1 -14.95 -2.2 L-9.5 -2.35 -10.8 -17.55 -11.2 -22.5 Q-11.55 -23.05 -11.3 -23.7 L-11.2 -23.9 -11.05 -24.3 Q-10.15 -26.25 -8.5 -27.7 -5.7 -30.15 -3.4 -33.05 -1.95 -34.8 -0.8 -36.75 L-0.5 -37.1 -1.25 -43.5 Q-2.35 -51.5 -4.2 -59.3 -5.05 -62.8 -5.25 -66.45 -5.45 -69.5 -4.45 -72.15 -4.25 -72.75 -3.55 -72.85 L-3.15 -72.9 Q-0.4 -71.75 -0.95 -68.35 -1.3 -66.35 -0.85 -64.45 0.9 -56.55 2.15 -48.6 L3.2 -41.1 3.25 -37.9 M-31.05 -56.15 Q-33.35 -56.85 -32.65 -59.3 -32.1 -61.35 -30.05 -61.6 L-13.9 -60.05 Q-10.65 -59.65 -11.6 -56.85 -11.85 -56.05 -12.7 -55.95 L-17.0 -56.25 -19.9 -56.6 -25.9 -56.95 Q-28.25 -55.3 -31.05 -56.15 M-17.15 -49.6 Q-11.35 -49.95 -6.05 -51.8 -2.7 -51.6 -4.05 -48.75 -4.4 -48.1 -5.1 -47.85 -12.65 -45.35 -20.7 -45.25 -21.55 -45.25 -21.95 -46.0 -23.65 -49.05 -20.6 -50.45 L-17.85 -50.35 -17.15 -49.6" fill="#666666" fill-rule="evenodd" stroke="none"/>
  </g>
</svg>
