<?xml version="1.0" encoding="UTF-8" standalone="no"?>
<svg xmlns:ffdec="https://www.free-decompiler.com/flash" xmlns:xlink="http://www.w3.org/1999/xlink" ffdec:objectType="shape" height="75.05px" width="49.55px" xmlns="http://www.w3.org/2000/svg">
  <g transform="matrix(1.0, 0.0, 0.0, 1.0, 34.0, 72.95)">
    <path d="M0.15 -31.25 Q-2.45 -27.25 -5.8 -23.75 -7.0 -22.5 -7.8 -20.95 L-7.15 -17.8 -7.1 -16.95 Q-6.2 -13.05 -6.0 -8.9 L-5.85 -7.55 Q-5.2 -3.5 -4.9 0.5 L-5.1 1.15 Q-5.65 1.9 -6.6 1.95 -11.45 2.1 -15.95 0.85 L-16.45 0.35 Q-17.1 -1.65 -15.05 -2.2 L-11.3 -2.3 -9.15 -2.15 -10.1 -10.25 -10.45 -12.85 Q-10.75 -15.65 -11.45 -18.45 -11.85 -20.05 -11.65 -21.75 -11.4 -23.6 -10.15 -25.1 L-4.7 -31.75 Q-2.75 -34.2 -1.1 -36.8 L-1.2 -37.4 -1.3 -40.9 Q-1.65 -47.5 -1.55 -54.25 L-1.65 -57.55 -3.0 -62.15 -3.25 -63.0 Q-5.35 -66.5 -5.65 -70.55 -5.75 -72.65 -3.75 -72.95 -1.45 -72.3 -1.5 -69.8 L-1.25 -68.7 Q1.8 -62.7 2.15 -56.1 L2.35 -49.35 Q2.25 -43.75 2.7 -38.25 3.9 -37.25 3.8 -35.2 L3.8 -34.75 Q4.3 -28.1 5.25 -21.55 L5.6 -20.7 Q9.05 -15.05 11.35 -8.85 12.4 -6.05 13.95 -3.5 L15.15 -1.5 Q16.1 0.15 14.65 1.3 L13.65 1.75 Q8.95 2.5 4.45 1.75 L4.1 1.55 Q2.25 -0.95 5.35 -1.6 L8.05 -1.8 10.0 -2.0 4.45 -14.3 2.75 -17.4 Q1.7 -18.95 1.35 -20.7 0.8 -23.6 0.55 -26.6 L0.3 -29.55 0.15 -31.25 M-30.55 -64.1 L-17.45 -63.5 -14.2 -63.0 Q-12.65 -62.8 -12.75 -61.3 -12.8 -59.6 -14.5 -59.55 L-23.1 -60.15 Q-24.25 -60.35 -25.45 -60.15 -26.5 -58.3 -28.75 -57.9 -30.85 -57.5 -32.65 -58.55 -34.0 -59.3 -34.0 -60.85 -34.1 -63.7 -31.15 -64.0 L-30.55 -64.1 M-3.9 -46.85 L-9.55 -45.1 Q-12.8 -43.9 -16.25 -43.65 -20.25 -43.35 -20.8 -46.9 -21.0 -48.1 -19.9 -48.7 -18.6 -49.45 -17.1 -49.05 -15.95 -48.75 -14.95 -48.0 -12.45 -48.15 -9.95 -49.15 -7.3 -50.25 -4.6 -50.9 -1.55 -50.85 -2.45 -48.15 -2.8 -47.1 -3.9 -46.85" fill="#666666" fill-rule="evenodd" stroke="none"/>
  </g>
</svg>
