<?xml version="1.0" encoding="UTF-8" standalone="no"?>
<svg xmlns:ffdec="https://www.free-decompiler.com/flash" xmlns:xlink="http://www.w3.org/1999/xlink" ffdec:objectType="shape" height="74.15px" width="50.5px" xmlns="http://www.w3.org/2000/svg">
  <g transform="matrix(1.0, 0.0, 0.0, 1.0, 34.65, 72.05)">
    <path d="M0.8 -53.25 Q1.4 -50.0 1.6 -46.65 L2.0 -43.55 2.4 -40.3 Q3.7 -39.3 3.6 -37.2 3.5 -33.8 4.2 -30.6 5.05 -26.75 5.5 -22.85 5.85 -19.6 7.85 -16.85 9.8 -14.15 11.15 -11.05 12.45 -7.9 14.1 -4.95 L15.65 -1.3 Q16.5 1.4 13.8 1.7 L5.65 1.95 Q4.3 1.85 4.15 0.55 3.9 -1.15 5.65 -1.35 L11.1 -1.75 4.95 -13.85 3.25 -17.1 Q1.3 -20.6 1.1 -24.65 0.95 -27.65 0.3 -30.6 L0.05 -31.8 Q-1.1 -30.1 -2.55 -28.6 -4.5 -26.65 -6.0 -24.25 L-7.95 -21.4 Q-7.7 -16.0 -6.8 -10.75 L-5.85 -6.9 -5.55 -5.6 Q-4.7 -3.25 -4.7 -0.8 -4.2 0.65 -5.1 1.35 -5.25 1.55 -5.5 1.6 L-6.4 1.9 Q-8.7 2.35 -10.9 1.85 L-14.4 1.75 Q-16.1 2.05 -16.45 0.4 -16.9 -1.75 -14.75 -2.15 L-8.7 -1.95 Q-9.45 -5.35 -10.5 -8.6 -11.55 -12.5 -11.7 -16.7 L-11.7 -21.95 Q-11.6 -24.0 -10.2 -25.55 L-7.75 -28.7 -3.45 -34.3 -1.35 -37.2 -2.55 -48.3 -2.7 -48.0 Q-3.1 -47.1 -4.0 -46.8 -9.95 -44.55 -16.25 -43.3 -18.1 -42.95 -19.4 -44.0 -20.95 -45.35 -20.05 -47.25 -19.55 -48.25 -18.45 -48.4 L-15.15 -48.1 -14.6 -47.85 Q-9.35 -49.15 -4.4 -50.9 -3.2 -50.7 -2.7 -50.15 L-3.15 -53.3 -3.6 -56.55 Q-4.05 -61.45 -5.05 -66.25 L-5.7 -69.45 Q-6.25 -71.65 -3.95 -72.05 -1.65 -71.7 -1.45 -69.25 L-1.25 -68.1 Q-0.05 -61.6 0.6 -54.9 L0.8 -53.25 M-32.3 -65.0 L-19.85 -63.9 -15.3 -63.25 Q-14.1 -63.15 -13.9 -61.95 -13.55 -59.95 -15.6 -59.75 -20.75 -59.3 -25.65 -60.5 L-27.35 -60.85 -28.65 -61.0 Q-28.85 -58.25 -31.85 -58.85 -35.2 -59.55 -34.55 -62.85 -34.15 -64.7 -32.3 -65.0" fill="#666666" fill-rule="evenodd" stroke="none"/>
  </g>
</svg>
