<?xml version="1.0" encoding="UTF-8" standalone="no"?>
<svg xmlns:ffdec="https://www.free-decompiler.com/flash" xmlns:xlink="http://www.w3.org/1999/xlink" ffdec:objectType="shape" height="74.6px" width="43.1px" xmlns="http://www.w3.org/2000/svg">
  <g transform="matrix(1.0, 0.0, 0.0, 1.0, 27.9, 72.45)">
    <path d="M2.2 -51.8 L2.35 -45.25 2.3 -38.25 Q3.15 -37.45 3.15 -35.95 L3.2 -35.1 4.45 -25.25 Q4.75 -22.35 5.5 -19.6 8.0 -16.0 9.65 -12.0 11.85 -7.45 14.4 -3.0 L15.15 -0.95 Q15.45 0.85 13.75 1.7 L13.1 1.9 Q9.05 2.45 5.2 1.9 L4.45 1.35 Q3.35 -0.95 5.9 -1.5 L10.0 -2.0 5.85 -10.95 5.8 -11.1 1.8 -18.75 Q1.4 -19.5 1.25 -20.35 0.15 -25.6 -0.3 -31.05 -3.35 -26.65 -6.7 -22.5 -7.25 -21.85 -7.3 -21.0 -8.0 -14.1 -5.8 -7.8 -4.55 -4.15 -4.45 -0.35 -4.4 1.65 -6.6 1.9 L-15.65 1.35 Q-16.6 1.15 -16.65 0.2 -16.85 -2.6 -13.65 -2.0 -11.05 -1.55 -8.35 -2.0 -10.25 -7.15 -10.95 -12.6 L-11.2 -15.7 Q-11.4 -19.85 -10.55 -23.75 -10.35 -24.65 -9.75 -25.4 -6.2 -29.55 -3.3 -34.1 L-1.55 -35.95 -1.55 -36.15 -1.45 -47.55 Q-1.45 -54.35 -3.35 -60.85 -3.95 -63.0 -4.8 -65.0 -6.05 -68.05 -5.7 -71.25 -5.65 -71.75 -5.2 -72.05 L-4.1 -72.45 Q-2.05 -71.8 -1.65 -69.5 L-1.6 -68.15 -0.15 -64.3 0.0 -63.55 Q1.85 -57.85 2.2 -51.8 M-25.95 -62.15 Q-22.75 -62.6 -22.5 -59.7 L-22.5 -59.5 Q-15.95 -57.3 -8.85 -56.0 -8.05 -55.85 -7.4 -55.35 -5.65 -53.95 -7.25 -52.4 L-7.65 -52.1 -7.05 -52.25 Q-3.7 -52.5 -4.3 -49.5 -4.5 -48.45 -5.6 -48.3 -11.65 -47.5 -17.6 -46.05 L-21.95 -46.3 Q-23.35 -46.8 -23.35 -48.25 -23.35 -49.3 -22.6 -50.0 -21.2 -51.3 -19.05 -50.8 -18.2 -50.6 -17.45 -50.1 L-8.2 -52.0 -8.35 -52.0 Q-12.4 -52.35 -16.4 -53.4 -20.9 -54.6 -25.2 -56.25 -28.85 -57.7 -27.6 -61.0 L-26.9 -61.85 -25.95 -62.15" fill="#666666" fill-rule="evenodd" stroke="none"/>
  </g>
</svg>
