<?xml version="1.0" encoding="UTF-8" standalone="no"?>
<svg xmlns:ffdec="https://www.free-decompiler.com/flash" xmlns:xlink="http://www.w3.org/1999/xlink" ffdec:objectType="shape" height="75.8px" width="40.25px" xmlns="http://www.w3.org/2000/svg">
  <g transform="matrix(1.0, 0.0, 0.0, 1.0, 25.2, 73.35)">
    <path d="M0.7 -54.7 Q1.7 -52.15 1.85 -49.4 2.7 -46.45 2.9 -43.25 3.1 -40.05 2.7 -36.95 L2.85 -36.95 Q4.25 -35.75 4.2 -33.4 4.1 -29.55 4.9 -25.8 5.45 -23.1 5.05 -20.5 6.4 -19.15 7.2 -17.15 L9.15 -12.75 9.35 -12.1 Q12.45 -6.9 14.85 -1.5 L15.05 -0.45 14.85 1.05 Q14.45 2.65 12.1 2.45 8.35 2.1 4.9 1.05 4.25 0.85 4.2 0.15 4.1 -1.95 6.1 -2.15 L10.45 -2.0 9.35 -4.15 Q6.65 -7.85 4.85 -12.0 L4.1 -13.55 Q2.8 -15.95 1.9 -18.45 1.15 -19.0 1.1 -20.5 1.1 -25.6 0.2 -30.55 L0.05 -31.45 -2.7 -28.05 Q-5.55 -24.9 -7.65 -21.3 -7.25 -20.4 -7.25 -19.15 L-7.15 -14.35 Q-6.9 -9.9 -5.4 -5.75 -4.5 -3.4 -4.65 -1.05 L-4.5 -0.7 Q-4.25 0.75 -5.15 1.25 L-5.8 1.6 -6.6 1.6 -13.25 1.9 -15.15 1.65 Q-18.35 0.75 -16.15 -1.6 -15.55 -2.25 -14.55 -2.4 L-13.6 -2.5 -8.95 -2.3 Q-9.25 -5.3 -10.0 -8.25 -10.9 -11.85 -11.35 -15.55 L-11.9 -19.85 Q-12.1 -21.1 -11.65 -21.95 L-11.3 -22.85 -9.2 -26.1 -4.2 -32.95 -1.9 -36.35 -1.85 -36.95 -1.8 -37.4 -1.05 -37.25 Q-0.75 -42.25 -1.25 -47.25 L-2.35 -51.7 Q-2.55 -49.2 -5.3 -50.25 L-22.3 -56.65 Q-25.95 -58.0 -24.95 -61.3 L-24.2 -62.2 -23.35 -62.5 Q-20.5 -62.55 -19.35 -60.35 L-19.25 -60.15 Q-11.2 -56.35 -2.8 -52.8 L-2.6 -52.65 -3.3 -55.65 -3.55 -57.35 Q-3.85 -62.1 -5.05 -66.6 -5.85 -67.95 -6.1 -69.35 L-6.2 -69.25 -6.35 -69.75 Q-7.85 -71.7 -5.7 -72.95 L-5.0 -73.25 -4.95 -73.2 -4.6 -73.35 -3.35 -72.4 -2.6 -71.7 -2.75 -71.65 Q-2.1 -70.55 -1.95 -68.95 L-1.95 -68.7 Q0.2 -62.9 0.35 -56.4 0.35 -55.5 0.7 -54.7 M-19.45 -50.05 L-9.65 -51.15 Q-8.5 -51.3 -8.2 -50.2 -7.5 -47.6 -10.5 -47.35 L-12.3 -47.1 Q-17.9 -45.75 -23.55 -46.5 -24.7 -46.65 -25.0 -47.8 -25.8 -50.85 -23.15 -51.75 -20.35 -52.4 -19.55 -50.2 L-19.45 -50.05" fill="#666666" fill-rule="evenodd" stroke="none"/>
  </g>
</svg>
