<?xml version="1.0" encoding="UTF-8" standalone="no"?>
<svg xmlns:ffdec="https://www.free-decompiler.com/flash" xmlns:xlink="http://www.w3.org/1999/xlink" ffdec:objectType="shape" height="74.95px" width="42.75px" xmlns="http://www.w3.org/2000/svg">
  <g transform="matrix(1.0, 0.0, 0.0, 1.0, 27.15, 72.95)">
    <path d="M2.15 -52.5 Q2.7 -45.95 3.5 -39.45 L3.8 -36.5 3.75 -33.6 3.7 -33.4 3.7 -31.75 4.65 -25.35 Q5.3 -20.05 8.1 -15.35 L8.8 -13.95 Q11.6 -7.9 15.0 -2.25 16.55 0.25 14.2 1.75 L13.65 1.9 4.85 1.25 4.55 1.05 Q3.1 -1.25 5.7 -1.85 L9.45 -2.3 10.2 -2.25 Q7.0 -8.1 4.25 -14.25 L3.3 -16.1 Q0.6 -21.0 0.35 -26.7 L0.25 -27.85 -0.15 -31.65 -2.05 -28.6 -3.0 -27.0 -7.4 -19.7 -7.5 -19.1 -6.7 -6.6 Q-6.65 -5.5 -6.2 -4.45 -5.6 -2.9 -5.65 -1.4 -5.3 -0.9 -5.25 0.0 -5.25 0.7 -5.75 1.1 -7.15 2.15 -9.0 1.95 L-14.95 1.3 Q-17.25 1.05 -16.55 -1.05 -16.15 -2.3 -14.95 -2.35 L-10.0 -2.3 -10.65 -6.15 Q-11.05 -8.65 -11.1 -11.25 -11.15 -15.2 -11.45 -19.15 -11.65 -22.55 -9.25 -25.05 L-7.65 -26.95 Q-5.85 -29.7 -4.4 -32.6 -3.45 -34.6 -2.05 -36.25 L-0.45 -38.1 -0.3 -38.25 -0.45 -40.65 -1.45 -49.1 Q-2.85 -49.5 -4.15 -50.25 L-5.6 -51.0 -6.1 -51.35 Q-12.9 -53.7 -18.45 -58.25 -20.45 -59.9 -19.2 -62.1 -18.7 -62.95 -17.8 -63.0 -14.3 -63.25 -14.15 -59.85 L-14.1 -59.7 Q-8.3 -56.3 -2.0 -53.5 L-2.05 -53.8 -2.25 -56.6 Q-2.3 -58.7 -2.75 -60.7 L-3.7 -64.7 Q-5.15 -67.7 -5.85 -71.0 -6.05 -71.95 -5.2 -72.55 L-4.1 -72.95 Q-2.0 -72.55 -1.55 -70.35 L-1.0 -68.6 Q1.6 -62.5 1.9 -55.8 L2.15 -52.5 M-20.4 -52.2 L-20.35 -52.1 -9.0 -51.8 Q-7.2 -51.75 -7.15 -50.0 -7.15 -49.25 -7.7 -48.7 -8.25 -48.15 -9.0 -48.15 -17.15 -47.75 -25.15 -48.4 -26.35 -48.5 -26.85 -49.55 -27.3 -50.4 -27.1 -51.4 -26.7 -53.65 -24.05 -53.9 L-23.45 -54.0 Q-21.3 -54.1 -20.4 -52.2" fill="#666666" fill-rule="evenodd" stroke="none"/>
  </g>
</svg>
