<?xml version="1.0" encoding="UTF-8" standalone="no"?>
<svg xmlns:ffdec="https://www.free-decompiler.com/flash" xmlns:xlink="http://www.w3.org/1999/xlink" ffdec:objectType="shape" height="75.45px" width="45.6px" xmlns="http://www.w3.org/2000/svg">
  <g transform="matrix(1.0, 0.0, 0.0, 1.0, 29.6, 72.95)">
    <path d="M4.95 -53.2 Q7.7 -52.0 6.4 -49.65 5.95 -48.9 5.05 -48.9 3.5 -48.9 2.4 -50.05 L1.65 -50.5 1.5 -50.55 2.4 -43.25 Q2.75 -40.35 3.4 -37.55 L3.45 -37.25 Q4.85 -36.3 4.55 -34.1 L4.35 -31.0 4.35 -22.1 9.3 -12.7 Q10.2 -10.9 10.5 -8.9 12.35 -4.5 15.7 -1.0 16.05 -0.65 16.0 -0.15 15.8 1.5 14.1 1.75 9.1 2.4 4.2 1.75 L3.9 1.55 Q2.5 -0.6 5.05 -1.25 L8.25 -1.85 9.75 -2.0 Q7.0 -5.55 5.85 -9.9 L5.25 -11.55 1.05 -20.1 Q0.3 -21.55 0.35 -23.3 L0.4 -32.65 Q-2.75 -29.8 -4.7 -25.9 -5.8 -23.6 -7.4 -21.6 L-7.95 -20.75 Q-6.95 -16.05 -6.5 -11.2 -6.2 -8.15 -5.25 -5.3 -4.25 -2.35 -4.85 0.65 -4.95 1.2 -5.55 1.35 L-11.75 2.4 -15.25 2.2 Q-17.25 1.7 -16.6 -0.2 -16.2 -1.35 -14.95 -1.4 L-8.8 -2.0 Q-10.0 -6.7 -10.55 -11.6 -10.9 -14.55 -11.55 -17.5 L-11.9 -20.0 Q-12.15 -23.15 -9.85 -25.4 L-8.5 -27.3 Q-7.0 -30.25 -4.9 -32.8 L-1.0 -36.95 -0.65 -37.2 Q-1.7 -42.75 -2.15 -48.3 L-2.4 -51.6 -2.45 -52.3 Q-6.65 -54.4 -10.5 -57.1 -13.35 -59.1 -11.75 -62.05 -11.25 -62.9 -10.25 -63.1 L-9.65 -63.25 Q-6.3 -62.95 -7.0 -59.65 L-7.05 -59.45 -3.05 -57.1 Q-3.6 -60.85 -4.45 -64.5 L-5.9 -69.25 Q-7.25 -71.75 -4.7 -72.85 L-4.4 -72.95 Q-2.1 -72.1 -1.6 -69.5 L-1.35 -68.1 0.05 -61.7 Q0.75 -59.1 0.95 -56.45 L1.1 -55.0 4.95 -53.2 M-23.4 -55.15 L-23.35 -55.0 Q-17.6 -54.4 -11.9 -53.0 -9.15 -52.35 -10.5 -50.05 -10.95 -49.3 -11.85 -49.35 L-17.3 -50.05 -22.35 -50.6 Q-26.6 -50.75 -29.2 -53.85 -29.75 -54.5 -29.5 -55.35 -29.0 -57.4 -26.8 -57.5 -24.2 -57.55 -23.4 -55.15" fill="#666666" fill-rule="evenodd" stroke="none"/>
  </g>
</svg>
