<?xml version="1.0" encoding="UTF-8" standalone="no"?>
<svg xmlns:ffdec="https://www.free-decompiler.com/flash" xmlns:xlink="http://www.w3.org/1999/xlink" ffdec:objectType="shape" height="74.85px" width="48.4px" xmlns="http://www.w3.org/2000/svg">
  <g transform="matrix(1.0, 0.0, 0.0, 1.0, 33.35, 72.4)">
    <path d="M4.25 -54.45 L3.0 -54.5 4.0 -54.6 4.25 -54.45 M1.2 -53.95 Q4.7 -52.8 8.65 -52.55 9.6 -52.45 9.85 -51.5 10.3 -49.65 8.25 -49.45 4.9 -49.15 1.85 -50.05 L1.9 -49.7 1.85 -45.1 2.0 -45.1 2.05 -44.7 Q2.15 -44.3 1.8 -44.1 L2.5 -38.75 2.6 -37.15 Q4.25 -35.95 4.2 -33.4 4.1 -29.55 4.9 -25.8 5.45 -23.1 5.05 -20.5 6.4 -19.15 7.2 -17.15 L9.15 -12.75 9.35 -12.1 Q12.45 -6.9 14.85 -1.5 L15.05 -0.45 14.85 1.05 Q14.45 2.65 12.1 2.45 8.35 2.1 4.9 1.05 4.25 0.85 4.2 0.15 4.1 -1.95 6.1 -2.15 L10.45 -2.0 9.35 -4.15 Q6.65 -7.85 4.85 -12.0 L4.1 -13.55 Q2.8 -15.95 1.9 -18.45 1.15 -19.0 1.1 -20.5 1.1 -25.6 0.2 -30.55 L0.05 -31.45 -2.7 -28.05 Q-5.55 -24.9 -7.65 -21.3 -7.25 -20.4 -7.25 -19.15 L-7.15 -14.35 Q-6.9 -9.9 -5.4 -5.75 -4.5 -3.4 -4.65 -1.05 L-4.5 -0.7 Q-4.25 0.75 -5.15 1.25 L-5.8 1.6 -6.6 1.6 -13.25 1.9 -15.15 1.65 Q-18.35 0.75 -16.15 -1.6 -15.55 -2.25 -14.55 -2.4 L-13.6 -2.5 -8.95 -2.3 Q-9.25 -5.3 -10.0 -8.25 -10.9 -11.85 -11.35 -15.55 L-11.9 -19.85 Q-12.1 -21.1 -11.65 -21.95 L-11.3 -22.85 -9.2 -26.1 -4.2 -32.95 -1.9 -36.35 -1.85 -36.95 Q-1.65 -38.7 -1.75 -40.5 L-2.05 -45.05 -1.85 -45.05 -1.75 -45.9 -1.65 -47.6 -2.0 -51.5 Q-6.95 -53.5 -11.15 -56.75 -11.8 -57.3 -11.85 -58.15 -12.05 -61.0 -9.55 -61.75 -5.7 -61.7 -5.15 -58.15 -5.1 -57.7 -5.4 -57.3 L-2.65 -55.6 -3.75 -60.6 -4.5 -64.2 Q-4.85 -66.4 -5.55 -68.55 -6.45 -71.45 -3.95 -72.4 -1.95 -71.75 -1.85 -69.45 L-1.55 -67.3 -0.05 -61.0 0.95 -55.55 1.0 -54.7 1.2 -53.95 M-31.25 -62.7 Q-27.45 -62.95 -27.4 -59.4 L-27.4 -59.25 Q-20.85 -56.45 -13.85 -55.45 -13.4 -55.4 -13.25 -54.95 -12.7 -52.95 -14.8 -52.75 L-20.25 -53.2 -28.35 -55.65 Q-30.45 -56.35 -32.35 -57.35 -33.0 -57.7 -33.15 -58.4 -33.95 -61.65 -31.25 -62.7" fill="#666666" fill-rule="evenodd" stroke="none"/>
  </g>
</svg>
