<?xml version="1.0" encoding="UTF-8" standalone="no"?>
<svg xmlns:ffdec="https://www.free-decompiler.com/flash" xmlns:xlink="http://www.w3.org/1999/xlink" ffdec:objectType="shape" height="74.8px" width="52.15px" xmlns="http://www.w3.org/2000/svg">
  <g transform="matrix(1.0, 0.0, 0.0, 1.0, 36.1, 72.95)">
    <path d="M4.0 -54.6 L4.2 -54.5 8.45 -54.25 Q9.65 -54.15 9.95 -52.95 10.2 -52.1 9.6 -51.35 9.2 -50.75 8.45 -50.75 L1.45 -50.75 Q1.75 -47.75 2.35 -44.85 L2.75 -42.9 Q3.45 -40.15 3.65 -37.3 L3.65 -36.7 Q4.55 -35.8 4.1 -34.0 3.9 -33.25 4.0 -32.45 4.75 -25.85 6.35 -19.45 6.55 -18.65 7.05 -17.95 10.8 -12.5 13.95 -6.7 15.65 -3.65 16.05 -0.25 16.1 0.4 15.6 0.75 13.7 2.1 11.2 1.8 L5.85 1.15 Q5.35 1.1 5.1 0.6 3.95 -1.7 6.65 -2.05 L11.1 -2.3 11.45 -2.3 11.3 -2.75 11.05 -3.4 Q7.8 -9.7 3.75 -15.5 1.75 -18.3 1.5 -21.7 L0.7 -27.35 Q0.2 -29.65 0.0 -32.0 -2.6 -29.4 -4.15 -26.0 -5.5 -23.05 -7.65 -20.45 -7.4 -15.5 -6.55 -10.7 L-4.7 -1.75 Q-4.2 0.35 -6.3 0.9 L-9.1 1.5 Q-12.4 2.15 -15.55 1.45 L-16.0 1.05 Q-17.1 -1.05 -14.8 -1.7 L-13.3 -2.05 -8.9 -2.7 -10.85 -12.4 -11.55 -18.35 -11.45 -21.45 Q-11.25 -22.6 -10.55 -23.55 -8.25 -26.65 -6.5 -30.0 L-3.4 -34.55 Q-1.95 -36.2 -0.25 -37.3 -1.0 -40.1 -1.4 -43.05 L-2.1 -48.05 -2.5 -50.8 -3.0 -50.85 Q-5.65 -50.9 -8.1 -51.95 -9.4 -52.55 -10.25 -53.65 -11.65 -55.4 -10.3 -57.2 -9.6 -58.15 -8.55 -58.2 -5.3 -58.4 -5.3 -55.4 L-5.25 -55.25 Q-4.25 -54.8 -3.15 -54.65 L-4.4 -61.05 Q-5.5 -66.25 -5.6 -71.6 -5.6 -72.1 -5.2 -72.45 -4.65 -72.9 -3.95 -72.95 -1.65 -72.05 -1.5 -69.3 -1.4 -66.8 -0.85 -64.35 0.25 -59.5 0.95 -54.6 L3.3 -54.5 4.0 -54.6 M-36.05 -62.6 Q-35.75 -64.6 -33.65 -64.75 -30.8 -64.8 -30.2 -62.1 L-30.15 -61.95 Q-26.85 -60.75 -23.05 -60.05 -18.35 -59.2 -14.55 -56.45 -14.15 -56.15 -14.25 -55.65 -14.75 -52.9 -17.55 -54.1 -21.05 -55.6 -24.85 -56.3 -29.5 -57.2 -33.9 -58.95 -36.4 -60.0 -36.05 -62.6" fill="#666666" fill-rule="evenodd" stroke="none"/>
  </g>
</svg>
