<?xml version="1.0" encoding="UTF-8" standalone="no"?>
<svg xmlns:ffdec="https://www.free-decompiler.com/flash" xmlns:xlink="http://www.w3.org/1999/xlink" ffdec:objectType="shape" height="75.65px" width="55.25px" xmlns="http://www.w3.org/2000/svg">
  <g transform="matrix(1.0, 0.0, 0.0, 1.0, 39.3, 73.35)">
    <path d="M8.15 -54.8 Q11.25 -55.05 10.6 -52.3 10.4 -51.3 9.35 -51.15 L2.45 -50.35 1.55 -50.25 2.7 -38.25 3.05 -36.55 3.15 -36.1 3.25 -35.65 Q3.8 -34.75 3.85 -33.4 L4.05 -30.9 Q5.0 -24.4 6.8 -18.15 6.95 -17.5 7.35 -16.95 L11.05 -11.05 14.25 -5.3 Q15.25 -3.4 15.85 -1.35 16.3 0.4 14.8 1.25 L13.4 1.65 7.65 1.85 Q4.6 1.9 5.45 -1.0 5.7 -1.75 6.45 -1.95 L11.1 -2.25 7.4 -9.85 7.3 -10.0 Q5.1 -12.95 3.25 -16.2 2.2 -17.95 1.9 -20.0 L1.4 -23.2 Q0.65 -27.25 0.05 -31.35 L-1.25 -30.0 Q-3.65 -27.6 -5.15 -24.4 L-7.3 -19.2 -7.55 -17.95 Q-7.85 -13.6 -6.85 -9.55 -5.15 -4.6 -4.45 0.55 -4.35 1.2 -4.9 1.55 -6.5 2.6 -8.55 2.2 L-9.25 2.15 -14.6 2.0 Q-15.85 1.9 -16.05 0.7 -16.5 -1.9 -13.75 -1.85 L-9.8 -1.8 -8.8 -2.0 Q-10.5 -6.95 -11.15 -12.1 L-11.45 -15.2 Q-11.55 -18.5 -10.95 -21.6 L-10.75 -22.15 Q-8.4 -27.2 -5.15 -31.75 -3.75 -33.75 -1.95 -35.35 L-1.1 -36.1 Q-1.5 -42.7 -2.25 -49.2 L-2.3 -49.8 -9.75 -50.3 Q-10.35 -50.45 -10.8 -50.95 -12.6 -53.25 -10.45 -54.95 -10.05 -55.25 -9.65 -55.3 -7.2 -55.85 -5.95 -53.95 L-5.9 -53.85 -2.7 -54.05 -3.0 -59.9 -3.15 -61.55 Q-3.95 -66.45 -5.7 -71.0 -6.0 -71.75 -5.55 -72.4 -4.95 -73.35 -3.95 -73.35 -1.65 -72.5 -1.0 -69.95 L-0.05 -66.25 Q1.4 -60.7 1.25 -54.75 L1.25 -54.3 8.15 -54.8 M-39.1 -61.65 L-39.3 -62.55 Q-39.1 -64.9 -36.7 -65.2 -34.5 -65.35 -33.1 -63.7 L-33.0 -63.6 -22.3 -62.05 Q-20.45 -61.8 -18.9 -60.85 -16.95 -59.7 -18.3 -58.0 -19.2 -56.9 -20.6 -57.3 L-28.45 -59.0 -35.5 -59.65 Q-37.95 -59.75 -39.1 -61.65" fill="#666666" fill-rule="evenodd" stroke="none"/>
  </g>
</svg>
