<?xml version="1.0" encoding="UTF-8" standalone="no"?>
<svg xmlns:ffdec="https://www.free-decompiler.com/flash" xmlns:xlink="http://www.w3.org/1999/xlink" ffdec:objectType="shape" height="75.75px" width="55.9px" xmlns="http://www.w3.org/2000/svg">
  <g transform="matrix(1.0, 0.0, 0.0, 1.0, 40.85, 73.3)">
    <path d="M1.25 -50.25 L1.4 -46.65 1.65 -43.35 Q1.8 -41.3 1.6 -39.3 L2.45 -39.3 2.5 -38.75 2.6 -37.15 Q4.25 -35.95 4.2 -33.4 4.1 -29.55 4.9 -25.8 5.45 -23.1 5.05 -20.5 6.4 -19.15 7.2 -17.15 L9.15 -12.75 9.35 -12.1 Q12.45 -6.9 14.85 -1.5 L15.05 -0.45 14.85 1.05 Q14.45 2.65 12.1 2.45 8.35 2.1 4.9 1.05 4.25 0.85 4.2 0.15 4.1 -1.95 6.1 -2.15 L10.45 -2.0 9.35 -4.15 Q6.65 -7.85 4.85 -12.0 L4.1 -13.55 Q2.8 -15.95 1.9 -18.45 1.15 -19.0 1.1 -20.5 1.1 -25.6 0.2 -30.55 L0.05 -31.45 -2.7 -28.05 Q-5.55 -24.9 -7.65 -21.3 -7.25 -20.4 -7.25 -19.15 L-7.15 -14.35 Q-6.9 -9.9 -5.4 -5.75 -4.5 -3.4 -4.65 -1.05 L-4.5 -0.7 Q-4.25 0.75 -5.15 1.25 L-5.8 1.6 -6.6 1.6 -13.25 1.9 -15.15 1.65 Q-18.35 0.75 -16.15 -1.6 -15.55 -2.25 -14.55 -2.4 L-13.6 -2.5 -8.95 -2.3 Q-9.25 -5.3 -10.0 -8.25 -10.9 -11.85 -11.35 -15.55 L-11.9 -19.85 Q-12.1 -21.1 -11.65 -21.95 L-11.3 -22.85 -9.2 -26.1 -4.2 -32.95 -1.9 -36.35 -1.85 -36.95 Q-1.7 -38.1 -1.7 -39.3 L-1.65 -39.3 -2.2 -49.3 -9.4 -48.85 Q-11.75 -49.1 -11.45 -51.45 -11.0 -54.95 -7.55 -54.8 -6.8 -54.75 -6.15 -54.35 -5.1 -53.65 -4.65 -52.45 L-2.4 -52.7 -2.9 -59.15 Q-3.2 -62.45 -4.2 -65.5 L-5.95 -70.8 Q-6.25 -71.6 -5.9 -72.3 -5.45 -73.25 -4.4 -73.3 -2.85 -73.1 -2.7 -71.55 L-2.7 -71.4 Q0.3 -66.0 0.7 -59.8 L1.05 -53.55 1.4 -53.7 5.05 -54.8 8.45 -55.3 Q11.45 -55.0 10.25 -52.4 9.85 -51.65 9.0 -51.55 L1.25 -50.25 M-23.05 -63.55 Q-21.0 -63.2 -19.2 -62.35 -18.25 -61.9 -18.55 -60.9 -19.25 -58.85 -21.65 -59.45 -27.4 -60.8 -33.25 -61.5 -36.95 -58.75 -40.5 -61.55 L-40.8 -62.1 Q-41.2 -64.8 -38.45 -65.2 L-35.8 -65.7 -23.05 -63.55" fill="#666666" fill-rule="evenodd" stroke="none"/>
  </g>
</svg>
