<?xml version="1.0" encoding="UTF-8" standalone="no"?>
<svg xmlns:ffdec="https://www.free-decompiler.com/flash" xmlns:xlink="http://www.w3.org/1999/xlink" ffdec:objectType="shape" height="76.5px" width="57.45px" xmlns="http://www.w3.org/2000/svg">
  <g transform="matrix(1.0, 0.0, 0.0, 1.0, 41.3, 74.45)">
    <path d="M11.25 -53.25 Q11.0 -52.5 10.25 -52.2 L1.45 -48.2 1.75 -44.95 2.05 -41.85 2.25 -37.65 Q3.1 -36.9 3.25 -35.45 L3.4 -34.3 Q4.6 -27.85 5.25 -21.25 L5.45 -18.8 Q7.85 -12.25 12.05 -6.7 L14.95 -3.35 Q16.2 -2.1 16.15 -0.3 16.1 1.4 14.4 1.55 L6.85 2.05 Q4.05 2.15 4.2 -0.35 4.3 -1.95 5.95 -1.95 L10.45 -2.0 Q5.75 -7.55 2.8 -14.15 1.4 -17.25 1.2 -20.65 L0.7 -26.6 0.3 -29.4 -0.1 -31.35 -3.7 -25.9 -6.25 -21.45 -7.15 -20.0 -7.1 -19.65 -7.1 -19.35 -7.1 -19.15 Q-5.75 -14.4 -5.95 -9.25 L-5.95 -8.45 Q-5.75 -5.35 -5.0 -2.4 -4.6 -0.8 -5.3 0.55 -5.8 1.45 -6.8 1.6 L-15.55 1.2 -16.0 0.85 Q-17.1 -1.25 -14.75 -1.7 L-9.4 -2.25 -9.9 -10.15 -10.25 -15.1 -10.8 -18.25 Q-11.65 -21.85 -9.2 -24.8 L-8.15 -26.3 Q-5.5 -31.1 -2.1 -35.5 L-1.6 -36.1 -1.7 -37.35 -2.15 -46.95 -8.3 -47.15 -8.85 -47.5 Q-10.6 -49.85 -8.25 -51.8 -6.75 -53.0 -4.8 -52.25 -3.9 -51.95 -3.6 -51.0 L-2.85 -50.95 -2.9 -51.7 Q-3.05 -58.3 -4.2 -64.75 L-5.15 -69.85 Q-5.45 -71.3 -5.25 -72.8 -5.05 -74.35 -3.5 -74.45 -0.95 -74.0 -1.15 -71.35 L-1.15 -70.85 0.4 -61.1 0.7 -58.15 1.1 -52.3 Q5.1 -54.45 9.25 -56.0 12.1 -55.8 11.25 -53.25 M-26.75 -66.1 L-21.1 -65.25 Q-20.0 -65.0 -19.1 -64.25 -17.55 -62.9 -19.0 -61.5 -19.95 -60.6 -21.25 -60.9 -27.15 -62.35 -33.3 -62.55 L-34.8 -62.6 Q-35.2 -61.1 -36.8 -60.65 -40.05 -59.7 -41.1 -62.55 L-41.3 -63.65 Q-41.4 -66.2 -38.9 -66.8 L-26.75 -66.1" fill="#666666" fill-rule="evenodd" stroke="none"/>
  </g>
</svg>
