<?xml version="1.0" encoding="UTF-8" standalone="no"?>
<svg xmlns:ffdec="https://www.free-decompiler.com/flash" xmlns:xlink="http://www.w3.org/1999/xlink" ffdec:objectType="shape" height="74.85px" width="55.3px" xmlns="http://www.w3.org/2000/svg">
  <g transform="matrix(1.0, 0.0, 0.0, 1.0, 40.1, 72.95)">
    <path d="M9.2 -55.5 L9.7 -55.8 Q12.7 -55.5 11.6 -52.85 L10.85 -51.9 Q7.0 -48.5 2.6 -45.85 L1.35 -45.2 1.9 -38.85 Q2.95 -37.95 2.85 -36.2 L2.95 -35.4 4.7 -25.85 5.4 -22.0 5.45 -21.35 Q6.15 -18.2 7.6 -15.25 10.0 -10.4 12.75 -5.8 L14.15 -3.8 Q15.45 -2.2 15.15 -0.3 15.0 0.95 13.75 1.05 L7.9 1.4 Q5.15 2.85 4.6 -0.05 4.2 -1.95 6.1 -2.3 L9.8 -2.7 Q6.3 -8.6 3.35 -14.85 2.5 -16.6 2.1 -18.5 L2.05 -19.15 Q0.35 -25.15 -0.3 -31.35 L-0.3 -31.45 Q-1.7 -30.2 -2.65 -28.6 -3.55 -26.95 -4.9 -25.6 -7.25 -23.25 -7.55 -20.1 L-7.6 -18.95 Q-7.55 -13.3 -5.5 -8.15 L-5.15 -6.9 Q-4.9 -4.55 -4.15 -2.35 -3.6 -0.75 -4.6 0.45 -5.1 1.1 -5.95 1.15 L-14.4 1.45 Q-15.4 1.5 -15.7 0.5 -16.4 -1.95 -13.5 -2.1 L-8.7 -2.85 Q-8.6 -5.7 -9.7 -8.2 L-10.25 -10.6 Q-11.6 -15.3 -11.55 -20.35 -11.55 -24.7 -8.25 -27.9 L-7.3 -28.95 -4.4 -33.05 Q-3.45 -34.5 -2.1 -35.45 L-2.15 -36.15 Q-2.05 -39.5 -2.35 -42.75 L-2.5 -44.7 -6.05 -44.9 Q-7.3 -45.0 -7.6 -46.2 -8.05 -47.8 -7.45 -49.2 -7.05 -50.2 -5.95 -50.3 -4.1 -50.45 -2.9 -49.3 L-3.35 -56.1 -3.95 -62.75 Q-4.25 -65.45 -5.05 -67.95 -5.7 -69.95 -5.05 -71.9 -4.75 -72.7 -3.85 -72.9 L-3.5 -72.95 Q-1.05 -72.45 -1.0 -69.8 L-0.85 -68.15 Q0.1 -61.55 0.65 -54.95 L1.0 -50.0 1.05 -49.7 Q5.35 -52.3 9.2 -55.5 M-38.25 -66.3 L-24.9 -65.7 Q-22.1 -65.5 -19.75 -64.2 -19.2 -63.85 -19.1 -63.2 -18.85 -60.5 -21.6 -61.05 -27.55 -62.2 -33.75 -62.15 -34.4 -61.2 -35.5 -60.9 -39.1 -59.9 -40.0 -63.1 -40.25 -64.05 -39.95 -64.95 -39.5 -66.2 -38.25 -66.3 M-4.2 -59.5 L-4.55 -59.6 -4.65 -59.75 -4.2 -59.5" fill="#666666" fill-rule="evenodd" stroke="none"/>
  </g>
</svg>
