<?xml version="1.0" encoding="UTF-8" standalone="no"?>
<svg xmlns:ffdec="https://www.free-decompiler.com/flash" xmlns:xlink="http://www.w3.org/1999/xlink" ffdec:objectType="shape" height="75.5px" width="53.5px" xmlns="http://www.w3.org/2000/svg">
  <g transform="matrix(1.0, 0.0, 0.0, 1.0, 38.45, 73.05)">
    <path d="M6.25 -53.45 Q6.9 -54.85 8.3 -55.05 11.05 -54.05 9.35 -51.65 8.5 -50.4 7.05 -49.6 4.5 -48.1 1.8 -46.95 L2.3 -39.95 2.5 -38.75 2.6 -37.15 Q4.25 -35.95 4.2 -33.4 4.1 -29.55 4.9 -25.8 5.45 -23.1 5.05 -20.5 6.4 -19.15 7.2 -17.15 L9.15 -12.75 9.35 -12.1 Q12.45 -6.9 14.85 -1.5 L15.05 -0.45 14.85 1.05 Q14.45 2.65 12.1 2.45 8.35 2.1 4.9 1.05 4.25 0.85 4.2 0.15 4.1 -1.95 6.1 -2.15 L10.45 -2.0 9.35 -4.15 Q6.65 -7.85 4.85 -12.0 L4.1 -13.55 Q2.8 -15.95 1.9 -18.45 1.15 -19.0 1.1 -20.5 1.1 -25.6 0.2 -30.55 L0.05 -31.45 -2.7 -28.05 Q-5.55 -24.9 -7.65 -21.3 -7.25 -20.4 -7.25 -19.15 L-7.15 -14.35 Q-6.9 -9.9 -5.4 -5.75 -4.5 -3.4 -4.65 -1.05 L-4.5 -0.7 Q-4.25 0.75 -5.15 1.25 L-5.8 1.6 -6.6 1.6 -13.25 1.9 -15.15 1.65 Q-18.35 0.75 -16.15 -1.6 -15.55 -2.25 -14.55 -2.4 L-13.6 -2.5 -8.95 -2.3 Q-9.25 -5.3 -10.0 -8.25 -10.9 -11.85 -11.35 -15.55 L-11.9 -19.85 Q-12.1 -21.1 -11.65 -21.95 L-11.3 -22.85 -9.2 -26.1 -4.2 -32.95 -1.9 -36.35 -1.85 -36.95 Q-1.65 -38.7 -1.75 -40.5 L-1.75 -40.7 -1.25 -40.7 -1.5 -45.7 -5.05 -44.7 Q-7.8 -44.05 -8.5 -46.45 -9.05 -48.3 -7.85 -49.55 -5.95 -51.6 -3.75 -49.95 -3.35 -49.65 -3.2 -49.15 L-2.0 -49.45 -2.25 -51.0 -2.95 -55.8 -3.75 -59.8 -5.35 -66.4 -6.4 -70.0 Q-7.25 -72.45 -4.85 -73.05 -2.35 -71.85 -2.15 -68.75 -2.05 -66.55 -1.25 -64.6 -0.5 -62.6 -0.35 -60.45 0.3 -59.5 0.3 -58.35 L0.3 -57.5 Q1.05 -54.55 1.2 -51.45 L1.3 -50.65 6.25 -53.45 M-35.1 -66.85 L-26.35 -66.15 -26.1 -66.05 Q-22.15 -65.5 -18.5 -64.05 -17.9 -63.8 -17.85 -63.2 -17.65 -60.95 -19.95 -61.35 L-23.1 -61.9 -27.7 -62.85 -32.7 -63.25 Q-34.25 -60.25 -37.4 -62.0 -38.8 -62.75 -38.35 -64.35 -37.8 -66.2 -35.75 -66.7 L-35.1 -66.85" fill="#666666" fill-rule="evenodd" stroke="none"/>
  </g>
</svg>
