<?xml version="1.0" encoding="UTF-8" standalone="no"?>
<svg xmlns:ffdec="https://www.free-decompiler.com/flash" xmlns:xlink="http://www.w3.org/1999/xlink" ffdec:objectType="shape" height="75.45px" width="53.95px" xmlns="http://www.w3.org/2000/svg">
  <g transform="matrix(1.0, 0.0, 0.0, 1.0, 38.05, 72.95)">
    <path d="M4.25 -52.95 Q6.65 -54.1 9.0 -54.9 11.85 -54.7 11.0 -52.15 10.65 -51.25 9.75 -50.85 L1.3 -47.55 2.35 -36.65 Q2.9 -35.85 2.95 -34.6 L3.05 -33.8 Q5.0 -27.5 6.4 -21.1 L6.55 -19.45 Q7.3 -16.2 9.35 -13.5 13.7 -7.75 15.75 -0.75 16.35 1.25 14.35 1.75 L10.0 2.05 5.85 1.7 Q4.6 1.65 4.4 0.45 4.05 -1.6 6.15 -1.85 L11.1 -2.0 Q9.15 -7.45 5.7 -12.1 2.55 -15.65 2.25 -20.5 L1.9 -22.65 0.0 -30.25 Q-4.35 -26.0 -7.6 -20.9 L-7.9 -20.55 Q-7.8 -18.4 -7.1 -16.4 L-6.85 -15.25 Q-5.5 -10.4 -4.6 -5.4 L-4.0 -1.4 Q-2.6 1.4 -5.55 1.85 L-11.75 2.5 Q-14.3 2.6 -15.85 0.85 -16.25 0.4 -16.1 -0.2 -15.55 -2.4 -13.1 -1.8 L-8.05 -1.6 -10.05 -11.45 Q-10.45 -13.7 -11.25 -15.9 -12.55 -19.6 -10.9 -22.9 L-10.4 -23.8 Q-6.85 -29.55 -1.75 -34.05 L-1.95 -35.35 Q-1.9 -38.65 -2.2 -41.95 L-2.5 -46.3 -2.75 -46.25 -8.0 -45.9 Q-9.15 -46.1 -9.4 -47.25 -10.05 -50.35 -6.9 -50.15 -6.3 -50.1 -5.9 -49.7 L-2.85 -50.35 -3.25 -55.15 -3.6 -58.45 -5.4 -71.5 Q-5.5 -72.05 -5.0 -72.45 L-3.75 -72.95 Q-1.25 -72.45 -1.3 -69.8 L-1.2 -68.65 Q0.2 -62.15 0.65 -55.45 L0.95 -51.55 4.25 -52.95 M-37.25 -62.3 Q-39.15 -64.85 -36.45 -66.5 L-35.6 -66.8 Q-33.55 -66.85 -32.0 -65.45 L-31.9 -65.3 -17.95 -62.55 Q-16.05 -62.2 -16.5 -60.35 -16.75 -59.25 -17.9 -59.15 -21.75 -58.9 -25.45 -59.95 L-29.15 -60.7 -36.9 -62.05 -37.25 -62.3" fill="#666666" fill-rule="evenodd" stroke="none"/>
  </g>
</svg>
