<?xml version="1.0" encoding="UTF-8" standalone="no"?>
<svg xmlns:ffdec="https://www.free-decompiler.com/flash" xmlns:xlink="http://www.w3.org/1999/xlink" ffdec:objectType="shape" height="75.8px" width="49.75px" xmlns="http://www.w3.org/2000/svg">
  <g transform="matrix(1.0, 0.0, 0.0, 1.0, 33.3, 73.55)">
    <path d="M10.25 -51.9 Q10.15 -50.65 8.9 -50.4 L2.25 -49.15 3.05 -41.55 3.2 -40.4 3.55 -37.5 3.6 -36.05 3.65 -34.85 Q4.35 -33.9 4.1 -32.3 3.85 -30.15 4.3 -28.15 L5.0 -24.9 6.1 -19.3 7.7 -15.95 7.85 -15.5 Q11.3 -9.1 15.55 -3.25 17.6 -0.4 15.1 1.9 L14.3 2.2 Q9.85 2.5 5.85 1.05 5.4 0.9 5.3 0.4 4.8 -2.4 7.65 -2.1 L11.75 -1.75 Q7.65 -7.2 4.7 -13.3 1.45 -18.9 0.7 -25.45 L0.25 -29.95 0.15 -30.75 -5.2 -23.5 -7.3 -20.75 -6.3 -10.2 -6.05 -4.45 Q-6.05 -2.5 -5.55 -0.65 -4.95 1.5 -7.25 1.9 L-8.75 1.95 -13.15 1.85 Q-15.9 2.95 -16.2 0.2 -16.35 -0.9 -15.35 -1.55 L-14.15 -2.0 -10.0 -2.25 Q-10.0 -7.55 -10.55 -12.8 L-11.2 -18.55 -11.35 -20.2 Q-11.6 -22.7 -9.7 -24.45 -8.15 -25.9 -7.0 -27.7 -3.95 -32.3 -0.45 -36.5 L-0.55 -37.25 -1.3 -43.85 -1.75 -48.5 -3.3 -48.3 -8.0 -48.7 Q-10.4 -49.4 -9.65 -51.9 -8.8 -54.6 -5.8 -53.95 -4.65 -53.7 -4.3 -52.55 L-1.95 -52.55 Q-2.2 -58.8 -4.35 -64.6 -5.6 -68.0 -5.9 -71.55 -6.0 -73.1 -4.45 -73.45 L-4.1 -73.55 Q-1.85 -72.7 -1.6 -70.1 L-1.0 -67.6 Q1.3 -61.35 1.75 -54.75 L1.9 -53.0 7.5 -54.2 Q10.45 -54.5 10.25 -51.9 M-33.0 -64.55 Q-33.5 -65.45 -33.2 -66.4 -32.8 -67.8 -31.45 -67.9 -28.65 -68.0 -28.2 -65.4 L-28.2 -65.25 Q-23.05 -61.8 -17.4 -59.15 -15.8 -58.4 -14.65 -57.1 -13.8 -56.15 -14.55 -55.15 -15.75 -53.45 -17.5 -54.65 -21.6 -57.35 -25.95 -59.4 L-28.3 -60.4 Q-31.45 -61.7 -33.0 -64.55" fill="#666666" fill-rule="evenodd" stroke="none"/>
  </g>
</svg>
