<?xml version="1.0" encoding="UTF-8" standalone="no"?>
<svg xmlns:ffdec="https://www.free-decompiler.com/flash" xmlns:xlink="http://www.w3.org/1999/xlink" ffdec:objectType="shape" height="75.75px" width="46.3px" xmlns="http://www.w3.org/2000/svg">
  <g transform="matrix(1.0, 0.0, 0.0, 1.0, 31.25, 73.3)">
    <path d="M0.7 -51.05 Q1.15 -46.5 1.9 -42.0 2.2 -40.0 1.8 -38.15 L2.6 -38.15 2.6 -37.15 Q4.25 -35.95 4.2 -33.4 4.1 -29.55 4.9 -25.8 5.45 -23.1 5.05 -20.5 6.4 -19.15 7.2 -17.15 L9.15 -12.75 9.35 -12.1 Q12.45 -6.9 14.85 -1.5 L15.05 -0.45 14.85 1.05 Q14.45 2.65 12.1 2.45 8.35 2.1 4.9 1.05 4.25 0.85 4.2 0.15 4.1 -1.95 6.1 -2.15 L10.45 -2.0 9.35 -4.15 Q6.65 -7.85 4.85 -12.0 L4.1 -13.55 Q2.8 -15.95 1.9 -18.45 1.15 -19.0 1.1 -20.5 1.1 -25.6 0.2 -30.55 L0.05 -31.45 -2.7 -28.05 Q-5.55 -24.9 -7.65 -21.3 -7.25 -20.4 -7.25 -19.15 L-7.15 -14.35 Q-6.9 -9.9 -5.4 -5.75 -4.5 -3.4 -4.65 -1.05 L-4.5 -0.7 Q-4.25 0.75 -5.15 1.25 L-5.8 1.6 -6.6 1.6 -13.25 1.9 -15.15 1.65 Q-18.35 0.75 -16.15 -1.6 -15.55 -2.25 -14.55 -2.4 L-13.6 -2.5 -8.95 -2.3 Q-9.25 -5.3 -10.0 -8.25 -10.9 -11.85 -11.35 -15.55 L-11.9 -19.85 Q-12.1 -21.1 -11.65 -21.95 L-11.3 -22.85 -9.2 -26.1 -4.2 -32.95 -1.9 -36.35 -1.85 -36.95 -1.75 -37.8 -1.8 -38.5 Q-1.65 -41.5 -2.1 -44.4 L-2.85 -50.95 -2.85 -51.4 -6.35 -51.8 Q-8.8 -52.05 -10.45 -53.8 -11.85 -55.25 -10.9 -57.15 -10.45 -58.05 -9.55 -58.05 -7.0 -58.2 -6.05 -55.8 L-5.95 -55.65 -3.25 -55.25 Q-3.8 -59.75 -4.85 -64.1 L-5.95 -68.45 Q-7.4 -70.65 -6.15 -72.65 -5.75 -73.3 -5.1 -73.3 -3.0 -73.1 -3.15 -71.05 L-3.15 -70.85 Q-2.45 -69.45 -2.05 -67.95 -1.95 -67.6 -2.0 -67.25 -0.15 -61.35 0.35 -55.1 L0.4 -54.75 7.65 -53.9 Q8.75 -53.8 8.85 -52.75 9.05 -50.45 6.55 -50.6 L0.7 -51.05 M-25.35 -64.45 Q-25.25 -63.45 -25.9 -62.75 -22.8 -60.45 -19.25 -58.4 L-14.85 -56.0 Q-14.35 -55.7 -14.4 -55.15 -14.65 -52.6 -17.35 -53.55 -20.85 -54.75 -24.05 -56.8 -26.6 -58.5 -28.8 -60.6 -30.55 -62.3 -31.1 -64.6 -31.85 -67.7 -28.95 -68.45 -25.75 -67.9 -25.35 -64.45" fill="#666666" fill-rule="evenodd" stroke="none"/>
  </g>
</svg>
