<?xml version="1.0" encoding="UTF-8" standalone="no"?>
<svg xmlns:ffdec="https://www.free-decompiler.com/flash" xmlns:xlink="http://www.w3.org/1999/xlink" ffdec:objectType="shape" height="75.35px" width="44.1px" xmlns="http://www.w3.org/2000/svg">
  <g transform="matrix(1.0, 0.0, 0.0, 1.0, 28.3, 72.95)">
    <path d="M8.05 -52.9 L8.45 -52.4 Q9.2 -49.4 6.1 -49.85 L0.8 -50.95 Q1.2 -47.2 2.0 -43.6 2.8 -40.0 2.75 -36.3 4.75 -35.35 5.0 -32.8 L5.75 -19.6 Q5.8 -17.85 6.1 -16.15 9.65 -9.7 14.4 -4.0 16.45 -1.55 15.5 1.25 15.25 2.05 14.4 2.15 9.95 2.9 6.1 1.25 5.45 1.0 5.45 0.3 5.6 -2.5 8.8 -1.85 L11.0 -1.75 Q6.3 -7.5 2.9 -14.05 1.8 -16.15 1.85 -18.55 L1.8 -23.7 Q1.75 -27.65 1.2 -31.45 L0.15 -31.5 Q-1.4 -29.55 -2.55 -27.4 -4.5 -23.75 -7.2 -20.65 L-7.95 -19.8 Q-6.7 -15.2 -6.45 -10.4 L-6.35 -8.55 -5.75 -3.1 Q-4.35 -0.3 -7.0 0.95 L-7.75 1.2 -15.05 1.9 Q-15.45 1.9 -15.7 1.55 -17.2 -0.9 -14.5 -1.75 L-12.0 -2.25 -9.6 -2.55 -10.9 -13.25 -11.2 -15.4 -11.85 -20.4 Q-11.95 -21.5 -11.15 -22.4 -7.2 -26.85 -4.35 -32.05 L-2.1 -35.65 -1.05 -36.8 Q-1.3 -40.1 -1.9 -43.3 -2.9 -47.6 -3.2 -52.1 -7.2 -53.5 -10.7 -55.8 -12.5 -56.95 -11.8 -59.0 -11.3 -60.45 -9.9 -60.6 -6.05 -61.0 -5.55 -57.6 L-5.55 -57.45 -3.4 -56.6 Q-3.7 -62.65 -5.6 -68.35 -6.15 -69.9 -6.05 -71.5 -6.05 -72.25 -5.35 -72.6 L-4.4 -72.95 Q-1.95 -72.35 -1.35 -69.65 0.15 -63.25 0.4 -56.6 L0.45 -55.2 Q4.2 -53.9 8.05 -52.9 M-27.8 -62.1 Q-28.5 -63.35 -28.25 -64.85 -27.95 -66.7 -26.15 -66.95 -22.3 -67.2 -22.45 -63.65 -22.45 -62.9 -22.9 -62.3 L-17.5 -58.0 -12.1 -53.9 -10.8 -52.35 Q-9.9 -50.7 -11.65 -49.9 -13.1 -49.2 -14.4 -50.25 -18.5 -53.7 -22.85 -56.75 -26.0 -58.95 -27.8 -62.1" fill="#666666" fill-rule="evenodd" stroke="none"/>
  </g>
</svg>
