<?xml version="1.0" encoding="UTF-8" standalone="no"?>
<svg xmlns:ffdec="https://www.free-decompiler.com/flash" xmlns:xlink="http://www.w3.org/1999/xlink" ffdec:objectType="shape" height="76.85px" width="42.65px" xmlns="http://www.w3.org/2000/svg">
  <g transform="matrix(1.0, 0.0, 0.0, 1.0, 26.15, 75.0)">
    <path d="M6.85 -53.15 Q9.3 -52.2 7.7 -50.35 7.1 -49.65 6.2 -49.95 3.65 -50.8 1.3 -51.95 2.3 -45.85 3.45 -39.75 L3.5 -39.2 3.95 -38.0 Q4.55 -37.05 4.7 -35.75 L4.9 -33.55 5.0 -31.6 Q6.2 -27.6 6.8 -23.4 7.1 -21.45 6.8 -19.6 8.6 -17.95 9.6 -15.45 12.15 -8.95 15.8 -3.0 17.6 -0.05 14.65 1.0 L14.15 1.05 Q10.05 1.85 6.0 0.9 4.1 0.45 4.9 -1.3 5.35 -2.35 6.35 -2.4 L11.9 -2.2 11.45 -3.05 8.35 -8.85 6.95 -11.45 Q6.25 -12.85 5.9 -14.35 L4.2 -16.75 3.95 -17.4 Q3.55 -17.95 3.45 -18.45 L3.15 -19.6 Q2.7 -25.65 1.65 -31.6 L1.45 -32.65 -2.8 -26.8 Q-4.95 -23.65 -7.75 -21.2 -7.3 -20.3 -7.25 -19.05 L-6.7 -14.7 Q-5.15 -7.3 -4.8 0.2 -4.7 1.9 -6.35 1.85 -7.35 1.85 -7.8 1.3 L-8.95 1.25 -15.15 0.9 Q-16.0 0.95 -16.25 0.1 -16.85 -2.2 -14.4 -2.7 -11.35 -3.1 -8.5 -2.6 -9.35 -9.95 -11.15 -17.15 -11.65 -19.05 -11.4 -20.85 -11.85 -21.7 -11.05 -22.9 L-10.05 -24.25 -1.5 -35.15 -0.45 -36.85 -1.85 -43.5 -2.8 -49.25 Q-3.1 -51.5 -2.6 -53.6 L-2.55 -53.7 -2.6 -54.0 Q-5.7 -55.85 -8.55 -58.2 -10.35 -59.7 -9.75 -62.2 -9.35 -63.9 -7.65 -64.2 -4.5 -64.05 -5.3 -61.05 -5.4 -60.55 -5.8 -60.25 L-3.15 -58.35 -3.4 -60.35 -4.55 -67.9 Q-5.1 -70.6 -5.15 -73.4 -5.15 -74.9 -3.7 -75.0 -1.6 -74.15 -1.8 -71.65 L-1.8 -71.45 Q-0.65 -67.7 -0.3 -63.75 L0.65 -56.05 Q3.6 -54.4 6.85 -53.15 M-21.45 -60.95 Q-21.7 -60.4 -22.2 -60.1 -18.4 -54.6 -12.5 -51.45 -11.85 -51.1 -12.0 -50.3 -12.6 -48.05 -14.95 -49.15 -18.9 -51.0 -21.95 -54.1 -24.45 -56.65 -25.8 -59.7 -26.7 -61.85 -25.2 -63.55 -24.45 -64.35 -23.5 -64.45 -20.15 -64.15 -21.45 -60.95" fill="#666666" fill-rule="evenodd" stroke="none"/>
  </g>
</svg>
