<?xml version="1.0" encoding="UTF-8" standalone="no"?>
<svg xmlns:ffdec="https://www.free-decompiler.com/flash" xmlns:xlink="http://www.w3.org/1999/xlink" ffdec:objectType="shape" height="75.75px" width="43.2px" xmlns="http://www.w3.org/2000/svg">
  <g transform="matrix(1.0, 0.0, 0.0, 1.0, 27.35, 74.2)">
    <path d="M8.65 -53.0 L9.0 -52.4 Q9.35 -49.3 6.25 -50.05 L5.35 -50.3 Q3.1 -51.1 1.0 -52.1 1.05 -50.1 1.25 -48.15 2.3 -44.55 2.85 -40.8 L3.3 -37.55 Q4.85 -36.3 4.4 -33.65 4.25 -32.85 4.4 -32.05 L5.35 -24.65 Q5.45 -23.05 5.9 -21.65 L6.15 -19.8 Q7.15 -18.9 7.5 -17.35 L7.6 -17.15 Q11.7 -10.7 15.05 -3.75 15.5 -2.9 15.3 -2.2 15.75 -1.85 15.85 -1.0 16.0 0.65 14.3 0.8 L6.85 1.05 Q4.75 0.95 4.95 -1.0 5.1 -2.75 6.85 -2.9 L11.0 -2.75 Q8.65 -6.65 6.6 -10.75 3.8 -14.15 2.9 -18.25 2.4 -18.5 2.15 -19.2 1.3 -21.7 1.5 -24.45 0.8 -26.9 0.45 -29.55 L0.2 -31.7 -0.25 -31.05 Q-2.45 -27.85 -4.8 -24.8 -6.05 -23.1 -7.55 -21.6 -7.15 -20.6 -7.3 -19.2 -7.5 -17.45 -7.3 -15.7 L-6.7 -11.0 Q-5.8 -7.35 -5.25 -3.45 -5.15 -2.45 -5.5 -1.55 -4.65 -0.45 -5.95 0.9 -6.8 1.75 -8.05 1.45 L-10.7 1.25 -15.15 1.2 Q-16.75 1.0 -16.75 -0.55 -16.75 -2.15 -15.15 -2.4 L-11.4 -2.8 -10.65 -2.9 -9.9 -3.05 -9.9 -3.15 Q-10.1 -6.8 -10.7 -10.35 -11.6 -15.65 -12.0 -20.95 -12.1 -22.4 -11.4 -23.15 L-10.8 -24.15 -1.2 -37.05 -1.15 -37.05 Q-1.15 -38.9 -1.55 -40.75 -3.15 -47.4 -3.2 -54.4 L-8.05 -57.95 Q-10.45 -60.0 -8.6 -62.3 -7.9 -63.25 -6.85 -63.25 -4.1 -63.2 -3.4 -61.35 -3.95 -66.45 -6.05 -71.15 -6.9 -73.05 -5.05 -73.9 L-4.35 -74.2 Q-2.0 -73.35 -1.2 -70.8 L-0.25 -67.2 Q0.8 -62.15 0.95 -56.85 4.7 -54.75 8.65 -53.0 M-21.8 -59.9 L-22.2 -59.1 Q-17.7 -54.55 -11.75 -52.2 -10.5 -51.7 -10.75 -50.4 -11.1 -48.2 -13.35 -48.45 -15.3 -48.7 -16.95 -49.7 -22.15 -52.85 -26.15 -57.2 -27.9 -59.1 -27.1 -61.55 -26.45 -63.55 -24.3 -63.8 -21.0 -63.4 -21.8 -59.9" fill="#666666" fill-rule="evenodd" stroke="none"/>
  </g>
</svg>
