<?xml version="1.0" encoding="UTF-8" standalone="no"?>
<svg xmlns:ffdec="https://www.free-decompiler.com/flash" xmlns:xlink="http://www.w3.org/1999/xlink" ffdec:objectType="shape" height="75.9px" width="42.25px" xmlns="http://www.w3.org/2000/svg">
  <g transform="matrix(1.0, 0.0, 0.0, 1.0, 27.2, 74.25)">
    <path d="M2.5 -55.4 Q3.15 -54.95 4.0 -54.8 6.3 -54.3 7.9 -52.75 8.8 -51.85 7.9 -50.9 6.9 -49.75 5.45 -50.1 3.55 -50.5 1.85 -51.25 L3.8 -34.65 3.85 -34.05 Q4.25 -33.25 4.25 -32.1 4.15 -26.5 4.85 -21.05 6.25 -20.1 7.0 -18.3 9.55 -12.2 12.7 -6.4 13.75 -4.5 14.2 -2.45 15.65 -0.5 14.6 0.55 14.35 1.5 13.0 1.55 9.6 1.75 6.25 1.5 5.1 1.4 5.0 0.25 4.85 -1.6 6.65 -1.8 L10.5 -1.65 9.95 -2.75 5.05 -13.2 Q4.25 -14.3 3.75 -15.6 3.65 -15.9 3.7 -16.25 2.55 -17.4 2.2 -18.65 1.5 -19.1 1.3 -20.25 0.75 -24.25 0.35 -28.25 0.15 -30.2 0.35 -32.1 L-7.95 -21.4 Q-7.25 -20.45 -7.05 -19.0 L-5.95 -13.1 Q-5.0 -9.15 -4.35 -5.15 -3.95 -2.95 -4.45 -0.8 -4.3 0.3 -5.0 0.7 -5.45 1.3 -6.35 0.95 L-6.4 0.95 -14.9 1.45 Q-15.55 1.55 -15.8 0.85 -16.85 -1.95 -13.7 -2.25 L-13.0 -2.4 -8.1 -2.25 Q-8.0 -3.4 -8.2 -4.6 -9.3 -12.35 -11.05 -20.0 -12.0 -20.85 -11.3 -22.5 -10.7 -24.05 -9.6 -25.35 -5.6 -31.65 -0.35 -36.85 L-0.7 -40.7 -2.45 -53.7 -3.1 -54.25 -7.15 -57.3 Q-10.95 -59.8 -8.55 -63.1 L-7.8 -63.55 Q-4.55 -63.85 -4.8 -60.75 L-4.85 -60.55 -3.25 -59.35 -4.1 -65.8 Q-4.7 -66.45 -4.7 -67.3 L-4.7 -68.2 Q-6.4 -70.85 -5.5 -73.55 -5.35 -74.05 -4.75 -74.15 L-4.3 -74.25 Q-1.6 -72.85 -1.0 -69.55 L1.2 -56.3 2.5 -55.4 M-22.3 -58.95 L-22.35 -58.75 Q-17.4 -54.8 -11.55 -51.85 -10.3 -51.2 -10.95 -49.95 -12.0 -47.9 -14.15 -49.05 L-22.8 -53.85 Q-25.45 -55.4 -26.65 -57.95 -28.25 -61.25 -25.1 -62.4 -22.0 -61.95 -22.3 -58.95" fill="#666666" fill-rule="evenodd" stroke="none"/>
  </g>
</svg>
