<?xml version="1.0" encoding="UTF-8" standalone="no"?>
<svg xmlns:ffdec="https://www.free-decompiler.com/flash" xmlns:xlink="http://www.w3.org/1999/xlink" ffdec:objectType="shape" height="74.8px" width="43.7px" xmlns="http://www.w3.org/2000/svg">
  <g transform="matrix(1.0, 0.0, 0.0, 1.0, 29.0, 73.4)">
    <path d="M0.8 -66.45 Q2.05 -60.45 2.75 -54.3 L4.95 -53.95 5.35 -54.0 Q8.15 -55.45 9.75 -53.4 10.45 -52.5 9.55 -51.75 7.95 -50.5 5.9 -50.4 L3.1 -50.4 3.2 -49.15 Q3.75 -40.4 4.55 -31.6 5.0 -26.1 5.75 -20.8 6.85 -19.8 7.45 -18.2 L12.5 -4.5 Q13.9 -3.15 14.05 -1.85 14.6 -1.6 14.7 -0.85 14.9 0.65 13.4 0.95 9.4 1.85 5.4 0.9 3.55 0.45 4.3 -1.3 4.75 -2.35 5.8 -2.4 L9.4 -2.3 9.25 -2.6 7.95 -6.0 4.95 -13.35 4.85 -14.2 Q4.15 -15.1 3.8 -16.15 L3.7 -16.8 Q1.7 -18.7 2.4 -20.65 L2.4 -20.7 Q1.15 -26.7 0.7 -32.9 L-7.85 -22.35 Q-7.1 -21.35 -7.0 -19.65 -6.95 -17.4 -6.55 -15.3 -5.35 -9.2 -4.6 -3.0 -4.5 -1.9 -4.7 -0.85 L-4.7 -0.75 Q-4.65 0.1 -5.35 0.55 L-6.1 0.8 -6.65 0.85 -7.5 0.9 Q-11.45 1.05 -15.25 0.75 -15.85 0.7 -15.95 0.1 -16.5 -2.55 -13.4 -2.7 L-11.55 -2.95 -8.7 -2.85 -9.5 -9.85 -9.7 -11.4 -11.15 -21.7 Q-12.1 -22.95 -11.0 -24.35 L-0.05 -38.25 0.35 -38.6 -0.65 -51.0 Q-2.85 -51.5 -5.0 -52.45 L-8.35 -53.9 Q-12.35 -55.55 -9.95 -58.7 -9.5 -59.25 -8.95 -59.25 -5.65 -59.75 -5.15 -56.85 L-5.1 -56.7 -1.1 -55.25 Q-1.7 -60.3 -2.65 -65.25 -4.35 -68.45 -5.3 -71.8 -5.5 -72.55 -4.8 -73.0 L-3.75 -73.4 Q-0.4 -71.55 0.55 -67.6 L0.8 -66.45 M-24.25 -58.0 L-24.25 -57.8 -18.05 -54.75 Q-15.95 -53.7 -13.7 -53.05 -10.05 -51.9 -12.65 -49.4 -13.3 -48.8 -14.2 -49.0 -16.2 -49.55 -17.65 -50.75 -22.3 -52.7 -26.8 -54.95 L-27.8 -55.7 Q-30.3 -58.35 -27.5 -60.25 L-27.1 -60.4 Q-24.35 -60.55 -24.25 -58.0" fill="#666666" fill-rule="evenodd" stroke="none"/>
  </g>
</svg>
