<?xml version="1.0" encoding="UTF-8" standalone="no"?>
<svg xmlns:ffdec="https://www.free-decompiler.com/flash" xmlns:xlink="http://www.w3.org/1999/xlink" ffdec:objectType="shape" height="73.9px" width="44.6px" xmlns="http://www.w3.org/2000/svg">
  <g transform="matrix(1.0, 0.0, 0.0, 1.0, 29.8, 72.3)">
    <path d="M2.95 -54.45 L9.1 -54.1 9.55 -53.85 Q11.25 -51.3 8.15 -50.9 L3.2 -50.6 3.35 -41.75 3.35 -37.0 Q4.2 -35.85 3.9 -33.85 L3.9 -33.05 Q4.4 -30.55 4.5 -27.95 5.5 -24.65 5.6 -21.15 7.05 -19.8 7.9 -17.75 L8.6 -15.8 Q10.8 -9.35 14.0 -3.4 14.45 -2.5 14.35 -1.8 L14.75 -0.95 Q15.05 1.15 12.85 1.45 8.5 2.1 5.0 0.2 4.5 -0.05 4.55 -0.65 4.55 -2.65 6.55 -2.9 L8.9 -2.85 Q8.15 -4.1 7.7 -5.55 L5.0 -12.9 4.05 -15.05 1.7 -20.25 1.6 -20.9 Q0.95 -23.15 0.95 -25.55 0.35 -27.95 -0.1 -30.4 L-3.1 -26.8 Q-3.75 -25.6 -4.8 -24.75 L-5.15 -24.55 -7.45 -21.75 Q-7.0 -20.9 -7.0 -19.7 L-6.65 -16.6 Q-5.8 -12.8 -5.25 -8.85 -4.7 -5.2 -4.95 -1.65 -5.0 -1.1 -5.5 -0.85 L-6.05 0.25 Q-6.6 1.15 -7.65 1.25 L-15.65 0.85 Q-16.1 0.75 -16.25 0.2 -17.0 -2.1 -14.45 -2.45 L-8.85 -3.05 Q-9.5 -6.9 -9.7 -10.85 -10.8 -13.9 -11.3 -17.2 L-11.65 -19.95 Q-12.85 -20.85 -12.15 -22.9 L-11.1 -24.4 -9.5 -25.8 Q-3.95 -31.15 -0.95 -38.05 L-0.7 -38.35 Q-0.8 -44.75 -1.25 -51.05 -5.4 -51.8 -9.25 -53.7 -11.0 -54.55 -11.0 -56.35 -11.05 -58.4 -9.0 -58.6 -6.8 -58.85 -5.75 -56.95 L-5.65 -56.75 -1.6 -55.4 -1.75 -58.5 -1.8 -59.7 Q-2.7 -62.95 -4.45 -66.0 -5.75 -68.3 -5.6 -70.75 -5.5 -71.75 -4.55 -72.05 L-3.85 -72.3 Q-1.3 -71.75 -0.75 -69.05 -0.4 -67.5 0.35 -66.05 2.25 -62.35 2.65 -58.15 L2.95 -54.45 M-24.45 -57.55 L-24.45 -57.3 Q-19.25 -53.5 -12.5 -53.0 L-11.9 -52.55 Q-10.55 -50.05 -13.4 -49.45 L-15.8 -49.35 Q-23.55 -50.45 -29.25 -55.7 -29.75 -56.2 -29.8 -56.95 -30.0 -59.55 -27.6 -60.0 -24.55 -60.3 -24.45 -57.55" fill="#666666" fill-rule="evenodd" stroke="none"/>
  </g>
</svg>
