<?xml version="1.0" encoding="UTF-8" standalone="no"?>
<svg xmlns:ffdec="https://www.free-decompiler.com/flash" xmlns:xlink="http://www.w3.org/1999/xlink" ffdec:objectType="shape" height="73.65px" width="45.15px" xmlns="http://www.w3.org/2000/svg">
  <g transform="matrix(1.0, 0.0, 0.0, 1.0, 30.05, 71.95)">
    <path d="M6.45 -54.4 Q8.25 -54.75 9.7 -53.7 10.9 -52.8 9.95 -51.65 8.95 -50.45 7.25 -50.3 L2.2 -50.1 3.1 -37.8 Q4.45 -36.65 4.05 -34.3 3.85 -32.9 4.0 -31.5 L5.7 -19.6 5.7 -19.55 Q6.95 -18.3 7.6 -16.4 8.2 -14.65 9.2 -13.1 13.0 -7.3 15.1 -0.85 15.2 -0.5 14.9 -0.2 L14.45 0.15 Q14.25 0.95 13.45 1.15 9.0 2.3 5.0 1.1 4.3 0.85 4.2 0.05 4.1 -1.5 5.65 -1.8 L10.85 -2.3 7.15 -9.3 Q4.1 -13.2 2.85 -17.75 L2.45 -18.6 Q0.8 -25.2 0.3 -32.05 -4.0 -26.55 -7.85 -20.7 -7.25 -19.8 -7.15 -18.45 L-7.15 -16.9 Q-5.2 -9.3 -4.8 -1.35 L-4.65 -0.85 Q-4.45 0.65 -5.95 0.95 -10.25 1.9 -14.5 0.9 -16.35 0.45 -15.6 -1.3 -15.15 -2.35 -14.15 -2.4 L-8.25 -2.2 Q-9.35 -9.5 -10.95 -16.7 L-11.35 -19.8 Q-11.8 -20.65 -11.2 -22.05 -10.15 -24.45 -8.45 -26.5 -5.0 -32.15 -0.45 -37.0 L-1.6 -50.35 -6.55 -51.2 Q-10.15 -52.05 -8.85 -55.35 -8.5 -56.35 -7.5 -56.35 -5.7 -56.5 -5.0 -54.85 L-4.9 -54.6 -2.05 -54.05 -2.3 -55.85 -2.95 -60.6 -4.65 -66.4 -5.15 -67.9 Q-6.65 -70.9 -3.75 -71.95 -1.4 -70.9 -0.75 -68.1 0.95 -61.1 1.8 -53.85 L6.45 -54.4 M-25.65 -58.65 L-25.6 -58.45 Q-20.25 -53.65 -13.4 -52.45 -12.65 -52.3 -12.55 -51.55 -12.15 -49.6 -14.15 -49.45 -18.55 -49.1 -22.25 -51.45 -26.1 -53.85 -29.4 -56.95 -30.45 -57.95 -29.8 -59.3 -29.3 -60.35 -28.3 -60.4 -26.05 -60.7 -25.65 -58.65" fill="#666666" fill-rule="evenodd" stroke="none"/>
  </g>
</svg>
