<?xml version="1.0" encoding="UTF-8" standalone="no"?>
<svg xmlns:ffdec="https://www.free-decompiler.com/flash" xmlns:xlink="http://www.w3.org/1999/xlink" ffdec:objectType="shape" height="74.9px" width="47.25px" xmlns="http://www.w3.org/2000/svg">
  <g transform="matrix(1.0, 0.0, 0.0, 1.0, 31.35, 72.5)">
    <path d="M2.4 -50.15 L2.55 -47.6 Q2.75 -43.15 3.7 -38.8 4.2 -36.4 3.7 -34.15 L4.0 -31.75 5.25 -25.25 Q6.3 -22.9 6.0 -20.4 7.1 -19.4 7.8 -17.85 L8.7 -16.05 14.8 -3.9 Q16.55 -1.8 15.5 -0.3 16.0 1.65 13.85 2.05 L5.55 1.7 Q4.95 1.55 4.9 0.85 4.65 -1.2 6.65 -1.5 L12.05 -1.25 10.8 -3.4 10.3 -4.7 Q8.7 -7.35 7.25 -10.15 L7.15 -10.75 Q6.1 -12.0 5.55 -13.55 L5.4 -14.2 Q3.7 -16.1 3.35 -18.2 2.35 -18.65 2.25 -20.2 2.1 -23.25 1.35 -26.3 0.7 -28.8 0.3 -31.35 L-7.5 -21.65 Q-6.85 -20.35 -7.15 -18.45 -7.35 -16.85 -7.15 -15.2 -6.6 -10.6 -5.65 -6.2 L-5.05 -4.45 -3.8 -1.55 Q-3.3 -1.3 -3.2 -0.6 -3.05 0.65 -4.0 1.05 -5.0 1.7 -5.9 1.35 -10.7 1.95 -15.25 1.3 -15.95 1.2 -16.1 0.5 -16.55 -1.7 -14.4 -2.1 L-8.3 -1.95 -8.45 -2.4 Q-10.4 -6.3 -10.45 -10.85 L-10.5 -11.7 -11.1 -17.95 Q-11.3 -19.85 -11.0 -21.5 L-11.15 -21.75 Q-11.35 -22.2 -11.15 -22.7 -9.2 -26.55 -6.2 -29.8 L-0.25 -36.0 -0.3 -36.25 Q-0.35 -36.75 -0.05 -37.05 L-0.25 -38.85 -1.2 -47.0 -1.5 -50.1 -6.3 -50.8 Q-9.2 -51.5 -7.8 -53.85 -6.95 -55.25 -5.2 -55.0 -4.1 -54.85 -3.6 -53.9 L-1.85 -53.85 -1.9 -54.4 Q-2.15 -57.6 -3.15 -60.7 L-3.25 -61.55 Q-3.7 -62.0 -3.75 -62.65 L-3.8 -63.5 -5.2 -66.95 -5.25 -67.85 Q-7.45 -70.35 -5.2 -72.2 L-4.6 -72.5 Q-1.6 -70.8 -0.85 -67.15 L-0.2 -63.65 Q1.3 -58.95 2.0 -54.05 6.3 -54.5 10.4 -56.05 13.6 -54.7 10.75 -52.55 L9.7 -51.95 Q6.1 -50.5 2.4 -50.15 M-25.65 -55.8 L-25.6 -55.65 Q-20.5 -54.5 -15.15 -54.6 -14.3 -54.65 -14.1 -53.8 -13.35 -50.65 -17.0 -50.75 -23.6 -50.95 -29.8 -52.85 -30.95 -53.2 -31.2 -54.35 -31.85 -57.5 -29.15 -58.4 -26.2 -58.65 -25.65 -55.8" fill="#666666" fill-rule="evenodd" stroke="none"/>
  </g>
</svg>
