<?xml version="1.0" encoding="UTF-8" standalone="no"?>
<svg xmlns:ffdec="https://www.free-decompiler.com/flash" xmlns:xlink="http://www.w3.org/1999/xlink" ffdec:objectType="shape" height="74.0px" width="47.15px" xmlns="http://www.w3.org/2000/svg">
  <g transform="matrix(1.0, 0.0, 0.0, 1.0, 31.8, 72.3)">
    <path d="M1.6 -49.7 L1.7 -48.9 3.45 -37.0 4.7 -27.65 5.2 -25.0 Q5.7 -23.3 5.65 -21.55 L6.15 -20.25 6.15 -20.05 Q10.05 -13.35 13.15 -6.35 L14.4 -2.7 Q16.15 -1.6 14.75 0.65 14.25 1.5 13.2 1.6 L12.3 1.65 6.7 1.5 Q5.4 1.4 5.25 0.1 4.9 -2.0 7.1 -2.2 L10.15 -2.5 Q7.25 -8.8 3.8 -14.85 2.55 -17.05 2.15 -19.5 L2.15 -19.75 Q1.6 -20.3 1.4 -21.25 0.3 -26.25 -0.15 -31.35 -3.65 -26.25 -7.65 -21.5 -7.4 -20.65 -7.45 -19.55 -7.9 -11.8 -4.9 -4.85 -4.2 -3.2 -4.6 -1.6 -4.85 -0.7 -5.5 -0.4 -5.55 1.2 -7.4 1.45 L-15.95 1.15 -16.4 0.7 Q-17.4 -2.55 -13.45 -2.55 L-12.55 -2.6 -9.0 -2.45 -9.15 -3.2 -9.15 -4.25 Q-12.1 -11.0 -12.0 -18.6 L-11.95 -19.95 Q-12.85 -20.9 -11.95 -22.6 L-10.3 -25.3 -5.45 -30.9 Q-4.0 -33.65 -1.7 -35.6 L-1.1 -35.95 -0.35 -35.75 -0.4 -36.85 Q-1.35 -39.5 -1.7 -42.35 L-2.35 -46.45 -2.8 -48.95 -5.2 -48.65 Q-8.4 -48.3 -8.65 -51.15 -8.9 -53.75 -6.3 -54.3 -4.45 -54.7 -3.35 -53.65 L-3.55 -58.55 Q-3.55 -62.3 -4.8 -65.85 L-5.4 -68.4 Q-7.5 -70.35 -5.15 -71.95 L-4.35 -72.3 Q-1.35 -71.5 -0.6 -68.25 L-0.2 -66.1 Q0.9 -60.15 1.15 -54.1 L10.1 -56.7 Q13.2 -56.2 11.8 -53.55 11.25 -52.5 10.1 -52.1 5.9 -50.65 1.6 -49.7 M-28.7 -56.7 Q-26.2 -56.55 -25.6 -54.25 L-25.55 -54.05 Q-20.75 -54.1 -15.55 -55.45 -14.9 -55.6 -14.45 -55.15 -12.5 -53.2 -15.0 -51.65 -17.55 -50.1 -20.65 -50.1 L-24.05 -49.65 Q-28.1 -48.7 -31.0 -51.15 -31.7 -51.7 -31.8 -52.6 -32.1 -56.05 -28.7 -56.7" fill="#666666" fill-rule="evenodd" stroke="none"/>
  </g>
</svg>
