<?xml version="1.0" encoding="UTF-8" standalone="no"?>
<svg xmlns:ffdec="https://www.free-decompiler.com/flash" xmlns:xlink="http://www.w3.org/1999/xlink" ffdec:objectType="shape" height="75.15px" width="47.1px" xmlns="http://www.w3.org/2000/svg">
  <g transform="matrix(1.0, 0.0, 0.0, 1.0, 31.8, 72.8)">
    <path d="M10.6 -57.65 L10.95 -57.8 Q13.95 -56.65 11.8 -54.05 L10.3 -52.75 Q6.55 -50.6 2.5 -49.5 L2.7 -46.85 2.85 -44.7 3.6 -34.6 Q4.35 -33.5 4.05 -31.7 3.7 -29.6 4.2 -27.6 L5.05 -22.7 5.3 -21.6 Q5.65 -20.5 5.5 -19.6 6.5 -18.7 7.15 -17.3 L9.2 -13.3 14.9 -2.0 Q15.75 -0.25 14.85 0.45 14.55 2.1 12.0 2.05 L11.25 2.1 Q7.4 2.85 4.15 1.15 3.15 0.6 3.55 -0.55 4.0 -1.75 5.2 -1.8 L10.95 -1.55 9.35 -4.55 7.05 -8.95 6.85 -9.6 4.75 -13.3 4.55 -13.95 Q2.55 -15.85 2.4 -18.2 1.4 -19.45 1.25 -21.15 L0.15 -30.45 0.1 -31.3 Q-3.85 -26.55 -7.3 -21.5 L-8.05 -20.55 -7.8 -19.2 -7.3 -15.05 -6.35 -8.8 Q-5.9 -5.7 -5.05 -2.75 -3.85 -1.3 -4.05 -0.25 -4.1 1.25 -5.8 1.35 L-13.7 1.9 Q-16.05 2.1 -16.1 -0.15 -16.15 -1.9 -14.4 -2.1 L-8.6 -1.9 Q-9.75 -4.7 -10.05 -7.8 L-11.3 -17.1 Q-12.65 -19.4 -11.75 -21.35 -11.9 -21.75 -11.65 -22.1 -6.5 -29.25 -0.9 -36.05 L-0.15 -36.7 -1.45 -48.7 -6.35 -48.35 Q-7.6 -48.35 -8.2 -49.5 -9.7 -52.5 -6.5 -53.35 -4.3 -53.95 -2.95 -52.25 L-1.8 -52.4 Q-2.65 -60.35 -5.05 -68.1 -5.6 -69.8 -5.2 -71.5 -4.95 -72.75 -3.75 -72.8 -1.25 -71.55 -0.8 -68.5 L0.05 -64.15 Q1.3 -58.8 2.05 -53.25 6.65 -54.65 10.6 -57.65 M-29.7 -54.9 Q-27.8 -55.1 -26.7 -53.6 L-26.6 -53.4 -16.95 -55.0 Q-15.05 -55.4 -13.85 -54.1 -12.65 -52.8 -14.05 -51.8 -14.8 -51.25 -15.75 -51.15 L-24.4 -49.7 Q-27.55 -48.9 -30.5 -50.0 -31.5 -50.35 -31.7 -51.35 -32.3 -54.2 -29.7 -54.9" fill="#666666" fill-rule="evenodd" stroke="none"/>
  </g>
</svg>
