<?xml version="1.0" encoding="UTF-8" standalone="no"?>
<svg xmlns:ffdec="https://www.free-decompiler.com/flash" xmlns:xlink="http://www.w3.org/1999/xlink" ffdec:objectType="shape" height="73.05px" width="41.6px" xmlns="http://www.w3.org/2000/svg">
  <g transform="matrix(1.0, 0.0, 0.0, 1.0, 26.6, 71.35)">
    <path d="M6.2 -51.55 Q7.2 -51.3 7.2 -50.3 7.25 -48.05 4.9 -48.0 L1.95 -47.95 2.1 -45.6 Q2.35 -41.55 3.2 -37.5 4.0 -36.6 3.95 -35.0 3.95 -30.55 4.7 -26.3 5.35 -22.75 5.5 -19.25 7.4 -17.6 8.7 -15.2 11.05 -10.7 12.5 -5.8 L13.25 -4.45 13.45 -3.85 Q14.8 -2.45 14.7 -1.3 L15.0 -0.6 Q15.15 0.9 13.65 1.25 9.55 2.15 5.4 1.2 3.55 0.75 4.3 -1.0 4.75 -2.05 5.8 -2.1 L10.2 -1.95 9.75 -2.95 Q7.85 -8.7 4.6 -13.85 L4.2 -14.85 Q3.0 -15.9 2.7 -17.05 1.95 -17.55 1.85 -18.85 1.35 -25.25 0.3 -31.55 -3.45 -27.7 -6.25 -23.2 -7.0 -21.95 -8.1 -21.55 -7.7 -20.7 -7.6 -19.55 -7.0 -12.95 -5.4 -6.6 -4.85 -4.45 -4.85 -2.25 -3.7 -0.1 -4.85 0.7 -5.5 1.35 -6.9 1.45 L-15.95 1.15 Q-17.55 0.95 -17.35 -0.65 -17.15 -2.25 -15.6 -2.4 -12.0 -2.6 -8.55 -2.25 L-8.95 -4.1 -9.3 -6.95 Q-10.5 -10.9 -10.85 -15.15 L-11.6 -21.9 Q-11.75 -22.85 -10.8 -23.2 -10.5 -24.8 -9.4 -26.1 L-8.6 -27.0 -7.85 -27.95 -3.8 -32.85 Q-2.3 -34.4 -0.65 -35.55 L-0.7 -35.65 Q-1.8 -41.65 -1.8 -47.75 L-5.8 -47.45 -11.4 -47.15 -16.95 -44.05 -18.05 -43.5 Q-21.95 -41.7 -25.8 -43.5 -26.75 -43.95 -26.6 -45.0 -25.9 -49.15 -21.75 -47.45 -21.25 -47.25 -20.9 -46.85 L-16.95 -48.3 Q-17.6 -49.05 -17.7 -50.3 -17.95 -53.1 -15.3 -53.75 -12.6 -53.75 -11.8 -51.25 L-11.3 -51.65 Q-10.85 -52.0 -10.4 -52.05 -8.55 -51.9 -8.25 -50.9 L-2.35 -51.3 Q-2.7 -52.95 -2.65 -54.75 L-2.85 -56.95 -3.8 -63.0 Q-5.45 -66.65 -4.75 -70.5 -4.65 -71.0 -4.15 -71.15 L-3.45 -71.35 Q-1.2 -70.3 -0.9 -67.5 L-0.2 -63.15 Q0.95 -57.55 1.6 -51.8 L6.2 -51.55" fill="#666666" fill-rule="evenodd" stroke="none"/>
  </g>
</svg>
