<?xml version="1.0" encoding="UTF-8" standalone="no"?>
<svg xmlns:ffdec="https://www.free-decompiler.com/flash" xmlns:xlink="http://www.w3.org/1999/xlink" ffdec:objectType="shape" height="73.75px" width="41.55px" xmlns="http://www.w3.org/2000/svg">
  <g transform="matrix(1.0, 0.0, 0.0, 1.0, 26.85, 71.95)">
    <path d="M3.15 -43.15 Q3.4 -39.95 3.8 -36.7 L3.8 -35.8 3.8 -35.7 4.0 -34.2 4.05 -32.9 4.1 -31.6 Q5.3 -27.6 5.95 -23.4 L6.0 -20.35 6.7 -18.85 6.7 -18.6 14.2 -3.4 14.5 -2.6 Q15.15 -0.55 13.8 -0.1 L13.2 0.7 Q12.75 1.15 12.15 1.15 L5.65 0.85 Q4.25 0.7 4.3 -0.7 4.4 -2.0 5.65 -2.15 L10.1 -2.55 10.05 -2.7 Q8.55 -5.6 7.3 -8.55 L7.1 -9.15 Q6.75 -9.4 6.65 -9.8 L6.55 -10.45 4.75 -13.95 Q4.5 -14.35 4.55 -14.8 2.9 -16.65 2.85 -18.7 2.3 -19.3 2.25 -20.2 L1.75 -24.3 Q1.05 -27.65 0.6 -31.1 -2.0 -28.2 -5.0 -25.45 -6.6 -24.0 -7.6 -22.05 -7.1 -21.15 -7.1 -19.85 L-6.75 -17.65 Q-6.45 -16.75 -6.55 -15.75 L-4.55 -7.55 Q-3.8 -4.5 -3.4 -1.4 -2.9 -0.7 -3.45 0.2 L-3.95 0.8 -4.3 1.1 Q-4.9 1.65 -5.75 1.7 -11.55 2.05 -16.95 0.85 -17.5 0.75 -17.55 0.2 -17.9 -1.8 -15.85 -1.85 L-7.2 -2.15 -7.95 -4.6 -8.15 -6.15 Q-10.15 -13.45 -10.95 -20.95 L-11.3 -21.35 Q-11.7 -21.85 -11.5 -22.5 -10.55 -25.9 -7.8 -28.5 L-2.95 -33.2 0.0 -35.9 -1.7 -52.9 Q-2.3 -61.1 -4.75 -68.95 -5.05 -69.8 -4.8 -70.6 -4.45 -71.9 -3.15 -71.95 -1.15 -71.35 -1.1 -69.15 L-1.1 -68.9 Q1.65 -61.1 2.0 -52.65 L2.1 -49.2 Q2.9 -46.3 3.15 -43.15 M-24.8 -54.35 Q-21.95 -55.0 -21.3 -52.6 L-21.3 -52.45 -7.35 -51.95 -6.9 -52.05 -6.5 -51.9 -4.7 -51.85 Q-4.1 -51.85 -3.95 -51.2 -3.55 -48.75 -5.9 -48.4 L-6.1 -48.25 Q-12.6 -41.8 -21.65 -40.9 -23.1 -40.75 -23.3 -42.15 -23.8 -46.25 -19.7 -45.35 L-19.1 -45.1 Q-14.95 -46.1 -11.55 -48.5 L-13.7 -48.55 -14.15 -48.55 -24.4 -48.9 -25.45 -49.25 Q-26.8 -50.0 -26.85 -51.5 -27.0 -53.9 -24.8 -54.35" fill="#666666" fill-rule="evenodd" stroke="none"/>
  </g>
</svg>
