<?xml version="1.0" encoding="UTF-8" standalone="no"?>
<svg xmlns:ffdec="https://www.free-decompiler.com/flash" xmlns:xlink="http://www.w3.org/1999/xlink" ffdec:objectType="shape" height="73.7px" width="43.15px" xmlns="http://www.w3.org/2000/svg">
  <g transform="matrix(1.0, 0.0, 0.0, 1.0, 28.55, 72.0)">
    <path d="M0.7 -31.75 L-7.4 -20.9 Q-7.2 -20.2 -7.3 -19.2 L-7.25 -17.55 Q-4.55 -10.45 -3.9 -2.85 L-3.85 -1.4 Q-3.9 1.05 -6.1 0.65 -6.4 1.0 -6.95 1.15 L-8.05 1.4 -15.95 1.2 Q-18.1 0.7 -17.3 -1.3 -16.85 -2.5 -15.6 -2.55 L-9.25 -2.8 -8.45 -2.9 -8.2 -2.9 -9.2 -8.25 Q-10.1 -13.1 -11.65 -17.7 -12.25 -19.45 -11.7 -20.8 L-11.8 -21.7 Q-11.1 -24.55 -8.85 -26.75 -6.3 -29.3 -4.4 -32.3 -2.8 -34.85 -0.6 -36.8 L-0.2 -37.05 -1.75 -44.55 Q-2.55 -48.25 -2.8 -52.1 L-3.05 -54.15 -3.7 -59.7 -5.45 -66.05 Q-6.3 -69.1 -4.6 -71.45 L-3.95 -71.9 -3.55 -72.0 Q-0.95 -71.0 -1.1 -67.9 -1.15 -66.65 -0.75 -65.45 -0.25 -63.95 -0.15 -62.4 1.55 -55.1 2.15 -47.45 2.3 -45.35 2.8 -43.3 4.7 -35.45 5.7 -27.35 L5.9 -23.3 Q6.55 -22.4 6.65 -21.0 6.75 -19.45 7.25 -18.05 8.5 -14.3 10.1 -10.7 11.65 -7.0 13.75 -3.6 15.45 -2.35 13.65 -0.15 12.85 0.85 11.6 1.1 L5.75 0.8 Q4.8 0.5 4.5 -0.5 3.9 -2.75 6.3 -3.1 L7.3 -3.1 9.2 -3.0 Q5.45 -9.95 2.8 -17.2 2.0 -19.45 2.2 -21.75 L2.05 -22.45 1.05 -29.6 0.7 -31.75 M-28.2 -52.75 Q-29.5 -56.35 -25.95 -57.25 -22.9 -57.5 -22.0 -54.8 L-22.0 -54.65 -6.15 -54.0 Q-5.4 -54.0 -4.95 -53.4 -4.25 -52.45 -4.75 -51.4 L-4.8 -51.25 Q-3.45 -50.35 -4.8 -48.45 -5.7 -47.05 -7.15 -46.2 -11.85 -43.35 -16.95 -41.45 L-22.15 -41.3 Q-23.05 -41.55 -23.35 -42.55 -24.35 -46.0 -20.75 -46.85 -18.65 -47.4 -17.2 -46.05 -12.75 -47.4 -9.15 -50.2 L-20.35 -50.25 Q-23.9 -50.3 -27.05 -51.55 -27.9 -51.9 -28.2 -52.75" fill="#666666" fill-rule="evenodd" stroke="none"/>
  </g>
</svg>
