<?xml version="1.0" encoding="UTF-8" standalone="no"?>
<svg xmlns:ffdec="https://www.free-decompiler.com/flash" xmlns:xlink="http://www.w3.org/1999/xlink" ffdec:objectType="shape" height="73.6px" width="43.2px" xmlns="http://www.w3.org/2000/svg">
  <g transform="matrix(1.0, 0.0, 0.0, 1.0, 28.3, 71.65)">
    <path d="M1.45 -55.2 Q2.55 -49.55 2.7 -43.75 3.75 -39.8 4.05 -35.5 L4.0 -33.65 4.2 -32.1 Q4.15 -31.25 4.25 -30.35 4.75 -26.35 5.7 -22.4 L5.75 -20.2 Q7.15 -18.9 8.1 -17.0 L9.6 -13.8 14.65 -2.25 14.9 -0.45 Q14.75 1.2 13.75 1.3 L12.7 1.55 Q8.95 1.7 5.35 1.5 4.2 1.4 4.05 0.25 3.8 -1.8 5.8 -2.1 L10.35 -1.75 Q9.45 -4.0 8.8 -6.3 8.3 -6.7 8.3 -7.35 L8.3 -8.25 4.45 -14.9 Q3.25 -16.7 2.7 -18.65 2.1 -19.25 1.95 -20.2 L0.8 -28.2 0.25 -31.45 -0.6 -30.7 Q-4.75 -27.1 -7.4 -22.45 -6.7 -21.3 -6.65 -19.55 L-6.5 -17.8 -4.85 -5.9 Q-4.0 -3.45 -4.15 -0.75 -3.7 0.85 -4.85 1.45 L-5.35 1.6 -5.8 1.7 Q-11.3 2.55 -16.0 0.35 -16.5 0.15 -16.5 -0.5 -16.4 -2.25 -14.7 -2.4 L-7.9 -1.6 -8.4 -5.55 Q-9.15 -9.65 -9.55 -13.8 -9.8 -16.7 -10.75 -19.4 -11.3 -20.9 -11.1 -22.35 -11.4 -23.0 -11.1 -23.75 -8.9 -28.45 -4.9 -32.2 L-0.05 -36.35 -0.35 -41.3 Q-1.15 -44.2 -1.35 -47.35 -1.65 -51.7 -2.35 -56.05 L-3.35 -61.6 -4.7 -67.05 Q-6.35 -69.85 -3.85 -71.5 L-3.45 -71.65 Q-1.2 -70.6 -0.85 -67.8 L-0.35 -65.6 Q0.95 -61.45 1.25 -56.95 L1.45 -55.2 M-28.0 -55.6 Q-28.7 -56.85 -27.8 -57.9 -27.15 -58.65 -26.25 -58.65 -23.4 -58.9 -23.0 -56.3 L-23.0 -56.15 -11.05 -55.25 -8.4 -54.75 Q-5.75 -54.25 -6.8 -52.0 -7.4 -50.75 -8.8 -50.95 L-15.35 -51.7 -23.2 -52.45 Q-26.35 -52.7 -28.0 -55.6 M-16.25 -44.45 Q-10.4 -47.2 -5.2 -50.6 -1.95 -50.3 -3.5 -47.65 L-4.25 -46.9 Q-10.65 -41.9 -18.5 -40.0 L-19.7 -40.2 Q-22.45 -41.95 -20.75 -44.9 -19.85 -46.4 -18.05 -45.9 -16.75 -45.55 -16.25 -44.45" fill="#666666" fill-rule="evenodd" stroke="none"/>
  </g>
</svg>
