<?xml version="1.0" encoding="UTF-8" standalone="no"?>
<svg xmlns:ffdec="https://www.free-decompiler.com/flash" xmlns:xlink="http://www.w3.org/1999/xlink" ffdec:objectType="shape" height="74.25px" width="43.65px" xmlns="http://www.w3.org/2000/svg">
  <g transform="matrix(1.0, 0.0, 0.0, 1.0, 28.1, 72.25)">
    <path d="M3.55 -31.9 Q5.4 -26.35 5.8 -20.45 6.9 -19.45 7.4 -17.8 7.75 -16.8 8.25 -15.85 L15.2 -1.9 Q16.05 -0.05 14.7 0.5 L14.4 0.75 Q12.85 2.15 10.5 1.8 L9.8 1.8 Q7.45 2.45 5.6 1.2 4.4 0.3 5.35 -0.85 6.85 -2.55 9.4 -2.1 L10.1 -2.1 10.85 -2.25 Q7.35 -9.95 3.2 -17.25 2.45 -18.55 2.55 -19.5 L2.35 -20.1 Q1.9 -21.85 1.6 -23.7 L0.5 -29.8 0.2 -30.45 -7.35 -21.95 -7.7 -21.55 -7.7 -20.35 -7.7 -20.15 Q-6.1 -15.7 -5.95 -10.85 -5.75 -6.2 -4.95 -1.65 L-4.75 -1.3 Q-4.2 0.95 -6.65 1.4 -11.8 2.4 -16.35 0.55 -17.15 0.2 -17.05 -0.7 -16.8 -2.3 -15.3 -2.4 L-8.6 -2.2 -9.85 -10.0 -10.05 -13.5 Q-10.1 -16.25 -11.0 -18.8 -11.55 -20.3 -11.25 -21.35 -11.8 -22.35 -11.1 -23.3 -8.55 -26.9 -5.4 -30.15 L-0.1 -35.75 0.0 -35.8 Q-0.2 -41.2 -1.1 -46.4 L-2.45 -55.05 -4.8 -69.8 Q-5.15 -71.9 -3.15 -72.25 -0.45 -71.6 -0.85 -68.5 L-0.75 -66.8 Q0.35 -62.5 0.9 -58.15 L3.25 -40.8 Q3.8 -37.25 3.6 -33.6 L3.55 -32.1 3.55 -31.9 M-23.0 -60.7 L-23.0 -60.45 Q-15.95 -58.7 -9.1 -55.9 -7.7 -55.35 -8.35 -54.05 -9.3 -51.95 -11.85 -52.95 -18.15 -55.45 -24.75 -57.15 -26.5 -57.6 -27.4 -59.25 -29.5 -63.05 -25.4 -64.15 -22.4 -63.85 -23.0 -60.7 M-4.6 -51.45 Q-1.1 -50.95 -3.25 -48.4 -4.55 -46.85 -6.2 -45.7 -9.6 -43.2 -13.4 -41.35 -17.5 -39.4 -20.45 -42.35 -20.95 -42.85 -20.75 -43.65 -20.05 -47.1 -16.6 -45.3 L-16.0 -44.65 Q-9.9 -46.85 -4.95 -51.3 L-4.6 -51.45" fill="#666666" fill-rule="evenodd" stroke="none"/>
  </g>
</svg>
