<?xml version="1.0" encoding="UTF-8" standalone="no"?>
<svg xmlns:ffdec="https://www.free-decompiler.com/flash" xmlns:xlink="http://www.w3.org/1999/xlink" ffdec:objectType="shape" height="74.05px" width="44.35px" xmlns="http://www.w3.org/2000/svg">
  <g transform="matrix(1.0, 0.0, 0.0, 1.0, 28.8, 72.55)">
    <path d="M0.65 -66.95 Q2.75 -62.4 2.55 -57.2 2.3 -51.15 2.45 -45.1 2.55 -42.15 3.2 -39.3 L3.75 -35.7 Q4.15 -34.8 4.05 -33.45 L4.0 -32.45 Q4.2 -27.95 5.55 -23.7 5.9 -22.45 5.7 -21.55 6.85 -20.6 6.85 -18.6 L7.05 -17.8 7.25 -16.95 Q10.55 -10.5 15.05 -4.7 15.7 -3.85 15.0 -3.05 16.15 -2.2 14.9 -0.35 14.15 0.8 12.9 1.1 8.85 2.1 5.2 0.65 4.55 0.4 4.5 -0.35 4.45 -2.05 6.2 -2.3 L9.45 -2.8 11.2 -3.15 11.05 -3.3 Q6.15 -9.1 2.9 -15.9 1.95 -17.95 2.25 -20.0 1.25 -21.25 1.05 -22.95 L0.35 -26.85 Q-0.1 -28.65 -0.2 -30.35 -3.5 -25.8 -7.75 -22.0 -7.3 -20.9 -7.55 -19.35 L-7.7 -16.35 Q-7.4 -9.35 -5.4 -2.75 -5.0 -1.5 -5.65 -0.9 L-5.75 -0.6 Q-6.1 0.6 -7.35 1.0 L-8.75 1.2 -15.4 0.9 Q-17.0 0.75 -17.0 -0.85 -17.0 -2.4 -15.4 -2.6 L-9.9 -3.25 -10.0 -4.25 Q-12.3 -11.5 -12.05 -19.4 -12.0 -21.1 -11.55 -22.65 L-11.05 -23.45 Q-11.05 -24.25 -10.25 -25.15 L-4.6 -31.65 Q-2.35 -34.4 -0.7 -37.55 L-1.2 -40.85 Q-2.05 -44.8 -1.85 -49.0 -1.65 -55.4 -2.25 -61.65 L-2.5 -62.9 -2.6 -64.15 Q-5.15 -67.7 -3.9 -71.7 L-3.35 -72.3 -2.45 -72.55 Q-0.05 -71.8 0.1 -69.1 0.15 -68.0 0.65 -66.95 M-26.5 -64.65 Q-22.95 -64.7 -22.55 -61.35 L-22.55 -61.15 Q-18.7 -58.4 -13.7 -58.15 -11.35 -58.0 -9.85 -56.4 -9.45 -56.0 -9.6 -55.4 -10.4 -52.65 -13.65 -53.55 L-20.55 -55.35 Q-22.5 -55.85 -24.35 -56.8 -26.1 -57.7 -27.45 -59.05 -30.35 -61.9 -27.1 -64.3 L-26.5 -64.65 M-3.5 -47.9 Q-9.95 -43.0 -17.75 -41.35 -20.85 -40.75 -21.65 -43.35 -22.5 -45.85 -19.95 -46.75 L-16.1 -46.5 -15.35 -46.45 Q-12.4 -47.45 -9.75 -49.2 L-4.9 -52.05 Q-1.25 -51.95 -2.7 -48.9 -2.95 -48.3 -3.5 -47.9" fill="#666666" fill-rule="evenodd" stroke="none"/>
  </g>
</svg>
