<?xml version="1.0" encoding="UTF-8" standalone="no"?>
<svg xmlns:ffdec="https://www.free-decompiler.com/flash" xmlns:xlink="http://www.w3.org/1999/xlink" ffdec:objectType="shape" height="73.65px" width="44.05px" xmlns="http://www.w3.org/2000/svg">
  <g transform="matrix(1.0, 0.0, 0.0, 1.0, 28.3, 71.65)">
    <path d="M1.25 -59.95 Q2.1 -55.9 2.4 -51.7 L3.0 -43.05 3.55 -35.25 Q4.35 -34.15 4.25 -32.3 4.15 -30.75 4.55 -29.3 5.7 -24.8 5.5 -20.35 6.55 -19.35 7.25 -17.85 9.05 -13.75 11.4 -10.0 14.1 -5.6 15.7 -0.8 15.9 -0.1 15.3 0.3 14.6 0.8 14.0 0.9 12.8 1.7 11.1 1.5 L10.4 1.45 6.25 1.2 Q4.8 1.0 4.9 -0.45 5.0 -1.7 6.25 -1.75 L10.7 -2.4 11.15 -2.5 10.85 -3.4 Q6.25 -10.65 2.65 -18.4 L2.6 -18.55 Q2.0 -19.15 2.0 -20.4 L1.55 -24.55 Q0.7 -28.35 0.3 -32.25 L-1.7 -29.05 Q-4.2 -24.45 -7.8 -20.65 -7.5 -19.9 -7.5 -18.9 -7.5 -17.05 -7.05 -15.25 -6.6 -13.55 -6.55 -11.75 L-4.6 -3.55 Q-4.15 -1.8 -4.6 -0.5 -4.25 1.25 -6.35 1.65 -11.5 2.65 -16.05 0.85 -16.9 0.5 -16.75 -0.45 -16.5 -2.0 -15.0 -2.1 L-8.35 -1.85 -8.35 -2.2 Q-8.25 -2.95 -8.45 -3.75 -10.35 -11.6 -11.9 -19.65 -12.05 -20.5 -11.7 -21.4 L-11.2 -22.1 -9.85 -24.05 Q-7.55 -26.65 -5.6 -29.6 -5.5 -30.8 -4.5 -31.6 L-4.1 -31.95 Q-3.4 -34.15 -1.85 -35.85 L-1.5 -36.3 Q-1.2 -37.7 -0.2 -38.3 L-1.1 -49.9 -1.7 -55.8 -1.8 -57.75 Q-3.0 -61.15 -3.5 -64.85 L-4.25 -68.55 Q-4.95 -71.1 -2.6 -71.65 -0.2 -70.5 0.15 -67.55 0.55 -63.75 1.25 -59.95 M-22.8 -62.65 L-22.8 -62.5 Q-15.95 -60.2 -9.85 -56.45 -9.55 -56.25 -9.6 -55.8 -10.1 -53.1 -12.9 -54.3 L-17.25 -56.05 Q-21.85 -57.8 -26.2 -60.1 -28.25 -61.2 -28.3 -63.35 -28.35 -65.55 -26.25 -65.9 -22.8 -65.95 -22.8 -62.65 M-16.75 -45.75 Q-10.0 -47.6 -4.3 -51.15 -0.85 -50.15 -3.55 -47.65 L-6.15 -45.7 Q-12.65 -41.8 -20.05 -41.85 -20.9 -41.85 -21.35 -42.65 -23.25 -46.0 -19.3 -46.65 -17.75 -46.9 -16.75 -45.75" fill="#666666" fill-rule="evenodd" stroke="none"/>
  </g>
</svg>
