<?xml version="1.0" encoding="UTF-8" standalone="no"?>
<svg xmlns:ffdec="https://www.free-decompiler.com/flash" xmlns:xlink="http://www.w3.org/1999/xlink" ffdec:objectType="shape" height="73.25px" width="41.1px" xmlns="http://www.w3.org/2000/svg">
  <g transform="matrix(1.0, 0.0, 0.0, 1.0, 25.7, 71.35)">
    <path d="M2.65 -50.15 Q2.3 -45.7 2.8 -41.3 L3.1 -35.95 Q3.85 -34.85 3.95 -33.2 4.2 -29.2 4.8 -25.2 5.15 -23.1 4.85 -21.1 6.0 -19.95 6.8 -18.25 L8.8 -13.85 Q10.55 -9.9 13.05 -6.35 14.8 -3.9 15.4 -1.25 L15.2 -0.8 Q15.65 1.05 13.55 1.55 8.85 2.55 4.8 0.65 4.25 0.4 4.3 -0.2 4.4 -1.95 6.05 -2.1 L11.0 -1.85 8.2 -6.65 8.0 -7.3 Q6.35 -10.2 4.85 -13.35 L4.55 -14.2 Q2.9 -16.75 1.95 -19.5 0.95 -20.35 1.1 -21.95 L1.05 -24.1 0.25 -31.75 -6.8 -22.2 Q-6.05 -21.0 -6.15 -19.2 -6.2 -17.75 -5.9 -16.35 -4.95 -12.1 -4.4 -7.75 -3.95 -4.4 -4.45 -1.1 -4.3 1.25 -7.35 1.3 L-14.1 0.75 Q-16.6 0.35 -15.45 -1.8 -15.0 -2.65 -14.15 -2.7 L-7.95 -2.45 Q-8.1 -10.8 -9.8 -18.8 L-10.3 -21.6 -10.3 -21.75 Q-10.85 -22.75 -9.9 -24.1 -5.65 -30.4 -0.65 -36.05 L-0.6 -36.05 Q-0.6 -37.55 -0.75 -39.05 -1.35 -47.85 -1.25 -56.8 L-1.2 -59.8 -3.0 -64.95 -3.25 -65.9 Q-5.15 -68.1 -4.05 -70.55 -3.7 -71.35 -2.9 -71.35 -0.6 -70.2 0.35 -67.5 3.3 -59.25 2.65 -50.15 M-23.95 -66.75 Q-19.7 -67.2 -20.25 -63.3 L-20.35 -63.05 Q-17.25 -61.25 -14.2 -59.1 L-8.4 -55.0 Q-6.8 -53.85 -8.15 -52.55 -9.35 -51.4 -10.8 -52.35 L-17.1 -56.65 Q-19.3 -58.3 -21.9 -59.3 L-22.3 -59.65 Q-26.4 -61.05 -25.55 -65.25 -25.3 -66.65 -23.95 -66.75 M-8.95 -50.85 Q-5.4 -50.75 -7.0 -47.95 -7.35 -47.3 -8.05 -47.0 L-14.95 -44.15 Q-16.85 -43.45 -18.85 -43.1 -21.65 -42.65 -23.8 -44.2 -25.65 -45.5 -24.25 -47.3 -22.45 -49.5 -19.7 -48.1 L-18.9 -47.25 Q-14.75 -47.75 -10.95 -50.1 L-8.95 -50.85" fill="#666666" fill-rule="evenodd" stroke="none"/>
  </g>
</svg>
