<?xml version="1.0" encoding="UTF-8" standalone="no"?>
<svg xmlns:ffdec="https://www.free-decompiler.com/flash" xmlns:xlink="http://www.w3.org/1999/xlink" ffdec:objectType="shape" height="72.7px" width="46.0px" xmlns="http://www.w3.org/2000/svg">
  <g transform="matrix(1.0, 0.0, 0.0, 1.0, 30.55, 71.2)">
    <path d="M0.6 -65.4 Q2.6 -57.6 2.75 -49.45 L3.1 -44.95 Q3.7 -40.7 3.15 -36.5 L3.3 -35.2 3.3 -34.9 4.1 -27.6 Q4.45 -24.85 4.4 -22.05 4.3 -20.0 5.45 -18.25 L5.75 -17.7 9.3 -11.25 Q10.2 -9.6 11.45 -8.15 13.2 -5.95 14.5 -3.45 L15.3 -1.5 Q15.85 0.35 14.05 0.9 L13.0 1.1 5.6 1.5 Q5.0 1.5 4.65 1.05 3.6 -0.4 4.95 -1.55 5.35 -1.9 5.9 -1.95 L11.1 -2.35 Q10.2 -3.45 9.65 -4.65 L9.55 -5.05 Q6.8 -8.05 5.0 -11.65 L1.3 -19.0 Q0.8 -20.0 0.85 -21.2 1.05 -24.65 0.5 -28.0 L0.3 -29.5 -0.05 -32.7 -2.45 -29.55 -2.7 -29.2 Q-5.35 -26.55 -7.1 -23.3 L-7.45 -22.5 -8.05 -20.95 Q-8.15 -18.2 -7.85 -15.55 L-7.4 -14.1 Q-5.95 -11.4 -5.7 -8.35 L-5.45 -2.0 -5.4 -2.0 -4.9 -1.55 Q-4.1 0.15 -5.85 0.95 L-6.15 1.0 Q-9.85 0.8 -13.55 1.1 L-15.45 1.0 Q-16.6 0.7 -16.65 -0.45 -16.75 -2.15 -15.0 -2.35 L-11.4 -2.65 -8.9 -2.65 Q-8.9 -5.9 -9.4 -9.1 -9.7 -10.8 -10.5 -12.35 -11.75 -14.8 -11.6 -17.6 L-11.45 -21.65 -11.15 -23.1 Q-9.6 -27.05 -6.65 -30.2 -4.3 -32.75 -2.3 -35.55 L-1.35 -36.65 -0.55 -37.25 Q-0.75 -43.8 -1.55 -50.2 L-1.8 -54.05 Q-1.8 -59.8 -3.75 -65.1 -4.15 -65.45 -4.2 -65.9 L-4.25 -66.55 Q-6.4 -69.15 -3.9 -70.85 L-3.3 -71.2 Q-0.4 -70.35 0.2 -67.15 L0.6 -65.4 M-22.95 -67.1 Q-18.5 -67.25 -18.85 -63.15 L-18.9 -62.9 Q-13.5 -58.6 -7.2 -55.4 -6.5 -55.05 -6.6 -54.2 -6.9 -51.8 -9.1 -52.25 L-8.8 -51.9 Q-7.1 -49.35 -10.3 -48.45 -18.5 -46.2 -27.1 -47.25 L-27.75 -47.35 Q-30.9 -48.3 -30.5 -51.45 -30.1 -54.15 -27.35 -54.25 -24.2 -54.2 -23.4 -51.35 L-23.35 -51.15 Q-16.55 -51.15 -9.65 -52.35 L-9.5 -52.35 -9.65 -52.4 Q-12.1 -53.2 -14.3 -54.45 -19.95 -57.6 -24.45 -62.15 -25.55 -63.3 -25.25 -64.9 -24.85 -66.85 -22.95 -67.1" fill="#666666" fill-rule="evenodd" stroke="none"/>
  </g>
</svg>
