<?xml version="1.0" encoding="UTF-8" standalone="no"?>
<svg xmlns:ffdec="https://www.free-decompiler.com/flash" xmlns:xlink="http://www.w3.org/1999/xlink" ffdec:objectType="shape" height="74.5px" width="44.05px" xmlns="http://www.w3.org/2000/svg">
  <g transform="matrix(1.0, 0.0, 0.0, 1.0, 28.8, 72.5)">
    <path d="M3.25 -49.6 Q3.75 -45.2 3.8 -40.7 L3.75 -35.4 Q4.95 -34.2 4.35 -31.95 L4.25 -30.95 Q4.45 -26.05 4.95 -21.2 6.55 -20.05 7.5 -18.0 L9.2 -14.4 9.6 -13.15 Q12.4 -7.2 14.8 -1.2 15.2 -0.9 15.25 -0.3 15.45 1.2 13.95 1.55 10.0 2.45 6.0 1.5 4.1 1.05 4.9 -0.7 5.35 -1.75 6.35 -1.8 L10.6 -1.65 10.6 -2.1 6.8 -10.1 6.5 -11.2 5.25 -13.6 5.15 -14.2 3.35 -17.05 Q3.15 -17.3 3.1 -17.7 2.2 -18.5 1.9 -19.2 L1.5 -20.35 Q0.85 -24.4 0.65 -28.55 L0.6 -32.15 -0.65 -31.05 Q-4.95 -27.4 -7.75 -22.8 -7.15 -21.85 -7.0 -20.45 L-5.8 -10.0 -5.4 -6.55 Q-3.8 -3.95 -4.2 -1.4 L-4.15 -1.3 Q-3.7 0.25 -4.85 0.7 L-5.35 1.0 -6.3 0.95 Q-10.0 1.2 -13.7 0.9 -15.55 0.75 -15.45 -0.95 -15.4 -2.55 -13.85 -2.7 L-7.95 -2.4 -8.1 -2.9 -8.45 -4.4 Q-9.55 -8.4 -9.95 -12.6 -10.3 -15.65 -10.95 -18.65 L-11.4 -21.7 -11.4 -21.8 Q-11.65 -22.45 -11.25 -23.5 -9.6 -28.15 -5.85 -31.5 L0.25 -36.8 Q0.1 -44.15 -0.75 -51.35 -1.2 -55.5 -2.35 -59.55 -3.45 -63.55 -4.1 -67.6 L-4.6 -68.5 -4.75 -69.15 Q-6.45 -70.95 -4.4 -72.25 L-3.75 -72.5 Q-1.35 -72.25 -1.1 -69.9 L-1.1 -69.7 Q1.35 -61.85 2.7 -53.65 L3.25 -49.6 M-23.9 -55.35 L-23.9 -55.15 Q-17.3 -53.2 -10.5 -52.4 -9.8 -52.3 -9.65 -51.55 -9.3 -49.6 -11.25 -49.55 -16.8 -49.35 -22.25 -50.55 -25.35 -51.2 -27.8 -53.1 -28.95 -53.95 -28.8 -55.5 -28.6 -57.3 -26.85 -57.5 -24.05 -57.9 -23.9 -55.35 M-20.9 -63.2 Q-20.85 -65.1 -19.05 -65.3 -16.1 -66.05 -15.2 -63.5 -14.8 -62.4 -15.5 -61.4 -10.4 -56.9 -4.5 -53.65 -2.85 -52.75 -3.85 -51.15 -4.8 -49.65 -6.5 -50.5 -14.6 -54.7 -20.4 -61.65 -20.95 -62.3 -20.9 -63.2" fill="#666666" fill-rule="evenodd" stroke="none"/>
  </g>
</svg>
