<?xml version="1.0" encoding="UTF-8" standalone="no"?>
<svg xmlns:ffdec="https://www.free-decompiler.com/flash" xmlns:xlink="http://www.w3.org/1999/xlink" ffdec:objectType="shape" height="73.9px" width="37.6px" xmlns="http://www.w3.org/2000/svg">
  <g transform="matrix(1.0, 0.0, 0.0, 1.0, 22.5, 72.0)">
    <path d="M2.4 -49.85 L3.35 -41.65 Q3.55 -39.2 3.3 -36.75 3.8 -35.85 3.9 -34.6 L4.1 -33.55 Q5.05 -28.85 5.0 -23.9 5.0 -20.4 7.1 -17.4 L7.8 -16.1 Q10.85 -8.55 14.65 -1.5 15.95 0.9 13.4 1.35 L5.75 1.85 Q3.7 1.75 3.8 -0.2 3.9 -1.65 5.35 -1.85 L9.35 -2.2 2.25 -17.25 1.15 -19.7 Q0.9 -20.3 0.9 -21.05 0.8 -26.55 -0.15 -31.85 L-0.25 -32.4 Q-4.55 -26.8 -8.0 -20.6 L-8.25 -20.15 Q-7.9 -15.25 -6.35 -10.6 -5.95 -9.35 -5.9 -8.05 -3.45 -3.9 -4.9 0.65 -5.05 1.1 -5.55 1.3 L-6.3 1.4 -15.45 1.2 Q-16.7 1.1 -16.95 -0.15 -17.25 -2.0 -15.4 -2.25 L-8.6 -2.75 -10.45 -8.85 -10.8 -10.55 Q-12.85 -16.2 -11.85 -22.15 -11.7 -23.25 -11.05 -24.2 L-7.75 -29.2 Q-5.35 -33.35 -1.95 -36.8 -1.35 -37.4 -0.6 -37.55 L-0.5 -37.7 -0.9 -43.4 -1.6 -49.45 Q-7.75 -52.75 -13.7 -56.25 L-10.5 -52.6 Q-10.25 -52.35 -10.35 -51.95 -11.05 -49.0 -13.7 -50.7 -16.3 -52.45 -18.4 -54.75 L-19.9 -56.2 Q-22.25 -58.25 -22.45 -61.2 -22.65 -63.3 -21.45 -64.8 -20.95 -65.45 -20.2 -65.45 -16.7 -65.4 -16.75 -62.7 -16.15 -63.5 -15.15 -63.75 L-14.75 -63.8 Q-11.25 -63.6 -11.65 -60.25 L-11.7 -60.05 Q-7.85 -57.4 -3.4 -55.2 L-2.25 -54.6 -2.9 -59.4 -3.65 -62.8 -5.95 -69.9 Q-6.2 -70.65 -5.7 -71.25 -5.0 -72.0 -4.1 -72.0 -1.0 -70.4 -0.05 -66.7 0.95 -62.75 1.35 -58.7 1.8 -54.25 2.4 -49.85 M-17.5 -60.15 L-17.55 -60.1 -17.45 -60.05 -17.5 -60.15 M-21.25 -42.5 L-21.1 -42.5 -21.05 -42.25 -21.25 -42.5" fill="#666666" fill-rule="evenodd" stroke="none"/>
  </g>
</svg>
