<?xml version="1.0" encoding="UTF-8" standalone="no"?>
<svg xmlns:ffdec="https://www.free-decompiler.com/flash" xmlns:xlink="http://www.w3.org/1999/xlink" ffdec:objectType="shape" height="73.5px" width="37.95px" xmlns="http://www.w3.org/2000/svg">
  <g transform="matrix(1.0, 0.0, 0.0, 1.0, 23.2, 71.65)">
    <path d="M6.3 -51.8 Q6.65 -51.6 6.6 -51.15 6.35 -48.25 3.3 -49.3 2.5 -49.55 1.9 -50.15 L1.45 -50.25 1.6 -48.9 2.1 -45.05 2.5 -40.9 2.85 -35.65 Q3.45 -34.45 3.4 -32.85 3.35 -31.7 3.65 -30.65 L3.85 -28.5 Q5.0 -24.5 5.8 -20.35 L5.85 -19.3 Q7.6 -17.75 8.55 -15.25 L10.65 -10.45 13.35 -3.9 14.1 -2.8 14.2 -2.15 Q15.0 -0.7 14.6 0.1 14.55 0.7 13.9 1.0 12.45 1.7 10.7 1.6 L5.75 1.8 Q4.45 2.0 4.15 0.75 3.6 -1.35 5.8 -1.65 L10.25 -2.0 10.3 -2.0 Q7.05 -9.35 3.2 -16.45 L2.55 -17.9 2.4 -18.55 Q1.55 -19.65 1.45 -21.15 L0.95 -25.05 Q0.8 -25.7 0.8 -26.35 0.05 -28.7 -0.45 -31.25 -4.7 -26.1 -8.3 -20.7 -7.6 -19.5 -7.55 -17.85 L-7.3 -15.65 Q-6.15 -9.3 -4.55 -3.15 -4.3 -2.1 -4.3 -0.95 L-4.3 -0.35 Q-4.3 0.35 -4.7 0.8 -5.0 1.1 -5.55 1.25 L-5.65 1.25 Q-10.1 2.2 -14.5 1.15 -16.35 0.75 -15.6 -1.0 -15.15 -2.05 -14.15 -2.1 L-8.35 -1.9 -8.5 -2.65 -10.75 -13.15 -11.85 -18.15 -12.2 -20.15 Q-12.3 -21.15 -11.9 -21.7 -11.4 -23.15 -10.45 -24.4 -6.9 -29.0 -3.6 -33.85 -2.45 -35.45 -0.85 -36.0 L-2.5 -51.5 -2.5 -51.55 Q-7.15 -53.35 -11.25 -56.2 -12.1 -56.8 -12.45 -57.75 -13.75 -61.0 -10.95 -62.15 -7.2 -61.8 -7.95 -58.45 L-8.0 -58.25 -7.9 -58.05 -7.45 -57.6 -2.9 -55.9 -3.1 -60.2 Q-3.2 -63.3 -4.45 -66.15 -5.4 -68.45 -4.85 -70.75 L-4.3 -71.35 -3.45 -71.65 Q-1.0 -70.9 -0.55 -68.0 L0.25 -63.4 0.9 -57.8 1.05 -54.25 6.3 -51.8 M-23.2 -63.35 Q-23.25 -65.35 -21.35 -65.6 -18.2 -66.35 -17.4 -63.6 -17.0 -62.1 -18.1 -61.05 -13.75 -56.1 -10.8 -50.35 -10.55 -49.85 -10.95 -49.4 -12.8 -47.45 -14.55 -50.0 -18.1 -55.4 -22.15 -60.5 -23.15 -61.75 -23.2 -63.35 M-21.25 -42.5 L-21.1 -42.5 -21.05 -42.25 -21.25 -42.5" fill="#666666" fill-rule="evenodd" stroke="none"/>
  </g>
</svg>
