<?xml version="1.0" encoding="UTF-8" standalone="no"?>
<svg xmlns:ffdec="https://www.free-decompiler.com/flash" xmlns:xlink="http://www.w3.org/1999/xlink" ffdec:objectType="shape" height="73.35px" width="41.3px" xmlns="http://www.w3.org/2000/svg">
  <g transform="matrix(1.0, 0.0, 0.0, 1.0, 25.75, 71.65)">
    <path d="M9.1 -52.0 L9.4 -51.55 Q9.75 -49.6 7.8 -49.5 4.6 -49.35 1.8 -50.65 L2.6 -43.95 3.2 -39.85 Q3.65 -37.6 3.5 -35.45 4.05 -34.45 3.9 -32.9 L3.9 -32.25 Q4.55 -28.1 5.5 -24.1 5.95 -22.15 5.65 -20.3 7.5 -18.65 8.5 -16.05 10.85 -9.8 14.85 -4.5 16.0 -2.95 15.25 -1.2 L15.2 -1.05 Q15.55 0.55 13.95 0.85 9.5 1.7 5.25 1.05 4.55 0.9 4.4 0.2 3.9 -2.0 6.05 -2.4 L11.5 -2.25 11.4 -2.35 Q9.65 -4.75 8.3 -7.3 L7.6 -8.35 Q7.45 -8.65 7.45 -9.0 L3.05 -18.45 Q1.8 -19.3 1.7 -21.05 L1.25 -25.4 0.15 -31.0 -4.1 -24.7 -5.65 -22.5 -6.9 -20.95 Q-5.55 -19.25 -5.7 -16.5 L-5.7 -15.45 Q-5.6 -8.95 -4.4 -2.7 -4.15 -1.6 -4.35 -0.6 -4.2 0.55 -5.0 1.0 -5.4 1.4 -5.95 1.3 -10.4 2.15 -14.8 1.15 -16.6 0.75 -16.05 -1.05 -15.7 -2.3 -14.4 -2.4 L-8.15 -2.1 -8.15 -2.6 Q-9.3 -6.6 -9.25 -11.05 L-9.4 -14.05 -10.1 -19.65 Q-11.3 -20.55 -10.4 -22.45 -8.9 -25.55 -6.3 -28.05 -5.65 -28.7 -5.15 -29.5 L-4.7 -30.25 Q-3.0 -33.9 -0.45 -37.0 L-1.3 -44.0 Q-1.95 -47.95 -2.1 -52.05 L-2.3 -52.75 Q-6.8 -55.3 -9.9 -59.2 -10.55 -60.05 -10.5 -61.2 -10.35 -63.65 -8.1 -64.15 -4.95 -63.3 -5.45 -59.8 L-5.5 -59.6 -3.55 -58.15 Q-4.8 -64.25 -5.2 -70.45 -5.25 -71.05 -4.6 -71.4 L-3.75 -71.65 Q-1.35 -70.6 -1.15 -67.75 -0.95 -64.45 -0.2 -61.25 L1.05 -55.35 Q4.9 -53.25 9.1 -52.0 M-23.95 -64.75 Q-19.45 -64.75 -20.7 -60.6 L-20.75 -60.4 Q-17.65 -57.3 -13.7 -54.65 -11.6 -53.15 -11.1 -50.85 -11.05 -50.45 -11.35 -50.15 -13.5 -48.5 -15.6 -50.75 -18.25 -53.6 -21.65 -55.75 -25.75 -58.35 -25.75 -62.9 -25.75 -63.85 -24.9 -64.4 L-23.95 -64.75" fill="#666666" fill-rule="evenodd" stroke="none"/>
  </g>
</svg>
