<?xml version="1.0" encoding="UTF-8" standalone="no"?>
<svg xmlns:ffdec="https://www.free-decompiler.com/flash" xmlns:xlink="http://www.w3.org/1999/xlink" ffdec:objectType="shape" height="74.95px" width="42.15px" xmlns="http://www.w3.org/2000/svg">
  <g transform="matrix(1.0, 0.0, 0.0, 1.0, 26.0, 73.35)">
    <path d="M1.45 -51.6 Q1.1 -44.8 2.85 -38.25 L3.45 -36.1 Q4.2 -32.85 4.25 -29.5 L5.9 -22.4 6.0 -20.7 6.6 -19.5 6.95 -18.8 14.85 -4.75 15.95 -2.35 Q16.9 0.65 13.6 1.25 9.25 2.0 5.1 1.1 4.65 1.0 4.5 0.5 3.8 -1.85 6.3 -2.1 L10.65 -2.95 3.15 -16.35 Q2.4 -17.65 2.05 -19.0 L1.95 -19.35 Q1.5 -20.0 1.45 -21.05 1.35 -23.35 0.85 -25.6 L0.7 -27.2 0.0 -30.25 Q-3.15 -24.35 -7.65 -19.35 -6.1 -12.7 -5.3 -5.85 L-4.75 -1.5 Q-4.45 0.6 -6.55 0.9 L-15.65 0.6 -16.15 0.15 Q-17.1 -3.1 -13.2 -3.0 L-12.7 -3.05 -9.45 -3.3 -9.95 -8.0 -10.0 -9.25 Q-10.75 -11.7 -11.1 -14.3 L-11.5 -16.15 Q-12.15 -18.3 -11.9 -20.5 L-11.6 -21.15 Q-6.0 -27.65 -2.35 -35.35 L-1.05 -37.15 -2.1 -42.6 Q-3.15 -47.5 -2.9 -52.6 L-2.85 -53.3 Q-5.55 -54.5 -8.05 -55.95 -10.65 -57.45 -11.65 -60.15 -12.0 -61.15 -11.6 -62.05 -11.05 -63.25 -9.85 -63.25 -5.95 -63.7 -5.9 -60.2 L-5.9 -60.0 -2.85 -58.15 Q-3.0 -61.05 -3.4 -63.85 -3.8 -66.6 -5.4 -68.85 L-6.3 -70.5 Q-7.2 -72.9 -4.65 -73.35 -0.95 -72.3 0.0 -68.5 1.55 -62.45 1.6 -56.05 3.45 -55.3 5.4 -54.75 6.95 -54.3 8.05 -53.25 8.8 -52.55 8.3 -51.65 6.95 -49.1 4.0 -50.6 L3.6 -50.9 1.45 -51.6 M-23.75 -65.45 Q-20.5 -66.2 -19.9 -63.4 -19.55 -61.85 -20.55 -60.75 -17.15 -55.85 -11.85 -53.45 -10.75 -52.95 -10.2 -51.85 -9.05 -49.75 -11.4 -48.95 L-13.4 -49.05 Q-18.15 -51.1 -21.75 -55.2 L-24.65 -58.6 Q-26.95 -61.45 -25.4 -64.45 -25.0 -65.2 -24.2 -65.35 L-23.75 -65.45" fill="#666666" fill-rule="evenodd" stroke="none"/>
  </g>
</svg>
