<?xml version="1.0" encoding="UTF-8" standalone="no"?>
<svg xmlns:ffdec="https://www.free-decompiler.com/flash" xmlns:xlink="http://www.w3.org/1999/xlink" ffdec:objectType="shape" height="73.9px" width="39.45px" xmlns="http://www.w3.org/2000/svg">
  <g transform="matrix(1.0, 0.0, 0.0, 1.0, 25.05, 72.25)">
    <path d="M3.9 -54.6 Q7.25 -54.55 6.55 -51.8 6.3 -50.8 5.2 -50.85 3.05 -50.95 1.2 -51.75 L1.3 -49.95 Q1.7 -43.05 2.6 -36.25 3.9 -35.05 4.0 -32.9 L4.4 -27.95 5.1 -21.2 Q6.2 -20.25 6.45 -18.55 L6.5 -18.35 13.7 -2.85 14.2 -1.4 14.35 -0.4 Q14.6 1.45 12.7 1.55 9.0 1.75 5.35 1.5 4.2 1.4 4.15 0.25 3.95 -1.6 5.8 -1.8 L9.7 -1.7 Q9.2 -2.55 8.9 -3.55 8.1 -4.75 7.55 -6.15 L7.45 -7.0 2.5 -19.05 Q1.65 -19.6 1.45 -21.0 L0.35 -29.2 0.25 -30.05 -1.25 -27.9 Q-2.5 -25.95 -4.3 -24.55 -5.75 -22.25 -7.7 -20.75 -7.3 -19.9 -7.45 -18.6 L-7.35 -17.95 Q-4.7 -10.05 -4.1 -1.75 L-4.05 -1.75 Q-3.7 -1.7 -3.6 -1.3 -3.0 0.75 -5.2 1.0 L-14.95 0.5 Q-15.65 0.35 -15.8 -0.4 -16.15 -2.4 -14.15 -2.7 L-7.85 -2.35 Q-8.55 -5.5 -8.45 -8.75 -9.3 -12.15 -10.65 -15.6 -11.7 -18.25 -11.3 -21.05 L-11.3 -21.1 -11.3 -21.15 Q-11.35 -21.95 -10.55 -22.8 -7.55 -26.15 -5.0 -29.8 -3.25 -32.25 -1.05 -34.3 L-1.7 -43.1 -2.75 -54.4 -2.85 -54.45 Q-7.0 -56.35 -9.6 -59.85 L-10.0 -61.0 Q-10.35 -63.75 -7.8 -64.45 -4.1 -64.45 -4.9 -60.75 L-4.95 -60.55 -3.3 -59.25 -4.1 -64.75 -4.9 -68.85 Q-5.5 -71.6 -3.15 -72.25 -0.7 -71.15 -0.85 -68.1 L-0.8 -67.45 Q0.15 -62.05 0.75 -56.55 L3.9 -54.6 M-24.9 -62.05 Q-25.65 -64.9 -23.1 -65.6 -18.65 -65.1 -20.1 -60.85 L-20.2 -60.6 Q-15.9 -55.8 -11.2 -51.55 -10.85 -51.2 -11.05 -50.7 -12.35 -47.65 -15.1 -50.1 -18.75 -53.3 -22.0 -56.85 -24.1 -59.1 -24.9 -62.05" fill="#666666" fill-rule="evenodd" stroke="none"/>
  </g>
</svg>
