<?xml version="1.0" encoding="UTF-8" standalone="no"?>
<svg xmlns:ffdec="https://www.free-decompiler.com/flash" xmlns:xlink="http://www.w3.org/1999/xlink" ffdec:objectType="shape" height="74.2px" width="40.15px" xmlns="http://www.w3.org/2000/svg">
  <g transform="matrix(1.0, 0.0, 0.0, 1.0, 25.1, 72.5)">
    <path d="M0.55 -52.1 Q1.55 -45.15 3.0 -38.35 L3.4 -35.35 Q4.05 -34.25 3.9 -32.6 L4.0 -31.5 Q5.25 -26.15 5.15 -20.7 6.6 -19.5 7.55 -17.65 L9.3 -13.3 12.45 -6.4 12.8 -5.25 Q14.45 -3.3 14.9 -1.0 L15.0 -0.6 15.05 -0.25 15.05 0.15 Q15.1 0.85 14.45 1.05 L13.7 1.25 13.65 1.25 Q9.55 2.15 5.4 1.2 3.55 0.75 4.3 -1.0 4.75 -2.05 5.8 -2.1 L10.45 -1.95 Q7.75 -6.7 5.95 -11.9 L5.7 -12.8 Q3.8 -15.75 2.45 -18.8 1.8 -19.4 1.7 -20.7 1.35 -26.0 0.5 -31.25 -3.0 -26.05 -6.8 -21.2 L-7.75 -20.1 -7.75 -20.05 -7.35 -18.45 -7.0 -16.25 -3.9 -1.25 -3.85 -0.9 -3.75 -0.6 Q-3.65 0.35 -4.2 0.75 -4.7 1.25 -5.9 1.2 L-6.2 1.15 -13.0 1.45 Q-16.55 1.4 -15.0 -1.45 -14.45 -2.35 -13.55 -2.4 L-7.85 -2.15 Q-9.3 -8.25 -10.15 -14.5 -11.95 -17.5 -11.45 -20.6 -11.6 -21.15 -11.25 -21.65 L-11.2 -21.7 -11.0 -22.0 -4.05 -31.6 -1.8 -35.0 -0.65 -36.5 -1.1 -39.4 Q-2.6 -46.8 -3.3 -54.35 -5.7 -55.9 -7.9 -57.8 -9.1 -58.9 -9.8 -60.3 -10.25 -61.25 -10.25 -62.35 -10.2 -64.75 -7.8 -65.0 -4.55 -64.6 -5.4 -61.55 L-5.5 -61.35 -3.9 -59.9 Q-4.6 -64.4 -5.95 -68.75 L-6.25 -69.95 Q-6.75 -72.15 -4.6 -72.5 -1.5 -71.35 -1.35 -67.75 L-1.05 -64.45 0.0 -56.75 Q2.95 -54.55 6.3 -52.7 7.65 -52.0 6.9 -50.7 5.85 -48.9 3.9 -50.0 2.9 -50.5 2.25 -51.3 L0.55 -52.1 M-24.85 -64.3 Q-23.85 -66.1 -21.95 -66.45 -18.7 -65.95 -19.5 -62.6 -19.65 -62.05 -20.05 -61.7 -16.1 -56.35 -11.4 -51.35 -10.55 -50.4 -11.5 -49.55 -13.1 -48.0 -14.75 -49.7 -17.75 -52.75 -20.25 -56.05 -23.55 -58.95 -25.0 -62.85 -25.25 -63.6 -24.85 -64.3" fill="#666666" fill-rule="evenodd" stroke="none"/>
  </g>
</svg>
