<?xml version="1.0" encoding="UTF-8" standalone="no"?>
<svg xmlns:ffdec="https://www.free-decompiler.com/flash" xmlns:xlink="http://www.w3.org/1999/xlink" ffdec:objectType="shape" height="74.8px" width="40.75px" xmlns="http://www.w3.org/2000/svg">
  <g transform="matrix(1.0, 0.0, 0.0, 1.0, 25.2, 73.1)">
    <path d="M0.9 -52.05 L1.05 -49.75 1.7 -40.85 1.95 -36.6 Q3.3 -35.45 3.25 -33.2 L3.2 -31.7 Q3.2 -26.0 4.1 -20.5 5.15 -19.6 5.9 -18.3 L8.1 -14.95 Q12.0 -9.75 15.1 -4.0 16.2 -2.0 14.65 -1.3 L13.7 -0.5 Q10.05 1.85 6.1 0.85 5.6 0.75 5.6 0.2 5.6 -2.6 8.9 -3.0 L11.3 -3.55 11.2 -3.85 Q6.2 -10.65 1.55 -17.75 L0.95 -19.1 0.75 -19.8 Q-0.2 -25.05 -0.6 -30.3 -3.8 -26.4 -7.55 -22.95 L-7.75 -22.4 Q-7.25 -21.3 -7.45 -19.75 L-7.45 -19.15 Q-7.3 -10.25 -5.05 -1.85 -4.25 1.0 -6.35 1.15 L-6.8 1.25 Q-10.8 2.15 -14.8 1.2 -16.65 0.75 -15.9 -1.0 -15.45 -2.05 -14.4 -2.1 L-9.15 -1.9 -9.55 -3.65 -10.05 -7.6 Q-10.95 -14.85 -11.4 -22.05 -11.6 -22.45 -11.4 -22.9 L-11.05 -23.75 Q-9.65 -26.75 -7.2 -29.1 -5.4 -30.8 -3.95 -32.95 -2.9 -34.5 -1.45 -35.5 L-2.15 -42.65 Q-2.8 -48.6 -2.9 -54.65 -6.6 -57.4 -9.9 -60.6 -11.0 -61.65 -10.9 -63.2 -10.75 -65.1 -8.95 -65.3 -5.25 -65.3 -5.8 -61.85 L-5.9 -61.6 -3.1 -59.35 Q-3.5 -64.3 -4.95 -69.05 -6.6 -71.55 -4.15 -72.95 L-3.75 -73.1 Q-1.25 -71.85 -1.0 -68.8 L-0.6 -66.35 Q0.75 -61.5 0.9 -56.4 L1.05 -56.3 Q4.4 -54.0 7.75 -52.1 8.1 -51.9 8.0 -51.5 7.2 -48.35 3.9 -50.25 2.35 -51.1 0.9 -52.05 M-20.5 -61.8 Q-20.65 -61.25 -21.15 -60.9 -16.75 -55.75 -11.25 -51.95 -10.9 -51.75 -11.05 -51.35 -11.75 -48.7 -14.5 -50.05 -17.6 -51.6 -20.0 -54.1 L-23.85 -58.3 Q-26.35 -61.25 -24.3 -64.45 -23.95 -65.0 -23.35 -65.0 -19.6 -65.0 -20.5 -61.8" fill="#666666" fill-rule="evenodd" stroke="none"/>
  </g>
</svg>
