<?xml version="1.0" encoding="UTF-8" standalone="no"?>
<svg xmlns:ffdec="https://www.free-decompiler.com/flash" xmlns:xlink="http://www.w3.org/1999/xlink" ffdec:objectType="shape" height="74.4px" width="44.0px" xmlns="http://www.w3.org/2000/svg">
  <g transform="matrix(1.0, 0.0, 0.0, 1.0, 27.5, 73.05)">
    <path d="M0.5 -56.9 L0.55 -56.15 1.95 -55.45 8.25 -52.5 8.7 -51.95 Q9.25 -49.9 7.1 -49.6 L5.85 -49.75 Q3.35 -50.65 0.95 -51.8 L1.45 -48.1 Q1.95 -44.85 2.05 -41.45 L2.1 -39.35 2.05 -36.85 Q2.6 -36.2 2.35 -35.0 L2.2 -33.85 Q2.05 -29.35 3.2 -25.1 L3.9 -21.9 4.75 -20.85 6.05 -18.9 11.55 -11.95 15.8 -6.6 Q16.75 -5.45 16.45 -4.4 L16.25 -3.8 Q15.9 -2.95 15.1 -2.5 11.65 -0.5 7.75 0.25 L6.35 0.45 Q4.55 0.5 4.5 -1.2 4.4 -3.1 6.45 -3.4 8.7 -3.75 10.85 -4.5 L12.2 -5.0 11.3 -6.35 Q8.55 -9.75 5.95 -13.3 L1.6 -18.5 Q0.9 -19.3 0.75 -20.1 L0.3 -21.1 -0.65 -25.5 Q-1.1 -27.7 -1.2 -29.95 L-1.2 -30.75 -4.95 -25.95 -7.7 -22.75 -8.0 -22.35 -8.0 -21.55 -8.0 -20.9 -6.8 -12.2 -5.4 -3.45 -5.1 -1.4 Q-4.9 0.2 -6.15 1.1 L-6.95 1.35 -15.7 1.35 -16.65 0.85 Q-17.75 -0.9 -15.9 -1.85 L-15.55 -1.95 -9.0 -2.25 -10.3 -10.15 -11.55 -18.9 Q-11.8 -20.5 -11.6 -22.05 L-11.65 -22.85 Q-11.3 -24.7 -9.8 -26.05 -9.0 -26.8 -8.35 -27.75 L-5.0 -32.2 -1.9 -35.9 -1.55 -36.2 Q-1.45 -40.35 -1.85 -44.5 L-2.8 -53.25 -2.9 -53.9 -3.85 -54.5 Q-7.0 -56.5 -9.6 -59.05 -10.95 -60.35 -11.3 -62.1 -11.7 -64.15 -10.1 -65.15 L-9.5 -65.4 Q-6.45 -65.35 -6.2 -62.5 -6.15 -61.85 -6.5 -61.35 -5.0 -59.9 -3.35 -58.65 L-3.8 -62.1 Q-4.15 -65.25 -5.55 -68.1 -6.6 -70.2 -5.75 -72.3 L-5.2 -72.85 -4.4 -73.05 Q-2.2 -72.7 -2.35 -70.45 L-2.25 -69.9 Q-0.45 -65.8 0.1 -61.4 L0.5 -56.9 M-27.4 -62.65 Q-26.9 -64.25 -25.25 -64.4 -22.1 -64.45 -21.35 -61.65 -21.15 -60.8 -21.55 -60.1 L-17.7 -57.0 -13.7 -54.1 Q-12.25 -53.0 -11.15 -51.7 -10.8 -51.25 -10.9 -50.6 -11.25 -48.6 -13.25 -49.15 -13.8 -49.3 -14.25 -49.7 -18.05 -53.1 -22.4 -55.85 -25.35 -57.7 -27.15 -60.6 -27.7 -61.55 -27.4 -62.65" fill="#666666" fill-rule="evenodd" stroke="none"/>
  </g>
</svg>
