<?xml version="1.0" encoding="UTF-8" standalone="no"?>
<svg xmlns:ffdec="https://www.free-decompiler.com/flash" xmlns:xlink="http://www.w3.org/1999/xlink" ffdec:objectType="shape" height="74.7px" width="52.25px" xmlns="http://www.w3.org/2000/svg">
  <g transform="matrix(1.0, 0.0, 0.0, 1.0, 30.15, 73.25)">
    <path d="M8.9 -55.05 Q9.5 -55.0 9.6 -54.4 10.3 -51.1 6.35 -51.45 L5.9 -51.45 1.2 -51.4 1.45 -47.3 1.8 -39.05 1.8 -37.95 Q2.65 -36.8 2.35 -34.9 2.25 -34.25 2.4 -33.6 L3.85 -24.95 Q4.15 -22.3 4.1 -19.65 8.65 -19.45 13.0 -18.35 L19.65 -16.75 19.9 -16.8 20.6 -16.55 21.05 -16.45 21.55 -16.0 21.65 -15.75 Q22.45 -14.65 21.9 -12.65 L20.7 -9.4 Q20.0 -7.75 18.6 -6.6 17.2 -5.45 16.2 -7.0 15.55 -7.95 16.1 -9.0 L17.25 -11.2 17.3 -11.85 Q17.4 -12.25 17.75 -12.5 L17.9 -13.5 Q11.65 -14.25 5.55 -15.7 L3.6 -16.15 3.05 -16.0 Q0.45 -15.9 0.45 -18.4 0.5 -25.2 -0.85 -31.65 L-0.9 -31.9 -4.65 -25.75 Q-5.85 -23.55 -7.45 -21.65 -7.15 -20.8 -7.2 -19.6 L-7.1 -18.35 Q-5.85 -12.75 -6.0 -6.85 -5.0 -4.3 -4.95 -1.65 L-4.75 -1.3 Q-4.35 0.1 -5.2 0.75 L-5.75 1.0 -6.35 1.15 -15.2 0.8 Q-15.8 0.65 -15.9 0.0 -16.1 -2.1 -14.15 -2.4 L-8.9 -2.15 -9.0 -4.4 Q-10.0 -7.35 -9.85 -10.7 L-9.9 -11.75 Q-10.85 -16.6 -10.95 -21.6 -11.4 -22.65 -10.55 -23.95 L-8.45 -27.05 -3.55 -35.2 -2.35 -36.7 -2.35 -37.7 Q-2.1 -39.95 -2.25 -42.2 L-2.7 -51.4 -6.35 -51.45 Q-9.2 -51.55 -9.15 -54.2 -9.05 -56.1 -7.2 -56.35 -5.55 -56.7 -4.55 -55.45 L-4.45 -55.25 -2.9 -55.2 -2.9 -55.4 -3.05 -56.95 -4.35 -64.25 -4.85 -67.1 Q-5.35 -70.2 -2.9 -71.05 -0.5 -70.0 -0.65 -66.95 L-0.5 -64.8 0.9 -55.1 8.9 -55.05 M-29.4 -64.15 L-28.55 -64.45 Q-25.1 -64.8 -24.75 -61.6 L-24.75 -61.4 Q-18.95 -58.15 -13.6 -54.15 -13.3 -53.9 -13.4 -53.5 -14.1 -50.45 -17.25 -51.95 -18.45 -52.55 -19.2 -53.7 -22.95 -56.15 -27.05 -58.05 -30.75 -59.75 -30.0 -63.4 L-29.4 -64.15 M-4.25 -72.95 L-5.1 -72.8 -6.6 -72.2 -5.7 -72.95 -5.0 -73.25 -4.25 -72.95 M-14.65 -49.15 L-14.65 -49.0 -14.8 -49.15 -14.65 -49.15" fill="#666666" fill-rule="evenodd" stroke="none"/>
  </g>
</svg>
