<?xml version="1.0" encoding="UTF-8" standalone="no"?>
<svg xmlns:ffdec="https://www.free-decompiler.com/flash" xmlns:xlink="http://www.w3.org/1999/xlink" ffdec:objectType="shape" height="73.05px" width="58.0px" xmlns="http://www.w3.org/2000/svg">
  <g transform="matrix(1.0, 0.0, 0.0, 1.0, 33.9, 70.95)">
    <path d="M13.4 -55.35 Q12.75 -53.75 11.35 -52.7 L4.35 -47.35 2.7 -46.1 Q1.75 -45.4 0.7 -45.0 L0.8 -44.15 1.15 -39.65 1.0 -35.35 Q1.4 -34.85 1.45 -34.0 1.55 -32.9 1.9 -31.8 3.3 -27.65 3.65 -23.25 L3.75 -22.15 Q4.0 -20.8 4.5 -19.5 7.75 -21.25 10.8 -23.4 L16.55 -27.7 Q17.0 -28.55 18.05 -28.6 19.7 -28.05 20.9 -26.65 L21.45 -26.15 23.65 -24.25 Q24.35 -23.45 23.9 -22.55 23.15 -20.9 21.45 -21.75 L20.25 -22.4 Q18.95 -23.2 17.95 -24.25 L15.5 -22.3 Q12.0 -19.55 8.15 -17.25 6.45 -16.25 4.6 -15.55 4.15 -15.15 3.45 -15.2 L2.95 -15.3 Q1.65 -15.7 1.3 -17.15 L0.25 -21.45 -0.4 -25.8 Q-0.55 -27.45 -1.0 -29.05 L-1.45 -30.7 Q-3.45 -27.45 -5.1 -24.0 L-6.0 -22.3 -7.05 -20.45 -7.05 -19.5 -7.15 -16.2 Q-7.15 -11.75 -6.65 -7.4 L-6.45 -5.8 -6.0 -1.1 -5.95 -1.1 -5.4 -0.7 Q-4.4 1.35 -6.65 1.7 L-11.4 2.0 -11.95 2.05 -15.65 1.7 -16.2 1.25 Q-17.1 -0.45 -15.3 -1.25 L-14.2 -1.6 -9.65 -1.5 -10.4 -9.3 -10.7 -16.0 -10.8 -18.0 -10.75 -20.1 Q-10.85 -21.55 -10.0 -22.85 -8.7 -24.7 -7.75 -26.75 L-4.15 -33.4 -2.45 -35.3 Q-2.4 -39.5 -2.9 -43.6 L-3.0 -44.5 -3.15 -44.5 Q-4.65 -44.65 -5.3 -45.95 L-5.55 -47.35 Q-5.25 -49.15 -3.75 -49.85 L-4.45 -56.75 -5.3 -65.55 -5.6 -66.85 Q-6.35 -69.1 -4.3 -69.95 L-3.95 -70.05 Q-1.95 -69.5 -1.75 -67.25 L-1.65 -66.1 Q-1.1 -61.7 -0.95 -57.25 L-0.6 -52.85 -0.05 -49.5 0.3 -48.95 Q3.6 -51.0 6.55 -53.65 L7.05 -54.0 Q9.35 -55.6 11.1 -57.7 L11.55 -57.95 11.9 -58.0 Q14.2 -57.5 13.4 -55.35 M-26.95 -65.5 L-23.5 -63.3 -21.5 -62.0 -16.2 -58.3 Q-15.25 -57.55 -15.8 -56.45 -16.6 -54.85 -18.4 -55.6 L-19.95 -56.5 -26.2 -60.75 Q-29.75 -62.95 -32.8 -65.8 -34.3 -67.2 -33.75 -69.2 -33.4 -70.4 -32.2 -70.75 L-31.15 -70.95 Q-28.15 -71.05 -28.25 -68.25 -28.3 -67.6 -28.8 -67.1 L-26.95 -65.5 M-14.65 -49.0 L-14.8 -49.15 -14.65 -49.15 -14.65 -49.0" fill="#666666" fill-rule="evenodd" stroke="none"/>
  </g>
</svg>
