<?xml version="1.0" encoding="UTF-8" standalone="no"?>
<svg xmlns:ffdec="https://www.free-decompiler.com/flash" xmlns:xlink="http://www.w3.org/1999/xlink" ffdec:objectType="shape" height="73.55px" width="53.95px" xmlns="http://www.w3.org/2000/svg">
  <g transform="matrix(1.0, 0.0, 0.0, 1.0, 30.35, 71.65)">
    <path d="M13.2 -53.15 L12.2 -52.15 Q9.3 -47.3 4.7 -43.55 4.25 -43.15 3.65 -42.9 1.9 -42.15 0.6 -42.6 L0.6 -42.55 1.25 -34.5 Q2.1 -33.45 2.2 -31.75 L2.4 -31.1 Q4.65 -26.75 5.85 -22.2 8.25 -24.0 10.25 -26.25 L12.15 -28.0 Q13.65 -29.15 14.7 -30.7 15.75 -32.25 17.3 -32.7 21.0 -31.95 23.3 -28.85 24.1 -27.75 22.85 -27.05 20.9 -25.9 19.15 -27.6 L17.75 -28.65 11.7 -22.15 Q9.3 -19.75 6.45 -18.15 L6.15 -18.0 4.75 -17.65 Q3.2 -17.7 2.65 -19.85 L1.1 -24.9 Q-0.5 -27.65 -1.3 -30.6 L-5.0 -23.55 Q-5.8 -22.05 -6.85 -20.8 -6.4 -19.8 -6.5 -18.45 L-6.4 -17.2 Q-5.55 -12.85 -5.5 -8.3 -5.45 -5.8 -4.8 -3.4 -4.25 -1.4 -4.9 0.05 -4.85 1.65 -6.3 1.8 L-6.35 1.8 -7.0 1.85 -7.1 1.8 -14.55 1.5 Q-15.7 1.4 -15.85 0.25 -16.1 -1.8 -14.15 -2.1 L-8.6 -1.5 -8.65 -3.1 -8.7 -4.4 Q-9.7 -7.35 -9.55 -10.7 -9.5 -12.65 -9.85 -14.6 -10.35 -17.35 -10.35 -20.1 -11.2 -21.4 -9.95 -22.9 L-9.6 -23.3 -8.45 -25.45 -8.15 -25.9 -4.95 -31.3 -4.75 -31.55 -3.25 -35.0 -2.95 -35.45 Q-2.95 -36.25 -2.55 -36.75 -2.55 -40.1 -3.0 -43.4 L-5.3 -60.9 Q-5.8 -64.65 -5.5 -68.45 -5.5 -68.95 -5.0 -69.25 L-4.05 -69.65 Q-1.7 -68.55 -1.75 -65.5 -1.8 -62.7 -1.45 -59.9 L-0.05 -48.35 2.7 -48.6 3.9 -48.25 Q8.2 -52.3 11.55 -57.3 L12.4 -57.8 Q15.55 -56.3 13.2 -53.15 M-25.9 -68.85 L-25.9 -68.6 Q-20.9 -64.1 -16.35 -59.15 -15.45 -58.15 -16.35 -57.15 -17.95 -55.45 -19.75 -57.25 L-29.8 -67.65 -30.15 -68.35 Q-30.95 -71.0 -28.3 -71.65 -25.75 -71.25 -25.9 -68.85 M-14.65 -49.15 L-14.65 -49.0 -14.8 -49.15 -14.65 -49.15" fill="#666666" fill-rule="evenodd" stroke="none"/>
  </g>
</svg>
