<?xml version="1.0" encoding="UTF-8" standalone="no"?>
<svg xmlns:ffdec="https://www.free-decompiler.com/flash" xmlns:xlink="http://www.w3.org/1999/xlink" ffdec:objectType="shape" height="77.7px" width="45.65px" xmlns="http://www.w3.org/2000/svg">
  <g transform="matrix(1.0, 0.0, 0.0, 1.0, 28.15, 75.7)">
    <path d="M14.75 -52.1 Q13.7 -48.5 12.0 -45.1 10.85 -42.85 9.25 -40.85 8.35 -39.7 6.9 -40.35 4.75 -41.3 5.7 -43.65 6.35 -45.15 7.95 -45.45 9.8 -48.1 10.3 -51.3 L10.55 -51.75 Q10.8 -54.3 12.05 -56.35 12.4 -56.9 13.0 -56.95 15.75 -55.55 14.75 -52.1 M0.2 -38.4 Q1.1 -37.65 0.95 -36.6 1.35 -35.6 0.9 -34.2 L0.55 -32.75 Q-0.05 -29.45 -0.8 -26.25 -0.45 -24.7 -0.8 -23.65 5.85 -25.2 11.85 -28.4 L12.3 -28.7 12.7 -28.85 13.0 -28.95 Q14.3 -28.5 14.65 -27.75 16.05 -26.4 16.8 -24.25 L17.45 -21.55 Q17.7 -19.25 15.5 -19.6 14.25 -19.8 13.75 -20.95 13.5 -21.6 13.5 -22.3 L12.2 -24.3 Q4.9 -20.45 -3.35 -19.5 -3.9 -19.45 -4.15 -20.0 L-4.45 -20.85 Q-4.75 -12.4 -4.35 -4.0 -4.25 -1.95 -4.95 -0.25 -4.8 1.05 -5.95 1.5 L-6.6 1.65 -6.65 1.65 Q-10.45 2.4 -14.2 1.5 -16.1 1.05 -15.35 -0.7 -14.85 -1.75 -13.85 -1.8 L-8.55 -1.6 -8.55 -1.7 Q-8.1 -4.1 -8.15 -6.65 L-8.4 -19.85 -8.55 -22.0 -8.6 -22.85 Q-9.0 -23.7 -8.65 -25.05 L-6.8 -29.8 Q-5.75 -33.75 -3.35 -36.65 L-3.35 -36.75 Q-3.25 -45.7 -3.3 -54.7 -3.35 -61.3 -5.35 -67.55 -5.6 -68.4 -4.8 -68.95 -4.3 -69.35 -3.75 -69.35 -1.05 -67.9 -0.5 -64.65 0.95 -55.95 0.6 -46.8 L0.2 -38.4 M-26.55 -75.7 Q-22.45 -75.15 -23.9 -71.15 L-23.95 -70.95 Q-22.95 -67.4 -21.05 -64.25 L-20.7 -63.15 -19.15 -60.95 -18.45 -60.2 Q-14.85 -58.55 -17.85 -56.45 L-18.85 -56.4 Q-23.45 -58.55 -25.2 -63.4 L-26.55 -66.7 Q-28.35 -70.35 -28.1 -74.3 -28.05 -75.35 -27.0 -75.6 L-26.55 -75.7 M-4.55 -22.8 L-4.4 -23.25 -4.6 -24.85 -5.0 -23.95 Q-4.7 -23.45 -4.55 -22.8" fill="#666666" fill-rule="evenodd" stroke="none"/>
  </g>
</svg>
