<?xml version="1.0" encoding="UTF-8" standalone="no"?>
<svg xmlns:ffdec="https://www.free-decompiler.com/flash" xmlns:xlink="http://www.w3.org/1999/xlink" ffdec:objectType="shape" height="79.7px" width="43.7px" xmlns="http://www.w3.org/2000/svg">
  <g transform="matrix(1.0, 0.0, 0.0, 1.0, 28.6, 77.05)">
    <path d="M14.85 -56.85 Q14.85 -54.95 15.0 -53.0 15.35 -48.55 14.65 -44.2 14.3 -42.1 12.25 -41.2 11.0 -40.65 9.9 -41.55 7.75 -43.3 9.25 -45.75 9.75 -46.55 10.7 -46.8 L11.4 -47.0 Q11.8 -51.05 11.3 -55.0 L11.05 -56.6 10.9 -57.45 Q10.75 -59.3 12.65 -59.55 14.85 -59.15 14.85 -56.85 M0.2 -34.65 L0.15 -33.65 Q-0.7 -29.25 -3.0 -25.45 L-4.35 -22.65 -3.55 -22.5 5.3 -20.8 9.65 -20.05 Q10.7 -19.85 11.6 -19.3 12.55 -18.75 12.8 -17.7 13.3 -15.6 13.2 -13.45 13.2 -12.85 12.7 -12.55 11.1 -11.55 10.0 -13.15 9.45 -14.0 9.6 -15.0 L9.45 -16.2 -4.75 -19.15 -4.7 -15.1 -4.5 -6.15 Q-4.5 -2.9 -4.05 0.3 L-4.0 0.7 Q-3.9 1.1 -4.15 1.45 -4.5 2.15 -5.6 2.4 L-9.05 2.6 -12.3 2.25 -14.55 1.95 Q-16.5 1.55 -15.9 -0.25 -15.55 -1.45 -14.35 -1.5 L-7.75 -1.1 Q-8.4 -4.65 -8.25 -8.3 -8.05 -12.8 -8.45 -17.25 L-8.5 -19.8 -8.55 -19.95 -8.65 -20.25 Q-9.9 -20.8 -11.0 -21.65 L-11.35 -22.3 Q-11.35 -23.55 -10.95 -24.8 -10.1 -27.05 -8.65 -28.95 L-5.85 -32.6 Q-4.6 -34.2 -3.8 -36.1 L-3.65 -36.35 Q-4.05 -39.8 -4.05 -43.3 -4.0 -47.75 -4.3 -52.15 L-5.1 -60.95 Q-5.6 -65.35 -5.65 -69.8 -5.65 -71.5 -3.95 -71.65 -1.85 -71.15 -1.95 -68.85 L-1.9 -66.65 -1.2 -57.8 -0.6 -48.95 -0.45 -44.45 Q-0.55 -40.0 0.2 -35.65 L0.2 -34.65 M-26.1 -77.05 Q-23.2 -76.85 -23.2 -74.05 -23.2 -73.5 -23.5 -72.95 -23.9 -72.2 -24.8 -72.05 -23.7 -68.5 -21.65 -65.3 -19.95 -62.5 -17.75 -60.2 -17.15 -59.55 -17.0 -58.7 -16.7 -57.15 -18.25 -56.75 -19.65 -56.4 -20.55 -57.5 -23.1 -60.55 -25.15 -63.95 -26.7 -66.65 -27.9 -69.55 -29.05 -72.45 -28.3 -75.4 -27.9 -77.0 -26.1 -77.05" fill="#666666" fill-rule="evenodd" stroke="none"/>
  </g>
</svg>
