<?xml version="1.0" encoding="UTF-8" standalone="no"?>
<svg xmlns:ffdec="https://www.free-decompiler.com/flash" xmlns:xlink="http://www.w3.org/1999/xlink" ffdec:objectType="shape" height="78.95px" width="50.25px" xmlns="http://www.w3.org/2000/svg">
  <g transform="matrix(1.0, 0.0, 0.0, 1.0, 28.85, 77.15)">
    <path d="M19.0 -54.5 L20.2 -50.8 20.3 -50.15 Q22.25 -46.4 20.7 -42.65 L20.05 -42.2 Q16.95 -42.15 17.45 -45.35 17.65 -46.4 17.3 -47.5 L17.25 -47.9 15.95 -51.15 Q15.75 -51.55 15.8 -52.05 14.5 -54.4 13.75 -56.85 13.55 -57.45 14.05 -57.9 L15.3 -58.4 Q18.05 -57.5 19.0 -54.5 M0.2 -31.2 L0.1 -30.95 Q-1.3 -27.1 -3.3 -23.4 L-3.6 -22.95 -3.85 -21.9 -4.25 -21.2 -4.55 -19.65 Q-4.25 -18.85 -4.6 -17.6 L-4.6 -17.35 Q-4.05 -16.3 -4.25 -14.7 L-4.4 -11.05 -3.5 -2.85 Q-3.2 -0.6 -4.5 0.8 -4.8 1.5 -6.05 1.75 L-7.55 1.75 -13.6 1.55 Q-15.0 1.65 -15.15 0.25 -15.3 -1.8 -13.25 -2.1 L-7.5 -1.85 -7.5 -2.4 Q-7.35 -5.0 -7.6 -7.6 L-7.6 -7.8 -8.2 -7.75 -9.7 -7.4 Q-13.05 -5.9 -13.7 -8.85 -13.9 -9.6 -13.15 -10.0 -11.45 -10.9 -9.55 -11.4 -12.1 -15.6 -14.2 -20.0 -16.1 -22.25 -17.0 -24.75 -17.55 -25.15 -17.75 -26.25 -18.0 -27.85 -16.55 -28.7 -11.95 -31.35 -7.2 -33.65 -4.95 -34.75 -2.7 -35.5 L-2.9 -49.85 -3.05 -54.4 Q-3.2 -59.35 -4.1 -64.15 -5.85 -67.4 -3.25 -69.5 L-2.9 -69.65 Q-0.7 -69.1 -1.05 -66.8 L-1.1 -66.6 Q0.15 -62.55 0.35 -58.15 L0.7 -49.25 1.1 -40.2 Q1.2 -36.45 0.6 -32.9 0.75 -32.2 0.2 -31.2 M-28.75 -73.2 Q-29.3 -76.25 -26.85 -77.15 -22.5 -77.1 -24.0 -72.9 L-24.3 -71.95 Q-19.95 -67.45 -17.6 -61.85 -17.15 -60.75 -17.2 -59.6 -17.25 -57.25 -19.55 -58.1 -20.5 -58.45 -20.8 -59.4 L-22.3 -63.3 Q-26.1 -67.4 -28.45 -72.25 L-28.75 -73.2 M-4.05 -30.7 Q-9.0 -28.7 -13.5 -26.0 -12.45 -24.85 -11.8 -23.2 L-11.75 -23.0 Q-11.15 -22.35 -10.8 -21.55 L-10.6 -20.85 Q-10.0 -20.45 -9.8 -19.75 L-9.65 -19.15 -8.55 -17.4 -8.55 -19.0 Q-8.55 -19.75 -8.2 -20.25 -8.1 -22.9 -6.5 -25.2 -5.15 -27.9 -4.05 -30.7" fill="#666666" fill-rule="evenodd" stroke="none"/>
  </g>
</svg>
