<?xml version="1.0" encoding="UTF-8" standalone="no"?>
<svg xmlns:ffdec="https://www.free-decompiler.com/flash" xmlns:xlink="http://www.w3.org/1999/xlink" ffdec:objectType="shape" height="78.15px" width="50.7px" xmlns="http://www.w3.org/2000/svg">
  <g transform="matrix(1.0, 0.0, 0.0, 1.0, 29.6, 76.6)">
    <path d="M17.8 -57.2 L18.2 -55.3 20.75 -46.85 Q21.3 -45.25 21.0 -43.55 20.6 -40.85 17.8 -41.45 16.4 -41.75 16.1 -43.1 15.7 -44.95 17.1 -46.2 L14.85 -53.85 13.85 -57.4 Q13.35 -59.3 15.25 -59.8 L15.45 -59.85 Q17.45 -59.3 17.8 -57.2 M0.05 -40.35 L0.0 -35.4 Q0.5 -34.75 0.1 -33.55 -1.15 -29.9 -2.65 -26.35 L-3.3 -24.85 -3.65 -24.35 Q-4.7 -21.95 -5.35 -19.5 -5.0 -18.9 -4.95 -18.0 L-4.25 -9.15 -3.9 -6.7 -3.6 -5.0 Q-3.25 -2.95 -3.35 -0.85 -3.4 -0.15 -3.85 0.2 -4.1 0.95 -5.15 1.2 L-8.6 1.55 -14.55 1.25 Q-15.85 1.15 -16.0 -0.05 -16.25 -1.9 -14.35 -2.15 L-6.85 -2.05 -7.0 -2.9 Q-7.15 -5.15 -7.6 -7.3 L-7.75 -8.15 -8.7 -16.95 -8.9 -18.0 -8.9 -19.1 -8.9 -19.4 Q-8.65 -21.55 -7.8 -23.55 L-4.75 -30.65 -4.15 -32.1 -11.7 -31.3 -15.5 -30.55 Q-15.7 -26.45 -14.95 -22.5 L-14.05 -18.2 -13.3 -14.45 -13.2 -13.7 Q-13.1 -12.7 -13.5 -12.15 L-13.55 -12.1 Q-13.85 -11.45 -14.55 -11.3 L-14.95 -11.3 -21.8 -11.4 Q-23.05 -11.5 -23.2 -12.7 -23.5 -14.55 -21.55 -14.65 L-17.25 -14.85 -17.35 -15.3 -18.8 -23.9 -19.2 -28.4 -19.1 -31.25 Q-19.3 -31.85 -18.95 -32.5 L-18.5 -33.2 -18.2 -33.35 -17.3 -33.75 -8.85 -35.3 -3.55 -35.9 -3.6 -44.4 -3.6 -53.35 Q-3.65 -55.55 -4.1 -57.75 L-4.25 -58.55 -5.7 -67.2 Q-6.0 -69.3 -3.95 -69.65 -1.9 -69.1 -1.85 -66.85 L-1.65 -64.65 Q-0.8 -60.35 -0.25 -56.0 0.2 -52.7 0.15 -49.3 L0.05 -40.35 M-26.95 -76.6 Q-24.25 -76.25 -24.25 -73.6 -24.25 -72.2 -25.6 -71.7 -23.75 -68.0 -21.25 -64.7 L-20.25 -63.4 -16.3 -58.6 Q-16.0 -58.35 -16.1 -57.95 -16.4 -55.8 -18.55 -56.45 L-19.7 -57.15 Q-22.55 -59.9 -24.8 -63.3 L-27.2 -66.9 Q-28.65 -69.1 -29.4 -71.6 L-29.55 -72.3 Q-29.95 -74.8 -28.0 -76.2 L-26.95 -76.6" fill="#666666" fill-rule="evenodd" stroke="none"/>
  </g>
</svg>
