<?xml version="1.0" encoding="UTF-8" standalone="no"?>
<svg xmlns:ffdec="https://www.free-decompiler.com/flash" xmlns:xlink="http://www.w3.org/1999/xlink" ffdec:objectType="shape" height="78.15px" width="52.0px" xmlns="http://www.w3.org/2000/svg">
  <g transform="matrix(1.0, 0.0, 0.0, 1.0, 30.6, 76.55)">
    <path d="M18.25 -54.9 L18.25 -54.7 20.15 -48.4 20.3 -47.55 Q22.35 -43.85 20.6 -40.1 20.35 -39.5 19.65 -39.6 16.15 -40.05 17.05 -43.6 L17.45 -44.25 16.8 -46.2 Q16.65 -46.5 16.65 -46.85 15.6 -49.1 15.35 -51.6 L15.15 -52.45 14.05 -56.0 Q13.2 -58.6 15.6 -59.25 17.95 -57.95 18.25 -54.9 M0.7 -45.25 Q1.35 -40.55 1.15 -35.95 2.0 -34.75 0.85 -32.6 L-1.15 -28.7 -3.8 -22.85 -4.7 -21.2 Q-4.3 -20.3 -4.3 -19.05 -4.4 -14.6 -3.8 -10.15 -3.15 -5.2 -3.6 -0.05 -3.8 2.05 -5.6 1.5 L-6.2 1.55 -14.95 0.8 Q-15.55 0.65 -15.6 0.0 -15.85 -2.1 -13.85 -2.4 L-7.1 -2.1 Q-7.0 -8.05 -7.9 -13.8 -8.4 -17.3 -8.05 -20.7 L-8.1 -20.75 Q-8.65 -21.75 -8.15 -22.8 -5.65 -27.75 -3.7 -32.7 -9.75 -32.35 -15.6 -32.75 L-16.05 -31.3 -16.85 -28.8 Q-18.2 -22.8 -19.15 -16.65 -19.45 -14.75 -20.5 -14.15 -21.8 -12.85 -23.65 -13.95 -24.85 -14.65 -26.25 -14.75 -29.6 -15.1 -30.4 -17.75 -30.65 -18.5 -30.0 -18.95 L-28.85 -19.4 Q-25.65 -19.2 -23.0 -17.75 L-22.5 -20.25 -22.15 -21.7 Q-20.85 -28.05 -19.2 -34.2 -19.4 -36.05 -17.0 -36.45 L-2.25 -36.1 -2.3 -36.95 -3.75 -54.5 Q-4.2 -60.15 -5.05 -65.7 -5.5 -68.45 -3.15 -69.05 -0.65 -68.0 -1.1 -64.9 L-1.1 -64.3 Q0.25 -55.65 0.6 -46.75 L0.7 -45.25 M-25.55 -70.95 L-17.15 -59.3 Q-16.2 -57.95 -17.55 -57.0 -19.1 -56.0 -20.25 -57.6 -24.25 -63.0 -28.7 -68.1 -30.05 -69.7 -30.45 -71.65 -31.25 -75.5 -28.0 -76.55 -24.35 -75.9 -25.05 -72.0 -25.15 -71.4 -25.55 -70.95" fill="#666666" fill-rule="evenodd" stroke="none"/>
  </g>
</svg>
