<?xml version="1.0" encoding="UTF-8" standalone="no"?>
<svg xmlns:ffdec="https://www.free-decompiler.com/flash" xmlns:xlink="http://www.w3.org/1999/xlink" ffdec:objectType="shape" height="78.05px" width="61.95px" xmlns="http://www.w3.org/2000/svg">
  <g transform="matrix(1.0, 0.0, 0.0, 1.0, 39.1, 76.45)">
    <path d="M17.05 -57.3 L17.3 -56.7 21.7 -49.05 Q23.75 -45.25 22.1 -41.3 21.8 -40.6 21.05 -40.35 18.8 -39.65 17.85 -41.75 17.05 -43.5 18.45 -44.8 L19.1 -45.4 18.9 -46.05 18.8 -46.7 14.75 -53.65 Q13.45 -55.7 12.6 -57.9 12.3 -58.8 12.85 -59.45 13.4 -60.15 14.25 -60.15 16.3 -59.45 17.05 -57.3 M1.3 -36.85 Q1.45 -35.5 1.1 -34.3 L0.95 -33.3 Q-0.2 -29.0 -2.55 -25.25 L-4.5 -21.4 -5.3 -19.6 Q-5.15 -19.1 -5.15 -18.4 L-5.05 -16.2 -3.8 -7.4 -3.55 -5.75 Q-3.15 -3.5 -3.25 -1.25 -3.3 -0.8 -3.6 -0.55 -3.4 0.85 -4.9 1.2 L-10.0 1.45 -12.85 1.25 Q-14.35 1.3 -15.6 0.6 -16.6 0.05 -16.45 -1.05 -16.2 -2.5 -14.75 -2.6 L-8.9 -2.2 -6.8 -2.1 -6.85 -2.45 -6.85 -3.1 Q-7.05 -6.4 -7.75 -9.6 L-8.65 -15.0 -9.0 -18.3 -8.85 -19.9 Q-8.65 -21.8 -7.75 -23.5 L-4.15 -29.85 -2.55 -34.2 -2.6 -35.0 -4.65 -34.9 -17.85 -34.75 -18.8 -34.7 -19.2 -34.25 -25.15 -27.85 -29.2 -23.35 -30.35 -22.65 -30.55 -22.55 -30.85 -22.5 -32.15 -22.65 Q-33.0 -22.9 -33.65 -23.45 L-37.9 -26.55 Q-39.25 -27.4 -39.1 -28.9 -38.95 -30.45 -37.4 -30.6 -36.1 -30.15 -35.0 -29.25 L-31.3 -26.55 -28.05 -30.15 -25.95 -32.5 -21.95 -36.95 Q-21.35 -37.6 -20.55 -37.9 L-20.2 -38.05 -18.55 -38.35 -18.15 -38.4 -5.0 -38.45 -2.45 -38.7 -2.55 -39.45 -3.15 -43.25 -3.6 -47.7 Q-3.9 -52.15 -3.8 -56.65 -3.7 -61.2 -4.3 -65.55 -4.45 -66.6 -4.9 -67.6 -5.3 -68.45 -5.05 -69.3 -4.7 -70.6 -3.4 -70.65 -1.3 -70.2 -0.95 -68.0 -0.25 -63.6 -0.4 -59.1 -0.5 -54.6 -0.2 -50.15 L0.05 -47.4 1.1 -38.65 1.3 -36.85 M-21.35 -64.9 Q-19.25 -63.0 -16.85 -61.65 L-16.6 -61.3 Q-16.05 -59.3 -18.2 -59.0 -19.25 -58.85 -20.15 -59.35 -23.9 -61.6 -26.4 -65.1 L-30.45 -71.2 -31.15 -72.7 -31.3 -74.25 Q-31.15 -76.15 -29.3 -76.45 -26.5 -76.2 -26.4 -73.45 -26.4 -72.7 -26.85 -72.15 L-21.85 -65.4 -21.35 -64.9" fill="#666666" fill-rule="evenodd" stroke="none"/>
  </g>
</svg>
