<?xml version="1.0" encoding="UTF-8" standalone="no"?>
<svg xmlns:ffdec="https://www.free-decompiler.com/flash" xmlns:xlink="http://www.w3.org/1999/xlink" ffdec:objectType="shape" height="79.1px" width="65.3px" xmlns="http://www.w3.org/2000/svg">
  <g transform="matrix(1.0, 0.0, 0.0, 1.0, 41.3, 78.0)">
    <path d="M18.1 -57.1 L19.75 -54.1 22.5 -48.85 23.2 -47.45 Q25.25 -43.7 21.9 -41.55 L20.8 -41.35 Q18.25 -41.95 19.2 -44.45 L19.85 -45.55 13.15 -58.65 Q12.85 -59.2 13.25 -59.75 13.8 -60.65 14.7 -60.7 16.9 -59.55 18.1 -57.1 M0.3 -30.0 Q-0.15 -27.85 -1.35 -26.1 -2.55 -22.9 -4.1 -19.75 -3.5 -18.7 -3.75 -17.0 -4.0 -15.25 -3.85 -13.55 L-3.15 -1.45 Q-3.0 1.3 -5.05 0.9 L-5.2 0.9 Q-9.3 1.2 -13.4 1.0 -16.3 0.9 -15.6 -1.6 -15.35 -2.4 -14.55 -2.6 L-14.15 -2.7 -6.8 -2.15 -7.8 -18.25 Q-7.85 -19.25 -7.5 -19.9 L-7.4 -20.9 Q-6.45 -23.9 -4.95 -26.75 L-2.45 -34.2 -4.2 -34.1 Q-11.15 -33.75 -18.15 -34.0 L-18.45 -33.65 -19.65 -32.45 Q-24.85 -28.25 -30.2 -24.3 -31.55 -23.3 -33.1 -22.75 L-34.4 -22.8 Q-35.2 -22.9 -35.95 -23.55 -37.75 -25.1 -39.05 -26.85 -41.6 -28.25 -41.25 -30.7 -41.1 -31.55 -40.25 -31.75 L-39.8 -31.8 Q-36.8 -30.6 -34.6 -27.85 L-33.8 -26.85 -33.25 -27.25 -32.6 -27.65 Q-27.45 -31.05 -22.7 -34.95 -21.25 -36.15 -19.7 -36.7 -19.3 -37.25 -18.45 -37.25 L-5.05 -37.6 -2.6 -37.9 -2.35 -37.9 -2.3 -38.15 -2.05 -39.4 Q-1.8 -48.4 -2.8 -57.15 L-3.9 -64.75 -4.45 -67.8 Q-4.9 -69.9 -2.9 -70.2 -1.3 -70.0 -1.1 -68.45 L-1.1 -68.25 Q1.05 -60.3 1.3 -51.8 L1.75 -38.6 1.55 -36.65 Q1.95 -35.5 1.4 -33.85 L0.3 -30.0 M-28.55 -78.0 Q-24.55 -77.5 -26.1 -73.9 L-26.25 -73.65 Q-24.1 -70.1 -21.3 -66.9 L-18.45 -63.4 Q-16.95 -61.5 -17.75 -59.5 -18.15 -58.45 -19.3 -58.7 -21.3 -59.15 -22.0 -61.25 -22.25 -62.1 -22.85 -62.75 L-27.8 -68.55 Q-30.0 -71.4 -30.7 -74.8 -30.9 -75.75 -30.45 -76.65 -29.75 -77.85 -28.55 -78.0" fill="#666666" fill-rule="evenodd" stroke="none"/>
  </g>
</svg>
