<?xml version="1.0" encoding="UTF-8" standalone="no"?>
<svg xmlns:ffdec="https://www.free-decompiler.com/flash" xmlns:xlink="http://www.w3.org/1999/xlink" ffdec:objectType="shape" height="76.65px" width="57.7px" xmlns="http://www.w3.org/2000/svg">
  <g transform="matrix(1.0, 0.0, 0.0, 1.0, 38.5, 75.25)">
    <path d="M15.65 -56.55 L15.8 -56.0 18.15 -47.45 19.1 -43.1 Q19.55 -40.55 18.1 -38.5 L17.25 -37.95 Q14.3 -37.2 13.35 -39.95 12.6 -42.2 14.7 -43.15 L15.25 -43.4 Q14.65 -47.3 13.5 -51.2 12.9 -53.3 11.95 -55.25 11.2 -56.85 12.05 -58.25 12.55 -59.0 13.4 -59.0 15.35 -58.65 15.65 -56.55 M0.3 -53.95 Q0.3 -49.5 0.55 -45.05 L0.7 -36.15 Q1.1 -35.55 0.8 -34.5 -0.4 -30.15 -3.35 -26.7 L-6.45 -22.8 Q-6.0 -18.95 -5.15 -15.2 L-4.5 -11.6 Q-4.0 -7.6 -3.1 -3.75 L-2.7 -1.8 Q-2.35 0.55 -4.55 1.15 L-5.9 1.2 -8.7 1.15 -12.75 1.25 Q-14.9 0.9 -14.35 -1.1 -14.05 -2.15 -12.95 -2.2 L-6.7 -2.55 -8.0 -10.1 Q-8.45 -13.7 -9.25 -17.2 L-9.95 -21.6 Q-10.3 -24.85 -7.9 -27.15 -4.85 -30.1 -3.25 -33.95 L-5.3 -33.9 -14.15 -32.75 -17.4 -32.05 -18.1 -31.85 -18.3 -31.6 -23.95 -24.85 -27.3 -20.5 Q-28.4 -19.0 -29.8 -17.75 -30.6 -17.05 -31.65 -17.4 L-33.45 -18.35 -35.8 -19.9 Q-37.65 -20.8 -38.4 -22.55 -38.65 -23.25 -38.25 -23.85 -37.15 -25.35 -35.6 -24.25 -33.55 -22.8 -31.3 -21.55 -29.7 -22.8 -28.55 -24.7 -27.05 -27.25 -25.1 -29.45 L-20.65 -34.3 Q-20.3 -35.25 -19.15 -35.55 L-14.3 -36.35 -10.1 -36.85 -3.1 -37.7 -2.95 -37.7 Q-2.75 -41.05 -3.0 -44.35 L-3.25 -51.05 Q-3.2 -53.85 -3.6 -56.6 L-4.0 -61.1 Q-4.15 -64.4 -5.2 -67.55 -5.5 -68.45 -5.3 -69.5 -4.95 -70.85 -3.55 -70.95 -1.55 -70.35 -1.3 -68.15 L-0.9 -65.9 -0.6 -63.65 0.25 -54.85 0.3 -53.95 M-30.65 -75.2 Q-27.75 -75.5 -27.55 -72.85 -27.45 -71.8 -28.25 -71.15 -26.5 -68.6 -24.15 -66.5 L-17.55 -60.3 Q-16.75 -59.5 -16.4 -58.4 -16.1 -57.45 -16.95 -56.8 -18.3 -55.8 -19.55 -57.05 L-22.7 -60.15 -28.9 -66.0 Q-30.4 -67.45 -31.5 -69.2 -32.95 -71.45 -32.35 -74.0 L-31.95 -74.65 Q-31.35 -75.2 -30.65 -75.2" fill="#666666" fill-rule="evenodd" stroke="none"/>
  </g>
</svg>
