<?xml version="1.0" encoding="UTF-8" standalone="no"?>
<svg xmlns:ffdec="https://www.free-decompiler.com/flash" xmlns:xlink="http://www.w3.org/1999/xlink" ffdec:objectType="shape" height="72.25px" width="46.4px" xmlns="http://www.w3.org/2000/svg">
  <g transform="matrix(1.0, 0.0, 0.0, 1.0, 32.0, 71.35)">
    <path d="M14.15 -51.6 L13.95 -50.15 Q14.3 -43.15 11.25 -37.05 10.2 -34.9 7.75 -35.75 5.85 -36.35 6.45 -38.4 7.05 -40.3 9.0 -40.65 10.5 -47.2 10.75 -54.05 10.85 -55.65 12.4 -55.8 15.15 -54.65 14.15 -51.6 M0.3 -34.95 Q0.5 -34.1 -0.1 -32.9 -3.05 -27.1 -5.6 -21.3 L-2.7 -5.95 Q-2.35 -4.0 -2.35 -2.15 -1.6 -1.35 -2.75 0.25 -3.2 0.9 -4.05 0.9 L-12.55 0.6 Q-13.65 0.55 -13.85 -0.6 -14.05 -2.15 -12.5 -2.4 L-6.45 -2.9 -6.6 -3.95 Q-6.75 -7.25 -7.4 -10.5 L-8.2 -15.25 -8.5 -16.95 Q-10.45 -21.8 -7.75 -26.35 L-7.0 -27.35 Q-5.6 -31.3 -3.4 -34.75 -9.4 -32.45 -14.5 -28.75 -14.3 -27.9 -14.5 -26.8 -15.25 -23.0 -15.5 -19.05 -15.75 -14.7 -16.85 -10.5 -16.45 -9.65 -17.75 -8.4 -18.2 -7.9 -18.85 -8.2 L-19.05 -8.3 -21.1 -8.45 -25.5 -9.2 Q-26.65 -9.25 -26.75 -10.4 -26.9 -12.3 -25.1 -12.5 L-19.9 -12.25 -18.5 -28.25 -18.2 -29.35 Q-18.25 -30.25 -17.1 -31.15 -10.9 -36.15 -3.5 -38.8 L-3.65 -43.3 -4.35 -56.5 Q-4.7 -63.65 -4.45 -70.55 L-4.2 -70.95 -3.15 -71.35 Q-0.4 -70.65 -0.85 -67.45 L-1.1 -62.9 Q-0.8 -53.95 -0.15 -45.15 L0.55 -36.95 Q0.65 -35.85 0.3 -34.95 M-31.95 -65.2 Q-32.35 -68.25 -29.45 -69.05 -25.6 -68.8 -26.45 -65.2 -26.55 -64.65 -27.0 -64.3 -22.95 -61.55 -18.5 -59.2 -16.1 -57.95 -15.15 -55.7 -14.95 -55.2 -15.4 -54.8 -17.45 -52.95 -19.75 -55.05 L-20.75 -55.85 Q-24.6 -58.5 -28.75 -60.7 -31.6 -62.2 -31.95 -65.2" fill="#666666" fill-rule="evenodd" stroke="none"/>
  </g>
</svg>
