<?xml version="1.0" encoding="UTF-8" standalone="no"?>
<svg xmlns:ffdec="https://www.free-decompiler.com/flash" xmlns:xlink="http://www.w3.org/1999/xlink" ffdec:objectType="shape" height="73.25px" width="42.65px" xmlns="http://www.w3.org/2000/svg">
  <g transform="matrix(1.0, 0.0, 0.0, 1.0, 29.45, 71.65)">
    <path d="M8.9 -53.45 Q9.4 -55.15 10.85 -55.95 L11.4 -56.2 Q13.8 -55.8 13.0 -53.6 11.5 -49.5 10.35 -45.15 9.2 -40.85 6.2 -37.6 5.7 -37.05 5.0 -36.9 2.4 -36.25 1.65 -38.7 1.35 -39.7 1.85 -40.65 2.75 -42.3 4.7 -42.1 L5.15 -42.1 5.35 -42.35 5.6 -42.7 Q7.0 -46.5 8.05 -50.4 L8.9 -53.45 M0.15 -53.2 L0.2 -44.25 Q0.25 -39.75 -0.05 -35.3 -0.1 -34.65 -0.4 -34.2 -0.6 -33.85 -1.05 -33.65 L-1.3 -33.5 -1.45 -33.15 Q-3.05 -29.05 -4.95 -25.1 -6.25 -22.3 -6.85 -19.3 L-6.95 -17.6 Q-6.45 -13.2 -5.5 -8.9 -4.6 -4.55 -4.35 -0.1 -4.3 0.4 -4.7 0.8 -5.25 1.35 -6.05 1.45 -10.3 1.95 -14.25 0.75 L-14.8 0.25 Q-15.45 -1.85 -13.2 -2.25 L-12.1 -2.3 -8.05 -2.1 -9.45 -9.8 -10.2 -14.75 -10.4 -16.15 Q-11.15 -20.75 -9.1 -24.85 L-8.05 -27.05 -6.35 -30.9 -8.75 -29.4 -12.3 -27.25 -12.3 -27.05 -12.1 -24.8 -11.6 -20.35 -10.8 -11.5 Q-10.55 -9.3 -10.6 -7.15 L-10.9 -6.55 Q-12.0 -5.5 -13.7 -5.65 L-15.45 -5.6 Q-17.45 -5.3 -19.4 -5.65 -21.65 -6.1 -21.0 -8.15 -20.7 -9.1 -19.7 -9.15 L-15.45 -9.25 -14.35 -9.35 -14.9 -17.3 Q-15.1 -21.8 -16.05 -26.15 -16.3 -27.25 -16.05 -28.2 L-15.85 -28.85 Q-15.5 -29.7 -14.7 -30.1 L-10.95 -32.35 Q-7.4 -34.7 -3.45 -36.55 L-3.45 -37.3 Q-3.25 -41.75 -3.4 -46.25 L-3.5 -55.2 Q-3.45 -59.7 -3.7 -64.15 L-3.85 -65.65 -3.9 -65.85 Q-4.75 -68.0 -4.75 -70.25 -4.75 -70.9 -4.15 -71.3 L-3.1 -71.65 Q-1.15 -71.05 -0.8 -68.9 L-0.4 -66.6 Q0.05 -64.45 0.1 -62.15 L0.15 -53.2 M-20.45 -59.6 Q-18.05 -58.3 -16.0 -56.6 L-14.9 -55.85 Q-13.5 -55.0 -14.15 -53.55 -14.7 -52.25 -16.1 -52.6 -17.75 -53.05 -19.05 -54.15 L-21.25 -55.65 Q-24.9 -57.8 -28.1 -60.45 -29.25 -61.4 -29.35 -62.8 L-29.35 -65.45 Q-29.25 -66.7 -28.15 -67.45 L-27.1 -67.85 Q-24.2 -67.55 -24.1 -64.7 -24.0 -63.4 -25.0 -62.55 L-20.45 -59.6" fill="#666666" fill-rule="evenodd" stroke="none"/>
  </g>
</svg>
