<?xml version="1.0" encoding="UTF-8" standalone="no"?>
<svg xmlns:ffdec="https://www.free-decompiler.com/flash" xmlns:xlink="http://www.w3.org/1999/xlink" ffdec:objectType="shape" height="74.5px" width="42.1px" xmlns="http://www.w3.org/2000/svg">
  <g transform="matrix(1.0, 0.0, 0.0, 1.0, 29.3, 72.5)">
    <path d="M11.9 -50.75 Q10.65 -48.95 9.95 -46.95 7.95 -41.05 2.45 -38.7 L1.6 -38.5 1.4 -35.65 Q2.2 -34.75 0.85 -33.4 0.85 -32.45 -0.2 -31.15 -3.1 -27.6 -5.4 -23.6 -5.75 -22.05 -6.5 -20.9 -6.15 -20.0 -6.3 -18.65 L-6.6 -14.15 -6.55 -12.3 Q-5.85 -11.0 -5.45 -9.5 L-5.35 -9.1 Q-4.05 -7.35 -4.75 -6.2 -4.9 -5.4 -5.65 -5.2 -5.3 -3.25 -5.45 -1.3 -4.5 -0.5 -5.35 0.6 -6.85 2.35 -9.55 1.7 L-9.95 1.7 Q-12.7 2.55 -14.85 1.15 -16.1 0.3 -15.15 -0.85 -13.6 -2.65 -10.9 -2.15 L-10.1 -2.1 -9.25 -2.25 -9.45 -4.2 -9.5 -4.75 -14.15 -4.5 Q-15.75 -4.45 -15.8 -6.0 -15.85 -7.7 -14.15 -7.85 L-10.4 -8.45 -9.95 -8.4 -10.15 -10.4 -11.5 -13.55 -11.6 -14.15 Q-13.1 -17.05 -13.85 -20.25 L-13.9 -20.85 Q-15.35 -22.65 -15.1 -24.45 -15.65 -26.15 -14.15 -27.15 -11.4 -28.8 -8.8 -30.8 L-2.4 -35.35 Q-1.8 -41.35 -1.95 -47.5 -2.2 -56.35 -3.5 -65.05 -3.85 -67.25 -4.85 -69.05 -6.25 -71.7 -3.45 -72.5 -0.05 -71.8 -0.15 -67.95 L0.0 -65.6 Q1.4 -56.95 1.7 -48.05 L1.8 -43.75 3.4 -43.6 Q5.45 -46.05 6.6 -49.1 L6.85 -49.55 Q7.85 -52.6 10.0 -54.8 L10.7 -55.2 Q14.15 -54.05 11.9 -50.75 M-24.6 -63.2 L-24.65 -63.0 Q-21.9 -59.5 -17.95 -56.9 L-12.95 -53.4 Q-12.5 -53.05 -12.8 -52.5 -14.3 -49.75 -17.3 -51.65 -22.1 -54.75 -26.1 -58.8 -30.6 -61.65 -28.8 -66.3 -28.4 -67.3 -27.4 -67.3 -23.8 -66.8 -24.6 -63.2 M-10.6 -22.8 L-10.35 -21.45 -10.35 -21.4 -10.2 -21.7 -9.6 -23.3 -7.7 -27.1 Q-9.5 -25.85 -11.25 -24.55 -10.85 -23.8 -10.6 -22.8" fill="#666666" fill-rule="evenodd" stroke="none"/>
  </g>
</svg>
