<?xml version="1.0" encoding="UTF-8" standalone="no"?>
<svg xmlns:ffdec="https://www.free-decompiler.com/flash" xmlns:xlink="http://www.w3.org/1999/xlink" ffdec:objectType="shape" height="76.15px" width="27.05px" xmlns="http://www.w3.org/2000/svg">
  <g transform="matrix(1.0, 0.0, 0.0, 1.0, 16.4, 74.2)">
    <path d="M10.15 -51.5 Q8.4 -47.65 5.6 -44.35 3.8 -42.25 1.6 -40.7 L1.45 -36.9 2.0 -35.85 Q2.9 -34.9 1.3 -33.4 L-0.1 -32.45 -0.4 -32.3 -6.65 -25.75 Q-7.55 -24.1 -8.7 -22.8 -8.25 -21.85 -8.35 -20.5 L-8.35 -19.05 -1.1 -8.65 -0.65 -8.05 Q1.1 -6.0 -0.25 -4.95 L-0.35 -4.8 Q-0.75 -4.1 -1.6 -4.0 L-4.55 -3.75 -4.25 -2.5 -4.2 -2.25 Q-3.35 -1.4 -4.7 0.1 -5.35 0.8 -6.25 0.95 L-11.4 1.8 Q-13.4 2.2 -15.1 1.35 -16.7 0.55 -15.65 -0.85 -14.45 -2.45 -12.25 -2.15 L-11.4 -2.15 -8.25 -2.5 -8.7 -3.65 -11.15 -3.75 Q-12.3 -3.85 -12.5 -5.0 -12.8 -7.05 -10.75 -7.25 L-9.7 -7.3 -10.65 -11.05 Q-11.65 -14.15 -11.95 -17.35 L-15.25 -22.8 -15.65 -23.1 Q-17.05 -24.35 -15.9 -25.9 L-14.85 -27.25 Q-12.25 -30.3 -8.7 -32.25 L-2.65 -35.3 -2.05 -35.85 -2.1 -36.55 -2.1 -37.9 -2.1 -38.75 Q-5.5 -37.45 -6.15 -41.0 -6.65 -43.9 -3.75 -44.1 L-2.1 -43.8 -2.25 -54.15 -2.5 -54.4 Q-3.8 -56.05 -4.3 -58.2 -5.1 -61.35 -5.5 -64.6 -5.75 -66.7 -5.1 -68.4 L-5.25 -68.8 -5.65 -70.5 -5.9 -71.0 Q-6.15 -71.5 -5.85 -71.95 -6.0 -73.95 -4.1 -74.2 -1.8 -73.35 -1.4 -70.75 L-1.35 -70.2 -0.85 -69.1 Q2.0 -60.8 1.85 -51.75 L1.75 -45.85 Q5.4 -49.55 7.35 -54.35 7.75 -55.45 8.8 -55.45 11.55 -54.5 10.25 -51.75 L10.15 -51.5 M-11.95 -24.35 L-11.45 -25.25 -12.15 -24.6 -11.95 -24.35 M-5.8 -8.3 L-5.6 -7.6 -5.25 -7.6 -5.8 -8.3" fill="#666666" fill-rule="evenodd" stroke="none"/>
  </g>
</svg>
