<?xml version="1.0" encoding="UTF-8" standalone="no"?>
<svg xmlns:ffdec="https://www.free-decompiler.com/flash" xmlns:xlink="http://www.w3.org/1999/xlink" ffdec:objectType="shape" height="73.7px" width="36.65px" xmlns="http://www.w3.org/2000/svg">
  <g transform="matrix(1.0, 0.0, 0.0, 1.0, 26.8, 71.9)">
    <path d="M7.85 -53.5 Q10.25 -53.35 9.8 -51.1 9.7 -50.55 9.2 -50.3 5.55 -48.45 1.7 -47.1 L1.8 -45.45 2.4 -36.6 2.4 -36.5 Q2.65 -35.95 2.4 -35.1 L1.6 -33.65 Q0.15 -31.85 -0.8 -29.7 L-2.85 -25.15 -4.25 -22.4 -0.2 -15.3 2.0 -11.2 Q3.6 -8.1 5.8 -5.4 L6.4 -4.25 Q6.95 -2.65 5.45 -1.9 L5.05 -1.8 -2.5 -1.5 Q-3.15 -1.45 -3.45 -2.0 -4.6 -3.9 -2.45 -4.7 L-0.25 -5.15 1.35 -5.25 -1.8 -10.5 -5.05 -16.6 -6.0 -18.2 -7.7 -21.15 -7.9 -20.6 -8.05 -19.45 Q-7.8 -14.95 -7.1 -10.6 L-6.7 -8.5 -4.8 -1.55 Q-4.3 0.1 -5.45 0.8 L-6.6 1.5 -14.1 1.8 Q-16.2 1.7 -15.95 -0.25 -15.8 -1.65 -14.3 -1.75 L-8.95 -1.9 -8.75 -1.9 Q-10.05 -5.75 -10.6 -9.75 L-11.5 -17.3 Q-11.75 -19.95 -11.3 -22.5 L-10.9 -23.8 -8.75 -27.15 -6.55 -29.5 Q-4.75 -30.95 -3.45 -32.9 L-1.1 -36.35 -1.35 -37.95 Q-1.45 -41.25 -1.7 -44.55 L-1.8 -46.05 -6.65 -45.15 -9.6 -45.25 Q-12.15 -45.75 -12.05 -48.2 -11.95 -50.2 -9.8 -50.75 -7.15 -51.4 -6.0 -49.15 L-2.1 -49.75 -2.45 -53.4 -2.9 -57.75 Q-3.45 -62.1 -4.5 -66.4 L-5.2 -68.65 Q-6.1 -70.9 -4.05 -71.8 L-3.65 -71.9 Q-1.85 -71.5 -1.5 -69.65 L-1.15 -68.45 Q-0.2 -65.8 0.1 -63.05 L0.4 -60.8 1.15 -54.3 1.45 -50.8 3.9 -51.85 7.85 -53.5 M-26.0 -65.95 Q-25.5 -66.4 -24.85 -66.4 -23.05 -66.8 -22.1 -65.45 -21.25 -64.2 -21.95 -62.85 -22.25 -62.3 -22.8 -62.0 L-22.75 -61.9 -22.65 -61.7 -22.6 -61.45 Q-19.85 -57.8 -16.0 -55.15 L-14.25 -53.85 -13.0 -52.45 Q-12.05 -50.95 -13.6 -50.05 L-15.55 -50.15 Q-17.45 -51.5 -19.2 -53.1 L-19.85 -53.6 Q-23.1 -55.85 -25.35 -59.05 -27.35 -61.8 -26.6 -65.0 L-26.0 -65.95" fill="#666666" fill-rule="evenodd" stroke="none"/>
  </g>
</svg>
