<?xml version="1.0" encoding="UTF-8" standalone="no"?>
<svg xmlns:ffdec="https://www.free-decompiler.com/flash" xmlns:xlink="http://www.w3.org/1999/xlink" ffdec:objectType="shape" height="82.15px" width="53.15px" xmlns="http://www.w3.org/2000/svg">
  <g transform="matrix(1.0, 0.0, 0.0, 1.0, 20.45, 81.15)">
    <path d="M3.1 -68.7 L3.0 -68.0 2.6 -57.7 2.55 -55.75 2.9 -45.3 Q3.0 -40.05 2.65 -34.9 L2.55 -33.7 2.6 -32.85 2.55 -32.25 Q3.9 -27.55 5.55 -22.9 L6.95 -18.15 7.75 -17.0 9.0 -14.65 Q11.35 -11.25 12.65 -7.3 13.2 -5.7 14.1 -4.15 14.75 -3.1 14.55 -1.9 L14.25 -1.1 Q14.55 0.35 12.95 0.5 L6.65 1.0 5.6 0.85 Q3.9 0.1 4.75 -1.55 5.15 -2.4 6.05 -2.45 L10.9 -2.35 9.1 -6.9 7.1 -11.55 Q5.35 -13.6 4.45 -16.0 3.95 -16.3 3.8 -16.95 2.8 -21.5 0.95 -25.75 0.0 -27.95 -0.35 -30.3 L-1.25 -29.1 -2.3 -28.1 Q-4.2 -24.4 -6.55 -21.0 -6.4 -20.3 -6.55 -19.4 L-6.6 -18.05 Q-6.3 -15.5 -6.3 -12.9 -6.4 -7.65 -4.8 -2.8 L-4.55 -1.45 Q-4.4 -0.9 -4.65 -0.45 -4.95 0.0 -5.65 0.3 L-5.9 0.4 -8.25 0.65 -13.35 0.3 Q-14.3 0.35 -14.85 -0.4 -15.75 -1.65 -14.5 -2.6 L-13.65 -2.95 -8.35 -2.7 Q-9.65 -7.1 -9.6 -11.8 -9.5 -15.05 -9.85 -18.2 L-10.05 -20.75 Q-10.1 -21.7 -9.65 -22.2 L-8.55 -24.15 Q-7.15 -25.95 -6.15 -28.05 L-4.85 -29.95 -2.6 -32.95 Q-1.75 -34.25 -0.5 -34.95 -0.2 -39.15 -0.3 -43.4 -0.35 -48.6 -0.7 -53.8 -1.05 -59.0 -0.45 -64.1 -0.25 -66.1 -0.45 -68.0 -0.6 -69.65 0.2 -70.9 0.5 -71.35 1.05 -71.45 L1.3 -71.45 Q3.55 -71.0 3.1 -68.7 M16.95 -61.05 Q17.35 -62.1 18.45 -62.15 19.95 -61.7 20.6 -60.2 L21.25 -59.3 22.8 -57.65 23.35 -57.05 30.85 -50.0 Q32.4 -48.6 32.65 -46.65 33.0 -43.8 30.1 -44.15 28.75 -44.3 27.85 -45.4 26.95 -46.65 27.4 -48.2 23.95 -52.1 20.05 -55.7 L19.4 -56.25 Q17.85 -57.6 17.0 -59.55 16.7 -60.3 16.95 -61.05 M-18.65 -81.1 Q-15.9 -81.5 -15.75 -79.0 -15.6 -77.25 -17.15 -76.4 -16.2 -72.4 -14.9 -68.45 -13.7 -64.8 -13.6 -60.95 -13.6 -60.3 -14.15 -59.95 -15.65 -59.05 -16.6 -60.6 L-17.0 -61.9 Q-17.2 -64.15 -17.9 -66.25 -19.3 -70.6 -20.2 -75.05 -20.7 -77.45 -20.15 -79.9 -19.95 -80.75 -19.1 -81.0 L-18.65 -81.1" fill="#666666" fill-rule="evenodd" stroke="none"/>
  </g>
</svg>
