<?xml version="1.0" encoding="UTF-8" standalone="no"?>
<svg xmlns:ffdec="https://www.free-decompiler.com/flash" xmlns:xlink="http://www.w3.org/1999/xlink" ffdec:objectType="shape" height="78.9px" width="51.15px" xmlns="http://www.w3.org/2000/svg">
  <g transform="matrix(1.0, 0.0, 0.0, 1.0, 25.35, 77.95)">
    <path d="M3.55 -67.5 L3.5 -66.55 Q3.7 -61.35 3.5 -56.15 L3.15 -48.4 2.65 -43.25 Q2.15 -39.6 2.2 -35.9 L2.2 -35.6 Q2.65 -35.1 2.75 -34.25 3.35 -29.15 4.95 -24.3 L6.55 -18.8 7.5 -17.1 7.8 -16.45 Q10.4 -11.95 12.55 -7.25 L14.4 -2.3 14.3 -1.75 Q13.75 -1.0 13.2 -0.85 L12.6 -0.45 6.8 0.9 Q5.1 1.2 4.35 -0.15 3.75 -1.2 4.65 -1.95 5.25 -2.45 6.1 -2.55 L10.55 -3.35 8.3 -8.35 4.7 -15.15 Q4.1 -15.4 3.75 -16.35 L2.95 -18.9 0.3 -28.85 -0.25 -31.05 -5.85 -24.8 -7.4 -22.65 -7.85 -22.0 -7.85 -20.85 -7.9 -20.1 Q-7.95 -16.2 -7.35 -12.4 L-6.55 -7.6 -5.95 -3.8 Q-5.2 -2.4 -5.5 -1.2 -5.3 -0.15 -6.3 0.3 -6.6 0.65 -7.05 0.55 L-11.3 0.7 -14.1 0.15 Q-14.8 0.05 -14.95 -0.65 -15.35 -2.6 -13.4 -2.95 L-9.05 -2.55 -9.15 -3.2 -10.85 -13.4 -11.0 -14.95 Q-10.95 -18.25 -11.45 -21.45 L-11.45 -22.7 -11.0 -23.7 -10.25 -25.05 -3.3 -32.55 -1.55 -34.7 -1.05 -35.3 -1.15 -38.0 Q-1.15 -40.6 -0.8 -43.15 L-0.2 -48.25 Q0.25 -53.4 0.35 -58.6 L0.25 -69.0 Q0.2 -70.35 1.55 -70.6 L1.8 -70.65 Q3.95 -69.95 3.55 -67.5 M20.1 -58.1 Q20.8 -56.25 21.65 -54.5 23.9 -49.8 25.4 -44.85 L25.8 -42.3 Q25.85 -41.15 25.1 -40.3 24.3 -39.45 23.15 -39.9 20.85 -40.85 21.2 -43.3 21.35 -44.1 22.05 -44.5 L20.6 -48.3 20.35 -49.2 20.0 -49.8 19.85 -50.3 15.5 -59.05 Q15.25 -59.5 15.5 -59.95 15.95 -60.95 17.0 -61.0 19.25 -60.35 20.1 -58.1 M-23.75 -77.95 Q-20.25 -78.25 -20.1 -74.85 -20.05 -74.05 -20.65 -73.5 L-18.1 -70.75 Q-17.65 -70.25 -17.55 -69.6 L-13.15 -62.5 Q-12.3 -61.05 -12.35 -59.55 -12.35 -59.0 -12.8 -58.75 -14.45 -57.8 -15.45 -59.45 L-16.65 -61.5 -17.75 -63.35 -18.8 -65.25 Q-20.35 -68.2 -22.6 -70.65 L-24.0 -72.4 Q-25.0 -74.0 -25.3 -75.8 -25.6 -77.7 -23.75 -77.95" fill="#666666" fill-rule="evenodd" stroke="none"/>
  </g>
</svg>
