<?xml version="1.0" encoding="UTF-8" standalone="no"?>
<svg xmlns:ffdec="https://www.free-decompiler.com/flash" xmlns:xlink="http://www.w3.org/1999/xlink" ffdec:objectType="shape" height="77.6px" width="47.35px" xmlns="http://www.w3.org/2000/svg">
  <g transform="matrix(1.0, 0.0, 0.0, 1.0, 25.2, 77.05)">
    <path d="M2.25 -68.3 L2.25 -67.6 Q2.75 -62.4 2.65 -57.15 L2.5 -46.75 Q2.45 -41.75 2.8 -36.8 L2.95 -36.05 2.95 -35.95 Q4.6 -31.45 4.8 -26.6 4.9 -24.05 5.3 -21.45 L5.4 -19.05 Q5.95 -18.35 6.2 -17.3 L6.55 -16.45 11.65 -7.5 12.55 -6.05 13.9 -3.5 Q14.55 -3.0 14.35 -1.8 14.25 -1.15 13.55 -0.95 L9.05 0.15 6.5 0.55 Q5.7 0.6 5.3 -0.05 4.2 -1.95 6.3 -2.65 L10.0 -3.55 8.4 -6.35 7.15 -8.6 Q4.5 -13.0 2.25 -17.6 1.85 -18.45 2.1 -19.05 L2.05 -19.15 1.1 -29.0 0.55 -32.7 -2.35 -28.7 -4.4 -25.85 Q-5.8 -24.0 -7.45 -22.55 L-7.15 -18.3 Q-6.55 -13.15 -6.25 -8.0 L-5.8 -2.7 Q-5.4 -2.65 -5.2 -2.25 -4.15 -0.35 -6.2 0.4 L-7.05 0.55 -12.1 0.4 -15.05 -0.1 Q-15.85 -0.35 -15.95 -1.2 -16.05 -2.85 -14.4 -3.05 L-9.15 -2.8 Q-9.8 -7.65 -10.05 -12.55 L-10.55 -17.7 -10.85 -21.8 -10.85 -23.25 -10.85 -23.95 Q-10.8 -24.6 -10.2 -24.9 -9.95 -25.05 -9.65 -25.15 L-9.15 -25.75 Q-6.7 -28.3 -4.75 -31.25 L-2.7 -34.45 Q-1.9 -35.75 -0.75 -36.45 L-0.7 -46.35 -0.6 -56.8 Q-0.5 -62.05 -1.2 -67.2 -1.5 -69.35 -0.6 -71.2 L0.05 -71.7 0.5 -71.8 Q2.7 -70.95 2.25 -68.3 M18.6 -58.1 L19.1 -56.2 21.45 -48.75 Q22.6 -45.2 21.8 -41.65 21.15 -38.75 18.25 -39.8 16.4 -40.45 16.7 -42.45 16.95 -44.15 18.65 -44.75 17.95 -49.45 16.3 -54.0 L15.55 -55.75 Q14.65 -57.7 14.95 -59.7 L15.25 -60.2 Q15.75 -60.65 16.35 -60.65 18.15 -60.1 18.6 -58.1 M-23.55 -77.05 Q-20.6 -76.95 -20.9 -73.95 -21.0 -73.15 -21.5 -72.55 -20.65 -70.4 -19.2 -68.45 L-12.6 -59.85 Q-12.1 -59.2 -12.55 -58.5 -13.75 -56.85 -15.35 -58.35 L-16.6 -59.65 -20.4 -64.45 -22.1 -66.65 Q-23.6 -68.6 -24.55 -70.85 -25.75 -73.7 -24.65 -76.45 L-24.0 -76.95 -23.55 -77.05" fill="#666666" fill-rule="evenodd" stroke="none"/>
  </g>
</svg>
