<?xml version="1.0" encoding="UTF-8" standalone="no"?>
<svg xmlns:ffdec="https://www.free-decompiler.com/flash" xmlns:xlink="http://www.w3.org/1999/xlink" ffdec:objectType="shape" height="76.6px" width="46.85px" xmlns="http://www.w3.org/2000/svg">
  <g transform="matrix(1.0, 0.0, 0.0, 1.0, 26.35, 75.9)">
    <path d="M1.55 -65.85 Q1.95 -63.25 1.95 -60.6 2.0 -55.4 2.4 -50.3 L2.45 -48.7 Q3.0 -46.35 3.05 -43.9 3.1 -41.25 3.65 -38.75 L3.85 -37.6 Q4.45 -36.7 4.2 -35.2 L4.15 -34.15 Q4.4 -28.95 5.35 -24.0 L5.75 -20.3 Q6.35 -19.7 6.5 -18.65 6.6 -17.95 6.95 -17.35 9.45 -12.85 12.1 -8.4 L15.7 -2.2 15.7 -1.7 15.45 -1.25 15.45 -1.05 Q15.3 0.35 13.9 0.45 10.0 0.85 6.15 0.55 L5.6 0.15 Q4.5 -2.0 6.9 -2.5 L7.45 -2.55 10.8 -2.8 11.55 -2.9 6.55 -11.0 Q4.35 -14.65 2.9 -18.55 L2.8 -19.4 1.75 -24.45 Q1.1 -28.95 0.75 -33.55 -2.7 -30.5 -5.4 -26.7 L-7.55 -23.6 -7.9 -23.05 Q-7.5 -22.35 -7.6 -21.25 L-7.6 -18.7 -7.1 -13.55 Q-6.75 -11.0 -6.7 -8.4 L-6.6 -6.9 Q-6.15 -4.1 -6.15 -1.25 -6.15 -0.05 -7.05 0.25 L-7.85 0.45 Q-11.4 0.9 -14.8 0.35 -15.35 0.25 -15.5 -0.25 -16.1 -2.35 -13.9 -2.8 L-9.45 -2.65 -9.75 -5.7 -10.45 -11.45 -11.25 -21.75 -11.25 -22.25 Q-11.6 -22.8 -11.25 -23.75 -10.4 -26.15 -8.6 -28.05 L-6.15 -31.05 -5.75 -31.65 Q-3.3 -35.3 0.35 -37.5 L0.2 -38.7 -0.5 -47.05 Q-1.05 -49.4 -1.1 -51.85 L-1.25 -58.2 Q-1.25 -61.75 -1.75 -65.2 L-2.0 -68.75 Q-2.0 -70.0 -1.45 -71.05 -1.0 -71.75 -0.2 -71.8 2.0 -71.0 1.6 -68.4 1.4 -67.1 1.55 -65.85 M17.6 -57.4 L17.75 -56.5 18.15 -53.95 Q18.55 -51.9 19.25 -49.95 20.05 -47.5 20.2 -44.85 L20.35 -43.5 Q20.95 -40.6 18.7 -39.1 L18.3 -38.95 Q15.55 -38.8 15.15 -41.3 14.95 -42.7 16.1 -43.65 L16.65 -44.0 Q16.85 -46.95 15.55 -49.8 L15.45 -50.25 13.7 -59.0 13.75 -59.45 Q14.25 -60.3 15.2 -60.35 17.3 -59.75 17.6 -57.4 M-24.7 -75.9 Q-22.0 -75.75 -21.8 -73.0 -21.75 -71.9 -22.4 -71.05 -20.35 -66.95 -16.7 -64.2 L-16.25 -63.85 Q-13.95 -61.75 -12.5 -59.1 -12.1 -58.35 -12.6 -57.65 -13.85 -56.0 -15.25 -57.55 L-19.4 -62.3 Q-23.9 -65.4 -25.85 -70.5 -26.75 -72.85 -25.95 -75.15 L-25.3 -75.7 -24.7 -75.9" fill="#666666" fill-rule="evenodd" stroke="none"/>
  </g>
</svg>
