<?xml version="1.0" encoding="UTF-8" standalone="no"?>
<svg xmlns:ffdec="https://www.free-decompiler.com/flash" xmlns:xlink="http://www.w3.org/1999/xlink" ffdec:objectType="shape" height="73.0px" width="43.15px" xmlns="http://www.w3.org/2000/svg">
  <g transform="matrix(1.0, 0.0, 0.0, 1.0, 27.55, 72.15)">
    <path d="M1.05 -65.95 Q1.35 -63.35 1.3 -60.65 1.2 -56.1 1.9 -51.7 L2.25 -49.15 Q2.6 -45.3 3.35 -41.55 3.8 -39.0 3.5 -36.55 4.1 -35.65 3.85 -34.1 L3.7 -32.8 Q3.45 -27.55 4.3 -22.5 L4.4 -21.55 Q4.95 -21.05 5.3 -20.2 L5.75 -19.25 11.05 -10.4 Q13.6 -6.45 15.55 -2.25 L15.55 -1.5 Q14.85 -0.1 13.75 -0.5 12.75 -0.05 11.7 0.0 L10.3 0.2 5.45 -0.05 Q5.2 -0.15 5.1 -0.4 4.45 -2.35 6.55 -2.65 L11.3 -3.4 6.95 -10.55 6.75 -11.05 Q4.05 -15.1 1.5 -19.3 L1.2 -20.2 Q0.9 -20.65 0.85 -21.2 L0.65 -23.8 0.3 -32.3 Q-3.4 -29.75 -5.95 -26.0 L-7.6 -23.55 -8.95 -21.5 Q-8.75 -20.95 -8.8 -20.15 L-8.75 -19.65 -7.65 -12.05 -7.15 -9.2 Q-6.15 -5.3 -6.45 -1.25 L-6.4 -1.0 Q-6.1 0.7 -7.85 0.75 -12.0 0.95 -16.15 0.8 -17.25 0.75 -17.4 -0.3 -17.7 -2.05 -15.9 -2.3 L-9.6 -2.15 Q-10.0 -7.15 -11.0 -12.05 L-11.25 -13.35 -12.05 -18.25 -12.35 -20.25 -12.3 -21.55 -12.3 -21.95 -11.75 -23.55 -9.8 -26.65 Q-7.1 -31.1 -2.95 -34.2 L0.45 -36.4 Q0.2 -41.25 -0.65 -45.95 L-0.85 -47.3 -1.9 -57.6 -2.0 -60.15 Q-1.9 -64.6 -2.65 -68.85 -2.85 -69.9 -1.9 -70.4 L-1.15 -70.65 Q0.75 -70.05 0.85 -67.9 L1.05 -65.95 M9.85 -53.3 L9.95 -53.55 Q9.55 -55.85 11.05 -57.25 11.35 -57.55 11.7 -57.55 14.1 -57.2 13.45 -54.9 L13.1 -53.0 12.95 -51.4 Q12.5 -46.2 11.3 -41.2 10.8 -38.95 9.2 -37.3 8.8 -36.8 8.1 -36.7 5.2 -36.4 5.3 -39.15 5.4 -41.55 7.95 -42.05 9.15 -46.65 9.45 -51.5 9.5 -52.45 9.85 -53.3 M-25.75 -72.1 Q-22.65 -72.5 -22.4 -69.6 -22.25 -68.55 -22.9 -67.65 L-15.65 -60.5 -13.75 -58.7 Q-12.75 -57.85 -12.45 -56.6 -12.2 -55.3 -13.5 -54.95 -15.2 -54.5 -16.25 -55.9 L-17.1 -57.0 Q-20.5 -60.85 -24.45 -64.2 -26.55 -66.05 -27.35 -68.55 L-27.55 -69.5 Q-27.7 -71.65 -25.75 -72.1" fill="#666666" fill-rule="evenodd" stroke="none"/>
  </g>
</svg>
