<?xml version="1.0" encoding="UTF-8" standalone="no"?>
<svg xmlns:ffdec="https://www.free-decompiler.com/flash" xmlns:xlink="http://www.w3.org/1999/xlink" ffdec:objectType="shape" height="71.95px" width="42.55px" xmlns="http://www.w3.org/2000/svg">
  <g transform="matrix(1.0, 0.0, 0.0, 1.0, 27.65, 71.0)">
    <path d="M12.2 -53.7 L11.45 -51.4 Q9.9 -46.75 7.65 -42.35 L7.45 -41.95 Q7.45 -40.55 6.45 -39.5 L5.8 -38.95 Q4.75 -38.1 3.85 -38.05 L3.8 -35.85 Q4.5 -34.9 4.2 -33.3 L4.05 -31.95 Q3.85 -27.3 4.9 -22.85 L5.45 -20.1 Q5.7 -18.8 6.45 -17.7 9.4 -13.45 11.45 -8.75 L13.05 -5.5 Q14.4 -3.8 14.9 -1.75 L14.8 -1.35 14.6 -1.05 Q14.4 -0.5 13.65 -0.35 L12.25 -0.1 5.6 0.1 Q4.8 0.05 4.6 -0.7 4.05 -2.55 6.05 -2.85 L8.5 -3.15 10.4 -3.35 8.6 -6.8 6.25 -11.45 Q5.05 -13.85 3.4 -15.95 2.05 -17.8 1.95 -20.0 L1.45 -23.9 Q0.65 -26.25 0.7 -28.8 L0.8 -32.25 Q-2.45 -29.6 -4.9 -26.05 L-6.0 -24.7 -7.7 -22.85 Q-7.55 -22.15 -7.7 -21.2 L-7.85 -19.25 -7.55 -8.8 -7.05 -6.35 Q-6.25 -4.15 -5.95 -1.85 L-5.9 -1.15 Q-5.5 0.2 -7.15 0.85 L-7.6 0.95 -15.3 0.8 Q-17.0 0.75 -17.0 -0.8 -17.05 -2.3 -15.55 -2.45 L-9.5 -2.35 -9.55 -2.5 -10.5 -7.7 -10.65 -9.05 Q-11.1 -14.2 -11.2 -19.45 L-11.0 -22.55 -10.95 -23.75 Q-10.4 -25.45 -9.05 -26.75 -7.2 -28.4 -5.7 -30.35 -3.05 -33.75 0.45 -36.35 L0.5 -36.35 0.45 -37.1 Q0.25 -41.9 -0.55 -46.55 L-0.85 -49.1 Q-0.95 -51.75 -1.5 -54.25 -2.05 -56.8 -1.95 -59.4 -1.9 -62.6 -2.7 -65.65 L-3.3 -68.75 Q-3.35 -69.2 -3.0 -69.55 -2.5 -70.1 -1.8 -70.1 0.55 -69.5 0.8 -66.9 L0.95 -64.9 1.2 -59.75 Q1.25 -57.55 1.65 -55.35 L2.5 -49.0 3.15 -43.2 4.35 -43.6 5.6 -45.55 5.85 -45.9 8.2 -52.8 9.35 -56.15 Q9.45 -56.6 9.9 -56.75 L10.6 -56.95 Q12.85 -56.2 12.2 -53.7 M-26.7 -70.6 L-26.1 -70.95 -25.85 -71.0 Q-22.8 -71.05 -22.4 -68.1 -22.3 -67.05 -22.7 -66.15 -18.95 -62.25 -14.65 -58.75 -13.25 -57.65 -13.05 -55.95 -13.0 -55.4 -13.45 -55.05 -14.9 -53.9 -16.35 -55.35 L-22.25 -60.85 Q-25.0 -63.2 -26.95 -66.15 -28.5 -68.55 -26.7 -70.6" fill="#666666" fill-rule="evenodd" stroke="none"/>
  </g>
</svg>
