<?xml version="1.0" encoding="UTF-8" standalone="no"?>
<svg xmlns:ffdec="https://www.free-decompiler.com/flash" xmlns:xlink="http://www.w3.org/1999/xlink" ffdec:objectType="shape" height="73.85px" width="42.25px" xmlns="http://www.w3.org/2000/svg">
  <g transform="matrix(1.0, 0.0, 0.0, 1.0, 27.35, 72.3)">
    <path d="M10.2 -51.4 L9.85 -50.85 Q6.75 -46.85 2.5 -44.0 2.6 -40.6 3.1 -37.3 3.35 -35.75 3.2 -34.25 L3.15 -33.8 Q3.1 -33.15 3.2 -32.45 4.05 -27.35 5.2 -22.4 L5.45 -20.55 Q6.0 -20.1 6.35 -19.25 L7.25 -17.45 Q9.65 -13.3 11.5 -8.85 12.45 -6.45 13.7 -4.2 14.6 -2.5 14.9 -0.65 15.05 0.3 14.2 0.8 L12.55 0.85 5.65 0.4 Q5.25 0.3 5.1 -0.1 4.5 -2.05 6.55 -2.45 L10.75 -2.3 7.6 -9.25 5.4 -13.85 3.15 -18.05 Q2.6 -18.35 2.4 -19.25 L1.15 -24.85 Q0.35 -28.3 -0.15 -31.85 -1.55 -30.7 -2.65 -29.15 L-5.5 -25.05 Q-6.9 -23.2 -8.65 -21.85 L-8.65 -20.9 -8.65 -20.15 -7.55 -9.95 -7.3 -7.4 Q-7.1 -4.0 -6.0 -0.85 -5.3 0.7 -7.05 1.35 L-7.15 1.35 -8.6 1.55 -14.9 1.35 Q-16.9 1.35 -17.2 -0.4 -17.4 -1.45 -16.4 -1.9 L-15.7 -2.1 -9.8 -1.85 Q-10.3 -3.65 -10.45 -5.55 L-11.4 -15.85 -12.0 -20.05 -12.15 -22.1 Q-12.15 -22.85 -11.75 -23.3 L-11.15 -24.05 Q-8.75 -26.4 -6.75 -29.1 -4.4 -33.3 -0.4 -36.1 L-0.15 -36.2 -0.25 -36.7 -0.8 -42.25 -1.25 -42.1 -4.65 -42.25 Q-5.55 -42.75 -5.7 -43.75 -6.15 -46.75 -3.2 -46.6 -2.45 -46.55 -1.85 -46.0 L-1.5 -45.65 -1.05 -45.9 -1.1 -47.0 Q-1.2 -49.6 -1.75 -52.15 -2.75 -57.15 -2.75 -62.35 -2.75 -65.85 -3.95 -69.1 -5.05 -71.1 -3.1 -72.1 L-2.65 -72.3 Q-0.85 -71.8 -0.65 -69.8 L-0.65 -69.65 Q0.3 -67.4 0.35 -64.9 0.45 -59.65 1.3 -54.6 L2.1 -49.4 2.25 -48.1 Q5.05 -50.3 7.25 -53.15 7.85 -53.9 8.8 -53.95 11.25 -53.55 10.2 -51.4 M-22.65 -64.2 Q-20.45 -60.45 -16.55 -58.05 L-14.65 -56.55 -14.05 -55.9 Q-12.7 -54.25 -14.5 -53.2 -15.1 -52.85 -15.7 -53.2 L-18.1 -54.85 -22.7 -58.9 -25.05 -61.25 Q-26.65 -63.15 -27.25 -65.4 -27.65 -66.95 -26.4 -67.85 L-25.35 -68.2 Q-22.45 -68.1 -22.3 -65.4 -22.3 -64.75 -22.65 -64.2" fill="#666666" fill-rule="evenodd" stroke="none"/>
  </g>
</svg>
