<?xml version="1.0" encoding="UTF-8" standalone="no"?>
<svg xmlns:ffdec="https://www.free-decompiler.com/flash" xmlns:xlink="http://www.w3.org/1999/xlink" ffdec:objectType="shape" height="74.0px" width="41.1px" xmlns="http://www.w3.org/2000/svg">
  <g transform="matrix(1.0, 0.0, 0.0, 1.0, 26.8, 72.3)">
    <path d="M8.35 -52.85 L8.8 -53.0 Q11.2 -52.8 10.45 -50.65 10.2 -49.9 9.4 -49.65 5.5 -48.45 1.5 -47.75 L1.5 -47.7 1.8 -45.15 2.85 -37.55 Q3.0 -36.55 2.8 -35.65 L3.0 -34.4 3.05 -29.3 Q3.1 -27.95 3.45 -26.65 L3.85 -24.75 4.25 -21.1 Q5.4 -20.6 5.8 -19.1 L6.3 -17.85 10.75 -8.6 13.6 -1.45 13.95 -1.1 Q14.65 0.05 14.0 0.65 L13.9 0.8 Q12.85 2.05 11.8 1.35 L9.3 1.65 Q7.15 1.85 5.15 1.05 4.65 0.85 4.55 0.3 4.2 -1.5 6.05 -1.8 L9.85 -1.7 Q8.15 -6.5 5.8 -11.1 L4.55 -13.5 Q3.3 -15.85 2.45 -18.3 1.7 -18.5 1.25 -19.45 1.1 -19.75 1.1 -20.15 0.6 -22.5 0.4 -24.95 L0.0 -27.55 Q-0.45 -29.3 -0.45 -31.2 L-0.45 -32.1 Q-3.3 -28.6 -5.55 -24.65 -6.75 -22.5 -8.35 -20.7 -8.3 -20.15 -8.4 -19.5 L-8.4 -19.05 Q-8.15 -13.9 -7.4 -8.85 -7.05 -6.3 -6.35 -3.9 L-5.9 -1.65 Q-5.75 -0.5 -6.3 0.5 -6.75 1.35 -7.6 1.25 L-11.05 1.45 -15.45 0.95 Q-16.7 0.85 -16.75 -0.35 -16.8 -1.95 -15.2 -2.1 L-9.55 -1.95 -9.95 -4.25 -10.3 -5.9 -11.55 -16.1 -11.8 -18.3 -11.65 -21.3 Q-11.8 -22.3 -11.1 -23.0 -10.5 -23.6 -10.05 -24.3 L-6.75 -29.0 -4.5 -32.65 -4.1 -33.05 Q-2.95 -35.5 -0.6 -36.45 L-0.65 -37.6 -1.5 -45.25 -1.7 -47.3 -3.55 -46.9 -6.25 -46.75 Q-8.1 -47.05 -9.1 -48.35 -9.4 -48.75 -9.35 -49.25 -9.25 -51.9 -6.5 -51.6 -5.1 -51.45 -4.45 -50.35 L-2.05 -50.55 -2.55 -55.5 -3.3 -65.8 Q-3.45 -68.2 -4.2 -70.5 -4.35 -71.1 -4.0 -71.55 -3.45 -72.25 -2.65 -72.3 -0.65 -71.9 -0.4 -69.7 L-0.25 -68.3 0.55 -58.0 1.15 -51.0 Q4.8 -51.7 8.35 -52.85 M-26.7 -63.3 L-26.8 -64.35 Q-26.55 -66.7 -24.2 -67.2 -21.65 -67.1 -21.45 -64.45 -21.35 -63.25 -22.4 -62.5 -18.85 -57.75 -13.75 -54.55 L-13.1 -53.75 Q-12.2 -51.7 -14.45 -51.3 -15.05 -51.2 -15.5 -51.6 L-17.3 -53.25 Q-22.35 -56.1 -25.6 -61.0 L-26.7 -63.3" fill="#666666" fill-rule="evenodd" stroke="none"/>
  </g>
</svg>
