<?xml version="1.0" encoding="UTF-8" standalone="no"?>
<svg xmlns:ffdec="https://www.free-decompiler.com/flash" xmlns:xlink="http://www.w3.org/1999/xlink" ffdec:objectType="shape" height="74.5px" width="40.7px" xmlns="http://www.w3.org/2000/svg">
  <g transform="matrix(1.0, 0.0, 0.0, 1.0, 25.1, 72.1)">
    <path d="M7.4 -52.5 Q9.15 -52.4 8.95 -50.75 8.8 -49.5 7.45 -49.45 L1.15 -49.8 Q1.45 -45.6 2.2 -41.45 L2.65 -37.75 Q3.65 -36.95 3.6 -35.4 L3.6 -35.3 Q4.45 -31.85 4.5 -28.15 4.55 -26.85 4.75 -25.55 L5.2 -21.3 5.25 -21.0 6.0 -19.65 7.05 -17.25 Q9.4 -12.6 11.35 -7.85 11.9 -6.5 12.85 -5.35 14.7 -3.05 15.55 -0.3 15.7 0.2 15.3 0.6 L14.75 1.1 Q14.55 2.65 12.35 2.35 L4.7 1.15 Q4.1 1.05 3.95 0.45 3.45 -1.45 5.4 -1.8 L11.5 -1.05 11.35 -1.3 11.1 -1.75 Q9.5 -3.95 8.25 -6.35 7.5 -7.75 6.9 -9.25 L4.55 -14.55 3.25 -17.05 Q2.65 -18.2 2.3 -19.5 1.65 -19.95 1.65 -20.8 1.7 -24.75 1.1 -28.55 L0.9 -30.5 0.75 -32.9 0.45 -33.0 -3.85 -26.8 -6.0 -23.9 -6.95 -22.2 -7.5 -20.95 -7.3 -19.6 -7.05 -17.0 Q-6.05 -11.95 -5.45 -6.85 L-4.85 -2.4 Q-4.65 -1.05 -5.4 -0.35 L-5.7 0.1 Q-6.7 1.2 -8.3 0.85 L-8.7 0.8 Q-11.75 1.3 -14.65 0.7 L-15.15 0.25 Q-15.8 -1.7 -13.75 -2.0 L-11.75 -2.3 -8.7 -2.6 -8.35 -2.65 Q-8.75 -7.6 -9.65 -12.35 L-11.0 -19.8 Q-11.15 -20.55 -10.9 -21.35 L-10.9 -21.4 Q-10.25 -23.95 -8.5 -25.95 -5.95 -30.3 -2.85 -34.4 L-0.9 -37.4 -0.7 -37.7 -1.65 -44.4 -2.3 -50.35 -4.25 -50.8 -6.3 -51.4 -8.9 -52.3 Q-10.65 -52.95 -10.55 -54.85 -10.45 -56.95 -8.35 -57.25 -5.6 -57.2 -5.1 -54.5 L-5.1 -54.4 -2.8 -53.9 -3.05 -54.85 -3.2 -55.8 -3.9 -63.4 Q-4.15 -65.75 -4.7 -68.05 -5.1 -69.9 -4.3 -71.45 L-3.35 -72.1 -3.1 -72.1 Q-1.25 -71.65 -1.25 -69.65 L-1.05 -67.05 Q-0.1 -61.95 0.1 -56.75 0.2 -54.95 0.7 -53.25 L7.4 -52.5 M-25.05 -62.25 Q-25.35 -64.8 -22.9 -65.4 -19.85 -65.05 -19.95 -61.95 -19.95 -61.2 -20.4 -60.6 -17.1 -56.6 -12.8 -53.85 L-11.9 -52.9 Q-10.85 -51.15 -12.9 -50.5 -13.7 -50.25 -14.4 -50.75 -18.7 -53.5 -22.15 -57.3 -23.75 -59.0 -24.7 -61.1 L-25.05 -62.25" fill="#666666" fill-rule="evenodd" stroke="none"/>
  </g>
</svg>
