<?xml version="1.0" encoding="UTF-8" standalone="no"?>
<svg xmlns:ffdec="https://www.free-decompiler.com/flash" xmlns:xlink="http://www.w3.org/1999/xlink" ffdec:objectType="shape" height="70.2px" width="32.35px" xmlns="http://www.w3.org/2000/svg">
  <g transform="matrix(1.0, 0.0, 0.0, 1.0, 17.15, 68.4)">
    <path d="M13.4 -53.15 Q12.5 -50.0 10.85 -47.25 9.15 -44.45 6.7 -42.3 5.5 -41.3 4.15 -40.9 L4.15 -40.55 Q4.2 -37.7 3.9 -34.95 5.05 -34.25 4.2 -32.55 L4.0 -32.15 Q3.85 -24.7 5.85 -17.8 6.2 -16.55 6.7 -15.4 9.4 -9.6 13.65 -4.9 15.05 -3.35 15.2 -1.35 15.35 0.8 13.15 1.3 L7.55 1.8 4.85 1.65 Q2.75 1.45 3.25 -0.5 3.55 -1.75 4.85 -1.85 L10.6 -2.2 Q5.4 -8.5 2.25 -16.1 1.1 -18.85 0.9 -21.9 L0.35 -28.8 -2.6 -25.85 -6.95 -21.2 Q-6.8 -15.85 -7.0 -10.65 -7.25 -5.15 -6.8 0.15 -6.8 0.55 -7.1 0.85 -7.65 1.3 -8.35 1.35 L-16.15 0.95 Q-16.75 0.8 -16.95 0.2 -17.7 -2.05 -15.4 -2.5 L-13.7 -2.55 -10.6 -2.45 Q-11.15 -7.7 -10.8 -13.0 -10.55 -17.2 -10.75 -21.4 -10.9 -23.5 -9.05 -24.65 L-7.85 -25.8 Q-4.55 -30.25 0.0 -33.4 L0.1 -33.6 Q0.5 -39.9 0.35 -46.25 0.15 -52.85 -2.25 -58.9 L-2.8 -59.75 Q-5.6 -63.1 -6.0 -67.2 L-5.8 -67.75 Q-5.2 -68.4 -4.4 -68.4 -1.7 -67.2 -1.05 -64.1 L-0.7 -63.5 Q2.55 -59.85 3.2 -54.95 L3.55 -51.65 4.0 -45.9 5.0 -45.8 Q7.2 -47.85 8.55 -50.5 9.35 -53.65 10.55 -56.45 10.75 -56.9 11.3 -56.95 L11.65 -57.0 Q14.25 -56.05 13.4 -53.15 M-10.6 -53.55 Q-8.45 -50.45 -5.95 -47.5 -3.2 -49.9 -0.95 -47.5 -0.6 -47.1 -0.6 -46.55 -0.85 -42.55 -5.1 -43.1 -8.25 -43.5 -10.1 -46.15 L-14.95 -52.95 Q-16.15 -54.6 -14.3 -55.55 L-13.7 -55.8 Q-11.8 -55.3 -10.6 -53.55" fill="#666666" fill-rule="evenodd" stroke="none"/>
  </g>
</svg>
