<?xml version="1.0" encoding="UTF-8" standalone="no"?>
<svg xmlns:ffdec="https://www.free-decompiler.com/flash" xmlns:xlink="http://www.w3.org/1999/xlink" ffdec:objectType="shape" height="70.4px" width="33.65px" xmlns="http://www.w3.org/2000/svg">
  <g transform="matrix(1.0, 0.0, 0.0, 1.0, 18.15, 68.65)">
    <path d="M13.35 -53.55 L11.35 -49.15 Q10.05 -46.2 8.05 -43.6 6.3 -41.3 4.05 -41.8 4.3 -37.45 4.0 -33.05 4.95 -32.05 4.65 -30.05 4.5 -29.35 4.5 -28.65 4.35 -24.15 5.4 -20.05 9.7 -13.35 13.5 -6.3 14.8 -3.85 15.45 -1.25 15.55 -0.9 15.3 -0.65 13.55 1.2 10.75 1.1 L9.3 1.35 Q7.05 2.3 5.15 1.1 4.35 0.6 4.65 -0.3 5.2 -1.95 7.1 -2.25 L10.8 -2.95 Q10.45 -3.2 10.35 -3.65 L10.25 -4.2 Q8.7 -6.7 7.4 -9.3 L7.35 -9.5 5.8 -11.85 5.65 -12.4 Q2.3 -16.75 1.3 -21.9 L1.0 -24.25 0.9 -27.6 -7.05 -18.4 -7.2 -18.0 -6.55 -4.7 Q-6.4 -1.75 -7.5 0.7 -7.7 1.15 -8.2 1.2 L-15.8 1.1 Q-18.9 0.95 -17.95 -1.6 -17.6 -2.5 -16.55 -2.45 -13.5 -2.25 -10.4 -2.45 -10.25 -8.05 -10.75 -13.55 -11.1 -17.2 -10.25 -20.6 -10.1 -21.3 -9.6 -21.8 -5.0 -26.3 -0.95 -31.15 -0.2 -32.1 0.75 -32.6 0.7 -38.95 0.15 -45.1 -1.25 -43.2 -4.1 -44.45 -8.9 -46.5 -13.25 -49.25 -15.3 -50.6 -15.5 -52.9 -15.6 -53.95 -14.5 -54.35 L-13.85 -54.55 Q-11.7 -53.65 -9.85 -52.0 L-8.1 -50.75 -4.15 -48.75 Q-1.55 -49.65 -0.1 -48.2 L-0.2 -49.3 Q-0.45 -53.05 -1.35 -56.6 -2.7 -62.15 -7.1 -66.2 -7.55 -66.65 -7.35 -67.3 -6.9 -68.6 -5.6 -68.65 -3.05 -67.75 -1.2 -65.5 L0.0 -63.55 0.1 -63.0 Q3.15 -57.5 3.4 -51.15 L3.7 -46.5 5.65 -46.85 Q8.2 -50.35 9.4 -54.5 L9.5 -54.7 Q9.75 -57.0 11.9 -57.45 L11.9 -57.5 Q14.7 -56.45 13.35 -53.55" fill="#666666" fill-rule="evenodd" stroke="none"/>
  </g>
</svg>
