<?xml version="1.0" encoding="UTF-8" standalone="no"?>
<svg xmlns:ffdec="https://www.free-decompiler.com/flash" xmlns:xlink="http://www.w3.org/1999/xlink" ffdec:objectType="shape" height="71.2px" width="32.55px" xmlns="http://www.w3.org/2000/svg">
  <g transform="matrix(1.0, 0.0, 0.0, 1.0, 17.0, 69.4)">
    <path d="M12.25 -53.25 Q8.45 -47.65 3.55 -43.1 L3.45 -42.95 3.45 -41.7 3.5 -33.0 Q3.9 -32.1 3.9 -30.85 3.95 -29.25 4.15 -27.6 4.7 -22.8 5.65 -18.1 L7.0 -15.9 7.15 -15.4 Q12.1 -8.95 15.4 -1.6 15.85 -0.6 15.1 0.3 14.7 0.7 14.2 0.65 L5.7 0.9 Q3.55 1.1 3.55 -0.9 3.55 -2.35 5.0 -2.55 L10.75 -2.95 2.25 -16.7 Q1.85 -17.4 1.7 -18.25 L0.1 -28.45 -4.45 -22.1 -6.1 -20.15 -7.45 -18.15 Q-6.75 -13.75 -6.65 -9.25 L-6.15 0.25 Q-6.1 0.9 -6.6 1.3 -7.1 1.8 -7.8 1.8 L-14.5 1.8 Q-17.0 1.75 -17.0 -0.45 -17.05 -1.7 -15.75 -2.0 L-13.45 -2.1 -9.9 -1.95 Q-10.65 -7.8 -10.75 -13.8 L-10.95 -18.0 Q-11.1 -21.05 -8.55 -23.1 -8.0 -23.5 -7.6 -24.05 -4.6 -27.8 -2.35 -32.0 -1.6 -33.4 -0.4 -34.05 L-0.3 -39.05 -0.35 -41.65 Q-1.3 -41.85 -2.25 -42.55 -2.95 -43.05 -2.75 -44.0 L-2.55 -44.7 Q-8.5 -45.0 -12.55 -49.85 L-14.05 -51.9 Q-14.9 -53.1 -13.8 -54.1 L-12.65 -54.55 Q-9.95 -53.6 -8.1 -51.15 -6.3 -48.9 -3.7 -49.15 L-0.8 -48.85 -1.3 -52.7 -1.4 -53.65 Q-1.6 -55.45 -2.1 -57.1 -3.1 -60.35 -4.55 -63.4 -5.6 -65.6 -5.8 -67.9 -5.85 -68.55 -5.3 -68.95 -4.75 -69.4 -4.15 -69.4 -1.7 -68.35 -0.9 -65.6 L-0.1 -63.4 Q1.35 -59.9 2.0 -56.25 2.75 -52.2 3.1 -48.05 5.15 -49.95 6.75 -52.4 8.5 -54.95 10.55 -57.15 L11.15 -57.45 11.15 -57.5 Q14.25 -56.15 12.25 -53.25" fill="#666666" fill-rule="evenodd" stroke="none"/>
  </g>
</svg>
