<?xml version="1.0" encoding="UTF-8" standalone="no"?>
<svg xmlns:ffdec="https://www.free-decompiler.com/flash" xmlns:xlink="http://www.w3.org/1999/xlink" ffdec:objectType="shape" height="69.25px" width="31.6px" xmlns="http://www.w3.org/2000/svg">
  <g transform="matrix(1.0, 0.0, 0.0, 1.0, 16.15, 67.65)">
    <path d="M11.45 -52.55 L9.9 -50.65 Q6.65 -47.4 2.75 -44.8 L2.95 -42.7 3.45 -37.55 3.7 -35.25 3.7 -33.75 Q4.4 -33.0 4.35 -31.55 L4.45 -30.45 Q5.85 -25.45 6.7 -20.4 L7.1 -17.35 7.75 -16.2 Q8.15 -15.0 8.85 -13.9 11.65 -9.55 14.0 -5.0 L14.35 -4.0 Q15.6 -2.45 15.4 -0.6 15.35 0.0 14.8 0.2 L14.5 0.3 Q13.65 1.45 12.15 1.15 L11.7 1.15 4.75 0.9 4.25 0.45 Q3.6 -1.5 5.7 -1.75 L8.65 -2.05 11.45 -2.25 Q9.55 -6.2 7.2 -9.8 L4.8 -13.95 Q4.35 -14.8 4.15 -15.75 L4.15 -15.9 4.0 -16.1 3.6 -17.35 Q2.95 -22.45 1.75 -27.45 L1.1 -30.3 Q-1.15 -28.5 -2.65 -26.0 L-4.0 -23.65 Q-5.45 -21.2 -7.15 -19.0 -6.95 -18.3 -7.05 -17.4 -7.25 -15.8 -7.0 -14.2 L-6.8 -12.25 -6.15 -4.55 Q-6.05 -2.55 -6.2 -0.6 -5.95 0.2 -6.4 0.7 -6.5 1.25 -7.05 1.4 L-8.25 1.5 -8.95 1.55 Q-12.4 1.8 -15.65 0.6 L-16.0 0.25 Q-16.6 -1.75 -14.55 -2.1 L-9.4 -1.7 -9.75 -6.5 -9.85 -8.1 -10.75 -18.4 Q-10.85 -19.55 -10.25 -20.15 L-10.0 -20.65 -4.5 -29.25 Q-3.0 -31.55 -0.9 -33.35 L0.35 -34.05 Q0.5 -37.6 -0.05 -41.2 L-0.3 -42.75 -0.3 -42.95 -0.65 -42.8 Q-3.4 -41.35 -4.9 -43.7 -5.4 -44.5 -5.15 -45.45 L-4.75 -46.45 Q-7.35 -46.75 -9.7 -47.85 L-12.7 -49.05 Q-14.2 -49.6 -14.1 -51.1 -14.0 -52.5 -12.6 -52.6 L-6.7 -50.35 -6.45 -50.25 Q-4.5 -52.55 -1.65 -51.3 L-2.0 -52.95 Q-3.1 -57.95 -4.85 -62.7 L-5.55 -65.45 Q-5.8 -67.35 -4.0 -67.65 -2.15 -67.1 -1.8 -65.1 L-1.2 -62.8 Q0.3 -57.9 1.4 -52.9 L2.2 -48.7 Q5.9 -51.35 8.9 -54.8 9.55 -55.5 10.45 -55.55 12.95 -54.75 11.45 -52.55" fill="#666666" fill-rule="evenodd" stroke="none"/>
  </g>
</svg>
