<?xml version="1.0" encoding="UTF-8" standalone="no"?>
<svg xmlns:ffdec="https://www.free-decompiler.com/flash" xmlns:xlink="http://www.w3.org/1999/xlink" ffdec:objectType="shape" height="71.75px" width="31.85px" xmlns="http://www.w3.org/2000/svg">
  <g transform="matrix(1.0, 0.0, 0.0, 1.0, 16.1, 69.9)">
    <path d="M7.85 -54.8 Q8.45 -55.3 9.15 -55.3 12.2 -54.75 10.6 -52.3 L9.8 -51.45 Q6.55 -48.8 2.95 -46.65 L3.3 -43.25 Q3.8 -38.05 3.7 -32.7 4.3 -31.7 4.2 -31.0 L4.35 -30.35 Q5.25 -25.0 6.5 -19.85 6.9 -18.25 7.65 -16.8 L11.8 -8.9 12.25 -7.6 15.55 -0.8 Q16.05 0.15 15.25 0.85 13.6 2.25 11.25 1.65 L5.4 1.05 Q4.5 1.05 4.2 0.2 3.55 -1.8 5.75 -2.35 L10.3 -2.45 Q8.5 -7.65 5.5 -12.4 1.65 -18.5 1.4 -25.75 1.35 -26.9 0.95 -27.9 L0.5 -29.45 Q-2.95 -25.55 -5.95 -21.25 L-6.75 -20.35 Q-5.9 -15.05 -5.55 -9.6 L-4.95 -0.1 Q-4.9 0.45 -5.4 0.8 L-6.4 1.05 -14.7 0.8 Q-15.85 0.75 -16.05 -0.4 -16.35 -2.0 -14.7 -2.2 L-8.7 -2.7 -9.75 -13.4 Q-10.25 -17.65 -10.2 -22.0 -10.15 -22.85 -9.55 -23.45 -8.2 -24.65 -7.1 -26.1 L-3.7 -30.65 Q-2.25 -32.65 -0.25 -33.8 L-0.2 -34.4 Q0.05 -36.2 0.0 -38.05 -0.1 -41.4 -0.5 -44.75 -3.05 -43.65 -5.25 -45.25 -5.85 -45.75 -5.75 -46.55 -5.3 -50.1 -1.35 -49.35 L-1.2 -49.3 -2.35 -56.25 Q-3.35 -60.45 -4.8 -64.55 L-5.7 -67.6 Q-6.15 -69.6 -4.15 -69.9 -1.9 -69.35 -1.2 -66.85 L-0.65 -64.9 Q1.3 -57.95 2.4 -50.85 L7.85 -54.8 M-14.6 -51.0 Q-14.0 -53.25 -11.85 -52.25 L-10.65 -52.2 Q-10.05 -53.85 -8.45 -54.55 L-7.55 -54.8 Q-3.8 -54.5 -4.9 -50.85 -5.65 -48.4 -8.35 -48.1 -11.7 -47.75 -14.15 -49.6 -14.85 -50.1 -14.6 -51.0" fill="#666666" fill-rule="evenodd" stroke="none"/>
  </g>
</svg>
