<?xml version="1.0" encoding="UTF-8" standalone="no"?>
<svg xmlns:ffdec="https://www.free-decompiler.com/flash" xmlns:xlink="http://www.w3.org/1999/xlink" ffdec:objectType="shape" height="74.25px" width="32.3px" xmlns="http://www.w3.org/2000/svg">
  <g transform="matrix(1.0, 0.0, 0.0, 1.0, 16.25, 72.3)">
    <path d="M8.85 -53.8 Q9.75 -53.8 10.05 -52.95 10.7 -50.9 8.45 -50.6 L1.45 -49.9 4.0 -37.1 4.15 -35.75 Q4.95 -34.65 4.65 -32.8 4.45 -31.7 4.6 -30.6 L5.3 -23.5 Q5.55 -21.2 6.35 -19.05 L6.65 -18.4 13.65 -5.55 15.75 -1.55 Q16.55 0.0 15.1 1.05 L14.25 1.3 Q10.25 0.9 6.4 1.85 4.05 2.4 3.9 0.2 3.8 -1.25 5.4 -1.7 L11.0 -2.45 Q8.6 -7.8 5.4 -12.65 3.2 -15.9 2.2 -19.65 L1.85 -21.35 Q1.15 -25.6 1.0 -29.9 L-5.65 -22.05 Q-7.0 -20.3 -6.5 -18.05 -6.05 -16.3 -5.9 -14.45 L-4.75 -3.55 Q-4.45 -1.45 -5.5 0.2 -5.9 0.8 -6.65 0.8 L-14.7 0.55 Q-15.85 0.5 -16.05 -0.65 -16.35 -2.25 -14.7 -2.45 L-8.65 -2.95 -9.55 -13.85 -9.95 -16.4 Q-10.8 -20.3 -9.15 -23.6 L-7.0 -26.85 -2.55 -31.65 0.4 -34.45 0.4 -34.75 Q0.5 -36.8 0.05 -38.8 L-1.4 -46.05 -2.1 -49.75 -8.75 -49.8 Q-10.7 -49.9 -10.9 -51.6 -11.1 -53.25 -10.3 -54.2 L-11.1 -53.9 -12.05 -53.7 Q-10.5 -51.85 -11.4 -49.8 -11.65 -49.2 -12.3 -49.15 -14.6 -49.0 -15.45 -51.25 L-16.2 -54.1 Q-16.7 -58.35 -12.65 -59.45 -9.0 -59.35 -9.35 -55.8 -9.4 -55.1 -9.75 -54.65 -9.0 -55.15 -7.8 -55.3 -5.05 -55.95 -4.3 -53.65 L-4.25 -53.55 -2.8 -53.55 -3.7 -58.95 -4.2 -62.45 Q-4.6 -66.4 -5.5 -70.15 -5.9 -71.75 -4.25 -72.25 L-3.9 -72.3 Q-1.35 -71.6 -1.2 -68.65 -1.0 -65.15 -0.4 -61.75 0.7 -57.75 1.15 -53.6 L8.85 -53.8" fill="#666666" fill-rule="evenodd" stroke="none"/>
  </g>
</svg>
