<?xml version="1.0" encoding="UTF-8" standalone="no"?>
<svg xmlns:ffdec="https://www.free-decompiler.com/flash" xmlns:xlink="http://www.w3.org/1999/xlink" ffdec:objectType="shape" height="75.0px" width="37.9px" xmlns="http://www.w3.org/2000/svg">
  <g transform="matrix(1.0, 0.0, 0.0, 1.0, 21.9, 72.6)">
    <path d="M2.3 -50.2 Q2.55 -43.5 3.25 -36.85 4.05 -36.3 3.8 -34.95 L3.75 -34.75 Q3.8 -29.5 4.3 -24.35 4.35 -23.4 4.8 -22.6 8.35 -16.05 11.4 -9.35 12.3 -7.35 13.35 -5.5 L15.25 -2.75 15.9 -1.45 Q16.4 0.6 14.7 1.75 L14.0 2.0 6.2 2.4 Q5.35 2.45 4.6 2.0 2.65 0.75 4.15 -1.0 4.55 -1.45 5.15 -1.5 L11.4 -1.7 Q7.15 -8.25 4.0 -15.55 L3.2 -17.75 Q2.1 -18.7 1.6 -19.95 L1.55 -20.3 Q-0.15 -25.95 0.05 -32.1 -3.05 -28.65 -5.65 -24.75 -6.15 -23.95 -7.0 -23.5 L-7.95 -22.15 Q-7.2 -21.2 -7.3 -19.55 L-7.25 -17.75 Q-6.85 -14.2 -6.75 -10.45 L-6.6 -9.15 -4.55 -1.45 Q-3.6 2.3 -7.45 2.1 L-14.9 1.2 Q-15.35 1.15 -15.45 0.7 -16.2 -1.55 -13.85 -2.0 L-10.5 -2.1 -8.6 -1.95 Q-10.7 -8.7 -11.05 -15.8 L-11.15 -16.9 Q-11.4 -18.5 -11.25 -20.05 -13.35 -21.1 -11.85 -23.15 L-7.65 -28.85 -3.0 -34.55 Q-1.9 -35.9 -0.6 -36.75 L-1.2 -49.05 -1.35 -51.7 Q-4.85 -52.95 -8.25 -54.5 -10.75 -55.6 -11.35 -58.15 -11.95 -60.75 -9.5 -61.35 -5.55 -61.5 -6.0 -57.85 L-6.05 -57.65 Q-4.1 -56.35 -1.85 -55.55 L-1.95 -56.1 Q-2.7 -59.8 -4.15 -63.25 -4.65 -64.4 -4.8 -65.6 -6.6 -68.8 -5.3 -71.95 -5.1 -72.45 -4.5 -72.55 L-4.15 -72.6 Q-1.75 -71.55 -1.8 -68.6 L-1.7 -68.05 Q1.05 -61.55 1.95 -54.6 6.2 -53.7 9.7 -51.55 L9.9 -51.15 Q9.95 -48.45 6.9 -49.2 L2.3 -50.45 2.3 -50.2 M-21.9 -58.45 Q-21.9 -62.2 -18.55 -63.55 -14.9 -63.2 -16.35 -59.75 -16.8 -58.55 -18.1 -58.45 -17.35 -54.95 -14.0 -52.9 -12.45 -51.95 -11.6 -50.5 -11.1 -49.65 -11.85 -48.95 -13.35 -47.45 -15.2 -48.7 -19.35 -51.65 -21.4 -56.15 -21.9 -57.2 -21.9 -58.45" fill="#666666" fill-rule="evenodd" stroke="none"/>
  </g>
</svg>
