<?xml version="1.0" encoding="UTF-8" standalone="no"?>
<svg xmlns:ffdec="https://www.free-decompiler.com/flash" xmlns:xlink="http://www.w3.org/1999/xlink" ffdec:objectType="shape" height="66.4px" width="36.85px" xmlns="http://www.w3.org/2000/svg">
  <g transform="matrix(1.0, 0.0, 0.0, 1.0, 21.0, 67.35)">
    <path d="M3.2 -64.35 L-1.4 -55.1 -5.55 -46.45 -7.2 -42.6 Q-7.85 -40.85 -8.95 -39.25 -8.3 -38.55 -8.25 -37.25 -8.15 -32.0 -5.8 -27.35 L-3.45 -23.1 -3.15 -22.45 5.15 -20.0 Q9.7 -18.55 14.15 -16.9 15.4 -16.45 15.7 -15.55 16.1 -14.75 15.4 -13.45 L14.05 -10.65 12.3 -6.6 Q11.85 -5.7 10.85 -5.95 9.05 -6.35 9.4 -8.2 L10.2 -10.5 Q10.6 -12.4 11.55 -13.95 L9.3 -14.9 -0.65 -17.95 -3.75 -18.85 Q-5.0 -19.2 -5.95 -19.95 L-6.2 -20.25 -7.05 -21.5 -8.5 -24.55 Q-10.7 -28.55 -11.3 -33.0 L-13.8 -27.6 -15.6 -24.4 -17.05 -22.2 Q-15.8 -21.25 -14.9 -19.8 -13.05 -16.7 -10.9 -13.85 L-7.9 -9.75 Q-7.4 -9.05 -7.85 -8.3 L-8.1 -7.4 -8.7 -6.6 Q-11.15 -4.35 -12.75 -1.5 -13.0 -1.1 -13.45 -1.0 -16.05 -0.6 -16.15 -3.0 -16.15 -3.6 -15.65 -3.95 -14.65 -4.6 -14.1 -5.65 -13.4 -7.05 -12.35 -8.25 L-11.6 -8.95 -13.6 -11.3 -18.5 -18.3 -19.2 -19.05 -20.3 -20.25 Q-21.25 -20.75 -20.95 -22.2 L-20.3 -23.95 -17.45 -28.45 Q-15.95 -30.65 -15.1 -33.25 L-13.8 -36.75 -13.1 -38.15 -13.0 -38.95 -12.0 -41.35 Q-10.25 -44.25 -9.05 -47.45 L-7.95 -49.8 Q-5.45 -54.35 -3.35 -59.05 L-2.35 -61.35 Q-1.0 -64.25 0.8 -66.8 1.1 -67.2 1.65 -67.3 L1.9 -67.35 Q4.4 -66.6 3.2 -64.35 M9.75 -47.65 L4.85 -42.35 Q3.15 -40.6 0.9 -39.6 -1.2 -38.65 -3.15 -39.8 -3.6 -40.05 -3.7 -40.6 -4.15 -43.15 -1.5 -43.6 L0.35 -43.65 0.8 -43.75 Q3.9 -46.0 6.05 -49.15 7.1 -50.7 8.8 -51.1 11.25 -50.7 10.3 -48.55 L9.75 -47.65 M-11.6 -51.55 L-12.05 -50.65 Q-14.05 -48.0 -15.1 -44.8 L-16.35 -39.55 -16.5 -38.25 Q-14.0 -36.0 -16.15 -33.55 -16.55 -33.1 -17.15 -33.05 -20.05 -32.95 -20.1 -35.7 -20.2 -40.6 -18.8 -45.3 L-17.2 -49.4 Q-15.95 -52.1 -13.65 -53.7 L-13.25 -53.9 Q-11.0 -53.65 -11.6 -51.55" fill="#666666" fill-rule="evenodd" stroke="none"/>
  </g>
</svg>
