<?xml version="1.0" encoding="UTF-8" standalone="no"?>
<svg xmlns:ffdec="https://www.free-decompiler.com/flash" xmlns:xlink="http://www.w3.org/1999/xlink" ffdec:objectType="shape" height="62.25px" width="40.5px" xmlns="http://www.w3.org/2000/svg">
  <g transform="matrix(1.0, 0.0, 0.0, 1.0, 26.1, 62.3)">
    <path d="M4.0 -59.25 L1.6 -54.6 Q-0.65 -50.0 -2.1 -45.1 L-3.45 -40.9 -3.8 -40.1 -5.4 -35.65 -5.6 -34.95 Q-5.15 -34.3 -5.5 -33.15 -6.1 -31.0 -6.05 -28.65 L-5.65 -18.35 -5.4 -16.4 3.45 -15.65 10.2 -14.25 11.95 -13.65 12.25 -13.75 12.5 -13.75 Q14.8 -13.0 14.35 -10.35 L14.05 -7.25 Q13.95 -5.15 12.8 -3.45 12.65 -3.2 12.35 -3.2 9.95 -3.0 10.25 -5.4 L10.5 -9.15 10.6 -10.4 3.1 -12.15 -3.35 -12.75 -6.55 -13.0 -7.3 -13.05 Q-9.0 -13.45 -9.0 -15.3 L-9.15 -20.45 Q-9.5 -25.35 -9.5 -30.3 L-13.25 -26.65 Q-16.05 -23.25 -19.1 -19.95 L-19.6 -19.4 -19.2 -18.95 -11.2 -12.6 -7.85 -9.9 Q-5.95 -9.45 -6.7 -7.55 L-7.4 -6.4 -12.5 -1.05 -13.25 -0.45 Q-14.9 0.65 -15.75 -1.1 -16.3 -2.1 -15.6 -3.05 -14.15 -5.1 -12.15 -6.8 L-10.95 -7.85 -18.65 -13.75 Q-20.9 -15.5 -22.9 -17.65 -23.9 -18.7 -23.7 -19.65 L-23.7 -19.85 Q-23.45 -21.3 -22.2 -22.2 L-21.2 -23.1 -14.15 -30.65 -10.25 -34.75 -9.4 -35.35 -8.95 -36.7 Q-7.0 -41.55 -5.4 -46.35 -3.75 -51.25 -1.7 -56.0 L-1.25 -56.95 Q-0.3 -59.15 1.0 -61.2 1.65 -62.2 2.75 -62.3 5.3 -61.55 4.0 -59.25 M-14.45 -51.6 L-14.15 -51.65 Q-11.9 -51.15 -12.8 -49.05 -13.4 -47.7 -14.55 -46.75 -18.2 -43.8 -21.3 -40.25 -20.2 -37.2 -23.2 -35.85 -24.0 -35.45 -24.8 -35.85 -26.5 -36.75 -26.0 -38.6 -25.4 -40.95 -23.85 -42.8 -20.25 -47.0 -15.85 -50.5 -15.45 -51.45 -14.45 -51.6" fill="#666666" fill-rule="evenodd" stroke="none"/>
  </g>
</svg>
