<?xml version="1.0" encoding="UTF-8" standalone="no"?>
<svg xmlns:ffdec="https://www.free-decompiler.com/flash" xmlns:xlink="http://www.w3.org/1999/xlink" ffdec:objectType="shape" height="62.8px" width="43.95px" xmlns="http://www.w3.org/2000/svg">
  <g transform="matrix(1.0, 0.0, 0.0, 1.0, 28.65, 63.85)">
    <path d="M6.6 -61.35 Q5.1 -56.3 2.6 -51.75 L0.3 -47.05 -1.8 -42.25 Q-3.85 -37.5 -5.3 -32.65 L-5.35 -32.35 Q-5.2 -31.75 -5.3 -30.9 L-5.25 -30.25 Q-3.95 -25.2 -4.45 -19.9 L-4.75 -17.35 -4.7 -16.45 -4.65 -15.95 1.6 -15.35 11.7 -14.1 Q13.3 -13.8 14.65 -13.05 15.15 -12.75 15.2 -12.25 15.5 -11.5 14.95 -10.3 L13.05 -6.1 Q12.6 -5.05 11.75 -4.3 L9.85 -4.2 Q8.65 -5.05 9.2 -6.4 L11.05 -10.6 3.9 -11.55 0.95 -11.75 -6.35 -12.55 Q-7.4 -12.7 -7.85 -13.4 -8.4 -13.95 -8.3 -15.0 -8.0 -20.15 -8.0 -25.3 -8.0 -26.5 -8.35 -27.6 L-8.55 -28.5 Q-11.6 -25.95 -13.85 -22.65 -15.9 -19.7 -18.45 -17.25 -15.15 -15.9 -12.05 -14.15 -8.45 -12.1 -4.65 -10.35 -3.75 -9.95 -3.2 -9.1 -2.65 -8.7 -2.7 -8.0 -2.55 -7.25 -3.05 -6.8 -3.5 -6.15 -4.35 -5.8 L-6.8 -4.65 -12.1 -1.25 -12.95 -1.15 Q-15.15 -1.85 -13.95 -3.85 L-12.95 -4.95 -8.8 -7.7 -8.2 -8.05 -10.5 -9.25 -16.5 -12.3 -21.95 -14.9 Q-23.4 -15.55 -23.1 -16.8 L-22.75 -17.8 -21.65 -19.2 Q-19.7 -21.05 -18.1 -23.25 L-16.05 -26.0 Q-13.0 -29.8 -8.95 -32.65 L-8.4 -35.4 -6.85 -39.15 -3.05 -48.35 -1.95 -50.6 Q0.5 -55.15 2.1 -59.95 2.7 -61.6 3.6 -63.1 4.05 -63.85 4.9 -63.85 7.2 -63.45 6.6 -61.35 M-9.95 -50.05 Q-10.0 -48.85 -11.2 -48.55 -16.2 -47.2 -20.6 -44.45 L-22.95 -43.15 Q-22.65 -40.4 -25.55 -39.7 -27.95 -39.1 -28.5 -41.25 -29.05 -43.15 -27.45 -44.35 L-22.4 -47.65 Q-17.6 -50.5 -12.4 -52.0 -9.85 -52.3 -9.95 -50.05" fill="#666666" fill-rule="evenodd" stroke="none"/>
  </g>
</svg>
