<?xml version="1.0" encoding="UTF-8" standalone="no"?>
<svg xmlns:ffdec="https://www.free-decompiler.com/flash" xmlns:xlink="http://www.w3.org/1999/xlink" ffdec:objectType="shape" height="57.15px" width="42.2px" xmlns="http://www.w3.org/2000/svg">
  <g transform="matrix(1.0, 0.0, 0.0, 1.0, 28.75, 58.4)">
    <path d="M6.95 -56.05 L6.55 -54.85 Q5.0 -51.25 2.65 -48.2 -0.35 -44.35 -1.8 -39.8 L-2.6 -37.25 Q-3.8 -33.45 -5.6 -29.85 L-5.6 -29.35 Q-4.55 -28.45 -4.85 -26.55 L-5.0 -24.5 -4.85 -14.35 3.65 -13.2 8.75 -12.55 11.45 -12.2 Q12.95 -11.95 13.1 -10.95 13.6 -10.1 13.4 -8.75 13.25 -7.6 13.4 -6.45 13.6 -4.55 12.5 -3.2 12.0 -2.65 11.3 -2.85 9.45 -3.35 9.65 -5.35 L9.7 -8.85 Q5.2 -9.15 0.85 -10.15 L-3.6 -10.6 -6.3 -10.9 -6.95 -10.95 Q-8.7 -11.35 -8.6 -13.2 L-8.5 -18.45 -8.4 -25.3 -9.15 -24.65 Q-12.7 -20.9 -15.75 -16.8 L-17.45 -14.7 Q-14.1 -13.65 -10.9 -12.15 -7.4 -10.55 -3.85 -9.1 L-3.8 -9.1 Q-2.45 -8.95 -2.1 -8.15 L-2.1 -8.05 -2.05 -7.75 Q-1.9 -6.65 -2.55 -6.15 L-3.25 -5.55 Q-7.15 -3.15 -11.25 -1.3 L-11.65 -1.3 Q-13.5 -2.15 -12.5 -3.95 L-11.35 -5.1 -7.8 -6.95 Q-11.35 -8.35 -14.8 -9.9 L-18.05 -11.1 Q-19.7 -11.55 -21.05 -12.4 -21.85 -12.7 -22.05 -13.3 L-22.15 -14.1 -22.0 -14.6 -22.0 -14.7 Q-21.65 -15.75 -20.75 -16.4 L-14.35 -24.4 -12.65 -26.2 Q-10.85 -28.0 -9.35 -29.9 L-8.65 -30.65 -8.65 -30.75 -8.0 -33.25 Q-6.5 -36.7 -5.35 -40.35 -3.8 -45.35 -0.75 -49.6 0.8 -51.75 1.95 -54.05 L4.05 -57.85 4.7 -58.25 5.15 -58.4 Q7.55 -58.25 6.95 -56.05 M-10.4 -50.45 Q-9.5 -49.65 -10.05 -48.6 -10.5 -47.7 -11.55 -47.65 L-21.8 -46.2 -23.0 -45.95 Q-24.7 -43.15 -27.6 -44.75 -29.2 -45.6 -28.6 -47.45 -28.15 -48.75 -26.7 -49.0 L-16.5 -50.7 -14.95 -50.9 -13.25 -51.1 Q-11.55 -51.55 -10.4 -50.45" fill="#666666" fill-rule="evenodd" stroke="none"/>
  </g>
</svg>
