<?xml version="1.0" encoding="UTF-8" standalone="no"?>
<svg xmlns:ffdec="https://www.free-decompiler.com/flash" xmlns:xlink="http://www.w3.org/1999/xlink" ffdec:objectType="shape" height="57.45px" width="53.5px" xmlns="http://www.w3.org/2000/svg">
  <g transform="matrix(1.0, 0.0, 0.0, 1.0, 24.65, 57.65)">
    <path d="M28.85 -53.15 Q28.8 -47.9 26.1 -43.4 L23.6 -39.4 Q23.2 -38.7 22.45 -38.3 20.85 -37.4 20.1 -39.0 19.55 -40.15 20.3 -41.2 22.45 -44.1 24.15 -47.35 L24.75 -49.4 25.0 -50.45 Q23.15 -52.8 24.65 -55.45 L25.5 -56.15 26.25 -56.3 Q28.85 -55.9 28.85 -53.15 M7.6 -49.15 Q8.1 -49.75 8.8 -49.75 11.2 -49.15 10.1 -46.95 L9.2 -45.45 6.2 -41.45 Q2.95 -37.55 0.3 -33.2 L-2.5 -29.0 -4.0 -26.35 Q-4.45 -25.2 -5.05 -24.2 L-5.15 -23.75 -5.3 -22.35 Q-5.3 -17.15 -5.45 -11.9 L-5.45 -9.85 11.35 -9.15 Q11.9 -9.1 12.2 -8.65 L15.75 -3.6 Q16.65 -2.4 16.1 -1.1 15.55 0.15 14.2 -0.3 13.05 -0.65 12.35 -1.75 L9.8 -5.8 -0.4 -6.15 Q-0.4 -5.8 -0.55 -5.35 -0.95 -4.25 -2.15 -3.85 -5.8 -2.7 -9.1 -0.85 -9.45 -0.65 -9.85 -0.85 -11.95 -1.85 -10.5 -3.65 L-9.25 -4.8 -8.55 -5.15 -8.15 -5.35 Q-12.95 -6.5 -17.9 -6.8 L-20.25 -7.05 -21.05 -7.15 -22.45 -7.1 Q-23.45 -7.25 -24.1 -8.15 L-24.4 -8.65 -24.35 -8.5 -24.6 -9.6 -24.6 -9.35 Q-24.75 -10.15 -24.3 -10.6 -24.3 -11.7 -23.15 -12.1 L-23.0 -12.15 -18.0 -16.85 -15.5 -19.2 -11.7 -22.7 -9.7 -24.75 -8.2 -25.95 -7.85 -26.9 Q-5.75 -31.25 -2.9 -35.2 L-1.8 -36.75 3.1 -43.4 7.6 -49.15 M-15.0 -54.45 L-12.65 -52.6 -10.3 -51.1 Q-7.75 -49.65 -9.7 -47.75 -10.05 -47.35 -10.6 -47.45 -12.15 -47.8 -13.4 -48.7 -16.45 -50.95 -19.6 -53.0 L-23.25 -52.85 Q-24.1 -53.15 -24.35 -54.1 -24.95 -57.0 -22.2 -57.65 -18.25 -57.0 -15.0 -54.45 M-24.3 -10.45 L-24.3 -10.55 -24.4 -10.35 -24.45 -10.2 -24.3 -10.45 M-8.75 -20.5 L-11.15 -18.25 -18.75 -11.2 -19.4 -10.6 -12.8 -9.7 -8.95 -9.15 -8.95 -9.8 Q-8.7 -15.0 -8.75 -20.25 L-8.75 -20.5 M-19.4 -10.6 L-19.5 -10.65 -19.5 -10.5 -19.4 -10.6" fill="#666666" fill-rule="evenodd" stroke="none"/>
  </g>
</svg>
