<?xml version="1.0" encoding="UTF-8" standalone="no"?>
<svg xmlns:ffdec="https://www.free-decompiler.com/flash" xmlns:xlink="http://www.w3.org/1999/xlink" ffdec:objectType="shape" height="60.4px" width="55.2px" xmlns="http://www.w3.org/2000/svg">
  <g transform="matrix(1.0, 0.0, 0.0, 1.0, 24.2, 60.1)">
    <path d="M30.95 -51.65 Q30.7 -49.7 29.95 -47.9 L29.15 -44.95 28.8 -44.3 Q27.3 -40.8 24.65 -37.85 L23.9 -37.05 Q23.15 -34.95 21.1 -36.15 20.65 -36.4 20.55 -36.95 20.2 -38.55 21.4 -39.65 24.25 -42.8 25.8 -46.7 L26.1 -47.55 27.0 -50.25 Q25.6 -52.8 27.85 -54.55 L28.75 -54.95 Q31.3 -54.35 30.95 -51.65 M8.45 -46.3 Q11.05 -46.05 10.1 -43.75 L9.55 -42.9 6.4 -38.75 Q4.05 -35.25 1.1 -32.2 L-4.75 -24.25 -5.9 -22.75 Q-5.3 -21.85 -5.55 -20.35 L-5.7 -18.95 -5.55 -8.5 -5.55 -8.15 -3.9 -7.95 -3.6 -8.05 -2.95 -7.9 4.2 -7.85 4.7 -7.85 11.55 -7.45 12.05 -7.55 12.95 -7.2 13.25 -7.0 14.25 -5.75 14.65 -5.25 Q16.9 -3.55 17.05 -0.95 17.05 -0.5 16.7 -0.25 14.85 1.1 13.45 -0.9 L11.9 -2.75 Q11.3 -3.35 10.95 -4.05 L10.05 -4.05 3.85 -4.35 3.5 -4.35 -3.65 -4.3 -4.7 -3.8 Q-7.05 -2.55 -9.3 -1.0 -10.4 -0.25 -11.6 -0.35 -12.95 -0.45 -13.0 -1.75 -13.05 -3.6 -11.1 -4.35 -10.6 -4.55 -10.15 -4.85 L-9.75 -5.1 -11.55 -5.3 -21.7 -6.05 Q-23.05 -6.15 -23.7 -7.0 L-24.05 -7.65 Q-24.4 -8.4 -23.95 -9.0 L-23.3 -10.25 Q-20.0 -14.15 -16.25 -17.65 L-10.4 -22.95 -9.45 -23.7 -9.4 -23.85 Q-8.95 -25.05 -8.1 -26.05 L-5.0 -30.05 1.5 -38.3 4.45 -42.35 Q5.9 -44.65 8.05 -46.1 L8.45 -46.3 M-10.3 -54.3 Q-8.55 -51.45 -8.25 -48.15 -8.05 -46.4 -9.85 -46.25 -10.85 -46.15 -11.2 -47.1 L-12.0 -49.1 -13.4 -52.2 Q-14.3 -54.05 -16.0 -55.3 -18.55 -53.8 -20.3 -56.05 -20.65 -56.55 -20.7 -57.15 -20.95 -59.65 -18.5 -60.1 -13.1 -58.9 -10.3 -54.3 M-9.2 -19.05 L-11.6 -17.0 -17.25 -11.5 -19.1 -9.5 -12.8 -8.95 -9.15 -8.6 -9.25 -16.2 -9.2 -19.05" fill="#666666" fill-rule="evenodd" stroke="none"/>
  </g>
</svg>
