<?xml version="1.0" encoding="UTF-8" standalone="no"?>
<svg xmlns:ffdec="https://www.free-decompiler.com/flash" xmlns:xlink="http://www.w3.org/1999/xlink" ffdec:objectType="shape" height="61.8px" width="58.7px" xmlns="http://www.w3.org/2000/svg">
  <g transform="matrix(1.0, 0.0, 0.0, 1.0, 26.1, 59.6)">
    <path d="M29.8 -50.65 Q32.7 -50.65 32.6 -47.75 32.45 -43.7 30.65 -40.1 29.95 -35.65 27.75 -31.8 L27.15 -30.6 Q26.45 -28.9 24.7 -29.8 23.95 -30.25 24.0 -31.1 24.2 -33.25 25.55 -35.0 L25.9 -36.3 26.5 -37.6 Q27.05 -41.15 28.4 -44.6 L28.7 -45.45 28.8 -45.85 Q26.9 -47.9 28.65 -50.05 29.1 -50.6 29.8 -50.65 M12.05 -39.95 Q14.5 -39.25 13.35 -37.0 L12.6 -36.1 8.65 -32.6 Q5.05 -28.85 0.9 -25.75 L-5.2 -20.85 -5.7 -20.1 -5.75 -18.85 -6.2 -16.35 Q-6.4 -13.8 -7.15 -11.3 L-7.75 -9.1 1.5 -8.95 8.95 -8.6 9.65 -8.8 10.3 -8.5 11.05 -7.95 Q11.8 -7.15 12.15 -5.8 12.25 -5.25 12.6 -4.8 L14.2 -2.2 Q14.65 -1.45 14.1 -0.8 12.85 0.7 11.35 -0.65 L9.55 -2.65 Q8.6 -4.0 8.3 -5.5 4.6 -5.4 0.95 -5.55 -3.15 -5.7 -7.2 -5.45 -7.0 -4.6 -7.6 -4.1 -8.0 -3.2 -8.75 -2.55 L-13.45 1.65 Q-15.0 2.9 -16.05 1.2 -16.65 0.3 -15.95 -0.55 L-13.5 -3.1 -16.95 -3.15 -21.3 -3.25 Q-22.95 -3.25 -24.4 -3.85 -25.4 -3.8 -25.8 -4.6 L-26.1 -5.25 -25.9 -6.3 -25.3 -7.3 -21.45 -10.85 -13.75 -17.75 -7.9 -23.0 -6.95 -24.15 -4.05 -26.4 3.95 -33.0 7.6 -36.35 10.4 -39.1 11.1 -39.6 12.05 -39.95 M-7.8 -56.75 L-6.3 -51.75 -3.95 -44.25 -3.7 -43.15 Q-3.5 -42.3 -3.9 -41.55 -4.8 -39.95 -6.45 -40.9 -7.35 -41.45 -7.35 -42.6 -7.3 -43.85 -7.75 -45.05 L-8.7 -47.8 -10.75 -54.15 Q-13.85 -55.25 -13.0 -58.35 -12.85 -59.0 -12.2 -59.3 L-11.2 -59.6 Q-8.5 -59.45 -7.8 -56.75 M-9.5 -16.9 L-16.45 -10.65 -20.5 -6.75 Q-17.65 -6.55 -14.8 -6.75 L-11.65 -6.8 -11.7 -8.0 -10.35 -13.05 Q-9.7 -14.8 -9.55 -16.65 L-9.5 -16.9" fill="#666666" fill-rule="evenodd" stroke="none"/>
  </g>
</svg>
