<?xml version="1.0" encoding="UTF-8" standalone="no"?>
<svg xmlns:ffdec="https://www.free-decompiler.com/flash" xmlns:xlink="http://www.w3.org/1999/xlink" ffdec:objectType="shape" height="58.5px" width="61.9px" xmlns="http://www.w3.org/2000/svg">
  <g transform="matrix(1.0, 0.0, 0.0, 1.0, 29.0, 56.0)">
    <path d="M30.15 -47.05 Q33.0 -46.95 32.9 -44.0 32.7 -39.8 31.4 -35.9 30.4 -31.3 28.6 -26.95 27.6 -24.55 25.5 -26.0 25.1 -26.3 25.0 -26.8 24.85 -27.7 25.35 -28.45 27.1 -32.8 28.1 -37.4 L29.15 -42.05 Q26.85 -44.1 29.05 -46.45 29.5 -47.0 30.15 -47.05 M13.0 -34.3 Q15.3 -33.9 14.5 -31.85 L13.75 -30.7 Q10.35 -27.2 6.45 -24.2 L5.85 -23.7 Q2.25 -19.95 -2.35 -17.65 -3.7 -17.0 -5.1 -16.5 L-5.4 -15.7 Q-6.35 -13.75 -7.5 -11.95 L-9.25 -9.1 -9.65 -8.15 -6.55 -8.05 9.8 -7.4 Q10.9 -7.35 11.3 -6.3 12.3 -3.95 14.2 -2.15 15.15 -1.25 14.45 -0.15 13.5 1.45 11.85 0.4 L11.5 0.15 11.4 0.05 Q9.5 -1.8 8.3 -4.05 L-6.9 -4.55 Q-6.85 -3.6 -7.85 -2.8 L-14.0 2.35 -14.55 2.5 Q-16.6 2.2 -16.15 0.25 -15.95 -0.55 -15.35 -1.1 L-13.05 -3.05 -21.35 -3.35 -22.0 -3.35 -26.85 -3.65 -27.35 -3.75 -28.0 -3.85 Q-29.8 -5.0 -28.4 -6.55 L-26.65 -8.15 -18.55 -13.5 Q-13.9 -16.15 -9.1 -18.25 L-8.5 -18.85 -6.5 -19.9 Q-1.5 -21.6 2.3 -25.15 L8.2 -30.5 11.9 -33.85 Q12.25 -34.15 12.7 -34.25 L13.0 -34.3 M-4.15 -53.1 L-3.45 -47.95 Q-2.45 -42.85 -2.0 -37.7 -1.95 -37.05 -2.45 -36.65 -4.15 -35.35 -5.2 -37.2 L-5.55 -38.15 Q-6.05 -43.3 -7.05 -48.35 L-7.55 -51.1 Q-10.2 -52.7 -8.65 -55.25 L-7.65 -55.95 -7.4 -56.0 Q-4.45 -56.05 -4.15 -53.1 M-21.2 -6.75 L-15.35 -6.6 -14.35 -6.6 Q-14.4 -7.9 -13.4 -9.15 L-12.55 -10.35 -10.6 -13.6 -16.5 -10.45 -21.05 -7.6 -22.3 -6.8 -21.2 -6.75" fill="#666666" fill-rule="evenodd" stroke="none"/>
  </g>
</svg>
