<?xml version="1.0" encoding="UTF-8" standalone="no"?>
<svg xmlns:ffdec="https://www.free-decompiler.com/flash" xmlns:xlink="http://www.w3.org/1999/xlink" ffdec:objectType="shape" height="55.4px" width="62.45px" xmlns="http://www.w3.org/2000/svg">
  <g transform="matrix(1.0, 0.0, 0.0, 1.0, 30.15, 52.75)">
    <path d="M29.45 -42.7 Q31.95 -42.3 32.2 -39.7 32.4 -37.9 32.1 -36.2 L30.25 -26.15 29.6 -23.7 Q29.75 -21.65 28.2 -20.6 L27.2 -20.5 Q25.6 -21.15 26.0 -22.95 L27.5 -30.6 28.6 -38.2 Q26.45 -40.3 28.65 -42.35 29.0 -42.7 29.45 -42.7 M15.65 -27.4 Q15.4 -26.75 14.75 -26.35 L9.8 -23.6 7.3 -22.2 Q2.9 -19.6 -1.35 -16.7 L-3.75 -15.05 -4.05 -14.25 -4.6 -13.4 -8.55 -8.25 6.15 -8.2 Q8.15 -8.2 9.15 -6.35 L9.85 -5.55 Q11.45 -4.0 12.4 -2.1 12.65 -1.6 12.4 -1.1 11.95 -0.35 11.1 -0.3 9.45 -0.15 8.4 -1.55 L6.75 -3.65 5.65 -4.6 4.85 -4.85 -7.15 -4.7 -6.8 -4.15 -6.8 -4.0 Q-6.65 -1.85 -8.9 -1.15 L-9.6 -0.8 Q-12.4 1.3 -15.55 2.65 L-15.95 2.6 Q-17.85 1.75 -16.8 -0.05 L-15.7 -1.2 -14.5 -1.8 Q-21.75 -1.65 -28.8 -2.85 L-28.95 -2.9 Q-30.9 -3.85 -29.7 -5.65 L-28.95 -6.2 -26.8 -6.85 Q-26.2 -7.7 -25.2 -8.2 L-19.35 -10.9 Q-17.1 -11.9 -14.85 -13.0 L-9.15 -15.8 -8.75 -16.2 -0.15 -21.7 Q4.15 -24.6 8.7 -27.15 11.4 -28.65 14.05 -29.85 16.45 -29.55 15.65 -27.4 M0.25 -33.5 Q0.0 -32.35 -1.2 -32.4 -2.7 -32.4 -2.75 -33.85 L-2.75 -41.6 -2.75 -44.05 -2.75 -47.15 Q-4.95 -48.45 -4.3 -51.15 -3.95 -52.6 -2.4 -52.75 0.6 -52.8 0.65 -49.85 L0.75 -39.4 0.65 -36.05 0.25 -33.5 M-10.8 -11.05 L-17.0 -8.0 Q-19.7 -6.7 -22.5 -5.5 L-19.8 -5.45 -19.35 -5.45 -13.65 -5.35 Q-14.5 -7.1 -12.9 -8.5 L-12.5 -8.9 -10.8 -11.05" fill="#666666" fill-rule="evenodd" stroke="none"/>
  </g>
</svg>
