<?xml version="1.0" encoding="UTF-8" standalone="no"?>
<svg xmlns:ffdec="https://www.free-decompiler.com/flash" xmlns:xlink="http://www.w3.org/1999/xlink" ffdec:objectType="shape" height="50.0px" width="61.1px" xmlns="http://www.w3.org/2000/svg">
  <g transform="matrix(1.0, 0.0, 0.0, 1.0, 29.85, 48.25)">
    <path d="M29.8 -24.9 L29.45 -22.95 Q28.9 -20.95 27.9 -19.25 27.7 -18.95 27.3 -18.9 25.25 -18.65 25.2 -20.65 25.15 -22.0 25.65 -23.2 26.9 -26.2 26.65 -29.55 L26.65 -30.45 27.5 -36.4 Q25.75 -38.55 27.65 -40.4 28.05 -40.8 28.55 -40.8 31.55 -40.9 31.2 -37.95 L30.1 -27.7 29.8 -24.9 M7.7 -45.25 Q7.05 -41.4 5.5 -37.8 L4.8 -35.8 3.4 -32.15 Q3.4 -29.9 2.35 -28.1 2.15 -27.8 1.8 -27.75 -0.35 -27.5 -0.4 -29.6 -0.5 -32.2 0.45 -34.5 L2.65 -40.4 3.8 -43.3 Q3.15 -45.15 3.75 -46.9 4.25 -48.15 5.5 -48.25 8.15 -47.85 7.7 -45.25 M13.25 -20.55 Q15.55 -20.15 14.75 -18.1 14.35 -17.05 13.25 -16.55 L10.8 -15.4 Q6.75 -13.25 2.1 -12.65 L1.2 -12.55 -6.85 -11.15 Q-6.75 -10.55 -7.1 -9.75 L-7.65 -8.6 -8.0 -7.95 4.95 -7.75 5.65 -7.95 Q7.9 -7.55 9.65 -5.9 L10.3 -5.0 Q11.2 -3.15 9.15 -2.6 7.95 -2.3 7.0 -3.15 L5.5 -4.5 5.1 -4.65 Q-0.75 -4.55 -6.55 -4.6 -6.6 -2.85 -8.15 -1.65 L-9.55 -0.45 Q-11.15 1.05 -13.15 1.7 L-13.95 1.6 Q-15.65 0.6 -14.45 -0.95 L-12.85 -2.55 -11.85 -3.2 -28.25 -3.8 Q-29.75 -3.75 -29.85 -5.2 -29.9 -6.75 -28.65 -7.6 L-27.85 -7.95 -27.35 -8.2 -22.95 -9.8 Q-21.4 -10.3 -20.0 -11.15 -17.9 -12.45 -15.45 -12.9 L-5.3 -15.0 2.95 -16.6 Q8.15 -17.4 12.6 -20.3 L13.25 -20.55 M-12.55 -7.75 L-11.05 -10.2 -11.3 -10.2 Q-15.25 -9.7 -18.7 -7.8 L-19.45 -7.45 -20.25 -7.05 -13.0 -6.8 -12.55 -7.75" fill="#666666" fill-rule="evenodd" stroke="none"/>
  </g>
</svg>
