<?xml version="1.0" encoding="UTF-8" standalone="no"?>
<svg xmlns:ffdec="https://www.free-decompiler.com/flash" xmlns:xlink="http://www.w3.org/1999/xlink" ffdec:objectType="shape" height="48.85px" width="46.3px" xmlns="http://www.w3.org/2000/svg">
  <g transform="matrix(1.0, 0.0, 0.0, 1.0, 31.65, 46.0)">
    <path d="M10.8 -41.15 L9.9 -40.9 6.5 -33.45 Q5.2 -30.5 4.65 -27.45 L4.35 -25.85 Q3.95 -23.95 2.1 -24.6 1.0 -25.0 1.0 -26.15 1.05 -30.9 3.25 -35.15 L5.65 -40.35 Q6.6 -42.75 8.0 -44.85 8.7 -45.9 9.9 -46.0 12.65 -46.1 12.45 -43.5 12.35 -41.8 10.8 -41.15 M14.65 -15.85 Q14.55 -15.05 13.8 -14.8 L3.95 -11.8 1.45 -11.25 -5.95 -10.15 -6.15 -9.6 Q-6.35 -9.05 -6.7 -8.55 L-6.9 -8.25 -6.7 -8.3 4.25 -8.1 4.9 -8.3 Q7.35 -7.9 9.6 -6.65 11.2 -5.8 12.15 -4.3 12.65 -3.65 12.15 -2.9 11.0 -1.25 9.2 -2.35 L7.65 -3.6 Q6.1 -4.2 4.7 -5.0 -0.7 -4.8 -6.05 -4.75 L-6.0 -4.6 Q-5.75 -4.25 -5.9 -3.75 L-6.2 -3.1 -6.7 -2.3 Q-9.55 0.8 -13.2 2.75 L-14.05 2.7 Q-15.75 1.6 -14.6 0.0 -13.85 -1.1 -12.7 -1.8 L-11.55 -2.65 -19.5 -2.85 -27.55 -3.1 -30.9 -3.7 -31.5 -4.35 Q-31.8 -5.45 -31.4 -6.05 L-30.8 -6.8 Q-28.2 -8.5 -25.1 -9.3 L-16.65 -11.6 -15.35 -11.95 -9.8 -13.15 -8.95 -13.45 Q-4.45 -13.6 -0.1 -14.6 L1.3 -14.85 8.0 -16.55 12.4 -17.9 Q14.85 -18.05 14.65 -15.85 M-11.85 -6.9 Q-11.65 -8.2 -10.8 -9.2 L-10.7 -9.3 -18.25 -7.45 -21.85 -6.4 -19.55 -6.35 -19.1 -6.35 -11.9 -6.15 -11.9 -6.3 -11.85 -6.9" fill="#666666" fill-rule="evenodd" stroke="none"/>
  </g>
</svg>
