<?xml version="1.0" encoding="UTF-8" standalone="no"?>
<svg xmlns:ffdec="https://www.free-decompiler.com/flash" xmlns:xlink="http://www.w3.org/1999/xlink" ffdec:objectType="shape" height="45.95px" width="50.8px" xmlns="http://www.w3.org/2000/svg">
  <g transform="matrix(1.0, 0.0, 0.0, 1.0, 30.85, 41.9)">
    <path d="M15.85 -39.15 Q15.75 -37.85 14.5 -37.45 L13.1 -37.25 7.95 -30.1 5.35 -26.2 4.05 -24.55 Q3.3 -23.95 2.45 -24.3 0.7 -24.9 1.45 -26.55 2.7 -29.4 4.8 -31.75 L6.6 -34.0 Q8.15 -36.0 9.35 -38.2 L9.9 -39.05 Q10.8 -40.45 12.1 -41.45 12.65 -41.85 13.25 -41.9 16.1 -41.95 15.85 -39.15 M18.35 -13.5 Q20.15 -13.35 19.95 -11.65 19.8 -10.3 18.35 -10.2 14.5 -9.95 10.7 -10.2 L-1.3 -10.55 -2.35 -10.45 -6.2 -10.0 -6.3 -9.75 Q-6.45 -9.15 -6.85 -8.65 L-0.1 -7.95 1.15 -7.9 7.4 -7.05 Q8.95 -6.85 10.15 -5.7 11.15 -4.7 12.3 -3.9 L13.6 -2.2 Q14.35 -0.35 12.4 0.15 11.55 0.35 10.85 -0.25 L6.85 -3.85 2.95 -4.15 0.7 -4.45 -7.1 -5.05 -7.05 -4.95 Q-6.0 -3.05 -7.65 -1.5 L-11.3 2.1 -12.9 3.7 Q-13.5 4.25 -14.25 3.95 -16.05 3.25 -15.3 1.4 L-14.65 0.3 -12.25 -2.1 -23.4 -2.65 -29.1 -2.7 Q-30.45 -2.7 -30.75 -3.95 -30.95 -4.85 -30.7 -5.45 -31.05 -6.4 -30.1 -7.3 -29.35 -8.05 -28.4 -8.4 -23.6 -10.3 -18.55 -11.5 -13.55 -12.7 -8.45 -13.2 L-8.0 -13.25 -7.45 -13.25 -4.45 -13.75 -1.45 -14.15 10.5 -14.0 14.1 -13.8 18.35 -13.5 M-11.0 -5.7 Q-11.7 -6.95 -11.15 -8.25 L-10.65 -9.25 -11.2 -9.2 -16.1 -8.4 Q-20.1 -7.55 -23.95 -6.2 L-17.85 -6.0 -10.95 -5.6 -11.0 -5.7" fill="#666666" fill-rule="evenodd" stroke="none"/>
  </g>
</svg>
