<?xml version="1.0" encoding="UTF-8" standalone="no"?>
<svg xmlns:ffdec="https://www.free-decompiler.com/flash" xmlns:xlink="http://www.w3.org/1999/xlink" ffdec:objectType="shape" height="37.1px" width="45.15px" xmlns="http://www.w3.org/2000/svg">
  <g transform="matrix(1.0, 0.0, 0.0, 1.0, 31.95, 35.3)">
    <path d="M6.6 -31.55 Q6.15 -30.2 4.65 -30.1 3.4 -26.55 1.8 -23.2 1.0 -21.55 -0.6 -22.5 -1.5 -23.0 -1.3 -24.0 -0.8 -26.5 0.35 -28.85 L1.8 -32.65 Q2.45 -34.75 4.4 -35.3 7.7 -34.75 6.6 -31.55 M6.4 -3.35 L-7.1 -4.95 Q-6.7 -4.45 -6.9 -3.6 -7.15 -2.55 -7.9 -1.8 -10.0 0.35 -12.55 1.7 -12.85 1.9 -13.2 1.7 -15.1 0.85 -14.05 -0.95 L-12.75 -2.45 -12.2 -2.85 -18.75 -3.6 -19.6 -3.65 -29.7 -4.3 -30.35 -4.4 Q-31.35 -4.35 -31.85 -5.75 -32.15 -6.55 -31.6 -7.3 -30.75 -8.45 -29.4 -9.05 -24.75 -11.15 -19.65 -11.85 L-10.5 -12.9 Q-9.2 -12.95 -8.65 -12.35 L-7.9 -12.45 Q-4.1 -12.75 -0.25 -12.55 L10.05 -13.15 11.55 -13.45 Q13.85 -12.85 12.9 -10.75 12.5 -9.85 11.55 -9.75 L6.7 -9.35 -0.45 -9.0 -6.35 -8.9 -6.4 -8.65 -6.45 -8.55 0.75 -7.6 8.3 -6.45 8.75 -6.15 11.85 -1.75 Q12.95 0.05 11.5 1.3 10.85 1.85 10.05 1.55 8.7 0.95 8.2 -0.5 L7.7 -1.65 6.4 -3.35 M-11.9 -6.55 Q-12.1 -8.05 -11.05 -9.1 L-11.25 -9.2 -15.1 -8.75 -18.75 -8.45 Q-21.05 -8.15 -23.2 -7.45 L-19.2 -7.15 -18.3 -7.1 -11.85 -6.4 -11.9 -6.55" fill="#666666" fill-rule="evenodd" stroke="none"/>
  </g>
</svg>
