<?xml version="1.0" encoding="UTF-8" standalone="no"?>
<svg xmlns:ffdec="https://www.free-decompiler.com/flash" xmlns:xlink="http://www.w3.org/1999/xlink" ffdec:objectType="shape" height="32.95px" width="49.8px" xmlns="http://www.w3.org/2000/svg">
  <g transform="matrix(1.0, 0.0, 0.0, 1.0, 32.45, 30.85)">
    <path d="M4.05 -9.1 L-7.6 -9.0 -8.0 -8.65 -8.4 -8.3 -0.25 -7.55 Q3.85 -7.3 7.8 -6.15 L8.1 -6.25 Q10.4 -5.4 10.85 -2.85 L10.9 -2.7 Q12.1 -0.55 11.0 1.6 L10.15 2.1 Q8.0 2.05 7.8 -0.15 7.65 -1.6 7.1 -2.9 L5.7 -3.05 Q-0.85 -4.35 -7.5 -4.55 -6.6 -3.85 -7.2 -2.35 -7.5 -1.55 -8.2 -0.95 -10.6 1.0 -13.4 1.95 L-13.85 1.9 Q-15.7 1.1 -14.65 -0.65 L-13.4 -1.9 -12.7 -2.3 -19.3 -2.75 -29.6 -3.1 Q-31.35 -3.2 -32.0 -4.3 -32.8 -5.15 -32.25 -6.2 L-32.05 -6.5 -31.9 -6.7 -30.65 -7.75 Q-26.1 -10.35 -21.0 -11.5 L-17.9 -12.1 -13.95 -12.8 -9.8 -12.6 4.3 -12.55 14.5 -12.1 16.15 -11.7 Q17.8 -11.15 17.2 -9.55 16.85 -8.55 15.75 -8.55 L8.8 -8.85 4.3 -9.05 4.05 -9.1 M-6.2 -30.85 L-5.05 -30.2 Q-2.4 -30.35 -2.75 -27.85 -2.85 -27.1 -3.3 -26.7 -2.5 -24.7 -1.3 -22.85 -0.65 -21.9 -0.35 -20.8 0.0 -19.5 -1.2 -18.95 -2.5 -18.35 -3.35 -19.5 -6.1 -23.3 -7.65 -27.7 L-7.85 -28.65 Q-8.05 -30.55 -6.2 -30.85 M-23.4 -6.15 Q-19.1 -6.3 -14.85 -6.1 L-13.25 -5.95 -13.4 -6.5 Q-13.55 -8.1 -12.55 -9.3 L-20.0 -8.15 Q-22.85 -7.3 -25.5 -6.15 L-23.4 -6.15" fill="#666666" fill-rule="evenodd" stroke="none"/>
  </g>
</svg>
