<?xml version="1.0" encoding="UTF-8" standalone="no"?>
<svg xmlns:ffdec="https://www.free-decompiler.com/flash" xmlns:xlink="http://www.w3.org/1999/xlink" ffdec:objectType="shape" height="27.7px" width="48.25px" xmlns="http://www.w3.org/2000/svg">
  <g transform="matrix(1.0, 0.0, 0.0, 1.0, 32.15, 25.0)">
    <path d="M15.35 -14.4 Q16.35 -13.85 16.05 -12.75 15.75 -11.5 14.45 -11.35 L4.1 -10.7 2.4 -10.65 -7.85 -9.9 -9.6 -9.8 -10.15 -9.2 -10.3 -8.4 -10.55 -7.65 Q-2.25 -4.95 6.7 -4.45 8.85 -4.3 9.5 -2.15 9.7 -1.45 10.05 -0.85 10.9 0.5 10.25 1.8 9.7 2.95 8.5 2.6 6.85 2.15 6.5 0.4 L6.05 -0.75 5.85 -1.15 Q-1.3 -1.5 -8.15 -3.3 -7.45 -2.1 -8.6 -1.05 L-11.8 1.25 -12.45 1.65 Q-14.6 3.05 -15.55 0.85 -15.75 0.3 -15.55 -0.25 -15.2 -1.0 -14.45 -1.45 L-24.4 -3.2 -27.65 -3.7 Q-30.1 -4.1 -31.75 -5.65 L-32.0 -6.4 -32.1 -6.8 Q-32.35 -8.35 -30.8 -8.85 -26.1 -10.2 -21.2 -10.8 -18.2 -11.15 -15.4 -12.1 -15.1 -12.95 -13.95 -13.1 L-10.75 -12.95 -9.5 -13.4 -2.75 -13.95 2.5 -14.15 3.8 -14.2 12.05 -14.8 Q13.85 -15.25 15.35 -14.4 M-24.1 -6.7 L-20.3 -6.0 -13.2 -4.9 -14.1 -5.85 Q-14.4 -6.7 -14.2 -7.6 L-13.85 -8.85 Q-18.05 -7.1 -22.65 -6.85 L-24.1 -6.7 M-6.5 -17.8 Q-9.0 -18.6 -11.3 -19.8 -11.95 -19.9 -12.55 -20.25 L-13.2 -20.8 -13.75 -21.15 Q-14.7 -21.75 -14.85 -22.85 -15.1 -24.7 -13.25 -25.0 -11.6 -24.35 -10.05 -23.3 -9.25 -22.75 -8.35 -22.45 -5.2 -21.2 -2.4 -19.25 -2.15 -19.1 -2.15 -18.75 -2.05 -16.25 -4.5 -16.8 L-5.2 -17.0 -6.5 -17.8" fill="#666666" fill-rule="evenodd" stroke="none"/>
  </g>
</svg>
