<?xml version="1.0" encoding="UTF-8" standalone="no"?>
<svg xmlns:ffdec="https://www.free-decompiler.com/flash" xmlns:xlink="http://www.w3.org/1999/xlink" ffdec:objectType="shape" height="22.55px" width="75.3px" xmlns="http://www.w3.org/2000/svg">
  <g transform="matrix(1.0, 0.0, 0.0, 1.0, 31.95, 19.8)">
    <path d="M16.2 -13.05 L16.65 -13.15 Q18.55 -13.65 20.0 -12.6 20.95 -11.9 20.5 -10.8 20.15 -9.9 19.2 -9.85 L16.55 -9.7 7.05 -9.4 -2.4 -9.3 -5.9 -9.45 -8.75 -9.7 -9.55 -7.9 5.15 -6.45 Q7.05 -6.2 8.7 -5.3 9.3 -4.95 9.3 -4.25 9.35 -1.55 8.75 1.05 8.45 2.35 7.15 2.5 5.35 2.7 5.35 1.0 5.3 -0.85 5.7 -2.65 L-8.9 -4.25 -8.65 -4.05 Q-8.35 -3.85 -8.35 -3.5 -8.15 -1.3 -10.25 -0.2 L-11.7 0.75 Q-13.6 2.35 -15.9 2.75 L-16.55 2.55 Q-18.05 1.2 -16.6 -0.25 L-15.0 -1.4 Q-14.3 -1.75 -13.75 -2.3 L-21.45 -3.75 -28.0 -4.25 Q-30.25 -4.35 -31.6 -5.9 -32.2 -6.65 -31.8 -7.55 -31.2 -8.9 -29.65 -9.35 L-25.5 -10.85 Q-23.5 -11.65 -21.4 -12.1 L-13.6 -13.45 Q-12.1 -13.85 -10.95 -13.05 L-10.6 -13.15 -2.05 -13.05 6.65 -12.9 16.2 -13.05 M25.1 -7.25 Q24.75 -9.2 26.7 -9.5 L35.3 -7.0 36.6 -7.4 36.85 -7.4 Q39.6 -7.4 40.45 -5.2 L42.9 -4.1 Q43.35 -3.9 43.35 -3.35 43.25 -0.9 40.55 -1.65 L35.6 -3.05 Q30.6 -4.55 25.75 -6.45 25.25 -6.7 25.1 -7.25 M-24.25 -7.6 L-13.55 -5.9 -13.75 -6.7 Q-13.6 -8.3 -12.8 -9.8 L-13.1 -9.85 -13.7 -9.85 Q-18.75 -9.15 -23.65 -7.8 L-24.25 -7.6 M-4.4 -17.55 Q-3.95 -17.35 -3.8 -16.85 -3.2 -14.75 -5.5 -14.65 L-6.85 -14.7 Q-12.05 -15.05 -17.05 -16.45 -19.0 -17.0 -18.25 -18.8 -17.85 -19.8 -16.8 -19.8 L-11.85 -18.9 -9.9 -18.6 Q-7.05 -18.45 -4.4 -17.55" fill="#666666" fill-rule="evenodd" stroke="none"/>
  </g>
</svg>
