<?xml version="1.0" encoding="UTF-8" standalone="no"?>
<svg xmlns:ffdec="https://www.free-decompiler.com/flash" xmlns:xlink="http://www.w3.org/1999/xlink" ffdec:objectType="shape" height="24.05px" width="75.15px" xmlns="http://www.w3.org/2000/svg">
  <g transform="matrix(1.0, 0.0, 0.0, 1.0, 31.05, 21.55)">
    <path d="M9.5 -1.45 L8.9 0.95 Q8.35 2.6 6.75 1.9 5.5 1.4 5.7 0.0 L5.8 -1.95 Q-1.8 -2.2 -9.3 -3.75 -8.75 -2.85 -9.6 -1.7 -11.1 0.4 -13.45 1.7 L-14.05 2.05 Q-16.2 3.3 -16.95 1.05 -17.25 0.2 -16.65 -0.4 -15.7 -1.35 -14.55 -2.0 -18.75 -3.45 -23.25 -4.3 L-28.8 -5.65 -29.15 -5.8 -29.45 -5.8 Q-30.95 -5.85 -31.05 -7.3 -31.2 -9.15 -29.25 -9.65 L-19.8 -11.5 -13.45 -12.15 -12.8 -12.7 -12.05 -12.9 -10.95 -12.95 17.55 -12.65 Q18.95 -12.65 19.15 -11.3 19.35 -9.6 17.55 -9.6 L-10.4 -9.25 -10.85 -8.85 -11.15 -7.65 Q-5.2 -6.25 1.0 -5.85 L8.0 -5.25 Q8.65 -5.2 8.95 -4.65 9.75 -3.15 9.5 -1.45 M27.65 -9.8 L36.8 -7.75 36.95 -7.8 Q37.9 -7.8 38.45 -7.45 41.0 -6.95 43.35 -5.95 44.1 -5.6 44.1 -4.8 44.05 -2.8 41.95 -3.1 L39.1 -3.6 29.05 -5.7 Q27.3 -6.1 26.25 -7.4 25.9 -7.8 26.0 -8.35 26.3 -9.7 27.65 -9.8 M-5.25 -18.0 Q-4.2 -16.8 -5.4 -15.7 -6.2 -14.95 -7.3 -15.3 L-14.85 -17.3 -17.6 -17.95 Q-19.95 -18.45 -19.0 -20.6 -18.7 -21.35 -17.9 -21.5 L-17.6 -21.55 -7.45 -19.25 Q-6.15 -19.0 -5.25 -18.0 M-14.65 -8.3 L-18.0 -8.0 -22.15 -7.5 -18.05 -6.55 -14.7 -5.8 -14.7 -5.95 -14.7 -8.15 -14.65 -8.3" fill="#666666" fill-rule="evenodd" stroke="none"/>
  </g>
</svg>
