<?xml version="1.0" encoding="UTF-8" standalone="no"?>
<svg xmlns:ffdec="https://www.free-decompiler.com/flash" xmlns:xlink="http://www.w3.org/1999/xlink" ffdec:objectType="shape" height="22.25px" width="76.35px" xmlns="http://www.w3.org/2000/svg">
  <g transform="matrix(1.0, 0.0, 0.0, 1.0, 32.25, 19.0)">
    <path d="M7.6 -5.85 L8.15 -5.3 Q8.55 -4.4 8.6 -3.35 8.6 -0.9 8.05 1.4 L7.65 1.9 Q5.65 2.75 5.1 0.75 L4.95 -0.15 Q4.9 -1.5 5.15 -2.85 2.5 -3.7 -0.5 -3.65 L-9.8 -4.3 Q-8.15 -3.5 -8.95 -1.5 -9.2 -0.95 -9.6 -0.5 L-13.6 3.05 -14.4 3.15 Q-16.3 2.3 -15.3 0.45 L-14.45 -0.8 -13.4 -1.75 -22.05 -3.3 -25.5 -3.8 Q-28.6 -4.15 -31.45 -5.25 L-31.85 -5.65 -31.95 -5.9 Q-32.2 -6.3 -32.25 -7.05 -32.3 -8.5 -30.95 -9.1 -26.2 -11.15 -21.1 -12.25 L-19.15 -12.6 -11.45 -12.4 -11.2 -12.45 -10.0 -12.45 -0.8 -12.25 Q4.4 -12.05 9.65 -12.0 L10.05 -11.95 15.2 -11.7 Q16.3 -11.65 16.5 -10.55 16.8 -8.95 15.15 -8.75 L9.8 -8.55 3.15 -8.7 -0.95 -8.85 -1.35 -8.9 -8.25 -9.05 -8.3 -9.0 -8.55 -8.3 -8.6 -7.65 3.45 -6.8 Q5.65 -6.65 7.6 -5.85 M23.95 -6.6 Q23.65 -7.0 23.8 -7.5 24.2 -8.7 25.45 -8.8 L35.25 -5.7 36.35 -5.35 38.65 -4.5 43.55 -2.55 44.1 -1.8 Q44.3 0.2 42.2 0.15 L40.65 -0.1 30.9 -3.15 Q29.15 -3.7 27.65 -4.55 25.2 -4.85 23.95 -6.6 M-4.35 -17.15 Q-3.5 -16.7 -3.65 -15.75 -3.95 -13.85 -5.95 -14.25 L-11.35 -15.05 -16.05 -15.3 Q-17.9 -15.25 -18.75 -16.7 -19.2 -17.5 -18.65 -18.3 -18.1 -18.95 -17.3 -19.0 L-6.95 -18.1 Q-5.55 -17.8 -4.35 -17.15 M-12.35 -5.1 Q-12.9 -5.65 -12.55 -6.7 L-11.85 -9.25 -19.05 -8.9 -19.8 -8.85 Q-22.6 -8.35 -25.25 -7.4 L-18.45 -6.4 -12.35 -5.1" fill="#666666" fill-rule="evenodd" stroke="none"/>
  </g>
</svg>
