<?xml version="1.0" encoding="UTF-8" standalone="no"?>
<svg xmlns:ffdec="https://www.free-decompiler.com/flash" xmlns:xlink="http://www.w3.org/1999/xlink" ffdec:objectType="shape" height="24.45px" width="63.0px" xmlns="http://www.w3.org/2000/svg">
  <g transform="matrix(1.0, 0.0, 0.0, 1.0, 32.65, 17.55)">
    <path d="M7.3 -3.25 L8.6 3.2 8.4 3.7 Q6.65 5.4 5.3 3.4 L4.95 2.6 Q4.3 1.1 4.0 -0.6 L3.85 -1.45 -2.95 -2.5 -4.95 -2.6 -11.2 -3.1 Q-12.3 -3.25 -12.55 -4.35 -13.05 -6.2 -11.8 -7.8 L-11.5 -8.25 -24.05 -6.9 -12.95 -2.5 Q-9.9 -1.35 -11.85 1.0 -12.55 1.85 -13.6 2.1 -16.05 5.1 -19.55 4.9 -19.95 4.9 -20.15 4.45 -21.05 2.3 -18.75 1.2 -17.6 0.65 -16.6 -0.1 L-24.85 -3.05 Q-25.6 -3.35 -26.2 -3.9 -30.1 -5.15 -32.45 -8.25 -32.85 -8.75 -32.45 -9.3 -31.1 -11.15 -28.5 -10.6 L-27.8 -10.55 -15.8 -11.45 -23.4 -12.2 Q-23.85 -12.25 -24.25 -12.6 -24.85 -13.25 -24.85 -14.15 -24.9 -16.95 -22.15 -17.45 -18.9 -17.95 -17.85 -15.4 L-17.8 -15.25 -3.75 -14.7 Q-3.15 -14.65 -3.0 -14.05 -2.8 -13.2 -3.0 -12.6 L8.1 -13.6 10.2 -13.75 18.15 -14.4 19.0 -14.55 Q22.8 -14.9 21.65 -11.85 21.35 -11.05 20.45 -10.95 L4.85 -9.4 -6.55 -8.65 -6.95 -8.0 -8.0 -6.55 Q-0.95 -6.25 6.1 -4.45 7.05 -4.2 7.3 -3.25 M28.45 -4.5 Q28.6 -3.4 29.0 -2.35 30.1 0.85 30.35 4.25 30.55 7.2 27.55 6.85 24.8 6.5 24.35 3.9 23.95 1.75 25.9 0.7 L25.6 -0.35 25.45 -1.25 Q23.9 -4.25 24.25 -7.35 24.3 -7.9 24.85 -8.1 L25.55 -8.3 Q28.05 -7.5 28.45 -4.5" fill="#666666" fill-rule="evenodd" stroke="none"/>
  </g>
</svg>
