<?xml version="1.0" encoding="UTF-8" standalone="no"?>
<svg xmlns:ffdec="https://www.free-decompiler.com/flash" xmlns:xlink="http://www.w3.org/1999/xlink" ffdec:objectType="shape" height="24.45px" width="61.9px" xmlns="http://www.w3.org/2000/svg">
  <g transform="matrix(1.0, 0.0, 0.0, 1.0, 34.75, 17.65)">
    <path d="M2.1 -9.85 L0.55 -9.7 -6.95 -9.75 -7.2 -9.5 -9.25 -6.7 -1.35 -5.85 Q2.15 -5.75 5.35 -4.5 7.25 -3.8 7.7 -1.75 8.25 0.75 7.75 3.1 7.55 4.0 6.5 3.95 3.85 3.7 4.2 0.85 4.35 -0.25 3.8 -1.25 L-10.8 -3.15 -13.15 -3.65 Q-15.05 -4.15 -14.25 -6.0 L-12.9 -8.45 -18.6 -8.25 -26.0 -7.7 Q-22.35 -5.55 -18.6 -3.7 L-16.3 -2.8 Q-13.1 -1.85 -14.7 0.7 L-15.65 1.65 Q-19.2 3.9 -23.25 3.35 -23.85 3.25 -23.95 2.7 -24.5 0.25 -21.75 -0.05 -20.95 -0.1 -20.25 -0.4 L-20.6 -0.55 Q-22.9 -1.4 -24.7 -3.05 -28.6 -4.8 -32.35 -6.9 L-33.95 -8.2 Q-35.9 -10.45 -32.95 -10.9 L-24.55 -11.55 -20.3 -11.8 -22.95 -12.7 Q-24.05 -13.2 -24.05 -14.45 -24.1 -17.05 -21.65 -17.55 -18.65 -18.1 -17.4 -15.65 L-17.35 -15.45 -16.75 -15.25 Q-9.9 -15.7 -3.5 -14.1 -3.05 -14.0 -3.0 -13.5 L-2.95 -13.05 5.95 -14.25 17.7 -13.9 Q18.65 -13.9 18.85 -12.95 19.2 -11.05 17.25 -10.9 L6.65 -10.35 2.1 -9.85 M26.35 -4.05 L26.35 -3.25 27.15 4.4 Q27.3 6.3 25.45 6.7 23.45 7.1 21.95 6.0 19.9 4.5 21.05 2.2 21.65 1.0 23.1 0.95 22.4 -3.3 23.0 -7.55 23.05 -8.05 23.55 -8.3 L24.4 -8.55 Q26.9 -7.35 26.35 -4.05" fill="#666666" fill-rule="evenodd" stroke="none"/>
  </g>
</svg>
