<?xml version="1.0" encoding="UTF-8" standalone="no"?>
<svg xmlns:ffdec="https://www.free-decompiler.com/flash" xmlns:xlink="http://www.w3.org/1999/xlink" ffdec:objectType="shape" height="23.55px" width="58.35px" xmlns="http://www.w3.org/2000/svg">
  <g transform="matrix(1.0, 0.0, 0.0, 1.0, 32.4, 17.1)">
    <path d="M13.6 -17.1 Q16.4 -16.15 14.6 -13.85 14.15 -13.3 13.5 -13.1 5.8 -10.3 -2.4 -9.6 L-7.1 -9.2 -7.65 -8.6 -9.35 -7.15 -9.8 -6.75 Q-1.85 -6.4 5.7 -4.35 6.65 -4.1 7.2 -3.3 7.85 -2.3 7.75 -1.1 9.7 1.05 9.2 3.55 9.0 4.5 8.0 4.3 5.55 3.8 5.05 1.35 4.45 0.65 4.2 -0.15 L4.2 -0.8 Q-0.55 -2.7 -6.1 -2.7 -10.05 -2.75 -13.55 -4.3 -14.65 -4.8 -14.4 -5.95 -14.1 -7.45 -13.2 -8.65 L-18.75 -8.15 -25.55 -7.8 Q-20.8 -5.05 -16.25 -1.95 -14.8 -0.95 -15.75 0.5 -16.55 1.7 -17.95 2.2 -20.1 3.0 -22.4 3.35 L-23.4 3.45 Q-26.1 3.5 -25.3 0.95 -25.1 0.35 -24.5 0.1 L-20.95 -0.8 Q-27.25 -3.9 -32.05 -8.9 -32.5 -9.35 -32.35 -10.0 -32.15 -11.1 -31.05 -11.15 L-18.05 -11.8 -22.4 -12.3 Q-22.95 -12.4 -23.15 -12.95 L-23.4 -14.2 Q-23.35 -16.65 -21.0 -17.1 -18.6 -17.15 -16.8 -15.5 L-16.65 -15.35 -5.1 -15.05 Q-2.85 -14.95 -2.75 -13.15 1.85 -13.75 6.35 -14.9 L13.6 -17.1 M24.1 -10.0 Q26.85 -8.95 25.55 -6.1 24.55 -3.85 24.55 -1.3 L24.45 0.4 Q25.7 1.9 24.2 3.15 L23.9 3.4 Q23.8 7.45 19.65 6.1 18.85 5.85 18.65 5.05 17.8 1.75 20.65 0.1 21.1 -3.9 21.9 -7.8 22.3 -9.7 24.1 -10.0" fill="#666666" fill-rule="evenodd" stroke="none"/>
  </g>
</svg>
