<?xml version="1.0" encoding="UTF-8" standalone="no"?>
<svg xmlns:ffdec="https://www.free-decompiler.com/flash" xmlns:xlink="http://www.w3.org/1999/xlink" ffdec:objectType="shape" height="22.75px" width="56.5px" xmlns="http://www.w3.org/2000/svg">
  <g transform="matrix(1.0, 0.0, 0.0, 1.0, 31.25, 17.1)">
    <path d="M12.75 -17.1 Q15.75 -16.95 14.55 -14.45 14.15 -13.65 13.2 -13.35 5.85 -11.35 -1.7 -10.65 L-4.95 -10.4 Q-5.35 -10.1 -5.85 -9.95 L-6.6 -9.55 Q-8.55 -8.05 -9.8 -5.9 L4.8 -5.5 Q7.45 -5.4 8.5 -3.05 L9.75 -0.5 Q10.4 0.85 9.55 2.15 9.1 2.85 8.25 2.7 6.05 2.35 5.5 0.2 L4.8 -1.8 3.95 -2.05 -14.35 -2.5 Q-15.2 -2.5 -15.35 -3.3 -15.85 -5.6 -14.05 -7.25 -12.8 -8.4 -11.7 -9.7 L-11.3 -10.15 -15.9 -9.9 -25.1 -9.45 Q-21.55 -5.2 -18.6 -0.6 -18.3 -0.2 -18.6 0.25 -19.85 2.0 -22.2 2.25 -23.75 2.45 -25.2 3.15 -28.1 4.5 -28.5 1.7 -28.65 0.8 -27.7 0.35 -25.55 -0.6 -23.55 -1.6 -26.95 -5.1 -29.5 -9.15 L-30.05 -9.7 Q-32.55 -11.5 -29.75 -12.0 L-22.4 -13.0 Q-22.7 -15.75 -19.85 -16.25 -17.75 -16.4 -16.05 -15.1 L-15.9 -15.0 -3.0 -15.15 Q-2.15 -15.15 -1.85 -14.35 L-1.8 -14.25 5.25 -15.3 Q9.15 -16.0 12.75 -17.1 M24.8 -6.3 L21.3 0.95 21.0 2.1 20.5 3.15 Q20.1 6.55 16.55 5.3 15.5 4.9 15.35 3.85 15.0 1.3 16.75 0.0 L17.6 -0.5 Q19.65 -4.2 21.3 -8.05 L21.7 -8.8 Q22.4 -9.95 23.55 -10.0 26.15 -9.0 24.8 -6.3" fill="#666666" fill-rule="evenodd" stroke="none"/>
  </g>
</svg>
