<?xml version="1.0" encoding="UTF-8" standalone="no"?>
<svg xmlns:ffdec="https://www.free-decompiler.com/flash" xmlns:xlink="http://www.w3.org/1999/xlink" ffdec:objectType="shape" height="24.45px" width="55.65px" xmlns="http://www.w3.org/2000/svg">
  <g transform="matrix(1.0, 0.0, 0.0, 1.0, 30.05, 18.8)">
    <path d="M17.75 -15.9 L17.0 -15.3 Q10.75 -12.8 4.05 -11.35 L-2.95 -9.8 -5.5 -9.55 Q-5.8 -9.1 -6.25 -8.8 L-10.1 -5.95 Q-2.45 -6.15 5.7 -5.7 6.75 -5.65 7.35 -4.85 L7.7 -3.6 9.45 0.95 Q9.65 1.7 9.0 2.2 7.1 3.7 5.7 1.6 4.85 0.25 4.75 -1.35 L4.45 -1.75 4.15 -2.4 Q-5.3 -2.5 -14.95 -2.1 -15.6 -2.1 -15.9 -2.75 -16.75 -4.9 -14.8 -6.45 L-12.25 -8.75 -12.0 -9.0 -14.95 -9.15 Q-19.8 -9.75 -24.6 -10.9 L-24.95 -11.0 -24.1 -8.55 -20.5 -1.75 Q-20.05 -0.9 -20.2 0.1 -20.4 1.4 -21.0 1.75 -21.3 2.15 -21.8 2.3 -24.95 3.4 -28.4 2.85 -30.6 2.5 -29.9 0.4 -29.6 -0.35 -28.8 -0.35 L-24.5 -0.9 Q-26.0 -3.8 -27.1 -6.85 -29.2 -9.7 -29.4 -12.9 -30.05 -13.45 -29.75 -14.35 -29.35 -15.6 -28.1 -15.65 L-23.05 -14.4 Q-22.4 -16.2 -19.95 -16.5 L-9.45 -15.7 -0.75 -15.1 Q-0.05 -15.05 0.25 -14.5 L1.4 -14.65 Q9.0 -16.25 16.15 -18.8 19.25 -18.45 17.75 -15.9 M25.2 -6.4 L24.5 -4.8 21.3 3.1 Q20.35 5.1 18.3 5.55 16.2 6.0 15.2 4.3 14.5 3.2 14.85 1.9 15.5 -0.8 18.65 -0.05 20.15 -4.9 22.6 -9.3 L23.1 -9.65 23.55 -9.7 Q26.55 -9.1 25.2 -6.4" fill="#666666" fill-rule="evenodd" stroke="none"/>
  </g>
</svg>
