<?xml version="1.0" encoding="UTF-8" standalone="no"?>
<svg xmlns:ffdec="https://www.free-decompiler.com/flash" xmlns:xlink="http://www.w3.org/1999/xlink" ffdec:objectType="shape" height="24.8px" width="56.5px" xmlns="http://www.w3.org/2000/svg">
  <g transform="matrix(1.0, 0.0, 0.0, 1.0, 30.6, 20.0)">
    <path d="M18.15 -20.0 Q21.35 -19.75 19.8 -17.15 19.45 -16.55 18.75 -16.3 L9.1 -12.15 Q4.95 -10.25 0.3 -9.85 L-1.7 -9.6 -7.4 -8.75 -8.05 -8.0 -8.5 -7.6 -10.45 -5.65 Q-1.8 -5.85 7.1 -5.3 8.9 -5.15 8.9 -3.35 8.85 -1.85 9.05 -0.4 9.15 0.45 8.85 1.25 8.0 3.3 6.1 2.0 5.1 1.3 5.2 0.05 L5.3 -1.85 Q-4.5 -2.3 -14.75 -2.2 -16.5 -2.15 -16.35 -3.85 -16.25 -4.95 -15.45 -5.85 L-14.0 -7.55 -12.2 -9.35 -14.5 -9.95 Q-19.8 -11.0 -24.8 -12.9 -22.75 -5.6 -21.2 1.7 -21.1 2.3 -21.65 2.65 -23.6 3.8 -26.0 3.25 L-28.9 2.7 Q-31.35 2.3 -30.3 0.2 -29.85 -0.6 -28.95 -0.65 L-25.4 -0.75 -25.35 -0.8 -25.55 -1.65 -25.6 -2.3 Q-27.5 -7.7 -28.5 -13.35 -28.95 -15.75 -27.2 -16.6 L-26.95 -16.7 -26.65 -16.85 -26.6 -16.8 -26.4 -16.85 -24.2 -16.25 -23.3 -17.15 -22.7 -17.45 Q-20.15 -17.15 -18.75 -15.35 L-15.6 -15.0 -2.15 -14.25 Q-1.25 -14.2 -1.05 -13.35 L7.05 -15.35 Q10.55 -16.35 13.6 -18.15 14.75 -18.85 16.0 -19.35 L18.15 -20.0 M25.2 -5.45 L24.05 -3.15 22.75 -0.85 Q21.8 2.3 19.4 4.5 L18.7 4.8 Q15.3 4.95 15.65 1.7 15.95 -0.45 18.35 -0.25 20.4 -4.0 21.75 -7.95 22.35 -9.7 24.1 -10.0 27.0 -8.65 25.2 -5.45" fill="#666666" fill-rule="evenodd" stroke="none"/>
  </g>
</svg>
