<?xml version="1.0" encoding="UTF-8" standalone="no"?>
<svg xmlns:ffdec="https://www.free-decompiler.com/flash" xmlns:xlink="http://www.w3.org/1999/xlink" ffdec:objectType="shape" height="28.65px" width="58.8px" xmlns="http://www.w3.org/2000/svg">
  <g transform="matrix(1.0, 0.0, 0.0, 1.0, 32.05, 22.2)">
    <path d="M15.4 -19.0 L14.4 -18.1 Q9.35 -15.0 4.05 -12.3 L4.1 -11.95 Q4.3 -11.1 3.5 -10.65 2.4 -10.05 1.15 -9.8 0.9 -9.5 0.45 -9.3 -3.55 -7.7 -6.6 -4.55 L6.2 -4.15 Q8.2 -4.05 8.15 -2.1 8.1 1.55 6.2 4.4 5.85 4.95 5.15 4.75 2.5 4.05 3.8 1.5 4.3 0.5 4.2 -0.65 L-11.05 -1.1 Q-13.75 -1.2 -13.1 -3.55 -12.8 -4.7 -11.7 -5.45 L-8.65 -7.75 -13.6 -6.9 Q-16.5 -5.65 -16.6 -8.6 -16.65 -9.25 -16.05 -9.55 L-14.8 -10.05 Q-18.65 -11.25 -22.35 -12.85 L-22.15 -3.7 Q-22.0 -0.7 -22.9 2.05 -23.3 3.05 -24.3 3.2 -27.8 3.6 -31.15 2.7 -31.95 2.5 -32.05 1.65 -32.25 0.15 -30.75 -0.05 L-26.05 -0.25 Q-25.8 -4.75 -26.0 -9.4 -26.2 -13.25 -25.25 -16.75 -25.1 -17.3 -24.55 -17.4 L-24.1 -17.45 Q-16.6 -14.35 -8.6 -12.65 L-6.85 -12.05 -5.3 -12.35 Q-0.8 -14.0 3.5 -16.15 L6.0 -17.65 Q10.1 -20.5 14.45 -22.2 17.25 -21.25 15.4 -19.0 M25.9 -5.55 Q24.75 -4.0 23.9 -2.35 L20.25 4.15 Q19.15 5.95 17.25 6.35 15.0 6.8 14.65 4.6 14.3 2.45 16.4 1.45 18.3 0.6 19.3 -1.35 L22.75 -8.0 Q23.5 -9.5 24.95 -9.75 28.0 -8.45 25.9 -5.55" fill="#666666" fill-rule="evenodd" stroke="none"/>
  </g>
</svg>
