<?xml version="1.0" encoding="UTF-8" standalone="no"?>
<svg xmlns:ffdec="https://www.free-decompiler.com/flash" xmlns:xlink="http://www.w3.org/1999/xlink" ffdec:objectType="shape" height="29.15px" width="58.95px" xmlns="http://www.w3.org/2000/svg">
  <g transform="matrix(1.0, 0.0, 0.0, 1.0, 32.15, 23.05)">
    <path d="M16.25 -19.45 Q14.9 -18.0 13.2 -16.7 8.25 -13.0 2.6 -10.4 L1.85 -10.05 Q-1.4 -7.5 -5.0 -5.55 L-6.0 -5.15 -6.05 -5.1 Q-6.1 -4.75 -6.45 -4.35 L2.55 -3.9 3.3 -3.95 5.55 -3.65 5.65 -3.65 Q8.5 -2.55 6.95 0.2 5.4 2.85 3.0 4.65 L2.0 4.6 Q0.15 3.15 1.4 1.2 L2.5 -0.4 -9.3 -0.75 Q-11.65 -0.8 -13.55 -1.7 -15.05 -1.95 -15.2 -2.8 L-15.35 -3.3 Q-15.3 -4.45 -14.55 -4.85 L-13.55 -6.55 -11.0 -9.65 Q-16.3 -11.55 -21.3 -13.9 L-21.6 -11.0 Q-21.85 -7.2 -22.4 -3.5 -22.6 -1.95 -23.1 -0.4 -23.0 0.8 -23.95 1.25 L-24.45 1.4 -24.7 1.45 -28.45 2.05 -30.8 1.8 Q-33.2 0.8 -31.35 -0.95 L-30.0 -1.75 -28.75 -2.05 -26.45 -1.95 Q-25.25 -8.7 -24.8 -15.7 L-25.05 -16.35 Q-25.05 -17.65 -24.25 -18.1 L-23.3 -18.4 Q-19.35 -17.2 -15.55 -15.4 -14.3 -14.8 -13.0 -14.5 -9.8 -13.75 -7.2 -11.85 L-2.0 -12.65 0.2 -14.35 0.55 -14.5 1.95 -13.95 Q4.95 -15.25 7.65 -17.2 10.25 -19.1 12.5 -21.35 13.75 -22.65 15.3 -23.05 18.65 -22.1 16.25 -19.45 M26.35 -6.0 Q23.8 -0.3 20.15 4.7 18.65 6.75 16.1 5.8 13.75 4.9 14.65 2.5 15.1 1.25 16.45 1.15 L18.4 1.0 Q21.15 -3.5 23.0 -8.4 L23.35 -9.2 Q23.85 -10.2 24.95 -10.25 27.75 -9.05 26.35 -6.0" fill="#666666" fill-rule="evenodd" stroke="none"/>
  </g>
</svg>
