<?xml version="1.0" encoding="UTF-8" standalone="no"?>
<svg xmlns:ffdec="https://www.free-decompiler.com/flash" xmlns:xlink="http://www.w3.org/1999/xlink" ffdec:objectType="shape" height="32.3px" width="58.1px" xmlns="http://www.w3.org/2000/svg">
  <g transform="matrix(1.0, 0.0, 0.0, 1.0, 32.9, 25.9)">
    <path d="M17.35 -21.6 Q11.9 -15.45 4.1 -12.6 L2.45 -7.3 2.1 -6.4 Q4.05 -5.0 3.0 -2.9 L2.0 -1.45 7.15 0.4 Q7.55 0.55 7.55 1.05 7.65 3.6 4.8 4.5 3.5 4.9 2.4 5.65 0.25 7.2 -1.4 5.6 -1.8 5.2 -1.75 4.65 -1.4 2.45 1.15 2.05 -7.95 -0.15 -16.7 -2.8 -17.2 -2.95 -17.2 -3.5 -17.35 -5.95 -15.05 -7.3 -12.5 -8.8 -10.3 -10.8 L-10.65 -11.1 Q-13.1 -13.45 -16.3 -14.3 L-21.0 -15.5 Q-21.9 -12.7 -22.15 -9.6 -22.5 -4.0 -23.7 1.4 -23.85 2.05 -24.55 2.2 L-31.6 2.0 Q-33.4 1.55 -32.75 -0.2 -32.45 -0.95 -31.65 -1.05 L-26.75 -1.35 Q-25.85 -5.3 -25.6 -9.45 L-25.5 -11.15 Q-25.4 -14.6 -24.7 -17.8 -24.55 -18.5 -24.05 -19.05 -23.45 -19.65 -22.7 -19.65 -14.85 -18.55 -8.35 -14.05 L-7.65 -14.3 0.8 -15.7 1.4 -15.75 Q2.0 -17.25 3.7 -17.7 L5.05 -16.9 Q9.05 -18.7 12.25 -21.6 L14.85 -24.25 Q15.95 -25.65 17.6 -25.9 20.35 -25.0 18.5 -22.85 L17.35 -21.6 M17.1 -0.25 Q18.45 -2.45 19.25 -4.9 L19.5 -5.35 Q20.65 -9.2 22.35 -12.7 L22.85 -13.1 23.25 -13.15 Q26.05 -11.95 24.85 -8.8 L22.1 -1.6 Q20.7 2.05 17.95 4.8 L17.3 5.05 Q13.6 5.25 14.4 1.8 14.75 0.3 16.3 -0.05 L17.1 -0.25 M-0.25 -11.5 L-3.1 -11.25 -5.25 -11.15 -5.45 -10.85 -6.85 -9.2 -11.35 -5.2 Q-9.7 -4.35 -7.1 -3.85 L-1.75 -2.55 -1.75 -2.6 Q-1.7 -7.25 -0.25 -11.5" fill="#666666" fill-rule="evenodd" stroke="none"/>
  </g>
</svg>
