<?xml version="1.0" encoding="UTF-8" standalone="no"?>
<svg xmlns:ffdec="https://www.free-decompiler.com/flash" xmlns:xlink="http://www.w3.org/1999/xlink" ffdec:objectType="shape" height="32.25px" width="56.8px" xmlns="http://www.w3.org/2000/svg">
  <g transform="matrix(1.0, 0.0, 0.0, 1.0, 32.35, 26.15)">
    <path d="M15.3 -26.15 Q18.4 -25.25 16.8 -22.1 13.35 -15.4 6.05 -13.45 4.8 -9.6 3.95 -5.65 6.15 -2.75 3.15 -1.4 4.8 -0.75 6.05 0.35 6.65 0.85 6.45 1.6 5.85 3.6 3.95 4.8 2.35 5.85 0.5 6.1 -0.6 6.25 -0.95 5.2 -1.65 2.95 0.75 2.1 -0.15 1.35 -1.6 0.65 -8.65 -1.3 -15.9 -2.4 -18.15 -2.75 -17.45 -5.1 -17.0 -6.75 -15.45 -7.7 -13.15 -9.1 -11.4 -11.2 -16.35 -13.25 -21.1 -15.75 -21.35 -13.8 -21.15 -11.75 -21.0 -10.1 -21.8 -8.8 L-22.85 0.35 Q-23.0 1.45 -24.0 1.5 L-30.25 1.65 Q-32.95 1.65 -32.15 -0.9 -31.8 -1.95 -30.65 -2.05 L-26.25 -1.95 -25.65 -7.0 Q-25.5 -9.05 -24.85 -10.85 -24.75 -14.0 -25.0 -17.2 -25.15 -19.15 -24.0 -20.5 -23.55 -21.05 -23.0 -21.05 L-17.65 -18.45 Q-13.95 -16.4 -10.0 -14.95 L-8.35 -14.1 Q-7.65 -14.65 -6.6 -14.8 L-2.6 -15.45 2.7 -16.7 2.75 -16.9 Q3.05 -18.35 4.45 -18.4 L5.65 -17.55 6.45 -17.8 Q10.7 -19.15 13.1 -22.8 13.15 -24.8 14.7 -25.85 L15.3 -26.15 M19.95 -8.75 Q20.0 -9.25 20.35 -9.65 19.85 -12.7 22.4 -13.65 25.35 -12.65 24.1 -9.35 L23.8 -8.35 23.3 -7.5 Q22.8 -3.6 21.9 0.2 21.05 3.65 18.05 4.95 17.05 5.4 16.25 4.65 14.25 2.75 16.05 0.6 16.9 -0.4 18.3 -0.7 L19.95 -8.75 M1.85 -12.6 L-4.65 -10.95 -6.7 -10.65 -6.85 -10.5 -7.95 -9.1 Q-9.7 -6.95 -12.15 -5.3 -5.95 -4.7 -0.2 -2.5 -1.05 -4.05 0.05 -5.45 L1.85 -12.6" fill="#666666" fill-rule="evenodd" stroke="none"/>
  </g>
</svg>
