<?xml version="1.0" encoding="UTF-8" standalone="no"?>
<svg xmlns:ffdec="https://www.free-decompiler.com/flash" xmlns:xlink="http://www.w3.org/1999/xlink" ffdec:objectType="shape" height="38.6px" width="55.15px" xmlns="http://www.w3.org/2000/svg">
  <g transform="matrix(1.0, 0.0, 0.0, 1.0, 31.5, 31.55)">
    <path d="M17.55 -27.35 L17.35 -27.1 Q15.55 -19.15 8.2 -16.15 L8.1 -15.9 7.95 -14.7 7.95 -6.8 Q10.1 -4.2 7.35 -2.5 L6.15 -2.4 Q3.7 -3.65 4.15 -6.7 L4.35 -10.1 4.45 -14.9 Q0.0 -13.5 -4.6 -12.65 -5.8 -12.4 -6.45 -11.5 -8.9 -8.2 -11.6 -5.05 -4.45 -2.8 2.0 0.95 2.45 1.25 2.45 1.85 2.4 4.2 -0.1 4.95 -2.4 5.65 -4.55 6.8 -5.75 7.5 -6.65 6.4 -7.8 4.95 -6.25 3.75 -5.2 2.9 -4.0 2.25 L-4.35 1.85 -4.65 1.5 Q-10.15 -0.85 -15.75 -2.75 -16.4 -2.95 -16.4 -3.6 -16.35 -6.0 -14.55 -7.8 -12.2 -10.1 -10.5 -12.85 L-20.95 -14.7 -21.1 -8.1 Q-21.3 -3.8 -22.2 0.4 -22.45 1.4 -23.45 1.6 -27.1 2.2 -30.6 1.6 -31.3 1.45 -31.45 0.75 -31.8 -1.2 -29.65 -1.5 L-25.55 -1.9 Q-24.8 -5.2 -24.65 -8.55 L-24.55 -17.05 Q-24.6 -18.65 -23.0 -18.8 L-7.2 -15.85 -6.8 -15.75 -6.55 -15.8 Q2.05 -17.55 9.85 -21.5 10.65 -21.9 11.1 -22.65 13.6 -26.7 15.1 -31.0 15.25 -31.45 15.75 -31.5 L16.15 -31.55 Q18.95 -30.35 17.55 -27.35 M19.45 -11.15 Q19.6 -13.7 21.85 -14.25 24.35 -13.35 23.4 -10.6 22.5 -8.0 22.75 -5.1 23.2 -0.65 21.5 3.3 21.2 4.0 20.4 4.0 16.55 4.0 17.55 0.5 17.85 -0.55 19.0 -0.7 L19.45 -11.15" fill="#666666" fill-rule="evenodd" stroke="none"/>
  </g>
</svg>
