<?xml version="1.0" encoding="UTF-8" standalone="no"?>
<svg xmlns:ffdec="https://www.free-decompiler.com/flash" xmlns:xlink="http://www.w3.org/1999/xlink" ffdec:objectType="shape" height="36.8px" width="54.4px" xmlns="http://www.w3.org/2000/svg">
  <g transform="matrix(1.0, 0.0, 0.0, 1.0, 31.55, 30.4)">
    <path d="M15.8 -30.4 Q19.3 -30.0 17.7 -27.1 14.4 -20.85 8.2 -17.55 L8.15 -17.45 7.9 -14.1 Q7.95 -11.0 7.05 -8.15 9.85 -5.5 7.35 -2.95 7.15 -2.75 6.8 -2.75 2.6 -2.85 3.35 -6.7 4.25 -11.25 4.5 -15.9 L3.15 -15.2 Q1.0 -14.05 -1.35 -13.35 -4.6 -12.4 -8.05 -12.2 -10.45 -9.3 -13.2 -6.85 L0.3 0.15 Q3.1 1.6 1.25 4.1 L0.3 4.75 Q-2.95 5.75 -6.3 6.4 -7.25 6.55 -7.6 5.65 -8.55 3.5 -6.1 2.7 L-3.85 2.1 Q-8.15 -0.3 -12.85 -2.25 -16.15 -3.65 -18.05 -6.4 -18.45 -6.95 -18.1 -7.5 -17.25 -9.05 -15.75 -10.1 L-13.4 -12.0 -11.9 -13.3 -21.8 -15.25 -22.2 -8.65 Q-22.55 -4.25 -22.4 0.1 -22.4 0.45 -22.7 0.6 -26.05 2.15 -29.8 0.95 -32.65 0.05 -30.85 -2.2 L-30.25 -2.5 -25.9 -2.45 Q-26.1 -5.85 -25.8 -9.1 -25.4 -13.45 -25.4 -17.8 -25.4 -18.9 -24.3 -19.2 L-23.85 -19.25 -8.0 -16.55 -6.8 -16.1 -6.6 -16.15 Q-0.7 -17.35 4.6 -20.1 4.7 -20.85 5.45 -21.1 L6.15 -21.35 6.55 -21.15 8.35 -22.3 Q12.8 -25.25 14.9 -29.9 L15.4 -30.3 15.8 -30.4 M20.1 -14.8 L20.9 -15.1 Q23.45 -14.1 22.7 -11.2 22.45 -10.2 22.5 -9.15 22.7 -2.95 21.9 2.95 L21.6 3.7 Q18.9 6.75 15.95 3.7 15.4 3.15 15.55 2.35 16.1 -0.2 18.9 -0.5 18.65 -7.35 19.5 -14.05 L20.1 -14.8" fill="#666666" fill-rule="evenodd" stroke="none"/>
  </g>
</svg>
