<?xml version="1.0" encoding="UTF-8" standalone="no"?>
<svg xmlns:ffdec="https://www.free-decompiler.com/flash" xmlns:xlink="http://www.w3.org/1999/xlink" ffdec:objectType="shape" height="36.1px" width="54.85px" xmlns="http://www.w3.org/2000/svg">
  <g transform="matrix(1.0, 0.0, 0.0, 1.0, 31.5, 30.7)">
    <path d="M16.45 -30.7 Q19.45 -29.45 17.2 -26.8 12.95 -21.7 7.15 -18.8 8.4 -17.45 7.65 -15.1 L7.25 -13.75 Q6.45 -10.1 6.8 -6.25 6.95 -4.35 5.6 -3.25 4.45 -2.35 3.6 -3.5 2.3 -5.25 2.7 -7.45 L3.6 -13.85 Q3.8 -15.75 4.3 -17.5 L4.05 -17.45 -1.8 -14.35 -2.75 -13.95 -4.4 -12.8 Q-7.25 -11.55 -9.85 -9.7 L-11.6 -8.65 Q-10.75 -7.8 -9.15 -6.85 -4.3 -3.8 -0.4 0.4 0.3 1.15 -0.3 2.05 -1.15 3.35 -2.7 3.95 -6.6 5.3 -10.5 5.3 L-10.9 5.05 Q-12.35 2.45 -9.2 1.85 L-5.2 0.7 Q-7.5 -1.5 -10.15 -3.15 -13.65 -5.35 -17.45 -7.0 -17.95 -7.25 -17.85 -7.85 -17.35 -10.05 -15.0 -11.05 -14.6 -11.2 -14.2 -11.5 L-9.5 -14.4 -16.1 -15.5 -21.3 -15.95 Q-21.4 -13.8 -21.8 -11.65 -22.65 -7.2 -22.4 -2.55 -22.35 -0.8 -23.75 0.1 L-24.4 0.3 -30.2 0.05 Q-31.35 -0.05 -31.5 -1.15 -31.7 -2.65 -30.2 -2.9 L-26.2 -3.35 -26.0 -7.6 -25.0 -16.75 Q-24.8 -19.15 -22.7 -19.65 -17.8 -20.35 -13.2 -18.9 L-9.45 -18.2 -4.35 -17.4 -2.95 -18.15 Q4.95 -21.35 11.55 -26.55 13.25 -27.85 14.55 -29.55 15.35 -30.6 16.45 -30.7 M18.55 -0.45 Q19.55 -7.6 19.95 -14.9 L20.25 -15.3 21.25 -15.7 Q23.7 -14.75 23.3 -11.8 L22.95 -7.8 Q22.7 -2.55 21.85 2.6 21.25 6.35 17.35 5.05 16.8 4.85 16.45 4.35 14.7 1.65 17.45 -0.05 L18.55 -0.45" fill="#666666" fill-rule="evenodd" stroke="none"/>
  </g>
</svg>
