<?xml version="1.0" encoding="UTF-8" standalone="no"?>
<svg xmlns:ffdec="https://www.free-decompiler.com/flash" xmlns:xlink="http://www.w3.org/1999/xlink" ffdec:objectType="shape" height="43.1px" width="45.45px" xmlns="http://www.w3.org/2000/svg">
  <g transform="matrix(1.0, 0.0, 0.0, 1.0, 30.4, 40.05)">
    <path d="M14.25 -36.5 Q9.2 -30.25 4.45 -23.8 2.1 -20.6 -1.1 -18.2 L-1.5 -17.25 -1.95 -16.65 Q-4.7 -13.35 -8.6 -11.85 -5.95 -8.8 -5.05 -4.85 L-4.65 -3.75 -4.4 -2.9 -1.6 0.65 Q-1.25 1.1 -1.55 1.6 -2.0 2.6 -3.15 2.6 L-11.2 3.05 Q-13.5 3.25 -13.65 1.0 -13.75 -0.4 -12.35 -0.6 L-7.75 -1.05 Q-8.65 -4.0 -10.05 -6.75 L-12.7 -11.8 -12.8 -12.5 Q-12.3 -15.0 -9.55 -15.95 -7.75 -16.55 -6.3 -17.6 -10.8 -18.2 -15.1 -19.65 L-16.5 -20.05 -16.65 -19.75 Q-17.55 -18.0 -18.05 -16.05 -18.15 -15.65 -18.4 -15.35 L-19.9 -10.7 -20.4 -9.85 Q-20.8 -7.55 -21.95 -5.75 -22.95 -3.15 -25.9 -4.4 L-29.1 -5.5 Q-30.95 -6.0 -30.2 -7.7 -29.75 -8.75 -28.75 -8.8 L-24.95 -8.25 -24.55 -8.85 -23.9 -11.2 -23.45 -12.05 -19.4 -23.25 -18.7 -23.8 -18.25 -23.9 -18.15 -23.85 -17.9 -23.9 Q-12.05 -23.3 -6.45 -21.5 L-3.95 -20.9 -3.45 -21.4 Q1.5 -25.25 5.05 -30.3 L8.55 -35.55 Q10.4 -38.55 13.3 -40.05 16.2 -38.95 14.25 -36.5" fill="#666666" fill-rule="evenodd" stroke="none"/>
  </g>
</svg>
