<?xml version="1.0" encoding="UTF-8" standalone="no"?>
<svg xmlns:ffdec="https://www.free-decompiler.com/flash" xmlns:xlink="http://www.w3.org/1999/xlink" ffdec:objectType="shape" height="44.4px" width="47.05px" xmlns="http://www.w3.org/2000/svg">
  <g transform="matrix(1.0, 0.0, 0.0, 1.0, 26.7, 41.5)">
    <path d="M15.1 -37.95 Q11.45 -32.35 7.25 -27.2 L7.2 -27.2 7.0 -26.9 2.75 -21.4 Q2.35 -17.9 2.3 -14.4 2.25 -13.05 1.4 -12.15 -0.7 -9.85 -2.05 -12.4 L-2.45 -13.75 -2.4 -14.25 -5.6 -11.5 -4.65 -9.15 Q-4.4 -8.65 -4.5 -8.1 -2.5 -3.75 -1.3 0.9 -1.15 1.6 -1.75 2.0 -3.4 3.1 -5.6 2.6 L-6.25 2.6 -13.0 2.25 Q-13.7 2.0 -13.6 1.2 -13.4 -0.85 -11.1 -0.9 L-6.75 -1.1 -5.85 -1.35 Q-8.1 -6.8 -9.3 -12.45 -9.55 -13.55 -8.65 -14.25 L-3.9 -18.05 -4.75 -18.5 Q-5.45 -18.9 -6.25 -19.0 -10.15 -19.4 -13.7 -20.85 L-14.0 -20.2 -14.65 -18.35 -16.7 -8.15 Q-17.05 -6.1 -19.15 -5.85 -21.6 -5.6 -23.9 -6.5 -24.85 -6.85 -25.7 -7.45 -27.7 -8.8 -25.7 -10.15 -24.7 -10.8 -23.5 -10.55 -22.05 -10.25 -20.75 -9.45 L-20.35 -9.5 Q-19.1 -16.05 -17.15 -22.45 L-17.1 -22.5 -17.35 -23.2 -17.3 -23.6 Q-17.0 -24.75 -15.95 -25.0 L-15.6 -25.05 -15.4 -24.95 Q-11.45 -23.55 -7.1 -23.0 -4.75 -22.75 -2.9 -21.7 L-0.8 -23.75 -0.35 -28.45 Q-0.15 -30.0 1.4 -30.15 2.65 -29.55 3.15 -28.45 L5.3 -30.6 10.15 -37.1 Q10.65 -38.4 11.65 -39.45 L11.85 -39.65 Q12.15 -41.0 13.45 -41.4 L13.9 -41.5 Q16.9 -40.7 15.1 -37.95 M18.45 -27.6 Q21.3 -26.25 19.9 -23.05 19.25 -21.5 19.2 -19.75 19.1 -14.0 17.75 -8.6 L17.4 -7.4 Q16.3 -4.3 13.5 -6.15 12.85 -6.6 12.75 -7.45 12.55 -9.65 14.4 -10.85 15.25 -14.65 15.35 -18.5 15.45 -23.0 17.4 -26.9 17.7 -27.6 18.45 -27.6" fill="#666666" fill-rule="evenodd" stroke="none"/>
  </g>
</svg>
