<?xml version="1.0" encoding="UTF-8" standalone="no"?>
<svg xmlns:ffdec="https://www.free-decompiler.com/flash" xmlns:xlink="http://www.w3.org/1999/xlink" ffdec:objectType="shape" height="48.5px" width="42.6px" xmlns="http://www.w3.org/2000/svg">
  <g transform="matrix(1.0, 0.0, 0.0, 1.0, 23.6, 48.05)">
    <path d="M7.0 -42.8 L8.5 -47.4 Q8.7 -47.85 9.2 -47.95 L9.65 -48.05 Q12.45 -47.4 11.35 -44.45 8.6 -36.9 4.9 -29.75 4.15 -27.1 2.8 -24.8 2.75 -24.15 2.1 -23.3 L-0.3 -20.5 -2.2 -18.0 Q-2.9 -15.9 -4.15 -14.0 L-4.55 -13.35 Q-3.85 -9.75 -1.9 -6.8 -0.5 -4.7 -0.2 -2.3 0.05 -0.1 -2.05 0.1 L-11.35 0.45 -11.9 0.0 Q-12.9 -2.75 -9.85 -3.25 -7.15 -3.65 -4.4 -3.35 -7.35 -7.85 -8.15 -13.15 -8.4 -14.95 -7.35 -16.45 L-6.3 -17.95 -6.6 -18.6 Q-7.1 -20.4 -6.65 -22.15 L-6.5 -22.75 -8.95 -22.65 -10.75 -22.5 -13.75 -8.25 Q-14.25 -5.55 -17.1 -6.15 L-22.3 -6.75 Q-23.3 -6.8 -23.5 -7.75 -24.0 -9.85 -21.85 -10.05 L-17.05 -10.15 -14.1 -24.4 Q-13.75 -25.95 -12.2 -26.1 L-5.5 -26.5 -4.75 -29.15 -2.85 -34.65 -2.15 -35.2 -1.7 -35.25 Q1.35 -34.3 -0.05 -30.95 L-1.6 -26.45 -0.65 -26.45 5.85 -40.65 7.0 -42.8 M17.8 -27.65 Q18.4 -23.8 18.5 -19.8 L18.45 -17.05 Q20.05 -14.05 16.9 -12.95 16.0 -12.6 15.45 -13.45 14.65 -14.6 14.65 -16.1 L14.7 -23.35 Q14.7 -25.75 14.1 -28.05 13.3 -31.2 15.8 -32.15 18.2 -31.1 17.8 -28.1 L17.8 -27.65" fill="#666666" fill-rule="evenodd" stroke="none"/>
  </g>
</svg>
