<?xml version="1.0" encoding="UTF-8" standalone="no"?>
<svg xmlns:ffdec="https://www.free-decompiler.com/flash" xmlns:xlink="http://www.w3.org/1999/xlink" ffdec:objectType="shape" height="48.65px" width="40.25px" xmlns="http://www.w3.org/2000/svg">
  <g transform="matrix(1.0, 0.0, 0.0, 1.0, 21.0, 51.7)">
    <path d="M9.9 -51.7 Q12.85 -50.35 11.3 -47.15 L10.55 -45.35 Q8.7 -39.45 6.0 -33.85 4.7 -30.6 2.75 -27.55 3.6 -26.55 2.3 -24.7 L-3.4 -16.55 Q0.55 -11.4 4.95 -6.55 6.45 -4.9 4.65 -3.65 L3.95 -3.4 Q-1.05 -2.8 -5.95 -3.25 -6.35 -3.25 -6.55 -3.7 -7.4 -5.7 -5.2 -6.15 L-0.15 -6.75 -7.9 -16.25 -7.9 -16.7 -6.4 -19.05 -6.95 -18.95 Q-7.75 -18.75 -8.35 -19.4 -9.85 -20.95 -9.0 -23.0 L-8.4 -24.4 -7.95 -25.35 -12.95 -24.55 Q-13.5 -17.0 -12.15 -9.9 -11.8 -8.3 -12.2 -6.75 -12.55 -5.15 -14.3 -4.9 L-17.3 -4.15 Q-19.0 -3.55 -20.35 -4.5 -21.35 -5.2 -20.85 -6.4 -20.2 -8.0 -18.25 -8.1 -17.0 -8.15 -15.85 -8.65 -16.95 -15.85 -16.75 -23.35 -16.7 -25.1 -16.1 -26.65 L-15.4 -27.4 Q-12.0 -28.95 -8.15 -29.0 L-6.65 -29.1 -6.5 -29.1 -5.85 -31.0 Q-4.85 -35.55 -2.05 -39.1 -1.85 -39.4 -1.45 -39.5 1.55 -38.1 -0.3 -34.95 L-1.25 -32.95 -2.5 -29.35 -0.85 -29.45 Q3.25 -35.65 5.8 -42.65 L7.8 -49.7 Q8.25 -51.45 9.9 -51.7 M12.8 -32.0 Q11.75 -35.1 14.45 -36.1 16.6 -35.15 16.95 -32.5 17.65 -26.8 18.85 -21.15 L19.2 -18.9 Q19.5 -16.75 18.05 -15.4 17.4 -14.8 16.5 -15.1 13.75 -15.9 14.35 -18.75 14.55 -19.65 15.45 -19.95 L14.05 -27.4 Q13.6 -29.75 12.8 -32.0 M-1.35 -25.9 L-3.75 -25.75 -4.5 -23.75 Q-4.15 -22.75 -4.15 -21.95 L-1.5 -25.45 -1.35 -25.9" fill="#666666" fill-rule="evenodd" stroke="none"/>
  </g>
</svg>
