<?xml version="1.0" encoding="UTF-8" standalone="no"?>
<svg xmlns:ffdec="https://www.free-decompiler.com/flash" xmlns:xlink="http://www.w3.org/1999/xlink" ffdec:objectType="shape" height="51.2px" width="37.9px" xmlns="http://www.w3.org/2000/svg">
  <g transform="matrix(1.0, 0.0, 0.0, 1.0, 17.35, 54.55)">
    <path d="M9.6 -50.25 L9.35 -48.8 Q8.4 -40.8 6.55 -33.0 5.85 -30.0 4.2 -27.55 4.3 -27.0 3.7 -26.45 3.05 -25.85 2.25 -25.6 -0.25 -22.8 -2.25 -19.7 L-2.7 -19.05 Q0.3 -18.15 2.95 -16.3 5.55 -14.4 8.25 -12.65 8.8 -12.3 8.65 -11.6 8.25 -9.5 6.5 -8.0 5.35 -7.05 4.0 -6.55 2.2 -5.85 1.85 -7.7 1.55 -9.4 3.0 -10.5 L3.9 -11.2 Q-0.65 -14.4 -5.8 -16.25 -6.9 -16.65 -7.05 -17.4 -8.0 -18.55 -6.75 -20.25 L-2.75 -25.4 -6.0 -25.25 Q-5.55 -21.8 -8.75 -22.45 L-9.5 -22.95 Q-10.2 -23.9 -10.35 -24.9 L-13.25 -24.65 -13.25 -23.85 -13.1 -22.35 Q-11.4 -15.55 -8.8 -9.0 -8.05 -7.15 -9.1 -6.15 L-9.2 -6.0 Q-9.5 -5.5 -10.05 -5.3 -13.1 -4.05 -16.1 -3.35 -16.6 -3.25 -16.85 -3.75 -18.2 -6.3 -15.2 -7.4 L-12.75 -8.25 -12.9 -8.9 Q-13.3 -10.95 -14.05 -12.8 -16.35 -18.15 -17.3 -24.05 -17.5 -25.3 -17.15 -26.55 L-16.9 -27.1 Q-16.65 -27.7 -15.9 -27.9 L-9.4 -29.0 -9.2 -29.65 Q-7.8 -34.25 -5.95 -38.7 L-5.55 -39.65 Q-4.95 -41.1 -3.4 -41.2 -0.75 -40.25 -2.15 -37.55 -4.2 -33.4 -5.35 -29.0 L-4.0 -28.9 -3.55 -28.9 0.0 -29.3 1.05 -29.5 1.75 -30.65 2.05 -31.7 2.45 -32.35 Q4.2 -39.85 5.5 -47.5 L6.2 -53.4 Q6.25 -53.9 6.7 -54.2 L7.65 -54.55 Q10.65 -53.65 9.6 -50.25 M12.15 -38.15 Q12.75 -38.95 13.6 -38.95 16.3 -38.05 16.7 -34.9 16.9 -33.4 17.35 -31.95 18.0 -31.2 18.15 -30.25 L18.2 -29.35 20.4 -22.0 Q20.9 -20.2 19.9 -18.65 18.95 -17.1 17.15 -17.75 13.5 -19.15 15.5 -22.15 L16.1 -22.85 Q14.3 -30.3 12.0 -37.6 11.9 -37.9 12.15 -38.15" fill="#666666" fill-rule="evenodd" stroke="none"/>
  </g>
</svg>
