<?xml version="1.0" encoding="UTF-8" standalone="no"?>
<svg xmlns:ffdec="https://www.free-decompiler.com/flash" xmlns:xlink="http://www.w3.org/1999/xlink" ffdec:objectType="shape" height="54.05px" width="37.95px" xmlns="http://www.w3.org/2000/svg">
  <g transform="matrix(1.0, 0.0, 0.0, 1.0, 17.8, 55.65)">
    <path d="M6.25 -54.65 Q6.65 -55.65 7.65 -55.65 10.2 -54.45 9.65 -51.15 L9.3 -48.65 Q8.55 -42.95 6.85 -37.6 6.15 -34.1 4.75 -30.8 L4.5 -30.35 Q4.4 -28.6 3.5 -27.5 3.95 -26.4 2.8 -24.65 0.65 -21.45 -1.85 -18.6 L-2.1 -18.3 3.45 -16.85 7.25 -15.75 Q8.5 -15.5 9.35 -14.65 10.2 -14.2 10.15 -13.45 10.35 -12.6 9.25 -11.95 L9.15 -11.85 8.25 -10.8 5.2 -6.7 Q4.85 -6.2 4.25 -6.3 1.95 -6.75 2.75 -9.05 3.45 -11.05 4.7 -12.45 L-7.35 -15.9 Q-7.9 -16.05 -7.95 -16.75 L-7.95 -17.15 Q-8.2 -18.25 -6.95 -19.2 -3.7 -21.75 -1.35 -25.0 L-5.75 -23.9 Q-9.15 -22.75 -12.75 -22.6 L-11.7 -19.45 -11.6 -18.85 Q-9.9 -14.85 -9.3 -10.6 L-9.05 -9.7 Q-8.5 -8.05 -8.7 -6.55 -8.35 -5.7 -9.35 -4.45 -9.8 -3.9 -10.5 -3.5 -13.45 -1.95 -16.65 -1.6 -17.2 -1.5 -17.45 -2.0 -18.7 -4.55 -15.55 -5.55 -13.95 -6.05 -12.5 -6.65 L-12.55 -7.15 -12.6 -8.2 Q-13.75 -10.1 -13.5 -12.45 L-13.45 -13.3 -14.5 -16.1 -14.55 -16.7 -15.05 -17.8 -15.15 -18.4 Q-16.8 -20.85 -16.4 -23.45 L-16.45 -24.45 Q-16.2 -26.3 -14.05 -26.2 L-11.5 -26.25 Q-11.55 -27.3 -10.95 -28.15 L-10.15 -32.6 -9.75 -33.45 Q-9.25 -38.25 -6.35 -42.3 L-5.9 -43.0 Q-5.35 -44.0 -4.35 -44.05 -1.4 -43.6 -2.8 -41.1 -4.5 -38.0 -5.7 -34.8 L-6.45 -31.7 -6.75 -31.05 -6.8 -30.6 -6.85 -30.2 -6.85 -30.0 Q-5.85 -28.75 -5.7 -27.5 L-3.5 -28.5 -2.5 -28.8 -0.3 -29.3 -0.05 -29.35 0.45 -30.4 Q1.0 -31.2 1.35 -32.15 L1.6 -32.6 2.7 -36.2 3.05 -36.85 Q5.15 -44.35 5.65 -52.2 5.75 -53.55 6.25 -54.65 M14.45 -40.9 Q16.8 -39.85 16.8 -36.85 16.8 -36.55 16.95 -36.2 L19.7 -26.4 20.05 -24.75 Q20.35 -22.5 19.6 -20.35 18.95 -18.3 16.65 -19.15 14.8 -19.8 15.15 -21.9 15.35 -23.3 16.35 -24.25 14.9 -30.85 12.85 -37.25 11.95 -40.1 14.45 -40.9" fill="#666666" fill-rule="evenodd" stroke="none"/>
  </g>
</svg>
