<?xml version="1.0" encoding="UTF-8" standalone="no"?>
<svg xmlns:ffdec="https://www.free-decompiler.com/flash" xmlns:xlink="http://www.w3.org/1999/xlink" ffdec:objectType="shape" height="53.8px" width="36.2px" xmlns="http://www.w3.org/2000/svg">
  <g transform="matrix(1.0, 0.0, 0.0, 1.0, 16.65, 55.4)">
    <path d="M7.9 -50.85 Q7.4 -49.75 7.25 -48.6 6.0 -40.6 3.9 -32.8 L3.6 -30.9 Q3.45 -29.5 2.8 -28.5 3.25 -27.4 1.9 -25.9 L-1.85 -21.1 -3.4 -19.45 Q1.25 -18.3 7.1 -18.25 10.4 -18.2 11.2 -15.5 11.45 -14.65 10.8 -14.1 L6.2 -10.15 5.2 -10.2 Q3.35 -11.6 4.8 -13.45 L5.8 -14.55 -8.2 -16.25 Q-8.65 -16.3 -8.75 -16.75 -9.35 -18.7 -7.7 -20.35 -5.6 -22.45 -3.85 -24.85 L-11.65 -22.6 -11.55 -21.75 -11.3 -20.25 Q-9.85 -15.1 -8.75 -9.8 -6.7 -6.85 -8.1 -3.95 L-8.6 -3.45 Q-11.8 -2.2 -15.1 -1.6 -16.2 -1.45 -16.5 -2.45 -17.15 -4.75 -14.55 -5.4 L-11.5 -6.3 Q-13.4 -13.65 -15.65 -21.15 -16.2 -23.05 -15.45 -24.15 -15.3 -24.9 -14.45 -25.3 L-11.45 -26.6 Q-12.3 -27.25 -12.05 -29.0 -11.2 -35.35 -8.9 -41.15 -8.55 -44.1 -6.05 -45.15 L-6.05 -45.2 Q-3.35 -44.15 -4.75 -41.35 -6.35 -38.1 -7.0 -34.55 -7.25 -33.25 -7.9 -32.2 L-8.15 -27.75 -4.05 -28.75 -0.8 -29.55 -0.65 -30.75 0.5 -36.1 Q0.65 -37.0 1.35 -37.75 L4.25 -52.9 Q4.6 -55.0 6.5 -55.4 9.35 -54.05 7.9 -50.85 M13.25 -42.65 L14.1 -42.9 Q16.7 -42.2 16.95 -39.1 L17.2 -37.4 17.35 -35.7 Q18.35 -32.55 18.4 -29.1 L18.45 -28.05 Q20.45 -24.45 18.75 -20.9 L18.25 -20.55 Q14.25 -19.8 13.95 -23.55 13.8 -25.25 15.4 -25.9 14.55 -29.5 14.1 -33.3 L13.85 -34.6 Q13.05 -38.15 12.65 -41.65 12.6 -42.35 13.25 -42.65" fill="#666666" fill-rule="evenodd" stroke="none"/>
  </g>
</svg>
