<?xml version="1.0" encoding="UTF-8" standalone="no"?>
<svg xmlns:ffdec="https://www.free-decompiler.com/flash" xmlns:xlink="http://www.w3.org/1999/xlink" ffdec:objectType="shape" height="62.65px" width="32.75px" xmlns="http://www.w3.org/2000/svg">
  <g transform="matrix(1.0, 0.0, 0.0, 1.0, 17.7, 61.35)">
    <path d="M6.45 -57.65 L6.25 -56.25 Q6.3 -48.0 5.0 -40.05 4.3 -35.55 2.95 -31.3 3.6 -30.25 2.9 -28.55 L2.05 -27.1 Q1.15 -24.0 -0.5 -21.15 L-0.65 -20.7 Q0.95 -19.7 3.6 -19.7 L5.5 -19.55 Q9.4 -18.9 12.85 -17.15 L13.15 -16.65 Q13.4 -14.25 11.1 -12.85 L7.75 -10.8 Q5.3 -9.2 4.6 -11.9 4.35 -12.95 5.3 -13.65 L7.45 -15.05 Q6.7 -15.9 4.85 -16.05 L-2.6 -17.1 -4.35 -17.5 Q-6.25 -18.1 -5.45 -19.95 L-4.75 -21.3 Q-3.2 -24.0 -1.95 -26.8 -5.25 -24.95 -7.7 -21.8 -8.95 -20.2 -10.5 -19.3 -10.25 -18.55 -10.25 -17.6 -10.25 -15.65 -9.8 -13.8 -9.4 -12.0 -9.3 -10.15 -7.7 -5.7 -6.7 -0.95 -6.35 0.6 -7.85 0.85 -12.05 1.6 -16.15 1.05 L-16.75 0.55 Q-17.6 -1.85 -14.95 -2.3 L-10.6 -2.5 Q-11.75 -4.85 -12.25 -7.4 L-12.3 -8.0 Q-13.5 -11.25 -13.95 -14.8 L-14.25 -16.7 Q-14.55 -18.15 -14.35 -19.55 -15.0 -21.1 -13.1 -22.3 -11.4 -23.4 -10.05 -24.95 -6.0 -29.75 -0.35 -31.75 1.25 -39.4 2.25 -47.1 2.7 -50.8 2.55 -54.55 2.45 -57.5 3.1 -60.25 L3.4 -60.7 Q4.05 -61.3 4.8 -61.35 7.4 -60.45 6.45 -57.65 M13.9 -43.85 L14.0 -42.8 Q15.85 -34.85 14.45 -26.85 14.0 -24.25 11.25 -24.95 8.7 -25.55 9.1 -28.25 9.4 -30.1 11.4 -30.3 11.6 -37.7 10.05 -45.0 9.6 -47.15 11.6 -47.45 13.9 -46.55 13.9 -43.85 M-8.5 -39.75 Q-10.45 -36.1 -12.95 -32.8 -11.9 -29.95 -14.25 -28.75 -15.0 -28.35 -15.85 -28.5 -18.2 -28.95 -17.6 -31.5 -16.9 -34.6 -14.7 -37.15 L-13.2 -38.95 -10.3 -44.8 -9.0 -47.75 Q-8.3 -49.6 -6.55 -50.0 -3.55 -49.45 -4.9 -46.75 L-8.5 -39.75" fill="#666666" fill-rule="evenodd" stroke="none"/>
  </g>
</svg>
