<?xml version="1.0" encoding="UTF-8" standalone="no"?>
<svg xmlns:ffdec="https://www.free-decompiler.com/flash" xmlns:xlink="http://www.w3.org/1999/xlink" ffdec:objectType="shape" height="64.95px" width="33.55px" xmlns="http://www.w3.org/2000/svg">
  <g transform="matrix(1.0, 0.0, 0.0, 1.0, 21.1, 63.8)">
    <path d="M4.3 -59.95 L3.9 -55.95 Q3.65 -50.95 3.65 -45.95 3.65 -39.25 2.85 -32.75 L2.7 -31.7 2.5 -31.25 1.95 -30.45 1.5 -29.7 0.9 -28.85 -1.9 -21.15 Q3.4 -18.6 9.0 -16.75 11.1 -16.05 11.9 -14.5 12.8 -13.8 12.25 -12.65 L12.0 -12.25 11.7 -11.85 9.15 -9.05 Q7.1 -7.0 4.75 -5.5 L4.1 -5.45 Q1.8 -6.45 3.3 -8.55 L5.9 -11.5 7.5 -12.9 Q3.95 -15.05 -0.1 -16.1 -2.6 -16.75 -4.1 -18.4 -4.75 -18.5 -5.55 -19.15 -6.4 -19.85 -6.0 -20.9 L-4.75 -24.1 Q-7.2 -21.8 -9.95 -19.85 L-10.45 -19.5 Q-10.3 -18.7 -10.45 -17.65 -10.75 -16.0 -10.1 -14.45 -8.4 -10.15 -7.9 -5.6 L-7.1 -3.7 -7.05 -3.05 Q-5.95 -1.85 -6.05 -0.9 -6.0 0.35 -7.35 0.7 L-7.85 0.8 -7.9 0.8 -15.7 0.6 Q-17.55 0.2 -16.8 -1.55 -16.35 -2.55 -15.35 -2.6 L-10.65 -2.45 -11.15 -4.2 Q-12.2 -9.75 -13.8 -15.1 -14.4 -17.0 -14.5 -19.05 -14.55 -20.25 -14.0 -21.1 -13.75 -22.7 -11.9 -23.5 -10.25 -24.25 -8.9 -25.35 -4.95 -28.55 -1.85 -32.5 -1.15 -33.45 -0.2 -33.85 L0.15 -49.35 0.3 -53.15 0.35 -54.65 Q0.15 -59.1 1.15 -63.15 1.25 -63.65 1.8 -63.75 L2.25 -63.8 Q4.65 -62.9 4.3 -59.95 M11.5 -39.95 Q11.05 -36.35 10.2 -32.85 9.45 -29.5 6.35 -29.4 5.65 -29.4 5.25 -30.0 2.9 -33.5 6.65 -35.0 L6.8 -35.45 7.2 -36.1 Q8.25 -41.0 8.5 -46.1 8.5 -46.6 9.1 -46.9 L9.9 -47.15 Q12.45 -45.95 11.9 -42.65 L11.5 -39.95 M-8.6 -50.85 Q-5.55 -50.7 -6.7 -48.15 L-7.5 -47.1 Q-11.65 -43.55 -14.8 -39.15 L-16.7 -36.35 Q-15.65 -33.35 -18.55 -32.45 -19.8 -32.1 -20.5 -33.2 -21.7 -35.2 -20.5 -37.2 -16.2 -44.35 -10.1 -50.2 -9.4 -50.85 -8.6 -50.85" fill="#666666" fill-rule="evenodd" stroke="none"/>
  </g>
</svg>
