<?xml version="1.0" encoding="UTF-8" standalone="no"?>
<svg xmlns:ffdec="https://www.free-decompiler.com/flash" xmlns:xlink="http://www.w3.org/1999/xlink" ffdec:objectType="shape" height="66.9px" width="37.45px" xmlns="http://www.w3.org/2000/svg">
  <g transform="matrix(1.0, 0.0, 0.0, 1.0, 24.4, 65.6)">
    <path d="M3.15 -61.1 L2.75 -59.05 2.4 -50.95 Q2.35 -46.1 2.45 -41.2 L6.5 -47.8 Q7.5 -49.6 9.35 -50.0 12.6 -49.2 10.4 -46.65 8.75 -44.75 7.5 -42.55 5.7 -38.4 2.6 -35.4 L2.6 -34.55 2.6 -34.0 2.75 -33.6 Q3.25 -32.55 2.5 -30.85 L1.65 -28.4 Q0.7 -24.8 -0.8 -21.35 L10.35 -15.75 Q11.9 -15.0 12.65 -13.65 13.5 -12.25 12.6 -10.8 10.8 -7.8 8.35 -5.1 L7.65 -4.5 Q5.65 -3.15 5.0 -5.45 4.55 -7.0 5.65 -8.25 L8.4 -10.95 8.65 -11.35 9.0 -11.8 8.55 -12.2 8.35 -12.4 Q1.8 -15.75 -4.55 -19.45 -4.9 -19.65 -4.85 -20.1 -4.55 -23.1 -3.2 -25.9 L-3.15 -26.0 -9.65 -19.0 -6.95 -9.5 -6.3 -7.3 -6.2 -6.45 Q-4.6 -3.4 -5.65 -0.15 L-6.2 0.3 -13.25 1.25 Q-15.45 1.55 -15.25 -0.65 -15.1 -2.35 -13.35 -2.55 L-9.8 -2.85 -8.95 -3.0 -12.6 -15.1 Q-13.35 -17.55 -13.1 -20.0 -13.05 -20.8 -12.45 -21.45 L-2.75 -31.85 -3.4 -31.9 Q-5.6 -32.2 -5.1 -34.45 -4.5 -37.2 -1.3 -36.8 L-1.1 -50.8 Q-1.05 -57.65 -0.1 -64.4 0.05 -65.3 1.0 -65.55 L1.4 -65.6 Q4.1 -64.35 3.15 -61.1 M-8.4 -50.55 Q-8.65 -50.1 -9.05 -49.75 L-14.9 -44.3 -18.6 -40.85 Q-18.35 -36.25 -23.1 -37.1 -24.65 -37.4 -24.35 -38.9 -23.85 -41.45 -21.8 -43.2 L-16.0 -48.65 -11.95 -52.65 Q-11.2 -53.35 -10.3 -53.4 -6.85 -53.3 -8.4 -50.55" fill="#666666" fill-rule="evenodd" stroke="none"/>
  </g>
</svg>
