<?xml version="1.0" encoding="UTF-8" standalone="no"?>
<svg xmlns:ffdec="https://www.free-decompiler.com/flash" xmlns:xlink="http://www.w3.org/1999/xlink" ffdec:objectType="shape" height="71.5px" width="47.1px" xmlns="http://www.w3.org/2000/svg">
  <g transform="matrix(1.0, 0.0, 0.0, 1.0, 31.55, 69.55)">
    <path d="M6.95 -52.25 Q10.4 -52.3 9.0 -49.35 8.6 -48.5 7.65 -48.4 L1.65 -48.2 Q2.3 -41.6 3.1 -34.95 3.6 -34.0 3.4 -32.5 L3.25 -31.05 Q3.2 -25.2 3.65 -19.5 5.25 -18.2 6.3 -16.15 7.25 -14.3 8.5 -12.6 L14.65 -4.0 Q15.5 -3.6 15.45 -2.8 15.7 -2.35 15.45 -1.8 14.65 -0.1 13.4 -0.75 10.75 -0.3 8.3 0.65 L6.4 0.7 Q4.4 0.0 5.4 -1.95 5.9 -2.85 6.85 -3.15 L10.3 -3.95 Q6.35 -9.15 2.65 -14.5 1.5 -15.65 1.05 -16.95 0.6 -17.35 0.3 -18.15 L0.1 -19.15 -0.1 -29.6 Q-4.4 -25.5 -7.9 -20.8 -7.65 -20.0 -7.9 -18.85 L-7.9 -18.65 Q-5.35 -11.4 -5.0 -3.55 -4.95 -2.4 -5.2 -1.35 -5.05 -0.5 -6.25 0.55 L-7.3 1.15 -16.45 1.45 Q-16.95 1.35 -17.05 0.8 -17.4 -0.85 -15.75 -1.15 L-12.25 -1.7 -8.9 -2.25 -8.9 -2.55 Q-8.65 -4.5 -8.9 -6.4 L-9.4 -9.75 -11.4 -18.95 Q-11.75 -20.4 -11.25 -21.25 L-11.1 -21.9 Q-10.55 -23.45 -9.55 -24.8 -5.75 -30.0 -0.85 -34.05 L-0.9 -34.55 Q-0.85 -38.1 -1.25 -41.6 L-2.05 -48.3 -8.55 -49.1 Q-10.1 -49.35 -10.8 -50.65 -11.3 -50.15 -12.4 -49.95 -21.1 -48.25 -28.9 -51.25 -32.15 -52.65 -31.45 -56.15 -31.35 -56.65 -30.85 -57.0 L-29.8 -57.35 Q-26.65 -57.5 -26.4 -54.4 L-26.35 -54.15 Q-19.0 -52.4 -11.5 -53.35 L-11.35 -53.35 Q-11.1 -54.8 -9.1 -55.4 -6.3 -55.5 -6.2 -52.85 L-6.2 -52.6 -4.55 -52.2 -2.45 -52.15 -3.0 -57.7 Q-3.5 -63.15 -3.15 -68.55 L-2.6 -69.3 -1.8 -69.55 Q0.65 -68.55 0.1 -65.5 L0.1 -64.85 1.25 -52.15 6.95 -52.25" fill="#666666" fill-rule="evenodd" stroke="none"/>
  </g>
</svg>
