<?xml version="1.0" encoding="UTF-8" standalone="no"?>
<svg xmlns:ffdec="https://www.free-decompiler.com/flash" xmlns:xlink="http://www.w3.org/1999/xlink" ffdec:objectType="shape" height="72.7px" width="45.45px" xmlns="http://www.w3.org/2000/svg">
  <g transform="matrix(1.0, 0.0, 0.0, 1.0, 29.65, 71.3)">
    <path d="M7.1 -52.25 Q7.9 -52.1 8.05 -51.35 8.5 -49.05 5.95 -49.25 L1.75 -49.7 Q1.95 -43.85 2.5 -38.1 L2.55 -37.55 Q4.1 -36.25 3.7 -33.6 3.45 -32.15 3.5 -30.65 3.6 -25.75 4.55 -21.05 5.3 -17.15 7.85 -13.9 L11.45 -8.8 Q13.9 -4.9 15.7 -0.8 L15.65 0.2 Q15.3 0.95 14.5 1.05 10.4 1.65 6.55 1.05 6.1 1.0 5.85 0.6 4.5 -1.25 6.75 -1.85 L10.75 -2.5 Q6.0 -10.2 1.55 -17.95 L1.25 -18.85 Q0.2 -24.0 -0.1 -29.3 L-0.15 -30.9 Q-4.15 -26.75 -7.55 -22.0 L-6.9 -20.55 Q-6.8 -20.1 -6.85 -19.65 -5.05 -13.75 -4.45 -7.55 -4.1 -3.6 -4.85 0.1 -5.0 0.9 -5.85 1.0 L-15.3 1.3 -15.9 0.85 Q-16.9 -1.7 -14.05 -2.05 L-7.95 -2.5 Q-8.05 -8.7 -9.25 -14.65 L-11.2 -22.35 Q-11.4 -23.05 -11.0 -23.7 -8.8 -27.3 -5.95 -30.25 L-1.15 -34.85 Q-1.1 -35.7 -1.2 -36.55 -1.75 -43.35 -1.95 -50.25 L-3.85 -50.65 Q-8.25 -51.6 -11.1 -55.0 -11.5 -55.45 -11.55 -56.1 -11.75 -58.4 -9.65 -58.8 -6.55 -59.05 -6.85 -56.05 L-6.9 -55.85 -2.05 -54.25 Q-2.2 -57.45 -2.8 -60.55 L-3.9 -66.3 -4.3 -69.1 Q-4.45 -71.05 -2.55 -71.3 -0.35 -70.35 -0.15 -67.7 0.05 -64.6 0.75 -61.7 1.6 -58.05 1.65 -54.25 L1.7 -53.3 7.1 -52.25 M-27.05 -54.7 Q-28.6 -55.35 -29.05 -56.8 -30.25 -59.0 -29.0 -61.2 L-27.8 -61.95 Q-24.45 -61.85 -25.05 -58.55 L-25.15 -58.3 Q-21.45 -55.55 -16.8 -54.35 L-13.9 -53.7 Q-12.15 -53.4 -11.4 -51.95 -10.6 -50.35 -12.4 -49.85 L-15.4 -49.95 Q-19.55 -51.4 -23.6 -53.2 L-27.05 -54.7" fill="#666666" fill-rule="evenodd" stroke="none"/>
  </g>
</svg>
