<?xml version="1.0" encoding="UTF-8" standalone="no"?>
<svg xmlns:ffdec="https://www.free-decompiler.com/flash" xmlns:xlink="http://www.w3.org/1999/xlink" ffdec:objectType="shape" height="63.85px" width="52.7px" xmlns="http://www.w3.org/2000/svg">
  <g transform="matrix(1.0, 0.0, 0.0, 1.0, 31.8, 64.0)">
    <path d="M6.45 -60.85 Q5.5 -63.05 7.75 -63.85 L8.15 -64.0 8.4 -63.9 8.45 -63.9 Q10.95 -62.55 11.65 -59.45 L12.1 -57.0 Q12.6 -53.85 12.1 -50.85 L11.95 -46.45 11.4 -42.7 Q14.95 -44.55 18.75 -45.8 22.05 -45.1 20.25 -42.45 19.55 -41.45 18.35 -41.0 13.5 -39.15 9.05 -36.55 6.0 -30.6 0.85 -25.95 L-0.35 -25.1 Q-2.35 -21.9 -4.95 -19.3 -6.5 -17.35 -8.5 -15.85 -2.0 -12.15 2.45 -6.3 3.15 -5.4 2.25 -4.55 L0.7 -3.3 Q-2.9 -0.05 -7.6 -0.15 L-8.1 -0.55 Q-8.55 -1.75 -8.2 -2.5 -8.2 -4.15 -6.2 -4.7 -4.7 -5.1 -3.35 -5.95 -8.7 -9.65 -13.35 -14.25 L-14.0 -14.9 -14.1 -15.0 -14.2 -15.3 Q-14.15 -16.65 -13.15 -17.05 L-11.8 -18.8 -7.9 -23.45 -5.65 -25.65 Q-7.25 -26.3 -8.55 -27.45 L-11.9 -28.85 -14.9 -29.9 -15.4 -28.9 Q-18.3 -21.4 -22.2 -14.35 -22.65 -13.5 -23.6 -13.55 L-23.7 -13.55 -24.65 -13.4 -25.75 -13.75 Q-27.65 -14.2 -29.35 -15.35 -31.15 -15.95 -31.25 -17.0 -32.35 -18.2 -31.25 -19.4 -30.75 -19.9 -30.15 -19.9 L-29.35 -19.65 -28.45 -19.45 -25.15 -18.05 -22.15 -25.9 Q-20.95 -29.2 -20.1 -32.6 L-19.7 -33.2 Q-19.65 -34.25 -19.1 -34.95 -18.75 -35.85 -17.65 -35.95 L-16.85 -35.65 -13.55 -34.05 -11.7 -33.4 -5.05 -30.45 -2.7 -29.1 -2.6 -29.2 Q-0.75 -30.45 0.75 -32.15 L2.5 -34.2 Q1.0 -34.65 0.65 -36.6 0.35 -38.15 1.15 -39.5 2.0 -40.95 3.8 -40.65 4.85 -40.5 5.65 -39.85 7.05 -43.7 7.95 -47.6 L8.15 -49.55 Q8.75 -55.55 6.45 -60.85 M-6.4 -52.8 L-5.4 -53.1 Q-3.05 -52.4 -3.05 -49.65 L-3.1 -38.5 Q1.15 -37.6 -0.9 -33.95 -1.15 -33.45 -1.75 -33.4 -6.15 -32.9 -6.95 -37.2 L-7.2 -40.2 -7.15 -51.6 Q-7.15 -52.4 -6.4 -52.8" fill="#666666" fill-rule="evenodd" stroke="none"/>
  </g>
</svg>
