<?xml version="1.0" encoding="UTF-8" standalone="no"?>
<svg xmlns:ffdec="https://www.free-decompiler.com/flash" xmlns:xlink="http://www.w3.org/1999/xlink" ffdec:objectType="shape" height="50.55px" width="52.65px" xmlns="http://www.w3.org/2000/svg">
  <g transform="matrix(1.0, 0.0, 0.0, 1.0, 30.25, 49.2)">
    <path d="M21.1 -30.55 Q14.85 -28.55 8.65 -26.85 L5.8 -26.4 4.1 -24.2 Q1.8 -21.15 -0.95 -18.6 -1.3 -17.9 -2.1 -17.6 L-2.5 -17.45 Q-8.85 -15.7 -14.4 -12.2 L-14.9 -11.9 -1.8 -8.1 Q0.1 -7.55 0.6 -5.85 1.1 -4.3 -0.15 -3.15 -2.05 -1.45 -4.15 0.0 L-4.65 0.4 Q-6.65 2.35 -8.35 0.35 -8.8 -0.15 -8.6 -0.8 -8.05 -2.7 -6.25 -3.75 -5.55 -4.15 -4.8 -4.65 -10.2 -6.55 -15.85 -7.95 -18.8 -8.7 -20.15 -11.1 -20.45 -11.6 -20.2 -12.1 -19.55 -13.6 -18.1 -14.6 L-13.7 -17.25 Q-10.1 -19.15 -6.3 -20.45 -9.15 -23.55 -12.75 -25.95 -17.1 -20.1 -20.85 -13.8 -22.25 -11.45 -24.75 -12.65 L-25.7 -13.3 Q-28.05 -15.35 -30.0 -17.75 -30.4 -18.15 -30.15 -18.7 -29.1 -21.0 -26.9 -19.6 L-23.7 -17.35 -15.5 -29.4 Q-14.1 -31.5 -11.9 -30.15 L-9.1 -28.3 -9.05 -29.8 -8.55 -33.7 -8.25 -34.75 Q-6.25 -39.05 -3.35 -42.8 L-2.75 -43.2 -2.4 -43.3 Q0.85 -42.95 -0.55 -40.2 L-1.0 -39.45 Q-3.2 -35.95 -4.9 -32.25 L-4.9 -31.75 -4.9 -31.05 -4.9 -30.95 Q-1.9 -29.15 -4.05 -26.45 -4.7 -25.65 -5.55 -25.55 L-3.6 -23.65 -2.85 -22.5 1.35 -27.2 1.05 -27.35 Q0.35 -27.6 0.15 -28.35 -0.95 -31.5 2.25 -32.35 L3.65 -32.45 5.05 -32.2 6.4 -34.35 Q8.4 -37.5 9.4 -41.0 10.3 -44.2 10.55 -47.55 L10.95 -48.55 Q11.55 -49.2 12.4 -49.2 15.1 -48.35 14.2 -45.55 L14.0 -44.45 Q13.7 -37.75 9.85 -32.15 L9.3 -31.3 14.25 -32.7 19.8 -34.5 Q22.65 -34.7 22.4 -32.2 22.3 -30.95 21.1 -30.55" fill="#666666" fill-rule="evenodd" stroke="none"/>
  </g>
</svg>
