<?xml version="1.0" encoding="UTF-8" standalone="no"?>
<svg xmlns:ffdec="https://www.free-decompiler.com/flash" xmlns:xlink="http://www.w3.org/1999/xlink" ffdec:objectType="shape" height="47.95px" width="57.95px" xmlns="http://www.w3.org/2000/svg">
  <g transform="matrix(1.0, 0.0, 0.0, 1.0, 34.0, 46.6)">
    <path d="M23.25 -27.35 Q24.85 -25.65 22.75 -24.45 L21.2 -23.65 Q17.45 -21.75 13.25 -21.45 L12.5 -21.4 5.05 -21.6 3.85 -21.75 -0.15 -18.15 Q-0.45 -16.75 -1.65 -16.5 L-2.35 -16.2 Q-8.55 -14.45 -13.95 -11.15 L-4.5 -8.85 -1.95 -8.1 Q-0.1 -7.4 0.7 -5.85 1.65 -4.9 0.55 -3.1 L-0.6 -1.95 Q-3.75 0.0 -7.1 1.3 L-8.1 1.15 Q-10.55 -0.6 -8.05 -2.45 L-5.05 -4.45 Q-7.9 -5.9 -11.1 -6.35 -15.95 -7.05 -20.35 -9.1 -21.0 -9.4 -21.05 -10.15 -21.1 -11.4 -20.45 -12.0 -19.6 -13.1 -18.4 -13.8 -13.5 -16.8 -8.35 -18.85 -9.6 -19.6 -10.8 -20.5 L-14.4 -23.15 Q-16.45 -19.65 -18.85 -16.45 -20.9 -13.65 -23.75 -12.1 -24.4 -9.8 -27.15 -10.9 L-28.85 -11.55 Q-32.15 -12.75 -33.8 -15.4 -34.15 -16.0 -33.9 -16.65 -33.35 -18.0 -32.05 -18.05 -29.15 -16.6 -26.3 -14.95 -22.85 -17.7 -20.7 -21.45 -19.05 -24.3 -17.0 -26.75 L-16.4 -27.55 -16.15 -27.75 -16.05 -27.8 -15.5 -28.1 -15.45 -28.1 -15.4 -28.05 -15.2 -28.1 Q-12.85 -27.5 -10.75 -25.95 L-8.65 -24.4 Q-8.55 -27.0 -7.35 -29.45 L-6.7 -30.35 Q-4.7 -35.95 -0.55 -40.2 -0.2 -40.6 0.3 -40.6 3.6 -39.95 1.8 -37.25 -0.6 -33.6 -2.55 -29.6 -2.75 -28.2 -3.5 -26.9 L-3.85 -26.15 Q-2.35 -24.85 -2.7 -22.7 L-3.2 -21.2 0.5 -24.65 0.35 -25.05 Q-0.05 -26.3 0.6 -27.4 1.65 -29.15 3.55 -29.5 L5.25 -29.35 7.8 -32.0 Q12.65 -37.05 15.3 -43.4 14.95 -45.7 17.0 -46.5 L17.4 -46.6 Q20.4 -45.3 19.1 -41.8 17.8 -38.3 15.65 -35.3 12.05 -30.3 7.75 -26.0 L7.75 -25.95 7.75 -25.75 Q14.4 -25.05 20.9 -27.85 22.3 -28.45 23.25 -27.35" fill="#666666" fill-rule="evenodd" stroke="none"/>
  </g>
</svg>
