<?xml version="1.0" encoding="UTF-8" standalone="no"?>
<svg xmlns:ffdec="https://www.free-decompiler.com/flash" xmlns:xlink="http://www.w3.org/1999/xlink" ffdec:objectType="shape" height="44.45px" width="57.4px" xmlns="http://www.w3.org/2000/svg">
  <g transform="matrix(1.0, 0.0, 0.0, 1.0, 34.4, 42.2)">
    <path d="M18.7 -42.2 Q21.6 -41.2 20.1 -38.4 17.8 -34.15 14.15 -30.7 L7.4 -24.1 Q7.85 -23.6 7.9 -22.95 L19.35 -24.1 Q21.2 -24.35 22.4 -23.15 23.5 -22.05 22.5 -20.9 21.55 -19.8 19.95 -19.85 L13.3 -19.4 10.1 -18.95 Q6.2 -18.55 2.8 -20.05 0.2 -18.1 -2.65 -16.65 -3.05 -15.75 -4.05 -15.5 -6.95 -14.9 -9.45 -13.3 L-13.5 -10.55 Q-7.45 -8.45 -1.3 -6.9 1.6 -6.2 0.3 -3.6 L-0.45 -2.6 Q-3.25 0.15 -6.55 2.15 L-7.5 2.1 Q-9.75 0.6 -7.8 -1.35 L-5.5 -3.45 -5.25 -3.75 -19.3 -8.5 Q-19.8 -8.65 -19.9 -9.15 -20.65 -11.7 -17.85 -12.8 L-16.35 -13.6 Q-12.9 -16.05 -9.2 -17.8 -12.3 -19.05 -15.25 -20.7 -19.5 -15.2 -24.65 -10.45 L-26.2 -9.2 Q-27.5 -8.3 -29.05 -9.0 L-32.9 -11.0 Q-35.5 -12.5 -33.55 -14.6 -32.9 -15.25 -32.0 -14.95 -29.85 -14.2 -28.0 -12.95 -22.6 -17.4 -18.55 -23.15 -16.4 -26.25 -13.05 -24.3 L-10.05 -22.6 -10.3 -24.0 Q-10.4 -26.15 -9.4 -28.15 -6.8 -33.4 -2.45 -37.55 -2.0 -37.95 -1.4 -38.05 L-0.8 -38.2 Q2.25 -37.15 0.3 -34.65 L-0.15 -34.2 Q-3.8 -30.7 -5.8 -26.2 -4.45 -25.25 -4.4 -23.55 -4.35 -21.5 -6.5 -21.15 L-7.05 -21.05 -6.65 -20.9 Q-3.25 -19.65 -0.55 -22.3 L2.55 -25.2 Q6.4 -28.55 9.95 -32.2 12.75 -35.05 15.2 -38.2 L17.15 -41.2 Q17.7 -42.15 18.7 -42.2" fill="#666666" fill-rule="evenodd" stroke="none"/>
  </g>
</svg>
