<?xml version="1.0" encoding="UTF-8" standalone="no"?>
<svg xmlns:ffdec="https://www.free-decompiler.com/flash" xmlns:xlink="http://www.w3.org/1999/xlink" ffdec:objectType="shape" height="36.5px" width="62.75px" xmlns="http://www.w3.org/2000/svg">
  <g transform="matrix(1.0, 0.0, 0.0, 1.0, 35.85, 33.8)">
    <path d="M22.65 -29.75 Q19.7 -23.8 14.05 -19.95 L10.2 -17.55 Q11.85 -17.4 12.45 -15.75 L12.5 -15.55 25.15 -16.3 Q26.45 -16.4 26.8 -15.15 27.35 -13.05 25.15 -12.7 L7.4 -11.9 Q6.9 -11.95 6.6 -12.4 5.8 -13.6 6.2 -15.15 L6.4 -15.65 4.2 -14.7 Q1.35 -13.4 -1.6 -12.75 L-1.6 -12.6 Q-1.6 -11.7 -2.45 -11.45 L-6.75 -10.25 -10.6 -8.75 Q-5.65 -6.05 0.05 -5.15 L1.15 -4.45 Q2.35 -2.55 0.4 -1.15 L-5.45 2.6 -6.2 2.65 Q-8.8 1.55 -7.05 -0.6 L-6.15 -1.5 -4.95 -2.4 Q-8.8 -3.2 -12.15 -5.05 -15.75 -5.6 -17.1 -8.5 -17.3 -8.95 -17.1 -9.35 -16.2 -11.1 -14.25 -11.85 L-8.4 -13.85 -16.5 -17.35 -16.75 -17.35 Q-20.0 -14.2 -22.35 -10.35 -23.55 -8.3 -25.1 -6.45 -25.8 -5.65 -26.8 -5.15 L-30.35 -5.3 Q-33.35 -7.0 -35.6 -9.5 -36.0 -9.9 -35.8 -10.45 -35.05 -12.75 -32.8 -11.75 -31.2 -11.1 -30.05 -9.9 L-29.35 -9.5 -28.55 -8.95 Q-26.75 -10.85 -25.45 -13.2 -24.7 -14.5 -23.6 -15.6 -21.8 -18.5 -19.1 -20.65 -18.1 -21.45 -16.85 -21.55 -14.45 -21.1 -12.2 -19.85 -11.15 -19.2 -9.95 -18.8 -7.75 -18.0 -5.7 -16.95 -7.05 -18.0 -6.3 -20.0 L-5.6 -21.35 -2.25 -26.05 Q-0.8 -28.15 1.15 -29.75 L1.8 -30.1 Q4.55 -29.25 3.15 -26.7 L2.1 -25.15 -1.2 -20.7 Q0.45 -18.3 -1.65 -16.75 L0.2 -17.45 Q3.3 -18.6 6.25 -20.1 L8.7 -21.3 Q14.1 -24.1 17.65 -29.1 18.5 -31.85 20.65 -33.55 L21.15 -33.8 Q24.1 -32.75 22.65 -29.75 M-3.25 -16.15 L-4.25 -16.3 -4.75 -16.45 -3.85 -15.95 -3.75 -16.0 -3.25 -16.15" fill="#666666" fill-rule="evenodd" stroke="none"/>
  </g>
</svg>
