<?xml version="1.0" encoding="UTF-8" standalone="no"?>
<svg xmlns:ffdec="https://www.free-decompiler.com/flash" xmlns:xlink="http://www.w3.org/1999/xlink" ffdec:objectType="shape" height="33.3px" width="64.45px" xmlns="http://www.w3.org/2000/svg">
  <g transform="matrix(1.0, 0.0, 0.0, 1.0, 37.0, 29.5)">
    <path d="M21.2 -29.5 Q24.55 -29.2 23.2 -26.3 20.1 -19.65 13.45 -16.25 6.55 -12.7 -0.8 -10.1 L-1.6 -9.85 Q-2.4 -8.85 -3.6 -8.4 L-7.5 -7.2 Q-4.15 -6.2 -0.7 -5.5 2.25 -4.85 4.1 -2.85 4.6 -2.3 4.3 -1.65 3.2 0.7 0.65 1.9 L-2.5 3.5 Q-4.0 4.3 -4.85 2.8 -5.85 1.05 -4.25 -0.15 L-3.05 -1.15 -2.7 -1.5 Q-10.25 -3.0 -16.95 -6.5 L-17.15 -6.6 -17.55 -6.9 Q-18.1 -7.55 -17.9 -8.55 -17.65 -9.7 -16.7 -10.05 L-15.35 -10.35 Q-11.8 -10.55 -8.5 -11.45 L-14.9 -15.05 Q-21.9 -11.55 -26.9 -5.35 -27.45 -4.65 -28.1 -4.2 -29.55 -1.8 -32.1 -3.55 -34.05 -4.85 -36.15 -5.95 -37.25 -6.5 -36.95 -7.7 -36.55 -9.25 -35.05 -9.4 -32.6 -9.1 -30.8 -7.9 L-25.65 -12.8 Q-21.35 -17.1 -15.75 -19.15 L-15.5 -19.1 -15.2 -19.15 Q-10.65 -17.9 -6.65 -15.3 L-6.4 -15.15 Q-5.9 -17.4 -3.85 -19.1 L-3.05 -20.0 Q-1.2 -22.65 1.0 -24.9 1.9 -25.85 3.0 -25.95 6.6 -25.5 4.75 -22.65 L3.75 -21.5 Q2.3 -20.3 1.2 -18.75 0.0 -17.1 -0.7 -15.25 L-0.8 -14.9 Q3.85 -16.1 8.2 -18.45 L12.7 -21.0 Q17.65 -23.85 20.0 -28.85 20.2 -29.35 20.8 -29.4 L21.2 -29.5 M8.75 -7.8 Q7.4 -10.8 10.65 -11.6 12.3 -12.05 13.55 -11.0 L14.55 -10.0 Q20.3 -10.6 25.55 -12.9 28.55 -12.0 26.85 -9.35 L25.55 -8.3 Q22.2 -6.9 18.75 -6.05 14.25 -5.0 10.05 -6.55 9.15 -6.85 8.75 -7.8" fill="#666666" fill-rule="evenodd" stroke="none"/>
  </g>
</svg>
