<?xml version="1.0" encoding="UTF-8" standalone="no"?>
<svg xmlns:ffdec="https://www.free-decompiler.com/flash" xmlns:xlink="http://www.w3.org/1999/xlink" ffdec:objectType="shape" height="29.15px" width="69.05px" xmlns="http://www.w3.org/2000/svg">
  <g transform="matrix(1.0, 0.0, 0.0, 1.0, 37.7, 24.35)">
    <path d="M6.05 -18.95 Q5.65 -18.15 4.7 -17.95 3.0 -17.55 1.5 -16.5 L-0.7 -14.75 Q-0.25 -11.95 -3.05 -11.2 L-3.9 -11.05 -3.6 -10.9 -0.3 -11.7 Q6.3 -12.95 11.9 -16.6 L22.85 -23.9 24.05 -24.35 Q26.8 -23.85 25.65 -21.45 25.3 -20.7 24.6 -20.25 L13.45 -12.85 Q7.75 -9.3 1.15 -7.9 L-1.7 -7.35 Q-2.1 -7.0 -2.7 -6.9 L-5.35 -5.3 Q-0.95 -4.65 3.4 -2.8 3.9 -2.55 4.0 -2.0 4.35 0.6 1.7 1.65 0.3 2.2 -0.8 3.2 -2.1 4.35 -3.7 4.75 -4.55 5.0 -5.1 4.35 -6.75 2.55 -4.65 1.1 L-2.5 -0.6 Q-6.7 -1.75 -11.55 -1.55 L-12.4 -1.7 Q-15.35 -2.65 -13.65 -5.0 -13.0 -5.95 -11.95 -6.45 L-8.2 -8.25 Q-12.8 -9.35 -17.3 -10.8 L-17.95 -10.75 Q-23.8 -7.7 -28.95 -3.55 -30.05 -2.7 -31.35 -2.25 L-34.15 -2.3 Q-35.8 -2.95 -37.1 -4.0 -38.0 -4.65 -37.55 -5.7 -36.6 -7.95 -34.2 -6.95 L-32.6 -6.15 -24.7 -11.7 Q-21.45 -13.9 -17.8 -14.9 -13.85 -14.5 -10.2 -12.95 L-7.75 -12.2 -6.2 -11.85 -6.75 -12.95 Q-7.15 -14.05 -6.35 -14.9 -4.35 -17.1 -2.0 -18.9 0.95 -21.15 4.4 -22.15 7.45 -21.6 6.05 -18.95 M12.2 -5.45 Q12.25 -7.15 13.85 -7.85 16.85 -9.2 18.85 -6.9 L28.45 -9.9 Q31.55 -10.35 31.35 -7.6 31.25 -6.35 30.05 -6.1 24.75 -4.85 19.65 -2.9 16.1 -1.55 13.25 -3.45 12.2 -4.15 12.2 -5.45" fill="#666666" fill-rule="evenodd" stroke="none"/>
  </g>
</svg>
