<?xml version="1.0" encoding="UTF-8" standalone="no"?>
<svg xmlns:ffdec="https://www.free-decompiler.com/flash" xmlns:xlink="http://www.w3.org/1999/xlink" ffdec:objectType="shape" height="22.55px" width="78.2px" xmlns="http://www.w3.org/2000/svg">
  <g transform="matrix(1.0, 0.0, 0.0, 1.0, 40.7, 16.65)">
    <path d="M9.25 -15.15 Q12.15 -14.2 10.45 -11.75 9.8 -10.8 8.6 -10.5 L6.4 -9.9 9.6 -10.25 Q14.95 -11.15 20.0 -13.0 20.65 -13.25 21.25 -13.65 L24.85 -16.4 25.3 -16.65 Q28.15 -15.75 26.55 -13.15 L25.2 -11.65 Q20.7 -7.95 14.9 -7.15 L11.4 -6.6 5.0 -5.8 0.45 -5.3 -5.5 -3.8 Q-0.15 -2.9 4.9 -1.15 L5.4 -0.6 Q6.0 1.6 3.9 3.05 1.3 4.75 -1.55 5.85 L-2.15 5.75 Q-4.25 4.5 -2.65 2.7 L-1.05 1.25 -14.9 -1.5 -15.35 -1.8 Q-16.5 -4.3 -13.7 -5.3 L-8.0 -7.25 -15.65 -7.95 -16.25 -7.75 Q-21.95 -4.65 -27.25 -0.95 -28.5 -0.1 -29.95 0.2 -31.1 0.5 -32.3 0.2 L-38.75 -1.05 Q-41.5 -1.5 -40.4 -3.85 -40.05 -4.6 -39.25 -4.6 L-30.6 -3.7 -22.6 -8.8 Q-19.55 -10.6 -16.35 -12.05 L-15.6 -12.25 -6.15 -10.85 Q-5.7 -11.55 -4.7 -11.7 1.9 -12.6 8.05 -14.85 L9.25 -15.15 M19.35 -3.75 Q22.2 -4.8 23.7 -2.6 29.4 -2.95 34.75 -4.4 37.7 -4.75 37.5 -2.1 37.45 -0.85 36.2 -0.6 L23.15 1.85 19.75 1.55 Q16.95 0.7 17.65 -2.0 18.0 -3.3 19.35 -3.75" fill="#666666" fill-rule="evenodd" stroke="none"/>
  </g>
</svg>
