<?xml version="1.0" encoding="UTF-8" standalone="no"?>
<svg xmlns:ffdec="https://www.free-decompiler.com/flash" xmlns:xlink="http://www.w3.org/1999/xlink" ffdec:objectType="shape" height="18.65px" width="83.0px" xmlns="http://www.w3.org/2000/svg">
  <g transform="matrix(1.0, 0.0, 0.0, 1.0, 41.85, 12.7)">
    <path d="M6.65 -9.8 L25.45 -9.9 Q30.95 -9.95 36.15 -11.0 39.25 -10.6 37.85 -7.95 37.5 -7.25 36.7 -7.1 31.4 -6.1 25.95 -6.0 16.2 -5.8 6.4 -5.95 L1.3 -6.35 -7.35 -4.3 Q-6.75 -3.85 -5.4 -3.55 L1.15 -2.25 Q1.95 -2.1 2.15 -1.25 2.6 1.2 0.3 2.8 -1.3 3.85 -2.5 5.35 -3.25 6.3 -4.35 5.7 -6.25 4.7 -5.2 2.8 L-3.7 0.8 Q-6.15 0.0 -9.0 -0.45 L-9.15 -0.55 Q-13.35 -0.75 -16.95 -2.5 -17.5 -2.8 -17.5 -3.45 -17.35 -5.75 -14.85 -6.25 L-10.25 -7.35 -11.35 -7.5 -18.55 -8.65 Q-21.2 -6.4 -23.95 -4.3 L-26.6 -2.5 Q-30.4 -0.15 -34.85 -0.3 L-36.25 -0.55 Q-39.0 -1.6 -41.25 -3.45 -42.3 -4.35 -41.55 -5.5 -40.35 -7.3 -38.55 -6.1 -35.9 -4.3 -32.9 -4.3 L-31.85 -4.5 Q-26.5 -6.55 -22.55 -10.55 -21.0 -12.15 -19.05 -12.7 L-6.35 -11.2 -1.9 -10.75 0.65 -10.1 1.4 -10.1 3.5 -10.1 6.3 -9.8 6.65 -9.8 M24.95 -2.5 Q31.4 -2.0 38.1 -2.75 L38.85 -2.85 Q41.3 -3.15 41.15 -0.75 41.0 0.85 39.3 1.15 L28.05 1.75 22.7 1.45 Q21.15 1.35 20.4 -0.1 19.25 -2.15 21.0 -3.7 21.5 -4.1 22.0 -4.15 24.2 -4.55 24.95 -2.65 L24.95 -2.5" fill="#666666" fill-rule="evenodd" stroke="none"/>
  </g>
</svg>
