<?xml version="1.0" encoding="UTF-8" standalone="no"?>
<svg xmlns:ffdec="https://www.free-decompiler.com/flash" xmlns:xlink="http://www.w3.org/1999/xlink" ffdec:objectType="shape" height="17.7px" width="83.6px" xmlns="http://www.w3.org/2000/svg">
  <g transform="matrix(1.0, 0.0, 0.0, 1.0, 39.1, 12.25)">
    <path d="M1.7 -6.2 L-4.95 -3.8 Q0.4 -3.3 5.05 -1.0 5.8 -0.65 5.7 0.15 5.4 2.35 3.25 3.35 L-0.05 5.15 Q-1.2 5.9 -2.1 4.85 -3.7 2.95 -1.7 1.3 -7.65 0.25 -13.3 -2.15 -14.85 -2.8 -14.25 -4.35 -13.6 -6.15 -11.65 -6.55 L-7.25 -7.55 -17.85 -7.2 -19.7 -7.0 Q-23.85 -6.1 -27.35 -3.55 -30.95 -0.95 -34.95 -1.8 L-36.35 -2.15 Q-38.6 -2.9 -39.05 -5.0 -39.35 -6.35 -38.0 -6.85 -36.45 -7.45 -34.95 -6.5 -32.8 -5.15 -30.55 -6.7 -25.15 -10.4 -18.7 -10.9 L-1.15 -11.7 8.95 -12.1 23.95 -11.4 27.25 -11.0 34.25 -9.85 Q34.9 -9.7 35.05 -9.05 35.5 -7.1 33.5 -6.6 L28.3 -6.45 19.45 -7.6 11.5 -7.95 11.05 -6.85 Q10.6 -6.1 9.7 -6.1 L1.7 -6.2 M25.6 -3.15 L25.7 -3.0 41.7 -4.2 43.05 -4.1 Q44.55 -3.75 44.5 -2.2 44.35 0.35 41.5 0.6 31.8 1.3 22.15 0.6 20.75 0.5 20.1 -0.8 19.2 -2.55 20.4 -3.95 21.1 -4.75 22.0 -4.75 24.7 -5.4 25.6 -3.15" fill="#666666" fill-rule="evenodd" stroke="none"/>
  </g>
</svg>
