<?xml version="1.0" encoding="UTF-8" standalone="no"?>
<svg xmlns:ffdec="https://www.free-decompiler.com/flash" xmlns:xlink="http://www.w3.org/1999/xlink" ffdec:objectType="shape" height="16.4px" width="85.45px" xmlns="http://www.w3.org/2000/svg">
  <g transform="matrix(1.0, 0.0, 0.0, 1.0, 40.55, 11.6)">
    <path d="M0.95 -5.8 L-2.5 -5.3 Q2.45 -4.6 7.15 -2.5 L7.5 -2.15 Q8.45 0.2 6.0 1.5 4.55 2.25 3.5 3.55 1.65 5.8 -0.35 4.0 -0.9 3.5 -0.75 2.8 -0.5 0.8 1.45 -0.2 -0.6 -1.05 -3.15 -1.55 L-6.5 -2.15 Q-9.65 -2.8 -11.85 -5.0 -12.25 -5.4 -12.05 -5.95 -11.8 -6.9 -11.15 -7.45 L-15.25 -7.5 -19.55 -6.7 Q-25.85 -4.75 -31.8 -2.0 -32.95 -1.5 -34.2 -1.4 -36.2 -1.2 -38.0 -2.25 -39.4 -3.05 -40.25 -4.35 -40.9 -5.3 -40.1 -6.1 -38.4 -7.8 -36.3 -6.3 L-35.0 -5.35 -26.9 -8.4 -19.35 -10.75 -16.05 -11.6 -8.25 -11.6 -6.25 -11.15 -4.7 -11.3 -2.55 -11.25 0.3 -11.6 14.75 -11.4 18.5 -11.2 31.75 -9.7 39.3 -8.6 Q40.7 -8.4 40.8 -7.0 40.95 -4.75 38.65 -4.9 L35.35 -5.25 22.55 -6.85 15.05 -7.4 Q15.05 -6.35 13.45 -6.15 L4.2 -5.6 3.6 -5.6 0.95 -5.8 M27.45 -4.15 L27.5 -4.0 43.45 -3.05 Q44.4 -3.05 44.75 -2.1 45.45 0.05 43.1 0.25 L36.45 0.45 22.8 -0.55 Q21.1 -0.75 21.15 -2.45 21.2 -5.3 24.2 -5.5 26.25 -5.75 27.45 -4.15" fill="#666666" fill-rule="evenodd" stroke="none"/>
  </g>
</svg>
