<?xml version="1.0" encoding="UTF-8" standalone="no"?>
<svg xmlns:ffdec="https://www.free-decompiler.com/flash" xmlns:xlink="http://www.w3.org/1999/xlink" ffdec:objectType="shape" height="16.95px" width="74.85px" xmlns="http://www.w3.org/2000/svg">
  <g transform="matrix(1.0, 0.0, 0.0, 1.0, 35.9, 12.35)">
    <path d="M3.5 -9.9 L4.5 -10.2 7.0 -10.35 Q22.05 -9.95 37.1 -9.7 38.95 -9.7 38.95 -7.9 38.95 -6.1 37.1 -6.05 L8.55 -5.75 8.0 -5.45 1.35 -3.3 8.55 -2.4 Q10.3 -2.2 10.45 -0.9 10.7 -0.15 10.1 0.8 L9.65 1.4 8.5 2.4 Q6.55 3.7 4.25 4.4 1.75 5.15 1.6 2.7 1.55 1.75 2.1 1.1 -3.0 0.6 -7.55 -1.2 -8.5 -1.05 -9.0 -1.85 L-9.4 -2.6 -9.4 -2.95 Q-9.65 -4.25 -8.25 -4.8 L-7.8 -5.0 -2.95 -6.45 -7.3 -7.2 -9.15 -7.4 Q-10.55 -7.45 -11.6 -8.0 L-19.1 -4.4 -23.25 -2.45 Q-25.3 -1.5 -27.5 -1.3 -28.9 -0.4 -30.85 -1.75 L-33.25 -3.4 Q-36.7 -4.05 -35.65 -7.0 L-34.95 -7.75 -34.05 -8.0 Q-30.8 -7.3 -28.5 -5.35 L-28.25 -5.45 -26.35 -6.1 Q-19.7 -8.45 -13.5 -12.0 L-12.35 -12.35 -12.1 -12.3 -11.8 -12.35 1.7 -10.2 3.5 -9.9" fill="#666666" fill-rule="evenodd" stroke="none"/>
  </g>
</svg>
