<?xml version="1.0" encoding="UTF-8" standalone="no"?>
<svg xmlns:ffdec="https://www.free-decompiler.com/flash" xmlns:xlink="http://www.w3.org/1999/xlink" ffdec:objectType="shape" height="11.5px" width="46.45px" xmlns="http://www.w3.org/2000/svg">
  <g transform="matrix(1.0, 0.0, 0.0, 1.0, -3.25, 9.9)">
    <path d="M5.05 -9.9 L12.4 -9.7 25.45 -9.8 35.4 -9.45 Q37.3 -9.35 37.15 -7.5 37.05 -6.15 35.75 -6.05 30.75 -5.8 25.75 -5.85 L24.95 -5.85 12.2 -5.85 6.6 -5.75 Q4.45 -5.7 3.5 -7.3 2.8 -8.55 3.95 -9.45 L5.05 -9.9 M28.8 -5.65 Q32.05 -5.75 32.9 -2.9 L32.95 -2.75 Q40.45 -2.35 48.1 -2.35 49.0 -2.4 49.45 -1.6 49.85 -0.9 49.65 -0.1 49.25 1.5 47.5 1.55 L28.5 0.7 Q26.4 0.45 25.25 -1.25 24.85 -1.85 25.05 -2.55 25.7 -5.5 28.8 -5.65" fill="#666666" fill-rule="evenodd" stroke="none"/>
  </g>
</svg>
