<?xml version="1.0" encoding="UTF-8" standalone="no"?>
<svg xmlns:ffdec="https://www.free-decompiler.com/flash" xmlns:xlink="http://www.w3.org/1999/xlink" ffdec:objectType="shape" height="19.65px" width="79.4px" xmlns="http://www.w3.org/2000/svg">
  <g transform="matrix(1.0, 0.0, 0.0, 1.0, 33.25, 12.5)">
    <path d="M6.0 -8.95 L12.0 -9.25 12.7 -9.3 38.7 -9.1 Q40.4 -9.05 40.3 -7.4 40.15 -5.85 38.7 -5.85 L19.3 -5.55 19.0 -4.95 18.05 -4.0 Q14.0 -1.75 9.2 -1.35 8.05 -1.25 7.75 -2.15 6.25 -3.05 7.4 -5.05 L7.8 -5.5 6.6 -5.55 5.35 -4.85 -0.3 -3.15 6.7 -1.45 Q8.75 -1.0 10.2 0.35 L10.8 0.9 Q11.2 1.55 10.75 2.3 L9.95 3.3 9.2 3.95 5.3 6.85 Q4.2 7.6 3.4 6.55 2.1 4.8 3.7 3.2 L4.9 2.2 -4.95 -0.3 Q-6.35 -0.65 -7.15 -1.55 -8.3 -1.4 -8.65 -2.55 -9.35 -4.75 -6.95 -5.35 L-2.55 -6.45 -4.8 -6.75 Q-8.25 -7.2 -11.0 -8.8 -11.35 -8.5 -11.8 -8.3 -17.4 -5.85 -22.5 -2.5 -24.35 -1.3 -26.0 -1.55 L-29.25 -1.65 -32.45 -3.2 Q-33.45 -3.75 -33.2 -4.9 -32.85 -6.35 -31.45 -6.45 -29.0 -6.1 -27.05 -5.0 -26.3 -5.5 -25.15 -5.65 -23.35 -5.8 -21.9 -6.9 -17.2 -10.55 -11.85 -12.5 L-11.75 -12.45 -11.55 -12.5 Q-3.0 -10.1 5.9 -9.0 L6.0 -8.95 M9.9 -5.45 L9.65 -5.45 9.75 -5.45 9.9 -5.45 M30.6 -2.45 L30.65 -2.3 31.2 -2.35 44.85 -2.05 Q46.0 -1.95 46.15 -0.85 46.35 0.65 44.85 0.75 L31.75 1.35 31.3 1.4 Q26.9 2.45 23.85 -0.2 23.55 -0.5 23.5 -0.95 23.15 -3.9 26.0 -4.4 29.25 -5.15 30.6 -2.45" fill="#666666" fill-rule="evenodd" stroke="none"/>
  </g>
</svg>
