<?xml version="1.0" encoding="UTF-8" standalone="no"?>
<svg xmlns:ffdec="https://www.free-decompiler.com/flash" xmlns:xlink="http://www.w3.org/1999/xlink" ffdec:objectType="shape" height="20.75px" width="83.25px" xmlns="http://www.w3.org/2000/svg">
  <g transform="matrix(1.0, 0.0, 0.0, 1.0, 33.5, 13.75)">
    <path d="M4.25 -1.6 L8.75 -0.05 8.95 -0.15 Q12.2 0.95 10.1 3.6 L7.75 5.75 Q6.3 6.7 4.6 7.0 3.6 7.15 3.15 6.3 1.9 4.1 3.85 2.75 L-7.85 -1.1 -8.7 -1.5 -9.05 -1.6 Q-9.5 -1.7 -9.6 -2.2 -10.3 -4.9 -7.3 -5.35 L-1.2 -6.25 -1.0 -6.3 Q-4.75 -7.15 -8.35 -8.7 -9.2 -9.05 -9.95 -9.5 -16.7 -6.0 -23.05 -1.75 -23.8 -1.25 -24.4 -1.05 L-26.7 -1.15 Q-28.65 -1.8 -30.8 -1.8 -31.7 -1.8 -32.05 -2.55 L-32.3 -2.7 Q-34.5 -4.1 -32.6 -5.85 -32.1 -6.35 -31.5 -6.4 -30.55 -6.1 -30.05 -5.65 -27.5 -6.05 -25.4 -5.1 -19.15 -9.45 -12.5 -13.25 L-10.85 -13.75 -10.15 -13.7 -10.05 -13.75 -9.55 -13.55 -9.2 -13.45 Q-2.45 -11.15 4.5 -9.6 L6.05 -9.2 16.7 -9.4 Q17.7 -10.1 18.75 -10.45 20.2 -10.15 20.7 -9.45 L29.25 -9.65 31.1 -9.85 Q34.2 -10.35 36.25 -12.5 L36.95 -12.9 Q40.0 -11.9 38.3 -9.15 37.8 -8.3 36.95 -7.75 33.6 -5.6 29.6 -5.55 L18.65 -5.4 Q14.7 -2.05 9.85 -0.75 7.55 -0.1 6.95 -2.3 6.3 -4.6 8.7 -5.0 L10.55 -5.45 7.95 -5.45 Q7.7 -5.15 7.25 -5.05 L0.45 -2.7 4.25 -1.6 M29.4 -3.0 Q39.05 -3.35 48.7 -3.0 L49.15 -2.75 Q50.85 -0.2 47.75 0.2 L39.35 1.0 Q32.1 1.45 24.85 1.2 23.7 1.15 23.4 0.05 22.6 -2.95 25.25 -3.7 27.3 -3.95 29.1 -3.15 L29.4 -3.0" fill="#666666" fill-rule="evenodd" stroke="none"/>
  </g>
</svg>
