<?xml version="1.0" encoding="UTF-8" standalone="no"?>
<svg xmlns:ffdec="https://www.free-decompiler.com/flash" xmlns:xlink="http://www.w3.org/1999/xlink" ffdec:objectType="shape" height="19.8px" width="81.95px" xmlns="http://www.w3.org/2000/svg">
  <g transform="matrix(1.0, 0.0, 0.0, 1.0, 33.45, 13.65)">
    <path d="M6.9 -1.05 Q6.1 -2.95 7.95 -3.7 10.25 -4.65 12.7 -5.0 L13.2 -5.2 13.55 -5.4 6.25 -5.45 5.8 -5.25 5.1 -4.8 -0.7 -3.15 Q3.45 -1.9 7.5 -0.15 L6.9 -1.05 M5.8 -9.0 L22.5 -9.55 Q26.85 -9.7 30.9 -10.75 L37.65 -10.4 Q38.9 -10.25 38.9 -9.0 38.9 -7.35 37.25 -7.25 L21.9 -5.95 19.9 -5.75 19.8 -5.65 19.2 -5.05 Q15.35 -1.45 10.55 0.2 L8.95 0.5 9.4 1.15 Q9.6 1.7 9.15 2.45 L8.65 3.05 8.05 3.65 Q5.3 5.65 2.15 6.15 1.6 6.25 1.3 5.7 -0.1 3.15 2.85 1.95 -2.65 -0.1 -8.35 -1.4 L-9.25 -1.7 -9.5 -1.9 Q-10.25 -2.45 -9.95 -3.5 -9.8 -5.1 -7.65 -5.35 -5.9 -5.55 -4.2 -6.1 L-1.8 -6.8 -5.5 -8.15 Q-8.2 -9.0 -10.55 -10.3 L-12.2 -9.1 Q-18.15 -6.15 -23.0 -1.6 -24.55 -0.15 -25.95 -0.75 L-28.15 -0.85 Q-31.35 -1.8 -33.25 -4.3 -33.7 -4.95 -33.2 -5.6 -32.6 -6.4 -31.75 -6.45 -29.35 -5.7 -26.9 -4.75 L-26.1 -4.35 -24.4 -5.95 -22.3 -7.55 Q-17.25 -11.4 -11.55 -13.65 L-10.45 -13.3 -10.1 -13.35 Q-4.85 -12.5 0.1 -10.2 1.85 -9.35 3.9 -9.35 L5.8 -9.0 M26.15 -3.65 L26.85 -3.85 Q30.6 -4.25 33.5 -2.6 L33.65 -2.45 47.55 -2.2 Q48.15 -2.2 48.35 -1.6 48.95 0.15 47.15 0.65 L44.3 1.15 Q35.15 1.95 26.0 1.3 25.35 1.25 24.8 0.8 22.35 -1.4 25.1 -3.2 L26.15 -3.65" fill="#666666" fill-rule="evenodd" stroke="none"/>
  </g>
</svg>
