<?xml version="1.0" encoding="UTF-8" standalone="no"?>
<svg xmlns:ffdec="https://www.free-decompiler.com/flash" xmlns:xlink="http://www.w3.org/1999/xlink" ffdec:objectType="shape" height="19.65px" width="79.9px" xmlns="http://www.w3.org/2000/svg">
  <g transform="matrix(1.0, 0.0, 0.0, 1.0, 32.35, 14.5)">
    <path d="M7.45 -6.2 Q7.15 -5.2 6.1 -5.0 1.9 -4.3 -2.15 -2.8 L-0.45 -2.45 Q3.25 -1.8 6.15 0.5 7.05 0.65 7.65 0.95 9.0 1.65 8.65 3.2 L8.35 3.95 Q8.05 4.65 7.25 4.5 L7.2 4.5 0.35 4.9 -0.2 4.25 Q-0.4 2.4 0.8 1.75 -3.85 0.8 -8.15 -1.15 -10.65 -2.3 -9.25 -4.3 L-8.3 -4.95 Q-7.45 -5.65 -6.1 -5.85 L-2.6 -6.75 -0.6 -7.45 -8.45 -9.8 -10.2 -10.5 -10.3 -10.45 -20.65 -2.25 Q-21.9 -1.3 -23.35 -0.85 L-24.8 -0.65 Q-28.5 -1.55 -31.85 -3.1 -32.4 -3.35 -32.35 -3.95 -32.25 -5.7 -30.6 -5.85 L-24.95 -4.75 -24.55 -4.6 -24.25 -4.8 -21.5 -6.6 -13.95 -12.6 -11.95 -13.8 -11.65 -13.9 Q-11.2 -14.45 -10.4 -14.5 -2.05 -11.9 6.4 -9.9 L7.3 -9.5 7.5 -9.55 16.75 -9.6 Q17.55 -10.15 18.5 -10.45 L19.85 -9.65 26.0 -9.65 Q28.4 -9.6 30.4 -10.8 L32.5 -12.05 32.9 -12.2 Q36.45 -11.7 34.3 -9.1 31.8 -6.1 27.7 -6.05 L26.85 -6.0 18.4 -6.05 15.35 -2.9 Q15.4 0.95 11.6 -0.1 10.8 -0.35 10.65 -1.2 10.25 -3.3 12.05 -4.85 L12.95 -6.15 7.5 -6.3 7.45 -6.2 M25.1 -1.5 Q25.65 -4.7 29.3 -3.75 30.15 -3.55 30.45 -2.75 L34.05 -3.1 36.95 -3.8 44.45 -4.3 45.3 -4.4 Q48.8 -3.9 46.9 -1.05 46.55 -0.55 45.9 -0.55 37.5 -0.5 29.45 1.55 26.5 2.3 25.3 -0.1 25.0 -0.75 25.1 -1.5" fill="#666666" fill-rule="evenodd" stroke="none"/>
  </g>
</svg>
