<?xml version="1.0" encoding="UTF-8" standalone="no"?>
<svg xmlns:ffdec="https://www.free-decompiler.com/flash" xmlns:xlink="http://www.w3.org/1999/xlink" ffdec:objectType="shape" height="23.05px" width="80.05px" xmlns="http://www.w3.org/2000/svg">
  <g transform="matrix(1.0, 0.0, 0.0, 1.0, 31.65, 16.7)">
    <path d="M6.75 -5.75 Q2.45 -3.7 -2.1 -2.6 L6.6 0.0 7.05 -0.15 Q10.45 0.15 9.05 3.0 L8.1 4.05 Q4.5 6.2 0.4 6.35 -0.45 6.4 -0.8 5.55 -1.55 3.5 0.15 2.5 -4.65 0.95 -9.0 -1.5 -9.6 -1.5 -9.95 -2.1 L-9.95 -2.15 Q-10.45 -3.1 -10.3 -3.8 L-10.25 -3.9 -10.15 -4.15 Q-9.8 -4.9 -8.55 -5.3 L-8.35 -5.35 -2.65 -6.9 0.85 -8.0 -2.3 -8.95 -10.15 -11.3 Q-14.3 -5.45 -19.9 -0.8 L-21.25 0.0 -23.2 0.1 Q-27.55 -0.6 -31.1 -3.05 -31.75 -3.5 -31.6 -4.3 -31.3 -6.0 -29.6 -6.1 -26.05 -5.25 -22.65 -3.9 L-21.3 -5.05 Q-18.7 -6.9 -16.9 -9.35 L-16.1 -10.5 Q-14.35 -13.55 -11.65 -15.55 L-10.85 -15.9 -10.75 -15.85 -10.6 -15.9 Q-5.7 -14.2 -0.75 -12.65 L-0.45 -12.5 Q3.6 -11.95 7.25 -10.35 L14.65 -10.55 15.2 -11.45 Q15.95 -12.55 17.1 -12.65 19.4 -12.45 19.5 -11.05 L22.85 -11.6 Q27.55 -12.4 31.45 -14.8 L32.8 -15.95 Q33.4 -16.7 34.25 -16.7 37.65 -15.4 35.2 -12.6 32.0 -8.9 27.0 -8.3 L26.2 -8.2 17.3 -6.85 16.25 -4.7 15.75 -3.7 Q17.2 -0.3 13.8 0.7 11.9 1.25 10.95 -0.4 10.1 -1.9 10.85 -3.55 L12.2 -6.3 7.5 -6.4 6.75 -5.75 M30.55 -2.65 Q32.95 -3.45 35.45 -3.85 41.25 -4.75 46.45 -7.2 49.65 -6.1 47.55 -3.5 47.0 -2.8 46.15 -2.5 39.1 0.15 31.6 1.45 L28.65 2.25 Q25.2 3.6 23.65 0.85 L23.5 0.15 Q23.6 -3.45 27.35 -2.5 L30.55 -2.65" fill="#666666" fill-rule="evenodd" stroke="none"/>
  </g>
</svg>
