<?xml version="1.0" encoding="UTF-8" standalone="no"?>
<svg xmlns:ffdec="https://www.free-decompiler.com/flash" xmlns:xlink="http://www.w3.org/1999/xlink" ffdec:objectType="shape" height="26.8px" width="73.65px" xmlns="http://www.w3.org/2000/svg">
  <g transform="matrix(1.0, 0.0, 0.0, 1.0, 31.85, 20.55)">
    <path d="M18.25 -14.75 Q22.7 -16.3 26.95 -18.3 28.95 -19.25 30.8 -20.45 L31.2 -20.55 Q34.3 -19.9 32.35 -17.5 31.3 -16.25 29.8 -15.5 25.2 -13.2 20.35 -11.5 L17.8 -10.6 17.45 -10.05 Q15.5 -6.9 13.05 -4.05 15.55 -1.4 12.55 0.0 11.35 0.6 9.85 0.4 L9.4 0.3 9.7 1.2 Q9.9 1.75 9.5 2.2 L9.4 2.4 8.55 3.25 Q4.5 4.95 0.25 6.2 -0.35 6.4 -0.75 5.9 -2.5 3.85 -0.05 2.75 L2.7 1.5 1.9 1.25 Q-4.1 -0.2 -9.7 -2.8 L-10.3 -3.15 -10.8 -3.65 Q-11.1 -4.2 -10.7 -5.1 L-10.7 -5.15 -10.65 -5.25 Q-10.0 -6.55 -8.4 -7.0 L-0.45 -9.2 -2.15 -9.55 Q-8.1 -10.75 -13.7 -12.55 L-13.95 -12.3 Q-15.3 -10.85 -16.3 -9.1 -16.3 -8.4 -16.6 -7.8 L-17.15 -7.15 Q-18.6 -3.4 -21.75 -1.05 -22.35 0.15 -24.55 -0.2 -28.1 -0.8 -31.3 -2.25 -31.8 -2.45 -31.85 -3.1 -31.85 -5.05 -30.0 -5.25 L-24.0 -3.75 -23.95 -3.85 Q-21.45 -6.45 -20.0 -9.75 -19.05 -12.55 -17.0 -14.55 -16.85 -16.1 -15.3 -16.25 L-14.9 -16.15 -14.7 -16.25 -14.3 -16.05 2.05 -12.7 6.4 -11.6 Q10.85 -12.45 15.2 -13.75 15.55 -14.2 16.15 -14.2 L16.4 -14.1 18.25 -14.75 M7.5 -7.6 Q6.15 -6.45 4.2 -6.45 L2.35 -6.15 -3.05 -4.35 -0.85 -3.5 Q2.25 -2.2 5.6 -1.65 7.1 -1.45 8.15 -0.7 7.9 -1.35 8.1 -2.35 8.95 -6.05 11.75 -8.85 L11.8 -8.9 7.95 -8.0 7.85 -7.95 7.5 -7.6 M31.8 -0.45 Q26.55 3.75 20.0 4.6 19.35 4.7 19.0 4.05 17.1 0.6 20.85 -0.4 22.6 -0.9 24.3 -0.35 L39.85 -9.3 Q43.15 -8.45 40.85 -6.0 L38.95 -4.35 Q35.6 -2.05 31.8 -0.45" fill="#666666" fill-rule="evenodd" stroke="none"/>
  </g>
</svg>
