<?xml version="1.0" encoding="UTF-8" standalone="no"?>
<svg xmlns:ffdec="https://www.free-decompiler.com/flash" xmlns:xlink="http://www.w3.org/1999/xlink" ffdec:objectType="shape" height="29.1px" width="71.15px" xmlns="http://www.w3.org/2000/svg">
  <g transform="matrix(1.0, 0.0, 0.0, 1.0, 31.8, 22.95)">
    <path d="M16.6 -15.0 L16.85 -15.1 Q23.2 -17.85 28.5 -22.45 29.15 -22.95 29.9 -22.95 33.2 -22.3 31.35 -19.65 L29.7 -17.85 Q23.4 -12.5 15.65 -10.0 L15.45 -9.9 Q14.65 -7.9 14.1 -5.75 L13.25 -3.45 Q14.9 0.05 11.1 1.0 L9.3 0.95 8.95 1.8 8.25 2.65 Q6.75 4.25 4.85 5.2 2.5 6.45 -0.1 6.05 -1.8 5.85 -1.55 4.15 -1.2 2.3 0.85 1.8 L2.8 1.2 Q-2.75 -0.75 -8.55 -2.0 L-10.2 -2.65 Q-10.85 -2.75 -11.15 -3.35 -11.7 -4.05 -11.4 -4.85 -11.2 -5.95 -9.7 -6.5 -5.6 -7.95 -1.65 -9.65 L-14.25 -12.4 Q-15.75 -12.7 -16.95 -13.3 -19.7 -8.15 -21.75 -2.6 -22.0 -1.9 -22.4 -1.5 -22.9 -0.9 -23.8 -0.7 -27.0 0.0 -30.25 -0.7 -32.35 -1.2 -31.6 -3.2 -31.15 -4.4 -29.85 -4.35 L-24.95 -4.95 -22.85 -10.9 -21.2 -14.9 Q-20.25 -16.8 -18.55 -17.55 L-18.15 -17.7 -17.9 -17.8 -17.8 -17.75 -17.65 -17.8 -11.25 -16.2 -6.6 -15.05 3.75 -12.95 Q4.65 -12.85 5.25 -12.3 L5.85 -12.2 11.95 -13.35 Q12.7 -15.15 14.65 -15.85 L14.7 -15.9 Q16.05 -15.65 16.6 -15.0 M5.2 -8.1 Q3.1 -7.65 1.2 -6.5 L-2.0 -4.8 Q2.05 -3.75 6.0 -2.2 L7.9 -1.15 Q7.6 -2.5 8.35 -3.8 9.75 -6.2 10.65 -8.7 L9.5 -8.5 5.7 -8.25 5.2 -8.1 M26.35 -3.0 Q31.35 -7.05 36.6 -10.6 L36.95 -10.75 Q40.55 -10.3 38.7 -7.4 L37.8 -6.4 25.1 3.45 Q23.5 4.65 21.55 5.0 18.5 5.55 18.75 2.65 19.0 -0.55 22.3 -0.55 24.0 -0.6 25.25 -1.95 L26.35 -3.0" fill="#666666" fill-rule="evenodd" stroke="none"/>
  </g>
</svg>
