<?xml version="1.0" encoding="UTF-8" standalone="no"?>
<svg xmlns:ffdec="https://www.free-decompiler.com/flash" xmlns:xlink="http://www.w3.org/1999/xlink" ffdec:objectType="shape" height="29.9px" width="67.95px" xmlns="http://www.w3.org/2000/svg">
  <g transform="matrix(1.0, 0.0, 0.0, 1.0, 31.5, 23.75)">
    <path d="M14.35 -14.95 Q17.7 -16.25 20.95 -17.95 L31.45 -23.75 Q34.6 -23.05 32.65 -20.65 31.9 -19.75 30.85 -19.15 23.15 -14.65 15.05 -11.05 L14.6 -10.85 12.35 -5.95 Q11.95 -4.95 11.85 -3.9 14.7 -1.8 12.5 0.3 L11.85 0.6 Q7.7 1.35 7.9 -2.4 8.15 -5.9 9.55 -9.05 L9.7 -9.3 5.1 -8.75 4.75 -8.65 Q0.55 -7.6 -3.35 -5.55 L-4.55 -4.95 Q0.8 -2.85 6.0 -0.15 8.75 1.3 6.4 3.1 L6.0 3.35 5.4 4.15 4.2 5.1 Q1.0 6.9 -1.85 5.55 -2.45 5.25 -2.25 4.5 -1.55 2.25 1.1 1.9 L-0.35 0.95 -11.35 -3.95 Q-11.9 -4.2 -11.9 -4.85 -11.95 -6.75 -10.1 -7.0 L-10.05 -7.0 Q-8.7 -7.85 -7.05 -8.15 -5.55 -8.45 -4.2 -9.25 L-1.9 -10.45 Q-5.6 -11.3 -9.5 -11.35 L-15.65 -12.05 -16.2 -12.2 -16.4 -11.7 Q-18.25 -7.8 -20.65 -4.25 -20.9 -2.65 -21.85 -1.85 -22.15 -1.3 -23.0 -1.15 -26.85 -0.35 -30.55 -1.0 -31.25 -1.1 -31.4 -1.8 -31.85 -4.0 -29.7 -4.4 L-24.8 -4.2 -24.4 -4.7 -20.2 -13.4 -19.3 -15.0 -19.15 -15.4 Q-18.7 -16.5 -17.6 -16.55 -9.0 -14.55 -0.15 -13.9 L1.45 -13.75 Q3.6 -13.5 5.1 -12.35 L11.8 -14.05 11.95 -14.4 Q12.35 -15.3 13.3 -15.35 L14.35 -14.95 M35.55 -7.6 Q29.8 -0.9 22.45 4.05 20.5 5.4 19.15 3.5 18.55 2.6 18.65 1.45 18.9 -1.75 22.5 -1.2 L23.3 -1.0 34.3 -11.15 34.65 -11.35 Q37.7 -10.1 35.55 -7.6" fill="#666666" fill-rule="evenodd" stroke="none"/>
  </g>
</svg>
