<?xml version="1.0" encoding="UTF-8" standalone="no"?>
<svg xmlns:ffdec="https://www.free-decompiler.com/flash" xmlns:xlink="http://www.w3.org/1999/xlink" ffdec:objectType="shape" height="38.5px" width="60.0px" xmlns="http://www.w3.org/2000/svg">
  <g transform="matrix(1.0, 0.0, 0.0, 1.0, 30.75, 30.3)">
    <path d="M22.55 -30.3 Q25.65 -29.15 24.0 -26.1 22.4 -23.1 19.75 -20.75 16.5 -17.9 12.8 -15.9 L12.5 -13.6 Q12.1 -9.7 11.3 -5.85 13.45 -2.65 10.0 -1.4 L8.95 -1.5 Q6.5 -2.85 7.0 -5.95 L8.15 -12.85 8.3 -13.75 6.1 -13.0 -1.95 -10.65 -2.25 -10.1 -3.05 -9.3 -8.2 -6.25 Q-6.7 -5.0 -4.25 -4.0 0.7 -1.9 5.1 1.0 5.6 1.35 5.55 2.0 5.05 5.65 1.45 7.25 L0.75 7.6 Q-2.05 9.25 -2.6 6.2 -2.85 4.55 -1.25 3.8 L0.15 3.0 Q-3.85 0.75 -8.35 -1.15 -11.2 -2.35 -13.7 -3.9 -14.8 -4.6 -14.3 -5.85 -13.65 -7.6 -12.05 -8.75 L-9.6 -10.4 Q-14.25 -11.7 -18.5 -14.0 L-19.35 -10.6 Q-19.8 -7.15 -19.75 -3.7 -19.7 -0.3 -22.25 1.2 L-23.75 1.45 -29.95 0.05 -30.6 -0.6 Q-31.25 -2.65 -29.15 -3.25 L-25.95 -3.35 -24.25 -3.2 Q-24.0 -9.95 -22.1 -16.4 L-22.15 -17.05 Q-22.0 -19.0 -20.1 -19.15 L-19.5 -18.85 Q-14.4 -16.6 -9.1 -14.7 L-6.4 -13.7 -6.25 -13.75 Q1.45 -15.8 8.9 -18.8 L8.9 -19.15 Q8.9 -19.75 9.5 -20.1 10.05 -20.5 10.6 -20.5 L11.55 -20.05 12.45 -20.6 Q15.9 -22.85 18.6 -25.9 L21.5 -29.65 Q21.9 -30.3 22.55 -30.3 M28.85 -12.15 Q25.75 -4.75 22.15 2.4 21.6 3.55 20.4 3.5 17.25 3.4 17.6 0.15 17.8 -1.8 19.9 -2.1 22.65 -8.2 24.9 -14.55 25.5 -16.25 27.15 -16.45 30.15 -15.35 28.85 -12.15" fill="#666666" fill-rule="evenodd" stroke="none"/>
  </g>
</svg>
