<?xml version="1.0" encoding="UTF-8" standalone="no"?>
<svg xmlns:ffdec="https://www.free-decompiler.com/flash" xmlns:xlink="http://www.w3.org/1999/xlink" ffdec:objectType="shape" height="41.05px" width="59.05px" xmlns="http://www.w3.org/2000/svg">
  <g transform="matrix(1.0, 0.0, 0.0, 1.0, 31.9, 32.7)">
    <path d="M19.6 -32.65 L19.65 -32.7 Q22.7 -31.35 20.7 -28.25 19.65 -26.6 18.9 -24.9 15.1 -16.5 6.0 -13.45 L0.6 -11.45 Q-2.15 -10.35 -5.0 -10.1 L-9.8 -5.3 Q-3.15 -2.8 3.3 0.5 L4.05 1.15 Q5.35 2.15 3.75 4.15 1.8 6.65 -0.85 8.15 -1.6 8.6 -2.2 7.9 -3.8 6.1 -2.05 4.4 L-0.35 2.8 Q-6.4 -0.15 -12.75 -2.55 -14.5 -3.2 -14.6 -4.15 -15.2 -5.25 -13.8 -6.65 L-9.95 -10.75 -9.65 -11.05 Q-13.2 -12.0 -16.55 -13.4 L-19.75 -14.4 -20.1 -14.45 -20.15 -14.1 -20.4 -9.15 -20.25 -5.05 Q-20.1 -2.8 -20.6 -0.85 L-20.6 -0.8 Q-20.35 0.65 -21.35 1.1 -21.65 1.45 -22.2 1.35 L-22.4 1.3 -29.55 1.3 Q-32.45 1.15 -31.75 -1.3 -31.55 -2.1 -30.75 -2.3 L-30.3 -2.4 -24.2 -1.95 Q-24.0 -3.7 -24.1 -5.4 -24.2 -7.35 -23.75 -9.1 -24.4 -13.1 -23.6 -17.1 -23.75 -17.55 -23.4 -18.0 -22.8 -18.8 -21.95 -18.85 -19.75 -18.95 -17.95 -17.9 L-17.8 -17.75 -7.5 -14.5 Q-6.75 -14.25 -6.3 -13.8 -6.2 -13.9 -6.05 -13.95 L-5.1 -13.75 -4.15 -14.0 Q4.6 -16.25 11.8 -21.6 13.35 -22.75 14.3 -24.4 L16.95 -29.35 Q17.35 -31.95 19.6 -32.65 M26.65 -11.85 Q23.8 -6.0 22.6 0.3 22.1 3.2 19.6 4.6 L18.2 4.85 Q14.6 4.35 15.95 1.1 16.8 -0.9 18.9 -1.3 19.7 -4.8 20.9 -8.2 L21.3 -8.9 21.7 -10.0 22.15 -10.6 Q22.95 -13.25 24.3 -15.45 L25.1 -15.95 Q28.2 -15.05 26.65 -11.85" fill="#666666" fill-rule="evenodd" stroke="none"/>
  </g>
</svg>
