<?xml version="1.0" encoding="UTF-8" standalone="no"?>
<svg xmlns:ffdec="https://www.free-decompiler.com/flash" xmlns:xlink="http://www.w3.org/1999/xlink" ffdec:objectType="shape" height="60.55px" width="57.3px" xmlns="http://www.w3.org/2000/svg">
  <g transform="matrix(1.0, 0.0, 0.0, 1.0, 22.15, 73.05)">
    <path d="M-11.55 -57.8 Q-14.5 -56.8 -15.35 -53.5 L-16.7 -48.65 Q-16.95 -47.75 -16.85 -46.8 -18.6 -43.35 -17.5 -39.4 -17.2 -38.15 -15.9 -38.15 -11.8 -38.05 -12.6 -41.95 -12.75 -42.65 -13.4 -43.0 L-14.05 -43.25 -13.4 -45.65 Q-13.15 -46.2 -13.2 -46.75 -12.6 -47.4 -12.65 -48.3 L-12.65 -49.15 -9.95 -55.85 Q-9.65 -56.5 -10.1 -57.05 -10.7 -57.8 -11.55 -57.8 M-3.05 -33.35 L-2.8 -19.2 -11.9 -21.0 -19.35 -22.65 -19.7 -22.6 -19.95 -22.65 -20.4 -22.4 Q-21.6 -22.0 -21.6 -21.2 -22.35 -19.95 -22.05 -18.0 L-21.55 -13.9 Q-21.45 -12.4 -19.95 -12.5 -17.85 -12.7 -17.95 -14.9 L-18.15 -18.3 Q-10.15 -16.5 -2.05 -15.35 1.15 -14.9 0.4 -17.7 L0.4 -17.75 Q1.0 -24.1 1.0 -30.55 L1.0 -33.45 13.4 -32.85 13.45 -32.5 14.3 -33.0 Q14.1 -32.0 14.8 -30.5 16.5 -26.9 16.9 -22.9 L17.15 -22.2 Q17.55 -19.05 18.5 -16.0 18.9 -14.65 20.2 -14.55 21.5 -14.0 22.85 -14.9 L31.85 -20.0 Q32.25 -20.2 32.2 -20.65 32.15 -22.45 30.4 -22.65 25.85 -21.45 21.8 -18.95 L21.05 -22.5 Q20.2 -25.75 19.5 -29.05 19.05 -31.1 18.25 -33.0 18.25 -34.05 17.6 -34.5 L17.55 -34.65 Q17.7 -35.5 16.9 -35.9 16.45 -36.4 15.85 -36.4 L15.6 -36.35 15.55 -36.35 14.7 -36.4 1.5 -37.15 Q3.2 -44.95 4.1 -52.95 L4.5 -56.05 4.55 -56.95 Q5.8 -61.3 7.35 -65.65 L7.45 -66.6 Q9.75 -69.35 8.0 -71.95 7.65 -72.45 7.1 -72.45 4.85 -71.3 3.9 -68.6 1.1 -60.3 0.05 -51.6 -0.85 -43.95 -2.05 -36.4 -3.1 -35.35 -3.05 -33.35 M29.35 -67.75 Q25.95 -63.2 21.0 -60.35 17.8 -58.5 14.95 -56.3 14.65 -56.05 14.75 -55.65 15.6 -52.9 18.5 -54.35 26.35 -58.4 32.15 -65.1 L33.45 -66.45 Q36.8 -69.6 33.5 -72.7 L32.75 -73.05 Q28.85 -72.4 29.15 -68.65 L29.35 -67.75" fill="#666666" fill-rule="evenodd" stroke="none"/>
  </g>
</svg>
