<?xml version="1.0" encoding="UTF-8" standalone="no"?>
<svg xmlns:ffdec="https://www.free-decompiler.com/flash" xmlns:xlink="http://www.w3.org/1999/xlink" ffdec:objectType="shape" height="61.35px" width="58.7px" xmlns="http://www.w3.org/2000/svg">
  <g transform="matrix(1.0, 0.0, 0.0, 1.0, 21.4, 72.05)">
    <path d="M-15.65 -51.25 L-17.95 -44.85 Q-19.1 -41.05 -17.8 -37.4 -17.55 -36.75 -16.8 -36.6 -13.7 -35.95 -13.2 -38.8 -12.9 -40.6 -14.2 -41.75 -13.25 -46.55 -11.15 -51.1 -10.9 -51.6 -10.95 -52.15 -9.0 -55.05 -11.55 -56.85 L-12.05 -57.1 Q-14.65 -56.05 -15.15 -53.0 L-15.65 -51.25 M-2.1 -33.4 L-1.95 -30.85 -1.7 -19.6 -18.4 -21.55 -19.7 -21.35 Q-22.0 -20.55 -21.15 -18.25 L-20.9 -17.7 Q-21.15 -14.5 -20.4 -11.5 -20.25 -11.0 -19.75 -10.85 -17.25 -10.1 -17.05 -12.6 L-16.9 -16.9 Q-8.2 -16.8 0.35 -15.1 1.25 -14.95 1.75 -15.65 2.65 -17.0 2.55 -18.75 L2.15 -29.45 2.2 -32.5 12.55 -31.55 13.5 -28.0 13.85 -27.05 14.6 -25.8 16.15 -19.7 Q16.9 -16.3 19.0 -13.65 19.35 -13.1 20.05 -13.15 23.25 -13.5 26.3 -14.45 27.55 -14.85 28.45 -15.9 29.25 -16.9 28.5 -17.95 27.45 -19.4 25.75 -18.7 23.6 -17.85 21.3 -17.65 L19.75 -23.0 18.8 -26.3 17.7 -28.9 Q17.05 -31.75 15.9 -34.35 15.45 -35.3 14.4 -35.45 L2.45 -36.8 3.5 -48.8 Q4.1 -54.5 5.3 -60.05 6.3 -64.65 7.65 -69.1 7.9 -69.95 7.6 -70.75 7.1 -72.0 5.8 -72.05 3.7 -71.45 3.4 -69.15 L3.25 -68.6 Q1.15 -62.3 0.3 -55.75 L-1.3 -42.65 -1.65 -36.15 Q-2.4 -35.15 -2.1 -33.4 M37.3 -67.9 Q37.25 -70.25 34.95 -70.65 31.15 -69.95 31.55 -66.15 L31.6 -66.0 Q25.3 -60.6 17.6 -57.4 15.3 -56.4 16.55 -54.4 17.3 -53.25 18.6 -53.65 20.6 -54.3 22.6 -55.25 28.75 -58.3 34.1 -62.65 L36.0 -64.5 Q37.3 -65.95 37.3 -67.9" fill="#666666" fill-rule="evenodd" stroke="none"/>
  </g>
</svg>
