<?xml version="1.0" encoding="UTF-8" standalone="no"?>
<svg xmlns:ffdec="https://www.free-decompiler.com/flash" xmlns:xlink="http://www.w3.org/1999/xlink" ffdec:objectType="shape" height="62.85px" width="56.55px" xmlns="http://www.w3.org/2000/svg">
  <g transform="matrix(1.0, 0.0, 0.0, 1.0, 18.75, 71.75)">
    <path d="M-10.15 -55.5 Q-10.65 -56.5 -11.65 -56.5 -13.5 -55.75 -14.0 -53.6 -14.75 -50.35 -15.1 -47.0 L-16.0 -40.9 -16.3 -38.9 Q-16.7 -36.35 -14.45 -35.55 -12.75 -34.95 -11.95 -36.4 -11.45 -37.4 -11.65 -38.55 -11.75 -39.8 -12.4 -40.8 L-11.05 -49.8 -10.1 -54.05 Q-9.85 -54.8 -10.15 -55.5 M-2.2 -37.45 L-2.35 -36.3 Q-3.0 -35.3 -2.6 -33.65 L-2.4 -32.0 Q-2.2 -26.2 -1.2 -20.55 L-1.15 -20.25 -4.5 -20.95 -16.3 -20.75 -16.9 -20.95 -17.4 -20.7 Q-18.15 -20.65 -18.4 -19.9 L-18.4 -19.85 Q-19.05 -18.9 -18.45 -17.3 -17.95 -15.85 -18.05 -14.2 -18.3 -11.65 -17.45 -9.45 -17.2 -8.9 -16.65 -8.9 -14.15 -8.95 -14.35 -11.5 L-14.75 -16.5 -14.9 -17.65 -4.9 -17.2 Q-2.65 -17.1 -0.45 -16.2 L0.4 -16.0 0.9 -16.0 Q1.5 -15.95 1.95 -16.25 2.5 -16.55 2.5 -17.15 2.85 -17.9 2.7 -18.65 1.75 -25.15 1.2 -31.65 L1.1 -32.7 11.55 -29.4 12.1 -29.2 12.3 -28.8 12.65 -27.3 Q12.8 -24.0 14.2 -21.0 L16.7 -15.45 Q17.5 -13.7 18.6 -12.25 19.3 -10.4 21.55 -11.25 L24.45 -11.9 Q28.45 -12.35 31.3 -15.1 31.65 -15.4 31.6 -15.8 31.4 -17.35 29.9 -17.5 26.95 -16.2 23.8 -15.7 L21.05 -14.95 Q18.5 -20.6 16.4 -26.35 15.9 -27.7 15.9 -29.2 L15.8 -30.0 15.85 -30.15 Q16.05 -31.5 14.75 -32.0 10.35 -33.75 5.7 -35.05 L1.35 -36.4 2.05 -40.35 3.15 -46.1 Q4.55 -52.5 5.25 -59.1 L5.55 -62.2 Q5.7 -64.6 6.7 -66.65 7.65 -67.1 8.15 -68.2 L8.5 -69.35 Q8.95 -71.4 6.95 -71.75 5.6 -71.2 4.95 -70.25 3.8 -69.45 3.3 -67.9 2.1 -64.75 1.95 -61.3 1.75 -56.35 0.75 -51.6 L-0.8 -45.1 -1.2 -43.15 -2.2 -37.45 M37.25 -62.85 Q37.8 -63.4 37.8 -64.15 37.75 -66.85 35.15 -67.6 32.0 -67.6 32.25 -64.65 32.3 -64.05 32.65 -63.45 26.65 -58.5 19.0 -57.3 16.45 -56.9 15.15 -54.95 14.7 -54.4 15.2 -53.8 16.5 -52.2 18.55 -53.05 20.35 -53.8 22.3 -54.15 24.05 -54.4 25.5 -55.3 32.2 -57.7 37.25 -62.85" fill="#666666" fill-rule="evenodd" stroke="none"/>
  </g>
</svg>
