<?xml version="1.0" encoding="UTF-8" standalone="no"?>
<svg xmlns:ffdec="https://www.free-decompiler.com/flash" xmlns:xlink="http://www.w3.org/1999/xlink" ffdec:objectType="shape" height="63.3px" width="56.6px" xmlns="http://www.w3.org/2000/svg">
  <g transform="matrix(1.0, 0.0, 0.0, 1.0, 17.55, 71.6)">
    <path d="M-13.6 -50.6 Q-13.9 -45.6 -15.25 -40.85 L-15.55 -39.5 Q-16.0 -36.25 -13.8 -34.05 -12.6 -32.95 -11.25 -33.85 -9.0 -35.25 -10.0 -37.8 -10.4 -38.85 -11.45 -39.25 L-10.8 -41.85 Q-10.7 -42.35 -10.75 -42.9 -9.4 -47.25 -9.1 -51.9 L-9.05 -52.95 Q-9.0 -55.15 -11.1 -55.45 -13.8 -54.5 -13.6 -51.45 L-13.6 -50.6 M-2.4 -34.75 Q-3.35 -33.6 -2.85 -31.45 -1.6 -26.2 -1.2 -20.85 L-15.3 -20.65 Q-16.5 -20.6 -16.9 -19.85 -18.05 -18.95 -17.2 -17.05 -16.8 -16.15 -16.75 -15.2 -16.65 -12.25 -16.15 -9.35 -16.05 -8.75 -15.45 -8.55 -13.05 -7.75 -12.75 -10.15 L-12.45 -12.9 Q-12.3 -14.75 -12.65 -16.4 -6.3 -16.7 0.05 -16.6 L0.75 -16.65 Q2.55 -16.85 2.7 -18.2 L2.85 -19.05 Q2.7 -25.2 1.7 -31.1 L7.55 -29.3 Q10.05 -28.65 12.15 -27.35 L12.4 -26.7 13.25 -24.85 Q15.05 -18.9 17.2 -13.0 17.95 -11.0 19.25 -9.4 20.75 -7.65 22.9 -8.65 26.75 -10.5 30.75 -12.0 L31.5 -12.7 Q32.55 -14.85 30.2 -15.45 L27.8 -15.3 23.7 -13.65 22.05 -12.9 Q19.7 -18.6 17.6 -24.55 17.25 -25.55 17.05 -26.6 L16.85 -27.0 Q16.65 -28.7 15.55 -29.7 L15.4 -29.9 Q14.4 -31.25 12.8 -31.75 L1.9 -35.55 2.85 -43.0 4.9 -56.15 Q5.85 -62.05 7.8 -67.7 L8.1 -69.35 Q8.05 -71.35 6.05 -71.6 3.85 -71.0 3.65 -68.65 3.5 -66.95 2.9 -65.3 1.2 -60.7 0.65 -55.85 L0.25 -53.2 Q-0.75 -48.0 -1.25 -42.7 L-2.3 -36.6 -2.4 -34.75 M37.0 -62.8 Q33.35 -63.35 32.5 -60.05 L32.5 -59.95 Q25.3 -58.35 18.0 -57.25 15.8 -56.9 14.85 -55.1 14.4 -54.15 15.15 -53.4 16.6 -51.95 18.65 -52.75 L19.95 -53.15 Q27.35 -54.45 34.6 -56.3 37.7 -57.05 38.85 -59.75 L39.05 -60.55 Q39.0 -62.6 37.0 -62.8" fill="#666666" fill-rule="evenodd" stroke="none"/>
  </g>
</svg>
