<?xml version="1.0" encoding="UTF-8" standalone="no"?>
<svg xmlns:ffdec="https://www.free-decompiler.com/flash" xmlns:xlink="http://www.w3.org/1999/xlink" ffdec:objectType="shape" height="71.6px" width="37.85px" xmlns="http://www.w3.org/2000/svg">
  <g transform="matrix(1.0, 0.0, 0.0, 1.0, 9.35, 70.65)">
    <path d="M22.9 -48.05 Q24.95 -49.3 27.2 -48.05 28.45 -47.3 28.5 -45.8 28.4 -44.65 27.65 -43.85 26.05 -42.3 23.75 -43.15 L11.4 -47.6 Q10.3 -48.0 9.8 -49.05 8.65 -51.55 11.35 -52.25 17.0 -50.0 22.9 -48.05 M7.55 -64.9 Q4.4 -58.7 3.65 -51.85 L2.85 -45.3 Q2.25 -40.75 2.0 -36.05 4.8 -35.85 4.55 -32.85 L4.5 -32.65 Q7.05 -29.35 9.05 -25.6 10.1 -23.7 11.7 -22.25 12.6 -21.35 12.6 -20.35 13.0 -19.5 13.05 -18.45 L13.25 -15.65 Q13.9 -9.45 15.15 -3.35 L19.1 -3.25 21.25 -2.75 Q23.7 -2.1 22.55 0.1 22.25 0.6 21.75 0.65 L13.6 0.95 Q12.45 0.95 12.1 -0.1 11.45 -1.6 11.15 -3.2 L9.0 -16.15 8.7 -17.7 Q3.3 -16.3 -1.9 -14.25 -3.6 -13.55 -4.55 -12.65 -3.2 -9.9 -2.3 -7.0 -2.05 -5.95 -2.55 -5.15 -3.95 -2.9 -5.75 -4.75 -6.65 -5.6 -6.9 -6.85 -7.25 -8.4 -8.05 -9.75 -9.5 -12.15 -9.35 -14.85 -9.3 -15.35 -8.9 -15.55 L-3.75 -17.9 Q1.0 -20.05 6.15 -21.05 L1.5 -28.85 0.95 -30.1 -0.75 -29.95 Q-1.95 -30.3 -2.0 -31.55 L-2.05 -34.0 Q-3.55 -36.4 -4.2 -39.2 L-5.2 -42.65 Q-5.65 -44.45 -6.5 -46.05 -8.05 -49.05 -4.95 -50.1 L-4.6 -50.05 Q-4.15 -50.0 -3.85 -49.65 -2.2 -47.35 -1.3 -44.65 -0.9 -47.85 -0.65 -51.1 -0.2 -57.2 2.15 -62.7 L2.35 -63.4 Q2.5 -64.1 3.1 -64.6 3.6 -65.95 3.7 -67.4 3.7 -69.95 6.05 -70.65 6.85 -70.65 7.35 -69.95 8.55 -68.25 8.05 -66.2 L7.55 -64.9" fill="#666666" fill-rule="evenodd" stroke="none"/>
  </g>
</svg>
