<?xml version="1.0" encoding="UTF-8" standalone="no"?>
<svg xmlns:ffdec="https://www.free-decompiler.com/flash" xmlns:xlink="http://www.w3.org/1999/xlink" ffdec:objectType="shape" height="71.1px" width="26.35px" xmlns="http://www.w3.org/2000/svg">
  <g transform="matrix(1.0, 0.0, 0.0, 1.0, 4.3, 69.5)">
    <path d="M-2.65 -46.9 L-0.95 -44.05 -0.1 -42.8 -0.15 -42.3 -0.45 -39.9 -0.9 -36.3 Q-1.15 -34.6 -1.0 -32.8 -2.15 -30.35 0.2 -29.8 L0.25 -29.75 1.45 -26.7 Q2.6 -23.2 3.9 -19.8 L3.7 -19.7 Q0.55 -17.9 -2.95 -16.65 -4.45 -16.1 -4.3 -14.7 -4.35 -13.95 -3.85 -12.9 L-1.2 -8.1 -0.6 -7.2 2.55 -7.15 Q3.2 -7.85 2.95 -8.9 2.4 -11.2 0.85 -13.15 L0.5 -13.6 4.85 -15.65 4.75 -14.85 Q4.5 -11.5 3.55 -8.3 2.4 -4.65 2.4 -0.8 2.2 0.0 2.45 0.5 L2.85 1.0 Q4.15 2.0 5.1 1.4 8.2 1.65 11.35 1.5 13.35 1.45 13.15 -0.5 12.95 -2.2 11.35 -2.35 L6.6 -2.2 8.35 -10.45 9.15 -13.85 9.4 -15.95 Q9.6 -16.45 9.45 -17.05 L9.2 -17.9 12.65 -19.95 Q13.8 -20.65 14.25 -21.7 15.1 -22.7 14.3 -23.75 L13.9 -24.25 Q9.45 -29.05 3.95 -32.75 L3.35 -33.2 3.2 -33.4 3.3 -34.55 3.4 -36.25 3.55 -37.85 5.2 -35.8 6.35 -34.4 Q7.9 -32.35 10.3 -31.8 11.3 -31.55 11.9 -32.3 12.6 -33.1 12.4 -34.15 11.9 -36.75 9.15 -36.95 8.8 -36.95 8.55 -37.25 L4.05 -43.4 4.55 -49.45 Q4.9 -55.05 6.15 -60.45 L6.4 -61.2 Q7.55 -64.35 7.85 -67.65 7.95 -68.8 6.8 -69.25 L6.05 -69.5 Q3.75 -68.7 3.35 -66.1 L3.1 -65.2 Q1.0 -58.9 0.75 -52.2 L0.5 -48.3 -0.55 -49.45 -0.95 -49.7 -1.2 -49.75 Q-3.85 -49.2 -2.65 -46.9 M8.35 -48.7 Q7.85 -49.2 7.2 -49.2 4.8 -48.6 5.85 -46.4 6.3 -45.45 7.15 -44.85 L12.5 -41.25 Q15.75 -39.3 19.2 -38.05 L20.2 -38.0 Q22.2 -38.5 22.05 -40.6 L21.65 -41.85 Q20.6 -43.5 18.6 -42.95 18.05 -42.85 17.55 -42.55 13.1 -45.0 9.2 -47.95 L8.35 -48.7 M6.75 -23.95 L6.1 -25.8 9.25 -23.25 8.6 -22.85 7.65 -22.25 6.75 -23.95" fill="#666666" fill-rule="evenodd" stroke="none"/>
  </g>
</svg>
