<?xml version="1.0" encoding="UTF-8" standalone="no"?>
<svg xmlns:ffdec="https://www.free-decompiler.com/flash" xmlns:xlink="http://www.w3.org/1999/xlink" ffdec:objectType="shape" height="35.05px" width="18.0px" xmlns="http://www.w3.org/2000/svg">
  <g transform="matrix(1.0, 0.0, 0.0, 1.0, 2.75, 34.05)">
    <path d="M-2.3 -16.35 Q-2.55 -15.45 -1.85 -14.1 L-0.1 -11.35 -0.5 -9.45 -2.0 -4.85 -2.1 -3.2 Q-2.9 -2.0 -2.75 -0.95 -2.9 0.6 -1.3 0.9 L-0.85 0.95 2.5 0.9 6.65 0.65 8.3 0.7 Q10.1 -0.4 8.85 -2.1 8.3 -2.9 7.4 -2.95 L1.5 -2.7 2.0 -5.05 2.5 -7.5 2.7 -7.9 Q3.9 -6.1 5.65 -7.7 6.3 -8.3 6.0 -9.25 5.4 -11.1 4.0 -12.5 4.9 -14.65 4.95 -16.9 L5.1 -17.15 6.3 -17.9 Q9.5 -19.9 12.95 -21.4 14.75 -21.9 15.05 -23.2 15.5 -23.9 15.0 -24.7 L14.4 -25.5 13.35 -26.55 12.55 -27.5 Q7.1 -31.25 1.1 -33.95 L0.75 -34.05 Q-1.9 -33.9 -1.05 -31.5 -0.9 -31.05 -0.55 -30.85 L-0.25 -29.85 0.3 -28.25 Q1.4 -24.0 1.85 -19.65 L-1.5 -17.65 Q-2.3 -17.15 -2.3 -16.35 M9.85 -25.3 L10.05 -25.0 10.55 -24.3 5.05 -21.45 Q4.7 -25.1 3.8 -28.6 L9.85 -25.3" fill="#666666" fill-rule="evenodd" stroke="none"/>
  </g>
</svg>
