<?xml version="1.0" encoding="UTF-8" standalone="no"?>
<svg xmlns:ffdec="https://www.free-decompiler.com/flash" xmlns:xlink="http://www.w3.org/1999/xlink" ffdec:objectType="shape" height="37.95px" width="21.35px" xmlns="http://www.w3.org/2000/svg">
  <g transform="matrix(1.0, 0.0, 0.0, 1.0, 1.15, 68.95)">
    <path d="M-1.15 -37.8 Q-1.2 -34.6 -0.4 -31.6 L0.05 -31.15 Q2.2 -30.5 2.3 -32.6 L2.55 -39.35 2.7 -43.1 Q7.85 -38.95 13.7 -35.9 L14.3 -35.7 Q16.55 -35.1 17.55 -36.85 17.95 -37.5 17.75 -38.3 L17.7 -38.45 Q20.45 -37.85 20.2 -40.65 19.95 -43.55 17.05 -43.4 13.6 -43.2 10.7 -45.4 8.0 -47.35 5.1 -48.6 3.4 -48.25 3.25 -47.3 L2.95 -47.55 3.25 -50.8 Q3.8 -57.35 6.65 -63.35 7.5 -65.15 7.8 -67.1 8.05 -68.5 6.6 -68.9 L6.25 -68.95 Q4.05 -68.3 3.45 -65.7 L2.85 -63.9 Q0.3 -57.75 -0.35 -51.15 L-0.6 -48.35 Q-1.4 -47.7 -0.75 -46.45 L-1.15 -37.8 M13.95 -39.7 L13.35 -40.05 14.2 -39.7 13.95 -39.7" fill="#666666" fill-rule="evenodd" stroke="none"/>
  </g>
</svg>
