<?xml version="1.0" encoding="UTF-8" standalone="no"?>
<svg xmlns:ffdec="https://www.free-decompiler.com/flash" xmlns:xlink="http://www.w3.org/1999/xlink" ffdec:objectType="shape" height="71.4px" width="28.3px" xmlns="http://www.w3.org/2000/svg">
  <g transform="matrix(1.0, 0.0, 0.0, 1.0, 6.15, 70.45)">
    <path d="M-1.3 -31.55 L-0.75 -31.05 -0.5 -30.2 -0.3 -28.95 0.0 -20.55 0.0 -19.65 Q-0.15 -18.5 0.05 -17.5 -0.45 -16.85 -0.6 -15.85 L-1.0 -14.0 Q-2.35 -9.1 -4.9 -4.65 -6.1 -2.6 -6.15 -0.35 L-5.75 0.4 Q-4.9 1.0 -4.2 0.9 L-2.7 0.95 3.7 0.4 Q4.8 0.35 4.95 -0.8 5.25 -2.6 3.45 -2.85 L-1.6 -2.8 Q0.45 -6.85 1.95 -11.1 L2.55 -13.1 3.5 -12.05 4.7 -10.6 5.3 -10.05 Q6.4 -7.5 8.8 -8.3 9.3 -8.45 9.4 -8.95 9.75 -10.95 8.05 -12.4 L7.1 -13.35 4.65 -16.4 6.05 -17.85 Q9.25 -21.9 13.45 -24.75 14.7 -25.6 15.5 -26.8 L15.85 -27.2 Q16.5 -28.35 15.95 -29.1 L15.8 -29.25 Q15.4 -29.75 14.75 -29.85 11.4 -31.2 7.9 -32.15 4.6 -33.05 1.45 -34.15 L1.4 -36.75 Q1.15 -40.8 1.6 -44.75 5.45 -42.55 9.5 -40.75 12.4 -39.45 15.6 -38.8 17.45 -38.45 18.9 -39.45 19.75 -40.05 19.65 -41.05 21.6 -40.85 22.05 -42.8 22.4 -44.3 21.25 -45.3 19.2 -47.05 16.7 -45.75 L16.05 -45.8 Q11.6 -48.35 6.9 -50.45 L4.45 -51.25 Q2.0 -50.9 2.95 -48.7 3.15 -48.2 3.65 -48.0 8.35 -46.1 12.8 -43.6 L13.1 -43.45 12.95 -43.3 Q10.4 -43.8 8.0 -45.3 5.1 -47.1 2.1 -48.5 L2.85 -52.1 3.7 -55.5 4.6 -58.8 8.4 -67.75 Q9.25 -69.95 6.95 -70.45 4.85 -69.8 4.25 -67.45 L3.4 -65.0 Q1.25 -60.3 0.0 -55.4 -1.15 -50.75 -1.7 -46.0 -2.3 -40.9 -2.2 -35.65 -2.15 -34.05 -1.7 -32.55 -1.75 -32.05 -1.3 -31.55 M10.15 -27.1 Q6.55 -24.1 3.5 -20.55 L3.4 -21.9 Q3.15 -24.45 3.3 -27.05 L3.15 -29.9 10.7 -27.5 10.15 -27.1" fill="#666666" fill-rule="evenodd" stroke="none"/>
  </g>
</svg>
