<?xml version="1.0" encoding="UTF-8" standalone="no"?>
<svg xmlns:ffdec="https://www.free-decompiler.com/flash" xmlns:xlink="http://www.w3.org/1999/xlink" ffdec:objectType="shape" height="74.2px" width="34.15px" xmlns="http://www.w3.org/2000/svg">
  <g transform="matrix(1.0, 0.0, 0.0, 1.0, 10.4, 72.75)">
    <path d="M-1.7 -31.85 Q-1.4 -29.7 -1.25 -27.55 -0.95 -23.4 -1.3 -19.2 -1.45 -17.65 -1.0 -16.45 -3.2 -14.9 -4.55 -12.25 L-5.15 -10.95 Q-6.35 -8.5 -7.8 -6.2 -9.7 -4.1 -10.0 -1.65 L-10.35 -0.85 Q-10.5 0.15 -9.9 0.65 -9.65 1.0 -9.05 1.05 L-8.75 1.05 Q-4.95 1.85 -1.25 0.95 0.65 0.5 -0.15 -1.3 -0.6 -2.35 -1.65 -2.4 L-5.65 -2.25 -4.4 -4.35 Q-2.9 -6.6 -2.2 -9.05 0.0 -11.6 1.75 -14.3 3.35 -15.7 2.85 -17.95 2.4 -20.05 2.35 -22.3 L2.15 -30.5 10.8 -28.55 10.8 -28.5 Q7.55 -22.25 3.45 -16.6 2.85 -16.2 2.8 -15.6 2.55 -15.15 2.85 -14.7 3.2 -14.1 3.65 -13.75 4.6 -12.55 6.0 -11.9 L8.25 -10.6 Q10.25 -9.35 12.3 -9.75 13.0 -9.9 13.05 -10.6 13.3 -13.6 9.9 -14.35 9.35 -14.5 8.85 -14.8 L7.4 -15.6 7.75 -16.45 15.0 -27.1 Q15.6 -28.0 15.8 -29.0 16.3 -31.25 14.5 -31.85 13.65 -32.35 12.35 -32.15 L1.95 -34.5 1.95 -34.85 1.7 -35.45 1.7 -35.75 Q1.5 -40.6 2.25 -45.25 8.35 -40.85 15.35 -38.25 16.75 -37.7 17.65 -38.8 18.5 -39.95 18.2 -41.5 17.55 -44.35 14.45 -43.55 L13.3 -43.05 Q8.8 -45.0 4.85 -47.85 11.65 -45.6 18.5 -43.75 20.55 -43.15 22.4 -44.05 23.75 -44.65 23.75 -46.2 23.7 -48.05 22.0 -48.9 19.05 -50.35 17.1 -48.05 L4.15 -52.2 4.0 -52.15 5.9 -57.1 6.0 -57.7 Q7.7 -62.55 8.85 -67.6 L8.95 -68.25 Q10.6 -71.0 8.1 -72.6 L7.7 -72.75 Q5.35 -71.6 5.3 -68.55 L5.25 -68.35 Q3.15 -60.2 0.2 -52.2 L-0.45 -50.35 Q-1.75 -49.7 -0.95 -48.35 -2.45 -41.55 -1.65 -34.5 L-1.55 -34.15 Q-1.9 -33.2 -1.7 -31.85" fill="#666666" fill-rule="evenodd" stroke="none"/>
  </g>
</svg>
