<?xml version="1.0" encoding="UTF-8" standalone="no"?>
<svg xmlns:ffdec="https://www.free-decompiler.com/flash" xmlns:xlink="http://www.w3.org/1999/xlink" ffdec:objectType="shape" height="72.25px" width="36.5px" xmlns="http://www.w3.org/2000/svg">
  <g transform="matrix(1.0, 0.0, 0.0, 1.0, 12.6, 70.35)">
    <path d="M-1.7 -50.95 L-1.95 -51.05 Q-4.5 -50.8 -3.6 -48.5 L-3.1 -47.65 -2.55 -46.85 -3.15 -40.35 -3.15 -35.05 -3.1 -33.35 Q-3.1 -32.4 -2.7 -31.9 L-2.55 -31.1 Q-2.35 -30.2 -2.3 -29.2 -2.1 -26.35 -1.35 -23.65 L-0.95 -18.7 -2.55 -17.05 -3.25 -16.15 Q-6.4 -12.1 -9.85 -8.2 L-12.15 -5.0 -12.55 -4.35 -12.5 -3.55 -12.4 -3.3 -12.25 -2.95 Q-11.8 -1.95 -10.85 -1.4 L-6.0 1.55 -5.35 1.8 Q-3.2 2.3 -2.15 0.6 -1.7 -0.05 -2.15 -0.8 -3.0 -2.15 -4.7 -1.75 -6.5 -3.15 -8.4 -4.25 L-2.5 -11.2 2.2 -17.15 2.4 -17.85 2.35 -18.0 2.45 -18.75 Q2.35 -23.3 1.55 -27.7 1.2 -29.45 1.15 -31.3 L1.1 -31.6 10.85 -29.95 11.15 -29.85 11.0 -29.35 10.35 -27.45 7.35 -18.95 Q6.3 -17.85 6.3 -16.75 6.25 -16.25 6.5 -15.55 6.8 -14.8 7.6 -14.55 L12.8 -12.2 Q13.9 -11.6 15.15 -11.7 16.55 -11.8 16.5 -13.2 16.45 -14.95 14.65 -15.5 L13.1 -16.1 10.55 -17.1 11.45 -19.6 11.6 -20.7 Q13.1 -25.25 15.1 -29.65 L15.35 -30.9 Q15.4 -31.8 14.3 -32.4 L12.5 -33.1 Q7.75 -34.3 2.9 -34.95 L0.75 -35.15 0.5 -35.2 0.25 -35.25 0.6 -42.75 3.25 -39.6 Q4.15 -38.55 5.2 -37.65 7.65 -35.6 10.8 -35.35 11.85 -35.25 12.2 -36.3 13.1 -38.9 10.7 -40.0 L9.35 -40.15 Q7.7 -39.8 6.4 -41.2 3.6 -44.35 1.25 -47.9 L1.3 -48.1 1.45 -48.8 Q1.85 -48.4 2.75 -48.2 12.4 -46.25 22.35 -46.85 23.5 -46.9 23.8 -47.95 24.05 -48.8 23.8 -49.6 23.45 -50.75 22.35 -51.3 L21.4 -51.6 Q19.25 -52.1 18.35 -50.4 L18.3 -50.25 Q12.7 -50.0 7.05 -51.15 L6.1 -51.3 Q4.0 -51.7 2.0 -51.3 L1.95 -51.3 3.5 -58.2 3.7 -59.05 Q5.05 -63.9 8.05 -67.95 L8.2 -68.6 Q8.05 -70.2 6.5 -70.35 4.75 -69.65 3.7 -67.9 2.25 -65.6 1.35 -63.05 0.05 -59.4 -0.75 -55.6 L-1.7 -50.95" fill="#666666" fill-rule="evenodd" stroke="none"/>
  </g>
</svg>
