<?xml version="1.0" encoding="UTF-8" standalone="no"?>
<svg xmlns:ffdec="https://www.free-decompiler.com/flash" xmlns:xlink="http://www.w3.org/1999/xlink" ffdec:objectType="shape" height="72.25px" width="45.05px" xmlns="http://www.w3.org/2000/svg">
  <g transform="matrix(1.0, 0.0, 0.0, 1.0, 17.45, 71.75)">
    <path d="M-6.3 -53.3 L-7.0 -53.5 Q-9.3 -52.75 -8.9 -50.05 L-8.65 -48.15 Q-8.3 -43.05 -7.2 -38.05 -6.3 -34.0 -2.85 -31.9 L-2.55 -31.8 -2.45 -30.55 Q-2.35 -26.35 -1.65 -22.25 L-1.3 -19.65 -2.2 -18.9 -3.3 -18.0 Q-7.35 -14.95 -11.8 -12.55 -14.25 -11.25 -16.4 -9.5 -17.2 -9.2 -17.35 -8.5 L-17.35 -7.65 -17.1 -6.95 Q-16.35 -5.35 -15.25 -4.05 -14.45 -3.1 -14.05 -1.95 -13.4 -0.2 -11.8 0.4 -11.05 0.7 -10.45 0.05 -9.25 -1.2 -10.15 -2.8 L-12.35 -6.35 -13.15 -7.5 -13.2 -7.5 -10.9 -8.95 -4.95 -12.7 0.3 -16.0 Q1.25 -16.65 1.6 -17.55 L1.95 -18.55 Q2.2 -23.75 1.15 -28.75 L1.05 -30.15 1.05 -31.95 9.2 -30.6 11.55 -30.1 11.65 -27.8 12.15 -18.75 12.65 -14.45 12.65 -13.75 Q12.8 -12.55 13.95 -12.45 L19.85 -12.75 22.15 -13.2 Q23.9 -13.55 23.45 -15.25 23.1 -16.4 21.9 -16.45 19.8 -16.95 17.95 -16.45 L15.9 -15.95 Q15.85 -20.45 15.35 -24.85 15.1 -27.0 15.2 -29.2 L15.15 -31.4 Q15.05 -32.85 13.7 -33.1 L9.0 -34.45 6.5 -34.8 1.75 -35.4 2.8 -43.3 3.5 -48.85 Q3.9 -53.25 4.7 -57.6 5.65 -62.95 8.15 -67.8 9.3 -70.1 7.5 -71.45 L6.85 -71.75 Q4.95 -71.15 4.55 -69.0 L4.2 -68.1 Q2.15 -63.3 1.25 -58.25 0.45 -53.6 0.2 -48.85 -0.45 -46.65 -0.7 -44.35 L-1.75 -36.6 -2.75 -36.7 Q-4.65 -41.25 -5.0 -46.25 L-5.1 -49.1 Q-5.1 -51.0 -5.7 -52.7 -5.85 -53.1 -6.3 -53.3 M27.6 -52.45 Q27.5 -55.0 25.15 -55.55 22.3 -55.85 21.85 -53.35 L21.85 -53.25 Q20.65 -53.4 19.95 -52.8 L17.15 -52.65 11.6 -52.45 10.0 -52.65 Q8.5 -52.95 7.35 -52.05 6.3 -51.2 7.05 -50.05 7.9 -48.85 9.5 -48.95 L10.8 -48.95 Q15.95 -48.45 20.9 -49.6 L21.05 -49.65 Q21.75 -49.5 22.55 -49.65 L26.25 -50.55 Q27.65 -50.95 27.6 -52.45" fill="#666666" fill-rule="evenodd" stroke="none"/>
  </g>
</svg>
