<?xml version="1.0" encoding="UTF-8" standalone="no"?>
<svg xmlns:ffdec="https://www.free-decompiler.com/flash" xmlns:xlink="http://www.w3.org/1999/xlink" ffdec:objectType="shape" height="70.7px" width="51.9px" xmlns="http://www.w3.org/2000/svg">
  <g transform="matrix(1.0, 0.0, 0.0, 1.0, 20.5, 73.65)">
    <path d="M-7.55 -54.8 L-8.1 -55.15 Q-10.4 -53.95 -11.35 -51.25 -14.3 -43.0 -12.95 -33.85 -12.85 -33.05 -12.2 -32.45 -10.25 -30.55 -8.45 -32.8 -7.8 -33.65 -7.9 -34.85 -8.1 -36.4 -9.7 -36.75 -10.2 -43.2 -7.7 -48.95 -7.45 -49.5 -7.35 -50.15 -5.1 -52.75 -7.55 -54.8 M-1.85 -43.05 L-1.85 -37.65 -1.65 -37.65 Q-2.1 -36.75 -2.1 -35.45 L-2.1 -30.8 Q-2.2 -25.2 -1.65 -19.8 -6.15 -18.3 -10.3 -15.95 -11.45 -15.3 -12.7 -14.75 -16.0 -13.4 -19.0 -11.6 -20.5 -11.1 -20.5 -10.15 L-20.4 -9.75 -20.4 -9.65 Q-20.05 -8.6 -19.4 -8.25 L-17.05 -5.9 Q-15.25 -4.4 -13.25 -3.2 -12.15 -2.55 -11.5 -3.6 -10.15 -5.55 -12.05 -7.15 L-14.95 -9.4 Q-8.15 -12.4 -1.4 -15.65 -0.25 -16.2 0.65 -17.0 2.1 -17.6 1.95 -19.7 1.55 -25.9 1.75 -32.0 L1.95 -32.0 6.05 -31.6 11.2 -30.6 12.2 -30.5 12.45 -29.95 12.9 -28.55 Q13.55 -24.6 14.35 -20.7 L14.5 -19.1 14.55 -18.05 14.6 -16.5 15.15 -13.9 15.0 -13.85 Q14.7 -13.7 14.75 -13.25 15.35 -10.35 18.45 -11.5 22.45 -13.05 26.15 -15.2 28.35 -16.45 26.9 -18.45 26.5 -19.1 25.75 -19.1 L18.7 -15.7 18.35 -19.15 18.4 -19.2 Q17.25 -25.6 15.7 -31.85 16.05 -32.45 15.7 -33.25 15.35 -34.05 14.5 -34.1 8.3 -34.65 2.4 -36.1 L2.0 -36.2 2.1 -37.5 2.05 -38.3 2.3 -39.55 2.1 -46.15 Q1.65 -51.85 3.45 -56.9 L5.35 -56.6 5.9 -58.0 6.0 -58.6 Q7.7 -63.45 8.85 -68.5 L8.95 -69.15 Q10.6 -71.9 8.1 -73.5 L7.7 -73.65 Q5.35 -72.5 5.3 -69.45 L5.25 -69.25 3.75 -63.9 3.65 -63.95 Q0.95 -62.45 0.05 -59.15 -2.15 -51.3 -1.55 -43.0 L-1.85 -43.05 M29.45 -59.55 Q26.85 -60.3 25.5 -58.4 25.0 -57.6 25.1 -56.65 17.45 -54.25 9.15 -53.75 5.4 -53.5 6.45 -50.6 6.75 -49.75 7.65 -49.9 L15.85 -50.8 Q23.0 -51.25 29.55 -54.3 31.8 -55.35 31.3 -57.85 30.95 -59.4 29.45 -59.55" fill="#666666" fill-rule="evenodd" stroke="none"/>
  </g>
</svg>
