<?xml version="1.0" encoding="UTF-8" standalone="no"?>
<svg xmlns:ffdec="https://www.free-decompiler.com/flash" xmlns:xlink="http://www.w3.org/1999/xlink" ffdec:objectType="shape" height="67.25px" width="50.9px" xmlns="http://www.w3.org/2000/svg">
  <g transform="matrix(1.0, 0.0, 0.0, 1.0, 20.3, 72.05)">
    <path d="M-12.45 -51.15 L-12.5 -50.65 Q-14.2 -46.3 -14.75 -41.6 -15.2 -37.95 -14.25 -34.4 -13.95 -33.45 -12.95 -33.25 -9.9 -32.7 -9.75 -35.55 -9.65 -37.5 -11.45 -38.25 -11.35 -42.9 -10.05 -47.35 -9.45 -49.5 -8.25 -51.35 -7.2 -52.95 -8.15 -54.45 -8.6 -55.2 -9.4 -55.2 -11.25 -54.6 -11.85 -52.65 L-12.45 -51.15 M-2.7 -32.35 L-2.6 -31.2 -2.9 -20.75 -2.9 -20.05 Q-6.4 -19.55 -9.8 -18.25 L-12.25 -17.4 -18.1 -15.95 Q-19.1 -15.7 -19.75 -15.0 -20.35 -14.4 -20.3 -13.75 L-20.1 -12.6 Q-19.5 -10.8 -18.2 -9.35 -17.55 -6.55 -15.3 -5.0 L-14.45 -4.9 Q-12.65 -5.75 -13.55 -7.6 L-15.7 -11.75 -16.2 -12.6 -7.85 -15.1 -3.55 -16.35 -1.4 -16.8 -0.6 -17.0 0.1 -17.25 Q0.8 -17.65 0.75 -18.45 0.5 -23.6 0.7 -28.9 L0.8 -32.35 1.65 -32.35 10.3 -31.45 12.45 -31.3 12.5 -31.2 14.25 -23.65 14.6 -21.1 Q14.75 -17.4 15.8 -13.9 16.05 -13.1 16.85 -12.95 L18.05 -13.0 18.45 -13.0 Q20.55 -13.15 22.4 -14.3 24.7 -15.75 27.3 -16.45 L27.8 -16.95 Q28.5 -19.0 26.4 -19.4 22.75 -19.05 19.6 -17.05 L18.75 -16.55 18.6 -17.85 18.0 -23.25 Q17.85 -25.0 17.3 -26.6 16.55 -29.6 16.1 -32.6 L15.9 -33.15 Q15.8 -33.9 14.95 -34.25 L14.2 -34.45 5.75 -35.45 4.45 -35.5 1.75 -35.8 1.35 -35.85 2.05 -39.65 3.9 -48.25 Q5.05 -52.85 5.7 -57.55 6.4 -62.65 8.05 -67.6 8.5 -69.05 8.45 -70.6 8.4 -71.5 7.55 -71.85 L6.85 -72.05 Q4.75 -71.4 4.5 -69.05 L4.1 -67.4 Q3.75 -66.55 3.7 -65.7 2.55 -61.1 1.9 -56.4 1.15 -51.3 0.0 -46.3 L-2.1 -36.35 -2.35 -34.65 Q-2.9 -33.75 -2.7 -32.35 M20.55 -56.1 L19.7 -56.0 11.95 -54.6 9.45 -54.35 Q7.85 -54.35 6.45 -53.7 5.7 -53.35 5.7 -52.55 5.65 -50.95 7.35 -50.85 11.35 -50.6 15.2 -51.5 L22.55 -52.85 Q25.05 -53.2 27.1 -54.45 28.95 -55.6 30.1 -57.45 31.35 -59.6 29.6 -61.1 L28.85 -61.4 Q26.0 -61.35 26.25 -58.55 L26.25 -58.4 Q24.0 -56.15 20.55 -56.1" fill="#666666" fill-rule="evenodd" stroke="none"/>
  </g>
</svg>
