<?xml version="1.0" encoding="UTF-8" standalone="no"?>
<svg xmlns:ffdec="https://www.free-decompiler.com/flash" xmlns:xlink="http://www.w3.org/1999/xlink" ffdec:objectType="shape" height="63.15px" width="55.55px" xmlns="http://www.w3.org/2000/svg">
  <g transform="matrix(1.0, 0.0, 0.0, 1.0, 21.9, 72.35)">
    <path d="M-8.35 -56.7 L-11.4 -50.15 Q-13.2 -46.0 -13.4 -41.55 L-12.35 -40.7 Q-11.9 -39.95 -12.1 -39.1 -12.7 -36.65 -15.5 -37.3 -16.45 -37.5 -16.7 -38.45 -17.45 -41.55 -16.75 -44.65 L-15.8 -48.35 Q-14.8 -52.15 -13.05 -55.7 -12.0 -57.85 -9.95 -58.5 -8.75 -58.45 -8.35 -57.3 -8.2 -57.0 -8.35 -56.7 M12.35 -54.0 Q11.6 -54.65 12.0 -55.5 12.5 -56.75 13.9 -57.2 L15.7 -58.0 Q19.7 -60.15 23.9 -61.7 26.75 -62.75 29.1 -64.35 L29.05 -64.5 Q29.0 -67.05 31.6 -67.25 34.2 -66.6 33.5 -64.0 33.25 -62.95 32.4 -62.35 29.05 -59.85 25.15 -58.3 20.1 -56.3 15.35 -53.75 13.7 -52.85 12.35 -54.0 M6.65 -72.35 Q8.25 -72.2 8.35 -70.55 8.45 -69.2 7.9 -68.05 6.9 -65.75 6.3 -63.35 L4.6 -55.65 Q3.55 -50.75 2.95 -45.75 L2.05 -41.1 1.65 -38.25 1.2 -36.0 9.45 -36.15 15.35 -35.65 Q17.35 -35.45 16.95 -33.55 L16.65 -32.95 Q18.5 -29.65 19.7 -25.95 L19.85 -25.7 Q20.3 -23.0 21.3 -20.4 L21.65 -19.3 22.3 -19.55 29.6 -22.05 Q31.25 -21.9 31.3 -20.25 31.35 -19.4 30.7 -18.95 29.95 -18.4 29.05 -18.1 L23.7 -16.25 21.4 -15.35 20.15 -15.05 Q19.6 -15.05 19.35 -15.55 L19.3 -15.65 19.05 -16.1 18.95 -16.3 Q18.3 -17.75 17.95 -19.35 L17.55 -20.1 Q16.95 -22.0 16.75 -24.0 L13.75 -31.05 Q13.45 -31.85 13.5 -32.45 L9.35 -32.45 0.95 -32.85 1.05 -28.75 Q0.85 -23.55 0.3 -18.45 L-0.05 -17.25 Q-0.35 -16.45 -1.35 -16.4 L-5.65 -16.3 -12.4 -16.45 -17.9 -16.15 Q-17.3 -13.65 -17.25 -11.1 -17.2 -9.85 -18.3 -9.4 -19.95 -8.75 -20.45 -10.4 -21.0 -12.0 -21.15 -13.7 -21.25 -14.85 -21.65 -15.95 -22.05 -17.0 -21.85 -17.7 L-21.3 -18.75 Q-20.25 -19.6 -18.75 -19.7 L-8.45 -19.95 -7.8 -19.85 -3.2 -19.55 -3.1 -20.7 Q-2.35 -25.75 -2.4 -31.0 L-2.55 -32.9 -2.55 -34.35 Q-2.35 -37.6 -1.65 -40.65 -0.75 -44.35 -0.3 -48.15 0.2 -52.8 1.35 -57.3 L2.05 -61.2 Q3.15 -65.95 4.95 -70.35 L4.95 -70.5 Q4.95 -72.1 6.65 -72.35" fill="#666666" fill-rule="evenodd" stroke="none"/>
  </g>
</svg>
