<?xml version="1.0" encoding="UTF-8" standalone="no"?>
<svg xmlns:ffdec="https://www.free-decompiler.com/flash" xmlns:xlink="http://www.w3.org/1999/xlink" ffdec:objectType="shape" height="59.8px" width="54.25px" xmlns="http://www.w3.org/2000/svg">
  <g transform="matrix(1.0, 0.0, 0.0, 1.0, 19.7, 70.9)">
    <path d="M-14.25 -52.8 Q-15.5 -49.35 -16.3 -45.75 -17.8 -41.7 -16.0 -37.9 L-15.4 -37.45 Q-13.05 -36.8 -12.35 -39.1 -11.7 -41.2 -13.35 -42.4 -13.15 -44.65 -12.45 -46.85 L-10.8 -51.7 -8.75 -56.45 Q-8.55 -56.85 -8.8 -57.25 -9.35 -58.15 -10.3 -58.2 -12.35 -57.55 -13.3 -55.35 L-14.25 -52.8 M-1.75 -41.95 Q-2.75 -38.05 -2.65 -34.0 L-2.6 -32.7 Q-2.45 -31.7 -2.45 -30.65 L-2.4 -20.2 -2.5 -19.05 -8.25 -19.65 -11.5 -19.95 -16.45 -20.65 Q-17.8 -20.9 -18.55 -20.35 -19.9 -19.55 -19.55 -17.6 -19.3 -15.95 -19.35 -14.25 -20.45 -12.0 -18.25 -11.15 L-17.1 -11.35 Q-15.65 -12.6 -15.8 -14.55 L-15.95 -16.85 -6.15 -15.85 -3.25 -15.5 -1.3 -15.45 -0.75 -15.4 Q1.2 -15.6 1.15 -17.55 L1.1 -19.45 1.15 -29.95 1.05 -32.15 5.45 -31.55 10.1 -31.2 13.9 -31.1 14.1 -30.4 Q14.15 -29.7 14.5 -29.1 L17.4 -20.0 18.9 -15.65 Q19.1 -14.95 19.55 -14.35 L20.45 -13.65 21.5 -13.7 Q24.15 -14.4 26.65 -15.45 L29.85 -16.25 Q31.5 -16.45 32.25 -17.75 32.65 -18.4 32.3 -19.1 31.8 -20.05 30.75 -20.1 26.2 -19.5 21.95 -17.65 L21.25 -19.6 Q20.5 -21.35 20.0 -23.15 L18.05 -29.8 17.15 -32.85 Q16.75 -34.3 15.35 -34.45 L15.2 -34.4 10.7 -34.7 Q5.7 -34.85 0.9 -35.8 0.95 -38.8 1.6 -41.7 L2.35 -46.85 Q2.65 -50.75 3.75 -54.45 L5.8 -61.45 Q7.45 -64.7 7.9 -68.3 8.15 -70.5 6.1 -70.9 3.9 -70.25 4.2 -67.75 L3.95 -66.65 3.7 -65.6 Q2.4 -62.9 1.6 -59.95 L0.4 -55.6 Q-0.7 -51.85 -1.1 -47.9 L-1.75 -41.95 M24.35 -62.0 L19.85 -59.55 Q16.95 -57.95 13.7 -56.9 12.55 -56.55 12.6 -55.4 12.7 -53.85 14.2 -53.85 L15.75 -54.05 Q20.5 -55.4 24.6 -58.15 29.2 -60.65 33.25 -63.9 L34.05 -64.8 Q35.3 -67.0 33.55 -68.55 L32.85 -68.9 Q30.1 -68.8 30.2 -66.15 L30.2 -66.0 Q27.55 -63.75 24.35 -62.0" fill="#666666" fill-rule="evenodd" stroke="none"/>
  </g>
</svg>
