<?xml version="1.0" encoding="UTF-8" standalone="no"?>
<svg xmlns:ffdec="https://www.free-decompiler.com/flash" xmlns:xlink="http://www.w3.org/1999/xlink" ffdec:objectType="shape" height="60.15px" width="52.95px" xmlns="http://www.w3.org/2000/svg">
  <g transform="matrix(1.0, 0.0, 0.0, 1.0, 17.65, 69.9)">
    <path d="M-13.7 -52.35 Q-14.9 -47.55 -15.55 -42.7 L-15.95 -38.2 Q-15.95 -37.35 -15.4 -36.65 -15.1 -33.65 -12.05 -34.6 -11.3 -34.85 -11.15 -35.65 -10.75 -37.8 -12.2 -39.3 -12.1 -44.6 -10.65 -49.65 L-8.95 -55.45 Q-8.65 -56.65 -9.75 -57.2 L-10.5 -57.4 Q-12.6 -56.4 -13.3 -53.85 L-13.7 -52.35 M-1.65 -41.15 Q-2.75 -37.5 -2.85 -33.7 -2.9 -32.75 -2.25 -32.4 -2.45 -31.6 -2.3 -30.5 L-2.15 -27.9 Q-2.35 -23.55 -1.9 -19.25 L-3.2 -19.3 -13.7 -19.8 Q-17.0 -20.45 -17.35 -17.5 L-17.6 -14.6 Q-17.8 -12.55 -17.35 -10.65 -17.2 -9.8 -16.3 -9.75 -14.2 -9.65 -14.05 -11.8 -13.95 -13.85 -14.0 -16.0 -7.45 -15.75 -0.75 -16.15 L1.05 -16.35 Q1.75 -16.7 1.7 -17.4 L1.5 -21.6 Q1.35 -26.1 1.45 -30.65 L3.0 -30.45 10.25 -28.9 14.25 -28.05 14.45 -27.65 17.3 -21.55 Q19.15 -17.4 19.95 -13.0 20.05 -12.35 20.45 -11.85 21.5 -10.65 22.3 -10.8 L23.45 -11.1 25.95 -12.1 Q29.35 -13.45 32.65 -15.1 33.3 -15.4 33.2 -16.15 33.1 -17.7 31.5 -17.9 27.05 -17.05 23.35 -14.8 22.25 -19.55 20.1 -23.95 L19.2 -25.75 17.3 -29.85 16.8 -30.5 Q16.4 -31.05 15.35 -31.35 8.15 -33.45 0.8 -34.4 0.8 -36.5 1.3 -38.6 L1.35 -38.95 Q2.2 -41.9 2.7 -45.0 L3.5 -48.95 Q3.95 -50.85 4.05 -52.8 5.6 -58.75 7.65 -64.7 8.25 -66.5 8.05 -68.35 7.9 -69.8 6.5 -69.9 4.55 -69.2 4.15 -66.95 L3.15 -62.6 Q1.05 -56.3 -0.25 -49.85 L-1.1 -45.5 -1.65 -41.15 M22.95 -60.05 L19.7 -58.95 Q16.0 -57.7 12.55 -55.85 12.25 -55.7 12.25 -55.35 12.25 -52.75 15.2 -53.25 16.05 -53.4 16.65 -53.95 L30.25 -58.85 Q32.9 -59.8 34.75 -61.7 35.2 -62.15 35.25 -62.8 35.5 -65.05 33.35 -65.45 30.7 -65.4 30.05 -63.0 L30.0 -62.85 Q26.55 -61.4 22.95 -60.05" fill="#666666" fill-rule="evenodd" stroke="none"/>
  </g>
</svg>
