<?xml version="1.0" encoding="UTF-8" standalone="no"?>
<svg xmlns:ffdec="https://www.free-decompiler.com/flash" xmlns:xlink="http://www.w3.org/1999/xlink" ffdec:objectType="shape" height="63.95px" width="52.85px" xmlns="http://www.w3.org/2000/svg">
  <g transform="matrix(1.0, 0.0, 0.0, 1.0, 17.0, 71.8)">
    <path d="M-11.95 -53.0 Q-11.85 -55.55 -9.7 -56.3 -7.45 -55.7 -8.1 -53.2 L-9.5 -47.25 Q-10.45 -42.65 -10.85 -38.0 -9.4 -36.75 -9.75 -34.75 -10.2 -33.1 -11.8 -33.05 -14.15 -33.0 -14.3 -35.45 -14.5 -38.55 -14.05 -41.65 -13.4 -46.7 -12.1 -51.7 L-11.95 -53.0 M12.65 -54.2 Q12.35 -55.55 13.75 -55.95 L15.95 -56.35 26.15 -57.65 Q28.9 -58.1 31.3 -59.35 L31.35 -59.45 Q31.45 -62.0 34.1 -61.95 L34.75 -61.7 Q36.5 -60.3 35.5 -58.05 L35.1 -57.55 Q32.0 -55.25 28.2 -54.4 L22.05 -53.35 14.2 -52.85 Q12.8 -52.85 12.65 -54.2 M4.6 -68.65 Q5.05 -71.05 7.2 -71.8 8.05 -71.75 8.65 -71.0 L8.8 -70.15 5.95 -59.9 5.65 -58.65 3.85 -48.4 3.5 -46.25 Q2.65 -41.75 2.2 -37.15 L1.9 -33.2 Q5.75 -31.5 9.8 -29.95 L15.1 -28.05 Q16.75 -27.5 16.7 -26.3 L18.4 -23.05 Q20.35 -18.4 22.7 -13.8 L23.25 -12.45 Q27.4 -13.95 31.3 -16.0 33.05 -15.75 33.0 -13.9 L32.65 -13.1 Q30.8 -11.35 28.35 -10.6 L25.3 -9.35 Q23.55 -8.5 21.65 -8.6 20.95 -8.6 20.7 -9.2 L20.35 -10.1 Q19.85 -10.6 19.65 -11.55 L18.8 -13.8 Q16.5 -18.35 14.35 -23.0 L13.6 -24.75 13.55 -24.95 10.8 -25.7 Q6.35 -27.3 2.15 -29.2 L2.4 -27.75 2.75 -27.1 3.25 -25.05 Q4.45 -22.0 4.2 -18.55 4.0 -16.7 2.15 -17.0 L-0.9 -16.6 -8.45 -16.05 -13.25 -15.4 -12.6 -12.45 Q-12.25 -11.0 -12.3 -9.5 -12.45 -7.5 -14.5 -7.95 L-15.15 -8.55 Q-16.15 -11.75 -16.7 -15.1 L-16.9 -15.95 Q-17.4 -17.95 -15.6 -18.6 L-14.25 -19.1 -6.3 -19.85 0.7 -20.2 0.5 -20.95 -1.4 -29.65 -1.7 -31.15 Q-1.95 -32.7 -1.25 -33.6 -1.55 -36.05 -1.2 -38.55 L0.3 -48.6 2.05 -57.65 Q2.75 -62.25 4.1 -66.7 L4.6 -68.65" fill="#666666" fill-rule="evenodd" stroke="none"/>
  </g>
</svg>
