<?xml version="1.0" encoding="UTF-8" standalone="no"?>
<svg xmlns:ffdec="https://www.free-decompiler.com/flash" xmlns:xlink="http://www.w3.org/1999/xlink" ffdec:objectType="shape" height="27.75px" width="50.45px" xmlns="http://www.w3.org/2000/svg">
  <g transform="matrix(1.0, 0.0, 0.0, 1.0, 13.9, 59.0)">
    <path d="M-9.8 -54.0 Q-12.4 -53.35 -12.45 -50.25 -12.45 -49.45 -12.7 -48.7 -14.75 -41.3 -13.3 -33.75 -12.6 -30.3 -8.95 -31.65 -8.25 -31.9 -7.9 -32.55 -6.25 -35.8 -9.85 -37.05 -10.85 -43.85 -8.3 -50.25 -7.15 -53.1 -9.8 -54.0 M36.25 -57.8 Q35.85 -58.9 34.75 -58.95 31.9 -59.35 30.95 -56.75 L30.9 -56.55 Q27.75 -55.05 23.8 -55.35 L14.8 -55.0 Q14.05 -54.85 13.95 -54.1 13.7 -51.85 16.15 -51.5 26.0 -50.25 34.65 -53.95 37.25 -55.05 36.25 -57.8" fill="#666666" fill-rule="evenodd" stroke="none"/>
  </g>
</svg>
