<?xml version="1.0" encoding="UTF-8" standalone="no"?>
<svg xmlns:ffdec="https://www.free-decompiler.com/flash" xmlns:xlink="http://www.w3.org/1999/xlink" ffdec:objectType="shape" height="71.15px" width="41.9px" xmlns="http://www.w3.org/2000/svg">
  <g transform="matrix(1.0, 0.0, 0.0, 1.0, 11.5, 71.0)">
    <path d="M-5.4 -52.75 Q-7.8 -51.8 -7.35 -48.9 L-7.2 -46.5 Q-7.35 -39.75 -5.3 -33.4 -4.8 -31.85 -3.55 -30.9 -3.25 -30.65 -2.85 -30.6 L-2.0 -30.55 -1.75 -29.95 -1.5 -29.5 Q1.2 -25.0 4.05 -20.6 -0.75 -18.45 -5.95 -17.3 L-8.4 -16.7 -10.45 -15.85 Q-11.25 -15.35 -11.4 -14.7 -11.7 -13.85 -11.2 -12.6 L-9.55 -8.2 Q-9.0 -6.5 -7.95 -5.05 -7.1 -3.9 -5.85 -4.8 -4.8 -5.55 -5.2 -6.9 -5.9 -9.35 -7.05 -11.65 L-7.55 -13.05 3.8 -16.35 Q6.4 -17.1 7.7 -19.2 L7.75 -19.25 7.95 -20.15 7.7 -21.2 6.05 -24.3 4.55 -26.7 7.8 -23.95 9.1 -22.55 9.7 -21.9 Q9.6 -21.2 9.9 -20.2 L10.95 -17.65 Q11.85 -14.65 13.2 -11.7 14.5 -8.7 15.35 -5.55 15.95 -3.15 16.95 -0.95 17.15 -0.5 17.65 -0.5 L17.8 -0.5 18.55 0.0 Q20.05 0.5 21.4 -0.45 22.75 -1.4 24.3 -2.0 25.85 -2.6 26.85 -3.7 27.45 -4.3 27.05 -5.1 26.6 -6.1 25.55 -6.15 22.35 -5.55 19.45 -3.9 L19.4 -3.85 18.15 -8.65 13.65 -21.35 13.3 -22.15 Q13.65 -23.25 12.65 -24.25 7.9 -28.95 2.3 -32.5 L1.6 -32.9 1.65 -33.85 Q2.05 -40.5 3.0 -47.05 L3.5 -50.3 Q4.6 -56.9 6.3 -63.25 L7.6 -67.45 Q8.55 -70.15 6.05 -71.0 4.1 -70.5 4.05 -68.4 L4.05 -68.2 Q2.0 -62.4 0.9 -56.25 L-1.15 -43.3 -1.75 -36.2 -2.45 -36.3 Q-4.1 -42.4 -3.6 -48.9 -3.4 -50.75 -4.35 -52.15 -4.75 -52.75 -5.4 -52.75 M9.45 -50.35 Q9.75 -49.75 10.4 -49.5 16.4 -47.3 22.55 -45.5 L25.2 -45.0 Q26.6 -44.0 28.25 -44.8 L28.85 -45.15 Q29.9 -45.25 30.3 -46.9 30.7 -48.5 29.25 -49.4 L28.25 -49.75 Q26.0 -49.95 25.0 -48.75 17.9 -50.55 11.1 -53.05 8.25 -52.8 9.45 -50.35" fill="#666666" fill-rule="evenodd" stroke="none"/>
  </g>
</svg>
