<?xml version="1.0" encoding="UTF-8" standalone="no"?>
<svg xmlns:ffdec="https://www.free-decompiler.com/flash" xmlns:xlink="http://www.w3.org/1999/xlink" ffdec:objectType="shape" height="70.85px" width="26.55px" xmlns="http://www.w3.org/2000/svg">
  <g transform="matrix(1.0, 0.0, 0.0, 1.0, 3.7, 69.6)">
    <path d="M-1.6 -31.8 L-0.95 -30.65 2.0 -20.9 1.15 -20.3 -2.85 -17.1 Q-4.05 -15.95 -3.55 -14.95 L-2.8 -13.85 -0.7 -11.75 0.25 -10.9 -0.9 -6.8 -0.95 -6.1 -2.05 -2.8 -2.1 -2.1 -2.55 -1.05 Q-3.2 0.8 -1.05 1.05 L-0.95 1.05 -0.8 1.1 -0.35 1.1 2.75 1.25 Q5.1 1.2 7.25 0.35 7.75 0.1 7.85 -0.4 8.2 -2.35 6.25 -2.65 L1.75 -2.3 1.9 -3.0 2.35 -5.0 3.3 -8.55 3.55 -8.4 4.05 -8.35 Q6.1 -9.1 5.05 -11.05 L4.2 -12.3 4.75 -14.45 Q5.7 -16.7 5.55 -19.0 7.25 -20.1 9.1 -21.0 L11.95 -22.3 Q13.85 -23.0 14.1 -24.3 14.55 -25.05 13.85 -26.1 L12.8 -27.1 7.15 -30.65 3.7 -32.75 1.75 -33.8 1.75 -33.9 Q1.55 -37.6 2.15 -41.15 L2.6 -43.7 Q6.55 -40.05 10.85 -36.7 12.15 -35.6 13.75 -34.9 16.65 -33.65 18.1 -35.9 18.35 -36.3 18.25 -36.8 17.4 -39.9 13.9 -39.3 13.05 -39.15 12.4 -39.75 L3.4 -47.9 4.75 -54.15 5.45 -58.3 Q6.15 -61.15 7.2 -63.95 L8.25 -67.15 Q8.75 -69.25 6.7 -69.6 4.75 -69.15 4.55 -67.15 L4.55 -67.0 Q3.2 -64.35 2.6 -61.45 L2.5 -60.6 Q1.7 -57.7 1.2 -54.75 L-0.1 -48.5 Q-0.55 -48.05 -0.4 -47.3 -1.7 -41.5 -2.05 -35.3 L-2.0 -33.3 -1.75 -32.2 -1.7 -32.1 -1.6 -31.8 M6.4 -45.9 Q10.45 -43.0 14.95 -41.2 18.75 -39.7 22.05 -41.65 22.75 -42.05 22.85 -42.85 22.95 -44.6 21.5 -45.5 L17.95 -45.6 16.7 -44.5 Q12.2 -46.05 8.4 -49.2 7.4 -50.05 6.25 -50.25 3.5 -49.7 4.95 -47.4 L6.4 -45.9 M5.7 -27.1 L6.3 -26.75 9.2 -25.2 5.35 -23.1 4.55 -24.8 3.55 -28.55 5.7 -27.1 M0.75 -15.5 L1.65 -16.2 1.35 -15.0 0.75 -15.5" fill="#666666" fill-rule="evenodd" stroke="none"/>
  </g>
</svg>
