<?xml version="1.0" encoding="UTF-8" standalone="no"?>
<svg xmlns:ffdec="https://www.free-decompiler.com/flash" xmlns:xlink="http://www.w3.org/1999/xlink" ffdec:objectType="shape" height="72.7px" width="36.35px" xmlns="http://www.w3.org/2000/svg">
  <g transform="matrix(1.0, 0.0, 0.0, 1.0, 12.95, 71.25)">
    <path d="M-0.75 -43.65 L-1.1 -40.6 Q-1.45 -37.8 -1.2 -35.05 L-1.75 -34.6 Q-3.0 -33.65 -2.35 -31.7 L-2.2 -30.85 Q-1.9 -25.7 -1.05 -20.6 L-0.9 -19.2 -0.8 -18.3 -1.45 -17.25 -1.95 -16.45 -4.25 -13.75 Q-5.8 -11.7 -7.8 -9.95 -10.25 -7.85 -12.2 -5.4 L-12.85 -4.6 -12.9 -4.05 -12.9 -3.95 -12.6 -3.1 Q-12.2 -2.2 -11.3 -1.8 L-6.5 0.85 Q-4.7 2.05 -2.9 0.85 -2.25 0.45 -2.35 -0.3 -2.65 -2.3 -4.9 -2.35 L-5.25 -2.5 Q-6.75 -3.65 -8.35 -4.5 L-5.55 -7.1 -2.3 -10.5 0.45 -13.65 1.2 -14.45 Q2.25 -15.4 2.5 -16.65 2.9 -17.2 2.85 -18.1 2.65 -22.55 1.55 -26.75 L1.15 -31.6 4.9 -30.85 11.5 -29.55 8.6 -21.1 7.15 -16.6 6.85 -15.45 6.85 -15.4 Q6.75 -14.95 7.05 -14.6 7.35 -13.95 8.1 -13.75 11.2 -12.8 14.35 -12.35 15.2 -12.25 15.6 -12.95 16.8 -15.0 14.55 -15.65 L12.65 -16.1 10.8 -16.5 11.5 -18.4 12.65 -22.05 Q14.35 -25.9 15.0 -29.95 15.95 -31.55 14.1 -32.25 L11.25 -33.2 7.85 -34.0 9.15 -35.15 Q10.0 -36.4 9.2 -37.75 8.7 -38.6 7.65 -38.7 L5.95 -38.65 Q3.95 -41.5 2.8 -44.65 L2.9 -45.35 3.1 -46.65 Q4.1 -46.0 5.35 -45.75 L14.5 -45.15 15.0 -45.15 20.8 -45.15 Q22.65 -45.2 23.25 -46.8 23.6 -47.75 23.25 -48.7 22.8 -49.95 21.5 -50.1 19.55 -50.15 18.4 -48.8 L18.3 -48.65 7.65 -49.1 Q6.25 -49.2 4.95 -49.75 L3.55 -50.0 3.65 -50.5 5.3 -60.6 Q6.0 -64.65 7.6 -68.5 8.35 -70.35 6.55 -71.1 L6.1 -71.25 Q4.3 -70.7 3.8 -68.7 L3.0 -66.05 Q2.15 -63.6 1.7 -61.05 L0.15 -50.8 0.1 -50.6 -0.15 -50.65 Q-2.55 -49.9 -1.9 -47.35 L-0.75 -43.65 M2.2 -35.0 L2.25 -37.5 Q3.35 -35.75 4.95 -34.6 L4.95 -34.55 2.2 -35.0" fill="#666666" fill-rule="evenodd" stroke="none"/>
  </g>
</svg>
