<?xml version="1.0" encoding="UTF-8" standalone="no"?>
<svg xmlns:ffdec="https://www.free-decompiler.com/flash" xmlns:xlink="http://www.w3.org/1999/xlink" ffdec:objectType="shape" height="59.55px" width="24.2px" xmlns="http://www.w3.org/2000/svg">
  <g transform="matrix(1.0, 0.0, 0.0, 1.0, 2.5, 70.6)">
    <path d="M-1.7 -23.95 L-1.7 -22.4 Q-1.9 -19.25 -1.15 -16.35 -0.85 -15.25 0.3 -15.35 2.3 -15.55 2.05 -17.6 1.65 -20.9 1.6 -24.35 L1.6 -25.4 Q1.65 -28.2 1.3 -30.9 4.25 -30.05 7.35 -29.7 L11.85 -29.1 11.9 -28.8 12.05 -26.45 11.1 -13.25 Q10.95 -11.85 12.3 -11.5 16.95 -10.4 21.15 -11.9 21.6 -12.05 21.7 -12.6 21.9 -14.15 20.35 -14.35 L14.95 -14.75 Q15.1 -20.95 15.65 -27.2 15.85 -29.75 14.95 -31.85 14.75 -32.35 14.2 -32.45 L13.85 -32.5 13.45 -32.3 7.3 -33.5 1.2 -34.55 1.2 -36.4 Q1.3 -40.85 1.8 -45.2 L2.35 -48.4 4.55 -58.25 Q5.2 -61.6 6.85 -64.6 8.15 -66.95 7.95 -69.45 7.9 -70.05 7.35 -70.3 L6.5 -70.6 Q4.35 -69.65 3.7 -67.2 L2.7 -64.35 Q1.2 -60.45 0.65 -56.2 L-0.85 -50.35 Q-2.55 -44.1 -2.3 -37.5 -2.25 -36.3 -2.45 -35.1 -2.65 -33.6 -2.3 -32.35 -2.5 -31.65 -2.35 -30.65 -1.85 -27.35 -1.7 -23.95" fill="#666666" fill-rule="evenodd" stroke="none"/>
  </g>
</svg>
