<?xml version="1.0" encoding="UTF-8" standalone="no"?>
<svg xmlns:ffdec="https://www.free-decompiler.com/flash" xmlns:xlink="http://www.w3.org/1999/xlink" ffdec:objectType="shape" height="70.7px" width="46.1px" xmlns="http://www.w3.org/2000/svg">
  <g transform="matrix(1.0, 0.0, 0.0, 1.0, 17.8, 71.45)">
    <path d="M-7.2 -52.5 Q-9.5 -51.7 -9.1 -49.05 L-9.0 -47.15 Q-9.45 -41.85 -7.55 -37.05 L-5.9 -33.4 Q-5.05 -31.55 -2.9 -32.15 -2.3 -32.3 -1.95 -32.6 L-1.9 -32.35 -1.8 -30.3 -2.0 -19.85 -2.0 -19.6 -1.95 -19.55 Q-6.0 -16.15 -11.05 -13.7 L-15.6 -11.0 -17.2 -9.5 Q-17.7 -9.15 -17.75 -8.5 L-17.75 -8.0 -17.5 -7.15 Q-16.85 -5.6 -15.8 -4.25 -14.4 -2.4 -12.65 -0.95 L-11.9 -0.8 Q-9.95 -1.4 -10.7 -3.4 L-11.15 -4.25 -13.8 -7.65 -10.55 -10.15 Q-4.95 -12.75 0.05 -16.2 1.3 -17.1 1.85 -18.5 L1.9 -18.5 2.1 -18.4 2.0 -19.15 2.05 -19.8 1.65 -21.2 1.75 -29.2 1.65 -32.25 Q5.8 -30.95 10.05 -30.2 L11.75 -30.05 11.8 -29.95 11.9 -28.05 Q11.7 -22.75 12.7 -17.7 13.05 -16.05 13.0 -14.35 L13.0 -13.85 13.4 -12.8 13.85 -12.5 14.45 -12.3 16.55 -12.2 19.4 -12.55 22.95 -12.95 Q24.45 -13.15 24.3 -14.6 24.2 -16.1 22.7 -16.2 L16.35 -15.75 Q16.35 -19.35 15.6 -22.75 15.35 -24.0 15.4 -25.3 L15.25 -31.25 Q15.75 -33.2 13.65 -33.45 L9.95 -33.95 Q5.9 -34.65 2.05 -35.8 L2.2 -45.3 Q2.25 -48.8 2.65 -52.3 3.15 -56.05 4.0 -59.75 5.1 -64.1 7.0 -68.2 8.15 -70.7 5.65 -71.45 3.7 -70.75 3.3 -68.6 L3.1 -67.95 Q0.95 -63.3 0.1 -58.2 L-0.7 -53.05 Q-1.55 -48.0 -1.55 -42.7 L-1.25 -35.1 -1.3 -35.05 Q-1.6 -37.0 -3.75 -37.25 L-4.65 -39.95 -4.95 -40.5 Q-5.8 -45.25 -5.45 -50.15 -5.3 -52.2 -7.2 -52.5 M26.15 -55.6 Q23.8 -55.6 22.9 -53.55 L22.9 -53.5 10.3 -52.15 9.55 -52.15 Q7.2 -52.35 5.45 -51.0 4.8 -50.45 5.0 -49.65 5.55 -47.75 7.7 -48.2 L14.95 -49.15 24.9 -50.2 Q26.55 -50.5 27.7 -51.65 28.55 -52.55 28.2 -53.7 27.75 -55.35 26.15 -55.6" fill="#666666" fill-rule="evenodd" stroke="none"/>
  </g>
</svg>
