<?xml version="1.0" encoding="UTF-8" standalone="no"?>
<svg xmlns:ffdec="https://www.free-decompiler.com/flash" xmlns:xlink="http://www.w3.org/1999/xlink" ffdec:objectType="shape" height="67.25px" width="52.7px" xmlns="http://www.w3.org/2000/svg">
  <g transform="matrix(1.0, 0.0, 0.0, 1.0, 20.55, 72.35)">
    <path d="M-12.1 -50.65 Q-12.2 -45.4 -12.8 -40.3 L-12.85 -39.65 Q-14.95 -37.75 -13.75 -34.95 -13.2 -33.75 -11.85 -33.95 -9.75 -34.35 -9.7 -36.5 L-9.65 -37.15 Q-9.15 -42.05 -8.9 -47.0 L-8.55 -51.25 Q-8.4 -52.55 -8.65 -53.8 -8.8 -54.6 -9.65 -54.85 L-10.1 -54.95 Q-12.5 -54.2 -12.15 -51.55 L-12.1 -50.65 M-2.25 -42.45 Q-3.45 -39.45 -3.6 -36.3 -4.1 -35.4 -3.8 -33.9 L-3.6 -32.65 -2.25 -22.4 -2.1 -21.0 Q-6.25 -20.2 -10.2 -18.5 L-11.4 -18.0 Q-13.9 -17.0 -16.65 -16.35 -18.4 -15.95 -19.65 -14.95 L-20.2 -14.5 -20.25 -14.45 -20.55 -13.7 -20.3 -12.35 -19.3 -10.2 -16.3 -5.4 Q-16.05 -5.1 -15.7 -5.1 -13.5 -5.15 -13.85 -7.35 -14.0 -8.15 -14.45 -8.9 L-16.5 -12.5 Q-12.25 -13.95 -8.05 -15.55 L-3.1 -17.1 0.3 -18.05 Q1.25 -18.35 1.3 -19.35 L1.25 -20.0 1.2 -22.8 0.15 -30.45 -0.2 -33.05 5.0 -32.4 7.05 -32.15 Q10.25 -32.1 12.95 -30.85 L14.45 -22.05 15.0 -17.55 Q15.3 -15.1 16.05 -12.8 16.2 -12.35 16.65 -12.2 L18.25 -12.4 18.7 -12.35 20.05 -12.6 Q23.95 -14.05 27.45 -16.2 28.7 -16.95 28.5 -18.4 28.3 -19.85 26.85 -19.95 24.85 -19.1 22.95 -17.85 L22.5 -17.6 18.9 -15.9 18.75 -17.0 Q18.1 -19.8 17.85 -22.65 17.35 -27.8 16.0 -32.85 15.65 -34.15 14.35 -34.25 L14.2 -34.2 Q10.9 -35.35 7.3 -35.6 L2.7 -36.2 1.15 -36.35 -0.05 -36.5 Q0.35 -39.3 1.15 -41.9 L1.2 -42.3 Q2.65 -46.8 3.55 -51.45 4.45 -56.5 6.05 -61.35 L6.15 -62.45 8.5 -69.25 Q9.4 -71.7 6.95 -72.35 5.1 -71.7 4.55 -69.6 L3.9 -66.6 Q2.25 -62.1 1.2 -57.45 L-1.0 -47.5 -2.25 -42.45 M21.45 -56.95 L12.65 -54.2 11.7 -53.9 Q9.75 -53.35 10.45 -51.45 10.8 -50.5 11.8 -50.55 14.85 -50.75 17.55 -52.05 L19.9 -52.85 Q25.2 -54.1 29.85 -56.65 30.8 -57.15 31.4 -58.0 33.0 -60.2 31.15 -61.8 L30.4 -62.15 Q27.0 -62.35 26.8 -59.1 L26.8 -58.95 Q24.3 -57.7 21.45 -56.95" fill="#666666" fill-rule="evenodd" stroke="none"/>
  </g>
</svg>
