<?xml version="1.0" encoding="UTF-8" standalone="no"?>
<svg xmlns:ffdec="https://www.free-decompiler.com/flash" xmlns:xlink="http://www.w3.org/1999/xlink" ffdec:objectType="shape" height="64.4px" width="53.8px" xmlns="http://www.w3.org/2000/svg">
  <g transform="matrix(1.0, 0.0, 0.0, 1.0, 21.5, 72.15)">
    <path d="M-10.95 -56.05 Q-12.8 -55.35 -13.3 -53.15 -14.45 -48.4 -14.8 -43.55 L-14.95 -40.45 Q-15.95 -39.55 -15.5 -38.35 L-15.2 -37.85 Q-14.75 -34.75 -11.75 -35.9 -11.35 -36.1 -11.3 -36.65 L-11.35 -41.5 Q-11.55 -44.95 -10.8 -48.3 -10.35 -50.4 -9.5 -52.4 -8.35 -55.15 -10.95 -56.05 M-1.9 -44.6 Q-3.25 -40.25 -3.7 -35.6 -3.85 -34.25 -3.2 -33.55 -2.9 -31.95 -2.95 -30.25 L-3.05 -20.0 Q-9.8 -17.65 -17.0 -16.95 L-20.8 -16.0 Q-21.45 -15.7 -21.5 -14.95 -21.7 -11.95 -19.8 -9.75 -19.6 -7.0 -17.1 -8.05 -16.4 -8.35 -16.35 -9.1 -16.2 -11.2 -17.6 -12.75 -15.85 -13.75 -13.35 -13.8 L-11.4 -14.0 Q-5.55 -15.3 -0.15 -17.4 0.3 -17.6 0.3 -18.1 L0.4 -29.55 0.35 -32.35 0.9 -32.35 3.55 -32.2 7.75 -31.8 13.7 -31.2 13.8 -30.85 Q14.0 -29.85 14.55 -28.95 L14.65 -28.8 Q14.65 -26.05 15.35 -23.4 L16.15 -19.1 16.5 -16.65 Q16.8 -14.4 18.35 -12.8 18.85 -12.3 19.55 -12.5 21.9 -13.1 23.95 -14.55 26.35 -16.2 28.9 -17.4 L29.25 -17.95 Q29.3 -20.6 26.65 -19.85 24.1 -19.15 21.85 -17.55 L20.25 -16.65 Q19.5 -19.2 19.15 -21.9 L19.0 -23.15 Q18.25 -26.85 17.75 -30.55 17.4 -33.2 15.2 -34.4 L14.2 -34.75 3.9 -35.8 1.25 -36.2 0.2 -36.35 0.45 -38.25 Q1.1 -42.9 2.25 -47.45 2.85 -49.6 3.05 -51.95 3.7 -58.5 5.85 -64.7 L7.6 -69.3 7.75 -70.1 Q7.8 -71.95 6.05 -72.15 4.35 -71.9 4.3 -70.25 L4.3 -70.05 Q1.25 -64.45 0.5 -58.1 L0.4 -57.05 Q-0.35 -53.95 -0.65 -50.65 L-0.75 -49.45 Q-1.55 -47.55 -1.85 -45.45 L-1.9 -44.6 M25.15 -56.5 Q29.35 -58.0 31.9 -61.6 32.5 -62.35 32.15 -63.3 31.65 -64.6 30.35 -64.75 27.45 -64.85 27.45 -62.15 L27.45 -62.0 Q21.05 -58.3 14.2 -55.4 11.75 -54.4 13.3 -52.4 13.9 -51.65 14.85 -52.0 17.9 -53.1 20.8 -54.5 22.1 -55.1 23.3 -55.8 24.2 -55.95 24.95 -56.35 L25.15 -56.5" fill="#666666" fill-rule="evenodd" stroke="none"/>
  </g>
</svg>
