<?xml version="1.0" encoding="UTF-8" standalone="no"?>
<svg xmlns:ffdec="https://www.free-decompiler.com/flash" xmlns:xlink="http://www.w3.org/1999/xlink" ffdec:objectType="shape" height="71.85px" width="36.6px" xmlns="http://www.w3.org/2000/svg">
  <g transform="matrix(1.0, 0.0, 0.0, 1.0, 27.15, 70.6)">
    <path d="M4.0 -50.15 Q6.6 -49.5 5.65 -46.95 L4.65 -44.05 Q3.8 -41.35 2.3 -39.0 L1.35 -36.15 1.35 -32.75 Q2.35 -31.95 1.6 -30.3 -0.6 -25.6 -4.15 -21.8 L-5.55 -20.1 1.95 -18.4 7.9 -16.65 Q9.2 -16.2 9.35 -15.3 9.65 -14.55 9.05 -13.35 L8.05 -11.45 6.95 -9.65 Q6.55 -7.05 4.85 -5.1 4.55 -4.75 4.05 -4.8 1.95 -5.1 2.5 -7.05 3.45 -10.6 5.2 -13.8 L2.3 -14.55 -7.65 -16.85 -8.35 -17.0 Q-9.15 -17.05 -9.6 -17.4 L-11.15 -9.0 Q-11.45 -7.35 -12.0 -5.8 -12.55 -3.05 -13.6 -0.5 -13.6 0.15 -14.1 0.55 L-14.15 0.6 Q-14.35 1.05 -14.9 1.05 L-15.4 1.05 -18.85 1.15 -23.6 0.35 Q-24.3 0.2 -24.5 -0.55 -24.95 -2.6 -22.9 -2.95 L-16.55 -2.2 -15.5 -6.25 Q-14.25 -10.55 -13.7 -15.05 L-13.35 -17.5 -12.95 -19.45 Q-13.15 -20.05 -12.7 -20.9 L-11.95 -22.0 Q-9.2 -25.05 -6.7 -28.4 L-5.35 -29.95 -5.25 -30.05 Q-6.9 -30.4 -6.8 -32.35 -6.7 -34.7 -4.3 -35.05 L-3.25 -35.1 -2.1 -37.55 -2.4 -40.1 -2.7 -41.95 -4.2 -52.05 Q-4.6 -54.65 -5.15 -57.25 L-5.9 -59.3 -6.0 -59.95 Q-7.3 -63.95 -8.0 -68.1 -8.35 -70.25 -6.3 -70.6 -4.35 -70.15 -4.3 -68.0 L-4.2 -67.0 -1.65 -57.1 -1.05 -54.55 0.6 -44.35 0.7 -43.75 0.9 -44.25 Q1.9 -46.6 2.55 -49.1 2.7 -49.65 3.2 -49.9 L4.0 -50.15 M-11.4 -51.35 Q-10.9 -51.85 -10.25 -51.9 -7.65 -51.65 -8.6 -49.35 L-9.3 -48.4 Q-11.0 -46.95 -13.1 -45.95 -17.75 -43.75 -22.6 -42.15 -24.6 -41.5 -26.2 -42.6 -27.05 -43.15 -27.15 -44.15 -27.3 -45.9 -25.75 -46.65 -23.6 -47.7 -22.05 -45.95 -17.6 -47.7 -13.35 -49.95 L-11.4 -51.35" fill="#666666" fill-rule="evenodd" stroke="none"/>
  </g>
</svg>
