<?xml version="1.0" encoding="UTF-8" standalone="no"?>
<svg xmlns:ffdec="https://www.free-decompiler.com/flash" xmlns:xlink="http://www.w3.org/1999/xlink" ffdec:objectType="shape" height="34.55px" width="36.55px" xmlns="http://www.w3.org/2000/svg">
  <g transform="matrix(1.0, 0.0, 0.0, 1.0, 35.2, 69.4)">
    <path d="M0.7 -45.85 Q1.5 -40.8 1.3 -35.8 L1.15 -35.45 Q-0.55 -34.05 -1.75 -35.8 L-2.15 -37.0 Q-2.2 -42.15 -2.9 -47.1 L-3.6 -51.6 Q-4.6 -56.85 -6.55 -61.75 L-6.8 -62.45 -6.85 -63.0 Q-8.1 -65.4 -8.75 -67.95 L-8.6 -68.65 -7.15 -69.4 Q-5.3 -68.95 -4.55 -66.95 L-2.65 -62.0 Q-1.6 -59.3 -1.15 -56.45 0.35 -52.15 0.5 -47.55 L0.7 -45.85 M-31.35 -51.95 Q-32.25 -54.05 -30.1 -55.2 -29.0 -55.85 -29.9 -56.75 L-33.6 -55.8 -34.2 -55.85 Q-35.9 -56.85 -34.7 -58.45 L-33.75 -59.3 Q-32.45 -60.1 -31.0 -60.25 -27.9 -60.55 -26.65 -58.45 L-26.35 -58.55 -23.1 -58.45 -22.3 -58.4 -17.05 -59.05 Q-14.4 -59.35 -14.6 -56.95 -14.65 -56.55 -14.85 -56.3 -12.55 -56.4 -12.75 -54.2 -12.75 -53.55 -13.4 -53.3 -14.55 -52.8 -15.8 -52.4 L-23.15 -50.4 Q-23.0 -48.45 -24.7 -47.05 -26.5 -45.65 -27.6 -47.6 -28.05 -48.4 -27.5 -49.15 L-26.6 -50.35 -29.15 -50.6 Q-29.8 -50.4 -30.35 -50.85 L-30.9 -51.45 -31.35 -51.95 M-26.25 -54.15 Q-25.35 -54.05 -24.7 -53.6 L-24.25 -53.75 -19.4 -55.15 -22.2 -54.95 -26.0 -55.2 Q-26.05 -54.7 -26.25 -54.15" fill="#666666" fill-rule="evenodd" stroke="none"/>
  </g>
</svg>
