<?xml version="1.0" encoding="UTF-8" standalone="no"?>
<svg xmlns:ffdec="https://www.free-decompiler.com/flash" xmlns:xlink="http://www.w3.org/1999/xlink" ffdec:objectType="shape" height="28.9px" width="50.6px" xmlns="http://www.w3.org/2000/svg">
  <g transform="matrix(1.0, 0.0, 0.0, 1.0, 29.2, 39.3)">
    <path d="M1.8 -35.4 Q2.15 -34.45 1.95 -33.1 L1.8 -30.55 1.55 -19.3 18.35 -21.25 19.7 -21.05 Q22.0 -20.25 21.15 -17.95 L20.9 -17.4 Q21.15 -14.2 20.4 -11.2 20.25 -10.7 19.75 -10.55 17.2 -9.8 17.0 -12.3 16.85 -14.45 16.85 -16.6 8.1 -16.5 -0.5 -14.8 -1.4 -14.65 -1.9 -15.35 -2.8 -16.7 -2.7 -18.45 L-2.3 -29.15 -2.35 -32.2 -12.8 -31.25 -13.75 -27.7 -14.1 -26.75 -14.85 -25.5 -16.4 -19.4 Q-17.15 -16.0 -19.25 -13.35 -19.65 -12.8 -20.35 -12.85 L-26.6 -14.15 Q-27.9 -14.55 -28.8 -15.6 -29.6 -16.6 -28.85 -17.65 -27.8 -19.1 -26.05 -18.4 -23.9 -17.55 -21.6 -17.35 L-20.05 -22.7 -19.05 -26.0 -17.95 -28.6 Q-17.3 -31.45 -16.15 -34.05 -15.7 -35.0 -14.65 -35.15 L-3.25 -36.45 -2.5 -36.3 -1.85 -36.25 -1.9 -37.45 Q-1.95 -39.1 -0.35 -39.3 1.85 -39.0 1.8 -36.8 L1.8 -35.4" fill="#666666" fill-rule="evenodd" stroke="none"/>
  </g>
</svg>
