<?xml version="1.0" encoding="UTF-8" standalone="no"?>
<svg xmlns:ffdec="https://www.free-decompiler.com/flash" xmlns:xlink="http://www.w3.org/1999/xlink" ffdec:objectType="shape" height="29.05px" width="38.0px" xmlns="http://www.w3.org/2000/svg">
  <g transform="matrix(1.0, 0.0, 0.0, 1.0, 35.55, 60.0)">
    <path d="M2.05 -35.0 Q2.65 -33.35 2.3 -31.8 2.1 -31.1 1.4 -31.0 -0.85 -30.65 -1.3 -32.9 L-1.9 -37.35 Q-1.95 -38.3 -1.05 -38.7 L-0.35 -38.9 Q1.8 -38.25 1.9 -35.9 L2.05 -35.0 M-35.15 -58.05 Q-34.15 -59.1 -32.7 -59.6 L-31.35 -59.9 Q-28.7 -60.35 -27.2 -59.0 L-26.25 -59.05 -25.75 -59.05 -17.3 -58.85 Q-16.2 -58.8 -16.0 -57.7 -15.7 -55.9 -17.55 -55.8 L-25.35 -55.45 -25.9 -55.35 -26.1 -54.7 -26.5 -53.8 Q-25.05 -53.4 -24.25 -52.45 -20.75 -53.55 -17.35 -54.9 L-14.05 -55.95 Q-11.7 -56.15 -11.85 -54.0 -11.95 -52.75 -13.2 -52.4 L-17.1 -51.15 Q-20.2 -50.0 -23.35 -49.2 -23.5 -46.75 -26.15 -46.1 L-26.8 -46.2 Q-28.5 -47.3 -27.3 -48.9 -27.0 -49.2 -26.95 -49.65 L-27.05 -50.3 -30.0 -50.8 Q-31.75 -50.25 -32.35 -52.15 -32.55 -52.9 -31.95 -53.4 L-30.7 -54.4 Q-29.8 -54.95 -29.4 -55.95 L-29.5 -56.2 Q-31.0 -56.9 -32.6 -55.85 -34.6 -54.55 -35.4 -56.65 -35.75 -57.45 -35.15 -58.05" fill="#666666" fill-rule="evenodd" stroke="none"/>
  </g>
</svg>
