<?xml version="1.0" encoding="UTF-8" standalone="no"?>
<svg xmlns:ffdec="https://www.free-decompiler.com/flash" xmlns:xlink="http://www.w3.org/1999/xlink" ffdec:objectType="shape" height="34.5px" width="10.7px" xmlns="http://www.w3.org/2000/svg">
  <g transform="matrix(1.0, 0.0, 0.0, 1.0, 8.85, 69.05)">
    <path d="M1.45 -39.05 L1.75 -36.8 Q2.25 -34.85 0.2 -34.55 -0.4 -34.5 -0.8 -34.95 -2.15 -36.55 -2.25 -38.6 -2.35 -41.85 -2.9 -44.95 L-3.5 -49.45 -4.2 -54.5 -5.3 -59.4 Q-6.4 -63.4 -8.7 -66.85 -8.95 -67.3 -8.8 -67.8 -8.4 -69.0 -7.15 -69.05 -5.2 -68.75 -4.3 -66.75 L-3.25 -64.2 Q-1.25 -59.4 -0.6 -54.25 L-0.05 -49.1 Q0.2 -46.5 0.75 -43.95 L1.45 -39.05" fill="#666666" fill-rule="evenodd" stroke="none"/>
  </g>
</svg>
