<?xml version="1.0" encoding="UTF-8" standalone="no"?>
<svg xmlns:ffdec="https://www.free-decompiler.com/flash" xmlns:xlink="http://www.w3.org/1999/xlink" ffdec:objectType="shape" height="31.0px" width="50.65px" xmlns="http://www.w3.org/2000/svg">
  <g transform="matrix(1.0, 0.0, 0.0, 1.0, 31.95, 39.6)">
    <path d="M2.05 -35.75 L2.3 -35.75 Q2.8 -34.8 2.45 -33.35 L2.25 -31.7 Q2.05 -25.9 1.05 -20.25 L1.0 -19.95 4.4 -20.65 16.25 -20.45 16.85 -20.65 17.35 -20.4 Q18.1 -20.35 18.35 -19.6 L18.35 -19.55 Q19.0 -18.6 18.4 -17.0 17.9 -15.55 18.0 -13.9 18.25 -11.35 17.4 -9.15 17.15 -8.6 16.6 -8.6 14.1 -8.65 14.3 -11.2 L14.7 -16.2 14.85 -17.35 4.8 -16.9 Q2.5 -16.8 0.3 -15.9 L-0.55 -15.7 -1.05 -15.7 Q-1.65 -15.65 -2.1 -15.95 -2.65 -16.25 -2.65 -16.85 -3.0 -17.6 -2.85 -18.35 -1.9 -24.85 -1.35 -31.35 L-1.25 -32.4 -11.8 -29.1 -12.35 -28.9 -12.55 -28.5 -12.9 -27.0 Q-13.05 -23.7 -14.45 -20.7 L-16.95 -15.15 Q-17.75 -13.4 -18.85 -11.95 -19.6 -10.1 -21.85 -10.95 L-24.75 -11.6 Q-28.8 -12.05 -31.65 -14.8 -32.0 -15.1 -31.95 -15.5 -31.75 -17.05 -30.25 -17.2 -27.3 -15.9 -24.1 -15.4 L-21.35 -14.65 Q-18.75 -20.3 -16.65 -26.05 -16.15 -27.4 -16.15 -28.9 L-16.05 -29.7 -16.1 -29.85 Q-16.3 -31.2 -15.0 -31.7 L-5.9 -34.75 -2.3 -35.85 -1.55 -35.8 -1.8 -36.85 Q-2.3 -39.15 -0.1 -39.6 1.95 -38.95 2.05 -36.6 L2.05 -35.75" fill="#666666" fill-rule="evenodd" stroke="none"/>
  </g>
</svg>
