<?xml version="1.0" encoding="UTF-8" standalone="no"?>
<svg xmlns:ffdec="https://www.free-decompiler.com/flash" xmlns:xlink="http://www.w3.org/1999/xlink" ffdec:objectType="shape" height="37.15px" width="37.4px" xmlns="http://www.w3.org/2000/svg">
  <g transform="matrix(1.0, 0.0, 0.0, 1.0, 35.45, 67.85)">
    <path d="M1.95 -32.25 Q2.0 -31.4 1.2 -31.0 -0.4 -30.15 -1.1 -31.75 L-1.65 -33.65 -3.5 -43.7 -4.2 -48.75 Q-4.8 -53.85 -6.1 -58.85 L-6.65 -61.35 Q-7.15 -63.85 -8.1 -66.1 -8.3 -66.5 -8.05 -66.9 -7.5 -67.8 -6.55 -67.85 -4.2 -67.25 -3.65 -64.75 L-1.5 -54.65 -0.7 -49.5 Q-0.1 -44.4 0.9 -39.4 L1.95 -32.25 M-33.85 -58.9 L-32.2 -59.4 Q-29.45 -60.0 -27.5 -58.3 L-26.85 -58.6 -22.05 -59.4 -16.9 -59.2 Q-15.8 -59.15 -15.6 -58.05 -15.3 -56.25 -17.2 -56.1 L-21.55 -55.7 -25.65 -55.35 -26.3 -55.3 Q-26.3 -54.2 -26.8 -53.3 L-25.95 -52.9 -25.7 -53.0 -15.75 -55.5 -15.25 -55.6 Q-12.95 -55.25 -13.75 -53.2 -14.25 -52.0 -15.55 -51.75 L-20.85 -50.4 -23.6 -49.75 -23.65 -48.9 Q-23.85 -47.4 -25.05 -46.6 -26.95 -45.3 -27.8 -47.25 -28.3 -48.4 -27.35 -49.25 L-27.35 -49.4 -27.35 -49.5 -27.3 -49.65 -30.65 -49.9 Q-31.7 -49.8 -32.1 -50.75 -32.5 -51.7 -32.05 -52.3 L-32.2 -52.85 Q-32.35 -53.7 -31.6 -54.15 L-29.85 -55.2 -29.85 -55.3 -29.85 -55.45 -29.85 -55.6 -29.95 -55.7 -30.1 -55.85 -33.8 -55.25 -34.4 -55.35 Q-36.2 -56.5 -34.85 -58.15 L-33.85 -58.9" fill="#666666" fill-rule="evenodd" stroke="none"/>
  </g>
</svg>
