<?xml version="1.0" encoding="UTF-8" standalone="no"?>
<svg xmlns:ffdec="https://www.free-decompiler.com/flash" xmlns:xlink="http://www.w3.org/1999/xlink" ffdec:objectType="shape" height="38.05px" width="36.35px" xmlns="http://www.w3.org/2000/svg">
  <g transform="matrix(1.0, 0.0, 0.0, 1.0, 34.5, 67.35)">
    <path d="M1.65 -31.45 L1.45 -30.55 Q1.1 -29.4 -0.1 -29.55 L-0.15 -29.55 -0.2 -29.55 Q-2.45 -28.7 -2.9 -30.9 -3.05 -31.6 -2.55 -32.1 L-1.95 -32.65 Q-1.95 -37.35 -2.95 -41.85 L-4.8 -51.9 -5.4 -56.95 Q-5.5 -58.75 -6.2 -60.5 L-7.2 -63.15 Q-8.8 -65.0 -7.55 -66.8 L-6.8 -67.3 -6.55 -67.35 Q-4.3 -66.8 -3.75 -64.35 L-3.45 -63.4 Q-2.05 -59.8 -1.7 -55.95 -1.2 -50.85 -0.15 -45.85 0.9 -40.85 1.45 -35.75 L1.7 -32.85 Q2.0 -32.3 1.65 -31.45 M-34.45 -56.5 Q-34.75 -58.8 -32.2 -58.85 -29.8 -59.2 -28.4 -58.0 L-19.75 -58.65 -19.1 -58.7 -15.25 -58.5 Q-13.95 -58.4 -13.9 -57.1 -13.8 -55.5 -15.5 -55.4 L-25.85 -54.75 -26.85 -54.7 -26.9 -54.15 -26.95 -53.9 Q-25.95 -53.6 -25.3 -52.75 L-23.1 -53.45 -17.45 -54.8 -16.15 -55.1 Q-13.65 -55.35 -13.75 -53.15 -13.8 -51.95 -15.0 -51.65 L-24.65 -49.3 -24.75 -49.1 Q-25.05 -46.6 -27.35 -45.95 L-28.0 -46.05 Q-29.65 -47.05 -28.65 -48.75 -28.15 -49.55 -28.05 -50.5 L-31.25 -50.35 Q-32.15 -50.45 -32.3 -51.35 L-32.3 -52.5 Q-32.3 -53.25 -31.6 -53.75 L-30.5 -54.4 -30.55 -54.55 -30.65 -54.9 -30.8 -55.2 Q-32.45 -55.1 -34.0 -55.85 -34.4 -56.05 -34.45 -56.5" fill="#666666" fill-rule="evenodd" stroke="none"/>
  </g>
</svg>
