<?xml version="1.0" encoding="UTF-8" standalone="no"?>
<svg xmlns:ffdec="https://www.free-decompiler.com/flash" xmlns:xlink="http://www.w3.org/1999/xlink" ffdec:objectType="shape" height="31.9px" width="44.65px" xmlns="http://www.w3.org/2000/svg">
  <g transform="matrix(1.0, 0.0, 0.0, 1.0, 30.75, 32.3)">
    <path d="M1.8 -31.65 Q2.1 -30.75 1.6 -29.4 L1.0 -27.35 Q0.5 -24.85 -0.55 -22.5 -0.85 -21.0 -1.3 -19.6 4.0 -19.5 9.1 -17.95 L11.6 -17.2 11.75 -17.25 12.2 -17.05 Q13.45 -16.7 13.65 -15.75 14.15 -14.7 13.6 -13.1 L11.4 -7.3 Q11.0 -6.35 9.95 -6.45 7.6 -6.75 8.0 -9.05 8.4 -11.3 9.1 -13.55 L5.95 -14.2 Q1.3 -15.5 -3.5 -15.25 -5.45 -15.15 -5.85 -16.55 -6.25 -17.2 -6.0 -18.25 L-5.25 -21.05 -3.85 -25.5 -10.7 -20.6 Q-10.65 -19.75 -11.3 -18.65 -14.6 -12.75 -15.9 -6.2 -16.4 -3.8 -17.15 -1.55 -17.35 -1.0 -17.9 -0.75 -19.85 0.15 -21.6 -1.3 L-22.4 -1.8 Q-25.75 -3.8 -29.65 -4.55 -30.4 -4.7 -30.6 -5.45 -31.3 -8.2 -28.25 -8.1 L-26.1 -7.8 Q-23.05 -7.2 -20.4 -5.6 -19.35 -10.0 -17.9 -14.15 L-16.0 -18.95 -14.5 -21.55 -14.15 -22.85 -12.9 -24.2 Q-7.3 -27.65 -2.6 -32.3 L1.9 -32.15 1.8 -31.65" fill="#666666" fill-rule="evenodd" stroke="none"/>
  </g>
</svg>
