<?xml version="1.0" encoding="UTF-8" standalone="no"?>
<svg xmlns:ffdec="https://www.free-decompiler.com/flash" xmlns:xlink="http://www.w3.org/1999/xlink" ffdec:objectType="shape" height="39.15px" width="36.7px" xmlns="http://www.w3.org/2000/svg">
  <g transform="matrix(1.0, 0.0, 0.0, 1.0, 34.55, 69.55)">
    <path d="M1.3 -30.5 Q-0.6 -29.95 -1.2 -31.9 L-1.45 -33.0 -1.85 -37.3 Q-2.5 -39.45 -2.75 -41.8 L-3.05 -44.25 -4.5 -54.2 Q-5.0 -58.05 -6.55 -61.75 L-7.55 -64.55 -7.85 -65.05 -7.95 -65.55 Q-9.5 -67.4 -8.0 -69.1 -7.6 -69.55 -7.05 -69.55 -5.0 -68.75 -4.35 -66.45 L-3.0 -62.15 -1.4 -57.1 -1.0 -55.2 0.45 -45.0 2.0 -34.8 Q2.25 -33.05 2.1 -31.45 2.05 -30.7 1.3 -30.5 M-31.3 -53.9 Q-30.8 -54.0 -30.5 -54.4 -31.8 -55.05 -33.35 -55.0 -33.85 -54.95 -34.1 -55.35 -35.3 -57.2 -33.25 -58.15 L-32.65 -58.35 Q-30.35 -58.65 -28.9 -57.65 L-28.7 -57.8 -26.7 -58.35 -17.4 -59.05 Q-14.75 -58.8 -15.7 -56.5 -15.95 -55.95 -16.5 -55.7 -17.75 -55.2 -19.1 -55.2 L-27.1 -54.8 -27.05 -53.9 Q-26.1 -53.55 -25.5 -52.7 L-25.15 -52.75 -24.25 -52.95 Q-19.9 -54.4 -15.5 -55.1 -13.1 -54.95 -13.7 -52.75 -13.9 -52.0 -14.7 -51.8 L-21.0 -50.05 -23.0 -49.45 -24.5 -49.15 -24.7 -48.2 Q-25.7 -45.4 -28.6 -46.05 -29.25 -46.2 -29.45 -46.85 -29.95 -48.55 -28.2 -49.3 L-28.1 -49.4 -28.05 -49.8 -28.0 -50.05 -28.05 -50.2 -28.35 -50.55 -28.45 -50.65 -29.25 -50.7 -29.45 -50.6 Q-31.75 -49.3 -33.3 -51.15 -33.6 -51.5 -33.5 -51.95 -33.15 -53.6 -31.3 -53.9" fill="#666666" fill-rule="evenodd" stroke="none"/>
  </g>
</svg>
