<?xml version="1.0" encoding="UTF-8" standalone="no"?>
<svg xmlns:ffdec="https://www.free-decompiler.com/flash" xmlns:xlink="http://www.w3.org/1999/xlink" ffdec:objectType="shape" height="34.6px" width="36.75px" xmlns="http://www.w3.org/2000/svg">
  <g transform="matrix(1.0, 0.0, 0.0, 1.0, 25.2, 33.2)">
    <path d="M2.1 -31.8 L2.25 -31.35 2.45 -30.65 Q1.95 -29.85 2.0 -29.2 0.15 -24.95 -2.65 -21.1 L-3.95 -19.2 6.4 -17.75 Q8.65 -17.35 10.6 -16.25 11.4 -15.8 11.35 -15.1 11.65 -14.35 11.5 -13.25 11.1 -10.3 9.85 -7.5 L9.25 -6.45 6.55 -6.4 Q6.0 -7.1 6.2 -8.0 L7.35 -12.05 7.65 -13.45 2.2 -14.6 -6.25 -16.2 -6.65 -16.2 Q-7.3 -16.3 -7.7 -16.55 L-8.1 -16.9 -8.3 -17.85 -8.2 -18.55 -8.2 -18.6 Q-7.75 -20.15 -6.8 -21.55 L-4.9 -24.4 -8.35 -20.6 -9.15 -19.8 Q-9.2 -19.1 -9.65 -18.25 L-10.7 -15.55 -12.1 -11.2 -13.35 -5.65 -13.7 -4.8 Q-13.75 -1.8 -15.25 0.5 L-15.35 0.7 Q-15.8 1.55 -16.8 1.35 -20.6 0.5 -24.2 -0.9 -25.4 -1.4 -25.15 -2.65 -24.8 -3.95 -23.55 -4.05 L-17.8 -2.4 -16.7 -6.75 Q-15.6 -12.85 -13.65 -18.75 L-12.9 -20.85 -12.15 -21.9 Q-8.1 -26.95 -3.25 -31.25 L-2.4 -31.95 -2.4 -32.3 -1.75 -32.65 Q0.65 -34.05 2.1 -31.8" fill="#666666" fill-rule="evenodd" stroke="none"/>
  </g>
</svg>
