<?xml version="1.0" encoding="UTF-8" standalone="no"?>
<svg xmlns:ffdec="https://www.free-decompiler.com/flash" xmlns:xlink="http://www.w3.org/1999/xlink" ffdec:objectType="shape" height="38.25px" width="35.1px" xmlns="http://www.w3.org/2000/svg">
  <g transform="matrix(1.0, 0.0, 0.0, 1.0, 34.25, 68.9)">
    <path d="M0.5 -32.9 Q-0.05 -31.0 -1.55 -30.85 L-1.65 -30.8 -2.85 -30.85 Q-4.4 -31.7 -3.6 -33.35 L-3.1 -34.1 -2.8 -34.7 -3.1 -40.3 Q-3.5 -45.5 -4.2 -50.6 -4.95 -55.75 -6.5 -60.65 L-8.1 -64.9 -8.7 -66.65 Q-9.15 -68.55 -7.15 -68.9 -5.05 -68.25 -4.4 -65.9 L-4.0 -64.55 Q-2.2 -59.65 -1.25 -54.6 -0.55 -50.85 -0.25 -47.0 L0.8 -36.8 Q0.95 -35.4 0.65 -34.15 L0.65 -33.55 0.5 -32.9 M-33.95 -57.55 Q-33.45 -58.35 -32.55 -58.4 -30.3 -58.9 -28.55 -57.7 L-28.15 -57.4 -27.65 -57.5 -25.9 -57.7 -18.7 -58.25 -17.05 -58.4 Q-14.2 -58.7 -14.5 -56.15 -14.6 -55.45 -15.3 -55.2 L-18.1 -54.7 -23.95 -54.35 -26.9 -53.9 -26.1 -53.4 -25.6 -53.45 -23.2 -53.7 -15.15 -54.95 Q-13.1 -55.4 -12.25 -53.8 -11.75 -52.75 -12.65 -52.0 -13.5 -51.35 -14.65 -51.25 -19.8 -50.9 -24.75 -49.7 -25.1 -48.35 -25.9 -47.1 -27.1 -45.35 -28.6 -46.9 -29.15 -47.5 -29.05 -48.35 -28.85 -49.45 -28.25 -50.4 -28.7 -51.0 -29.7 -51.1 L-30.1 -50.8 Q-31.25 -49.85 -32.3 -50.95 -33.05 -51.8 -32.65 -52.85 -32.3 -53.9 -31.35 -54.6 L-31.0 -54.85 Q-33.0 -54.45 -33.95 -55.95 -34.5 -56.75 -33.95 -57.55" fill="#666666" fill-rule="evenodd" stroke="none"/>
  </g>
</svg>
