<?xml version="1.0" encoding="UTF-8" standalone="no"?>
<svg xmlns:ffdec="https://www.free-decompiler.com/flash" xmlns:xlink="http://www.w3.org/1999/xlink" ffdec:objectType="shape" height="34.7px" width="32.45px" xmlns="http://www.w3.org/2000/svg">
  <g transform="matrix(1.0, 0.0, 0.0, 1.0, 23.2, 33.45)">
    <path d="M9.25 -14.55 Q9.4 -11.85 7.95 -9.45 7.15 -8.1 6.8 -6.55 6.55 -5.3 5.65 -4.45 3.8 -2.6 2.45 -4.85 1.9 -5.65 2.2 -6.7 3.05 -9.6 4.45 -12.35 3.45 -13.25 1.75 -13.95 -3.5 -16.0 -8.9 -17.4 L-9.2 -15.85 Q-10.15 -9.35 -11.35 -2.9 -11.65 -1.3 -12.3 0.2 -12.7 1.25 -13.85 1.25 L-22.05 0.95 Q-22.55 0.9 -22.85 0.4 -24.0 -1.8 -21.55 -2.45 L-19.35 -2.95 -15.4 -3.05 Q-14.15 -9.15 -13.45 -15.35 L-13.25 -18.15 Q-13.2 -19.2 -12.8 -20.05 -12.85 -21.05 -11.9 -21.95 -10.3 -23.4 -9.25 -25.3 -7.25 -29.05 -4.65 -32.35 L-4.65 -32.45 -3.55 -33.45 Q-1.7 -32.65 0.25 -32.0 -0.55 -31.0 -0.95 -29.75 L-0.95 -29.7 -1.1 -29.8 -1.65 -28.55 -6.35 -20.75 Q-1.15 -19.75 3.65 -17.6 L8.8 -15.25 9.25 -14.55" fill="#666666" fill-rule="evenodd" stroke="none"/>
  </g>
</svg>
