<?xml version="1.0" encoding="UTF-8" standalone="no"?>
<svg xmlns:ffdec="https://www.free-decompiler.com/flash" xmlns:xlink="http://www.w3.org/1999/xlink" ffdec:objectType="shape" height="33.8px" width="10.5px" xmlns="http://www.w3.org/2000/svg">
  <g transform="matrix(1.0, 0.0, 0.0, 1.0, 8.95, 70.95)">
    <path d="M1.15 -42.35 L0.9 -41.7 1.55 -37.15 -2.15 -37.15 Q-1.85 -39.95 -3.3 -41.7 L-2.95 -42.4 -4.3 -51.45 -4.7 -54.55 -4.75 -55.45 Q-6.0 -59.8 -7.55 -64.15 L-7.65 -65.1 Q-9.95 -67.85 -8.2 -70.45 -7.85 -70.95 -7.3 -70.95 -5.05 -69.8 -4.1 -67.1 -1.25 -58.8 -0.2 -50.1 L-0.1 -49.45 -0.15 -47.85 Q0.0 -45.85 0.5 -43.95 0.75 -43.05 1.15 -42.35" fill="#666666" fill-rule="evenodd" stroke="none"/>
  </g>
</svg>
