<?xml version="1.0" encoding="UTF-8" standalone="no"?>
<svg xmlns:ffdec="https://www.free-decompiler.com/flash" xmlns:xlink="http://www.w3.org/1999/xlink" ffdec:objectType="shape" height="39.15px" width="30.7px" xmlns="http://www.w3.org/2000/svg">
  <g transform="matrix(1.0, 0.0, 0.0, 1.0, 22.8, 37.55)">
    <path d="M-21.9 -37.5 L-21.55 -37.45 -22.8 -37.55 -21.9 -37.5 M1.05 -32.4 L1.15 -30.5 Q-1.45 -25.55 -4.9 -21.05 L-5.2 -20.4 -2.9 -19.35 Q2.25 -17.4 7.05 -14.95 8.35 -14.3 7.65 -13.05 L3.1 -5.45 Q2.4 -4.3 1.15 -4.85 -1.3 -5.85 0.1 -8.2 L2.25 -11.15 2.75 -11.6 2.85 -12.05 3.15 -12.7 Q-1.5 -14.6 -6.1 -16.8 -6.45 -14.6 -6.3 -12.4 L-5.9 -4.3 Q-5.85 -2.1 -6.2 -0.05 L-6.4 0.85 -6.4 0.9 -6.55 1.1 Q-7.0 1.5 -7.9 1.55 L-14.55 1.3 Q-15.0 1.55 -15.55 1.3 L-16.0 1.05 -16.05 1.05 Q-16.55 0.9 -16.7 0.45 -17.1 -0.1 -16.8 -0.7 -16.7 -1.75 -15.65 -2.05 L-15.15 -2.15 -9.6 -1.95 Q-9.75 -10.25 -10.2 -18.5 L-10.2 -18.95 -10.65 -19.25 Q-14.2 -21.05 -11.35 -24.0 L-8.0 -27.15 -5.65 -29.25 -5.5 -29.3 Q-3.15 -30.2 -2.35 -32.4 L1.05 -32.4" fill="#666666" fill-rule="evenodd" stroke="none"/>
  </g>
</svg>
