<?xml version="1.0" encoding="UTF-8" standalone="no"?>
<svg xmlns:ffdec="https://www.free-decompiler.com/flash" xmlns:xlink="http://www.w3.org/1999/xlink" ffdec:objectType="shape" height="11.8px" width="23.1px" xmlns="http://www.w3.org/2000/svg">
  <g transform="matrix(1.0, 0.0, 0.0, 1.0, 34.3, 59.2)">
    <path d="M-32.65 -59.2 Q-30.2 -59.35 -28.95 -57.95 L-28.55 -58.05 -20.25 -58.55 -16.1 -58.35 Q-14.8 -58.25 -14.75 -56.95 L-14.8 -56.35 -13.6 -56.5 Q-11.0 -56.7 -11.2 -54.4 -11.2 -53.7 -11.85 -53.45 -13.3 -52.75 -14.95 -52.65 -18.8 -52.4 -22.35 -51.0 -23.65 -50.45 -24.95 -50.4 -25.8 -47.75 -28.7 -47.4 -29.25 -47.3 -29.6 -47.8 -30.85 -49.7 -28.85 -50.75 -28.5 -50.95 -28.45 -51.3 -28.95 -51.45 -29.75 -50.9 -30.45 -50.5 -31.1 -50.9 L-31.15 -50.9 -32.55 -51.2 Q-33.15 -51.45 -33.2 -52.1 -33.4 -54.05 -31.4 -54.8 L-31.4 -54.95 -31.4 -55.2 -31.45 -55.3 Q-32.85 -55.65 -33.95 -56.55 -34.3 -56.8 -34.3 -57.2 -34.4 -59.0 -32.65 -59.2 M-25.6 -53.95 L-21.8 -54.9 -21.4 -55.0 -26.4 -54.65 -25.6 -53.95" fill="#666666" fill-rule="evenodd" stroke="none"/>
  </g>
</svg>
