<?xml version="1.0" encoding="UTF-8" standalone="no"?>
<svg xmlns:ffdec="https://www.free-decompiler.com/flash" xmlns:xlink="http://www.w3.org/1999/xlink" ffdec:objectType="shape" height="37.5px" width="9.35px" xmlns="http://www.w3.org/2000/svg">
  <g transform="matrix(1.0, 0.0, 0.0, 1.0, 8.1, 66.95)">
    <path d="M1.2 -37.6 Q1.4 -34.5 0.95 -31.5 0.55 -28.95 -1.9 -29.6 -2.75 -29.85 -2.8 -30.75 -2.85 -31.75 -2.5 -32.7 -2.1 -33.9 -2.15 -35.25 -2.5 -40.4 -3.35 -45.45 L-4.9 -55.65 Q-5.35 -59.55 -7.5 -62.85 -8.4 -64.3 -7.95 -65.8 -7.65 -66.9 -6.55 -66.95 -4.6 -66.35 -3.85 -64.35 L-3.3 -63.0 Q-1.35 -58.15 -0.9 -52.95 L-0.7 -51.65 0.85 -41.45 1.2 -37.6" fill="#666666" fill-rule="evenodd" stroke="none"/>
  </g>
</svg>
