<?xml version="1.0" encoding="UTF-8" standalone="no"?>
<svg xmlns:ffdec="https://www.free-decompiler.com/flash" xmlns:xlink="http://www.w3.org/1999/xlink" ffdec:objectType="shape" height="36.3px" width="19.15px" xmlns="http://www.w3.org/2000/svg">
  <g transform="matrix(1.0, 0.0, 0.0, 1.0, 14.95, 34.4)">
    <path d="M4.2 -14.4 Q4.25 -13.65 3.7 -12.6 L1.05 -7.8 0.45 -6.9 -2.7 -6.85 Q-3.35 -7.55 -3.1 -8.6 -2.55 -10.9 -1.0 -12.85 L-0.65 -13.3 -5.05 -15.35 -4.95 -14.55 Q-4.7 -11.2 -3.7 -8.0 -2.55 -4.35 -2.55 -0.5 -2.35 0.3 -2.6 0.8 L-3.0 1.3 Q-4.35 2.3 -5.3 1.7 -8.4 1.95 -11.55 1.8 -13.6 1.75 -13.4 -0.2 -13.2 -1.9 -11.55 -2.05 L-6.8 -1.9 -8.55 -10.15 -9.35 -13.55 -9.6 -15.65 Q-9.8 -16.15 -9.65 -16.75 L-9.4 -17.6 -12.9 -19.65 Q-14.05 -20.35 -14.5 -21.4 -15.35 -22.4 -14.55 -23.45 L-14.15 -23.95 Q-9.65 -28.75 -4.15 -32.45 L-4.05 -32.5 -3.95 -32.5 -2.85 -33.2 Q-2.15 -34.35 -0.85 -34.4 1.55 -33.8 0.4 -31.7 L-0.05 -31.0 -0.5 -29.15 -1.6 -26.4 -4.1 -19.5 -3.9 -19.4 Q-0.7 -17.6 2.8 -16.35 4.35 -15.8 4.2 -14.4 M-8.8 -22.55 L-7.85 -21.95 -6.95 -23.65 -6.3 -25.5 -9.45 -22.95 -8.8 -22.55" fill="#666666" fill-rule="evenodd" stroke="none"/>
  </g>
</svg>
