<?xml version="1.0" encoding="UTF-8" standalone="no"?>
<svg xmlns:ffdec="https://www.free-decompiler.com/flash" xmlns:xlink="http://www.w3.org/1999/xlink" ffdec:objectType="shape" height="39.35px" width="36.15px" xmlns="http://www.w3.org/2000/svg">
  <g transform="matrix(1.0, 0.0, 0.0, 1.0, 34.35, 68.7)">
    <path d="M1.15 -43.5 Q1.85 -38.4 1.8 -33.15 1.75 -32.1 1.15 -31.3 0.45 -30.35 -0.45 -30.6 -2.05 -28.6 -4.3 -29.8 -4.7 -30.0 -4.8 -30.5 -5.1 -32.3 -3.25 -33.2 L-2.75 -33.6 -1.85 -34.3 Q-1.7 -38.8 -2.45 -43.15 L-3.1 -46.8 -3.25 -47.95 Q-3.85 -50.1 -4.05 -52.35 -4.5 -57.5 -6.85 -62.15 -8.05 -64.45 -8.75 -66.85 -8.95 -67.45 -8.55 -67.95 -8.0 -68.65 -7.15 -68.7 -5.05 -68.05 -4.4 -65.75 L-3.9 -64.4 Q-1.55 -59.75 -0.85 -54.6 -0.15 -49.45 0.95 -44.5 L1.15 -43.5 M-33.75 -56.5 Q-34.35 -56.95 -34.35 -57.7 -34.25 -59.25 -32.65 -59.4 -30.0 -59.9 -28.1 -58.35 L-27.2 -58.65 -24.2 -59.05 -16.25 -58.4 -15.75 -58.0 Q-14.9 -55.95 -17.2 -55.5 -19.35 -55.05 -21.45 -55.45 L-24.45 -55.4 -27.1 -55.35 Q-27.2 -54.75 -27.45 -54.2 L-26.4 -53.45 -26.15 -53.55 Q-22.1 -54.85 -17.9 -55.2 L-15.2 -55.4 -13.6 -55.6 Q-11.1 -54.9 -12.4 -52.7 -12.8 -52.0 -13.6 -52.0 -18.85 -51.95 -23.8 -50.3 L-25.05 -50.05 Q-25.35 -47.75 -27.7 -46.6 L-28.7 -46.7 Q-30.5 -47.85 -29.1 -49.55 L-28.5 -50.6 Q-29.95 -51.75 -32.05 -51.8 L-32.5 -51.95 -32.95 -52.4 Q-33.8 -53.0 -33.3 -54.15 -32.85 -55.3 -31.5 -55.5 -31.15 -55.6 -30.85 -55.85 -32.4 -55.6 -33.75 -56.5" fill="#666666" fill-rule="evenodd" stroke="none"/>
  </g>
</svg>
