<?xml version="1.0" encoding="UTF-8" standalone="no"?>
<svg xmlns:ffdec="https://www.free-decompiler.com/flash" xmlns:xlink="http://www.w3.org/1999/xlink" ffdec:objectType="shape" height="40.95px" width="35.35px" xmlns="http://www.w3.org/2000/svg">
  <g transform="matrix(1.0, 0.0, 0.0, 1.0, 34.1, 69.25)">
    <path d="M1.15 -30.65 Q0.65 -28.2 -1.65 -28.3 -2.4 -28.35 -2.6 -29.05 -3.0 -30.3 -2.6 -31.55 L-2.6 -32.6 -2.2 -33.55 -2.2 -33.95 Q-1.95 -39.25 -2.8 -44.3 -3.65 -49.4 -5.15 -54.3 L-6.05 -57.45 -6.85 -61.6 -9.7 -67.2 -9.75 -67.8 Q-9.4 -69.15 -8.1 -69.25 -6.05 -68.45 -5.1 -66.25 L-4.55 -64.9 Q-3.0 -61.3 -2.3 -57.45 -1.7 -54.3 -0.75 -51.2 0.75 -46.3 1.05 -41.15 L1.15 -33.4 Q1.35 -32.9 1.2 -32.2 L1.15 -30.65 M-32.55 -60.25 Q-29.8 -60.5 -28.7 -58.5 L-28.25 -58.55 -27.0 -58.7 -19.0 -58.5 Q-17.85 -58.45 -17.65 -57.35 -17.35 -55.75 -19.0 -55.6 L-26.55 -55.1 -28.0 -54.9 -28.3 -53.7 Q-27.4 -53.5 -26.75 -52.9 L-17.15 -55.6 -14.9 -56.1 Q-12.35 -56.4 -12.4 -54.1 -12.45 -52.95 -13.7 -52.7 -17.7 -52.0 -21.6 -50.75 L-25.3 -49.55 -25.4 -48.55 Q-25.95 -46.2 -28.25 -46.8 -29.05 -46.95 -29.2 -47.8 -29.4 -48.8 -28.9 -49.7 L-28.95 -49.85 -29.25 -50.25 -29.4 -50.35 Q-32.15 -49.35 -32.7 -51.85 L-32.7 -52.2 Q-33.7 -53.25 -32.65 -54.5 L-31.6 -55.25 -31.55 -55.35 -31.55 -56.25 Q-31.55 -56.6 -31.9 -56.75 -34.15 -56.45 -34.1 -58.65 -34.05 -60.15 -32.55 -60.25" fill="#666666" fill-rule="evenodd" stroke="none"/>
  </g>
</svg>
