<?xml version="1.0" encoding="UTF-8" standalone="no"?>
<svg xmlns:ffdec="https://www.free-decompiler.com/flash" xmlns:xlink="http://www.w3.org/1999/xlink" ffdec:objectType="shape" height="34.55px" width="22.5px" xmlns="http://www.w3.org/2000/svg">
  <g transform="matrix(1.0, 0.0, 0.0, 1.0, 16.45, 33.3)">
    <path d="M0.15 -30.7 L0.45 -30.15 0.35 -29.9 0.15 -28.65 -0.15 -20.25 -0.15 -19.35 Q0.0 -18.2 -0.2 -17.2 0.3 -16.55 0.45 -15.55 L0.85 -13.7 Q2.2 -8.8 4.8 -4.35 6.0 -2.3 6.05 -0.05 6.05 0.4 5.65 0.7 4.8 1.3 4.1 1.2 L2.55 1.25 -3.85 0.7 Q-5.0 0.65 -5.15 -0.5 -5.45 -2.3 -3.6 -2.55 L1.45 -2.5 Q-0.6 -6.55 -2.1 -10.8 L-2.7 -12.8 -3.65 -11.75 -4.9 -10.3 -5.5 -9.75 Q-6.6 -7.2 -9.0 -8.0 -9.5 -8.15 -9.6 -8.65 -9.95 -10.65 -8.25 -12.1 L-7.3 -13.05 -4.85 -16.1 -6.25 -17.55 Q-9.45 -21.6 -13.7 -24.45 -14.95 -25.3 -15.75 -26.5 L-16.1 -26.9 Q-16.75 -28.05 -16.2 -28.8 L-16.05 -28.95 Q-15.65 -29.45 -15.0 -29.55 -11.65 -30.9 -8.1 -31.85 L-3.25 -33.3 -2.2 -33.25 -2.1 -33.25 -1.7 -33.05 Q-0.6 -32.0 0.15 -30.7 M-10.35 -26.8 Q-6.75 -23.8 -3.65 -20.25 L-3.55 -21.6 Q-3.3 -24.15 -3.45 -26.75 L-3.3 -29.6 -10.9 -27.2 -10.35 -26.8" fill="#666666" fill-rule="evenodd" stroke="none"/>
  </g>
</svg>
