<?xml version="1.0" encoding="UTF-8" standalone="no"?>
<svg xmlns:ffdec="https://www.free-decompiler.com/flash" xmlns:xlink="http://www.w3.org/1999/xlink" ffdec:objectType="shape" height="35.3px" width="11.6px" xmlns="http://www.w3.org/2000/svg">
  <g transform="matrix(1.0, 0.0, 0.0, 1.0, 9.8, 72.45)">
    <path d="M0.65 -49.85 Q0.65 -49.05 1.0 -48.4 L0.8 -48.05 Q2.0 -42.7 1.75 -37.15 L-1.8 -37.15 Q-1.8 -40.7 -2.25 -44.1 L-2.15 -44.8 Q-1.55 -49.6 -4.45 -51.85 L-4.35 -51.9 -4.2 -51.85 -6.1 -56.8 -6.2 -57.4 Q-7.9 -62.25 -9.05 -67.3 L-9.15 -67.95 Q-10.8 -70.7 -8.3 -72.3 L-7.9 -72.45 Q-5.55 -71.3 -5.5 -68.25 L-5.45 -68.05 Q-3.3 -59.9 -0.35 -51.9 L0.3 -50.05 0.65 -49.85" fill="#666666" fill-rule="evenodd" stroke="none"/>
  </g>
</svg>
