<?xml version="1.0" encoding="UTF-8" standalone="no"?>
<svg xmlns:ffdec="https://www.free-decompiler.com/flash" xmlns:xlink="http://www.w3.org/1999/xlink" ffdec:objectType="shape" height="35.45px" width="26.45px" xmlns="http://www.w3.org/2000/svg">
  <g transform="matrix(1.0, 0.0, 0.0, 1.0, 16.15, 33.7)">
    <path d="M1.55 -31.55 Q1.25 -29.4 1.1 -27.25 0.8 -23.1 1.15 -18.9 1.3 -17.35 0.85 -16.15 3.05 -14.6 4.45 -11.95 L5.05 -10.65 Q6.25 -8.2 7.7 -5.9 9.6 -3.8 9.9 -1.35 L10.25 -0.55 Q10.4 0.45 9.8 0.95 9.55 1.3 8.95 1.35 L8.65 1.35 Q4.85 2.15 1.1 1.25 -0.8 0.8 0.0 -1.0 0.45 -2.05 1.5 -2.1 L5.55 -1.95 4.3 -4.05 Q2.75 -6.3 2.05 -8.75 L-1.9 -14.0 Q-3.5 -15.4 -3.0 -17.65 -2.55 -19.75 -2.5 -22.0 L-2.3 -30.2 -11.0 -28.25 -11.0 -28.2 Q-7.75 -21.95 -3.6 -16.3 -3.0 -15.9 -2.95 -15.3 -2.7 -14.85 -3.0 -14.4 L-3.8 -13.45 Q-4.8 -12.25 -6.2 -11.6 L-8.45 -10.3 Q-10.45 -9.05 -12.55 -9.45 -13.25 -9.6 -13.3 -10.3 -13.55 -13.3 -10.1 -14.05 -9.55 -14.2 -9.05 -14.5 L-7.6 -15.3 -7.95 -16.15 -15.25 -26.8 Q-15.85 -27.7 -16.05 -28.7 -16.55 -30.95 -14.75 -31.55 L-12.6 -31.85 -8.05 -33.0 -4.4 -33.15 1.45 -33.7 Q1.75 -32.8 1.55 -31.55" fill="#666666" fill-rule="evenodd" stroke="none"/>
  </g>
</svg>
