<?xml version="1.0" encoding="UTF-8" standalone="no"?>
<svg xmlns:ffdec="https://www.free-decompiler.com/flash" xmlns:xlink="http://www.w3.org/1999/xlink" ffdec:objectType="shape" height="40.7px" width="36.7px" xmlns="http://www.w3.org/2000/svg">
  <g transform="matrix(1.0, 0.0, 0.0, 1.0, 34.55, 68.5)">
    <path d="M1.0 -43.4 L1.35 -39.5 Q1.45 -36.95 1.8 -34.4 L2.15 -29.95 Q2.2 -29.4 1.85 -28.85 0.75 -27.0 -0.95 -28.4 -1.5 -28.85 -1.5 -29.55 -1.45 -32.2 -1.8 -34.75 L-2.15 -38.25 Q-2.3 -43.45 -3.4 -48.45 L-4.1 -52.3 Q-4.55 -56.1 -5.3 -59.75 -5.8 -62.15 -7.1 -64.3 L-8.1 -65.45 Q-9.45 -66.55 -8.35 -67.85 -7.9 -68.45 -7.15 -68.5 -4.6 -67.7 -3.4 -65.15 L-2.8 -63.85 Q-1.65 -61.45 -1.35 -58.75 L0.1 -48.55 1.0 -43.4 M-32.9 -61.65 Q-29.6 -61.85 -28.15 -59.25 L-23.35 -59.75 Q-19.3 -60.25 -15.6 -59.0 L-15.15 -58.5 Q-14.6 -56.75 -16.45 -56.25 L-19.25 -56.2 Q-21.6 -56.65 -23.95 -56.2 L-27.05 -55.65 -27.65 -55.55 Q-27.85 -54.95 -28.25 -54.5 -26.6 -54.45 -25.5 -53.5 L-24.2 -53.75 -14.8 -56.3 Q-12.4 -56.0 -13.2 -53.85 -13.55 -52.9 -14.55 -52.7 L-24.15 -50.0 Q-24.25 -49.55 -24.5 -49.05 -25.1 -47.85 -26.15 -47.05 L-27.65 -46.95 Q-29.3 -47.9 -28.4 -49.65 L-27.9 -50.7 -31.35 -50.8 Q-32.5 -50.7 -32.8 -51.75 -33.25 -53.2 -32.25 -53.75 -32.95 -54.15 -32.9 -55.25 -32.8 -56.7 -31.3 -56.85 L-31.3 -57.0 -31.55 -57.5 -31.65 -57.9 Q-32.9 -58.15 -33.95 -58.75 -34.45 -59.0 -34.5 -59.55 -34.75 -61.4 -32.9 -61.65" fill="#666666" fill-rule="evenodd" stroke="none"/>
  </g>
</svg>
