<?xml version="1.0" encoding="UTF-8" standalone="no"?>
<svg xmlns:ffdec="https://www.free-decompiler.com/flash" xmlns:xlink="http://www.w3.org/1999/xlink" ffdec:objectType="shape" height="35.65px" width="35.05px" xmlns="http://www.w3.org/2000/svg">
  <g transform="matrix(1.0, 0.0, 0.0, 1.0, 33.15, 68.35)">
    <path d="M1.85 -35.9 L1.9 -34.75 Q2.05 -32.45 -0.2 -32.75 -1.2 -32.85 -1.4 -33.85 -2.1 -37.0 -1.95 -40.3 -1.8 -45.55 -2.45 -50.65 -3.1 -55.8 -5.3 -60.5 -6.35 -62.65 -7.8 -64.5 -8.35 -65.25 -8.45 -66.15 -8.7 -68.1 -6.85 -68.35 -5.05 -67.7 -4.1 -65.9 -1.6 -61.4 -0.1 -56.4 1.3 -51.45 1.5 -46.25 L1.85 -35.9 M-31.5 -54.75 L-27.25 -54.5 Q-26.35 -54.25 -25.7 -53.8 L-21.6 -55.15 -15.5 -56.65 Q-13.1 -56.35 -13.9 -54.2 -14.2 -53.4 -15.1 -53.15 L-24.05 -50.75 Q-23.95 -48.8 -25.65 -47.6 -27.85 -46.1 -28.85 -48.4 -29.15 -49.0 -28.85 -49.6 L-27.85 -50.8 -27.8 -50.9 -28.15 -51.2 Q-30.2 -50.95 -32.15 -51.65 -33.3 -52.05 -33.1 -53.3 -32.85 -54.65 -31.5 -54.75 M-29.45 -59.15 Q-29.0 -59.9 -28.0 -60.0 L-27.55 -60.1 -17.75 -59.9 Q-16.8 -59.9 -16.55 -59.0 -15.9 -56.95 -18.05 -56.6 L-18.65 -56.55 -27.4 -56.4 -28.65 -56.65 Q-30.55 -57.45 -29.45 -59.15" fill="#666666" fill-rule="evenodd" stroke="none"/>
  </g>
</svg>
