<?xml version="1.0" encoding="UTF-8" standalone="no"?>
<svg xmlns:ffdec="https://www.free-decompiler.com/flash" xmlns:xlink="http://www.w3.org/1999/xlink" ffdec:objectType="shape" height="36.15px" width="41.2px" xmlns="http://www.w3.org/2000/svg">
  <g transform="matrix(1.0, 0.0, 0.0, 1.0, 23.85, 35.35)">
    <path d="M1.85 -35.35 L2.05 -34.1 2.15 -31.5 Q2.15 -30.9 2.3 -30.5 L2.3 -30.25 Q2.2 -26.05 1.5 -21.95 L1.15 -19.35 2.05 -18.6 Q2.55 -18.1 3.15 -17.7 7.25 -14.65 11.75 -12.25 L16.35 -9.2 Q17.15 -8.9 17.3 -8.2 L17.3 -7.35 17.05 -6.65 Q16.3 -5.05 15.2 -3.75 14.4 -2.8 14.0 -1.65 13.35 0.1 11.75 0.7 10.95 1.0 10.35 0.35 9.15 -0.9 10.05 -2.5 L12.3 -6.05 13.1 -7.2 13.15 -7.2 10.8 -8.65 4.85 -12.4 Q2.15 -14.0 -0.45 -15.7 -1.4 -16.35 -1.75 -17.25 L-2.1 -18.25 Q-2.35 -23.45 -1.3 -28.45 L-1.2 -29.85 -1.2 -31.65 -9.4 -30.3 -11.8 -29.8 -11.9 -27.5 -12.4 -18.45 -12.9 -14.15 -12.9 -13.45 Q-13.05 -12.25 -14.2 -12.15 L-20.15 -12.45 -22.45 -12.9 Q-24.2 -13.25 -23.75 -14.95 -23.4 -16.1 -22.2 -16.15 -20.1 -16.65 -18.2 -16.15 L-16.15 -15.65 -15.6 -24.55 Q-15.35 -26.7 -15.45 -28.9 L-15.4 -31.1 Q-15.3 -32.55 -13.95 -32.8 -11.65 -33.7 -9.2 -34.15 L-6.7 -34.5 -2.4 -35.0 -1.65 -35.05 1.85 -35.35" fill="#666666" fill-rule="evenodd" stroke="none"/>
  </g>
</svg>
