<?xml version="1.0" encoding="UTF-8" standalone="no"?>
<svg xmlns:ffdec="https://www.free-decompiler.com/flash" xmlns:xlink="http://www.w3.org/1999/xlink" ffdec:objectType="shape" height="36.2px" width="11.55px" xmlns="http://www.w3.org/2000/svg">
  <g transform="matrix(1.0, 0.0, 0.0, 1.0, 9.8, 73.35)">
    <path d="M1.5 -37.35 L1.6 -37.15 -2.25 -37.15 -2.25 -37.2 -2.2 -38.0 -2.45 -39.25 -2.25 -45.85 Q-1.8 -51.55 -3.6 -56.6 L-5.55 -56.3 -6.1 -57.7 -6.2 -58.3 Q-7.9 -63.15 -9.05 -68.2 L-9.15 -68.85 Q-10.8 -71.6 -8.3 -73.2 L-7.9 -73.35 Q-5.55 -72.2 -5.5 -69.15 L-5.45 -68.95 -3.95 -63.6 -3.8 -63.65 Q-1.1 -62.15 -0.2 -58.85 2.0 -51.0 1.4 -42.7 L1.7 -42.75 1.7 -37.35 1.5 -37.35" fill="#666666" fill-rule="evenodd" stroke="none"/>
  </g>
</svg>
