<?xml version="1.0" encoding="UTF-8" standalone="no"?>
<svg xmlns:ffdec="https://www.free-decompiler.com/flash" xmlns:xlink="http://www.w3.org/1999/xlink" ffdec:objectType="shape" height="33.25px" width="48.3px" xmlns="http://www.w3.org/2000/svg">
  <g transform="matrix(1.0, 0.0, 0.0, 1.0, 27.8, 35.9)">
    <path d="M1.95 -35.65 L1.95 -35.15 1.95 -30.5 Q2.05 -24.9 1.5 -19.5 6.05 -18.0 10.2 -15.65 11.35 -15.0 12.65 -14.45 15.95 -13.1 18.95 -11.3 20.5 -10.8 20.5 -9.85 L20.4 -9.45 20.4 -9.35 Q20.05 -8.3 19.4 -7.95 L17.0 -5.6 13.2 -2.9 Q12.1 -2.25 11.4 -3.3 10.05 -5.25 12.0 -6.85 L14.9 -9.1 Q8.05 -12.1 1.25 -15.35 L-0.8 -16.7 Q-2.25 -17.3 -2.1 -19.4 -1.7 -25.6 -1.9 -31.7 L-2.1 -31.7 -6.25 -31.3 -11.4 -30.3 -12.45 -30.2 -12.7 -29.65 -13.15 -28.25 Q-13.8 -24.3 -14.6 -20.4 L-14.75 -18.8 -14.8 -17.75 -14.85 -16.2 -15.4 -13.6 -15.25 -13.55 Q-14.95 -13.4 -15.0 -12.95 -15.6 -10.05 -18.7 -11.2 -22.75 -12.75 -26.45 -14.9 -28.7 -16.15 -27.25 -18.15 -26.8 -18.8 -26.05 -18.8 L-18.95 -15.4 -18.6 -18.85 -18.65 -18.9 Q-17.5 -25.3 -15.95 -31.55 -16.3 -32.15 -15.95 -32.95 -15.6 -33.75 -14.75 -33.8 -8.5 -34.35 -2.55 -35.8 L-2.2 -35.9 -2.15 -35.9 1.95 -35.65" fill="#666666" fill-rule="evenodd" stroke="none"/>
  </g>
</svg>
