<?xml version="1.0" encoding="UTF-8" standalone="no"?>
<svg xmlns:ffdec="https://www.free-decompiler.com/flash" xmlns:xlink="http://www.w3.org/1999/xlink" ffdec:objectType="shape" height="12.35px" width="21.7px" xmlns="http://www.w3.org/2000/svg">
  <g transform="matrix(1.0, 0.0, 0.0, 1.0, 32.45, 60.1)">
    <path d="M-30.75 -55.8 L-29.1 -56.1 Q-25.85 -56.4 -24.45 -54.2 L-22.5 -54.5 -17.35 -55.15 -25.6 -56.35 Q-27.0 -56.55 -28.25 -57.1 -28.8 -57.3 -28.9 -57.85 -29.3 -59.8 -27.3 -60.1 -22.8 -59.9 -18.4 -58.95 L-16.45 -58.75 Q-14.7 -58.8 -13.55 -57.65 -13.0 -57.1 -13.2 -56.35 L-13.35 -55.85 Q-11.7 -56.05 -10.95 -54.6 -10.4 -53.55 -11.35 -52.8 -12.3 -52.05 -13.6 -52.1 L-14.8 -52.0 -23.75 -50.7 Q-24.1 -49.65 -25.15 -48.8 -26.55 -46.85 -28.25 -48.45 -28.75 -48.95 -28.65 -49.65 -28.45 -51.05 -27.15 -51.85 -28.25 -53.3 -30.35 -52.4 -31.2 -52.05 -31.85 -52.7 -33.05 -53.95 -31.85 -55.25 -31.4 -55.7 -30.75 -55.8" fill="#666666" fill-rule="evenodd" stroke="none"/>
  </g>
</svg>
