<?xml version="1.0" encoding="UTF-8" standalone="no"?>
<svg xmlns:ffdec="https://www.free-decompiler.com/flash" xmlns:xlink="http://www.w3.org/1999/xlink" ffdec:objectType="shape" height="30.85px" width="48.6px" xmlns="http://www.w3.org/2000/svg">
  <g transform="matrix(1.0, 0.0, 0.0, 1.0, 28.3, 35.35)">
    <path d="M1.85 -34.65 L2.2 -34.55 2.2 -34.35 Q2.75 -33.45 2.55 -32.05 L2.45 -30.9 2.75 -20.45 2.75 -19.75 Q6.3 -19.25 9.7 -17.95 L12.2 -17.1 18.05 -15.65 Q19.05 -15.4 19.75 -14.7 20.35 -14.1 20.3 -13.45 L20.1 -12.3 Q19.5 -10.5 18.15 -9.05 17.5 -6.25 15.25 -4.7 L14.4 -4.6 Q12.6 -5.45 13.5 -7.3 L15.65 -11.45 16.15 -12.3 7.75 -14.8 3.4 -16.05 1.25 -16.5 0.45 -16.7 Q0.1 -16.75 -0.25 -16.95 -0.95 -17.35 -0.9 -18.15 -0.65 -23.3 -0.85 -28.6 L-0.95 -32.05 -1.8 -32.05 -10.5 -31.15 -12.7 -31.0 -12.75 -30.9 -14.5 -23.35 -14.85 -20.8 Q-15.0 -17.1 -16.05 -13.6 -16.3 -12.8 -17.1 -12.65 L-18.3 -12.7 -18.7 -12.7 Q-20.85 -12.85 -22.7 -14.0 -25.0 -15.45 -27.65 -16.15 L-28.15 -16.65 Q-28.85 -18.7 -26.7 -19.1 -23.05 -18.75 -19.9 -16.75 L-19.0 -16.25 -18.85 -17.55 -18.25 -22.95 Q-18.1 -24.7 -17.55 -26.3 -16.8 -29.3 -16.35 -32.3 L-16.15 -32.85 Q-16.05 -33.6 -15.2 -33.95 L-14.45 -34.15 -5.95 -35.15 -4.65 -35.2 -2.65 -35.35 1.85 -34.65" fill="#666666" fill-rule="evenodd" stroke="none"/>
  </g>
</svg>
