<?xml version="1.0" encoding="UTF-8" standalone="no"?>
<svg xmlns:ffdec="https://www.free-decompiler.com/flash" xmlns:xlink="http://www.w3.org/1999/xlink" ffdec:objectType="shape" height="30.85px" width="36.95px" xmlns="http://www.w3.org/2000/svg">
  <g transform="matrix(1.0, 0.0, 0.0, 1.0, 34.3, 62.3)">
    <path d="M2.3 -38.75 Q3.05 -35.35 2.15 -32.05 L1.85 -31.7 Q-0.25 -30.8 -0.7 -32.95 L-0.85 -34.2 Q-1.0 -38.1 -1.95 -41.85 L-2.15 -42.85 Q-3.0 -47.9 -3.35 -53.05 L-3.75 -60.7 Q-3.8 -61.7 -2.9 -62.1 L-2.2 -62.3 Q-0.05 -61.65 -0.2 -59.25 L-0.15 -58.65 0.65 -48.8 Q1.25 -43.7 2.3 -38.75 M-32.25 -54.45 L-32.45 -54.85 Q-33.1 -56.85 -30.95 -57.75 -30.55 -57.9 -30.15 -58.15 L-30.25 -58.25 -30.45 -58.55 -30.5 -58.65 Q-32.5 -58.1 -33.95 -59.3 -34.35 -59.6 -34.3 -60.1 -34.15 -62.1 -31.95 -62.15 -28.45 -62.6 -26.95 -59.75 L-26.85 -59.75 -17.05 -59.25 -15.05 -58.85 Q-13.65 -58.35 -13.85 -57.2 L-13.35 -57.3 Q-10.85 -57.1 -11.65 -54.85 -11.95 -53.95 -12.9 -53.7 L-17.75 -52.1 Q-20.9 -50.9 -24.15 -50.45 -24.75 -48.05 -27.3 -47.35 -28.45 -47.05 -29.0 -48.05 -29.9 -49.75 -28.2 -50.75 -27.65 -51.05 -27.35 -51.6 L-27.4 -51.75 -27.5 -52.0 -27.65 -52.25 -30.0 -52.45 Q-31.4 -52.05 -32.05 -53.3 -32.4 -53.95 -32.25 -54.45 M-27.1 -56.0 Q-25.3 -55.55 -24.45 -53.7 L-21.4 -54.8 -18.4 -55.7 -25.8 -56.1 -26.85 -56.3 -27.1 -56.0" fill="#666666" fill-rule="evenodd" stroke="none"/>
  </g>
</svg>
