<?xml version="1.0" encoding="UTF-8" standalone="no"?>
<svg xmlns:ffdec="https://www.free-decompiler.com/flash" xmlns:xlink="http://www.w3.org/1999/xlink" ffdec:objectType="shape" height="14.3px" width="20.45px" xmlns="http://www.w3.org/2000/svg">
  <g transform="matrix(1.0, 0.0, 0.0, 1.0, 33.8, 62.05)">
    <path d="M-31.1 -61.95 Q-27.95 -62.5 -26.85 -59.8 L-26.7 -59.35 -18.25 -59.2 Q-17.7 -59.15 -17.45 -58.65 -16.3 -56.65 -18.5 -55.9 -18.95 -55.7 -19.45 -55.9 -22.8 -55.7 -26.15 -55.95 -25.55 -55.65 -25.2 -55.05 L-24.7 -54.15 -24.0 -54.3 -15.5 -55.75 Q-12.9 -55.75 -13.45 -53.4 -13.6 -52.8 -14.25 -52.65 -19.2 -51.4 -24.3 -50.65 L-24.55 -50.6 Q-24.85 -49.7 -25.55 -48.8 -27.05 -46.8 -28.65 -48.6 -29.15 -49.15 -28.95 -49.85 L-28.05 -51.75 -27.75 -52.2 -27.75 -52.5 -27.8 -52.6 -27.9 -52.75 Q-29.45 -52.6 -30.95 -53.2 -31.75 -53.45 -31.9 -54.15 L-32.1 -54.45 Q-32.85 -55.7 -31.75 -56.7 L-30.15 -58.4 Q-31.7 -58.15 -33.3 -58.95 -33.7 -59.15 -33.75 -59.6 -34.1 -61.85 -31.6 -61.9 L-31.1 -61.95" fill="#666666" fill-rule="evenodd" stroke="none"/>
  </g>
</svg>
