<?xml version="1.0" encoding="UTF-8" standalone="no"?>
<svg xmlns:ffdec="https://www.free-decompiler.com/flash" xmlns:xlink="http://www.w3.org/1999/xlink" ffdec:objectType="shape" height="34.85px" width="10.0px" xmlns="http://www.w3.org/2000/svg">
  <g transform="matrix(1.0, 0.0, 0.0, 1.0, 8.15, 68.15)">
    <path d="M1.85 -34.75 L1.75 -34.3 Q0.55 -32.45 -1.05 -34.0 -1.6 -34.55 -1.8 -35.3 -2.35 -37.3 -2.55 -39.35 -3.7 -43.75 -4.3 -48.3 -4.65 -50.8 -4.65 -53.45 -4.65 -56.7 -5.7 -59.75 L-6.35 -61.95 -7.0 -63.2 -7.2 -64.0 Q-8.8 -65.75 -7.65 -67.55 L-6.8 -68.1 -6.55 -68.15 Q-4.4 -67.4 -3.6 -65.05 L-2.1 -59.95 Q-0.9 -55.3 -0.9 -50.4 L-0.65 -47.85 0.3 -42.8 1.85 -34.75" fill="#666666" fill-rule="evenodd" stroke="none"/>
  </g>
</svg>
