<?xml version="1.0" encoding="UTF-8" standalone="no"?>
<svg xmlns:ffdec="https://www.free-decompiler.com/flash" xmlns:xlink="http://www.w3.org/1999/xlink" ffdec:objectType="shape" height="71.9px" width="38.0px" xmlns="http://www.w3.org/2000/svg">
  <g transform="matrix(1.0, 0.0, 0.0, 1.0, 16.55, 225.3)">
    <path d="M7.5 -225.3 Q10.1 -224.05 9.4 -220.7 L8.85 -219.2 Q9.45 -217.95 8.55 -216.05 8.05 -215.0 7.9 -213.75 L7.6 -212.85 5.95 -207.25 5.55 -206.6 Q1.9 -198.0 -3.9 -190.4 L-4.25 -190.0 -4.4 -189.4 Q-3.5 -188.55 -2.95 -187.25 -0.65 -181.95 1.25 -176.6 2.3 -175.4 2.55 -174.1 L18.15 -169.25 19.7 -168.35 Q22.35 -167.35 20.95 -164.25 19.2 -160.45 16.1 -157.9 L15.1 -157.95 Q13.3 -159.4 14.7 -161.5 L17.0 -165.2 15.95 -165.55 Q14.3 -166.2 12.85 -167.15 6.55 -168.5 0.85 -171.1 -1.25 -171.4 -1.7 -173.9 L-2.05 -174.6 Q-2.5 -175.15 -2.4 -175.85 -3.6 -178.05 -4.25 -180.45 L-4.45 -181.25 -6.7 -185.55 Q-9.45 -181.65 -12.6 -178.05 L-11.85 -176.4 Q-11.35 -174.85 -10.65 -173.4 -7.5 -167.2 -3.65 -161.55 -1.9 -160.4 -3.9 -158.25 -6.15 -155.75 -8.8 -153.7 -9.75 -153.0 -10.55 -153.85 -12.2 -155.6 -10.4 -157.35 L-7.15 -160.65 -9.3 -163.5 -15.8 -174.8 Q-16.85 -176.65 -16.4 -178.1 -16.7 -179.05 -15.7 -180.25 -12.95 -183.5 -10.45 -186.85 L-12.95 -186.65 Q-13.65 -186.75 -13.7 -187.5 -14.25 -195.85 -10.6 -203.4 -10.2 -204.3 -9.4 -204.95 L-8.35 -205.35 Q-5.25 -204.6 -6.85 -201.65 L-7.7 -200.15 Q-9.5 -195.55 -9.95 -190.6 L-9.9 -190.0 Q-9.55 -188.55 -9.85 -187.65 L-7.85 -190.5 -7.85 -191.4 -7.4 -192.5 -4.1 -196.85 Q-0.1 -202.6 2.55 -209.0 4.0 -213.35 4.8 -217.85 5.0 -218.9 5.5 -219.6 L5.45 -219.95 Q5.5 -222.45 6.45 -224.6 6.8 -225.3 7.5 -225.3 M13.85 -205.35 Q16.9 -204.0 14.95 -200.9 L10.8 -194.9 Q8.4 -191.8 4.85 -190.8 3.25 -190.35 1.85 -191.2 0.0 -192.4 0.75 -194.6 1.45 -196.8 4.05 -196.1 L5.9 -195.25 Q9.0 -198.7 11.2 -202.65 11.6 -204.9 13.85 -205.35" fill="#666666" fill-rule="evenodd" stroke="none"/>
  </g>
</svg>
