<?xml version="1.0" encoding="UTF-8" standalone="no"?>
<svg xmlns:ffdec="https://www.free-decompiler.com/flash" xmlns:xlink="http://www.w3.org/1999/xlink" ffdec:objectType="shape" height="70.15px" width="41.15px" xmlns="http://www.w3.org/2000/svg">
  <g transform="matrix(1.0, 0.0, 0.0, 1.0, 19.95, 222.7)">
    <path d="M14.5 -206.15 Q17.4 -205.55 16.25 -202.95 15.0 -199.95 13.0 -197.25 L11.8 -195.6 8.25 -191.05 Q5.8 -188.1 3.15 -191.0 2.55 -191.6 2.8 -192.5 3.5 -195.15 6.5 -195.1 9.95 -199.6 12.4 -204.65 13.05 -206.0 14.5 -206.15 M4.05 -219.35 L4.45 -221.25 Q4.8 -222.6 6.15 -222.7 8.95 -222.1 8.25 -219.2 7.65 -216.7 7.3 -214.1 6.9 -211.45 5.85 -209.0 4.15 -202.55 0.6 -196.85 L-2.6 -190.9 -2.9 -190.3 -3.4 -189.1 -4.7 -187.1 Q-3.8 -186.35 -3.6 -184.95 L-3.3 -183.8 Q-1.25 -178.1 -0.2 -172.15 3.65 -171.1 7.4 -169.5 9.25 -168.7 11.2 -168.05 15.35 -166.7 19.25 -164.85 L19.35 -164.85 20.7 -164.1 21.0 -163.7 Q21.6 -162.7 20.45 -161.2 L19.4 -159.75 16.65 -155.35 Q16.4 -154.95 15.95 -155.0 13.2 -155.1 13.9 -157.8 14.15 -158.8 14.7 -159.75 L16.25 -162.05 Q10.65 -164.0 5.15 -166.15 L1.05 -167.6 Q-0.55 -168.1 -2.0 -168.9 -3.15 -168.85 -3.55 -169.95 L-3.75 -170.5 -3.75 -170.55 -4.85 -175.15 -7.45 -183.95 -14.5 -176.5 -15.1 -175.85 -14.15 -174.95 -7.6 -167.5 Q-4.6 -164.2 -2.4 -160.4 -1.85 -160.0 -1.8 -159.3 -1.6 -158.75 -1.95 -158.2 L-2.25 -157.8 Q-2.7 -157.05 -3.45 -156.55 L-8.7 -153.25 Q-9.3 -152.9 -9.95 -152.7 -12.0 -152.1 -12.35 -154.1 -12.65 -155.8 -11.15 -156.7 L-6.45 -159.45 -8.4 -161.85 -11.45 -165.95 Q-15.3 -169.7 -18.55 -173.95 -20.85 -174.95 -19.35 -177.0 -17.7 -179.45 -15.45 -181.35 L-11.9 -185.25 -7.05 -190.8 -6.5 -191.35 -6.5 -191.4 Q-5.55 -194.45 -4.0 -197.05 -1.95 -200.45 -0.35 -204.05 L1.1 -207.3 Q3.25 -213.1 4.05 -219.35 M-10.0 -207.25 Q-9.4 -208.1 -8.45 -208.2 -5.5 -207.0 -6.75 -203.8 L-7.7 -201.05 -10.5 -192.85 Q-8.2 -190.05 -10.55 -187.3 -10.75 -187.05 -11.1 -187.0 -14.45 -186.6 -14.75 -189.5 -15.05 -192.7 -13.95 -195.65 -11.95 -200.7 -10.55 -206.0 L-10.0 -207.25" fill="#666666" fill-rule="evenodd" stroke="none"/>
  </g>
</svg>
