<?xml version="1.0" encoding="UTF-8" standalone="no"?>
<svg xmlns:ffdec="https://www.free-decompiler.com/flash" xmlns:xlink="http://www.w3.org/1999/xlink" ffdec:objectType="shape" height="69.05px" width="40.45px" xmlns="http://www.w3.org/2000/svg">
  <g transform="matrix(1.0, 0.0, 0.0, 1.0, 20.5, 221.95)">
    <path d="M7.8 -212.8 L6.95 -211.95 Q5.6 -206.55 3.2 -201.4 L2.95 -200.95 Q0.7 -194.85 -2.4 -189.0 L-3.4 -187.6 Q-2.75 -186.55 -2.7 -185.0 L-2.55 -183.9 Q-0.65 -177.5 -0.2 -170.7 L-0.15 -170.6 Q7.4 -167.65 15.35 -165.95 17.3 -165.5 18.9 -164.45 19.8 -163.9 19.9 -163.2 20.25 -162.0 18.8 -160.3 17.35 -158.65 16.45 -156.65 15.7 -155.1 14.2 -154.55 12.85 -154.1 12.4 -155.4 11.75 -157.25 12.9 -158.9 L15.0 -161.7 Q7.4 -163.8 0.05 -166.25 -1.45 -166.75 -2.35 -167.8 L-2.45 -167.8 Q-3.55 -167.9 -3.65 -169.05 -4.25 -176.6 -6.45 -183.8 L-14.6 -175.05 -15.8 -174.0 -15.0 -173.3 -8.4 -166.65 Q-5.9 -164.05 -4.0 -161.15 -3.25 -160.75 -3.25 -159.95 -3.1 -159.7 -3.3 -159.4 L-3.45 -159.1 -3.95 -158.3 Q-5.45 -156.2 -7.5 -154.75 L-8.95 -153.7 Q-11.7 -151.7 -12.25 -154.8 -12.5 -156.2 -11.25 -156.95 L-9.5 -158.05 -8.0 -159.6 -7.6 -160.1 -12.6 -165.2 Q-16.4 -168.85 -19.8 -172.9 L-20.05 -173.2 -20.3 -173.5 Q-20.65 -173.9 -20.45 -174.45 L-20.35 -174.6 Q-20.35 -176.3 -18.4 -177.35 -15.65 -178.85 -13.8 -181.4 L-12.95 -182.5 Q-10.2 -185.9 -6.95 -188.75 -6.95 -189.75 -6.2 -190.75 L-4.7 -193.2 -1.45 -199.5 -1.3 -199.7 Q0.3 -204.75 2.45 -209.65 L2.75 -210.1 5.05 -219.4 5.4 -220.05 Q5.4 -221.45 6.8 -221.85 L7.2 -221.95 Q10.05 -220.75 8.6 -217.85 L8.45 -217.6 8.15 -216.25 Q9.3 -214.95 7.8 -212.8 M16.35 -199.65 L16.25 -199.4 Q15.35 -192.6 13.15 -186.1 12.9 -185.4 12.2 -185.15 8.6 -183.9 7.95 -187.2 7.25 -190.95 10.85 -191.15 11.9 -196.65 13.4 -202.05 13.55 -202.5 14.05 -202.65 L14.7 -202.9 Q17.7 -202.3 16.35 -199.65 M-10.05 -205.45 L-9.25 -205.75 Q-5.55 -205.15 -7.65 -202.0 L-9.65 -198.65 -11.45 -195.4 -12.95 -191.7 Q-13.15 -191.2 -13.5 -190.85 L-13.5 -190.6 -13.55 -190.4 -13.55 -190.2 Q-10.8 -187.1 -14.5 -185.65 -16.1 -185.05 -17.1 -186.2 -18.4 -187.65 -17.8 -189.75 L-16.5 -193.2 Q-14.35 -198.2 -11.75 -202.95 L-11.1 -203.85 Q-11.05 -204.95 -10.05 -205.45" fill="#666666" fill-rule="evenodd" stroke="none"/>
  </g>
</svg>
