<?xml version="1.0" encoding="UTF-8" standalone="no"?>
<svg xmlns:ffdec="https://www.free-decompiler.com/flash" xmlns:xlink="http://www.w3.org/1999/xlink" ffdec:objectType="shape" height="63.45px" width="39.75px" xmlns="http://www.w3.org/2000/svg">
  <g transform="matrix(1.0, 0.0, 0.0, 1.0, 22.1, 215.35)">
    <path d="M11.9 -200.55 L12.35 -200.65 Q15.85 -199.5 13.45 -196.2 L13.0 -195.55 12.35 -196.2 Q12.05 -197.55 10.5 -198.2 L10.2 -198.4 10.4 -198.8 10.5 -199.05 Q10.7 -200.25 11.9 -200.55 M0.1 -198.6 Q-1.25 -194.35 -3.1 -190.2 L-4.0 -188.7 Q-4.05 -187.6 -4.35 -186.75 -2.6 -186.35 -2.95 -184.45 L-3.0 -184.25 Q-2.25 -180.8 -2.25 -177.2 -2.3 -173.65 -3.1 -170.4 L-3.15 -169.25 12.95 -165.35 14.8 -164.95 Q18.5 -164.25 17.4 -160.55 16.95 -159.1 16.0 -157.95 L15.55 -157.1 Q14.8 -154.3 12.15 -155.2 11.05 -155.55 11.05 -156.7 11.05 -157.6 11.7 -158.25 12.4 -159.65 13.55 -160.9 L13.75 -161.1 Q5.2 -163.35 -4.1 -165.1 -5.9 -165.45 -6.55 -167.0 -6.85 -167.8 -6.75 -168.65 -6.0 -174.3 -6.35 -180.1 L-6.55 -183.35 Q-9.05 -180.25 -12.1 -177.65 L-13.5 -176.35 -17.8 -171.7 Q-12.3 -166.55 -6.05 -162.2 -4.25 -160.95 -4.85 -158.95 -5.7 -155.9 -8.7 -154.15 L-11.75 -152.2 Q-12.55 -151.6 -13.35 -152.2 -15.4 -153.65 -13.4 -155.2 -11.05 -157.1 -9.05 -159.3 L-20.6 -168.85 Q-22.6 -170.5 -21.9 -172.65 L-21.15 -173.9 -9.9 -185.65 -8.7 -186.7 Q-8.65 -187.95 -7.85 -189.25 L-7.55 -189.75 Q-3.9 -197.75 -1.25 -206.05 L-0.35 -207.85 Q1.65 -211.9 5.15 -214.95 L5.9 -215.35 Q9.1 -214.65 7.05 -212.2 2.0 -206.1 0.1 -198.6 M-10.7 -199.05 L-12.25 -197.1 Q-15.25 -193.85 -17.2 -189.85 -15.55 -187.1 -18.15 -185.6 L-19.75 -185.7 Q-21.35 -186.85 -21.15 -189.0 -20.75 -193.0 -18.15 -196.2 L-17.2 -197.35 Q-15.05 -200.15 -12.4 -202.25 L-12.0 -202.4 Q-8.85 -201.75 -10.7 -199.05" fill="#666666" fill-rule="evenodd" stroke="none"/>
  </g>
</svg>
