<?xml version="1.0" encoding="UTF-8" standalone="no"?>
<svg xmlns:ffdec="https://www.free-decompiler.com/flash" xmlns:xlink="http://www.w3.org/1999/xlink" ffdec:objectType="shape" height="65.15px" width="46.65px" xmlns="http://www.w3.org/2000/svg">
  <g transform="matrix(1.0, 0.0, 0.0, 1.0, 24.75, 214.1)">
    <path d="M7.6 -214.05 L7.65 -214.1 Q10.65 -212.65 8.9 -209.5 L8.3 -208.7 Q7.5 -206.55 6.15 -204.6 L5.95 -204.35 Q2.05 -196.65 -2.4 -189.1 L-4.85 -184.7 Q-4.15 -183.65 -4.15 -182.0 L-4.05 -173.3 -3.9 -167.85 11.7 -164.4 Q13.35 -164.05 14.3 -162.75 15.55 -161.45 15.1 -159.0 14.9 -157.8 15.0 -156.65 15.1 -155.3 13.8 -155.1 11.6 -154.75 11.4 -156.95 11.25 -158.6 11.4 -160.15 L10.9 -160.25 Q2.6 -162.2 -5.5 -164.8 -7.5 -164.65 -7.5 -166.95 L-7.75 -180.55 Q-12.6 -174.95 -17.95 -169.85 L-17.65 -169.5 Q-15.5 -166.85 -13.0 -164.6 L-9.7 -161.85 Q-7.7 -160.3 -6.25 -158.4 -4.2 -157.55 -5.75 -155.3 L-8.5 -151.9 Q-10.45 -149.85 -12.95 -149.0 -13.7 -148.75 -14.1 -149.45 -15.4 -151.55 -13.25 -153.15 -11.3 -154.6 -9.8 -156.45 L-12.8 -159.6 Q-16.15 -162.85 -19.85 -165.8 -22.2 -167.65 -22.8 -170.3 -23.0 -171.2 -22.05 -171.65 L-21.75 -171.8 -21.35 -172.2 Q-14.6 -178.05 -8.9 -184.85 L-8.55 -185.1 -6.9 -188.95 -6.6 -189.4 Q-2.6 -197.1 2.05 -204.55 L2.35 -205.0 2.75 -206.1 3.25 -206.75 Q4.7 -210.55 7.0 -213.7 L7.6 -214.05 M20.45 -182.0 Q17.6 -180.7 16.75 -183.2 16.1 -185.0 17.45 -186.15 15.8 -188.15 14.7 -190.45 13.75 -192.5 14.8 -194.3 15.25 -195.05 16.0 -195.05 18.4 -193.85 19.0 -190.95 19.15 -190.2 19.75 -189.65 22.35 -187.15 21.8 -183.8 21.6 -182.55 20.45 -182.0 M-10.05 -198.85 Q-10.35 -197.9 -11.2 -197.45 -13.85 -196.0 -16.1 -193.9 L-20.1 -190.05 Q-19.5 -186.35 -23.2 -187.3 -25.05 -187.75 -24.7 -189.6 -24.3 -192.0 -22.15 -193.7 L-18.7 -196.7 Q-15.8 -199.5 -12.55 -201.4 -9.25 -201.65 -10.05 -198.85" fill="#666666" fill-rule="evenodd" stroke="none"/>
  </g>
</svg>
