<?xml version="1.0" encoding="UTF-8" standalone="no"?>
<svg xmlns:ffdec="https://www.free-decompiler.com/flash" xmlns:xlink="http://www.w3.org/1999/xlink" ffdec:objectType="shape" height="62.55px" width="57.8px" xmlns="http://www.w3.org/2000/svg">
  <g transform="matrix(1.0, 0.0, 0.0, 1.0, 27.6, 209.35)">
    <path d="M4.25 -205.65 Q5.3 -207.75 7.2 -209.05 L7.9 -209.35 Q10.85 -208.35 9.2 -205.75 5.7 -200.05 2.8 -194.05 L-2.4 -183.7 -2.9 -182.8 Q-1.6 -181.85 -1.9 -179.75 L-2.0 -177.1 Q-1.85 -172.9 -2.25 -168.7 -2.35 -168.0 -2.75 -167.4 -2.7 -166.45 -3.05 -165.6 L-3.2 -164.6 Q0.5 -163.5 4.6 -163.0 9.95 -162.35 14.4 -159.6 L14.95 -158.8 Q15.6 -156.0 16.4 -153.25 16.6 -152.45 15.95 -151.95 14.2 -150.45 13.0 -152.5 11.75 -154.65 11.1 -157.1 3.55 -159.5 -4.4 -160.5 -5.25 -160.6 -6.0 -161.0 -7.6 -161.8 -7.3 -163.65 -6.4 -169.1 -5.85 -174.55 -5.65 -176.45 -5.95 -178.35 L-6.0 -178.9 Q-10.0 -175.3 -13.25 -170.9 L-16.65 -166.65 -16.0 -165.9 -15.1 -164.95 Q-11.95 -162.15 -8.25 -160.1 -5.0 -158.3 -2.5 -155.6 -2.1 -155.15 -2.15 -154.55 -2.35 -152.05 -4.7 -150.75 L-6.75 -149.2 Q-8.55 -147.25 -11.05 -146.85 -12.0 -146.65 -12.5 -147.5 -13.55 -149.4 -11.65 -150.75 L-6.9 -154.35 Q-11.3 -157.65 -15.9 -160.65 L-19.2 -162.95 Q-20.75 -164.1 -20.95 -165.9 -21.1 -167.1 -20.5 -167.7 L-20.15 -168.3 Q-16.2 -173.75 -11.9 -178.8 -9.6 -181.5 -6.85 -183.5 L-6.8 -183.7 Q-5.65 -186.8 -3.95 -189.7 -0.6 -195.4 2.15 -201.35 L4.25 -205.65 M30.0 -187.85 Q30.45 -186.8 29.95 -185.75 28.9 -183.6 26.35 -184.35 24.4 -184.9 22.75 -186.2 L17.35 -190.1 Q15.7 -191.15 16.8 -192.75 17.35 -193.55 18.25 -193.55 21.9 -192.3 25.0 -189.8 L25.2 -189.7 Q28.65 -191.25 30.0 -187.85 M-10.65 -199.3 Q-7.8 -199.05 -8.65 -196.5 -8.9 -195.8 -9.6 -195.45 -15.55 -192.75 -21.8 -191.05 -21.75 -187.65 -25.2 -188.15 -27.45 -188.5 -27.6 -190.6 -27.85 -193.8 -24.4 -194.6 -17.55 -196.15 -11.2 -199.05 L-10.65 -199.3" fill="#666666" fill-rule="evenodd" stroke="none"/>
  </g>
</svg>
