<?xml version="1.0" encoding="UTF-8" standalone="no"?>
<svg xmlns:ffdec="https://www.free-decompiler.com/flash" xmlns:xlink="http://www.w3.org/1999/xlink" ffdec:objectType="shape" height="59.9px" width="55.25px" xmlns="http://www.w3.org/2000/svg">
  <g transform="matrix(1.0, 0.0, 0.0, 1.0, 25.5, 205.05)">
    <path d="M8.2 -205.05 Q11.2 -203.9 9.35 -201.25 L8.25 -199.45 Q4.35 -191.55 -0.2 -183.95 L-2.15 -180.1 Q-3.05 -178.05 -4.2 -176.3 -4.15 -175.8 -4.45 -175.15 -3.25 -174.0 -3.55 -171.75 L-3.8 -167.7 -3.55 -160.2 12.7 -158.65 Q13.8 -158.5 14.45 -157.65 15.85 -156.55 16.0 -154.4 L16.2 -153.5 16.35 -152.9 Q17.85 -149.95 14.45 -150.15 13.45 -150.2 12.95 -151.1 12.7 -151.6 12.75 -152.15 11.95 -153.4 11.8 -154.6 L11.35 -154.65 -4.25 -157.05 -5.05 -156.95 Q-7.55 -157.0 -7.45 -159.55 -7.15 -165.55 -7.55 -171.45 L-15.05 -163.05 Q-13.45 -162.0 -12.15 -160.4 -9.25 -156.85 -5.4 -154.1 -3.45 -152.7 -2.1 -150.85 -1.05 -150.45 -1.2 -149.35 L-1.15 -149.3 Q-0.95 -148.95 -1.25 -148.6 L-1.6 -148.2 -1.65 -148.15 Q-2.05 -147.5 -2.8 -147.3 L-11.3 -145.15 Q-11.85 -145.05 -12.1 -145.6 -13.55 -148.5 -10.05 -149.4 L-7.1 -150.2 -12.4 -155.05 -16.05 -158.4 Q-17.5 -159.7 -18.4 -161.25 -19.4 -161.8 -19.15 -162.9 L-18.85 -163.65 -18.75 -163.9 -17.15 -166.2 -8.0 -176.85 -7.8 -177.05 -7.65 -177.8 -6.95 -179.1 -5.75 -181.65 -5.45 -182.1 2.7 -197.3 3.5 -198.55 Q4.75 -202.1 7.5 -204.65 7.85 -205.0 8.2 -205.05 M20.3 -193.35 L24.5 -193.85 Q24.7 -195.55 26.05 -196.6 26.5 -196.95 26.95 -196.95 30.85 -196.3 29.35 -192.75 28.7 -191.15 27.0 -190.6 23.8 -189.6 20.35 -190.05 18.1 -190.35 18.85 -192.45 19.25 -193.45 20.3 -193.35 M-24.6 -193.45 Q-25.4 -193.8 -25.5 -194.7 -25.75 -198.25 -22.0 -199.15 L-20.6 -199.45 -12.0 -200.65 -11.15 -200.7 Q-8.6 -201.5 -7.2 -199.7 -6.4 -198.75 -7.4 -197.9 -8.85 -196.65 -11.0 -196.75 -15.95 -197.05 -20.45 -195.45 -21.4 -192.0 -24.6 -193.45" fill="#666666" fill-rule="evenodd" stroke="none"/>
  </g>
</svg>
