<?xml version="1.0" encoding="UTF-8" standalone="no"?>
<svg xmlns:ffdec="https://www.free-decompiler.com/flash" xmlns:xlink="http://www.w3.org/1999/xlink" ffdec:objectType="shape" height="58.6px" width="53.05px" xmlns="http://www.w3.org/2000/svg">
  <g transform="matrix(1.0, 0.0, 0.0, 1.0, 26.95, 207.8)">
    <path d="M7.55 -198.25 L6.3 -196.0 Q3.0 -187.85 -1.9 -180.5 L-4.15 -176.7 Q-4.6 -175.8 -5.1 -175.45 L-5.2 -175.3 -5.65 -174.55 -6.25 -173.7 Q-8.0 -168.7 -10.25 -164.05 L5.1 -163.1 7.85 -162.45 8.45 -162.2 Q10.2 -161.5 11.2 -159.55 L11.7 -159.05 Q14.7 -156.9 12.45 -154.7 11.9 -154.15 11.2 -154.5 9.85 -155.15 8.8 -156.3 7.55 -157.7 6.65 -159.15 L-1.5 -159.6 -12.1 -160.6 -12.65 -160.5 -13.15 -160.65 Q-13.9 -160.95 -14.25 -161.45 -14.9 -162.3 -14.35 -163.85 L-14.1 -164.35 -16.25 -162.85 -17.9 -161.5 Q-11.3 -160.3 -4.9 -158.2 -3.25 -157.65 -1.9 -156.55 0.1 -156.0 -1.15 -153.8 L-1.6 -153.25 -6.35 -149.35 -7.4 -149.4 Q-9.35 -151.0 -7.55 -152.9 L-6.1 -154.35 Q-12.85 -156.8 -20.1 -157.95 -21.45 -158.15 -22.55 -158.9 -24.75 -160.3 -22.7 -161.85 L-22.25 -162.1 Q-19.55 -165.95 -15.65 -168.55 L-15.1 -169.05 Q-12.2 -172.5 -9.65 -176.15 L-7.85 -178.55 Q-7.6 -179.65 -6.65 -180.1 L-4.85 -183.25 -1.2 -188.9 Q1.85 -195.85 5.8 -202.4 6.1 -202.9 6.65 -202.9 9.8 -201.4 7.55 -198.25 M25.85 -201.45 L23.15 -191.6 Q22.55 -189.4 20.6 -190.7 19.6 -191.4 19.85 -192.65 20.55 -196.95 21.85 -201.1 19.75 -203.35 21.8 -205.35 22.25 -205.8 22.8 -205.8 27.05 -205.45 25.85 -201.45 M-8.6 -201.1 L-7.85 -199.95 Q-6.75 -197.3 -9.65 -197.35 -10.5 -197.35 -11.15 -197.95 -14.1 -200.45 -17.4 -202.4 L-19.7 -203.1 -22.2 -203.85 Q-24.15 -201.1 -26.6 -203.95 -27.0 -204.4 -26.95 -205.1 -26.75 -207.4 -24.55 -207.8 -15.35 -207.4 -8.6 -201.1" fill="#666666" fill-rule="evenodd" stroke="none"/>
  </g>
</svg>
