<?xml version="1.0" encoding="UTF-8" standalone="no"?>
<svg xmlns:ffdec="https://www.free-decompiler.com/flash" xmlns:xlink="http://www.w3.org/1999/xlink" ffdec:objectType="shape" height="60.85px" width="54.3px" xmlns="http://www.w3.org/2000/svg">
  <g transform="matrix(1.0, 0.0, 0.0, 1.0, 26.7, 206.75)">
    <path d="M27.3 -199.6 Q25.8 -194.7 23.75 -189.95 L22.4 -186.8 Q22.85 -183.4 19.75 -183.95 19.15 -184.05 19.1 -184.65 18.55 -189.05 20.65 -193.05 L22.15 -195.85 22.5 -196.85 22.95 -198.45 Q20.6 -201.65 23.8 -203.55 L24.6 -203.9 Q28.55 -203.65 27.3 -199.6 M6.5 -189.3 L-4.85 -175.9 -7.5 -172.95 Q-6.45 -171.8 -7.05 -169.65 L-7.3 -167.6 Q-7.05 -162.3 -7.8 -157.25 -0.65 -155.4 6.75 -155.15 L10.0 -154.8 Q11.2 -154.5 11.35 -153.55 12.65 -152.25 13.35 -150.35 L14.05 -147.85 Q14.25 -146.95 13.45 -146.55 11.05 -145.35 9.85 -147.85 L9.55 -149.05 Q8.45 -150.35 8.25 -151.65 L-3.65 -152.4 Q-3.4 -152.05 -3.5 -151.55 -3.9 -149.25 -6.1 -147.95 -8.4 -146.6 -10.95 -145.95 -11.7 -145.75 -12.1 -146.45 -13.5 -149.2 -10.1 -150.25 L-24.45 -151.45 Q-25.95 -151.55 -26.5 -153.05 -26.9 -154.05 -26.4 -154.65 L-25.75 -155.85 -18.25 -164.7 Q-17.75 -165.3 -17.35 -166.05 -15.1 -170.25 -11.9 -173.55 -11.95 -174.3 -11.3 -174.9 L-6.4 -179.35 Q-1.1 -186.4 4.75 -193.05 5.1 -193.45 5.6 -193.5 8.75 -192.05 6.5 -189.3 M-15.85 -202.95 Q-14.75 -200.5 -12.9 -198.55 -11.05 -196.6 -10.75 -194.2 -10.65 -193.2 -11.6 -192.9 -13.75 -192.15 -14.65 -194.3 L-15.45 -195.55 Q-18.05 -198.7 -20.1 -202.15 -24.15 -201.95 -22.9 -205.8 -22.7 -206.5 -22.0 -206.65 L-21.55 -206.75 Q-17.6 -206.75 -15.85 -202.95 M-15.0 -162.75 L-17.6 -159.35 Q-19.6 -156.95 -21.8 -154.9 L-13.45 -154.5 -10.2 -154.25 -10.85 -154.8 Q-11.4 -155.4 -11.35 -156.7 L-10.6 -169.25 -15.0 -162.75" fill="#666666" fill-rule="evenodd" stroke="none"/>
  </g>
</svg>
