<?xml version="1.0" encoding="UTF-8" standalone="no"?>
<svg xmlns:ffdec="https://www.free-decompiler.com/flash" xmlns:xlink="http://www.w3.org/1999/xlink" ffdec:objectType="shape" height="60.3px" width="60.8px" xmlns="http://www.w3.org/2000/svg">
  <g transform="matrix(1.0, 0.0, 0.0, 1.0, 29.0, 201.15)">
    <path d="M28.5 -194.2 Q32.65 -194.2 31.55 -189.9 L30.25 -184.85 27.7 -176.65 Q28.45 -172.6 24.8 -173.15 24.2 -173.25 24.1 -173.8 23.7 -176.4 24.65 -178.75 25.55 -183.05 26.75 -187.2 27.0 -188.15 27.55 -188.95 25.6 -191.05 27.15 -193.4 27.65 -194.2 28.5 -194.2 M10.3 -181.8 Q13.5 -181.05 11.6 -178.45 L11.1 -177.9 Q4.35 -172.3 -2.1 -166.05 L-5.75 -162.55 Q-4.7 -161.6 -5.25 -159.6 L-5.55 -157.5 -5.85 -151.2 10.15 -151.0 10.2 -151.05 10.6 -151.2 11.5 -150.8 11.55 -150.75 Q13.7 -149.65 14.75 -147.2 L15.3 -146.15 Q16.7 -143.8 14.0 -143.2 13.25 -143.0 12.65 -143.6 10.9 -145.35 9.95 -147.5 L9.7 -147.7 Q3.15 -147.65 -3.35 -147.75 L-3.3 -147.25 -3.35 -146.95 Q-3.45 -145.7 -4.5 -145.3 -4.95 -144.9 -5.5 -144.6 -9.1 -142.55 -12.9 -140.9 -13.45 -140.7 -13.8 -141.2 -15.55 -143.4 -12.9 -145.0 L-12.75 -145.05 -26.6 -145.85 -26.75 -145.8 -27.9 -145.9 Q-28.7 -146.1 -28.85 -147.0 -29.45 -148.25 -27.7 -149.45 -24.15 -152.0 -20.7 -154.65 -16.45 -159.1 -11.15 -161.8 L-10.95 -162.25 Q-9.95 -164.1 -8.35 -165.5 L-2.0 -171.3 4.2 -177.15 Q6.7 -179.6 9.7 -181.5 L10.3 -181.8 M-9.9 -201.15 Q-6.15 -200.75 -5.55 -196.85 L-5.25 -195.5 -3.4 -187.5 Q-2.85 -185.0 -3.7 -182.6 -4.0 -181.7 -4.95 -181.9 -7.25 -182.35 -7.1 -184.9 L-7.15 -185.75 Q-7.7 -190.6 -9.25 -195.2 -12.8 -195.45 -11.85 -199.3 -11.45 -200.95 -9.9 -201.15 M-21.6 -149.15 L-9.45 -149.05 -9.1 -149.0 -9.25 -149.75 Q-9.6 -154.15 -9.4 -158.65 L-10.85 -157.5 Q-16.45 -154.0 -21.2 -149.55 L-21.6 -149.15" fill="#666666" fill-rule="evenodd" stroke="none"/>
  </g>
</svg>
