<?xml version="1.0" encoding="UTF-8" standalone="no"?>
<svg xmlns:ffdec="https://www.free-decompiler.com/flash" xmlns:xlink="http://www.w3.org/1999/xlink" ffdec:objectType="shape" height="58.05px" width="62.75px" xmlns="http://www.w3.org/2000/svg">
  <g transform="matrix(1.0, 0.0, 0.0, 1.0, 33.05, 197.4)">
    <path d="M24.6 -189.55 Q25.35 -190.55 26.45 -190.65 30.1 -190.4 29.65 -186.65 29.3 -183.35 28.05 -180.2 26.75 -177.0 26.65 -173.45 L26.45 -173.0 Q26.75 -169.9 23.8 -170.4 23.2 -170.5 22.95 -171.1 22.35 -172.7 22.7 -174.35 L23.4 -178.3 Q23.85 -181.15 24.8 -183.8 L25.15 -184.6 25.3 -184.9 Q24.15 -186.15 24.1 -187.9 24.05 -188.8 24.6 -189.55 M10.15 -175.75 Q9.5 -174.7 8.5 -173.95 4.6 -170.85 1.3 -166.95 -1.95 -163.05 -5.5 -159.5 L-5.55 -159.4 Q-5.85 -158.25 -7.05 -157.9 -6.7 -157.25 -6.65 -156.3 L-6.55 -150.35 -5.6 -150.1 7.5 -150.05 Q9.55 -150.05 10.9 -148.45 12.4 -146.6 13.25 -144.5 13.55 -143.75 12.95 -143.1 12.0 -142.0 10.6 -142.55 L9.95 -143.0 7.6 -145.95 -6.0 -146.1 -6.75 -146.1 Q-8.95 -145.85 -10.05 -147.4 -10.85 -148.55 -10.65 -150.0 -10.4 -151.35 -10.45 -152.75 L-10.75 -155.35 -10.95 -155.85 -11.05 -156.1 Q-15.4 -153.95 -19.45 -151.25 L-25.7 -147.15 -8.4 -146.1 Q-7.85 -146.05 -7.65 -145.55 -6.55 -143.05 -9.4 -141.95 -12.05 -141.0 -14.35 -139.5 -14.8 -139.2 -15.35 -139.5 -17.1 -140.55 -16.25 -142.4 L-29.45 -143.2 Q-31.5 -143.2 -32.65 -144.7 -33.4 -145.7 -32.65 -146.65 -31.6 -148.1 -30.1 -149.05 L-19.05 -156.3 -14.9 -158.8 Q-11.8 -160.5 -8.55 -161.65 -7.9 -163.0 -6.7 -164.15 -4.35 -166.45 -2.25 -168.95 2.0 -174.05 7.05 -178.3 7.75 -178.95 8.65 -178.95 11.8 -178.35 10.15 -175.75 M-10.05 -194.65 Q-10.45 -197.0 -8.2 -197.4 -4.95 -196.8 -4.35 -193.4 -3.15 -186.95 -3.1 -180.25 -3.1 -179.0 -3.95 -178.2 -5.5 -176.75 -6.75 -178.55 -7.2 -179.25 -7.2 -180.15 -7.05 -186.1 -8.2 -191.8 -8.45 -192.9 -9.4 -193.65 -9.95 -194.05 -10.05 -194.65" fill="#666666" fill-rule="evenodd" stroke="none"/>
  </g>
</svg>
