<?xml version="1.0" encoding="UTF-8" standalone="no"?>
<svg xmlns:ffdec="https://www.free-decompiler.com/flash" xmlns:xlink="http://www.w3.org/1999/xlink" ffdec:objectType="shape" height="56.05px" width="61.95px" xmlns="http://www.w3.org/2000/svg">
  <g transform="matrix(1.0, 0.0, 0.0, 1.0, 31.25, 190.35)">
    <path d="M27.25 -181.95 Q31.05 -181.45 30.65 -177.45 30.15 -173.05 29.3 -168.7 L27.45 -159.5 Q27.3 -158.75 26.55 -158.55 23.95 -157.85 24.2 -160.5 24.95 -168.2 26.9 -175.45 L26.9 -176.1 26.95 -177.2 Q24.25 -179.3 26.55 -181.55 L27.25 -181.95 M11.7 -166.95 L12.55 -167.25 Q15.75 -166.5 13.65 -164.15 12.25 -162.55 10.45 -161.3 L-0.8 -154.05 -2.35 -153.1 Q-4.55 -151.7 -6.85 -151.1 L-7.05 -150.2 Q-7.65 -148.2 -7.7 -146.2 L-7.8 -144.9 7.05 -146.75 7.45 -146.7 7.65 -146.75 7.9 -146.6 Q9.0 -146.35 9.2 -145.65 10.85 -144.15 11.55 -141.7 11.9 -140.35 10.65 -139.8 8.8 -139.05 7.8 -140.8 7.15 -141.85 6.65 -143.0 L-8.2 -140.75 Q-8.05 -139.9 -9.05 -138.7 -11.4 -135.95 -14.4 -134.4 -14.9 -134.15 -15.35 -134.55 -17.45 -136.35 -15.2 -138.3 L-14.45 -138.9 -28.95 -139.0 Q-30.0 -138.75 -30.55 -139.25 -31.4 -139.65 -31.2 -140.95 L-31.15 -141.15 Q-31.15 -142.5 -29.75 -143.0 -29.4 -143.1 -29.0 -143.3 -21.0 -146.95 -13.6 -151.7 L-10.35 -153.5 -8.75 -154.65 Q-2.4 -157.0 3.2 -160.85 L9.2 -165.3 11.7 -166.95 M-4.35 -190.15 L-3.65 -190.35 Q0.2 -189.85 0.3 -185.8 0.45 -177.9 -0.45 -170.25 -0.5 -169.6 -1.15 -169.65 -4.05 -169.75 -3.7 -172.9 -3.4 -175.7 -3.4 -178.5 L-3.4 -184.15 Q-7.3 -185.9 -5.15 -189.5 L-4.35 -190.15 M-12.05 -144.8 Q-11.45 -146.2 -11.45 -147.75 L-11.45 -148.25 -12.25 -147.8 Q-17.2 -145.0 -22.2 -142.35 L-12.15 -142.25 -12.2 -142.35 Q-12.65 -143.5 -12.05 -144.8" fill="#666666" fill-rule="evenodd" stroke="none"/>
  </g>
</svg>
