<?xml version="1.0" encoding="UTF-8" standalone="no"?>
<svg xmlns:ffdec="https://www.free-decompiler.com/flash" xmlns:xlink="http://www.w3.org/1999/xlink" ffdec:objectType="shape" height="51.4px" width="61.95px" xmlns="http://www.w3.org/2000/svg">
  <g transform="matrix(1.0, 0.0, 0.0, 1.0, 28.85, 48.85)">
    <path d="M29.75 -41.35 Q34.15 -40.4 32.8 -35.9 L29.8 -25.55 Q29.8 -21.9 28.4 -18.7 28.15 -18.15 27.45 -18.2 24.55 -18.6 25.35 -21.45 L25.9 -24.6 Q25.95 -26.3 26.75 -27.65 27.05 -30.75 28.05 -33.75 L28.4 -34.55 28.7 -35.0 28.75 -35.4 28.85 -36.05 28.95 -36.3 Q26.2 -38.85 29.15 -41.0 L29.75 -41.35 M8.8 -44.5 Q7.65 -35.75 4.45 -27.5 3.85 -26.05 2.45 -26.95 1.0 -27.85 1.55 -29.65 3.45 -36.0 4.85 -42.5 0.9 -44.2 3.5 -47.65 4.35 -48.7 5.5 -48.85 9.35 -48.65 8.8 -44.5 M16.75 -17.25 Q16.65 -15.9 15.35 -15.65 9.7 -14.45 4.15 -12.85 L-3.1 -11.2 Q-3.25 -10.45 -4.05 -9.6 L-5.45 -8.15 7.8 -7.95 8.4 -8.15 8.95 -7.85 Q9.4 -7.75 9.65 -7.45 11.95 -6.05 13.55 -3.65 14.2 -2.65 13.25 -1.85 11.65 -0.45 9.9 -2.0 8.55 -3.25 7.6 -4.65 L-5.6 -4.65 Q-5.2 -3.8 -6.4 -2.4 -9.05 0.7 -12.5 2.45 L-13.45 2.35 Q-15.5 0.7 -13.4 -1.05 L-11.3 -2.8 -13.15 -3.0 -23.55 -3.6 Q-26.7 -3.9 -28.7 -6.15 L-28.85 -6.85 -28.8 -6.95 -28.75 -7.25 Q-28.55 -7.9 -28.0 -8.2 -26.05 -10.35 -23.1 -11.2 -14.55 -13.75 -5.65 -14.9 3.95 -16.1 13.15 -19.3 L13.55 -19.4 Q16.9 -20.05 16.75 -17.25 M-10.95 -6.6 L-10.4 -7.85 -8.65 -10.3 -14.1 -9.55 Q-18.45 -8.95 -22.35 -7.35 L-12.25 -6.6 -10.95 -6.6" fill="#666666" fill-rule="evenodd" stroke="none"/>
  </g>
</svg>
