<?xml version="1.0" encoding="UTF-8" standalone="no"?>
<svg xmlns:ffdec="https://www.free-decompiler.com/flash" xmlns:xlink="http://www.w3.org/1999/xlink" ffdec:objectType="shape" height="48.6px" width="46.8px" xmlns="http://www.w3.org/2000/svg">
  <g transform="matrix(1.0, 0.0, 0.0, 1.0, 34.1, 165.15)">
    <path d="M2.9 -159.1 L3.05 -160.4 Q0.95 -163.2 4.05 -164.9 L4.6 -165.15 Q8.05 -164.65 7.4 -161.0 6.6 -156.55 5.15 -152.3 4.4 -149.6 3.2 -147.0 L2.4 -146.2 Q1.55 -143.95 0.15 -142.15 -0.05 -141.85 -0.4 -141.9 -3.15 -142.05 -2.45 -144.7 -1.7 -147.7 0.05 -150.3 0.7 -151.25 0.95 -152.35 L1.8 -154.5 2.9 -159.1 M5.7 -124.9 L9.95 -121.8 10.05 -121.65 Q11.25 -118.9 8.2 -118.7 7.5 -118.65 6.9 -119.0 4.85 -120.25 3.0 -121.9 L-9.9 -121.95 Q-9.4 -119.75 -12.0 -118.5 -13.65 -117.7 -15.15 -116.7 L-16.35 -116.75 Q-18.5 -118.15 -16.95 -120.25 L-31.35 -121.05 Q-34.9 -121.35 -33.85 -124.35 -33.55 -125.25 -32.65 -125.8 -26.2 -129.75 -18.65 -130.7 L-11.7 -131.5 Q-7.65 -132.0 -3.65 -133.1 L-0.25 -133.9 1.95 -134.35 10.75 -136.35 Q13.65 -135.75 12.25 -133.3 11.85 -132.6 11.1 -132.4 4.6 -130.8 -1.95 -129.5 L-9.0 -127.9 -9.45 -127.8 -9.85 -126.75 -10.5 -125.95 3.7 -125.65 Q4.8 -125.6 5.7 -124.9 M-17.3 -125.35 L-15.6 -127.0 -23.8 -125.5 Q-25.15 -125.2 -26.35 -124.55 L-17.4 -124.25 -17.45 -124.75 -17.35 -125.25 -17.3 -125.35" fill="#666666" fill-rule="evenodd" stroke="none"/>
  </g>
</svg>
