<?xml version="1.0" encoding="UTF-8" standalone="no"?>
<svg xmlns:ffdec="https://www.free-decompiler.com/flash" xmlns:xlink="http://www.w3.org/1999/xlink" ffdec:objectType="shape" height="45.6px" width="65.45px" xmlns="http://www.w3.org/2000/svg">
  <g transform="matrix(1.0, 0.0, 0.0, 1.0, 35.2, 157.25)">
    <path d="M27.7 -150.9 Q30.9 -150.25 30.05 -146.55 29.15 -142.6 26.9 -139.1 L21.35 -130.85 Q20.9 -130.2 20.15 -129.9 17.8 -128.9 17.75 -131.35 17.65 -133.2 18.95 -134.65 L23.0 -139.8 Q24.6 -142.35 25.75 -145.2 L25.95 -145.65 Q23.7 -148.45 26.5 -150.4 L27.7 -150.9 M6.15 -155.45 Q6.9 -156.95 8.35 -157.25 12.55 -157.4 11.5 -153.6 11.25 -152.55 10.05 -152.5 L8.8 -152.4 Q4.55 -146.8 1.5 -140.65 L0.55 -139.4 Q-1.4 -137.75 -2.45 -140.0 -2.85 -141.0 -2.4 -142.0 -0.6 -145.75 2.05 -149.15 4.45 -152.15 6.15 -155.45 M10.85 -127.05 Q10.7 -125.5 9.2 -125.45 0.9 -125.1 -7.15 -123.3 L-7.6 -122.7 -8.8 -121.8 -9.6 -121.35 -0.15 -121.2 Q2.05 -121.15 3.8 -119.85 4.75 -119.15 5.85 -118.7 7.85 -117.9 7.9 -116.0 7.95 -114.3 6.3 -114.35 5.0 -114.35 3.95 -115.2 1.55 -117.2 -1.5 -117.35 L-11.2 -117.9 -10.3 -116.6 Q-9.95 -115.9 -10.4 -115.3 -12.2 -113.05 -15.0 -111.95 L-17.0 -111.7 Q-19.5 -112.1 -18.35 -114.2 -17.7 -115.3 -16.5 -115.75 L-33.05 -116.9 Q-34.1 -116.6 -34.6 -117.3 -35.35 -117.75 -35.15 -118.85 L-35.05 -119.15 Q-34.9 -120.1 -33.65 -120.65 -25.55 -124.3 -16.65 -125.3 -12.15 -125.8 -7.7 -126.85 -1.25 -128.35 5.15 -128.95 L9.6 -128.6 Q11.0 -128.4 10.85 -127.05 M-17.8 -121.35 L-24.65 -119.95 -18.15 -119.4 Q-18.5 -120.4 -17.2 -121.4 L-17.8 -121.35" fill="#666666" fill-rule="evenodd" stroke="none"/>
  </g>
</svg>
