<?xml version="1.0" encoding="UTF-8" standalone="no"?>
<svg xmlns:ffdec="https://www.free-decompiler.com/flash" xmlns:xlink="http://www.w3.org/1999/xlink" ffdec:objectType="shape" height="37.85px" width="70.15px" xmlns="http://www.w3.org/2000/svg">
  <g transform="matrix(1.0, 0.0, 0.0, 1.0, 31.4, 128.15)">
    <path d="M35.9 -124.7 Q39.8 -124.4 38.35 -120.85 36.3 -115.75 33.15 -111.3 31.7 -108.0 29.45 -105.25 29.1 -104.85 28.6 -105.15 26.1 -106.6 27.65 -109.3 28.4 -110.65 29.45 -111.85 29.65 -113.2 30.55 -114.35 L31.5 -115.3 32.5 -117.75 33.2 -118.8 33.3 -119.0 33.4 -119.45 33.4 -119.65 Q32.5 -122.5 34.95 -124.3 L35.9 -124.7 M10.1 -124.35 Q9.75 -123.45 8.9 -123.25 L7.45 -122.95 Q4.75 -117.9 2.7 -112.7 L2.25 -112.35 Q-0.15 -112.15 0.15 -114.5 0.65 -118.3 2.3 -121.75 3.6 -124.5 5.55 -126.9 6.4 -128.0 7.6 -128.15 11.55 -128.05 10.1 -124.35 M17.9 -102.0 Q17.75 -99.65 15.35 -99.7 L-4.2 -100.05 -4.2 -99.95 -4.25 -99.75 Q0.4 -97.45 5.55 -96.5 9.75 -95.65 10.85 -91.75 11.0 -91.35 10.65 -91.1 8.55 -89.3 6.6 -91.55 5.5 -92.9 3.7 -93.15 -3.65 -94.25 -9.3 -98.75 L-9.4 -99.2 -9.1 -100.0 -14.9 -99.95 -17.95 -99.7 -21.9 -99.05 -12.85 -97.5 -7.25 -96.5 Q-6.4 -96.35 -6.35 -95.5 -6.35 -92.7 -9.1 -91.4 -10.65 -90.65 -12.3 -90.75 -14.55 -90.95 -13.9 -93.05 L-13.6 -93.55 -20.7 -94.95 Q-25.85 -95.65 -30.7 -97.2 -31.3 -97.4 -31.4 -98.1 -31.6 -100.05 -29.85 -100.4 -29.3 -101.45 -27.4 -101.9 L-21.25 -103.15 -15.8 -103.9 16.25 -103.7 Q18.0 -103.65 17.9 -102.0" fill="#666666" fill-rule="evenodd" stroke="none"/>
  </g>
</svg>
