<?xml version="1.0" encoding="UTF-8" standalone="no"?>
<svg xmlns:ffdec="https://www.free-decompiler.com/flash" xmlns:xlink="http://www.w3.org/1999/xlink" ffdec:objectType="shape" height="35.8px" width="73.15px" xmlns="http://www.w3.org/2000/svg">
  <g transform="matrix(1.0, 0.0, 0.0, 1.0, 33.9, 109.55)">
    <path d="M37.95 -100.75 Q35.75 -97.0 33.2 -93.45 L31.1 -90.75 29.95 -89.65 Q28.05 -88.25 27.0 -90.4 26.7 -91.05 27.0 -91.75 27.75 -93.35 29.0 -94.65 31.85 -97.7 33.75 -101.5 L34.1 -102.55 Q33.35 -105.9 36.9 -106.7 40.05 -106.15 38.95 -102.95 L37.95 -100.75 M14.55 -88.35 Q15.5 -85.6 12.6 -85.5 L12.0 -85.5 Q12.8 -84.8 12.15 -83.15 11.75 -82.25 10.75 -82.05 5.55 -81.15 0.45 -82.05 L0.0 -82.4 Q-1.1 -84.5 1.25 -84.95 L5.5 -85.5 8.95 -85.85 1.3 -86.1 -3.75 -85.95 Q-3.7 -85.3 -4.3 -84.3 -4.7 -83.65 -5.4 -83.5 L-5.9 -83.3 Q-0.3 -82.05 5.05 -80.05 5.85 -79.75 6.45 -79.1 L8.65 -76.25 Q9.1 -75.5 8.5 -74.8 6.85 -72.95 5.05 -74.8 L2.7 -76.7 0.35 -77.65 Q-4.35 -78.55 -8.75 -80.1 -8.25 -79.1 -8.85 -77.95 L-8.95 -77.8 Q-11.35 -75.2 -14.65 -73.9 -15.95 -73.35 -16.65 -74.55 -17.8 -76.5 -15.8 -77.8 L-15.05 -78.15 -22.7 -79.25 -31.05 -80.35 Q-33.25 -80.65 -33.8 -82.55 L-33.9 -83.35 -33.85 -83.5 Q-31.95 -86.55 -28.4 -87.65 -22.45 -89.5 -16.25 -89.65 L-15.8 -89.65 1.35 -89.9 1.65 -89.95 Q8.15 -90.4 14.15 -88.7 L14.55 -88.35 M-2.75 -109.55 Q0.7 -109.65 0.5 -106.3 0.4 -104.35 -1.65 -103.9 -1.45 -99.25 -2.05 -94.7 -2.15 -94.15 -2.7 -93.95 -5.0 -93.2 -5.3 -95.45 L-5.55 -98.4 Q-5.8 -102.9 -5.0 -107.15 -4.65 -109.2 -2.75 -109.55 M-10.15 -85.85 L-14.9 -85.75 Q-21.15 -85.6 -27.15 -83.9 L-18.15 -82.75 -12.65 -81.7 Q-13.2 -82.05 -13.2 -82.75 -13.15 -85.15 -10.55 -85.75 L-10.15 -85.85" fill="#666666" fill-rule="evenodd" stroke="none"/>
  </g>
</svg>
