<?xml version="1.0" encoding="UTF-8" standalone="no"?>
<svg xmlns:ffdec="https://www.free-decompiler.com/flash" xmlns:xlink="http://www.w3.org/1999/xlink" ffdec:objectType="shape" height="30.05px" width="77.1px" xmlns="http://www.w3.org/2000/svg">
  <g transform="matrix(1.0, 0.0, 0.0, 1.0, 32.6, 87.45)">
    <path d="M43.45 -67.75 Q41.9 -67.05 40.3 -67.3 L33.1 -68.0 Q28.2 -68.1 23.65 -69.5 23.05 -69.7 23.05 -70.35 22.95 -72.25 24.75 -72.45 L39.45 -71.45 40.6 -71.45 Q43.85 -72.85 44.45 -69.65 44.7 -68.35 43.45 -67.75 M12.05 -72.15 Q12.95 -69.95 10.55 -69.75 6.9 -69.45 3.25 -69.6 L-1.9 -69.85 -2.1 -69.5 Q-2.3 -69.0 -2.8 -68.9 L-3.85 -68.7 -4.05 -68.5 Q1.4 -67.4 5.9 -64.4 L6.25 -64.15 Q8.4 -62.35 9.0 -59.9 9.2 -59.2 8.55 -58.8 6.45 -57.45 5.05 -59.6 2.65 -63.2 -1.65 -63.95 L-6.3 -65.05 Q-9.35 -66.0 -11.95 -67.6 -12.8 -68.1 -12.35 -69.05 L-11.25 -70.4 Q-18.4 -70.7 -25.05 -68.9 -24.15 -67.95 -22.2 -67.75 L-16.95 -67.2 Q-12.5 -66.75 -8.85 -64.55 -8.5 -64.35 -8.55 -63.9 -8.85 -60.95 -11.3 -59.1 -12.85 -57.95 -14.55 -57.5 -16.05 -57.1 -16.5 -58.45 -17.2 -60.55 -14.85 -61.55 -14.1 -61.9 -13.45 -62.4 L-16.4 -63.15 -28.2 -65.55 -31.75 -66.4 Q-32.6 -66.6 -32.6 -67.45 -32.65 -69.9 -30.05 -70.95 -29.15 -71.3 -28.2 -71.7 -22.65 -74.25 -16.55 -73.9 -8.7 -73.95 -0.95 -73.65 L11.75 -72.4 12.05 -72.15 M-6.35 -76.55 Q-10.1 -79.2 -14.25 -81.05 -16.7 -82.1 -16.9 -84.65 -17.05 -87.0 -14.8 -87.45 -11.15 -87.55 -11.55 -84.0 L-11.55 -83.85 Q-6.4 -81.8 -2.15 -78.1 -1.55 -77.55 -2.1 -76.9 -3.8 -74.8 -6.35 -76.55" fill="#666666" fill-rule="evenodd" stroke="none"/>
  </g>
</svg>
