<?xml version="1.0" encoding="UTF-8" standalone="no"?>
<svg xmlns:ffdec="https://www.free-decompiler.com/flash" xmlns:xlink="http://www.w3.org/1999/xlink" ffdec:objectType="shape" height="23.35px" width="77.0px" xmlns="http://www.w3.org/2000/svg">
  <g transform="matrix(1.0, 0.0, 0.0, 1.0, 32.1, 31.35)">
    <path d="M16.15 -28.9 Q19.55 -28.05 17.15 -25.55 L14.6 -22.8 Q14.9 -22.15 14.25 -21.5 13.4 -20.55 12.3 -20.2 L11.5 -19.35 9.15 -16.7 Q8.15 -15.6 7.05 -15.2 L8.45 -14.35 9.15 -13.7 Q11.45 -11.0 9.3 -8.35 8.85 -7.8 8.15 -8.1 6.45 -8.95 6.0 -10.95 L5.7 -12.1 -8.65 -16.3 -7.35 -15.25 Q-6.85 -14.75 -7.1 -14.0 -8.05 -11.45 -10.55 -10.1 -12.65 -9.0 -14.95 -8.75 -16.3 -8.6 -16.5 -9.85 -16.9 -12.1 -14.4 -12.7 -13.3 -12.95 -12.45 -13.65 L-16.15 -14.35 -29.45 -15.95 Q-32.85 -16.4 -31.85 -19.3 -31.45 -20.35 -30.55 -21.05 -28.3 -22.7 -25.65 -23.6 -21.6 -25.05 -17.6 -25.65 L0.15 -24.75 Q5.25 -24.1 10.45 -24.5 L10.9 -24.5 13.15 -27.05 Q14.5 -28.5 16.15 -28.9 M6.7 -19.75 L7.35 -20.5 2.4 -21.05 -7.0 -21.9 -7.75 -21.95 -8.55 -20.8 -8.7 -20.6 Q-6.6 -19.05 -3.55 -18.45 L1.1 -17.45 3.75 -16.7 Q4.35 -18.8 6.7 -19.75 M26.45 -18.2 Q26.2 -20.3 28.3 -20.6 32.95 -19.6 37.3 -17.8 L37.5 -17.75 Q40.1 -18.3 42.0 -16.4 42.9 -15.45 44.05 -14.8 45.25 -14.15 44.75 -12.9 43.95 -10.85 41.75 -11.8 L27.1 -17.45 Q26.55 -17.65 26.45 -18.2 M-26.0 -19.35 Q-26.4 -19.1 -25.65 -19.1 L-13.25 -17.85 -13.3 -17.9 Q-13.95 -18.15 -14.1 -18.85 -14.5 -20.8 -12.65 -22.15 L-19.05 -21.55 -21.0 -21.1 -26.0 -19.35 M-2.55 -28.2 Q-1.9 -26.25 -3.95 -25.65 L-6.15 -25.55 -15.5 -26.85 Q-16.35 -26.95 -16.7 -27.5 -17.95 -28.0 -18.0 -29.7 -18.0 -30.75 -17.0 -31.15 L-16.25 -31.35 Q-14.25 -31.45 -13.65 -30.45 -8.35 -30.35 -3.25 -28.85 L-2.55 -28.2" fill="#666666" fill-rule="evenodd" stroke="none"/>
  </g>
</svg>
