<?xml version="1.0" encoding="UTF-8" standalone="no"?>
<svg xmlns:ffdec="https://www.free-decompiler.com/flash" xmlns:xlink="http://www.w3.org/1999/xlink" ffdec:objectType="shape" height="23.35px" width="77.0px" xmlns="http://www.w3.org/2000/svg">
  <g transform="matrix(1.0, 0.0, 0.0, 1.0, 31.15, 40.7)">
    <path d="M27.4 -27.55 Q27.15 -29.65 29.25 -29.95 33.9 -28.95 38.25 -27.15 L38.45 -27.1 41.15 -26.95 Q42.1 -26.6 42.95 -25.75 L45.0 -24.15 Q46.2 -23.5 45.7 -22.25 44.9 -20.2 42.7 -21.15 L41.15 -21.8 Q34.65 -24.5 28.05 -26.8 27.5 -27.0 27.4 -27.55 M8.3 -29.85 L3.35 -30.4 -6.05 -31.25 -6.8 -31.3 -7.6 -30.15 -7.75 -29.95 Q-5.65 -28.4 -2.6 -27.8 L2.05 -26.8 4.7 -26.05 Q5.3 -28.15 7.65 -29.1 L8.3 -29.85 M15.2 -30.85 Q14.35 -29.9 13.25 -29.55 L12.45 -28.7 10.1 -26.05 Q9.1 -24.95 8.0 -24.55 L9.4 -23.7 10.1 -23.05 Q12.4 -20.35 10.25 -17.7 9.8 -17.15 9.1 -17.45 7.4 -18.3 6.95 -20.3 L6.65 -21.45 -7.7 -25.65 -6.4 -24.6 Q-5.9 -24.1 -6.15 -23.35 -7.1 -20.8 -9.6 -19.45 -11.7 -18.35 -14.0 -18.1 -15.35 -17.95 -15.55 -19.2 -15.95 -21.45 -13.45 -22.05 -12.35 -22.3 -11.5 -23.0 L-15.2 -23.7 -28.5 -25.3 Q-31.9 -25.75 -30.9 -28.65 -30.5 -29.7 -29.6 -30.4 -27.35 -32.05 -24.7 -32.95 -20.65 -34.4 -16.65 -35.0 L1.1 -34.1 Q6.2 -33.45 11.4 -33.85 L11.85 -33.85 14.1 -36.4 Q15.45 -37.85 17.1 -38.25 20.5 -37.4 18.1 -34.9 L15.55 -32.15 Q15.85 -31.5 15.2 -30.85 M-1.6 -37.55 Q-0.95 -35.6 -3.0 -35.0 L-5.2 -34.9 -14.55 -36.2 Q-15.4 -36.3 -15.75 -36.85 -17.0 -37.35 -17.05 -39.05 -17.05 -40.1 -16.05 -40.5 L-15.3 -40.7 Q-13.3 -40.8 -12.7 -39.8 -7.4 -39.7 -2.3 -38.2 -1.8 -38.1 -1.6 -37.55 M-11.7 -31.5 L-18.1 -30.9 -20.05 -30.45 Q-22.65 -29.8 -25.05 -28.7 -25.45 -28.45 -24.7 -28.45 L-12.3 -27.2 -12.35 -27.25 Q-13.0 -27.5 -13.15 -28.2 -13.55 -30.15 -11.7 -31.5" fill="#666666" fill-rule="evenodd" stroke="none"/>
  </g>
</svg>
