<?xml version="1.0" encoding="UTF-8" standalone="no"?>
<svg xmlns:ffdec="https://www.free-decompiler.com/flash" xmlns:xlink="http://www.w3.org/1999/xlink" ffdec:objectType="shape" height="66.65px" width="79.9px" xmlns="http://www.w3.org/2000/svg">
  <g transform="matrix(1.0, 0.0, 0.0, 1.0, 13.6, 315.85)">
    <path d="M2.5 -300.3 Q-0.8 -307.2 -7.6 -310.9 -11.5 -308.2 -13.4 -312.75 -13.9 -313.8 -13.0 -314.5 -9.6 -317.3 -5.75 -314.3 L-1.65 -311.45 Q3.3 -307.35 5.9 -301.75 7.2 -299.0 4.25 -299.05 3.05 -299.1 2.5 -300.3 M64.25 -282.7 Q63.05 -282.75 62.0 -283.25 L60.0 -284.15 Q59.35 -276.35 57.8 -268.7 56.95 -264.65 54.55 -261.2 54.0 -260.45 53.1 -260.8 51.15 -261.6 50.25 -263.5 L46.9 -269.35 Q43.15 -274.75 39.75 -280.2 L39.5 -280.05 38.3 -279.2 31.3 -272.55 Q37.2 -265.9 44.25 -260.3 44.7 -259.95 44.55 -259.4 43.75 -257.5 42.15 -256.0 41.05 -255.05 40.5 -253.65 39.1 -250.3 36.05 -250.95 35.4 -251.1 35.4 -251.75 35.25 -253.55 36.65 -254.95 L37.55 -256.25 Q38.5 -258.05 40.0 -259.45 32.95 -264.2 27.2 -270.55 26.6 -271.2 26.55 -272.05 26.35 -274.45 28.65 -275.4 L29.9 -276.2 34.85 -281.25 36.15 -282.45 Q30.0 -285.2 23.2 -284.8 L15.3 -283.9 14.6 -283.3 Q14.05 -282.9 13.4 -282.95 10.65 -280.45 9.85 -283.95 9.65 -284.6 10.2 -285.15 11.4 -286.6 13.05 -286.95 20.25 -289.2 27.9 -288.4 31.3 -288.05 34.5 -287.1 L38.65 -285.5 Q39.4 -285.75 40.35 -284.85 42.95 -282.4 44.8 -279.25 46.5 -276.25 48.55 -273.35 L53.25 -266.35 Q55.35 -273.7 55.8 -281.35 56.05 -284.8 57.1 -287.85 57.3 -288.35 57.9 -288.3 62.3 -287.85 65.9 -285.45 67.2 -282.7 64.25 -282.7 M19.15 -275.7 Q20.05 -276.45 21.0 -276.05 24.1 -273.95 25.45 -270.15 L28.5 -261.25 Q30.1 -256.65 29.4 -251.85 28.85 -248.05 25.7 -249.65 24.65 -250.15 24.2 -251.2 23.05 -253.75 25.85 -254.5 26.05 -255.6 25.65 -256.9 25.35 -257.9 25.45 -258.95 23.3 -265.95 19.6 -272.15 18.95 -273.1 18.7 -274.2 18.45 -275.05 19.15 -275.7" fill="#666666" fill-rule="evenodd" stroke="none"/>
  </g>
</svg>
