<?xml version="1.0" encoding="UTF-8" standalone="no"?>
<svg xmlns:ffdec="https://www.free-decompiler.com/flash" xmlns:xlink="http://www.w3.org/1999/xlink" ffdec:objectType="shape" height="77.6px" width="64.55px" xmlns="http://www.w3.org/2000/svg">
  <g transform="matrix(1.0, 0.0, 0.0, 1.0, 0.2, 306.75)">
    <path d="M10.35 -299.6 Q13.5 -294.0 14.0 -287.85 14.25 -284.8 11.5 -285.9 10.4 -286.35 10.3 -287.7 9.7 -295.3 4.6 -301.1 0.0 -299.95 -0.2 -304.9 -0.25 -306.05 0.85 -306.4 5.0 -307.8 7.5 -303.7 8.85 -301.5 10.35 -299.6 M56.95 -256.85 Q57.3 -257.3 57.85 -257.05 61.8 -255.05 64.35 -251.55 64.55 -248.55 61.85 -249.6 60.7 -250.05 59.95 -250.9 L58.35 -252.45 Q55.05 -245.35 50.9 -238.75 48.65 -235.3 45.25 -232.9 L43.75 -233.0 Q42.2 -234.45 42.0 -236.55 41.7 -239.9 40.9 -243.2 39.3 -249.55 38.05 -255.85 L37.75 -255.8 36.35 -255.45 27.5 -251.65 Q30.65 -243.35 35.3 -235.65 35.6 -235.2 35.25 -234.75 33.8 -233.25 31.8 -232.35 30.45 -231.85 29.45 -230.75 26.95 -228.1 24.35 -229.8 23.75 -230.15 24.0 -230.75 24.5 -232.5 26.3 -233.35 L27.6 -234.2 Q29.1 -235.55 31.0 -236.35 26.1 -243.3 22.95 -251.25 22.6 -252.0 22.85 -252.85 23.5 -255.15 26.0 -255.25 L27.45 -255.55 33.85 -258.55 35.45 -259.2 Q30.75 -263.95 24.25 -265.95 20.4 -267.2 16.5 -267.85 16.05 -267.65 15.65 -267.55 L14.4 -267.65 Q10.95 -266.3 11.45 -269.85 11.5 -270.5 12.2 -270.85 13.8 -271.75 15.5 -271.5 22.95 -271.05 29.9 -267.65 32.9 -266.15 35.55 -264.1 L38.9 -261.15 Q39.7 -261.1 40.25 -260.0 41.8 -256.8 42.45 -253.2 42.95 -249.75 43.9 -246.35 L45.8 -238.15 Q50.35 -244.3 53.45 -251.3 54.9 -254.4 56.95 -256.85 M16.25 -257.6 Q16.35 -258.5 17.2 -258.85 18.3 -259.25 19.1 -258.5 21.2 -255.5 21.15 -251.5 L20.9 -242.1 Q20.8 -237.25 18.45 -233.0 16.6 -229.65 14.2 -232.2 13.4 -233.05 13.35 -234.2 13.2 -237.0 16.05 -236.7 16.6 -237.65 16.7 -239.05 16.75 -240.05 17.25 -241.0 17.65 -248.3 16.4 -255.35 16.15 -256.5 16.25 -257.6" fill="#666666" fill-rule="evenodd" stroke="none"/>
  </g>
</svg>
