<?xml version="1.0" encoding="UTF-8" standalone="no"?>
<svg xmlns:ffdec="https://www.free-decompiler.com/flash" xmlns:xlink="http://www.w3.org/1999/xlink" ffdec:objectType="shape" height="76.75px" width="64.55px" xmlns="http://www.w3.org/2000/svg">
  <g transform="matrix(1.0, 0.0, 0.0, 1.0, 10.45, 246.6)">
    <path d="M14.15 -212.45 Q15.95 -212.95 17.15 -211.8 L17.15 -211.3 17.95 -209.95 Q18.5 -208.35 19.55 -206.95 20.6 -205.55 20.3 -204.45 L22.65 -197.1 23.1 -195.6 Q24.8 -199.45 26.9 -203.1 L27.5 -204.25 Q30.55 -211.45 33.1 -218.75 32.7 -221.55 35.35 -221.15 36.15 -221.1 36.5 -220.4 36.8 -216.45 35.15 -212.75 L32.3 -206.45 Q29.6 -199.15 25.5 -192.35 24.9 -191.45 24.2 -191.3 23.45 -189.7 21.0 -189.6 L15.5 -189.2 13.7 -189.25 8.45 -189.45 Q8.85 -186.4 10.75 -183.35 13.2 -179.45 14.95 -175.2 15.35 -174.15 14.4 -173.65 L8.4 -170.45 Q7.75 -170.1 7.0 -169.9 4.25 -169.45 5.0 -172.1 5.35 -173.75 7.05 -174.35 L10.65 -175.95 3.1 -191.25 Q2.75 -191.85 3.3 -192.4 3.95 -193.15 4.9 -193.35 L5.55 -193.35 5.95 -193.4 6.6 -193.25 7.1 -193.2 16.1 -192.9 20.15 -193.5 Q18.15 -198.05 16.85 -202.75 L16.6 -204.35 16.1 -205.4 15.25 -207.1 14.35 -208.65 14.1 -208.8 13.6 -208.55 13.45 -208.45 9.55 -207.95 Q6.05 -207.6 2.8 -206.35 L-4.6 -203.65 Q-5.7 -203.3 -6.1 -204.35 -8.5 -210.4 -10.4 -216.55 -10.6 -217.15 -10.1 -217.5 -8.5 -219.05 -7.4 -217.05 -5.5 -213.65 -4.45 -209.95 L-3.5 -207.75 0.85 -209.65 Q4.1 -211.05 7.6 -211.45 L10.65 -211.75 14.15 -212.45 M53.75 -240.35 Q55.0 -231.5 52.0 -223.0 L51.8 -222.25 Q50.9 -218.7 47.85 -219.45 47.5 -219.55 47.45 -219.85 46.95 -221.9 47.95 -223.95 L48.75 -225.95 Q51.6 -233.3 49.65 -240.8 45.6 -241.6 47.45 -245.15 L48.0 -245.8 52.0 -245.7 Q53.35 -243.25 53.75 -240.35" fill="#666666" fill-rule="evenodd" stroke="none"/>
  </g>
</svg>
