<?xml version="1.0" encoding="UTF-8" standalone="no"?>
<svg xmlns:ffdec="https://www.free-decompiler.com/flash" xmlns:xlink="http://www.w3.org/1999/xlink" ffdec:objectType="shape" height="66.3px" width="67.7px" xmlns="http://www.w3.org/2000/svg">
  <g transform="matrix(1.0, 0.0, 0.0, 1.0, 7.55, 222.8)">
    <path d="M35.5 -198.95 Q35.65 -201.75 38.15 -200.85 38.95 -200.6 39.15 -199.85 38.65 -195.95 36.25 -192.65 L32.2 -187.1 Q28.05 -180.5 22.65 -174.65 21.9 -173.9 21.2 -173.9 20.15 -172.5 17.7 -172.9 L12.25 -173.6 10.5 -174.05 Q8.0 -175.05 5.4 -175.35 5.15 -172.25 6.4 -168.9 8.0 -164.55 8.85 -160.05 9.05 -158.9 8.0 -158.65 L1.5 -156.7 0.0 -156.5 Q-2.75 -156.6 -1.55 -159.05 -0.85 -160.55 0.95 -160.8 L4.8 -161.65 0.55 -178.15 Q0.3 -178.85 0.95 -179.25 1.75 -179.85 2.7 -179.85 L3.35 -179.7 3.75 -179.7 4.35 -179.4 4.85 -179.25 Q9.25 -178.4 13.55 -177.15 L17.65 -176.9 Q16.65 -181.7 16.3 -186.6 L16.4 -188.2 16.15 -189.35 15.65 -191.15 15.1 -192.9 14.9 -193.05 14.35 -192.95 14.15 -192.85 10.25 -193.2 3.35 -193.0 -4.5 -191.85 Q-5.6 -191.75 -5.8 -192.85 -6.9 -199.25 -7.55 -205.65 -7.6 -206.3 -7.05 -206.55 -5.2 -207.7 -4.45 -205.55 -3.35 -201.85 -3.05 -198.0 L-2.55 -195.65 2.1 -196.6 9.05 -197.0 12.1 -196.7 Q13.85 -196.55 15.7 -196.65 17.55 -196.75 18.5 -195.4 L18.4 -194.9 18.9 -193.4 Q19.1 -191.75 19.85 -190.15 20.55 -188.6 20.05 -187.6 L20.85 -179.9 20.95 -178.35 26.2 -184.9 27.05 -185.9 Q31.5 -192.3 35.5 -198.95 M56.15 -217.15 Q52.4 -218.75 54.95 -221.85 L55.6 -222.35 Q58.0 -223.55 59.45 -221.45 60.3 -218.75 60.1 -215.85 59.5 -206.95 54.85 -199.25 L54.5 -198.55 Q52.9 -195.3 50.1 -196.65 49.75 -196.8 49.75 -197.05 49.65 -199.2 51.1 -201.0 L52.3 -202.8 Q56.55 -209.4 56.15 -217.15" fill="#666666" fill-rule="evenodd" stroke="none"/>
  </g>
</svg>
