<?xml version="1.0" encoding="UTF-8" standalone="no"?>
<svg xmlns:ffdec="https://www.free-decompiler.com/flash" xmlns:xlink="http://www.w3.org/1999/xlink" ffdec:objectType="shape" height="50.45px" width="88.4px" xmlns="http://www.w3.org/2000/svg">
  <g transform="matrix(1.0, 0.0, 0.0, 1.0, 23.85, 184.75)">
    <path d="M49.0 -153.75 L49.95 -153.7 Q55.35 -154.35 59.1 -157.9 56.5 -160.1 59.25 -162.4 60.8 -163.75 62.65 -163.45 66.35 -160.25 62.8 -156.3 57.9 -151.0 50.5 -149.8 48.6 -149.55 47.0 -150.5 45.4 -151.55 46.7 -152.95 47.6 -153.95 49.0 -153.75 M0.25 -178.45 L-0.4 -177.9 -0.45 -177.7 -0.55 -177.5 -0.65 -177.15 Q7.9 -173.0 16.9 -169.55 20.05 -168.4 20.75 -165.55 20.9 -164.9 20.6 -164.3 L17.3 -158.95 12.8 -151.45 12.75 -151.35 15.95 -151.05 18.8 -150.9 19.6 -152.2 Q21.25 -155.0 23.25 -157.5 24.2 -158.65 25.55 -158.4 28.0 -156.4 25.6 -154.05 L23.5 -151.7 Q28.15 -153.0 32.1 -156.15 32.25 -156.75 32.75 -157.05 L33.5 -157.55 Q33.9 -158.25 34.65 -158.8 L35.45 -159.25 Q35.95 -161.05 37.45 -161.85 L37.95 -162.05 38.65 -162.2 Q41.45 -160.45 39.05 -157.6 37.1 -155.35 34.85 -153.5 30.3 -149.9 24.5 -148.2 L20.75 -147.3 19.1 -144.05 18.85 -143.7 Q18.05 -141.95 16.8 -140.5 L16.3 -139.65 Q18.6 -137.35 15.75 -135.0 13.85 -133.5 12.25 -135.4 10.3 -137.65 12.05 -140.2 L14.1 -143.25 16.4 -147.0 12.2 -147.35 9.6 -147.85 Q8.45 -148.15 8.15 -148.8 L8.1 -148.8 Q3.85 -150.2 0.0 -152.4 L-6.35 -156.05 -9.1 -147.7 -11.4 -139.5 Q-12.15 -136.7 -13.95 -134.65 -14.45 -134.1 -15.1 -134.4 L-19.85 -136.75 -20.5 -136.9 Q-23.8 -137.45 -23.85 -140.25 -23.9 -141.15 -22.95 -141.3 -21.2 -141.65 -19.35 -140.85 -17.45 -140.1 -15.7 -139.0 L-13.0 -147.25 Q-11.75 -151.35 -10.65 -155.5 -9.9 -158.35 -8.1 -160.3 -7.55 -160.9 -6.9 -160.65 L6.6 -153.35 9.15 -151.9 Q9.85 -154.15 11.1 -156.1 L14.3 -161.4 Q15.25 -163.25 16.5 -164.9 15.3 -167.0 12.45 -167.5 L11.15 -167.85 Q3.7 -170.8 -3.35 -174.35 -6.4 -175.85 -4.4 -178.65 L-3.85 -179.15 -2.8 -180.95 -2.2 -181.4 Q-1.4 -184.0 0.95 -184.7 L1.4 -184.75 Q3.7 -182.8 1.65 -180.2 L0.25 -178.45" fill="#666666" fill-rule="evenodd" stroke="none"/>
  </g>
</svg>
