<?xml version="1.0" encoding="UTF-8" standalone="no"?>
<svg xmlns:ffdec="https://www.free-decompiler.com/flash" xmlns:xlink="http://www.w3.org/1999/xlink" ffdec:objectType="shape" height="56.95px" width="81.55px" xmlns="http://www.w3.org/2000/svg">
  <g transform="matrix(1.0, 0.0, 0.0, 1.0, 14.75, 173.95)">
    <path d="M3.7 -173.95 Q6.45 -173.45 5.15 -171.05 4.15 -169.2 3.45 -167.25 L7.4 -164.55 Q12.6 -160.35 17.85 -156.25 L18.55 -155.3 Q19.3 -154.3 18.45 -152.65 L17.55 -150.5 Q16.3 -146.9 14.35 -143.75 L13.85 -142.25 13.95 -141.65 17.6 -139.6 Q18.35 -139.1 19.25 -138.85 22.05 -138.05 24.95 -137.7 L26.25 -140.15 26.75 -140.45 27.1 -140.5 Q29.4 -139.7 28.75 -137.45 L32.45 -137.6 41.55 -138.0 Q43.15 -138.0 43.15 -136.45 43.15 -134.9 41.55 -134.8 L32.3 -134.0 Q29.7 -133.8 27.2 -133.9 L22.95 -125.05 21.65 -122.15 Q23.7 -119.35 21.05 -117.25 20.8 -117.05 20.4 -117.0 17.15 -116.85 17.45 -119.75 L17.75 -121.3 Q18.45 -124.25 19.75 -127.1 21.1 -130.05 22.7 -132.75 L23.35 -134.3 19.05 -135.15 Q16.2 -135.9 13.75 -137.4 12.15 -138.35 11.1 -139.75 10.25 -140.0 9.95 -140.5 L5.5 -142.3 2.5 -143.45 -5.75 -147.05 -5.85 -144.05 Q-5.45 -139.1 -5.4 -134.05 -5.35 -131.65 -5.8 -129.35 L-5.75 -129.15 Q-5.55 -128.05 -6.25 -127.6 L-6.6 -127.4 -7.8 -127.25 Q-10.65 -127.15 -13.5 -127.35 -14.55 -127.45 -14.7 -128.5 -14.95 -130.3 -13.15 -130.55 L-8.9 -130.4 -9.1 -135.6 Q-9.15 -142.25 -9.5 -148.9 -9.55 -150.15 -8.85 -150.8 -8.4 -151.25 -7.6 -151.35 -4.5 -150.5 -1.5 -149.15 4.5 -146.4 10.8 -144.35 L11.4 -145.65 Q11.55 -146.6 12.25 -147.35 L12.65 -147.9 14.9 -153.5 14.05 -154.15 9.1 -158.5 1.05 -164.85 Q0.25 -165.0 0.0 -165.9 L-0.05 -166.2 -0.1 -166.65 Q-0.2 -168.15 0.4 -169.6 1.4 -171.85 3.0 -173.6 3.3 -173.95 3.7 -173.95 M63.75 -124.35 Q57.35 -120.95 50.0 -122.3 48.1 -122.65 46.95 -124.1 45.75 -125.6 47.45 -126.5 48.6 -127.15 49.9 -126.5 50.3 -126.25 50.75 -126.15 56.1 -125.0 60.8 -127.1 59.05 -130.05 62.4 -131.3 L66.0 -131.15 Q68.4 -126.95 63.75 -124.35" fill="#666666" fill-rule="evenodd" stroke="none"/>
  </g>
</svg>
