<?xml version="1.0" encoding="UTF-8" standalone="no"?>
<svg xmlns:ffdec="https://www.free-decompiler.com/flash" xmlns:xlink="http://www.w3.org/1999/xlink" ffdec:objectType="shape" height="62.25px" width="79.6px" xmlns="http://www.w3.org/2000/svg">
  <g transform="matrix(1.0, 0.0, 0.0, 1.0, 17.6, 161.3)">
    <path d="M4.9 -154.25 L4.9 -154.5 4.95 -154.95 Q5.15 -156.45 6.05 -157.7 7.5 -159.7 9.5 -161.05 9.85 -161.35 10.25 -161.25 12.8 -160.15 11.0 -158.1 L8.5 -154.8 11.8 -151.3 20.2 -140.9 20.65 -139.85 Q21.2 -138.7 20.0 -137.25 L18.65 -135.35 Q16.65 -132.15 14.05 -129.5 L13.2 -128.15 13.2 -127.55 16.3 -124.7 Q16.9 -124.1 17.75 -123.65 20.3 -122.3 23.05 -121.3 L24.9 -123.4 25.45 -123.55 25.8 -123.55 Q27.85 -122.25 26.7 -120.25 L30.35 -119.55 39.35 -117.95 Q40.9 -117.6 40.55 -116.1 40.2 -114.6 38.65 -114.85 L29.45 -116.05 24.45 -117.1 18.4 -109.35 16.5 -106.8 Q17.85 -103.65 14.85 -102.15 L14.15 -102.05 Q10.9 -102.65 11.85 -105.4 L12.5 -106.85 Q13.8 -109.6 15.7 -112.05 L19.8 -116.95 20.75 -118.3 Q18.7 -119.1 16.75 -120.05 14.15 -121.45 12.1 -123.4 10.75 -124.7 10.0 -126.3 9.25 -126.75 9.05 -127.3 L5.1 -130.0 2.45 -131.75 -4.85 -137.05 -5.6 -134.15 Q-6.3 -129.25 -7.3 -124.3 -7.8 -121.95 -8.7 -119.85 L-8.7 -119.6 Q-8.8 -118.5 -9.55 -118.2 L-9.95 -118.1 -11.15 -118.25 -16.65 -119.55 Q-17.7 -119.85 -17.6 -120.9 -17.45 -122.75 -15.65 -122.6 L-11.55 -121.55 -10.6 -126.65 Q-9.2 -133.15 -8.1 -139.7 -7.9 -140.95 -7.05 -141.4 L-5.7 -141.65 -0.25 -138.2 Q5.0 -134.2 10.7 -130.85 L11.6 -131.95 Q11.95 -132.85 12.8 -133.45 L13.3 -133.9 16.7 -138.85 16.05 -139.7 12.15 -145.0 5.65 -152.95 Q4.9 -153.3 4.9 -154.25 M41.6 -103.25 Q40.75 -104.95 42.6 -105.5 43.85 -105.85 44.95 -104.95 L45.75 -104.4 Q50.65 -102.1 55.75 -103.15 54.65 -106.4 58.2 -106.9 60.25 -107.2 61.7 -106.0 63.1 -101.35 58.0 -99.85 51.05 -97.9 44.15 -100.85 42.4 -101.6 41.6 -103.25" fill="#666666" fill-rule="evenodd" stroke="none"/>
  </g>
</svg>
