<?xml version="1.0" encoding="UTF-8" standalone="no"?>
<svg xmlns:ffdec="https://www.free-decompiler.com/flash" xmlns:xlink="http://www.w3.org/1999/xlink" ffdec:objectType="shape" height="68.8px" width="80.25px" xmlns="http://www.w3.org/2000/svg">
  <g transform="matrix(1.0, 0.0, 0.0, 1.0, 20.7, 126.55)">
    <path d="M10.2 -119.2 Q13.0 -110.65 17.95 -103.2 18.75 -102.0 17.6 -101.0 13.75 -97.55 10.5 -93.6 9.9 -91.8 8.9 -90.35 L18.65 -86.45 19.25 -87.1 Q21.95 -89.95 25.15 -91.5 28.1 -90.05 25.7 -87.65 L23.2 -85.25 22.65 -84.65 23.1 -84.45 32.25 -80.1 36.55 -77.9 Q38.1 -76.95 36.95 -75.55 35.85 -74.2 34.15 -75.1 27.05 -78.8 19.75 -81.85 L19.3 -81.45 17.25 -78.05 17.1 -77.65 Q20.0 -74.45 16.45 -72.1 L15.75 -71.85 Q11.75 -71.3 11.85 -74.75 11.95 -76.45 12.85 -77.75 13.5 -79.55 14.55 -81.1 L14.9 -81.55 16.15 -83.35 Q10.95 -85.55 5.9 -87.9 L5.7 -88.0 5.35 -88.15 4.85 -88.75 Q4.55 -89.1 4.5 -89.5 4.05 -89.95 3.75 -90.55 L2.65 -92.35 -5.85 -103.3 -6.65 -90.4 Q-6.75 -86.05 -8.55 -82.25 -9.7 -79.85 -12.55 -81.2 -16.15 -82.85 -19.95 -84.05 -20.7 -84.25 -20.7 -84.95 -20.95 -87.9 -18.0 -87.1 L-11.45 -85.15 Q-10.2 -89.7 -10.0 -94.6 L-9.35 -108.0 Q-9.25 -110.15 -7.2 -110.35 -3.65 -107.6 -1.05 -103.7 L1.75 -99.7 6.25 -93.9 8.05 -96.4 Q10.6 -99.7 13.75 -102.4 10.2 -109.05 7.35 -116.1 L7.3 -116.5 Q5.55 -118.5 6.45 -120.7 L6.75 -121.2 Q8.5 -124.9 11.9 -126.55 14.95 -124.8 12.2 -122.05 10.9 -120.8 10.2 -119.2 M57.15 -61.1 Q48.7 -58.55 39.8 -57.75 36.5 -57.5 37.15 -60.3 37.3 -61.25 38.3 -61.4 L50.75 -63.15 Q52.85 -63.45 54.65 -64.3 54.65 -65.45 55.3 -66.35 55.85 -67.25 56.75 -67.15 60.8 -66.6 58.95 -62.7 58.4 -61.55 57.15 -61.1" fill="#666666" fill-rule="evenodd" stroke="none"/>
  </g>
</svg>
