<?xml version="1.0" encoding="UTF-8" standalone="no"?>
<svg xmlns:ffdec="https://www.free-decompiler.com/flash" xmlns:xlink="http://www.w3.org/1999/xlink" ffdec:objectType="shape" height="70.6px" width="77.3px" xmlns="http://www.w3.org/2000/svg">
  <g transform="matrix(1.0, 0.0, 0.0, 1.0, 20.3, 105.6)">
    <path d="M16.05 -101.1 Q14.6 -100.0 13.75 -98.45 15.75 -89.7 19.9 -81.85 20.6 -80.55 19.4 -79.65 15.2 -76.55 11.6 -72.95 10.85 -71.2 9.7 -69.9 L19.0 -65.05 19.65 -65.65 Q22.65 -68.25 25.95 -69.5 28.8 -67.75 26.15 -65.6 L23.45 -63.4 22.85 -62.9 23.25 -62.65 31.95 -57.45 36.0 -54.8 Q37.5 -53.75 36.2 -52.45 34.95 -51.2 33.35 -52.3 26.65 -56.65 19.7 -60.4 L19.2 -60.05 16.85 -56.85 16.65 -56.5 Q19.2 -53.0 15.5 -51.0 L14.75 -50.8 Q10.7 -50.65 11.15 -54.1 11.35 -55.8 12.4 -56.95 13.25 -58.7 14.4 -60.15 L14.85 -60.55 16.2 -62.25 Q11.25 -64.9 6.45 -67.75 L6.3 -67.85 5.95 -68.05 Q5.55 -68.3 5.5 -68.7 L5.2 -69.45 4.6 -70.55 3.65 -72.45 -3.7 -84.15 Q-4.9 -77.85 -5.75 -71.45 -6.3 -67.15 -8.45 -63.5 -9.8 -61.2 -12.5 -62.8 -15.95 -64.85 -19.6 -66.35 -20.35 -66.65 -20.3 -67.35 -20.25 -70.35 -17.4 -69.25 L-11.05 -66.65 Q-9.35 -71.05 -8.65 -75.95 L-6.75 -89.2 Q-6.45 -91.35 -4.4 -91.35 -1.15 -88.25 1.1 -84.1 L3.45 -79.9 7.4 -73.7 9.45 -76.0 Q12.3 -79.05 15.7 -81.4 12.75 -88.35 10.65 -95.65 L10.6 -96.05 Q9.1 -98.2 10.2 -100.35 L10.5 -100.8 Q12.6 -104.3 16.15 -105.6 19.05 -103.6 16.05 -101.1 M35.1 -37.4 Q35.15 -38.4 36.15 -38.65 L48.35 -41.5 Q50.45 -42.0 52.15 -43.05 52.05 -44.2 52.6 -45.15 53.05 -46.05 53.95 -46.05 58.05 -45.9 56.6 -41.8 56.15 -40.6 54.95 -40.1 46.75 -36.75 38.0 -35.1 34.75 -34.55 35.1 -37.4" fill="#666666" fill-rule="evenodd" stroke="none"/>
  </g>
</svg>
