<?xml version="1.0" encoding="UTF-8" standalone="no"?>
<svg xmlns:ffdec="https://www.free-decompiler.com/flash" xmlns:xlink="http://www.w3.org/1999/xlink" ffdec:objectType="shape" height="71.55px" width="75.9px" xmlns="http://www.w3.org/2000/svg">
  <g transform="matrix(1.0, 0.0, 0.0, 1.0, 21.5, 79.95)">
    <path d="M11.05 -75.45 Q13.35 -78.85 16.95 -79.95 19.7 -77.8 16.55 -75.5 15.1 -74.5 14.15 -73.0 15.65 -64.15 19.4 -56.05 20.05 -54.75 18.8 -53.9 14.45 -51.05 10.65 -47.65 9.8 -45.95 8.6 -44.65 L17.65 -39.35 18.3 -39.9 Q21.4 -42.35 24.8 -43.4 27.55 -41.5 24.8 -39.5 L21.95 -37.45 21.35 -37.0 21.75 -36.7 30.15 -31.05 34.05 -28.2 Q35.5 -27.1 34.15 -25.85 32.85 -24.7 31.25 -25.85 24.85 -30.55 18.05 -34.65 L17.55 -34.3 Q16.4 -32.65 15.05 -31.3 L14.8 -30.9 Q17.2 -27.3 13.35 -25.5 L12.6 -25.35 Q8.55 -25.45 9.2 -28.8 9.5 -30.5 10.6 -31.6 11.55 -33.3 12.8 -34.7 L13.2 -35.05 14.7 -36.7 5.25 -42.7 5.1 -42.8 4.75 -43.05 Q4.35 -43.3 4.35 -43.7 L4.1 -44.5 3.5 -45.6 2.7 -47.55 Q-0.5 -53.7 -4.05 -59.65 L-6.75 -47.05 Q-7.55 -42.75 -9.85 -39.25 -11.35 -37.05 -13.95 -38.8 -17.25 -40.95 -20.85 -42.7 -21.55 -43.0 -21.5 -43.7 -21.3 -46.7 -18.5 -45.45 L-12.3 -42.55 Q-10.4 -46.85 -9.4 -51.7 L-6.8 -64.85 Q-6.4 -66.95 -4.35 -66.85 -1.3 -63.6 0.75 -59.3 1.75 -57.1 2.9 -55.0 4.55 -51.7 6.5 -48.6 L8.65 -50.75 Q11.65 -53.7 15.2 -55.85 12.65 -62.9 10.9 -70.3 L10.9 -70.75 Q9.5 -72.95 10.7 -75.05 L11.05 -75.45 M33.35 -12.05 L45.7 -14.25 Q47.8 -14.65 49.55 -15.6 49.5 -16.75 50.1 -17.7 50.6 -18.6 51.5 -18.55 55.6 -18.15 53.9 -14.1 53.4 -12.95 52.2 -12.5 43.8 -9.6 35.0 -8.45 31.7 -8.05 32.2 -10.9 32.35 -11.85 33.35 -12.05" fill="#666666" fill-rule="evenodd" stroke="none"/>
  </g>
</svg>
