<?xml version="1.0" encoding="UTF-8" standalone="no"?>
<svg xmlns:ffdec="https://www.free-decompiler.com/flash" xmlns:xlink="http://www.w3.org/1999/xlink" ffdec:objectType="shape" height="73.85px" width="40.85px" xmlns="http://www.w3.org/2000/svg">
  <g transform="matrix(1.0, 0.0, 0.0, 1.0, 26.15, 72.6)">
    <path d="M0.45 -51.75 L1.45 -44.7 Q1.9 -41.75 2.9 -38.95 L3.2 -37.75 Q4.0 -36.85 3.85 -35.25 L3.85 -34.8 Q4.45 -28.9 4.45 -22.85 L4.1 -19.65 5.1 -18.3 7.2 -14.5 13.55 -4.65 Q14.7 -2.9 14.7 -0.85 L14.45 -0.3 14.15 -0.05 Q14.1 1.05 12.65 1.15 9.3 1.35 5.95 1.15 4.95 1.05 4.85 0.1 4.6 -1.55 6.25 -1.8 L11.25 -1.65 10.7 -3.0 4.4 -12.45 Q2.7 -15.0 1.65 -17.8 0.85 -18.2 0.95 -19.5 1.4 -25.45 0.8 -31.35 L0.65 -33.5 -3.45 -28.1 -6.55 -23.45 Q-7.25 -22.3 -8.1 -21.3 -7.8 -20.6 -7.8 -19.6 L-7.75 -18.0 -6.9 -12.25 -6.45 -8.3 -5.7 -0.45 Q-5.6 0.45 -6.45 0.8 L-7.85 0.9 Q-11.7 1.1 -15.6 0.95 -16.35 0.9 -16.6 0.15 -17.15 -1.65 -15.25 -2.0 L-8.9 -1.85 Q-9.6 -5.45 -9.8 -9.2 L-9.9 -9.85 -10.2 -12.95 Q-10.7 -14.75 -10.85 -16.7 L-11.05 -17.65 Q-11.4 -19.2 -11.3 -20.7 L-11.25 -22.05 Q-10.55 -24.1 -9.2 -25.75 -6.5 -29.15 -4.05 -32.65 L-1.65 -35.9 -0.25 -37.3 -0.3 -37.4 Q-1.5 -42.5 -2.1 -47.75 L-2.85 -52.25 -3.0 -53.1 -7.7 -55.35 Q-10.75 -56.95 -9.5 -59.85 L-8.85 -60.45 -8.15 -60.7 Q-5.4 -60.55 -4.95 -57.8 L-4.95 -57.65 -3.5 -56.95 Q-4.15 -58.4 -4.4 -60.05 L-4.5 -61.65 -4.5 -62.15 -5.9 -67.45 -6.7 -70.95 Q-6.9 -71.95 -5.95 -72.4 L-5.3 -72.6 Q-3.3 -72.15 -3.05 -69.95 L-2.95 -69.45 Q-2.1 -66.75 -1.8 -63.95 -0.75 -59.8 -0.05 -55.5 L0.7 -55.25 6.85 -53.05 Q7.65 -52.8 7.65 -51.95 7.6 -49.95 5.4 -50.4 2.85 -50.9 0.45 -51.75 M-24.45 -64.85 Q-21.3 -64.9 -21.55 -61.7 -21.6 -61.0 -22.15 -60.45 -18.05 -56.05 -13.2 -52.15 L-12.55 -51.35 Q-11.75 -49.5 -13.85 -49.1 -15.1 -48.9 -16.0 -49.8 L-24.35 -58.0 Q-26.6 -60.2 -26.05 -63.4 -25.8 -64.75 -24.45 -64.85" fill="#666666" fill-rule="evenodd" stroke="none"/>
  </g>
</svg>
