<?xml version="1.0" encoding="UTF-8" standalone="no"?>
<svg xmlns:ffdec="https://www.free-decompiler.com/flash" xmlns:xlink="http://www.w3.org/1999/xlink" ffdec:objectType="shape" height="75.35px" width="43.7px" xmlns="http://www.w3.org/2000/svg">
  <g transform="matrix(1.0, 0.0, 0.0, 1.0, 28.2, 73.5)">
    <path d="M4.2 -53.4 L6.8 -52.9 Q8.35 -52.25 7.7 -50.75 7.35 -49.95 6.5 -49.95 L0.85 -49.95 Q1.5 -47.2 2.3 -44.5 L3.7 -38.4 Q4.85 -37.65 4.65 -35.75 L4.45 -32.85 Q4.3 -26.95 4.6 -21.05 L4.6 -20.75 Q4.95 -20.05 4.9 -19.05 L4.85 -17.9 Q8.25 -13.25 10.65 -8.1 12.0 -5.2 14.35 -3.05 16.05 -1.5 15.2 0.3 14.8 1.05 13.95 1.0 L13.5 0.95 Q10.05 2.0 6.45 1.45 4.35 1.1 4.95 -0.8 5.2 -1.7 6.15 -1.8 L10.25 -2.05 Q7.35 -5.65 5.4 -9.9 4.2 -12.65 2.4 -15.0 1.15 -16.65 1.1 -18.8 L1.15 -19.35 Q0.8 -19.9 0.85 -20.65 L1.0 -28.0 1.0 -32.3 1.0 -32.75 -1.75 -27.95 -2.5 -26.7 Q-4.25 -24.05 -6.25 -21.55 L-6.5 -20.8 Q-7.35 -18.75 -7.2 -16.4 L-6.6 -7.6 -6.2 -3.7 Q-6.0 -2.45 -5.4 -1.3 -4.9 -0.35 -5.2 0.6 -5.75 2.2 -7.35 1.7 L-9.45 1.6 -11.8 1.5 Q-13.9 1.95 -15.65 1.05 -16.5 0.65 -16.45 -0.25 -16.3 -1.75 -14.75 -1.75 L-11.4 -2.15 -9.5 -2.25 Q-10.1 -5.6 -10.3 -9.0 -10.65 -14.95 -10.3 -20.8 -10.2 -22.55 -9.1 -23.4 L-8.45 -24.45 Q-4.9 -29.1 -2.4 -34.4 -1.5 -36.45 0.1 -37.95 L0.0 -38.3 Q-1.1 -44.05 -2.7 -49.7 L-2.85 -50.3 -7.15 -51.0 Q-8.85 -51.3 -9.7 -52.65 -10.05 -53.25 -9.95 -54.05 -9.6 -56.0 -7.55 -56.15 -5.3 -56.0 -4.15 -54.25 L-4.05 -54.15 -3.5 -54.05 -5.5 -62.55 -7.15 -67.95 Q-7.85 -69.9 -8.9 -71.6 -9.1 -71.85 -8.95 -72.2 -8.55 -73.45 -7.35 -73.5 -4.65 -72.85 -3.9 -70.0 L-3.15 -67.15 Q-1.65 -61.55 -0.45 -55.8 L0.0 -53.65 4.2 -53.4 M-23.65 -59.0 L-23.65 -58.85 Q-19.2 -54.7 -14.05 -51.6 -13.7 -51.35 -13.7 -50.95 -13.75 -48.65 -16.25 -49.2 -17.6 -49.5 -18.75 -50.35 L-23.45 -53.8 Q-26.15 -55.8 -27.8 -58.65 -28.85 -60.5 -27.1 -61.75 L-26.15 -62.1 Q-23.25 -61.9 -23.65 -59.0" fill="#666666" fill-rule="evenodd" stroke="none"/>
  </g>
</svg>
