<?xml version="1.0" encoding="UTF-8" standalone="no"?>
<svg xmlns:ffdec="https://www.free-decompiler.com/flash" xmlns:xlink="http://www.w3.org/1999/xlink" ffdec:objectType="shape" height="66.75px" width="48.45px" xmlns="http://www.w3.org/2000/svg">
  <g transform="matrix(1.0, 0.0, 0.0, 1.0, 33.45, 65.7)">
    <path d="M4.5 -51.3 Q7.15 -50.8 5.75 -48.7 L5.1 -47.95 Q2.65 -45.8 -0.05 -44.1 L1.75 -40.45 1.95 -39.55 4.25 -35.1 4.45 -34.2 Q5.25 -33.05 4.95 -32.25 L4.8 -31.35 4.6 -30.15 Q4.5 -27.35 3.6 -24.8 L2.95 -19.25 4.1 -17.8 5.5 -15.25 Q8.4 -10.15 11.95 -5.45 L13.4 -3.7 Q14.35 -2.55 14.9 -1.25 15.2 -0.5 14.55 0.0 14.2 0.65 13.1 0.7 L6.15 0.75 Q5.35 0.7 5.15 -0.05 4.55 -1.85 6.45 -2.2 L10.3 -2.1 Q7.3 -5.85 4.9 -10.0 L0.6 -17.15 Q-0.15 -17.5 -0.1 -18.55 L0.35 -25.45 Q0.4 -26.1 0.85 -26.55 L1.4 -29.6 -4.75 -21.7 -5.7 -20.45 -6.65 -19.5 Q-6.6 -19.05 -6.7 -18.5 L-6.8 -16.35 -6.15 -4.6 -6.05 -0.05 Q-6.05 0.65 -6.75 0.9 L-8.25 0.8 -14.3 1.05 Q-16.65 1.05 -16.0 -1.15 -15.7 -2.15 -14.7 -2.2 L-9.1 -1.85 -9.55 -6.2 -10.15 -17.95 Q-10.2 -19.2 -9.85 -20.2 -10.0 -21.2 -9.1 -22.05 -5.85 -25.1 -3.4 -28.8 L-1.0 -32.2 0.95 -34.15 Q0.15 -35.15 -0.2 -36.3 L-0.35 -37.15 -2.0 -40.45 -2.25 -41.2 -2.9 -42.5 -4.8 -41.65 Q-6.2 -41.05 -7.75 -41.35 -9.75 -41.8 -9.7 -43.9 -9.7 -44.85 -9.1 -45.55 -7.3 -47.8 -5.1 -45.8 L-4.75 -45.45 -4.35 -45.65 -5.0 -47.15 -5.15 -47.95 -10.5 -57.4 -13.95 -63.4 Q-14.8 -64.75 -13.3 -65.5 L-12.75 -65.7 Q-11.05 -65.25 -10.1 -63.55 L-8.55 -60.85 Q-5.85 -56.5 -3.75 -51.9 L-1.35 -47.3 3.3 -50.75 4.5 -51.3 M-28.2 -49.9 L-28.15 -49.75 -18.4 -49.25 Q-18.1 -49.25 -17.95 -48.95 -16.95 -47.0 -19.1 -46.65 L-25.8 -46.35 -26.2 -46.4 -31.5 -46.65 Q-32.5 -46.75 -33.0 -47.55 -33.4 -48.2 -33.45 -49.0 -33.5 -51.3 -31.2 -51.7 -28.75 -52.0 -28.2 -49.9" fill="#666666" fill-rule="evenodd" stroke="none"/>
  </g>
</svg>
