<?xml version="1.0" encoding="UTF-8" standalone="no"?>
<svg xmlns:ffdec="https://www.free-decompiler.com/flash" xmlns:xlink="http://www.w3.org/1999/xlink" ffdec:objectType="shape" height="61.95px" width="52.45px" xmlns="http://www.w3.org/2000/svg">
  <g transform="matrix(1.0, 0.0, 0.0, 1.0, 36.25, 60.2)">
    <path d="M1.05 -41.6 L1.5 -40.9 4.5 -35.55 Q5.7 -35.15 5.7 -34.0 6.2 -33.0 5.7 -31.45 L5.25 -29.6 3.2 -21.1 Q2.85 -19.7 3.2 -18.45 L3.75 -17.45 Q8.15 -13.4 11.35 -8.45 13.15 -5.6 15.35 -3.0 16.45 -1.65 16.1 0.0 15.7 1.6 14.05 1.6 L5.8 1.2 Q5.25 1.15 5.0 0.6 4.0 -1.55 6.35 -2.15 L8.3 -2.55 10.25 -2.65 4.45 -10.7 1.3 -14.1 Q-0.15 -15.4 -1.05 -17.05 L-1.2 -17.85 Q-0.7 -22.6 0.5 -27.15 L1.0 -29.1 Q-1.55 -26.75 -3.35 -23.7 L-5.65 -19.6 -5.95 -19.05 Q-5.1 -18.05 -5.45 -16.15 -5.7 -14.6 -5.55 -13.05 L-5.35 -10.0 Q-5.2 -4.95 -5.75 0.0 -5.8 0.45 -6.2 0.7 -7.3 1.45 -8.65 1.6 L-14.95 1.35 Q-15.8 1.2 -16.0 0.35 -16.55 -1.7 -14.4 -2.05 L-9.35 -2.45 Q-9.15 -8.05 -9.5 -13.5 -9.7 -16.4 -9.05 -19.1 L-8.95 -19.3 -9.2 -20.1 Q-9.1 -22.15 -8.05 -24.0 L-6.15 -27.3 -4.75 -29.2 -4.3 -29.65 Q-2.05 -32.2 0.7 -34.1 L-2.2 -38.85 -2.6 -38.5 Q-5.85 -35.65 -9.85 -37.05 -11.3 -37.55 -11.65 -39.0 -12.25 -41.6 -9.65 -42.45 -7.35 -43.25 -5.75 -41.5 -5.05 -41.65 -4.4 -42.1 L-5.25 -43.3 Q-7.8 -46.85 -10.65 -50.2 L-14.4 -54.6 Q-15.55 -55.9 -16.3 -57.45 -16.55 -57.9 -16.45 -58.5 -16.1 -60.1 -14.55 -60.2 -12.35 -59.35 -10.9 -57.3 L-3.7 -48.0 -1.45 -45.15 0.1 -46.6 Q1.5 -47.9 3.15 -48.4 6.0 -48.35 5.3 -45.75 5.1 -44.85 4.3 -44.35 L2.0 -42.45 1.2 -41.75 1.05 -41.6 M-22.4 -43.5 Q-28.45 -43.25 -34.5 -43.4 -35.4 -43.4 -35.9 -44.15 L-35.95 -44.35 Q-37.0 -47.35 -34.2 -48.2 -32.65 -48.4 -31.4 -47.4 L-31.2 -47.25 -22.15 -46.95 Q-20.75 -46.85 -20.6 -45.5 -20.4 -43.55 -22.4 -43.5" fill="#666666" fill-rule="evenodd" stroke="none"/>
  </g>
</svg>
