<?xml version="1.0" encoding="UTF-8" standalone="no"?>
<svg xmlns:ffdec="https://www.free-decompiler.com/flash" xmlns:xlink="http://www.w3.org/1999/xlink" ffdec:objectType="shape" height="58.3px" width="52.85px" xmlns="http://www.w3.org/2000/svg">
  <g transform="matrix(1.0, 0.0, 0.0, 1.0, 37.4, 56.7)">
    <path d="M6.5 -45.35 Q5.0 -42.25 2.85 -39.55 L2.45 -39.05 Q4.15 -36.95 6.0 -34.95 8.15 -33.3 7.85 -30.9 L7.8 -30.65 7.45 -29.65 6.35 -27.15 Q4.6 -22.2 3.15 -17.15 4.05 -16.4 4.7 -15.25 6.15 -12.7 8.35 -10.75 12.9 -6.7 15.35 -1.3 15.55 -0.85 15.25 -0.45 L15.0 -0.1 Q15.0 1.1 13.5 1.15 9.6 1.35 5.75 1.15 4.95 1.15 4.7 0.35 4.15 -1.45 6.05 -1.8 L11.65 -1.65 10.95 -2.7 Q9.4 -5.1 7.3 -7.0 3.9 -10.05 1.45 -13.65 L0.25 -15.5 0.0 -15.8 Q-0.45 -16.45 -0.35 -17.3 0.0 -19.65 0.9 -21.9 L2.75 -26.35 3.8 -29.75 Q-0.15 -26.6 -3.45 -22.75 -4.55 -21.5 -5.8 -20.4 L-5.85 -19.15 -6.05 -16.95 Q-6.15 -11.0 -5.75 -5.05 L-5.5 -1.15 -5.55 -0.25 -5.65 0.4 Q-5.8 1.15 -6.6 1.3 -11.15 2.25 -15.0 0.0 -15.35 -0.25 -15.35 -0.7 -15.35 -2.25 -13.8 -2.4 -11.35 -1.7 -8.8 -1.8 L-8.85 -1.95 Q-9.35 -7.85 -9.3 -13.9 L-8.95 -20.25 Q-9.3 -20.9 -8.8 -21.75 L-8.65 -22.05 -8.55 -22.1 -7.65 -23.3 Q-3.95 -27.95 0.8 -31.65 L2.6 -33.2 2.85 -33.4 0.0 -36.7 Q-1.85 -35.2 -3.95 -34.15 L-5.35 -34.1 Q-7.6 -35.0 -7.6 -37.4 -7.6 -38.45 -6.7 -39.05 L-2.8 -38.95 -2.15 -39.4 -4.05 -42.0 -7.75 -47.0 -10.7 -50.25 Q-12.85 -52.3 -14.2 -54.8 L-14.25 -55.35 Q-14.0 -56.6 -12.75 -56.7 -10.65 -55.65 -9.1 -53.7 L-7.05 -51.2 0.15 -42.05 0.35 -41.75 1.5 -43.35 4.55 -47.65 4.9 -47.85 5.2 -47.95 Q7.55 -47.45 6.5 -45.35 M-31.5 -39.05 Q-34.5 -37.95 -36.95 -39.5 L-37.4 -40.3 Q-37.5 -43.1 -34.85 -43.95 -32.35 -44.75 -31.7 -42.45 -27.15 -44.0 -22.35 -44.8 -19.7 -45.1 -20.1 -42.8 -20.25 -41.75 -21.35 -41.6 -26.55 -40.85 -31.5 -39.05" fill="#666666" fill-rule="evenodd" stroke="none"/>
  </g>
</svg>
