<?xml version="1.0" encoding="UTF-8" standalone="no"?>
<svg xmlns:ffdec="https://www.free-decompiler.com/flash" xmlns:xlink="http://www.w3.org/1999/xlink" ffdec:objectType="shape" height="49.95px" width="55.9px" xmlns="http://www.w3.org/2000/svg">
  <g transform="matrix(1.0, 0.0, 0.0, 1.0, 39.8, 48.15)">
    <path d="M7.9 -39.5 L4.75 -34.45 6.75 -33.05 Q9.45 -31.15 11.35 -28.65 12.05 -28.3 12.05 -27.6 12.25 -27.2 12.0 -26.8 L11.55 -26.2 9.7 -24.1 Q6.05 -20.85 3.0 -16.95 4.45 -15.85 5.6 -14.3 8.15 -10.85 11.2 -7.65 L15.95 -2.05 Q16.25 -1.6 16.0 -1.1 L15.15 -0.05 Q14.85 0.6 13.5 0.85 L12.95 0.9 5.1 0.45 4.75 0.15 Q3.95 -1.9 6.05 -2.4 L11.8 -2.15 10.2 -3.8 Q6.2 -8.1 2.45 -12.55 L-0.05 -15.7 -0.5 -16.25 -0.55 -16.55 -0.45 -17.5 Q-0.3 -18.0 0.2 -18.3 1.95 -20.9 4.05 -23.2 L-2.05 -21.2 -4.85 -20.3 -4.95 -20.0 -5.15 -18.5 -5.35 -6.6 Q-5.35 -3.65 -6.1 -0.9 L-6.0 -0.65 Q-5.45 0.95 -7.1 1.35 L-7.35 1.4 Q-10.6 2.1 -13.8 1.55 -14.65 1.4 -15.35 0.9 -16.6 -0.1 -15.55 -1.25 -15.1 -1.75 -14.5 -1.8 L-9.15 -1.45 Q-8.15 -6.95 -8.3 -12.7 L-8.35 -15.35 Q-8.45 -18.8 -7.9 -22.05 -7.8 -22.5 -7.35 -22.65 L-6.8 -22.8 Q-5.8 -23.5 -4.6 -23.9 0.6 -25.9 6.05 -27.5 L7.7 -28.05 2.85 -31.75 1.4 -29.9 Q0.85 -29.25 0.0 -29.25 -2.7 -29.25 -2.55 -31.8 -2.45 -33.5 -0.6 -34.0 L-0.5 -34.0 -9.55 -40.35 -14.75 -44.35 -15.95 -45.75 Q-16.65 -46.95 -15.55 -47.8 L-14.7 -48.15 Q-12.6 -47.25 -10.9 -45.6 L-10.3 -45.1 -0.8 -38.25 2.0 -36.35 6.05 -42.8 Q6.2 -43.05 6.5 -43.1 L6.8 -43.15 Q9.3 -42.1 7.9 -39.5 M-22.3 -37.85 Q-22.5 -36.8 -23.6 -36.55 L-34.8 -34.45 Q-35.2 -31.6 -38.25 -32.4 -39.85 -32.8 -39.8 -34.45 -39.75 -36.65 -37.3 -37.15 L-24.45 -39.85 Q-21.95 -40.05 -22.3 -37.85" fill="#666666" fill-rule="evenodd" stroke="none"/>
  </g>
</svg>
