<?xml version="1.0" encoding="UTF-8" standalone="no"?>
<svg xmlns:ffdec="https://www.free-decompiler.com/flash" xmlns:xlink="http://www.w3.org/1999/xlink" ffdec:objectType="shape" height="45.05px" width="56.8px" xmlns="http://www.w3.org/2000/svg">
  <g transform="matrix(1.0, 0.0, 0.0, 1.0, 40.85, 43.1)">
    <path d="M5.65 -36.4 Q6.25 -37.45 7.3 -37.55 10.0 -37.15 8.95 -34.75 L8.85 -34.6 Q8.55 -32.05 8.6 -29.5 L9.95 -28.7 12.55 -27.15 Q14.5 -26.95 14.45 -25.55 14.75 -24.75 13.85 -23.8 L13.05 -22.75 Q9.1 -18.35 4.3 -14.8 L5.05 -14.05 7.3 -11.5 Q11.8 -6.65 15.7 -1.35 16.15 -0.8 15.85 -0.15 14.95 1.65 13.45 0.85 L12.65 1.0 Q9.4 1.15 6.1 0.9 4.9 0.85 4.8 -0.35 4.65 -2.2 6.45 -2.45 8.45 -2.65 10.35 -2.45 L5.9 -7.75 4.2 -9.65 0.5 -12.8 Q-0.6 -13.7 -0.45 -14.95 L-0.45 -15.0 Q-0.3 -17.0 1.85 -17.8 3.4 -18.4 4.65 -19.55 L6.95 -21.65 7.55 -22.15 6.55 -21.9 5.8 -21.75 -1.6 -19.75 -4.3 -19.4 -4.35 -18.15 -4.65 -15.8 -5.85 -2.6 -6.25 -0.25 -6.25 -0.2 Q-6.2 0.7 -6.7 1.1 L-7.15 1.4 -8.45 1.5 -13.0 1.95 Q-13.95 2.05 -14.75 1.55 -16.55 0.55 -15.2 -0.95 -14.55 -1.7 -13.65 -1.75 L-9.45 -1.6 -9.25 -5.75 Q-8.4 -12.25 -8.15 -18.9 -8.15 -20.0 -7.65 -20.9 L-7.4 -21.25 Q-7.05 -23.05 -4.85 -23.15 L-1.25 -23.7 3.3 -24.85 Q3.55 -26.2 4.95 -26.9 L4.95 -27.55 0.45 -30.05 Q-3.2 -32.0 -6.7 -34.4 -9.7 -36.45 -12.8 -38.25 -14.45 -39.25 -15.55 -40.85 -16.0 -41.5 -15.55 -42.2 -15.0 -43.05 -14.1 -43.1 -11.7 -42.35 -9.55 -40.8 L-4.15 -36.95 Q0.3 -33.95 4.95 -31.4 L5.2 -34.9 5.65 -36.4 M-23.9 -33.85 Q-24.35 -32.45 -25.95 -32.5 -28.7 -32.55 -31.3 -31.55 -33.0 -30.9 -34.75 -30.4 -33.9 -27.05 -37.45 -26.45 -39.5 -26.1 -40.4 -28.0 -41.7 -30.75 -39.1 -32.25 -36.8 -33.6 -34.15 -34.55 -30.1 -36.0 -25.95 -36.4 -23.05 -36.35 -23.9 -33.85" fill="#666666" fill-rule="evenodd" stroke="none"/>
  </g>
</svg>
