<?xml version="1.0" encoding="UTF-8" standalone="no"?>
<svg xmlns:ffdec="https://www.free-decompiler.com/flash" xmlns:xlink="http://www.w3.org/1999/xlink" ffdec:objectType="shape" height="40.75px" width="56.05px" xmlns="http://www.w3.org/2000/svg">
  <g transform="matrix(1.0, 0.0, 0.0, 1.0, 39.35, 39.15)">
    <path d="M5.75 -33.65 L5.65 -34.25 Q6.0 -35.6 7.3 -35.7 9.3 -35.2 10.45 -33.35 11.2 -32.1 12.15 -31.0 15.0 -27.65 16.25 -23.55 17.75 -20.35 14.25 -19.25 L12.6 -19.3 Q7.95 -17.2 3.5 -14.75 L3.65 -14.45 4.05 -14.0 Q7.5 -10.85 10.6 -7.3 L15.1 -2.6 Q16.8 -0.85 15.25 0.2 15.2 1.35 13.6 1.45 L5.65 1.5 Q4.8 1.45 4.5 0.65 3.9 -1.4 6.0 -1.75 L11.15 -1.6 3.45 -9.3 Q1.45 -11.2 -0.2 -13.4 -1.1 -14.6 -0.75 -15.45 L-0.2 -16.3 4.7 -19.35 -3.6 -19.25 Q-4.25 -17.45 -4.2 -15.35 -4.1 -12.05 -4.5 -8.8 -5.0 -4.9 -6.1 -1.15 L-6.1 -1.05 Q-5.7 0.6 -7.4 0.75 L-14.4 1.05 Q-16.15 0.95 -15.95 -0.7 -15.85 -2.15 -14.4 -2.25 L-8.95 -2.1 -8.85 -5.0 -8.2 -9.0 Q-7.9 -10.4 -7.85 -11.9 L-7.5 -12.75 Q-7.8 -16.8 -7.0 -20.7 L-6.95 -21.1 Q-6.7 -22.4 -5.4 -22.45 L7.6 -23.2 9.5 -23.15 Q5.85 -27.15 1.1 -29.75 L-1.9 -31.55 -8.55 -34.5 -9.95 -34.95 Q-11.9 -35.5 -12.9 -37.0 -13.3 -37.65 -12.85 -38.25 -12.3 -39.1 -11.4 -39.15 -5.0 -37.75 0.6 -34.3 5.05 -31.55 9.3 -28.45 L5.75 -33.65 M-35.5 -29.4 Q-33.25 -30.8 -30.9 -31.85 L-27.75 -33.05 -25.65 -33.65 Q-23.0 -33.45 -23.9 -31.15 -24.2 -30.4 -25.0 -30.1 -29.6 -28.45 -33.85 -26.05 L-34.05 -25.35 -34.55 -24.65 Q-35.55 -21.7 -38.6 -23.05 -39.2 -23.3 -39.3 -23.95 -39.65 -27.3 -36.45 -28.85 L-35.5 -29.4" fill="#666666" fill-rule="evenodd" stroke="none"/>
  </g>
</svg>
