<?xml version="1.0" encoding="UTF-8" standalone="no"?>
<svg xmlns:ffdec="https://www.free-decompiler.com/flash" xmlns:xlink="http://www.w3.org/1999/xlink" ffdec:objectType="shape" height="39.05px" width="60.15px" xmlns="http://www.w3.org/2000/svg">
  <g transform="matrix(1.0, 0.0, 0.0, 1.0, 38.15, 37.55)">
    <path d="M7.05 -35.15 Q9.4 -34.6 11.2 -32.7 L13.35 -30.95 18.8 -27.15 Q20.35 -26.0 21.35 -24.4 23.15 -21.7 20.15 -20.7 17.85 -19.95 17.0 -21.9 16.7 -22.65 16.7 -23.45 L11.5 -27.7 11.85 -27.4 Q14.0 -25.95 15.95 -23.95 L16.5 -23.05 Q17.25 -22.3 16.3 -20.7 L15.6 -19.9 Q10.7 -16.1 5.0 -13.7 L8.2 -10.9 10.95 -7.75 Q12.85 -5.6 14.85 -3.6 L15.55 -2.75 Q17.1 -0.4 14.7 0.6 14.35 1.3 13.15 1.35 L5.75 1.3 Q4.6 1.25 4.45 0.1 4.2 -1.85 6.1 -2.1 L10.9 -1.95 7.85 -5.45 5.55 -8.05 Q3.25 -10.55 0.15 -12.0 -0.75 -12.45 -1.15 -13.3 -2.15 -15.1 -0.1 -15.85 L0.0 -15.85 Q2.55 -17.35 5.4 -18.3 7.65 -19.05 9.55 -20.4 3.4 -20.4 -2.75 -20.55 L-2.95 -19.95 -3.7 -16.9 -3.95 -16.35 Q-5.15 -9.65 -5.15 -2.7 -5.2 -0.8 -6.35 0.6 -7.05 1.45 -7.85 1.15 L-8.5 1.3 -14.8 0.95 Q-15.55 0.75 -15.75 0.0 -16.25 -2.2 -14.1 -2.55 L-9.25 -2.15 Q-8.95 -3.55 -8.9 -5.05 -8.8 -11.85 -7.45 -18.25 L-7.05 -20.4 Q-6.95 -21.1 -6.5 -21.65 -6.6 -23.7 -4.6 -24.0 L-4.35 -23.9 10.05 -24.05 Q5.05 -28.6 -1.5 -30.4 -7.55 -32.1 -13.4 -34.25 -14.0 -34.45 -14.1 -35.15 -14.4 -37.25 -12.4 -37.55 L1.65 -33.35 Q4.25 -32.55 6.55 -31.3 5.75 -32.3 5.4 -33.5 5.25 -34.1 5.7 -34.55 6.3 -35.15 7.05 -35.15 M-22.35 -32.45 Q-19.35 -32.2 -20.55 -29.65 -20.85 -29.05 -21.5 -28.8 -26.35 -27.15 -30.2 -24.0 L-32.55 -22.0 Q-32.6 -18.4 -36.3 -18.95 -38.7 -19.3 -37.95 -21.5 -37.65 -22.4 -36.95 -23.15 -32.7 -27.85 -26.95 -30.55 L-22.35 -32.45" fill="#666666" fill-rule="evenodd" stroke="none"/>
  </g>
</svg>
