<?xml version="1.0" encoding="UTF-8" standalone="no"?>
<svg xmlns:ffdec="https://www.free-decompiler.com/flash" xmlns:xlink="http://www.w3.org/1999/xlink" ffdec:objectType="shape" height="39.0px" width="58.95px" xmlns="http://www.w3.org/2000/svg">
  <g transform="matrix(1.0, 0.0, 0.0, 1.0, 35.55, 37.6)">
    <path d="M3.4 -35.6 Q11.05 -35.35 16.95 -30.4 L20.05 -28.25 Q22.4 -26.8 23.25 -24.35 23.55 -23.6 23.2 -22.85 22.3 -20.85 20.0 -21.9 18.8 -22.45 18.45 -23.7 L18.35 -24.45 Q14.0 -28.0 8.9 -30.65 7.6 -31.35 6.05 -31.55 11.05 -27.85 15.5 -23.6 L16.35 -22.55 Q16.95 -22.3 17.05 -21.5 17.2 -20.5 16.75 -20.0 16.5 -19.25 15.65 -19.15 L15.5 -19.1 Q9.35 -17.35 3.65 -14.45 L14.1 -5.0 Q15.5 -3.65 16.35 -2.05 L16.45 -1.95 Q16.95 -1.4 16.9 -0.85 L16.65 -0.2 15.65 0.65 13.4 1.1 12.65 1.1 Q8.6 1.65 4.6 1.2 4.1 1.15 3.9 0.6 3.0 -1.7 5.65 -2.1 L10.05 -2.5 10.85 -2.55 Q7.0 -6.55 2.65 -10.2 0.55 -11.95 -0.8 -14.25 L-0.95 -15.05 Q-1.0 -15.95 -0.05 -16.5 2.55 -18.1 5.3 -19.4 L1.85 -19.45 1.4 -19.45 -3.7 -19.85 -3.75 -19.7 Q-4.4 -17.25 -4.5 -14.6 L-5.1 0.15 Q-5.1 0.8 -5.7 1.0 -7.1 1.45 -7.7 0.8 L-13.75 1.05 Q-16.05 1.25 -15.75 -1.05 -15.6 -2.25 -14.45 -2.4 L-8.25 -2.75 -8.4 -7.95 Q-8.55 -14.95 -7.25 -21.55 -7.35 -22.75 -6.6 -23.3 L-5.85 -23.65 -5.5 -23.7 2.75 -23.2 10.35 -22.9 Q6.5 -26.7 2.05 -29.85 -1.65 -32.45 -5.95 -33.55 L-8.85 -34.15 Q-10.35 -34.4 -10.2 -35.9 -10.0 -37.45 -8.5 -37.55 -2.8 -37.85 1.85 -34.6 2.2 -35.4 3.4 -35.6 M-33.35 -22.95 Q-28.0 -27.9 -21.3 -30.25 -18.15 -29.8 -19.75 -27.3 L-20.65 -26.55 Q-26.45 -24.3 -30.8 -19.9 -30.15 -16.35 -33.75 -16.4 -35.6 -16.4 -35.55 -18.2 -35.5 -20.95 -33.35 -22.95" fill="#666666" fill-rule="evenodd" stroke="none"/>
  </g>
</svg>
