<?xml version="1.0" encoding="UTF-8" standalone="no"?>
<svg xmlns:ffdec="https://www.free-decompiler.com/flash" xmlns:xlink="http://www.w3.org/1999/xlink" ffdec:objectType="shape" height="38.35px" width="57.7px" xmlns="http://www.w3.org/2000/svg">
  <g transform="matrix(1.0, 0.0, 0.0, 1.0, 34.7, 36.8)">
    <path d="M7.1 -34.5 Q14.35 -33.25 20.35 -28.85 24.15 -26.05 22.55 -21.8 22.2 -20.95 21.2 -21.0 17.75 -21.15 18.55 -24.35 L18.75 -24.95 Q16.95 -27.25 13.95 -28.1 13.15 -28.3 12.55 -28.85 L9.5 -29.85 12.65 -26.85 15.85 -22.75 Q17.35 -22.65 17.35 -21.05 17.35 -20.3 17.0 -19.85 16.35 -18.85 15.65 -18.7 L15.1 -18.4 14.3 -18.1 Q9.8 -15.95 5.0 -14.7 L6.7 -13.25 Q11.2 -9.95 14.1 -5.1 L15.65 -2.4 Q16.4 -1.05 15.05 -0.15 L14.7 0.05 Q14.35 0.8 13.0 1.15 9.85 1.95 6.55 1.15 4.35 0.6 5.05 -1.4 5.45 -2.65 6.65 -2.7 L10.85 -2.5 7.1 -7.4 Q5.6 -9.4 3.35 -10.7 1.15 -11.9 -0.05 -13.7 L-0.55 -14.1 Q-1.2 -15.05 -1.05 -15.8 L-0.8 -16.55 0.5 -17.25 0.65 -17.35 5.8 -19.1 -1.3 -19.1 -3.55 -19.25 -3.9 -17.0 -4.1 -14.3 -4.4 -7.0 Q-4.45 -3.65 -5.1 -0.5 -5.4 0.95 -6.95 0.75 L-8.05 1.2 Q-12.35 2.3 -15.85 0.1 -16.8 -0.5 -16.4 -1.55 -15.95 -2.85 -14.65 -2.95 L-8.65 -2.35 Q-8.05 -5.65 -8.15 -9.1 -8.3 -14.5 -7.8 -19.7 -7.6 -21.55 -6.6 -23.05 -6.15 -23.7 -5.4 -23.75 L-4.3 -23.3 -0.95 -23.5 10.55 -22.95 6.2 -27.15 Q1.4 -31.55 -5.15 -32.2 -7.7 -32.45 -9.8 -33.45 -10.5 -33.75 -10.55 -34.45 -10.8 -36.5 -8.75 -36.8 -1.3 -36.4 5.25 -32.75 5.4 -34.3 7.1 -34.5 M-21.6 -26.7 Q-25.8 -24.65 -29.3 -21.55 L-30.5 -19.9 Q-28.9 -19.3 -28.55 -17.45 -28.15 -15.2 -30.45 -14.7 -34.1 -13.9 -34.6 -17.2 -35.3 -22.0 -31.55 -25.15 -27.25 -28.7 -22.15 -30.65 -19.0 -30.05 -20.7 -27.5 L-21.6 -26.7" fill="#666666" fill-rule="evenodd" stroke="none"/>
  </g>
</svg>
