<?xml version="1.0" encoding="UTF-8" standalone="no"?>
<svg xmlns:ffdec="https://www.free-decompiler.com/flash" xmlns:xlink="http://www.w3.org/1999/xlink" ffdec:objectType="shape" height="37.7px" width="57.4px" xmlns="http://www.w3.org/2000/svg">
  <g transform="matrix(1.0, 0.0, 0.0, 1.0, 33.4, 35.8)">
    <path d="M6.85 -31.4 Q5.95 -33.7 8.45 -34.25 16.0 -33.65 21.55 -28.4 24.15 -25.9 24.0 -22.45 23.95 -20.85 22.3 -20.75 18.95 -20.55 18.8 -23.6 L19.05 -24.75 Q14.35 -29.85 7.3 -31.0 7.0 -31.05 6.85 -31.4 M1.5 -29.65 Q-2.15 -31.85 -6.5 -31.85 -8.3 -31.9 -8.35 -33.6 -8.4 -35.55 -6.5 -35.8 1.25 -35.6 7.15 -30.65 L10.65 -28.0 Q13.7 -26.05 15.95 -23.25 16.5 -22.95 16.6 -22.15 16.8 -20.65 16.05 -20.05 L15.65 -19.3 14.8 -18.55 8.35 -15.85 Q6.3 -15.0 4.25 -14.45 L7.15 -10.75 Q9.75 -7.0 13.25 -4.05 L15.3 -2.25 Q16.45 -1.2 15.45 0.0 L14.6 0.7 Q14.0 1.6 13.0 1.7 L4.0 1.35 3.5 0.95 Q2.55 -1.35 5.15 -1.7 L9.0 -2.05 Q6.45 -4.35 4.8 -7.25 4.0 -8.7 2.75 -9.8 0.1 -12.05 -1.5 -14.8 -1.75 -15.2 -1.5 -15.6 L-1.25 -15.95 Q-1.05 -17.15 0.85 -17.65 L2.9 -18.2 7.85 -19.95 4.8 -19.8 -3.3 -19.55 -3.4 -19.15 Q-3.9 -16.45 -3.95 -13.6 L-4.15 -7.25 -4.5 -0.5 Q-4.55 0.55 -5.6 0.85 -6.9 1.2 -7.45 0.6 L-7.95 0.75 -14.4 0.55 Q-15.4 0.2 -15.45 -0.85 -15.5 -2.75 -13.6 -2.95 L-8.0 -2.7 -8.05 -8.25 -7.8 -13.65 -7.4 -18.85 -7.2 -21.3 -7.2 -21.35 -6.95 -22.25 Q-6.55 -23.1 -5.4 -23.2 L-4.9 -22.95 4.4 -23.4 7.6 -23.75 9.6 -23.7 4.0 -27.55 Q2.6 -28.4 1.5 -29.65 M-22.6 -30.65 Q-19.55 -30.0 -21.2 -27.5 -22.2 -26.05 -23.55 -24.95 -26.4 -22.6 -28.9 -19.7 -28.3 -16.5 -31.1 -15.7 -31.85 -15.5 -32.35 -16.05 -33.65 -17.45 -33.35 -19.55 L-32.8 -20.7 Q-32.2 -22.8 -30.35 -24.0 -27.85 -27.0 -24.75 -29.5 L-23.25 -30.4 -22.6 -30.65" fill="#666666" fill-rule="evenodd" stroke="none"/>
  </g>
</svg>
