<?xml version="1.0" encoding="UTF-8" standalone="no"?>
<svg xmlns:ffdec="https://www.free-decompiler.com/flash" xmlns:xlink="http://www.w3.org/1999/xlink" ffdec:objectType="shape" height="38.6px" width="58.0px" xmlns="http://www.w3.org/2000/svg">
  <g transform="matrix(1.0, 0.0, 0.0, 1.0, 33.95, 37.3)">
    <path d="M6.8 -33.0 Q6.75 -35.05 8.7 -35.25 15.15 -31.7 21.35 -27.65 23.8 -26.05 24.05 -23.35 24.25 -20.75 21.55 -21.1 18.5 -21.55 18.7 -24.6 12.75 -28.15 7.15 -32.25 6.8 -32.5 6.8 -33.0 M4.8 -32.95 L4.8 -32.8 5.2 -32.65 9.05 -30.35 Q13.65 -26.85 17.0 -22.15 17.3 -21.8 17.05 -21.35 L16.7 -20.8 16.65 -20.65 Q16.5 -19.7 15.7 -19.3 14.65 -18.2 13.1 -17.65 L3.9 -14.65 6.35 -12.7 11.9 -7.0 Q14.1 -4.5 15.85 -1.7 L15.95 -1.05 Q15.55 0.75 14.4 0.75 L13.0 1.2 Q9.5 1.4 6.0 1.15 4.8 1.05 4.65 -0.15 4.4 -2.15 6.4 -2.45 L10.25 -2.3 Q7.15 -6.6 3.2 -10.05 1.2 -11.75 -1.0 -13.1 -1.5 -13.05 -1.85 -13.45 L-2.2 -13.9 -2.65 -15.0 Q-2.7 -15.95 -1.55 -16.8 L-0.2 -17.5 6.15 -19.55 3.5 -19.8 -2.4 -20.15 -2.55 -19.6 -2.95 -18.35 Q-5.35 -11.4 -5.3 -3.9 -5.3 -2.2 -6.1 -0.75 -6.5 -0.1 -7.15 -0.05 -7.55 0.45 -8.4 0.55 -11.4 0.85 -14.45 0.65 -16.65 0.5 -16.1 -1.55 -15.75 -2.85 -14.45 -2.95 L-9.6 -2.75 Q-9.45 -6.35 -8.9 -9.85 -8.25 -14.8 -6.65 -19.5 -6.95 -21.4 -6.15 -22.5 -5.9 -23.45 -4.55 -23.9 L-4.2 -24.0 9.05 -23.5 11.05 -23.3 8.55 -25.75 Q6.0 -28.15 2.85 -29.4 1.15 -30.1 -0.5 -30.95 -4.65 -31.2 -8.65 -29.7 -11.25 -28.75 -11.85 -31.15 -12.1 -32.15 -11.15 -32.65 -9.15 -33.65 -6.95 -34.15 L-6.0 -34.35 Q-6.85 -35.0 -6.45 -36.0 -5.95 -37.25 -4.7 -37.3 L-0.15 -35.1 Q2.45 -34.9 4.6 -33.4 L4.8 -32.95 M-21.55 -30.15 Q-18.65 -29.65 -19.95 -27.15 -20.35 -26.45 -21.1 -26.05 -24.4 -24.3 -27.0 -21.5 L-28.75 -19.7 Q-28.25 -17.65 -29.3 -15.9 -29.85 -15.05 -30.8 -14.95 -34.1 -14.55 -33.95 -17.5 -33.75 -20.55 -31.45 -22.8 L-24.7 -28.55 Q-23.2 -29.7 -21.55 -30.15" fill="#666666" fill-rule="evenodd" stroke="none"/>
  </g>
</svg>
