<?xml version="1.0" encoding="UTF-8" standalone="no"?>
<svg xmlns:ffdec="https://www.free-decompiler.com/flash" xmlns:xlink="http://www.w3.org/1999/xlink" ffdec:objectType="shape" height="39.7px" width="59.55px" xmlns="http://www.w3.org/2000/svg">
  <g transform="matrix(1.0, 0.0, 0.0, 1.0, 37.8, 37.85)">
    <path d="M21.75 -25.9 Q22.05 -22.4 18.5 -22.9 16.05 -23.25 16.45 -25.8 L16.65 -26.3 Q12.05 -29.2 7.55 -32.35 5.55 -33.75 6.9 -35.6 7.4 -36.3 8.2 -36.3 9.9 -35.85 11.25 -34.55 L11.85 -34.1 Q17.4 -31.45 21.35 -26.9 L21.75 -25.9 M5.2 -33.6 Q7.15 -32.4 8.55 -30.65 12.3 -27.45 15.55 -23.8 16.35 -22.9 16.15 -22.05 L15.6 -21.15 14.9 -20.35 Q9.5 -17.35 4.4 -13.8 L5.65 -12.4 6.15 -11.9 Q11.25 -7.45 15.5 -2.35 15.8 -2.05 15.6 -1.6 L15.6 -1.5 Q16.05 0.45 13.85 0.9 9.2 1.85 5.15 0.35 4.5 0.1 4.45 -0.6 4.35 -2.7 6.4 -2.95 L9.95 -2.8 1.65 -10.45 Q0.35 -11.55 -0.05 -12.95 -1.0 -14.4 0.3 -15.65 L3.15 -17.9 7.55 -20.65 -3.05 -21.0 -3.2 -19.35 Q-2.9 -13.0 -4.6 -7.0 L-4.8 -6.1 Q-5.3 -3.4 -5.95 -0.75 L-5.95 -0.65 Q-5.75 0.6 -6.55 1.2 L-7.15 1.45 -7.35 1.5 -13.6 1.25 Q-14.95 0.75 -14.6 -0.6 -14.3 -2.05 -12.85 -2.2 L-9.55 -2.05 -7.3 -15.3 Q-7.1 -16.5 -7.15 -17.75 -7.25 -20.05 -6.85 -22.2 L-6.9 -23.0 Q-6.75 -24.6 -5.15 -24.75 L9.25 -24.55 8.2 -25.7 6.9 -27.1 2.55 -30.35 Q-1.45 -33.15 -6.35 -33.35 -9.4 -33.45 -12.05 -34.5 -12.75 -34.75 -12.85 -35.45 -13.15 -37.55 -11.05 -37.85 -4.35 -37.5 1.75 -35.3 3.6 -34.6 5.2 -33.6 M-21.45 -29.0 Q-27.15 -25.75 -32.3 -21.8 -32.15 -18.0 -36.1 -18.65 -37.85 -18.95 -37.8 -20.65 -37.7 -22.9 -35.75 -24.4 -30.05 -28.65 -24.0 -32.35 -23.2 -32.85 -22.4 -32.95 -19.25 -32.7 -20.55 -29.95 -20.85 -29.35 -21.45 -29.0" fill="#666666" fill-rule="evenodd" stroke="none"/>
  </g>
</svg>
