<?xml version="1.0" encoding="UTF-8" standalone="no"?>
<svg xmlns:ffdec="https://www.free-decompiler.com/flash" xmlns:xlink="http://www.w3.org/1999/xlink" ffdec:objectType="shape" height="41.2px" width="60.4px" xmlns="http://www.w3.org/2000/svg">
  <g transform="matrix(1.0, 0.0, 0.0, 1.0, 39.5, 38.9)">
    <path d="M4.85 -32.85 Q4.15 -33.8 4.8 -34.8 5.35 -35.75 6.4 -35.8 11.95 -33.65 16.9 -30.3 18.45 -29.25 19.6 -27.7 21.75 -24.7 20.3 -21.55 20.05 -20.95 19.4 -20.85 16.25 -20.35 15.75 -23.35 15.55 -24.45 15.75 -25.55 14.05 -27.55 11.55 -28.85 L7.25 -31.0 Q5.8 -31.65 4.85 -32.85 M12.45 -25.2 Q13.85 -24.75 13.75 -23.35 14.05 -22.5 13.25 -21.8 L13.15 -21.65 12.3 -20.9 Q10.2 -19.4 8.35 -17.6 L4.3 -13.95 13.0 -5.65 Q14.8 -3.95 15.9 -1.8 L16.05 -0.85 Q15.85 1.05 13.85 1.15 L5.7 1.2 Q3.75 1.1 3.85 -0.75 3.9 -2.25 5.4 -2.35 L10.0 -2.65 Q6.6 -5.55 3.6 -8.85 L1.1 -11.0 Q-0.6 -12.1 -0.5 -14.0 -0.45 -15.4 0.75 -16.35 3.1 -18.2 5.25 -20.3 L-1.2 -19.5 -3.7 -19.15 -3.75 -18.5 -4.1 -16.35 -4.5 -13.35 Q-5.35 -7.5 -5.2 -1.6 -5.15 0.0 -5.9 1.25 -6.4 2.1 -7.35 2.1 L-13.6 2.3 Q-16.4 2.35 -15.9 -0.35 -15.75 -1.4 -14.7 -1.6 L-9.3 -1.9 Q-9.45 -7.4 -8.55 -12.75 -8.05 -15.85 -8.0 -19.0 -8.0 -20.2 -7.55 -21.25 -7.6 -22.15 -6.75 -22.6 -4.45 -23.8 -1.7 -23.5 L-0.55 -23.5 6.7 -24.55 0.0 -30.05 Q-4.7 -33.75 -10.6 -34.7 -11.9 -34.9 -12.8 -35.75 -13.6 -36.5 -13.25 -37.55 -12.8 -38.85 -11.4 -38.9 -5.45 -38.5 -0.45 -35.2 4.45 -32.0 8.9 -28.2 10.1 -27.1 11.5 -26.15 L12.45 -25.2 M-29.5 -25.5 L-31.35 -24.35 Q-32.25 -23.85 -33.15 -23.5 -32.85 -20.95 -35.15 -19.85 -37.85 -18.65 -39.2 -20.85 -39.6 -21.45 -39.5 -22.2 -39.25 -24.5 -37.05 -25.75 L-27.7 -31.2 Q-26.3 -32.05 -24.75 -32.3 -21.75 -32.15 -22.65 -29.5 -23.0 -28.55 -24.0 -28.2 -26.9 -27.2 -29.5 -25.5" fill="#666666" fill-rule="evenodd" stroke="none"/>
  </g>
</svg>
