<?xml version="1.0" encoding="UTF-8" standalone="no"?>
<svg xmlns:ffdec="https://www.free-decompiler.com/flash" xmlns:xlink="http://www.w3.org/1999/xlink" ffdec:objectType="shape" height="44.95px" width="56.45px" xmlns="http://www.w3.org/2000/svg">
  <g transform="matrix(1.0, 0.0, 0.0, 1.0, 39.9, 42.95)">
    <path d="M7.75 -35.75 Q9.8 -35.25 10.85 -33.2 L11.45 -32.15 Q14.85 -27.2 16.3 -21.5 16.85 -19.4 14.85 -18.7 12.05 -17.65 11.05 -19.75 L7.8 -16.65 5.1 -13.95 5.75 -13.25 6.55 -12.35 14.6 -3.65 Q16.5 -2.2 16.55 0.0 16.6 0.85 15.8 1.2 L13.15 1.05 12.95 1.1 Q9.15 1.95 5.35 1.0 4.45 0.75 4.35 -0.15 4.1 -2.15 6.15 -2.3 L10.1 -2.55 Q6.4 -7.05 1.9 -10.9 1.15 -11.55 0.65 -12.35 0.2 -12.7 0.1 -13.45 -0.2 -14.25 0.1 -14.8 0.35 -15.9 1.4 -16.7 4.6 -19.2 7.45 -22.1 L-2.05 -20.05 -4.0 -19.6 -4.1 -18.9 -4.45 -16.25 Q-5.1 -8.9 -6.05 -1.6 L-6.05 -1.45 Q-5.8 -1.15 -5.7 -0.6 -5.5 0.8 -6.45 1.3 -7.05 2.35 -8.75 1.8 L-9.15 1.65 -14.45 2.0 Q-16.95 2.2 -16.85 -0.2 -16.8 -1.6 -15.35 -2.0 L-14.65 -2.2 -9.7 -2.05 -8.55 -14.55 -7.9 -20.35 Q-8.3 -21.65 -7.55 -22.35 L-7.2 -22.6 -6.35 -23.0 3.75 -25.6 7.3 -26.3 -1.35 -32.3 -13.8 -40.1 Q-14.4 -40.5 -14.3 -41.25 -14.0 -42.85 -12.4 -42.95 -9.35 -42.55 -6.85 -40.45 L-5.9 -39.7 6.35 -31.95 6.5 -31.85 Q6.05 -32.45 5.95 -33.05 3.35 -33.35 3.95 -35.8 4.15 -36.8 5.15 -37.0 L5.55 -37.05 Q7.35 -36.75 7.75 -35.75 M-21.45 -31.0 Q-21.85 -30.25 -22.55 -29.9 -28.05 -26.9 -33.75 -24.5 -34.1 -20.85 -37.85 -21.4 -40.25 -21.75 -39.85 -24.1 -39.35 -26.75 -36.55 -27.7 -35.1 -28.2 -33.7 -28.85 L-23.1 -34.0 Q-20.2 -33.5 -21.45 -31.0" fill="#666666" fill-rule="evenodd" stroke="none"/>
  </g>
</svg>
