<?xml version="1.0" encoding="UTF-8" standalone="no"?>
<svg xmlns:ffdec="https://www.free-decompiler.com/flash" xmlns:xlink="http://www.w3.org/1999/xlink" ffdec:objectType="shape" height="47.1px" width="58.6px" xmlns="http://www.w3.org/2000/svg">
  <g transform="matrix(1.0, 0.0, 0.0, 1.0, 41.7, 45.0)">
    <path d="M7.35 -38.6 Q10.25 -38.15 9.3 -35.45 L8.9 -33.8 8.3 -29.5 10.55 -27.55 11.65 -27.2 Q13.85 -26.8 12.95 -24.5 L12.0 -23.3 8.0 -19.95 Q6.1 -18.15 4.65 -16.05 L5.55 -15.2 10.35 -9.8 Q13.8 -5.7 16.75 -1.3 17.05 -0.8 16.7 -0.35 15.75 0.85 14.75 0.85 14.35 1.25 13.6 1.3 L7.1 1.5 Q5.15 1.4 5.35 -0.45 5.5 -2.05 7.1 -2.2 L11.35 -2.05 8.85 -5.25 4.3 -10.4 0.5 -14.45 Q-0.55 -15.4 0.0 -16.4 L0.15 -16.6 Q1.45 -18.95 3.3 -20.95 L0.65 -20.1 -0.65 -19.7 -3.7 -18.95 -3.8 -18.1 -4.05 -15.25 -4.9 -0.45 Q-4.95 0.9 -6.25 1.15 -6.7 1.7 -7.75 1.8 L-13.15 2.1 Q-16.25 2.25 -15.45 -0.65 -15.1 -1.85 -13.85 -1.9 L-8.4 -1.7 Q-8.05 -8.5 -7.95 -15.5 L-8.0 -16.45 Q-8.15 -18.35 -7.7 -19.95 -8.2 -21.8 -5.8 -22.35 -2.4 -23.1 0.95 -24.15 0.15 -25.8 1.3 -27.85 1.7 -28.6 2.35 -28.9 -0.8 -31.5 -3.65 -34.4 -6.6 -37.35 -10.2 -39.3 -13.35 -40.15 -15.05 -42.7 -15.35 -43.15 -15.15 -43.7 -14.6 -44.95 -13.35 -45.0 -6.25 -42.65 -0.9 -37.2 1.7 -34.6 4.55 -32.3 5.1 -35.2 6.2 -37.95 6.4 -38.45 6.95 -38.55 L7.35 -38.6 M-25.15 -36.8 Q-22.15 -36.25 -23.55 -33.65 -24.1 -32.65 -25.25 -32.35 L-32.85 -30.1 -34.45 -29.65 Q-35.6 -25.45 -39.9 -27.1 -42.05 -27.95 -41.6 -30.15 -41.25 -32.05 -39.2 -32.45 L-37.9 -32.75 Q-31.4 -34.6 -25.15 -36.8" fill="#666666" fill-rule="evenodd" stroke="none"/>
  </g>
</svg>
