<?xml version="1.0" encoding="UTF-8" standalone="no"?>
<svg xmlns:ffdec="https://www.free-decompiler.com/flash" xmlns:xlink="http://www.w3.org/1999/xlink" ffdec:objectType="shape" height="50.65px" width="57.25px" xmlns="http://www.w3.org/2000/svg">
  <g transform="matrix(1.0, 0.0, 0.0, 1.0, 40.35, 48.8)">
    <path d="M5.3 -40.55 L6.05 -40.75 Q8.75 -39.9 7.95 -36.95 L7.5 -34.95 6.5 -31.35 8.0 -30.15 10.2 -28.0 Q11.35 -27.45 11.25 -26.2 11.3 -25.7 11.0 -25.25 L10.95 -25.2 Q9.65 -22.35 7.3 -20.25 5.35 -18.45 3.75 -16.3 5.75 -13.75 8.2 -11.6 L9.3 -10.25 Q11.6 -6.35 15.05 -3.6 16.35 -2.55 16.25 -1.5 L16.3 -1.5 16.8 -0.95 Q17.4 1.3 15.05 1.7 13.4 2.0 11.75 1.75 L7.05 1.6 Q5.85 1.7 5.45 0.6 4.6 -1.55 6.95 -2.2 L7.45 -2.35 10.25 -2.5 Q7.25 -5.85 4.55 -9.45 L3.95 -10.1 Q1.05 -12.55 -0.75 -15.8 L-0.75 -16.3 Q0.1 -18.95 2.2 -20.9 L3.85 -22.55 Q0.65 -21.75 -2.4 -20.6 L-4.65 -19.65 -4.7 -18.3 -4.75 -17.75 Q-4.7 -11.75 -5.1 -5.8 L-5.1 -4.5 Q-4.95 -2.9 -5.65 -1.8 L-5.1 -1.1 Q-4.25 0.8 -6.2 1.6 L-7.65 1.8 -13.85 1.35 Q-15.15 1.3 -15.35 0.0 -15.7 -2.1 -13.55 -2.35 L-9.35 -2.25 Q-9.55 -3.0 -9.4 -3.9 -8.8 -7.55 -8.8 -11.25 L-8.6 -19.2 Q-9.05 -19.65 -9.35 -20.4 L-9.3 -21.35 Q-8.65 -22.95 -6.8 -23.25 L-5.65 -23.6 Q-2.75 -24.85 0.3 -25.75 L-0.6 -26.2 Q-1.8 -26.85 -1.8 -28.25 -1.75 -29.45 -1.15 -30.45 -0.6 -31.2 0.4 -31.25 L0.45 -31.25 -1.65 -33.4 -9.8 -41.85 -14.25 -45.7 Q-14.9 -46.25 -14.75 -47.05 -14.45 -48.65 -12.85 -48.8 -10.65 -48.4 -8.95 -46.75 L-0.7 -38.35 2.0 -35.45 3.05 -34.4 4.65 -39.95 Q4.8 -40.4 5.3 -40.55 M4.1 -26.75 L5.25 -26.95 4.65 -27.5 4.1 -26.75 M-24.2 -36.0 Q-24.45 -35.4 -25.05 -35.15 L-34.25 -31.7 Q-35.7 -28.2 -39.45 -29.6 -40.0 -29.8 -40.15 -30.35 -41.15 -34.05 -37.3 -35.0 L-36.8 -35.15 Q-31.35 -37.25 -25.95 -38.9 -23.15 -38.45 -24.2 -36.0" fill="#666666" fill-rule="evenodd" stroke="none"/>
  </g>
</svg>
