<?xml version="1.0" encoding="UTF-8" standalone="no"?>
<svg xmlns:ffdec="https://www.free-decompiler.com/flash" xmlns:xlink="http://www.w3.org/1999/xlink" ffdec:objectType="shape" height="53.75px" width="56.8px" xmlns="http://www.w3.org/2000/svg">
  <g transform="matrix(1.0, 0.0, 0.0, 1.0, 40.5, 52.2)">
    <path d="M8.2 -38.8 L6.2 -33.35 8.65 -29.85 Q10.9 -29.55 10.35 -27.4 L10.15 -26.75 9.35 -25.9 9.3 -25.85 4.8 -15.55 6.3 -13.85 7.0 -12.9 Q10.45 -8.55 14.45 -4.8 16.15 -3.25 16.3 -1.2 16.45 -0.25 15.65 0.2 15.45 1.35 13.8 1.45 L7.0 1.4 Q5.75 1.3 5.6 0.1 5.35 -1.9 7.35 -2.2 L11.3 -2.05 Q6.65 -6.8 2.4 -11.9 1.5 -13.0 1.15 -14.25 L1.1 -14.45 Q0.9 -15.05 1.15 -16.05 L1.9 -18.6 Q2.8 -21.15 4.0 -23.55 L-4.4 -17.8 -5.2 -17.3 -5.3 -16.3 -5.65 -13.5 -6.35 -6.15 -7.05 0.15 Q-7.15 1.15 -8.2 1.2 L-8.5 1.2 -9.25 1.4 Q-12.05 1.8 -14.65 0.8 -15.95 0.25 -15.65 -1.1 -15.3 -2.6 -13.85 -2.7 L-10.55 -2.5 Q-10.3 -8.7 -9.55 -14.75 L-9.45 -17.8 Q-9.5 -18.75 -9.15 -19.35 -8.85 -20.6 -7.3 -21.35 -3.85 -23.0 -0.75 -25.3 1.85 -27.25 4.5 -28.8 L4.05 -29.5 Q2.45 -28.05 -0.05 -28.45 -0.5 -28.5 -0.8 -28.85 -3.55 -32.15 0.15 -34.2 L0.45 -34.35 -2.6 -38.15 -5.1 -40.75 Q-10.1 -45.45 -15.75 -49.45 -16.1 -49.7 -16.1 -50.2 -15.95 -52.05 -14.2 -52.2 -10.55 -50.95 -7.5 -48.3 L-4.2 -45.45 Q0.1 -41.85 3.4 -37.45 L4.85 -41.7 Q5.05 -42.2 5.6 -42.45 L6.4 -42.7 Q9.15 -41.75 8.2 -38.8 M-20.65 -38.05 Q-20.95 -36.85 -22.25 -36.55 L-34.5 -33.6 Q-34.7 -30.45 -38.2 -31.25 -40.9 -31.85 -40.45 -34.65 -40.0 -37.35 -37.1 -37.6 -31.85 -38.05 -26.75 -39.6 L-23.1 -40.65 Q-19.85 -40.85 -20.65 -38.05" fill="#666666" fill-rule="evenodd" stroke="none"/>
  </g>
</svg>
