<?xml version="1.0" encoding="UTF-8" standalone="no"?>
<svg xmlns:ffdec="https://www.free-decompiler.com/flash" xmlns:xlink="http://www.w3.org/1999/xlink" ffdec:objectType="shape" height="61.2px" width="52.9px" xmlns="http://www.w3.org/2000/svg">
  <g transform="matrix(1.0, 0.0, 0.0, 1.0, 37.65, 59.4)">
    <path d="M5.1 -48.65 Q5.6 -49.4 6.4 -49.4 9.45 -48.35 7.8 -45.6 L4.85 -40.6 Q7.3 -36.7 9.15 -32.45 L9.3 -31.85 Q10.25 -30.35 9.45 -29.5 9.25 -28.85 8.75 -28.5 L8.65 -28.35 8.05 -26.9 Q7.05 -23.75 5.45 -20.9 L5.3 -20.15 5.0 -19.55 Q4.9 -17.65 4.15 -16.05 L5.65 -14.3 6.55 -13.05 14.95 -2.5 Q15.2 -2.15 15.05 -1.8 15.55 -1.05 14.9 0.3 14.6 0.95 13.9 1.05 L10.4 1.65 Q7.65 2.0 5.1 1.55 4.5 1.45 4.3 0.95 3.25 -1.55 5.9 -1.95 L9.3 -2.3 10.35 -2.35 1.3 -12.9 1.2 -13.1 Q0.1 -13.8 -0.1 -14.55 -0.4 -15.35 0.0 -16.45 L0.35 -17.05 Q1.25 -21.65 3.2 -25.95 -1.65 -23.0 -5.8 -19.2 L-5.8 -17.6 -5.8 -17.05 Q-5.15 -9.7 -5.1 -2.25 -5.05 -0.85 -5.95 0.15 -6.95 1.3 -8.0 0.55 L-8.9 0.8 -14.9 0.95 Q-17.1 0.8 -16.55 -1.3 -16.2 -2.6 -14.9 -2.7 L-9.35 -2.4 Q-8.95 -9.9 -10.05 -17.15 -10.25 -18.6 -9.8 -19.7 -9.9 -20.4 -9.25 -21.15 L-6.8 -23.55 Q-1.25 -28.15 5.0 -31.45 L4.85 -31.8 2.25 -36.95 -0.35 -34.8 -1.3 -34.6 Q-3.8 -35.05 -3.4 -37.55 -3.0 -40.1 -0.35 -40.25 L-0.1 -40.65 -1.85 -42.95 -4.55 -46.0 Q-9.4 -51.25 -15.7 -54.9 -17.3 -55.8 -17.2 -57.45 -17.15 -59.2 -15.4 -59.4 -9.0 -55.7 -3.45 -50.65 -0.65 -48.1 1.7 -45.05 L2.2 -44.4 5.1 -48.65 M-19.45 -41.8 Q-20.5 -40.55 -22.3 -40.65 L-23.7 -40.5 -36.55 -40.0 -37.2 -40.45 Q-38.65 -43.35 -35.55 -44.4 -32.9 -45.3 -31.25 -43.6 -27.1 -43.8 -23.1 -44.75 -21.05 -45.3 -19.6 -44.05 -18.45 -43.0 -19.45 -41.8" fill="#666666" fill-rule="evenodd" stroke="none"/>
  </g>
</svg>
