<?xml version="1.0" encoding="UTF-8" standalone="no"?>
<svg xmlns:ffdec="https://www.free-decompiler.com/flash" xmlns:xlink="http://www.w3.org/1999/xlink" ffdec:objectType="shape" height="65.1px" width="51.95px" xmlns="http://www.w3.org/2000/svg">
  <g transform="matrix(1.0, 0.0, 0.0, 1.0, 35.55, 63.1)">
    <path d="M6.2 -50.65 L7.25 -50.95 Q9.85 -50.3 8.85 -47.85 L8.25 -46.75 Q6.4 -43.6 3.55 -41.5 L6.9 -34.4 7.05 -34.05 Q8.15 -33.0 7.8 -30.95 L7.3 -28.15 Q6.3 -23.5 4.45 -19.1 L4.2 -18.6 3.6 -16.8 Q7.35 -10.6 12.9 -5.75 L14.5 -4.4 Q16.6 -2.75 16.4 -0.3 16.3 0.55 15.45 0.85 13.0 1.65 10.35 1.45 L8.85 1.65 Q6.35 2.5 4.3 1.15 3.9 0.9 3.85 0.4 3.75 -2.25 6.8 -2.35 L10.15 -2.85 Q4.65 -7.7 0.5 -13.7 -0.25 -14.8 -0.45 -16.0 -0.65 -17.3 -0.25 -18.55 L1.0 -22.0 1.3 -22.6 Q1.7 -24.05 2.4 -25.45 L2.75 -26.0 3.5 -29.35 0.55 -26.85 Q-1.7 -24.8 -3.55 -22.4 L-6.1 -19.25 Q-5.95 -18.5 -6.1 -17.5 L-6.35 -15.2 Q-6.5 -9.45 -5.9 -3.85 -5.8 -2.7 -5.85 -1.55 L-5.5 -0.55 Q-5.45 1.3 -7.35 1.45 -11.6 1.85 -15.75 1.35 -16.4 1.3 -16.65 0.65 -17.4 -1.45 -15.2 -1.95 L-12.75 -2.3 -12.2 -2.35 -9.95 -2.3 Q-10.5 -7.1 -10.4 -12.05 L-10.05 -18.9 -10.05 -19.9 Q-9.9 -21.3 -9.05 -22.35 -5.35 -26.9 -1.1 -30.95 L0.4 -32.3 2.7 -33.85 0.15 -39.5 -0.6 -39.2 Q-3.35 -38.15 -4.5 -40.4 -4.8 -41.0 -4.65 -41.65 -4.2 -43.8 -2.6 -44.2 L-5.9 -50.15 -8.1 -54.5 Q-10.45 -57.7 -13.1 -60.5 -13.4 -60.8 -13.35 -61.25 -13.1 -62.95 -11.4 -63.1 -8.8 -62.6 -7.2 -60.35 -5.35 -57.85 -3.9 -55.2 L1.6 -45.2 Q4.1 -47.2 5.65 -50.15 L6.2 -50.65 M-19.6 -43.75 L-20.9 -43.25 Q-26.85 -42.15 -32.85 -43.0 -34.15 -43.2 -34.95 -44.3 -36.45 -46.3 -34.3 -47.5 L-33.6 -47.75 Q-32.0 -47.95 -30.75 -46.85 L-30.55 -46.7 -19.95 -47.35 Q-19.4 -47.45 -19.05 -47.0 -17.4 -45.05 -19.6 -43.75" fill="#666666" fill-rule="evenodd" stroke="none"/>
  </g>
</svg>
