<?xml version="1.0" encoding="UTF-8" standalone="no"?>
<svg xmlns:ffdec="https://www.free-decompiler.com/flash" xmlns:xlink="http://www.w3.org/1999/xlink" ffdec:objectType="shape" height="72.3px" width="48.55px" xmlns="http://www.w3.org/2000/svg">
  <g transform="matrix(1.0, 0.0, 0.0, 1.0, 32.65, 70.4)">
    <path d="M8.55 -50.65 Q8.3 -50.0 7.85 -49.5 L3.05 -44.45 2.75 -44.15 Q5.45 -39.2 7.45 -33.85 7.85 -32.85 7.65 -32.2 L7.35 -30.9 Q6.95 -29.85 6.85 -28.7 L6.6 -26.75 Q5.8 -22.65 5.45 -18.45 L5.05 -16.05 Q6.55 -15.05 7.6 -13.3 L9.25 -10.45 Q11.05 -7.3 13.65 -4.7 15.1 -3.2 15.8 -1.4 16.1 -0.65 15.5 -0.05 L14.8 0.55 Q14.25 1.35 13.25 1.45 L5.3 1.1 4.8 0.7 Q3.85 -1.6 6.4 -2.0 L9.8 -2.35 10.3 -2.4 Q6.5 -7.0 3.2 -11.95 L1.7 -14.1 1.7 -14.15 Q1.0 -14.75 1.2 -16.15 1.7 -19.5 1.7 -22.9 1.7 -24.2 2.4 -25.2 L3.2 -31.25 Q-0.45 -26.35 -4.3 -21.6 L-5.35 -20.45 -5.15 -18.9 -4.85 -4.1 Q-4.8 -2.25 -5.2 -0.5 -4.85 1.2 -6.95 1.6 -11.8 2.5 -16.15 0.9 -16.7 0.7 -16.75 0.1 -16.9 -1.9 -14.9 -2.2 L-8.75 -1.95 -8.9 -7.75 -9.1 -12.15 -9.35 -17.75 -9.55 -19.25 Q-9.9 -20.4 -9.65 -21.25 L-9.0 -22.65 Q-4.1 -28.2 0.1 -34.2 1.0 -35.45 2.15 -36.3 L-0.3 -41.35 Q-2.6 -40.05 -5.5 -40.5 -6.05 -40.6 -6.25 -41.15 -6.8 -42.85 -6.4 -44.7 -6.15 -45.95 -5.0 -46.6 L-3.6 -47.1 -5.35 -51.3 -8.35 -57.2 -9.85 -59.85 -13.7 -65.35 Q-14.95 -66.95 -15.1 -68.8 -15.15 -69.5 -14.55 -69.95 -14.0 -70.4 -13.35 -70.4 -10.65 -69.25 -9.35 -66.5 -8.8 -65.25 -7.85 -64.2 -6.95 -63.2 -6.65 -61.95 -2.85 -56.5 -0.5 -50.3 L0.6 -47.85 Q2.7 -49.75 4.45 -52.1 5.35 -53.3 6.65 -53.5 9.55 -53.25 8.55 -50.65 M-26.4 -50.65 L-26.45 -50.45 -16.35 -50.25 -15.8 -49.85 Q-14.55 -47.5 -17.25 -46.95 L-28.35 -46.55 Q-30.25 -46.8 -31.75 -47.85 -32.65 -48.45 -32.65 -49.55 -32.7 -52.45 -29.85 -52.95 -26.8 -53.4 -26.4 -50.65" fill="#666666" fill-rule="evenodd" stroke="none"/>
  </g>
</svg>
