<?xml version="1.0" encoding="UTF-8" standalone="no"?>
<svg xmlns:ffdec="https://www.free-decompiler.com/flash" xmlns:xlink="http://www.w3.org/1999/xlink" ffdec:objectType="shape" height="74.4px" width="45.65px" xmlns="http://www.w3.org/2000/svg">
  <g transform="matrix(1.0, 0.0, 0.0, 1.0, 29.7, 72.2)">
    <path d="M0.1 -57.2 L1.6 -52.75 Q3.75 -53.2 5.9 -54.0 9.1 -54.0 8.1 -51.2 7.8 -50.3 6.9 -50.0 4.75 -49.2 2.6 -48.75 4.0 -43.6 4.75 -38.15 4.95 -36.6 4.65 -35.2 L4.4 -33.75 4.15 -32.45 Q3.75 -25.45 4.25 -18.5 L5.95 -16.55 8.4 -12.55 Q12.35 -6.8 15.75 -0.7 16.15 -0.05 15.65 0.6 14.65 1.9 13.6 1.5 L12.75 1.8 Q8.45 3.0 5.1 0.6 4.75 0.3 4.75 -0.2 4.85 -2.0 6.65 -2.2 L10.45 -1.75 9.25 -3.6 1.65 -15.65 Q0.65 -16.0 0.5 -17.15 -0.1 -23.05 0.05 -28.95 -2.3 -25.65 -5.45 -22.85 L-7.55 -20.95 -7.05 -19.2 -6.85 -17.8 Q-5.7 -10.6 -5.15 -3.2 L-5.0 -1.9 -4.6 -1.25 Q-3.9 1.2 -6.6 1.55 L-15.7 1.05 Q-16.45 0.85 -16.65 0.05 -17.05 -2.1 -14.9 -2.45 L-8.95 -2.2 -9.6 -7.8 -9.7 -9.2 Q-10.0 -12.65 -10.65 -16.05 -11.05 -18.05 -11.75 -19.9 -12.5 -21.9 -11.2 -22.75 L-6.2 -28.15 Q-4.5 -29.75 -3.05 -31.65 -1.0 -34.35 0.3 -37.45 L0.65 -38.4 0.55 -38.85 Q-0.2 -43.6 -1.35 -48.3 L-6.45 -48.5 Q-7.9 -48.7 -8.15 -50.1 -8.7 -53.15 -5.65 -53.7 -3.95 -54.0 -2.85 -53.15 L-3.15 -54.05 -3.25 -55.0 -5.35 -60.95 -5.55 -61.95 -7.9 -67.2 Q-8.5 -68.55 -8.65 -70.05 -8.85 -72.0 -6.95 -72.2 -4.6 -71.25 -3.95 -68.6 L-3.25 -66.45 -2.5 -64.5 Q-0.95 -61.9 -0.15 -59.0 L0.05 -57.95 0.1 -57.2 M-24.05 -56.45 L-24.05 -56.25 Q-20.6 -54.1 -16.7 -52.4 -14.65 -51.55 -13.7 -49.8 -13.4 -49.2 -13.85 -48.65 -15.65 -46.6 -17.9 -48.2 -19.95 -49.6 -22.25 -50.65 -25.7 -52.2 -28.65 -54.4 -30.25 -55.65 -29.4 -57.65 -28.9 -58.8 -27.65 -59.2 L-26.95 -59.4 Q-23.95 -59.25 -24.05 -56.45" fill="#666666" fill-rule="evenodd" stroke="none"/>
  </g>
</svg>
