<?xml version="1.0" encoding="UTF-8" standalone="no"?>
<svg xmlns:ffdec="https://www.free-decompiler.com/flash" xmlns:xlink="http://www.w3.org/1999/xlink" ffdec:objectType="shape" height="74.55px" width="42.0px" xmlns="http://www.w3.org/2000/svg">
  <g transform="matrix(1.0, 0.0, 0.0, 1.0, 27.35, 72.7)">
    <path d="M5.65 -53.75 Q6.9 -53.65 7.05 -52.45 7.35 -50.5 5.3 -50.4 L0.8 -50.65 1.3 -44.65 1.35 -44.25 Q2.5 -41.05 2.6 -37.5 L2.65 -37.1 Q3.25 -36.0 3.1 -34.35 L3.2 -32.8 3.65 -28.2 Q5.05 -24.3 5.1 -20.35 6.55 -19.4 7.25 -17.5 L8.45 -15.05 Q10.35 -12.0 11.65 -8.8 L12.05 -8.05 12.15 -7.25 13.55 -4.25 Q13.8 -3.5 14.2 -2.8 14.9 -1.55 14.55 -0.8 L14.3 0.1 Q14.0 0.9 13.2 1.15 8.9 2.4 4.8 1.3 4.35 1.2 4.2 0.75 3.6 -1.65 6.15 -1.95 L9.8 -2.35 Q9.25 -3.5 9.1 -4.8 L8.45 -5.95 8.25 -6.75 Q7.9 -7.05 7.8 -7.5 L7.8 -8.1 2.9 -17.25 Q1.8 -17.5 1.6 -19.0 L0.2 -25.85 -0.55 -30.25 -7.05 -21.85 -7.8 -20.95 Q-7.6 -20.15 -7.65 -19.15 -7.7 -17.3 -7.3 -15.45 L-7.0 -13.6 Q-6.75 -10.8 -6.0 -8.15 L-5.65 -6.9 Q-5.1 -3.7 -4.95 -0.45 L-4.95 0.15 -5.65 0.9 -6.65 1.25 -8.35 1.65 -14.55 1.4 Q-16.55 0.95 -15.85 -0.95 -15.4 -2.1 -14.2 -2.0 L-8.95 -2.35 -10.05 -8.0 -10.2 -8.75 -10.45 -10.5 Q-11.1 -12.85 -11.35 -15.3 L-11.45 -16.5 -11.95 -20.15 -11.95 -21.5 Q-12.05 -22.4 -11.35 -23.25 L-2.4 -34.9 -1.55 -35.85 -1.95 -41.1 Q-2.0 -42.1 -2.35 -43.1 L-2.55 -44.35 -3.25 -51.7 -4.0 -52.0 Q-6.45 -53.0 -7.95 -54.95 -8.55 -55.7 -8.5 -56.75 -8.35 -59.25 -5.65 -59.4 L-4.3 -59.1 Q-4.85 -62.35 -5.7 -65.5 -6.55 -68.6 -6.3 -71.7 L-6.1 -72.05 Q-5.5 -72.7 -4.7 -72.7 -1.9 -72.05 -2.1 -68.85 -2.15 -67.7 -1.85 -66.5 -1.0 -62.95 -0.4 -59.25 L0.3 -54.8 Q2.85 -53.95 5.65 -53.75 M-22.3 -60.9 L-22.35 -60.75 Q-17.55 -56.15 -12.6 -51.9 -10.95 -50.5 -12.65 -49.15 L-15.35 -49.2 Q-21.2 -53.65 -26.15 -58.9 -28.6 -61.45 -26.1 -63.65 L-25.4 -64.0 Q-22.1 -64.15 -22.3 -60.9" fill="#666666" fill-rule="evenodd" stroke="none"/>
  </g>
</svg>
