<?xml version="1.0" encoding="UTF-8" standalone="no"?>
<svg xmlns:ffdec="https://www.free-decompiler.com/flash" xmlns:xlink="http://www.w3.org/1999/xlink" ffdec:objectType="shape" height="74.6px" width="40.1px" xmlns="http://www.w3.org/2000/svg">
  <g transform="matrix(1.0, 0.0, 0.0, 1.0, 25.45, 72.7)">
    <path d="M8.55 -53.5 Q9.55 -53.45 9.85 -52.55 10.55 -50.35 8.15 -49.95 L1.25 -49.55 2.05 -41.0 2.3 -35.65 Q3.05 -34.8 3.25 -33.35 L3.8 -30.8 3.95 -29.5 Q4.95 -26.55 5.15 -23.35 L5.15 -22.2 Q5.9 -20.95 5.8 -19.85 L7.05 -18.1 Q10.15 -11.4 13.75 -5.05 15.1 -2.65 14.45 -0.2 14.25 0.65 13.4 0.7 L13.15 0.7 13.05 0.75 10.65 1.5 Q6.95 2.45 3.6 1.15 2.95 0.9 3.0 0.2 3.25 -2.35 6.2 -2.3 L10.1 -2.6 Q9.75 -4.0 9.05 -5.25 5.6 -11.4 2.6 -17.8 1.85 -18.35 1.9 -19.6 1.1 -21.85 0.95 -24.4 L0.7 -26.55 0.6 -27.3 Q0.1 -28.0 0.1 -28.85 L0.1 -29.8 -0.65 -31.35 -0.7 -31.95 -2.4 -29.15 Q-4.15 -26.15 -6.3 -23.45 -7.05 -22.45 -7.95 -21.6 L-7.75 -20.05 -7.55 -16.4 -7.3 -14.1 Q-7.0 -9.3 -6.05 -4.7 -5.15 -3.15 -4.9 -1.5 L-4.75 -1.05 Q-4.5 0.15 -5.15 0.75 -5.4 1.0 -5.85 1.1 L-7.15 1.2 -15.0 1.15 Q-16.25 1.05 -16.4 -0.15 -16.65 -2.15 -14.65 -2.45 L-9.4 -2.3 -9.45 -2.65 Q-11.1 -7.6 -11.2 -13.0 -11.25 -15.9 -11.95 -18.75 -12.25 -19.95 -12.05 -21.05 -12.55 -21.95 -11.6 -23.2 L-8.65 -27.2 -6.1 -31.05 Q-4.4 -34.3 -1.7 -36.95 L-1.65 -36.95 -2.0 -41.55 -2.6 -50.0 -2.85 -50.05 -4.55 -50.7 Q-6.6 -51.8 -6.6 -53.95 -6.65 -56.2 -4.45 -56.55 L-2.75 -56.55 Q-2.8 -61.9 -3.35 -67.15 -3.5 -68.7 -3.8 -70.25 -4.2 -72.4 -2.05 -72.7 0.35 -71.65 0.5 -68.7 L1.0 -55.8 1.05 -53.6 8.55 -53.5 M-23.1 -66.8 Q-19.65 -66.6 -20.05 -63.2 -20.15 -62.2 -21.0 -61.65 -17.05 -57.75 -12.5 -54.5 -11.9 -54.1 -12.1 -53.4 -12.7 -51.15 -14.95 -52.05 -15.9 -52.4 -16.75 -52.9 -21.65 -55.8 -24.9 -60.4 L-25.45 -62.0 Q-25.55 -64.1 -24.65 -65.75 -24.1 -66.75 -23.1 -66.8" fill="#666666" fill-rule="evenodd" stroke="none"/>
  </g>
</svg>
