<?xml version="1.0" encoding="UTF-8" standalone="no"?>
<svg xmlns:ffdec="https://www.free-decompiler.com/flash" xmlns:xlink="http://www.w3.org/1999/xlink" ffdec:objectType="shape" height="71.65px" width="41.8px" xmlns="http://www.w3.org/2000/svg">
  <g transform="matrix(1.0, 0.0, 0.0, 1.0, 26.75, 70.0)">
    <path d="M9.8 -53.35 Q12.0 -53.25 12.0 -51.25 L11.85 -50.7 Q10.95 -49.35 9.25 -49.45 L0.9 -49.85 0.8 -45.85 Q0.7 -43.15 1.2 -40.65 1.55 -38.8 1.35 -37.0 L1.35 -36.85 Q2.0 -35.95 1.75 -34.45 L1.75 -34.05 Q2.65 -28.95 3.95 -23.95 4.6 -21.5 4.85 -18.95 L5.9 -17.9 7.5 -15.5 Q9.5 -12.15 10.9 -8.5 12.8 -5.55 14.25 -2.3 L14.35 -2.1 14.95 -1.0 Q15.3 0.0 14.6 0.8 14.0 1.45 13.1 1.55 L4.85 1.0 Q2.7 0.55 3.15 -1.55 3.4 -2.6 4.5 -2.8 L4.75 -2.85 Q7.45 -1.9 10.3 -2.0 9.55 -3.15 8.95 -4.35 L7.15 -8.15 7.1 -8.4 Q5.15 -12.95 2.0 -16.75 L1.7 -17.25 1.3 -18.2 1.25 -19.15 Q0.0 -23.85 -0.95 -28.6 L-1.45 -31.35 Q-4.75 -27.45 -7.65 -23.35 L-9.4 -20.9 -9.25 -19.95 -9.0 -18.6 Q-7.65 -13.7 -6.55 -8.6 L-6.55 -8.5 Q-6.0 -6.8 -5.75 -5.0 L-5.7 -4.1 Q-4.15 -1.4 -5.45 1.2 -5.65 1.6 -6.1 1.6 L-14.85 1.2 Q-16.35 1.05 -16.25 -0.5 -16.15 -2.0 -14.6 -2.0 L-8.9 -2.1 Q-9.8 -6.6 -11.0 -11.1 L-11.2 -12.5 -11.2 -13.3 -12.6 -17.8 -13.3 -20.65 Q-13.65 -22.25 -12.4 -22.7 L-10.05 -26.6 -4.8 -33.1 -4.2 -33.85 -2.15 -36.75 Q-2.7 -41.55 -2.65 -46.45 L-2.6 -49.9 Q-4.65 -50.05 -5.95 -51.45 L-6.35 -52.1 -6.35 -52.2 Q-7.05 -55.25 -4.3 -56.15 L-2.5 -55.9 -2.5 -56.85 Q-2.35 -62.1 -3.65 -67.1 -4.25 -69.45 -1.95 -70.0 0.3 -69.2 0.45 -66.6 L0.65 -63.95 1.0 -56.2 0.95 -53.65 9.8 -53.35 M-24.65 -68.05 Q-21.45 -68.25 -21.15 -65.3 -21.1 -64.65 -21.4 -64.1 -21.1 -63.45 -20.2 -62.9 -19.6 -62.6 -19.35 -62.0 -15.65 -59.95 -13.05 -56.7 -12.7 -56.25 -12.95 -55.75 -14.0 -53.55 -16.1 -55.05 L-19.05 -57.4 -19.5 -57.7 Q-23.65 -60.3 -26.45 -64.15 L-26.75 -65.0 Q-27.0 -67.5 -24.65 -68.05" fill="#666666" fill-rule="evenodd" stroke="none"/>
  </g>
</svg>
