<?xml version="1.0" encoding="UTF-8" standalone="no"?>
<svg xmlns:ffdec="https://www.free-decompiler.com/flash" xmlns:xlink="http://www.w3.org/1999/xlink" ffdec:objectType="shape" height="71.2px" width="40.75px" xmlns="http://www.w3.org/2000/svg">
  <g transform="matrix(1.0, 0.0, 0.0, 1.0, 27.05, 69.9)">
    <path d="M11.3 -52.55 L11.9 -52.15 Q13.15 -49.8 10.45 -49.35 6.15 -48.65 2.2 -46.9 L1.95 -46.75 Q1.75 -42.35 1.0 -38.0 1.7 -37.05 1.95 -35.6 3.2 -28.4 4.1 -21.2 L4.2 -18.3 6.15 -16.0 13.35 -3.3 Q13.7 -2.7 13.55 -2.15 14.0 -1.15 12.95 0.3 L11.8 1.0 3.05 0.75 Q2.35 0.6 2.15 -0.05 1.45 -1.95 3.45 -2.55 L5.7 -2.7 9.05 -2.8 9.4 -2.85 6.1 -8.25 5.2 -9.65 Q3.05 -12.65 1.4 -15.85 0.05 -16.4 0.15 -18.4 L0.1 -19.35 Q-0.55 -26.15 -1.75 -32.75 L-8.5 -22.75 Q-9.05 -22.0 -9.75 -21.4 L-9.7 -21.0 -9.6 -19.6 Q-9.0 -14.95 -7.35 -10.6 -5.7 -7.1 -5.0 -3.4 -4.75 -2.1 -4.85 -0.75 -4.7 0.2 -5.35 0.65 -5.75 1.05 -6.5 1.0 L-6.65 1.0 -14.2 1.25 Q-16.1 1.15 -15.95 -0.7 -15.8 -2.3 -14.2 -2.45 L-8.8 -2.3 Q-8.9 -4.2 -9.8 -5.9 -10.9 -7.95 -11.2 -10.2 -12.4 -12.35 -12.7 -14.8 L-12.7 -15.6 -13.9 -19.95 Q-14.2 -21.1 -14.05 -22.3 -13.95 -23.7 -12.75 -24.1 L-4.55 -35.9 -3.05 -37.45 -2.75 -38.4 -2.65 -40.35 -2.1 -46.15 Q-3.25 -46.3 -4.4 -46.8 -4.95 -47.0 -5.05 -47.6 -5.7 -51.0 -2.85 -53.1 L-1.8 -53.5 -1.65 -53.5 -1.6 -55.15 -1.4 -57.3 -0.95 -60.3 Q-0.5 -62.5 -0.45 -64.75 -0.4 -67.65 2.05 -68.35 4.95 -67.3 3.7 -64.25 L3.2 -62.2 Q2.45 -56.75 2.15 -51.25 6.5 -53.1 11.3 -52.55 M-21.15 -66.75 Q-21.15 -65.95 -21.55 -65.2 -17.9 -61.45 -13.25 -59.05 -12.9 -58.85 -12.85 -58.4 -12.55 -55.5 -15.4 -56.25 -16.8 -56.55 -18.0 -57.3 -22.7 -60.1 -26.1 -64.45 -28.1 -67.0 -25.9 -69.4 -25.45 -69.85 -24.9 -69.9 -21.3 -70.05 -21.15 -66.75" fill="#666666" fill-rule="evenodd" stroke="none"/>
  </g>
</svg>
