<?xml version="1.0" encoding="UTF-8" standalone="no"?>
<svg xmlns:ffdec="https://www.free-decompiler.com/flash" xmlns:xlink="http://www.w3.org/1999/xlink" ffdec:objectType="shape" height="72.2px" width="42.4px" xmlns="http://www.w3.org/2000/svg">
  <g transform="matrix(1.0, 0.0, 0.0, 1.0, 26.3, 70.65)">
    <path d="M6.5 -60.35 Q5.25 -56.95 4.35 -53.35 L3.25 -48.45 3.0 -46.75 3.2 -46.9 Q5.0 -47.75 7.05 -47.5 8.0 -47.4 8.8 -47.95 11.35 -49.85 14.1 -50.9 17.2 -50.3 15.5 -47.75 L14.25 -46.45 Q11.25 -44.35 8.0 -42.8 5.8 -41.75 3.45 -41.95 2.8 -42.0 2.4 -42.35 L2.25 -41.15 Q1.95 -38.1 1.25 -35.15 1.85 -34.2 2.05 -32.8 L2.65 -29.1 3.8 -22.2 4.2 -19.7 Q4.45 -18.6 4.3 -17.75 L6.55 -15.2 14.5 -2.85 Q15.3 -1.6 14.2 -0.65 13.5 0.0 12.85 0.05 L12.15 0.3 Q7.25 1.5 2.8 -0.15 2.2 -0.4 2.15 -1.1 2.1 -2.7 3.75 -2.95 L9.45 -3.4 3.9 -11.35 1.3 -14.8 Q0.5 -15.8 0.5 -16.8 0.0 -17.8 0.2 -19.15 L0.15 -19.9 -0.45 -23.7 -0.7 -25.1 -0.9 -27.4 -2.15 -31.7 -3.35 -30.7 Q-7.9 -27.05 -9.7 -21.7 L-9.8 -21.4 Q-9.15 -20.2 -9.4 -18.4 L-9.4 -17.85 -9.4 -15.15 -8.1 -9.95 Q-6.95 -5.35 -5.1 -1.0 -4.5 0.4 -5.95 1.0 L-7.25 1.3 -15.0 1.1 -15.45 0.7 Q-16.35 -2.25 -12.85 -2.35 L-12.15 -2.45 -9.8 -2.35 -10.5 -4.05 Q-12.8 -9.95 -13.45 -16.25 -13.65 -18.65 -13.5 -21.0 -13.85 -21.7 -13.65 -22.5 -12.55 -27.6 -8.6 -31.45 -5.75 -34.2 -2.45 -36.5 -1.4 -43.1 -0.5 -49.8 L0.15 -52.95 1.35 -57.9 Q1.55 -58.85 2.15 -59.65 2.0 -62.65 4.25 -64.15 L4.6 -64.25 Q7.65 -63.55 6.5 -60.35 M-24.2 -70.65 Q-20.55 -70.8 -21.5 -67.6 L-21.55 -67.4 Q-17.1 -64.6 -12.1 -63.2 -11.05 -62.9 -10.65 -61.95 -9.65 -59.7 -12.15 -59.35 -15.05 -58.95 -17.45 -60.55 -18.3 -61.15 -19.3 -61.5 -23.4 -63.1 -25.9 -66.35 L-26.25 -67.2 Q-26.65 -70.0 -24.2 -70.65" fill="#666666" fill-rule="evenodd" stroke="none"/>
  </g>
</svg>
