<?xml version="1.0" encoding="UTF-8" standalone="no"?>
<svg xmlns:ffdec="https://www.free-decompiler.com/flash" xmlns:xlink="http://www.w3.org/1999/xlink" ffdec:objectType="shape" height="72.75px" width="43.6px" xmlns="http://www.w3.org/2000/svg">
  <g transform="matrix(1.0, 0.0, 0.0, 1.0, 26.05, 71.2)">
    <path d="M4.8 -62.4 L5.3 -62.5 Q7.75 -61.75 7.0 -59.1 6.25 -56.65 6.0 -54.1 L5.05 -50.05 4.45 -48.75 Q2.8 -44.15 1.8 -39.3 L0.8 -35.7 1.35 -34.05 1.55 -32.7 Q2.35 -27.6 2.5 -22.45 L2.5 -21.65 Q3.05 -20.5 3.0 -19.4 L3.9 -18.2 4.6 -17.1 10.25 -8.45 12.65 -5.4 Q13.8 -4.1 14.6 -2.6 15.2 -1.55 14.25 -0.75 13.8 -0.4 13.4 -0.3 13.1 0.35 12.35 0.35 L8.5 0.45 8.1 0.45 3.2 0.4 Q1.45 0.3 1.5 -1.4 1.55 -2.7 2.9 -2.85 L7.05 -3.2 7.85 -3.25 9.35 -3.35 Q7.7 -5.4 6.35 -7.6 L4.2 -10.95 1.15 -15.2 0.5 -16.05 Q-0.4 -17.05 -0.45 -18.1 L-0.65 -19.05 -0.7 -19.85 Q-1.25 -21.7 -1.25 -23.7 L-1.25 -24.4 Q-1.3 -27.9 -1.95 -31.3 L-3.35 -29.5 -10.35 -22.1 -10.75 -21.75 Q-11.1 -20.95 -11.6 -20.5 L-11.3 -19.45 -10.85 -18.15 Q-9.55 -15.75 -9.2 -13.15 -8.85 -10.7 -7.95 -8.3 L-7.1 -6.0 Q-6.35 -3.9 -5.9 -1.75 L-5.25 -1.0 Q-4.45 1.05 -6.75 1.5 L-7.4 1.55 -14.85 1.25 Q-16.0 1.15 -16.2 0.0 -16.5 -1.85 -14.6 -2.15 L-9.75 -2.05 -10.25 -3.3 Q-11.5 -6.85 -12.3 -10.55 L-12.6 -12.95 -14.3 -16.55 -14.4 -17.05 Q-15.8 -19.1 -14.8 -21.2 -15.05 -22.8 -13.85 -23.95 -10.1 -27.55 -6.65 -31.55 -4.7 -33.75 -3.05 -36.15 L-3.0 -36.25 -1.55 -40.9 Q-0.6 -45.75 1.2 -50.3 2.15 -52.75 2.5 -55.3 L2.85 -57.4 3.0 -58.5 Q3.2 -60.4 4.2 -62.0 4.4 -62.35 4.8 -62.4 M17.2 -46.2 L16.6 -45.3 Q14.2 -42.8 11.45 -40.65 10.3 -39.8 8.85 -40.05 6.85 -40.4 6.5 -42.4 6.1 -44.55 7.6 -45.8 8.0 -46.15 8.55 -46.2 10.1 -46.4 11.4 -45.65 12.55 -46.5 13.6 -47.7 L15.2 -49.0 15.85 -49.25 Q18.3 -48.55 17.2 -46.2 M-24.3 -71.2 Q-21.45 -71.25 -21.2 -68.65 L-21.3 -68.0 Q-18.8 -65.6 -15.35 -64.65 -12.8 -63.9 -11.15 -62.0 -10.85 -61.65 -10.95 -61.15 -11.6 -58.95 -13.75 -59.95 L-17.8 -61.7 Q-20.25 -62.55 -22.4 -64.05 -24.25 -65.3 -25.5 -67.15 -26.6 -68.85 -25.55 -70.5 -25.1 -71.2 -24.3 -71.2" fill="#666666" fill-rule="evenodd" stroke="none"/>
  </g>
</svg>
