<?xml version="1.0" encoding="UTF-8" standalone="no"?>
<svg xmlns:ffdec="https://www.free-decompiler.com/flash" xmlns:xlink="http://www.w3.org/1999/xlink" ffdec:objectType="shape" height="71.9px" width="45.8px" xmlns="http://www.w3.org/2000/svg">
  <g transform="matrix(1.0, 0.0, 0.0, 1.0, 24.05, 70.65)">
    <path d="M8.45 -62.2 Q11.25 -61.2 10.15 -58.15 8.4 -53.35 6.8 -48.55 4.5 -42.45 1.6 -36.45 L1.35 -36.05 1.35 -35.75 Q2.05 -34.7 1.9 -33.0 L2.0 -32.05 Q2.9 -28.45 3.15 -24.75 L3.7 -17.25 Q4.65 -16.5 5.25 -15.25 L5.65 -14.75 Q10.95 -9.7 14.55 -3.55 L14.6 -2.9 14.25 -2.05 Q14.55 -1.25 13.7 -0.05 13.35 0.5 12.7 0.65 L4.5 1.1 3.8 1.15 Q0.75 1.45 1.15 -1.3 1.35 -2.4 2.45 -2.55 L10.3 -3.2 Q5.9 -8.85 1.05 -14.15 L0.4 -15.1 Q-0.15 -15.6 -0.15 -16.6 -0.2 -23.75 -1.85 -30.5 -6.7 -26.25 -10.5 -21.1 L-11.0 -20.45 -10.65 -19.7 -9.15 -16.15 Q-6.8 -11.1 -6.1 -5.6 L-5.9 -4.85 Q-4.8 -2.35 -6.0 -0.1 -6.3 0.55 -7.0 0.5 -7.35 0.95 -8.2 1.05 L-14.2 1.2 Q-16.4 1.05 -15.85 -1.05 -15.5 -2.35 -14.2 -2.45 L-9.6 -2.25 -9.6 -2.45 -9.7 -3.6 Q-10.4 -5.6 -10.7 -7.8 -10.95 -9.8 -11.7 -11.65 -12.15 -12.15 -12.25 -12.85 L-12.25 -13.6 Q-14.05 -16.5 -15.0 -19.65 L-15.05 -19.7 Q-16.15 -21.8 -14.25 -23.55 -10.6 -27.0 -7.6 -30.9 L-7.15 -31.45 -3.5 -34.55 -3.0 -36.1 Q-2.5 -36.95 -2.15 -37.9 L-1.75 -38.5 1.9 -46.9 2.15 -47.35 2.45 -48.3 2.95 -49.05 3.0 -50.0 3.4 -50.8 Q3.85 -52.75 4.65 -54.6 L5.0 -55.2 Q4.95 -55.9 5.2 -56.55 L5.7 -57.35 5.75 -58.5 Q5.85 -58.95 6.2 -59.25 6.3 -61.35 8.1 -62.1 L8.45 -62.2 M12.5 -39.75 Q10.85 -40.45 10.95 -42.25 11.1 -44.25 12.95 -44.7 L15.9 -45.15 Q17.4 -47.7 19.75 -48.85 22.9 -48.2 21.15 -45.55 19.4 -42.95 17.3 -40.65 15.4 -38.5 12.5 -39.75 M-21.9 -70.65 Q-18.65 -70.85 -18.45 -67.8 L-18.5 -67.6 Q-15.6 -65.4 -12.3 -63.5 L-9.1 -61.65 Q-7.8 -60.9 -8.5 -59.6 -9.4 -57.8 -11.35 -58.7 -15.0 -60.35 -18.45 -62.25 -21.8 -64.1 -23.85 -67.25 L-24.05 -68.3 Q-23.95 -70.35 -21.9 -70.65" fill="#666666" fill-rule="evenodd" stroke="none"/>
  </g>
</svg>
