<?xml version="1.0" encoding="UTF-8" standalone="no"?>
<svg xmlns:ffdec="https://www.free-decompiler.com/flash" xmlns:xlink="http://www.w3.org/1999/xlink" ffdec:objectType="shape" height="73.45px" width="52.35px" xmlns="http://www.w3.org/2000/svg">
  <g transform="matrix(1.0, 0.0, 0.0, 1.0, 21.55, 72.3)">
    <path d="M10.9 -55.4 L6.3 -46.25 3.05 -39.4 0.4 -33.25 Q1.25 -32.35 1.05 -30.75 L1.0 -28.1 Q1.2 -22.9 2.45 -17.95 L2.5 -17.7 4.5 -15.85 Q7.7 -11.85 10.45 -7.45 L12.45 -4.75 Q13.45 -3.65 13.9 -2.25 14.05 -1.8 13.85 -1.4 13.9 -0.9 13.45 -0.25 12.95 0.45 12.1 0.45 L2.35 0.1 Q1.65 0.05 1.4 -0.55 0.45 -2.85 2.8 -3.4 L8.75 -3.35 8.25 -4.0 3.1 -11.4 0.3 -14.6 Q-0.45 -15.25 -0.6 -15.95 -1.3 -17.2 -1.5 -18.55 L-1.7 -19.9 Q-2.4 -24.1 -2.6 -28.4 L-10.25 -22.0 -12.85 -19.4 -13.25 -19.1 -13.35 -18.85 -12.95 -18.05 Q-12.0 -15.75 -11.35 -13.45 L-7.95 -6.8 Q-7.0 -5.15 -6.55 -3.35 -4.75 -1.6 -5.65 0.45 -5.85 1.0 -6.45 1.05 L-8.2 0.8 -11.95 1.05 Q-13.65 1.4 -15.05 0.5 -16.65 -0.55 -15.45 -2.0 -14.7 -2.9 -13.5 -2.75 -12.6 -2.6 -11.65 -2.75 L-11.15 -2.85 -10.3 -2.9 -12.45 -7.45 Q-14.5 -10.55 -15.6 -14.1 L-16.4 -15.8 Q-17.0 -16.65 -17.1 -17.55 L-17.55 -18.25 Q-18.1 -20.25 -16.25 -21.4 L-15.75 -21.8 -12.3 -25.15 -11.6 -25.8 Q-7.75 -29.05 -3.8 -32.1 L-3.35 -33.65 Q-2.35 -37.35 -0.5 -40.75 L0.65 -43.1 Q2.7 -47.85 5.15 -52.4 L8.45 -57.95 9.1 -58.35 9.55 -58.45 Q12.1 -57.75 10.9 -55.4 M27.1 -45.45 L28.1 -45.85 Q30.95 -45.6 30.8 -42.85 30.75 -42.1 30.25 -41.5 28.6 -39.5 25.85 -40.15 22.75 -40.85 19.85 -41.95 19.25 -42.2 19.15 -42.8 18.7 -44.9 21.0 -44.95 L22.45 -44.75 26.3 -43.9 Q26.25 -44.9 27.1 -45.45 M-21.45 -70.85 Q-21.1 -72.2 -19.75 -72.3 -15.95 -71.65 -12.6 -69.65 L-7.55 -66.85 Q-5.6 -65.9 -4.25 -64.2 -3.65 -63.45 -4.2 -62.65 -5.45 -60.9 -7.25 -62.15 -9.95 -64.05 -12.95 -65.45 -13.85 -65.9 -14.65 -66.45 -15.7 -66.9 -16.75 -67.5 -18.85 -65.75 -20.8 -68.05 -21.8 -69.25 -21.45 -70.85" fill="#666666" fill-rule="evenodd" stroke="none"/>
  </g>
</svg>
