<?xml version="1.0" encoding="UTF-8" standalone="no"?>
<svg xmlns:ffdec="https://www.free-decompiler.com/flash" xmlns:xlink="http://www.w3.org/1999/xlink" ffdec:objectType="shape" height="73.8px" width="54.05px" xmlns="http://www.w3.org/2000/svg">
  <g transform="matrix(1.0, 0.0, 0.0, 1.0, 18.35, 71.95)">
    <path d="M15.8 -54.35 L14.2 -51.8 Q14.15 -50.9 13.45 -50.3 L12.95 -49.7 Q10.35 -45.05 7.3 -40.55 6.45 -39.25 5.9 -37.85 4.5 -34.3 2.2 -31.3 L1.05 -29.75 1.3 -28.4 1.3 -27.65 1.6 -25.5 Q3.3 -21.4 2.9 -17.05 L4.7 -15.1 8.2 -10.55 Q11.75 -6.4 14.05 -1.65 14.2 -1.35 13.95 -1.0 12.6 0.65 11.25 -0.2 L11.15 -0.2 1.7 -0.45 Q1.25 -0.6 1.15 -1.05 0.55 -3.85 3.65 -3.6 L8.3 -3.75 8.0 -4.1 0.4 -14.2 Q-0.65 -14.45 -1.0 -16.15 L-1.15 -18.25 Q-0.95 -21.55 -2.1 -24.6 L-2.8 -27.0 -3.2 -27.3 -11.0 -20.95 -13.25 -19.35 -13.65 -18.9 -12.55 -16.8 -11.65 -15.05 Q-7.7 -8.8 -4.55 -2.25 -4.2 -1.5 -4.6 -0.85 L-5.15 -0.15 Q-5.45 1.35 -7.45 1.7 -10.55 2.2 -13.45 1.2 -16.15 0.25 -14.65 -1.95 -14.15 -2.7 -13.35 -2.7 L-12.3 -2.5 -11.95 -2.3 -9.25 -2.55 -9.9 -3.8 -12.25 -8.45 Q-15.6 -13.3 -17.9 -18.5 -18.5 -18.95 -18.3 -19.65 -17.85 -21.3 -16.3 -22.35 -10.05 -26.6 -4.6 -31.75 -2.7 -33.55 -0.55 -34.55 L2.35 -39.45 Q4.1 -44.15 7.15 -48.15 9.8 -51.65 11.8 -55.55 12.65 -57.25 14.35 -57.6 17.05 -56.8 15.8 -54.35 M2.55 -63.45 Q1.85 -60.4 -1.1 -62.1 L-8.75 -66.3 Q-11.5 -67.75 -14.25 -67.0 L-15.65 -67.15 Q-18.5 -68.7 -16.55 -71.2 -16.0 -71.95 -15.15 -71.95 -11.0 -71.7 -7.1 -69.95 -1.9 -67.6 2.35 -64.05 2.65 -63.8 2.55 -63.45 M33.0 -51.45 Q36.4 -51.3 35.55 -48.0 35.3 -47.05 34.65 -46.25 31.35 -42.2 26.45 -40.05 24.25 -39.1 22.0 -39.5 21.45 -39.6 21.25 -40.1 20.3 -42.55 23.0 -43.25 27.55 -44.4 30.9 -47.75 30.4 -49.75 31.9 -50.95 32.45 -51.4 33.0 -51.45" fill="#666666" fill-rule="evenodd" stroke="none"/>
  </g>
</svg>
