<?xml version="1.0" encoding="UTF-8" standalone="no"?>
<svg xmlns:ffdec="https://www.free-decompiler.com/flash" xmlns:xlink="http://www.w3.org/1999/xlink" ffdec:objectType="shape" height="74.15px" width="54.35px" xmlns="http://www.w3.org/2000/svg">
  <g transform="matrix(1.0, 0.0, 0.0, 1.0, 18.4, 72.8)">
    <path d="M14.75 -51.85 L14.35 -51.1 Q11.7 -46.65 8.45 -42.55 5.25 -38.5 2.85 -33.9 L-0.1 -29.1 Q0.85 -28.25 1.0 -26.6 L1.5 -21.55 1.7 -19.4 Q1.8 -17.65 2.35 -15.95 7.15 -11.65 11.25 -6.7 12.9 -4.7 13.7 -2.3 13.9 -1.8 13.55 -1.35 12.7 -0.15 11.7 -0.5 7.25 -0.2 2.7 -0.3 1.05 -0.35 1.05 -1.95 1.05 -3.55 2.7 -3.65 L7.35 -3.85 7.85 -3.9 8.5 -3.9 Q5.65 -7.65 2.15 -10.85 0.55 -12.3 -0.65 -13.95 L-1.15 -14.95 Q-2.1 -17.8 -2.05 -20.9 L-2.1 -22.0 -2.8 -26.4 -3.45 -26.55 Q-7.65 -24.55 -11.3 -21.6 L-13.95 -19.2 -13.45 -18.45 -12.95 -17.7 Q-9.95 -13.45 -7.75 -8.75 L-5.3 -4.2 -4.1 -2.1 Q-3.6 -1.15 -4.0 -0.5 -4.05 0.6 -5.4 0.75 L-10.7 1.15 -11.4 1.25 -15.05 0.9 Q-16.25 0.45 -16.05 -0.8 -15.8 -2.2 -14.35 -2.2 L-11.15 -2.5 -8.6 -2.4 -9.0 -3.05 -9.9 -4.65 -10.35 -5.5 -10.5 -6.2 -12.1 -8.8 -12.45 -9.9 Q-14.55 -14.3 -17.9 -17.75 -18.25 -18.1 -18.25 -18.6 -18.65 -19.5 -17.85 -20.5 L-15.35 -23.0 Q-11.3 -26.3 -6.9 -29.05 -5.25 -30.1 -3.4 -30.65 L1.4 -38.8 3.45 -42.05 9.3 -50.4 11.6 -53.75 Q12.1 -54.5 13.0 -54.55 15.7 -54.25 14.75 -51.85 M0.85 -62.0 L-1.65 -61.9 -8.1 -65.5 Q-10.1 -66.6 -12.05 -67.8 -15.35 -67.0 -16.3 -70.05 -16.65 -71.1 -15.9 -71.95 -15.2 -72.75 -14.25 -72.8 -10.45 -71.6 -7.15 -69.35 -4.25 -67.4 -1.0 -66.05 0.7 -65.35 1.35 -63.8 1.85 -62.7 0.85 -62.0 M33.35 -52.05 Q36.5 -51.65 35.85 -48.55 35.7 -47.6 35.0 -46.9 32.8 -44.65 30.1 -43.05 28.9 -42.4 27.8 -41.55 25.75 -40.0 23.4 -39.2 L22.95 -39.2 Q21.05 -40.1 22.05 -42.0 L22.9 -42.95 31.2 -48.3 Q30.2 -51.0 32.9 -51.9 L33.35 -52.05" fill="#666666" fill-rule="evenodd" stroke="none"/>
  </g>
</svg>
