<?xml version="1.0" encoding="UTF-8" standalone="no"?>
<svg xmlns:ffdec="https://www.free-decompiler.com/flash" xmlns:xlink="http://www.w3.org/1999/xlink" ffdec:objectType="shape" height="73.75px" width="55.75px" xmlns="http://www.w3.org/2000/svg">
  <g transform="matrix(1.0, 0.0, 0.0, 1.0, 18.1, 73.0)">
    <path d="M17.55 -53.35 L16.2 -51.6 Q12.7 -47.4 9.8 -42.7 6.0 -36.45 1.8 -30.45 L0.9 -28.85 Q1.65 -27.7 1.35 -25.85 L1.1 -23.2 Q1.05 -19.15 1.15 -15.25 3.9 -13.65 6.25 -11.25 L8.95 -8.6 Q12.05 -5.65 14.05 -2.1 14.25 -1.7 14.05 -1.25 13.2 0.2 12.15 0.05 L11.2 0.35 2.85 0.15 Q1.8 0.05 1.55 -1.0 1.05 -3.1 3.25 -3.25 L8.15 -3.55 3.3 -8.45 -0.85 -12.25 Q-2.1 -12.45 -2.35 -14.15 -2.85 -17.8 -2.85 -21.6 L-2.7 -25.35 -3.15 -25.05 Q-5.9 -23.15 -8.85 -21.5 -11.0 -20.25 -13.2 -19.25 L-12.7 -18.35 -11.95 -16.95 Q-9.05 -12.25 -6.65 -7.4 L-4.7 -3.35 Q-3.95 -2.75 -4.1 -1.85 L-4.3 -1.2 -4.8 -0.4 -5.55 0.1 -15.0 0.35 -15.45 -0.1 Q-16.4 -3.0 -13.0 -3.1 L-9.05 -3.4 -11.55 -7.9 -13.6 -11.75 -15.35 -14.55 Q-16.75 -16.7 -17.75 -19.0 -18.2 -19.55 -18.1 -20.05 -18.15 -20.6 -17.8 -21.05 -17.3 -21.75 -16.6 -21.9 L-15.85 -22.3 Q-9.2 -25.5 -3.4 -30.0 L-2.9 -30.25 Q-2.3 -32.05 -1.1 -33.65 3.4 -39.5 7.3 -45.85 L8.4 -47.75 Q8.8 -48.6 9.55 -49.25 10.55 -51.65 12.45 -53.6 L15.85 -56.75 16.4 -57.05 Q19.45 -55.95 17.55 -53.35 M0.8 -62.35 Q0.15 -59.55 -2.3 -61.15 L-3.65 -62.3 Q-6.3 -65.4 -9.25 -68.25 -12.25 -67.15 -13.0 -70.2 -13.55 -72.6 -11.3 -73.0 -6.65 -72.55 -3.65 -68.65 L0.65 -63.0 0.8 -62.35 M37.65 -49.9 Q37.7 -48.1 36.25 -46.85 L34.85 -45.3 Q33.0 -42.55 30.25 -40.65 L30.05 -40.3 Q29.55 -39.5 28.65 -39.35 26.6 -36.9 25.0 -39.55 24.65 -40.1 24.95 -40.7 25.75 -42.55 27.5 -43.7 29.9 -45.35 31.6 -47.7 L32.6 -49.25 Q32.3 -50.1 32.65 -50.95 33.15 -52.15 34.35 -52.2 37.6 -52.8 37.65 -49.9" fill="#666666" fill-rule="evenodd" stroke="none"/>
  </g>
</svg>
