<?xml version="1.0" encoding="UTF-8" standalone="no"?>
<svg xmlns:ffdec="https://www.free-decompiler.com/flash" xmlns:xlink="http://www.w3.org/1999/xlink" ffdec:objectType="shape" height="73.3px" width="54.55px" xmlns="http://www.w3.org/2000/svg">
  <g transform="matrix(1.0, 0.0, 0.0, 1.0, 18.05, 72.8)">
    <path d="M16.9 -52.0 L16.15 -50.7 10.5 -42.1 8.4 -39.1 Q5.55 -34.85 2.2 -30.95 L0.35 -28.5 Q0.6 -27.8 0.45 -26.75 L0.4 -25.15 0.6 -20.0 1.05 -15.15 Q2.7 -14.35 4.1 -13.05 L9.95 -7.65 13.55 -3.7 Q14.45 -2.6 13.5 -1.5 12.7 -0.6 11.9 -0.85 L11.75 -0.85 7.25 -0.4 5.15 -0.15 Q3.2 0.25 1.8 -0.9 1.25 -1.35 1.3 -2.1 1.6 -4.25 3.85 -3.95 L6.05 -4.0 6.75 -4.1 8.3 -4.05 7.5 -4.85 Q3.9 -8.5 -0.2 -11.55 L-0.4 -11.75 Q-2.05 -12.4 -2.1 -13.65 -2.85 -16.1 -2.85 -18.7 L-3.05 -24.75 Q-7.0 -22.4 -11.2 -20.4 L-13.8 -19.3 -12.95 -17.6 -11.75 -15.2 -10.15 -11.4 Q-9.1 -8.95 -7.35 -7.0 -5.8 -5.25 -5.15 -3.15 L-4.7 -2.45 Q-4.05 -0.5 -6.0 0.05 L-7.0 0.1 -12.5 0.3 Q-14.3 0.8 -15.85 -0.05 -16.3 -0.3 -16.4 -0.85 -16.75 -2.9 -14.7 -3.1 L-11.9 -3.6 -9.65 -3.55 -12.75 -8.15 -13.4 -9.45 Q-15.25 -14.25 -17.65 -18.8 -18.85 -21.05 -16.55 -21.95 L-16.3 -22.05 -15.0 -22.85 Q-10.25 -25.0 -5.8 -27.65 L-5.1 -28.1 -4.7 -28.35 -4.15 -28.85 -3.5 -29.55 Q-2.15 -31.75 -0.4 -33.65 3.05 -37.5 5.8 -41.85 L6.7 -43.15 Q9.85 -47.2 12.2 -51.8 13.4 -54.05 15.6 -54.9 18.1 -54.2 16.9 -52.0 M1.5 -60.6 Q2.2 -58.85 0.55 -58.0 -0.35 -57.55 -1.15 -58.25 L-2.05 -59.3 Q-5.05 -63.5 -9.0 -66.75 -10.15 -67.7 -11.6 -68.25 L-12.1 -68.75 Q-13.25 -71.2 -11.15 -72.55 L-10.45 -72.8 Q-8.5 -72.25 -7.4 -70.45 L-7.1 -70.1 Q-3.0 -66.85 0.25 -62.75 L1.5 -60.6 M36.5 -50.3 L36.2 -48.1 Q35.95 -46.75 35.15 -45.6 32.9 -42.45 29.95 -39.85 L27.9 -38.05 Q26.85 -37.1 25.75 -38.05 24.85 -38.8 25.25 -39.9 25.65 -41.1 26.6 -41.9 30.1 -44.8 32.5 -48.6 30.5 -50.45 32.3 -52.45 32.9 -53.15 33.7 -53.15 36.75 -53.25 36.5 -50.3" fill="#666666" fill-rule="evenodd" stroke="none"/>
  </g>
</svg>
