<?xml version="1.0" encoding="UTF-8" standalone="no"?>
<svg xmlns:ffdec="https://www.free-decompiler.com/flash" xmlns:xlink="http://www.w3.org/1999/xlink" ffdec:objectType="shape" height="73.4px" width="56.9px" xmlns="http://www.w3.org/2000/svg">
  <g transform="matrix(1.0, 0.0, 0.0, 1.0, 18.4, 72.2)">
    <path d="M14.3 -51.6 L15.05 -51.95 Q18.25 -51.25 16.7 -48.4 13.2 -41.95 8.35 -36.4 4.6 -32.05 0.4 -28.15 0.8 -27.1 0.55 -25.6 L0.4 -23.15 Q0.5 -19.75 0.15 -16.4 L3.05 -14.2 5.2 -12.35 6.7 -10.6 Q9.35 -8.45 11.65 -5.9 L14.2 -3.3 Q14.75 -2.85 14.6 -2.15 14.15 0.15 12.45 -0.35 L11.6 -0.25 11.15 -0.25 Q7.6 -0.15 4.1 -0.35 2.05 -0.45 2.1 -2.45 2.2 -4.1 3.85 -4.25 L7.65 -4.05 Q2.8 -9.35 -2.8 -13.95 -3.25 -14.3 -3.3 -14.95 L-3.3 -15.25 -3.3 -15.4 -3.6 -22.7 -3.6 -23.75 -3.8 -23.7 -5.3 -23.15 Q-9.4 -21.05 -13.55 -19.1 L-12.85 -17.85 -12.25 -16.3 Q-8.8 -10.25 -5.75 -4.05 -4.85 -2.35 -5.45 -0.6 -5.7 0.25 -6.3 0.45 L-7.45 0.75 -12.9 1.2 Q-13.8 1.3 -14.6 0.8 -16.75 -0.5 -14.9 -2.2 -14.2 -2.85 -13.35 -2.95 L-9.8 -2.8 -10.05 -3.4 -13.75 -10.9 -16.3 -15.55 -16.65 -16.5 Q-18.2 -17.75 -18.25 -19.2 -18.65 -20.05 -17.9 -20.85 -17.6 -21.45 -17.0 -21.55 L-15.6 -22.5 Q-10.3 -25.8 -4.45 -27.7 L-4.2 -28.8 -3.45 -29.85 Q1.9 -34.9 6.55 -40.6 9.95 -44.8 12.4 -49.55 13.1 -50.85 14.3 -51.6 M2.1 -59.55 Q1.45 -56.75 -1.05 -58.25 L-1.75 -58.85 -9.4 -67.0 Q-13.45 -68.05 -11.55 -71.45 -11.15 -72.2 -10.35 -72.2 -7.7 -71.9 -5.95 -69.6 -2.4 -65.0 1.7 -60.9 2.25 -60.35 2.1 -59.55 M38.25 -50.75 Q37.5 -48.15 35.9 -45.95 33.2 -42.35 29.65 -39.45 27.35 -37.55 26.2 -40.2 25.9 -40.9 26.4 -41.35 30.65 -45.4 33.7 -50.35 32.05 -53.3 35.25 -54.65 L35.65 -54.75 Q39.3 -54.4 38.25 -50.75" fill="#666666" fill-rule="evenodd" stroke="none"/>
  </g>
</svg>
