<?xml version="1.0" encoding="UTF-8" standalone="no"?>
<svg xmlns:ffdec="https://www.free-decompiler.com/flash" xmlns:xlink="http://www.w3.org/1999/xlink" ffdec:objectType="shape" height="73.2px" width="56.7px" xmlns="http://www.w3.org/2000/svg">
  <g transform="matrix(1.0, 0.0, 0.0, 1.0, 18.5, 72.3)">
    <path d="M19.8 -51.0 L18.6 -49.15 Q14.0 -43.4 9.8 -37.35 L8.75 -36.05 Q4.65 -31.7 0.95 -27.15 0.95 -26.4 0.55 -25.5 L0.4 -24.65 Q0.7 -19.7 -0.2 -14.95 1.35 -14.1 2.65 -12.65 L5.45 -9.85 12.7 -3.55 Q13.25 -3.1 12.95 -2.45 12.35 -1.15 11.45 -0.9 11.1 -0.35 10.35 -0.2 6.55 0.7 2.75 -0.3 1.85 -0.5 1.7 -1.45 1.45 -3.4 3.5 -3.6 L6.25 -3.8 Q1.85 -7.1 -2.0 -10.95 L-3.3 -12.5 Q-4.2 -13.1 -4.05 -14.6 -3.5 -19.55 -3.25 -24.5 L-4.05 -24.3 Q-9.25 -22.75 -13.9 -20.4 L-13.85 -20.15 Q-12.4 -15.25 -9.9 -10.85 -9.05 -9.35 -8.85 -7.65 -7.15 -4.95 -6.25 -2.0 -6.0 -1.2 -6.65 -0.65 L-6.9 -0.45 -7.5 0.1 Q-11.55 1.7 -15.45 0.1 -16.1 -0.15 -16.1 -0.85 -16.15 -2.45 -14.55 -2.7 L-11.1 -3.2 Q-12.45 -5.7 -13.25 -8.35 -15.9 -13.0 -17.5 -18.15 L-17.65 -18.9 Q-19.0 -20.7 -18.15 -21.95 L-17.75 -22.65 Q-14.95 -25.35 -11.1 -26.25 L-7.7 -27.25 -2.85 -28.85 -2.15 -29.8 Q2.8 -35.25 7.25 -40.95 L10.85 -45.95 11.5 -46.8 12.4 -47.6 Q14.3 -49.9 15.8 -52.5 L16.7 -53.55 17.95 -54.0 Q21.1 -53.7 19.8 -51.0 M1.95 -58.75 Q1.8 -57.2 0.25 -57.3 -1.65 -57.35 -2.7 -59.1 -3.65 -60.65 -5.0 -61.95 -8.35 -65.25 -10.95 -69.1 L-11.2 -69.95 Q-11.2 -72.0 -9.25 -72.2 -5.85 -72.85 -5.35 -69.9 -5.25 -69.25 -5.6 -68.75 -3.75 -66.15 -1.3 -63.9 L1.35 -60.95 Q2.1 -59.95 1.95 -58.75 M38.0 -51.3 Q37.2 -48.1 35.4 -45.3 33.6 -42.5 31.1 -40.4 L30.45 -40.1 Q27.8 -39.65 28.0 -42.2 28.1 -43.7 29.5 -44.35 L30.55 -45.25 33.7 -50.55 Q31.95 -52.7 33.85 -54.7 34.35 -55.3 35.05 -55.3 39.0 -55.15 38.0 -51.3" fill="#666666" fill-rule="evenodd" stroke="none"/>
  </g>
</svg>
