<?xml version="1.0" encoding="UTF-8" standalone="no"?>
<svg xmlns:ffdec="https://www.free-decompiler.com/flash" xmlns:xlink="http://www.w3.org/1999/xlink" ffdec:objectType="shape" height="74.6px" width="55.15px" xmlns="http://www.w3.org/2000/svg">
  <g transform="matrix(1.0, 0.0, 0.0, 1.0, 18.55, 73.55)">
    <path d="M18.7 -50.95 Q18.3 -49.95 17.5 -49.25 L16.7 -48.35 11.75 -40.2 10.1 -37.75 8.0 -35.55 Q5.1 -31.3 1.45 -27.5 L1.35 -27.25 0.85 -26.0 Q-0.95 -22.55 -1.65 -18.75 L-2.05 -16.55 -2.55 -14.55 Q4.25 -10.65 10.95 -6.25 L13.15 -4.65 Q14.1 -3.9 14.15 -3.15 L14.4 -2.4 Q14.6 -0.65 12.75 -0.5 7.65 -0.2 2.55 -0.45 1.8 -0.45 1.5 -1.2 0.8 -3.1 2.8 -3.45 L6.45 -3.85 7.15 -3.9 7.5 -3.9 1.1 -8.15 Q-1.55 -9.85 -4.45 -11.2 -6.05 -12.0 -6.3 -13.7 L-6.25 -15.05 -4.95 -20.75 -4.0 -24.2 Q-6.75 -23.1 -9.6 -22.15 -12.4 -21.2 -14.9 -19.6 -13.55 -16.15 -11.75 -12.95 L-8.9 -8.15 -4.45 -1.65 Q-4.15 -1.3 -4.3 -0.8 -4.9 0.75 -6.0 0.6 -6.5 1.05 -7.5 1.05 L-9.1 0.9 -9.55 0.85 -14.95 0.55 Q-16.75 0.45 -16.6 -1.35 -16.45 -2.55 -15.2 -2.8 L-14.95 -2.85 Q-12.35 -3.15 -9.8 -2.85 -12.3 -6.45 -14.45 -10.2 -16.55 -13.75 -18.1 -17.55 -19.2 -20.2 -17.5 -22.3 L-17.0 -22.75 Q-13.3 -24.95 -9.2 -26.35 L-2.55 -28.75 -2.3 -29.15 1.35 -33.25 7.85 -41.15 Q9.95 -43.8 11.45 -46.85 12.9 -49.75 15.05 -52.2 L15.95 -53.05 Q16.45 -53.45 17.05 -53.45 19.5 -53.15 18.7 -50.95 M2.0 -59.5 Q2.35 -57.2 -0.15 -57.35 -1.75 -57.45 -2.65 -58.75 -5.35 -62.6 -8.85 -65.8 -10.3 -67.15 -11.3 -68.9 -12.3 -70.65 -11.5 -72.5 -11.15 -73.25 -10.25 -73.45 L-9.8 -73.55 Q-6.45 -73.7 -6.45 -70.55 -6.45 -69.85 -6.8 -69.25 L-3.35 -65.55 Q-2.05 -64.25 -1.1 -62.65 -0.05 -60.9 1.75 -59.9 L2.0 -59.5 M36.55 -53.05 Q35.95 -47.85 33.5 -43.2 L32.75 -41.8 31.8 -39.7 Q31.4 -37.25 29.05 -38.25 28.5 -38.5 28.45 -39.1 28.1 -41.75 29.7 -44.05 L30.6 -45.55 Q31.9 -48.15 32.5 -51.05 30.7 -53.3 32.45 -55.4 32.6 -55.55 32.9 -55.7 L34.1 -56.0 Q36.9 -55.8 36.55 -53.05" fill="#666666" fill-rule="evenodd" stroke="none"/>
  </g>
</svg>
