<?xml version="1.0" encoding="UTF-8" standalone="no"?>
<svg xmlns:ffdec="https://www.free-decompiler.com/flash" xmlns:xlink="http://www.w3.org/1999/xlink" ffdec:objectType="shape" height="73.45px" width="54.2px" xmlns="http://www.w3.org/2000/svg">
  <g transform="matrix(1.0, 0.0, 0.0, 1.0, 18.45, 72.2)">
    <path d="M16.85 -51.45 L17.7 -51.7 Q20.6 -50.75 19.2 -47.95 L18.85 -47.25 Q15.65 -40.55 10.05 -35.45 L4.9 -30.2 2.45 -27.55 2.35 -27.45 Q2.45 -26.7 2.15 -25.75 L0.65 -20.65 Q-0.4 -17.1 -1.9 -13.75 L-1.5 -13.35 -1.35 -13.2 Q4.25 -10.7 9.3 -7.2 L12.6 -4.75 Q14.05 -3.55 13.5 -2.35 L13.5 -2.3 Q13.65 -1.35 12.8 -0.85 11.6 -0.2 10.15 0.05 L1.45 -0.2 Q1.0 -0.35 0.85 -0.8 0.2 -3.0 2.55 -3.25 L7.35 -3.8 5.0 -5.35 -0.1 -8.1 Q-3.35 -9.6 -5.85 -11.95 -6.15 -12.25 -6.1 -12.7 L-6.1 -12.75 -5.95 -13.75 Q-3.9 -19.05 -2.6 -24.5 L-5.55 -23.6 Q-9.6 -21.75 -13.9 -20.35 L-13.85 -20.2 -13.5 -19.15 Q-10.4 -12.5 -6.8 -6.15 -5.5 -3.9 -5.55 -1.45 -5.55 -0.45 -6.55 -0.15 L-7.15 0.0 -9.95 0.9 -15.5 1.25 -16.1 0.85 Q-17.45 -2.1 -14.0 -2.65 L-10.2 -3.4 -12.55 -8.1 -16.35 -15.65 -16.95 -16.65 -17.15 -17.4 -17.8 -18.35 -17.9 -19.1 Q-18.7 -20.4 -18.35 -21.4 -18.4 -22.35 -17.2 -23.2 -16.35 -23.8 -15.35 -24.1 -8.6 -26.25 -2.25 -29.1 L-1.65 -29.75 2.5 -33.45 Q7.85 -38.65 12.4 -44.5 14.65 -47.35 16.05 -50.65 16.3 -51.2 16.85 -51.45 M2.7 -57.55 Q4.85 -55.05 1.65 -54.15 0.95 -53.95 0.35 -54.45 -3.95 -57.75 -6.9 -62.35 L-9.0 -65.05 Q-10.25 -66.35 -10.6 -68.05 -11.3 -71.3 -8.55 -72.2 -4.9 -72.0 -5.35 -68.35 L-5.55 -67.4 Q-2.2 -62.6 1.8 -58.55 L2.7 -57.55 M35.7 -52.45 Q34.9 -45.1 31.95 -38.3 31.45 -37.2 30.25 -37.25 28.2 -37.35 28.5 -39.35 28.75 -41.05 29.35 -42.65 31.0 -47.15 31.55 -51.9 29.05 -54.3 32.0 -56.0 L32.75 -56.3 Q36.1 -55.9 35.7 -52.45" fill="#666666" fill-rule="evenodd" stroke="none"/>
  </g>
</svg>
