<?xml version="1.0" encoding="UTF-8" standalone="no"?>
<svg xmlns:ffdec="https://www.free-decompiler.com/flash" xmlns:xlink="http://www.w3.org/1999/xlink" ffdec:objectType="shape" height="73.65px" width="54.25px" xmlns="http://www.w3.org/2000/svg">
  <g transform="matrix(1.0, 0.0, 0.0, 1.0, 17.55, 72.7)">
    <path d="M18.75 -50.2 Q16.65 -47.15 14.7 -43.95 L6.8 -31.6 4.9 -28.55 2.75 -25.55 2.55 -24.35 0.7 -17.8 -0.25 -14.65 -0.3 -14.35 0.75 -13.75 Q6.9 -9.9 12.6 -5.4 L13.65 -4.2 Q15.05 -2.05 12.7 -1.1 12.4 -0.15 11.0 -0.1 7.5 0.1 3.95 -0.15 2.75 -0.25 2.6 -1.45 2.35 -3.45 4.35 -3.7 L8.1 -3.6 -0.8 -9.75 -3.45 -11.5 Q-4.7 -12.4 -4.7 -13.2 -4.9 -14.0 -4.5 -15.0 L-2.8 -19.7 -1.75 -23.8 -6.7 -21.95 Q-9.65 -20.6 -12.75 -19.8 L-12.6 -19.3 Q-12.25 -17.85 -11.55 -16.65 L-10.75 -15.2 Q-9.6 -13.05 -8.85 -10.75 -6.35 -6.4 -4.8 -1.65 -4.6 -1.1 -5.1 -0.7 L-6.0 -0.1 Q-7.25 1.05 -9.15 0.95 L-14.2 0.7 Q-16.4 0.5 -15.9 -1.55 -15.55 -2.85 -14.2 -2.8 L-9.45 -3.15 -15.75 -15.8 Q-16.7 -17.6 -17.0 -19.55 L-17.1 -19.7 Q-18.45 -22.2 -15.7 -23.05 -11.8 -24.2 -8.05 -25.85 -4.15 -27.6 -0.05 -28.5 L0.35 -29.25 8.3 -41.5 13.4 -49.5 Q14.7 -52.25 16.85 -54.35 17.25 -54.75 17.7 -54.75 20.9 -53.4 18.75 -50.2 M1.6 -55.25 Q0.25 -53.0 -1.9 -54.75 -4.85 -57.15 -6.95 -60.25 L-10.55 -66.35 -10.75 -66.85 Q-11.5 -69.5 -10.1 -71.6 -9.4 -72.6 -8.3 -72.7 -5.0 -72.3 -5.95 -68.9 -6.15 -68.3 -6.65 -67.9 -3.75 -61.75 1.35 -57.0 2.2 -56.2 1.6 -55.25 M36.5 -52.1 Q35.85 -49.5 34.65 -47.15 33.25 -42.7 30.9 -38.75 L30.4 -38.45 Q27.5 -38.65 28.35 -41.55 L29.3 -44.3 32.35 -52.4 Q31.05 -55.2 33.75 -56.45 L34.1 -56.55 Q37.4 -55.6 36.5 -52.1" fill="#666666" fill-rule="evenodd" stroke="none"/>
  </g>
</svg>
