<?xml version="1.0" encoding="UTF-8" standalone="no"?>
<svg xmlns:ffdec="https://www.free-decompiler.com/flash" xmlns:xlink="http://www.w3.org/1999/xlink" ffdec:objectType="shape" height="74.8px" width="53.85px" xmlns="http://www.w3.org/2000/svg">
  <g transform="matrix(1.0, 0.0, 0.0, 1.0, 16.65, 74.05)">
    <path d="M17.35 -51.15 L16.7 -49.95 11.45 -41.4 7.45 -35.0 5.2 -31.5 2.1 -26.95 Q2.3 -26.25 1.85 -25.15 L1.75 -25.0 Q1.6 -22.65 1.05 -20.35 0.45 -17.65 0.4 -14.75 3.65 -13.05 6.2 -10.25 L7.95 -8.85 Q11.6 -6.65 14.45 -3.65 14.8 -3.35 14.75 -2.85 14.45 -0.4 11.7 -0.75 L11.05 -0.7 3.9 -0.35 Q3.4 -0.45 3.2 -0.9 2.3 -2.95 4.55 -3.5 L6.95 -3.85 8.35 -4.05 Q4.15 -6.75 0.6 -10.25 L0.1 -10.55 Q-2.5 -11.5 -3.05 -13.9 -3.3 -14.9 -3.2 -15.85 -2.9 -19.5 -2.1 -23.05 L-2.05 -23.2 -4.35 -22.25 Q-8.05 -20.7 -11.95 -19.75 L-12.3 -19.65 -12.2 -19.25 Q-11.6 -16.85 -10.55 -14.65 L-8.15 -10.1 Q-5.5 -5.95 -3.9 -1.4 -3.7 -0.95 -4.0 -0.55 -4.85 0.8 -6.6 0.75 L-14.85 0.5 Q-16.0 0.45 -16.25 -0.7 -16.55 -2.35 -14.8 -2.55 L-8.5 -2.95 Q-10.75 -7.5 -13.3 -11.9 L-14.75 -15.05 Q-15.25 -16.95 -16.05 -18.75 L-16.4 -19.6 Q-16.7 -20.4 -16.6 -21.0 -16.6 -21.9 -15.45 -22.5 L-13.8 -23.15 Q-8.8 -24.25 -4.2 -26.45 L-2.05 -27.35 -1.9 -27.75 -1.3 -28.75 4.65 -37.45 7.0 -41.35 9.1 -44.7 Q11.75 -48.55 13.95 -52.65 14.6 -53.85 15.85 -54.0 18.2 -53.4 17.35 -51.15 M0.85 -57.15 Q0.7 -55.05 -1.45 -55.45 -3.05 -55.7 -4.2 -56.85 -7.5 -60.0 -10.0 -63.75 -11.3 -65.7 -12.05 -67.95 -12.6 -69.6 -12.4 -71.3 -12.15 -73.65 -9.8 -74.05 -6.35 -73.55 -7.0 -70.25 L-7.35 -69.5 Q-7.75 -69.0 -8.3 -68.65 -6.05 -64.15 -2.5 -60.65 L0.55 -57.85 0.85 -57.15 M37.2 -52.8 Q37.35 -50.15 35.95 -47.95 L34.75 -45.65 32.7 -41.05 32.35 -39.9 Q31.95 -38.0 30.05 -38.7 28.95 -39.1 28.95 -40.3 29.05 -43.6 31.05 -46.35 L31.85 -47.95 Q32.3 -49.4 33.0 -50.65 31.3 -52.9 32.95 -55.1 33.3 -55.55 33.8 -55.65 L34.3 -55.75 Q37.05 -55.6 37.2 -52.8" fill="#666666" fill-rule="evenodd" stroke="none"/>
  </g>
</svg>
