<?xml version="1.0" encoding="UTF-8" standalone="no"?>
<svg xmlns:ffdec="https://www.free-decompiler.com/flash" xmlns:xlink="http://www.w3.org/1999/xlink" ffdec:objectType="shape" height="74.5px" width="55.35px" xmlns="http://www.w3.org/2000/svg">
  <g transform="matrix(1.0, 0.0, 0.0, 1.0, 16.7, 73.75)">
    <path d="M17.2 -52.8 Q13.8 -46.4 10.0 -40.15 7.6 -36.25 5.0 -32.7 L4.65 -32.15 4.2 -31.55 Q3.4 -29.55 2.25 -27.8 2.5 -26.85 2.1 -25.5 1.6 -23.85 1.55 -22.1 1.45 -18.45 0.95 -14.8 3.2 -13.6 5.2 -11.9 9.65 -8.1 14.5 -4.8 16.8 -3.2 14.75 -1.35 L14.05 -0.95 Q13.8 0.15 12.3 0.35 L4.0 0.05 Q3.65 0.0 3.5 -0.35 2.55 -2.65 5.15 -3.0 L7.6 -3.45 9.6 -3.4 Q5.2 -6.35 1.15 -9.75 L-2.4 -12.55 Q-3.1 -13.0 -2.95 -13.9 L-2.8 -14.5 -1.95 -24.5 -12.05 -19.9 -11.25 -18.0 Q-10.7 -17.0 -10.65 -15.85 -10.05 -15.15 -9.7 -14.3 L-9.65 -13.7 -6.75 -7.3 Q-5.45 -4.8 -5.0 -2.15 -4.65 -0.45 -6.35 -0.1 L-6.7 -0.05 Q-7.15 0.6 -8.3 0.7 L-15.25 0.65 Q-16.5 0.55 -16.65 -0.65 -16.9 -2.7 -14.9 -2.95 L-9.45 -2.75 -11.65 -7.5 Q-12.4 -8.95 -12.8 -10.6 -13.25 -12.35 -14.0 -14.0 L-15.65 -17.45 Q-16.4 -18.9 -16.55 -20.45 -16.75 -22.65 -14.65 -22.95 L-14.4 -22.85 Q-8.3 -26.2 -1.95 -28.7 1.5 -34.85 5.45 -40.7 9.35 -46.5 12.45 -52.7 13.4 -54.65 15.25 -55.65 L15.65 -55.8 Q18.55 -55.3 17.2 -52.8 M38.15 -50.55 L35.35 -45.85 Q33.35 -42.85 30.8 -40.4 L30.25 -40.25 Q27.7 -40.75 28.7 -43.15 29.35 -44.65 30.3 -45.95 L33.45 -50.35 Q33.1 -53.0 35.5 -54.25 L36.15 -54.5 Q39.8 -53.85 38.15 -50.55 M-9.45 -69.15 Q-8.65 -66.7 -6.75 -64.4 L-3.9 -60.7 -3.1 -59.3 Q-1.35 -58.4 -0.65 -56.6 -0.45 -56.05 -0.8 -55.6 -2.55 -53.55 -4.7 -55.6 -7.6 -58.25 -9.7 -61.5 L-13.05 -67.05 Q-14.1 -68.85 -13.8 -71.05 -13.55 -73.35 -11.3 -73.75 -7.6 -73.35 -8.75 -69.95 -8.95 -69.4 -9.45 -69.15" fill="#666666" fill-rule="evenodd" stroke="none"/>
  </g>
</svg>
