<?xml version="1.0" encoding="UTF-8" standalone="no"?>
<svg xmlns:ffdec="https://www.free-decompiler.com/flash" xmlns:xlink="http://www.w3.org/1999/xlink" ffdec:objectType="shape" height="75.25px" width="53.55px" xmlns="http://www.w3.org/2000/svg">
  <g transform="matrix(1.0, 0.0, 0.0, 1.0, 16.4, 74.25)">
    <path d="M34.1 -52.45 Q37.65 -52.5 37.05 -49.2 36.85 -48.05 35.85 -47.25 31.55 -43.85 26.55 -41.9 L25.9 -42.0 Q23.95 -43.25 25.4 -45.0 L27.0 -46.4 31.65 -49.3 Q31.3 -51.05 32.75 -52.0 L34.1 -52.45 M15.35 -55.95 Q13.5 -52.8 12.3 -49.3 11.1 -45.9 9.3 -42.7 7.05 -36.1 3.85 -29.95 L3.5 -29.05 2.55 -27.25 Q2.8 -26.35 2.6 -25.1 L2.45 -22.65 Q2.55 -18.75 2.15 -15.0 L4.9 -12.55 Q7.5 -9.85 10.45 -7.55 13.5 -5.25 15.5 -2.25 15.9 -1.7 15.45 -1.1 14.5 0.4 13.3 0.05 L12.0 0.4 Q8.5 0.6 4.95 0.35 3.7 0.3 3.55 -0.9 3.3 -2.95 5.3 -3.2 L9.3 -3.1 1.1 -10.35 Q-0.5 -11.75 -1.25 -13.6 -1.5 -14.2 -1.25 -14.75 L-1.5 -21.4 -1.4 -24.3 -3.2 -23.6 Q-7.45 -22.3 -11.2 -19.9 L-10.85 -19.0 -10.3 -17.6 -8.85 -13.8 Q-7.4 -10.4 -6.5 -6.85 -6.35 -6.3 -6.35 -5.7 -5.05 -4.05 -4.75 -2.2 -4.3 -1.95 -4.15 -1.35 -3.7 0.5 -5.6 0.65 L-5.9 0.7 -6.3 0.75 Q-10.45 1.1 -14.65 0.95 -16.55 0.9 -16.4 -0.95 -16.25 -2.55 -14.65 -2.7 L-9.35 -2.6 -10.2 -5.65 Q-10.75 -6.5 -10.85 -7.55 L-11.0 -8.55 -13.7 -14.8 -15.95 -20.35 -16.0 -21.0 Q-16.05 -21.7 -15.35 -22.15 -9.2 -26.1 -2.3 -28.5 L-1.3 -29.0 -1.0 -29.65 -0.5 -30.5 1.6 -34.35 Q4.2 -40.7 7.1 -47.0 L9.3 -52.05 Q9.3 -53.5 10.0 -54.7 L10.55 -55.35 Q11.05 -58.15 13.5 -59.5 L13.85 -59.65 Q17.1 -58.9 15.35 -55.95 M-15.35 -71.25 Q-15.3 -73.8 -12.85 -74.25 -9.65 -73.75 -9.85 -70.4 -9.9 -69.35 -10.75 -68.7 -7.2 -63.25 -2.9 -58.35 -1.6 -56.85 -3.25 -55.75 -4.6 -54.85 -5.95 -55.9 -7.5 -57.05 -8.15 -58.75 -10.6 -61.3 -12.55 -64.15 -15.45 -67.15 -15.35 -71.25" fill="#666666" fill-rule="evenodd" stroke="none"/>
  </g>
</svg>
