<?xml version="1.0" encoding="UTF-8" standalone="no"?>
<svg xmlns:ffdec="https://www.free-decompiler.com/flash" xmlns:xlink="http://www.w3.org/1999/xlink" ffdec:objectType="shape" height="74.6px" width="50.8px" xmlns="http://www.w3.org/2000/svg">
  <g transform="matrix(1.0, 0.0, 0.0, 1.0, 15.8, 73.0)">
    <path d="M13.15 -56.9 Q12.55 -54.3 11.0 -52.1 9.95 -50.55 9.75 -48.65 L9.25 -47.45 Q8.2 -43.1 6.8 -38.8 L6.25 -37.9 Q4.6 -33.25 2.25 -28.9 L2.0 -28.4 Q2.7 -27.5 2.45 -25.95 L2.25 -24.1 2.0 -15.85 6.7 -11.1 10.35 -7.25 Q11.85 -5.55 13.5 -4.1 14.35 -3.4 14.8 -2.5 15.95 -0.45 13.95 0.55 L13.5 0.65 4.75 0.5 Q3.55 0.45 3.35 -0.7 3.05 -2.35 4.75 -2.6 L9.3 -2.95 Q6.35 -6.4 3.0 -9.5 L2.7 -10.0 Q1.45 -10.7 0.75 -11.85 -2.05 -13.5 -1.7 -16.65 L-1.5 -19.2 -1.15 -25.45 Q-1.95 -24.95 -2.7 -24.4 -5.8 -22.1 -9.2 -20.3 L-10.5 -19.55 -11.45 -18.85 -8.9 -11.95 -6.9 -6.85 -6.75 -6.05 -6.25 -5.1 -6.2 -4.45 Q-5.25 -3.05 -5.4 -1.55 L-5.45 -1.15 -5.25 -0.35 Q-5.2 1.3 -6.9 1.55 L-8.35 1.6 -14.25 1.25 Q-15.45 1.15 -15.6 0.0 -15.9 -1.85 -14.0 -2.15 L-9.4 -2.2 -9.75 -3.7 -10.55 -5.7 -10.65 -6.35 -12.4 -10.2 -12.6 -11.15 -14.25 -15.4 -14.4 -16.5 Q-15.9 -18.8 -14.65 -21.1 L-14.2 -21.5 -5.7 -27.0 -4.9 -27.55 Q-3.45 -28.6 -1.85 -29.3 L-1.3 -30.55 Q1.3 -35.2 3.1 -40.15 L4.6 -44.1 Q5.7 -48.6 7.3 -52.95 L8.4 -55.35 Q9.55 -57.2 10.05 -59.25 L10.35 -59.65 Q10.85 -60.0 11.4 -60.05 13.75 -59.35 13.15 -56.9 M35.0 -51.1 Q35.2 -48.15 32.4 -46.7 28.95 -44.9 25.35 -43.6 23.8 -43.05 22.5 -43.9 21.9 -44.35 21.9 -45.1 22.05 -47.1 24.2 -47.4 L24.95 -47.55 Q27.15 -48.15 29.2 -49.15 28.2 -51.85 30.65 -53.1 L31.75 -53.45 Q34.8 -53.8 35.0 -51.1 M-10.55 -70.3 Q-10.55 -68.8 -12.0 -68.3 -11.45 -66.2 -10.45 -64.3 L-9.6 -63.0 Q-8.15 -61.9 -7.15 -60.2 -6.4 -58.9 -5.25 -57.95 -3.3 -56.25 -5.35 -54.8 L-6.2 -54.6 Q-7.85 -54.9 -8.75 -56.3 -12.1 -59.75 -14.45 -63.95 -16.55 -67.65 -15.35 -71.6 -14.95 -72.9 -13.65 -73.0 -10.55 -73.2 -10.55 -70.3" fill="#666666" fill-rule="evenodd" stroke="none"/>
  </g>
</svg>
