<?xml version="1.0" encoding="UTF-8" standalone="no"?>
<svg xmlns:ffdec="https://www.free-decompiler.com/flash" xmlns:xlink="http://www.w3.org/1999/xlink" ffdec:objectType="shape" height="75.8px" width="51.5px" xmlns="http://www.w3.org/2000/svg">
  <g transform="matrix(1.0, 0.0, 0.0, 1.0, 16.75, 74.0)">
    <path d="M34.75 -50.4 Q34.5 -47.75 31.65 -46.75 L30.4 -46.3 Q26.7 -45.0 22.85 -45.05 21.8 -45.05 21.6 -46.15 21.1 -48.45 23.7 -48.8 L28.7 -50.0 Q28.6 -51.85 30.15 -53.0 30.8 -53.45 31.55 -53.5 35.05 -53.75 34.75 -50.4 M11.8 -58.3 L11.4 -57.7 Q10.2 -51.15 8.1 -44.8 L6.0 -39.45 Q4.8 -35.85 4.0 -32.1 3.85 -31.45 3.4 -30.95 L2.55 -27.9 Q2.7 -27.4 2.45 -26.8 L2.4 -25.3 Q2.15 -23.6 2.3 -21.9 L2.45 -16.0 Q5.15 -14.35 7.25 -11.8 L15.05 -1.85 Q15.65 -1.05 14.95 -0.25 L14.0 0.55 12.15 1.1 Q7.75 1.75 3.3 1.05 2.75 0.95 2.5 0.4 1.55 -1.85 4.1 -2.2 L8.7 -2.65 9.5 -2.7 Q5.8 -7.25 1.6 -11.35 L-0.05 -13.25 Q-1.15 -13.55 -1.3 -15.05 L-1.8 -22.2 -1.75 -24.1 Q-6.25 -22.1 -10.4 -19.5 L-10.25 -18.8 -10.2 -18.6 -8.7 -14.95 -8.4 -14.0 -7.7 -12.8 -7.6 -12.05 Q-4.9 -6.7 -5.25 -0.7 L-5.2 -0.55 Q-4.95 0.6 -5.55 1.2 -5.8 1.55 -6.3 1.65 L-7.65 1.7 -14.55 1.65 Q-15.8 1.55 -15.95 0.35 -16.2 -1.65 -14.2 -1.9 L-8.85 -1.8 Q-9.15 -4.3 -9.9 -6.7 -10.8 -9.55 -12.0 -12.3 L-14.05 -17.7 Q-15.0 -19.0 -14.7 -20.0 -14.9 -21.15 -13.85 -22.0 L-12.8 -22.75 Q-7.35 -26.2 -1.25 -28.6 L0.2 -33.85 2.1 -40.0 Q4.1 -45.4 5.7 -51.0 L6.25 -51.95 Q6.7 -55.85 7.9 -59.55 8.35 -61.0 9.75 -61.2 12.7 -61.0 11.8 -58.3 M-11.2 -70.2 Q-11.35 -69.45 -12.0 -69.0 L-12.55 -68.6 -12.25 -68.1 Q-11.9 -67.45 -11.95 -66.7 L-11.7 -66.3 -11.4 -65.35 -11.35 -65.15 Q-9.35 -61.2 -6.3 -57.9 -5.9 -57.45 -6.25 -56.9 -7.8 -54.4 -10.1 -56.65 -14.65 -61.05 -16.4 -67.05 -17.25 -70.1 -16.1 -72.75 -15.6 -73.9 -14.45 -74.0 -10.55 -73.9 -11.2 -70.2" fill="#666666" fill-rule="evenodd" stroke="none"/>
  </g>
</svg>
