<?xml version="1.0" encoding="UTF-8" standalone="no"?>
<svg xmlns:ffdec="https://www.free-decompiler.com/flash" xmlns:xlink="http://www.w3.org/1999/xlink" ffdec:objectType="shape" height="76.65px" width="44.85px" xmlns="http://www.w3.org/2000/svg">
  <g transform="matrix(1.0, 0.0, 0.0, 1.0, 18.1, 75.1)">
    <path d="M5.65 -63.55 Q5.8 -64.05 6.3 -64.25 L7.1 -64.5 Q9.85 -63.5 9.0 -60.4 L8.75 -59.15 Q8.15 -54.6 6.6 -50.25 5.1 -46.0 4.35 -41.45 L3.25 -35.25 2.15 -30.25 Q2.6 -29.25 2.4 -27.85 L2.4 -27.3 Q2.45 -21.9 3.25 -16.55 5.55 -14.9 7.05 -12.3 8.1 -10.55 9.5 -9.15 12.9 -5.85 14.5 -1.5 14.8 -0.75 14.2 -0.15 13.15 0.85 12.25 0.5 L10.05 0.8 9.55 0.85 Q6.95 1.55 4.85 0.3 3.75 -0.3 4.05 -1.6 4.4 -3.1 5.9 -3.2 L9.3 -3.1 6.65 -6.3 Q3.7 -9.55 1.35 -13.2 -0.25 -14.35 -0.15 -15.5 L-0.65 -17.2 Q-1.35 -21.1 -1.4 -25.05 L-1.75 -25.25 Q-3.4 -23.55 -5.35 -22.15 L-8.45 -19.6 Q-8.15 -19.0 -8.0 -18.2 L-7.1 -14.45 Q-5.0 -7.55 -5.95 -0.3 -5.85 1.15 -7.35 1.3 L-13.85 1.5 Q-15.8 1.4 -15.65 -0.45 -15.5 -2.05 -13.85 -2.2 L-9.15 -2.0 Q-9.3 -5.85 -9.9 -9.6 -10.6 -11.25 -10.95 -13.05 -11.35 -15.15 -12.0 -17.1 -12.7 -18.3 -12.6 -19.2 -12.85 -19.95 -12.25 -21.0 -11.25 -22.75 -9.55 -23.9 -5.55 -26.65 -2.25 -30.2 L-1.85 -30.45 -0.75 -35.9 2.1 -49.35 3.1 -53.0 Q3.7 -54.8 4.45 -56.5 4.75 -60.1 5.65 -63.55 M18.2 -51.45 Q21.85 -51.35 25.1 -50.15 26.9 -49.5 26.75 -47.65 26.55 -45.7 24.7 -44.85 L20.4 -45.0 Q19.05 -45.75 19.3 -47.25 17.2 -47.35 16.45 -49.2 16.15 -49.85 16.55 -50.45 17.15 -51.4 18.2 -51.45 M-15.65 -75.05 Q-12.25 -75.35 -12.2 -72.15 -12.1 -70.0 -14.05 -68.85 -12.15 -62.75 -9.3 -57.05 -9.15 -56.75 -9.4 -56.45 -11.2 -54.15 -13.0 -56.5 -14.4 -58.3 -15.4 -60.4 -17.45 -64.85 -18.0 -69.75 L-18.0 -72.75 Q-17.85 -74.15 -16.5 -74.8 L-15.65 -75.05" fill="#666666" fill-rule="evenodd" stroke="none"/>
  </g>
</svg>
