<?xml version="1.0" encoding="UTF-8" standalone="no"?>
<svg xmlns:ffdec="https://www.free-decompiler.com/flash" xmlns:xlink="http://www.w3.org/1999/xlink" ffdec:objectType="shape" height="75.7px" width="37.55px" xmlns="http://www.w3.org/2000/svg">
  <g transform="matrix(1.0, 0.0, 0.0, 1.0, 19.35, 74.25)">
    <path d="M5.85 -63.9 L5.8 -63.0 Q6.05 -57.95 5.45 -53.05 L4.4 -46.75 Q3.7 -43.4 3.5 -39.95 3.4 -38.75 2.9 -37.7 3.7 -37.0 3.4 -35.5 L2.85 -34.35 2.45 -31.75 Q2.85 -30.9 2.65 -29.65 L2.65 -28.85 3.05 -18.9 Q7.25 -14.6 10.15 -9.35 11.55 -6.7 13.25 -4.25 15.45 -2.55 14.45 -0.15 14.15 0.55 13.4 0.6 L4.9 0.3 4.5 0.0 Q3.4 -2.25 5.95 -2.9 L8.45 -3.05 9.7 -2.95 Q7.75 -5.6 6.2 -8.55 L2.9 -13.25 -0.35 -17.4 -0.55 -18.0 Q-0.6 -22.55 -0.95 -27.05 L-0.95 -27.1 -1.0 -27.1 -2.25 -25.7 -5.4 -22.65 -8.9 -19.25 Q-8.65 -18.7 -8.65 -17.95 L-8.35 -15.4 -7.3 -10.35 -5.95 -2.8 -5.85 -0.85 Q-5.75 -0.35 -5.95 0.25 -6.25 1.2 -7.2 1.35 L-9.05 1.4 -13.35 0.85 Q-15.15 0.7 -15.1 -1.0 -15.05 -2.55 -13.45 -2.65 L-9.6 -2.5 -11.05 -10.75 -11.55 -13.25 Q-12.15 -15.45 -12.25 -17.75 L-12.9 -18.35 Q-13.45 -18.95 -13.2 -19.7 L-11.9 -21.65 -5.35 -27.6 Q-3.65 -30.0 -1.45 -32.0 L-1.2 -32.2 -0.6 -35.05 -0.65 -35.05 -0.65 -36.6 Q-0.8 -38.55 -0.35 -40.35 L-0.1 -41.65 Q0.55 -46.75 1.6 -51.9 L1.8 -52.3 1.85 -53.75 2.15 -54.6 Q2.4 -59.35 2.0 -64.15 1.9 -65.65 2.8 -66.75 3.25 -67.3 3.95 -67.3 6.25 -66.6 5.85 -63.9 M14.45 -50.95 Q14.8 -52.0 15.9 -52.2 L16.2 -52.2 Q18.25 -51.65 18.2 -49.4 18.2 -47.9 17.85 -46.5 17.65 -45.7 16.9 -45.35 13.4 -43.5 10.7 -46.25 10.05 -46.85 10.1 -47.75 10.3 -50.2 12.85 -50.7 L14.45 -50.95 M-14.35 -70.6 Q-14.45 -69.75 -15.05 -69.15 -14.25 -64.85 -12.45 -60.75 -11.65 -58.95 -11.9 -57.05 -12.0 -56.0 -13.0 -55.8 -14.95 -55.45 -15.4 -57.35 -16.0 -59.9 -17.1 -62.35 L-17.35 -63.1 Q-18.2 -65.7 -18.7 -68.45 -20.0 -71.05 -18.65 -73.55 -18.35 -74.15 -17.7 -74.2 L-17.45 -74.25 Q-14.0 -73.95 -14.35 -70.6" fill="#666666" fill-rule="evenodd" stroke="none"/>
  </g>
</svg>
