<?xml version="1.0" encoding="UTF-8" standalone="no"?>
<svg xmlns:ffdec="https://www.free-decompiler.com/flash" xmlns:xlink="http://www.w3.org/1999/xlink" ffdec:objectType="shape" height="72.55px" width="39.7px" xmlns="http://www.w3.org/2000/svg">
  <g transform="matrix(1.0, 0.0, 0.0, 1.0, 24.6, 70.5)">
    <path d="M7.85 -55.15 L10.1 -54.45 Q11.7 -53.6 10.8 -52.15 10.1 -50.95 8.7 -51.15 L1.3 -52.4 1.35 -51.85 2.3 -45.55 2.8 -41.7 3.25 -36.65 3.4 -34.5 Q4.0 -33.7 3.85 -32.4 3.7 -30.45 4.1 -28.6 L4.4 -26.8 4.45 -25.85 4.45 -25.05 Q5.0 -23.35 5.0 -21.45 L5.05 -19.85 Q5.05 -18.5 5.65 -17.25 6.85 -14.7 8.2 -12.25 10.95 -7.2 14.3 -2.6 15.05 -1.55 15.1 -0.25 15.15 1.15 13.75 1.45 11.7 1.85 9.65 1.5 L6.95 1.4 Q4.65 1.65 4.75 -0.5 4.75 -1.25 5.4 -1.6 6.05 -2.0 6.85 -2.05 L10.0 -2.2 Q6.9 -6.7 4.5 -11.65 L1.75 -17.65 Q1.6 -17.9 1.6 -18.25 L0.55 -27.55 0.5 -28.4 0.25 -31.1 -1.4 -28.7 -2.95 -26.8 -7.5 -21.3 -5.45 -12.65 Q-4.6 -8.8 -4.8 -4.75 L-4.6 -2.65 Q-3.9 -1.0 -4.95 -0.35 -4.75 0.2 -5.1 0.75 -6.45 2.45 -8.8 1.95 L-14.15 1.25 Q-15.3 1.15 -15.5 0.0 -15.8 -1.85 -13.85 -2.15 L-8.2 -2.1 Q-8.5 -3.3 -8.45 -4.55 L-8.35 -8.4 Q-9.55 -12.65 -10.3 -17.05 L-10.45 -17.6 Q-11.2 -19.5 -11.15 -21.6 -11.1 -23.3 -9.9 -24.6 L-7.7 -27.1 -5.4 -29.65 Q-3.6 -31.6 -2.35 -33.9 L-1.1 -36.4 -0.5 -37.25 -1.3 -44.5 -2.15 -50.75 -2.5 -53.1 Q-4.85 -53.6 -6.4 -55.15 -7.05 -55.75 -7.05 -56.65 -6.95 -58.7 -4.95 -58.95 L-3.3 -58.8 -3.45 -59.55 -4.15 -64.6 -4.3 -68.05 Q-4.3 -69.7 -2.7 -69.85 -0.7 -69.3 -0.55 -67.15 L-0.05 -61.95 0.75 -56.3 7.85 -55.15 M-24.25 -65.65 L-24.6 -66.75 Q-24.75 -68.4 -23.85 -69.65 -23.25 -70.45 -22.35 -70.5 -19.35 -70.6 -19.0 -67.65 -18.85 -66.4 -19.8 -65.55 L-14.05 -57.95 -11.55 -54.65 Q-11.3 -54.35 -11.4 -53.95 -11.9 -51.65 -14.05 -52.7 L-14.95 -53.35 Q-18.25 -57.0 -21.15 -61.0 L-24.25 -65.65" fill="#666666" fill-rule="evenodd" stroke="none"/>
  </g>
</svg>
