<?xml version="1.0" encoding="UTF-8" standalone="no"?>
<svg xmlns:ffdec="https://www.free-decompiler.com/flash" xmlns:xlink="http://www.w3.org/1999/xlink" ffdec:objectType="shape" height="71.55px" width="40.9px" xmlns="http://www.w3.org/2000/svg">
  <g transform="matrix(1.0, 0.0, 0.0, 1.0, 24.95, 70.15)">
    <path d="M7.4 -54.1 Q8.5 -53.75 8.4 -52.6 8.2 -50.45 5.9 -50.8 3.5 -51.25 1.35 -52.3 L1.6 -48.8 1.9 -45.15 2.6 -36.75 Q3.4 -36.2 3.3 -35.3 L3.45 -34.05 Q3.5 -31.1 4.25 -28.2 L4.55 -26.55 5.45 -20.0 5.5 -19.35 Q7.0 -18.15 7.9 -16.25 8.8 -14.25 10.05 -12.45 11.35 -10.55 12.15 -8.45 L13.15 -6.95 13.4 -5.95 Q14.15 -5.1 14.5 -4.05 L14.75 -3.1 Q17.15 -0.75 14.7 1.15 L13.75 1.3 13.0 0.95 12.05 1.15 Q8.9 1.55 5.85 1.05 5.3 0.95 5.05 0.4 4.05 -2.05 6.7 -2.45 L10.35 -2.8 9.2 -5.35 2.65 -17.0 Q2.05 -17.1 1.9 -17.75 1.2 -21.35 0.75 -25.0 L-0.15 -30.55 -1.2 -29.4 -8.1 -21.2 -8.05 -20.6 Q-7.8 -17.85 -7.1 -15.2 -6.4 -12.55 -6.05 -9.8 -5.25 -6.7 -4.85 -3.45 L-4.75 -2.5 Q-4.0 -1.0 -4.45 -0.05 -4.65 1.05 -6.25 1.2 L-6.3 1.2 -6.35 1.2 -6.7 1.25 -15.25 0.75 Q-16.0 0.6 -16.2 -0.2 -16.6 -2.35 -14.45 -2.7 L-8.65 -2.4 -8.6 -3.8 Q-9.6 -7.1 -10.2 -10.5 L-11.6 -17.45 -11.7 -18.6 Q-12.7 -20.35 -12.2 -21.65 L-11.95 -22.45 Q-7.5 -28.25 -2.55 -33.75 L-1.25 -35.4 -1.6 -39.95 -1.85 -43.6 -3.15 -54.9 -3.65 -55.2 Q-7.35 -57.4 -9.75 -60.75 L-9.9 -61.25 Q-10.0 -63.6 -7.7 -64.0 -4.8 -63.9 -4.6 -61.25 L-4.55 -61.05 -3.9 -60.5 -5.05 -68.65 Q-5.15 -69.2 -4.7 -69.6 -4.1 -70.15 -3.35 -70.15 -0.9 -69.15 -0.7 -66.15 L-0.3 -63.4 0.75 -57.25 Q3.9 -55.4 7.4 -54.1 M-24.3 -66.85 Q-23.85 -67.8 -22.85 -67.85 -19.5 -67.2 -20.25 -63.8 L-20.3 -63.6 Q-14.55 -58.9 -10.65 -52.75 L-10.6 -52.1 Q-11.4 -49.55 -13.65 -51.15 L-15.05 -52.45 Q-18.5 -56.85 -22.8 -60.45 -26.1 -63.2 -24.3 -66.85" fill="#666666" fill-rule="evenodd" stroke="none"/>
  </g>
</svg>
