<?xml version="1.0" encoding="UTF-8" standalone="no"?>
<svg xmlns:ffdec="https://www.free-decompiler.com/flash" xmlns:xlink="http://www.w3.org/1999/xlink" ffdec:objectType="shape" height="61.1px" width="101.6px" xmlns="http://www.w3.org/2000/svg">
  <g transform="matrix(1.0, 0.0, 0.0, 1.0, 106.1, 29.25)">
    <path d="M-105.8 -21.75 Q-104.2 -26.2 -99.55 -26.95 -86.85 -27.7 -80.3 -17.45 L-80.15 -16.95 Q-77.35 -13.55 -75.9 -9.5 -73.8 -3.8 -77.15 1.15 L-77.2 1.7 Q-77.35 2.65 -78.0 3.3 L-79.4 4.55 -79.6 5.1 -79.75 5.65 -79.95 6.25 Q-89.6 15.75 -102.0 11.25 -103.4 10.75 -103.15 9.05 -99.8 5.55 -93.95 6.75 L-91.25 6.6 -90.2 6.3 -91.65 5.1 -93.3 -20.95 -99.75 -20.95 -100.5 -20.35 -100.7 -19.8 -100.9 -19.25 -101.1 -18.65 -101.85 -18.1 Q-103.7 -16.85 -105.4 -18.5 L-106.0 -19.05 Q-106.3 -20.4 -105.8 -21.75 M-86.25 -15.9 L-86.35 -12.95 Q-86.95 -7.9 -86.25 -2.9 -85.9 -0.4 -85.8 2.25 L-85.85 3.45 -85.05 2.45 -85.0 1.9 Q-84.45 0.05 -82.9 -1.3 L-81.45 -2.65 -81.35 -3.2 -81.2 -4.3 Q-81.1 -5.25 -80.5 -6.0 L-80.85 -6.6 -81.25 -7.75 -81.45 -8.85 -84.9 -14.05 -86.25 -15.9 M-41.3 -27.15 Q-40.6 -29.05 -38.5 -29.15 L-38.5 -29.25 Q-33.75 -26.1 -35.55 -19.6 -36.55 -16.15 -36.35 -12.45 -35.85 -2.05 -38.05 7.75 -38.2 8.4 -39.25 8.9 -40.85 8.65 -41.85 7.35 -42.7 -9.15 -41.4 -25.45 L-41.3 -27.15 M-57.35 -26.95 Q-43.95 -23.45 -44.0 -9.6 -44.05 -3.05 -46.2 2.85 -49.5 12.05 -59.8 8.8 -62.05 8.1 -63.75 6.6 L-64.0 2.1 -63.95 -3.0 Q-59.75 -11.0 -50.55 -11.3 -50.0 -13.2 -51.05 -14.9 L-53.2 -18.85 -54.8 -19.55 -56.2 -20.55 Q-58.35 -21.1 -60.25 -19.3 L-61.1 -18.65 Q-61.55 -17.8 -62.25 -17.2 L-64.1 -16.0 -66.15 -17.05 -66.75 -17.55 -66.9 -18.1 -66.95 -19.25 -66.95 -20.35 Q-63.35 -25.3 -57.35 -26.85 L-57.35 -26.95 M-69.4 -14.15 Q-67.0 -13.85 -66.6 -11.5 L-66.55 -10.95 Q-68.45 -6.75 -72.05 -10.0 -72.55 -11.4 -71.7 -12.7 L-70.7 -13.75 -70.35 -13.9 -69.4 -14.05 -69.4 -14.15 M-53.0 -5.1 L-54.3 -4.7 -55.85 -4.35 -57.45 -2.15 -58.3 -0.95 -58.3 0.75 -58.3 2.45 Q-56.95 4.45 -54.15 3.6 -51.55 1.35 -50.75 -2.05 L-50.35 -3.2 Q-51.15 -4.25 -52.6 -4.9 L-53.0 -5.1 M-28.7 -21.7 Q-19.95 -19.3 -21.55 -9.35 -22.25 -5.15 -24.75 -2.45 -28.9 2.0 -33.6 -0.95 -36.55 -11.05 -31.55 -19.85 -31.05 -20.75 -29.95 -21.2 L-28.7 -21.7 M-28.1 -15.1 Q-29.2 -11.55 -28.8 -7.75 L-28.7 -7.55 Q-27.4 -11.25 -27.9 -15.15 L-28.1 -15.1 M-11.9 -14.3 L-13.9 -11.0 Q-14.05 -10.65 -14.35 -10.35 -14.45 -8.55 -15.2 -6.9 L-15.3 -6.4 -12.1 -6.2 -10.6 -7.35 Q-10.25 -9.55 -10.35 -11.85 L-10.4 -13.0 -11.65 -14.35 -11.9 -14.3 M-4.55 -9.25 Q-5.3 0.65 -8.15 10.15 L-11.2 20.05 Q-13.45 27.3 -20.95 29.45 -23.65 31.35 -27.0 31.55 -35.35 32.15 -43.7 31.55 -49.2 31.15 -52.5 27.1 -58.05 20.35 -50.8 17.25 -48.4 16.25 -45.6 16.95 -43.9 17.4 -43.95 19.25 -44.55 21.45 -46.75 21.75 L-49.25 22.1 Q-47.05 25.35 -43.15 25.55 L-26.85 25.0 Q-18.45 24.05 -16.25 16.25 L-15.45 13.05 Q-13.95 6.45 -11.5 0.2 -15.8 1.05 -19.05 -1.6 -21.4 -3.55 -21.25 -6.8 -20.7 -16.9 -12.1 -20.95 -3.85 -18.55 -4.55 -9.25 M-65.95 7.75 L-65.8 8.3 -66.0 8.9 -66.4 10.0 Q-69.3 12.45 -72.05 9.65 L-72.35 7.35 -72.05 5.65 Q-71.5 4.6 -70.35 4.2 L-69.4 3.95 Q-66.55 4.7 -65.95 7.75" fill="#000000" fill-rule="evenodd" stroke="none"/>
  </g>
</svg>
