<?xml version="1.0" encoding="UTF-8" standalone="no"?>
<svg xmlns:ffdec="https://www.free-decompiler.com/flash" xmlns:xlink="http://www.w3.org/1999/xlink" ffdec:objectType="shape" height="31.7px" width="14.05px" xmlns="http://www.w3.org/2000/svg">
  <g transform="matrix(1.0, 0.0, 0.0, 1.0, 7.05, 15.85)">
    <path d="M3.55 -11.55 L6.25 -11.55 6.25 -1.85 6.25 8.55 6.25 15.1 -6.3 15.1 -6.3 5.2 -6.3 -5.45 -6.3 -11.55 -3.5 -11.55 -3.5 -15.1 3.55 -15.1 3.55 -11.55 -3.5 -11.55 3.55 -11.55 M-6.3 5.2 L6.25 8.55 -6.3 5.2 M-6.3 -5.45 L6.25 -1.85 -6.3 -5.45" fill="#666666" fill-rule="evenodd" stroke="none"/>
    <path d="M3.55 -11.55 L6.25 -11.55 6.25 -1.85 6.25 8.55 6.25 15.1 -6.3 15.1 -6.3 5.2 -6.3 -5.45 -6.3 -11.55 -3.5 -11.55 -3.5 -15.1 3.55 -15.1 3.55 -11.55 -3.5 -11.55 M6.25 -1.85 L-6.3 -5.45 M6.25 8.55 L-6.3 5.2" fill="none" stroke="#000000" stroke-linecap="round" stroke-linejoin="round" stroke-width="1.5"/>
  </g>
</svg>
