<?xml version="1.0" encoding="UTF-8" standalone="no"?>
<svg xmlns:ffdec="https://www.free-decompiler.com/flash" xmlns:xlink="http://www.w3.org/1999/xlink" ffdec:objectType="shape" height="182.6px" width="234.25px" xmlns="http://www.w3.org/2000/svg">
  <g transform="matrix(1.0, 0.0, 0.0, 1.0, 105.8, 20.2)">
    <path d="M-90.5 -0.35 L88.05 -0.35 98.25 -19.2 127.45 -19.2 127.45 15.5 95.8 47.15 95.8 161.4 -104.8 161.4 -104.8 13.95 -90.5 -0.35 M86.0 3.4 L88.05 -0.35 92.8 -0.35 88.05 -0.35 86.0 3.4" fill="url(#gradient0)" fill-rule="evenodd" stroke="none"/>
    <path d="M-90.5 -0.35 L88.05 -0.35 98.25 -19.2 127.45 -19.2 127.45 15.5 95.8 47.15 95.8 161.4 -104.8 161.4 -104.8 13.95 -90.5 -0.35 -95.0 -0.35 M92.8 -0.35 L88.05 -0.35 86.0 3.4 M-83.7 -7.15 L-90.5 -0.35" fill="none" stroke="#00ff00" stroke-linecap="round" stroke-linejoin="round" stroke-width="2.0"/>
  </g>
  <defs>
    <linearGradient gradientTransform="matrix(-0.0636, -0.0335, 0.0582, -0.1104, 15.25, 37.2)" gradientUnits="userSpaceOnUse" id="gradient0" spreadMethod="pad" x1="-819.2" x2="819.2">
      <stop offset="0.0" stop-color="#003300"/>
      <stop offset="1.0" stop-color="#000000"/>
    </linearGradient>
  </defs>
</svg>
