<?xml version="1.0" encoding="UTF-8" standalone="no"?>
<svg xmlns:ffdec="https://www.free-decompiler.com/flash" xmlns:xlink="http://www.w3.org/1999/xlink" ffdec:objectType="shape" height="142.3px" width="115.1px" xmlns="http://www.w3.org/2000/svg">
  <g transform="matrix(1.0, 0.0, 0.0, 1.0, 57.9, 71.15)">
    <path d="M53.2 -27.5 L53.2 -35.6 53.2 -67.1 14.2 -67.1 -3.55 -67.1 -53.15 -67.1 -53.15 -50.75 -53.15 -45.65 -53.15 -15.5 -53.15 -11.0 -53.15 10.55 -53.15 13.55 -53.15 31.4 -53.15 67.15 53.2 67.15 53.2 46.95 53.2 12.1 53.2 6.8 53.2 -27.5 M-56.15 -44.7 L-56.15 -70.15 56.2 -70.15 56.2 70.15 -56.15 70.15 -56.15 -44.7" fill="#000000" fill-rule="evenodd" stroke="none"/>
    <path d="M-53.15 -50.75 L-53.15 -67.1 -3.55 -67.1 -53.15 -50.75" fill="#cccccc" fill-rule="evenodd" stroke="none"/>
    <path d="M53.2 -35.6 L53.2 -27.5 -53.15 -11.0 -53.15 -15.5 53.2 -35.6 M53.2 6.8 L53.2 12.1 -53.15 13.55 -53.15 10.55 53.2 6.8 M-53.15 -45.65 L-53.15 -50.75 -3.55 -67.1 14.2 -67.1 -53.15 -45.65" fill="url(#gradient0)" fill-rule="evenodd" stroke="none"/>
    <path d="M53.2 46.95 L53.2 67.15 -53.15 67.15 -53.15 31.4 53.2 46.95" fill="url(#gradient1)" fill-rule="evenodd" stroke="none"/>
    <path d="M53.2 -27.5 L53.2 6.8 -53.15 10.55 -53.15 -11.0 53.2 -27.5" fill="url(#gradient2)" fill-rule="evenodd" stroke="none"/>
    <path d="M-53.15 -15.5 L-53.15 -45.65 14.2 -67.1 53.2 -67.1 53.2 -35.6 -53.15 -15.5" fill="url(#gradient3)" fill-rule="evenodd" stroke="none"/>
    <path d="M53.2 12.1 L53.2 46.95 -53.15 31.4 -53.15 13.55 53.2 12.1" fill="url(#gradient4)" fill-rule="evenodd" stroke="none"/>
    <path d="M-56.15 -44.7 L-56.15 -70.15 56.2 -70.15 56.2 70.15 -56.15 70.15 -56.15 -44.7" fill="none" stroke="#00ff00" stroke-linecap="round" stroke-linejoin="round" stroke-width="2.0"/>
    <path d="M-56.15 -44.7 L-56.9 -44.5" fill="none" stroke="#009900" stroke-linecap="round" stroke-linejoin="round" stroke-width="2.0"/>
    <path d="M53.2 -35.6 L53.2 -27.5 53.2 6.8 53.2 12.1 53.2 46.95 53.2 67.15 -53.15 67.15 -53.15 31.4 -53.15 13.55 -53.15 10.55 -53.15 -11.0 -53.15 -15.5 -53.15 -45.65 -53.15 -50.75 -53.15 -67.1 -3.55 -67.1 14.2 -67.1 53.2 -67.1 53.2 -35.6 Z" fill="none" stroke="#999999" stroke-linecap="round" stroke-linejoin="round" stroke-width="2.0"/>
  </g>
  <defs>
    <linearGradient gradientTransform="matrix(0.0488, -0.0154, 0.0012, 0.0037, -17.15, -60.4)" gradientUnits="userSpaceOnUse" id="gradient0" spreadMethod="pad" x1="-819.2" x2="819.2">
      <stop offset="0.0" stop-color="#7f7f7f"/>
      <stop offset="1.0" stop-color="#cccccc"/>
    </linearGradient>
    <linearGradient gradientTransform="matrix(0.0068, -0.0272, 0.0702, 0.0176, -0.45, 52.25)" gradientUnits="userSpaceOnUse" id="gradient1" spreadMethod="pad" x1="-819.2" x2="819.2">
      <stop offset="0.0" stop-color="#7f7f7f"/>
      <stop offset="0.6627450980392157" stop-color="#cccccc"/>
      <stop offset="0.8117647058823529" stop-color="#ffffff"/>
      <stop offset="1.0" stop-color="#999999"/>
    </linearGradient>
    <radialGradient cx="0" cy="0" gradientTransform="matrix(0.1304, 0.0, 0.0, 0.1304, -46.75, -7.75)" gradientUnits="userSpaceOnUse" id="gradient2" r="819.2" spreadMethod="pad">
      <stop offset="0.0" stop-color="#ffffff"/>
      <stop offset="1.0" stop-color="#cccccc"/>
    </radialGradient>
    <radialGradient cx="0" cy="0" gradientTransform="matrix(0.1437, 0.0, 0.0, 0.1437, 53.75, -57.25)" gradientUnits="userSpaceOnUse" id="gradient3" r="819.2" spreadMethod="pad">
      <stop offset="0.0" stop-color="#ffffff"/>
      <stop offset="1.0" stop-color="#cccccc"/>
    </radialGradient>
    <radialGradient cx="0" cy="0" gradientTransform="matrix(0.1306, 0.0, 0.0, 0.1306, 50.5, 22.25)" gradientUnits="userSpaceOnUse" id="gradient4" r="819.2" spreadMethod="pad">
      <stop offset="0.0" stop-color="#ffffff"/>
      <stop offset="1.0" stop-color="#cccccc"/>
    </radialGradient>
  </defs>
</svg>
