<?xml version="1.0" encoding="UTF-8" standalone="no"?>
<svg xmlns:ffdec="https://www.free-decompiler.com/flash" xmlns:xlink="http://www.w3.org/1999/xlink" ffdec:objectType="shape" height="158.0px" width="107.55px" xmlns="http://www.w3.org/2000/svg">
  <g transform="matrix(1.0, 0.0, 0.0, 1.0, 42.7, 143.15)">
    <path d="M29.05 -138.35 L29.45 -137.75 Q30.3 -136.6 30.2 -135.45 29.4 -134.45 29.45 -133.15 29.5 -129.95 29.8 -126.8 36.95 -124.2 43.3 -122.95 L42.15 -121.8 42.0 -121.2 41.95 -120.65 41.25 -120.0 Q37.3 -116.05 34.25 -111.4 L34.2 -110.25 Q34.1 -108.45 34.45 -106.8 40.5 -104.45 44.65 -110.45 L44.9 -110.95 Q48.35 -114.75 50.4 -119.1 L51.75 -120.8 55.6 -120.75 56.0 -120.45 55.1 -119.25 Q53.6 -116.9 53.5 -114.1 59.0 -109.9 64.85 -106.2 61.75 -103.25 59.65 -99.85 L59.7 -97.55 Q59.8 -93.75 60.4 -90.05 54.15 -91.75 49.65 -87.75 L49.6 -87.15 49.45 -86.0 Q48.5 -85.3 48.1 -84.25 L48.1 -83.1 48.1 -80.2 Q49.4 -79.25 48.5 -78.7 L48.15 -78.45 45.05 -76.2 45.0 -75.6 44.85 -74.45 44.25 -73.85 44.25 -72.7 44.25 -69.25 Q43.3 -69.55 42.55 -70.1 36.2 -75.1 31.15 -70.0 L31.25 -68.9 Q31.7 -65.85 29.65 -63.65 L29.6 -63.1 29.45 -62.15 28.1 -62.15 25.65 -64.15 Q19.35 -68.95 12.7 -66.95 L12.65 -64.65 Q12.55 -61.4 12.9 -58.3 13.75 -57.8 14.7 -57.5 20.25 -55.75 21.15 -50.8 L21.65 -50.15 21.95 -49.6 21.95 -49.05 21.95 -48.45 Q23.1 -47.3 24.45 -46.55 29.3 -43.8 34.25 -44.45 L33.75 -43.25 Q33.2 -41.55 33.65 -39.8 39.4 -37.15 42.5 -33.45 L40.9 -32.5 Q35.35 -29.95 31.15 -25.75 L31.15 -24.6 Q31.05 -23.7 31.35 -22.85 L33.1 -21.7 Q36.5 -18.25 39.45 -14.2 35.9 -13.1 33.5 -10.55 L33.5 -9.4 33.5 -7.1 33.9 -6.55 35.8 -3.65 35.75 -2.5 Q35.7 -1.5 36.35 -0.75 32.7 0.75 30.4 4.05 L30.45 6.35 30.2 11.95 Q23.2 9.3 18.65 14.85 L16.75 14.85 15.15 13.0 14.4 12.35 Q8.1 8.95 1.9 10.8 L1.9 10.2 1.9 9.65 Q1.45 9.05 0.85 8.95 -7.95 6.9 -14.8 12.55 L-17.8 8.65 -18.6 8.0 Q-24.5 6.3 -30.4 8.5 L-30.4 6.95 -30.4 3.5 Q-31.7 1.45 -34.25 1.35 -40.25 1.15 -42.7 -2.65 L-39.85 -6.15 -39.7 -7.3 -39.65 -10.75 Q-34.1 -8.45 -31.2 -12.7 L-31.15 -14.4 Q-31.05 -18.1 -33.5 -20.75 L-33.55 -21.3 -33.85 -22.5 -25.4 -25.75 Q-25.0 -26.6 -25.15 -27.45 -25.65 -30.6 -27.35 -33.25 -23.05 -33.25 -17.9 -34.8 -17.2 -35.55 -17.25 -36.55 L-17.3 -42.3 Q-13.2 -42.85 -11.15 -46.55 -12.2 -51.35 -17.9 -52.15 L-18.3 -52.5 -18.85 -53.1 -15.9 -55.9 Q-14.35 -57.4 -14.2 -59.45 -13.7 -68.95 -22.7 -66.35 L-22.6 -66.9 -21.95 -68.1 -21.95 -69.25 Q-22.05 -74.3 -27.5 -76.2 -23.3 -77.45 -21.35 -81.55 -21.05 -82.4 -21.1 -83.3 L-21.15 -88.5 Q-16.75 -86.4 -13.45 -88.9 L-13.45 -92.35 -13.45 -101.6 Q-9.2 -99.85 -6.55 -102.75 L-6.55 -104.45 Q-6.55 -107.75 -8.45 -110.25 -4.7 -111.05 -2.7 -114.3 L-2.7 -114.85 -2.7 -116.6 -8.85 -121.6 -8.9 -123.3 -8.65 -126.8 Q-4.1 -125.25 -0.2 -127.2 L0.2 -128.35 0.4 -130.05 0.75 -130.65 1.15 -131.2 1.05 -133.5 Q0.85 -136.5 1.55 -139.1 10.15 -131.1 15.2 -141.8 L16.15 -142.25 Q17.05 -142.8 18.1 -143.15 21.65 -137.5 29.05 -138.35" fill="#ffff00" fill-opacity="0.5019608" fill-rule="evenodd" stroke="none"/>
  </g>
</svg>
