<?xml version="1.0" encoding="UTF-8" standalone="no"?>
<svg xmlns:ffdec="https://www.free-decompiler.com/flash" xmlns:xlink="http://www.w3.org/1999/xlink" ffdec:objectType="shape" height="161.65px" width="109.5px" xmlns="http://www.w3.org/2000/svg">
  <g transform="matrix(1.0, 0.0, 0.0, 1.0, 46.0, 142.95)">
    <path d="M20.8 -142.95 Q23.35 -142.0 24.1 -138.85 25.25 -134.05 24.45 -129.1 25.4 -127.9 26.95 -128.15 28.25 -128.45 28.85 -129.7 32.15 -129.9 35.0 -129.7 L34.5 -128.45 Q33.6 -124.9 31.15 -122.15 L31.2 -121.0 31.35 -119.85 Q33.9 -118.2 36.55 -118.3 L36.5 -116.6 Q36.45 -115.1 36.75 -113.7 43.7 -111.85 48.7 -118.5 52.35 -114.0 58.7 -113.3 L58.6 -113.0 56.55 -110.65 56.6 -109.5 56.75 -108.3 Q60.65 -105.45 63.5 -101.95 L62.3 -101.1 58.9 -98.3 58.9 -96.6 58.9 -94.85 59.25 -94.25 59.65 -93.7 Q59.55 -92.8 60.0 -92.05 L61.75 -88.1 Q56.8 -88.9 55.05 -84.25 L55.05 -81.95 55.05 -76.2 55.5 -75.55 55.8 -74.45 53.55 -74.55 Q46.55 -77.15 41.95 -72.35 L41.9 -71.2 41.75 -70.6 41.2 -70.0 41.2 -67.7 41.2 -63.1 Q39.05 -63.3 37.3 -64.2 31.7 -67.05 26.55 -64.65 L26.55 -63.5 26.55 -61.75 26.1 -61.25 Q23.45 -59.25 22.7 -56.55 25.0 -54.1 28.65 -53.45 L28.55 -52.95 28.1 -52.3 27.8 -51.2 Q27.1 -49.55 25.8 -48.3 L25.85 -47.15 26.0 -45.95 Q31.6 -43.95 37.35 -42.9 L37.25 -42.35 Q35.85 -38.85 32.35 -37.3 L32.0 -36.7 31.55 -35.6 30.85 -34.95 30.4 -34.4 30.35 -32.7 Q30.25 -31.2 30.6 -29.8 35.7 -28.25 39.45 -24.6 34.15 -23.75 30.4 -21.15 L30.35 -20.0 Q30.3 -19.1 30.6 -18.25 L31.2 -17.75 32.35 -17.1 Q32.5 -16.6 32.8 -16.2 L35.2 -12.7 30.4 -10.0 30.35 -8.25 Q30.25 -7.05 30.6 -5.95 L31.05 -5.3 Q32.75 -2.2 35.0 0.4 32.75 2.2 29.65 3.85 L29.65 5.6 29.65 9.05 30.0 9.65 30.4 10.2 30.4 11.4 30.4 11.95 Q27.6 10.8 24.5 10.15 22.7 9.75 21.45 10.7 16.9 14.2 12.5 16.75 2.1 11.3 -6.95 18.7 L-7.25 17.9 -7.3 17.35 -8.1 16.2 Q-8.75 15.4 -9.35 15.1 -17.55 11.1 -26.2 16.0 L-26.55 15.4 Q-32.6 4.6 -46.0 3.85 L-45.45 3.25 -45.05 2.7 -45.05 -0.15 -45.05 -6.5 -42.55 -5.95 Q-38.6 -2.5 -35.05 -5.75 L-35.0 -8.05 Q-34.9 -11.0 -35.2 -13.85 -32.05 -13.4 -30.4 -15.75 L-30.4 -18.05 -30.4 -22.7 Q-26.6 -21.4 -23.85 -23.45 -23.35 -24.55 -23.4 -25.75 L-23.5 -31.55 -17.0 -32.25 Q-16.05 -32.4 -15.75 -33.15 -12.85 -39.45 -20.4 -43.1 -15.5 -43.8 -12.15 -47.1 L-11.95 -48.3 Q-11.8 -49.2 -12.15 -50.0 L-12.55 -50.55 -14.65 -52.9 Q-12.0 -55.35 -9.65 -58.1 L-9.65 -59.25 -9.65 -60.4 -10.7 -61.2 Q-12.5 -61.95 -14.15 -62.85 -20.15 -66.25 -25.0 -61.75 L-25.35 -62.15 -26.55 -63.85 -25.4 -64.2 Q-23.6 -64.65 -23.5 -66.35 L-23.75 -66.9 Q-27.6 -71.85 -32.15 -76.2 L-26.35 -76.35 Q-25.7 -77.45 -25.45 -78.7 -24.9 -81.55 -25.0 -84.45 -22.2 -83.45 -20.0 -85.05 -19.5 -87.4 -19.4 -89.65 -19.25 -94.3 -20.0 -98.9 L-21.05 -100.1 Q-22.1 -101.55 -21.55 -101.95 -18.85 -102.3 -17.3 -100.6 -15.25 -94.55 -9.45 -95.6 -8.75 -96.35 -8.8 -97.35 L-8.85 -100.8 Q-6.2 -100.5 -4.05 -101.75 -3.35 -102.5 -3.3 -103.5 -3.05 -107.0 -5.8 -109.3 -5.8 -110.15 -6.1 -110.9 -7.5 -114.3 -9.65 -117.35 -9.65 -117.95 -9.9 -118.35 L-15.8 -127.2 Q-12.35 -127.9 -9.8 -130.05 L-9.65 -131.2 -9.65 -131.8 Q-7.1 -127.8 -3.1 -125.85 -2.6 -126.0 -2.15 -126.3 -0.75 -127.15 0.2 -128.5 L0.35 -130.3 Q0.7 -134.85 4.25 -137.55 L6.15 -136.35 Q7.2 -135.65 8.3 -135.25 L11.75 -135.35 Q16.95 -138.2 20.8 -142.95" fill="#ffff00" fill-opacity="0.5019608" fill-rule="evenodd" stroke="none"/>
  </g>
</svg>
