<?xml version="1.0" encoding="UTF-8" standalone="no"?>
<svg xmlns:ffdec="https://www.free-decompiler.com/flash" xmlns:xlink="http://www.w3.org/1999/xlink" ffdec:objectType="shape" height="166.95px" width="102.95px" xmlns="http://www.w3.org/2000/svg">
  <g transform="matrix(1.0, 0.0, 0.0, 1.0, 39.65, 145.25)">
    <path d="M-14.05 21.0 L-12.9 21.7 -21.05 21.7 -14.05 21.0 M31.15 -138.55 L35.0 -138.45 35.0 -138.15 Q34.65 -137.1 33.65 -136.4 33.25 -134.15 31.95 -132.35 L31.9 -131.8 Q31.8 -130.0 32.15 -128.35 35.25 -126.65 38.1 -126.4 37.6 -125.35 36.55 -124.65 L36.55 -124.1 36.35 -122.95 35.8 -122.35 35.75 -121.8 Q35.65 -120.0 36.0 -118.3 40.75 -115.2 45.05 -118.5 L48.1 -118.9 48.1 -118.3 48.1 -117.15 Q48.6 -116.6 49.2 -116.35 55.15 -113.95 60.6 -114.1 59.25 -113.4 58.1 -112.35 L58.1 -111.8 58.1 -110.05 Q63.25 -106.6 63.3 -101.4 58.85 -100.3 55.8 -96.95 L55.8 -96.4 Q55.65 -93.35 56.75 -90.6 57.75 -89.95 58.1 -88.9 L58.15 -88.3 Q58.25 -86.8 57.9 -85.4 46.4 -85.8 49.45 -75.4 L36.95 -74.6 36.15 -74.25 35.9 -73.65 35.8 -72.5 Q33.7 -69.7 34.25 -66.15 26.8 -67.55 20.4 -65.4 L20.35 -64.85 20.2 -63.65 18.1 -61.35 18.1 -60.8 18.1 -57.9 Q21.45 -54.8 25.8 -54.45 24.6 -53.85 24.25 -52.7 L24.25 -52.15 Q24.1 -49.8 24.45 -47.5 L33.5 -44.6 33.5 -44.25 33.5 -42.5 32.7 -41.35 32.7 -40.75 32.7 -40.2 Q31.3 -38.6 30.4 -36.75 L30.35 -36.15 Q30.3 -35.25 30.6 -34.4 34.25 -31.1 38.1 -28.65 34.65 -26.45 32.7 -22.85 L32.65 -22.3 Q31.9 -16.5 35.2 -11.9 32.45 -10.4 30.4 -8.05 L30.4 -7.5 Q30.25 -6.3 30.6 -5.15 L37.35 1.95 31.15 7.15 31.2 7.7 Q31.3 8.6 31.0 9.45 30.0 11.5 28.85 12.35 21.75 5.5 15.0 13.1 10.8 13.35 7.55 10.55 5.65 8.95 3.4 10.25 -1.6 13.1 -5.6 17.55 L-5.75 18.1 -5.95 19.25 Q-6.4 20.2 -7.3 20.6 -14.95 14.5 -23.85 18.1 -28.8 12.75 -35.6 12.15 L-34.05 11.4 -33.65 10.2 Q-32.05 2.35 -39.65 -3.05 -34.65 -2.75 -32.7 -7.3 L-32.7 -7.85 Q-32.6 -9.35 -32.9 -10.75 -33.95 -12.4 -35.8 -13.05 L-35.8 -13.65 -35.8 -14.2 Q-36.95 -15.8 -37.35 -17.7 -34.65 -17.4 -32.55 -18.65 L-32.25 -19.25 Q-31.2 -24.45 -34.25 -28.45 L-34.25 -29.05 -34.25 -30.75 -25.45 -30.05 Q-22.2 -29.65 -20.6 -32.3 -20.3 -37.1 -23.5 -40.95 -21.4 -41.65 -19.45 -42.5 L-19.05 -43.1 Q-18.05 -44.7 -18.1 -46.55 -19.9 -49.55 -23.3 -50.6 -22.05 -52.8 -20.4 -55.0 L-20.4 -55.6 Q-20.4 -57.7 -19.65 -59.65 -20.1 -60.2 -20.7 -60.35 L-28.1 -61.55 Q-25.2 -64.95 -25.8 -69.65 -27.95 -72.2 -31.2 -71.75 -31.75 -73.3 -32.7 -74.65 -29.6 -74.15 -27.15 -75.6 L-26.85 -76.2 Q-26.4 -77.85 -26.55 -79.65 -28.4 -82.35 -28.85 -85.4 L-27.15 -85.2 Q-25.0 -83.3 -22.5 -84.85 L-22.25 -85.45 Q-21.65 -87.75 -22.15 -90.05 -23.05 -91.3 -24.25 -92.35 -25.1 -95.9 -26.75 -99.25 L-16.95 -99.9 Q-16.25 -99.95 -15.6 -100.25 L-15.3 -100.85 Q-14.75 -103.1 -15.2 -105.45 L-17.3 -107.75 -17.3 -108.3 -17.3 -108.9 -19.65 -111.2 -19.7 -111.75 -19.8 -112.35 Q-20.55 -113.15 -21.0 -114.1 L-20.4 -114.65 Q-15.6 -113.55 -11.75 -115.65 L-9.65 -119.1 Q-10.45 -121.5 -12.7 -123.15 L-4.65 -122.6 Q-1.65 -122.35 -0.4 -125.05 L-0.35 -125.6 Q0.5 -129.55 0.4 -133.7 6.55 -131.3 9.45 -137.75 L9.55 -138.35 9.6 -142.4 10.4 -143.55 10.45 -144.1 10.75 -145.25 Q15.85 -143.5 20.4 -140.45 L20.35 -139.9 Q20.25 -138.7 20.6 -137.55 25.9 -135.2 31.15 -138.55" fill="#ffff00" fill-opacity="0.5019608" fill-rule="evenodd" stroke="none"/>
  </g>
</svg>
