<?xml version="1.0" encoding="UTF-8" standalone="no"?>
<svg xmlns:ffdec="https://www.free-decompiler.com/flash" xmlns:xlink="http://www.w3.org/1999/xlink" ffdec:objectType="shape" height="159.0px" width="101.4px" xmlns="http://www.w3.org/2000/svg">
  <g transform="matrix(1.0, 0.0, 0.0, 1.0, 42.7, 142.45)">
    <path d="M23.3 -142.4 L23.65 -142.45 25.0 -142.4 25.5 -141.75 27.0 -138.45 27.5 -136.05 28.15 -135.65 32.15 -134.5 Q33.4 -133.45 35.0 -133.1 38.15 -132.35 39.45 -129.85 L37.2 -127.7 Q35.95 -126.65 35.0 -125.25 L35.0 -123.5 35.2 -120.05 Q35.35 -118.55 34.65 -117.15 L33.9 -116.55 33.5 -116.0 33.4 -115.45 Q33.05 -114.1 32.35 -112.9 L31.15 -111.4 31.15 -110.25 31.2 -109.65 31.35 -109.1 Q33.3 -107.3 35.85 -108.35 39.35 -109.8 41.0 -113.15 L41.2 -114.3 41.4 -114.85 41.75 -115.45 43.9 -115.3 Q46.55 -113.45 48.85 -112.55 49.8 -110.9 51.55 -110.35 55.5 -109.2 58.7 -106.95 57.55 -105.35 55.8 -104.4 53.6 -103.15 51.95 -101.4 L51.95 -100.25 51.9 -98.5 Q51.85 -97.6 52.15 -96.75 L54.95 -92.9 Q56.05 -91.2 56.55 -89.25 L52.45 -88.55 Q50.35 -88.0 48.85 -86.2 L48.85 -85.6 48.85 -85.05 48.7 -84.45 48.1 -83.9 48.1 -82.7 48.1 -79.25 48.1 -76.95 43.2 -76.05 Q40.3 -75.3 38.85 -72.7 L38.85 -72.15 38.9 -66.95 Q38.95 -64.6 39.65 -62.3 32.1 -64.15 25.8 -62.3 L25.8 -61.75 25.8 -60.6 25.8 -60.0 25.8 -59.45 26.7 -58.25 27.1 -57.7 27.3 -57.15 Q26.25 -55.1 23.95 -54.45 22.05 -53.95 21.95 -52.15 22.6 -50.45 24.35 -49.4 27.75 -47.3 29.8 -44.05 L26.95 -41.1 Q25.75 -39.9 25.0 -38.25 L25.0 -37.1 25.05 -36.55 25.2 -35.95 26.95 -35.05 Q29.6 -33.7 32.5 -33.25 L33.55 -32.45 34.6 -31.85 34.85 -31.75 34.6 -31.4 31.75 -27.9 29.65 -25.0 29.65 -24.4 29.65 -23.25 29.7 -22.7 29.8 -22.1 Q31.15 -20.65 32.85 -19.7 36.3 -17.9 38.1 -15.2 37.5 -14.05 36.25 -13.3 34.9 -12.45 34.25 -11.15 L34.25 -10.55 34.25 -10.0 34.25 -9.4 34.65 -8.85 Q35.5 -7.6 36.85 -7.1 L37.35 -6.7 Q37.7 -5.35 39.05 -4.35 40.3 -3.45 41.0 -2.1 39.5 -1.5 38.25 -0.55 L35.8 1.55 35.8 3.3 Q35.8 5.05 36.15 6.7 36.45 8.3 37.35 9.65 L37.35 10.2 37.25 10.8 37.15 11.2 34.8 10.9 29.5 11.3 Q25.1 12.5 22.5 16.4 L21.75 16.55 19.35 14.9 Q17.9 13.4 15.8 13.3 13.6 10.8 10.15 12.35 5.1 14.55 0.4 15.4 -1.05 13.2 -3.05 11.55 -6.55 8.7 -11.25 11.0 -16.4 13.5 -20.4 13.3 -21.15 11.1 -23.05 9.8 -31.05 4.3 -40.2 4.45 L-39.8 3.25 -39.65 1.55 -39.65 0.4 Q-40.85 -1.25 -41.5 -3.15 -41.9 -4.35 -42.7 -5.35 L-39.3 -6.0 Q-37.2 -6.55 -36.0 -8.45 L-35.85 -9.6 -35.8 -11.35 -35.8 -13.05 -33.9 -13.65 -33.5 -13.85 -33.1 -14.2 -32.8 -15.4 -32.7 -15.95 -32.7 -16.5 -33.15 -17.1 -33.7 -17.7 Q-28.6 -17.6 -24.05 -19.4 -22.95 -21.85 -24.1 -24.4 L-26.55 -29.25 Q-24.0 -29.3 -22.05 -30.75 -20.15 -32.2 -18.85 -34.25 -18.7 -35.8 -19.4 -37.25 -20.1 -38.65 -21.55 -39.4 L-19.4 -40.3 Q-17.55 -41.15 -16.7 -42.95 L-14.25 -47.3 -14.25 -48.45 -14.25 -49.05 -14.25 -49.6 -14.7 -50.1 Q-16.95 -51.6 -19.45 -52.15 L-18.25 -53.8 -16.95 -55.0 -16.5 -56.15 -16.15 -56.75 -15.8 -57.3 -15.8 -58.5 -15.8 -59.05 -15.8 -59.65 Q-16.25 -60.2 -16.85 -60.35 -22.3 -61.8 -25.6 -61.75 -24.15 -62.3 -23.0 -63.4 -22.2 -64.15 -21.95 -65.2 -22.85 -67.95 -24.6 -70.3 -27.05 -73.5 -30.4 -76.2 -26.9 -75.55 -24.05 -77.15 -23.05 -81.0 -23.3 -85.25 L-23.5 -91.55 -20.05 -92.05 Q-17.9 -92.4 -16.15 -93.5 L-16.0 -94.1 Q-15.5 -96.65 -16.25 -99.2 L-17.5 -103.9 -17.95 -104.45 -18.25 -105.1 -18.1 -105.45 -16.95 -105.05 Q-14.2 -104.25 -12.3 -105.8 -11.25 -108.55 -12.2 -111.2 -13.1 -113.65 -15.0 -115.65 L-15.3 -116.75 -15.9 -118.55 -16.15 -119.65 Q-13.95 -121.05 -12.2 -123.0 -10.75 -124.6 -9.65 -126.6 L-9.65 -127.2 -9.65 -127.75 -9.25 -128.35 -8.85 -128.9 -8.85 -130.65 -8.85 -132.35 -8.85 -134.1 -7.95 -133.65 Q-5.85 -132.35 -3.3 -132.2 -1.9 -130.7 -0.05 -131.5 1.1 -132.05 1.75 -133.15 L1.85 -134.3 1.9 -137.75 1.9 -140.05 3.45 -140.1 3.65 -139.9 Q4.65 -139.1 5.8 -138.65 13.2 -135.95 19.6 -141.6 L22.3 -142.1 23.3 -142.4" fill="#ffff00" fill-opacity="0.5019608" fill-rule="evenodd" stroke="none"/>
  </g>
</svg>
