<?xml version="1.0" encoding="UTF-8" standalone="no"?>
<svg xmlns:ffdec="https://www.free-decompiler.com/flash" xmlns:xlink="http://www.w3.org/1999/xlink" ffdec:objectType="shape" height="159.25px" width="97.4px" xmlns="http://www.w3.org/2000/svg">
  <g transform="matrix(1.0, 0.0, 0.0, 1.0, 38.5, 145.35)">
    <path d="M19.25 -137.35 L19.45 -136.8 Q19.5 -134.45 19.8 -132.2 25.0 -130.2 30.4 -128.7 30.0 -125.7 27.3 -123.7 L27.3 -123.15 27.3 -120.25 Q29.75 -117.6 32.35 -117.15 L26.55 -111.4 26.5 -110.8 Q26.45 -109.9 26.75 -109.1 37.5 -106.9 41.35 -117.75 47.6 -116.05 51.4 -120.25 52.7 -120.75 53.5 -120.05 L50.4 -116.8 50.4 -116.2 Q50.3 -115.3 50.6 -114.45 52.25 -113.25 54.25 -112.55 55.6 -110.75 58.1 -110.8 L58.9 -109.65 52.7 -105.45 52.7 -104.85 52.7 -102.55 Q53.75 -100.85 55.6 -100.25 L58.9 -94.65 Q54.35 -93.45 51.2 -89.85 L51.15 -89.25 Q51.05 -88.35 51.4 -87.55 52.35 -86.85 52.7 -85.8 L52.7 -85.2 52.7 -84.05 53.5 -82.9 53.5 -82.35 53.5 -80.05 Q48.55 -82.7 43.7 -81.0 L43.35 -79.9 Q41.35 -75.25 41.95 -70.0 32.6 -71.4 24.25 -69.25 L24.25 -68.65 24.25 -62.3 25.0 -61.15 25.0 -60.6 25.0 -60.0 Q27.5 -58.3 27.3 -55.4 28.3 -54.7 28.65 -53.65 25.2 -53.3 22.3 -51.95 L22.05 -51.35 Q21.8 -50.15 22.15 -49.05 27.0 -46.25 32.7 -45.4 35.3 -43.8 36.55 -41.95 35.05 -39.7 32.65 -38.3 27.3 -35.2 27.5 -29.8 29.4 -28.45 31.65 -28.2 40.5 -27.05 46.35 -23.05 41.0 -19.55 36.55 -15.0 L36.55 -14.4 36.55 -13.25 42.5 -6.9 42.9 -5.15 Q44.25 -4.45 44.05 -3.45 39.2 -2.65 35.8 -0.35 L35.75 0.2 Q35.3 3.95 37.15 7.15 L28.1 7.7 Q26.6 9.4 26.35 11.55 L24.05 11.55 Q15.9 5.75 9.45 12.9 L8.35 12.15 Q-0.45 7.9 -8.1 13.9 L-8.45 12.75 -10.0 11.55 -10.95 9.95 Q-17.2 1.0 -26.35 7.9 -28.3 -1.85 -37.7 -3.65 -37.1 -4.35 -37.35 -5.35 -35.4 -7.4 -36.0 -10.0 L-38.1 -12.85 -38.05 -13.45 Q-37.85 -15.0 -38.5 -16.35 L-37.7 -16.5 Q-33.65 -14.5 -30.0 -16.5 -29.4 -18.75 -29.4 -21.15 -29.45 -26.7 -30.4 -32.1 -23.0 -28.75 -18.85 -34.25 L-18.95 -35.35 Q-19.7 -41.6 -25.0 -45.75 -21.85 -47.75 -19.05 -50.0 L-18.9 -50.6 Q-18.5 -53.05 -19.45 -55.2 -22.4 -57.9 -25.8 -58.3 L-25.65 -58.8 Q-23.4 -63.15 -23.5 -68.1 -24.1 -69.35 -25.4 -69.65 -29.65 -68.1 -33.5 -66.15 -34.9 -65.85 -35.6 -66.95 -32.8 -67.1 -30.4 -68.5 -29.8 -69.1 -29.65 -70.0 -33.05 -75.2 -37.9 -79.05 L-38.0 -79.45 Q-37.85 -80.75 -38.5 -81.75 L-30.8 -82.7 Q-30.2 -84.7 -30.25 -86.75 L-30.6 -97.75 Q-29.55 -97.65 -28.85 -97.1 -24.7 -93.8 -20.2 -94.85 -20.0 -95.15 -19.95 -95.45 -19.5 -98.55 -19.65 -101.75 L-19.05 -102.35 Q-15.75 -102.25 -14.25 -105.05 L-14.2 -105.6 Q-13.95 -108.05 -14.65 -110.25 L-11.95 -112.75 -11.95 -113.3 -11.95 -115.05 Q-18.25 -120.7 -25.0 -125.45 L-15.3 -126.7 -14.25 -127.35 -14.25 -128.5 -14.25 -137.2 Q-13.35 -138.35 -12.3 -138.9 -10.95 -137.5 -9.25 -136.55 -1.25 -132.1 -0.4 -140.05 L-0.05 -140.65 Q1.2 -142.8 1.15 -145.25 L1.15 -145.35 3.25 -143.9 Q5.2 -140.55 8.65 -138.7 L8.75 -138.35 Q8.7 -136.0 9.05 -133.7 L10.75 -132.75 11.5 -133.0 Q12.2 -133.3 12.7 -133.9 L13.85 -133.55 19.25 -137.35" fill="#ffff00" fill-opacity="0.5019608" fill-rule="evenodd" stroke="none"/>
  </g>
</svg>
