<?xml version="1.0" encoding="UTF-8" standalone="no"?>
<svg xmlns:ffdec="https://www.free-decompiler.com/flash" xmlns:xlink="http://www.w3.org/1999/xlink" ffdec:objectType="shape" height="130.95px" width="71.0px" xmlns="http://www.w3.org/2000/svg">
  <g transform="matrix(1.0, 0.0, 0.0, 1.0, 27.45, 128.3)">
    <path d="M8.45 -128.3 Q13.35 -128.3 16.8 -124.85 20.25 -121.4 20.25 -116.5 20.25 -111.6 16.8 -108.15 13.4 -104.75 8.65 -104.7 9.15 -103.7 9.2 -102.3 L9.2 -101.75 Q10.95 -98.9 12.0 -95.65 L12.2 -95.7 13.1 -95.85 13.1 -95.95 Q16.25 -95.9 17.9 -93.3 L18.15 -92.8 17.85 -92.0 18.1 -91.1 18.15 -90.55 Q16.7 -88.65 14.85 -87.25 L15.85 -83.3 Q16.05 -82.45 15.9 -81.6 L15.95 -81.6 Q17.65 -83.45 20.3 -84.9 24.85 -87.35 28.55 -91.35 L30.9 -93.95 Q32.3 -96.6 34.55 -98.8 33.6 -100.8 35.7 -103.7 36.6 -104.9 37.75 -104.95 43.5 -104.7 43.15 -101.15 L43.5 -100.05 43.55 -99.5 41.85 -97.8 40.45 -96.4 38.85 -94.7 Q38.45 -93.0 36.1 -90.95 31.3 -86.9 28.05 -81.75 21.75 -77.55 15.05 -74.7 L14.15 -74.6 13.8 -74.35 12.75 -74.75 12.6 -75.25 12.35 -76.35 Q9.8 -80.05 9.15 -84.5 L8.05 -84.2 2.6 -80.95 Q1.15 -72.55 0.05 -64.05 -0.15 -62.4 -1.25 -61.2 L-1.25 -59.9 -2.3 -59.5 Q3.6 -56.8 7.3 -50.4 10.0 -45.65 12.9 -41.3 14.35 -39.15 16.15 -37.25 18.2 -35.05 17.4 -32.45 18.65 -30.2 18.0 -26.65 15.85 -16.0 14.55 -5.15 21.1 -5.3 26.1 -1.7 26.75 -1.25 26.7 -0.35 24.9 3.55 20.2 2.35 L11.45 0.5 Q10.75 0.4 10.1 -0.15 L9.95 -0.75 9.9 -1.3 9.9 -1.85 9.35 -2.4 Q9.6 -17.15 11.9 -31.6 L12.05 -32.25 Q10.2 -33.2 8.5 -35.3 6.65 -37.6 5.15 -40.1 4.4 -41.4 4.65 -42.95 2.25 -47.45 -1.1 -51.0 L-1.2 -50.8 -2.0 -48.25 -6.95 -27.8 Q-6.5 -26.15 -8.05 -23.9 L-8.4 -23.35 Q-8.3 -22.4 -8.95 -21.65 L-9.9 -20.55 Q-11.75 -15.95 -14.5 -11.65 L-15.15 -11.0 Q-17.55 -6.55 -21.0 -3.45 L-6.2 -2.7 Q-5.1 -2.6 -4.85 -1.5 L-4.65 -0.35 Q-5.25 1.8 -7.45 1.85 L-25.95 1.2 -27.25 0.6 -27.4 0.0 Q-27.7 -1.55 -26.6 -2.6 L-26.65 -2.8 -26.7 -4.45 -17.55 -19.05 Q-16.2 -20.55 -15.6 -22.45 L-15.3 -23.5 -14.9 -24.05 -14.0 -25.2 Q-13.4 -27.7 -11.55 -29.65 L-11.25 -29.9 Q-9.75 -42.05 -6.95 -54.0 -5.55 -55.15 -5.95 -57.55 L-6.0 -58.35 Q-6.0 -61.65 -4.8 -64.75 -3.8 -67.2 -5.05 -68.5 L-3.7 -77.8 Q-10.05 -75.0 -16.8 -73.15 -18.4 -73.4 -19.4 -74.65 L-19.5 -75.8 -19.6 -77.45 Q-9.9 -91.1 0.85 -104.35 L1.05 -105.35 1.55 -106.9 0.1 -108.15 Q-3.35 -111.6 -3.35 -116.5 -3.35 -121.4 0.1 -124.85 3.55 -128.3 8.45 -128.3 M7.4 -90.35 L5.45 -95.5 4.05 -88.6 7.4 -90.35 M-8.55 -82.45 Q-6.3 -83.2 -4.15 -84.35 L-2.55 -85.2 -1.45 -91.8 Q-4.85 -87.05 -8.55 -82.45" fill="#000000" fill-rule="evenodd" stroke="none"/>
  </g>
</svg>
