<?xml version="1.0" encoding="UTF-8" standalone="no"?>
<svg xmlns:ffdec="https://www.free-decompiler.com/flash" xmlns:xlink="http://www.w3.org/1999/xlink" ffdec:objectType="shape" height="157.85px" width="104.65px" xmlns="http://www.w3.org/2000/svg">
  <g transform="matrix(1.0, 0.0, 0.0, 1.0, 48.75, 140.85)">
    <path d="M26.65 -131.6 L26.7 -130.65 Q26.8 -129.45 26.5 -128.35 L25.5 -127.95 Q24.75 -127.6 24.35 -126.8 L24.35 -126.2 24.35 -125.65 24.0 -125.05 23.6 -124.5 23.65 -123.35 23.8 -122.15 24.4 -121.8 Q25.9 -121.35 27.05 -120.45 27.65 -119.7 27.55 -118.7 27.35 -115.85 27.65 -112.95 34.9 -111.15 41.1 -116.8 L49.0 -114.1 49.4 -113.55 Q52.9 -109.0 55.9 -104.3 53.1 -102.55 50.55 -100.45 L50.55 -99.25 50.55 -94.65 50.9 -94.1 52.05 -92.35 52.15 -91.2 Q52.6 -88.0 54.75 -85.4 53.6 -85.6 52.55 -86.05 45.15 -89.0 41.3 -83.5 L41.3 -80.6 41.3 -70.8 Q39.85 -70.8 38.75 -71.4 32.85 -74.7 27.05 -73.5 26.45 -72.45 26.45 -71.2 26.4 -66.15 29.0 -61.95 23.35 -58.9 16.3 -58.1 L15.95 -56.9 15.9 -56.35 16.35 -55.85 17.05 -55.2 17.4 -54.6 17.8 -53.45 18.6 -52.9 18.9 -52.3 19.35 -51.15 25.15 -47.1 Q28.05 -45.9 29.0 -43.65 25.5 -41.25 22.8 -38.1 L22.9 -36.95 23.2 -35.75 Q29.65 -33.5 34.55 -29.4 L34.35 -28.25 34.2 -27.7 Q29.1 -24.0 25.9 -19.6 31.45 -16.1 37.65 -13.25 L34.35 -9.8 34.4 -8.65 34.55 -7.5 35.2 -7.0 Q43.3 -3.1 46.9 5.05 L46.45 5.6 45.9 6.2 Q38.8 5.95 34.35 10.4 L34.4 11.55 Q34.5 12.75 34.2 13.9 L29.45 13.15 Q22.2 11.45 18.2 16.95 L17.45 17.0 16.85 16.75 Q12.45 8.85 4.9 12.1 L3.0 11.75 2.6 11.45 Q0.15 10.05 -2.45 9.25 L-3.75 7.8 Q-6.2 5.05 -10.35 7.2 L-12.05 8.1 -12.2 8.1 -12.2 8.2 -12.25 8.25 -12.95 8.35 -13.35 8.5 -13.95 9.15 -19.7 12.35 Q-28.35 1.7 -41.65 6.75 -41.75 6.3 -42.0 5.9 -45.65 0.8 -48.75 -4.6 -43.85 -3.85 -39.35 -4.8 -38.65 -5.55 -38.65 -6.5 -38.6 -10.6 -38.95 -14.6 L-39.4 -15.1 Q-40.35 -15.8 -40.3 -16.9 -36.35 -16.1 -33.2 -17.85 L-32.85 -18.45 Q-32.25 -19.75 -31.25 -20.75 -30.95 -21.6 -30.95 -22.5 L-31.05 -28.85 -31.45 -29.4 -31.85 -30.0 -31.85 -31.15 -31.85 -31.75 Q-24.45 -31.65 -25.1 -37.7 -26.4 -39.45 -28.35 -40.6 L-28.8 -41.15 Q-29.8 -42.3 -29.9 -43.45 L-24.3 -49.25 Q-24.0 -50.05 -24.0 -50.95 -24.0 -54.9 -24.3 -58.5 L-23.75 -59.1 -23.35 -59.65 -23.3 -60.8 Q-23.1 -62.4 -23.95 -63.65 -28.4 -66.5 -33.35 -68.3 L-33.15 -68.65 Q-32.35 -69.45 -31.85 -70.4 L-31.85 -72.15 -31.85 -79.65 Q-33.85 -82.05 -37.2 -81.75 L-37.2 -82.9 -37.2 -85.8 -38.05 -86.9 Q-38.85 -87.9 -38.95 -89.05 -33.2 -85.85 -27.0 -88.7 -26.1 -90.85 -26.1 -93.3 -26.1 -99.3 -27.0 -104.85 L-26.5 -105.45 Q-25.35 -107.15 -24.15 -107.75 -20.75 -106.3 -18.95 -109.3 -18.6 -110.95 -18.5 -112.75 -18.25 -118.1 -19.5 -123.15 -17.05 -122.9 -15.3 -124.3 L-15.0 -125.45 Q-14.5 -128.2 -15.45 -130.65 L-16.3 -131.35 -16.45 -131.8 Q-12.95 -128.7 -9.1 -130.45 -8.6 -131.55 -8.7 -132.75 -9.0 -137.5 -6.6 -140.85 L-6.4 -139.7 -6.25 -139.1 Q-4.3 -137.35 -1.7 -138.65 2.35 -140.7 3.6 -138.9 4.2 -137.1 6.25 -137.35 L7.2 -137.8 7.85 -138.3 Q8.35 -138.0 9.0 -137.85 L9.15 -136.8 10.9 -135.85 11.65 -136.05 Q12.9 -136.55 13.95 -137.35 L14.15 -137.95 14.25 -138.25 14.6 -138.35 15.5 -139.35 15.55 -139.4 15.8 -138.3 15.9 -137.2 16.3 -136.6 16.65 -136.05 16.65 -135.45 16.65 -134.85 Q20.8 -131.2 26.65 -131.6" fill="#ffff00" fill-opacity="0.5019608" fill-rule="evenodd" stroke="none"/>
  </g>
</svg>
