<?xml version="1.0" encoding="UTF-8" standalone="no"?>
<svg xmlns:ffdec="https://www.free-decompiler.com/flash" xmlns:xlink="http://www.w3.org/1999/xlink" ffdec:objectType="shape" height="130.95px" width="67.8px" xmlns="http://www.w3.org/2000/svg">
  <g transform="matrix(1.0, 0.0, 0.0, 1.0, 28.0, 128.3)">
    <path d="M13.05 -124.85 Q16.5 -121.4 16.5 -116.5 16.5 -111.6 13.05 -108.15 9.65 -104.75 4.9 -104.7 5.4 -103.7 5.45 -102.3 L5.45 -101.75 Q7.2 -98.9 8.25 -95.65 L8.45 -95.7 9.35 -95.85 9.35 -95.95 Q12.5 -95.9 14.15 -93.3 L14.4 -92.8 14.1 -92.0 14.35 -91.1 14.4 -90.55 Q12.95 -88.65 11.1 -87.25 L12.1 -83.3 Q12.3 -82.45 12.15 -81.6 L12.2 -81.6 Q13.9 -83.45 16.55 -84.9 21.1 -87.35 24.8 -91.35 L27.15 -93.95 Q28.55 -96.6 30.8 -98.8 29.85 -100.8 31.95 -103.7 32.85 -104.9 34.0 -104.95 39.75 -104.7 39.4 -101.15 L39.75 -100.05 39.8 -99.5 38.1 -97.8 36.7 -96.4 35.1 -94.7 Q34.7 -93.0 32.35 -90.95 27.55 -86.9 24.3 -81.75 18.0 -77.55 11.3 -74.7 L10.85 -74.6 8.9 -75.0 8.85 -75.25 8.6 -76.35 Q6.05 -80.05 5.4 -84.5 L4.3 -84.2 Q1.6 -82.45 -1.15 -80.95 -2.6 -72.65 -3.65 -64.2 -2.75 -62.75 -2.8 -60.9 L-2.35 -60.25 -2.85 -60.3 Q-3.0 -59.15 -3.55 -57.85 1.35 -55.35 4.2 -49.8 6.25 -45.7 9.45 -42.5 12.55 -39.45 12.9 -35.45 13.85 -23.4 15.1 -11.45 L15.25 -6.4 15.3 -6.45 15.25 -5.15 Q21.35 -5.1 26.1 -1.7 26.75 -1.25 26.7 -0.35 24.9 3.55 20.2 2.35 L11.45 0.5 Q10.75 0.4 10.1 -0.15 L9.95 -0.75 9.9 -1.3 9.9 -1.85 9.35 -2.4 9.45 -5.1 Q7.85 -15.7 7.5 -26.7 L7.5 -28.95 7.65 -34.55 Q3.55 -38.55 0.8 -43.45 0.15 -44.5 0.2 -45.75 -1.45 -47.95 -3.55 -49.7 -4.35 -50.3 -4.5 -51.35 L-5.45 -51.9 Q-6.35 -47.5 -5.4 -42.95 -5.85 -42.05 -6.4 -41.45 -8.4 -30.45 -12.9 -20.35 L-14.55 -15.85 -14.95 -14.75 Q-18.2 -9.85 -21.15 -4.5 L-19.05 -5.4 -21.0 -3.45 -6.2 -2.7 Q-5.1 -2.6 -4.85 -1.5 L-4.65 -0.35 Q-5.25 1.8 -7.45 1.85 L-25.2 1.25 -25.4 1.3 -25.95 1.2 -27.25 0.6 -28.0 -0.15 Q-27.9 -6.85 -23.55 -12.5 L-23.15 -13.05 -23.0 -13.65 -22.8 -14.75 Q-21.6 -16.05 -20.65 -17.5 L-20.15 -18.1 Q-14.95 -31.4 -11.65 -45.1 -11.7 -53.0 -9.5 -60.45 L-9.85 -60.45 -9.75 -60.9 -9.1 -63.6 Q-8.85 -64.95 -9.15 -65.9 L-7.45 -77.8 Q-13.8 -75.0 -20.55 -73.15 -22.15 -73.4 -23.15 -74.65 L-23.25 -75.8 -23.35 -77.45 Q-13.65 -91.1 -2.9 -104.35 L-2.7 -105.35 -2.2 -106.9 -3.65 -108.15 Q-7.1 -111.6 -7.1 -116.5 -7.1 -121.4 -3.65 -124.85 -0.2 -128.3 4.7 -128.3 9.6 -128.3 13.05 -124.85 M3.65 -90.35 Q2.6 -92.9 1.7 -95.5 L0.3 -88.6 3.65 -90.35 M-6.3 -85.2 L-5.2 -91.8 Q-8.6 -87.05 -12.3 -82.45 -10.05 -83.2 -7.9 -84.35 L-6.3 -85.2" fill="#000000" fill-rule="evenodd" stroke="none"/>
  </g>
</svg>
