<?xml version="1.0" encoding="UTF-8" standalone="no"?>
<svg xmlns:ffdec="https://www.free-decompiler.com/flash" xmlns:xlink="http://www.w3.org/1999/xlink" ffdec:objectType="shape" height="154.8px" width="102.65px" xmlns="http://www.w3.org/2000/svg">
  <g transform="matrix(1.0, 0.0, 0.0, 1.0, 42.25, 141.5)">
    <path d="M26.5 -134.1 Q26.4 -131.2 26.75 -128.35 L38.1 -126.0 37.75 -125.4 36.55 -123.7 36.45 -123.2 33.5 -118.5 Q33.85 -116.35 36.2 -116.1 44.35 -115.3 50.05 -113.7 L49.6 -113.2 Q48.7 -112.5 48.85 -111.4 L49.6 -110.4 60.4 -101.0 Q56.9 -99.25 54.25 -96.6 L54.25 -94.85 54.25 -90.25 54.65 -89.65 Q55.5 -88.3 55.8 -86.75 L54.25 -86.7 Q47.6 -88.9 45.05 -83.9 L45.1 -80.4 Q45.2 -77.45 45.8 -74.65 L33.15 -73.65 Q32.5 -73.6 31.95 -73.1 32.05 -71.9 31.65 -70.85 30.8 -68.65 31.15 -66.15 27.5 -65.9 24.6 -64.25 L17.3 -59.8 17.35 -58.65 17.5 -57.5 Q18.55 -56.4 20.2 -56.35 22.25 -55.25 23.45 -53.45 L23.15 -52.35 21.15 -48.3 21.2 -47.15 21.35 -45.95 Q28.0 -44.65 33.5 -41.75 L33.3 -40.65 Q32.8 -39.5 32.7 -38.25 L31.35 -37.1 31.2 -36.55 31.0 -35.4 30.15 -34.15 27.3 -29.05 27.35 -27.9 27.5 -26.7 Q31.7 -25.1 36.35 -24.05 L36.55 -23.85 38.1 -22.3 37.95 -21.9 Q33.3 -18.35 29.65 -14.6 L29.75 -14.2 37.35 -8.85 37.0 -7.75 Q36.05 -5.8 36.75 -3.65 L37.4 -3.15 Q41.2 -1.15 42.7 2.7 L42.45 3.25 41.35 4.45 41.2 5.05 41.0 6.2 38.95 6.4 Q31.15 5.05 27.3 11.55 L23.65 11.0 Q14.65 6.05 7.1 13.3 -3.05 6.95 -14.05 12.15 -15.7 9.45 -18.55 8.4 -28.3 4.85 -38.5 8.1 -37.55 6.55 -37.45 4.85 L-37.35 -0.35 -37.7 -0.95 -38.1 -1.5 -38.1 -2.1 -38.1 -2.65 -38.5 -3.2 -39.05 -3.8 Q-37.4 -4.0 -36.2 -5.0 L-36.0 -5.55 -35.05 -7.3 -35.05 -10.75 Q-35.2 -18.85 -42.15 -21.7 L-42.25 -22.0 Q-36.95 -22.6 -32.15 -24.4 -23.65 -27.6 -31.2 -33.85 -26.35 -34.55 -22.7 -37.3 L-22.7 -39.6 -22.7 -44.25 Q-23.4 -45.55 -24.85 -45.95 -25.65 -47.75 -27.35 -48.85 L-27.1 -49.15 Q-21.85 -50.15 -19.65 -55.0 L-19.65 -55.6 Q-19.7 -57.3 -21.0 -58.5 L-21.05 -59.65 Q-21.05 -60.85 -21.55 -61.95 L-23.35 -63.15 Q-29.55 -68.65 -38.1 -68.3 L-38.1 -68.85 Q-38.2 -71.75 -40.8 -72.7 L-37.7 -73.1 Q-31.2 -73.15 -28.85 -78.85 L-28.85 -82.35 Q-28.8 -85.85 -29.65 -88.5 -24.95 -86.45 -20.8 -88.1 -20.2 -89.8 -20.0 -91.55 -19.6 -95.6 -21.95 -98.5 -21.95 -100.25 -22.25 -101.9 -23.05 -106.3 -25.8 -110.05 L-25.8 -110.65 -25.8 -111.2 -26.2 -111.75 -26.75 -112.35 Q-22.4 -111.6 -20.4 -115.05 L-20.4 -116.2 -20.4 -118.5 Q-17.35 -118.15 -15.8 -120.45 L-15.8 -121.6 -15.8 -125.05 -16.5 -126.25 Q-17.15 -127.6 -17.3 -129.1 -11.85 -128.3 -9.8 -133.9 L-9.7 -135.05 -9.65 -137.35 -8.65 -137.95 -8.35 -138.55 -7.3 -140.05 Q-4.35 -136.35 -0.2 -137.95 L0.15 -138.55 Q0.95 -140.25 2.5 -141.4 2.95 -141.8 3.25 -140.85 L3.65 -139.1 Q7.45 -137.05 11.95 -137.0 L11.9 -136.05 Q11.8 -134.85 12.1 -133.7 13.1 -132.55 14.6 -132.75 16.15 -133.6 17.7 -132.75 22.35 -135.75 26.55 -137.55 L26.5 -134.1" fill="#ffff00" fill-opacity="0.5019608" fill-rule="evenodd" stroke="none"/>
  </g>
</svg>
