<?xml version="1.0" encoding="UTF-8" standalone="no"?>
<svg xmlns:ffdec="https://www.free-decompiler.com/flash" xmlns:xlink="http://www.w3.org/1999/xlink" ffdec:objectType="shape" height="155.0px" width="104.1px" xmlns="http://www.w3.org/2000/svg">
  <g transform="matrix(1.0, 0.0, 0.0, 1.0, 43.05, 143.8)">
    <path d="M27.4 -128.35 Q27.5 -127.15 27.15 -126.0 L24.3 -121.4 24.25 -120.85 Q24.15 -119.9 24.5 -119.1 L42.0 -117.95 42.0 -116.8 42.0 -113.9 Q45.7 -109.3 52.75 -111.6 L52.85 -111.25 Q54.8 -106.75 50.45 -103.7 L50.45 -103.1 Q50.35 -102.2 50.65 -101.4 55.3 -96.05 61.05 -92.15 53.05 -92.55 46.6 -88.5 L46.6 -87.9 Q46.75 -84.15 49.7 -81.55 L43.9 -82.05 Q39.5 -82.5 38.15 -78.3 L38.15 -76.55 38.15 -70.8 27.8 -69.8 Q27.15 -69.75 26.6 -69.25 L26.6 -67.5 Q26.75 -63.75 26.4 -60.0 21.65 -60.35 17.75 -58.1 L17.5 -57.5 Q17.25 -56.3 17.55 -55.2 L19.45 -54.05 19.7 -53.5 20.45 -51.75 19.65 -50.6 19.7 -50.0 Q19.8 -49.1 19.45 -48.3 18.5 -47.6 18.1 -46.55 L18.1 -45.95 18.1 -44.8 Q18.6 -44.25 19.2 -44.05 27.05 -41.9 34.5 -39.05 29.75 -32.4 22.75 -27.5 L22.7 -26.9 Q22.65 -26.0 22.95 -25.2 24.8 -23.7 27.35 -23.85 30.8 -22.45 33.35 -20.0 31.25 -17.1 29.65 -14.2 35.75 -11.2 41.2 -6.7 35.95 -5.4 31.2 -3.45 L31.2 -2.3 31.2 0.05 34.1 4.65 Q29.85 3.9 27.35 6.95 L27.35 7.55 27.15 8.7 26.6 9.25 21.8 9.05 Q20.3 7.8 18.3 7.9 12.3 4.15 9.45 10.2 -0.35 8.0 -9.95 11.2 -13.1 9.15 -16.95 8.7 L-30.35 7.7 Q-31.8 4.95 -34.5 3.5 L-43.05 -1.15 -42.35 -1.4 -41.55 -1.9 Q-41.05 -3.0 -41.1 -4.2 -41.3 -8.4 -42.7 -12.3 -36.15 -10.15 -32.1 -14.6 L-31.9 -15.75 Q-31.25 -20.15 -33.45 -23.85 L-33.4 -24.4 Q-33.35 -25.3 -33.65 -26.15 -34.8 -27.2 -35.2 -28.45 -29.8 -27.45 -26.5 -31.15 L-26.45 -32.3 Q-26.3 -34.1 -26.9 -35.75 -31.35 -38.9 -33.05 -41.95 -29.8 -42.75 -26.9 -44.25 -26.7 -44.8 -26.65 -45.4 -26.5 -47.1 -26.5 -48.85 L-30.75 -51.95 Q-31.15 -52.9 -29.6 -53.1 L-28.9 -53.85 Q-23.85 -57.05 -24.2 -62.7 L-25.0 -63.85 -25.0 -64.45 -25.0 -66.15 -24.2 -67.35 -24.2 -67.9 -24.2 -69.65 Q-24.8 -70.85 -26.15 -71.2 -30.65 -69.25 -34.2 -71.0 L-33.75 -72.1 Q-32.1 -75.0 -32.7 -78.5 L-29.2 -78.1 Q-27.9 -78.4 -27.3 -79.65 L-27.3 -80.2 -27.3 -81.95 -27.7 -82.55 Q-30.35 -86.4 -32.5 -90.6 -33.65 -91.25 -34.4 -92.35 -29.8 -91.6 -25.55 -92.55 L-25.0 -93.7 Q-23.75 -96.65 -24.2 -100.05 L-21.15 -100.25 Q-17.9 -97.65 -14.6 -99.65 -13.55 -104.45 -15.35 -109.05 -15.65 -109.8 -16.25 -110.2 -20.55 -113.15 -25.0 -115.8 L-24.7 -116.35 Q-23.1 -118.4 -23.45 -121.0 -22.55 -121.8 -21.9 -122.75 -21.25 -127.9 -25.75 -130.85 -16.15 -129.45 -16.5 -138.15 -14.2 -135.9 -11.15 -137.0 L-8.8 -139.7 -8.75 -140.25 -8.6 -140.85 -8.2 -141.4 Q-7.25 -142.4 -6.7 -143.7 -6.2 -144.05 -5.6 -143.3 L-2.75 -139.4 Q2.6 -131.15 10.45 -135.45 L10.75 -135.85 11.0 -136.4 11.95 -136.2 12.0 -135.65 12.15 -134.5 13.9 -133.55 Q15.2 -133.85 15.8 -135.05 L15.95 -136.2 Q16.35 -138.2 16.8 -138.15 L17.1 -137.0 Q17.15 -134.25 18.1 -131.8 18.6 -131.2 19.2 -130.75 22.65 -128.05 27.35 -129.3 L27.4 -128.35" fill="#ffff00" fill-opacity="0.5019608" fill-rule="evenodd" stroke="none"/>
  </g>
</svg>
