<?xml version="1.0" encoding="UTF-8" standalone="no"?>
<svg xmlns:ffdec="https://www.free-decompiler.com/flash" xmlns:xlink="http://www.w3.org/1999/xlink" ffdec:objectType="shape" height="160.55px" width="106.6px" xmlns="http://www.w3.org/2000/svg">
  <g transform="matrix(1.0, 0.0, 0.0, 1.0, 48.3, 145.9)">
    <path d="M21.25 -144.3 L21.15 -138.55 21.65 -137.9 21.95 -137.35 21.9 -136.2 Q21.8 -135.3 22.15 -134.5 28.7 -133.15 35.6 -136.2 35.9 -135.4 35.5 -134.65 32.3 -128.8 28.1 -123.5 L28.05 -122.35 Q28.0 -121.45 28.3 -120.65 32.1 -118.2 36.55 -119.1 36.75 -118.2 37.55 -117.75 43.45 -114.45 50.6 -118.3 53.35 -115.5 56.55 -113.15 L57.2 -112.0 58.3 -109.65 Q55.05 -108.4 52.7 -106.0 L52.75 -104.85 52.9 -103.7 Q54.8 -101.05 57.35 -99.1 55.35 -97.7 52.9 -96.4 L52.55 -94.0 Q51.8 -90.95 51.95 -87.75 L52.45 -87.1 52.7 -86.55 52.75 -85.4 Q52.9 -83.3 53.7 -81.4 49.6 -81.85 45.8 -80.8 L45.5 -80.4 43.5 -76.95 43.5 -75.8 43.5 -74.05 43.1 -73.5 42.7 -72.9 42.75 -71.2 Q42.85 -68.9 42.5 -66.75 26.7 -72.8 14.25 -63.1 L14.2 -61.95 Q14.1 -60.45 14.45 -59.05 L23.45 -56.15 22.95 -55.0 Q22.6 -54.2 22.7 -53.3 L22.3 -52.7 21.95 -52.15 21.95 -50.95 21.95 -49.25 Q26.3 -43.75 33.5 -43.65 32.1 -42.7 31.15 -41.35 31.25 -40.35 30.65 -39.55 28.05 -36.1 28.85 -31.55 32.25 -26.35 38.1 -23.85 32.7 -21.4 29.65 -16.5 L29.6 -15.35 Q29.5 -14.45 29.8 -13.65 L38.85 -4.4 38.85 -3.25 38.85 -1.5 39.4 -0.9 Q40.9 0.9 41.2 3.1 36.3 2.0 33.5 5.4 L33.4 6.55 Q33.15 8.45 34.05 10.05 L20.85 11.15 Q18.85 11.4 17.5 12.9 L17.35 13.5 17.1 14.65 15.8 14.65 Q6.3 7.95 -5.3 10.2 -7.7 10.7 -9.05 12.75 -17.3 5.0 -28.1 6.2 -31.25 9.75 -36.0 8.3 L-48.3 -1.5 -48.05 -2.05 -46.75 -3.8 -46.4 -4.9 Q-45.6 -6.55 -45.8 -8.45 -40.65 -7.05 -36.95 -9.6 -36.4 -11.0 -36.3 -12.45 -36.05 -18.0 -38.9 -22.3 -35.05 -22.85 -31.75 -24.8 -31.05 -25.9 -30.8 -27.15 -29.8 -32.2 -31.35 -36.9 -24.25 -36.65 -20.4 -42.7 L-20.4 -43.85 -20.4 -47.3 -20.8 -47.9 -21.15 -48.45 -21.15 -49.6 Q-21.05 -50.85 -21.55 -51.95 L-20.85 -53.55 Q-20.0 -56.05 -20.4 -58.85 L-20.8 -59.4 -21.95 -60.6 -21.75 -62.3 Q-21.1 -65.1 -21.15 -68.1 -25.95 -70.8 -31.75 -71.0 L-34.45 -73.85 Q-32.3 -73.8 -30.8 -75.0 L-30.6 -75.6 -29.65 -77.35 -29.65 -80.2 -29.65 -90.05 Q-27.85 -90.1 -26.35 -91.0 -25.05 -93.5 -24.9 -96.2 -24.35 -105.8 -31.35 -112.95 L-30.9 -114.05 Q-29.7 -116.5 -29.65 -119.3 -24.4 -117.1 -21.35 -120.8 L-21.0 -123.25 Q-20.25 -126.55 -20.4 -130.05 -15.25 -128.2 -12.7 -132.75 L-12.45 -135.1 Q-11.55 -138.15 -11.15 -141.4 -9.8 -140.95 -8.9 -140.05 -1.5 -132.95 5.4 -140.25 10.15 -135.25 15.6 -137.75 L15.65 -138.3 15.4 -139.5 Q16.65 -140.05 17.3 -141.2 L17.3 -141.8 17.3 -142.95 17.75 -143.5 20.0 -145.85 Q21.3 -146.2 21.25 -144.3" fill="#ffff00" fill-opacity="0.5019608" fill-rule="evenodd" stroke="none"/>
  </g>
</svg>
