<?xml version="1.0" encoding="UTF-8" standalone="no"?>
<svg xmlns:ffdec="https://www.free-decompiler.com/flash" xmlns:xlink="http://www.w3.org/1999/xlink" ffdec:objectType="shape" height="130.95px" width="68.55px" xmlns="http://www.w3.org/2000/svg">
  <g transform="matrix(1.0, 0.0, 0.0, 1.0, 28.0, 128.3)">
    <path d="M13.8 -124.85 Q17.25 -121.4 17.25 -116.5 17.25 -111.6 13.8 -108.15 10.4 -104.75 5.65 -104.7 6.15 -103.7 6.2 -102.3 L6.2 -101.75 Q7.95 -98.9 9.0 -95.65 L9.2 -95.7 10.1 -95.85 10.1 -95.95 Q13.25 -95.9 14.9 -93.3 L15.15 -92.8 14.85 -92.0 15.1 -91.1 15.15 -90.55 Q13.7 -88.65 11.85 -87.25 L12.85 -83.3 12.9 -81.6 12.95 -81.6 Q14.65 -83.45 17.3 -84.9 21.85 -87.35 25.55 -91.35 L27.9 -93.95 Q29.3 -96.6 31.55 -98.8 30.6 -100.8 32.7 -103.7 33.6 -104.9 34.75 -104.95 40.5 -104.7 40.15 -101.15 L40.5 -100.05 40.55 -99.5 38.85 -97.8 37.45 -96.4 35.85 -94.7 Q35.45 -93.0 33.1 -90.95 28.3 -86.9 25.05 -81.75 18.75 -77.55 12.05 -74.7 L11.15 -74.6 9.75 -73.35 9.95 -74.45 9.75 -74.65 9.6 -75.25 9.35 -76.35 Q6.8 -80.05 6.15 -84.5 L5.05 -84.2 Q2.35 -82.45 -0.4 -80.95 -1.85 -72.55 -2.95 -64.05 -3.05 -63.15 -3.4 -62.4 -0.6 -59.6 1.1 -55.5 1.85 -53.6 3.2 -51.9 5.75 -48.6 8.95 -45.75 13.6 -41.85 14.25 -36.25 16.0 -20.7 15.25 -5.15 21.35 -5.1 26.1 -1.7 26.75 -1.25 26.7 -0.35 24.9 3.55 20.2 2.35 L11.45 0.5 Q10.75 0.4 10.1 -0.15 L9.95 -0.75 9.9 -1.3 9.9 -1.85 9.35 -2.4 9.45 -5.1 10.7 -4.75 Q10.0 -17.35 8.9 -29.75 L8.2 -36.95 Q1.15 -44.2 -4.35 -52.25 -5.25 -48.9 -5.75 -45.5 -7.6 -32.25 -12.9 -20.35 L-14.55 -15.85 -14.95 -14.75 Q-18.2 -9.85 -21.15 -4.5 L-19.05 -5.4 -21.0 -3.45 -6.2 -2.7 Q-5.1 -2.6 -4.85 -1.5 L-4.65 -0.35 Q-5.25 1.8 -7.45 1.85 L-25.2 1.25 -25.4 1.3 -25.95 1.2 -27.25 0.6 -28.0 -0.15 Q-27.9 -6.85 -23.55 -12.5 L-23.15 -13.05 -23.0 -13.65 -22.8 -14.75 Q-21.6 -16.05 -20.65 -17.5 L-20.15 -18.1 Q-12.3 -38.15 -8.85 -59.15 L-9.85 -58.8 -9.95 -58.8 -9.9 -58.85 -9.9 -61.05 -9.9 -63.25 -9.1 -64.35 -8.55 -64.95 -6.7 -77.8 Q-13.05 -75.0 -19.8 -73.15 -21.4 -73.4 -22.4 -74.65 L-22.5 -75.8 -22.6 -77.45 Q-12.9 -91.1 -2.15 -104.35 L-1.95 -105.35 -1.45 -106.9 -2.9 -108.15 Q-6.35 -111.6 -6.35 -116.5 -6.35 -121.4 -2.9 -124.85 0.55 -128.3 5.45 -128.3 10.35 -128.3 13.8 -124.85 M2.45 -95.5 L1.05 -88.6 4.4 -90.35 2.45 -95.5 M-7.15 -84.35 L-5.55 -85.2 -4.45 -91.8 Q-7.85 -87.05 -11.55 -82.45 -9.3 -83.2 -7.15 -84.35" fill="#000000" fill-rule="evenodd" stroke="none"/>
  </g>
</svg>
