<?xml version="1.0" encoding="UTF-8" standalone="no"?>
<svg xmlns:ffdec="https://www.free-decompiler.com/flash" xmlns:xlink="http://www.w3.org/1999/xlink" ffdec:objectType="shape" height="158.2px" width="100.05px" xmlns="http://www.w3.org/2000/svg">
  <g transform="matrix(1.0, 0.0, 0.0, 1.0, 43.5, 142.4)">
    <path d="M21.15 -142.4 Q22.35 -142.5 22.1 -140.45 21.8 -137.8 22.15 -135.25 28.0 -133.65 34.05 -134.7 L33.3 -133.7 Q29.95 -128.95 25.8 -124.5 L25.85 -123.35 26.0 -122.15 Q29.0 -120.8 32.35 -120.45 32.95 -119.15 32.8 -117.55 32.55 -115.2 32.9 -112.95 40.0 -111.35 45.05 -118.3 46.5 -116.25 48.65 -115.75 L56.55 -114.65 Q52.55 -112.85 50.4 -109.1 L50.45 -107.95 50.6 -106.8 52.2 -105.65 Q55.05 -102.95 56.2 -100.45 L55.45 -100.15 Q53.25 -99.15 51.95 -97.35 L51.95 -96.75 51.95 -95.6 51.55 -95.05 50.4 -93.9 50.45 -91.6 Q50.55 -89.5 50.2 -87.55 L49.3 -87.1 Q46.65 -85.75 45.05 -83.5 L45.05 -82.35 Q45.15 -81.45 44.85 -80.6 43.9 -79.65 43.75 -78.25 L43.5 -73.1 40.4 -72.35 40.0 -72.0 Q36.05 -70.0 32.7 -66.95 L21.25 -65.65 20.4 -65.0 20.35 -63.85 Q20.3 -62.95 20.6 -62.15 L21.2 -61.6 22.3 -60.8 22.1 -60.2 21.55 -59.05 Q19.55 -58.0 18.1 -56.15 L18.1 -55.0 18.1 -53.3 Q22.4 -50.15 27.3 -47.7 L27.15 -46.6 Q26.3 -44.0 24.25 -41.95 L24.2 -40.75 Q24.15 -39.85 24.45 -39.05 28.1 -37.2 31.95 -35.6 L32.2 -35.25 Q33.1 -34.5 33.5 -33.45 L33.25 -32.45 Q31.3 -28.8 28.1 -26.55 L28.2 -25.4 28.5 -24.2 Q33.7 -21.55 37.5 -17.5 L37.8 -17.0 Q39.1 -15.65 38.85 -14.6 34.5 -14.55 33.5 -11.15 33.9 -9.75 35.4 -9.4 42.25 -3.45 48.5 3.85 L37.8 4.9 Q35.35 5.25 34.25 7.35 L34.3 9.05 Q34.4 11.15 34.05 13.1 31.65 12.9 29.6 11.95 18.2 6.6 10.75 15.8 L9.8 15.8 Q8.8 14.3 7.0 13.8 -3.2 11.15 -13.3 15.4 -13.85 13.9 -15.4 13.45 -23.1 11.0 -31.35 12.9 L-31.85 11.9 -32.15 10.8 -32.55 10.25 Q-34.85 7.55 -37.7 5.6 -40.4 2.8 -43.5 1.0 L-43.05 -0.2 -42.55 -2.5 Q-41.25 -2.8 -40.4 -3.8 -37.05 -3.2 -34.65 -5.0 -34.1 -6.35 -34.15 -7.85 -34.25 -12.25 -35.2 -15.95 -29.95 -15.55 -26.75 -19.2 -26.45 -20.6 -26.45 -22.1 -26.6 -27.05 -29.65 -30.75 -26.6 -30.4 -25.7 -32.9 -23.55 -38.85 -24.45 -45.4 L-24.85 -45.95 -25.4 -46.55 -20.8 -48.85 -20.6 -49.45 -20.4 -50.0 Q-18.85 -50.4 -18.3 -51.75 -17.95 -53.15 -18.0 -54.65 L-18.1 -59.25 -17.05 -60.95 Q-16.2 -62.85 -16.55 -65.0 -21.0 -67.75 -26.55 -65.6 L-26.55 -66.15 -26.55 -67.35 Q-29.4 -71.35 -33.5 -72.15 L-33.45 -72.7 -33.3 -73.85 Q-31.75 -75.5 -30.55 -77.4 -27.65 -82.0 -29.65 -87.15 L-29.1 -87.75 -28.1 -88.9 -28.1 -89.45 -28.1 -90.05 -27.7 -90.6 -27.35 -91.2 -27.35 -93.5 Q-27.5 -96.75 -29.45 -99.25 L-29.55 -99.85 Q-29.65 -100.85 -30.4 -101.6 L-19.3 -102.5 Q-17.7 -102.7 -16.75 -103.9 -16.45 -105.0 -16.45 -106.2 L-16.55 -110.25 Q-14.8 -110.65 -13.45 -111.9 -9.2 -115.85 -10.4 -122.0 L-10.85 -122.45 -14.25 -125.25 -14.2 -127.0 Q-14.1 -128.15 -14.45 -129.3 L-14.9 -129.8 Q-15.7 -130.55 -16.0 -131.6 -9.1 -130.8 -7.3 -136.8 L-6.9 -137.35 -6.35 -137.95 Q-1.7 -136.05 3.1 -137.35 L3.65 -138.4 Q4.9 -139.95 5.4 -141.8 L6.2 -141.1 Q8.95 -137.95 12.7 -138.55 L12.9 -138.35 Q13.85 -137.15 15.4 -137.35 L16.25 -137.9 Q18.85 -139.95 21.15 -142.4" fill="#ffff00" fill-opacity="0.5019608" fill-rule="evenodd" stroke="none"/>
  </g>
</svg>
