<?xml version="1.0" encoding="UTF-8" standalone="no"?>
<svg xmlns:ffdec="https://www.free-decompiler.com/flash" xmlns:xlink="http://www.w3.org/1999/xlink" ffdec:objectType="shape" height="156.45px" width="107.15px" xmlns="http://www.w3.org/2000/svg">
  <g transform="matrix(1.0, 0.0, 0.0, 1.0, 42.9, 142.4)">
    <path d="M24.65 -136.6 L24.8 -137.2 Q25.75 -140.2 28.85 -141.2 L28.8 -136.6 Q28.7 -132.8 29.05 -129.1 29.9 -128.6 30.85 -128.45 L40.2 -127.2 39.95 -126.55 39.25 -124.85 38.55 -124.25 38.1 -123.7 38.05 -122.55 37.9 -122.0 Q36.55 -121.15 35.85 -119.75 34.55 -117.2 35.2 -114.45 L50.4 -113.3 50.35 -112.15 Q50.3 -111.0 50.6 -109.85 51.45 -109.35 52.4 -109.25 L59.65 -108.5 59.7 -107.55 Q59.75 -106.65 59.45 -105.8 L58.7 -105.2 Q56.75 -103.55 56.55 -101.2 56.95 -100.15 57.9 -99.45 62.15 -96.3 64.25 -91.95 63.5 -91.4 62.75 -91.45 57.9 -91.75 55.8 -88.1 L55.8 -86.95 55.8 -84.65 56.3 -84.0 56.55 -83.5 56.55 -82.35 56.55 -80.05 46.25 -78.95 Q45.2 -78.8 44.45 -77.9 L44.0 -74.95 43.3 -69.25 29.25 -68.7 28.1 -68.5 27.45 -67.45 27.3 -66.95 Q27.3 -66.65 27.45 -66.5 29.0 -64.85 29.8 -62.9 L29.25 -62.55 Q26.25 -61.15 25.0 -58.5 25.65 -55.8 28.65 -55.6 L31.35 -53.45 30.7 -51.8 Q28.95 -48.1 25.8 -45.4 L25.8 -44.25 25.8 -42.5 Q31.9 -38.15 40.0 -38.45 L39.4 -37.55 Q35.6 -32.9 31.15 -28.85 L31.15 -27.7 31.15 -27.1 Q31.35 -26.8 31.65 -26.65 35.0 -24.4 38.7 -22.5 L38.85 -21.5 38.85 -20.95 Q35.9 -18.95 33.5 -16.5 33.5 -15.35 33.95 -14.45 36.1 -10.15 39.25 -6.7 33.45 -4.9 28.85 -1.9 L28.85 -0.75 28.85 -0.15 30.2 1.75 Q32.9 5.45 33.85 8.1 L27.55 8.25 Q22.7 10.5 18.65 12.15 9.9 8.7 1.35 14.05 L0.55 12.85 Q-0.1 11.5 -1.5 11.1 -9.6 8.65 -17.9 12.15 -19.95 8.7 -23.3 6.65 -29.95 2.6 -38.1 3.85 L-41.95 1.2 -41.95 0.8 -40.6 -0.75 Q-40.3 -1.85 -40.3 -3.05 -40.3 -5.4 -40.6 -7.65 L-41.45 -8.9 Q-42.4 -10.5 -42.9 -12.3 L-33.9 -13.1 Q-33.5 -13.15 -33.3 -13.55 -30.0 -19.75 -31.2 -27.3 -27.65 -26.25 -24.85 -27.9 L-23.45 -31.4 Q-21.95 -34.8 -23.3 -38.25 -23.75 -38.55 -24.0 -39.0 L-24.25 -40.0 Q-20.95 -42.6 -18.1 -45.75 L-17.65 -47.9 Q-16.1 -51.35 -18.85 -53.85 L-18.85 -55.0 -18.85 -55.6 Q-15.25 -56.5 -12.9 -59.25 L-12.75 -60.4 -12.7 -62.7 -13.15 -63.2 Q-15.85 -65.4 -19.05 -66.95 -19.55 -68.05 -19.55 -69.25 -19.5 -71.6 -19.8 -73.85 -21.75 -76.95 -25.4 -76.75 L-26.0 -77.1 -29.25 -78.85 Q-29.85 -79.6 -29.8 -80.6 -29.65 -82.6 -29.65 -84.65 -24.4 -83.35 -20.2 -85.6 -19.3 -87.2 -19.5 -89.1 -19.75 -92.3 -20.4 -95.4 -15.15 -94.5 -10.2 -95.6 -9.3 -97.45 -9.45 -99.65 -9.75 -104.0 -11.95 -107.75 L-11.95 -108.9 -11.95 -109.45 Q-9.7 -110.0 -8.3 -111.6 L-7.65 -114.4 Q-7.0 -117.2 -7.1 -120.25 L-6.6 -120.85 -5.8 -122.0 Q-5.8 -124.3 -6.25 -126.5 -7.3 -131.3 -8.85 -135.85 L-8.4 -136.2 Q-5.4 -137.35 -3.1 -139.3 -1.9 -136.75 0.75 -136.6 L1.7 -137.0 Q5.5 -138.75 7.9 -142.4 L8.5 -142.15 Q13.5 -134.5 22.3 -134.5 L22.8 -134.95 Q23.55 -135.95 24.65 -136.6" fill="#ffff00" fill-opacity="0.5019608" fill-rule="evenodd" stroke="none"/>
  </g>
</svg>
