<?xml version="1.0" encoding="UTF-8" standalone="no"?>
<svg xmlns:ffdec="https://www.free-decompiler.com/flash" xmlns:xlink="http://www.w3.org/1999/xlink" ffdec:objectType="shape" height="156.45px" width="101.8px" xmlns="http://www.w3.org/2000/svg">
  <g transform="matrix(1.0, 0.0, 0.0, 1.0, 42.55, 143.55)">
    <path d="M24.65 -143.55 Q25.35 -143.45 25.45 -141.45 25.6 -138.0 26.0 -134.5 31.9 -133.25 37.35 -133.35 L37.15 -132.25 36.15 -128.7 35.0 -127.55 34.8 -126.5 Q33.45 -123.85 32.7 -121.2 33.1 -119.8 34.5 -119.3 L35.8 -119.1 Q45.65 -119.2 52.9 -116.4 L52.7 -116.0 51.2 -113.7 51.15 -113.15 Q51.05 -112.2 51.4 -111.4 53.85 -108.8 56.75 -106.8 L55.25 -105.6 54.9 -103.2 Q54.25 -100.1 55.05 -96.95 L55.6 -96.35 Q56.7 -95.05 57.35 -93.5 L57.35 -92.9 57.35 -92.35 Q58.7 -91.45 59.25 -90.05 53.5 -90.25 49.65 -86.95 L49.65 -85.2 49.65 -80.05 Q40.1 -82.75 35.0 -75.0 L35.0 -73.85 35.0 -69.25 Q27.6 -70.3 21.95 -66.15 L21.9 -65.0 Q21.8 -63.55 22.15 -62.15 25.4 -60.6 26.35 -58.3 25.5 -56.75 24.05 -55.65 19.4 -52.1 19.8 -46.75 27.2 -41.85 35.2 -40.2 L35.0 -39.8 34.45 -38.65 Q32.25 -37.6 30.4 -36.15 L30.35 -34.4 Q30.25 -32.05 30.6 -29.8 33.55 -28.0 36.55 -26.35 37.35 -24.95 39.05 -24.8 34.2 -22.45 30.4 -18.45 L30.35 -17.3 Q30.15 -14.85 30.8 -12.7 34.25 -9.8 36.55 -6.9 32.8 -6.05 30.4 -3.05 L30.35 -1.3 Q30.25 1.05 30.6 3.3 L31.05 3.95 32.7 6.2 Q26.95 6.1 22.5 9.3 21.15 10.25 19.65 10.15 9.25 9.5 -0.65 12.45 -4.6 13.6 -8.5 11.65 -18.95 6.55 -29.65 9.25 L-30.4 9.45 -41.2 6.2 Q-40.65 5.0 -40.7 3.9 L-41.2 -1.9 -41.5 -2.5 -41.95 -3.65 Q-40.75 -6.05 -41.0 -8.85 -41.4 -13.0 -42.55 -16.9 -38.2 -16.8 -34.65 -18.85 L-33.9 -20.7 Q-31.9 -23.5 -31.55 -26.7 -26.65 -21.4 -19.65 -23.05 -16.65 -26.4 -16.65 -30.95 -16.65 -38.1 -19.65 -44.25 L-20.4 -45.4 -20.4 -45.95 -20.4 -46.55 Q-21.2 -47.85 -22.35 -48.85 -21.2 -49.85 -20.4 -51.15 L-20.4 -51.75 -20.4 -52.3 -19.65 -53.5 Q-18.5 -55.6 -18.85 -58.1 L-19.65 -59.25 -19.65 -59.8 -19.65 -60.4 -20.05 -60.95 Q-20.75 -61.75 -21.75 -62.15 L-21.1 -64.25 Q-20.3 -69.8 -25.8 -71.55 L-26.0 -73.85 Q-26.6 -77.45 -27.5 -80.8 -24.5 -83.8 -24.0 -88.25 -23.25 -94.25 -23.5 -100.45 -20.25 -99.4 -16.95 -99.85 -15.2 -101.45 -13.75 -103.35 L-5.8 -113.5 Q-5.8 -117.95 -5.95 -122.2 -6.15 -128.95 -8.65 -134.85 L-5.4 -138.7 -1.65 -135.7 Q-0.95 -135.25 -0.35 -135.2 5.65 -134.6 6.9 -141.2 12.35 -137.1 19.25 -137.35 L20.1 -137.9 Q22.75 -140.35 24.65 -143.55" fill="#ffff00" fill-opacity="0.5019608" fill-rule="evenodd" stroke="none"/>
  </g>
</svg>
