<?xml version="1.0" encoding="UTF-8" standalone="no"?>
<svg xmlns:ffdec="https://www.free-decompiler.com/flash" xmlns:xlink="http://www.w3.org/1999/xlink" ffdec:objectType="shape" height="171.85px" width="100.7px" xmlns="http://www.w3.org/2000/svg">
  <g transform="matrix(1.0, 0.0, 0.0, 1.0, 46.85, 148.9)">
    <path d="M-2.5 -142.75 L-6.15 -142.35 Q-5.8 -145.9 -3.2 -148.8 L-0.2 -148.45 Q5.25 -145.95 10.3 -142.75 L-2.5 -142.75 M26.05 -133.95 L26.25 -134.2 26.7 -134.95 28.2 -136.2 31.75 -136.15 32.4 -134.0 Q33.8 -126.65 36.1 -119.45 40.7 -118.1 45.4 -120.15 45.4 -118.3 45.0 -116.55 44.05 -112.45 43.4 -108.25 L43.15 -107.9 42.4 -107.15 42.4 -106.4 Q42.35 -105.45 42.55 -104.55 47.05 -101.15 52.45 -99.85 L52.6 -99.75 53.85 -98.7 51.7 -95.4 Q50.2 -93.3 48.05 -91.95 44.8 -89.9 42.4 -87.2 L42.4 -86.45 Q42.2 -84.5 42.8 -82.7 37.7 -82.25 33.5 -80.25 L33.5 -79.5 33.5 -78.4 40.05 -68.35 Q34.8 -66.8 29.55 -64.5 L29.55 -63.75 29.55 -62.65 29.8 -62.25 30.4 -61.5 30.5 -60.75 30.9 -55.95 Q26.15 -51.85 20.6 -49.0 L20.65 -48.25 20.7 -47.5 Q21.4 -46.8 22.45 -46.75 30.3 -42.65 37.45 -37.6 33.55 -33.65 29.05 -30.15 L29.05 -29.4 29.05 -26.8 Q33.9 -22.7 38.95 -19.0 L38.95 -18.25 38.95 -17.5 37.6 -16.35 Q33.5 -13.55 30.5 -9.7 L30.5 -8.95 Q30.45 -8.35 30.65 -7.8 38.45 -5.95 43.4 -0.25 L39.95 4.6 39.9 5.3 40.05 7.55 46.75 14.0 Q44.1 14.95 41.2 14.65 33.35 13.8 27.55 17.95 L27.55 18.7 27.4 20.85 Q19.55 17.55 12.1 13.35 L7.7 10.65 Q3.15 7.7 -0.25 10.65 L-0.25 11.0 Q-0.6 12.5 -1.7 13.65 L-1.75 14.0 Q-2.65 18.05 -4.7 21.45 L-4.75 21.8 -4.95 22.55 -5.8 22.95 Q-11.15 17.75 -15.55 12.1 -16.9 10.3 -18.5 11.95 L-25.55 19.1 -25.55 18.7 Q-25.65 17.3 -26.9 16.5 L-27.0 16.1 -27.15 15.35 -28.5 13.9 -28.5 13.5 -28.5 13.15 -29.2 11.9 Q-29.45 11.3 -30.15 11.3 -36.35 11.0 -41.4 15.1 L-41.4 14.1 Q-40.65 9.0 -40.9 3.7 -42.7 0.35 -46.85 0.5 L-46.05 -0.15 Q-37.1 -5.15 -38.8 -14.75 -41.15 -17.2 -44.4 -17.85 L-44.65 -18.1 -45.35 -18.85 -45.35 -19.25 -45.35 -19.95 -41.7 -21.95 Q-38.7 -23.1 -35.6 -23.7 -27.4 -25.25 -21.55 -31.0 L-21.55 -31.75 -21.55 -32.5 Q-26.55 -36.9 -32.5 -40.2 -30.4 -40.35 -28.55 -41.25 L-27.35 -41.65 Q-18.5 -43.15 -11.65 -48.35 -11.2 -51.75 -14.1 -53.8 L-21.3 -58.55 -21.45 -58.75 Q-22.25 -59.8 -23.55 -60.05 L-23.75 -60.3 -24.05 -61.0 -22.2 -61.75 Q-13.05 -65.3 -13.75 -74.4 -14.5 -75.65 -15.9 -75.9 L-22.55 -76.75 -21.05 -78.65 -21.05 -79.35 -20.95 -80.1 Q-18.0 -83.8 -17.1 -88.3 L-16.85 -88.65 -16.6 -89.05 -16.6 -89.8 -16.6 -90.55 Q-23.25 -93.25 -30.85 -93.9 L-30.5 -94.25 -17.45 -98.85 -17.25 -99.25 -16.25 -100.7 -16.15 -101.45 -16.1 -102.95 Q-17.6 -105.85 -19.85 -108.15 L-20.0 -108.45 Q-21.55 -110.35 -22.05 -112.6 L-15.85 -112.45 -3.45 -110.5 -3.15 -110.8 -2.7 -111.5 Q-3.75 -114.55 -7.2 -115.1 L-6.95 -115.45 -6.7 -115.85 -6.7 -116.2 -6.7 -116.95 -6.4 -117.3 -5.8 -118.05 Q-5.6 -118.8 -6.05 -119.25 -11.3 -124.95 -15.6 -131.45 L-15.7 -132.2 Q-15.9 -133.05 -15.6 -133.7 L-6.9 -135.9 -3.5 -136.05 19.25 -136.25 Q22.5 -134.1 26.05 -133.95" fill="#ffff00" fill-opacity="0.5019608" fill-rule="evenodd" stroke="none"/>
  </g>
</svg>
