<?xml version="1.0" encoding="UTF-8" standalone="no"?>
<svg xmlns:ffdec="https://www.free-decompiler.com/flash" xmlns:xlink="http://www.w3.org/1999/xlink" ffdec:objectType="shape" height="131.05px" width="66.9px" xmlns="http://www.w3.org/2000/svg">
  <g transform="matrix(1.0, 0.0, 0.0, 1.0, 27.8, 128.45)">
    <path d="M14.5 -128.45 Q19.35 -128.45 22.75 -125.05 26.15 -121.6 26.15 -116.75 26.15 -111.9 22.75 -108.5 19.35 -105.1 14.5 -105.1 L13.7 -105.1 13.6 -104.55 13.2 -103.15 12.8 -101.5 14.25 -99.15 27.6 -99.95 Q25.75 -103.4 28.6 -106.05 29.2 -106.6 29.9 -106.65 34.95 -106.15 33.65 -100.7 L33.55 -100.3 35.4 -100.4 Q38.55 -100.6 39.0 -97.75 39.55 -94.45 36.35 -93.3 33.3 -92.25 32.0 -94.85 L31.2 -94.8 30.7 -94.05 17.2 -73.7 Q16.85 -73.1 16.05 -73.35 12.35 -74.6 12.2 -78.85 12.05 -83.95 11.1 -88.85 L9.85 -81.2 9.35 -80.2 7.8 -73.3 7.25 -72.0 Q6.45 -65.8 4.75 -59.95 5.2 -58.75 4.95 -57.0 6.2 -55.7 6.7 -53.65 7.3 -50.95 8.85 -48.6 13.7 -41.4 17.9 -33.7 20.85 -30.25 19.8 -25.7 L19.25 -23.0 Q18.6 -19.05 17.35 -15.35 17.0 -10.35 15.5 -5.6 15.15 -4.55 15.15 -3.35 L21.6 -2.55 Q23.65 -2.25 23.45 -0.2 23.2 2.0 21.05 2.05 16.1 2.15 11.2 1.8 9.5 1.65 9.45 0.0 9.35 -4.85 10.7 -9.55 L11.7 -14.25 12.45 -17.95 12.85 -18.6 Q13.95 -22.65 14.1 -26.85 L14.3 -29.05 Q10.75 -35.8 6.4 -42.1 L6.2 -42.65 Q4.5 -44.95 3.2 -47.4 L0.5 -32.35 Q-0.55 -26.4 -4.5 -21.55 L-17.05 -6.45 -19.15 -3.6 Q-13.2 -3.5 -7.35 -2.35 -6.05 -2.1 -5.95 -0.85 -5.6 2.9 -9.5 2.55 L-26.1 1.5 Q-26.7 1.5 -27.05 0.9 -28.4 -1.25 -27.3 -2.4 -27.2 -4.85 -24.65 -6.5 L-24.25 -6.85 Q-22.25 -9.2 -19.5 -10.75 L-7.4 -28.35 Q-5.0 -31.75 -4.6 -35.95 -4.1 -41.55 -2.75 -47.1 -1.25 -53.05 -0.1 -59.05 -0.35 -59.95 -0.15 -61.15 1.6 -72.75 4.85 -83.9 L6.65 -93.3 -3.8 -92.9 Q-8.4 -92.85 -8.15 -96.85 -8.0 -98.6 -6.45 -99.6 -1.4 -102.75 4.2 -104.55 L7.15 -105.4 8.15 -105.55 8.25 -106.85 Q7.15 -107.55 6.2 -108.5 2.8 -111.9 2.8 -116.75 2.8 -121.6 6.2 -125.05 9.65 -128.45 14.5 -128.45 M6.5 -99.2 L3.9 -98.45 7.4 -98.7 7.45 -99.05 7.3 -99.35 6.5 -99.2 M15.6 -93.05 L15.7 -91.75 Q16.4 -87.85 17.35 -84.0 21.0 -89.1 24.2 -94.5 L15.6 -93.95 15.6 -93.05" fill="#0c0c0c" fill-rule="evenodd" stroke="none"/>
  </g>
</svg>
