<?xml version="1.0" encoding="UTF-8" standalone="no"?>
<svg xmlns:ffdec="https://www.free-decompiler.com/flash" xmlns:xlink="http://www.w3.org/1999/xlink" ffdec:objectType="shape" height="159.25px" width="117.45px" xmlns="http://www.w3.org/2000/svg">
  <g transform="matrix(1.0, 0.0, 0.0, 1.0, 49.65, 139.15)">
    <path d="M37.55 -129.25 Q40.85 -126.4 44.4 -124.95 L45.7 -125.1 46.1 -125.35 46.75 -125.9 49.6 -127.8 51.4 -128.9 51.6 -128.8 51.85 -128.75 52.5 -128.5 53.35 -128.1 53.7 -126.6 53.85 -124.65 54.1 -120.1 54.9 -114.4 45.95 -115.15 40.4 -115.85 11.15 -119.15 -0.25 -120.15 -11.45 -121.0 -10.3 -121.2 -7.1 -122.0 -6.9 -122.15 -6.35 -122.6 -6.25 -124.65 -6.25 -124.7 -5.9 -124.85 -5.2 -125.2 -3.9 -126.8 -3.5 -127.0 -3.4 -127.05 -3.1 -127.2 -2.9 -127.35 -2.45 -127.7 -1.95 -127.85 -1.2 -128.2 -0.85 -128.45 -0.65 -128.8 Q-0.05 -129.65 0.35 -130.95 1.25 -133.65 1.45 -137.65 L1.65 -137.9 1.8 -137.85 2.0 -137.85 2.5 -137.9 2.6 -137.85 Q5.5 -136.55 8.95 -135.55 L10.0 -135.35 11.3 -135.45 12.45 -136.4 14.45 -139.15 14.6 -139.15 15.0 -139.15 15.15 -139.05 Q15.45 -138.9 16.0 -138.65 L17.1 -138.35 Q18.0 -137.7 18.75 -136.45 L19.25 -135.4 20.2 -135.15 31.15 -134.85 32.7 -133.65 33.8 -132.95 Q34.65 -131.75 35.8 -130.75 L37.55 -129.25 M18.6 -111.8 L25.25 -111.1 50.95 -108.55 60.3 -107.7 Q64.05 -107.25 67.8 -107.55 L67.6 -107.0 Q66.15 -103.7 64.35 -100.75 L63.95 -100.4 63.25 -99.75 62.95 -99.15 62.5 -98.4 62.6 -97.35 Q63.05 -96.2 63.75 -95.15 L64.1 -94.8 63.15 -93.1 63.15 -93.05 62.95 -92.5 61.45 -91.65 60.9 -91.2 60.35 -89.6 60.0 -88.75 59.25 -86.45 58.7 -85.1 Q57.75 -82.75 56.3 -80.35 L55.9 -80.1 55.7 -80.05 54.65 -80.05 54.3 -79.95 52.7 -79.35 47.55 -80.55 43.5 -81.3 43.2 -81.2 42.75 -81.2 42.65 -81.2 Q41.9 -81.45 41.55 -78.9 L41.8 -77.95 42.6 -74.7 42.55 -74.3 42.5 -73.6 42.75 -72.85 42.75 -72.8 42.0 -71.7 40.95 -70.95 39.45 -70.8 32.55 -71.3 32.1 -71.1 31.9 -70.95 31.6 -70.55 31.55 -70.15 31.6 -69.7 31.7 -69.4 31.75 -68.95 31.75 -68.65 31.8 -67.85 32.3 -67.05 33.8 -63.95 33.7 -60.6 28.1 -58.25 25.5 -57.3 25.05 -56.85 24.7 -56.45 24.5 -55.9 24.25 -55.45 Q23.4 -54.4 23.85 -52.0 24.8 -51.2 26.0 -50.6 L32.5 -47.05 33.45 -42.6 Q33.4 -41.6 33.6 -40.9 L33.4 -40.25 33.25 -39.65 33.3 -38.85 33.2 -37.6 32.55 -36.35 Q32.5 -35.35 32.6 -34.3 L32.9 -33.65 33.3 -32.8 34.35 -31.8 34.5 -31.5 34.65 -31.2 Q36.45 -29.35 38.6 -27.9 L38.85 -27.55 39.45 -26.8 39.45 -26.65 39.45 -26.2 39.45 -25.8 39.4 -25.2 39.35 -25.0 39.15 -24.85 38.15 -23.8 35.9 -21.35 33.9 -19.5 33.55 -18.95 Q32.9 -18.05 32.65 -17.05 L32.65 -16.65 32.6 -16.3 32.5 -16.05 32.5 -15.85 32.5 -15.75 32.8 -15.15 33.4 -14.05 39.05 -10.65 38.8 -8.9 37.8 -5.8 36.1 -4.1 35.9 -3.45 35.65 -2.5 Q35.65 -1.55 36.0 -1.0 L36.15 -0.8 36.3 -0.5 36.85 0.45 37.55 1.2 Q41.85 3.7 45.65 6.65 L45.5 8.25 44.55 8.9 43.85 9.05 Q38.15 10.5 33.15 13.7 L32.8 14.45 32.3 16.3 32.45 17.15 32.5 17.45 32.7 17.8 33.25 19.25 32.95 20.1 18.35 16.15 13.25 14.85 12.0 14.6 11.75 14.7 11.4 14.9 10.35 15.3 10.2 15.5 9.8 15.85 9.35 16.0 8.95 16.4 7.8 17.75 6.95 17.8 6.75 17.85 6.45 17.95 4.6 18.1 4.45 18.2 -0.6 18.95 -0.7 19.1 -1.0 19.05 -1.8 18.95 -2.35 18.6 Q-6.7 18.15 -10.05 18.5 L-10.5 18.25 -10.65 18.0 -11.85 15.8 -12.4 14.8 Q-13.3 12.9 -14.5 12.8 L-15.8 12.35 Q-15.9 12.15 -16.35 12.15 -19.1 12.05 -21.7 14.85 L-22.35 15.5 -22.4 15.45 -22.55 15.4 -24.45 15.1 -24.7 15.05 -25.15 14.85 -26.7 14.75 -26.9 14.65 -27.1 14.6 -28.1 14.4 -29.05 14.45 -32.1 15.45 -32.8 14.7 Q-33.35 13.75 -34.2 13.05 L-36.45 13.25 -36.55 13.2 -37.0 12.95 -37.05 12.9 Q-39.55 11.45 -42.65 8.0 L-43.05 7.7 Q-44.7 6.45 -46.8 6.05 L-49.55 5.4 -49.65 5.2 -49.4 4.9 -49.1 4.5 -48.95 4.3 -47.05 3.15 Q-39.85 -1.55 -37.05 -8.3 L-36.85 -9.65 -36.95 -9.9 -37.35 -10.65 Q-38.85 -11.55 -40.5 -12.15 L-40.8 -12.4 -41.55 -12.95 -41.75 -13.25 -42.1 -13.8 -42.45 -15.8 -42.5 -16.05 Q-41.05 -16.85 -39.5 -17.35 L-36.8 -18.25 Q-32.35 -19.85 -28.75 -22.55 L-28.3 -23.4 -27.15 -25.8 -27.3 -28.35 -27.6 -29.0 -27.9 -29.65 -28.7 -30.3 -28.1 -31.9 Q-27.15 -33.75 -27.25 -36.65 L-26.2 -37.15 -26.05 -37.35 -25.55 -38.05 -25.5 -38.3 -25.5 -38.8 -25.35 -39.05 -25.25 -39.15 -24.95 -39.85 -24.95 -39.9 -25.0 -40.3 -24.0 -44.4 -21.75 -45.4 -18.75 -46.4 Q-16.45 -47.05 -14.4 -48.1 -12.4 -50.35 -12.4 -52.5 L-12.4 -52.6 -12.6 -53.15 -13.2 -54.25 -17.9 -58.4 -18.5 -58.85 -18.7 -59.05 -19.2 -59.45 -21.05 -60.55 -21.25 -60.75 -21.65 -61.35 -21.55 -62.55 -21.45 -62.6 -19.1 -64.05 Q-12.45 -67.45 -10.2 -73.8 L-10.2 -74.15 -10.2 -74.75 -10.3 -75.15 Q-11.05 -76.3 -12.15 -76.95 L-12.7 -77.3 -14.25 -77.95 -18.85 -79.5 -19.25 -81.0 -18.95 -81.35 -18.75 -82.0 -18.45 -82.75 -14.2 -88.8 Q-13.55 -89.8 -13.05 -90.9 L-12.75 -91.35 -12.4 -91.85 -12.2 -92.55 -12.05 -93.3 Q-12.6 -95.15 -13.8 -97.1 -14.1 -97.75 -14.9 -98.05 -18.95 -99.55 -23.15 -99.95 L-23.2 -100.1 -23.35 -100.3 -20.85 -102.3 Q-16.95 -104.8 -13.4 -107.6 L-12.85 -108.35 -12.8 -108.45 -12.85 -109.0 -13.15 -110.45 -13.45 -111.1 -14.1 -112.35 -16.7 -114.75 -10.0 -114.3 18.6 -111.8" fill="#ffff00" fill-opacity="0.5019608" fill-rule="evenodd" stroke="none"/>
  </g>
</svg>
