<?xml version="1.0" encoding="UTF-8" standalone="no"?>
<svg xmlns:ffdec="https://www.free-decompiler.com/flash" xmlns:xlink="http://www.w3.org/1999/xlink" ffdec:objectType="shape" height="132.45px" width="74.15px" xmlns="http://www.w3.org/2000/svg">
  <g transform="matrix(1.0, 0.0, 0.0, 1.0, 26.5, 127.9)">
    <path d="M8.7 -106.85 L8.55 -106.9 7.3 -107.95 Q3.9 -111.35 3.9 -116.2 3.9 -121.05 7.3 -124.5 10.75 -127.9 15.6 -127.9 20.45 -127.9 23.85 -124.5 27.25 -121.05 27.25 -116.2 27.25 -111.35 23.85 -107.95 20.45 -104.55 15.6 -104.55 L14.8 -104.55 14.75 -104.35 14.3 -104.45 Q14.45 -107.65 11.4 -109.2 9.15 -109.0 8.7 -106.85" fill="#0c0c0c" fill-rule="evenodd" stroke="none"/>
    <path d="M14.3 -104.45 L14.2 -103.7 13.8 -102.15 13.35 -100.45 44.85 -101.55 Q46.05 -101.45 46.9 -100.45 48.1 -98.95 47.35 -97.1 44.9 -91.3 39.45 -94.7 38.55 -95.3 38.35 -96.25 L32.65 -96.25 Q32.35 -94.35 30.75 -92.95 21.6 -85.3 13.85 -76.55 L13.95 -75.55 Q14.05 -74.6 13.1 -74.25 L10.2 -74.2 Q8.5 -66.1 5.6 -58.35 5.6 -56.1 5.0 -54.1 6.7 -52.8 8.05 -50.8 L12.85 -43.55 Q13.65 -42.35 13.6 -40.85 17.15 -35.05 19.1 -28.75 19.6 -27.2 19.5 -25.65 L18.7 -14.05 18.5 -11.15 Q18.1 -6.85 16.95 -2.75 21.55 -2.0 25.15 0.25 25.8 0.65 25.6 1.4 24.55 5.65 19.5 4.15 15.4 2.95 11.85 0.8 10.65 0.05 11.05 -1.4 14.25 -13.05 13.75 -25.5 13.7 -26.95 14.0 -28.3 L8.25 -38.95 Q7.75 -39.9 7.5 -40.95 6.85 -41.65 6.5 -42.5 6.3 -42.95 6.25 -43.5 4.65 -45.1 3.4 -46.75 2.5 -34.75 -3.7 -24.55 -7.15 -18.85 -12.05 -14.05 L-12.95 -12.95 Q-15.45 -8.75 -18.5 -5.15 -13.15 -4.3 -8.35 -1.95 -7.35 -1.45 -7.4 -0.35 -7.55 3.45 -11.35 2.4 L-25.6 -1.35 Q-26.45 -1.55 -26.5 -2.55 -26.65 -4.85 -24.75 -5.45 L-24.65 -5.65 Q-18.25 -16.3 -9.75 -25.6 -6.25 -29.4 -4.85 -34.2 L-4.6 -35.8 -4.0 -36.75 -1.1 -52.2 Q-1.45 -53.55 -0.9 -55.3 L1.05 -61.2 Q4.95 -72.7 6.45 -84.85 L7.35 -93.95 Q4.65 -93.8 2.25 -94.85 0.55 -95.55 0.95 -97.35 1.75 -101.05 5.45 -103.05 L6.7 -103.7 8.25 -104.35 8.65 -106.7 8.7 -106.85 Q9.15 -109.0 11.4 -109.2 14.45 -107.65 14.3 -104.45 M23.1 -95.85 L13.3 -94.8 Q13.8 -93.5 13.55 -91.65 13.2 -88.85 13.25 -86.05 L13.3 -84.3 20.35 -91.25 23.3 -93.9 Q23.0 -94.95 23.1 -95.85" fill="#000000" fill-rule="evenodd" stroke="none"/>
  </g>
</svg>
