<?xml version="1.0" encoding="UTF-8" standalone="no"?>
<svg xmlns:ffdec="https://www.free-decompiler.com/flash" xmlns:xlink="http://www.w3.org/1999/xlink" ffdec:objectType="shape" height="167.25px" width="112.75px" xmlns="http://www.w3.org/2000/svg">
  <g transform="matrix(1.0, 0.0, 0.0, 1.0, 39.25, 148.55)">
    <path d="M35.0 -141.2 L35.0 -139.5 Q34.95 -136.55 34.05 -133.7 L33.5 -133.15 33.45 -131.4 Q33.35 -129.05 33.65 -126.8 40.65 -124.2 47.9 -122.35 43.65 -120.35 39.65 -117.75 L39.6 -116.6 Q39.5 -115.1 39.85 -113.7 L55.05 -113.15 Q61.75 -109.25 67.55 -116.4 L68.1 -115.9 68.1 -115.45 67.55 -114.85 66.6 -113.7 66.65 -112.55 66.75 -111.4 Q70.5 -108.75 72.75 -105.45 L68.1 -101.4 68.1 -99.65 68.1 -96.2 73.5 -89.85 Q67.0 -86.15 62.75 -80.05 L62.7 -78.9 Q62.6 -77.25 61.6 -76.55 52.25 -81.95 47.55 -73.7 46.95 -74.25 46.25 -74.6 36.3 -79.65 35.0 -69.25 27.85 -70.2 22.7 -66.0 L22.7 -64.25 22.7 -60.8 Q24.9 -57.45 28.1 -55.6 30.1 -53.85 32.5 -52.9 28.0 -50.5 25.0 -46.95 30.15 -41.7 37.7 -38.65 34.65 -35.95 31.95 -32.9 L32.0 -31.75 32.15 -30.55 33.8 -29.0 39.25 -23.25 Q33.15 -20.8 28.85 -15.95 L28.85 -14.8 28.85 -13.05 Q33.75 -8.25 38.7 -3.8 34.95 -4.6 32.35 -2.65 31.7 -1.65 31.65 -0.35 31.5 5.1 33.5 10.05 25.6 8.05 21.15 13.9 L19.4 13.25 Q16.2 11.5 12.65 13.35 7.1 16.2 1.75 18.7 0.85 15.6 -1.9 14.1 -8.7 10.4 -15.8 15.25 -25.0 7.75 -36.55 7.55 -36.45 6.65 -36.85 5.85 -39.0 1.55 -39.25 -2.85 L-38.5 -3.45 -36.2 -5.0 -35.5 -6.9 Q-32.6 -11.7 -33.5 -17.7 -30.8 -17.4 -28.7 -18.65 -28.0 -19.75 -27.8 -21.0 L-26.0 -33.05 -21.45 -34.1 Q-20.2 -34.4 -20.05 -35.6 -19.1 -43.1 -24.25 -47.7 -18.8 -48.95 -14.05 -51.75 L-13.7 -52.35 -11.15 -55.8 -11.15 -56.95 -11.15 -58.1 Q-11.85 -59.4 -13.3 -59.8 L-13.55 -60.35 Q-14.6 -61.65 -16.0 -62.5 L-9.45 -69.45 Q-8.95 -69.65 -8.55 -69.95 L-7.5 -70.8 -7.4 -71.95 -7.3 -74.25 Q-10.4 -76.65 -13.85 -78.7 -10.7 -83.3 -6.35 -86.4 L-6.0 -87.0 -4.45 -89.25 -4.3 -90.4 -4.25 -92.75 -10.4 -97.55 Q-8.0 -101.25 -6.1 -105.5 -5.5 -106.9 -6.3 -108.15 -8.85 -112.0 -13.45 -113.9 -13.45 -114.75 -13.8 -115.5 -14.95 -118.05 -15.0 -120.8 L-12.3 -121.0 Q-10.55 -119.8 -8.45 -119.65 L-7.6 -120.15 -6.55 -121.2 -6.65 -124.65 -7.3 -137.35 -5.6 -137.0 Q-0.15 -134.1 4.25 -137.35 L4.6 -138.45 Q7.2 -142.95 9.25 -147.75 L10.6 -148.35 Q11.4 -148.9 11.85 -148.1 12.9 -146.15 12.7 -143.9 15.25 -139.3 20.4 -142.0 L20.6 -140.9 Q21.35 -138.95 21.35 -136.8 24.45 -134.9 27.45 -137.65 31.15 -141.1 35.0 -141.2" fill="#ffff00" fill-opacity="0.5019608" fill-rule="evenodd" stroke="none"/>
  </g>
</svg>
