<?xml version="1.0" encoding="UTF-8" standalone="no"?>
<svg xmlns:ffdec="https://www.free-decompiler.com/flash" xmlns:xlink="http://www.w3.org/1999/xlink" ffdec:objectType="shape" height="131.1px" width="88.95px" xmlns="http://www.w3.org/2000/svg">
  <g transform="matrix(1.0, 0.0, 0.0, 1.0, 28.55, 128.3)">
    <path d="M14.45 -128.3 Q19.35 -128.3 22.8 -124.85 26.25 -121.4 26.25 -116.5 26.25 -111.6 22.8 -108.15 L21.55 -107.05 Q19.15 -103.35 14.85 -104.25 L14.95 -103.9 15.15 -103.6 Q27.05 -102.5 38.55 -100.5 39.75 -100.3 40.15 -99.0 L48.75 -99.1 48.75 -99.35 49.05 -99.85 Q50.1 -101.25 51.55 -101.45 L53.5 -101.35 53.8 -101.45 Q59.75 -102.1 60.35 -97.4 60.8 -94.3 57.5 -93.9 55.95 -93.7 54.6 -93.9 L54.35 -93.9 Q40.3 -93.3 26.25 -93.35 24.9 -79.1 13.6 -70.45 13.15 -70.15 12.65 -70.95 9.8 -75.45 10.05 -81.3 L10.2 -86.05 Q8.15 -78.6 7.65 -70.75 L8.5 -70.7 7.65 -67.7 8.0 -66.65 8.05 -66.1 Q6.3 -61.3 6.25 -56.05 L6.2 -55.15 Q9.65 -51.3 12.1 -46.4 L12.2 -45.9 Q19.3 -38.15 21.25 -28.4 21.55 -26.8 20.85 -25.2 L18.2 -20.1 Q16.65 -16.0 15.7 -11.7 15.5 -10.7 14.65 -10.05 14.3 -8.1 14.4 -6.1 L14.45 -3.85 Q18.85 -4.65 23.2 -2.0 24.2 -1.35 24.15 -0.15 23.55 2.05 21.35 2.05 L9.65 1.45 Q8.95 1.35 8.3 0.8 8.1 -4.8 8.85 -10.4 9.1 -12.25 10.35 -13.75 L14.9 -30.2 Q15.3 -31.55 14.3 -32.85 8.75 -40.2 3.8 -47.95 L3.75 -48.05 Q2.0 -41.7 0.9 -35.15 0.15 -30.45 -3.05 -26.95 -6.3 -23.25 -8.55 -19.0 -11.85 -15.0 -14.7 -10.6 -16.15 -6.5 -19.35 -3.25 L-19.55 -2.95 -10.8 -2.35 Q-8.0 -2.1 -8.0 0.6 -8.6 2.8 -10.8 2.8 L-25.5 2.1 Q-28.7 1.8 -28.55 -1.25 L-19.0 -14.15 -18.85 -14.7 -18.6 -15.8 Q-17.05 -17.7 -15.65 -19.75 L-15.25 -20.3 -15.1 -20.85 -14.9 -22.0 Q-4.0 -32.0 -2.55 -46.55 L-2.1 -49.45 Q-1.4 -52.7 -1.45 -56.15 L-0.8 -56.9 -0.9 -58.8 -0.3 -58.8 Q0.4 -65.1 1.75 -71.35 L2.45 -71.25 Q2.0 -79.3 4.25 -86.8 4.5 -87.75 5.25 -88.55 5.4 -94.4 7.8 -99.1 L6.55 -99.25 Q7.8 -102.65 9.45 -105.9 L7.2 -105.9 7.55 -106.9 6.1 -108.15 Q2.65 -111.6 2.65 -116.5 2.65 -121.4 6.1 -124.85 9.55 -128.3 14.45 -128.3 M20.35 -93.4 L16.3 -93.45 16.15 -92.0 Q15.65 -88.4 16.1 -84.8 L16.25 -82.55 Q17.25 -83.75 18.05 -85.3 L18.85 -86.5 Q19.8 -89.8 20.3 -93.2 L20.35 -93.4" fill="#000000" fill-rule="evenodd" stroke="none"/>
  </g>
</svg>
