<?xml version="1.0" encoding="UTF-8" standalone="no"?>
<svg xmlns:ffdec="https://www.free-decompiler.com/flash" xmlns:xlink="http://www.w3.org/1999/xlink" ffdec:objectType="shape" height="158.55px" width="102.0px" xmlns="http://www.w3.org/2000/svg">
  <g transform="matrix(1.0, 0.0, 0.0, 1.0, 44.25, 142.75)">
    <path d="M25.0 -137.2 L25.4 -136.6 26.35 -135.45 26.65 -133.7 Q26.65 -131.35 27.5 -129.1 33.1 -125.55 38.1 -129.3 L41.2 -129.85 40.75 -128.95 40.4 -128.35 40.4 -127.75 40.4 -127.2 40.0 -126.6 39.65 -126.0 39.6 -124.85 39.45 -123.7 38.9 -123.1 38.1 -122.0 38.05 -120.85 Q38.0 -119.9 38.3 -119.1 41.15 -117.15 44.25 -116.2 L44.25 -115.25 44.25 -114.1 43.85 -113.5 43.5 -112.95 43.55 -111.8 43.7 -110.65 Q50.5 -107.55 55.8 -105.45 L53.5 -103.1 53.5 -101.95 53.5 -98.5 56.4 -95.05 56.55 -94.45 56.55 -93.9 57.15 -93.3 57.75 -92.75 Q54.6 -91.2 51.95 -89.05 L52.0 -87.35 Q52.45 -81.55 56.4 -76.95 L54.25 -76.25 Q52.9 -75.9 52.0 -75.1 45.5 -69.3 43.5 -60.8 L42.5 -60.8 Q41.2 -61.45 40.1 -62.35 34.7 -66.8 29.65 -63.5 L29.65 -61.75 29.65 -57.7 Q26.35 -58.15 25.0 -55.8 L25.0 -54.65 25.0 -52.3 30.8 -47.3 Q30.2 -46.55 30.05 -45.65 29.55 -42.5 29.65 -39.25 L34.65 -35.0 31.95 -32.1 31.95 -31.55 31.95 -30.95 31.55 -30.4 31.15 -29.8 31.15 -29.25 31.15 -28.65 30.8 -28.05 30.4 -27.5 30.4 -26.35 30.4 -22.3 Q33.55 -18.85 35.8 -15.35 L35.25 -14.8 34.25 -13.65 Q34.25 -12.75 34.4 -11.95 35.9 -4.6 41.95 0.8 L30.85 1.9 Q29.45 2.1 28.85 3.5 L28.8 5.2 Q28.65 8.6 30.2 11.55 20.0 8.85 13.65 15.6 13.1 15.15 12.45 15.05 1.9 13.6 -7.3 15.8 -8.65 12.3 -12.4 11.9 L-30.4 10.8 -35.4 6.4 Q-39.15 1.55 -43.3 -1.7 -42.6 -2.45 -42.75 -3.45 L-44.25 -12.7 -41.05 -11.95 Q-39.05 -11.35 -37.75 -12.25 -31.75 -16.6 -33.5 -25.4 -27.25 -22.3 -23.5 -26.55 L-23.55 -30.05 Q-22.7 -37.3 -25.8 -43.85 -22.45 -44.15 -19.45 -45.6 L-19.0 -46.75 Q-18.1 -50.5 -20.4 -53.1 L-20.4 -53.65 -20.4 -54.25 Q-23.35 -56.65 -23.65 -59.45 -19.05 -61.5 -15.2 -65.4 L-15.0 -66.55 -14.8 -67.15 -14.3 -67.75 -13.45 -68.85 -13.4 -70.6 Q-13.1 -73.1 -14.05 -75.2 L-14.8 -75.95 -14.8 -76.35 Q-9.35 -79.1 -6.55 -85.05 L-6.55 -86.2 -6.55 -89.65 -6.9 -90.25 -7.3 -91.4 Q-5.6 -94.9 -2.9 -97.75 L-2.65 -98.9 -2.5 -99.45 -1.95 -100.05 -1.15 -101.2 -1.15 -102.35 -1.15 -103.5 Q-5.25 -106.55 -10.0 -107.95 -9.6 -108.75 -9.35 -109.6 -8.2 -113.55 -9.05 -117.75 -13.45 -121.3 -16.75 -124.65 L-16.6 -125.85 -16.55 -127.55 Q-7.9 -126.1 -8.1 -134.7 L-7.4 -135.9 -7.1 -136.8 Q-5.6 -135.55 -3.45 -135.45 1.0 -130.85 6.15 -134.3 L6.75 -136.0 Q7.5 -139.3 7.5 -142.75 10.3 -137.85 15.5 -137.55 18.1 -136.45 20.0 -137.8 L20.8 -137.35 Q23.05 -139.35 24.65 -139.5 L24.9 -138.3 25.0 -137.2" fill="#ffff00" fill-opacity="0.5019608" fill-rule="evenodd" stroke="none"/>
  </g>
</svg>
