<?xml version="1.0" encoding="UTF-8" standalone="no"?>
<svg xmlns:ffdec="https://www.free-decompiler.com/flash" xmlns:xlink="http://www.w3.org/1999/xlink" ffdec:objectType="shape" height="131.1px" width="75.25px" xmlns="http://www.w3.org/2000/svg">
  <g transform="matrix(1.0, 0.0, 0.0, 1.0, 28.55, 128.3)">
    <path d="M14.45 -128.3 Q19.35 -128.3 22.8 -124.85 26.25 -121.4 26.25 -116.5 26.25 -111.6 22.8 -108.15 L21.55 -107.05 Q19.15 -103.35 14.85 -104.25 L14.95 -103.9 Q16.65 -101.55 16.15 -97.6 15.75 -94.3 15.9 -91.0 L22.2 -90.45 26.35 -96.95 Q22.15 -103.65 29.95 -104.45 32.65 -104.7 32.65 -102.0 32.65 -95.65 30.1 -90.25 L30.85 -90.3 32.75 -90.55 39.6 -92.1 39.75 -92.65 39.85 -93.2 40.0 -93.75 41.05 -94.7 Q41.9 -95.35 42.6 -95.45 49.45 -94.35 44.8 -88.7 42.2 -85.55 37.95 -85.2 L32.1 -84.8 26.35 -84.5 23.95 -81.95 Q22.6 -80.7 21.8 -78.95 18.35 -71.8 12.35 -74.9 L11.05 -81.7 9.3 -75.65 8.3 -73.2 8.2 -73.0 9.0 -73.0 7.65 -67.7 8.0 -66.65 8.05 -66.1 Q6.3 -61.3 6.25 -56.05 L6.2 -55.15 Q9.65 -51.3 12.1 -46.4 L12.2 -45.9 Q19.3 -38.15 21.25 -28.4 21.55 -26.8 20.85 -25.2 L18.2 -20.1 Q16.65 -16.0 15.7 -11.7 15.5 -10.7 14.65 -10.05 14.3 -8.1 14.4 -6.1 L14.45 -3.85 Q18.85 -4.65 23.2 -2.0 24.2 -1.35 24.15 -0.15 23.55 2.05 21.35 2.05 L9.65 1.45 Q8.95 1.35 8.3 0.8 8.1 -4.8 8.85 -10.4 9.1 -12.25 10.35 -13.75 L14.9 -30.2 Q15.3 -31.55 14.3 -32.85 8.75 -40.2 3.8 -47.95 L3.75 -48.05 Q2.0 -41.7 0.9 -35.15 0.15 -30.45 -3.05 -26.95 -6.3 -23.25 -8.55 -19.0 -11.85 -15.0 -14.7 -10.6 -16.15 -6.5 -19.35 -3.25 L-19.55 -2.95 -10.8 -2.35 Q-8.0 -2.1 -8.0 0.6 -8.6 2.8 -10.8 2.8 L-25.5 2.1 Q-28.7 1.8 -28.55 -1.25 L-19.0 -14.15 -18.85 -14.7 -18.6 -15.8 Q-17.05 -17.7 -15.65 -19.75 L-15.25 -20.3 -15.1 -20.85 -14.9 -22.0 Q-4.0 -32.0 -2.55 -46.55 L-2.1 -49.45 Q-1.4 -52.7 -1.45 -56.15 L-0.8 -56.9 -0.9 -58.8 -0.3 -58.8 Q0.5 -65.95 2.15 -73.0 L3.4 -73.0 Q3.7 -79.35 5.15 -85.6 4.2 -85.95 3.35 -86.85 L3.8 -89.4 Q5.45 -98.0 9.45 -105.9 L7.2 -105.9 7.55 -106.9 6.1 -108.15 Q2.65 -111.6 2.65 -116.5 2.65 -121.4 6.1 -124.85 9.55 -128.3 14.45 -128.3 M17.0 -83.3 L17.85 -84.4 16.75 -84.45 17.0 -83.3" fill="#000000" fill-rule="evenodd" stroke="none"/>
  </g>
</svg>
