<?xml version="1.0" encoding="UTF-8" standalone="no"?>
<svg xmlns:ffdec="https://www.free-decompiler.com/flash" xmlns:xlink="http://www.w3.org/1999/xlink" ffdec:objectType="shape" height="160.15px" width="97.75px" xmlns="http://www.w3.org/2000/svg">
  <g transform="matrix(1.0, 0.0, 0.0, 1.0, 40.4, 144.15)">
    <path d="M28.1 -143.9 Q28.8 -144.45 29.15 -143.75 29.95 -142.15 29.85 -140.25 L29.65 -133.9 30.95 -132.4 Q31.6 -131.4 32.7 -131.45 39.65 -131.8 44.05 -128.5 42.85 -126.95 41.15 -126.0 36.5 -123.35 35.0 -118.9 35.4 -118.3 35.85 -118.3 44.1 -117.65 51.0 -118.3 L49.7 -116.9 Q48.65 -115.75 48.85 -114.3 49.25 -112.85 50.7 -112.45 54.95 -111.25 56.4 -108.3 55.4 -107.3 54.05 -106.7 52.6 -106.1 51.95 -104.45 51.85 -103.3 52.3 -102.25 52.8 -101.1 52.9 -99.85 L54.05 -98.65 55.05 -97.55 55.05 -96.95 55.1 -95.8 55.25 -95.25 Q56.7 -94.05 57.1 -92.3 L57.35 -90.05 Q52.1 -90.3 49.65 -85.8 49.65 -84.0 48.85 -82.35 47.75 -80.2 48.1 -77.7 47.45 -78.0 46.95 -78.5 41.85 -83.7 38.1 -78.5 L38.1 -77.9 38.2 -74.45 Q38.35 -72.0 37.7 -69.85 32.05 -70.45 28.85 -67.35 L28.85 -66.75 28.9 -65.6 29.05 -64.45 29.65 -63.9 30.4 -63.3 29.6 -62.8 Q26.5 -61.55 24.25 -59.25 24.45 -57.35 24.0 -55.65 23.45 -53.75 23.45 -51.75 29.85 -47.8 36.75 -46.35 L35.3 -44.75 28.85 -38.45 28.85 -37.9 28.85 -36.75 28.85 -36.15 30.3 -35.1 Q42.6 -27.5 54.85 -19.2 L44.25 -15.35 41.65 -14.55 Q38.2 -13.1 36.55 -10.55 37.85 -8.4 40.15 -6.75 44.4 -3.7 46.35 1.0 L35.4 2.0 Q34.2 2.1 33.5 3.1 L33.35 7.15 Q33.25 8.9 34.05 10.4 L33.15 10.3 Q23.4 7.45 17.9 15.8 13.6 10.15 5.7 13.45 0.85 15.45 -3.45 16.0 -5.4 12.6 -9.5 12.0 L-27.7 10.2 Q-28.0 9.35 -28.55 8.7 L-30.4 6.2 -30.4 5.6 -30.4 5.05 Q-33.5 3.0 -37.15 1.35 -36.65 1.2 -36.25 0.9 L-35.2 0.05 Q-34.6 -3.75 -35.8 -7.35 -37.4 -12.25 -40.4 -16.15 L-39.9 -17.2 -38.9 -18.45 Q-33.2 -17.0 -28.7 -19.4 L-28.4 -20.0 Q-27.6 -23.25 -28.9 -26.25 -30.45 -29.9 -31.2 -33.85 L-25.0 -33.75 Q-22.15 -33.65 -19.95 -34.8 -14.2 -37.85 -15.8 -45.4 L-14.5 -46.35 Q-11.0 -48.2 -8.85 -51.35 -8.85 -51.65 -9.0 -51.75 -12.7 -55.05 -15.8 -56.15 L-15.45 -56.6 -14.8 -57.7 -14.25 -58.85 Q-12.4 -59.85 -10.9 -61.3 -8.3 -63.6 -9.05 -66.95 L-10.35 -68.6 Q-12.15 -71.4 -15.0 -72.5 L-15.0 -73.7 -15.0 -74.25 -15.4 -74.85 -15.8 -75.4 -15.9 -77.7 Q-16.1 -79.15 -17.3 -80.05 L-17.3 -80.6 -17.3 -81.2 -18.4 -82.2 -21.35 -84.65 Q-12.5 -83.6 -12.15 -90.8 -13.8 -93.45 -16.2 -95.35 -21.0 -99.1 -22.7 -103.5 L-21.55 -104.45 -21.15 -104.65 -20.9 -105.1 Q-20.3 -106.6 -18.5 -106.4 -12.65 -102.25 -8.3 -106.2 -7.9 -108.05 -7.1 -109.75 -6.35 -111.35 -6.55 -113.15 L-3.85 -113.45 Q-2.9 -113.55 -2.3 -114.3 -1.75 -115.65 -2.15 -117.1 -3.15 -120.55 -6.95 -122.15 L-7.7 -123.1 Q-9.1 -124.2 -10.05 -125.6 -12.6 -129.3 -11.95 -132.2 L-11.1 -131.7 Q-6.85 -129.6 -2.7 -129.3 L-2.0 -130.1 Q-1.05 -130.9 -0.4 -132.0 L-0.45 -133.15 Q-0.6 -135.0 -0.25 -136.75 0.4 -140.05 0.4 -143.55 3.6 -141.8 6.75 -139.65 16.65 -132.95 22.7 -141.05 23.45 -141.3 24.15 -141.75 L28.1 -143.9" fill="#ffff00" fill-opacity="0.5019608" fill-rule="evenodd" stroke="none"/>
  </g>
</svg>
