<?xml version="1.0" encoding="UTF-8" standalone="no"?>
<svg xmlns:ffdec="https://www.free-decompiler.com/flash" xmlns:xlink="http://www.w3.org/1999/xlink" ffdec:objectType="shape" height="131.1px" width="73.45px" xmlns="http://www.w3.org/2000/svg">
  <g transform="matrix(1.0, 0.0, 0.0, 1.0, 28.55, 128.3)">
    <path d="M14.45 -128.3 Q19.35 -128.3 22.8 -124.85 26.25 -121.4 26.25 -116.5 26.25 -111.6 22.8 -108.15 L21.55 -107.05 Q19.15 -103.35 14.85 -104.25 L14.95 -103.9 Q15.65 -102.95 15.95 -101.7 L17.0 -99.95 17.4 -99.4 17.85 -98.75 18.1 -98.25 Q27.85 -97.75 36.8 -102.75 L36.8 -104.4 Q36.75 -106.2 38.3 -107.05 L38.7 -107.15 39.6 -107.3 39.6 -107.4 Q46.65 -107.0 44.3 -99.75 L44.1 -99.2 Q30.35 -90.95 14.45 -92.95 L13.55 -93.25 12.85 -90.85 12.0 -87.0 20.2 -85.35 Q27.35 -89.55 31.2 -83.3 30.95 -80.4 27.8 -80.2 L10.15 -81.1 8.8 -77.9 Q8.7 -74.95 7.6 -72.6 L9.0 -72.85 7.65 -67.7 8.0 -66.65 8.05 -66.1 Q6.3 -61.3 6.25 -56.05 L6.2 -55.15 Q9.65 -51.3 12.1 -46.4 L12.2 -45.9 Q19.3 -38.15 21.25 -28.4 21.55 -26.8 20.85 -25.2 L18.2 -20.1 Q16.65 -16.0 15.7 -11.7 15.5 -10.7 14.65 -10.05 14.3 -8.1 14.4 -6.1 L14.45 -3.85 Q18.85 -4.65 23.2 -2.0 24.2 -1.35 24.15 -0.15 23.55 2.05 21.35 2.05 L9.65 1.45 Q8.95 1.35 8.3 0.8 8.1 -4.8 8.85 -10.4 9.1 -12.25 10.35 -13.75 L14.9 -30.2 Q15.3 -31.55 14.3 -32.85 8.75 -40.2 3.8 -47.95 L3.75 -48.05 Q2.0 -41.7 0.9 -35.15 0.15 -30.45 -3.05 -26.95 -6.3 -23.25 -8.55 -19.0 -11.85 -15.0 -14.7 -10.6 -16.15 -6.5 -19.35 -3.25 L-19.55 -2.95 -10.8 -2.35 Q-8.0 -2.1 -8.0 0.6 -8.6 2.8 -10.8 2.8 L-25.5 2.1 Q-28.7 1.8 -28.55 -1.25 L-19.0 -14.15 -18.85 -14.7 -18.6 -15.8 Q-17.05 -17.7 -15.65 -19.75 L-15.25 -20.3 -15.1 -20.85 -14.9 -22.0 Q-4.0 -32.0 -2.55 -46.55 L-2.1 -49.45 Q-1.4 -52.7 -1.45 -56.15 L-0.8 -56.9 -0.9 -58.8 -0.3 -58.8 Q0.5 -65.95 2.15 -73.0 L2.35 -73.0 Q2.05 -76.1 2.95 -79.1 L3.2 -80.7 3.45 -81.2 4.45 -82.25 Q-0.65 -83.5 -5.6 -85.35 L-5.75 -86.5 -5.8 -88.15 Q0.6 -95.65 7.3 -102.75 L7.6 -103.3 7.7 -103.85 7.85 -104.4 Q8.4 -105.2 9.25 -105.55 L9.45 -105.9 7.2 -105.9 7.55 -106.9 6.1 -108.15 Q2.65 -111.6 2.65 -116.5 2.65 -121.4 6.1 -124.85 9.55 -128.3 14.45 -128.3 M3.55 -89.3 L6.15 -88.5 7.35 -93.3 4.1 -89.85 3.55 -89.3" fill="#000000" fill-rule="evenodd" stroke="none"/>
  </g>
</svg>
