<?xml version="1.0" encoding="UTF-8" standalone="no"?>
<svg xmlns:ffdec="https://www.free-decompiler.com/flash" xmlns:xlink="http://www.w3.org/1999/xlink" ffdec:objectType="shape" height="160.85px" width="120.3px" xmlns="http://www.w3.org/2000/svg">
  <g transform="matrix(1.0, 0.0, 0.0, 1.0, 40.2, 146.6)">
    <path d="M38.1 -139.3 L38.75 -138.65 38.85 -138.15 Q38.7 -137.1 37.8 -136.15 36.45 -134.85 36.35 -132.95 L35.75 -131.8 35.0 -130.65 35.0 -130.05 35.0 -129.5 34.65 -128.9 34.25 -128.35 34.3 -126.6 Q34.4 -125.1 34.05 -123.7 L33.5 -123.15 33.5 -121.4 33.5 -118.5 33.85 -117.9 Q34.3 -116.1 36.15 -115.8 L37.55 -116.3 Q38.55 -116.6 39.25 -117.35 L39.45 -117.95 39.65 -118.5 41.1 -119.75 48.1 -125.65 48.65 -123.85 48.85 -121.6 Q49.95 -120.7 50.15 -119.25 L50.6 -115.25 Q52.3 -113.6 54.65 -114.45 L55.65 -115.35 Q57.0 -116.3 57.55 -117.75 L58.45 -118.35 63.5 -122.35 64.7 -119.5 Q65.3 -117.25 65.05 -114.85 L65.9 -113.65 66.75 -111.4 Q67.65 -110.9 68.55 -110.85 71.55 -110.65 73.5 -113.15 L80.1 -114.5 80.1 -110.45 79.65 -110.05 79.6 -108.9 79.45 -108.3 78.9 -107.75 77.35 -106.0 77.35 -105.45 77.35 -104.85 76.95 -104.3 76.6 -103.7 76.6 -101.95 76.6 -100.25 77.65 -99.25 79.65 -97.55 80.1 -96.35 80.1 -96.0 80.05 -95.8 79.4 -94.7 76.6 -90.6 76.6 -90.05 76.6 -89.45 76.2 -88.9 75.8 -88.3 75.8 -86.55 75.8 -84.25 75.55 -84.35 Q72.0 -87.95 67.35 -86.95 L65.9 -85.3 Q62.85 -82.45 60.4 -79.05 L60.4 -78.5 60.3 -77.95 60.05 -77.7 53.3 -84.85 Q47.4 -90.75 41.35 -87.15 41.1 -85.6 40.1 -84.35 37.9 -81.75 38.1 -78.5 34.55 -78.7 34.25 -75.8 L34.55 -75.3 36.55 -72.9 Q36.55 -72.35 36.7 -71.8 36.75 -71.45 36.95 -71.2 L37.45 -70.5 37.35 -70.0 28.55 -68.95 Q27.1 -68.7 26.55 -67.35 26.55 -66.15 26.85 -65.1 27.7 -62.45 29.65 -60.4 L29.5 -60.05 Q27.85 -59.0 26.15 -58.1 25.55 -57.35 25.65 -56.35 L25.8 -54.05 Q30.95 -50.5 36.55 -48.85 36.15 -48.3 35.9 -47.65 L34.85 -45.95 Q34.05 -45.6 33.45 -45.0 32.3 -43.95 31.95 -42.3 33.15 -38.7 37.5 -39.4 L37.75 -39.25 Q39.65 -37.95 41.75 -37.1 41.4 -34.8 39.3 -33.0 35.5 -29.65 35.8 -24.6 40.85 -19.25 47.35 -15.35 L34.65 -14.55 33.85 -14.2 Q33.2 -11.45 33.5 -8.45 34.05 -2.8 37.15 1.95 L37.0 2.3 Q35.85 2.85 35.0 3.85 L35.05 5.6 Q35.15 6.8 34.85 7.9 L34.25 8.5 34.25 9.05 34.2 9.65 34.05 10.05 31.25 8.9 Q23.2 5.3 20.95 14.25 19.05 12.5 16.8 11.3 5.7 5.1 -1.55 14.05 L-3.3 12.55 Q-4.15 11.55 -5.3 11.35 -13.75 9.8 -21.15 12.55 -25.55 7.25 -32.7 6.2 L-33.3 4.45 -33.85 2.7 -35.6 1.55 -35.9 1.15 Q-39.1 -1.1 -40.05 -3.65 -38.65 -5.45 -38.55 -7.65 -38.4 -11.4 -40.2 -14.6 -34.95 -13.65 -32.15 -17.7 -31.8 -20.25 -32.2 -22.85 -32.9 -27.3 -34.45 -31.55 L-29.1 -32.45 Q-27.9 -32.7 -27.25 -33.5 -23.6 -37.9 -25.4 -44.05 -20.15 -43.8 -14.25 -46.95 L-13.55 -47.75 Q-12.6 -48.55 -11.95 -49.6 L-11.95 -50.8 -11.95 -51.95 -12.95 -53.0 -19.25 -59.45 -18.45 -59.8 Q-16.95 -60.4 -15.8 -61.55 -9.65 -60.85 -5.95 -65.4 L-5.85 -66.55 -5.95 -67.7 -6.45 -68.2 Q-11.35 -71.4 -15.0 -75.4 L-15.0 -78.85 -15.0 -83.5 Q-17.95 -86.05 -22.15 -85.4 L-22.55 -86.0 -23.5 -87.15 -23.5 -88.3 -23.5 -88.9 -23.85 -89.45 -24.25 -90.05 -24.45 -91.7 Q-24.85 -93.3 -25.8 -94.65 -22.75 -94.3 -21.15 -96.6 L-21.25 -100.05 Q-21.3 -102.3 -21.0 -104.45 -19.9 -103.35 -18.3 -103.3 -15.75 -101.1 -12.3 -100.45 -11.85 -100.6 -11.45 -100.95 L-10.4 -101.95 Q-10.4 -104.55 -10.85 -107.1 -11.5 -110.75 -11.15 -114.65 L-10.0 -114.95 Q-9.05 -115.1 -8.45 -115.8 -7.85 -118.05 -8.45 -120.35 -9.6 -124.45 -11.15 -128.5 L-5.6 -128.7 Q-4.2 -130.55 -3.85 -132.7 -3.3 -136.1 -3.1 -139.5 -1.35 -137.6 1.15 -137.1 2.9 -136.8 4.1 -137.5 11.25 -141.45 17.7 -146.6 18.8 -145.9 19.5 -144.9 20.9 -142.9 21.35 -140.65 22.2 -139.8 23.25 -139.25 29.95 -135.95 38.1 -139.3" fill="#ffff00" fill-opacity="0.5019608" fill-rule="evenodd" stroke="none"/>
  </g>
</svg>
