<?xml version="1.0" encoding="UTF-8" standalone="no"?>
<svg xmlns:ffdec="https://www.free-decompiler.com/flash" xmlns:xlink="http://www.w3.org/1999/xlink" ffdec:objectType="shape" height="130.0px" width="81.65px" xmlns="http://www.w3.org/2000/svg">
  <g transform="matrix(1.0, 0.0, 0.0, 1.0, 17.1, 144.0)">
    <path d="M20.25 -127.0 L20.25 -127.05 Q19.55 -128.45 19.3 -130.0 L19.1 -132.2 Q19.1 -136.6 21.9 -139.8 L22.55 -140.55 Q26.0 -144.0 30.9 -144.0 35.8 -144.0 39.25 -140.55 42.7 -137.1 42.7 -132.2 42.7 -127.3 39.25 -123.85 37.65 -122.25 35.75 -121.4 32.25 -121.25 29.0 -121.5 L29.1 -121.2 29.15 -121.05 29.2 -120.95 29.4 -119.8 32.5 -116.1 Q36.85 -109.95 41.65 -104.25 43.05 -104.8 44.1 -105.9 L45.8 -107.25 Q45.95 -108.3 46.75 -108.85 L48.6 -110.05 Q51.3 -113.6 55.3 -116.2 53.1 -121.15 57.8 -123.4 L59.05 -123.85 Q67.75 -122.5 62.75 -115.9 59.7 -111.9 56.2 -108.4 49.45 -101.75 41.5 -97.2 39.85 -96.25 38.7 -97.8 33.55 -105.0 27.7 -111.9 26.15 -113.7 25.6 -116.0 L25.55 -116.1 25.5 -115.85 25.6 -112.6 24.5 -107.05 24.3 -106.7 Q26.85 -106.5 28.5 -102.75 28.9 -101.8 28.1 -101.05 25.6 -98.7 22.65 -97.3 21.3 -89.35 20.25 -81.25 20.05 -79.6 18.95 -78.4 L18.75 -74.5 18.7 -74.1 18.8 -74.0 Q17.9 -73.05 17.6 -71.5 L19.75 -68.65 19.25 -68.15 Q23.15 -65.15 26.0 -60.6 27.4 -58.3 28.2 -55.85 33.75 -50.05 32.7 -42.5 32.4 -40.55 31.45 -38.8 26.7 -30.2 20.85 -22.3 28.05 -21.8 33.9 -17.95 L34.2 -17.55 Q32.45 -12.4 26.0 -14.7 22.0 -16.2 17.9 -16.1 L17.65 -15.85 17.6 -15.9 17.45 -16.1 14.95 -15.85 Q14.3 -16.05 13.7 -16.35 13.25 -16.5 12.9 -16.8 L12.35 -17.35 12.2 -17.95 12.2 -18.05 11.35 -17.9 12.15 -18.35 12.15 -18.5 12.15 -19.05 12.15 -19.6 12.15 -20.15 12.4 -20.7 12.9 -21.25 13.1 -21.35 Q15.1 -27.45 19.75 -32.7 22.25 -35.55 24.15 -38.9 L27.65 -45.2 26.75 -46.35 25.8 -47.45 25.65 -48.05 25.55 -48.55 25.4 -49.15 Q22.05 -54.8 18.2 -60.05 L17.55 -54.6 16.85 -57.0 Q16.5 -58.05 16.65 -59.25 L16.5 -59.45 15.1 -52.35 Q14.4 -48.0 11.65 -44.7 L11.75 -44.25 11.8 -43.7 8.55 -40.2 8.45 -40.85 8.45 -40.6 Q3.05 -37.6 -2.95 -36.1 -6.35 -34.2 -9.7 -33.6 -8.95 -31.55 -8.85 -29.05 -8.6 -24.5 -7.65 -19.9 -11.1 -15.0 -13.55 -20.7 -14.5 -23.0 -15.0 -25.45 -15.25 -26.5 -15.95 -27.35 -15.4 -30.05 -16.1 -32.7 -16.35 -33.75 -17.1 -34.65 L-16.95 -35.75 -16.55 -37.4 Q-15.95 -38.35 -14.65 -38.55 L-14.25 -38.6 Q-4.95 -41.75 4.2 -45.05 5.6 -46.05 6.9 -47.15 L6.55 -48.0 Q10.8 -55.05 11.65 -63.75 L12.1 -66.65 12.3 -67.65 Q12.1 -68.15 12.15 -68.75 L12.25 -69.0 12.0 -69.35 11.6 -69.9 11.5 -71.0 11.6 -72.1 Q12.0 -72.9 12.75 -73.3 L12.75 -73.35 13.4 -74.1 Q13.2 -76.1 13.3 -78.25 L13.3 -80.45 14.1 -81.55 14.65 -82.15 16.4 -94.55 16.8 -95.6 15.6 -95.5 0.0 -94.6 Q-1.6 -94.55 -2.6 -95.85 L-2.75 -96.95 -2.8 -98.65 17.3 -117.8 19.55 -119.65 21.05 -121.55 21.15 -121.95 21.25 -122.55 21.4 -123.1 21.6 -123.65 23.05 -123.4 22.55 -123.85 Q21.1 -125.3 20.25 -127.0 M18.75 -109.1 L19.15 -110.6 Q16.4 -108.55 13.65 -106.15 L9.35 -101.8 18.15 -102.45 Q19.35 -105.2 18.45 -107.1 L18.75 -109.0 18.7 -108.9 18.75 -109.1" fill="#000000" fill-rule="evenodd" stroke="none"/>
  </g>
</svg>
