<?xml version="1.0" encoding="UTF-8" standalone="no"?>
<svg xmlns:ffdec="https://www.free-decompiler.com/flash" xmlns:xlink="http://www.w3.org/1999/xlink" ffdec:objectType="shape" height="147.1px" width="123.15px" xmlns="http://www.w3.org/2000/svg">
  <g transform="matrix(1.0, 0.0, 0.0, 1.0, 36.55, 173.95)">
    <path d="M-34.1 -54.55 L-36.55 -56.95 -34.55 -57.05 Q-32.25 -52.35 -29.6 -47.7 L-29.6 -47.15 -29.6 -46.55 -29.6 -45.95 Q-32.15 -45.9 -34.1 -45.25 L-34.1 -54.55 M83.55 -154.5 L82.9 -153.35 Q81.05 -150.1 80.45 -146.4 84.0 -143.1 86.6 -139.5 L81.2 -135.25 81.2 -134.7 81.2 -132.4 82.0 -131.25 Q83.75 -128.95 83.7 -126.05 85.1 -125.2 85.05 -123.7 L78.55 -122.65 Q76.85 -122.35 75.85 -120.85 L75.85 -116.8 75.85 -106.95 72.0 -107.55 Q69.5 -110.1 66.0 -110.65 59.75 -115.0 55.05 -109.85 L55.05 -108.7 55.05 -104.65 46.3 -105.65 Q41.15 -106.55 40.45 -102.75 43.0 -100.3 46.0 -98.1 L45.05 -96.95 Q38.3 -95.55 34.25 -90.8 34.45 -90.25 34.85 -90.0 41.45 -85.95 46.6 -80.4 L46.55 -79.85 Q46.5 -78.1 45.05 -76.95 L45.0 -75.8 Q44.9 -74.3 45.25 -72.9 53.2 -68.15 62.35 -65.4 L63.5 -63.7 51.95 -56.55 51.95 -56.0 Q51.85 -54.8 52.15 -53.65 L58.9 -47.5 60.45 -44.6 47.8 -43.65 Q47.15 -43.55 46.6 -43.1 L46.6 -42.5 46.6 -40.8 48.1 -39.05 48.2 -38.5 48.5 -37.3 Q49.85 -36.7 50.45 -35.6 L50.55 -35.05 Q51.5 -33.25 51.8 -31.55 L49.3 -31.7 Q43.5 -31.55 39.45 -27.9 32.5 -34.1 25.05 -26.9 L24.3 -26.9 Q24.05 -26.9 23.9 -27.1 13.45 -30.25 2.15 -26.9 2.25 -31.35 -0.85 -34.55 -2.9 -36.75 -5.85 -35.2 L-15.95 -30.2 -16.15 -30.55 -18.85 -34.6 -18.85 -35.2 -18.85 -35.75 -27.9 -41.75 Q-24.3 -45.15 -26.6 -49.7 -31.05 -58.4 -33.45 -67.7 -25.65 -66.65 -18.75 -68.3 -16.35 -68.9 -16.4 -71.35 -16.7 -79.5 -18.05 -87.55 L-14.2 -85.45 Q-11.9 -84.25 -9.45 -83.75 -1.35 -82.15 -2.7 -90.8 L-2.3 -91.4 -1.9 -91.95 -1.85 -93.1 Q-1.75 -94.9 -1.15 -96.6 0.65 -97.75 1.75 -99.45 L1.9 -100.05 1.95 -101.2 -13.25 -107.35 Q-11.3 -108.85 -9.8 -110.8 L-9.65 -112.0 Q-9.45 -113.75 -9.8 -115.45 -11.3 -117.85 -14.05 -118.35 -16.65 -120.35 -19.6 -121.2 L-19.6 -123.5 -19.6 -129.3 -10.65 -128.8 Q-6.9 -128.05 -4.05 -130.4 -1.9 -132.2 -3.55 -134.75 -7.6 -141.15 -8.05 -148.35 -2.7 -143.65 1.75 -147.75 L2.2 -149.55 Q3.85 -153.35 3.5 -157.6 L8.45 -157.6 Q9.8 -157.7 10.05 -159.0 11.35 -166.2 5.0 -171.65 L7.7 -171.8 Q12.1 -170.15 16.6 -168.95 18.8 -168.4 20.7 -167.45 26.95 -164.35 31.75 -166.45 L31.85 -167.0 31.55 -168.15 34.85 -171.65 35.0 -172.2 35.25 -173.35 35.8 -173.95 Q36.2 -173.95 36.3 -173.75 37.7 -171.45 39.45 -169.3 L39.6 -168.75 39.65 -167.0 Q40.65 -166.25 41.55 -166.05 50.95 -163.9 59.65 -166.05 L58.9 -164.25 Q56.35 -159.6 56.0 -154.5 57.7 -152.9 60.05 -153.75 65.7 -157.4 72.0 -160.1 L72.0 -159.5 72.0 -157.2 Q72.65 -156.25 73.65 -155.9 79.0 -154.3 83.55 -154.5" fill="#ffff00" fill-opacity="0.5019608" fill-rule="evenodd" stroke="none"/>
  </g>
</svg>
