<?xml version="1.0" encoding="UTF-8" standalone="no"?>
<svg xmlns:ffdec="https://www.free-decompiler.com/flash" xmlns:xlink="http://www.w3.org/1999/xlink" ffdec:objectType="shape" height="120.25px" width="89.45px" xmlns="http://www.w3.org/2000/svg">
  <g transform="matrix(1.0, 0.0, 0.0, 1.0, 14.45, 156.75)">
    <path d="M33.15 -156.75 Q38.05 -156.75 41.5 -153.3 44.95 -149.85 44.95 -144.95 44.95 -140.05 41.5 -136.6 40.1 -135.2 38.55 -134.4 L35.9 -134.2 Q33.25 -135.35 31.25 -132.85 L31.7 -132.7 Q40.75 -128.95 48.95 -124.25 56.55 -131.0 65.0 -136.95 L65.15 -137.55 65.2 -138.65 65.2 -139.8 Q66.4 -142.05 68.95 -142.9 69.8 -143.15 70.25 -143.35 77.65 -142.95 73.55 -136.6 71.6 -133.6 68.55 -131.5 L63.15 -127.8 51.9 -119.4 Q49.2 -117.35 46.05 -119.15 36.95 -124.35 27.4 -128.5 L27.0 -126.45 25.8 -126.5 25.75 -126.35 24.3 -126.0 23.75 -125.2 23.3 -123.8 Q23.3 -123.4 23.45 -123.1 L24.3 -121.55 24.25 -120.05 24.25 -118.4 Q23.85 -116.7 23.85 -114.75 23.85 -113.15 24.35 -111.85 L23.55 -106.9 Q23.6 -103.05 23.05 -99.35 L22.35 -99.2 21.65 -98.4 21.35 -97.75 21.4 -96.25 Q21.5 -93.6 21.1 -91.05 L20.55 -90.2 20.35 -88.8 Q20.9 -87.2 22.4 -86.85 L22.1 -85.95 Q24.05 -84.4 25.4 -81.8 27.35 -78.15 30.25 -75.1 33.15 -72.0 34.45 -68.45 L34.6 -68.55 35.05 -68.85 35.1 -66.2 35.25 -65.2 35.15 -64.1 34.75 -64.0 Q34.4 -62.6 33.7 -61.3 28.95 -52.7 23.1 -44.8 30.3 -44.3 36.15 -40.45 L36.45 -40.05 Q34.7 -34.9 28.25 -37.2 24.25 -38.7 20.15 -38.6 L19.9 -38.35 19.85 -38.4 19.7 -38.6 17.2 -38.35 Q16.55 -38.55 15.95 -38.85 15.5 -39.0 15.15 -39.3 L14.6 -39.85 14.45 -40.45 14.45 -40.55 13.6 -40.4 14.4 -40.85 14.4 -41.0 14.4 -41.55 14.4 -42.1 14.4 -42.65 14.65 -43.2 15.15 -43.75 15.35 -43.85 Q17.35 -49.95 22.0 -55.2 24.5 -58.05 26.4 -61.4 L28.65 -65.4 Q27.25 -66.6 26.05 -68.7 22.9 -74.1 18.9 -79.15 18.8 -76.4 20.0 -74.15 L19.8 -72.6 19.1 -75.0 Q18.75 -76.05 18.9 -77.25 L18.75 -77.45 17.35 -70.35 Q16.65 -66.0 13.9 -62.7 L14.0 -62.25 14.05 -61.7 10.8 -58.2 10.7 -58.85 10.7 -58.6 9.8 -58.1 9.45 -56.95 0.35 -56.2 Q-3.45 -55.25 -6.85 -55.55 -6.65 -53.4 -7.15 -50.95 -8.15 -46.5 -8.4 -41.8 -13.0 -38.0 -13.9 -44.1 L-14.05 -49.05 Q-14.0 -50.1 -14.45 -51.1 -13.25 -53.6 -13.25 -56.35 -13.2 -57.45 -13.7 -58.45 L-13.25 -59.5 -12.45 -61.0 Q-11.6 -61.8 -10.3 -61.6 L-9.9 -61.55 7.7 -62.85 7.6 -63.9 9.15 -65.15 8.8 -66.0 Q13.05 -73.05 13.9 -81.75 L14.35 -84.65 14.55 -85.65 Q14.35 -86.15 14.4 -86.75 L14.5 -87.0 14.25 -87.35 14.15 -87.45 14.25 -90.7 15.0 -91.3 15.0 -91.35 15.65 -92.1 Q15.45 -94.1 15.55 -96.25 L15.55 -98.45 16.35 -99.55 16.9 -100.15 17.4 -103.9 Q17.55 -114.9 18.85 -125.75 L18.1 -125.6 Q13.6 -123.1 8.4 -121.85 L7.25 -120.95 6.15 -120.35 Q13.35 -123.05 16.45 -117.45 17.3 -115.9 16.15 -114.65 12.95 -111.2 7.5 -112.85 0.3 -115.0 -6.35 -117.55 -5.15 -123.95 2.5 -125.9 6.1 -126.85 9.6 -128.45 13.55 -130.3 17.45 -131.65 L17.85 -131.45 19.3 -132.05 19.85 -132.45 20.2 -133.95 20.35 -135.45 19.8 -136.0 21.8 -137.65 22.9 -139.05 Q21.35 -141.65 21.35 -144.95 21.35 -149.85 24.8 -153.3 28.25 -156.75 33.15 -156.75 M27.85 -134.0 L27.8 -134.1 27.75 -133.85 27.75 -133.6 27.95 -133.6 27.85 -134.0" fill="#000000" fill-rule="evenodd" stroke="none"/>
  </g>
</svg>
