<?xml version="1.0" encoding="UTF-8" standalone="no"?>
<svg xmlns:ffdec="https://www.free-decompiler.com/flash" xmlns:xlink="http://www.w3.org/1999/xlink" ffdec:objectType="shape" height="158.4px" width="118.35px" xmlns="http://www.w3.org/2000/svg">
  <g transform="matrix(1.0, 0.0, 0.0, 1.0, 20.95, 184.55)">
    <path d="M-9.6 -54.1 L-9.45 -54.25 -8.65 -54.05 -8.7 -53.6 -9.6 -54.1 M92.0 -173.0 Q92.15 -172.1 92.75 -171.25 93.55 -170.05 94.5 -168.95 L94.1 -168.4 93.55 -167.8 93.5 -167.2 93.35 -166.65 92.15 -165.35 88.9 -161.45 88.95 -160.3 89.1 -159.1 Q94.2 -157.5 97.4 -154.7 L94.8 -153.85 Q92.4 -152.75 90.45 -150.85 L90.65 -147.4 Q91.0 -143.7 92.4 -142.0 83.65 -147.3 78.35 -139.5 78.0 -137.75 78.0 -136.05 78.0 -132.7 76.05 -130.25 L75.75 -129.15 75.25 -127.95 69.25 -129.55 Q63.4 -131.6 61.2 -127.0 L61.2 -122.95 61.2 -117.75 60.05 -117.55 Q51.55 -123.0 42.35 -121.2 41.75 -120.2 42.25 -119.0 43.15 -116.8 42.95 -114.85 L41.75 -113.75 39.65 -111.4 39.7 -110.25 39.85 -109.1 41.5 -108.0 44.45 -105.25 43.6 -104.2 40.45 -100.6 40.45 -99.45 40.6 -98.3 Q44.2 -96.25 48.5 -96.25 L60.45 -96.75 60.4 -94.45 Q60.3 -93.3 60.65 -92.15 63.1 -90.85 65.05 -90.25 L64.65 -89.65 64.3 -89.1 64.25 -86.75 Q64.15 -85.6 64.5 -84.45 L64.95 -83.85 Q66.4 -81.15 69.5 -80.25 L69.65 -79.65 Q70.05 -78.4 71.4 -77.9 L70.85 -77.35 69.7 -76.2 69.75 -73.9 Q69.85 -71.8 70.65 -69.85 71.5 -69.15 71.95 -68.15 72.55 -66.6 73.55 -65.2 L73.55 -64.65 73.6 -64.1 73.9 -63.5 66.95 -65.25 Q60.9 -67.0 58.9 -62.15 L58.9 -58.1 58.9 -52.3 Q50.7 -54.4 43.1 -58.1 L42.1 -57.55 41.2 -56.55 41.3 -51.35 Q41.5 -46.05 40.8 -41.35 L33.1 -45.8 32.35 -45.55 31.95 -45.4 Q30.35 -43.75 30.45 -41.55 30.55 -39.0 30.25 -36.55 L27.6 -36.8 Q25.4 -37.2 24.1 -36.0 L12.7 -26.15 Q7.55 -32.0 -0.35 -33.25 L-0.25 -33.8 0.4 -35.0 0.4 -37.9 0.4 -41.95 -0.05 -42.45 -1.5 -43.45 -3.05 -43.5 Q-6.45 -44.0 -8.25 -45.95 L-7.35 -47.0 -5.2 -49.25 -5.05 -50.4 -5.0 -51.55 -4.6 -52.15 -4.2 -52.7 -4.25 -55.0 Q-4.35 -58.15 -7.3 -59.65 -7.2 -60.6 -7.7 -61.45 L-8.25 -62.3 -8.6 -63.05 -6.9 -62.75 Q-5.5 -62.45 -4.5 -63.4 -1.0 -66.65 -1.9 -71.55 L-1.55 -72.15 -0.95 -73.3 8.45 -74.4 Q9.8 -74.55 10.4 -75.8 10.5 -76.7 9.95 -77.3 L3.5 -84.65 Q3.65 -85.25 4.05 -85.65 L5.8 -88.1 5.8 -88.7 5.8 -89.25 Q6.75 -89.95 7.1 -91.0 7.6 -92.45 7.15 -93.9 L6.75 -94.45 5.8 -95.6 5.65 -96.1 Q3.45 -99.65 -0.35 -100.6 -0.25 -101.5 -0.55 -102.35 -0.95 -103.7 -1.9 -104.65 L-2.1 -106.35 Q-2.4 -107.6 -3.35 -108.0 L-18.25 -113.9 Q-16.8 -116.5 -16.95 -119.7 -17.25 -125.5 -20.95 -130.05 L-20.0 -130.25 Q-16.85 -128.2 -13.15 -129.15 -12.2 -129.4 -11.9 -130.1 -9.35 -136.4 -11.7 -143.15 -9.8 -142.0 -7.6 -141.7 -5.65 -141.4 -4.65 -142.55 -0.15 -147.6 -2.85 -154.7 L-2.1 -154.1 Q1.0 -151.6 4.25 -149.5 L4.5 -149.2 Q5.9 -147.95 7.7 -147.4 L8.45 -147.65 Q8.75 -147.75 9.05 -147.95 L9.45 -149.15 9.65 -150.85 10.0 -151.45 10.4 -152.0 10.6 -158.9 Q10.85 -164.35 8.85 -169.3 L10.4 -169.5 Q11.65 -168.65 13.1 -168.15 19.15 -166.0 21.55 -170.7 24.5 -176.3 26.0 -182.6 27.45 -181.8 28.55 -180.55 29.5 -179.5 30.45 -178.8 38.6 -173.2 45.25 -181.65 L46.2 -182.25 49.3 -184.55 Q50.0 -184.2 49.8 -182.0 L49.65 -178.0 49.3 -177.4 48.9 -176.85 48.85 -174.5 Q48.75 -173.35 49.1 -172.2 L49.7 -171.8 51.6 -171.25 Q58.05 -173.6 63.5 -173.0 63.45 -171.75 62.85 -170.6 L60.45 -166.05 60.4 -163.75 Q60.3 -162.55 60.65 -161.45 60.9 -161.15 61.25 -161.1 70.0 -160.4 75.05 -168.55 79.35 -163.45 84.35 -168.15 88.35 -172.0 92.0 -173.0" fill="#ffff00" fill-opacity="0.5019608" fill-rule="evenodd" stroke="none"/>
  </g>
</svg>
