<?xml version="1.0" encoding="UTF-8" standalone="no"?>
<svg xmlns:ffdec="https://www.free-decompiler.com/flash" xmlns:xlink="http://www.w3.org/1999/xlink" ffdec:objectType="shape" height="123.85px" width="85.75px" xmlns="http://www.w3.org/2000/svg">
  <g transform="matrix(1.0, 0.0, 0.0, 1.0, 6.35, 165.0)">
    <path d="M44.95 -153.2 Q44.95 -148.3 41.5 -144.85 40.1 -143.45 38.55 -142.65 L35.9 -142.45 Q33.55 -143.45 31.7 -141.65 40.9 -141.9 50.05 -141.5 58.15 -147.55 67.25 -151.95 67.55 -153.2 68.3 -154.25 69.85 -156.45 72.5 -156.8 80.5 -158.45 79.2 -151.5 78.7 -148.75 75.85 -147.8 63.2 -143.75 51.95 -136.6 48.15 -134.2 43.4 -134.85 L31.5 -136.35 33.55 -133.95 27.4 -136.75 26.75 -133.3 26.55 -132.95 27.55 -132.7 Q23.9 -129.35 23.85 -123.0 23.85 -121.4 24.35 -120.1 L23.55 -115.15 Q23.65 -109.3 22.25 -103.9 25.6 -102.0 26.7 -97.5 L26.75 -96.95 40.2 -77.15 Q41.7 -77.9 44.0 -78.05 46.05 -78.2 48.05 -78.95 L53.1 -80.7 Q55.05 -79.3 58.5 -78.45 58.9 -76.9 59.6 -75.7 56.65 -73.9 52.8 -73.2 L51.85 -72.95 51.3 -72.65 49.45 -71.9 Q45.45 -68.25 40.9 -67.25 38.15 -69.5 34.55 -70.45 33.25 -71.2 33.3 -72.9 L29.7 -77.55 29.65 -74.6 29.65 -74.55 29.7 -74.6 30.25 -74.75 29.9 -73.35 Q30.05 -70.95 28.25 -67.95 26.2 -64.55 22.6 -63.85 L22.65 -63.2 Q21.3 -62.55 19.8 -62.3 18.85 -61.35 18.5 -60.15 15.4 -57.5 12.2 -55.0 L12.15 -55.0 11.5 -54.15 Q15.65 -50.55 18.8 -45.75 19.05 -45.35 19.45 -45.1 L19.6 -44.55 20.0 -43.4 19.8 -42.85 19.45 -41.75 Q13.1 -39.4 9.6 -46.35 8.35 -48.9 6.35 -51.1 5.8 -51.7 5.6 -52.35 L4.8 -50.35 4.7 -50.4 3.6 -51.2 2.95 -51.85 2.6 -52.55 2.6 -53.15 2.65 -53.3 1.75 -53.35 2.7 -53.55 2.7 -53.7 2.85 -54.25 3.0 -54.75 3.15 -55.3 3.55 -55.75 4.2 -56.15 4.4 -56.2 Q8.0 -61.5 13.95 -65.25 L16.55 -67.05 17.3 -67.1 17.45 -67.1 17.5 -67.15 Q18.25 -69.7 21.55 -70.5 L22.5 -71.35 22.6 -71.4 Q24.2 -75.6 22.5 -78.25 22.85 -79.9 22.85 -81.6 L21.35 -86.25 Q20.9 -87.4 20.8 -88.65 19.55 -90.6 18.55 -92.65 L17.45 -94.2 16.55 -95.4 Q16.15 -96.75 16.45 -98.1 L15.65 -101.35 15.6 -102.05 15.55 -102.1 15.55 -104.5 15.55 -106.7 16.35 -107.8 16.9 -108.4 17.4 -112.15 Q17.45 -118.0 17.9 -123.8 L17.9 -123.95 17.95 -124.9 18.85 -134.0 18.1 -133.85 Q14.25 -131.7 9.9 -130.5 7.9 -129.2 5.4 -128.45 L3.05 -127.5 Q6.55 -127.05 8.75 -123.9 9.9 -122.2 8.45 -120.5 3.5 -114.65 -3.75 -119.55 -5.45 -120.7 -5.25 -123.0 L-5.1 -125.3 -6.35 -125.8 Q-5.3 -131.45 0.75 -133.6 3.7 -135.7 7.45 -136.55 L7.5 -136.65 9.95 -136.85 Q14.25 -138.85 18.55 -140.3 L17.25 -141.8 19.55 -144.05 21.8 -145.9 22.9 -147.3 Q21.35 -149.9 21.35 -153.2 21.35 -158.1 24.8 -161.55 28.25 -165.0 33.15 -165.0 38.05 -165.0 41.5 -161.55 44.95 -158.1 44.95 -153.2 M27.95 -141.85 L27.85 -142.25 27.8 -142.35 27.75 -142.1 27.75 -141.85 27.95 -141.85" fill="#000000" fill-rule="evenodd" stroke="none"/>
  </g>
</svg>
