<?xml version="1.0" encoding="UTF-8" standalone="no"?>
<svg xmlns:ffdec="https://www.free-decompiler.com/flash" xmlns:xlink="http://www.w3.org/1999/xlink" ffdec:objectType="shape" height="166.85px" width="113.15px" xmlns="http://www.w3.org/2000/svg">
  <g transform="matrix(1.0, 0.0, 0.0, 1.0, 15.2, 185.1)">
    <path d="M82.75 -168.35 Q82.65 -167.15 82.95 -166.05 L97.95 -151.6 Q94.5 -150.75 91.25 -149.3 87.95 -144.25 92.75 -139.7 93.5 -135.35 96.45 -131.6 87.85 -134.45 79.7 -132.4 79.7 -130.45 78.15 -129.5 77.6 -130.8 76.6 -131.8 76.65 -134.65 75.05 -137.0 L75.05 -137.55 75.05 -138.15 Q74.45 -139.4 73.15 -139.7 72.2 -139.65 71.6 -138.9 L70.85 -133.7 Q67.4 -134.4 65.85 -132.0 L65.85 -131.4 65.85 -130.25 Q64.25 -128.7 63.35 -126.8 57.6 -128.6 52.75 -126.2 L52.55 -125.05 Q50.65 -124.1 50.45 -122.2 L47.55 -121.4 Q44.35 -123.75 40.8 -125.05 38.8 -124.8 38.9 -122.95 L42.75 -118.35 Q41.45 -116.15 42.15 -113.7 L42.95 -112.55 Q42.75 -111.5 41.95 -110.8 41.85 -108.75 42.15 -106.8 L43.9 -105.8 Q48.15 -108.3 51.2 -112.35 53.0 -112.45 54.45 -113.3 55.35 -114.6 55.05 -116.2 L65.4 -117.1 Q66.25 -117.2 66.8 -117.95 76.8 -117.75 85.05 -116.0 L83.7 -114.85 Q83.05 -112.7 82.0 -110.8 82.2 -110.25 82.55 -110.05 89.65 -106.7 95.65 -101.4 L95.85 -100.25 96.8 -99.1 Q93.45 -98.6 91.25 -96.2 L91.25 -95.6 91.25 -93.3 Q92.15 -91.45 93.55 -89.85 93.3 -88.85 93.9 -88.1 95.6 -87.4 95.85 -85.8 95.9 -84.45 94.5 -85.4 90.35 -90.7 85.85 -85.4 86.0 -83.35 85.65 -81.4 82.85 -77.3 83.35 -72.15 80.1 -73.15 77.55 -76.95 75.9 -79.35 73.05 -79.9 65.9 -81.35 62.0 -74.25 L60.65 -74.85 Q59.6 -76.1 59.5 -77.7 57.0 -80.7 53.8 -82.6 46.35 -86.95 44.85 -78.9 40.0 -80.35 38.9 -76.75 43.1 -71.85 47.95 -66.95 41.7 -66.75 38.1 -61.95 39.05 -55.6 42.15 -49.8 43.5 -49.0 43.5 -47.5 42.95 -45.55 40.8 -47.15 35.1 -51.15 29.25 -50.4 27.9 -46.4 30.05 -42.7 L33.9 -35.6 Q32.3 -34.35 30.6 -33.25 29.2 -29.15 29.65 -24.6 L21.65 -23.6 Q20.6 -23.4 19.85 -22.5 L19.65 -21.35 Q17.7 -18.9 15.2 -18.25 12.75 -21.65 9.65 -24.6 L9.65 -25.2 9.65 -25.75 Q1.6 -30.4 -7.5 -30.95 L-5.95 -33.25 Q-6.05 -38.95 -1.15 -41.95 L-1.15 -42.5 -1.15 -44.25 Q-5.3 -49.25 -10.75 -52.9 L-14.25 -56.95 Q-8.9 -56.85 -4.6 -59.65 -3.7 -63.1 -4.6 -66.55 L-8.05 -71.75 Q-9.05 -74.3 -9.6 -76.95 -1.15 -74.85 5.2 -78.7 L7.35 -82.75 Q7.45 -85.65 7.15 -88.5 6.1 -89.3 6.35 -90.25 9.7 -93.45 9.45 -97.75 8.25 -99.65 6.15 -100.35 -4.05 -103.7 -15.0 -102.35 -13.45 -108.8 -15.0 -115.45 -11.8 -115.45 -10.4 -118.15 -10.25 -121.05 -10.55 -123.9 -13.2 -128.35 -15.2 -133.15 -10.7 -132.15 -7.1 -134.1 -6.9 -134.4 -6.85 -134.7 -5.1 -141.95 -5.75 -149.7 -1.15 -146.65 2.5 -150.1 4.95 -156.35 4.25 -163.35 L4.85 -163.95 7.5 -163.75 Q9.65 -161.85 12.15 -163.35 13.9 -167.65 11.2 -171.45 L11.2 -172.0 11.2 -184.7 Q12.4 -185.6 13.7 -184.55 22.6 -180.55 30.05 -175.1 33.3 -177.25 35.6 -180.5 38.25 -175.0 37.55 -168.35 L39.25 -167.4 40.6 -168.0 Q41.3 -168.7 41.2 -169.7 L48.9 -175.1 48.9 -174.5 Q48.75 -169.85 49.1 -165.3 55.7 -163.1 60.25 -169.3 64.6 -166.1 69.3 -167.4 69.9 -169.05 69.7 -170.85 L70.45 -172.0 70.45 -172.6 70.45 -175.5 Q78.4 -173.65 84.3 -170.1 L82.75 -168.35" fill="#ffff00" fill-opacity="0.5019608" fill-rule="evenodd" stroke="none"/>
  </g>
</svg>
