<?xml version="1.0" encoding="UTF-8" standalone="no"?>
<svg xmlns:ffdec="https://www.free-decompiler.com/flash" xmlns:xlink="http://www.w3.org/1999/xlink" ffdec:objectType="shape" height="124.95px" width="82.25px" xmlns="http://www.w3.org/2000/svg">
  <g transform="matrix(1.0, 0.0, 0.0, 1.0, 3.95, 162.95)">
    <path d="M70.15 -159.85 Q77.85 -162.55 77.5 -155.45 77.35 -152.7 74.65 -151.35 62.65 -145.7 52.4 -137.15 48.95 -134.3 44.15 -134.3 L34.9 -134.3 34.35 -134.45 33.7 -134.3 32.2 -134.25 32.75 -133.7 32.45 -133.45 Q31.8 -134.2 30.75 -134.45 L29.8 -134.15 29.15 -133.8 28.05 -134.1 27.9 -131.55 26.6 -131.55 26.55 -131.45 27.55 -131.2 Q23.9 -127.85 23.85 -121.5 L23.9 -120.75 Q23.95 -119.6 24.35 -118.6 L23.55 -113.65 23.55 -112.5 Q23.5 -106.3 21.75 -100.6 L22.5 -98.7 Q32.45 -99.95 42.5 -98.65 L43.05 -98.55 Q53.3 -98.8 63.7 -98.55 L63.9 -98.45 64.2 -98.55 69.85 -99.6 66.5 -103.0 65.4 -104.1 Q65.1 -104.9 65.2 -105.8 65.45 -107.2 66.7 -107.85 L67.1 -107.95 68.0 -108.1 68.0 -108.2 Q73.0 -106.2 76.35 -101.75 L76.95 -101.1 Q79.3 -97.55 77.6 -95.95 77.3 -94.65 76.05 -93.35 74.7 -92.0 72.75 -92.05 L24.85 -93.3 24.65 -93.4 24.65 -91.95 26.2 -90.2 26.0 -90.25 23.75 -91.25 23.6 -91.25 24.55 -88.35 Q25.4 -84.3 27.35 -80.55 29.25 -76.8 29.55 -73.05 L29.7 -73.1 30.25 -73.25 29.5 -70.7 29.4 -69.7 29.0 -68.65 28.6 -68.65 26.85 -66.35 Q20.0 -59.55 12.35 -53.65 L12.3 -53.65 11.7 -52.5 11.35 -51.8 11.4 -51.7 11.95 -51.05 17.05 -42.0 17.75 -40.4 17.55 -39.85 17.2 -38.75 Q11.95 -36.25 9.45 -42.35 L8.6 -43.6 8.45 -44.15 8.2 -45.25 Q5.85 -47.85 4.65 -50.95 L4.1 -49.3 3.6 -49.7 2.95 -50.35 2.6 -51.05 2.6 -51.65 2.65 -51.8 1.75 -51.85 2.7 -52.05 2.7 -52.2 2.85 -52.75 3.0 -53.25 3.15 -53.8 3.55 -54.25 4.2 -54.65 4.4 -54.7 Q8.0 -60.0 13.95 -63.75 17.1 -65.8 19.85 -68.5 L23.15 -71.7 Q22.1 -73.25 21.55 -75.6 20.45 -79.95 18.85 -84.2 L18.9 -84.7 Q18.95 -89.35 15.8 -90.85 L15.95 -94.15 15.9 -94.25 Q15.75 -95.1 16.05 -95.85 L16.05 -95.9 16.6 -100.85 Q17.05 -104.0 16.35 -106.3 L16.9 -106.9 17.4 -110.65 Q17.45 -116.5 17.9 -122.3 L17.9 -122.45 17.95 -123.4 18.55 -130.1 18.35 -129.95 17.9 -129.1 Q14.9 -127.1 11.55 -125.65 9.7 -124.15 7.35 -123.05 6.15 -122.5 5.1 -121.8 8.65 -121.8 11.25 -118.95 12.6 -117.45 11.4 -115.55 7.2 -109.15 -0.6 -113.05 -2.45 -113.95 -2.5 -116.25 L-2.7 -118.6 -3.95 -118.9 Q-3.65 -124.6 2.05 -127.55 4.7 -130.0 8.3 -131.35 L8.35 -131.45 10.75 -132.0 Q14.75 -134.5 18.85 -136.5 L17.35 -137.8 19.35 -140.35 21.3 -142.45 22.25 -144.0 Q20.35 -146.4 19.95 -149.65 19.3 -154.5 22.3 -158.35 25.25 -162.25 30.1 -162.85 34.95 -163.5 38.85 -160.55 42.7 -157.55 43.35 -152.7 43.95 -147.85 41.0 -144.0 39.8 -142.45 38.35 -141.4 L35.75 -140.9 Q33.25 -141.6 31.7 -139.55 L49.9 -141.75 Q57.15 -148.8 65.6 -154.35 65.7 -155.65 66.35 -156.75 67.55 -159.15 70.15 -159.85 M27.8 -139.65 L27.7 -139.7 27.7 -139.45 27.75 -139.2 27.95 -139.25 27.8 -139.65" fill="#000000" fill-rule="evenodd" stroke="none"/>
  </g>
</svg>
