<?xml version="1.0" encoding="UTF-8" standalone="no"?>
<svg xmlns:ffdec="https://www.free-decompiler.com/flash" xmlns:xlink="http://www.w3.org/1999/xlink" ffdec:objectType="shape" height="166.05px" width="124.5px" xmlns="http://www.w3.org/2000/svg">
  <g transform="matrix(1.0, 0.0, 0.0, 1.0, 25.0, 185.85)">
    <path d="M83.55 -170.5 L83.5 -167.0 Q83.4 -161.5 83.7 -156.05 88.3 -154.5 93.55 -153.95 97.4 -151.7 99.5 -148.15 91.4 -145.5 85.05 -140.05 L85.05 -138.9 Q84.95 -137.45 85.25 -136.05 L89.3 -131.4 89.6 -130.8 89.9 -129.5 Q84.85 -130.1 79.95 -131.6 78.9 -131.9 78.5 -131.3 73.85 -124.75 74.7 -116.2 L71.65 -118.6 Q63.6 -125.6 57.35 -118.35 L57.4 -117.75 Q57.5 -116.85 57.15 -116.0 L56.65 -115.4 Q55.2 -113.3 55.05 -110.8 L53.5 -110.8 Q51.55 -113.3 48.3 -112.95 43.6 -116.35 38.5 -114.3 L38.2 -113.1 Q37.85 -111.25 38.5 -109.65 L39.65 -108.5 39.85 -107.45 Q40.35 -106.3 40.45 -105.05 L40.15 -104.6 Q39.35 -103.85 39.65 -102.75 40.05 -102.15 40.6 -101.95 43.85 -100.5 47.35 -100.8 L47.35 -99.3 Q47.2 -96.05 47.55 -92.95 48.4 -92.45 49.35 -92.3 L58.15 -91.4 58.1 -89.65 Q58.0 -85.85 58.3 -82.15 59.2 -81.65 60.1 -81.5 L68.9 -80.25 68.55 -79.05 Q67.85 -76.6 68.15 -73.85 L69.3 -72.7 Q69.85 -72.15 70.45 -72.1 77.95 -71.85 82.75 -70.8 L82.75 -70.2 82.75 -67.9 Q85.2 -65.7 86.6 -64.65 83.35 -64.65 82.0 -61.95 L81.95 -60.8 Q81.85 -58.75 82.2 -56.75 L82.65 -56.1 Q83.55 -54.45 83.9 -52.7 86.4 -50.05 88.15 -46.95 L87.0 -46.95 84.55 -48.75 Q78.0 -53.0 72.75 -50.4 L72.8 -48.65 Q73.05 -43.6 72.35 -38.85 L70.95 -39.0 66.1 -40.55 Q56.1 -43.6 50.45 -34.8 L45.45 -39.8 Q41.05 -45.4 35.8 -40.6 L35.8 -39.45 Q35.65 -36.5 36.0 -33.65 L36.65 -33.25 Q37.65 -32.95 38.3 -32.1 36.95 -31.65 36.6 -30.4 L36.6 -29.25 36.6 -26.35 Q39.7 -23.6 41.2 -20.0 L36.0 -19.8 Q27.65 -25.5 17.35 -20.75 13.3 -27.4 5.8 -29.8 L5.85 -30.95 Q6.35 -33.95 4.45 -36.15 0.4 -42.35 -5.0 -47.7 -4.2 -49.7 -1.9 -50.8 1.85 -51.0 4.05 -53.85 L4.2 -55.0 4.25 -57.35 3.25 -59.25 Q-0.25 -66.15 -4.6 -72.35 6.0 -69.85 14.05 -74.65 L14.15 -75.2 Q13.85 -78.95 10.4 -80.8 L10.4 -81.95 10.4 -86.6 Q7.45 -89.75 2.5 -87.9 L0.5 -91.25 Q-0.2 -92.4 -1.5 -92.3 -10.45 -91.35 -15.4 -83.9 -16.15 -85.3 -17.7 -86.0 -19.7 -89.5 -23.25 -91.0 L-22.7 -91.6 Q-20.55 -94.2 -20.95 -97.95 -15.55 -99.55 -16.55 -105.05 -20.15 -110.75 -25.0 -115.45 -21.7 -116.3 -19.8 -119.3 -19.5 -120.1 -19.55 -121.05 -19.75 -124.75 -19.4 -128.35 -15.65 -125.65 -11.15 -127.0 -9.8 -128.75 -9.55 -130.9 -8.7 -137.45 -8.85 -144.1 -4.4 -140.1 1.35 -141.05 L1.7 -141.65 Q2.3 -142.9 3.3 -143.9 L3.6 -145.65 3.3 -153.15 6.15 -152.75 Q7.5 -153.1 8.1 -154.3 L8.35 -155.45 Q9.25 -158.2 8.85 -161.25 L8.1 -162.4 8.05 -164.15 Q7.9 -169.7 5.0 -174.5 6.8 -174.25 8.5 -173.55 8.95 -173.75 9.25 -174.1 12.85 -178.15 13.3 -183.55 L15.05 -181.25 15.05 -180.7 15.05 -180.1 Q18.2 -173.5 23.5 -176.65 L23.5 -177.2 23.5 -177.8 23.9 -178.35 Q25.3 -180.45 25.2 -183.0 26.4 -183.65 27.15 -184.7 L27.3 -185.3 27.35 -185.85 Q28.6 -185.75 28.75 -183.6 29.25 -177.35 31.4 -171.45 34.95 -168.3 38.1 -166.25 L38.15 -165.65 38.3 -164.5 40.05 -163.55 49.65 -171.65 Q49.65 -169.3 49.3 -167.05 48.3 -160.45 48.3 -153.75 L50.05 -152.75 55.8 -155.45 56.6 -154.35 Q58.8 -151.3 61.0 -154.4 65.95 -161.4 64.3 -170.85 L64.85 -171.45 Q69.1 -170.45 72.35 -167.4 73.4 -164.65 76.2 -163.55 78.7 -164.3 79.1 -166.8 81.5 -169.5 83.55 -170.5" fill="#ffff00" fill-opacity="0.5019608" fill-rule="evenodd" stroke="none"/>
  </g>
</svg>
