<?xml version="1.0" encoding="UTF-8" standalone="no"?>
<svg xmlns:ffdec="https://www.free-decompiler.com/flash" xmlns:xlink="http://www.w3.org/1999/xlink" ffdec:objectType="shape" height="126.3px" width="85.15px" xmlns="http://www.w3.org/2000/svg">
  <g transform="matrix(1.0, 0.0, 0.0, 1.0, 12.7, 158.65)">
    <path d="M36.4 -155.2 Q39.85 -151.75 39.85 -146.85 39.85 -141.95 36.4 -138.5 L34.05 -136.6 Q41.7 -133.35 49.7 -131.0 55.95 -136.55 62.75 -141.45 L62.9 -142.05 63.0 -142.6 63.15 -143.15 65.15 -145.85 Q65.75 -146.8 66.7 -147.45 L67.1 -147.55 68.0 -147.75 68.0 -147.8 Q74.75 -146.6 71.25 -140.15 L71.0 -139.6 Q61.1 -132.45 50.8 -126.3 49.05 -125.2 46.6 -125.8 38.05 -127.85 30.4 -131.8 L31.05 -130.8 30.4 -130.45 28.05 -131.1 27.9 -128.55 26.6 -128.55 26.55 -128.45 27.55 -128.2 Q23.9 -124.85 23.85 -118.5 23.85 -116.9 24.35 -115.6 L23.55 -110.65 Q23.65 -103.8 21.75 -97.6 L22.1 -96.95 Q31.15 -91.8 38.75 -84.4 L39.1 -84.0 40.35 -83.1 40.75 -83.1 41.65 -83.0 41.75 -83.1 Q52.85 -72.4 60.2 -58.7 60.25 -58.55 60.45 -58.35 61.5 -58.7 62.45 -59.35 L63.6 -60.2 Q67.5 -66.05 70.25 -60.45 71.0 -58.9 69.8 -57.4 64.85 -51.55 57.5 -52.6 55.95 -52.85 55.2 -54.3 49.65 -64.85 42.25 -74.2 L25.5 -87.5 24.85 -87.75 Q30.35 -82.9 33.85 -76.35 L34.2 -75.35 Q39.45 -67.0 32.15 -60.0 29.9 -57.8 28.2 -55.15 L24.2 -46.7 23.0 -44.5 Q25.25 -40.15 29.05 -36.2 30.0 -35.25 29.3 -33.9 28.55 -32.5 26.9 -32.35 17.75 -36.35 16.8 -45.65 L16.8 -46.75 Q21.8 -56.8 28.45 -65.65 L30.25 -68.05 30.2 -68.6 Q29.95 -69.4 30.1 -70.3 L29.8 -70.8 28.75 -72.0 Q25.45 -79.65 19.0 -85.55 L18.25 -86.25 17.95 -85.85 Q17.2 -87.2 15.8 -87.85 L15.95 -91.15 15.9 -91.25 Q15.75 -92.1 16.05 -92.85 L16.05 -92.9 16.6 -97.85 Q17.05 -101.0 16.35 -103.3 L16.9 -103.9 17.4 -107.65 Q17.45 -113.5 17.9 -119.3 L17.9 -119.45 17.95 -120.4 18.55 -127.1 18.35 -126.95 17.9 -126.1 Q14.9 -124.1 11.55 -122.65 9.7 -121.15 7.35 -120.05 L6.65 -119.7 6.45 -119.75 6.55 -119.25 Q6.25 -118.3 5.5 -117.75 3.75 -116.4 1.5 -116.45 0.65 -115.6 0.1 -114.6 -0.9 -112.75 -3.0 -111.95 L-3.15 -111.4 -3.35 -110.85 -3.55 -110.25 Q4.25 -105.9 -3.6 -102.5 -6.25 -101.3 -9.35 -102.1 -13.5 -103.2 -12.5 -107.65 -9.35 -113.3 -5.15 -118.25 L-1.7 -121.65 Q-0.3 -123.35 2.05 -124.55 4.7 -127.0 8.3 -128.35 L8.35 -128.45 10.75 -129.0 Q14.75 -131.5 18.85 -133.5 L18.65 -133.75 19.7 -134.55 20.95 -134.55 23.6 -136.2 20.9 -136.6 21.15 -137.25 19.7 -138.5 Q16.25 -141.95 16.25 -146.85 16.25 -151.75 19.7 -155.2 23.15 -158.65 28.05 -158.65 32.95 -158.65 36.4 -155.2" fill="#000000" fill-rule="evenodd" stroke="none"/>
  </g>
</svg>
