<?xml version="1.0" encoding="UTF-8" standalone="no"?>
<svg xmlns:ffdec="https://www.free-decompiler.com/flash" xmlns:xlink="http://www.w3.org/1999/xlink" ffdec:objectType="shape" height="161.25px" width="129.15px" xmlns="http://www.w3.org/2000/svg">
  <g transform="matrix(1.0, 0.0, 0.0, 1.0, 32.7, 166.05)">
    <path d="M90.45 -131.05 L90.4 -126.4 Q90.3 -121.2 90.65 -116.0 L92.45 -115.15 Q95.9 -113.7 96.45 -110.8 91.15 -108.75 85.85 -106.2 84.05 -104.35 83.95 -101.8 83.8 -95.85 85.65 -90.4 75.1 -97.4 68.35 -88.7 L68.0 -87.6 Q67.2 -85.8 66.0 -84.45 64.5 -86.15 62.15 -86.0 52.65 -92.55 46.6 -82.75 L46.55 -81.6 Q46.45 -80.65 46.8 -79.85 L56.6 -74.65 Q56.6 -73.65 55.95 -72.8 54.85 -71.3 55.05 -69.45 L54.65 -68.85 54.3 -68.3 54.35 -67.15 54.45 -66.0 Q55.85 -64.65 57.95 -64.85 62.0 -62.3 66.6 -60.8 65.9 -60.1 65.55 -59.2 64.45 -56.7 62.75 -54.65 L62.75 -53.5 62.75 -52.3 Q69.35 -48.35 77.35 -46.95 L77.2 -46.05 75.85 -43.65 75.85 -42.5 75.85 -40.8 Q83.65 -35.85 91.8 -31.55 L91.5 -30.95 91.05 -29.8 90.15 -29.35 88.9 -28.45 Q83.85 -27.55 79.3 -29.6 L77.55 -28.65 77.0 -25.7 Q76.6 -22.9 76.6 -20.0 67.0 -21.25 61.8 -13.45 L60.85 -13.55 Q60.75 -13.55 60.65 -13.65 58.45 -15.45 55.55 -15.05 46.55 -13.7 39.85 -7.1 L39.7 -6.5 39.65 -5.95 38.9 -5.35 38.1 -4.8 38.1 -5.35 38.1 -5.95 38.1 -6.5 Q37.6 -7.5 36.65 -8.0 26.35 -13.35 15.05 -13.65 L15.0 -17.1 15.05 -23.45 14.1 -24.65 Q11.15 -28.4 7.9 -31.55 9.45 -32.8 11.5 -32.55 17.55 -31.8 21.2 -35.75 L21.2 -36.95 21.2 -38.1 20.7 -38.55 Q15.9 -41.8 10.4 -44.05 9.4 -45.65 9.7 -47.5 10.35 -52.15 7.35 -55.6 L5.0 -64.8 Q2.75 -72.55 -2.7 -68.5 -2.55 -67.3 -3.1 -66.3 -4.1 -64.4 -4.6 -62.35 L-5.7 -63.2 Q-7.5 -64.85 -9.55 -66.0 -18.0 -70.85 -27.1 -67.15 L-26.2 -67.55 -25.6 -67.9 -24.65 -69.65 Q-23.65 -71.75 -24.8 -73.7 L-26.2 -75.0 -30.4 -80.05 -30.4 -80.6 -30.4 -81.2 -30.8 -81.75 -31.95 -82.9 -32.15 -83.95 Q-32.75 -85.2 -32.5 -86.4 L-31.95 -86.95 Q-27.4 -85.75 -25.0 -88.9 -25.0 -90.35 -25.45 -91.6 -27.7 -98.2 -31.95 -104.45 L-32.05 -105.6 -32.7 -107.35 Q-25.7 -105.35 -19.25 -107.35 -18.6 -109.3 -18.7 -111.4 L-18.85 -121.2 Q-17.4 -121.0 -16.35 -120.3 -9.15 -115.3 -4.4 -121.6 -4.1 -123.85 -4.2 -126.2 L-4.8 -135.85 Q-3.4 -134.35 -1.35 -134.1 L-0.9 -133.75 0.8 -132.75 1.55 -133.0 2.15 -133.35 Q2.95 -134.35 2.95 -135.65 2.95 -138.8 0.4 -140.85 L0.4 -141.4 0.4 -142.0 -0.5 -143.0 Q-2.15 -144.45 -1.9 -146.6 L-2.35 -147.15 -3.45 -148.35 -3.45 -148.9 -3.45 -149.5 -3.45 -150.1 Q0.95 -148.45 5.2 -149.5 L5.6 -150.7 5.8 -152.4 6.15 -152.95 6.55 -153.55 6.55 -154.7 6.55 -157.0 6.95 -157.6 7.35 -158.15 7.35 -158.75 7.4 -159.3 7.5 -159.7 Q11.7 -156.35 16.2 -153.55 18.05 -154.25 18.6 -156.25 19.85 -161.05 20.05 -166.05 L28.05 -159.85 28.1 -159.7 Q28.5 -159.1 28.95 -159.05 L29.05 -159.0 30.05 -158.15 30.9 -158.65 31.0 -158.7 32.85 -158.55 32.9 -158.35 34.65 -157.4 36.7 -158.55 37.75 -159.1 45.8 -163.35 Q45.8 -162.45 46.15 -161.6 47.0 -159.7 46.4 -157.6 L45.8 -157.0 45.8 -155.85 Q45.7 -154.35 46.0 -152.95 53.1 -152.0 60.05 -152.95 L59.2 -151.3 Q57.65 -148.6 55.8 -146.05 L55.75 -144.9 55.65 -143.75 55.05 -143.15 51.95 -139.7 51.95 -138.55 Q51.85 -137.65 52.15 -136.8 57.15 -134.85 62.0 -137.75 L62.85 -136.55 Q63.65 -135.3 63.7 -133.7 L64.35 -133.4 Q68.55 -132.65 71.2 -137.0 L73.55 -137.2 73.55 -136.6 73.7 -136.05 74.3 -135.5 75.05 -134.9 75.1 -134.3 75.25 -133.7 75.7 -133.1 Q76.75 -130.6 79.3 -130.45 85.1 -133.05 90.45 -131.05" fill="#ffff00" fill-opacity="0.5019608" fill-rule="evenodd" stroke="none"/>
  </g>
</svg>
