<?xml version="1.0" encoding="UTF-8" standalone="no"?>
<svg xmlns:ffdec="https://www.free-decompiler.com/flash" xmlns:xlink="http://www.w3.org/1999/xlink" ffdec:objectType="shape" height="124.95px" width="87.5px" xmlns="http://www.w3.org/2000/svg">
  <g transform="matrix(1.0, 0.0, 0.0, 1.0, 14.55, 150.4)">
    <path d="M39.85 -138.6 Q39.85 -133.7 36.4 -130.25 L34.3 -128.5 33.0 -127.95 Q31.75 -127.7 31.0 -126.65 33.95 -123.45 36.1 -119.25 L36.45 -118.65 Q40.8 -114.2 44.85 -109.3 55.15 -109.6 62.75 -116.8 64.25 -124.65 72.05 -120.95 73.05 -120.45 72.95 -119.2 72.5 -113.5 66.45 -111.55 L65.3 -110.9 Q54.45 -101.95 41.45 -104.9 40.45 -105.1 39.55 -105.9 32.0 -112.75 28.0 -121.45 L27.9 -120.3 26.6 -120.3 26.55 -120.2 27.55 -119.95 Q23.9 -116.6 23.85 -110.25 23.85 -108.65 24.35 -107.35 L23.55 -102.4 Q23.65 -95.55 21.75 -89.35 22.65 -87.8 22.75 -85.7 L23.95 -85.4 Q23.4 -83.2 26.45 -80.5 30.7 -76.85 36.0 -74.7 L39.8 -73.05 27.8 -78.25 30.15 -76.4 Q33.55 -73.65 37.3 -71.3 41.1 -68.9 42.6 -65.0 43.3 -63.2 42.8 -61.35 L41.85 -57.35 41.4 -56.8 Q47.6 -46.8 52.9 -36.0 L54.0 -33.25 Q60.2 -35.95 66.1 -34.1 67.1 -33.75 67.05 -32.55 61.85 -28.1 54.45 -27.1 48.7 -26.3 47.4 -32.2 47.0 -33.95 46.1 -35.6 45.25 -37.25 45.05 -39.05 L43.55 -40.75 42.95 -41.3 Q42.35 -44.6 40.2 -47.1 L39.8 -48.05 38.45 -50.1 37.95 -49.55 Q37.15 -45.85 35.85 -42.3 L34.2 -38.3 Q39.05 -33.45 44.1 -28.95 44.9 -28.25 44.5 -27.1 L44.1 -26.0 Q39.0 -24.1 34.5 -28.75 L27.3 -35.5 Q26.85 -36.9 27.35 -38.3 27.7 -39.25 28.4 -40.0 30.2 -44.15 31.6 -48.4 32.2 -50.3 32.3 -52.35 L33.1 -53.4 33.65 -54.0 34.25 -56.4 28.25 -65.0 Q27.95 -65.4 27.85 -65.95 24.65 -69.65 22.6 -73.75 L20.7 -75.0 Q18.05 -76.65 17.15 -79.3 L16.3 -79.3 15.8 -79.6 15.95 -82.9 15.9 -83.0 Q15.75 -83.85 16.05 -84.6 L16.05 -84.65 16.6 -89.6 Q17.05 -92.75 16.35 -95.05 L16.9 -95.65 17.4 -99.4 Q17.45 -105.25 17.9 -111.05 L17.9 -111.2 17.95 -112.15 18.35 -116.65 Q19.25 -117.45 19.7 -118.65 L20.3 -120.55 Q13.3 -114.25 5.75 -108.25 L4.85 -107.65 Q-0.75 -100.1 -4.95 -91.8 -3.65 -88.95 -5.05 -84.85 L-5.25 -84.3 Q-7.1 -82.6 -8.85 -83.6 -10.95 -80.4 -14.55 -83.15 -14.75 -86.95 -13.15 -90.2 L-13.2 -90.45 -13.25 -91.55 -13.25 -92.7 -12.4 -93.7 -10.45 -94.75 -10.2 -94.8 Q-9.55 -96.15 -9.35 -97.75 -7.0 -100.35 -5.15 -103.3 L-4.3 -104.45 Q3.85 -116.95 17.0 -126.0 L18.85 -127.25 19.25 -127.35 20.15 -127.5 20.2 -127.6 22.7 -127.35 23.6 -127.95 20.9 -128.35 21.15 -129.0 19.7 -130.25 Q16.25 -133.7 16.25 -138.6 16.25 -143.5 19.7 -146.95 23.15 -150.4 28.05 -150.4 32.95 -150.4 36.4 -146.95 39.85 -143.5 39.85 -138.6 M-12.3 -98.2 L-12.65 -96.8 -12.5 -97.9 -12.3 -98.2" fill="#000000" fill-rule="evenodd" stroke="none"/>
  </g>
</svg>
