<?xml version="1.0" encoding="UTF-8" standalone="no"?>
<svg xmlns:ffdec="https://www.free-decompiler.com/flash" xmlns:xlink="http://www.w3.org/1999/xlink" ffdec:objectType="shape" height="130.05px" width="80.0px" xmlns="http://www.w3.org/2000/svg">
  <g transform="matrix(1.0, 0.0, 0.0, 1.0, 12.65, 134.65)">
    <path d="M30.3 -134.65 Q35.2 -134.65 38.65 -131.2 42.1 -127.75 42.1 -122.85 42.1 -117.95 38.65 -114.5 L36.55 -112.75 35.25 -112.2 Q34.0 -111.95 33.25 -110.9 36.2 -107.7 38.35 -103.5 L38.7 -102.9 45.0 -96.0 Q46.25 -96.9 48.05 -97.5 49.05 -97.8 50.0 -98.5 55.3 -102.25 58.85 -107.6 L58.85 -108.1 58.5 -108.75 57.9 -109.3 57.8 -109.85 57.75 -113.2 57.75 -114.35 58.0 -114.85 Q59.1 -116.2 60.55 -116.4 68.2 -118.15 67.25 -111.6 66.6 -107.0 63.3 -103.35 L55.3 -94.7 Q51.15 -90.4 45.95 -90.0 46.4 -89.35 47.3 -89.05 L49.6 -88.4 43.7 -89.15 Q42.7 -89.35 41.8 -90.15 34.25 -97.0 30.25 -105.7 L30.15 -104.55 28.85 -104.55 28.8 -104.45 29.8 -104.2 Q26.15 -100.85 26.1 -94.5 26.1 -92.9 26.6 -91.6 L25.8 -86.65 Q25.85 -83.4 25.45 -80.25 29.95 -80.75 32.0 -77.4 32.85 -76.1 32.8 -74.35 32.75 -72.9 32.15 -71.55 28.15 -70.45 24.7 -72.0 L24.85 -71.3 Q29.25 -69.55 32.95 -65.8 L33.65 -65.2 45.15 -52.0 Q46.6 -50.3 47.65 -48.4 L48.55 -47.8 49.3 -47.25 Q53.7 -37.75 50.6 -27.45 49.9 -25.15 50.0 -22.6 50.1 -20.0 49.5 -17.55 52.6 -14.85 58.1 -14.2 61.4 -13.85 62.6 -10.85 61.6 -6.15 56.6 -7.8 L48.5 -10.4 Q45.2 -11.4 42.95 -13.85 L45.1 -36.9 Q45.7 -42.3 41.9 -46.55 35.8 -53.4 28.9 -59.9 31.1 -50.85 32.7 -41.65 37.35 -31.75 27.15 -25.55 22.6 -22.75 19.05 -18.7 23.5 -13.5 28.4 -9.15 29.8 -2.15 23.7 -5.95 19.05 -8.85 15.25 -12.85 12.1 -16.15 12.55 -20.5 12.75 -22.6 14.95 -23.35 21.35 -29.75 28.6 -35.7 28.8 -36.65 28.2 -37.35 L27.3 -38.5 Q25.35 -48.6 22.8 -58.55 L22.4 -60.9 Q21.55 -61.95 21.05 -63.1 L20.05 -62.1 Q19.65 -62.8 19.4 -63.55 L18.55 -63.55 18.05 -63.85 18.2 -67.15 18.15 -67.25 Q18.0 -68.1 18.3 -68.85 L18.3 -68.9 18.85 -73.85 19.05 -76.75 16.35 -79.65 Q9.1 -87.0 7.2 -96.35 L5.2 -98.05 Q11.3 -104.8 19.25 -110.25 L21.1 -111.5 21.5 -111.6 22.4 -111.75 22.45 -111.85 24.95 -111.6 25.85 -112.2 23.15 -112.6 23.4 -113.25 21.95 -114.5 Q18.5 -117.95 18.5 -122.85 18.5 -127.75 21.95 -131.2 25.4 -134.65 30.3 -134.65 M22.55 -104.8 L12.95 -96.5 Q14.7 -94.05 15.95 -90.95 L16.95 -88.95 Q18.15 -86.9 19.7 -85.05 19.75 -90.2 20.15 -95.3 L20.15 -95.45 20.2 -96.4 20.6 -100.9 Q21.5 -101.7 21.95 -102.9 L22.55 -104.8 M-12.5 -89.65 L-12.3 -89.95 -12.65 -88.55 -12.5 -89.65" fill="#000000" fill-rule="evenodd" stroke="none"/>
  </g>
</svg>
