<?xml version="1.0" encoding="UTF-8" standalone="no"?>
<svg xmlns:ffdec="https://www.free-decompiler.com/flash" xmlns:xlink="http://www.w3.org/1999/xlink" ffdec:objectType="shape" height="169.0px" width="109.1px" xmlns="http://www.w3.org/2000/svg">
  <g transform="matrix(1.0, 0.0, 0.0, 1.0, 46.45, 146.15)">
    <path d="M34.8 -140.05 Q34.2 -138.9 34.0 -137.65 33.45 -134.85 31.9 -132.55 31.9 -131.1 31.45 -129.8 30.65 -127.5 31.35 -125.05 40.95 -120.9 50.9 -118.9 L49.75 -117.75 48.05 -116.0 48.05 -114.85 48.05 -113.7 60.5 -105.05 Q57.5 -104.05 54.95 -102.2 54.7 -98.85 56.25 -96.05 L62.65 -83.75 Q54.75 -87.5 49.6 -82.6 L49.6 -79.15 49.6 -72.25 47.45 -72.05 Q43.7 -74.55 39.6 -73.75 38.25 -72.35 38.25 -70.5 L37.85 -62.05 34.75 -62.85 Q28.2 -65.5 24.2 -59.95 L24.2 -58.2 24.2 -57.05 25.25 -56.0 Q26.15 -55.2 26.55 -54.15 L25.7 -53.1 23.45 -50.7 23.45 -49.0 23.45 -47.85 24.55 -46.85 Q32.75 -41.0 40.35 -34.95 L40.05 -34.6 Q37.0 -33.2 35.0 -30.55 L35.05 -29.4 35.15 -28.25 Q35.45 -27.95 35.8 -27.8 L37.85 -27.1 45.95 -20.95 Q41.8 -18.5 37.3 -16.9 L37.3 -15.2 37.3 -14.05 39.45 -11.35 47.25 -1.35 Q37.65 -1.7 28.45 0.4 27.85 1.1 27.85 2.1 27.8 3.7 28.45 5.0 L29.5 6.2 Q31.2 8.55 33.25 10.75 L32.5 10.75 Q30.1 10.55 28.05 11.3 20.9 13.95 16.35 19.8 13.4 17.45 10.1 15.6 6.95 13.85 3.75 15.8 -2.4 19.6 -8.6 22.85 -8.9 22.0 -9.5 21.7 -18.55 17.45 -28.8 18.25 L-28.8 15.95 -28.8 11.9 Q-29.4 10.7 -30.25 9.85 -36.2 4.2 -42.8 1.7 -41.75 0.8 -41.75 -0.6 -41.7 -2.65 -42.05 -4.6 L-43.05 -5.75 -44.15 -6.9 -44.15 -7.5 -44.15 -8.05 -44.95 -9.2 Q-45.8 -10.3 -46.45 -11.55 L-32.9 -12.8 Q-32.35 -12.85 -31.85 -13.45 L-31.8 -15.2 Q-31.75 -16.1 -32.05 -16.9 L-32.45 -17.45 -33.4 -18.65 Q-33.45 -20.35 -34.3 -21.8 L-40.1 -31.3 -40.7 -32.95 Q-41.3 -34.05 -41.1 -35.35 L-31.4 -34.85 Q-27.95 -34.4 -25.95 -36.25 -20.7 -41.15 -25.5 -48.4 L-19.15 -50.2 Q-16.6 -51.05 -17.05 -53.5 -18.6 -61.65 -25.9 -66.85 -18.05 -67.0 -12.85 -72.25 L-12.75 -73.4 -12.85 -74.55 -13.25 -75.05 Q-18.9 -81.1 -26.7 -83.75 L-25.85 -84.25 Q-22.55 -86.05 -21.1 -89.5 L-21.05 -91.25 Q-21.0 -92.15 -21.3 -92.95 -25.7 -98.1 -31.85 -100.65 L-24.6 -100.1 Q-14.55 -99.0 -15.75 -108.35 -10.5 -108.3 -6.7 -111.4 -6.4 -112.55 -6.45 -113.7 L-6.5 -117.15 -6.9 -117.75 -7.85 -118.9 -8.0 -119.5 -8.1 -120.05 -8.25 -120.65 -9.1 -121.85 -9.6 -122.95 Q-7.05 -122.85 -5.75 -124.85 -5.75 -128.0 -6.0 -131.15 -6.35 -136.1 -7.3 -141.0 L-4.8 -140.4 Q3.9 -135.85 8.1 -144.65 L9.2 -145.05 11.15 -146.0 11.55 -146.1 12.5 -146.1 12.7 -146.0 13.95 -144.5 Q14.45 -143.45 14.25 -142.15 L14.75 -141.5 15.0 -141.0 15.0 -140.4 15.0 -139.85 Q19.65 -134.0 26.55 -137.55 L34.8 -140.05" fill="#ffff00" fill-opacity="0.5019608" fill-rule="evenodd" stroke="none"/>
  </g>
</svg>
