<?xml version="1.0" encoding="UTF-8" standalone="no"?>
<svg xmlns:ffdec="https://www.free-decompiler.com/flash" xmlns:xlink="http://www.w3.org/1999/xlink" ffdec:objectType="shape" height="168.1px" width="102.15px" xmlns="http://www.w3.org/2000/svg">
  <g transform="matrix(1.0, 0.0, 0.0, 1.0, 41.25, 144.5)">
    <path d="M28.85 -131.95 L28.85 -130.25 28.85 -124.45 29.6 -123.3 30.4 -122.7 48.8 -121.4 48.25 -120.8 47.9 -119.75 Q46.15 -116.2 46.5 -112.2 53.6 -107.05 60.9 -102.2 53.3 -102.8 48.8 -97.95 L48.8 -96.8 48.8 -93.95 49.15 -93.35 Q50.2 -90.9 51.7 -88.95 41.8 -90.85 37.3 -82.0 L37.25 -80.85 Q37.0 -77.45 38.8 -74.55 L23.15 -73.35 Q22.0 -73.25 21.15 -72.25 L21.15 -71.05 21.15 -67.6 21.65 -67.0 21.9 -66.45 21.9 -65.3 21.9 -63.6 Q17.35 -62.75 14.25 -59.75 L14.2 -59.15 Q14.1 -58.25 14.45 -57.45 L16.15 -56.3 Q22.75 -50.4 29.6 -45.15 27.05 -41.85 24.2 -38.8 L24.2 -37.65 Q24.1 -35.6 24.4 -33.6 30.1 -31.7 35.0 -28.25 33.05 -24.25 29.6 -21.35 L29.55 -20.75 Q29.5 -19.85 29.8 -19.0 30.65 -18.15 31.9 -17.85 L32.15 -17.5 Q32.95 -16.6 34.2 -16.35 35.15 -14.8 37.1 -14.8 L41.5 -11.15 Q38.0 -9.55 35.75 -6.55 L35.7 -5.4 Q35.65 -4.5 35.95 -3.65 39.6 -0.35 43.6 2.5 35.75 9.2 25.75 9.2 L25.0 10.2 Q22.05 14.4 20.95 19.4 L20.0 19.4 19.6 19.2 Q18.2 17.4 16.25 16.35 14.1 15.2 11.75 15.15 2.5 14.9 -2.65 23.6 -3.85 21.75 -4.5 19.65 -4.9 18.4 -6.1 18.05 -15.2 15.55 -24.95 17.45 L-25.0 16.5 -25.15 15.35 Q-31.05 8.7 -39.75 6.35 L-38.45 5.5 Q-35.1 3.15 -35.9 -0.75 L-36.25 -1.35 -41.25 -10.0 -31.35 -11.25 Q-30.8 -11.35 -30.35 -11.9 L-30.3 -13.05 Q-30.2 -14.25 -30.5 -15.35 L-34.0 -20.0 -34.15 -20.55 -35.3 -23.45 Q-32.55 -25.3 -29.15 -25.95 -27.7 -27.1 -26.7 -28.6 L-26.5 -29.8 Q-26.25 -31.05 -27.05 -32.1 -32.85 -37.2 -35.3 -43.6 -33.85 -45.5 -31.5 -45.9 L-25.9 -49.95 -25.8 -51.1 -25.7 -55.7 -26.15 -56.25 Q-26.85 -57.05 -27.85 -57.45 L-28.0 -57.8 -28.6 -58.95 Q-30.95 -59.75 -31.85 -61.85 -30.1 -65.1 -27.45 -67.6 -26.55 -69.85 -26.5 -72.25 -26.5 -73.4 -27.05 -74.15 -30.7 -79.15 -38.0 -79.15 L-38.35 -79.55 -38.8 -80.1 -38.8 -81.25 -38.8 -83.0 -34.15 -88.75 Q-33.95 -96.05 -41.1 -99.1 -35.8 -100.65 -32.05 -104.5 -31.75 -105.35 -31.85 -106.25 L-32.65 -112.55 -33.05 -113.1 -34.0 -114.85 -33.4 -114.65 Q-30.5 -114.3 -28.3 -115.4 -23.65 -117.75 -22.85 -123.7 L-17.05 -123.9 -16.8 -124.5 -16.3 -126.2 -15.5 -127.45 Q-13.7 -130.8 -14.2 -134.85 -13.0 -133.95 -11.45 -133.75 -8.8 -133.4 -7.0 -134.7 -1.55 -138.55 1.95 -144.45 L2.25 -144.5 Q4.55 -139.9 8.1 -136.2 L8.15 -135.6 8.3 -135.05 10.0 -134.05 10.75 -134.3 11.35 -134.65 11.75 -135.25 Q12.55 -136.6 12.7 -138.1 L15.0 -141.0 15.1 -141.95 15.2 -141.75 15.45 -140.6 Q15.35 -137.1 17.3 -134.25 L17.3 -133.7 Q17.2 -132.8 17.5 -131.95 23.35 -130.75 28.85 -131.95" fill="#ffff00" fill-opacity="0.5019608" fill-rule="evenodd" stroke="none"/>
  </g>
</svg>
