<?xml version="1.0" encoding="UTF-8" standalone="no"?>
<svg xmlns:ffdec="https://www.free-decompiler.com/flash" xmlns:xlink="http://www.w3.org/1999/xlink" ffdec:objectType="shape" height="130.25px" width="65.05px" xmlns="http://www.w3.org/2000/svg">
  <g transform="matrix(1.0, 0.0, 0.0, 1.0, 25.2, 128.3)">
    <path d="M10.8 -124.85 Q14.25 -121.4 14.25 -116.5 14.25 -111.6 10.8 -108.15 L10.15 -107.5 10.15 -107.35 9.0 -106.25 Q8.05 -105.1 6.8 -104.55 L5.9 -104.55 8.4 -102.7 Q10.7 -100.65 13.1 -98.7 24.3 -100.15 31.55 -108.7 31.9 -110.4 31.8 -112.15 31.65 -114.0 33.3 -114.85 L33.7 -115.0 34.6 -115.15 34.65 -115.25 Q42.25 -114.8 38.75 -108.0 L38.3 -107.35 Q32.7 -98.05 21.95 -93.8 15.6 -91.3 9.7 -94.05 L5.6 -96.0 3.7 -97.0 3.55 -95.35 2.8 -89.35 Q7.8 -89.95 10.1 -85.55 10.7 -84.3 10.25 -82.95 9.6 -81.15 7.7 -81.1 L1.9 -81.3 Q1.25 -75.4 0.9 -69.4 0.5 -62.75 -2.1 -56.6 0.75 -53.6 3.3 -49.95 9.05 -41.8 10.75 -32.2 11.35 -28.85 11.2 -25.4 10.8 -15.35 12.1 -5.75 L11.8 -4.8 Q16.2 -5.6 19.6 -3.15 20.6 -2.4 20.6 -1.15 19.95 1.1 17.7 1.15 L8.75 0.5 Q8.0 0.4 7.3 -0.15 L7.15 -0.75 Q6.95 -1.95 7.55 -2.9 L5.75 -4.0 Q6.0 -19.2 4.05 -33.95 3.8 -35.85 2.65 -37.45 1.65 -38.75 1.55 -40.4 L0.55 -41.55 -0.4 -42.7 -0.55 -43.3 -0.75 -44.45 -2.5 -46.2 -3.1 -46.75 Q-3.8 -32.6 -5.45 -18.7 -5.9 -14.65 -8.1 -11.05 -10.65 -6.9 -13.95 -3.75 L-10.35 -3.25 Q-8.55 -2.95 -7.9 -1.15 -8.05 2.2 -11.55 1.95 L-23.6 0.55 Q-24.35 0.4 -25.0 -0.15 L-25.15 -0.75 Q-25.35 -1.95 -24.65 -2.95 L-23.65 -4.0 -23.3 -4.15 -22.35 -4.3 -22.35 -4.4 -20.8 -4.3 Q-18.85 -9.05 -15.1 -13.3 -13.05 -15.65 -11.35 -18.25 -8.85 -28.55 -9.25 -39.65 L-9.25 -41.95 Q-8.95 -50.1 -8.1 -58.1 L-7.85 -58.45 Q-7.55 -62.2 -6.65 -65.95 -4.75 -74.0 -3.75 -82.25 -13.8 -84.65 -21.95 -91.95 L-22.25 -94.85 -21.95 -96.6 Q-15.05 -99.8 -7.6 -102.8 L-4.9 -104.1 -4.0 -104.6 -2.75 -105.55 -2.55 -105.9 -4.8 -105.9 -4.45 -106.9 -5.9 -108.15 Q-9.35 -111.6 -9.35 -116.5 -9.35 -121.4 -5.9 -124.85 -2.45 -128.3 2.45 -128.3 7.35 -128.3 10.8 -124.85 M-12.15 -93.9 Q-9.9 -90.35 -4.05 -88.65 L-3.15 -88.45 Q-2.8 -92.9 -2.7 -97.4 -7.15 -95.0 -12.15 -93.9" fill="#000000" fill-rule="evenodd" stroke="none"/>
  </g>
</svg>
