<?xml version="1.0" encoding="UTF-8" standalone="no"?>
<svg xmlns:ffdec="https://www.free-decompiler.com/flash" xmlns:xlink="http://www.w3.org/1999/xlink" ffdec:objectType="shape" height="175.65px" width="117.7px" xmlns="http://www.w3.org/2000/svg">
  <g transform="matrix(1.0, 0.0, 0.0, 1.0, 51.05, 145.1)">
    <path d="M32.1 -126.95 L31.15 -125.8 31.1 -125.25 Q30.65 -123.05 29.6 -121.2 L29.6 -120.65 Q29.45 -118.6 29.8 -116.6 31.75 -114.8 34.35 -116.15 41.3 -119.7 48.05 -119.65 L48.0 -119.1 Q47.9 -117.05 48.25 -115.05 55.05 -111.8 63.0 -111.05 59.4 -108.7 56.5 -105.25 L56.5 -104.7 56.5 -102.4 Q60.6 -97.25 66.65 -95.1 60.25 -94.35 55.7 -90.3 55.7 -87.7 55.85 -85.1 56.15 -79.9 57.05 -74.9 54.45 -75.55 52.05 -76.75 45.85 -79.85 39.6 -80.7 38.0 -79.05 38.0 -76.85 38.0 -72.15 37.1 -67.6 33.95 -67.6 31.2 -69.1 29.25 -70.15 27.55 -71.3 22.95 -74.4 18.85 -72.25 L18.85 -71.65 18.85 -65.3 20.4 -63.0 Q15.7 -61.65 12.7 -58.0 L12.7 -57.45 12.7 -54.55 Q16.0 -50.15 21.15 -47.85 22.05 -46.3 24.05 -46.3 26.6 -44.55 28.85 -43.4 L24.2 -36.5 24.2 -35.9 24.2 -34.75 Q29.55 -30.7 35.75 -28.25 32.65 -24.95 30.0 -21.35 28.1 -20.6 27.3 -18.85 L27.25 -18.25 Q27.15 -17.05 27.5 -15.95 35.45 -12.0 42.85 -8.65 37.85 -5.85 35.75 -0.95 44.95 4.15 53.4 10.35 40.9 11.85 29.6 16.15 L29.6 16.7 29.6 18.45 30.15 19.05 Q33.55 23.1 35.75 27.85 32.4 26.7 29.55 24.7 19.45 17.65 11.15 25.55 L11.15 26.1 11.15 26.7 8.1 30.55 Q5.05 26.6 0.95 23.85 -1.95 21.95 -5.0 23.55 -9.35 25.8 -13.25 25.55 -14.5 22.3 -17.65 21.45 -25.35 19.3 -30.35 19.8 L-30.1 19.25 Q-29.25 17.65 -29.55 15.75 -36.4 10.2 -44.55 6.55 -39.5 5.2 -35.7 1.9 L-35.7 1.35 -35.7 -0.4 Q-38.2 -2.35 -40.3 -4.8 L-40.4 -5.35 -40.7 -6.55 -43.4 -10.0 -43.5 -10.55 Q-43.85 -11.55 -43.4 -12.3 -38.35 -11.9 -35.7 -15.75 -35.7 -17.2 -36.2 -18.45 -38.0 -23.2 -38.6 -27.85 -34.05 -29.3 -31.1 -32.65 -30.85 -38.7 -36.85 -41.9 -30.45 -47.35 -23.4 -51.85 L-23.4 -52.45 -23.4 -53.0 Q-22.65 -53.75 -22.65 -54.75 -27.8 -58.75 -31.85 -63.0 -27.6 -65.65 -24.2 -68.95 -24.3 -70.65 -26.1 -70.8 L-40.7 -71.65 -40.45 -72.2 Q-39.15 -74.3 -39.55 -76.85 L-38.8 -78.0 -38.75 -79.15 Q-38.55 -81.0 -39.95 -82.05 -44.45 -85.45 -48.4 -86.65 -46.1 -87.95 -44.35 -89.9 L-44.2 -90.5 Q-43.55 -96.15 -48.0 -99.7 -49.35 -102.95 -51.05 -106.05 -44.35 -105.8 -37.65 -105.9 -36.05 -105.95 -35.7 -107.45 -33.7 -115.25 -31.1 -122.95 L-29.55 -123.15 -28.05 -122.15 Q-23.35 -119.2 -20.5 -123.15 -18.6 -125.8 -17.8 -128.95 -16.35 -134.45 -15.35 -140.05 -9.5 -133.75 -3.45 -138.7 L-3.4 -139.25 Q-2.9 -142.25 -1.5 -145.0 L-1.4 -145.1 Q2.0 -142.4 2.15 -138.1 3.3 -136.95 5.0 -136.95 L5.05 -136.4 5.2 -135.8 10.0 -132.55 Q11.35 -132.85 11.95 -134.05 12.1 -137.1 9.05 -138.1 L8.85 -138.45 Q8.2 -139.35 8.45 -140.2 11.5 -143.3 15.0 -143.85 15.45 -141.3 15.5 -138.7 15.65 -133.75 15.95 -128.9 16.85 -128.4 17.75 -128.3 L32.1 -126.95" fill="#ffff00" fill-opacity="0.5019608" fill-rule="evenodd" stroke="none"/>
  </g>
</svg>
