<?xml version="1.0" encoding="UTF-8" standalone="no"?>
<svg xmlns:ffdec="https://www.free-decompiler.com/flash" xmlns:xlink="http://www.w3.org/1999/xlink" ffdec:objectType="shape" height="130.8px" width="69.0px" xmlns="http://www.w3.org/2000/svg">
  <g transform="matrix(1.0, 0.0, 0.0, 1.0, 26.75, 128.1)">
    <path d="M7.3 -107.3 L7.3 -107.15 6.15 -106.05 4.85 -104.85 Q12.3 -101.95 18.85 -97.9 L31.15 -102.35 31.1 -102.9 31.05 -103.5 31.0 -104.65 31.25 -105.2 Q32.45 -107.25 34.65 -107.45 L34.65 -107.55 Q42.45 -109.25 42.25 -102.55 42.05 -97.4 36.15 -96.7 28.4 -95.7 21.45 -92.65 16.65 -90.55 12.65 -93.55 8.05 -96.95 3.05 -99.5 L2.85 -98.7 Q2.1 -96.0 1.9 -93.15 0.45 -72.7 -0.75 -52.15 L-1.65 -51.45 -1.65 -51.3 Q0.65 -48.2 1.85 -43.85 L4.4 -35.0 5.2 -32.1 Q6.95 -29.1 8.1 -25.7 L8.25 -24.6 Q11.1 -19.0 13.35 -13.0 L13.65 -11.9 Q18.55 -5.9 17.95 1.3 17.85 2.8 16.2 2.7 10.55 2.3 5.75 -0.15 5.15 -4.65 10.2 -4.8 L9.7 -5.95 9.45 -7.1 9.0 -7.65 8.1 -8.85 Q6.45 -14.15 4.15 -19.3 L3.85 -20.35 Q2.25 -23.15 1.05 -26.2 L0.75 -27.3 Q-2.7 -35.0 -5.2 -43.0 -5.95 -41.2 -6.35 -39.25 -10.05 -22.4 -15.85 -5.9 -11.15 -5.3 -7.0 -3.15 -6.35 -2.8 -6.35 -1.9 -7.0 0.35 -9.25 0.6 -18.2 1.65 -25.8 -1.7 L-25.95 -2.3 -26.0 -2.85 -25.95 -3.45 Q-25.75 -4.9 -24.45 -5.55 L-24.05 -5.7 -23.1 -5.85 -23.1 -5.95 -21.65 -6.05 Q-20.85 -13.05 -18.0 -19.7 -16.85 -22.4 -16.25 -25.25 -13.25 -39.5 -7.55 -52.65 -6.9 -54.1 -5.8 -54.75 -5.8 -75.55 -4.0 -96.05 -6.4 -95.15 -9.45 -95.3 L-13.1 -94.85 -18.3 -93.7 -18.1 -93.1 -17.8 -92.0 -17.3 -91.0 Q-11.15 -90.55 -11.7 -84.45 -11.8 -83.25 -12.3 -82.15 -20.65 -78.65 -22.9 -87.15 L-23.85 -90.6 Q-25.8 -92.3 -26.45 -94.75 L-26.75 -96.95 Q-25.65 -99.35 -23.1 -99.75 L-4.6 -102.95 -3.65 -103.1 -3.65 -103.9 -3.45 -104.35 -6.9 -104.35 -5.6 -105.35 -5.4 -105.7 -7.65 -105.7 -7.3 -106.7 -8.75 -107.95 Q-12.2 -111.4 -12.2 -116.3 -12.2 -121.2 -8.75 -124.65 -5.3 -128.1 -0.4 -128.1 4.5 -128.1 7.95 -124.65 11.4 -121.2 11.4 -116.3 11.4 -111.4 7.95 -107.95 L7.3 -107.3" fill="#000000" fill-rule="evenodd" stroke="none"/>
  </g>
</svg>
