<?xml version="1.0" encoding="UTF-8" standalone="no"?>
<svg xmlns:ffdec="https://www.free-decompiler.com/flash" xmlns:xlink="http://www.w3.org/1999/xlink" ffdec:objectType="shape" height="169.55px" width="98.95px" xmlns="http://www.w3.org/2000/svg">
  <g transform="matrix(1.0, 0.0, 0.0, 1.0, 53.0, 146.1)">
    <path d="M13.45 -140.2 Q14.9 -139.9 15.0 -138.7 15.0 -137.25 15.15 -135.8 L15.95 -124.3 Q24.75 -122.3 33.85 -121.2 L33.7 -120.7 Q32.4 -118.15 31.9 -115.45 L29.6 -112.0 29.55 -110.85 Q29.45 -109.05 29.8 -107.4 30.85 -106.25 32.5 -106.2 39.4 -102.3 45.95 -99.3 38.8 -94.85 32.65 -89.5 L32.65 -88.95 32.65 -87.8 35.55 -83.75 35.7 -83.15 35.75 -81.45 18.5 -80.45 Q17.9 -80.4 17.3 -79.9 L17.3 -79.35 Q17.1 -74.9 19.6 -71.25 L19.65 -70.7 20.0 -67.25 Q17.4 -66.0 15.0 -64.55 L15.0 -63.4 15.0 -59.95 Q19.25 -55.0 25.55 -54.0 29.45 -52.35 31.5 -50.35 25.8 -47.55 21.15 -43.6 L21.1 -43.05 Q21.05 -42.15 21.35 -41.3 29.05 -37.4 35.55 -32.1 32.0 -30.25 29.6 -27.3 L29.6 -26.7 29.6 -25.55 Q34.55 -22.2 40.55 -20.15 L37.4 -17.7 Q32.45 -14.55 34.0 -8.8 35.9 -2.05 41.7 1.7 40.4 2.15 39.4 3.05 32.55 3.35 27.3 6.9 L27.2 9.8 Q26.7 15.75 28.65 21.1 15.95 9.35 6.0 22.85 L5.25 22.9 5.0 22.65 4.65 22.1 4.25 21.5 4.25 20.95 4.25 20.35 Q-1.0 12.85 -9.0 17.6 -15.15 21.25 -20.35 23.45 L-20.3 22.3 Q-20.2 21.1 -20.55 19.95 L-23.75 16.45 Q-24.7 15.4 -26.05 15.5 -34.05 16.25 -38.95 13.05 L-38.45 12.45 -37.8 11.35 Q-36.4 10.9 -35.7 9.6 L-35.65 8.45 Q-35.35 5.7 -36.3 3.25 L-37.25 2.7 -37.35 2.15 -37.8 0.95 Q-41.35 -2.25 -45.5 -4.4 -43.85 -5.0 -42.6 -6.15 -39.6 -6.05 -38.6 -8.65 -34.1 -11.7 -34.95 -17.3 L-41.1 -25.35 -41.1 -25.95 -41.1 -27.1 -40.5 -27.65 Q-34.9 -28.8 -32.65 -34.2 L-32.65 -35.35 -32.65 -36.5 -33.4 -37.65 Q-37.55 -43.7 -39.95 -49.0 -31.8 -49.75 -24.95 -52.65 L-24.95 -53.8 -24.95 -54.95 Q-28.05 -57.35 -30.35 -60.5 L-30.35 -61.1 -30.35 -62.25 Q-27.4 -64.9 -24.95 -68.0 -24.85 -69.2 -25.65 -69.6 -32.55 -73.05 -40.3 -70.1 L-40.55 -70.65 -41.85 -72.4 -41.85 -73.0 -41.85 -74.15 Q-47.1 -77.2 -53.0 -79.7 L-46.1 -84.15 -45.9 -84.7 -44.9 -86.45 Q-47.25 -92.0 -51.85 -96.8 -47.2 -96.55 -44.15 -99.5 -44.1 -102.5 -44.95 -105.25 -47.2 -112.1 -48.55 -118.9 L-39.95 -113.3 Q-34.0 -109.25 -28.8 -111.8 L-28.8 -112.95 -28.8 -119.85 Q-25.7 -119.4 -23.2 -120.8 -22.15 -123.3 -22.7 -126.05 L-25.7 -139.85 -21.9 -139.05 Q-19.7 -136.6 -16.3 -136.55 -14.15 -134.65 -11.7 -136.2 L-11.35 -136.8 Q-9.55 -140.35 -8.8 -144.25 L-8.4 -144.8 -7.3 -146.0 -7.1 -146.1 Q-5.45 -136.95 2.5 -134.85 3.15 -133.5 4.65 -133.3 L5.4 -133.5 Q9.0 -137.35 13.45 -140.2" fill="#ffff00" fill-opacity="0.5019608" fill-rule="evenodd" stroke="none"/>
  </g>
</svg>
