<?xml version="1.0" encoding="UTF-8" standalone="no"?>
<svg xmlns:ffdec="https://www.free-decompiler.com/flash" xmlns:xlink="http://www.w3.org/1999/xlink" ffdec:objectType="shape" height="127.8px" width="60.05px" xmlns="http://www.w3.org/2000/svg">
  <g transform="matrix(1.0, 0.0, 0.0, 1.0, 33.4, 126.7)">
    <path d="M5.7 -108.5 Q10.1 -106.05 14.2 -102.9 L14.8 -102.35 16.75 -101.95 Q19.8 -108.1 25.75 -102.65 27.35 -101.2 26.05 -99.15 20.75 -90.6 13.5 -95.45 8.75 -98.6 4.45 -102.2 5.5 -99.95 5.1 -96.7 4.4 -91.0 4.8 -85.25 5.35 -76.45 3.6 -68.35 2.75 -64.5 3.35 -60.45 3.95 -56.45 2.05 -54.15 L2.8 -52.15 3.55 -49.6 Q5.1 -43.4 7.5 -37.5 18.25 -21.1 22.45 -2.2 22.6 -1.4 22.3 -0.55 13.8 2.1 5.75 -2.5 5.65 -8.65 12.9 -6.4 L15.2 -5.75 Q15.3 -9.8 12.85 -14.1 12.4 -14.85 12.5 -15.75 10.95 -17.2 10.3 -19.25 L10.0 -20.35 Q2.6 -31.9 -1.3 -44.65 L-1.55 -45.75 -2.5 -46.95 -3.45 -48.1 Q-6.35 -43.15 -8.4 -35.8 -8.7 -34.8 -9.45 -34.05 -9.85 -31.95 -10.8 -30.0 L-11.35 -28.85 Q-9.8 -24.6 -10.3 -20.55 -8.25 -17.2 -8.5 -12.25 L-8.15 -10.1 Q-7.7 -8.95 -7.9 -7.65 -6.45 -5.55 -5.8 -3.05 L-5.6 -1.9 Q-7.65 2.35 -13.05 0.55 -16.55 -0.6 -20.0 0.6 -21.7 0.4 -22.7 -0.95 L-22.85 -2.1 -22.9 -3.8 Q-19.85 -7.95 -13.65 -6.35 -15.75 -13.05 -16.05 -20.2 L-15.85 -21.65 -16.55 -23.7 -16.75 -24.8 -17.15 -25.35 -18.1 -26.55 Q-18.4 -27.35 -18.35 -28.25 L-18.3 -30.0 Q-12.25 -42.9 -6.6 -55.9 -5.35 -58.9 -2.6 -59.7 L-1.7 -87.55 -1.45 -95.3 Q-4.4 -93.65 -8.3 -93.1 -15.45 -89.15 -24.05 -89.05 -29.05 -82.9 -33.0 -90.0 -34.1 -92.0 -32.35 -93.15 -26.55 -96.9 -19.2 -96.6 -15.9 -96.5 -12.85 -98.0 -8.0 -100.35 -3.1 -101.4 L-1.35 -101.55 -1.35 -102.9 Q-2.9 -102.6 -4.6 -102.95 L-10.75 -102.95 -9.45 -103.95 -9.25 -104.3 -11.5 -104.3 -11.15 -105.3 -12.6 -106.55 Q-16.05 -110.0 -16.05 -114.9 -16.05 -119.8 -12.6 -123.25 -9.15 -126.7 -4.25 -126.7 0.65 -126.7 4.1 -123.25 7.55 -119.8 7.55 -114.9 7.55 -111.3 5.7 -108.5" fill="#000000" fill-rule="evenodd" stroke="none"/>
  </g>
</svg>
