<?xml version="1.0" encoding="UTF-8" standalone="no"?>
<svg xmlns:ffdec="https://www.free-decompiler.com/flash" xmlns:xlink="http://www.w3.org/1999/xlink" ffdec:objectType="shape" height="126.25px" width="48.85px" xmlns="http://www.w3.org/2000/svg">
  <g transform="matrix(1.0, 0.0, 0.0, 1.0, 28.25, 128.3)">
    <path d="M9.3 -124.85 Q12.75 -121.4 12.75 -116.5 12.75 -111.6 9.3 -108.15 L8.65 -107.5 8.65 -107.35 7.65 -106.4 Q15.6 -102.25 19.3 -94.6 19.8 -93.55 18.65 -92.95 12.75 -90.05 8.65 -94.65 L5.6 -96.5 Q4.9 -89.0 6.0 -81.65 6.75 -76.55 6.5 -71.4 5.75 -56.2 9.05 -41.95 10.9 -39.4 11.2 -36.15 L11.35 -35.0 Q16.4 -20.25 20.6 -5.0 20.55 -2.15 17.7 -2.1 L1.75 -2.6 Q1.05 -2.65 0.4 -3.25 -0.45 -6.0 2.25 -6.5 L13.45 -7.85 Q9.9 -18.75 7.2 -29.8 L7.1 -30.4 Q3.4 -39.25 1.65 -48.65 -1.2 -46.85 -5.35 -46.55 -8.05 -46.35 -10.6 -45.4 -11.8 -44.0 -13.6 -43.65 -15.9 -43.15 -17.5 -41.55 -16.0 -37.35 -12.9 -34.25 -11.1 -32.45 -10.8 -30.0 -5.5 -22.4 -0.75 -14.2 0.25 -12.5 -1.45 -11.35 -5.65 -8.55 -10.4 -6.9 L-10.65 -6.35 Q-11.4 -4.9 -13.1 -4.8 L-15.1 -5.9 Q-17.0 -7.05 -16.75 -9.2 -15.15 -12.2 -12.0 -13.3 L-8.3 -14.6 -17.2 -29.35 Q-20.45 -34.65 -24.25 -39.4 -25.05 -47.2 -16.55 -50.1 L-3.1 -54.45 0.7 -54.85 Q-0.45 -64.6 0.35 -74.9 0.8 -80.65 0.1 -86.4 L-0.05 -87.9 -0.35 -87.6 Q-1.25 -86.55 -3.05 -86.75 -7.75 -87.3 -11.75 -89.25 -20.75 -91.0 -28.1 -95.8 L-28.2 -96.95 -28.2 -99.85 -28.1 -100.45 -27.65 -100.95 -26.3 -101.85 -25.4 -102.15 Q-20.7 -102.65 -18.35 -98.85 L-18.1 -98.3 Q-11.45 -94.8 -3.85 -93.1 -3.2 -94.45 -2.95 -95.8 -2.65 -97.85 -1.95 -99.85 L-0.85 -100.8 -3.2 -102.55 Q-3.8 -103.0 -3.65 -103.9 L-3.1 -104.55 -5.55 -104.55 Q-5.0 -105.25 -4.25 -105.55 L-4.05 -105.9 -6.3 -105.9 -5.95 -106.9 -7.4 -108.15 Q-10.85 -111.6 -10.85 -116.5 -10.85 -121.4 -7.4 -124.85 -3.95 -128.3 0.95 -128.3 5.85 -128.3 9.3 -124.85" fill="#000000" fill-rule="evenodd" stroke="none"/>
  </g>
</svg>
