<?xml version="1.0" encoding="UTF-8" standalone="no"?>
<svg xmlns:ffdec="https://www.free-decompiler.com/flash" xmlns:xlink="http://www.w3.org/1999/xlink" ffdec:objectType="shape" height="178.7px" width="95.85px" xmlns="http://www.w3.org/2000/svg">
  <g transform="matrix(1.0, 0.0, 0.0, 1.0, 48.95, 159.1)">
    <path d="M37.3 -142.9 Q37.5 -141.65 36.9 -140.6 35.75 -139.95 35.0 -138.9 34.15 -134.7 31.15 -131.4 L30.35 -126.2 Q33.35 -123.15 37.85 -122.35 43.65 -119.15 46.9 -115.05 L41.4 -113.05 Q38.8 -112.05 36.1 -111.9 30.25 -111.65 28.85 -107.2 33.75 -102.15 39.4 -98.35 40.0 -96.85 41.3 -95.65 33.55 -94.75 28.05 -89.5 L28.05 -88.95 28.05 -87.8 Q30.05 -84.4 32.65 -81.45 32.55 -80.55 32.85 -79.7 34.4 -78.45 35.55 -76.85 33.15 -76.8 31.05 -75.9 27.75 -74.4 24.2 -74.25 18.1 -73.9 15.75 -69.15 21.5 -63.1 29.0 -58.2 29.7 -56.6 30.95 -55.3 29.1 -53.9 28.85 -51.85 30.9 -49.85 32.85 -48.6 L29.6 -45.35 29.6 -44.75 29.6 -43.05 Q30.0 -42.45 30.5 -42.15 36.1 -39.2 42.45 -36.7 37.2 -33.7 32.65 -29.8 32.55 -28.6 32.85 -27.45 33.7 -26.6 35.0 -26.3 35.9 -24.8 37.85 -24.8 42.25 -22.7 44.75 -19.0 38.2 -18.2 32.65 -15.35 32.65 -11.8 33.45 -8.45 38.9 -2.35 42.65 4.4 L29.2 4.3 Q28.25 4.3 27.7 5.0 L27.5 5.55 27.1 19.6 Q24.35 16.8 21.15 14.85 19.8 14.0 18.4 13.45 8.65 9.6 -1.9 13.65 L-1.9 13.25 -1.9 10.35 Q-13.9 3.2 -28.4 4.2 -26.75 2.35 -24.55 1.15 -23.85 -0.55 -24.35 -2.3 -27.45 -6.0 -31.1 -8.05 -30.7 -8.65 -30.3 -8.7 -22.8 -9.4 -16.1 -11.9 -15.5 -14.15 -15.75 -16.5 -16.35 -17.75 -17.65 -18.05 -21.05 -22.2 -25.7 -25.35 -18.25 -29.95 -18.05 -38.05 -27.05 -42.25 -37.25 -44.35 L-37.25 -44.75 -37.25 -54.0 -36.65 -54.55 -28.3 -55.8 Q-27.75 -55.9 -27.25 -56.5 -26.5 -60.95 -28.6 -64.55 -28.85 -66.95 -29.95 -69.15 -26.85 -66.65 -23.4 -64.75 -21.15 -62.1 -17.85 -63.95 -16.85 -70.9 -20.35 -77.2 -18.9 -78.15 -18.05 -79.7 -23.95 -84.5 -32.65 -83.95 -32.65 -84.9 -31.85 -85.65 L-30.35 -92.6 Q-38.35 -95.75 -46.85 -98.15 L-39.75 -103.75 Q-39.2 -105.5 -39.95 -107.2 L-41.65 -108.35 Q-46.45 -112.1 -48.95 -117.55 -38.1 -116.25 -38.0 -126.4 L-36.45 -128.7 -36.55 -129.25 Q-36.7 -130.2 -36.1 -130.8 -35.2 -130.15 -34.65 -129.3 -28.85 -120.6 -22.65 -127.95 -22.05 -131.1 -21.3 -133.1 -17.55 -125.75 -12.1 -129.85 -11.2 -133.55 -11.1 -137.35 L-9.95 -137.25 Q-7.95 -137.35 -7.15 -138.45 -0.6 -147.3 -1.9 -158.85 -1.8 -159.3 -1.65 -158.85 -1.0 -157.0 -0.95 -155.0 2.25 -150.65 3.5 -145.2 5.4 -140.3 10.0 -140.4 11.8 -142.55 14.25 -143.7 L15.0 -144.65 18.85 -146.75 18.85 -146.15 18.85 -143.85 Q18.1 -143.1 18.1 -142.15 15.15 -141.95 15.0 -139.45 16.0 -137.65 18.1 -137.55 L18.05 -137.15 Q17.95 -135.65 18.25 -134.25 19.25 -133.1 20.75 -133.3 22.6 -133.7 22.7 -135.4 21.8 -136.75 21.9 -138.3 L37.3 -142.9" fill="#ffff00" fill-opacity="0.5019608" fill-rule="evenodd" stroke="none"/>
  </g>
</svg>
