<?xml version="1.0" encoding="UTF-8" standalone="no"?>
<svg xmlns:ffdec="https://www.free-decompiler.com/flash" xmlns:xlink="http://www.w3.org/1999/xlink" ffdec:objectType="shape" height="127.05px" width="45.3px" xmlns="http://www.w3.org/2000/svg">
  <g transform="matrix(1.0, 0.0, 0.0, 1.0, 23.15, 128.3)">
    <path d="M13.8 -124.85 Q17.25 -121.4 17.25 -116.5 17.25 -111.6 13.8 -108.15 L13.15 -107.5 13.15 -107.35 12.0 -106.25 Q11.05 -105.15 9.85 -104.55 19.3 -99.7 21.3 -89.7 21.5 -88.85 20.55 -88.75 12.05 -87.8 4.9 -92.7 L4.8 -90.8 Q4.6 -67.55 6.6 -44.65 L6.75 -41.15 8.95 -36.4 Q15.15 -33.5 21.2 -30.15 22.55 -29.45 21.95 -27.85 L21.55 -26.7 Q18.1 -23.5 14.2 -21.0 L15.95 -12.85 Q18.15 -9.35 19.35 -5.4 L19.8 -4.2 Q19.8 -1.4 16.95 -1.3 L1.8 -1.85 Q1.05 -1.9 0.4 -2.5 -0.45 -5.25 2.25 -5.8 L11.95 -7.1 11.4 -8.15 10.4 -9.4 Q8.8 -17.85 6.4 -26.15 L6.15 -27.3 Q4.85 -29.35 3.95 -31.6 -4.75 -35.7 -12.8 -40.75 -15.65 -42.55 -15.0 -45.75 -9.25 -51.9 -1.4 -54.55 L-1.3 -59.1 Q-0.6 -70.6 -0.95 -82.15 L-1.0 -84.85 Q-8.25 -91.05 -17.05 -95.35 -18.85 -96.2 -20.5 -97.45 -21.8 -98.4 -22.7 -99.65 L-23.15 -102.5 Q-23.35 -105.05 -21.35 -106.4 L-20.95 -106.5 -20.05 -106.7 -20.0 -106.8 Q-13.95 -107.75 -13.3 -102.35 L-13.3 -101.75 Q-7.35 -98.15 -2.05 -93.8 L-1.55 -93.5 Q-1.6 -95.3 -1.05 -97.0 L-7.3 -101.75 Q-7.65 -102.6 -7.5 -103.5 -7.25 -104.95 -5.95 -105.6 L-5.55 -105.75 -4.65 -105.9 -4.6 -106.0 Q-2.75 -105.5 -0.95 -104.65 -0.45 -105.25 0.25 -105.55 L0.45 -105.9 -1.8 -105.9 -1.45 -106.9 -2.9 -108.15 Q-6.35 -111.6 -6.35 -116.5 -6.35 -121.4 -2.9 -124.85 0.55 -128.3 5.45 -128.3 10.35 -128.3 13.8 -124.85 M0.55 -104.55 L-0.75 -104.55 0.45 -103.9 0.55 -104.55 M12.1 -28.05 L12.25 -27.7 12.5 -27.9 12.1 -28.05 M-3.45 -41.75 L1.2 -39.85 Q-0.15 -43.6 -0.8 -47.6 -3.5 -45.95 -6.75 -45.0 L-3.7 -42.05 -3.45 -41.75" fill="#000000" fill-rule="evenodd" stroke="none"/>
  </g>
</svg>
