<?xml version="1.0" encoding="UTF-8" standalone="no"?>
<svg xmlns:ffdec="https://www.free-decompiler.com/flash" xmlns:xlink="http://www.w3.org/1999/xlink" ffdec:objectType="shape" height="171.6px" width="121.6px" xmlns="http://www.w3.org/2000/svg">
  <g transform="matrix(1.0, 0.0, 0.0, 1.0, 63.55, 146.25)">
    <path d="M11.15 -127.95 Q11.55 -127.35 12.05 -127.2 19.85 -125.2 26.55 -125.8 22.15 -120.65 22.1 -114.3 28.7 -112.45 34.0 -109.7 28.4 -104.9 28.25 -98.15 32.25 -95.6 37.3 -95.45 38.45 -94.0 40.15 -93.75 36.0 -90.45 32.65 -86.45 L32.65 -85.85 Q32.55 -84.65 32.85 -83.55 41.45 -81.5 49.95 -78.75 45.05 -75.05 39.65 -72.3 34.5 -69.65 31.9 -65.7 32.55 -64.25 34.2 -63.75 34.2 -62.8 35.0 -62.05 L35.0 -61.45 35.0 -60.9 Q36.0 -59.2 37.85 -58.6 L34.2 -55.7 34.2 -55.15 Q34.1 -53.95 34.4 -52.85 L39.8 -50.45 Q44.05 -48.5 45.55 -45.9 44.6 -45.25 44.2 -44.2 L44.15 -43.6 Q44.05 -42.4 44.4 -41.3 52.4 -38.1 58.05 -33.05 52.6 -31.05 48.8 -27.3 L48.8 -26.7 48.8 -23.8 Q49.7 -21.75 51.7 -20.95 53.2 -18.65 54.95 -16.5 54.55 -15.3 52.65 -15.15 43.75 -14.25 35.75 -11.55 L35.75 -10.95 35.75 -9.25 36.5 -8.05 Q38.15 -1.35 40.95 5.0 38.55 5.0 36.55 5.9 30.05 8.85 27.3 15.95 25.75 16.75 24.05 15.15 16.5 8.2 11.15 15.35 11.0 18.15 8.85 19.95 L8.85 20.55 8.85 22.85 6.95 25.35 5.15 22.8 Q-0.15 16.85 -8.05 16.9 L-7.8 16.45 Q-7.05 14.3 -7.3 11.9 -7.95 10.6 -9.4 10.15 -9.7 9.6 -10.15 9.4 -16.15 6.8 -20.9 2.3 -18.8 2.35 -17.0 1.5 -15.6 0.8 -15.3 -0.55 -14.0 -6.55 -19.55 -10.2 L-19.65 -10.75 -19.95 -11.9 Q-24.95 -14.85 -27.45 -20.0 L-26.1 -20.15 Q-16.85 -17.1 -8.45 -13.25 -7.15 -11.9 -5.35 -11.9 -4.05 -12.2 -3.45 -13.45 -4.35 -20.3 -8.05 -26.15 L-7.3 -27.3 -7.25 -27.85 Q-7.15 -29.35 -7.45 -30.75 -12.25 -35.9 -18.8 -38.4 -16.45 -39.75 -14.95 -41.9 L-14.95 -42.45 -14.95 -44.2 Q-24.6 -47.75 -33.6 -52.05 L-32.65 -53.2 -31.1 -53.8 Q-27.8 -57.6 -24.75 -61.65 -23.7 -61.9 -23.05 -62.6 L-22.85 -63.2 Q-22.55 -64.05 -22.65 -64.95 -26.9 -67.75 -32.65 -67.6 L-32.6 -68.0 Q-31.85 -71.35 -31.85 -74.9 L-32.95 -75.7 Q-42.5 -78.9 -52.4 -78.55 L-49.55 -82.6 -49.55 -83.15 Q-49.5 -84.65 -48.75 -86.05 L-49.15 -87.85 Q-49.4 -88.95 -50.05 -89.85 -55.35 -96.75 -63.55 -100.65 -54.35 -99.95 -48.75 -106.4 L-48.75 -107.0 Q-48.1 -113.55 -49.9 -119.65 -48.45 -119.7 -47.25 -118.75 -46.0 -117.85 -44.7 -117.4 L-40.5 -117.55 Q-35.45 -120.0 -32.65 -125.6 L-32.65 -126.2 -32.65 -127.35 -30.85 -122.45 Q-30.2 -120.7 -28.45 -120.85 -22.25 -121.4 -19.0 -127.55 L-18.9 -128.1 -18.8 -131.0 -17.7 -130.35 Q-13.95 -128.05 -12.6 -132.0 -10.3 -138.9 -9.2 -146.15 L-9.1 -146.25 Q-7.2 -143.6 -6.3 -140.4 -4.4 -139.05 -2.15 -138.65 L8.85 -137.55 8.95 -137.2 Q9.85 -135.55 9.65 -133.7 11.15 -131.05 13.25 -130.4 11.05 -130.0 11.15 -127.95" fill="#ffff00" fill-opacity="0.5019608" fill-rule="evenodd" stroke="none"/>
  </g>
</svg>
