<?xml version="1.0" encoding="UTF-8" standalone="no"?>
<svg xmlns:ffdec="https://www.free-decompiler.com/flash" xmlns:xlink="http://www.w3.org/1999/xlink" ffdec:objectType="shape" height="124.3px" width="70.05px" xmlns="http://www.w3.org/2000/svg">
  <g transform="matrix(1.0, 0.0, 0.0, 1.0, 35.85, 123.8)">
    <path d="M8.25 -112.0 Q8.25 -107.1 4.8 -103.65 L4.15 -103.0 4.15 -102.85 3.0 -101.75 Q2.15 -100.75 1.15 -100.2 L1.9 -99.85 Q9.1 -100.9 12.75 -93.5 14.2 -90.5 16.95 -88.7 18.65 -81.9 11.1 -84.1 9.9 -84.45 8.9 -85.25 L2.65 -90.35 Q4.6 -84.1 5.8 -77.45 L7.8 -66.85 10.0 -56.0 10.6 -54.25 10.5 -53.9 10.95 -53.75 10.85 -52.15 Q10.85 -49.2 11.5 -46.45 18.1 -44.2 24.8 -42.3 31.5 -41.65 33.95 -36.5 34.35 -35.55 34.15 -34.35 33.5 -31.2 31.35 -28.65 31.65 -26.4 29.75 -25.35 L28.5 -24.8 Q26.8 -25.0 25.8 -26.35 25.45 -28.6 25.45 -30.95 25.45 -31.85 25.8 -32.7 L26.7 -33.85 27.15 -34.4 25.8 -35.6 25.2 -36.15 Q22.9 -36.1 21.35 -37.7 16.1 -38.35 11.35 -39.9 L11.65 -37.6 12.1 -30.75 Q15.5 -22.7 17.4 -14.0 L17.5 -12.85 Q20.55 -8.15 19.55 -2.5 L19.25 -1.3 17.8 -0.65 Q9.65 1.7 1.85 -0.85 1.05 -1.15 0.4 -1.7 -0.45 -4.45 2.25 -5.0 7.7 -6.05 13.25 -6.35 L13.25 -6.9 13.1 -8.05 Q10.35 -12.8 10.1 -18.45 L10.0 -19.6 Q5.75 -28.8 5.0 -39.2 L4.55 -42.7 Q1.35 -44.3 -1.65 -46.4 -2.25 -46.8 -2.1 -47.7 L-1.95 -48.85 0.15 -51.1 0.15 -51.35 0.2 -53.1 1.0 -54.2 1.55 -54.8 2.3 -59.45 2.6 -60.85 Q-0.25 -75.0 -3.7 -88.95 L-3.8 -88.8 Q-6.4 -82.4 -12.3 -82.4 -14.3 -82.4 -16.1 -83.4 -27.25 -89.5 -35.45 -98.6 -36.1 -99.3 -35.75 -100.4 -34.6 -103.75 -31.55 -104.45 -25.0 -104.65 -26.6 -98.3 L-26.75 -97.75 Q-19.9 -91.8 -11.55 -88.7 -9.6 -93.7 -6.2 -97.1 L-7.3 -100.05 -10.05 -100.05 Q-9.5 -100.75 -8.75 -101.05 L-8.55 -101.4 -10.8 -101.4 -10.45 -102.4 -11.9 -103.65 Q-15.35 -107.1 -15.35 -112.0 -15.35 -116.9 -11.9 -120.35 -8.45 -123.8 -3.55 -123.8 1.35 -123.8 4.8 -120.35 8.25 -116.9 8.25 -112.0" fill="#000000" fill-rule="evenodd" stroke="none"/>
  </g>
</svg>
