<?xml version="1.0" encoding="UTF-8" standalone="no"?>
<svg xmlns:ffdec="https://www.free-decompiler.com/flash" xmlns:xlink="http://www.w3.org/1999/xlink" ffdec:objectType="shape" height="155.55px" width="167.5px" xmlns="http://www.w3.org/2000/svg">
  <g transform="matrix(1.0, 0.0, 0.0, 1.0, 69.5, 133.1)">
    <path d="M11.35 -105.85 L12.0 -105.4 14.05 -104.5 Q14.1 -103.55 15.1 -103.35 21.45 -102.25 25.55 -98.9 L24.9 -97.85 Q23.2 -95.65 21.15 -93.75 L21.15 -92.6 21.15 -91.45 Q28.0 -86.3 35.55 -82.2 30.6 -80.25 26.55 -76.85 L26.45 -75.1 Q26.4 -73.9 26.7 -72.8 31.5 -70.55 37.0 -72.2 39.6 -73.0 41.65 -74.35 47.75 -78.2 48.6 -85.85 L49.4 -85.5 Q51.0 -81.8 55.15 -83.95 55.8 -84.7 56.25 -85.6 58.15 -89.4 61.1 -90.45 L61.25 -90.0 62.65 -88.15 62.65 -87.6 62.65 -87.0 Q64.35 -84.75 65.45 -82.4 65.7 -81.85 66.0 -81.8 76.1 -79.95 85.7 -82.0 86.5 -79.15 86.95 -76.2 87.85 -70.55 88.0 -64.75 92.1 -61.15 98.0 -60.5 96.15 -59.6 94.15 -59.05 88.75 -57.6 85.7 -54.35 86.05 -53.1 86.85 -51.85 L89.55 -46.85 89.3 -46.65 85.7 -47.05 Q80.35 -54.5 72.65 -52.25 72.65 -50.5 73.15 -48.95 74.35 -45.35 72.65 -42.05 L71.3 -42.05 67.85 -44.55 Q59.9 -49.45 53.6 -44.0 L53.45 -43.4 53.25 -42.25 52.8 -41.7 51.9 -40.55 Q51.95 -39.05 51.5 -37.6 L49.4 -32.1 Q46.8 -33.8 44.45 -35.95 39.15 -40.85 34.2 -38.05 L34.25 -36.9 34.0 -35.15 33.45 -34.6 33.45 -31.7 33.45 -27.65 22.35 -26.7 Q21.75 -26.6 21.15 -26.15 L21.15 -25.0 21.15 -23.25 22.2 -22.2 38.65 -8.45 37.65 -8.2 Q34.3 -7.7 32.65 -5.0 L32.65 -4.4 32.65 -3.25 33.05 -2.7 Q34.1 -1.35 35.75 -0.95 L36.0 -0.6 Q37.0 0.5 38.65 0.55 L38.8 0.75 Q40.6 2.35 43.05 2.7 34.95 5.45 28.05 9.6 L28.05 10.15 28.05 11.35 29.45 13.05 Q31.35 15.3 32.5 18.05 31.05 17.65 29.85 16.9 22.65 12.4 18.1 17.65 18.1 18.95 17.55 20.1 16.45 22.2 14.6 22.45 L13.65 20.35 11.35 15.55 Q10.7 15.0 9.9 14.8 1.55 12.8 -7.3 15.35 -6.8 14.05 -6.7 12.65 L-6.5 8.05 Q-13.35 2.15 -22.45 0.0 -18.2 -0.65 -14.5 -2.5 -13.7 -2.9 -13.55 -3.6 -12.4 -8.5 -16.1 -12.7 -16.7 -13.25 -17.1 -13.95 L-18.25 -16.15 Q-11.9 -14.65 -8.05 -18.85 L-8.05 -22.3 -8.05 -26.9 Q-7.45 -27.45 -7.1 -28.15 -6.35 -29.7 -5.15 -30.95 L-4.65 -32.7 Q-4.1 -33.75 -4.2 -34.95 L-4.65 -35.45 -6.15 -36.5 Q-10.95 -36.1 -15.75 -37.65 L-14.35 -39.35 Q-11.65 -41.9 -9.6 -44.95 L-9.6 -46.1 -9.6 -47.25 Q-15.6 -50.1 -21.9 -51.65 L-21.9 -53.4 -21.9 -55.7 -22.25 -56.25 Q-23.15 -57.45 -24.55 -57.25 L-26.1 -56.1 Q-30.8 -51.6 -33.6 -45.9 L-34.35 -45.7 Q-37.45 -47.3 -39.45 -50.25 -40.4 -51.65 -42.05 -51.7 -48.2 -51.9 -54.35 -48.8 L-54.3 -49.15 -54.2 -50.35 -54.15 -52.05 -53.75 -52.6 -52.8 -53.8 -52.1 -57.15 Q-51.4 -60.5 -51.85 -64.15 -53.3 -66.45 -56.25 -65.9 -62.0 -67.6 -66.65 -69.75 L-65.25 -71.25 Q-63.4 -73.05 -62.0 -75.3 L-61.4 -78.25 Q-60.9 -80.25 -61.25 -82.2 L-61.65 -82.75 Q-63.95 -85.45 -66.8 -87.4 L-67.95 -89.15 -69.5 -91.45 Q-64.7 -91.9 -60.65 -94.1 -60.1 -95.8 -60.25 -97.6 -60.45 -100.5 -61.05 -103.35 L-61.45 -103.9 -61.85 -104.5 -61.95 -106.2 Q-62.1 -107.2 -61.45 -107.75 -56.95 -103.55 -51.45 -105.65 L-51.0 -106.75 -50.3 -107.95 -50.3 -112.55 -50.3 -121.2 -47.8 -119.4 -46.05 -117.95 Q-40.0 -112.1 -34.35 -116.0 L-33.45 -120.05 Q-32.1 -124.75 -32.65 -129.85 L-32.25 -129.45 -31.3 -128.3 -31.15 -127.75 -30.9 -126.6 -28.7 -124.95 Q-27.15 -123.6 -25.4 -122.8 L-22.5 -122.95 -10.15 -133.1 -9.85 -133.05 -9.15 -130.4 Q-8.05 -127.2 -8.05 -123.9 L-7.65 -123.3 -7.3 -122.75 -7.25 -121.6 -7.1 -120.45 Q-6.2 -119.95 -5.3 -119.85 L12.7 -118.5 12.45 -116.25 Q12.15 -114.65 11.15 -113.35 L11.1 -110.45 Q11.0 -108.1 11.35 -105.85" fill="#ffff00" fill-opacity="0.5019608" fill-rule="evenodd" stroke="none"/>
  </g>
</svg>
