<?xml version="1.0" encoding="UTF-8" standalone="no"?>
<svg xmlns:ffdec="https://www.free-decompiler.com/flash" xmlns:xlink="http://www.w3.org/1999/xlink" ffdec:objectType="shape" height="143.4px" width="156.5px" xmlns="http://www.w3.org/2000/svg">
  <g transform="matrix(1.0, 0.0, 0.0, 1.0, 60.85, 126.5)">
    <path d="M4.45 -120.45 L5.45 -119.2 6.1 -118.65 Q13.75 -117.1 19.05 -117.0 17.8 -113.65 15.75 -110.65 L15.75 -110.05 15.75 -107.75 Q20.45 -103.15 26.15 -100.25 L21.15 -92.8 21.15 -92.2 21.15 -89.9 Q26.15 -87.15 30.2 -83.55 L29.6 -83.0 Q25.65 -78.0 25.2 -72.05 28.75 -69.55 32.1 -72.25 L36.7 -72.05 Q38.15 -70.6 39.85 -69.6 L41.65 -69.55 Q47.3 -74.1 47.85 -81.85 58.8 -78.6 59.2 -89.5 61.85 -87.4 64.4 -83.45 67.05 -79.35 71.1 -81.25 76.85 -83.95 81.85 -87.0 83.0 -82.85 82.6 -78.35 88.0 -73.55 94.5 -70.3 L88.0 -64.35 88.0 -63.75 88.0 -61.45 Q92.5 -58.05 95.65 -54.55 86.4 -54.95 78.4 -51.1 L78.15 -50.5 78.0 -47.05 78.75 -45.9 78.75 -45.35 Q78.5 -42.7 79.35 -40.35 69.85 -46.65 59.2 -45.7 58.7 -44.4 58.6 -42.85 L58.05 -42.25 57.05 -38.25 Q55.8 -35.25 53.8 -32.85 49.0 -37.7 42.55 -39.55 40.9 -40.0 39.6 -38.9 34.75 -34.75 32.5 -28.45 28.25 -29.9 25.75 -27.3 L25.75 -26.7 25.75 -23.25 31.9 -12.85 Q31.7 -11.9 32.3 -11.15 32.1 -10.55 31.75 -10.45 27.65 -9.2 25.75 -5.0 L25.75 -4.4 25.75 -3.25 Q28.5 1.1 32.65 3.85 25.35 4.8 18.45 6.55 17.65 9.0 18.25 11.7 20.75 13.95 21.9 16.9 L19.4 16.7 Q14.7 15.35 11.45 11.65 10.55 10.7 9.3 10.85 1.55 12.0 -5.75 15.75 L-5.75 14.6 Q-5.75 13.45 -6.25 12.65 -9.95 7.15 -17.45 7.5 -18.4 6.8 -18.8 5.75 L-12.65 1.15 Q-12.65 -0.6 -13.2 -2.15 -15.45 -8.75 -20.35 -13.85 -15.85 -14.2 -11.45 -15.25 -9.3 -15.75 -9.6 -18.05 -10.75 -21.0 -13.4 -22.65 L-13.6 -23.8 -17.65 -29.0 Q-11.15 -31.6 -8.8 -37.25 -11.75 -39.95 -14.95 -42.25 L-14.2 -43.4 -14.2 -44.0 Q-14.3 -45.2 -14.0 -46.3 L-12.65 -48.0 -12.65 -48.6 -12.65 -49.2 Q-11.75 -50.8 -11.55 -52.7 -10.55 -61.15 -18.8 -57.65 -26.5 -55.25 -33.4 -51.65 L-33.25 -57.25 Q-33.1 -59.55 -35.3 -60.15 -43.15 -62.4 -49.75 -61.65 L-48.2 -63.95 Q-47.45 -67.0 -48.55 -69.75 L-49.55 -70.3 Q-49.45 -71.3 -50.1 -72.05 -55.3 -75.25 -60.1 -78.95 -61.25 -80.35 -60.65 -81.05 -55.1 -80.9 -50.1 -82.4 -49.25 -83.7 -49.55 -85.3 -50.6 -90.95 -52.6 -96.25 L-52.6 -96.8 Q-52.5 -98.0 -52.8 -99.1 L-54.9 -101.4 -54.9 -102.0 Q-54.8 -102.9 -55.1 -103.75 L-45.35 -104.55 Q-44.9 -104.6 -44.55 -104.9 -43.85 -109.5 -44.9 -114.1 -46.1 -115.7 -46.45 -117.55 -41.7 -117.85 -37.3 -115.9 -32.4 -113.8 -29.55 -117.15 L-29.55 -117.75 Q-29.6 -122.15 -28.8 -126.4 L-25.9 -126.2 -21.0 -121.5 Q-13.9 -114.5 -9.0 -121.95 -8.9 -120.7 -8.05 -119.65 L-8.05 -119.1 Q-8.15 -118.2 -7.85 -117.35 L-6.15 -116.4 Q-4.2 -117.4 -2.85 -119.1 L-2.5 -120.8 0.0 -122.55 Q0.7 -125.2 2.7 -125.05 L4.45 -120.45" fill="#ffff00" fill-opacity="0.5019608" fill-rule="evenodd" stroke="none"/>
  </g>
</svg>
