<?xml version="1.0" encoding="UTF-8" standalone="no"?>
<svg xmlns:ffdec="https://www.free-decompiler.com/flash" xmlns:xlink="http://www.w3.org/1999/xlink" ffdec:objectType="shape" height="110.95px" width="108.2px" xmlns="http://www.w3.org/2000/svg">
  <g transform="matrix(1.0, 0.0, 0.0, 1.0, 38.35, 109.2)">
    <path d="M62.55 -73.0 L62.85 -73.2 63.75 -73.6 63.75 -73.7 Q68.8 -71.85 69.75 -65.25 70.1 -62.8 69.1 -60.55 68.65 -59.55 67.6 -59.25 41.95 -52.35 16.4 -45.1 L16.05 -45.0 15.8 -43.6 15.8 -43.45 15.75 -43.4 15.4 -42.3 15.35 -42.2 15.2 -42.8 Q14.65 -40.0 13.75 -37.2 L13.1 -35.95 Q12.8 -33.55 11.45 -31.4 L10.6 -30.2 Q10.85 -24.85 12.7 -19.8 13.0 -18.95 12.9 -18.05 16.55 -8.65 12.4 0.0 L11.55 0.55 6.9 1.35 Q5.25 1.15 4.25 -0.15 L4.1 -1.35 4.05 -3.05 Q5.45 -5.55 8.65 -5.55 L8.65 -11.35 8.65 -13.05 8.4 -13.6 7.3 -14.8 Q4.95 -22.35 4.7 -30.4 4.7 -31.55 5.0 -32.7 L5.4 -33.25 6.35 -34.4 Q6.3 -35.7 6.8 -36.85 L7.1 -38.45 7.4 -39.0 8.45 -40.2 9.25 -43.7 9.45 -45.4 9.7 -45.9 10.0 -46.25 9.65 -46.35 9.2 -50.95 Q9.15 -51.8 9.45 -52.6 L9.0 -53.1 9.2 -53.2 9.1 -53.65 0.6 -65.8 Q0.05 -66.55 -0.15 -67.5 -5.9 -73.45 -11.15 -80.0 -15.95 -74.7 -21.45 -69.75 L-21.75 -69.5 -21.35 -70.6 Q-25.9 -66.95 -31.75 -69.85 L-32.4 -70.55 Q-37.3 -80.35 -38.05 -91.95 L-38.35 -97.15 -38.1 -98.9 -37.7 -99.45 -36.55 -100.6 -36.0 -101.0 -35.6 -101.15 -34.65 -101.3 -34.65 -101.4 Q-30.75 -100.9 -29.45 -99.25 -28.9 -103.0 -26.15 -105.75 -22.7 -109.2 -17.8 -109.2 -12.9 -109.2 -9.45 -105.75 -6.0 -102.3 -6.0 -97.4 -6.0 -92.5 -9.45 -89.05 L-9.5 -88.95 -8.4 -87.85 -7.3 -88.25 -6.7 -88.6 -5.4 -89.05 3.65 -86.55 Q4.65 -88.55 3.65 -90.95 3.25 -91.95 3.25 -93.1 L2.45 -94.25 1.9 -94.85 1.3 -96.45 Q0.85 -97.3 0.95 -98.3 -4.3 -103.6 2.3 -106.8 7.8 -104.9 7.5 -98.3 L7.5 -97.75 Q10.0 -90.75 10.95 -83.3 L11.35 -81.55 11.15 -81.0 10.95 -80.4 10.75 -79.85 Q3.8 -78.05 -3.5 -81.85 L-4.3 -82.25 -3.75 -81.2 -3.4 -80.6 -2.45 -80.0 -1.7 -79.45 Q5.4 -69.3 13.0 -59.3 13.6 -58.5 13.5 -57.5 L15.8 -54.85 15.8 -53.85 Q39.7 -58.3 63.25 -64.4 61.95 -68.05 62.05 -71.75 62.1 -72.4 62.55 -73.0 M4.95 1.35 L5.35 1.65 4.95 1.75 4.95 1.35 M-18.15 -85.45 L-24.3 -85.45 -23.0 -86.45 -22.8 -86.8 -25.05 -86.8 -24.7 -87.8 -26.15 -89.05 Q-28.8 -91.7 -29.4 -95.15 -29.8 -94.2 -30.55 -93.15 L-31.55 -92.35 Q-30.9 -85.9 -29.9 -79.55 -29.5 -77.05 -27.9 -75.0 -25.3 -76.6 -23.3 -76.7 L-23.35 -76.75 Q-19.95 -79.8 -16.3 -82.55 L-14.8 -84.75 -15.1 -85.35 -18.15 -85.45" fill="#000000" fill-rule="evenodd" stroke="none"/>
  </g>
</svg>
