<?xml version="1.0" encoding="UTF-8" standalone="no"?>
<svg xmlns:ffdec="https://www.free-decompiler.com/flash" xmlns:xlink="http://www.w3.org/1999/xlink" ffdec:objectType="shape" height="156.2px" width="124.65px" xmlns="http://www.w3.org/2000/svg">
  <g transform="matrix(1.0, 0.0, 0.0, 1.0, 40.5, 135.8)">
    <path d="M27.3 -15.35 Q28.2 -16.0 28.15 -15.0 L28.05 -8.65 Q25.4 -9.35 25.4 -11.35 L25.75 -11.95 27.3 -15.35 M0.4 -126.4 Q0.5 -127.3 0.05 -128.05 L-1.15 -130.4 -0.15 -130.55 Q5.5 -133.65 11.55 -135.8 L11.75 -135.75 11.95 -134.85 11.95 -133.7 12.5 -133.1 13.45 -131.95 Q13.5 -129.85 13.8 -127.85 14.2 -125.25 15.2 -122.75 16.05 -122.25 17.0 -122.05 L21.2 -122.3 Q26.55 -124.25 30.35 -123.9 L30.3 -121.0 Q30.25 -119.55 30.55 -118.15 39.85 -116.15 48.4 -112.75 45.95 -111.55 44.7 -109.45 42.9 -106.5 43.45 -102.95 L44.6 -101.85 56.1 -91.05 Q49.25 -90.3 44.2 -86.05 L44.1 -84.35 Q44.0 -83.35 44.6 -82.6 L45.35 -82.0 45.65 -81.4 45.8 -80.9 46.1 -80.3 46.9 -79.7 47.4 -78.65 48.6 -76.85 32.65 -72.25 32.3 -71.8 32.0 -71.25 31.9 -70.7 Q31.85 -69.6 32.9 -69.1 37.1 -67.0 40.35 -63.6 L40.35 -61.85 40.35 -60.15 Q41.0 -59.15 42.05 -58.75 46.9 -56.8 51.9 -57.65 L51.8 -54.95 Q51.75 -53.45 52.05 -52.05 52.95 -51.6 53.85 -51.4 L63.4 -50.15 63.0 -49.55 62.65 -49.0 62.65 -47.25 62.65 -45.55 62.25 -44.95 61.85 -44.35 61.9 -43.25 62.05 -42.05 Q70.15 -40.85 76.65 -37.85 L75.7 -36.45 74.15 -34.6 74.1 -32.3 Q74.05 -31.35 74.35 -30.55 L75.0 -30.15 Q80.65 -28.5 83.4 -25.35 82.25 -25.0 81.25 -24.35 78.2 -22.4 75.7 -19.8 L75.75 -18.65 75.9 -17.5 76.5 -17.0 Q80.6 -14.7 84.15 -11.55 75.7 -12.35 68.4 -8.85 67.75 -6.95 68.05 -4.8 68.3 -2.7 67.65 -1.15 56.35 -8.95 48.05 0.95 L47.2 0.75 46.9 0.4 46.05 -1.25 44.2 -4.25 Q44.3 -5.15 44.0 -5.95 43.65 -7.0 42.65 -7.7 L42.65 -8.25 42.65 -8.85 Q42.2 -9.4 41.6 -9.5 L31.9 -11.35 31.9 -14.8 31.9 -18.85 Q31.3 -20.05 30.0 -20.05 25.45 -20.1 22.7 -16.15 L22.7 -15.55 22.65 -15.0 22.5 -14.4 21.9 -13.3 21.15 -12.1 21.15 -10.4 21.15 -8.65 22.2 -7.65 Q25.4 -5.35 28.05 -2.7 L28.05 -2.35 25.0 0.75 25.2 3.6 25.95 7.1 27.2 8.3 28.45 9.6 27.3 9.35 Q22.5 9.0 18.65 10.85 13.5 13.35 12.1 20.35 L11.75 20.4 10.8 20.15 9.65 17.85 Q8.65 14.9 6.15 13.25 5.9 12.65 5.45 12.55 -3.2 10.3 -11.9 14.2 L-11.65 11.55 Q-11.4 10.15 -11.8 8.9 -15.25 -0.7 -24.55 -6.35 -18.85 -7.95 -13.4 -10.4 L-13.4 -11.55 -13.4 -12.7 -13.85 -13.25 -14.75 -14.4 -15.3 -16.1 Q-15.75 -17.35 -16.5 -18.45 L-16.5 -19.6 -16.5 -20.75 Q-11.95 -21.0 -8.8 -23.45 -8.7 -24.65 -9.35 -25.65 L-12.65 -30.35 -12.65 -30.95 -12.65 -31.5 -12.65 -32.1 Q-11.45 -33.85 -9.5 -34.85 -3.45 -37.95 -3.45 -44.2 -3.9 -44.75 -4.5 -44.95 L-13.4 -48.0 -12.05 -50.2 Q-10.8 -52.2 -10.35 -54.35 L-9.35 -55.5 Q-8.6 -56.25 -8.05 -57.25 L-8.0 -59.55 Q-7.95 -60.55 -8.6 -61.3 -9.3 -61.85 -10.05 -62.1 -21.15 -65.85 -32.05 -65.1 L-31.75 -66.05 -31.1 -67.25 -31.1 -69.55 -31.1 -71.85 Q-31.7 -73.05 -33.05 -73.3 -37.8 -74.2 -40.5 -76.05 -37.0 -76.15 -34.95 -78.75 L-34.95 -79.35 -34.95 -79.9 -34.55 -80.5 -34.15 -81.05 -34.15 -83.35 -34.15 -85.65 -34.55 -86.25 -34.95 -86.8 -35.0 -87.95 -35.15 -89.15 -35.55 -89.7 -36.45 -90.85 -36.55 -92.0 -36.85 -93.15 -37.0 -93.5 -36.1 -93.95 -26.1 -90.3 -25.35 -90.5 Q-25.15 -90.55 -24.95 -90.7 L-24.55 -91.05 Q-24.0 -92.45 -24.4 -93.85 L-25.15 -96.8 -27.3 -99.5 Q-29.5 -102.15 -30.35 -105.45 L-29.3 -106.7 -28.8 -107.75 -29.3 -109.55 Q-29.45 -110.45 -30.15 -111.2 L-31.1 -111.8 -31.15 -112.35 -31.3 -112.95 -32.25 -114.1 -33.2 -115.25 -33.4 -116.4 -33.6 -117.55 Q-35.15 -119.0 -35.9 -120.95 -37.15 -124.2 -39.55 -126.8 L-38.2 -126.8 -37.45 -126.2 Q-33.2 -122.75 -28.4 -121.0 -25.95 -122.1 -25.05 -124.65 -23.8 -128.4 -23.2 -132.35 L-22.25 -132.35 Q-20.65 -130.65 -19.35 -128.75 -14.2 -121.3 -8.25 -128.3 L-8.1 -128.9 -8.05 -129.45 -7.15 -130.1 -6.7 -130.6 -6.55 -131.2 -6.5 -131.75 -5.55 -132.4 -5.15 -132.75 Q-4.85 -131.6 -4.95 -130.4 -5.1 -129.25 -4.8 -128.1 -4.2 -127.55 -3.95 -126.85 -3.35 -125.15 -1.5 -124.85 L-0.65 -125.35 Q-0.05 -125.8 0.4 -126.4" fill="#ffff00" fill-opacity="0.5019608" fill-rule="evenodd" stroke="none"/>
  </g>
</svg>
