<?xml version="1.0" encoding="UTF-8" standalone="no"?>
<svg xmlns:ffdec="https://www.free-decompiler.com/flash" xmlns:xlink="http://www.w3.org/1999/xlink" ffdec:objectType="shape" height="162.15px" width="105.05px" xmlns="http://www.w3.org/2000/svg">
  <g transform="matrix(1.0, 0.0, 0.0, 1.0, 40.3, 145.45)">
    <path d="M32.65 -130.8 L32.65 -127.35 Q32.55 -122.7 32.85 -118.15 37.95 -115.85 41.9 -120.65 L46.1 -121.2 46.65 -121.65 47.1 -122.15 48.8 -122.15 48.8 -119.5 48.8 -113.15 49.9 -112.15 Q54.1 -109.45 59.75 -110.45 61.5 -109.25 63.6 -108.9 L62.15 -108.1 Q55.85 -104.5 57.45 -97.4 61.45 -94.9 64.75 -92.0 L57.65 -91.25 Q54.3 -90.95 52.65 -88.75 L52.65 -87.6 52.65 -84.7 53.05 -84.15 53.4 -83.55 Q53.4 -82.7 53.7 -81.95 L54.95 -78.35 40.4 -77.1 Q39.95 -77.05 39.6 -76.45 L39.55 -75.3 Q39.45 -74.4 39.8 -73.55 L40.4 -73.0 Q42.3 -71.4 42.65 -68.95 36.7 -69.5 32.65 -65.1 32.65 -64.55 32.8 -64.0 33.5 -61.05 35.75 -58.8 L35.7 -57.05 Q35.6 -55.3 35.95 -53.6 L51.1 -51.3 50.35 -50.7 Q48.35 -48.95 47.25 -46.7 L47.25 -46.1 Q47.15 -45.2 47.45 -44.35 48.75 -43.1 50.75 -43.2 52.1 -41.9 54.0 -41.7 L54.4 -41.3 Q55.55 -40.35 57.05 -39.95 57.65 -37.85 60.15 -37.85 62.85 -36.25 64.15 -34.6 55.7 -34.85 51.1 -29.8 L51.1 -29.2 Q51.2 -25.75 54.4 -24.0 56.35 -20.05 60.35 -17.7 52.1 -20.6 47.25 -15.75 L47.25 -15.2 47.25 -14.05 Q49.45 -9.95 53.05 -7.3 L53.45 -6.35 54.2 -4.6 Q46.35 -5.95 39.6 -3.85 L39.6 -2.1 39.6 0.75 40.05 1.4 Q41.1 3.55 42.65 5.35 36.2 3.5 32.1 8.25 L31.55 9.9 30.95 11.9 Q27.0 9.8 22.85 11.8 16.2 15.05 10.4 16.7 L9.65 13.8 Q9.45 13.25 9.05 13.0 -0.6 6.75 -12.9 10.15 -15.1 10.75 -15.75 9.4 L-15.3 8.85 -14.4 7.7 Q-13.7 4.25 -16.7 2.4 -19.95 0.4 -20.7 -1.15 -16.5 -1.9 -13.4 -4.25 L-13.4 -5.4 Q-13.3 -6.55 -13.6 -7.7 -16.8 -12.05 -20.7 -15.75 -17.8 -17.35 -14.45 -18.05 -6.6 -19.7 -4.2 -25.75 -9.3 -28.6 -13.8 -32.1 -12.55 -33.35 -10.95 -34.0 -7.6 -37.35 -3.65 -39.95 -3.3 -40.8 -3.35 -41.7 L-3.45 -45.7 Q-7.1 -48.65 -11.9 -49.75 -13.9 -51.75 -16.1 -51.5 -15.9 -52.4 -15.05 -53.1 -11.2 -56.15 -11.9 -61.1 -12.35 -61.65 -12.9 -61.75 L-25.7 -63.6 -24.8 -65.25 Q-23.85 -67.5 -24.35 -69.9 -25.9 -72.3 -28.6 -72.8 -32.9 -75.35 -38.0 -76.65 -33.7 -80.25 -28.6 -82.4 L-27.95 -83.5 Q-27.1 -84.85 -27.25 -86.45 L-27.65 -87.0 -32.45 -93.95 -32.05 -94.5 -29.55 -97.95 -29.55 -99.1 -29.55 -100.25 Q-31.35 -102.2 -33.85 -103.2 -38.1 -104.9 -40.3 -106.4 L-39.95 -107.0 Q-38.9 -108.65 -37.45 -109.85 -32.55 -110.15 -27.8 -111.2 -25.95 -111.55 -24.95 -113.35 L-24.95 -116.2 Q-24.9 -120.05 -25.7 -123.7 -24.15 -123.65 -22.65 -122.9 -21.35 -122.25 -20.35 -123.15 -14.5 -128.8 -18.05 -136.55 L-17.9 -136.5 Q-13.65 -132.6 -9.2 -135.6 L-8.95 -136.15 Q-5.35 -140.95 -1.15 -145.4 L-0.85 -145.45 0.2 -144.65 Q0.4 -143.75 0.75 -143.0 2.05 -140.35 2.35 -137.7 L1.15 -136.55 1.15 -136.0 Q1.05 -135.1 1.35 -134.25 L2.0 -133.85 Q3.05 -133.35 4.05 -133.1 4.85 -132.0 6.15 -131.75 L6.9 -132.0 7.5 -132.35 7.8 -133.5 Q7.85 -134.8 8.45 -135.8 10.8 -137.85 13.25 -139.65 13.6 -138.25 13.55 -136.75 L13.45 -129.85 13.95 -129.2 Q14.25 -128.7 14.5 -128.65 23.55 -127.05 32.65 -130.8" fill="#ffff00" fill-opacity="0.5019608" fill-rule="evenodd" stroke="none"/>
  </g>
</svg>
