<?xml version="1.0" encoding="UTF-8" standalone="no"?>
<svg xmlns:ffdec="https://www.free-decompiler.com/flash" xmlns:xlink="http://www.w3.org/1999/xlink" ffdec:objectType="shape" height="123.2px" width="53.15px" xmlns="http://www.w3.org/2000/svg">
  <g transform="matrix(1.0, 0.0, 0.0, 1.0, 14.05, 122.85)">
    <path d="M3.65 -100.15 Q4.35 -98.65 4.65 -96.85 6.0 -96.75 7.95 -95.85 L12.2 -98.75 13.25 -99.25 12.65 -101.05 Q12.05 -103.5 14.05 -104.85 L14.45 -105.0 15.35 -105.15 15.4 -105.25 Q24.65 -105.75 20.8 -98.1 20.15 -96.75 18.95 -95.85 L14.15 -92.2 Q18.6 -89.2 22.5 -85.4 L23.45 -85.2 Q26.35 -87.6 28.3 -90.8 L28.65 -91.4 Q29.4 -94.05 31.6 -96.15 L32.35 -97.15 32.05 -97.7 31.6 -98.35 31.15 -98.9 Q30.85 -101.15 31.05 -103.5 31.2 -104.95 32.5 -105.6 L32.9 -105.75 33.85 -105.9 33.85 -106.0 Q39.9 -105.05 38.95 -98.05 38.3 -93.3 35.2 -89.3 30.9 -83.75 25.8 -78.9 L22.1 -78.8 Q15.45 -83.85 8.4 -88.25 L7.1 -87.4 Q10.8 -79.0 13.6 -70.4 15.85 -63.3 15.1 -56.35 19.2 -54.9 22.5 -51.05 24.15 -49.15 26.4 -47.8 33.2 -43.8 36.85 -37.2 38.15 -34.8 36.15 -32.9 27.95 -25.15 20.95 -16.15 23.5 -12.8 23.7 -8.05 23.8 -5.8 21.7 -6.3 18.6 -6.95 16.85 -10.05 15.6 -12.35 13.45 -14.0 L13.35 -14.6 13.25 -15.75 13.25 -16.9 Q20.55 -24.6 27.2 -32.7 29.0 -34.9 30.2 -37.1 23.15 -41.8 16.75 -47.4 L16.5 -45.3 Q15.95 -42.0 17.1 -38.9 19.85 -31.45 15.95 -25.2 L15.5 -24.1 14.6 -22.85 Q11.9 -16.3 9.65 -9.65 L9.25 -9.0 Q9.1 -6.8 8.25 -5.0 L18.15 -4.05 Q19.85 -3.8 19.8 -1.9 19.2 0.35 16.95 0.35 L3.3 -0.3 Q2.6 -0.35 1.9 -0.95 L1.75 -1.5 Q1.5 -3.1 2.5 -4.15 2.05 -6.7 3.0 -9.15 L3.25 -10.75 3.55 -11.25 4.6 -12.5 Q4.85 -16.5 6.95 -20.1 L7.3 -21.15 Q8.05 -21.95 8.45 -22.9 8.75 -23.7 8.65 -24.6 L8.95 -25.1 10.0 -26.35 10.15 -26.9 10.4 -28.05 10.8 -28.65 11.75 -29.8 12.05 -30.9 12.5 -32.7 Q9.85 -42.55 9.45 -52.9 L9.45 -54.65 Q9.7 -55.3 10.1 -55.75 9.15 -63.85 6.6 -71.5 6.25 -72.65 6.35 -73.85 L6.05 -74.4 5.0 -75.6 1.95 -84.25 Q-3.3 -81.2 -8.8 -78.6 -11.05 -77.5 -12.7 -79.45 L-12.8 -80.05 -12.85 -82.35 -12.7 -83.5 -2.3 -96.9 -2.25 -99.0 -2.6 -99.1 -8.75 -99.1 -7.45 -100.1 -7.25 -100.45 -9.5 -100.45 -9.15 -101.45 -10.6 -102.7 Q-14.05 -106.15 -14.05 -111.05 -14.05 -115.95 -10.6 -119.4 -7.15 -122.85 -2.25 -122.85 2.65 -122.85 6.1 -119.4 9.55 -115.95 9.55 -111.05 9.55 -106.15 6.1 -102.7 L5.45 -102.05 5.45 -101.9 4.3 -100.8 3.65 -100.15" fill="#000000" fill-rule="evenodd" stroke="none"/>
  </g>
</svg>
