<?xml version="1.0" encoding="UTF-8" standalone="no"?>
<svg xmlns:ffdec="https://www.free-decompiler.com/flash" xmlns:xlink="http://www.w3.org/1999/xlink" ffdec:objectType="shape" height="165.6px" width="99.7px" xmlns="http://www.w3.org/2000/svg">
  <g transform="matrix(1.0, 0.0, 0.0, 1.0, 37.25, 145.8)">
    <path d="M31.9 -127.55 L31.55 -127.15 31.15 -126.6 31.1 -124.85 Q31.0 -123.4 31.35 -121.95 39.45 -120.15 46.3 -123.5 L46.65 -122.4 47.25 -121.2 47.25 -120.65 47.25 -120.05 47.8 -118.85 Q48.45 -116.45 50.8 -116.15 L62.45 -115.05 Q57.4 -112.65 54.2 -107.95 L54.2 -106.8 Q54.25 -104.1 56.3 -102.2 L56.45 -101.6 56.55 -101.05 56.7 -100.45 Q58.55 -97.7 60.9 -95.25 54.0 -94.95 48.8 -91.8 L48.8 -89.5 48.8 -83.15 49.2 -82.6 49.6 -82.0 49.6 -81.45 49.55 -80.9 49.4 -80.3 40.75 -79.9 Q38.95 -79.85 38.05 -78.2 L38.05 -75.9 Q38.0 -72.05 38.8 -68.4 L39.25 -67.75 39.6 -66.65 Q34.4 -66.25 29.35 -66.9 26.35 -67.3 24.2 -65.3 L24.2 -64.15 24.2 -63.0 Q28.35 -58.2 31.15 -52.65 28.9 -50.6 25.4 -49.55 L25.05 -48.4 Q24.85 -47.5 25.2 -46.7 30.85 -42.95 35.55 -38.25 32.1 -36.6 28.85 -34.6 L28.85 -32.85 28.85 -29.95 Q30.8 -27.3 33.65 -25.15 30.35 -24.5 27.3 -22.3 L27.25 -20.55 Q27.15 -18.2 27.5 -15.95 30.65 -12.4 35.35 -11.15 32.6 -10.25 30.35 -8.45 L30.35 -7.3 30.35 -6.15 30.85 -5.5 Q32.4 -2.65 34.8 -0.4 34.9 0.2 35.15 0.65 36.15 2.35 36.5 4.2 33.6 7.25 28.75 5.6 L26.4 5.65 Q17.2 9.45 15.75 19.8 6.8 11.9 -2.5 19.0 L-3.2 19.05 -3.8 18.8 Q-4.55 17.15 -6.05 16.1 -16.55 8.6 -29.15 14.4 L-28.9 13.25 -28.8 11.5 -28.4 10.95 -28.0 10.35 Q-28.0 8.95 -28.65 7.9 -31.65 3.1 -36.3 -0.6 L-35.3 -2.55 Q-31.95 -7.85 -35.7 -13.85 -32.2 -13.2 -29.35 -14.8 -28.7 -15.85 -28.4 -17.05 -27.5 -20.7 -28.2 -24.6 -23.8 -22.85 -21.3 -26.15 L-20.65 -28.3 Q-19.5 -31.9 -21.1 -35.35 -16.85 -34.3 -13.8 -36.5 -13.3 -37.6 -13.4 -38.8 -13.75 -43.45 -14.4 -47.45 L-13.75 -48.0 -11.5 -49.55 Q-11.1 -50.4 -11.1 -51.3 L-11.1 -54.15 -11.55 -54.65 Q-13.85 -56.55 -16.5 -57.8 -12.55 -63.75 -18.8 -65.9 L-27.05 -69.35 Q-26.4 -70.1 -26.05 -70.85 -24.5 -74.25 -24.95 -78.0 L-25.85 -79.2 -26.65 -80.0 Q-32.85 -83.95 -37.25 -89.15 L-34.65 -89.8 Q-27.85 -91.75 -21.9 -94.1 L-21.95 -95.85 Q-22.15 -97.9 -22.85 -99.9 L-23.25 -100.45 -24.2 -101.6 -24.25 -102.75 -24.55 -103.9 Q-21.35 -103.5 -18.05 -106.4 L-18.0 -108.15 Q-17.9 -110.2 -18.25 -112.2 L-18.65 -112.75 -19.55 -113.9 -19.6 -114.45 -19.75 -115.05 -19.95 -115.65 Q-22.95 -117.5 -25.15 -120.25 L-16.1 -120.55 Q-14.8 -120.55 -14.2 -121.8 L-14.35 -124.05 Q-14.85 -128.15 -15.9 -132.15 -16.65 -132.95 -16.95 -133.9 -17.9 -137.3 -18.05 -140.8 -14.7 -138.75 -11.55 -136.3 -10.95 -135.8 -10.3 -135.75 -3.2 -135.15 -3.45 -143.5 L-2.85 -144.7 Q-2.55 -145.7 -1.7 -145.8 L-1.15 -145.2 -0.35 -144.05 -0.35 -143.5 -0.35 -142.9 -0.35 -142.35 Q0.2 -140.8 1.05 -139.55 L0.5 -139.0 0.4 -138.5 0.4 -137.9 Q2.6 -136.15 5.3 -135.65 L5.4 -135.6 5.45 -135.6 10.8 -135.8 11.3 -136.25 11.7 -136.8 11.95 -137.3 20.4 -138.9 Q19.6 -137.85 19.55 -136.55 19.45 -133.1 19.8 -129.65 20.8 -128.9 21.95 -128.45 26.8 -126.8 31.9 -127.55" fill="#ffff00" fill-opacity="0.5019608" fill-rule="evenodd" stroke="none"/>
  </g>
</svg>
