<?xml version="1.0" encoding="UTF-8" standalone="no"?>
<svg xmlns:ffdec="https://www.free-decompiler.com/flash" xmlns:xlink="http://www.w3.org/1999/xlink" ffdec:objectType="shape" height="127.9px" width="61.0px" xmlns="http://www.w3.org/2000/svg">
  <g transform="matrix(1.0, 0.0, 0.0, 1.0, 17.3, 127.55)">
    <path d="M13.8 -124.1 Q17.25 -120.65 17.25 -115.75 17.25 -110.85 13.8 -107.4 L13.15 -106.75 13.15 -106.6 12.0 -105.5 10.95 -104.5 Q12.55 -103.1 13.5 -101.1 L14.6 -98.9 Q16.45 -100.15 20.25 -98.25 21.55 -97.6 21.1 -96.1 20.45 -93.85 19.35 -91.9 L20.8 -90.25 21.0 -89.65 Q21.25 -89.05 21.65 -88.55 L22.3 -87.9 22.5 -87.35 22.7 -86.75 Q28.9 -91.8 34.45 -97.75 L35.05 -98.85 Q35.6 -99.65 35.8 -100.6 L35.55 -101.15 35.0 -101.75 Q34.7 -103.75 34.9 -105.8 35.05 -107.25 36.35 -107.95 L36.75 -108.05 37.7 -108.2 37.7 -108.3 Q42.6 -108.2 43.55 -103.3 L43.7 -102.75 Q41.3 -95.4 35.35 -90.1 L34.45 -89.45 Q30.45 -84.7 25.05 -81.25 23.55 -80.3 21.7 -80.85 17.4 -82.05 15.15 -86.1 L15.05 -86.35 14.3 -85.7 10.5 -82.85 Q12.5 -68.25 13.65 -53.45 L13.4 -52.65 13.4 -51.2 14.4 -48.65 Q18.2 -36.7 17.2 -24.25 17.1 -23.05 16.5 -21.85 12.5 -14.3 12.85 -5.8 L12.85 -5.0 19.7 -4.1 Q21.4 -3.8 21.35 -1.9 20.75 0.35 18.45 0.35 L9.3 -0.15 9.25 -0.15 8.8 -0.2 8.7 -0.25 Q8.0 -0.35 7.3 -0.95 L6.55 -1.7 Q5.3 -12.75 9.85 -22.55 L10.4 -24.2 11.95 -26.5 12.5 -27.7 10.9 -35.35 9.25 -22.15 Q9.05 -20.8 7.85 -20.1 5.3 -18.5 2.5 -17.7 -3.6 -13.7 -10.2 -11.4 L-10.2 -11.15 Q-6.25 -7.1 -3.4 -2.4 L-3.3 -1.9 Q-8.25 3.25 -13.25 -4.05 -15.15 -6.8 -15.6 -9.9 -16.6 -10.0 -17.3 -10.95 -16.9 -16.1 -10.75 -18.3 -2.85 -21.2 4.25 -25.75 4.95 -38.25 6.9 -50.5 L5.85 -53.75 5.6 -55.4 Q6.05 -56.7 7.15 -57.1 6.7 -68.7 5.25 -79.95 2.1 -78.6 -1.35 -77.7 -7.7 -72.7 -14.25 -75.6 -11.85 -86.2 -4.2 -94.8 -0.8 -98.55 2.3 -102.75 L2.4 -103.3 2.45 -103.8 -1.05 -103.8 Q-0.5 -104.5 0.25 -104.8 L0.45 -105.15 -1.8 -105.15 -1.45 -106.15 -2.9 -107.4 Q-6.35 -110.85 -6.35 -115.75 -6.35 -120.65 -2.9 -124.1 0.55 -127.55 5.45 -127.55 10.35 -127.55 13.8 -124.1 M9.5 -90.5 L11.45 -92.3 9.4 -95.5 Q9.3 -93.0 9.5 -90.5 M2.3 -92.15 Q-0.9 -89.35 -3.3 -85.8 L-3.35 -85.25 -3.7 -84.1 -3.85 -83.7 Q0.5 -84.75 4.25 -86.8 L3.5 -94.1 2.3 -92.15" fill="#000000" fill-rule="evenodd" stroke="none"/>
  </g>
</svg>
