<?xml version="1.0" encoding="UTF-8" standalone="no"?>
<svg xmlns:ffdec="https://www.free-decompiler.com/flash" xmlns:xlink="http://www.w3.org/1999/xlink" ffdec:objectType="shape" height="156.35px" width="101.15px" xmlns="http://www.w3.org/2000/svg">
  <g transform="matrix(1.0, 0.0, 0.0, 1.0, 39.45, 140.85)">
    <path d="M21.4 -137.3 L21.4 -137.0 21.4 -136.7 21.8 -136.05 Q22.35 -135.2 22.25 -134.2 L22.5 -133.85 22.65 -133.55 22.65 -133.25 22.75 -132.0 23.7 -131.5 24.1 -131.65 24.4 -131.8 24.6 -132.15 24.75 -132.45 Q25.65 -132.15 26.6 -132.45 L28.9 -133.8 31.8 -133.45 Q31.85 -132.6 31.55 -131.8 30.85 -129.9 30.85 -127.85 L30.55 -127.55 30.4 -126.65 Q29.9 -125.15 30.15 -123.5 30.5 -122.95 31.0 -122.9 L37.5 -121.85 36.7 -120.25 34.6 -115.0 34.3 -114.65 34.3 -114.35 34.3 -113.1 Q34.65 -112.6 35.1 -112.6 41.0 -112.6 46.45 -114.55 L46.9 -113.65 Q47.3 -112.3 47.25 -110.8 47.75 -110.55 48.2 -110.6 L57.15 -111.25 57.1 -109.05 57.25 -103.75 Q59.75 -101.9 61.7 -100.95 L54.25 -95.45 54.25 -94.5 54.25 -92.65 54.65 -91.95 55.35 -90.15 Q49.0 -90.6 44.25 -87.25 L44.15 -85.4 43.75 -81.3 43.45 -81.0 40.95 -80.6 38.5 -80.55 Q35.45 -80.95 33.85 -78.85 L33.85 -77.9 33.85 -76.0 34.15 -75.7 34.3 -75.4 34.25 -74.45 33.85 -72.3 Q29.35 -72.3 26.0 -70.85 L25.9 -68.0 Q25.55 -64.75 25.55 -61.5 L24.65 -61.6 Q19.7 -63.7 17.65 -59.2 L17.65 -58.55 17.65 -57.3 Q19.9 -55.4 22.55 -54.1 L22.65 -53.8 22.95 -53.15 21.9 -51.75 Q19.55 -49.35 20.25 -46.0 24.05 -43.15 28.15 -41.0 L27.5 -40.0 Q24.3 -37.8 24.3 -34.15 27.85 -31.6 30.55 -28.55 27.6 -26.5 23.7 -25.1 L23.5 -24.8 23.3 -24.2 22.65 -23.55 22.65 -22.95 22.75 -21.05 23.7 -20.45 Q26.4 -18.6 29.4 -16.8 26.65 -15.1 24.3 -12.75 L24.3 -12.15 24.3 -10.9 24.45 -10.55 Q24.9 -9.0 26.4 -8.4 L26.5 -8.2 31.9 -3.6 29.3 -1.1 29.3 -0.8 29.3 -0.5 Q28.25 0.7 28.35 2.3 L28.45 9.15 27.05 8.9 26.1 8.95 Q22.7 11.7 19.45 14.85 L19.05 14.9 18.8 14.75 Q17.45 12.1 14.75 10.55 12.25 9.15 10.45 11.1 7.35 14.5 3.35 15.5 L2.05 13.6 Q0.65 11.6 -1.65 11.1 -8.95 9.45 -14.55 14.85 L-15.05 14.75 -16.55 13.3 Q-17.5 12.6 -18.65 12.45 L-27.85 11.75 -28.45 11.65 Q-29.4 10.15 -31.15 9.2 L-35.85 6.55 Q-34.65 6.05 -33.95 5.0 L-33.9 4.7 Q-33.75 4.0 -34.15 3.45 L-34.7 3.15 -34.9 2.85 Q-36.85 0.25 -39.45 -1.85 -34.65 -4.3 -29.2 -5.05 L-29.0 -5.7 Q-28.85 -6.45 -28.85 -7.25 L-31.35 -9.75 -31.4 -10.05 -31.7 -10.7 -33.65 -12.55 Q-32.55 -13.3 -31.25 -13.45 -25.8 -14.2 -21.8 -17.25 -21.75 -17.7 -22.0 -18.1 -23.2 -19.7 -23.9 -21.6 -23.8 -22.05 -24.05 -22.5 -24.7 -23.95 -24.0 -25.35 -20.55 -25.85 -17.75 -27.4 L-17.7 -28.05 -17.65 -29.3 -17.9 -29.55 Q-20.25 -31.15 -21.0 -33.45 L-19.75 -34.45 Q-17.55 -34.95 -15.8 -36.35 L-15.35 -37.35 Q-14.45 -38.5 -14.75 -40.1 -16.15 -41.9 -18.05 -43.2 L-18.15 -43.5 -18.3 -43.8 -18.7 -44.1 Q-19.6 -44.65 -19.75 -45.7 L-18.75 -46.75 Q-14.0 -49.85 -12.65 -55.05 L-12.9 -55.35 -14.75 -57.85 -14.6 -58.4 Q-13.55 -60.7 -13.3 -63.15 -13.25 -64.0 -14.05 -64.05 L-25.1 -65.45 -25.55 -65.75 -25.5 -67.6 Q-25.4 -69.9 -25.85 -71.95 -24.35 -72.7 -23.45 -74.15 L-23.55 -74.45 Q-25.55 -78.1 -29.2 -80.7 L-28.85 -81.0 Q-23.95 -81.65 -20.25 -84.75 -20.05 -85.95 -20.1 -87.25 L-20.15 -93.45 Q-15.65 -93.25 -12.35 -95.55 L-12.25 -95.85 -11.85 -97.4 -12.1 -98.05 -12.25 -99.9 -12.65 -100.55 Q-13.25 -101.6 -13.0 -102.7 -12.3 -102.85 -11.95 -103.45 -10.2 -103.5 -9.05 -104.7 L-8.95 -105.0 -8.95 -105.3 -8.4 -105.65 -7.95 -106.6 Q-7.55 -107.75 -7.7 -109.05 -10.6 -112.05 -14.0 -114.75 L-8.3 -118.2 Q-7.15 -119.9 -7.2 -121.95 L-7.25 -130.65 Q-5.9 -129.95 -4.35 -129.95 L-2.35 -130.35 Q1.0 -132.0 2.5 -135.45 L3.35 -136.05 3.45 -136.4 3.65 -137.0 4.7 -137.95 4.75 -138.25 4.9 -138.85 Q5.3 -139.65 6.05 -139.8 8.6 -137.15 11.65 -135.25 L12.05 -135.4 Q15.0 -137.0 17.35 -139.3 L17.5 -139.6 18.4 -140.85 18.7 -140.8 18.9 -140.45 Q20.55 -139.15 21.4 -137.3" fill="#ffff00" fill-opacity="0.5019608" fill-rule="evenodd" stroke="none"/>
  </g>
</svg>
