<?xml version="1.0" encoding="UTF-8" standalone="no"?>
<svg xmlns:ffdec="https://www.free-decompiler.com/flash" xmlns:xlink="http://www.w3.org/1999/xlink" ffdec:objectType="shape" height="164.05px" width="112.0px" xmlns="http://www.w3.org/2000/svg">
  <g transform="matrix(1.0, 0.0, 0.0, 1.0, 56.45, 140.05)">
    <path d="M3.55 -136.3 Q6.9 -139.0 8.85 -138.9 L8.8 -137.75 8.65 -136.55 8.1 -136.0 8.05 -134.85 7.9 -133.7 7.45 -133.15 5.8 -131.4 5.8 -129.65 5.8 -126.2 Q9.75 -122.95 14.25 -122.75 L13.95 -122.15 Q13.3 -120.5 12.1 -119.3 L11.9 -118.15 11.75 -117.55 11.35 -116.95 8.1 -111.2 8.15 -110.05 8.3 -108.9 17.3 -106.05 16.85 -104.9 16.55 -104.3 16.6 -103.15 16.75 -102.0 Q19.0 -100.1 21.9 -101.4 26.4 -106.15 30.75 -109.5 L31.2 -108.35 31.9 -107.2 Q31.65 -105.6 32.2 -104.2 34.0 -99.75 39.0 -101.6 L48.75 -105.05 Q48.75 -104.3 49.0 -103.55 50.2 -102.0 51.75 -101.0 L50.9 -99.7 50.35 -99.1 Q50.5 -97.6 49.95 -96.25 49.1 -94.25 48.6 -92.2 L47.7 -91.05 47.25 -90.45 47.25 -89.9 47.25 -89.3 46.9 -88.75 46.5 -88.15 46.5 -87.6 46.55 -86.45 46.7 -85.85 48.4 -84.4 Q49.55 -83.6 50.9 -83.15 L52.05 -81.8 55.55 -77.6 55.0 -76.45 54.75 -75.9 Q53.75 -75.65 53.0 -74.95 L50.35 -72.05 50.35 -71.6 49.95 -71.85 49.25 -71.55 48.05 -70.7 47.85 -69.0 Q47.05 -65.65 45.35 -63.0 L44.6 -63.4 44.35 -63.95 Q43.35 -65.6 41.9 -66.85 L41.9 -67.4 41.9 -68.0 Q38.1 -72.4 35.0 -68.0 L35.0 -66.25 35.0 -62.8 Q33.5 -63.4 32.1 -64.55 31.55 -66.2 29.8 -66.85 L29.65 -67.45 29.6 -68.0 Q27.15 -72.65 23.05 -71.05 22.45 -69.75 22.5 -68.2 22.65 -64.15 21.75 -60.3 14.1 -63.55 11.15 -58.8 L17.1 -51.85 17.25 -51.3 17.3 -50.7 17.85 -50.1 18.85 -49.0 18.9 -47.85 19.05 -46.7 Q20.85 -45.2 23.25 -44.75 26.5 -43.05 29.8 -41.9 L29.5 -41.45 Q28.15 -40.55 27.85 -39.0 L26.55 -38.35 Q25.7 -37.85 25.75 -36.9 30.5 -32.65 36.3 -29.0 32.8 -27.2 30.35 -24.2 L30.35 -23.05 30.35 -20.75 Q34.35 -17.2 38.8 -14.4 33.95 -13.2 30.35 -10.4 L30.45 -9.25 30.75 -8.05 Q36.8 -4.3 39.95 0.4 37.55 0.8 35.75 2.3 L35.75 4.05 35.75 6.9 36.35 7.45 37.65 8.65 38.2 9.65 Q40.85 13.2 41.5 15.75 34.8 14.15 28.45 15.75 27.8 16.75 27.7 18.0 27.45 21.2 26.7 24.0 23.8 18.95 19.05 16.0 18.1 15.35 17.1 15.65 11.85 17.1 8.3 21.3 L8.15 20.75 8.1 20.15 8.1 19.6 6.55 17.3 Q5.45 15.3 3.45 16.4 -1.45 19.2 -5.55 23.45 L-5.8 22.7 Q-6.3 21.7 -7.1 20.95 -7.35 19.05 -8.65 17.65 -10.9 15.25 -14.2 17.15 L-24.0 23.45 -24.25 22.7 -24.95 21.5 Q-24.65 17.1 -29.0 16.8 -35.3 16.4 -40.1 16.7 L-39.55 15.55 Q-38.65 13.6 -38.95 11.5 L-46.45 5.2 Q-41.7 5.45 -38.95 2.3 L-38.85 1.15 -38.95 0.0 -40.9 -2.65 -45.7 -12.1 Q-39.35 -8.85 -34.15 -11.9 L-34.15 -14.2 -34.15 -22.3 Q-29.9 -21.25 -26.85 -23.45 L-26.6 -24.6 -26.5 -25.75 -26.9 -26.3 -28.8 -28.6 -28.75 -29.75 -28.6 -30.95 Q-24.5 -32.4 -21.9 -35.75 L-21.9 -36.9 -21.9 -38.05 Q-24.8 -40.7 -28.8 -41.5 L-28.8 -41.9 -28.8 -42.45 -28.8 -43.05 -27.55 -44.5 Q-23.85 -48.45 -22.65 -53.4 -30.15 -58.7 -39.55 -55.5 L-39.55 -57.05 -39.55 -61.1 Q-43.2 -64.6 -46.45 -60.7 L-51.1 -61.25 -51.05 -61.85 -49.9 -62.8 -49.15 -63.4 Q-48.95 -63.95 -48.9 -64.55 -48.75 -66.25 -48.75 -68.0 -52.2 -71.35 -56.45 -73.55 -53.0 -75.15 -49.55 -77.2 L-49.5 -78.35 Q-49.4 -79.55 -49.75 -80.7 L-50.15 -81.25 -51.05 -82.4 -51.25 -83.5 -53.75 -89.5 Q-48.85 -87.95 -44.55 -89.5 -44.15 -90.35 -44.25 -91.25 -44.6 -95.15 -46.45 -98.75 -41.95 -96.5 -39.55 -100.25 L-39.55 -102.55 -39.55 -108.35 Q-36.1 -107.95 -34.35 -110.65 L-34.2 -111.8 Q-34.05 -113.55 -34.35 -115.25 L-34.75 -115.85 Q-36.1 -118.05 -38.0 -119.85 L-38.05 -120.4 -38.4 -121.6 Q-35.15 -121.15 -31.85 -124.1 L-32.05 -127.55 Q-32.5 -132.25 -34.15 -136.75 L-33.0 -136.95 -30.25 -135.35 Q-24.4 -130.5 -18.4 -131.0 -17.9 -132.1 -18.0 -133.3 -18.3 -136.95 -16.3 -140.05 -13.5 -135.45 -8.25 -134.65 -5.45 -131.85 -1.5 -132.75 L-1.05 -133.2 -0.7 -133.65 Q1.55 -134.7 3.55 -136.3" fill="#ffff00" fill-opacity="0.5019608" fill-rule="evenodd" stroke="none"/>
  </g>
</svg>
