<?xml version="1.0" encoding="UTF-8" standalone="no"?>
<svg xmlns:ffdec="https://www.free-decompiler.com/flash" xmlns:xlink="http://www.w3.org/1999/xlink" ffdec:objectType="shape" height="126.95px" width="81.2px" xmlns="http://www.w3.org/2000/svg">
  <g transform="matrix(1.0, 0.0, 0.0, 1.0, 41.4, 124.8)">
    <path d="M39.15 -88.9 Q39.95 -87.85 39.8 -86.4 39.55 -83.75 36.7 -83.4 L8.35 -79.4 Q6.45 -79.1 4.8 -80.15 1.6 -82.2 -0.2 -85.4 -4.25 -89.35 -8.65 -93.05 L-8.7 -92.85 -8.65 -90.6 Q-7.15 -75.6 -4.05 -60.75 L-3.9 -59.6 Q4.4 -52.75 10.1 -43.35 11.95 -40.3 14.4 -37.7 18.6 -33.2 15.5 -27.25 13.35 -23.05 12.9 -18.25 L11.75 -4.0 20.75 -3.4 Q23.65 -3.15 23.65 -0.35 23.05 1.9 20.8 1.9 L7.15 1.25 Q6.45 1.2 5.75 0.6 5.75 -12.25 7.4 -24.85 7.95 -29.1 10.2 -32.9 L-3.5 -49.85 Q-4.0 -45.2 -3.55 -40.45 -2.85 -33.0 -3.95 -25.45 -4.25 -23.65 -5.55 -22.3 -10.7 -17.0 -14.8 -10.95 -16.85 -6.85 -19.5 -3.4 L-9.45 -2.8 Q-8.35 -2.7 -8.1 -1.5 L-7.9 -0.35 Q-8.5 1.9 -10.8 1.9 L-23.95 1.55 -24.65 2.15 Q-25.75 2.0 -26.6 1.35 L-27.5 1.25 Q-28.2 1.2 -28.85 0.6 L-29.0 0.0 Q-29.3 -1.7 -28.05 -2.8 L-27.5 -3.25 -27.15 -3.35 -26.65 -3.45 Q-25.25 -8.65 -20.8 -12.7 L-20.65 -13.25 -20.4 -14.4 Q-15.2 -21.6 -9.05 -28.25 -10.2 -41.95 -9.85 -55.95 L-9.8 -56.55 Q-11.1 -57.95 -11.5 -60.95 -13.7 -78.7 -15.3 -96.4 -22.8 -88.15 -31.35 -80.8 -27.6 -78.55 -23.5 -77.9 -17.75 -83.7 -16.4 -76.15 -15.95 -73.65 -18.15 -72.8 -24.05 -70.5 -29.75 -73.05 -35.45 -75.55 -41.2 -77.15 L-41.3 -78.3 -41.4 -80.05 Q-31.55 -88.7 -22.6 -98.2 -19.75 -101.2 -16.65 -103.0 L-17.85 -103.5 -19.2 -104.65 Q-22.65 -108.1 -22.65 -113.0 -22.65 -117.9 -19.2 -121.35 -15.75 -124.8 -10.85 -124.8 -5.95 -124.8 -2.5 -121.35 0.95 -117.9 0.95 -113.0 0.95 -108.1 -2.5 -104.65 -5.8 -101.35 -10.35 -101.2 L-10.75 -101.3 -10.2 -100.45 -10.05 -100.5 -10.0 -100.6 Q-0.85 -96.45 6.15 -88.45 7.6 -86.75 9.45 -85.4 L31.55 -88.7 Q35.15 -94.15 39.15 -88.9" fill="#000000" fill-rule="evenodd" stroke="none"/>
  </g>
</svg>
