<?xml version="1.0" encoding="UTF-8" standalone="no"?>
<svg xmlns:ffdec="https://www.free-decompiler.com/flash" xmlns:xlink="http://www.w3.org/1999/xlink" ffdec:objectType="shape" height="157.65px" width="121.85px" xmlns="http://www.w3.org/2000/svg">
  <g transform="matrix(1.0, 0.0, 0.0, 1.0, 77.65, 132.9)">
    <path d="M8.3 -125.6 L9.25 -125.7 9.65 -125.6 9.6 -125.25 Q9.5 -124.35 9.8 -123.5 L11.15 -122.35 11.2 -121.8 11.35 -121.2 Q14.85 -116.2 19.4 -119.1 L19.5 -118.5 19.6 -112.2 Q21.2 -109.25 24.4 -108.7 21.4 -104.9 17.3 -102.2 L17.3 -101.6 Q17.15 -99.85 17.5 -98.15 L20.55 -94.1 Q14.2 -91.7 10.4 -86.65 L10.4 -86.05 10.4 -85.5 10.0 -84.9 9.65 -84.35 9.65 -83.75 9.65 -81.45 11.95 -79.15 Q6.1 -78.5 0.8 -77.2 L0.55 -76.65 0.4 -73.2 Q1.6 -71.1 4.05 -70.9 5.9 -69.6 7.7 -68.75 7.45 -67.15 5.8 -65.9 L5.75 -65.3 Q5.65 -64.4 6.0 -63.6 11.5 -61.4 16.55 -60.15 L15.0 -58.4 14.95 -57.8 14.8 -56.65 Q13.85 -56.0 13.45 -54.95 L13.45 -54.35 Q13.35 -53.2 13.65 -52.05 16.9 -50.15 20.85 -51.65 27.4 -54.1 31.9 -52.25 27.15 -47.4 26.7 -41.3 30.95 -40.35 35.0 -38.4 34.6 -36.05 33.05 -33.8 28.05 -30.5 25.0 -25.15 L24.95 -24.6 Q24.85 -23.7 25.2 -22.85 29.5 -21.25 34.2 -22.3 31.7 -17.15 32.65 -10.95 33.6 -9.3 35.4 -9.0 41.05 -8.1 44.2 -6.9 43.4 -6.25 43.25 -5.2 40.2 -3.4 38.05 -0.6 L38.05 0.0 38.05 0.55 37.65 1.15 37.3 1.7 37.25 2.3 Q37.15 3.2 37.5 4.05 38.85 5.4 40.95 5.2 L41.3 5.55 41.9 6.15 Q34.05 8.55 26.15 9.6 L25.95 10.2 Q25.8 14.9 24.8 19.4 23.3 20.8 23.45 22.85 L21.9 24.6 20.55 24.75 Q16.6 22.6 13.15 19.8 6.9 14.75 2.5 20.15 -0.95 21.35 -2.65 24.6 L-4.0 24.6 Q-4.8 22.6 -6.9 21.7 -7.7 20.05 -8.9 18.6 -14.75 11.4 -19.75 19.4 L-21.3 19.2 Q-24.1 8.9 -33.55 13.7 -37.5 15.7 -39.35 15.95 -37.95 14.05 -37.05 11.9 -35.1 9.75 -33.4 7.3 L-33.4 6.7 -33.4 0.4 -38.0 -3.65 -37.25 -4.55 Q-32.95 -7.7 -31.1 -11.9 L-31.5 -12.5 -31.85 -13.05 -31.85 -13.65 -31.85 -14.2 Q-32.75 -16.15 -34.15 -17.7 L-34.2 -18.25 Q-34.4 -20.4 -33.4 -22.3 -29.6 -22.45 -26.85 -25.0 L-26.65 -25.55 Q-26.35 -26.4 -26.5 -27.3 L-33.0 -34.2 Q-29.7 -38.0 -25.7 -41.1 -25.3 -48.05 -33.0 -49.35 -31.85 -51.55 -30.35 -53.4 L-30.35 -54.0 -30.35 -54.55 -28.0 -58.0 -28.0 -58.6 -28.0 -60.3 Q-35.2 -65.5 -41.85 -61.45 L-41.9 -60.9 -42.05 -59.75 -42.6 -59.15 -42.6 -58.6 -42.6 -54.0 -43.0 -53.4 -43.6 -52.25 -44.75 -52.05 Q-49.45 -56.35 -53.4 -51.5 L-53.4 -50.9 -53.55 -49.75 Q-55.45 -47.7 -56.65 -45.15 -57.95 -44.15 -59.35 -44.35 L-59.5 -44.95 -59.7 -46.1 -62.25 -49.1 -63.15 -49.75 Q-69.15 -52.05 -74.9 -47.85 L-74.8 -48.15 Q-73.8 -50.05 -74.1 -52.25 -73.15 -52.95 -72.85 -54.0 -70.4 -62.15 -77.2 -64.55 L-77.6 -65.2 -77.6 -65.7 Q-74.6 -68.85 -70.85 -70.9 -67.25 -77.2 -74.3 -79.9 -72.35 -80.1 -71.05 -81.45 -67.45 -82.0 -64.5 -84.15 L-64.35 -84.7 Q-63.85 -87.3 -64.3 -89.9 L-65.65 -91.65 Q-61.25 -93.65 -56.45 -92.2 -54.5 -90.0 -51.45 -89.5 L-50.75 -89.8 -49.9 -90.3 -49.7 -90.85 Q-49.4 -91.7 -49.55 -92.6 -50.9 -94.55 -53.4 -94.5 -54.55 -96.2 -56.45 -97.6 L-56.45 -98.15 -56.45 -101.05 Q-62.75 -104.3 -67.0 -109.3 L-66.45 -109.85 Q-62.1 -110.2 -58.35 -111.8 L-58.2 -112.35 Q-57.6 -114.4 -58.35 -116.4 L-60.1 -117.55 Q-61.8 -120.05 -64.15 -122.15 L-64.1 -122.75 Q-64.0 -123.65 -64.3 -124.45 -59.05 -124.3 -53.95 -123.15 -46.65 -121.5 -39.95 -122.55 L-39.8 -123.15 -39.35 -132.35 -38.8 -132.9 Q-36.55 -132.95 -34.15 -132.15 -31.2 -129.7 -29.55 -126.4 L-29.6 -125.8 Q-29.7 -124.6 -29.35 -123.5 -27.4 -121.75 -24.95 -122.95 L-24.6 -123.35 -24.0 -124.45 Q-20.95 -126.05 -17.85 -126.0 L-17.6 -125.65 Q-16.1 -123.95 -16.5 -121.6 L-16.1 -121.0 -15.75 -120.45 -15.75 -119.85 -15.75 -110.05 -15.35 -109.5 -14.95 -108.9 -14.95 -108.35 -14.95 -107.75 Q-14.05 -106.1 -12.25 -105.65 -10.95 -105.95 -10.35 -107.2 L-10.35 -107.75 -10.35 -108.35 Q-8.6 -109.65 -8.8 -111.8 L-7.45 -112.95 Q-1.75 -111.5 3.1 -107.95 4.4 -108.25 5.0 -109.5 4.9 -110.95 5.25 -112.35 L8.3 -125.6" fill="#ffff00" fill-opacity="0.5019608" fill-rule="evenodd" stroke="none"/>
  </g>
</svg>
