<?xml version="1.0" encoding="UTF-8" standalone="no"?>
<svg xmlns:ffdec="https://www.free-decompiler.com/flash" xmlns:xlink="http://www.w3.org/1999/xlink" ffdec:objectType="shape" height="137.6px" width="150.8px" xmlns="http://www.w3.org/2000/svg">
  <g transform="matrix(1.0, 0.0, 0.0, 1.0, 104.8, 120.65)">
    <path d="M1.0 -113.45 Q3.0 -113.9 5.25 -114.7 L5.6 -114.65 5.3 -114.1 4.35 -112.55 3.5 -111.25 Q2.5 -108.8 2.15 -106.45 L2.45 -106.05 Q3.75 -105.05 5.05 -104.2 L5.25 -103.85 8.2 -99.0 7.3 -98.2 4.85 -95.1 4.3 -94.75 -31.6 -94.85 -52.85 -93.75 -76.2 -93.45 Q-75.8 -95.45 -76.1 -97.9 L-76.3 -98.5 -76.5 -98.95 -78.9 -102.05 -80.25 -103.25 Q-78.5 -104.05 -76.95 -105.5 -76.35 -106.05 -76.0 -106.75 -73.6 -108.05 -72.9 -110.7 L-72.35 -111.1 -71.55 -112.25 Q-70.05 -111.05 -68.4 -110.35 L-67.55 -110.1 -65.45 -110.25 Q-64.4 -110.4 -63.1 -111.25 L-62.35 -111.55 -59.9 -111.9 -59.45 -112.3 Q-57.85 -113.6 -56.35 -115.35 L-54.9 -117.65 -53.65 -119.0 -52.55 -120.55 Q-52.0 -120.9 -51.5 -119.95 L-51.5 -119.9 Q-50.85 -118.3 -50.65 -116.6 L-50.3 -116.1 -49.9 -115.5 -49.7 -114.3 -49.55 -113.9 Q-49.3 -112.45 -48.65 -111.3 L-43.3 -111.15 Q-40.85 -111.85 -39.0 -112.9 L-38.7 -112.9 -37.7 -113.15 -37.35 -112.95 -36.35 -112.55 -36.4 -110.8 -36.35 -110.3 -35.45 -108.25 Q-32.95 -106.75 -30.1 -107.6 L-29.8 -107.55 -28.9 -107.55 -28.75 -107.7 -28.2 -108.0 -28.1 -108.05 -26.05 -109.4 -25.6 -109.85 Q-24.85 -110.55 -23.55 -111.05 L-23.35 -111.2 -22.95 -111.0 -19.3 -110.4 -18.15 -110.6 Q-15.75 -112.05 -13.55 -113.85 -10.9 -114.55 -8.5 -115.9 L-8.25 -115.55 -8.0 -115.2 -7.7 -115.1 -7.3 -114.85 -6.75 -114.65 Q-6.3 -114.25 -5.5 -114.15 L-3.95 -114.05 Q-1.6 -113.2 0.55 -113.4 L1.0 -113.45 M3.4 -87.85 L3.2 -87.75 -0.75 -85.2 Q-6.1 -84.7 -11.0 -83.6 L-11.6 -82.6 -12.25 -80.6 -12.0 -80.1 -11.7 -79.75 -10.6 -77.95 -9.9 -77.05 -9.6 -76.15 -9.25 -74.85 -9.35 -74.45 -9.8 -73.55 -10.3 -73.1 Q-11.6 -72.2 -12.5 -70.95 L-12.8 -69.95 -13.1 -68.8 -12.95 -68.2 -11.55 -67.25 -8.55 -65.75 4.15 -64.7 4.15 -64.35 Q3.85 -63.65 3.85 -62.9 L3.45 -62.2 3.3 -61.55 3.25 -61.15 3.35 -59.8 4.6 -59.05 7.4 -57.45 Q12.5 -55.9 17.65 -55.85 L25.1 -55.25 24.75 -54.6 24.05 -52.5 23.3 -51.05 22.35 -49.85 22.15 -49.25 22.0 -48.9 Q22.55 -46.15 24.75 -45.25 L25.35 -44.5 Q27.45 -43.0 30.05 -42.65 L30.0 -42.35 29.0 -40.35 Q28.35 -39.3 27.5 -38.35 L27.4 -37.85 27.35 -36.0 27.5 -35.75 28.6 -34.45 30.8 -33.05 31.05 -32.65 31.65 -31.5 31.45 -31.05 29.85 -28.45 30.3 -26.95 31.1 -25.0 33.65 -23.6 36.85 -17.9 35.35 -17.1 33.05 -14.7 32.45 -13.8 32.9 -12.3 Q33.05 -11.55 33.45 -10.8 L33.65 -10.35 37.0 -8.1 37.1 -8.0 37.65 -7.25 Q39.05 -4.7 41.35 -1.35 L46.0 2.4 45.6 2.55 44.25 1.3 42.4 1.5 Q41.4 1.85 40.55 2.35 L39.0 3.65 38.95 3.65 Q38.15 4.25 37.85 5.15 L36.8 8.05 36.65 9.6 36.4 10.25 Q36.3 11.3 35.45 11.7 L34.7 11.4 Q33.1 10.7 31.6 10.45 26.85 7.75 22.25 9.1 L22.05 9.2 21.3 10.3 20.95 10.7 20.45 11.35 16.15 15.0 Q15.65 15.15 15.25 15.4 L13.5 15.8 12.6 15.25 12.35 15.15 11.65 14.85 11.2 14.65 7.6 14.4 Q5.2 13.6 2.45 13.3 L1.65 13.8 0.05 14.7 -2.3 15.8 -3.45 16.35 -4.25 16.8 Q-5.55 17.1 -7.0 16.8 L-7.4 16.35 Q-9.25 14.85 -10.65 13.95 L-10.8 13.65 -10.95 13.35 Q-11.2 13.15 -11.55 13.1 L-12.9 13.05 -17.2 14.15 -18.4 14.2 -19.7 13.85 -21.55 13.7 -23.3 13.45 -24.8 13.55 -31.3 15.0 -31.4 14.4 -31.4 13.65 -31.55 12.7 -31.55 12.25 -31.6 11.75 -32.2 10.25 Q-34.0 8.4 -36.35 7.55 L-37.45 5.9 -37.5 5.35 -37.85 4.2 -35.05 1.3 Q-33.65 -0.8 -33.35 -2.65 L-33.15 -4.0 -33.45 -4.95 -33.8 -5.9 -34.2 -6.4 -36.55 -9.2 -36.75 -10.4 -37.05 -11.35 Q-37.4 -12.9 -38.5 -14.25 -35.55 -16.5 -33.2 -18.85 L-32.9 -19.05 -31.15 -21.35 Q-27.9 -23.05 -26.05 -25.85 -26.2 -26.95 -26.8 -27.55 L-27.1 -27.95 -27.45 -28.3 -29.85 -30.55 -33.55 -33.25 -33.4 -34.15 -32.95 -36.95 -33.1 -37.55 -33.05 -37.95 -32.9 -38.55 -32.9 -39.1 -32.85 -40.3 Q-33.45 -41.5 -34.35 -42.25 L-35.45 -42.7 -35.75 -42.75 -43.8 -43.45 -44.0 -43.55 -44.3 -43.7 -43.95 -46.55 Q-43.5 -48.1 -43.35 -49.65 -43.55 -52.0 -44.45 -53.55 L-44.65 -54.9 Q-47.85 -57.65 -51.7 -55.55 L-53.35 -53.4 -53.95 -52.45 Q-56.75 -53.9 -59.05 -51.1 -59.9 -50.8 -60.65 -50.2 -60.95 -49.35 -61.55 -48.45 L-62.6 -46.35 -62.75 -43.6 -62.75 -43.4 -63.2 -42.7 -63.15 -41.55 Q-63.05 -40.75 -63.3 -40.0 L-65.3 -40.3 Q-66.6 -41.05 -67.95 -41.6 L-70.25 -41.65 Q-74.85 -39.65 -78.8 -36.4 L-79.1 -36.0 -80.25 -34.05 Q-83.05 -35.6 -86.4 -36.5 L-88.5 -38.7 -90.2 -39.9 Q-90.7 -40.4 -91.4 -40.7 -94.4 -42.05 -97.55 -42.3 L-97.6 -42.7 -97.85 -43.5 -97.65 -44.15 Q-96.15 -46.85 -96.25 -50.25 -96.3 -51.7 -96.85 -52.8 L-97.1 -53.35 -98.25 -54.85 -104.65 -60.9 -104.8 -60.95 -102.9 -61.55 Q-99.2 -62.25 -96.7 -64.95 L-96.6 -65.15 Q-95.2 -67.35 -94.9 -69.8 -92.75 -72.45 -92.75 -75.8 L-88.75 -75.05 Q-85.6 -74.8 -84.1 -75.95 L-81.45 -76.6 Q-80.35 -78.1 -80.15 -79.95 L-80.0 -81.0 -80.0 -81.45 -80.1 -83.1 -81.65 -87.8 -80.75 -87.9 -53.95 -88.85 -40.85 -89.1 -32.75 -89.15 2.65 -89.5 Q2.9 -88.65 3.4 -87.85" fill="#ffff00" fill-opacity="0.5019608" fill-rule="evenodd" stroke="none"/>
  </g>
</svg>
