<?xml version="1.0" encoding="UTF-8" standalone="no"?>
<svg xmlns:ffdec="https://www.free-decompiler.com/flash" xmlns:xlink="http://www.w3.org/1999/xlink" ffdec:objectType="shape" height="135.95px" width="149.35px" xmlns="http://www.w3.org/2000/svg">
  <g transform="matrix(1.0, 0.0, 0.0, 1.0, 104.95, 120.45)">
    <path d="M1.25 -116.65 L1.15 -116.1 0.65 -114.45 0.05 -113.05 Q-0.35 -110.5 -0.05 -108.3 L0.3 -107.9 Q1.65 -106.95 3.05 -106.2 L3.2 -105.85 5.6 -100.65 4.9 -99.75 4.35 -96.7 2.05 -95.2 1.85 -94.65 1.45 -93.65 1.45 -92.6 1.45 -91.65 2.2 -89.5 2.05 -89.35 Q1.5 -88.25 -0.05 -86.15 -5.5 -85.75 -10.4 -84.5 L-11.1 -83.6 -12.05 -81.75 -12.0 -81.25 -11.75 -80.85 -11.7 -80.75 -31.9 -80.8 -35.4 -80.8 -64.45 -80.65 -77.95 -79.75 -79.6 -79.8 -79.6 -79.95 -79.6 -80.4 -79.65 -82.1 Q-80.75 -84.4 -81.95 -86.35 -81.4 -86.6 -81.35 -87.3 -80.4 -87.85 -79.45 -88.5 L-78.3 -90.55 -78.15 -90.75 Q-76.6 -92.75 -76.7 -95.95 L-76.8 -96.55 -76.95 -97.05 -79.5 -100.15 -80.85 -101.35 Q-79.9 -102.5 -79.15 -104.2 -78.85 -104.8 -78.7 -105.55 -76.15 -106.6 -74.95 -108.8 L-74.35 -109.15 Q-73.8 -109.55 -73.4 -110.1 -71.8 -109.15 -70.05 -108.65 L-69.15 -108.6 Q-68.35 -108.85 -67.55 -109.4 L-66.2 -111.0 -65.45 -111.35 -62.95 -111.55 -62.45 -111.9 Q-60.65 -113.0 -59.15 -114.8 L-57.95 -117.2 -56.65 -118.65 -55.75 -120.25 Q-55.25 -120.7 -54.7 -120.05 L-54.7 -120.0 Q-53.95 -118.45 -53.55 -116.8 L-53.2 -116.3 -52.8 -115.75 -52.45 -114.55 -52.25 -114.15 Q-51.8 -112.75 -51.0 -111.7 -48.35 -110.75 -45.6 -111.7 -43.05 -112.6 -41.25 -113.5 L-41.0 -113.4 -40.2 -113.25 -39.95 -113.0 -39.0 -112.45 -39.0 -110.7 -38.95 -110.2 -37.75 -108.3 Q-35.2 -106.95 -32.3 -107.85 L-32.05 -107.75 -31.35 -107.45 -31.2 -107.5 -30.65 -107.55 -30.55 -107.55 -28.8 -107.65 -28.3 -107.75 -26.2 -108.3 -26.0 -108.4 -25.6 -108.3 -22.05 -108.55 Q-21.45 -108.6 -20.95 -108.95 -18.7 -110.6 -16.65 -112.6 -13.9 -113.0 -11.4 -114.2 L-11.1 -113.95 -10.75 -113.75 -10.45 -113.65 -10.1 -113.6 -9.65 -113.75 -8.6 -113.95 -7.4 -114.45 -2.85 -114.3 -2.5 -114.45 Q-0.9 -115.45 0.9 -116.75 L1.25 -116.65 M1.6 -62.35 L1.65 -61.0 2.4 -60.0 4.65 -57.9 Q9.75 -56.0 15.0 -56.6 18.75 -57.0 22.45 -56.75 L22.45 -56.3 22.85 -54.7 22.2 -53.2 21.2 -52.0 21.05 -51.45 20.9 -51.05 Q21.35 -48.3 23.1 -47.05 L23.6 -46.25 Q25.75 -44.7 28.35 -44.35 L28.5 -44.1 Q28.5 -43.2 28.65 -42.8 28.1 -41.7 27.25 -40.7 L27.1 -40.25 26.9 -38.35 26.95 -38.1 Q26.9 -37.55 27.4 -36.7 L29.2 -34.9 29.4 -34.45 29.9 -33.3 29.9 -32.9 29.6 -30.35 30.3 -29.0 31.4 -27.2 34.05 -25.8 34.6 -20.2 33.1 -19.35 31.3 -16.65 31.15 -15.7 31.9 -14.3 32.65 -13.0 32.9 -12.55 36.3 -10.3 36.4 -10.2 36.8 -9.35 Q37.25 -6.65 39.35 -3.05 L43.25 -0.6 44.05 -0.75 44.3 0.1 44.4 0.15 44.3 0.3 44.3 0.1 43.25 -0.6 42.3 -0.25 40.85 1.0 40.05 2.6 40.0 2.6 Q39.05 3.0 38.55 3.7 L36.95 6.2 36.8 7.8 36.6 8.45 Q36.5 9.5 35.8 9.95 L35.15 10.0 31.95 9.75 Q27.0 7.0 22.65 9.05 L22.5 9.2 21.8 10.35 21.45 10.75 20.85 11.35 Q18.45 12.35 16.05 13.95 L15.1 14.3 Q14.2 14.7 13.35 14.7 L12.3 14.35 12.1 14.4 11.55 14.5 11.25 14.55 Q9.9 14.75 8.25 15.5 L3.1 14.2 2.25 14.5 0.6 14.95 -1.85 15.25 -3.0 15.3 -3.8 15.5 -6.45 15.15 -6.9 14.7 Q-8.9 13.3 -10.45 12.85 L-10.65 12.7 -10.9 12.55 -11.5 12.5 -12.85 12.65 -17.05 14.1 -18.3 14.1 -19.45 13.45 -21.25 13.1 -22.9 12.6 Q-23.7 12.4 -24.4 12.6 L-30.95 14.15 -31.2 13.7 -31.2 12.95 -31.45 12.0 -31.45 11.55 -31.5 11.0 -32.25 9.6 Q-34.2 7.9 -36.7 7.4 L-37.25 5.65 -37.25 5.15 -37.4 4.0 -34.7 0.95 Q-33.6 -1.3 -33.95 -3.0 L-34.15 -4.25 -34.65 -5.15 -35.15 -6.0 -35.55 -6.45 -38.2 -9.05 -38.0 -10.15 -37.9 -11.0 Q-37.5 -12.35 -38.0 -13.7 -34.95 -15.95 -33.1 -18.8 L-32.85 -19.0 -31.8 -21.55 Q-28.4 -22.95 -26.25 -25.55 -26.1 -26.55 -26.3 -27.2 L-26.35 -27.65 -26.65 -28.05 -28.55 -30.65 -32.35 -33.35 -32.45 -34.15 -33.0 -36.6 -33.3 -37.1 -33.2 -37.5 -33.0 -38.15 -33.0 -38.7 -32.95 -39.9 Q-33.45 -41.15 -34.15 -42.0 L-35.25 -42.55 -35.55 -42.6 -43.65 -43.35 -43.8 -43.5 -44.0 -43.75 -43.65 -46.65 Q-43.3 -48.2 -43.2 -49.8 -43.7 -52.1 -45.0 -53.15 L-45.25 -54.5 Q-48.25 -57.65 -52.25 -55.75 L-53.75 -53.45 -54.2 -52.45 Q-56.5 -52.75 -58.4 -49.65 L-60.05 -48.95 -61.3 -47.5 -62.6 -45.55 -62.75 -42.75 -62.75 -42.5 -63.1 -41.8 -63.05 -40.65 Q-63.0 -39.8 -63.2 -39.05 L-64.65 -38.45 -67.3 -39.8 Q-68.6 -40.35 -69.6 -40.1 -74.4 -38.95 -78.8 -36.35 L-79.1 -35.95 -80.25 -33.95 -86.4 -34.5 -88.25 -36.95 -89.9 -38.25 -91.0 -39.15 Q-94.05 -40.6 -97.2 -40.85 L-97.35 -41.2 -97.8 -41.8 -98.0 -42.25 Q-96.7 -45.1 -96.7 -48.45 -96.7 -49.95 -97.1 -51.15 L-97.25 -51.7 Q-97.6 -52.6 -98.3 -53.3 L-104.85 -59.3 -104.95 -59.35 -103.05 -59.85 Q-99.3 -60.45 -96.8 -63.25 L-96.7 -63.45 Q-95.6 -65.8 -95.5 -68.3 -92.9 -70.45 -92.05 -73.35 L-88.0 -73.0 Q-85.2 -73.05 -84.25 -74.3 -82.2 -73.3 -79.6 -73.95 L-76.65 -74.5 -65.4 -75.2 Q-49.8 -75.6 -34.25 -75.45 L-30.75 -75.45 -10.65 -75.35 -11.05 -74.85 -11.6 -74.45 Q-12.95 -73.65 -13.95 -72.45 L-14.4 -71.5 -14.85 -70.35 -14.7 -69.75 -13.55 -68.6 -11.0 -66.55 1.8 -65.45 2.0 -65.2 2.3 -64.1 1.9 -63.45 1.7 -62.75 1.6 -62.35" fill="#ffff00" fill-opacity="0.5019608" fill-rule="evenodd" stroke="none"/>
  </g>
</svg>
