<?xml version="1.0" encoding="UTF-8" standalone="no"?>
<svg xmlns:ffdec="https://www.free-decompiler.com/flash" xmlns:xlink="http://www.w3.org/1999/xlink" ffdec:objectType="shape" height="138.5px" width="148.85px" xmlns="http://www.w3.org/2000/svg">
  <g transform="matrix(1.0, 0.0, 0.0, 1.0, 105.25, 120.8)">
    <path d="M0.05 -102.8 Q2.0 -100.7 3.35 -99.9 L1.05 -98.45 0.7 -98.0 0.05 -97.05 -0.3 -96.1 -0.6 -95.2 -0.2 -92.8 -0.2 -92.6 Q1.45 -91.1 1.35 -88.05 -4.3 -87.9 -9.2 -86.3 L-10.1 -85.55 -11.7 -84.0 -11.95 -83.55 -11.85 -83.05 -11.4 -81.0 -10.6 -79.95 -10.95 -78.85 -12.25 -78.3 -12.65 -78.05 -13.55 -77.45 -14.15 -77.15 Q-15.65 -76.5 -16.85 -75.45 L-17.55 -74.6 -18.35 -73.5 -18.25 -72.85 -17.55 -71.35 -15.95 -68.15 Q-8.85 -66.85 -2.85 -67.0 L-2.35 -66.85 -0.75 -66.5 -1.2 -65.9 -1.55 -65.2 -1.7 -64.8 -1.7 -63.4 Q-1.65 -62.5 -2.05 -61.85 L-1.8 -61.05 -11.6 -61.4 -20.65 -61.6 Q-55.0 -62.0 -89.3 -62.0 L-90.45 -61.85 -96.65 -61.7 Q-96.45 -63.5 -96.7 -65.3 -93.2 -66.45 -90.65 -68.4 L-86.45 -68.9 Q-83.0 -69.55 -83.75 -72.3 -82.4 -72.85 -81.2 -73.6 -79.9 -75.05 -79.15 -76.85 L-78.8 -77.85 -78.8 -78.35 -78.8 -80.05 Q-80.55 -82.05 -82.5 -83.45 L-85.2 -84.45 -83.3 -85.8 -81.6 -87.5 -81.35 -87.65 Q-78.4 -88.85 -77.85 -92.1 L-77.85 -92.7 -77.85 -93.3 -80.7 -96.35 -82.0 -97.6 -83.6 -101.6 -84.1 -103.1 Q-81.25 -103.7 -79.05 -104.95 L-78.4 -105.2 Q-77.7 -105.45 -77.15 -105.75 L-73.4 -105.25 Q-72.9 -105.25 -72.4 -105.6 L-71.7 -107.7 Q-72.2 -108.95 -72.35 -110.55 L-71.7 -111.0 -69.05 -110.85 -68.4 -111.05 Q-66.25 -111.8 -64.7 -113.7 L-64.05 -116.35 Q-63.3 -117.05 -62.7 -117.9 L-62.2 -119.6 -61.15 -120.25 -61.15 -120.2 -59.35 -117.25 -58.95 -116.7 -58.55 -116.2 -57.9 -115.1 -57.65 -114.7 Q-56.75 -113.35 -55.7 -112.55 -53.1 -111.55 -50.2 -112.8 L-45.75 -114.75 -45.65 -114.4 -45.25 -113.45 -45.1 -113.05 -44.3 -112.2 -44.2 -110.45 -44.15 -109.95 -42.3 -108.45 Q-39.7 -107.4 -36.7 -108.35 L-36.6 -108.15 -36.2 -107.3 -36.15 -107.15 -35.55 -106.7 -35.45 -106.6 Q-35.35 -105.05 -34.3 -104.1 L-33.75 -103.55 Q-32.9 -103.1 -31.55 -102.75 -31.45 -102.75 -31.35 -102.85 L-30.9 -102.95 Q-29.15 -103.75 -27.55 -104.9 L-26.55 -105.65 Q-24.6 -107.7 -22.8 -110.05 -19.9 -109.9 -17.25 -110.85 L-16.75 -110.8 -16.2 -110.8 -16.0 -110.8 -15.7 -111.1 -15.45 -112.0 -14.85 -113.6 -14.25 -115.2 Q-11.45 -114.65 -9.65 -116.1 L-9.5 -116.45 -7.8 -120.8 -7.45 -120.6 -7.2 -120.05 -6.8 -118.2 Q-7.15 -117.35 -6.9 -116.65 -6.0 -113.85 -4.4 -111.95 L-4.0 -111.65 Q-2.55 -110.8 -0.95 -110.25 L-0.9 -109.9 0.35 -103.95 0.05 -102.8 M17.45 -54.8 L18.8 -54.7 Q19.05 -52.35 19.85 -50.65 L20.05 -49.75 Q22.3 -48.05 24.9 -47.8 L25.45 -47.65 28.0 -47.7 Q27.55 -46.5 26.7 -45.45 L26.5 -45.05 26.0 -43.1 25.85 -42.8 Q25.0 -42.4 25.05 -41.2 L25.95 -38.6 26.1 -38.1 26.4 -36.9 26.8 -36.55 29.15 -34.2 30.3 -33.15 32.0 -31.65 34.8 -30.2 Q32.35 -27.95 30.15 -24.8 L28.65 -23.9 Q28.1 -22.2 27.85 -20.55 L28.6 -19.45 29.85 -18.3 31.0 -17.35 31.4 -17.0 34.95 -14.7 35.05 -14.6 35.1 -13.6 Q33.7 -10.55 35.35 -6.4 L41.15 -4.35 41.7 -4.25 43.6 -4.85 42.1 -3.75 Q41.6 -2.8 41.45 -1.7 42.25 -0.85 42.1 0.55 L42.05 0.55 39.95 0.85 Q38.6 1.35 37.3 2.55 L37.1 4.2 36.95 4.85 36.45 6.5 36.05 7.2 Q34.15 7.4 32.7 8.35 27.3 5.45 23.4 8.95 L23.35 9.25 22.8 10.45 22.4 10.8 21.65 11.35 Q18.7 11.05 15.85 11.9 L14.8 12.05 13.0 12.5 11.7 12.55 11.65 12.85 11.35 13.75 11.4 14.35 9.55 17.7 4.45 15.95 3.45 15.85 1.65 15.45 Q0.65 14.45 -1.0 14.15 -1.4 13.55 -2.1 13.2 L-2.9 12.9 -5.4 11.85 -5.9 11.45 Q-8.15 10.15 -10.05 10.7 L-10.4 10.75 -10.75 10.95 -11.4 11.3 -12.8 11.9 -16.75 13.95 -18.05 13.85 -18.9 12.65 -20.7 11.95 Q-21.15 11.25 -22.15 10.85 L-23.6 10.65 -30.2 12.4 -30.75 12.35 -30.8 11.55 -31.3 10.6 -31.3 10.1 -31.3 9.5 -32.4 8.3 Q-34.6 6.85 -37.35 7.15 L-36.9 5.2 -36.75 4.7 -36.45 3.55 -34.05 0.3 Q-33.55 -2.3 -35.15 -3.75 L-36.2 -4.8 -37.05 -5.5 -37.8 -6.2 -38.25 -6.5 -41.55 -8.75 -40.55 -9.65 -39.65 -10.35 Q-37.75 -11.2 -36.95 -12.65 -33.8 -14.9 -32.85 -18.65 L-32.75 -18.95 Q-33.4 -20.25 -33.1 -21.95 -29.4 -22.75 -26.6 -24.95 L-25.3 -26.55 -24.9 -27.1 -25.05 -27.55 -25.95 -30.9 Q-28.0 -32.4 -30.0 -33.55 L-30.55 -34.2 Q-31.75 -35.25 -33.1 -35.95 L-33.75 -36.25 -33.55 -36.6 -33.2 -37.35 -33.2 -37.9 -33.2 -39.1 -33.8 -41.55 Q-34.3 -42.05 -34.9 -42.25 L-35.1 -42.35 Q-39.55 -43.7 -43.3 -43.2 L-43.35 -43.45 -43.45 -43.8 -43.05 -46.85 Q-42.9 -48.45 -42.9 -50.1 -44.05 -52.35 -46.1 -52.4 L-46.5 -53.75 Q-47.9 -55.9 -49.8 -56.4 L-19.8 -56.0 -1.7 -55.6 17.45 -54.8 M-102.55 -56.5 L-91.4 -56.45 -89.75 -56.45 -52.45 -56.4 -53.4 -56.15 Q-54.15 -54.95 -54.5 -53.5 L-54.7 -52.4 Q-56.0 -50.4 -57.05 -46.7 L-58.9 -46.5 -60.75 -45.55 Q-61.8 -44.9 -62.6 -43.9 L-62.75 -41.05 -62.75 -40.75 -62.9 -40.0 -62.9 -38.8 -62.95 -37.1 -63.3 -34.8 Q-64.6 -35.65 -66.0 -36.25 L-68.35 -37.0 Q-73.5 -37.6 -78.75 -36.2 L-79.05 -35.8 -80.2 -33.8 Q-82.9 -31.95 -86.4 -30.5 -87.35 -31.95 -87.8 -33.45 L-89.3 -35.0 Q-89.5 -35.7 -90.15 -36.05 -93.3 -37.75 -96.5 -37.95 L-96.9 -38.15 -97.75 -38.4 -98.75 -38.5 Q-97.8 -41.6 -97.55 -44.9 L-97.55 -47.8 -97.6 -48.4 Q-97.7 -49.5 -98.45 -50.15 L-105.2 -56.15 -105.25 -56.2 -103.35 -56.4 -102.55 -56.5" fill="#ffff00" fill-opacity="0.5019608" fill-rule="evenodd" stroke="none"/>
  </g>
</svg>
