<?xml version="1.0" encoding="UTF-8" standalone="no"?>
<svg xmlns:ffdec="https://www.free-decompiler.com/flash" xmlns:xlink="http://www.w3.org/1999/xlink" ffdec:objectType="shape" height="141.65px" width="148.85px" xmlns="http://www.w3.org/2000/svg">
  <g transform="matrix(1.0, 0.0, 0.0, 1.0, 105.4, 122.8)">
    <path d="M0.6 -100.05 L0.15 -99.65 -0.6 -98.75 -1.15 -97.85 -1.6 -97.0 Q-1.7 -95.7 -1.4 -94.5 L-1.35 -94.25 Q1.4 -92.55 2.0 -88.95 -3.75 -89.0 -8.55 -87.15 L-9.65 -86.5 -11.5 -85.1 -11.9 -84.7 -11.85 -84.2 -11.65 -82.0 -10.85 -80.9 -11.45 -79.8 -13.2 -79.4 -13.7 -79.25 -14.8 -78.8 -15.45 -78.55 Q-17.0 -77.9 -18.3 -76.9 L-19.1 -76.15 -20.15 -75.1 -20.05 -74.4 -19.5 -72.7 -18.45 -68.95 Q-11.15 -67.5 -5.2 -67.75 L-4.5 -67.7 -2.25 -67.75 -2.75 -67.1 -3.15 -66.4 -3.3 -66.05 -3.4 -64.55 Q-3.55 -63.55 -4.3 -62.8 -4.15 -61.0 -3.55 -59.3 1.45 -56.4 6.95 -58.9 10.8 -60.65 14.55 -61.3 L15.6 -61.45 Q17.45 -61.6 19.3 -61.4 L19.0 -59.7 17.7 -58.55 17.65 -57.95 17.65 -57.6 Q17.75 -54.8 18.2 -52.4 L18.3 -51.45 Q20.6 -49.7 23.2 -49.55 L23.9 -49.45 Q25.7 -49.3 27.65 -50.2 L26.75 -48.25 10.5 -49.05 Q-16.1 -48.95 -42.7 -48.35 L-42.75 -50.2 Q-44.25 -52.45 -46.7 -52.05 L-47.15 -53.35 Q-49.45 -57.65 -54.0 -56.3 -54.65 -55.05 -54.85 -53.55 L-55.0 -52.4 -55.85 -48.05 -66.75 -48.75 -68.25 -48.85 -98.9 -48.9 -105.4 -54.6 -103.45 -54.7 Q-99.5 -55.15 -97.05 -58.2 L-97.05 -58.4 Q-96.75 -61.1 -97.35 -63.75 -93.35 -64.5 -90.0 -65.95 L-85.65 -66.8 Q-82.15 -67.75 -83.65 -71.1 -82.3 -71.75 -81.15 -72.65 -79.7 -74.0 -78.85 -75.8 L-78.35 -76.75 -78.35 -77.3 -78.4 -79.0 Q-80.45 -80.85 -82.8 -82.05 -84.75 -82.8 -87.15 -83.05 L-85.2 -84.4 -83.25 -86.0 -82.9 -86.05 Q-79.25 -86.85 -78.45 -90.15 L-78.35 -90.8 -78.3 -91.4 -81.25 -94.45 -82.55 -95.75 -85.8 -100.25 -86.8 -101.85 Q-83.8 -102.3 -81.15 -103.05 L-80.4 -103.2 -79.05 -103.55 -75.05 -103.6 Q-74.5 -103.65 -74.05 -104.05 L-73.75 -106.9 Q-74.75 -108.45 -75.45 -110.3 L-74.85 -110.85 -72.15 -110.55 -71.35 -110.65 Q-69.1 -111.15 -67.5 -113.1 -67.45 -114.55 -67.05 -115.9 L-65.75 -117.5 -65.45 -119.25 Q-65.1 -120.0 -64.4 -120.35 L-62.2 -117.45 -61.8 -116.95 -61.4 -116.4 -60.65 -115.4 -60.3 -115.0 Q-59.25 -113.65 -58.05 -113.0 -55.45 -111.9 -52.55 -113.35 L-48.05 -115.4 -48.0 -114.95 -47.8 -113.55 -47.7 -113.1 -46.9 -112.1 -46.85 -110.3 -46.75 -109.8 Q-45.75 -108.95 -44.55 -108.5 L-38.9 -108.65 -38.85 -108.35 -38.65 -107.2 -38.65 -107.0 -37.95 -106.3 -37.85 -106.15 Q-38.05 -103.9 -37.05 -102.3 L-36.45 -101.5 Q-35.6 -100.65 -34.2 -99.95 L-34.0 -100.05 Q-33.75 -100.1 -33.6 -100.25 -31.85 -101.55 -30.25 -103.1 L-29.4 -104.0 Q-27.5 -106.25 -25.9 -108.8 L-20.2 -109.15 -19.55 -109.25 -18.95 -109.3 -18.75 -109.4 -18.55 -109.8 -18.3 -111.1 -17.95 -113.4 -17.65 -115.6 Q-14.75 -115.15 -13.1 -117.05 L-13.0 -117.5 -12.15 -122.8 -11.75 -122.6 -11.35 -122.0 -10.5 -120.05 Q-10.75 -119.2 -10.35 -118.45 -8.8 -115.5 -6.6 -113.8 L-6.1 -113.5 Q-4.6 -112.7 -2.95 -112.3 L-2.95 -111.9 -2.3 -105.65 -2.4 -104.3 Q0.6 -102.05 2.85 -101.55 L0.6 -100.05 M24.35 -40.4 L24.45 -39.95 24.65 -38.75 25.25 -38.4 28.9 -36.15 30.3 -35.2 32.25 -33.9 35.15 -32.4 Q31.35 -30.2 27.95 -27.15 L26.45 -26.2 Q26.1 -24.3 26.15 -22.45 L27.35 -21.35 28.8 -20.35 Q29.45 -19.9 30.2 -19.5 L30.65 -19.2 Q32.4 -17.95 34.25 -16.9 L34.35 -16.8 34.3 -15.75 Q31.9 -12.55 33.35 -8.1 L39.55 -6.6 40.35 -6.55 43.45 -7.0 Q42.45 -6.4 42.0 -5.55 41.7 -4.3 41.8 -3.05 43.0 -2.05 43.15 -0.5 L43.05 -0.5 40.7 -0.6 Q39.0 -0.4 37.5 0.7 L37.3 2.35 37.15 3.05 36.75 4.8 36.45 5.8 Q34.5 6.3 33.1 7.6 27.4 4.7 23.8 8.9 L23.8 9.25 23.35 10.5 22.85 10.8 22.1 11.35 Q18.8 10.4 15.75 10.85 L14.7 10.95 12.8 11.35 11.45 11.65 11.4 12.1 11.25 13.4 11.5 14.3 10.15 18.85 5.1 16.85 4.1 16.5 2.15 15.7 Q1.2 14.2 -0.6 13.6 -0.9 12.75 -1.65 12.1 L-2.45 11.6 Q-3.65 10.75 -4.9 10.15 L-5.35 9.85 Q-7.75 8.55 -9.8 9.6 L-10.25 9.8 -10.65 10.1 -11.35 10.75 -12.75 11.5 -16.65 13.85 -17.95 13.75 -18.65 12.3 -20.45 11.35 Q-20.8 10.45 -21.75 9.95 -22.55 9.5 -23.2 9.7 L-29.8 11.55 -30.55 11.65 -30.65 10.9 Q-30.8 10.35 -31.2 9.9 L-31.2 9.35 -31.2 8.8 -32.5 7.7 Q-34.75 6.35 -37.65 7.05 L-36.75 5.0 -36.45 4.45 -35.95 3.35 -33.75 -0.05 Q-33.5 -2.8 -35.7 -4.15 L-37.25 -5.1 -38.2 -5.65 -39.15 -6.25 -39.65 -6.5 -43.25 -8.6 -41.8 -9.4 -40.55 -10.0 Q-37.9 -10.65 -36.4 -12.1 -33.25 -14.4 -32.75 -18.6 L-32.7 -18.9 Q-33.8 -20.35 -33.7 -22.1 -29.85 -22.7 -26.75 -24.6 -25.7 -25.35 -24.8 -26.2 L-24.15 -26.8 -24.2 -27.35 -24.7 -31.0 Q-26.7 -32.6 -28.85 -33.65 L-29.65 -34.2 Q-31.3 -35.15 -33.2 -35.6 L-33.95 -35.8 -33.75 -36.2 -33.3 -36.9 -33.3 -37.5 -33.3 -38.7 -33.6 -41.35 -34.7 -42.1 -34.9 -42.2 Q-39.4 -43.75 -43.15 -43.15 L-43.15 -43.45 -43.15 -43.5 11.55 -43.5 13.65 -43.45 24.0 -42.7 24.35 -40.4 M-97.95 -43.25 Q-82.75 -43.15 -67.5 -42.7 L-62.6 -42.7 -62.7 -40.25 -62.7 -39.9 -62.85 -39.05 -62.85 -37.85 -62.8 -36.15 -62.65 -32.95 -65.3 -34.5 Q-66.55 -35.1 -67.7 -35.4 -73.1 -36.9 -78.75 -36.15 L-79.05 -35.75 -80.2 -33.75 Q-82.9 -30.75 -86.4 -28.5 -87.3 -30.05 -87.6 -31.7 L-89.0 -33.35 Q-89.1 -34.15 -89.75 -34.55 -92.95 -36.35 -96.1 -36.55 L-96.7 -36.6 -97.7 -36.75 -99.1 -36.65 Q-98.4 -39.8 -98.0 -43.15 L-97.95 -43.25" fill="#ffff00" fill-opacity="0.5019608" fill-rule="evenodd" stroke="none"/>
  </g>
</svg>
