<?xml version="1.0" encoding="UTF-8" standalone="no"?>
<svg xmlns:ffdec="https://www.free-decompiler.com/flash" xmlns:xlink="http://www.w3.org/1999/xlink" ffdec:objectType="shape" height="144.8px" width="149.8px" xmlns="http://www.w3.org/2000/svg">
  <g transform="matrix(1.0, 0.0, 0.0, 1.0, 105.6, 124.85)">
    <path d="M-62.5 -33.75 L-62.0 -31.1 Q-64.2 -32.55 -66.45 -33.55 L-62.55 -33.75 -62.5 -33.75 M-88.7 -31.7 Q-88.7 -32.6 -89.35 -33.0 L-80.55 -33.15 Q-83.05 -29.35 -86.4 -26.5 -87.25 -28.15 -87.35 -29.95 L-88.7 -31.7 M33.35 -35.7 L35.55 -34.6 Q29.5 -32.15 24.2 -28.45 24.1 -26.4 24.4 -24.4 26.65 -22.6 29.4 -21.7 31.45 -20.25 33.65 -19.0 L33.45 -17.85 Q30.1 -14.5 31.35 -9.8 38.2 -8.3 43.25 -9.05 42.25 -8.35 41.9 -7.3 41.75 -5.85 42.1 -4.4 43.75 -3.25 44.2 -1.55 40.65 -2.8 37.65 -1.15 L36.9 4.4 Q34.85 5.2 33.45 6.9 27.55 3.95 24.2 8.85 24.45 9.8 23.85 10.55 L22.5 11.35 Q16.5 8.6 11.15 10.75 L11.15 11.35 11.15 13.05 11.55 14.2 10.8 19.95 Q6.65 18.55 2.7 15.95 1.75 14.0 -0.15 13.05 -0.45 11.9 -1.2 11.05 -7.1 4.75 -11.3 10.15 L-16.5 13.8 -17.85 13.65 -18.4 11.9 -20.15 10.75 Q-20.4 9.7 -21.35 9.1 -22.15 8.55 -22.8 8.75 L-30.35 10.95 Q-30.35 9.95 -31.1 9.2 L-31.1 8.65 -31.1 8.05 Q-34.0 5.5 -38.0 6.9 L-33.4 -0.4 Q-33.45 -3.3 -36.3 -4.5 -41.5 -6.75 -44.9 -8.45 L-43.05 -9.15 -41.4 -9.65 Q-32.5 -10.8 -32.65 -18.85 -34.25 -20.4 -34.35 -22.3 -28.15 -22.75 -23.4 -26.5 L-23.4 -27.1 -23.4 -31.1 Q-28.0 -34.9 -34.15 -35.35 L-34.05 -35.45 -23.8 -35.65 33.35 -35.7 M16.55 -60.15 L16.55 -53.2 Q21.3 -49.5 27.3 -52.65 27.0 -51.0 25.75 -49.75 25.75 -48.45 24.8 -47.45 23.15 -47.2 22.7 -45.7 22.55 -43.25 22.85 -40.85 L-23.2 -40.95 -24.45 -40.8 -33.4 -40.45 -33.4 -41.1 Q-33.9 -41.7 -34.5 -41.95 -39.2 -43.8 -43.0 -43.05 L-42.95 -43.4 Q-42.35 -46.75 -42.6 -50.35 -44.4 -52.55 -47.25 -51.65 -49.25 -57.8 -54.55 -56.5 -55.15 -55.15 -55.25 -53.6 L-55.7 -43.8 Q-59.85 -44.75 -62.6 -42.25 L-62.7 -39.4 -62.7 -38.9 -79.6 -38.45 -98.95 -38.05 -97.95 -45.15 Q-97.8 -46.35 -98.55 -47.0 L-105.6 -53.0 Q-100.2 -52.6 -97.15 -56.5 -97.15 -59.45 -97.95 -62.25 -91.1 -62.6 -84.9 -64.75 -81.3 -66.0 -83.55 -69.9 -79.9 -71.95 -77.95 -75.7 L-77.95 -76.25 -77.95 -78.0 Q-82.8 -81.45 -89.1 -81.65 L-84.9 -84.5 Q-79.4 -84.75 -78.75 -89.5 L-89.5 -100.65 -76.7 -101.9 Q-76.15 -102.0 -75.65 -102.55 -75.6 -104.3 -75.85 -106.05 L-78.55 -110.05 -77.95 -110.65 Q-72.95 -109.2 -70.3 -112.55 -70.4 -114.05 -70.1 -115.45 L-68.75 -117.15 Q-69.1 -119.2 -67.6 -120.45 L-63.4 -115.65 Q-59.7 -111.3 -54.85 -113.9 L-50.3 -116.0 -50.3 -115.45 -50.3 -113.15 -49.55 -112.0 Q-49.65 -110.8 -49.35 -109.7 -45.75 -107.3 -41.1 -108.9 L-41.1 -108.55 -41.1 -106.8 -40.3 -105.65 Q-41.2 -100.0 -36.85 -97.2 -36.45 -97.3 -36.25 -97.55 -31.9 -101.95 -29.0 -107.55 -24.9 -106.6 -21.5 -107.95 L-21.35 -108.55 Q-20.95 -112.25 -21.1 -116.0 -18.05 -115.65 -16.5 -117.95 L-16.5 -118.5 -16.5 -124.85 Q-15.25 -124.15 -14.2 -121.95 -14.4 -121.0 -13.8 -120.25 -10.25 -115.25 -4.95 -114.3 L-5.0 -113.9 Q-5.1 -109.85 -4.8 -105.85 -0.8 -103.45 2.35 -103.15 -0.75 -101.5 -2.65 -98.75 -2.8 -97.25 -2.5 -95.85 1.35 -94.0 2.7 -89.9 -5.65 -90.15 -11.9 -85.85 L-11.9 -85.3 -11.9 -83.0 -11.1 -81.85 -11.9 -80.7 Q-17.85 -80.65 -21.9 -76.65 L-20.9 -69.75 Q-11.0 -67.6 -3.8 -68.95 L-4.95 -67.25 Q-4.8 -65.15 -6.5 -63.75 -6.65 -61.7 -6.3 -59.75 -1.3 -56.5 4.3 -59.65 11.35 -63.65 18.1 -63.6 18.2 -62.7 17.9 -61.85 L16.55 -60.7 16.55 -60.15" fill="#ffff00" fill-opacity="0.5019608" fill-rule="evenodd" stroke="none"/>
  </g>
</svg>
