<?xml version="1.0" encoding="UTF-8" standalone="no"?>
<svg xmlns:ffdec="https://www.free-decompiler.com/flash" xmlns:xlink="http://www.w3.org/1999/xlink" ffdec:objectType="shape" height="141.45px" width="147.1px" xmlns="http://www.w3.org/2000/svg">
  <g transform="matrix(1.0, 0.0, 0.0, 1.0, 107.1, 120.95)">
    <path d="M4.55 -57.7 L5.6 -57.65 5.9 -57.7 6.9 -57.8 7.7 -57.9 Q12.85 -59.35 17.95 -59.4 L19.25 -59.35 19.5 -57.75 19.4 -57.65 19.05 -57.2 18.5 -56.45 18.5 -55.9 18.5 -55.7 18.45 -55.05 17.95 -51.75 Q17.85 -50.45 17.9 -49.15 L18.35 -48.6 Q19.2 -48.05 20.1 -47.7 L20.5 -47.55 21.3 -47.2 28.4 -47.4 Q28.55 -45.95 28.0 -44.8 28.25 -43.6 27.8 -42.65 L27.1 -41.9 26.15 -40.85 Q25.35 -38.75 25.0 -36.5 L25.8 -35.7 27.75 -34.05 28.95 -32.95 Q30.15 -32.3 31.3 -31.6 32.45 -30.9 33.65 -30.4 L35.05 -29.45 34.9 -29.35 Q32.85 -27.2 30.85 -24.35 L28.25 -23.0 27.85 -21.45 27.65 -19.3 28.1 -18.65 -18.55 -18.65 -22.0 -18.45 -32.25 -18.25 -31.8 -19.1 -31.5 -19.75 -31.0 -23.2 -31.25 -23.7 Q-31.9 -25.15 -31.9 -26.85 L-31.45 -27.05 Q-28.75 -28.15 -27.05 -30.05 L-27.25 -30.4 -27.8 -31.75 -28.25 -32.9 -28.5 -32.95 -28.9 -33.2 -31.05 -35.55 -33.8 -37.75 -36.8 -38.65 -36.5 -39.65 -36.65 -40.15 -37.75 -43.2 Q-38.25 -43.65 -38.85 -43.8 L-41.85 -44.15 Q-43.85 -43.85 -45.6 -42.75 L-45.75 -42.7 -45.7 -42.85 Q-45.35 -43.9 -45.5 -45.05 L-45.95 -46.75 -47.2 -47.95 Q-48.6 -48.85 -50.3 -48.65 -52.95 -53.95 -58.05 -52.45 L-59.05 -50.75 -59.1 -49.8 -59.25 -43.15 -59.35 -40.05 Q-62.25 -39.7 -63.9 -36.95 L-63.8 -35.5 -64.1 -34.9 -64.2 -34.7 -64.5 -34.05 Q-65.4 -32.25 -65.6 -29.9 -68.8 -31.55 -72.05 -31.55 L-72.4 -31.5 -72.75 -31.45 -75.4 -31.2 -76.6 -30.9 -78.55 -30.55 -80.5 -30.15 -80.6 -30.05 -80.7 -29.7 -80.8 -29.6 -81.2 -28.55 -81.45 -28.05 -81.95 -27.45 -82.2 -27.25 -84.95 -25.75 -87.85 -24.65 Q-88.7 -26.2 -89.0 -27.9 L-90.25 -29.8 -90.6 -30.75 -91.0 -31.05 Q-94.6 -33.35 -98.05 -33.45 L-99.75 -33.9 Q-99.55 -35.2 -99.6 -36.55 L-99.8 -43.95 Q-99.9 -45.05 -100.6 -45.75 L-106.25 -51.0 -107.1 -51.7 Q-101.8 -51.35 -98.5 -54.8 -98.05 -56.5 -97.9 -58.25 L-98.1 -60.15 -97.0 -60.5 Q-95.65 -60.95 -94.6 -61.55 L-92.05 -62.6 -91.4 -63.0 -86.85 -63.15 Q-83.45 -63.65 -84.15 -66.8 L-83.45 -67.25 Q-81.95 -68.85 -81.0 -70.85 L-80.0 -73.15 -80.0 -73.65 -80.05 -75.4 -80.95 -76.45 -81.3 -76.95 -81.65 -77.35 -83.9 -79.2 -86.0 -80.45 -87.25 -80.85 -88.2 -81.1 -86.3 -84.0 -86.25 -84.0 -85.5 -84.25 -84.85 -84.5 Q-82.3 -85.9 -81.8 -89.1 L-81.7 -89.9 -87.7 -97.85 -87.9 -98.5 -87.95 -98.5 -88.9 -100.15 -84.4 -100.55 -79.55 -102.9 -78.3 -103.55 Q-77.9 -103.75 -77.55 -104.3 L-77.7 -107.8 -78.2 -108.7 -78.7 -109.8 -78.9 -110.35 -78.25 -110.6 -77.0 -110.2 -76.65 -110.0 -76.25 -109.85 Q-74.85 -109.25 -73.55 -109.45 L-73.25 -109.45 Q-72.4 -109.55 -71.7 -110.0 L-70.95 -111.45 Q-70.15 -111.85 -69.5 -112.45 -69.3 -113.65 -68.0 -114.55 L-67.75 -114.8 -67.2 -114.6 -66.85 -114.4 -66.5 -114.25 -63.35 -112.2 Q-60.25 -110.0 -57.0 -112.0 L-56.15 -112.4 -55.55 -112.4 -52.85 -112.5 -52.3 -112.5 -52.3 -111.95 -52.3 -109.65 -51.7 -108.5 Q-51.75 -107.3 -51.45 -106.2 L-50.3 -105.2 Q-48.45 -104.15 -46.35 -104.7 -45.1 -105.0 -43.8 -105.65 L-43.7 -105.5 -43.4 -104.6 -42.6 -104.0 -42.5 -103.65 -42.25 -102.85 -42.15 -102.2 -42.0 -101.75 Q-41.0 -99.05 -38.55 -98.2 L-37.9 -98.0 -37.35 -98.45 -35.35 -101.2 Q-33.2 -104.65 -31.95 -108.6 L-31.7 -108.8 -30.9 -108.65 Q-27.15 -107.9 -24.35 -109.05 L-24.0 -109.55 Q-23.0 -112.7 -23.2 -116.8 L-22.8 -116.9 -21.15 -116.75 Q-19.8 -116.8 -18.85 -117.5 L-18.75 -117.75 -18.7 -117.8 -18.7 -118.05 -18.7 -118.35 -17.75 -120.95 Q-16.3 -120.15 -15.05 -118.75 -14.9 -118.15 -14.2 -117.75 -13.15 -116.95 -11.9 -116.55 L-10.05 -115.6 -9.85 -115.5 -9.6 -115.3 -8.05 -113.8 Q-7.35 -113.3 -6.65 -112.9 L-6.55 -112.75 -6.65 -112.35 -6.85 -110.9 -7.2 -109.05 -7.2 -108.45 -7.2 -107.85 -7.35 -106.55 -7.35 -106.0 -7.1 -104.65 -6.5 -104.25 Q-3.05 -102.4 -0.3 -101.45 -1.15 -100.4 -1.8 -99.0 L-3.85 -97.3 -4.6 -94.95 Q-3.2 -93.6 -3.0 -91.2 L-2.85 -90.65 -2.55 -89.65 -3.0 -89.45 -4.85 -88.65 Q-6.25 -87.9 -7.55 -86.7 -10.55 -85.95 -13.2 -84.45 L-13.35 -84.0 -13.95 -82.15 -13.7 -81.2 -14.55 -80.25 -17.9 -79.4 -18.25 -79.2 -19.4 -78.25 -19.7 -77.95 -20.8 -76.6 -21.4 -75.4 -20.7 -72.9 -20.6 -72.3 -20.55 -71.7 -20.5 -71.1 -20.3 -70.5 -20.15 -69.85 -20.15 -69.35 -20.05 -68.75 -19.7 -68.5 -19.25 -68.3 Q-12.7 -66.95 -7.0 -67.25 -5.95 -66.85 -5.0 -66.6 L-4.35 -66.5 -4.8 -65.65 -5.0 -64.8 -4.75 -63.9 Q-4.5 -62.8 -5.0 -62.05 -4.55 -60.5 -3.75 -59.1 -0.75 -57.7 2.4 -57.95 L4.55 -57.7 M34.85 -12.7 L34.85 -11.6 34.4 -10.55 33.8 -8.5 33.85 -7.3 33.9 -6.7 33.7 -6.25 Q33.4 -5.55 33.35 -4.65 34.7 -4.4 36.0 -3.55 37.2 -2.95 38.35 -2.5 L40.0 -1.9 39.6 -1.35 39.1 -0.65 38.85 -0.15 38.85 0.05 38.8 0.65 38.9 2.4 38.95 2.75 39.1 2.9 39.2 3.05 Q39.8 3.5 39.75 4.25 36.4 2.65 33.45 3.6 L31.4 7.7 Q29.45 8.5 28.0 10.1 26.7 9.9 25.45 10.1 L24.95 10.2 24.1 10.5 23.5 10.7 20.75 11.15 19.65 11.7 Q19.7 12.15 19.15 12.5 L18.3 12.7 17.95 12.75 Q12.0 9.9 6.8 12.2 L6.65 12.75 6.25 14.25 6.3 15.3 5.6 17.65 5.1 18.85 4.55 20.5 0.6 19.95 -1.0 18.5 -2.8 17.1 -3.3 16.4 Q-3.9 14.95 -5.2 14.1 -5.55 13.0 -6.35 12.25 L-7.35 11.5 Q-12.7 7.5 -17.0 11.2 -19.05 12.25 -21.1 13.4 L-21.95 13.6 -22.75 13.15 -22.95 13.1 -23.35 11.35 -23.5 11.1 -24.55 10.25 -24.9 10.0 Q-25.3 9.0 -26.2 8.35 -26.95 7.8 -27.6 7.8 L-32.2 8.25 -32.6 8.25 -32.95 8.25 -33.5 8.4 Q-33.3 7.8 -33.5 7.25 L-33.55 7.05 -33.4 6.65 -33.25 6.15 -34.15 4.8 Q-34.95 4.15 -35.85 3.85 L-38.15 3.45 Q-37.0 -0.1 -36.55 -3.55 L-36.5 -3.75 -36.5 -3.85 Q-35.85 -6.1 -37.2 -7.3 -39.75 -9.5 -41.3 -11.75 L-39.65 -12.6 -39.15 -12.9 -38.2 -13.15 Q-30.7 -13.05 -23.2 -13.1 L-19.7 -13.1 34.5 -13.0 34.85 -12.7" fill="#ffff00" fill-opacity="0.5019608" fill-rule="evenodd" stroke="none"/>
  </g>
</svg>
