<?xml version="1.0" encoding="UTF-8" standalone="no"?>
<svg xmlns:ffdec="https://www.free-decompiler.com/flash" xmlns:xlink="http://www.w3.org/1999/xlink" ffdec:objectType="shape" height="139.85px" width="146.25px" xmlns="http://www.w3.org/2000/svg">
  <g transform="matrix(1.0, 0.0, 0.0, 1.0, 107.85, 119.0)">
    <path d="M5.4 -57.05 L6.25 -56.65 6.5 -56.6 7.45 -56.45 8.25 -56.4 18.6 -57.3 19.85 -57.2 Q20.25 -56.55 20.3 -55.7 L20.2 -55.6 19.95 -55.15 19.5 -54.35 19.5 -53.75 19.5 -53.6 19.4 -52.95 18.65 -49.75 18.55 -47.1 18.95 -46.55 Q19.8 -46.0 20.7 -45.6 L21.1 -45.45 21.9 -45.05 28.95 -44.75 Q29.35 -43.45 29.15 -42.3 29.5 -41.2 29.3 -40.25 L28.9 -39.45 27.9 -38.45 Q26.75 -36.55 26.05 -34.5 L26.4 -33.65 27.95 -31.75 28.95 -30.5 31.15 -29.1 Q32.25 -28.35 33.45 -27.9 34.05 -27.35 34.8 -26.9 L34.75 -26.75 32.9 -21.5 Q31.45 -21.05 30.25 -20.3 L29.7 -18.85 29.25 -16.75 Q30.0 -14.55 32.15 -12.85 L34.15 -11.0 34.5 -10.6 34.85 -10.1 35.45 -9.55 35.55 -8.5 35.35 -7.4 35.05 -5.6 24.95 -5.75 23.45 -5.8 9.6 -6.35 -11.05 -7.35 Q-22.2 -7.8 -33.3 -7.9 L-37.4 -7.95 -37.65 -8.7 Q-38.9 -10.9 -39.5 -13.4 L-37.95 -14.35 -37.5 -14.65 -36.45 -15.0 Q-35.55 -15.25 -34.75 -15.7 L-33.0 -16.85 -32.75 -17.2 -32.25 -18.05 -32.0 -18.55 -31.85 -19.65 -31.75 -20.1 -31.0 -21.3 -30.7 -21.95 -30.2 -25.4 -30.35 -25.95 Q-30.75 -27.4 -30.7 -29.1 L-30.3 -29.4 Q-29.15 -30.75 -28.9 -31.85 L-29.15 -32.05 -30.0 -32.95 -30.7 -33.8 -30.95 -33.85 Q-31.15 -33.9 -31.35 -34.05 L-33.05 -36.6 -35.25 -39.2 -38.1 -40.3 -38.05 -41.2 -38.3 -41.65 -39.9 -44.25 -41.0 -44.7 -44.0 -44.75 -47.0 -42.6 -47.1 -42.5 -47.05 -42.6 Q-46.75 -42.9 -46.95 -43.35 L-47.6 -44.95 -48.85 -46.15 Q-50.2 -47.15 -51.8 -47.15 -54.8 -52.05 -59.8 -50.45 L-61.0 -48.85 -61.05 -47.9 -61.15 -41.3 -61.2 -38.2 Q-63.45 -37.15 -64.55 -34.3 L-64.35 -32.9 -64.8 -32.45 -64.95 -32.35 -65.4 -32.0 Q-66.7 -31.1 -67.4 -29.3 -70.65 -30.75 -73.85 -30.1 L-74.15 -29.95 -74.4 -29.8 -76.8 -29.0 -77.8 -28.45 -79.55 -27.8 -81.35 -27.2 -81.45 -27.1 -81.55 -26.7 -81.6 -26.6 -81.95 -25.55 -82.15 -25.0 -82.75 -24.5 -83.0 -24.35 -85.75 -23.85 -88.55 -23.7 Q-89.4 -25.25 -89.8 -26.9 L-91.05 -28.85 Q-91.15 -29.4 -91.4 -29.8 L-91.8 -30.1 Q-95.4 -32.45 -98.75 -32.65 -99.2 -33.15 -99.9 -33.45 -99.7 -34.75 -99.85 -36.1 -100.15 -39.8 -100.75 -43.35 -100.95 -44.4 -101.6 -45.15 -104.4 -48.1 -107.15 -50.5 L-107.85 -51.05 Q-102.6 -50.7 -99.2 -53.95 -98.5 -55.5 -98.1 -57.2 L-98.15 -59.1 -97.15 -59.6 Q-95.9 -60.2 -95.1 -61.0 L-92.8 -62.3 -92.2 -62.8 -87.85 -62.35 Q-84.55 -62.5 -84.45 -65.25 L-83.75 -65.7 Q-82.55 -67.45 -81.8 -69.5 L-81.05 -71.85 -81.05 -72.35 -81.1 -74.1 -81.8 -75.25 -81.95 -75.8 -82.2 -76.2 Q-82.9 -77.4 -83.95 -78.4 L-85.6 -79.95 -86.85 -80.5 -87.75 -80.8 -87.0 -83.75 -86.95 -83.75 -86.25 -84.1 Q-85.9 -84.2 -85.65 -84.4 -83.55 -86.15 -83.25 -89.35 L-83.2 -90.1 Q-85.65 -94.3 -88.65 -98.4 L-88.55 -98.95 -88.6 -99.9 -84.1 -100.35 -80.15 -103.5 -79.1 -104.35 -78.5 -105.2 -78.6 -108.65 -79.0 -109.6 -79.1 -110.2 -79.05 -110.5 -78.4 -110.6 -77.2 -110.15 -76.9 -109.9 -76.6 -109.65 Q-75.35 -108.85 -74.1 -108.75 L-73.85 -108.7 Q-73.05 -108.55 -72.4 -108.7 L-71.4 -109.45 Q-70.6 -109.7 -69.85 -110.1 -69.45 -111.0 -68.05 -111.75 L-67.8 -112.0 -67.25 -112.0 -66.9 -111.9 -66.65 -111.95 -63.35 -110.45 Q-60.2 -109.0 -57.25 -111.4 L-56.4 -111.85 -55.9 -111.65 Q-54.5 -111.5 -53.75 -110.9 L-53.3 -110.75 -53.3 -110.2 -53.3 -107.9 -52.8 -106.75 -52.5 -104.45 -51.5 -103.35 Q-49.65 -102.15 -47.6 -102.9 -46.4 -103.3 -45.15 -104.0 L-45.0 -103.95 -44.55 -103.5 -43.75 -103.2 -43.55 -103.1 -43.15 -102.4 -43.0 -101.8 -42.85 -101.35 Q-41.55 -98.75 -39.0 -98.4 L-38.4 -98.4 -37.9 -98.9 Q-36.85 -100.25 -36.1 -101.75 -34.25 -105.25 -33.3 -109.3 L-33.05 -109.4 -32.25 -109.25 Q-28.45 -108.45 -25.75 -109.6 L-25.35 -110.05 Q-24.05 -112.9 -24.25 -117.2 L-23.9 -117.4 -22.3 -117.05 -20.05 -117.3 -19.85 -117.4 -19.8 -117.4 -19.8 -117.5 -19.8 -117.6 Q-19.1 -118.0 -18.35 -119.0 L-15.45 -117.15 Q-15.15 -116.7 -14.4 -116.5 -13.3 -116.0 -12.05 -116.0 L-10.15 -115.25 -9.95 -115.15 -9.75 -114.9 -8.5 -113.25 -7.4 -112.2 -7.35 -112.0 -7.45 -111.6 -7.8 -110.2 -8.3 -108.4 -8.3 -107.8 -8.3 -107.2 -8.55 -105.95 -8.55 -105.4 -8.25 -104.05 -7.7 -103.65 Q-4.3 -101.85 -1.6 -100.6 L-2.3 -98.05 -4.45 -96.55 -5.65 -94.5 Q-5.1 -93.25 -5.55 -91.1 L-5.45 -90.55 -5.2 -89.5 -5.55 -89.25 -6.55 -88.15 -8.15 -85.75 Q-11.2 -85.1 -13.85 -83.75 L-14.1 -83.35 -15.0 -81.7 -15.0 -80.85 -15.9 -80.0 Q-17.65 -79.65 -19.15 -78.95 L-19.45 -78.7 -20.35 -77.6 -20.55 -77.25 -21.0 -75.9 -21.15 -74.75 -20.3 -72.4 -20.25 -71.8 -20.2 -71.2 -20.15 -70.6 -19.9 -70.0 -19.75 -69.35 -19.75 -68.85 -19.65 -68.25 -19.35 -67.95 -18.95 -67.65 Q-12.55 -66.3 -6.75 -66.6 L-5.15 -65.5 -4.65 -65.25 -5.0 -64.4 -5.0 -63.55 -4.6 -62.75 Q-4.15 -61.85 -4.25 -61.2 L-2.45 -58.75 Q0.55 -57.6 3.7 -57.85 4.55 -57.3 5.4 -57.05 M25.7 -0.45 L36.0 -0.3 37.1 0.65 38.4 1.65 38.05 2.25 37.6 2.95 37.35 3.45 37.3 3.6 37.25 4.2 37.35 5.95 37.4 6.3 37.5 6.45 37.45 6.55 Q37.75 6.7 37.55 7.15 34.3 5.35 31.35 6.0 L28.65 9.35 Q26.75 10.15 25.3 11.7 L22.8 12.2 22.35 12.4 21.6 12.85 21.05 13.15 18.4 13.05 17.35 13.15 Q17.35 13.35 16.8 13.45 L16.05 13.45 15.7 13.45 Q9.75 10.55 4.6 12.95 L4.4 13.45 3.8 14.85 3.65 15.85 2.8 18.1 2.15 19.25 1.4 20.8 -2.5 20.75 -3.85 19.15 -5.55 17.7 -6.1 17.0 Q-6.55 15.5 -7.7 14.6 -8.1 13.55 -8.9 12.85 L-10.0 12.15 Q-15.35 8.65 -19.85 11.75 -21.95 12.65 -24.05 13.7 L-24.7 13.5 -25.35 12.9 -25.5 12.8 -25.8 11.1 -25.95 10.8 -26.95 9.9 -27.3 9.6 Q-27.75 8.65 -28.6 8.0 -29.35 7.45 -30.0 7.35 L-34.5 7.3 -34.7 7.2 -34.9 7.05 -35.1 7.15 Q-34.75 6.65 -34.8 6.15 L-34.75 6.0 -34.55 5.65 -34.35 5.2 -34.75 3.75 Q-35.4 3.0 -36.2 2.55 -37.15 1.95 -38.25 1.7 -37.9 -0.55 -37.9 -2.7 L-32.55 -2.65 -31.1 -2.6 -12.95 -2.15 0.4 -1.55 25.7 -0.45" fill="#ffff00" fill-opacity="0.5019608" fill-rule="evenodd" stroke="none"/>
  </g>
</svg>
