<?xml version="1.0" encoding="UTF-8" standalone="no"?>
<svg xmlns:ffdec="https://www.free-decompiler.com/flash" xmlns:xlink="http://www.w3.org/1999/xlink" ffdec:objectType="shape" height="139.4px" width="145.25px" xmlns="http://www.w3.org/2000/svg">
  <g transform="matrix(1.0, 0.0, 0.0, 1.0, 108.55, 117.85)">
    <path d="M6.25 -56.45 L6.9 -55.65 7.05 -55.5 8.0 -55.1 Q8.35 -54.85 8.85 -54.9 L19.25 -55.25 20.45 -55.1 Q20.95 -54.45 21.05 -53.6 L20.8 -53.05 20.45 -52.2 20.45 -51.65 20.45 -51.5 20.4 -50.85 Q19.7 -49.35 19.4 -47.7 19.1 -46.4 19.2 -45.05 L19.55 -44.45 21.25 -43.5 21.65 -43.35 Q22.05 -43.0 22.5 -42.9 L29.45 -42.1 Q30.1 -40.95 30.25 -39.8 30.8 -38.8 30.85 -37.85 L30.75 -37.0 29.65 -36.0 Q28.2 -34.35 27.15 -32.45 L27.0 -31.55 28.2 -29.4 28.9 -28.1 31.05 -26.55 Q32.0 -25.8 33.25 -25.35 L34.5 -24.3 34.55 -24.15 35.0 -18.6 Q33.5 -18.35 32.25 -17.6 31.8 -17.0 31.5 -16.2 L30.9 -14.15 Q31.15 -11.9 33.05 -9.95 L34.95 -7.95 35.2 -7.5 35.5 -7.0 36.0 -6.35 36.25 -5.35 36.3 -4.2 36.1 -2.1 36.5 -0.9 36.7 -0.35 36.4 -0.1 Q35.85 0.0 35.5 0.35 L-5.5 0.35 -13.9 1.0 -35.45 2.65 -36.55 1.25 -38.3 0.0 Q-38.35 -3.7 -39.6 -6.9 L-39.6 -7.1 -39.6 -7.2 Q-38.2 -8.85 -38.15 -10.05 L-37.7 -15.0 -36.3 -16.1 -35.85 -16.45 -34.85 -16.75 Q-33.9 -17.05 -33.15 -17.55 L-31.55 -18.9 -31.4 -19.3 -31.05 -20.25 -30.95 -20.75 -31.05 -21.9 -31.0 -22.35 -30.2 -23.55 -29.85 -24.15 -29.4 -27.6 -29.4 -28.15 Q-29.6 -29.7 -29.45 -31.4 L-29.15 -31.75 Q-29.55 -33.4 -30.75 -33.6 L-31.05 -33.75 -32.2 -34.1 -33.1 -34.7 -33.35 -34.75 -33.75 -34.9 -35.05 -37.7 -36.75 -40.6 Q-38.05 -41.45 -39.45 -42.0 L-39.65 -42.8 -39.9 -43.2 Q-40.95 -44.55 -42.1 -45.35 L-43.2 -45.6 -46.15 -45.4 -48.35 -42.5 -48.45 -42.35 -48.45 -42.3 Q-48.2 -41.95 -48.4 -41.6 L-49.25 -43.15 -50.55 -44.35 Q-51.85 -45.4 -53.35 -45.7 -56.7 -50.15 -61.6 -48.4 L-62.9 -46.95 -62.95 -46.0 -63.05 -39.4 -63.05 -36.3 Q-64.6 -34.6 -65.15 -31.65 L-64.95 -30.3 -65.5 -30.0 -65.65 -30.0 -66.25 -29.95 Q-68.0 -29.95 -69.15 -28.75 -72.5 -29.95 -75.65 -28.7 L-75.85 -28.45 -76.1 -28.2 Q-77.3 -27.6 -78.15 -26.85 L-79.0 -26.0 -80.6 -25.1 Q-81.35 -24.6 -82.2 -24.2 L-82.3 -24.1 -82.4 -23.7 -82.45 -23.6 -82.7 -22.5 -82.9 -21.95 -83.5 -21.5 -83.8 -21.45 -86.6 -21.9 -89.25 -22.75 Q-90.1 -24.3 -90.6 -25.9 L-91.85 -27.9 -92.25 -28.85 -92.6 -29.15 Q-96.2 -31.6 -99.5 -31.85 -99.55 -32.5 -100.1 -33.05 -99.9 -34.35 -100.1 -35.7 -100.7 -39.35 -101.7 -42.75 -101.95 -43.75 -102.65 -44.5 -105.3 -47.55 -108.1 -49.95 L-108.55 -50.35 Q-103.35 -50.1 -99.85 -53.15 -98.95 -54.55 -98.3 -56.15 L-98.25 -58.05 -97.35 -58.7 Q-96.15 -59.45 -95.65 -60.45 L-93.5 -62.05 -93.0 -62.65 Q-90.9 -61.75 -88.85 -61.6 -85.6 -61.3 -84.8 -63.75 L-84.0 -64.2 Q-83.15 -66.05 -82.6 -68.15 L-82.1 -70.55 -82.1 -71.1 -82.1 -72.8 -82.7 -74.1 -82.6 -74.6 -82.7 -75.05 -83.95 -77.55 -85.25 -79.5 -86.4 -80.1 -87.3 -80.55 -87.75 -83.55 -87.7 -83.55 -86.95 -83.9 -86.45 -84.25 Q-84.8 -86.35 -84.7 -89.55 L-84.7 -90.25 Q-86.75 -94.75 -89.55 -99.0 L-89.25 -99.45 -89.15 -99.35 Q-88.75 -99.25 -88.35 -99.65 -86.1 -99.45 -83.85 -100.15 L-80.7 -104.1 -79.9 -105.15 -79.4 -106.05 -79.55 -109.5 -79.85 -110.45 -79.45 -110.6 -79.2 -110.6 -78.6 -110.6 -77.45 -110.05 -77.15 -109.75 -76.95 -109.45 Q-75.85 -108.45 -74.65 -108.05 L-74.45 -107.95 Q-73.75 -107.5 -73.05 -107.45 L-71.8 -107.5 -70.25 -107.8 Q-69.6 -108.35 -68.15 -108.9 L-67.85 -109.2 -67.3 -109.35 -67.0 -109.45 -66.85 -109.6 -63.35 -108.7 Q-60.2 -107.95 -57.45 -110.8 L-56.65 -111.3 -56.25 -110.95 -54.65 -109.3 -54.35 -108.95 -54.35 -108.45 -54.25 -106.2 -53.85 -105.0 -53.55 -102.7 -52.65 -101.45 Q-50.9 -100.2 -48.85 -101.05 -47.65 -101.6 -46.5 -102.4 L-46.35 -102.4 -45.65 -102.4 -44.95 -102.4 -44.65 -102.55 -44.05 -101.95 -43.85 -101.45 -43.65 -100.95 Q-42.1 -98.5 -39.5 -98.65 L-38.95 -98.8 -38.45 -99.35 Q-37.5 -100.75 -36.8 -102.25 -35.25 -105.9 -34.7 -109.95 L-34.35 -110.05 -33.6 -109.9 -27.15 -110.1 -26.65 -110.6 Q-25.05 -113.15 -25.25 -117.6 L-25.05 -117.85 -23.5 -117.3 -21.2 -117.05 -20.95 -117.05 -20.9 -117.05 -20.9 -116.95 -20.9 -116.85 Q-19.95 -116.6 -18.95 -117.1 L-15.85 -115.5 -14.65 -115.3 -12.2 -115.4 -10.25 -114.9 -10.05 -114.8 -9.9 -114.5 -8.95 -112.7 -8.1 -111.45 -8.15 -111.2 -8.3 -110.85 -8.7 -109.45 -9.35 -107.75 -9.35 -107.15 -9.35 -106.6 -9.7 -105.35 -9.75 -104.75 -9.45 -103.45 -8.85 -103.1 -2.9 -99.8 -2.75 -97.1 -5.1 -95.8 -6.65 -94.1 -8.1 -91.0 -8.0 -90.45 -7.85 -89.35 -8.1 -89.0 -8.3 -87.6 -8.75 -84.85 Q-11.8 -84.25 -14.55 -83.05 L-14.8 -82.75 -16.05 -81.3 -16.25 -80.55 -17.2 -79.75 -20.45 -78.55 -20.6 -78.15 -21.25 -76.9 -21.45 -76.5 -21.2 -75.2 -20.9 -74.15 Q-20.3 -73.15 -19.95 -71.85 L-19.9 -71.3 -19.85 -70.7 -19.8 -70.1 -19.55 -69.5 -19.3 -68.9 -19.3 -68.35 -19.25 -67.7 -19.0 -67.4 -18.7 -67.0 Q-12.4 -65.65 -6.5 -65.9 L-5.3 -64.4 -4.9 -64.0 -5.15 -63.15 -5.05 -62.35 -4.5 -61.6 -3.55 -60.35 Q-2.45 -59.35 -1.15 -58.45 1.9 -57.55 4.95 -57.75 L6.25 -56.45 M35.75 7.15 L35.75 7.75 35.8 9.5 35.85 9.85 35.95 10.05 35.75 10.05 Q35.7 9.9 35.35 10.05 32.15 8.05 29.3 8.35 27.55 9.3 25.9 11.05 24.1 11.75 22.55 13.3 21.3 13.6 20.1 14.3 L19.75 14.6 19.15 15.2 18.65 15.55 Q17.05 15.45 16.1 14.9 L15.1 14.55 14.45 14.4 13.75 14.2 13.45 14.2 Q7.45 11.2 2.45 13.7 L2.15 14.1 1.4 15.45 1.05 16.45 0.0 18.55 -0.85 19.65 -1.75 21.1 -5.6 21.55 -6.75 19.75 -8.25 18.3 -8.9 17.6 Q-9.2 16.05 -10.2 15.1 -10.6 14.15 -11.5 13.45 L-12.65 12.8 Q-17.95 9.8 -22.65 12.3 L-27.0 13.95 -27.45 13.35 -27.9 12.65 -28.0 12.55 -28.3 10.8 -28.4 10.5 -29.3 9.55 -29.65 9.2 Q-30.1 8.35 -30.85 7.75 L-30.75 7.75 -6.65 6.1 Q14.9 5.9 36.45 6.0 L36.05 6.5 35.8 7.0 35.75 7.15" fill="#ffff00" fill-opacity="0.5019608" fill-rule="evenodd" stroke="none"/>
  </g>
</svg>
