<?xml version="1.0" encoding="UTF-8" standalone="no"?>
<svg xmlns:ffdec="https://www.free-decompiler.com/flash" xmlns:xlink="http://www.w3.org/1999/xlink" ffdec:objectType="shape" height="140.7px" width="147.4px" xmlns="http://www.w3.org/2000/svg">
  <g transform="matrix(1.0, 0.0, 0.0, 1.0, 109.3, 118.35)">
    <path d="M6.25 -57.65 L7.1 -55.8 7.55 -54.65 7.65 -54.4 8.55 -53.75 Q8.9 -53.4 9.4 -53.4 L19.9 -53.15 21.05 -52.95 Q21.65 -52.4 21.85 -51.55 L21.7 -51.0 21.45 -50.1 21.45 -49.5 21.45 -49.4 21.35 -48.75 Q20.5 -47.3 20.1 -45.7 19.75 -44.35 19.85 -43.0 L20.15 -42.4 21.85 -41.4 22.25 -41.25 Q22.65 -40.85 23.1 -40.75 L30.0 -39.45 Q30.9 -38.45 31.4 -37.3 L32.35 -35.45 32.55 -34.55 31.4 -33.6 28.2 -30.45 27.6 -29.5 28.4 -27.1 28.9 -25.65 30.9 -24.05 Q31.8 -23.25 33.05 -22.85 L34.25 -21.75 34.4 -21.55 Q35.9 -19.05 37.05 -15.75 35.5 -15.6 34.25 -14.9 L33.35 -13.6 32.5 -11.6 Q32.25 -9.2 33.95 -7.0 L35.75 -4.9 35.9 -4.45 36.1 -3.9 36.6 -3.2 36.95 -2.25 37.25 -1.05 Q37.45 -0.05 37.25 1.1 L37.85 2.3 38.1 2.85 37.75 2.95 36.3 3.0 Q35.05 2.65 34.1 4.45 L34.65 6.95 35.15 8.75 35.0 9.45 34.55 10.1 34.3 10.6 34.2 10.7 34.2 11.3 34.25 13.05 34.3 13.4 34.35 13.6 34.0 13.55 33.15 12.95 Q30.05 10.75 27.2 10.75 25.1 11.15 23.15 12.7 21.55 13.35 20.15 14.65 L14.65 14.25 8.65 13.85 2.6 13.55 Q-4.0 13.3 -10.55 13.4 L-12.25 13.55 -14.95 13.6 -15.3 13.45 Q-20.6 10.95 -25.5 12.85 L-28.45 13.7 -30.05 13.75 -30.2 13.25 -30.5 12.4 -30.55 12.25 -30.75 10.55 -30.85 10.2 -31.7 9.2 -32.05 8.8 Q-32.6 7.9 -33.45 7.25 -34.1 6.7 -34.75 6.45 -36.8 5.75 -39.15 5.4 L-38.95 5.05 -38.75 4.65 -38.25 4.65 -37.35 4.0 -37.2 3.9 -36.85 3.6 -36.5 3.25 Q-36.1 2.6 -36.0 1.7 -36.3 0.7 -36.9 -0.05 L-38.4 -1.75 Q-39.05 -5.5 -41.1 -8.55 L-41.15 -8.75 -41.15 -8.85 Q-39.35 -10.25 -38.6 -11.45 -37.15 -13.7 -35.9 -16.65 L-34.6 -17.85 -34.2 -18.2 -33.2 -18.55 Q-32.3 -18.85 -31.6 -19.45 L-30.1 -20.95 -30.05 -21.4 -29.85 -22.4 -29.85 -22.95 -30.25 -24.1 -30.25 -24.55 -29.4 -25.75 -29.05 -26.35 -28.6 -29.8 -28.5 -30.4 -28.25 -33.65 -28.0 -34.1 Q-29.95 -36.0 -32.6 -35.4 L-32.95 -35.4 -34.4 -35.3 -35.55 -35.6 -35.8 -35.65 -36.2 -35.75 -37.05 -38.75 -38.2 -42.05 -40.75 -43.65 -41.2 -44.35 -41.55 -44.7 Q-42.85 -45.9 -44.25 -46.4 L-45.35 -46.5 -48.3 -46.0 -49.75 -42.35 -49.8 -42.15 -49.8 -42.05 Q-49.6 -40.95 -49.85 -39.9 L-50.9 -41.35 -52.2 -42.55 Q-53.45 -43.7 -54.85 -44.2 -58.55 -48.25 -63.35 -46.4 L-64.85 -45.05 -64.9 -44.1 -64.95 -37.55 -64.9 -34.45 Q-65.8 -32.05 -65.8 -29.0 L-65.5 -27.7 -66.2 -27.55 -66.4 -27.65 -67.15 -27.9 -70.95 -28.15 Q-74.35 -29.15 -77.45 -27.25 L-77.6 -26.9 -77.75 -26.55 Q-78.85 -25.7 -79.55 -24.65 L-80.2 -23.55 -81.6 -22.35 -83.05 -21.25 -83.15 -21.15 -83.25 -20.7 -83.25 -20.6 -83.45 -19.5 -83.6 -18.9 -84.3 -18.55 -84.6 -18.55 Q-86.1 -19.15 -87.4 -20.0 L-89.95 -21.8 -91.4 -24.9 -92.65 -26.95 -93.05 -27.9 -93.4 -28.2 Q-97.0 -30.7 -100.2 -31.05 -99.95 -31.85 -100.25 -32.6 -100.05 -33.9 -100.35 -35.25 -101.25 -38.85 -102.65 -42.15 -103.0 -43.1 -103.65 -43.9 -106.2 -46.95 -109.0 -49.45 L-109.3 -49.7 Q-104.15 -49.45 -100.55 -52.3 -99.4 -53.55 -98.5 -55.1 L-98.3 -57.0 -97.5 -57.8 Q-96.4 -58.7 -96.15 -59.9 L-94.25 -61.75 -93.8 -62.45 Q-91.8 -61.2 -89.85 -60.8 -86.7 -60.15 -85.1 -62.2 L-84.3 -62.65 -83.4 -66.8 -83.15 -69.25 -83.15 -69.8 -83.15 -71.5 -83.55 -72.9 -83.25 -73.45 -83.25 -73.9 Q-83.45 -75.35 -84.0 -76.75 L-84.85 -79.0 -86.0 -79.75 -86.85 -80.25 -88.45 -83.3 -88.4 -83.3 -87.7 -83.75 -87.25 -84.15 Q-86.05 -86.6 -86.15 -89.8 L-86.2 -90.45 Q-87.85 -95.15 -90.5 -99.55 L-89.9 -99.9 -89.75 -99.8 Q-88.9 -99.25 -88.05 -99.4 -85.8 -99.1 -83.55 -99.95 L-81.3 -104.7 -80.7 -105.95 -80.35 -106.95 -80.45 -110.35 -80.65 -111.35 -79.85 -111.0 -79.35 -110.75 -78.75 -110.6 Q-78.2 -110.25 -77.65 -110.0 L-77.4 -109.65 -77.3 -109.25 Q-76.35 -108.05 -75.2 -107.35 L-75.05 -107.2 Q-74.4 -106.5 -73.75 -106.15 -73.2 -105.6 -72.25 -105.5 L-70.6 -105.45 -68.2 -106.1 -67.9 -106.4 -67.35 -106.75 -67.05 -106.95 -67.0 -107.3 -63.35 -106.95 Q-60.15 -106.95 -57.7 -110.2 L-56.9 -110.75 -56.6 -110.2 Q-55.8 -109.05 -55.55 -107.7 L-55.35 -107.2 -55.35 -106.7 -55.25 -104.45 -54.95 -103.25 -54.6 -100.95 -53.85 -99.6 Q-52.1 -98.2 -50.1 -99.25 L-47.85 -100.75 -47.65 -100.85 -46.8 -101.3 -46.1 -101.6 -45.7 -102.0 -44.95 -101.5 -44.7 -101.05 -44.5 -100.55 Q-42.65 -98.2 -39.95 -98.85 L-39.45 -99.2 -39.0 -99.8 Q-38.1 -101.25 -37.55 -102.8 -36.3 -106.5 -36.05 -110.65 L-35.7 -110.65 -34.95 -110.5 Q-31.05 -109.6 -28.55 -110.65 L-28.0 -111.1 Q-26.1 -113.35 -26.3 -118.0 L-26.15 -118.35 Q-25.4 -117.9 -24.65 -117.6 L-22.4 -116.85 -22.05 -116.7 -22.0 -116.65 -22.0 -116.4 -22.0 -116.1 Q-20.8 -115.15 -19.55 -115.15 -17.95 -114.2 -16.25 -113.9 L-14.85 -114.05 Q-13.6 -114.15 -12.35 -114.85 L-10.35 -114.55 -10.15 -114.45 -10.05 -114.1 -9.4 -112.15 -8.85 -110.75 -8.95 -110.45 -9.1 -110.1 -9.65 -108.75 -10.45 -107.1 -10.45 -106.5 -10.45 -105.95 -10.9 -104.75 -10.95 -104.15 Q-11.0 -103.4 -10.6 -102.85 L-10.05 -102.5 Q-6.85 -100.75 -4.2 -98.95 L-3.25 -96.15 -5.7 -95.05 -7.7 -93.65 -10.65 -90.9 -10.6 -90.35 -10.5 -89.2 -10.65 -88.8 -10.0 -87.1 Q-9.6 -85.65 -9.35 -83.9 -12.45 -83.4 -15.2 -82.35 L-15.55 -82.1 -17.1 -80.85 -17.55 -80.2 -18.55 -79.5 -21.7 -78.1 -21.8 -77.65 -22.2 -76.25 -22.3 -75.8 -21.4 -74.5 -20.65 -73.5 Q-19.95 -72.6 -19.55 -71.35 L-19.55 -70.8 -19.5 -70.2 -19.45 -69.6 -19.15 -69.0 -18.9 -68.4 -18.9 -67.85 -18.85 -67.2 -18.65 -66.85 -18.4 -66.35 Q-12.25 -65.0 -6.25 -65.25 L-5.45 -63.3 -5.2 -62.75 -5.35 -61.9 -5.05 -61.1 -4.35 -60.45 -2.8 -59.5 0.15 -58.1 6.25 -57.65 M-11.0 18.9 L-10.95 18.9 -2.7 18.9 -2.8 19.0 -3.8 20.05 -4.9 21.4 Q-6.7 22.1 -8.7 22.35 -8.95 21.35 -9.6 20.4 L-11.0 18.9" fill="#ffff00" fill-opacity="0.5019608" fill-rule="evenodd" stroke="none"/>
  </g>
</svg>
