<?xml version="1.0" encoding="UTF-8" standalone="no"?>
<svg xmlns:ffdec="https://www.free-decompiler.com/flash" xmlns:xlink="http://www.w3.org/1999/xlink" ffdec:objectType="shape" height="140.85px" width="151.5px" xmlns="http://www.w3.org/2000/svg">
  <g transform="matrix(1.0, 0.0, 0.0, 1.0, 110.65, 117.2)">
    <path d="M1.55 -58.35 L2.0 -58.2 3.95 -58.0 4.6 -58.05 5.25 -55.65 5.7 -53.8 6.6 -52.9 Q7.0 -52.45 7.5 -52.45 L11.2 -52.15 11.75 -51.95 13.15 -51.45 14.8 -51.15 17.85 -51.0 Q19.45 -50.9 20.35 -49.85 L20.5 -49.35 20.8 -48.05 20.85 -47.6 Q20.25 -46.6 20.15 -45.35 20.05 -44.6 20.25 -43.85 L20.2 -43.05 20.25 -42.4 20.25 -42.35 20.55 -42.05 21.6 -41.15 21.9 -40.95 22.55 -40.3 22.6 -40.3 23.55 -39.85 24.0 -39.7 26.1 -38.4 Q30.35 -36.35 33.5 -33.0 L32.75 -32.25 32.35 -32.05 Q29.6 -30.55 27.25 -28.5 L26.85 -25.75 26.6 -24.1 26.95 -23.65 27.65 -22.9 28.3 -22.35 Q29.2 -21.5 30.4 -21.15 L31.9 -19.85 Q35.15 -17.65 38.0 -15.05 L38.7 -13.8 Q36.2 -13.6 34.7 -11.8 L34.45 -11.55 34.2 -11.1 33.7 -10.1 Q32.9 -6.55 36.4 -2.85 L36.55 -2.35 36.65 -1.8 38.7 0.95 38.95 1.4 Q39.4 2.15 39.45 2.95 L40.45 4.0 40.85 4.55 40.6 4.55 Q37.9 2.95 35.9 6.15 L35.8 6.95 34.9 9.25 34.1 12.3 33.6 12.9 33.4 13.3 33.3 13.55 33.3 14.15 33.3 15.85 33.3 16.5 32.8 16.4 32.65 16.25 Q30.0 13.5 27.05 14.1 21.9 13.05 17.45 18.05 L16.9 18.7 16.7 19.3 16.4 20.4 16.05 21.0 Q14.65 20.9 13.9 19.75 L12.1 17.85 11.6 17.2 9.75 16.15 Q7.7 15.1 5.65 14.95 1.8 14.75 -1.45 17.3 -2.8 18.35 -4.05 19.75 L-5.3 20.55 Q-7.75 22.55 -10.6 23.65 L-10.85 22.95 -11.25 21.65 Q-11.85 20.25 -13.0 19.25 -13.0 17.3 -14.0 16.05 L-14.3 15.65 -14.6 15.3 Q-15.35 14.75 -16.35 14.45 -19.85 13.4 -23.4 13.9 -27.3 14.5 -31.25 15.95 L-31.25 15.85 Q-31.1 14.55 -31.35 13.2 L-31.65 10.95 -32.45 9.8 -32.65 9.55 Q-33.55 8.4 -34.65 7.6 -36.95 6.05 -39.85 5.25 L-39.6 4.85 -39.25 4.35 -37.7 4.1 Q-37.05 3.95 -36.75 3.45 -36.4 2.9 -36.2 2.15 -36.35 1.05 -36.75 0.05 -38.95 -5.15 -44.2 -8.25 L-44.3 -8.5 -43.6 -8.95 -42.95 -9.3 Q-39.0 -11.6 -36.85 -14.95 L-36.45 -15.6 -36.4 -15.7 Q-34.7 -16.75 -33.25 -18.2 -31.85 -18.55 -30.75 -19.65 L-29.95 -20.65 -29.7 -21.2 -29.55 -21.5 -29.6 -22.05 -29.75 -23.2 -29.9 -23.8 -30.3 -24.25 -30.95 -25.0 -31.15 -25.45 -30.55 -26.65 -30.3 -27.2 -30.3 -28.55 -29.2 -30.85 Q-28.25 -32.45 -27.65 -34.25 -28.6 -34.95 -29.6 -35.35 L-30.15 -35.55 Q-31.55 -36.15 -33.05 -36.25 L-33.55 -36.3 -35.1 -36.2 -37.2 -35.55 -38.45 -35.6 -38.7 -35.7 -38.35 -37.3 -38.35 -38.0 -38.35 -39.05 -38.35 -40.75 -38.55 -41.7 -38.8 -42.8 Q-44.55 -47.6 -50.7 -44.25 L-51.0 -42.8 -50.95 -42.25 -50.75 -40.65 Q-50.55 -39.15 -50.7 -37.65 L-50.8 -37.35 -52.4 -38.5 -53.65 -39.4 Q-58.1 -42.85 -62.3 -41.4 L-62.75 -41.45 Q-64.4 -41.6 -66.1 -40.95 L-66.25 -37.85 -66.6 -36.3 -67.15 -32.6 -66.75 -29.75 -65.9 -25.25 -66.7 -25.2 -67.8 -25.8 Q-70.45 -27.3 -72.8 -26.85 -75.85 -27.45 -78.75 -25.5 L-79.05 -25.25 -79.15 -24.7 -79.2 -24.2 Q-80.2 -22.9 -80.65 -21.3 L-80.8 -20.5 -80.85 -19.65 -81.0 -19.35 -81.7 -17.75 Q-82.15 -16.75 -82.75 -15.9 L-82.8 -15.3 -82.85 -14.55 -82.95 -14.25 -83.1 -13.85 -83.9 -13.7 -84.25 -13.85 -87.25 -17.15 -91.0 -22.1 -93.8 -25.85 Q-96.85 -27.65 -99.5 -27.6 L-100.4 -27.8 -100.55 -27.8 -100.7 -27.95 Q-99.15 -30.45 -100.2 -33.0 -102.0 -37.55 -105.45 -41.05 L-110.05 -45.75 -110.65 -46.3 Q-103.6 -46.95 -100.3 -52.35 L-100.15 -53.8 -99.25 -54.85 Q-98.25 -55.7 -98.1 -56.85 L-96.35 -58.6 -95.95 -59.25 Q-94.35 -57.9 -92.7 -57.15 L-90.45 -57.0 Q-88.5 -57.2 -86.45 -58.85 L-86.55 -63.5 -86.7 -69.3 -86.6 -69.75 -85.9 -70.2 -85.5 -70.55 Q-84.85 -71.85 -84.55 -73.2 L-84.0 -75.55 -84.55 -76.45 -84.9 -76.75 -85.35 -77.3 -87.15 -79.5 -88.2 -80.55 -87.8 -81.2 Q-87.65 -81.45 -87.65 -81.75 L-87.7 -83.25 -87.9 -85.25 -88.2 -87.95 Q-88.8 -91.3 -89.9 -94.35 L-90.1 -94.85 -90.25 -95.35 -91.85 -98.25 -91.1 -98.5 -90.95 -98.35 Q-89.45 -97.15 -87.95 -97.5 -86.35 -97.5 -84.9 -98.35 L-84.85 -98.75 -84.85 -98.9 -78.8 -99.3 -59.4 -100.3 -58.55 -100.3 -57.6 -97.75 -57.3 -97.4 Q-56.65 -96.95 -56.0 -97.0 -54.85 -96.8 -53.7 -97.55 -51.35 -98.95 -49.65 -100.5 L-47.95 -100.55 -47.85 -100.55 -47.65 -100.15 Q-46.8 -99.0 -45.85 -98.7 L-45.45 -98.6 -43.7 -98.7 -43.2 -99.25 -42.1 -100.6 -7.25 -101.3 -5.65 -98.75 -5.55 -98.5 -5.65 -98.5 -6.55 -98.0 -12.05 -94.8 -14.1 -93.65 -14.0 -93.2 -13.8 -92.15 -13.65 -91.55 -11.35 -89.25 -11.4 -89.2 -10.0 -85.5 Q-12.65 -85.1 -15.1 -84.3 L-15.5 -84.1 Q-18.75 -82.3 -21.0 -79.8 L-21.35 -79.35 -21.4 -79.25 -21.3 -78.75 -21.2 -77.4 -21.3 -77.05 -21.3 -76.6 -20.1 -75.5 Q-18.8 -74.8 -18.55 -72.9 L-18.65 -72.4 -18.8 -71.85 -18.9 -71.35 -18.7 -70.8 -18.55 -70.25 -18.65 -69.8 -18.75 -68.75 -18.65 -68.2 -18.65 -68.15 -17.3 -67.55 -11.55 -65.9 -8.95 -65.5 -9.4 -62.85 -9.45 -62.55 -9.45 -62.0 -9.45 -61.05 -9.45 -60.95 Q-8.75 -60.1 -7.8 -59.85 -4.75 -59.0 -1.5 -59.0 L1.15 -58.45 1.55 -58.35 M-79.75 -106.95 Q-79.0 -105.5 -77.8 -104.65 L-77.6 -104.4 -77.5 -104.2 -77.45 -104.15 -84.65 -103.85 -84.65 -104.8 -84.75 -109.0 -84.6 -109.55 -84.55 -109.8 -84.3 -111.15 -83.55 -110.7 -82.6 -109.8 -80.05 -107.8 -79.85 -107.4 -79.75 -106.95 M-61.55 -108.4 L-60.55 -109.85 -59.75 -110.45 -59.4 -109.05 -59.4 -108.5 -59.35 -107.35 -59.2 -105.45 -59.15 -105.35 -64.5 -105.05 Q-62.8 -106.35 -61.55 -108.4 M-27.45 -115.1 L-26.35 -114.5 -26.35 -114.45 -26.3 -114.15 -26.25 -113.75 Q-22.35 -109.85 -18.35 -113.65 L-17.75 -114.05 -17.15 -114.55 -15.95 -115.4 -14.25 -115.2 -13.95 -115.15 -13.8 -115.05 -13.75 -114.7 -13.35 -112.55 -13.05 -110.9 -13.5 -109.3 -13.65 -109.0 -14.1 -108.25 -13.95 -107.85 -13.85 -107.45 -14.15 -106.6 -14.1 -106.3 -40.0 -105.9 -39.45 -108.75 -38.25 -108.6 -37.55 -108.5 -36.95 -108.5 Q-30.5 -108.75 -30.9 -116.25 L-30.7 -117.2 -29.2 -116.2 -27.45 -115.1" fill="#ffff00" fill-opacity="0.5019608" fill-rule="evenodd" stroke="none"/>
  </g>
</svg>
