<?xml version="1.0" encoding="UTF-8" standalone="no"?>
<svg xmlns:ffdec="https://www.free-decompiler.com/flash" xmlns:xlink="http://www.w3.org/1999/xlink" ffdec:objectType="shape" height="141.7px" width="152.45px" xmlns="http://www.w3.org/2000/svg">
  <g transform="matrix(1.0, 0.0, 0.0, 1.0, 110.35, 118.75)">
    <path d="M1.5 -56.4 L5.15 -56.7 5.55 -56.3 6.5 -55.2 8.15 -54.9 11.3 -55.0 14.1 -54.6 14.55 -54.4 15.6 -53.85 16.0 -53.65 17.4 -52.7 18.4 -52.0 18.15 -51.3 18.0 -50.65 18.0 -50.6 18.2 -50.2 18.75 -49.0 18.85 -48.7 19.0 -47.95 19.0 -47.9 18.9 -47.1 19.15 -46.75 20.15 -44.65 28.2 -39.85 28.5 -39.25 28.6 -39.1 24.0 -34.85 22.8 -32.25 22.15 -30.75 22.1 -30.3 22.8 -29.55 23.7 -28.95 Q24.75 -28.25 25.95 -27.8 L27.65 -26.7 34.15 -22.6 33.75 -21.35 Q31.55 -20.45 30.05 -18.6 L29.7 -18.3 29.6 -17.75 29.35 -16.65 Q30.9 -13.8 34.65 -10.8 L35.0 -10.4 35.35 -9.95 37.95 -7.7 38.2 -7.35 39.2 -6.1 40.2 -5.25 40.7 -4.8 40.85 -4.6 Q41.5 -4.1 42.0 -1.1 L42.1 -0.55 40.35 1.2 38.45 3.55 37.8 4.15 37.75 4.15 37.65 4.65 37.6 4.9 37.6 5.5 37.6 7.3 37.6 7.95 37.35 8.15 Q37.75 8.85 37.0 11.65 31.35 9.8 27.0 14.4 L26.55 14.95 26.25 15.6 25.85 16.65 25.5 17.35 23.55 18.2 21.65 19.1 20.95 18.65 19.1 17.4 Q17.35 15.9 15.1 15.7 11.1 15.3 7.7 17.4 L4.8 19.4 Q4.1 19.7 3.55 20.1 0.9 21.7 -1.9 22.95 L-2.6 22.9 -3.0 21.6 Q-3.55 20.1 -4.45 18.9 -4.85 17.1 -5.95 15.7 L-6.15 15.2 -6.35 14.75 Q-7.1 14.2 -7.95 13.9 -11.3 12.65 -14.95 14.25 L-21.9 18.2 -21.95 18.2 -22.7 15.75 -23.5 13.6 -24.3 12.45 -24.4 12.3 Q-25.3 11.15 -26.5 10.55 -29.1 9.3 -32.1 8.9 L-32.35 8.7 Q-32.5 8.55 -32.6 8.5 L-33.25 8.55 -33.9 8.55 Q-33.95 7.95 -34.15 7.3 L-35.2 5.4 Q-38.4 0.9 -44.25 -1.0 L-44.45 -1.1 -45.05 -1.4 -44.5 -1.9 Q-41.25 -5.35 -41.55 -9.3 L-41.8 -9.95 -41.85 -10.15 Q-39.75 -10.2 -38.0 -11.15 -36.5 -11.5 -35.3 -12.6 L-34.4 -13.6 -34.25 -14.15 -34.1 -14.5 -34.15 -15.0 -34.3 -16.2 -34.45 -16.8 -34.85 -17.4 -35.5 -18.0 -35.8 -18.4 -36.0 -19.5 -36.0 -20.15 -36.15 -21.6 -34.25 -22.9 -31.5 -25.1 Q-31.15 -25.75 -30.95 -26.3 L-31.1 -26.7 Q-31.65 -28.0 -32.45 -29.1 L-32.9 -29.35 Q-33.85 -29.75 -34.05 -30.2 L-34.0 -31.3 -33.95 -32.0 -33.85 -32.2 -32.9 -33.65 -32.85 -34.25 -32.8 -35.3 -32.8 -37.1 -33.4 -37.9 -34.2 -38.55 Q-40.7 -41.25 -46.85 -38.3 L-47.1 -37.9 -47.65 -37.25 -47.75 -37.25 -46.85 -38.3 -46.65 -39.0 -46.8 -39.0 Q-47.5 -39.75 -48.45 -39.95 L-49.9 -40.25 Q-54.75 -41.3 -58.35 -38.0 L-58.6 -38.3 -60.85 -40.2 -61.35 -41.4 -62.45 -41.25 Q-63.6 -40.9 -64.5 -38.4 L-64.35 -35.5 -64.35 -30.8 -64.85 -30.25 -65.55 -29.65 Q-67.2 -28.55 -68.65 -26.5 -71.7 -27.7 -74.7 -27.15 L-75.0 -26.9 -75.3 -26.45 -75.55 -26.05 Q-76.65 -24.85 -77.2 -23.25 L-77.45 -22.45 -77.5 -21.6 -77.55 -21.3 -77.85 -19.5 Q-78.1 -18.3 -78.5 -17.3 L-78.55 -16.65 -78.7 -15.9 -78.9 -15.9 -79.25 -15.8 -80.0 -15.95 -80.3 -16.1 -83.8 -19.0 -88.35 -23.15 Q-90.35 -24.85 -92.15 -25.6 -95.2 -26.4 -97.85 -24.65 L-98.75 -24.75 -98.85 -24.85 -98.95 -25.0 Q-97.9 -27.8 -98.75 -30.25 -100.25 -34.9 -104.9 -37.75 -108.3 -39.8 -110.05 -41.8 L-110.35 -42.05 Q-103.35 -44.6 -103.05 -51.0 L-103.3 -52.45 -102.0 -52.6 -100.0 -53.0 -97.5 -53.45 -96.9 -53.7 Q-95.1 -52.85 -93.3 -52.5 -92.25 -53.0 -91.7 -53.85 -90.65 -55.3 -89.6 -57.45 L-89.6 -62.15 -89.65 -68.05 -89.25 -68.2 -88.55 -68.3 -87.85 -68.35 Q-86.65 -68.8 -85.6 -69.45 L-83.75 -70.7 -83.35 -71.3 -83.25 -71.5 -83.35 -72.1 Q-83.55 -73.45 -84.1 -74.9 L-84.95 -76.0 -84.95 -76.7 -85.1 -77.3 -85.55 -78.7 -86.05 -80.7 -86.55 -83.4 -86.95 -85.0 Q-66.25 -85.5 -45.5 -85.05 L-42.95 -84.9 -24.25 -82.95 -15.4 -81.95 -15.4 -81.65 -15.65 -81.4 -15.9 -81.15 -16.65 -80.15 -18.05 -78.05 -18.4 -77.65 -18.75 -77.2 -19.15 -76.8 -19.35 -76.4 -19.55 -76.0 -19.8 -75.65 -20.3 -74.9 -20.3 -74.35 -20.3 -74.3 Q-20.1 -73.65 -19.4 -73.15 -16.7 -71.6 -14.6 -69.75 L-15.4 -68.55 -16.7 -66.3 -16.8 -66.05 -16.8 -65.45 -16.8 -64.4 -15.25 -63.1 Q-12.4 -61.7 -9.0 -62.05 -8.2 -61.25 -6.9 -60.6 L-6.7 -60.3 -6.45 -59.95 Q-5.7 -59.35 -4.7 -59.25 L-3.85 -59.2 -2.0 -57.85 -0.55 -56.95 0.55 -56.55 1.5 -56.4 M-64.45 -112.0 L-63.65 -110.7 -63.65 -110.15 -63.65 -109.0 -62.95 -107.4 -62.8 -106.9 -62.8 -106.35 -62.8 -105.75 Q-62.1 -102.6 -59.9 -100.55 L-59.45 -100.45 -58.15 -100.75 Q-56.9 -100.85 -55.75 -101.3 L-50.9 -103.1 -50.8 -102.65 -50.6 -101.85 -50.7 -101.25 -50.7 -100.8 -50.4 -98.9 -50.2 -98.55 -49.25 -97.45 -48.95 -97.2 Q-47.4 -97.65 -46.05 -98.35 -43.2 -99.85 -40.75 -102.2 L-39.5 -102.35 -38.8 -102.35 -38.4 -102.65 Q-34.7 -106.05 -36.0 -112.9 L-35.25 -113.05 -33.6 -112.25 -31.8 -111.55 -30.6 -111.75 -30.6 -111.8 -30.5 -111.9 -30.3 -112.0 Q-27.25 -112.7 -25.0 -117.6 L-24.4 -118.1 -23.8 -118.65 -22.6 -118.75 -21.1 -118.05 -20.8 -117.9 -20.65 -117.7 -20.5 -117.4 -19.4 -115.5 -18.45 -114.15 Q-18.0 -113.35 -17.55 -113.2 L-17.4 -113.15 -16.95 -113.1 -16.6 -113.05 -16.25 -113.0 -15.85 -112.85 -15.55 -112.8 -13.85 -112.6 -9.65 -112.45 -9.45 -111.95 Q-8.55 -109.7 -8.1 -107.3 L-8.3 -106.95 -8.4 -106.85 -8.85 -106.05 -11.5 -100.7 Q-11.0 -100.35 -10.75 -99.7 L-10.45 -99.35 -9.85 -98.5 -9.5 -98.0 Q-8.15 -96.95 -7.2 -95.5 L-7.25 -95.5 -8.95 -92.55 Q-11.5 -91.65 -13.85 -90.55 L-14.05 -90.15 -15.3 -87.35 -34.45 -89.15 -40.3 -89.8 -47.2 -90.4 -80.45 -90.65 -88.65 -90.35 -88.7 -90.9 -90.8 -93.4 -90.85 -93.8 Q-91.3 -94.0 -91.8 -94.85 -90.1 -94.95 -88.85 -96.05 L-88.7 -96.4 -88.7 -97.0 Q-88.65 -99.85 -89.05 -102.6 L-89.9 -106.75 -89.45 -107.05 -89.2 -107.05 -88.35 -107.25 -87.5 -106.95 -86.65 -105.85 Q-85.45 -104.5 -84.1 -103.7 L-83.8 -103.4 -83.4 -103.05 Q-82.25 -102.15 -80.65 -101.9 L-80.45 -101.85 -80.35 -101.75 -79.9 -102.05 Q-78.5 -102.95 -76.15 -105.5 L-75.8 -105.2 -75.55 -104.9 -75.0 -104.55 -74.65 -104.5 -74.25 -104.55 -73.0 -104.5 Q-69.1 -106.35 -66.6 -110.35 L-65.3 -111.55 -64.45 -112.0" fill="#ffff00" fill-opacity="0.5019608" fill-rule="evenodd" stroke="none"/>
  </g>
</svg>
