<?xml version="1.0" encoding="UTF-8" standalone="no"?>
<svg xmlns:ffdec="https://www.free-decompiler.com/flash" xmlns:xlink="http://www.w3.org/1999/xlink" ffdec:objectType="shape" height="143.6px" width="155.45px" xmlns="http://www.w3.org/2000/svg">
  <g transform="matrix(1.0, 0.0, 0.0, 1.0, 110.2, 120.7)">
    <path d="M2.45 -58.45 L3.15 -57.05 4.85 -56.75 8.05 -57.0 11.0 -56.95 11.55 -56.95 13.0 -56.75 13.6 -56.7 16.0 -56.35 17.45 -56.05 17.15 -55.45 16.85 -54.8 16.85 -54.75 17.0 -54.3 17.3 -52.95 17.3 -52.6 17.25 -51.8 17.2 -51.7 16.55 -50.75 16.7 -50.25 17.2 -47.75 Q21.25 -45.15 25.55 -43.25 26.0 -42.95 26.4 -42.75 L26.7 -42.6 22.4 -38.0 20.8 -35.5 19.95 -34.05 19.7 -33.6 Q19.95 -33.05 20.35 -32.85 L21.4 -32.25 23.75 -31.15 25.55 -30.1 32.25 -26.4 31.3 -25.1 Q29.25 -23.9 27.7 -22.0 L27.35 -21.65 27.3 -21.1 27.2 -19.95 Q29.9 -17.45 33.75 -14.75 L34.2 -14.4 34.7 -14.05 37.55 -12.0 37.85 -11.7 39.05 -10.65 40.05 -9.85 40.65 -9.45 41.0 -9.15 Q43.3 -7.6 45.05 -4.7 L45.25 -4.3 43.1 -2.8 40.6 -0.8 39.9 -0.2 39.8 -0.2 39.8 0.3 39.75 0.55 39.75 1.2 39.75 3.0 39.75 3.65 39.65 4.05 39.6 4.05 Q41.7 6.35 41.95 10.45 36.1 8.15 31.75 12.55 L31.4 13.1 31.05 13.75 30.55 14.75 30.2 15.5 28.35 17.45 26.4 19.7 25.65 19.35 Q24.55 18.85 23.75 18.0 22.15 16.3 19.8 16.05 15.75 15.55 12.25 17.45 L9.25 19.2 7.95 19.85 2.45 22.6 1.5 22.9 1.1 21.55 -0.15 18.75 Q-0.8 17.0 -1.9 15.5 L-2.1 15.0 -2.2 14.45 -3.75 13.6 Q-7.05 12.3 -10.75 14.45 -13.7 17.0 -17.2 19.3 L-17.3 19.4 -18.35 17.0 -19.45 14.95 -20.25 13.75 -20.3 13.7 Q-21.2 12.5 -22.45 12.0 -25.2 10.9 -28.25 10.75 L-28.75 10.6 -29.3 10.55 -31.0 10.8 -32.5 11.1 -33.1 9.85 -34.45 8.05 Q-38.1 3.95 -44.25 2.65 L-44.55 2.6 -45.75 2.4 -45.25 1.8 Q-42.35 -2.2 -43.9 -6.45 L-44.5 -7.15 -44.55 -7.4 -40.4 -7.6 Q-38.8 -7.95 -37.55 -9.05 L-36.6 -10.1 -36.5 -10.6 -36.4 -11.0 -36.4 -11.45 -36.55 -12.7 -36.7 -13.3 -37.1 -14.0 -37.8 -14.5 -38.15 -14.85 -38.75 -15.95 -38.85 -16.6 -39.1 -18.1 Q-37.95 -18.45 -36.8 -18.95 -35.0 -19.65 -33.4 -20.55 L-31.6 -21.8 -31.6 -22.3 Q-31.7 -23.9 -32.15 -25.5 L-32.6 -25.85 Q-33.55 -26.5 -33.55 -27.2 L-32.4 -29.15 -31.7 -30.2 -31.45 -30.45 -30.2 -31.8 -30.1 -32.4 -30.05 -33.4 -30.0 -35.3 -30.85 -36.0 -31.9 -36.4 Q-38.75 -38.05 -44.95 -35.35 L-46.15 -34.45 -46.0 -34.75 -45.3 -36.5 Q-44.75 -38.0 -44.6 -39.7 L-44.8 -39.85 Q-45.45 -40.6 -46.45 -40.7 L-48.0 -40.7 Q-53.1 -40.55 -56.35 -36.3 L-56.55 -36.7 -58.2 -39.8 -58.9 -43.2 Q-59.65 -43.75 -60.35 -43.75 -61.9 -43.95 -63.15 -41.3 -62.95 -39.8 -63.15 -38.35 L-63.6 -33.55 -63.95 -32.75 -64.45 -31.55 -66.6 -26.3 Q-69.6 -27.8 -72.65 -28.0 L-72.95 -27.75 -73.35 -27.35 -73.7 -27.0 Q-74.9 -25.85 -75.5 -24.25 L-75.8 -23.4 -75.8 -22.55 -75.85 -22.25 -75.95 -20.35 Q-76.05 -19.1 -76.4 -18.0 L-76.45 -17.35 -76.6 -16.6 -76.9 -16.7 -77.35 -16.8 -78.05 -17.1 -78.35 -17.25 -82.05 -19.9 -87.05 -23.65 Q-89.25 -25.25 -91.3 -25.5 -94.35 -25.75 -97.0 -23.2 L-97.95 -23.2 -98.0 -23.4 -98.05 -23.55 Q-97.3 -26.45 -98.0 -28.9 -99.4 -33.6 -104.6 -36.1 -108.5 -37.95 -110.05 -39.8 L-110.2 -39.95 Q-103.25 -43.45 -104.4 -50.3 L-104.85 -51.75 -103.4 -51.45 -100.95 -51.1 -98.1 -50.85 -97.4 -50.95 Q-95.5 -50.3 -93.6 -50.2 -92.65 -51.1 -92.3 -52.3 L-91.15 -56.75 -91.1 -61.5 -91.1 -67.45 -90.6 -67.4 -89.85 -67.35 -89.05 -67.25 -86.15 -67.6 -83.65 -68.3 Q-83.2 -68.45 -82.75 -68.7 L-82.45 -68.9 -82.35 -69.5 Q-82.2 -71.0 -82.55 -72.6 L-83.1 -73.45 Q-74.65 -73.2 -66.15 -73.25 L-64.05 -73.3 -45.2 -73.75 -20.25 -74.35 -18.55 -74.4 -16.15 -71.65 Q-17.6 -71.1 -18.65 -70.1 L-20.35 -68.0 -20.5 -67.8 -20.5 -67.2 -20.5 -66.1 -19.0 -64.7 Q-16.25 -63.05 -12.75 -63.55 -12.15 -62.55 -10.95 -61.7 L-10.85 -61.25 -10.7 -60.8 Q-10.0 -60.05 -9.0 -59.9 L-8.05 -59.75 -5.65 -58.95 -3.65 -58.55 -2.45 -58.4 -1.5 -58.35 2.1 -59.0 2.45 -58.45 M-66.8 -112.75 L-65.8 -111.5 -65.8 -111.0 -65.8 -109.8 -64.85 -108.35 -64.6 -107.9 -64.6 -107.35 -64.6 -106.75 Q-63.65 -103.6 -61.05 -101.95 L-60.5 -101.95 Q-59.75 -102.1 -59.2 -102.6 L-56.75 -103.2 -51.65 -104.3 -51.8 -103.25 -51.9 -102.25 -52.1 -101.6 -52.2 -101.1 Q-52.35 -99.95 -52.65 -99.0 L-52.6 -98.55 -52.05 -96.85 -51.8 -96.15 -48.35 -96.55 Q-44.8 -97.2 -41.4 -98.95 L-40.15 -99.2 -39.45 -99.3 -39.15 -99.75 Q-36.8 -104.7 -38.55 -111.2 L-37.5 -111.0 -35.8 -110.3 -33.95 -109.75 Q-33.15 -110.0 -32.75 -110.4 L-32.75 -110.45 -32.6 -110.75 -32.35 -111.15 Q-29.7 -114.15 -28.3 -119.6 L-27.75 -120.15 -27.15 -120.7 -25.9 -120.45 -24.5 -119.5 -24.25 -119.25 -24.1 -119.05 -23.85 -118.75 -22.45 -116.95 -21.15 -115.8 Q-20.3 -115.05 -19.55 -115.15 L-19.25 -115.2 -18.4 -115.55 -17.95 -115.65 -17.45 -115.8 -16.7 -115.95 -16.25 -116.05 -14.35 -116.4 -10.0 -117.05 -9.9 -116.45 Q-9.35 -114.05 -9.3 -111.6 L-9.65 -111.15 -9.75 -111.05 -10.0 -110.1 -11.25 -103.65 Q-9.95 -103.35 -9.05 -102.7 L-8.7 -102.4 -7.85 -101.65 -7.4 -101.25 Q-6.05 -100.2 -5.15 -98.65 L-5.2 -98.65 -8.45 -96.05 -13.25 -93.65 -13.35 -93.2 Q-14.35 -89.55 -13.45 -86.05 L-13.05 -85.6 -13.0 -85.5 -12.7 -85.05 Q-12.4 -84.5 -12.5 -83.75 L-12.8 -83.6 -13.2 -83.4 -14.9 -82.5 Q-16.25 -81.8 -17.8 -80.6 L-18.3 -80.25 -18.75 -79.9 -19.05 -79.7 -19.4 -79.7 -41.7 -79.15 -65.1 -78.7 -85.1 -78.25 -85.15 -78.45 -85.75 -81.1 Q-86.6 -84.5 -87.9 -87.55 L-87.9 -88.1 -87.95 -88.7 -90.25 -90.95 -90.75 -91.5 -90.8 -91.55 -93.75 -93.5 Q-92.0 -93.7 -90.85 -94.9 L-90.65 -95.25 -90.65 -95.85 Q-90.65 -98.7 -91.25 -101.5 -91.7 -103.6 -92.5 -105.6 L-91.9 -105.8 -91.55 -105.7 Q-91.05 -105.3 -90.35 -105.3 L-89.45 -105.05 -88.65 -103.85 Q-87.5 -102.4 -86.15 -101.65 L-85.75 -101.4 -85.25 -101.1 Q-83.9 -100.45 -82.1 -100.55 L-81.85 -100.55 -81.75 -100.55 -81.3 -101.3 -78.5 -107.2 -78.2 -106.75 -77.95 -106.35 -77.55 -105.6 -77.1 -105.3 -76.55 -105.15 -75.3 -105.05 Q-71.6 -107.4 -69.1 -111.35 L-67.7 -112.4 -66.8 -112.75" fill="#ffff00" fill-opacity="0.5019608" fill-rule="evenodd" stroke="none"/>
  </g>
</svg>
