<?xml version="1.0" encoding="UTF-8" standalone="no"?>
<svg xmlns:ffdec="https://www.free-decompiler.com/flash" xmlns:xlink="http://www.w3.org/1999/xlink" ffdec:objectType="shape" height="137.8px" width="143.7px" xmlns="http://www.w3.org/2000/svg">
  <g transform="matrix(1.0, 0.0, 0.0, 1.0, 102.85, 118.4)">
    <path d="M6.15 -108.35 L5.6 -107.25 4.1 -105.8 Q2.65 -104.6 2.25 -102.6 L2.05 -102.0 1.8 -101.35 Q2.35 -99.4 3.3 -97.7 L3.55 -97.1 4.1 -96.3 6.9 -91.9 6.6 -91.5 5.8 -91.05 Q4.3 -90.5 2.55 -89.3 L2.65 -89.6 2.4 -89.85 1.7 -90.2 Q-1.7 -91.45 -5.45 -91.65 L-5.55 -91.55 Q-6.05 -91.35 -6.6 -91.25 L-7.2 -90.6 -7.35 -90.35 -7.45 -90.1 -7.45 -89.9 -7.45 -88.3 -7.4 -86.55 -7.0 -85.9 -6.75 -85.3 -6.55 -84.2 -5.9 -82.55 -5.9 -82.4 -5.9 -82.1 -5.85 -81.9 -5.7 -81.45 -5.65 -80.85 -5.85 -80.0 -6.05 -80.05 Q-12.5 -81.3 -18.4 -79.9 L-18.8 -79.7 -19.8 -79.1 -20.0 -79.0 -19.75 -77.9 -19.65 -77.35 -19.55 -76.8 -17.35 -74.15 -17.05 -73.55 -14.95 -69.6 -14.65 -69.05 -14.25 -68.45 -14.35 -68.25 -14.55 -67.8 -15.05 -66.65 -15.4 -65.65 -14.95 -64.2 -14.7 -63.3 -14.15 -61.85 -14.05 -61.55 Q-13.25 -61.0 -12.45 -60.85 L-11.75 -60.75 -11.4 -60.6 -10.95 -60.45 -9.1 -60.25 Q-3.05 -60.4 2.15 -62.55 L2.4 -62.35 2.75 -61.85 3.6 -60.55 4.8 -59.6 5.4 -59.2 Q8.55 -57.1 12.8 -58.8 15.95 -60.05 18.35 -59.9 L18.8 -59.6 19.3 -59.2 19.65 -58.85 19.85 -58.5 19.65 -57.9 19.2 -57.25 19.15 -56.8 19.0 -56.1 18.85 -55.5 18.85 -54.95 18.9 -54.35 19.0 -53.15 19.55 -52.55 Q21.8 -51.05 24.45 -50.4 L28.3 -49.25 -31.6 -49.2 -35.4 -49.2 -43.3 -49.15 -44.05 -49.5 -46.25 -49.7 -46.5 -50.35 -47.85 -54.5 -47.9 -54.95 -47.9 -55.2 -48.25 -55.8 Q-48.95 -57.0 -50.15 -57.2 L-50.15 -57.15 -50.75 -57.25 -51.05 -57.25 -53.85 -56.1 Q-56.3 -55.35 -58.6 -53.05 L-58.8 -53.1 -58.9 -53.2 Q-59.5 -53.7 -60.2 -53.75 -62.4 -54.1 -64.2 -49.7 L-64.35 -49.2 Q-78.45 -49.3 -92.55 -49.55 L-97.5 -49.75 -97.1 -51.3 Q-96.75 -52.65 -97.55 -54.0 L-98.45 -54.9 -98.6 -55.05 -100.65 -57.3 Q-101.95 -58.45 -102.65 -59.7 L-102.85 -60.15 Q-96.45 -61.05 -93.5 -65.45 L-93.6 -66.65 -93.7 -67.8 -91.65 -71.15 Q-90.4 -72.8 -89.95 -74.8 L-88.75 -74.85 -88.35 -74.75 -88.0 -74.45 -86.1 -74.05 -84.85 -74.3 -83.1 -74.05 Q-81.35 -74.15 -80.2 -75.65 L-80.05 -76.3 Q-79.35 -79.25 -79.35 -82.35 L-79.2 -82.65 -77.65 -86.25 Q-76.75 -86.7 -75.85 -87.25 L-75.3 -87.65 -74.85 -89.0 -74.85 -89.15 -74.8 -89.85 -74.75 -90.1 Q-74.65 -91.0 -74.95 -91.85 L-75.55 -92.5 -75.8 -92.7 -76.55 -93.25 -76.6 -93.8 -76.7 -94.35 -77.0 -94.9 -77.4 -95.45 -77.5 -96.05 -77.65 -96.6 -77.75 -96.75 -77.95 -97.15 -78.1 -97.35 -77.3 -97.8 Q-75.9 -98.45 -74.9 -99.8 L-74.65 -101.0 -74.45 -101.6 -74.25 -102.2 -74.5 -104.65 -74.5 -105.15 -74.5 -105.7 -75.15 -108.35 -75.55 -110.8 -74.75 -108.9 -74.35 -108.55 Q-73.4 -107.75 -72.3 -107.5 L-71.9 -107.5 -70.45 -107.6 Q-69.75 -107.85 -69.35 -108.6 L-68.8 -109.85 -68.0 -112.35 -67.65 -111.9 -67.55 -111.75 -67.0 -111.15 -66.8 -110.8 Q-66.15 -109.45 -64.75 -109.15 L-64.25 -108.95 -63.45 -109.05 -62.85 -109.25 -62.4 -109.55 -62.3 -109.9 -62.15 -110.2 -62.0 -110.55 -61.15 -110.15 -59.25 -109.75 Q-58.75 -109.85 -58.3 -110.1 L-57.45 -110.45 -56.65 -111.45 -56.55 -111.7 Q-55.8 -113.05 -54.75 -113.9 L-54.7 -113.6 -54.7 -113.3 -54.65 -113.05 -54.35 -112.75 -54.0 -112.45 -53.75 -111.9 -53.75 -111.6 -53.65 -111.3 -53.35 -110.4 -53.2 -109.75 -52.8 -108.25 -52.0 -107.7 Q-50.8 -107.1 -49.3 -107.35 -47.95 -107.6 -46.75 -108.15 L-46.65 -107.8 -46.4 -106.75 -45.8 -105.1 -45.5 -103.75 -45.5 -103.25 -45.5 -102.15 Q-44.8 -100.95 -43.75 -100.35 L-43.3 -100.05 -42.85 -99.85 -42.45 -99.7 Q-42.05 -99.75 -41.75 -99.9 L-38.6 -101.9 Q-37.8 -102.65 -37.15 -103.65 L-36.3 -104.6 -32.8 -103.9 -32.0 -104.05 -31.55 -104.2 Q-31.3 -104.3 -31.1 -104.45 L-30.75 -104.95 Q-30.6 -105.3 -30.7 -105.75 L-31.25 -108.3 -31.3 -108.45 -31.3 -108.8 -29.15 -108.95 -28.4 -109.3 -28.2 -109.6 -25.3 -110.25 -24.85 -110.7 -21.9 -113.7 -20.6 -113.45 -17.65 -113.25 -17.0 -113.35 Q-12.3 -114.6 -8.3 -117.8 L-5.4 -118.4 -5.1 -118.25 -5.1 -117.35 -5.15 -116.55 -5.55 -114.6 Q-5.75 -113.25 -5.25 -112.0 L-4.75 -111.85 -3.25 -112.0 -2.55 -112.0 -1.85 -112.0 1.15 -111.0 2.35 -110.45 Q2.65 -110.2 3.0 -110.05 4.6 -109.5 5.7 -108.75 L6.15 -108.35 M27.35 -42.85 L24.9 -40.75 24.5 -40.1 23.1 -37.65 23.25 -37.15 23.6 -36.15 24.0 -35.1 25.75 -34.25 26.35 -34.0 26.35 -33.95 25.95 -32.95 26.1 -32.45 26.25 -31.9 26.05 -31.45 25.95 -31.3 25.65 -30.9 23.9 -28.65 23.7 -27.55 23.65 -26.5 23.95 -25.9 24.35 -25.55 Q24.75 -25.2 25.2 -24.95 L26.45 -24.65 31.15 -20.05 31.6 -19.5 31.8 -18.65 31.6 -18.65 31.25 -18.3 Q30.65 -17.65 30.5 -16.6 L30.5 -16.35 30.7 -15.35 Q30.85 -14.5 31.3 -13.8 32.35 -12.65 33.85 -12.6 36.35 -12.45 37.4 -13.2 L38.55 -12.05 39.25 -11.4 40.85 -7.5 39.85 -7.05 39.55 -6.75 36.65 -4.8 36.6 -4.75 Q35.65 -4.05 35.0 -2.5 L35.25 -0.8 35.35 0.35 35.7 2.15 Q36.3 2.7 36.5 3.4 L36.55 3.7 36.55 4.35 36.4 6.05 36.7 7.0 36.85 7.9 Q36.9 9.05 36.05 9.6 L34.35 9.35 Q29.6 9.1 25.8 12.8 L25.2 13.1 24.85 13.8 24.45 14.3 24.4 14.4 23.05 15.35 22.35 16.5 22.25 16.6 21.2 17.75 19.55 19.4 17.75 18.65 17.2 18.25 15.85 17.3 Q13.45 15.1 9.45 15.35 L7.35 15.6 Q4.15 14.65 0.95 15.05 L0.6 15.05 0.2 15.1 Q-3.0 15.75 -5.95 18.6 L-6.9 18.75 -7.1 18.45 -7.5 18.05 Q-9.4 16.15 -12.0 14.6 L-12.6 13.85 Q-13.45 12.9 -14.5 12.7 L-17.15 12.45 Q-18.4 12.3 -19.8 12.45 -23.7 12.8 -27.65 14.0 L-28.15 12.9 -28.55 12.1 Q-28.95 11.55 -29.6 11.15 L-29.85 10.85 -30.1 10.25 Q-30.75 8.45 -32.3 7.35 -34.55 5.75 -36.7 4.6 -36.95 1.75 -39.55 -0.5 L-39.75 -1.0 Q-40.65 -3.85 -42.55 -6.7 L-41.1 -6.95 -40.6 -7.1 -40.5 -7.15 Q-37.5 -6.8 -35.15 -8.3 -34.45 -9.65 -34.35 -11.15 L-34.45 -11.6 Q-34.6 -13.3 -35.75 -14.75 L-35.95 -14.9 Q-37.7 -16.5 -38.7 -18.4 L-39.35 -20.5 Q-35.9 -20.65 -32.85 -21.55 L-32.3 -21.85 -29.65 -23.75 -29.4 -24.05 -28.4 -25.2 -28.05 -25.45 Q-27.45 -27.8 -28.2 -29.5 L-29.0 -31.25 -29.35 -31.75 -30.7 -32.95 -30.45 -33.35 -30.45 -33.45 -30.4 -34.3 -30.35 -34.45 -30.2 -35.35 -30.65 -36.7 -30.95 -37.55 -31.45 -38.85 Q-31.9 -39.25 -32.45 -39.3 L-41.0 -39.85 -41.5 -40.1 -41.85 -40.3 Q-41.65 -41.55 -41.95 -42.65 L-42.15 -43.8 -36.65 -43.85 -32.85 -43.85 28.5 -43.9 27.35 -42.85 M-95.3 -43.85 L-94.05 -43.8 -92.7 -43.75 -66.35 -43.75 -66.8 -42.4 -69.9 -38.35 -70.35 -37.55 Q-72.0 -38.3 -73.6 -38.4 L-74.4 -38.5 -75.9 -38.45 -78.5 -38.0 Q-84.35 -39.05 -89.6 -36.1 L-89.7 -36.45 Q-90.0 -37.55 -90.8 -38.5 -91.9 -39.6 -92.3 -40.7 L-92.95 -42.55 Q-93.75 -43.3 -94.75 -43.6 L-95.15 -43.75 -95.3 -43.85" fill="#ffff00" fill-opacity="0.5019608" fill-rule="evenodd" stroke="none"/>
  </g>
</svg>
