<?xml version="1.0" encoding="UTF-8" standalone="no"?>
<svg xmlns:ffdec="https://www.free-decompiler.com/flash" xmlns:xlink="http://www.w3.org/1999/xlink" ffdec:objectType="shape" height="142.15px" width="140.6px" xmlns="http://www.w3.org/2000/svg">
  <g transform="matrix(1.0, 0.0, 0.0, 1.0, 100.45, 121.8)">
    <path d="M24.3 -31.35 L24.25 -31.3 Q23.7 -30.05 22.7 -29.0 L22.75 -27.85 22.9 -26.7 Q24.45 -25.4 26.55 -25.35 29.0 -23.0 30.75 -20.35 L31.15 -19.75 31.15 -18.75 30.75 -18.85 30.0 -18.55 Q28.65 -17.9 28.05 -16.5 L28.0 -15.4 Q27.95 -14.45 28.25 -13.65 29.2 -12.45 30.75 -12.7 33.45 -12.9 34.35 -14.35 L35.5 -13.2 40.15 -8.25 34.8 -6.4 Q33.1 -5.9 31.9 -4.4 L31.9 -2.7 31.85 -1.55 Q31.8 -0.65 32.1 0.2 33.0 0.85 33.2 1.9 L33.6 2.95 Q34.25 4.1 34.2 5.35 L35.1 6.55 35.65 7.7 Q36.15 9.15 35.35 9.6 28.45 6.2 23.45 10.75 L23.35 11.9 23.05 13.05 21.9 14.8 Q22.0 15.75 21.55 16.65 L20.65 18.25 19.4 20.35 17.8 19.1 16.2 16.95 Q14.15 13.4 10.0 13.15 0.5 12.6 -6.15 20.15 L-7.1 20.15 -7.65 19.0 Q-9.55 15.05 -12.45 11.9 -13.35 10.95 -14.5 11.1 -21.35 11.95 -28.0 14.4 L-28.1 12.85 -28.3 11.75 Q-28.6 10.75 -29.35 10.0 L-29.55 9.4 Q-30.05 7.5 -31.6 6.4 L-35.9 3.65 Q-35.15 0.2 -37.25 -2.7 L-41.65 -8.45 Q-36.6 -7.1 -33.0 -9.6 -32.05 -13.3 -34.75 -16.35 -37.35 -19.25 -39.55 -22.3 -32.15 -22.15 -26.5 -25.75 -26.15 -28.2 -27.7 -29.95 -29.05 -31.4 -30.2 -32.2 L-2.55 -32.05 0.0 -32.05 Q12.15 -31.9 24.3 -31.35 M5.4 -121.8 L5.6 -121.65 Q4.4 -118.35 3.7 -115.0 3.15 -112.35 3.65 -109.7 L4.3 -109.3 12.1 -107.4 Q12.4 -107.1 12.75 -107.0 14.85 -106.6 15.95 -105.45 13.8 -103.05 11.2 -101.35 7.5 -98.85 5.8 -95.1 6.9 -92.45 9.15 -90.35 L12.9 -86.45 12.45 -86.1 Q8.6 -85.45 5.0 -84.4 L5.0 -84.9 4.55 -85.4 Q0.8 -88.35 -3.8 -89.5 L-3.85 -89.4 -4.95 -89.15 -5.5 -88.5 -5.75 -88.0 -5.75 -86.25 -5.75 -84.5 -5.25 -83.9 -4.95 -83.35 -4.8 -82.25 -4.2 -80.65 -4.2 -80.5 -4.2 -79.9 -4.3 -78.8 -4.6 -78.0 Q-12.5 -80.8 -19.55 -79.15 L-19.55 -78.0 -19.55 -77.4 -19.55 -76.85 Q-18.15 -75.0 -16.45 -73.7 -13.45 -71.4 -10.95 -68.6 L-11.5 -68.0 -12.6 -66.8 -13.4 -65.7 -13.4 -63.95 -13.45 -62.8 Q-13.55 -61.65 -13.25 -60.5 L-11.5 -60.05 Q-3.35 -60.05 3.3 -63.0 4.75 -61.05 6.4 -59.35 9.2 -56.4 13.6 -58.55 18.55 -61.0 21.15 -58.8 L20.9 -58.25 20.4 -57.65 20.4 -56.5 20.4 -55.9 20.45 -54.75 20.55 -53.6 Q23.05 -51.8 26.15 -51.2 31.35 -50.15 33.85 -48.0 32.15 -45.65 30.0 -44.05 L23.45 -38.8 23.45 -38.25 23.5 -37.1 23.5 -37.0 -0.85 -37.4 -3.4 -37.45 -30.35 -37.55 -30.35 -38.6 -30.35 -40.35 -31.35 -41.0 -41.1 -42.85 Q-40.95 -44.05 -41.45 -45.1 -42.05 -46.45 -41.95 -48.05 L-41.85 -50.35 Q-42.45 -51.55 -43.55 -52.25 -44.6 -52.95 -45.7 -52.75 L-45.7 -53.8 -45.7 -61.85 -46.1 -62.4 Q-46.95 -63.55 -48.4 -63.4 L-48.4 -63.3 -49.15 -63.15 -49.55 -63.0 -57.6 -55.85 -57.9 -56.3 Q-61.65 -61.0 -64.55 -54.85 -67.8 -47.95 -69.9 -40.75 -72.8 -43.25 -76.5 -44.3 -84.45 -46.55 -91.0 -40.15 -90.95 -41.65 -91.75 -42.95 -92.65 -44.3 -92.6 -45.9 L-92.55 -48.8 Q-93.35 -50.3 -94.65 -51.15 -98.25 -53.5 -100.05 -54.0 -99.0 -54.2 -98.25 -54.85 -96.85 -56.1 -96.0 -57.7 -95.2 -59.15 -95.8 -60.7 L-96.65 -61.9 -98.45 -64.45 Q-99.8 -65.95 -100.45 -67.6 -94.1 -67.4 -89.5 -71.05 L-89.5 -72.25 Q-89.45 -75.45 -88.45 -78.55 -87.65 -81.05 -87.95 -83.75 L-86.8 -83.85 -86.4 -83.75 -86.05 -83.35 Q-84.6 -81.5 -82.2 -81.65 -81.2 -80.65 -79.9 -80.3 -77.6 -79.7 -76.05 -81.05 L-75.85 -81.65 Q-74.9 -84.7 -74.95 -88.0 L-74.7 -93.15 -73.05 -94.4 -72.6 -94.9 -72.6 -96.6 -72.6 -97.75 Q-72.55 -98.65 -72.95 -99.5 L-73.75 -100.05 -74.9 -100.65 -74.9 -101.25 -74.9 -101.8 -75.25 -102.4 -75.65 -102.95 -75.65 -103.55 -75.75 -104.1 -76.05 -104.7 -76.25 -104.95 Q-73.5 -104.85 -71.45 -106.4 L-71.0 -107.55 -70.65 -108.15 -70.3 -108.7 -70.3 -112.2 -70.35 -115.05 -70.1 -117.75 -67.5 -113.95 Q-65.95 -111.6 -63.0 -111.05 -62.05 -111.1 -61.45 -111.8 L-60.6 -113.0 -59.15 -115.25 -58.5 -114.35 -57.75 -113.0 Q-57.15 -111.3 -55.3 -111.05 -54.8 -111.2 -54.4 -111.5 L-53.8 -112.0 -53.4 -112.55 -53.4 -113.15 -53.4 -113.7 -53.4 -114.3 Q-53.0 -114.0 -52.55 -113.85 L-50.7 -113.35 Q-50.2 -113.5 -49.75 -113.75 -48.55 -114.3 -47.9 -115.25 -47.0 -116.55 -45.7 -117.15 L-45.7 -116.6 -45.7 -116.0 -45.7 -115.45 -45.3 -114.85 -44.9 -114.3 -44.75 -112.6 -44.4 -111.4 Q-44.05 -110.3 -44.15 -109.1 -42.75 -107.25 -40.7 -107.15 L-38.0 -107.4 -38.0 -106.8 -38.0 -99.3 Q-36.9 -97.2 -34.55 -97.2 L-33.75 -97.75 Q-30.7 -101.1 -28.8 -104.5 L-25.35 -103.35 -24.55 -103.55 -24.2 -103.75 -23.8 -104.1 Q-23.3 -105.2 -23.35 -106.4 L-23.4 -112.45 Q-21.65 -112.8 -19.95 -114.1 L-19.85 -114.5 Q-18.35 -114.7 -17.05 -115.45 L-16.75 -116.05 -14.4 -119.9 Q-13.8 -119.6 -13.1 -119.45 -3.95 -117.35 5.4 -121.8" fill="#ffff00" fill-opacity="0.5019608" fill-rule="evenodd" stroke="none"/>
  </g>
</svg>
