<?xml version="1.0" encoding="UTF-8" standalone="no"?>
<svg xmlns:ffdec="https://www.free-decompiler.com/flash" xmlns:xlink="http://www.w3.org/1999/xlink" ffdec:objectType="shape" height="158.45px" width="115.8px" xmlns="http://www.w3.org/2000/svg">
  <g transform="matrix(1.0, 0.0, 0.0, 1.0, 77.95, 135.8)">
    <path d="M19.6 -122.55 Q19.45 -117.6 19.8 -112.75 28.45 -110.35 34.8 -105.05 28.55 -99.35 21.9 -94.5 L17.7 -94.9 16.95 -94.6 16.15 -94.1 Q15.4 -92.8 15.95 -91.25 17.05 -90.15 18.65 -90.1 L24.8 -86.05 Q20.25 -83.95 15.4 -85.65 11.0 -87.2 8.1 -84.5 L8.1 -83.95 8.1 -82.2 11.15 -77.6 Q2.45 -78.0 -4.95 -74.55 L-5.0 -73.95 Q-5.1 -72.2 -4.8 -70.5 L1.95 -67.4 1.95 -66.85 1.95 -66.25 1.15 -65.1 1.15 -64.55 Q1.05 -62.5 1.35 -60.5 8.35 -58.75 15.0 -60.5 L15.0 -59.95 Q14.85 -57.9 15.2 -55.9 18.95 -54.3 22.7 -55.15 L22.7 -54.55 Q22.8 -53.35 22.5 -52.25 20.7 -50.45 19.6 -48.2 L19.65 -47.65 Q19.75 -46.75 19.4 -45.9 L18.85 -45.35 18.85 -44.75 18.85 -42.45 Q24.9 -38.75 32.1 -36.7 32.55 -35.65 31.7 -34.4 25.0 -32.7 21.45 -27.85 L19.1 -27.9 19.3 -27.3 27.15 -26.95 Q29.85 -26.75 30.3 -24.05 30.7 -21.8 29.7 -20.6 L29.8 -20.55 Q35.25 -17.65 37.85 -13.65 L37.1 -13.05 Q33.5 -13.75 31.15 -11.55 L31.15 -10.95 31.15 -8.65 31.9 -7.5 31.9 -6.9 31.9 -6.35 Q34.95 -2.35 36.5 2.3 30.9 0.85 27.3 5.0 L27.25 5.55 Q26.35 12.3 26.35 19.2 23.35 17.95 20.55 16.15 17.05 11.25 10.1 13.65 7.55 14.55 6.95 17.45 L5.8 18.65 5.8 19.2 5.8 19.8 Q5.0 22.05 3.1 22.65 0.75 18.75 -1.9 15.0 -3.3 13.0 -5.5 12.55 -7.85 12.1 -9.45 13.4 -12.55 15.9 -16.7 17.65 L-19.4 17.45 -20.95 14.05 Q-21.2 13.45 -21.65 13.3 -32.35 9.95 -42.45 8.25 -38.95 4.45 -39.95 -0.4 -42.45 -2.95 -44.15 -6.15 L-33.05 -7.0 Q-32.65 -7.0 -32.25 -7.3 L-32.1 -7.9 Q-31.75 -9.85 -31.85 -11.9 -34.4 -16.15 -37.25 -20.0 L-37.45 -22.3 -35.1 -22.85 -29.25 -22.6 Q-33.25 -24.35 -33.7 -28.9 -33.85 -30.05 -33.0 -30.95 -31.65 -32.35 -29.9 -32.4 L-24.45 -30.5 Q-27.05 -34.35 -30.7 -37.25 -27.55 -40.55 -24.0 -43.2 -22.65 -45.05 -22.65 -47.25 -26.3 -50.15 -31.3 -50.15 -28.9 -53.6 -25.35 -56.5 -23.8 -59.75 -24.2 -63.4 L-25.25 -64.2 Q-30.6 -66.45 -36.45 -65.3 -37.45 -66.45 -37.3 -67.95 -36.75 -74.3 -41.45 -76.45 -44.55 -75.3 -44.6 -72.05 L-45.1 -55.9 -45.65 -55.3 -45.9 -54.95 -47.05 -55.15 Q-52.15 -59.4 -55.7 -52.65 -56.15 -47.7 -58.35 -44.0 L-59.35 -45.5 -60.5 -47.15 Q-64.8 -55.9 -74.9 -55.3 -70.65 -56.5 -67.4 -59.15 -68.6 -65.9 -73.95 -71.25 -76.1 -73.05 -77.95 -75.3 L-73.75 -75.85 Q-73.05 -75.95 -72.7 -76.5 -69.0 -81.45 -70.3 -88.35 L-59.15 -88.75 -59.05 -89.3 Q-59.15 -95.55 -58.0 -101.4 -55.45 -101.35 -54.15 -103.35 -54.1 -108.7 -55.85 -113.7 -57.55 -115.55 -58.75 -117.75 L-58.75 -118.3 Q-58.65 -119.5 -58.95 -120.65 -54.0 -119.6 -49.35 -120.8 L-49.15 -121.4 Q-49.6 -128.65 -49.15 -135.8 -47.65 -135.7 -46.6 -133.8 -42.05 -125.35 -34.15 -128.5 L-32.65 -125.6 -32.65 -125.05 -32.65 -124.45 Q-27.9 -118.5 -23.4 -123.5 -24.45 -125.15 -24.55 -126.4 -23.5 -128.05 -21.9 -128.7 -20.7 -126.0 -21.1 -122.95 -18.95 -119.05 -19.4 -114.3 -13.65 -112.9 -8.05 -116.8 L-8.05 -116.2 Q-8.2 -112.15 -7.85 -108.15 -5.7 -106.25 -3.25 -107.75 -2.55 -108.5 -2.65 -109.5 L-1.3 -110.65 -1.15 -111.2 -0.95 -112.35 Q1.0 -114.75 1.95 -117.55 6.95 -117.25 8.85 -121.8 L8.85 -122.35 8.85 -125.25 Q9.8 -124.3 10.95 -123.7 15.25 -118.8 19.6 -123.15 L19.6 -122.55 M-18.65 -28.55 L-18.7 -28.55 -18.65 -28.55" fill="#ffff00" fill-opacity="0.5019608" fill-rule="evenodd" stroke="none"/>
  </g>
</svg>
