<?xml version="1.0" encoding="UTF-8" standalone="no"?>
<svg xmlns:ffdec="https://www.free-decompiler.com/flash" xmlns:xlink="http://www.w3.org/1999/xlink" ffdec:objectType="shape" height="120.45px" width="85.1px" xmlns="http://www.w3.org/2000/svg">
  <g transform="matrix(1.0, 0.0, 0.0, 1.0, 61.45, 115.75)">
    <path d="M4.8 -106.8 L4.8 -107.35 4.85 -108.5 5.0 -109.65 5.4 -110.25 Q6.25 -111.45 7.7 -111.3 L7.7 -111.4 Q15.95 -111.8 13.35 -104.85 12.4 -102.3 9.6 -102.55 4.1 -93.6 -4.4 -86.95 -5.25 -86.3 -5.4 -85.2 -15.0 -83.2 -24.9 -84.4 -20.5 -76.7 -16.95 -68.6 -14.25 -62.4 -9.15 -58.25 -3.55 -53.6 2.25 -49.25 5.3 -46.9 8.75 -45.05 15.5 -41.45 14.15 -33.0 11.95 -19.55 13.65 -6.15 19.3 -7.65 23.05 -4.15 23.7 -3.55 23.65 -2.65 17.15 3.65 8.1 -0.95 5.95 -16.2 7.55 -31.55 L7.9 -37.9 Q-1.75 -44.6 -10.75 -52.0 -7.0 -42.85 -3.9 -33.25 -3.25 -31.45 -3.15 -29.4 -2.8 -21.45 -10.05 -16.75 -11.3 -15.95 -11.55 -14.4 -16.3 -9.85 -19.4 -4.15 -13.0 -3.3 -8.2 0.7 L-7.9 1.2 Q-9.5 6.4 -15.45 3.9 -17.9 2.9 -20.6 2.9 -24.55 2.95 -27.35 0.6 L-27.5 -0.55 -27.5 -1.15 -27.5 -1.7 -27.5 -2.3 -26.7 -3.4 -25.95 -3.9 Q-24.35 -10.45 -19.0 -15.7 -17.85 -16.8 -16.95 -18.05 L-16.8 -18.65 -16.55 -19.8 Q-15.5 -20.95 -14.05 -21.55 -11.95 -24.65 -9.05 -27.3 L-9.05 -30.2 -9.05 -32.5 -9.45 -33.05 -10.4 -34.25 Q-13.0 -39.9 -14.95 -45.8 L-15.4 -47.5 -16.0 -48.1 -16.55 -48.65 -17.9 -53.4 -18.5 -55.0 Q-20.7 -57.5 -19.15 -60.6 -25.6 -73.6 -33.3 -85.95 -36.25 -83.95 -40.6 -83.55 L-43.0 -83.0 Q-47.5 -81.45 -51.75 -79.25 -51.65 -77.7 -52.05 -76.25 L-53.3 -71.75 -52.65 -70.65 Q-51.3 -68.8 -51.0 -66.55 -55.35 -59.2 -60.8 -65.55 -61.8 -66.75 -61.25 -68.25 -58.6 -75.5 -56.4 -82.9 -56.0 -84.25 -54.5 -84.95 -46.15 -88.75 -37.7 -91.4 L-36.9 -91.6 -37.4 -92.8 Q-38.65 -93.8 -40.55 -94.45 L-41.9 -95.6 Q-45.35 -99.05 -45.35 -103.95 -45.35 -108.85 -41.9 -112.3 -38.45 -115.75 -33.55 -115.75 -28.65 -115.75 -25.2 -112.3 -21.75 -108.85 -21.75 -103.95 -21.75 -99.05 -25.2 -95.6 -27.45 -93.35 -30.25 -92.6 L-27.55 -92.15 Q-22.5 -90.6 -17.1 -90.4 L-10.0 -90.25 Q-6.25 -92.75 -3.35 -96.15 -2.9 -96.65 -2.1 -96.95 0.8 -100.55 3.1 -104.55 L4.8 -106.8" fill="#000000" fill-rule="evenodd" stroke="none"/>
  </g>
</svg>
