<?xml version="1.0" encoding="UTF-8" standalone="no"?>
<svg xmlns:ffdec="https://www.free-decompiler.com/flash" xmlns:xlink="http://www.w3.org/1999/xlink" ffdec:objectType="shape" height="159.35px" width="108.35px" xmlns="http://www.w3.org/2000/svg">
  <g transform="matrix(1.0, 0.0, 0.0, 1.0, 54.15, 137.85)">
    <path d="M1.75 -131.95 L2.0 -130.25 1.95 -126.2 Q6.8 -123.25 12.7 -122.8 L12.7 -122.35 12.7 -120.05 12.8 -117.2 12.9 -116.6 13.5 -116.1 14.7 -115.15 15.0 -114.65 Q13.85 -113.05 12.2 -111.95 10.2 -110.55 8.5 -108.7 L8.1 -108.15 8.1 -107.0 8.15 -106.4 8.3 -105.85 Q10.05 -104.55 12.35 -104.5 18.65 -104.2 24.8 -105.85 25.55 -104.3 26.6 -103.0 31.2 -97.25 35.65 -103.7 38.4 -107.7 42.65 -109.7 L42.65 -108.55 42.75 -106.25 Q42.85 -104.65 43.8 -103.35 L44.2 -102.75 44.2 -102.2 44.2 -101.6 Q47.3 -97.45 53.1 -99.55 L53.4 -99.5 Q52.75 -97.1 51.1 -95.05 49.05 -92.45 49.4 -89.1 L49.6 -86.25 50.0 -85.7 Q51.3 -84.35 53.05 -83.55 L54.2 -83.0 51.5 -82.5 Q49.8 -82.15 48.5 -81.0 L48.05 -80.5 48.05 -79.9 48.05 -75.3 47.85 -71.3 47.65 -70.7 45.95 -70.5 Q41.6 -72.05 37.65 -74.15 34.5 -75.85 32.65 -72.8 L32.65 -71.65 32.65 -71.1 32.5 -70.5 Q31.35 -70.6 30.5 -71.15 26.55 -73.95 22.55 -72.7 20.3 -72.0 19.6 -69.75 L19.6 -68.6 19.6 -67.4 19.6 -66.85 20.0 -66.2 20.0 -65.7 19.7 -65.1 19.6 -64.55 19.6 -63.95 18.55 -62.95 Q16.2 -61.15 13.1 -60.8 L12.7 -60.7 12.35 -60.3 12.0 -59.7 11.95 -59.15 Q12.25 -57.55 13.4 -56.45 15.8 -54.1 18.55 -52.25 L19.6 -51.3 19.1 -50.1 18.9 -49.0 18.85 -46.1 18.85 -45.55 Q21.7 -42.55 26.15 -41.85 L29.8 -41.3 30.4 -40.8 31.75 -39.8 31.9 -39.4 Q32.15 -38.0 30.95 -37.4 29.25 -36.55 27.85 -35.15 L27.3 -34.6 27.3 -34.0 27.3 -33.45 27.3 -32.85 27.3 -30.55 27.3 -29.95 27.85 -29.4 Q29.3 -27.8 31.1 -26.8 L31.7 -26.3 Q30.1 -24.95 28.05 -24.3 24.5 -23.2 23.05 -20.1 22.55 -19.05 22.7 -17.85 25.9 -14.6 30.75 -13.95 33.3 -13.6 34.2 -11.9 L33.45 -10.75 31.4 -7.8 31.15 -7.3 31.15 -6.15 31.15 -4.4 31.15 -3.85 Q34.35 -0.75 38.45 1.1 40.9 2.2 42.45 4.05 41.2 4.35 40.15 4.95 38.05 6.15 35.8 7.0 L35.35 7.3 35.05 7.9 35.0 8.45 35.0 10.75 35.0 11.35 35.4 11.9 35.65 12.5 35.35 12.65 Q30.15 9.9 25.8 12.4 L25.2 12.85 25.05 13.45 25.0 14.0 24.25 14.6 23.65 15.15 23.5 15.75 23.45 16.3 22.7 16.9 21.15 16.9 Q19.95 15.65 18.3 15.1 L16.9 14.6 Q11.4 8.95 7.25 15.45 L5.0 19.2 4.25 19.25 3.85 19.0 2.25 18.2 Q1.35 17.85 0.4 17.65 L-1.5 15.9 Q-4.95 13.35 -8.7 14.25 -9.2 14.4 -9.6 15.0 L-9.6 15.55 -9.65 16.1 -9.95 16.7 -10.7 17.35 -11.1 17.85 -11.1 18.45 -11.1 19.0 -11.55 19.5 Q-12.45 20.25 -12.95 21.25 L-13.25 21.5 -14.2 21.1 -14.95 19.95 -17.0 17.05 -17.25 16.5 Q-17.0 14.2 -19.15 13.7 -23.0 12.8 -26.9 15.15 -31.45 17.9 -36.45 19.2 -36.45 18.2 -35.8 17.4 -35.0 16.4 -34.95 15.15 -34.9 13.45 -33.7 12.2 L-33.4 11.7 Q-33.6 11.15 -33.95 10.7 L-34.15 10.45 -34.15 10.35 -34.6 9.85 Q-35.3 9.3 -36.1 8.85 -41.8 10.15 -46.85 7.5 -41.75 4.1 -35.3 1.15 L-35.05 0.0 -34.95 -1.15 -42.05 -6.75 Q-35.35 -10.5 -29.0 -14.6 L-28.85 -15.75 -28.8 -18.05 Q-33.25 -20.5 -35.3 -22.85 -29.2 -24.55 -24.2 -28.05 L-24.2 -29.8 -24.2 -32.65 -24.6 -33.2 Q-25.45 -34.0 -26.5 -34.6 L-26.7 -35.15 -27.05 -36.3 Q-24.35 -37.45 -21.5 -38.25 -19.75 -39.75 -18.25 -41.5 -18.15 -42.05 -18.2 -42.65 -18.45 -45.1 -19.2 -46.7 L-18.4 -48.45 Q-17.9 -50.1 -18.05 -51.85 -20.4 -55.0 -24.95 -53.8 L-25.6 -54.45 -25.7 -54.95 -25.7 -56.65 -25.7 -59.55 Q-26.2 -60.15 -26.7 -60.15 -31.95 -60.3 -37.25 -57.65 L-37.75 -58.25 -38.0 -58.8 -37.95 -61.65 Q-37.9 -63.15 -38.65 -64.2 -42.65 -69.7 -47.8 -62.6 -48.15 -64.05 -48.05 -65.7 -47.75 -70.4 -48.75 -74.9 -50.6 -77.5 -54.15 -76.85 L-53.0 -78.0 Q-48.45 -82.35 -50.3 -87.8 -41.55 -87.15 -36.45 -93.35 L-36.45 -94.5 Q-36.3 -96.0 -36.85 -97.4 -33.2 -99.75 -29.95 -102.55 L-29.75 -103.15 Q-29.0 -104.9 -27.45 -106.05 L-27.35 -106.6 Q-27.45 -111.0 -32.25 -112.55 L-31.7 -113.15 -31.3 -113.7 -31.15 -114.3 -31.05 -114.85 -30.9 -115.45 -30.0 -116.65 Q-28.35 -118.9 -28.8 -121.8 L-31.65 -123.9 -31.15 -124.5 -30.35 -125.6 -30.3 -126.75 Q-30.2 -127.95 -30.5 -129.1 L-30.9 -129.65 -31.85 -130.8 -31.9 -131.4 -32.05 -131.95 -32.25 -132.55 -32.95 -133.15 -33.4 -133.7 -33.45 -134.25 -34.15 -137.15 Q-32.05 -137.2 -28.8 -136.0 L-25.4 -132.8 Q-19.15 -127.4 -13.6 -131.4 L-13.0 -133.0 Q-11.8 -135.25 -11.5 -137.7 L-11.1 -137.85 Q-10.3 -137.35 -9.95 -136.4 L-9.2 -135.8 Q-5.95 -127.3 1.75 -131.95" fill="#ffff00" fill-opacity="0.5019608" fill-rule="evenodd" stroke="none"/>
  </g>
</svg>
