<?xml version="1.0" encoding="UTF-8" standalone="no"?>
<svg xmlns:ffdec="https://www.free-decompiler.com/flash" xmlns:xlink="http://www.w3.org/1999/xlink" ffdec:objectType="shape" height="128.85px" width="78.1px" xmlns="http://www.w3.org/2000/svg">
  <g transform="matrix(1.0, 0.0, 0.0, 1.0, 28.55, 126.05)">
    <path d="M6.1 -122.6 Q9.55 -126.05 14.45 -126.05 19.35 -126.05 22.8 -122.6 26.25 -119.15 26.25 -114.25 26.25 -109.35 22.8 -105.9 19.4 -102.5 14.65 -102.45 L14.9 -101.75 15.2 -100.05 15.2 -99.5 Q16.95 -96.65 18.0 -93.4 L18.2 -93.45 19.1 -93.6 19.1 -93.7 Q22.25 -93.65 23.9 -91.05 L24.15 -90.55 23.85 -89.75 24.1 -88.85 24.15 -88.3 Q22.7 -86.4 20.85 -85.0 L21.85 -81.05 21.9 -79.35 21.95 -79.35 Q23.65 -81.2 26.3 -82.65 30.85 -85.1 34.55 -89.1 L36.9 -91.7 Q38.3 -94.35 40.55 -96.55 39.6 -98.55 41.7 -101.45 42.6 -102.65 43.75 -102.7 49.5 -102.45 49.15 -98.9 L49.5 -97.8 49.55 -97.25 47.85 -95.55 46.45 -94.15 44.85 -92.45 Q44.45 -90.75 42.1 -88.7 37.3 -84.65 34.05 -79.5 27.75 -75.3 21.05 -72.45 L20.15 -72.35 18.75 -71.1 18.95 -72.2 18.75 -72.4 18.6 -73.0 18.35 -74.1 Q15.8 -77.8 15.15 -82.25 L14.05 -81.95 8.6 -78.7 Q7.15 -70.3 6.05 -61.8 5.85 -60.15 4.75 -58.95 L4.75 -57.5 Q6.65 -55.85 7.9 -53.2 L8.45 -52.5 Q12.0 -46.65 17.0 -41.6 L17.7 -40.95 Q25.7 -29.2 18.0 -16.95 15.95 -13.65 15.15 -9.75 14.3 -5.75 12.15 -2.95 L21.4 -2.95 23.2 -2.0 Q24.2 -1.35 24.15 -0.15 23.55 2.05 21.35 2.05 L9.65 1.45 Q8.95 1.35 8.3 0.8 L8.3 -0.4 Q7.25 -0.8 6.55 -1.7 8.15 -12.45 12.4 -22.75 13.45 -25.2 15.4 -27.1 15.55 -35.4 9.1 -41.6 6.4 -44.25 4.15 -47.1 L4.05 -46.65 Q1.3 -34.6 -2.3 -22.85 -2.95 -22.25 -3.6 -22.0 L-9.55 -14.3 -10.2 -13.65 Q-13.9 -7.2 -19.55 -2.95 L-10.8 -2.35 Q-8.0 -2.1 -8.0 0.6 -8.6 2.8 -10.8 2.8 L-25.5 2.1 Q-28.7 1.8 -28.55 -1.25 L-27.3 -2.95 -27.05 -2.95 Q-26.2 -6.15 -22.7 -8.4 -21.25 -9.3 -20.25 -10.75 -14.1 -19.4 -6.95 -25.95 -5.9 -33.0 -3.95 -40.0 -1.95 -47.15 -0.8 -54.6 L-0.85 -54.6 -0.8 -54.65 -0.8 -55.0 -2.1 -57.7 Q-1.8 -58.65 -0.9 -59.15 L-0.9 -61.0 -0.1 -62.1 0.45 -62.7 Q1.3 -69.15 2.3 -75.55 -4.05 -72.75 -10.8 -70.9 -12.4 -71.15 -13.4 -72.4 L-13.5 -73.55 -13.6 -75.2 Q-3.9 -88.85 6.85 -102.1 L6.95 -102.5 7.05 -103.1 7.55 -104.65 6.1 -105.9 Q2.65 -109.35 2.65 -114.25 2.65 -119.15 6.1 -122.6 M11.45 -93.25 L10.05 -86.35 13.4 -88.1 Q12.35 -90.65 11.45 -93.25 M3.45 -82.95 L4.55 -89.55 -2.55 -80.2 Q-0.3 -80.95 1.85 -82.1 L3.45 -82.95" fill="#000000" fill-rule="evenodd" stroke="none"/>
  </g>
</svg>
