<?xml version="1.0" encoding="UTF-8" standalone="no"?>
<svg xmlns:ffdec="https://www.free-decompiler.com/flash" xmlns:xlink="http://www.w3.org/1999/xlink" ffdec:objectType="shape" height="121.35px" width="78.1px" xmlns="http://www.w3.org/2000/svg">
  <g transform="matrix(1.0, 0.0, 0.0, 1.0, 28.55, 118.55)">
    <path d="M6.1 -115.1 Q9.55 -118.55 14.45 -118.55 19.35 -118.55 22.8 -115.1 26.25 -111.65 26.25 -106.75 26.25 -101.85 22.8 -98.4 19.4 -95.0 14.65 -94.95 L14.9 -94.25 15.2 -92.55 15.2 -92.0 Q16.95 -89.15 18.0 -85.9 L18.2 -85.95 19.1 -86.1 19.1 -86.2 Q22.25 -86.15 23.9 -83.55 L24.15 -83.05 23.85 -82.25 24.1 -81.35 24.15 -80.8 Q22.7 -78.9 20.85 -77.5 L21.85 -73.55 21.9 -71.85 21.95 -71.85 Q23.65 -73.7 26.3 -75.15 30.85 -77.6 34.55 -81.6 L36.9 -84.2 Q38.3 -86.85 40.55 -89.05 39.6 -91.05 41.7 -93.95 42.6 -95.15 43.75 -95.2 49.5 -94.95 49.15 -91.4 L49.5 -90.3 49.55 -89.75 47.85 -88.05 46.45 -86.65 44.85 -84.95 Q44.45 -83.25 42.1 -81.2 37.3 -77.15 34.05 -72.0 27.75 -67.8 21.05 -64.95 L20.15 -64.85 18.75 -63.6 18.95 -64.7 18.75 -64.9 18.6 -65.5 18.35 -66.6 Q15.8 -70.3 15.15 -74.75 L14.05 -74.45 8.6 -71.2 Q7.15 -62.8 6.05 -54.3 L5.95 -53.75 Q10.0 -51.65 12.95 -47.65 18.6 -39.9 24.5 -32.5 28.75 -27.2 23.9 -22.05 L22.55 -20.7 Q21.65 -19.8 20.6 -19.05 20.3 -17.65 19.55 -16.5 18.85 -15.55 18.45 -14.4 L17.75 -13.8 16.75 -12.7 16.5 -11.55 Q16.25 -10.45 15.4 -9.8 15.1 -8.95 14.95 -8.1 14.75 -6.7 13.65 -5.75 L13.55 -5.25 13.6 -5.25 13.55 -5.1 Q13.2 -3.7 12.45 -2.95 L21.4 -2.95 23.2 -2.0 Q24.2 -1.35 24.15 -0.15 23.55 2.05 21.35 2.05 L9.65 1.45 Q8.95 1.35 8.3 0.8 L8.3 -0.4 Q7.25 -0.8 6.55 -1.7 L7.15 -5.25 7.25 -5.25 7.4 -6.05 8.1 -9.0 8.65 -9.6 9.25 -10.15 Q11.65 -18.6 17.7 -25.35 L20.2 -28.65 Q13.35 -37.9 5.2 -45.85 3.15 -32.6 -2.4 -20.3 -2.7 -19.6 -3.3 -19.05 -8.1 -13.85 -13.4 -8.55 -15.25 -6.7 -17.3 -5.25 L-16.8 -5.25 -19.55 -2.95 -10.8 -2.35 Q-8.0 -2.1 -8.0 0.6 -8.6 2.8 -10.8 2.8 L-25.5 2.1 Q-28.7 1.8 -28.55 -1.25 L-27.3 -2.95 -27.05 -2.95 -26.7 -3.95 -26.75 -5.35 -9.25 -20.95 Q-1.8 -34.3 -1.35 -49.8 L-1.3 -50.1 -2.05 -50.1 -2.1 -50.2 Q-1.85 -51.05 -1.1 -51.55 L-0.9 -52.2 -0.9 -53.5 -0.1 -54.6 0.45 -55.2 Q1.3 -61.65 2.3 -68.05 -4.05 -65.25 -10.8 -63.4 -12.4 -63.65 -13.4 -64.9 L-13.5 -66.05 -13.6 -67.7 Q-3.9 -81.35 6.85 -94.6 L6.95 -95.0 7.05 -95.6 7.55 -97.15 6.1 -98.4 Q2.65 -101.85 2.65 -106.75 2.65 -111.65 6.1 -115.1 M3.45 -75.45 L4.55 -82.05 -2.55 -72.7 Q-0.3 -73.45 1.85 -74.6 L3.45 -75.45 M11.45 -85.75 L10.05 -78.85 13.4 -80.6 Q12.35 -83.15 11.45 -85.75" fill="#000000" fill-rule="evenodd" stroke="none"/>
  </g>
</svg>
