<?xml version="1.0" encoding="UTF-8" standalone="no"?>
<svg xmlns:ffdec="https://www.free-decompiler.com/flash" xmlns:xlink="http://www.w3.org/1999/xlink" ffdec:objectType="shape" height="118.35px" width="78.1px" xmlns="http://www.w3.org/2000/svg">
  <g transform="matrix(1.0, 0.0, 0.0, 1.0, 28.55, 115.55)">
    <path d="M6.1 -112.1 Q9.55 -115.55 14.45 -115.55 19.35 -115.55 22.8 -112.1 26.25 -108.65 26.25 -103.75 26.25 -98.85 22.8 -95.4 19.4 -92.0 14.65 -91.95 L14.9 -91.25 15.2 -89.55 15.2 -89.0 Q16.95 -86.15 18.0 -82.9 L18.2 -82.95 19.1 -83.1 19.1 -83.2 Q22.25 -83.15 23.9 -80.55 L24.15 -80.05 23.85 -79.25 24.1 -78.35 24.15 -77.8 Q22.7 -75.9 20.85 -74.5 L21.85 -70.55 21.9 -68.85 21.95 -68.85 Q23.65 -70.7 26.3 -72.15 30.85 -74.6 34.55 -78.6 L36.9 -81.2 Q38.3 -83.85 40.55 -86.05 39.6 -88.05 41.7 -90.95 42.6 -92.15 43.75 -92.2 49.5 -91.95 49.15 -88.4 L49.5 -87.3 49.55 -86.75 47.85 -85.05 46.45 -83.65 44.85 -81.95 Q44.45 -80.25 42.1 -78.2 37.3 -74.15 34.05 -69.0 27.75 -64.8 21.05 -61.95 L20.15 -61.85 18.75 -60.6 18.95 -61.7 18.75 -61.9 18.6 -62.5 18.35 -63.6 Q15.8 -67.3 15.15 -71.75 L14.05 -71.45 8.6 -68.2 6.55 -55.05 Q17.95 -50.45 24.5 -39.5 L29.25 -30.85 Q30.2 -28.85 28.7 -27.3 23.35 -21.75 19.05 -15.55 17.9 -12.5 15.95 -9.65 L13.65 -6.35 Q13.3 -4.3 12.05 -2.95 L21.4 -2.95 23.2 -2.0 Q24.2 -1.35 24.15 -0.15 23.55 2.05 21.35 2.05 L9.65 1.45 Q8.95 1.35 8.3 0.8 L8.3 -0.4 Q7.25 -0.8 6.55 -1.7 L6.65 -2.35 6.55 -2.5 Q6.45 -7.85 9.7 -12.35 L13.25 -17.5 Q15.35 -22.45 19.3 -26.65 L22.5 -29.6 Q17.15 -40.95 6.85 -48.5 7.75 -46.2 7.25 -43.0 L5.7 -33.2 Q4.85 -27.85 2.1 -23.45 L1.1 -19.4 0.75 -18.25 -0.25 -17.0 -0.75 -15.95 -19.5 -2.95 -10.8 -2.35 Q-8.0 -2.1 -8.0 0.6 -8.6 2.8 -10.8 2.8 L-25.5 2.1 Q-28.7 1.8 -28.55 -1.25 L-27.45 -2.7 -27.5 -3.8 -4.45 -22.1 Q-4.45 -23.4 -3.95 -24.55 -3.65 -25.3 -3.65 -26.15 L-3.4 -26.65 -2.3 -27.9 Q0.7 -38.25 1.05 -49.25 L1.1 -50.0 -0.9 -50.0 -0.9 -50.5 -0.1 -51.6 0.45 -52.2 Q1.3 -58.65 2.3 -65.05 -4.05 -62.25 -10.8 -60.4 -12.4 -60.65 -13.4 -61.9 L-13.5 -63.05 -13.6 -64.7 Q-3.9 -78.35 6.85 -91.6 L6.95 -92.0 7.05 -92.6 7.55 -94.15 6.1 -95.4 Q2.65 -98.85 2.65 -103.75 2.65 -108.65 6.1 -112.1 M11.45 -82.75 L10.05 -75.85 13.4 -77.6 Q12.35 -80.15 11.45 -82.75 M3.45 -72.45 L4.55 -79.05 -2.55 -69.7 Q-0.3 -70.45 1.85 -71.6 L3.45 -72.45" fill="#000000" fill-rule="evenodd" stroke="none"/>
  </g>
</svg>
