<?xml version="1.0" encoding="UTF-8" standalone="no"?>
<svg xmlns:ffdec="https://www.free-decompiler.com/flash" xmlns:xlink="http://www.w3.org/1999/xlink" ffdec:objectType="shape" height="151.35px" width="108.35px" xmlns="http://www.w3.org/2000/svg">
  <g transform="matrix(1.0, 0.0, 0.0, 1.0, 41.2, 132.5)">
    <path d="M20.35 -132.45 L20.65 -131.65 21.35 -130.8 21.35 -130.5 21.45 -129.35 Q22.05 -129.0 22.1 -128.5 L22.1 -127.9 22.1 -126.45 22.3 -126.15 22.5 -125.9 Q22.35 -125.1 22.5 -124.4 L23.0 -120.1 23.5 -119.5 Q24.1 -118.8 24.15 -117.8 L25.0 -117.35 25.35 -117.45 25.75 -117.7 25.85 -118.0 Q26.3 -118.85 27.1 -119.45 L39.0 -122.6 39.0 -122.35 Q38.8 -121.3 37.85 -120.6 L37.85 -120.3 37.75 -119.75 36.85 -118.6 Q35.85 -116.45 35.85 -114.0 L31.35 -108.2 31.3 -107.95 Q31.25 -107.45 31.45 -107.05 31.85 -106.8 32.3 -106.8 L40.05 -106.4 Q36.4 -103.15 34.0 -99.3 L34.35 -99.0 Q42.9 -100.3 50.75 -104.85 L51.7 -104.55 51.55 -103.1 Q51.15 -101.25 51.4 -99.4 L51.7 -99.15 Q52.65 -98.6 53.4 -99.3 L53.5 -99.55 53.6 -99.85 Q56.5 -103.1 60.55 -104.2 L60.55 -103.9 60.55 -103.3 60.2 -102.7 Q58.85 -99.95 57.05 -97.55 L57.05 -97.0 Q56.95 -95.65 55.9 -94.65 L55.9 -94.4 56.0 -93.25 Q56.45 -93.0 56.85 -93.05 62.3 -93.55 67.15 -91.5 L66.6 -90.9 64.85 -89.75 Q59.9 -88.0 57.05 -84.4 59.45 -81.25 62.75 -78.35 L58.8 -78.55 Q55.75 -78.75 54.4 -76.05 L54.4 -74.9 54.4 -72.3 54.75 -71.7 55.15 -70.3 47.7 -69.7 Q46.15 -69.5 44.8 -68.75 L44.75 -67.3 Q44.55 -63.5 47.0 -60.65 L47.15 -60.15 Q47.5 -59.3 47.45 -58.35 L42.6 -58.6 39.35 -59.35 Q34.7 -60.45 30.55 -58.75 L30.55 -58.2 30.65 -56.75 30.95 -56.45 Q31.65 -55.9 31.7 -55.0 L31.95 -54.75 Q33.4 -53.2 33.85 -51.65 L28.65 -50.7 28.45 -50.5 27.5 -49.35 27.5 -49.05 27.6 -47.9 32.4 -46.15 32.55 -45.95 32.85 -45.4 32.7 -45.1 32.5 -44.85 32.45 -43.95 Q32.4 -43.25 32.6 -42.5 L44.7 -41.35 Q42.9 -39.55 40.55 -38.8 37.75 -37.85 37.1 -35.5 37.9 -34.4 39.5 -34.45 40.05 -33.9 40.85 -33.9 41.35 -33.25 42.2 -33.1 L45.15 -30.35 44.0 -29.15 Q38.4 -29.4 33.65 -27.25 L33.6 -26.7 Q33.55 -25.95 33.75 -25.25 36.45 -23.2 38.05 -20.9 33.85 -19.65 30.75 -17.15 29.9 -16.8 29.4 -16.0 L29.4 -15.75 29.5 -14.85 30.75 -14.35 Q37.35 -12.6 42.35 -8.05 37.25 -7.5 33.25 -4.9 L33.25 -4.6 33.35 -3.7 Q37.25 -1.6 40.65 1.35 L40.85 1.65 41.7 2.8 41.7 3.1 41.6 3.65 40.5 4.15 Q35.4 5.8 31.25 8.95 27.95 9.4 26.55 12.6 L26.25 12.95 25.1 14.45 Q23.3 11.8 20.55 10.5 18.95 8.7 17.1 10.0 L17.1 10.3 17.1 11.45 16.75 12.05 Q15.55 14.25 13.95 15.75 12.05 14.1 10.3 12.05 7.4 8.7 5.2 11.95 L5.2 12.2 5.1 12.8 Q2.65 16.15 -0.55 18.85 L-1.35 16.5 Q-1.75 15.55 -2.7 15.45 -10.3 14.5 -17.05 18.1 L-17.4 18.0 -17.45 17.8 Q-17.05 17.3 -17.05 16.65 L-17.05 14.05 Q-22.8 11.0 -29.85 11.95 L-29.25 11.3 Q-28.45 10.3 -28.6 9.05 -34.35 5.0 -41.1 2.8 L-36.75 -0.35 -36.7 -0.95 -36.65 -2.1 -36.85 -2.4 Q-38.15 -5.25 -40.4 -7.3 L-40.5 -7.55 -41.2 -8.7 Q-37.15 -7.45 -33.1 -7.75 -32.65 -8.7 -32.8 -9.8 -33.3 -13.9 -33.2 -18.15 L-32.8 -18.15 Q-31.0 -16.5 -28.8 -15.85 -26.8 -14.15 -24.55 -15.15 -24.25 -16.25 -24.3 -17.45 -24.6 -22.45 -24.1 -27.25 L-17.05 -27.45 Q-17.55 -29.55 -19.7 -30.65 -21.65 -31.65 -22.25 -32.9 L-19.75 -34.55 Q-18.35 -34.4 -17.45 -35.3 -15.1 -35.45 -13.4 -37.05 L-13.3 -37.35 Q-13.15 -37.75 -13.25 -38.2 L-17.95 -42.25 Q-17.7 -42.95 -17.0 -43.25 -11.4 -46.0 -6.7 -49.75 L-6.7 -50.0 -6.7 -50.9 -7.25 -51.25 -16.4 -53.4 -16.7 -53.65 -16.75 -56.85 -16.95 -57.2 Q-21.45 -59.25 -26.4 -60.4 -25.6 -60.75 -24.35 -61.85 -22.5 -61.65 -21.7 -63.15 L-21.7 -63.45 -21.7 -64.3 Q-24.5 -66.7 -26.6 -69.8 L-23.1 -69.1 -21.2 -68.55 Q-18.1 -67.25 -16.3 -69.3 -16.3 -70.05 -16.55 -70.65 -18.45 -74.8 -19.4 -79.1 L-14.45 -78.7 -8.9 -78.45 Q-8.4 -79.1 -8.75 -79.85 -10.45 -83.85 -11.8 -87.95 L-7.35 -88.05 Q-7.05 -88.4 -7.05 -88.9 L-7.2 -90.65 Q-9.35 -92.25 -9.95 -94.4 L-5.15 -97.35 -5.1 -97.9 Q-4.8 -98.75 -4.8 -99.65 L-4.95 -99.95 Q-5.65 -101.8 -7.3 -102.85 -7.6 -103.65 -8.45 -104.0 -9.3 -105.2 -10.75 -106.0 L-4.25 -106.6 Q-3.6 -106.7 -3.25 -107.35 L-3.45 -108.4 Q-6.15 -115.2 -10.15 -121.35 L-8.65 -120.65 -3.8 -117.65 Q-0.95 -115.75 1.95 -116.2 L2.55 -117.65 Q4.1 -120.85 4.05 -124.55 5.2 -123.75 6.2 -122.6 8.55 -119.9 11.75 -120.2 L11.9 -120.45 Q15.6 -126.8 20.2 -132.5 L20.35 -132.45" fill="#ffff00" fill-opacity="0.5019608" fill-rule="evenodd" stroke="none"/>
  </g>
</svg>
