<?xml version="1.0" encoding="UTF-8" standalone="no"?>
<svg xmlns:ffdec="https://www.free-decompiler.com/flash" xmlns:xlink="http://www.w3.org/1999/xlink" ffdec:objectType="shape" height="156.05px" width="116.4px" xmlns="http://www.w3.org/2000/svg">
  <g transform="matrix(1.0, 0.0, 0.0, 1.0, 40.5, 140.0)">
    <path d="M25.2 -138.1 L25.2 -137.2 Q25.1 -133.45 25.3 -129.75 L26.15 -129.45 28.75 -129.35 37.0 -129.15 36.5 -128.0 35.95 -127.4 Q35.6 -125.4 34.0 -123.95 L33.25 -121.95 33.7 -121.6 Q38.5 -120.75 42.55 -119.55 40.5 -117.7 38.1 -116.3 34.1 -114.05 33.75 -110.15 L41.7 -109.75 41.7 -109.45 41.6 -107.45 41.3 -107.15 41.3 -106.85 41.4 -105.15 Q42.05 -104.45 42.85 -104.95 46.9 -107.45 50.15 -110.7 50.25 -109.75 50.9 -109.0 L50.9 -108.7 51.0 -105.5 Q51.85 -104.75 52.9 -105.3 L62.45 -110.05 62.45 -108.3 Q62.5 -103.75 62.15 -99.4 L63.0 -98.9 Q69.15 -102.05 75.5 -101.8 74.0 -100.65 73.3 -99.0 70.45 -96.6 69.0 -93.5 L75.9 -88.7 Q70.65 -89.05 66.65 -86.3 L66.7 -86.05 66.6 -85.15 Q66.1 -84.65 66.15 -84.05 66.35 -80.8 65.25 -78.55 62.9 -79.6 60.65 -80.7 55.4 -83.3 53.15 -78.5 51.85 -75.8 49.85 -74.4 49.05 -76.55 47.85 -78.45 46.3 -81.45 43.9 -78.45 L39.1 -75.35 Q37.35 -73.95 35.95 -74.0 35.0 -76.7 34.3 -79.5 L33.65 -80.35 Q32.3 -83.3 29.8 -80.65 28.6 -77.95 26.7 -75.75 L25.65 -77.2 Q25.65 -79.55 23.85 -80.85 L23.2 -80.4 Q21.9 -77.7 20.95 -74.7 L20.95 -74.4 21.05 -70.95 Q22.5 -70.15 23.55 -68.75 20.8 -68.5 19.4 -66.45 L19.4 -66.15 19.4 -65.0 Q20.6 -63.55 22.4 -63.1 23.0 -62.35 23.95 -62.3 L25.95 -61.05 25.5 -60.7 Q21.85 -59.75 22.2 -56.35 25.7 -54.8 29.55 -54.2 31.85 -53.9 32.4 -53.3 29.1 -51.95 26.35 -49.8 L26.3 -49.55 Q26.3 -49.1 26.45 -48.65 L27.35 -48.3 Q33.55 -46.5 39.3 -43.5 L33.25 -39.45 33.25 -39.15 33.35 -38.3 Q39.3 -36.2 43.05 -31.65 39.05 -28.9 35.85 -25.35 34.25 -24.9 34.0 -23.6 35.45 -22.0 37.85 -21.7 41.35 -21.3 43.15 -19.75 37.0 -16.85 30.0 -16.65 29.2 -16.65 29.05 -15.9 L29.0 -15.65 29.1 -14.5 Q34.1 -10.25 37.5 -4.95 38.15 -4.55 38.25 -3.8 34.35 -4.1 30.4 -3.75 29.4 -3.65 29.05 -2.65 L29.05 -2.1 Q29.25 1.95 30.55 5.7 L31.6 7.15 Q28.15 5.45 24.4 5.8 L20.95 8.2 20.85 9.05 17.5 13.1 15.85 13.0 Q14.25 9.8 11.9 7.05 9.7 4.45 7.5 6.0 L7.5 6.25 7.5 6.85 Q5.85 8.6 5.2 10.85 4.65 11.15 4.45 11.75 L4.45 12.05 4.45 12.9 Q3.5 11.65 1.95 10.85 1.45 9.8 0.2 9.7 -3.35 9.35 -3.35 13.2 L-3.9 13.75 Q-4.2 15.15 -5.45 16.05 L-6.1 15.95 Q-7.9 13.55 -10.05 11.35 -10.35 11.05 -10.65 11.05 -16.75 10.8 -22.05 10.85 -21.8 9.25 -22.75 8.15 -27.2 2.85 -33.6 -0.35 -31.05 -0.2 -29.45 -1.9 L-29.45 -2.45 Q-29.75 -4.25 -31.1 -5.8 -35.6 -10.95 -40.5 -15.75 L-34.65 -16.45 Q-33.3 -16.7 -32.45 -17.85 L-32.5 -19.55 -33.6 -29.1 -28.2 -23.1 -28.1 -22.55 Q-26.5 -20.95 -25.15 -22.45 L-25.1 -23.3 -25.05 -24.75 Q-25.1 -30.05 -24.2 -35.15 L-23.8 -35.15 Q-20.75 -31.6 -16.9 -29.55 -15.45 -27.6 -13.4 -28.6 L-13.35 -29.15 -13.6 -36.1 Q-11.0 -35.45 -8.9 -36.55 -8.3 -37.45 -8.9 -38.3 L-9.4 -38.6 -15.15 -44.9 Q-11.05 -46.7 -6.5 -47.4 L-6.45 -47.7 Q-6.25 -48.7 -6.3 -49.75 -9.0 -52.0 -11.3 -54.45 -11.1 -55.05 -10.3 -55.4 L-9.3 -55.85 Q-5.45 -57.75 -5.15 -61.65 L-5.7 -62.0 Q-13.0 -63.5 -20.15 -64.05 L-20.1 -69.8 Q-20.1 -70.4 -20.45 -70.65 -23.85 -73.15 -28.7 -73.25 -27.55 -73.9 -26.65 -74.85 -25.65 -75.9 -24.95 -77.05 -22.35 -81.15 -26.85 -82.55 -28.4 -83.65 -29.55 -85.05 L-29.0 -85.65 Q-27.4 -85.75 -26.4 -86.8 L-26.35 -87.1 Q-26.2 -88.1 -26.4 -89.1 L-26.95 -89.7 Q-27.95 -91.65 -29.95 -92.85 L-33.95 -98.9 Q-30.25 -97.25 -26.6 -97.25 L-26.35 -97.85 Q-25.65 -101.35 -25.9 -105.05 -25.35 -104.95 -24.95 -104.65 -21.55 -102.0 -17.75 -102.25 L-16.3 -105.45 -16.25 -105.7 Q-15.7 -107.65 -15.55 -109.75 L-14.75 -110.6 -10.4 -110.05 Q-7.9 -109.55 -5.75 -110.05 -5.65 -110.35 -5.7 -110.6 L-7.1 -118.4 Q-5.95 -118.7 -4.95 -119.25 L-4.95 -119.75 Q-7.05 -124.5 -10.55 -128.5 L-10.25 -128.6 -3.8 -126.15 Q-2.75 -126.45 -2.7 -127.55 L-2.45 -136.75 Q0.95 -135.3 4.05 -133.0 4.5 -132.4 5.25 -132.2 L6.2 -132.3 Q9.55 -135.15 9.8 -140.0 L13.55 -135.6 14.4 -132.95 Q15.75 -129.45 17.9 -132.1 21.0 -136.1 25.2 -138.1" fill="#ffff00" fill-opacity="0.5019608" fill-rule="evenodd" stroke="none"/>
  </g>
</svg>
