<?xml version="1.0" encoding="UTF-8" standalone="no"?>
<svg xmlns:ffdec="https://www.free-decompiler.com/flash" xmlns:xlink="http://www.w3.org/1999/xlink" ffdec:objectType="shape" height="130.15px" width="85.4px" xmlns="http://www.w3.org/2000/svg">
  <g transform="matrix(1.0, 0.0, 0.0, 1.0, 24.4, 125.8)">
    <path d="M5.8 -105.65 Q2.35 -109.1 2.35 -114.0 2.35 -118.9 5.8 -122.35 9.25 -125.8 14.15 -125.8 19.05 -125.8 22.5 -122.35 25.95 -118.9 25.95 -114.0 25.95 -109.1 22.5 -105.65 21.0 -104.15 19.2 -103.3 L34.0 -93.8 34.65 -93.3 Q46.75 -91.95 57.2 -97.0 58.65 -97.7 59.55 -96.4 63.7 -90.5 56.1 -88.6 43.45 -85.45 31.1 -88.5 30.4 -88.7 29.7 -89.05 21.5 -93.25 15.5 -99.65 L15.1 -97.55 Q13.8 -92.6 13.35 -87.35 12.55 -78.5 10.45 -69.9 11.65 -67.45 11.05 -63.8 10.6 -61.0 10.6 -58.1 13.1 -54.85 11.85 -52.55 L12.1 -51.75 Q21.5 -40.75 27.05 -27.9 27.25 -27.5 26.95 -26.9 25.2 -22.95 22.9 -19.4 23.0 -18.4 22.35 -17.65 L21.35 -16.5 Q21.45 -15.0 20.6 -13.75 L19.05 -11.9 Q18.75 -9.4 16.6 -7.8 L15.6 -6.9 Q20.1 -5.45 22.15 -1.15 17.65 3.85 11.1 -1.6 9.8 -2.7 8.85 -4.2 8.55 -5.05 8.6 -5.95 L8.65 -7.65 Q10.25 -10.55 12.65 -12.9 L13.1 -13.45 13.25 -14.05 13.45 -15.2 15.15 -16.95 15.6 -17.5 Q15.8 -19.35 16.7 -21.05 17.1 -21.8 17.3 -22.7 L19.35 -25.5 20.2 -26.7 20.45 -27.85 20.8 -29.05 9.95 -44.7 9.05 -45.75 Q9.7 -33.75 6.5 -22.55 4.95 -17.0 -1.3 -16.5 -2.9 -16.35 -4.3 -15.6 -9.3 -13.0 -14.45 -10.75 L-15.65 -9.9 -16.95 -9.2 -16.65 -8.6 -16.35 -7.5 Q-12.8 -2.85 -8.65 1.2 -11.8 7.5 -17.3 1.15 L-21.95 -4.0 Q-22.9 -7.25 -24.15 -10.5 -24.55 -11.55 -24.25 -12.7 -12.65 -18.9 -0.2 -23.85 3.4 -33.2 3.25 -43.45 3.1 -50.45 3.45 -57.3 L3.65 -57.65 3.45 -57.9 Q2.35 -69.95 5.75 -81.15 8.15 -88.95 7.95 -97.15 L8.1 -99.7 Q-1.35 -93.55 -12.15 -90.05 L-12.75 -89.5 Q-13.7 -88.7 -15.0 -88.5 L-12.2 -84.95 -10.4 -82.7 Q-4.0 -83.25 -4.8 -77.85 -5.5 -72.85 -10.35 -74.95 -13.75 -76.45 -16.2 -79.45 -19.9 -83.95 -23.1 -88.55 -23.95 -89.75 -23.5 -91.2 -15.4 -96.15 -6.05 -99.95 0.25 -102.45 5.95 -105.5 L5.8 -105.65" fill="#000000" fill-rule="evenodd" stroke="none"/>
  </g>
</svg>
