<?xml version="1.0" encoding="UTF-8" standalone="no"?>
<svg xmlns:ffdec="https://www.free-decompiler.com/flash" xmlns:xlink="http://www.w3.org/1999/xlink" ffdec:objectType="shape" height="161.75px" width="89.05px" xmlns="http://www.w3.org/2000/svg">
  <g transform="matrix(1.0, 0.0, 0.0, 1.0, 32.75, 157.2)">
    <path d="M16.85 -155.85 L17.35 -155.35 16.35 -154.2 16.35 -154.5 16.35 -154.8 16.5 -155.1 16.75 -155.65 16.85 -155.85 M6.05 -155.0 L6.05 -155.45 7.95 -154.3 Q11.7 -152.0 15.7 -152.2 L15.85 -152.5 16.0 -153.35 15.95 -153.65 16.15 -153.95 16.35 -154.2 Q18.75 -152.85 21.35 -155.55 24.2 -156.7 27.1 -157.2 L27.05 -156.0 27.95 -149.7 Q30.6 -148.8 33.75 -148.7 37.7 -148.6 40.35 -146.55 37.5 -143.25 35.15 -139.6 L35.15 -139.35 35.15 -139.05 35.15 -138.75 Q37.9 -136.65 41.2 -135.3 L41.65 -134.8 41.9 -134.25 Q37.8 -131.75 34.4 -128.5 L34.45 -127.6 34.5 -127.05 Q38.6 -124.45 42.0 -121.1 L35.95 -116.0 35.95 -115.15 35.95 -114.55 41.1 -110.9 Q43.85 -109.0 45.35 -106.95 42.4 -104.25 41.4 -100.9 46.5 -99.05 51.2 -96.4 L51.05 -95.85 50.9 -95.55 50.9 -95.25 50.9 -94.7 50.85 -94.4 50.55 -94.1 50.25 -93.8 50.2 -93.5 50.15 -93.25 49.8 -92.95 49.5 -92.65 49.35 -92.1 49.2 -91.8 48.5 -91.15 Q47.75 -90.3 47.85 -89.2 L48.35 -88.65 Q49.05 -87.9 50.1 -87.7 54.1 -86.85 56.3 -84.1 53.5 -83.3 51.7 -80.95 L51.7 -79.8 51.7 -78.35 51.95 -78.05 52.05 -77.75 52.05 -77.5 52.05 -77.2 52.45 -76.6 Q53.7 -74.75 54.0 -72.6 L54.5 -71.95 55.9 -69.4 55.85 -68.55 55.7 -68.15 Q53.7 -69.1 51.5 -68.85 50.75 -68.75 50.2 -68.25 45.35 -63.75 44.2 -57.05 L43.8 -56.9 43.6 -56.95 43.4 -57.5 Q42.95 -58.65 42.1 -59.5 L42.0 -60.35 41.05 -62.1 40.5 -63.55 40.05 -63.9 Q37.3 -64.2 34.8 -62.9 L34.5 -63.4 Q32.85 -65.3 32.5 -67.8 L32.3 -68.05 32.1 -68.35 32.1 -69.5 32.1 -72.4 Q30.95 -75.1 28.45 -73.85 L28.15 -74.05 27.1 -74.4 26.8 -74.9 23.75 -82.1 23.55 -82.95 Q23.3 -84.1 22.5 -84.95 L22.35 -85.55 Q22.05 -86.4 21.15 -86.6 L20.65 -86.35 20.2 -85.85 20.2 -84.7 20.2 -83.8 20.4 -83.55 20.55 -83.25 20.65 -82.1 21.35 -74.6 21.55 -74.3 21.75 -74.0 21.75 -73.75 21.75 -73.15 21.8 -72.85 Q23.9 -71.9 25.95 -72.0 27.3 -71.05 28.65 -70.45 L28.65 -69.3 Q28.55 -65.7 28.75 -62.1 29.85 -61.3 31.35 -61.45 L34.8 -59.25 34.6 -58.7 34.4 -58.35 34.4 -58.1 34.4 -57.8 34.3 -57.5 33.75 -56.7 Q33.1 -55.45 33.15 -54.05 L32.85 -53.75 32.85 -52.9 32.85 -52.3 Q33.1 -52.05 33.4 -51.95 37.7 -51.05 41.6 -49.15 36.6 -46.9 32.1 -44.35 32.1 -43.9 32.25 -43.55 33.6 -39.95 36.7 -37.15 L36.7 -36.85 36.7 -36.55 37.05 -35.95 37.1 -35.7 36.5 -35.6 Q34.0 -35.3 31.8 -34.45 28.6 -33.15 29.5 -29.45 32.6 -25.6 36.3 -22.25 L28.65 -21.8 Q27.7 -21.75 27.1 -21.1 L27.1 -20.25 27.1 -19.65 Q29.7 -15.55 33.35 -12.4 32.65 -12.25 32.3 -11.7 L32.0 -11.1 31.15 -10.8 30.95 -10.75 29.55 -9.45 Q28.0 -8.5 27.1 -6.9 L27.1 -6.6 27.1 -5.75 27.1 -5.45 28.4 -3.3 30.95 1.15 30.95 1.45 31.05 2.05 31.15 2.35 27.3 2.25 Q25.6 2.2 24.15 1.5 19.2 -0.85 16.95 3.75 16.2 3.55 16.0 2.85 15.6 1.7 14.5 1.15 L13.8 -0.1 11.15 -2.5 Q10.5 -2.35 10.15 -1.75 L9.05 -0.35 Q9.2 0.65 8.5 1.4 7.65 2.25 7.25 3.4 L6.85 3.55 6.45 3.5 6.1 2.95 Q4.4 1.15 2.35 -0.15 1.85 -0.15 1.55 0.2 L1.0 0.8 1.0 1.1 0.95 1.35 0.9 1.65 0.35 2.25 0.2 2.5 0.2 2.8 0.2 3.4 0.1 3.65 -0.2 4.0 -0.6 4.5 -0.75 4.55 -1.55 4.1 -2.3 3.85 Q-6.5 -1.15 -12.5 1.1 -15.2 2.1 -17.05 2.05 L-17.05 0.6 -17.05 -0.55 -17.7 -1.2 Q-22.25 -4.55 -27.35 -7.35 L-26.45 -7.75 Q-23.95 -8.5 -22.85 -10.75 L-23.0 -11.0 Q-24.75 -12.9 -27.35 -13.7 L-27.45 -13.8 -32.75 -17.55 -31.9 -18.05 -30.15 -19.2 Q-29.25 -19.2 -28.5 -19.65 -27.45 -20.2 -26.5 -20.9 -26.2 -21.6 -26.25 -22.35 L-26.3 -23.2 -27.4 -24.9 -29.0 -28.1 -23.05 -28.7 Q-22.1 -28.85 -21.7 -29.75 L-21.7 -30.05 -21.7 -30.9 -21.8 -31.5 -23.1 -33.7 Q-24.3 -35.95 -25.15 -38.4 -20.3 -39.15 -16.3 -41.65 -16.25 -42.25 -16.65 -42.6 L-19.95 -45.6 Q-19.35 -46.65 -19.05 -47.8 -18.5 -49.65 -18.6 -51.65 -21.8 -53.3 -25.9 -53.0 -26.65 -52.95 -26.7 -53.45 L-26.15 -54.7 -25.25 -56.05 -24.9 -57.55 -24.75 -58.35 Q-23.9 -59.7 -23.6 -61.25 -23.45 -62.35 -24.15 -63.0 L-27.65 -65.85 -27.35 -66.1 Q-24.95 -67.8 -22.95 -69.9 L-22.75 -71.9 -22.95 -73.35 -23.45 -73.9 Q-26.85 -77.6 -30.6 -81.15 -26.8 -83.05 -24.1 -86.05 L-24.0 -86.3 -24.0 -86.9 -24.1 -87.2 -24.55 -87.75 -24.75 -88.05 Q-24.8 -88.85 -25.35 -89.45 L-30.8 -95.25 -29.2 -95.5 Q-28.15 -95.65 -27.55 -96.4 -27.2 -98.15 -27.65 -99.9 -28.45 -102.8 -29.65 -105.6 L-28.7 -105.65 -28.6 -105.6 Q-27.7 -104.8 -26.55 -104.45 -22.4 -103.1 -22.05 -106.75 L-21.85 -107.05 -21.7 -107.35 -21.8 -111.4 Q-21.95 -114.95 -21.1 -118.2 L-18.35 -117.25 Q-17.45 -117.0 -16.85 -117.5 -13.65 -120.15 -12.85 -124.25 -8.9 -122.95 -4.65 -123.75 -3.0 -124.05 -2.1 -125.4 L-2.1 -125.7 -2.1 -126.25 -2.1 -126.55 Q-2.4 -127.15 -3.05 -127.3 -5.95 -127.95 -7.45 -129.45 -6.75 -129.6 -6.1 -129.9 -5.1 -130.3 -4.2 -130.8 -3.7 -131.65 -3.6 -132.55 -3.25 -135.25 -6.05 -136.25 L-6.45 -136.65 Q-9.35 -138.75 -11.8 -141.35 L1.95 -141.7 1.85 -142.15 Q1.75 -142.9 1.95 -143.55 L1.0 -143.55 0.9 -144.4 0.4 -147.6 Q2.7 -147.85 5.5 -148.75 L5.75 -147.9 Q6.65 -148.7 8.05 -149.1 L7.9 -149.5 Q8.65 -149.95 9.05 -150.85 L9.0 -151.1 Q8.65 -152.0 7.7 -151.9 L7.7 -151.85 7.35 -151.8 7.15 -151.7 7.05 -151.6 5.6 -153.85 5.75 -154.1 6.05 -155.0 M12.85 -138.15 Q13.75 -139.1 14.1 -140.35 15.35 -144.95 10.4 -145.55 8.2 -145.35 6.4 -143.7 3.6 -141.15 4.8 -137.7 5.75 -135.0 8.6 -135.6 11.1 -136.15 12.85 -138.15 M30.55 -63.75 L30.55 -63.95 30.55 -65.95 30.55 -66.0 Q31.05 -64.55 32.1 -63.35 31.2 -63.4 30.55 -63.75" fill="#ffff00" fill-opacity="0.5019608" fill-rule="evenodd" stroke="none"/>
    <path d="M12.85 -138.15 Q11.1 -136.15 8.6 -135.6 5.75 -135.0 4.8 -137.7 3.6 -141.15 6.4 -143.7 8.2 -145.35 10.4 -145.55 15.35 -144.95 14.1 -140.35 13.75 -139.1 12.85 -138.15" fill="#000000" fill-rule="evenodd" stroke="none"/>
  </g>
</svg>
