<?xml version="1.0" encoding="UTF-8" standalone="no"?>
<svg xmlns:ffdec="https://www.free-decompiler.com/flash" xmlns:xlink="http://www.w3.org/1999/xlink" ffdec:objectType="shape" height="139.2px" width="64.6px" xmlns="http://www.w3.org/2000/svg">
  <g transform="matrix(1.0, 0.0, 0.0, 1.0, 18.2, 146.5)">
    <path d="M26.05 -134.7 Q26.05 -129.8 22.6 -126.35 19.75 -123.5 15.95 -123.0 L15.95 -122.8 Q18.25 -122.1 18.95 -119.65 L19.05 -119.1 Q21.2 -116.7 22.55 -113.85 L22.9 -112.75 Q24.45 -110.95 25.0 -108.7 L25.2 -107.55 Q29.5 -96.9 36.35 -87.75 L36.75 -86.75 Q38.0 -84.55 39.8 -82.7 L40.2 -82.15 Q48.8 -82.2 45.5 -74.95 45.3 -74.55 44.8 -74.5 36.0 -73.5 31.85 -81.6 30.45 -84.35 29.45 -87.15 L26.2 -90.65 25.8 -91.2 25.6 -91.75 25.4 -92.9 24.8 -93.5 24.25 -94.1 Q22.85 -100.1 19.35 -105.55 18.65 -106.65 18.65 -107.95 L18.25 -108.5 17.3 -109.65 17.15 -110.25 16.95 -111.4 Q15.8 -112.5 14.95 -113.75 L14.7 -111.25 Q13.95 -102.95 13.8 -94.45 13.65 -86.0 11.55 -78.3 L11.15 -75.65 Q14.25 -74.35 15.15 -70.4 L15.2 -69.85 Q20.3 -62.45 24.85 -54.7 L25.2 -53.65 Q26.55 -52.35 27.2 -50.75 L27.5 -49.6 Q30.15 -47.05 28.35 -43.9 L27.5 -42.7 Q25.9 -38.45 23.05 -34.65 L22.15 -33.45 Q21.75 -31.0 19.8 -29.2 L19.25 -28.25 Q15.35 -25.3 12.5 -21.9 L21.35 -12.7 Q18.85 -6.65 13.5 -11.7 8.9 -16.0 7.0 -21.55 5.7 -25.35 8.9 -27.85 15.7 -33.3 20.0 -40.95 L20.15 -41.55 20.25 -42.1 20.4 -42.7 21.35 -43.85 21.75 -44.45 21.8 -45.0 21.95 -45.6 22.15 -46.15 21.95 -46.75 21.8 -47.3 21.75 -47.9 Q20.35 -49.4 19.7 -51.4 L19.45 -52.5 Q13.85 -59.85 9.55 -67.95 8.25 -63.0 6.55 -58.15 L6.15 -57.5 Q3.6 -47.75 -1.55 -39.05 -5.55 -29.35 -10.4 -20.0 L-6.35 -15.95 Q-2.2 -13.75 -0.95 -9.6 -5.05 -4.55 -10.3 -10.5 -12.2 -12.65 -14.55 -14.5 -16.1 -15.75 -17.3 -17.3 -17.65 -18.15 -17.55 -19.05 L-17.5 -20.75 -17.25 -21.25 -16.15 -22.5 Q-15.15 -26.6 -12.55 -30.0 L-12.15 -30.55 Q-8.2 -39.05 -3.85 -47.3 L-2.3 -52.0 -2.1 -53.1 -1.85 -53.6 -0.75 -54.8 Q-0.35 -57.5 0.75 -59.95 L1.55 -61.15 Q8.2 -82.7 9.15 -105.6 L9.3 -113.65 Q3.05 -108.0 -4.45 -103.9 -8.0 -100.2 -12.3 -97.55 -12.6 -90.8 -11.55 -84.15 -10.95 -80.8 -10.95 -77.35 -4.3 -74.4 -9.85 -69.8 -11.05 -68.75 -12.95 -69.2 -17.75 -70.3 -17.5 -75.45 -17.0 -85.35 -18.1 -95.05 -18.95 -102.3 -12.05 -106.25 -5.6 -109.9 0.2 -114.7 4.75 -118.45 9.05 -121.65 L8.9 -124.05 8.9 -124.5 7.25 -125.2 5.9 -126.35 Q2.45 -129.8 2.45 -134.7 2.45 -138.75 4.8 -141.8 L9.7 -142.0 Q9.95 -142.0 10.2 -142.3 L9.85 -143.7 8.75 -145.2 Q11.25 -146.5 14.25 -146.5 19.15 -146.5 22.6 -143.05 26.05 -139.6 26.05 -134.7 M7.5 -143.65 L6.55 -143.6 7.25 -144.2 7.5 -143.65" fill="#000000" fill-rule="evenodd" stroke="none"/>
  </g>
</svg>
