<?xml version="1.0" encoding="UTF-8" standalone="no"?>
<svg xmlns:ffdec="https://www.free-decompiler.com/flash" xmlns:xlink="http://www.w3.org/1999/xlink" ffdec:objectType="shape" height="159.55px" width="139.8px" xmlns="http://www.w3.org/2000/svg">
  <g transform="matrix(1.0, 0.0, 0.0, 1.0, 78.3, 191.55)">
    <path d="M25.8 -183.65 L26.25 -178.15 Q29.9 -176.7 34.05 -176.95 38.1 -177.2 40.4 -176.35 35.0 -173.7 31.15 -169.2 L31.15 -168.95 31.15 -168.35 39.5 -163.15 35.9 -161.85 34.05 -161.45 Q30.55 -161.35 29.25 -158.85 L34.35 -154.9 30.1 -150.3 30.0 -149.75 29.35 -149.15 29.25 -148.85 Q28.7 -147.6 28.95 -146.25 L29.8 -146.05 40.4 -145.7 40.4 -145.4 Q40.3 -144.1 40.5 -142.8 40.9 -142.55 41.35 -142.5 L43.15 -142.45 53.45 -142.45 Q53.3 -140.25 51.9 -138.7 51.8 -137.7 51.15 -136.95 L51.15 -136.65 51.15 -136.1 Q54.1 -134.2 58.05 -134.05 L59.3 -133.0 Q56.9 -130.65 55.0 -127.85 L54.95 -127.55 Q54.9 -126.5 55.1 -125.5 L61.5 -120.35 Q57.35 -118.65 53.45 -116.6 L53.5 -116.0 Q54.15 -111.65 54.1 -107.2 51.6 -107.85 49.05 -108.65 44.25 -110.2 41.15 -106.8 L41.15 -106.5 41.05 -105.95 39.05 -102.3 Q36.75 -105.65 33.45 -103.35 L33.5 -103.05 Q33.7 -101.25 32.7 -99.9 L32.7 -99.6 32.7 -97.3 33.1 -96.7 33.1 -96.45 33.65 -93.55 33.45 -92.95 27.75 -92.35 27.3 -92.0 27.5 -90.3 Q29.05 -83.85 31.05 -77.6 28.15 -77.8 25.3 -78.85 21.8 -81.65 18.1 -79.7 L18.1 -79.15 18.1 -69.05 17.05 -68.65 14.9 -70.15 Q11.6 -72.75 9.25 -69.9 L9.25 -69.35 Q9.15 -64.4 9.65 -59.55 L8.4 -59.55 Q4.85 -61.9 1.0 -61.3 0.35 -56.55 3.1 -52.65 3.15 -52.0 3.5 -51.5 L2.35 -51.5 -1.85 -53.45 Q-6.4 -55.25 -9.95 -52.9 L-9.95 -52.35 Q-9.85 -48.95 -9.15 -45.7 -14.35 -46.0 -18.65 -49.15 -21.5 -51.25 -23.4 -49.0 L-23.35 -48.1 -23.0 -37.45 -26.05 -38.5 Q-29.95 -42.75 -34.8 -39.65 L-34.9 -39.1 -35.6 -38.5 Q-35.65 -38.05 -35.85 -37.65 -38.75 -35.1 -41.15 -32.2 L-41.8 -32.0 -42.8 -34.3 Q-44.55 -38.35 -48.25 -40.25 -50.2 -42.0 -52.85 -42.25 -50.55 -43.3 -49.8 -45.8 -49.15 -45.95 -48.85 -46.5 L-48.8 -46.8 -48.75 -48.2 -55.25 -54.0 Q-51.3 -56.0 -47.0 -57.45 -46.05 -62.0 -50.45 -64.05 -51.85 -65.35 -52.3 -66.95 -47.25 -68.5 -42.4 -70.5 -42.2 -70.9 -42.3 -71.35 -42.95 -74.0 -45.55 -75.7 L-46.45 -76.85 -46.45 -77.1 -46.45 -77.4 -47.2 -78.55 -47.25 -79.15 Q-47.35 -79.9 -48.1 -80.0 -53.05 -80.45 -57.55 -79.35 L-57.7 -79.6 Q-58.3 -81.15 -58.35 -82.8 -58.65 -83.4 -59.3 -83.35 -66.5 -82.65 -72.95 -81.05 L-72.9 -81.55 Q-72.3 -85.35 -72.55 -89.3 -74.65 -91.9 -77.95 -93.15 -76.8 -93.75 -75.65 -94.7 -75.15 -97.8 -77.15 -100.15 -77.55 -102.25 -78.3 -104.2 L-75.9 -103.8 Q-74.7 -102.8 -73.15 -102.65 -71.6 -101.3 -69.7 -102.4 -68.95 -102.85 -68.75 -103.7 -67.85 -107.6 -67.2 -111.7 -66.55 -112.3 -66.3 -113.15 -65.5 -113.8 -65.15 -114.85 L-64.2 -114.75 Q-61.7 -112.1 -58.65 -110.0 L-57.1 -110.1 Q-53.55 -113.65 -50.95 -117.95 -50.15 -118.5 -49.8 -117.95 L-49.7 -117.35 -49.4 -109.0 Q-46.15 -107.95 -42.75 -109.05 L-37.2 -110.25 -37.2 -109.95 Q-36.8 -106.75 -35.95 -103.65 -34.35 -102.45 -33.15 -104.15 -31.0 -107.15 -31.05 -110.95 L-24.7 -106.7 Q-22.9 -105.4 -20.85 -105.0 -20.5 -104.9 -20.4 -105.25 -19.15 -108.9 -19.55 -112.95 L-18.4 -112.95 Q-17.0 -111.8 -15.2 -111.7 -13.3 -110.15 -11.3 -110.85 -11.25 -114.25 -13.4 -117.15 L-13.4 -117.45 -13.4 -117.75 -13.8 -118.3 -13.8 -118.6 -13.8 -120.65 Q-9.25 -120.1 -5.15 -120.45 -4.75 -121.55 -5.1 -122.7 L-6.85 -129.1 -2.95 -128.85 Q0.7 -127.3 3.5 -128.9 L3.5 -129.15 3.5 -130.05 0.8 -134.65 0.8 -134.95 Q0.5 -136.65 0.55 -138.4 1.5 -138.85 2.35 -139.45 6.05 -138.75 9.1 -140.4 L9.2 -140.7 9.25 -141.55 Q2.75 -145.75 -2.15 -151.65 L-1.85 -152.5 Q0.7 -154.25 2.75 -156.55 L2.75 -156.85 2.75 -157.7 Q-3.95 -161.25 -10.3 -165.55 -9.15 -165.75 -8.4 -166.7 -5.2 -167.6 -2.7 -169.7 -2.5 -169.9 -2.55 -170.15 -3.8 -176.15 -6.85 -181.7 L-0.25 -180.45 Q1.7 -179.25 3.1 -181.15 L3.15 -181.4 Q3.2 -184.1 2.65 -186.7 2.15 -189.15 1.2 -191.5 L1.2 -191.55 1.8 -191.5 6.05 -186.7 9.0 -183.45 Q10.75 -180.3 13.3 -178.05 L13.65 -178.2 14.05 -178.45 14.15 -178.75 14.25 -180.75 14.1 -181.05 Q13.15 -183.7 13.45 -186.7 L13.5 -187.1 13.7 -186.7 Q14.55 -184.75 16.0 -183.15 18.25 -178.4 21.95 -182.2 23.95 -183.5 25.8 -184.2 L25.8 -183.65" fill="#ffff00" fill-opacity="0.5019608" fill-rule="evenodd" stroke="none"/>
  </g>
</svg>
