<?xml version="1.0" encoding="UTF-8" standalone="no"?>
<svg xmlns:ffdec="https://www.free-decompiler.com/flash" xmlns:xlink="http://www.w3.org/1999/xlink" ffdec:objectType="shape" height="102.6px" width="175.15px" xmlns="http://www.w3.org/2000/svg">
  <g transform="matrix(1.0, 0.0, 0.0, 1.0, 97.1, 191.0)">
    <path d="M62.5 -191.0 Q62.55 -190.45 62.25 -189.95 61.15 -188.05 61.25 -185.85 L60.75 -185.0 60.55 -184.7 60.55 -184.4 60.6 -183.8 60.65 -183.55 78.05 -182.2 Q71.0 -180.55 65.55 -176.25 L65.55 -175.95 65.6 -175.35 65.65 -175.1 66.55 -174.65 67.0 -174.5 67.1 -174.4 Q72.45 -170.5 77.1 -165.85 L76.7 -165.55 61.35 -165.1 Q60.55 -165.1 60.0 -164.6 59.7 -164.1 59.75 -163.45 L59.8 -162.9 60.6 -161.95 61.05 -160.85 61.35 -160.6 61.8 -160.3 62.2 -159.5 62.8 -158.85 62.95 -158.35 65.2 -154.8 55.4 -154.4 55.0 -154.25 Q54.7 -153.75 54.75 -153.1 55.05 -149.15 56.75 -145.6 L48.9 -145.0 Q48.3 -144.95 47.9 -144.45 47.9 -143.7 48.05 -143.05 48.95 -138.6 50.85 -134.35 47.5 -134.35 44.8 -132.55 L44.8 -132.25 44.8 -131.65 44.8 -131.4 Q47.8 -128.85 49.45 -125.6 L50.25 -124.75 50.6 -123.9 Q47.2 -119.85 42.9 -117.0 L42.9 -116.7 42.95 -115.85 43.0 -115.55 Q46.9 -112.4 49.45 -109.1 L40.8 -108.5 Q40.1 -108.45 39.8 -107.75 L39.85 -106.05 39.75 -100.55 39.45 -100.25 Q39.45 -99.65 39.05 -99.1 L38.75 -98.75 34.45 -101.65 32.35 -101.55 Q28.1 -98.0 25.25 -93.15 L25.25 -92.85 25.2 -92.6 25.05 -92.3 24.25 -91.45 24.15 -91.25 21.3 -97.95 20.8 -98.45 9.65 -98.15 Q4.05 -96.4 -0.9 -95.35 -0.55 -95.9 -0.45 -96.5 0.1 -99.3 1.05 -102.0 0.75 -102.6 0.1 -102.5 -3.2 -102.05 -5.95 -100.15 -9.85 -97.4 -14.15 -96.9 L-14.65 -98.05 -14.7 -98.9 Q-15.75 -100.25 -17.25 -99.25 L-19.7 -97.8 Q-23.05 -96.0 -26.55 -94.5 -26.55 -96.95 -28.5 -97.9 -32.6 -99.9 -36.55 -97.3 -40.75 -94.55 -44.9 -92.3 L-45.8 -93.9 Q-48.05 -96.9 -49.75 -100.25 -51.8 -104.3 -55.05 -102.2 L-55.1 -101.05 Q-55.15 -100.05 -55.85 -99.3 L-55.9 -98.45 Q-56.65 -95.25 -58.8 -92.7 L-59.2 -92.5 -59.55 -92.6 Q-60.2 -93.75 -61.35 -94.5 L-64.0 -96.55 Q-67.5 -99.6 -70.8 -96.8 -72.5 -92.45 -75.5 -89.05 L-77.0 -88.55 Q-79.1 -88.1 -80.95 -89.25 -89.1 -94.1 -97.1 -99.0 L-96.3 -99.4 Q-92.5 -100.0 -89.75 -102.2 -89.55 -102.75 -89.65 -103.35 -89.8 -104.05 -90.4 -104.5 L-90.4 -104.8 -90.4 -105.05 -90.75 -105.65 Q-91.35 -107.1 -92.6 -107.95 -92.75 -108.5 -93.2 -108.8 -94.05 -109.55 -94.55 -110.55 L-94.95 -110.9 -95.0 -111.1 -86.75 -111.5 Q-84.4 -111.55 -82.8 -112.95 L-82.7 -113.8 Q-82.7 -114.95 -83.0 -116.05 -84.1 -120.35 -84.65 -124.75 L-81.7 -121.9 -78.9 -121.85 Q-78.1 -122.65 -78.1 -123.7 -78.1 -127.4 -77.05 -130.6 -73.8 -129.55 -70.6 -128.0 L-70.0 -127.6 -68.4 -127.65 -68.25 -127.95 -68.1 -128.8 -68.1 -129.1 Q-67.7 -129.6 -67.45 -130.25 L-67.35 -131.1 -67.1 -131.4 -64.4 -134.85 -64.3 -135.15 -64.3 -135.7 -64.4 -136.0 Q-65.75 -137.4 -67.75 -137.9 -70.25 -138.6 -71.3 -139.85 L-71.2 -140.15 -71.2 -140.4 Q-69.6 -141.3 -68.5 -142.7 L-68.5 -144.15 -68.7 -145.0 Q-70.75 -146.75 -73.25 -148.0 L-75.15 -148.7 Q-79.65 -150.05 -83.3 -151.95 L-82.7 -152.5 -80.9 -154.8 -80.85 -155.1 -80.8 -155.7 -80.8 -155.95 -80.6 -156.25 -80.4 -156.55 Q-80.0 -161.85 -85.3 -163.55 L-93.2 -167.9 -87.55 -168.45 Q-84.8 -168.9 -85.1 -171.35 -87.35 -174.2 -90.4 -175.95 L-89.35 -176.05 Q-87.15 -174.6 -84.45 -175.35 -83.45 -175.6 -83.1 -176.6 L-83.15 -176.75 Q-83.05 -177.0 -83.1 -177.3 L-83.1 -178.45 -83.5 -179.0 -85.4 -182.45 -85.4 -183.35 -85.4 -184.8 -80.2 -183.35 Q-78.8 -182.05 -76.9 -182.95 -73.35 -184.65 -70.7 -187.45 L-69.85 -187.95 -67.5 -184.4 Q-65.55 -181.2 -61.8 -182.65 -57.4 -184.4 -53.5 -185.45 L-53.7 -184.05 Q-54.15 -181.9 -53.8 -179.7 L-44.1 -178.05 Q-40.4 -177.55 -37.85 -176.6 L-38.7 -176.0 Q-44.95 -171.55 -50.45 -166.25 L-50.45 -165.65 -50.35 -165.1 -42.0 -164.05 -42.45 -163.25 Q-43.05 -160.7 -44.7 -158.65 -44.7 -158.2 -44.85 -157.85 -45.3 -156.7 -45.0 -155.5 -39.1 -154.7 -33.15 -156.65 L-32.85 -155.3 -32.4 -151.85 -32.2 -151.55 -32.0 -151.25 -32.0 -150.7 -31.9 -150.1 -31.6 -149.9 Q-29.75 -149.25 -28.85 -150.95 -27.0 -152.35 -25.5 -154.05 -22.8 -150.8 -19.9 -148.1 L-19.55 -148.2 -19.35 -148.3 -19.15 -148.5 -18.9 -149.05 Q-17.0 -152.5 -14.65 -155.7 -9.6 -152.3 -4.15 -149.65 L-3.8 -149.75 -3.5 -149.9 Q-2.9 -150.7 -2.95 -151.65 -2.95 -154.85 -2.6 -157.9 L2.4 -154.6 3.35 -153.8 Q5.35 -151.65 7.15 -153.1 L7.15 -154.55 Q7.1 -156.75 7.95 -158.85 L8.7 -159.45 9.4 -159.5 Q10.95 -158.6 12.75 -158.35 14.75 -156.75 17.25 -158.0 L17.6 -158.55 Q18.5 -159.75 18.7 -161.15 L19.15 -161.65 Q20.05 -162.5 19.85 -163.75 21.55 -166.6 24.0 -168.65 L25.9 -168.55 26.05 -168.5 32.9 -167.1 Q34.95 -165.3 37.35 -166.55 37.7 -167.4 37.35 -168.25 36.95 -169.35 36.9 -170.55 36.65 -174.85 36.75 -179.2 39.15 -178.4 41.05 -179.5 L41.25 -179.8 41.4 -180.65 41.35 -180.95 Q41.8 -181.45 41.9 -182.1 42.45 -184.7 43.3 -187.3 L43.3 -187.55 43.35 -188.15 43.45 -188.45 43.9 -188.25 Q47.05 -186.4 49.95 -184.2 50.9 -183.5 51.85 -184.2 57.0 -188.15 62.5 -191.0" fill="#ffff00" fill-opacity="0.5019608" fill-rule="evenodd" stroke="none"/>
  </g>
</svg>
