<?xml version="1.0" encoding="UTF-8" standalone="no"?>
<svg xmlns:ffdec="https://www.free-decompiler.com/flash" xmlns:xlink="http://www.w3.org/1999/xlink" ffdec:objectType="shape" height="75.8px" width="131.75px" xmlns="http://www.w3.org/2000/svg">
  <g transform="matrix(1.0, 0.0, 0.0, 1.0, 75.55, 178.35)">
    <path d="M49.75 -178.35 Q57.1 -176.55 56.1 -168.75 55.7 -165.65 52.8 -164.9 L51.5 -165.3 50.7 -165.65 50.25 -165.15 48.6 -163.95 45.15 -159.3 Q44.55 -158.55 44.35 -157.6 41.75 -154.8 39.5 -151.7 L38.95 -150.65 Q33.25 -143.4 25.45 -138.65 31.3 -134.5 32.65 -128.0 L32.7 -127.35 Q35.75 -124.0 35.75 -119.4 35.75 -114.5 32.3 -111.05 29.0 -107.75 24.45 -107.6 L22.85 -108.1 20.75 -107.7 Q19.35 -109.05 16.95 -109.9 L15.6 -111.05 Q12.15 -114.5 12.15 -119.4 12.15 -124.3 15.6 -127.75 18.7 -130.85 22.95 -131.15 L22.05 -132.95 20.7 -133.75 Q20.0 -132.7 18.2 -131.6 L17.2 -131.0 Q6.2 -122.05 -5.3 -113.15 -5.8 -111.75 -7.0 -110.8 L-7.6 -110.25 -6.9 -108.5 -6.65 -107.35 Q-9.45 -102.55 -13.2 -106.95 -16.7 -106.45 -19.15 -108.7 -20.35 -117.25 -10.3 -116.4 0.75 -126.9 13.05 -135.05 -3.9 -136.2 -20.45 -133.25 -20.3 -131.25 -23.3 -128.9 L-24.7 -127.7 -25.9 -126.6 Q-27.5 -122.45 -29.75 -118.5 L-31.1 -116.8 Q-32.7 -109.7 -38.55 -106.7 -40.2 -105.8 -42.35 -106.35 L-64.0 -111.4 Q-64.85 -110.9 -65.2 -109.95 L-65.9 -108.7 Q-66.7 -105.4 -69.2 -103.15 -69.65 -102.75 -70.35 -102.55 -72.0 -102.75 -73.05 -104.1 L-73.35 -106.4 -73.05 -108.1 -72.65 -108.7 -71.7 -109.85 Q-71.7 -110.75 -71.2 -111.55 L-70.35 -112.75 -70.25 -113.3 -69.95 -115.05 Q-64.05 -119.75 -55.65 -116.25 -52.45 -114.85 -49.1 -113.75 -44.7 -112.2 -39.95 -111.8 -39.25 -114.15 -37.9 -116.35 L-37.05 -117.55 -33.05 -125.65 -31.85 -127.35 -31.7 -127.95 -31.45 -129.1 Q-30.5 -130.95 -29.3 -132.4 L-29.35 -133.55 -29.35 -134.7 -29.05 -135.15 -28.8 -135.35 -53.95 -136.25 Q-56.15 -136.45 -57.65 -137.95 L-57.85 -138.5 Q-59.55 -142.05 -59.45 -146.05 L-59.55 -146.6 -59.9 -147.2 Q-61.8 -151.1 -62.75 -155.25 L-63.05 -155.85 -63.5 -157.55 Q-64.45 -162.5 -66.3 -167.4 L-66.3 -167.6 Q-71.7 -166.25 -75.35 -169.5 L-75.5 -170.1 Q-75.8 -171.8 -74.55 -172.95 L-74.0 -173.35 -73.6 -173.5 -72.65 -173.65 -72.65 -173.75 -62.15 -172.8 Q-60.75 -172.6 -60.45 -171.05 -56.95 -155.8 -52.05 -141.8 -36.6 -142.95 -22.1 -139.7 -18.05 -141.2 -13.15 -140.8 L-11.25 -141.15 -10.3 -141.4 18.35 -140.75 18.35 -140.85 Q31.05 -149.25 39.75 -162.0 L39.9 -162.6 39.95 -163.15 40.1 -163.75 41.3 -164.85 42.8 -166.05 Q43.65 -168.35 45.05 -170.25 45.7 -171.15 46.65 -171.8 L47.05 -175.85 Q47.1 -177.3 48.4 -178.0 L48.8 -178.1 49.7 -178.25 49.75 -178.35" fill="#000000" fill-rule="evenodd" stroke="none"/>
  </g>
</svg>
