<?xml version="1.0" encoding="UTF-8" standalone="no"?>
<svg xmlns:ffdec="https://www.free-decompiler.com/flash" xmlns:xlink="http://www.w3.org/1999/xlink" ffdec:objectType="shape" height="141.0px" width="125.65px" xmlns="http://www.w3.org/2000/svg">
  <g transform="matrix(1.0, 0.0, 0.0, 1.0, 54.65, 229.75)">
    <path d="M-37.65 -212.75 L-37.65 -212.45 -37.05 -211.75 Q-35.45 -208.35 -31.85 -209.0 L-31.7 -209.2 -31.5 -209.45 Q-30.45 -209.8 -29.55 -210.5 L-28.8 -210.25 -28.9 -209.1 Q-29.3 -206.25 -29.2 -203.3 L-29.0 -203.05 -28.8 -202.75 -28.8 -202.45 -28.7 -201.6 Q-28.0 -201.0 -27.05 -200.7 -21.9 -202.75 -17.75 -206.2 -16.45 -206.0 -15.35 -205.25 -13.25 -203.35 -10.55 -204.95 L-10.3 -207.0 Q-10.05 -210.9 -10.35 -214.75 L-9.3 -214.75 -1.55 -210.65 -0.7 -210.35 Q3.25 -209.7 2.7 -214.0 L2.85 -214.3 3.75 -216.3 4.6 -216.25 5.8 -216.45 Q8.9 -218.0 8.65 -221.55 L8.65 -221.9 Q8.45 -224.75 9.5 -227.05 L10.0 -227.05 10.65 -226.45 12.45 -224.55 Q14.7 -221.5 17.3 -223.0 L17.3 -223.3 17.3 -223.6 17.6 -223.85 Q18.5 -224.7 18.45 -225.9 L18.65 -226.15 Q19.55 -227.5 20.0 -229.05 L20.3 -229.35 20.55 -229.65 Q20.8 -229.9 20.75 -229.55 L20.75 -228.95 21.0 -228.65 21.15 -228.4 21.15 -227.8 21.15 -226.65 21.9 -225.8 21.9 -225.5 21.9 -225.2 22.1 -224.9 22.3 -224.65 22.3 -224.35 22.3 -224.05 22.5 -223.75 22.7 -223.5 22.7 -223.2 22.7 -222.9 23.1 -221.9 Q24.0 -220.25 25.65 -221.35 L28.55 -221.85 39.1 -221.75 Q34.55 -217.85 31.15 -213.1 L31.1 -212.8 Q31.05 -212.35 31.25 -211.95 L32.45 -211.45 41.2 -209.1 Q40.5 -208.2 39.55 -207.65 38.3 -207.0 36.95 -206.7 33.0 -205.85 30.35 -203.05 L30.35 -202.45 30.35 -201.3 Q31.55 -199.7 33.05 -198.7 33.35 -198.05 34.1 -197.95 L35.75 -195.35 35.65 -195.1 35.35 -194.75 30.65 -193.95 28.9 -193.7 Q25.35 -193.75 23.05 -192.25 L23.05 -192.0 23.15 -190.85 23.45 -190.55 Q23.9 -189.9 23.85 -189.1 L25.75 -186.2 25.75 -185.95 25.75 -184.8 Q23.7 -184.6 21.7 -185.35 L19.75 -186.2 Q15.95 -188.0 12.3 -186.7 L12.3 -186.1 Q12.3 -185.05 12.7 -184.1 14.2 -182.3 14.8 -180.35 10.1 -178.9 6.55 -175.75 L6.55 -175.45 6.65 -174.3 Q9.5 -172.45 12.3 -171.05 L12.15 -170.8 Q9.2 -168.4 9.7 -164.7 L10.6 -164.4 15.0 -163.75 15.05 -163.2 Q15.4 -160.55 13.85 -158.55 L13.85 -157.7 Q13.75 -155.8 13.95 -153.95 14.45 -153.55 15.05 -153.45 L19.2 -152.9 23.85 -152.3 23.7 -152.05 23.45 -151.75 23.4 -150.3 Q23.2 -146.4 27.0 -147.25 30.5 -151.85 34.95 -154.8 35.8 -151.1 37.6 -147.8 38.35 -146.55 39.7 -145.9 40.65 -145.5 41.4 -145.9 45.55 -148.15 49.4 -151.15 L49.5 -151.45 49.75 -151.95 Q53.35 -147.15 56.5 -142.05 57.55 -140.3 59.1 -141.3 63.45 -144.1 68.0 -144.35 L68.0 -143.75 Q68.05 -141.7 67.55 -139.75 L67.25 -139.45 67.2 -139.15 67.15 -138.6 66.85 -138.3 66.85 -138.0 66.75 -137.45 66.45 -137.15 66.45 -136.55 66.45 -134.85 69.85 -131.65 69.9 -131.4 69.95 -131.1 70.15 -130.85 Q70.95 -130.05 71.0 -129.1 L61.5 -128.6 Q60.15 -128.5 59.55 -127.35 L59.55 -126.75 59.55 -124.45 60.7 -123.3 60.7 -123.05 60.8 -122.45 61.5 -121.9 61.5 -121.6 Q61.95 -120.35 62.65 -119.3 L62.7 -119.0 Q63.3 -117.8 63.4 -116.4 59.45 -116.95 55.6 -118.2 50.25 -119.95 48.05 -115.25 L48.05 -114.65 Q48.1 -112.8 46.9 -111.8 L45.9 -112.65 Q44.35 -113.75 43.15 -115.15 39.4 -119.45 34.95 -116.4 L34.95 -116.1 34.9 -115.55 34.6 -115.25 34.55 -114.95 33.8 -113.25 33.85 -112.95 Q33.95 -111.75 33.05 -110.95 L33.05 -110.35 32.95 -108.7 31.9 -109.1 Q31.35 -109.25 31.0 -109.55 28.0 -112.0 25.35 -110.45 L25.6 -108.2 Q26.45 -103.65 27.65 -99.2 L19.8 -99.45 Q18.45 -99.4 17.7 -98.25 L17.5 -97.7 Q16.9 -96.3 16.65 -94.8 15.95 -94.55 15.75 -93.95 L15.65 -93.4 Q14.8 -91.1 14.3 -88.75 L13.95 -88.75 Q10.75 -93.85 4.75 -92.65 L-3.35 -91.9 -3.1 -92.2 -2.7 -92.8 -2.7 -93.05 -2.7 -93.95 -2.85 -94.2 -3.25 -95.1 Q-7.45 -98.25 -12.1 -100.65 L-10.8 -101.05 Q-5.5 -101.75 -5.75 -106.6 L-15.45 -112.45 Q-11.95 -114.15 -9.2 -116.6 -11.2 -121.25 -15.85 -118.3 -19.15 -116.25 -22.25 -116.7 L-22.6 -119.85 Q-23.35 -123.45 -26.5 -123.3 L-26.6 -123.1 Q-27.7 -119.7 -29.55 -116.8 L-29.95 -116.8 -30.2 -117.1 -30.7 -117.95 Q-30.9 -119.35 -31.85 -120.45 L-33.35 -122.4 Q-33.9 -123.15 -34.75 -123.4 -40.2 -124.8 -45.9 -125.45 -44.85 -127.1 -42.9 -128.0 L-42.75 -128.3 -41.85 -130.05 -41.85 -130.35 -41.85 -131.2 Q-43.6 -134.6 -46.1 -137.55 L-40.55 -138.0 Q-39.9 -138.1 -39.35 -138.5 L-39.25 -138.8 -39.15 -139.65 -39.35 -139.95 -39.55 -140.2 -39.55 -140.5 -39.65 -141.35 -39.85 -141.65 -40.3 -142.25 -40.5 -142.8 Q-41.6 -145.1 -41.45 -147.7 -47.6 -150.9 -54.65 -152.3 -51.0 -152.5 -48.5 -154.8 L-48.4 -155.4 -48.4 -156.55 -48.6 -156.85 Q-49.2 -157.75 -49.35 -158.85 -52.3 -160.7 -53.2 -163.1 L-52.4 -163.3 Q-50.2 -163.8 -48.35 -164.85 -46.95 -165.65 -47.2 -167.15 L-48.75 -174.4 Q-46.65 -175.95 -44.15 -177.1 L-44.0 -177.3 -43.8 -177.85 -44.05 -178.3 Q-48.85 -181.5 -53.95 -184.3 -53.2 -184.7 -52.55 -185.2 -51.25 -186.3 -49.6 -186.6 -45.65 -187.3 -45.4 -190.55 -49.65 -194.15 -54.15 -197.15 -52.3 -197.6 -50.6 -198.3 L-50.35 -198.9 Q-49.45 -201.6 -50.3 -204.35 L-49.75 -204.4 -49.55 -204.35 Q-48.15 -203.25 -46.35 -203.1 L-45.6 -203.0 Q-43.6 -203.5 -42.65 -205.7 L-42.6 -206.0 Q-41.55 -210.7 -37.65 -213.0 L-37.65 -212.75" fill="#ffff00" fill-opacity="0.5019608" fill-rule="evenodd" stroke="none"/>
  </g>
</svg>
