<?xml version="1.0" encoding="UTF-8" standalone="no"?>
<svg xmlns:ffdec="https://www.free-decompiler.com/flash" xmlns:xlink="http://www.w3.org/1999/xlink" ffdec:objectType="shape" height="112.35px" width="97.35px" xmlns="http://www.w3.org/2000/svg">
  <g transform="matrix(1.0, 0.0, 0.0, 1.0, 41.15, 213.75)">
    <path d="M19.3 -210.5 Q18.05 -206.65 18.2 -202.4 18.25 -201.55 17.95 -200.7 L-1.85 -193.95 Q-4.35 -191.35 -7.65 -190.1 L-5.6 -173.3 Q-5.35 -171.35 -5.35 -169.3 -3.0 -165.9 -3.35 -161.85 L-3.5 -160.95 -1.2 -158.3 -0.9 -157.75 Q7.35 -147.1 13.05 -134.95 15.7 -136.95 19.7 -136.7 34.9 -135.75 49.05 -137.95 50.2 -138.15 51.3 -138.65 L52.6 -139.1 Q58.1 -138.0 55.25 -132.95 L54.9 -132.35 Q56.45 -124.0 47.45 -127.65 46.25 -128.15 45.85 -129.3 30.55 -131.95 15.15 -130.05 17.2 -125.1 18.85 -119.9 L18.9 -119.75 Q20.85 -116.9 20.85 -113.2 20.85 -108.3 17.4 -104.85 14.1 -101.55 9.55 -101.4 L7.95 -101.9 5.85 -101.5 Q4.45 -102.85 2.05 -103.7 L0.7 -104.85 Q-2.75 -108.3 -2.75 -113.2 -2.75 -118.1 0.7 -121.55 4.15 -125.0 9.05 -125.0 L10.25 -124.95 10.25 -125.05 Q9.25 -126.05 9.0 -127.4 L8.9 -128.5 8.65 -129.05 7.55 -130.25 7.45 -130.85 7.4 -131.55 -28.4 -129.05 -32.85 -128.9 Q-34.5 -128.95 -35.55 -130.25 L-35.75 -134.85 -35.75 -135.45 -35.75 -136.05 -35.7 -136.6 Q-35.5 -138.05 -34.2 -138.7 L-33.8 -138.85 -32.85 -139.0 -32.85 -139.1 Q-29.15 -139.2 -26.75 -136.4 L-26.5 -136.05 Q-10.3 -137.45 5.2 -136.0 L3.35 -139.3 2.2 -141.2 2.0 -141.8 1.8 -142.95 Q-3.35 -152.2 -11.1 -159.7 L-11.7 -160.25 -11.75 -160.45 Q-25.75 -158.2 -39.65 -156.7 -40.25 -156.6 -40.95 -157.2 -41.9 -167.3 -37.8 -176.5 -36.1 -180.35 -35.25 -184.35 L-34.2 -187.2 Q-36.55 -190.5 -39.55 -193.0 L-40.95 -194.15 -41.05 -195.3 -41.1 -197.05 Q-40.75 -198.2 -39.55 -198.7 L-38.25 -199.15 Q-30.2 -195.6 -28.3 -187.65 -28.05 -186.65 -28.4 -185.45 L-35.35 -162.6 Q-23.55 -165.8 -11.1 -165.9 L-10.95 -166.05 Q-13.0 -179.95 -12.3 -193.9 -12.25 -194.55 -11.45 -195.05 -0.55 -202.55 12.55 -204.9 L13.15 -211.85 Q13.25 -212.9 14.3 -213.4 L14.7 -213.5 15.65 -213.65 15.65 -213.75 Q18.65 -213.9 19.25 -211.05 L19.3 -210.5" fill="#000000" fill-rule="evenodd" stroke="none"/>
  </g>
</svg>
