<?xml version="1.0" encoding="UTF-8" standalone="no"?>
<svg xmlns:ffdec="https://www.free-decompiler.com/flash" xmlns:xlink="http://www.w3.org/1999/xlink" ffdec:objectType="shape" height="132.45px" width="125.7px" xmlns="http://www.w3.org/2000/svg">
  <g transform="matrix(1.0, 0.0, 0.0, 1.0, 59.1, 218.3)">
    <path d="M14.65 -216.75 Q16.8 -214.5 17.95 -211.55 L18.8 -211.1 Q23.05 -215.1 28.4 -217.9 L28.5 -217.35 28.6 -215.9 Q29.15 -214.35 30.7 -214.65 32.2 -216.05 34.05 -217.05 36.7 -218.4 38.95 -218.3 L36.35 -214.85 36.2 -214.3 Q35.35 -212.6 35.6 -210.8 L36.45 -210.35 36.8 -210.5 37.05 -210.4 38.4 -210.3 42.75 -210.1 51.75 -209.8 51.65 -209.75 Q46.5 -207.35 42.85 -203.05 L42.8 -202.85 42.85 -202.65 Q46.75 -200.3 50.05 -197.0 L50.2 -196.8 49.1 -196.3 Q44.55 -194.85 39.7 -195.05 L39.55 -194.95 39.4 -194.65 39.4 -193.8 39.45 -193.5 40.25 -192.6 43.8 -187.75 43.95 -187.45 41.75 -187.55 Q39.8 -187.65 38.05 -188.25 35.4 -189.15 33.5 -187.75 L33.2 -187.45 33.3 -185.75 33.55 -182.0 33.6 -181.7 31.0 -181.8 29.05 -182.2 22.95 -182.45 22.8 -182.3 22.95 -181.45 Q23.6 -178.65 26.15 -177.0 L26.3 -176.8 26.15 -176.6 20.8 -172.4 20.5 -172.1 20.5 -171.8 20.5 -171.25 20.5 -170.95 Q22.95 -169.4 25.75 -168.6 L25.8 -168.45 24.75 -166.4 20.7 -160.4 20.5 -160.1 20.5 -159.8 20.55 -159.25 20.6 -158.95 Q20.75 -158.8 20.9 -158.8 L25.05 -158.35 25.15 -158.25 24.65 -157.8 24.35 -157.5 24.3 -156.95 23.6 -154.55 Q22.7 -151.8 22.85 -148.85 L22.9 -148.55 23.75 -148.4 32.45 -149.05 32.45 -148.95 32.45 -148.4 32.45 -145.8 32.5 -145.5 Q32.95 -145.25 33.35 -145.3 36.2 -145.75 39.05 -146.85 L45.1 -149.2 45.1 -149.05 45.2 -147.9 Q45.35 -146.05 46.2 -144.4 L46.25 -144.15 Q47.2 -142.6 49.1 -143.25 51.25 -144.0 53.55 -144.35 57.8 -145.0 61.6 -146.2 L61.6 -146.1 61.65 -145.8 Q61.75 -144.3 60.75 -143.2 L60.45 -142.9 60.4 -142.35 Q59.85 -140.45 58.6 -138.8 L58.55 -138.6 58.95 -138.2 66.45 -133.8 66.6 -133.6 66.6 -133.3 66.6 -132.75 66.6 -132.45 Q61.15 -130.65 55.4 -129.65 L55.1 -129.45 Q54.95 -127.5 55.55 -125.8 56.85 -121.9 58.65 -118.2 L58.75 -117.95 57.2 -117.85 56.2 -118.25 Q54.6 -118.7 53.1 -119.45 48.95 -121.5 46.9 -118.25 L46.65 -117.95 46.1 -115.85 44.35 -111.3 44.25 -111.1 40.15 -116.2 Q37.75 -119.4 34.25 -121.05 31.9 -122.15 29.35 -121.4 L28.6 -120.05 28.6 -119.75 Q27.85 -119.35 27.6 -118.65 26.55 -116.05 25.05 -113.75 L24.75 -113.5 Q24.05 -113.7 23.6 -114.15 20.65 -116.85 16.85 -116.85 L16.7 -116.8 Q16.15 -116.2 16.1 -115.4 L15.9 -111.7 15.9 -111.4 16.45 -110.8 16.7 -110.55 16.7 -109.7 Q16.7 -108.35 17.05 -107.1 L17.05 -106.8 18.2 -105.75 18.2 -102.55 Q13.95 -103.05 10.9 -100.55 L11.1 -98.55 Q11.7 -95.35 12.65 -92.2 8.75 -92.45 5.05 -93.65 0.75 -95.1 -2.15 -92.8 L-2.15 -91.35 -2.15 -85.85 -5.4 -91.4 Q-5.65 -91.85 -6.05 -91.85 -13.4 -91.45 -20.6 -89.6 L-20.6 -90.2 -20.6 -92.8 Q-26.4 -95.95 -32.95 -97.6 -31.05 -100.0 -28.65 -102.0 L-28.65 -102.55 -28.65 -103.15 Q-32.45 -106.05 -34.2 -109.75 -30.6 -111.5 -28.25 -114.5 L-28.45 -115.05 Q-29.3 -117.2 -29.05 -119.65 -29.75 -120.85 -31.05 -120.15 -35.4 -117.8 -39.8 -116.4 L-39.8 -116.6 Q-40.15 -117.55 -40.85 -118.3 L-40.9 -118.9 Q-40.85 -120.35 -42.3 -120.5 L-54.75 -121.25 Q-54.9 -121.25 -55.05 -121.5 L-53.6 -122.15 Q-51.6 -123.55 -52.3 -125.8 L-53.5 -127.1 Q-56.5 -130.6 -59.1 -134.45 L-53.85 -134.95 Q-53.25 -135.05 -52.95 -135.6 -52.45 -136.85 -52.75 -138.15 L-54.4 -145.1 -53.8 -145.0 Q-51.4 -142.85 -49.0 -144.65 L-49.0 -145.5 Q-49.0 -146.5 -49.3 -147.45 -50.4 -150.85 -49.95 -154.35 -48.75 -153.95 -47.8 -153.05 -45.4 -150.85 -43.25 -152.3 L-43.25 -152.6 Q-42.9 -154.9 -44.4 -156.65 L-44.4 -157.2 Q-44.4 -158.55 -44.8 -159.8 -42.5 -159.2 -41.35 -160.75 -41.15 -162.35 -41.95 -163.7 -44.65 -168.55 -48.05 -172.3 -42.85 -174.6 -37.95 -177.5 L-37.9 -178.05 -37.85 -179.2 Q-41.05 -181.9 -44.7 -183.9 -46.0 -185.2 -47.85 -185.15 L-47.3 -185.4 Q-43.0 -185.5 -41.7 -188.8 L-42.65 -190.05 Q-46.0 -194.65 -50.15 -198.6 L-47.35 -198.2 Q-43.35 -197.35 -41.35 -200.35 L-41.1 -202.4 -40.2 -208.1 -37.85 -206.75 Q-37.2 -206.0 -36.1 -205.85 -35.35 -205.75 -34.9 -206.15 -31.3 -209.15 -27.6 -211.1 L-27.45 -210.8 Q-26.75 -208.95 -26.35 -207.05 -24.5 -204.75 -21.9 -206.1 -19.05 -207.6 -16.25 -208.1 L-16.05 -207.55 -15.95 -206.4 -15.8 -206.1 -15.6 -205.8 -15.6 -205.25 Q-15.8 -203.1 -15.1 -201.2 -14.3 -200.4 -13.45 -201.1 -10.45 -203.7 -6.75 -204.0 -5.6 -203.0 -4.05 -202.85 -2.8 -201.2 -0.9 -202.15 -0.1 -203.95 0.15 -205.9 0.7 -210.2 2.0 -214.25 2.8 -213.8 3.8 -213.6 5.65 -211.65 8.15 -210.55 8.45 -210.4 8.6 -210.7 10.65 -214.4 13.7 -217.15 L14.0 -217.7 14.2 -217.9 14.35 -217.35 14.35 -217.05 14.65 -216.75" fill="#ffff00" fill-opacity="0.5019608" fill-rule="evenodd" stroke="none"/>
  </g>
</svg>
