<?xml version="1.0" encoding="UTF-8" standalone="no"?>
<svg xmlns:ffdec="https://www.free-decompiler.com/flash" xmlns:xlink="http://www.w3.org/1999/xlink" ffdec:objectType="shape" height="106.35px" width="95.15px" xmlns="http://www.w3.org/2000/svg">
  <g transform="matrix(1.0, 0.0, 0.0, 1.0, 44.15, 204.55)">
    <path d="M31.7 -201.85 L31.8 -201.25 Q30.25 -192.4 20.4 -192.8 13.65 -193.1 7.15 -191.65 6.6 -184.4 8.0 -177.65 L9.2 -170.95 9.4 -167.65 Q10.5 -165.4 10.05 -162.1 9.7 -159.2 10.15 -156.3 11.15 -150.7 11.5 -144.9 L11.75 -137.35 23.5 -137.4 36.75 -137.85 Q39.5 -138.05 42.1 -139.2 43.35 -139.75 44.3 -139.9 49.45 -141.35 50.95 -137.15 L51.0 -136.6 Q50.25 -134.75 49.05 -133.15 47.75 -131.4 45.65 -130.85 44.8 -125.2 39.65 -128.4 38.45 -129.15 37.75 -130.45 L11.55 -131.75 Q10.7 -118.9 6.55 -106.8 L6.1 -106.4 Q5.25 -103.75 3.15 -101.65 -0.15 -98.35 -4.7 -98.2 L-6.3 -98.7 -8.4 -98.3 Q-9.8 -99.65 -12.2 -100.5 L-13.55 -101.65 Q-17.0 -105.1 -17.0 -110.0 -17.0 -114.9 -13.55 -118.35 -10.1 -121.8 -5.2 -121.8 -0.35 -121.8 3.05 -118.45 L4.1 -124.0 Q4.95 -127.9 5.25 -131.95 -12.65 -132.45 -31.1 -132.1 -37.3 -125.45 -43.85 -132.0 L-44.15 -134.3 -43.85 -136.6 -42.85 -137.7 -42.1 -138.35 -42.55 -138.9 -43.1 -139.5 -43.2 -140.65 -43.25 -142.4 Q-42.9 -143.55 -41.7 -144.05 L-40.4 -144.5 Q-34.7 -142.85 -33.7 -136.6 L-33.65 -136.3 Q-14.15 -137.1 5.4 -137.3 L5.3 -140.65 4.1 -163.25 Q0.1 -161.35 -5.2 -161.65 L-7.15 -161.5 Q-19.0 -158.95 -30.9 -160.4 -31.65 -160.45 -32.3 -161.05 -30.65 -172.6 -27.8 -184.1 L-26.7 -189.35 Q-30.25 -190.6 -33.4 -193.05 L-33.85 -193.55 -34.0 -194.15 -34.0 -194.7 -33.85 -195.85 -32.75 -196.85 Q-31.85 -197.5 -31.15 -197.6 -25.2 -196.55 -21.3 -192.65 -20.45 -191.8 -20.6 -190.3 -21.85 -180.1 -25.0 -170.65 -25.3 -169.55 -25.2 -168.35 -25.05 -167.15 -25.4 -166.05 L-25.55 -165.65 Q-11.2 -166.25 2.8 -169.45 2.15 -179.6 1.0 -189.7 0.1 -197.8 8.85 -198.5 L25.05 -200.3 Q25.2 -201.75 25.85 -203.05 L26.75 -204.15 27.15 -204.3 28.1 -204.45 28.1 -204.55 Q31.15 -204.7 31.7 -201.85" fill="#000000" fill-rule="evenodd" stroke="none"/>
  </g>
</svg>
