<?xml version="1.0" encoding="UTF-8" standalone="no"?>
<svg xmlns:ffdec="https://www.free-decompiler.com/flash" xmlns:xlink="http://www.w3.org/1999/xlink" ffdec:objectType="shape" height="98.85px" width="106.8px" xmlns="http://www.w3.org/2000/svg">
  <g transform="matrix(1.0, 0.0, 0.0, 1.0, 42.35, 203.8)">
    <path d="M9.25 -203.5 L10.15 -203.65 10.2 -203.75 Q14.5 -204.2 16.55 -200.5 L16.9 -199.9 17.85 -199.3 18.65 -198.75 Q19.15 -191.0 12.1 -185.55 8.55 -182.8 6.15 -179.15 L0.7 -172.8 Q-0.25 -171.8 -0.8 -170.45 L0.95 -170.2 Q10.65 -170.15 20.05 -168.25 L22.1 -167.65 Q23.85 -174.05 27.35 -180.05 29.1 -183.05 29.8 -186.65 37.0 -192.65 46.95 -187.95 50.8 -186.15 54.05 -183.55 56.3 -187.4 59.85 -190.65 L60.4 -191.05 60.8 -191.2 61.75 -191.35 61.75 -191.45 Q67.6 -187.65 60.85 -182.9 L60.2 -182.4 Q58.7 -173.75 51.7 -177.8 L45.3 -181.25 Q40.7 -183.6 35.6 -183.75 34.05 -177.2 30.9 -171.2 L29.25 -168.75 26.95 -163.55 26.5 -162.6 24.75 -159.25 Q24.35 -158.45 23.25 -157.95 L22.65 -158.05 Q19.7 -152.55 15.65 -147.9 14.95 -147.1 14.8 -146.05 13.7 -145.5 13.35 -144.35 13.05 -143.35 12.3 -142.55 L9.85 -137.4 Q24.75 -137.35 39.65 -137.65 L41.55 -137.7 Q49.05 -138.0 48.2 -130.85 48.05 -129.65 46.9 -129.2 42.25 -127.25 39.8 -130.65 L7.15 -131.05 6.4 -129.2 Q5.75 -127.65 4.6 -126.4 3.85 -124.15 3.5 -121.8 3.3 -120.45 2.3 -119.5 1.7 -117.3 0.2 -115.4 -0.4 -114.65 -0.6 -113.7 L-1.35 -113.05 Q-2.15 -110.5 -4.25 -108.4 -7.55 -105.1 -12.1 -104.95 L-13.7 -105.45 -15.8 -105.05 Q-17.2 -106.4 -19.6 -107.25 L-20.95 -108.4 Q-24.4 -111.85 -24.4 -116.75 -24.4 -121.65 -20.95 -125.1 -17.5 -128.55 -12.6 -128.55 -7.7 -128.55 -4.25 -125.1 L-3.2 -123.95 -2.2 -126.35 Q-1.45 -127.9 -0.95 -129.7 L-0.15 -131.2 -6.0 -131.35 -9.8 -131.85 -11.2 -132.0 -30.25 -133.2 -31.05 -132.55 Q-32.5 -131.6 -32.9 -129.85 -36.9 -127.55 -41.15 -130.5 L-41.75 -131.0 -42.3 -134.45 Q-42.65 -137.6 -40.4 -139.5 L-40.05 -139.6 -39.1 -139.8 -39.1 -139.9 Q-35.15 -139.85 -32.35 -138.2 L-32.15 -138.25 -32.15 -138.35 -10.05 -137.65 -6.15 -137.55 3.0 -137.45 4.85 -141.2 Q5.45 -142.45 6.35 -143.55 9.9 -151.95 15.85 -159.2 16.65 -160.15 16.75 -161.45 L17.75 -162.35 17.7 -162.4 Q3.0 -162.05 -10.2 -166.45 -10.15 -173.15 -3.9 -177.4 L-2.45 -178.7 2.5 -183.75 Q6.4 -189.15 11.1 -194.05 11.85 -194.8 12.1 -195.85 L11.65 -196.4 10.25 -197.65 10.0 -198.0 Q9.4 -198.2 8.9 -198.5 8.15 -198.95 7.5 -199.55 L7.35 -200.7 Q7.25 -202.5 8.85 -203.4 L9.25 -203.5" fill="#000000" fill-rule="evenodd" stroke="none"/>
  </g>
</svg>
