<?xml version="1.0" encoding="UTF-8" standalone="no"?>
<svg xmlns:ffdec="https://www.free-decompiler.com/flash" xmlns:xlink="http://www.w3.org/1999/xlink" ffdec:objectType="shape" height="121.2px" width="169.5px" xmlns="http://www.w3.org/2000/svg">
  <g transform="matrix(1.0, 0.0, 0.0, 1.0, 66.65, 216.1)">
    <path d="M34.25 -199.9 L35.1 -199.05 Q39.7 -194.0 46.2 -194.95 L46.25 -195.55 Q46.1 -198.4 44.65 -200.7 L44.95 -201.0 45.4 -201.1 Q45.9 -201.15 46.2 -201.5 46.6 -202.25 46.2 -202.95 L41.1 -211.55 Q43.4 -211.15 45.6 -210.35 49.25 -209.0 52.7 -209.15 L52.8 -209.45 Q54.0 -213.1 56.35 -216.1 L57.1 -214.1 58.75 -205.8 61.35 -205.9 Q68.9 -207.9 75.95 -207.65 73.45 -203.85 71.35 -199.85 69.75 -198.95 69.45 -197.25 70.05 -196.2 71.45 -196.3 75.0 -194.95 77.9 -192.85 75.8 -191.25 73.35 -190.35 L71.8 -189.9 Q66.6 -188.75 64.05 -184.95 65.4 -183.45 67.6 -183.35 69.8 -182.7 71.35 -181.25 L71.35 -180.65 Q71.45 -177.75 69.8 -175.45 L69.8 -175.2 69.9 -174.3 Q70.35 -174.05 70.75 -174.1 L83.25 -174.5 83.25 -173.6 Q82.75 -171.25 82.9 -168.75 L83.4 -168.35 Q86.35 -167.55 89.1 -170.2 L90.15 -170.1 Q89.6 -169.05 89.5 -167.8 89.1 -163.75 89.1 -159.7 L98.7 -159.15 98.45 -158.3 Q97.35 -153.8 94.4 -150.2 L94.4 -149.9 Q94.35 -148.8 93.65 -147.9 L93.65 -147.35 93.65 -146.45 Q94.2 -145.45 95.35 -145.3 99.75 -142.65 102.85 -138.5 L101.95 -137.65 Q98.0 -135.9 94.8 -133.2 94.8 -132.8 94.95 -132.45 96.9 -128.5 99.7 -124.85 L99.2 -124.75 Q96.25 -125.9 92.95 -126.05 91.85 -126.1 91.15 -125.6 87.05 -122.7 84.9 -117.85 L83.85 -117.25 Q78.95 -122.75 74.55 -128.45 73.55 -129.7 72.05 -129.0 70.15 -128.15 68.75 -128.3 68.2 -129.1 68.15 -130.05 67.95 -134.1 67.15 -138.1 L66.6 -138.6 65.15 -138.55 Q62.35 -136.45 60.2 -133.7 58.1 -134.8 56.75 -133.5 56.6 -132.4 56.9 -131.45 58.05 -127.65 58.6 -123.9 55.2 -125.55 52.55 -123.9 L52.55 -121.9 52.55 -114.1 52.15 -114.1 Q48.7 -117.2 44.65 -119.5 L43.15 -120.65 Q39.55 -124.1 34.85 -123.6 L34.1 -123.25 Q32.0 -120.95 30.25 -118.25 L30.25 -117.95 Q30.2 -114.4 27.65 -112.0 26.8 -111.95 26.6 -112.65 24.5 -117.7 21.55 -122.25 20.95 -123.1 20.05 -123.2 L16.05 -122.8 Q14.95 -122.4 14.1 -121.2 L14.1 -120.9 13.9 -120.35 12.95 -119.45 12.95 -119.2 12.85 -118.9 12.5 -118.6 Q9.55 -119.65 7.35 -122.1 4.45 -125.35 1.45 -123.3 L1.45 -120.15 Q1.55 -115.45 2.7 -110.95 L2.95 -110.6 3.25 -110.05 -0.05 -112.6 Q-2.85 -115.1 -5.5 -113.5 L-5.6 -110.95 Q-5.95 -106.55 -4.4 -102.55 -5.6 -103.6 -7.2 -104.1 -8.0 -105.35 -9.6 -105.25 -13.05 -108.05 -15.75 -104.95 L-15.95 -104.45 Q-18.0 -100.95 -17.75 -96.9 L-17.95 -96.6 -18.15 -96.35 -18.15 -95.75 -18.25 -94.9 -26.6 -102.5 Q-31.85 -107.4 -36.2 -101.4 L-36.2 -101.15 -36.2 -100.85 -37.25 -100.0 -37.35 -99.7 Q-37.7 -97.85 -39.2 -97.3 L-39.3 -97.55 Q-41.65 -101.05 -42.35 -105.05 -45.3 -108.4 -49.25 -109.1 L-48.75 -109.5 Q-45.7 -111.5 -46.7 -115.25 -49.45 -118.35 -52.9 -120.25 -54.4 -121.25 -55.5 -122.45 -53.35 -124.35 -50.6 -125.45 -50.3 -126.5 -49.35 -127.15 L-49.3 -127.75 -49.25 -128.9 -60.05 -136.85 Q-56.75 -138.1 -57.45 -141.75 -57.85 -143.6 -58.6 -145.3 -61.85 -152.55 -66.65 -159.05 L-61.3 -156.45 Q-59.65 -155.05 -57.55 -155.15 -56.85 -155.15 -56.8 -155.8 -56.25 -160.25 -54.65 -164.3 -52.65 -161.95 -51.25 -159.1 -49.85 -156.15 -47.55 -153.85 -47.25 -153.55 -47.0 -153.75 -43.85 -156.1 -43.15 -160.4 L-42.45 -160.95 -42.35 -161.25 -42.25 -161.85 -41.4 -162.3 -40.9 -161.9 -40.2 -159.6 Q-38.9 -155.15 -37.05 -150.95 L-37.0 -150.7 -36.9 -150.1 Q-34.25 -148.5 -32.25 -150.6 L-26.2 -156.45 Q-25.05 -154.25 -24.35 -151.9 -23.0 -147.5 -19.8 -149.45 L-19.75 -149.75 -19.7 -150.6 -19.45 -150.9 Q-18.25 -153.0 -17.4 -155.2 L-17.0 -155.2 -16.55 -154.7 Q-12.55 -150.75 -10.1 -146.0 -8.2 -143.45 -5.5 -143.7 L-5.3 -143.9 -4.35 -145.0 -4.35 -145.3 -4.35 -145.6 Q-3.65 -146.2 -3.5 -147.05 L-2.4 -155.1 Q-0.85 -154.95 0.4 -153.95 3.75 -151.35 5.65 -154.6 L5.65 -155.8 Q5.5 -159.3 5.85 -162.6 11.0 -159.95 16.25 -157.7 L16.9 -158.0 17.05 -158.3 Q17.3 -158.85 17.1 -159.45 L12.5 -163.25 12.6 -163.5 13.75 -165.0 Q13.7 -166.6 12.2 -167.4 L1.05 -173.15 Q6.25 -174.75 10.65 -177.65 10.95 -180.45 8.55 -182.0 L7.4 -183.15 7.2 -183.45 6.55 -184.3 Q8.3 -184.15 9.85 -183.45 12.4 -182.3 15.1 -182.15 15.5 -182.15 15.7 -182.5 17.75 -186.7 17.2 -191.6 20.7 -189.2 23.8 -186.3 26.7 -183.5 29.85 -185.35 L29.85 -185.65 29.85 -185.95 30.05 -186.2 30.25 -186.5 Q30.4 -190.3 29.85 -193.95 29.1 -199.5 27.95 -204.95 31.4 -202.9 34.25 -199.9" fill="#ffff00" fill-opacity="0.5019608" fill-rule="evenodd" stroke="none"/>
  </g>
</svg>
