<?xml version="1.0" encoding="UTF-8" standalone="no"?>
<svg xmlns:ffdec="https://www.free-decompiler.com/flash" xmlns:xlink="http://www.w3.org/1999/xlink" ffdec:objectType="shape" height="86.45px" width="137.45px" xmlns="http://www.w3.org/2000/svg">
  <g transform="matrix(1.0, 0.0, 0.0, 1.0, 48.15, 196.85)">
    <path d="M88.25 -142.35 Q89.3 -141.75 89.3 -140.45 83.45 -133.8 77.3 -140.35 76.2 -141.55 75.8 -143.35 L75.4 -143.9 74.9 -144.5 74.45 -145.05 74.3 -145.65 74.25 -146.2 74.1 -146.8 73.6 -147.25 Q72.55 -147.95 72.2 -149.15 L71.95 -150.25 68.25 -154.85 Q66.35 -157.35 63.5 -158.95 48.25 -157.1 33.5 -151.6 L31.75 -150.45 Q29.7 -149.1 27.3 -148.55 20.25 -144.45 13.1 -140.65 L38.2 -137.8 Q39.05 -137.65 40.05 -138.05 45.4 -140.1 48.4 -136.4 49.85 -134.65 48.3 -132.9 43.3 -127.1 37.9 -130.65 L27.1 -132.3 4.35 -135.2 Q-5.85 -126.7 -16.4 -119.05 -17.2 -116.15 -19.5 -113.85 -22.8 -110.55 -27.35 -110.4 L-28.95 -110.9 -31.05 -110.5 Q-32.45 -111.85 -34.85 -112.7 L-36.2 -113.85 Q-39.65 -117.3 -39.65 -122.2 -39.65 -127.1 -36.2 -130.55 -32.75 -134.0 -27.85 -134.0 -22.95 -134.0 -19.5 -130.55 -17.6 -128.65 -16.75 -126.35 L-4.05 -136.0 -38.1 -138.1 -38.55 -138.15 Q-41.2 -135.65 -45.25 -137.85 -46.5 -138.5 -47.9 -139.5 -48.25 -140.9 -48.15 -142.4 L-48.1 -144.7 Q-47.75 -145.85 -46.55 -146.35 L-45.25 -146.8 Q-40.35 -146.05 -36.85 -142.85 L-36.8 -142.85 -36.75 -142.95 2.5 -141.6 Q9.2 -146.85 16.8 -150.9 L25.25 -155.05 24.5 -157.75 24.25 -159.5 Q22.75 -161.0 22.2 -163.0 L21.95 -164.1 21.0 -165.3 20.6 -165.85 Q20.3 -167.75 19.2 -169.3 L18.3 -170.45 Q17.95 -173.05 17.95 -175.65 17.95 -176.55 18.3 -177.4 23.5 -183.05 31.0 -184.9 36.4 -187.7 42.5 -188.75 44.1 -190.15 46.35 -190.3 L48.15 -195.35 48.85 -196.45 49.25 -196.6 50.2 -196.75 50.2 -196.85 Q53.25 -197.0 53.8 -194.15 L53.9 -193.55 Q52.9 -190.25 51.45 -187.2 L51.0 -186.05 Q40.65 -181.35 29.45 -178.35 L23.85 -174.3 25.95 -169.6 26.15 -168.55 27.4 -166.2 27.7 -165.1 Q31.0 -161.25 31.1 -157.45 45.05 -162.95 60.25 -165.3 69.65 -165.35 75.0 -157.15 L77.45 -153.3 Q80.15 -148.85 82.15 -144.1 85.35 -144.1 88.25 -142.35" fill="#000000" fill-rule="evenodd" stroke="none"/>
  </g>
</svg>
