<?xml version="1.0" encoding="UTF-8" standalone="no"?>
<svg xmlns:ffdec="https://www.free-decompiler.com/flash" xmlns:xlink="http://www.w3.org/1999/xlink" ffdec:objectType="shape" height="95.8px" width="160.9px" xmlns="http://www.w3.org/2000/svg">
  <g transform="matrix(1.0, 0.0, 0.0, 1.0, 74.8, 187.15)">
    <path d="M82.8 -170.1 L81.6 -169.35 Q77.95 -167.3 75.3 -164.05 L75.3 -163.45 75.3 -162.9 75.3 -162.6 77.55 -159.95 Q79.4 -157.45 80.7 -154.8 L74.4 -154.2 Q72.95 -154.0 72.25 -152.7 72.25 -151.55 72.4 -150.4 72.5 -149.6 73.0 -148.95 L73.05 -148.65 Q73.1 -147.95 73.45 -147.25 L73.8 -146.65 73.8 -146.35 73.8 -146.1 74.0 -145.8 74.15 -145.5 74.2 -144.95 74.3 -144.35 74.45 -144.05 65.35 -143.4 64.95 -143.1 64.95 -142.25 64.95 -141.65 64.95 -141.35 65.75 -139.95 66.1 -139.35 66.1 -138.8 66.1 -138.2 66.1 -137.9 66.4 -137.65 66.65 -137.35 66.85 -137.05 Q66.75 -135.7 67.15 -134.5 L67.75 -132.45 Q72.05 -132.15 75.3 -130.4 L75.3 -129.85 75.3 -129.25 75.25 -129.0 74.95 -128.7 74.95 -128.4 74.9 -128.1 74.85 -127.85 74.55 -127.55 74.3 -127.25 74.15 -126.95 74.15 -126.4 74.2 -125.8 74.25 -125.5 74.55 -125.35 78.35 -124.75 80.1 -124.6 Q83.55 -124.65 85.0 -122.75 L84.8 -122.5 84.15 -121.6 84.05 -121.3 82.5 -120.2 81.85 -119.3 81.85 -118.7 81.9 -118.15 81.95 -117.85 Q82.55 -116.75 83.55 -116.05 85.4 -114.85 86.1 -112.95 L84.35 -112.6 Q83.25 -112.3 82.6 -111.3 L82.6 -108.45 82.6 -106.4 Q83.75 -105.0 84.45 -103.25 85.25 -101.3 85.7 -99.2 82.3 -100.2 79.0 -101.7 L78.25 -101.95 Q75.95 -102.3 74.15 -101.35 70.35 -99.4 68.4 -95.2 68.4 -94.05 67.65 -93.05 L66.3 -91.55 62.55 -96.7 Q61.75 -97.65 60.5 -97.85 54.2 -98.9 48.35 -96.15 L49.5 -98.5 Q50.3 -100.2 51.5 -101.6 L51.55 -102.75 Q51.75 -104.45 50.45 -105.35 47.95 -107.0 45.35 -107.75 L45.35 -108.6 Q45.25 -109.8 45.9 -110.75 47.0 -112.2 46.9 -114.1 L47.1 -114.4 47.3 -114.65 47.3 -115.25 47.3 -116.4 47.3 -117.0 46.75 -117.4 45.45 -117.3 Q43.7 -116.15 41.7 -116.1 L39.8 -117.55 30.55 -125.8 30.2 -125.7 30.0 -125.6 29.8 -125.45 Q29.45 -123.5 29.4 -121.4 29.35 -119.0 30.0 -116.8 L28.4 -117.0 Q27.1 -117.4 26.55 -116.2 26.45 -114.0 28.0 -112.3 32.1 -107.9 35.35 -102.95 L32.05 -103.3 29.8 -103.95 Q26.45 -105.1 23.85 -103.55 L23.9 -99.2 23.75 -94.7 Q23.1 -94.65 22.65 -95.05 19.7 -97.55 16.35 -99.4 L16.0 -99.85 12.25 -99.75 Q8.1 -95.9 4.85 -91.35 2.8 -96.6 0.2 -101.7 L-0.55 -103.55 Q-1.25 -105.55 -3.3 -105.85 L-11.5 -106.7 -11.4 -108.15 Q-10.55 -113.85 -15.8 -115.55 -19.2 -116.7 -22.25 -118.15 L-22.3 -118.4 -22.35 -118.7 Q-24.7 -121.35 -27.0 -118.45 -30.4 -114.0 -32.55 -108.8 L-32.9 -109.2 Q-33.95 -110.0 -34.45 -111.15 -36.1 -114.85 -39.3 -117.05 L-40.75 -117.1 Q-43.35 -115.35 -45.3 -112.85 L-45.3 -112.55 -45.3 -112.25 -45.95 -111.3 Q-47.3 -109.35 -49.35 -110.55 -52.15 -113.55 -55.9 -115.5 -60.45 -117.85 -65.3 -115.55 -64.7 -117.3 -64.75 -119.3 -64.8 -121.35 -65.35 -123.3 L-66.5 -124.6 Q-70.4 -128.35 -74.8 -131.4 L-73.6 -132.2 -73.25 -132.55 Q-70.0 -132.9 -67.1 -134.55 L-66.95 -134.85 -66.35 -135.75 -66.15 -136.0 Q-65.95 -138.05 -66.85 -140.0 L-68.95 -145.1 -67.4 -144.55 Q-64.45 -143.3 -62.2 -144.65 -62.15 -145.8 -62.45 -146.9 -63.4 -150.2 -63.7 -153.55 L-63.95 -154.25 Q-67.2 -157.65 -71.7 -159.7 -71.35 -160.5 -70.3 -160.65 -68.95 -160.85 -68.05 -161.75 L-68.0 -162.3 -67.95 -163.15 -67.95 -163.45 -68.15 -163.75 -68.35 -164.05 -68.35 -164.6 -68.35 -164.9 -68.45 -165.2 -70.1 -166.95 -71.35 -168.75 Q-73.6 -171.55 -74.1 -175.0 -69.45 -173.2 -64.8 -172.95 -64.65 -175.95 -65.85 -179.1 -67.3 -182.95 -67.6 -187.1 L-67.0 -187.15 -66.8 -187.1 -62.65 -183.35 -57.9 -179.35 -54.05 -175.95 -54.15 -175.75 Q-53.6 -174.8 -52.8 -174.95 L-50.85 -173.45 -50.5 -173.55 -50.3 -173.65 -50.1 -173.85 -49.95 -174.4 -49.9 -174.7 -49.9 -175.0 -51.6 -176.5 Q-49.25 -181.95 -45.5 -185.75 L-45.25 -184.85 Q-44.0 -179.5 -44.05 -173.95 L-43.25 -173.8 -29.15 -176.9 Q-29.5 -175.45 -30.25 -174.1 L-34.95 -165.75 -34.5 -165.45 -27.45 -164.9 -27.55 -164.6 Q-28.35 -161.5 -29.65 -158.55 L-29.85 -158.25 Q-29.95 -157.8 -30.3 -157.4 L-30.3 -156.85 -30.2 -156.25 Q-29.6 -155.55 -28.7 -156.0 -25.85 -157.35 -23.4 -156.85 L-23.4 -155.95 -23.3 -148.2 Q-21.05 -147.2 -19.05 -149.15 -16.95 -151.2 -14.95 -151.75 -13.65 -148.75 -10.9 -146.95 L-10.55 -147.05 Q-10.0 -147.35 -9.5 -147.6 -8.6 -149.75 -7.0 -151.35 L-6.9 -151.65 -5.75 -153.65 -4.95 -153.65 -3.85 -152.45 Q-1.7 -149.85 1.0 -150.4 L1.2 -151.25 1.2 -160.2 5.5 -160.3 Q5.85 -160.65 5.8 -161.15 L5.2 -171.7 Q7.05 -170.3 9.15 -169.5 9.7 -169.3 9.9 -169.65 12.95 -174.35 15.6 -179.5 L16.05 -179.8 Q16.7 -180.2 16.55 -180.95 18.55 -177.8 20.95 -175.35 21.45 -174.9 22.0 -175.2 27.25 -178.45 29.4 -184.0 32.6 -179.65 35.25 -174.95 36.85 -172.1 39.4 -172.7 L39.55 -172.95 Q41.6 -175.9 42.55 -179.3 L44.25 -176.95 44.9 -176.35 Q47.65 -174.6 50.2 -177.25 L57.25 -183.65 59.95 -183.35 60.15 -182.75 61.6 -177.0 62.45 -176.8 Q67.05 -176.95 68.5 -181.4 69.2 -181.65 69.55 -182.3 L69.55 -176.4 69.65 -168.95 76.3 -169.35 Q80.0 -170.45 82.8 -170.1" fill="#ffff00" fill-opacity="0.5019608" fill-rule="evenodd" stroke="none"/>
  </g>
</svg>
