<?xml version="1.0" encoding="UTF-8" standalone="no"?>
<svg xmlns:ffdec="https://www.free-decompiler.com/flash" xmlns:xlink="http://www.w3.org/1999/xlink" ffdec:objectType="shape" height="154.4px" width="125.45px" xmlns="http://www.w3.org/2000/svg">
  <g transform="matrix(1.0, 0.0, 0.0, 1.0, 44.7, 186.5)">
    <path d="M19.45 -182.0 L19.45 -181.25 19.45 -179.5 19.25 -179.25 18.7 -178.65 18.75 -177.8 18.6 -176.65 18.45 -176.3 17.95 -175.45 17.95 -174.9 18.05 -174.3 25.8 -173.3 Q28.15 -172.95 29.0 -172.4 L26.95 -170.0 22.55 -165.5 22.55 -164.9 22.65 -164.35 Q29.7 -163.75 36.45 -161.85 32.75 -157.9 28.7 -154.35 L28.7 -153.75 28.8 -153.2 29.65 -152.9 Q35.5 -152.35 40.9 -150.5 37.95 -147.0 33.8 -144.95 28.95 -142.6 26.0 -138.9 30.95 -136.0 34.65 -131.6 32.3 -130.6 29.55 -130.55 24.9 -130.5 21.4 -128.5 L21.4 -127.65 21.4 -126.5 22.0 -125.35 Q22.85 -123.55 23.3 -121.6 21.6 -120.35 19.3 -120.3 15.35 -120.25 12.95 -117.75 L12.95 -117.45 12.95 -116.9 13.45 -116.35 16.8 -112.0 16.8 -111.7 16.8 -111.4 17.05 -111.1 17.15 -110.85 17.15 -110.0 17.25 -108.25 18.1 -108.05 Q24.5 -108.45 30.25 -108.05 L30.2 -107.5 Q30.15 -106.9 30.35 -106.35 33.6 -105.5 37.0 -107.45 39.9 -109.15 42.5 -109.5 42.35 -108.4 42.8 -107.45 43.85 -105.3 43.75 -102.85 L44.2 -102.25 Q44.5 -101.4 45.4 -101.4 L59.4 -101.35 59.4 -99.05 59.5 -94.4 69.05 -93.35 69.05 -91.45 68.95 -87.1 68.15 -86.3 Q66.75 -84.55 66.8 -82.5 74.2 -81.7 80.75 -78.95 L80.15 -78.4 79.4 -77.8 71.7 -71.75 71.75 -71.2 71.8 -70.6 Q76.55 -68.15 78.55 -63.8 L77.4 -63.65 Q72.8 -64.15 69.4 -61.75 L69.4 -61.5 69.4 -61.2 69.2 -60.9 69.05 -60.6 69.05 -60.05 69.05 -58.9 69.2 -58.6 69.4 -58.3 69.5 -56.9 69.8 -53.4 69.2 -53.35 69.05 -53.4 Q66.45 -54.9 63.5 -55.5 L57.0 -55.2 Q55.7 -54.8 55.2 -53.3 L55.2 -51.6 55.1 -47.55 54.8 -47.25 54.25 -47.15 Q50.75 -48.9 47.3 -48.6 L47.2 -48.3 47.15 -47.75 46.95 -47.45 46.75 -47.15 46.75 -44.3 46.75 -37.1 Q40.7 -39.55 35.75 -35.5 32.55 -32.95 29.45 -32.1 L29.45 -32.95 29.45 -34.4 Q26.15 -35.9 22.0 -34.55 18.35 -33.35 15.25 -33.55 L15.5 -34.4 15.65 -36.1 15.8 -36.4 16.0 -36.7 16.0 -38.15 16.0 -41.3 Q14.4 -42.7 12.25 -43.35 9.6 -44.95 6.4 -45.55 7.95 -46.6 9.3 -48.05 L10.35 -48.7 Q12.65 -50.5 12.55 -53.2 8.7 -55.7 4.1 -56.85 L4.0 -57.15 3.35 -58.0 3.35 -62.65 3.35 -71.25 2.85 -71.6 Q-3.65 -72.2 -9.7 -71.85 L-9.95 -72.3 -10.5 -73.2 Q-10.45 -74.3 -11.0 -75.3 -11.4 -76.05 -12.2 -76.05 -17.8 -75.95 -22.9 -74.9 L-23.55 -77.5 -24.7 -84.7 Q-25.15 -85.55 -26.05 -85.55 L-37.4 -85.35 Q-37.95 -85.35 -38.35 -85.8 -38.75 -86.9 -38.75 -88.1 -38.75 -91.45 -38.15 -94.7 L-43.55 -98.75 -43.55 -99.3 -43.55 -100.45 -43.15 -101.05 Q-42.75 -101.55 -42.65 -102.2 -41.85 -102.65 -41.2 -103.35 -39.95 -103.3 -39.3 -104.3 -38.8 -105.7 -39.15 -107.15 -40.05 -111.0 -41.6 -114.7 -38.0 -113.45 -34.6 -113.45 -34.2 -113.95 -34.2 -114.6 L-34.4 -117.2 -35.65 -118.8 Q-37.2 -121.9 -38.25 -125.25 L-35.85 -124.85 -34.15 -124.2 Q-31.25 -122.65 -28.95 -124.3 -28.75 -125.25 -29.1 -126.05 -30.4 -129.15 -32.3 -132.05 L-32.75 -132.35 -32.9 -132.65 -33.9 -134.1 -33.9 -134.65 -34.1 -135.5 -34.0 -136.1 -33.9 -136.95 Q-38.85 -140.35 -44.7 -142.15 L-44.7 -142.65 -44.6 -143.5 Q-42.35 -146.5 -38.35 -146.55 L-38.1 -147.45 Q-37.95 -148.65 -38.45 -149.75 L-39.1 -150.3 -39.7 -151.65 -41.7 -156.35 -31.15 -155.7 Q-30.8 -156.05 -30.8 -156.55 L-30.95 -158.3 -31.6 -159.25 -32.8 -161.35 Q-35.4 -166.2 -37.3 -171.15 -31.55 -169.35 -26.35 -166.45 -24.55 -165.0 -22.6 -163.85 -21.95 -164.0 -21.65 -164.6 L-21.65 -164.9 Q-22.25 -166.55 -23.95 -167.5 -22.95 -168.3 -22.75 -169.5 L-21.25 -176.15 Q-20.65 -176.05 -20.05 -175.6 -17.7 -173.85 -15.05 -173.1 L-13.5 -173.25 Q-10.05 -176.3 -9.7 -181.25 L-9.5 -181.5 -9.05 -182.1 -4.9 -179.6 Q-3.6 -178.9 -2.45 -179.85 1.2 -182.9 4.7 -186.5 L5.35 -185.45 6.8 -181.35 7.05 -181.0 7.2 -180.75 7.2 -180.45 7.2 -180.2 Q8.75 -177.8 11.9 -179.2 15.6 -180.9 19.45 -182.0" fill="#ffff00" fill-opacity="0.5019608" fill-rule="evenodd" stroke="none"/>
  </g>
</svg>
