<?xml version="1.0" encoding="UTF-8" standalone="no"?>
<svg xmlns:ffdec="https://www.free-decompiler.com/flash" xmlns:xlink="http://www.w3.org/1999/xlink" ffdec:objectType="shape" height="124.85px" width="95.65px" xmlns="http://www.w3.org/2000/svg">
  <g transform="matrix(1.0, 0.0, 0.0, 1.0, 29.2, 170.9)">
    <path d="M15.65 -149.15 Q18.1 -144.8 17.25 -139.35 17.1 -138.15 16.6 -137.05 7.75 -131.2 -1.7 -126.45 -5.0 -123.65 -8.65 -122.4 L-0.3 -110.0 0.25 -108.95 6.8 -100.15 Q9.55 -100.75 11.75 -99.1 L12.15 -98.75 Q26.45 -98.85 40.1 -95.3 41.45 -95.0 42.4 -93.95 49.35 -86.4 54.7 -77.95 L55.6 -77.35 57.0 -76.2 Q58.9 -76.4 60.3 -77.95 L61.45 -79.1 62.25 -79.6 63.55 -80.05 Q66.4 -79.6 66.45 -76.8 L66.3 -76.35 Q63.55 -72.8 60.0 -69.75 L59.7 -69.3 Q57.2 -67.05 54.55 -69.15 L53.9 -69.65 Q52.7 -70.6 52.15 -71.95 L51.8 -72.55 Q49.4 -73.65 48.25 -75.95 L47.9 -76.65 Q46.55 -80.1 43.6 -82.45 L42.4 -83.55 42.25 -84.1 42.2 -84.7 39.1 -87.6 38.55 -88.15 37.95 -88.75 36.85 -89.9 36.4 -90.45 Q24.25 -91.1 12.6 -93.1 L14.15 -90.95 Q14.45 -90.25 15.05 -89.7 24.0 -73.25 27.8 -55.05 28.1 -53.65 27.95 -52.15 32.65 -53.1 35.8 -49.85 36.4 -49.2 36.4 -48.3 35.8 -46.1 33.5 -46.05 L23.75 -46.7 Q23.05 -46.8 22.35 -47.35 22.5 -51.0 21.7 -54.35 21.4 -55.75 21.4 -57.15 L21.15 -57.7 20.05 -58.9 Q19.4 -64.6 17.1 -69.75 16.5 -71.15 16.8 -72.75 11.0 -83.1 5.8 -93.75 2.65 -94.55 0.25 -98.5 -0.7 -100.05 -2.25 -101.25 L-2.45 -101.8 -2.65 -102.95 Q-8.5 -110.15 -13.4 -117.95 L-17.05 -109.4 Q-17.45 -108.35 -18.25 -107.6 -19.25 -102.7 -21.65 -98.3 -22.2 -97.25 -22.1 -96.05 -18.0 -92.2 -11.9 -90.65 -4.2 -93.85 -5.05 -86.65 -5.35 -84.0 -8.0 -84.1 -14.95 -84.4 -21.4 -87.4 -25.9 -89.5 -29.2 -92.95 -28.4 -100.85 -24.5 -108.25 -24.0 -109.15 -24.0 -110.3 -21.95 -112.9 -21.1 -116.1 L-20.95 -117.2 Q-19.4 -121.05 -16.7 -123.35 -22.2 -129.4 -25.4 -136.65 -28.8 -140.1 -28.8 -144.95 -28.8 -149.85 -25.35 -153.3 -21.9 -156.75 -17.0 -156.75 -12.1 -156.75 -8.65 -153.3 -5.2 -149.85 -5.2 -144.95 -5.2 -140.05 -8.65 -136.6 -11.65 -133.6 -15.75 -133.2 L-12.3 -127.95 Q-10.2 -129.65 -6.9 -130.6 -4.55 -131.3 -2.3 -132.5 4.95 -136.25 11.4 -141.45 11.85 -144.35 10.3 -146.8 L9.65 -148.4 8.7 -149.55 7.75 -150.7 7.6 -151.3 7.5 -151.85 7.35 -152.45 Q4.3 -155.55 2.4 -159.4 L2.15 -159.95 1.4 -160.5 Q-3.1 -159.2 -6.1 -162.05 L-6.25 -163.2 -6.3 -164.95 Q-4.7 -167.65 -1.1 -167.45 0.1 -170.25 2.7 -170.8 L2.75 -170.9 Q5.75 -171.05 6.35 -168.2 L6.4 -167.65 6.15 -167.05 5.8 -166.5 5.45 -165.9 8.3 -161.95 8.9 -161.3 Q11.8 -155.95 15.15 -150.85 15.65 -150.05 15.65 -149.15" fill="#000000" fill-rule="evenodd" stroke="none"/>
  </g>
</svg>
