<?xml version="1.0" encoding="UTF-8" standalone="no"?>
<svg xmlns:ffdec="https://www.free-decompiler.com/flash" xmlns:xlink="http://www.w3.org/1999/xlink" ffdec:objectType="shape" height="152.15px" width="117.15px" xmlns="http://www.w3.org/2000/svg">
  <g transform="matrix(1.0, 0.0, 0.0, 1.0, 56.4, 161.65)">
    <path d="M1.25 -153.5 L1.5 -154.15 Q3.9 -149.55 8.35 -150.15 L11.0 -155.0 12.0 -155.75 Q13.05 -157.1 13.25 -158.75 L14.25 -160.25 14.25 -160.65 14.35 -161.4 Q16.55 -158.55 17.75 -155.0 20.1 -150.6 24.5 -150.4 L25.1 -151.0 Q28.25 -152.05 30.6 -151.0 28.55 -148.45 27.25 -145.75 31.65 -142.2 36.6 -139.9 32.65 -138.05 29.25 -135.5 29.05 -132.0 32.4 -130.1 34.9 -128.65 35.25 -126.9 26.8 -123.6 18.75 -119.0 L18.75 -118.65 18.75 -117.5 Q21.25 -114.75 24.75 -113.4 25.6 -112.45 25.75 -111.5 L24.9 -111.0 Q18.8 -108.85 14.75 -104.25 L14.7 -103.9 Q14.65 -103.1 14.85 -102.4 15.65 -101.7 16.75 -101.55 20.6 -101.15 23.0 -102.25 L22.7 -101.5 Q21.1 -97.35 21.35 -92.9 L24.75 -93.0 30.1 -94.15 Q30.3 -93.2 30.05 -92.3 28.85 -87.65 28.85 -82.9 36.85 -82.4 44.5 -79.5 L45.75 -78.0 45.5 -76.6 Q43.95 -71.95 40.25 -68.25 L40.2 -67.9 Q40.15 -67.1 40.35 -66.4 L42.0 -65.3 43.9 -64.4 Q53.2 -59.9 60.75 -53.15 52.15 -48.85 43.75 -44.9 L43.7 -44.5 43.85 -43.4 Q51.45 -36.7 58.6 -29.4 L58.1 -29.0 50.0 -28.45 49.25 -28.0 Q46.9 -23.8 47.75 -18.4 L47.1 -18.4 Q43.3 -21.1 39.8 -24.1 35.1 -28.1 31.85 -23.95 26.2 -16.8 21.75 -9.5 19.45 -12.0 16.0 -11.8 L7.25 -10.65 7.25 -11.0 Q7.45 -12.8 6.85 -14.4 3.0 -16.75 -1.85 -17.35 L-15.65 -19.0 -10.65 -21.65 -10.4 -22.0 Q-9.75 -23.05 -9.75 -24.25 -11.0 -25.9 -12.7 -26.95 -15.75 -28.85 -17.5 -30.4 -16.5 -30.75 -15.75 -31.5 -14.7 -31.6 -13.75 -32.0 L-13.55 -32.3 -13.15 -33.0 Q-11.4 -33.8 -10.25 -35.25 L-10.25 -35.65 -10.25 -38.25 Q-16.2 -41.85 -23.0 -44.4 -22.2 -46.0 -20.75 -47.0 -17.1 -49.45 -14.5 -52.65 -13.45 -53.2 -12.9 -54.15 L-12.8 -54.5 -12.75 -55.25 -11.75 -56.75 -11.75 -57.15 -11.75 -58.25 -12.45 -58.7 -24.0 -60.75 -21.75 -67.5 Q-20.0 -69.85 -20.25 -72.75 -23.8 -75.05 -27.25 -72.25 L-27.3 -72.5 Q-27.5 -73.35 -28.15 -74.0 L-28.2 -74.4 -28.4 -75.5 Q-29.25 -76.45 -29.5 -77.75 L-30.8 -78.35 -32.65 -78.15 Q-37.8 -74.9 -43.25 -72.5 L-43.25 -73.65 -43.25 -82.25 -43.95 -82.7 -56.4 -84.5 Q-54.95 -85.6 -53.25 -86.5 L-52.0 -86.8 Q-51.65 -86.9 -51.45 -87.15 -48.05 -91.95 -51.9 -97.0 -45.65 -94.9 -39.0 -94.9 -38.4 -95.2 -38.25 -95.9 -38.25 -96.5 -38.75 -97.0 L-38.75 -97.4 -38.75 -97.75 Q-42.7 -101.6 -45.55 -106.35 -47.15 -109.05 -47.25 -110.5 -44.5 -110.1 -42.0 -108.8 -37.05 -106.25 -33.75 -109.75 L-33.75 -110.5 Q-33.65 -115.35 -36.15 -119.5 -35.2 -119.7 -34.5 -120.25 -33.65 -122.45 -35.1 -124.15 -37.9 -127.4 -41.4 -127.65 -38.55 -129.95 -35.9 -132.5 -35.3 -138.5 -41.3 -139.9 -44.55 -140.65 -45.5 -142.75 -42.25 -143.8 -39.9 -146.0 -39.7 -147.3 -39.8 -148.65 L-40.65 -157.9 Q-37.95 -155.2 -34.5 -154.15 L-33.7 -153.7 -31.8 -153.8 Q-26.95 -156.4 -29.65 -161.65 -24.55 -158.05 -20.5 -153.15 -19.85 -151.35 -18.0 -151.9 L-16.5 -153.25 -16.4 -153.65 -15.75 -154.75 -15.75 -155.15 -15.75 -155.9 Q-13.65 -157.7 -11.65 -159.65 L-11.15 -159.4 Q-10.05 -156.15 -8.25 -153.4 L-8.25 -153.0 -8.25 -152.65 Q-5.05 -145.4 0.0 -151.25 0.35 -152.35 1.1 -153.15 L1.25 -153.5" fill="#ffff00" fill-opacity="0.5019608" fill-rule="evenodd" stroke="none"/>
  </g>
</svg>
