<?xml version="1.0" encoding="UTF-8" standalone="no"?>
<svg xmlns:ffdec="https://www.free-decompiler.com/flash" xmlns:xlink="http://www.w3.org/1999/xlink" ffdec:objectType="shape" height="118.2px" width="78.2px" xmlns="http://www.w3.org/2000/svg">
  <g transform="matrix(1.0, 0.0, 0.0, 1.0, 35.85, 146.8)">
    <path d="M13.3 -146.8 Q19.85 -141.65 17.5 -132.4 16.5 -128.45 14.65 -124.8 12.2 -119.95 11.0 -114.65 9.8 -109.1 3.3 -110.65 L-6.5 -112.25 -8.3 -112.45 Q-3.4 -103.25 -1.1 -92.45 L-0.35 -88.85 0.2 -88.95 0.2 -89.05 Q16.6 -86.4 30.0 -76.85 L30.65 -76.0 Q37.35 -61.2 33.3 -45.4 L41.35 -41.45 Q42.35 -40.9 42.35 -39.6 39.35 -34.95 33.25 -37.7 L29.15 -39.65 Q25.45 -41.4 26.75 -45.45 31.5 -59.95 24.85 -73.7 13.0 -79.5 0.65 -83.75 3.0 -71.35 4.65 -58.75 5.4 -53.1 5.4 -47.3 L5.4 -35.75 Q10.55 -36.55 11.75 -32.35 12.6 -29.3 9.45 -28.65 0.35 -28.05 -0.45 -35.25 L-0.55 -38.65 Q0.7 -60.9 -5.05 -81.5 L-6.45 -86.45 Q-9.55 -97.9 -13.65 -109.1 L-14.15 -109.65 -18.25 -105.25 Q-25.05 -99.25 -29.25 -91.95 -25.6 -91.85 -21.95 -92.05 L-21.9 -92.35 Q-16.4 -97.7 -12.9 -91.45 -12.3 -90.35 -12.3 -88.9 -12.25 -87.0 -13.95 -86.8 L-29.8 -86.2 Q-33.3 -86.35 -35.6 -88.9 -35.9 -90.85 -35.8 -92.9 L-35.8 -94.65 Q-26.8 -105.2 -17.4 -115.4 -18.65 -118.1 -20.45 -120.4 L-21.9 -120.05 Q-23.3 -121.4 -25.7 -122.25 L-27.05 -123.4 Q-30.5 -126.85 -30.5 -131.75 -30.5 -136.65 -27.05 -140.1 -23.6 -143.55 -18.7 -143.55 -13.8 -143.55 -10.35 -140.1 -6.9 -136.65 -6.9 -131.75 -6.9 -126.85 -10.35 -123.4 -11.9 -121.85 -13.65 -121.0 L-13.05 -120.15 Q-12.65 -120.5 -12.1 -120.65 -9.1 -120.8 -8.5 -117.95 L-8.45 -117.85 Q-1.65 -118.05 5.2 -117.75 L7.05 -122.75 7.5 -124.5 8.65 -125.65 9.65 -126.8 11.0 -133.75 11.2 -135.45 10.9 -135.95 9.85 -137.2 Q8.3 -142.75 12.15 -146.2 12.6 -146.6 13.3 -146.8" fill="#000000" fill-rule="evenodd" stroke="none"/>
  </g>
</svg>
