<?xml version="1.0" encoding="UTF-8" standalone="no"?>
<svg xmlns:ffdec="https://www.free-decompiler.com/flash" xmlns:xlink="http://www.w3.org/1999/xlink" ffdec:objectType="shape" height="150.4px" width="103.85px" xmlns="http://www.w3.org/2000/svg">
  <g transform="matrix(1.0, 0.0, 0.0, 1.0, 52.25, 147.4)">
    <path d="M20.6 -134.4 Q20.95 -129.4 25.25 -129.5 26.65 -131.1 28.6 -132.25 29.1 -128.6 30.1 -125.15 L30.4 -124.75 Q37.5 -123.65 44.1 -120.65 L44.25 -120.25 44.6 -119.5 Q39.9 -118.75 36.75 -115.4 L36.7 -115.0 Q36.65 -114.4 36.85 -113.9 L39.5 -109.0 37.25 -108.5 Q36.6 -108.3 36.15 -107.9 31.35 -103.5 32.75 -96.5 26.85 -97.15 22.75 -93.75 L22.75 -93.4 22.75 -90.0 23.25 -89.25 23.2 -88.9 Q23.15 -87.15 23.75 -85.5 L22.1 -85.65 Q16.15 -87.95 10.0 -86.25 9.15 -82.7 10.6 -79.5 8.8 -77.75 9.35 -75.4 12.65 -74.35 15.75 -73.65 L15.7 -73.25 Q15.65 -72.3 15.85 -71.4 L27.5 -71.9 27.35 -71.5 Q27.15 -70.95 27.25 -70.4 26.45 -70.0 26.25 -69.25 L26.25 -68.9 26.25 -68.15 Q25.25 -67.35 25.25 -66.25 L25.65 -65.9 37.75 -67.0 35.8 -64.3 35.2 -63.5 Q32.8 -60.3 31.85 -56.9 L39.75 -54.9 Q39.15 -51.55 36.75 -48.9 L36.7 -48.5 Q36.65 -47.15 36.85 -45.9 L38.9 -44.85 Q42.8 -42.8 45.1 -39.75 L44.35 -37.9 Q42.85 -36.6 41.75 -34.9 L41.75 -34.5 41.75 -32.65 42.35 -31.85 Q46.9 -25.75 51.6 -19.9 49.25 -18.65 46.75 -18.0 L44.75 -15.9 44.7 -15.5 Q44.55 -10.8 46.25 -6.5 42.1 -6.35 38.6 -4.75 34.9 -3.05 31.5 -0.5 L28.95 -4.0 Q27.8 -5.25 26.5 -4.2 23.0 -1.25 19.35 1.1 12.8 -2.8 6.6 3.0 L5.75 2.6 5.65 1.5 Q5.55 0.5 4.55 0.4 L-8.9 -0.5 -8.25 -1.25 -8.25 -1.65 -8.4 -3.5 Q-10.85 -7.8 -14.95 -10.55 -17.1 -11.95 -19.6 -12.35 -23.85 -13.05 -26.25 -14.5 L-19.65 -16.15 Q-17.35 -20.15 -21.2 -23.0 L-29.4 -28.75 Q-22.85 -29.55 -18.25 -33.9 -21.45 -36.85 -26.25 -38.0 L-26.3 -38.4 Q-26.4 -39.2 -26.0 -39.9 L-23.55 -42.25 Q-18.7 -45.8 -15.75 -50.75 L-15.75 -52.25 Q-15.7 -53.05 -16.25 -53.45 -20.45 -56.35 -25.25 -56.4 L-25.3 -56.75 Q-25.5 -60.6 -24.75 -64.25 -25.1 -64.65 -25.4 -64.65 -29.65 -64.85 -33.15 -61.65 L-33.75 -61.75 -33.75 -62.5 -32.75 -72.25 Q-33.1 -72.65 -33.35 -72.6 -42.95 -72.2 -52.25 -72.15 L-52.25 -72.5 -52.25 -72.9 Q-51.35 -73.85 -51.0 -75.15 -46.0 -78.95 -40.5 -81.25 L-40.4 -81.65 Q-40.05 -82.95 -40.5 -84.25 L-41.8 -85.2 Q-43.8 -87.0 -43.75 -88.0 L-34.15 -87.65 -33.95 -88.05 Q-33.7 -89.1 -33.75 -90.25 L-34.2 -91.05 Q-36.85 -96.1 -38.15 -101.4 L-37.0 -100.75 Q-32.5 -98.2 -30.25 -101.65 -30.75 -103.55 -32.65 -103.9 -36.3 -106.4 -37.25 -110.25 -36.15 -110.7 -35.25 -111.5 -32.5 -111.45 -30.5 -113.25 -30.25 -113.8 -30.25 -114.4 -30.25 -114.95 -30.55 -115.25 -34.75 -120.0 -41.65 -121.0 L-42.0 -121.4 Q-37.65 -122.7 -34.3 -125.55 -33.5 -126.25 -33.15 -127.15 -30.6 -133.3 -34.25 -139.4 -28.95 -135.35 -22.5 -137.25 L-22.4 -137.65 Q-20.5 -142.3 -19.65 -147.4 -19.2 -147.35 -18.7 -146.35 -16.75 -142.2 -12.9 -140.65 L-12.85 -140.4 -12.75 -140.0 -11.75 -138.9 -11.75 -138.5 -11.75 -136.65 Q-8.85 -133.5 -6.25 -136.75 L-6.25 -137.1 -6.0 -137.9 Q-5.3 -138.3 -4.9 -139.0 L-4.75 -139.4 -4.5 -140.15 -0.25 -145.0 0.4 -142.35 1.15 -138.3 Q1.65 -135.15 4.55 -136.4 8.15 -138.0 10.75 -138.15 L10.65 -137.8 Q8.35 -133.35 8.35 -128.4 12.1 -127.35 15.4 -130.7 18.1 -133.45 20.6 -134.4" fill="#ffff00" fill-opacity="0.5019608" fill-rule="evenodd" stroke="none"/>
  </g>
</svg>
