<?xml version="1.0" encoding="UTF-8" standalone="no"?>
<svg xmlns:ffdec="https://www.free-decompiler.com/flash" xmlns:xlink="http://www.w3.org/1999/xlink" ffdec:objectType="shape" height="124.55px" width="70.35px" xmlns="http://www.w3.org/2000/svg">
  <g transform="matrix(1.0, 0.0, 0.0, 1.0, 17.9, 110.35)">
    <path d="M9.85 -106.9 Q13.3 -103.45 13.3 -98.55 13.3 -93.65 9.85 -90.2 7.35 -87.7 4.05 -87.0 L5.3 -83.85 5.55 -82.75 5.65 -82.55 6.25 -81.0 6.3 -80.45 6.85 -78.6 21.15 -79.45 Q27.6 -85.3 30.1 -93.3 L30.75 -95.05 30.3 -96.9 Q29.65 -98.75 29.8 -100.8 L30.1 -101.35 Q31.2 -102.75 32.7 -102.95 41.7 -102.3 37.85 -93.75 35.05 -87.6 31.35 -81.9 L30.2 -80.6 Q27.4 -77.1 23.35 -75.85 16.1 -73.6 8.35 -72.55 9.5 -67.05 10.1 -61.35 L10.95 -52.25 Q24.6 -45.45 36.2 -35.45 39.55 -32.55 39.9 -27.35 40.5 -18.4 42.25 -9.5 42.8 -6.5 42.5 -3.25 47.55 -4.4 51.35 -1.4 53.1 0.0 52.05 2.1 51.3 3.55 49.6 3.65 L38.35 2.05 Q37.6 1.95 36.9 1.35 36.65 -7.55 35.05 -16.1 L34.05 -21.1 Q33.3 -24.85 32.9 -28.65 23.25 -38.4 11.35 -45.9 12.25 -31.2 11.95 -16.35 L11.7 -0.75 Q19.25 4.3 24.05 11.95 19.25 17.25 14.8 10.0 8.0 6.65 5.8 0.55 5.25 -1.05 5.4 -2.75 7.65 -25.3 5.55 -47.75 L4.7 -56.0 Q-5.9 -54.5 -16.35 -55.7 -17.05 -55.8 -17.75 -56.35 L-17.85 -57.55 -17.9 -59.25 Q-12.15 -67.4 -5.05 -74.25 -4.75 -77.3 -2.15 -78.9 L-1.2 -79.45 -0.4 -81.1 -1.4 -83.6 -1.95 -85.25 -2.55 -85.8 -3.1 -86.4 -3.9 -88.4 -5.5 -89.05 -6.85 -90.2 Q-10.3 -93.65 -10.3 -98.55 -10.3 -103.45 -6.85 -106.9 -3.4 -110.35 1.5 -110.35 6.4 -110.35 9.85 -106.9 M1.65 -73.95 Q-3.1 -67.5 -8.15 -61.4 L-8.5 -61.0 Q-3.7 -61.3 2.1 -62.55 L2.1 -63.1 2.15 -63.7 2.3 -64.25 3.5 -65.05 2.05 -73.65 1.65 -73.95" fill="#000000" fill-rule="evenodd" stroke="none"/>
  </g>
</svg>
