<?xml version="1.0" encoding="UTF-8" standalone="no"?>
<svg xmlns:ffdec="https://www.free-decompiler.com/flash" xmlns:xlink="http://www.w3.org/1999/xlink" ffdec:objectType="shape" height="145.85px" width="97.25px" xmlns="http://www.w3.org/2000/svg">
  <g transform="matrix(1.0, 0.0, 0.0, 1.0, 53.25, 130.5)">
    <path d="M43.25 -78.9 L44.0 -78.25 43.1 -77.95 43.25 -78.25 43.25 -78.65 43.25 -78.9 M5.75 -125.65 L5.75 -124.6 Q5.55 -121.2 4.25 -118.25 L4.3 -117.15 4.35 -116.4 Q4.9 -116.05 5.5 -116.0 L13.75 -115.15 12.35 -113.6 Q8.5 -110.1 7.85 -105.4 8.7 -104.55 10.0 -104.65 11.9 -103.4 14.25 -103.0 9.8 -98.6 7.1 -93.4 L6.75 -93.0 6.7 -91.5 Q6.65 -90.9 6.85 -90.4 9.35 -88.85 12.15 -90.3 16.75 -92.7 20.75 -95.75 L20.75 -94.65 20.75 -93.5 22.4 -92.25 Q23.1 -91.9 23.6 -92.25 L33.25 -100.0 33.25 -98.5 Q33.2 -95.6 33.85 -92.9 37.8 -92.2 42.0 -94.25 41.85 -90.5 38.25 -88.0 L38.1 -87.3 Q37.7 -86.0 36.75 -85.0 L36.75 -83.9 36.75 -83.15 Q38.1 -81.65 40.0 -80.8 L41.05 -80.3 40.85 -80.15 40.75 -79.75 40.7 -79.4 40.6 -79.0 39.55 -78.2 39.25 -77.9 39.25 -77.5 39.2 -76.75 39.1 -76.4 38.05 -75.3 34.75 -71.25 34.0 -71.4 33.4 -71.95 Q26.5 -75.3 23.1 -68.4 21.3 -68.4 19.65 -69.4 14.7 -72.4 12.25 -68.25 12.4 -67.4 11.85 -66.75 L11.25 -66.0 11.25 -65.25 11.15 -64.55 11.0 -64.4 Q6.7 -67.6 2.0 -66.75 1.55 -65.7 1.65 -64.5 L1.75 -61.15 2.0 -60.8 Q3.8 -59.2 6.25 -58.65 L6.2 -56.5 Q6.15 -55.9 6.35 -55.4 7.15 -54.7 8.25 -54.45 L12.65 -53.85 Q14.65 -52.8 17.25 -52.85 L17.2 -52.0 Q17.15 -51.4 17.35 -50.9 20.95 -49.3 25.0 -49.75 L24.75 -47.5 Q24.4 -45.4 24.35 -43.4 24.9 -43.05 25.45 -43.1 30.35 -43.5 32.75 -40.4 L25.75 -35.75 25.75 -35.4 25.8 -34.25 25.85 -33.9 37.1 -24.5 36.1 -23.35 35.75 -23.0 Q32.5 -22.45 30.25 -20.0 L30.25 -19.65 30.25 -18.5 30.25 -18.15 36.85 -13.25 36.8 -12.9 36.7 -11.75 36.6 -11.4 35.5 -10.25 35.25 -9.9 35.25 -9.5 35.3 -8.75 35.35 -8.4 35.75 -8.1 Q37.1 -7.55 38.5 -7.15 L38.65 -6.95 Q40.55 -5.3 42.6 -3.9 L42.0 -3.6 41.5 -3.25 41.25 -2.9 41.25 -2.5 41.2 -1.75 41.1 -1.4 40.4 -0.6 37.25 2.1 37.25 2.5 37.25 3.6 37.25 4.0 Q38.05 4.6 38.55 5.45 L39.6 7.0 38.35 7.0 38.1 6.85 Q34.9 5.05 32.75 8.0 L32.75 8.35 32.7 8.75 32.6 9.1 31.65 10.35 Q29.9 13.2 27.25 15.35 L26.25 14.5 25.4 13.75 Q17.1 9.0 8.5 14.0 L8.05 13.8 7.75 13.5 7.65 12.75 Q6.6 8.7 2.15 11.05 -2.2 13.35 -6.9 14.0 L-7.6 12.2 -7.75 10.75 -8.45 10.2 Q-13.0 8.4 -17.95 9.5 L-25.75 10.1 -25.75 8.25 -25.75 6.75 Q-26.1 6.1 -26.6 5.6 -27.3 4.9 -28.15 4.5 -28.3 3.75 -29.05 3.4 -30.15 2.9 -30.75 1.85 L-28.5 1.25 Q-27.1 0.85 -27.2 -0.45 -27.65 -5.2 -32.15 -8.0 -32.3 -8.7 -32.85 -9.2 L-34.75 -11.0 -24.4 -11.85 -23.75 -12.25 -23.8 -12.65 -23.9 -13.4 -24.0 -13.75 Q-24.7 -14.1 -24.95 -14.85 -25.5 -16.75 -27.0 -17.9 L-27.8 -18.95 -28.65 -20.15 -27.45 -20.55 Q-25.65 -20.95 -24.25 -22.0 -19.25 -23.75 -14.5 -26.25 L-14.4 -26.65 -14.3 -27.4 -14.25 -27.75 Q-17.4 -29.85 -21.25 -30.9 L-21.25 -31.5 -21.2 -32.25 -21.15 -32.65 -20.5 -33.4 -20.25 -33.75 Q-20.35 -34.7 -19.95 -35.55 -19.5 -36.5 -19.9 -37.5 L-20.7 -38.65 -21.15 -39.4 Q-23.6 -41.6 -26.5 -41.5 L-25.6 -43.3 Q-25.25 -43.8 -25.25 -44.4 -23.1 -47.65 -22.65 -51.55 -22.25 -55.4 -25.8 -54.1 -29.95 -52.6 -33.4 -52.4 -33.95 -53.6 -33.9 -55.0 -33.9 -56.9 -34.25 -58.75 -34.65 -59.55 -35.5 -59.55 -41.6 -59.3 -46.75 -58.15 L-46.85 -60.0 -46.5 -61.15 Q-45.7 -61.5 -45.25 -62.25 L-43.9 -64.15 -43.35 -66.05 -43.25 -66.75 Q-47.3 -69.1 -51.9 -70.5 -51.7 -71.2 -51.1 -71.55 -49.45 -72.4 -48.25 -73.75 L-48.25 -75.65 Q-48.25 -76.2 -48.5 -76.75 L-49.7 -77.8 -50.75 -79.0 -50.75 -79.4 -50.75 -79.75 -52.2 -81.6 Q-53.4 -83.1 -53.25 -85.0 L-41.65 -84.65 Q-41.1 -85.45 -41.2 -86.5 L-41.25 -87.25 -41.8 -88.0 -42.15 -88.4 -42.25 -88.75 -42.3 -89.15 -42.4 -89.5 -43.65 -91.3 Q-44.7 -93.45 -44.75 -95.9 -41.75 -94.4 -39.0 -95.25 -38.6 -96.7 -38.7 -98.25 -38.95 -101.0 -38.25 -103.5 -34.6 -102.55 -31.65 -104.15 -30.95 -105.15 -31.45 -106.35 L-32.65 -109.4 Q-33.55 -109.8 -34.25 -110.55 L-34.9 -111.65 Q-31.35 -111.5 -28.9 -113.5 -28.7 -114.25 -28.75 -115.0 L-28.75 -115.75 -30.5 -118.2 Q-32.05 -120.25 -32.25 -121.0 -30.05 -119.6 -27.65 -120.65 -27.05 -121.85 -27.25 -123.25 -27.7 -126.1 -26.5 -128.5 -25.35 -126.85 -24.55 -125.1 -22.8 -121.4 -19.65 -121.65 -19.05 -122.85 -19.05 -124.25 -19.05 -126.95 -19.75 -129.5 L-19.0 -130.25 -18.75 -130.5 -16.95 -127.4 Q-14.6 -123.15 -10.65 -123.15 L-9.95 -124.2 -9.4 -125.0 -9.3 -125.4 -9.2 -125.75 -9.0 -126.15 Q-8.2 -126.5 -7.95 -127.3 -7.7 -128.2 -6.75 -128.4 L-6.75 -128.0 -6.75 -126.9 -6.75 -126.5 -6.45 -126.1 -6.25 -125.75 -6.25 -125.4 -6.25 -125.0 -5.85 -124.65 -5.4 -124.25 -5.3 -123.85 -5.25 -123.5 -4.55 -122.7 -5.25 -121.9 -5.25 -121.5 -5.2 -120.75 -5.15 -120.4 -4.75 -120.05 -4.0 -119.75 -3.4 -120.05 Q-2.5 -120.6 -1.9 -121.5 L-1.0 -121.75 -0.25 -122.0 0.2 -122.65 0.75 -123.4 Q3.15 -124.85 5.75 -125.65" fill="#ffff00" fill-opacity="0.5019608" fill-rule="evenodd" stroke="none"/>
  </g>
</svg>
