<?xml version="1.0" encoding="UTF-8" standalone="no"?>
<svg xmlns:ffdec="https://www.free-decompiler.com/flash" xmlns:xlink="http://www.w3.org/1999/xlink" ffdec:objectType="shape" height="150.9px" width="93.25px" xmlns="http://www.w3.org/2000/svg">
  <g transform="matrix(1.0, 0.0, 0.0, 1.0, 41.25, 132.9)">
    <path d="M-10.0 -124.75 L-9.5 -125.1 -2.4 -132.9 Q-1.85 -133.05 -1.8 -132.15 -1.65 -130.0 -0.75 -128.0 0.85 -125.0 3.1 -127.15 L3.15 -127.3 Q3.9 -126.55 5.0 -126.25 L5.5 -126.4 5.85 -126.6 6.25 -126.75 6.8 -126.35 Q10.6 -125.9 13.75 -126.4 L13.75 -125.25 Q13.85 -122.5 12.25 -120.4 L12.25 -119.65 12.35 -118.9 Q17.05 -117.4 21.85 -116.5 L21.75 -115.9 21.6 -115.15 21.35 -114.8 Q18.2 -111.7 15.75 -108.0 L15.75 -107.25 15.75 -106.15 Q16.15 -105.5 16.85 -105.25 20.85 -103.75 25.25 -104.5 L25.0 -104.25 24.75 -103.9 24.75 -102.75 24.6 -100.9 24.25 -100.5 24.2 -100.15 24.1 -99.4 23.85 -98.95 23.75 -98.25 Q25.5 -96.1 27.75 -98.0 28.65 -98.25 29.25 -98.85 31.75 -101.4 35.25 -102.25 34.75 -99.45 36.5 -97.5 36.9 -97.05 37.35 -97.2 42.2 -98.65 46.75 -98.15 L46.75 -97.4 46.6 -96.25 45.75 -95.5 45.7 -94.4 Q45.65 -93.6 45.85 -92.9 47.85 -91.5 50.1 -90.65 52.0 -89.6 52.0 -88.65 L51.6 -88.45 Q50.7 -88.2 50.25 -87.4 L50.3 -84.75 Q50.45 -80.9 51.6 -77.4 49.25 -77.85 46.95 -78.65 43.7 -79.8 42.25 -77.25 L42.1 -75.4 41.5 -70.15 40.75 -69.4 Q38.6 -69.15 36.85 -69.8 32.6 -71.45 28.5 -70.25 28.1 -69.6 27.95 -68.8 27.55 -66.8 27.75 -64.65 L27.5 -64.25 27.25 -63.9 27.25 -63.5 27.25 -63.15 Q26.9 -62.75 26.55 -62.7 L19.5 -61.6 Q18.3 -61.45 17.75 -60.4 L17.75 -60.0 17.75 -59.65 17.1 -58.45 Q16.5 -57.2 16.85 -55.9 18.85 -54.55 21.25 -54.0 L21.25 -53.75 21.25 -53.4 21.25 -53.0 21.55 -52.6 21.75 -52.25 Q21.8 -51.65 21.45 -51.3 19.5 -49.3 19.75 -46.65 20.15 -46.0 20.8 -45.9 27.0 -44.65 32.0 -42.9 L31.7 -42.5 26.75 -36.5 Q29.5 -33.6 33.6 -32.0 28.4 -31.1 24.25 -28.4 L24.25 -27.65 24.35 -26.9 Q28.7 -24.6 32.6 -21.4 29.5 -20.35 27.25 -18.25 L27.2 -17.5 27.35 -16.4 Q31.15 -14.7 33.5 -11.4 30.75 -10.35 29.75 -8.25 35.65 -4.35 39.75 0.5 37.2 3.6 34.1 5.5 30.3 2.0 25.0 2.75 23.2 3.05 22.5 4.6 20.7 5.5 20.0 7.25 L19.5 7.6 18.85 7.6 Q17.7 6.25 16.2 5.2 15.2 4.5 14.1 5.0 10.0 6.8 7.85 10.6 6.15 8.9 4.05 7.65 2.7 6.8 1.5 7.8 -3.85 12.3 -7.65 18.0 L-8.75 17.85 -8.75 17.5 -8.75 16.75 -9.15 15.95 Q-9.35 15.3 -9.95 15.2 -19.8 13.2 -29.25 15.0 -27.5 14.1 -26.4 12.5 L-26.3 11.75 -26.25 10.25 Q-27.6 8.8 -29.6 8.1 L-30.8 7.8 Q-36.15 7.15 -39.65 3.5 L-39.8 2.75 -40.15 0.85 -39.5 0.6 Q-39.0 0.4 -38.75 -0.15 -36.6 -0.4 -35.4 -2.0 -35.2 -2.55 -35.15 -3.15 -35.1 -4.5 -35.5 -5.75 L-35.95 -6.2 -39.65 -11.0 -34.5 -10.7 Q-31.7 -9.75 -30.25 -11.75 L-30.25 -13.25 Q-30.15 -15.15 -30.4 -17.0 L-31.05 -18.25 -32.75 -23.0 -25.55 -23.65 Q-24.4 -23.8 -23.75 -24.75 L-23.75 -25.5 -23.75 -26.25 Q-26.45 -28.65 -28.25 -31.5 -26.4 -32.85 -24.25 -33.5 L-24.05 -33.75 -23.75 -34.15 Q-18.75 -35.45 -17.25 -39.75 -22.25 -41.6 -26.25 -45.15 L-26.2 -45.5 Q-25.4 -48.1 -23.15 -50.0 -21.2 -50.8 -19.75 -52.25 L-19.75 -52.65 -19.75 -53.0 -19.5 -53.4 -19.25 -53.75 -19.25 -54.9 -19.25 -56.75 Q-24.25 -59.85 -28.75 -63.25 L-28.45 -64.0 Q-28.2 -64.75 -28.25 -65.5 L-28.0 -65.9 -27.75 -66.25 Q-28.45 -69.75 -32.6 -69.95 -37.7 -70.25 -41.25 -72.5 -37.8 -73.35 -35.75 -76.25 L-35.9 -78.5 Q-36.5 -83.25 -39.75 -87.15 L-39.4 -87.5 Q-35.45 -87.05 -33.25 -89.75 L-33.2 -92.05 Q-32.75 -95.0 -32.75 -98.0 -27.9 -96.8 -23.15 -97.15 -22.55 -98.35 -22.85 -99.75 -23.75 -103.75 -25.0 -107.65 -23.8 -108.2 -21.9 -109.5 -21.7 -110.25 -21.9 -110.95 -23.3 -115.05 -26.25 -118.5 L-18.95 -119.3 Q-18.55 -119.4 -18.25 -119.75 L-18.3 -120.9 -18.15 -123.15 -17.8 -123.5 -17.25 -124.25 -17.25 -124.65 -17.25 -125.0 -17.0 -125.4 -16.75 -125.75 -16.75 -126.15 -16.75 -126.5 -16.5 -126.9 -15.75 -128.0 -14.75 -128.0 Q-12.65 -125.75 -10.0 -124.75" fill="#ffff00" fill-opacity="0.5019608" fill-rule="evenodd" stroke="none"/>
  </g>
</svg>
