<?xml version="1.0" encoding="UTF-8" standalone="no"?>
<svg xmlns:ffdec="https://www.free-decompiler.com/flash" xmlns:xlink="http://www.w3.org/1999/xlink" ffdec:objectType="shape" height="126.1px" width="68.05px" xmlns="http://www.w3.org/2000/svg">
  <g transform="matrix(1.0, 0.0, 0.0, 1.0, 29.35, 121.15)">
    <path d="M-15.65 -109.35 Q-15.65 -114.25 -12.2 -117.7 -8.75 -121.15 -3.85 -121.15 1.05 -121.15 4.5 -117.7 7.95 -114.25 7.95 -109.35 7.95 -104.45 4.5 -101.0 1.2 -97.7 -3.35 -97.55 L-4.15 -97.8 -4.3 -97.2 -3.8 -96.85 Q5.2 -89.8 12.9 -81.1 L13.15 -80.6 Q22.0 -82.15 29.9 -86.75 29.35 -94.05 37.05 -91.25 39.0 -90.55 38.65 -88.3 37.35 -81.1 29.55 -79.55 27.35 -79.1 25.35 -78.2 19.7 -75.6 13.75 -73.85 9.95 -72.7 7.75 -76.55 L7.6 -77.15 7.4 -78.3 Q0.6 -85.05 -6.4 -91.5 -8.85 -81.9 -7.9 -72.05 -1.75 -68.95 5.5 -67.45 6.2 -67.3 6.35 -66.35 6.6 -64.55 5.85 -62.9 1.85 -60.0 -2.05 -63.1 L-4.35 -64.05 -3.9 -63.35 Q-2.1 -62.65 -2.05 -60.4 L-2.05 -59.8 Q8.05 -46.0 19.7 -33.25 21.15 -26.65 18.6 -20.3 17.9 -18.55 16.45 -17.1 16.3 -13.75 15.15 -10.7 14.75 -9.65 14.9 -8.45 18.95 -8.5 23.05 -6.0 24.3 -5.25 24.05 -3.65 23.7 -1.25 21.25 -0.95 L9.95 -2.55 Q9.2 -2.65 8.55 -3.25 8.8 -13.65 12.35 -23.4 L14.3 -28.65 -2.2 -49.8 Q-2.35 -45.3 -2.0 -40.8 -1.25 -31.75 -3.75 -23.6 -4.25 -22.0 -5.4 -20.65 -7.85 -17.85 -10.7 -15.35 -16.3 -9.25 -22.1 -3.55 -14.8 -3.05 -8.85 0.65 -8.2 1.05 -8.2 1.95 -11.5 6.8 -18.05 3.85 -20.15 2.9 -22.45 2.5 -24.6 2.1 -26.1 0.6 L-26.15 0.3 -26.5 0.6 Q-28.15 0.4 -29.2 -0.95 L-29.3 -2.1 -29.35 -3.8 -8.5 -28.5 Q-7.7 -29.5 -7.7 -30.95 -7.9 -45.2 -9.1 -59.15 -10.35 -60.0 -11.45 -61.75 L-11.65 -62.35 -11.85 -63.5 -13.1 -68.4 Q-21.65 -73.1 -29.2 -79.45 L-29.3 -80.05 -29.35 -81.2 -29.35 -82.35 Q-23.5 -90.75 -15.1 -96.85 L-13.85 -97.75 -12.65 -98.3 -11.15 -98.35 -10.75 -99.8 -10.85 -99.85 -12.2 -101.0 Q-15.65 -104.45 -15.65 -109.35 M-14.15 -75.8 Q-14.65 -83.1 -13.05 -90.6 L-21.1 -82.9 -21.65 -82.35 Q-18.2 -78.65 -14.15 -75.8" fill="#000000" fill-rule="evenodd" stroke="none"/>
  </g>
</svg>
