<?xml version="1.0" encoding="UTF-8" standalone="no"?>
<svg xmlns:ffdec="https://www.free-decompiler.com/flash" xmlns:xlink="http://www.w3.org/1999/xlink" ffdec:objectType="shape" height="131.1px" width="78.1px" xmlns="http://www.w3.org/2000/svg">
  <g transform="matrix(1.0, 0.0, 0.0, 1.0, 28.55, 128.3)">
    <path d="M14.45 -128.3 Q19.35 -128.3 22.8 -124.85 26.25 -121.4 26.25 -116.5 26.25 -111.6 22.8 -108.15 19.4 -104.75 14.65 -104.7 L14.8 -104.35 14.9 -104.0 15.2 -102.3 15.2 -101.75 Q16.95 -98.9 18.0 -95.65 L18.2 -95.7 19.1 -95.85 19.1 -95.95 Q22.25 -95.9 23.9 -93.3 L24.15 -92.8 23.85 -92.0 24.1 -91.1 24.15 -90.55 Q22.7 -88.65 20.85 -87.25 L21.85 -83.3 21.9 -81.6 21.95 -81.6 Q23.65 -83.45 26.3 -84.9 30.85 -87.35 34.55 -91.35 L36.9 -93.95 Q38.3 -96.6 40.55 -98.8 39.6 -100.8 41.7 -103.7 42.6 -104.9 43.75 -104.95 49.5 -104.7 49.15 -101.15 L49.5 -100.05 49.55 -99.5 47.85 -97.8 46.45 -96.4 44.85 -94.7 Q44.45 -93.0 42.1 -90.95 37.3 -86.9 34.05 -81.75 27.75 -77.55 21.05 -74.7 L20.15 -74.6 18.75 -73.35 18.95 -74.45 18.75 -74.65 18.6 -75.25 18.35 -76.35 Q15.8 -80.05 15.15 -84.5 L14.05 -84.2 8.6 -80.95 Q7.15 -72.55 6.05 -64.05 5.85 -62.4 4.75 -61.2 L4.55 -57.3 4.5 -56.9 Q9.1 -52.45 12.1 -46.4 L12.2 -45.9 Q19.3 -38.15 21.25 -28.4 21.55 -26.8 20.85 -25.2 L18.2 -20.1 Q16.65 -16.0 15.7 -11.7 15.5 -10.7 14.65 -10.05 14.3 -8.1 14.4 -6.1 L14.45 -3.85 Q18.85 -4.65 23.2 -2.0 24.2 -1.35 24.15 -0.15 23.55 2.05 21.35 2.05 L9.65 1.45 Q8.95 1.35 8.3 0.8 8.1 -4.8 8.85 -10.4 9.1 -12.25 10.35 -13.75 L14.9 -30.2 Q15.3 -31.55 14.3 -32.85 8.75 -40.2 3.8 -47.95 L3.75 -48.05 Q2.0 -41.7 0.9 -35.15 0.15 -30.45 -3.05 -26.95 -6.3 -23.25 -8.55 -19.0 -11.85 -15.0 -14.7 -10.6 -16.15 -6.5 -19.35 -3.25 L-19.55 -2.95 -10.8 -2.35 Q-8.0 -2.1 -8.0 0.6 -8.6 2.8 -10.8 2.8 L-25.5 2.1 Q-28.7 1.8 -28.55 -1.25 L-19.0 -14.15 -18.85 -14.7 -18.6 -15.8 Q-17.05 -17.7 -15.65 -19.75 L-15.25 -20.3 -15.1 -20.85 -14.9 -22.0 Q-4.0 -32.0 -2.55 -46.55 L-2.1 -49.45 Q-1.4 -52.7 -1.45 -56.15 L-0.8 -56.9 -0.9 -61.05 -0.9 -63.25 -0.1 -64.35 0.45 -64.95 Q1.3 -71.4 2.3 -77.8 -4.05 -75.0 -10.8 -73.15 -12.4 -73.4 -13.4 -74.65 L-13.5 -75.8 -13.6 -77.45 Q-3.9 -91.1 6.85 -104.35 L6.95 -104.75 7.05 -105.35 7.55 -106.9 6.1 -108.15 Q2.65 -111.6 2.65 -116.5 2.65 -121.4 6.1 -124.85 9.55 -128.3 14.45 -128.3 M11.45 -95.5 L10.05 -88.6 13.4 -90.35 Q12.35 -92.9 11.45 -95.5 M3.45 -85.2 L4.55 -91.8 -2.55 -82.45 Q-0.3 -83.2 1.85 -84.35 L3.45 -85.2" fill="#000000" fill-rule="evenodd" stroke="none"/>
  </g>
</svg>
