<?xml version="1.0" encoding="UTF-8" standalone="no"?>
<svg xmlns:ffdec="https://www.free-decompiler.com/flash" xmlns:xlink="http://www.w3.org/1999/xlink" ffdec:objectType="shape" height="160.75px" width="110.1px" xmlns="http://www.w3.org/2000/svg">
  <g transform="matrix(1.0, 0.0, 0.0, 1.0, 47.75, 142.4)">
    <path d="M21.85 -137.9 L22.2 -137.5 22.75 -136.75 22.75 -136.4 22.75 -135.25 22.75 -134.15 23.5 -132.95 24.25 -131.9 24.25 -131.5 24.25 -131.15 24.5 -130.75 Q25.05 -129.95 26.0 -129.75 L26.55 -130.1 27.25 -130.75 27.15 -131.8 28.0 -131.75 33.1 -135.4 33.6 -134.6 33.75 -134.25 33.75 -133.9 33.75 -133.5 34.55 -132.7 34.75 -132.4 34.7 -130.9 Q34.65 -130.1 34.85 -129.4 L51.35 -127.9 51.2 -127.55 Q47.2 -123.95 51.25 -121.15 L62.35 -115.65 61.95 -115.3 60.25 -114.0 58.15 -113.4 55.45 -112.75 Q50.65 -112.15 47.25 -109.4 L47.25 -109.0 47.3 -108.25 47.35 -107.9 Q50.65 -104.45 54.25 -101.5 48.95 -101.95 44.75 -99.0 L44.75 -98.65 44.75 -97.9 44.75 -97.5 Q48.4 -94.8 51.25 -91.25 47.7 -89.4 43.5 -88.25 43.1 -87.75 43.2 -87.1 L43.25 -86.0 43.65 -85.65 44.1 -85.25 44.2 -84.9 44.25 -84.5 48.85 -78.9 Q45.7 -78.35 43.75 -75.9 L43.65 -73.9 Q43.25 -71.75 43.25 -69.5 37.15 -70.7 33.25 -66.5 L32.7 -66.65 Q29.15 -68.4 25.85 -70.6 L24.3 -70.7 Q21.35 -68.95 18.0 -67.75 17.6 -67.3 17.7 -66.6 L17.75 -65.5 18.15 -65.15 20.1 -62.9 19.65 -62.2 Q18.6 -61.0 18.25 -59.5 18.35 -59.15 18.65 -58.95 24.05 -55.65 30.6 -55.0 L30.1 -54.4 29.75 -54.0 29.75 -53.65 29.7 -53.25 29.6 -52.9 28.9 -52.1 28.75 -51.75 28.8 -50.65 28.85 -49.9 30.05 -49.45 32.45 -48.85 Q39.85 -47.25 45.5 -42.4 40.6 -41.0 36.75 -37.9 L36.75 -37.5 36.8 -36.75 36.85 -36.4 Q40.5 -34.8 43.75 -32.5 38.4 -32.5 34.25 -29.9 L34.25 -28.75 34.25 -28.0 34.55 -27.6 Q36.9 -23.5 41.0 -21.55 L37.1 -19.9 Q36.0 -19.35 34.7 -19.25 30.05 -18.7 28.25 -15.25 L28.4 -14.95 Q29.05 -14.15 30.1 -14.15 L31.4 -13.0 Q35.4 -10.45 37.5 -6.4 36.55 -5.9 35.75 -5.25 34.25 -4.0 33.25 -2.4 32.6 -0.8 33.15 0.85 L34.35 5.1 34.8 5.45 35.6 5.85 36.6 7.15 Q37.5 8.1 37.75 9.5 L36.0 9.15 Q30.75 7.85 28.75 12.25 L28.75 12.6 28.75 13.0 27.85 14.55 26.85 16.35 26.4 16.4 26.0 16.25 Q20.6 7.8 11.6 11.85 L11.1 10.9 10.25 9.35 10.25 9.0 10.25 8.6 10.25 8.25 9.55 7.6 Q7.45 6.2 5.0 5.75 L4.25 6.0 2.0 6.35 Q1.6 5.2 0.5 4.75 L-1.2 4.8 Q-7.05 8.15 -11.4 13.35 -11.95 12.8 -12.6 12.5 -16.95 10.5 -21.85 13.05 -27.85 16.25 -32.75 18.35 L-31.8 16.15 -30.25 12.75 -30.45 10.55 Q-30.75 9.0 -32.4 8.9 -37.85 8.6 -41.75 6.85 L-40.3 5.6 Q-38.8 4.2 -37.9 2.35 L-37.7 1.25 Q-37.7 0.6 -38.15 0.1 -43.3 -3.85 -47.75 -8.5 L-39.5 -8.9 -38.65 -9.15 Q-38.1 -9.8 -38.15 -10.65 L-38.4 -12.5 -38.65 -12.9 -39.25 -13.65 Q-39.2 -14.6 -39.65 -15.5 L-40.75 -17.4 -40.75 -17.75 -40.75 -18.9 -40.75 -20.0 Q-38.3 -20.55 -36.25 -19.25 -32.5 -16.8 -28.65 -17.15 -28.0 -19.1 -28.1 -21.25 L-28.25 -28.0 Q-23.8 -27.75 -19.5 -26.25 L-19.0 -26.4 -18.65 -26.65 Q-18.0 -28.6 -18.15 -30.75 -18.5 -35.55 -19.15 -40.15 L-18.75 -40.5 -14.5 -40.9 Q-13.75 -41.0 -13.2 -41.5 -8.3 -45.5 -13.65 -50.4 -8.0 -51.65 -3.4 -54.9 -2.85 -55.3 -3.0 -55.95 -3.9 -60.5 -8.75 -62.25 L-8.75 -62.65 -8.75 -63.0 -8.75 -63.4 -8.5 -63.75 -8.15 -64.5 -7.0 -65.25 -6.65 -65.95 -5.4 -67.5 -5.2 -68.65 -5.25 -69.75 Q-5.55 -70.15 -5.9 -70.15 -13.0 -70.2 -19.75 -72.0 L-19.2 -72.5 -17.0 -73.75 -16.7 -74.5 -16.25 -75.25 -16.25 -76.0 -16.25 -76.75 -17.1 -78.3 Q-17.7 -79.8 -19.15 -80.5 L-19.45 -81.3 -19.5 -81.9 -18.75 -82.1 Q-14.0 -82.35 -11.25 -85.75 -11.25 -87.8 -11.5 -89.85 -11.9 -93.4 -11.75 -97.0 L-10.75 -97.15 -10.45 -96.95 Q-6.8 -93.85 -3.25 -95.75 -3.1 -97.3 -3.8 -98.6 -6.45 -103.55 -9.4 -108.5 -5.1 -108.55 -1.9 -111.0 L-1.8 -111.75 -1.75 -112.5 -1.5 -112.9 -1.25 -113.25 -1.25 -116.25 Q-1.2 -120.45 -4.75 -123.0 L0.05 -123.8 0.75 -124.25 Q0.75 -126.15 0.3 -127.9 -1.05 -133.2 -3.9 -137.75 -0.65 -135.55 3.0 -134.25 L4.4 -134.15 Q8.8 -135.0 8.35 -140.25 L8.85 -140.65 9.1 -141.0 9.2 -141.4 9.25 -141.75 9.25 -142.15 9.75 -142.4 Q12.3 -140.9 13.9 -138.4 17.0 -133.5 20.1 -138.0 L21.85 -137.9" fill="#ffff00" fill-opacity="0.5019608" fill-rule="evenodd" stroke="none"/>
  </g>
</svg>
