<?xml version="1.0" encoding="UTF-8" standalone="no"?>
<svg xmlns:ffdec="https://www.free-decompiler.com/flash" xmlns:xlink="http://www.w3.org/1999/xlink" ffdec:objectType="shape" height="127.3px" width="72.75px" xmlns="http://www.w3.org/2000/svg">
  <g transform="matrix(1.0, 0.0, 0.0, 1.0, 28.3, 125.3)">
    <path d="M9.15 -104.15 Q9.45 -105.05 10.1 -105.7 7.15 -109.0 7.15 -113.5 7.15 -118.4 10.6 -121.85 14.05 -125.3 18.95 -125.3 23.85 -125.3 27.3 -121.85 30.75 -118.4 30.75 -113.5 30.75 -108.6 27.3 -105.15 24.35 -102.2 20.4 -101.75 L20.95 -100.7 Q21.75 -99.05 23.1 -97.9 L23.85 -96.05 26.15 -97.9 26.7 -99.0 27.7 -100.25 Q27.9 -104.6 32.35 -105.25 33.8 -104.7 34.7 -104.0 L38.05 -115.8 Q38.55 -117.35 40.0 -117.55 45.75 -117.4 44.05 -111.95 L43.85 -111.4 43.1 -110.85 42.15 -110.25 34.9 -80.25 33.85 -76.75 Q28.35 -74.75 25.4 -81.0 23.85 -84.3 21.75 -87.3 20.6 -86.7 19.45 -86.2 15.95 -83.55 11.75 -82.35 11.25 -81.7 10.55 -81.4 L6.6 -55.8 Q16.05 -52.1 22.9 -43.65 28.45 -36.85 23.1 -29.05 22.3 -26.2 22.35 -23.25 22.4 -20.6 20.6 -18.65 20.95 -15.35 20.25 -12.2 19.55 -9.05 18.45 -5.95 L18.45 -5.45 19.05 -4.8 Q25.0 -5.9 26.0 -1.15 23.65 3.4 17.75 1.35 15.6 0.6 13.55 -0.35 9.6 -2.25 11.15 -6.35 14.75 -15.5 16.3 -25.2 17.35 -31.4 19.45 -37.3 13.8 -45.0 5.85 -50.4 L5.3 -46.45 Q4.15 -37.7 1.35 -29.6 0.25 -25.6 -3.3 -23.25 -5.5 -21.0 -6.7 -18.05 L-6.95 -17.5 -7.7 -16.95 -8.65 -16.35 Q-14.05 -9.15 -20.7 -3.5 L-7.95 -2.75 Q-6.8 -2.7 -6.55 -1.5 L-6.35 -0.35 Q-7.0 1.9 -9.25 1.9 L-26.7 1.25 Q-27.45 1.2 -28.1 0.6 L-28.25 0.0 Q-28.45 -1.0 -28.05 -1.8 -27.65 -6.55 -23.1 -9.6 -21.35 -10.75 -19.95 -12.4 -11.25 -22.5 -3.1 -33.25 -2.5 -38.55 -1.5 -43.7 -1.35 -44.5 -1.35 -45.4 L-1.1 -45.9 0.0 -47.1 Q1.5 -62.25 3.65 -77.2 -1.05 -74.85 -6.65 -75.7 -7.4 -75.8 -8.1 -76.35 -7.75 -81.15 -3.55 -84.55 L-3.1 -85.05 Q0.15 -94.4 7.75 -99.75 L9.15 -104.15 M30.0 -86.75 L32.25 -95.1 Q29.75 -92.55 26.95 -90.5 L28.85 -87.95 30.0 -86.75 M12.2 -91.4 L11.75 -88.6 Q15.15 -90.3 18.4 -92.3 17.1 -95.75 15.05 -98.75 L14.2 -97.95 Q12.8 -94.9 12.2 -91.4 M4.9 -85.7 L5.3 -88.1 3.45 -85.2 4.9 -85.7" fill="#000000" fill-rule="evenodd" stroke="none"/>
  </g>
</svg>
