<?xml version="1.0" encoding="UTF-8" standalone="no"?>
<svg xmlns:ffdec="https://www.free-decompiler.com/flash" xmlns:xlink="http://www.w3.org/1999/xlink" ffdec:objectType="shape" height="158.65px" width="109.0px" xmlns="http://www.w3.org/2000/svg">
  <g transform="matrix(1.0, 0.0, 0.0, 1.0, 37.25, 142.75)">
    <path d="M28.5 -139.0 L29.05 -138.3 31.3 -135.4 Q34.15 -130.95 37.3 -134.45 41.2 -138.85 45.5 -142.75 46.3 -142.5 46.8 -141.2 47.95 -138.0 49.75 -135.25 L49.75 -134.9 49.75 -134.15 50.0 -133.75 50.25 -133.4 50.2 -133.0 Q50.15 -132.4 50.35 -131.9 L63.35 -131.15 62.5 -129.55 Q61.3 -127.9 61.85 -125.9 62.75 -125.0 64.1 -125.15 67.35 -123.4 71.0 -122.25 L71.1 -122.0 71.35 -121.25 Q68.9 -119.8 67.1 -117.9 L66.5 -117.6 65.75 -116.9 65.7 -115.75 Q65.65 -114.8 65.85 -113.9 L66.25 -113.5 69.35 -110.15 69.85 -109.05 71.75 -106.0 Q67.8 -106.0 65.25 -103.4 L65.15 -100.0 Q65.0 -96.15 65.6 -92.5 62.85 -92.7 61.25 -90.5 60.9 -88.65 61.05 -86.8 61.4 -82.6 62.25 -78.5 60.65 -78.6 59.25 -78.0 57.45 -75.75 56.75 -72.9 55.5 -67.65 55.6 -62.25 51.3 -66.7 46.1 -70.0 L45.85 -70.35 Q44.4 -72.15 42.5 -73.25 41.5 -73.15 41.25 -72.25 41.4 -71.0 40.9 -69.95 39.65 -67.5 39.6 -64.75 L39.1 -64.4 38.0 -63.0 37.3 -63.55 Q35.05 -65.45 33.75 -68.0 L33.75 -68.4 33.75 -68.75 33.5 -69.15 Q31.0 -73.1 28.75 -69.4 L28.25 -66.7 Q27.45 -63.95 26.25 -61.5 23.85 -61.85 21.75 -61.0 L21.55 -60.75 21.25 -60.0 Q21.65 -58.3 23.6 -58.15 L31.25 -54.75 31.2 -52.9 Q31.15 -51.35 31.35 -49.9 36.65 -47.85 42.75 -49.0 L42.7 -46.15 Q42.65 -43.5 42.85 -40.9 46.75 -39.3 51.25 -39.5 L51.85 -38.75 51.8 -38.4 51.75 -37.65 51.05 -36.95 Q47.3 -34.1 44.25 -30.9 L44.2 -30.5 Q44.15 -29.95 44.35 -29.4 L44.75 -29.05 Q47.0 -27.65 48.85 -25.75 48.45 -25.4 48.0 -25.4 43.4 -25.7 40.25 -23.0 L40.2 -22.25 Q40.15 -21.3 40.35 -20.4 L40.75 -20.05 Q42.95 -18.7 44.85 -16.75 42.85 -15.9 41.25 -14.4 L41.2 -14.0 41.35 -12.9 Q41.9 -12.3 42.75 -12.15 L42.9 -11.95 Q46.15 -10.6 48.25 -7.75 L48.1 -7.55 39.5 -6.75 Q38.5 -6.7 38.25 -5.75 L38.2 -4.65 Q38.15 -3.5 38.35 -2.4 L39.0 -1.55 Q40.3 0.6 42.1 2.5 38.85 2.4 36.35 4.35 L36.25 4.75 36.1 5.5 35.25 6.6 35.3 8.1 35.1 10.25 Q33.85 9.1 33.35 7.45 32.0 2.8 27.75 3.0 L27.5 3.25 18.6 12.6 18.0 12.75 17.35 12.5 Q16.35 10.95 14.95 9.7 14.3 9.1 13.55 9.2 7.8 10.05 4.35 15.35 3.65 16.05 2.85 15.85 L0.8 13.4 Q-2.7 9.15 -8.35 11.15 -13.0 12.8 -16.75 14.5 L-16.7 12.25 Q-16.65 10.35 -16.9 8.5 -21.7 3.75 -28.9 3.0 L-28.5 2.6 -26.75 0.75 -26.75 0.35 -26.75 -0.75 Q-31.85 -5.05 -37.25 -9.15 -33.5 -10.35 -29.5 -10.8 -25.8 -11.25 -26.4 -14.5 L-26.95 -15.3 Q-28.4 -17.75 -30.25 -19.75 L-31.0 -21.25 Q-32.1 -23.15 -31.75 -25.0 -25.9 -24.45 -20.5 -24.75 L-20.4 -25.15 -19.75 -26.25 Q-19.65 -27.2 -19.95 -28.1 L-20.75 -32.25 -21.7 -33.7 Q-22.65 -35.55 -22.75 -37.5 L-21.25 -37.75 Q-14.35 -37.9 -7.75 -39.5 L-7.55 -39.8 -7.25 -40.5 -7.6 -41.15 -13.5 -47.65 Q-11.35 -50.3 -7.6 -50.75 -0.8 -51.5 -1.75 -58.25 L-2.0 -58.65 Q-4.4 -62.3 -8.4 -64.15 L-8.2 -64.5 -7.75 -65.25 -7.75 -65.65 -7.75 -66.0 -7.4 -66.4 Q-5.45 -68.2 -3.9 -70.15 L-3.4 -71.65 Q-2.85 -72.9 -2.75 -74.25 L-3.45 -74.75 Q-9.4 -76.3 -14.65 -79.15 -12.0 -80.95 -9.15 -82.35 -2.85 -85.45 -1.75 -91.75 L-2.65 -92.9 Q-5.4 -95.5 -7.25 -98.5 L-5.9 -100.0 -5.0 -100.25 Q-3.35 -100.7 -2.25 -102.0 0.75 -102.65 3.1 -104.5 L3.35 -105.6 Q3.55 -108.1 1.5 -109.4 L-2.5 -112.75 -1.75 -113.5 Q3.65 -114.45 6.1 -119.15 L6.4 -120.25 7.0 -123.0 Q8.0 -126.9 7.75 -131.15 L13.4 -129.2 Q20.85 -126.2 21.25 -133.9 L21.7 -133.25 22.35 -131.4 22.75 -131.05 Q24.2 -130.0 25.75 -130.5 L25.95 -130.8 26.25 -131.5 26.1 -131.85 25.1 -133.4 25.7 -134.9 Q26.95 -137.2 28.5 -139.0 M54.3 -110.8 L53.4 -109.2 54.25 -109.2 54.35 -110.85 54.3 -110.8" fill="#ffff00" fill-opacity="0.5019608" fill-rule="evenodd" stroke="none"/>
  </g>
</svg>
