<?xml version="1.0" encoding="UTF-8" standalone="no"?>
<svg xmlns:ffdec="https://www.free-decompiler.com/flash" xmlns:xlink="http://www.w3.org/1999/xlink" ffdec:objectType="shape" height="126.7px" width="83.55px" xmlns="http://www.w3.org/2000/svg">
  <g transform="matrix(1.0, 0.0, 0.0, 1.0, 24.35, 122.7)">
    <path d="M16.6 -101.3 L15.15 -102.55 Q11.7 -106.0 11.7 -110.9 11.7 -115.8 15.15 -119.25 18.6 -122.7 23.5 -122.7 28.4 -122.7 31.85 -119.25 35.3 -115.8 35.3 -110.9 35.3 -106.0 31.85 -102.55 30.3 -101.0 28.4 -100.1 29.85 -99.05 31.55 -98.25 33.85 -97.2 36.25 -96.1 L41.35 -101.25 Q40.9 -109.15 39.65 -117.0 L39.45 -119.3 Q40.15 -121.25 42.35 -121.3 L42.35 -121.4 Q47.3 -118.1 46.75 -111.15 46.55 -108.9 46.85 -106.55 L49.8 -109.35 49.65 -109.45 Q49.2 -111.2 49.85 -112.85 50.3 -114.0 50.4 -115.25 L52.25 -116.8 53.2 -117.35 53.4 -118.45 Q53.5 -119.0 54.05 -119.5 L54.45 -119.6 55.4 -119.75 55.4 -119.85 Q61.6 -117.2 57.7 -110.45 55.25 -106.2 51.3 -102.85 49.8 -101.6 49.25 -99.85 L47.8 -98.75 49.0 -85.2 Q49.1 -84.0 47.9 -84.0 43.35 -83.95 39.4 -87.2 L37.35 -88.55 35.4 -86.0 34.6 -85.45 33.65 -84.85 Q31.2 -80.75 26.95 -78.7 22.8 -79.9 23.1 -84.25 21.6 -86.35 21.1 -88.9 20.95 -89.45 20.95 -90.05 20.2 -91.45 19.1 -92.55 L19.05 -92.55 Q17.85 -88.15 15.95 -83.95 L15.2 -82.7 9.55 -52.8 10.0 -52.9 Q22.55 -48.2 31.8 -37.8 35.5 -33.65 31.5 -29.1 23.15 -19.5 20.0 -6.9 22.55 -4.8 27.7 -5.95 33.45 -2.65 27.3 -0.5 24.7 0.4 21.75 0.3 16.25 0.1 11.95 -2.5 11.45 -8.0 15.05 -12.7 15.45 -13.2 15.7 -14.05 18.9 -25.4 26.55 -34.25 18.7 -42.25 8.7 -48.5 L7.2 -41.05 Q5.8 -33.9 3.55 -26.95 2.85 -24.85 1.4 -23.05 -5.4 -14.65 -13.5 -7.25 -14.35 -6.45 -15.2 -5.95 -12.3 -4.05 -9.35 -1.95 L-9.25 -2.0 -9.25 -2.1 Q-4.6 -3.25 -3.35 0.65 L-3.3 1.2 Q-5.6 4.95 -9.2 3.7 -15.6 4.25 -20.8 -1.8 L-22.8 -3.95 -24.25 -5.75 -24.35 -6.9 -24.25 -8.05 Q-23.7 -9.15 -22.5 -9.55 L-21.55 -9.8 -21.45 -9.75 Q-11.35 -17.5 -3.1 -27.1 L-2.9 -27.7 -2.7 -28.85 Q0.65 -36.1 1.75 -44.35 3.2 -55.15 5.35 -65.85 7.55 -76.45 10.75 -86.55 12.05 -94.4 16.3 -100.45 L16.6 -101.3 M25.75 -93.7 Q26.65 -91.2 27.7 -88.7 L28.1 -88.45 29.05 -88.5 31.45 -91.05 Q28.35 -92.5 25.55 -94.2 L25.75 -93.7" fill="#000000" fill-rule="evenodd" stroke="none"/>
  </g>
</svg>
