<?xml version="1.0" encoding="UTF-8" standalone="no"?>
<svg xmlns:ffdec="https://www.free-decompiler.com/flash" xmlns:xlink="http://www.w3.org/1999/xlink" ffdec:objectType="shape" height="143.5px" width="115.25px" xmlns="http://www.w3.org/2000/svg">
  <g transform="matrix(1.0, 0.0, 0.0, 1.0, 38.65, 128.65)">
    <path d="M24.25 -125.0 L24.25 -124.75 24.25 -123.65 Q27.2 -120.05 31.35 -120.65 31.95 -121.85 31.75 -123.25 L31.25 -124.0 Q31.15 -124.6 31.35 -125.15 32.9 -126.6 33.25 -128.5 L36.8 -124.55 Q40.3 -120.85 44.7 -123.05 48.25 -124.85 51.5 -126.15 L51.6 -125.9 Q52.5 -124.15 52.25 -122.15 L52.75 -121.4 52.75 -121.0 52.75 -120.65 Q55.1 -117.75 58.25 -120.0 59.65 -120.15 60.75 -120.75 L60.75 -120.4 60.75 -119.65 60.25 -118.9 60.25 -118.5 Q60.15 -117.15 60.35 -115.9 63.05 -114.5 66.45 -115.0 69.6 -115.5 70.25 -113.4 69.55 -112.75 68.5 -112.25 68.1 -111.75 68.25 -111.15 67.25 -110.35 67.25 -109.25 L76.6 -99.9 Q69.55 -97.65 62.5 -96.25 62.0 -95.4 62.35 -94.4 64.7 -93.05 66.25 -90.75 63.05 -90.15 60.25 -89.0 L60.25 -88.65 60.25 -87.15 60.75 -86.4 Q62.35 -83.0 64.75 -80.0 61.45 -79.3 58.75 -77.5 L58.75 -77.15 58.75 -74.5 59.6 -73.75 59.75 -73.0 Q61.3 -71.8 62.0 -70.0 L56.55 -69.4 55.7 -69.1 54.7 -68.4 Q51.45 -65.25 48.75 -62.0 47.15 -64.3 44.95 -66.1 L44.0 -66.45 Q39.1 -66.4 35.35 -62.8 35.0 -62.45 34.7 -62.6 31.3 -64.7 28.05 -67.45 27.1 -68.25 26.0 -68.25 19.85 -68.25 19.6 -62.0 16.45 -61.95 14.75 -59.75 L14.75 -59.4 14.75 -57.5 Q15.5 -56.75 16.4 -56.25 L22.75 -52.5 Q22.65 -51.15 22.85 -49.9 25.5 -48.4 29.0 -48.8 33.4 -49.3 35.85 -47.15 32.65 -45.25 31.25 -42.25 34.4 -40.55 38.25 -39.5 L32.75 -33.9 Q32.8 -33.2 33.45 -32.7 35.35 -31.35 37.55 -30.3 40.95 -28.65 43.25 -26.5 38.6 -24.65 34.75 -21.5 L34.75 -21.15 34.75 -19.65 Q37.6 -17.1 40.75 -15.15 L40.25 -14.5 37.25 -14.0 Q35.8 -12.45 36.35 -10.4 L37.5 -9.65 Q39.8 -5.1 43.75 -1.5 38.7 -1.1 34.0 0.25 33.55 1.25 33.75 2.5 L34.25 3.25 34.25 3.6 34.25 4.0 Q36.5 6.85 36.6 10.25 L35.85 10.1 Q33.85 8.25 31.1 9.05 25.85 10.6 22.1 14.85 L21.1 13.85 Q20.35 13.1 19.45 12.8 12.2 10.45 5.75 14.25 L5.7 14.0 Q5.15 12.95 5.25 11.75 2.6 9.2 -1.2 10.7 -6.65 12.85 -12.25 13.5 -12.95 11.95 -13.25 10.25 L-13.95 9.8 Q-20.25 8.4 -26.25 10.5 -26.3 7.65 -26.7 4.85 -26.85 3.85 -27.6 3.25 -32.4 -0.6 -38.65 -2.65 -36.8 -3.3 -35.4 -4.5 L-35.3 -4.9 -35.25 -8.25 -35.75 -9.0 -35.75 -9.4 -35.75 -10.5 -21.0 -8.9 Q-20.4 -9.2 -20.25 -9.9 -20.35 -10.8 -21.25 -11.4 -21.45 -12.95 -22.75 -14.0 L-22.75 -14.4 -22.75 -14.75 -23.65 -15.9 Q-23.9 -18.3 -25.65 -20.0 L-25.9 -21.5 -17.5 -21.9 -16.65 -22.15 -16.45 -22.55 Q-15.5 -26.65 -17.25 -30.0 L-17.25 -30.4 -17.25 -30.75 -18.75 -32.25 Q-18.7 -32.95 -17.9 -33.5 -12.05 -33.2 -10.55 -37.85 -10.25 -38.7 -10.65 -39.4 -14.1 -45.5 -17.75 -51.25 -16.75 -51.95 -16.15 -53.15 -10.15 -58.1 -16.0 -64.25 L-17.15 -65.0 -17.65 -66.15 -11.0 -68.2 Q-10.0 -68.5 -9.7 -69.5 -8.0 -75.1 -11.75 -80.25 -11.3 -80.65 -10.85 -80.65 -5.7 -81.05 -1.9 -83.5 -1.6 -84.25 -1.9 -85.0 -4.95 -88.6 -6.65 -92.9 L-7.25 -93.65 2.0 -94.35 Q2.85 -94.45 3.25 -95.25 L3.0 -96.65 Q1.0 -101.4 0.75 -106.5 4.95 -106.75 8.95 -107.7 10.65 -108.1 10.25 -110.0 L10.75 -110.75 10.75 -111.15 10.75 -112.25 10.25 -113.0 10.25 -113.4 9.25 -120.5 10.0 -120.75 Q15.45 -122.7 14.75 -128.65 19.65 -127.65 24.25 -125.0 M68.85 -114.35 L68.8 -114.3 67.9 -112.7 68.75 -112.7 68.85 -114.35" fill="#ffff00" fill-opacity="0.5019608" fill-rule="evenodd" stroke="none"/>
  </g>
</svg>
