<?xml version="1.0" encoding="UTF-8" standalone="no"?>
<svg xmlns:ffdec="https://www.free-decompiler.com/flash" xmlns:xlink="http://www.w3.org/1999/xlink" ffdec:objectType="shape" height="154.0px" width="109.1px" xmlns="http://www.w3.org/2000/svg">
  <g transform="matrix(1.0, 0.0, 0.0, 1.0, 34.5, 135.75)">
    <path d="M22.0 -134.3 Q22.6 -134.15 23.05 -133.75 29.1 -128.95 35.5 -124.75 36.1 -124.8 36.5 -125.25 36.9 -129.35 38.35 -133.15 L38.75 -133.5 Q39.6 -133.4 40.2 -132.9 44.8 -129.2 48.75 -124.7 L47.9 -123.2 48.75 -123.2 48.85 -124.6 50.75 -122.4 Q50.65 -121.6 50.85 -120.9 51.45 -120.55 52.0 -120.25 57.2 -125.15 64.1 -124.15 65.0 -121.6 64.85 -118.9 L66.05 -118.05 Q72.9 -113.05 74.6 -105.4 70.65 -103.2 70.75 -98.65 L71.25 -97.9 Q70.15 -91.4 63.75 -88.75 63.65 -87.8 63.85 -86.9 L68.5 -82.0 Q64.65 -81.4 61.75 -79.75 62.75 -75.75 61.6 -71.9 L60.1 -70.0 56.85 -69.9 Q53.2 -72.5 49.25 -73.0 L47.25 -69.75 Q46.8 -66.4 45.1 -63.4 41.15 -63.3 37.85 -66.4 33.85 -70.1 31.25 -66.4 30.8 -63.7 30.0 -61.15 L29.35 -60.9 Q26.45 -62.85 23.25 -62.5 22.1 -61.3 22.25 -59.65 23.7 -57.4 26.1 -56.65 L37.75 -49.9 Q37.4 -49.05 36.75 -48.4 L36.75 -48.0 36.75 -46.15 Q39.2 -43.25 41.75 -40.5 L36.25 -34.9 Q36.15 -33.35 36.35 -31.9 L39.15 -29.8 Q42.65 -26.9 43.1 -22.9 40.3 -20.55 37.75 -17.9 37.55 -16.5 38.0 -15.25 40.75 -14.15 42.25 -11.65 L41.75 -10.9 41.75 -10.5 Q41.65 -7.65 41.85 -4.9 43.1 -3.5 43.75 -1.9 38.6 -1.2 33.0 0.25 L32.95 0.95 Q34.15 6.0 34.6 11.1 L34.25 11.5 Q29.05 11.45 24.75 14.0 L24.75 14.35 24.6 18.0 Q21.85 16.35 18.85 15.5 17.15 13.6 14.75 14.5 13.3 16.8 11.75 18.25 8.75 14.85 5.0 12.75 L0.35 17.6 -0.9 16.85 Q-1.6 15.15 -3.5 14.6 L-6.0 11.25 Q-6.6 10.5 -7.4 10.7 -10.7 11.5 -12.65 14.75 L-14.15 15.6 -14.2 15.35 -14.25 14.25 -15.15 13.1 Q-15.4 10.3 -17.5 8.75 -22.2 11.2 -27.25 12.1 -27.4 10.7 -26.75 9.5 L-24.0 9.1 Q-23.4 8.8 -23.25 8.1 -24.0 6.15 -26.5 6.35 -27.95 5.05 -29.25 6.5 L-31.25 6.5 Q-33.35 4.25 -34.5 1.75 -31.5 0.05 -28.0 -1.25 -27.8 -2.1 -27.25 -2.75 L-27.25 -3.15 -27.25 -4.25 -27.75 -5.0 -27.75 -5.4 -27.75 -5.75 Q-29.55 -8.1 -30.9 -10.65 L-23.5 -11.9 Q-22.55 -12.65 -21.9 -13.65 -21.55 -15.3 -21.9 -17.0 -22.85 -17.95 -22.75 -19.25 L-24.25 -20.75 Q-24.3 -22.4 -25.25 -23.75 L-24.75 -24.5 Q-19.9 -24.75 -15.5 -26.25 -15.05 -27.35 -15.75 -28.2 -18.35 -31.25 -20.15 -34.9 L-20.75 -35.65 Q-17.5 -38.0 -14.4 -40.5 -13.95 -43.6 -14.75 -46.5 -14.0 -48.0 -12.75 -49.15 -11.85 -49.3 -11.25 -50.0 -7.7 -50.85 -4.9 -53.0 -4.45 -55.6 -6.25 -57.5 L-6.25 -57.9 -6.25 -58.25 Q-7.65 -59.75 -8.0 -61.65 -10.25 -62.95 -11.15 -65.4 L-12.9 -66.5 Q-8.2 -67.5 -3.65 -68.65 -2.9 -70.25 -3.4 -72.0 -6.05 -76.75 -9.65 -80.65 L-10.0 -81.75 Q-11.1 -82.25 -11.25 -83.25 -6.2 -84.7 -1.4 -86.5 -1.0 -89.95 -3.25 -92.5 L-3.25 -92.9 -3.25 -93.25 -4.25 -94.75 Q-4.6 -97.5 -5.75 -100.0 -5.0 -100.65 -4.65 -101.5 1.15 -102.9 5.6 -106.5 6.0 -108.6 4.5 -110.25 3.45 -111.05 2.75 -112.15 4.45 -113.65 6.75 -114.5 L8.75 -116.25 8.75 -116.65 8.75 -117.75 Q7.8 -119.5 5.85 -120.0 4.4 -121.85 2.25 -123.0 5.0 -122.35 7.0 -123.75 7.3 -124.45 7.25 -125.25 6.05 -127.55 4.35 -129.4 L3.6 -132.0 Q7.85 -131.6 11.6 -129.45 L13.4 -128.2 Q16.4 -125.85 18.6 -127.65 L18.65 -128.0 Q17.9 -131.6 18.25 -135.5 18.95 -136.0 19.75 -135.5 20.75 -134.65 22.0 -134.3" fill="#ffff00" fill-opacity="0.5019608" fill-rule="evenodd" stroke="none"/>
  </g>
</svg>
