<?xml version="1.0" encoding="UTF-8" standalone="no"?>
<svg xmlns:ffdec="https://www.free-decompiler.com/flash" xmlns:xlink="http://www.w3.org/1999/xlink" ffdec:objectType="shape" height="142.3px" width="113.1px" xmlns="http://www.w3.org/2000/svg">
  <g transform="matrix(1.0, 0.0, 0.0, 1.0, 34.0, 130.3)">
    <path d="M27.75 -125.5 L28.1 -126.15 28.75 -127.25 29.45 -127.7 32.75 -130.25 32.8 -130.3 33.0 -129.65 33.25 -128.5 33.55 -128.1 33.75 -127.75 Q33.6 -127.1 33.95 -126.6 34.65 -125.6 34.85 -124.4 L35.65 -123.55 Q36.15 -123.0 36.75 -123.0 43.85 -122.75 50.75 -125.4 L50.75 -122.9 50.75 -118.0 51.25 -117.25 Q51.5 -116.9 51.75 -116.9 L68.75 -118.0 68.5 -117.75 68.25 -117.4 68.25 -116.25 68.25 -115.15 67.95 -114.75 67.25 -114.0 67.2 -112.9 Q67.15 -112.1 67.35 -111.4 73.65 -109.5 79.1 -105.5 L70.75 -99.5 70.75 -98.0 70.75 -96.15 70.95 -95.75 71.1 -95.0 Q65.7 -94.9 61.25 -92.0 61.25 -90.5 61.4 -89.05 61.85 -85.35 63.6 -81.9 60.0 -80.35 57.75 -77.5 L57.75 -75.25 57.75 -71.5 58.05 -71.1 58.25 -70.75 Q58.1 -70.1 58.45 -69.6 L58.75 -68.5 Q56.05 -68.5 53.5 -67.7 52.5 -67.4 51.8 -66.8 45.6 -61.45 42.6 -53.4 L42.0 -53.3 41.85 -53.4 Q41.35 -53.8 41.1 -54.45 L40.35 -55.9 Q40.05 -56.05 39.8 -56.3 L39.25 -57.0 39.25 -57.4 39.25 -57.75 38.95 -58.1 38.0 -58.9 Q34.75 -65.5 29.1 -61.15 L28.25 -61.75 Q27.65 -62.15 27.35 -62.9 L26.1 -63.6 25.1 -63.85 Q18.95 -62.55 18.25 -56.65 20.6 -54.75 23.25 -53.65 23.1 -52.8 23.35 -52.1 23.8 -51.05 23.85 -49.9 28.95 -47.15 34.75 -47.5 L34.1 -46.45 Q33.85 -45.6 33.25 -45.0 L33.2 -44.65 33.1 -43.9 32.85 -43.45 32.75 -42.75 Q32.8 -42.55 32.95 -42.5 L37.25 -40.15 36.7 -37.9 Q35.15 -34.3 38.35 -31.9 L38.25 -31.5 38.1 -30.75 37.65 -30.35 33.25 -25.5 33.2 -24.4 Q33.15 -23.6 33.35 -22.9 L36.85 -21.4 37.05 -21.0 37.25 -20.25 28.75 -15.4 28.75 -15.0 28.75 -14.65 28.85 -13.9 Q32.55 -12.4 34.75 -9.15 L34.45 -8.8 32.75 -7.5 32.7 -6.4 Q32.65 -5.6 32.85 -4.9 L33.25 -4.5 37.75 -0.4 37.75 1.1 37.75 2.6 36.85 3.35 36.6 4.5 Q36.35 5.65 35.35 6.35 L35.25 6.75 35.1 7.5 Q28.55 7.3 24.25 12.0 L24.1 11.6 24.0 11.25 22.1 10.0 Q19.15 8.5 15.65 10.05 12.0 11.7 8.75 11.85 8.25 9.5 5.5 9.35 L-5.25 9.0 Q-14.15 4.6 -22.75 9.35 L-22.75 8.35 -22.75 7.25 Q-26.85 1.7 -34.0 1.25 L-31.15 -1.15 Q-30.55 -1.65 -30.3 -2.2 -27.3 -8.1 -31.65 -14.0 L-30.15 -13.9 Q-29.4 -13.1 -28.25 -13.15 -27.9 -12.35 -27.0 -12.35 -25.5 -12.3 -24.55 -13.05 -20.05 -16.45 -21.25 -22.5 L-15.15 -27.0 Q-12.4 -28.55 -12.2 -31.55 -11.9 -35.65 -15.15 -38.65 L-14.65 -39.2 Q-11.55 -41.1 -10.15 -44.4 L-9.65 -44.8 -8.9 -45.5 Q-8.65 -46.25 -8.7 -47.0 L-8.75 -49.25 -9.05 -49.6 -10.0 -50.4 -10.3 -50.7 -15.15 -54.75 -14.65 -55.15 Q-11.45 -57.5 -9.25 -60.75 L-9.25 -62.25 -9.25 -64.5 -9.0 -64.9 -8.75 -65.25 Q-8.9 -66.25 -8.65 -67.2 -7.9 -70.15 -9.0 -72.4 -5.05 -74.2 -1.75 -76.75 L-1.7 -77.9 Q-1.65 -78.85 -2.0 -79.75 L-2.65 -80.55 -3.0 -81.25 -3.65 -82.05 -4.0 -82.75 -4.65 -83.1 Q-5.5 -83.5 -6.0 -84.25 L-4.65 -85.2 -1.25 -87.0 -0.8 -87.5 Q0.4 -88.25 0.5 -89.55 L0.75 -96.25 0.5 -96.65 0.25 -97.0 0.25 -97.4 0.25 -98.15 0.25 -98.9 0.55 -99.15 Q4.6 -100.7 6.75 -104.25 L6.8 -105.4 Q6.85 -106.35 6.5 -107.25 5.4 -108.0 4.75 -109.05 2.9 -112.05 2.25 -115.5 4.75 -115.7 6.85 -117.15 7.85 -118.45 7.75 -120.15 L7.25 -126.9 Q8.4 -126.7 9.45 -126.15 13.7 -123.95 17.25 -125.75 L17.3 -126.1 17.5 -126.9 18.55 -126.3 Q21.55 -123.7 25.0 -123.4 L25.3 -123.65 Q26.25 -125.0 27.75 -125.5" fill="#ffff00" fill-opacity="0.5019608" fill-rule="evenodd" stroke="none"/>
  </g>
</svg>
