<?xml version="1.0" encoding="UTF-8" standalone="no"?>
<svg xmlns:ffdec="https://www.free-decompiler.com/flash" xmlns:xlink="http://www.w3.org/1999/xlink" ffdec:objectType="shape" height="119.35px" width="85.25px" xmlns="http://www.w3.org/2000/svg">
  <g transform="matrix(1.0, 0.0, 0.0, 1.0, 22.7, 117.45)">
    <path d="M12.65 -105.65 Q12.65 -110.55 16.1 -114.0 19.55 -117.45 24.45 -117.45 29.35 -117.45 32.8 -114.0 34.55 -112.25 35.45 -110.05 35.3 -112.4 37.6 -113.8 L39.25 -114.45 Q40.55 -114.3 41.3 -113.55 45.4 -112.7 44.35 -108.0 L44.45 -107.75 44.25 -107.15 44.1 -106.7 Q44.75 -102.0 45.85 -97.35 L53.3 -105.45 53.3 -106.2 Q53.7 -107.25 54.55 -108.05 L56.4 -109.45 56.75 -109.6 57.7 -109.75 57.75 -109.85 Q65.4 -108.65 60.8 -102.4 L58.95 -100.5 Q57.55 -99.35 56.25 -99.45 51.6 -95.25 47.7 -90.4 L47.95 -89.55 Q48.3 -88.5 48.3 -87.35 50.75 -83.4 51.7 -79.15 51.85 -78.4 51.55 -77.55 44.8 -75.8 38.15 -79.05 34.1 -75.05 28.95 -72.35 27.15 -71.4 25.95 -73.0 21.2 -79.15 15.8 -84.85 L15.65 -85.4 15.55 -86.0 15.4 -86.55 15.35 -86.6 14.45 -84.55 13.65 -83.3 8.85 -67.15 Q8.5 -65.8 7.5 -64.85 L5.8 -55.8 6.15 -55.85 6.15 -55.95 Q12.25 -52.95 17.65 -47.9 24.05 -41.95 28.55 -35.05 29.05 -34.25 28.9 -33.1 28.4 -30.2 26.75 -27.9 25.8 -23.4 24.1 -19.1 L22.3 -15.2 Q21.25 -14.6 20.85 -13.5 L19.8 -11.7 Q19.05 -9.25 17.15 -7.25 16.3 -6.45 15.95 -5.55 L26.85 -4.6 Q30.9 -4.05 29.25 -0.25 28.65 1.25 26.95 1.35 L10.25 -0.25 Q9.5 -0.35 8.85 -0.95 8.7 -8.45 13.55 -14.6 17.65 -19.75 19.95 -25.8 L20.95 -27.5 21.15 -30.35 Q21.3 -31.8 22.5 -32.7 22.55 -33.8 21.75 -34.6 L20.6 -36.15 Q12.5 -43.0 4.85 -50.4 2.7 -37.5 1.3 -24.4 1.05 -22.25 2.1 -20.35 0.25 -15.45 -4.95 -13.05 -5.35 -11.35 -7.7 -9.35 L-11.95 -6.15 Q-12.4 -4.6 -13.85 -3.8 L-14.45 -3.45 -4.1 -2.8 Q-2.95 -2.7 -2.7 -1.5 L-2.5 -0.35 Q-3.15 1.9 -5.4 1.9 L-20.55 1.25 Q-21.25 1.2 -21.95 0.6 L-22.1 0.0 -22.15 -0.6 -22.7 -0.95 Q-21.45 -5.7 -18.15 -9.5 -15.75 -10.0 -13.2 -12.6 L-11.45 -14.3 Q-9.0 -16.65 -7.4 -19.65 L-7.25 -19.9 -4.6 -21.55 Q-3.75 -42.5 0.65 -62.6 1.35 -65.95 3.1 -68.85 5.0 -76.75 7.6 -84.35 L8.1 -86.75 8.65 -87.35 9.25 -87.9 Q9.65 -90.05 10.6 -92.05 L11.15 -93.7 11.75 -94.25 12.3 -94.85 Q12.7 -97.75 14.25 -99.6 12.65 -102.3 12.65 -105.65 M36.25 -105.65 Q36.25 -100.75 32.8 -97.3 29.4 -93.9 24.65 -93.85 L24.8 -93.5 22.6 -93.5 22.7 -93.3 36.5 -87.25 41.1 -92.25 Q39.4 -98.55 38.15 -105.0 36.9 -105.45 36.2 -106.85 L36.25 -105.65 M43.35 -84.6 L43.05 -84.25 43.5 -84.05 43.35 -84.6 M29.45 -79.65 L32.1 -82.45 Q26.9 -85.35 21.5 -87.75 25.1 -84.55 27.6 -80.45 L28.1 -79.85 28.7 -79.6 29.45 -79.65" fill="#000000" fill-rule="evenodd" stroke="none"/>
  </g>
</svg>
