<?xml version="1.0" encoding="UTF-8" standalone="no"?>
<svg xmlns:ffdec="https://www.free-decompiler.com/flash" xmlns:xlink="http://www.w3.org/1999/xlink" ffdec:objectType="shape" height="144.8px" width="109.0px" xmlns="http://www.w3.org/2000/svg">
  <g transform="matrix(1.0, 0.0, 0.0, 1.0, 34.25, 133.3)">
    <path d="M26.25 -133.25 L26.25 -133.3 Q28.25 -130.95 29.25 -128.0 31.0 -125.35 33.25 -127.0 34.75 -127.0 35.75 -128.0 L42.0 -130.9 42.75 -130.25 42.75 -129.9 42.75 -129.5 43.0 -129.1 Q43.95 -126.6 43.85 -123.9 44.5 -123.1 45.5 -123.25 L52.7 -124.65 58.25 -125.15 58.2 -124.75 Q57.9 -122.3 57.85 -119.9 L67.85 -119.4 Q67.5 -118.0 66.35 -117.15 L66.1 -116.0 Q64.65 -114.6 64.75 -112.65 69.4 -109.6 74.1 -106.15 74.75 -105.2 74.75 -104.25 70.95 -101.9 67.75 -98.75 67.65 -97.8 67.85 -96.9 70.3 -95.6 71.25 -93.5 66.1 -93.15 62.75 -89.75 L62.75 -89.4 62.75 -87.5 Q63.3 -86.4 64.25 -85.65 64.4 -84.3 65.35 -83.4 60.85 -82.2 57.25 -79.5 L57.25 -79.15 57.25 -76.5 57.75 -75.75 57.8 -75.4 Q59.35 -71.8 59.75 -67.9 50.3 -68.7 43.6 -62.9 L40.0 -59.75 38.25 -62.0 38.25 -62.4 38.25 -62.75 37.0 -64.05 Q35.8 -64.8 34.45 -64.9 30.4 -65.25 27.1 -63.15 26.15 -65.1 25.75 -67.25 L24.85 -68.45 24.4 -68.85 Q17.85 -71.35 13.25 -66.75 L13.25 -66.4 13.25 -65.65 Q17.15 -63.25 22.1 -62.5 L22.05 -62.3 21.6 -60.4 21.25 -60.0 21.1 -58.9 Q20.5 -58.45 20.25 -57.75 L20.25 -57.4 Q20.15 -55.85 20.35 -54.4 21.8 -53.25 23.75 -53.25 27.55 -53.3 29.75 -51.65 L29.75 -51.25 29.75 -50.15 Q27.9 -48.6 28.35 -46.4 33.4 -44.1 38.75 -42.9 37.1 -40.15 34.25 -38.0 L34.25 -37.65 Q34.15 -36.5 34.35 -35.4 38.95 -31.85 42.75 -27.4 40.15 -26.6 37.5 -26.65 34.05 -26.75 32.25 -24.75 L32.25 -24.4 32.25 -23.65 Q34.5 -20.7 37.6 -19.15 39.15 -18.3 40.1 -16.9 L39.75 -16.5 Q35.9 -16.2 32.5 -14.75 32.0 -13.9 32.35 -12.9 L33.5 -12.25 Q37.2 -8.15 41.25 -4.15 L41.35 -3.4 41.75 -3.0 Q38.95 -2.55 36.5 -1.75 36.05 -0.75 36.25 0.5 L37.25 1.6 37.1 3.5 Q35.85 5.45 34.1 7.1 28.7 5.85 24.75 9.0 L23.5 8.6 Q22.75 7.35 21.45 6.8 15.7 4.5 14.0 10.6 12.7 11.6 11.25 11.5 10.25 10.0 9.9 8.2 9.6 6.9 8.45 6.25 6.2 5.0 3.7 5.9 -2.6 8.2 -8.9 10.0 L-11.0 8.0 Q-11.3 7.75 -11.6 7.6 -19.35 3.45 -27.75 6.0 -27.95 3.55 -29.65 1.6 -32.45 -0.3 -34.25 -3.0 L-28.95 -3.8 Q-28.55 -3.9 -28.25 -4.25 L-28.25 -5.75 Q-28.4 -10.7 -30.75 -15.15 -24.9 -14.7 -19.65 -16.65 -18.0 -21.65 -22.75 -25.65 -17.05 -27.2 -11.0 -27.1 -9.2 -27.1 -8.75 -28.65 -10.85 -31.35 -13.65 -33.5 -14.4 -34.75 -15.5 -35.75 L-13.75 -37.0 Q-8.75 -38.6 -4.15 -41.15 -2.25 -43.75 -4.25 -46.0 -4.15 -46.8 -4.4 -47.5 -7.35 -50.45 -10.65 -52.9 L-10.7 -53.15 -10.75 -55.4 -9.0 -57.25 Q-7.8 -59.35 -5.9 -61.0 L-5.8 -61.4 -5.75 -63.25 Q-7.5 -65.3 -9.65 -66.9 L-10.0 -68.75 Q-6.85 -71.45 -3.25 -73.75 L-3.25 -74.15 -3.25 -74.5 -2.75 -75.25 -2.75 -75.65 Q-2.65 -77.35 -2.9 -79.0 -4.0 -79.95 -4.5 -81.25 -5.8 -82.35 -6.25 -83.9 -5.4 -84.8 -4.25 -85.5 0.95 -87.05 5.6 -89.5 L5.7 -89.9 Q5.85 -91.2 5.6 -92.5 4.0 -94.1 3.5 -96.25 L2.25 -97.0 2.25 -97.4 2.25 -97.75 Q0.65 -100.15 0.75 -103.0 L1.35 -104.15 Q2.2 -104.35 2.75 -105.0 5.15 -105.2 6.9 -106.55 L7.75 -107.55 Q9.65 -111.6 5.25 -114.5 5.3 -115.3 4.85 -116.0 12.05 -117.25 17.25 -121.75 L17.25 -122.9 17.25 -130.0 Q20.55 -129.25 22.75 -126.5 22.65 -125.9 22.85 -125.4 L24.0 -124.75 26.25 -125.5 26.75 -126.5 Q26.35 -127.65 25.35 -128.4 L25.5 -128.75 Q26.25 -130.9 26.25 -133.25 M64.3 -109.8 L63.4 -108.2 64.25 -108.2 64.35 -109.85 64.3 -109.8 M18.6 -67.0 L18.85 -67.05 22.75 -66.65 23.35 -65.55 23.6 -64.9 Q20.4 -65.15 17.75 -66.65 L18.6 -67.0" fill="#ffff00" fill-opacity="0.5019608" fill-rule="evenodd" stroke="none"/>
  </g>
</svg>
