<?xml version="1.0" encoding="UTF-8" standalone="no"?>
<svg xmlns:ffdec="https://www.free-decompiler.com/flash" xmlns:xlink="http://www.w3.org/1999/xlink" ffdec:objectType="shape" height="156.5px" width="110.6px" xmlns="http://www.w3.org/2000/svg">
  <g transform="matrix(1.0, 0.0, 0.0, 1.0, 52.75, 143.25)">
    <path d="M25.7 -127.5 Q25.65 -126.9 25.85 -126.4 L32.35 -125.65 Q32.1 -124.0 30.75 -123.0 30.2 -120.95 30.35 -118.9 L37.25 -119.15 Q37.3 -118.35 37.9 -117.85 41.35 -115.1 45.25 -118.75 L45.25 -118.4 45.25 -114.65 45.95 -114.05 Q49.65 -112.05 53.75 -112.4 L52.75 -110.9 Q49.8 -107.55 49.85 -103.4 L52.35 -101.9 Q55.35 -99.15 57.85 -95.9 52.95 -95.35 48.75 -93.0 L48.75 -92.65 Q49.1 -86.7 50.6 -81.25 44.05 -83.45 40.25 -78.5 L40.2 -78.15 40.1 -77.4 Q39.5 -76.95 39.25 -76.25 39.45 -73.2 37.85 -70.65 L37.75 -70.25 37.75 -69.9 37.25 -69.5 Q32.75 -70.65 28.5 -72.4 L27.55 -72.8 25.35 -72.6 Q22.3 -70.9 19.75 -68.25 19.85 -66.05 18.25 -64.5 L18.2 -64.15 18.1 -63.4 17.75 -63.0 17.7 -62.65 17.6 -61.9 Q14.55 -62.1 12.5 -64.9 12.05 -65.95 11.0 -66.4 L9.85 -68.15 Q9.55 -68.65 9.1 -68.6 2.65 -68.45 -0.75 -62.75 0.4 -61.05 2.25 -62.25 L2.25 -61.9 2.25 -58.5 Q2.6 -58.15 3.05 -57.9 7.7 -55.65 12.75 -55.15 L12.75 -54.75 12.75 -50.65 Q13.15 -50.0 13.75 -50.0 17.9 -49.8 20.75 -47.9 L20.75 -47.5 20.75 -47.15 17.25 -42.25 17.25 -41.9 Q17.15 -41.1 17.35 -40.4 22.85 -38.25 27.85 -35.25 L26.5 -34.25 24.45 -33.35 Q19.1 -31.45 18.75 -26.5 22.1 -24.6 24.35 -21.9 L19.75 -17.0 19.75 -16.65 Q19.65 -15.5 19.85 -14.4 23.9 -13.15 26.75 -10.0 L21.75 -5.5 21.75 -5.15 21.75 -2.15 Q23.95 0.05 25.25 2.75 20.35 5.3 19.1 10.6 L18.1 9.9 Q12.9 4.3 6.25 8.5 5.35 8.7 4.9 9.2 2.95 11.6 0.1 11.35 -0.7 10.45 -1.65 9.9 -5.25 7.8 -9.35 9.25 -14.7 11.15 -19.75 13.25 -20.75 11.7 -22.5 11.3 -31.2 9.15 -39.5 10.0 L-39.45 9.75 -38.9 9.0 -38.8 8.6 -38.75 8.25 Q-37.75 7.75 -37.25 6.75 L-37.25 6.35 -37.25 5.25 Q-42.65 1.65 -49.75 1.6 -48.05 0.85 -46.9 -0.5 L-46.7 -1.65 Q-46.75 -2.4 -47.1 -2.9 -49.75 -6.7 -52.75 -10.0 L-42.15 -9.65 -42.0 -10.0 -42.75 -20.5 Q-41.95 -21.1 -41.75 -22.0 -36.45 -21.65 -32.4 -24.0 L-32.3 -24.4 Q-32.2 -24.95 -32.4 -25.5 L-33.15 -26.25 Q-34.75 -28.7 -35.75 -31.5 L-35.15 -32.65 Q-32.15 -34.25 -29.25 -36.0 -27.0 -35.75 -25.9 -37.5 L-25.8 -37.9 Q-25.7 -38.45 -25.9 -39.0 -29.9 -41.75 -32.75 -45.5 L-32.75 -45.9 -32.65 -46.65 -30.75 -48.5 -28.55 -48.9 Q-23.85 -50.35 -22.25 -54.25 -27.65 -57.2 -25.9 -62.0 L-25.75 -62.4 -25.65 -63.15 Q-22.6 -66.2 -19.25 -68.75 L-19.25 -69.15 -19.25 -70.25 Q-21.9 -71.9 -25.25 -72.5 L-25.4 -72.9 -25.5 -73.25 -26.25 -74.0 Q-25.45 -76.1 -23.75 -77.75 L-23.75 -78.15 -23.75 -79.25 Q-26.75 -81.2 -30.0 -78.5 L-34.65 -78.9 -35.15 -79.25 Q-32.55 -82.35 -30.25 -85.65 L-30.75 -86.15 Q-38.45 -89.55 -43.25 -96.25 L-42.4 -97.0 Q-39.25 -97.25 -36.5 -98.25 -35.9 -99.9 -34.75 -101.25 L-34.75 -101.65 -34.75 -102.0 -32.4 -106.5 -32.3 -106.9 -32.25 -107.25 -31.4 -108.0 -27.0 -107.65 Q-25.5 -106.1 -23.65 -107.15 L-22.4 -109.0 -22.3 -109.4 -22.25 -112.0 -21.75 -112.75 -21.75 -113.15 -21.75 -113.5 Q-21.2 -114.15 -21.15 -115.0 -20.2 -116.6 -18.4 -116.65 -14.25 -113.95 -10.75 -116.75 L-10.75 -117.15 -10.75 -125.75 Q-9.15 -127.25 -7.05 -127.15 -1.9 -126.95 1.25 -130.25 L1.2 -130.6 Q-0.15 -136.85 0.75 -143.0 1.45 -143.5 2.25 -143.0 4.1 -141.55 6.35 -141.4 L7.75 -140.1 Q8.55 -139.5 9.4 -139.7 13.25 -140.45 15.6 -137.75 L15.7 -137.35 15.75 -137.0 16.25 -136.25 16.25 -135.9 16.25 -132.15 Q17.0 -130.75 18.5 -130.75 L20.75 -131.5 27.75 -136.15 27.1 -132.4 26.75 -132.0 26.7 -131.65 26.25 -128.65 25.75 -127.9 25.7 -127.5 M1.85 -114.35 L1.8 -114.3 0.9 -112.7 1.75 -112.7 1.85 -114.35" fill="#ffff00" fill-opacity="0.5019608" fill-rule="evenodd" stroke="none"/>
  </g>
</svg>
