<?xml version="1.0" encoding="UTF-8" standalone="no"?>
<svg xmlns:ffdec="https://www.free-decompiler.com/flash" xmlns:xlink="http://www.w3.org/1999/xlink" ffdec:objectType="shape" height="127.8px" width="84.85px" xmlns="http://www.w3.org/2000/svg">
  <g transform="matrix(1.0, 0.0, 0.0, 1.0, 38.1, 125.2)">
    <path d="M4.45 -121.75 Q7.9 -125.2 12.8 -125.2 17.7 -125.2 21.15 -121.75 24.6 -118.3 24.6 -113.4 24.6 -108.5 21.15 -105.05 17.75 -101.65 13.0 -101.6 L13.15 -101.25 9.3 -101.25 9.1 -100.75 9.3 -100.2 Q11.5 -94.4 15.05 -89.1 L17.5 -85.05 Q23.55 -86.0 29.2 -91.05 33.5 -94.8 37.35 -99.1 36.65 -101.85 38.15 -104.25 38.95 -105.55 40.2 -106.4 L40.6 -106.5 41.55 -106.7 41.55 -106.8 Q49.75 -105.7 45.0 -98.6 44.2 -97.45 43.9 -96.0 32.95 -84.2 18.15 -78.75 14.2 -77.25 11.95 -81.2 7.8 -87.95 4.8 -95.1 2.65 -91.9 1.45 -88.1 -0.15 -83.0 -2.3 -78.3 -5.45 -67.85 -7.6 -57.15 -0.2 -54.1 4.8 -47.3 L5.2 -46.75 6.15 -46.15 6.95 -45.6 Q11.9 -41.05 13.15 -35.1 13.55 -33.15 12.15 -31.75 9.95 -22.9 9.65 -13.8 9.5 -9.1 7.5 -4.8 12.55 -5.9 16.5 -3.1 17.55 -2.4 17.5 -1.15 16.9 1.1 14.65 1.15 L2.55 0.5 Q1.85 0.4 1.15 -0.15 L4.25 -26.2 Q4.8 -31.05 7.1 -35.4 0.15 -44.35 -8.75 -51.25 -9.95 -44.65 -10.75 -37.95 L-12.1 -26.95 Q-12.75 -20.95 -16.15 -15.95 -21.7 -9.9 -27.8 -4.4 -22.45 -3.9 -17.75 -1.6 -17.1 -1.25 -17.1 -0.35 -17.75 1.9 -20.0 2.2 -29.45 3.65 -37.35 -0.15 L-37.5 -0.75 -37.5 -1.2 -38.1 -1.7 Q-37.55 -6.75 -32.05 -9.75 -26.7 -12.75 -23.6 -18.15 -22.5 -20.05 -20.2 -20.75 -15.3 -35.2 -14.55 -50.75 L-14.0 -56.05 Q-12.3 -67.05 -8.45 -77.35 -8.15 -78.15 -8.2 -79.05 L-8.25 -80.8 -8.0 -81.3 -6.9 -82.55 -3.3 -93.4 Q-5.25 -92.55 -7.3 -91.8 -13.25 -89.7 -19.3 -88.15 -21.8 -87.5 -23.45 -89.45 L-23.6 -90.05 -23.65 -91.2 -23.65 -92.35 Q-20.2 -96.35 -15.8 -97.35 -9.45 -102.8 -1.55 -104.45 0.75 -104.55 1.65 -102.95 L2.25 -103.05 4.1 -105.45 Q1.0 -108.75 1.0 -113.4 1.0 -118.3 4.45 -121.75" fill="#000000" fill-rule="evenodd" stroke="none"/>
  </g>
</svg>
