<?xml version="1.0" encoding="UTF-8" standalone="no"?>
<svg xmlns:ffdec="https://www.free-decompiler.com/flash" xmlns:xlink="http://www.w3.org/1999/xlink" ffdec:objectType="shape" height="117.85px" width="92.55px" xmlns="http://www.w3.org/2000/svg">
  <g transform="matrix(1.0, 0.0, 0.0, 1.0, 41.05, 115.15)">
    <path d="M23.45 -111.7 Q26.9 -108.25 26.9 -103.35 26.9 -98.45 23.45 -95.0 20.05 -91.6 15.3 -91.55 L15.45 -91.2 9.0 -91.2 8.8 -90.95 Q12.9 -91.2 17.0 -90.0 25.3 -87.6 31.9 -91.65 33.9 -92.85 35.7 -94.35 40.25 -98.2 44.3 -102.75 L44.25 -105.05 Q44.2 -106.25 44.5 -107.35 45.05 -108.45 46.25 -108.85 L47.2 -109.1 Q54.45 -106.5 49.5 -99.75 45.8 -94.65 40.8 -90.4 36.5 -86.8 31.45 -84.95 27.3 -83.4 22.6 -83.75 14.0 -84.35 6.05 -86.3 4.15 -80.55 -0.3 -76.3 L-0.7 -75.8 -6.2 -64.8 -6.7 -63.65 Q-9.15 -61.25 -10.3 -57.95 -10.45 -57.6 -10.75 -57.3 -0.45 -50.35 9.5 -42.5 9.8 -35.75 7.8 -29.05 7.1 -26.6 6.9 -24.0 6.6 -20.25 4.65 -17.1 3.65 -10.3 0.35 -4.4 4.9 -3.95 8.65 -1.65 9.3 -1.25 9.3 -0.35 8.65 1.9 6.4 2.25 -1.6 3.65 -7.85 0.6 L-8.0 0.0 -8.05 -0.55 -8.05 -1.15 -8.05 -2.3 -7.2 -3.4 -6.45 -3.9 -5.15 -4.4 -4.5 -4.45 Q-2.45 -15.1 0.3 -25.85 1.15 -28.95 1.6 -32.15 2.1 -35.35 3.15 -38.45 -3.65 -44.95 -11.25 -50.9 -11.45 -49.1 -12.4 -47.0 -13.05 -45.6 -12.7 -43.95 -10.55 -33.95 -12.1 -23.65 -22.0 -20.3 -32.45 -18.1 -29.5 -15.85 -27.15 -12.8 L-26.9 -12.3 -27.1 -11.7 -27.3 -11.15 -27.45 -10.55 Q-31.65 -8.4 -35.75 -12.1 L-40.95 -17.3 -41.05 -18.45 -40.95 -19.6 -40.3 -20.45 -40.35 -21.55 Q-34.35 -25.3 -26.5 -25.8 -21.6 -26.1 -17.45 -28.25 -18.5 -39.35 -18.1 -50.75 -18.1 -52.15 -17.6 -53.55 L-17.1 -55.6 Q-17.3 -56.1 -17.15 -56.7 -15.9 -62.4 -12.35 -67.35 -11.3 -68.8 -10.9 -70.6 L-9.25 -72.35 -8.8 -72.9 Q-6.25 -79.15 -1.7 -84.5 L-1.3 -85.05 -1.15 -85.6 -0.9 -86.75 -0.35 -87.35 0.25 -87.9 0.4 -88.4 -0.4 -88.95 Q-1.5 -89.75 -2.85 -90.2 -9.2 -92.45 -15.5 -94.25 -17.5 -94.8 -17.25 -96.95 -11.75 -102.2 -4.1 -104.95 -1.85 -105.75 -0.35 -107.55 0.35 -111.0 4.1 -111.4 L6.15 -111.0 6.75 -111.7 Q10.2 -115.15 15.1 -115.15 20.0 -115.15 23.45 -111.7 M4.9 -97.3 Q3.65 -99.45 3.4 -101.95 0.85 -99.75 -2.65 -98.5 L-3.2 -97.9 Q-0.65 -96.0 2.95 -94.5 3.7 -96.1 4.9 -97.3" fill="#000000" fill-rule="evenodd" stroke="none"/>
  </g>
</svg>
