<?xml version="1.0" encoding="UTF-8" standalone="no"?>
<svg xmlns:ffdec="https://www.free-decompiler.com/flash" xmlns:xlink="http://www.w3.org/1999/xlink" ffdec:objectType="shape" height="126.85px" width="128.75px" xmlns="http://www.w3.org/2000/svg">
  <g transform="matrix(1.0, 0.0, 0.0, 1.0, 59.4, 123.7)">
    <path d="M18.6 -113.8 L26.4 -120.25 26.6 -120.85 26.8 -122.0 Q27.35 -123.1 28.55 -123.45 L29.5 -123.7 Q33.7 -120.85 36.75 -116.35 L37.0 -115.8 Q35.2 -110.2 29.9 -114.1 19.85 -107.65 9.85 -100.8 13.1 -97.2 15.55 -93.05 L15.5 -94.15 Q15.5 -99.05 18.95 -102.5 22.4 -105.95 27.3 -105.95 32.2 -105.95 35.65 -102.5 39.1 -99.05 39.1 -94.15 39.1 -89.25 35.65 -85.8 32.25 -82.4 27.5 -82.35 L27.65 -82.0 24.8 -82.0 25.15 -81.65 Q33.55 -73.7 44.1 -76.7 51.65 -78.85 58.15 -82.9 L58.15 -84.05 58.25 -85.2 58.35 -85.8 Q58.95 -86.9 60.1 -87.3 L61.05 -87.55 Q63.55 -86.95 64.8 -85.95 L64.9 -86.0 Q67.85 -85.95 69.1 -83.3 L69.35 -82.7 Q67.35 -78.0 64.35 -80.25 L63.65 -79.55 Q59.75 -75.55 54.3 -73.85 44.4 -70.7 34.1 -70.05 32.45 -70.0 31.0 -70.95 23.35 -76.0 15.35 -80.3 L-0.45 -63.6 Q-3.85 -60.05 -6.35 -55.8 L-7.7 -53.9 Q5.05 -49.65 15.65 -40.8 L16.4 -40.2 Q17.85 -33.25 10.2 -30.0 L9.35 -29.35 Q2.55 -21.3 -2.25 -11.9 -3.05 -7.6 -5.3 -3.7 L-5.45 -3.35 3.05 -2.6 Q4.45 -2.45 4.6 -0.95 4.95 2.25 1.8 2.9 -6.45 3.9 -13.35 1.05 L-14.0 0.6 -14.15 0.0 Q-14.45 -1.7 -13.2 -2.8 L-12.65 -3.25 -12.25 -3.35 -11.8 -3.45 Q-12.0 -6.3 -10.2 -8.85 -8.25 -11.5 -8.05 -14.6 -3.9 -22.0 1.0 -28.75 4.4 -33.5 8.7 -37.1 -0.2 -45.35 -11.75 -49.25 -18.9 -41.3 -27.7 -35.55 -29.7 -34.25 -32.55 -34.9 -41.35 -36.85 -50.55 -35.2 -51.6 -33.9 -51.75 -32.3 L-52.1 -30.55 Q-55.3 -25.65 -59.4 -28.65 -59.6 -33.4 -56.45 -37.4 -55.65 -38.35 -55.55 -39.6 -55.0 -40.75 -53.8 -40.85 -40.9 -42.3 -28.25 -40.2 -22.3 -48.3 -14.85 -54.6 -12.7 -60.4 -7.95 -65.3 L12.45 -86.0 Q8.45 -92.7 3.7 -99.05 2.35 -100.85 2.75 -103.1 8.35 -108.7 16.0 -112.1 L18.6 -113.8 M19.5 -84.8 L20.3 -84.65 19.75 -85.1 19.5 -84.8" fill="#000000" fill-rule="evenodd" stroke="none"/>
  </g>
</svg>
