<?xml version="1.0" encoding="UTF-8" standalone="no"?>
<svg xmlns:ffdec="https://www.free-decompiler.com/flash" xmlns:xlink="http://www.w3.org/1999/xlink" ffdec:objectType="shape" height="110.55px" width="156.8px" xmlns="http://www.w3.org/2000/svg">
  <g transform="matrix(1.0, 0.0, 0.0, 1.0, 85.5, 108.35)">
    <path d="M14.0 -103.75 L14.55 -103.85 Q16.25 -103.15 17.85 -102.25 L19.65 -101.1 Q23.65 -98.2 26.55 -101.45 L26.65 -101.75 28.7 -108.35 30.9 -108.35 33.25 -106.1 34.15 -105.5 Q37.9 -104.4 40.7 -107.8 42.65 -105.75 44.85 -104.1 45.25 -103.8 45.65 -103.85 52.05 -104.75 58.15 -107.4 58.95 -105.7 60.3 -104.35 60.55 -104.05 60.85 -104.0 L71.3 -103.45 71.25 -103.15 71.2 -102.6 71.05 -102.3 66.6 -93.35 66.6 -93.1 66.7 -90.2 Q68.8 -89.15 70.45 -87.3 L70.5 -87.05 Q70.85 -86.55 70.55 -86.15 69.2 -85.3 68.15 -84.05 L68.15 -83.75 68.15 -83.5 67.4 -82.6 67.4 -82.05 Q67.5 -79.85 67.2 -77.9 L66.5 -78.1 Q64.85 -80.1 62.6 -81.6 61.75 -82.15 61.05 -82.9 58.95 -85.3 56.6 -84.15 L56.6 -83.85 56.55 -83.3 54.3 -78.4 Q54.1 -76.5 52.95 -74.95 51.7 -74.85 50.85 -75.7 47.8 -78.7 44.35 -77.6 L44.3 -77.35 Q44.15 -75.5 44.7 -73.9 45.6 -73.05 45.5 -71.85 L46.55 -70.7 46.6 -70.4 46.65 -69.55 Q48.0 -68.7 47.7 -67.25 45.8 -65.9 44.35 -64.1 L44.3 -63.8 Q44.25 -63.35 44.45 -62.95 L52.9 -60.25 Q51.75 -56.45 50.1 -53.05 L50.1 -52.75 50.0 -52.15 49.8 -51.85 49.7 -51.3 Q50.85 -50.0 52.9 -50.05 58.3 -48.7 62.4 -45.75 L62.05 -45.2 54.7 -35.35 Q51.5 -35.55 50.95 -31.95 50.5 -29.45 49.7 -27.6 47.15 -32.85 43.55 -37.45 41.1 -40.6 39.35 -36.7 36.65 -34.45 33.85 -32.85 33.0 -37.35 31.6 -41.7 31.1 -43.35 29.5 -42.45 25.25 -39.95 20.9 -38.15 L20.95 -43.55 Q21.05 -46.3 20.4 -48.95 20.25 -49.55 19.6 -49.45 L9.95 -47.35 Q9.75 -48.9 8.6 -49.95 L8.65 -50.25 Q8.95 -52.6 7.85 -54.55 L7.85 -54.85 7.75 -55.75 6.9 -56.35 Q4.65 -57.1 2.85 -57.05 4.75 -60.85 4.5 -65.15 4.45 -65.75 4.0 -65.95 0.45 -67.9 -1.75 -63.8 L-6.2 -63.6 -6.3 -63.3 Q-6.35 -62.25 -6.0 -61.3 L-9.45 -58.8 -9.45 -58.5 -9.35 -56.8 Q-8.95 -56.35 -8.4 -56.2 L-3.5 -51.7 -3.75 -51.15 Q-6.3 -47.4 -6.0 -42.75 -5.05 -41.85 -4.95 -40.75 L-10.6 -40.25 Q-12.0 -40.1 -12.9 -39.1 L-12.65 -37.15 Q-11.95 -34.75 -11.65 -32.2 -11.0 -31.8 -11.0 -31.05 L-13.1 -30.85 Q-17.0 -30.9 -19.45 -28.65 L-19.45 -28.35 Q-19.8 -24.65 -18.1 -21.45 -21.15 -20.7 -23.65 -18.85 L-23.65 -18.55 -23.65 -17.4 Q-22.55 -16.0 -22.5 -14.25 L-22.3 -13.9 -22.15 -13.35 Q-23.85 -12.5 -25.6 -11.05 L-25.6 -10.8 Q-25.7 -9.8 -26.35 -9.05 L-26.4 -8.2 Q-26.65 -4.2 -25.8 -0.4 -30.25 0.6 -34.4 2.2 L-34.7 1.3 Q-35.05 -0.5 -36.95 -0.65 L-49.0 -1.2 -49.0 -1.35 -47.85 -6.0 -57.0 -11.05 -57.05 -11.25 -57.65 -12.1 Q-56.7 -12.6 -56.05 -13.45 L-55.95 -13.75 Q-55.85 -14.8 -56.05 -15.75 L-62.45 -22.7 -62.45 -23.0 -62.45 -23.55 -61.1 -23.8 Q-58.65 -23.9 -56.7 -25.25 -53.85 -27.25 -54.8 -31.25 L-47.4 -32.0 -47.25 -32.3 Q-47.05 -33.7 -47.1 -35.15 L-47.95 -36.35 -48.05 -36.6 Q-48.35 -38.45 -48.25 -40.35 -45.2 -39.7 -42.75 -41.2 L-42.65 -41.55 Q-41.55 -44.95 -42.4 -48.45 -40.05 -47.9 -38.15 -48.9 L-38.0 -49.2 Q-37.75 -49.75 -37.95 -50.35 -40.0 -52.95 -43.05 -51.25 L-45.3 -49.7 Q-48.05 -47.4 -50.85 -46.6 -53.4 -49.45 -57.1 -47.1 L-57.1 -47.35 -57.1 -48.25 -57.6 -48.6 -71.5 -51.5 Q-69.95 -54.3 -68.7 -57.15 L-69.15 -57.55 Q-74.55 -59.3 -80.5 -59.2 -78.5 -61.75 -79.85 -64.95 -80.9 -65.75 -81.4 -66.95 -80.55 -67.4 -80.15 -68.2 -80.05 -71.15 -82.05 -73.4 -82.2 -74.7 -83.2 -75.7 -83.95 -78.4 -85.5 -80.6 L-85.5 -80.9 -85.5 -81.45 -83.95 -80.95 Q-80.6 -79.05 -78.3 -81.45 L-77.85 -83.55 Q-76.3 -88.15 -75.45 -92.7 -74.25 -92.9 -73.2 -92.05 L-67.3 -87.85 -65.95 -86.75 Q-63.9 -84.7 -61.6 -85.0 L-61.45 -85.3 Q-61.25 -86.55 -61.6 -87.6 -57.95 -90.4 -55.15 -93.95 L-54.8 -93.95 -54.45 -93.35 -53.6 -90.55 Q-52.35 -85.3 -53.25 -79.85 L-54.0 -78.95 -54.0 -78.7 -53.9 -77.55 -53.05 -77.05 Q-48.25 -79.5 -43.15 -80.5 L-43.0 -80.2 -41.6 -75.6 Q-40.2 -73.4 -38.05 -74.35 L-37.95 -74.65 -37.9 -74.95 Q-37.4 -75.2 -36.95 -75.55 -32.05 -79.6 -30.0 -85.6 L-29.6 -85.8 Q-27.8 -84.35 -25.85 -83.2 -25.05 -82.75 -24.25 -82.8 -19.15 -82.9 -17.9 -88.2 L-17.9 -88.45 Q-18.05 -89.4 -17.7 -90.2 -16.0 -89.15 -14.4 -87.7 -11.4 -84.95 -7.8 -85.4 -4.2 -88.7 -4.05 -93.45 L-2.9 -92.8 Q1.05 -89.15 4.0 -93.2 L4.0 -93.45 4.0 -93.75 Q4.75 -95.1 4.95 -96.65 6.2 -96.75 7.15 -95.95 10.1 -93.45 13.4 -93.95 L13.6 -95.1 14.0 -103.75" fill="#ffff00" fill-opacity="0.5019608" fill-rule="evenodd" stroke="none"/>
  </g>
</svg>
