<?xml version="1.0" encoding="UTF-8" standalone="no"?>
<svg xmlns:ffdec="https://www.free-decompiler.com/flash" xmlns:xlink="http://www.w3.org/1999/xlink" ffdec:objectType="shape" height="88.35px" width="137.2px" xmlns="http://www.w3.org/2000/svg">
  <g transform="matrix(1.0, 0.0, 0.0, 1.0, 74.25, 98.5)">
    <path d="M62.95 -93.5 Q59.6 -89.0 55.3 -89.75 54.65 -86.3 51.6 -84.85 L50.3 -85.3 Q49.85 -85.5 49.5 -85.85 L48.9 -86.4 48.75 -86.95 48.7 -87.55 48.7 -88.1 48.7 -88.7 48.7 -89.25 48.7 -89.85 Q46.35 -91.05 43.3 -91.35 L33.3 -92.15 31.4 -91.15 30.55 -90.75 Q28.05 -89.85 26.1 -87.85 L25.25 -87.15 Q23.35 -84.5 20.6 -82.55 L19.05 -81.4 22.1 -81.2 22.2 -81.2 22.7 -81.2 Q27.6 -81.2 31.05 -77.75 34.5 -74.3 34.5 -69.4 34.5 -64.5 31.05 -61.05 L30.4 -60.4 Q36.5 -56.2 42.9 -52.45 L43.7 -51.95 Q51.05 -52.3 48.45 -45.3 47.2 -41.95 43.9 -40.95 L41.85 -42.0 41.2 -42.5 41.05 -43.65 41.0 -45.4 24.35 -57.7 22.9 -57.6 23.05 -57.25 15.1 -57.25 15.2 -57.65 15.3 -58.25 15.8 -59.8 14.35 -61.05 Q10.9 -64.5 10.9 -69.4 10.9 -72.55 12.35 -75.1 5.9 -75.7 -0.7 -75.25 -11.8 -74.5 -22.15 -70.1 L-24.4 -69.25 -25.0 -68.65 -24.75 -68.15 -23.2 -65.5 Q-20.95 -63.2 -19.4 -59.9 -18.55 -58.15 -18.65 -56.15 -12.9 -51.05 -15.85 -45.45 -16.7 -43.8 -18.15 -42.55 L-38.6 -24.0 -42.1 -20.95 Q-37.15 -17.8 -33.8 -13.6 -33.15 -12.8 -33.7 -11.75 -34.45 -10.3 -36.15 -10.15 -43.95 -13.1 -49.65 -19.4 L-49.75 -20.55 -49.8 -22.3 Q-34.8 -34.5 -21.55 -48.85 -22.25 -49.65 -22.6 -50.6 L-22.9 -51.75 -23.3 -52.3 -24.2 -53.45 Q-24.8 -56.95 -27.0 -59.75 L-28.05 -61.0 -28.05 -61.1 Q-29.75 -62.3 -30.8 -64.9 L-31.8 -66.75 -37.0 -63.45 Q-43.55 -59.45 -50.15 -55.6 -52.45 -54.25 -54.25 -56.35 -57.6 -60.45 -60.4 -65.0 L-60.55 -65.6 -60.65 -66.15 -60.8 -67.35 Q-61.95 -68.65 -62.5 -70.3 L-63.3 -72.15 Q-69.05 -68.3 -74.25 -71.0 -74.6 -76.05 -68.5 -76.35 -66.9 -77.55 -65.05 -78.35 L-64.05 -78.85 -63.1 -78.95 -63.1 -79.05 Q-59.55 -79.6 -58.75 -76.35 L-58.65 -75.8 Q-57.85 -75.05 -57.4 -74.05 -57.0 -73.25 -57.15 -72.35 -56.45 -71.1 -55.4 -70.0 -54.7 -69.3 -54.8 -68.3 L-54.55 -67.8 -53.85 -67.15 Q-53.45 -65.15 -52.3 -63.55 L-51.35 -61.95 Q-41.45 -68.25 -30.7 -73.7 -29.0 -74.55 -27.8 -74.2 -23.35 -76.85 -18.05 -78.65 -9.95 -81.45 -1.35 -81.9 L0.0 -82.15 9.7 -81.85 Q11.45 -85.9 16.55 -88.25 17.9 -88.9 19.05 -90.05 24.5 -95.65 31.6 -98.3 43.4 -99.45 52.75 -94.3 54.2 -96.65 58.5 -96.65 L58.5 -96.75 Q62.1 -97.3 62.9 -94.05 L62.95 -93.5" fill="#000000" fill-rule="evenodd" stroke="none"/>
  </g>
</svg>
