<?xml version="1.0" encoding="UTF-8" standalone="no"?>
<svg xmlns:ffdec="https://www.free-decompiler.com/flash" xmlns:xlink="http://www.w3.org/1999/xlink" ffdec:objectType="shape" height="107.25px" width="164.5px" xmlns="http://www.w3.org/2000/svg">
  <g transform="matrix(1.0, 0.0, 0.0, 1.0, 85.2, 106.1)">
    <path d="M48.45 -77.45 L48.8 -76.25 Q49.55 -73.0 50.75 -69.95 L51.1 -69.35 Q51.35 -68.65 52.0 -68.9 L61.45 -71.75 Q61.05 -71.1 61.0 -70.35 60.85 -66.9 61.6 -63.7 67.35 -62.25 73.65 -62.2 L74.6 -61.95 74.5 -61.4 73.8 -60.25 73.8 -59.65 73.35 -57.65 73.15 -57.35 72.65 -56.8 72.65 -55.9 72.75 -53.3 Q76.25 -50.2 79.3 -46.6 L70.55 -44.4 Q70.25 -43.6 70.3 -42.65 L71.05 -35.55 Q69.1 -36.6 67.3 -37.9 63.05 -40.95 59.2 -38.05 L59.2 -37.5 59.15 -36.9 58.95 -36.6 55.75 -32.4 52.55 -37.15 Q50.3 -41.0 46.75 -39.4 L46.5 -38.85 46.35 -38.55 46.0 -38.2 43.55 -34.9 43.4 -35.0 Q42.3 -36.15 41.65 -37.55 39.9 -39.3 38.1 -38.05 L38.15 -36.9 Q38.35 -34.55 39.05 -32.3 L38.95 -32.0 36.55 -28.25 36.55 -27.4 36.55 -26.25 Q39.45 -24.55 42.3 -23.25 L42.2 -22.45 40.8 -17.8 45.0 -14.35 44.85 -14.1 44.25 -13.45 44.25 -13.2 44.25 -12.9 35.8 -4.25 35.8 -3.65 35.8 -2.8 36.0 -2.5 36.15 -2.25 36.15 -1.95 36.15 -1.65 36.35 -1.35 36.55 -1.1 36.6 -0.2 36.85 0.55 29.45 -4.9 27.75 -4.85 Q22.7 -1.05 16.85 1.15 L16.1 -0.05 Q14.85 -3.65 15.05 -7.5 L14.85 -7.8 13.9 -8.5 9.75 -12.6 Q10.0 -13.25 10.7 -13.55 14.0 -15.05 14.2 -18.1 8.15 -23.25 0.95 -25.85 L1.15 -26.1 Q4.1 -28.0 3.9 -31.35 3.45 -32.0 2.65 -32.15 -1.35 -32.85 -4.55 -34.7 L-4.05 -36.4 Q-2.35 -40.7 -2.7 -45.35 -5.85 -47.85 -10.4 -47.25 L-13.6 -53.2 Q-15.35 -56.35 -17.6 -53.8 L-17.6 -51.8 Q-17.45 -46.75 -15.3 -42.3 -16.45 -42.3 -17.2 -41.5 L-17.05 -40.4 -14.55 -33.15 -15.8 -33.2 Q-18.6 -33.9 -21.3 -35.25 -25.25 -37.15 -28.0 -34.5 L-27.95 -33.05 Q-27.75 -30.2 -29.05 -28.05 -33.65 -30.45 -38.35 -29.2 L-38.6 -27.7 Q-39.35 -24.55 -39.1 -21.15 -42.1 -22.5 -45.25 -22.3 -45.85 -21.75 -45.85 -20.95 L-46.15 -15.6 -47.65 -15.95 -52.55 -16.15 Q-52.75 -14.75 -52.45 -13.5 -51.1 -7.9 -47.55 -3.4 -50.7 -4.35 -53.6 -5.7 -56.5 -7.05 -59.1 -6.15 L-59.15 -5.6 -59.2 -5.3 Q-59.75 -4.1 -61.1 -3.5 L-67.25 -3.1 -67.7 -4.15 Q-68.5 -6.35 -68.3 -8.75 -75.85 -13.4 -83.95 -17.4 -81.55 -17.6 -79.85 -19.05 L-79.85 -19.9 -79.85 -21.35 -82.15 -24.25 -82.15 -24.5 -82.15 -24.8 Q-82.55 -25.55 -83.4 -25.65 L-83.6 -25.95 -84.45 -26.8 -84.5 -27.4 -84.75 -27.95 -85.15 -28.3 -85.2 -28.55 Q-81.75 -29.5 -78.1 -29.85 -76.95 -30.0 -76.2 -30.65 -71.7 -34.35 -72.15 -40.65 L-71.95 -40.9 -70.7 -41.9 -67.8 -41.45 -66.2 -41.5 Q-63.05 -43.6 -62.85 -47.85 L-62.5 -48.15 -62.25 -48.45 Q-59.1 -47.3 -56.1 -45.7 L-55.5 -45.45 Q-52.6 -44.45 -50.05 -47.1 -49.55 -48.45 -47.95 -48.7 -44.8 -46.6 -42.6 -49.4 L-42.6 -50.55 -42.6 -55.15 Q-42.9 -55.75 -43.45 -55.6 -48.95 -54.3 -54.5 -54.55 L-54.6 -55.65 Q-55.0 -56.9 -54.85 -58.2 L-55.4 -58.55 -67.55 -59.55 -67.65 -59.65 -66.8 -60.9 -66.8 -61.5 -66.8 -62.05 -74.85 -67.45 -74.85 -68.0 -74.85 -68.3 Q-72.4 -69.1 -71.6 -71.3 -70.95 -72.95 -72.3 -74.2 L-81.45 -83.4 -74.45 -83.8 Q-71.05 -83.9 -71.5 -86.85 L-76.4 -93.75 -75.05 -93.55 -74.65 -93.65 -73.4 -94.5 Q-73.25 -95.1 -73.45 -95.6 L-75.4 -100.85 Q-72.95 -99.65 -70.7 -97.85 -67.7 -95.55 -65.35 -98.0 L-65.15 -98.55 Q-64.05 -101.35 -62.25 -103.75 L-62.2 -104.05 Q-62.0 -105.45 -60.75 -106.05 L-60.55 -106.05 -59.0 -105.1 -55.55 -100.85 -55.05 -100.1 Q-53.85 -97.2 -51.05 -97.6 L-50.85 -97.8 -50.65 -98.1 Q-45.95 -101.45 -41.05 -103.35 -40.9 -102.35 -41.25 -101.45 -42.95 -97.1 -42.85 -92.5 L-42.0 -92.25 -35.65 -91.85 -35.85 -91.65 -36.05 -91.35 -36.05 -91.05 -36.05 -90.8 -37.95 -88.75 -38.05 -88.45 Q-38.15 -87.25 -39.1 -86.45 L-39.15 -85.9 -39.2 -85.6 -39.4 -85.3 Q-39.5 -84.8 -39.9 -84.45 L-39.85 -83.85 -39.8 -83.3 Q-37.6 -81.8 -34.9 -83.0 L-34.45 -82.35 Q-34.1 -81.2 -34.15 -80.0 L-33.95 -79.75 -33.75 -79.45 -33.7 -78.85 -33.65 -78.3 -32.8 -78.1 Q-27.05 -78.9 -21.85 -80.6 -20.85 -78.0 -18.65 -76.3 -18.25 -75.35 -17.5 -74.7 -16.95 -74.25 -16.3 -74.35 -11.4 -74.85 -8.85 -78.95 -8.25 -79.3 -7.8 -79.85 L-7.65 -80.15 -6.45 -81.75 -4.2 -79.35 1.1 -72.65 Q1.35 -72.3 1.65 -72.4 5.05 -73.6 7.55 -76.55 L10.6 -73.25 Q11.8 -72.1 13.25 -71.3 L14.3 -71.25 Q19.15 -73.9 21.3 -78.95 24.05 -75.9 27.0 -73.2 L28.1 -73.1 Q31.65 -75.6 33.2 -79.85 L34.35 -78.95 Q35.75 -76.65 37.4 -74.65 37.7 -73.6 38.5 -72.85 39.2 -72.25 40.1 -72.65 44.5 -74.7 48.45 -77.45" fill="#ffff00" fill-opacity="0.5019608" fill-rule="evenodd" stroke="none"/>
  </g>
</svg>
