<?xml version="1.0" encoding="UTF-8" standalone="no"?>
<svg xmlns:ffdec="https://www.free-decompiler.com/flash" xmlns:xlink="http://www.w3.org/1999/xlink" ffdec:objectType="shape" height="81.2px" width="133.75px" xmlns="http://www.w3.org/2000/svg">
  <g transform="matrix(1.0, 0.0, 0.0, 1.0, 68.65, 90.0)">
    <path d="M62.15 -52.85 L62.2 -52.95 Q65.7 -51.9 65.0 -48.6 L64.8 -48.1 Q59.85 -45.5 56.3 -48.0 54.2 -45.2 50.85 -45.2 L49.9 -46.15 49.4 -47.0 49.1 -47.75 49.2 -48.3 49.4 -48.85 49.65 -49.35 49.9 -49.9 50.15 -50.4 50.4 -50.95 Q48.75 -53.05 46.15 -54.6 L37.5 -59.65 35.35 -59.55 34.4 -59.55 Q31.75 -59.85 29.15 -58.85 L28.1 -58.6 Q25.2 -57.05 21.9 -56.45 L20.0 -56.1 22.7 -54.6 22.75 -54.55 23.2 -54.35 Q27.6 -52.25 29.25 -47.65 30.9 -43.05 28.8 -38.6 26.65 -34.2 22.1 -32.55 L21.2 -32.3 Q24.9 -25.9 29.05 -19.7 L29.55 -18.9 Q36.35 -16.05 31.0 -10.85 28.4 -8.4 25.0 -8.9 L23.6 -10.75 23.25 -11.45 23.6 -12.55 24.3 -14.15 14.6 -32.45 13.2 -32.95 13.2 -32.6 6.05 -36.0 6.3 -36.35 6.65 -36.8 7.75 -38.05 7.0 -39.75 Q5.35 -44.35 7.5 -48.75 8.85 -51.65 11.25 -53.3 5.65 -56.6 -0.45 -59.05 -10.8 -63.15 -22.0 -63.65 L-24.4 -63.85 -25.2 -63.55 -25.2 -63.0 -24.95 -59.95 Q-23.95 -56.9 -23.9 -53.25 -23.9 -51.3 -24.85 -49.55 -21.9 -42.5 -26.95 -38.7 -28.45 -37.6 -30.25 -37.05 L-56.7 -29.15 -61.15 -27.9 Q-58.05 -22.95 -56.85 -17.7 -56.6 -16.7 -57.55 -15.95 -58.85 -15.0 -60.45 -15.6 -66.2 -21.6 -68.65 -29.75 L-68.25 -30.8 -67.55 -32.4 Q-48.75 -37.0 -30.6 -44.2 -30.9 -45.25 -30.8 -46.25 L-30.6 -47.4 -30.7 -48.05 -31.05 -49.5 Q-30.1 -52.9 -30.85 -56.4 L-31.25 -57.95 -31.25 -58.05 Q-32.2 -59.85 -32.05 -62.65 L-32.15 -64.8 -38.25 -64.0 -53.5 -62.6 Q-56.2 -62.4 -56.9 -65.05 -58.15 -70.2 -58.7 -75.5 L-58.6 -76.1 -58.45 -76.65 -58.05 -77.8 Q-58.55 -79.45 -58.3 -81.2 L-58.25 -83.2 Q-65.1 -82.2 -68.6 -86.85 -66.75 -91.6 -61.15 -89.2 L-57.15 -89.55 -56.05 -89.55 -55.15 -89.25 -55.1 -89.35 Q-51.65 -88.3 -52.35 -85.0 L-52.5 -84.5 Q-52.1 -83.45 -52.1 -82.35 -52.1 -81.5 -52.6 -80.75 L-52.05 -77.85 Q-51.7 -76.95 -52.25 -76.05 L-52.2 -75.5 -51.85 -74.6 Q-52.35 -72.65 -52.0 -70.7 L-51.85 -68.85 -28.15 -70.55 Q-26.3 -70.6 -25.35 -69.75 -20.2 -70.2 -14.65 -69.6 -6.15 -68.65 1.85 -65.3 L3.15 -64.95 11.8 -60.55 Q15.1 -63.45 20.7 -63.35 22.2 -63.35 23.75 -63.9 31.05 -66.6 38.6 -65.95 49.75 -61.9 55.95 -53.2 58.25 -54.75 62.15 -52.85" fill="#000000" fill-rule="evenodd" stroke="none"/>
  </g>
</svg>
