<?xml version="1.0" encoding="UTF-8" standalone="no"?>
<svg xmlns:ffdec="https://www.free-decompiler.com/flash" xmlns:xlink="http://www.w3.org/1999/xlink" ffdec:objectType="shape" height="140.35px" width="151.45px" xmlns="http://www.w3.org/2000/svg">
  <g transform="matrix(1.0, 0.0, 0.0, 1.0, 84.1, 128.2)">
    <path d="M1.65 -127.85 Q1.65 -125.9 1.8 -124.1 L2.15 -119.8 Q4.35 -118.85 6.85 -118.45 7.8 -117.95 8.0 -117.4 6.0 -115.9 4.75 -113.9 L4.75 -113.35 4.75 -113.05 4.95 -112.8 6.2 -111.6 6.25 -111.35 6.3 -111.05 7.0 -110.4 Q9.1 -108.15 11.45 -106.15 L11.6 -105.55 11.65 -105.3 Q10.75 -105.15 10.1 -104.5 L7.95 -104.3 Q5.05 -103.7 3.6 -101.8 L3.65 -101.6 4.75 -100.1 4.75 -99.8 4.75 -99.5 5.0 -99.2 5.5 -98.65 Q5.4 -98.05 4.55 -98.0 -0.75 -97.5 -5.8 -96.25 -6.1 -95.9 -6.05 -95.4 L-6.0 -94.25 -5.8 -93.95 -5.65 -93.65 -5.5 -92.8 Q-5.15 -92.15 -5.15 -91.35 -3.55 -90.1 -1.5 -89.7 L-1.4 -89.15 -1.5 -88.3 -1.8 -88.0 Q-1.65 -87.35 -2.0 -86.85 -3.0 -85.35 -2.85 -83.65 0.65 -82.5 4.45 -82.35 L8.2 -80.8 8.0 -80.5 7.35 -79.65 5.1 -75.9 5.15 -75.35 5.3 -74.75 Q8.5 -74.0 11.25 -72.9 L10.45 -70.65 Q9.9 -68.7 10.1 -66.6 L10.65 -66.2 Q14.55 -64.9 18.55 -64.2 18.4 -61.45 17.75 -58.75 17.3 -56.65 17.5 -54.5 17.95 -54.25 18.3 -54.3 24.3 -55.65 30.1 -55.25 L30.2 -54.7 30.5 -53.5 Q30.95 -52.7 31.8 -52.75 L44.3 -53.4 44.3 -52.35 44.4 -50.65 45.3 -50.35 49.3 -49.95 Q51.25 -48.8 53.55 -47.9 55.85 -47.0 56.8 -45.55 56.5 -43.95 55.2 -42.8 53.1 -40.95 53.25 -38.35 56.45 -36.45 60.15 -35.85 L60.35 -35.7 Q61.5 -35.1 62.75 -34.8 L62.6 -34.3 62.2 -32.85 Q61.55 -30.85 60.45 -29.1 L60.4 -28.25 Q60.35 -27.5 60.55 -26.8 L60.85 -26.6 Q63.85 -25.4 66.1 -23.0 L66.45 -22.45 67.35 -20.65 65.95 -19.0 61.2 -14.8 61.2 -13.95 61.3 -12.2 63.05 -10.3 66.7 -5.9 66.05 -5.4 Q64.05 -4.15 63.15 -1.95 L63.0 -0.75 Q62.75 0.5 62.75 1.8 L62.55 2.1 62.35 2.4 62.45 3.25 Q62.5 3.7 62.15 3.9 58.4 0.95 55.65 4.7 52.95 8.35 50.85 12.15 L49.0 11.1 48.9 10.85 48.7 10.55 Q47.8 10.05 47.0 9.4 L46.1 9.05 Q40.4 8.35 35.1 9.6 L35.05 9.1 Q34.75 7.7 33.35 7.0 L33.55 6.7 Q34.1 5.85 35.2 5.65 L35.35 5.05 Q35.35 4.4 35.65 3.9 37.7 2.35 39.3 0.45 L39.05 0.1 31.55 -2.35 36.1 -5.85 Q38.3 -7.9 37.8 -10.95 L37.55 -11.25 35.4 -11.15 33.55 -11.15 33.8 -17.4 Q34.0 -19.65 32.55 -21.0 31.95 -21.55 31.35 -21.0 26.7 -16.75 24.7 -10.8 23.3 -10.9 22.05 -10.4 L21.7 -9.9 21.65 -9.65 21.95 -9.15 Q23.65 -7.55 24.15 -5.6 22.0 -5.0 20.5 -3.65 L20.5 -2.5 20.5 -0.5 20.7 -0.2 21.15 0.35 21.25 0.95 21.25 1.2 15.4 4.85 15.05 4.25 Q14.85 3.7 14.25 3.75 9.05 3.8 4.75 6.9 4.15 5.4 2.95 4.25 2.5 3.8 1.9 3.75 L-8.25 2.55 -7.9 2.4 -6.6 1.7 -6.45 1.1 -6.4 0.55 -7.1 -0.3 Q-12.9 -5.2 -19.1 -9.05 L-18.95 -9.25 -14.2 -11.95 Q-14.05 -12.35 -14.05 -12.8 L-14.1 -14.8 -14.45 -15.4 Q-15.1 -16.5 -16.0 -17.4 L-16.2 -17.95 Q-16.45 -18.45 -16.1 -18.85 -13.25 -19.45 -11.1 -21.15 L-11.05 -21.75 -11.0 -22.9 Q-12.0 -25.05 -13.5 -27.0 -15.0 -29.1 -15.6 -31.5 L-9.65 -31.85 -9.0 -32.0 -8.85 -32.3 Q-8.65 -32.85 -8.7 -33.45 L-9.0 -36.6 -7.15 -37.65 Q-5.3 -37.7 -3.5 -38.35 L-3.3 -38.55 -2.95 -39.1 -3.25 -39.55 Q-5.55 -41.3 -7.25 -43.55 L-3.4 -47.25 -3.3 -48.15 -3.35 -50.15 -3.85 -50.45 Q-6.7 -50.8 -9.3 -49.95 L-9.85 -51.65 Q-11.0 -53.9 -12.75 -55.55 L-13.1 -55.4 -13.7 -54.95 Q-16.4 -54.8 -18.7 -53.8 L-18.85 -54.4 Q-19.45 -56.85 -21.55 -55.9 L-21.95 -53.9 -22.2 -51.85 Q-22.45 -49.7 -23.0 -47.65 -25.6 -48.8 -28.4 -49.6 L-31.25 -49.45 -35.7 -47.35 Q-36.55 -48.8 -37.75 -50.0 L-40.75 -53.05 Q-41.55 -53.85 -42.55 -53.35 -47.15 -51.05 -52.1 -50.25 L-51.85 -51.15 -51.6 -51.95 Q-51.25 -53.8 -51.45 -55.75 -51.9 -56.5 -52.7 -56.6 L-58.75 -56.95 -59.3 -57.8 Q-59.7 -59.05 -60.55 -60.05 -60.5 -60.75 -61.1 -61.15 L-61.8 -61.35 Q-65.15 -60.2 -68.15 -59.55 L-71.9 -63.4 Q-72.7 -64.3 -73.75 -64.1 -77.55 -63.3 -79.5 -65.45 L-79.45 -65.7 Q-79.5 -68.35 -82.25 -69.15 L-82.4 -69.45 -84.1 -71.5 -83.4 -71.65 Q-81.75 -72.1 -80.65 -73.4 -80.35 -74.7 -81.0 -75.85 L-83.6 -80.3 Q-81.75 -80.2 -80.35 -81.25 L-80.25 -81.55 -79.1 -83.0 -78.95 -83.55 -78.25 -84.75 -78.25 -85.6 -78.2 -86.45 Q-78.0 -88.35 -77.3 -90.2 L-76.9 -90.2 Q-74.75 -87.55 -72.45 -88.95 L-72.45 -89.25 -72.4 -89.55 -71.5 -90.2 Q-68.55 -92.65 -65.25 -93.95 -63.75 -92.5 -62.85 -90.65 -62.45 -89.85 -61.55 -89.95 -56.65 -90.3 -52.5 -90.1 L-52.85 -89.2 Q-53.25 -87.85 -54.05 -86.65 L-54.05 -86.1 -53.95 -85.2 Q-52.2 -84.15 -50.0 -84.45 L-49.8 -84.15 -49.45 -83.6 -49.45 -83.0 Q-49.75 -81.15 -48.45 -80.0 -46.95 -78.65 -44.7 -79.15 L-44.6 -79.0 -43.3 -77.55 -43.2 -77.0 -42.9 -75.8 Q-39.8 -73.3 -37.5 -76.65 L-37.5 -76.95 Q-37.45 -77.65 -37.85 -78.2 L-40.6 -81.85 Q-37.35 -81.0 -34.35 -80.8 -34.0 -81.15 -34.05 -81.65 L-34.05 -82.8 -34.25 -83.1 -34.45 -83.4 Q-34.7 -84.75 -35.55 -86.0 L-38.65 -90.3 -38.75 -90.85 -38.85 -91.15 -39.1 -91.4 Q-40.65 -92.5 -40.8 -93.65 L-40.6 -93.75 -40.4 -93.95 -40.15 -94.8 Q-40.1 -95.55 -40.4 -96.25 L-43.75 -99.7 -44.05 -100.2 Q-45.5 -101.85 -46.35 -103.75 L-39.95 -103.45 Q-38.5 -103.2 -37.4 -103.95 -34.95 -105.6 -35.6 -108.95 L-28.45 -108.7 Q-28.15 -108.7 -27.95 -108.95 -25.3 -112.65 -26.3 -117.2 L-25.8 -117.3 Q-23.6 -115.85 -21.3 -116.5 -20.4 -117.8 -20.5 -119.4 L-20.6 -123.7 -16.1 -123.95 Q-14.45 -124.0 -14.1 -125.35 L-13.75 -125.65 -11.4 -127.95 -9.75 -127.85 Q-8.2 -127.35 -6.9 -126.5 L-6.75 -125.95 -6.7 -125.65 -5.8 -125.15 -5.35 -125.25 -4.4 -125.4 Q-1.2 -126.6 1.65 -127.85" fill="#ffff00" fill-opacity="0.5019608" fill-rule="evenodd" stroke="none"/>
  </g>
</svg>
