<?xml version="1.0" encoding="UTF-8" standalone="no"?>
<svg xmlns:ffdec="https://www.free-decompiler.com/flash" xmlns:xlink="http://www.w3.org/1999/xlink" ffdec:objectType="shape" height="118.05px" width="131.75px" xmlns="http://www.w3.org/2000/svg">
  <g transform="matrix(1.0, 0.0, 0.0, 1.0, 74.25, 119.1)">
    <path d="M23.9 -38.9 L20.1 -38.85 20.2 -38.65 Q23.0 -35.4 23.0 -30.95 23.0 -26.05 19.55 -22.6 16.15 -19.2 11.4 -19.15 L11.55 -18.8 3.6 -18.8 3.7 -19.2 3.8 -19.8 4.05 -20.6 2.75 -19.4 Q3.1 -17.6 4.0 -15.9 4.6 -14.85 4.45 -13.65 5.2 -12.85 5.55 -11.9 L6.4 -9.6 Q11.45 -10.6 14.35 -7.1 15.8 -5.35 14.2 -3.75 13.4 -2.95 12.35 -2.5 L7.75 -2.85 Q3.6 0.6 -0.35 -2.5 L-0.5 -3.65 Q-0.65 -5.05 0.4 -5.95 L0.3 -7.1 Q0.1 -8.2 0.25 -9.4 L-0.2 -9.95 -0.7 -10.6 -1.1 -11.15 Q-1.85 -14.75 -3.15 -18.15 -3.75 -19.75 -3.6 -21.55 -2.0 -24.25 0.4 -26.15 -0.6 -28.35 -0.6 -30.95 -0.6 -35.85 2.85 -39.3 6.15 -42.6 10.85 -42.75 10.25 -44.45 10.25 -46.35 0.75 -60.45 -12.9 -70.75 -23.7 -63.4 -35.15 -57.4 -36.8 -56.55 -38.8 -57.35 -40.45 -58.05 -42.0 -59.2 L-63.1 -75.2 Q-67.7 -69.95 -73.6 -71.4 L-74.25 -71.75 Q-73.35 -77.0 -67.55 -80.3 L-64.75 -81.85 -63.85 -82.15 Q-53.35 -76.8 -44.55 -68.35 -41.15 -65.15 -37.1 -62.7 -31.5 -66.25 -25.35 -69.45 -21.7 -72.45 -17.5 -74.65 L-17.45 -74.65 -17.5 -75.65 Q-19.6 -77.85 -20.75 -81.0 -25.95 -86.35 -29.2 -92.85 -29.8 -94.0 -29.8 -95.4 -22.0 -103.65 -10.95 -107.35 -12.5 -112.55 -11.95 -117.7 -11.9 -118.25 -11.3 -118.7 L-10.9 -118.85 -10.0 -119.0 -9.95 -119.1 Q-5.3 -117.3 -4.95 -111.25 L-4.55 -107.1 Q-3.7 -100.6 -11.25 -99.65 -15.3 -99.15 -18.8 -97.1 L-23.45 -93.7 Q-17.65 -86.75 -12.65 -79.25 -10.3 -77.5 -10.15 -75.95 -4.9 -72.75 -0.6 -68.05 L-0.15 -67.5 Q10.8 -57.85 17.2 -45.35 32.4 -46.2 45.4 -40.05 46.05 -39.75 46.25 -38.9 47.15 -34.85 47.55 -30.75 L48.35 -29.6 Q49.4 -28.05 49.75 -26.3 51.05 -20.0 52.95 -14.0 L54.35 -12.95 56.1 -11.6 Q58.3 -9.75 57.1 -7.15 56.4 -5.7 54.7 -5.55 54.0 -5.75 53.4 -6.05 L52.55 -6.5 51.75 -7.05 50.85 -7.5 50.25 -6.9 49.7 -6.35 49.1 -5.75 47.9 -4.65 Q47.15 -3.95 47.0 -2.85 L46.2 -2.3 45.6 -1.95 44.7 -1.75 Q43.0 -1.55 41.8 -2.7 L41.2 -3.25 41.1 -4.4 41.2 -6.1 Q42.0 -10.55 45.35 -13.3 L46.2 -13.85 46.0 -14.9 Q45.65 -15.75 45.45 -16.7 L43.65 -24.85 43.15 -26.55 42.75 -27.1 42.2 -28.3 41.3 -31.05 Q40.35 -33.5 40.25 -36.15 32.45 -39.0 23.9 -38.9" fill="#000000" fill-rule="evenodd" stroke="none"/>
  </g>
</svg>
