<?xml version="1.0" encoding="UTF-8" standalone="no"?>
<svg xmlns:ffdec="https://www.free-decompiler.com/flash" xmlns:xlink="http://www.w3.org/1999/xlink" ffdec:objectType="shape" height="147.45px" width="106.5px" xmlns="http://www.w3.org/2000/svg">
  <g transform="matrix(1.0, 0.0, 0.0, 1.0, 48.05, 134.6)">
    <path d="M5.9 -128.35 Q7.4 -127.25 9.4 -127.9 10.4 -127.6 11.5 -128.35 14.4 -129.35 16.2 -129.2 L16.1 -128.9 16.0 -128.35 15.25 -127.45 14.2 -126.05 Q14.3 -125.4 14.05 -124.85 13.7 -124.2 13.8 -123.45 14.25 -122.6 15.15 -122.35 18.75 -121.4 21.1 -119.3 L20.65 -118.8 Q17.3 -115.5 13.4 -112.95 L13.4 -112.4 13.4 -111.8 13.75 -111.2 Q14.05 -110.5 14.95 -110.35 L15.35 -109.9 19.1 -105.85 Q15.4 -104.2 11.85 -101.75 L11.85 -100.3 11.85 -98.0 12.2 -97.75 13.05 -96.85 Q6.65 -96.75 2.65 -92.4 L2.65 -92.1 2.7 -91.55 2.75 -90.95 Q4.05 -90.2 5.45 -89.45 L5.75 -88.9 6.4 -88.0 6.55 -87.15 6.4 -86.0 Q5.7 -85.35 5.6 -84.5 L4.85 -81.35 4.55 -81.1 4.55 -80.2 4.65 -79.05 5.55 -78.75 11.5 -78.1 10.0 -73.75 Q8.7 -70.05 9.3 -66.0 L10.15 -65.5 Q12.6 -66.55 15.35 -66.3 L15.25 -62.95 Q15.05 -59.95 15.8 -57.15 L16.65 -56.95 Q21.05 -57.45 25.3 -57.15 L25.35 -56.9 25.7 -56.3 25.8 -55.15 Q26.05 -54.35 26.45 -53.7 26.4 -53.1 26.6 -52.6 L27.35 -50.25 Q27.75 -50.0 28.15 -50.05 L37.7 -51.0 38.2 -49.6 Q38.4 -48.05 39.15 -46.7 L39.15 -46.4 39.15 -46.1 Q39.85 -45.2 40.9 -45.1 L50.3 -44.6 49.8 -43.45 48.75 -41.8 48.75 -40.95 48.75 -40.05 49.6 -39.05 Q53.55 -35.9 56.8 -32.3 52.6 -30.35 48.75 -27.7 L48.75 -27.4 48.75 -26.8 48.75 -26.25 49.4 -25.6 Q53.8 -20.65 58.45 -16.15 55.05 -16.3 52.6 -14.25 52.4 -12.1 52.9 -10.2 53.85 -6.4 55.65 -3.0 L55.3 -2.9 Q52.5 -4.25 50.65 -2.25 L50.7 1.2 Q50.8 4.2 50.5 7.0 L50.1 7.2 49.5 7.45 49.2 7.0 48.35 6.1 48.35 5.85 48.35 5.55 48.15 5.3 47.3 4.7 Q47.2 4.15 46.7 4.0 42.15 2.45 39.45 6.6 39.1 6.75 38.9 7.0 38.0 8.0 36.85 7.95 L36.5 7.45 35.8 6.5 35.7 6.2 35.7 5.95 Q34.7 4.3 32.9 3.9 L26.75 3.35 26.95 2.75 27.55 1.9 27.65 0.45 27.6 -1.0 Q24.15 -3.35 19.95 -4.25 19.35 -4.7 19.05 -5.3 17.55 -8.55 14.35 -10.2 L14.0 -10.05 13.6 -9.8 Q13.3 -9.3 13.5 -8.7 14.1 -7.1 15.25 -5.8 L15.3 -5.2 15.35 -4.65 16.15 -3.75 Q17.2 -2.6 17.25 -1.2 13.65 -1.15 10.7 0.0 L10.7 0.85 10.8 2.0 11.1 2.3 11.5 2.85 11.5 3.15 11.5 3.45 11.5 3.7 12.25 4.85 Q12.8 5.8 12.65 6.9 L12.9 7.2 13.05 7.45 10.35 7.0 Q8.15 5.85 5.6 5.25 L-0.25 4.8 Q-0.55 6.15 -0.45 7.65 -0.3 10.3 -0.6 12.85 L-1.0 12.85 Q-6.85 7.15 -15.0 7.15 L-15.5 6.9 -14.7 5.75 Q-14.0 4.4 -13.85 2.85 -18.9 0.15 -24.8 -0.8 -23.7 -0.9 -22.75 -1.45 -19.1 -3.65 -18.95 -7.7 L-28.25 -13.75 Q-26.35 -14.85 -24.2 -15.65 -21.15 -16.7 -20.15 -19.55 -19.95 -20.1 -20.3 -20.4 -24.05 -23.15 -26.95 -26.65 -24.35 -26.45 -22.7 -27.9 -22.7 -29.95 -23.9 -31.8 -26.25 -35.35 -27.3 -39.4 L-27.75 -39.95 Q-28.1 -40.35 -28.1 -40.85 L-26.7 -40.8 Q-23.25 -39.55 -19.9 -40.05 L-19.3 -41.25 -18.2 -44.1 Q-14.3 -43.2 -10.8 -40.85 L-10.65 -40.7 Q-9.6 -39.7 -8.4 -40.45 L-7.5 -41.75 Q-5.8 -44.25 -5.05 -47.1 -5.6 -48.05 -6.7 -48.2 -10.75 -48.75 -13.5 -49.95 L-12.5 -50.8 Q-9.65 -52.6 -9.75 -55.75 -10.05 -56.2 -10.55 -56.35 L-21.95 -58.8 -21.95 -60.7 -21.95 -63.6 Q-22.5 -64.6 -23.65 -64.35 -28.95 -63.2 -33.45 -63.3 L-33.05 -64.15 Q-32.9 -64.85 -32.4 -65.35 L-32.35 -65.9 -32.4 -66.5 Q-33.8 -68.3 -36.05 -68.7 -37.85 -69.55 -39.8 -70.15 L-39.5 -70.35 Q-38.7 -70.75 -38.35 -71.55 -37.45 -71.85 -37.0 -72.6 -35.7 -74.55 -36.15 -77.05 -38.5 -80.3 -42.2 -81.35 L-42.3 -81.45 -44.0 -82.8 -43.8 -83.05 -43.05 -83.4 -42.85 -83.55 Q-40.35 -85.1 -38.45 -87.4 L-38.4 -88.3 -38.55 -89.15 -39.45 -90.35 Q-42.25 -94.65 -46.5 -97.5 L-46.6 -97.65 -42.1 -100.1 -41.85 -100.65 -41.5 -101.25 -41.6 -103.25 Q-41.75 -105.65 -42.6 -107.85 L-43.0 -108.2 -43.05 -108.45 -43.2 -109.0 -43.45 -109.9 Q-41.05 -109.85 -39.05 -110.85 L-38.95 -111.15 -38.85 -111.7 -38.75 -112.3 -38.45 -112.6 -38.05 -113.15 -38.05 -114.3 -38.05 -115.45 Q-42.65 -118.65 -48.05 -120.05 -42.75 -122.05 -37.8 -124.5 L-37.75 -125.05 -37.8 -125.65 -38.0 -125.9 -38.35 -126.2 -38.55 -126.8 -39.2 -127.95 -39.35 -128.8 -40.35 -130.25 -40.4 -130.55 -40.45 -131.1 Q-37.95 -129.45 -35.3 -129.95 L-34.7 -130.75 Q-33.75 -131.7 -33.15 -132.85 L-32.7 -133.15 -30.85 -134.55 Q-29.65 -134.85 -28.9 -133.75 -26.95 -130.9 -23.85 -131.0 L-21.15 -132.95 -20.0 -132.95 -19.75 -128.15 Q-19.65 -126.65 -18.25 -126.5 L-12.4 -126.05 -12.4 -125.85 -11.35 -124.95 Q-9.7 -123.0 -7.55 -121.6 L-7.15 -121.75 -6.75 -122.0 -6.45 -123.15 Q-5.95 -124.75 -6.25 -126.35 -6.8 -129.6 -6.95 -132.95 L-4.85 -132.95 Q-3.45 -131.8 -1.8 -131.15 0.15 -130.4 1.9 -129.3 3.95 -127.95 5.9 -128.35" fill="#ffff00" fill-opacity="0.5019608" fill-rule="evenodd" stroke="none"/>
  </g>
</svg>
