<?xml version="1.0" encoding="UTF-8" standalone="no"?>
<svg xmlns:ffdec="https://www.free-decompiler.com/flash" xmlns:xlink="http://www.w3.org/1999/xlink" ffdec:objectType="shape" height="123.55px" width="82.85px" xmlns="http://www.w3.org/2000/svg">
  <g transform="matrix(1.0, 0.0, 0.0, 1.0, 21.05, 90.8)">
    <path d="M18.1 -89.25 Q22.3 -86.0 22.3 -79.6 22.25 -75.65 20.4 -72.45 19.95 -71.65 18.85 -71.2 10.5 -68.05 2.9 -63.25 L3.1 -62.7 Q3.4 -61.85 3.3 -60.95 L13.1 -42.45 13.3 -41.9 Q18.2 -34.9 21.0 -26.9 25.7 -18.9 27.95 -10.15 L28.0 -10.05 Q42.85 -10.8 55.8 -4.8 56.45 -4.5 56.45 -3.6 L56.4 20.05 56.5 20.4 Q58.55 21.2 60.05 22.8 61.1 23.85 61.55 25.3 L61.8 26.4 61.6 27.0 Q61.15 28.0 60.25 28.45 58.55 29.35 56.8 28.5 55.8 27.95 55.25 27.0 L54.9 26.9 Q52.8 27.15 50.9 28.3 48.75 29.6 46.8 27.95 L46.2 27.35 46.05 26.8 Q45.9 25.9 46.25 25.1 46.9 23.75 48.05 22.65 49.05 21.65 50.25 21.0 50.9 19.45 50.85 17.55 L50.65 1.95 50.65 -0.7 Q44.45 -2.9 37.55 -3.6 L30.3 -4.4 30.8 -2.75 Q31.7 -1.35 32.2 0.3 L33.0 2.55 33.3 3.7 33.15 4.3 32.75 5.45 32.45 5.7 Q31.8 9.25 29.15 11.9 25.75 15.3 21.0 15.35 L21.15 15.7 13.2 15.7 13.3 15.3 13.4 14.7 13.9 13.15 12.45 11.9 Q9.0 8.45 9.0 3.55 L9.05 2.6 4.85 4.3 6.35 8.75 Q6.95 10.8 7.15 12.95 9.25 16.6 10.5 20.6 11.2 22.9 12.35 25.05 18.8 22.7 20.25 27.95 13.1 34.2 3.75 32.35 L3.1 32.0 Q2.65 30.85 3.2 29.75 4.1 27.85 6.0 26.8 5.45 23.8 4.1 21.1 3.1 19.15 2.75 17.0 L2.15 16.4 1.55 15.85 Q0.9 11.7 -0.6 7.7 -1.7 4.65 -1.7 1.4 4.25 -3.5 12.5 -5.4 L13.35 -5.6 Q16.5 -8.25 20.8 -8.25 L22.15 -8.15 22.4 -8.25 18.65 -17.55 16.75 -22.65 16.35 -23.2 15.45 -24.4 Q14.65 -27.45 13.1 -30.25 12.85 -30.75 12.75 -31.3 11.25 -33.15 10.3 -35.2 7.75 -35.75 5.1 -37.45 -2.5 -42.35 -11.55 -44.55 L-18.55 -45.95 Q-20.1 -46.2 -20.35 -47.75 -23.2 -65.0 -14.55 -79.3 L-13.05 -82.3 Q-16.45 -84.15 -19.45 -86.75 -20.3 -87.45 -20.15 -88.65 -19.8 -89.8 -18.6 -90.3 L-17.3 -90.8 Q-9.5 -89.35 -6.6 -82.6 -6.05 -81.35 -6.95 -80.05 -7.75 -79.0 -8.05 -77.7 -9.35 -76.9 -10.1 -75.7 -10.8 -74.5 -11.15 -73.1 L-11.9 -72.5 -12.25 -70.8 Q-12.35 -69.25 -13.65 -68.45 -15.05 -63.4 -15.15 -58.05 L-15.15 -51.7 -2.45 -47.1 Q0.75 -47.6 2.9 -45.55 L4.2 -45.1 Q1.65 -53.75 -3.8 -61.35 -4.15 -62.75 -4.15 -64.2 L-3.8 -65.95 Q5.7 -72.05 16.0 -77.1 L15.15 -85.75 Q15.1 -86.7 15.45 -87.5 16.0 -88.6 17.2 -89.0 L18.1 -89.25" fill="#000000" fill-rule="evenodd" stroke="none"/>
  </g>
</svg>
