<?xml version="1.0" encoding="UTF-8" standalone="no"?>
<svg xmlns:ffdec="https://www.free-decompiler.com/flash" xmlns:xlink="http://www.w3.org/1999/xlink" ffdec:objectType="shape" height="146.8px" width="105.65px" xmlns="http://www.w3.org/2000/svg">
  <g transform="matrix(1.0, 0.0, 0.0, 1.0, 56.45, 140.3)">
    <path d="M12.2 -138.9 L12.4 -138.6 12.35 -135.7 Q12.35 -133.7 12.5 -131.7 16.8 -131.3 20.65 -129.4 17.8 -128.2 15.85 -125.95 L15.85 -125.65 15.9 -125.05 15.95 -124.8 16.25 -124.55 Q18.7 -123.3 20.55 -121.5 17.15 -120.5 14.7 -118.15 L14.7 -117.0 14.7 -116.4 15.3 -115.8 17.0 -113.55 Q14.35 -112.5 11.65 -110.75 L11.65 -106.45 11.65 -100.65 4.35 -100.4 Q2.95 -100.35 2.4 -99.35 L2.4 -99.05 2.45 -98.5 2.6 -98.15 3.7 -97.05 5.75 -94.15 Q1.75 -93.15 -1.45 -90.7 L-1.45 -89.8 -1.45 -89.25 Q1.1 -87.1 4.7 -87.25 L4.95 -86.9 4.9 -86.65 3.7 -84.75 Q2.2 -82.9 2.5 -80.6 L3.4 -80.3 10.4 -79.65 9.65 -78.45 8.55 -75.9 Q11.25 -74.05 15.1 -74.55 L15.3 -74.4 16.7 -73.1 16.0 -71.85 13.55 -68.8 13.55 -68.5 13.45 -68.2 13.1 -67.9 12.8 -67.65 12.8 -67.35 12.75 -67.05 12.7 -66.75 12.4 -66.5 12.15 -66.15 12.0 -65.9 12.0 -64.75 12.0 -63.9 Q12.25 -63.6 12.55 -63.55 18.25 -62.25 23.25 -59.4 L23.0 -58.85 20.85 -56.2 20.85 -55.9 20.75 -55.65 20.2 -55.05 19.7 -54.5 19.7 -54.2 19.7 -53.9 19.1 -52.95 17.8 -51.0 17.8 -50.75 17.8 -50.15 17.85 -49.85 Q22.2 -48.9 26.65 -48.3 29.75 -47.9 32.35 -49.3 L32.2 -49.0 32.0 -48.7 31.95 -47.3 Q31.9 -46.25 32.1 -45.25 L43.8 -43.05 42.7 -41.6 Q40.85 -39.45 39.65 -37.1 L40.15 -36.7 Q44.9 -35.0 48.1 -31.45 L46.8 -30.15 Q44.45 -27.65 42.75 -24.8 L42.75 -23.35 42.75 -21.65 Q43.05 -21.15 43.6 -20.95 47.45 -19.4 49.2 -15.95 L48.0 -15.35 Q46.2 -14.7 45.45 -13.0 L45.45 -12.7 45.45 -12.4 45.25 -12.15 45.05 -11.85 45.0 -9.8 Q44.95 -8.3 45.45 -6.95 L45.7 -6.65 45.8 -6.35 45.8 -5.5 Q45.75 -5.0 46.1 -4.65 L40.85 -4.0 40.45 -3.65 40.45 -1.65 40.35 1.2 40.05 1.5 40.1 2.65 39.95 3.65 Q37.7 2.3 35.25 1.4 31.25 -0.1 27.4 0.05 26.25 -1.8 23.75 -2.3 20.95 -2.85 19.7 -4.05 L20.3 -4.55 20.55 -4.75 21.0 -5.6 Q21.65 -7.0 20.55 -7.95 18.75 -9.55 17.45 -11.65 L16.9 -12.05 Q13.65 -12.15 13.15 -8.55 L12.95 -8.3 12.8 -8.0 12.7 -7.7 12.3 -7.75 11.35 -8.0 Q7.9 -10.95 4.7 -8.1 L4.7 -7.8 4.6 -7.5 3.75 -6.7 Q2.8 -5.15 1.65 -3.75 L1.6 -2.9 1.55 -2.35 Q-2.15 -4.65 -6.25 -6.35 L-6.6 -6.25 -6.8 -6.15 -7.0 -6.0 Q-7.3 -5.35 -7.25 -4.55 L-7.2 -2.8 -7.0 -2.55 -6.75 -2.2 -6.5 -1.95 -6.4 -1.1 -6.45 -0.5 -6.25 -0.2 -6.05 0.05 -6.05 0.95 -6.05 1.5 Q-9.5 1.2 -12.2 3.05 L-12.15 4.5 -12.3 6.2 -12.6 6.45 -12.85 6.5 Q-17.8 2.2 -24.6 3.05 L-24.7 2.85 Q-26.95 0.2 -29.95 -1.45 -29.55 -1.8 -29.5 -2.35 L-29.45 -2.9 -29.7 -3.15 -30.45 -3.75 -30.65 -4.05 Q-31.9 -5.7 -33.6 -6.95 -36.2 -9.5 -39.45 -11.55 L-33.05 -12.2 Q-32.8 -12.2 -32.55 -12.5 L-32.75 -13.9 -33.3 -16.55 -32.7 -17.1 -30.05 -18.65 Q-29.8 -19.2 -29.8 -19.8 L-29.95 -21.55 Q-30.8 -22.5 -31.05 -23.75 -31.5 -25.75 -31.4 -27.9 L-31.6 -28.15 -31.75 -28.45 -31.8 -28.75 -31.25 -29.2 Q-30.3 -29.65 -29.85 -30.55 -29.95 -32.45 -30.5 -34.25 L-32.15 -40.35 Q-30.05 -40.05 -29.1 -41.7 L-29.3 -44.25 -29.45 -47.45 -24.55 -43.9 Q-23.3 -42.9 -21.85 -42.4 -21.35 -42.2 -21.05 -42.55 -19.3 -44.6 -19.85 -47.75 L-17.35 -46.45 Q-14.3 -43.9 -10.85 -44.4 -10.55 -45.25 -10.6 -46.1 -10.7 -47.5 -11.4 -48.7 L-11.2 -48.95 Q-8.8 -51.15 -5.85 -52.45 L-5.75 -52.75 -5.65 -53.35 -5.65 -53.6 Q-6.1 -54.3 -6.95 -54.45 -10.15 -55.1 -12.2 -56.8 -11.1 -58.15 -10.7 -60.0 -10.2 -62.5 -10.25 -65.15 -10.5 -65.45 -10.8 -65.45 L-20.85 -66.4 -21.05 -67.25 -21.0 -67.85 -21.2 -68.1 -21.4 -68.4 -21.4 -68.7 -21.4 -69.0 -21.6 -69.25 -21.8 -69.55 -21.8 -69.85 -21.8 -70.15 Q-23.15 -71.75 -25.45 -71.4 L-26.15 -71.65 -32.95 -72.55 -32.7 -73.7 -32.55 -75.15 -33.15 -76.35 Q-33.35 -76.9 -33.85 -77.25 -38.35 -80.45 -44.05 -80.7 L-43.95 -83.2 Q-43.55 -86.45 -46.45 -87.35 -49.25 -88.25 -52.15 -88.45 -55.1 -88.65 -56.45 -89.55 L-55.05 -91.05 Q-54.1 -92.4 -54.55 -94.15 L-55.15 -95.0 -56.0 -96.45 Q-51.65 -96.0 -48.6 -98.45 -47.95 -98.95 -47.95 -99.6 -47.9 -103.4 -46.75 -106.8 -45.6 -106.8 -44.85 -107.6 -40.3 -107.6 -37.15 -110.45 L-37.15 -111.6 -37.25 -113.35 -37.8 -114.2 Q-38.2 -115.35 -39.1 -116.25 L-37.85 -117.25 Q-35.6 -118.9 -37.05 -121.0 -39.25 -124.3 -41.85 -127.2 -38.75 -126.95 -35.85 -127.85 L-35.25 -128.35 Q-33.9 -132.65 -35.25 -137.15 -33.2 -136.75 -31.9 -135.05 -30.0 -132.55 -27.15 -134.45 -22.9 -137.15 -19.1 -140.25 -18.55 -140.4 -18.45 -139.7 L-17.95 -138.5 -17.85 -137.05 Q-17.7 -135.75 -16.8 -134.75 L-16.8 -134.5 -16.8 -134.2 Q-15.75 -132.95 -14.1 -132.55 L-13.3 -131.5 Q-11.4 -130.05 -10.65 -127.95 L-10.35 -127.65 Q-8.1 -125.55 -6.45 -127.75 L-6.45 -130.35 -6.35 -133.5 -5.95 -133.85 -5.75 -134.1 Q-3.2 -134.05 -0.85 -132.9 -0.15 -132.55 0.7 -132.5 5.05 -132.05 4.45 -136.3 L4.75 -136.05 6.05 -135.45 6.8 -135.95 7.0 -136.2 7.0 -136.5 7.05 -136.75 7.2 -137.05 Q9.2 -139.2 12.0 -139.2 L12.2 -138.9" fill="#ffff00" fill-opacity="0.5019608" fill-rule="evenodd" stroke="none"/>
  </g>
</svg>
