<?xml version="1.0" encoding="UTF-8" standalone="no"?>
<svg xmlns:ffdec="https://www.free-decompiler.com/flash" xmlns:xlink="http://www.w3.org/1999/xlink" ffdec:objectType="shape" height="125.35px" width="82.85px" xmlns="http://www.w3.org/2000/svg">
  <g transform="matrix(1.0, 0.0, 0.0, 1.0, 44.5, 127.55)">
    <path d="M4.65 -119.65 L4.6 -117.95 Q6.1 -114.8 4.55 -110.25 3.55 -107.4 0.25 -106.8 L-2.05 -106.2 -3.65 -105.1 -5.15 -104.65 Q-11.65 -100.35 -17.1 -94.85 -14.75 -89.0 -11.8 -83.25 L-11.7 -82.7 Q-10.6 -81.75 -10.2 -80.4 L-9.95 -79.25 Q2.75 -72.25 9.1 -59.65 13.75 -51.9 11.25 -42.95 L11.2 -42.7 Q21.4 -42.15 31.3 -39.85 32.2 -39.65 32.3 -38.6 L34.5 -15.0 Q34.5 -14.7 34.65 -14.6 L37.5 -12.6 37.95 -12.1 Q38.35 -11.25 38.35 -10.35 L37.75 -9.2 Q37.35 -8.35 36.4 -8.2 30.2 -7.0 25.05 -9.4 L24.9 -10.0 Q24.75 -10.9 25.05 -11.7 L25.35 -12.2 28.55 -16.35 Q28.85 -17.45 28.7 -18.65 L27.7 -26.8 Q27.2 -30.95 27.2 -35.2 20.6 -34.7 13.95 -35.9 L10.6 -36.45 Q12.95 -33.4 12.95 -29.35 12.95 -24.45 9.5 -21.0 6.1 -17.6 1.35 -17.55 L1.5 -17.2 -6.45 -17.2 -6.35 -17.6 -6.25 -18.2 -5.75 -19.75 -7.2 -21.0 Q-10.65 -24.45 -10.65 -29.35 -10.65 -31.8 -9.8 -33.85 L-15.55 -32.1 -16.1 -31.5 -16.55 -31.0 -17.1 -30.4 Q-18.3 -25.1 -18.05 -19.4 L-17.85 -9.2 Q-12.75 -9.1 -11.7 -5.0 -13.0 -1.6 -16.9 -2.3 L-25.85 -4.05 Q-26.6 -4.2 -27.3 -4.8 -28.0 -7.65 -25.4 -9.45 L-23.8 -10.55 Q-23.5 -16.3 -23.75 -22.1 -24.1 -28.35 -22.65 -34.25 -19.4 -37.75 -14.6 -38.65 -9.15 -40.95 -3.05 -41.75 L-2.4 -42.15 -0.75 -42.8 -0.7 -42.9 0.65 -42.65 0.7 -42.65 1.55 -42.8 1.6 -42.9 5.1 -42.9 Q5.3 -44.85 5.8 -46.7 L6.4 -48.45 5.1 -53.05 Q4.85 -53.9 4.85 -54.8 L4.45 -55.4 3.5 -56.55 3.35 -57.15 3.15 -58.3 Q-4.05 -68.1 -14.35 -75.05 -15.4 -75.75 -15.75 -76.75 -21.9 -79.5 -27.85 -82.35 -36.1 -85.4 -43.65 -89.85 -44.5 -90.35 -44.5 -91.6 -44.35 -94.6 -42.1 -96.75 -35.75 -106.4 -27.1 -114.7 L-24.75 -117.0 -30.85 -122.45 Q-31.45 -123.0 -31.3 -123.9 -30.95 -125.05 -29.75 -125.55 L-28.45 -126.0 Q-20.6 -124.7 -17.3 -117.55 L-17.1 -117.0 Q-24.05 -107.85 -32.65 -99.85 -33.45 -99.1 -34.4 -98.5 -34.85 -97.0 -35.8 -95.65 L-37.3 -93.3 Q-29.65 -89.3 -20.25 -85.4 -22.55 -90.45 -22.7 -95.85 -22.75 -97.3 -21.7 -98.5 -12.75 -108.55 -0.55 -113.7 L-0.95 -115.2 -1.85 -115.65 Q-2.15 -119.6 -2.1 -123.7 L-2.05 -125.45 Q-1.35 -127.4 0.8 -127.45 L0.8 -127.55 Q4.55 -125.05 4.65 -119.65" fill="#000000" fill-rule="evenodd" stroke="none"/>
  </g>
</svg>
