<?xml version="1.0" encoding="UTF-8" standalone="no"?>
<svg xmlns:ffdec="https://www.free-decompiler.com/flash" xmlns:xlink="http://www.w3.org/1999/xlink" ffdec:objectType="shape" height="145.65px" width="89.4px" xmlns="http://www.w3.org/2000/svg">
  <g transform="matrix(1.0, 0.0, 0.0, 1.0, 40.05, 139.25)">
    <path d="M22.55 -137.75 L23.1 -136.9 23.55 -135.8 Q24.4 -132.7 24.2 -129.4 L32.15 -128.35 25.6 -123.7 25.6 -123.15 25.7 -121.7 Q26.15 -121.25 26.75 -121.15 L33.3 -115.75 32.4 -115.2 Q31.35 -114.6 30.2 -114.45 26.8 -113.95 25.25 -111.35 L25.2 -110.75 Q25.15 -109.4 25.85 -108.25 27.7 -105.2 28.7 -101.8 L20.25 -101.3 Q18.4 -101.2 17.15 -99.9 L17.15 -99.35 17.15 -98.45 18.8 -96.15 Q16.5 -95.4 14.5 -94.15 10.85 -93.75 9.5 -90.9 13.0 -88.65 17.15 -87.7 L17.2 -87.15 17.05 -86.25 16.4 -85.7 16.4 -84.85 16.5 -81.35 Q20.0 -80.3 24.2 -80.6 25.4 -79.45 26.75 -79.05 L26.7 -78.75 Q26.45 -77.9 25.7 -77.35 L25.65 -77.05 25.5 -76.45 25.1 -75.85 Q24.2 -74.45 24.45 -72.7 L24.7 -72.55 Q29.8 -70.7 34.05 -67.45 L31.85 -64.3 27.15 -57.95 27.15 -57.65 27.25 -56.8 Q28.7 -55.4 30.6 -54.95 32.65 -53.5 34.85 -52.45 34.25 -50.45 31.85 -49.7 L31.7 -49.15 Q31.2 -48.1 31.0 -47.1 31.2 -46.8 31.45 -46.75 35.5 -45.65 39.05 -46.05 L38.95 -45.2 Q38.45 -43.45 38.85 -41.7 40.65 -40.75 42.4 -40.0 L42.2 -39.7 Q40.65 -37.95 39.85 -35.95 40.05 -35.2 40.9 -35.1 L47.05 -28.75 Q45.35 -26.65 42.9 -25.0 L42.85 -24.4 Q42.8 -23.8 43.1 -23.25 46.6 -21.4 49.35 -18.75 46.9 -17.7 45.6 -15.4 L45.6 -14.55 45.6 -11.95 Q47.0 -9.7 48.65 -7.6 L48.6 -7.05 48.3 -4.75 48.1 -4.45 47.9 -4.15 47.9 -2.7 47.8 2.1 Q45.15 -0.6 41.75 -0.8 L39.85 1.15 39.8 1.4 39.75 2.0 38.0 3.7 37.95 4.0 37.8 4.6 37.6 4.85 Q36.95 5.35 36.75 6.05 L36.35 6.05 36.2 6.05 35.75 5.6 34.3 4.4 Q33.15 3.55 31.55 3.5 25.15 3.5 19.45 6.3 19.25 5.5 18.55 5.05 L13.9 1.8 14.1 1.5 14.55 0.35 16.0 -1.35 16.0 -2.25 16.0 -4.85 15.45 -5.2 11.7 -5.9 11.5 -6.15 Q10.85 -6.95 10.45 -7.9 L9.3 -8.5 Q7.65 -10.85 5.65 -8.95 L5.65 -7.5 5.55 -3.65 Q5.0 -3.9 4.6 -4.3 2.05 -6.6 -0.1 -4.55 -0.2 -3.95 0.1 -3.45 L0.4 -2.55 Q0.95 0.6 0.55 3.8 L-0.4 3.9 -1.35 3.3 Q-2.15 2.8 -3.0 2.85 -8.4 3.0 -12.8 6.4 L-13.2 6.4 Q-14.5 5.1 -16.2 4.3 L-17.1 4.1 Q-23.6 4.35 -30.1 6.05 L-30.0 5.0 Q-29.5 2.45 -31.45 1.4 -34.0 0.05 -35.45 -1.35 -34.1 -1.95 -33.25 -3.1 -33.1 -3.95 -33.25 -4.8 -34.0 -8.55 -37.0 -11.15 -31.1 -10.45 -27.0 -13.65 L-27.0 -14.25 -27.1 -15.4 -27.3 -15.65 -28.05 -16.55 -28.15 -16.85 -28.15 -17.1 -31.45 -19.7 -26.55 -20.85 Q-25.25 -22.85 -26.45 -24.95 L-30.45 -31.25 Q-27.15 -31.45 -25.45 -34.4 L-25.45 -34.7 -25.45 -35.0 -25.3 -35.25 -25.1 -35.55 -25.1 -36.7 -25.3 -38.95 Q-25.95 -42.1 -25.85 -45.35 L-20.75 -44.5 -17.2 -44.4 -17.1 -44.7 -16.65 -45.55 -16.5 -46.7 Q-15.55 -49.15 -15.85 -51.9 -12.8 -50.65 -10.25 -48.3 -7.5 -45.7 -4.85 -47.75 L-4.6 -48.65 Q-3.75 -50.6 -3.6 -52.65 L-3.4 -52.95 -3.1 -53.5 4.6 -53.9 4.7 -54.45 Q4.6 -55.8 4.1 -57.05 L1.8 -59.0 2.05 -59.6 Q2.55 -61.05 1.2 -61.6 -3.65 -63.7 -8.55 -64.1 L-8.55 -64.95 -8.55 -67.85 -9.1 -68.15 -22.4 -68.9 -21.95 -69.7 Q-20.6 -71.9 -20.5 -74.35 -20.8 -74.95 -21.45 -75.05 -26.55 -75.65 -31.25 -77.05 L-29.4 -79.65 -29.35 -80.2 -29.3 -81.65 Q-31.8 -83.75 -35.1 -84.55 -36.1 -85.75 -37.75 -85.7 L-37.95 -85.85 -38.35 -86.15 -37.95 -86.35 -37.4 -86.95 Q-36.65 -87.0 -36.35 -87.6 L-36.25 -88.2 -36.25 -89.35 -36.45 -89.6 Q-38.4 -91.45 -39.1 -93.95 -40.05 -94.25 -40.05 -95.1 L-39.95 -95.35 -39.7 -95.7 -32.6 -96.1 Q-32.4 -96.1 -32.2 -96.25 -31.75 -99.45 -32.5 -102.55 L-34.2 -109.5 -28.75 -109.95 Q-27.95 -110.05 -27.5 -110.65 -27.35 -111.2 -27.35 -111.8 L-27.55 -113.5 Q-28.1 -116.65 -28.15 -119.9 L-24.6 -119.3 Q-22.3 -118.7 -20.85 -120.05 L-20.85 -120.35 -20.85 -120.65 Q-19.35 -123.15 -20.65 -126.2 -22.05 -129.45 -22.7 -133.05 L-14.15 -133.35 Q-12.1 -133.3 -12.1 -134.85 -12.75 -135.25 -12.7 -135.7 L-12.55 -136.05 Q-11.9 -137.8 -10.5 -139.2 -9.65 -139.4 -8.95 -138.6 -7.35 -136.75 -6.25 -134.55 -4.7 -131.4 -1.65 -131.8 0.55 -134.35 3.65 -136.0 L3.7 -136.3 Q4.1 -137.45 5.05 -137.25 L5.4 -136.75 Q6.8 -135.1 7.2 -132.95 L7.45 -132.65 8.25 -131.8 8.3 -131.5 8.45 -130.9 Q10.6 -129.5 12.4 -131.15 16.8 -135.1 21.95 -137.85 L22.55 -137.75" fill="#ffff00" fill-opacity="0.5019608" fill-rule="evenodd" stroke="none"/>
  </g>
</svg>
