<?xml version="1.0" encoding="UTF-8" standalone="no"?>
<svg xmlns:ffdec="https://www.free-decompiler.com/flash" xmlns:xlink="http://www.w3.org/1999/xlink" ffdec:objectType="shape" height="136.1px" width="124.85px" xmlns="http://www.w3.org/2000/svg">
  <g transform="matrix(1.0, 0.0, 0.0, 1.0, 51.0, 127.2)">
    <path d="M43.7 -124.9 L43.5 -124.0 43.5 -123.45 42.9 -122.45 41.95 -121.4 41.95 -121.15 41.95 -120.25 42.05 -119.4 Q44.05 -117.85 46.8 -118.3 51.9 -119.2 55.8 -122.2 L56.75 -122.05 57.15 -122.1 58.0 -122.75 58.6 -123.7 59.05 -124.05 Q61.2 -125.9 63.85 -127.2 64.55 -126.25 64.1 -124.25 63.65 -122.25 63.95 -120.15 L64.8 -120.0 Q68.4 -120.45 70.85 -118.8 L69.95 -118.2 65.4 -114.7 65.4 -114.4 65.45 -113.85 65.6 -113.55 66.0 -113.25 70.4 -110.1 70.25 -109.85 64.25 -105.2 64.25 -104.9 64.3 -104.3 64.35 -104.05 64.65 -103.8 Q69.5 -101.25 73.85 -98.0 70.1 -96.75 66.95 -94.5 L66.95 -93.95 66.95 -93.35 66.95 -93.1 67.55 -92.25 67.8 -91.35 68.5 -90.8 68.85 -90.5 68.85 -90.2 68.85 -89.9 70.55 -88.15 Q71.55 -86.8 72.2 -85.3 67.5 -84.65 63.85 -82.05 L63.8 -77.7 Q63.7 -74.4 63.0 -71.3 L60.6 -72.4 Q54.3 -74.5 48.5 -71.0 L48.45 -71.55 Q48.4 -72.6 47.8 -73.5 47.3 -74.3 47.25 -75.3 L47.0 -75.55 Q43.7 -77.8 40.7 -74.65 39.8 -74.45 39.15 -73.9 L37.35 -71.95 37.0 -71.95 36.9 -72.05 35.85 -74.2 34.75 -76.35 Q33.8 -76.65 33.4 -77.45 32.65 -78.95 31.2 -78.4 L30.2 -77.3 Q27.85 -75.2 25.85 -72.7 22.1 -72.55 18.6 -73.9 14.5 -75.5 10.85 -74.55 L10.85 -74.25 10.85 -73.7 10.85 -73.4 11.1 -73.1 11.25 -72.8 Q11.15 -72.25 11.45 -71.75 L12.0 -70.5 Q8.0 -68.55 4.7 -65.6 L4.7 -65.35 4.75 -64.75 4.8 -64.45 Q8.85 -61.45 13.45 -59.65 L12.3 -58.4 Q10.5 -56.7 9.3 -54.5 9.35 -54.0 9.05 -53.6 L8.55 -53.05 8.55 -52.75 8.5 -51.9 8.65 -51.0 Q10.7 -50.35 13.0 -50.0 14.65 -49.8 16.05 -48.9 16.95 -48.3 18.0 -48.2 L29.6 -47.65 Q29.2 -47.2 29.1 -46.6 L28.7 -45.45 Q28.2 -45.15 27.95 -44.6 27.75 -44.1 27.35 -43.7 L27.35 -43.45 27.4 -42.85 27.45 -42.55 Q31.35 -41.2 34.75 -39.1 L33.65 -38.35 30.85 -35.55 30.85 -35.25 30.8 -34.1 30.9 -32.95 31.75 -32.35 36.5 -28.65 35.95 -28.3 Q33.85 -27.6 32.35 -26.05 32.2 -25.25 32.6 -24.6 33.35 -23.2 34.85 -22.6 34.95 -22.1 35.35 -21.95 37.45 -20.95 38.6 -19.15 35.7 -18.9 33.9 -17.1 L33.9 -16.55 Q33.85 -15.5 34.3 -14.7 35.2 -13.1 35.65 -11.35 L36.0 -11.1 36.6 -10.8 Q36.7 -10.05 37.3 -9.55 L37.75 -8.5 38.5 -7.55 39.1 -6.15 Q36.2 -7.0 33.9 -5.8 33.7 -3.55 34.2 -1.45 34.95 1.75 34.65 5.15 33.5 4.75 32.45 4.0 30.05 2.2 27.35 3.55 23.8 5.3 20.75 7.55 L20.65 7.35 20.2 6.5 20.05 5.95 Q19.75 5.3 19.1 5.25 L7.0 5.65 Q6.95 3.45 5.9 1.6 L5.6 1.25 -0.4 -1.1 0.2 -1.65 1.55 -3.1 1.5 -5.1 Q1.2 -6.4 0.2 -7.3 -3.0 -10.15 -4.9 -6.75 L-4.9 -6.45 -4.9 -5.9 -4.9 -5.6 -9.25 -8.2 Q-11.8 -9.8 -14.3 -9.15 -14.8 -7.5 -13.9 -5.85 L-10.55 0.05 -10.8 0.05 Q-14.05 -1.85 -17.4 -1.35 -17.7 -0.7 -17.65 0.1 L-17.6 1.5 -17.3 1.8 -17.2 2.1 -17.15 3.55 -17.3 4.95 Q-19.25 5.25 -21.25 4.4 -24.6 2.95 -27.15 5.2 -29.6 7.4 -32.1 8.9 -33.85 5.8 -36.15 3.1 L-36.55 2.8 Q-42.15 0.95 -47.95 1.05 L-47.9 0.75 -47.75 0.45 -47.55 0.15 -47.5 -0.7 Q-47.45 -1.7 -47.9 -2.6 -49.3 -5.55 -51.0 -8.2 L-44.85 -9.65 -44.65 -9.85 -44.45 -10.1 -43.6 -10.45 Q-43.1 -10.6 -42.75 -10.95 L-42.65 -11.25 -42.35 -11.85 -42.15 -12.1 Q-41.95 -13.5 -42.5 -14.75 -43.25 -16.4 -44.3 -17.9 L-44.55 -18.2 -44.45 -18.45 -43.9 -18.6 Q-42.05 -19.0 -40.45 -19.8 L-40.35 -20.1 Q-40.2 -20.5 -40.2 -20.95 L-40.25 -22.1 -41.0 -23.5 -41.7 -25.0 Q-42.6 -25.35 -43.25 -26.0 -45.4 -28.05 -46.95 -30.45 L-39.65 -30.95 Q-39.2 -31.0 -38.9 -31.35 L-38.8 -31.6 -38.5 -32.2 -38.3 -32.5 Q-38.2 -34.25 -38.55 -35.95 -39.05 -38.5 -39.1 -41.15 -34.35 -40.15 -32.65 -44.7 L-32.1 -46.95 -31.0 -49.85 -30.8 -50.15 -30.55 -50.45 -30.1 -50.35 -29.85 -50.15 -28.85 -48.95 Q-25.8 -46.5 -23.35 -43.55 L-23.3 -43.25 -23.25 -42.95 -22.4 -42.7 Q-21.15 -42.7 -20.35 -43.8 -19.75 -45.3 -19.85 -47.0 -20.0 -49.1 -19.7 -51.0 L-19.05 -51.6 -18.35 -52.45 -18.35 -52.75 -18.45 -53.3 -18.55 -53.6 -19.15 -54.25 -20.55 -55.35 -20.95 -55.8 Q-24.0 -57.8 -25.95 -59.95 -21.15 -61.0 -16.6 -62.45 -16.35 -63.15 -16.4 -63.9 -16.55 -64.85 -17.1 -65.6 L-18.85 -67.3 -21.05 -70.5 Q-20.95 -71.3 -21.3 -72.0 L-22.2 -73.4 Q-19.6 -73.85 -17.1 -74.65 -16.35 -76.95 -17.2 -79.25 -18.4 -82.8 -18.75 -86.45 -14.55 -84.95 -11.8 -88.55 L-11.8 -88.85 -11.8 -89.7 -11.8 -90.3 -11.6 -90.6 -11.45 -90.9 -11.4 -92.3 -11.35 -93.8 Q-11.25 -95.6 -10.65 -97.2 L-10.0 -97.25 -9.8 -97.1 -9.5 -96.9 Q-6.15 -95.0 -3.45 -97.2 L-3.4 -97.5 -3.35 -98.1 -3.35 -98.35 -2.8 -98.95 -2.3 -99.5 Q-1.75 -101.6 -1.8 -103.85 -1.9 -107.4 -2.5 -110.75 L-2.2 -111.05 -1.25 -111.1 -1.05 -111.05 Q1.05 -109.6 3.45 -108.85 5.8 -107.1 7.65 -109.25 8.8 -110.55 9.55 -112.05 12.1 -117.0 12.4 -122.55 L12.75 -122.55 13.15 -122.2 Q13.75 -121.2 15.0 -121.15 L18.45 -118.6 Q22.35 -115.85 23.55 -120.55 24.4 -121.55 24.85 -122.8 L25.65 -125.45 26.25 -126.0 27.25 -126.1 28.4 -124.95 30.75 -122.2 30.8 -121.9 30.85 -121.6 30.9 -121.3 Q31.8 -120.25 32.95 -119.7 L33.65 -119.55 Q39.5 -120.85 43.8 -125.15 L43.7 -124.9" fill="#ffff00" fill-opacity="0.5019608" fill-rule="evenodd" stroke="none"/>
  </g>
</svg>
