<?xml version="1.0" encoding="UTF-8" standalone="no"?>
<svg xmlns:ffdec="https://www.free-decompiler.com/flash" xmlns:xlink="http://www.w3.org/1999/xlink" ffdec:objectType="shape" height="115.7px" width="96.85px" xmlns="http://www.w3.org/2000/svg">
  <g transform="matrix(1.0, 0.0, 0.0, 1.0, 37.45, 117.55)">
    <path d="M40.3 -106.2 Q44.05 -105.25 47.6 -103.5 49.95 -108.75 51.05 -114.65 L51.25 -115.8 Q51.8 -116.95 53.0 -117.3 L53.95 -117.55 Q58.95 -114.45 55.85 -108.2 55.3 -107.05 55.15 -105.65 54.05 -96.4 45.8 -98.25 41.2 -99.25 36.95 -101.45 31.9 -104.0 26.25 -104.45 18.5 -95.7 10.1 -87.8 L10.85 -87.9 Q15.3 -91.35 20.35 -93.85 L26.8 -97.35 27.75 -97.45 27.75 -97.55 Q37.5 -96.8 45.8 -91.35 48.6 -89.5 52.0 -89.85 L52.3 -90.25 53.25 -92.6 53.55 -93.7 Q58.55 -98.5 59.35 -92.1 59.5 -90.95 58.9 -89.85 57.2 -86.55 56.25 -82.9 50.65 -81.4 44.55 -85.05 42.2 -86.45 40.1 -88.3 37.1 -89.3 34.15 -90.65 31.5 -91.9 28.55 -91.4 L27.75 -90.9 25.65 -90.05 Q14.65 -82.9 2.6 -77.4 0.95 -76.65 -0.7 -76.6 L-1.5 -75.45 -2.45 -74.25 Q-8.7 -56.85 1.6 -41.95 6.6 -43.35 12.35 -42.9 21.95 -43.6 21.0 -34.75 19.95 -24.7 19.65 -14.6 L19.55 -11.65 Q24.2 -11.4 27.3 -7.8 L27.55 -7.3 Q27.4 -3.95 24.05 -4.7 L17.0 -5.15 16.2 -4.65 Q13.9 -3.2 11.8 -5.0 L11.2 -5.55 11.2 -6.7 Q11.6 -9.75 14.1 -10.85 11.65 -14.75 13.5 -20.55 14.1 -22.4 14.05 -24.4 13.85 -30.3 14.85 -35.95 8.75 -37.8 2.25 -35.25 3.75 -32.65 3.75 -29.4 3.75 -24.5 0.3 -21.05 -3.1 -17.65 -7.85 -17.6 L-7.7 -17.25 -15.65 -17.25 -15.55 -17.65 -15.45 -18.25 -14.95 -19.8 -16.4 -21.05 Q-19.85 -24.5 -19.85 -29.4 L-19.7 -31.15 Q-23.05 -30.5 -26.3 -29.25 L-26.1 -18.85 Q-25.9 -14.7 -26.55 -10.75 -22.75 -10.9 -20.4 -7.8 L-20.15 -7.3 Q-21.45 -2.5 -27.2 -3.7 -28.6 -4.0 -29.85 -3.2 -33.9 -0.5 -37.3 -3.25 L-37.4 -3.85 -37.45 -5.0 -37.45 -6.15 Q-35.25 -8.45 -32.05 -9.6 L-31.95 -15.95 Q-31.55 -24.7 -33.45 -32.7 -27.5 -36.65 -19.95 -37.4 L-19.95 -37.5 Q-17.8 -38.2 -16.05 -38.1 -12.7 -41.2 -8.05 -41.2 L-5.1 -40.85 -5.15 -40.95 -6.1 -42.15 -6.5 -42.7 -6.65 -43.3 -6.75 -43.85 -6.85 -44.45 -7.45 -45.0 -8.05 -45.6 Q-12.7 -59.9 -8.65 -74.35 L-8.05 -77.35 -4.9 -81.3 -4.35 -81.75 -4.0 -81.9 -3.65 -81.95 -3.55 -82.05 -3.6 -83.1 Q10.35 -95.65 22.9 -109.35 23.65 -110.15 24.7 -110.2 33.15 -110.45 40.3 -106.2" fill="#000000" fill-rule="evenodd" stroke="none"/>
  </g>
</svg>
