<?xml version="1.0" encoding="UTF-8" standalone="no"?>
<svg xmlns:ffdec="https://www.free-decompiler.com/flash" xmlns:xlink="http://www.w3.org/1999/xlink" ffdec:objectType="shape" height="102.65px" width="104.9px" xmlns="http://www.w3.org/2000/svg">
  <g transform="matrix(1.0, 0.0, 0.0, 1.0, 52.6, 110.65)">
    <path d="M11.5 -106.35 Q14.3 -109.55 18.0 -110.65 25.85 -109.5 33.15 -105.75 L33.6 -105.45 Q35.6 -105.35 37.3 -104.3 L39.0 -103.3 39.75 -103.5 Q41.5 -105.9 43.9 -107.4 46.5 -109.05 47.55 -106.15 L47.85 -105.05 Q47.05 -103.2 45.9 -101.6 44.45 -99.7 43.4 -97.55 36.75 -95.75 30.25 -100.0 27.7 -101.65 24.7 -102.55 22.05 -103.25 19.75 -104.65 14.2 -100.35 8.0 -96.95 6.25 -96.0 4.35 -95.4 L0.2 -92.8 21.65 -92.0 Q23.65 -91.9 25.0 -90.85 L30.6 -86.4 Q36.6 -81.5 42.65 -77.9 L42.8 -78.5 42.9 -79.05 43.0 -79.65 43.35 -80.25 Q46.45 -86.25 51.5 -84.5 52.25 -84.25 52.3 -83.3 52.45 -80.5 50.15 -78.7 47.85 -73.35 43.1 -70.8 41.3 -69.85 39.8 -71.25 30.65 -79.85 19.25 -83.15 7.8 -86.45 -4.5 -86.3 L-6.5 -85.95 -7.65 -85.7 Q-14.95 -78.0 -19.85 -68.75 L-21.35 -66.25 -22.2 -65.0 Q-21.75 -60.5 -23.25 -56.3 L-24.0 -54.0 Q-12.35 -51.15 -1.95 -44.7 -0.35 -43.7 -0.7 -41.75 -2.7 -31.0 -2.95 -20.0 1.75 -21.1 4.9 -18.05 5.5 -17.4 5.5 -16.5 3.6 -12.6 -1.5 -12.95 L-4.15 -12.5 Q-4.55 -10.55 -5.95 -9.15 -8.45 -6.7 -10.85 -9.4 -9.25 -17.55 -8.5 -26.1 L-7.0 -40.6 -7.45 -40.8 Q-9.05 -41.2 -10.1 -42.5 L-10.5 -42.9 Q-14.35 -44.0 -18.05 -45.8 -19.55 -46.55 -20.7 -47.7 L-24.1 -48.15 Q-24.8 -45.05 -27.25 -42.6 -30.65 -39.2 -35.4 -39.15 L-35.25 -38.8 -41.05 -38.8 -44.9 -33.8 -45.3 -33.25 Q-45.2 -26.85 -44.7 -20.55 L-44.55 -16.5 Q-39.45 -17.15 -38.4 -12.7 -44.3 -6.45 -52.45 -10.95 -52.95 -12.4 -52.0 -13.65 L-50.7 -15.0 Q-50.25 -22.95 -51.0 -31.15 -51.2 -33.5 -50.9 -35.75 L-45.1 -43.95 Q-47.4 -46.95 -47.4 -50.95 -47.4 -55.85 -43.95 -59.3 -40.5 -62.75 -35.6 -62.75 -31.95 -62.75 -29.15 -60.85 L-28.5 -63.8 Q-28.0 -65.7 -28.0 -67.7 L-27.2 -68.85 -26.65 -69.45 Q-21.7 -82.45 -10.2 -90.75 L-10.2 -90.8 -10.3 -91.95 -10.3 -93.1 Q-3.8 -98.15 4.2 -101.3 8.5 -103.0 11.5 -106.35" fill="#000000" fill-rule="evenodd" stroke="none"/>
  </g>
</svg>
