<?xml version="1.0" encoding="UTF-8" standalone="no"?>
<svg xmlns:ffdec="https://www.free-decompiler.com/flash" xmlns:xlink="http://www.w3.org/1999/xlink" ffdec:objectType="shape" height="94.3px" width="174.6px" xmlns="http://www.w3.org/2000/svg">
  <g transform="matrix(1.0, 0.0, 0.0, 1.0, 74.0, 111.5)">
    <path d="M-35.05 -53.85 Q-32.7 -53.5 -30.65 -51.75 -32.95 -49.6 -35.4 -49.25 L-35.4 -49.5 Q-34.8 -51.6 -35.05 -53.85 M-11.15 -102.85 L-8.1 -106.85 Q-2.35 -105.25 2.15 -100.9 L2.7 -100.6 Q5.7 -100.35 5.75 -103.9 L6.5 -104.75 Q6.65 -107.9 9.1 -109.45 13.85 -107.1 18.2 -104.35 18.9 -104.5 19.2 -105.15 L19.2 -105.45 Q19.4 -108.7 21.0 -111.5 28.5 -108.55 35.1 -103.6 L35.5 -103.75 35.9 -104.0 35.95 -104.3 36.1 -104.85 36.3 -105.15 36.75 -105.7 36.8 -106.0 36.95 -106.85 39.95 -110.35 41.1 -110.35 Q47.15 -106.75 52.4 -102.05 54.7 -104.1 56.15 -106.85 L57.3 -107.75 58.75 -107.75 Q61.65 -105.4 64.05 -102.4 L68.15 -97.45 Q72.2 -100.95 76.05 -103.9 76.55 -103.25 77.2 -102.75 L77.2 -102.45 77.3 -102.15 Q78.65 -101.05 78.35 -99.3 78.85 -98.65 79.5 -98.15 L79.5 -97.85 79.5 -97.25 Q80.9 -95.25 83.1 -96.25 85.8 -97.45 87.95 -97.35 L87.75 -95.9 87.25 -94.6 Q85.45 -89.85 85.65 -84.7 L86.5 -83.25 86.45 -82.95 86.4 -82.4 85.8 -81.6 Q82.75 -77.4 80.95 -72.6 L80.65 -72.3 80.65 -72.0 80.75 -71.15 Q85.6 -68.9 90.15 -72.2 L90.3 -71.05 Q90.25 -67.4 90.65 -63.85 92.15 -62.15 94.5 -62.05 98.65 -61.8 100.6 -58.95 L100.45 -58.65 100.25 -58.35 100.25 -58.1 100.25 -57.8 Q95.95 -56.15 92.95 -52.9 L92.95 -52.6 92.95 -51.15 93.2 -50.85 93.5 -49.8 Q92.55 -49.55 91.85 -48.95 88.2 -45.9 86.2 -41.3 L84.85 -40.45 83.45 -40.35 81.05 -42.25 Q77.55 -45.25 75.35 -41.3 75.15 -40.0 74.2 -39.0 L74.15 -38.75 74.0 -38.15 73.25 -37.3 Q71.75 -36.2 69.9 -36.9 67.0 -38.0 64.6 -40.05 63.25 -41.2 62.15 -39.95 57.7 -34.9 50.85 -33.75 L50.5 -33.75 48.55 -37.2 47.6 -37.5 Q41.3 -38.05 36.0 -37.65 36.6 -39.85 37.9 -41.7 40.4 -45.25 40.5 -49.05 37.1 -51.0 33.45 -52.4 31.3 -53.2 30.4 -54.15 L30.55 -54.4 30.9 -55.3 Q32.7 -56.6 33.6 -58.45 L34.35 -59.05 34.5 -59.3 Q35.6 -60.65 35.3 -62.5 L32.7 -64.7 33.2 -64.9 33.8 -65.5 Q34.5 -65.55 34.85 -66.15 L34.9 -66.45 34.95 -67.9 33.8 -68.85 33.6 -69.4 Q32.75 -72.2 33.0 -75.2 L32.05 -75.95 22.75 -72.3 21.35 -74.6 20.9 -75.55 Q19.9 -78.45 17.25 -78.05 14.4 -73.45 9.95 -70.35 L9.5 -70.35 9.0 -70.65 6.95 -73.15 Q4.6 -76.4 1.9 -74.1 L1.9 -73.55 1.9 -70.1 Q4.1 -66.95 4.85 -63.45 4.0 -62.55 3.45 -61.45 L3.45 -61.15 3.45 -59.7 Q4.2 -58.1 5.75 -57.2 L8.8 -53.75 Q8.1 -52.7 7.1 -52.0 L-1.2 -46.05 -1.2 -45.75 -1.1 -44.6 Q2.35 -42.3 4.5 -38.85 L3.25 -37.4 Q-0.15 -36.2 -3.1 -34.2 L-3.1 -33.95 -3.0 -33.05 -2.15 -32.5 Q-0.35 -29.5 2.3 -27.0 L-3.45 -26.4 Q-5.5 -26.05 -6.85 -24.4 L-6.9 -24.15 Q-7.05 -23.3 -7.7 -22.7 L-7.7 -22.4 -7.7 -22.1 -8.75 -20.75 Q-10.75 -21.2 -12.5 -22.25 -16.0 -24.5 -18.75 -22.1 L-18.8 -21.8 -18.85 -21.55 -19.5 -20.95 Q-20.2 -19.0 -21.45 -17.2 -23.7 -19.25 -25.4 -22.1 L-25.5 -22.7 Q-25.65 -23.25 -26.25 -23.3 -31.35 -23.4 -35.4 -25.0 L-35.4 -25.55 -35.4 -31.05 Q-38.35 -32.6 -42.05 -32.7 L-41.75 -33.1 Q-37.45 -36.1 -33.45 -39.5 L-33.45 -40.1 -33.45 -41.8 Q-34.2 -43.4 -35.4 -44.7 L-35.45 -44.95 Q-35.55 -45.6 -35.2 -46.15 L-28.15 -51.15 -28.1 -51.45 -28.15 -52.3 -28.95 -53.1 -31.0 -54.6 Q-34.1 -57.15 -36.95 -55.0 L-36.95 -54.45 -37.05 -50.7 -37.35 -50.4 -37.35 -50.1 -37.35 -49.25 Q-41.15 -50.45 -43.5 -48.3 L-43.5 -47.4 Q-44.1 -44.25 -43.85 -40.85 L-48.85 -40.95 -49.55 -40.2 Q-49.95 -39.8 -49.95 -39.3 -49.9 -35.05 -52.4 -32.1 L-54.45 -33.4 Q-55.55 -34.25 -56.8 -34.55 L-58.7 -34.3 Q-60.55 -33.0 -62.0 -31.35 -62.95 -34.25 -64.8 -36.8 -65.4 -37.6 -66.3 -37.35 L-73.85 -35.45 Q-72.85 -39.35 -70.4 -42.7 -68.75 -44.95 -67.85 -47.5 -67.7 -48.0 -67.95 -48.4 -70.2 -51.8 -74.0 -53.55 L-63.15 -60.0 -63.1 -60.3 Q-63.0 -63.55 -64.6 -66.35 L-65.55 -67.5 Q-63.8 -68.55 -61.85 -69.2 L-57.7 -69.65 Q-55.0 -70.0 -55.0 -72.5 -56.35 -74.1 -57.3 -75.95 L-57.2 -76.2 -56.95 -76.5 Q-55.0 -76.45 -53.85 -77.85 L-53.85 -78.15 -53.85 -79.0 Q-56.05 -82.45 -59.6 -84.2 -55.8 -86.8 -53.85 -90.55 -55.9 -92.05 -58.35 -93.05 L-48.3 -94.7 Q-47.65 -94.75 -47.15 -95.15 -47.05 -95.45 -47.1 -95.7 -47.55 -98.65 -46.95 -101.5 L-45.1 -100.95 Q-42.15 -99.7 -39.0 -98.9 -38.1 -98.65 -37.5 -99.1 -34.2 -101.35 -30.95 -102.75 -28.45 -99.7 -27.0 -96.1 L-27.2 -95.8 -27.3 -94.95 Q-26.3 -93.7 -24.75 -93.45 -20.35 -92.6 -18.1 -97.05 -17.6 -96.9 -17.25 -96.55 -15.25 -94.55 -13.45 -95.9 L-13.45 -96.2 -13.0 -98.5 -12.7 -98.8 -12.3 -99.4 -12.25 -99.65 -11.15 -102.85" fill="#ffff00" fill-opacity="0.5019608" fill-rule="evenodd" stroke="none"/>
  </g>
</svg>
