<?xml version="1.0" encoding="UTF-8" standalone="no"?>
<svg xmlns:ffdec="https://www.free-decompiler.com/flash" xmlns:xlink="http://www.w3.org/1999/xlink" ffdec:objectType="shape" height="64.0px" width="147.35px" xmlns="http://www.w3.org/2000/svg">
  <g transform="matrix(1.0, 0.0, 0.0, 1.0, 64.45, 94.5)">
    <path d="M68.7 -76.6 L69.95 -78.2 Q70.45 -79.35 70.25 -80.65 67.8 -82.55 65.0 -84.05 59.75 -86.75 54.0 -87.1 L47.0 -87.4 52.95 -83.75 Q57.0 -81.0 59.3 -77.05 60.0 -75.9 59.45 -74.6 58.85 -73.2 57.75 -72.2 57.45 -70.3 56.55 -68.65 55.5 -66.8 53.9 -65.25 53.25 -62.9 52.25 -60.6 51.25 -58.4 50.6 -56.0 54.5 -54.3 58.35 -51.4 L59.05 -50.45 Q57.0 -45.1 50.55 -48.15 L45.7 -50.15 44.25 -51.0 Q44.2 -56.0 45.8 -60.75 47.4 -65.45 50.05 -69.5 L50.2 -70.1 50.25 -70.65 50.4 -71.25 51.55 -73.05 52.55 -74.7 Q44.7 -82.75 33.5 -87.75 24.05 -87.85 14.6 -87.6 1.8 -87.25 -9.8 -82.4 L-10.45 -81.9 -10.9 -81.6 Q-9.25 -79.55 -8.55 -76.5 -6.6 -68.0 -5.45 -59.6 -5.25 -58.25 -5.95 -57.0 -11.15 -48.55 -17.9 -41.2 -17.9 -40.35 -18.4 -39.55 L-19.45 -38.3 Q-15.35 -36.3 -16.75 -31.95 L-16.95 -31.4 Q-20.5 -29.05 -23.1 -32.95 -26.2 -29.4 -29.65 -32.55 -30.1 -39.35 -24.05 -43.65 -21.75 -45.35 -19.95 -47.5 -14.75 -53.9 -11.55 -61.05 -13.4 -69.75 -15.6 -78.2 -18.95 -75.6 -21.85 -72.5 -23.15 -71.15 -24.85 -70.25 L-25.2 -69.65 Q-26.2 -67.8 -28.5 -68.0 L-28.65 -68.05 Q-31.4 -66.2 -34.9 -66.15 L-34.75 -65.8 -40.3 -65.8 Q-44.3 -61.65 -47.9 -57.2 -48.0 -56.6 -48.25 -56.1 -48.9 -54.65 -50.25 -53.7 -50.7 -51.9 -52.05 -50.55 L-53.5 -48.5 Q-52.95 -46.8 -52.7 -45.05 -52.45 -43.55 -53.1 -42.15 -54.7 -40.5 -56.7 -41.55 L-58.1 -42.55 -58.25 -43.15 -58.35 -43.7 -58.5 -44.3 -58.7 -44.45 -61.6 -44.1 -62.85 -44.6 -64.3 -45.65 -64.4 -46.2 -64.45 -47.35 -64.45 -48.5 Q-62.5 -51.15 -58.7 -51.6 -52.75 -61.85 -44.45 -70.8 -46.9 -73.85 -46.85 -77.95 -46.9 -82.85 -43.4 -86.3 -40.0 -89.75 -35.05 -89.75 -30.15 -89.75 -26.7 -86.3 -24.1 -83.7 -23.45 -80.2 L-22.5 -80.95 Q-17.85 -84.4 -12.95 -87.5 -9.8 -89.45 -6.15 -90.3 L-5.55 -90.65 Q5.25 -93.55 16.15 -94.5 36.1 -94.3 55.95 -93.55 59.85 -93.35 63.4 -91.9 70.85 -88.85 76.95 -83.35 L77.2 -82.8 77.65 -80.45 Q77.6 -78.6 76.0 -77.6 L75.95 -77.0 75.25 -75.4 73.7 -73.55 73.6 -73.0 71.3 -65.3 Q70.35 -61.95 68.7 -58.7 L68.7 -58.6 81.3 -57.35 Q82.7 -57.15 82.85 -55.65 83.2 -52.5 80.05 -51.8 L78.7 -52.05 62.6 -53.45 Q61.85 -53.55 61.2 -54.1 61.1 -54.4 61.15 -54.65 62.6 -60.8 65.0 -66.75 66.9 -71.3 68.1 -76.05 L68.7 -76.6" fill="#000000" fill-rule="evenodd" stroke="none"/>
  </g>
</svg>
