<?xml version="1.0" encoding="UTF-8" standalone="no"?>
<svg xmlns:ffdec="https://www.free-decompiler.com/flash" xmlns:xlink="http://www.w3.org/1999/xlink" ffdec:objectType="shape" height="129.8px" width="168.9px" xmlns="http://www.w3.org/2000/svg">
  <g transform="matrix(1.0, 0.0, 0.0, 1.0, 60.0, 143.3)">
    <path d="M12.9 -127.6 Q12.15 -125.75 11.8 -123.8 L11.65 -123.55 11.45 -123.25 11.4 -122.95 11.55 -122.1 Q11.95 -121.85 12.4 -121.85 18.65 -122.25 22.95 -118.55 L18.75 -115.45 18.7 -114.9 18.85 -112.85 19.7 -112.3 23.15 -108.55 Q21.2 -107.65 19.9 -105.95 L19.85 -105.65 Q19.85 -105.2 20.0 -104.8 27.95 -103.1 35.75 -101.9 L35.7 -101.45 35.55 -100.6 35.35 -100.25 34.85 -99.4 34.85 -98.85 34.95 -97.05 43.3 -96.8 43.3 -96.2 43.3 -94.2 44.5 -91.05 Q44.8 -89.95 45.8 -90.0 52.35 -90.4 58.3 -89.95 L58.15 -89.4 Q57.8 -86.35 57.9 -83.05 58.35 -82.2 59.25 -82.15 L65.6 -81.8 65.6 -81.05 Q65.75 -77.15 66.45 -73.25 L67.3 -73.05 Q72.65 -73.55 77.1 -72.4 L77.1 -72.1 77.1 -71.5 76.95 -71.25 76.75 -70.95 76.75 -70.35 Q76.55 -67.1 77.2 -64.05 L84.8 -61.8 84.8 -61.35 Q84.55 -57.75 85.65 -54.45 90.85 -53.05 96.25 -52.3 L96.4 -51.45 97.2 -43.65 Q98.95 -42.85 100.95 -42.6 101.6 -41.65 102.75 -41.55 106.25 -39.0 108.9 -35.3 L108.75 -35.0 107.85 -33.6 107.85 -32.7 108.25 -25.35 Q104.7 -25.05 102.3 -22.25 100.7 -21.85 100.55 -20.25 L100.15 -19.95 99.7 -19.95 Q96.9 -22.7 93.05 -23.1 L92.05 -22.9 Q89.75 -21.35 88.35 -18.9 L88.3 -18.6 88.15 -18.05 Q86.7 -18.4 85.65 -19.8 84.35 -21.5 82.5 -22.4 78.4 -24.4 75.6 -20.35 L75.55 -20.05 Q74.9 -17.9 73.85 -16.0 L73.5 -15.8 Q73.1 -15.4 72.7 -15.55 L71.35 -16.7 70.5 -17.0 Q65.35 -17.5 61.65 -13.5 L60.8 -14.1 Q59.5 -15.4 57.5 -15.85 L49.45 -17.35 Q50.8 -18.15 51.75 -19.35 L51.8 -19.95 51.7 -21.1 Q47.4 -24.0 43.5 -27.15 45.0 -27.95 46.0 -29.35 L46.05 -29.95 Q46.15 -30.75 45.7 -31.4 41.95 -33.9 38.5 -36.55 L38.6 -36.85 Q39.0 -38.25 39.65 -39.45 L44.3 -43.2 44.4 -43.5 44.85 -44.35 44.8 -44.9 Q44.7 -45.7 43.95 -45.8 39.9 -46.5 36.0 -47.8 35.05 -50.0 35.1 -52.4 35.2 -59.0 33.35 -65.1 L32.85 -65.4 25.65 -65.0 Q24.35 -68.9 24.2 -73.05 24.15 -73.8 23.55 -73.9 18.5 -75.3 15.3 -70.65 L14.9 -70.65 Q9.05 -75.55 2.4 -78.9 1.8 -78.9 1.45 -78.35 L1.45 -77.75 1.45 -76.05 1.7 -75.75 1.85 -75.45 1.8 -75.15 Q1.75 -74.15 2.5 -73.45 L2.6 -73.15 Q3.15 -71.5 4.15 -70.0 L3.75 -70.0 1.85 -71.4 Q-0.85 -73.75 -3.55 -72.6 -3.6 -71.8 -3.8 -71.1 -4.95 -66.4 -5.1 -61.35 L-5.45 -61.05 Q-8.65 -60.4 -11.1 -62.4 -11.75 -62.95 -12.5 -63.0 -19.7 -63.95 -23.15 -57.5 L-23.15 -57.2 -23.15 -56.65 -23.3 -56.35 -23.7 -55.5 -24.1 -55.35 -24.4 -55.4 -30.65 -63.15 Q-34.85 -64.8 -39.25 -62.95 -42.65 -61.55 -45.4 -61.75 L-45.4 -62.0 Q-45.35 -62.6 -45.6 -63.15 L-46.2 -63.75 Q-47.35 -68.2 -51.75 -69.55 -54.5 -70.4 -55.7 -71.5 -54.7 -72.1 -53.95 -72.95 -54.35 -76.1 -56.4 -78.9 L-60.0 -84.2 -59.65 -84.5 -51.0 -84.95 Q-50.6 -84.95 -50.4 -85.3 -48.0 -89.2 -48.0 -94.1 L-43.2 -92.3 Q-40.3 -91.05 -37.8 -89.0 -35.0 -86.75 -32.75 -88.9 L-32.7 -89.75 Q-32.35 -94.4 -31.2 -98.75 L-31.0 -99.05 -30.8 -99.35 -30.8 -99.6 -30.8 -100.5 -31.0 -100.75 -31.4 -101.65 -33.7 -103.55 Q-31.4 -104.3 -29.65 -105.85 L-29.75 -106.4 -30.9 -111.05 -31.1 -111.3 -31.4 -111.6 -30.8 -112.2 -26.8 -112.0 Q-25.85 -111.95 -25.45 -112.75 L-25.45 -113.05 -25.45 -113.9 Q-26.75 -115.9 -28.4 -117.6 -30.6 -119.95 -33.45 -121.3 L-37.75 -123.35 -37.75 -123.6 -37.75 -123.9 Q-39.25 -125.4 -39.95 -127.35 L-37.65 -126.8 Q-34.45 -125.45 -31.5 -126.9 L-31.35 -127.2 -30.55 -128.35 -30.45 -128.6 Q-30.25 -129.4 -29.65 -130.05 L-29.65 -130.35 Q-29.6 -132.9 -28.4 -135.25 -27.6 -135.65 -27.1 -136.4 L-25.35 -136.3 Q-24.25 -135.65 -22.95 -135.35 -21.0 -133.15 -19.1 -135.8 L-19.05 -136.1 Q-18.7 -140.05 -16.7 -143.3 L-13.35 -141.4 -13.2 -141.25 Q-12.0 -140.15 -11.9 -138.6 -11.4 -138.25 -11.25 -137.75 L-11.25 -137.45 -11.25 -136.9 -11.0 -136.6 -10.45 -135.7 -10.65 -135.45 -10.85 -135.15 -10.85 -134.85 -10.95 -134.0 -11.15 -133.7 -11.25 -133.15 Q-9.1 -131.85 -6.35 -133.9 -3.7 -135.85 -1.25 -136.0 L-1.25 -135.45 Q-1.3 -132.2 -0.85 -129.1 L-0.45 -128.5 -0.1 -128.25 Q4.45 -128.1 9.05 -129.4 L14.05 -130.15 13.75 -129.85 13.75 -129.6 Q13.75 -128.55 12.95 -127.85 L12.9 -127.6" fill="#ffff00" fill-opacity="0.5019608" fill-rule="evenodd" stroke="none"/>
  </g>
</svg>
