<?xml version="1.0" encoding="UTF-8" standalone="no"?>
<svg xmlns:ffdec="https://www.free-decompiler.com/flash" xmlns:xlink="http://www.w3.org/1999/xlink" ffdec:objectType="shape" height="104.35px" width="143.65px" xmlns="http://www.w3.org/2000/svg">
  <g transform="matrix(1.0, 0.0, 0.0, 1.0, 43.8, 129.85)">
    <path d="M4.8 -108.3 Q-6.15 -118.6 -21.3 -121.1 -22.05 -121.2 -22.7 -121.8 L-22.85 -122.95 -22.9 -124.65 -22.1 -125.8 -21.55 -126.4 -21.4 -127.0 -21.35 -127.55 -21.2 -128.15 Q-20.6 -129.25 -19.45 -129.65 L-18.5 -129.85 Q-15.25 -129.8 -14.45 -126.6 L-14.25 -126.0 Q-0.15 -121.25 10.65 -111.05 11.6 -110.15 11.3 -108.65 9.85 -101.75 7.0 -95.8 17.85 -95.1 28.1 -91.85 34.6 -89.85 39.45 -85.8 L44.75 -81.0 Q57.25 -75.75 67.45 -66.0 L67.7 -65.55 Q72.8 -62.6 76.3 -58.0 77.3 -56.75 77.55 -55.15 L79.7 -51.7 Q80.5 -50.35 80.6 -48.8 82.15 -47.45 82.75 -45.45 83.25 -43.8 82.9 -41.9 91.95 -42.6 99.2 -38.5 99.85 -38.2 99.85 -37.25 98.3 -33.6 93.8 -34.2 L80.9 -36.15 Q76.85 -36.8 76.4 -41.05 76.05 -45.0 73.95 -48.55 73.25 -49.65 73.3 -50.9 70.05 -55.65 65.9 -59.25 64.2 -60.7 62.9 -62.45 57.05 -67.15 50.75 -71.35 L52.2 -68.85 52.9 -67.1 54.0 -65.85 54.3 -65.35 54.6 -64.75 54.85 -64.2 Q55.25 -63.4 55.2 -62.45 57.45 -59.5 58.6 -55.55 61.35 -46.25 61.35 -36.5 L61.35 -34.2 Q64.9 -34.45 68.65 -33.0 L73.4 -31.05 Q76.05 -29.85 74.75 -27.1 74.05 -25.65 72.35 -25.5 L67.75 -26.35 66.4 -26.75 65.6 -27.25 Q61.5 -27.45 57.2 -28.4 56.75 -28.5 56.4 -28.8 L55.8 -29.35 Q55.45 -33.65 55.25 -38.0 54.6 -50.45 49.45 -61.7 L48.5 -62.85 48.1 -63.45 47.75 -64.05 47.45 -64.55 46.55 -65.75 46.4 -66.3 46.3 -66.9 46.15 -67.45 45.0 -68.6 44.5 -69.25 44.25 -69.8 44.1 -70.35 44.05 -71.5 Q42.35 -74.25 40.15 -76.5 32.85 -84.05 23.25 -88.05 L5.3 -89.55 Q-3.15 -79.85 -14.35 -73.95 -17.35 -72.4 -20.95 -71.85 L-42.25 -68.9 Q-42.85 -68.8 -43.5 -69.4 -43.85 -70.5 -43.8 -71.7 L-43.5 -73.45 Q-42.8 -74.8 -41.45 -75.3 -41.1 -75.45 -40.8 -75.75 L-40.65 -76.35 -40.55 -76.9 -40.45 -77.5 Q-35.85 -83.25 -33.4 -77.25 L-33.3 -76.9 Q-22.25 -76.45 -12.55 -81.4 -11.2 -82.1 -10.0 -83.2 L-2.3 -90.0 -3.9 -90.05 Q-7.05 -87.55 -11.15 -87.45 L-11.0 -87.1 -18.95 -87.1 -18.85 -87.5 -18.75 -88.1 -18.25 -89.7 -19.7 -90.9 Q-23.15 -94.4 -23.15 -99.3 -23.15 -104.2 -19.7 -107.65 -16.25 -111.1 -11.35 -111.1 -6.45 -111.1 -3.0 -107.65 0.45 -104.2 0.45 -99.3 0.45 -97.25 -0.1 -95.45 L1.5 -95.95 1.85 -95.95 Q1.85 -99.05 2.55 -102.1 3.3 -105.35 4.8 -108.3" fill="#000000" fill-rule="evenodd" stroke="none"/>
  </g>
</svg>
