<?xml version="1.0" encoding="UTF-8" standalone="no"?>
<svg xmlns:ffdec="https://www.free-decompiler.com/flash" xmlns:xlink="http://www.w3.org/1999/xlink" ffdec:objectType="shape" height="144.7px" width="116.1px" xmlns="http://www.w3.org/2000/svg">
  <g transform="matrix(1.0, 0.0, 0.0, 1.0, 18.0, 138.2)">
    <path d="M32.2 -138.2 L32.75 -138.2 37.85 -132.6 Q38.15 -132.2 38.55 -132.2 43.1 -132.15 47.35 -133.45 L47.35 -132.9 Q47.05 -129.3 47.1 -125.7 51.15 -124.2 54.3 -121.55 L50.8 -118.4 50.8 -118.1 50.8 -116.1 Q54.55 -112.9 58.4 -110.6 56.6 -110.05 55.45 -108.6 L55.45 -108.3 55.45 -107.75 Q56.65 -105.65 58.1 -103.65 L58.1 -103.35 58.1 -103.05 59.3 -101.65 59.3 -101.35 59.3 -101.05 Q60.7 -100.1 61.3 -98.45 59.05 -97.35 57.75 -95.3 57.75 -94.5 58.0 -93.65 59.45 -89.45 60.45 -84.9 L57.25 -85.45 Q53.85 -86.55 51.6 -84.45 L51.6 -84.15 51.5 -83.3 51.2 -83.0 45.25 -82.8 45.15 -82.5 45.05 -80.8 Q47.95 -78.8 50.45 -76.3 L50.45 -76.0 50.45 -75.7 50.8 -75.15 50.8 -74.85 50.8 -74.55 51.2 -73.95 51.2 -73.7 51.3 -71.1 Q51.45 -70.95 51.6 -70.95 L59.15 -70.35 Q60.7 -70.25 61.85 -69.25 L61.95 -69.05 61.95 -68.5 62.35 -67.9 62.35 -67.65 62.45 -66.75 71.2 -65.35 Q71.8 -64.55 72.7 -64.25 L72.7 -64.1 72.7 -60.05 Q74.95 -58.45 78.1 -58.35 84.85 -58.2 90.4 -54.95 L90.4 -54.65 90.3 -54.1 Q89.0 -52.15 87.3 -50.35 L87.3 -50.05 Q87.2 -49.25 87.5 -48.6 90.75 -47.8 92.7 -45.55 L91.75 -44.6 90.95 -43.7 Q87.4 -39.15 88.1 -33.45 90.1 -31.7 92.7 -31.15 L93.1 -30.65 93.1 -30.35 93.1 -30.1 93.45 -29.5 Q93.85 -27.2 92.4 -25.45 91.9 -23.9 90.8 -22.6 L90.75 -22.3 90.85 -21.45 91.75 -20.85 98.1 -14.25 92.5 -13.8 92.1 -13.65 Q91.8 -12.7 91.95 -11.65 92.75 -6.25 91.85 -1.0 L91.35 -1.0 85.85 -5.6 Q81.75 -8.7 79.25 -4.65 79.35 -3.3 78.5 -2.35 78.35 -1.25 77.7 -0.3 L77.7 0.0 77.7 0.25 77.25 0.85 Q76.2 1.1 75.5 0.3 72.6 -2.9 69.25 -0.45 L59.75 6.5 Q59.0 5.8 58.9 4.8 57.75 2.95 55.6 2.6 L46.1 3.0 Q43.95 3.6 42.75 2.95 42.75 2.45 43.15 2.1 L43.15 1.8 43.05 0.35 Q36.9 -3.65 30.25 -7.15 30.7 -7.65 31.4 -7.8 34.95 -8.6 33.3 -11.6 31.55 -14.95 28.55 -17.4 L28.55 -17.7 28.65 -18.55 32.75 -21.75 32.75 -22.0 32.75 -22.3 33.35 -23.1 Q33.95 -24.1 33.6 -25.05 32.5 -28.2 28.95 -29.6 L29.9 -30.75 31.05 -31.35 31.35 -31.9 Q34.0 -32.85 35.35 -35.35 L35.45 -35.95 Q35.5 -36.4 35.2 -36.6 31.55 -39.3 27.0 -40.85 26.7 -43.45 28.55 -45.15 L28.55 -45.45 28.55 -45.75 Q29.5 -46.65 29.4 -48.05 30.5 -49.55 30.0 -51.5 29.8 -52.3 29.2 -52.3 L19.5 -53.3 19.25 -56.2 Q18.85 -61.8 18.95 -67.45 L18.45 -67.75 Q13.05 -68.25 10.0 -63.4 3.4 -62.55 0.0 -56.9 -6.3 -58.95 -12.35 -62.15 -11.8 -62.5 -11.5 -63.0 L-11.45 -63.3 -11.4 -64.75 Q-14.35 -68.25 -17.85 -71.1 -18.15 -71.85 -17.75 -72.55 L-14.1 -75.15 Q-13.8 -79.5 -17.15 -82.05 L-14.1 -83.4 Q-13.1 -83.4 -12.35 -83.95 L-12.3 -84.25 Q-12.0 -85.25 -12.35 -86.25 L-13.25 -86.85 -14.3 -88.85 -15.25 -89.7 -15.25 -90.0 -15.35 -90.3 -16.4 -91.45 -16.4 -91.75 -16.4 -92.05 Q-17.7 -93.2 -17.55 -94.6 L-15.8 -95.0 Q-9.8 -95.95 -10.65 -102.0 -13.0 -105.55 -14.0 -109.25 L-8.95 -109.75 Q-8.3 -109.85 -8.05 -110.4 L-7.95 -111.3 Q-8.75 -116.3 -10.15 -121.1 -7.65 -121.0 -5.6 -119.25 -3.1 -117.15 0.3 -117.25 2.0 -117.25 2.5 -118.85 3.25 -119.1 3.55 -119.75 L3.6 -120.0 3.95 -126.85 Q4.85 -126.05 5.9 -125.4 L5.9 -125.1 6.0 -124.85 Q6.4 -124.4 7.05 -124.25 11.05 -120.65 14.45 -125.0 L14.9 -125.8 15.6 -125.1 Q17.55 -122.1 20.55 -122.35 L20.75 -122.9 20.85 -131.85 21.9 -131.85 Q24.55 -130.25 27.6 -129.65 28.75 -128.45 30.2 -129.25 30.55 -129.75 30.45 -130.4 30.9 -130.8 31.0 -131.3 L32.2 -138.2" fill="#ffff00" fill-opacity="0.5019608" fill-rule="evenodd" stroke="none"/>
  </g>
</svg>
