<?xml version="1.0" encoding="UTF-8" standalone="no"?>
<svg xmlns:ffdec="https://www.free-decompiler.com/flash" xmlns:xlink="http://www.w3.org/1999/xlink" ffdec:objectType="shape" height="120.05px" width="90.05px" xmlns="http://www.w3.org/2000/svg">
  <g transform="matrix(1.0, 0.0, 0.0, 1.0, 4.6, 126.95)">
    <path d="M36.4 -126.85 Q39.5 -127.4 40.6 -124.7 L40.8 -124.15 Q43.9 -118.15 44.25 -110.9 L44.65 -103.9 Q46.7 -100.4 46.95 -95.8 47.05 -94.3 46.4 -92.9 44.7 -91.25 42.9 -92.15 40.1 -90.85 37.1 -90.05 33.0 -89.0 28.7 -88.55 32.75 -85.35 36.05 -80.9 L36.2 -80.4 Q38.95 -76.9 41.05 -72.8 42.7 -69.55 43.1 -66.0 L44.5 -64.05 Q49.4 -62.35 54.25 -59.7 60.25 -56.45 65.45 -53.1 70.6 -51.45 74.85 -47.9 76.85 -42.4 76.55 -36.35 76.2 -30.3 76.2 -24.2 78.35 -21.85 83.15 -21.85 84.25 -21.85 84.85 -20.75 L85.45 -19.6 Q83.4 -14.15 76.25 -16.7 72.95 -17.85 70.65 -20.35 70.3 -26.1 70.65 -31.9 71.05 -38.2 69.5 -44.05 L61.1 -49.15 60.85 -49.45 Q54.85 -51.95 49.3 -55.05 51.35 -50.85 51.4 -45.4 L51.4 -21.15 Q51.35 -18.4 51.6 -15.55 59.35 -14.3 66.6 -11.6 67.45 -11.3 67.75 -10.35 67.15 -6.1 62.65 -7.05 55.6 -8.55 48.7 -8.65 47.65 -9.1 46.65 -9.7 L46.0 -10.15 Q46.3 -30.65 43.55 -50.5 43.35 -51.9 43.3 -53.45 L43.3 -53.5 41.35 -54.8 Q40.2 -56.0 40.45 -57.7 L40.15 -58.25 39.65 -58.85 39.1 -59.45 38.95 -60.0 38.9 -60.6 38.9 -61.15 38.9 -61.75 38.5 -62.3 37.95 -62.95 37.55 -63.5 Q37.1 -67.55 35.1 -70.9 33.15 -74.35 30.6 -77.35 L30.45 -77.9 30.4 -78.5 30.25 -79.05 Q25.0 -84.15 18.75 -87.6 L13.85 -83.3 Q12.9 -80.9 11.5 -78.6 L11.0 -77.55 Q5.9 -72.1 0.6 -67.2 0.0 -66.65 -1.05 -67.05 -1.8 -67.35 -2.5 -67.9 -6.35 -77.2 -3.2 -86.2 -2.75 -87.5 -1.35 -87.6 2.75 -88.05 3.1 -84.25 2.8 -83.35 2.1 -82.55 L1.0 -81.4 1.45 -79.05 1.55 -77.35 Q4.85 -79.85 6.95 -83.6 L7.9 -84.85 8.05 -85.4 8.15 -86.0 8.3 -86.55 Q10.15 -88.85 12.3 -90.65 L11.9 -90.85 10.75 -90.75 10.9 -90.4 2.95 -90.4 3.05 -90.8 3.15 -91.4 3.65 -93.0 2.2 -94.2 Q-1.25 -97.65 -1.25 -102.55 -1.25 -107.5 2.2 -110.95 5.65 -114.4 10.55 -114.4 15.45 -114.4 18.9 -110.95 22.35 -107.5 22.35 -102.55 22.35 -98.4 19.85 -95.25 20.85 -95.25 21.55 -94.85 L23.3 -95.05 Q32.15 -95.2 40.25 -97.4 37.9 -106.15 37.55 -115.3 L37.15 -118.2 Q35.4 -118.75 33.55 -119.8 L32.9 -120.3 Q32.6 -121.15 32.6 -122.05 32.6 -123.2 32.9 -124.35 L33.95 -125.45 35.05 -126.45 35.45 -126.6 36.35 -126.75 36.4 -126.85" fill="#000000" fill-rule="evenodd" stroke="none"/>
  </g>
</svg>
