<?xml version="1.0" encoding="UTF-8" standalone="no"?>
<svg xmlns:ffdec="https://www.free-decompiler.com/flash" xmlns:xlink="http://www.w3.org/1999/xlink" ffdec:objectType="shape" height="152.2px" width="106.9px" xmlns="http://www.w3.org/2000/svg">
  <g transform="matrix(1.0, 0.0, 0.0, 1.0, 22.0, 136.4)">
    <path d="M24.95 -129.2 L25.15 -128.9 Q25.65 -128.1 26.3 -127.45 26.5 -126.8 27.1 -126.55 L31.1 -126.7 31.1 -126.4 31.1 -126.1 33.1 -123.2 Q34.75 -120.45 37.05 -120.85 37.35 -121.65 37.25 -122.55 37.0 -124.45 38.0 -125.95 L39.25 -124.8 Q41.65 -122.1 44.65 -122.3 L44.85 -122.55 45.05 -122.85 Q46.95 -123.35 48.35 -124.7 49.95 -126.35 51.45 -126.4 L51.45 -123.25 51.55 -117.5 Q56.2 -116.95 60.7 -115.35 63.95 -114.2 65.95 -112.1 63.95 -111.65 62.6 -110.3 L61.7 -109.9 59.8 -108.75 59.8 -108.15 59.8 -107.6 60.1 -107.3 64.05 -103.55 Q59.25 -102.6 55.7 -99.7 55.6 -98.8 56.15 -98.05 L61.85 -91.05 Q57.9 -91.3 55.3 -88.65 L55.3 -88.4 55.3 -88.1 Q54.2 -86.55 54.35 -84.6 54.6 -81.35 54.45 -78.2 L54.05 -78.3 51.6 -77.95 Q45.7 -74.75 41.45 -69.75 41.55 -72.95 40.45 -75.85 L40.0 -76.45 Q35.8 -78.85 33.0 -75.15 L33.0 -73.95 33.1 -72.55 34.0 -71.85 35.6 -69.95 35.65 -69.35 35.6 -68.8 34.85 -67.65 33.8 -65.9 33.75 -65.35 Q33.75 -64.9 33.9 -64.45 L39.95 -61.95 39.9 -60.35 40.05 -58.3 40.9 -58.0 47.25 -57.35 47.5 -55.65 47.7 -53.3 50.3 -53.4 Q54.4 -55.2 58.75 -55.75 L58.55 -52.85 Q58.2 -50.45 58.45 -47.95 66.3 -47.65 73.45 -44.5 L73.1 -43.45 72.3 -41.3 71.05 -40.45 71.05 -40.15 71.05 -39.9 70.45 -39.25 Q69.95 -38.6 69.9 -37.85 73.25 -36.5 76.05 -34.0 L76.1 -32.85 75.95 -31.45 75.55 -31.15 72.2 -28.45 72.2 -27.6 72.3 -26.45 72.6 -26.2 Q75.6 -24.4 77.95 -21.9 L77.65 -21.35 Q76.9 -19.95 75.55 -19.05 L75.55 -18.45 75.65 -17.6 Q80.25 -15.3 83.75 -11.85 L78.75 -8.65 78.75 -8.4 78.85 -8.1 79.3 -7.55 Q81.9 -4.65 84.5 -2.35 L84.25 -2.0 84.1 -1.75 84.1 0.85 Q84.0 3.25 84.9 5.45 L84.6 6.05 84.1 6.9 Q81.65 6.4 79.45 5.1 L77.4 5.2 Q75.4 6.85 74.5 9.2 L74.35 10.1 Q74.1 10.95 73.35 11.5 L73.35 12.05 73.25 12.35 73.0 12.65 72.85 13.55 71.8 14.95 71.7 15.55 71.65 15.8 67.45 10.15 Q67.05 9.55 66.3 9.45 62.2 8.9 59.05 12.1 L58.65 11.9 57.9 11.6 57.5 11.1 56.85 10.25 56.85 9.7 56.85 9.4 Q56.15 8.3 54.75 8.45 53.5 7.0 51.65 6.4 L49.65 6.5 Q46.55 8.15 45.3 11.6 L44.65 12.25 43.0 14.2 42.55 14.2 42.05 13.9 41.85 13.6 Q41.25 12.5 40.05 11.9 36.75 8.65 32.35 11.3 30.05 12.65 28.2 12.55 L27.75 11.1 Q26.8 8.4 24.55 6.5 L24.55 6.2 24.55 5.95 Q23.4 4.95 21.75 4.9 16.7 4.65 11.8 3.55 L12.45 3.15 12.65 3.05 13.05 2.55 13.25 2.3 Q14.65 1.85 15.35 0.55 L15.35 0.0 Q15.4 -1.05 15.0 -1.9 L11.9 -8.1 12.7 -8.45 Q18.4 -9.4 23.6 -11.75 L23.75 -12.3 23.8 -12.9 23.3 -13.45 16.9 -19.8 16.85 -20.95 17.0 -22.7 21.0 -26.15 21.1 -26.7 21.2 -27.3 Q21.7 -27.8 21.8 -28.45 22.0 -29.35 21.7 -30.2 21.4 -30.45 21.25 -30.8 L20.55 -31.45 10.75 -34.8 11.1 -35.3 12.3 -36.8 12.85 -37.2 15.65 -40.0 15.7 -40.55 15.75 -41.15 15.95 -41.4 16.1 -41.7 16.1 -42.0 16.1 -42.3 16.3 -42.55 16.5 -42.85 Q16.4 -43.65 16.65 -44.3 17.0 -45.25 16.9 -46.3 L16.35 -46.65 Q13.1 -47.4 10.75 -49.0 L10.9 -49.55 Q11.25 -50.2 11.15 -51.0 L11.35 -51.3 11.8 -51.9 Q12.2 -53.9 13.0 -55.75 14.7 -59.6 14.2 -64.0 13.95 -64.25 13.7 -64.3 L6.15 -64.55 6.25 -66.45 Q6.8 -70.2 3.45 -69.95 L2.35 -68.25 Q0.35 -65.3 -1.95 -62.85 L-2.05 -63.4 -2.15 -63.95 Q-1.85 -66.15 -3.75 -66.75 L-10.2 -67.0 -16.5 -66.75 -16.55 -67.05 -16.4 -67.3 -15.75 -68.2 -15.75 -68.5 -15.75 -68.8 -15.15 -70.25 Q-14.95 -71.05 -15.3 -71.8 -17.65 -76.2 -22.0 -79.15 -17.55 -78.55 -15.0 -81.65 L-14.95 -82.8 -14.7 -84.35 Q-14.0 -86.7 -14.3 -89.15 L-14.75 -89.75 -15.0 -90.3 Q-11.2 -89.1 -8.85 -91.25 L-8.85 -91.55 -8.85 -91.85 -8.65 -92.1 -8.45 -92.4 Q-8.35 -93.75 -8.75 -95.0 L-10.1 -99.9 Q-8.6 -100.0 -7.35 -100.6 -4.35 -102.0 -5.0 -105.65 L-4.65 -106.25 Q-4.25 -106.95 -4.15 -107.7 L-3.55 -107.9 Q-1.85 -108.15 -0.6 -109.05 1.5 -110.55 -0.3 -113.25 -1.1 -113.6 -1.35 -114.4 -1.7 -115.35 -1.55 -116.4 2.5 -116.4 2.55 -119.95 2.7 -126.15 3.65 -132.1 L4.0 -132.25 8.0 -129.2 Q10.2 -127.55 12.65 -127.55 L13.3 -128.15 19.2 -134.4 19.8 -134.75 21.9 -136.4 Q22.8 -136.05 22.95 -134.65 23.3 -131.95 24.95 -129.75 L24.95 -129.5 24.95 -129.2" fill="#ffff00" fill-opacity="0.5019608" fill-rule="evenodd" stroke="none"/>
  </g>
</svg>
