<?xml version="1.0" encoding="UTF-8" standalone="no"?>
<svg xmlns:ffdec="https://www.free-decompiler.com/flash" xmlns:xlink="http://www.w3.org/1999/xlink" ffdec:objectType="shape" height="121.7px" width="82.75px" xmlns="http://www.w3.org/2000/svg">
  <g transform="matrix(1.0, 0.0, 0.0, 1.0, 6.7, 121.1)">
    <path d="M13.5 -117.65 Q16.95 -121.1 21.85 -121.1 26.75 -121.1 30.2 -117.65 33.65 -114.2 33.65 -109.3 33.65 -104.4 30.2 -100.95 26.8 -97.55 22.05 -97.5 L22.2 -97.15 22.15 -97.15 22.55 -95.4 Q24.25 -97.05 28.15 -94.35 32.0 -91.65 36.35 -90.0 37.85 -89.45 39.15 -88.5 43.55 -97.15 42.7 -107.75 L42.6 -109.45 42.2 -110.0 41.7 -110.65 41.3 -111.2 Q40.95 -112.3 41.1 -113.5 41.3 -114.95 42.6 -115.65 L43.0 -115.75 43.95 -115.9 43.95 -116.0 Q50.05 -115.05 48.95 -108.05 48.4 -104.65 48.25 -101.2 47.85 -91.4 43.95 -82.15 38.25 -80.0 32.4 -84.3 30.0 -86.1 27.2 -87.3 24.9 -88.25 23.05 -89.85 L23.0 -86.95 Q26.05 -78.15 27.6 -68.6 28.35 -63.85 29.9 -59.45 35.75 -56.2 41.0 -51.7 44.15 -48.95 47.8 -46.8 55.15 -42.5 60.15 -36.65 60.7 -35.95 60.8 -34.8 61.7 -21.45 63.8 -8.25 68.5 -5.4 75.25 -4.3 75.9 -4.2 76.0 -3.25 76.4 -0.05 73.2 0.6 65.0 0.7 58.2 -3.25 57.5 -12.35 56.3 -21.2 55.45 -27.25 54.95 -33.25 46.85 -40.8 36.95 -46.85 L31.4 -50.6 31.45 -50.0 31.45 -49.45 Q34.65 -41.6 36.45 -33.2 37.7 -27.6 36.55 -21.65 35.95 -18.45 33.95 -15.95 32.85 -10.9 32.15 -5.85 L43.75 -5.1 Q44.85 -5.0 45.1 -3.8 L45.3 -2.65 Q44.7 -0.45 42.45 -0.4 L31.45 -0.75 Q29.7 1.95 25.9 -0.95 25.3 -8.4 27.65 -15.5 28.0 -16.5 28.0 -17.7 L28.25 -18.2 29.35 -19.4 Q32.1 -27.15 29.7 -34.85 29.35 -36.0 29.55 -37.3 26.8 -45.35 24.3 -53.5 24.15 -54.05 24.15 -54.65 L24.2 -54.75 Q20.5 -67.45 18.85 -80.6 L18.75 -82.35 18.5 -82.85 17.4 -84.05 16.4 -91.2 8.1 -84.1 Q2.25 -78.8 -4.25 -74.9 -4.8 -74.55 -5.8 -75.1 L-6.45 -75.6 Q-6.8 -77.3 -6.7 -79.05 L-6.65 -80.8 Q-3.1 -85.65 -1.25 -91.2 -0.4 -93.7 2.2 -94.65 4.3 -98.85 8.55 -99.85 11.4 -99.4 11.45 -96.6 L11.45 -96.0 Q12.95 -97.35 14.45 -98.0 L14.45 -98.15 14.95 -99.7 Q14.2 -100.25 13.5 -100.95 10.05 -104.4 10.05 -109.3 10.05 -114.2 13.5 -117.65" fill="#000000" fill-rule="evenodd" stroke="none"/>
  </g>
</svg>
