<?xml version="1.0" encoding="UTF-8" standalone="no"?>
<svg xmlns:ffdec="https://www.free-decompiler.com/flash" xmlns:xlink="http://www.w3.org/1999/xlink" ffdec:objectType="shape" height="134.35px" width="98.9px" xmlns="http://www.w3.org/2000/svg">
  <g transform="matrix(1.0, 0.0, 0.0, 1.0, 12.0, 121.05)">
    <path d="M17.75 -99.0 L17.75 -99.55 17.75 -101.6 Q19.85 -102.1 21.2 -103.6 21.4 -104.7 21.0 -105.65 19.75 -109.05 17.45 -111.95 18.85 -112.2 19.9 -112.9 23.05 -115.1 22.95 -119.25 L24.0 -119.65 Q26.15 -118.25 28.6 -117.7 33.3 -114.6 36.5 -119.55 L36.55 -119.85 36.7 -120.4 36.95 -120.7 37.15 -121.0 37.3 -121.0 Q37.85 -120.65 37.75 -120.0 L37.95 -119.75 39.65 -117.45 39.65 -117.15 39.65 -116.85 Q40.35 -115.9 41.4 -115.75 42.55 -115.55 43.3 -116.15 L46.95 -118.8 48.7 -118.7 49.3 -117.25 Q50.3 -115.25 50.1 -112.9 51.5 -111.9 53.4 -112.25 L53.6 -111.75 Q54.05 -110.7 54.65 -109.75 L54.65 -109.45 54.65 -109.15 55.4 -108.3 55.4 -108.0 55.4 -107.75 Q56.15 -106.25 57.5 -105.5 L57.9 -105.65 58.2 -105.8 58.35 -106.1 58.55 -106.95 59.05 -107.15 59.65 -107.75 61.55 -108.8 62.2 -108.2 Q63.9 -106.4 63.85 -103.9 L64.55 -103.05 64.6 -102.75 64.7 -102.15 71.45 -101.8 70.1 -100.05 70.0 -99.75 69.9 -99.2 69.25 -98.3 69.25 -98.05 69.25 -96.9 75.2 -92.1 Q71.4 -91.1 68.1 -89.2 L68.05 -88.9 Q67.95 -88.15 68.25 -87.45 L68.6 -87.15 71.15 -83.45 Q67.7 -83.2 65.0 -81.5 64.8 -79.75 65.4 -78.05 66.8 -74.35 67.2 -70.65 L66.35 -70.65 Q62.75 -72.9 59.35 -70.45 L59.25 -70.2 Q59.15 -69.2 58.5 -68.45 L58.35 -67.65 Q57.95 -66.4 58.0 -65.0 L57.25 -65.1 55.6 -66.05 Q51.15 -68.55 47.7 -64.7 L47.55 -64.8 46.95 -65.4 46.95 -65.65 46.95 -65.95 45.8 -67.4 45.8 -67.7 45.8 -68.25 45.35 -68.85 44.95 -69.25 Q41.3 -71.4 38.5 -68.25 L38.5 -67.95 38.5 -67.4 38.3 -67.1 38.1 -66.8 38.1 -66.55 38.2 -65.65 Q39.2 -65.0 40.4 -64.7 40.75 -64.15 41.5 -63.95 L41.5 -62.3 Q41.1 -60.15 41.3 -58.0 L42.2 -57.7 47.7 -57.0 47.9 -56.5 Q48.25 -55.65 48.1 -54.7 L48.65 -54.35 Q53.0 -53.45 57.3 -54.25 L57.3 -54.05 57.3 -53.45 57.6 -53.15 Q58.3 -52.3 58.1 -51.15 L58.65 -50.55 Q59.1 -49.95 59.8 -50.05 L67.7 -50.7 67.7 -49.8 67.7 -47.8 67.35 -47.2 Q66.7 -46.15 67.0 -44.9 73.65 -43.5 78.75 -39.35 L78.5 -38.75 78.25 -38.35 Q75.3 -36.25 73.85 -33.35 74.45 -32.2 75.95 -32.5 76.75 -31.7 77.9 -31.6 L79.6 -29.9 79.6 -29.6 79.4 -29.05 Q78.5 -28.4 78.45 -27.3 77.1 -26.2 76.15 -24.7 L76.15 -24.4 76.15 -23.55 Q79.85 -20.85 82.95 -17.8 80.5 -16.5 79.15 -14.25 78.2 -13.95 77.7 -13.1 L77.65 -12.8 77.8 -11.95 81.9 -7.9 81.95 -7.6 82.0 -7.35 82.25 -7.0 82.4 -6.75 80.75 -5.0 80.75 -4.45 80.85 -2.7 81.8 -2.15 Q83.95 0.1 86.9 1.4 L86.7 1.6 86.5 1.9 86.45 2.75 Q86.3 4.35 85.35 5.65 L85.3 5.9 Q84.95 6.75 84.9 7.65 L83.3 7.35 Q82.05 6.55 80.7 7.35 76.65 9.7 73.45 13.3 L73.0 13.3 Q67.6 9.1 60.9 9.75 60.05 9.85 59.65 10.65 L58.5 11.0 Q57.2 12.55 55.5 12.55 L54.75 11.4 54.65 11.1 54.65 10.8 53.95 9.9 53.6 9.65 Q49.8 8.55 46.55 11.4 L46.1 11.4 Q42.55 6.35 38.1 10.45 L38.1 10.7 37.95 11.3 36.95 12.0 36.95 11.8 Q36.65 10.65 35.8 9.75 35.75 8.0 34.5 6.75 33.15 5.4 31.15 6.4 26.85 8.55 22.35 8.7 L22.45 7.95 Q22.95 6.6 22.75 5.05 20.05 3.6 16.7 3.35 15.6 2.3 14.1 2.1 13.05 1.6 12.55 0.55 15.75 -0.2 18.05 -2.45 L18.15 -3.3 17.65 -5.9 17.25 -6.5 15.45 -9.65 Q15.6 -10.15 16.2 -10.5 L17.85 -11.0 19.85 -11.45 Q23.4 -11.4 23.9 -14.15 23.05 -15.4 21.7 -16.15 L19.7 -18.2 Q23.3 -20.75 27.45 -22.5 L28.5 -24.25 28.5 -24.5 28.5 -25.65 25.8 -28.05 25.8 -28.95 Q25.55 -30.85 26.9 -32.1 L27.25 -33.75 Q27.5 -34.6 27.05 -35.35 25.6 -38.15 21.8 -38.0 20.75 -38.9 19.3 -38.85 18.45 -39.35 18.15 -40.05 L18.55 -40.9 Q22.0 -44.05 25.05 -47.5 24.85 -49.8 22.2 -50.0 18.4 -50.35 16.05 -51.85 L16.2 -52.15 16.4 -52.7 17.05 -53.35 18.3 -54.85 Q20.95 -57.6 20.45 -61.35 L19.9 -61.7 16.2 -62.6 16.2 -63.15 16.2 -65.2 Q15.9 -65.8 15.25 -65.85 9.25 -66.25 5.65 -61.55 L5.5 -61.75 5.35 -62.3 4.7 -63.15 4.55 -63.75 Q4.4 -64.3 3.85 -64.3 0.8 -64.15 -1.15 -61.35 -1.65 -63.4 -1.45 -65.55 -1.3 -66.7 -2.4 -66.95 -7.4 -68.0 -12.0 -69.8 L-9.3 -71.7 Q-9.15 -72.15 -9.15 -72.6 L-9.15 -75.2 -9.35 -75.45 -11.45 -78.65 -11.45 -78.9 -11.45 -80.35 -4.7 -80.7 -4.05 -80.85 -3.9 -81.15 -3.75 -82.0 -3.0 -82.85 Q-2.65 -84.25 -2.6 -85.75 -2.6 -88.65 -3.1 -91.5 L-3.75 -92.35 -3.7 -92.95 Q-3.6 -93.85 -3.95 -94.65 L-3.2 -95.05 Q2.25 -92.1 6.7 -95.45 L6.9 -95.75 7.4 -96.9 7.85 -97.05 11.7 -96.0 Q14.95 -94.4 16.9 -97.25 L17.0 -97.55 Q17.2 -98.4 17.75 -99.0" fill="#ffff00" fill-opacity="0.5019608" fill-rule="evenodd" stroke="none"/>
  </g>
</svg>
