<?xml version="1.0" encoding="UTF-8" standalone="no"?>
<svg xmlns:ffdec="https://www.free-decompiler.com/flash" xmlns:xlink="http://www.w3.org/1999/xlink" ffdec:objectType="shape" height="113.45px" width="78.7px" xmlns="http://www.w3.org/2000/svg">
  <g transform="matrix(1.0, 0.0, 0.0, 1.0, 0.95, 112.05)">
    <path d="M35.8 -112.05 Q40.7 -112.05 44.15 -108.6 47.6 -105.15 47.6 -100.25 47.6 -95.4 44.15 -91.9 40.75 -88.55 36.0 -88.45 L36.15 -88.1 33.75 -88.1 Q36.6 -87.75 39.7 -85.45 41.8 -83.95 44.05 -82.9 46.55 -81.8 48.9 -80.25 L53.6 -87.35 54.1 -87.95 Q55.75 -92.0 54.5 -96.1 54.3 -96.9 54.25 -97.8 54.65 -98.95 55.85 -99.45 L57.15 -99.9 Q63.8 -97.55 61.3 -90.1 58.65 -82.2 52.95 -75.55 49.2 -71.3 44.25 -74.9 41.2 -77.2 37.7 -78.9 33.45 -81.05 29.2 -82.7 28.9 -69.2 31.85 -56.5 41.05 -54.55 48.7 -48.35 54.85 -43.4 61.85 -39.35 64.25 -37.95 65.9 -35.8 67.8 -33.35 66.75 -30.3 66.2 -28.75 66.25 -27.0 66.75 -16.2 65.45 -5.65 72.15 -6.0 77.1 -2.6 77.75 -2.15 77.75 -1.25 77.3 0.4 75.75 0.75 66.2 2.9 58.3 -1.8 60.15 -9.05 60.3 -16.8 L60.45 -31.85 Q48.4 -42.6 33.75 -49.55 35.35 -44.3 37.5 -39.2 L37.7 -38.15 Q39.3 -35.15 39.95 -31.8 L40.05 -30.65 Q42.75 -27.95 40.55 -24.95 L40.05 -24.3 Q37.65 -14.0 31.95 -4.9 L40.95 -4.3 Q43.85 -4.05 43.9 -1.25 43.25 1.0 41.0 1.0 L24.3 0.35 Q23.6 0.3 22.9 -0.25 22.9 -5.0 26.7 -8.4 L27.15 -8.95 27.3 -9.5 27.5 -10.65 29.7 -13.5 30.2 -14.1 30.4 -14.7 30.6 -15.85 Q35.75 -24.25 33.45 -33.75 L33.3 -34.3 Q31.7 -37.85 30.5 -41.8 L30.2 -42.95 Q22.85 -60.85 22.85 -80.9 21.05 -77.6 16.05 -76.75 15.3 -76.6 14.6 -76.1 6.9 -70.9 -0.95 -74.1 -0.55 -78.9 4.45 -81.9 13.4 -87.2 22.7 -91.8 L23.1 -91.95 23.85 -92.05 Q24.25 -93.75 24.95 -95.35 L25.0 -95.45 Q24.0 -97.65 24.0 -100.25 24.0 -105.15 27.45 -108.6 30.9 -112.05 35.8 -112.05 M29.9 -87.65 L31.7 -88.1 30.05 -88.1 29.9 -87.65" fill="#000000" fill-rule="evenodd" stroke="none"/>
  </g>
</svg>
