<?xml version="1.0" encoding="UTF-8" standalone="no"?>
<svg xmlns:ffdec="https://www.free-decompiler.com/flash" xmlns:xlink="http://www.w3.org/1999/xlink" ffdec:objectType="shape" height="150.4px" width="160.95px" xmlns="http://www.w3.org/2000/svg">
  <g transform="matrix(1.0, 0.0, 0.0, 1.0, 6.0, 131.0)">
    <path d="M27.65 -128.9 L27.75 -129.2 Q28.0 -129.8 27.65 -130.35 33.0 -127.75 38.8 -127.1 L39.05 -127.3 42.65 -131.0 Q45.1 -127.3 48.6 -123.8 L50.5 -121.35 Q50.9 -120.6 51.8 -120.75 54.25 -121.25 56.25 -122.1 56.9 -118.25 58.9 -114.85 59.25 -114.25 59.8 -114.0 L61.6 -114.05 Q64.6 -115.55 67.8 -116.7 L69.65 -114.3 Q72.0 -111.1 75.35 -112.1 L75.05 -105.5 Q74.8 -101.75 75.55 -98.25 77.05 -97.05 77.8 -95.7 77.0 -95.45 76.45 -95.0 L71.25 -90.3 71.3 -88.85 71.7 -86.0 72.2 -85.35 74.8 -81.35 69.55 -80.7 Q68.05 -80.45 67.1 -79.25 L67.0 -78.7 66.25 -77.25 66.2 -76.65 66.15 -75.5 Q66.1 -73.45 65.5 -71.5 L58.2 -71.15 Q57.0 -71.1 56.25 -70.3 L56.25 -69.45 56.25 -68.0 56.65 -67.45 54.0 -65.3 Q51.25 -62.55 49.35 -59.2 L49.35 -58.6 49.45 -57.15 Q56.1 -55.75 62.7 -53.5 L62.85 -53.3 63.25 -52.75 Q63.3 -51.3 62.85 -49.85 62.1 -47.65 62.5 -45.25 67.05 -43.6 72.0 -43.45 71.2 -40.4 69.4 -37.8 67.0 -34.35 67.1 -30.35 68.9 -28.75 71.25 -28.1 L71.25 -27.05 71.15 -25.05 70.85 -24.75 Q70.75 -23.1 70.25 -21.55 69.5 -19.25 69.7 -16.7 L69.9 -16.4 70.1 -16.1 70.1 -15.8 70.1 -15.55 Q70.7 -14.5 71.9 -14.4 73.05 -13.4 74.6 -13.25 L76.25 -11.9 76.25 -11.6 76.15 -10.75 75.9 -10.4 Q75.2 -9.15 73.95 -8.15 L73.9 -7.85 73.85 -7.55 Q73.15 -7.15 73.05 -6.4 72.7 -4.4 72.8 -2.4 75.5 -0.45 77.7 1.95 L77.3 2.25 Q75.15 2.2 73.55 3.4 73.7 4.2 73.5 4.9 73.1 6.55 73.15 8.3 L72.95 8.55 72.8 8.85 72.8 9.7 Q72.95 10.65 72.4 11.35 L67.75 9.65 Q67.3 9.45 67.05 9.65 63.95 12.05 60.5 13.65 L60.35 13.4 59.7 12.5 59.7 12.2 59.7 11.65 59.2 11.3 Q51.8 9.5 44.35 10.3 L44.4 8.95 Q44.45 7.35 43.6 6.05 L43.5 5.2 42.6 4.35 Q38.8 2.9 35.15 4.9 L34.75 5.4 Q34.25 6.2 34.35 7.15 L34.55 7.4 34.75 7.7 34.75 8.0 34.75 8.3 35.2 8.9 36.5 11.45 30.75 11.95 Q30.45 12.0 30.15 12.2 L30.15 12.5 30.2 15.1 Q30.35 17.35 29.85 19.4 L23.4 12.6 22.7 12.3 15.25 12.7 14.85 12.2 Q14.35 11.4 14.4 10.5 13.35 9.35 13.0 7.95 12.4 5.85 12.45 3.6 9.55 1.8 5.95 1.45 L5.8 1.25 5.55 0.7 5.75 0.4 5.95 0.1 5.95 -0.15 6.15 -0.75 6.5 -1.05 Q7.3 -1.75 7.65 -2.75 L8.45 -3.35 8.7 -3.85 Q9.45 -4.6 9.45 -5.65 9.55 -9.55 5.65 -11.4 9.2 -12.3 12.55 -14.0 L12.95 -14.9 Q13.35 -16.0 13.25 -17.15 L12.3 -18.05 12.15 -18.35 Q11.75 -19.5 10.65 -20.05 L10.5 -20.3 Q9.6 -21.75 8.25 -22.95 L10.35 -23.3 Q13.7 -23.65 15.95 -25.6 16.0 -26.9 15.05 -27.8 12.6 -30.15 10.55 -32.8 L11.7 -33.5 Q15.65 -33.8 18.25 -36.1 L17.1 -37.7 Q13.9 -40.65 11.3 -43.8 L11.65 -44.0 Q14.95 -45.05 17.45 -47.1 16.8 -49.7 14.0 -50.85 16.55 -52.1 19.0 -53.5 19.45 -54.05 19.55 -54.7 19.85 -56.25 19.75 -57.85 L19.55 -58.05 Q17.5 -59.15 16.6 -60.35 L17.25 -61.45 Q18.25 -63.4 18.6 -65.5 L18.15 -65.8 Q13.9 -66.0 10.15 -63.7 L10.1 -63.95 9.8 -64.55 9.8 -65.15 9.8 -66.3 9.55 -66.55 9.0 -66.7 -1.0 -61.8 -0.95 -62.65 Q-0.7 -66.95 -1.2 -71.0 L-1.65 -71.9 Q-3.5 -73.45 -6.0 -73.4 L-6.0 -78.15 -5.55 -78.8 Q-4.2 -81.05 -4.05 -83.6 -4.95 -84.4 -6.0 -84.85 L-6.0 -86.55 -5.1 -86.95 -1.65 -88.15 Q3.05 -89.45 3.55 -93.35 L3.35 -93.65 1.8 -94.8 Q2.25 -95.45 3.05 -95.6 6.9 -96.45 9.4 -99.05 L9.15 -99.6 7.5 -102.5 Q10.6 -102.65 13.6 -101.6 16.75 -100.55 19.95 -100.2 L20.2 -100.4 20.55 -100.95 20.5 -101.2 Q20.15 -101.95 19.3 -102.1 L19.25 -102.3 19.0 -102.9 17.25 -103.95 19.65 -105.1 17.75 -106.45 17.65 -106.75 17.55 -107.6 Q18.15 -108.15 19.0 -108.45 L19.0 -108.55 Q18.8 -111.45 20.85 -112.45 16.9 -114.35 13.45 -117.0 15.55 -118.45 17.1 -120.45 L17.1 -120.75 17.1 -121.6 16.85 -121.85 Q14.3 -123.6 12.2 -125.85 L27.65 -128.9 M19.0 -107.0 Q19.5 -106.2 20.3 -105.85 L20.25 -105.95 Q20.25 -106.7 19.45 -107.0 L19.0 -107.0 M153.9 -76.95 L154.95 -78.1 154.95 -73.35 152.7 -73.0 153.25 -74.05 153.9 -76.95 M153.15 -85.4 L154.95 -86.55 154.95 -84.85 153.15 -85.4" fill="#ffff00" fill-opacity="0.5019608" fill-rule="evenodd" stroke="none"/>
  </g>
</svg>
