<?xml version="1.0" encoding="UTF-8" standalone="no"?>
<svg xmlns:ffdec="https://www.free-decompiler.com/flash" xmlns:xlink="http://www.w3.org/1999/xlink" ffdec:objectType="shape" height="124.55px" width="63.9px" xmlns="http://www.w3.org/2000/svg">
  <g transform="matrix(1.0, 0.0, 0.0, 1.0, -3.2, 121.25)">
    <path d="M25.6 -100.8 Q25.6 -104.1 26.55 -106.6 26.2 -108.0 26.2 -109.45 26.2 -114.35 29.65 -117.8 33.1 -121.25 38.0 -121.25 42.9 -121.25 46.35 -117.8 49.8 -114.35 49.8 -109.45 49.8 -104.6 46.35 -101.1 42.95 -97.75 38.2 -97.65 L38.35 -97.3 32.15 -97.3 Q36.3 -93.45 39.55 -88.5 40.9 -87.95 41.65 -86.75 L42.25 -85.6 Q45.9 -82.65 48.8 -78.7 52.95 -83.45 56.5 -89.05 L56.9 -89.65 57.05 -90.25 57.1 -90.8 57.25 -91.4 57.85 -91.95 58.4 -92.55 58.95 -94.2 Q59.5 -95.3 59.6 -96.6 L58.3 -97.8 57.25 -98.9 57.15 -100.05 57.1 -102.35 Q58.15 -104.35 60.55 -105.0 L61.5 -105.25 Q69.15 -103.6 66.35 -95.5 63.8 -88.1 59.0 -81.75 55.35 -74.85 48.7 -71.05 48.15 -70.75 47.45 -71.5 41.5 -78.4 35.35 -84.85 L35.15 -85.05 Q32.65 -83.0 29.8 -81.35 L29.8 -80.05 Q30.0 -72.35 31.3 -65.0 33.1 -61.65 34.05 -58.05 35.9 -56.45 37.4 -54.05 38.65 -52.15 40.7 -50.95 41.75 -48.9 43.9 -47.35 L44.2 -46.95 Q45.5 -46.35 46.25 -45.15 L46.5 -44.6 Q53.8 -39.15 59.35 -32.2 59.75 -31.7 59.75 -30.8 59.35 -17.9 56.7 -5.4 61.9 -5.6 65.95 -2.15 L66.7 -1.2 Q65.9 3.4 60.85 2.1 L54.85 0.6 Q52.45 0.05 51.1 -1.95 50.15 -11.9 53.1 -21.1 54.35 -25.2 54.0 -29.65 43.9 -38.3 34.95 -48.05 34.8 -45.55 34.25 -42.95 33.6 -39.95 33.35 -36.8 32.6 -27.75 29.75 -19.45 28.5 -11.9 24.1 -5.65 L23.6 -5.05 Q28.6 -5.15 33.6 -1.35 L34.35 -0.4 Q32.55 5.15 26.3 2.35 23.8 1.25 20.9 1.15 17.8 1.1 15.7 -1.0 15.4 -2.1 15.4 -3.3 15.4 -4.2 15.7 -5.05 20.95 -11.35 23.8 -18.9 25.95 -26.2 27.05 -33.85 L27.65 -35.05 Q28.0 -45.6 27.9 -56.1 L27.7 -56.35 Q26.95 -57.3 27.05 -58.5 L27.6 -59.45 26.3 -60.45 25.7 -61.0 Q24.85 -70.0 24.8 -79.05 21.8 -77.9 18.5 -77.2 15.2 -76.5 12.45 -74.35 7.65 -70.6 3.4 -73.3 L3.25 -73.9 3.2 -75.0 3.2 -76.2 3.45 -76.7 3.95 -77.35 4.55 -77.9 Q7.05 -88.95 17.5 -94.65 20.4 -96.25 23.8 -96.4 L24.4 -96.8 25.35 -97.2 25.5 -99.05 25.6 -100.8 M32.65 -87.75 L30.3 -90.5 30.0 -87.2 32.4 -87.7 32.65 -87.75 M20.7 -88.7 L19.55 -88.3 Q16.0 -85.6 12.65 -82.5 L12.05 -81.95 Q18.35 -84.3 24.85 -85.95 L25.0 -90.45 Q22.9 -89.45 20.7 -88.7" fill="#000000" fill-rule="evenodd" stroke="none"/>
  </g>
</svg>
