<?xml version="1.0" encoding="UTF-8" standalone="no"?>
<svg xmlns:ffdec="https://www.free-decompiler.com/flash" xmlns:xlink="http://www.w3.org/1999/xlink" ffdec:objectType="shape" height="154.4px" width="98.7px" xmlns="http://www.w3.org/2000/svg">
  <g transform="matrix(1.0, 0.0, 0.0, 1.0, 7.0, 140.3)">
    <path d="M82.15 -115.05 L82.1 -114.15 Q81.75 -111.6 81.9 -109.0 84.1 -108.1 86.6 -109.25 88.5 -108.5 89.1 -106.95 L89.0 -106.75 88.4 -106.1 88.3 -105.5 88.2 -105.25 Q85.75 -103.45 86.0 -100.6 89.1 -98.2 91.7 -95.15 88.45 -94.1 86.4 -91.7 L86.4 -90.85 86.4 -89.1 86.75 -88.5 87.25 -87.1 87.55 -86.8 79.7 -86.25 Q79.15 -86.2 78.8 -85.75 L78.7 -84.55 Q78.3 -81.2 78.25 -77.75 L72.85 -79.05 71.55 -78.85 Q67.95 -76.15 67.85 -71.35 L67.55 -71.05 67.45 -70.45 67.4 -70.2 67.0 -70.15 66.4 -70.2 Q62.35 -72.45 58.3 -69.6 56.0 -68.0 54.2 -65.85 L54.1 -66.0 53.0 -66.8 52.4 -68.0 51.25 -68.85 Q46.4 -69.95 44.1 -65.85 L44.05 -65.0 Q44.0 -64.15 44.2 -63.25 L45.0 -62.75 45.25 -62.5 45.1 -62.25 44.1 -61.05 44.0 -60.5 Q43.15 -57.55 43.15 -54.7 47.2 -52.95 51.75 -52.9 53.05 -52.85 52.35 -52.4 L52.25 -51.85 52.05 -50.95 51.75 -50.7 51.75 -50.1 51.85 -48.65 62.2 -46.0 58.35 -41.1 58.35 -40.5 58.35 -39.65 Q60.15 -38.35 62.4 -37.55 66.7 -36.1 66.25 -32.2 L65.65 -31.9 Q65.15 -31.55 65.1 -31.05 L61.4 -29.05 Q60.8 -28.75 60.3 -28.8 57.3 -29.1 56.45 -26.9 L56.7 -26.55 Q63.05 -23.3 67.95 -18.25 67.15 -17.5 66.05 -16.95 63.6 -16.95 62.2 -15.6 L62.2 -15.0 Q62.25 -14.0 62.65 -13.0 L67.55 -9.05 Q64.8 -8.55 62.95 -6.75 L62.95 -6.15 Q62.85 -5.7 63.05 -5.3 L67.95 -0.7 Q62.7 0.75 58.75 4.2 L58.7 4.8 Q58.65 5.3 58.75 5.8 L58.35 6.2 58.4 6.5 Q58.75 7.5 59.7 7.95 L59.85 8.2 Q61.65 10.0 62.6 12.25 L62.8 12.6 63.05 13.15 Q60.35 14.6 57.1 13.8 52.8 9.95 47.95 11.9 L46.85 12.0 46.1 11.5 Q45.2 9.65 43.55 8.4 43.2 8.1 42.8 8.15 38.3 8.7 34.1 10.15 32.9 7.2 30.25 7.25 L29.9 7.75 29.5 8.35 Q25.05 10.35 21.15 12.95 L20.65 12.95 20.45 12.85 20.0 12.2 Q18.1 8.95 14.7 10.4 10.95 11.95 7.6 12.45 7.2 9.4 5.25 7.05 4.8 6.45 4.0 6.45 L-4.3 6.9 -4.4 5.85 -5.2 2.65 -5.4 2.4 -5.85 1.8 -6.0 1.25 Q-6.3 0.1 -7.0 -0.8 -5.3 -0.9 -4.4 -2.35 L-4.3 -3.5 Q-4.5 -7.2 -6.5 -10.4 L-5.25 -10.5 Q-2.85 -8.75 0.0 -9.7 0.45 -10.35 0.25 -11.15 -0.8 -15.85 -2.7 -20.4 L1.55 -19.9 7.85 -20.2 Q8.75 -20.45 8.6 -21.4 7.95 -24.6 7.7 -27.8 L8.0 -28.05 Q12.05 -27.4 14.15 -30.35 L14.0 -30.65 11.8 -33.85 18.35 -38.25 18.3 -38.75 18.15 -39.35 Q15.75 -41.0 14.05 -43.1 16.05 -44.85 18.75 -45.7 L18.9 -45.9 19.3 -46.45 Q20.8 -47.1 21.8 -48.2 L21.8 -49.05 21.8 -50.5 19.5 -53.35 19.7 -53.65 19.9 -53.95 19.9 -54.25 19.9 -54.5 20.05 -54.8 Q20.75 -56.0 21.7 -56.85 L21.8 -57.1 21.9 -57.4 22.25 -57.7 22.5 -58.0 22.55 -58.55 22.6 -59.7 Q22.35 -60.0 22.1 -60.0 L10.4 -60.55 10.75 -61.45 Q11.25 -62.85 11.05 -64.3 L10.55 -64.65 4.55 -65.4 3.75 -65.55 3.55 -65.75 Q2.45 -66.75 1.85 -68.05 L4.25 -68.85 4.4 -69.4 4.5 -70.85 4.2 -71.45 Q2.55 -75.7 -0.1 -79.5 2.1 -79.7 3.4 -80.8 7.6 -84.6 8.0 -90.65 L8.25 -90.9 9.6 -90.45 Q10.5 -90.15 11.15 -89.6 14.25 -87.25 16.7 -89.1 L17.0 -90.3 Q18.05 -94.25 19.7 -98.05 20.4 -98.5 21.2 -98.7 L22.15 -98.8 Q24.85 -98.5 26.3 -100.25 L26.5 -101.1 26.25 -104.25 25.85 -104.6 25.65 -104.85 25.65 -105.15 Q25.4 -106.5 24.2 -107.15 L24.05 -107.4 Q23.45 -107.95 23.9 -108.2 L27.5 -110.6 27.55 -111.2 27.55 -112.35 27.25 -112.95 27.0 -113.5 Q25.1 -114.95 23.9 -116.95 L23.65 -117.3 23.65 -117.5 Q25.7 -117.7 26.8 -119.25 L26.8 -120.4 26.8 -124.45 27.0 -124.75 27.2 -125.0 27.2 -125.6 27.2 -126.75 Q29.45 -126.5 30.9 -128.0 31.55 -128.75 31.6 -129.65 31.8 -132.9 33.05 -135.65 L37.75 -133.45 38.3 -133.85 44.65 -140.3 45.1 -139.75 Q47.4 -136.95 48.3 -133.65 L48.55 -133.35 48.7 -133.1 48.7 -132.2 48.8 -130.5 Q51.3 -129.5 54.3 -130.5 L54.35 -130.55 Q55.1 -130.8 55.75 -132.1 L59.7 -134.9 59.95 -134.3 Q61.55 -129.7 60.65 -124.8 L60.9 -124.5 61.05 -124.25 61.05 -123.95 61.05 -123.65 61.3 -123.35 61.6 -123.0 Q64.1 -121.85 67.2 -122.5 L67.1 -122.1 Q65.6 -119.3 65.35 -116.3 L66.45 -115.7 Q69.4 -114.65 72.55 -115.2 L72.55 -114.45 72.55 -111.85 73.35 -111.35 Q77.5 -110.95 80.25 -114.05 L82.15 -115.05" fill="#ffff00" fill-opacity="0.5019608" fill-rule="evenodd" stroke="none"/>
  </g>
</svg>
