<?xml version="1.0" encoding="UTF-8" standalone="no"?>
<svg xmlns:ffdec="https://www.free-decompiler.com/flash" xmlns:xlink="http://www.w3.org/1999/xlink" ffdec:objectType="shape" height="128.8px" width="78.15px" xmlns="http://www.w3.org/2000/svg">
  <g transform="matrix(1.0, 0.0, 0.0, 1.0, -2.3, 126.7)">
    <path d="M33.5 -114.9 Q33.5 -119.8 36.95 -123.25 40.4 -126.7 45.3 -126.7 50.2 -126.7 53.7 -123.25 57.15 -119.8 57.15 -114.9 57.15 -110.05 53.7 -106.55 50.25 -103.2 45.5 -103.1 L45.75 -102.45 46.05 -100.7 46.05 -100.15 Q47.8 -97.3 48.85 -94.1 L49.05 -94.1 49.95 -94.25 49.95 -94.35 Q53.1 -94.3 54.8 -91.7 L55.05 -91.2 54.7 -90.45 55.0 -89.5 55.05 -88.95 Q53.55 -87.05 51.7 -85.65 L52.7 -81.7 Q52.9 -80.85 52.75 -80.0 L52.8 -80.0 Q54.5 -81.9 57.2 -83.3 61.75 -85.8 65.45 -89.75 L67.75 -92.35 Q69.15 -95.05 71.4 -97.2 70.5 -99.2 72.6 -102.1 73.5 -103.3 74.65 -103.35 80.4 -103.1 80.0 -99.6 L80.4 -98.45 80.45 -97.9 78.7 -96.25 77.3 -94.8 75.75 -93.15 Q75.35 -91.4 73.0 -89.35 68.15 -85.3 64.95 -80.15 58.6 -76.0 51.9 -73.1 L51.0 -73.05 49.6 -71.8 49.8 -72.85 49.6 -73.05 49.45 -73.65 49.2 -74.75 Q46.65 -78.5 46.0 -82.9 L44.9 -82.6 39.45 -79.35 Q38.0 -71.0 36.9 -62.45 36.7 -60.85 35.6 -59.6 L35.6 -58.2 Q37.5 -56.5 38.75 -53.85 L39.3 -53.15 Q42.85 -47.3 47.85 -42.25 L48.55 -41.6 Q56.55 -29.9 48.85 -17.65 46.8 -14.35 46.0 -10.45 45.15 -6.45 43.0 -3.65 L52.25 -3.65 54.1 -2.7 Q55.1 -2.05 55.05 -0.85 54.4 1.35 52.2 1.35 L40.5 0.75 Q39.8 0.65 39.15 0.1 L39.15 -1.1 Q38.1 -1.5 37.4 -2.4 39.0 -13.15 43.25 -23.45 44.3 -25.9 46.25 -27.8 46.4 -36.1 39.95 -42.25 37.25 -44.95 35.0 -47.8 L34.9 -47.3 Q32.15 -35.3 28.55 -23.55 L27.25 -22.7 21.3 -15.0 20.65 -14.35 Q16.95 -7.9 11.3 -3.65 L20.05 -3.05 Q22.85 -2.8 22.85 -0.1 22.25 2.1 20.05 2.1 L5.35 1.4 Q2.15 1.1 2.3 -1.95 L3.5 -3.65 3.8 -3.65 Q4.65 -6.85 8.15 -9.1 9.6 -10.0 10.6 -11.45 16.75 -20.1 23.9 -26.65 24.95 -33.7 26.9 -40.65 28.9 -47.85 30.05 -55.25 L30.0 -55.25 30.05 -55.3 30.05 -55.65 28.75 -58.35 Q29.05 -59.35 29.95 -59.85 L29.95 -61.65 30.75 -62.75 31.3 -63.35 33.15 -76.2 Q26.8 -73.4 20.05 -71.55 18.45 -71.85 17.45 -73.05 L17.35 -74.2 17.25 -75.85 Q26.95 -89.5 37.7 -102.75 L37.8 -103.15 37.9 -103.75 38.4 -105.35 36.95 -106.55 Q33.5 -110.05 33.5 -114.9 M42.3 -93.9 L40.9 -87.05 44.25 -88.8 42.3 -93.9 M34.3 -83.6 L35.4 -90.2 28.3 -80.9 Q30.55 -81.6 32.7 -82.75 L34.3 -83.6" fill="#000000" fill-rule="evenodd" stroke="none"/>
  </g>
</svg>
