<?xml version="1.0" encoding="UTF-8" standalone="no"?>
<svg xmlns:ffdec="https://www.free-decompiler.com/flash" xmlns:xlink="http://www.w3.org/1999/xlink" ffdec:objectType="shape" height="131.0px" width="74.4px" xmlns="http://www.w3.org/2000/svg">
  <g transform="matrix(1.0, 0.0, 0.0, 1.0, 25.65, 128.95)">
    <path d="M13.65 -128.95 Q18.55 -128.95 22.0 -125.5 25.45 -122.05 25.45 -117.15 25.45 -112.25 22.0 -108.8 18.6 -105.4 13.85 -105.35 L13.9 -105.25 13.95 -105.15 14.1 -104.65 14.4 -102.95 14.4 -102.4 Q16.15 -99.55 17.2 -96.3 L17.4 -96.35 18.3 -96.5 18.3 -96.6 Q21.45 -96.55 23.1 -93.95 L23.35 -93.45 23.05 -92.65 23.3 -91.75 23.35 -91.2 Q21.9 -89.3 20.05 -87.9 L21.05 -83.95 Q21.25 -83.1 21.1 -82.25 L21.15 -82.25 Q22.85 -84.1 25.5 -85.55 30.05 -88.0 33.75 -92.0 L36.1 -94.6 Q37.5 -97.25 39.75 -99.45 38.8 -101.45 40.9 -104.35 41.8 -105.55 42.95 -105.6 48.7 -105.35 48.35 -101.8 L48.7 -100.7 48.75 -100.15 47.05 -98.45 45.65 -97.05 44.05 -95.35 Q43.65 -93.65 41.3 -91.6 36.5 -87.55 33.25 -82.4 26.95 -78.2 20.25 -75.35 L19.35 -75.25 17.95 -74.0 18.15 -75.1 17.95 -75.3 17.8 -75.9 17.55 -77.0 Q15.0 -80.7 14.35 -85.15 L13.25 -84.85 Q10.55 -83.1 7.8 -81.6 6.35 -73.2 5.25 -64.7 5.05 -63.05 3.95 -61.85 L3.95 -61.3 Q10.6 -57.45 14.75 -50.4 16.35 -47.75 18.6 -45.45 21.2 -42.9 22.95 -39.85 L22.6 -40.0 Q23.25 -38.6 23.15 -36.55 L23.2 -33.45 Q23.95 -23.0 22.95 -12.55 26.35 -13.7 29.45 -12.7 32.65 -13.25 35.45 -11.9 37.85 -10.8 36.55 -8.55 36.05 -7.7 35.1 -7.45 L28.65 -7.65 25.95 -7.25 22.85 -6.85 Q17.5 -5.3 17.6 -10.3 L17.9 -15.55 Q18.65 -24.6 17.5 -33.6 17.15 -36.35 17.55 -39.15 L17.15 -38.75 Q10.65 -46.65 4.45 -54.75 3.85 -55.55 2.85 -55.55 3.3 -51.6 1.3 -48.8 L1.5 -48.35 -1.5 -33.1 Q-2.75 -27.25 -3.65 -21.25 -4.0 -19.05 -5.55 -17.35 L-16.7 -4.9 -17.05 -4.45 Q-13.2 -4.05 -9.55 -2.85 -5.2 -1.45 -8.4 1.7 -8.85 2.15 -9.5 2.05 L-23.8 0.1 Q-25.65 -0.1 -25.65 -1.95 -25.65 -2.9 -25.25 -3.5 -25.15 -4.85 -23.65 -5.85 -20.5 -8.0 -18.05 -10.95 -13.2 -16.95 -8.8 -23.2 -8.35 -23.8 -8.35 -24.5 -8.05 -30.3 -5.95 -35.4 L-4.9 -44.5 -4.3 -47.2 -3.9 -47.9 Q-3.2 -53.45 -3.25 -59.1 -3.25 -60.4 -2.7 -61.1 L-1.7 -62.05 -1.7 -63.9 -0.9 -65.0 -0.35 -65.6 1.5 -78.45 Q-4.85 -75.65 -11.6 -73.8 -13.2 -74.05 -14.2 -75.3 L-14.3 -76.45 -14.4 -78.1 Q-4.7 -91.75 6.05 -105.0 L6.1 -105.15 6.1 -105.25 6.15 -105.4 6.25 -106.0 6.75 -107.55 5.3 -108.8 Q1.85 -112.25 1.85 -117.15 1.85 -122.05 5.3 -125.5 8.75 -128.95 13.65 -128.95 M10.65 -96.15 L9.25 -89.25 12.6 -91.0 10.65 -96.15 M2.65 -85.85 L3.75 -92.45 -3.35 -83.1 Q-1.1 -83.85 1.05 -85.0 L2.65 -85.85" fill="#000000" fill-rule="evenodd" stroke="none"/>
  </g>
</svg>
