<?xml version="1.0" encoding="UTF-8" standalone="no"?>
<svg xmlns:ffdec="https://www.free-decompiler.com/flash" xmlns:xlink="http://www.w3.org/1999/xlink" ffdec:objectType="shape" height="156.25px" width="83.8px" xmlns="http://www.w3.org/2000/svg">
  <g transform="matrix(1.0, 0.0, 0.0, 1.0, 25.55, 147.1)">
    <path d="M23.95 -136.5 Q26.4 -138.3 28.45 -138.8 28.45 -138.25 28.85 -137.85 L28.85 -137.25 28.85 -135.05 29.3 -134.4 29.35 -133.5 Q29.85 -130.15 29.8 -126.65 32.8 -125.45 35.95 -126.95 L35.95 -126.65 35.95 -126.0 36.65 -125.05 36.8 -124.45 39.35 -117.35 Q39.75 -116.4 40.65 -116.5 44.5 -117.05 48.0 -118.65 L48.8 -117.4 48.8 -117.05 48.8 -116.45 49.25 -115.85 Q49.4 -114.1 50.6 -112.9 53.85 -109.65 58.25 -107.95 55.3 -106.6 53.4 -104.4 L53.55 -103.8 Q53.95 -103.1 53.8 -102.2 L54.65 -101.3 Q54.55 -100.8 54.75 -100.35 56.15 -97.4 55.75 -94.2 51.7 -95.75 48.4 -93.9 L48.4 -92.95 48.4 -88.6 49.15 -87.65 49.25 -87.05 Q49.8 -84.95 49.65 -82.7 L46.75 -82.9 Q42.85 -84.5 39.25 -83.5 L39.25 -83.2 39.3 -82.6 Q39.6 -78.85 38.75 -75.5 33.1 -76.75 27.85 -79.15 L26.9 -78.65 26.8 -78.3 Q25.85 -75.35 24.3 -72.7 L24.3 -72.4 Q24.35 -71.55 23.8 -70.95 19.15 -72.0 14.95 -71.7 L14.8 -71.05 14.75 -68.55 16.5 -66.7 16.3 -66.4 Q13.7 -63.1 14.0 -58.9 15.0 -57.95 16.35 -58.2 23.95 -59.7 30.95 -59.95 L30.95 -59.65 Q30.9 -56.4 29.1 -53.7 L28.75 -53.35 Q27.55 -51.5 27.75 -49.35 29.15 -48.1 30.85 -47.45 33.85 -45.6 36.15 -43.1 L36.0 -42.8 35.85 -42.2 Q33.1 -38.95 30.95 -35.3 L30.95 -34.7 Q30.85 -33.25 31.05 -31.9 37.65 -29.8 43.7 -28.35 L42.25 -26.2 Q39.65 -23.65 36.55 -21.8 L36.45 -21.5 Q36.55 -17.05 39.65 -13.7 L31.2 -13.1 30.2 -12.55 30.05 -12.0 Q29.6 -11.1 29.7 -10.1 L29.3 -9.45 29.3 -9.15 29.3 -8.85 28.85 -8.2 28.9 -7.9 28.75 -6.45 Q28.0 -6.5 27.45 -7.1 22.05 -12.5 18.5 -6.15 L18.5 -5.8 18.4 -4.9 18.15 -4.55 17.55 -3.85 16.7 -4.1 Q16.05 -4.3 15.5 -4.7 12.0 -7.1 8.9 -5.2 L8.9 -4.55 Q8.9 -4.1 9.05 -3.65 L10.6 4.15 9.25 4.05 8.3 3.5 Q4.45 1.05 2.3 3.85 L2.3 4.15 2.15 5.1 1.05 6.35 1.05 6.65 1.05 6.95 0.6 7.6 0.6 7.9 Q0.65 8.6 0.2 9.15 -1.6 8.8 -3.0 7.6 -3.3 6.7 -4.15 6.35 -7.55 1.95 -11.45 5.8 L-11.4 6.45 Q-11.35 7.0 -11.65 6.85 L-11.75 6.55 -11.95 5.0 -12.15 4.65 Q-13.1 3.05 -13.6 1.25 L-14.35 0.3 Q-14.35 -0.15 -14.65 -0.55 -15.7 -1.9 -17.3 -1.1 -20.2 0.35 -23.05 1.45 L-23.05 1.15 -23.0 -0.7 Q-22.6 -5.0 -20.15 -8.5 L-20.15 -8.85 -20.15 -9.15 -19.75 -9.75 -19.75 -10.1 -19.75 -11.0 Q-21.95 -12.6 -24.65 -13.6 L-25.55 -14.75 -25.55 -15.05 -25.55 -15.35 -25.35 -15.7 Q-24.6 -16.65 -24.75 -17.85 -24.4 -18.3 -24.2 -18.8 -22.35 -19.65 -20.35 -20.0 L-16.7 -20.8 Q-14.7 -21.3 -15.3 -23.25 L-18.5 -27.0 -18.5 -27.3 -18.5 -27.65 Q-21.15 -31.3 -22.45 -35.1 -19.4 -36.85 -16.0 -38.25 -12.1 -37.8 -9.75 -40.1 L-9.75 -40.7 -9.75 -42.6 Q-11.7 -45.6 -14.25 -48.2 -15.65 -50.9 -17.55 -52.9 L-12.25 -56.1 -7.6 -57.85 -7.4 -58.5 Q-7.2 -60.85 -7.4 -63.15 L-8.0 -64.1 -7.85 -64.4 -7.7 -65.05 Q-9.2 -66.65 -11.25 -66.15 L-10.85 -66.8 Q-9.8 -69.25 -10.2 -72.1 -11.75 -73.8 -13.95 -72.6 -16.75 -71.1 -18.9 -71.45 L-18.95 -72.1 -18.8 -73.65 -18.1 -74.6 -18.05 -75.2 Q-17.6 -77.35 -17.65 -79.55 L-18.25 -79.95 Q-22.25 -81.1 -25.55 -80.7 -22.75 -84.6 -18.9 -87.9 L-18.9 -88.2 -19.1 -89.4 Q-20.25 -93.35 -20.7 -97.25 L-12.5 -97.7 -12.05 -97.85 -11.95 -98.5 -11.85 -100.35 Q-13.9 -103.8 -15.6 -107.5 -14.9 -108.45 -13.5 -108.75 -8.05 -109.9 -3.25 -112.2 L-3.15 -112.5 Q-3.05 -113.0 -3.25 -113.45 -5.55 -115.45 -8.55 -116.05 L-8.4 -117.95 Q-8.05 -119.65 -6.8 -120.95 -4.3 -123.6 -3.95 -126.95 -5.8 -128.25 -8.2 -128.7 L0.6 -134.85 Q-0.45 -137.3 -2.8 -139.2 L6.3 -139.9 Q6.6 -139.95 6.85 -140.25 L7.05 -140.8 Q8.1 -142.9 8.1 -145.2 L8.55 -145.6 Q9.2 -146.25 9.35 -147.1 L10.6 -147.1 Q14.8 -144.5 15.25 -139.95 15.8 -139.3 16.6 -139.4 L18.5 -140.85 19.75 -140.75 19.7 -140.15 19.85 -135.75 20.8 -135.5 Q22.45 -135.45 23.95 -136.5" fill="#ffff00" fill-opacity="0.5019608" fill-rule="evenodd" stroke="none"/>
  </g>
</svg>
