<?xml version="1.0" encoding="UTF-8" standalone="no"?>
<svg xmlns:ffdec="https://www.free-decompiler.com/flash" xmlns:xlink="http://www.w3.org/1999/xlink" ffdec:objectType="shape" height="131.3px" width="63.3px" xmlns="http://www.w3.org/2000/svg">
  <g transform="matrix(1.0, 0.0, 0.0, 1.0, 14.65, 132.9)">
    <path d="M13.55 -132.9 Q18.45 -132.9 21.9 -129.45 25.35 -126.0 25.35 -121.1 25.35 -116.2 21.9 -112.75 18.5 -109.35 13.75 -109.3 L13.8 -109.2 13.85 -109.1 14.0 -108.6 14.3 -106.9 14.3 -106.35 Q16.05 -103.5 17.1 -100.25 L17.3 -100.3 18.2 -100.45 18.2 -100.55 Q21.35 -100.5 23.0 -97.9 L23.25 -97.4 22.95 -96.6 23.2 -95.7 23.25 -95.15 Q21.8 -93.25 19.95 -91.85 L20.95 -87.9 Q21.15 -87.05 21.0 -86.2 L21.05 -86.2 Q22.75 -88.05 25.4 -89.5 29.95 -91.95 33.65 -95.95 L36.0 -98.55 Q37.4 -101.2 39.65 -103.4 38.7 -105.4 40.8 -108.3 41.7 -109.5 42.85 -109.55 48.6 -109.3 48.25 -105.75 L48.6 -104.65 48.65 -104.1 46.95 -102.4 45.55 -101.0 43.95 -99.3 Q43.55 -97.6 41.2 -95.55 36.4 -91.5 33.15 -86.35 26.85 -82.15 20.15 -79.3 L19.25 -79.2 17.85 -77.95 18.05 -79.05 17.85 -79.25 17.7 -79.85 17.45 -80.95 Q14.9 -84.65 14.25 -89.1 L13.15 -88.8 7.7 -85.55 Q6.25 -77.15 5.15 -68.65 4.95 -67.0 3.85 -65.8 L3.85 -64.35 3.9 -64.3 5.45 -62.65 3.7 -62.65 4.45 -60.7 Q4.7 -59.55 5.35 -58.5 4.75 -57.8 4.4 -56.8 L4.4 -56.7 Q7.05 -55.55 9.55 -53.6 L11.2 -52.5 14.2 -50.35 Q15.55 -50.25 16.5 -49.3 L16.8 -49.0 Q21.8 -48.45 21.6 -44.35 22.45 -43.25 21.25 -41.75 L20.45 -39.55 Q19.0 -35.15 18.35 -30.5 17.8 -26.95 16.7 -23.65 17.05 -22.2 16.9 -21.1 L25.95 -20.7 Q27.6 -20.55 27.8 -18.95 28.05 -16.8 25.9 -16.35 19.95 -15.0 14.0 -16.45 11.65 -17.0 12.2 -19.0 11.15 -21.2 11.55 -23.85 13.1 -33.9 16.1 -43.7 9.25 -46.65 3.4 -51.1 L3.45 -49.9 3.0 -50.4 2.6 -50.75 Q2.25 -40.65 2.65 -30.6 3.6 -29.15 2.4 -27.1 2.0 -25.95 1.1 -24.95 L0.25 -24.0 0.25 -24.3 Q-5.15 -17.3 -8.4 -9.0 -5.45 -7.3 -1.25 -6.65 2.7 -6.0 1.05 -2.65 0.5 -1.45 -0.8 -1.6 -6.75 -2.4 -12.6 -3.95 -15.2 -4.7 -14.5 -7.5 -13.15 -12.65 -10.5 -17.2 -7.6 -23.65 -3.1 -29.25 L-2.4 -29.9 Q-2.9 -40.55 -2.35 -51.35 -2.15 -55.2 -2.25 -59.15 L-2.2 -62.8 -2.9 -64.3 -3.0 -64.55 Q-2.7 -65.5 -1.8 -66.0 L-1.8 -67.85 -1.0 -68.95 -0.45 -69.55 1.4 -82.4 Q-4.95 -79.6 -11.7 -77.75 -13.3 -78.0 -14.3 -79.25 L-14.4 -80.4 -14.5 -82.05 Q-4.8 -95.7 5.95 -108.95 L6.0 -109.1 6.0 -109.2 6.05 -109.35 6.15 -109.95 6.65 -111.5 5.2 -112.75 Q1.75 -116.2 1.75 -121.1 1.75 -126.0 5.2 -129.45 8.65 -132.9 13.55 -132.9 M2.55 -89.8 L3.65 -96.4 Q0.25 -91.65 -3.45 -87.05 -1.2 -87.8 0.95 -88.95 L2.55 -89.8 M12.5 -94.95 L10.55 -100.1 9.15 -93.2 12.5 -94.95 M10.25 -27.4 L10.15 -27.25 10.25 -27.45 10.25 -27.4" fill="#000000" fill-rule="evenodd" stroke="none"/>
  </g>
</svg>
