<?xml version="1.0" encoding="UTF-8" standalone="no"?>
<svg xmlns:ffdec="https://www.free-decompiler.com/flash" xmlns:xlink="http://www.w3.org/1999/xlink" ffdec:objectType="shape" height="129.2px" width="69.4px" xmlns="http://www.w3.org/2000/svg">
  <g transform="matrix(1.0, 0.0, 0.0, 1.0, 20.0, 134.15)">
    <path d="M14.3 -134.15 Q19.2 -134.15 22.65 -130.7 26.1 -127.25 26.1 -122.35 26.1 -117.45 22.65 -114.0 19.25 -110.6 14.5 -110.55 L14.55 -110.45 14.6 -110.35 14.75 -109.85 15.05 -108.15 15.05 -107.6 Q16.8 -104.75 17.85 -101.5 L18.05 -101.55 18.95 -101.7 18.95 -101.8 Q22.1 -101.75 23.75 -99.15 L24.0 -98.65 23.7 -97.85 23.95 -96.95 24.0 -96.4 Q22.55 -94.5 20.7 -93.1 L21.7 -89.15 21.75 -87.45 21.8 -87.45 Q23.5 -89.3 26.15 -90.75 30.7 -93.2 34.4 -97.2 L36.75 -99.8 Q38.15 -102.45 40.4 -104.65 39.45 -106.65 41.55 -109.55 42.45 -110.75 43.6 -110.8 49.35 -110.55 49.0 -107.0 L49.35 -105.9 49.4 -105.35 47.7 -103.65 46.3 -102.25 44.7 -100.55 Q44.3 -98.85 41.95 -96.8 37.15 -92.75 33.9 -87.6 27.6 -83.4 20.9 -80.55 L20.0 -80.45 18.6 -79.2 18.8 -80.3 18.6 -80.5 18.45 -81.1 18.2 -82.2 Q15.65 -85.9 15.0 -90.35 L13.9 -90.05 8.45 -86.8 Q7.0 -78.4 5.9 -69.9 5.7 -68.25 4.6 -67.05 L4.6 -65.6 4.65 -65.55 6.2 -63.9 5.65 -63.9 Q8.6 -61.35 10.9 -58.05 L14.65 -52.4 16.85 -48.65 Q18.75 -45.05 19.9 -41.25 20.6 -38.85 18.8 -37.0 L18.4 -35.45 17.85 -34.5 Q15.45 -27.15 13.55 -19.8 12.75 -16.8 12.45 -13.65 L12.35 -10.8 21.35 -10.45 Q22.35 -10.3 22.55 -9.25 23.05 -6.4 20.25 -5.95 13.55 -4.8 6.95 -5.0 6.35 -5.0 6.2 -5.6 5.4 -8.55 6.45 -11.55 7.2 -13.65 7.35 -15.8 7.6 -19.15 8.25 -22.3 8.95 -25.65 10.45 -28.6 L12.3 -34.9 12.95 -36.65 13.35 -37.3 13.75 -39.2 Q14.0 -40.05 14.6 -40.75 11.45 -48.4 6.1 -54.75 L4.15 -56.95 Q6.85 -47.5 8.25 -37.65 8.85 -33.4 4.25 -31.4 2.0 -30.4 0.2 -28.7 -3.1 -25.7 -6.9 -23.3 L-12.8 -19.4 -4.35 -15.1 Q-2.05 -13.85 -3.05 -11.75 -4.25 -9.2 -6.75 -10.8 L-7.4 -11.35 Q-13.6 -12.8 -18.1 -16.85 -19.45 -17.2 -19.95 -19.6 -20.25 -21.1 -18.9 -22.0 -10.7 -27.65 -2.85 -33.6 L-0.2 -35.55 Q1.2 -36.5 2.65 -37.3 1.9 -44.65 0.0 -51.7 -1.45 -56.9 -1.55 -62.55 L-1.55 -64.1 -1.55 -64.25 -2.15 -65.55 -2.25 -65.8 Q-1.95 -66.75 -1.05 -67.25 L-1.05 -69.1 -0.25 -70.2 0.3 -70.8 2.15 -83.65 Q-4.2 -80.85 -10.95 -79.0 -12.55 -79.25 -13.55 -80.5 L-13.65 -81.65 -13.75 -83.3 Q-4.05 -96.95 6.7 -110.2 L6.75 -110.35 6.75 -110.45 6.8 -110.6 6.9 -111.2 7.4 -112.75 5.95 -114.0 Q2.5 -117.45 2.5 -122.35 2.5 -127.25 5.95 -130.7 9.4 -134.15 14.3 -134.15 M3.3 -91.05 L4.4 -97.65 -2.7 -88.3 Q-0.45 -89.05 1.7 -90.2 L3.3 -91.05 M13.25 -96.2 L11.3 -101.35 9.9 -94.45 13.25 -96.2" fill="#000000" fill-rule="evenodd" stroke="none"/>
  </g>
</svg>
