<?xml version="1.0" encoding="UTF-8" standalone="no"?>
<svg xmlns:ffdec="https://www.free-decompiler.com/flash" xmlns:xlink="http://www.w3.org/1999/xlink" ffdec:objectType="shape" height="159.05px" width="107.3px" xmlns="http://www.w3.org/2000/svg">
  <g transform="matrix(1.0, 0.0, 0.0, 1.0, 38.75, 143.15)">
    <path d="M20.45 -137.85 Q22.65 -140.7 25.35 -143.15 25.75 -142.8 25.75 -141.4 25.8 -137.85 26.8 -134.5 L26.8 -133.9 26.9 -133.3 Q28.0 -132.3 29.4 -132.95 33.7 -134.9 37.6 -134.3 L37.4 -134.0 37.2 -133.7 Q37.25 -132.85 36.85 -132.1 34.9 -128.7 33.75 -124.95 L33.55 -124.65 33.0 -123.7 33.05 -123.1 33.15 -122.45 Q37.5 -122.05 41.75 -122.25 L41.55 -120.45 Q41.0 -118.0 41.45 -115.4 42.3 -114.55 43.45 -115.2 47.2 -117.4 51.3 -119.05 L51.3 -118.1 51.4 -116.25 54.65 -116.35 57.75 -116.25 57.1 -115.25 53.8 -109.05 Q61.0 -104.45 68.55 -99.95 63.65 -98.2 59.6 -95.15 L59.6 -93.9 Q59.5 -92.6 59.85 -91.4 L51.75 -90.7 Q51.5 -90.7 51.3 -90.4 L51.3 -89.45 51.3 -88.2 51.5 -87.85 52.15 -86.65 52.15 -86.3 52.15 -86.0 52.35 -85.65 52.85 -84.75 Q49.6 -84.55 46.55 -83.65 42.95 -82.55 43.85 -78.2 L44.05 -77.9 44.55 -77.3 44.7 -76.35 44.65 -74.8 Q39.6 -74.95 34.5 -74.7 33.1 -74.65 32.2 -73.55 L32.2 -71.35 32.2 -66.05 Q26.65 -67.2 21.4 -66.05 L21.4 -64.8 21.4 -62.0 21.6 -61.7 21.8 -61.4 21.75 -60.8 21.5 -60.15 21.0 -59.8 Q20.3 -59.2 20.15 -58.3 L19.7 -58.0 Q18.65 -57.35 18.5 -56.1 21.9 -52.95 27.1 -52.05 L27.3 -51.85 28.35 -51.2 28.45 -50.7 Q28.6 -50.0 28.25 -49.45 L22.2 -43.55 22.25 -42.9 22.3 -42.3 Q25.15 -41.45 27.2 -39.35 L27.25 -38.1 Q27.3 -36.5 26.7 -35.0 L26.35 -34.75 Q23.55 -32.85 21.4 -30.35 L21.35 -29.4 21.5 -28.15 21.85 -27.9 22.45 -27.55 22.55 -27.35 Q23.7 -25.6 25.25 -24.2 L25.5 -23.65 26.9 -21.7 20.95 -18.9 20.95 -18.3 20.95 -17.05 21.65 -16.35 Q25.2 -12.0 28.25 -7.4 L21.4 -5.8 21.35 -4.9 21.5 -3.65 22.0 -3.0 Q22.95 -1.75 23.25 -0.2 L24.3 0.75 24.45 1.75 Q25.1 3.1 25.35 4.45 L24.9 5.15 Q24.45 6.45 23.25 6.45 L15.8 6.85 Q15.45 7.95 15.45 9.05 15.45 12.45 14.2 15.5 12.35 13.2 10.1 11.25 8.65 10.0 6.8 10.9 2.5 12.9 -0.75 15.9 L-5.05 9.4 Q-5.5 8.75 -6.2 8.85 -12.1 9.75 -17.65 11.2 L-17.15 9.8 Q-15.6 5.9 -19.6 5.0 L-26.7 3.2 Q-25.55 2.7 -24.85 1.65 -24.65 1.05 -25.0 0.7 -29.75 -4.35 -36.9 -5.9 L-32.9 -7.9 Q-31.75 -8.45 -31.75 -9.55 -31.7 -12.4 -34.3 -14.25 L-34.3 -14.55 -34.5 -15.15 -35.55 -15.8 -35.65 -16.1 -35.75 -16.4 -36.15 -16.75 Q-36.95 -17.35 -37.5 -18.3 L-37.65 -18.9 Q-38.0 -19.95 -38.75 -20.8 -35.85 -19.9 -33.85 -21.4 -33.65 -23.4 -34.25 -25.25 -35.85 -30.4 -36.8 -35.75 -34.0 -34.3 -31.05 -32.95 -28.95 -30.7 -26.2 -31.8 L-25.25 -34.3 Q-23.2 -38.85 -22.15 -43.65 -17.9 -42.85 -13.65 -43.5 L-13.1 -43.85 -13.2 -44.4 Q-13.6 -45.5 -14.35 -46.35 -14.3 -47.0 -14.7 -47.45 -16.9 -49.8 -17.15 -52.9 -14.35 -54.15 -11.85 -55.8 L-11.25 -56.0 Q-9.9 -56.4 -9.35 -57.65 L-9.45 -57.9 Q-10.45 -59.6 -12.05 -60.25 L-12.45 -60.65 Q-13.7 -61.3 -14.35 -62.55 L-14.35 -62.85 -14.35 -63.15 -14.1 -63.45 -12.6 -65.35 -11.75 -66.05 Q-10.7 -67.25 -10.6 -68.75 L-11.1 -69.1 Q-17.7 -69.25 -23.9 -70.75 L-23.7 -71.3 -21.1 -74.8 -21.05 -75.4 -21.1 -76.05 Q-24.9 -78.3 -27.65 -81.65 -22.85 -82.45 -19.0 -85.2 L-18.95 -85.8 -18.9 -87.05 -19.1 -87.35 -19.35 -87.65 Q-19.35 -88.65 -19.75 -89.55 -21.55 -93.2 -22.15 -97.35 L-21.8 -97.65 -16.75 -98.6 Q-15.75 -100.15 -15.75 -102.0 -15.8 -106.75 -16.4 -111.35 -11.3 -110.35 -6.35 -111.45 L-6.15 -112.1 -6.05 -113.65 -7.2 -115.45 Q-9.95 -120.6 -13.1 -125.5 -10.05 -125.75 -8.1 -127.75 L-8.1 -128.1 -8.1 -128.4 -7.9 -128.7 -7.7 -129.0 -7.7 -130.9 -7.7 -135.9 -7.05 -136.0 -5.7 -135.5 Q-4.95 -135.25 -4.35 -134.8 -0.8 -132.35 2.9 -132.75 3.25 -133.8 3.1 -134.95 2.7 -139.0 3.75 -142.65 L5.6 -140.85 Q8.85 -137.85 12.45 -138.15 L12.8 -139.4 Q13.05 -140.95 13.6 -142.4 L14.15 -141.2 Q14.9 -139.25 16.0 -137.45 L16.0 -137.1 16.0 -136.8 Q17.4 -135.15 19.5 -134.85 L20.0 -135.1 Q20.6 -135.4 20.55 -136.0 L20.25 -136.6 20.15 -137.55 20.45 -137.85" fill="#ffff00" fill-opacity="0.5019608" fill-rule="evenodd" stroke="none"/>
  </g>
</svg>
