<?xml version="1.0" encoding="UTF-8" standalone="no"?>
<svg xmlns:ffdec="https://www.free-decompiler.com/flash" xmlns:xlink="http://www.w3.org/1999/xlink" ffdec:objectType="shape" height="132.5px" width="78.65px" xmlns="http://www.w3.org/2000/svg">
  <g transform="matrix(1.0, 0.0, 0.0, 1.0, 29.1, 130.85)">
    <path d="M14.45 -130.85 Q19.35 -130.85 22.8 -127.4 26.25 -123.95 26.25 -119.05 26.25 -114.15 22.8 -110.7 19.4 -107.3 14.65 -107.25 L14.7 -107.15 14.75 -107.05 14.9 -106.55 15.2 -104.85 15.2 -104.3 Q16.95 -101.45 18.0 -98.2 L18.2 -98.25 19.1 -98.4 19.1 -98.5 Q22.25 -98.45 23.9 -95.85 L24.15 -95.35 23.85 -94.55 24.1 -93.65 24.15 -93.1 Q22.7 -91.2 20.85 -89.8 L21.85 -85.85 21.9 -84.15 21.95 -84.15 Q23.65 -86.0 26.3 -87.45 30.85 -89.9 34.55 -93.9 L36.9 -96.5 Q38.3 -99.15 40.55 -101.35 39.6 -103.35 41.7 -106.25 42.6 -107.45 43.75 -107.5 49.5 -107.25 49.15 -103.7 L49.5 -102.6 49.55 -102.05 47.85 -100.35 46.45 -98.95 44.85 -97.25 Q44.45 -95.55 42.1 -93.5 37.3 -89.45 34.05 -84.3 27.75 -80.1 21.05 -77.25 L20.15 -77.15 18.75 -75.9 18.95 -77.0 18.75 -77.2 18.6 -77.8 18.35 -78.9 Q15.8 -82.6 15.15 -87.05 L14.05 -86.75 8.6 -83.5 Q7.15 -75.1 6.05 -66.6 5.85 -64.95 4.75 -63.75 L4.75 -62.3 4.8 -62.25 6.35 -60.6 5.85 -60.6 6.65 -58.8 Q6.95 -57.95 7.4 -57.15 11.95 -49.05 14.35 -40.05 L16.05 -33.7 16.1 -31.55 Q15.4 -32.1 14.4 -32.45 15.35 -30.6 13.65 -27.85 7.9 -18.65 3.3 -8.75 L0.9 -4.05 12.35 -3.5 Q13.25 -3.45 13.4 -2.55 14.1 1.75 8.9 1.65 L-1.45 1.6 Q-2.3 1.6 -3.05 1.2 -5.05 0.1 -5.05 -1.2 -5.4 -1.75 -5.55 -2.75 -5.85 -4.8 -4.25 -6.4 0.75 -14.4 4.6 -23.15 L5.15 -24.2 Q7.7 -28.85 10.6 -33.05 L5.95 -46.95 Q5.6 -48.05 5.5 -49.2 L3.2 -53.2 1.75 -32.2 1.6 -29.35 1.6 -29.2 0.05 -28.35 0.05 -28.25 -0.85 -27.85 Q-6.1 -25.7 -11.05 -23.15 L-13.55 -21.9 Q-16.5 -20.45 -19.6 -19.15 L-21.0 -19.45 -22.65 -19.2 Q-21.1 -17.9 -19.85 -16.05 -17.55 -12.7 -14.8 -9.85 -14.2 -9.2 -14.55 -8.25 -16.1 -4.25 -19.7 -7.25 -25.3 -12.0 -27.85 -18.35 L-28.05 -18.3 -28.4 -18.45 Q-29.25 -19.0 -29.05 -20.1 -28.45 -22.95 -25.15 -23.5 L-23.45 -23.95 Q-16.25 -26.45 -9.5 -30.05 L-7.95 -30.75 Q-5.25 -31.7 -2.7 -33.05 L-2.9 -33.25 -3.35 -33.5 Q-2.25 -41.5 -2.0 -49.6 L-1.4 -60.55 -1.35 -60.85 -2.0 -62.25 -2.1 -62.5 Q-1.8 -63.45 -0.9 -63.95 L-0.9 -65.8 -0.1 -66.9 0.45 -67.5 Q1.3 -73.95 2.3 -80.35 -4.05 -77.55 -10.8 -75.7 -12.4 -75.95 -13.4 -77.2 L-13.5 -78.35 -13.6 -80.0 Q-3.9 -93.65 6.85 -106.9 L6.9 -107.05 6.9 -107.15 6.95 -107.3 7.05 -107.9 7.55 -109.45 6.1 -110.7 Q2.65 -114.15 2.65 -119.05 2.65 -123.95 6.1 -127.4 9.55 -130.85 14.45 -130.85 M11.45 -98.05 L10.05 -91.15 13.4 -92.9 Q12.35 -95.45 11.45 -98.05 M3.45 -87.75 L4.55 -94.35 -2.55 -85.0 Q-0.3 -85.75 1.85 -86.9 L3.45 -87.75" fill="#000000" fill-rule="evenodd" stroke="none"/>
  </g>
</svg>
