<?xml version="1.0" encoding="UTF-8" standalone="no"?>
<svg xmlns:ffdec="https://www.free-decompiler.com/flash" xmlns:xlink="http://www.w3.org/1999/xlink" ffdec:objectType="shape" height="154.55px" width="114.85px" xmlns="http://www.w3.org/2000/svg">
  <g transform="matrix(1.0, 0.0, 0.0, 1.0, 45.6, 136.65)">
    <path d="M36.9 -102.35 L37.5 -102.55 37.0 -102.15 36.3 -102.15 36.9 -102.35 M20.85 -128.55 L20.6 -128.25 19.4 -126.25 19.4 -125.7 19.5 -122.8 21.5 -122.85 23.1 -122.65 23.85 -123.1 23.9 -123.4 24.0 -123.9 25.75 -125.0 Q27.4 -126.2 28.65 -126.35 L28.55 -125.5 Q27.95 -122.65 28.35 -119.75 L29.25 -119.45 37.5 -119.05 Q33.75 -114.65 32.6 -109.35 33.3 -108.7 34.4 -108.75 38.55 -109.05 42.1 -107.95 L39.2 -105.6 Q35.45 -104.2 32.5 -101.95 L32.45 -101.4 Q32.4 -100.95 32.6 -100.55 38.25 -99.55 43.65 -102.5 46.95 -104.3 49.4 -106.1 L49.4 -105.8 49.5 -105.5 49.85 -104.9 50.25 -103.2 50.55 -103.0 51.25 -103.05 Q55.35 -106.4 60.15 -108.6 L60.1 -108.1 Q59.55 -103.15 56.7 -98.9 L56.65 -98.3 56.8 -97.45 69.25 -96.9 63.25 -93.4 Q60.0 -91.5 58.2 -88.8 63.85 -84.05 68.6 -78.75 L57.75 -78.4 Q55.2 -78.3 53.6 -76.7 L53.6 -75.85 53.6 -74.1 53.9 -73.8 54.4 -73.25 54.5 -72.7 Q54.75 -71.0 55.55 -69.5 L52.35 -70.0 Q47.6 -71.2 42.7 -70.75 41.85 -70.65 41.3 -69.9 L41.3 -69.05 41.3 -67.6 41.55 -67.3 41.7 -67.0 41.7 -66.75 41.7 -66.45 42.0 -66.15 42.45 -65.55 42.55 -65.0 42.65 -64.7 Q44.45 -62.6 45.75 -60.1 L46.1 -59.8 47.1 -58.35 41.85 -59.05 38.3 -59.8 Q31.8 -61.3 25.95 -58.75 L25.95 -58.2 25.95 -57.6 Q26.75 -56.6 27.85 -56.15 30.65 -54.0 33.75 -52.4 32.2 -51.4 30.2 -51.25 25.2 -50.8 22.5 -47.25 24.05 -45.35 26.95 -44.9 31.2 -44.25 34.3 -42.15 33.5 -40.5 32.2 -39.25 L32.05 -38.7 31.35 -37.25 31.35 -36.65 31.35 -35.8 Q32.5 -34.25 34.5 -34.25 35.65 -33.4 37.1 -33.1 39.65 -31.85 40.75 -29.45 40.3 -28.45 39.4 -27.9 34.65 -25.05 29.2 -23.6 L29.05 -23.0 Q28.9 -22.1 29.2 -21.3 36.1 -14.9 43.6 -9.2 L38.95 -9.1 Q34.1 -9.35 30.55 -6.8 L30.55 -6.2 30.55 -5.05 Q33.05 -1.1 35.95 2.4 L33.8 2.8 28.85 3.5 Q27.45 3.75 27.1 5.2 L26.7 5.45 Q26.15 5.8 25.95 6.35 L25.85 7.55 Q24.85 11.15 25.2 15.0 L25.45 15.3 25.55 15.6 25.6 16.15 25.45 17.0 Q24.5 17.7 23.55 17.2 L19.6 15.1 Q18.95 14.05 17.7 13.65 14.3 12.55 12.5 16.25 L12.35 16.8 11.65 17.9 Q10.35 14.0 7.95 10.8 L7.65 10.55 Q3.15 9.5 -0.35 13.1 -3.25 13.75 -5.65 15.5 L-5.9 15.35 -6.7 14.5 Q-7.4 12.45 -9.25 11.1 -11.05 9.75 -13.35 10.5 -18.3 12.1 -22.15 15.65 L-22.4 15.2 Q-22.7 14.35 -23.45 14.0 -31.3 9.85 -39.95 8.2 -38.8 7.8 -38.2 6.75 -38.2 6.15 -38.5 5.8 -41.25 2.05 -45.6 -0.35 L-39.95 -1.1 Q-39.1 -1.1 -38.7 -1.9 L-38.75 -2.4 Q-41.9 -7.95 -45.5 -13.4 L-45.5 -14.0 -45.5 -14.6 -40.1 -14.25 Q-39.05 -14.1 -38.35 -14.55 -35.95 -16.05 -36.65 -19.4 L-36.85 -19.65 Q-37.95 -21.3 -38.6 -23.1 -31.1 -22.95 -22.65 -23.2 L-22.5 -23.8 -22.45 -24.35 -26.5 -29.85 Q-24.7 -31.0 -22.35 -31.2 L-20.05 -31.2 Q-15.9 -30.95 -14.0 -33.9 L-17.85 -38.8 Q-15.65 -40.65 -13.1 -42.05 -9.15 -44.2 -7.45 -48.0 -7.6 -48.75 -8.35 -48.85 L-16.3 -49.55 Q-14.35 -52.5 -14.6 -56.15 -14.7 -57.8 -16.5 -57.85 L-32.05 -58.35 -31.85 -58.55 Q-31.2 -59.35 -30.15 -59.5 -26.95 -62.5 -26.7 -66.65 L-28.2 -69.5 -22.65 -69.8 -21.95 -70.0 -21.8 -70.6 -21.7 -72.0 -21.85 -72.3 -22.05 -72.6 -22.05 -72.85 -22.05 -73.15 Q-26.3 -77.85 -28.6 -83.55 L-28.8 -83.75 Q-29.35 -84.15 -29.35 -84.7 -28.05 -85.8 -26.0 -84.9 -25.0 -84.5 -24.15 -83.85 -21.05 -81.55 -17.25 -83.15 L-17.05 -84.3 Q-16.7 -88.0 -17.05 -91.8 L-10.9 -91.5 -7.05 -91.85 Q-3.3 -92.9 -5.55 -96.4 L-5.55 -96.7 -5.55 -97.0 -5.75 -97.25 -6.7 -98.4 -6.7 -99.0 -6.7 -99.85 -6.4 -100.15 Q-5.5 -101.2 -6.2 -102.45 -10.4 -105.55 -14.65 -108.8 -10.85 -109.85 -6.9 -110.15 L-6.65 -110.35 -5.65 -111.5 -5.55 -112.05 Q-5.15 -114.55 -6.4 -116.65 -4.95 -116.15 -3.7 -117.55 L-3.6 -118.4 -4.0 -125.6 Q-3.45 -125.0 -2.65 -124.85 -0.8 -122.05 1.95 -122.7 L2.3 -124.75 Q2.65 -130.0 3.85 -135.1 L9.05 -129.15 9.05 -128.85 9.15 -128.55 Q11.05 -127.5 12.35 -129.7 14.75 -133.7 18.25 -136.65 L18.3 -136.35 Q18.75 -132.95 20.55 -130.0 L20.6 -129.45 20.85 -128.55" fill="#ffff00" fill-opacity="0.5019608" fill-rule="evenodd" stroke="none"/>
  </g>
</svg>
