<?xml version="1.0" encoding="UTF-8" standalone="no"?>
<svg xmlns:ffdec="https://www.free-decompiler.com/flash" xmlns:xlink="http://www.w3.org/1999/xlink" ffdec:objectType="shape" height="144.7px" width="113.75px" xmlns="http://www.w3.org/2000/svg">
  <g transform="matrix(1.0, 0.0, 0.0, 1.0, 50.0, 167.2)">
    <path d="M20.1 -161.5 L20.2 -161.9 20.35 -162.65 20.65 -163.05 22.85 -167.15 23.0 -167.2 23.15 -167.1 23.25 -166.5 Q24.15 -165.6 25.25 -165.0 L25.7 -164.4 Q30.75 -160.9 31.35 -154.9 L32.5 -154.25 32.95 -154.4 33.75 -155.0 Q38.45 -154.95 43.1 -156.9 40.0 -153.6 37.75 -149.75 L37.7 -149.4 Q37.65 -148.6 37.85 -147.9 39.2 -146.75 41.0 -146.65 L47.85 -143.4 Q42.65 -142.45 39.75 -138.4 L39.7 -138.0 Q39.65 -137.4 39.85 -136.9 40.95 -136.15 42.0 -135.65 43.5 -133.45 45.85 -132.25 41.05 -130.1 38.25 -125.75 L38.2 -125.0 Q38.15 -123.65 38.35 -122.4 44.05 -120.05 50.75 -120.5 L51.25 -119.75 51.2 -118.65 Q51.15 -116.0 51.35 -113.4 51.55 -113.2 51.75 -113.2 L61.2 -112.45 61.25 -112.25 58.75 -108.5 Q60.8 -106.3 63.75 -104.75 60.0 -103.4 57.25 -100.5 L57.25 -99.75 57.25 -97.5 57.55 -97.1 Q58.4 -95.9 58.75 -94.5 L57.0 -94.75 Q53.4 -93.85 51.0 -91.15 50.1 -92.15 48.95 -92.7 48.05 -93.15 47.35 -92.7 43.1 -89.9 40.1 -85.4 L39.25 -85.5 Q36.55 -88.0 34.25 -85.75 L34.2 -85.4 Q34.15 -84.6 34.35 -83.9 L36.25 -81.65 Q38.2 -78.0 40.6 -74.5 L38.25 -72.4 38.25 -71.65 38.25 -67.5 38.75 -66.75 Q38.75 -66.2 38.9 -65.7 40.25 -62.1 40.25 -58.15 L40.45 -57.75 40.75 -57.0 Q36.4 -58.3 31.75 -56.5 30.85 -55.6 31.0 -54.4 L31.6 -47.0 Q27.25 -49.05 23.0 -47.25 L22.85 -46.5 22.75 -43.5 23.25 -42.75 23.3 -42.0 Q23.65 -39.95 24.35 -37.9 18.85 -40.15 14.75 -37.0 L14.7 -36.65 14.6 -35.9 14.25 -35.5 14.2 -35.15 14.1 -34.4 13.75 -34.0 13.75 -33.65 13.75 -32.15 13.25 -31.4 13.25 -31.0 13.25 -29.15 12.75 -28.4 12.7 -28.0 12.6 -27.25 Q3.6 -31.35 -4.85 -25.4 -7.8 -23.25 -10.65 -22.5 L-12.1 -26.9 Q-14.7 -33.9 -20.75 -29.0 -25.3 -27.25 -29.75 -26.0 -30.05 -30.8 -34.8 -32.65 -37.4 -33.7 -38.4 -34.9 -37.45 -35.7 -36.75 -36.75 L-36.75 -37.15 -36.75 -38.25 -40.5 -42.0 Q-41.9 -44.35 -43.9 -46.15 -40.8 -46.75 -37.5 -48.25 -37.1 -49.9 -37.1 -51.65 -37.15 -56.4 -37.75 -61.0 -34.65 -60.05 -31.65 -60.65 L-31.3 -61.4 Q-30.15 -64.25 -29.75 -67.4 L-28.9 -68.5 Q-24.9 -68.05 -21.15 -68.65 -20.95 -69.0 -20.9 -69.4 -20.6 -72.15 -21.5 -74.65 -16.6 -75.45 -13.25 -78.75 L-13.25 -79.15 -13.25 -80.25 -15.0 -83.25 Q-16.8 -84.55 -17.75 -86.65 -13.75 -88.75 -10.75 -92.25 -10.75 -93.0 -10.9 -93.75 -11.45 -97.5 -10.25 -101.25 -16.6 -104.55 -22.15 -99.15 L-22.6 -99.1 -22.75 -99.25 Q-22.7 -100.05 -23.25 -100.35 -27.75 -102.9 -30.75 -98.0 -33.1 -95.8 -35.25 -95.15 L-35.25 -95.9 -35.25 -99.25 -35.5 -99.65 -36.0 -100.75 Q-41.45 -103.4 -47.75 -102.5 L-47.45 -104.7 Q-46.2 -110.15 -49.75 -114.0 L-49.8 -114.35 -50.0 -115.15 -48.85 -115.15 Q-46.1 -114.4 -44.75 -116.75 -44.6 -118.1 -44.9 -119.4 -45.9 -123.55 -45.75 -128.0 L-43.75 -128.0 Q-42.7 -126.55 -40.9 -126.65 -39.1 -124.85 -37.0 -126.25 -34.95 -129.75 -32.4 -133.0 L-30.15 -132.9 Q-29.3 -132.05 -28.0 -132.15 -26.05 -130.4 -23.45 -131.65 -22.95 -131.9 -22.8 -132.35 -21.35 -136.25 -19.25 -139.0 -14.45 -137.0 -9.5 -135.75 -7.85 -136.65 -6.75 -138.25 L-6.7 -139.0 -5.75 -143.5 -0.55 -144.3 Q0.4 -144.55 0.55 -145.35 1.55 -150.4 -1.25 -155.0 L5.05 -155.8 Q5.4 -155.9 5.75 -156.25 L6.05 -158.55 8.0 -166.4 8.5 -166.65 12.25 -163.05 Q16.15 -158.85 20.1 -161.5" fill="#ffff00" fill-opacity="0.5019608" fill-rule="evenodd" stroke="none"/>
  </g>
</svg>
