<?xml version="1.0" encoding="UTF-8" standalone="no"?>
<svg xmlns:ffdec="https://www.free-decompiler.com/flash" xmlns:xlink="http://www.w3.org/1999/xlink" ffdec:objectType="shape" height="155.65px" width="123.75px" xmlns="http://www.w3.org/2000/svg">
  <g transform="matrix(1.0, 0.0, 0.0, 1.0, 56.65, 176.65)">
    <path d="M48.25 -160.0 L47.5 -159.25 47.25 -158.85 47.0 -158.15 Q44.9 -155.8 43.75 -152.9 L43.7 -152.5 Q43.65 -151.9 43.85 -151.4 47.8 -149.7 51.35 -147.25 47.45 -144.35 43.25 -141.9 L43.2 -141.5 43.35 -140.4 50.75 -137.4 50.75 -137.0 50.6 -135.9 50.25 -135.5 50.2 -134.75 Q50.15 -133.8 50.35 -132.9 55.25 -130.0 61.25 -131.0 L61.25 -130.4 61.25 -128.15 60.95 -127.75 Q59.25 -125.55 59.85 -122.9 63.35 -121.45 67.1 -120.75 67.25 -120.1 66.35 -119.65 L66.25 -119.25 66.1 -118.5 60.25 -111.4 60.2 -111.0 Q60.15 -110.4 60.35 -109.9 63.1 -108.7 64.75 -106.25 L64.75 -105.9 64.6 -104.4 Q61.9 -101.75 58.6 -99.9 L58.1 -99.85 57.85 -100.0 Q57.65 -101.4 56.55 -102.35 55.9 -103.0 55.0 -103.0 50.25 -103.0 46.85 -99.5 L43.85 -102.0 Q41.95 -104.85 38.25 -103.5 L36.25 -99.9 36.2 -99.15 Q35.9 -96.55 36.85 -94.25 L36.7 -93.9 Q35.9 -92.45 36.35 -90.9 L37.05 -90.25 Q40.7 -87.6 44.1 -84.4 40.65 -81.45 36.75 -79.4 L36.7 -79.0 Q36.65 -78.4 36.85 -77.9 40.95 -75.4 44.25 -72.0 39.6 -72.25 36.25 -69.5 35.65 -66.1 38.6 -64.65 39.3 -63.35 40.35 -62.4 36.05 -61.65 32.75 -59.25 L32.7 -58.9 Q32.65 -58.1 32.85 -57.4 L40.5 -51.25 39.75 -50.5 Q34.7 -50.8 32.25 -47.4 L32.2 -46.65 Q32.15 -45.5 32.35 -44.4 L33.25 -43.25 33.3 -42.9 Q34.6 -40.15 35.35 -37.65 L34.25 -36.5 Q34.05 -34.9 32.6 -33.9 L31.75 -33.9 Q29.35 -35.7 26.45 -37.15 21.95 -39.45 18.25 -37.25 L18.25 -36.5 18.25 -31.65 18.05 -31.25 Q17.7 -30.4 17.1 -30.15 13.85 -33.8 9.55 -36.4 8.2 -37.2 6.95 -36.2 3.65 -33.6 1.25 -30.25 L-0.1 -30.55 -0.95 -30.8 Q-2.95 -31.15 -4.6 -30.35 -8.1 -28.7 -9.75 -24.75 L-9.8 -24.4 -9.9 -23.75 -10.5 -23.8 -10.65 -23.9 Q-13.0 -25.95 -16.35 -24.85 -20.15 -23.6 -23.15 -21.0 -24.0 -23.4 -26.2 -24.7 -29.3 -26.55 -31.25 -28.0 L-30.95 -28.45 Q-29.85 -30.6 -30.25 -33.25 L-33.15 -37.4 Q-35.15 -38.6 -35.75 -40.0 -31.95 -40.4 -29.75 -43.25 L-29.75 -44.0 Q-29.7 -44.95 -30.15 -45.7 -35.55 -53.45 -40.25 -61.65 L-39.9 -62.0 -32.55 -63.1 Q-31.3 -63.4 -30.75 -64.75 L-30.75 -65.15 -30.75 -65.5 -29.4 -67.0 -29.3 -67.4 -29.15 -68.15 -27.25 -70.0 Q-22.75 -69.85 -19.0 -67.25 -18.75 -67.3 -18.55 -67.45 L-18.0 -67.75 -17.75 -68.9 -17.75 -74.9 Q-14.7 -77.2 -10.15 -76.65 -9.25 -78.75 -11.15 -80.4 L-11.25 -80.75 Q-11.55 -82.2 -12.25 -83.4 L-8.65 -87.15 Q-7.7 -87.4 -7.25 -88.25 L-7.25 -88.65 -7.25 -89.0 -7.0 -89.4 -6.75 -89.75 -6.75 -90.15 -6.75 -91.25 Q-9.45 -93.5 -12.4 -94.4 L-12.2 -94.65 Q-11.65 -95.5 -11.65 -96.5 -10.05 -98.3 -9.65 -100.65 L-8.75 -101.75 -8.75 -102.5 -8.75 -104.75 -9.4 -105.9 Q-9.65 -106.65 -10.4 -106.65 L-17.25 -106.15 -17.25 -106.9 -17.25 -108.75 -17.5 -109.15 -17.75 -109.5 -17.75 -109.9 -17.9 -111.0 Q-21.95 -115.0 -25.2 -110.35 -27.4 -107.2 -30.15 -105.4 L-30.75 -106.15 -30.8 -106.5 -31.0 -107.25 -31.8 -108.05 Q-32.5 -108.9 -33.45 -109.1 -39.3 -110.35 -44.25 -110.4 L-44.25 -111.15 Q-44.1 -112.5 -44.5 -113.75 -50.25 -118.15 -56.65 -121.65 -55.1 -122.6 -53.25 -123.0 L-51.75 -124.75 -51.75 -126.25 Q-51.7 -131.3 -50.25 -136.0 L-44.05 -136.4 -43.15 -136.65 Q-42.65 -138.65 -42.75 -140.75 -42.85 -145.2 -41.4 -149.0 L-40.15 -148.9 Q-38.3 -147.6 -36.25 -146.65 -32.75 -144.3 -29.5 -147.25 -27.7 -150.1 -25.5 -152.75 -23.6 -150.8 -21.15 -149.4 -18.8 -144.55 -15.4 -147.0 L-15.3 -147.4 Q-14.7 -149.95 -13.25 -152.25 L-13.3 -152.6 Q-13.45 -153.25 -13.0 -153.65 L-9.95 -150.45 Q-6.65 -146.55 -2.75 -148.75 L-2.75 -149.15 -2.75 -149.5 -2.5 -149.9 -2.25 -150.25 -2.3 -151.4 -2.15 -156.9 Q-0.6 -156.05 1.05 -155.7 2.55 -155.4 3.25 -156.2 5.95 -159.4 5.25 -164.15 7.85 -161.5 11.0 -159.75 12.2 -160.05 12.75 -161.25 L12.75 -161.65 12.75 -162.0 13.0 -162.4 13.25 -162.75 13.25 -163.9 13.25 -169.9 Q14.65 -169.4 15.7 -168.2 19.75 -163.4 23.5 -167.25 L23.65 -167.6 Q25.95 -172.05 27.85 -176.65 29.6 -174.3 31.4 -171.0 31.7 -170.45 32.25 -170.4 L40.25 -170.75 40.05 -170.4 39.75 -170.0 39.75 -169.65 39.6 -168.5 Q38.25 -166.35 37.25 -164.0 L37.2 -163.65 Q36.6 -161.8 36.85 -159.9 37.8 -159.15 39.0 -158.75 L39.5 -158.9 39.85 -159.15 40.1 -159.5 43.7 -160.2 48.25 -160.0" fill="#ffff00" fill-opacity="0.5019608" fill-rule="evenodd" stroke="none"/>
  </g>
</svg>
