<?xml version="1.0" encoding="UTF-8" standalone="no"?>
<svg xmlns:ffdec="https://www.free-decompiler.com/flash" xmlns:xlink="http://www.w3.org/1999/xlink" ffdec:objectType="shape" height="122.6px" width="92.95px" xmlns="http://www.w3.org/2000/svg">
  <g transform="matrix(1.0, 0.0, 0.0, 1.0, 38.7, 158.95)">
    <path d="M19.6 -158.55 L23.4 -158.8 24.1 -158.85 25.6 -158.95 25.6 -158.8 26.2 -158.75 26.8 -158.65 28.05 -158.3 Q29.9 -157.75 31.6 -156.45 L32.15 -156.35 33.05 -155.65 Q35.75 -153.85 36.3 -150.9 L36.45 -149.45 36.6 -148.45 36.15 -148.6 36.2 -148.4 Q36.75 -143.55 33.75 -139.75 30.85 -136.1 26.35 -135.35 L24.7 -135.7 22.65 -135.05 Q21.15 -136.25 18.65 -136.75 L17.2 -137.75 16.0 -138.8 15.85 -138.4 15.75 -138.8 Q14.6 -137.55 13.8 -136.0 L12.55 -133.45 Q20.4 -132.4 27.95 -129.85 32.65 -128.25 36.85 -125.8 39.4 -124.35 42.35 -123.6 44.65 -123.05 46.5 -121.6 52.0 -120.35 54.1 -115.6 54.45 -114.8 54.05 -114.0 53.25 -112.45 51.5 -112.2 47.3 -111.6 44.2 -114.1 43.0 -115.05 43.25 -116.6 35.3 -120.75 26.65 -123.7 19.05 -126.3 11.3 -128.1 11.15 -127.15 11.45 -126.1 L10.05 -126.6 Q8.5 -120.95 8.65 -114.9 8.75 -109.3 9.85 -103.7 11.05 -97.6 10.25 -91.8 11.8 -90.45 11.65 -87.6 15.95 -86.05 20.45 -85.3 26.1 -84.45 31.1 -82.15 31.75 -81.85 31.9 -81.1 32.35 -77.75 30.35 -74.95 28.85 -72.9 27.8 -70.6 25.6 -66.0 22.65 -61.65 L16.6 -53.1 16.3 -52.6 Q18.5 -50.5 22.05 -50.0 22.95 -49.85 23.25 -48.95 24.45 -44.55 19.75 -44.85 16.75 -45.05 14.1 -46.4 11.25 -47.8 8.65 -49.6 7.65 -50.3 7.95 -51.5 8.35 -54.1 10.65 -55.95 11.9 -56.95 12.95 -58.2 19.85 -66.1 23.9 -75.65 L25.05 -78.15 Q18.85 -79.1 13.0 -80.6 11.75 -80.95 10.7 -81.45 9.95 -78.0 8.55 -74.5 L4.45 -64.65 2.55 -60.0 Q2.8 -56.1 -1.25 -54.95 -9.65 -52.6 -18.15 -50.9 -17.15 -44.2 -17.85 -37.65 -17.95 -37.1 -18.55 -36.8 -21.9 -35.35 -22.55 -38.75 -23.45 -43.35 -23.85 -47.85 -24.2 -51.3 -23.8 -54.5 -23.6 -55.9 -22.2 -56.1 -12.6 -57.7 -3.5 -61.05 0.7 -71.2 4.2 -81.75 L5.5 -85.3 5.55 -88.0 Q4.55 -88.9 4.6 -91.0 4.5 -102.0 3.05 -113.15 2.5 -117.05 3.0 -120.9 3.4 -124.4 4.25 -127.65 L-11.65 -126.85 Q-18.15 -126.6 -24.3 -124.95 L-30.5 -123.25 Q-30.45 -121.05 -32.35 -119.9 -34.45 -118.65 -36.5 -119.95 -39.8 -122.0 -38.2 -125.5 -37.3 -127.45 -35.2 -128.05 L-33.2 -128.7 -24.05 -131.6 -3.7 -133.3 Q1.2 -133.65 6.05 -133.15 7.75 -137.4 10.3 -141.35 11.5 -143.25 13.0 -144.6 L12.6 -145.65 12.55 -146.05 12.5 -146.05 Q12.15 -148.05 12.95 -149.75 13.45 -152.0 14.85 -153.9 L15.0 -154.3 15.05 -154.35 Q17.0 -156.85 19.75 -157.95 L19.6 -158.55 M17.8 -123.4 L17.8 -122.9 17.2 -123.25 17.6 -123.5 17.8 -123.4" fill="#000000" fill-rule="evenodd" stroke="none"/>
  </g>
</svg>
