<?xml version="1.0" encoding="UTF-8" standalone="no"?>
<svg xmlns:ffdec="https://www.free-decompiler.com/flash" xmlns:xlink="http://www.w3.org/1999/xlink" ffdec:objectType="shape" height="104.9px" width="80.65px" xmlns="http://www.w3.org/2000/svg">
  <g transform="matrix(1.0, 0.0, 0.0, 1.0, 30.5, 160.25)">
    <path d="M19.0 -149.05 Q19.0 -150.2 18.55 -150.9 19.2 -154.25 21.75 -156.8 25.2 -160.25 30.1 -160.25 35.0 -160.25 38.45 -156.8 41.9 -153.35 41.9 -148.45 41.9 -143.55 38.45 -140.1 35.15 -136.8 30.6 -136.65 L29.0 -137.15 26.9 -136.75 Q25.5 -138.1 23.1 -138.95 L21.75 -140.1 20.7 -141.3 20.5 -140.9 20.4 -142.0 Q18.2 -140.0 16.45 -137.5 L16.0 -136.85 Q21.7 -137.1 26.85 -134.6 L28.5 -133.9 Q38.95 -129.85 48.05 -123.45 50.05 -122.1 50.15 -119.65 50.4 -114.7 45.2 -115.8 43.45 -116.2 42.05 -117.5 40.2 -119.3 40.15 -121.75 37.05 -123.65 33.55 -124.9 29.8 -126.2 26.55 -128.5 19.8 -131.05 12.6 -131.35 L10.8 -128.05 Q9.0 -124.6 7.5 -121.0 5.85 -113.4 6.4 -105.45 6.8 -99.7 9.95 -94.8 15.5 -94.85 20.95 -95.95 L30.35 -98.15 Q34.8 -96.6 32.7 -92.3 28.45 -83.35 23.65 -74.5 L18.6 -63.9 Q18.35 -63.45 18.25 -63.0 22.5 -61.9 26.5 -60.15 27.25 -59.8 27.25 -58.95 27.15 -54.45 22.15 -55.55 16.9 -56.65 12.4 -59.35 11.1 -60.1 11.6 -61.55 14.5 -70.3 19.35 -78.35 21.75 -84.25 24.7 -89.95 L25.3 -90.65 10.55 -88.3 10.25 -87.65 Q9.05 -85.15 8.2 -82.6 L3.0 -67.15 Q2.45 -65.6 0.8 -65.55 -3.4 -65.45 -6.9 -68.1 -8.75 -69.45 -10.9 -70.3 -13.7 -71.35 -16.7 -71.95 -16.6 -67.35 -18.25 -63.4 -18.55 -62.7 -19.4 -62.7 -23.4 -62.65 -23.15 -66.75 -22.85 -71.75 -21.7 -76.45 -21.2 -78.4 -19.2 -78.25 -14.15 -77.9 -9.45 -76.2 -5.1 -74.6 -1.25 -72.3 1.35 -81.9 5.15 -91.15 L5.15 -91.5 5.2 -91.8 5.05 -92.0 Q-1.05 -101.75 0.3 -113.65 L0.85 -117.6 Q2.05 -124.5 5.1 -130.65 L-2.65 -130.2 -6.95 -129.95 Q-14.35 -129.05 -21.3 -126.55 -21.45 -123.85 -24.15 -123.35 -26.95 -122.9 -29.2 -124.35 -30.9 -125.45 -30.4 -127.5 -29.45 -131.25 -25.2 -132.15 L-15.2 -134.25 Q-4.15 -136.55 7.1 -137.3 L9.2 -137.5 Q13.3 -143.4 18.5 -148.55 L19.0 -149.05" fill="#000000" fill-rule="evenodd" stroke="none"/>
  </g>
</svg>
