<?xml version="1.0" encoding="UTF-8" standalone="no"?>
<svg xmlns:ffdec="https://www.free-decompiler.com/flash" xmlns:xlink="http://www.w3.org/1999/xlink" ffdec:objectType="shape" height="129.75px" width="141.5px" xmlns="http://www.w3.org/2000/svg">
  <g transform="matrix(1.0, 0.0, 0.0, 1.0, 62.25, 178.9)">
    <path d="M46.0 -170.75 Q45.55 -169.7 45.65 -168.5 45.8 -166.4 45.6 -164.4 L45.25 -164.0 45.2 -162.9 Q45.15 -162.1 45.35 -161.4 46.05 -160.65 47.1 -160.65 L47.8 -160.2 Q48.5 -160.0 48.75 -159.4 L48.65 -159.05 47.75 -157.9 47.65 -157.15 47.5 -156.75 Q45.95 -156.0 45.15 -154.55 43.6 -151.7 42.75 -148.5 L42.7 -147.4 Q42.65 -146.6 42.85 -145.9 43.65 -145.2 44.65 -144.85 47.15 -144.0 49.05 -145.5 53.0 -148.75 56.25 -152.9 L56.75 -152.5 57.45 -151.2 Q58.55 -149.8 58.25 -148.0 L59.35 -146.9 Q60.4 -145.85 61.75 -146.65 64.8 -148.5 67.6 -149.15 L68.5 -145.4 Q68.7 -144.55 69.45 -144.35 74.75 -143.0 79.25 -140.4 78.85 -138.95 77.35 -138.3 74.1 -136.8 72.25 -134.0 72.6 -133.05 73.4 -132.3 76.1 -129.75 77.1 -126.5 73.9 -127.3 71.6 -125.5 67.45 -125.65 64.75 -122.9 L64.75 -121.75 64.75 -120.65 64.5 -120.25 64.25 -119.9 64.25 -119.5 64.25 -119.15 64.0 -118.75 63.75 -118.4 63.75 -117.65 63.75 -117.25 59.3 -121.8 58.55 -122.2 Q52.55 -123.2 49.0 -118.0 L48.5 -118.15 Q46.75 -119.85 44.7 -121.25 42.45 -122.75 39.7 -121.35 34.2 -118.5 29.75 -114.0 L27.6 -114.15 Q26.0 -114.9 24.5 -115.9 20.45 -118.6 17.75 -115.25 L17.75 -114.15 17.75 -113.0 18.1 -112.65 Q22.4 -108.95 27.35 -106.15 L27.1 -105.9 26.25 -104.75 26.25 -103.65 26.25 -102.5 Q26.8 -101.95 27.5 -101.65 33.8 -98.9 40.75 -100.5 L40.45 -98.45 Q39.85 -96.25 40.35 -93.9 45.55 -92.45 50.75 -94.5 L50.7 -91.5 Q50.65 -88.65 50.85 -85.9 L51.95 -85.65 Q56.9 -86.25 61.75 -87.5 L61.75 -86.9 61.75 -86.15 62.1 -85.35 Q62.3 -84.7 63.05 -84.5 L76.85 -81.25 Q73.85 -79.0 70.75 -76.9 L70.75 -75.4 70.75 -73.5 71.05 -73.1 71.25 -72.75 71.25 -72.4 71.25 -72.0 71.9 -71.2 Q72.6 -70.2 72.75 -69.0 L73.5 -68.25 Q75.0 -66.75 75.75 -64.9 L67.0 -64.15 Q65.55 -64.0 64.75 -62.9 L64.75 -60.65 64.75 -56.5 63.5 -56.8 Q55.25 -59.3 50.25 -53.0 L50.2 -52.65 50.1 -52.25 49.65 -51.85 46.75 -49.15 42.95 -53.95 42.35 -54.4 Q37.8 -56.65 32.75 -56.15 L33.1 -57.65 33.25 -59.9 33.5 -60.25 34.1 -61.0 34.3 -62.15 34.1 -64.0 Q29.7 -67.45 23.75 -68.0 L22.95 -69.85 Q21.8 -72.3 21.25 -74.75 17.75 -80.05 11.75 -76.5 L11.45 -76.3 Q9.55 -75.05 8.5 -73.25 L7.95 -73.1 7.6 -73.15 4.75 -76.5 3.0 -77.6 -0.65 -77.45 Q-4.7 -75.75 -8.15 -73.0 L-8.3 -73.35 Q-8.75 -74.15 -9.65 -74.5 -10.7 -76.5 -12.7 -77.35 -16.35 -78.85 -19.75 -77.5 -22.2 -74.9 -25.25 -75.0 L-25.55 -76.2 Q-25.9 -77.4 -26.75 -78.4 L-26.8 -79.15 -26.9 -79.5 -27.35 -80.3 Q-28.6 -83.75 -32.1 -82.15 L-38.9 -79.15 Q-41.35 -80.2 -43.6 -81.65 L-45.5 -82.7 Q-50.25 -85.0 -53.25 -81.0 L-54.15 -80.95 -54.25 -81.0 -55.5 -82.2 Q-58.6 -85.95 -62.25 -89.15 -58.65 -88.75 -56.75 -91.25 L-56.75 -93.5 Q-56.7 -96.55 -58.25 -99.15 L-51.55 -101.1 Q-50.9 -101.3 -50.7 -101.95 -49.25 -107.3 -48.25 -112.75 -46.0 -111.2 -43.3 -112.15 -42.65 -112.4 -42.35 -112.95 -39.75 -118.05 -35.4 -120.4 L-31.85 -116.65 -30.75 -115.0 Q-28.75 -110.6 -24.65 -111.15 -20.15 -117.2 -15.45 -111.85 -12.6 -108.6 -9.0 -109.25 -8.75 -109.8 -8.8 -110.4 L-8.65 -112.65 -8.3 -113.05 Q-7.4 -114.15 -6.0 -114.75 L-5.85 -115.5 -5.75 -116.25 -6.05 -116.55 Q-7.7 -117.6 -8.5 -118.75 L-8.1 -119.45 -3.75 -124.75 -3.75 -125.15 -3.75 -125.5 -3.5 -125.9 -3.25 -126.25 -3.3 -127.0 Q-3.35 -127.7 -3.95 -127.8 -12.4 -129.05 -20.5 -126.65 L-21.15 -127.8 -22.25 -130.75 Q-22.6 -131.15 -22.95 -131.2 -27.4 -131.8 -31.75 -130.4 L-32.1 -131.15 Q-32.35 -131.65 -32.25 -132.25 L-32.95 -133.5 Q-33.3 -134.05 -33.95 -134.15 L-43.15 -134.9 Q-44.55 -136.25 -45.75 -137.9 L-46.85 -139.0 Q-50.55 -141.2 -52.25 -144.0 L-51.05 -144.5 Q-49.95 -145.1 -49.25 -146.25 L-49.3 -148.9 Q-49.45 -151.8 -50.65 -154.5 L-44.6 -155.25 Q-43.7 -155.4 -43.25 -156.25 L-43.1 -158.5 Q-42.5 -161.0 -42.75 -163.75 L-42.5 -164.15 -41.75 -165.25 -41.8 -166.0 -41.65 -167.15 -41.25 -167.5 -40.5 -168.15 Q-38.7 -166.0 -36.2 -165.15 L-34.75 -165.2 -27.75 -168.75 -27.6 -168.4 Q-27.1 -167.8 -26.25 -167.65 -24.95 -164.9 -22.55 -162.95 -22.1 -162.55 -21.55 -162.65 -15.3 -163.6 -9.65 -166.9 L-9.25 -166.5 -8.25 -165.4 -8.25 -164.65 -8.15 -163.9 -7.75 -163.5 -6.75 -162.4 -6.75 -161.65 -6.75 -160.5 -6.4 -160.1 -5.75 -159.4 -5.75 -159.0 -5.75 -158.65 Q-4.25 -156.35 -2.0 -157.75 L-1.65 -158.45 Q-0.8 -159.65 0.35 -160.4 2.5 -159.3 4.5 -157.85 L5.65 -157.75 Q10.15 -160.7 10.25 -166.5 13.7 -164.95 16.25 -166.75 L16.5 -168.95 Q17.05 -171.2 17.25 -173.5 L17.45 -173.9 17.85 -174.65 Q18.6 -174.05 19.45 -174.1 24.0 -174.25 26.75 -178.65 L27.5 -178.9 27.7 -178.6 28.25 -177.9 Q28.15 -177.3 28.35 -176.75 L29.75 -173.75 29.75 -173.0 29.75 -172.65 31.0 -171.05 Q31.25 -170.75 31.45 -170.7 36.85 -169.05 42.7 -170.6 L46.0 -170.75" fill="#ffff00" fill-opacity="0.5019608" fill-rule="evenodd" stroke="none"/>
  </g>
</svg>
