<?xml version="1.0" encoding="UTF-8" standalone="no"?>
<svg xmlns:ffdec="https://www.free-decompiler.com/flash" xmlns:xlink="http://www.w3.org/1999/xlink" ffdec:objectType="shape" height="101.05px" width="107.55px" xmlns="http://www.w3.org/2000/svg">
  <g transform="matrix(1.0, 0.0, 0.0, 1.0, 45.15, 163.3)">
    <path d="M16.6 -153.95 Q17.25 -157.3 19.8 -159.85 23.25 -163.3 28.15 -163.3 33.05 -163.3 36.5 -159.85 39.95 -156.4 39.95 -151.5 39.95 -146.6 36.5 -143.15 33.2 -139.85 28.65 -139.7 L27.05 -140.2 24.95 -139.8 Q23.55 -141.15 21.15 -142.0 L19.8 -143.15 18.75 -144.35 18.55 -143.95 18.45 -145.05 Q16.75 -141.65 15.5 -138.1 37.15 -138.1 58.8 -137.75 60.95 -137.75 61.9 -135.7 63.45 -132.4 60.05 -131.2 56.95 -130.15 53.95 -131.15 52.85 -131.55 52.0 -132.25 L15.1 -132.15 14.45 -132.15 13.7 -132.2 13.6 -131.85 12.2 -126.3 Q9.45 -115.65 10.25 -104.4 10.4 -101.85 11.4 -99.4 L11.6 -98.85 Q14.3 -98.1 16.9 -96.85 18.55 -96.05 20.2 -95.4 26.45 -92.95 32.75 -90.6 33.85 -90.2 34.55 -89.25 L47.2 -71.35 49.0 -68.95 Q53.35 -72.35 57.05 -76.5 57.4 -76.85 58.0 -76.8 62.1 -76.5 60.65 -72.8 59.55 -70.05 57.25 -67.95 53.85 -64.8 49.95 -62.5 L48.5 -62.3 Q45.3 -63.05 43.35 -65.9 L32.55 -82.0 Q30.8 -84.55 28.3 -85.9 L25.55 -87.05 Q16.8 -89.55 9.1 -94.25 L8.65 -94.2 8.2 -94.2 6.3 -93.35 Q1.35 -91.0 -4.05 -89.25 -9.4 -87.55 -15.0 -86.9 -16.6 -86.7 -17.7 -87.85 -18.8 -89.0 -20.35 -89.45 L-22.25 -90.2 Q-29.05 -93.45 -36.2 -96.25 -38.85 -91.75 -40.45 -86.8 -40.65 -86.2 -41.3 -86.0 -45.15 -84.8 -45.15 -88.65 L-44.8 -92.15 Q-43.35 -98.55 -37.95 -102.25 L-36.85 -102.75 Q-26.45 -98.9 -16.45 -94.3 L-13.8 -92.75 Q-4.05 -94.95 5.05 -99.2 4.0 -102.15 3.95 -105.45 3.75 -116.7 6.45 -127.3 L8.45 -135.0 Q6.0 -135.5 3.7 -136.45 -6.45 -140.55 -17.25 -143.35 -22.95 -144.8 -28.7 -145.6 -32.15 -142.0 -35.8 -145.5 -36.95 -146.65 -36.9 -148.5 -36.8 -151.55 -33.8 -151.95 -22.8 -151.25 -12.2 -148.05 L-5.7 -146.0 5.2 -142.1 Q7.55 -141.2 10.0 -140.45 10.9 -143.35 12.1 -146.2 13.85 -150.4 16.65 -153.85 L16.6 -153.95" fill="#000000" fill-rule="evenodd" stroke="none"/>
  </g>
</svg>
