<?xml version="1.0" encoding="UTF-8" standalone="no"?>
<svg xmlns:ffdec="https://www.free-decompiler.com/flash" xmlns:xlink="http://www.w3.org/1999/xlink" ffdec:objectType="shape" height="114.25px" width="142.5px" xmlns="http://www.w3.org/2000/svg">
  <g transform="matrix(1.0, 0.0, 0.0, 1.0, 57.75, 179.25)">
    <path d="M2.25 -129.25 Q1.85 -130.05 1.0 -130.25 L0.25 -130.0 Q-4.1 -128.2 -8.0 -130.75 L-8.05 -130.7 -8.5 -130.6 -8.75 -130.5 -10.8 -128.0 -12.65 -125.2 Q-15.9 -124.65 -18.25 -122.25 L-18.25 -121.15 -18.15 -120.4 Q-14.8 -118.6 -11.0 -118.9 L-10.65 -119.15 -10.4 -119.5 -10.25 -119.25 Q-10.85 -117.85 -10.85 -116.25 L-10.65 -112.9 Q-8.55 -111.9 -6.75 -111.75 L-6.6 -111.45 Q-5.35 -110.15 -4.0 -111.25 L-3.7 -112.4 Q-3.6 -113.95 -4.0 -115.4 L-1.9 -117.1 Q0.25 -118.95 -0.25 -121.75 L-0.95 -122.4 Q-1.85 -123.1 -1.75 -124.0 L-0.35 -125.4 Q1.95 -126.85 2.25 -129.25 M81.2 -104.5 Q82.3 -101.85 83.85 -99.4 L84.25 -99.0 Q77.55 -100.25 74.25 -95.9 L74.1 -91.75 Q73.9 -87.55 75.75 -83.9 74.55 -83.65 73.45 -84.3 67.05 -88.0 63.25 -82.0 L63.05 -80.95 Q62.8 -80.1 62.25 -79.4 L62.0 -78.7 60.25 -76.0 59.0 -76.0 58.25 -76.9 54.35 -81.9 Q49.85 -84.85 44.75 -82.5 L44.7 -83.25 44.6 -84.0 44.05 -84.8 42.35 -87.0 Q42.1 -89.35 39.9 -89.9 L35.35 -89.65 Q31.15 -88.0 28.85 -84.9 L28.3 -84.45 26.75 -83.0 25.6 -83.0 23.5 -84.35 Q19.2 -87.4 16.75 -83.5 L16.35 -80.5 15.6 -74.4 Q12.05 -77.2 7.5 -77.75 L5.45 -76.75 Q2.1 -74.25 1.1 -70.4 L0.35 -69.25 -0.5 -67.15 -1.0 -67.25 Q-3.15 -69.8 -6.05 -71.2 -6.95 -71.65 -7.7 -71.2 L-18.25 -65.0 -18.15 -66.5 Q-17.9 -68.35 -19.25 -69.5 L-19.25 -69.9 -19.25 -70.25 Q-26.75 -74.75 -35.9 -75.0 -33.45 -77.0 -31.4 -79.15 L-31.2 -80.25 -31.25 -81.75 Q-34.35 -84.4 -37.75 -85.75 L-37.25 -86.95 Q-36.7 -87.95 -36.65 -89.15 -35.6 -89.85 -35.25 -91.0 -34.5 -93.5 -34.75 -96.25 -35.15 -97.05 -36.0 -97.1 L-53.25 -97.9 -53.5 -99.7 Q-54.6 -103.5 -57.75 -106.5 -54.25 -106.5 -51.75 -108.25 L-51.45 -111.25 -51.25 -117.65 -50.9 -118.0 -42.95 -118.85 Q-42.6 -118.9 -42.25 -119.25 L-42.45 -121.1 -42.9 -124.5 -43.15 -124.85 Q-43.95 -125.8 -45.0 -126.4 L-45.5 -126.95 -48.4 -129.4 Q-47.85 -129.8 -47.6 -130.45 -47.05 -131.95 -47.4 -133.5 -48.4 -134.45 -48.4 -135.75 -48.45 -138.4 -49.25 -141.0 -45.2 -139.85 -42.25 -141.75 L-42.25 -145.15 -42.25 -151.5 Q-41.65 -151.95 -41.5 -152.65 L-40.9 -154.5 -39.25 -154.5 -38.5 -153.75 Q-38.15 -153.4 -37.7 -153.3 -35.9 -152.9 -34.6 -153.7 -30.65 -156.1 -28.25 -160.15 L-27.5 -160.25 Q-23.7 -156.65 -19.0 -154.75 -14.2 -156.65 -10.5 -160.15 L-6.25 -156.65 -6.25 -156.25 -6.15 -155.9 Q-3.95 -153.7 -1.15 -154.65 L-0.7 -155.35 Q-0.25 -156.05 -0.25 -156.9 0.55 -157.7 0.85 -158.8 1.4 -160.75 1.25 -162.9 5.05 -161.35 7.1 -164.0 7.35 -166.6 6.9 -169.2 6.2 -173.15 5.75 -177.15 L11.1 -174.0 13.25 -172.45 Q15.0 -171.0 17.3 -172.1 22.55 -174.65 26.5 -179.25 30.2 -176.1 33.25 -171.25 L33.75 -170.85 47.75 -171.4 47.7 -170.65 47.6 -169.9 47.25 -169.5 46.75 -168.75 Q46.85 -167.9 46.6 -167.15 L45.6 -163.9 45.35 -163.45 45.25 -162.75 Q47.2 -160.8 50.25 -161.0 L50.05 -160.75 49.5 -159.65 49.05 -159.2 48.6 -158.5 Q47.75 -158.15 47.25 -157.4 L47.25 -157.0 47.25 -156.65 46.95 -156.3 46.25 -155.5 46.2 -155.15 46.1 -154.75 45.6 -154.35 45.25 -154.0 45.2 -153.25 45.1 -152.9 44.75 -152.5 44.7 -151.75 44.6 -151.4 44.25 -151.0 44.25 -148.75 44.25 -144.65 Q44.8 -143.55 46.0 -143.25 L46.5 -143.4 46.75 -143.5 46.95 -143.75 48.25 -145.25 48.25 -145.65 48.25 -146.0 48.5 -146.4 48.75 -146.75 48.75 -147.5 48.85 -147.9 Q51.2 -150.7 54.0 -151.75 54.75 -151.4 54.9 -150.6 55.3 -148.35 56.75 -146.5 56.75 -145.75 57.0 -145.15 58.0 -143.1 58.35 -140.9 58.9 -140.55 59.35 -140.7 62.9 -141.6 66.0 -144.15 L66.45 -143.75 66.75 -143.4 Q66.6 -142.2 67.0 -141.15 68.0 -138.6 68.35 -135.9 68.55 -135.7 68.75 -135.7 L77.1 -134.95 77.5 -134.75 Q77.15 -132.3 74.25 -131.0 L74.2 -130.65 74.1 -130.25 70.75 -127.25 70.75 -126.5 70.75 -125.0 Q78.55 -121.1 84.75 -116.0 L79.75 -111.4 79.75 -109.9 79.75 -108.0 80.05 -107.6 80.25 -107.25 80.25 -106.5 80.25 -106.15 81.2 -104.5" fill="#ffff00" fill-opacity="0.5019608" fill-rule="evenodd" stroke="none"/>
  </g>
</svg>
