<?xml version="1.0" encoding="UTF-8" standalone="no"?>
<svg xmlns:ffdec="https://www.free-decompiler.com/flash" xmlns:xlink="http://www.w3.org/1999/xlink" ffdec:objectType="shape" height="83.0px" width="108.95px" xmlns="http://www.w3.org/2000/svg">
  <g transform="matrix(1.0, 0.0, 0.0, 1.0, 39.7, 166.15)">
    <path d="M15.0 -158.35 Q15.4 -159.3 16.1 -159.7 16.9 -161.3 18.3 -162.7 21.75 -166.15 26.65 -166.15 31.55 -166.15 35.0 -162.7 38.45 -159.25 38.45 -154.35 38.45 -149.45 35.0 -146.0 31.7 -142.7 27.15 -142.55 L25.55 -143.05 23.45 -142.65 Q22.05 -144.0 19.65 -144.85 L18.3 -146.0 17.55 -146.85 16.6 -142.7 Q26.75 -142.4 36.65 -140.4 47.55 -138.2 57.85 -134.35 59.6 -133.7 61.0 -132.45 62.45 -131.15 61.75 -129.3 60.5 -125.85 56.75 -127.0 54.2 -127.75 52.3 -129.55 L50.9 -130.35 Q40.35 -133.6 29.45 -135.45 L21.25 -136.5 15.3 -137.0 12.9 -126.35 Q12.7 -121.25 11.7 -116.3 10.8 -111.85 10.65 -107.3 L10.6 -104.2 10.75 -104.2 Q13.25 -105.1 16.4 -106.95 17.8 -107.75 19.35 -108.25 27.05 -110.5 33.3 -115.45 L34.2 -115.7 Q37.7 -115.3 40.75 -113.15 48.2 -107.85 55.05 -101.75 59.1 -103.65 61.8 -107.6 62.95 -109.25 64.45 -110.55 67.15 -112.85 68.8 -109.75 69.95 -107.55 68.2 -105.7 L60.3 -97.85 Q56.4 -94.05 51.95 -96.8 49.15 -98.5 47.0 -100.8 L46.15 -101.7 Q41.0 -106.25 35.0 -109.6 27.7 -103.95 18.65 -101.6 17.05 -101.2 15.7 -100.15 L12.2 -97.65 10.8 -96.85 Q2.55 -87.8 -9.2 -83.7 -10.7 -83.15 -12.25 -83.15 -15.45 -83.1 -16.15 -86.25 -16.8 -89.3 -17.95 -92.15 -19.4 -95.65 -20.25 -99.25 -21.7 -105.4 -24.0 -111.3 L-24.3 -112.2 Q-30.1 -111.0 -35.15 -107.4 -37.3 -105.9 -38.95 -107.95 -40.6 -110.05 -38.5 -111.7 -32.25 -116.6 -24.65 -118.85 L-23.7 -119.05 -22.65 -119.3 Q-18.25 -117.15 -17.85 -111.85 L-17.85 -111.55 Q-15.25 -104.15 -13.15 -96.65 -12.45 -94.15 -11.4 -91.7 L-10.85 -89.95 Q-2.55 -92.65 4.1 -98.75 L4.25 -98.85 Q4.05 -99.5 4.1 -100.3 4.6 -111.25 6.55 -121.95 L7.55 -128.8 7.8 -129.4 9.2 -136.75 7.55 -136.85 Q-5.95 -137.65 -19.45 -137.55 L-20.15 -137.55 -26.7 -136.8 -26.7 -136.55 Q-28.3 -132.5 -32.85 -134.4 -35.8 -135.6 -35.1 -138.9 L-35.0 -139.2 Q-33.1 -142.45 -29.15 -142.55 L-20.35 -143.5 8.1 -143.6 10.7 -143.5 12.25 -149.65 12.75 -151.55 Q13.6 -155.1 15.0 -158.35" fill="#000000" fill-rule="evenodd" stroke="none"/>
  </g>
</svg>
