<?xml version="1.0" encoding="UTF-8" standalone="no"?>
<svg xmlns:ffdec="https://www.free-decompiler.com/flash" xmlns:xlink="http://www.w3.org/1999/xlink" ffdec:objectType="shape" height="134.35px" width="110.35px" xmlns="http://www.w3.org/2000/svg">
  <g transform="matrix(1.0, 0.0, 0.0, 1.0, 43.0, 194.0)">
    <path d="M45.0 -184.4 L44.9 -184.0 Q43.95 -178.6 43.75 -173.15 42.75 -172.35 42.75 -171.25 47.1 -169.15 51.75 -168.9 51.1 -167.15 49.5 -166.25 L49.25 -165.85 49.0 -165.15 Q46.9 -163.8 46.25 -161.75 48.2 -159.7 51.1 -159.0 L51.15 -158.65 51.25 -154.5 Q52.35 -153.45 52.35 -151.9 52.9 -151.55 53.5 -151.5 L63.25 -150.65 Q63.8 -147.45 62.25 -145.0 L62.2 -144.65 62.1 -143.9 61.75 -143.5 61.75 -143.15 61.75 -141.65 Q63.25 -140.05 65.25 -139.0 65.9 -137.55 67.35 -136.9 L61.25 -130.9 61.25 -130.5 61.25 -130.15 61.0 -129.75 60.75 -129.0 Q61.8 -127.1 62.35 -124.9 L63.5 -124.25 50.55 -123.3 46.0 -122.25 45.8 -121.85 Q45.65 -121.1 45.85 -120.4 L47.1 -119.5 52.1 -114.9 Q49.7 -114.35 48.25 -112.75 L48.25 -112.4 48.25 -109.0 50.85 -105.65 Q46.95 -104.4 44.25 -101.4 L44.25 -101.0 44.25 -99.15 Q47.45 -94.35 52.1 -90.9 L49.7 -89.85 Q44.55 -88.05 40.25 -85.4 L40.2 -85.0 Q40.05 -81.65 41.25 -78.65 42.8 -76.15 44.6 -73.75 37.45 -77.1 30.0 -76.25 L29.85 -75.9 29.6 -74.4 29.25 -74.0 29.25 -73.65 29.25 -67.25 Q27.15 -69.5 23.9 -70.35 22.6 -70.65 21.75 -69.9 15.05 -64.0 7.6 -59.65 5.5 -61.75 4.6 -64.5 3.85 -65.75 2.45 -65.95 -6.6 -67.1 -14.75 -65.0 L-14.75 -65.75 Q-14.7 -66.35 -15.1 -66.65 -20.05 -70.45 -26.15 -72.15 -24.3 -73.9 -23.25 -76.25 L-23.25 -76.65 Q-23.25 -78.4 -23.9 -80.0 -25.6 -82.8 -28.0 -84.9 L-30.65 -87.9 Q-24.95 -90.3 -20.75 -94.75 L-20.75 -95.15 -20.75 -96.25 -22.25 -98.15 -22.3 -98.5 -22.5 -99.25 -24.75 -102.65 -24.8 -103.0 -25.25 -105.65 Q-21.4 -106.1 -17.65 -107.15 L-17.45 -107.55 Q-17.2 -108.25 -17.25 -109.0 -16.1 -111.1 -15.9 -113.5 L-15.0 -113.65 Q-9.3 -109.8 -5.25 -113.75 L-5.25 -114.15 -5.25 -114.5 Q-3.3 -118.35 -3.25 -122.75 -6.15 -124.8 -10.25 -124.5 -9.95 -129.4 -11.2 -133.85 L-11.6 -134.3 Q-16.6 -135.4 -21.55 -132.1 -26.0 -129.1 -30.25 -128.0 L-30.3 -128.35 Q-30.7 -130.0 -30.75 -131.75 -34.0 -134.1 -38.25 -134.65 -42.0 -135.2 -43.0 -137.4 L-42.8 -137.55 -42.0 -138.5 Q-40.1 -139.4 -38.75 -141.15 -37.75 -141.3 -37.05 -142.05 -36.3 -142.75 -36.3 -143.65 -36.35 -148.9 -40.25 -153.0 L-40.3 -153.35 Q-40.55 -154.75 -41.15 -156.0 L-35.6 -156.7 Q-33.75 -157.1 -32.75 -158.75 -31.25 -164.9 -27.5 -169.25 L-25.15 -166.65 Q-23.9 -164.45 -22.0 -162.85 L-20.85 -162.75 -9.25 -170.9 Q-9.35 -169.8 -8.85 -168.8 L-8.2 -167.5 Q-6.15 -162.65 -1.65 -163.15 0.9 -168.6 0.5 -174.75 L0.75 -174.95 5.9 -176.05 Q7.6 -176.5 8.25 -178.25 L8.25 -178.65 Q8.1 -186.05 9.25 -193.25 L9.5 -193.65 9.75 -194.0 Q12.6 -190.45 14.25 -185.5 L15.1 -184.75 15.2 -184.35 15.25 -184.0 Q16.1 -181.8 18.25 -182.5 L22.85 -187.65 Q23.85 -187.25 24.25 -186.25 24.25 -185.0 25.2 -184.15 28.6 -181.15 28.85 -176.9 L30.0 -176.25 30.5 -176.4 30.75 -176.5 Q37.1 -181.95 45.0 -184.4" fill="#ffff00" fill-opacity="0.5019608" fill-rule="evenodd" stroke="none"/>
  </g>
</svg>
