<?xml version="1.0" encoding="UTF-8" standalone="no"?>
<svg xmlns:ffdec="https://www.free-decompiler.com/flash" xmlns:xlink="http://www.w3.org/1999/xlink" ffdec:objectType="shape" height="92.6px" width="80.3px" xmlns="http://www.w3.org/2000/svg">
  <g transform="matrix(1.0, 0.0, 0.0, 1.0, 27.75, 169.7)">
    <path d="M14.1 -166.25 Q17.55 -169.7 22.45 -169.7 27.35 -169.7 30.8 -166.25 34.25 -162.8 34.25 -157.9 34.25 -153.0 30.8 -149.55 27.5 -146.25 22.95 -146.1 L21.35 -146.6 19.25 -146.2 Q18.25 -147.2 16.7 -147.9 L16.5 -146.25 37.65 -144.1 41.9 -143.7 Q46.45 -143.35 50.45 -141.35 53.1 -140.0 52.4 -136.95 51.55 -133.05 47.1 -134.15 45.05 -134.65 44.8 -136.65 38.8 -138.55 32.1 -139.0 L18.85 -139.95 Q17.15 -140.05 15.7 -140.6 L13.5 -124.75 13.3 -124.15 Q12.45 -116.95 12.65 -109.75 L13.9 -111.85 Q16.45 -115.6 18.6 -119.6 19.5 -121.25 21.15 -121.35 24.05 -121.3 24.4 -118.5 L24.4 -118.2 31.15 -104.1 31.6 -103.1 Q32.0 -108.25 36.1 -110.65 L37.65 -110.55 Q40.5 -108.45 38.9 -105.1 36.8 -100.65 36.15 -95.7 35.45 -90.65 30.75 -91.65 29.55 -91.9 29.05 -93.0 28.65 -93.85 28.55 -94.75 25.4 -102.45 21.6 -109.8 21.35 -110.3 21.25 -110.9 L20.95 -111.2 20.75 -111.4 Q17.9 -106.4 14.85 -101.75 L14.75 -101.6 14.85 -100.8 Q15.9 -89.65 14.2 -78.7 14.0 -77.2 12.5 -77.1 9.3 -76.9 7.45 -79.9 5.25 -83.4 1.85 -86.0 L-3.3 -89.95 -5.05 -91.5 Q-4.85 -86.85 -6.05 -82.35 -6.35 -81.35 -7.5 -81.25 -11.6 -80.9 -11.3 -84.8 -10.7 -92.05 -10.6 -99.45 -10.55 -101.9 -8.05 -101.85 -5.7 -101.8 -4.5 -99.7 -3.4 -97.8 -1.7 -96.3 3.7 -91.55 9.35 -87.35 10.1 -95.2 8.4 -102.6 L6.85 -103.2 Q6.4 -104.05 6.4 -105.35 6.3 -116.5 7.9 -127.25 L9.6 -139.3 10.1 -142.85 Q0.55 -143.7 -9.0 -143.3 L-20.35 -142.1 Q-20.85 -140.8 -22.0 -140.0 -24.95 -138.05 -27.1 -141.2 -28.55 -143.35 -26.85 -145.15 -24.95 -147.15 -22.2 -147.65 L-9.6 -149.4 Q-0.95 -150.15 7.45 -149.05 L10.75 -148.6 11.45 -155.8 11.65 -157.3 11.35 -157.65 11.35 -158.0 Q11.45 -159.5 10.9 -160.35 11.55 -163.7 14.1 -166.25" fill="#000000" fill-rule="evenodd" stroke="none"/>
  </g>
</svg>
