<?xml version="1.0" encoding="UTF-8" standalone="no"?>
<svg xmlns:ffdec="https://www.free-decompiler.com/flash" xmlns:xlink="http://www.w3.org/1999/xlink" ffdec:objectType="shape" height="127.1px" width="109.35px" xmlns="http://www.w3.org/2000/svg">
  <g transform="matrix(1.0, 0.0, 0.0, 1.0, 34.25, 184.1)">
    <path d="M54.05 -152.1 L54.25 -151.75 54.25 -151.0 54.25 -150.25 54.25 -149.5 54.55 -149.1 54.95 -148.7 Q59.45 -147.55 64.25 -148.5 L64.15 -147.9 Q63.45 -145.15 63.6 -142.25 L63.75 -138.15 64.4 -137.45 Q65.7 -136.45 67.35 -136.4 L67.75 -136.15 71.6 -135.15 Q71.9 -134.8 72.3 -134.65 L74.0 -134.15 74.7 -133.5 75.1 -133.0 71.3 -130.9 67.75 -128.4 67.75 -126.9 67.7 -125.4 Q67.65 -124.6 67.85 -123.9 L68.4 -123.1 69.0 -122.05 69.75 -120.5 59.8 -119.6 Q59.15 -119.5 58.75 -118.9 L58.75 -118.5 58.75 -118.15 58.0 -117.0 Q57.7 -116.45 57.75 -115.9 L57.6 -114.4 57.25 -114.0 57.25 -113.65 57.2 -113.25 57.1 -113.0 55.4 -114.8 Q49.2 -120.3 42.0 -118.25 L41.8 -117.85 41.75 -117.5 41.7 -117.15 41.6 -116.75 41.1 -116.35 40.75 -116.0 40.75 -114.9 40.75 -114.15 40.85 -113.4 42.35 -111.6 Q43.55 -109.9 45.5 -109.25 L45.6 -109.0 45.75 -108.65 45.85 -108.25 45.6 -107.9 43.95 -106.6 Q42.95 -106.0 42.25 -105.0 L42.25 -104.65 42.25 -104.25 42.25 -103.9 42.25 -103.5 44.85 -101.05 48.85 -98.25 Q47.45 -96.55 45.7 -95.3 44.05 -94.1 43.25 -92.4 L43.25 -92.0 43.25 -91.65 43.0 -91.25 42.75 -90.9 42.75 -89.4 42.7 -87.5 Q42.65 -86.15 42.85 -84.9 L43.25 -84.55 43.95 -84.2 44.1 -84.0 44.6 -83.35 45.6 -82.5 45.75 -82.15 46.0 -81.75 46.15 -81.35 46.1 -81.0 44.75 -80.75 Q39.35 -80.65 35.75 -77.0 34.55 -73.0 34.7 -68.8 L34.6 -63.25 34.0 -63.3 Q33.85 -63.3 33.75 -63.4 L26.95 -68.25 Q26.3 -68.7 25.75 -69.2 22.2 -72.2 19.25 -70.0 L19.25 -69.65 19.2 -69.25 19.1 -68.9 18.15 -67.75 17.2 -65.5 Q16.75 -64.05 15.75 -62.9 L15.55 -61.8 Q15.1 -60.9 14.95 -59.95 L14.35 -57.65 11.9 -60.15 Q8.05 -63.2 3.1 -61.8 -3.7 -59.9 -9.5 -57.0 L-10.1 -59.15 Q-10.25 -60.75 -10.85 -62.3 -11.25 -63.45 -11.25 -64.75 -11.95 -65.8 -13.0 -66.5 -16.1 -68.5 -19.75 -69.0 -18.95 -70.25 -16.65 -71.2 -14.6 -72.05 -13.4 -74.0 L-13.3 -74.75 -13.25 -75.5 -13.25 -76.25 -13.55 -76.6 -13.9 -77.0 -14.5 -77.4 -14.75 -77.8 -15.4 -79.05 Q-15.95 -80.0 -17.15 -80.4 L-17.6 -81.05 -18.5 -81.9 Q-19.2 -83.1 -20.45 -83.9 -21.95 -84.85 -22.9 -86.4 -22.35 -87.75 -21.05 -88.5 -19.0 -89.7 -17.25 -91.25 L-17.25 -91.65 -17.25 -92.0 -17.0 -92.4 -16.75 -92.75 -16.75 -94.25 -16.75 -96.15 -16.75 -98.75 -17.0 -99.15 -17.95 -100.6 Q-18.4 -101.05 -18.5 -101.75 L-19.0 -102.15 -20.25 -103.55 -21.25 -105.5 Q-14.95 -106.15 -9.0 -107.75 L-8.75 -108.9 -8.8 -113.75 -8.65 -117.15 -5.6 -118.5 -2.5 -120.25 -2.4 -120.65 -2.3 -121.0 -2.25 -121.4 -2.25 -121.75 -2.55 -122.1 -2.9 -122.45 -3.75 -123.0 -3.9 -124.1 -4.5 -126.05 Q-4.85 -127.1 -4.75 -128.25 L-5.3 -129.0 Q-7.25 -131.7 -10.25 -130.1 -15.35 -127.35 -20.25 -124.75 -20.2 -125.75 -20.45 -126.7 L-20.8 -128.9 Q-20.95 -131.05 -23.05 -131.4 L-30.65 -132.4 -30.1 -133.1 Q-28.45 -134.8 -28.35 -137.25 L-28.25 -140.25 -28.55 -140.55 -31.3 -142.75 -34.25 -145.0 -33.15 -145.9 Q-32.35 -146.3 -31.75 -147.0 -26.4 -148.95 -27.55 -154.95 -28.3 -158.85 -28.65 -162.75 L-27.7 -162.15 Q-24.0 -160.6 -21.0 -162.75 -20.55 -164.15 -19.35 -165.15 L-16.65 -167.65 -16.0 -167.75 Q-13.6 -167.0 -12.1 -164.95 -9.55 -161.55 -5.5 -160.25 -2.3 -162.1 -1.95 -166.0 L-1.75 -170.5 -1.5 -170.9 -1.3 -171.25 -1.1 -171.6 -0.9 -172.0 Q0.05 -171.9 0.85 -171.45 2.35 -170.7 3.85 -171.65 L5.65 -178.4 Q6.25 -180.6 6.5 -182.9 7.25 -183.65 8.2 -182.5 9.5 -180.9 11.6 -180.65 L11.75 -180.5 12.8 -179.6 Q13.8 -178.9 15.0 -178.75 L15.6 -179.0 Q22.5 -181.15 29.25 -184.0 L29.5 -184.1 30.2 -184.0 30.25 -183.9 30.25 -183.15 30.25 -181.65 30.25 -180.5 30.85 -179.75 Q31.35 -179.1 31.3 -178.25 L31.25 -177.15 Q31.55 -176.75 31.9 -176.7 L42.25 -174.65 Q40.5 -171.85 38.05 -169.45 34.65 -166.25 32.75 -162.75 35.1 -161.5 37.75 -160.65 L37.6 -158.7 37.05 -156.5 36.6 -153.9 36.25 -153.5 35.9 -153.1 35.75 -152.75 35.75 -152.0 35.7 -150.5 Q35.65 -149.9 35.85 -149.4 L36.25 -149.05 37.0 -148.75 37.6 -149.05 37.9 -149.4 38.25 -150.15 39.25 -150.5 Q45.85 -153.25 52.75 -155.15 L52.9 -154.4 53.2 -153.6 53.35 -152.9 53.75 -152.5 54.05 -152.1" fill="#ffff00" fill-opacity="0.5019608" fill-rule="evenodd" stroke="none"/>
  </g>
</svg>
