<?xml version="1.0" encoding="UTF-8" standalone="no"?>
<svg xmlns:ffdec="https://www.free-decompiler.com/flash" xmlns:xlink="http://www.w3.org/1999/xlink" ffdec:objectType="shape" height="96.4px" width="74.05px" xmlns="http://www.w3.org/2000/svg">
  <g transform="matrix(1.0, 0.0, 0.0, 1.0, 21.65, 170.4)">
    <path d="M9.45 -166.95 Q12.9 -170.4 17.8 -170.4 22.7 -170.4 26.15 -166.95 29.6 -163.5 29.6 -158.6 29.6 -153.7 26.15 -150.25 22.9 -147.0 18.35 -146.8 L18.25 -146.25 18.45 -146.3 Q29.6 -145.65 40.4 -143.05 L46.95 -141.2 Q49.0 -140.55 50.55 -139.2 53.95 -136.35 51.15 -133.0 49.55 -131.1 46.85 -131.6 43.15 -132.35 42.85 -135.95 36.65 -138.95 29.45 -139.45 L22.75 -140.15 18.5 -140.75 17.5 -140.95 17.1 -137.75 Q15.9 -127.4 15.9 -116.9 L16.15 -117.4 Q17.1 -119.4 18.85 -120.5 19.45 -120.9 20.0 -120.95 23.75 -119.85 24.65 -115.55 25.25 -112.65 25.25 -109.75 25.3 -105.9 25.95 -102.45 29.85 -105.35 31.1 -100.75 31.35 -99.75 31.05 -98.75 29.5 -92.95 27.1 -87.65 26.9 -87.2 26.4 -87.1 22.2 -86.3 21.55 -90.45 L21.35 -91.95 Q19.75 -101.2 19.4 -110.7 18.1 -107.45 14.85 -106.7 L14.35 -105.1 9.8 -94.25 Q7.1 -84.35 3.8 -74.75 3.6 -74.2 2.95 -74.1 -0.9 -73.4 -0.9 -77.2 L-1.05 -93.3 Q-3.4 -89.05 -6.65 -92.95 -7.2 -93.55 -6.95 -94.45 -5.6 -99.7 -3.35 -104.55 -2.35 -109.0 1.8 -109.4 2.8 -109.5 3.2 -108.55 4.4 -105.8 4.15 -102.6 3.85 -99.6 4.45 -96.75 6.4 -100.9 7.5 -105.35 7.65 -106.0 8.2 -106.45 8.25 -108.55 9.6 -109.8 10.3 -115.0 10.25 -120.3 10.2 -131.55 11.65 -142.45 L11.75 -143.1 Q5.95 -144.7 -0.05 -144.85 L-13.25 -145.0 Q-13.05 -143.75 -13.85 -142.8 -17.05 -139.15 -20.9 -142.35 -21.9 -143.25 -21.55 -144.65 -20.3 -149.95 -14.95 -150.95 -4.4 -151.8 5.9 -150.55 L9.95 -149.8 9.45 -150.25 8.9 -150.8 8.3 -151.25 8.2 -151.05 8.2 -151.35 8.1 -151.4 Q6.65 -152.7 6.4 -154.6 6.05 -157.5 6.55 -160.4 L6.25 -161.05 Q6.9 -164.4 9.45 -166.95" fill="#000000" fill-rule="evenodd" stroke="none"/>
  </g>
</svg>
