<?xml version="1.0" encoding="UTF-8" standalone="no"?>
<svg xmlns:ffdec="https://www.free-decompiler.com/flash" xmlns:xlink="http://www.w3.org/1999/xlink" ffdec:objectType="shape" height="129.75px" width="115.25px" xmlns="http://www.w3.org/2000/svg">
  <g transform="matrix(1.0, 0.0, 0.0, 1.0, 39.5, 187.75)">
    <path d="M41.65 -152.55 Q42.3 -151.55 43.45 -151.7 47.7 -152.25 50.1 -156.0 50.25 -155.4 50.7 -155.0 54.15 -151.8 58.0 -149.25 L68.75 -149.45 68.75 -149.25 68.25 -148.5 67.75 -147.75 Q68.0 -145.95 67.6 -144.3 67.15 -142.1 67.35 -139.9 L68.1 -139.15 Q71.85 -135.8 75.75 -132.9 L68.0 -130.75 Q67.55 -128.6 67.6 -126.25 L67.75 -118.75 Q64.45 -121.25 60.35 -122.3 59.1 -122.65 58.2 -121.9 55.3 -119.5 53.25 -116.25 47.35 -121.65 43.3 -128.8 42.85 -129.55 42.0 -129.45 38.05 -128.95 35.75 -125.0 L35.7 -124.65 35.6 -124.25 35.1 -123.85 34.75 -123.5 Q31.6 -124.65 29.25 -123.0 L29.15 -121.9 Q29.1 -121.25 29.5 -120.75 L30.0 -120.4 Q30.2 -119.55 30.85 -118.85 L35.25 -113.65 Q35.0 -113.25 34.65 -113.1 31.9 -111.85 29.75 -109.9 L29.75 -109.5 29.75 -109.15 29.85 -108.4 Q35.1 -105.8 39.75 -102.4 L39.7 -100.5 Q39.65 -99.15 39.85 -97.9 42.15 -96.7 44.85 -96.65 47.9 -95.75 50.25 -94.25 L50.0 -92.45 49.75 -90.9 49.3 -90.45 48.75 -89.75 48.7 -87.9 Q48.65 -87.1 48.85 -86.4 L49.25 -86.1 Q52.3 -84.6 54.1 -82.5 53.6 -81.45 52.55 -80.95 50.3 -79.9 48.75 -77.9 L48.7 -76.4 Q48.65 -75.6 48.85 -74.9 L49.9 -73.9 53.75 -70.5 Q48.3 -71.0 44.75 -67.5 L44.7 -67.15 44.6 -66.75 44.1 -66.35 43.75 -66.0 Q43.7 -64.45 43.1 -62.9 42.1 -60.45 42.0 -58.0 41.25 -58.3 40.55 -58.75 36.9 -61.25 32.8 -62.45 26.95 -64.2 22.6 -59.9 L19.65 -63.95 Q19.0 -64.85 18.0 -65.05 11.0 -66.75 4.85 -63.4 L4.05 -64.8 Q3.0 -65.95 1.55 -66.25 -7.05 -68.2 -15.0 -64.75 -15.9 -65.3 -16.3 -66.25 L-17.25 -69.25 Q-17.75 -70.1 -18.65 -70.35 -24.1 -72.1 -29.75 -73.0 L-29.55 -73.3 -29.2 -74.0 -28.75 -74.75 -28.75 -76.25 -28.75 -77.75 -29.35 -78.55 Q-30.35 -80.2 -31.9 -81.5 L-27.55 -82.1 Q-26.85 -82.25 -26.65 -82.95 -25.45 -87.25 -25.5 -91.9 -20.05 -89.4 -15.9 -92.0 L-15.8 -92.4 -15.75 -92.75 -15.75 -93.5 -15.5 -93.9 -15.25 -94.25 -15.35 -96.15 Q-15.45 -97.35 -15.0 -98.4 -13.6 -99.4 -13.1 -101.05 -12.1 -104.3 -13.75 -107.0 L-13.75 -107.4 -13.8 -107.75 -13.9 -108.5 Q-11.35 -107.95 -9.5 -109.25 -9.1 -111.25 -9.25 -113.4 -9.45 -116.65 -9.0 -119.65 L-8.15 -118.9 Q-4.3 -115.7 -1.75 -119.25 L-1.75 -119.65 -1.75 -120.0 -1.05 -121.1 -0.65 -122.25 Q0.05 -122.6 0.45 -123.25 L1.75 -125.25 Q2.0 -127.45 1.4 -129.4 1.1 -130.45 0.05 -130.35 -4.3 -129.9 -8.25 -127.5 -9.95 -129.45 -12.0 -130.8 L-15.35 -130.95 Q-19.95 -128.65 -24.75 -127.5 L-25.1 -127.9 -25.25 -128.25 Q-25.15 -129.3 -25.55 -130.2 -26.4 -132.2 -28.55 -132.4 L-37.9 -133.0 -38.35 -133.65 -38.75 -134.4 -38.05 -135.0 Q-36.45 -135.85 -35.25 -137.25 L-35.2 -139.15 -35.4 -141.0 Q-36.55 -142.1 -37.05 -143.55 L-39.25 -149.65 -39.3 -150.35 -39.5 -151.15 -36.0 -151.75 Q-35.25 -151.85 -34.85 -152.55 -32.7 -156.75 -31.75 -161.5 L-31.0 -161.55 -30.75 -161.5 -27.0 -158.5 Q-26.2 -157.9 -25.3 -157.95 -19.8 -158.15 -15.65 -162.65 -14.45 -161.95 -13.55 -160.85 -10.5 -157.3 -7.25 -159.25 L-6.85 -163.4 Q-6.6 -167.0 -7.25 -170.5 L-5.55 -171.0 Q-4.8 -171.3 -4.4 -172.0 L-4.3 -172.4 -4.25 -172.75 -4.25 -173.5 -4.0 -173.9 -3.75 -174.25 -3.8 -177.25 Q-3.8 -179.2 -3.0 -180.9 -1.55 -180.2 0.0 -180.15 2.05 -180.1 3.65 -181.75 L7.5 -186.0 8.0 -186.35 10.5 -187.75 11.0 -187.65 18.0 -180.05 18.45 -179.7 Q25.75 -177.65 32.6 -181.25 L32.7 -180.85 32.75 -180.5 Q33.45 -179.9 33.6 -179.0 L33.75 -177.15 34.0 -176.75 34.25 -176.4 34.25 -176.0 34.25 -175.65 34.35 -174.9 34.75 -174.6 37.75 -173.4 37.75 -171.9 37.75 -170.4 37.3 -169.95 36.75 -169.25 36.75 -168.9 36.75 -168.5 36.75 -168.15 Q35.85 -167.15 35.45 -165.95 34.7 -163.65 33.25 -161.75 33.35 -160.9 33.05 -160.15 L32.5 -159.15 32.0 -158.7 31.75 -158.4 31.75 -158.0 31.7 -157.65 31.6 -156.9 31.2 -156.15 30.25 -155.0 30.2 -153.5 Q30.15 -152.9 30.35 -152.4 L30.75 -152.05 31.5 -151.75 32.05 -152.1 32.75 -152.75 33.45 -152.95 34.0 -153.25 34.35 -153.9 37.6 -157.4 38.25 -157.15 38.25 -156.75 38.35 -156.4 Q40.2 -154.65 41.65 -152.55" fill="#ffff00" fill-opacity="0.5019608" fill-rule="evenodd" stroke="none"/>
  </g>
</svg>
