<?xml version="1.0" encoding="UTF-8" standalone="no"?>
<svg xmlns:ffdec="https://www.free-decompiler.com/flash" xmlns:xlink="http://www.w3.org/1999/xlink" ffdec:objectType="shape" height="95.55px" width="89.2px" xmlns="http://www.w3.org/2000/svg">
  <g transform="matrix(1.0, 0.0, 0.0, 1.0, 27.25, 168.1)">
    <path d="M16.55 -164.65 Q18.9 -162.3 19.65 -159.25 L20.05 -157.1 20.35 -144.75 20.6 -144.75 Q21.45 -144.8 21.95 -144.05 L43.9 -146.0 55.7 -147.05 Q60.2 -148.15 61.65 -144.3 62.55 -141.8 60.6 -140.05 57.6 -137.25 54.15 -139.9 L53.6 -140.4 Q49.25 -141.0 44.5 -140.3 L35.7 -139.2 20.55 -138.65 20.35 -138.65 20.25 -134.95 Q20.05 -123.85 20.15 -112.75 L20.15 -112.3 Q22.25 -111.25 21.2 -108.65 22.05 -107.5 20.95 -105.65 20.35 -104.7 19.3 -104.6 L19.25 -104.45 Q19.15 -103.9 18.55 -103.7 15.55 -98.6 11.95 -93.95 L10.65 -92.2 Q8.7 -89.4 7.5 -86.15 15.35 -86.4 23.05 -87.75 25.4 -88.15 27.7 -88.9 31.8 -90.15 33.15 -86.0 L34.0 -83.05 Q37.65 -79.9 39.5 -75.75 39.9 -74.75 39.2 -73.95 36.65 -71.05 34.1 -74.15 L30.95 -77.85 Q29.15 -79.9 27.85 -82.3 21.0 -80.65 13.1 -80.35 8.2 -80.2 3.3 -80.55 1.5 -80.7 1.3 -82.5 0.8 -87.45 3.35 -91.75 6.9 -97.75 11.2 -103.2 L13.05 -105.7 11.15 -106.3 Q3.9 -108.75 -3.15 -110.8 -3.85 -105.85 -3.5 -100.75 -3.1 -94.9 -2.95 -88.95 -2.85 -85.6 -4.15 -82.75 -4.75 -81.45 -6.2 -81.15 -12.9 -79.8 -19.3 -81.15 -19.95 -81.25 -20.15 -81.95 -21.15 -85.25 -17.6 -85.6 L-9.0 -86.9 Q-8.85 -92.0 -9.15 -97.0 -9.55 -102.85 -9.05 -108.8 L-8.15 -115.65 Q-8.05 -116.35 -7.4 -116.8 -6.6 -117.4 -5.75 -117.45 0.25 -116.5 6.0 -114.4 L14.05 -111.55 Q14.0 -121.45 14.2 -131.2 L14.3 -139.1 Q6.1 -139.35 -1.95 -140.55 -11.0 -141.9 -19.75 -140.4 -19.9 -136.75 -23.55 -137.35 -27.75 -138.0 -27.15 -141.9 -26.75 -144.65 -23.65 -145.6 L-18.05 -147.05 2.45 -145.9 3.5 -145.75 1.2 -146.8 -0.15 -147.95 -1.2 -149.15 -1.4 -148.75 -1.5 -149.65 -2.65 -151.15 Q-4.5 -154.8 -3.15 -158.35 L-3.35 -158.75 Q-2.7 -162.1 -0.15 -164.65 3.3 -168.1 8.2 -168.1 13.1 -168.1 16.55 -164.65 M11.45 -144.9 L14.3 -144.75 14.3 -146.15 Q12.95 -145.3 11.45 -144.9" fill="#000000" fill-rule="evenodd" stroke="none"/>
  </g>
</svg>
