<?xml version="1.0" encoding="UTF-8" standalone="no"?>
<svg xmlns:ffdec="https://www.free-decompiler.com/flash" xmlns:xlink="http://www.w3.org/1999/xlink" ffdec:objectType="shape" height="155.9px" width="123.1px" xmlns="http://www.w3.org/2000/svg">
  <g transform="matrix(1.0, 0.0, 0.0, 1.0, 36.25, 181.0)">
    <path d="M86.85 -138.4 Q85.55 -137.8 84.2 -137.75 75.8 -137.3 69.75 -131.9 L69.8 -128.5 Q69.9 -126.15 69.1 -124.0 63.95 -126.0 59.0 -125.75 L58.7 -125.0 58.5 -124.65 58.0 -124.25 57.75 -123.9 57.7 -123.5 57.6 -123.15 57.1 -122.75 56.25 -122.0 56.2 -121.65 56.1 -121.25 55.35 -120.4 54.6 -119.4 54.0 -119.25 Q51.05 -121.05 48.4 -123.25 44.25 -126.7 41.75 -122.9 L41.75 -122.15 41.75 -121.4 40.95 -120.55 40.6 -119.9 Q36.65 -118.15 32.5 -117.25 32.1 -116.6 32.15 -115.75 L32.25 -114.65 32.65 -113.85 33.25 -112.75 33.3 -112.0 33.5 -111.25 33.95 -110.85 34.25 -110.5 Q34.35 -108.8 34.85 -107.15 35.65 -104.6 35.1 -101.9 34.9 -101.7 34.7 -101.6 30.4 -100.15 28.25 -97.25 28.45 -96.35 29.45 -96.1 L36.25 -94.25 36.25 -93.9 36.25 -93.5 36.6 -93.1 37.25 -92.4 37.25 -89.4 37.25 -86.0 Q41.85 -82.55 47.75 -82.9 47.4 -81.35 46.3 -80.1 43.65 -77.15 41.25 -73.9 L41.2 -72.4 Q41.15 -71.6 41.35 -70.9 L42.55 -69.85 45.75 -66.9 Q40.6 -65.55 36.25 -62.5 L36.45 -60.7 Q36.65 -59.65 37.25 -58.75 L37.25 -58.4 37.25 -58.0 38.4 -56.95 Q39.4 -56.15 39.6 -55.0 36.5 -55.8 34.35 -54.15 L33.55 -51.4 31.0 -46.0 30.65 -46.2 Q27.6 -48.45 24.85 -51.0 24.7 -51.75 24.15 -52.3 20.8 -55.85 18.75 -52.4 L18.75 -51.25 18.75 -50.15 18.25 -49.35 18.1 -49.0 16.0 -48.25 Q13.8 -47.5 12.25 -45.9 L12.2 -44.4 Q12.15 -43.6 12.35 -42.9 L13.2 -41.8 Q13.75 -40.55 14.6 -39.5 14.8 -38.35 15.45 -37.35 16.45 -35.95 16.1 -34.4 12.2 -35.1 10.25 -31.9 L10.25 -31.5 10.25 -31.15 10.0 -30.75 9.75 -30.4 9.75 -30.0 9.75 -29.65 8.65 -28.85 Q8.0 -28.3 7.85 -27.4 L6.9 -26.6 Q6.15 -26.0 5.85 -25.15 L5.35 -25.1 5.0 -25.25 3.25 -27.05 Q0.9 -30.1 -0.75 -33.5 L-0.75 -33.9 -0.75 -34.25 -1.45 -34.9 Q-2.7 -35.7 -3.65 -34.65 L-12.15 -26.0 -12.7 -26.55 -13.25 -27.25 Q-13.25 -28.75 -13.6 -30.2 L-14.4 -34.4 -13.95 -35.15 Q-13.7 -35.7 -13.75 -36.25 L-14.45 -36.85 Q-16.05 -37.8 -17.25 -36.5 L-17.25 -36.15 -17.3 -35.75 -17.4 -35.4 Q-19.7 -34.6 -21.75 -33.5 -26.2 -32.05 -30.25 -32.15 L-30.0 -32.85 -29.75 -33.25 -29.4 -36.3 Q-29.1 -39.35 -29.75 -42.25 -31.7 -44.2 -34.65 -43.0 -34.25 -44.55 -34.0 -46.3 -33.65 -48.9 -33.9 -51.5 L-34.7 -52.7 -35.65 -54.15 -33.25 -54.9 Q-23.95 -56.6 -16.25 -61.75 L-16.25 -62.5 -16.25 -63.25 Q-19.15 -65.6 -22.25 -67.4 L-21.9 -67.85 Q-18.3 -69.0 -17.9 -72.4 -18.5 -73.35 -19.45 -74.0 -23.7 -77.2 -27.0 -81.4 L-26.6 -81.8 -26.15 -82.5 Q-17.0 -85.5 -9.9 -91.5 -9.65 -92.8 -9.7 -94.15 -9.75 -95.9 -10.4 -97.5 L-11.7 -99.05 Q-12.75 -100.45 -13.25 -102.0 L-12.95 -102.35 -11.75 -103.5 Q-6.7 -105.0 -2.25 -108.0 L-2.05 -108.25 -1.75 -108.65 -1.05 -108.9 -0.65 -109.15 -0.05 -110.25 Q0.3 -111.0 0.25 -111.75 L-0.7 -113.2 Q-1.5 -114.85 -2.75 -116.25 0.95 -119.15 5.85 -120.65 L6.15 -121.4 6.1 -122.5 Q2.6 -125.35 -2.0 -125.05 -3.1 -125.0 -4.0 -124.35 -9.75 -120.4 -16.5 -119.75 L-17.6 -122.4 Q-17.8 -123.05 -18.4 -123.05 L-29.25 -122.15 -27.3 -127.7 Q-26.15 -131.35 -26.25 -135.25 -31.1 -137.6 -36.25 -139.4 L-36.25 -140.15 -36.25 -140.9 -36.0 -141.25 -35.4 -142.0 -26.55 -142.55 -26.0 -142.75 Q-25.4 -144.15 -25.95 -145.5 -26.75 -147.4 -26.75 -149.5 -16.55 -149.15 -6.5 -149.75 L-6.35 -150.5 -6.25 -151.25 -7.0 -151.85 Q-9.8 -153.25 -12.4 -155.15 -8.45 -156.3 -4.35 -156.95 0.8 -157.7 2.25 -161.75 -1.05 -164.25 -4.75 -165.9 L-5.45 -166.35 -6.5 -167.15 -6.0 -167.85 -4.75 -169.0 1.05 -169.8 Q1.4 -169.9 1.75 -170.25 1.45 -172.0 0.55 -173.5 -1.4 -176.7 -0.4 -180.0 4.75 -179.0 9.6 -176.65 10.3 -175.85 11.25 -175.65 12.6 -175.4 13.6 -175.95 17.65 -178.25 21.6 -181.0 23.55 -179.6 24.45 -176.5 L26.85 -167.9 Q28.35 -166.65 30.3 -167.25 32.9 -168.05 35.55 -168.45 36.05 -168.5 36.15 -168.15 37.35 -163.75 36.85 -158.9 39.1 -157.3 41.85 -156.9 L42.25 -156.6 45.5 -155.25 46.35 -155.65 Q48.1 -156.6 49.25 -158.25 L49.25 -158.65 49.25 -159.0 50.4 -160.1 52.0 -162.0 56.75 -165.0 57.6 -165.0 58.0 -164.9 Q61.75 -160.25 64.3 -154.8 L64.75 -154.4 Q71.65 -154.6 78.6 -156.65 L78.95 -156.25 79.25 -155.9 Q79.5 -153.35 78.95 -150.95 78.3 -147.85 78.25 -144.65 L78.55 -144.3 86.85 -138.4" fill="#ffff00" fill-opacity="0.5019608" fill-rule="evenodd" stroke="none"/>
  </g>
</svg>
