<?xml version="1.0" encoding="UTF-8" standalone="no"?>
<svg xmlns:ffdec="https://www.free-decompiler.com/flash" xmlns:xlink="http://www.w3.org/1999/xlink" ffdec:objectType="shape" height="119.4px" width="86.55px" xmlns="http://www.w3.org/2000/svg">
  <g transform="matrix(1.0, 0.0, 0.0, 1.0, 21.2, 165.65)">
    <path d="M5.1 -156.3 Q5.75 -159.65 8.3 -162.2 11.75 -165.65 16.65 -165.65 21.55 -165.65 25.0 -162.2 27.7 -159.5 28.3 -155.85 29.35 -154.25 28.7 -151.6 27.7 -147.7 27.1 -143.6 L49.35 -145.4 60.7 -146.55 Q66.75 -146.7 64.95 -141.15 63.75 -137.5 59.8 -138.3 58.15 -138.65 57.35 -140.1 L33.1 -137.75 27.0 -137.6 Q26.65 -136.45 25.7 -136.15 L25.2 -134.35 22.05 -113.85 21.5 -110.95 Q22.15 -109.6 21.2 -107.45 19.1 -102.55 15.75 -98.2 12.0 -93.45 8.65 -88.4 L8.3 -87.85 9.3 -87.6 Q14.65 -86.15 20.15 -85.5 23.4 -85.1 26.1 -83.55 27.05 -83.0 27.0 -81.8 26.7 -74.15 25.6 -66.6 25.2 -63.6 22.2 -64.35 19.35 -65.0 19.85 -68.0 20.85 -73.3 21.05 -78.85 13.4 -79.85 5.95 -82.2 5.4 -80.0 5.4 -77.6 5.4 -73.95 4.7 -70.35 L4.2 -67.55 Q3.35 -62.25 2.8 -56.8 L2.45 -52.8 Q2.25 -49.4 0.25 -46.9 -0.25 -46.3 -1.15 -46.25 -7.9 -46.1 -14.3 -47.5 -14.85 -47.65 -15.05 -48.15 -16.45 -51.6 -12.65 -52.3 -9.2 -52.95 -5.8 -52.4 L-3.9 -52.25 Q-2.7 -61.4 -1.15 -70.35 -0.15 -76.45 -0.1 -82.8 L0.05 -84.3 -0.45 -84.5 Q-6.65 -86.95 -3.1 -92.8 1.0 -99.7 7.0 -105.4 L12.05 -110.5 14.7 -113.45 15.55 -114.05 Q17.5 -123.0 18.95 -132.0 L19.7 -136.4 4.15 -137.85 Q-4.65 -138.85 -13.35 -137.5 -14.8 -134.55 -18.1 -135.85 -23.15 -137.8 -20.0 -141.85 -18.85 -143.35 -16.9 -143.3 L-11.1 -143.85 Q0.25 -144.9 11.3 -143.2 L12.4 -143.05 Q11.25 -143.8 9.65 -144.35 L8.3 -145.5 7.25 -146.7 7.05 -146.3 7.0 -147.0 Q6.45 -147.5 6.15 -148.2 4.25 -152.15 5.15 -156.25 L5.1 -156.3 M20.75 -142.7 L18.7 -142.2 20.6 -141.95 20.75 -142.7 M2.55 -90.3 Q4.3 -93.4 6.4 -96.3 4.1 -93.6 2.5 -90.35 L2.55 -90.3" fill="#000000" fill-rule="evenodd" stroke="none"/>
  </g>
</svg>
