<?xml version="1.0" encoding="UTF-8" standalone="no"?>
<svg xmlns:ffdec="https://www.free-decompiler.com/flash" xmlns:xlink="http://www.w3.org/1999/xlink" ffdec:objectType="shape" height="143.4px" width="136.3px" xmlns="http://www.w3.org/2000/svg">
  <g transform="matrix(1.0, 0.0, 0.0, 1.0, 52.5, 185.8)">
    <path d="M83.0 -140.0 L83.25 -139.65 Q83.9 -139.1 83.75 -138.5 81.9 -138.05 80.5 -136.75 75.3 -132.0 73.0 -125.65 71.1 -127.25 68.55 -127.75 66.55 -128.15 64.9 -127.35 61.7 -125.85 59.5 -122.9 58.75 -122.35 58.0 -122.15 56.55 -122.8 55.25 -123.55 49.95 -126.65 44.25 -126.5 L42.25 -124.4 42.1 -123.7 40.75 -119.15 Q40.4 -118.75 40.05 -118.7 35.85 -118.05 33.75 -115.4 35.5 -113.1 37.75 -110.9 L37.7 -109.0 Q37.65 -106.15 37.85 -103.4 41.0 -101.75 44.75 -101.65 L44.9 -101.45 45.75 -100.25 45.75 -99.15 46.35 -93.9 47.45 -93.6 60.75 -95.0 60.95 -94.75 62.25 -92.9 62.25 -92.15 62.25 -90.65 Q62.55 -90.25 62.95 -90.15 68.75 -88.3 75.25 -88.5 76.3 -88.5 75.75 -87.9 L71.75 -83.4 71.75 -82.65 71.75 -81.5 75.75 -77.4 75.8 -77.0 Q75.95 -76.35 75.6 -75.9 72.0 -75.65 70.25 -72.75 L70.25 -67.15 70.25 -57.0 Q63.0 -58.9 60.75 -52.25 L60.75 -50.4 Q60.8 -46.25 59.5 -42.5 L58.5 -42.4 Q56.25 -43.75 53.85 -44.4 47.85 -47.7 40.75 -46.75 L40.75 -47.15 Q41.05 -49.6 39.0 -50.9 L32.0 -55.9 Q35.05 -57.85 37.6 -60.5 L37.7 -61.25 37.75 -62.75 Q34.6 -65.25 32.3 -68.35 31.6 -69.3 30.5 -69.7 25.2 -71.4 20.75 -67.9 L20.85 -70.85 Q21.05 -73.05 18.95 -73.3 11.5 -74.15 5.25 -76.75 L5.25 -77.15 5.25 -77.5 5.75 -78.25 5.75 -78.65 5.75 -79.0 6.25 -79.75 6.25 -80.9 6.25 -85.75 Q5.85 -86.55 5.0 -86.75 3.85 -86.45 3.2 -85.6 -0.8 -80.3 -5.25 -76.25 -6.3 -77.9 -7.85 -76.8 -8.45 -76.4 -8.5 -75.75 -8.95 -70.7 -10.9 -66.25 -13.9 -68.5 -17.35 -69.7 L-19.65 -69.6 Q-25.75 -66.2 -30.25 -61.4 L-30.9 -62.5 Q-33.1 -66.35 -34.65 -70.4 -36.15 -72.9 -39.1 -73.3 L-47.25 -74.0 Q-46.75 -74.45 -46.4 -75.0 -46.3 -75.2 -46.35 -75.4 -46.5 -76.95 -45.4 -78.0 L-45.3 -78.75 Q-44.95 -81.3 -46.5 -83.25 L-52.5 -88.15 Q-48.95 -89.9 -46.4 -93.0 L-46.3 -93.4 -46.25 -93.75 -45.4 -94.5 -44.95 -96.0 Q-43.85 -100.3 -46.25 -103.5 L-46.25 -103.9 -46.4 -105.0 -47.75 -106.5 Q-47.75 -106.9 -47.9 -107.2 -48.5 -108.5 -48.75 -109.9 -47.85 -109.7 -47.1 -109.1 -42.0 -105.2 -38.5 -110.15 L-38.25 -109.85 Q-37.6 -108.3 -36.75 -106.9 L-36.75 -106.5 Q-36.85 -103.25 -34.0 -101.75 -31.3 -102.5 -29.2 -104.2 -26.3 -106.5 -22.65 -106.15 L-21.7 -107.7 Q-18.4 -111.6 -19.25 -117.0 L-15.65 -116.3 Q-12.35 -115.25 -10.75 -118.25 L-10.75 -118.65 Q-10.7 -121.05 -8.75 -122.75 L-8.75 -123.5 -8.75 -125.75 Q-9.1 -126.15 -9.45 -126.15 -15.55 -126.85 -21.5 -125.15 -23.0 -127.35 -25.65 -127.4 -27.85 -129.3 -30.9 -128.5 L-29.9 -129.5 -29.8 -129.9 Q-29.7 -130.45 -29.9 -131.0 L-36.25 -138.5 -36.3 -138.85 -36.4 -140.0 Q-32.2 -140.15 -30.25 -143.75 L-30.3 -145.65 -30.75 -152.0 Q-27.35 -152.25 -24.05 -153.15 -22.75 -153.55 -21.75 -154.75 L-21.75 -155.15 -21.65 -155.5 -21.35 -155.85 Q-19.45 -157.8 -19.25 -160.4 -19.0 -161.15 -18.25 -161.15 L-15.5 -157.75 Q-11.95 -153.15 -9.25 -157.75 L-9.35 -159.6 Q-9.6 -162.95 -8.75 -166.0 L-1.0 -165.75 Q-0.35 -168.15 -0.25 -170.65 -0.1 -175.35 -0.65 -179.9 3.9 -176.7 9.5 -176.9 L11.0 -178.25 Q11.65 -180.05 13.25 -181.25 L13.25 -181.65 13.25 -182.0 13.6 -182.4 14.75 -184.25 15.6 -185.0 15.7 -185.4 15.75 -185.75 15.95 -185.8 17.0 -185.15 Q17.35 -182.8 19.35 -181.75 20.5 -179.95 22.0 -178.4 L22.5 -177.25 Q23.35 -176.5 24.5 -176.25 26.45 -176.55 27.75 -178.0 L33.25 -179.5 33.05 -177.4 Q32.4 -173.6 32.75 -169.5 L33.25 -168.75 33.2 -168.0 Q33.2 -166.5 34.25 -165.4 L34.25 -165.0 34.25 -164.65 34.75 -163.9 34.75 -163.5 Q34.7 -162.0 35.75 -160.9 L35.65 -159.4 Q35.2 -156.1 36.75 -153.4 L36.7 -153.0 Q36.65 -152.4 36.85 -151.9 38.4 -150.55 40.0 -151.75 L40.05 -152.15 40.35 -153.65 Q41.2 -153.8 41.6 -154.5 L41.7 -154.9 41.75 -155.25 42.6 -156.0 42.7 -156.4 42.85 -157.15 43.4 -157.9 Q45.0 -160.75 47.0 -162.75 L49.75 -159.4 49.75 -159.0 49.75 -158.65 Q51.85 -154.2 56.35 -156.55 L64.5 -161.0 64.75 -160.65 Q66.65 -158.15 67.85 -155.4 L68.45 -154.55 Q68.7 -153.95 69.3 -153.85 73.45 -153.15 76.75 -154.0 L76.5 -153.75 Q75.2 -152.2 74.25 -150.4 L74.2 -149.25 Q74.0 -146.7 74.85 -144.4 79.05 -142.55 83.0 -140.0" fill="#ffff00" fill-opacity="0.5019608" fill-rule="evenodd" stroke="none"/>
  </g>
</svg>
