<?xml version="1.0" encoding="UTF-8" standalone="no"?>
<svg xmlns:ffdec="https://www.free-decompiler.com/flash" xmlns:xlink="http://www.w3.org/1999/xlink" ffdec:objectType="shape" height="105.7px" width="108.55px" xmlns="http://www.w3.org/2000/svg">
  <g transform="matrix(1.0, 0.0, 0.0, 1.0, 43.5, 166.5)">
    <path d="M18.55 -166.5 Q23.45 -166.5 26.9 -163.05 30.35 -159.6 30.35 -154.7 30.35 -150.45 27.8 -147.3 L27.3 -143.85 28.25 -144.0 55.7 -146.1 55.7 -146.15 Q59.15 -146.8 62.2 -145.55 66.2 -143.95 64.6 -139.9 63.95 -138.2 62.05 -137.8 58.05 -136.9 56.2 -140.2 L26.55 -138.35 25.05 -130.4 24.5 -127.8 Q24.95 -126.3 24.4 -124.15 L24.3 -123.75 22.95 -116.35 21.7 -109.25 Q22.65 -108.1 22.8 -106.25 22.9 -105.5 23.25 -104.85 28.05 -96.15 31.6 -86.9 L62.7 -83.0 Q63.6 -82.85 63.7 -81.9 64.1 -77.85 61.9 -74.25 L60.6 -72.7 Q59.35 -66.95 57.15 -61.6 56.85 -60.75 55.9 -60.8 51.7 -60.85 52.45 -65.15 53.5 -71.1 55.85 -76.65 L56.7 -78.05 Q43.35 -80.15 29.45 -81.25 28.0 -81.35 27.45 -82.75 23.95 -91.05 19.45 -98.75 17.7 -101.8 16.75 -105.0 16.05 -105.5 15.9 -106.5 8.35 -102.45 -0.2 -100.75 L-3.8 -99.7 -11.3 -92.55 -20.05 -84.4 Q-20.95 -82.8 -22.15 -81.3 L-22.35 -80.75 Q-23.35 -78.9 -24.75 -78.6 L-25.2 -78.1 -25.65 -78.6 Q-26.85 -78.75 -28.25 -79.8 L-37.6 -86.95 Q-40.45 -89.2 -42.75 -91.75 -44.1 -93.2 -42.95 -94.9 -42.1 -96.2 -40.7 -96.25 -35.5 -94.25 -31.35 -90.1 -29.35 -88.15 -26.95 -86.6 L-26.1 -86.0 -25.75 -86.45 -25.35 -86.8 Q-19.2 -94.25 -11.75 -100.55 -9.2 -102.7 -6.85 -105.05 -6.65 -105.25 -6.3 -105.3 6.1 -107.2 16.5 -113.8 L16.85 -115.6 17.9 -120.8 Q17.45 -121.85 17.7 -123.45 18.0 -125.5 18.7 -127.3 L18.55 -127.3 19.0 -129.6 20.25 -136.65 Q15.6 -136.25 11.0 -136.45 2.2 -136.9 -6.55 -136.0 L-11.95 -135.35 Q-13.6 -135.15 -14.85 -133.95 -15.35 -133.5 -16.1 -133.45 -21.6 -133.05 -20.6 -138.05 -20.4 -138.95 -19.65 -139.55 -16.9 -141.85 -13.05 -141.75 L0.0 -142.3 20.95 -141.45 21.15 -143.15 19.05 -142.9 18.2 -143.15 16.35 -143.25 15.35 -143.0 14.7 -143.6 Q11.9 -144.35 9.6 -146.45 L7.45 -148.85 Q6.15 -150.6 6.35 -152.9 L6.7 -156.4 Q6.8 -157.45 7.25 -158.15 8.05 -160.9 10.2 -163.05 13.65 -166.5 18.55 -166.5" fill="#000000" fill-rule="evenodd" stroke="none"/>
  </g>
</svg>
