<?xml version="1.0" encoding="UTF-8" standalone="no"?>
<svg xmlns:ffdec="https://www.free-decompiler.com/flash" xmlns:xlink="http://www.w3.org/1999/xlink" ffdec:objectType="shape" height="113.25px" width="124.0px" xmlns="http://www.w3.org/2000/svg">
  <g transform="matrix(1.0, 0.0, 0.0, 1.0, 49.9, 175.3)">
    <path d="M46.85 -149.75 L47.05 -149.15 47.25 -147.65 48.0 -145.75 Q48.4 -143.75 48.25 -141.65 48.55 -141.25 48.95 -141.15 55.4 -139.55 61.75 -142.4 61.8 -140.55 61.2 -138.9 60.1 -135.9 61.0 -132.75 L62.25 -132.3 Q68.3 -131.55 74.1 -129.5 70.35 -127.65 67.25 -124.9 L67.15 -123.75 Q67.1 -122.9 67.5 -122.25 L68.1 -121.45 Q69.3 -119.0 71.1 -117.0 L71.2 -116.65 71.1 -115.5 Q64.95 -115.45 60.25 -112.4 L60.25 -111.65 60.25 -110.5 60.55 -110.1 Q61.95 -107.25 64.6 -105.5 64.8 -104.8 65.35 -104.4 63.1 -102.85 61.25 -100.9 L61.25 -100.15 61.25 -99.0 61.55 -98.6 Q62.65 -96.6 64.75 -95.65 L64.9 -95.5 Q67.35 -94.8 68.75 -92.75 L68.75 -92.0 68.75 -90.9 67.85 -90.15 67.75 -89.4 67.3 -88.95 Q66.05 -87.15 64.35 -85.65 L64.25 -85.25 64.1 -84.5 63.25 -83.4 63.25 -82.65 63.25 -81.5 63.6 -81.1 Q64.45 -80.1 65.75 -79.65 66.35 -78.65 67.6 -78.65 68.35 -77.7 69.6 -77.65 L69.85 -77.35 Q71.05 -75.95 72.6 -75.15 71.6 -74.2 70.05 -73.55 64.4 -71.15 60.1 -66.4 58.6 -66.1 57.25 -66.9 L55.15 -67.6 Q47.25 -68.85 42.6 -62.4 41.9 -61.9 41.25 -62.15 39.8 -64.9 37.9 -67.45 L37.45 -67.8 Q29.7 -68.9 22.25 -65.9 L22.2 -66.25 Q21.5 -68.45 19.35 -68.9 17.35 -70.45 14.8 -70.85 L11.85 -71.15 Q8.05 -71.35 6.6 -72.9 L6.7 -73.25 6.75 -74.0 Q7.75 -74.9 8.0 -76.3 8.4 -78.9 8.1 -81.5 6.55 -83.5 4.55 -84.85 L2.8 -84.8 Q-0.45 -81.8 -0.75 -77.0 L-4.15 -76.9 -5.9 -78.0 Q-10.6 -80.65 -13.75 -77.4 L-13.75 -76.65 -14.25 -75.85 Q-15.1 -73.7 -16.9 -73.15 L-23.2 -80.2 Q-23.9 -80.95 -25.05 -81.05 L-33.9 -81.5 -33.75 -81.75 -32.75 -83.25 -32.75 -84.75 Q-32.7 -85.55 -33.25 -85.95 -40.95 -91.65 -47.5 -98.25 L-48.75 -99.0 -49.0 -99.75 -49.9 -100.5 Q-43.8 -101.2 -38.15 -103.15 -37.5 -104.7 -37.6 -106.5 -37.8 -109.45 -36.65 -112.15 L-36.25 -112.5 Q-32.35 -112.75 -29.75 -114.75 -26.3 -117.5 -28.0 -122.4 L-27.25 -122.7 Q-25.3 -123.5 -24.25 -125.25 L-24.5 -127.05 Q-25.3 -130.0 -26.5 -132.75 L-28.1 -133.9 Q-30.95 -136.35 -32.75 -139.5 L-23.55 -140.15 Q-22.7 -140.25 -22.0 -140.75 L-21.6 -141.85 Q-21.05 -143.1 -21.25 -144.5 L-20.75 -145.25 -20.75 -146.0 -20.75 -147.5 Q-18.55 -147.95 -16.85 -146.55 -13.8 -144.1 -10.5 -144.75 -10.2 -145.5 -10.05 -146.2 -9.75 -147.5 -9.75 -148.9 L-8.85 -150.35 -8.25 -150.8 Q-2.75 -151.4 1.25 -154.25 L1.25 -155.0 1.1 -156.5 0.5 -157.25 -3.75 -162.5 -3.75 -163.25 -4.25 -164.0 -4.25 -164.4 -4.25 -165.5 Q1.85 -164.75 4.25 -170.25 L4.25 -171.75 4.25 -174.75 Q5.55 -174.0 7.1 -173.65 8.0 -172.55 9.5 -172.65 11.2 -170.95 13.55 -170.55 14.55 -170.4 15.1 -171.0 17.65 -173.6 21.0 -175.25 L21.1 -175.3 21.5 -175.05 Q21.8 -174.6 21.75 -174.0 L22.1 -173.65 Q23.05 -172.65 24.1 -172.0 L24.6 -171.5 Q30.4 -169.2 36.75 -169.4 L36.75 -168.25 36.6 -166.4 Q36.0 -165.75 35.85 -164.9 35.55 -163.4 35.85 -161.9 37.5 -160.9 39.25 -160.5 L39.05 -158.4 Q38.6 -155.85 38.75 -153.15 L38.25 -152.4 38.25 -151.65 37.75 -150.9 37.55 -149.05 Q37.2 -147.0 37.35 -144.9 L38.5 -144.25 Q39.6 -144.55 39.85 -145.65 43.0 -148.35 46.85 -149.75" fill="#ffff00" fill-opacity="0.5019608" fill-rule="evenodd" stroke="none"/>
  </g>
</svg>
