<?xml version="1.0" encoding="UTF-8" standalone="no"?>
<svg xmlns:ffdec="https://www.free-decompiler.com/flash" xmlns:xlink="http://www.w3.org/1999/xlink" ffdec:objectType="shape" height="126.75px" width="103.75px" xmlns="http://www.w3.org/2000/svg">
  <g transform="matrix(1.0, 0.0, 0.0, 1.0, 34.9, 168.5)">
    <path d="M48.25 -156.5 L48.15 -154.65 Q47.85 -150.95 45.75 -147.9 L45.7 -147.5 Q45.65 -146.9 45.85 -146.4 47.75 -145.8 49.1 -144.5 45.05 -140.45 39.5 -138.25 L39.3 -137.85 Q39.15 -137.1 39.35 -136.4 L40.5 -135.75 42.15 -136.05 55.25 -136.5 55.2 -133.65 Q55.15 -130.25 55.35 -126.9 60.0 -125.4 65.1 -125.0 L64.0 -124.6 63.0 -124.25 Q58.1 -123.0 58.35 -118.4 63.55 -114.95 68.85 -111.65 67.55 -110.4 65.85 -109.8 61.25 -108.05 58.1 -104.9 56.95 -104.5 56.25 -103.5 L56.25 -103.15 56.25 -101.65 56.5 -101.3 Q60.3 -97.0 64.35 -93.25 62.05 -92.2 60.5 -90.4 L60.1 -90.05 57.25 -86.4 57.25 -86.0 57.1 -84.9 54.0 -81.4 53.4 -82.1 Q50.9 -86.7 46.0 -88.25 43.75 -86.2 41.75 -83.5 L36.0 -83.25 35.8 -82.85 Q35.65 -82.1 35.85 -81.4 L36.25 -81.05 46.25 -73.0 46.15 -72.65 45.75 -71.9 45.75 -71.5 45.75 -70.0 Q49.4 -67.5 52.25 -65.0 49.6 -63.15 47.25 -60.9 47.25 -59.95 47.5 -59.1 48.75 -55.4 50.6 -51.9 L40.5 -50.6 Q39.5 -50.5 38.85 -49.65 L38.75 -49.25 38.6 -48.5 37.75 -47.4 37.75 -47.0 37.75 -46.65 36.75 -45.5 36.75 -45.15 36.75 -43.65 35.75 -42.65 Q34.25 -43.65 32.5 -44.1 25.55 -45.9 19.75 -41.75 L19.8 -45.9 Q19.8 -46.65 19.35 -47.15 16.6 -50.05 13.85 -51.15 L14.8 -52.45 Q17.55 -55.65 17.75 -59.75 14.5 -63.25 10.55 -66.1 L9.65 -66.3 Q4.8 -64.7 2.75 -59.5 0.55 -58.95 -1.55 -60.2 L-2.5 -60.45 Q-9.15 -59.8 -12.25 -53.65 L-19.05 -61.45 -19.6 -61.8 Q-24.5 -63.0 -29.75 -61.4 L-29.55 -64.35 Q-28.95 -68.95 -32.0 -71.9 -32.6 -73.7 -34.25 -74.5 L-32.65 -75.15 Q-32.1 -75.8 -32.05 -76.6 -31.6 -80.25 -33.65 -83.0 L-33.7 -83.4 Q-33.55 -84.95 -34.65 -86.0 L-34.7 -86.4 -34.9 -87.5 Q-29.95 -87.05 -25.5 -84.75 -24.65 -84.95 -24.25 -85.75 L-24.25 -86.5 -24.25 -88.75 -24.5 -89.15 -24.75 -89.5 -24.9 -90.2 Q-25.85 -92.75 -25.75 -95.5 L-18.5 -95.75 -18.4 -96.15 -17.75 -97.25 Q-17.65 -98.6 -18.15 -99.75 L-21.65 -107.4 -23.4 -108.5 Q-19.6 -108.85 -17.0 -111.75 L-16.9 -112.15 -16.25 -113.25 -16.35 -114.0 Q-17.7 -118.65 -23.0 -120.5 -25.2 -122.85 -28.0 -124.25 -26.45 -125.7 -23.3 -126.75 -21.9 -127.25 -21.05 -128.15 -18.25 -131.2 -19.75 -135.75 -18.05 -135.25 -16.4 -134.4 -12.15 -132.25 -8.0 -132.75 L-7.9 -133.15 -7.25 -134.25 -7.25 -134.6 -7.0 -135.4 -6.4 -136.15 -6.35 -136.5 -6.15 -137.65 -3.75 -140.25 -3.7 -141.4 Q-3.5 -143.75 -4.15 -145.9 L-4.75 -146.25 -5.0 -146.65 -5.65 -148.15 -5.25 -148.5 Q-2.8 -148.65 -1.4 -150.5 L-1.2 -151.2 Q0.0 -153.8 -1.75 -156.15 L-1.7 -157.65 Q-1.55 -160.95 -2.25 -164.0 L0.1 -163.65 Q4.0 -160.55 5.75 -164.4 L6.0 -164.7 Q7.55 -166.1 7.85 -168.15 L8.25 -168.5 Q11.6 -168.15 14.6 -165.8 L15.75 -164.65 Q19.0 -160.4 22.75 -162.25 L22.75 -162.65 22.75 -163.0 24.85 -165.65 Q27.5 -166.25 29.85 -167.65 L31.6 -166.5 32.0 -165.75 Q33.3 -163.05 34.25 -160.15 34.55 -159.75 34.9 -159.7 41.65 -158.35 48.25 -156.5" fill="#ffff00" fill-opacity="0.5019608" fill-rule="evenodd" stroke="none"/>
  </g>
</svg>
