<?xml version="1.0" encoding="UTF-8" standalone="no"?>
<svg xmlns:ffdec="https://www.free-decompiler.com/flash" xmlns:xlink="http://www.w3.org/1999/xlink" ffdec:objectType="shape" height="103.1px" width="66.35px" xmlns="http://www.w3.org/2000/svg">
  <g transform="matrix(1.0, 0.0, 0.0, 1.0, 17.7, 156.0)">
    <path d="M18.55 -156.0 Q23.45 -156.0 26.9 -152.55 30.35 -149.1 30.35 -144.2 30.35 -142.1 29.75 -140.25 L29.55 -138.15 28.85 -134.8 Q32.4 -132.95 35.3 -129.75 L37.75 -127.3 Q42.85 -122.55 46.3 -116.7 47.25 -115.05 47.6 -113.15 48.75 -107.45 48.65 -101.6 48.6 -100.25 47.3 -99.85 42.35 -98.45 40.85 -103.1 39.9 -106.0 42.35 -107.65 42.5 -114.75 37.25 -119.45 L28.5 -127.35 27.45 -128.45 Q25.2 -119.05 22.45 -109.85 21.75 -107.55 20.45 -105.5 L20.35 -105.3 Q20.5 -104.05 19.8 -102.35 16.6 -94.85 16.75 -86.6 16.8 -85.0 16.35 -83.45 20.55 -79.7 25.75 -77.0 30.3 -74.55 35.15 -72.7 38.0 -71.6 39.05 -68.95 39.5 -67.75 39.0 -66.6 L36.7 -61.45 Q34.8 -56.95 31.85 -53.4 31.2 -52.65 30.25 -53.05 26.75 -54.45 28.3 -58.0 30.2 -62.45 32.6 -66.65 24.35 -71.05 16.0 -75.6 12.55 -77.5 11.0 -80.9 10.5 -81.9 10.6 -83.05 11.15 -91.05 12.35 -98.9 L13.3 -103.25 Q5.35 -99.15 -3.35 -96.6 L-0.8 -84.8 Q0.0 -81.25 0.2 -77.6 2.55 -72.8 -2.9 -71.5 L-12.45 -69.15 Q-16.4 -66.05 -17.55 -70.75 -18.15 -73.05 -15.9 -73.9 -10.9 -75.75 -5.65 -76.9 -6.45 -83.75 -8.1 -90.5 -9.15 -94.75 -9.8 -99.15 -9.95 -100.35 -8.8 -100.95 -6.1 -102.35 -2.95 -103.2 0.45 -104.1 3.7 -105.5 9.95 -108.2 15.75 -111.2 L16.15 -111.05 16.65 -112.05 Q18.55 -117.85 20.1 -123.75 L18.65 -122.85 Q13.0 -118.7 6.65 -116.1 5.1 -115.5 3.3 -115.65 L0.7 -115.9 -10.15 -116.6 Q-11.8 -116.7 -13.1 -117.7 -16.15 -120.05 -13.55 -123.0 -10.7 -126.3 -8.45 -122.6 L-8.25 -122.15 4.1 -121.6 Q5.8 -121.25 7.45 -122.5 14.6 -127.7 22.2 -132.3 L22.2 -132.45 22.35 -132.95 19.05 -132.4 17.45 -132.9 15.35 -132.5 Q13.95 -133.85 11.55 -134.7 L11.15 -135.0 Q7.8 -136.75 6.8 -140.35 6.55 -141.15 6.45 -142.05 6.2 -144.95 7.2 -147.6 8.0 -150.35 10.2 -152.55 13.65 -156.0 18.55 -156.0" fill="#000000" fill-rule="evenodd" stroke="none"/>
  </g>
</svg>
