<?xml version="1.0" encoding="UTF-8" standalone="no"?>
<svg xmlns:ffdec="https://www.free-decompiler.com/flash" xmlns:xlink="http://www.w3.org/1999/xlink" ffdec:objectType="shape" height="135.3px" width="99.75px" xmlns="http://www.w3.org/2000/svg">
  <g transform="matrix(1.0, 0.0, 0.0, 1.0, 31.75, 157.55)">
    <path d="M41.25 -149.65 L40.5 -148.55 Q39.4 -146.45 37.75 -144.75 L37.75 -143.65 37.85 -142.9 Q40.45 -141.0 43.35 -139.4 L43.8 -138.7 Q44.3 -138.1 44.1 -137.5 L43.5 -136.75 38.75 -130.4 38.75 -130.0 38.75 -129.65 38.0 -128.55 Q37.55 -127.65 37.75 -126.65 L38.0 -126.25 Q38.55 -125.45 39.5 -125.25 L40.0 -125.4 40.25 -125.5 Q45.45 -128.9 51.25 -128.15 L51.25 -127.0 51.35 -125.45 51.85 -119.9 Q52.4 -119.55 53.0 -119.35 58.6 -117.55 64.25 -117.65 L63.4 -116.35 Q59.8 -113.25 59.75 -108.65 61.05 -106.85 63.1 -106.0 L63.3 -105.7 Q64.85 -104.05 66.75 -102.65 L66.75 -102.25 66.85 -101.9 67.25 -101.55 68.0 -101.25 Q63.05 -101.25 60.25 -98.0 L60.25 -95.4 60.1 -90.5 Q51.6 -93.0 48.25 -85.0 L47.5 -85.0 Q47.3 -85.0 47.1 -85.15 43.6 -88.85 38.85 -90.4 38.1 -90.65 37.65 -90.15 34.5 -86.45 30.25 -84.5 L30.25 -83.75 30.25 -83.0 31.05 -82.35 Q32.9 -81.25 33.75 -79.5 33.3 -78.8 33.25 -78.0 L33.25 -76.15 33.0 -75.75 32.75 -75.4 32.75 -74.25 32.75 -73.15 Q35.2 -71.3 37.75 -70.25 L37.55 -69.9 37.25 -69.5 37.25 -69.15 37.2 -68.75 37.1 -68.4 36.3 -67.95 35.75 -67.4 35.75 -67.0 35.75 -66.65 35.5 -66.25 35.25 -65.9 35.25 -64.75 35.25 -63.65 35.5 -63.3 Q36.75 -61.95 38.6 -61.65 L38.85 -61.4 Q39.55 -60.65 40.6 -60.65 40.9 -60.3 41.3 -60.15 L43.1 -59.15 42.5 -58.65 Q39.85 -56.55 38.1 -53.9 L37.5 -53.6 Q36.6 -53.15 36.25 -52.25 L36.25 -51.9 36.25 -51.5 36.25 -51.15 36.7 -50.4 Q38.6 -47.3 41.1 -44.4 L35.25 -42.0 Q34.0 -40.65 33.95 -38.75 33.9 -34.4 35.25 -30.5 L24.0 -31.55 Q23.55 -31.6 23.25 -31.25 L14.0 -22.25 Q9.8 -27.6 3.25 -27.65 L4.0 -27.9 4.25 -28.0 4.45 -28.3 4.7 -28.65 4.85 -29.0 5.5 -29.25 6.0 -29.4 6.65 -29.95 7.6 -31.15 7.7 -31.5 7.75 -31.9 7.75 -32.25 Q5.75 -34.1 2.95 -34.55 -2.9 -35.4 -7.25 -37.0 0.2 -40.55 5.25 -46.75 L5.3 -47.9 Q5.4 -48.75 4.85 -49.4 L2.85 -50.9 Q-1.5 -55.4 -7.15 -58.65 L-6.8 -59.4 -6.5 -60.15 -5.6 -60.95 Q-3.55 -63.05 -2.25 -65.75 L-2.25 -67.65 -2.25 -70.25 Q-7.9 -74.35 -14.25 -77.15 L-14.2 -77.5 -14.0 -77.9 -13.75 -78.25 Q-13.85 -79.05 -13.4 -79.65 -12.35 -81.1 -12.25 -82.75 L-11.75 -83.5 -11.25 -84.25 -11.25 -85.75 -11.25 -87.25 -11.75 -88.0 -12.25 -88.75 Q-12.2 -89.55 -12.65 -90.15 -14.05 -91.9 -14.25 -94.0 -8.75 -92.3 -4.25 -94.25 L-4.25 -96.9 -4.25 -103.25 Q-4.6 -103.65 -4.95 -103.7 L-10.75 -104.9 -13.6 -109.1 Q-14.5 -110.4 -16.0 -110.8 -21.65 -112.15 -27.4 -111.0 -25.8 -114.5 -25.75 -118.4 -25.75 -118.95 -26.05 -119.25 -29.2 -122.4 -31.75 -126.25 -29.0 -128.05 -28.25 -131.2 -26.75 -137.6 -29.25 -143.15 -24.35 -140.4 -19.15 -140.65 L-18.75 -141.35 -18.25 -142.0 Q-13.9 -135.6 -7.5 -131.25 -6.3 -131.65 -5.75 -132.85 -4.6 -135.3 -4.75 -138.0 L-4.0 -138.25 Q-3.15 -138.45 -2.75 -139.25 L-2.95 -141.1 Q-3.6 -143.75 -5.25 -146.0 L0.85 -146.15 Q1.45 -147.35 1.35 -148.75 1.15 -151.2 1.35 -153.65 L1.75 -154.0 3.75 -154.15 Q7.3 -151.8 11.25 -150.15 L11.4 -149.9 Q12.0 -149.1 13.0 -149.25 L13.45 -149.6 Q16.85 -154.35 21.6 -157.5 L21.85 -157.55 23.25 -157.5 23.5 -157.25 27.5 -153.9 27.7 -153.5 27.8 -153.15 28.0 -152.75 28.5 -152.4 29.6 -151.65 Q29.7 -150.95 30.3 -150.85 L41.25 -149.65" fill="#ffff00" fill-opacity="0.5019608" fill-rule="evenodd" stroke="none"/>
  </g>
</svg>
