<?xml version="1.0" encoding="UTF-8" standalone="no"?>
<svg xmlns:ffdec="https://www.free-decompiler.com/flash" xmlns:xlink="http://www.w3.org/1999/xlink" ffdec:objectType="shape" height="111.1px" width="68.8px" xmlns="http://www.w3.org/2000/svg">
  <g transform="matrix(1.0, 0.0, 0.0, 1.0, 18.8, 147.55)">
    <path d="M21.05 -124.25 L18.7 -123.95 18.4 -124.05 16.0 -124.3 15.0 -124.05 Q13.6 -125.4 11.2 -126.25 L9.85 -127.4 8.8 -128.6 8.6 -128.2 8.45 -129.65 Q7.05 -131.65 6.5 -134.05 L6.15 -135.95 Q5.75 -138.15 7.0 -139.5 7.8 -142.05 9.85 -144.1 13.3 -147.55 18.2 -147.55 23.1 -147.55 26.55 -144.1 30.0 -140.65 30.0 -135.75 30.0 -133.3 29.15 -131.2 29.2 -130.0 28.55 -128.45 L27.6 -125.8 Q30.2 -124.35 32.45 -122.15 36.9 -117.9 42.25 -115.0 L44.0 -113.9 Q48.25 -110.65 49.85 -105.9 50.35 -104.35 49.15 -103.2 44.15 -98.6 38.75 -102.9 37.65 -103.75 37.95 -105.25 38.55 -107.9 41.4 -107.75 38.5 -110.75 34.5 -112.7 L33.25 -113.5 Q29.65 -116.35 26.15 -119.5 L25.55 -117.95 Q22.25 -109.15 19.25 -100.3 20.4 -99.35 19.65 -97.45 20.35 -95.9 19.45 -93.55 18.55 -90.95 18.35 -88.2 L18.05 -85.55 Q17.3 -79.85 15.9 -74.35 L20.3 -69.7 22.55 -67.05 Q24.9 -63.8 21.95 -61.05 L19.45 -58.7 Q24.15 -52.2 27.15 -44.8 27.55 -43.85 26.75 -43.05 23.9 -40.25 20.25 -38.5 18.7 -37.75 17.25 -36.85 15.85 -35.95 14.6 -37.05 12.1 -39.3 14.55 -41.55 17.35 -44.15 20.65 -45.8 L15.0 -54.6 13.7 -53.35 Q13.05 -52.7 12.2 -53.05 8.45 -54.6 10.55 -58.0 L11.8 -59.8 7.85 -66.45 Q7.5 -67.0 7.6 -67.7 8.0 -70.35 9.1 -72.9 L2.7 -79.5 Q0.3 -81.85 -0.25 -84.85 -0.65 -87.15 1.35 -88.55 L2.1 -89.15 Q6.8 -93.85 12.0 -97.8 14.6 -106.7 18.15 -115.15 L9.4 -109.7 Q6.25 -107.75 2.7 -107.25 1.5 -107.05 0.6 -107.85 -7.0 -114.9 -15.45 -120.8 -18.05 -122.6 -18.65 -125.5 -19.55 -129.55 -15.75 -130.4 -11.7 -130.3 -11.7 -126.4 L-11.7 -126.1 Q-4.1 -120.05 3.0 -113.5 12.2 -117.7 20.7 -123.6 L20.95 -123.75 21.05 -124.25 M11.15 -89.7 L6.45 -84.8 11.3 -79.4 11.55 -81.5 Q11.85 -85.35 12.8 -88.95 12.0 -89.2 11.6 -90.0 L11.15 -89.7 M16.55 -64.35 L13.8 -67.65 13.75 -67.4 16.05 -63.8 16.55 -64.35" fill="#000000" fill-rule="evenodd" stroke="none"/>
  </g>
</svg>
