<?xml version="1.0" encoding="UTF-8" standalone="no"?>
<svg xmlns:ffdec="https://www.free-decompiler.com/flash" xmlns:xlink="http://www.w3.org/1999/xlink" ffdec:objectType="shape" height="157.5px" width="91.5px" xmlns="http://www.w3.org/2000/svg">
  <g transform="matrix(1.0, 0.0, 0.0, 1.0, 33.25, 152.5)">
    <path d="M34.25 -147.9 Q33.4 -141.9 33.35 -135.9 L46.75 -134.0 46.95 -133.75 47.75 -132.25 Q47.2 -129.9 45.25 -128.5 L45.2 -128.15 45.1 -127.4 44.75 -127.0 Q41.8 -123.9 41.85 -119.9 L49.25 -118.0 Q41.95 -111.85 34.25 -106.0 L34.2 -105.25 34.35 -103.4 35.5 -102.75 Q36.65 -103.0 36.75 -104.15 39.65 -105.65 42.25 -104.4 L42.2 -103.25 Q42.15 -100.05 42.35 -96.9 45.35 -95.15 49.0 -94.9 54.35 -94.5 58.25 -92.25 L50.75 -83.9 50.7 -83.5 Q50.65 -82.9 50.85 -82.4 54.9 -81.2 56.75 -78.0 L48.6 -66.65 47.85 -67.25 47.0 -68.15 Q44.8 -72.15 41.25 -70.5 L41.2 -70.15 41.1 -69.4 40.75 -69.0 40.75 -68.65 40.75 -67.15 40.3 -66.35 39.1 -63.0 Q34.9 -63.85 32.25 -61.0 L32.25 -60.65 32.25 -59.5 38.25 -54.25 37.45 -53.3 Q34.2 -50.7 33.25 -47.15 37.25 -44.85 40.75 -41.9 L39.75 -41.5 37.25 -39.0 37.2 -38.25 Q37.05 -35.25 38.25 -32.65 40.6 -30.95 41.25 -28.15 L42.75 -26.65 42.4 -26.25 Q38.25 -25.4 36.25 -22.4 L36.25 -22.0 36.25 -21.65 35.75 -20.9 35.8 -20.15 36.85 -16.4 38.25 -14.9 38.25 -14.5 38.5 -13.75 Q40.0 -12.1 41.1 -10.0 35.05 -10.35 31.25 -5.9 L31.25 -4.75 31.25 0.85 31.0 1.25 30.35 2.35 29.85 2.6 Q26.4 1.7 23.05 0.35 19.45 -1.15 15.65 0.25 9.5 2.5 4.25 5.0 L4.25 4.6 Q4.6 2.1 2.75 0.5 L2.75 -0.65 2.75 -4.75 2.25 -5.5 2.25 -5.9 2.1 -7.0 Q1.5 -7.9 0.55 -8.3 L-1.5 -9.0 Q-8.4 -11.15 -15.8 -10.75 -16.25 -10.7 -16.75 -11.0 -16.95 -11.95 -17.75 -12.5 L-17.75 -12.9 -17.9 -14.0 Q-18.65 -15.25 -20.05 -15.45 -25.9 -16.3 -31.25 -14.4 L-31.4 -15.6 Q-32.5 -18.3 -32.15 -21.15 L-29.4 -23.5 Q-29.2 -24.05 -29.15 -24.65 -28.9 -30.6 -32.25 -35.5 -28.2 -35.0 -24.05 -35.45 -22.8 -35.55 -22.25 -36.75 L-22.2 -38.25 Q-21.85 -43.2 -20.65 -48.0 L-20.35 -48.35 Q-19.85 -48.95 -19.65 -49.75 L-18.7 -49.1 -15.3 -46.5 Q-11.9 -43.35 -9.0 -46.5 -8.05 -47.45 -7.85 -48.85 -6.6 -57.05 -14.25 -58.5 L-14.45 -58.8 -15.75 -60.65 -15.75 -61.0 -15.75 -62.5 -10.55 -63.0 Q-9.95 -63.05 -9.85 -63.5 -8.75 -67.4 -9.25 -72.0 L-2.05 -72.5 Q-1.5 -72.55 -1.4 -73.15 -1.15 -73.95 -1.85 -74.55 -8.6 -80.8 -17.75 -82.15 L-17.75 -82.9 Q-17.55 -85.4 -16.75 -87.75 -22.55 -90.7 -29.0 -90.5 L-28.35 -92.05 Q-26.2 -96.45 -28.25 -100.5 L-28.25 -100.9 -28.25 -101.25 -33.25 -105.15 Q-27.8 -106.6 -25.15 -111.5 -24.5 -112.15 -24.45 -113.0 L-24.25 -122.0 Q-19.6 -117.7 -14.75 -121.0 L-14.55 -121.25 -14.0 -122.0 -12.5 -122.75 -12.3 -123.15 -11.9 -123.9 -11.25 -124.25 -10.4 -123.9 -10.2 -123.55 Q-8.55 -120.9 -7.65 -117.9 -4.5 -113.85 -1.75 -117.75 L-1.8 -118.9 Q-1.95 -123.3 -4.25 -127.15 -3.0 -127.5 -2.0 -128.25 L-1.9 -128.65 -1.25 -129.75 -1.35 -131.25 Q-1.9 -135.4 -2.75 -139.5 1.65 -138.6 5.85 -138.65 L6.1 -139.0 Q9.3 -146.0 13.35 -152.5 16.8 -149.4 20.0 -145.5 20.9 -144.35 22.3 -145.05 28.1 -148.0 34.0 -149.65 L34.25 -147.9" fill="#ffff00" fill-opacity="0.5019608" fill-rule="evenodd" stroke="none"/>
  </g>
</svg>
