<?xml version="1.0" encoding="UTF-8" standalone="no"?>
<svg xmlns:ffdec="https://www.free-decompiler.com/flash" xmlns:xlink="http://www.w3.org/1999/xlink" ffdec:objectType="shape" height="121.5px" width="58.35px" xmlns="http://www.w3.org/2000/svg">
  <g transform="matrix(1.0, 0.0, 0.0, 1.0, 15.95, 130.65)">
    <path d="M9.05 -127.2 Q12.5 -130.65 17.4 -130.65 22.3 -130.65 25.75 -127.2 29.2 -123.75 29.2 -118.85 29.2 -113.95 25.75 -110.5 L23.7 -108.85 23.4 -107.75 22.75 -104.95 Q25.3 -103.8 27.25 -101.35 29.05 -99.1 31.0 -97.05 36.0 -91.65 41.25 -86.75 43.3 -84.85 41.65 -82.55 40.4 -80.85 38.35 -81.6 36.55 -82.25 34.8 -83.05 L30.6 -84.55 Q26.15 -85.8 28.4 -89.4 L29.2 -90.35 Q25.3 -94.05 22.05 -98.1 L21.85 -97.15 Q20.85 -91.75 20.35 -86.25 19.55 -78.3 17.9 -70.55 20.3 -68.9 19.6 -65.15 18.85 -61.2 18.4 -57.15 L17.05 -46.45 Q16.65 -43.7 17.8 -41.2 22.3 -31.15 27.5 -21.55 28.1 -20.5 27.4 -19.45 L21.05 -10.9 Q18.15 -7.3 16.0 -11.2 15.35 -12.35 16.05 -13.5 18.35 -17.2 21.05 -20.55 19.7 -24.5 17.5 -28.5 L16.8 -29.75 Q13.25 -36.35 11.3 -43.4 10.95 -44.6 11.15 -45.9 L12.9 -60.9 13.3 -64.05 Q7.5 -59.55 2.8 -53.85 L1.75 -52.9 Q3.2 -45.45 3.25 -37.65 3.25 -31.75 2.15 -26.2 2.0 -25.45 1.2 -25.25 -2.15 -24.4 -5.6 -25.1 L-13.6 -26.35 Q-15.85 -26.6 -15.8 -28.8 -15.75 -31.35 -13.05 -31.5 -8.7 -31.65 -4.4 -31.45 L-3.25 -31.2 -2.85 -31.3 Q-2.65 -38.7 -3.45 -45.95 L-4.1 -51.15 Q-4.85 -56.5 -0.15 -59.4 L0.85 -60.25 Q5.8 -66.05 11.9 -70.45 L12.4 -70.95 14.8 -91.45 15.35 -95.8 13.75 -94.5 8.45 -87.25 Q6.35 -84.1 3.05 -84.85 2.25 -85.05 1.65 -85.75 -3.7 -92.25 -10.65 -96.95 -11.55 -97.6 -12.6 -98.05 -15.05 -99.2 -15.7 -101.55 -16.8 -105.85 -13.05 -107.0 -9.1 -107.25 -9.0 -103.5 L-9.0 -103.25 -8.3 -102.65 Q-7.9 -102.3 -7.75 -101.8 -2.75 -98.4 1.8 -94.4 L4.05 -92.1 Q8.65 -97.15 13.05 -102.75 14.65 -104.8 16.9 -105.05 L17.05 -107.0 14.6 -107.3 14.2 -107.15 13.9 -107.45 Q11.5 -108.05 9.35 -109.5 8.4 -110.15 7.95 -111.0 L7.6 -111.45 Q4.6 -115.95 5.55 -121.45 5.8 -122.95 6.65 -123.85 7.5 -125.65 9.05 -127.2" fill="#000000" fill-rule="evenodd" stroke="none"/>
  </g>
</svg>
