<?xml version="1.0" encoding="UTF-8" standalone="no"?>
<svg xmlns:ffdec="https://www.free-decompiler.com/flash" xmlns:xlink="http://www.w3.org/1999/xlink" ffdec:objectType="shape" height="155.85px" width="93.0px" xmlns="http://www.w3.org/2000/svg">
  <g transform="matrix(1.0, 0.0, 0.0, 1.0, 48.9, 140.5)">
    <path d="M27.75 -132.5 L27.75 -131.4 Q27.75 -129.45 27.25 -127.65 L27.0 -127.25 26.75 -126.9 26.7 -125.75 Q26.65 -124.05 26.85 -122.4 L31.75 -116.75 31.65 -114.5 Q31.2 -109.8 29.1 -105.5 L28.25 -104.4 28.2 -103.65 Q28.15 -102.5 28.35 -101.4 29.1 -100.6 30.25 -100.65 34.05 -99.3 37.35 -96.9 L37.3 -96.5 37.1 -95.4 35.75 -93.5 35.7 -93.15 35.6 -92.4 Q35.0 -91.95 34.75 -91.25 L34.75 -90.9 34.75 -90.15 34.5 -89.75 34.25 -89.4 34.25 -88.65 34.25 -87.15 Q38.55 -83.65 44.1 -82.15 40.55 -80.6 37.75 -78.25 L37.7 -76.4 Q37.6 -73.65 38.25 -71.15 L38.5 -70.75 38.75 -70.4 38.75 -70.0 38.75 -68.5 27.5 -67.75 Q26.6 -67.65 26.25 -66.75 L26.2 -66.4 Q26.15 -65.6 26.35 -64.9 27.75 -62.55 29.75 -61.0 L29.95 -60.65 31.25 -58.75 31.25 -58.4 31.25 -58.0 31.7 -57.25 Q32.4 -56.15 32.1 -55.0 26.15 -55.15 25.25 -50.15 L25.5 -49.75 25.75 -49.4 Q25.65 -48.35 26.15 -47.45 29.0 -42.35 32.75 -37.75 32.5 -37.1 31.8 -36.8 26.9 -34.75 23.75 -31.0 L23.75 -30.25 23.75 -28.0 Q26.0 -24.7 29.75 -23.25 L29.5 -21.75 28.8 -20.1 Q26.9 -15.75 27.85 -10.9 33.85 -8.8 39.6 -7.0 37.2 -5.25 35.25 -2.9 L35.25 -2.15 35.25 -0.65 35.65 0.15 Q36.7 2.75 38.6 5.0 34.15 6.25 29.5 6.15 26.45 6.1 24.75 8.25 L24.75 9.0 24.6 11.6 24.25 12.0 Q22.45 12.2 20.85 11.5 17.35 9.95 15.65 12.75 14.3 14.85 12.6 15.35 L12.4 14.95 12.25 14.25 Q11.25 12.5 9.8 11.15 L8.3 10.05 Q4.55 7.9 0.75 11.5 L-0.9 11.35 -1.75 10.25 -1.8 9.85 Q-2.1 8.35 -3.25 7.25 L-3.25 6.85 -3.25 6.5 -3.05 6.1 -2.75 5.35 -2.9 5.0 Q-3.3 3.7 -4.5 3.25 -5.3 3.35 -5.75 4.0 L-7.25 4.0 Q-8.0 1.8 -10.0 1.25 -11.15 1.6 -12.0 2.5 L-12.5 3.15 Q-15.0 7.7 -18.5 11.5 L-21.5 11.35 -25.15 5.65 Q-25.65 4.95 -26.5 5.0 -31.55 5.25 -35.75 6.35 L-35.7 6.0 -35.25 5.25 -35.15 3.35 Q-34.6 0.6 -34.75 -2.25 -37.9 -4.1 -41.25 -5.0 -39.9 -5.55 -39.25 -6.9 L-38.45 -7.35 Q-31.65 -11.75 -26.75 -17.75 L-26.75 -18.15 -26.75 -19.25 -31.75 -22.4 Q-31.05 -24.05 -29.5 -25.35 -26.25 -27.95 -26.25 -31.75 L-26.5 -32.15 -27.0 -33.25 Q-30.05 -35.95 -33.75 -37.5 -31.45 -38.95 -29.75 -40.9 -25.75 -43.65 -22.0 -46.75 L-21.8 -47.5 Q-21.7 -48.3 -21.9 -49.0 L-22.5 -49.75 -22.1 -50.0 Q-21.2 -50.3 -20.75 -51.15 L-19.75 -51.5 -19.55 -51.75 -19.0 -52.5 Q-14.6 -54.6 -14.25 -59.25 -17.0 -61.55 -19.75 -59.0 -21.55 -58.9 -23.0 -58.15 L-23.25 -58.5 -23.75 -59.25 -23.75 -60.0 -23.75 -62.25 Q-24.3 -63.35 -25.5 -63.25 -32.75 -58.35 -40.25 -54.0 -40.5 -56.35 -40.1 -58.55 -39.3 -63.4 -38.75 -68.25 L-39.45 -68.7 -48.9 -70.15 -48.75 -70.5 -48.25 -71.25 -48.25 -72.75 -48.25 -76.5 Q-43.85 -76.9 -40.0 -78.75 L-39.9 -79.15 -39.25 -80.25 -39.25 -82.15 Q-39.2 -85.3 -38.0 -88.15 L-37.4 -88.5 Q-34.85 -88.85 -33.1 -87.15 -29.75 -83.95 -26.0 -85.75 L-25.9 -86.15 -25.25 -87.25 -25.25 -87.65 -25.25 -88.0 Q-24.65 -88.85 -24.3 -89.85 L-23.9 -90.25 Q-17.1 -90.15 -11.75 -93.75 L-11.85 -94.1 Q-13.1 -97.25 -15.75 -99.75 L-15.75 -100.5 -15.75 -102.0 -15.55 -102.4 Q-13.95 -105.45 -11.65 -107.65 L-11.2 -108.35 Q-10.05 -109.85 -10.25 -111.75 L-13.75 -114.25 -13.8 -115.0 -13.65 -117.65 -12.75 -118.75 -12.75 -119.15 -12.75 -119.5 -12.5 -119.9 -12.25 -120.25 -12.25 -121.0 -12.25 -123.25 Q-15.9 -125.4 -18.25 -128.5 -14.0 -131.85 -8.0 -133.25 L-7.9 -133.65 Q-7.7 -134.15 -7.75 -134.75 L-8.05 -135.1 Q-10.9 -137.3 -12.75 -140.5 -4.55 -140.15 3.2 -136.2 4.3 -135.65 5.5 -135.6 9.5 -135.6 11.75 -139.15 13.35 -137.25 15.35 -135.75 17.05 -132.85 20.0 -131.75 20.75 -132.0 21.3 -132.45 24.9 -135.35 27.75 -132.5" fill="#ffff00" fill-opacity="0.5019608" fill-rule="evenodd" stroke="none"/>
  </g>
</svg>
