<?xml version="1.0" encoding="UTF-8" standalone="no"?>
<svg xmlns:ffdec="https://www.free-decompiler.com/flash" xmlns:xlink="http://www.w3.org/1999/xlink" ffdec:objectType="shape" height="163.65px" width="92.7px" xmlns="http://www.w3.org/2000/svg">
  <g transform="matrix(1.0, 0.0, 0.0, 1.0, 49.5, 141.75)">
    <path d="M8.7 -124.6 L9.2 -126.15 Q12.7 -122.0 17.9 -120.7 19.95 -120.25 21.65 -121.65 24.0 -123.65 26.3 -123.95 25.85 -122.15 25.85 -120.2 L25.95 -111.85 26.1 -111.55 26.3 -111.3 26.35 -111.0 Q26.35 -110.7 26.5 -110.45 L26.7 -109.55 27.3 -108.65 Q27.6 -108.0 28.3 -107.85 L33.6 -106.95 34.4 -106.6 34.2 -105.45 Q33.9 -104.65 33.25 -104.0 L33.25 -103.7 33.25 -103.4 32.45 -102.55 32.4 -101.7 32.1 -99.65 Q31.8 -96.9 32.45 -94.2 L33.3 -93.25 Q35.05 -92.15 35.15 -90.15 L34.75 -89.85 Q34.35 -89.55 34.3 -89.0 32.2 -87.75 31.0 -85.6 30.6 -84.9 30.6 -84.2 30.5 -78.5 33.6 -73.55 L33.6 -73.25 33.6 -72.7 33.6 -71.8 31.8 -72.1 31.2 -72.5 30.15 -73.2 Q27.45 -75.15 25.55 -73.45 L26.4 -70.2 Q27.7 -66.2 28.5 -62.2 22.1 -62.85 15.95 -61.45 L15.8 -61.25 15.55 -60.65 15.65 -60.45 Q18.35 -57.1 22.1 -54.9 25.35 -52.1 29.0 -49.45 L28.95 -46.85 29.1 -43.65 Q32.2 -42.05 35.9 -41.45 L35.95 -41.2 36.1 -40.9 36.7 -40.3 36.7 -37.15 Q36.75 -34.8 36.2 -32.55 L35.9 -32.25 35.95 -31.1 Q36.05 -28.65 38.5 -28.5 L38.7 -28.3 39.35 -27.45 39.25 -27.2 39.0 -26.85 38.95 -26.6 38.9 -26.0 38.3 -25.45 32.85 -20.25 32.8 -19.4 Q32.7 -18.75 33.05 -18.2 36.05 -15.65 39.65 -13.9 39.75 -13.3 39.3 -12.75 37.3 -10.0 34.75 -7.65 L34.75 -6.2 34.85 -4.5 36.2 -3.5 Q36.5 -3.25 36.85 -3.15 41.1 -2.25 43.2 1.35 L43.05 1.6 Q39.1 4.9 35.9 8.55 L35.85 9.45 Q35.8 10.1 36.1 10.6 L36.7 11.15 36.7 11.45 37.15 12.3 26.9 12.1 Q26.6 12.1 26.45 12.4 24.55 15.75 22.85 19.4 L20.55 19.25 Q17.6 17.5 14.55 16.1 13.7 15.7 13.05 16.1 9.85 18.45 7.5 21.9 L7.1 21.9 Q1.35 18.45 -3.8 14.1 L-6.35 14.05 -12.75 17.9 Q-15.85 14.75 -18.5 11.2 -18.8 10.85 -19.15 10.9 -22.3 11.6 -24.0 14.6 L-24.5 15.0 Q-24.95 15.4 -25.45 15.5 L-26.2 13.45 Q-26.9 10.25 -28.25 7.5 L-28.75 7.05 Q-34.0 6.0 -39.4 7.25 L-39.4 6.95 -39.4 6.35 -39.4 5.5 -38.95 4.95 -38.2 4.05 -38.15 2.65 Q-38.0 1.45 -37.05 0.6 L-37.05 -0.85 -37.15 -2.3 -38.0 -2.9 Q-42.3 -3.95 -44.45 -7.3 -39.85 -10.4 -34.25 -11.25 -30.0 -11.9 -27.45 -14.65 L-27.8 -15.2 -28.5 -16.4 -29.15 -17.0 -30.55 -18.4 -30.55 -18.7 -30.55 -19.3 -30.25 -19.55 -20.95 -18.8 -20.8 -19.0 -20.55 -19.55 -22.45 -22.2 Q-28.15 -29.05 -30.9 -37.45 L-30.15 -38.0 -23.8 -37.6 -19.65 -36.9 Q-16.2 -36.25 -12.7 -36.9 -11.4 -37.15 -10.55 -38.2 L-10.55 -38.5 -10.55 -38.8 -10.55 -39.35 -11.25 -40.2 Q-14.5 -43.0 -17.1 -46.25 L-16.95 -46.5 -16.35 -46.85 -15.7 -47.65 Q-13.7 -49.75 -11.05 -51.05 -10.6 -52.8 -11.65 -54.15 L-14.05 -57.2 Q-16.6 -60.3 -18.25 -57.1 -18.2 -56.5 -18.45 -55.95 L-18.75 -54.8 -19.0 -54.55 -19.8 -53.65 -19.8 -53.35 -19.8 -53.1 -20.55 -52.2 -20.5 -51.35 Q-20.45 -50.8 -20.75 -50.3 L-20.85 -50.4 -21.1 -50.95 -21.6 -51.85 -21.9 -53.55 Q-22.25 -54.65 -22.1 -55.85 L-22.3 -56.1 Q-22.65 -56.4 -22.9 -56.3 -26.25 -54.7 -29.75 -54.15 L-29.75 -57.5 -29.75 -62.4 -30.3 -62.8 Q-31.7 -63.4 -32.85 -62.2 -37.6 -61.5 -40.9 -62.1 -40.0 -63.45 -39.3 -64.95 -37.2 -69.2 -37.05 -73.95 -39.85 -75.3 -43.2 -75.25 L-43.25 -75.45 Q-43.95 -76.45 -45.15 -76.4 -44.7 -77.75 -44.55 -79.2 L-44.25 -82.65 -44.0 -82.95 -43.6 -83.55 Q-43.7 -84.35 -43.45 -85.05 L-42.45 -87.0 -42.45 -87.25 -42.45 -87.55 -42.45 -88.15 Q-43.2 -89.2 -44.65 -89.1 L-44.95 -89.25 Q-47.35 -90.25 -49.5 -91.65 L-49.5 -92.95 -48.2 -94.5 -40.35 -95.8 Q-40.0 -97.1 -40.4 -98.35 -41.8 -102.75 -44.35 -106.5 -41.5 -105.2 -38.5 -104.55 -38.2 -104.3 -37.8 -104.2 -36.3 -103.8 -35.9 -102.75 -35.75 -102.05 -34.95 -101.95 -34.75 -102.0 -34.6 -102.1 L-34.3 -102.25 -34.1 -102.55 -34.0 -102.85 -33.4 -102.8 Q-32.95 -102.75 -32.65 -103.1 L-32.55 -103.4 -32.45 -104.25 -32.65 -104.55 -33.6 -105.15 -33.6 -106.2 Q-33.65 -108.15 -35.3 -109.1 -40.05 -111.9 -43.6 -115.6 L-43.0 -115.75 Q-42.45 -115.9 -42.05 -116.35 -37.25 -117.05 -33.35 -119.45 -33.15 -119.85 -33.25 -120.3 -33.55 -121.95 -35.25 -122.6 L-35.4 -122.9 Q-35.75 -123.8 -36.7 -124.05 L-36.7 -124.35 -36.9 -124.9 -35.9 -125.6 -34.95 -125.8 Q-34.15 -126.0 -33.6 -126.75 L-32.65 -126.95 Q-31.8 -127.1 -31.4 -127.9 L-31.35 -128.2 -31.3 -128.75 -31.5 -129.65 -32.15 -130.2 -34.5 -132.5 -34.1 -132.55 -33.9 -132.4 Q-33.35 -131.85 -32.55 -131.85 -29.7 -129.1 -26.2 -129.15 L-25.15 -131.45 -21.15 -138.35 -20.6 -138.7 -15.55 -141.75 Q-14.8 -141.8 -14.3 -141.0 -11.1 -136.4 -7.7 -132.3 L-7.2 -132.4 Q-5.7 -132.5 -4.8 -133.65 L-2.0 -133.55 -1.7 -133.35 Q-1.0 -133.2 -0.6 -132.8 0.0 -127.7 2.4 -123.15 4.3 -119.45 7.95 -119.95 8.35 -120.45 8.3 -121.1 L8.25 -122.5 8.45 -122.8 8.65 -123.1 Q8.55 -123.9 8.7 -124.6" fill="#ffff00" fill-opacity="0.5019608" fill-rule="evenodd" stroke="none"/>
  </g>
</svg>
