<?xml version="1.0" encoding="UTF-8" standalone="no"?>
<svg xmlns:ffdec="https://www.free-decompiler.com/flash" xmlns:xlink="http://www.w3.org/1999/xlink" ffdec:objectType="shape" height="126.6px" width="63.6px" xmlns="http://www.w3.org/2000/svg">
  <g transform="matrix(1.0, 0.0, 0.0, 1.0, 39.0, 123.0)">
    <path d="M10.65 -108.9 Q11.2 -110.8 12.95 -111.15 18.35 -113.0 19.45 -107.85 20.25 -103.9 19.95 -99.8 19.15 -90.45 19.5 -81.0 19.6 -78.55 19.25 -76.15 18.8 -73.2 17.15 -70.65 15.95 -68.8 13.85 -69.6 12.35 -70.2 11.4 -71.5 4.85 -80.1 -3.3 -87.5 L-3.8 -87.9 -1.55 -80.7 -1.05 -78.4 Q1.0 -67.5 4.4 -57.05 L5.2 -54.45 5.35 -53.9 Q6.6 -53.4 7.65 -52.45 L8.15 -52.45 9.25 -50.3 Q10.15 -47.95 11.45 -45.85 16.1 -38.65 22.45 -32.95 22.9 -32.5 22.85 -31.75 21.8 -20.6 15.9 -11.05 15.4 -8.35 14.4 -5.9 L13.9 -4.2 Q19.15 -4.6 23.75 -2.45 24.55 -2.05 24.6 -1.05 24.7 2.85 20.8 2.35 L8.0 1.1 Q7.15 1.05 6.9 0.25 5.85 -2.75 7.65 -5.65 L8.75 -8.15 Q10.25 -13.5 13.0 -18.45 15.95 -23.9 16.5 -30.25 8.9 -38.0 3.2 -47.65 L2.6 -48.8 2.1 -47.9 Q-1.0 -38.05 -2.5 -27.8 -3.5 -20.75 -9.25 -16.25 L-12.95 -12.9 -22.1 -3.05 Q-14.85 -3.75 -7.7 -0.95 -7.0 -0.65 -7.0 0.2 -6.95 4.5 -11.85 3.4 L-23.45 2.85 Q-27.25 3.3 -29.5 0.85 -30.4 -0.1 -30.05 -1.5 -29.2 -5.1 -26.25 -7.8 L-17.15 -16.7 Q-12.65 -21.3 -9.0 -26.45 -8.3 -27.4 -8.1 -28.6 L-5.95 -40.05 -3.4 -50.55 -2.8 -52.45 -2.5 -52.45 -1.8 -54.4 -1.3 -55.2 Q-2.5 -58.35 -3.3 -61.6 L-5.8 -72.3 Q-7.8 -81.3 -11.1 -89.95 -12.8 -86.95 -13.65 -83.6 L-16.35 -71.6 Q-16.7 -70.15 -17.55 -68.9 -17.5 -64.4 -21.4 -63.2 -23.0 -62.7 -24.0 -64.0 -24.5 -64.6 -24.65 -65.35 L-35.25 -81.95 Q-37.7 -85.55 -38.8 -89.45 -39.6 -92.1 -37.35 -93.95 -33.7 -97.0 -31.7 -92.9 -31.25 -91.85 -31.35 -90.75 -31.55 -89.6 -31.9 -88.35 L-24.0 -75.35 -22.6 -73.05 Q-20.1 -82.3 -16.8 -91.35 -15.7 -94.4 -13.85 -96.6 L-14.85 -98.8 Q-15.95 -99.2 -16.9 -99.75 -18.95 -101.0 -21.1 -101.5 L-21.65 -101.9 Q-25.5 -104.9 -26.1 -109.75 -26.7 -114.65 -23.7 -118.45 -20.7 -122.3 -15.85 -122.9 -11.0 -123.5 -7.1 -120.5 -3.3 -117.5 -2.7 -112.65 -2.1 -107.8 -5.1 -103.95 -6.55 -102.1 -8.45 -100.95 L-7.85 -99.05 -7.75 -98.6 -7.35 -98.35 Q-3.7 -96.1 -0.7 -93.2 L3.45 -89.35 Q8.8 -84.3 13.3 -78.5 14.55 -84.8 13.85 -91.65 13.55 -95.0 13.8 -98.35 L14.15 -103.8 Q9.2 -104.15 10.65 -108.9" fill="#000000" fill-rule="evenodd" stroke="none"/>
  </g>
</svg>
