<?xml version="1.0" encoding="UTF-8" standalone="no"?>
<svg xmlns:ffdec="https://www.free-decompiler.com/flash" xmlns:xlink="http://www.w3.org/1999/xlink" ffdec:objectType="shape" height="151.75px" width="90.3px" xmlns="http://www.w3.org/2000/svg">
  <g transform="matrix(1.0, 0.0, 0.0, 1.0, 51.2, 136.35)">
    <path d="M0.0 -131.35 L0.15 -130.75 0.2 -129.9 0.95 -128.45 Q1.55 -123.6 3.0 -118.95 3.8 -117.8 4.9 -117.45 L5.75 -116.95 6.15 -117.1 6.45 -117.25 6.5 -117.45 6.55 -117.45 6.75 -117.65 7.1 -118.2 6.75 -118.65 6.9 -119.85 Q7.25 -123.3 8.35 -126.65 L14.25 -120.05 Q14.8 -119.4 15.55 -119.4 20.85 -119.55 25.95 -120.7 L25.9 -118.1 Q25.85 -115.05 26.05 -112.05 32.8 -109.4 39.1 -105.8 36.9 -103.25 34.05 -101.4 31.3 -99.7 29.75 -97.35 30.4 -96.5 31.5 -96.1 L37.05 -90.65 36.6 -90.05 36.3 -89.5 35.75 -89.3 35.15 -89.1 33.8 -87.6 Q30.7 -85.05 28.6 -82.0 L36.0 -75.95 36.15 -75.7 38.3 -73.05 Q34.7 -71.25 30.9 -69.9 29.7 -70.0 28.8 -69.3 28.3 -68.45 28.85 -67.55 30.45 -64.8 31.5 -61.8 L20.95 -61.3 Q18.75 -61.15 18.25 -59.35 L18.4 -59.05 20.45 -56.75 20.55 -56.45 20.55 -56.15 20.75 -55.9 Q22.2 -54.0 24.1 -52.4 L24.45 -51.9 Q25.9 -50.6 26.8 -48.95 26.55 -48.05 25.8 -47.55 22.05 -45.15 20.95 -41.2 24.2 -38.9 27.9 -37.1 31.65 -35.25 34.75 -32.8 34.1 -31.6 32.9 -31.0 29.2 -29.2 25.95 -26.75 L25.95 -26.2 25.95 -25.35 26.35 -24.7 Q27.7 -22.5 29.75 -21.5 L30.05 -21.0 Q30.8 -19.3 32.15 -18.15 L32.3 -17.85 Q32.95 -16.75 33.6 -16.1 L29.75 -15.4 Q25.25 -14.7 22.45 -11.9 25.9 -6.9 31.5 -4.6 32.4 -3.2 33.95 -2.6 36.25 -1.7 36.9 -0.45 34.1 1.25 31.1 2.5 L30.8 2.35 30.35 2.15 30.0 2.3 29.1 3.0 28.95 4.2 28.45 6.55 27.85 6.35 Q27.25 6.05 26.7 6.05 20.65 5.7 14.6 5.8 L13.75 6.05 13.45 7.8 Q13.4 9.75 12.75 11.55 L12.6 11.85 Q12.05 12.85 11.15 13.45 6.65 10.65 1.55 8.7 -2.55 7.1 -4.15 10.8 -6.45 13.65 -9.8 15.4 L-10.1 15.35 -10.65 15.2 -11.05 14.65 -12.0 13.2 Q-13.4 12.55 -14.0 11.15 -14.6 9.8 -16.15 9.75 L-32.1 9.15 -31.95 5.7 Q-31.9 4.75 -32.55 4.2 -36.65 0.85 -41.5 -1.7 L-41.65 -2.3 Q-41.85 -3.0 -42.45 -3.45 L-42.45 -4.0 -42.45 -4.85 -42.25 -5.15 -36.8 -9.6 Q-36.65 -10.0 -36.65 -10.45 L-36.7 -11.3 -36.9 -11.6 -37.35 -12.15 Q-37.5 -13.1 -37.9 -13.9 -40.1 -18.25 -42.85 -22.25 L-26.45 -22.9 -25.95 -23.2 Q-25.8 -24.55 -26.2 -25.8 -27.6 -30.2 -30.05 -34.15 L-16.55 -34.95 Q-15.55 -35.05 -14.8 -35.9 L-14.75 -36.75 Q-14.7 -37.4 -15.1 -37.9 L-16.6 -38.8 -17.1 -39.55 Q-18.95 -41.45 -20.05 -43.65 L-20.5 -44.0 Q-21.65 -45.15 -22.0 -46.55 L-21.45 -47.05 Q-18.3 -49.0 -14.85 -50.45 -11.5 -51.85 -9.05 -54.05 -9.95 -55.75 -12.3 -55.65 L-31.5 -54.9 -31.65 -55.1 -31.7 -55.4 -31.8 -55.7 -32.85 -57.1 -35.9 -63.15 -35.95 -63.75 Q-36.05 -64.5 -36.8 -64.55 L-47.4 -64.95 -47.45 -65.3 Q-45.1 -68.7 -42.2 -71.75 -39.75 -74.25 -39.0 -77.4 L-51.2 -85.55 -51.15 -85.7 -49.65 -86.5 -49.2 -86.9 Q-45.3 -88.6 -42.85 -91.9 L-44.35 -94.9 Q-46.5 -100.25 -48.2 -105.7 -43.1 -103.05 -37.65 -101.6 L-37.2 -101.85 -36.7 -102.35 -36.7 -102.65 -36.7 -102.95 Q-35.9 -103.8 -35.9 -104.95 L-35.55 -114.45 -35.35 -114.75 -35.15 -115.3 Q-33.0 -115.15 -31.7 -116.95 L-31.8 -117.8 -32.1 -119.25 -32.25 -119.55 -32.45 -119.85 -32.5 -120.1 Q-33.7 -124.1 -36.3 -127.6 L-36.5 -128.15 -38.5 -132.5 -37.25 -132.6 Q-30.1 -130.25 -23.8 -126.55 L-23.15 -126.8 Q-22.65 -126.95 -22.3 -127.3 L-22.15 -127.9 -22.1 -128.45 Q-18.5 -132.9 -14.8 -136.35 -13.35 -132.9 -11.5 -129.65 -11.15 -129.05 -10.4 -128.9 -4.85 -127.65 0.0 -131.35" fill="#ffff00" fill-opacity="0.5019608" fill-rule="evenodd" stroke="none"/>
  </g>
</svg>
