<?xml version="1.0" encoding="UTF-8" standalone="no"?>
<svg xmlns:ffdec="https://www.free-decompiler.com/flash" xmlns:xlink="http://www.w3.org/1999/xlink" ffdec:objectType="shape" height="131.2px" width="72.95px" xmlns="http://www.w3.org/2000/svg">
  <g transform="matrix(1.0, 0.0, 0.0, 1.0, 28.1, 126.65)">
    <path d="M17.0 -114.85 Q17.0 -109.95 13.55 -106.5 10.55 -103.5 6.45 -103.1 L6.3 -102.75 5.5 -100.3 6.95 -98.5 8.85 -95.9 Q15.75 -87.65 21.0 -78.45 23.35 -79.5 25.6 -81.95 31.85 -88.6 36.95 -95.9 37.15 -101.3 42.75 -100.35 45.25 -99.95 44.8 -97.4 44.45 -95.5 43.2 -93.9 36.15 -84.65 27.95 -76.1 24.65 -72.65 20.6 -70.7 20.25 -70.5 19.85 -70.7 17.3 -72.0 15.95 -74.75 11.6 -83.55 5.1 -91.0 L4.6 -91.6 Q5.15 -80.65 4.4 -69.7 3.85 -62.25 4.5 -55.0 L4.5 -54.9 Q6.75 -53.5 8.05 -50.75 10.1 -46.6 13.1 -43.0 L14.7 -40.95 Q16.6 -38.4 19.1 -36.2 22.6 -33.2 23.2 -29.05 23.35 -28.35 22.9 -27.65 21.05 -24.85 19.5 -21.9 16.65 -15.45 16.75 -8.35 16.75 -5.95 15.75 -3.75 20.1 -3.75 24.55 -1.95 25.85 -1.45 25.6 -0.05 25.0 3.9 20.5 3.05 L10.15 2.1 Q8.75 2.1 8.35 0.7 7.3 -3.05 9.9 -6.05 10.5 -6.7 10.55 -7.6 10.9 -12.35 11.8 -17.05 12.4 -20.3 13.8 -23.4 L16.8 -29.75 Q9.25 -37.5 3.35 -46.55 L2.65 -47.6 Q2.35 -46.9 2.4 -46.0 2.5 -44.7 1.7 -43.7 L-1.4 -28.95 -2.5 -24.1 Q-1.4 -18.9 -6.15 -15.45 L-9.85 -12.3 -19.4 -2.3 Q-14.55 -2.1 -9.25 -0.45 -8.15 -0.1 -7.9 1.0 -7.1 4.45 -10.8 4.55 L-13.1 4.45 -26.6 2.7 Q-27.4 2.6 -27.7 1.8 -29.1 -2.2 -25.6 -5.05 L-20.75 -9.4 Q-14.35 -15.8 -8.3 -22.35 -7.6 -30.85 -5.4 -39.1 -3.7 -45.65 -2.8 -52.35 -2.55 -54.3 -1.4 -55.3 L-1.55 -56.15 Q-2.3 -67.35 -1.25 -78.35 -1.0 -81.25 -1.25 -84.1 -1.7 -88.6 -1.45 -93.2 -5.5 -88.35 -8.65 -82.85 L-13.25 -74.45 Q-14.95 -71.2 -17.45 -68.7 -18.1 -68.05 -19.0 -68.4 -22.3 -69.65 -20.95 -73.0 L-13.95 -90.55 -12.05 -95.35 Q-10.4 -99.35 -6.6 -101.2 -5.4 -101.8 -4.2 -101.2 L-3.4 -100.7 Q-2.2 -101.95 -0.55 -102.6 L-2.45 -102.6 -2.4 -102.7 -2.3 -103.1 -2.2 -103.7 -1.7 -105.25 -3.15 -106.5 Q-6.6 -109.95 -6.6 -114.85 -6.6 -119.75 -3.15 -123.2 0.3 -126.65 5.2 -126.65 10.1 -126.65 13.55 -123.2 17.0 -119.75 17.0 -114.85" fill="#000000" fill-rule="evenodd" stroke="none"/>
  </g>
</svg>
