<?xml version="1.0" encoding="UTF-8" standalone="no"?>
<svg xmlns:ffdec="https://www.free-decompiler.com/flash" xmlns:xlink="http://www.w3.org/1999/xlink" ffdec:objectType="shape" height="122.85px" width="63.9px" xmlns="http://www.w3.org/2000/svg">
  <g transform="matrix(1.0, 0.0, 0.0, 1.0, 28.8, 118.8)">
    <path d="M11.85 -104.15 Q11.5 -105.5 11.5 -107.0 11.5 -111.9 14.95 -115.35 18.4 -118.8 23.3 -118.8 28.2 -118.8 31.65 -115.35 35.1 -111.9 35.1 -107.0 35.1 -102.1 31.65 -98.65 28.25 -95.25 23.5 -95.2 L23.55 -95.1 22.8 -95.1 Q20.1 -96.15 17.2 -96.55 L17.45 -95.4 Q17.6 -94.05 18.25 -92.8 21.95 -85.5 26.2 -78.5 27.1 -77.0 26.05 -75.65 L22.65 -71.65 Q19.35 -68.15 16.6 -64.4 L15.85 -63.55 Q12.5 -60.55 8.35 -59.2 L7.05 -58.95 Q6.55 -58.1 5.65 -57.75 L5.6 -54.8 Q13.7 -48.4 18.7 -39.35 L21.2 -34.5 Q22.4 -32.0 22.05 -29.2 20.7 -19.15 17.9 -9.6 17.9 -7.9 16.85 -6.55 L16.05 -5.25 Q18.7 -4.1 22.35 -3.4 24.3 -3.05 24.5 -1.1 24.75 1.7 21.9 1.8 L16.9 1.6 Q13.8 1.3 11.05 0.15 10.25 -0.2 10.15 -1.05 9.4 -7.45 12.65 -13.0 L13.15 -14.3 15.65 -25.45 Q16.4 -28.8 15.65 -32.1 L15.2 -33.25 Q10.8 -40.9 4.8 -47.2 L4.35 -47.7 3.85 -45.5 Q1.8 -34.65 -1.4 -24.25 -2.9 -19.2 -6.35 -15.05 L-9.0 -11.5 Q-12.8 -5.95 -18.6 -2.65 -13.65 -3.25 -9.3 -0.9 -8.3 -0.4 -8.5 0.75 -9.2 4.75 -13.8 3.9 L-19.2 3.15 Q-23.85 2.75 -28.0 1.0 -28.75 0.7 -28.8 -0.15 -28.85 -4.05 -25.0 -5.9 -17.85 -9.45 -13.35 -15.7 -9.75 -20.7 -7.25 -26.2 -6.45 -27.95 -5.95 -29.8 -4.35 -35.5 -3.15 -41.4 -2.0 -46.75 -1.1 -52.05 L-0.4 -54.2 -0.5 -55.8 -0.35 -58.5 Q-2.5 -59.35 -4.35 -60.7 -9.2 -64.15 -12.8 -68.65 -14.45 -70.7 -14.85 -73.2 -15.6 -77.9 -11.5 -80.9 L-8.6 -83.3 Q-1.1 -90.85 7.35 -97.45 L8.85 -98.45 11.1 -103.0 11.85 -104.15 M1.4 -84.8 L-5.45 -78.25 -9.0 -74.4 Q-5.75 -68.7 -0.15 -65.15 L0.1 -77.4 Q0.15 -81.3 1.4 -84.8 M5.85 -76.7 L5.8 -70.15 6.9 -70.4 Q9.95 -70.7 11.45 -68.35 13.9 -69.7 16.2 -72.4 L20.2 -77.5 15.25 -85.3 15.2 -85.55 Q13.25 -88.65 12.2 -92.05 L7.1 -82.05 Q5.85 -79.55 5.85 -76.7" fill="#000000" fill-rule="evenodd" stroke="none"/>
  </g>
</svg>
