<?xml version="1.0" encoding="UTF-8" standalone="no"?>
<svg xmlns:ffdec="https://www.free-decompiler.com/flash" xmlns:xlink="http://www.w3.org/1999/xlink" ffdec:objectType="shape" height="142.8px" width="80.7px" xmlns="http://www.w3.org/2000/svg">
  <g transform="matrix(1.0, 0.0, 0.0, 1.0, 36.7, 128.0)">
    <path d="M33.6 -126.55 L33.6 -126.25 33.6 -125.7 34.0 -125.1 34.0 -124.85 34.0 -124.55 34.75 -123.1 34.75 -122.8 Q34.8 -121.6 35.25 -120.5 36.1 -119.4 35.9 -117.9 36.6 -117.05 36.8 -115.9 40.95 -114.65 44.0 -112.9 42.8 -111.05 41.3 -109.45 L41.25 -109.2 41.1 -108.6 Q40.2 -108.1 39.75 -107.15 L39.75 -106.85 39.75 -105.7 40.15 -105.15 40.15 -104.85 40.15 -104.55 40.8 -103.7 40.9 -103.4 40.9 -102.55 Q42.1 -101.45 41.5 -100.35 36.65 -96.1 30.55 -93.3 L30.55 -93.05 Q30.45 -92.15 30.65 -91.3 34.7 -88.35 39.3 -86.1 39.85 -85.6 40.45 -85.25 40.1 -83.25 38.55 -81.9 L33.6 -78.25 33.6 -77.95 33.6 -77.1 33.9 -76.8 Q34.0 -75.6 34.65 -74.65 36.95 -71.05 38.6 -67.3 L39.0 -66.45 27.3 -65.9 26.7 -65.65 26.75 -64.5 Q27.1 -60.75 28.6 -57.3 24.2 -54.2 19.0 -52.2 L17.85 -50.9 17.85 -50.6 17.95 -49.45 Q23.45 -45.9 29.85 -44.25 31.2 -43.45 32.35 -43.1 L32.2 -42.8 27.45 -35.3 27.45 -35.05 27.35 -34.45 27.1 -34.15 27.05 -33.9 Q27.0 -33.0 27.2 -32.15 29.25 -30.5 31.8 -30.05 34.75 -28.85 37.05 -26.95 L35.55 -25.45 31.4 -20.6 30.65 -20.05 30.55 -19.75 Q30.15 -18.8 30.15 -17.75 31.05 -16.6 32.45 -16.2 L37.05 -12.75 Q36.95 -12.05 36.35 -11.65 32.9 -9.15 32.55 -5.25 36.65 -2.25 39.3 1.95 34.9 2.9 30.35 3.15 29.05 3.25 28.25 4.25 L28.25 4.55 28.2 5.4 27.25 12.3 26.5 12.4 Q25.15 11.6 23.6 11.55 21.05 10.0 18.0 9.35 16.9 9.1 16.15 9.65 14.05 11.2 12.1 13.1 7.45 12.05 2.85 10.45 1.35 9.9 0.4 11.3 -2.95 16.15 -8.45 14.25 -10.25 12.4 -12.6 11.2 L-16.35 11.35 Q-20.3 13.55 -24.7 12.8 -24.85 12.3 -25.15 11.95 L-25.15 11.65 -25.15 11.35 -27.0 9.35 Q-27.4 7.55 -28.6 6.15 L-28.6 5.9 -28.6 5.6 -29.15 5.25 -36.7 4.65 -34.5 1.2 -34.45 0.9 -34.3 0.0 Q-33.55 -1.65 -31.9 -2.45 L-31.8 -2.75 -31.7 -3.65 Q-33.75 -5.7 -34.55 -7.55 -29.55 -9.35 -24.2 -9.4 L-24.15 -9.7 Q-23.95 -10.65 -24.0 -11.7 L-24.4 -12.25 -24.4 -12.55 -24.4 -12.85 -29.0 -18.6 Q-28.95 -19.1 -29.3 -19.45 -30.05 -19.85 -30.45 -20.6 L-29.9 -20.95 Q-22.55 -22.5 -15.35 -24.35 L-15.25 -24.65 -15.15 -25.5 Q-16.15 -27.1 -17.7 -28.15 -20.0 -29.65 -20.75 -31.3 L-18.8 -31.8 Q-14.95 -32.75 -11.8 -34.55 L-11.75 -34.85 -11.7 -36.3 Q-12.3 -37.75 -13.65 -38.6 -14.8 -40.55 -16.9 -41.75 L-17.5 -42.6 -17.5 -42.9 -17.5 -43.75 -14.7 -45.8 -11.55 -47.8 Q-7.7 -49.7 -7.5 -53.55 -7.75 -53.85 -8.05 -53.95 -11.1 -54.8 -13.65 -54.6 L-13.7 -60.1 -13.65 -62.1 Q-13.35 -65.25 -16.45 -65.4 L-25.95 -65.85 Q-24.45 -68.35 -23.65 -71.05 -22.95 -71.65 -22.55 -72.5 L-21.2 -74.6 Q-18.7 -77.6 -17.6 -81.15 -17.45 -81.6 -17.8 -81.75 L-25.25 -85.15 Q-23.55 -86.2 -21.55 -86.55 L-19.35 -86.9 Q-14.1 -87.85 -9.5 -89.85 L-9.45 -90.15 -9.4 -91.6 Q-10.1 -93.05 -11.25 -94.2 L-11.35 -94.5 -11.55 -95.05 -12.7 -95.65 -13.35 -96.8 -1.55 -97.2 Q-1.35 -97.2 -1.15 -97.35 -0.4 -100.2 -2.0 -102.55 L-3.95 -108.3 6.55 -107.45 Q7.0 -107.7 7.1 -108.2 L6.35 -109.65 Q6.7 -111.35 5.55 -112.55 L5.55 -112.8 5.55 -113.1 5.2 -113.7 5.2 -113.95 5.2 -114.25 4.4 -115.15 Q3.95 -117.3 2.5 -119.15 2.6 -119.8 2.3 -120.3 L13.05 -121.95 13.15 -122.25 Q13.55 -125.2 12.6 -128.0 L16.9 -126.45 Q18.8 -125.35 20.85 -124.55 21.6 -123.8 22.6 -123.4 L24.9 -122.45 Q25.85 -122.05 26.6 -122.45 L33.6 -126.55" fill="#ffff00" fill-opacity="0.5019608" fill-rule="evenodd" stroke="none"/>
  </g>
</svg>
