<?xml version="1.0" encoding="UTF-8" standalone="no"?>
<svg xmlns:ffdec="https://www.free-decompiler.com/flash" xmlns:xlink="http://www.w3.org/1999/xlink" ffdec:objectType="shape" height="144.8px" width="88.05px" xmlns="http://www.w3.org/2000/svg">
  <g transform="matrix(1.0, 0.0, 0.0, 1.0, 38.7, 127.95)">
    <path d="M21.75 -124.2 L23.65 -124.3 Q27.35 -125.6 30.45 -127.9 L30.65 -127.9 31.1 -127.5 31.7 -126.55 31.7 -126.25 31.7 -126.0 32.95 -124.05 34.0 -121.1 34.7 -120.15 Q35.15 -119.7 35.15 -119.05 37.5 -116.15 41.65 -115.55 46.1 -114.9 49.35 -113.1 48.8 -112.6 48.0 -112.25 43.5 -110.25 39.75 -107.15 L39.75 -106.85 39.75 -106.6 39.75 -106.0 41.55 -104.3 46.1 -100.25 46.6 -99.4 Q47.05 -98.6 47.75 -97.95 L46.85 -97.75 Q46.25 -97.6 45.8 -97.15 42.75 -97.05 39.95 -96.2 39.65 -95.85 39.7 -95.35 L39.75 -94.5 40.05 -94.2 Q40.2 -93.25 40.7 -92.4 L41.95 -90.15 28.8 -89.3 28.65 -88.7 Q28.55 -88.25 28.7 -87.85 L29.6 -87.35 29.95 -87.5 30.15 -87.55 30.25 -87.45 Q30.65 -87.0 31.3 -86.9 L31.4 -86.7 Q31.95 -86.15 32.75 -86.1 L33.0 -85.8 Q33.65 -85.05 34.65 -84.95 L36.1 -83.8 Q37.4 -82.7 38.2 -81.4 37.6 -80.6 36.75 -80.1 34.1 -78.5 31.7 -76.6 L31.7 -75.75 31.7 -74.9 33.85 -72.8 Q35.7 -70.85 36.4 -68.25 L36.7 -67.95 34.3 -67.7 Q29.65 -67.45 26.3 -65.1 26.15 -64.0 26.7 -63.05 L27.45 -61.05 28.4 -60.05 Q29.2 -59.05 29.4 -57.9 L19.8 -55.3 19.8 -55.0 19.75 -54.15 Q19.7 -53.7 19.9 -53.3 L20.2 -53.05 Q20.55 -52.85 20.95 -52.7 23.55 -49.7 27.3 -48.3 29.75 -47.35 31.4 -45.4 30.85 -44.2 29.95 -43.25 28.5 -41.75 27.45 -39.95 L27.45 -39.35 27.45 -38.5 Q30.0 -36.25 32.95 -34.55 35.25 -33.25 36.1 -31.95 L35.85 -31.75 35.55 -31.5 35.5 -31.2 35.45 -30.9 32.75 -28.6 Q30.35 -26.55 28.6 -24.0 L28.6 -23.1 28.6 -22.25 Q29.35 -20.75 30.65 -19.65 33.5 -17.25 35.9 -14.5 L34.2 -12.8 Q31.65 -11.1 29.75 -8.6 L29.75 -8.35 29.75 -7.45 29.75 -6.6 Q30.75 -4.85 32.1 -3.25 34.15 -0.9 35.8 1.75 L35.9 2.05 35.9 2.35 36.2 2.6 36.7 3.2 Q33.2 3.85 30.15 5.6 L30.15 7.05 30.15 8.45 30.45 8.7 Q31.2 9.0 31.3 9.65 L31.25 10.5 Q31.2 11.0 31.5 11.35 L32.1 11.95 32.25 12.45 32.45 13.35 32.65 13.65 33.05 14.25 31.9 14.0 27.9 13.05 23.05 11.7 Q19.5 10.5 17.5 12.9 L17.5 13.45 17.4 14.35 17.1 14.6 17.1 14.9 17.1 15.2 17.1 15.75 16.7 15.75 Q13.05 13.1 8.85 11.45 L7.3 11.5 Q5.35 12.85 3.95 15.2 L3.45 15.15 3.05 15.0 Q2.1 13.9 0.55 13.5 L-2.4 12.45 Q-6.55 10.8 -7.6 14.7 L-8.85 15.3 -11.55 16.85 -11.9 16.75 -12.5 16.15 -13.65 15.0 -13.65 14.7 -13.65 14.45 -13.85 14.15 Q-14.25 13.65 -14.9 13.55 -15.7 11.7 -17.3 10.6 L-20.7 7.85 Q-21.4 7.15 -22.3 7.1 L-33.25 6.55 -33.0 6.05 -32.45 5.2 -32.45 4.05 -32.45 2.9 -34.2 1.0 -38.7 -3.45 -31.45 -4.45 Q-31.15 -4.5 -30.9 -4.8 L-31.05 -7.35 -31.65 -11.75 Q-32.25 -14.95 -33.35 -18.05 L-20.85 -17.35 Q-20.25 -20.35 -21.25 -23.35 -22.2 -26.2 -22.45 -29.15 L-12.2 -29.8 Q-11.95 -29.85 -11.7 -30.15 L-11.7 -31.0 -11.8 -31.85 -14.2 -35.1 -18.05 -39.75 -16.6 -41.15 Q-13.9 -43.1 -11.55 -45.5 -11.3 -46.4 -10.5 -46.95 -8.9 -48.0 -8.75 -49.55 -10.05 -50.75 -11.5 -51.65 -15.1 -53.8 -17.75 -56.15 L-17.5 -56.45 -17.1 -57.0 -17.05 -57.3 -16.25 -59.9 Q-15.75 -61.25 -15.95 -62.8 L-17.05 -63.75 -26.3 -67.6 -24.45 -69.3 Q-21.3 -71.65 -18.55 -74.2 L-18.05 -74.45 -17.65 -74.7 -17.6 -75.0 -17.45 -75.25 -17.1 -75.85 -17.25 -76.65 -18.15 -78.15 -18.65 -78.45 -19.05 -79.6 Q-19.25 -80.75 -20.15 -81.6 -20.15 -82.2 -20.3 -82.75 -20.45 -83.55 -20.95 -84.2 -20.85 -85.1 -21.25 -85.85 -21.8 -86.85 -21.7 -87.95 L-13.45 -87.95 Q-12.8 -87.95 -12.5 -88.5 -10.05 -93.1 -11.25 -98.4 L2.3 -99.05 Q3.25 -99.15 3.65 -100.05 L3.4 -107.25 Q3.1 -110.8 3.65 -114.45 L10.75 -114.4 Q11.4 -114.4 11.7 -115.05 L11.7 -115.3 11.7 -115.6 11.95 -116.2 Q12.55 -118.9 12.8 -121.65 L13.25 -127.15 15.75 -126.45 Q18.55 -124.95 21.75 -124.2" fill="#ffff00" fill-opacity="0.5019608" fill-rule="evenodd" stroke="none"/>
  </g>
</svg>
