<?xml version="1.0" encoding="UTF-8" standalone="no"?>
<svg xmlns:ffdec="https://www.free-decompiler.com/flash" xmlns:xlink="http://www.w3.org/1999/xlink" ffdec:objectType="shape" height="146.35px" width="88.9px" xmlns="http://www.w3.org/2000/svg">
  <g transform="matrix(1.0, 0.0, 0.0, 1.0, 43.2, 132.7)">
    <path d="M22.1 -125.7 L22.1 -125.4 22.2 -125.1 23.0 -124.95 Q26.1 -125.55 29.2 -126.65 L29.45 -126.85 29.65 -127.15 Q32.3 -128.0 34.4 -127.9 L34.15 -127.35 34.0 -127.05 33.95 -124.15 33.7 -118.95 38.0 -117.05 39.3 -116.5 Q43.0 -115.0 45.7 -113.1 40.45 -110.1 35.9 -106.2 L35.9 -105.9 36.0 -105.35 36.1 -105.05 36.45 -104.75 36.7 -104.45 Q36.75 -103.85 37.1 -103.3 L39.0 -100.15 39.0 -99.85 39.0 -99.3 39.1 -99.0 39.65 -98.4 40.15 -97.85 40.15 -97.55 40.15 -97.25 40.75 -96.35 41.2 -95.25 29.8 -94.6 29.4 -94.3 29.4 -93.4 29.4 -92.55 29.95 -91.95 30.45 -91.4 30.55 -90.85 30.65 -90.55 31.2 -89.95 37.45 -83.35 37.5 -83.2 Q34.5 -81.55 32.45 -78.9 L32.4 -77.75 Q32.35 -77.3 32.65 -76.9 33.25 -76.6 33.55 -76.15 35.05 -74.1 36.7 -72.3 L36.7 -72.0 36.8 -71.7 37.35 -71.15 37.85 -70.55 37.85 -69.7 37.85 -69.1 38.15 -68.5 38.2 -68.25 30.9 -66.45 30.8 -64.15 30.45 -60.1 29.8 -59.5 29.65 -59.35 29.25 -59.4 27.45 -59.9 20.35 -63.95 19.1 -64.75 Q17.05 -66.35 15.15 -65.3 L15.25 -62.7 Q15.4 -60.5 15.95 -58.35 L16.2 -58.05 16.35 -57.8 16.35 -57.5 16.35 -57.2 16.6 -56.95 17.0 -56.65 17.05 -56.35 17.1 -56.05 Q18.1 -54.6 19.9 -54.6 24.1 -52.1 28.5 -50.0 L27.9 -49.4 27.45 -49.05 27.45 -48.75 27.45 -48.5 Q26.9 -47.35 26.65 -46.1 26.15 -44.15 26.4 -42.15 L27.25 -41.6 27.25 -41.55 Q31.95 -38.5 35.45 -34.15 33.75 -32.35 31.3 -31.5 L30.75 -30.75 30.45 -29.85 Q29.4 -29.55 29.2 -28.5 28.95 -26.95 29.0 -25.35 L29.55 -24.75 Q32.65 -21.05 36.1 -17.85 L36.3 -17.25 Q36.7 -16.25 37.65 -15.9 33.15 -15.05 29.75 -12.25 L29.75 -11.45 29.7 -11.4 29.4 -11.1 29.4 -10.85 29.4 -10.55 29.4 -10.25 29.4 -9.95 31.85 -6.85 34.3 -3.5 36.9 0.4 37.45 1.55 Q32.95 1.35 28.85 2.7 28.5 2.8 28.25 3.1 L28.25 3.65 28.25 8.85 28.25 10.0 28.2 13.2 28.15 13.65 Q27.4 13.55 26.8 13.25 L24.25 11.9 20.3 9.95 19.4 9.65 Q18.1 8.55 16.55 7.8 L15.45 7.15 Q13.2 5.75 11.65 7.75 L9.65 10.4 7.1 13.3 3.5 9.6 Q1.35 7.35 -1.55 6.45 L-4.05 6.55 -6.3 9.35 -6.7 9.85 Q-9.0 11.9 -11.95 12.85 L-12.6 13.0 -13.7 12.0 Q-16.15 8.9 -19.5 7.3 L-20.25 7.15 -34.4 8.4 -34.4 8.1 -34.4 6.05 -34.4 5.5 -34.4 2.05 -34.4 1.75 -34.5 1.2 Q-35.5 -0.1 -36.85 -1.0 -37.75 -1.6 -38.45 -2.35 L-40.8 -5.35 -41.5 -6.05 -42.35 -7.2 -42.65 -7.45 -42.95 -7.75 -43.2 -8.05 Q-39.1 -8.2 -35.55 -9.75 -33.15 -10.8 -32.9 -14.0 -32.7 -16.1 -32.85 -18.3 L-32.35 -18.65 -20.35 -19.5 Q-19.45 -19.6 -19.4 -20.45 L-20.6 -22.2 -20.8 -22.45 -21.05 -22.75 -21.3 -23.05 -21.3 -24.45 -21.3 -24.75 -21.35 -25.05 -21.4 -25.35 -21.6 -25.6 -21.9 -25.9 -22.1 -26.2 -22.2 -26.75 -22.3 -27.05 -22.55 -27.35 -22.75 -27.65 -22.85 -27.95 -22.85 -28.2 -22.9 -28.5 -22.95 -28.8 -23.15 -29.05 -23.4 -29.4 -23.65 -29.65 -23.75 -30.25 -23.85 -30.5 -24.0 -30.8 -24.1 -31.1 -11.75 -31.65 Q-10.35 -31.95 -9.2 -32.8 L-9.05 -33.7 -9.05 -33.95 -9.05 -34.25 -9.1 -34.55 -10.65 -36.85 -10.85 -37.15 -11.15 -37.45 -11.35 -37.7 -11.45 -38.3 -11.55 -38.55 -11.8 -38.85 -12.1 -39.15 -12.1 -39.45 -12.1 -39.75 -12.3 -40.0 -12.6 -40.3 -13.05 -40.65 -13.25 -40.9 -13.3 -41.15 -13.35 -41.45 -15.75 -44.65 -15.95 -44.9 -16.15 -45.25 -16.15 -45.5 -9.0 -53.9 Q-8.5 -54.5 -8.9 -55.1 -10.95 -58.2 -14.2 -60.35 L-15.3 -60.8 Q-20.6 -61.9 -25.95 -61.05 -25.3 -62.25 -25.2 -63.55 L-25.15 -63.85 -25.15 -64.15 -25.15 -64.4 -24.5 -65.6 -24.4 -65.85 -24.4 -66.15 -24.4 -66.45 -24.1 -66.7 -23.8 -67.0 -23.55 -67.3 -23.35 -67.6 Q-23.2 -68.0 -23.2 -68.45 -23.15 -69.9 -23.65 -71.2 -24.25 -72.75 -25.55 -73.85 -27.65 -75.55 -30.0 -76.75 -31.15 -77.35 -31.5 -78.55 L-32.15 -79.15 -32.4 -79.4 -32.65 -79.7 -33.05 -80.0 Q-31.65 -80.45 -30.35 -81.25 L-28.4 -82.45 Q-25.15 -84.35 -21.6 -85.35 -21.1 -85.45 -20.75 -85.85 -19.15 -88.55 -19.3 -91.9 L-19.25 -92.45 Q-18.9 -94.3 -19.0 -96.2 L-19.0 -96.8 -16.5 -96.3 -15.55 -96.0 -15.0 -95.85 -14.1 -95.75 Q-12.55 -94.3 -10.6 -94.9 L-10.35 -95.05 -10.1 -95.35 -9.9 -95.65 -9.85 -95.9 -9.8 -98.8 -9.8 -99.4 -9.8 -102.25 -9.8 -103.1 -9.8 -103.7 2.7 -103.1 Q3.2 -103.05 3.65 -103.3 L3.8 -103.5 3.95 -103.8 4.05 -104.1 Q3.95 -104.6 3.5 -104.7 L3.4 -104.7 Q0.05 -108.3 -3.95 -111.4 L-4.2 -111.95 -4.3 -112.25 Q-0.9 -115.65 4.15 -116.1 4.5 -116.6 4.4 -117.25 3.9 -119.4 2.1 -120.7 L2.0 -121.25 1.9 -121.55 1.55 -121.85 -0.95 -124.45 11.55 -123.65 Q12.2 -123.6 12.35 -124.2 L14.5 -131.05 14.95 -131.65 15.15 -131.95 15.15 -132.2 15.2 -132.5 15.35 -132.7 16.45 -131.65 Q19.85 -129.2 22.1 -125.7" fill="#ffff00" fill-opacity="0.5019608" fill-rule="evenodd" stroke="none"/>
  </g>
</svg>
