<?xml version="1.0" encoding="UTF-8" standalone="no"?>
<svg xmlns:ffdec="https://www.free-decompiler.com/flash" xmlns:xlink="http://www.w3.org/1999/xlink" ffdec:objectType="shape" height="147.7px" width="87.1px" xmlns="http://www.w3.org/2000/svg">
  <g transform="matrix(1.0, 0.0, 0.0, 1.0, 44.35, 132.65)">
    <path d="M19.1 -132.65 Q19.55 -132.5 19.65 -131.5 L20.15 -129.45 21.8 -124.0 Q22.85 -122.4 24.6 -121.6 L25.25 -121.5 29.4 -121.9 29.3 -116.4 Q29.15 -112.55 31.0 -109.25 31.15 -108.9 31.45 -108.85 L40.25 -107.2 40.0 -106.75 39.45 -106.15 Q39.25 -105.05 38.55 -104.05 L35.55 -99.8 35.15 -98.05 35.25 -96.35 36.15 -95.55 39.45 -92.8 39.25 -92.55 Q37.65 -91.55 36.5 -90.2 L35.4 -89.55 33.25 -87.1 33.25 -86.55 33.25 -85.7 33.7 -85.2 Q37.65 -82.55 40.8 -78.65 40.2 -78.1 39.4 -77.8 37.8 -77.2 36.15 -77.1 31.9 -76.8 28.6 -74.55 L28.6 -73.65 28.7 -72.5 29.0 -72.25 29.75 -71.35 29.85 -70.2 Q29.9 -69.45 30.45 -68.75 24.9 -68.55 20.55 -65.9 L20.55 -65.05 20.55 -64.15 20.75 -63.85 Q21.2 -62.95 22.0 -62.45 L22.05 -62.15 22.1 -61.85 22.35 -61.55 22.85 -61.0 22.0 -58.7 20.85 -55.25 20.55 -54.95 20.5 -54.1 20.65 -52.95 Q23.75 -51.45 27.1 -50.45 L27.2 -50.3 31.4 -48.2 30.9 -47.65 30.9 -47.05 30.8 -46.5 29.45 -44.8 Q27.9 -42.55 26.7 -40.15 L26.65 -39.6 26.8 -38.7 27.1 -38.45 Q28.3 -37.5 29.65 -37.0 L30.2 -36.65 Q32.3 -36.1 34.1 -34.85 34.3 -34.4 33.95 -33.95 L33.0 -32.6 28.6 -25.65 28.6 -25.35 28.6 -25.1 28.4 -24.8 27.85 -24.2 27.85 -23.65 27.85 -22.75 28.1 -22.55 Q30.2 -21.1 32.75 -20.45 L33.25 -20.15 Q35.2 -19.65 36.3 -18.25 36.5 -16.55 35.8 -15.0 L35.25 -14.05 Q33.3 -10.85 33.6 -7.0 L34.15 -6.65 Q39.1 -5.4 42.75 -1.95 L42.5 -1.75 Q40.45 -0.85 38.6 0.35 36.4 0.6 34.55 1.7 34.25 2.5 34.3 3.45 L34.4 5.75 34.65 6.05 34.75 6.35 34.8 7.2 34.65 8.25 Q32.9 8.3 31.25 7.45 27.7 5.6 24.0 5.35 23.65 5.65 23.45 6.1 23.1 6.8 23.25 7.55 L22.9 8.15 22.1 9.6 22.1 11.05 Q22.1 12.05 21.3 12.75 L21.15 13.85 Q20.75 15.45 19.3 14.9 13.2 12.4 7.95 8.35 4.4 5.7 2.4 9.3 L-4.9 14.2 -6.25 14.3 -7.0 13.8 -7.15 13.55 Q-7.5 12.95 -8.15 12.65 -8.7 11.55 -9.55 10.7 -10.6 9.65 -12.0 9.35 -13.15 9.1 -13.85 9.8 -17.25 13.2 -22.1 12.65 L-22.35 12.35 -22.5 12.1 -22.5 10.95 -22.5 9.8 -22.65 9.5 -22.85 9.2 -22.85 8.35 -22.85 7.5 -23.05 7.2 -23.25 6.9 -23.25 6.05 -23.25 5.15 -23.75 4.85 Q-27.9 4.45 -32.1 5.0 L-32.3 4.65 -32.25 4.4 -31.2 1.9 Q-30.15 -0.2 -30.15 -2.5 L-31.0 -3.5 -33.15 -4.9 -32.05 -6.3 Q-30.3 -7.85 -29.0 -9.8 L-28.4 -10.4 Q-27.95 -10.9 -27.85 -11.55 L-27.25 -11.7 Q-26.8 -11.75 -26.5 -12.1 L-26.3 -12.95 Q-26.25 -13.75 -26.5 -14.4 L-27.05 -15.05 Q-27.45 -15.85 -28.15 -16.45 L-28.55 -17.85 Q-29.15 -19.3 -30.15 -20.45 L-30.15 -21.05 -30.15 -21.6 Q-27.75 -22.55 -25.05 -23.0 L-22.15 -23.05 Q-19.1 -22.6 -17.1 -24.0 L-17.1 -25.15 -17.1 -26.35 -18.35 -28.0 Q-20.0 -30.05 -21.3 -32.4 L-21.3 -32.95 -21.3 -33.8 -20.35 -34.1 -20.1 -34.3 -19.9 -34.6 -18.0 -34.75 Q-14.45 -35.3 -11.7 -37.1 L-11.7 -37.95 -11.8 -38.8 -13.25 -40.3 Q-16.05 -42.45 -18.05 -45.25 -17.3 -46.1 -16.15 -46.3 -12.25 -46.95 -9.05 -48.6 L-9.15 -49.05 Q-12.7 -52.3 -17.1 -54.55 L-16.25 -55.4 Q-12.3 -57.05 -9.05 -59.35 L-9.05 -59.95 -9.05 -60.5 -9.6 -60.95 Q-12.35 -62.3 -14.3 -63.9 -13.85 -65.1 -13.95 -66.5 L-14.0 -69.35 -14.55 -69.65 Q-17.7 -70.0 -20.15 -67.25 -21.35 -67.2 -22.3 -66.45 L-24.1 -66.75 -24.3 -67.35 -24.4 -68.2 Q-24.9 -68.85 -25.0 -69.65 -25.7 -74.1 -29.75 -71.1 L-31.3 -70.9 Q-31.8 -72.2 -31.75 -73.65 L-31.7 -77.4 -31.9 -77.7 -32.1 -78.0 -32.7 -80.55 Q-32.9 -81.4 -33.75 -81.3 L-39.4 -80.5 -37.8 -85.05 Q-36.85 -88.25 -37.0 -91.75 -37.0 -92.3 -37.4 -92.6 -40.4 -95.1 -44.35 -96.15 -42.2 -96.3 -40.55 -97.6 -38.7 -97.4 -37.85 -98.95 L-37.85 -100.1 -37.85 -100.65 -38.05 -102.35 Q-38.7 -104.85 -38.6 -107.55 L-37.7 -107.3 Q-34.85 -106.2 -32.65 -104.15 -28.85 -100.55 -24.8 -103.75 L-21.9 -104.0 -21.75 -103.7 -21.5 -103.15 -20.95 -102.6 -20.45 -101.1 -19.4 -99.4 -19.4 -98.85 -19.4 -97.95 -19.15 -97.65 Q-18.55 -96.9 -17.65 -96.65 -17.0 -96.8 -16.7 -97.35 -16.2 -98.2 -16.35 -99.1 L-15.85 -100.05 -15.25 -101.95 Q-14.8 -104.1 -14.6 -106.35 L-14.0 -106.8 Q-12.05 -106.3 -10.3 -105.25 -7.45 -103.55 -5.3 -105.0 L-5.45 -106.45 Q-6.0 -108.15 -7.4 -109.0 L-8.35 -110.4 -12.5 -115.35 -12.65 -115.9 Q-12.9 -116.6 -13.55 -117.1 L-13.65 -117.35 -13.75 -117.95 Q-8.3 -119.05 -2.7 -119.4 -0.15 -119.55 0.95 -121.4 L0.3 -122.65 -4.05 -127.15 Q-0.4 -127.35 3.2 -127.05 6.75 -126.7 9.75 -128.0 14.4 -130.1 19.1 -132.65" fill="#ffff00" fill-opacity="0.5019608" fill-rule="evenodd" stroke="none"/>
  </g>
</svg>
