<?xml version="1.0" encoding="UTF-8" standalone="no"?>
<svg xmlns:ffdec="https://www.free-decompiler.com/flash" xmlns:xlink="http://www.w3.org/1999/xlink" ffdec:objectType="shape" height="123.75px" width="62.5px" xmlns="http://www.w3.org/2000/svg">
  <g transform="matrix(1.0, 0.0, 0.0, 1.0, 32.4, 119.3)">
    <path d="M0.95 -101.95 Q-0.4 -104.45 -0.4 -107.5 -0.4 -112.4 3.05 -115.85 6.5 -119.3 11.4 -119.3 16.3 -119.3 19.75 -115.85 23.2 -112.4 23.2 -107.5 23.2 -102.6 19.75 -99.15 16.85 -96.25 12.9 -95.75 10.05 -97.0 6.9 -97.2 11.75 -88.6 17.4 -80.7 L22.8 -93.9 23.55 -95.95 Q22.15 -98.2 23.75 -100.2 24.55 -101.25 25.75 -101.25 30.95 -101.3 29.95 -96.1 29.5 -94.0 28.7 -92.0 26.15 -85.9 23.25 -79.9 22.4 -75.15 18.45 -72.85 L16.4 -72.7 Q14.05 -73.6 12.85 -76.0 L12.1 -77.2 Q6.8 -84.65 2.3 -92.6 0.1 -87.7 0.7 -81.8 L0.75 -76.4 Q0.3 -69.6 2.8 -63.5 3.05 -62.8 3.65 -62.25 6.0 -59.7 6.0 -57.05 8.45 -55.9 10.2 -53.35 L13.6 -48.45 20.4 -38.7 Q23.05 -34.8 21.65 -30.05 21.3 -28.85 21.35 -27.6 21.65 -19.8 20.6 -12.35 20.55 -11.7 20.15 -11.15 20.25 -9.2 19.65 -7.3 L18.8 -5.1 Q23.7 -5.45 28.4 -3.55 29.8 -3.0 29.9 -1.55 30.05 1.55 26.9 1.45 L23.7 1.3 14.45 0.55 Q12.4 0.35 12.35 -1.65 12.3 -4.9 13.4 -8.05 15.2 -13.3 15.3 -18.95 L15.35 -35.35 Q15.3 -36.55 14.5 -37.55 10.9 -41.9 7.65 -46.4 L5.6 -48.9 Q3.8 -39.75 3.85 -30.25 3.85 -26.75 3.05 -23.4 2.85 -22.55 2.15 -21.85 L-4.6 -15.55 Q-9.85 -8.3 -16.9 -2.6 L-8.4 -0.5 Q-7.5 -0.3 -7.4 0.65 -7.0 5.2 -12.3 4.3 L-25.5 1.65 -26.2 1.0 Q-27.4 -2.1 -24.45 -4.25 -21.2 -6.65 -18.2 -9.4 -13.05 -14.05 -8.75 -19.55 L-7.4 -21.0 -2.2 -26.05 Q-2.45 -36.45 -0.6 -46.45 L0.8 -54.45 Q0.15 -55.2 -0.25 -56.25 -1.2 -58.9 -2.9 -61.3 -3.55 -62.3 -3.8 -63.45 -5.55 -71.55 -5.05 -80.2 L-4.7 -85.95 -7.8 -82.5 Q-11.6 -78.25 -16.65 -76.3 L-18.55 -76.2 Q-20.75 -76.85 -21.9 -78.9 L-23.35 -80.75 -30.15 -87.05 -30.95 -87.95 Q-33.8 -92.1 -30.95 -95.55 -30.45 -96.2 -29.6 -96.25 -23.95 -96.6 -25.0 -91.35 -25.1 -90.85 -25.35 -90.5 L-20.6 -86.65 -20.45 -86.45 -17.85 -83.95 -17.0 -82.7 Q-14.95 -83.45 -12.95 -85.55 -9.6 -89.0 -6.6 -92.9 -4.75 -95.4 -2.45 -97.1 -1.35 -99.35 0.35 -101.35 L0.95 -101.95" fill="#000000" fill-rule="evenodd" stroke="none"/>
  </g>
</svg>
