<?xml version="1.0" encoding="UTF-8" standalone="no"?>
<svg xmlns:ffdec="https://www.free-decompiler.com/flash" xmlns:xlink="http://www.w3.org/1999/xlink" ffdec:objectType="shape" height="144.7px" width="89.8px" xmlns="http://www.w3.org/2000/svg">
  <g transform="matrix(1.0, 0.0, 0.0, 1.0, 46.1, 127.05)">
    <path d="M15.85 -121.8 L15.9 -121.5 15.95 -120.65 16.2 -120.3 16.3 -120.05 Q16.3 -119.75 16.45 -119.55 L16.7 -118.05 16.9 -117.75 17.1 -117.45 17.05 -116.3 Q16.95 -114.3 18.9 -113.85 L22.45 -113.35 22.45 -112.85 22.45 -112.3 22.65 -112.0 22.85 -111.7 22.85 -111.4 22.85 -111.15 23.4 -110.35 Q24.8 -106.9 26.9 -103.9 L29.2 -102.0 Q30.95 -102.85 32.45 -104.1 35.45 -105.15 38.6 -105.55 L38.6 -102.2 38.6 -95.0 43.7 -90.85 39.0 -85.95 39.0 -85.4 39.0 -84.25 39.35 -83.65 Q40.05 -82.45 40.15 -81.05 L41.2 -79.9 41.3 -79.6 41.4 -79.05 41.7 -78.75 Q42.55 -77.95 42.55 -76.75 L42.85 -76.45 41.1 -76.25 40.35 -76.2 Q34.15 -76.75 28.3 -75.45 L27.85 -75.1 27.85 -74.25 27.95 -71.35 28.2 -71.05 28.6 -70.5 28.75 -69.65 Q29.7 -67.55 29.75 -65.3 L26.7 -65.25 Q21.45 -65.6 17.5 -63.0 L17.5 -62.7 17.5 -61.85 17.75 -61.55 Q20.75 -57.6 23.8 -54.35 L23.5 -54.1 Q22.9 -53.65 22.75 -52.95 L22.35 -52.65 Q20.95 -51.45 20.15 -49.85 20.25 -49.4 20.65 -49.15 25.15 -46.0 30.05 -43.15 L30.0 -42.95 29.75 -42.65 29.6 -42.1 29.3 -40.65 28.9 -40.05 27.25 -36.9 26.3 -36.05 26.3 -35.75 26.2 -35.45 24.4 -33.7 24.4 -33.15 24.4 -32.0 Q25.05 -30.95 26.3 -30.65 30.45 -29.75 33.6 -27.5 L33.65 -26.9 Q33.75 -25.2 32.45 -24.0 L32.45 -23.75 32.45 -23.15 31.9 -22.2 Q30.1 -18.75 27.85 -15.65 L27.85 -15.1 27.95 -13.35 Q31.05 -12.4 34.4 -12.0 37.3 -11.65 39.0 -10.3 L38.65 -9.3 Q36.65 -5.1 32.85 -1.95 L32.85 -1.65 32.85 -0.5 Q35.3 1.35 37.45 3.55 L35.9 4.6 34.65 4.55 Q33.45 4.5 32.6 5.0 29.4 6.95 27.75 10.45 L26.65 10.4 18.8 5.75 18.6 5.55 Q14.4 1.65 12.75 7.3 L12.4 7.9 10.95 10.75 10.95 11.05 10.95 12.2 10.2 13.05 10.2 13.6 10.1 14.4 Q5.85 13.2 2.3 10.55 -0.2 12.15 -1.25 15.05 L-2.0 15.65 -2.1 15.95 -2.1 16.2 Q-3.05 17.0 -4.15 17.65 L-7.1 17.65 Q-8.7 16.5 -10.1 15.05 L-10.15 14.8 Q-10.15 14.3 -10.45 13.9 L-11.85 12.4 Q-12.6 11.2 -13.9 10.85 -17.65 9.85 -21.4 10.05 L-21.85 9.25 Q-22.65 7.9 -22.5 6.35 L-22.65 6.05 -22.85 5.75 -22.95 5.2 -23.25 2.85 Q-23.65 1.85 -24.6 1.35 -28.15 -0.45 -32.2 -0.3 L-31.9 -0.6 Q-28.7 -4.65 -24.6 -7.5 L-24.5 -7.8 -24.4 -8.65 Q-27.65 -10.25 -29.95 -13.0 L-30.15 -13.25 -31.3 -15.55 Q-31.0 -16.25 -30.25 -16.55 -24.9 -18.9 -18.9 -19.3 -18.0 -22.05 -21.25 -22.6 -22.4 -23.9 -23.9 -24.6 L-24.1 -24.9 -24.2 -25.15 Q-26.3 -25.95 -27.3 -27.75 -23.7 -28.95 -19.85 -29.4 L-7.7 -30.95 -7.55 -31.5 Q-7.35 -32.3 -7.8 -32.95 L-10.55 -35.55 -13.35 -39.3 Q-6.75 -42.5 -0.7 -46.5 -0.15 -48.35 -2.0 -49.1 -6.3 -52.05 -11.9 -52.75 L-11.8 -53.3 -11.7 -55.35 -11.4 -55.95 -11.0 -56.75 -17.0 -56.0 Q-17.35 -53.4 -19.6 -52.35 -20.4 -52.45 -20.95 -53.1 L-20.4 -56.6 -20.15 -57.45 Q-16.05 -60.6 -10.3 -59.65 L-10.3 -59.95 -10.25 -60.2 -10.2 -60.5 -9.8 -60.95 -9.8 -61.65 Q-10.05 -61.95 -10.35 -62.05 L-20.15 -64.05 -19.45 -66.85 Q-18.1 -70.7 -17.5 -74.75 -17.7 -75.0 -18.0 -75.05 L-22.05 -74.8 Q-24.5 -74.05 -26.7 -73.75 L-26.9 -74.05 -27.1 -74.35 -27.1 -74.65 -27.1 -75.5 -27.3 -75.8 -27.45 -76.05 -27.45 -76.65 Q-27.2 -78.3 -28.25 -79.55 L-28.25 -80.1 -28.25 -81.25 Q-30.1 -83.0 -31.65 -80.8 -33.05 -78.75 -34.85 -78.45 L-35.05 -79.05 -35.15 -80.5 -35.35 -80.8 -35.9 -81.65 -36.0 -83.35 -36.7 -88.55 -37.25 -89.0 Q-39.25 -89.9 -41.3 -89.5 -41.75 -91.0 -41.75 -92.6 L-41.7 -100.1 -41.9 -100.35 -42.05 -100.65 -42.05 -101.25 -42.05 -102.4 Q-42.3 -102.7 -42.6 -102.7 -45.5 -103.1 -46.1 -103.65 L-45.95 -103.95 -45.8 -104.5 -45.6 -104.75 Q-45.1 -105.25 -45.15 -105.95 L-40.25 -111.15 -40.2 -111.4 -40.15 -112.0 Q-42.0 -113.85 -43.5 -116.05 L-43.65 -116.6 Q-44.35 -118.6 -45.5 -120.65 L-44.2 -120.75 Q-37.95 -118.95 -32.65 -115.5 L-32.0 -115.35 -26.45 -117.45 Q-26.65 -119.4 -27.35 -121.3 -27.65 -122.15 -27.55 -123.05 -28.25 -124.1 -29.55 -124.85 L-29.75 -125.05 -29.85 -125.65 -29.85 -125.9 -29.75 -126.2 Q-29.5 -126.75 -28.9 -126.95 L-28.45 -127.05 Q-24.25 -125.9 -23.9 -121.45 L-23.55 -117.95 Q-23.4 -116.55 -23.55 -115.15 -23.15 -112.25 -23.25 -109.2 L-23.05 -108.9 -22.85 -108.65 -22.85 -108.35 -22.85 -108.05 Q-22.55 -107.55 -22.05 -107.5 L-15.55 -106.9 -15.35 -106.6 -15.2 -106.35 -15.1 -105.45 Q-14.6 -103.7 -14.8 -101.7 L-15.95 -100.55 -15.95 -100.3 -15.85 -99.4 -15.0 -98.95 -14.6 -99.0 -14.4 -98.95 Q-14.25 -98.2 -13.45 -98.15 L-13.1 -98.3 -12.8 -98.45 -12.6 -99.05 -12.5 -100.45 Q-11.1 -101.3 -10.6 -102.85 -9.4 -106.55 -9.4 -110.55 L-9.2 -110.85 -8.75 -111.4 -8.6 -112.0 Q-8.0 -114.15 -6.8 -116.05 L-2.2 -114.2 -2.0 -114.0 0.0 -113.9 Q0.3 -114.75 0.05 -115.6 -0.85 -118.8 -0.75 -122.0 2.9 -121.35 5.8 -118.35 8.45 -115.6 10.65 -117.65 L11.1 -118.05 15.0 -123.15 15.1 -123.15 15.15 -122.95 15.15 -122.65 15.35 -122.35 15.85 -121.8 M24.2 -64.85 Q26.15 -64.5 27.05 -62.6 L27.2 -62.35 27.85 -61.8 28.15 -61.55 Q30.8 -62.5 31.4 -60.15 28.7 -56.85 25.4 -59.65 24.6 -60.35 24.3 -61.3 L23.9 -61.5 Q22.25 -59.15 20.15 -60.8 20.55 -64.0 24.2 -64.8 L24.2 -64.85" fill="#ffff00" fill-opacity="0.5019608" fill-rule="evenodd" stroke="none"/>
  </g>
</svg>
