<?xml version="1.0" encoding="UTF-8" standalone="no"?>
<svg xmlns:ffdec="https://www.free-decompiler.com/flash" xmlns:xlink="http://www.w3.org/1999/xlink" ffdec:objectType="shape" height="137.05px" width="100.85px" xmlns="http://www.w3.org/2000/svg">
  <g transform="matrix(1.0, 0.0, 0.0, 1.0, 59.55, 120.15)">
    <path d="M18.15 -59.35 L16.8 -58.3 Q13.8 -55.75 13.75 -52.15 14.25 -51.75 14.8 -51.8 19.7 -51.85 23.95 -50.95 L23.6 -51.3 23.5 -52.45 23.5 -52.75 23.6 -57.05 24.5 -57.8 24.95 -57.85 25.55 -57.6 Q26.75 -56.5 28.4 -56.95 L29.45 -58.2 29.9 -59.0 Q31.0 -61.05 32.65 -62.7 L32.7 -63.0 32.75 -63.3 32.75 -63.6 32.75 -63.9 32.75 -64.15 32.6 -64.45 32.35 -64.75 Q26.5 -65.2 21.0 -63.9 19.95 -63.65 19.45 -62.75 L18.7 -61.4 19.0 -61.1 19.0 -60.8 18.9 -60.5 18.25 -59.95 18.2 -59.65 18.15 -59.35 M13.35 -113.45 L13.85 -113.8 Q15.6 -115.75 17.85 -117.2 18.4 -117.45 18.3 -116.8 L18.25 -115.65 19.15 -114.2 Q19.5 -113.25 19.4 -112.2 19.95 -111.7 20.0 -111.0 20.05 -110.1 20.35 -109.3 22.15 -107.05 25.05 -106.8 L25.3 -106.5 Q28.35 -105.45 30.65 -103.15 L30.25 -102.55 Q29.6 -101.15 28.25 -100.25 L28.2 -100.0 28.15 -99.7 27.45 -99.1 27.45 -98.85 27.35 -98.55 Q26.8 -98.25 26.45 -97.8 L21.7 -91.65 21.7 -91.05 21.8 -90.2 Q25.45 -87.4 29.3 -84.8 27.9 -83.5 26.15 -82.5 22.6 -80.45 19.8 -77.8 L19.8 -76.95 19.8 -76.05 20.45 -75.3 Q22.15 -72.6 24.4 -70.3 18.4 -69.6 12.85 -67.6 L12.85 -67.05 12.85 -66.2 13.1 -65.95 16.5 -63.35 16.65 -63.85 Q16.9 -64.9 17.85 -65.65 19.8 -67.15 21.9 -67.9 L34.05 -67.2 Q34.4 -67.15 34.6 -66.8 37.1 -63.05 34.05 -59.5 L31.35 -55.65 Q29.65 -52.75 26.4 -53.9 L26.4 -53.6 26.4 -53.3 26.4 -53.0 Q26.65 -52.4 27.3 -51.95 L29.3 -50.6 32.25 -48.15 33.2 -48.95 Q35.4 -51.05 37.8 -49.85 38.65 -49.4 38.95 -48.4 L39.1 -47.85 38.75 -47.3 38.3 -46.8 38.1 -46.7 Q37.0 -46.45 36.2 -47.35 L35.65 -47.15 35.25 -46.9 Q34.75 -43.9 31.3 -45.45 L29.85 -46.25 Q26.95 -48.3 24.35 -50.6 24.65 -48.55 24.15 -46.55 23.1 -42.25 24.1 -37.95 24.55 -37.7 25.0 -37.7 L36.5 -37.2 34.9 -34.05 Q33.25 -30.3 32.85 -26.25 36.15 -23.95 39.65 -22.0 39.75 -21.7 39.95 -21.55 L41.3 -20.65 41.3 -20.1 41.2 -19.5 Q35.2 -16.2 30.15 -11.75 L30.15 -11.15 30.25 -10.3 Q36.55 -8.4 39.95 -3.3 L39.0 -2.6 Q36.2 -1.2 34.0 0.95 L34.0 1.8 34.0 2.95 34.2 3.25 34.4 3.55 34.0 5.55 Q33.6 7.65 32.85 9.6 L28.1 9.1 Q25.75 8.65 25.05 10.45 L24.4 10.95 18.25 16.9 Q12.85 14.4 8.1 10.6 6.4 9.25 4.5 8.55 3.25 8.1 2.3 9.05 L-3.8 14.7 Q-5.5 16.15 -7.85 15.05 -12.25 12.95 -16.5 10.45 -16.8 9.65 -17.65 9.7 L-27.1 10.75 Q-28.05 9.7 -28.0 8.25 L-27.85 3.65 Q-31.65 0.4 -36.3 -1.55 L-35.75 -2.2 Q-35.15 -3.15 -34.2 -3.65 L-33.9 -4.5 -33.35 -5.7 -32.85 -6.0 -30.15 -8.25 -30.15 -8.85 -30.15 -9.4 -30.4 -9.7 Q-31.1 -10.35 -32.1 -10.4 L-32.6 -10.8 Q-34.5 -12.0 -35.4 -13.7 -35.5 -13.2 -36.0 -13.0 -38.5 -11.85 -41.45 -11.65 -44.95 -11.45 -48.4 -11.55 -49.6 -11.55 -50.4 -12.5 L-51.65 -14.05 -51.75 -14.35 -51.75 -14.6 -51.65 -15.2 Q-50.2 -16.9 -48.65 -15.0 L-48.1 -14.4 -38.25 -15.45 Q-40.35 -18.3 -43.35 -20.25 -43.75 -20.55 -43.7 -21.15 L-43.6 -21.7 Q-41.6 -24.5 -38.0 -23.25 L-34.5 -22.75 Q-34.65 -24.75 -32.65 -25.1 L-27.8 -25.95 Q-27.0 -26.1 -26.4 -26.6 L-26.2 -26.7 -25.75 -26.75 -25.75 -26.8 -24.95 -26.65 -24.8 -27.3 -11.55 -26.95 -9.65 -26.6 Q-7.45 -25.95 -6.35 -27.5 L-6.4 -28.05 -6.55 -28.65 -6.9 -28.95 Q-8.25 -30.6 -10.0 -31.8 L-10.6 -32.6 Q-11.9 -33.6 -12.5 -34.95 L-12.3 -35.55 -12.0 -36.1 -11.15 -36.4 Q-10.55 -37.05 -9.8 -37.4 -7.45 -38.45 -5.9 -40.4 -4.3 -42.4 -6.6 -43.5 -10.2 -45.15 -13.25 -47.05 L-13.25 -47.35 -13.25 -47.65 -13.05 -47.95 -12.85 -48.2 -12.85 -48.8 -12.85 -49.4 -12.2 -49.95 Q-12.05 -50.8 -12.05 -51.7 L-12.1 -54.0 -12.6 -54.3 -15.35 -54.3 -15.85 -53.5 -15.9 -52.95 Q-15.95 -52.15 -16.6 -51.8 -18.65 -47.9 -22.95 -50.3 L-25.35 -51.8 Q-24.9 -48.4 -25.85 -45.3 -26.0 -44.9 -26.5 -44.95 -28.3 -45.0 -29.6 -46.4 L-32.1 -48.7 Q-34.6 -50.85 -37.5 -52.45 L-39.0 -53.65 Q-43.35 -58.15 -46.0 -63.4 L-48.35 -64.9 -48.6 -65.15 -48.65 -65.4 -48.7 -65.7 -48.6 -66.3 -48.05 -66.75 -47.25 -67.15 Q-44.15 -66.75 -42.1 -64.95 L-41.95 -64.75 -42.1 -64.15 Q-42.2 -63.6 -42.75 -63.3 -40.35 -59.5 -37.2 -56.1 -34.85 -53.6 -31.85 -51.9 L-30.2 -50.75 -28.55 -49.65 Q-28.2 -50.15 -28.25 -50.9 L-28.35 -52.65 Q-25.9 -56.55 -21.85 -53.25 L-21.15 -52.75 -19.5 -52.9 -19.5 -53.0 -18.55 -54.3 -22.3 -54.25 -23.25 -56.5 Q-24.05 -59.15 -23.65 -62.05 L-23.8 -62.35 -24.4 -63.2 -24.4 -63.8 -24.4 -64.35 -24.9 -64.65 Q-28.6 -64.75 -32.1 -63.0 L-32.35 -63.85 Q-32.75 -64.65 -33.5 -65.2 L-33.6 -65.5 -33.7 -66.1 -37.65 -73.1 Q-38.0 -73.8 -38.75 -73.85 -42.0 -74.2 -45.15 -73.1 -44.9 -76.4 -45.7 -79.45 -47.0 -84.6 -46.7 -90.1 -50.8 -91.6 -54.85 -94.05 L-54.55 -94.35 -54.35 -94.6 Q-49.65 -96.1 -44.65 -96.55 -44.15 -98.45 -44.3 -100.55 -44.55 -104.4 -43.9 -108.05 L-43.3 -108.05 Q-38.85 -105.65 -34.95 -102.4 -32.95 -104.75 -30.4 -106.0 L-32.85 -108.9 Q-34.1 -107.6 -36.5 -108.4 -39.25 -109.35 -41.1 -111.5 L-41.8 -111.8 Q-46.4 -108.8 -50.75 -113.25 L-52.4 -114.65 Q-54.35 -116.0 -56.55 -116.8 L-56.55 -115.95 -56.55 -115.05 -56.55 -114.2 -55.95 -113.6 -55.55 -113.05 -55.4 -112.75 Q-55.75 -110.65 -57.8 -111.55 -58.75 -111.95 -59.35 -112.75 L-59.55 -115.65 Q-59.6 -117.6 -58.95 -119.4 L-58.25 -119.9 -57.65 -120.15 Q-51.2 -118.05 -45.8 -113.75 L-45.25 -113.55 Q-42.8 -116.45 -39.25 -113.85 -38.8 -113.5 -38.5 -112.95 -37.6 -112.8 -37.15 -112.1 L-37.0 -111.8 -34.6 -111.6 -34.9 -113.45 -34.75 -114.3 Q-33.55 -115.6 -31.9 -115.95 -30.65 -115.75 -30.45 -114.6 L-30.45 -114.3 Q-30.65 -113.6 -31.2 -113.15 L-31.6 -112.85 -31.35 -112.25 -31.2 -111.7 Q-29.25 -109.5 -27.8 -107.0 L-27.45 -107.1 -27.25 -106.0 -26.9 -105.25 Q-26.6 -104.65 -26.75 -103.95 L-26.95 -103.35 -25.95 -100.2 -25.85 -98.7 -25.45 -96.7 -25.15 -96.5 Q-23.95 -95.85 -23.25 -97.0 L-23.25 -97.6 -23.15 -98.45 -22.15 -99.55 -19.7 -103.05 -19.25 -103.3 -15.55 -106.4 Q-13.0 -105.75 -10.9 -103.95 L-10.05 -103.05 Q-7.8 -100.35 -5.0 -100.85 -4.7 -102.1 -4.55 -103.4 L-4.05 -108.35 3.85 -107.75 4.0 -108.35 4.05 -108.9 3.85 -109.2 3.65 -109.5 3.15 -111.5 1.75 -116.1 7.75 -113.25 8.35 -112.8 Q11.45 -110.15 13.35 -113.45 M-25.25 -23.45 Q-28.2 -21.85 -31.6 -22.2 -31.45 -20.7 -32.85 -20.15 L-37.65 -20.0 -38.9 -20.3 Q-34.9 -18.05 -35.3 -14.3 -34.3 -15.25 -32.95 -15.8 -27.75 -18.0 -22.0 -17.8 -21.6 -18.3 -21.8 -18.9 L-22.2 -20.35 -23.05 -21.45 -23.35 -21.85 -24.1 -22.8 Q-24.55 -23.35 -25.25 -23.45" fill="#ffff00" fill-opacity="0.5019608" fill-rule="evenodd" stroke="none"/>
  </g>
</svg>
