<?xml version="1.0" encoding="UTF-8" standalone="no"?>
<svg xmlns:ffdec="https://www.free-decompiler.com/flash" xmlns:xlink="http://www.w3.org/1999/xlink" ffdec:objectType="shape" height="110.75px" width="68.65px" xmlns="http://www.w3.org/2000/svg">
  <g transform="matrix(1.0, 0.0, 0.0, 1.0, 41.55, 105.45)">
    <path d="M16.7 -99.95 Q17.75 -94.35 16.0 -89.0 14.15 -83.2 12.6 -77.25 11.15 -71.6 5.4 -68.95 L-4.4 -64.45 Q1.05 -55.35 7.35 -46.85 13.85 -38.15 21.75 -30.3 25.4 -26.65 26.95 -21.85 27.35 -20.55 26.55 -19.55 24.7 -17.15 22.2 -15.3 L19.55 -13.25 17.5 -11.8 Q14.6 -7.75 11.15 -4.05 17.3 -2.0 23.55 -0.5 24.5 -0.3 24.7 0.65 25.3 3.8 22.0 4.1 18.35 4.45 14.8 3.45 L10.95 2.4 Q7.3 1.45 4.7 -1.0 3.35 -2.3 4.1 -4.15 5.45 -7.55 8.3 -9.9 L8.9 -10.6 Q13.7 -17.15 20.45 -21.8 17.8 -27.1 13.25 -31.25 11.4 -32.9 9.7 -34.7 L9.85 -32.95 9.9 -31.5 Q12.1 -25.8 10.05 -20.1 9.85 -19.55 9.2 -19.4 L3.85 -18.45 Q-6.75 -14.25 -17.1 -9.4 -17.95 -9.0 -17.75 -8.0 -16.85 -1.9 -17.25 4.1 -17.3 4.65 -17.9 4.9 -21.6 6.4 -22.45 2.35 L-23.0 -0.45 Q-23.6 -3.85 -23.75 -7.4 -24.15 -14.9 -16.4 -17.15 -10.7 -18.8 -5.2 -21.2 -0.1 -23.4 5.3 -24.8 4.85 -25.75 4.9 -26.8 L4.9 -28.25 Q3.85 -32.4 3.05 -36.85 2.9 -37.7 3.0 -38.6 1.2 -41.45 1.8 -44.2 L0.0 -46.9 Q-5.45 -54.3 -10.35 -62.15 L-12.2 -62.55 Q-14.65 -63.85 -16.85 -65.6 -21.35 -69.35 -26.85 -71.8 -32.25 -74.25 -35.3 -79.5 L-37.15 -82.55 Q-40.3 -87.55 -41.4 -93.2 -42.25 -97.75 -37.9 -98.55 -32.75 -98.4 -34.0 -93.7 -34.15 -92.95 -34.85 -92.5 -34.65 -90.15 -33.4 -87.75 -30.4 -81.75 -25.05 -77.6 -24.25 -77.0 -23.35 -76.5 -20.2 -74.9 -17.15 -73.1 -18.6 -76.25 -18.95 -79.75 L-18.8 -80.8 Q-19.7 -82.9 -19.7 -85.35 -19.7 -90.25 -16.25 -93.7 -12.8 -97.15 -7.9 -97.15 -3.0 -97.15 0.45 -93.7 3.9 -90.25 3.9 -85.35 3.9 -80.45 0.45 -77.0 -2.45 -74.1 -6.4 -73.6 -8.7 -74.6 -11.2 -74.9 L-10.65 -73.9 -7.35 -69.1 Q-4.1 -71.0 -0.65 -72.45 3.75 -74.35 6.45 -78.1 L7.1 -79.35 Q9.75 -88.3 11.45 -97.5 6.45 -100.55 9.75 -104.85 10.1 -105.3 10.65 -105.35 L11.25 -105.45 Q15.8 -104.85 16.7 -99.95" fill="#000000" fill-rule="evenodd" stroke="none"/>
  </g>
</svg>
