<?xml version="1.0" encoding="UTF-8" standalone="no"?>
<svg xmlns:ffdec="https://www.free-decompiler.com/flash" xmlns:xlink="http://www.w3.org/1999/xlink" ffdec:objectType="shape" height="119.0px" width="102.45px" xmlns="http://www.w3.org/2000/svg">
  <g transform="matrix(1.0, 0.0, 0.0, 1.0, 50.9, 107.5)">
    <path d="M6.45 -100.5 Q7.4 -100.0 8.45 -100.05 L15.55 -100.35 15.95 -99.8 15.95 -99.5 15.95 -96.9 Q17.0 -94.85 18.8 -93.55 20.1 -92.65 21.6 -92.35 24.5 -91.7 26.5 -90.5 26.2 -90.1 26.3 -89.6 L22.0 -83.3 Q21.15 -83.15 20.95 -82.4 20.85 -81.65 21.05 -80.95 L29.4 -74.65 Q29.1 -74.1 28.55 -73.9 23.45 -71.9 19.4 -68.6 L19.5 -67.15 Q22.65 -64.45 24.95 -61.65 L24.7 -61.1 Q17.95 -59.45 12.85 -55.15 L12.95 -53.7 Q14.5 -52.7 16.4 -52.95 17.8 -52.05 19.6 -52.15 L19.6 -51.9 Q19.2 -49.75 19.4 -47.5 L19.4 -47.55 19.8 -48.6 Q20.4 -49.45 21.3 -49.6 L28.5 -50.45 Q30.8 -53.75 31.65 -57.6 31.9 -58.95 33.2 -59.55 35.25 -60.55 37.25 -61.0 39.05 -61.25 39.45 -59.65 L39.45 -59.35 Q37.25 -57.45 34.25 -56.2 L33.7 -55.8 Q33.55 -50.7 29.1 -48.65 26.1 -47.3 22.55 -47.15 L21.85 -45.55 22.35 -45.45 Q25.15 -44.3 27.95 -43.4 L27.9 -42.95 27.85 -36.9 Q29.65 -34.75 32.4 -33.65 L33.95 -32.95 34.25 -33.5 35.05 -34.3 35.25 -34.35 35.7 -34.45 35.7 -34.5 Q39.35 -33.95 39.7 -29.7 39.8 -28.6 40.45 -27.65 46.05 -27.7 49.25 -23.1 L49.45 -22.4 49.45 -18.35 49.6 -18.1 49.95 -17.8 50.05 -17.5 50.15 -17.2 50.2 -16.9 50.15 -16.65 50.05 -16.35 49.95 -16.05 49.85 -16.0 50.3 -15.55 50.6 -14.8 Q49.45 -12.55 46.45 -13.55 L44.65 -14.15 44.45 -14.05 Q45.25 -10.05 49.25 -7.7 48.0 -5.6 48.2 -3.1 L51.55 0.55 Q48.35 2.25 46.55 5.35 L45.35 5.45 40.4 2.9 38.55 2.2 36.1 2.4 Q32.7 4.2 31.0 7.65 30.2 6.8 29.1 6.6 26.2 3.3 22.1 3.85 L21.05 4.9 Q20.85 6.0 20.15 6.9 20.0 9.2 18.8 11.2 L18.25 11.5 Q13.05 9.5 8.35 6.6 6.7 4.95 4.4 5.75 L1.55 9.6 1.15 9.5 Q-0.3 7.35 -1.9 5.45 L-2.4 4.55 Q-4.75 0.5 -7.8 3.75 L-7.95 4.6 Q-9.5 7.85 -12.1 10.35 L-13.05 10.05 Q-13.65 7.1 -16.85 8.1 -19.7 8.95 -21.3 7.1 L-21.3 6.8 -21.3 4.8 -22.3 3.55 -26.2 -0.1 Q-21.25 -3.15 -16.7 -6.75 -16.85 -7.9 -17.3 -9.05 L-19.3 -11.9 -15.2 -13.1 Q-14.25 -13.25 -13.7 -13.8 L-13.6 -13.9 Q-15.0 -14.2 -16.0 -15.45 L-16.5 -16.05 -19.6 -16.3 Q-20.55 -16.4 -21.15 -17.2 L-21.2 -17.25 Q-23.8 -16.6 -25.55 -18.15 L-25.6 -18.45 Q-25.75 -19.3 -25.15 -19.85 L-24.9 -20.1 -24.7 -20.15 -24.2 -20.25 -24.2 -20.3 -19.35 -19.9 Q-18.85 -19.8 -18.65 -19.3 -16.05 -19.45 -13.9 -17.8 L-13.15 -17.2 -14.0 -18.35 -14.0 -18.65 -14.0 -19.8 Q-12.25 -19.7 -10.75 -18.75 -7.35 -16.5 -3.95 -17.8 L-2.5 -20.35 -0.85 -20.3 Q-0.35 -19.75 0.35 -19.55 L1.8 -18.65 Q3.95 -16.1 6.8 -16.65 7.45 -19.7 6.35 -22.7 9.8 -23.05 10.55 -25.95 6.7 -28.85 2.9 -31.9 3.4 -33.85 3.25 -35.95 L2.7 -36.3 -1.45 -37.5 Q-3.75 -36.6 -6.7 -37.75 L-9.2 -39.1 Q-12.9 -41.65 -17.05 -43.4 L-18.55 -43.7 -18.65 -43.4 -18.85 -42.55 Q-18.9 -42.1 -19.1 -41.7 L-19.2 -41.4 Q-19.55 -41.15 -19.9 -41.05 -22.45 -40.3 -24.8 -41.15 L-25.55 -41.6 Q-25.8 -42.35 -25.3 -42.9 -23.9 -44.4 -21.6 -43.9 -21.3 -44.25 -21.25 -44.75 -21.0 -45.8 -20.05 -46.4 L-19.2 -46.8 Q-14.95 -46.15 -11.2 -44.05 L-11.0 -45.85 Q-10.95 -46.25 -11.25 -46.45 -14.35 -47.9 -17.95 -48.15 L-18.65 -49.55 -18.6 -51.6 Q-18.6 -52.3 -19.2 -52.45 -23.75 -53.5 -28.7 -52.65 L-30.15 -57.5 Q-30.55 -58.85 -31.95 -59.05 L-40.05 -59.85 -40.2 -60.7 Q-40.35 -66.2 -45.15 -67.7 -44.05 -69.95 -42.45 -72.05 L-42.45 -72.35 -42.45 -73.2 -45.5 -76.4 -46.1 -76.15 -46.75 -76.45 -47.45 -76.95 -47.5 -77.25 -47.55 -77.8 -47.55 -78.0 -48.1 -78.4 -47.55 -78.35 -47.55 -78.4 -44.9 -81.5 Q-43.95 -82.65 -42.65 -82.9 L-40.2 -82.65 -39.65 -85.0 -39.4 -85.3 -38.6 -85.3 -38.6 -85.1 -38.5 -84.8 -37.65 -83.95 -33.8 -79.8 -32.95 -78.4 Q-31.7 -75.15 -28.9 -75.4 L-27.1 -79.7 Q-26.5 -80.35 -25.95 -79.9 -23.6 -77.45 -20.75 -75.9 L-20.05 -76.15 -17.85 -78.55 -17.9 -79.45 Q-18.1 -83.4 -17.5 -87.2 L-16.7 -88.0 -15.55 -87.15 Q-19.95 -94.95 -28.85 -98.15 L-29.4 -98.55 Q-29.85 -101.5 -27.8 -103.75 L-27.55 -104.0 Q-27.8 -106.15 -26.15 -107.3 L-25.75 -107.5 Q-23.6 -106.45 -24.5 -103.75 -25.15 -101.75 -26.4 -99.9 -16.0 -96.15 -12.3 -86.25 -12.0 -85.5 -12.25 -84.8 L-9.55 -82.55 Q-7.0 -80.25 -4.8 -81.65 L-4.8 -81.95 -4.8 -83.35 1.9 -83.65 Q4.35 -83.75 5.85 -85.3 6.1 -85.85 5.85 -86.45 3.8 -89.15 1.15 -91.35 0.4 -93.1 -0.95 -94.5 L3.05 -95.0 Q3.6 -95.1 3.95 -95.65 L4.05 -97.4 3.65 -97.95 3.6 -98.25 3.25 -102.0 6.45 -100.5 M37.5 -26.8 Q37.25 -24.35 37.55 -21.8 39.8 -20.5 42.35 -19.7 43.35 -18.55 43.85 -17.1 L44.15 -17.2 46.0 -16.9 46.4 -16.7 46.9 -16.75 46.7 -18.0 46.55 -22.3 Q43.7 -25.3 39.15 -24.55 38.35 -24.4 37.85 -25.1 L37.5 -26.8 M-41.6 -97.6 L-41.7 -97.3 -41.8 -97.0 -41.9 -96.7 -44.3 -96.6 -45.6 -97.5 -47.25 -97.5 -47.55 -97.2 -47.75 -96.9 -47.8 -95.75 Q-47.95 -94.2 -49.55 -93.85 L-50.2 -94.1 -50.9 -94.6 Q-51.0 -96.5 -50.25 -98.3 -49.45 -100.15 -47.65 -100.55 -43.65 -101.0 -41.7 -97.85 L-41.6 -97.6 M-41.1 -79.8 L-42.65 -79.8 -42.75 -79.55 -42.95 -78.95 -43.05 -78.65 -44.2 -77.55 -44.2 -77.5 -40.7 -77.8 -40.65 -78.1 -40.6 -79.3 -41.1 -79.8" fill="#ffff00" fill-opacity="0.5019608" fill-rule="evenodd" stroke="none"/>
  </g>
</svg>
