<?xml version="1.0" encoding="UTF-8" standalone="no"?>
<svg xmlns:ffdec="https://www.free-decompiler.com/flash" xmlns:xlink="http://www.w3.org/1999/xlink" ffdec:objectType="shape" height="97.1px" width="80.05px" xmlns="http://www.w3.org/2000/svg">
  <g transform="matrix(1.0, 0.0, 0.0, 1.0, 38.95, 92.8)">
    <path d="M15.1 -83.0 Q16.2 -75.0 14.5 -67.2 L13.8 -65.3 Q11.6 -61.35 8.55 -57.9 7.5 -53.85 5.15 -50.65 L6.15 -49.3 Q12.45 -42.05 19.9 -35.75 25.65 -30.9 29.6 -24.65 L40.6 -7.35 Q41.75 -5.5 40.25 -3.8 39.45 -2.95 38.3 -3.0 L16.95 -4.7 Q14.2 -4.1 11.55 -5.15 L11.45 -5.2 Q10.6 -2.15 10.25 1.1 10.15 2.1 9.15 2.4 5.35 3.65 5.0 -0.05 4.85 -1.75 4.95 -3.5 L5.35 -6.5 -5.0 -6.95 Q-7.9 -1.0 -12.0 3.9 -12.45 4.4 -13.15 4.25 -17.15 3.45 -15.5 -0.15 -13.45 -4.75 -11.0 -9.0 L-10.6 -10.0 Q-9.95 -12.5 -7.4 -12.65 L9.6 -11.95 13.5 -11.55 Q12.85 -22.1 15.15 -32.0 L15.3 -32.5 9.55 -37.4 Q7.05 -39.3 5.1 -41.75 L0.6 -46.6 -0.5 -46.9 Q-5.35 -48.6 -9.7 -51.3 -20.65 -56.8 -31.1 -63.65 -33.5 -65.25 -35.75 -66.95 -39.45 -67.3 -38.85 -70.75 L-38.35 -71.95 Q-38.5 -73.3 -37.45 -74.25 -36.55 -75.1 -35.45 -75.1 -30.75 -75.25 -30.65 -71.0 L-30.65 -70.7 Q-25.5 -67.1 -20.15 -63.85 -20.55 -65.3 -20.55 -66.95 -20.55 -71.85 -17.1 -75.3 -13.65 -78.75 -8.75 -78.75 -3.85 -78.75 -0.4 -75.3 3.05 -71.85 3.05 -66.95 L2.8 -64.3 2.15 -62.35 Q1.3 -60.3 -0.4 -58.6 L-2.8 -56.7 0.65 -54.35 0.85 -54.65 Q0.85 -55.45 1.35 -56.0 L2.0 -56.95 Q3.75 -62.25 7.4 -66.7 8.15 -67.6 8.6 -68.85 10.25 -73.6 9.6 -78.85 L8.9 -84.9 Q4.1 -88.45 8.25 -92.2 8.85 -92.75 9.5 -92.8 14.9 -90.5 14.95 -84.45 L15.1 -83.0 M19.5 -26.05 L18.9 -10.45 19.65 -10.35 32.65 -8.85 23.95 -21.95 19.8 -27.6 19.5 -26.05" fill="#000000" fill-rule="evenodd" stroke="none"/>
  </g>
</svg>
