<?xml version="1.0" encoding="UTF-8" standalone="no"?>
<svg xmlns:ffdec="https://www.free-decompiler.com/flash" xmlns:xlink="http://www.w3.org/1999/xlink" ffdec:objectType="shape" height="113.15px" width="108.7px" xmlns="http://www.w3.org/2000/svg">
  <g transform="matrix(1.0, 0.0, 0.0, 1.0, 52.55, 102.5)">
    <path d="M33.9 -52.05 L33.8 -51.8 Q32.0 -49.95 29.5 -49.85 30.05 -46.95 28.25 -45.15 27.7 -44.55 26.8 -44.5 25.55 -42.75 24.0 -44.3 23.85 -44.85 23.85 -45.45 L24.0 -46.3 Q24.95 -47.35 26.5 -47.65 L26.55 -50.8 Q26.55 -51.25 26.7 -51.7 27.95 -53.5 30.35 -53.1 31.35 -54.4 32.65 -54.85 34.7 -54.15 33.9 -52.05 M2.1 -71.65 Q1.75 -70.7 1.75 -69.65 0.35 -68.55 -0.6 -67.05 L-0.6 -66.75 -0.6 -65.05 Q1.7 -63.15 4.5 -62.15 4.75 -61.65 4.3 -61.0 1.2 -59.7 -1.35 -57.65 L-1.35 -57.35 -1.35 -56.5 Q2.5 -53.65 6.8 -51.4 3.6 -49.5 0.95 -47.05 L0.95 -46.8 0.95 -45.05 Q3.0 -43.4 4.8 -42.65 L3.65 -41.5 3.55 -40.65 3.25 -40.35 3.25 -40.05 3.25 -38.9 Q3.7 -38.1 4.6 -37.75 L5.5 -37.45 5.9 -37.65 7.7 -38.15 8.0 -38.4 8.45 -38.7 Q7.4 -41.65 7.85 -44.7 8.05 -46.15 9.35 -46.85 L11.15 -47.55 Q15.75 -47.3 18.65 -44.2 L18.7 -44.0 Q16.5 -41.45 13.05 -44.0 12.4 -44.5 11.5 -44.5 L11.15 -44.2 10.65 -43.9 10.5 -43.6 10.35 -43.3 10.25 -43.05 Q11.8 -40.15 11.0 -37.05 L10.9 -36.65 13.65 -36.8 Q15.1 -36.95 15.15 -35.95 L14.8 -35.35 14.8 -35.05 14.8 -32.75 15.35 -32.35 Q19.5 -30.35 24.0 -30.65 L24.0 -30.35 Q23.95 -27.85 24.4 -25.45 24.65 -25.15 24.9 -25.1 28.95 -24.2 32.85 -24.5 L33.25 -23.65 33.25 -23.05 Q33.25 -20.3 33.7 -17.6 34.15 -17.35 34.5 -17.4 L39.75 -17.8 Q40.3 -16.4 40.25 -14.9 L40.9 -14.3 41.0 -13.75 Q41.15 -13.6 41.3 -13.6 L42.95 -13.5 43.75 -16.25 Q44.35 -18.1 46.6 -17.9 L47.25 -17.95 Q49.55 -17.75 51.1 -16.05 L51.4 -15.85 Q55.9 -17.85 56.15 -13.65 56.3 -10.2 53.2 -8.2 51.75 -7.25 50.5 -8.55 50.65 -11.0 53.15 -12.55 53.55 -12.8 53.5 -13.35 51.75 -12.15 50.4 -12.6 L49.5 -11.6 Q46.9 -9.1 47.55 -5.7 L50.15 -3.1 45.7 0.9 44.8 1.2 Q42.3 0.8 40.15 -0.65 39.35 -1.2 38.6 -0.65 L34.2 2.75 31.1 0.85 Q27.05 -2.85 23.25 1.5 L22.3 1.45 Q21.0 0.95 20.15 0.0 17.05 -3.15 14.4 -0.3 L14.4 0.0 14.4 0.3 14.0 0.85 Q14.15 2.2 13.85 3.45 L12.0 3.35 Q11.8 3.2 11.6 3.2 L7.3 3.1 Q5.85 3.2 5.2 4.4 L5.1 5.85 4.8 6.15 Q4.85 7.8 4.3 9.3 L3.85 9.4 Q2.1 8.65 0.45 7.7 -0.15 7.4 -0.75 7.4 -4.05 7.4 -5.85 10.65 L-6.35 10.55 Q-6.3 9.95 -6.55 9.4 L-8.25 6.5 -8.25 6.25 -8.25 5.95 Q-9.95 4.55 -12.5 5.35 L-12.45 5.2 Q-12.0 2.95 -12.1 0.55 L-14.2 -1.75 -13.6 -2.1 Q-10.2 -2.7 -9.4 -5.6 L-9.8 -6.15 -9.8 -6.45 -9.8 -9.2 Q-12.3 -6.95 -15.55 -8.95 -15.75 -11.6 -12.6 -11.5 -11.45 -11.5 -10.7 -12.35 -10.2 -12.95 -9.6 -13.0 L-4.25 -10.5 Q-3.85 -11.15 -4.15 -11.9 L-5.1 -13.35 -5.75 -13.95 -1.95 -14.5 Q-1.1 -14.65 -0.85 -15.45 0.2 -14.9 1.35 -14.7 3.0 -13.05 5.0 -14.05 L5.2 -14.9 5.85 -15.75 Q6.1 -16.9 5.85 -18.05 1.9 -20.55 -2.4 -22.6 L-2.45 -22.75 -2.5 -25.95 -2.85 -26.55 -3.2 -26.95 Q-5.9 -28.95 -9.4 -28.55 L-9.6 -29.2 -11.15 -29.1 Q-11.75 -28.55 -12.6 -28.45 -13.85 -27.1 -15.2 -28.55 L-15.25 -29.1 -15.25 -30.0 Q-13.0 -32.0 -9.95 -32.65 -9.95 -33.35 -10.55 -33.75 -13.3 -35.3 -16.7 -34.2 L-17.85 -35.35 Q-17.8 -37.1 -18.95 -38.45 -19.2 -38.75 -19.55 -38.7 L-26.7 -36.9 -27.45 -38.8 -27.65 -43.1 Q-27.75 -43.95 -28.45 -44.3 -31.05 -45.5 -34.0 -44.95 L-34.55 -46.45 -35.7 -46.45 Q-37.2 -46.8 -38.1 -48.2 -38.65 -49.15 -39.55 -49.85 L-41.9 -49.45 -42.0 -49.2 -42.4 -48.6 -42.65 -48.3 Q-43.0 -45.95 -44.45 -44.2 -44.6 -44.0 -44.95 -43.95 L-47.25 -43.7 Q-46.55 -41.35 -47.9 -39.6 -48.05 -39.4 -48.35 -39.5 -50.85 -40.5 -50.35 -43.55 -49.75 -46.9 -46.2 -46.95 -45.35 -49.75 -43.35 -51.9 -42.45 -52.85 -41.0 -52.85 L-40.5 -52.9 Q-39.9 -55.15 -39.75 -57.45 -42.45 -58.75 -45.5 -58.0 L-44.7 -59.7 Q-42.95 -62.35 -43.2 -65.5 L-46.4 -67.6 -46.3 -68.75 Q-45.55 -69.75 -45.15 -70.8 -43.65 -71.6 -42.45 -72.8 L-42.45 -73.65 Q-42.45 -76.45 -43.05 -79.05 L-41.15 -78.15 Q-38.4 -76.35 -35.1 -77.8 -34.1 -78.25 -33.35 -79.05 -33.15 -78.35 -33.25 -77.6 -32.4 -76.4 -31.0 -76.15 -29.85 -75.5 -29.0 -74.45 -28.9 -73.4 -29.7 -72.7 -29.75 -72.25 -29.95 -71.85 -31.4 -69.35 -30.85 -66.35 -29.15 -65.25 -28.0 -67.15 L-27.05 -68.35 Q-26.9 -72.85 -27.75 -77.05 -28.1 -78.75 -27.85 -80.5 L-26.85 -81.7 -25.75 -82.5 Q-26.8 -84.95 -28.9 -87.05 L-29.95 -88.55 Q-33.15 -90.45 -33.0 -94.05 L-32.95 -96.05 -31.95 -97.5 -31.2 -98.65 -33.7 -100.15 -34.0 -100.35 -34.1 -101.25 -33.6 -102.1 -33.35 -102.3 -33.15 -102.35 -32.65 -102.45 -32.65 -102.5 Q-28.95 -102.0 -28.1 -99.05 -27.75 -97.95 -28.55 -96.95 L-30.05 -95.1 -30.05 -93.95 -30.05 -93.05 -30.05 -92.8 Q-27.7 -90.55 -25.8 -88.0 L-22.65 -88.1 -21.55 -90.9 -21.15 -91.55 Q-22.4 -95.85 -24.2 -100.0 -24.65 -101.0 -23.7 -101.5 L-23.55 -101.6 -23.05 -101.65 -23.05 -101.7 Q-21.05 -100.1 -19.75 -97.35 -18.8 -95.2 -18.3 -92.85 -17.85 -90.6 -19.3 -88.85 -19.55 -84.4 -23.8 -84.95 L-22.65 -82.85 Q-22.3 -82.15 -22.75 -81.5 -23.65 -80.2 -25.05 -79.25 -23.95 -74.1 -24.65 -68.6 L-24.8 -67.95 Q-22.75 -64.85 -20.25 -66.85 -20.05 -69.05 -19.3 -71.2 -17.65 -70.85 -16.15 -69.65 -15.35 -67.95 -13.85 -68.95 -13.55 -69.8 -13.8 -70.65 L-15.95 -77.3 -15.65 -77.6 Q-14.05 -77.35 -12.8 -78.1 L-12.65 -78.4 Q-12.4 -80.65 -12.5 -83.0 -12.3 -83.3 -11.95 -83.0 -10.4 -81.7 -8.7 -80.75 -5.4 -78.9 -2.5 -81.15 L-2.5 -80.9 -2.5 -75.4 -1.7 -74.45 2.1 -71.65 M46.1 -14.5 L45.85 -13.3 49.45 -13.1 48.5 -14.1 47.75 -14.9 46.1 -14.5 M-35.9 -50.15 L-35.75 -49.85 -35.25 -49.65 -35.15 -49.65 -35.15 -49.75 Q-35.25 -51.15 -36.55 -51.4 L-36.95 -51.45 -35.9 -50.15 M-46.65 -75.4 L-46.6 -75.1 Q-47.75 -72.9 -49.65 -74.75 L-49.95 -75.2 Q-51.7 -76.1 -52.45 -77.85 L-52.55 -78.4 Q-52.2 -79.35 -51.1 -79.4 L-51.1 -79.45 Q-47.95 -78.45 -46.65 -75.4" fill="#ffff00" fill-opacity="0.5019608" fill-rule="evenodd" stroke="none"/>
  </g>
</svg>
