<?xml version="1.0" encoding="UTF-8" standalone="no"?>
<svg xmlns:ffdec="https://www.free-decompiler.com/flash" xmlns:xlink="http://www.w3.org/1999/xlink" ffdec:objectType="shape" height="80.45px" width="83.35px" xmlns="http://www.w3.org/2000/svg">
  <g transform="matrix(1.0, 0.0, 0.0, 1.0, 43.35, 77.05)">
    <path d="M16.2 -19.85 L21.0 -12.15 22.55 -9.85 23.05 -9.05 29.3 -8.85 Q24.15 -14.1 18.25 -18.35 L16.2 -19.85 M1.65 -1.95 Q1.45 0.25 0.75 2.4 0.6 2.95 -0.05 3.15 -3.6 4.2 -3.85 0.75 L-3.85 0.55 -7.55 2.15 -8.5 2.0 Q-11.85 -0.45 -8.65 -3.05 L-4.45 -5.7 -4.2 -5.8 Q-6.55 -10.6 -1.2 -11.9 L8.15 -12.2 13.15 -11.55 14.5 -11.35 Q10.75 -17.85 5.5 -23.0 5.0 -23.45 5.2 -24.2 5.45 -25.35 6.1 -25.95 0.7 -29.0 -4.65 -32.4 -5.6 -33.0 -6.7 -33.3 -8.4 -33.75 -9.9 -34.7 -15.0 -38.0 -20.95 -39.1 -21.45 -39.2 -21.65 -39.7 L-21.7 -39.85 -24.0 -40.15 -24.2 -40.3 Q-24.85 -40.85 -25.6 -41.1 L-26.0 -41.2 -26.85 -41.25 -27.8 -42.1 -28.95 -43.4 Q-31.35 -45.6 -33.05 -48.35 -35.2 -51.75 -36.85 -55.35 -40.85 -61.3 -43.0 -68.4 L-43.35 -70.3 Q-43.6 -74.05 -40.05 -74.75 -34.55 -75.15 -35.1 -70.15 -35.25 -68.75 -36.5 -68.1 -34.1 -61.3 -30.4 -54.95 -29.55 -57.05 -27.8 -58.8 -24.35 -62.25 -19.45 -62.25 -14.55 -62.25 -11.1 -58.8 -7.65 -55.35 -7.65 -50.45 -7.65 -45.65 -11.0 -42.2 L-9.1 -41.45 -8.75 -42.9 -7.95 -46.55 -7.65 -47.15 Q-7.05 -55.4 -8.65 -63.25 -8.9 -64.5 -8.7 -65.9 -9.5 -66.9 -9.5 -68.2 -9.45 -69.15 -10.05 -69.95 -14.3 -73.4 -10.15 -76.6 L-9.3 -77.05 Q-4.25 -75.95 -3.55 -70.45 L-2.9 -66.4 Q-0.75 -55.8 -2.05 -45.05 -2.5 -41.6 -3.8 -38.45 L-1.7 -37.2 Q7.7 -31.45 17.35 -26.1 22.55 -23.2 27.05 -19.3 34.1 -13.1 39.7 -5.75 40.15 -5.1 39.9 -4.25 39.4 -2.65 37.75 -2.45 33.35 -1.85 28.95 -2.45 L21.5 -3.6 Q14.05 -4.9 6.6 -3.7 L3.15 -2.65 1.65 -1.95" fill="#000000" fill-rule="evenodd" stroke="none"/>
  </g>
</svg>
