<?xml version="1.0" encoding="UTF-8" standalone="no"?>
<svg xmlns:ffdec="https://www.free-decompiler.com/flash" xmlns:xlink="http://www.w3.org/1999/xlink" ffdec:objectType="shape" height="68.1px" width="101.55px" xmlns="http://www.w3.org/2000/svg">
  <g transform="matrix(1.0, 0.0, 0.0, 1.0, 60.7, 60.55)">
    <path d="M6.35 -10.55 Q3.8 -11.7 1.35 -13.0 -7.2 -17.55 -16.85 -19.4 L-22.4 -20.8 -23.65 -21.25 -24.8 -21.05 Q-27.65 -22.3 -30.85 -22.5 L-30.9 -22.55 Q-32.25 -21.25 -34.9 -22.7 L-37.4 -24.1 Q-46.85 -29.5 -54.5 -37.4 -58.65 -41.65 -60.55 -47.05 -60.9 -48.05 -60.4 -49.1 L-59.85 -50.1 Q-58.95 -51.7 -57.25 -51.75 -52.75 -51.25 -53.6 -46.55 L-53.7 -46.25 Q-47.25 -37.45 -38.05 -31.7 L-38.1 -32.8 Q-38.1 -37.7 -34.65 -41.15 -31.2 -44.6 -26.3 -44.6 -21.4 -44.6 -17.95 -41.15 -16.0 -39.2 -15.15 -36.8 -15.1 -42.1 -15.75 -47.4 -15.95 -49.0 -16.6 -50.5 L-17.75 -53.75 -18.15 -53.95 Q-22.45 -52.25 -22.9 -56.75 -23.2 -60.05 -19.95 -60.55 -11.85 -59.65 -10.6 -51.55 L-10.55 -51.25 Q-8.75 -45.05 -9.1 -38.25 L-9.8 -30.8 Q-10.2 -27.25 -11.65 -23.95 L-11.7 -23.8 -6.5 -22.35 Q1.7 -20.25 9.1 -16.1 11.5 -14.75 14.1 -13.85 24.5 -10.3 34.9 -7.05 37.9 -6.1 40.1 -3.85 41.35 -2.55 40.45 -0.95 39.85 0.15 38.6 0.3 29.1 1.5 19.85 0.1 L15.2 -0.4 14.5 -0.45 6.25 -0.45 Q6.0 3.55 4.4 6.95 4.2 7.4 3.75 7.45 -1.0 8.2 -0.25 3.55 0.2 0.8 0.25 -2.0 L0.5 -3.6 -2.9 -2.85 Q-1.95 1.25 -5.3 2.8 -6.7 3.4 -7.65 2.25 -9.1 0.35 -8.95 -2.3 -8.8 -4.2 -8.1 -5.9 -6.7 -9.25 -2.95 -9.2 L0.0 -9.3 Q3.3 -9.6 6.55 -9.4 L6.35 -10.55 M18.65 -6.1 L13.1 -7.8 12.85 -6.55 12.8 -6.35 18.65 -6.1" fill="#000000" fill-rule="evenodd" stroke="none"/>
  </g>
</svg>
