<?xml version="1.0" encoding="UTF-8" standalone="no"?>
<svg xmlns:ffdec="https://www.free-decompiler.com/flash" xmlns:xlink="http://www.w3.org/1999/xlink" ffdec:objectType="shape" height="48.5px" width="112.75px" xmlns="http://www.w3.org/2000/svg">
  <g transform="matrix(1.0, 0.0, 0.0, 1.0, 71.15, 40.55)">
    <path d="M36.1 -0.2 Q24.1 0.3 12.1 0.35 L12.1 0.65 Q12.25 4.05 9.75 5.9 9.1 6.4 8.25 6.2 6.25 5.75 6.0 3.75 L5.95 3.45 Q5.95 0.7 6.35 -1.95 L6.35 -2.0 1.65 -1.95 Q1.9 -0.85 1.7 0.6 L1.0 5.7 Q0.6 8.45 -2.05 7.85 -4.75 7.3 -4.7 4.5 -4.6 1.35 -4.15 -1.65 L-13.75 -0.4 Q-13.9 -0.25 -14.15 -0.2 -21.4 1.65 -28.75 1.35 L-31.4 2.0 Q-34.25 0.75 -37.45 0.55 L-37.65 0.4 Q-38.8 -0.6 -40.3 -0.55 L-41.25 -1.4 -43.6 -1.3 Q-49.95 -2.15 -55.7 -4.35 -56.35 -4.6 -56.65 -5.25 -60.2 -12.25 -65.05 -18.75 -67.85 -22.4 -70.9 -25.55 -71.3 -25.95 -71.05 -26.65 -70.0 -29.55 -67.2 -30.15 -63.8 -30.25 -63.6 -27.0 L-63.55 -26.7 Q-57.2 -19.1 -52.55 -10.4 L-51.95 -9.25 -44.45 -7.35 -44.7 -9.75 Q-44.7 -14.65 -41.25 -18.1 -37.8 -21.55 -32.9 -21.55 -28.0 -21.55 -24.55 -18.1 L-23.35 -16.75 -25.8 -24.85 Q-27.4 -29.55 -30.65 -33.15 -34.35 -30.1 -36.5 -34.4 -38.0 -37.4 -35.65 -39.7 -34.85 -40.55 -33.8 -40.55 -26.6 -39.4 -23.25 -32.9 L-20.95 -27.8 Q-16.8 -17.5 -14.95 -6.6 L-14.85 -6.05 -2.3 -7.9 Q17.7 -7.9 37.65 -7.5 39.75 -7.5 40.9 -5.75 42.65 -3.1 39.95 -1.4 38.15 -0.3 36.1 -0.2 M-20.95 -4.85 L-21.35 -7.25 Q-21.6 -5.9 -22.2 -4.65 L-20.95 -4.85" fill="#000000" fill-rule="evenodd" stroke="none"/>
  </g>
</svg>
