<?xml version="1.0" encoding="UTF-8" standalone="no"?>
<svg xmlns:ffdec="https://www.free-decompiler.com/flash" xmlns:xlink="http://www.w3.org/1999/xlink" ffdec:objectType="shape" height="42.7px" width="116.6px" xmlns="http://www.w3.org/2000/svg">
  <g transform="matrix(1.0, 0.0, 0.0, 1.0, 75.95, 31.7)">
    <path d="M38.0 -7.0 Q41.75 -6.3 40.2 -2.95 39.6 -1.55 38.35 -0.7 34.25 2.0 29.2 1.95 L15.4 2.8 15.9 3.5 12.95 4.0 11.4 3.9 Q11.8 5.1 11.75 6.6 L11.7 7.75 Q11.4 12.25 7.2 10.5 6.35 10.15 6.05 9.3 4.85 6.3 5.55 3.45 L1.55 3.1 1.4 2.55 Q1.1 0.85 2.4 -0.3 L1.5 -0.3 1.25 1.5 Q0.85 3.05 1.4 4.55 2.55 7.6 -0.05 9.25 -1.5 10.15 -2.75 9.05 -4.9 7.1 -5.05 4.05 -5.15 1.7 -4.65 -0.45 L-17.65 -0.9 Q-17.65 0.7 -19.75 1.75 L-20.75 2.05 Q-27.85 2.3 -34.05 -1.05 -37.6 -2.95 -41.4 -4.4 -44.55 -5.65 -47.55 -7.0 -57.6 -9.7 -67.85 -7.2 -69.75 -6.75 -71.35 -5.6 -71.9 -5.2 -72.6 -5.35 -76.85 -6.2 -75.7 -10.0 -75.3 -11.4 -73.9 -11.9 -69.05 -13.6 -63.8 -14.05 L-48.85 -13.35 -45.1 -12.45 -41.95 -11.35 Q-42.35 -12.8 -42.35 -14.4 -42.35 -19.3 -38.9 -22.75 L-37.95 -23.6 -42.25 -24.4 -48.6 -25.75 Q-50.85 -21.1 -55.25 -24.4 -56.65 -25.45 -56.5 -27.3 -56.2 -31.1 -52.25 -31.7 -42.15 -31.3 -32.4 -28.4 L-29.0 -26.95 -26.95 -25.65 Q-24.3 -24.85 -22.2 -22.75 -19.9 -20.45 -19.1 -17.45 -16.15 -12.5 -17.05 -7.05 -7.2 -6.5 2.75 -6.8 L19.6 -7.85 Q28.95 -8.8 38.0 -7.0" fill="#000000" fill-rule="evenodd" stroke="none"/>
  </g>
</svg>
