<?xml version="1.0" encoding="UTF-8" standalone="no"?>
<svg xmlns:ffdec="https://www.free-decompiler.com/flash" xmlns:xlink="http://www.w3.org/1999/xlink" ffdec:objectType="shape" height="60.1px" width="113.7px" xmlns="http://www.w3.org/2000/svg">
  <g transform="matrix(1.0, 0.0, 0.0, 1.0, 57.9, 41.5)">
    <path d="M10.25 -20.1 Q12.2 -18.75 13.75 -16.85 16.3 -13.7 19.95 -13.75 L21.35 -14.8 24.75 -16.9 26.3 -16.9 27.95 -15.35 30.15 -13.15 30.2 -12.9 30.25 -12.6 31.45 -11.65 32.05 -11.45 Q36.05 -11.6 39.0 -15.0 L39.55 -15.0 39.65 -14.9 39.8 -14.65 40.55 -13.2 40.9 -12.6 40.9 -12.3 40.9 -12.0 Q41.15 -11.75 41.45 -11.65 45.05 -10.7 48.9 -11.15 L49.0 -8.25 49.0 -6.55 Q49.15 -6.25 49.45 -6.1 52.55 -4.25 55.8 -2.5 55.25 -1.95 54.55 -1.7 51.3 -0.45 49.0 2.1 L49.15 4.95 49.45 7.0 Q50.2 7.75 50.4 8.75 L50.5 9.6 50.75 9.9 50.9 10.15 50.2 9.8 Q49.35 9.25 48.3 9.3 L47.6 8.8 Q45.3 7.9 43.2 6.75 38.9 4.4 36.5 7.55 L36.15 7.9 35.9 8.15 35.75 9.95 35.15 10.75 35.15 11.05 35.1 11.3 35.05 11.6 34.75 11.9 34.75 12.2 34.65 12.45 Q30.35 11.3 25.75 11.75 24.55 11.9 24.0 13.05 L23.75 13.9 Q23.5 14.3 23.55 14.8 L23.55 15.05 23.25 15.35 23.25 15.95 23.2 16.5 23.15 16.7 21.9 16.0 Q20.45 15.2 18.85 14.85 13.35 13.65 10.55 18.6 L10.2 18.55 10.0 18.35 9.65 17.8 8.35 16.1 Q4.85 11.2 -0.4 14.0 L-2.05 14.85 -3.65 15.85 -4.3 14.7 -5.0 14.1 -5.1 13.8 Q-5.3 12.85 -5.95 12.1 L-6.05 11.55 -7.0 8.9 -7.45 8.6 -8.0 8.3 Q-11.3 7.85 -13.65 10.75 L-14.8 10.75 Q-16.25 9.45 -17.95 8.45 L-18.95 8.55 Q-21.5 11.7 -21.3 16.05 L-21.5 16.3 -21.8 16.9 -22.5 17.0 Q-23.95 16.1 -25.65 15.9 L-31.5 15.05 Q-33.0 14.85 -33.9 16.05 L-34.05 16.6 -34.95 18.45 -35.1 18.2 Q-35.5 17.2 -36.3 16.5 -36.65 13.4 -39.35 12.0 -42.5 10.35 -45.9 10.65 L-45.8 9.5 Q-45.3 6.3 -45.5 2.85 -51.0 -0.5 -57.45 -1.95 L-57.35 -2.7 -56.3 -6.75 -55.6 -7.3 -55.45 -7.85 Q-55.0 -8.7 -55.15 -9.6 L-54.95 -9.9 -54.5 -10.65 -54.3 -10.9 -54.1 -11.15 -54.0 -11.45 -54.0 -11.55 -53.6 -12.2 -53.65 -12.45 Q-53.95 -13.15 -54.55 -13.25 L-55.6 -14.95 Q-56.5 -16.7 -57.9 -18.05 -52.3 -17.7 -46.95 -18.15 -46.65 -18.55 -46.65 -19.05 L-46.7 -21.9 -46.7 -26.5 Q-42.95 -25.7 -39.3 -25.85 -38.2 -28.25 -38.6 -31.05 -39.05 -34.55 -37.95 -37.65 -34.1 -36.9 -30.45 -35.25 -28.7 -34.05 -27.55 -35.7 -26.05 -37.85 -25.95 -40.35 L-25.65 -40.65 -25.25 -41.2 -24.9 -41.5 -23.7 -41.5 -23.05 -40.95 -22.65 -40.65 -22.5 -40.35 -22.45 -40.05 -22.3 -39.75 Q-20.6 -38.4 -19.55 -36.55 L-19.25 -36.3 -11.35 -35.05 -11.35 -34.8 Q-11.4 -34.15 -11.7 -33.65 L-12.1 -33.05 -12.1 -32.2 -12.05 -31.3 -12.0 -31.05 Q-8.6 -29.0 -4.5 -28.55 L-4.3 -28.35 -3.45 -27.85 -3.25 -27.75 Q-3.55 -26.7 -4.25 -25.8 L-7.5 -21.8 -7.5 -21.25 -7.45 -20.1 -7.4 -19.5 -6.5 -19.1 Q-3.15 -17.75 0.55 -18.45 L0.85 -18.15 1.15 -17.85 1.35 -17.6 1.35 -17.3 1.35 -17.0 1.55 -16.75 1.8 -16.4 2.0 -16.15 2.1 -15.85 2.15 -15.55 2.2 -15.3 4.8 -15.2 Q7.65 -16.9 9.5 -19.7 L10.0 -19.9 10.25 -20.1" fill="#ffff00" fill-opacity="0.5019608" fill-rule="evenodd" stroke="none"/>
  </g>
</svg>
