<?xml version="1.0" encoding="UTF-8" standalone="no"?>
<svg xmlns:ffdec="https://www.free-decompiler.com/flash" xmlns:xlink="http://www.w3.org/1999/xlink" ffdec:objectType="shape" height="39.55px" width="95.2px" xmlns="http://www.w3.org/2000/svg">
  <g transform="matrix(1.0, 0.0, 0.0, 1.0, 49.0, 29.3)">
    <path d="M-14.85 -2.5 Q-16.3 -0.4 -18.55 1.0 L-29.65 8.05 Q-32.9 10.2 -35.5 7.25 L-44.7 -3.6 Q-50.15 -4.7 -48.7 -9.65 -48.25 -11.25 -46.65 -11.65 L-46.05 -11.8 Q-42.4 -11.1 -40.0 -7.9 L-32.15 2.35 -31.75 2.35 Q-26.45 -0.8 -21.6 -4.55 L-22.5 -4.75 Q-24.75 -5.2 -26.9 -6.1 -28.05 -6.55 -28.5 -7.7 L-28.65 -8.15 -29.8 -8.3 -32.05 -8.05 Q-33.55 -8.1 -34.85 -8.9 -38.05 -10.8 -35.25 -13.25 L-33.75 -14.1 Q-34.2 -15.7 -34.2 -17.5 -34.2 -22.4 -30.75 -25.85 -27.3 -29.3 -22.4 -29.3 -17.5 -29.3 -14.05 -25.85 -10.6 -22.4 -10.6 -17.5 -10.6 -13.2 -13.2 -10.05 L-6.3 -9.15 -2.45 -8.7 15.15 -8.0 37.1 -7.15 44.6 -6.2 Q45.8 -5.9 46.05 -4.75 46.95 -0.6 42.4 0.65 32.55 3.45 22.3 3.9 L15.9 4.55 15.6 4.85 Q15.45 9.1 11.85 10.15 10.75 10.45 9.95 9.6 8.7 8.3 8.95 6.45 L9.05 4.75 Q9.05 -0.95 15.2 -1.35 L17.15 -1.7 4.7 -2.25 Q5.05 -0.85 4.75 1.05 4.3 3.75 3.45 6.35 2.8 8.4 0.7 7.8 -2.35 6.9 -1.95 3.55 -1.7 1.15 -1.8 -1.3 L-1.7 -2.65 -14.5 -3.65 Q-14.45 -3.1 -14.85 -2.5" fill="#000000" fill-rule="evenodd" stroke="none"/>
  </g>
</svg>
