<?xml version="1.0" encoding="UTF-8" standalone="no"?>
<svg xmlns:ffdec="https://www.free-decompiler.com/flash" xmlns:xlink="http://www.w3.org/1999/xlink" ffdec:objectType="shape" height="46.65px" width="77.8px" xmlns="http://www.w3.org/2000/svg">
  <g transform="matrix(1.0, 0.0, 0.0, 1.0, 32.65, 33.25)">
    <path d="M-9.5 -13.85 L-10.15 -10.65 Q-5.9 -8.75 -1.15 -8.2 -0.5 -9.4 1.2 -9.55 L3.45 -8.0 42.5 -8.05 Q43.5 -8.05 44.25 -7.3 44.95 -6.55 45.1 -5.5 45.4 -3.6 44.5 -1.9 43.85 -0.6 42.4 -0.1 34.75 2.6 26.5 3.6 L14.45 5.45 Q13.2 9.4 9.7 7.05 8.45 6.2 8.65 4.65 L9.1 -0.5 9.15 -0.8 9.35 -1.4 3.75 -1.6 3.4 -0.6 Q4.45 3.85 -0.15 3.55 -1.8 3.4 -2.1 1.85 -2.55 -0.3 -2.35 -2.35 -6.05 -3.0 -9.75 -4.0 L-12.75 -5.0 Q-15.15 1.75 -15.2 8.8 -15.2 10.85 -16.5 12.35 -18.3 14.35 -20.2 12.45 -22.25 10.4 -23.4 7.75 -26.4 0.9 -28.25 -6.2 -28.95 -8.95 -26.25 -9.8 L-25.7 -9.95 Q-20.7 -9.6 -21.2 -4.45 -21.4 -2.5 -20.05 -0.8 -19.35 -4.5 -17.45 -7.5 L-20.2 -9.65 -21.4 -10.9 -21.45 -10.95 -23.15 -11.15 -23.35 -11.3 Q-24.5 -12.3 -26.0 -12.25 L-26.95 -13.1 -27.15 -13.3 Q-27.85 -12.3 -29.15 -12.35 -33.7 -12.5 -32.35 -16.55 -31.7 -18.35 -30.1 -18.65 L-30.4 -21.45 Q-30.4 -26.35 -26.95 -29.8 -23.5 -33.25 -18.6 -33.25 -13.7 -33.25 -10.25 -29.8 -6.8 -26.35 -6.8 -21.45 -6.8 -17.1 -9.5 -13.85 M14.35 -1.7 L14.65 -1.1 14.75 -0.9 21.25 -1.7 14.35 -1.7" fill="#000000" fill-rule="evenodd" stroke="none"/>
  </g>
</svg>
