<?xml version="1.0" encoding="UTF-8" standalone="no"?>
<svg xmlns:ffdec="https://www.free-decompiler.com/flash" xmlns:xlink="http://www.w3.org/1999/xlink" ffdec:objectType="shape" height="66.8px" width="96.9px" xmlns="http://www.w3.org/2000/svg">
  <g transform="matrix(1.0, 0.0, 0.0, 1.0, 37.25, 45.5)">
    <path d="M8.25 -26.8 L8.1 -26.55 Q4.85 -23.2 5.3 -18.75 9.5 -18.15 13.75 -18.75 L14.8 -17.85 14.8 -17.6 14.8 -17.3 16.6 -15.0 16.8 -14.15 Q18.55 -12.75 21.05 -13.8 26.3 -16.0 30.9 -19.2 L32.0 -18.95 Q32.2 -18.0 33.05 -17.8 33.3 -16.25 34.4 -15.2 34.95 -14.7 35.55 -15.05 38.9 -17.1 41.75 -20.1 L42.35 -19.8 43.2 -18.35 43.2 -18.05 43.3 -17.2 44.0 -16.35 44.0 -16.05 44.0 -15.45 Q44.6 -14.55 44.75 -13.45 L45.3 -12.85 Q45.75 -12.25 46.45 -12.4 50.6 -13.1 54.75 -12.6 L54.75 -12.3 54.65 -10.3 54.35 -10.0 Q54.45 -8.8 53.6 -8.0 L53.6 -7.4 53.8 -6.4 Q55.85 -2.45 59.65 0.35 56.15 0.4 54.35 3.05 L54.35 3.35 54.25 3.95 Q53.8 4.25 53.6 4.8 L53.6 5.1 53.5 7.3 Q49.2 5.4 44.75 3.9 39.7 2.2 37.85 6.6 L37.85 6.9 37.75 7.75 Q37.25 8.1 37.05 8.65 L37.1 8.9 36.95 10.05 Q34.95 10.2 33.35 9.05 L31.65 8.35 25.35 8.05 Q24.45 8.1 24.0 8.9 L23.95 9.2 Q23.55 9.85 23.6 10.65 L23.25 11.2 23.25 11.5 Q23.4 12.3 22.95 12.95 20.65 11.75 17.85 10.85 L14.9 10.15 Q11.0 9.55 9.4 13.45 8.8 15.35 7.5 16.9 5.9 16.75 4.5 16.05 0.0 13.9 -4.4 15.35 L-4.4 16.2 -4.5 21.3 -5.5 21.2 Q-10.4 18.65 -16.05 17.75 L-15.9 17.55 Q-15.15 16.1 -15.85 14.7 -19.2 11.8 -23.25 10.35 -24.65 9.25 -26.3 8.55 -23.75 6.5 -22.1 3.65 L-22.3 2.55 Q-23.85 -1.7 -28.15 -3.85 L-29.75 -5.7 -25.25 -11.15 -25.2 -11.45 -25.15 -12.9 Q-30.8 -17.35 -37.25 -20.55 -37.15 -21.4 -35.9 -21.5 -31.5 -23.75 -32.6 -28.0 -33.55 -31.7 -35.55 -34.95 L-34.25 -34.65 Q-30.8 -33.6 -28.05 -35.15 L-27.8 -35.7 Q-26.65 -37.85 -26.7 -40.35 L-26.3 -40.9 -26.3 -41.2 -25.95 -42.65 -24.0 -42.65 Q-23.4 -41.85 -22.5 -41.6 -20.85 -39.75 -18.85 -40.55 L-18.65 -41.1 Q-18.05 -42.75 -18.25 -44.55 L-17.85 -44.55 Q-12.9 -42.15 -12.8 -36.8 -12.05 -36.2 -11.15 -35.95 L-10.45 -36.2 Q-9.85 -37.1 -10.45 -37.95 L-10.95 -38.5 -10.9 -38.8 -10.2 -41.4 -10.0 -41.7 Q-8.55 -43.35 -8.25 -45.45 L-8.15 -45.45 Q-7.5 -44.95 -7.4 -44.1 L-7.15 -43.8 Q-5.9 -41.15 -5.1 -38.35 L4.4 -37.75 Q2.95 -34.3 0.95 -31.15 L1.25 -30.75 8.25 -26.8" fill="#ffff00" fill-opacity="0.5019608" fill-rule="evenodd" stroke="none"/>
  </g>
</svg>
