<?xml version="1.0" encoding="UTF-8" standalone="no"?>
<svg xmlns:ffdec="https://www.free-decompiler.com/flash" xmlns:xlink="http://www.w3.org/1999/xlink" ffdec:objectType="shape" height="71.35px" width="92.3px" xmlns="http://www.w3.org/2000/svg">
  <g transform="matrix(1.0, 0.0, 0.0, 1.0, 37.45, 51.0)">
    <path d="M2.9 -37.65 L2.9 -37.45 2.9 -36.6 2.5 -36.05 1.35 -32.0 0.95 -31.4 0.95 -31.15 1.05 -29.1 Q4.65 -28.95 7.5 -27.75 L7.45 -27.5 Q6.95 -22.95 7.5 -18.55 8.6 -16.85 10.4 -17.95 13.8 -19.9 17.1 -22.0 19.35 -18.3 23.25 -18.55 L24.0 -18.9 Q26.05 -21.25 28.7 -22.6 L29.65 -21.5 29.75 -21.25 29.85 -20.65 Q31.0 -19.65 31.7 -18.35 L31.7 -18.05 31.7 -17.8 32.3 -16.6 32.6 -16.3 Q36.65 -15.1 39.45 -18.85 40.25 -19.4 40.5 -18.85 L40.5 -18.55 40.6 -15.65 Q42.4 -14.85 44.4 -14.45 L51.85 -12.8 52.45 -11.65 Q49.65 -10.5 47.8 -8.45 47.7 -6.75 48.45 -5.25 51.25 0.3 54.85 5.15 L46.35 4.85 Q46.1 4.9 45.9 5.15 45.45 8.55 46.65 11.5 L38.05 9.4 35.3 8.95 29.4 8.7 Q26.95 8.65 25.95 10.75 L25.9 11.05 25.85 11.6 Q25.1 13.4 24.6 15.35 L23.05 15.35 Q18.5 13.0 13.05 13.75 12.15 13.85 11.7 14.7 L11.75 14.95 11.6 15.85 11.35 16.1 11.35 16.4 Q11.55 17.4 10.95 17.95 7.3 15.05 2.7 14.0 -1.9 13.0 -3.65 16.9 L-3.65 17.2 -3.75 17.75 -4.3 18.35 -4.4 18.6 -4.4 18.9 Q-5.3 19.2 -5.95 18.65 -6.75 17.95 -7.75 17.75 -12.7 16.8 -16.45 20.35 L-17.1 19.75 -17.1 19.5 -17.2 19.2 Q-17.65 18.5 -18.4 18.1 -23.9 15.15 -30.35 14.0 -28.85 13.6 -27.85 12.45 L-27.85 12.2 Q-27.65 10.65 -28.15 9.3 L-28.6 9.0 -28.65 8.75 -28.7 8.45 -31.9 5.55 Q-27.25 2.85 -23.25 -0.6 L-23.25 -0.9 -23.25 -2.9 Q-28.25 -7.4 -34.3 -10.3 L-34.25 -10.45 Q-33.85 -11.1 -34.0 -11.9 -31.25 -15.7 -32.1 -20.55 L-35.05 -23.75 Q-36.7 -25.9 -37.45 -28.35 -35.45 -29.7 -33.05 -30.55 -32.75 -31.8 -32.95 -33.15 -33.6 -36.85 -33.25 -40.35 L-27.65 -40.75 -27.3 -40.9 -26.3 -43.25 -26.35 -43.5 Q-26.6 -47.2 -25.95 -50.7 -25.2 -51.3 -24.5 -50.7 -21.55 -48.55 -19.4 -45.25 L-19.4 -44.95 -19.4 -44.65 -19.0 -44.1 -19.0 -43.8 -19.0 -41.5 Q-17.05 -39.05 -14.9 -40.85 L-14.85 -41.1 -15.1 -42.0 Q-10.55 -44.35 -5.85 -46.4 L-4.55 -40.05 Q-4.25 -38.4 -2.65 -38.2 L2.9 -37.65" fill="#ffff00" fill-opacity="0.5019608" fill-rule="evenodd" stroke="none"/>
  </g>
</svg>
