<?xml version="1.0" encoding="UTF-8" standalone="no"?>
<svg xmlns:ffdec="https://www.free-decompiler.com/flash" xmlns:xlink="http://www.w3.org/1999/xlink" ffdec:objectType="shape" height="47.7px" width="71.4px" xmlns="http://www.w3.org/2000/svg">
  <g transform="matrix(1.0, 0.0, 0.0, 1.0, 27.3, 35.15)">
    <path d="M-7.15 -31.7 Q-3.7 -28.25 -3.7 -23.35 -3.7 -20.3 -5.0 -17.8 -1.4 -16.45 -0.1 -12.35 L0.15 -11.4 0.35 -9.75 2.45 -9.6 Q8.4 -9.35 14.35 -9.5 L15.4 -9.5 36.35 -9.4 37.0 -9.45 Q40.15 -10.0 42.65 -8.4 44.65 -7.1 43.85 -4.8 42.25 -0.4 37.55 0.7 L24.7 3.4 24.0 5.65 Q23.75 6.25 23.1 6.45 19.9 7.35 18.45 4.3 L15.2 4.4 Q13.55 8.45 10.15 5.65 9.35 5.0 9.4 4.05 L9.45 2.9 9.45 2.6 Q9.45 -0.5 10.5 -3.15 7.55 -3.05 4.55 -3.2 3.55 -0.55 0.95 1.35 -0.8 2.6 -2.5 4.0 L-12.35 12.15 Q-12.8 12.55 -13.4 12.55 -18.1 12.7 -17.75 8.05 -17.45 4.35 -17.75 0.6 -18.1 -3.5 -17.85 -7.75 -19.25 -10.4 -19.15 -12.95 L-20.05 -13.05 -20.25 -13.2 Q-21.4 -14.2 -22.9 -14.15 L-23.85 -15.0 Q-27.3 -18.45 -27.3 -23.35 -27.3 -28.25 -23.85 -31.7 -20.4 -35.15 -15.5 -35.15 -10.6 -35.15 -7.15 -31.7 M-4.8 -4.2 L-7.15 -4.6 Q-9.15 -2.15 -11.9 -0.9 L-11.7 3.85 Q-6.95 0.45 -2.85 -3.75 L-2.85 -3.9 -4.8 -4.2 M-11.35 -12.25 L-7.05 -10.95 -7.15 -12.5 -8.3 -13.95 Q-9.7 -12.85 -11.35 -12.25" fill="#000000" fill-rule="evenodd" stroke="none"/>
  </g>
</svg>
