<?xml version="1.0" encoding="UTF-8" standalone="no"?>
<svg xmlns:ffdec="https://www.free-decompiler.com/flash" xmlns:xlink="http://www.w3.org/1999/xlink" ffdec:objectType="shape" height="72.45px" width="88.75px" xmlns="http://www.w3.org/2000/svg">
  <g transform="matrix(1.0, 0.0, 0.0, 1.0, 35.55, 53.8)">
    <path d="M8.05 -38.6 L8.2 -38.4 8.25 -37.85 Q6.75 -34.75 4.05 -32.65 L4.0 -32.4 Q3.95 -30.9 4.15 -29.5 L9.7 -25.45 Q10.1 -24.8 9.9 -24.3 8.25 -22.85 5.95 -22.6 L4.05 -22.6 Q1.35 -22.9 0.95 -20.95 L1.75 -19.8 1.7 -19.5 1.8 -18.35 2.15 -18.2 Q3.15 -17.95 3.85 -18.45 9.35 -22.25 16.3 -21.5 18.9 -18.1 22.65 -16.35 24.65 -17.05 26.2 -18.45 L26.4 -19.3 Q27.95 -21.4 30.55 -20.75 L32.75 -19.2 33.05 -18.65 Q33.45 -18.05 34.15 -18.15 37.65 -18.7 40.8 -20.75 L42.85 -20.45 42.65 -17.05 Q42.2 -13.1 45.65 -11.45 49.2 -9.75 53.2 -10.4 52.25 -8.05 50.15 -6.15 L50.05 -5.9 Q48.95 -3.8 49.35 -1.25 L51.65 2.5 51.3 3.05 Q44.45 2.35 39.35 5.95 L39.35 6.25 39.35 7.65 39.75 8.25 39.75 8.55 39.75 8.8 40.15 9.4 40.15 9.7 40.15 10.0 41.1 11.15 34.9 10.05 Q33.6 9.8 32.5 9.25 27.8 7.05 25.55 10.85 L25.55 11.15 25.55 11.4 25.15 12.0 Q25.05 13.95 24.3 15.75 L23.35 15.85 18.75 14.2 Q15.0 13.0 12.85 16.1 13.0 16.75 12.65 17.25 10.65 19.3 7.8 18.35 L6.9 17.9 5.65 17.15 Q2.45 14.1 -1.75 14.2 L-2.2 14.95 Q-4.15 16.75 -6.35 18.05 L-8.35 17.95 Q-11.9 16.0 -14.65 13.2 -15.15 12.75 -15.7 12.8 L-24.1 14.1 -23.65 13.25 -23.6 12.4 Q-23.55 11.8 -23.95 11.55 L-35.55 3.45 Q-34.65 1.05 -32.2 -0.1 -28.85 -1.65 -25.95 -3.65 L-25.9 -3.95 -26.05 -5.4 Q-28.2 -8.1 -31.6 -8.95 -32.25 -9.9 -33.25 -10.6 L-32.05 -11.5 Q-27.55 -14.1 -23.35 -17.3 -23.2 -17.85 -23.5 -18.25 -25.4 -20.5 -28.6 -21.15 L-28.6 -21.45 -28.6 -25.15 -27.85 -26.35 -28.1 -27.7 Q-29.1 -30.4 -32.45 -30.95 -34.55 -31.3 -35.05 -32.0 L-27.1 -36.1 Q-25.2 -36.2 -23.8 -37.45 L-23.75 -37.75 Q-23.5 -38.45 -23.7 -39.2 -26.9 -41.5 -29.75 -44.2 L-19.9 -44.85 Q-19.65 -44.85 -19.4 -45.15 -19.45 -46.85 -20.55 -48.05 L-20.6 -48.3 -21.7 -53.8 Q-17.4 -51.3 -13.3 -47.75 -12.3 -46.85 -11.1 -46.55 -10.2 -46.35 -9.5 -46.8 -6.85 -48.55 -3.85 -49.45 L-3.35 -49.95 -2.4 -49.95 -2.2 -49.45 Q-1.45 -44.75 -0.1 -40.25 3.65 -38.7 8.05 -38.6" fill="#ffff00" fill-opacity="0.5019608" fill-rule="evenodd" stroke="none"/>
  </g>
</svg>
