<?xml version="1.0" encoding="UTF-8" standalone="no"?>
<svg xmlns:ffdec="https://www.free-decompiler.com/flash" xmlns:xlink="http://www.w3.org/1999/xlink" ffdec:objectType="shape" height="50.2px" width="66.1px" xmlns="http://www.w3.org/2000/svg">
  <g transform="matrix(1.0, 0.0, 0.0, 1.0, 24.6, 41.0)">
    <path d="M-4.45 -37.55 Q-1.0 -34.1 -1.0 -29.2 -1.0 -24.3 -4.45 -20.85 -7.35 -17.95 -11.3 -17.45 L-11.75 -17.65 -11.9 -16.2 -11.45 -15.3 -10.8 -14.2 -10.35 -14.3 Q-6.9 -13.05 -7.6 -10.3 -4.7 -7.75 -0.7 -6.7 3.1 -5.7 7.15 -5.85 7.9 -6.7 9.55 -7.2 18.7 -10.0 28.1 -10.85 L38.65 -10.45 Q40.3 -10.35 40.7 -8.8 L40.85 -7.5 Q41.35 -7.2 41.45 -6.5 42.0 -2.65 37.6 -2.4 L24.25 -1.35 24.1 -0.7 Q23.6 1.75 22.6 4.0 21.55 6.25 19.3 5.15 17.0 4.0 17.4 1.35 L17.75 -0.65 16.55 -0.5 15.25 -0.35 15.15 0.0 14.4 1.55 Q12.2 4.85 9.7 1.75 9.1 1.05 8.9 0.15 L4.25 0.15 Q3.7 0.95 2.5 1.15 L-4.25 2.0 -7.4 2.7 -9.25 3.2 0.6 3.2 Q4.5 -0.55 6.5 4.15 L6.75 5.5 Q6.6 8.6 3.45 8.75 L-10.55 9.2 -19.6 8.55 Q-20.45 8.45 -20.75 7.65 -21.65 5.15 -21.15 2.45 L-20.7 -0.35 Q-20.05 -4.2 -20.0 -8.15 -19.95 -9.6 -19.0 -10.75 L-18.4 -15.05 -19.9 -18.7 -20.15 -20.0 -20.2 -20.0 -21.15 -20.85 Q-24.6 -24.3 -24.6 -29.2 -24.6 -34.1 -21.15 -37.55 -17.7 -41.0 -12.8 -41.0 -7.9 -41.0 -4.45 -37.55 M-14.35 -3.35 L-14.95 1.1 -14.75 1.95 -14.75 3.0 -11.05 3.15 Q-12.9 2.75 -14.0 0.85 -14.45 0.15 -14.45 -0.75 L-14.35 -3.35" fill="#000000" fill-rule="evenodd" stroke="none"/>
  </g>
</svg>
