<?xml version="1.0" encoding="UTF-8" standalone="no"?>
<svg xmlns:ffdec="https://www.free-decompiler.com/flash" xmlns:xlink="http://www.w3.org/1999/xlink" ffdec:objectType="shape" height="64.0px" width="98.35px" xmlns="http://www.w3.org/2000/svg">
  <g transform="matrix(1.0, 0.0, 0.0, 1.0, 43.6, 44.5)">
    <path d="M9.0 -40.05 L8.8 -39.5 7.85 -38.35 7.85 -37.75 7.8 -37.2 7.3 -36.55 6.35 -35.15 6.3 -34.6 6.45 -33.7 6.75 -33.45 Q7.75 -32.8 8.95 -32.4 L13.05 -29.4 12.8 -29.1 11.2 -27.45 Q8.65 -25.0 7.5 -21.9 8.2 -20.15 10.25 -20.3 L10.6 -20.1 Q11.45 -19.85 11.7 -19.05 L11.7 -18.75 11.7 -18.45 11.95 -18.15 12.1 -17.85 Q12.1 -17.3 12.25 -16.8 L12.85 -14.7 Q13.1 -14.4 13.4 -14.3 16.5 -13.3 19.5 -15.45 20.15 -16.9 21.6 -16.65 22.55 -15.45 23.9 -15.15 28.85 -14.1 33.05 -17.5 L36.4 -14.15 Q36.95 -13.55 37.65 -13.25 43.2 -10.85 48.6 -13.85 L49.25 -13.85 49.35 -13.75 49.35 -12.3 49.45 -9.15 Q51.5 -7.3 53.85 -6.15 L54.0 -5.9 54.75 -5.0 54.1 -4.5 Q52.85 -3.75 52.05 -2.5 L52.05 -1.35 52.05 0.35 52.55 0.95 Q52.85 1.3 52.8 1.8 L53.35 2.35 Q54.05 2.95 54.35 3.85 L47.25 3.75 Q43.85 3.75 42.45 6.6 L42.45 7.75 42.45 9.8 32.65 9.3 Q31.7 9.35 31.3 10.15 L31.15 11.3 Q30.85 12.15 30.8 13.05 L28.7 12.75 Q24.8 11.5 20.8 10.75 17.8 10.2 16.7 12.65 L16.6 13.5 16.25 14.95 12.95 14.35 8.85 14.45 Q6.0 15.55 4.7 18.6 L1.7 16.55 Q0.55 15.7 -0.8 15.5 -6.45 14.7 -9.5 19.5 L-10.15 18.75 -11.6 15.85 Q-13.7 14.4 -16.2 14.1 L-26.9 13.15 -26.55 12.55 Q-24.85 8.8 -29.0 7.75 -30.85 6.9 -33.05 6.5 -36.3 5.95 -38.05 4.7 L-37.65 3.25 -37.45 -0.2 -38.1 -1.1 -43.6 -6.55 Q-39.75 -5.95 -37.15 -8.1 L-36.5 -10.4 Q-36.25 -11.1 -36.25 -11.8 L-36.3 -17.3 Q-31.8 -16.75 -27.65 -17.1 L-27.55 -17.7 -27.4 -18.85 Q-27.2 -21.25 -27.95 -23.45 -25.3 -23.6 -23.05 -22.1 L-22.6 -22.35 -22.1 -22.85 -22.15 -23.15 Q-22.7 -25.1 -24.7 -26.05 L-24.85 -26.25 -27.3 -28.9 Q-23.3 -28.95 -20.65 -31.5 L-20.6 -32.1 -20.55 -32.65 -20.35 -32.95 -20.15 -33.25 -20.15 -33.8 -20.15 -34.95 -20.15 -39.6 Q-15.45 -39.25 -10.85 -39.7 L-10.65 -39.95 Q-9.1 -42.7 -6.55 -44.5 L-6.15 -44.45 -5.3 -44.3 -5.0 -44.0 Q-4.55 -43.5 -4.05 -43.15 L-4.0 -42.85 -3.95 -42.55 -2.45 -41.5 Q-1.75 -41.05 -0.95 -40.95 L9.0 -40.05" fill="#ffff00" fill-opacity="0.5019608" fill-rule="evenodd" stroke="none"/>
  </g>
</svg>
