<?xml version="1.0" encoding="UTF-8" standalone="no"?>
<svg xmlns:ffdec="https://www.free-decompiler.com/flash" xmlns:xlink="http://www.w3.org/1999/xlink" ffdec:objectType="shape" height="46.65px" width="78.45px" xmlns="http://www.w3.org/2000/svg">
  <g transform="matrix(1.0, 0.0, 0.0, 1.0, 33.75, 34.45)">
    <path d="M0.85 -14.3 Q-2.05 -11.4 -6.0 -10.9 -8.45 -12.0 -11.2 -12.25 L-11.95 -10.9 -12.25 -10.45 Q-9.55 -6.15 -4.1 -6.15 4.15 -6.15 12.25 -7.85 25.4 -10.55 38.9 -9.45 42.5 -9.15 44.3 -6.4 45.15 -5.05 44.1 -3.85 41.85 -1.15 38.2 -0.8 L34.3 -0.5 24.45 0.55 Q24.5 4.35 21.1 5.05 19.95 5.3 19.3 4.35 17.6 2.0 18.45 -1.0 L18.75 -2.9 16.1 -2.3 Q16.1 -1.45 15.5 -0.2 L14.35 1.35 Q13.15 2.45 12.25 3.85 11.4 5.15 9.9 4.6 6.4 3.3 7.85 -0.25 L8.25 -1.1 1.8 -0.6 1.6 0.65 Q0.95 2.9 -1.45 2.45 L-14.75 -0.25 Q-20.05 -1.4 -20.55 -6.15 -20.75 -7.9 -20.05 -9.4 L-22.45 -6.55 -26.25 -1.95 -26.35 -1.5 Q-16.8 3.0 -6.6 5.15 -4.35 1.4 -0.45 4.2 0.8 5.1 0.9 6.75 1.15 10.85 -2.9 12.05 L-5.25 12.0 -7.85 11.2 Q-19.95 8.25 -31.1 2.65 -34.8 0.75 -33.3 -2.7 -32.4 -4.75 -30.7 -6.4 -25.45 -11.45 -21.0 -17.05 L-19.05 -18.85 -18.95 -19.8 Q-19.3 -21.15 -19.3 -22.65 -19.3 -27.55 -15.85 -31.0 -12.4 -34.45 -7.5 -34.45 -2.6 -34.45 0.85 -31.0 4.3 -27.55 4.3 -22.65 4.3 -17.75 0.85 -14.3" fill="#000000" fill-rule="evenodd" stroke="none"/>
  </g>
</svg>
