<?xml version="1.0" encoding="UTF-8" standalone="no"?>
<svg xmlns:ffdec="https://www.free-decompiler.com/flash" xmlns:xlink="http://www.w3.org/1999/xlink" ffdec:objectType="shape" height="71.25px" width="86.3px" xmlns="http://www.w3.org/2000/svg">
  <g transform="matrix(1.0, 0.0, 0.0, 1.0, 32.45, 52.65)">
    <path d="M11.05 -45.25 Q11.4 -44.45 12.0 -43.8 12.1 -41.3 12.5 -38.9 L12.85 -38.35 12.85 -38.05 12.85 -37.75 Q14.25 -35.15 17.0 -34.3 L17.1 -34.2 Q17.65 -33.9 17.5 -33.45 L9.0 -26.9 9.1 -24.9 Q13.75 -23.45 17.55 -21.7 17.2 -19.5 17.85 -17.4 19.1 -15.35 21.25 -14.1 23.25 -12.95 24.75 -14.7 27.7 -18.25 31.3 -21.15 32.55 -21.45 33.3 -20.65 38.15 -15.8 44.15 -18.75 L44.65 -19.2 45.5 -19.1 45.3 -15.95 Q44.85 -12.65 44.75 -9.35 46.2 -7.65 48.6 -7.7 L53.85 -4.55 Q47.4 -4.05 44.35 1.25 44.45 2.6 44.0 3.85 L35.05 4.1 Q32.9 4.15 31.2 5.3 30.0 6.05 29.8 7.4 L28.9 12.0 27.0 11.8 26.6 11.6 25.25 11.05 Q19.25 7.65 15.65 12.95 L15.45 13.8 13.65 16.1 12.2 16.2 7.25 14.55 4.95 14.65 Q2.7 15.8 2.0 18.6 L0.95 18.05 Q0.45 16.65 -0.65 15.85 L-1.05 15.6 -1.15 15.55 -1.3 15.55 -5.0 15.15 -5.0 15.2 -5.4 15.3 -5.55 15.35 -6.05 15.85 -6.35 16.1 -6.35 16.25 -10.2 17.25 -12.85 12.45 Q-13.15 11.85 -13.8 11.95 -17.6 12.65 -20.95 14.85 -21.35 11.05 -23.2 7.65 L-23.55 7.25 Q-26.8 5.45 -30.55 6.5 L-29.4 1.4 Q-28.25 -3.05 -30.05 -7.2 L-32.45 -9.05 -30.7 -10.95 Q-27.05 -14.15 -30.05 -17.7 L-30.55 -20.3 -30.15 -21.15 -22.1 -21.45 Q-18.8 -21.6 -19.1 -24.6 -20.55 -26.2 -20.65 -28.05 L-20.0 -28.65 Q-19.45 -30.3 -17.95 -31.2 -17.3 -33.05 -17.6 -34.95 -18.5 -36.7 -20.15 -37.55 -20.85 -38.75 -21.7 -39.75 -21.0 -40.55 -19.8 -41.1 -17.5 -41.1 -15.95 -42.45 L-15.95 -42.75 -15.95 -43.6 Q-17.5 -47.05 -19.4 -50.25 L-14.9 -48.85 -12.8 -48.0 Q-8.2 -46.05 -3.55 -46.6 L-3.4 -46.9 Q-2.6 -49.65 -2.9 -52.65 L1.8 -48.2 Q5.5 -44.1 11.05 -45.25" fill="#ffff00" fill-opacity="0.5019608" fill-rule="evenodd" stroke="none"/>
  </g>
</svg>
