<?xml version="1.0" encoding="UTF-8" standalone="no"?>
<svg xmlns:ffdec="https://www.free-decompiler.com/flash" xmlns:xlink="http://www.w3.org/1999/xlink" ffdec:objectType="shape" height="85.2px" width="87.0px" xmlns="http://www.w3.org/2000/svg">
  <g transform="matrix(1.0, 0.0, 0.0, 1.0, 31.9, 64.2)">
    <path d="M0.55 -64.15 L0.65 -64.2 Q1.75 -63.75 2.4 -62.65 L2.5 -62.35 2.6 -61.75 3.35 -61.2 Q4.1 -59.0 5.75 -57.45 6.05 -57.15 6.4 -57.1 11.8 -55.9 17.5 -56.5 17.6 -55.75 17.2 -55.1 15.05 -51.75 15.55 -47.65 19.2 -44.35 22.95 -41.3 L22.45 -40.75 Q19.4 -39.95 17.1 -37.65 L17.1 -37.35 17.1 -36.2 17.3 -35.95 17.95 -34.5 Q19.95 -32.7 20.95 -30.15 16.9 -28.1 13.65 -24.6 L13.65 -24.3 13.65 -23.15 Q17.4 -20.8 22.35 -20.85 L22.45 -20.75 23.6 -19.7 23.65 -19.4 23.7 -19.1 Q25.6 -18.2 27.45 -19.6 L27.65 -19.8 28.05 -20.35 Q29.3 -20.3 30.15 -21.15 32.0 -21.75 33.15 -20.75 L33.2 -20.45 33.3 -19.9 34.3 -19.05 34.35 -18.75 34.4 -18.45 34.9 -17.85 Q35.3 -17.2 35.85 -16.65 37.3 -15.2 39.5 -16.15 43.15 -17.75 46.65 -18.05 L46.65 -17.3 46.65 -14.7 46.3 -14.15 46.25 -13.85 Q46.25 -13.4 46.4 -13.0 49.2 -11.45 52.35 -10.5 54.3 -9.65 55.1 -8.2 54.6 -7.15 53.45 -6.85 50.1 -6.0 47.8 -3.85 L47.8 -3.3 47.8 -1.25 48.05 -1.0 Q48.75 -0.25 48.6 0.75 L48.8 1.05 49.35 1.9 49.4 2.2 49.45 2.75 Q50.25 3.25 50.5 3.95 L41.1 4.55 Q40.15 4.65 39.75 5.55 L39.75 6.7 39.75 10.75 37.8 10.6 Q33.3 8.5 28.2 9.4 26.45 9.7 25.55 11.2 L25.55 11.8 25.45 13.55 25.15 13.8 25.15 14.1 25.05 14.95 Q18.85 12.9 13.25 15.35 L13.25 16.2 13.15 18.5 12.55 18.5 11.55 18.2 Q4.3 15.8 -0.3 21.0 -2.1 19.65 -4.15 18.9 L-9.55 18.6 -15.2 19.3 Q-15.05 17.95 -15.45 16.75 L-15.85 16.1 Q-19.65 12.75 -23.8 10.05 L-23.5 9.5 Q-22.6 8.05 -22.85 6.35 -26.9 2.15 -31.9 -0.7 -29.95 -1.7 -28.05 -2.9 L-27.6 -3.8 Q-26.2 -5.4 -26.4 -7.5 L-27.1 -13.85 -24.4 -14.3 Q-21.0 -14.35 -21.4 -17.3 L-21.6 -17.6 Q-22.4 -18.65 -22.75 -19.9 L-25.55 -23.05 -25.55 -23.35 Q-25.65 -24.0 -25.35 -24.5 L-24.55 -24.95 Q-21.0 -26.2 -18.25 -28.25 L-18.25 -28.55 -18.25 -29.4 Q-20.25 -30.85 -21.7 -32.85 L-19.7 -33.9 -19.5 -34.2 -19.0 -35.35 -18.05 -35.65 -17.8 -35.85 -17.5 -36.4 Q-20.35 -38.9 -24.15 -40.7 -26.1 -41.6 -26.4 -43.05 -24.85 -43.6 -23.9 -44.95 L-18.25 -47.65 -17.55 -48.35 Q-17.0 -48.7 -17.05 -49.25 L-17.85 -57.65 -9.75 -56.8 Q-7.4 -56.4 -5.65 -57.4 -1.9 -59.55 0.4 -63.6 L0.5 -63.9 0.55 -64.15" fill="#ffff00" fill-opacity="0.5019608" fill-rule="evenodd" stroke="none"/>
  </g>
</svg>
