<?xml version="1.0" encoding="UTF-8" standalone="no"?>
<svg xmlns:ffdec="https://www.free-decompiler.com/flash" xmlns:xlink="http://www.w3.org/1999/xlink" ffdec:objectType="shape" height="87.25px" width="87.5px" xmlns="http://www.w3.org/2000/svg">
  <g transform="matrix(1.0, 0.0, 0.0, 1.0, 37.85, 76.5)">
    <path d="M8.75 -74.75 L9.05 -75.05 Q9.8 -76.0 10.85 -76.45 L11.0 -76.5 12.0 -76.15 12.25 -75.65 13.65 -73.6 Q13.6 -72.95 14.0 -72.5 15.05 -71.25 14.8 -69.55 15.3 -68.6 16.25 -67.95 19.35 -65.9 23.25 -67.25 L23.85 -66.55 24.75 -64.75 24.75 -64.15 24.75 -63.9 24.95 -63.6 25.15 -63.3 25.15 -63.0 25.15 -62.7 25.35 -62.45 25.55 -62.15 25.55 -60.7 25.55 -58.4 25.8 -58.1 25.95 -57.85 25.95 -57.55 25.95 -57.25 Q27.2 -55.6 29.3 -55.45 30.0 -54.6 31.1 -54.65 L31.4 -54.45 32.45 -53.6 32.45 -53.0 32.45 -52.75 30.25 -50.25 Q28.45 -48.35 28.6 -45.8 L29.2 -45.05 30.45 -42.65 Q29.45 -42.55 28.65 -42.05 L27.8 -41.7 Q24.15 -40.95 22.45 -37.95 L22.5 -36.8 22.35 -35.65 22.1 -35.35 18.15 -34.75 Q17.4 -34.55 17.1 -33.7 L17.1 -32.85 17.1 -32.0 17.3 -31.7 17.5 -31.4 17.5 -31.15 17.5 -30.85 Q18.35 -29.8 19.55 -29.1 20.25 -28.75 20.85 -29.1 23.6 -30.7 26.15 -32.8 L27.1 -33.2 Q28.4 -33.3 29.1 -32.55 32.15 -29.45 34.65 -32.65 L34.8 -33.25 34.85 -33.55 35.35 -34.1 36.3 -34.95 36.65 -34.45 37.85 -32.95 37.9 -32.4 38.05 -32.1 39.2 -31.15 Q39.95 -30.4 40.95 -30.3 45.15 -29.8 48.2 -28.15 L47.8 -27.25 Q47.2 -24.9 45.25 -23.55 L45.15 -23.25 45.15 -22.95 44.55 -22.35 43.6 -20.95 43.6 -20.1 43.6 -18.95 43.8 -18.65 Q44.25 -18.05 44.95 -17.8 L45.1 -17.55 Q47.65 -15.8 49.65 -13.35 46.45 -12.25 43.6 -10.4 L43.6 -9.25 43.6 -6.95 43.85 -6.6 44.0 -6.35 44.0 -6.05 44.2 -5.15 Q44.85 -3.25 45.9 -1.75 45.8 -1.25 46.05 -0.85 L46.5 0.0 40.75 0.5 Q40.45 0.5 40.15 0.75 L40.1 1.35 40.05 1.6 39.75 1.9 39.75 2.75 39.75 3.35 40.05 3.95 40.5 4.8 40.5 5.1 40.5 5.65 40.45 5.85 39.45 5.85 38.85 5.45 Q36.45 4.4 33.85 5.35 L33.4 5.55 33.25 6.15 33.25 6.4 33.25 7.3 33.15 10.55 Q31.4 9.9 29.95 8.65 29.6 8.35 29.3 8.35 26.15 8.3 23.25 10.35 L19.8 10.75 19.45 9.95 19.2 9.4 18.75 8.75 Q18.35 7.95 17.55 7.4 L17.05 5.95 Q16.85 5.65 16.6 5.65 L7.5 6.15 7.1 5.55 6.35 4.4 Q6.4 3.8 6.1 3.25 L4.4 0.35 4.4 0.1 4.4 -0.2 Q3.7 -1.35 2.5 -0.6 0.4 0.75 -1.55 2.3 L-1.9 2.2 -3.95 0.5 Q-5.25 -0.4 -6.1 -1.7 -7.6 -3.95 -9.95 -2.2 L-11.55 -0.55 Q-13.85 2.5 -17.5 3.85 L-18.65 3.85 -19.15 3.05 Q-19.3 2.4 -19.8 1.9 L-19.8 1.35 -19.9 0.75 -20.3 0.15 Q-22.65 -4.35 -27.85 -2.6 L-27.9 -3.2 -28.0 -4.05 Q-28.2 -6.25 -29.4 -8.1 -29.9 -11.8 -34.4 -11.55 L-34.6 -11.75 -35.15 -12.3 -35.15 -13.15 -35.0 -14.0 Q-34.35 -16.0 -34.4 -18.05 L-34.2 -18.35 -34.0 -18.65 -34.0 -19.8 -34.0 -22.1 -34.2 -22.4 -34.4 -22.7 -34.4 -22.95 -34.4 -23.25 -34.6 -23.5 -37.85 -27.0 -37.3 -27.6 -37.0 -28.15 -36.5 -28.4 -35.9 -28.8 Q-35.15 -29.0 -34.5 -29.4 -32.2 -30.75 -29.55 -31.2 -25.4 -31.85 -25.55 -35.55 L-26.15 -36.4 Q-26.95 -37.45 -27.1 -38.7 L-26.9 -39.0 -26.3 -39.6 Q-25.15 -39.55 -24.4 -40.35 -21.45 -40.05 -19.4 -41.7 L-19.4 -42.25 -19.4 -42.55 -19.4 -43.4 -19.4 -46.9 -14.9 -46.75 Q-13.75 -46.7 -12.7 -46.25 -9.05 -44.7 -7.1 -47.15 L-7.4 -47.7 -10.0 -50.9 Q-9.1 -53.05 -7.4 -54.95 L-3.35 -59.55 -3.3 -59.85 -3.35 -61.0 Q-3.6 -62.7 -4.5 -64.15 L-5.0 -64.75 -5.5 -65.3 -5.6 -65.9 -5.75 -66.2 -5.4 -66.4 -4.7 -66.85 Q-2.2 -66.85 -0.2 -68.0 1.65 -68.15 2.9 -69.35 L2.9 -69.95 2.9 -70.5 2.45 -71.0 Q1.9 -71.55 1.65 -72.25 L6.9 -72.5 7.45 -72.95 Q8.4 -73.65 8.75 -74.75" fill="#ffff00" fill-opacity="0.5019608" fill-rule="evenodd" stroke="none"/>
  </g>
</svg>
