<?xml version="1.0" encoding="UTF-8" standalone="no"?>
<svg xmlns:ffdec="https://www.free-decompiler.com/flash" xmlns:xlink="http://www.w3.org/1999/xlink" ffdec:objectType="shape" height="64.85px" width="68.85px" xmlns="http://www.w3.org/2000/svg">
  <g transform="matrix(1.0, 0.0, 0.0, 1.0, 29.15, 62.8)">
    <path d="M11.0 -62.8 Q15.9 -62.8 19.35 -59.35 22.8 -55.9 22.8 -51.0 22.8 -46.1 19.35 -42.65 16.45 -39.75 12.5 -39.25 9.65 -40.5 6.45 -40.7 L6.25 -40.85 5.4 -41.4 Q5.4 -40.55 4.8 -39.3 L4.5 -38.8 4.5 -38.7 4.55 -37.25 Q4.5 -27.6 4.85 -17.95 20.75 -23.0 37.5 -25.0 38.3 -25.1 38.8 -24.4 40.85 -21.2 38.35 -18.0 L34.95 -13.25 38.35 -11.85 Q39.35 -11.35 39.1 -10.25 38.25 -5.8 33.15 -6.5 L31.9 -6.55 31.05 -6.5 30.4 -5.2 29.7 -4.3 Q34.75 -3.75 33.8 0.4 33.45 2.2 31.55 2.05 L25.7 1.2 Q20.5 0.2 23.1 -4.45 L24.15 -6.3 10.2 -6.15 9.45 -6.05 Q9.85 -3.05 7.05 -2.3 4.95 -1.7 4.15 -3.75 3.55 -5.35 3.5 -7.1 3.5 -8.9 4.05 -10.55 L3.8 -11.35 2.25 -11.6 Q-0.1 -12.15 -0.5 -14.6 -1.15 -18.3 -1.25 -22.05 L-1.4 -28.15 -1.45 -31.3 -2.7 -29.0 -11.4 -12.0 Q-7.25 -11.1 -8.75 -6.8 -10.0 -3.1 -13.5 -4.95 -14.35 -5.4 -14.65 -6.25 -19.1 -3.5 -22.45 -6.9 -22.9 -7.4 -22.75 -8.15 -21.65 -12.8 -17.05 -14.0 L-11.95 -24.7 -11.0 -25.8 Q-9.3 -30.35 -6.85 -34.4 L-7.8 -33.85 -17.65 -28.05 -20.8 -14.85 Q-21.5 -11.75 -24.65 -12.65 -26.95 -13.35 -28.05 -15.6 -28.75 -17.1 -29.05 -18.7 -29.6 -21.8 -26.45 -22.25 L-25.15 -22.35 Q-24.25 -27.1 -22.55 -31.45 -22.2 -32.4 -21.35 -32.95 -13.1 -38.6 -3.9 -42.3 L-1.15 -43.1 -0.7 -47.15 -0.5 -48.2 -0.8 -51.0 Q-0.8 -55.9 2.65 -59.35 6.1 -62.8 11.0 -62.8 M23.45 -17.05 L18.2 -15.45 24.75 -14.6 28.6 -14.15 30.85 -18.15 Q27.6 -18.25 23.45 -17.05" fill="#000000" fill-rule="evenodd" stroke="none"/>
  </g>
</svg>
