<?xml version="1.0" encoding="UTF-8" standalone="no"?>
<svg xmlns:ffdec="https://www.free-decompiler.com/flash" xmlns:xlink="http://www.w3.org/1999/xlink" ffdec:objectType="shape" height="92.7px" width="91.95px" xmlns="http://www.w3.org/2000/svg">
  <g transform="matrix(1.0, 0.0, 0.0, 1.0, 38.25, 83.0)">
    <path d="M44.95 -68.0 L45.15 -67.75 46.55 -66.0 Q46.15 -65.45 45.5 -65.25 41.4 -63.85 38.2 -61.4 L38.2 -60.8 38.2 -59.65 38.45 -59.4 41.2 -55.9 Q38.95 -54.9 36.7 -54.2 34.45 -54.05 33.6 -52.15 L33.6 -51.6 33.6 -50.45 33.85 -50.15 35.45 -48.4 35.5 -47.85 35.55 -46.95 35.25 -46.35 Q34.85 -44.95 34.0 -43.8 L33.95 -42.65 34.1 -40.65 Q34.5 -40.4 34.9 -40.45 38.45 -41.0 40.5 -38.7 L40.55 -38.15 Q40.6 -37.15 41.3 -36.4 L41.3 -36.1 41.4 -35.25 Q41.8 -35.0 42.25 -35.05 47.1 -35.25 50.5 -32.65 L50.5 -32.1 50.5 -31.2 50.35 -30.95 Q49.7 -29.8 48.7 -28.9 L48.6 -28.65 Q48.45 -27.8 47.8 -27.2 L47.8 -26.6 47.8 -25.45 48.6 -24.6 Q51.7 -22.3 53.7 -19.05 51.6 -17.3 48.8 -17.15 45.9 -16.95 44.75 -14.9 L44.8 -14.65 Q45.85 -12.55 47.75 -11.15 L47.8 -10.85 47.9 -10.3 48.6 -9.7 48.6 -9.45 48.7 -9.15 49.75 -8.0 Q47.3 -7.45 45.15 -5.75 L45.4 -2.35 46.3 3.75 46.45 4.05 46.65 4.6 Q41.7 3.75 37.25 5.15 L36.95 6.35 36.5 9.0 33.25 7.05 Q30.35 5.45 27.4 6.65 24.3 7.9 21.8 9.7 L20.15 8.25 Q19.2 7.35 17.85 7.25 9.55 6.75 1.35 8.45 0.8 7.15 -0.25 6.15 -4.35 2.35 -9.6 -0.2 L-9.3 -0.5 Q-8.9 -0.85 -8.65 -1.35 -8.65 -1.95 -8.8 -2.45 -9.3 -4.15 -10.2 -5.7 L-9.7 -6.55 Q-8.9 -7.85 -9.05 -9.4 -9.25 -9.7 -9.55 -9.75 L-16.7 -10.3 Q-18.9 -10.35 -20.05 -11.9 L-20.25 -12.8 -20.05 -14.25 Q-19.3 -14.95 -19.4 -15.95 -19.5 -16.95 -20.4 -17.4 -24.3 -19.25 -28.5 -20.4 -30.75 -21.0 -32.0 -22.0 L-29.85 -23.7 Q-25.65 -26.8 -30.45 -29.2 L-30.65 -29.45 Q-34.4 -32.15 -37.25 -35.55 L-37.65 -35.85 -38.25 -36.7 Q-37.75 -37.45 -36.5 -37.35 -31.45 -37.05 -27.95 -39.95 L-27.7 -41.7 Q-27.5 -43.8 -26.7 -45.75 L-20.75 -45.0 Q-20.15 -44.95 -19.85 -45.4 -17.4 -49.15 -16.6 -53.8 L-16.45 -54.1 -15.65 -54.95 -12.8 -54.85 Q-12.05 -54.2 -11.15 -53.9 -7.05 -52.4 -4.4 -54.75 L-4.3 -56.45 Q-3.85 -58.4 -4.05 -60.5 L-1.0 -61.65 Q0.75 -62.1 1.05 -63.85 2.0 -68.85 1.75 -74.15 3.6 -74.35 5.3 -75.0 6.45 -75.5 6.35 -76.85 6.8 -77.5 6.95 -78.3 7.2 -80.25 7.95 -82.05 L9.3 -81.95 13.35 -78.3 Q14.5 -77.15 16.05 -77.7 20.3 -79.25 23.15 -83.0 23.65 -82.9 24.2 -82.2 L27.1 -77.8 27.1 -77.5 27.1 -77.25 27.4 -76.6 Q28.55 -73.25 31.5 -73.95 L31.6 -74.25 31.7 -75.1 30.15 -76.25 30.1 -76.55 29.85 -77.15 29.5 -77.7 31.7 -79.15 36.95 -80.3 Q37.7 -79.0 37.75 -77.5 L37.95 -71.75 Q38.35 -71.3 39.0 -71.2 41.8 -69.5 44.95 -68.0" fill="#ffff00" fill-opacity="0.5019608" fill-rule="evenodd" stroke="none"/>
  </g>
</svg>
