<?xml version="1.0" encoding="UTF-8" standalone="no"?>
<svg xmlns:ffdec="https://www.free-decompiler.com/flash" xmlns:xlink="http://www.w3.org/1999/xlink" ffdec:objectType="shape" height="77.7px" width="62.35px" xmlns="http://www.w3.org/2000/svg">
  <g transform="matrix(1.0, 0.0, 0.0, 1.0, 23.2, 74.45)">
    <path d="M26.65 -54.3 Q23.75 -51.4 19.8 -50.9 16.95 -52.15 13.75 -52.35 L13.55 -52.5 12.4 -53.2 12.1 -51.75 11.0 -46.65 Q9.95 -42.05 8.5 -37.45 L7.9 -36.3 Q7.75 -34.2 7.15 -32.25 L7.0 -31.85 8.1 -32.35 Q9.8 -32.0 11.1 -31.05 L20.6 -30.65 21.25 -30.6 34.4 -30.1 Q38.6 -29.9 39.1 -26.15 39.4 -24.25 38.05 -22.75 34.4 -18.65 32.9 -13.25 L32.7 -11.9 33.1 -11.2 Q34.2 -9.2 32.3 -7.8 L31.65 -7.35 30.95 -4.9 30.6 -3.75 Q33.15 -3.85 35.65 -2.05 37.0 -1.05 36.4 0.5 35.0 4.1 30.7 2.95 L26.45 1.5 Q23.0 0.15 24.1 -3.65 L24.65 -5.5 10.6 -2.3 Q9.85 2.25 5.75 0.55 4.55 0.1 4.45 -1.15 4.0 -6.55 8.6 -8.3 L9.5 -8.5 Q16.8 -9.5 24.05 -11.3 15.55 -17.7 8.1 -25.2 L2.55 -25.45 Q0.9 -25.55 0.6 -27.15 0.2 -29.15 0.7 -31.2 L1.2 -33.1 2.35 -37.45 1.7 -36.5 -4.95 -25.55 Q-1.8 -21.75 -6.6 -20.4 -9.8 -19.5 -12.05 -21.45 -13.05 -22.35 -13.0 -23.8 -12.9 -26.75 -10.35 -28.15 -5.4 -35.75 -0.95 -43.55 L-6.75 -38.9 -14.2 -32.45 Q-12.55 -28.5 -16.9 -27.6 -19.3 -27.15 -20.4 -29.3 -25.2 -31.25 -21.75 -35.15 -20.6 -36.35 -19.1 -36.95 -16.3 -38.1 -14.05 -40.1 -5.25 -47.95 4.3 -55.05 5.6 -56.0 7.0 -56.4 L7.05 -56.7 7.35 -58.2 Q6.5 -60.25 6.5 -62.65 6.5 -67.55 9.95 -71.0 13.4 -74.45 18.3 -74.45 23.2 -74.45 26.65 -71.0 30.1 -67.55 30.1 -62.65 30.1 -57.75 26.65 -54.3 M19.5 -24.75 L17.25 -24.8 Q22.3 -20.15 28.0 -16.2 L29.65 -21.15 30.25 -22.25 31.75 -24.4 20.8 -24.7 19.5 -24.75" fill="#000000" fill-rule="evenodd" stroke="none"/>
  </g>
</svg>
