<?xml version="1.0" encoding="UTF-8" standalone="no"?>
<svg xmlns:ffdec="https://www.free-decompiler.com/flash" xmlns:xlink="http://www.w3.org/1999/xlink" ffdec:objectType="shape" height="115.4px" width="66.1px" xmlns="http://www.w3.org/2000/svg">
  <g transform="matrix(1.0, 0.0, 0.0, 1.0, 17.5, 97.95)">
    <path d="M47.8 -83.1 L48.05 -82.8 48.3 -82.5 48.5 -82.2 48.55 -81.65 48.6 -81.05 48.6 -80.8 Q47.85 -79.15 46.45 -78.05 44.8 -76.75 44.0 -74.85 L44.05 -74.6 44.85 -73.15 45.4 -72.25 45.5 -71.95 45.55 -71.65 45.6 -71.35 Q46.45 -70.7 46.75 -69.65 47.05 -68.65 47.8 -67.9 L47.8 -67.35 47.8 -66.75 47.75 -66.45 Q42.5 -66.8 39.0 -63.7 L39.0 -63.4 39.15 -61.4 39.35 -59.95 39.65 -59.65 39.75 -59.35 39.75 -59.05 39.75 -58.8 40.05 -58.5 40.3 -58.2 40.5 -57.9 40.15 -57.65 35.55 -57.2 Q33.8 -57.05 32.1 -57.2 29.55 -57.45 28.25 -55.6 L28.25 -55.35 28.25 -55.05 28.25 -54.75 28.35 -54.45 29.6 -53.35 Q32.95 -50.95 35.55 -48.4 L34.05 -47.0 31.7 -44.85 31.7 -44.55 31.7 -44.3 31.7 -44.0 31.8 -43.7 33.3 -42.3 Q35.0 -40.7 36.95 -39.7 L37.05 -39.6 37.25 -39.4 37.45 -39.05 37.45 -38.8 37.4 -38.55 36.75 -37.4 36.3 -36.8 36.25 -36.5 Q35.9 -35.4 35.85 -34.2 35.85 -33.15 36.0 -32.2 L36.35 -31.95 36.85 -31.7 37.05 -31.6 37.5 -31.3 Q39.65 -30.8 41.7 -29.7 L41.8 -29.55 42.65 -29.05 Q42.95 -28.9 43.2 -28.8 L43.25 -28.65 43.3 -28.35 44.3 -27.85 Q45.3 -27.4 45.9 -26.6 45.35 -25.45 44.25 -24.75 41.5 -23.0 39.75 -20.3 L39.75 -19.7 39.75 -19.1 39.75 -18.85 40.45 -18.15 Q41.3 -17.2 42.45 -16.55 L42.5 -16.25 42.65 -15.95 Q43.35 -15.45 44.15 -15.05 44.9 -14.7 45.15 -13.95 43.45 -12.7 41.45 -11.65 38.15 -9.95 35.9 -7.2 L35.9 -6.65 35.9 -6.05 35.9 -5.75 37.7 -4.1 42.45 0.0 Q39.55 -0.6 37.45 1.15 L37.35 2.0 36.45 7.8 Q35.95 11.55 34.65 15.15 L34.2 15.15 33.4 14.45 32.55 13.8 28.75 9.3 27.6 8.3 28.05 8.15 28.2 8.05 28.4 7.85 28.5 7.55 28.6 7.3 28.6 7.0 28.6 6.7 28.4 6.45 Q27.65 5.6 26.5 6.05 L26.3 6.15 25.75 6.85 25.35 7.75 25.15 8.05 25.15 8.35 25.15 8.65 25.05 8.9 24.55 9.45 Q23.25 10.65 22.65 12.35 L22.45 12.65 22.45 13.55 22.45 13.8 22.4 14.35 Q21.9 15.9 20.95 17.3 L20.85 17.45 20.35 17.45 20.25 17.35 13.35 12.0 Q10.8 9.8 9.0 12.75 L8.85 13.3 8.5 13.9 8.25 14.2 8.15 14.75 8.05 15.05 7.85 15.35 7.6 15.55 7.25 15.2 6.3 14.0 4.2 10.55 4.05 10.25 4.05 10.0 4.05 9.7 4.05 9.4 Q3.8 9.1 3.55 9.1 L-7.8 8.4 -8.05 8.25 -7.95 7.65 -7.9 7.4 -7.9 6.8 -7.9 3.95 -7.9 3.65 Q-9.45 0.45 -13.05 0.35 L-13.15 0.3 -12.45 -0.65 -11.9 -1.45 -11.7 -1.75 Q-11.4 -3.75 -12.6 -5.25 L-14.9 -7.8 -16.5 -9.25 -16.9 -10.1 -17.35 -10.7 -17.5 -10.95 -17.5 -12.1 -17.4 -12.7 -17.3 -13.0 -17.05 -13.25 -16.65 -13.6 -16.35 -13.85 -14.55 -14.05 -7.75 -15.1 Q-6.65 -15.25 -5.75 -15.95 -5.5 -16.5 -5.55 -17.1 L-5.55 -17.95 -5.55 -18.25 -5.9 -18.85 Q-6.6 -20.3 -7.75 -21.45 L-7.9 -21.7 -7.4 -22.05 -7.1 -22.3 Q-3.25 -22.2 -0.45 -24.45 L0.1 -25.0 Q0.25 -25.55 0.05 -26.1 L-0.2 -27.55 -0.2 -27.85 Q-1.55 -30.75 -4.85 -29.45 -7.65 -28.3 -9.8 -28.75 L-9.45 -30.2 -8.65 -32.15 Q-8.15 -33.7 -8.25 -35.35 L-8.25 -35.95 -9.1 -36.85 Q-10.85 -38.65 -13.45 -39.0 L-14.6 -39.2 Q-14.2 -40.25 -13.4 -41.05 L-10.05 -44.1 -9.7 -44.55 -8.95 -45.25 -8.25 -45.85 Q-6.45 -47.3 -6.7 -49.45 L-6.75 -49.75 -7.8 -50.85 -11.8 -53.9 -12.5 -54.45 -12.5 -54.75 -12.5 -55.05 -12.5 -55.35 -12.2 -55.6 -11.95 -55.9 -11.75 -56.2 -11.6 -56.5 -11.15 -56.8 -10.6 -57.4 -10.45 -57.65 -9.1 -58.5 Q-6.75 -60.1 -4.2 -61.5 L-3.35 -62.25 -3.25 -63.4 Q-3.25 -64.45 -3.65 -65.4 L-3.75 -65.7 -4.35 -66.55 -5.8 -69.2 -5.95 -69.45 Q-5.15 -70.45 -3.9 -70.85 L-0.65 -71.75 Q1.85 -72.5 4.2 -73.6 L4.4 -74.45 4.4 -75.0 4.35 -75.25 2.35 -78.45 2.1 -78.75 2.1 -79.35 2.1 -79.65 2.1 -79.9 2.1 -80.2 Q4.45 -82.25 7.55 -82.8 L7.85 -83.0 Q9.65 -83.1 10.75 -84.45 L10.95 -84.7 10.85 -85.6 10.75 -85.85 10.55 -86.15 8.45 -89.35 8.25 -89.6 8.15 -90.75 7.95 -91.65 7.95 -91.9 8.15 -92.05 14.2 -92.05 14.75 -92.05 15.45 -91.9 Q16.15 -91.05 17.3 -91.2 17.75 -91.3 18.05 -91.65 18.8 -93.25 18.7 -95.1 L18.65 -97.95 31.3 -91.7 32.25 -91.5 Q35.15 -91.75 36.3 -94.9 L36.95 -94.95 37.05 -94.9 37.25 -94.7 37.65 -94.4 38.7 -92.75 Q39.3 -91.95 39.45 -90.95 L41.0 -87.25 Q41.3 -86.2 42.25 -86.15 46.2 -86.0 47.8 -83.1" fill="#ffff00" fill-opacity="0.5019608" fill-rule="evenodd" stroke="none"/>
  </g>
</svg>
