<?xml version="1.0" encoding="UTF-8" standalone="no"?>
<svg xmlns:ffdec="https://www.free-decompiler.com/flash" xmlns:xlink="http://www.w3.org/1999/xlink" ffdec:objectType="shape" height="130.25px" width="85.65px" xmlns="http://www.w3.org/2000/svg">
  <g transform="matrix(1.0, 0.0, 0.0, 1.0, 41.5, 110.55)">
    <path d="M0.35 -106.15 L0.15 -106.4 0.05 -106.95 Q-0.3 -107.8 -0.2 -108.75 L1.15 -108.8 4.2 -107.5 Q10.35 -103.9 15.15 -108.45 16.35 -108.7 17.05 -109.6 L17.6 -109.85 18.25 -110.25 19.75 -110.15 19.75 -109.9 19.75 -109.6 19.95 -109.3 20.45 -108.75 20.5 -108.15 20.55 -107.55 21.15 -106.45 22.05 -102.7 22.65 -101.8 23.8 -98.95 Q27.1 -97.45 30.9 -98.55 L30.9 -97.5 30.8 -95.2 30.5 -94.9 30.5 -93.75 30.5 -91.45 Q31.45 -89.65 33.6 -89.5 L39.05 -86.65 38.55 -86.15 31.3 -81.35 31.3 -80.5 31.3 -78.45 31.5 -78.2 33.6 -75.9 27.05 -71.45 27.05 -70.9 27.05 -70.3 27.65 -69.75 Q27.95 -69.45 28.2 -69.45 L37.35 -68.6 37.4 -66.3 Q37.2 -63.7 37.9 -61.4 40.05 -59.75 42.7 -59.25 43.6 -58.6 44.15 -57.65 L43.95 -57.1 43.6 -56.5 43.4 -55.35 41.25 -51.3 41.25 -50.45 41.25 -48.15 41.5 -47.85 41.95 -47.25 42.05 -46.4 Q41.95 -45.45 42.45 -44.65 L42.3 -44.4 42.05 -43.8 Q37.95 -43.5 34.1 -45.0 30.5 -46.4 28.6 -43.7 L28.55 -43.45 Q27.7 -41.5 26.3 -39.95 25.25 -40.1 24.45 -40.8 21.9 -42.9 19.2 -42.45 18.85 -41.8 18.9 -41.0 L19.1 -37.55 19.55 -36.95 19.75 -36.1 Q22.2 -32.75 25.9 -30.75 L26.1 -30.45 27.05 -29.0 27.05 -28.75 26.85 -28.15 26.55 -27.8 24.35 -25.0 24.35 -23.85 24.35 -21.5 24.7 -21.25 Q26.75 -19.95 27.85 -17.85 L27.85 -17.6 27.85 -17.0 27.25 -16.2 Q25.95 -13.7 24.35 -11.55 L24.35 -10.95 24.35 -10.1 24.6 -9.9 Q29.4 -7.75 33.5 -4.6 30.75 -2.1 27.45 -0.3 L27.45 0.3 27.55 2.0 27.85 2.3 Q30.4 4.7 32.45 7.5 L32.3 7.75 31.3 8.9 31.3 9.2 31.3 9.5 31.1 9.8 30.9 10.35 Q25.75 9.4 22.15 12.55 L22.1 12.85 21.95 13.45 21.75 13.7 21.3 14.3 21.1 15.4 Q20.45 17.45 19.3 19.2 L18.25 19.2 12.05 15.25 11.3 14.55 Q8.9 10.95 5.95 13.8 L5.9 14.1 5.85 14.4 Q5.3 14.75 5.05 15.35 3.1 19.45 -1.25 19.7 L-2.8 18.3 -7.05 13.5 Q-10.0 10.3 -13.75 13.8 L-19.8 13.55 Q-20.25 12.55 -20.3 11.5 L-20.65 6.9 Q-21.45 5.7 -22.9 5.4 L-30.25 4.9 -30.6 4.55 -30.95 4.0 Q-30.3 3.1 -30.2 2.0 -29.95 -0.4 -30.45 -2.6 -32.2 -4.55 -34.3 -6.05 L-33.8 -6.3 Q-28.6 -6.9 -24.15 -9.25 -23.95 -9.8 -24.15 -10.35 L-24.5 -12.7 -25.3 -13.85 -25.85 -15.2 Q-26.7 -18.25 -26.15 -21.35 L-25.3 -21.6 Q-21.75 -21.35 -19.5 -23.45 L-19.45 -24.0 -19.4 -25.15 -19.95 -26.05 Q-20.8 -27.5 -21.05 -29.2 L-22.5 -30.65 Q-22.45 -31.25 -22.7 -31.8 -23.4 -33.15 -23.25 -34.7 L-22.95 -34.95 -18.35 -39.6 -18.3 -40.15 -18.25 -41.3 -20.95 -43.9 -20.95 -44.5 -20.85 -45.05 -20.6 -45.35 -19.15 -47.65 -19.05 -47.95 -18.95 -48.5 -18.65 -48.8 Q-17.75 -49.45 -17.9 -50.55 -21.65 -52.45 -24.7 -49.3 L-25.4 -47.35 -26.8 -42.85 Q-28.05 -43.4 -28.9 -44.5 L-29.3 -44.85 Q-32.35 -46.05 -34.9 -43.45 -36.35 -42.0 -37.5 -42.15 -38.05 -44.95 -37.95 -47.95 -37.8 -51.25 -37.95 -54.55 -39.6 -56.45 -41.5 -56.4 L-41.15 -57.0 -40.95 -57.85 -40.25 -58.4 Q-39.55 -60.2 -38.0 -61.35 -34.35 -64.1 -34.0 -68.2 L-35.95 -69.75 -36.05 -70.0 Q-36.45 -70.85 -37.1 -71.45 L-37.1 -71.75 -37.0 -72.35 Q-32.45 -74.3 -27.4 -73.85 -26.9 -75.2 -27.2 -76.7 -27.85 -79.7 -27.85 -82.8 L-24.6 -82.0 Q-20.3 -80.35 -16.15 -80.9 -15.5 -81.8 -15.3 -82.9 L-14.5 -88.35 -10.7 -88.0 -10.4 -87.75 -9.9 -87.2 -9.85 -86.9 -9.7 -86.35 -8.85 -85.85 -8.5 -86.0 -8.1 -86.25 -8.0 -86.55 -7.9 -86.85 -7.55 -86.75 -6.0 -86.85 -5.8 -87.05 -5.6 -87.6 -5.7 -87.9 -6.35 -88.75 -4.8 -90.5 -4.8 -91.65 Q-4.65 -94.15 -6.65 -95.95 L-7.1 -96.25 Q-9.3 -97.95 -10.2 -100.55 L-10.0 -100.85 -9.55 -101.45 -0.8 -101.45 Q0.15 -101.45 0.55 -102.4 L0.55 -103.55 0.55 -105.85 0.35 -106.15" fill="#ffff00" fill-opacity="0.5019608" fill-rule="evenodd" stroke="none"/>
  </g>
</svg>
