<?xml version="1.0" encoding="UTF-8" standalone="no"?>
<svg xmlns:ffdec="https://www.free-decompiler.com/flash" xmlns:xlink="http://www.w3.org/1999/xlink" ffdec:objectType="shape" height="104.05px" width="64.15px" xmlns="http://www.w3.org/2000/svg">
  <g transform="matrix(1.0, 0.0, 0.0, 1.0, 33.75, 99.35)">
    <path d="M24.0 -87.55 Q24.0 -82.65 20.55 -79.2 17.65 -76.3 13.7 -75.8 10.85 -77.05 7.65 -77.25 L7.45 -77.4 Q6.3 -78.4 4.8 -78.35 L3.85 -79.2 3.55 -79.5 2.45 -76.65 2.9 -75.15 3.7 -72.8 Q4.45 -70.95 4.8 -69.05 L10.05 -56.6 10.7 -55.6 Q16.6 -56.5 22.1 -58.85 23.4 -63.85 28.4 -61.75 30.05 -61.05 30.3 -59.4 31.15 -54.5 26.0 -53.3 L15.4 -50.25 Q10.4 -48.65 6.3 -50.9 5.75 -51.2 5.5 -51.8 L-0.05 -64.7 -0.75 -66.95 -4.5 -53.5 Q-5.35 -50.0 -5.7 -46.35 -5.85 -45.2 -6.3 -44.05 L10.0 -34.7 Q14.25 -32.25 18.1 -29.45 L18.45 -28.8 Q18.8 -24.45 16.35 -20.6 13.75 -16.55 12.8 -11.8 L10.95 -3.15 19.75 -1.1 Q22.5 -0.55 21.8 2.15 20.9 5.5 17.4 4.45 15.3 3.8 13.05 3.65 9.6 3.45 6.45 2.2 5.6 1.9 5.35 1.0 4.4 -3.0 5.4 -7.05 6.9 -13.0 8.8 -18.8 10.1 -22.6 12.0 -26.0 6.4 -30.7 -0.35 -34.2 -2.15 -34.7 -3.75 -35.4 -2.55 -29.3 -2.35 -23.05 -2.3 -19.95 -4.5 -17.6 -6.75 -15.25 -8.5 -12.5 L-14.3 -3.75 Q-8.7 -3.5 -3.45 -1.15 -2.75 -0.85 -2.65 0.0 -2.3 4.3 -6.65 3.25 -11.4 2.05 -16.3 2.4 -19.6 2.65 -21.45 0.3 -22.3 -0.7 -21.85 -2.0 -20.95 -4.65 -19.35 -7.0 L-7.85 -23.7 -10.8 -40.45 -11.75 -41.5 Q-12.15 -42.0 -12.1 -42.75 -11.65 -52.35 -8.85 -61.55 L-6.55 -69.55 -4.75 -74.9 -6.2 -74.4 Q-16.85 -70.15 -23.7 -61.15 L-25.7 -58.85 Q-23.0 -54.0 -27.25 -50.75 -27.75 -50.35 -28.4 -50.35 -34.35 -50.3 -33.7 -56.05 -33.25 -60.05 -30.45 -62.9 L-27.15 -66.45 Q-17.3 -77.65 -3.05 -81.8 L-2.15 -81.95 Q-1.95 -82.6 -1.4 -83.05 -1.05 -85.65 0.4 -87.45 L0.4 -87.55 Q0.4 -92.45 3.85 -95.9 7.3 -99.35 12.2 -99.35 17.1 -99.35 20.55 -95.9 24.0 -92.45 24.0 -87.55" fill="#000000" fill-rule="evenodd" stroke="none"/>
  </g>
</svg>
