<?xml version="1.0" encoding="UTF-8" standalone="no"?>
<svg xmlns:ffdec="https://www.free-decompiler.com/flash" xmlns:xlink="http://www.w3.org/1999/xlink" ffdec:objectType="shape" height="129.3px" width="73.4px" xmlns="http://www.w3.org/2000/svg">
  <g transform="matrix(1.0, 0.0, 0.0, 1.0, 29.2, 127.15)">
    <path d="M6.05 -123.7 Q9.5 -127.15 14.4 -127.15 19.3 -127.15 22.75 -123.7 26.2 -120.25 26.2 -115.35 26.2 -110.45 22.75 -107.0 20.1 -104.35 16.6 -103.7 L15.1 -104.15 Q11.95 -103.6 9.2 -104.85 L8.35 -103.0 Q9.3 -102.4 10.05 -101.2 10.8 -100.0 11.8 -99.05 17.9 -93.3 22.65 -86.6 L23.05 -86.6 36.95 -100.15 Q35.25 -103.05 37.55 -105.3 38.45 -106.2 39.55 -106.2 45.05 -106.05 44.05 -100.8 43.5 -98.1 41.5 -96.25 34.9 -90.15 28.7 -83.75 26.2 -79.95 22.05 -79.65 21.0 -79.6 20.3 -80.45 13.9 -88.4 6.45 -95.55 6.15 -93.85 6.2 -92.0 L5.55 -93.65 Q5.25 -92.2 5.1 -90.65 4.5 -85.1 3.3 -79.7 1.55 -71.8 1.35 -63.45 2.05 -62.4 1.85 -60.8 10.9 -57.85 20.1 -55.1 24.25 -53.85 28.05 -51.8 29.55 -51.05 29.6 -49.9 29.9 -48.8 29.15 -47.2 L29.0 -46.9 Q28.7 -36.55 30.55 -26.35 L31.0 -24.35 38.2 -24.1 Q42.6 -23.85 41.55 -20.05 41.2 -18.65 39.75 -18.6 L28.45 -19.05 27.85 -19.05 Q26.7 -19.0 26.2 -19.9 L26.1 -20.1 26.05 -20.15 Q24.75 -23.1 24.8 -26.45 L24.75 -27.3 23.05 -38.2 Q22.35 -42.85 23.2 -47.35 L3.65 -53.85 Q2.35 -54.25 1.2 -54.8 0.9 -45.25 1.5 -35.75 L1.5 -34.9 1.5 -34.85 1.45 -33.7 Q1.2 -32.55 0.5 -32.0 L0.35 -31.85 -3.0 -27.95 Q-4.8 -26.0 -6.15 -23.65 -11.6 -14.5 -19.1 -6.85 L-12.6 -3.1 Q-10.2 -1.7 -11.7 0.6 -13.15 2.85 -15.9 1.85 -22.0 -0.45 -25.8 -5.4 -26.4 -6.2 -26.25 -7.05 -26.3 -8.2 -25.1 -9.3 -16.95 -17.1 -11.5 -26.6 -9.25 -30.5 -6.1 -33.75 L-4.55 -35.15 Q-5.05 -38.55 -4.95 -42.0 L-4.05 -61.55 Q-4.85 -63.15 -4.5 -64.9 -4.0 -67.55 -3.9 -70.3 -3.65 -75.85 -2.45 -81.25 -1.3 -86.55 -0.6 -91.9 L-0.1 -95.25 Q-3.9 -94.05 -7.8 -93.15 L-15.6 -91.15 -16.4 -90.9 Q-20.4 -83.65 -22.5 -75.7 -17.5 -72.05 -21.7 -67.4 L-22.9 -66.75 Q-28.55 -65.65 -29.1 -70.75 -29.45 -74.45 -28.35 -77.95 -25.7 -86.5 -21.3 -94.2 L-20.45 -95.2 -19.2 -96.05 Q-14.1 -98.2 -8.7 -99.35 -3.45 -100.45 1.15 -102.4 L1.55 -102.45 Q2.6 -105.95 4.55 -108.8 2.6 -111.65 2.6 -115.35 2.6 -120.25 6.05 -123.7 M7.7 -88.75 L7.7 -88.4 7.5 -88.95 7.7 -88.75" fill="#000000" fill-rule="evenodd" stroke="none"/>
  </g>
</svg>
