<?xml version="1.0" encoding="UTF-8" standalone="no"?>
<svg xmlns:ffdec="https://www.free-decompiler.com/flash" xmlns:xlink="http://www.w3.org/1999/xlink" ffdec:objectType="shape" height="107.95px" width="91.05px" xmlns="http://www.w3.org/2000/svg">
  <g transform="matrix(1.0, 0.0, 0.0, 1.0, 48.05, 124.7)">
    <path d="M4.5 -121.25 Q7.95 -124.7 12.85 -124.7 17.75 -124.7 21.2 -121.25 24.65 -117.8 24.65 -112.9 24.65 -108.0 21.2 -104.55 18.55 -101.9 15.05 -101.25 L14.75 -101.35 Q14.1 -100.95 13.25 -100.75 10.15 -100.0 7.85 -101.45 L7.0 -99.75 7.6 -99.35 11.45 -96.1 22.05 -86.6 22.55 -86.6 Q27.25 -91.3 32.4 -95.6 L34.3 -97.25 Q35.7 -98.55 36.4 -100.25 33.65 -103.8 37.1 -106.4 37.75 -106.95 38.4 -106.95 43.65 -106.55 42.9 -101.25 42.6 -98.95 41.2 -97.0 35.35 -88.95 27.45 -82.8 L25.85 -81.1 Q22.7 -76.95 18.75 -81.2 14.85 -85.4 10.4 -89.0 7.35 -91.45 4.65 -94.5 L3.65 -92.1 Q2.7 -89.0 1.55 -86.05 L0.95 -84.9 Q-1.95 -75.55 -0.45 -65.6 -0.05 -62.95 -0.1 -60.35 9.5 -55.9 20.1 -53.6 L25.8 -52.35 26.1 -52.4 26.65 -52.15 27.4 -52.0 Q30.15 -51.4 29.3 -48.85 29.55 -47.65 29.3 -46.05 L28.8 -42.65 Q28.4 -39.6 27.45 -36.85 26.7 -30.55 25.2 -24.5 25.1 -23.9 25.15 -23.3 L34.75 -23.2 Q35.95 -23.2 36.65 -22.1 38.55 -19.0 35.05 -17.85 L32.35 -17.4 29.5 -17.1 Q24.45 -16.2 19.85 -17.6 19.2 -17.75 19.05 -18.5 18.4 -21.35 19.1 -24.2 20.85 -31.15 21.65 -38.3 21.75 -39.3 22.45 -40.05 23.05 -43.35 23.3 -46.75 13.45 -48.45 3.9 -51.65 1.05 -52.65 -1.15 -54.5 L-4.6 -45.5 Q-6.45 -40.15 -9.05 -35.25 -9.45 -34.55 -10.2 -34.5 -17.35 -33.85 -24.25 -35.7 L-28.25 -36.45 -37.55 -36.85 Q-40.7 -31.85 -43.8 -27.2 -44.0 -26.95 -44.4 -26.9 -48.45 -26.5 -48.0 -30.4 -47.75 -32.35 -46.65 -33.9 -44.5 -37.0 -42.75 -40.4 -41.9 -42.05 -40.15 -42.8 -38.5 -43.5 -36.75 -43.25 L-28.25 -42.3 Q-22.35 -41.9 -16.55 -40.7 L-13.0 -40.3 -11.6 -44.35 -11.05 -45.2 Q-8.95 -52.2 -5.85 -58.75 -7.2 -69.6 -6.15 -80.55 L-5.2 -85.25 Q-4.5 -87.65 -3.4 -89.8 L-1.55 -95.05 -1.95 -95.45 Q-8.35 -97.05 -15.0 -97.1 L-16.35 -97.25 -18.35 -97.55 Q-20.9 -95.0 -22.8 -91.95 -23.5 -90.85 -24.45 -89.9 -27.6 -87.05 -28.35 -82.85 -25.9 -78.65 -29.95 -76.65 L-32.4 -76.5 Q-36.0 -77.85 -35.0 -81.7 -33.95 -85.55 -32.15 -89.1 -30.3 -92.75 -27.55 -96.05 L-24.7 -99.6 Q-22.35 -102.6 -19.25 -103.9 -11.45 -102.2 -3.5 -101.65 L-0.55 -101.25 0.75 -100.9 2.1 -103.95 2.9 -103.95 Q2.9 -104.75 3.55 -105.6 1.05 -108.75 1.05 -112.9 1.05 -117.8 4.5 -121.25" fill="#000000" fill-rule="evenodd" stroke="none"/>
  </g>
</svg>
