<?xml version="1.0" encoding="UTF-8" standalone="no"?>
<svg xmlns:ffdec="https://www.free-decompiler.com/flash" xmlns:xlink="http://www.w3.org/1999/xlink" ffdec:objectType="shape" height="139.75px" width="108.05px" xmlns="http://www.w3.org/2000/svg">
  <g transform="matrix(1.0, 0.0, 0.0, 1.0, 43.85, 140.7)">
    <path d="M36.35 -129.85 L36.35 -129.35 36.2 -128.2 35.75 -127.55 34.6 -124.2 Q33.6 -121.1 34.05 -117.85 36.7 -116.25 40.0 -116.5 L40.45 -115.7 41.25 -112.55 Q41.65 -111.55 42.6 -111.55 47.6 -111.5 51.65 -114.55 51.25 -112.15 51.2 -109.65 51.1 -106.3 51.65 -103.05 L52.65 -101.85 56.35 -97.85 49.7 -93.75 Q49.6 -91.35 49.95 -89.1 50.5 -85.5 51.95 -82.2 L48.1 -82.8 Q44.4 -83.8 42.05 -81.45 L42.05 -81.15 Q42.15 -80.65 41.85 -80.3 L40.9 -79.4 40.9 -78.85 40.9 -77.7 Q40.4 -77.05 40.4 -76.25 40.3 -74.1 39.75 -72.3 L38.55 -72.85 Q37.3 -73.25 36.3 -73.95 33.45 -75.95 32.05 -73.3 L31.95 -72.45 31.55 -69.8 31.3 -69.55 31.3 -69.25 31.2 -68.4 Q29.6 -68.5 28.3 -69.2 25.75 -70.55 24.0 -68.75 L23.85 -66.75 Q23.45 -64.15 21.5 -62.4 L21.3 -62.1 21.1 -61.55 20.6 -60.95 Q19.9 -59.9 20.25 -58.7 L20.55 -58.45 Q26.1 -54.9 32.35 -52.7 32.9 -52.0 33.9 -51.95 L34.0 -51.85 34.65 -51.1 32.8 -48.8 32.6 -47.55 Q31.8 -45.85 32.05 -43.9 32.65 -42.85 33.9 -42.75 L37.05 -40.6 37.0 -37.45 Q36.95 -35.05 37.6 -32.85 39.35 -29.8 41.9 -31.85 45.4 -34.7 49.35 -34.3 49.15 -32.5 49.65 -30.8 L50.5 -26.2 Q51.1 -25.45 51.95 -25.05 57.4 -22.45 63.25 -20.85 L63.35 -20.75 64.2 -19.95 Q62.5 -18.9 60.95 -17.65 58.6 -17.5 57.4 -15.55 57.4 -14.4 57.7 -13.3 58.25 -11.15 59.7 -9.2 L53.4 -9.05 Q52.0 -8.85 50.95 -7.8 L50.8 -7.25 Q50.4 -6.4 50.5 -5.45 L50.3 -5.2 50.1 -4.9 50.1 -4.05 50.0 -1.25 Q45.1 -3.6 40.35 -6.25 L39.0 -6.3 Q36.45 -4.9 35.3 -2.0 L34.15 -0.95 Q32.85 -1.5 31.9 -2.75 L25.35 -10.2 13.25 -9.7 13.2 -10.0 13.35 -11.15 13.95 -12.35 14.75 -16.3 14.25 -16.65 2.45 -18.15 Q2.9 -18.8 2.95 -19.6 3.05 -21.7 2.45 -23.6 2.15 -24.25 1.5 -24.4 L1.15 -24.25 Q-2.1 -22.5 -4.55 -19.8 -7.85 -20.4 -10.4 -22.95 -10.6 -23.5 -11.1 -23.55 -14.15 -23.85 -14.65 -20.1 -15.25 -15.4 -17.5 -11.45 L-18.2 -11.45 -19.75 -13.6 -23.45 -18.55 Q-23.65 -19.65 -24.3 -20.6 -25.0 -21.55 -26.05 -21.1 -30.35 -19.25 -34.0 -16.3 -33.95 -18.35 -33.55 -20.25 -33.0 -22.6 -33.25 -25.15 -33.65 -25.8 -34.3 -26.1 -38.9 -28.15 -43.8 -29.4 -44.0 -29.9 -43.45 -30.25 -39.65 -32.45 -36.8 -35.7 -36.5 -38.1 -39.0 -39.25 -41.4 -40.4 -42.65 -41.75 -40.2 -43.75 -36.9 -43.8 -31.95 -43.9 -27.95 -46.1 -27.8 -46.5 -28.0 -46.9 -28.5 -48.3 -27.95 -49.55 -25.8 -50.0 -24.05 -48.6 -21.5 -46.6 -18.85 -47.05 L-18.75 -47.65 -18.65 -49.95 -18.5 -50.25 -18.25 -50.8 -15.95 -50.7 Q-13.3 -49.55 -11.15 -50.9 L-11.05 -51.5 Q-10.9 -52.65 -11.05 -53.8 -12.65 -55.55 -15.1 -56.0 -17.05 -57.6 -19.4 -58.3 L-19.45 -58.35 -20.2 -59.15 -20.2 -60.3 -20.2 -63.2 -23.15 -63.15 Q-27.05 -59.5 -31.7 -60.2 L-31.75 -61.1 -32.1 -63.95 -32.6 -64.25 -42.95 -64.15 Q-41.55 -68.05 -38.9 -71.35 -37.3 -73.35 -36.55 -75.65 -36.15 -76.8 -36.85 -77.7 -38.65 -79.8 -41.05 -80.65 L-40.9 -80.95 -40.55 -81.55 Q-39.95 -81.6 -39.6 -82.0 L-38.45 -83.7 -31.8 -90.65 -31.7 -91.25 -30.95 -93.55 -31.0 -93.8 -31.45 -95.25 Q-32.3 -96.5 -33.75 -96.9 -32.35 -99.1 -30.2 -100.65 L-28.65 -101.05 -28.5 -101.25 -28.15 -101.8 Q-27.45 -102.05 -27.2 -102.65 L-27.1 -103.55 Q-27.25 -105.75 -28.65 -107.55 -21.7 -107.3 -15.1 -105.15 -13.65 -103.95 -12.05 -104.6 -11.35 -105.5 -11.1 -106.55 L-10.5 -110.65 -9.05 -110.35 -5.55 -108.3 -1.35 -108.4 -1.65 -109.0 Q-2.8 -111.3 -4.75 -112.85 L-4.8 -113.15 Q-4.8 -113.6 -5.1 -114.0 -6.2 -114.9 -6.75 -116.3 L-6.05 -117.15 -1.65 -118.05 Q-1.1 -119.0 -1.7 -119.95 L-2.45 -121.05 Q-4.3 -123.4 -5.6 -126.1 -2.8 -126.85 -0.7 -128.7 L-0.65 -129.25 -0.6 -131.55 -0.8 -131.85 -2.5 -134.45 3.7 -133.8 Q5.75 -132.0 8.05 -133.1 8.35 -134.1 8.25 -135.1 8.05 -137.25 8.6 -139.15 L8.9 -139.45 10.35 -139.55 Q11.75 -138.8 13.35 -138.75 14.5 -138.0 15.85 -137.5 21.35 -135.4 23.8 -140.7 26.45 -138.4 28.1 -134.6 30.5 -128.9 36.35 -129.85" fill="#ffff00" fill-opacity="0.5019608" fill-rule="evenodd" stroke="none"/>
  </g>
</svg>
