<?xml version="1.0" encoding="UTF-8" standalone="no"?>
<svg xmlns:ffdec="https://www.free-decompiler.com/flash" xmlns:xlink="http://www.w3.org/1999/xlink" ffdec:objectType="shape" height="114.75px" width="77.2px" xmlns="http://www.w3.org/2000/svg">
  <g transform="matrix(1.0, 0.0, 0.0, 1.0, 30.8, 127.9)">
    <path d="M14.4 -127.9 Q19.3 -127.9 22.75 -124.45 26.2 -121.0 26.2 -116.1 26.2 -111.2 22.75 -107.75 20.5 -105.5 17.6 -104.7 16.8 -104.2 15.55 -103.9 12.05 -103.1 9.05 -104.7 L8.35 -105.1 7.0 -101.8 6.7 -100.75 7.25 -100.25 Q6.55 -99.65 6.25 -98.7 7.0 -98.5 7.7 -97.8 10.75 -94.7 12.65 -90.85 L14.1 -89.65 14.65 -88.8 19.85 -84.2 33.1 -94.15 Q34.4 -95.1 35.1 -96.55 L35.5 -97.2 Q33.3 -101.05 37.1 -103.45 L38.0 -103.9 Q42.9 -103.25 41.85 -98.2 40.2 -90.35 33.1 -86.2 27.25 -82.75 21.75 -78.6 18.7 -76.3 15.9 -79.3 L9.6 -85.95 Q6.9 -88.75 4.65 -91.95 L4.15 -92.6 2.25 -85.85 Q1.2 -82.0 0.85 -77.9 L0.6 -75.85 Q-0.15 -71.0 -0.25 -66.05 L-0.3 -64.65 Q1.9 -63.65 1.0 -60.75 L0.95 -60.5 1.2 -59.6 4.15 -57.35 Q9.55 -52.7 15.35 -48.75 L22.1 -44.1 Q24.9 -42.95 25.05 -39.45 L25.3 -36.6 Q26.55 -28.65 28.35 -20.75 L28.65 -19.25 32.9 -20.05 37.25 -20.9 44.3 -20.5 Q46.3 -20.3 46.4 -18.3 46.6 -15.55 43.75 -15.4 36.2 -15.0 28.75 -13.35 26.35 -12.85 25.15 -13.65 23.65 -14.15 23.15 -16.2 L20.75 -27.05 Q19.4 -33.35 19.05 -39.85 14.05 -42.55 9.45 -45.8 L2.75 -50.85 Q3.3 -46.8 3.5 -42.65 3.55 -41.4 3.75 -40.05 4.7 -38.5 4.3 -35.95 4.2 -35.4 4.35 -34.8 L4.4 -34.65 4.5 -33.0 Q4.25 -31.8 3.1 -31.4 1.55 -30.35 -0.6 -30.9 -7.2 -32.55 -13.9 -33.4 L-17.75 -34.1 -21.85 -35.2 -22.05 -34.6 Q-23.3 -31.2 -23.95 -27.5 -24.8 -22.8 -28.8 -25.1 -29.95 -25.8 -29.8 -27.15 -29.1 -32.8 -27.25 -38.1 -27.75 -41.15 -24.6 -41.65 -17.45 -40.85 -10.5 -39.05 L-4.1 -37.75 -1.65 -37.45 -1.6 -38.15 -1.9 -38.9 Q-3.2 -43.6 -3.15 -48.7 -3.15 -50.85 -3.6 -53.0 L-4.25 -56.8 -4.5 -57.0 -5.4 -58.25 Q-6.6 -59.1 -6.6 -61.15 -6.6 -66.9 -5.8 -72.35 L-4.45 -79.3 Q-4.35 -87.7 -1.65 -95.4 -9.9 -95.75 -18.0 -93.7 L-18.7 -93.55 -19.35 -91.95 Q-21.2 -88.3 -22.5 -84.5 -23.05 -82.0 -23.9 -79.55 L-24.05 -78.55 Q-19.3 -75.55 -22.2 -70.9 -22.9 -69.75 -24.2 -69.55 -29.2 -68.8 -30.6 -72.8 -30.95 -73.85 -30.75 -74.95 -29.4 -83.25 -26.15 -91.0 -25.25 -93.2 -24.65 -95.5 L-24.25 -96.85 -23.9 -97.55 Q-22.75 -99.7 -20.05 -100.0 L-8.45 -101.2 0.55 -100.95 Q1.75 -105.8 4.25 -110.05 2.6 -112.75 2.6 -116.1 2.6 -121.0 6.05 -124.45 9.5 -127.9 14.4 -127.9" fill="#000000" fill-rule="evenodd" stroke="none"/>
  </g>
</svg>
