<?xml version="1.0" encoding="UTF-8" standalone="no"?>
<svg xmlns:ffdec="https://www.free-decompiler.com/flash" xmlns:xlink="http://www.w3.org/1999/xlink" ffdec:objectType="shape" height="128.7px" width="66.5px" xmlns="http://www.w3.org/2000/svg">
  <g transform="matrix(1.0, 0.0, 0.0, 1.0, 28.75, 126.7)">
    <path d="M5.25 -123.25 Q8.7 -126.7 13.6 -126.7 18.5 -126.7 21.95 -123.25 25.4 -119.8 25.4 -114.9 25.4 -110.0 21.95 -106.55 19.3 -103.9 15.8 -103.25 L14.7 -103.55 Q11.95 -102.45 8.65 -104.15 L8.05 -102.8 6.95 -100.15 7.0 -100.1 6.5 -99.75 7.2 -97.7 9.95 -90.85 11.0 -88.15 Q12.25 -85.2 12.8 -82.05 L13.4 -80.95 Q21.2 -83.8 28.55 -87.5 28.2 -89.9 29.6 -91.75 30.5 -92.95 31.8 -93.0 37.05 -93.15 36.35 -88.1 35.85 -84.15 31.95 -82.2 22.2 -77.4 11.75 -74.45 10.9 -74.2 10.25 -74.85 L10.1 -75.0 Q7.75 -76.3 7.3 -79.15 6.75 -82.2 5.8 -85.2 L4.25 -89.35 Q3.45 -85.3 3.4 -81.15 L3.15 -81.85 Q2.65 -75.05 2.6 -68.1 L2.45 -64.95 2.35 -64.3 2.35 -64.15 2.0 -60.55 2.9 -59.2 Q4.5 -57.85 5.55 -55.7 6.75 -53.15 8.35 -50.8 10.1 -48.3 12.35 -46.15 14.95 -43.55 16.9 -40.45 19.7 -36.05 20.5 -30.85 L21.35 -26.15 22.45 -21.6 Q23.45 -18.4 23.85 -15.0 L24.45 -9.75 Q24.65 -7.3 25.25 -5.0 L36.5 -3.2 Q37.3 -3.05 37.55 -2.3 38.45 0.6 35.45 1.4 L28.85 1.85 Q24.5 1.25 20.75 -0.55 19.7 -1.1 19.55 -2.25 L17.35 -17.25 16.05 -23.35 13.25 -33.3 Q12.35 -36.35 10.4 -38.85 L4.05 -47.0 Q5.25 -42.65 5.8 -38.05 5.9 -37.15 6.3 -36.35 8.2 -32.3 5.35 -29.6 4.6 -28.85 3.45 -28.9 -6.9 -29.5 -16.35 -33.4 -21.25 -29.35 -24.15 -24.05 -24.5 -23.45 -25.2 -23.45 -30.0 -23.35 -28.35 -27.75 -27.7 -29.5 -26.55 -30.95 -23.1 -35.35 -19.0 -39.2 L-18.25 -39.5 Q-14.05 -39.65 -10.25 -37.7 -8.6 -36.85 -6.75 -36.3 -3.45 -35.25 0.05 -35.6 L-3.45 -55.95 -3.5 -58.4 -3.55 -58.85 -3.5 -61.15 -3.6 -61.2 Q-5.95 -61.95 -8.05 -63.4 -9.6 -64.5 -11.0 -65.95 -14.7 -69.75 -16.7 -74.7 -18.3 -78.55 -19.3 -82.6 -20.2 -86.35 -17.75 -88.65 -16.55 -89.85 -15.05 -90.5 -7.65 -93.85 -0.4 -97.15 L-0.35 -97.45 Q0.35 -100.25 1.5 -102.8 L3.25 -106.1 Q3.3 -107.4 3.65 -108.5 1.8 -111.35 1.8 -114.9 1.8 -119.8 5.25 -123.25 M-10.3 -76.25 Q-9.5 -75.05 -9.45 -73.55 -8.45 -71.75 -6.8 -70.4 -6.4 -70.05 -6.25 -69.5 -4.75 -69.7 -3.35 -69.5 L-3.25 -75.55 Q-3.15 -82.95 -1.9 -90.1 L-13.35 -84.5 Q-12.85 -80.2 -10.3 -76.25" fill="#000000" fill-rule="evenodd" stroke="none"/>
  </g>
</svg>
