<?xml version="1.0" encoding="UTF-8" standalone="no"?>
<svg xmlns:ffdec="https://www.free-decompiler.com/flash" xmlns:xlink="http://www.w3.org/1999/xlink" ffdec:objectType="shape" height="156.65px" width="100.2px" xmlns="http://www.w3.org/2000/svg">
  <g transform="matrix(1.0, 0.0, 0.0, 1.0, 27.2, 140.5)">
    <path d="M20.45 -132.7 Q21.2 -131.75 22.3 -131.2 24.65 -130.2 27.4 -131.7 30.75 -133.45 33.65 -133.05 L33.5 -131.8 Q32.5 -127.65 31.9 -123.4 L31.7 -123.1 31.5 -122.75 31.5 -122.1 31.6 -121.45 32.6 -121.15 37.05 -120.6 37.05 -119.65 Q36.95 -117.55 37.15 -115.5 37.65 -115.2 38.1 -115.25 42.9 -115.4 43.45 -120.3 L43.8 -120.6 44.65 -121.9 45.95 -121.05 46.0 -120.7 46.05 -120.4 48.55 -117.05 Q49.05 -116.45 49.7 -116.25 53.25 -115.05 56.65 -118.05 57.15 -114.1 58.25 -110.3 58.65 -108.95 60.0 -108.8 L71.4 -108.0 69.05 -104.8 Q68.0 -104.45 67.45 -103.5 L67.45 -102.85 67.45 -101.55 Q69.6 -98.15 72.15 -94.85 L72.2 -94.2 72.35 -93.55 72.75 -93.2 73.0 -92.9 Q70.05 -93.65 68.3 -91.6 L68.3 -89.7 Q68.15 -84.45 69.15 -79.4 L60.45 -83.7 Q56.15 -85.65 51.8 -85.0 51.5 -84.55 51.5 -84.0 51.6 -82.35 51.05 -80.8 L50.75 -80.5 50.7 -79.55 50.3 -75.05 49.95 -74.35 49.8 -73.85 48.85 -74.5 Q44.3 -79.65 38.55 -83.25 37.35 -82.85 36.6 -81.65 L36.6 -81.0 36.5 -80.4 36.2 -80.05 35.85 -79.75 35.7 -79.15 Q35.1 -78.05 34.8 -76.85 L34.4 -76.5 34.05 -76.2 34.0 -75.9 33.75 -75.25 Q32.35 -74.05 31.5 -72.35 L31.05 -72.2 30.75 -72.25 Q29.0 -73.5 27.8 -75.35 25.6 -78.9 22.3 -78.55 L22.1 -77.9 21.65 -75.05 Q19.05 -73.8 16.1 -73.2 L16.05 -72.55 16.2 -70.95 22.4 -64.2 22.2 -63.55 22.05 -61.35 Q25.85 -58.65 30.25 -57.1 L29.65 -54.55 29.0 -53.7 29.0 -53.4 29.0 -51.1 Q29.15 -50.8 29.45 -50.65 32.7 -48.65 36.55 -47.25 L33.8 -44.1 Q32.5 -43.4 31.65 -42.15 L31.65 -41.85 31.65 -40.45 34.95 -34.95 Q32.45 -35.35 31.5 -33.3 30.05 -32.5 29.95 -30.85 L29.35 -30.25 29.25 -28.8 27.85 -26.5 Q27.85 -25.85 27.45 -25.35 23.5 -25.6 20.55 -24.0 20.7 -20.2 22.55 -16.8 23.55 -15.6 23.2 -13.9 22.8 -13.05 21.85 -13.1 18.1 -13.2 16.3 -10.35 L16.4 -8.35 Q18.65 -7.1 21.2 -6.25 L22.85 -4.05 21.3 -1.75 Q21.3 -1.0 21.45 -0.35 22.05 2.05 23.7 4.2 L27.45 8.95 23.4 8.7 Q20.15 7.7 17.85 9.6 17.45 12.75 15.55 15.35 L15.45 15.95 15.05 16.15 Q10.35 13.65 5.9 10.6 L1.8 10.7 -3.3 14.9 Q-3.55 14.25 -4.05 13.75 -3.85 12.25 -4.85 11.15 -4.65 9.7 -5.35 8.5 -5.65 8.0 -6.1 8.0 -11.4 7.55 -16.35 7.95 -16.45 6.15 -15.85 4.5 L-15.2 3.65 Q-14.95 1.05 -13.45 -1.25 -11.45 -2.9 -11.75 -5.55 L-12.25 -5.9 -19.4 -6.8 -19.4 -7.1 -19.4 -8.25 Q-18.3 -9.5 -18.2 -11.15 -17.25 -13.0 -17.1 -15.15 L-17.65 -15.5 -27.2 -17.4 Q-26.2 -18.5 -25.75 -19.95 -24.55 -20.8 -23.45 -21.75 L-16.35 -28.05 Q-16.6 -29.05 -17.3 -29.75 -19.75 -32.3 -21.8 -34.95 -16.3 -37.4 -10.4 -38.2 -10.15 -38.75 -10.35 -39.3 -11.75 -42.6 -13.65 -45.7 -10.4 -46.6 -7.3 -47.85 -7.45 -52.05 -12.2 -53.7 -10.2 -54.7 -8.65 -56.3 L-8.65 -56.55 -8.65 -57.15 -6.7 -59.5 Q-6.55 -60.15 -6.9 -60.55 -9.5 -63.4 -12.6 -65.95 -9.8 -68.5 -7.9 -71.7 -7.35 -72.6 -7.8 -73.45 -10.5 -78.2 -15.4 -81.15 L-12.8 -82.4 -12.7 -82.75 -12.4 -83.4 Q-9.7 -84.5 -7.55 -86.5 L-7.5 -87.1 -7.55 -89.05 -7.8 -89.35 -9.8 -92.25 -10.8 -92.9 -12.6 -95.45 Q-8.95 -98.0 -5.55 -100.8 L-5.3 -101.8 -5.45 -104.05 -10.7 -109.8 -10.55 -110.15 -10.5 -110.45 -10.45 -110.75 Q-8.55 -112.45 -6.95 -114.4 L-6.6 -115.05 Q-5.95 -116.4 -6.2 -117.95 L-6.4 -118.25 -6.6 -118.6 -6.65 -119.2 -6.7 -119.85 -6.95 -120.2 -7.45 -120.85 -7.45 -121.15 -7.45 -121.45 -7.45 -121.8 -7.7 -122.05 Q-8.3 -122.5 -8.3 -123.1 L-8.3 -123.25 -2.55 -124.05 Q-1.3 -124.2 -0.6 -125.2 L-0.6 -125.55 -0.6 -125.85 -0.4 -126.2 -0.2 -126.5 -0.2 -128.1 -0.5 -136.05 Q3.45 -133.25 7.6 -130.75 L8.25 -130.7 Q10.45 -132.9 11.35 -136.35 L11.35 -136.65 11.35 -137.0 11.7 -137.3 Q12.2 -137.7 12.35 -138.25 14.05 -140.65 16.3 -140.5 L16.5 -139.9 16.95 -138.25 Q18.45 -135.4 20.45 -132.7" fill="#ffff00" fill-opacity="0.5019608" fill-rule="evenodd" stroke="none"/>
  </g>
</svg>
