<?xml version="1.0" encoding="UTF-8" standalone="no"?>
<svg xmlns:ffdec="https://www.free-decompiler.com/flash" xmlns:xlink="http://www.w3.org/1999/xlink" ffdec:objectType="shape" height="128.0px" width="71.0px" xmlns="http://www.w3.org/2000/svg">
  <g transform="matrix(1.0, 0.0, 0.0, 1.0, 12.35, 125.75)">
    <path d="M5.45 -122.3 Q8.9 -125.75 13.8 -125.75 18.7 -125.75 22.15 -122.3 25.6 -118.85 25.6 -113.95 25.6 -109.05 22.15 -105.6 19.5 -102.95 16.0 -102.3 L15.35 -102.5 14.35 -102.3 13.0 -102.15 12.45 -102.45 11.25 -103.05 10.2 -101.05 14.9 -99.55 20.1 -97.8 Q25.4 -95.65 30.65 -98.25 35.95 -100.85 40.85 -103.85 L43.1 -105.5 Q45.4 -107.55 48.35 -107.55 52.25 -108.7 53.85 -105.8 55.0 -103.75 52.8 -102.55 L51.8 -102.25 Q49.75 -102.1 48.05 -100.95 49.3 -98.2 46.65 -96.8 44.55 -95.7 43.0 -97.5 40.45 -96.95 37.4 -95.3 31.5 -92.1 25.15 -91.6 L32.1 -90.6 Q38.0 -89.9 43.9 -91.5 L45.8 -92.0 Q45.55 -93.25 46.75 -94.4 47.5 -95.15 48.35 -95.15 50.8 -94.95 52.5 -93.85 L56.3 -94.9 Q57.1 -93.95 58.65 -93.2 L58.65 -92.6 58.6 -91.95 58.55 -91.6 57.55 -90.3 57.2 -89.45 55.25 -88.8 Q43.15 -84.45 30.6 -85.4 23.15 -85.95 15.8 -87.85 11.15 -89.0 7.0 -91.05 4.65 -80.95 5.15 -70.25 5.25 -68.7 5.0 -67.25 L5.05 -67.25 4.0 -58.75 3.95 -58.4 4.5 -57.8 Q7.9 -56.4 10.75 -53.8 13.1 -51.7 15.7 -50.0 19.9 -47.2 23.6 -43.75 L25.95 -41.35 Q28.05 -39.1 25.85 -36.9 24.55 -35.6 22.85 -34.8 17.95 -32.55 12.65 -31.4 13.05 -30.1 12.05 -28.15 7.1 -18.3 3.35 -7.9 L1.75 -4.25 10.9 -3.25 Q13.25 -2.85 12.9 -0.5 12.45 2.5 9.2 2.25 L-3.45 1.1 Q-6.8 0.8 -5.95 -2.3 -5.65 -3.4 -4.9 -3.95 L-4.55 -5.45 2.4 -22.15 Q3.0 -23.55 4.0 -24.65 4.7 -27.85 6.45 -30.45 L-4.75 -29.2 Q-6.05 -24.85 -7.65 -20.65 -8.0 -19.7 -9.05 -19.65 -12.6 -19.4 -12.35 -22.85 -12.0 -27.2 -10.55 -31.3 L-10.05 -32.9 Q-9.55 -34.95 -7.3 -34.95 L5.4 -35.9 Q3.7 -42.5 1.25 -48.85 -0.4 -52.55 -0.8 -56.5 -1.15 -57.2 -1.15 -58.3 L-1.15 -58.75 -0.9 -66.1 -0.85 -67.25 Q-0.55 -70.1 -0.6 -73.0 -0.85 -85.05 2.7 -96.15 4.2 -100.85 6.05 -105.35 L4.3 -105.95 4.55 -106.6 Q2.0 -109.75 2.0 -113.95 2.0 -118.85 5.45 -122.3 M8.5 -95.7 L14.1 -94.05 8.6 -96.0 8.5 -95.7 M19.1 -39.45 Q15.6 -43.45 11.15 -46.05 9.95 -46.75 8.75 -47.6 L7.85 -48.25 8.05 -47.75 Q10.15 -42.5 11.15 -37.1 14.7 -37.95 18.15 -39.15 L19.1 -39.45" fill="#000000" fill-rule="evenodd" stroke="none"/>
  </g>
</svg>
