<?xml version="1.0" encoding="UTF-8" standalone="no"?>
<svg xmlns:ffdec="https://www.free-decompiler.com/flash" xmlns:xlink="http://www.w3.org/1999/xlink" ffdec:objectType="shape" height="156.15px" width="98.4px" xmlns="http://www.w3.org/2000/svg">
  <g transform="matrix(1.0, 0.0, 0.0, 1.0, 26.9, 138.0)">
    <path d="M25.7 -136.55 Q27.25 -138.25 28.5 -137.95 L28.45 -137.3 Q27.9 -132.7 28.05 -128.0 L28.5 -127.35 28.95 -127.0 37.5 -126.4 37.5 -125.75 37.35 -120.6 37.05 -120.3 36.6 -119.65 36.6 -119.0 Q36.55 -116.6 36.75 -114.2 37.2 -113.95 37.7 -113.65 40.85 -115.25 43.8 -117.3 47.4 -114.9 49.35 -118.6 L49.5 -118.9 50.75 -122.0 Q52.15 -121.05 52.05 -119.45 L53.4 -117.45 Q54.25 -116.0 55.75 -115.75 62.6 -114.5 68.95 -116.25 67.2 -113.8 64.65 -112.4 L64.5 -112.05 64.25 -111.4 63.85 -111.05 63.6 -110.75 63.6 -110.15 63.6 -108.85 Q67.4 -106.15 70.85 -102.85 L70.9 -102.55 71.2 -101.9 Q67.95 -101.1 65.1 -99.55 L64.95 -98.9 Q64.8 -97.75 65.0 -96.65 L65.3 -96.3 65.75 -95.7 65.75 -95.35 65.75 -95.05 Q69.2 -92.8 71.5 -90.1 67.9 -89.05 65.3 -86.35 L65.3 -85.75 65.3 -84.45 65.55 -84.15 66.05 -83.5 66.2 -82.85 66.25 -82.5 66.55 -82.2 67.0 -81.55 67.05 -81.25 Q67.4 -80.0 68.3 -79.0 L68.35 -78.35 68.5 -77.7 69.6 -76.75 69.6 -76.1 Q69.8 -74.9 70.25 -74.05 65.7 -75.35 61.35 -77.05 57.6 -78.55 54.6 -76.65 L54.6 -76.3 Q55.15 -72.25 52.9 -68.95 L51.5 -69.0 Q50.55 -69.15 49.75 -69.65 45.3 -72.7 40.15 -73.95 37.15 -76.55 34.5 -75.15 L34.5 -74.8 Q34.8 -73.1 33.65 -71.9 L33.65 -71.3 33.65 -70.95 33.2 -70.65 Q29.25 -70.85 25.5 -72.1 24.05 -72.55 22.65 -73.15 19.9 -74.25 18.65 -72.45 L18.85 -71.85 19.2 -70.55 20.35 -69.25 20.35 -68.95 20.35 -68.6 20.55 -68.3 21.2 -67.0 Q20.95 -65.15 21.65 -63.5 22.05 -62.55 22.85 -62.2 L25.9 -60.85 25.9 -60.0 26.3 -59.4 Q26.6 -58.75 27.25 -58.55 33.2 -56.7 38.95 -59.05 37.15 -54.75 36.85 -50.15 36.7 -48.35 37.9 -47.15 40.85 -44.25 44.25 -41.75 40.4 -41.3 37.45 -39.1 L37.45 -38.2 37.45 -36.2 37.95 -35.35 39.65 -29.6 Q36.95 -29.4 34.3 -29.6 31.65 -29.8 30.5 -27.85 30.5 -27.25 30.65 -26.75 31.25 -24.15 30.4 -21.5 28.35 -21.8 27.45 -20.15 L27.55 -16.15 Q27.7 -12.55 26.85 -9.2 25.9 -8.95 25.1 -9.5 22.3 -11.5 19.0 -11.15 L18.85 -10.95 18.6 -10.35 18.65 -10.1 19.0 -9.5 19.0 -9.2 19.1 -8.35 19.75 -7.5 19.75 -7.2 19.75 -6.65 Q19.1 -5.6 17.95 -5.1 L16.75 -4.95 Q13.75 -5.35 12.45 -3.25 L12.45 -2.7 Q12.35 -1.75 12.65 -0.95 L13.0 -0.65 16.95 5.4 17.05 5.95 17.35 7.4 17.05 7.7 Q12.8 6.2 9.4 8.05 8.45 9.7 8.5 11.5 8.65 15.3 7.55 18.15 2.55 14.8 -1.9 10.7 L-4.3 10.6 Q-7.7 12.85 -11.15 12.85 L-11.3 12.3 Q-11.35 11.15 -12.1 10.3 -12.7 4.9 -17.7 6.6 -20.85 7.65 -22.8 7.4 -21.7 6.15 -21.6 4.5 -21.5 2.9 -22.6 1.85 L-26.9 -2.4 -26.75 -2.6 Q-26.15 -3.1 -25.85 -3.85 -23.8 -5.1 -22.1 -6.7 L-22.1 -7.0 -22.0 -7.3 -21.65 -7.9 Q-21.15 -9.3 -21.45 -10.75 L-21.65 -11.05 -23.45 -14.2 -17.9 -14.75 Q-15.65 -15.05 -16.1 -17.25 -17.3 -23.15 -19.05 -28.8 L-8.95 -28.15 -8.75 -28.75 -8.65 -30.15 -8.9 -30.45 -9.45 -31.3 Q-9.65 -33.15 -10.8 -34.6 -13.6 -38.05 -14.05 -42.25 L-13.4 -42.7 Q-10.7 -43.9 -8.2 -45.75 -7.45 -46.35 -7.9 -47.2 -9.6 -50.55 -14.05 -51.0 L-14.05 -51.45 -14.05 -56.3 Q-13.55 -56.45 -13.05 -57.15 -12.0 -61.0 -8.55 -63.6 L-8.4 -63.85 Q-7.45 -64.85 -7.45 -66.15 L-8.05 -66.5 Q-11.45 -67.0 -14.3 -68.95 -14.3 -69.8 -13.2 -70.35 -8.45 -72.6 -7.05 -77.3 L-7.25 -77.6 -7.45 -77.9 -7.45 -78.25 -7.45 -78.55 -7.7 -78.9 -8.1 -79.85 -12.3 -84.35 Q-10.9 -84.5 -10.05 -85.6 -4.9 -85.85 -5.75 -90.95 -8.65 -94.6 -12.05 -97.7 -7.05 -98.1 -4.05 -101.7 L-4.05 -102.3 -4.05 -102.95 -4.25 -103.25 -4.8 -103.9 -4.95 -104.55 -5.2 -105.2 -5.75 -105.55 -5.8 -105.85 -5.85 -106.15 -9.5 -110.0 Q-3.6 -111.1 -4.7 -116.65 -7.65 -119.55 -9.8 -123.1 L-10.15 -123.45 -10.45 -124.05 -5.1 -123.4 Q-1.85 -122.5 0.15 -124.6 L0.2 -125.2 Q0.1 -129.95 -0.6 -134.55 L7.05 -130.2 Q8.15 -129.55 8.7 -130.6 10.7 -134.7 13.95 -137.85 L15.55 -137.95 Q16.95 -136.15 18.75 -134.75 L19.1 -134.1 Q20.0 -132.5 21.65 -133.4 23.9 -134.65 25.7 -136.55" fill="#ffff00" fill-opacity="0.5019608" fill-rule="evenodd" stroke="none"/>
  </g>
</svg>
