<?xml version="1.0" encoding="UTF-8" standalone="no"?>
<svg xmlns:ffdec="https://www.free-decompiler.com/flash" xmlns:xlink="http://www.w3.org/1999/xlink" ffdec:objectType="shape" height="127.5px" width="74.0px" xmlns="http://www.w3.org/2000/svg">
  <g transform="matrix(1.0, 0.0, 0.0, 1.0, 15.0, 126.35)">
    <path d="M6.05 -122.9 Q9.5 -126.35 14.4 -126.35 19.3 -126.35 22.75 -122.9 26.2 -119.45 26.2 -114.55 26.2 -109.65 22.75 -106.2 20.1 -103.55 16.6 -102.9 L15.8 -103.15 11.0 -102.95 9.7 -103.8 9.1 -101.45 Q16.3 -102.0 23.3 -99.6 28.2 -97.95 32.7 -100.4 41.4 -105.2 50.5 -108.4 55.35 -107.9 53.1 -103.8 52.5 -102.75 51.35 -102.25 49.75 -101.55 48.9 -99.95 48.35 -95.3 44.35 -97.85 43.6 -98.3 43.45 -99.2 35.75 -94.65 26.9 -93.6 L24.65 -93.85 Q19.15 -95.55 13.55 -96.3 L22.35 -92.6 Q25.4 -91.25 28.7 -90.5 38.1 -88.3 47.3 -89.85 46.95 -91.9 49.0 -92.45 L49.65 -92.6 Q51.8 -92.15 52.7 -91.1 L53.3 -91.3 Q53.65 -95.75 57.6 -94.95 58.65 -94.75 58.85 -93.6 59.9 -87.15 53.4 -85.45 44.15 -83.05 34.45 -83.9 21.8 -85.05 10.9 -91.5 8.9 -92.1 7.05 -93.05 L6.5 -92.25 Q4.45 -81.2 4.3 -69.8 4.25 -65.9 3.85 -62.05 L4.6 -62.2 4.65 -61.1 4.65 -60.3 11.4 -57.2 17.35 -54.4 Q22.8 -51.8 27.85 -48.55 29.1 -47.75 29.75 -46.5 L30.0 -46.0 30.4 -44.5 30.05 -43.3 29.55 -42.35 Q26.95 -38.2 22.6 -35.65 L18.0 -32.3 12.0 -27.45 14.7 -25.2 16.45 -23.65 Q19.0 -21.5 16.55 -19.15 15.05 -17.65 13.15 -18.7 8.65 -21.1 6.15 -25.1 L5.45 -25.7 5.0 -24.95 2.1 -20.45 Q-0.75 -15.85 -2.4 -10.75 -3.6 -7.15 -5.75 -4.3 L0.9 -4.05 Q2.55 -3.95 2.95 -2.4 3.7 0.75 0.35 0.9 -5.6 1.25 -11.6 1.05 -12.0 1.25 -12.45 1.05 L-12.55 1.05 -12.9 1.0 Q-14.3 0.9 -14.75 -0.45 -15.55 -2.95 -13.75 -3.9 L-12.7 -5.35 Q-8.95 -9.6 -6.9 -15.0 -5.25 -19.4 -3.05 -23.5 L0.25 -28.95 0.15 -30.65 -0.2 -53.1 -0.2 -55.4 -0.05 -56.35 Q-1.95 -57.75 -1.65 -60.45 L-1.55 -61.6 -1.5 -61.6 Q-1.4 -72.55 -0.7 -83.4 -0.5 -86.8 0.75 -89.8 2.05 -97.6 4.1 -105.3 4.45 -106.65 5.2 -107.7 L4.2 -108.05 4.35 -108.35 Q2.6 -111.1 2.6 -114.55 2.6 -119.45 6.05 -122.9 M6.2 -52.2 Q5.95 -49.35 6.0 -46.5 6.15 -37.8 5.55 -29.3 L5.6 -29.2 Q6.15 -30.2 7.0 -31.0 14.3 -37.9 22.65 -43.45 L23.5 -44.05 Q18.1 -47.7 12.05 -50.15 L10.25 -50.75 Q8.0 -51.3 6.25 -52.4 L6.2 -52.2" fill="#000000" fill-rule="evenodd" stroke="none"/>
  </g>
</svg>
