<?xml version="1.0" encoding="UTF-8" standalone="no"?>
<svg xmlns:ffdec="https://www.free-decompiler.com/flash" xmlns:xlink="http://www.w3.org/1999/xlink" ffdec:objectType="shape" height="107.95px" width="104.0px" xmlns="http://www.w3.org/2000/svg">
  <g transform="matrix(1.0, 0.0, 0.0, 1.0, 48.05, 124.7)">
    <path d="M4.5 -121.25 Q7.95 -124.7 12.85 -124.7 17.75 -124.7 21.2 -121.25 24.65 -117.8 24.65 -112.9 24.65 -108.0 21.2 -104.55 18.55 -101.9 15.05 -101.25 L14.75 -101.35 Q14.25 -101.05 13.7 -100.85 20.05 -100.1 26.5 -100.8 28.35 -101.0 30.15 -101.6 37.1 -103.9 44.1 -105.4 L52.4 -105.0 Q53.85 -104.9 54.1 -103.45 54.8 -99.2 50.15 -99.95 45.05 -100.8 41.2 -97.9 L40.8 -97.45 Q38.6 -94.35 35.75 -97.1 L27.7 -95.8 17.35 -95.25 10.9 -96.0 6.1 -96.5 5.9 -96.2 Q16.85 -93.55 27.9 -91.2 33.6 -90.0 39.55 -90.0 39.05 -92.45 41.95 -93.0 45.25 -92.35 46.25 -90.4 L53.55 -91.45 Q54.7 -91.65 55.3 -90.65 57.25 -87.35 53.25 -86.15 48.15 -84.6 42.8 -84.5 34.35 -84.3 25.9 -84.65 23.35 -84.8 21.05 -85.65 12.7 -88.9 4.0 -91.05 L3.4 -91.25 1.55 -86.05 0.95 -84.9 Q-1.95 -75.55 -0.45 -65.6 -0.05 -62.95 -0.1 -60.35 9.5 -55.9 20.1 -53.6 L25.8 -52.35 26.1 -52.4 26.65 -52.15 27.4 -52.0 Q30.15 -51.4 29.3 -48.85 29.55 -47.65 29.3 -46.05 L28.8 -42.65 Q28.4 -39.6 27.45 -36.85 26.7 -30.55 25.2 -24.5 25.1 -23.9 25.15 -23.3 L34.75 -23.2 Q35.95 -23.2 36.65 -22.1 38.55 -19.0 35.05 -17.85 L32.35 -17.4 29.5 -17.1 Q24.45 -16.2 19.85 -17.6 19.2 -17.75 19.05 -18.5 18.4 -21.35 19.1 -24.2 20.85 -31.15 21.65 -38.3 21.75 -39.3 22.45 -40.05 23.05 -43.35 23.3 -46.75 13.45 -48.45 3.9 -51.65 1.05 -52.65 -1.15 -54.5 L-4.6 -45.5 Q-6.45 -40.15 -9.05 -35.25 -9.45 -34.55 -10.2 -34.5 -17.35 -33.85 -24.25 -35.7 L-28.25 -36.45 -37.55 -36.85 Q-40.7 -31.85 -43.8 -27.2 -44.0 -26.95 -44.4 -26.9 -48.45 -26.5 -48.0 -30.4 -47.75 -32.35 -46.65 -33.9 -44.5 -37.0 -42.75 -40.4 -41.9 -42.05 -40.15 -42.8 -38.5 -43.5 -36.75 -43.25 L-28.25 -42.3 Q-22.35 -41.9 -16.55 -40.7 L-13.0 -40.3 -11.6 -44.35 -11.05 -45.2 Q-8.95 -52.2 -5.85 -58.75 -7.2 -69.6 -6.15 -80.55 L-5.2 -85.25 Q-4.5 -87.65 -3.4 -89.8 L-2.05 -93.65 -2.05 -93.7 -1.55 -95.0 -1.45 -94.95 Q0.55 -99.05 3.05 -102.75 L1.65 -102.95 2.1 -103.95 2.9 -103.95 Q2.9 -104.75 3.55 -105.6 1.05 -108.75 1.05 -112.9 1.05 -117.8 4.5 -121.25 M-3.45 -95.8 L-3.4 -95.85 -3.25 -95.75 -3.45 -95.8" fill="#000000" fill-rule="evenodd" stroke="none"/>
  </g>
</svg>
