<?xml version="1.0" encoding="UTF-8" standalone="no"?>
<svg xmlns:ffdec="https://www.free-decompiler.com/flash" xmlns:xlink="http://www.w3.org/1999/xlink" ffdec:objectType="shape" height="141.2px" width="108.05px" xmlns="http://www.w3.org/2000/svg">
  <g transform="matrix(1.0, 0.0, 0.0, 1.0, 43.85, 142.15)">
    <path d="M23.15 -132.05 Q25.1 -132.6 26.8 -133.55 30.1 -134.55 33.2 -134.3 L33.15 -133.35 Q32.8 -129.7 32.75 -125.95 33.65 -124.6 35.35 -124.6 L35.65 -124.25 36.1 -123.6 35.75 -123.3 35.75 -122.65 35.65 -122.35 35.35 -122.0 35.35 -121.05 Q35.25 -117.8 35.45 -114.6 39.25 -113.6 43.15 -115.25 L43.55 -115.05 44.35 -114.1 44.35 -113.75 44.35 -113.45 Q45.45 -111.75 46.7 -110.25 47.0 -109.9 47.35 -109.9 52.15 -110.05 54.9 -114.6 L55.45 -114.4 Q56.85 -109.65 61.65 -109.05 L61.9 -108.75 62.3 -108.1 62.15 -107.8 61.9 -107.45 61.9 -106.8 61.75 -104.9 61.55 -104.55 61.0 -103.9 60.95 -103.3 Q60.35 -101.0 60.6 -98.45 61.45 -96.85 63.05 -95.9 L63.2 -95.65 Q63.75 -95.15 63.6 -94.6 61.1 -93.9 59.3 -92.05 L59.3 -91.4 59.3 -89.5 59.6 -89.15 59.75 -88.85 59.75 -88.2 59.75 -86.9 60.05 -86.6 Q61.3 -85.3 61.15 -83.4 L61.4 -83.05 Q62.45 -81.3 62.75 -79.2 59.1 -81.1 56.75 -78.25 L56.75 -76.95 56.65 -69.35 Q54.55 -70.1 52.55 -71.2 51.05 -72.0 49.65 -72.95 45.55 -75.7 43.35 -72.05 L42.55 -71.55 Q40.75 -69.7 38.45 -68.5 34.95 -71.15 32.1 -74.45 27.85 -79.35 23.35 -75.35 20.95 -76.35 18.85 -78.25 17.05 -80.85 14.35 -79.2 L14.35 -78.9 Q14.3 -76.55 15.65 -74.7 L12.65 -72.25 12.65 -71.6 12.65 -70.3 17.9 -64.75 17.75 -64.45 17.35 -63.8 17.35 -63.15 17.35 -60.9 20.2 -58.9 20.25 -58.7 20.55 -58.45 Q26.1 -54.9 32.35 -52.7 32.9 -52.0 33.9 -51.95 L34.0 -51.85 34.65 -51.1 32.8 -48.8 32.6 -47.55 Q31.8 -45.85 32.05 -43.9 32.65 -42.85 33.9 -42.75 L37.05 -40.6 37.0 -37.45 Q36.95 -35.05 37.6 -32.85 39.35 -29.8 41.9 -31.85 45.4 -34.7 49.35 -34.3 49.15 -32.5 49.65 -30.8 L50.5 -26.2 Q51.1 -25.45 51.95 -25.05 57.4 -22.45 63.25 -20.85 L63.35 -20.75 64.2 -19.95 Q62.5 -18.9 60.95 -17.65 58.6 -17.5 57.4 -15.55 57.4 -14.4 57.7 -13.3 58.25 -11.15 59.7 -9.2 L53.4 -9.05 Q52.0 -8.85 50.95 -7.8 L50.8 -7.25 Q50.4 -6.4 50.5 -5.45 L50.3 -5.2 50.1 -4.9 50.1 -4.05 50.0 -1.25 Q45.1 -3.6 40.35 -6.25 L39.0 -6.3 Q36.45 -4.9 35.3 -2.0 L34.15 -0.95 Q32.85 -1.5 31.9 -2.75 L25.35 -10.2 13.25 -9.7 13.2 -10.0 13.35 -11.15 13.95 -12.35 14.75 -16.3 14.25 -16.65 2.45 -18.15 Q2.9 -18.8 2.95 -19.6 3.05 -21.7 2.45 -23.6 2.15 -24.25 1.5 -24.4 L1.15 -24.25 Q-2.1 -22.5 -4.55 -19.8 -7.85 -20.4 -10.4 -22.95 -10.6 -23.5 -11.1 -23.55 -14.15 -23.85 -14.65 -20.1 -15.25 -15.4 -17.5 -11.45 L-18.2 -11.45 -19.75 -13.6 -23.45 -18.55 Q-23.65 -19.65 -24.3 -20.6 -25.0 -21.55 -26.05 -21.1 -30.35 -19.25 -34.0 -16.3 -33.95 -18.35 -33.55 -20.25 -33.0 -22.6 -33.25 -25.15 -33.65 -25.8 -34.3 -26.1 -38.9 -28.15 -43.8 -29.4 -44.0 -29.9 -43.45 -30.25 -39.65 -32.45 -36.8 -35.7 -36.5 -38.1 -39.0 -39.25 -41.4 -40.4 -42.65 -41.75 -40.2 -43.75 -36.9 -43.8 -31.95 -43.9 -27.95 -46.1 -27.8 -46.5 -28.0 -46.9 -28.5 -48.3 -27.95 -49.55 -25.8 -50.0 -24.05 -48.6 -21.5 -46.6 -18.85 -47.05 L-18.75 -47.65 -18.65 -49.95 -18.5 -50.25 -18.25 -50.8 -15.95 -50.7 Q-13.3 -49.55 -11.15 -50.9 L-11.05 -51.5 Q-10.9 -52.65 -11.05 -53.8 -12.65 -55.55 -15.1 -56.0 -16.85 -57.45 -18.95 -58.15 L-18.6 -59.1 Q-17.45 -59.1 -16.65 -59.75 L-16.55 -60.4 -16.55 -60.7 -16.55 -60.75 -15.75 -61.25 Q-15.35 -61.55 -15.35 -61.85 -15.5 -68.55 -21.7 -72.8 -17.7 -72.75 -14.25 -74.25 -13.65 -74.5 -13.5 -74.95 -12.05 -78.4 -15.5 -81.25 L-15.6 -81.55 Q-15.95 -83.1 -16.9 -84.45 L-16.9 -85.1 -16.9 -85.4 -16.05 -86.05 Q-12.5 -86.5 -10.45 -89.25 L-10.45 -89.9 -10.45 -90.55 Q-11.9 -93.65 -13.9 -96.3 L-13.7 -96.65 -13.35 -97.3 Q-11.75 -98.1 -10.05 -98.45 L-9.85 -98.7 -9.6 -99.0 -9.0 -99.25 -8.55 -99.55 -8.4 -100.2 Q-8.25 -103.15 -8.75 -105.95 L-8.95 -106.3 -9.2 -106.6 -9.15 -107.25 -9.05 -107.55 Q-6.75 -109.5 -3.85 -110.65 -3.7 -111.0 -3.7 -111.3 L-3.6 -113.25 -5.95 -115.05 Q-6.45 -116.25 -7.8 -116.35 -8.85 -117.35 -10.05 -118.15 -9.15 -119.95 -7.45 -120.75 -4.5 -122.15 -2.35 -123.85 L-2.6 -124.5 -2.85 -125.45 Q-3.95 -127.6 -5.2 -129.6 L-5.3 -129.95 Q-5.6 -131.4 -6.6 -132.5 L-6.65 -133.15 -7.05 -134.1 Q-4.55 -133.0 -2.55 -131.0 0.7 -127.7 3.55 -130.55 L3.75 -131.15 4.1 -132.5 Q5.55 -132.25 6.75 -131.3 8.5 -130.0 10.0 -131.5 14.8 -136.3 18.55 -142.15 19.35 -136.25 23.15 -132.05" fill="#ffff00" fill-opacity="0.5019608" fill-rule="evenodd" stroke="none"/>
  </g>
</svg>
