<?xml version="1.0" encoding="UTF-8" standalone="no"?>
<svg xmlns:ffdec="https://www.free-decompiler.com/flash" xmlns:xlink="http://www.w3.org/1999/xlink" ffdec:objectType="shape" height="154.75px" width="101.25px" xmlns="http://www.w3.org/2000/svg">
  <g transform="matrix(1.0, 0.0, 0.0, 1.0, 39.8, 138.9)">
    <path d="M25.15 -134.0 Q26.2 -129.75 30.0 -130.9 L30.3 -131.15 30.5 -131.45 33.65 -131.55 33.9 -130.55 34.05 -128.95 33.85 -128.65 33.65 -128.3 33.6 -127.0 Q33.25 -125.05 31.9 -123.5 32.05 -122.8 31.7 -122.15 31.05 -120.8 30.95 -119.35 L30.65 -119.0 30.65 -118.7 30.6 -118.35 30.5 -118.05 30.3 -117.7 30.2 -117.1 Q30.4 -116.75 30.7 -116.65 33.35 -115.6 36.2 -116.0 L36.45 -115.75 36.6 -115.15 37.15 -114.5 39.2 -111.65 39.25 -111.3 39.4 -110.65 Q40.15 -110.05 41.1 -109.8 L41.55 -109.95 41.75 -110.0 42.0 -110.25 Q44.85 -112.7 46.9 -116.0 L47.55 -116.15 48.05 -116.1 50.6 -111.4 50.95 -111.0 Q54.2 -109.8 58.05 -110.55 L57.95 -108.6 Q57.45 -105.8 57.6 -102.85 L58.0 -102.2 Q59.5 -99.75 61.45 -97.4 L61.3 -97.1 57.6 -92.9 57.55 -91.3 Q57.45 -89.75 57.8 -88.4 L58.2 -88.05 58.45 -87.75 Q58.4 -87.2 58.7 -86.75 L60.6 -83.25 60.6 -82.95 60.6 -82.65 60.85 -82.25 61.0 -81.65 Q58.9 -81.15 56.75 -79.65 L56.75 -79.3 56.7 -79.0 56.65 -78.65 56.3 -78.35 56.3 -76.4 56.3 -71.9 Q53.25 -74.75 49.35 -76.3 L47.95 -76.6 Q42.95 -76.65 41.25 -71.7 36.45 -74.45 31.05 -76.1 30.2 -77.1 28.8 -77.15 L25.95 -76.65 Q22.85 -75.5 21.2 -72.35 L18.45 -72.65 Q15.9 -74.55 13.3 -73.85 12.95 -73.45 13.0 -72.9 L13.1 -71.6 13.55 -70.95 17.8 -64.2 Q14.9 -63.05 13.1 -60.8 L13.1 -60.15 13.1 -59.2 Q15.5 -56.65 18.6 -55.0 18.2 -53.9 18.3 -52.55 20.55 -51.15 23.1 -50.4 26.0 -49.35 28.5 -47.65 L28.6 -46.75 27.75 -43.3 Q27.25 -42.95 27.05 -42.45 L27.05 -41.85 27.05 -40.45 27.6 -40.05 Q32.3 -38.4 36.3 -35.9 L36.25 -35.65 35.7 -33.9 Q34.35 -32.4 32.65 -31.3 L32.45 -31.0 32.25 -30.45 31.9 -30.1 Q30.95 -29.0 31.4 -27.55 L48.55 -18.65 47.95 -17.95 Q44.85 -15.9 42.05 -13.65 L42.05 -13.35 42.05 -12.75 49.65 -5.3 Q47.95 -5.35 46.0 -4.3 45.3 -2.95 45.3 -1.45 45.15 3.65 45.5 8.65 L45.1 8.65 Q40.35 4.8 36.35 9.9 L36.3 10.2 36.1 10.75 Q33.9 12.55 32.8 15.1 L31.95 15.85 29.55 12.4 Q28.85 11.4 27.6 11.2 L18.05 10.65 Q18.9 9.0 18.95 7.2 18.95 6.6 18.55 6.25 14.95 3.15 10.55 2.0 9.8 -0.4 10.95 -2.6 12.1 -4.9 12.35 -7.45 12.75 -11.3 9.1 -12.5 5.2 -13.8 1.2 -13.55 L1.1 -13.85 0.55 -15.0 Q0.65 -16.3 0.3 -17.6 L-0.2 -19.15 Q-1.5 -22.75 -4.45 -20.15 L-4.45 -19.9 Q-4.75 -18.75 -5.6 -17.85 L-5.65 -16.7 Q-5.9 -14.45 -6.95 -12.6 -10.35 -15.6 -14.4 -17.65 L-16.4 -17.55 Q-17.35 -16.9 -17.75 -15.75 -19.6 -10.25 -19.9 -4.4 -26.65 -9.55 -33.9 -14.05 L-34.8 -14.35 -39.8 -14.8 -39.65 -16.5 Q-39.05 -21.5 -36.35 -25.75 -35.3 -25.75 -34.6 -26.3 L-34.45 -26.9 Q-34.2 -28.25 -34.7 -29.5 L-35.15 -29.75 Q-35.6 -30.75 -36.35 -31.5 L-36.3 -31.8 -36.4 -32.65 -36.6 -32.95 -39.5 -37.25 -33.85 -36.95 Q-31.2 -36.75 -29.8 -38.6 L-29.8 -38.9 -29.8 -39.2 -29.4 -39.75 -29.45 -40.9 -29.7 -45.8 -29.4 -46.1 -23.85 -45.8 Q-21.85 -44.15 -19.6 -45.15 -19.35 -45.7 -19.45 -46.3 -19.85 -48.95 -18.65 -51.2 L-14.7 -53.5 -13.45 -54.95 Q-12.25 -55.95 -11.3 -57.25 L-11.4 -57.55 -11.6 -57.85 Q-10.6 -58.5 -9.7 -59.6 -9.15 -61.35 -10.3 -62.65 L-16.45 -69.55 -15.6 -70.2 Q-11.6 -72.7 -13.65 -77.3 L-19.0 -81.75 -19.0 -82.1 -19.0 -82.4 -19.0 -82.75 -18.2 -83.1 Q-17.2 -83.65 -16.45 -84.45 -14.25 -85.2 -12.7 -86.9 -12.55 -87.35 -12.55 -87.85 -12.65 -88.8 -13.35 -89.5 -13.45 -90.3 -13.85 -90.9 -16.5 -95.4 -17.95 -100.4 L-17.65 -100.7 -17.3 -101.05 Q-13.0 -100.95 -9.6 -102.95 L-9.8 -105.2 Q-10.35 -108.65 -10.45 -112.25 L-10.15 -112.6 Q-6.5 -112.45 -4.15 -115.15 L-3.95 -116.45 Q-3.85 -118.0 -4.35 -119.35 L-4.8 -119.7 -4.9 -119.95 -5.1 -120.55 -6.2 -122.2 Q-6.1 -122.9 -6.5 -123.45 -7.55 -124.95 -7.45 -126.7 -5.15 -126.95 -3.6 -128.1 0.1 -130.85 2.7 -134.85 4.55 -134.6 6.25 -133.65 6.75 -132.8 7.85 -132.8 8.25 -132.2 9.0 -132.25 12.8 -132.4 15.75 -135.05 18.9 -137.95 22.05 -138.9 24.4 -137.05 25.15 -134.0" fill="#ffff00" fill-opacity="0.5019608" fill-rule="evenodd" stroke="none"/>
  </g>
</svg>
