<?xml version="1.0" encoding="UTF-8" standalone="no"?>
<svg xmlns:ffdec="https://www.free-decompiler.com/flash" xmlns:xlink="http://www.w3.org/1999/xlink" ffdec:objectType="shape" height="128.7px" width="84.4px" xmlns="http://www.w3.org/2000/svg">
  <g transform="matrix(1.0, 0.0, 0.0, 1.0, 28.75, 126.7)">
    <path d="M5.25 -123.25 Q8.7 -126.7 13.6 -126.7 18.5 -126.7 21.95 -123.25 25.4 -119.8 25.4 -114.9 25.4 -110.0 21.95 -106.55 19.35 -103.95 16.0 -103.3 L21.0 -102.65 34.05 -102.15 42.35 -103.05 Q43.75 -104.4 45.8 -104.45 L52.35 -104.05 Q54.4 -103.75 54.25 -101.7 54.05 -99.95 52.45 -99.45 L47.5 -98.15 Q47.15 -93.75 42.85 -95.75 42.1 -96.05 41.95 -96.85 30.3 -96.5 18.05 -97.4 22.9 -95.2 27.5 -92.3 L28.45 -92.05 Q34.55 -91.9 40.65 -92.05 L42.35 -92.35 Q44.8 -95.9 48.35 -92.8 L48.45 -92.7 Q51.9 -93.5 54.6 -91.65 56.2 -90.55 55.35 -88.75 54.65 -87.3 53.1 -87.15 39.4 -85.95 25.7 -87.15 23.85 -87.3 22.2 -88.3 20.85 -89.05 19.9 -90.25 L11.85 -94.4 Q7.8 -94.95 6.6 -97.85 5.25 -94.0 4.3 -90.05 3.8 -88.0 2.65 -86.25 1.4 -75.05 2.0 -63.5 L2.0 -60.65 2.0 -60.55 2.9 -59.2 Q4.5 -57.85 5.55 -55.7 6.75 -53.15 8.35 -50.8 10.1 -48.3 12.35 -46.15 14.95 -43.55 16.9 -40.45 19.7 -36.05 20.5 -30.85 L21.35 -26.15 22.45 -21.6 Q23.45 -18.4 23.85 -15.0 L24.45 -9.75 Q24.65 -7.3 25.25 -5.0 L36.5 -3.2 Q37.3 -3.05 37.55 -2.3 38.45 0.6 35.45 1.4 L28.85 1.85 Q24.5 1.25 20.75 -0.55 19.7 -1.1 19.55 -2.25 L17.35 -17.25 16.05 -23.35 13.25 -33.3 Q12.35 -36.35 10.4 -38.85 L4.05 -47.0 Q5.25 -42.65 5.8 -38.05 5.9 -37.15 6.3 -36.35 8.2 -32.3 5.35 -29.6 4.6 -28.85 3.45 -28.9 -6.9 -29.5 -16.35 -33.4 -21.25 -29.35 -24.15 -24.05 -24.5 -23.45 -25.2 -23.45 -30.0 -23.35 -28.35 -27.75 -27.7 -29.5 -26.55 -30.95 -23.1 -35.35 -19.0 -39.2 L-18.25 -39.5 Q-14.05 -39.65 -10.25 -37.7 -8.6 -36.85 -6.75 -36.3 -3.45 -35.25 0.05 -35.6 L-3.45 -55.95 -3.5 -58.35 Q-3.95 -59.35 -3.85 -60.9 -3.55 -66.7 -3.75 -72.45 -4.1 -81.2 -1.95 -89.15 -0.6 -94.75 1.3 -100.05 L0.4 -100.0 1.5 -102.8 3.25 -106.1 Q3.3 -107.4 3.65 -108.5 1.8 -111.35 1.8 -114.9 1.8 -119.8 5.25 -123.25" fill="#000000" fill-rule="evenodd" stroke="none"/>
  </g>
</svg>
