<?xml version="1.0" encoding="UTF-8" standalone="no"?>
<svg xmlns:ffdec="https://www.free-decompiler.com/flash" xmlns:xlink="http://www.w3.org/1999/xlink" ffdec:objectType="shape" height="154.85px" width="122.95px" xmlns="http://www.w3.org/2000/svg">
  <g transform="matrix(1.0, 0.0, 0.0, 1.0, 48.15, 135.9)">
    <path d="M24.25 -126.5 L24.7 -126.15 Q28.15 -125.85 29.85 -129.35 31.5 -130.3 32.7 -130.1 L32.05 -127.8 Q31.4 -124.6 31.45 -121.2 31.05 -120.9 31.2 -120.35 32.6 -119.25 34.8 -120.0 35.65 -120.2 35.85 -121.05 L38.45 -122.45 40.35 -122.75 40.35 -119.3 40.45 -111.25 41.3 -111.1 Q45.45 -111.6 48.4 -114.9 49.75 -115.5 50.9 -116.45 L51.35 -116.45 53.85 -113.1 Q54.7 -111.8 56.15 -112.3 60.4 -113.7 64.5 -114.45 64.25 -111.35 64.85 -108.5 65.4 -105.5 68.2 -104.6 71.7 -103.45 74.6 -101.6 L74.75 -101.4 74.8 -100.85 69.95 -96.55 69.85 -96.25 69.75 -95.65 68.7 -94.55 68.7 -93.95 68.7 -92.25 69.8 -91.05 74.7 -84.2 72.1 -84.05 Q67.25 -83.55 63.7 -80.95 L63.9 -77.8 Q64.35 -73.65 65.25 -69.45 59.75 -71.2 53.95 -72.15 50.0 -70.65 48.6 -66.45 47.75 -63.8 46.6 -61.5 40.6 -67.3 33.65 -62.4 32.95 -64.9 31.45 -67.1 L30.65 -67.6 Q26.0 -68.8 22.2 -65.45 20.5 -64.8 19.3 -63.45 L19.3 -63.15 19.3 -61.7 Q19.9 -60.65 21.15 -60.55 21.7 -60.0 22.4 -59.7 20.6 -58.6 19.7 -56.85 L19.7 -56.55 19.8 -55.4 Q23.9 -54.0 28.1 -53.1 L28.05 -52.8 Q27.8 -51.5 26.95 -50.5 L27.0 -50.25 Q27.1 -49.75 26.8 -49.35 L25.45 -48.2 25.4 -47.65 Q25.4 -46.9 25.55 -46.2 L34.8 -44.3 34.6 -44.0 Q32.1 -40.85 30.05 -37.4 L30.0 -37.1 Q30.0 -36.65 30.15 -36.25 35.9 -34.2 41.25 -30.9 35.2 -25.5 29.65 -19.7 L29.65 -19.4 29.75 -18.25 42.0 -9.85 Q40.8 -9.3 39.4 -9.35 34.65 -9.45 32.35 -6.0 L32.35 -5.45 32.35 -3.45 32.6 -3.15 Q33.45 -1.85 33.55 -0.3 35.1 1.3 36.15 3.15 32.2 1.6 30.4 4.95 27.55 10.25 27.95 16.25 25.55 13.6 22.5 11.75 L22.4 11.5 22.2 10.9 21.2 10.5 19.75 10.6 Q15.3 12.95 13.2 17.5 L12.05 18.35 12.0 18.65 11.85 18.95 Q10.85 16.4 9.1 14.6 8.65 14.15 8.05 14.15 1.65 13.95 -2.9 18.65 L-5.25 15.8 Q-6.45 14.25 -8.1 13.3 L-9.3 13.25 -17.9 18.45 Q-18.15 17.85 -18.85 17.6 -19.25 16.15 -20.35 15.0 -20.8 14.55 -21.4 14.5 L-29.5 14.1 -30.65 14.25 -33.9 14.45 -33.9 13.6 -33.9 10.15 Q-34.2 9.55 -34.8 9.25 -38.8 7.35 -42.9 5.7 -46.05 4.5 -48.15 3.05 L-44.2 0.2 -44.2 -0.1 -44.2 -0.4 Q-43.3 -1.65 -43.5 -3.25 -44.0 -6.75 -45.0 -10.15 L-45.35 -10.7 -45.35 -11.0 -45.45 -11.85 Q-39.75 -11.25 -34.15 -11.55 -33.35 -12.75 -33.6 -14.15 -34.8 -20.0 -37.05 -25.65 L-29.9 -26.15 Q-29.3 -26.25 -29.0 -26.8 L-28.9 -28.2 Q-29.1 -31.35 -30.45 -34.25 L-29.75 -34.55 -19.55 -34.8 Q-18.7 -34.8 -18.3 -35.6 L-18.2 -35.9 -18.3 -36.75 -18.95 -37.6 -18.95 -37.9 -18.95 -38.45 Q-20.75 -41.2 -23.15 -43.35 L-23.15 -43.65 -23.35 -44.75 Q-17.1 -45.4 -11.7 -48.05 L-11.65 -48.6 Q-11.6 -49.5 -11.85 -50.3 -14.95 -53.05 -17.05 -56.65 -14.0 -58.7 -11.4 -61.25 L-11.35 -61.5 -11.3 -62.95 Q-14.8 -65.35 -17.05 -68.8 -14.7 -71.05 -11.6 -72.8 L-10.65 -74.25 Q-10.45 -75.65 -10.7 -77.1 -11.3 -80.75 -13.2 -84.0 L-13.25 -84.3 -13.6 -85.7 Q-12.85 -86.3 -12.45 -87.15 -10.7 -87.5 -10.15 -88.9 -8.9 -89.35 -7.95 -90.3 -7.5 -91.45 -7.75 -92.55 -8.9 -97.9 -11.7 -102.65 L-9.95 -102.95 Q-7.7 -103.1 -6.35 -104.7 -5.5 -105.65 -5.15 -106.8 -4.65 -108.25 -4.4 -109.8 -3.9 -113.55 -4.8 -117.2 L-4.5 -117.5 -3.1 -117.85 Q-2.45 -118.05 -2.2 -118.55 0.35 -123.75 0.95 -129.65 L3.7 -129.85 Q5.85 -131.45 6.7 -133.85 L6.9 -134.1 Q7.6 -134.9 7.95 -135.85 L8.2 -135.85 Q10.9 -132.95 12.8 -129.65 L12.8 -129.35 12.8 -129.05 Q15.1 -125.2 17.7 -128.95 L17.8 -129.55 Q18.45 -132.1 19.8 -134.4 L24.25 -126.5" fill="#ffff00" fill-opacity="0.5019608" fill-rule="evenodd" stroke="none"/>
  </g>
</svg>
