<?xml version="1.0" encoding="UTF-8" standalone="no"?>
<svg xmlns:ffdec="https://www.free-decompiler.com/flash" xmlns:xlink="http://www.w3.org/1999/xlink" ffdec:objectType="shape" height="127.2px" width="90.55px" xmlns="http://www.w3.org/2000/svg">
  <g transform="matrix(1.0, 0.0, 0.0, 1.0, 30.15, 122.9)">
    <path d="M5.9 -104.85 Q4.15 -107.6 4.15 -111.1 4.15 -116.0 7.6 -119.45 11.05 -122.9 15.95 -122.9 20.85 -122.9 24.3 -119.45 27.75 -116.0 27.75 -111.1 27.75 -106.2 24.3 -102.75 21.65 -100.1 18.15 -99.45 L17.05 -99.75 15.9 -99.45 16.15 -98.9 Q16.45 -98.2 17.1 -97.75 23.25 -93.1 28.9 -87.95 L35.15 -90.75 Q35.25 -97.1 41.55 -96.0 44.9 -95.45 44.45 -92.2 44.25 -90.4 43.4 -89.0 L46.05 -90.85 Q49.5 -93.1 52.65 -95.8 51.25 -101.45 56.9 -101.7 58.65 -101.75 59.5 -100.15 62.0 -95.35 57.6 -92.05 L40.35 -79.4 Q37.65 -77.45 34.5 -76.5 33.2 -76.1 32.1 -76.95 29.7 -78.8 27.45 -80.95 19.05 -77.85 10.35 -75.55 L9.25 -75.25 Q8.25 -70.55 6.55 -66.0 4.95 -61.55 4.8 -56.75 6.65 -55.0 7.65 -52.3 9.45 -47.5 12.8 -43.45 L20.55 -34.55 Q21.7 -33.3 22.15 -31.75 22.8 -29.35 20.95 -27.25 18.9 -25.0 18.4 -21.95 16.95 -12.45 13.25 -3.55 17.35 -4.0 21.55 -2.65 23.0 -2.2 23.05 -0.65 23.2 3.2 19.3 2.9 L13.2 2.7 12.5 2.8 Q8.95 3.9 7.0 1.3 6.15 0.1 6.5 -1.4 7.65 -6.0 9.25 -10.4 11.05 -15.35 11.8 -20.5 12.65 -25.95 15.6 -30.8 7.55 -38.7 2.4 -48.3 1.7 -45.6 1.55 -42.65 1.3 -38.2 0.55 -33.9 L-0.05 -31.95 -0.55 -31.1 Q-0.65 -23.5 -6.45 -19.05 -7.9 -17.95 -8.85 -16.4 -9.35 -15.6 -10.25 -15.25 -15.05 -10.05 -20.8 -5.75 -21.25 -4.55 -22.05 -3.65 L-22.55 -2.85 Q-20.35 -1.85 -16.9 -1.85 -13.6 -1.9 -11.35 0.05 -10.55 0.75 -10.7 1.8 -11.05 4.15 -13.45 4.25 -21.7 4.55 -29.15 1.35 -30.1 0.95 -30.15 -0.1 -30.2 -1.75 -29.1 -2.95 -26.8 -9.2 -21.5 -13.3 -15.25 -18.1 -9.7 -23.75 -8.2 -25.3 -7.65 -27.2 -5.0 -36.55 -3.95 -46.2 -3.55 -49.85 -2.5 -53.4 -1.75 -55.75 -0.3 -57.45 -0.95 -66.4 2.65 -74.35 L2.85 -74.8 Q1.85 -75.2 1.0 -76.05 -0.05 -77.15 0.25 -78.7 1.85 -87.1 3.95 -95.4 4.65 -98.35 5.9 -101.05 6.6 -102.5 7.65 -103.55 L5.9 -104.85 M33.75 -83.25 L34.0 -82.95 Q36.5 -83.55 38.9 -85.55 L39.15 -85.75 33.65 -83.35 33.75 -83.25 M13.55 -92.6 L12.5 -89.4 11.05 -82.15 Q16.9 -83.55 22.6 -85.55 L17.65 -89.25 Q15.35 -90.75 13.55 -92.6" fill="#000000" fill-rule="evenodd" stroke="none"/>
  </g>
</svg>
