<?xml version="1.0" encoding="UTF-8" standalone="no"?>
<svg xmlns:ffdec="https://www.free-decompiler.com/flash" xmlns:xlink="http://www.w3.org/1999/xlink" ffdec:objectType="shape" height="151.45px" width="134.35px" xmlns="http://www.w3.org/2000/svg">
  <g transform="matrix(1.0, 0.0, 0.0, 1.0, 48.05, 136.25)">
    <path d="M82.1 -106.6 L81.55 -105.85 Q80.1 -103.6 79.35 -101.15 78.6 -98.8 79.8 -96.75 80.3 -95.85 81.25 -95.5 84.2 -94.4 86.3 -93.0 84.2 -91.6 82.45 -89.85 L82.45 -88.4 82.45 -86.1 Q80.0 -86.15 77.8 -87.5 73.65 -90.05 69.45 -88.8 69.45 -87.35 69.8 -86.0 L70.6 -81.9 69.35 -82.35 Q65.85 -84.4 62.35 -84.0 62.05 -82.65 62.1 -81.15 L62.2 -76.85 60.95 -76.2 Q58.25 -74.4 55.05 -73.5 50.65 -72.3 47.45 -69.9 43.75 -67.1 39.7 -69.3 L38.65 -70.05 Q36.05 -72.6 33.5 -70.8 33.55 -69.65 32.8 -68.8 31.35 -67.05 30.4 -65.05 27.8 -66.25 25.25 -67.95 24.15 -67.55 23.55 -66.5 23.6 -65.45 23.3 -64.55 22.75 -62.95 22.65 -61.35 L20.85 -59.3 20.85 -58.75 20.95 -57.3 21.25 -57.05 Q25.5 -54.05 28.9 -50.5 L28.75 -50.25 26.2 -47.35 26.25 -46.8 26.3 -46.2 Q30.15 -45.2 33.75 -43.55 L32.5 -42.4 Q30.65 -41.05 29.65 -38.95 L29.7 -38.35 29.75 -37.8 38.65 -32.35 38.25 -32.05 34.65 -28.9 34.65 -28.05 34.65 -25.75 34.85 -25.5 Q35.8 -24.75 36.15 -23.7 33.9 -23.45 32.35 -22.1 32.25 -21.5 32.55 -21.05 33.7 -19.35 35.1 -17.8 L34.9 -17.5 34.65 -17.2 33.3 -16.95 Q29.35 -15.7 29.0 -12.15 L36.45 -7.75 35.55 -6.75 Q34.0 -5.3 33.1 -3.45 L33.05 -2.85 Q33.0 -2.25 33.3 -1.7 L33.65 -1.45 Q36.95 0.85 39.2 3.75 L39.0 3.95 35.4 6.6 35.35 7.2 Q35.2 8.25 35.7 9.2 32.55 9.35 29.7 10.2 27.2 10.95 28.0 13.3 26.6 12.95 25.3 12.25 21.7 10.2 18.15 11.5 L18.15 12.65 Q18.15 13.95 18.55 15.2 12.8 13.05 7.55 9.45 L4.85 9.5 Q2.7 11.15 1.05 13.5 L0.55 13.65 0.35 13.6 Q-2.1 11.65 -3.6 9.0 -3.95 8.4 -4.55 8.5 -8.1 9.15 -11.3 10.6 -12.0 8.4 -12.25 6.05 -12.35 4.85 -13.45 4.75 L-28.15 3.95 Q-27.7 2.85 -27.65 1.65 -27.6 -0.05 -28.25 -1.55 -29.4 -3.3 -31.6 -3.05 -30.7 -3.45 -30.1 -4.25 L-27.85 -7.65 -27.8 -8.25 -27.75 -9.35 Q-29.55 -11.1 -31.8 -12.35 L-33.25 -13.15 Q-40.1 -16.75 -48.05 -17.5 -45.3 -21.2 -41.05 -22.45 -40.25 -22.65 -39.6 -23.1 -38.05 -24.25 -36.15 -24.35 -30.0 -24.75 -24.8 -27.25 L-24.75 -27.85 -24.7 -29.25 -25.2 -29.8 Q-26.25 -30.55 -27.0 -31.75 L-26.05 -31.5 Q-22.65 -30.1 -20.85 -32.7 L-20.95 -37.6 Q-21.1 -41.7 -20.5 -45.65 L-13.1 -47.55 Q-12.65 -48.9 -12.9 -50.4 -13.75 -55.15 -17.35 -58.45 L-17.4 -58.75 -17.5 -59.3 -6.05 -59.95 -5.55 -60.25 Q-5.65 -61.65 -6.5 -62.8 -10.3 -67.85 -14.75 -72.35 L-5.2 -72.95 Q-4.25 -73.05 -3.75 -73.85 L-3.55 -75.3 Q-3.4 -77.3 -5.0 -78.45 -5.3 -79.6 -6.3 -80.15 L-6.35 -80.45 -6.4 -80.75 -9.6 -83.9 Q-4.6 -85.35 -0.4 -88.2 -0.1 -89.05 -0.25 -89.9 -0.95 -93.25 -4.3 -94.9 L-4.45 -95.15 -5.45 -96.35 Q-1.45 -97.3 1.7 -99.7 L1.75 -100.25 1.5 -102.0 -2.3 -104.85 Q-4.5 -106.1 -5.2 -107.75 L-3.95 -108.4 Q-0.75 -109.25 2.05 -110.7 L2.45 -111.2 Q3.05 -115.05 0.2 -117.8 L0.2 -118.05 0.2 -118.65 0.75 -118.7 0.95 -118.65 Q4.45 -116.25 7.85 -118.05 L7.85 -118.65 7.75 -119.8 7.5 -120.05 Q6.0 -121.4 4.1 -122.2 6.5 -122.5 8.2 -123.8 L8.15 -124.05 Q6.05 -128.25 1.5 -130.4 L0.3 -132.15 0.55 -132.4 6.55 -133.05 7.05 -133.35 6.95 -133.9 Q6.4 -135.1 5.15 -135.85 L6.2 -135.95 Q7.15 -135.5 8.15 -135.15 L10.55 -134.2 Q16.3 -131.65 19.7 -136.25 24.7 -135.7 28.3 -131.85 L29.4 -130.5 Q31.45 -127.65 34.35 -127.9 L34.75 -128.45 Q37.0 -131.0 39.6 -132.3 40.05 -130.65 40.0 -128.85 39.9 -126.0 40.1 -123.15 41.8 -122.35 42.75 -122.2 L42.45 -121.9 41.9 -121.3 41.9 -121.05 41.8 -120.45 40.75 -119.6 Q38.8 -118.55 38.85 -116.45 39.1 -116.15 39.35 -116.1 L50.4 -113.65 50.55 -113.5 Q51.7 -112.0 53.4 -111.35 L53.4 -111.2 53.5 -110.9 55.25 -110.8 Q58.55 -113.2 61.15 -116.15 61.6 -115.1 62.75 -114.7 62.85 -114.25 63.2 -113.95 64.4 -112.85 64.55 -111.25 65.8 -110.4 67.2 -111.4 72.2 -115.05 76.9 -119.1 78.9 -117.65 79.2 -115.1 79.6 -111.05 80.25 -107.05 81.0 -106.35 82.1 -106.6" fill="#ffff00" fill-opacity="0.5019608" fill-rule="evenodd" stroke="none"/>
  </g>
</svg>
