<?xml version="1.0" encoding="UTF-8" standalone="no"?>
<svg xmlns:ffdec="https://www.free-decompiler.com/flash" xmlns:xlink="http://www.w3.org/1999/xlink" ffdec:objectType="shape" height="127.85px" width="94.35px" xmlns="http://www.w3.org/2000/svg">
  <g transform="matrix(1.0, 0.0, 0.0, 1.0, 23.1, 122.5)">
    <path d="M9.65 -106.05 L10.2 -105.9 Q9.2 -108.1 9.2 -110.7 9.2 -115.6 12.65 -119.05 16.1 -122.5 21.0 -122.5 25.9 -122.5 29.35 -119.05 32.8 -115.6 32.8 -110.7 32.8 -105.8 29.35 -102.35 27.8 -100.8 25.95 -99.9 L30.7 -97.4 Q34.75 -95.35 38.5 -97.9 41.5 -99.9 45.15 -100.4 L49.95 -101.5 Q53.8 -102.75 57.85 -103.45 L64.4 -104.35 Q65.0 -105.1 65.85 -105.4 L66.9 -105.7 Q72.3 -104.75 71.0 -99.15 70.2 -95.5 66.75 -97.15 L65.95 -97.9 Q60.3 -98.2 54.45 -96.5 55.7 -95.2 54.6 -92.7 54.05 -91.45 53.15 -90.4 56.0 -89.55 56.05 -86.75 56.05 -85.25 54.6 -84.7 51.2 -83.45 48.75 -85.65 L48.25 -85.4 Q45.35 -84.05 42.25 -83.2 35.45 -81.35 29.0 -78.65 24.7 -76.85 20.35 -77.5 19.55 -77.6 19.05 -78.35 15.95 -82.95 13.15 -87.75 11.45 -79.85 9.1 -72.1 7.15 -65.7 6.3 -59.0 L5.95 -57.5 Q6.7 -56.55 7.15 -55.2 L7.2 -54.9 Q9.95 -52.05 11.65 -48.4 13.5 -44.6 16.55 -41.45 19.7 -38.25 21.65 -34.3 22.95 -31.6 21.65 -28.85 L21.1 -27.5 Q17.3 -17.3 14.6 -6.6 L13.65 -2.75 23.05 -2.2 Q26.4 -1.85 25.6 1.25 25.1 3.15 23.05 3.2 L12.25 3.75 Q10.85 3.85 9.5 3.35 6.3 2.15 7.15 -1.5 8.5 -7.25 10.6 -12.75 12.0 -20.75 14.9 -28.3 15.55 -29.95 15.85 -31.75 L15.7 -32.05 15.6 -32.65 15.6 -32.9 Q9.2 -40.25 4.3 -48.5 L4.05 -49.05 Q3.35 -48.3 3.0 -47.05 2.75 -46.25 2.15 -45.6 1.15 -38.95 0.85 -32.05 L0.85 -30.6 Q1.0 -27.45 -1.4 -25.5 -2.95 -24.2 -4.05 -22.5 -9.65 -13.95 -16.7 -6.4 -14.9 -3.6 -12.55 -1.25 L-12.0 -0.75 Q-8.7 -1.35 -7.0 1.1 -5.8 2.8 -7.4 4.1 -9.65 5.9 -12.55 5.15 -12.9 4.8 -13.45 4.75 L-13.8 4.75 Q-16.95 3.45 -19.25 0.7 -21.8 -2.4 -22.95 -6.1 -23.35 -7.35 -22.7 -8.45 L-20.55 -11.3 Q-13.3 -19.15 -7.3 -27.75 L-5.6 -30.4 Q-5.1 -31.2 -5.0 -32.25 -4.15 -38.7 -3.75 -45.2 -3.6 -47.55 -2.65 -49.6 -0.85 -53.4 -0.3 -57.55 L0.0 -58.6 Q0.4 -63.95 2.05 -69.05 5.4 -79.3 7.5 -90.1 L8.75 -96.65 Q7.7 -99.4 7.05 -102.3 6.4 -105.1 9.1 -105.95 L9.65 -106.05 M42.5 -93.6 Q36.1 -88.35 28.7 -91.8 23.85 -94.05 19.3 -96.7 L17.0 -97.9 16.05 -98.4 15.3 -96.8 Q18.8 -89.9 22.7 -83.3 L39.05 -89.0 Q42.5 -90.25 45.9 -90.65 45.95 -91.75 46.45 -92.9 L47.5 -94.65 42.5 -93.6" fill="#000000" fill-rule="evenodd" stroke="none"/>
  </g>
</svg>
