<?xml version="1.0" encoding="UTF-8" standalone="no"?>
<svg xmlns:ffdec="https://www.free-decompiler.com/flash" xmlns:xlink="http://www.w3.org/1999/xlink" ffdec:objectType="shape" height="153.85px" width="128.7px" xmlns="http://www.w3.org/2000/svg">
  <g transform="matrix(1.0, 0.0, 0.0, 1.0, 40.1, 137.85)">
    <path d="M84.0 -113.55 L83.8 -112.1 Q82.6 -108.35 82.95 -104.4 L83.6 -103.8 83.65 -103.5 83.7 -103.25 Q84.25 -102.7 85.05 -102.65 87.25 -101.6 88.6 -100.1 85.75 -98.1 83.25 -95.65 L83.25 -95.4 83.25 -94.55 Q85.2 -91.7 86.7 -88.5 82.4 -87.15 79.0 -84.5 L79.0 -84.2 Q78.9 -82.7 79.2 -81.3 79.8 -81.05 79.8 -80.45 79.55 -79.85 78.8 -79.8 73.6 -79.45 71.75 -74.65 L69.9 -74.9 Q64.6 -76.55 60.05 -79.7 L59.45 -79.85 Q55.6 -78.0 54.9 -73.3 L54.55 -73.95 48.6 -84.55 48.05 -85.1 Q45.6 -86.25 44.4 -83.15 42.65 -82.15 42.2 -80.15 39.95 -81.95 37.9 -84.0 L37.4 -83.7 Q35.75 -82.0 35.0 -79.65 33.55 -75.25 29.45 -76.9 L28.6 -77.6 26.15 -80.5 Q24.35 -82.7 22.2 -82.1 L22.05 -81.8 22.0 -81.25 21.6 -80.65 Q21.75 -79.75 21.55 -78.9 21.25 -77.55 20.45 -76.5 18.7 -74.15 18.65 -71.45 21.1 -69.6 24.0 -68.3 26.6 -66.15 28.6 -63.45 26.0 -60.0 23.9 -56.25 L23.9 -55.95 23.9 -54.8 Q24.45 -53.9 25.45 -53.65 29.5 -51.1 33.5 -48.9 32.3 -46.3 30.4 -44.0 L30.4 -43.7 Q29.85 -40.5 30.05 -37.1 L33.85 -34.45 32.0 -32.7 Q29.1 -30.0 28.9 -26.4 29.55 -25.75 30.5 -25.6 33.8 -25.05 35.75 -23.35 34.65 -22.25 33.2 -21.6 29.35 -20.0 29.65 -16.15 30.25 -15.1 31.45 -15.0 37.3 -12.25 43.6 -10.5 43.3 -8.85 41.9 -7.65 L41.9 -7.35 Q41.75 -6.0 42.1 -4.8 46.95 -3.85 50.9 -1.15 49.05 0.8 45.6 1.55 41.45 2.5 38.05 4.7 38.1 7.4 40.0 9.55 L32.25 9.9 Q26.8 10.1 25.35 15.1 22.05 14.35 18.9 12.7 16.3 11.35 13.5 10.6 L11.0 10.8 Q7.6 12.5 5.05 15.6 L2.2 13.0 2.1 12.75 2.1 12.45 1.55 11.95 Q0.6 11.35 -0.1 12.15 -3.15 15.65 -7.1 16.0 L-7.1 15.7 Q-7.4 13.6 -8.25 11.7 L-8.75 11.35 -13.5 10.75 -14.45 10.7 -27.1 10.35 -27.35 10.05 -27.4 9.75 Q-27.6 6.8 -28.5 4.0 L-29.05 3.65 Q-32.35 2.75 -35.05 2.95 L-35.05 2.7 -35.05 0.4 Q-33.25 -1.45 -31.3 -2.75 L-31.2 -4.5 -31.4 -5.15 Q-35.35 -9.8 -40.0 -13.7 L-40.0 -13.95 -40.1 -14.55 -37.3 -16.25 Q-33.4 -17.85 -31.8 -21.5 -31.6 -22.0 -31.85 -22.35 -33.95 -25.0 -37.25 -26.6 -32.45 -26.7 -27.95 -27.75 -25.95 -30.8 -26.6 -34.65 -24.7 -34.75 -23.2 -33.6 -19.8 -31.0 -16.1 -31.55 -15.8 -32.25 -16.1 -32.9 -18.0 -36.95 -18.2 -41.35 -15.55 -41.3 -13.05 -40.4 -10.05 -39.3 -8.6 -41.5 L-8.6 -41.8 -8.6 -42.65 -8.8 -42.95 -9.4 -43.8 -9.6 -44.55 -14.85 -52.45 Q-12.95 -53.4 -11.3 -54.7 -9.45 -54.8 -8.6 -56.45 L-8.6 -56.75 -8.7 -58.15 Q-11.0 -61.55 -14.0 -64.5 L-14.0 -64.75 -14.0 -66.2 Q-11.7 -68.8 -8.45 -70.2 L-8.35 -70.5 -7.85 -71.35 -7.85 -71.65 -7.85 -72.5 Q-8.6 -74.2 -10.15 -74.65 L-10.2 -74.8 Q-10.4 -75.45 -10.15 -75.95 L-8.8 -76.8 Q-3.6 -78.3 1.05 -80.85 L1.2 -81.15 1.35 -82.85 Q-2.35 -87.45 -7.1 -90.9 -5.9 -92.05 -4.2 -92.85 -1.65 -94.0 1.1 -93.8 5.2 -93.5 7.05 -96.55 L6.55 -97.45 Q1.1 -102.4 -5.0 -106.85 -0.85 -108.65 3.8 -108.05 4.95 -107.9 5.55 -108.9 L5.55 -109.15 5.35 -110.05 Q7.3 -110.95 9.0 -112.3 9.05 -112.75 8.75 -113.0 4.75 -115.9 -0.2 -117.85 L6.7 -119.8 6.85 -120.0 7.05 -120.25 Q7.65 -120.35 8.05 -120.75 8.3 -121.45 8.0 -122.05 6.4 -125.2 3.05 -127.05 L2.1 -128.2 4.7 -128.4 Q9.35 -128.85 13.2 -130.7 L13.2 -131.0 Q13.3 -131.6 13.0 -132.15 L14.9 -132.25 Q17.9 -131.05 20.65 -131.45 L20.7 -131.75 20.95 -136.65 21.15 -136.9 Q21.6 -137.25 21.7 -137.75 25.5 -138.3 28.1 -135.5 30.7 -132.7 33.5 -134.7 L35.0 -134.7 36.2 -133.8 37.25 -132.85 Q39.4 -129.25 39.3 -124.65 L40.2 -124.2 46.85 -128.95 55.5 -120.75 Q56.35 -120.95 57.0 -121.5 L60.55 -126.95 Q64.05 -124.6 66.35 -120.85 66.8 -120.1 67.65 -120.3 72.05 -121.2 75.2 -124.75 L76.35 -121.55 Q77.45 -118.05 79.4 -115.3 L79.45 -115.0 79.5 -114.7 Q81.15 -112.25 84.0 -113.55" fill="#ffff00" fill-opacity="0.5019608" fill-rule="evenodd" stroke="none"/>
  </g>
</svg>
