<?xml version="1.0" encoding="UTF-8" standalone="no"?>
<svg xmlns:ffdec="https://www.free-decompiler.com/flash" xmlns:xlink="http://www.w3.org/1999/xlink" ffdec:objectType="shape" height="129.75px" width="100.8px" xmlns="http://www.w3.org/2000/svg">
  <g transform="matrix(1.0, 0.0, 0.0, 1.0, 27.3, 123.35)">
    <path d="M15.4 -119.9 Q18.85 -123.35 23.75 -123.35 28.65 -123.35 32.1 -119.9 35.55 -116.45 35.55 -111.55 35.55 -109.75 35.1 -108.1 44.0 -109.65 53.15 -109.8 L63.1 -110.45 Q65.15 -110.7 66.55 -112.3 67.5 -113.35 68.8 -113.5 70.85 -113.35 71.45 -111.5 L71.55 -111.2 Q75.3 -108.6 71.8 -105.95 71.35 -105.55 70.7 -105.55 L63.7 -104.6 59.45 -104.1 38.35 -102.3 36.15 -101.9 30.45 -101.75 30.25 -101.65 32.45 -101.25 Q43.3 -99.75 54.25 -101.1 L63.5 -101.9 Q64.25 -101.95 64.85 -102.4 68.9 -105.55 72.8 -102.8 73.5 -102.3 73.45 -101.4 73.3 -98.7 71.0 -97.05 73.65 -92.95 70.0 -90.15 69.2 -89.55 68.25 -89.95 65.75 -91.0 64.4 -93.55 63.95 -94.5 64.0 -95.65 L37.1 -95.05 34.8 -95.15 Q25.35 -95.9 16.25 -98.6 L15.0 -95.5 Q11.25 -85.2 8.75 -74.45 L7.55 -69.5 6.3 -64.0 Q7.7 -62.75 8.7 -60.85 L11.25 -55.75 Q14.9 -48.4 18.9 -41.2 20.15 -39.0 20.6 -36.4 20.95 -34.7 20.45 -33.0 19.6 -30.05 18.25 -27.25 16.35 -18.3 15.5 -9.1 L14.8 -4.2 Q16.6 -3.2 19.4 -3.3 22.65 -3.4 25.35 -2.05 26.8 -1.35 26.55 0.3 26.25 2.65 23.85 2.85 16.05 3.5 9.45 0.05 8.75 -0.3 8.8 -1.1 9.25 -8.65 10.25 -16.1 11.55 -26.05 14.8 -35.4 L5.7 -52.85 Q2.55 -43.4 2.35 -33.3 2.25 -28.95 0.7 -25.05 0.4 -24.3 -0.35 -23.9 -8.05 -19.5 -13.9 -13.05 L-19.3 -6.8 -16.15 -4.0 -12.9 -1.5 Q-9.95 0.8 -6.05 0.85 -5.45 0.9 -5.15 1.45 -3.2 5.2 -7.3 6.2 L-9.5 6.35 Q-14.95 5.9 -18.85 1.75 -21.65 -1.2 -25.3 -3.05 -28.6 -4.7 -26.45 -7.5 L-23.95 -10.65 Q-21.0 -14.35 -17.65 -17.85 -13.15 -22.65 -7.65 -26.4 L-4.1 -28.7 Q-3.05 -38.8 -1.5 -48.85 -0.9 -52.55 0.3 -56.15 L1.0 -58.1 Q0.55 -58.75 0.5 -59.9 L0.5 -62.7 0.55 -64.15 0.55 -64.2 Q0.95 -70.2 3.3 -75.75 5.35 -85.9 8.55 -95.7 L10.35 -100.4 Q8.6 -101.35 9.5 -103.6 10.2 -105.35 11.95 -105.45 L12.9 -105.35 13.15 -105.85 13.3 -106.0 Q11.95 -108.5 11.95 -111.55 11.95 -116.45 15.4 -119.9" fill="#000000" fill-rule="evenodd" stroke="none"/>
  </g>
</svg>
