<?xml version="1.0" encoding="UTF-8" standalone="no"?>
<svg xmlns:ffdec="https://www.free-decompiler.com/flash" xmlns:xlink="http://www.w3.org/1999/xlink" ffdec:objectType="shape" height="161.7px" width="129.55px" xmlns="http://www.w3.org/2000/svg">
  <g transform="matrix(1.0, 0.0, 0.0, 1.0, 41.35, 139.4)">
    <path d="M83.05 -121.5 Q83.95 -122.05 84.4 -121.7 L84.0 -117.95 Q83.5 -113.55 83.6 -109.05 L88.2 -103.6 84.4 -100.15 84.4 -99.9 84.4 -98.75 84.75 -98.15 84.75 -97.9 84.75 -97.6 Q86.55 -95.65 87.65 -93.3 L87.35 -93.0 Q84.45 -92.6 81.9 -91.25 81.6 -90.9 81.65 -90.4 82.25 -86.55 82.45 -82.65 78.0 -82.5 75.6 -78.55 73.0 -79.25 70.9 -80.95 L67.4 -83.65 66.8 -83.7 Q63.35 -81.2 59.4 -81.25 L58.8 -81.7 Q56.8 -82.85 55.45 -84.5 54.4 -85.75 52.55 -84.9 48.5 -82.9 44.95 -80.0 L44.3 -79.9 Q41.1 -81.7 38.65 -84.4 35.6 -82.75 33.5 -80.0 L32.6 -80.0 Q31.2 -81.45 29.35 -82.3 28.0 -85.15 25.55 -84.3 24.95 -82.95 25.0 -81.4 L25.05 -72.8 24.3 -71.95 24.3 -71.65 24.2 -71.1 22.55 -70.2 22.45 -69.9 Q22.3 -69.35 22.5 -68.8 L23.15 -67.95 23.15 -67.65 23.15 -67.35 27.35 -61.9 27.35 -61.6 27.35 -61.35 Q29.9 -58.45 31.95 -55.3 L31.95 -55.0 Q32.05 -53.9 32.7 -53.0 L32.65 -52.75 32.25 -51.55 30.9 -51.05 Q25.85 -48.8 28.9 -44.3 L28.9 -44.0 28.9 -43.7 Q32.85 -39.8 36.25 -35.7 32.35 -33.75 29.25 -30.8 L29.25 -30.25 29.25 -28.8 37.7 -20.65 36.05 -19.25 Q33.0 -17.55 32.35 -14.65 33.1 -13.6 34.35 -13.3 37.05 -10.95 40.0 -8.7 L39.85 -8.45 Q39.55 -8.05 39.6 -7.55 L38.95 -7.0 38.75 -6.45 Q38.25 -5.2 38.45 -3.8 L38.9 -3.35 49.85 4.2 Q47.5 4.05 45.75 5.35 43.3 5.2 42.3 7.3 L42.3 8.15 43.05 15.3 38.3 14.95 Q35.7 14.5 33.1 15.4 28.25 17.05 29.25 22.3 27.15 21.7 25.1 20.7 L22.7 19.55 Q18.75 17.65 14.45 16.6 13.4 16.3 12.6 16.9 10.15 18.7 10.4 22.0 L9.95 22.0 Q5.55 20.5 1.95 17.5 -2.4 13.8 -5.95 17.6 -7.1 17.6 -7.85 18.35 L-8.6 18.35 Q-10.9 15.7 -12.05 12.45 -12.3 12.15 -12.55 12.15 L-22.6 12.65 Q-23.75 9.35 -25.6 6.2 -26.15 5.25 -27.2 5.1 L-34.65 4.5 Q-33.55 1.6 -33.0 -1.5 -32.05 -6.6 -37.15 -6.8 -40.25 -6.95 -41.35 -8.6 L-40.35 -9.5 -32.85 -17.2 -32.75 -17.5 -32.75 -18.35 -22.9 -18.8 Q-21.8 -18.85 -21.25 -19.7 L-21.25 -23.7 -21.25 -32.6 -20.95 -32.9 -13.4 -33.35 Q-13.2 -33.35 -13.0 -33.5 -12.4 -37.6 -13.85 -41.4 -15.6 -45.95 -15.7 -50.4 L-14.75 -51.3 Q-9.35 -50.9 -5.55 -54.15 L-5.65 -54.7 Q-7.2 -59.65 -11.3 -63.35 -7.75 -67.1 -2.9 -69.45 L-2.85 -70.05 Q-2.8 -70.95 -3.05 -71.75 -3.7 -72.15 -3.85 -72.9 -6.9 -76.4 -10.65 -79.2 L-10.55 -79.5 -10.35 -80.1 Q-8.8 -80.75 -7.6 -81.8 L-6.95 -82.25 Q-1.65 -84.35 -2.6 -89.55 L-9.2 -95.6 1.35 -99.9 Q2.1 -100.3 2.1 -99.7 2.6 -98.6 3.8 -99.0 4.3 -99.25 4.4 -99.8 L4.35 -100.05 3.8 -101.2 Q2.8 -101.9 2.5 -102.95 L3.65 -104.65 Q2.6 -107.2 -0.5 -108.4 0.7 -109.4 2.25 -109.8 L5.65 -110.8 Q9.6 -112.05 9.35 -115.75 L7.45 -117.05 Q5.1 -117.95 4.0 -119.1 L5.4 -120.05 Q9.55 -121.8 9.75 -125.7 L9.25 -126.6 Q12.3 -127.3 14.65 -128.95 L14.7 -129.25 Q14.85 -130.2 14.55 -131.0 L20.95 -131.35 21.1 -131.65 Q22.4 -134.45 22.75 -137.4 L23.05 -137.7 24.0 -139.4 Q25.8 -138.65 27.35 -136.9 L31.65 -131.85 Q32.05 -130.45 33.3 -129.95 35.55 -130.95 37.5 -132.5 L39.5 -129.95 41.3 -127.15 Q43.45 -124.0 46.7 -123.5 L48.3 -125.15 49.15 -125.15 Q52.35 -123.7 55.45 -121.95 57.5 -120.8 59.2 -122.3 63.6 -126.15 68.4 -123.5 L69.2 -123.35 Q73.3 -124.2 76.25 -127.55 L76.65 -127.55 78.35 -125.65 Q80.35 -123.1 83.05 -121.5" fill="#ffff00" fill-opacity="0.5019608" fill-rule="evenodd" stroke="none"/>
  </g>
</svg>
