<?xml version="1.0" encoding="UTF-8" standalone="no"?>
<svg xmlns:ffdec="https://www.free-decompiler.com/flash" xmlns:xlink="http://www.w3.org/1999/xlink" ffdec:objectType="shape" height="130.0px" width="105.75px" xmlns="http://www.w3.org/2000/svg">
  <g transform="matrix(1.0, 0.0, 0.0, 1.0, 26.25, 123.0)">
    <path d="M13.45 -104.1 L15.1 -103.85 13.55 -104.95 Q11.8 -107.7 11.8 -111.2 11.8 -116.1 15.25 -119.55 18.7 -123.0 23.6 -123.0 28.5 -123.0 31.95 -119.55 35.4 -116.1 35.4 -111.2 L35.4 -110.55 42.15 -111.5 62.85 -113.4 63.4 -113.5 77.4 -113.1 Q79.05 -113.05 79.35 -111.45 80.4 -106.2 74.9 -105.4 73.0 -105.15 71.3 -106.0 L70.4 -106.0 70.0 -105.8 Q66.2 -104.3 63.45 -106.6 63.05 -106.95 63.0 -107.35 52.75 -106.9 42.7 -105.3 L34.1 -105.7 Q33.25 -104.15 31.95 -102.85 L30.5 -101.6 Q43.3 -100.85 56.1 -101.95 L57.85 -102.0 Q63.75 -101.85 69.3 -103.0 72.65 -103.7 75.7 -104.65 80.3 -103.55 78.55 -98.9 L78.4 -98.6 Q79.8 -93.9 75.75 -92.2 73.6 -91.3 71.5 -92.2 68.1 -93.65 66.3 -96.4 58.55 -96.55 50.7 -96.1 40.45 -95.5 30.2 -95.8 L27.75 -95.85 20.4 -96.5 Q18.9 -91.75 16.25 -87.45 10.5 -78.0 8.85 -67.1 L8.35 -63.7 Q10.05 -62.6 11.15 -60.55 L12.05 -59.0 Q16.8 -51.8 20.25 -44.05 22.3 -39.4 19.45 -35.1 L18.85 -33.85 Q17.4 -28.45 17.5 -22.65 17.75 -11.85 17.45 -1.15 L18.05 -1.3 Q23.85 -1.55 29.2 -0.05 30.25 0.25 30.4 1.35 30.75 4.3 27.65 4.45 L18.4 5.0 14.75 4.65 Q13.7 4.9 12.4 3.75 10.95 2.5 11.1 0.5 11.75 -10.6 11.8 -21.7 11.85 -27.65 12.6 -33.5 13.1 -37.2 15.1 -40.4 11.95 -48.35 6.95 -55.3 L5.15 -45.45 3.65 -37.4 1.35 -24.8 0.95 -24.2 -15.1 -8.95 -17.6 -7.05 -18.6 -6.15 Q-16.8 -4.2 -13.8 -2.5 -11.1 -0.95 -8.55 0.8 -4.95 0.05 -2.45 2.15 -0.65 3.6 -2.0 5.5 -2.8 6.65 -4.2 6.85 -7.6 7.4 -10.75 6.2 -12.8 5.4 -14.6 4.15 -18.65 1.35 -23.0 -1.05 -26.8 -3.1 -26.15 -6.85 -25.95 -7.7 -25.2 -8.25 -16.05 -14.75 -8.85 -23.1 L-5.55 -26.5 -3.75 -28.2 Q-3.25 -33.45 -2.4 -38.55 -2.25 -39.4 -1.7 -40.05 -0.95 -49.7 1.25 -59.1 2.05 -62.3 2.45 -65.65 4.0 -76.9 9.2 -87.1 L11.7 -91.55 Q13.5 -94.5 14.4 -97.75 9.35 -99.1 11.5 -103.1 12.1 -104.25 13.45 -104.1" fill="#000000" fill-rule="evenodd" stroke="none"/>
  </g>
</svg>
