<?xml version="1.0" encoding="UTF-8" standalone="no"?>
<svg xmlns:ffdec="https://www.free-decompiler.com/flash" xmlns:xlink="http://www.w3.org/1999/xlink" ffdec:objectType="shape" height="151.0px" width="134.15px" xmlns="http://www.w3.org/2000/svg">
  <g transform="matrix(1.0, 0.0, 0.0, 1.0, 40.95, 132.05)">
    <path d="M82.2 -104.3 Q82.65 -102.8 82.55 -101.1 L82.45 -97.7 83.0 -97.25 92.5 -93.3 Q91.6 -92.1 90.4 -91.15 88.6 -89.7 89.05 -87.55 L91.35 -85.4 Q92.95 -83.85 93.2 -81.8 L85.05 -80.95 Q81.8 -80.75 79.4 -79.4 79.4 -78.55 79.65 -77.75 L80.25 -75.95 Q74.45 -75.65 68.5 -75.85 67.7 -75.9 67.55 -75.2 L67.55 -74.65 67.5 -74.05 67.45 -73.75 66.9 -73.15 65.95 -71.3 Q65.55 -70.1 65.65 -68.8 L60.45 -66.2 58.75 -66.2 Q55.3 -69.6 52.4 -73.3 49.55 -71.5 46.85 -69.35 L46.85 -69.95 46.85 -70.2 45.9 -71.9 Q44.35 -75.55 43.8 -79.4 43.5 -80.0 42.95 -79.85 37.4 -78.05 33.3 -73.65 L32.95 -73.75 32.7 -73.95 32.65 -74.2 Q31.25 -77.85 28.3 -80.15 L28.3 -80.1 27.95 -80.05 27.75 -80.0 27.55 -79.8 26.2 -78.85 26.2 -78.25 25.9 -77.4 24.7 -76.55 24.65 -75.95 24.5 -75.4 22.5 -75.3 22.25 -75.45 21.4 -75.95 20.85 -75.75 20.65 -75.6 20.25 -74.15 19.6 -69.25 19.4 -69.0 18.95 -68.4 18.9 -66.95 Q18.85 -65.35 19.05 -63.8 24.5 -62.45 29.65 -60.1 L29.45 -58.65 29.25 -54.05 Q30.75 -52.75 31.95 -52.45 29.65 -49.15 26.95 -46.1 L26.95 -45.25 Q26.85 -44.45 27.15 -43.8 L35.95 -38.1 35.9 -37.85 32.35 -33.6 32.35 -33.0 32.35 -32.15 Q34.45 -29.7 37.3 -27.85 34.85 -26.2 32.7 -24.3 L32.7 -23.7 32.7 -22.6 33.35 -22.1 Q39.2 -18.4 35.0 -12.8 L35.0 -11.65 35.1 -10.25 Q40.55 -7.8 44.6 -3.55 42.9 -1.65 40.6 -0.45 L40.3 -0.15 Q39.15 3.55 41.5 7.3 37.35 5.45 34.65 8.15 L34.45 8.7 Q32.75 12.3 30.3 15.5 27.4 13.55 24.75 11.1 24.3 9.8 22.95 9.9 21.5 10.0 20.4 10.75 17.05 13.0 13.6 14.15 L4.2 7.45 Q2.35 8.0 1.7 9.75 0.4 13.2 -2.1 16.1 L-4.05 15.55 Q-7.6 13.95 -9.4 17.3 L-9.4 17.6 -9.5 17.9 -9.8 18.15 -10.65 18.95 -10.9 18.55 -12.05 17.4 -12.25 16.85 Q-12.55 15.8 -13.5 15.3 L-13.55 15.0 -13.6 14.75 Q-13.9 14.15 -14.5 14.25 L-22.4 15.8 -22.45 14.9 Q-22.65 13.55 -23.55 12.65 -23.45 10.5 -24.35 8.6 -24.6 8.0 -25.25 8.1 L-33.5 9.2 -33.25 8.65 -32.8 7.6 Q-31.75 4.95 -31.05 2.25 L-30.75 2.3 -23.75 2.85 -23.6 2.3 -23.55 2.0 -23.55 1.75 Q-26.05 0.25 -29.35 0.05 L-30.55 0.0 -30.45 -0.55 -30.65 -0.8 -31.4 -1.35 -31.75 -1.2 -32.35 -0.75 -32.35 -0.15 -40.95 -0.65 Q-39.1 -1.45 -37.15 -1.85 -32.55 -2.8 -32.85 -6.9 L-33.05 -7.15 Q-36.55 -10.05 -40.85 -11.1 -39.7 -11.35 -38.7 -11.95 -37.85 -12.5 -37.45 -13.35 -36.45 -15.4 -37.7 -17.2 L-37.7 -17.8 -37.7 -18.35 -37.7 -18.65 Q-35.2 -20.5 -32.1 -19.85 -26.7 -18.7 -21.55 -18.85 -20.85 -21.3 -22.15 -23.7 L-25.15 -29.45 Q-20.6 -29.15 -16.45 -30.4 -16.5 -33.8 -18.25 -36.7 -20.1 -39.85 -19.55 -43.35 -14.7 -43.9 -9.95 -45.35 L-9.8 -45.95 -9.75 -46.2 -9.75 -46.5 -11.7 -49.45 -14.0 -52.8 -11.65 -53.0 Q-7.5 -53.45 -4.1 -55.1 -3.9 -56.25 -4.2 -57.4 -4.55 -58.75 -5.35 -59.85 L-9.0 -65.45 -8.8 -65.65 Q-5.75 -66.8 -3.0 -68.1 L-2.9 -68.4 -2.9 -69.85 -2.9 -71.0 -3.4 -71.9 Q-3.9 -72.8 -4.9 -73.3 L-5.65 -75.0 -7.0 -77.0 Q-3.3 -76.8 -0.95 -79.05 -1.25 -80.65 -2.6 -81.75 -5.95 -84.45 -8.7 -87.65 L1.15 -88.6 1.25 -88.9 1.3 -89.75 1.25 -90.3 0.4 -91.4 -0.1 -92.35 Q0.9 -94.2 2.55 -95.5 4.9 -97.4 5.15 -100.1 1.4 -101.9 -3.25 -101.4 L-3.25 -101.6 -3.25 -101.9 -3.25 -102.2 -0.25 -107.4 Q0.35 -108.35 0.5 -109.4 1.0 -112.9 0.95 -116.55 -0.4 -117.75 -1.25 -117.6 L-0.05 -118.5 2.75 -121.05 2.8 -121.3 2.9 -122.75 2.65 -124.2 2.25 -124.4 Q0.55 -125.0 -0.7 -126.3 L9.55 -126.85 Q10.1 -126.9 10.4 -127.45 10.75 -128.5 10.2 -129.5 L8.6 -132.05 Q15.85 -131.25 22.15 -127.75 L23.45 -127.7 Q26.1 -129.35 28.0 -132.05 L29.25 -132.05 29.6 -131.8 30.5 -131.15 Q30.9 -130.15 31.6 -129.35 32.65 -128.15 32.8 -126.6 L33.55 -126.45 Q37.5 -127.75 41.8 -127.55 L42.0 -127.35 42.15 -127.05 42.3 -126.75 40.4 -124.5 37.4 -121.05 37.05 -119.55 Q36.85 -118.85 37.0 -118.15 37.15 -118.0 37.35 -117.95 L42.45 -116.15 42.6 -115.85 42.65 -113.55 42.65 -111.0 43.35 -110.25 44.0 -109.65 44.4 -109.75 44.6 -109.85 44.75 -110.05 44.95 -110.3 45.85 -110.55 Q49.6 -111.25 52.9 -112.9 L52.95 -112.3 52.95 -110.6 53.1 -108.6 53.85 -108.45 Q56.2 -109.0 58.3 -110.55 61.2 -112.65 64.4 -113.4 66.65 -110.25 69.2 -107.25 69.7 -106.7 70.3 -106.9 73.4 -107.95 75.6 -110.8 L76.15 -109.95 77.45 -107.75 Q79.25 -104.25 82.1 -104.55 L82.2 -104.3" fill="#ffff00" fill-opacity="0.5019608" fill-rule="evenodd" stroke="none"/>
  </g>
</svg>
