<?xml version="1.0" encoding="UTF-8" standalone="no"?>
<svg xmlns:ffdec="https://www.free-decompiler.com/flash" xmlns:xlink="http://www.w3.org/1999/xlink" ffdec:objectType="shape" height="130.85px" width="102.65px" xmlns="http://www.w3.org/2000/svg">
  <g transform="matrix(1.0, 0.0, 0.0, 1.0, 25.15, 123.4)">
    <path d="M10.95 -105.35 Q9.2 -108.1 9.2 -111.6 9.2 -116.5 12.65 -119.95 16.1 -123.4 21.0 -123.4 25.9 -123.4 29.35 -119.95 32.8 -116.5 32.8 -111.6 32.8 -108.45 31.35 -105.85 L50.9 -102.6 72.8 -98.3 Q78.6 -97.1 77.25 -91.85 76.85 -90.35 75.25 -89.9 69.3 -88.2 67.15 -93.4 L50.9 -96.7 43.55 -98.05 38.65 -98.65 Q32.6 -99.05 27.45 -101.65 26.6 -101.1 25.7 -100.7 L26.55 -100.05 46.45 -89.15 Q51.6 -86.25 57.05 -84.1 61.7 -88.0 64.8 -83.1 65.2 -82.4 65.1 -81.5 64.6 -76.5 58.85 -77.65 52.9 -78.9 47.5 -81.75 42.35 -84.45 37.35 -87.6 35.5 -88.75 33.45 -89.5 32.05 -89.95 30.85 -90.75 L20.5 -97.0 Q18.0 -91.4 14.9 -86.05 L11.0 -70.45 Q10.8 -69.55 10.2 -68.75 8.75 -66.0 10.3 -63.7 L13.65 -58.85 17.6 -53.6 Q21.45 -48.75 23.85 -43.0 24.8 -40.7 23.2 -38.6 L22.6 -37.3 Q20.5 -30.0 19.9 -22.35 19.4 -16.5 17.95 -10.8 16.9 -6.9 17.1 -2.75 L28.45 0.65 Q29.15 0.9 29.15 1.75 29.2 6.05 24.25 5.15 18.2 4.1 12.75 1.7 11.25 1.05 11.25 -0.55 11.1 -11.2 13.75 -21.35 L14.1 -23.05 Q14.85 -29.4 16.1 -35.65 16.75 -38.9 17.8 -42.05 L16.95 -43.8 16.65 -44.9 Q11.1 -51.6 6.3 -58.65 L5.35 -54.1 3.4 -39.2 2.2 -28.8 Q1.85 -25.45 0.8 -22.25 0.4 -21.1 -0.45 -20.2 L-5.3 -14.55 Q-7.35 -11.85 -10.35 -9.75 L-16.3 -5.75 Q-12.45 -2.4 -8.35 0.45 -6.25 1.9 -3.85 2.7 -2.7 3.05 -2.65 4.35 -2.55 7.1 -5.35 7.4 -9.15 7.85 -12.05 5.35 -18.1 0.1 -24.6 -4.15 -25.25 -4.55 -25.15 -5.35 -24.75 -8.6 -21.3 -9.95 -19.35 -10.75 -17.55 -11.85 -11.4 -15.65 -7.0 -21.5 L-5.45 -23.6 Q-3.65 -26.15 -3.55 -29.45 L-3.15 -33.2 Q-1.9 -40.2 -1.45 -47.35 -1.05 -53.6 0.05 -59.75 0.95 -64.9 3.95 -69.1 L4.2 -69.35 5.1 -71.7 Q7.0 -81.65 11.0 -90.9 12.65 -94.7 14.7 -98.25 L15.4 -100.95 15.1 -101.2 14.65 -101.75 Q13.15 -104.05 10.95 -105.35" fill="#000000" fill-rule="evenodd" stroke="none"/>
  </g>
</svg>
