<?xml version="1.0" encoding="UTF-8" standalone="no"?>
<svg xmlns:ffdec="https://www.free-decompiler.com/flash" xmlns:xlink="http://www.w3.org/1999/xlink" ffdec:objectType="shape" height="154.0px" width="98.55px" xmlns="http://www.w3.org/2000/svg">
  <g transform="matrix(1.0, 0.0, 0.0, 1.0, 40.65, 133.8)">
    <path d="M23.1 -130.0 L23.25 -130.9 23.7 -131.2 Q24.9 -132.25 25.25 -133.75 25.6 -133.95 25.6 -133.3 25.65 -131.5 26.2 -129.85 L26.6 -129.25 26.6 -128.95 26.6 -127.8 27.15 -127.25 Q27.45 -126.95 27.7 -127.0 33.8 -127.6 39.2 -127.15 L39.15 -126.85 Q38.5 -124.4 36.55 -122.85 L36.55 -122.55 Q36.45 -121.7 36.65 -120.85 41.3 -119.55 46.1 -118.75 L38.45 -111.35 Q38.65 -110.3 39.8 -110.05 L49.15 -108.95 Q48.6 -107.9 48.4 -106.75 47.75 -102.7 47.75 -98.65 L51.45 -97.3 Q51.65 -97.05 51.9 -97.05 55.65 -96.5 57.9 -93.4 55.2 -89.8 51.1 -87.65 L51.05 -87.35 51.0 -86.8 49.55 -85.35 49.55 -85.05 49.65 -83.35 Q52.65 -81.8 54.8 -79.2 L52.25 -78.55 Q46.25 -76.4 46.3 -69.85 40.85 -72.65 35.7 -76.55 33.35 -78.35 31.2 -77.3 L30.95 -75.95 Q29.6 -72.3 29.25 -68.4 27.0 -67.6 25.45 -66.0 L25.45 -65.75 25.55 -64.6 26.4 -64.0 Q28.8 -62.1 30.8 -59.6 L30.8 -59.3 30.8 -57.9 30.4 -57.3 30.3 -56.45 Q29.55 -54.4 29.65 -52.15 30.85 -49.8 33.55 -49.85 35.3 -48.75 37.1 -47.95 L36.55 -47.45 36.55 -47.15 36.55 -46.6 Q35.85 -46.2 35.6 -45.45 34.2 -45.0 33.5 -43.8 L33.45 -43.55 33.55 -42.4 Q38.7 -39.9 42.3 -35.6 L42.3 -35.3 Q42.4 -34.8 42.1 -34.45 38.55 -32.85 35.4 -30.9 L35.4 -30.6 Q35.3 -29.6 35.5 -28.6 L36.25 -27.8 43.7 -18.25 Q40.1 -16.65 36.55 -14.9 L36.55 -14.35 Q36.45 -13.05 36.65 -11.75 L37.4 -11.2 37.75 -10.35 40.35 -5.75 Q37.2 -5.4 35.75 -2.6 35.7 -1.55 35.95 -0.6 L37.3 7.2 37.7 7.75 37.7 8.05 37.6 9.2 Q33.6 7.95 30.8 10.7 L30.8 11.0 30.8 11.3 30.45 11.6 Q26.05 15.45 23.05 20.2 22.3 19.5 21.85 18.6 L20.35 16.35 Q19.6 15.35 18.45 15.25 12.05 14.6 6.8 17.8 L6.55 17.25 Q5.8 15.55 5.45 13.8 L4.95 13.2 Q4.5 12.65 3.85 12.7 -3.6 13.05 -10.55 14.95 L-10.55 14.75 -10.9 14.15 -10.9 13.9 -11.0 11.85 -11.8 11.05 Q-12.35 10.65 -12.95 10.6 L-24.3 11.0 -24.3 10.45 -24.3 7.85 Q-29.15 5.6 -34.0 3.95 -33.2 3.55 -32.75 2.85 L-32.75 2.6 -32.75 0.6 -33.6 -0.55 -33.7 -0.85 Q-36.4 -5.4 -40.3 -9.2 L-40.65 -10.05 -32.15 -10.65 -31.5 -10.8 -31.35 -11.4 Q-31.3 -12.7 -31.6 -13.95 L-32.05 -14.9 Q-33.4 -18.0 -35.1 -20.85 L-35.2 -21.15 Q-35.55 -22.3 -35.3 -23.45 L-35.05 -23.7 -26.5 -23.45 Q-26.1 -23.95 -26.3 -24.55 -27.35 -28.3 -28.9 -31.75 -26.15 -31.65 -23.35 -31.8 -20.05 -31.9 -16.95 -30.85 -13.55 -29.65 -12.05 -31.85 L-16.1 -36.15 Q-17.45 -36.55 -18.1 -37.6 -17.3 -38.05 -16.4 -38.15 -12.75 -38.65 -9.85 -40.55 L-9.8 -41.15 Q-9.6 -44.5 -12.65 -46.3 L-12.8 -46.55 Q-15.5 -49.3 -16.85 -52.35 L-16.55 -52.9 Q-12.3 -54.4 -8.45 -56.45 L-8.35 -56.75 -8.25 -57.6 Q-8.65 -58.35 -9.6 -58.45 -12.8 -62.3 -16.55 -65.55 L-16.65 -65.85 -17.05 -68.1 -8.9 -70.5 Q-8.35 -71.45 -9.05 -72.3 -12.85 -76.65 -14.35 -82.0 L-14.0 -82.3 Q-9.55 -82.15 -5.95 -83.6 L-5.95 -83.9 -5.95 -85.9 -7.1 -87.65 -7.1 -87.9 -7.1 -89.95 -6.45 -90.35 Q-2.25 -91.65 0.2 -95.1 L0.2 -95.4 0.2 -96.25 -0.2 -96.8 -0.2 -97.1 -0.2 -97.4 -2.9 -99.2 -2.85 -99.5 Q-2.15 -102.35 0.45 -104.1 L0.65 -104.65 Q1.1 -105.75 0.95 -106.95 L0.35 -108.1 Q-3.4 -109.85 -6.15 -112.3 -5.05 -112.95 -3.85 -113.15 -2.85 -113.3 -2.1 -113.95 2.15 -117.6 -1.25 -122.35 L-1.45 -123.2 Q-1.95 -124.9 -2.1 -126.65 L2.45 -124.7 Q3.15 -124.4 3.65 -124.85 7.5 -128.1 9.0 -133.2 L9.35 -133.2 Q10.65 -131.9 12.45 -131.55 15.55 -128.15 19.9 -126.5 L20.25 -126.6 20.65 -126.85 Q21.45 -128.65 23.05 -129.75 L23.1 -130.0" fill="#ffff00" fill-opacity="0.5019608" fill-rule="evenodd" stroke="none"/>
  </g>
</svg>
