<?xml version="1.0" encoding="UTF-8" standalone="no"?>
<svg xmlns:ffdec="https://www.free-decompiler.com/flash" xmlns:xlink="http://www.w3.org/1999/xlink" ffdec:objectType="shape" height="128.15px" width="67.05px" xmlns="http://www.w3.org/2000/svg">
  <g transform="matrix(1.0, 0.0, 0.0, 1.0, 24.7, 123.7)">
    <path d="M19.4 -123.7 Q24.3 -123.7 27.75 -120.25 31.2 -116.8 31.2 -111.9 31.2 -109.25 30.2 -107.0 L30.3 -106.95 30.35 -106.95 Q34.15 -105.9 35.9 -102.05 L36.05 -101.8 Q42.05 -96.65 42.35 -88.55 42.45 -85.2 40.2 -83.45 L39.95 -83.1 Q39.3 -82.05 38.05 -81.95 33.3 -81.55 32.35 -85.6 31.7 -88.4 34.2 -89.85 33.7 -92.0 32.1 -93.7 31.7 -94.15 31.7 -94.75 28.95 -98.6 26.95 -102.8 24.55 -100.8 21.6 -100.25 L21.45 -100.3 20.9 -99.55 19.05 -96.85 19.1 -94.65 19.6 -88.05 Q25.85 -85.9 23.2 -79.8 22.95 -79.2 22.35 -78.9 16.95 -76.45 14.55 -81.4 L14.5 -81.55 Q13.65 -82.35 13.2 -83.55 L9.55 -73.9 Q8.3 -70.5 7.95 -66.8 L7.9 -66.3 Q10.1 -65.1 11.1 -62.2 11.55 -60.85 12.35 -59.6 L20.25 -46.75 Q25.2 -44.05 22.8 -38.0 18.75 -27.75 18.65 -16.6 18.65 -10.35 17.9 -4.2 19.35 -3.0 21.9 -2.95 27.15 -2.95 28.7 1.45 29.05 2.5 28.2 3.25 25.8 5.4 22.8 3.65 L21.25 3.25 Q15.35 3.0 12.1 -1.5 11.7 -2.05 11.8 -2.75 12.95 -13.65 13.6 -24.65 13.85 -29.2 15.1 -33.6 16.2 -37.55 17.7 -41.35 16.55 -42.45 16.15 -43.4 L13.15 -47.3 7.95 -55.1 7.15 -53.3 Q5.35 -45.7 4.55 -38.05 4.2 -34.75 2.05 -32.1 L-1.45 -27.35 Q-6.4 -19.95 -13.9 -14.8 L-15.2 -13.65 -17.45 -10.95 Q-13.85 -8.6 -9.35 -7.5 -5.15 -6.45 -2.8 -3.25 -2.4 -2.7 -2.7 -2.05 -4.75 1.85 -9.05 -0.65 L-10.45 -1.25 Q-17.2 -3.5 -23.05 -7.5 -25.75 -9.35 -24.0 -12.1 -21.65 -15.8 -18.15 -18.75 -13.05 -23.0 -8.6 -27.95 L-7.55 -29.25 Q-3.9 -34.1 -1.2 -39.4 L-0.9 -40.4 Q-0.55 -47.25 1.1 -53.75 L3.0 -62.55 Q1.1 -63.95 1.6 -66.85 3.55 -77.7 7.9 -87.95 L10.85 -94.85 Q11.8 -97.1 13.05 -99.15 L13.0 -99.75 Q12.9 -100.95 13.05 -102.05 11.5 -104.35 9.35 -105.65 7.6 -108.4 7.6 -111.9 7.6 -116.8 11.05 -120.25 14.5 -123.7 19.4 -123.7" fill="#000000" fill-rule="evenodd" stroke="none"/>
  </g>
</svg>
