<?xml version="1.0" encoding="UTF-8" standalone="no"?>
<svg xmlns:ffdec="https://www.free-decompiler.com/flash" xmlns:xlink="http://www.w3.org/1999/xlink" ffdec:objectType="shape" height="129.95px" width="52.15px" xmlns="http://www.w3.org/2000/svg">
  <g transform="matrix(1.0, 0.0, 0.0, 1.0, 23.2, 124.45)">
    <path d="M8.8 -121.0 Q12.25 -124.45 17.15 -124.45 22.05 -124.45 25.5 -121.0 28.95 -117.55 28.95 -112.65 28.95 -109.65 27.7 -107.2 28.8 -105.5 27.45 -102.7 26.0 -99.55 24.0 -96.65 23.5 -93.25 22.35 -89.8 L19.4 -80.95 Q18.3 -75.05 16.6 -69.3 16.9 -68.35 16.5 -67.25 17.0 -65.75 16.7 -63.7 L16.25 -59.45 Q15.7 -48.4 15.6 -37.25 L15.6 -36.65 Q20.55 -26.55 23.75 -15.65 24.8 -12.1 25.3 -8.4 25.4 -7.65 24.8 -7.15 25.25 -5.75 24.65 -3.7 24.4 -2.85 23.65 -2.3 23.5 2.05 20.75 5.0 20.05 5.75 19.1 5.35 15.5 3.75 16.8 -0.25 L17.4 -1.6 17.8 -2.2 Q17.75 -3.7 18.35 -5.1 L19.05 -6.2 Q18.9 -7.75 19.65 -8.65 L18.85 -10.85 Q15.9 -21.45 11.5 -31.6 L11.35 -32.15 Q8.95 -36.95 9.45 -42.85 10.15 -50.75 10.25 -58.7 6.2 -53.15 2.55 -47.3 L-0.55 -41.8 -1.15 -39.95 -3.55 -18.05 -3.95 -14.6 Q-4.3 -11.05 -7.9 -10.05 L-20.4 -6.6 Q-21.3 -6.35 -21.95 -7.0 -24.6 -9.65 -21.55 -11.8 -20.65 -12.45 -19.45 -12.8 -14.25 -14.25 -9.5 -16.2 -8.15 -25.05 -7.6 -34.05 L-7.05 -41.3 Q-6.85 -43.35 -5.8 -45.15 L-3.75 -48.35 Q-0.1 -53.6 3.2 -59.05 6.05 -63.8 9.7 -67.8 10.85 -72.65 12.3 -77.35 L14.05 -84.0 14.95 -87.25 Q11.25 -84.55 6.85 -82.65 2.4 -80.75 -2.0 -82.45 -2.8 -82.75 -3.15 -83.65 -4.9 -88.15 -0.3 -89.5 2.35 -90.3 4.25 -88.55 12.8 -91.85 18.3 -98.95 L18.45 -101.25 18.25 -101.3 Q15.5 -100.2 12.2 -101.9 L12.05 -101.6 11.25 -102.25 10.8 -102.8 10.0 -103.9 9.7 -103.9 Q3.45 -103.6 -2.3 -101.15 -7.15 -99.1 -12.35 -98.3 -9.9 -94.3 -14.5 -92.4 L-18.0 -92.55 Q-21.95 -94.65 -20.3 -98.75 -19.4 -101.05 -17.25 -102.3 -12.75 -104.9 -7.45 -105.85 -5.5 -106.2 -3.6 -106.85 1.0 -108.55 5.8 -109.4 5.35 -110.95 5.35 -112.65 5.35 -117.55 8.8 -121.0" fill="#000000" fill-rule="evenodd" stroke="none"/>
  </g>
</svg>
