<?xml version="1.0" encoding="UTF-8" standalone="no"?>
<svg xmlns:ffdec="https://www.free-decompiler.com/flash" xmlns:xlink="http://www.w3.org/1999/xlink" ffdec:objectType="shape" height="153.45px" width="98.1px" xmlns="http://www.w3.org/2000/svg">
  <g transform="matrix(1.0, 0.0, 0.0, 1.0, 47.0, 139.1)">
    <path d="M24.75 -132.6 L25.15 -131.85 Q26.4 -129.05 29.0 -129.45 31.85 -134.15 37.0 -134.6 37.4 -133.95 37.3 -133.2 36.4 -126.3 35.1 -119.7 40.75 -117.95 44.85 -113.65 40.75 -111.25 36.9 -108.3 L37.0 -106.3 Q37.6 -105.8 38.35 -105.65 40.45 -103.95 42.0 -101.6 41.65 -101.35 41.3 -101.25 36.65 -99.9 32.7 -97.2 L32.7 -96.9 32.7 -95.75 35.0 -91.45 Q35.4 -90.0 36.15 -88.6 32.85 -86.15 28.3 -85.75 24.35 -85.45 22.4 -82.85 26.7 -79.5 30.7 -75.6 30.65 -75.05 30.25 -74.6 L28.9 -73.2 Q25.75 -70.45 23.15 -67.25 L23.25 -66.1 Q25.9 -65.4 27.75 -63.7 L27.75 -63.45 27.75 -62.85 24.4 -55.95 Q23.75 -54.6 24.0 -53.1 L24.6 -52.55 Q26.65 -51.0 29.55 -50.85 33.2 -50.7 35.75 -48.8 33.4 -44.75 30.6 -41.05 27.55 -38.65 27.45 -34.75 33.2 -32.9 38.45 -30.05 38.6 -28.75 38.35 -27.45 36.0 -25.4 34.25 -22.85 L34.35 -21.7 Q36.55 -20.3 39.15 -19.5 46.7 -17.15 51.1 -11.1 50.7 -10.1 49.75 -9.4 L48.9 -8.8 Q43.9 -5.7 40.45 -1.05 38.65 -0.05 37.3 1.55 37.3 2.25 37.6 2.85 38.85 5.6 41.5 7.55 L41.5 7.85 41.5 8.4 Q42.45 8.95 42.4 9.4 L41.6 9.25 Q38.2 9.1 35.05 9.95 31.25 11.0 28.9 14.35 L26.7 12.4 Q24.4 9.35 20.35 10.8 L14.25 12.75 Q13.4 10.2 11.55 8.45 L11.15 8.2 Q3.35 6.95 -3.65 10.8 -4.2 8.55 -5.25 6.4 -6.95 2.85 -9.95 4.7 -14.1 7.4 -18.55 8.35 -18.45 5.65 -19.55 3.4 L-20.25 2.8 Q-27.6 1.0 -34.95 -0.45 -33.7 -1.85 -33.5 -3.65 L-34.15 -4.5 Q-34.25 -5.25 -34.7 -5.85 L-41.45 -14.55 -37.15 -14.35 Q-34.55 -13.45 -33.2 -15.3 L-33.15 -15.6 Q-33.55 -20.0 -33.5 -24.5 L-31.6 -24.15 -29.95 -23.45 Q-26.35 -21.15 -22.6 -21.6 -22.35 -23.3 -22.95 -25.0 L-24.7 -31.1 Q-20.85 -30.95 -17.6 -31.95 -17.85 -35.9 -20.5 -39.15 L-17.9 -40.95 Q-17.55 -42.7 -18.05 -44.4 L-20.5 -53.6 Q-17.7 -53.0 -15.05 -53.65 -14.6 -54.3 -14.85 -55.1 -16.95 -62.0 -18.2 -69.15 L-16.8 -68.6 -13.95 -66.85 Q-10.75 -65.0 -8.25 -67.15 L-8.3 -69.75 -8.8 -74.1 Q-9.0 -75.2 -8.7 -76.25 -7.6 -79.75 -4.9 -82.65 -4.6 -85.3 -5.2 -87.85 -7.05 -89.4 -8.9 -87.35 L-9.0 -86.8 -9.6 -86.7 -10.2 -87.3 -10.6 -87.65 Q-14.85 -90.0 -19.8 -88.2 -24.75 -86.4 -29.3 -85.55 L-29.3 -85.8 -29.3 -89.55 -28.9 -90.15 -28.7 -93.0 Q-28.65 -93.75 -29.4 -93.85 L-38.45 -94.5 Q-39.15 -94.55 -39.6 -95.0 L-39.5 -95.55 Q-37.85 -99.85 -38.2 -104.5 L-44.8 -110.8 Q-46.25 -111.15 -47.0 -112.25 L-45.9 -112.6 Q-44.1 -113.1 -43.0 -114.45 -41.85 -115.85 -42.4 -117.6 -43.4 -120.65 -45.35 -123.5 -45.4 -125.4 -45.75 -127.25 L-46.15 -127.8 -46.05 -128.7 -42.65 -127.55 -41.6 -127.65 Q-38.4 -129.9 -36.95 -133.95 L-32.75 -130.2 -32.3 -129.85 Q-31.85 -129.65 -31.6 -129.85 L-22.7 -135.95 -18.65 -130.9 -18.5 -130.0 -17.6 -129.45 Q-17.35 -128.6 -16.45 -128.4 -13.25 -130.5 -11.4 -133.85 L-9.4 -131.65 Q-8.75 -129.75 -6.85 -128.8 -4.7 -127.65 -3.65 -130.5 L-2.9 -130.5 -1.35 -129.35 -0.6 -128.2 Q1.4 -125.9 3.7 -126.0 5.4 -130.45 4.75 -135.5 L6.9 -133.6 9.65 -130.95 Q12.75 -127.95 16.65 -127.45 L16.8 -127.65 Q19.2 -133.05 18.95 -139.1 22.4 -136.6 24.75 -132.6" fill="#ffff00" fill-opacity="0.5019608" fill-rule="evenodd" stroke="none"/>
  </g>
</svg>
