<?xml version="1.0" encoding="UTF-8" standalone="no"?>
<svg xmlns:ffdec="https://www.free-decompiler.com/flash" xmlns:xlink="http://www.w3.org/1999/xlink" ffdec:objectType="shape" height="126.8px" width="71.55px" xmlns="http://www.w3.org/2000/svg">
  <g transform="matrix(1.0, 0.0, 0.0, 1.0, 39.55, 126.05)">
    <path d="M8.4 -114.25 Q8.4 -119.15 11.85 -122.6 15.3 -126.05 20.2 -126.05 25.1 -126.05 28.55 -122.6 32.0 -119.15 32.0 -114.25 32.0 -109.35 28.55 -105.9 26.65 -104.0 24.35 -103.15 L24.1 -101.55 23.6 -99.25 Q24.2 -98.6 24.5 -97.4 24.85 -95.8 23.45 -95.1 L22.25 -94.55 Q20.6 -89.6 18.25 -84.9 14.7 -75.25 12.5 -65.2 L12.45 -64.85 Q13.1 -63.75 12.55 -61.9 L12.5 -61.65 Q14.55 -51.65 14.35 -41.2 14.35 -39.0 14.7 -36.85 L14.8 -36.05 Q16.75 -35.1 17.75 -32.75 19.85 -27.6 22.75 -22.75 28.3 -13.4 31.45 -2.85 31.85 -1.5 30.75 -0.6 L30.55 -0.45 Q29.65 0.9 27.15 0.75 21.65 0.35 16.1 0.75 12.35 1.0 12.35 -2.55 12.35 -5.3 15.0 -5.55 L24.45 -5.3 24.05 -7.2 23.5 -8.1 Q23.25 -8.6 23.15 -9.2 18.85 -18.35 13.8 -27.2 12.75 -29.05 11.35 -30.55 10.4 -31.6 10.2 -32.85 9.6 -33.25 9.4 -34.15 7.9 -41.4 7.95 -49.05 7.95 -53.7 7.0 -58.25 L6.9 -58.75 6.25 -57.9 -1.2 -47.0 -1.4 -46.65 Q-1.2 -45.5 -1.4 -44.0 L-1.9 -39.75 Q-2.95 -28.75 -2.95 -17.55 -2.9 -13.35 -3.85 -9.3 -3.65 -8.0 -4.6 -7.3 -5.3 -6.4 -6.6 -6.6 -11.45 -5.85 -16.25 -6.8 L-19.35 -7.3 Q-24.4 -7.9 -22.3 -11.9 -21.65 -13.2 -20.35 -13.25 L-9.3 -11.95 Q-8.75 -17.85 -8.7 -23.9 L-8.5 -29.65 Q-8.0 -38.1 -7.0 -46.35 L-7.1 -46.55 Q-7.65 -47.55 -7.25 -48.65 -5.8 -52.45 -3.05 -55.5 -0.8 -58.0 1.2 -60.7 L6.75 -67.95 6.85 -68.05 Q8.7 -75.5 11.25 -82.75 L12.75 -86.85 15.5 -93.75 Q1.95 -93.3 -11.35 -96.05 -14.65 -96.7 -17.9 -97.65 -22.05 -98.8 -24.5 -102.1 -25.45 -103.4 -24.85 -104.95 -24.15 -106.85 -22.25 -106.95 -18.3 -107.25 -16.1 -104.1 -15.7 -103.5 -14.85 -103.3 L-7.2 -101.4 Q5.1 -99.15 17.55 -99.9 L17.7 -101.3 Q17.75 -102.0 17.95 -102.55 16.65 -102.8 15.25 -103.5 L15.1 -103.2 14.3 -103.85 13.85 -104.4 12.95 -105.6 10.15 -105.7 -1.85 -108.85 Q-3.2 -109.25 -4.35 -109.9 L-4.9 -110.35 -5.75 -110.4 Q-7.5 -110.55 -8.8 -111.55 -15.5 -113.5 -22.3 -114.9 L-28.6 -116.4 Q-33.35 -111.85 -38.6 -116.8 -39.6 -117.7 -39.55 -119.15 -39.5 -122.3 -36.45 -122.7 -25.5 -122.5 -14.85 -119.4 L-6.05 -116.65 -5.45 -116.3 Q1.35 -113.9 8.5 -112.55 L8.4 -114.25" fill="#000000" fill-rule="evenodd" stroke="none"/>
  </g>
</svg>
