<?xml version="1.0" encoding="UTF-8" standalone="no"?>
<svg xmlns:ffdec="https://www.free-decompiler.com/flash" xmlns:xlink="http://www.w3.org/1999/xlink" ffdec:objectType="shape" height="177.35px" width="96.65px" xmlns="http://www.w3.org/2000/svg">
  <g transform="matrix(1.0, 0.0, 0.0, 1.0, 43.25, 165.1)">
    <path d="M3.95 -100.1 Q5.5 -101.9 5.15 -104.3 L4.65 -104.65 Q-3.55 -105.55 -11.7 -103.85 L-11.55 -105.25 Q-11.1 -106.45 -10.9 -107.75 L-11.4 -108.05 Q-18.1 -107.85 -24.3 -105.15 L-24.3 -107.75 -24.3 -112.35 -24.55 -112.55 46.0 -111.9 Q44.0 -109.05 41.25 -106.5 L41.1 -105.95 Q40.8 -105.05 40.0 -104.5 L40.0 -103.95 40.0 -103.05 40.5 -102.5 44.6 -97.9 43.2 -97.45 Q40.05 -96.6 38.45 -93.7 L38.4 -92.25 Q38.3 -89.75 39.5 -87.65 37.8 -87.95 36.6 -87.0 35.5 -86.05 35.3 -84.55 L33.65 -71.85 Q30.5 -73.8 28.1 -71.95 L28.1 -70.25 28.1 -65.95 28.3 -65.65 28.5 -65.35 28.55 -63.65 28.4 -60.8 Q27.1 -60.3 26.2 -59.25 L26.2 -58.4 26.3 -56.95 27.5 -54.5 29.65 -48.9 26.2 -46.5 Q25.9 -42.9 29.0 -40.65 L29.65 -40.1 Q32.8 -37.05 35.3 -33.3 L35.35 -32.75 35.3 -32.15 35.1 -31.9 32.7 -29.3 32.7 -27.85 32.7 -25.3 33.15 -24.85 Q36.85 -22.85 39.5 -19.45 L39.2 -19.15 39.2 -18.6 39.2 -17.7 39.05 -17.45 38.85 -17.15 38.85 -16.55 38.85 -15.4 39.05 -15.15 39.2 -14.85 39.25 -14.3 39.3 -13.7 Q46.85 -11.3 53.4 -6.8 L47.25 -2.5 47.25 0.1 Q47.2 2.85 49.25 4.95 L40.6 5.45 Q40.25 5.5 40.0 5.7 L40.0 7.15 40.0 9.45 40.5 10.35 41.05 12.25 Q36.5 10.15 32.2 7.6 L28.85 7.75 Q27.9 8.35 26.75 8.45 L19.75 8.0 Q17.25 7.55 15.7 5.55 12.95 3.1 9.5 3.8 5.45 4.6 3.55 0.6 3.4 0.25 3.1 0.25 -1.55 -0.25 -5.95 0.25 L-6.15 -0.3 -6.6 -1.45 -7.0 -1.8 -7.1 -2.05 -7.1 -2.9 -7.1 -4.05 Q-7.4 -4.65 -8.0 -4.5 L-17.05 -2.8 -17.15 -3.05 -18.1 -4.25 -18.15 -4.8 Q-18.05 -5.9 -18.95 -6.55 L-18.95 -6.8 -18.95 -7.1 -19.5 -7.5 Q-20.75 -8.1 -22.0 -7.25 -27.5 -3.4 -34.25 -2.9 L-34.25 -3.75 -34.25 -5.2 Q-36.25 -7.7 -39.3 -8.5 -42.0 -9.2 -43.25 -10.65 L-42.85 -11.45 Q-42.5 -13.05 -41.55 -14.35 L-41.5 -14.65 -41.35 -15.25 -41.0 -15.55 -40.65 -16.1 Q-39.85 -16.45 -39.45 -17.25 L-36.8 -18.05 Q-31.05 -19.0 -31.6 -24.3 -31.9 -24.9 -32.55 -25.2 L-32.7 -25.5 Q-33.05 -26.6 -34.05 -27.2 L-34.2 -27.45 Q-34.7 -28.55 -35.8 -29.2 -34.75 -29.65 -33.8 -30.25 -29.1 -30.5 -27.35 -34.45 L-27.6 -35.05 Q-28.4 -36.8 -30.05 -37.9 L-29.45 -38.4 Q-26.95 -40.15 -25.15 -42.9 L-25.0 -44.05 Q-24.9 -46.25 -27.2 -47.1 -22.15 -48.25 -19.7 -52.05 L-19.95 -52.65 -20.1 -53.8 -20.6 -54.7 -21.65 -56.8 Q-23.5 -59.9 -23.85 -63.25 L-23.55 -63.55 -13.8 -64.15 Q-12.65 -64.25 -12.05 -65.25 -11.7 -67.1 -11.75 -69.0 L-11.6 -74.75 -6.9 -75.4 Q-5.2 -75.5 -3.8 -76.25 -0.75 -77.95 -3.85 -80.7 L-4.35 -81.55 Q-5.0 -82.65 -5.2 -83.85 1.1 -82.3 6.4 -85.1 6.85 -86.15 6.7 -87.35 6.25 -90.05 4.5 -92.25 L4.35 -92.8 4.0 -93.4 4.6 -93.55 Q6.0 -93.9 6.7 -95.1 L6.7 -95.7 6.7 -96.25 Q5.75 -97.3 4.2 -97.5 L4.0 -97.75 2.95 -98.85 3.95 -100.1 M1.35 -165.1 L1.7 -165.05 Q3.9 -162.3 5.45 -159.05 5.75 -158.4 6.4 -158.6 10.0 -159.7 13.2 -161.25 14.0 -159.5 14.3 -157.5 14.8 -154.0 14.8 -150.35 17.4 -148.4 20.85 -148.9 L21.15 -148.55 21.25 -148.3 Q21.35 -146.4 21.1 -144.6 20.7 -141.65 20.85 -138.55 L21.3 -138.15 Q25.25 -135.95 30.4 -136.85 L30.7 -134.85 Q30.8 -132.45 31.55 -130.25 32.55 -127.8 34.85 -128.4 37.6 -129.15 39.6 -130.25 L39.55 -125.95 Q39.55 -122.6 39.7 -119.35 L39.95 -119.0 Q40.4 -118.15 41.1 -117.55 L-32.85 -117.6 Q-32.05 -121.95 -32.35 -126.5 -36.35 -128.5 -41.15 -128.25 -39.5 -132.65 -38.6 -137.35 -37.95 -140.85 -40.2 -142.1 L-39.75 -142.4 Q-38.9 -143.1 -38.85 -144.1 L-38.4 -144.45 -35.4 -147.55 -35.45 -148.7 Q-35.5 -150.35 -36.55 -151.55 -33.6 -151.7 -30.8 -150.5 L-30.7 -150.35 Q-29.6 -149.2 -28.15 -149.65 L-27.95 -149.85 -25.15 -152.7 -17.35 -152.45 Q-16.85 -154.2 -17.15 -156.15 -17.55 -159.0 -17.4 -161.9 L-14.25 -161.8 Q-12.05 -160.8 -10.25 -159.25 L-10.15 -158.95 -10.05 -158.35 -7.65 -158.25 -7.5 -159.15 Q-7.65 -160.6 -6.4 -161.45 -4.7 -160.65 -2.9 -161.15 L-2.7 -161.35 1.15 -165.05 1.35 -165.1" fill="#ffff00" fill-opacity="0.5019608" fill-rule="evenodd" stroke="none"/>
  </g>
</svg>
