<?xml version="1.0" encoding="UTF-8" standalone="no"?>
<svg xmlns:ffdec="https://www.free-decompiler.com/flash" xmlns:xlink="http://www.w3.org/1999/xlink" ffdec:objectType="shape" height="156.85px" width="62.35px" xmlns="http://www.w3.org/2000/svg">
  <g transform="matrix(1.0, 0.0, 0.0, 1.0, 27.55, 154.6)">
    <path d="M2.3 -154.6 Q6.75 -153.35 6.3 -148.25 6.1 -146.05 5.5 -144.0 L5.5 -143.9 6.3 -143.0 Q8.8 -140.5 10.7 -137.5 11.95 -135.5 13.65 -133.85 15.4 -132.1 16.05 -129.8 L19.05 -125.75 23.0 -126.4 Q27.9 -126.4 31.35 -122.95 34.8 -119.5 34.8 -114.6 34.8 -109.7 31.35 -106.25 30.0 -104.9 28.45 -104.05 L28.4 -103.9 26.85 -96.45 Q26.2 -92.6 24.8 -89.0 24.0 -84.9 21.95 -81.05 L19.9 -77.3 14.15 -66.7 Q13.15 -64.9 13.05 -62.8 12.75 -57.2 12.9 -51.55 14.15 -46.5 14.65 -41.2 L14.75 -40.35 Q16.6 -38.85 16.5 -35.8 L16.7 -35.2 16.9 -34.65 Q20.6 -30.5 22.65 -25.25 24.4 -20.75 27.1 -16.7 30.25 -11.95 31.8 -6.7 33.8 0.0 26.7 0.6 22.85 0.95 19.25 2.0 15.5 3.05 15.5 -0.65 15.5 -4.5 19.8 -4.65 L25.75 -4.95 Q24.9 -9.6 21.8 -13.75 21.35 -14.3 21.25 -15.05 17.65 -20.55 15.05 -26.6 L14.7 -27.75 Q11.25 -30.9 10.4 -35.1 8.8 -35.95 8.55 -38.05 L7.6 -47.85 7.4 -50.5 7.2 -54.85 6.95 -54.7 Q4.05 -51.65 0.4 -49.3 L-7.1 -44.35 Q-6.05 -37.0 -5.95 -29.35 -5.9 -22.9 -7.1 -16.75 -7.2 -16.4 -7.45 -16.1 -8.35 -15.2 -9.6 -15.1 L-21.95 -14.55 Q-22.35 -14.55 -22.6 -14.95 -25.2 -18.75 -20.65 -19.9 L-17.95 -20.5 -12.1 -21.1 Q-12.1 -28.6 -12.4 -36.05 -12.5 -39.55 -13.05 -42.95 -13.65 -46.7 -10.95 -48.65 -3.6 -53.85 3.35 -59.7 L4.45 -60.95 Q5.5 -62.55 7.0 -63.3 7.45 -69.55 11.35 -74.6 L12.55 -76.45 Q16.05 -82.8 18.95 -89.4 20.2 -94.1 21.05 -98.85 19.85 -98.95 18.6 -99.75 8.85 -105.8 -0.55 -112.45 -9.7 -118.9 -18.15 -126.25 L-20.45 -128.2 Q-23.65 -127.15 -26.6 -128.2 -27.4 -128.5 -27.5 -129.35 -27.95 -132.75 -25.15 -133.75 -26.2 -136.25 -26.8 -138.8 -27.05 -140.0 -26.1 -140.8 -25.2 -141.55 -24.2 -141.55 -20.4 -139.6 -18.85 -135.3 L-18.8 -135.1 -16.95 -133.95 -16.6 -133.65 Q-12.7 -134.3 -11.65 -131.1 -11.15 -129.65 -12.2 -128.85 -3.45 -121.5 5.85 -115.15 L11.65 -111.25 Q11.2 -112.85 11.2 -114.6 11.2 -119.3 14.4 -122.65 L11.6 -125.85 Q10.6 -126.9 10.5 -128.3 5.75 -133.25 1.95 -138.75 L0.9 -140.25 Q-2.15 -139.85 -3.75 -142.85 -4.1 -143.4 -3.75 -144.0 L-2.75 -145.2 -6.05 -150.35 Q-6.4 -150.95 -6.1 -151.6 -5.25 -153.35 -3.45 -153.45 -1.75 -152.9 -0.35 -151.85 -0.55 -153.1 0.65 -153.95 1.5 -154.55 2.3 -154.6" fill="#000000" fill-rule="evenodd" stroke="none"/>
  </g>
</svg>
