<?xml version="1.0" encoding="UTF-8" standalone="no"?>
<svg xmlns:ffdec="https://www.free-decompiler.com/flash" xmlns:xlink="http://www.w3.org/1999/xlink" ffdec:objectType="shape" height="168.25px" width="92.8px" xmlns="http://www.w3.org/2000/svg">
  <g transform="matrix(1.0, 0.0, 0.0, 1.0, 42.85, 159.5)">
    <path d="M9.65 -155.8 L12.05 -155.65 12.4 -156.35 Q12.6 -157.4 13.9 -158.05 L16.75 -157.8 17.1 -157.75 17.25 -157.8 17.75 -158.2 19.5 -159.5 19.6 -159.5 19.85 -159.35 20.3 -158.35 20.9 -157.0 22.05 -153.85 22.3 -153.45 Q22.65 -152.95 23.15 -153.0 L23.25 -152.95 29.15 -153.75 29.3 -153.75 29.45 -153.8 29.5 -153.7 29.65 -153.4 29.85 -152.95 29.8 -150.4 29.5 -145.75 29.5 -143.95 29.55 -143.6 Q31.75 -141.45 34.55 -141.1 L34.8 -140.7 34.9 -140.45 35.0 -138.45 34.5 -137.25 33.4 -134.35 32.95 -132.7 33.15 -132.35 Q34.2 -131.35 35.7 -130.7 36.6 -130.3 37.8 -130.15 L39.35 -129.9 39.8 -128.0 Q40.15 -125.75 41.0 -123.6 L41.1 -123.35 41.7 -122.25 42.2 -121.8 42.5 -121.6 Q42.8 -121.45 43.25 -121.6 44.75 -122.0 45.7 -122.65 L44.7 -119.1 43.5 -113.7 43.5 -113.4 43.7 -113.05 43.95 -112.5 44.95 -111.1 45.9 -110.45 46.25 -110.25 Q47.5 -109.5 48.85 -108.95 49.1 -108.85 49.3 -108.7 L49.55 -108.55 49.75 -108.5 49.95 -108.45 49.6 -108.25 Q49.45 -107.55 48.95 -107.0 46.75 -104.75 44.1 -102.75 L38.4 -102.85 30.3 -103.0 6.55 -103.3 6.6 -104.5 6.4 -105.55 5.95 -105.9 4.35 -106.35 -1.5 -108.1 -4.6 -108.05 -5.25 -108.1 -5.3 -108.6 -5.15 -109.5 Q-4.9 -110.5 -4.95 -111.5 L-4.85 -111.9 -5.25 -112.25 -7.0 -112.7 -12.8 -113.3 -14.35 -112.45 -14.2 -112.9 Q-14.0 -113.4 -13.95 -114.1 L-13.9 -114.75 -13.8 -119.25 -14.15 -119.65 -15.25 -120.05 -20.85 -121.95 -20.5 -125.9 -20.1 -129.15 -19.7 -130.15 Q-19.05 -131.65 -18.65 -133.55 L-19.8 -134.5 -20.05 -134.65 -20.15 -134.7 -20.55 -135.0 Q-21.95 -135.95 -23.65 -136.25 L-23.55 -136.35 -23.15 -137.05 -23.05 -137.3 -22.85 -137.75 -22.75 -138.1 -21.9 -139.5 -21.75 -139.75 -21.7 -139.85 -21.1 -141.0 -20.4 -142.3 Q-19.85 -143.85 -20.7 -144.35 L-21.15 -144.85 -21.1 -144.85 -20.55 -145.05 -20.3 -145.35 Q-19.65 -145.9 -19.45 -146.6 L-18.9 -146.9 -17.3 -148.1 -16.05 -148.75 -16.05 -149.35 Q-16.05 -149.95 -16.4 -150.35 L-16.8 -150.75 Q-14.5 -150.1 -12.0 -148.65 L-11.9 -148.5 Q-11.15 -147.6 -10.2 -147.5 L-9.55 -147.65 -9.35 -147.8 -9.05 -148.1 Q-7.8 -149.35 -6.4 -150.4 -2.6 -150.65 0.8 -151.4 L1.4 -153.7 1.55 -154.35 1.55 -154.65 1.6 -154.85 1.65 -155.1 1.65 -155.8 1.85 -157.35 1.95 -157.7 2.0 -158.05 2.1 -158.5 2.2 -158.7 2.25 -159.15 3.05 -159.0 4.0 -158.8 4.95 -158.5 5.15 -158.45 5.6 -158.3 Q7.55 -157.55 9.25 -156.45 L9.4 -156.25 9.65 -155.8 M42.95 -94.35 L42.1 -93.9 41.75 -93.7 40.95 -93.2 40.15 -92.45 Q39.5 -91.75 39.1 -90.75 L38.75 -89.75 38.85 -88.6 38.9 -88.4 Q39.15 -86.05 40.15 -83.95 L39.3 -83.7 39.05 -83.6 38.8 -83.4 38.1 -82.8 37.9 -82.65 37.3 -81.65 36.7 -80.4 36.45 -79.6 33.3 -68.85 32.55 -69.05 32.4 -69.05 32.25 -69.05 31.9 -69.05 31.15 -69.05 30.8 -69.05 30.35 -68.95 29.9 -68.75 29.7 -68.6 29.55 -68.45 29.45 -68.3 28.9 -67.9 29.3 -66.65 30.3 -63.25 30.55 -62.95 30.8 -62.7 31.2 -61.2 31.2 -60.8 31.15 -59.35 31.1 -58.45 30.5 -57.95 29.2 -56.7 29.15 -56.5 29.05 -55.9 28.95 -54.5 29.5 -52.2 30.05 -48.0 30.4 -46.8 30.15 -46.55 28.8 -45.15 28.15 -44.4 Q28.75 -41.55 31.7 -39.35 L32.0 -39.1 32.15 -38.8 Q33.8 -35.8 34.9 -32.3 L34.9 -31.8 34.7 -31.25 34.5 -31.0 34.2 -30.7 33.75 -30.0 33.6 -29.8 33.45 -29.55 32.9 -28.3 33.15 -27.0 33.55 -24.6 34.0 -24.15 36.2 -22.6 40.0 -18.6 39.85 -18.3 39.95 -17.8 40.15 -16.9 40.05 -16.7 39.8 -16.4 39.65 -15.95 39.4 -15.05 39.5 -14.85 39.55 -14.6 39.45 -14.2 39.35 -13.7 42.4 -11.35 44.5 -9.6 48.15 -6.3 48.6 -6.0 47.95 -5.8 Q45.2 -5.0 42.45 -3.5 L42.05 -2.2 41.85 -1.45 Q41.55 -0.35 41.65 0.75 41.8 1.9 42.4 2.9 L35.45 4.45 35.0 4.55 34.9 4.5 34.45 4.45 33.9 4.5 33.65 5.4 33.25 6.8 33.4 7.25 33.45 7.35 33.5 8.05 33.5 8.75 Q28.9 7.3 24.75 6.2 L24.5 6.2 24.1 6.05 23.95 5.95 23.45 5.75 Q22.8 5.5 22.15 5.75 L21.8 5.85 20.7 5.8 17.95 4.95 14.85 4.25 Q12.75 3.75 11.1 2.45 L10.85 2.05 10.65 1.8 Q8.7 -0.6 6.2 -0.85 3.65 -1.05 2.2 -3.7 L1.6 -4.95 1.25 -5.3 -2.15 -6.25 -4.9 -5.8 -6.55 -5.2 -6.75 -5.45 -7.2 -6.05 -7.55 -6.2 -7.65 -6.3 -7.75 -6.8 -7.9 -7.45 -8.75 -7.55 -9.45 -7.25 -10.05 -7.15 -17.15 -7.15 -17.25 -7.4 -17.8 -7.95 -18.3 -8.3 -18.4 -8.7 Q-18.55 -9.5 -19.45 -9.9 L-19.5 -10.05 -19.55 -10.25 -20.1 -10.5 Q-21.35 -10.9 -22.55 -10.15 -25.35 -8.35 -28.3 -7.05 L-28.6 -7.05 -28.95 -7.05 -33.8 -7.45 -33.9 -8.25 -34.05 -9.6 -35.15 -10.95 -35.6 -11.25 Q-37.2 -12.3 -39.1 -12.9 -41.5 -13.7 -42.8 -15.1 L-42.85 -15.2 -42.4 -15.95 -42.15 -16.35 -40.75 -18.4 -40.65 -18.7 -40.4 -19.25 -40.05 -19.6 -39.7 -20.05 Q-39.1 -20.5 -38.85 -21.3 L-37.55 -22.15 -36.9 -22.5 Q-34.15 -23.7 -33.5 -26.35 -33.0 -26.95 -32.75 -27.7 L-32.55 -28.5 Q-32.65 -28.85 -33.05 -29.05 L-33.05 -29.25 Q-33.05 -29.95 -33.5 -30.4 L-33.55 -30.6 Q-33.65 -31.5 -34.25 -32.2 L-33.85 -32.45 -32.65 -33.5 -32.4 -33.55 Q-30.2 -34.35 -28.5 -36.15 L-27.9 -36.65 Q-27.3 -37.25 -26.85 -38.1 L-26.85 -38.4 -27.0 -38.7 -27.55 -40.05 Q-28.05 -40.95 -28.85 -41.65 L-28.45 -42.2 -27.25 -43.9 Q-26.35 -45.3 -25.65 -47.0 L-25.65 -48.15 -25.7 -48.55 Q-25.3 -49.85 -26.5 -50.7 L-25.85 -50.95 Q-24.15 -51.85 -23.0 -53.05 -21.55 -54.6 -20.5 -56.6 L-20.65 -57.15 -20.7 -58.3 -21.0 -59.15 -21.2 -59.95 -21.45 -60.75 -22.0 -62.3 -22.0 -63.75 -21.8 -65.05 -21.55 -65.3 Q-20.1 -65.55 -18.85 -66.05 L-17.75 -66.35 -15.3 -66.85 -14.7 -66.8 -12.8 -66.6 Q-11.75 -66.55 -11.1 -67.15 L-10.9 -67.4 Q-10.35 -68.35 -10.05 -69.5 L-9.55 -71.05 -9.2 -73.15 -8.95 -74.55 -4.85 -75.95 -3.45 -76.4 Q-2.85 -76.6 -2.35 -76.95 L-2.05 -77.1 -1.45 -77.6 Q-0.35 -78.25 -0.3 -79.1 L-0.45 -79.95 -1.1 -81.15 -1.45 -81.95 -2.0 -84.25 -0.35 -84.5 Q3.8 -84.6 7.7 -86.2 L8.4 -86.6 8.5 -86.75 8.5 -86.85 8.55 -87.55 8.4 -88.85 Q7.6 -91.35 5.8 -93.45 L5.6 -93.95 5.2 -94.5 5.5 -94.75 5.9 -94.9 6.6 -95.4 7.05 -95.8 7.3 -96.2 7.35 -96.25 7.45 -96.75 7.55 -97.25 7.35 -97.65 Q19.4 -97.85 31.45 -97.6 L39.6 -97.5 41.6 -97.45 42.95 -94.35" fill="#ffff00" fill-opacity="0.5019608" fill-rule="evenodd" stroke="none"/>
  </g>
</svg>
