<?xml version="1.0" encoding="UTF-8" standalone="no"?>
<svg xmlns:ffdec="https://www.free-decompiler.com/flash" xmlns:xlink="http://www.w3.org/1999/xlink" ffdec:objectType="shape" height="161.55px" width="94.85px" xmlns="http://www.w3.org/2000/svg">
  <g transform="matrix(1.0, 0.0, 0.0, 1.0, 42.5, 156.35)">
    <path d="M2.95 -149.95 L6.75 -146.75 6.85 -146.65 Q7.55 -145.8 8.4 -145.5 L9.0 -145.65 9.25 -145.8 9.6 -146.05 12.3 -148.15 Q15.9 -148.95 19.0 -150.4 L19.85 -152.45 20.15 -153.0 20.25 -153.2 20.35 -153.35 20.4 -153.55 20.6 -154.1 Q21.05 -154.7 21.05 -155.55 L21.25 -155.85 21.25 -155.8 21.45 -155.9 21.7 -156.1 21.8 -156.2 21.95 -156.35 Q22.25 -156.15 22.7 -156.05 L23.5 -155.7 24.35 -155.2 24.6 -155.15 25.0 -155.0 28.75 -153.65 28.95 -153.5 29.3 -153.2 31.8 -153.1 32.3 -153.55 Q32.9 -154.25 34.15 -154.7 L36.85 -154.55 37.15 -154.35 37.2 -154.3 37.4 -154.25 37.9 -154.0 37.9 -153.85 37.95 -153.7 38.1 -152.7 38.4 -151.35 Q38.35 -149.95 38.9 -148.3 L39.2 -147.85 Q39.5 -147.4 39.95 -147.35 L40.05 -147.3 45.5 -146.45 45.65 -146.35 45.75 -146.3 45.75 -146.2 45.95 -145.9 46.1 -145.5 45.3 -143.3 Q44.6 -141.35 44.2 -138.95 44.05 -138.1 44.2 -137.2 L44.25 -136.85 Q46.1 -134.45 48.25 -133.3 L48.45 -132.85 48.55 -132.65 48.75 -130.7 47.9 -129.85 46.0 -127.95 45.05 -126.8 45.05 -126.55 Q44.95 -125.7 45.4 -124.75 46.0 -124.05 47.0 -123.6 L48.3 -123.0 48.95 -121.2 50.4 -116.95 50.55 -116.65 51.05 -115.55 51.4 -115.1 51.6 -114.9 51.6 -114.8 51.75 -115.05 51.65 -114.75 51.6 -114.8 49.9 -112.2 47.3 -107.75 47.3 -107.45 47.45 -107.15 47.6 -106.55 48.25 -105.05 49.2 -104.3 49.5 -104.05 51.75 -102.45 52.05 -102.15 52.2 -101.95 52.35 -101.8 52.35 -101.75 52.0 -101.65 50.95 -100.75 Q47.75 -98.7 44.0 -96.9 L43.6 -96.6 43.35 -96.45 42.25 -95.8 42.0 -95.45 41.6 -94.9 41.6 -94.55 Q41.35 -93.0 41.35 -90.8 L41.1 -90.65 29.9 -90.65 11.8 -89.65 10.35 -89.6 10.1 -90.35 Q8.95 -92.65 7.1 -94.65 L6.8 -95.05 6.45 -95.55 6.4 -96.0 6.6 -96.1 7.35 -96.6 7.7 -97.0 7.9 -97.35 7.95 -97.4 8.2 -97.8 8.4 -98.25 Q8.45 -98.95 8.1 -99.6 L7.8 -100.05 7.75 -100.35 Q7.3 -101.1 7.3 -101.6 L7.75 -102.9 Q8.25 -104.25 7.95 -105.8 L7.65 -106.75 7.25 -107.15 Q6.6 -107.55 5.9 -107.9 3.1 -109.75 1.8 -111.4 L1.55 -112.0 1.2 -112.35 1.2 -112.85 1.3 -113.75 Q1.4 -114.75 1.1 -115.65 L1.15 -116.0 0.9 -116.4 -0.45 -117.5 Q-2.75 -119.0 -4.1 -120.05 L-4.4 -119.7 -4.4 -120.3 -4.1 -120.05 Q-3.7 -120.45 -3.6 -121.1 L-3.5 -121.75 Q-3.25 -123.95 -3.25 -126.2 L-3.5 -126.6 -4.25 -127.35 -8.2 -130.85 -8.0 -134.75 -7.7 -138.05 -7.1 -138.75 Q-5.95 -139.25 -5.0 -140.6 L-4.95 -141.5 -5.1 -141.7 -5.2 -141.85 -5.2 -142.25 Q-5.5 -143.45 -6.15 -144.3 L-6.05 -144.4 -5.55 -144.95 -5.4 -145.2 -5.25 -145.6 -5.15 -145.85 -4.0 -146.9 -3.8 -147.05 -3.7 -147.05 -3.0 -147.05 -2.2 -147.3 -2.1 -147.35 -2.1 -147.55 -2.05 -147.55 Q-1.7 -147.55 -1.4 -147.75 L-1.1 -148.05 0.0 -149.05 0.6 -149.35 2.25 -150.25 3.2 -150.0 2.95 -149.95 M3.25 -150.0 L3.35 -150.0 3.25 -150.0 M39.3 -84.75 L39.4 -84.55 Q39.95 -82.35 40.8 -80.3 L40.3 -79.7 40.2 -79.5 40.1 -79.3 39.6 -78.6 39.45 -78.4 38.9 -77.35 38.1 -76.25 37.75 -75.55 32.9 -65.9 32.2 -65.8 32.1 -65.7 32.0 -65.6 31.75 -65.55 31.1 -65.35 30.75 -65.2 30.4 -65.1 30.1 -64.75 29.95 -64.55 29.9 -64.35 29.9 -64.2 29.75 -63.8 30.55 -63.05 32.5 -60.5 32.75 -60.3 33.05 -60.05 33.85 -58.7 33.9 -58.4 33.85 -56.95 33.85 -56.05 33.4 -55.5 32.15 -54.2 32.1 -54.0 31.9 -53.35 31.55 -52.05 31.5 -49.85 30.95 -45.85 31.15 -44.7 30.95 -44.45 Q30.3 -43.65 30.0 -42.85 L30.1 -42.25 Q31.55 -40.2 34.35 -38.05 L34.65 -37.75 34.7 -37.5 34.55 -31.3 34.4 -30.85 34.15 -30.35 33.9 -30.05 33.6 -29.75 33.3 -29.05 33.2 -28.8 33.1 -28.55 33.1 -27.35 33.6 -26.1 34.4 -23.9 34.85 -23.5 36.8 -21.85 40.55 -17.8 40.5 -17.5 40.7 -16.95 41.1 -16.05 41.0 -15.95 40.75 -15.65 40.5 -15.35 39.95 -14.7 39.95 -14.6 39.9 -14.4 39.65 -14.05 39.45 -13.7 Q39.5 -12.8 39.85 -11.2 L41.2 -9.1 43.75 -5.2 43.8 -5.15 43.2 -5.2 Q40.55 -5.55 37.7 -4.5 L36.85 -3.6 36.45 -3.05 Q35.85 -2.2 35.65 -1.15 L35.5 0.8 Q32.3 2.1 29.25 3.6 L28.8 3.65 28.7 3.6 28.35 3.5 28.35 3.45 27.8 3.35 27.35 3.6 26.5 4.15 26.45 4.35 26.15 4.75 25.95 5.2 17.3 4.8 17.05 4.85 16.7 4.75 16.55 4.6 16.25 4.25 Q15.8 3.85 15.45 3.8 L15.25 3.65 14.7 3.2 12.9 1.45 10.0 0.5 Q7.95 -0.1 6.2 -1.05 L6.05 -1.45 5.9 -1.7 Q4.6 -4.3 2.9 -5.45 1.15 -6.55 0.15 -9.2 L-0.3 -10.45 -0.6 -10.85 -3.5 -12.55 Q-4.9 -12.35 -5.85 -11.6 L-7.15 -10.65 -7.35 -10.6 -7.8 -10.65 -8.15 -10.55 -8.25 -10.6 -8.45 -10.65 -8.7 -10.85 -9.45 -10.65 -10.15 -10.2 -10.65 -10.1 -17.25 -11.5 -17.4 -11.75 -18.0 -12.2 -18.45 -12.4 -18.7 -12.6 -19.95 -13.25 -20.05 -13.35 -20.2 -13.45 -20.7 -13.55 Q-21.95 -13.65 -23.1 -13.0 L-28.75 -9.95 -29.05 -10.05 -29.35 -10.15 Q-31.3 -10.9 -33.35 -11.95 L-33.55 -12.7 -33.85 -14.0 -34.85 -15.4 -35.3 -15.75 -38.85 -17.3 Q-41.05 -18.2 -42.45 -19.65 L-42.5 -19.7 -41.95 -20.4 -41.65 -20.75 -39.95 -22.45 -39.8 -22.7 -39.45 -23.2 -39.05 -23.6 -38.8 -24.05 -38.2 -25.3 -37.4 -26.45 -37.0 -26.95 Q-35.3 -28.75 -35.0 -31.45 L-33.95 -32.35 -33.5 -32.65 -33.5 -32.85 -33.45 -32.95 Q-33.0 -33.25 -32.95 -33.65 L-32.9 -33.8 Q-32.65 -34.45 -32.75 -35.15 L-32.35 -35.45 -31.5 -36.75 -31.35 -36.9 -28.15 -40.05 -27.55 -40.45 Q-26.8 -40.95 -26.35 -41.8 L-26.3 -42.05 -26.35 -42.35 -26.7 -43.75 Q-26.95 -44.7 -27.6 -45.45 L-27.5 -46.05 Q-27.1 -46.95 -26.85 -47.95 -26.45 -49.45 -26.2 -51.15 L-26.25 -52.2 -26.35 -52.65 Q-25.45 -53.35 -25.85 -54.25 L-25.2 -54.65 Q-23.9 -55.8 -23.1 -57.3 -22.1 -59.05 -21.25 -61.15 L-21.35 -61.7 -21.3 -62.75 -21.45 -63.55 -21.45 -64.4 -21.3 -64.7 -21.0 -65.05 -20.45 -65.75 Q-20.05 -66.2 -19.8 -66.8 L-19.5 -67.05 Q-18.25 -67.5 -17.3 -68.4 -16.7 -68.55 -16.3 -68.9 -15.35 -69.7 -14.15 -69.85 L-13.55 -69.6 -11.75 -69.05 -10.15 -69.0 -9.85 -69.05 Q-9.05 -69.3 -8.4 -70.0 L-7.4 -71.0 -6.75 -73.05 -6.25 -74.35 Q-4.45 -75.4 -2.75 -76.5 L-1.65 -77.2 Q-1.1 -77.4 -0.6 -77.75 L-0.3 -78.0 0.25 -78.55 Q1.35 -79.0 1.7 -79.6 L1.9 -80.35 1.6 -81.6 1.45 -82.4 1.3 -83.9 16.0 -84.35 28.4 -84.9 39.25 -85.05 39.3 -84.75" fill="#ffff00" fill-opacity="0.5019608" fill-rule="evenodd" stroke="none"/>
  </g>
</svg>
