<?xml version="1.0" encoding="UTF-8" standalone="no"?>
<svg xmlns:ffdec="https://www.free-decompiler.com/flash" xmlns:xlink="http://www.w3.org/1999/xlink" ffdec:objectType="shape" height="157.9px" width="104.6px" xmlns="http://www.w3.org/2000/svg">
  <g transform="matrix(1.0, 0.0, 0.0, 1.0, 42.1, 154.35)">
    <path d="M43.7 -151.95 L44.0 -151.8 44.35 -151.7 48.25 -150.9 48.5 -150.8 49.0 -150.65 51.5 -150.5 52.2 -150.75 54.45 -151.3 57.0 -151.3 57.15 -151.0 57.15 -150.75 57.1 -150.35 56.25 -148.45 56.15 -148.25 56.1 -148.0 55.85 -147.1 Q56.05 -146.35 55.85 -145.75 55.3 -144.35 55.7 -142.7 L56.05 -142.3 Q56.4 -141.9 56.8 -141.75 L56.9 -141.7 Q59.55 -140.6 61.9 -139.15 L61.95 -139.0 62.0 -138.85 62.0 -138.75 62.2 -138.45 62.4 -138.1 60.8 -136.25 Q59.6 -134.5 58.95 -132.2 58.7 -131.3 58.9 -130.4 L59.0 -130.1 61.9 -125.5 62.05 -125.05 62.15 -124.8 62.5 -122.95 61.25 -122.5 58.6 -121.6 57.15 -120.95 56.9 -120.8 Q55.7 -120.1 55.15 -118.75 55.35 -117.85 56.15 -117.1 L57.25 -116.05 58.05 -114.35 59.85 -110.3 60.0 -110.0 60.35 -108.9 60.65 -108.35 60.65 -108.15 60.0 -107.95 57.85 -107.5 55.05 -105.35 51.1 -101.85 51.1 -101.55 51.15 -101.2 51.25 -100.65 51.6 -99.05 52.45 -98.2 52.8 -97.9 54.6 -96.0 54.8 -95.55 54.9 -95.3 54.9 -95.15 54.7 -95.1 54.35 -95.05 53.0 -94.5 45.35 -92.15 44.85 -91.9 44.55 -91.85 43.4 -91.45 43.0 -91.25 42.4 -90.85 42.15 -90.6 Q40.65 -89.35 39.7 -87.3 L38.9 -86.55 38.8 -86.2 38.5 -85.35 38.3 -84.35 38.95 -82.8 39.2 -82.15 30.3 -82.2 28.3 -82.1 Q16.35 -81.4 4.35 -81.8 L4.35 -82.1 4.35 -82.8 4.4 -85.1 4.85 -86.65 12.25 -89.35 12.6 -89.85 12.65 -90.1 12.65 -90.25 12.65 -90.3 12.35 -90.9 11.75 -91.9 8.35 -95.85 8.05 -96.2 7.65 -96.65 7.25 -97.2 7.35 -97.25 8.05 -97.85 8.3 -98.15 8.5 -98.45 8.6 -98.55 8.9 -98.9 9.2 -99.25 Q9.65 -99.9 9.65 -100.8 L9.55 -101.35 9.6 -101.65 9.45 -102.95 9.65 -104.3 Q9.85 -105.7 9.35 -107.15 L8.9 -108.0 8.55 -108.4 7.5 -109.5 Q5.15 -112.1 5.05 -114.7 6.3 -115.6 7.65 -116.0 L7.6 -116.65 7.65 -117.15 7.7 -118.0 7.15 -119.85 7.2 -120.15 7.0 -120.6 6.1 -122.3 Q4.1 -125.0 3.95 -127.35 4.75 -127.0 5.5 -127.0 L5.95 -127.25 Q6.55 -127.45 6.7 -128.15 L6.85 -128.8 Q7.3 -130.9 7.25 -133.1 L7.1 -133.6 6.7 -134.7 Q5.45 -137.3 4.45 -139.8 L4.45 -143.65 4.65 -146.9 5.55 -147.3 Q7.2 -146.9 8.7 -147.7 L9.85 -148.55 9.8 -148.8 9.8 -149.0 10.15 -149.55 11.3 -152.3 11.4 -152.4 12.05 -152.9 12.2 -153.05 12.35 -153.4 12.45 -153.65 13.85 -154.35 14.15 -154.35 14.25 -154.25 Q14.45 -153.6 15.05 -153.15 L16.0 -152.25 Q16.7 -151.55 16.5 -150.4 L16.95 -150.3 17.05 -150.3 17.8 -150.4 18.1 -150.8 19.4 -151.55 20.1 -151.8 21.85 -152.4 22.6 -151.2 22.7 -150.7 22.75 -149.7 22.65 -149.2 Q23.65 -146.95 25.55 -144.9 L25.65 -144.8 Q26.2 -143.95 26.95 -143.45 L27.6 -143.65 27.85 -143.75 28.2 -144.0 31.05 -145.85 Q34.35 -147.3 37.15 -149.35 L38.3 -151.25 38.8 -151.6 38.9 -151.7 39.05 -151.85 39.2 -152.0 39.5 -152.45 Q40.2 -152.9 40.3 -153.8 L40.6 -153.95 40.85 -153.8 41.25 -153.75 41.45 -153.7 41.6 -153.6 42.3 -153.15 Q42.8 -153.0 43.05 -152.65 43.2 -152.25 43.7 -151.95 M41.4 -76.6 L41.3 -75.7 41.3 -75.45 41.35 -75.2 41.05 -74.4 40.95 -74.2 40.45 -73.1 39.5 -72.15 39.0 -71.55 32.55 -62.9 31.9 -62.6 31.85 -62.4 31.8 -62.2 31.6 -62.0 31.0 -61.6 30.65 -61.4 30.4 -61.2 30.25 -60.75 30.2 -60.5 30.2 -60.3 30.4 -60.05 30.55 -59.75 31.75 -59.45 Q33.3 -58.95 34.7 -57.8 L35.0 -57.6 35.35 -57.4 36.45 -56.25 36.55 -56.05 36.55 -54.6 36.55 -53.7 36.25 -53.0 35.15 -51.65 35.05 -51.45 34.75 -50.85 34.2 -49.65 33.45 -47.55 31.8 -43.75 31.9 -42.6 31.75 -42.3 Q31.2 -41.4 31.25 -40.5 L32.0 -40.15 Q34.4 -38.9 37.05 -36.75 L37.35 -36.45 37.2 -36.25 34.15 -30.3 33.95 -29.9 33.55 -29.45 33.25 -29.15 32.95 -28.85 32.8 -28.05 32.75 -27.8 32.7 -27.5 33.25 -26.35 34.0 -25.25 35.25 -23.25 35.65 -22.8 37.45 -21.1 41.05 -16.95 41.1 -16.65 41.4 -16.15 42.0 -15.25 42.0 -15.2 41.7 -14.95 41.3 -14.8 40.5 -14.4 40.4 -14.3 40.2 -14.15 39.85 -13.95 39.5 -13.75 Q38.15 -12.85 37.25 -11.1 L37.9 -8.55 Q38.45 -6.3 39.4 -4.1 39.15 -4.15 38.95 -4.35 L38.4 -4.6 Q35.95 -6.05 32.9 -5.55 L31.65 -5.0 31.0 -4.6 Q30.15 -4.0 29.6 -3.1 L28.65 -1.25 Q25.75 0.6 23.0 2.7 L22.55 2.7 22.45 2.65 22.2 2.5 22.2 2.45 21.7 2.15 21.0 1.85 19.7 1.5 19.45 1.45 19.4 1.35 18.85 1.4 18.35 1.7 Q13.75 1.65 9.85 3.4 L9.55 3.55 9.25 3.4 9.1 3.25 9.0 2.8 8.7 1.8 8.75 1.4 8.65 0.55 7.9 -2.05 5.1 -3.3 1.25 -4.55 1.2 -4.95 1.1 -5.25 Q0.5 -8.05 -0.45 -10.1 -1.35 -12.05 -1.95 -14.75 L-2.25 -16.0 -2.45 -16.4 Q-3.3 -17.85 -4.8 -18.8 -6.2 -18.55 -6.85 -17.45 L-7.75 -16.1 -7.95 -15.8 -8.4 -15.3 -8.7 -14.95 -8.8 -14.85 -9.1 -14.55 -9.5 -14.25 -10.2 -13.7 -10.8 -13.15 -11.3 -13.05 -17.35 -15.9 -17.5 -16.1 Q-17.85 -16.35 -18.15 -16.4 L-18.65 -16.45 -18.95 -16.55 -20.45 -16.65 -20.6 -16.6 -20.8 -16.6 -21.35 -16.55 -23.7 -15.9 -29.2 -12.8 -29.5 -13.0 -29.75 -13.2 -32.95 -16.5 -33.25 -17.2 -33.7 -18.4 -34.6 -19.85 -35.05 -20.2 -38.65 -21.75 Q-40.65 -22.7 -42.1 -24.25 L-41.5 -24.9 -41.1 -25.15 -39.15 -26.55 -39.0 -26.75 -38.55 -27.2 -38.1 -27.65 -37.85 -28.0 -37.6 -29.35 -37.3 -30.8 -37.15 -31.45 Q-36.5 -33.75 -36.55 -36.6 L-35.15 -37.05 -34.5 -36.85 -34.0 -36.7 -33.8 -36.7 -32.45 -36.85 -32.25 -36.95 -31.2 -38.15 -30.8 -38.5 -30.35 -40.0 -30.25 -40.2 Q-29.4 -42.1 -27.8 -43.95 L-27.15 -44.25 Q-26.35 -44.7 -25.85 -45.45 L-25.7 -45.75 -25.75 -46.05 -25.8 -47.4 Q-25.9 -48.4 -26.4 -49.2 L-26.5 -49.85 -26.5 -51.95 -26.7 -55.25 -26.9 -56.3 -27.05 -56.75 Q-25.6 -56.85 -25.15 -57.85 L-24.6 -58.3 Q-23.6 -59.8 -23.25 -61.5 L-22.05 -65.7 -22.05 -66.2 -21.9 -67.25 -21.85 -68.0 -21.75 -68.9 -21.1 -68.65 -20.0 -67.75 -18.85 -67.8 -17.75 -68.6 -17.5 -68.85 Q-16.35 -69.45 -15.7 -70.75 L-14.8 -71.45 Q-14.1 -72.6 -12.95 -72.8 L-12.45 -72.45 -10.75 -71.55 -9.2 -70.9 -8.8 -70.75 -6.7 -70.5 Q-5.95 -70.6 -5.2 -71.0 L-4.35 -73.0 -3.6 -74.15 -1.55 -76.05 0.85 -76.15 22.3 -76.85 Q31.8 -77.15 41.3 -76.9 L41.4 -76.6" fill="#ffff00" fill-opacity="0.5019608" fill-rule="evenodd" stroke="none"/>
  </g>
</svg>
