<?xml version="1.0" encoding="UTF-8" standalone="no"?>
<svg xmlns:ffdec="https://www.free-decompiler.com/flash" xmlns:xlink="http://www.w3.org/1999/xlink" ffdec:objectType="shape" height="141.3px" width="78.25px" xmlns="http://www.w3.org/2000/svg">
  <g transform="matrix(1.0, 0.0, 0.0, 1.0, 26.6, 147.7)">
    <path d="M10.85 -145.65 Q10.9 -146.55 11.85 -146.95 L13.1 -147.3 Q17.3 -146.25 16.7 -141.5 L16.7 -140.65 Q16.7 -129.55 20.9 -119.35 L21.05 -118.95 Q24.15 -121.4 28.25 -121.4 33.15 -121.4 36.6 -117.95 L37.5 -116.95 Q39.0 -120.95 41.3 -124.55 44.2 -132.4 44.6 -140.7 L44.45 -141.05 Q42.5 -145.95 46.9 -147.7 52.55 -147.5 51.45 -141.85 51.25 -140.75 50.7 -140.0 L50.25 -138.45 Q49.65 -136.7 49.65 -134.8 49.65 -128.95 47.1 -123.6 L42.55 -113.1 40.9 -109.6 40.0 -108.5 Q39.65 -104.3 36.6 -101.25 34.8 -99.45 32.6 -98.55 L32.4 -98.25 28.95 -92.55 25.65 -87.35 Q22.85 -82.7 20.85 -77.5 19.05 -72.75 16.6 -68.3 L15.55 -65.8 14.3 -62.5 Q14.95 -61.15 14.4 -59.05 L13.9 -56.25 Q12.7 -45.15 16.15 -34.45 19.6 -23.85 26.5 -15.05 29.7 -10.95 25.1 -8.75 L21.7 -7.2 Q17.7 -5.5 14.3 -7.5 13.05 -8.25 13.5 -9.7 14.4 -12.35 17.5 -12.65 18.9 -12.75 20.2 -13.3 14.85 -20.8 11.45 -29.2 L11.35 -29.75 Q7.85 -39.7 7.8 -50.5 L7.85 -51.95 8.15 -56.3 Q4.9 -55.2 1.35 -55.15 L-8.9 -54.6 -9.05 -53.3 -9.4 -49.05 Q-9.35 -37.9 -10.5 -26.9 -10.6 -26.15 -11.15 -25.7 L-11.4 -25.25 Q-12.15 -23.75 -13.8 -23.55 L-24.4 -22.0 Q-25.25 -21.9 -25.7 -22.6 -28.25 -26.45 -23.6 -27.75 L-17.1 -29.15 -15.8 -29.35 Q-15.1 -40.25 -15.4 -51.25 -15.45 -53.95 -14.9 -56.45 -15.5 -59.1 -12.1 -59.9 L-10.15 -60.1 Q-1.7 -59.85 6.25 -62.25 L8.15 -62.9 8.25 -63.55 9.1 -66.05 15.65 -81.15 Q17.8 -86.05 20.55 -90.7 L23.1 -94.6 25.3 -98.1 Q24.35 -98.35 23.3 -98.85 L23.15 -98.55 22.35 -99.2 21.9 -99.75 Q20.4 -102.05 18.2 -103.35 16.45 -106.1 16.45 -109.6 16.45 -111.6 17.05 -113.35 15.4 -116.15 14.7 -119.45 13.95 -120.2 13.75 -121.2 L13.65 -122.35 Q12.45 -124.9 12.15 -127.8 L12.1 -128.95 Q11.1 -132.25 10.85 -135.85 L10.7 -139.3 Q10.1 -140.0 9.8 -141.15 9.35 -142.8 10.75 -143.6 L10.85 -145.65" fill="#000000" fill-rule="evenodd" stroke="none"/>
  </g>
</svg>
