<?xml version="1.0" encoding="UTF-8" standalone="no"?>
<svg xmlns:ffdec="https://www.free-decompiler.com/flash" xmlns:xlink="http://www.w3.org/1999/xlink" ffdec:objectType="shape" height="164.0px" width="120.4px" xmlns="http://www.w3.org/2000/svg">
  <g transform="matrix(1.0, 0.0, 0.0, 1.0, 41.75, 161.8)">
    <path d="M-21.9 -73.3 L-22.0 -73.3 -22.0 -73.4 -21.9 -73.3 M-11.8 -75.8 L-11.35 -75.3 -9.95 -74.2 -13.25 -74.2 Q-12.8 -75.55 -11.8 -75.8 M0.55 -68.6 L9.25 -68.0 Q25.05 -67.75 40.9 -68.0 L40.25 -67.5 31.55 -59.35 31.55 -59.05 31.55 -58.75 31.45 -58.5 30.9 -57.9 30.6 -57.6 30.4 -57.35 30.4 -56.75 30.45 -56.45 30.5 -56.2 30.85 -55.95 31.35 -55.7 Q35.85 -56.45 39.2 -53.7 L39.25 -52.25 39.1 -50.55 38.0 -48.95 Q35.5 -45.1 32.7 -41.65 32.85 -40.85 32.55 -40.2 32.15 -39.2 32.45 -38.2 36.85 -38.0 40.0 -35.15 L32.35 -27.95 32.35 -27.1 32.35 -26.8 32.35 -26.5 Q35.4 -23.5 38.05 -20.35 L42.95 -14.45 42.65 -14.2 Q37.85 -13.95 34.65 -10.95 L34.6 -8.05 Q34.5 -5.45 35.0 -3.0 34.25 -3.35 33.65 -4.0 30.75 -7.2 26.45 -6.4 24.8 -6.15 23.55 -5.0 19.95 -1.8 16.75 1.8 L16.35 1.8 16.25 1.7 16.05 1.45 Q14.4 -0.45 12.45 -1.45 12.1 -2.0 11.5 -1.95 6.25 -1.4 2.1 2.2 L1.8 2.1 1.7 1.9 1.75 1.3 Q1.75 0.25 2.2 -0.8 3.1 -3.05 2.85 -5.55 -0.05 -7.6 -3.65 -8.05 L-3.65 -8.8 Q-3.6 -14.6 -4.05 -20.3 -4.25 -23.35 -6.15 -25.1 -7.45 -24.7 -7.85 -23.3 -8.85 -19.25 -11.5 -16.1 L-11.95 -16.0 -17.65 -20.45 -18.35 -20.65 Q-24.55 -19.55 -29.65 -15.7 L-29.95 -16.0 -30.15 -16.3 Q-32.1 -20.45 -34.3 -24.3 -34.5 -24.6 -34.8 -24.7 -38.8 -25.65 -41.75 -28.8 -41.35 -29.35 -40.6 -29.55 -38.3 -30.15 -36.95 -32.0 L-37.15 -35.1 -38.1 -41.75 -36.35 -41.75 Q-32.25 -38.45 -29.3 -41.55 L-29.2 -43.55 Q-29.0 -45.95 -27.45 -47.85 L-26.8 -48.05 Q-25.75 -48.45 -25.15 -49.4 L-24.95 -51.1 Q-24.8 -52.55 -25.55 -53.7 L-26.15 -56.0 -27.75 -60.85 Q-25.3 -60.25 -24.0 -62.0 -23.35 -63.8 -23.35 -65.75 L-23.25 -67.35 Q-11.55 -70.0 0.55 -68.6 M41.4 -154.55 Q42.1 -152.0 42.3 -149.35 42.6 -144.65 45.55 -141.45 46.2 -141.65 46.8 -141.95 52.75 -144.9 56.75 -150.05 L57.4 -150.25 57.8 -150.35 57.95 -150.45 58.4 -150.75 Q59.4 -151.1 59.5 -152.05 L59.9 -152.1 59.9 -152.05 60.3 -151.65 60.8 -151.35 Q60.95 -151.3 61.05 -151.2 61.3 -150.55 61.9 -150.25 L62.55 -149.55 Q62.6 -149.05 63.1 -148.65 63.45 -148.4 63.75 -148.4 70.5 -147.8 77.1 -148.05 77.2 -147.15 76.75 -146.4 L73.65 -141.45 Q73.75 -140.7 73.3 -140.15 72.25 -138.8 72.5 -137.15 L73.6 -136.15 Q76.1 -134.3 78.25 -131.85 L78.25 -131.6 78.25 -131.3 78.5 -131.0 78.65 -130.7 Q75.05 -129.0 73.65 -125.4 73.3 -124.55 73.6 -123.65 75.2 -119.45 76.25 -115.2 73.7 -115.05 71.2 -115.2 67.3 -115.35 64.85 -112.8 64.7 -111.6 65.3 -110.6 L69.45 -103.35 Q69.4 -102.75 69.65 -102.2 L69.85 -101.65 69.7 -101.45 Q61.75 -99.8 54.9 -95.9 L54.9 -94.75 54.9 -93.0 55.75 -92.1 57.5 -89.55 57.55 -89.0 57.55 -88.7 57.5 -88.45 45.7 -87.25 Q40.3 -86.7 37.3 -82.9 L37.25 -81.45 Q37.25 -80.85 37.4 -80.3 L38.85 -78.85 40.15 -77.05 Q41.45 -75.25 42.0 -73.25 25.25 -73.15 8.55 -73.85 L-0.8 -74.1 Q0.85 -76.25 1.9 -78.75 L2.85 -79.45 3.65 -80.5 5.75 -80.6 Q6.35 -80.65 6.55 -81.2 7.95 -84.2 7.45 -87.75 10.65 -89.8 14.55 -90.9 L14.7 -91.5 14.75 -91.8 14.75 -92.05 14.25 -92.6 8.05 -98.45 8.75 -99.1 8.95 -99.35 9.1 -99.6 Q10.65 -100.35 11.15 -101.95 12.25 -105.3 10.7 -108.5 9.8 -109.65 9.05 -111.05 7.2 -114.45 8.3 -118.0 10.95 -119.3 13.75 -120.0 L14.1 -121.4 Q14.25 -123.0 13.2 -124.0 13.2 -125.65 12.65 -127.1 11.3 -130.85 12.35 -134.35 14.2 -134.05 16.05 -134.4 16.85 -134.5 17.05 -135.2 18.1 -138.4 17.65 -142.0 16.85 -148.8 17.0 -155.8 L18.15 -155.9 Q21.55 -153.75 24.7 -155.6 L24.7 -155.9 24.75 -156.15 25.5 -156.8 28.9 -160.45 29.65 -160.8 29.8 -160.95 29.95 -161.25 30.05 -161.4 31.75 -161.8 32.1 -161.65 32.25 -161.45 Q32.4 -160.2 33.1 -159.2 34.85 -156.5 35.1 -153.4 L36.0 -153.05 Q36.8 -152.8 37.3 -153.5 39.45 -154.4 41.4 -154.55" fill="#ffff00" fill-opacity="0.5019608" fill-rule="evenodd" stroke="none"/>
  </g>
</svg>
