<?xml version="1.0" encoding="UTF-8" standalone="no"?>
<svg xmlns:ffdec="https://www.free-decompiler.com/flash" xmlns:xlink="http://www.w3.org/1999/xlink" ffdec:objectType="shape" height="141.9px" width="95.55px" xmlns="http://www.w3.org/2000/svg">
  <g transform="matrix(1.0, 0.0, 0.0, 1.0, 28.5, 148.45)">
    <path d="M32.5 -142.1 Q36.0 -138.3 31.2 -136.15 L30.0 -135.85 29.95 -135.5 Q28.7 -126.95 29.15 -118.3 L30.5 -118.4 Q35.4 -118.4 38.85 -114.95 40.3 -113.5 41.15 -111.75 46.35 -116.9 50.25 -123.1 L53.25 -128.15 Q55.55 -132.15 57.35 -136.25 57.05 -139.25 58.5 -141.55 59.15 -142.7 60.35 -142.7 63.6 -142.0 63.25 -138.65 L63.2 -138.35 Q67.25 -138.4 67.05 -134.65 66.95 -133.1 65.45 -132.5 63.8 -131.85 61.95 -131.85 57.75 -123.7 52.4 -116.1 47.9 -109.75 42.15 -104.4 41.5 -100.9 38.85 -98.25 36.25 -95.65 32.9 -95.0 32.6 -93.65 31.65 -93.25 L29.1 -88.7 Q27.0 -83.05 23.2 -78.2 22.35 -77.1 21.9 -75.8 21.1 -73.5 19.8 -71.45 17.8 -64.1 13.8 -57.45 L13.35 -56.8 Q11.2 -50.75 12.25 -44.2 12.65 -41.65 13.5 -39.15 15.7 -32.75 19.1 -26.8 20.3 -24.7 20.85 -22.35 L26.75 -13.8 Q27.15 -13.15 26.9 -12.35 25.95 -9.4 22.75 -8.65 19.45 -7.85 16.25 -6.7 14.6 -6.1 13.65 -7.6 11.9 -10.2 14.75 -12.05 16.8 -13.4 19.25 -14.0 15.9 -19.3 13.35 -24.95 L13.25 -25.25 12.3 -26.7 12.1 -27.55 Q6.1 -36.8 6.05 -48.0 6.0 -52.7 6.75 -57.25 L6.8 -57.6 -10.25 -56.85 Q-12.0 -52.3 -11.95 -47.3 -11.9 -42.05 -11.4 -36.95 -10.9 -32.05 -12.15 -27.5 -12.25 -27.15 -12.6 -27.05 L-21.05 -26.7 -26.9 -28.1 Q-28.4 -28.5 -28.5 -30.05 -28.6 -32.8 -25.7 -32.9 L-17.15 -32.25 -17.25 -41.65 Q-17.45 -46.85 -17.25 -52.0 L-16.6 -57.55 Q-16.15 -59.85 -15.0 -61.7 -14.3 -62.75 -13.05 -62.7 -2.0 -62.4 8.45 -63.95 L10.45 -64.15 10.6 -64.55 Q14.0 -71.55 16.95 -78.85 19.15 -84.35 22.6 -89.2 23.45 -90.45 23.95 -91.85 24.7 -93.95 25.9 -95.7 L25.55 -95.85 25.4 -95.55 24.6 -96.2 24.15 -96.75 Q22.65 -99.05 20.45 -100.35 18.7 -103.1 18.7 -106.6 18.7 -111.5 22.15 -114.95 L23.4 -116.05 23.35 -117.55 Q23.05 -127.0 24.0 -136.3 L24.4 -139.15 Q23.35 -140.05 22.45 -141.1 22.05 -141.55 22.3 -142.25 23.25 -145.1 26.45 -144.6 26.55 -147.4 29.05 -148.3 L29.6 -148.45 Q33.5 -147.0 32.5 -142.4 L32.5 -142.1" fill="#000000" fill-rule="evenodd" stroke="none"/>
  </g>
</svg>
