<?xml version="1.0" encoding="UTF-8" standalone="no"?>
<svg xmlns:ffdec="https://www.free-decompiler.com/flash" xmlns:xlink="http://www.w3.org/1999/xlink" ffdec:objectType="shape" height="157.15px" width="128.55px" xmlns="http://www.w3.org/2000/svg">
  <g transform="matrix(1.0, 0.0, 0.0, 1.0, 44.4, 155.9)">
    <path d="M83.6 -125.8 L83.65 -125.55 83.7 -125.3 83.95 -125.0 84.15 -124.7 83.6 -124.15 83.45 -124.0 83.3 -123.8 Q82.7 -122.9 82.25 -121.5 L80.8 -119.85 Q80.3 -119.15 80.3 -118.4 L80.4 -115.45 80.5 -114.85 81.0 -112.2 81.1 -111.85 81.2 -111.65 81.4 -110.75 81.5 -110.25 79.2 -109.3 77.35 -109.45 76.5 -109.5 Q73.15 -109.6 70.75 -107.8 L70.45 -106.9 70.65 -106.05 70.75 -105.75 71.55 -103.95 71.75 -103.65 71.95 -103.35 72.25 -102.65 73.5 -99.95 73.65 -98.7 73.5 -98.1 73.45 -97.9 73.45 -97.5 Q73.4 -97.4 73.25 -97.4 L71.4 -97.2 Q69.2 -97.0 67.35 -96.0 L66.1 -95.05 Q63.25 -92.95 60.7 -90.35 L60.7 -90.05 60.5 -89.5 60.05 -88.3 60.45 -87.65 60.9 -86.0 60.8 -85.6 60.7 -85.4 60.6 -85.25 59.8 -85.25 54.1 -84.65 53.35 -84.3 50.25 -82.85 49.5 -82.45 Q46.5 -82.05 44.15 -81.15 42.85 -80.65 41.7 -79.75 L41.3 -78.7 41.1 -77.8 41.35 -77.2 41.85 -76.35 41.9 -76.3 43.0 -74.35 Q43.95 -72.65 44.35 -70.85 L44.35 -70.3 44.2 -69.25 44.2 -69.0 44.25 -68.8 43.8 -67.95 43.2 -67.1 43.15 -67.05 42.45 -66.65 41.8 -66.35 -25.15 -66.2 -24.6 -67.5 -24.55 -67.8 Q-24.25 -70.85 -23.6 -73.75 L-23.1 -75.6 Q-21.95 -75.3 -20.95 -74.7 L-20.3 -74.1 Q-19.55 -73.4 -18.55 -73.35 L-17.75 -73.4 Q-15.85 -73.5 -14.95 -75.65 L-14.65 -75.8 Q-14.3 -76.05 -14.1 -76.5 -13.45 -77.85 -12.45 -78.3 -12.25 -78.1 -12.0 -78.05 L-8.65 -76.85 Q-7.3 -76.25 -6.1 -76.35 L-5.6 -76.3 -4.2 -76.05 -2.95 -77.05 Q-0.9 -78.05 0.6 -79.4 L0.95 -79.8 1.25 -80.1 2.25 -80.65 3.15 -81.6 5.15 -81.95 5.45 -82.1 Q5.7 -82.15 5.85 -82.35 L6.1 -82.6 Q7.1 -83.9 6.95 -85.5 L8.4 -85.75 Q9.35 -85.8 10.5 -86.35 L13.7 -87.65 14.0 -88.25 14.15 -88.5 14.2 -88.75 13.95 -89.25 12.3 -92.85 12.15 -92.95 11.2 -94.1 11.85 -94.6 11.95 -94.7 12.15 -95.0 12.3 -95.3 13.65 -96.4 13.8 -96.7 14.15 -97.75 14.2 -97.75 14.3 -98.0 Q15.35 -100.35 14.95 -102.75 L14.25 -104.15 13.8 -104.7 13.7 -104.85 13.65 -105.05 13.45 -105.35 12.5 -106.75 Q11.85 -107.8 11.55 -108.95 L11.6 -109.65 Q11.45 -111.2 11.6 -112.8 L11.75 -113.75 15.65 -116.75 15.9 -118.2 15.8 -119.8 15.55 -120.4 Q15.9 -121.45 15.9 -122.55 L15.9 -123.35 Q15.8 -125.0 16.0 -126.6 16.15 -128.15 16.65 -129.65 18.2 -129.9 19.8 -130.6 20.5 -130.8 20.7 -131.5 L21.5 -134.2 21.5 -134.55 21.65 -135.25 22.25 -137.0 22.5 -138.25 23.5 -141.75 23.5 -142.15 23.6 -142.75 23.7 -143.4 23.75 -143.7 23.8 -145.25 24.15 -147.95 25.25 -148.3 25.7 -148.2 Q27.65 -147.3 29.4 -147.6 30.3 -148.0 31.1 -148.65 L31.35 -148.9 31.35 -149.2 31.35 -149.45 31.95 -150.1 34.45 -154.15 35.0 -154.6 35.15 -154.8 35.25 -155.15 35.3 -155.35 35.75 -155.7 36.9 -155.9 37.3 -155.75 37.45 -155.6 Q37.85 -154.65 38.7 -153.85 L38.8 -153.7 39.75 -152.8 Q40.9 -151.7 41.35 -150.5 L42.15 -150.45 Q42.85 -150.4 43.3 -151.05 L44.15 -151.6 46.5 -152.65 46.85 -152.7 46.9 -152.75 47.0 -152.55 48.0 -150.5 48.8 -148.3 49.8 -145.75 Q50.3 -144.45 51.2 -143.65 L53.2 -142.25 54.45 -142.8 54.85 -143.0 57.15 -143.35 58.1 -143.65 Q60.25 -144.35 62.05 -145.65 L62.55 -145.55 62.85 -145.5 62.95 -145.5 63.2 -145.5 63.35 -145.55 Q64.3 -145.65 64.55 -146.45 L64.9 -146.55 65.1 -146.4 65.4 -146.3 65.95 -146.1 66.25 -146.0 Q66.55 -145.55 67.15 -145.35 67.65 -145.2 67.9 -144.85 68.1 -144.45 68.6 -144.15 L69.3 -143.95 69.6 -143.95 71.85 -142.95 Q75.4 -141.5 78.85 -140.4 L79.75 -140.35 80.0 -139.1 79.25 -135.4 79.4 -134.4 Q79.2 -133.85 79.35 -133.2 L79.25 -131.85 80.0 -130.7 83.35 -126.0 83.6 -125.8 M34.5 -60.95 L32.75 -58.3 32.75 -58.0 32.75 -57.7 32.7 -57.4 32.3 -56.75 32.3 -56.7 31.95 -56.5 31.7 -56.3 31.55 -55.85 31.5 -55.65 31.5 -55.45 31.7 -55.25 31.9 -55.05 Q34.1 -55.5 35.65 -52.9 L35.35 -51.65 35.15 -50.85 35.05 -50.25 35.0 -50.05 34.6 -49.15 34.4 -48.4 32.85 -43.05 32.7 -42.75 32.4 -42.2 32.1 -41.85 31.85 -41.55 31.85 -41.5 Q31.95 -40.7 31.6 -40.05 L31.3 -39.2 31.35 -38.6 31.35 -38.1 32.2 -37.75 33.2 -37.5 Q36.4 -36.8 38.85 -34.7 L38.7 -34.5 37.2 -32.6 Q34.65 -29.7 32.55 -26.6 L32.55 -25.9 32.55 -25.75 32.6 -25.45 32.65 -25.15 34.25 -23.65 38.85 -19.55 41.5 -16.95 41.6 -16.8 41.7 -16.5 42.4 -14.35 42.1 -14.15 Q37.35 -13.55 34.05 -10.55 L34.0 -10.4 33.95 -9.35 33.9 -7.5 Q33.9 -5.55 34.2 -3.65 L34.0 -2.75 33.3 -3.05 32.5 -3.55 Q31.6 -4.2 30.6 -4.5 28.15 -5.35 25.25 -4.4 23.7 -3.9 22.5 -2.7 L22.2 -2.35 18.65 -0.6 Q16.95 0.25 15.25 1.25 L14.8 1.2 14.7 1.15 14.45 0.9 Q12.65 -0.85 10.6 -1.8 10.15 -2.25 9.55 -2.25 L7.35 -2.15 6.85 -2.15 5.65 -2.2 5.35 -2.15 5.1 -2.15 4.9 -2.15 4.35 -2.1 Q3.0 -1.9 1.5 -1.05 L0.95 -0.8 0.65 -0.9 0.5 -1.1 0.4 -1.6 Q0.1 -2.45 0.15 -3.35 L0.15 -4.1 Q0.6 -5.8 0.6 -7.6 L0.65 -8.05 Q-1.3 -10.55 -3.95 -11.85 L-3.95 -12.65 -3.95 -13.8 Q-4.3 -15.5 -4.8 -16.35 L-5.25 -18.6 -5.95 -23.15 Q-6.45 -26.1 -8.35 -27.95 L-9.55 -27.65 -10.15 -27.2 -11.5 -24.8 -11.6 -24.5 Q-12.05 -23.35 -12.75 -22.35 L-13.1 -21.65 -14.0 -20.25 -14.4 -20.0 -16.25 -20.6 -16.8 -20.9 -20.05 -23.25 -20.75 -23.5 -23.15 -23.5 -24.1 -23.35 Q-28.2 -22.4 -31.8 -20.15 L-32.25 -20.0 -32.45 -20.3 -32.6 -20.65 -32.85 -21.6 Q-33.7 -24.65 -35.5 -26.9 L-36.05 -27.65 -36.75 -28.55 -37.05 -28.75 -37.25 -28.85 Q-41.25 -29.95 -44.35 -32.65 L-44.4 -32.75 -43.3 -33.55 Q-41.15 -34.4 -39.5 -35.95 L-39.45 -36.35 -39.2 -38.15 -39.1 -38.7 Q-38.8 -41.1 -38.8 -43.65 L-39.3 -45.0 -39.2 -45.0 -38.8 -45.15 -38.25 -45.3 Q-36.0 -43.95 -34.25 -46.4 L-33.55 -46.9 -32.95 -48.3 -32.75 -48.6 -30.45 -51.05 -29.7 -51.2 Q-28.65 -51.5 -27.9 -52.25 L-27.3 -53.65 -27.2 -54.0 -27.2 -54.3 -27.4 -55.65 -27.5 -56.15 -27.7 -57.85 -27.85 -58.45 -28.35 -60.6 34.6 -61.1 34.5 -60.95" fill="#ffff00" fill-opacity="0.5019608" fill-rule="evenodd" stroke="none"/>
  </g>
</svg>
