<?xml version="1.0" encoding="UTF-8" standalone="no"?>
<svg xmlns:ffdec="https://www.free-decompiler.com/flash" xmlns:xlink="http://www.w3.org/1999/xlink" ffdec:objectType="shape" height="136.25px" width="113.6px" xmlns="http://www.w3.org/2000/svg">
  <g transform="matrix(1.0, 0.0, 0.0, 1.0, 33.15, 144.2)">
    <path d="M39.7 -120.6 L41.2 -125.35 Q42.9 -132.05 46.25 -138.0 46.05 -138.6 46.0 -139.4 45.8 -142.0 47.7 -143.6 48.4 -144.2 49.2 -144.2 52.05 -143.05 53.4 -140.05 54.6 -137.4 51.95 -136.2 L51.05 -134.4 Q49.6 -132.0 48.7 -129.35 L46.3 -122.7 Q45.4 -116.75 43.35 -110.95 L45.1 -109.5 Q47.5 -107.1 48.25 -103.95 53.95 -108.3 60.0 -112.15 66.2 -116.05 71.6 -121.05 L72.35 -121.65 Q72.4 -122.95 73.0 -124.5 73.75 -126.45 75.7 -126.55 78.8 -126.4 78.9 -123.4 L78.85 -123.1 Q82.35 -119.55 78.1 -117.25 L76.65 -117.05 75.75 -116.3 71.55 -113.3 61.9 -106.5 Q54.15 -100.95 46.75 -94.85 L45.1 -92.8 Q42.45 -90.15 38.95 -89.5 L38.65 -89.6 38.3 -89.0 Q32.7 -79.5 24.65 -71.6 L23.15 -69.8 Q19.15 -63.85 13.85 -59.1 14.65 -57.55 13.95 -55.1 L13.45 -52.9 11.6 -41.35 Q11.3 -39.35 11.35 -37.35 L19.15 -26.0 20.85 -23.95 Q23.65 -21.05 25.5 -17.65 28.75 -16.75 27.0 -13.4 26.45 -12.3 25.5 -11.45 20.95 -7.45 15.3 -8.0 14.7 -8.1 14.35 -8.7 12.5 -12.3 16.7 -13.95 L20.1 -15.35 13.4 -23.3 Q11.7 -25.15 10.35 -27.3 7.65 -31.5 5.45 -35.9 5.2 -36.35 5.25 -36.95 5.65 -45.6 7.6 -54.0 L7.85 -56.55 2.7 -57.8 Q-3.05 -59.55 -8.45 -61.85 -10.05 -58.8 -11.1 -55.55 -12.35 -51.65 -14.3 -48.1 -15.6 -43.25 -18.1 -38.85 -17.9 -38.05 -18.3 -36.9 -18.9 -35.25 -20.7 -35.05 -27.85 -34.3 -32.7 -38.95 -33.4 -39.65 -33.05 -40.65 -32.35 -42.7 -30.35 -42.8 -26.7 -41.6 -22.95 -40.95 L-22.9 -41.3 -21.4 -46.0 -18.3 -54.05 -17.55 -55.2 Q-16.35 -60.35 -13.8 -64.7 L-13.95 -65.55 Q-13.8 -68.3 -11.1 -68.55 L-10.75 -68.45 -10.35 -68.55 -8.45 -67.8 Q-2.5 -66.15 3.35 -64.1 L8.7 -62.2 Q10.05 -64.15 12.0 -65.65 L14.0 -67.75 Q20.35 -76.75 27.85 -84.85 30.1 -87.25 31.6 -90.15 L30.85 -90.75 30.4 -91.3 Q28.9 -93.6 26.7 -94.9 24.95 -97.65 24.95 -101.15 24.95 -106.05 28.4 -109.5 31.85 -112.95 36.75 -112.95 L37.65 -112.9 Q38.3 -116.85 39.7 -120.6" fill="#000000" fill-rule="evenodd" stroke="none"/>
  </g>
</svg>
