<?xml version="1.0" encoding="UTF-8" standalone="no"?>
<svg xmlns:ffdec="https://www.free-decompiler.com/flash" xmlns:xlink="http://www.w3.org/1999/xlink" ffdec:objectType="shape" height="151.6px" width="146.85px" xmlns="http://www.w3.org/2000/svg">
  <g transform="matrix(1.0, 0.0, 0.0, 1.0, 49.75, 149.2)">
    <path d="M84.1 -125.05 L85.1 -125.0 86.5 -124.5 Q88.5 -123.8 90.5 -123.25 L91.6 -122.95 92.9 -122.65 92.75 -121.3 92.75 -121.25 92.75 -119.85 Q92.9 -117.0 94.0 -113.95 L94.25 -113.7 94.4 -113.5 94.55 -113.25 94.85 -113.05 95.2 -112.75 95.55 -112.2 95.55 -111.95 95.5 -111.7 Q96.5 -110.85 97.1 -109.4 L95.05 -108.7 93.65 -107.9 Q92.5 -107.0 91.55 -105.65 L91.45 -105.1 Q91.2 -103.85 91.45 -102.45 L91.65 -102.15 91.75 -101.9 91.85 -101.05 91.95 -100.35 91.55 -97.65 89.7 -97.95 88.75 -98.1 82.5 -97.85 Q82.0 -97.65 81.5 -97.4 L81.6 -96.55 81.6 -96.1 81.9 -94.1 82.1 -93.8 82.3 -93.5 82.4 -92.7 Q82.7 -91.15 83.3 -89.7 L82.0 -89.45 81.35 -89.35 81.1 -89.35 80.7 -89.25 80.35 -89.3 78.4 -89.55 Q75.85 -89.95 74.35 -88.25 L73.95 -86.6 72.35 -79.3 72.35 -79.0 71.65 -78.95 70.3 -78.9 69.85 -78.8 67.65 -78.9 67.25 -78.85 67.0 -78.85 66.75 -78.9 65.95 -79.1 Q62.75 -80.0 60.25 -78.5 L60.0 -77.6 59.3 -74.1 59.25 -73.2 53.45 -73.4 50.5 -73.45 49.35 -73.15 48.45 -72.8 47.6 -72.45 47.85 -71.4 47.95 -71.2 48.65 -68.9 Q49.2 -67.1 49.35 -65.15 L49.1 -64.75 48.0 -64.35 47.75 -64.25 47.5 -64.2 46.45 -63.85 45.55 -63.55 45.45 -63.5 44.65 -63.4 43.35 -63.3 Q39.25 -62.75 35.8 -60.65 L35.6 -59.6 35.1 -56.25 35.1 -55.95 35.1 -55.65 35.15 -55.25 35.05 -54.45 35.05 -54.35 34.7 -54.3 34.25 -54.25 33.8 -54.1 33.6 -54.0 33.45 -53.95 33.35 -53.9 32.95 -53.75 Q30.6 -53.6 28.5 -51.35 L27.5 -50.5 26.9 -49.9 26.85 -49.3 26.85 -49.0 26.75 -48.0 27.25 -47.35 28.2 -46.15 12.2 -46.8 0.85 -47.35 Q-11.15 -48.1 -23.2 -47.25 L-29.1 -46.75 Q-30.1 -46.8 -30.75 -46.15 L-42.75 -46.3 Q-41.35 -48.25 -40.65 -50.4 -41.05 -51.15 -41.75 -51.5 L-41.85 -51.5 -42.0 -51.95 -42.1 -52.45 Q-42.65 -54.2 -42.9 -57.35 L-42.1 -57.55 -40.5 -57.8 -40.0 -57.65 -36.4 -57.5 -35.55 -57.5 -33.45 -57.95 -32.0 -58.8 -31.75 -58.95 -31.75 -59.25 -31.65 -60.65 -31.45 -61.1 Q-31.15 -61.8 -31.25 -62.75 L-31.3 -63.35 -31.75 -68.5 Q-31.3 -69.6 -31.0 -71.05 L-30.05 -70.85 Q-28.55 -70.65 -27.1 -71.65 L-27.0 -71.9 Q-26.2 -75.0 -25.75 -78.1 L-25.35 -80.0 -23.75 -81.85 -22.95 -81.35 -21.1 -80.4 -20.3 -80.05 Q-18.15 -79.2 -16.55 -80.7 L-16.3 -80.85 -15.65 -81.45 -13.75 -83.25 -13.3 -83.5 Q-11.7 -84.45 -10.5 -85.7 -9.15 -86.15 -8.15 -87.1 L-7.65 -87.05 -6.45 -86.2 -5.05 -85.4 -1.05 -82.95 Q-0.9 -82.65 -0.6 -82.75 L-0.1 -82.85 1.1 -83.1 Q1.65 -83.35 2.2 -83.75 3.1 -84.1 3.9 -84.7 L4.2 -84.95 4.4 -84.65 4.6 -84.25 5.9 -81.0 6.75 -79.7 Q7.6 -78.75 8.85 -79.45 L12.05 -81.2 12.6 -81.75 12.9 -81.95 13.05 -82.1 13.4 -82.55 15.85 -86.0 16.05 -85.9 Q16.6 -84.9 17.55 -85.45 L18.2 -85.75 18.3 -85.85 18.5 -86.3 18.75 -86.7 20.0 -87.9 20.05 -88.2 20.15 -89.3 20.25 -89.35 20.35 -89.55 Q22.1 -91.7 22.4 -94.2 L21.35 -95.5 20.8 -96.05 20.75 -96.25 20.7 -96.5 20.5 -96.8 19.35 -98.15 Q18.65 -99.25 18.3 -100.5 L18.75 -101.1 18.65 -104.45 18.6 -105.3 Q18.9 -107.85 19.5 -110.3 L19.55 -111.8 19.5 -113.5 20.2 -113.25 22.35 -113.5 23.1 -113.9 24.15 -117.3 25.2 -120.3 27.3 -123.0 28.0 -124.1 29.15 -126.9 29.25 -127.2 29.4 -127.8 31.4 -127.0 32.55 -126.55 36.35 -126.4 36.45 -126.75 36.65 -127.3 37.05 -127.95 37.1 -128.25 37.4 -129.9 38.45 -132.3 39.4 -133.1 39.8 -133.35 43.75 -133.25 44.5 -135.15 44.6 -135.5 44.6 -135.8 44.6 -136.0 44.8 -136.75 45.55 -141.6 45.75 -142.25 45.8 -142.55 45.8 -143.0 45.85 -143.3 46.0 -144.05 47.25 -144.05 47.7 -144.0 47.9 -143.95 49.85 -143.2 49.95 -143.15 51.3 -143.1 Q52.85 -143.8 53.85 -144.7 L54.45 -145.2 55.25 -146.2 55.8 -147.0 Q57.15 -147.7 57.45 -148.9 L57.8 -149.05 57.85 -149.15 58.0 -149.2 60.0 -147.95 61.8 -146.25 63.85 -144.35 Q64.75 -143.1 66.05 -143.0 67.2 -143.55 68.5 -143.9 L69.8 -144.5 70.2 -144.7 71.5 -142.55 71.85 -141.7 Q72.0 -139.2 72.6 -136.85 L72.8 -136.2 72.9 -135.8 72.9 -135.6 73.05 -135.2 73.2 -135.1 Q74.05 -134.75 74.6 -135.3 L74.95 -135.5 75.15 -135.55 75.55 -135.6 76.3 -135.65 76.6 -135.65 77.7 -135.55 78.6 -135.4 79.55 -135.15 80.35 -135.0 80.55 -135.0 81.6 -132.6 84.1 -125.05 M29.2 -38.45 L29.2 -37.85 29.55 -37.0 30.55 -36.65 Q34.0 -35.75 36.6 -33.75 L36.75 -33.55 35.8 -31.3 Q33.8 -27.75 32.9 -23.95 L32.9 -23.25 33.0 -23.1 33.15 -22.8 33.3 -22.5 Q33.95 -21.7 34.9 -21.15 L40.45 -17.95 43.6 -15.9 43.55 -15.75 43.35 -15.45 41.3 -14.2 40.95 -14.05 Q36.4 -12.8 32.85 -9.8 L32.65 -9.55 32.6 -8.4 32.55 -6.45 Q32.55 -4.45 32.95 -2.5 L32.0 -2.3 31.25 -2.5 30.2 -2.65 27.9 -2.55 Q25.3 -2.0 22.9 -0.35 21.5 0.55 20.35 1.95 L20.05 2.4 16.1 1.45 Q14.2 0.65 12.2 0.2 L11.7 0.0 11.6 0.0 11.25 -0.25 Q9.15 -1.6 6.85 -2.45 L5.65 -2.9 3.35 -3.2 3.3 -3.6 3.0 -4.95 2.8 -5.1 2.6 -5.3 2.55 -5.5 2.3 -6.05 Q1.05 -7.1 -0.75 -6.8 L-1.35 -6.85 -1.7 -6.95 -1.9 -7.05 -2.35 -7.35 -3.9 -8.4 -4.7 -8.95 -3.95 -12.45 -3.8 -13.05 Q-3.85 -16.45 -4.55 -19.5 L-4.55 -20.3 -4.5 -21.55 Q-5.65 -23.15 -6.95 -22.25 -7.75 -23.15 -8.1 -24.4 -8.8 -26.75 -9.75 -28.9 -10.9 -31.55 -12.75 -33.65 L-14.0 -34.5 -14.75 -34.95 Q-15.8 -35.3 -16.95 -33.45 L-17.05 -33.2 Q-17.3 -31.95 -18.15 -30.95 L-18.35 -30.15 -19.05 -28.55 -19.3 -28.0 -20.6 -26.55 -21.3 -26.65 -24.9 -28.9 -25.6 -29.25 -28.0 -30.15 -29.1 -30.3 Q-33.45 -29.95 -37.55 -28.1 L-37.5 -28.65 -37.5 -28.95 -37.5 -29.35 -37.45 -30.45 Q-37.25 -34.2 -39.9 -35.75 L-40.6 -36.4 -41.7 -37.05 -42.05 -37.2 -42.2 -37.2 Q-46.3 -38.55 -49.75 -40.6 L-49.75 -40.65 -49.05 -41.3 -27.6 -41.3 -24.85 -41.55 -23.8 -41.7 Q-12.75 -41.85 -1.7 -41.6 L12.2 -41.25 21.75 -40.8 30.0 -40.4 29.7 -39.75 29.15 -39.05 29.2 -38.45" fill="#ffff00" fill-opacity="0.5019608" fill-rule="evenodd" stroke="none"/>
  </g>
</svg>
