<?xml version="1.0" encoding="UTF-8" standalone="no"?>
<svg xmlns:ffdec="https://www.free-decompiler.com/flash" xmlns:xlink="http://www.w3.org/1999/xlink" ffdec:objectType="shape" height="132.4px" width="121.6px" xmlns="http://www.w3.org/2000/svg">
  <g transform="matrix(1.0, 0.0, 0.0, 1.0, 35.8, 140.0)">
    <path d="M81.95 -110.5 Q78.5 -107.15 74.5 -104.5 65.25 -98.4 55.45 -93.3 47.45 -89.1 41.35 -82.55 40.7 -81.85 39.85 -82.25 L39.2 -82.6 Q31.1 -75.85 24.7 -67.6 22.3 -64.5 19.1 -62.25 L13.7 -58.2 Q14.1 -56.75 13.15 -54.7 L12.85 -53.4 Q12.2 -45.6 11.15 -37.8 L11.05 -37.1 12.25 -35.85 12.6 -35.3 Q16.45 -31.55 19.0 -26.85 20.35 -24.3 22.45 -22.1 24.9 -19.5 25.8 -16.35 27.95 -14.9 26.1 -12.05 25.2 -10.65 23.7 -9.9 20.75 -8.5 17.65 -7.7 16.3 -7.35 15.45 -8.45 13.1 -11.55 16.8 -13.55 L19.6 -14.95 19.4 -15.35 Q18.05 -18.8 15.65 -21.7 13.65 -24.1 11.9 -26.65 9.5 -30.25 6.5 -33.5 5.6 -34.5 5.35 -35.4 4.15 -37.25 4.9 -39.75 L5.45 -41.6 Q6.65 -46.6 6.6 -51.75 6.6 -54.55 7.55 -57.0 3.8 -58.35 0.4 -60.7 -4.05 -63.75 -8.65 -66.7 -10.35 -64.8 -11.5 -62.5 L-14.4 -57.35 -15.45 -55.8 -15.9 -55.2 Q-16.4 -53.25 -17.2 -51.45 L-17.85 -50.3 Q-18.05 -45.6 -19.6 -41.35 -19.7 -39.4 -20.85 -38.7 L-21.35 -38.45 Q-22.3 -38.2 -23.75 -38.45 -28.4 -39.4 -32.55 -41.5 -34.15 -42.3 -35.2 -43.8 -36.7 -46.0 -34.55 -47.6 -33.8 -48.15 -33.0 -48.2 -28.95 -47.0 -25.05 -45.25 L-24.75 -45.1 Q-23.9 -49.95 -22.5 -54.65 -21.8 -56.8 -20.65 -58.65 L-15.55 -68.0 Q-14.5 -69.9 -12.9 -71.45 L-11.35 -72.5 -11.05 -72.85 Q-10.35 -73.5 -9.6 -73.55 -4.6 -71.5 -0.25 -68.3 4.5 -64.85 9.65 -62.15 L11.7 -64.15 Q16.05 -67.3 19.8 -71.15 L26.85 -78.8 Q30.55 -83.0 34.7 -86.7 L35.75 -87.6 34.45 -88.15 34.3 -87.85 33.5 -88.5 33.05 -89.05 Q31.55 -91.35 29.35 -92.65 27.6 -95.4 27.6 -98.9 27.6 -103.8 31.05 -107.25 34.5 -110.7 39.4 -110.7 41.55 -110.7 43.45 -110.0 L47.3 -118.25 Q49.4 -122.45 50.7 -127.0 51.75 -130.75 53.85 -133.8 53.4 -134.75 53.4 -135.85 53.45 -139.4 56.85 -140.0 59.4 -139.95 60.05 -137.65 61.15 -136.85 61.2 -135.65 62.45 -133.35 59.65 -132.15 57.2 -128.55 56.15 -124.3 55.05 -120.05 53.2 -116.3 50.7 -111.45 48.85 -106.35 L48.75 -106.1 Q51.2 -103.0 51.2 -98.9 L51.2 -98.25 Q54.55 -100.4 58.2 -102.15 65.95 -105.9 73.1 -110.85 74.65 -111.9 75.95 -113.25 L77.85 -114.95 Q77.85 -118.3 81.05 -118.85 83.1 -118.7 83.75 -116.85 L83.85 -116.55 Q87.75 -113.65 83.9 -110.8 83.35 -110.4 82.6 -110.45 L81.95 -110.5" fill="#000000" fill-rule="evenodd" stroke="none"/>
  </g>
</svg>
