<?xml version="1.0" encoding="UTF-8" standalone="no"?>
<svg xmlns:ffdec="https://www.free-decompiler.com/flash" xmlns:xlink="http://www.w3.org/1999/xlink" ffdec:objectType="shape" height="152.3px" width="157.0px" xmlns="http://www.w3.org/2000/svg">
  <g transform="matrix(1.0, 0.0, 0.0, 1.0, 52.45, 147.55)">
    <path d="M-25.85 -30.85 L-22.3 -30.65 -22.8 -29.5 -23.55 -29.5 -25.85 -30.85 M23.7 -29.05 L34.25 -28.5 Q33.15 -25.35 33.1 -21.95 33.8 -20.5 35.2 -19.9 40.2 -17.75 44.65 -15.4 L44.5 -15.25 44.2 -14.95 Q37.15 -13.7 31.95 -9.1 L31.9 -7.95 Q31.7 -4.85 32.35 -1.95 L30.2 -2.2 Q28.2 -2.4 26.55 -1.6 22.0 0.5 18.95 4.75 16.7 3.95 14.8 2.45 8.65 -2.35 1.35 -3.75 L1.5 -4.35 Q1.8 -5.3 1.7 -6.35 L1.5 -6.6 1.35 -6.9 1.35 -7.2 1.25 -8.05 Q0.1 -9.7 -1.9 -9.7 -4.8 -10.35 -7.1 -11.4 L-6.2 -14.9 Q-4.85 -20.1 -4.8 -25.45 -6.3 -27.0 -8.05 -25.2 -9.1 -26.0 -9.55 -27.3 L-10.75 -30.15 -9.3 -30.1 -1.7 -29.9 23.7 -29.05 M86.0 -130.55 L86.45 -127.45 86.75 -117.4 Q93.15 -116.9 99.7 -117.4 L99.5 -116.05 Q98.35 -112.0 99.3 -107.95 100.3 -106.9 101.5 -106.2 L101.6 -105.95 101.6 -105.65 Q103.4 -104.85 104.55 -103.35 100.2 -103.4 97.1 -100.75 L96.95 -100.2 Q96.45 -99.0 96.65 -97.6 L96.9 -97.3 97.0 -97.05 97.1 -96.2 97.75 -91.85 94.9 -92.4 87.05 -92.65 87.05 -91.8 87.05 -89.2 87.3 -88.9 87.45 -88.6 87.45 -87.75 Q87.6 -86.1 88.2 -84.6 L85.3 -84.95 81.9 -85.7 Q79.15 -86.45 77.85 -84.4 L77.9 -82.4 Q77.95 -77.9 78.15 -73.5 L70.95 -75.35 Q69.95 -75.6 69.0 -76.0 65.7 -77.35 63.35 -75.4 L63.35 -74.25 Q63.5 -71.35 64.1 -68.55 61.0 -68.45 58.1 -69.55 54.25 -70.95 50.7 -70.05 L50.85 -68.95 Q51.75 -65.75 51.85 -62.3 L51.45 -62.0 46.7 -61.75 45.75 -61.8 Q40.45 -62.35 36.15 -60.1 L36.15 -58.95 Q36.15 -55.95 36.45 -53.2 28.8 -53.4 22.75 -49.4 L22.75 -48.8 22.85 -47.4 29.65 -42.7 29.65 -42.4 29.65 -41.85 29.45 -41.55 29.25 -41.25 Q29.3 -39.85 28.1 -38.95 L28.1 -38.4 28.2 -36.65 29.2 -36.25 Q32.15 -35.45 34.5 -33.95 L25.05 -34.2 18.2 -34.2 -5.95 -34.95 -14.15 -35.55 -16.2 -37.9 Q-17.9 -40.45 -19.7 -37.8 L-19.75 -37.55 Q-19.9 -36.7 -20.3 -35.95 L-31.0 -36.45 -39.6 -36.7 Q-39.8 -39.25 -42.1 -40.2 L-42.85 -40.8 -44.55 -41.4 Q-48.8 -42.8 -52.45 -44.6 -50.2 -47.1 -46.9 -47.85 L-45.55 -49.2 Q-42.85 -51.25 -41.55 -53.8 -42.1 -54.65 -43.15 -54.75 L-43.6 -55.35 Q-45.8 -58.95 -47.25 -62.8 -45.3 -63.2 -43.6 -62.2 -38.85 -59.5 -34.05 -61.45 L-34.0 -61.75 -33.8 -63.15 Q-32.95 -64.0 -33.0 -65.2 L-33.1 -74.35 Q-30.8 -72.8 -28.35 -73.7 -27.2 -76.9 -26.8 -80.3 -26.5 -83.15 -25.15 -85.45 L-21.6 -83.4 Q-19.2 -81.95 -17.15 -83.4 -13.3 -86.05 -11.4 -90.15 -10.05 -91.1 -9.2 -92.45 L-8.7 -92.45 -1.9 -84.7 Q-1.7 -84.2 -1.35 -84.2 1.4 -84.0 3.55 -86.4 L3.85 -85.05 5.9 -76.65 Q6.7 -75.25 8.0 -76.0 12.9 -78.95 17.6 -82.6 L18.0 -82.4 Q19.3 -80.35 21.4 -81.35 21.9 -82.75 23.15 -83.65 L23.15 -83.95 23.15 -85.1 23.35 -85.35 Q25.45 -87.4 26.1 -89.95 L24.3 -91.7 24.25 -91.95 24.2 -92.25 24.0 -92.5 Q22.25 -94.1 21.7 -96.25 L22.3 -96.85 Q22.5 -98.55 22.2 -100.25 21.25 -105.25 21.35 -110.35 23.85 -108.55 26.7 -109.2 L28.2 -112.65 Q30.35 -118.05 33.0 -123.25 L33.1 -123.55 33.3 -124.1 37.55 -120.7 Q40.0 -118.7 42.75 -118.75 L42.9 -119.05 43.15 -119.6 43.7 -120.2 43.8 -120.5 44.2 -122.2 Q45.25 -124.3 46.85 -125.95 L50.9 -126.1 51.2 -128.4 51.1 -138.2 55.5 -137.85 Q56.5 -137.7 57.1 -138.25 60.05 -140.95 61.6 -144.7 62.95 -145.45 62.95 -147.0 L63.25 -147.25 63.5 -147.55 66.0 -146.7 Q68.45 -145.1 70.9 -143.65 71.95 -142.45 73.45 -142.7 75.5 -144.65 77.85 -145.55 L78.65 -142.15 78.7 -140.75 Q77.65 -135.45 77.95 -130.05 L80.15 -130.15 86.0 -130.55" fill="#ffff00" fill-opacity="0.5019608" fill-rule="evenodd" stroke="none"/>
  </g>
</svg>
