<?xml version="1.0" encoding="UTF-8" standalone="no"?>
<svg xmlns:ffdec="https://www.free-decompiler.com/flash" xmlns:xlink="http://www.w3.org/1999/xlink" ffdec:objectType="shape" height="142.25px" width="155.95px" xmlns="http://www.w3.org/2000/svg">
  <g transform="matrix(1.0, 0.0, 0.0, 1.0, 52.1, 139.8)">
    <path d="M82.85 -137.35 L83.5 -137.35 83.55 -137.1 83.55 -136.35 83.9 -134.05 84.0 -133.25 83.9 -132.55 Q83.35 -129.45 83.3 -126.35 L84.45 -122.75 86.75 -122.65 Q89.65 -123.1 92.6 -122.55 L93.7 -119.95 93.8 -119.35 93.05 -115.1 Q92.55 -113.0 92.5 -110.75 L94.0 -110.15 103.3 -108.6 103.85 -108.55 103.35 -107.35 102.15 -104.8 Q101.35 -102.95 101.25 -100.9 101.6 -100.0 102.2 -99.25 L102.25 -99.05 102.2 -98.75 Q103.15 -97.9 103.7 -96.35 L102.4 -96.0 102.25 -95.95 101.15 -95.35 100.8 -95.05 100.0 -94.4 98.25 -92.45 98.1 -91.9 Q97.4 -90.95 97.2 -89.95 L97.3 -89.7 97.3 -89.5 97.15 -88.9 96.9 -87.5 96.55 -85.95 93.7 -86.45 89.95 -86.9 89.5 -86.8 88.25 -86.25 87.4 -85.8 87.05 -85.65 87.1 -84.75 87.15 -82.2 87.25 -82.0 87.3 -81.8 87.1 -81.15 Q86.8 -80.0 86.8 -78.95 L83.9 -79.35 82.1 -79.75 80.5 -80.1 Q78.15 -80.5 77.15 -78.65 L76.85 -78.2 76.8 -77.6 76.8 -76.2 76.6 -72.2 76.3 -71.25 75.9 -69.55 75.8 -69.35 73.65 -70.15 Q71.05 -71.0 69.0 -70.8 L68.2 -70.75 67.25 -70.9 67.0 -70.9 65.7 -70.8 65.5 -70.85 64.9 -71.05 63.7 -71.1 61.9 -70.7 61.7 -70.0 Q61.25 -68.3 61.15 -66.75 L60.05 -66.95 55.5 -66.8 55.25 -66.85 55.1 -66.85 54.6 -66.9 Q52.1 -66.9 49.85 -66.0 L49.0 -65.85 48.85 -65.05 48.4 -62.15 48.15 -60.95 47.7 -60.85 47.3 -60.9 46.15 -60.8 43.1 -60.15 42.25 -60.0 39.15 -59.25 Q35.9 -59.3 33.05 -58.25 L32.75 -57.45 31.55 -53.05 31.1 -53.05 30.4 -52.85 28.15 -51.8 27.7 -51.6 26.2 -50.65 Q24.1 -49.1 21.9 -46.75 L21.9 -46.15 21.9 -46.1 21.6 -45.1 23.05 -43.35 24.2 -41.85 24.35 -41.6 25.2 -40.8 25.3 -40.7 25.35 -40.4 25.35 -40.1 25.35 -39.9 25.35 -39.85 25.3 -39.65 25.25 -39.55 25.2 -39.2 Q25.45 -37.9 24.8 -37.0 L24.85 -36.7 24.9 -36.5 25.3 -34.85 26.25 -34.35 29.05 -33.0 29.3 -32.85 29.5 -32.6 30.05 -32.25 30.2 -32.1 30.95 -31.4 31.5 -30.55 30.6 -28.25 30.4 -27.6 30.0 -26.25 30.05 -25.75 30.05 -22.7 Q24.9 -22.7 19.8 -22.85 L6.5 -24.15 -7.95 -25.85 -8.05 -26.95 -8.4 -28.8 Q-8.95 -29.25 -9.5 -29.4 -10.6 -29.75 -11.8 -28.95 -12.85 -29.65 -13.5 -30.7 -15.8 -34.25 -18.8 -37.25 L-19.0 -37.65 -20.15 -40.15 -20.2 -40.4 -20.65 -41.2 Q-21.4 -42.2 -22.4 -41.1 L-22.4 -41.0 -22.65 -40.5 -22.9 -40.2 -23.65 -39.6 -23.95 -38.95 -26.65 -35.35 -27.4 -35.35 -30.35 -36.55 -30.55 -36.8 -31.75 -38.2 -33.05 -39.4 Q-33.45 -39.75 -33.9 -39.9 L-34.4 -40.1 -35.3 -40.35 Q-38.55 -40.85 -41.9 -40.2 L-41.9 -40.25 -41.6 -41.65 -41.45 -43.05 Q-41.2 -44.8 -41.5 -46.1 -42.15 -47.5 -43.65 -48.15 L-43.8 -48.25 -44.3 -48.95 -44.65 -49.2 -45.45 -49.8 -49.85 -52.55 -50.05 -52.7 -50.7 -53.2 -51.3 -53.6 -51.5 -53.75 -51.7 -53.9 -52.05 -54.15 -52.1 -54.5 -51.3 -55.4 Q-49.05 -56.7 -46.45 -56.7 L-46.1 -56.9 -44.95 -57.4 Q-42.9 -58.25 -41.35 -59.7 L-40.75 -60.9 -41.0 -61.35 -41.95 -62.1 -42.3 -62.7 Q-43.1 -64.7 -43.5 -66.75 L-43.65 -69.25 Q-41.75 -69.35 -40.1 -68.3 L-39.55 -67.95 Q-36.35 -66.0 -33.0 -66.6 -32.35 -66.9 -31.75 -67.35 L-31.2 -67.7 -31.15 -68.05 -31.05 -69.45 Q-30.4 -70.4 -30.4 -71.55 L-30.4 -72.0 -30.2 -72.95 -30.1 -73.25 -28.85 -76.95 -28.6 -77.75 Q-27.85 -77.25 -27.0 -77.3 -25.85 -77.35 -24.65 -78.2 L-24.65 -78.3 Q-23.7 -81.5 -23.15 -84.8 L-23.0 -85.65 -21.8 -87.65 -20.7 -88.65 -20.6 -88.65 -17.35 -86.5 -17.25 -86.45 Q-15.0 -84.9 -13.0 -85.9 L-11.6 -86.65 -11.35 -86.95 -9.35 -89.1 Q-8.45 -89.7 -7.8 -90.6 L-7.8 -90.55 Q-6.85 -90.85 -6.2 -91.45 L-5.8 -91.35 -3.85 -88.2 -3.15 -87.6 -0.85 -86.05 0.85 -84.9 Q1.1 -84.55 1.45 -84.6 L2.25 -84.6 3.0 -84.5 Q4.25 -84.4 5.3 -84.9 L5.8 -85.2 5.8 -85.15 6.35 -84.3 8.7 -80.45 9.35 -79.3 Q10.0 -78.55 10.8 -78.6 L11.6 -78.7 12.2 -78.85 Q14.1 -79.25 16.0 -80.3 L16.55 -80.9 18.3 -83.15 19.75 -84.9 20.05 -84.85 Q20.6 -84.3 21.25 -84.4 L22.6 -85.05 Q23.0 -86.5 23.9 -87.55 L23.9 -87.85 23.9 -89.0 24.05 -89.3 Q24.95 -90.5 25.45 -91.8 L26.7 -93.35 26.6 -93.5 25.9 -94.25 25.9 -94.45 25.95 -94.65 25.9 -94.8 Q25.55 -95.35 25.35 -96.15 24.85 -97.2 24.6 -98.35 L25.0 -99.0 25.0 -99.4 24.7 -102.4 Q24.2 -105.1 23.95 -107.75 24.4 -109.55 25.0 -111.2 27.6 -109.7 30.45 -109.95 L30.65 -110.3 32.3 -112.2 33.35 -113.4 Q35.2 -114.95 36.8 -117.9 L37.35 -119.4 37.85 -120.6 37.95 -120.9 38.15 -121.55 40.85 -120.65 41.95 -119.95 Q43.3 -119.0 44.7 -118.4 45.85 -117.9 47.05 -117.8 L47.3 -117.95 47.65 -118.35 48.25 -118.8 48.45 -119.0 49.05 -120.1 49.05 -120.35 49.3 -120.8 51.6 -124.1 52.15 -124.15 Q53.85 -124.1 55.05 -124.95 L55.2 -124.95 55.9 -126.35 56.45 -127.7 57.15 -129.8 57.45 -130.7 57.95 -133.35 61.95 -133.95 62.1 -134.05 63.6 -134.35 65.35 -135.3 66.55 -136.2 68.3 -138.15 68.5 -138.5 68.55 -138.55 Q69.05 -138.6 69.2 -138.9 L69.3 -139.45 69.25 -139.55 69.45 -139.65 69.6 -139.8 71.05 -138.85 71.65 -138.7 76.8 -136.3 Q77.95 -135.4 79.45 -135.6 80.9 -136.55 82.5 -137.2 L82.85 -137.35 M0.8 -19.75 L17.25 -17.55 34.0 -16.75 36.15 -15.0 37.6 -13.55 37.75 -13.4 37.65 -13.25 37.4 -12.9 32.05 -9.55 29.3 -8.8 26.4 -7.7 26.15 -7.45 25.9 -6.7 Q24.8 -4.65 24.95 -1.55 L23.75 -1.35 23.05 -1.3 21.0 -1.25 19.75 -1.25 19.35 -1.3 Q16.25 -0.7 13.3 1.25 L11.8 2.45 Q9.5 1.7 7.55 0.3 L4.5 -1.9 2.8 -3.7 Q0.35 -6.25 -3.45 -7.65 L-3.5 -8.3 -3.5 -8.65 -3.1 -10.0 -3.15 -10.2 -3.15 -10.45 -3.1 -10.7 Q-2.95 -11.1 -2.95 -11.45 -3.25 -12.3 -3.8 -12.7 L-4.7 -13.2 -4.8 -13.25 -5.9 -13.8 Q-7.65 -14.65 -9.25 -15.6 L-9.25 -18.8 -9.25 -20.0 -9.0 -20.6 -3.8 -20.3 0.8 -19.75" fill="#ffff00" fill-opacity="0.5019608" fill-rule="evenodd" stroke="none"/>
  </g>
</svg>
