<?xml version="1.0" encoding="UTF-8" standalone="no"?>
<svg xmlns:ffdec="https://www.free-decompiler.com/flash" xmlns:xlink="http://www.w3.org/1999/xlink" ffdec:objectType="shape" height="119.3px" width="131.7px" xmlns="http://www.w3.org/2000/svg">
  <g transform="matrix(1.0, 0.0, 0.0, 1.0, 38.15, 130.0)">
    <path d="M85.2 -108.75 Q85.55 -111.55 88.35 -111.85 90.7 -111.9 91.45 -109.85 L91.55 -109.55 Q95.35 -106.75 91.85 -103.7 90.8 -102.8 89.45 -103.4 L89.35 -103.45 Q86.55 -99.75 82.9 -96.85 79.25 -93.95 75.25 -91.7 L75.2 -91.6 Q74.7 -90.3 73.3 -89.95 62.6 -87.1 52.2 -83.15 L45.65 -80.35 44.45 -79.9 Q36.95 -72.9 28.0 -68.0 L25.1 -66.35 24.1 -65.85 14.55 -58.7 Q14.75 -56.55 13.1 -56.0 10.45 -51.4 8.65 -46.35 8.2 -42.3 6.9 -38.55 L9.55 -36.0 12.85 -31.85 Q16.4 -27.3 21.05 -23.85 22.55 -22.7 22.75 -21.5 23.2 -20.1 21.8 -18.15 19.05 -14.3 15.85 -10.95 15.55 -10.65 15.05 -10.7 11.35 -11.3 12.6 -14.75 13.8 -17.95 15.7 -20.8 10.8 -24.9 6.5 -29.7 3.95 -32.6 1.8 -35.6 0.85 -36.95 1.15 -37.95 L1.2 -38.45 Q2.5 -48.65 6.85 -57.7 -0.5 -62.6 -6.8 -68.85 L-8.5 -70.6 Q-11.65 -69.55 -14.0 -66.95 L-18.15 -61.75 -21.3 -57.2 Q-22.05 -53.35 -24.6 -50.95 -24.85 -48.1 -28.4 -48.1 L-31.35 -48.45 Q-35.5 -49.4 -37.9 -52.55 -38.2 -53.0 -38.1 -53.55 -37.75 -56.05 -35.3 -56.25 L-29.5 -54.45 -28.95 -55.2 Q-28.15 -56.15 -27.65 -57.25 -22.7 -67.9 -13.1 -75.15 -11.25 -76.55 -9.2 -77.0 -5.35 -77.45 -4.85 -75.0 -0.2 -72.3 3.45 -68.1 L5.15 -66.35 10.1 -62.5 Q18.1 -68.9 26.8 -74.4 L32.2 -77.9 Q35.75 -80.3 39.0 -83.0 L38.7 -83.1 38.55 -82.8 37.75 -83.45 37.3 -84.0 Q35.8 -86.3 33.6 -87.6 31.85 -90.35 31.85 -93.85 31.85 -98.75 35.3 -102.2 38.75 -105.65 43.65 -105.65 46.4 -105.65 48.75 -104.55 50.65 -109.25 53.95 -112.9 L53.95 -112.95 Q53.75 -114.75 55.4 -115.85 63.05 -120.9 70.1 -126.6 L70.35 -127.5 Q71.2 -129.8 73.4 -130.0 78.55 -128.1 77.25 -122.9 77.0 -121.85 75.95 -121.65 L73.4 -121.8 71.0 -119.45 61.2 -112.25 Q60.15 -111.5 59.0 -110.95 58.85 -109.85 57.95 -108.45 55.85 -105.25 54.0 -101.75 L53.3 -100.65 Q55.45 -97.7 55.45 -93.85 L55.15 -91.1 Q58.9 -92.45 62.8 -93.3 L71.05 -95.4 71.5 -95.95 72.5 -96.75 Q79.3 -101.3 85.2 -106.85 85.05 -107.7 85.2 -108.75" fill="#000000" fill-rule="evenodd" stroke="none"/>
  </g>
</svg>
