<?xml version="1.0" encoding="UTF-8" standalone="no"?>
<svg xmlns:ffdec="https://www.free-decompiler.com/flash" xmlns:xlink="http://www.w3.org/1999/xlink" ffdec:objectType="shape" height="132.75px" width="159.75px" xmlns="http://www.w3.org/2000/svg">
  <g transform="matrix(1.0, 0.0, 0.0, 1.0, 51.75, 132.6)">
    <path d="M85.4 -128.5 L88.7 -129.6 88.9 -129.55 89.1 -129.2 89.1 -128.95 88.95 -128.25 89.2 -125.9 89.2 -125.15 89.1 -124.4 Q88.65 -121.25 88.7 -118.15 L90.95 -115.45 Q92.2 -114.75 93.4 -115.15 L99.2 -114.55 100.95 -112.5 101.15 -112.0 99.5 -108.25 Q98.4 -106.35 98.25 -104.1 L99.2 -103.0 107.9 -99.9 108.0 -99.65 107.25 -98.65 105.45 -96.75 Q104.0 -95.5 103.2 -93.85 L102.9 -92.3 102.85 -92.15 102.75 -91.9 102.9 -89.35 101.75 -88.7 101.65 -88.6 100.95 -87.7 100.85 -87.3 100.3 -86.5 99.35 -84.15 99.3 -83.6 97.75 -82.25 97.65 -82.1 97.6 -82.0 97.2 -81.65 96.35 -80.85 95.4 -80.0 92.5 -80.5 88.7 -80.85 88.35 -80.55 Q87.8 -80.0 87.75 -79.55 L87.2 -78.9 87.05 -78.65 87.2 -77.75 87.25 -75.2 87.25 -75.05 87.1 -74.95 86.7 -74.6 85.45 -73.3 82.55 -73.75 80.7 -74.15 79.1 -74.45 Q76.8 -74.7 76.1 -72.5 L75.8 -72.05 75.75 -71.4 75.7 -70.0 75.25 -66.05 74.6 -65.75 73.7 -65.25 73.5 -65.25 71.45 -66.2 67.0 -66.3 66.45 -65.9 65.45 -65.8 65.3 -65.7 Q64.85 -65.35 64.1 -65.15 L63.9 -65.25 63.45 -65.55 62.2 -65.75 60.45 -65.95 60.05 -65.75 58.2 -64.9 57.15 -65.35 52.95 -64.1 52.75 -64.0 52.65 -63.9 52.15 -63.85 Q50.0 -63.15 48.1 -61.7 L47.3 -61.65 46.85 -61.15 Q46.0 -60.3 45.15 -60.0 L44.4 -59.65 43.9 -59.65 43.55 -59.75 42.35 -59.7 Q40.85 -59.2 39.5 -58.55 L38.7 -58.2 36.05 -56.6 29.9 -56.45 29.35 -55.9 26.6 -52.9 26.2 -52.9 25.7 -52.5 24.3 -50.75 24.2 -50.4 23.55 -49.05 21.05 -44.15 21.05 -43.55 21.05 -43.5 20.4 -42.8 19.95 -41.45 20.0 -40.05 20.1 -39.85 20.7 -38.9 20.95 -38.7 21.0 -38.4 21.05 -38.15 21.05 -37.9 21.05 -37.85 21.0 -37.65 21.05 -37.5 21.1 -37.15 Q21.6 -35.9 21.5 -35.05 L21.6 -34.85 21.7 -34.65 22.4 -33.05 23.25 -32.45 25.8 -30.85 25.95 -30.65 26.1 -30.4 26.6 -29.95 26.7 -29.8 27.2 -28.95 27.2 -28.0 26.1 -25.8 25.95 -25.15 25.7 -23.8 25.85 -23.25 Q26.45 -20.5 27.55 -17.6 28.4 -16.3 29.65 -15.4 L30.65 -14.65 30.4 -13.2 Q30.3 -12.7 30.8 -11.65 L30.85 -11.4 30.75 -11.2 30.7 -11.1 29.45 -11.25 19.55 -11.85 6.35 -12.85 -7.45 -14.35 -7.15 -14.8 -7.0 -15.95 -7.5 -16.7 -7.55 -16.75 -8.4 -17.55 -11.35 -19.75 -12.35 -22.7 -12.7 -23.7 Q-11.35 -25.7 -11.0 -28.15 -10.85 -29.5 -11.3 -30.55 L-12.05 -32.1 Q-12.6 -32.5 -13.2 -32.7 L-15.5 -32.65 -17.45 -34.1 Q-20.45 -37.0 -23.85 -39.5 L-23.9 -39.85 -24.1 -42.4 -24.05 -42.65 -24.2 -43.5 Q-24.45 -44.6 -25.05 -44.4 L-25.1 -44.45 -25.25 -44.4 -25.6 -44.3 -26.45 -43.95 -26.95 -43.55 -30.5 -41.2 -31.25 -41.2 -34.3 -41.95 -34.45 -42.3 -34.9 -43.9 -35.65 -45.3 -36.2 -46.0 -36.5 -46.4 -37.25 -47.0 Q-40.1 -48.3 -43.4 -48.3 L-43.45 -48.35 -43.25 -49.75 -43.1 -51.15 Q-42.95 -52.85 -43.15 -54.3 -43.9 -55.55 -45.4 -56.15 L-45.5 -56.25 -45.75 -57.05 -45.95 -57.4 -46.4 -58.25 Q-47.6 -60.1 -49.85 -61.75 L-50.0 -61.95 -50.5 -62.6 -51.1 -63.0 -51.25 -63.2 -51.35 -63.4 -51.65 -63.7 -51.75 -64.4 -50.95 -65.4 -46.0 -65.55 -45.65 -65.55 -44.4 -65.55 Q-42.25 -65.7 -40.5 -66.75 -40.15 -67.35 -39.95 -68.05 L-40.1 -68.5 -40.75 -69.45 -40.95 -70.1 Q-41.4 -72.2 -41.3 -74.2 L-40.1 -75.65 Q-38.2 -75.55 -36.6 -74.35 L-36.15 -74.05 Q-33.0 -71.8 -29.65 -72.4 L-28.7 -73.45 -28.35 -74.0 -28.35 -74.35 -28.25 -75.75 Q-27.85 -76.75 -27.85 -77.95 L-27.85 -78.4 -27.4 -79.3 -27.15 -79.5 -24.6 -80.9 Q-24.35 -80.85 -24.1 -81.1 L-22.55 -81.05 Q-21.75 -81.6 -20.9 -82.65 L-20.9 -82.75 -19.45 -89.3 -19.25 -90.2 -17.6 -91.6 -16.2 -91.9 -16.15 -91.9 -13.1 -89.6 -13.0 -89.55 Q-10.9 -87.85 -8.8 -88.45 L-7.35 -88.95 -7.15 -89.25 -5.25 -91.35 -4.25 -91.1 -4.25 -90.95 -3.2 -90.45 -2.95 -90.2 -1.55 -86.8 -0.85 -86.35 Q0.45 -85.75 1.65 -85.55 L3.55 -85.15 4.25 -84.95 5.05 -85.0 5.65 -84.65 7.45 -83.85 8.05 -84.0 8.05 -83.95 8.85 -83.55 Q10.9 -82.5 11.85 -82.7 L12.85 -81.95 Q13.55 -81.45 14.35 -81.4 L15.15 -81.45 15.8 -81.35 Q17.8 -81.05 19.7 -81.9 L20.15 -82.6 20.95 -85.15 21.9 -87.2 22.1 -87.3 Q22.45 -87.3 22.9 -87.7 L23.8 -88.75 Q24.05 -90.25 24.7 -91.5 L24.7 -91.8 24.7 -92.9 24.8 -93.25 25.7 -95.9 27.3 -96.7 27.35 -96.7 27.5 -96.85 27.55 -96.9 27.7 -97.0 27.8 -97.1 28.1 -98.25 27.5 -100.45 27.7 -101.15 27.65 -101.6 27.2 -104.6 26.35 -110.0 28.65 -112.1 Q31.35 -110.9 34.15 -110.7 L34.35 -110.9 36.35 -111.7 37.7 -112.1 Q40.1 -112.35 41.95 -115.3 L42.35 -116.85 42.75 -117.95 42.85 -118.3 43.0 -118.95 45.1 -119.8 46.3 -119.2 49.05 -117.7 Q50.2 -117.05 51.35 -116.85 L51.65 -116.9 52.15 -117.1 52.8 -117.35 53.05 -117.5 53.85 -118.25 53.9 -118.5 54.15 -118.9 56.35 -122.3 56.8 -122.5 Q58.35 -122.75 59.35 -123.8 L59.5 -123.75 60.65 -124.3 61.7 -124.7 63.2 -125.5 63.7 -126.1 64.8 -128.5 68.4 -130.05 68.55 -130.2 70.1 -130.4 72.05 -130.7 Q72.65 -130.75 73.3 -131.15 74.6 -131.8 75.45 -132.55 L75.5 -132.6 75.5 -132.4 75.7 -132.2 75.65 -132.1 75.7 -132.0 76.65 -130.8 77.3 -130.65 82.7 -129.0 Q83.95 -128.35 85.4 -128.5 M17.55 -1.15 L16.6 -0.55 15.9 -0.45 13.8 -0.35 13.0 -0.95 12.65 -1.15 Q9.75 -1.7 6.35 -0.55 L4.65 0.15 Q2.25 -0.55 0.3 -1.9 L-2.75 -4.15 -3.65 -6.35 Q-4.05 -7.5 -4.8 -8.5 L-3.7 -8.45 8.0 -7.55 20.6 -6.5 24.0 -6.2 23.65 -6.2 20.55 -6.0 20.35 -5.85 19.85 -5.45 Q17.95 -4.45 17.55 -1.15" fill="#ffff00" fill-opacity="0.5019608" fill-rule="evenodd" stroke="none"/>
  </g>
</svg>
