<?xml version="1.0" encoding="UTF-8" standalone="no"?>
<svg xmlns:ffdec="https://www.free-decompiler.com/flash" xmlns:xlink="http://www.w3.org/1999/xlink" ffdec:objectType="shape" height="114.3px" width="134.2px" xmlns="http://www.w3.org/2000/svg">
  <g transform="matrix(1.0, 0.0, 0.0, 1.0, 39.65, 123.1)">
    <path d="M94.55 -100.8 Q94.4 -97.6 91.05 -97.7 L89.4 -97.9 88.1 -96.65 76.15 -86.7 Q75.6 -86.25 75.05 -85.95 74.5 -84.75 73.0 -84.25 62.85 -80.9 52.3 -79.1 L43.15 -77.4 Q35.95 -72.6 28.2 -68.8 22.65 -66.1 17.6 -62.6 L15.15 -60.9 13.25 -59.6 12.9 -58.9 Q8.15 -50.15 2.4 -42.1 4.0 -40.75 4.85 -38.5 L5.65 -36.9 Q6.9 -34.85 7.6 -32.65 12.45 -27.95 15.25 -22.15 19.2 -20.35 16.45 -16.5 13.55 -12.45 9.9 -9.15 9.5 -8.75 8.85 -8.8 4.95 -9.0 6.05 -12.55 L6.75 -14.1 Q8.45 -16.8 10.55 -19.05 L10.3 -19.35 Q5.95 -24.95 2.15 -30.85 L-1.05 -35.85 Q-2.15 -37.5 -2.55 -39.4 L-2.65 -41.05 Q-3.4 -42.1 -2.75 -43.95 -1.75 -46.65 -0.2 -49.1 L6.5 -59.35 Q3.1 -61.9 0.15 -64.85 L-7.75 -72.1 Q-15.5 -66.7 -21.3 -59.25 L-24.8 -54.8 Q-25.8 -53.6 -27.0 -53.1 -29.25 -50.85 -32.35 -53.05 -36.3 -55.75 -39.4 -59.15 -39.75 -59.5 -39.65 -60.1 -39.3 -62.6 -36.85 -62.8 -33.1 -61.4 -29.9 -59.0 L-28.35 -60.15 Q-27.15 -60.75 -26.4 -61.8 -19.85 -70.65 -11.3 -77.6 -9.95 -78.7 -8.45 -78.9 -5.6 -78.75 -5.15 -77.1 -2.35 -75.7 0.15 -73.5 L4.5 -69.0 Q6.7 -66.4 9.4 -64.2 L11.45 -65.9 Q13.45 -67.55 15.65 -68.85 19.15 -71.05 22.9 -72.95 30.85 -77.05 38.35 -81.8 36.85 -84.05 34.7 -85.35 32.95 -88.1 32.95 -91.6 32.95 -96.5 36.4 -99.95 39.85 -103.4 44.75 -103.4 L48.4 -102.85 49.5 -104.3 Q51.3 -106.3 52.65 -108.55 L54.15 -110.45 Q54.35 -111.8 56.25 -112.65 65.35 -116.7 74.15 -120.8 L74.6 -121.75 Q75.45 -123.05 76.85 -123.1 78.7 -123.15 79.7 -121.65 L79.85 -121.35 Q83.4 -118.7 79.7 -116.15 L78.75 -115.85 77.2 -115.8 Q68.55 -111.05 59.3 -107.85 59.05 -106.7 58.05 -105.25 L53.7 -99.3 Q56.55 -96.05 56.55 -91.6 56.55 -89.85 56.1 -88.25 L70.7 -91.2 70.75 -91.2 71.5 -91.7 Q76.2 -94.3 80.3 -97.8 83.1 -100.2 85.75 -102.85 86.6 -105.3 89.15 -105.8 94.75 -105.85 94.55 -100.8" fill="#000000" fill-rule="evenodd" stroke="none"/>
  </g>
</svg>
