<?xml version="1.0" encoding="UTF-8" standalone="no"?>
<svg xmlns:ffdec="https://www.free-decompiler.com/flash" xmlns:xlink="http://www.w3.org/1999/xlink" ffdec:objectType="shape" height="127.6px" width="163.95px" xmlns="http://www.w3.org/2000/svg">
  <g transform="matrix(1.0, 0.0, 0.0, 1.0, 51.45, 126.95)">
    <path d="M82.5 -126.65 L82.45 -126.25 Q82.5 -125.65 82.15 -125.25 L82.05 -124.9 81.9 -124.7 81.85 -124.5 81.8 -124.25 Q81.9 -123.55 82.3 -122.8 L82.95 -122.65 88.55 -121.65 91.4 -121.4 94.85 -121.95 94.9 -121.8 94.75 -121.0 94.7 -120.8 94.3 -120.15 94.45 -117.8 94.4 -117.0 94.4 -116.9 83.3 -117.8 66.95 -118.55 59.95 -118.55 61.05 -120.45 61.4 -120.9 Q62.9 -121.35 63.6 -122.7 L63.75 -122.6 65.35 -122.3 66.9 -121.75 69.2 -121.25 Q69.65 -121.15 70.0 -121.55 L71.65 -123.7 74.85 -126.2 75.05 -126.4 76.6 -126.5 78.7 -126.15 80.1 -126.1 82.55 -126.95 82.5 -126.65 M81.4 -112.3 L84.85 -112.25 94.0 -111.75 94.05 -109.95 97.45 -108.15 Q98.75 -107.65 100.0 -107.7 L105.75 -106.6 108.2 -105.0 108.5 -104.7 105.9 -101.4 Q104.25 -99.7 103.95 -97.5 104.05 -96.75 104.45 -95.9 108.8 -93.6 112.5 -91.2 L112.15 -90.8 111.1 -90.0 Q109.95 -89.15 108.7 -88.75 106.6 -88.05 105.1 -86.85 L103.6 -85.4 103.5 -85.25 103.35 -85.0 Q102.6 -83.95 102.05 -82.35 L101.1 -81.45 101.05 -81.25 100.7 -80.1 100.85 -79.6 Q100.6 -79.1 100.65 -78.55 L100.5 -75.9 100.45 -75.3 98.25 -74.6 98.05 -74.55 97.9 -74.45 97.25 -74.35 95.85 -74.25 94.2 -74.1 91.3 -74.6 87.4 -74.75 87.15 -74.35 Q86.85 -73.5 87.2 -72.85 L87.05 -71.95 87.05 -71.65 87.25 -70.7 87.35 -68.25 87.2 -68.15 86.95 -68.15 86.35 -68.0 84.05 -67.65 81.15 -68.2 79.25 -68.6 77.65 -68.85 Q75.5 -68.85 75.1 -66.35 L74.8 -65.85 74.65 -65.25 74.6 -63.8 Q74.45 -61.7 73.85 -59.85 L72.85 -60.3 71.45 -60.9 71.15 -61.1 69.2 -62.25 Q66.3 -63.65 65.05 -61.75 L64.65 -61.05 63.7 -60.7 63.55 -60.5 Q63.25 -59.8 62.55 -59.45 L62.35 -59.6 61.95 -60.05 60.7 -60.45 59.0 -61.25 58.4 -61.5 Q56.75 -62.25 55.2 -63.1 L54.2 -63.8 50.35 -61.35 50.2 -61.2 50.15 -61.0 49.75 -60.8 46.35 -57.45 45.55 -57.45 44.8 -57.3 Q43.2 -57.1 41.85 -57.9 L40.7 -58.3 40.15 -58.5 39.8 -58.65 Q39.1 -58.9 38.55 -58.65 L35.9 -57.0 35.2 -56.45 Q33.9 -55.35 32.95 -54.0 L26.8 -54.6 25.95 -54.4 21.7 -52.8 21.35 -52.8 20.95 -52.15 20.5 -49.65 20.65 -49.2 20.85 -47.45 Q21.05 -44.75 20.2 -41.5 L20.15 -40.9 19.15 -40.5 16.9 -39.6 Q16.15 -39.25 15.85 -38.3 L15.9 -38.05 16.25 -37.05 16.55 -36.7 16.7 -36.4 16.75 -36.2 16.75 -35.95 16.75 -35.9 16.75 -35.7 16.85 -35.5 17.05 -35.15 18.2 -33.15 18.35 -32.95 18.5 -32.75 19.5 -31.3 20.3 -30.6 22.55 -28.75 22.65 -28.5 22.7 -28.25 23.15 -27.7 23.2 -27.5 23.4 -26.5 22.95 -25.5 21.6 -23.4 21.45 -22.75 21.35 -21.3 21.7 -20.8 24.75 -15.45 26.85 -13.2 27.8 -12.3 Q26.15 -12.35 24.6 -11.4 23.8 -10.95 23.95 -9.7 L23.9 -9.4 23.9 -9.2 23.75 -8.85 20.9 -2.95 18.0 -3.65 14.7 -4.3 14.55 -4.2 13.85 -4.2 Q11.05 -4.25 10.1 -0.75 L9.45 0.2 8.75 0.45 6.6 0.5 6.2 -0.6 5.9 -1.05 Q3.2 -2.65 -0.65 -2.35 L-2.5 -2.2 Q-4.95 -2.85 -6.95 -4.05 L-10.0 -6.4 -10.05 -8.95 Q-9.9 -12.9 -13.1 -15.5 L-13.55 -16.15 -13.75 -16.5 -12.65 -17.25 -12.4 -17.45 -12.2 -17.6 -12.0 -17.75 -11.35 -18.2 -10.2 -19.15 -10.35 -20.25 -10.35 -20.3 -10.95 -21.35 -13.5 -23.95 -15.4 -26.65 -16.1 -27.45 Q-14.4 -29.25 -14.0 -31.8 -13.8 -33.2 -14.5 -34.15 L-15.65 -35.45 -16.9 -36.05 -19.25 -36.4 Q-20.4 -36.9 -21.45 -37.55 -25.1 -39.7 -28.85 -41.7 L-28.8 -42.05 Q-28.6 -43.5 -28.05 -44.65 L-27.85 -44.85 -27.75 -45.85 Q-27.45 -47.05 -27.75 -47.75 L-27.75 -47.9 -27.85 -48.35 -28.25 -48.45 -29.25 -48.3 -29.9 -48.1 -34.4 -47.05 -35.1 -47.05 -38.3 -47.4 -38.35 -47.8 Q-38.45 -48.8 -38.0 -49.6 L-38.3 -51.25 -38.5 -52.15 -38.65 -52.75 Q-38.75 -53.3 -39.15 -53.65 -41.65 -55.75 -44.9 -56.45 L-44.95 -56.5 -44.85 -57.9 -44.8 -59.3 Q-44.75 -60.95 -44.85 -62.45 -45.7 -63.65 -47.15 -64.2 L-47.2 -64.3 -47.25 -65.2 -47.25 -65.65 -47.3 -66.65 Q-47.75 -69.05 -49.9 -71.0 L-50.0 -71.25 -50.35 -71.95 -50.9 -72.45 -50.95 -72.7 -51.05 -72.95 -51.3 -73.3 -51.45 -74.3 -50.65 -75.35 Q-47.95 -75.55 -45.55 -74.4 L-45.15 -74.25 Q-44.55 -73.95 -43.8 -73.75 -41.65 -73.2 -39.6 -73.8 L-39.2 -75.15 -39.25 -75.7 -39.6 -76.85 -39.65 -77.45 Q-39.75 -79.65 -39.15 -81.7 L-36.5 -82.1 Q-34.7 -81.7 -33.15 -80.45 L-32.7 -80.15 Q-29.7 -77.65 -26.3 -78.25 -25.9 -78.85 -25.7 -79.6 L-25.55 -80.25 -25.5 -80.65 -25.5 -82.05 -25.25 -84.3 -25.25 -84.8 -24.6 -85.7 -24.25 -85.8 -20.35 -84.9 Q-20.0 -84.5 -19.65 -84.5 -18.9 -84.2 -18.05 -84.85 L-17.2 -87.15 -17.2 -87.25 Q-16.75 -90.65 -15.8 -93.85 L-15.55 -94.7 -13.4 -95.6 -11.75 -95.1 -8.9 -92.75 -8.8 -92.65 Q-6.75 -90.75 -4.65 -90.95 L-3.1 -91.3 -2.95 -91.55 -1.2 -93.65 -0.65 -91.65 -0.65 -91.4 -0.2 -89.5 -0.05 -89.1 Q0.25 -87.3 0.7 -85.45 L1.5 -85.15 4.2 -85.1 6.3 -85.35 7.0 -85.35 7.8 -85.45 8.25 -84.85 9.6 -82.85 10.3 -82.85 10.3 -82.8 11.35 -82.85 Q14.0 -83.0 15.0 -85.0 L16.3 -84.6 17.95 -84.25 18.75 -84.15 19.4 -83.9 Q21.45 -82.85 23.45 -83.55 L23.75 -84.35 Q24.0 -85.85 23.55 -87.2 L24.05 -89.5 24.15 -89.75 24.55 -91.05 25.0 -92.45 Q25.15 -94.0 25.45 -95.4 L25.45 -95.7 25.45 -96.85 25.5 -97.2 25.95 -100.0 27.9 -100.1 28.15 -99.95 Q28.65 -99.5 29.05 -99.4 L29.2 -99.4 29.4 -99.4 29.65 -99.45 Q30.2 -99.6 30.8 -100.3 L30.35 -102.55 30.35 -103.3 30.3 -103.75 29.7 -106.75 28.8 -112.2 32.3 -112.95 Q35.05 -112.05 37.9 -111.45 L38.1 -111.5 40.45 -111.25 42.05 -110.85 Q45.05 -109.7 47.1 -112.65 L47.25 -113.65 51.25 -113.5 66.9 -112.6 Q74.1 -112.05 81.4 -112.3" fill="#ffff00" fill-opacity="0.5019608" fill-rule="evenodd" stroke="none"/>
  </g>
</svg>
