<?xml version="1.0" encoding="UTF-8" standalone="no"?>
<svg xmlns:ffdec="https://www.free-decompiler.com/flash" xmlns:xlink="http://www.w3.org/1999/xlink" ffdec:objectType="shape" height="108.85px" width="136.2px" xmlns="http://www.w3.org/2000/svg">
  <g transform="matrix(1.0, 0.0, 0.0, 1.0, 38.5, 119.25)">
    <path d="M89.15 -101.95 Q90.35 -104.05 92.6 -104.25 94.9 -104.35 95.65 -102.25 L95.75 -101.95 Q99.65 -99.05 95.75 -96.3 94.8 -95.65 93.6 -95.75 L92.05 -96.1 91.9 -96.05 Q82.25 -90.35 75.75 -81.35 L75.75 -81.3 Q75.25 -80.3 74.1 -80.0 L70.3 -79.55 Q61.95 -79.35 53.6 -79.65 L52.7 -79.85 Q52.15 -79.05 51.1 -78.65 48.55 -77.8 46.2 -76.45 36.85 -71.2 26.9 -67.15 19.35 -64.0 12.0 -60.45 12.0 -59.4 11.2 -58.0 L1.8 -41.95 Q2.85 -40.7 3.5 -39.0 L4.1 -37.7 Q4.9 -36.05 5.2 -34.25 8.95 -28.4 11.5 -22.0 15.85 -21.5 13.95 -17.6 13.5 -16.65 12.65 -16.1 7.4 -12.4 1.45 -10.5 0.6 -10.2 -0.05 -10.85 -2.75 -13.6 0.45 -16.0 L4.4 -18.45 6.7 -19.65 Q1.45 -28.55 -3.25 -37.45 -4.2 -39.15 -4.2 -41.05 -4.35 -41.65 -4.1 -42.35 L-4.05 -42.4 -3.9 -42.85 Q-2.25 -47.5 0.3 -51.7 3.0 -56.15 6.05 -60.2 4.35 -61.25 2.85 -62.75 -2.55 -68.2 -7.0 -74.4 -11.75 -69.45 -17.6 -65.8 -22.55 -62.7 -25.8 -58.1 -27.25 -56.1 -28.6 -56.05 -30.25 -55.6 -31.85 -56.9 -35.9 -60.2 -38.35 -64.35 -38.65 -65.0 -38.35 -65.65 -37.45 -67.3 -35.7 -67.4 -32.1 -66.6 -29.5 -63.6 L-29.25 -63.35 Q-27.6 -65.6 -25.3 -67.35 -16.5 -73.95 -8.1 -81.15 L-7.3 -81.6 Q-5.25 -81.25 -4.55 -80.25 -1.85 -78.45 0.1 -75.5 3.55 -70.3 8.15 -66.1 L9.0 -66.5 Q19.45 -70.25 29.55 -74.8 34.65 -77.15 39.7 -79.65 L39.55 -79.85 Q38.05 -82.15 35.85 -83.45 34.1 -86.2 34.1 -89.7 34.1 -94.6 37.55 -98.05 41.0 -101.5 45.9 -101.5 L49.35 -101.0 49.45 -101.25 Q50.45 -102.95 51.75 -104.4 54.7 -107.7 57.95 -110.55 L58.9 -111.6 Q60.7 -113.1 62.95 -113.95 70.3 -116.65 78.05 -118.05 L78.7 -118.4 Q79.6 -119.25 80.7 -119.25 84.5 -118.6 85.2 -115.15 85.45 -114.05 84.5 -113.45 82.15 -112.0 79.3 -111.55 L72.1 -110.3 Q66.9 -109.3 62.1 -107.1 59.2 -102.95 55.75 -99.2 L54.3 -98.0 Q57.7 -94.55 57.7 -89.7 57.7 -87.05 56.7 -84.8 L69.25 -85.45 71.85 -85.7 Q77.0 -93.25 84.65 -98.45 L88.2 -101.05 88.95 -101.55 89.15 -101.95" fill="#000000" fill-rule="evenodd" stroke="none"/>
  </g>
</svg>
