<?xml version="1.0" encoding="UTF-8" standalone="no"?>
<svg xmlns:ffdec="https://www.free-decompiler.com/flash" xmlns:xlink="http://www.w3.org/1999/xlink" ffdec:objectType="shape" height="124.2px" width="168.2px" xmlns="http://www.w3.org/2000/svg">
  <g transform="matrix(1.0, 0.0, 0.0, 1.0, 51.1, 122.65)">
    <path d="M26.2 -100.2 L42.25 -99.1 66.95 -97.15 92.0 -95.7 95.15 -95.65 113.65 -95.5 112.3 -94.55 Q109.2 -92.45 109.65 -88.8 113.85 -85.8 117.1 -82.5 114.85 -80.8 111.95 -80.7 103.95 -80.45 100.45 -74.15 L100.45 -73.9 100.45 -72.45 100.85 -71.85 Q100.75 -71.25 100.95 -70.65 101.7 -68.95 101.6 -67.0 98.4 -66.7 95.3 -67.6 90.6 -68.95 86.1 -68.7 L86.0 -68.15 Q85.9 -67.0 86.7 -66.15 86.6 -65.55 86.85 -65.05 87.7 -63.25 87.45 -61.25 82.6 -61.85 77.85 -63.05 74.15 -64.0 74.05 -60.2 73.65 -59.7 73.6 -59.05 73.6 -56.1 72.5 -53.7 L71.1 -54.85 69.2 -56.6 67.0 -58.3 Q63.35 -60.3 62.85 -56.2 L61.9 -55.6 61.85 -55.3 Q61.7 -54.3 60.95 -53.8 L60.75 -54.0 60.45 -54.55 59.2 -55.15 51.25 -62.2 Q49.35 -60.75 47.75 -58.65 L47.65 -58.4 47.65 -58.1 47.3 -57.75 Q45.75 -55.6 44.6 -53.2 41.15 -53.25 38.55 -55.8 L36.05 -57.55 Q35.3 -57.9 34.75 -57.55 31.4 -55.25 29.85 -51.4 23.3 -53.7 16.45 -52.65 16.15 -52.25 16.2 -51.8 16.3 -50.15 16.65 -48.6 L17.1 -48.0 18.2 -45.85 Q19.65 -42.25 19.3 -38.3 L13.8 -37.75 Q12.45 -37.55 11.65 -36.55 L11.65 -36.3 11.75 -35.15 12.45 -34.25 12.45 -34.0 12.45 -33.7 Q13.65 -32.15 15.1 -31.1 L19.3 -26.6 19.3 -26.35 19.3 -26.05 19.7 -25.45 19.7 -25.2 19.6 -24.05 17.0 -20.9 17.0 -20.3 17.0 -18.85 17.5 -18.3 24.95 -9.95 18.8 -9.6 Q17.35 -9.25 17.1 -7.8 L15.3 0.35 12.35 -1.1 8.85 -2.6 Q3.7 -4.85 2.3 0.95 0.75 1.9 -0.6 1.4 L-0.6 -0.3 -0.8 -0.95 Q-3.35 -3.65 -7.65 -4.15 -13.8 -4.95 -17.25 -8.65 L-16.5 -11.6 Q-14.85 -16.9 -18.85 -20.4 L-13.4 -22.4 Q-13.15 -23.1 -13.15 -23.85 L-13.5 -25.1 Q-15.55 -29.0 -19.55 -31.2 -17.4 -32.8 -17.0 -35.4 -16.8 -36.9 -17.75 -37.75 L-20.6 -39.35 -33.9 -43.95 -33.7 -44.25 Q-33.05 -45.95 -31.7 -47.1 L-31.3 -48.15 Q-30.2 -50.05 -30.45 -52.25 L-30.95 -52.55 Q-36.75 -53.0 -42.3 -52.85 L-42.25 -53.3 Q-42.05 -54.45 -41.15 -55.3 L-40.75 -59.05 Q-40.7 -59.8 -41.1 -60.3 -43.25 -63.25 -46.5 -64.6 L-46.5 -66.05 -46.5 -70.65 Q-47.5 -71.7 -48.9 -72.25 L-48.55 -73.85 Q-47.5 -77.5 -49.95 -80.2 L-49.95 -80.5 -50.15 -81.35 -50.7 -81.9 -50.7 -82.2 -50.7 -82.5 -51.1 -83.05 -51.1 -83.35 -51.1 -84.2 -50.35 -85.35 Q-47.2 -85.0 -44.7 -82.95 -41.85 -80.65 -38.75 -80.85 -38.3 -81.8 -38.4 -82.9 -38.6 -86.25 -36.95 -89.2 -32.5 -89.3 -29.3 -86.25 -26.35 -83.45 -22.95 -84.05 -22.7 -84.85 -22.7 -85.75 L-22.7 -91.2 -21.8 -92.05 -21.35 -92.05 -16.1 -88.9 Q-15.05 -87.0 -13.6 -88.6 L-13.5 -91.75 Q-13.25 -95.65 -11.85 -99.25 L-9.2 -99.6 -7.3 -98.35 -4.55 -95.75 Q-1.95 -92.95 1.15 -93.6 L1.25 -93.85 Q1.9 -95.1 2.85 -95.9 L2.9 -92.2 Q2.7 -88.15 2.95 -84.1 L3.8 -83.9 Q5.35 -83.9 6.7 -84.65 8.85 -85.85 10.6 -85.85 L10.9 -85.0 11.75 -81.8 12.55 -81.65 Q16.85 -82.75 18.15 -87.3 L21.5 -87.1 Q22.4 -87.0 23.0 -86.45 25.1 -84.65 27.15 -85.15 L27.35 -86.05 Q27.2 -87.75 26.2 -89.2 L26.2 -94.35 26.2 -100.2 M101.05 -114.35 L100.9 -114.05 100.25 -112.65 99.7 -112.05 99.6 -108.9 Q99.1 -105.35 99.4 -101.75 L103.8 -100.9 94.1 -100.95 92.0 -101.0 67.6 -102.5 42.25 -104.4 33.2 -104.95 32.95 -105.95 Q31.8 -110.15 31.2 -114.45 36.6 -114.15 41.8 -112.1 44.25 -111.1 46.4 -109.6 49.95 -107.1 52.25 -110.05 L52.35 -111.75 Q52.75 -114.95 53.65 -118.1 56.0 -117.7 57.8 -116.25 60.55 -114.05 63.5 -114.65 L63.8 -115.15 Q65.2 -117.0 66.0 -119.25 67.4 -120.0 67.85 -121.55 70.15 -120.35 72.15 -118.75 73.55 -117.65 75.2 -116.95 75.8 -116.65 76.25 -116.95 79.4 -119.15 81.5 -122.6 83.65 -122.95 85.35 -121.55 86.0 -121.0 86.85 -121.05 L89.65 -121.35 89.5 -120.75 Q89.45 -119.45 88.6 -118.45 L88.4 -117.65 Q87.55 -116.3 87.9 -114.75 L101.05 -114.35" fill="#ffff00" fill-opacity="0.5019608" fill-rule="evenodd" stroke="none"/>
  </g>
</svg>
