<?xml version="1.0" encoding="UTF-8" standalone="no"?>
<svg xmlns:ffdec="https://www.free-decompiler.com/flash" xmlns:xlink="http://www.w3.org/1999/xlink" ffdec:objectType="shape" height="95.45px" width="134.35px" xmlns="http://www.w3.org/2000/svg">
  <g transform="matrix(1.0, 0.0, 0.0, 1.0, 37.25, 110.65)">
    <path d="M90.95 -107.75 Q91.6 -105.3 89.3 -104.4 87.35 -103.65 85.25 -104.0 L83.25 -103.9 Q74.8 -101.95 66.05 -102.3 L58.55 -94.35 Q57.5 -93.2 56.25 -92.45 58.5 -89.4 58.5 -85.45 58.5 -81.6 56.4 -78.65 L67.0 -77.8 71.85 -76.95 Q79.35 -84.1 89.1 -88.05 L92.35 -89.35 93.35 -89.65 Q98.15 -89.65 96.8 -85.45 96.15 -83.4 93.9 -83.05 L92.2 -82.55 Q84.0 -79.3 77.25 -73.7 L75.1 -72.1 Q73.35 -71.0 72.15 -71.5 L62.45 -71.85 55.55 -72.5 Q52.2 -72.55 49.65 -73.95 L48.9 -73.8 47.8 -74.1 Q46.65 -73.65 45.4 -73.7 35.05 -71.5 25.15 -67.8 17.95 -65.1 10.65 -62.75 L7.85 -61.95 7.35 -61.35 Q1.5 -53.95 -4.1 -46.25 -3.3 -44.9 -3.25 -42.9 -3.2 -41.5 -2.7 -40.15 L1.05 -29.3 Q2.2 -25.7 2.95 -21.95 3.6 -18.9 1.9 -16.5 1.45 -15.8 0.6 -15.65 -4.6 -14.7 -9.3 -15.7 -9.95 -15.85 -10.15 -16.55 -11.25 -20.65 -6.8 -21.25 L-3.65 -21.5 Q-3.8 -27.45 -6.4 -32.8 -9.35 -38.75 -10.0 -45.4 -10.15 -47.0 -9.45 -47.9 L-7.65 -51.2 -2.75 -57.6 Q-0.9 -62.1 2.6 -64.75 L2.8 -65.6 -4.85 -76.45 -6.9 -78.8 -8.7 -80.85 Q-11.35 -79.2 -13.5 -76.9 -17.05 -73.1 -21.25 -70.05 -24.65 -67.55 -28.5 -67.0 -30.1 -66.15 -31.8 -67.65 -33.95 -69.6 -35.7 -71.9 -37.15 -73.75 -37.25 -76.15 -37.4 -79.0 -34.55 -79.3 -30.75 -77.6 -29.0 -73.65 L-28.7 -73.05 Q-26.35 -74.15 -24.15 -75.7 -17.8 -80.2 -12.2 -85.75 -10.5 -87.4 -8.45 -87.75 -5.5 -87.6 -5.1 -85.8 L-5.05 -85.65 Q1.95 -79.5 6.2 -71.35 L7.85 -68.25 23.45 -73.65 35.3 -77.35 38.2 -78.05 36.65 -79.2 Q34.9 -81.95 34.9 -85.45 34.9 -90.35 38.35 -93.8 41.8 -97.25 46.7 -97.25 49.3 -97.25 51.5 -96.3 51.85 -97.0 52.65 -97.55 54.35 -98.8 55.75 -100.4 57.4 -102.2 59.35 -103.6 61.5 -106.9 64.95 -108.1 L65.55 -107.85 74.25 -108.55 Q80.15 -108.95 85.7 -110.4 90.0 -111.45 90.95 -107.75" fill="#000000" fill-rule="evenodd" stroke="none"/>
  </g>
</svg>
