<?xml version="1.0" encoding="UTF-8" standalone="no"?>
<svg xmlns:ffdec="https://www.free-decompiler.com/flash" xmlns:xlink="http://www.w3.org/1999/xlink" ffdec:objectType="shape" height="110.8px" width="157.2px" xmlns="http://www.w3.org/2000/svg">
  <g transform="matrix(1.0, 0.0, 0.0, 1.0, 48.2, 114.9)">
    <path d="M82.15 -114.15 L82.85 -113.2 83.5 -112.6 83.65 -112.35 83.8 -112.1 84.15 -111.8 84.35 -111.65 84.5 -111.4 84.8 -110.9 85.1 -110.5 85.4 -110.35 85.95 -110.25 86.4 -110.3 Q88.85 -110.7 91.0 -111.55 93.0 -111.4 94.75 -110.4 95.45 -110.0 96.3 -109.9 L99.0 -109.6 98.9 -109.4 98.8 -109.3 97.25 -107.8 96.75 -107.15 96.35 -106.65 95.9 -106.05 95.2 -105.1 Q95.5 -104.25 96.3 -102.85 L96.45 -102.7 97.0 -102.25 100.45 -100.95 100.55 -100.6 100.75 -99.4 100.75 -98.8 101.75 -96.15 102.35 -94.1 101.4 -92.4 100.45 -90.7 100.45 -90.65 Q100.4 -90.0 101.05 -88.9 L98.75 -89.1 75.25 -90.75 50.4 -92.3 33.5 -93.2 30.3 -93.35 27.95 -93.4 27.95 -94.85 28.95 -98.8 29.25 -98.9 32.15 -100.7 32.2 -100.65 Q32.55 -100.85 32.9 -101.2 L35.5 -101.05 36.6 -101.15 36.75 -101.25 37.1 -101.4 39.05 -102.65 39.65 -105.8 39.75 -106.6 Q40.55 -107.35 41.6 -108.1 L41.65 -108.15 47.05 -107.95 50.75 -109.15 54.0 -110.05 54.25 -109.9 Q57.5 -108.2 59.95 -108.75 L60.7 -109.1 60.7 -109.2 61.2 -109.5 64.0 -113.05 67.9 -113.35 69.45 -113.4 70.25 -113.2 Q71.65 -112.45 73.05 -112.05 L73.5 -112.0 74.1 -112.1 Q74.7 -112.2 75.35 -112.7 L76.55 -113.55 Q78.0 -114.0 78.95 -114.9 L82.0 -114.4 82.15 -114.15 M3.1 -104.85 L3.45 -105.2 4.5 -104.9 4.6 -103.8 4.65 -101.35 Q4.6 -97.6 4.85 -93.8 L3.45 -93.85 1.25 -93.9 -23.85 -94.4 -23.45 -95.8 -22.4 -99.45 -21.75 -100.05 -20.8 -100.35 -20.4 -100.3 -18.5 -99.2 -17.9 -99.0 -15.75 -99.35 Q-14.8 -99.0 -13.7 -100.45 L-12.9 -103.3 -11.95 -106.6 -9.85 -107.55 -7.6 -107.0 -5.9 -105.65 -5.8 -105.6 -5.15 -105.3 -2.65 -104.7 Q0.0 -103.8 2.85 -104.7 L3.1 -104.85 M48.15 -56.1 L48.05 -56.1 47.85 -55.85 47.05 -55.0 46.85 -55.05 46.45 -55.05 45.45 -54.95 41.75 -54.55 40.7 -54.55 40.3 -54.65 39.65 -55.2 38.7 -56.15 37.25 -56.2 35.4 -56.15 35.25 -56.15 35.2 -56.1 34.9 -56.15 34.0 -56.05 Q32.8 -56.2 31.75 -55.45 L28.8 -55.25 27.7 -55.1 27.6 -55.0 27.5 -55.0 26.4 -54.85 24.7 -54.65 24.25 -54.8 23.1 -54.75 Q19.95 -53.75 17.6 -52.6 L17.05 -52.05 16.65 -51.9 16.5 -51.8 15.65 -51.2 Q14.55 -50.0 13.5 -48.2 L12.95 -47.95 12.45 -47.8 12.0 -47.2 11.05 -44.75 10.95 -44.2 10.8 -43.95 10.9 -43.65 10.95 -43.4 11.0 -42.95 11.05 -42.5 11.1 -42.25 11.1 -42.05 11.45 -40.4 11.7 -39.75 12.7 -34.85 11.45 -33.15 9.8 -32.95 Q8.45 -32.8 7.45 -32.1 L7.35 -31.95 6.85 -31.15 6.7 -30.5 6.6 -30.35 6.5 -30.1 6.5 -29.8 Q6.95 -28.35 7.7 -27.15 L9.05 -25.0 10.95 -22.25 11.0 -21.95 11.1 -21.65 11.4 -21.1 11.45 -20.85 11.55 -20.0 11.5 -19.95 8.25 -18.25 8.0 -17.9 7.4 -17.1 7.45 -16.8 7.3 -16.4 7.25 -15.65 7.35 -15.4 7.5 -14.8 Q7.35 -14.45 7.5 -13.9 L7.6 -13.65 7.8 -13.05 Q7.7 -11.6 8.05 -9.9 L8.0 -8.95 6.7 -8.5 Q5.15 -8.95 4.05 -9.55 L3.3 -9.9 1.5 -9.8 0.2 -8.55 -2.95 -4.4 -5.65 -4.3 -8.2 -4.1 -8.6 -4.25 -8.9 -4.3 -9.3 -4.7 Q-12.05 -7.3 -13.1 -6.5 L-13.15 -6.55 Q-14.45 -6.45 -15.7 -6.9 L-16.5 -8.0 -16.85 -8.4 -19.1 -9.25 -19.5 -9.85 -21.35 -12.25 -21.55 -12.5 -21.55 -12.9 -21.7 -13.1 -22.0 -13.5 -22.05 -14.05 -24.15 -16.75 -25.75 -19.15 -26.05 -21.85 Q-26.25 -24.1 -27.5 -25.95 L-27.6 -26.25 -28.35 -28.6 -28.25 -29.45 -22.95 -31.35 -22.2 -32.35 -21.7 -33.2 -21.75 -33.65 -21.85 -34.8 Q-22.25 -37.6 -23.8 -39.95 -23.1 -41.25 -22.95 -42.8 L-22.0 -43.8 Q-21.35 -44.75 -21.35 -45.5 L-21.4 -46.05 -21.5 -46.25 -21.55 -46.4 -21.7 -46.7 -21.9 -47.0 -22.3 -47.5 -22.5 -47.75 Q-23.45 -49.05 -23.6 -49.95 -23.9 -51.55 -24.85 -53.35 -25.3 -53.8 -25.95 -54.0 L-28.25 -54.4 -28.35 -54.55 Q-28.85 -55.45 -28.95 -56.25 L-29.25 -56.9 -29.4 -57.25 -29.2 -57.55 Q-28.55 -58.95 -28.35 -60.4 L-28.5 -60.75 -29.75 -62.25 -30.25 -62.4 -37.35 -62.8 -37.45 -63.0 -38.0 -63.85 -38.05 -64.1 -39.55 -66.1 -40.25 -66.8 Q-42.25 -68.05 -44.45 -68.95 L-44.6 -69.2 -45.0 -70.1 -44.9 -70.25 -44.55 -71.1 -44.45 -71.4 Q-43.7 -73.4 -43.4 -75.5 -43.65 -76.7 -44.45 -77.75 L-44.4 -79.3 -44.45 -80.65 -44.9 -81.65 -44.9 -81.95 -45.05 -82.45 -46.95 -85.0 -47.0 -85.25 -47.35 -86.0 -47.75 -86.55 -47.8 -86.85 -47.85 -87.15 -48.15 -87.7 -48.2 -87.95 -48.2 -88.4 -48.0 -88.8 -47.6 -89.35 -47.55 -89.4 -45.65 -89.5 -45.2 -89.65 -42.7 -89.5 -42.15 -89.4 -40.6 -89.45 -40.55 -89.45 -24.85 -89.05 2.0 -88.5 4.2 -88.5 30.5 -87.95 33.05 -87.85 50.4 -86.95 75.25 -85.3 97.45 -83.7 108.7 -82.8 109.0 -82.6 108.8 -81.25 108.75 -81.1 108.65 -80.85 108.3 -79.4 108.15 -79.05 Q105.35 -77.85 104.2 -75.6 L104.15 -73.6 104.25 -73.4 104.55 -72.85 104.65 -72.0 105.05 -71.25 105.9 -68.95 104.85 -67.35 101.7 -67.4 97.65 -67.5 Q96.45 -67.5 95.5 -66.9 92.4 -65.15 90.65 -61.9 L90.6 -61.65 90.3 -60.3 90.45 -59.75 90.4 -59.5 90.25 -58.6 Q90.25 -56.9 89.6 -55.4 L89.1 -55.25 83.95 -57.05 83.25 -57.3 82.15 -57.55 Q78.65 -57.65 75.5 -56.65 L75.2 -56.25 Q74.8 -55.4 74.85 -54.65 L74.45 -53.7 74.45 -53.25 74.35 -53.0 73.55 -52.75 72.75 -53.2 Q70.85 -54.35 69.2 -55.6 L66.35 -57.5 Q63.45 -59.0 62.0 -56.85 L61.3 -56.15 60.1 -54.45 58.35 -52.4 56.9 -52.7 54.65 -53.2 53.95 -53.4 52.75 -54.4 52.5 -54.7 Q50.1 -56.95 49.05 -55.95 L48.25 -56.05 48.15 -56.1 M-31.5 -94.6 L-38.5 -94.75 -38.5 -95.25 -36.1 -96.2 -33.65 -95.6 -31.7 -94.75 -31.5 -94.6" fill="#ffff00" fill-opacity="0.5019608" fill-rule="evenodd" stroke="none"/>
  </g>
</svg>
