<?xml version="1.0" encoding="UTF-8" standalone="no"?>
<svg xmlns:ffdec="https://www.free-decompiler.com/flash" xmlns:xlink="http://www.w3.org/1999/xlink" ffdec:objectType="shape" height="90.0px" width="134.0px" xmlns="http://www.w3.org/2000/svg">
  <g transform="matrix(1.0, 0.0, 0.0, 1.0, 37.0, 108.1)">
    <path d="M90.45 -106.65 L90.6 -106.4 Q94.25 -103.5 90.4 -100.95 89.4 -100.3 88.2 -100.5 87.4 -100.65 86.85 -101.2 L69.8 -100.2 Q68.85 -98.85 67.35 -98.05 61.25 -94.95 55.95 -90.85 58.5 -87.7 58.5 -83.5 58.5 -78.95 55.55 -75.65 L69.05 -72.7 69.3 -72.65 Q70.45 -74.05 72.45 -74.7 76.65 -76.05 79.8 -79.15 83.75 -83.0 88.15 -86.5 89.2 -87.35 90.5 -87.65 L91.05 -87.75 Q92.85 -87.95 94.05 -86.7 L94.15 -86.6 Q98.7 -84.9 95.95 -80.7 95.3 -79.75 94.15 -79.6 92.35 -79.4 90.85 -80.25 L90.4 -80.25 Q82.8 -73.35 74.0 -68.15 72.4 -67.2 71.2 -67.3 70.55 -66.8 69.6 -66.9 L59.05 -68.7 Q53.0 -69.95 47.45 -72.0 40.05 -69.65 32.5 -68.15 24.15 -66.45 15.7 -65.65 10.7 -65.15 5.6 -65.5 L5.35 -65.5 Q3.85 -62.75 2.0 -60.2 -1.85 -54.8 -6.3 -50.0 L-6.0 -48.0 Q-5.95 -45.65 -5.5 -43.3 L-2.55 -27.6 Q-2.35 -26.25 -1.6 -25.05 -0.6 -23.45 -0.5 -21.7 L-0.4 -21.0 Q-0.25 -19.5 -1.1 -18.8 -1.9 -17.8 -3.55 -18.25 -7.55 -17.95 -11.5 -18.2 -14.8 -18.4 -14.0 -21.5 -13.45 -23.5 -11.5 -23.6 L-7.95 -23.5 Q-9.4 -27.75 -9.7 -32.25 -9.9 -36.25 -10.85 -40.3 -12.0 -45.45 -12.55 -50.7 -12.65 -51.9 -11.55 -52.6 L-10.8 -53.0 -10.2 -54.15 Q-4.8 -61.7 1.0 -68.8 L-0.95 -72.6 Q-2.65 -76.35 -5.05 -79.85 L-7.25 -83.7 Q-16.05 -77.7 -25.45 -72.55 -27.4 -71.55 -28.65 -72.3 L-28.85 -72.25 Q-29.75 -72.05 -30.3 -72.75 L-35.7 -78.75 Q-38.7 -81.9 -34.7 -83.75 L-34.15 -83.9 Q-30.7 -82.85 -28.15 -79.8 L-27.35 -78.75 Q-23.6 -81.45 -19.4 -83.45 -17.55 -84.35 -15.85 -85.6 -12.45 -88.15 -8.95 -90.2 L-8.45 -90.85 Q-7.55 -91.6 -6.5 -91.6 L-4.85 -91.1 Q-4.2 -90.8 -3.85 -90.35 -2.75 -89.35 -2.2 -87.65 L-1.45 -86.15 Q3.15 -78.7 6.45 -70.5 L18.3 -71.7 24.25 -72.65 Q31.5 -73.95 38.6 -75.75 L36.65 -77.25 Q34.9 -80.0 34.9 -83.5 34.9 -88.4 38.35 -91.85 41.8 -95.3 46.7 -95.3 49.7 -95.3 52.2 -94.0 L52.25 -94.15 Q52.75 -95.2 53.6 -96.0 59.3 -101.3 66.05 -104.5 66.7 -105.6 68.4 -105.75 L87.6 -108.1 Q89.45 -108.15 90.45 -106.65" fill="#000000" fill-rule="evenodd" stroke="none"/>
  </g>
</svg>
