<?xml version="1.0" encoding="UTF-8" standalone="no"?>
<svg xmlns:ffdec="https://www.free-decompiler.com/flash" xmlns:xlink="http://www.w3.org/1999/xlink" ffdec:objectType="shape" height="107.5px" width="153.1px" xmlns="http://www.w3.org/2000/svg">
  <g transform="matrix(1.0, 0.0, 0.0, 1.0, 46.8, 112.5)">
    <path d="M87.6 -111.75 L87.7 -111.5 88.2 -110.45 88.75 -109.85 88.8 -109.55 88.9 -109.3 89.15 -109.0 89.35 -108.8 89.45 -108.5 89.55 -107.85 89.75 -107.35 90.0 -107.05 90.45 -106.65 90.85 -106.5 95.75 -106.05 Q97.65 -105.65 99.4 -104.85 L101.0 -104.3 103.65 -103.75 103.6 -103.65 103.45 -103.6 Q102.55 -103.15 101.55 -102.5 L100.95 -101.95 100.45 -101.5 99.95 -101.0 98.85 -100.3 Q97.35 -99.2 96.65 -97.1 L96.7 -96.9 97.05 -96.25 100.15 -94.25 100.4 -93.9 100.95 -92.75 101.25 -92.15 102.8 -89.8 103.85 -88.0 102.4 -86.65 101.0 -85.2 100.85 -85.15 Q98.8 -83.75 99.7 -80.6 L103.45 -77.2 90.55 -77.35 27.55 -78.0 25.05 -78.05 6.75 -78.85 Q-2.25 -79.25 -11.3 -79.25 L-25.05 -79.55 -42.15 -80.45 -42.2 -80.5 -42.3 -82.0 -42.55 -83.35 -43.25 -84.3 -43.25 -84.55 -43.4 -85.1 -45.5 -87.45 -45.55 -87.65 -45.95 -88.35 -46.25 -88.85 -46.35 -89.15 -46.4 -89.45 -46.7 -90.0 -46.8 -90.3 -46.8 -90.55 -46.6 -90.9 -46.25 -91.4 -46.25 -91.45 -44.35 -91.85 -43.35 -92.45 -42.2 -92.6 -40.85 -92.65 Q-39.45 -92.9 -38.85 -93.85 -39.15 -94.1 -39.1 -94.4 L-38.85 -95.0 -38.5 -96.1 -38.45 -97.9 -38.65 -100.2 -35.7 -99.7 -33.4 -98.9 Q-32.4 -98.65 -31.55 -98.05 -30.05 -97.0 -28.75 -96.7 -27.55 -96.45 -26.5 -96.95 L-26.3 -97.1 -26.25 -97.3 -25.65 -97.75 -24.35 -99.4 -23.8 -100.8 -22.25 -104.25 -21.25 -104.45 -20.35 -104.5 -19.9 -104.4 -18.1 -103.45 -17.55 -103.3 -15.6 -104.6 Q-14.7 -105.05 -13.75 -106.35 L-12.65 -109.1 -11.4 -112.25 -8.85 -111.7 -6.8 -110.75 -5.2 -109.35 -5.1 -109.25 Q-4.75 -108.95 -4.35 -109.0 L-1.7 -109.2 Q0.95 -109.2 3.7 -110.25 L4.05 -110.4 4.4 -110.65 5.35 -109.45 5.4 -108.35 5.5 -105.9 Q5.5 -102.1 5.75 -98.25 L6.0 -97.55 6.45 -96.45 7.3 -96.4 7.85 -96.5 11.65 -97.05 12.4 -96.9 14.65 -96.25 14.7 -96.15 15.3 -95.55 Q17.95 -93.4 20.4 -92.5 L20.4 -92.45 Q21.1 -91.6 22.4 -91.45 L23.1 -91.7 24.2 -92.1 Q25.95 -92.65 27.4 -94.05 L27.9 -94.85 28.15 -95.45 28.8 -97.65 30.3 -101.4 30.75 -101.2 Q32.8 -100.45 35.1 -100.15 L35.15 -100.0 35.15 -99.85 36.25 -99.8 38.8 -100.05 Q39.35 -100.2 39.8 -100.65 L39.9 -100.8 40.15 -101.2 41.85 -102.8 42.95 -105.75 43.2 -106.5 46.75 -105.05 46.9 -105.0 Q49.7 -103.35 52.0 -105.15 L55.2 -107.7 57.9 -110.2 58.2 -110.1 Q61.3 -108.8 63.8 -108.15 L64.85 -107.75 64.85 -107.8 65.55 -107.85 69.2 -110.55 72.95 -111.9 74.4 -112.5 75.2 -112.4 77.85 -110.75 78.35 -110.4 78.95 -110.2 Q79.55 -109.95 80.3 -110.2 L81.85 -110.7 Q83.3 -111.0 84.5 -111.6 L87.6 -111.75 M41.15 -56.55 L40.85 -56.4 40.05 -55.6 39.9 -55.55 39.45 -55.35 38.6 -54.85 Q36.7 -53.7 35.45 -52.1 L34.3 -51.65 33.9 -51.65 33.25 -52.25 32.4 -53.15 31.0 -53.95 29.25 -54.95 29.05 -55.0 29.0 -55.1 28.65 -55.35 27.75 -55.9 Q26.5 -56.85 25.3 -56.6 23.85 -56.8 22.5 -55.95 21.85 -55.8 21.4 -55.45 L21.35 -55.25 21.3 -55.1 20.35 -54.35 18.75 -53.35 18.3 -53.4 17.25 -53.4 11.25 -52.85 10.65 -52.35 10.3 -52.1 10.25 -51.9 9.8 -50.7 11.4 -45.95 10.9 -45.6 10.4 -45.35 9.9 -44.9 8.2 -42.8 7.9 -42.3 7.6 -42.0 7.65 -41.7 7.7 -41.5 7.6 -41.1 7.55 -40.75 7.55 -40.45 7.55 -40.15 7.8 -38.5 8.05 -37.9 9.4 -33.1 9.4 -30.75 7.8 -30.6 5.3 -29.9 5.15 -29.75 4.35 -29.2 3.85 -28.65 3.7 -28.5 3.5 -28.35 3.35 -28.1 Q3.45 -26.55 4.0 -25.2 4.4 -24.05 5.1 -22.95 L6.75 -20.05 6.85 -19.8 6.95 -19.5 7.2 -18.9 7.3 -18.7 7.5 -17.95 7.4 -17.95 3.9 -16.95 3.5 -16.75 2.55 -16.2 2.4 -16.05 1.85 -15.8 Q1.6 -15.65 1.45 -15.1 L1.45 -14.85 1.45 -14.25 Q1.0 -14.0 0.95 -13.35 L1.0 -13.1 1.05 -12.55 Q0.3 -11.15 0.1 -9.35 L-0.45 -8.5 -1.6 -7.7 Q-3.05 -8.35 -3.85 -9.45 L-4.45 -10.05 Q-5.35 -10.95 -6.3 -10.8 L-8.05 -10.05 -12.05 -6.8 -14.7 -5.95 -16.95 -5.0 -17.35 -5.1 -17.65 -5.15 -17.95 -5.65 -20.8 -10.25 -20.9 -10.35 -23.3 -11.1 -24.45 -11.9 -24.85 -12.1 -27.25 -12.65 -27.45 -13.3 -28.2 -16.3 -28.25 -16.65 Q-27.9 -16.75 -27.8 -17.2 L-27.8 -17.45 -27.9 -17.9 -27.6 -18.6 -28.8 -21.8 -30.05 -24.4 Q-30.35 -25.75 -30.8 -26.95 -31.55 -29.0 -33.1 -30.75 L-33.2 -31.05 Q-33.75 -32.25 -33.7 -33.35 L-32.95 -34.0 -27.7 -35.85 -26.7 -36.6 -25.85 -37.3 -25.65 -37.55 -25.45 -38.7 Q-25.1 -41.6 -25.95 -44.35 -25.65 -45.75 -25.75 -47.3 L-24.55 -48.0 -23.2 -49.4 -22.85 -49.9 -22.9 -50.15 -22.9 -50.4 -22.9 -50.7 -22.9 -50.95 -23.15 -51.55 -23.25 -51.95 Q-23.85 -53.55 -23.15 -54.65 -22.1 -56.5 -22.1 -58.75 -22.5 -59.3 -23.15 -59.45 L-25.4 -59.6 -25.65 -59.7 -27.6 -60.8 -28.25 -61.3 -28.55 -61.55 -28.4 -61.8 Q-27.7 -63.1 -27.3 -64.5 L-27.25 -64.9 -27.4 -67.05 -27.95 -67.25 -34.85 -67.75 -35.1 -67.9 -36.2 -68.35 -36.55 -68.5 -39.0 -69.65 -39.8 -70.1 -44.3 -71.6 -44.35 -71.9 -44.35 -72.9 -44.15 -73.05 -43.55 -73.85 -43.4 -74.1 -42.75 -75.3 -25.1 -74.2 -11.3 -73.65 Q-2.3 -73.2 6.7 -73.2 15.65 -73.15 24.6 -72.7 L27.8 -72.6 91.7 -72.1 94.0 -72.1 106.3 -71.8 106.3 -71.45 Q103.35 -70.65 101.5 -69.05 L99.85 -67.25 99.9 -67.0 100.0 -66.4 Q99.7 -66.15 99.65 -65.6 L99.9 -64.75 100.3 -62.2 99.65 -60.4 96.55 -60.75 92.55 -61.25 Q91.35 -61.35 90.4 -60.8 87.45 -59.0 85.75 -55.75 L85.7 -55.55 85.25 -54.2 85.2 -53.7 85.15 -53.45 84.9 -52.6 Q84.55 -50.9 83.6 -49.65 L83.15 -49.4 Q80.9 -50.7 78.3 -51.8 L77.6 -52.1 76.5 -52.25 Q73.15 -52.05 70.15 -50.65 L69.75 -50.3 68.9 -48.95 68.25 -48.0 68.15 -47.7 67.85 -47.55 66.55 -48.55 65.9 -49.15 Q64.25 -50.65 62.9 -52.35 L60.55 -54.7 Q58.1 -56.55 55.95 -55.15 L55.1 -54.7 53.4 -53.4 51.3 -51.8 49.8 -51.6 47.35 -51.5 46.6 -51.5 Q45.9 -51.9 45.5 -52.55 L45.25 -52.9 Q43.5 -55.25 42.15 -55.85 L41.4 -56.3 41.25 -56.5 41.15 -56.55" fill="#ffff00" fill-opacity="0.5019608" fill-rule="evenodd" stroke="none"/>
  </g>
</svg>
