<?xml version="1.0" encoding="UTF-8" standalone="no"?>
<svg xmlns:ffdec="https://www.free-decompiler.com/flash" xmlns:xlink="http://www.w3.org/1999/xlink" ffdec:objectType="shape" height="83.8px" width="131.7px" xmlns="http://www.w3.org/2000/svg">
  <g transform="matrix(1.0, 0.0, 0.0, 1.0, 36.6, 104.25)">
    <path d="M88.0 -104.2 L88.0 -104.25 Q93.2 -103.4 92.55 -98.85 92.35 -97.35 90.85 -97.1 89.45 -96.8 88.2 -97.45 79.2 -98.35 70.2 -97.75 L69.45 -97.2 58.3 -89.85 Q57.3 -88.2 56.25 -87.6 58.1 -84.8 58.1 -81.2 58.1 -76.55 55.0 -73.2 61.45 -72.15 67.2 -69.3 L68.25 -69.95 Q77.75 -74.65 86.45 -80.7 88.55 -82.2 91.05 -82.4 96.05 -82.05 94.9 -76.95 94.25 -73.7 91.0 -74.75 L90.2 -75.15 79.7 -69.35 Q76.0 -67.3 72.45 -64.9 70.55 -63.65 68.35 -63.45 L67.3 -63.55 65.2 -63.85 Q63.6 -64.25 62.35 -65.3 L50.6 -68.15 Q50.1 -68.25 49.9 -68.8 L49.1 -68.5 Q40.25 -66.65 31.15 -66.65 20.1 -66.65 9.05 -67.05 L2.65 -67.6 2.2 -66.9 -2.3 -60.25 -5.6 -55.35 Q-4.85 -53.8 -5.2 -51.4 L-5.6 -47.15 Q-5.95 -35.95 -4.75 -25.1 L-4.75 -25.05 Q-4.3 -23.75 -5.1 -22.9 -5.55 -22.35 -6.3 -22.1 -7.9 -21.35 -9.7 -21.05 L-17.85 -20.45 Q-19.45 -20.5 -19.85 -22.1 -20.75 -25.6 -17.25 -26.0 -13.7 -26.4 -10.4 -27.3 -11.75 -36.55 -11.6 -46.15 -11.55 -49.9 -11.05 -53.5 -12.4 -55.1 -11.0 -57.75 -7.45 -64.45 -2.6 -70.2 -1.8 -71.15 -0.8 -71.45 -2.4 -74.0 -3.4 -76.9 L-4.1 -79.6 Q-5.75 -83.4 -6.65 -87.4 -13.5 -82.15 -21.65 -78.7 L-24.7 -77.05 Q-25.85 -76.25 -27.15 -76.15 -27.4 -75.95 -27.8 -75.9 -31.5 -75.3 -33.7 -78.7 L-36.05 -82.75 Q-37.65 -85.8 -34.75 -87.35 L-33.8 -87.75 Q-31.0 -86.65 -29.45 -83.85 L-28.85 -83.1 -28.2 -82.5 -26.85 -83.15 Q-25.55 -83.6 -24.35 -84.2 -18.9 -86.95 -13.7 -90.05 -9.75 -92.4 -6.2 -95.35 L-5.35 -95.8 Q-1.95 -95.6 -1.95 -93.25 -1.15 -92.15 -1.0 -90.45 L-0.75 -89.0 Q1.0 -80.8 4.85 -73.15 L6.85 -73.05 10.2 -72.6 10.85 -72.6 30.45 -72.65 38.65 -73.0 36.25 -74.95 Q34.5 -77.7 34.5 -81.2 34.5 -86.1 37.95 -89.55 41.4 -93.0 46.3 -93.0 49.65 -93.0 52.35 -91.4 53.55 -94.05 56.15 -95.85 L66.85 -102.7 67.95 -103.1 68.15 -103.2 69.15 -103.4 86.25 -103.7 Q87.05 -104.3 88.0 -104.2" fill="#000000" fill-rule="evenodd" stroke="none"/>
  </g>
</svg>
