<?xml version="1.0" encoding="UTF-8" standalone="no"?>
<svg xmlns:ffdec="https://www.free-decompiler.com/flash" xmlns:xlink="http://www.w3.org/1999/xlink" ffdec:objectType="shape" height="112.05px" width="153.65px" xmlns="http://www.w3.org/2000/svg">
  <g transform="matrix(1.0, 0.0, 0.0, 1.0, 45.35, 117.9)">
    <path d="M45.35 -57.75 L46.85 -57.65 61.7 -56.65 Q72.6 -56.75 83.45 -56.25 L93.9 -55.85 94.75 -55.8 94.5 -53.4 87.5 -54.95 Q86.25 -55.25 85.35 -54.65 81.5 -52.2 79.9 -47.45 79.0 -44.85 77.2 -43.55 74.85 -45.6 71.9 -46.85 L70.85 -47.0 Q65.65 -46.15 61.8 -42.1 L61.4 -42.1 59.0 -45.1 Q57.6 -47.0 56.65 -49.1 53.45 -56.05 46.75 -52.35 43.2 -50.45 39.3 -49.6 38.55 -49.95 38.2 -50.7 36.7 -54.1 34.35 -56.85 L33.9 -56.95 Q30.5 -54.15 29.1 -49.7 L27.95 -48.8 27.55 -48.7 26.85 -49.3 24.8 -51.65 Q23.1 -53.55 21.55 -55.75 18.85 -59.4 16.15 -56.65 L15.1 -55.8 15.1 -55.5 15.1 -55.25 12.8 -52.05 Q8.8 -51.8 4.95 -53.05 4.2 -52.95 4.0 -52.25 L4.0 -51.95 4.0 -50.25 Q6.45 -46.7 9.25 -43.65 L8.9 -43.25 Q6.55 -41.95 4.4 -40.1 L4.4 -39.8 4.4 -39.55 4.2 -39.25 4.0 -38.95 4.0 -38.65 4.1 -36.65 4.4 -36.05 Q5.7 -32.1 7.35 -28.35 3.35 -28.2 0.2 -26.35 -0.15 -23.4 1.15 -20.85 L3.45 -15.9 -3.55 -15.2 Q-4.05 -15.15 -4.4 -14.55 L-4.45 -14.3 -4.6 -13.7 Q-5.35 -13.5 -5.55 -12.85 L-5.55 -12.55 -5.65 -12.0 Q-7.15 -10.65 -7.85 -8.8 L-9.95 -6.9 Q-11.3 -7.75 -11.8 -9.3 -13.0 -12.75 -16.3 -11.55 -21.5 -9.65 -25.75 -5.85 L-26.4 -5.95 -26.6 -6.55 -28.5 -14.0 Q-31.5 -16.05 -35.4 -16.0 L-35.45 -16.75 Q-35.6 -18.85 -34.95 -20.8 -34.3 -20.9 -34.0 -21.45 L-33.9 -21.75 -33.8 -22.3 -33.1 -23.15 Q-33.1 -25.05 -33.45 -26.85 -34.5 -32.0 -38.75 -35.5 L-38.85 -35.8 Q-39.4 -37.0 -39.05 -38.1 -34.2 -39.6 -29.55 -41.45 L-29.05 -42.65 Q-27.45 -47.05 -28.5 -51.8 -26.15 -52.35 -24.3 -53.8 L-24.3 -54.1 -24.3 -54.35 -24.1 -54.65 -23.95 -54.95 -24.0 -56.1 Q-24.2 -58.05 -22.75 -59.3 -20.95 -60.9 -19.95 -62.75 L-0.85 -60.7 Q11.15 -59.05 23.25 -58.5 L45.35 -57.75 M83.8 -108.3 Q84.45 -107.65 85.3 -107.7 89.65 -107.95 93.2 -109.1 L93.2 -108.8 Q93.25 -107.85 93.95 -107.1 L93.95 -106.8 93.95 -106.5 94.15 -106.2 94.35 -105.95 94.35 -105.65 94.35 -104.2 94.95 -103.05 95.3 -102.7 Q101.65 -99.9 108.3 -97.9 106.25 -97.65 104.6 -96.35 104.3 -96.1 103.95 -96.0 99.65 -94.7 97.0 -91.4 L97.0 -91.1 97.1 -90.25 105.35 -81.9 103.45 -80.85 Q102.4 -80.1 101.2 -79.6 97.15 -78.0 97.1 -74.15 L103.15 -66.4 103.15 -66.15 103.15 -65.85 Q104.2 -65.05 104.4 -63.85 100.0 -63.35 96.25 -61.25 L83.5 -61.7 61.7 -62.55 Q55.15 -62.9 48.55 -62.85 L45.65 -62.9 23.25 -63.6 16.0 -64.0 -8.45 -66.75 -26.1 -68.9 -25.1 -71.8 -25.6 -72.1 -34.4 -72.9 Q-39.5 -73.15 -44.2 -74.25 L-44.1 -74.55 -43.65 -75.7 -42.6 -76.6 Q-38.6 -80.8 -40.65 -86.05 -41.25 -86.3 -41.55 -86.9 L-41.55 -87.2 -41.75 -87.75 Q-44.5 -89.55 -45.35 -92.65 L-45.2 -92.95 -44.9 -93.5 -43.05 -94.15 -42.15 -95.15 -41.0 -95.55 Q-38.3 -95.95 -37.8 -98.0 L-38.45 -98.85 -38.45 -99.7 Q-38.3 -102.5 -38.75 -105.15 -36.35 -103.45 -33.1 -102.25 L-31.4 -101.35 Q-28.55 -99.2 -26.3 -101.05 L-26.25 -101.35 -26.25 -101.65 -25.75 -102.3 Q-24.55 -105.95 -22.1 -109.1 -19.8 -108.95 -17.7 -107.7 L-17.2 -107.65 Q-13.4 -112.15 -10.9 -117.9 -7.55 -116.0 -4.45 -113.0 -4.05 -112.6 -3.6 -112.75 0.9 -114.2 5.35 -116.1 6.2 -114.65 6.25 -112.9 L6.8 -100.6 7.6 -100.4 15.6 -101.05 Q17.95 -97.3 21.15 -94.25 21.6 -93.05 22.95 -92.85 26.3 -94.95 28.45 -98.4 L31.65 -104.0 Q34.7 -101.4 38.05 -99.6 L38.1 -99.35 38.15 -99.05 Q41.1 -97.1 43.05 -100.1 L43.05 -100.4 43.15 -100.95 Q45.15 -103.45 46.7 -106.4 L51.9 -102.05 Q54.8 -99.6 56.95 -102.35 59.9 -106.1 61.8 -110.35 65.7 -109.2 69.0 -106.45 L69.9 -106.2 Q75.15 -107.8 79.4 -111.6 L80.15 -111.6 83.8 -108.3" fill="#ffff00" fill-opacity="0.5019608" fill-rule="evenodd" stroke="none"/>
  </g>
</svg>
