<?xml version="1.0" encoding="UTF-8" standalone="no"?>
<svg xmlns:ffdec="https://www.free-decompiler.com/flash" xmlns:xlink="http://www.w3.org/1999/xlink" ffdec:objectType="shape" height="82.8px" width="128.35px" xmlns="http://www.w3.org/2000/svg">
  <g transform="matrix(1.0, 0.0, 0.0, 1.0, 34.35, 103.9)">
    <path d="M85.9 -101.5 L86.45 -101.6 Q89.05 -101.25 89.3 -98.7 L89.35 -98.4 Q92.4 -95.4 89.1 -92.85 88.45 -92.35 87.6 -92.4 85.6 -92.6 84.35 -94.1 76.4 -92.65 68.75 -94.15 L67.45 -92.9 Q62.9 -89.3 58.65 -85.55 57.9 -84.9 57.05 -84.45 58.2 -82.1 58.2 -79.25 58.2 -74.35 54.75 -70.9 L53.3 -69.65 55.2 -68.5 Q55.65 -68.15 56.3 -68.05 61.55 -67.1 65.3 -63.75 L67.4 -64.65 72.4 -66.65 Q78.65 -69.35 84.1 -73.55 L84.5 -73.8 84.55 -74.15 Q85.3 -76.9 88.0 -77.4 89.85 -77.25 90.55 -75.65 L90.7 -75.35 Q94.85 -74.8 93.8 -71.1 93.3 -69.45 91.5 -69.15 L88.75 -69.1 88.15 -68.65 Q78.9 -62.6 68.8 -58.65 66.05 -57.55 64.55 -58.6 63.3 -58.35 61.6 -59.25 56.95 -61.6 52.05 -63.25 48.0 -64.65 45.5 -67.5 L43.45 -67.75 35.7 -66.8 23.65 -66.45 Q14.35 -66.65 6.4 -70.8 L5.15 -71.65 5.05 -71.6 Q0.2 -68.05 -3.15 -63.25 -6.15 -58.95 -9.45 -54.8 -9.15 -53.75 -9.25 -52.4 L-9.3 -50.95 Q-9.4 -39.75 -9.05 -28.5 -9.0 -26.65 -9.5 -25.0 -9.05 -22.0 -12.3 -21.35 L-16.65 -21.25 -22.05 -22.05 Q-26.7 -22.75 -24.65 -26.5 -23.95 -27.8 -22.65 -27.85 L-15.35 -27.3 Q-15.15 -29.65 -15.1 -32.05 -14.95 -42.6 -15.55 -53.05 -16.4 -54.4 -15.3 -56.45 L-15.15 -56.75 Q-9.55 -66.15 -1.65 -73.7 L0.85 -75.85 Q0.35 -76.7 0.15 -77.85 -0.45 -81.3 -2.35 -84.35 -4.8 -88.3 -5.15 -92.85 L-5.95 -94.55 Q-12.0 -87.9 -19.25 -82.75 -23.2 -80.0 -27.75 -78.45 -28.25 -78.3 -28.75 -78.65 L-28.95 -78.8 Q-31.05 -78.8 -31.7 -81.2 -32.6 -84.45 -33.85 -87.45 -35.6 -91.6 -31.5 -92.75 -27.65 -91.0 -26.85 -86.45 L-26.65 -85.4 -23.6 -87.5 Q-14.3 -93.5 -7.3 -102.35 L-5.95 -103.5 Q-5.3 -103.9 -4.6 -103.9 -0.8 -103.15 -0.7 -99.0 L-0.45 -96.95 Q0.65 -91.55 3.15 -86.7 L5.3 -81.9 5.85 -80.65 Q6.5 -79.35 6.6 -78.05 L7.8 -77.05 12.95 -74.7 Q14.3 -73.95 15.8 -73.65 26.15 -71.3 36.6 -72.85 L36.35 -73.0 Q34.6 -75.75 34.6 -79.25 34.6 -84.15 38.05 -87.6 41.5 -91.05 46.4 -91.05 49.95 -91.05 52.75 -89.25 L53.85 -90.1 55.5 -91.25 Q60.3 -95.15 65.45 -98.6 L66.5 -99.25 66.75 -99.45 67.25 -99.65 67.6 -99.55 67.65 -99.6 70.85 -99.7 83.95 -100.25 Q84.7 -101.25 85.9 -101.5" fill="#000000" fill-rule="evenodd" stroke="none"/>
  </g>
</svg>
