<?xml version="1.0" encoding="UTF-8" standalone="no"?>
<svg xmlns:ffdec="https://www.free-decompiler.com/flash" xmlns:xlink="http://www.w3.org/1999/xlink" ffdec:objectType="shape" height="95.25px" width="162.3px" xmlns="http://www.w3.org/2000/svg">
  <g transform="matrix(1.0, 0.0, 0.0, 1.0, 54.75, 119.1)">
    <path d="M0.35 -50.9 Q2.75 -47.85 4.4 -44.4 L-3.05 -43.6 Q-4.15 -43.55 -4.3 -42.45 -5.25 -36.2 -4.4 -29.85 L-9.95 -30.2 Q-10.75 -30.25 -11.3 -29.8 -14.9 -27.1 -18.1 -23.85 L-18.55 -23.85 Q-18.65 -23.85 -18.75 -23.95 L-19.85 -25.65 -20.6 -26.2 Q-29.1 -27.35 -37.7 -26.15 L-37.8 -29.3 Q-37.9 -31.2 -39.25 -32.55 -43.0 -36.2 -47.25 -39.35 L-47.25 -39.65 -47.25 -39.9 -47.25 -40.2 -46.7 -40.35 -40.65 -41.15 Q-39.05 -41.5 -39.1 -43.25 L-38.95 -55.8 -38.5 -55.8 -37.95 -55.6 Q-35.05 -54.45 -33.25 -55.95 L-24.7 -55.5 -17.25 -55.0 -1.75 -54.2 -1.75 -53.3 0.35 -50.9 M49.7 -52.7 L52.2 -52.7 93.8 -52.45 Q93.65 -48.4 92.6 -44.6 L92.15 -44.6 Q87.85 -46.75 83.4 -48.55 L81.9 -48.85 Q76.85 -48.7 74.35 -43.95 L73.9 -43.7 72.9 -43.65 Q66.45 -48.7 58.75 -47.45 57.6 -47.3 56.6 -46.75 51.4 -43.9 45.75 -42.4 L45.3 -45.05 44.3 -49.3 Q42.7 -51.05 40.25 -50.2 36.2 -48.8 32.35 -50.05 L32.0 -52.85 32.0 -52.95 49.7 -52.7 M0.25 -113.85 L7.85 -116.55 9.15 -113.5 Q10.05 -111.05 9.75 -108.35 L9.35 -107.75 9.0 -107.2 9.0 -106.9 8.95 -106.6 8.9 -106.3 8.6 -106.05 8.6 -105.15 8.7 -104.0 15.4 -104.2 Q15.8 -102.65 15.8 -101.05 15.75 -98.25 16.35 -95.6 19.8 -94.85 22.95 -97.4 L23.15 -97.7 23.25 -98.0 Q24.9 -98.6 26.6 -98.4 29.85 -94.5 34.65 -94.95 L34.95 -95.45 Q35.65 -96.8 36.85 -97.7 36.9 -98.75 37.3 -99.65 38.35 -102.0 39.9 -103.75 43.55 -100.5 47.95 -98.85 50.35 -96.95 52.8 -98.55 L52.9 -98.85 53.0 -99.45 54.1 -100.5 Q56.1 -101.9 56.75 -104.3 58.1 -105.8 59.9 -106.2 60.9 -105.55 61.5 -104.45 L62.6 -102.95 Q65.45 -99.7 68.75 -102.0 L71.95 -104.7 Q74.35 -107.15 77.2 -106.6 78.0 -104.85 79.25 -103.4 L81.7 -99.85 Q83.7 -96.45 87.15 -96.95 L87.35 -97.25 87.55 -97.5 Q92.35 -99.85 97.5 -100.65 97.95 -99.15 97.95 -97.5 L98.25 -92.9 Q102.7 -92.1 106.4 -89.65 103.4 -87.6 100.05 -86.15 L99.9 -85.95 98.55 -84.5 98.55 -83.65 98.55 -81.9 101.3 -79.1 Q103.85 -76.75 106.85 -75.3 102.5 -74.1 98.9 -71.8 L98.9 -70.9 99.0 -69.2 101.5 -65.45 Q104.4 -61.5 107.55 -57.7 L51.35 -58.05 48.85 -58.05 29.85 -58.35 29.35 -59.25 28.75 -59.9 Q26.95 -62.8 23.75 -62.35 22.6 -62.25 21.85 -61.4 20.35 -59.8 18.65 -58.65 L15.3 -58.75 13.65 -60.35 Q10.45 -63.35 6.9 -61.85 6.55 -60.75 6.6 -59.55 L6.6 -59.05 -0.85 -59.45 -18.1 -60.4 -33.0 -60.85 -33.1 -61.3 -34.25 -69.65 Q-30.35 -67.9 -26.05 -68.1 -25.2 -68.1 -25.05 -68.95 -24.1 -73.6 -24.1 -78.4 L-23.8 -78.7 Q-23.4 -79.15 -22.8 -79.25 -22.7 -79.35 -22.55 -79.4 -21.15 -80.35 -20.1 -81.75 L-20.1 -82.3 -20.1 -82.9 -20.6 -83.15 Q-28.15 -83.3 -35.4 -82.95 L-35.45 -85.25 Q-35.5 -88.65 -36.7 -91.55 L-37.05 -92.0 Q-45.5 -97.25 -54.75 -101.55 -50.5 -102.8 -46.15 -103.35 L-45.95 -103.55 -45.75 -103.85 -45.15 -104.0 Q-44.15 -104.35 -43.55 -105.25 L-43.35 -105.8 -42.7 -107.0 -42.75 -107.85 -42.5 -109.0 -42.3 -109.25 -41.65 -109.85 -40.2 -109.95 Q-38.3 -109.1 -36.25 -108.8 L-36.1 -108.6 Q-35.55 -108.05 -34.75 -108.05 L-34.2 -107.65 Q-33.0 -107.05 -32.15 -107.9 -28.7 -111.35 -26.5 -115.7 L-26.05 -115.9 Q-25.55 -116.1 -25.45 -116.65 -22.6 -113.5 -18.55 -111.85 -17.3 -110.4 -15.3 -111.55 -9.8 -114.65 -5.2 -119.05 L-5.0 -119.1 -4.05 -119.05 -3.35 -118.0 Q-2.0 -116.7 -0.95 -115.1 L-0.95 -114.85 -0.95 -114.55 -0.45 -114.05 0.25 -113.85" fill="#ffff00" fill-opacity="0.5019608" fill-rule="evenodd" stroke="none"/>
  </g>
</svg>
