<?xml version="1.0" encoding="UTF-8" standalone="no"?>
<svg xmlns:ffdec="https://www.free-decompiler.com/flash" xmlns:xlink="http://www.w3.org/1999/xlink" ffdec:objectType="shape" height="70.6px" width="125.6px" xmlns="http://www.w3.org/2000/svg">
  <g transform="matrix(1.0, 0.0, 0.0, 1.0, 32.85, 105.8)">
    <path d="M71.2 -94.9 Q76.3 -94.05 81.2 -92.15 86.1 -90.3 91.15 -90.15 91.75 -90.15 92.05 -89.6 94.2 -85.4 89.85 -84.15 L87.0 -84.1 Q78.65 -86.2 70.95 -89.5 L70.25 -89.15 Q64.8 -87.3 59.8 -84.5 L56.55 -82.9 Q57.7 -80.55 57.7 -77.7 57.7 -72.8 54.25 -69.35 52.15 -67.25 49.5 -66.4 51.5 -64.95 53.6 -63.8 L58.7 -60.8 62.05 -58.55 72.25 -61.0 80.6 -62.85 81.9 -63.95 83.5 -64.8 84.55 -65.1 Q89.4 -64.35 88.0 -59.35 L87.9 -59.05 Q88.5 -54.3 83.35 -55.7 82.2 -56.0 81.75 -57.1 71.6 -54.15 61.05 -53.1 L60.15 -53.15 Q58.8 -53.25 57.6 -54.0 L47.7 -60.45 Q43.55 -63.1 39.7 -66.2 38.9 -66.85 39.1 -67.95 L39.2 -68.35 38.65 -69.05 19.25 -69.3 Q15.4 -69.4 11.75 -70.6 7.25 -72.05 3.2 -74.15 -5.55 -69.35 -11.85 -61.75 -11.15 -60.15 -12.05 -57.75 -14.1 -52.6 -15.4 -47.2 L-17.05 -40.05 -17.05 -40.0 Q-15.25 -36.5 -19.2 -35.6 -25.2 -34.2 -29.45 -37.75 -30.25 -38.45 -30.05 -39.5 -29.55 -41.9 -27.25 -42.05 L-22.15 -41.15 Q-22.15 -46.9 -20.25 -52.35 -18.7 -56.75 -17.5 -61.3 L-16.95 -62.55 Q-17.5 -64.05 -16.15 -65.7 -9.55 -73.75 -0.45 -79.05 L-0.9 -80.6 -1.75 -84.5 -2.25 -87.0 -3.45 -95.3 -4.2 -98.55 Q-14.35 -95.5 -24.3 -91.9 L-26.4 -92.05 -26.45 -92.05 Q-28.2 -91.2 -29.5 -92.6 -31.9 -95.1 -32.65 -98.55 -33.55 -102.6 -29.95 -103.5 -26.75 -102.65 -26.55 -99.2 L-26.4 -98.55 -25.85 -97.4 -24.65 -98.0 -3.7 -105.5 -2.65 -105.8 Q-0.1 -104.95 0.1 -103.4 2.05 -101.65 2.4 -98.45 L3.65 -86.0 Q5.35 -83.5 5.5 -80.9 7.3 -80.25 7.3 -78.7 9.8 -78.1 12.15 -77.0 15.95 -75.3 20.1 -75.15 L34.4 -74.9 Q34.1 -76.25 34.1 -77.7 34.1 -82.6 37.55 -86.05 41.0 -89.5 45.9 -89.5 49.3 -89.5 52.0 -87.85 60.75 -92.5 69.95 -95.45 L71.2 -94.9" fill="#000000" fill-rule="evenodd" stroke="none"/>
  </g>
</svg>
