<?xml version="1.0" encoding="UTF-8" standalone="no"?>
<svg xmlns:ffdec="https://www.free-decompiler.com/flash" xmlns:xlink="http://www.w3.org/1999/xlink" ffdec:objectType="shape" height="104.6px" width="165.25px" xmlns="http://www.w3.org/2000/svg">
  <g transform="matrix(1.0, 0.0, 0.0, 1.0, 58.0, 130.05)">
    <path d="M-26.7 -39.45 L-21.95 -39.4 Q-22.4 -37.2 -22.0 -34.65 L-26.7 -39.45 M35.0 -38.2 L35.0 -39.2 89.35 -39.1 89.35 -36.65 Q84.75 -34.6 81.6 -30.85 L79.25 -31.25 Q73.15 -30.85 69.65 -25.55 L69.25 -25.45 62.8 -33.2 Q62.0 -34.05 60.95 -33.6 56.6 -31.75 53.0 -29.0 L52.6 -30.2 Q51.9 -34.3 49.05 -37.0 48.5 -37.5 47.8 -37.55 L35.0 -38.2 M1.45 -121.65 L2.0 -120.15 Q2.9 -117.35 4.1 -114.75 5.0 -113.85 6.25 -114.25 11.9 -116.0 17.4 -116.35 16.75 -112.9 15.3 -109.5 13.55 -105.4 13.65 -100.95 16.5 -100.15 19.3 -99.8 L19.15 -95.8 Q18.85 -91.8 18.95 -87.75 20.6 -84.9 24.2 -84.7 L24.4 -84.5 Q25.3 -83.6 26.3 -84.3 27.0 -85.35 27.35 -86.6 28.15 -90.0 29.45 -93.1 L34.35 -91.0 Q38.65 -89.2 39.2 -93.3 L39.8 -94.5 40.75 -98.75 40.95 -99.05 41.25 -99.6 Q43.1 -99.35 44.8 -98.05 46.75 -96.5 49.15 -96.0 50.95 -95.6 52.4 -96.3 L61.3 -100.75 64.35 -97.45 65.55 -96.55 Q69.35 -94.8 73.0 -97.6 74.6 -97.75 75.85 -98.2 76.2 -97.6 76.8 -97.3 78.4 -94.05 80.8 -91.35 81.55 -90.45 82.65 -90.4 L101.4 -89.55 101.9 -89.3 101.4 -88.5 Q100.45 -86.05 98.9 -83.85 L98.9 -83.55 98.85 -82.95 98.55 -82.7 98.55 -82.4 98.55 -81.55 99.25 -80.85 Q102.9 -76.25 107.25 -72.35 105.2 -71.6 103.7 -70.05 102.1 -69.85 101.2 -68.45 L101.25 -66.7 Q101.4 -63.9 102.35 -61.25 L102.6 -60.95 102.95 -60.1 92.25 -59.3 Q91.05 -59.35 90.5 -58.4 L90.5 -57.8 90.6 -56.95 92.05 -54.7 Q94.5 -50.45 97.2 -46.6 L96.45 -46.4 Q93.2 -46.3 91.05 -44.55 L35.6 -44.6 35.65 -45.0 Q36.45 -48.7 35.6 -52.2 L35.25 -52.6 27.75 -53.2 22.0 -62.85 Q19.9 -66.3 16.25 -65.85 13.15 -63.65 11.3 -60.5 L11.2 -60.2 Q11.0 -58.65 9.65 -57.7 8.35 -57.85 7.15 -58.6 2.65 -61.5 -2.3 -60.7 L-2.45 -60.4 -2.5 -59.8 -2.9 -59.25 -2.9 -57.5 Q-2.9 -54.7 -1.75 -52.05 -5.4 -52.55 -8.8 -51.9 L-9.25 -49.0 -9.35 -44.8 -28.75 -44.95 -42.65 -45.6 -42.6 -46.05 Q-42.55 -47.1 -42.85 -48.05 -45.95 -52.15 -50.25 -55.05 -54.35 -57.75 -58.0 -60.95 L-46.8 -62.5 Q-46.05 -63.55 -46.1 -64.8 L-46.05 -70.55 Q-42.3 -68.95 -38.7 -66.8 -35.8 -65.05 -32.9 -65.25 -32.75 -65.85 -32.75 -66.4 -32.85 -69.5 -30.8 -71.6 -27.65 -71.65 -24.9 -72.95 L-24.65 -73.8 Q-24.6 -74.55 -24.9 -75.2 -26.95 -76.75 -28.8 -78.4 L-28.6 -78.95 -28.5 -79.8 -25.85 -83.25 -25.85 -83.55 -25.85 -83.85 -25.45 -84.4 -25.35 -85.25 Q-24.9 -86.5 -25.1 -87.85 L-25.6 -88.15 -32.7 -89.0 Q-34.4 -89.2 -35.7 -90.25 L-35.85 -91.4 Q-35.9 -93.65 -35.05 -95.7 L-34.45 -96.3 Q-33.3 -97.55 -33.6 -99.15 -35.05 -102.05 -37.5 -104.2 -39.75 -106.2 -41.15 -108.35 -38.95 -107.85 -37.25 -108.8 -36.75 -109.75 -36.85 -110.8 L-37.25 -113.0 Q-38.45 -117.15 -38.4 -121.45 L-38.1 -121.7 Q-32.5 -121.0 -29.5 -125.15 L-28.35 -125.75 -28.0 -126.3 Q-27.35 -127.2 -27.2 -128.3 L-26.05 -129.2 -25.95 -129.45 -25.85 -129.75 Q-25.15 -130.4 -24.7 -129.65 -24.15 -128.25 -23.05 -127.1 -22.25 -126.3 -22.05 -125.3 -21.05 -121.0 -17.4 -123.25 -15.45 -124.0 -14.05 -124.0 L-13.75 -122.3 Q-12.95 -119.9 -12.75 -117.4 -12.25 -116.85 -11.55 -117.1 -5.2 -119.75 1.45 -121.65" fill="#ffff00" fill-opacity="0.5019608" fill-rule="evenodd" stroke="none"/>
  </g>
</svg>
