<?xml version="1.0" encoding="UTF-8" standalone="no"?>
<svg xmlns:ffdec="https://www.free-decompiler.com/flash" xmlns:xlink="http://www.w3.org/1999/xlink" ffdec:objectType="shape" height="72.65px" width="129.45px" xmlns="http://www.w3.org/2000/svg">
  <g transform="matrix(1.0, 0.0, 0.0, 1.0, 35.75, 113.5)">
    <path d="M4.05 -101.3 Q4.05 -99.85 4.4 -98.4 6.25 -90.6 8.7 -82.85 L9.05 -80.55 Q17.15 -76.65 26.05 -74.05 L33.15 -72.15 34.85 -71.75 Q34.15 -73.65 34.15 -75.85 34.15 -80.75 37.6 -84.2 41.05 -87.65 45.95 -87.65 50.4 -87.65 53.7 -84.75 L55.8 -85.7 69.15 -90.05 69.65 -89.95 69.95 -90.05 Q75.2 -88.45 79.7 -84.8 82.25 -82.75 85.3 -81.45 L87.5 -80.45 Q88.5 -81.55 89.9 -81.6 94.1 -80.55 93.65 -75.85 93.25 -71.6 89.1 -72.5 88.45 -72.6 87.9 -73.05 L87.65 -73.25 Q86.6 -73.35 85.6 -74.05 L76.7 -79.5 Q73.3 -81.4 70.05 -83.55 L69.4 -84.05 57.15 -79.8 Q57.75 -77.95 57.75 -75.85 57.75 -70.95 54.3 -67.5 51.65 -64.85 48.15 -64.2 L47.05 -64.5 45.7 -64.15 45.75 -64.05 53.8 -50.85 Q64.45 -50.4 74.95 -50.25 L75.85 -50.45 Q79.85 -52.0 81.25 -48.45 81.95 -46.75 80.6 -45.4 L79.35 -44.25 79.25 -43.1 Q79.05 -41.55 77.6 -41.1 74.55 -40.05 73.0 -43.05 L72.55 -43.65 52.8 -45.45 52.75 -45.45 Q50.65 -44.75 49.45 -46.6 L40.8 -59.95 Q39.7 -61.6 38.2 -62.95 36.75 -64.25 36.4 -65.8 32.85 -65.8 29.45 -66.7 18.8 -69.45 8.7 -73.65 6.8 -74.45 5.35 -75.75 -2.4 -75.25 -9.8 -72.6 L-10.1 -71.95 Q-15.1 -62.15 -18.85 -51.75 -19.45 -50.1 -20.5 -48.8 -21.2 -46.65 -23.25 -46.8 -23.95 -46.7 -24.6 -47.15 L-26.45 -47.75 Q-30.4 -48.8 -34.1 -50.55 -36.2 -51.5 -35.65 -53.65 -35.15 -55.75 -33.0 -55.85 -28.8 -55.35 -25.2 -53.6 L-23.7 -56.75 -20.8 -63.95 -20.25 -64.8 -17.4 -70.85 -16.8 -71.7 Q-16.45 -73.85 -15.45 -75.3 -15.45 -76.45 -14.3 -77.2 -12.2 -78.65 -9.65 -79.2 L-3.95 -80.55 1.95 -81.6 2.75 -81.75 Q1.15 -85.65 0.15 -89.8 L-2.35 -99.6 -2.75 -101.7 -12.05 -99.25 Q-18.75 -97.05 -25.0 -99.4 L-25.85 -99.55 Q-28.75 -100.65 -28.9 -103.85 -29.05 -106.55 -29.55 -109.1 -30.3 -112.8 -26.85 -113.5 -23.35 -112.2 -23.1 -108.05 L-22.7 -106.05 -22.35 -104.2 Q-12.25 -105.0 -2.65 -108.1 L-1.1 -108.35 -0.35 -108.5 0.3 -108.15 1.9 -106.95 Q4.0 -104.9 4.05 -101.3" fill="#000000" fill-rule="evenodd" stroke="none"/>
  </g>
</svg>
