<?xml version="1.0" encoding="UTF-8" standalone="no"?>
<svg xmlns:ffdec="https://www.free-decompiler.com/flash" xmlns:xlink="http://www.w3.org/1999/xlink" ffdec:objectType="shape" height="107.45px" width="156.9px" xmlns="http://www.w3.org/2000/svg">
  <g transform="matrix(1.0, 0.0, 0.0, 1.0, 58.9, 127.0)">
    <path d="M12.6 -113.1 L14.9 -109.95 14.85 -108.95 14.6 -108.1 Q14.6 -107.15 14.85 -106.85 L15.3 -106.25 15.35 -106.15 Q15.5 -105.9 16.0 -105.6 L22.25 -105.25 24.85 -101.6 24.8 -101.35 24.7 -100.5 24.75 -96.65 Q25.45 -95.25 26.35 -95.0 L26.4 -94.95 26.45 -95.0 26.5 -95.05 Q27.8 -95.0 28.55 -95.5 L31.55 -96.1 32.4 -95.7 33.2 -95.25 34.55 -94.25 35.85 -89.7 Q36.95 -88.05 38.45 -86.9 L38.95 -86.75 40.8 -87.2 41.0 -87.15 Q41.85 -87.0 42.75 -87.65 L44.2 -89.6 46.3 -92.9 46.65 -93.25 47.5 -93.65 47.95 -93.7 52.4 -90.7 53.95 -89.75 Q54.25 -89.5 54.6 -89.35 55.75 -88.95 56.6 -89.95 L57.4 -90.85 58.2 -91.7 60.15 -93.95 60.4 -93.9 60.6 -93.8 60.85 -93.7 62.0 -92.7 63.5 -91.05 Q65.15 -89.15 67.25 -88.1 L67.3 -88.1 Q69.0 -87.95 70.5 -88.55 L71.25 -88.85 Q73.8 -89.9 76.1 -90.25 L77.25 -89.6 78.05 -88.95 78.8 -86.6 78.75 -85.55 78.95 -84.95 79.5 -83.9 79.75 -83.55 Q80.7 -81.75 82.95 -81.6 L85.7 -81.85 88.15 -82.05 88.3 -81.95 88.4 -81.95 Q88.55 -81.35 88.85 -80.85 L88.8 -80.2 88.85 -79.9 88.95 -79.6 88.85 -78.7 Q88.8 -76.7 89.75 -74.5 L90.0 -74.2 90.5 -73.6 91.65 -72.8 Q93.0 -72.1 94.3 -71.55 94.3 -71.0 94.65 -69.8 L94.95 -69.5 95.7 -68.45 95.8 -68.05 96.55 -67.25 97.85 -65.9 97.9 -65.9 98.0 -65.7 97.85 -65.9 97.2 -65.65 95.0 -64.8 Q94.3 -64.6 93.65 -64.05 L93.5 -63.9 93.35 -63.7 93.0 -63.25 92.65 -63.0 92.55 -62.8 92.15 -62.2 92.1 -61.7 91.7 -60.5 92.0 -60.3 91.9 -59.95 91.3 -59.5 91.25 -59.5 91.7 -60.5 Q90.45 -61.3 88.85 -60.8 L88.25 -60.8 87.45 -60.3 Q86.85 -60.1 86.4 -59.6 L86.0 -59.25 85.2 -57.85 83.8 -55.4 83.45 -55.3 83.45 -55.25 83.4 -55.1 81.35 -55.8 80.9 -55.65 Q78.45 -54.65 76.6 -53.3 L75.15 -51.95 74.45 -50.9 74.35 -50.45 74.4 -49.8 74.6 -48.9 76.0 -46.45 76.95 -45.15 77.05 -44.85 77.2 -44.35 77.4 -44.0 79.75 -40.5 79.2 -38.9 78.45 -38.6 76.7 -37.95 76.2 -37.25 76.05 -36.0 76.05 -35.0 76.2 -33.95 76.95 -32.55 78.75 -28.95 78.65 -28.25 69.3 -28.6 53.6 -29.85 40.25 -30.8 39.2 -31.15 34.1 -31.75 33.95 -32.0 32.85 -34.4 32.8 -34.6 32.65 -35.25 32.7 -35.4 Q33.4 -38.15 33.5 -41.05 L33.2 -41.75 Q31.95 -44.4 29.8 -46.7 L29.25 -47.0 21.5 -48.05 21.15 -48.3 21.15 -49.25 Q20.9 -51.35 20.8 -53.4 L20.9 -54.15 Q20.95 -56.1 20.25 -58.3 L20.0 -58.55 Q17.3 -61.0 13.7 -61.05 11.55 -60.55 9.55 -59.65 L9.1 -59.85 9.05 -59.85 9.05 -59.9 8.6 -60.25 8.15 -60.8 7.25 -61.2 6.55 -61.3 Q3.25 -61.8 -0.1 -61.3 L-2.3 -61.85 -3.0 -62.1 -3.25 -62.1 -3.5 -62.05 -3.95 -62.0 -4.6 -61.75 -5.05 -61.65 -5.35 -61.45 Q-6.3 -60.7 -6.5 -59.0 L-7.7 -58.25 -9.15 -57.2 -11.55 -55.6 -12.25 -53.3 -12.4 -52.85 -13.7 -49.7 -14.3 -49.2 -15.1 -49.0 -15.8 -49.35 -18.0 -49.6 -25.25 -48.3 -25.8 -48.05 Q-28.35 -45.8 -30.0 -43.3 L-30.4 -43.25 -33.7 -48.25 Q-34.5 -49.7 -35.7 -50.65 L-36.25 -50.95 -37.5 -51.3 Q-42.75 -52.45 -48.2 -53.0 L-48.3 -53.4 -48.7 -54.3 -48.4 -55.1 -48.05 -56.2 -47.8 -56.95 Q-47.45 -59.1 -47.8 -61.45 -47.85 -63.8 -50.05 -65.0 L-51.5 -65.65 Q-55.5 -67.2 -58.8 -69.5 L-58.9 -69.55 -58.55 -69.75 -55.6 -71.6 -55.35 -71.75 -55.2 -71.9 -54.65 -72.15 -48.65 -73.0 Q-47.65 -73.5 -47.05 -74.0 L-46.9 -74.1 -46.2 -74.85 Q-45.3 -76.55 -44.65 -78.45 -42.7 -79.0 -41.2 -79.85 L-40.75 -79.7 -38.6 -78.7 Q-35.5 -77.35 -32.45 -77.45 L-31.75 -78.05 -31.7 -78.2 -31.55 -79.6 Q-31.6 -81.6 -30.8 -83.45 L-30.7 -83.55 -30.55 -84.15 Q-30.0 -84.95 -29.75 -85.85 L-29.25 -87.1 -29.2 -87.95 -29.4 -89.4 -29.85 -90.45 -29.65 -91.1 Q-29.45 -91.55 -29.4 -92.45 L-29.05 -92.95 Q-28.8 -93.3 -28.7 -93.75 L-28.65 -93.8 -28.35 -94.8 -28.45 -95.85 -28.4 -96.1 -28.35 -96.4 -28.5 -97.0 -28.55 -97.3 -28.65 -97.6 -28.75 -97.85 -28.85 -98.05 -28.85 -98.45 -29.15 -99.15 -29.9 -101.35 -30.3 -101.7 -32.6 -103.0 -32.55 -103.8 -32.5 -104.25 -32.4 -104.85 -32.0 -105.7 -31.15 -107.5 -30.9 -109.65 -30.75 -110.35 Q-30.45 -111.7 -31.0 -113.2 -31.8 -114.65 -32.85 -115.95 L-32.3 -117.45 -31.95 -118.7 -31.95 -120.95 -30.15 -121.35 -29.9 -121.55 -29.7 -121.7 -28.5 -121.45 -27.65 -121.75 -27.1 -121.9 -26.8 -121.95 -26.3 -122.3 Q-25.15 -123.8 -23.95 -125.8 L-23.65 -126.0 Q-22.2 -126.3 -20.9 -126.9 L-20.3 -126.95 Q-19.8 -126.6 -19.05 -126.6 L-18.9 -126.55 -18.1 -126.15 -17.4 -125.95 Q-16.85 -125.55 -16.2 -125.45 L-15.3 -125.2 -15.0 -125.15 -14.85 -125.15 -14.55 -125.3 -13.45 -126.05 -12.3 -126.55 -12.05 -126.65 -11.8 -126.8 -10.5 -126.85 Q-9.45 -126.3 -8.15 -125.95 L-7.25 -125.65 -6.95 -125.05 -6.9 -124.8 -6.85 -124.7 Q-6.55 -123.55 -5.95 -122.8 L-5.85 -122.55 -5.6 -122.05 Q-5.1 -121.55 -4.45 -121.35 L-4.25 -121.25 -4.05 -121.15 -2.45 -121.25 0.75 -121.85 0.95 -121.9 1.95 -121.35 Q3.6 -120.5 4.9 -119.45 L6.2 -119.35 6.5 -119.4 8.5 -117.9 10.4 -115.85 10.9 -115.45 11.95 -114.55 12.15 -113.75 12.6 -113.1 M48.8 -24.65 L51.4 -24.35 47.95 -23.25 45.55 -24.4 45.4 -24.95 48.8 -24.65 M55.7 -23.9 L69.25 -23.2 71.45 -23.15 Q69.25 -22.4 67.4 -20.85 66.25 -20.05 65.05 -19.75 L63.65 -19.65 62.65 -19.55 62.3 -19.65 61.2 -21.2 60.45 -21.9 55.7 -23.9" fill="#ffff00" fill-opacity="0.5019608" fill-rule="evenodd" stroke="none"/>
  </g>
</svg>
