<?xml version="1.0" encoding="UTF-8" standalone="no"?>
<svg xmlns:ffdec="https://www.free-decompiler.com/flash" xmlns:xlink="http://www.w3.org/1999/xlink" ffdec:objectType="shape" height="89.7px" width="129.35px" xmlns="http://www.w3.org/2000/svg">
  <g transform="matrix(1.0, 0.0, 0.0, 1.0, 36.65, 120.0)">
    <path d="M8.3 -103.1 L9.35 -92.2 Q9.65 -88.3 10.2 -84.45 12.7 -83.2 14.7 -81.1 15.95 -79.75 17.35 -78.55 25.2 -71.85 34.95 -68.65 33.75 -71.0 33.75 -73.85 33.75 -78.75 37.2 -82.2 40.65 -85.65 45.55 -85.65 50.45 -85.65 53.9 -82.2 55.05 -81.05 55.8 -79.75 56.0 -81.65 58.6 -82.35 L68.0 -85.05 68.1 -85.0 68.4 -85.05 68.75 -84.85 Q70.05 -84.5 70.65 -83.8 75.3 -81.15 79.4 -77.5 L84.4 -73.45 Q87.45 -71.25 91.15 -71.05 91.55 -71.05 91.8 -70.65 93.95 -67.4 90.95 -64.65 88.75 -62.6 86.6 -64.65 82.45 -68.65 77.2 -71.45 75.7 -72.25 74.4 -73.35 L68.2 -78.6 67.25 -78.25 Q62.9 -76.95 58.4 -76.55 L57.0 -76.75 Q57.35 -75.4 57.35 -73.85 57.35 -68.95 53.9 -65.5 51.25 -62.85 47.75 -62.2 L46.65 -62.5 Q46.1 -62.05 45.2 -61.75 L45.1 -61.45 Q44.7 -59.9 44.8 -58.35 45.15 -54.35 44.95 -50.4 46.9 -49.05 48.1 -46.55 48.4 -45.9 49.05 -45.35 L58.05 -37.35 Q63.15 -37.7 62.45 -32.85 62.15 -30.8 60.1 -30.45 55.8 -29.7 53.1 -33.1 51.45 -35.2 49.4 -36.9 45.2 -40.35 41.9 -44.35 40.95 -45.5 40.35 -46.75 39.2 -47.55 39.2 -49.35 39.1 -55.3 39.3 -61.25 L38.2 -61.45 Q31.0 -63.1 24.6 -66.65 19.15 -69.2 14.3 -73.0 10.15 -76.25 6.8 -80.1 6.4 -80.15 6.1 -80.35 L-10.55 -77.7 -12.2 -77.6 -17.45 -68.7 -19.95 -64.2 Q-22.6 -59.55 -26.4 -55.9 -26.75 -55.6 -27.25 -55.6 L-27.75 -55.65 Q-29.65 -55.1 -32.05 -56.85 -34.55 -58.7 -36.35 -61.05 -36.75 -61.55 -36.65 -62.3 -36.3 -64.9 -33.8 -65.1 -30.9 -63.95 -28.6 -62.05 -25.3 -66.35 -23.05 -71.25 -21.4 -74.85 -19.15 -78.1 L-17.0 -81.3 -15.6 -82.85 Q-14.75 -83.5 -13.8 -83.55 L-13.6 -83.5 -12.1 -83.9 Q-4.75 -84.75 2.3 -86.2 L4.05 -86.5 Q2.95 -92.25 2.55 -98.1 L1.85 -105.55 -18.1 -104.85 Q-19.5 -104.8 -20.8 -105.4 L-21.45 -106.0 Q-23.35 -108.65 -23.95 -111.95 L-24.1 -112.5 Q-25.25 -115.55 -24.05 -118.45 -23.4 -119.95 -21.9 -120.0 -18.1 -118.5 -18.0 -113.95 L-17.55 -111.65 4.25 -110.85 Q6.85 -110.7 6.9 -108.5 8.4 -106.85 8.25 -103.95 L8.3 -103.1" fill="#000000" fill-rule="evenodd" stroke="none"/>
  </g>
</svg>
