<?xml version="1.0" encoding="UTF-8" standalone="no"?>
<svg xmlns:ffdec="https://www.free-decompiler.com/flash" xmlns:xlink="http://www.w3.org/1999/xlink" ffdec:objectType="shape" height="100.55px" width="130.1px" xmlns="http://www.w3.org/2000/svg">
  <g transform="matrix(1.0, 0.0, 0.0, 1.0, 38.95, 124.65)">
    <path d="M5.05 -108.8 L-1.95 -109.0 -3.75 -108.95 -14.75 -109.75 -15.55 -109.6 -17.45 -109.85 Q-17.8 -109.9 -18.05 -110.15 -19.35 -110.95 -19.85 -112.95 -20.55 -116.1 -20.85 -119.35 -21.05 -122.0 -19.35 -123.85 -18.6 -124.6 -17.65 -124.65 -13.95 -123.4 -14.5 -119.15 L-14.4 -118.3 -13.85 -115.35 6.15 -115.05 Q11.35 -115.0 11.4 -110.85 12.45 -109.25 12.1 -106.6 L10.55 -95.7 10.15 -90.55 Q10.15 -88.9 9.55 -87.5 10.9 -86.5 11.7 -84.75 L11.85 -84.5 Q20.4 -75.2 31.85 -69.85 32.9 -69.35 34.05 -69.05 33.8 -70.25 33.8 -71.55 33.8 -76.45 37.25 -79.9 40.7 -83.35 45.6 -83.35 50.5 -83.35 53.95 -79.9 55.6 -78.25 56.5 -76.25 61.95 -78.85 67.65 -80.85 70.2 -80.45 70.6 -79.0 76.7 -76.1 81.15 -70.7 L88.65 -62.0 Q93.2 -59.8 89.5 -56.55 87.8 -55.05 85.85 -54.05 84.3 -53.25 83.0 -54.35 80.55 -56.55 82.6 -59.35 76.9 -67.5 68.45 -73.45 L67.45 -74.1 57.35 -70.2 Q56.9 -66.15 53.95 -63.2 51.3 -60.55 47.8 -59.9 L46.7 -60.2 Q44.5 -59.35 41.95 -60.25 L41.6 -59.4 Q39.25 -53.9 37.75 -48.0 L46.1 -32.7 Q50.85 -32.65 50.25 -28.15 49.95 -26.1 48.1 -25.05 43.7 -22.45 41.85 -27.0 L39.75 -31.45 Q35.4 -39.25 31.95 -47.45 31.7 -48.05 31.85 -48.75 33.45 -55.5 35.4 -62.1 L35.5 -62.35 Q27.5 -64.3 20.6 -69.05 12.3 -74.7 6.05 -82.5 5.3 -83.45 5.05 -84.35 L-8.35 -83.8 Q-10.65 -83.9 -12.75 -84.6 L-17.5 -77.7 -24.7 -67.4 Q-25.9 -65.75 -27.3 -65.0 -28.05 -64.25 -29.65 -63.85 -30.5 -63.6 -31.25 -64.2 -35.75 -67.85 -38.75 -72.35 -39.05 -72.8 -38.85 -73.35 -38.1 -75.35 -36.1 -75.45 -32.55 -74.2 -29.85 -71.4 L-28.95 -72.35 Q-24.6 -79.1 -19.5 -85.35 L-17.15 -88.25 Q-16.1 -89.55 -14.6 -89.65 L-13.95 -89.4 Q-13.3 -90.0 -12.25 -90.05 L3.5 -89.75 6.2 -108.55 5.05 -108.8" fill="#000000" fill-rule="evenodd" stroke="none"/>
  </g>
</svg>
