<?xml version="1.0" encoding="UTF-8" standalone="no"?>
<svg xmlns:ffdec="https://www.free-decompiler.com/flash" xmlns:xlink="http://www.w3.org/1999/xlink" ffdec:objectType="shape" height="112.8px" width="126.0px" xmlns="http://www.w3.org/2000/svg">
  <g transform="matrix(1.0, 0.0, 0.0, 1.0, 23.15, 150.8)">
    <path d="M83.25 -133.4 L83.65 -133.1 91.45 -132.75 Q90.2 -132.0 89.35 -130.8 L89.35 -130.25 89.35 -129.1 Q91.85 -127.05 94.7 -125.55 90.55 -125.5 87.45 -123.45 L87.45 -122.85 Q87.35 -121.85 87.55 -120.85 89.4 -118.25 90.5 -115.2 86.55 -117.8 82.45 -116.75 82.3 -115.65 82.7 -114.7 84.85 -109.55 86.25 -104.35 L84.55 -106.7 Q83.15 -109.0 81.05 -110.15 78.45 -112.35 76.45 -109.2 L76.35 -108.9 76.3 -108.6 76.25 -108.35 74.8 -106.6 74.8 -106.05 74.8 -105.9 Q74.0 -108.2 73.65 -110.7 L73.5 -111.65 70.7 -110.35 Q70.5 -109.1 69.45 -108.35 L69.45 -108.05 69.45 -107.2 Q66.85 -107.5 64.4 -108.55 L62.5 -109.45 57.95 -109.3 58.0 -109.0 57.9 -106.7 Q50.85 -104.3 44.6 -100.6 L44.55 -100.3 44.65 -99.45 Q48.45 -97.95 51.45 -95.5 L51.45 -95.2 51.45 -94.65 51.1 -94.05 51.1 -93.8 50.8 -92.65 Q49.75 -92.4 49.25 -91.65 46.95 -88.2 44.2 -85.15 L44.2 -84.9 44.2 -84.3 43.8 -83.75 43.8 -83.45 43.9 -82.6 53.95 -81.3 Q55.1 -81.15 55.65 -80.2 57.35 -77.2 56.9 -73.4 57.55 -72.7 58.55 -72.9 L66.95 -74.35 77.1 -74.75 77.1 -74.45 77.1 -73.9 Q77.9 -73.05 77.95 -71.85 79.0 -71.0 80.25 -71.7 83.85 -73.65 87.45 -73.5 L87.45 -73.2 87.35 -72.65 Q86.1 -70.75 85.55 -68.6 L85.15 -68.05 85.15 -67.75 85.25 -66.9 Q95.05 -65.2 102.85 -59.15 101.65 -58.35 100.15 -57.85 96.95 -56.9 93.7 -56.3 88.75 -55.4 84.75 -52.75 L84.8 -52.45 85.15 -49.0 85.35 -48.7 Q86.45 -46.6 85.45 -44.4 L84.75 -44.3 Q82.5 -45.65 80.35 -47.15 78.2 -48.6 75.75 -48.9 74.05 -49.15 73.05 -48.25 L64.85 -40.6 64.0 -40.6 Q62.6 -41.9 61.6 -43.45 L60.35 -44.05 Q58.9 -46.2 55.85 -45.45 54.9 -45.2 54.15 -44.65 L46.7 -39.65 Q45.45 -40.2 44.7 -41.2 43.6 -42.7 41.7 -42.7 35.85 -42.75 31.45 -39.15 L28.0 -38.0 Q27.7 -38.35 27.65 -38.85 L26.95 -43.45 Q26.65 -44.05 26.0 -44.2 20.75 -42.05 15.5 -42.6 15.8 -45.45 14.25 -47.85 L13.5 -48.3 -5.95 -47.65 -5.95 -48.15 -5.95 -50.75 Q-6.25 -51.35 -6.9 -51.35 L-23.15 -51.8 -23.15 -52.65 -23.15 -57.25 Q-21.2 -58.1 -19.75 -59.7 L-19.45 -60.3 Q-19.25 -63.6 -18.2 -66.6 L-12.95 -67.25 -12.45 -67.55 -12.45 -67.85 -12.45 -69.3 Q-11.9 -69.95 -11.65 -70.7 -10.75 -73.2 -10.55 -75.8 L-8.35 -73.9 Q-4.95 -70.7 -2.0 -73.5 L-0.75 -74.05 Q-0.1 -75.45 1.35 -76.2 L7.7 -76.8 Q8.25 -76.9 8.2 -77.4 L7.05 -79.2 Q4.1 -82.75 0.55 -85.75 3.05 -87.95 6.3 -88.8 L6.7 -89.3 Q7.75 -89.55 8.2 -90.55 8.45 -92.35 7.6 -93.95 L3.05 -101.75 Q5.35 -102.25 6.9 -103.75 9.5 -104.85 11.25 -107.0 14.1 -110.45 10.3 -112.45 L9.55 -113.9 Q6.15 -115.9 4.5 -119.6 3.9 -121.0 2.25 -121.25 L-3.0 -121.8 Q0.3 -123.7 2.4 -126.7 2.65 -128.3 1.5 -129.55 L0.65 -130.45 0.6 -130.7 0.3 -131.6 -0.2 -131.85 -1.35 -134.45 -0.4 -134.7 Q4.3 -134.85 8.1 -137.05 9.15 -139.2 9.1 -141.6 L9.0 -148.5 9.75 -148.5 Q13.6 -145.25 18.25 -147.1 L18.4 -147.4 19.7 -150.8 22.3 -148.9 Q23.6 -147.25 23.75 -145.2 L24.0 -138.85 24.75 -138.75 Q28.05 -140.05 31.55 -140.1 31.75 -137.95 32.9 -136.0 34.8 -132.85 35.5 -129.3 L37.45 -129.25 43.8 -136.05 Q44.9 -136.65 45.45 -137.8 L46.1 -137.8 Q48.35 -134.0 52.05 -134.55 L52.95 -136.35 Q54.55 -139.05 56.65 -141.35 59.05 -139.7 60.35 -137.3 L62.0 -136.15 62.9 -136.05 Q65.35 -137.5 67.95 -138.3 L68.0 -138.1 68.9 -137.6 69.25 -137.7 69.45 -137.8 69.65 -138.0 69.75 -138.25 70.5 -139.4 70.6 -139.7 70.6 -140.0 71.65 -140.85 71.75 -141.15 71.95 -141.7 Q72.95 -142.25 73.55 -143.15 L73.65 -143.45 73.65 -143.75 75.95 -146.05 75.95 -145.45 76.05 -140.0 Q76.95 -139.1 78.2 -139.65 84.8 -142.4 91.65 -144.2 90.5 -141.15 87.9 -138.7 85.2 -136.15 83.25 -133.4" fill="#ffff00" fill-opacity="0.5019608" fill-rule="evenodd" stroke="none"/>
  </g>
</svg>
