<?xml version="1.0" encoding="UTF-8" standalone="no"?>
<svg xmlns:ffdec="https://www.free-decompiler.com/flash" xmlns:xlink="http://www.w3.org/1999/xlink" ffdec:objectType="shape" height="87.55px" width="91.35px" xmlns="http://www.w3.org/2000/svg">
  <g transform="matrix(1.0, 0.0, 0.0, 1.0, 10.55, 138.85)">
    <path d="M16.9 -138.8 L16.9 -138.85 Q21.45 -138.05 19.2 -134.15 L15.65 -127.3 23.4 -123.3 Q27.9 -120.8 30.55 -116.55 31.1 -115.7 30.5 -114.85 L29.75 -113.95 29.6 -113.75 26.7 -109.15 26.55 -108.95 32.3 -112.35 37.95 -115.45 Q40.75 -116.9 42.9 -119.1 43.45 -119.6 44.15 -119.85 47.9 -121.1 51.15 -123.6 L56.75 -128.35 Q59.05 -130.5 61.85 -131.15 65.05 -129.9 66.4 -126.4 67.1 -124.5 68.05 -122.7 69.15 -120.5 66.85 -119.4 64.45 -118.25 62.65 -120.25 61.5 -121.55 60.9 -123.2 L60.85 -123.4 60.5 -123.5 Q54.55 -118.9 48.2 -115.25 35.8 -108.15 24.0 -100.25 22.6 -99.3 21.0 -98.8 L20.9 -97.0 20.8 -95.35 Q20.95 -86.7 22.1 -78.35 23.5 -74.35 25.15 -70.4 L26.05 -71.45 Q29.5 -74.9 34.4 -74.9 39.3 -74.9 42.75 -71.45 46.2 -68.0 46.2 -63.1 L46.2 -62.8 62.45 -63.3 Q68.3 -63.55 73.95 -65.3 L74.9 -66.05 Q75.7 -66.6 76.45 -66.65 82.1 -66.5 80.45 -61.2 79.9 -59.45 78.0 -59.25 L63.1 -57.3 61.75 -57.2 44.6 -57.05 42.75 -54.75 Q40.1 -52.1 36.6 -51.45 L35.5 -51.75 Q32.75 -50.65 29.45 -52.35 L29.3 -52.05 28.5 -52.7 28.05 -53.25 26.5 -55.15 25.65 -55.95 24.35 -56.85 24.15 -57.15 -5.25 -56.05 Q-7.0 -55.0 -8.9 -55.85 -9.7 -56.2 -10.2 -56.9 -10.55 -57.45 -10.55 -58.1 L-10.3 -60.9 Q-9.8 -63.05 -7.65 -63.15 -6.35 -63.35 -5.25 -62.6 L-4.9 -62.3 21.5 -62.4 Q21.05 -63.65 20.75 -64.95 L20.55 -65.6 Q16.85 -73.85 15.85 -82.9 15.25 -88.3 14.8 -93.8 L14.5 -99.0 Q14.45 -100.35 14.95 -101.3 15.0 -102.25 15.6 -103.2 L20.55 -111.25 Q21.85 -113.55 23.6 -115.4 19.4 -118.85 14.45 -120.95 12.1 -122.0 10.75 -123.8 8.9 -124.9 9.65 -127.4 11.6 -133.8 16.1 -138.4 16.4 -138.7 16.9 -138.8" fill="#000000" fill-rule="evenodd" stroke="none"/>
  </g>
</svg>
