<?xml version="1.0" encoding="UTF-8" standalone="no"?>
<svg xmlns:ffdec="https://www.free-decompiler.com/flash" xmlns:xlink="http://www.w3.org/1999/xlink" ffdec:objectType="shape" height="90.55px" width="101.25px" xmlns="http://www.w3.org/2000/svg">
  <g transform="matrix(1.0, 0.0, 0.0, 1.0, 21.15, 141.9)">
    <path d="M38.45 -141.9 Q43.05 -142.0 41.85 -138.0 41.4 -136.3 39.6 -135.75 L37.55 -135.2 Q39.05 -133.3 41.75 -131.65 46.05 -129.05 49.25 -125.05 50.15 -123.9 50.35 -122.5 51.0 -118.1 46.65 -116.3 43.65 -115.05 40.35 -114.15 L42.45 -114.1 43.15 -114.05 58.1 -114.15 59.2 -114.15 Q66.95 -114.2 74.7 -113.85 76.35 -113.8 76.9 -112.25 78.8 -106.95 78.0 -101.35 77.9 -100.6 77.2 -100.25 73.8 -98.8 72.9 -102.3 72.45 -104.25 72.45 -106.3 L72.25 -106.55 71.75 -107.45 71.65 -107.75 71.55 -108.0 60.05 -108.15 58.8 -108.15 29.05 -108.3 28.45 -107.25 Q26.95 -104.85 26.6 -101.95 25.25 -90.85 26.5 -79.8 L27.4 -73.8 Q29.7 -74.95 32.5 -74.95 37.4 -74.95 40.85 -71.5 43.0 -69.35 43.8 -66.65 L58.6 -68.35 66.95 -68.8 68.0 -68.95 Q74.1 -69.65 79.0 -66.7 80.25 -65.95 80.1 -64.4 79.6 -59.5 74.15 -60.35 71.95 -60.65 71.4 -62.7 61.45 -63.3 51.35 -61.55 L44.15 -61.0 Q43.5 -57.45 40.85 -54.8 38.2 -52.15 34.7 -51.5 L33.6 -51.8 Q30.85 -50.7 27.55 -52.4 L27.4 -52.1 26.6 -52.75 26.15 -53.3 Q24.65 -55.6 22.45 -56.9 21.8 -57.95 21.4 -59.1 L7.75 -61.05 1.2 -61.9 -5.65 -62.35 -17.15 -62.9 Q-21.8 -63.25 -21.05 -68.0 -20.65 -70.6 -18.05 -70.85 -14.75 -71.65 -13.15 -69.1 L-13.05 -68.85 11.85 -66.6 20.85 -65.1 Q21.15 -67.15 22.2 -68.9 20.1 -78.95 20.1 -89.3 L20.3 -100.25 Q20.4 -103.8 21.25 -107.2 22.0 -110.15 24.1 -112.0 24.3 -113.5 26.35 -114.55 34.75 -118.8 43.6 -121.65 40.1 -126.9 34.05 -129.6 29.2 -131.75 30.9 -136.2 31.7 -138.3 33.6 -139.55 36.0 -141.15 38.45 -141.9" fill="#000000" fill-rule="evenodd" stroke="none"/>
  </g>
</svg>
