<?xml version="1.0" encoding="UTF-8" standalone="no"?>
<svg xmlns:ffdec="https://www.free-decompiler.com/flash" xmlns:xlink="http://www.w3.org/1999/xlink" ffdec:objectType="shape" height="116.4px" width="135.0px" xmlns="http://www.w3.org/2000/svg">
  <g transform="matrix(1.0, 0.0, 0.0, 1.0, 33.8, 147.25)">
    <path d="M93.45 -138.95 L93.75 -137.8 Q94.1 -136.0 92.8 -134.65 L92.8 -134.35 92.7 -133.85 Q90.95 -134.75 90.5 -133.1 L90.55 -132.85 Q91.85 -131.15 93.85 -131.0 97.85 -129.0 101.2 -126.2 95.7 -124.9 90.9 -122.5 L90.9 -122.2 90.9 -121.35 91.15 -121.05 97.7 -114.45 Q91.9 -114.0 87.05 -111.4 L87.05 -111.1 87.05 -110.25 87.35 -109.95 Q89.15 -108.15 90.4 -105.95 87.3 -105.15 84.45 -103.5 83.3 -102.8 82.95 -101.65 81.85 -97.55 82.35 -93.2 L80.95 -93.45 Q76.5 -95.6 72.15 -94.15 L72.15 -93.6 72.15 -91.6 72.6 -91.0 Q74.55 -88.05 76.75 -85.55 L76.7 -85.25 76.8 -84.1 Q77.45 -83.8 77.3 -83.25 L77.15 -82.95 Q76.55 -81.65 75.6 -80.7 L75.6 -80.4 75.6 -80.1 75.4 -79.8 75.2 -79.55 75.2 -79.25 75.3 -78.4 Q81.7 -76.3 87.45 -72.95 L87.45 -72.65 87.45 -72.05 87.25 -71.8 87.05 -71.5 87.05 -71.2 87.05 -70.9 85.9 -69.5 85.9 -69.2 Q85.6 -68.05 84.75 -67.2 L84.75 -66.6 Q84.65 -65.7 84.95 -64.9 L85.55 -64.35 Q89.25 -61.25 91.65 -57.45 88.8 -57.25 86.5 -55.7 86.15 -55.05 86.2 -54.25 L86.3 -50.55 86.55 -50.25 86.7 -49.95 86.65 -48.8 86.7 -45.95 85.0 -46.25 Q80.95 -47.2 79.4 -43.85 L78.95 -41.2 Q78.2 -38.45 78.15 -35.5 L77.85 -35.25 77.85 -34.95 77.7 -34.65 76.9 -35.6 Q73.5 -40.45 68.8 -43.55 L67.75 -44.3 66.85 -44.25 Q63.4 -41.9 61.15 -38.2 L60.65 -39.25 Q59.2 -41.5 58.35 -43.85 58.05 -44.45 57.5 -44.3 52.8 -43.05 51.75 -38.2 L51.55 -37.9 51.0 -37.05 50.4 -37.05 48.2 -38.9 Q44.5 -41.9 43.05 -37.15 L42.95 -36.6 Q42.15 -34.2 40.2 -32.55 L38.05 -32.15 37.45 -32.65 34.85 -34.15 32.0 -35.5 29.95 -36.35 Q26.4 -37.6 22.85 -36.25 17.4 -34.2 12.8 -30.85 L12.65 -35.0 Q12.3 -39.1 11.3 -43.1 10.5 -44.2 9.0 -44.05 7.5 -45.3 5.55 -45.55 L5.3 -45.9 4.75 -46.7 4.75 -47.3 4.75 -48.15 5.0 -48.4 Q6.1 -49.2 6.3 -50.45 L7.35 -51.3 Q7.5 -52.15 8.0 -52.85 10.35 -56.3 6.5 -58.5 5.85 -59.8 4.3 -59.7 L4.2 -59.9 3.65 -60.5 Q3.65 -61.9 3.95 -63.3 4.6 -66.1 4.4 -69.1 L4.15 -69.35 3.6 -69.5 Q-3.1 -66.35 -10.35 -66.7 -11.15 -68.45 -11.0 -70.45 -10.7 -74.25 -11.3 -77.9 -11.95 -78.75 -13.05 -79.0 L-17.25 -80.2 Q-25.85 -82.8 -33.7 -87.0 L-33.8 -87.3 -33.7 -87.85 -32.8 -88.2 Q-30.0 -88.45 -28.25 -90.35 L-28.15 -91.5 Q-28.35 -93.8 -30.05 -95.5 L-30.05 -96.1 -30.05 -96.95 -29.65 -97.25 -27.55 -97.15 Q-23.75 -96.15 -20.1 -95.7 L-19.8 -96.2 -18.55 -98.2 -18.35 -98.9 Q-17.3 -100.6 -16.75 -102.5 L-16.5 -102.8 Q-15.05 -104.6 -13.7 -105.45 L-13.65 -105.15 -13.6 -104.9 Q-11.65 -102.05 -10.1 -98.9 -9.7 -98.05 -8.85 -98.15 -4.85 -98.75 -1.05 -99.9 1.3 -93.95 4.4 -88.35 4.8 -87.6 5.65 -87.8 9.75 -88.65 12.45 -92.25 L14.6 -91.5 Q18.5 -88.95 22.85 -89.3 23.35 -90.5 23.0 -91.85 22.1 -95.6 20.45 -99.05 L20.45 -99.35 20.45 -99.9 Q24.3 -98.95 27.95 -99.35 L28.0 -99.6 28.5 -100.5 28.5 -103.35 28.6 -109.4 32.35 -109.5 33.25 -111.25 Q35.15 -115.15 38.05 -118.3 L38.85 -118.3 41.3 -116.35 Q42.55 -115.3 43.9 -114.35 44.4 -114.0 45.05 -114.15 50.15 -115.7 52.6 -120.95 L53.75 -120.95 58.25 -117.9 Q61.05 -116.2 63.8 -116.45 64.25 -117.1 64.3 -117.9 64.6 -121.0 62.35 -122.8 61.8 -124.3 60.35 -125.05 L60.2 -125.6 Q59.65 -126.5 60.0 -127.35 61.55 -128.5 63.45 -129.1 L63.65 -129.7 Q63.8 -130.4 63.5 -131.1 62.8 -131.5 62.2 -132.0 59.05 -134.6 59.2 -138.3 62.15 -138.5 64.95 -139.2 66.6 -139.6 67.45 -141.25 L67.6 -142.1 67.9 -144.4 Q69.85 -142.7 72.05 -141.35 74.0 -138.55 76.05 -141.25 L76.5 -141.55 Q79.85 -143.9 82.25 -147.25 83.0 -146.7 83.45 -145.2 84.3 -142.4 84.0 -139.4 87.0 -137.15 90.6 -139.35 92.35 -139.9 93.45 -138.95" fill="#ffff00" fill-opacity="0.5019608" fill-rule="evenodd" stroke="none"/>
  </g>
</svg>
