<?xml version="1.0" encoding="UTF-8" standalone="no"?>
<svg xmlns:ffdec="https://www.free-decompiler.com/flash" xmlns:xlink="http://www.w3.org/1999/xlink" ffdec:objectType="shape" height="82.55px" width="100.15px" xmlns="http://www.w3.org/2000/svg">
  <g transform="matrix(1.0, 0.0, 0.0, 1.0, 16.9, 133.85)">
    <path d="M81.3 -128.05 Q79.1 -127.2 76.65 -127.5 L77.3 -111.7 Q77.45 -108.3 76.05 -105.5 75.5 -104.3 74.15 -104.35 L53.7 -104.45 Q54.6 -103.3 55.2 -101.8 L58.6 -93.6 Q59.15 -92.25 59.0 -90.75 L59.35 -90.15 59.55 -89.6 59.6 -89.6 59.6 -89.4 Q61.0 -88.3 61.95 -86.55 63.65 -83.5 66.05 -80.9 71.9 -74.6 75.2 -66.95 75.6 -66.0 75.15 -65.05 73.15 -60.6 68.6 -60.55 67.15 -60.5 66.75 -61.9 65.85 -64.7 68.55 -66.5 L69.05 -67.0 Q63.0 -75.85 56.1 -83.9 L56.0 -84.0 Q55.1 -84.3 54.75 -85.3 L52.25 -92.7 Q50.8 -97.2 48.15 -101.25 L47.6 -102.3 Q42.85 -100.0 39.6 -95.65 34.45 -88.8 29.7 -81.8 L28.7 -80.3 Q34.6 -78.9 40.0 -75.7 45.0 -72.7 50.1 -70.25 55.45 -67.7 60.6 -64.45 L61.55 -64.0 Q67.5 -62.0 70.75 -57.05 71.4 -56.1 71.3 -54.9 70.95 -50.85 66.5 -51.75 62.9 -52.55 63.5 -56.45 55.3 -60.5 47.45 -64.95 L36.45 -70.8 Q39.3 -67.55 39.3 -63.1 39.3 -58.2 35.85 -54.75 33.2 -52.1 29.7 -51.45 L28.6 -51.75 Q25.85 -50.65 22.55 -52.35 L22.4 -52.05 21.6 -52.7 21.15 -53.25 Q19.65 -55.55 17.45 -56.85 15.7 -59.6 15.7 -63.1 15.7 -67.25 18.15 -70.35 L18.8 -73.15 Q14.3 -75.1 9.45 -76.2 L-0.6 -78.35 Q-7.9 -79.85 -14.35 -83.3 -16.5 -84.45 -16.8 -86.8 -17.4 -90.8 -13.8 -91.6 -9.9 -91.2 -9.05 -87.55 L-9.0 -87.25 Q2.2 -83.4 13.9 -81.1 L19.0 -79.95 21.25 -79.15 Q26.8 -87.6 32.7 -95.85 35.35 -99.65 38.5 -102.95 41.75 -106.35 46.0 -108.4 L48.05 -108.9 48.2 -108.9 Q50.7 -110.7 53.9 -110.4 L54.95 -110.35 71.3 -110.6 70.6 -126.45 Q70.4 -129.75 71.9 -132.35 72.5 -133.45 73.75 -133.35 L79.9 -133.85 Q84.4 -133.6 82.9 -129.65 82.45 -128.5 81.3 -128.05 M26.15 -76.1 L25.85 -75.55 25.75 -74.85 25.75 -74.75 27.5 -74.9 28.55 -74.85 26.3 -76.0 26.15 -76.1" fill="#000000" fill-rule="evenodd" stroke="none"/>
  </g>
</svg>
