<?xml version="1.0" encoding="UTF-8" standalone="no"?>
<svg xmlns:ffdec="https://www.free-decompiler.com/flash" xmlns:xlink="http://www.w3.org/1999/xlink" ffdec:objectType="shape" height="99.25px" width="130.3px" xmlns="http://www.w3.org/2000/svg">
  <g transform="matrix(1.0, 0.0, 0.0, 1.0, 16.65, 133.7)">
    <path d="M97.75 -116.55 Q96.5 -113.15 97.1 -109.4 106.05 -108.2 113.65 -103.85 108.6 -100.75 103.15 -98.0 L102.95 -97.8 Q102.35 -97.05 102.35 -96.1 L104.3 -93.8 104.3 -93.5 104.4 -92.9 Q105.2 -92.4 105.35 -91.5 100.25 -92.45 96.65 -88.8 95.75 -86.0 94.25 -83.45 91.7 -84.05 89.3 -84.95 85.2 -86.4 81.7 -84.6 L81.7 -84.3 Q81.65 -82.25 82.1 -80.3 L76.55 -78.3 76.4 -78.0 Q76.3 -77.4 76.45 -76.85 L86.5 -71.8 86.85 -70.65 86.75 -70.35 86.6 -69.5 85.9 -68.9 85.9 -68.6 85.8 -68.05 85.55 -67.75 85.55 -67.45 85.55 -66.6 91.25 -60.3 Q91.1 -59.75 90.3 -59.75 85.4 -59.7 81.3 -57.7 L81.45 -54.55 Q81.85 -49.0 83.5 -43.65 80.4 -44.4 78.65 -42.1 76.95 -39.45 76.15 -36.4 75.65 -35.75 75.2 -36.2 72.65 -39.9 68.65 -37.7 64.85 -35.6 61.15 -34.45 59.6 -36.0 59.5 -38.1 58.7 -39.05 58.2 -40.15 57.85 -40.95 57.05 -40.85 L46.0 -39.9 Q45.35 -42.5 43.75 -44.55 40.8 -48.25 37.4 -45.0 35.3 -43.2 33.5 -40.95 L33.45 -40.7 33.3 -40.4 30.95 -42.45 Q30.45 -42.9 29.9 -42.95 25.6 -43.5 23.25 -39.55 L22.55 -39.65 Q20.05 -42.95 17.0 -45.95 L17.0 -46.25 17.0 -46.5 Q16.7 -47.15 16.05 -47.3 L6.7 -47.85 Q7.35 -52.05 5.25 -55.5 L5.2 -55.8 5.15 -56.1 4.6 -56.45 Q-3.0 -58.55 -9.4 -62.8 -8.1 -66.2 -4.05 -67.0 L-2.9 -68.35 -2.75 -69.75 Q-3.05 -75.4 -6.7 -79.8 L-5.9 -80.05 Q-1.45 -79.65 1.6 -81.9 L1.75 -82.8 Q1.8 -83.35 1.45 -83.75 L-6.3 -92.55 -4.6 -95.4 Q-3.6 -95.95 -3.0 -96.85 L-2.9 -97.15 -2.9 -98.55 Q-4.25 -99.6 -5.9 -100.3 -11.8 -102.8 -16.25 -106.8 L-16.25 -107.1 Q-16.2 -108.15 -16.65 -109.1 -13.55 -111.05 -11.0 -113.7 L-10.8 -115.1 Q-10.3 -120.75 -13.6 -125.15 L-11.2 -124.65 Q-8.2 -123.55 -5.95 -125.0 L-5.95 -125.25 Q-6.65 -129.25 -6.25 -133.3 L-5.95 -133.6 -5.85 -133.65 -5.45 -133.7 Q-2.75 -131.6 0.1 -129.75 L0.15 -129.45 0.3 -128.9 1.35 -128.05 1.2 -127.8 Q0.8 -127.45 0.95 -126.9 1.7 -126.0 3.05 -125.75 L3.4 -125.9 3.8 -126.1 3.9 -126.4 4.1 -127.55 5.45 -129.0 7.45 -129.0 8.05 -128.25 8.55 -126.6 Q9.75 -121.3 9.1 -115.9 L9.95 -115.6 Q11.05 -115.45 11.95 -116.15 14.15 -118.0 16.25 -117.4 L16.3 -116.55 16.35 -115.7 Q16.05 -110.85 16.35 -105.95 L18.35 -105.85 Q20.95 -109.2 24.85 -109.95 27.45 -106.35 30.6 -103.45 30.9 -102.6 31.75 -102.4 35.3 -105.2 36.65 -109.55 37.5 -111.45 39.1 -111.85 L40.45 -110.8 41.05 -109.95 Q41.9 -109.15 42.9 -108.55 44.7 -107.45 46.75 -106.9 47.85 -106.65 48.7 -107.15 52.4 -109.35 55.6 -112.35 L55.65 -112.05 55.75 -110.9 Q57.25 -110.3 58.4 -109.15 L60.05 -106.95 Q62.65 -102.25 66.35 -106.15 69.15 -109.1 72.4 -111.5 75.35 -108.85 77.8 -111.4 L79.8 -120.0 80.15 -120.2 87.25 -120.0 87.35 -120.3 87.55 -121.15 Q88.1 -121.85 88.4 -121.8 89.75 -119.4 89.85 -116.65 90.5 -115.95 91.45 -116.25 95.0 -117.35 97.75 -116.85 L97.75 -116.55" fill="#ffff00" fill-opacity="0.5019608" fill-rule="evenodd" stroke="none"/>
  </g>
</svg>
