<?xml version="1.0" encoding="UTF-8" standalone="no"?>
<svg xmlns:ffdec="https://www.free-decompiler.com/flash" xmlns:xlink="http://www.w3.org/1999/xlink" ffdec:objectType="shape" height="67.15px" width="100.9px" xmlns="http://www.w3.org/2000/svg">
  <g transform="matrix(1.0, 0.0, 0.0, 1.0, 4.05, 117.8)">
    <path d="M84.6 -108.55 Q84.8 -110.1 86.05 -110.95 87.0 -111.65 88.05 -111.5 93.05 -108.6 96.4 -103.45 97.5 -101.8 96.0 -100.4 L91.45 -100.5 Q89.9 -101.9 88.75 -103.55 83.95 -96.15 76.7 -90.5 L75.75 -89.8 Q72.55 -87.35 68.3 -89.25 62.9 -91.6 58.05 -94.5 L56.6 -95.3 56.5 -95.05 Q55.85 -93.1 55.7 -91.1 55.25 -86.25 53.9 -81.75 L54.0 -81.75 Q53.45 -80.7 53.5 -79.2 L53.5 -79.1 56.0 -77.45 Q58.4 -75.55 61.05 -74.15 66.55 -71.15 72.1 -68.3 75.2 -66.7 77.3 -64.05 77.9 -63.25 78.0 -62.2 78.4 -54.75 72.25 -50.85 L70.75 -50.95 Q67.5 -53.3 70.25 -56.5 71.85 -58.45 72.05 -60.85 62.9 -66.9 52.9 -71.7 50.4 -72.95 49.15 -75.0 48.05 -75.25 47.3 -76.3 45.85 -78.35 47.3 -79.55 L47.45 -80.25 Q49.35 -87.15 50.35 -94.35 41.5 -91.85 33.45 -87.2 30.45 -85.55 28.15 -82.95 L27.25 -82.05 Q32.75 -80.3 37.4 -76.6 39.55 -74.9 42.0 -73.6 50.85 -68.9 58.15 -62.25 61.5 -59.3 62.75 -55.25 63.2 -53.75 61.9 -52.8 58.95 -50.75 56.1 -53.3 54.7 -54.65 55.05 -56.5 52.75 -59.8 49.4 -61.85 L47.0 -63.6 31.45 -73.05 Q32.5 -70.35 32.1 -67.2 31.45 -62.35 27.55 -59.4 24.55 -57.15 21.0 -57.0 L19.95 -57.45 Q17.1 -56.7 14.05 -58.85 L13.85 -58.55 13.15 -59.3 12.8 -59.9 Q11.6 -62.4 9.6 -63.95 8.25 -66.95 8.75 -70.4 9.3 -74.65 12.35 -77.4 13.7 -79.65 16.25 -81.25 L16.45 -81.35 Q10.8 -85.95 6.0 -91.3 3.9 -93.6 2.9 -96.5 L1.6 -99.4 Q-2.1 -105.85 -3.85 -112.85 L-4.05 -114.45 Q-3.8 -117.8 -0.6 -117.8 4.5 -117.5 3.75 -112.85 3.55 -111.75 2.65 -111.0 L9.55 -97.15 10.1 -95.45 Q15.3 -89.95 21.15 -85.05 L25.4 -88.2 Q30.6 -93.8 38.05 -96.55 42.0 -98.1 46.1 -99.45 L49.6 -100.4 Q49.6 -101.15 50.15 -101.9 51.95 -104.35 54.75 -102.75 60.55 -99.35 66.7 -96.55 L67.85 -96.0 Q70.0 -94.95 72.4 -94.8 L76.9 -98.9 78.5 -100.1 80.75 -102.75 82.1 -104.25 Q82.55 -105.65 83.4 -106.85 L84.2 -108.05 84.6 -108.55" fill="#000000" fill-rule="evenodd" stroke="none"/>
  </g>
</svg>
