<?xml version="1.0" encoding="UTF-8" standalone="no"?>
<svg xmlns:ffdec="https://www.free-decompiler.com/flash" xmlns:xlink="http://www.w3.org/1999/xlink" ffdec:objectType="shape" height="128.7px" width="127.0px" xmlns="http://www.w3.org/2000/svg">
  <g transform="matrix(1.0, 0.0, 0.0, 1.0, 17.05, 145.55)">
    <path d="M13.95 -138.95 L13.95 -138.75 Q14.5 -135.3 12.8 -132.45 L12.8 -132.15 12.7 -131.6 11.65 -130.45 11.65 -130.15 11.75 -129.3 Q14.0 -128.1 16.25 -128.3 L16.25 -127.45 15.85 -120.3 Q16.2 -119.8 16.7 -119.75 L24.85 -119.0 Q26.3 -118.9 27.35 -118.35 L27.45 -117.55 Q28.15 -114.0 28.1 -110.35 L28.5 -109.75 28.5 -109.5 28.6 -108.6 29.45 -108.15 Q33.6 -109.75 38.0 -109.0 L39.25 -106.8 42.75 -98.65 43.55 -98.5 53.1 -99.45 Q53.5 -99.0 54.05 -98.85 L54.05 -98.65 54.25 -97.5 55.0 -96.95 56.15 -94.05 56.6 -93.45 Q56.8 -92.95 57.15 -93.0 L67.55 -93.7 67.6 -92.55 Q67.95 -88.8 68.7 -85.1 69.5 -83.65 70.9 -84.35 73.6 -85.7 75.95 -85.15 77.0 -83.7 79.0 -84.6 79.55 -85.3 79.55 -86.25 79.45 -90.45 81.05 -93.7 L84.15 -91.1 Q85.05 -90.25 86.15 -90.0 90.2 -89.0 93.3 -92.15 95.35 -88.75 96.7 -85.25 L97.6 -85.05 Q103.05 -85.15 107.75 -84.1 L107.65 -83.55 Q106.65 -79.35 103.9 -75.8 L103.9 -75.5 103.9 -74.65 104.55 -73.85 Q106.75 -69.55 109.95 -65.75 L109.65 -65.45 104.15 -64.95 Q101.5 -64.65 101.1 -62.35 100.35 -58.45 101.2 -54.35 95.25 -59.1 88.0 -61.85 87.2 -61.6 86.7 -60.85 L86.7 -60.6 Q86.8 -57.8 86.3 -55.15 83.35 -54.95 81.3 -53.4 L81.3 -52.55 Q81.25 -48.55 83.25 -45.1 L75.6 -42.9 Q75.4 -39.55 78.25 -37.7 L78.25 -37.45 78.25 -37.15 Q79.55 -36.25 79.4 -34.85 77.0 -34.7 75.0 -33.75 69.45 -31.1 66.75 -25.65 66.9 -24.5 66.0 -23.65 L65.95 -23.4 Q65.45 -22.3 65.65 -21.05 L65.9 -20.6 Q58.55 -22.4 54.15 -16.85 L53.0 -16.85 52.75 -17.2 Q46.85 -19.9 40.35 -19.9 L40.35 -20.1 Q40.55 -23.3 39.2 -26.15 41.85 -28.3 41.9 -31.6 39.35 -33.7 37.9 -36.2 L38.0 -36.5 38.15 -37.6 Q39.85 -39.05 40.55 -41.05 43.9 -43.1 45.35 -46.5 44.45 -47.75 42.75 -47.5 39.45 -49.45 36.65 -52.0 L32.8 -55.8 Q32.6 -56.65 31.75 -56.85 31.15 -56.75 30.8 -56.3 L30.5 -54.05 Q29.5 -50.05 29.45 -45.95 27.6 -47.3 25.3 -47.0 23.9 -46.8 23.85 -45.35 L23.45 -34.85 21.9 -36.1 21.05 -36.35 4.75 -36.85 4.85 -38.3 Q5.4 -42.25 4.4 -46.0 4.1 -47.15 3.25 -47.8 1.8 -48.85 1.35 -49.85 5.1 -52.85 2.15 -57.3 0.1 -60.35 -0.5 -63.65 0.45 -64.1 1.35 -64.7 3.5 -65.2 5.35 -66.4 L5.9 -67.55 5.9 -67.85 5.9 -68.7 Q5.05 -70.0 3.35 -69.6 -0.65 -71.1 -4.05 -73.5 L-4.05 -74.65 Q-4.05 -75.4 -3.55 -75.85 -0.6 -78.6 -0.2 -82.1 -0.55 -82.7 -1.15 -82.95 -3.5 -85.7 -6.9 -87.3 L-8.25 -89.3 -8.25 -89.55 -8.45 -90.15 Q-9.8 -92.15 -10.05 -94.75 L-9.4 -95.9 -9.4 -96.2 -9.4 -96.75 -5.95 -99.35 -5.95 -99.6 -6.3 -101.05 Q-3.25 -101.35 -0.95 -103.15 -0.9 -103.75 -1.35 -104.0 -7.3 -107.1 -13.5 -109.85 L-14.0 -110.7 -13.85 -112.4 -13.4 -114.8 Q-12.4 -118.75 -13.1 -122.8 L-17.05 -125.65 Q-16.3 -126.25 -15.8 -127.1 -14.55 -127.8 -13.6 -128.8 L-13.8 -129.9 Q-15.15 -133.45 -15.15 -137.4 L-9.0 -138.2 Q-6.9 -138.55 -6.3 -140.65 L-6.35 -140.95 Q-6.55 -143.35 -5.95 -145.55 -2.2 -143.65 0.55 -140.0 L0.55 -139.7 0.65 -137.7 Q1.95 -136.6 2.75 -137.9 8.2 -139.2 13.95 -138.95" fill="#ffff00" fill-opacity="0.5019608" fill-rule="evenodd" stroke="none"/>
  </g>
</svg>
