<?xml version="1.0" encoding="UTF-8" standalone="no"?>
<svg xmlns:ffdec="https://www.free-decompiler.com/flash" xmlns:xlink="http://www.w3.org/1999/xlink" ffdec:objectType="shape" height="105.6px" width="105.05px" xmlns="http://www.w3.org/2000/svg">
  <g transform="matrix(1.0, 0.0, 0.0, 1.0, 7.4, 133.05)">
    <path d="M19.8 -104.1 Q22.85 -101.05 24.55 -97.2 L24.95 -96.1 Q29.8 -95.35 34.55 -93.9 45.2 -90.65 55.15 -85.75 57.5 -84.55 58.55 -82.2 61.55 -80.3 62.9 -76.6 64.3 -72.6 66.6 -69.1 L67.65 -67.2 Q68.8 -64.55 70.5 -62.25 79.0 -70.0 83.75 -80.2 84.65 -82.1 86.8 -81.65 89.65 -81.0 91.8 -78.95 L96.35 -74.55 Q99.25 -71.75 95.8 -69.8 94.3 -68.95 92.95 -70.05 L87.4 -74.35 Q81.55 -64.15 72.7 -56.35 69.05 -53.05 66.7 -56.9 64.05 -61.15 61.7 -65.5 L59.45 -69.65 57.45 -73.5 53.6 -66.55 49.15 -58.45 Q50.45 -57.35 51.4 -55.6 52.7 -53.15 54.65 -51.1 59.75 -45.7 64.4 -40.0 64.8 -39.5 64.6 -38.8 63.5 -35.15 60.25 -32.7 L55.6 -28.7 Q53.0 -26.2 50.6 -28.8 49.15 -30.4 50.55 -32.05 52.25 -34.15 54.35 -35.8 56.25 -37.25 57.95 -38.95 50.3 -46.45 44.3 -55.15 L43.1 -55.8 Q41.85 -56.6 42.2 -58.1 42.85 -60.7 44.4 -63.1 49.4 -70.8 53.45 -78.9 L53.25 -79.05 Q46.65 -83.95 38.65 -86.05 L35.9 -86.9 30.8 -88.45 30.6 -87.4 Q28.3 -76.6 26.3 -65.85 24.75 -57.55 19.5 -50.85 19.75 -45.35 13.9 -46.5 10.1 -47.2 11.35 -51.05 12.3 -53.85 15.05 -55.3 L15.85 -56.05 Q18.65 -60.7 20.4 -65.8 L20.55 -66.1 22.95 -78.8 22.0 -77.8 Q19.35 -75.15 15.85 -74.5 L14.75 -74.8 Q12.0 -73.7 8.7 -75.4 L8.55 -75.1 7.75 -75.75 7.3 -76.3 Q5.8 -78.6 3.6 -79.9 1.85 -82.65 1.85 -86.15 1.85 -91.05 5.3 -94.5 8.75 -97.95 13.65 -97.95 L17.3 -97.4 6.95 -110.35 Q3.25 -114.8 -1.6 -117.95 -4.2 -119.6 -6.05 -122.1 -7.6 -124.15 -7.4 -126.9 -7.3 -128.6 -6.55 -130.0 L-6.25 -130.45 Q-6.1 -131.7 -4.4 -132.65 L-3.45 -133.05 Q1.35 -132.25 0.5 -126.95 0.35 -125.8 -0.45 -124.9 8.3 -118.55 14.8 -109.9 17.1 -106.85 19.8 -104.1 M25.0 -89.8 L24.9 -89.8 24.95 -89.7 25.0 -89.8" fill="#000000" fill-rule="evenodd" stroke="none"/>
  </g>
</svg>
