<?xml version="1.0" encoding="UTF-8" standalone="no"?>
<svg xmlns:ffdec="https://www.free-decompiler.com/flash" xmlns:xlink="http://www.w3.org/1999/xlink" ffdec:objectType="shape" height="111.85px" width="86.6px" xmlns="http://www.w3.org/2000/svg">
  <g transform="matrix(1.0, 0.0, 0.0, 1.0, 13.05, 138.4)">
    <path d="M27.4 -133.5 L26.9 -132.35 Q32.9 -124.6 36.8 -115.8 L36.95 -114.5 Q35.85 -109.2 34.1 -104.05 32.25 -98.8 30.75 -93.6 L35.95 -88.35 Q42.15 -81.85 46.35 -74.15 L46.55 -74.05 Q48.35 -73.65 48.65 -72.35 49.8 -70.65 49.35 -67.85 49.0 -65.45 49.15 -63.0 49.65 -55.7 47.85 -49.0 52.65 -48.0 57.75 -47.7 L70.5 -47.0 Q71.7 -46.9 72.3 -45.8 73.6 -43.35 73.55 -40.45 73.5 -37.6 73.05 -35.0 72.75 -33.55 71.25 -33.5 67.55 -33.35 67.45 -37.15 L67.45 -41.4 Q55.2 -41.25 43.3 -43.95 42.8 -44.1 42.6 -44.6 41.8 -47.05 42.35 -49.7 43.9 -57.7 43.05 -66.15 L43.0 -66.7 Q40.2 -65.2 37.75 -63.15 35.55 -61.25 33.05 -59.8 L27.95 -56.95 Q27.6 -50.0 28.0 -43.1 28.4 -36.35 29.5 -29.8 29.85 -27.8 27.9 -27.0 26.0 -26.3 24.1 -26.65 18.6 -27.6 13.35 -28.9 12.85 -29.0 12.65 -29.55 11.05 -34.2 16.15 -34.0 L18.75 -33.65 23.25 -33.35 Q22.4 -40.2 22.1 -47.15 21.75 -54.05 22.8 -60.65 L23.2 -61.15 Q31.85 -65.45 39.45 -71.35 L40.8 -72.3 40.95 -72.35 Q36.65 -78.55 31.65 -84.25 L27.95 -88.1 Q24.0 -79.5 19.05 -71.3 L16.35 -66.65 Q15.95 -66.0 15.2 -65.95 L-1.6 -65.4 -6.15 -65.15 Q-11.9 -64.5 -12.95 -69.6 -13.5 -72.35 -11.0 -73.8 -6.85 -76.15 -4.9 -72.3 -4.7 -71.9 -4.8 -71.45 3.05 -71.3 12.2 -71.75 L17.1 -80.2 14.65 -79.45 13.55 -79.75 Q10.8 -78.65 7.5 -80.35 L7.35 -80.05 6.55 -80.7 6.1 -81.25 Q4.6 -83.55 2.4 -84.85 0.65 -87.6 0.65 -91.1 0.65 -96.0 4.1 -99.45 7.55 -102.9 12.45 -102.9 L16.1 -102.35 17.3 -102.65 Q22.1 -101.2 26.1 -97.95 26.7 -102.25 28.4 -106.3 30.15 -110.65 31.05 -115.25 26.1 -123.95 20.1 -131.9 19.25 -133.0 19.3 -134.55 19.45 -137.9 22.7 -138.4 28.0 -138.5 27.4 -133.5" fill="#000000" fill-rule="evenodd" stroke="none"/>
  </g>
</svg>
