<?xml version="1.0" encoding="UTF-8" standalone="no"?>
<svg xmlns:ffdec="https://www.free-decompiler.com/flash" xmlns:xlink="http://www.w3.org/1999/xlink" ffdec:objectType="shape" height="136.15px" width="88.9px" xmlns="http://www.w3.org/2000/svg">
  <g transform="matrix(1.0, 0.0, 0.0, 1.0, 22.7, 135.3)">
    <path d="M36.15 -130.45 L36.25 -131.3 36.75 -131.85 37.2 -132.45 37.45 -133.6 38.05 -135.3 46.2 -128.8 Q46.55 -128.5 46.85 -128.5 50.15 -128.4 53.1 -129.3 L54.25 -126.05 Q54.8 -123.35 56.35 -120.95 L56.4 -120.65 56.45 -120.4 56.55 -120.1 57.4 -119.8 62.2 -119.45 60.5 -115.0 Q59.15 -111.3 60.35 -107.45 62.5 -105.7 65.25 -105.0 64.0 -103.05 63.4 -100.85 62.5 -97.75 63.05 -94.45 L63.25 -94.15 Q64.05 -92.1 66.2 -91.5 L65.8 -91.2 65.45 -90.9 65.3 -90.6 65.2 -90.35 65.05 -90.05 64.7 -89.75 64.1 -89.2 Q64.1 -88.2 64.4 -87.25 L65.25 -83.45 65.9 -82.55 Q66.15 -82.0 65.9 -81.45 63.25 -80.0 60.35 -79.3 56.4 -78.35 53.75 -75.8 L53.75 -74.65 53.75 -73.5 Q54.2 -73.05 54.7 -72.85 57.15 -71.7 58.35 -69.2 L58.35 -68.9 58.35 -68.6 58.25 -68.35 57.85 -68.1 Q57.25 -67.9 56.8 -67.4 56.6 -65.45 57.05 -63.6 57.65 -60.95 57.6 -58.2 L49.8 -57.5 Q48.5 -57.3 47.65 -56.3 L47.65 -55.15 47.65 -54.0 47.9 -53.65 48.0 -53.4 48.0 -53.1 48.0 -52.85 48.0 -52.55 48.75 -51.15 49.55 -48.25 46.5 -46.15 46.5 -44.7 Q46.5 -43.5 46.95 -42.4 L47.4 -41.8 47.65 -40.95 Q48.45 -39.6 49.7 -38.65 54.5 -34.9 57.8 -30.05 L57.45 -29.85 Q54.9 -28.6 52.6 -26.8 L52.6 -25.4 52.7 -23.65 55.2 -20.1 Q57.8 -16.15 59.8 -11.9 L48.2 -12.0 Q47.6 -12.0 47.25 -11.5 L47.25 -9.2 Q47.25 -7.9 47.6 -6.7 48.65 -3.05 48.4 0.85 43.5 -1.45 38.25 -3.25 37.3 -3.1 36.55 -2.6 34.55 -1.2 32.5 -0.6 L32.0 -1.9 Q31.25 -3.65 30.05 -5.1 L30.0 -5.35 29.95 -5.65 29.85 -5.95 Q29.15 -6.5 28.3 -6.6 L19.3 -7.65 19.35 -8.25 19.4 -8.8 20.25 -9.7 Q23.75 -11.85 26.2 -15.15 L26.25 -16.3 Q26.25 -16.9 25.85 -17.15 22.45 -19.15 18.55 -18.75 L18.65 -20.4 Q19.0 -23.1 17.6 -25.15 16.25 -27.2 13.9 -26.3 11.7 -25.45 9.85 -23.85 5.75 -20.35 1.35 -18.3 L0.8 -18.9 Q0.5 -19.25 0.35 -19.75 L0.05 -20.05 Q-1.15 -21.35 -2.7 -22.05 L-4.45 -21.35 Q-7.65 -19.55 -10.55 -20.2 L-8.65 -24.4 Q-7.05 -28.2 -8.6 -32.0 L-9.0 -32.55 Q-11.25 -35.45 -15.15 -35.9 L-15.3 -36.1 -15.55 -36.4 -15.7 -36.65 Q-13.8 -38.75 -11.05 -39.3 -6.9 -40.15 -7.1 -43.85 L-8.15 -45.45 Q-9.5 -48.05 -11.2 -50.15 -7.15 -49.05 -4.1 -51.3 L-3.9 -53.0 Q-3.8 -54.65 -4.8 -55.9 L-4.8 -56.2 -4.85 -56.45 -5.0 -56.75 Q-5.2 -57.3 -4.05 -57.3 0.85 -57.05 1.25 -61.25 L1.0 -61.5 Q-0.05 -62.3 -0.2 -63.0 L0.25 -63.3 2.0 -64.7 2.1 -65.55 2.1 -66.4 1.55 -66.85 Q-0.4 -67.65 -2.5 -67.95 L-20.5 -70.55 -20.35 -75.15 -20.1 -81.75 -20.65 -82.2 -22.7 -83.25 Q-21.75 -85.6 -19.7 -87.1 -15.3 -90.3 -15.2 -95.3 -16.95 -96.5 -17.8 -97.6 -14.1 -99.05 -11.8 -102.2 L-11.6 -103.35 -11.8 -104.5 -12.0 -104.75 -13.1 -105.65 -13.45 -106.2 -14.25 -107.1 -11.05 -108.65 -7.55 -109.95 Q-4.1 -111.0 -4.05 -114.25 L-4.25 -114.55 Q-5.5 -116.05 -7.2 -117.15 L-0.45 -117.75 Q1.45 -118.05 2.5 -119.6 L2.5 -123.05 2.5 -127.65 4.3 -126.3 Q7.65 -123.6 9.75 -119.9 L9.75 -119.6 9.85 -119.35 10.7 -118.85 11.1 -118.95 11.25 -119.05 11.45 -119.25 11.6 -119.7 12.05 -119.75 11.85 -119.6 11.7 -119.3 11.65 -119.05 11.75 -118.8 Q13.6 -116.6 15.4 -119.05 L16.05 -120.6 18.0 -121.15 18.05 -121.45 18.15 -121.75 18.15 -122.0 18.8 -122.95 20.2 -124.9 20.85 -124.9 22.3 -123.05 Q24.1 -120.65 26.6 -120.55 L26.75 -120.7 27.1 -120.6 Q30.0 -118.6 32.05 -122.1 33.15 -122.65 33.55 -123.8 L34.15 -126.3 34.65 -127.0 34.55 -127.25 34.4 -127.45 34.65 -127.8 36.15 -129.55 36.15 -130.45 M23.05 -129.85 L23.1 -129.6 22.95 -129.65 23.05 -129.85" fill="#ffff00" fill-opacity="0.5019608" fill-rule="evenodd" stroke="none"/>
  </g>
</svg>
