<?xml version="1.0" encoding="UTF-8" standalone="no"?>
<svg xmlns:ffdec="https://www.free-decompiler.com/flash" xmlns:xlink="http://www.w3.org/1999/xlink" ffdec:objectType="shape" height="110.9px" width="62.0px" xmlns="http://www.w3.org/2000/svg">
  <g transform="matrix(1.0, 0.0, 0.0, 1.0, 10.5, 121.8)">
    <path d="M3.75 -110.1 Q7.2 -113.55 12.1 -113.55 17.0 -113.55 20.45 -110.1 23.9 -106.65 23.9 -101.75 L23.75 -99.65 23.95 -99.15 25.15 -97.95 34.25 -95.9 40.15 -94.55 Q42.7 -93.8 45.35 -93.4 L44.15 -99.2 42.1 -109.6 Q41.25 -110.6 41.0 -111.85 40.7 -113.0 40.55 -114.2 37.15 -114.6 37.15 -117.95 37.1 -121.3 40.35 -121.8 46.0 -121.15 46.75 -115.2 L47.3 -112.3 Q50.25 -101.75 51.35 -90.8 51.7 -90.1 51.35 -89.05 51.1 -87.9 50.25 -87.45 48.95 -86.25 46.65 -86.65 42.8 -87.3 39.05 -88.55 L31.5 -90.7 Q34.45 -86.85 36.95 -82.6 L38.0 -81.05 Q42.05 -75.65 44.45 -69.45 45.7 -68.5 45.35 -66.9 L45.6 -66.05 Q47.35 -64.85 45.55 -62.15 44.7 -60.85 43.45 -59.9 39.9 -57.15 37.0 -53.6 L30.85 -46.35 Q31.35 -45.25 31.45 -43.75 31.5 -43.0 31.95 -42.3 L40.55 -27.85 Q42.45 -24.45 42.7 -20.9 43.35 -19.95 42.65 -18.4 42.55 -17.5 41.85 -17.15 41.0 -16.0 39.75 -15.15 37.35 -13.5 34.7 -12.45 L31.7 -11.3 Q28.4 -10.0 27.35 -13.15 26.85 -14.6 28.1 -15.45 L34.75 -19.7 36.6 -20.75 Q35.4 -26.9 31.25 -32.05 26.85 -37.5 25.1 -44.3 24.55 -46.35 25.3 -47.6 L25.55 -48.2 Q27.2 -51.4 29.55 -54.2 32.7 -58.0 36.2 -61.55 30.2 -59.95 23.85 -59.7 L19.0 -59.6 18.55 -58.5 13.25 -47.35 10.0 -36.75 9.45 -35.55 Q8.75 -31.3 6.15 -28.15 5.65 -27.05 4.7 -26.75 L4.35 -26.65 Q3.25 -26.5 1.65 -27.15 -0.95 -28.2 -3.35 -29.5 -7.5 -29.6 -8.75 -33.05 -9.15 -34.2 -8.45 -35.2 -7.5 -36.45 -6.15 -36.5 -1.75 -35.35 2.15 -33.2 4.95 -39.9 7.05 -46.95 8.05 -50.45 9.7 -53.6 L10.1 -54.7 10.85 -55.9 Q11.8 -59.3 13.45 -62.15 13.4 -63.8 15.05 -64.55 15.25 -64.75 15.6 -64.8 L16.15 -64.95 16.25 -64.9 20.0 -65.4 Q27.65 -65.65 34.95 -67.8 L38.3 -68.85 Q35.1 -75.45 30.55 -81.4 L27.3 -85.75 25.35 -88.4 Q23.65 -85.3 22.6 -81.9 21.7 -79.0 20.3 -76.35 19.75 -73.0 17.6 -70.95 17.15 -70.0 16.2 -69.8 L14.85 -69.75 14.45 -69.95 13.4 -70.3 Q7.7 -72.55 2.15 -75.0 -2.9 -77.2 -7.05 -80.9 -9.15 -82.7 -10.2 -84.95 -10.8 -86.25 -10.1 -87.55 L-9.5 -88.8 Q-8.7 -90.6 -6.9 -90.7 -2.6 -90.3 -3.0 -86.05 L-3.05 -85.8 Q2.75 -80.85 9.9 -78.0 L13.6 -76.25 Q16.45 -81.95 18.55 -87.7 19.4 -90.95 21.25 -93.65 L21.0 -93.95 20.45 -93.4 Q17.8 -90.75 14.3 -90.1 L13.2 -90.4 Q10.45 -89.3 7.15 -91.0 L7.0 -90.7 6.2 -91.35 5.75 -91.9 Q4.25 -94.2 2.05 -95.5 0.3 -98.25 0.3 -101.75 0.3 -106.65 3.75 -110.1" fill="#000000" fill-rule="evenodd" stroke="none"/>
  </g>
</svg>
