<?xml version="1.0" encoding="UTF-8" standalone="no"?>
<svg xmlns:ffdec="https://www.free-decompiler.com/flash" xmlns:xlink="http://www.w3.org/1999/xlink" ffdec:objectType="shape" height="143.1px" width="87.95px" xmlns="http://www.w3.org/2000/svg">
  <g transform="matrix(1.0, 0.0, 0.0, 1.0, 26.15, 134.75)">
    <path d="M3.0 -125.4 Q3.65 -125.45 4.0 -126.1 L4.0 -126.4 4.0 -127.25 3.8 -127.55 -0.7 -134.75 Q2.35 -134.4 5.4 -132.75 10.1 -130.25 15.1 -130.55 16.95 -132.35 19.15 -134.05 L19.45 -133.25 Q19.95 -131.6 19.7 -129.75 20.6 -127.6 22.3 -126.15 26.8 -122.3 32.8 -122.8 L33.65 -122.2 33.85 -121.7 Q34.25 -120.2 35.0 -118.85 L35.0 -117.7 35.0 -112.55 35.4 -111.9 36.1 -111.05 Q38.55 -109.55 41.5 -109.4 L41.6 -109.15 Q42.4 -108.1 42.3 -106.8 L44.6 -104.2 44.6 -103.95 44.65 -103.65 Q47.2 -102.2 50.05 -102.2 L49.45 -101.5 Q46.15 -97.65 46.95 -92.55 L60.25 -89.95 Q57.5 -88.45 55.6 -86.05 54.75 -85.9 54.55 -85.15 L54.5 -84.9 54.6 -83.75 Q58.7 -80.45 61.8 -76.1 59.15 -77.15 56.65 -76.75 56.4 -76.25 56.3 -75.6 55.75 -71.55 53.75 -68.15 L53.2 -67.95 Q52.7 -67.85 52.4 -67.45 49.9 -64.25 46.4 -63.65 44.25 -64.55 42.2 -65.65 38.75 -67.55 37.3 -65.25 L37.65 -64.7 Q39.65 -61.35 41.15 -57.8 L41.6 -57.2 Q43.25 -54.95 42.55 -52.05 39.65 -52.2 37.7 -50.55 39.4 -45.5 43.9 -41.95 L45.35 -39.65 40.35 -35.9 40.35 -35.6 40.45 -34.75 Q44.9 -32.45 49.45 -30.75 L51.2 -28.8 50.6 -28.05 Q47.75 -24.8 48.9 -20.2 51.65 -19.0 54.6 -18.3 L54.8 -17.45 Q54.25 -13.25 49.95 -11.1 L49.95 -10.85 49.95 -9.7 Q51.55 -6.85 53.65 -4.25 L53.75 -3.95 53.65 -1.95 49.75 -1.65 Q46.95 -1.65 46.1 0.45 L46.4 1.0 50.05 7.65 Q48.55 7.65 47.2 6.95 41.1 3.85 35.75 7.65 L27.75 8.25 Q26.75 8.2 26.0 7.65 22.3 5.1 19.0 2.05 18.5 1.55 17.95 1.3 15.7 0.35 13.4 2.45 L13.0 2.45 Q11.15 -0.2 9.6 -3.05 9.35 -3.5 8.85 -3.55 5.3 -3.7 2.1 -1.2 L-2.5 1.9 -2.55 -1.25 Q-2.8 -7.05 -5.8 -11.55 -6.2 -12.15 -6.7 -11.8 -10.7 -8.75 -14.75 -6.45 L-14.7 -8.75 Q-14.7 -10.3 -16.15 -10.6 -19.1 -11.3 -20.7 -12.15 -20.05 -13.25 -18.75 -13.6 L-18.65 -13.9 -18.5 -14.45 -17.8 -15.1 Q-16.2 -16.85 -16.65 -19.35 -17.0 -20.0 -17.7 -20.25 -19.9 -21.2 -20.3 -22.4 L-19.2 -22.95 -16.7 -24.1 Q-11.8 -25.8 -12.45 -30.05 -9.4 -31.85 -5.95 -32.55 L-5.8 -32.75 -5.45 -33.3 Q-4.75 -33.45 -4.2 -33.9 L-4.15 -34.2 Q-3.95 -35.15 -4.3 -36.1 -5.85 -40.6 -8.35 -44.8 L-2.7 -45.1 -2.0 -45.3 Q-1.85 -45.55 -1.95 -45.75 -3.8 -51.15 -7.55 -55.9 -3.4 -55.65 -1.35 -58.3 -3.5 -61.2 -5.75 -63.35 1.3 -63.6 7.0 -67.1 L7.05 -67.4 7.05 -67.95 Q-0.8 -73.2 -9.4 -77.35 L-9.4 -77.6 Q-9.3 -78.65 -9.5 -79.6 -11.6 -82.05 -14.75 -82.4 L-14.7 -82.95 Q-14.55 -84.7 -15.5 -86.15 L-15.6 -86.95 Q-15.75 -87.6 -16.25 -87.8 -19.75 -89.4 -23.25 -90.05 L-22.95 -90.8 Q-22.0 -93.0 -22.4 -95.5 -24.05 -97.4 -26.15 -98.95 L-25.45 -99.55 Q-21.4 -99.65 -17.7 -101.15 L-17.6 -101.45 Q-17.3 -102.8 -17.9 -104.0 L-14.8 -105.4 -10.65 -106.45 Q-7.05 -107.15 -4.5 -109.5 -4.3 -110.2 -4.65 -110.8 L-7.1 -114.65 -2.5 -117.3 -2.5 -117.9 -2.5 -119.6 -7.1 -124.8 3.0 -125.4" fill="#ffff00" fill-opacity="0.5019608" fill-rule="evenodd" stroke="none"/>
  </g>
</svg>
