<?xml version="1.0" encoding="UTF-8" standalone="no"?>
<svg xmlns:ffdec="https://www.free-decompiler.com/flash" xmlns:xlink="http://www.w3.org/1999/xlink" ffdec:objectType="shape" height="118.5px" width="59.6px" xmlns="http://www.w3.org/2000/svg">
  <g transform="matrix(1.0, 0.0, 0.0, 1.0, 9.65, 119.6)">
    <path d="M2.25 -107.8 Q2.25 -112.7 5.7 -116.15 9.15 -119.6 14.05 -119.6 18.95 -119.6 22.4 -116.15 24.25 -114.3 25.1 -112.05 27.95 -110.9 27.05 -107.15 26.7 -105.8 26.85 -104.4 L27.2 -101.0 Q29.35 -100.2 30.85 -98.15 L31.15 -97.85 Q36.7 -100.2 39.4 -95.15 44.0 -86.55 49.35 -78.4 50.9 -76.1 48.55 -74.5 46.0 -72.75 43.8 -75.2 L37.15 -82.95 34.25 -86.25 Q31.15 -89.6 27.65 -92.65 L27.7 -87.65 Q27.6 -76.9 28.5 -66.3 30.45 -65.5 29.8 -63.0 30.9 -61.4 30.5 -58.7 L30.0 -54.45 28.5 -36.45 Q29.3 -35.35 29.6 -33.75 L30.0 -32.55 Q32.3 -27.2 36.25 -23.05 L37.45 -21.6 Q39.5 -18.8 41.05 -15.8 42.4 -15.05 42.15 -13.5 L42.2 -13.4 Q42.45 -12.9 42.05 -12.45 L41.55 -11.85 Q40.4 -9.65 38.65 -7.95 L32.3 -1.6 Q31.6 -0.85 30.6 -1.25 27.15 -2.55 28.95 -5.8 30.1 -7.75 31.55 -9.5 33.6 -11.9 35.85 -13.9 L31.55 -19.15 Q27.7 -23.55 24.95 -28.7 23.5 -31.35 23.2 -34.25 22.75 -34.85 22.8 -35.7 L24.1 -57.35 11.85 -45.45 11.4 -43.25 9.8 -39.55 Q7.7 -30.05 6.0 -20.5 6.9 -18.75 5.8 -16.05 4.45 -12.85 0.9 -13.65 -3.4 -14.65 -7.3 -16.0 -7.9 -16.2 -8.05 -16.9 -8.7 -21.2 -4.3 -20.8 L0.25 -20.3 0.25 -20.5 Q1.6 -30.2 4.05 -39.75 L6.0 -46.45 Q6.0 -47.5 6.85 -48.6 10.4 -53.25 15.15 -57.0 17.65 -59.0 19.65 -61.5 L22.15 -64.05 22.2 -64.55 22.3 -66.25 21.95 -86.85 Q18.6 -81.8 15.6 -76.5 L14.05 -74.2 Q12.55 -72.3 10.5 -73.45 7.45 -75.2 4.85 -77.55 0.35 -81.7 -3.85 -86.2 L-5.0 -87.6 Q-8.0 -91.8 -9.45 -96.85 -9.8 -98.0 -9.5 -99.1 -8.9 -101.45 -6.5 -101.7 -2.55 -100.85 -2.75 -96.5 L-2.45 -95.1 Q0.05 -90.3 4.25 -86.7 4.8 -86.2 5.0 -85.55 L10.95 -80.55 Q14.95 -88.95 21.65 -95.3 L21.45 -98.55 Q19.1 -96.7 16.25 -96.15 L15.15 -96.45 Q12.4 -95.35 9.1 -97.05 L8.95 -96.75 8.15 -97.4 7.7 -97.95 Q6.2 -100.25 4.0 -101.55 2.25 -104.3 2.25 -107.8" fill="#000000" fill-rule="evenodd" stroke="none"/>
  </g>
</svg>
