<?xml version="1.0" encoding="UTF-8" standalone="no"?>
<svg xmlns:ffdec="https://www.free-decompiler.com/flash" xmlns:xlink="http://www.w3.org/1999/xlink" ffdec:objectType="shape" height="142.05px" width="102.0px" xmlns="http://www.w3.org/2000/svg">
  <g transform="matrix(1.0, 0.0, 0.0, 1.0, 35.9, 128.3)">
    <path d="M14.15 -105.65 L14.35 -105.85 26.35 -105.3 24.2 -104.8 24.35 -104.6 24.75 -104.05 Q25.9 -102.55 27.3 -101.3 32.5 -96.6 38.15 -92.6 49.3 -92.2 60.45 -94.1 63.95 -97.2 65.75 -93.0 66.5 -91.35 65.7 -89.75 65.0 -88.25 63.35 -88.05 L42.1 -86.75 41.05 -86.7 Q35.2 -86.2 30.75 -90.15 L23.2 -96.6 21.0 -98.55 20.75 -97.65 16.65 -83.0 Q16.85 -81.2 16.2 -79.55 15.95 -78.9 15.5 -78.35 L13.75 -67.15 13.2 -66.0 Q11.5 -60.75 10.15 -55.4 11.85 -54.1 11.9 -51.4 11.95 -49.9 12.35 -48.5 14.7 -39.25 16.0 -29.75 L16.6 -27.05 Q17.45 -24.4 16.35 -21.95 L7.25 -1.8 4.55 3.65 Q6.9 6.9 10.3 9.65 10.9 10.1 10.75 10.85 10.05 15.4 5.8 12.85 3.25 11.35 1.1 9.25 -0.8 7.35 -1.8 5.0 -2.45 3.55 -1.65 2.1 3.9 -7.9 8.3 -18.5 L11.0 -25.45 Q9.55 -35.55 6.65 -45.55 L6.55 -45.85 3.5 -40.65 Q0.55 -36.05 -1.65 -31.05 -4.0 -25.8 -7.45 -21.55 -7.85 -21.0 -8.6 -20.8 -14.25 -19.45 -20.1 -18.65 L-29.45 -17.0 Q-30.1 -12.5 -31.0 -8.15 -31.2 -7.3 -32.1 -7.1 -35.5 -6.3 -35.75 -9.6 -36.1 -14.6 -35.5 -19.45 -35.25 -21.4 -33.3 -21.95 -28.0 -23.5 -22.55 -24.35 L-10.9 -26.3 Q-7.35 -32.7 -4.2 -39.25 L-3.8 -39.85 0.7 -48.4 3.5 -53.6 Q4.2 -57.0 5.4 -60.2 8.3 -67.95 9.05 -76.15 9.3 -79.25 10.9 -81.9 11.2 -87.2 12.9 -92.05 L14.95 -99.0 -0.2 -89.25 -1.8 -88.15 Q-1.2 -84.4 -1.35 -80.4 L-1.4 -76.75 Q3.95 -75.55 1.9 -71.05 1.45 -69.95 0.3 -69.5 -3.55 -68.05 -6.35 -70.75 -7.45 -71.8 -7.35 -73.4 -6.95 -82.0 -7.55 -90.4 -7.6 -91.05 -7.05 -91.5 1.0 -97.65 9.8 -102.4 12.2 -103.7 14.15 -105.65" fill="#000000" fill-rule="evenodd" stroke="none"/>
    <path d="M30.8 -124.85 Q34.25 -121.4 34.25 -116.5 34.25 -111.6 30.8 -108.15 29.45 -106.8 27.85 -105.95 L26.55 -105.4 26.35 -105.3 14.35 -105.85 14.85 -106.25 15.7 -106.85 15.55 -106.9 14.9 -107.4 14.1 -108.15 13.4 -108.9 Q10.65 -112.15 10.65 -116.5 10.65 -121.4 14.1 -124.85 17.55 -128.3 22.45 -128.3 27.35 -128.3 30.8 -124.85" fill="#000000" fill-rule="evenodd" stroke="none"/>
  </g>
</svg>
