<?xml version="1.0" encoding="UTF-8" standalone="no"?>
<svg xmlns:ffdec="https://www.free-decompiler.com/flash" xmlns:xlink="http://www.w3.org/1999/xlink" ffdec:objectType="shape" height="165.5px" width="151.9px" xmlns="http://www.w3.org/2000/svg">
  <g transform="matrix(1.0, 0.0, 0.0, 1.0, 69.7, 131.35)">
    <path d="M-2.5 -67.25 Q-0.55 -67.7 -1.2 -67.25 L-3.5 -66.75 -3.1 -66.95 -2.5 -67.25 M29.4 -123.95 Q28.8 -125.8 29.45 -127.55 34.4 -127.65 38.7 -125.3 L44.3 -125.15 44.4 -125.45 47.25 -131.35 Q47.9 -131.25 48.4 -130.2 50.0 -126.65 50.45 -122.75 L50.85 -122.1 51.35 -121.7 Q56.45 -120.95 61.8 -121.45 L61.8 -120.55 61.45 -117.7 Q60.2 -112.75 61.45 -107.8 64.0 -107.25 66.5 -108.75 67.5 -104.7 70.75 -102.45 73.9 -104.1 76.1 -107.0 L77.85 -106.9 78.2 -106.25 Q79.8 -103.55 78.55 -100.6 L78.15 -99.9 Q75.95 -97.15 75.25 -93.8 L75.0 -93.45 74.9 -92.85 Q78.5 -91.3 82.2 -89.9 78.95 -88.3 76.55 -85.6 75.7 -85.45 75.1 -84.95 L74.95 -84.6 74.9 -84.0 74.7 -83.65 74.45 -83.0 Q74.55 -82.2 75.35 -81.7 71.7 -82.3 70.1 -79.5 70.25 -78.75 70.05 -78.15 68.95 -74.85 69.2 -71.3 L68.65 -70.65 Q64.25 -71.5 60.25 -74.05 L59.85 -73.9 59.4 -73.6 59.25 -73.25 Q58.95 -71.35 57.85 -69.7 L57.75 -68.7 Q56.85 -65.4 55.55 -62.25 54.45 -62.3 53.6 -63.0 L50.65 -65.7 Q48.5 -67.75 46.75 -70.1 43.2 -74.9 39.4 -70.35 36.6 -67.85 33.95 -70.55 31.15 -73.35 28.15 -72.1 L28.15 -68.45 28.15 -59.95 27.05 -58.0 Q25.6 -57.45 24.65 -56.25 L24.7 -55.6 Q25.3 -52.4 26.85 -49.35 L29.95 -45.45 Q32.95 -41.95 34.95 -38.25 L33.55 -36.85 Q30.2 -34.15 30.9 -30.05 31.35 -29.55 32.1 -29.4 L36.55 -26.45 38.45 -24.15 Q36.8 -23.3 35.6 -21.85 34.85 -20.2 35.1 -18.5 36.0 -13.15 39.1 -8.75 L39.05 -8.4 Q39.0 -7.85 39.4 -7.45 L28.2 -6.6 Q27.65 -6.55 27.3 -6.0 27.6 -3.4 28.4 -0.85 L31.75 10.05 29.9 10.55 Q23.3 12.55 18.1 16.7 L18.1 17.05 18.2 18.0 19.3 18.65 23.35 24.25 23.35 24.55 Q23.35 25.45 23.7 26.2 L22.45 26.5 Q18.2 26.9 15.95 29.8 L15.95 30.45 15.95 34.05 15.15 34.15 12.5 31.75 Q10.3 29.35 7.2 31.15 1.5 34.45 -4.8 33.95 L-5.45 33.3 -5.5 32.95 -5.6 32.3 Q-9.9 29.0 -15.85 29.25 L-16.15 28.95 -15.95 28.25 Q-15.3 25.9 -15.5 23.35 -22.0 19.0 -28.75 14.85 -20.35 12.85 -13.0 8.75 L-12.95 8.05 Q-12.8 6.35 -13.45 4.8 L-16.4 0.2 Q-16.15 -0.1 -15.9 -0.2 -10.7 -1.7 -7.35 -5.7 L-7.25 -6.0 -7.2 -8.95 Q-7.5 -9.3 -7.75 -9.3 L-19.0 -8.3 -19.5 -9.05 Q-21.25 -13.4 -24.45 -16.4 -28.45 -13.95 -31.25 -10.05 L-32.75 -10.15 -33.65 -10.8 Q-35.4 -16.65 -41.0 -13.55 -45.9 -10.85 -50.45 -8.95 L-50.1 -9.95 Q-48.75 -13.2 -49.15 -16.8 -49.5 -17.5 -50.25 -17.55 L-69.7 -18.25 -69.0 -18.85 -65.75 -21.45 Q-62.9 -23.9 -59.7 -25.85 -54.8 -28.75 -53.65 -33.65 -54.35 -34.5 -54.6 -35.6 -56.5 -36.85 -58.0 -38.55 L-43.25 -39.1 Q-42.7 -39.15 -42.4 -39.55 -42.0 -41.15 -41.95 -42.8 -41.8 -47.35 -40.65 -51.65 -39.6 -52.5 -38.55 -51.9 -36.6 -50.85 -35.05 -49.3 L-31.2 -45.6 Q-26.75 -41.4 -24.25 -46.55 L-23.5 -47.2 Q-23.15 -49.0 -21.75 -50.0 L-16.1 -44.55 Q-13.1 -41.4 -10.6 -43.8 -10.05 -44.4 -10.05 -45.1 -10.05 -50.25 -7.65 -54.6 -4.45 -54.45 -2.1 -56.35 L-2.0 -56.7 -2.0 -58.3 Q-4.2 -61.05 -5.6 -63.9 L-3.05 -64.6 Q1.1 -64.95 3.7 -67.6 3.65 -68.55 2.7 -69.0 -1.5 -71.0 -5.05 -68.1 -9.85 -64.25 -13.45 -59.2 L-13.6 -59.75 Q-14.3 -63.45 -16.4 -66.6 -19.65 -68.35 -23.05 -65.5 -26.0 -63.05 -29.05 -62.6 -29.75 -64.65 -29.75 -66.85 L-29.8 -68.5 Q-30.05 -74.3 -35.15 -76.0 -35.5 -76.45 -34.85 -77.0 -29.45 -81.85 -24.8 -87.35 -24.35 -90.05 -27.3 -90.95 L-16.6 -96.3 Q-15.95 -98.9 -17.7 -100.05 -13.0 -100.95 -8.25 -100.2 -6.5 -99.9 -5.55 -100.9 -3.4 -103.1 -3.3 -106.6 L-1.45 -106.7 -0.6 -106.3 Q1.3 -105.7 2.8 -104.45 6.15 -101.75 9.9 -101.9 L10.6 -103.9 12.45 -111.4 Q15.7 -109.75 18.45 -106.8 L18.5 -106.45 18.55 -106.15 Q20.25 -103.8 22.7 -105.05 L22.85 -105.7 22.9 -109.65 Q23.95 -110.4 23.8 -111.6 L25.85 -113.55 25.9 -113.85 Q24.35 -118.2 20.65 -121.45 25.3 -121.1 29.7 -121.65 L29.8 -122.0 29.9 -122.95 29.45 -123.6 29.4 -123.95" fill="#ffff00" fill-opacity="0.5019608" fill-rule="evenodd" stroke="none"/>
  </g>
</svg>
