<?xml version="1.0" encoding="UTF-8" standalone="no"?>
<svg xmlns:ffdec="https://www.free-decompiler.com/flash" xmlns:xlink="http://www.w3.org/1999/xlink" ffdec:objectType="shape" height="169.9px" width="144.45px" xmlns="http://www.w3.org/2000/svg">
  <g transform="matrix(1.0, 0.0, 0.0, 1.0, 48.7, 130.15)">
    <path d="M0.1 -130.15 Q2.25 -129.8 4.2 -128.25 8.85 -124.5 12.45 -128.95 L12.95 -128.85 13.2 -128.65 13.55 -128.0 Q15.0 -125.65 15.6 -123.05 L16.55 -122.05 Q17.55 -120.85 19.05 -121.55 23.8 -123.9 29.05 -123.6 L29.1 -121.75 Q29.45 -115.95 29.15 -109.95 L37.75 -109.65 38.2 -109.3 38.5 -108.7 Q40.35 -106.0 40.85 -102.75 L41.4 -102.15 Q42.3 -101.2 43.45 -101.9 47.55 -104.35 50.85 -107.9 L51.6 -107.15 Q53.85 -103.4 57.85 -103.95 L58.05 -104.2 60.25 -106.7 60.55 -106.05 61.35 -104.75 61.35 -104.4 61.35 -104.05 61.6 -103.75 62.1 -103.1 62.25 -102.1 Q62.15 -101.45 62.35 -100.8 L63.3 -100.25 63.8 -100.55 64.4 -101.1 64.4 -101.45 64.4 -101.8 Q67.55 -104.4 70.95 -104.3 71.7 -102.55 71.7 -100.7 71.75 -94.6 71.95 -88.55 72.95 -87.7 74.45 -87.6 L80.75 -86.9 81.45 -86.25 81.3 -85.0 Q80.5 -81.55 80.7 -78.1 L81.7 -77.75 Q86.95 -77.1 92.35 -77.75 L92.2 -76.6 Q90.85 -72.05 90.2 -67.4 92.5 -63.25 95.75 -59.85 91.75 -59.85 88.85 -57.55 L88.85 -55.6 Q88.7 -50.0 87.65 -45.0 L77.2 -55.5 Q74.45 -58.15 71.5 -57.35 L71.4 -56.7 71.3 -56.35 71.1 -56.0 Q68.95 -51.6 66.15 -47.75 L61.8 -52.3 Q59.85 -54.15 58.25 -56.35 55.95 -59.5 52.6 -59.4 50.6 -56.75 48.25 -54.6 L42.15 -52.85 42.1 -51.9 Q42.05 -51.2 42.25 -50.55 L42.55 -50.25 Q44.2 -48.45 45.2 -46.3 37.15 -46.9 29.7 -44.8 L29.5 -44.1 Q29.3 -43.05 29.7 -42.15 34.95 -38.15 38.65 -33.0 L31.65 -28.6 Q31.55 -26.8 32.95 -25.55 L43.0 -16.5 42.95 -15.55 42.55 -13.9 Q39.95 -12.1 38.2 -9.6 L38.2 -8.65 Q38.1 -5.85 39.95 -3.7 L39.95 -3.4 39.95 -3.05 42.15 -0.75 42.25 -0.15 Q42.8 0.95 43.0 2.2 36.45 1.65 30.15 3.45 24.2 5.15 26.4 11.25 L26.65 11.55 Q29.2 15.1 31.0 19.1 30.7 19.75 30.75 20.4 30.75 23.55 31.2 26.65 L29.4 26.85 Q25.55 28.25 26.4 33.1 L26.05 33.75 26.0 34.05 Q24.0 34.15 22.25 33.5 L20.0 33.65 Q16.2 35.7 14.2 39.75 L13.75 39.75 Q12.85 38.7 11.7 38.05 L11.0 37.75 -1.75 37.0 -1.25 35.8 Q-0.4 33.7 -0.8 31.45 -4.6 28.6 -8.1 25.2 L-1.85 23.45 Q-1.5 23.05 -1.5 22.5 L-1.55 19.85 -3.95 17.0 Q-6.6 13.7 -6.8 9.7 L-3.6 7.3 -3.15 6.3 Q-2.7 5.05 -2.85 3.7 -3.75 2.6 -5.25 2.5 L-15.2 2.05 -15.85 1.3 Q-16.6 0.05 -16.4 -1.55 L-16.65 -1.85 Q-17.45 -2.8 -18.6 -2.2 -22.05 1.9 -26.2 5.25 L-28.85 6.35 -29.0 5.65 -29.05 5.0 Q-30.55 3.75 -31.45 2.0 -32.05 0.8 -33.25 0.6 L-43.45 -0.65 -43.3 -0.9 Q-42.25 -1.7 -42.15 -2.95 L-41.95 -3.3 -39.1 -7.2 Q-38.65 -9.45 -40.2 -10.95 -44.5 -15.25 -48.15 -20.0 L-48.65 -20.4 -48.7 -20.65 Q-44.15 -23.35 -38.0 -24.25 -37.7 -25.05 -37.75 -25.9 -37.95 -31.5 -38.65 -37.05 -37.95 -35.8 -36.75 -34.9 L-33.75 -32.3 Q-31.5 -30.15 -29.6 -32.35 L-29.5 -33.0 -29.4 -33.3 -25.15 -37.55 -24.7 -37.55 Q-19.65 -33.25 -13.45 -31.05 -12.9 -30.85 -12.55 -31.2 -9.2 -34.65 -8.1 -39.45 L-7.75 -39.75 Q-5.25 -39.3 -2.65 -39.75 -2.15 -39.8 -2.0 -40.2 0.0 -45.8 -3.75 -50.9 -1.2 -52.1 2.2 -52.25 6.5 -52.4 9.4 -54.85 L9.4 -55.8 Q9.6 -58.95 7.65 -61.4 L7.6 -62.05 Q7.3 -63.9 5.9 -65.3 L5.95 -66.3 6.1 -66.95 Q10.45 -68.1 14.3 -70.35 17.45 -70.1 18.55 -72.6 L18.4 -72.9 Q16.8 -74.2 15.7 -75.8 L14.4 -76.45 14.1 -77.0 Q12.95 -78.2 12.85 -79.7 L12.65 -80.05 12.45 -80.4 12.45 -81.35 12.45 -83.65 11.85 -84.05 2.15 -84.85 Q1.4 -89.2 1.3 -93.7 1.25 -95.0 0.0 -95.35 -5.45 -96.75 -10.4 -98.4 L-10.3 -99.05 -10.15 -99.7 -9.45 -100.7 Q-7.6 -105.2 -6.8 -109.85 L-7.0 -110.15 -8.1 -111.85 -8.2 -112.8 -9.6 -116.4 Q-10.55 -116.75 -11.05 -117.4 L-11.3 -118.05 -11.5 -118.4 -5.7 -118.75 -4.95 -118.9 -4.7 -119.6 Q-4.4 -120.9 -3.4 -121.85 L-3.15 -122.85 -2.85 -126.45 -2.4 -126.85 Q-1.45 -127.95 -1.45 -129.4 L-0.9 -129.65 0.1 -130.15" fill="#ffff00" fill-opacity="0.5019608" fill-rule="evenodd" stroke="none"/>
  </g>
</svg>
