<?xml version="1.0" encoding="UTF-8" standalone="no"?>
<svg xmlns:ffdec="https://www.free-decompiler.com/flash" xmlns:xlink="http://www.w3.org/1999/xlink" ffdec:objectType="shape" height="143.95px" width="115.95px" xmlns="http://www.w3.org/2000/svg">
  <g transform="matrix(1.0, 0.0, 0.0, 1.0, 34.5, 113.35)">
    <path d="M9.5 -113.35 Q15.7 -113.05 18.7 -107.25 L19.7 -105.65 Q26.0 -96.75 33.55 -89.05 37.5 -85.05 42.55 -82.15 42.2 -83.55 42.2 -85.05 42.2 -89.95 45.65 -93.4 49.1 -96.85 54.0 -96.85 58.9 -96.85 62.35 -93.4 65.8 -89.95 65.8 -85.05 65.8 -80.15 62.35 -76.7 61.0 -75.35 59.4 -74.5 L58.1 -73.95 Q56.45 -73.35 54.6 -73.25 L54.5 -73.2 58.05 -71.35 Q59.8 -70.5 61.75 -70.75 L68.7 -71.65 73.7 -72.3 Q75.05 -72.5 76.05 -73.5 77.95 -75.35 80.1 -73.8 82.1 -72.35 81.1 -70.05 79.85 -67.2 76.65 -66.55 L69.4 -65.45 Q62.8 -64.85 56.3 -65.6 55.2 -65.7 54.25 -66.25 L42.4 -72.7 Q42.05 -72.9 41.75 -73.05 35.6 -67.75 30.65 -61.35 25.5 -54.7 21.6 -47.35 L16.65 -37.85 Q17.7 -36.65 18.35 -35.0 L18.75 -33.75 18.9 -32.6 Q19.75 -31.75 19.9 -30.55 L20.15 -29.4 22.5 -23.9 22.75 -22.5 Q26.95 -15.95 25.9 -8.45 25.7 -7.0 25.15 -5.75 23.5 -1.85 21.2 1.7 17.4 10.9 13.25 20.1 L12.35 21.3 12.35 21.55 12.15 22.15 12.05 22.45 Q14.2 24.7 15.15 27.45 15.55 28.6 14.6 29.45 11.65 32.0 9.0 28.85 6.95 26.35 6.1 23.4 5.6 21.8 6.15 20.3 6.8 18.65 8.05 17.45 L16.4 -1.45 17.25 -2.95 Q20.2 -7.6 20.0 -12.8 L19.75 -13.95 18.1 -18.85 13.25 -30.45 Q8.3 -22.8 2.5 -15.7 -0.05 -12.6 -3.55 -10.8 -4.7 -10.2 -6.05 -10.5 -16.4 -12.85 -26.9 -13.95 -28.65 -10.9 -31.75 -10.0 -32.85 -9.65 -33.5 -10.6 -35.75 -13.8 -32.85 -16.75 L-30.15 -19.5 Q-28.8 -20.85 -26.85 -20.45 L-13.05 -17.75 -4.65 -17.3 Q-4.35 -17.3 -4.1 -17.6 0.05 -22.15 3.7 -27.1 L9.85 -35.8 10.1 -36.9 10.55 -37.95 10.85 -38.75 12.35 -42.2 Q15.45 -49.15 19.35 -55.85 20.45 -57.8 21.95 -59.5 24.25 -63.5 27.55 -67.25 32.4 -72.75 37.9 -77.5 L37.05 -78.15 Q28.1 -84.75 21.4 -93.6 L10.95 -106.7 Q10.6 -107.1 10.05 -107.3 5.3 -106.9 6.3 -111.2 6.55 -112.2 7.45 -112.7 8.5 -113.3 9.5 -113.35" fill="#000000" fill-rule="evenodd" stroke="none"/>
  </g>
</svg>
