<?xml version="1.0" encoding="UTF-8" standalone="no"?>
<svg xmlns:ffdec="https://www.free-decompiler.com/flash" xmlns:xlink="http://www.w3.org/1999/xlink" ffdec:objectType="shape" height="130.8px" width="123.95px" xmlns="http://www.w3.org/2000/svg">
  <g transform="matrix(1.0, 0.0, 0.0, 1.0, 35.4, 97.4)">
    <path d="M49.45 -58.4 L50.65 -59.35 51.25 -59.75 Q51.45 -64.2 54.65 -67.4 58.1 -70.85 63.0 -70.85 67.9 -70.85 71.35 -67.4 74.8 -63.95 74.8 -59.05 74.8 -54.15 71.35 -50.7 70.0 -49.35 68.4 -48.5 L67.1 -47.95 Q65.25 -47.3 63.2 -47.25 L63.25 -47.1 62.95 -47.25 62.35 -47.1 Q68.85 -44.55 75.95 -43.85 L79.3 -43.35 81.35 -43.4 Q83.8 -47.3 87.3 -43.9 89.4 -41.85 87.95 -39.25 85.95 -35.6 81.3 -37.15 L79.35 -37.6 Q68.45 -39.05 58.2 -42.75 53.15 -44.55 49.05 -47.95 48.25 -48.6 47.85 -49.4 L36.6 -40.8 Q29.95 -35.6 24.4 -29.2 L22.95 -27.7 22.4 -26.55 Q23.6 -24.9 23.15 -22.15 22.75 -19.8 23.95 -17.7 29.15 -8.4 29.4 2.3 32.1 7.9 30.95 13.75 30.7 15.05 29.65 15.9 21.1 23.1 11.35 28.45 13.5 32.3 9.15 33.3 L7.4 33.05 Q3.3 30.85 3.7 26.75 3.8 25.85 4.6 25.45 16.05 19.8 25.45 11.5 25.55 9.3 25.0 7.2 L24.7 5.75 Q22.85 2.4 22.9 -1.75 22.95 -3.9 22.35 -6.0 20.75 -11.55 18.3 -16.75 17.1 -19.25 16.85 -22.0 L8.0 -15.3 Q3.45 -11.75 -0.5 -7.7 -3.75 -4.35 -7.2 -7.75 -14.85 -15.3 -23.05 -22.1 L-27.15 -25.85 Q-31.0 -23.7 -34.5 -25.55 -35.7 -26.2 -35.3 -27.5 -34.35 -30.65 -30.7 -31.45 L-26.9 -32.45 Q-23.8 -31.35 -21.2 -28.9 -20.35 -28.1 -19.85 -27.0 L-4.0 -13.45 -3.7 -13.35 -3.35 -13.35 Q5.6 -20.6 14.2 -28.3 15.65 -29.6 17.2 -30.4 L17.4 -30.65 Q24.6 -39.05 33.45 -45.85 L44.45 -54.4 43.95 -55.5 Q40.15 -65.9 37.45 -76.9 36.3 -81.55 34.6 -86.0 32.85 -90.7 33.75 -95.5 34.05 -96.95 35.55 -97.3 L36.1 -97.4 Q41.4 -97.4 41.05 -92.2 40.95 -90.8 39.75 -89.9 L44.85 -71.5 47.95 -61.35 Q48.95 -59.9 49.45 -58.4" fill="#000000" fill-rule="evenodd" stroke="none"/>
  </g>
</svg>
