<?xml version="1.0" encoding="UTF-8" standalone="no"?>
<svg xmlns:ffdec="https://www.free-decompiler.com/flash" xmlns:xlink="http://www.w3.org/1999/xlink" ffdec:objectType="shape" height="153.3px" width="118.4px" xmlns="http://www.w3.org/2000/svg">
  <g transform="matrix(1.0, 0.0, 0.0, 1.0, 26.35, 87.8)">
    <path d="M14.75 16.6 L14.8 16.55 Q17.35 17.65 18.0 20.1 L17.0 20.95 Q13.5 22.35 11.65 22.15 L11.95 21.8 Q13.55 19.4 14.75 16.6 M60.8 -79.3 Q64.05 -75.15 67.8 -77.3 L68.15 -78.3 Q70.15 -80.65 71.85 -83.4 L72.8 -82.45 Q76.25 -77.65 81.0 -79.95 L82.1 -79.8 Q82.75 -75.55 84.5 -71.65 L90.6 -63.75 Q90.5 -63.0 89.95 -62.4 L88.9 -61.4 Q83.55 -57.05 85.95 -51.0 L89.75 -44.75 Q89.1 -41.4 86.65 -38.65 84.15 -35.85 83.2 -32.3 L91.4 -25.0 92.05 -23.7 91.3 -22.05 Q87.85 -19.95 85.4 -17.05 85.3 -14.75 86.25 -12.75 L88.0 -10.5 Q79.9 -11.15 79.15 -3.4 L78.85 -3.05 Q78.6 1.65 77.5 6.1 74.75 5.55 72.85 3.35 71.05 1.25 68.3 2.35 63.65 4.25 59.3 6.25 L58.65 5.55 Q56.8 1.1 53.95 -2.95 L53.8 -3.95 Q50.45 -6.9 47.7 -2.5 45.9 -1.0 45.2 1.45 L45.1 2.75 Q44.35 2.95 43.9 3.5 42.3 3.4 41.7 4.6 L41.7 4.9 41.7 6.9 Q43.2 8.75 43.6 11.1 44.0 13.4 45.0 15.55 47.35 20.5 47.7 25.9 43.9 26.5 40.4 27.95 L40.4 28.3 40.4 29.6 Q43.75 34.75 43.8 40.75 40.75 40.5 39.1 42.15 L39.1 42.5 39.1 45.45 Q42.5 51.1 45.1 57.25 L44.65 57.2 Q43.3 57.1 42.15 57.6 35.4 60.5 29.9 65.5 L29.05 65.5 28.25 64.65 Q27.5 60.85 25.2 57.8 24.55 56.95 23.55 56.9 18.6 56.7 13.65 56.65 L13.0 56.45 14.05 55.5 Q16.5 50.05 15.3 44.35 10.2 40.6 5.0 37.35 10.65 35.5 15.05 31.65 L14.95 29.7 14.2 28.7 Q13.75 26.6 12.45 24.8 16.95 24.05 20.3 21.2 L20.3 20.85 20.3 18.55 Q18.15 16.15 15.6 14.25 L14.65 14.15 Q12.1 15.7 11.25 18.9 10.3 19.25 10.15 20.2 L9.4 20.2 Q6.2 18.15 3.7 20.1 L3.6 20.75 -1.55 25.35 -2.4 25.25 -3.75 15.05 -4.3 14.7 -15.4 13.65 Q-15.25 8.8 -16.4 4.15 -16.65 3.85 -16.95 3.8 -21.85 3.6 -26.35 3.85 -24.8 2.3 -23.5 0.45 -18.5 -6.85 -19.0 -15.5 -21.1 -17.5 -23.7 -18.0 -19.95 -19.35 -16.5 -20.95 -16.3 -21.9 -16.4 -22.95 L-17.7 -24.55 Q-9.65 -20.75 -1.45 -24.0 0.55 -19.3 2.85 -14.8 3.4 -13.65 4.65 -14.1 9.4 -15.9 12.85 -19.75 L14.25 -19.45 Q18.0 -17.7 20.2 -20.95 L22.6 -31.35 Q25.6 -29.65 28.6 -28.05 L28.7 -27.4 Q30.75 -26.1 32.4 -27.95 L32.55 -29.6 Q34.05 -32.7 35.15 -35.8 37.9 -35.6 40.15 -36.9 40.65 -38.2 40.15 -39.5 L37.55 -41.8 Q36.25 -44.75 33.95 -47.05 L33.5 -49.0 36.7 -50.85 Q41.15 -52.4 41.25 -56.55 L41.0 -56.85 Q36.05 -62.15 37.9 -69.0 38.85 -69.2 39.5 -69.9 41.55 -69.5 42.55 -70.95 42.75 -72.4 41.85 -73.55 39.45 -76.6 39.5 -80.8 43.15 -80.65 46.5 -78.75 47.95 -77.85 49.8 -77.5 50.3 -77.55 50.65 -77.95 L50.7 -78.3 50.45 -87.8 58.15 -82.0 60.8 -79.3" fill="#ffff00" fill-opacity="0.5019608" fill-rule="evenodd" stroke="none"/>
  </g>
</svg>
