<?xml version="1.0" encoding="UTF-8" standalone="no"?>
<svg xmlns:ffdec="https://www.free-decompiler.com/flash" xmlns:xlink="http://www.w3.org/1999/xlink" ffdec:objectType="shape" height="123.15px" width="91.35px" xmlns="http://www.w3.org/2000/svg">
  <g transform="matrix(1.0, 0.0, 0.0, 1.0, 11.55, 73.55)">
    <path d="M55.7 -73.55 Q61.0 -72.65 59.2 -67.6 58.65 -66.05 57.1 -65.55 L56.1 -65.1 Q53.6 -56.2 54.1 -46.65 54.4 -41.05 56.35 -35.85 L58.05 -30.5 60.95 -31.5 Q62.95 -33.05 65.35 -33.55 L66.3 -34.85 Q72.05 -42.55 72.65 -52.15 72.85 -56.15 72.55 -60.2 72.25 -63.6 74.0 -66.1 74.65 -67.05 75.7 -67.05 79.9 -65.6 79.2 -60.95 78.5 -56.15 78.2 -51.2 77.9 -46.15 76.65 -41.4 74.8 -37.1 72.35 -33.05 74.55 -32.2 76.35 -30.4 79.8 -26.95 79.8 -22.05 79.8 -17.15 76.35 -13.7 75.0 -12.35 73.4 -11.5 L72.1 -10.95 Q70.25 -10.3 68.2 -10.25 L68.25 -10.1 67.95 -10.25 67.05 -10.1 Q62.2 -9.8 60.2 -13.2 L60.05 -12.95 Q58.2 -15.65 56.6 -18.6 L56.5 -18.6 56.65 -18.8 Q56.2 -20.35 56.2 -22.05 L56.3 -23.35 Q50.7 -21.25 45.35 -18.75 35.65 -14.3 27.4 -7.5 L27.45 -7.0 27.5 -6.75 Q29.0 -4.3 29.95 -1.55 L30.15 -0.4 34.4 9.05 Q36.3 13.75 36.75 18.65 36.95 21.35 35.8 23.8 31.9 32.3 27.6 40.5 L33.4 45.65 33.75 46.55 Q33.3 50.85 29.05 49.1 26.95 48.2 25.25 46.6 L24.0 45.7 Q19.75 43.5 21.6 39.65 22.75 36.25 24.95 33.35 L25.55 32.45 Q27.4 26.95 29.9 21.65 L30.45 20.65 30.85 20.05 30.95 19.5 31.2 18.6 Q30.4 15.2 28.85 12.0 28.55 11.35 28.65 10.55 L22.8 -3.0 14.85 5.55 9.95 10.9 Q8.4 12.7 6.25 11.5 3.8 10.1 1.95 8.0 -3.05 2.3 -6.5 -4.6 -10.55 -2.25 -11.45 -6.6 -11.95 -9.15 -9.6 -10.45 -9.05 -10.7 -8.6 -11.1 -7.4 -12.0 -6.15 -12.1 -2.15 -10.8 -0.65 -6.4 L-0.35 -5.7 Q2.65 0.15 7.3 4.7 12.35 -0.95 17.95 -6.15 19.35 -9.45 22.1 -10.45 L22.4 -10.7 Q24.45 -12.95 27.05 -14.75 L31.35 -17.6 Q40.55 -23.55 50.7 -27.75 L52.7 -28.55 52.65 -28.6 Q48.2 -37.55 48.3 -47.65 48.35 -54.65 49.25 -61.45 49.9 -66.5 52.3 -70.8 53.5 -73.05 55.7 -73.55" fill="#000000" fill-rule="evenodd" stroke="none"/>
  </g>
</svg>
