<?xml version="1.0" encoding="UTF-8" standalone="no"?>
<svg xmlns:ffdec="https://www.free-decompiler.com/flash" xmlns:xlink="http://www.w3.org/1999/xlink" ffdec:objectType="shape" height="147.25px" width="119.9px" xmlns="http://www.w3.org/2000/svg">
  <g transform="matrix(1.0, 0.0, 0.0, 1.0, 15.85, 38.1)">
    <path d="M54.8 109.15 L54.8 109.1 54.8 108.75 55.0 108.4 55.25 107.8 Q56.8 107.15 58.95 108.55 59.55 108.95 60.1 109.15 L54.8 109.15 M65.55 -32.2 L66.45 -32.1 Q70.15 -35.4 74.55 -38.1 75.4 -37.65 75.9 -36.05 76.5 -33.95 76.75 -31.75 L77.1 -31.45 77.35 -31.1 77.5 -30.8 Q77.45 -29.6 77.7 -28.45 L77.95 -26.2 78.3 -25.5 Q78.6 -24.75 79.5 -24.65 83.0 -28.6 88.0 -30.45 L87.95 -27.3 Q87.9 -25.15 88.1 -23.05 88.6 -22.75 89.1 -22.7 L97.85 -22.25 98.2 -21.75 99.25 -21.05 98.5 -19.95 94.1 -14.65 94.15 -13.65 94.25 -13.0 Q98.1 -10.0 102.2 -7.4 L103.0 -6.45 104.05 -5.15 103.75 -4.8 Q102.25 -3.25 100.25 -2.2 96.2 -1.8 94.1 1.0 L94.55 1.5 Q97.35 3.5 99.15 5.9 L98.9 6.2 98.5 6.55 Q94.2 6.3 91.05 8.75 91.05 10.2 91.45 11.55 L93.25 16.95 92.5 18.0 91.5 19.2 91.45 20.55 91.6 21.5 Q94.65 24.4 98.35 25.9 L98.0 26.15 Q93.8 28.15 91.5 32.1 L91.55 33.1 91.6 33.75 98.6 37.8 99.0 38.3 Q100.2 39.15 100.0 39.65 L97.4 40.55 Q95.95 41.05 94.9 42.05 89.8 47.1 90.5 54.4 88.45 52.45 85.65 51.75 84.35 51.45 83.35 52.0 77.7 55.15 73.8 60.5 L73.4 60.5 73.25 60.4 Q71.85 58.1 70.9 55.65 69.55 52.25 66.7 53.2 L66.3 53.2 66.15 53.05 Q65.25 52.3 64.7 51.35 L60.9 45.85 60.9 45.55 60.9 45.2 60.45 44.55 Q58.75 42.3 56.35 43.45 L55.15 46.2 Q54.05 48.25 54.35 50.65 50.6 49.9 47.4 51.1 L47.4 51.45 47.4 52.1 47.4 52.4 47.7 52.75 Q49.0 53.7 50.45 54.15 L50.45 54.4 50.55 54.7 50.9 54.9 Q51.9 55.15 51.75 56.0 L50.6 57.45 48.25 60.95 48.25 62.25 48.25 63.25 60.9 71.3 60.9 71.65 60.8 72.3 60.7 72.6 59.8 73.35 59.5 73.95 58.95 74.15 58.75 74.3 58.5 74.5 58.35 74.8 58.25 75.1 58.1 75.45 57.65 75.8 57.45 76.1 57.45 76.45 57.45 76.75 57.2 77.1 57.0 77.45 57.0 77.75 57.0 78.4 57.0 79.05 57.95 80.1 Q63.45 86.7 69.85 92.15 L61.4 92.9 Q59.2 93.15 58.3 95.25 58.05 97.45 58.9 99.5 60.4 103.1 61.35 106.7 57.35 104.55 53.3 105.5 53.05 107.35 52.4 109.15 L28.7 109.15 27.7 108.35 28.4 108.1 28.8 108.0 29.1 107.75 29.35 107.45 29.45 107.15 Q29.5 106.5 28.9 106.45 21.65 105.95 16.15 104.5 L17.2 102.95 Q17.95 101.75 18.1 100.25 L19.1 98.55 Q19.5 97.5 19.4 96.3 L19.2 96.0 Q16.9 93.8 14.05 92.5 14.3 91.85 14.95 91.55 19.4 89.55 22.5 85.85 22.6 84.85 21.95 84.15 20.7 82.85 19.85 81.25 19.8 80.1 20.15 79.0 20.85 77.0 21.85 75.0 L22.35 74.65 22.9 74.05 22.9 73.7 22.9 73.05 22.9 72.75 22.35 72.4 Q16.65 72.05 11.55 75.15 L11.0 75.15 10.45 74.8 9.9 73.75 Q9.3 72.75 8.25 72.6 L0.0 71.75 1.25 70.4 Q2.3 68.55 3.6 66.85 L3.65 66.5 3.65 65.85 3.6 65.5 2.95 65.05 Q-6.1 61.6 -15.85 59.95 L-14.95 59.0 -14.1 57.95 Q-11.45 54.6 -9.4 50.9 -9.4 50.05 -9.75 49.45 -11.15 46.7 -14.2 45.0 L-13.55 44.8 -12.9 44.55 -12.7 44.35 -12.45 44.0 -11.6 43.65 Q-10.25 43.0 -9.4 41.7 L-9.4 41.4 -9.4 41.05 -9.2 40.75 -8.95 40.4 -9.2 37.5 Q-9.6 35.25 -9.4 32.85 L-9.15 32.55 -8.85 32.2 -7.95 32.4 -6.3 32.9 Q-2.05 33.45 -0.55 28.85 L0.85 28.2 1.2 27.55 Q2.25 25.55 3.8 26.45 L4.6 29.35 Q5.4 31.6 5.45 33.95 L6.0 34.6 Q6.75 35.4 7.7 34.9 10.1 33.6 12.2 33.85 12.55 34.45 12.5 35.15 L12.45 36.15 13.55 37.85 Q14.1 38.9 14.2 40.1 L14.8 40.65 Q15.2 41.0 15.65 40.9 21.5 39.75 24.55 34.5 L24.7 32.2 24.65 29.6 Q26.35 30.9 28.25 30.05 L28.85 27.05 Q29.25 24.0 30.35 21.2 L31.75 21.1 Q32.95 21.65 33.95 22.3 38.35 25.25 43.45 25.35 L44.15 24.55 Q44.55 23.8 45.1 23.15 45.2 21.8 45.65 20.55 46.65 17.7 48.25 15.3 L49.4 14.8 Q50.0 14.5 50.0 13.85 L49.75 13.2 Q49.45 12.25 48.45 12.0 L47.75 11.15 Q45.25 8.95 43.25 6.45 L44.15 6.0 47.6 3.7 Q47.95 2.1 47.45 0.55 45.6 -4.7 41.7 -8.75 L49.35 -12.45 49.7 -13.8 50.45 -15.05 50.35 -19.95 Q50.2 -23.85 50.75 -27.5 L55.85 -28.1 56.9 -28.8 57.5 -31.45 Q58.05 -34.95 60.05 -37.65 L60.6 -37.45 Q62.75 -34.5 65.55 -32.2" fill="#ffff00" fill-opacity="0.5019608" fill-rule="evenodd" stroke="none"/>
  </g>
</svg>
