<?xml version="1.0" encoding="UTF-8" standalone="no"?>
<svg xmlns:ffdec="https://www.free-decompiler.com/flash" xmlns:xlink="http://www.w3.org/1999/xlink" ffdec:objectType="shape" height="123.15px" width="91.35px" xmlns="http://www.w3.org/2000/svg">
  <g transform="matrix(1.0, 0.0, 0.0, 1.0, 3.25, 20.35)">
    <path d="M60.6 -17.6 Q61.8 -19.85 64.0 -20.35 69.3 -19.45 67.5 -14.4 66.95 -12.85 65.4 -12.35 L64.4 -11.9 Q61.9 -3.0 62.4 6.55 62.7 12.15 64.65 17.35 L66.35 22.7 69.25 21.7 Q71.25 20.15 73.65 19.65 L74.6 18.35 Q80.35 10.65 80.95 1.05 81.15 -2.95 80.85 -7.0 80.55 -10.4 82.3 -12.9 82.95 -13.85 84.0 -13.85 88.2 -12.4 87.5 -7.75 86.8 -2.95 86.5 2.0 86.2 7.05 84.95 11.8 83.1 16.1 80.65 20.15 82.85 21.0 84.65 22.8 88.1 26.25 88.1 31.15 88.1 36.05 84.65 39.5 L81.7 41.7 80.4 42.25 Q78.55 42.9 76.5 42.95 L76.55 43.1 76.25 42.95 75.35 43.1 Q70.5 43.4 68.5 40.0 L68.35 40.25 Q66.5 37.55 64.9 34.6 L64.8 34.6 64.95 34.4 Q64.5 32.85 64.5 31.15 L64.6 29.85 Q59.0 31.95 53.65 34.45 43.95 38.9 35.7 45.7 L35.75 46.2 35.8 46.45 Q37.3 48.9 38.25 51.65 L38.45 52.8 42.7 62.25 Q44.6 66.95 45.05 71.85 45.25 74.55 44.1 77.0 40.2 85.5 35.9 93.7 L41.7 98.85 Q42.1 99.2 42.05 99.75 41.6 104.05 37.35 102.3 35.25 101.4 33.55 99.8 L32.3 98.9 Q28.05 96.7 29.9 92.85 31.05 89.45 33.25 86.55 L33.85 85.65 Q35.7 80.15 38.2 74.85 L38.75 73.85 39.15 73.25 39.25 72.7 39.5 71.8 Q38.7 68.4 37.15 65.2 36.85 64.55 36.95 63.75 L31.1 50.2 23.15 58.75 18.25 64.1 Q16.7 65.9 14.55 64.7 12.1 63.3 10.25 61.2 5.25 55.5 1.8 48.6 -2.25 50.95 -3.15 46.6 -3.65 44.05 -1.3 42.75 -0.75 42.5 -0.3 42.1 0.9 41.2 2.15 41.1 6.15 42.4 7.65 46.8 L7.95 47.5 Q10.95 53.35 15.6 57.9 20.65 52.25 26.25 47.05 27.65 43.75 30.4 42.75 L30.7 42.5 Q32.75 40.25 35.35 38.45 37.45 37.0 39.65 35.6 48.85 29.65 59.0 25.45 L61.0 24.65 60.95 24.6 Q56.5 15.65 56.6 5.55 56.65 -1.45 57.55 -8.25 58.2 -13.3 60.6 -17.6" fill="#000000" fill-rule="evenodd" stroke="none"/>
  </g>
</svg>
