<?xml version="1.0" encoding="UTF-8" standalone="no"?>
<svg xmlns:ffdec="https://www.free-decompiler.com/flash" xmlns:xlink="http://www.w3.org/1999/xlink" ffdec:objectType="shape" height="123.15px" width="91.35px" xmlns="http://www.w3.org/2000/svg">
  <g transform="matrix(1.0, 0.0, 0.0, 1.0, -4.75, -50.65)">
    <path d="M88.85 64.0 Q88.55 60.6 90.3 58.1 90.95 57.15 92.0 57.15 96.2 58.6 95.5 63.25 94.8 68.05 94.5 73.0 94.2 78.05 92.95 82.8 91.1 87.1 88.65 91.15 90.85 92.0 92.65 93.8 96.1 97.25 96.1 102.15 96.1 107.05 92.65 110.5 91.3 111.85 89.7 112.7 L88.4 113.25 Q86.55 113.9 84.5 113.95 L84.55 114.1 84.25 113.95 83.35 114.1 Q78.5 114.4 76.5 111.0 L76.35 111.25 72.9 105.6 72.8 105.6 72.95 105.4 Q72.5 103.85 72.5 102.15 L72.6 100.85 Q67.0 102.95 61.65 105.45 51.95 109.9 43.7 116.7 L43.75 117.2 43.8 117.45 Q45.3 119.9 46.25 122.65 L46.45 123.8 50.7 133.25 Q52.6 137.95 53.05 142.85 53.25 145.55 52.1 148.0 48.2 156.5 43.9 164.7 L49.7 169.85 Q50.1 170.2 50.05 170.75 49.6 175.05 45.35 173.3 43.25 172.4 41.55 170.8 L40.3 169.9 Q36.05 167.7 37.9 163.85 39.05 160.45 41.25 157.55 L41.85 156.65 Q43.7 151.15 46.2 145.85 L46.75 144.85 47.15 144.25 47.25 143.7 47.5 142.8 Q46.7 139.4 45.15 136.2 44.85 135.55 44.95 134.75 L39.1 121.2 31.15 129.75 26.25 135.1 Q24.7 136.9 22.55 135.7 20.1 134.3 18.25 132.2 13.25 126.5 9.8 119.6 5.75 121.95 4.85 117.6 4.35 115.05 6.7 113.75 L7.7 113.1 Q8.9 112.2 10.15 112.1 14.15 113.4 15.65 117.8 L15.95 118.5 Q18.95 124.35 23.6 128.9 28.65 123.25 34.25 118.05 35.65 114.75 38.4 113.75 L38.7 113.5 Q40.75 111.25 43.35 109.45 L47.65 106.6 Q56.85 100.65 67.0 96.45 L69.0 95.65 68.95 95.6 Q64.5 86.65 64.6 76.55 64.65 69.55 65.55 62.75 66.2 57.7 68.6 53.4 69.8 51.15 72.0 50.65 77.3 51.55 75.5 56.6 74.95 58.15 73.4 58.65 L72.4 59.1 Q69.9 68.0 70.4 77.55 70.7 83.15 72.65 88.35 L74.35 93.7 77.25 92.7 Q79.25 91.15 81.65 90.65 L82.6 89.35 Q88.35 81.65 88.95 72.05 89.15 68.05 88.85 64.0" fill="#000000" fill-rule="evenodd" stroke="none"/>
  </g>
</svg>
