<?xml version="1.0" encoding="UTF-8" standalone="no"?>
<svg xmlns:ffdec="https://www.free-decompiler.com/flash" xmlns:xlink="http://www.w3.org/1999/xlink" ffdec:objectType="shape" height="129.4px" width="72.6px" xmlns="http://www.w3.org/2000/svg">
  <g transform="matrix(1.0, 0.0, 0.0, 1.0, 26.45, 81.85)">
    <path d="M30.2 -76.5 Q31.0 -77.25 31.95 -77.25 37.4 -76.75 35.85 -71.6 35.05 -69.1 33.35 -67.1 L26.6 -59.2 21.85 -54.1 Q20.4 -52.65 18.35 -52.25 12.7 -51.1 7.15 -49.25 L3.8 -48.65 4.35 -42.55 Q4.95 -35.45 5.8 -28.4 L10.65 -24.95 12.0 -24.15 Q19.1 -21.1 26.5 -18.85 L31.55 -17.15 Q33.2 -16.5 33.7 -14.85 36.6 -4.35 37.95 6.55 38.35 9.9 39.45 13.1 41.9 12.85 44.55 14.0 46.95 15.05 45.8 17.3 44.6 19.75 41.7 19.4 L37.35 18.85 Q34.4 18.45 33.65 15.45 32.4 10.4 32.15 5.05 32.1 3.1 31.55 1.25 30.1 -3.85 29.35 -9.05 28.75 -9.7 28.45 -10.55 L28.2 -11.65 Q22.9 -14.55 16.95 -16.05 11.4 -17.4 6.85 -20.35 7.1 -18.55 6.95 -16.7 7.3 -15.9 7.2 -14.75 L7.15 -14.45 Q8.2 -12.7 8.65 -10.7 L8.7 -9.55 9.65 -7.55 9.85 -6.4 Q10.95 -5.45 11.0 -4.05 L11.0 -2.9 Q13.75 4.3 15.1 11.8 15.9 16.0 13.4 19.95 10.65 24.35 7.05 27.9 3.15 32.9 -1.65 37.4 1.25 40.75 3.05 44.75 3.3 45.4 2.85 45.95 0.35 49.1 -2.45 46.05 L-5.3 42.4 Q-8.7 40.8 -8.65 37.5 -8.6 35.2 -6.65 33.55 -1.2 28.8 3.55 23.4 7.5 18.9 9.4 13.3 8.05 5.95 5.5 -1.1 5.15 -1.9 5.25 -2.85 3.3 -6.6 1.95 -10.8 1.3 -12.95 1.35 -15.2 L1.4 -15.55 1.3 -16.25 Q1.35 -21.9 0.2 -27.25 L-0.4 -31.2 -2.35 -50.75 Q-10.25 -47.7 -18.45 -45.55 -18.8 -44.65 -17.8 -43.65 L-17.05 -42.85 Q-12.35 -44.1 -12.0 -39.85 -11.8 -36.9 -14.8 -36.15 -18.35 -35.25 -20.85 -37.95 -24.75 -42.15 -26.35 -47.4 -26.75 -48.7 -25.55 -49.4 -23.6 -50.6 -21.25 -51.1 -11.8 -53.1 -3.1 -56.7 L-3.25 -57.55 -3.55 -58.95 Q-4.95 -59.75 -5.8 -61.2 L-5.95 -60.95 -9.4 -66.6 -9.5 -66.6 -9.35 -66.8 Q-9.8 -68.35 -9.8 -70.05 -9.8 -74.95 -6.35 -78.4 -2.9 -81.85 2.0 -81.85 6.9 -81.85 10.35 -78.4 13.8 -74.95 13.8 -70.05 13.8 -65.15 10.35 -61.7 9.0 -60.35 7.4 -59.5 L6.1 -58.95 Q4.75 -58.45 3.25 -58.3 5.25 -57.35 4.4 -55.3 L8.7 -56.0 Q13.75 -57.3 18.35 -59.3 L19.15 -59.9 Q24.65 -65.85 29.55 -72.25 28.25 -74.65 30.2 -76.5" fill="#000000" fill-rule="evenodd" stroke="none"/>
  </g>
</svg>
