<?xml version="1.0" encoding="UTF-8" standalone="no"?>
<svg xmlns:ffdec="https://www.free-decompiler.com/flash" xmlns:xlink="http://www.w3.org/1999/xlink" ffdec:objectType="shape" height="160.55px" width="114.65px" xmlns="http://www.w3.org/2000/svg">
  <g transform="matrix(1.0, 0.0, 0.0, 1.0, 60.4, 60.3)">
    <path d="M41.3 -58.2 L41.4 -57.05 Q41.75 -54.8 42.8 -52.7 44.05 -50.7 46.15 -49.65 48.85 -48.3 50.9 -46.55 49.85 -45.15 48.1 -44.5 42.35 -42.2 38.6 -37.65 L38.6 -36.75 38.6 -35.35 39.2 -34.8 Q40.15 -33.95 40.15 -32.75 L40.35 -32.5 Q43.85 -29.35 43.2 -25.25 42.85 -24.95 42.5 -24.9 38.2 -23.95 34.75 -21.7 L34.7 -19.4 Q34.7 -18.2 35.15 -17.2 36.65 -14.0 36.3 -10.75 29.45 -11.7 23.25 -9.6 L23.3 -7.85 Q23.7 -3.45 25.75 0.5 L25.15 0.8 24.4 1.05 Q20.3 1.05 17.85 3.95 L17.85 4.8 17.95 6.25 Q21.95 8.3 25.15 11.05 23.25 14.55 20.55 17.7 L20.5 18.85 Q20.45 19.85 20.65 20.85 21.05 21.1 21.55 21.2 L24.2 21.45 Q31.4 21.1 38.55 21.55 39.65 21.6 40.5 22.4 L40.55 22.65 40.9 23.25 40.9 24.4 Q40.55 26.6 39.35 28.45 L39.35 29.9 39.35 33.35 Q42.5 37.05 47.15 38.7 46.05 39.85 45.2 41.15 42.8 45.0 43.7 49.65 48.15 52.4 53.7 52.35 50.85 54.85 48.6 57.8 L48.6 58.1 48.6 58.4 48.6 58.7 Q51.65 60.7 54.25 63.1 L53.8 63.35 52.5 64.45 52.25 65.95 50.3 73.95 Q49.25 74.2 48.45 73.15 46.2 70.0 42.8 69.9 L42.65 70.15 42.35 70.7 41.55 71.35 Q40.85 72.0 40.9 73.0 L40.35 73.9 38.7 77.05 Q36.3 75.0 33.4 73.5 29.8 71.7 28.9 75.3 L28.7 75.6 28.25 76.15 28.0 77.25 Q26.45 80.9 26.1 84.6 23.5 82.6 20.65 83.65 L20.5 84.2 Q20.15 85.05 19.4 85.65 L19.3 86.8 Q18.7 90.45 17.0 93.75 L12.7 94.05 Q12.35 94.1 12.1 94.3 9.75 96.95 9.3 100.25 L8.05 100.2 4.05 98.05 Q4.05 97.15 3.65 96.3 3.1 95.15 1.9 95.05 L-0.45 95.3 Q-5.45 96.6 -10.0 97.1 L-9.8 96.8 -9.4 96.25 -9.3 94.25 Q-8.8 90.1 -9.05 85.85 -9.9 85.05 -11.1 84.75 -14.3 83.9 -16.35 84.05 -16.55 82.25 -15.15 81.0 L-14.3 80.15 -12.6 78.5 -4.45 71.65 -4.55 70.85 Q-6.1 65.85 -10.55 62.7 L-10.6 62.55 -10.65 62.25 -10.75 61.95 -10.6 61.35 -10.55 60.8 -8.6 58.55 -6.5 57.0 Q-3.35 55.3 -3.25 51.85 -3.2 51.15 -3.6 50.65 -6.2 47.4 -9.6 45.15 L-9.45 44.85 -9.3 44.55 Q-8.6 44.35 -8.35 43.7 L-8.25 43.4 -8.1 42.85 Q-6.35 42.05 -6.3 40.25 -6.3 39.5 -6.7 39.0 -9.05 36.0 -12.8 34.7 L-12.9 34.45 -13.05 33.9 -12.2 32.6 -11.55 31.8 Q-8.05 28.05 -7.5 23.25 -11.15 20.15 -15.55 19.6 -13.35 16.25 -10.65 13.05 L-10.55 11.9 -10.55 10.2 -11.15 9.25 Q-11.7 8.45 -12.5 8.0 L-12.4 7.75 -10.3 5.4 Q-10.25 4.75 -9.85 4.25 -8.65 2.7 -8.65 0.8 L-8.45 0.5 -8.25 0.2 -8.25 -0.4 -8.25 -0.95 Q-8.55 -1.55 -9.2 -1.55 L-13.55 -0.85 -17.1 0.3 Q-22.1 2.3 -26.7 2.0 L-26.75 1.75 -27.1 1.15 Q-27.0 0.4 -27.25 -0.25 L-27.5 -2.85 -28.0 -3.2 Q-30.5 -3.7 -32.85 -2.05 -36.2 0.25 -39.65 1.25 -40.95 -1.95 -41.2 -5.4 -41.5 -8.9 -44.5 -7.0 -47.95 -4.75 -51.7 -3.05 L-52.25 -3.35 -49.9 -9.7 -49.5 -10.75 Q-47.45 -15.6 -48.9 -20.65 L-50.25 -21.25 -60.4 -25.75 -57.55 -26.95 -49.75 -29.2 Q-43.65 -30.9 -39.4 -34.95 -40.7 -37.15 -43.0 -38.6 -45.5 -40.15 -46.5 -41.65 -42.25 -40.55 -38.3 -38.55 L-36.5 -37.4 Q-33.2 -34.9 -29.6 -35.55 L-29.45 -36.1 -29.4 -36.7 -28.85 -37.6 Q-27.4 -40.25 -26.6 -43.2 -25.25 -41.95 -24.15 -40.35 -20.3 -34.6 -15.75 -29.75 L-15.4 -29.9 Q-14.75 -30.25 -14.4 -30.9 -14.4 -32.95 -14.7 -34.9 L-15.75 -41.3 Q-13.75 -41.7 -12.5 -43.2 L-12.45 -43.8 -12.6 -44.95 -13.1 -45.55 Q-15.25 -48.95 -16.35 -52.7 L-16.05 -53.0 Q-11.3 -53.15 -6.95 -51.15 -2.0 -48.95 -0.85 -53.6 L-0.45 -54.2 Q0.6 -56.1 2.1 -57.6 L2.7 -57.7 7.05 -55.9 Q9.75 -54.9 12.15 -53.45 15.75 -51.25 19.0 -52.8 L19.0 -53.1 Q19.0 -57.65 22.75 -60.3 26.75 -60.4 29.45 -57.1 31.8 -54.2 35.15 -54.55 L35.3 -54.75 35.6 -55.3 41.3 -58.2" fill="#ffff00" fill-opacity="0.49019608" fill-rule="evenodd" stroke="none"/>
  </g>
</svg>
