<?xml version="1.0" encoding="UTF-8" standalone="no"?>
<svg xmlns:ffdec="https://www.free-decompiler.com/flash" xmlns:xlink="http://www.w3.org/1999/xlink" ffdec:objectType="shape" height="158.3px" width="105.8px" xmlns="http://www.w3.org/2000/svg">
  <g transform="matrix(1.0, 0.0, 0.0, 1.0, 44.65, 10.1)">
    <path d="M0.2 -1.95 Q1.2 -1.45 2.1 -2.1 6.0 -4.95 10.45 -6.9 L11.3 -6.6 Q12.4 -5.6 13.05 -4.3 L15.25 0.85 Q17.8 1.5 20.25 0.85 L20.75 1.5 23.25 4.9 23.25 5.2 23.35 5.5 Q25.95 6.75 26.4 3.75 L26.85 3.1 28.05 -0.8 Q28.9 -4.6 29.4 -8.35 31.05 -7.5 32.85 -7.0 35.9 -5.35 37.25 -8.85 L37.65 -9.05 Q38.45 -9.35 38.9 -10.0 39.4 -10.25 39.8 -9.7 40.55 -8.6 40.5 -7.3 L41.4 -6.15 43.2 -2.7 43.6 -2.1 44.05 -1.7 Q47.85 -0.25 52.05 -0.6 53.0 -0.7 53.6 0.0 L53.25 1.5 Q52.75 2.9 52.5 4.35 51.1 5.8 50.05 7.55 L48.9 9.0 Q46.3 11.4 46.75 14.7 L47.65 15.3 48.0 15.8 49.35 17.45 53.2 22.75 53.2 23.35 53.2 23.9 52.25 24.2 Q46.05 24.45 40.9 27.0 40.7 28.55 41.25 29.9 42.25 32.15 41.85 34.5 L41.1 34.8 Q34.55 35.2 28.4 37.1 28.1 37.6 28.15 38.25 L28.25 40.25 Q30.1 41.95 31.35 44.0 L32.2 45.25 Q35.8 50.05 30.9 53.8 L30.85 54.65 30.7 55.25 Q28.9 56.1 27.85 57.7 25.35 61.35 23.6 65.3 24.4 67.0 26.5 67.25 27.95 67.4 29.25 68.1 32.5 69.85 35.15 72.3 35.15 73.35 34.8 74.2 34.15 76.1 34.45 78.1 44.4 79.05 53.3 83.25 L53.2 83.85 53.1 84.4 52.3 85.05 48.6 88.75 48.6 89.6 48.6 90.2 50.05 91.4 Q54.7 93.95 58.65 97.4 L58.25 98.0 57.7 98.85 Q54.95 100.05 53.2 102.4 L53.25 103.25 53.3 103.8 53.55 104.15 53.95 104.7 53.95 105.0 53.95 105.25 56.3 108.1 Q59.4 111.2 61.15 114.95 59.35 114.75 57.8 113.7 54.6 111.6 52.05 113.45 51.5 115.95 51.65 118.6 51.9 123.35 51.3 127.85 L50.9 127.85 49.1 126.45 43.2 122.1 Q40.3 119.75 37.85 121.2 37.7 122.5 37.05 123.65 L34.75 127.55 34.45 129.75 Q33.9 131.9 32.85 133.9 L30.9 133.7 Q27.5 130.95 24.85 134.0 L24.8 134.25 24.75 134.55 24.65 134.85 21.25 143.2 Q19.95 146.75 17.0 148.2 L16.25 147.4 Q15.0 145.95 13.0 145.8 L2.1 145.2 Q2.55 144.2 2.55 143.0 L2.5 139.25 Q1.7 138.3 0.4 138.05 -7.25 136.75 -14.8 136.0 L-14.8 134.95 -14.8 134.1 -14.25 133.45 -13.95 132.9 -13.15 132.3 Q-12.2 131.35 -11.05 130.9 -6.9 129.3 -4.05 126.4 -4.1 125.85 -4.55 125.55 -7.9 123.1 -10.95 120.25 -7.35 120.3 -3.95 121.1 L-3.65 121.4 -3.25 121.7 -3.25 121.95 -3.2 122.25 -2.3 122.75 -1.9 122.5 -1.35 122.0 -1.35 121.4 -1.35 120.8 -1.55 120.55 -2.2 119.95 -2.5 119.45 -4.8 116.2 Q-4.75 115.75 -5.0 115.4 -5.7 114.45 -5.95 113.35 L-2.7 113.2 Q0.45 112.3 0.45 109.5 L-0.25 108.6 Q-4.0 105.0 -7.7 102.3 L-7.5 102.0 -7.3 101.7 Q-3.85 99.7 -0.2 97.95 L0.15 97.45 1.25 96.05 1.35 95.2 1.35 94.3 0.3 93.25 -4.45 90.3 -4.7 89.85 Q-5.0 89.55 -5.4 89.3 L-5.55 89.1 -5.6 88.85 -5.6 88.55 Q-1.65 86.1 -2.45 81.95 -2.6 81.05 -3.3 80.45 -6.7 77.45 -11.35 76.35 L-10.7 75.75 -9.25 74.65 Q-3.1 70.9 -3.65 63.95 L-3.9 63.75 -7.1 61.1 Q-7.3 59.7 -7.0 58.45 L-6.35 56.85 Q-3.35 52.15 -3.25 46.7 -3.5 46.4 -3.8 46.35 L-8.1 46.55 -14.9 48.3 -15.25 47.8 -16.6 45.45 -17.3 44.9 Q-17.7 44.6 -18.0 44.65 -21.3 45.2 -24.6 46.35 -29.5 48.0 -34.0 49.1 L-34.9 45.6 Q-35.15 44.4 -35.75 43.45 -38.6 38.75 -44.3 37.0 -40.35 35.85 -37.15 33.45 -37.25 29.6 -39.7 26.4 -43.4 21.55 -44.65 15.85 L-40.9 16.35 Q-39.1 16.6 -37.65 15.95 -34.05 14.2 -32.3 10.3 L-31.9 10.3 Q-30.9 12.05 -29.35 13.35 -27.85 14.5 -27.05 16.15 -25.6 19.1 -22.85 19.2 L-22.5 18.8 Q-20.55 17.0 -18.95 15.0 L-18.05 14.8 Q-17.5 14.7 -17.1 14.3 -16.35 14.95 -15.35 14.9 -13.55 17.35 -10.85 16.8 -10.1 14.5 -10.95 12.15 -12.8 7.05 -13.65 1.85 L-12.3 2.5 Q-9.0 4.0 -6.35 2.5 L-6.35 0.2 -6.35 -3.55 -6.05 -3.85 -5.6 -4.4 -5.55 -4.7 -5.4 -5.25 -5.05 -5.6 -4.9 -5.75 Q-3.6 -3.9 -1.45 -3.15 L0.2 -1.95" fill="#ffff00" fill-opacity="0.49019608" fill-rule="evenodd" stroke="none"/>
  </g>
</svg>
