<?xml version="1.0" encoding="UTF-8" standalone="no"?>
<svg xmlns:ffdec="https://www.free-decompiler.com/flash" xmlns:xlink="http://www.w3.org/1999/xlink" ffdec:objectType="shape" height="147.45px" width="106.5px" xmlns="http://www.w3.org/2000/svg">
  <g transform="matrix(1.0, 0.0, 0.0, 1.0, 34.05, 100.9)">
    <path d="M15.9 -95.6 Q17.05 -94.85 18.15 -94.65 18.95 -94.5 19.8 -94.65 L19.9 -94.65 19.95 -94.65 Q21.4 -93.55 23.4 -94.2 24.4 -93.9 25.5 -94.65 28.4 -95.65 30.2 -95.5 L30.1 -95.2 30.0 -94.65 29.25 -93.75 28.2 -92.35 Q28.3 -91.7 28.05 -91.15 27.7 -90.5 27.8 -89.75 28.25 -88.9 29.15 -88.65 32.75 -87.7 35.1 -85.6 L34.65 -85.1 Q31.3 -81.8 27.4 -79.25 L27.4 -78.7 27.4 -78.1 27.75 -77.5 Q28.05 -76.8 28.95 -76.65 L29.35 -76.2 33.1 -72.15 Q29.4 -70.5 25.85 -68.05 L25.85 -66.6 25.85 -64.3 26.2 -64.05 27.05 -63.15 Q20.65 -63.05 16.65 -58.7 L16.65 -58.4 16.7 -57.85 16.75 -57.25 19.45 -55.75 19.75 -55.2 20.4 -54.3 20.55 -53.45 20.4 -52.3 Q19.7 -51.65 19.6 -50.8 L18.85 -47.65 18.55 -47.4 18.55 -46.5 18.65 -45.35 19.55 -45.05 25.5 -44.4 24.0 -40.05 Q22.7 -36.35 23.3 -32.3 L24.15 -31.8 Q26.6 -32.85 29.35 -32.6 L29.25 -29.25 Q29.05 -26.25 29.8 -23.45 L30.65 -23.25 Q35.05 -23.75 39.3 -23.45 L39.35 -23.2 39.7 -22.6 39.8 -21.45 Q40.05 -20.65 40.45 -20.0 40.4 -19.4 40.6 -18.9 L41.35 -16.55 Q41.75 -16.3 42.15 -16.35 L51.7 -17.3 52.2 -15.9 Q52.4 -14.35 53.15 -13.0 L53.15 -12.7 53.15 -12.4 Q53.85 -11.5 54.9 -11.4 L64.3 -10.9 63.8 -9.75 62.75 -8.1 62.75 -7.25 62.75 -6.35 63.6 -5.35 Q67.55 -2.2 70.8 1.4 66.6 3.35 62.75 6.0 L62.75 6.3 62.75 6.9 62.75 7.45 63.4 8.1 Q67.8 13.05 72.45 17.55 69.05 17.4 66.6 19.45 66.4 21.6 66.9 23.5 67.85 27.3 69.65 30.7 L69.3 30.8 Q66.5 29.45 64.65 31.45 L64.7 34.9 Q64.8 37.9 64.5 40.7 L64.1 40.9 63.5 41.15 63.2 40.7 62.35 39.8 62.35 39.55 62.35 39.25 62.15 39.0 61.3 38.4 Q61.2 37.85 60.7 37.7 56.15 36.15 53.45 40.3 53.1 40.45 52.9 40.7 52.0 41.7 50.85 41.65 L50.5 41.15 49.8 40.2 49.7 39.9 49.7 39.65 Q48.7 38.0 46.9 37.6 L40.75 37.05 40.95 36.45 41.55 35.6 41.65 34.15 41.6 32.7 Q38.15 30.35 33.95 29.45 33.35 29.0 33.05 28.4 31.55 25.15 28.35 23.5 L28.0 23.65 27.6 23.9 Q27.3 24.4 27.5 25.0 28.1 26.6 29.25 27.9 L29.3 28.5 29.35 29.05 30.15 29.95 Q31.2 31.1 31.25 32.5 27.65 32.55 24.7 33.7 L24.7 34.55 24.8 35.7 25.1 36.0 25.5 36.55 25.5 36.85 25.5 37.15 25.5 37.4 26.25 38.55 Q26.8 39.5 26.65 40.6 L26.9 40.9 27.05 41.15 24.35 40.7 Q22.15 39.55 19.6 38.95 L13.75 38.5 Q13.45 39.85 13.55 41.35 L13.4 46.55 13.0 46.55 Q7.15 40.85 -1.0 40.85 L-1.5 40.6 -0.7 39.45 Q0.0 38.1 0.15 36.55 -4.9 33.85 -10.8 32.9 L-8.75 32.25 Q-5.1 30.05 -4.95 26.0 L-14.25 19.95 Q-12.35 18.85 -10.2 18.05 -7.15 17.0 -6.15 14.15 -5.95 13.6 -6.3 13.3 -10.05 10.55 -12.95 7.05 -10.35 7.25 -8.7 5.8 -8.7 3.75 -9.9 1.9 -12.25 -1.65 -13.3 -5.7 L-13.75 -6.25 Q-14.1 -6.65 -14.1 -7.15 L-12.7 -7.1 Q-9.25 -5.85 -5.9 -6.35 L-5.3 -7.55 -4.2 -10.4 Q-0.3 -9.5 3.2 -7.15 L3.35 -7.0 Q4.4 -6.0 5.6 -6.75 L6.5 -8.05 Q8.2 -10.55 8.95 -13.4 8.4 -14.35 7.3 -14.5 3.25 -15.05 0.5 -16.25 0.95 -16.75 1.5 -17.1 4.35 -18.9 4.25 -22.05 L3.45 -22.65 -7.95 -25.1 -7.95 -27.0 -7.95 -29.9 Q-8.5 -30.9 -9.65 -30.65 -14.95 -29.5 -19.45 -29.6 L-19.05 -30.45 Q-18.9 -31.15 -18.4 -31.65 L-18.35 -32.2 -18.4 -32.8 Q-19.8 -34.6 -22.05 -35.0 -23.85 -35.85 -25.8 -36.45 L-25.5 -36.65 Q-24.7 -37.05 -24.35 -37.85 -23.45 -38.15 -23.0 -38.9 -21.7 -40.85 -22.15 -43.35 -24.5 -46.6 -28.2 -47.65 L-28.3 -47.75 Q-29.35 -48.4 -30.0 -49.1 L-29.8 -49.35 -29.05 -49.7 -28.85 -49.85 Q-26.35 -51.4 -24.45 -53.7 L-24.4 -54.6 -24.55 -55.45 -25.45 -56.65 Q-28.25 -60.95 -32.5 -63.8 L-32.6 -63.95 -28.1 -66.4 -27.85 -66.95 -27.5 -67.55 -27.6 -69.55 Q-27.75 -71.95 -28.6 -74.15 L-29.0 -74.5 -29.05 -74.75 -29.2 -75.3 -29.45 -76.2 Q-27.05 -76.15 -25.05 -77.15 L-24.95 -77.45 -24.85 -78.0 -24.75 -78.6 -24.45 -78.9 -24.05 -79.45 -24.05 -80.6 -24.05 -81.75 Q-28.65 -84.95 -34.05 -86.35 -28.75 -88.35 -23.8 -90.8 L-23.75 -91.35 -23.8 -91.95 -24.0 -92.2 -24.35 -92.5 -24.55 -93.1 -25.2 -94.25 -25.2 -94.65 -25.35 -95.1 -26.35 -96.55 -26.4 -96.85 -26.45 -97.4 Q-23.95 -95.75 -21.3 -96.25 L-20.7 -97.05 Q-19.75 -98.0 -19.15 -99.15 L-18.7 -99.45 -16.85 -100.85 Q-15.65 -101.15 -14.9 -100.05 -12.95 -97.2 -9.85 -97.3 L-7.15 -99.25 -6.0 -99.25 -5.75 -94.65 -5.75 -94.45 Q-5.65 -92.95 -4.25 -92.8 L1.6 -92.35 1.6 -92.15 2.65 -91.25 Q4.3 -89.3 6.45 -87.9 L6.85 -88.05 7.25 -88.3 7.55 -89.45 Q8.05 -91.05 7.75 -92.65 L7.45 -94.65 7.05 -99.25 9.15 -99.25 Q10.55 -98.1 12.2 -97.45 14.15 -96.7 15.9 -95.6" fill="#ffff00" fill-opacity="0.5019608" fill-rule="evenodd" stroke="none"/>
  </g>
</svg>
