<?xml version="1.0" encoding="UTF-8" standalone="no"?>
<svg xmlns:ffdec="https://www.free-decompiler.com/flash" xmlns:xlink="http://www.w3.org/1999/xlink" ffdec:objectType="shape" height="193.4px" width="113.25px" xmlns="http://www.w3.org/2000/svg">
  <g transform="matrix(1.0, 0.0, 0.0, 1.0, 24.4, 93.9)">
    <path d="M61.65 -84.15 L61.65 -83.55 61.75 -82.1 62.05 -81.85 62.7 -81.55 68.55 -75.3 68.55 -74.7 68.55 -73.55 Q65.6 -71.7 62.2 -70.5 L61.85 -69.35 Q61.45 -64.75 64.45 -61.55 L64.75 -60.8 Q66.15 -58.6 66.05 -56.35 L64.5 -56.05 56.3 -55.05 55.9 -54.75 55.9 -54.15 55.9 -53.0 Q59.0 -49.6 61.25 -45.5 59.4 -44.4 56.85 -44.35 52.2 -44.25 48.6 -41.8 L48.6 -41.2 48.7 -40.6 49.0 -40.35 49.75 -39.95 49.95 -39.7 Q52.95 -37.45 53.5 -34.2 51.5 -32.4 48.85 -31.35 46.65 -30.5 44.6 -29.25 39.1 -25.95 38.6 -20.05 L43.2 -15.95 43.2 -15.65 43.2 -15.35 Q45.35 -12.5 43.4 -9.1 40.55 -4.1 41.0 1.65 L41.85 1.9 Q46.8 1.9 50.1 5.4 L50.1 5.95 50.05 6.55 49.55 7.1 48.55 8.35 Q45.15 12.1 43.5 16.6 L43.1 17.2 Q42.6 18.0 42.9 18.9 47.65 20.75 51.75 23.35 L51.7 23.9 Q51.5 25.55 50.1 26.5 L50.1 26.8 50.1 27.1 50.05 27.35 Q47.95 28.8 46.3 30.85 L46.3 31.4 46.4 32.0 Q46.95 32.5 47.8 32.5 58.05 32.45 67.05 36.5 L66.65 37.35 Q65.7 39.65 65.6 41.95 72.5 43.4 78.15 47.75 76.2 49.25 73.95 50.3 L73.95 50.9 73.95 51.5 Q75.6 53.75 77.85 55.45 83.1 59.4 87.85 63.85 84.95 65.05 82.4 66.65 L82.4 67.25 82.4 68.65 82.6 68.95 82.8 69.25 Q82.65 69.9 83.0 70.45 85.45 74.25 86.35 78.45 L86.65 78.7 87.75 79.15 87.95 79.9 Q88.1 81.15 88.85 82.2 87.5 82.1 86.6 83.0 L86.6 83.25 86.5 83.55 86.15 83.85 85.85 84.15 85.85 84.4 85.85 84.7 85.75 85.0 85.0 86.1 Q83.55 89.45 82.5 93.05 L82.05 93.4 80.95 94.8 80.55 94.8 Q79.5 93.45 77.75 93.2 L74.05 93.55 Q70.05 95.15 65.85 94.9 L65.85 93.85 65.85 91.25 Q65.65 90.95 65.4 90.95 60.7 91.1 56.0 92.1 56.35 91.05 57.0 90.2 60.2 86.05 60.1 80.85 59.35 79.9 58.0 79.95 L53.0 80.0 Q51.4 76.0 49.35 72.15 48.55 70.6 47.15 70.0 L46.6 70.1 Q44.1 74.7 43.1 80.0 L42.8 80.25 42.55 80.3 37.1 74.6 Q34.05 71.35 30.25 69.65 27.4 67.85 26.1 70.95 L22.45 78.75 22.5 79.35 22.35 80.75 Q21.3 82.8 19.1 81.9 L13.7 78.9 Q11.25 77.5 9.0 78.35 L9.0 78.95 9.0 79.8 10.75 82.7 15.85 94.1 12.75 93.3 10.45 92.8 Q6.5 91.5 3.65 94.5 L3.6 94.8 3.55 95.1 3.15 95.4 2.85 95.65 2.9 96.5 2.8 97.95 1.65 97.55 Q-2.05 95.15 -4.5 98.35 L-5.95 99.5 -6.35 99.5 Q-11.3 93.4 -18.75 94.5 -18.0 93.1 -18.5 91.5 -20.0 86.55 -23.65 82.8 L-23.65 82.2 -23.55 81.35 Q-22.9 80.85 -22.15 80.5 L-20.55 79.5 Q-17.65 76.8 -20.8 73.35 L-21.4 72.8 Q-22.9 71.5 -23.25 69.7 L-23.8 69.3 -24.4 68.65 Q-23.95 68.0 -22.9 68.25 L-22.85 68.4 -21.1 69.9 -19.6 70.9 -19.15 70.65 -18.85 70.4 -18.65 70.1 -18.65 69.8 -18.65 69.55 -18.65 69.25 -18.65 68.95 -18.85 68.7 -19.6 68.25 -20.1 68.1 -20.4 67.8 -20.75 67.5 -20.95 67.35 -20.95 67.05 -21.45 66.7 -21.5 66.7 -23.25 64.55 -23.85 63.6 -24.1 63.25 -24.0 63.0 Q-18.95 63.4 -15.3 60.6 L-15.15 57.45 Q-15.25 56.0 -16.55 55.5 L-18.7 52.65 Q-20.2 50.85 -21.05 48.7 L-18.05 48.4 Q-12.45 48.1 -8.1 45.15 -7.2 42.65 -7.55 39.95 -7.95 36.75 -6.85 34.2 -2.6 34.05 1.2 35.95 5.35 38.05 9.5 37.95 10.0 35.0 9.9 31.9 L9.8 26.1 Q11.4 26.15 12.85 26.75 15.65 27.9 17.75 26.1 L17.95 24.95 Q18.0 23.5 17.4 22.2 16.65 20.65 16.4 18.9 L15.95 18.6 15.75 18.35 Q15.45 16.9 14.6 15.65 13.9 14.65 12.75 14.0 L10.45 10.8 Q8.85 8.8 7.85 6.55 L9.65 5.9 10.65 5.4 12.3 5.15 12.85 5.0 13.05 4.8 13.25 4.5 13.45 4.25 Q15.15 3.45 16.3 2.0 17.4 0.65 17.85 -0.95 L17.65 -1.25 17.45 -1.55 17.45 -1.85 17.45 -2.1 Q15.45 -4.0 12.75 -4.9 L10.3 -5.55 Q6.2 -6.4 3.15 -8.15 L3.3 -8.4 4.15 -9.1 4.3 -9.3 Q4.45 -11.3 5.15 -13.2 5.65 -14.5 5.55 -15.95 L4.55 -17.25 Q3.3 -18.35 1.7 -18.8 -1.4 -19.75 -4.45 -19.3 -4.05 -21.4 -4.05 -23.65 L-4.05 -27.1 -4.25 -27.35 -4.45 -27.65 -4.45 -27.95 -4.45 -28.25 -4.7 -28.85 Q-4.9 -29.35 -5.35 -29.45 L-15.75 -29.75 -12.2 -35.75 Q-9.45 -40.5 -9.4 -45.9 L-10.75 -47.4 Q-11.4 -47.95 -12.3 -48.0 -12.95 -49.1 -14.2 -49.55 -15.9 -50.2 -16.7 -51.5 -15.5 -53.85 -12.7 -54.75 -8.25 -56.2 -4.8 -58.95 L-4.8 -59.55 -4.8 -61.25 Q-4.75 -61.75 -5.1 -62.15 L-5.75 -62.7 -6.3 -63.35 -6.35 -63.6 Q-4.25 -65.9 -1.1 -67.2 3.2 -68.9 4.8 -72.8 4.3 -74.15 3.05 -74.85 0.95 -76.05 -0.2 -77.6 L1.4 -78.25 Q4.25 -79.15 6.35 -80.85 5.6 -83.1 4.05 -84.95 1.6 -87.85 0.45 -91.25 L2.3 -90.85 Q7.35 -89.85 11.9 -87.8 L12.3 -87.9 12.45 -88.0 12.65 -88.15 12.75 -88.45 12.85 -88.75 12.85 -89.05 12.85 -89.3 12.65 -89.5 12.4 -89.6 12.5 -90.45 12.9 -91.0 Q13.95 -92.35 14.0 -93.9 L14.8 -93.65 Q16.45 -90.5 18.65 -87.6 20.4 -85.25 22.45 -87.3 24.7 -89.6 27.25 -89.4 L27.5 -88.85 27.85 -88.25 Q27.8 -87.8 28.0 -87.45 29.05 -85.65 29.1 -83.65 32.0 -82.4 32.05 -85.65 L32.25 -85.95 32.45 -86.25 32.55 -86.75 33.6 -88.85 34.75 -89.1 Q36.25 -87.95 38.15 -87.4 38.95 -87.15 39.4 -87.8 41.35 -90.25 42.05 -93.35 L46.95 -92.6 49.5 -90.2 Q50.2 -89.6 51.05 -89.65 57.8 -90.15 63.2 -87.0 L63.05 -86.45 Q62.55 -85.2 61.65 -84.15" fill="#ffff00" fill-opacity="0.49019608" fill-rule="evenodd" stroke="none"/>
  </g>
</svg>
