<?xml version="1.0" encoding="UTF-8" standalone="no"?>
<svg xmlns:ffdec="https://www.free-decompiler.com/flash" xmlns:xlink="http://www.w3.org/1999/xlink" ffdec:objectType="shape" height="196.65px" width="117.65px" xmlns="http://www.w3.org/2000/svg">
  <g transform="matrix(1.0, 0.0, 0.0, 1.0, 22.95, 28.5)">
    <path d="M33.3 -24.9 L33.7 -25.75 Q34.4 -25.95 34.65 -26.6 L35.05 -26.6 Q37.5 -24.0 40.9 -23.8 L41.15 -23.6 Q42.75 -21.95 43.6 -23.9 L43.25 -24.45 Q42.9 -24.95 43.2 -25.35 L43.4 -25.65 Q44.4 -27.3 46.0 -28.5 46.65 -28.6 47.05 -27.55 48.4 -23.95 51.5 -21.45 52.35 -20.75 53.2 -21.3 57.8 -24.3 62.8 -26.1 L63.6 -25.2 Q64.45 -24.05 64.35 -22.65 L64.9 -21.75 65.6 -19.5 Q67.55 -18.2 69.8 -17.95 L70.85 -17.1 Q68.25 -14.9 65.3 -13.05 63.85 -12.6 63.2 -11.3 L63.15 -10.45 63.3 -8.75 64.35 -7.3 Q67.25 -3.7 69.7 0.2 69.3 1.0 68.35 1.35 64.85 2.8 62.8 5.6 L62.85 6.75 63.3 9.3 63.8 9.95 65.85 12.8 65.9 13.35 65.95 13.95 66.7 14.55 Q67.4 15.3 67.4 16.25 L67.05 16.55 64.7 16.75 Q60.65 16.8 58.2 19.4 L58.15 20.0 58.3 20.85 59.1 21.65 Q61.65 24.6 62.8 28.05 L62.65 28.3 61.65 29.2 57.95 30.3 Q52.85 31.7 48.95 34.75 L48.95 35.65 49.05 37.35 50.0 38.05 Q53.65 39.65 56.95 41.9 L56.95 42.1 Q55.75 44.35 54.05 46.2 L53.6 46.5 Q48.95 49.4 47.05 54.0 47.95 55.15 49.55 55.4 54.15 56.1 57.8 58.2 55.45 62.45 52.3 66.25 49.6 69.55 49.45 73.5 L50.35 73.75 Q55.75 74.4 60.1 77.3 59.95 82.75 57.7 87.65 54.35 94.9 54.75 102.95 L55.0 103.25 55.65 103.6 70.5 104.4 Q70.55 107.1 71.45 109.6 71.9 110.8 73.0 110.95 79.35 111.75 84.7 114.7 L84.5 115.15 83.05 117.25 Q82.35 117.4 82.05 118.05 81.45 119.25 81.6 120.65 84.25 123.2 86.7 126.25 L90.25 130.45 Q88.0 131.65 88.5 134.35 L88.85 136.15 Q89.5 140.0 92.0 142.7 L92.4 143.85 93.9 147.35 94.0 148.2 Q94.2 149.25 94.7 150.2 93.4 150.1 92.5 150.9 L92.4 151.15 92.4 151.45 92.05 151.8 91.6 152.3 91.65 154.05 91.5 158.85 91.05 158.85 Q86.55 156.7 83.15 160.4 L82.3 161.5 Q80.25 164.9 77.7 167.8 L77.2 167.1 Q76.15 165.55 75.65 163.85 L74.7 163.25 74.6 163.0 74.5 162.7 Q71.9 160.5 68.45 160.25 L58.2 159.7 58.8 159.1 60.5 156.55 60.95 156.2 61.15 155.95 61.2 155.7 Q60.6 153.4 58.5 151.65 L58.15 149.95 Q57.85 146.85 57.05 143.85 56.75 143.25 56.1 143.3 51.95 143.55 51.3 147.9 L48.65 143.95 Q45.95 140.05 42.05 143.25 L40.9 144.55 37.35 149.65 37.05 149.15 36.85 148.85 Q34.3 147.65 32.65 145.4 L31.5 144.7 Q29.05 142.55 26.7 144.45 L26.65 145.6 Q26.6 146.65 26.8 147.6 L27.5 148.4 30.15 153.65 Q26.2 152.8 23.25 154.25 L23.2 154.8 23.35 155.7 23.8 156.25 Q25.05 157.55 25.65 159.15 L25.9 159.45 Q27.7 161.25 28.9 163.35 L26.6 162.75 15.35 158.45 15.0 158.6 14.4 159.05 14.35 160.2 Q14.2 161.8 15.15 163.1 15.05 163.6 15.35 163.95 16.0 164.85 15.95 165.95 8.7 166.05 2.0 168.15 L1.35 167.55 Q1.1 167.3 0.8 167.2 -5.0 164.9 -11.05 164.9 -11.45 162.75 -13.2 161.85 -17.75 159.5 -22.65 157.8 -23.0 157.3 -22.95 156.65 L-22.85 153.75 -22.65 153.5 -22.2 152.9 -17.7 152.5 -17.3 152.3 Q-16.8 150.45 -17.5 148.6 L-20.55 140.2 -13.1 139.9 -12.4 139.75 Q-11.35 137.85 -11.7 135.65 -12.3 131.85 -12.5 127.95 -8.9 128.3 -5.5 127.85 L-5.3 127.55 -4.5 126.4 Q-4.1 124.25 -4.1 122.05 L-4.05 113.7 -3.7 113.1 -3.65 112.85 Q-2.85 112.3 -1.25 113.05 0.35 114.6 1.7 113.15 L1.7 112.85 1.7 112.55 Q3.05 110.7 2.95 108.25 2.8 104.2 2.95 100.15 L3.25 99.9 4.8 99.9 6.4 101.0 Q8.6 102.7 10.5 104.75 12.55 106.9 14.9 106.7 L15.45 105.45 Q17.35 101.8 19.6 98.35 21.75 98.25 23.25 97.0 23.15 95.65 21.95 94.9 18.45 92.55 16.9 88.95 L17.45 88.65 18.55 88.3 Q22.3 87.9 24.0 85.2 L17.35 77.7 17.5 77.45 Q18.4 75.75 19.85 74.55 L21.4 73.7 Q25.0 71.8 25.15 68.2 24.35 67.1 23.05 67.25 L22.85 67.1 Q17.55 64.7 14.8 59.55 L14.8 59.0 14.9 58.7 15.15 58.4 15.55 57.8 15.55 57.55 15.55 57.25 15.85 56.95 16.6 56.1 16.75 54.1 16.4 53.5 6.6 49.25 6.35 48.7 5.25 47.25 4.95 46.15 Q4.05 44.2 4.05 42.05 3.75 41.45 3.05 41.4 -1.15 41.2 -4.45 39.75 L-4.0 39.4 -2.1 37.45 -2.1 37.15 -2.1 36.9 -1.85 36.6 -0.6 35.15 -0.6 34.85 -0.6 34.6 Q-0.1 34.25 0.0 33.7 0.55 31.1 -1.35 29.1 L-1.35 28.55 -1.35 28.25 Q-1.95 27.3 -3.2 27.3 L-3.5 26.75 -4.8 25.0 -4.85 24.4 -5.0 24.1 Q-1.75 22.7 1.15 20.55 L1.45 19.4 Q1.6 17.3 0.2 15.65 L-0.05 14.55 Q-0.95 12.85 -1.35 11.05 L0.4 10.85 Q3.7 10.9 5.85 8.85 6.1 6.8 5.5 4.8 4.3 0.65 3.75 -3.55 L4.05 -3.85 Q8.25 -3.5 11.25 -5.75 L11.35 -10.65 11.3 -19.3 Q12.2 -18.7 13.25 -18.55 L15.95 -18.6 15.95 -20.35 Q15.9 -23.25 17.2 -25.85 19.1 -26.9 20.65 -25.6 23.45 -23.3 26.5 -22.0 29.6 -20.65 31.8 -23.8 L32.25 -24.0 32.95 -24.3 33.3 -24.9" fill="#ffff00" fill-opacity="0.49019608" fill-rule="evenodd" stroke="none"/>
  </g>
</svg>
