<?xml version="1.0" encoding="UTF-8" standalone="no"?>
<svg xmlns:ffdec="https://www.free-decompiler.com/flash" xmlns:xlink="http://www.w3.org/1999/xlink" ffdec:objectType="shape" height="216.95px" width="180.0px" xmlns="http://www.w3.org/2000/svg">
  <g transform="matrix(1.0, 0.0, 0.0, 1.0, 62.85, -34.2)">
    <path d="M52.05 34.2 L52.35 34.55 52.45 34.75 52.2 36.75 Q51.85 37.85 52.05 39.1 L52.55 39.6 53.4 40.15 Q59.45 37.25 66.45 37.95 L68.7 37.95 Q73.05 37.35 74.9 40.55 74.2 43.5 72.2 45.7 67.75 50.65 63.95 56.1 L63.95 56.4 64.0 57.55 64.05 58.1 Q70.5 60.5 75.75 65.0 L75.85 65.3 75.85 65.6 75.75 65.9 Q70.5 69.1 65.85 72.95 60.85 77.0 65.4 81.45 L65.45 81.75 65.5 82.0 65.6 82.3 Q67.35 83.95 67.15 86.35 L66.7 87.6 Q63.3 92.3 59.35 96.9 56.1 100.7 55.6 105.35 L55.9 105.55 58.0 106.15 Q56.95 108.35 55.3 110.25 51.8 114.2 48.95 118.5 L48.95 119.1 49.0 119.65 49.05 119.95 49.95 120.25 54.45 120.75 55.25 121.35 55.8 121.9 55.75 123.6 54.05 127.65 Q53.4 127.9 53.15 128.5 L52.8 129.1 52.8 129.35 52.85 130.5 52.9 131.1 Q65.35 133.45 77.95 136.15 89.85 138.7 101.65 141.8 109.15 143.8 116.75 145.25 L117.15 145.35 117.15 251.15 -62.85 251.15 -62.85 126.65 Q-37.75 124.45 -12.4 125.7 L-9.3 125.8 Q-3.7 125.9 1.75 127.05 L8.85 127.25 9.6 127.3 Q10.5 127.15 10.55 126.3 10.0 125.35 10.1 124.3 L10.15 123.15 Q6.6 120.75 2.3 119.85 L1.95 119.45 Q1.05 118.65 -0.2 118.7 -0.3 117.8 0.05 117.0 1.55 113.9 1.7 110.45 -0.7 106.2 -5.25 104.25 -7.75 103.25 -8.45 101.9 -2.25 98.75 3.95 95.95 4.1 95.4 3.8 94.95 1.55 91.8 -1.75 89.35 -6.5 85.9 -9.25 81.25 -6.9 80.3 -4.35 79.8 -3.85 78.6 -3.9 77.2 -3.95 73.05 -5.2 69.15 L-4.8 69.2 -3.35 69.45 Q-1.3 71.3 1.35 70.7 L1.95 69.9 2.5 69.35 3.05 67.35 Q3.85 63.15 5.95 59.25 6.5 58.95 7.15 58.8 8.1 58.45 8.35 57.55 11.95 57.8 14.4 55.5 L14.4 55.25 14.4 54.95 14.6 54.65 14.8 54.35 Q14.65 53.7 14.8 53.15 15.3 50.8 14.95 48.35 14.3 43.65 14.4 38.8 L14.8 38.8 Q16.05 39.75 17.5 40.2 L18.95 40.1 Q21.3 38.85 22.85 36.4 L23.7 36.0 24.0 35.75 Q25.0 35.8 25.8 36.2 27.7 37.2 29.65 37.75 30.55 39.15 32.15 39.7 L34.05 39.5 Q42.6 34.95 52.05 34.2" fill="#ffff00" fill-opacity="0.49019608" fill-rule="evenodd" stroke="none"/>
  </g>
</svg>
