<?xml version="1.0" encoding="UTF-8" standalone="no"?>
<svg xmlns:ffdec="https://www.free-decompiler.com/flash" xmlns:xlink="http://www.w3.org/1999/xlink" ffdec:objectType="shape" height="178.4px" width="89.25px" xmlns="http://www.w3.org/2000/svg">
  <g transform="matrix(1.0, 0.0, 0.0, 1.0, 9.4, -51.4)">
    <path d="M27.1 61.35 Q29.2 65.15 28.9 69.45 28.8 71.5 27.0 72.8 21.6 76.6 18.6 82.35 L17.85 83.75 Q14.85 88.6 13.95 94.25 19.15 100.4 23.55 107.2 26.75 110.15 28.45 113.9 L29.1 111.85 Q31.6 102.9 32.6 93.65 33.1 89.4 35.15 85.75 37.2 82.15 39.8 78.85 L48.0 68.75 Q50.15 66.15 49.05 63.05 48.1 60.4 47.65 57.65 45.05 54.1 48.55 51.85 L49.45 51.4 Q53.6 53.35 54.0 58.3 54.35 62.0 55.15 65.6 55.7 68.25 54.05 70.35 47.3 78.95 40.9 87.85 38.85 90.7 38.55 94.3 38.05 99.85 36.75 105.35 34.95 113.15 32.45 120.85 L32.95 122.0 Q33.75 123.4 33.9 125.45 L34.3 127.8 37.45 138.4 Q39.15 143.75 39.85 149.35 L41.6 163.8 Q42.65 165.9 42.75 168.4 L42.75 169.85 43.05 170.7 Q44.3 170.95 44.8 171.75 53.75 174.9 61.95 179.65 63.9 180.75 66.0 181.45 67.25 181.85 67.8 183.1 L73.85 197.1 74.55 198.95 Q75.8 202.95 76.65 207.05 80.5 207.35 79.75 211.25 79.4 212.95 77.6 213.1 L77.8 214.9 Q77.95 216.6 76.35 217.2 73.55 218.3 72.7 215.65 71.3 215.9 69.7 213.85 69.15 213.1 69.4 212.1 69.85 210.25 71.0 209.05 L68.8 200.4 Q67.65 195.9 65.5 191.65 64.25 189.3 62.6 187.3 61.1 185.45 58.75 184.3 L51.55 180.7 Q48.25 179.05 44.8 177.95 L45.05 179.9 Q45.35 182.4 45.3 184.95 46.7 187.5 46.7 190.6 46.7 195.5 43.25 198.95 L40.3 201.15 39.0 201.7 38.8 201.8 26.8 201.25 27.3 200.85 28.15 200.25 28.0 200.2 27.35 199.7 26.55 198.95 25.85 198.2 Q23.1 194.95 23.1 190.6 23.1 186.3 25.8 183.1 L25.05 183.3 Q17.4 185.55 10.1 188.65 L7.15 201.6 Q6.0 206.5 4.35 211.2 3.45 213.7 3.0 216.3 L2.55 219.05 7.0 219.65 Q8.95 219.9 9.1 221.9 9.4 226.45 4.55 225.6 L1.15 224.8 -0.15 228.85 Q-0.45 229.75 -1.45 229.8 -4.55 229.85 -4.8 227.35 -7.0 227.95 -9.05 225.75 -9.6 225.15 -9.25 224.35 -7.95 221.3 -4.95 219.85 -4.25 219.5 -3.55 219.25 -2.2 212.75 -0.15 206.5 1.55 201.2 2.5 195.75 3.4 190.85 4.75 186.05 5.25 184.2 7.1 183.5 21.45 178.05 36.1 173.45 36.95 173.2 37.7 172.7 L36.15 165.35 35.55 162.6 Q34.45 157.35 34.0 151.9 33.55 145.7 31.7 139.75 L31.6 138.9 Q28.85 131.7 27.1 124.3 L27.0 123.25 Q26.4 121.6 26.55 119.95 25.75 119.6 24.95 118.55 L22.35 115.0 Q16.7 107.25 10.5 99.85 9.35 98.55 8.6 96.95 8.1 96.0 8.15 94.8 8.45 87.75 11.95 81.5 16.4 73.5 23.45 67.75 20.3 62.6 19.55 56.75 19.2 53.75 22.2 53.35 25.65 54.85 26.3 59.05 26.5 60.3 27.1 61.35 M38.65 179.4 L38.65 179.2 38.4 179.3 38.65 179.4" fill="#000000" fill-rule="evenodd" stroke="none"/>
  </g>
</svg>
