<?xml version="1.0" encoding="UTF-8" standalone="no"?>
<svg xmlns:ffdec="https://www.free-decompiler.com/flash" xmlns:xlink="http://www.w3.org/1999/xlink" ffdec:objectType="shape" height="171.05px" width="110.2px" xmlns="http://www.w3.org/2000/svg">
  <g transform="matrix(1.0, 0.0, 0.0, 1.0, 37.85, 162.9)">
    <path d="M48.95 -158.55 L49.3 -158.0 Q50.95 -154.6 53.15 -151.65 53.1 -150.4 54.1 -149.6 54.4 -149.35 54.7 -149.35 57.45 -149.3 59.3 -152.15 L62.35 -152.5 62.7 -152.2 62.75 -151.95 62.75 -151.65 62.75 -151.35 62.75 -151.1 62.4 -150.5 61.6 -149.35 61.6 -148.8 61.5 -148.2 61.2 -147.9 61.2 -147.35 61.2 -146.45 Q66.7 -141.25 72.35 -136.4 L64.9 -135.8 Q64.2 -135.75 63.9 -135.05 L63.9 -134.2 63.9 -133.3 64.15 -133.0 64.3 -132.75 Q64.3 -131.4 64.85 -130.25 67.2 -125.4 66.9 -120.05 L63.15 -121.8 61.7 -123.25 Q58.4 -125.95 55.85 -123.25 L55.85 -122.95 55.85 -122.65 55.65 -122.4 53.4 -119.65 53.35 -119.7 53.35 -119.65 52.95 -119.6 52.7 -119.4 Q52.2 -119.05 52.0 -118.5 L52.0 -117.95 Q51.9 -113.45 51.15 -109.0 49.3 -108.8 47.5 -109.45 43.05 -110.95 38.75 -110.45 38.45 -110.1 38.5 -109.6 L38.95 -97.2 31.85 -96.7 31.25 -96.45 31.25 -95.85 31.25 -95.0 31.45 -94.7 31.65 -94.4 31.7 -93.85 31.75 -93.25 Q34.7 -89.55 36.25 -85.2 35.3 -84.45 33.9 -84.25 28.85 -83.5 25.15 -80.5 L25.1 -79.9 25.2 -79.05 Q27.85 -77.75 30.8 -77.25 L35.5 -74.15 Q35.5 -73.6 35.0 -73.3 31.8 -71.1 31.75 -67.55 34.15 -66.3 36.85 -65.8 39.1 -65.1 40.85 -63.7 40.45 -60.7 38.55 -58.2 L38.4 -56.8 Q36.9 -50.8 41.15 -47.0 41.65 -46.0 42.2 -45.55 38.4 -43.1 35.5 -39.85 L35.5 -39.3 35.5 -38.45 35.75 -38.1 35.9 -37.85 35.9 -37.55 35.9 -37.3 Q38.1 -35.05 39.7 -32.4 L35.5 -30.0 Q35.65 -24.7 38.95 -20.45 L36.85 -18.45 Q34.3 -16.95 31.65 -15.75 L31.3 -15.25 Q30.85 -14.6 30.9 -13.85 31.5 -12.4 33.1 -12.3 33.15 -11.85 33.6 -11.6 35.6 -10.55 36.05 -9.35 32.85 -8.0 29.55 -7.5 L29.45 -6.95 Q29.25 -3.45 29.75 0.0 27.6 0.4 25.6 -0.4 24.55 -0.85 23.65 -1.45 20.8 -3.4 18.5 -1.55 15.65 0.8 13.2 3.85 11.75 3.75 10.8 2.6 7.95 -0.75 5.15 2.0 L5.2 2.6 5.05 3.45 4.85 3.7 Q3.8 4.6 3.55 5.85 1.3 4.05 -0.25 1.55 -1.05 0.2 -2.55 0.9 -9.6 4.05 -16.25 8.15 -18.65 3.85 -19.4 -0.95 -19.65 -1.25 -19.9 -1.25 -25.3 -1.4 -29.8 2.1 L-30.1 2.0 -30.25 1.8 -30.25 1.25 Q-30.45 -2.15 -31.4 -5.4 -34.05 -8.15 -37.85 -7.2 L-37.5 -8.05 Q-34.25 -14.65 -33.25 -21.9 -32.85 -24.7 -34.6 -25.95 -30.65 -30.8 -26.15 -34.85 -21.2 -39.3 -20.95 -45.55 L-21.15 -45.8 -22.1 -46.5 Q-18.7 -49.75 -14.2 -51.75 -11.8 -52.8 -11.6 -55.15 -11.2 -59.95 -14.05 -63.8 L-14.1 -64.35 -14.7 -66.95 -13.7 -67.4 Q-9.3 -68.85 -5.3 -71.1 L-5.25 -71.35 Q-5.15 -77.6 -8.3 -82.9 L-8.25 -83.2 -8.2 -83.45 Q-5.55 -85.55 -2.6 -87.2 L-2.55 -87.8 -2.6 -89.5 Q-3.6 -90.9 -4.75 -92.1 L-4.85 -92.7 -4.9 -93.0 -5.15 -93.25 -5.5 -93.55 Q-3.6 -95.45 -1.2 -96.65 -0.9 -97.3 -1.25 -97.95 -2.7 -100.7 -6.05 -102.1 L-5.8 -102.4 -5.3 -103.25 Q-4.35 -103.45 -3.75 -104.1 L-3.7 -104.4 -3.65 -104.7 -2.5 -105.25 -0.3 -107.5 Q-0.8 -109.05 -2.5 -108.35 L-2.5 -108.3 Q-8.3 -111.2 -14.8 -110.35 L-14.85 -111.2 -15.2 -113.55 -15.7 -113.85 -28.8 -114.7 -28.95 -114.9 -29.0 -115.15 -29.0 -115.45 -28.85 -115.7 -27.85 -116.9 Q-25.4 -117.65 -23.75 -119.5 -23.6 -119.9 -23.8 -120.25 L-30.65 -129.55 Q-28.45 -130.55 -25.75 -131.2 -25.0 -131.4 -24.5 -131.85 -20.9 -135.45 -20.35 -140.7 L-20.15 -140.85 -19.3 -140.9 -18.05 -139.95 -15.5 -138.3 Q-14.55 -137.6 -13.4 -137.25 -8.25 -135.8 -8.3 -141.1 L-7.9 -141.65 Q-7.25 -142.6 -7.15 -143.7 L-6.75 -143.7 -6.65 -143.6 Q-5.6 -142.65 -4.35 -143.4 -4.0 -144.05 -3.9 -144.85 -3.5 -147.7 -4.45 -150.6 -3.2 -150.7 -2.1 -150.1 1.15 -148.3 4.5 -148.4 L5.2 -149.8 Q6.9 -154.2 7.25 -158.75 10.25 -156.35 13.8 -155.0 L14.15 -155.15 15.9 -156.55 15.95 -156.85 Q17.25 -160.4 20.25 -162.9 L21.75 -160.55 Q24.85 -155.6 26.0 -149.75 L26.85 -149.25 Q28.3 -150.1 29.75 -150.4 L29.95 -149.85 30.5 -148.95 30.6 -147.5 31.65 -142.65 Q32.8 -140.9 34.5 -142.05 L35.55 -142.85 Q40.3 -147.4 41.85 -153.65 43.55 -150.95 46.35 -151.45 L46.8 -152.95 Q47.5 -155.9 48.95 -158.55" fill="#ffff00" fill-opacity="0.5019608" fill-rule="evenodd" stroke="none"/>
  </g>
</svg>
