<?xml version="1.0" encoding="UTF-8" standalone="no"?>
<svg xmlns:ffdec="https://www.free-decompiler.com/flash" xmlns:xlink="http://www.w3.org/1999/xlink" ffdec:objectType="shape" height="139.2px" width="72.2px" xmlns="http://www.w3.org/2000/svg">
  <g transform="matrix(1.0, 0.0, 0.0, 1.0, 17.95, 146.5)">
    <path d="M26.05 -134.7 Q26.05 -129.8 22.6 -126.35 19.75 -123.5 15.95 -123.0 L15.95 -122.8 16.9 -122.4 Q16.0 -121.55 15.7 -120.3 L16.9 -120.3 Q25.05 -120.75 32.85 -122.75 33.8 -123.0 34.5 -123.75 41.15 -130.5 47.15 -137.7 46.5 -140.55 49.15 -141.9 L50.3 -142.3 Q55.75 -141.8 53.7 -136.65 L53.3 -135.8 Q53.8 -134.55 52.1 -132.75 51.3 -131.85 50.3 -132.1 L37.95 -118.55 36.95 -117.8 Q31.05 -114.7 24.1 -114.95 L20.95 -114.65 15.5 -114.25 15.4 -113.55 Q14.65 -108.8 14.35 -103.85 L14.15 -101.2 13.95 -100.05 13.8 -94.45 Q13.65 -86.0 11.55 -78.3 L11.15 -75.65 Q14.25 -74.35 15.15 -70.4 L15.2 -69.85 Q20.3 -62.45 24.85 -54.7 L25.2 -53.65 Q26.55 -52.35 27.2 -50.75 L27.5 -49.6 Q30.15 -47.05 28.35 -43.9 L27.5 -42.7 Q25.9 -38.45 23.05 -34.65 L22.15 -33.45 Q21.75 -31.0 19.8 -29.2 L19.25 -28.25 Q15.35 -25.3 12.5 -21.9 L21.35 -12.7 Q18.85 -6.65 13.5 -11.7 8.9 -16.0 7.0 -21.55 5.7 -25.35 8.9 -27.85 15.7 -33.3 20.0 -40.95 L20.15 -41.55 20.25 -42.1 20.4 -42.7 21.35 -43.85 21.75 -44.45 21.8 -45.0 21.95 -45.6 22.15 -46.15 21.95 -46.75 21.8 -47.3 21.75 -47.9 Q20.35 -49.4 19.7 -51.4 L19.45 -52.5 Q13.85 -59.85 9.55 -67.95 8.25 -63.0 6.55 -58.15 L6.15 -57.5 Q3.6 -47.75 -1.55 -39.05 -5.55 -29.35 -10.4 -20.0 L-6.35 -15.95 Q-2.2 -13.75 -0.95 -9.6 -5.05 -4.55 -10.3 -10.5 -12.2 -12.65 -14.55 -14.5 -16.1 -15.75 -17.3 -17.3 -17.65 -18.15 -17.55 -19.05 L-17.5 -20.75 -17.25 -21.25 -16.15 -22.5 Q-15.15 -26.6 -12.55 -30.0 L-12.15 -30.55 Q-8.2 -39.05 -3.85 -47.3 L-2.3 -52.0 -2.1 -53.1 -1.85 -53.6 -0.75 -54.8 Q-0.35 -57.5 0.75 -59.95 L1.55 -61.15 Q7.3 -79.7 8.8 -99.25 8.6 -99.6 8.55 -100.1 8.25 -103.9 8.75 -107.6 L8.95 -112.15 9.0 -113.25 9.2 -115.0 6.15 -114.95 Q3.05 -115.2 0.3 -116.4 L-0.85 -116.65 Q-10.25 -116.25 -17.3 -121.75 -18.0 -122.3 -17.95 -123.25 -17.75 -126.6 -14.25 -127.0 -7.15 -127.85 -0.7 -125.75 1.6 -125.0 1.35 -122.55 5.15 -120.4 9.6 -119.95 9.8 -122.0 8.95 -123.35 L8.9 -124.05 8.9 -124.5 7.25 -125.2 5.9 -126.35 Q2.45 -129.8 2.45 -134.7 2.45 -138.05 4.05 -140.7 4.1 -142.0 5.5 -143.05 L8.75 -145.2 9.0 -145.3 10.75 -146.15 11.1 -146.1 14.25 -146.5 Q19.15 -146.5 22.6 -143.05 26.05 -139.6 26.05 -134.7" fill="#000000" fill-rule="evenodd" stroke="none"/>
  </g>
</svg>
