<?xml version="1.0" encoding="UTF-8" standalone="no"?>
<svg xmlns:ffdec="https://www.free-decompiler.com/flash" xmlns:xlink="http://www.w3.org/1999/xlink" ffdec:objectType="shape" height="178.15px" width="91.5px" xmlns="http://www.w3.org/2000/svg">
  <g transform="matrix(1.0, 0.0, 0.0, 1.0, 28.55, 192.85)">
    <path d="M46.25 -191.5 L46.25 -191.25 46.25 -190.95 46.8 -190.35 47.0 -188.65 Q46.95 -186.1 48.55 -184.0 48.5 -183.45 48.6 -182.85 49.2 -179.8 51.15 -177.95 53.8 -174.95 58.45 -175.55 L55.8 -171.15 52.85 -166.35 Q49.6 -161.85 49.4 -156.65 L50.1 -156.0 Q53.4 -152.2 57.0 -148.6 L57.05 -148.3 57.2 -147.7 57.4 -147.15 Q52.95 -145.75 49.3 -142.9 49.3 -141.35 49.6 -139.8 50.5 -135.4 48.95 -131.4 L48.9 -130.85 48.75 -130.25 43.2 -130.6 Q38.25 -131.3 34.35 -128.7 34.35 -127.4 34.5 -126.15 35.3 -120.15 30.1 -116.6 L30.1 -116.3 30.0 -115.75 29.3 -115.15 Q28.5 -114.45 28.6 -113.45 L28.4 -113.15 28.2 -112.55 28.5 -112.2 Q35.0 -109.5 42.2 -111.8 L42.8 -108.85 Q43.85 -104.65 45.2 -100.55 L46.45 -99.65 52.1 -96.65 51.4 -95.7 42.8 -85.95 42.75 -84.25 Q42.7 -82.2 42.9 -80.2 45.3 -78.25 48.25 -77.4 L48.4 -77.1 48.55 -76.55 48.45 -76.3 48.05 -75.7 Q48.1 -74.65 47.8 -73.65 47.05 -70.85 47.5 -67.9 54.85 -62.4 62.95 -58.1 L58.55 -57.3 Q52.6 -56.65 47.8 -53.8 L47.75 -51.8 Q47.7 -49.3 48.05 -46.9 L41.8 -47.25 Q39.7 -47.4 38.1 -46.5 34.65 -44.55 32.8 -40.55 29.3 -43.1 26.45 -46.3 L25.85 -45.95 Q23.8 -44.55 22.8 -42.2 L22.0 -39.65 Q21.75 -38.9 21.75 -38.15 21.85 -32.5 19.65 -27.5 17.25 -28.15 15.1 -29.55 L13.55 -30.65 Q9.7 -33.5 6.4 -30.85 L5.3 -28.0 1.6 -18.75 0.65 -18.75 -4.35 -22.95 Q-6.0 -25.15 -7.9 -22.7 L-7.9 -22.4 -8.0 -21.8 -9.0 -20.7 Q-10.9 -17.9 -12.1 -14.7 L-13.1 -16.6 Q-14.85 -20.95 -17.5 -24.6 L-17.5 -24.9 -17.5 -25.2 Q-19.85 -26.95 -22.2 -24.9 L-22.55 -25.0 -22.7 -25.2 -23.0 -27.8 -23.65 -34.4 -24.15 -34.75 -28.55 -35.65 -28.1 -36.8 -26.9 -39.8 Q-24.05 -45.3 -24.9 -51.5 -26.6 -53.2 -28.15 -53.7 L-27.15 -54.8 Q-21.45 -58.2 -20.95 -64.35 L-23.05 -66.4 Q-23.4 -67.2 -24.2 -67.55 L-24.4 -67.8 -25.55 -68.95 -24.95 -69.6 Q-23.55 -71.5 -21.8 -72.85 -19.45 -74.55 -19.75 -77.3 -20.1 -81.45 -23.65 -84.25 -20.55 -84.9 -17.7 -86.35 L-17.4 -86.55 -16.45 -87.7 Q-16.3 -88.4 -16.3 -89.15 L-16.45 -91.45 Q-17.0 -92.1 -17.25 -92.9 -17.95 -95.7 -19.05 -98.35 -13.55 -98.15 -8.2 -98.45 -8.35 -102.3 -9.7 -106.15 -10.9 -109.6 -9.45 -112.55 -5.6 -113.0 -2.6 -114.9 L-2.55 -115.45 -2.5 -116.6 -3.6 -117.9 Q-7.55 -122.75 -11.05 -127.85 -7.8 -129.2 -4.65 -130.8 -3.85 -134.15 -6.2 -136.65 -8.0 -138.5 -9.05 -140.7 L-8.65 -141.55 -5.2 -147.35 -5.2 -148.5 -5.2 -150.8 -12.8 -153.7 Q-9.75 -158.7 -9.1 -164.35 L-9.25 -165.05 Q-11.15 -167.55 -14.4 -168.35 L-14.35 -168.65 -14.05 -169.25 -14.05 -169.5 -14.05 -169.8 -13.75 -170.1 Q-13.25 -170.55 -13.25 -171.25 L-10.6 -173.25 Q-10.1 -173.35 -9.7 -173.55 L-6.95 -175.0 -6.85 -175.3 -6.35 -176.15 -6.45 -178.15 Q-6.65 -180.35 -7.15 -182.5 L-3.7 -182.4 Q-2.7 -182.35 -1.9 -181.9 0.9 -180.5 1.95 -183.4 L2.25 -184.15 4.4 -189.4 5.0 -190.3 Q5.25 -191.25 5.15 -192.3 L5.95 -192.1 Q7.0 -190.25 8.9 -189.2 L9.2 -188.65 9.5 -187.75 Q11.5 -186.4 12.45 -188.35 L12.35 -188.65 12.25 -189.2 12.55 -189.5 Q13.15 -190.0 14.0 -190.15 L14.15 -190.35 14.35 -190.65 14.9 -190.95 17.45 -192.85 Q25.95 -191.35 31.6 -184.35 33.55 -181.9 36.25 -182.1 41.1 -187.0 46.25 -191.5" fill="#ffff00" fill-opacity="0.5019608" fill-rule="evenodd" stroke="none"/>
  </g>
</svg>
