<?xml version="1.0" encoding="UTF-8" standalone="no"?>
<svg xmlns:ffdec="https://www.free-decompiler.com/flash" xmlns:xlink="http://www.w3.org/1999/xlink" ffdec:objectType="shape" height="141.5px" width="53.0px" xmlns="http://www.w3.org/2000/svg">
  <g transform="matrix(1.0, 0.0, 0.0, 1.0, 12.15, 179.35)">
    <path d="M40.65 -164.8 Q40.2 -163.95 39.35 -163.4 39.4 -154.05 36.7 -145.3 L36.05 -142.9 Q35.05 -138.5 31.05 -137.6 L29.95 -137.8 Q24.5 -140.95 19.6 -144.95 19.0 -143.5 17.85 -142.25 L17.5 -141.85 17.5 -130.15 Q17.45 -119.0 15.5 -108.2 15.15 -106.4 15.3 -104.5 L15.2 -102.7 Q18.2 -101.3 21.05 -99.35 L27.25 -94.95 Q31.9 -91.6 34.1 -86.55 34.35 -85.95 34.2 -85.25 31.7 -74.5 27.2 -64.35 26.8 -63.45 26.0 -62.75 31.0 -60.75 35.55 -58.35 36.05 -58.1 36.05 -57.45 36.1 -53.2 31.4 -54.45 L25.65 -56.15 Q22.4 -57.25 19.95 -59.4 19.4 -59.85 19.55 -60.6 20.55 -66.1 23.3 -71.1 25.15 -74.45 26.05 -78.15 26.95 -81.75 28.2 -85.1 23.4 -91.85 15.9 -95.45 L14.2 -96.35 12.6 -97.3 Q11.4 -90.7 9.2 -84.2 L3.55 -67.55 Q2.05 -63.1 -0.2 -58.9 -1.7 -52.6 -4.85 -47.05 L-5.2 -46.2 Q-1.45 -44.3 0.3 -40.9 0.6 -40.3 0.15 -39.7 -2.5 -36.25 -6.2 -39.15 L-11.1 -43.3 Q-12.8 -44.95 -11.75 -47.15 L-9.45 -50.85 -1.7 -71.1 -0.75 -73.95 0.45 -76.75 2.05 -82.55 Q2.25 -83.2 2.75 -83.65 6.1 -93.55 7.85 -103.85 8.2 -105.85 9.3 -106.95 L9.3 -107.3 Q9.4 -112.15 10.25 -116.85 12.05 -126.55 12.05 -136.65 L9.65 -134.75 Q8.85 -134.15 7.95 -134.55 4.4 -136.05 5.7 -139.85 L8.45 -148.15 Q9.2 -150.35 10.3 -152.3 10.7 -153.0 11.25 -153.35 L11.1 -154.8 Q11.0 -155.75 11.15 -156.45 L9.55 -157.1 8.25 -157.9 8.3 -157.95 6.85 -159.2 Q3.4 -162.65 3.4 -167.55 3.4 -172.45 6.85 -175.9 10.3 -179.35 15.2 -179.35 20.1 -179.35 23.55 -175.9 27.0 -172.45 27.0 -167.55 L26.95 -166.5 27.3 -167.0 Q28.2 -168.3 29.7 -168.9 L30.7 -169.25 31.95 -169.05 32.1 -169.5 Q32.55 -170.5 33.6 -170.7 L34.2 -170.8 Q38.45 -169.7 40.55 -166.4 41.05 -165.65 40.65 -164.8 M17.4 -155.9 L17.45 -153.95 18.0 -153.8 20.1 -156.75 Q18.8 -156.15 17.4 -155.9 M33.2 -163.1 L32.9 -162.8 Q27.4 -156.9 22.7 -150.4 26.15 -147.5 29.75 -144.85 L30.25 -144.85 Q32.8 -151.85 33.45 -159.25 L33.6 -162.7 33.2 -163.1" fill="#000000" fill-rule="evenodd" stroke="none"/>
  </g>
</svg>
