<?xml version="1.0" encoding="UTF-8" standalone="no"?>
<svg xmlns:ffdec="https://www.free-decompiler.com/flash" xmlns:xlink="http://www.w3.org/1999/xlink" ffdec:objectType="shape" height="155.85px" width="99.45px" xmlns="http://www.w3.org/2000/svg">
  <g transform="matrix(1.0, 0.0, 0.0, 1.0, 34.4, 202.25)">
    <path d="M10.7 -198.15 Q11.4 -198.2 11.7 -198.8 L11.7 -199.1 11.7 -202.25 Q15.3 -200.5 18.4 -197.15 L18.7 -196.9 Q19.05 -196.6 19.4 -196.55 23.6 -196.35 27.55 -198.2 L30.1 -198.5 30.1 -198.2 30.1 -197.95 30.5 -197.35 Q30.1 -193.35 30.1 -189.3 30.05 -186.05 33.05 -185.25 37.4 -184.1 41.75 -185.8 44.15 -186.7 45.85 -186.4 L45.85 -186.1 45.85 -185.25 44.85 -183.55 44.75 -183.2 Q44.1 -181.1 44.4 -178.9 48.25 -177.45 52.4 -176.8 L56.25 -175.9 Q60.6 -174.5 65.05 -174.0 62.25 -170.0 58.7 -166.65 L58.35 -166.35 Q55.9 -164.35 53.9 -162.0 L53.9 -161.7 53.9 -159.4 Q54.35 -158.6 55.1 -158.0 L55.15 -157.4 Q56.6 -156.6 57.4 -155.4 L57.4 -154.5 Q56.5 -154.15 56.15 -153.35 52.4 -152.75 49.7 -150.2 L49.7 -149.9 49.7 -148.75 53.05 -141.0 53.15 -140.7 Q53.95 -138.55 53.85 -136.35 L45.3 -136.1 44.7 -136.0 Q43.85 -134.85 43.35 -133.5 L43.3 -133.2 43.1 -128.95 Q41.4 -129.05 40.05 -130.15 L39.55 -130.5 Q34.55 -133.35 31.65 -129.35 L31.65 -129.05 31.65 -127.9 Q33.05 -126.4 34.8 -125.0 L35.05 -124.8 41.85 -120.45 Q39.75 -119.7 37.8 -118.7 L37.2 -118.5 Q33.4 -117.7 31.65 -115.05 37.95 -111.6 45.45 -110.45 L47.35 -110.15 Q51.7 -109.5 55.35 -107.25 57.3 -105.1 55.95 -102.9 54.35 -100.35 51.9 -98.35 L51.45 -98.05 Q48.5 -96.1 45.85 -93.75 L45.95 -90.55 Q48.55 -89.15 50.75 -87.4 50.6 -86.7 49.9 -86.25 L49.5 -86.0 Q44.85 -84.2 40.85 -81.65 L40.85 -81.35 40.85 -79.9 Q44.15 -75.55 49.25 -73.05 50.35 -72.55 51.25 -71.65 L56.05 -67.2 43.35 -66.45 Q41.6 -66.55 40.5 -65.3 L40.5 -65.0 Q40.8 -62.85 41.55 -60.7 36.85 -62.0 33.5 -59.1 L30.55 -56.2 28.45 -53.05 Q27.3 -50.6 25.3 -48.8 L24.65 -48.8 Q23.75 -49.3 23.25 -50.2 L23.05 -50.5 19.45 -54.85 Q18.9 -58.3 15.55 -58.0 L12.55 -55.1 11.25 -57.05 11.0 -57.3 Q9.5 -59.35 8.6 -61.65 6.85 -63.4 5.65 -61.25 5.0 -60.95 4.5 -60.4 L4.3 -59.55 Q2.35 -57.7 1.4 -55.2 L1.3 -54.95 -1.35 -50.8 Q-3.1 -52.3 -4.45 -54.15 L-4.55 -55.3 -5.6 -56.45 -5.6 -56.75 -5.6 -57.05 -6.15 -57.5 -6.7 -57.55 Q-10.7 -54.25 -15.05 -51.3 L-16.5 -49.95 Q-18.3 -47.45 -20.45 -46.4 L-20.55 -46.65 -20.6 -46.95 -20.95 -51.3 -21.35 -51.85 -21.35 -52.15 -21.35 -52.45 -21.85 -53.4 Q-22.2 -54.15 -23.05 -54.15 L-30.95 -54.35 Q-30.15 -56.4 -28.95 -58.3 -25.3 -64.05 -25.05 -70.75 -24.95 -72.95 -27.0 -73.65 -30.65 -74.95 -34.4 -75.65 -29.15 -80.2 -22.7 -82.9 -19.0 -84.4 -20.95 -87.5 L-22.6 -90.65 Q-23.6 -93.0 -25.15 -95.05 L-24.8 -95.65 -18.9 -96.6 Q-18.15 -96.75 -18.1 -97.5 -17.55 -102.3 -19.8 -107.0 L-21.3 -110.1 -23.15 -114.45 Q-16.95 -114.3 -10.85 -114.55 -10.05 -116.05 -11.35 -117.15 L-11.45 -118.3 Q-12.1 -119.25 -13.1 -119.75 L-13.65 -120.6 Q-8.95 -122.75 -3.85 -124.05 L0.2 -124.9 Q4.25 -125.6 6.3 -128.9 L6.3 -129.15 6.3 -130.05 5.8 -130.35 -3.1 -129.85 Q-1.85 -132.05 -2.0 -134.65 L-1.95 -134.9 Q-1.05 -136.95 -1.35 -139.25 -2.05 -140.4 -3.35 -140.05 L-5.75 -139.45 Q-9.9 -138.45 -14.15 -138.2 L-13.75 -138.5 -13.4 -138.8 -10.1 -143.1 -9.45 -143.3 Q-8.7 -144.0 -8.2 -144.9 L-7.7 -145.1 -7.5 -145.2 Q-4.55 -146.6 -4.55 -149.45 -5.75 -151.15 -7.3 -152.1 -7.65 -152.85 -8.45 -153.1 L-8.75 -153.25 Q-11.5 -154.8 -11.25 -157.6 -9.65 -158.45 -8.25 -159.7 -6.0 -161.7 -7.45 -164.0 -7.75 -164.5 -8.4 -164.65 -13.15 -165.95 -16.25 -168.75 -11.7 -172.4 -6.6 -175.4 L-6.25 -175.6 Q-3.8 -177.25 -4.05 -179.95 L-4.55 -180.5 -4.95 -180.8 -10.6 -184.6 -10.5 -184.8 -9.9 -185.2 Q-5.9 -187.3 -1.65 -188.7 -1.2 -189.65 -1.35 -190.75 L-3.75 -192.95 -4.05 -193.2 Q-6.3 -195.1 -8.0 -197.55 L10.7 -198.15" fill="#ffff00" fill-opacity="0.5019608" fill-rule="evenodd" stroke="none"/>
  </g>
</svg>
