<?xml version="1.0" encoding="UTF-8" standalone="no"?>
<svg xmlns:ffdec="https://www.free-decompiler.com/flash" xmlns:xlink="http://www.w3.org/1999/xlink" ffdec:objectType="shape" height="125.15px" width="63.8px" xmlns="http://www.w3.org/2000/svg">
  <g transform="matrix(1.0, 0.0, 0.0, 1.0, 18.15, 188.65)">
    <path d="M45.4 -162.95 Q44.2 -157.9 40.95 -153.8 L37.55 -149.65 Q33.3 -144.65 28.4 -140.8 L27.3 -140.6 Q24.3 -141.35 22.95 -144.35 L19.5 -151.75 17.75 -150.75 18.1 -142.25 Q18.75 -130.95 16.9 -120.15 L16.4 -118.05 14.4 -112.85 14.2 -112.2 18.15 -109.8 Q26.4 -104.6 34.2 -98.85 L34.55 -98.15 Q34.7 -94.8 32.45 -91.95 L31.45 -90.35 30.55 -88.65 Q30.35 -86.85 29.75 -85.1 L28.95 -83.2 28.6 -82.6 Q27.85 -79.5 26.5 -76.5 L24.55 -73.2 Q28.65 -72.4 30.1 -69.15 30.8 -67.65 29.55 -66.5 27.6 -64.7 25.4 -66.15 22.8 -67.8 19.8 -68.55 16.1 -69.55 17.2 -72.9 17.55 -74.05 18.35 -74.95 L19.25 -76.2 20.15 -77.35 Q22.8 -83.05 24.65 -89.2 25.75 -92.7 27.45 -96.05 26.35 -97.55 24.0 -98.8 23.05 -99.3 22.25 -100.1 L12.4 -105.7 11.45 -106.35 Q10.2 -104.2 8.65 -102.2 3.2 -91.15 -4.6 -81.3 -6.75 -78.55 -8.45 -75.55 L-9.2 -74.2 -10.75 -71.65 -5.8 -67.65 Q-5.3 -67.2 -5.35 -66.5 -5.75 -62.25 -9.8 -64.05 L-12.05 -65.15 Q-15.25 -66.8 -17.8 -69.2 -18.3 -69.65 -18.1 -70.35 -17.15 -73.5 -15.1 -76.35 L-11.4 -81.75 -3.75 -93.3 Q0.75 -99.85 4.65 -106.55 L7.4 -111.35 7.85 -112.75 8.55 -113.65 Q12.9 -123.5 12.5 -134.4 L12.15 -147.85 9.35 -146.3 Q7.65 -145.3 5.65 -145.0 1.55 -144.4 1.65 -148.4 1.7 -152.75 4.0 -156.45 4.95 -160.6 7.15 -164.25 L9.05 -166.9 8.6 -167.2 8.65 -167.25 7.2 -168.5 Q3.75 -171.95 3.75 -176.85 3.75 -181.75 7.2 -185.2 10.65 -188.65 15.55 -188.65 20.45 -188.65 23.9 -185.2 27.35 -181.75 27.35 -176.85 27.35 -171.95 23.9 -168.5 21.5 -166.1 18.4 -165.35 20.2 -163.75 21.3 -161.6 L22.0 -160.25 Q26.5 -163.25 30.65 -167.0 L31.1 -167.3 Q31.8 -170.25 34.55 -170.75 L34.55 -170.8 Q39.5 -169.5 37.5 -164.8 37.15 -164.0 36.45 -163.55 L28.25 -157.65 24.65 -155.0 28.05 -148.4 Q34.75 -154.6 39.15 -162.8 36.65 -166.5 40.55 -168.8 L41.45 -169.25 Q46.75 -168.65 45.4 -162.95 M9.6 -154.55 L9.0 -153.4 12.05 -154.7 12.0 -156.55 11.8 -159.85 9.8 -156.3 Q9.9 -155.4 9.6 -154.55" fill="#000000" fill-rule="evenodd" stroke="none"/>
  </g>
</svg>
