<?xml version="1.0" encoding="UTF-8" standalone="no"?>
<svg xmlns:ffdec="https://www.free-decompiler.com/flash" xmlns:xlink="http://www.w3.org/1999/xlink" ffdec:objectType="shape" height="137.2px" width="108.7px" xmlns="http://www.w3.org/2000/svg">
  <g transform="matrix(1.0, 0.0, 0.0, 1.0, 35.95, 217.85)">
    <path d="M7.55 -200.2 L7.85 -204.45 8.15 -204.75 12.9 -204.3 Q14.65 -203.9 16.1 -204.6 21.55 -207.3 23.9 -213.1 L24.5 -211.5 Q25.05 -210.4 25.2 -209.15 L24.45 -208.3 22.8 -206.55 22.85 -206.0 22.9 -205.4 Q24.45 -204.4 26.0 -205.4 L26.9 -205.05 Q27.75 -204.75 28.4 -205.3 L28.5 -205.6 28.55 -205.9 28.5 -206.2 27.9 -207.1 27.55 -207.9 27.85 -208.15 Q34.4 -212.6 40.75 -217.8 L40.95 -217.85 42.0 -217.5 42.75 -212.55 Q43.45 -208.45 43.65 -204.25 L44.5 -204.1 51.5 -204.45 Q50.35 -200.8 51.05 -196.95 51.75 -192.85 55.65 -193.15 59.7 -194.8 62.65 -198.1 L63.1 -198.0 63.15 -197.85 Q63.15 -195.25 62.75 -192.7 62.05 -187.9 66.5 -187.1 69.55 -185.55 72.15 -183.45 L72.45 -182.95 Q72.8 -182.55 72.75 -182.0 72.25 -181.75 71.75 -181.6 69.1 -180.9 67.35 -178.9 L67.1 -172.6 Q67.1 -166.75 66.6 -161.05 L66.35 -161.05 Q64.9 -161.6 63.7 -162.4 62.0 -164.65 60.05 -162.4 L60.05 -162.1 60.05 -161.8 Q59.5 -161.2 59.4 -160.4 59.15 -159.15 58.55 -158.05 L58.15 -155.7 Q57.5 -153.5 56.25 -151.75 L54.4 -151.85 Q52.45 -154.15 50.1 -152.9 L50.05 -152.05 49.6 -147.65 Q49.05 -143.15 49.7 -138.75 L49.5 -138.5 49.3 -138.2 49.2 -137.7 Q48.1 -135.9 46.25 -134.75 L46.25 -133.3 46.25 -132.15 46.9 -131.2 Q47.65 -129.45 48.85 -128.2 53.25 -123.65 53.45 -117.45 L53.15 -117.15 48.95 -113.7 48.95 -112.55 48.95 -111.4 49.5 -110.8 Q51.65 -108.35 54.4 -106.2 L54.75 -105.7 56.25 -104.2 56.2 -103.65 56.05 -103.05 54.6 -102.05 Q52.75 -101.15 51.25 -99.8 L51.45 -98.4 51.6 -97.2 51.95 -96.95 55.1 -94.6 55.1 -94.3 55.15 -94.0 55.45 -93.75 Q52.1 -93.75 50.35 -91.35 49.0 -90.7 48.25 -89.45 46.35 -86.1 43.95 -82.95 38.6 -84.85 34.55 -88.95 L33.95 -88.55 24.75 -80.65 23.1 -80.75 Q21.35 -82.7 20.25 -85.1 19.9 -85.9 19.15 -86.2 16.55 -87.35 14.75 -84.8 14.45 -86.2 14.3 -87.65 14.15 -89.9 13.6 -92.0 L13.4 -92.3 13.2 -92.6 13.2 -92.85 13.2 -93.15 12.7 -93.5 Q10.0 -93.95 8.4 -91.35 L7.9 -91.0 7.35 -90.45 6.9 -90.35 6.15 -90.9 1.05 -95.75 0.95 -96.05 0.95 -96.3 0.95 -96.6 Q-0.9 -98.3 -2.45 -96.05 -6.25 -90.6 -9.55 -84.8 L-10.0 -84.6 -10.2 -84.55 -10.4 -84.6 Q-11.4 -85.25 -12.0 -86.35 -13.25 -88.6 -14.8 -90.65 L-14.8 -90.95 -14.8 -91.25 Q-16.3 -92.8 -18.35 -91.55 -22.4 -89.05 -25.85 -85.75 -27.7 -83.95 -29.4 -84.2 L-29.3 -88.55 Q-29.15 -91.8 -29.9 -94.9 -32.25 -97.55 -35.95 -97.55 L-35.8 -98.05 -35.65 -98.35 Q-35.45 -100.45 -34.3 -102.3 -32.15 -105.75 -32.95 -109.85 L-33.45 -110.4 -34.4 -111.6 Q-35.15 -113.7 -35.35 -115.95 L-35.25 -116.2 Q-30.75 -116.4 -26.25 -117.65 L-26.0 -118.25 -25.85 -118.8 Q-24.7 -119.7 -24.4 -121.1 L-23.25 -124.85 -21.35 -124.85 Q-17.95 -122.45 -14.15 -121.05 -12.4 -120.4 -12.1 -122.1 -11.2 -127.45 -11.75 -133.0 L-6.15 -134.65 Q-5.95 -137.0 -7.05 -139.3 -9.45 -144.3 -13.95 -147.9 L-14.1 -148.15 -14.6 -148.75 Q-7.9 -149.6 -2.25 -152.9 L-2.1 -153.75 -2.15 -154.6 -2.35 -154.85 Q-3.05 -155.45 -3.95 -155.65 L-12.1 -160.55 -11.25 -161.2 -9.9 -162.05 Q-4.7 -164.15 -1.0 -168.05 L-0.95 -169.5 Q-0.9 -170.4 -1.4 -171.0 -3.7 -174.15 -6.55 -177.0 L-6.0 -177.8 Q-3.95 -180.3 -1.25 -182.2 L-0.9 -182.65 0.05 -183.6 0.2 -185.05 0.15 -186.5 Q-3.2 -189.4 -7.15 -191.2 -1.45 -194.5 5.25 -196.4 L5.45 -196.7 6.4 -197.55 Q7.35 -198.75 7.55 -200.2" fill="#ffff00" fill-opacity="0.5019608" fill-rule="evenodd" stroke="none"/>
  </g>
</svg>
