<?xml version="1.0" encoding="UTF-8" standalone="no"?>
<svg xmlns:ffdec="https://www.free-decompiler.com/flash" xmlns:xlink="http://www.w3.org/1999/xlink" ffdec:objectType="shape" height="102.1px" width="78.4px" xmlns="http://www.w3.org/2000/svg">
  <g transform="matrix(1.0, 0.0, 0.0, 1.0, 19.55, 197.5)">
    <path d="M44.15 -180.4 L49.05 -181.35 53.0 -181.9 Q56.15 -182.75 58.1 -180.5 59.55 -178.85 58.25 -177.15 57.15 -175.65 55.2 -175.45 51.05 -174.9 48.5 -172.0 47.6 -171.0 46.3 -171.3 44.25 -171.75 43.95 -173.75 L36.6 -174.1 18.1 -172.95 17.9 -172.25 Q19.05 -171.15 19.45 -169.2 19.75 -167.5 20.65 -166.05 24.5 -160.1 27.55 -153.8 L29.3 -149.95 Q35.95 -155.8 39.85 -163.85 36.0 -168.2 41.05 -170.75 L43.5 -170.85 Q47.1 -169.45 46.55 -165.35 45.9 -160.1 42.45 -156.0 L40.85 -153.8 Q36.2 -146.5 28.65 -142.6 28.3 -142.4 27.9 -142.6 25.15 -143.95 23.9 -146.95 20.5 -155.1 15.65 -162.5 L15.0 -157.15 Q14.15 -146.95 13.65 -136.65 L15.05 -135.6 Q25.85 -135.35 36.5 -133.75 37.4 -133.6 37.65 -132.65 39.7 -123.45 38.1 -114.15 L37.65 -111.35 36.3 -103.25 41.8 -100.35 Q43.45 -99.6 42.85 -97.85 41.7 -94.45 37.9 -95.75 34.25 -97.05 30.95 -99.1 29.5 -100.0 29.75 -101.75 30.1 -104.55 30.8 -107.25 33.35 -117.8 32.55 -128.7 L15.55 -129.85 Q16.3 -121.95 15.95 -113.9 L15.95 -112.2 Q18.15 -107.45 15.0 -103.7 14.8 -103.4 14.4 -103.4 1.0 -102.25 -11.25 -107.3 L-12.2 -107.2 Q-13.85 -104.6 -14.45 -101.5 -14.65 -100.65 -15.5 -100.45 -19.45 -99.5 -19.55 -103.25 -19.65 -107.15 -17.55 -110.55 -14.6 -115.4 -8.8 -112.85 -3.7 -110.6 1.85 -109.7 L10.75 -109.1 Q9.75 -114.15 9.9 -119.5 L9.95 -130.2 Q8.85 -130.5 8.35 -131.75 7.65 -133.6 7.75 -135.75 8.3 -146.6 9.25 -157.35 9.85 -163.6 11.15 -169.7 10.5 -170.05 10.1 -170.75 8.0 -174.25 9.6 -177.65 10.15 -178.8 11.5 -178.75 L13.3 -178.65 13.3 -178.95 Q13.4 -179.6 13.9 -180.1 14.05 -182.0 15.2 -183.1 14.9 -184.35 14.9 -185.7 14.9 -190.6 18.35 -194.05 21.8 -197.5 26.7 -197.5 31.6 -197.5 35.05 -194.05 38.5 -190.6 38.5 -185.7 38.5 -182.15 36.7 -179.3 L41.0 -179.8 44.15 -180.4" fill="#000000" fill-rule="evenodd" stroke="none"/>
  </g>
</svg>
