<?xml version="1.0" encoding="UTF-8" standalone="no"?>
<svg xmlns:ffdec="https://www.free-decompiler.com/flash" xmlns:xlink="http://www.w3.org/1999/xlink" ffdec:objectType="shape" height="137.4px" width="117.4px" xmlns="http://www.w3.org/2000/svg">
  <g transform="matrix(1.0, 0.0, 0.0, 1.0, 31.05, 218.45)">
    <path d="M11.7 -200.15 Q13.1 -200.45 13.9 -201.7 L14.65 -204.3 Q15.95 -208.75 17.65 -212.9 19.75 -210.95 22.2 -209.55 22.75 -209.25 23.15 -209.55 28.45 -212.85 31.75 -218.3 31.95 -218.55 32.0 -218.3 32.25 -215.85 32.8 -213.45 L33.6 -209.2 Q34.05 -206.5 36.45 -206.35 37.3 -206.3 38.0 -206.8 41.1 -208.9 43.95 -210.05 L43.7 -209.45 43.3 -208.4 Q41.35 -204.85 41.75 -200.8 43.05 -200.15 44.4 -200.45 L45.25 -200.25 Q47.3 -200.6 49.3 -201.7 L53.9 -204.1 Q54.0 -202.9 53.75 -201.8 52.65 -197.2 50.45 -193.15 L50.45 -192.85 50.55 -192.0 58.15 -188.5 Q57.55 -188.25 57.25 -187.75 55.6 -185.45 55.95 -182.75 56.35 -182.5 56.75 -182.6 L70.15 -184.7 70.65 -183.55 Q71.2 -181.3 71.3 -178.9 76.6 -178.1 82.35 -178.65 L82.2 -178.4 Q81.9 -177.45 81.2 -176.7 L81.15 -176.4 81.1 -175.85 79.25 -173.25 79.25 -170.65 Q79.25 -170.1 79.5 -169.65 82.65 -163.8 86.35 -158.25 L78.7 -157.85 Q78.25 -157.85 78.1 -157.45 75.9 -152.65 74.2 -147.5 L72.55 -147.5 69.35 -150.1 Q67.4 -151.6 65.55 -153.2 63.2 -155.35 60.25 -155.65 59.65 -155.7 59.55 -155.15 58.5 -150.75 56.05 -147.15 51.95 -147.1 48.15 -148.65 44.15 -150.2 40.3 -149.6 L40.15 -149.05 40.1 -147.9 40.35 -147.6 40.5 -147.3 40.5 -147.05 40.5 -146.75 Q41.4 -145.05 42.8 -143.85 L42.8 -143.55 42.8 -143.3 Q44.2 -142.0 45.2 -140.4 L43.15 -138.1 Q43.15 -137.1 43.3 -136.1 43.5 -134.2 44.7 -132.5 46.95 -129.5 50.05 -127.4 52.2 -126.0 53.15 -124.0 L48.95 -119.1 48.9 -118.8 48.85 -118.2 48.55 -117.95 48.55 -117.35 48.55 -116.8 Q56.4 -110.45 63.15 -103.55 L59.3 -99.4 59.4 -96.5 Q59.75 -92.15 61.1 -87.95 L59.1 -88.4 Q55.85 -89.05 53.55 -87.05 49.65 -83.6 45.2 -81.05 43.6 -82.2 42.55 -83.8 40.35 -87.05 36.5 -86.3 32.95 -85.65 30.1 -83.35 L29.15 -83.35 28.95 -83.85 Q28.65 -85.5 27.45 -86.7 L26.8 -89.3 26.05 -92.25 Q25.1 -96.7 20.9 -96.4 L19.85 -95.2 Q15.85 -90.55 12.35 -85.35 11.1 -88.35 9.35 -91.1 7.5 -93.95 4.95 -95.85 L4.15 -95.55 2.15 -93.7 Q-1.05 -90.0 -4.55 -86.7 -5.3 -86.85 -5.95 -87.25 -8.4 -88.65 -11.55 -88.1 L-18.25 -86.55 -18.25 -87.7 -18.25 -90.85 Q-19.45 -92.4 -21.7 -91.8 L-22.0 -92.1 -22.5 -92.65 -22.45 -94.1 -22.2 -99.9 -31.05 -109.1 Q-28.05 -109.6 -25.35 -110.8 -24.15 -112.55 -23.8 -114.55 -22.8 -120.3 -20.85 -125.8 -20.05 -125.3 -19.05 -125.25 L-19.0 -124.95 -18.85 -124.65 Q-16.15 -122.45 -13.75 -124.85 L-12.35 -127.85 Q-9.65 -132.6 -7.8 -137.5 -4.1 -137.15 -0.6 -135.55 0.7 -134.95 1.9 -134.15 4.75 -132.2 6.3 -134.15 L6.2 -134.45 4.4 -137.05 Q4.5 -137.85 4.25 -138.5 3.0 -141.7 2.1 -144.8 L2.0 -146.3 Q1.3 -148.75 1.3 -151.45 2.95 -151.65 3.9 -152.9 L3.95 -153.2 Q4.1 -156.25 1.15 -157.8 -0.8 -160.65 -3.6 -162.95 L-3.65 -163.25 -3.85 -163.85 -5.0 -164.4 -5.25 -164.7 Q-5.8 -165.2 -6.0 -165.85 -5.1 -167.0 -3.3 -167.05 0.7 -167.1 3.55 -169.4 L3.65 -171.7 3.35 -172.7 Q0.4 -177.9 -1.25 -183.5 L-1.65 -184.1 6.9 -184.65 Q8.45 -184.75 8.85 -186.1 10.85 -193.0 11.7 -200.15" fill="#ffff00" fill-opacity="0.5019608" fill-rule="evenodd" stroke="none"/>
  </g>
</svg>
