<?xml version="1.0" encoding="UTF-8" standalone="no"?>
<svg xmlns:ffdec="https://www.free-decompiler.com/flash" xmlns:xlink="http://www.w3.org/1999/xlink" ffdec:objectType="shape" height="104.25px" width="85.05px" xmlns="http://www.w3.org/2000/svg">
  <g transform="matrix(1.0, 0.0, 0.0, 1.0, 17.2, 199.5)">
    <path d="M52.05 -165.85 Q51.25 -163.05 48.5 -161.1 42.35 -156.75 35.6 -153.5 31.9 -150.25 27.2 -150.65 26.4 -150.75 26.05 -151.55 L23.65 -157.7 Q22.1 -161.6 19.8 -165.15 L16.35 -150.6 14.5 -142.85 14.75 -142.7 14.95 -142.75 Q16.55 -142.1 17.45 -140.9 23.15 -137.2 29.05 -133.95 32.55 -132.0 35.9 -129.75 L36.8 -128.7 Q41.35 -118.6 41.3 -107.3 L41.3 -102.7 Q46.0 -102.15 50.1 -99.4 50.7 -99.05 50.65 -98.3 50.5 -94.6 46.55 -95.4 L42.6 -96.05 Q39.55 -96.35 36.75 -97.45 35.95 -97.8 35.85 -98.65 35.45 -103.95 35.3 -109.3 35.15 -115.7 33.0 -121.75 L32.75 -122.55 Q31.8 -125.6 29.2 -127.0 L18.3 -133.2 18.3 -131.2 Q18.55 -125.65 19.55 -120.3 20.6 -114.65 19.95 -109.05 19.85 -108.3 19.2 -107.85 18.5 -107.4 17.65 -107.4 8.9 -107.45 0.2 -107.75 L-2.45 -108.05 -6.35 -107.95 -8.75 -105.7 -9.15 -105.4 Q-9.3 -104.75 -9.75 -104.25 L-10.5 -103.35 Q-11.05 -98.45 -15.8 -100.6 -17.25 -101.3 -17.2 -102.9 -17.15 -104.3 -16.05 -105.2 -14.6 -108.55 -12.1 -111.4 -10.45 -113.35 -8.05 -113.6 -3.8 -114.1 0.35 -113.5 L1.45 -113.45 14.4 -113.35 Q12.9 -123.6 12.2 -134.05 L12.0 -137.0 11.3 -137.45 10.25 -138.0 Q6.85 -139.45 8.15 -143.2 10.85 -150.95 12.35 -159.0 12.7 -161.0 13.35 -163.05 L17.1 -177.15 Q17.6 -179.05 18.65 -180.7 L20.35 -183.2 Q19.5 -185.3 19.5 -187.7 19.5 -192.6 22.95 -196.05 26.4 -199.5 31.3 -199.5 36.2 -199.5 39.65 -196.05 43.1 -192.6 43.1 -187.7 43.1 -182.8 39.65 -179.35 36.8 -176.5 32.95 -176.0 L27.6 -176.5 25.65 -177.25 24.45 -178.0 23.55 -176.3 Q33.3 -171.9 44.45 -172.0 55.6 -172.15 66.45 -170.15 67.65 -169.9 67.8 -168.75 68.4 -164.15 63.2 -163.6 L59.9 -163.4 Q57.5 -163.35 57.05 -165.6 L52.05 -165.85 M44.85 -166.25 L35.7 -166.85 Q30.25 -167.2 25.05 -168.8 26.2 -167.0 26.95 -165.0 L27.05 -164.45 Q28.9 -161.75 30.1 -158.65 L30.45 -157.8 Q34.4 -159.0 38.25 -161.5 L43.4 -165.25 44.85 -166.25" fill="#000000" fill-rule="evenodd" stroke="none"/>
  </g>
</svg>
