<?xml version="1.0" encoding="UTF-8" standalone="no"?>
<svg xmlns:ffdec="https://www.free-decompiler.com/flash" xmlns:xlink="http://www.w3.org/1999/xlink" ffdec:objectType="shape" height="100.9px" width="86.65px" xmlns="http://www.w3.org/2000/svg">
  <g transform="matrix(1.0, 0.0, 0.0, 1.0, 15.15, 200.95)">
    <path d="M48.7 -189.15 Q48.7 -184.25 45.25 -180.8 42.45 -178.0 38.8 -177.45 L40.1 -177.4 42.35 -177.2 Q53.3 -176.15 63.9 -173.4 L69.55 -172.05 Q70.55 -171.85 70.95 -170.9 72.7 -167.2 68.7 -166.65 L60.6 -165.75 Q56.75 -165.4 55.8 -168.95 L48.85 -170.25 Q48.8 -169.4 48.35 -168.3 47.1 -164.95 44.7 -162.2 L41.05 -157.75 Q37.25 -152.7 31.55 -150.0 30.45 -149.5 29.6 -150.45 27.45 -152.85 26.2 -155.85 L23.9 -161.45 Q22.75 -163.1 21.95 -164.95 L21.6 -166.05 17.15 -173.25 8.75 -162.35 Q7.4 -159.4 5.25 -156.85 L4.8 -156.3 Q4.25 -154.25 3.35 -152.45 9.0 -152.2 14.55 -152.55 L26.9 -152.1 Q27.9 -151.95 28.35 -151.0 29.15 -149.2 29.0 -147.25 30.0 -145.7 30.05 -143.8 30.15 -138.2 28.35 -133.0 L25.4 -125.05 Q24.4 -122.5 22.95 -120.15 26.45 -119.45 29.7 -117.25 30.35 -116.85 30.35 -116.05 30.3 -111.4 25.8 -112.9 20.6 -114.7 15.2 -115.55 14.7 -115.65 14.55 -116.2 13.55 -119.85 16.8 -122.7 18.45 -124.15 19.3 -126.2 L20.55 -128.8 Q20.6 -130.7 21.25 -132.4 L23.55 -138.9 Q24.75 -142.5 23.25 -146.1 13.6 -146.1 3.55 -146.4 3.35 -145.15 3.85 -143.9 8.15 -133.8 13.0 -123.9 14.0 -121.85 13.65 -119.55 13.3 -117.15 10.9 -116.45 8.15 -115.65 5.6 -114.35 L-5.45 -109.1 -6.65 -108.7 -9.05 -107.8 -9.05 -106.05 -9.05 -104.6 Q-6.95 -100.6 -11.6 -100.05 -13.15 -99.85 -13.95 -101.25 -15.2 -103.35 -15.15 -106.05 -15.05 -109.05 -14.1 -111.7 -13.85 -112.4 -13.15 -112.7 -9.9 -114.15 -6.35 -114.9 0.45 -118.15 7.1 -121.8 2.85 -131.1 -0.9 -140.55 L-1.05 -141.1 Q-3.0 -144.4 -2.7 -148.4 L-3.1 -149.05 Q-4.05 -150.2 -3.5 -152.3 L-3.0 -153.2 Q0.7 -162.35 7.05 -170.1 L13.25 -178.05 Q14.35 -179.5 15.75 -180.55 20.2 -187.1 25.65 -192.75 26.45 -195.4 28.55 -197.5 32.0 -200.95 36.9 -200.95 41.8 -200.95 45.25 -197.5 48.7 -194.05 48.7 -189.15 M24.3 -173.45 L25.95 -170.3 Q29.35 -164.2 32.25 -157.7 34.9 -159.25 36.75 -162.25 38.4 -164.95 40.7 -167.3 38.7 -169.75 39.9 -171.65 L31.5 -172.65 24.1 -173.8 24.3 -173.45 M26.15 -184.2 L22.55 -180.1 Q27.65 -178.8 32.9 -178.05 L31.25 -178.7 29.95 -179.5 30.0 -179.55 28.55 -180.8 Q27.0 -182.35 26.15 -184.2" fill="#000000" fill-rule="evenodd" stroke="none"/>
  </g>
</svg>
