<?xml version="1.0" encoding="UTF-8" standalone="no"?>
<svg xmlns:ffdec="https://www.free-decompiler.com/flash" xmlns:xlink="http://www.w3.org/1999/xlink" ffdec:objectType="shape" height="135.85px" width="117.1px" xmlns="http://www.w3.org/2000/svg">
  <g transform="matrix(1.0, 0.0, 0.0, 1.0, 30.05, 219.2)">
    <path d="M10.15 -200.8 Q10.85 -201.65 12.0 -201.75 L21.45 -202.55 Q22.1 -202.6 22.65 -203.0 22.9 -203.55 22.8 -204.15 L22.6 -204.45 Q21.65 -205.75 21.4 -207.35 L21.75 -208.2 Q22.85 -208.2 23.6 -208.95 L27.6 -209.4 28.0 -209.55 Q28.3 -210.25 28.15 -211.0 27.65 -213.95 27.8 -217.05 L28.4 -217.15 Q34.2 -215.4 39.85 -213.1 40.75 -212.7 41.6 -213.1 45.7 -214.95 46.65 -219.15 L46.8 -219.2 Q47.45 -219.0 47.8 -218.1 L47.8 -217.8 47.8 -216.65 Q49.15 -215.1 49.7 -213.2 52.85 -208.75 57.2 -205.3 L63.5 -200.15 63.25 -199.55 Q61.6 -196.15 59.3 -193.2 L59.3 -192.35 59.4 -188.9 Q59.95 -188.35 60.75 -188.35 62.25 -186.95 64.2 -186.1 61.95 -184.95 60.85 -182.65 L60.8 -182.35 Q60.75 -181.75 60.95 -181.2 L63.75 -179.75 65.1 -178.75 Q66.8 -177.25 69.0 -178.0 L76.2 -180.15 76.1 -178.8 Q75.75 -176.25 75.8 -173.65 79.95 -171.55 84.55 -170.25 L87.05 -167.4 Q86.1 -165.85 84.25 -165.7 80.35 -165.35 77.75 -163.05 L77.75 -162.8 77.75 -162.2 78.2 -161.05 Q74.45 -158.95 70.8 -156.65 L70.8 -156.35 70.8 -156.05 70.05 -155.2 Q64.05 -153.55 58.15 -154.0 56.45 -154.15 55.35 -155.25 51.55 -159.1 48.15 -155.3 48.0 -154.15 47.2 -153.25 L46.7 -153.35 46.35 -153.95 Q44.0 -157.35 41.25 -155.1 L41.2 -154.55 40.1 -150.5 39.7 -150.2 38.45 -150.3 38.05 -150.45 34.15 -150.7 Q33.35 -150.7 33.2 -150.0 L33.15 -149.45 Q33.05 -147.9 33.4 -146.55 L34.35 -145.4 34.35 -144.8 34.75 -141.1 34.35 -140.5 34.35 -139.05 34.6 -133.9 Q35.0 -130.4 33.1 -127.9 L30.85 -128.55 29.35 -129.4 Q25.5 -132.4 21.1 -131.55 20.75 -129.75 20.9 -127.8 L21.3 -120.35 20.7 -119.45 Q17.3 -119.3 13.9 -119.4 11.75 -119.45 10.55 -117.95 L10.45 -117.05 10.15 -116.8 10.25 -115.35 10.9 -109.85 11.5 -109.0 10.7 -108.6 Q6.25 -107.35 2.85 -104.75 L2.85 -104.5 2.85 -103.35 3.15 -103.05 Q6.25 -99.35 9.85 -96.15 L10.15 -95.25 4.5 -94.5 Q3.6 -94.3 2.85 -93.75 L3.05 -90.3 Q3.45 -86.85 2.75 -83.35 L1.9 -83.45 1.15 -84.05 0.1 -84.95 Q-1.8 -86.45 -3.05 -88.5 -5.0 -91.7 -7.15 -90.0 L-6.75 -88.55 Q-9.05 -85.65 -12.5 -84.3 L-12.55 -85.75 -12.9 -91.25 Q-15.3 -92.9 -18.25 -91.25 L-20.2 -90.15 Q-21.9 -89.15 -23.05 -89.4 L-22.65 -92.25 Q-22.35 -96.4 -24.0 -100.0 -24.5 -101.0 -25.45 -101.5 -27.65 -102.65 -30.05 -102.2 L-29.75 -102.65 -25.15 -109.3 -25.05 -109.8 Q-24.2 -111.75 -24.4 -113.9 -26.8 -117.05 -29.7 -119.2 -25.1 -119.65 -20.85 -121.1 -20.4 -121.8 -20.5 -122.5 -20.7 -125.35 -20.55 -128.3 -18.55 -128.75 -16.85 -127.8 -13.3 -125.8 -11.35 -128.3 L-11.45 -128.6 Q-13.5 -132.15 -16.35 -135.2 -12.45 -135.2 -9.25 -137.35 -9.05 -137.75 -9.15 -138.15 -10.2 -142.2 -13.25 -144.8 -11.75 -145.7 -10.7 -147.15 L-10.6 -147.7 -10.0 -148.3 -9.8 -149.15 Q-9.55 -152.0 -11.25 -154.35 -12.45 -155.4 -13.1 -156.9 -15.35 -159.65 -18.45 -161.25 -18.8 -162.0 -19.5 -162.4 -16.5 -163.95 -14.05 -166.15 L-14.05 -166.45 Q-13.95 -167.15 -14.15 -167.85 -15.3 -169.25 -16.8 -170.15 L-3.05 -174.9 Q0.5 -176.2 1.6 -179.0 -1.25 -181.7 -4.75 -183.6 L-1.1 -184.6 2.0 -185.45 Q4.75 -186.15 6.7 -188.05 L6.7 -188.35 6.7 -189.2 3.15 -192.85 Q7.4 -193.4 10.9 -195.35 L10.95 -196.2 Q11.25 -198.75 10.15 -200.8" fill="#ffff00" fill-opacity="0.5019608" fill-rule="evenodd" stroke="none"/>
  </g>
</svg>
