<?xml version="1.0" encoding="UTF-8" standalone="no"?>
<svg xmlns:ffdec="https://www.free-decompiler.com/flash" xmlns:xlink="http://www.w3.org/1999/xlink" ffdec:objectType="shape" height="85.4px" width="126.75px" xmlns="http://www.w3.org/2000/svg">
  <g transform="matrix(1.0, 0.0, 0.0, 1.0, 51.3, 218.8)">
    <path d="M3.8 -208.8 L4.05 -209.95 Q3.95 -211.95 4.1 -213.95 9.0 -214.2 13.25 -211.75 17.0 -209.5 21.0 -209.85 L23.05 -215.55 23.55 -216.15 Q26.8 -217.65 30.35 -216.15 L32.05 -215.25 Q36.75 -212.15 40.5 -215.3 L40.5 -215.6 40.6 -215.9 40.8 -216.15 42.9 -218.75 43.1 -218.75 43.35 -218.4 44.25 -217.75 49.85 -212.4 Q53.65 -208.65 57.1 -212.55 L57.75 -212.25 Q58.2 -210.7 58.2 -209.05 L58.15 -203.6 Q59.45 -201.4 61.85 -200.45 64.95 -199.25 67.35 -197.85 L67.3 -197.55 67.0 -196.95 66.95 -196.4 Q66.7 -195.0 65.55 -194.1 L65.45 -193.8 65.35 -193.2 63.85 -191.4 62.5 -189.95 Q59.4 -187.25 60.15 -183.15 64.45 -180.5 69.85 -180.25 70.35 -179.75 71.0 -179.6 L71.15 -179.4 71.2 -178.8 70.9 -178.2 68.9 -174.2 68.9 -173.35 69.0 -170.45 69.85 -169.9 70.7 -168.7 75.45 -163.25 73.5 -163.3 70.2 -162.7 Q67.2 -161.35 67.0 -157.6 66.25 -156.3 65.15 -155.3 L65.05 -155.0 64.95 -154.4 63.9 -154.05 63.75 -153.85 63.35 -153.25 62.35 -153.25 Q58.1 -156.65 53.7 -159.85 53.35 -160.15 53.05 -160.05 48.3 -158.75 45.2 -154.4 43.85 -152.5 42.0 -151.95 L40.4 -153.95 34.75 -160.2 34.75 -160.5 34.75 -160.75 Q34.45 -161.4 33.75 -161.55 32.55 -161.85 31.8 -161.05 29.0 -158.0 26.65 -154.6 L26.55 -154.1 Q25.85 -152.25 24.75 -150.6 20.25 -151.0 16.1 -150.4 15.75 -149.3 15.85 -148.1 15.9 -146.8 16.25 -145.6 L18.1 -138.0 Q15.3 -137.65 12.45 -138.7 11.4 -139.1 10.5 -138.5 7.7 -136.65 6.2 -133.4 3.85 -135.75 2.6 -139.1 2.05 -140.55 0.65 -140.9 L-0.85 -140.65 Q-2.35 -139.5 -3.75 -138.75 -4.85 -140.2 -5.65 -141.8 -7.5 -145.65 -10.4 -148.45 -11.45 -148.25 -12.3 -147.7 L-12.45 -147.4 -12.5 -146.85 -13.2 -146.15 -14.65 -144.05 Q-17.05 -140.05 -20.1 -136.45 L-20.45 -136.45 -20.75 -136.55 Q-24.05 -137.9 -26.9 -140.1 -30.6 -143.05 -32.85 -139.75 -32.8 -139.3 -33.0 -138.9 -34.3 -136.1 -36.0 -133.6 -36.9 -134.65 -36.85 -136.1 -36.7 -138.8 -36.7 -141.55 -37.0 -142.15 -37.65 -142.3 L-38.0 -142.15 -38.8 -141.45 -39.0 -141.75 -40.9 -145.2 -41.0 -146.35 Q-41.2 -147.25 -41.7 -148.0 -42.2 -148.65 -43.0 -148.6 L-47.85 -148.0 -47.55 -152.55 Q-47.15 -156.25 -49.1 -158.95 L-49.2 -159.2 -49.35 -160.4 Q-50.15 -161.25 -51.3 -161.7 -48.6 -163.2 -46.4 -165.2 L-46.25 -166.6 -46.3 -170.95 -43.15 -170.4 Q-38.25 -168.95 -33.55 -169.9 -33.2 -170.45 -33.2 -171.05 -33.15 -173.4 -32.1 -175.35 L-32.05 -175.65 -32.0 -176.25 -31.25 -176.85 -30.35 -177.35 Q-27.8 -178.0 -26.05 -179.8 L-25.9 -180.65 Q-25.95 -184.35 -29.3 -185.85 L-31.15 -187.75 Q-23.3 -192.5 -15.65 -197.45 L-15.6 -197.75 -15.65 -198.6 -18.85 -200.7 Q-17.5 -200.9 -17.0 -202.05 -15.65 -202.35 -14.8 -203.4 L-14.8 -203.7 -14.8 -204.0 -14.6 -204.25 -14.4 -204.55 -14.4 -204.85 -14.4 -205.7 Q-15.55 -207.75 -17.9 -207.8 -18.65 -208.35 -18.75 -208.95 -11.75 -210.3 -4.65 -209.1 L3.8 -208.8" fill="#ffff00" fill-opacity="0.5019608" fill-rule="evenodd" stroke="none"/>
  </g>
</svg>
