<?xml version="1.0" encoding="UTF-8" standalone="no"?>
<svg xmlns:ffdec="https://www.free-decompiler.com/flash" xmlns:xlink="http://www.w3.org/1999/xlink" ffdec:objectType="shape" height="58.3px" width="96.85px" xmlns="http://www.w3.org/2000/svg">
  <g transform="matrix(1.0, 0.0, 0.0, 1.0, 38.95, 204.05)">
    <path d="M1.5 -199.05 Q11.75 -202.0 22.25 -203.05 L22.7 -203.1 26.9 -203.8 36.7 -203.15 Q38.8 -204.05 41.3 -204.05 46.2 -204.05 49.65 -200.6 53.1 -197.15 53.1 -192.25 53.1 -187.35 49.65 -183.9 47.4 -181.65 44.55 -180.85 L45.35 -179.85 52.9 -170.45 53.85 -169.15 Q56.95 -168.65 57.85 -165.5 58.1 -164.65 57.5 -163.95 54.25 -160.25 50.95 -163.2 48.8 -163.15 47.85 -165.9 L46.6 -168.4 Q42.25 -175.0 37.25 -181.15 L35.65 -181.8 34.35 -182.6 34.4 -182.65 32.95 -183.9 Q30.2 -186.65 29.65 -190.35 L27.1 -193.85 Q25.6 -196.05 25.85 -197.75 L25.55 -197.7 25.4 -196.35 Q25.15 -194.85 25.2 -193.25 L25.55 -184.6 Q32.1 -176.3 40.8 -170.2 42.0 -169.35 43.55 -169.3 48.0 -169.05 46.9 -165.3 46.4 -163.6 44.55 -163.35 39.95 -162.65 36.8 -165.45 36.35 -165.85 36.2 -166.45 26.7 -173.05 20.1 -182.5 19.75 -183.0 19.7 -183.75 L19.2 -196.95 15.65 -196.25 2.2 -193.4 1.15 -192.8 -1.25 -191.8 Q3.75 -189.45 8.4 -186.25 L21.25 -177.65 Q23.0 -176.5 23.35 -175.3 L23.6 -174.55 Q24.9 -173.5 25.15 -172.0 26.3 -170.75 24.95 -168.35 23.85 -166.4 21.95 -165.2 13.5 -160.0 4.5 -155.3 9.7 -153.35 12.9 -149.15 13.4 -148.45 12.85 -147.7 10.05 -144.05 6.05 -147.3 L1.2 -150.75 Q-0.3 -151.65 -1.9 -152.2 -4.15 -153.0 -3.8 -155.25 -3.5 -156.9 -2.05 -157.85 3.05 -161.2 8.45 -163.95 13.65 -166.6 18.15 -170.3 15.6 -172.15 14.8 -174.95 L0.35 -183.65 Q-1.55 -184.75 -3.1 -186.25 -5.1 -186.8 -6.85 -187.6 L-7.1 -182.85 -6.8 -167.05 Q-6.8 -164.75 -7.9 -162.8 -8.4 -161.9 -9.45 -161.65 L-16.05 -160.6 Q-24.35 -158.4 -32.85 -156.75 L-32.85 -154.75 -32.85 -153.3 Q-30.05 -149.25 -34.65 -148.0 -36.0 -147.65 -36.9 -148.7 -39.35 -151.55 -38.9 -155.55 L-38.35 -160.35 Q-38.1 -162.15 -36.3 -162.45 -24.6 -164.25 -13.0 -167.05 -12.35 -177.55 -13.05 -188.05 -13.2 -190.5 -12.4 -192.6 L-12.25 -193.05 Q-11.9 -194.75 -9.45 -195.6 L0.75 -199.2 1.5 -199.05" fill="#000000" fill-rule="evenodd" stroke="none"/>
  </g>
</svg>
