<?xml version="1.0" encoding="UTF-8" standalone="no"?>
<svg xmlns:ffdec="https://www.free-decompiler.com/flash" xmlns:xlink="http://www.w3.org/1999/xlink" ffdec:objectType="shape" height="87.75px" width="134.6px" xmlns="http://www.w3.org/2000/svg">
  <g transform="matrix(1.0, 0.0, 0.0, 1.0, 58.0, 237.95)">
    <path d="M34.35 -235.65 L34.35 -235.95 Q34.25 -236.7 34.45 -237.4 L34.65 -237.65 34.9 -237.95 Q36.3 -238.0 37.45 -236.85 42.0 -232.0 48.15 -233.15 50.05 -235.15 52.2 -236.05 L54.95 -232.4 Q55.3 -231.95 55.8 -231.75 60.85 -229.3 65.45 -232.75 L66.2 -232.5 66.4 -232.2 66.6 -231.9 66.6 -231.05 Q66.5 -226.25 66.7 -221.55 L68.4 -220.65 Q68.8 -219.95 69.55 -219.5 L69.65 -219.25 69.65 -218.95 Q72.35 -216.7 72.65 -213.45 72.15 -212.3 70.85 -212.15 67.4 -211.65 65.05 -209.25 L65.25 -207.85 Q67.15 -201.35 69.55 -195.1 64.65 -196.0 61.6 -193.0 L61.6 -192.7 61.6 -191.3 Q63.6 -188.5 66.2 -186.1 L66.2 -185.8 66.2 -185.5 66.4 -185.2 66.4 -184.95 66.3 -184.65 66.1 -183.8 Q63.5 -181.7 63.9 -178.3 65.5 -175.85 67.95 -174.15 L68.4 -173.9 Q71.4 -172.4 73.5 -169.95 L73.5 -169.7 73.4 -169.4 Q71.2 -166.8 72.35 -163.6 74.25 -161.2 76.6 -159.0 L74.85 -158.75 Q73.1 -158.55 71.65 -157.85 68.5 -156.35 66.9 -152.95 L65.45 -152.1 65.45 -151.8 65.35 -151.25 Q64.7 -151.05 64.3 -150.55 L62.0 -150.55 52.9 -157.65 Q52.25 -158.15 51.45 -158.1 45.75 -157.6 42.6 -152.6 L41.05 -151.7 36.85 -151.7 Q36.0 -152.8 34.65 -153.35 L33.75 -154.45 Q31.7 -155.75 30.0 -154.3 27.1 -151.9 23.4 -150.2 L21.65 -150.2 18.2 -154.8 18.2 -155.1 18.2 -155.35 18.0 -155.6 17.4 -155.8 Q13.15 -153.75 9.2 -150.85 L3.0 -158.6 Q2.7 -158.95 2.45 -158.85 -2.55 -156.2 -7.05 -152.5 -9.7 -155.45 -10.95 -159.2 L-11.5 -159.55 -13.55 -159.4 Q-17.6 -157.45 -21.9 -157.1 -24.1 -160.55 -27.85 -160.15 -30.4 -155.35 -34.4 -151.8 L-37.0 -155.8 Q-37.4 -156.35 -37.95 -156.2 -42.25 -155.0 -46.1 -153.45 -46.3 -157.35 -47.65 -160.9 -48.3 -162.6 -49.75 -163.3 -53.95 -165.25 -58.0 -165.25 -55.2 -168.3 -51.8 -170.6 -47.8 -173.3 -47.85 -177.65 -48.75 -179.25 -50.5 -179.75 -44.95 -182.85 -43.6 -188.6 L-41.3 -188.5 Q-40.45 -188.45 -39.75 -188.0 -36.3 -185.9 -32.65 -186.85 -30.85 -190.15 -28.65 -193.2 L-27.85 -193.2 Q-25.85 -191.85 -24.35 -190.0 -21.0 -186.0 -16.25 -186.4 L-16.05 -186.65 Q-14.4 -189.25 -14.8 -192.45 L-14.6 -192.7 -14.4 -193.0 -14.25 -194.15 Q-13.4 -196.05 -11.35 -197.25 L-11.35 -197.5 -11.35 -198.4 -12.5 -200.1 Q-13.75 -202.95 -15.55 -205.6 -12.1 -207.1 -8.1 -208.4 L-8.0 -208.95 -7.9 -212.1 -6.15 -212.4 4.95 -213.25 Q6.1 -213.35 6.7 -214.5 L6.75 -215.1 7.35 -220.85 13.4 -221.15 14.0 -221.25 14.3 -221.75 Q15.95 -226.55 15.55 -231.8 20.9 -228.65 25.8 -224.9 25.0 -224.55 25.15 -223.75 27.0 -222.05 28.95 -224.1 30.45 -225.7 32.7 -227.0 L32.8 -227.6 33.65 -234.8 34.35 -235.65" fill="#ffff00" fill-opacity="0.5019608" fill-rule="evenodd" stroke="none"/>
  </g>
</svg>
