<?xml version="1.0" encoding="UTF-8" standalone="no"?>
<svg xmlns:ffdec="https://www.free-decompiler.com/flash" xmlns:xlink="http://www.w3.org/1999/xlink" ffdec:objectType="shape" height="64.05px" width="95.8px" xmlns="http://www.w3.org/2000/svg">
  <g transform="matrix(1.0, 0.0, 0.0, 1.0, 36.15, 224.4)">
    <path d="M16.0 -210.4 L35.15 -220.2 40.55 -223.2 41.1 -223.4 41.65 -223.35 Q43.9 -224.4 46.6 -224.4 51.5 -224.4 54.95 -220.95 58.4 -217.5 58.4 -212.6 58.4 -207.7 54.95 -204.25 52.1 -201.4 48.25 -200.9 L42.9 -201.4 40.95 -202.15 39.65 -202.95 39.7 -203.0 38.25 -204.25 37.25 -205.35 Q38.35 -200.65 38.7 -195.85 38.85 -193.15 40.4 -191.05 46.8 -182.3 53.9 -174.15 L55.8 -172.55 Q58.25 -171.05 59.4 -168.75 59.95 -167.65 59.2 -166.65 57.1 -163.85 53.6 -165.45 52.8 -165.85 52.05 -166.4 50.95 -167.25 50.8 -168.65 44.0 -175.85 38.1 -183.8 35.5 -187.25 34.0 -191.25 33.15 -193.4 33.05 -195.75 L32.65 -199.05 30.9 -191.4 Q30.75 -190.7 30.9 -189.9 37.8 -180.9 45.55 -172.5 L46.65 -171.05 Q49.35 -166.9 44.35 -165.5 40.85 -164.45 39.6 -167.65 39.2 -168.75 39.55 -169.9 33.3 -176.9 27.4 -184.2 26.8 -183.25 25.65 -182.5 24.15 -179.65 22.1 -177.1 L19.4 -173.3 18.5 -170.3 18.25 -168.95 18.25 -167.25 28.2 -167.7 Q30.15 -167.45 30.3 -165.5 30.45 -162.75 27.65 -162.5 21.75 -162.0 16.1 -160.55 12.1 -159.5 11.65 -163.35 11.35 -165.65 12.45 -167.6 L12.4 -170.8 Q12.35 -172.35 13.25 -173.65 L13.55 -173.95 Q14.55 -177.35 17.0 -180.2 19.05 -182.6 20.45 -185.4 L3.0 -191.15 2.95 -188.95 Q3.3 -177.8 4.05 -166.7 4.15 -165.45 2.95 -165.0 -0.3 -163.65 -3.7 -165.0 -9.7 -167.35 -15.95 -168.65 L-28.9 -171.45 Q-30.15 -167.7 -31.55 -164.15 -31.8 -163.6 -32.4 -163.5 -36.3 -162.75 -36.15 -166.55 -36.0 -170.3 -34.75 -173.85 L-34.05 -175.95 Q-33.05 -178.65 -30.25 -177.9 -21.55 -175.55 -12.75 -173.9 -10.2 -173.45 -7.85 -172.45 -4.9 -171.2 -1.95 -170.95 L-3.25 -192.0 Q-3.35 -193.85 -2.95 -195.5 L-2.65 -197.3 -1.85 -198.35 -1.8 -198.45 Q-1.2 -199.6 0.0 -199.6 L0.8 -199.2 Q5.95 -203.9 11.65 -207.85 13.75 -209.3 16.0 -210.4 M9.65 -198.85 L6.7 -196.15 Q13.3 -193.85 20.2 -192.05 22.7 -191.4 24.85 -190.2 24.75 -192.25 25.65 -194.5 L25.95 -195.55 Q27.5 -203.5 30.25 -211.0 L23.4 -207.85 Q17.7 -205.35 12.75 -201.55 L9.65 -198.85" fill="#000000" fill-rule="evenodd" stroke="none"/>
  </g>
</svg>
