<?xml version="1.0" encoding="UTF-8" standalone="no"?>
<svg xmlns:ffdec="https://www.free-decompiler.com/flash" xmlns:xlink="http://www.w3.org/1999/xlink" ffdec:objectType="shape" height="127.9px" width="99.85px" xmlns="http://www.w3.org/2000/svg">
  <g transform="matrix(1.0, 0.0, 0.0, 1.0, 19.05, 258.1)">
    <path d="M44.25 -253.3 Q47.2 -255.35 49.6 -258.1 L53.05 -257.45 58.55 -252.6 60.3 -250.7 Q63.1 -246.95 66.7 -250.85 L67.55 -250.55 67.95 -249.95 69.95 -247.35 70.05 -247.1 70.15 -246.5 Q72.6 -243.25 75.15 -240.25 75.8 -239.45 76.75 -239.45 L80.8 -239.95 80.8 -239.4 80.7 -238.55 80.5 -238.25 80.05 -237.65 80.05 -237.1 Q80.15 -236.6 79.85 -236.25 L79.15 -235.6 Q78.35 -234.6 78.2 -233.35 L77.25 -232.2 Q75.5 -229.9 75.8 -227.0 L76.6 -225.9 78.6 -220.95 77.95 -220.6 Q72.85 -219.6 69.65 -215.85 L69.65 -215.0 69.65 -213.25 69.85 -213.0 70.05 -212.7 70.05 -212.4 70.05 -212.1 70.25 -211.85 72.35 -208.65 71.6 -207.75 65.45 -202.6 65.45 -201.75 65.45 -200.6 Q65.9 -199.6 66.6 -198.8 L74.0 -191.1 Q74.0 -190.5 74.35 -189.95 75.15 -188.55 74.95 -187.05 L73.15 -186.9 Q69.45 -187.1 67.85 -184.1 L67.5 -182.35 Q67.35 -180.05 67.35 -177.75 66.4 -177.15 65.25 -176.95 L53.75 -175.75 Q51.7 -175.6 50.1 -174.4 49.95 -171.6 50.55 -169.0 51.55 -164.8 50.35 -160.85 45.55 -161.2 43.15 -157.1 42.6 -152.2 39.5 -148.25 39.2 -147.85 38.8 -147.95 35.2 -148.45 32.25 -150.85 28.4 -153.95 26.0 -150.2 L25.5 -149.8 Q23.9 -146.75 21.3 -144.4 L19.0 -144.8 Q14.8 -147.85 12.15 -143.75 L12.1 -143.45 12.05 -143.15 11.05 -142.05 9.7 -138.95 Q7.9 -134.45 5.55 -130.2 L3.9 -130.3 Q2.7 -131.2 1.9 -132.45 -2.25 -138.6 -8.85 -135.2 L-9.6 -135.5 Q-10.05 -138.9 -10.15 -142.4 -10.25 -146.05 -11.5 -149.45 -11.8 -150.2 -12.6 -150.25 L-19.05 -149.9 Q-18.0 -152.2 -16.45 -154.15 -13.25 -158.05 -12.1 -162.85 L-11.95 -163.15 -11.75 -163.45 -11.7 -164.3 -11.85 -165.15 -12.05 -165.45 -12.5 -166.0 -12.7 -167.1 Q-13.75 -169.7 -15.2 -172.05 -10.0 -172.3 -5.1 -174.1 L-4.8 -174.65 -4.15 -175.55 -4.0 -176.7 -4.05 -178.7 -1.9 -179.15 Q2.2 -179.4 5.05 -182.05 L5.25 -183.2 Q5.3 -184.65 4.5 -185.8 L4.0 -186.1 3.5 -186.75 Q0.35 -189.0 -2.9 -190.4 L-1.55 -193.9 -1.05 -195.2 Q0.6 -199.45 -0.3 -203.65 L-3.75 -206.65 Q3.0 -208.75 8.6 -212.6 L8.6 -213.45 8.6 -214.9 8.4 -215.2 5.15 -218.95 5.15 -219.2 4.95 -219.8 4.75 -220.0 Q3.95 -220.35 4.1 -220.95 5.1 -222.35 6.6 -222.95 L7.5 -223.25 Q13.5 -224.35 12.8 -230.1 L11.7 -236.7 11.95 -237.0 20.7 -237.4 21.1 -237.55 Q21.4 -239.1 21.0 -240.65 20.15 -243.95 20.05 -247.35 22.55 -247.1 24.9 -246.15 30.25 -243.9 35.7 -244.5 L35.85 -245.05 35.9 -245.65 Q34.25 -247.25 34.35 -249.7 34.55 -253.45 35.1 -257.15 38.95 -254.8 43.2 -253.25 L44.25 -253.3" fill="#ffff00" fill-opacity="0.5019608" fill-rule="evenodd" stroke="none"/>
  </g>
</svg>
