<?xml version="1.0" encoding="UTF-8" standalone="no"?>
<svg xmlns:ffdec="https://www.free-decompiler.com/flash" xmlns:xlink="http://www.w3.org/1999/xlink" ffdec:objectType="shape" height="95.0px" width="69.35px" xmlns="http://www.w3.org/2000/svg">
  <g transform="matrix(1.0, 0.0, 0.0, 1.0, 4.75, 242.4)">
    <path d="M17.65 -208.3 Q18.65 -210.2 20.25 -211.65 26.45 -219.95 33.6 -227.4 L40.65 -235.35 Q41.95 -237.0 43.55 -237.9 L44.45 -238.95 Q47.9 -242.4 52.8 -242.4 57.7 -242.4 61.15 -238.95 64.6 -235.5 64.6 -230.6 64.6 -225.7 61.15 -222.25 58.3 -219.4 54.45 -218.9 L49.1 -219.4 47.15 -220.15 45.85 -220.95 45.9 -221.0 Q45.15 -221.55 44.45 -222.25 L44.25 -222.45 44.35 -221.75 46.5 -208.25 Q46.65 -207.3 47.25 -206.5 52.35 -200.25 56.55 -193.5 59.0 -192.0 59.85 -189.1 60.15 -188.05 59.3 -187.3 55.55 -183.95 53.0 -187.95 L51.6 -190.45 51.5 -190.7 Q49.65 -192.45 48.95 -194.65 44.3 -200.3 40.35 -206.35 40.15 -206.65 40.1 -207.05 40.05 -211.95 39.3 -216.7 L37.8 -211.75 Q36.65 -207.6 37.3 -203.65 L38.15 -198.4 38.4 -197.1 41.4 -196.05 41.45 -196.1 Q46.35 -194.1 43.1 -189.6 L41.7 -187.6 Q42.6 -185.85 43.75 -184.15 L43.9 -183.45 Q43.7 -182.5 43.3 -181.8 43.55 -180.6 42.4 -178.85 40.25 -175.55 37.5 -178.3 36.35 -179.4 36.9 -180.85 L36.65 -181.2 Q32.85 -176.6 29.55 -171.8 L29.65 -171.8 30.7 -171.9 Q34.25 -172.9 36.75 -170.8 39.5 -168.4 36.55 -166.3 35.35 -165.5 33.85 -165.7 L28.3 -165.55 25.25 -165.2 20.8 -165.3 Q18.9 -166.85 20.7 -169.55 L21.05 -170.0 1.95 -160.65 2.45 -158.4 2.75 -157.25 Q4.05 -153.65 6.05 -150.45 6.3 -150.0 6.05 -149.55 3.9 -145.6 0.65 -148.95 -2.35 -152.05 -3.55 -156.2 -4.25 -158.65 -4.4 -161.05 -5.05 -162.0 -4.45 -163.05 -4.2 -164.35 -2.75 -164.8 L-1.95 -165.3 Q6.7 -169.25 15.05 -173.65 18.65 -175.55 22.35 -176.8 L17.7 -183.8 Q14.5 -188.4 12.3 -193.4 11.9 -194.3 11.8 -195.0 10.75 -195.85 11.15 -197.2 12.5 -201.25 15.3 -204.7 16.65 -206.35 17.65 -208.3 M33.65 -218.25 L30.25 -214.4 Q24.2 -207.4 19.45 -199.6 L32.15 -197.8 31.85 -199.1 30.55 -204.55 Q29.85 -207.25 31.2 -209.7 32.1 -211.4 32.5 -213.3 L33.65 -218.25 M33.9 -191.55 L20.8 -193.2 18.9 -193.4 19.5 -192.25 Q22.5 -187.2 25.9 -182.5 L27.45 -180.55 28.0 -179.85 33.7 -187.2 34.85 -188.65 33.9 -191.55" fill="#000000" fill-rule="evenodd" stroke="none"/>
  </g>
</svg>
