<?xml version="1.0" encoding="UTF-8" standalone="no"?>
<svg xmlns:ffdec="https://www.free-decompiler.com/flash" xmlns:xlink="http://www.w3.org/1999/xlink" ffdec:objectType="shape" height="124.25px" width="107.9px" xmlns="http://www.w3.org/2000/svg">
  <g transform="matrix(1.0, 0.0, 0.0, 1.0, 6.35, 273.6)">
    <path d="M52.0 -273.55 L52.1 -273.6 52.85 -273.55 Q55.3 -271.65 57.15 -269.15 59.6 -265.8 62.25 -267.8 L62.35 -268.05 62.35 -268.35 62.75 -268.7 64.4 -271.25 65.25 -271.5 65.5 -271.75 65.75 -272.0 67.75 -272.0 67.95 -271.8 68.9 -270.65 68.95 -269.8 Q69.45 -265.35 70.9 -261.15 L71.2 -260.85 73.05 -258.55 73.1 -258.0 73.1 -257.1 Q73.55 -256.3 74.45 -256.05 L74.85 -256.2 75.15 -256.35 75.3 -256.95 75.25 -258.35 77.65 -262.2 Q79.1 -264.95 81.2 -265.45 L81.05 -264.6 Q79.7 -260.1 79.75 -255.4 86.05 -254.7 90.4 -250.3 L90.4 -249.7 90.4 -248.85 Q87.1 -247.0 85.4 -243.95 L85.7 -243.5 Q93.9 -235.8 101.55 -227.25 100.25 -226.25 98.25 -226.15 94.2 -226.0 92.3 -223.1 92.3 -221.85 92.55 -220.6 93.55 -215.75 93.65 -211.0 89.8 -212.05 85.75 -213.4 81.2 -214.95 76.6 -215.15 L76.0 -214.4 75.6 -213.2 Q75.05 -210.25 73.5 -207.75 L73.5 -207.2 73.5 -206.6 73.1 -206.3 Q69.35 -206.75 67.35 -204.4 L67.35 -203.25 Q67.15 -198.5 68.15 -194.0 L57.3 -193.75 Q56.1 -193.7 55.25 -193.05 L55.1 -192.5 Q54.8 -190.6 56.25 -189.3 L56.35 -188.75 Q56.6 -187.75 57.4 -187.0 L57.5 -186.5 58.15 -184.7 56.8 -183.9 Q53.1 -182.45 50.1 -180.2 L50.05 -179.6 Q49.7 -177.4 51.5 -176.15 54.15 -172.0 56.25 -167.5 L56.25 -166.95 56.25 -166.35 56.5 -166.05 56.6 -165.8 Q53.75 -163.35 52.7 -159.6 51.95 -156.75 50.45 -154.45 L49.6 -154.55 46.15 -156.05 44.05 -156.0 Q38.85 -153.25 34.45 -149.35 L33.75 -150.2 33.35 -150.45 Q25.9 -151.5 18.5 -149.65 L18.85 -150.55 Q20.1 -152.9 20.5 -155.4 L20.0 -155.75 Q14.65 -156.5 9.3 -157.75 L7.15 -158.05 Q2.2 -158.2 -1.35 -160.7 L-1.35 -160.95 Q0.35 -166.1 2.85 -170.8 L2.3 -171.15 Q-2.05 -172.2 -6.0 -174.35 L-6.05 -174.55 -6.35 -175.5 Q-2.9 -178.6 1.2 -180.95 1.6 -183.15 0.75 -185.2 -2.6 -193.25 -4.75 -201.7 L-1.2 -201.35 Q2.5 -199.9 5.55 -201.5 4.9 -208.2 2.55 -214.5 1.1 -218.45 0.95 -222.85 2.4 -223.0 3.3 -223.85 7.45 -227.75 7.85 -233.6 11.5 -232.6 13.2 -235.7 L13.2 -236.0 13.2 -236.3 13.65 -237.2 15.7 -245.4 Q18.9 -242.85 22.55 -243.3 L22.7 -243.6 22.9 -244.45 23.2 -244.75 Q25.75 -248.35 26.65 -252.8 28.9 -251.1 31.45 -249.9 32.85 -250.25 33.7 -251.35 L34.4 -252.7 Q35.55 -257.4 36.05 -262.1 36.95 -262.3 37.65 -262.1 L43.0 -260.45 Q48.75 -258.7 48.6 -264.4 48.45 -269.1 50.55 -272.75 L51.05 -272.9 Q51.65 -273.05 52.0 -273.55" fill="#ffff00" fill-opacity="0.5019608" fill-rule="evenodd" stroke="none"/>
  </g>
</svg>
