<?xml version="1.0" encoding="UTF-8" standalone="no"?>
<svg xmlns:ffdec="https://www.free-decompiler.com/flash" xmlns:xlink="http://www.w3.org/1999/xlink" ffdec:objectType="shape" height="94.25px" width="67.1px" xmlns="http://www.w3.org/2000/svg">
  <g transform="matrix(1.0, 0.0, 0.0, 1.0, -11.7, 258.95)">
    <path d="M51.5 -255.25 L51.75 -255.5 Q55.2 -258.95 60.1 -258.95 65.0 -258.95 68.45 -255.5 71.9 -252.05 71.9 -247.15 71.9 -242.25 68.45 -238.8 65.6 -235.95 61.75 -235.45 L56.4 -235.95 54.45 -236.7 53.15 -237.5 53.2 -237.55 51.75 -238.8 Q50.2 -240.35 49.35 -242.15 49.55 -240.6 50.2 -239.1 52.65 -233.3 53.1 -227.05 63.65 -227.5 72.8 -233.3 74.7 -237.3 78.2 -234.35 78.75 -233.85 78.8 -233.1 79.15 -228.4 74.55 -226.8 L67.4 -224.2 Q62.85 -222.4 57.95 -221.4 L50.15 -220.7 Q48.7 -220.75 48.35 -222.15 47.2 -226.5 46.3 -230.95 L44.9 -236.3 44.75 -236.15 42.45 -233.2 Q41.9 -231.35 40.8 -229.75 L40.15 -228.85 Q39.8 -227.3 38.65 -226.05 L37.9 -225.15 Q43.0 -218.55 50.35 -215.4 L51.45 -215.15 Q55.35 -214.85 54.85 -211.05 54.5 -208.4 51.85 -208.3 48.5 -208.1 45.6 -210.1 43.05 -211.8 40.7 -213.75 40.1 -214.25 39.85 -214.95 34.9 -218.85 31.65 -224.2 28.8 -219.4 25.25 -215.0 L23.8 -213.8 22.1 -211.2 Q23.0 -210.3 22.65 -208.8 L25.85 -208.6 41.65 -208.1 Q44.75 -208.1 47.05 -206.25 48.65 -205.0 47.75 -203.15 46.5 -200.65 43.85 -199.3 L43.6 -199.15 Q44.2 -198.3 43.55 -197.25 L43.05 -196.55 42.55 -195.7 Q39.55 -191.25 36.95 -186.45 L35.5 -184.4 Q31.6 -180.15 29.1 -175.15 L32.6 -172.5 Q33.15 -172.1 33.05 -171.35 L32.95 -170.6 38.8 -169.45 Q39.85 -169.2 39.95 -168.05 40.3 -165.1 37.25 -164.85 32.9 -164.5 28.55 -165.05 L24.25 -165.6 Q23.3 -165.35 22.5 -165.95 21.15 -166.45 21.1 -167.9 20.6 -169.2 21.0 -170.65 L21.75 -173.0 Q19.15 -174.8 16.65 -176.85 L13.0 -179.3 Q11.45 -180.15 11.75 -181.9 12.25 -185.25 15.2 -187.65 19.35 -191.05 23.8 -194.1 L31.6 -199.05 28.65 -199.65 23.65 -200.3 Q17.85 -201.1 13.45 -204.35 12.7 -204.85 12.95 -205.8 13.45 -207.85 14.95 -209.2 14.85 -209.95 15.1 -210.85 15.6 -212.6 16.8 -214.05 23.55 -222.2 29.05 -231.15 32.0 -236.0 36.1 -239.95 L37.85 -241.8 47.05 -252.35 Q48.95 -254.6 51.45 -255.25 L51.5 -255.25 M34.75 -194.2 Q29.75 -191.15 25.1 -187.7 L19.1 -182.85 Q19.9 -181.5 21.55 -180.35 L24.1 -178.55 Q27.05 -184.45 31.75 -189.5 32.7 -190.55 33.3 -191.95 33.8 -193.05 34.65 -193.9 L34.75 -194.2" fill="#000000" fill-rule="evenodd" stroke="none"/>
  </g>
</svg>
