<?xml version="1.0" encoding="UTF-8" standalone="no"?>
<svg xmlns:ffdec="https://www.free-decompiler.com/flash" xmlns:xlink="http://www.w3.org/1999/xlink" ffdec:objectType="shape" height="141.25px" width="91.1px" xmlns="http://www.w3.org/2000/svg">
  <g transform="matrix(1.0, 0.0, 0.0, 1.0, -6.5, 288.5)">
    <path d="M63.6 -288.5 Q67.0 -287.25 70.1 -285.1 74.55 -282.0 79.65 -281.7 L79.65 -281.15 Q79.45 -277.9 80.05 -274.8 81.45 -272.45 83.1 -270.25 83.45 -269.75 83.95 -269.6 89.1 -268.2 94.35 -268.85 L94.5 -268.55 Q95.5 -266.35 95.8 -263.95 L95.65 -263.65 Q95.3 -263.15 95.4 -262.5 L90.4 -258.15 90.4 -257.9 90.5 -256.15 Q91.05 -255.6 91.85 -255.6 95.1 -252.75 97.6 -249.55 95.3 -247.35 92.45 -246.0 L91.4 -245.6 Q86.95 -244.4 82.7 -242.4 82.55 -241.35 83.0 -240.4 85.55 -235.5 84.95 -230.05 84.25 -229.6 84.25 -228.9 L76.4 -228.5 Q76.25 -226.95 75.05 -225.9 L75.05 -225.6 74.95 -225.05 Q73.55 -223.7 73.2 -221.85 70.35 -222.6 67.95 -221.5 L67.85 -221.2 67.75 -218.6 Q68.65 -216.75 70.35 -215.65 L70.65 -214.85 Q74.4 -209.55 77.15 -203.8 77.75 -203.55 77.75 -202.95 77.45 -202.25 76.6 -202.2 71.45 -202.15 67.35 -200.35 L67.4 -200.05 67.75 -197.2 Q69.9 -194.7 70.05 -191.45 L70.7 -190.55 70.8 -190.25 70.7 -188.85 61.6 -185.0 61.6 -184.7 61.6 -184.15 61.8 -183.85 Q66.5 -179.1 69.2 -172.9 63.5 -172.65 59.7 -169.25 L59.65 -168.65 Q59.3 -165.1 59.3 -161.45 L58.55 -160.6 Q55.75 -160.3 53.55 -161.95 L52.7 -162.25 Q49.75 -162.25 48.95 -158.8 48.25 -158.35 48.0 -157.6 46.05 -151.85 42.7 -147.25 41.8 -149.1 40.5 -150.7 40.0 -152.8 38.55 -154.45 L38.55 -154.75 38.55 -155.05 Q37.8 -156.0 36.45 -156.2 35.25 -155.45 34.45 -154.75 L33.55 -155.6 33.55 -155.9 33.55 -156.2 Q32.9 -157.05 31.85 -157.35 26.65 -155.5 21.65 -153.1 L21.6 -153.3 Q21.05 -155.3 20.9 -157.35 L20.4 -157.65 6.5 -157.15 6.55 -157.3 7.0 -157.9 7.05 -158.2 7.2 -158.8 Q8.15 -159.6 8.6 -160.8 9.6 -161.45 10.75 -161.95 L10.8 -162.25 Q11.05 -163.95 12.05 -165.4 L12.05 -165.7 12.05 -167.7 7.1 -175.2 7.1 -175.5 7.1 -175.75 6.9 -176.05 6.7 -176.35 6.9 -176.65 7.2 -177.2 Q8.05 -177.45 8.5 -178.25 L11.8 -178.8 14.2 -179.05 Q18.3 -178.95 21.3 -181.15 L20.95 -183.35 Q20.0 -186.5 19.75 -189.8 22.5 -188.85 24.35 -190.35 L24.35 -190.65 24.35 -190.95 24.55 -191.25 24.75 -191.5 24.7 -191.8 Q24.3 -193.05 24.35 -194.4 L25.05 -195.25 Q26.75 -195.9 28.2 -197.1 29.75 -196.85 31.0 -197.55 L31.1 -197.9 Q31.35 -198.7 31.25 -199.6 30.3 -200.6 29.95 -201.9 L28.95 -202.45 Q26.2 -205.55 23.1 -208.25 L24.55 -209.5 25.7 -210.3 Q30.2 -213.85 30.9 -219.2 L29.8 -220.25 Q23.55 -223.1 17.05 -225.15 18.75 -227.6 20.8 -229.75 L20.9 -230.3 Q21.05 -232.1 20.7 -233.8 L19.95 -234.35 13.15 -242.15 Q17.0 -243.9 21.5 -244.65 26.05 -245.4 29.35 -248.4 L29.35 -248.65 29.25 -250.1 27.45 -251.85 27.4 -252.1 27.35 -252.4 Q25.25 -253.75 23.7 -255.6 L25.3 -256.15 25.6 -256.35 25.8 -256.65 27.6 -257.05 31.1 -257.65 Q35.25 -257.9 38.1 -260.5 L38.15 -260.75 38.2 -263.35 34.8 -267.1 Q39.75 -269.15 44.25 -272.0 L44.4 -273.45 43.95 -274.7 Q42.35 -276.35 41.85 -277.65 43.65 -278.95 45.65 -279.9 47.65 -282.95 45.85 -286.2 L45.85 -286.5 45.95 -288.25 46.25 -288.5 Q52.85 -287.35 58.85 -283.95 60.1 -283.25 61.3 -284.15 63.35 -285.8 63.6 -288.5" fill="#ffff00" fill-opacity="0.5019608" fill-rule="evenodd" stroke="none"/>
  </g>
</svg>
