<?xml version="1.0" encoding="UTF-8" standalone="no"?>
<svg xmlns:ffdec="https://www.free-decompiler.com/flash" xmlns:xlink="http://www.w3.org/1999/xlink" ffdec:objectType="shape" height="112.45px" width="61.8px" xmlns="http://www.w3.org/2000/svg">
  <g transform="matrix(1.0, 0.0, 0.0, 1.0, -22.85, 278.3)">
    <path d="M70.75 -274.85 Q74.2 -271.4 74.2 -266.5 74.2 -261.6 70.75 -258.15 67.9 -255.3 64.05 -254.8 L58.7 -255.3 56.95 -255.95 56.25 -254.4 57.95 -252.25 Q59.6 -249.7 60.85 -247.0 63.5 -242.55 66.4 -238.25 L69.75 -242.0 75.4 -249.35 Q75.6 -251.8 77.4 -253.55 L78.25 -254.8 Q76.9 -257.55 79.1 -259.55 79.8 -260.2 80.65 -260.3 85.55 -260.05 84.45 -255.15 83.75 -252.0 82.4 -249.2 80.15 -244.5 76.6 -240.45 L74.65 -238.35 Q70.95 -234.45 67.1 -230.85 66.75 -230.5 66.3 -230.5 66.75 -229.6 66.35 -228.55 65.0 -224.85 60.75 -225.6 L45.0 -228.35 44.1 -228.5 42.65 -224.65 Q45.75 -223.1 47.6 -219.7 50.3 -214.7 54.35 -210.7 58.2 -206.85 59.55 -201.95 61.4 -200.3 59.25 -197.45 57.5 -195.1 55.25 -193.2 48.3 -187.4 42.5 -180.55 46.05 -178.85 49.25 -176.4 51.15 -174.95 49.8 -173.0 48.15 -170.65 45.5 -172.15 L37.85 -176.8 Q36.9 -177.2 36.4 -177.7 L31.05 -171.7 38.8 -170.65 Q39.75 -170.45 39.95 -169.5 40.6 -166.8 37.75 -166.45 L26.9 -165.85 Q22.3 -165.9 22.9 -169.85 23.1 -171.1 24.1 -171.55 24.15 -172.3 24.65 -173.1 26.1 -175.45 28.05 -177.5 35.65 -185.4 42.7 -193.9 L43.35 -194.65 Q42.6 -201.65 41.0 -208.55 40.55 -210.65 39.55 -212.6 37.95 -215.55 36.9 -218.6 L36.3 -219.25 Q35.05 -222.15 36.35 -225.3 L38.4 -230.45 Q36.7 -231.3 35.1 -232.45 32.85 -234.15 33.95 -236.8 34.55 -238.25 35.5 -239.45 L35.6 -240.0 35.95 -240.85 36.2 -241.15 Q38.95 -249.4 46.15 -254.7 48.2 -256.2 50.5 -257.05 L50.9 -257.15 52.4 -260.2 Q50.6 -263.0 50.6 -266.5 50.6 -271.4 54.05 -274.85 57.5 -278.3 62.4 -278.3 67.3 -278.3 70.75 -274.85 M60.8 -235.3 Q57.2 -242.1 53.3 -248.55 L48.85 -241.15 47.85 -239.0 46.2 -234.15 48.85 -233.7 56.3 -232.6 59.25 -232.35 Q60.75 -233.3 62.05 -233.45 61.35 -234.3 60.8 -235.3 M46.7 -210.25 Q48.55 -203.1 48.75 -195.65 L53.9 -200.7 54.0 -200.8 Q51.65 -205.15 48.15 -208.75 L46.7 -210.25" fill="#000000" fill-rule="evenodd" stroke="none"/>
  </g>
</svg>
