<?xml version="1.0" encoding="UTF-8" standalone="no"?>
<svg xmlns:ffdec="https://www.free-decompiler.com/flash" xmlns:xlink="http://www.w3.org/1999/xlink" ffdec:objectType="shape" height="140.75px" width="109.15px" xmlns="http://www.w3.org/2000/svg">
  <g transform="matrix(1.0, 0.0, 0.0, 1.0, 43.0, 116.3)">
    <path d="M63.2 -87.6 Q62.25 -86.85 61.15 -86.2 52.75 -81.3 43.1 -80.1 41.9 -79.95 40.9 -80.5 L27.45 -88.7 26.4 -86.95 23.25 -78.95 22.6 -77.75 Q20.35 -70.4 17.5 -63.5 15.45 -58.6 14.25 -53.5 13.8 -51.45 12.95 -49.6 14.1 -48.6 14.35 -46.65 14.45 -45.95 14.7 -45.2 L21.9 -24.55 Q22.8 -21.95 21.4 -19.65 15.75 -10.25 10.6 -0.5 L6.45 7.25 Q5.8 10.35 3.55 12.7 L3.0 13.3 Q3.35 17.6 4.25 21.7 4.45 22.75 3.6 23.45 0.45 25.95 -1.05 22.25 -3.05 17.3 -2.9 11.95 -2.85 10.15 -1.45 8.85 -0.35 7.85 0.3 6.5 4.9 -3.2 10.3 -12.55 L15.85 -22.05 Q13.6 -31.4 9.85 -40.25 4.8 -30.45 -3.7 -23.1 -5.85 -21.2 -7.5 -18.85 -9.0 -16.7 -11.5 -17.6 -14.8 -18.75 -17.55 -21.1 -18.95 -22.25 -19.95 -23.75 -26.4 -27.3 -33.05 -30.1 -35.85 -26.3 -39.95 -24.4 -40.35 -24.2 -40.75 -24.4 -44.8 -26.3 -41.55 -29.7 L-35.9 -35.8 Q-34.5 -37.35 -32.45 -36.55 -25.35 -33.8 -19.1 -29.55 -14.85 -27.45 -11.4 -23.95 L-0.1 -35.85 Q3.35 -39.4 5.05 -44.0 L6.8 -49.05 6.95 -50.65 Q8.7 -57.65 11.35 -64.2 L17.65 -81.9 18.25 -83.2 18.65 -83.8 22.6 -91.95 21.85 -91.75 Q13.8 -89.65 5.6 -88.7 0.3 -88.1 -4.2 -85.2 L-14.5 -78.8 Q-14.85 -74.0 -19.5 -75.05 -20.5 -75.3 -20.75 -76.25 -22.25 -81.95 -16.85 -84.85 L-2.35 -92.75 Q2.5 -95.45 8.25 -95.35 L10.85 -95.6 Q18.2 -96.85 25.05 -99.05 L26.55 -98.8 27.3 -100.05 Q31.25 -97.4 34.15 -93.45 L34.4 -93.15 Q32.65 -93.95 31.65 -95.65 L31.5 -95.4 30.35 -93.5 30.85 -93.25 Q37.4 -89.5 44.0 -85.9 51.35 -87.45 57.45 -91.3 L57.45 -91.35 Q59.0 -94.7 62.7 -94.85 67.6 -94.3 65.55 -90.05 64.7 -88.3 63.2 -87.6" fill="#000000" fill-rule="evenodd" stroke="none"/>
    <path d="M27.65 -104.5 Q27.65 -109.4 31.1 -112.85 34.55 -116.3 39.45 -116.3 44.35 -116.3 47.8 -112.85 51.25 -109.4 51.25 -104.5 51.25 -99.6 47.8 -96.15 46.45 -94.8 44.85 -93.95 L43.55 -93.4 Q41.7 -92.75 39.65 -92.7 L39.7 -92.55 39.4 -92.7 38.5 -92.55 Q36.1 -92.4 34.4 -93.15 L34.15 -93.45 Q31.25 -97.4 27.3 -100.05 L27.95 -101.05 28.1 -101.25 Q27.65 -102.8 27.65 -104.5" fill="#000000" fill-rule="evenodd" stroke="none"/>
  </g>
</svg>
