<?xml version="1.0" encoding="UTF-8" standalone="no"?>
<svg xmlns:ffdec="https://www.free-decompiler.com/flash" xmlns:xlink="http://www.w3.org/1999/xlink" ffdec:objectType="shape" height="141.35px" width="104.05px" xmlns="http://www.w3.org/2000/svg">
  <g transform="matrix(1.0, 0.0, 0.0, 1.0, 28.75, 109.85)">
    <path d="M7.25 -105.35 L8.55 -103.95 Q16.3 -96.3 25.05 -90.05 29.65 -86.8 35.1 -84.85 34.55 -86.1 34.3 -87.6 33.45 -92.4 36.2 -96.45 39.0 -100.45 43.85 -101.3 48.65 -102.15 52.65 -99.35 56.65 -96.55 57.5 -91.75 58.35 -86.9 55.55 -82.95 54.5 -81.35 53.05 -80.25 L51.85 -79.45 Q50.35 -78.6 48.55 -78.2 L48.45 -78.1 52.25 -76.9 Q54.15 -76.35 56.0 -76.95 L62.7 -79.05 67.45 -80.6 Q68.8 -81.0 69.6 -82.2 71.15 -84.3 73.5 -83.15 75.75 -82.1 75.15 -79.65 74.45 -76.65 71.4 -75.45 68.1 -74.1 64.45 -73.1 58.05 -71.3 51.55 -70.95 L49.4 -71.25 36.6 -75.5 35.95 -75.75 Q30.8 -69.4 27.05 -62.25 23.15 -54.85 20.6 -46.9 L17.4 -36.7 19.55 -34.2 20.15 -33.05 20.5 -31.95 Q21.5 -31.25 21.85 -30.1 L22.3 -29.0 25.55 -24.0 Q26.0 -23.45 26.05 -22.7 31.3 -16.95 31.6 -9.4 31.7 -7.95 31.35 -6.6 30.4 -2.45 28.75 1.4 L24.15 20.95 Q24.0 21.65 23.45 22.25 L23.5 22.5 23.4 23.15 23.35 23.45 Q25.85 25.25 27.3 27.8 27.9 28.9 27.1 29.9 24.65 32.9 21.5 30.3 19.05 28.2 17.7 25.45 16.9 23.9 17.2 22.4 17.55 20.6 18.55 19.2 L23.5 -0.85 24.05 -2.45 Q26.15 -7.6 25.05 -12.65 L24.6 -13.75 22.1 -18.25 15.35 -28.8 Q11.75 -20.45 7.3 -12.45 5.35 -8.95 2.2 -6.6 1.2 -5.8 -0.2 -5.85 -10.8 -6.35 -21.3 -5.6 -22.5 -2.3 -25.4 -0.85 -26.45 -0.3 -27.2 -1.15 -30.0 -3.9 -27.7 -7.3 L-25.45 -10.5 Q-24.4 -12.0 -22.35 -11.95 -15.4 -11.7 -8.35 -11.7 -4.0 -11.75 0.0 -12.75 L0.45 -13.15 Q3.8 -18.35 6.5 -23.85 L11.05 -33.5 11.1 -34.6 11.35 -35.75 11.55 -36.6 12.4 -40.25 Q14.2 -47.6 16.9 -54.9 17.6 -57.0 18.8 -58.95 20.35 -63.3 22.95 -67.55 26.8 -73.8 31.35 -79.4 L30.4 -79.9 Q20.45 -84.85 12.3 -92.4 L-0.25 -103.45 -1.25 -103.9 Q-5.9 -102.7 -5.65 -107.1 -5.55 -108.1 -4.75 -108.75 -3.85 -109.55 -2.85 -109.75 3.3 -110.55 7.25 -105.35" fill="#000000" fill-rule="evenodd" stroke="none"/>
  </g>
</svg>
