<?xml version="1.0" encoding="UTF-8" standalone="no"?>
<svg xmlns:ffdec="https://www.free-decompiler.com/flash" xmlns:xlink="http://www.w3.org/1999/xlink" ffdec:objectType="shape" height="157.8px" width="146.55px" xmlns="http://www.w3.org/2000/svg">
  <g transform="matrix(1.0, 0.0, 0.0, 1.0, 44.45, 105.25)">
    <path d="M24.05 -105.25 L24.35 -104.15 Q24.75 -101.1 24.5 -97.95 L24.0 -96.95 23.9 -96.65 24.05 -96.35 24.25 -95.4 24.3 -95.05 23.95 -94.65 23.7 -94.2 23.55 -93.85 23.65 -93.55 23.9 -92.95 24.1 -92.6 Q27.1 -92.75 29.7 -94.8 L29.75 -94.55 29.85 -94.25 29.95 -93.95 30.4 -93.7 30.65 -93.5 31.1 -91.9 Q31.85 -88.75 33.1 -85.7 37.3 -86.0 41.4 -88.35 L42.0 -87.95 Q43.25 -86.8 44.95 -86.6 46.95 -84.35 49.5 -86.15 51.05 -88.15 53.3 -89.85 L54.0 -90.05 54.1 -90.0 Q54.35 -89.15 54.95 -88.5 56.85 -86.1 58.15 -83.15 61.35 -84.1 64.75 -84.15 L65.85 -83.1 66.0 -82.85 Q66.2 -81.35 65.8 -79.9 64.65 -76.4 65.45 -73.25 L65.85 -73.1 67.35 -73.25 Q70.2 -73.05 72.65 -72.15 L73.05 -70.55 Q73.4 -68.1 74.55 -65.85 L85.25 -68.8 86.35 -67.4 Q88.15 -64.85 88.8 -61.7 L88.65 -61.3 89.25 -59.75 89.5 -59.15 101.5 -60.35 101.9 -59.85 102.1 -59.55 101.9 -59.15 Q95.2 -56.15 89.4 -52.1 89.3 -51.25 89.65 -50.4 L91.3 -46.1 Q86.25 -47.1 81.85 -44.7 L81.8 -44.3 81.85 -44.0 81.95 -43.7 81.3 -42.75 81.05 -42.35 Q81.05 -38.7 78.45 -35.75 76.6 -36.05 75.1 -37.0 L72.15 -39.15 Q68.1 -42.2 64.6 -39.75 L63.5 -38.55 59.15 -31.65 Q54.25 -34.4 49.35 -37.55 47.45 -38.8 45.4 -38.9 44.5 -39.05 44.15 -38.45 40.4 -33.2 43.9 -27.1 41.95 -26.6 41.5 -24.7 L41.6 -24.4 41.95 -23.45 42.05 -23.2 43.05 -22.65 Q43.6 -22.2 44.25 -21.9 L44.4 -21.6 44.6 -21.35 45.6 -20.95 47.0 -20.05 Q46.6 -19.0 45.6 -18.25 43.0 -16.45 42.65 -13.9 46.75 -10.9 51.9 -10.25 L51.95 -9.9 51.9 -8.9 51.85 -8.5 51.5 -8.05 Q50.35 -6.3 49.8 -4.4 L50.3 -2.85 Q50.45 -2.15 50.9 -1.65 L51.65 -1.2 51.9 -0.95 52.05 -0.7 52.15 -0.4 53.0 -0.05 54.35 0.6 54.45 0.85 54.65 1.15 55.45 1.6 Q56.6 2.45 57.9 3.1 53.9 4.0 52.65 7.55 L53.25 9.1 53.35 9.3 Q53.0 9.8 52.9 10.7 L53.55 11.05 54.1 11.1 54.35 11.6 Q51.7 11.9 50.45 14.3 51.05 15.4 50.9 16.65 50.75 17.85 51.05 18.9 52.1 22.0 52.4 25.1 48.9 26.5 45.45 28.05 L45.1 28.4 Q45.25 30.25 46.45 31.65 49.05 34.75 52.5 36.8 L52.65 37.15 52.8 37.45 53.15 37.7 53.4 37.9 53.5 38.2 52.35 38.85 51.05 39.2 Q47.2 40.25 44.75 42.85 40.1 47.75 35.0 51.75 L33.8 50.55 Q33.05 49.8 32.65 48.85 32.5 48.7 32.35 48.65 L31.95 48.45 31.65 48.2 31.5 47.9 31.4 47.55 31.3 47.25 Q29.15 46.3 27.45 48.45 24.85 51.7 21.55 52.55 20.45 50.45 20.35 48.3 20.2 45.7 19.2 43.3 17.15 42.15 15.1 43.5 14.45 41.4 14.1 39.25 13.55 36.0 11.05 34.2 L10.5 34.05 9.75 33.9 8.3 32.65 5.65 31.25 Q7.25 30.25 9.1 29.95 L14.05 29.55 Q17.25 29.5 18.95 27.15 L18.7 26.55 18.6 26.2 18.5 25.9 18.15 25.7 17.85 25.45 16.35 23.25 Q15.55 22.15 15.25 20.85 18.35 20.35 21.25 18.85 21.8 18.5 22.45 18.3 28.3 16.4 26.7 11.35 L24.9 10.55 Q23.4 10.05 22.2 9.25 L23.05 8.05 23.5 6.7 23.25 5.4 Q22.95 4.6 22.3 4.25 19.05 2.15 15.55 4.95 L15.45 5.2 15.4 5.6 15.35 5.95 14.7 6.9 14.55 7.3 14.6 7.9 Q14.5 9.15 14.7 10.4 14.95 12.55 14.4 14.5 13.3 14.85 12.35 14.2 10.1 12.55 7.55 11.75 6.75 12.3 6.3 13.15 L5.9 14.05 Q4.6 18.2 0.85 19.5 L-0.8 16.8 -2.65 13.6 Q-4.45 12.35 -6.35 14.15 -10.1 17.6 -14.65 18.95 L-16.9 15.65 -19.25 11.25 -20.1 10.5 Q-20.8 9.7 -21.75 10.15 -26.4 12.15 -30.55 13.35 -32.6 8.75 -35.95 5.25 -36.25 4.9 -36.55 5.0 L-42.65 6.45 -44.45 6.3 -44.4 5.9 -44.3 5.5 -44.3 5.2 Q-39.0 -0.05 -35.45 -6.6 L-35.7 -7.2 -35.9 -7.45 -36.1 -7.75 -37.45 -8.05 Q-40.1 -8.9 -42.45 -10.35 L-37.55 -11.45 Q-34.35 -11.85 -32.75 -14.25 L-33.3 -16.2 -34.0 -18.0 -32.55 -18.55 -32.2 -18.55 Q-27.75 -17.1 -23.05 -16.3 L-22.25 -16.4 Q-19.8 -18.85 -19.4 -22.8 L-18.75 -23.0 -18.7 -22.95 Q-17.4 -21.35 -16.4 -19.5 L-13.75 -15.0 Q-12.0 -14.35 -10.5 -15.95 -8.05 -18.7 -4.5 -19.85 L-4.2 -19.0 -3.95 -18.45 -3.8 -18.1 -2.55 -17.15 Q-1.6 -16.0 -0.15 -16.1 L0.2 -16.35 0.9 -17.6 1.1 -18.35 1.0 -18.7 0.85 -19.0 1.95 -22.6 Q2.8 -26.25 3.95 -29.8 L5.8 -30.0 Q9.7 -29.65 12.8 -31.25 13.15 -33.65 12.05 -35.85 10.45 -38.95 10.4 -42.25 L10.85 -43.1 11.1 -43.55 Q16.25 -44.85 20.65 -47.2 20.65 -48.1 20.25 -48.8 19.5 -49.95 18.2 -50.15 L17.9 -50.4 17.6 -50.65 17.25 -50.85 17.15 -51.15 17.05 -51.5 16.4 -51.95 15.8 -52.45 15.65 -52.75 Q15.95 -54.0 17.1 -55.1 20.15 -58.15 18.85 -61.85 L18.1 -62.15 Q15.35 -62.8 12.7 -62.2 L11.9 -62.4 8.75 -62.8 9.25 -67.2 Q9.45 -70.45 7.2 -72.6 L6.6 -72.85 Q2.85 -74.45 -1.05 -73.75 L-0.9 -75.5 -0.35 -77.8 0.6 -79.0 1.3 -80.3 Q2.85 -83.55 2.85 -86.95 L1.55 -88.15 0.3 -88.8 Q5.95 -89.15 6.25 -94.4 6.45 -98.0 7.35 -101.2 L7.8 -101.0 10.8 -100.95 Q11.3 -100.4 11.95 -100.1 13.25 -99.45 14.5 -99.25 L14.35 -98.75 15.05 -98.45 Q15.8 -98.2 16.5 -98.7 19.4 -103.15 24.05 -105.25" fill="#ffff00" fill-opacity="0.5019608" fill-rule="evenodd" stroke="none"/>
  </g>
</svg>
