<?xml version="1.0" encoding="UTF-8" standalone="no"?>
<svg xmlns:ffdec="https://www.free-decompiler.com/flash" xmlns:xlink="http://www.w3.org/1999/xlink" ffdec:objectType="shape" height="133.05px" width="108.45px" xmlns="http://www.w3.org/2000/svg">
  <g transform="matrix(1.0, 0.0, 0.0, 1.0, 29.15, 94.35)">
    <path d="M53.2 -79.4 Q57.65 -77.55 59.55 -72.95 61.45 -68.4 59.6 -63.85 58.85 -62.05 57.75 -60.65 L56.8 -59.65 Q55.35 -58.35 53.45 -57.5 L53.6 -57.4 53.25 -57.45 52.75 -57.05 Q59.7 -57.2 66.45 -59.25 L69.75 -60.05 71.6 -60.9 Q72.3 -65.5 76.85 -63.65 79.55 -62.6 79.25 -59.6 78.8 -55.45 73.95 -55.05 L72.0 -54.75 Q61.45 -51.9 50.65 -51.4 45.3 -51.15 40.25 -52.7 39.25 -53.05 38.55 -53.6 L31.6 -41.3 Q27.5 -33.9 24.9 -25.8 L24.15 -23.85 24.1 -22.6 Q25.8 -21.55 26.45 -18.75 27.0 -16.45 28.9 -14.9 37.25 -8.3 41.6 1.6 46.25 5.75 47.45 11.65 47.7 12.95 47.1 14.15 42.0 24.1 35.15 32.85 38.6 35.6 35.0 38.2 34.25 38.8 33.3 38.65 28.7 38.15 27.5 34.2 27.25 33.3 27.8 32.65 36.1 23.0 41.5 11.65 40.75 9.55 39.45 7.85 L38.65 6.6 Q35.65 4.2 34.1 0.3 33.3 -1.7 31.95 -3.45 28.35 -8.0 24.1 -11.85 22.05 -13.7 20.75 -16.2 L15.25 -6.55 Q12.45 -1.55 10.4 3.75 8.7 8.15 4.25 6.3 -5.7 2.2 -15.8 -0.95 -18.4 -1.8 -21.0 -2.85 -23.7 0.6 -27.6 0.25 -28.95 0.1 -29.1 -1.25 -29.45 -4.55 -26.4 -6.7 -24.7 -7.95 -23.3 -9.1 -20.05 -9.3 -16.7 -8.0 -15.65 -7.6 -14.75 -6.75 L4.95 -0.2 5.3 -0.25 5.6 -0.4 Q11.0 -10.6 15.95 -21.05 16.75 -22.8 17.85 -24.15 L17.95 -24.45 Q21.3 -35.05 26.8 -44.75 L33.55 -57.0 32.7 -57.8 Q25.2 -66.0 18.5 -75.2 15.65 -79.1 12.4 -82.55 8.95 -86.25 7.95 -91.05 7.65 -92.55 8.9 -93.45 L9.4 -93.75 Q14.2 -95.8 15.9 -90.8 16.35 -89.5 15.6 -88.15 21.4 -80.5 27.35 -73.0 30.65 -68.85 34.1 -64.75 L36.6 -62.6 37.35 -63.95 37.7 -64.55 Q36.2 -68.8 37.9 -72.95 39.7 -77.5 44.2 -79.4 48.7 -81.3 53.2 -79.4" fill="#000000" fill-rule="evenodd" stroke="none"/>
  </g>
</svg>
