<?xml version="1.0" encoding="UTF-8" standalone="no"?>
<svg xmlns:ffdec="https://www.free-decompiler.com/flash" xmlns:xlink="http://www.w3.org/1999/xlink" ffdec:objectType="shape" height="134.95px" width="101.65px" xmlns="http://www.w3.org/2000/svg">
  <g transform="matrix(1.0, 0.0, 0.0, 1.0, 20.15, 54.3)">
    <path d="M7.95 -53.35 Q12.55 -55.95 14.8 -51.25 15.4 -50.0 14.8 -48.6 L28.2 -35.1 Q31.95 -31.35 35.9 -27.75 37.45 -27.0 38.6 -25.95 L39.2 -27.35 39.5 -28.0 Q37.5 -31.95 38.75 -36.3 40.05 -41.0 44.3 -43.4 48.55 -45.8 53.3 -44.5 57.95 -43.2 60.4 -38.9 62.75 -34.65 61.45 -29.95 60.9 -28.1 59.95 -26.55 L59.1 -25.45 Q57.8 -24.0 56.0 -22.95 L56.15 -22.85 55.8 -22.85 55.4 -22.45 Q62.3 -23.4 68.8 -26.25 L72.0 -27.45 Q72.95 -27.85 73.75 -28.5 73.95 -33.1 78.65 -31.8 81.5 -31.05 81.5 -28.1 81.55 -23.95 76.75 -23.0 L74.85 -22.45 Q64.65 -18.4 53.9 -16.6 48.6 -15.7 43.4 -16.65 L41.6 -17.3 36.05 -4.35 Q32.8 3.45 31.1 11.75 L30.55 13.75 30.65 15.0 Q31.9 15.55 32.75 17.0 L32.15 17.3 Q33.65 19.3 33.65 22.65 L33.65 23.25 37.45 38.1 Q38.55 42.45 38.7 46.85 L38.45 48.6 37.95 49.05 Q40.55 51.6 36.45 55.05 L35.55 55.7 Q30.35 64.3 23.3 70.7 L25.55 72.65 25.95 73.2 Q28.6 74.55 29.45 77.3 29.85 78.7 29.2 80.1 24.2 82.1 20.25 77.1 19.1 75.6 17.45 74.6 L17.2 74.5 15.8 73.55 15.85 73.4 15.8 73.35 15.65 72.8 15.6 72.2 15.65 71.65 15.8 71.05 16.75 70.25 Q18.2 66.45 21.65 63.3 L25.4 59.75 25.55 59.15 25.75 58.0 34.15 48.9 33.45 48.2 Q30.35 39.0 29.5 29.2 L29.4 27.45 28.45 26.3 28.05 25.75 Q28.1 24.05 27.7 22.55 L23.65 31.85 Q21.4 37.15 19.95 42.65 18.75 47.15 14.1 45.85 3.75 43.05 -6.7 41.15 L-12.1 39.85 Q-14.4 43.6 -18.35 43.75 -19.75 43.75 -20.0 42.4 -20.75 39.2 -17.95 36.75 L-15.1 34.0 -8.45 34.3 Q-7.3 34.55 -6.35 35.3 L14.1 39.35 14.4 39.25 14.7 39.1 Q18.95 28.4 22.7 17.5 23.3 15.65 24.25 14.2 L24.3 13.9 Q26.45 3.05 30.85 -7.2 L36.2 -20.05 35.25 -20.7 Q26.85 -27.9 19.15 -36.15 15.85 -39.65 12.2 -42.7 8.35 -45.95 6.8 -50.55 6.35 -51.95 7.5 -53.0 L7.95 -53.35" fill="#000000" fill-rule="evenodd" stroke="none"/>
  </g>
</svg>
