<?xml version="1.0" encoding="UTF-8" standalone="no"?>
<svg xmlns:ffdec="https://www.free-decompiler.com/flash" xmlns:xlink="http://www.w3.org/1999/xlink" ffdec:objectType="shape" height="159.85px" width="123.45px" xmlns="http://www.w3.org/2000/svg">
  <g transform="matrix(1.0, 0.0, 0.0, 1.0, 27.25, 13.9)">
    <path d="M38.6 -13.85 Q38.95 -14.0 39.45 -13.55 39.6 -12.65 40.3 -12.1 45.3 -8.0 49.35 -3.15 L49.85 -2.8 Q53.35 -1.55 56.55 -3.85 L56.65 -4.4 59.05 -6.45 Q59.8 -4.1 59.7 -1.55 L60.1 -0.95 60.1 -0.7 60.1 2.2 59.7 2.8 59.7 3.05 59.8 9.7 Q60.95 10.7 62.45 9.95 65.25 8.6 68.25 7.65 71.85 6.55 74.95 4.7 74.75 8.15 76.75 10.9 77.35 11.75 78.3 11.75 85.25 11.9 90.2 6.7 90.55 8.95 90.4 11.35 90.0 17.55 91.2 23.45 91.9 24.35 92.95 24.6 96.7 25.35 96.1 28.8 95.5 29.45 95.2 30.25 L91.0 33.5 Q90.25 33.7 90.05 34.4 89.95 36.25 90.15 38.1 L90.4 38.4 84.55 39.1 Q83.15 39.4 82.35 40.7 81.6 45.0 81.1 49.35 74.8 47.6 69.7 43.1 69.7 42.55 69.2 42.3 68.25 41.8 67.4 42.45 63.55 45.45 60.4 49.3 L59.9 49.7 Q57.1 51.0 54.5 48.3 51.7 45.4 48.35 45.9 47.15 49.6 44.75 52.7 L44.0 53.05 Q41.3 52.7 39.75 54.55 L39.75 54.85 39.75 56.0 40.5 58.0 Q44.15 62.8 46.85 67.8 L39.9 69.7 Q39.6 70.5 39.75 71.45 40.2 72.45 41.1 72.9 L43.2 75.65 42.9 82.3 Q42.5 87.1 44.35 91.25 L44.35 91.5 44.35 91.8 Q45.05 92.4 45.1 93.25 46.35 95.1 48.45 95.55 50.15 96.5 51.65 97.65 L51.4 98.2 Q48.1 104.35 43.2 109.5 L43.2 109.75 43.2 112.05 50.85 118.2 45.85 121.75 45.85 122.05 45.85 123.2 59.7 134.05 41.3 134.75 40.9 135.05 Q41.45 137.75 43.2 140.2 L41.5 139.85 Q36.2 138.1 33.6 142.25 32.9 144.4 31.2 145.95 L30.8 145.95 Q27.25 144.3 24.35 141.7 L21.45 138.85 Q19.75 137.05 17.85 138.45 13.6 141.6 8.55 142.5 L7.1 140.5 Q7.15 139.8 6.65 139.35 L5.7 138.1 Q5.0 136.55 3.4 135.9 1.7 135.25 -0.15 136.15 L-1.65 137.1 Q-6.6 141.1 -12.6 140.9 -14.5 137.6 -15.25 133.7 L-16.1 133.1 Q-20.2 132.15 -23.6 130.7 -22.0 126.45 -21.75 121.8 -21.45 117.45 -24.35 114.3 -27.05 111.3 -27.25 107.65 -24.55 105.5 -20.85 105.55 -20.35 104.7 -19.5 104.1 L-19.4 102.95 -19.25 102.65 Q-17.5 97.95 -17.4 92.85 L-17.1 92.6 Q-14.65 92.6 -12.25 93.45 L-11.3 93.95 Q-8.4 95.9 -5.95 94.3 -5.95 91.55 -6.2 88.85 L-7.5 75.6 Q-6.8 75.45 -6.35 74.9 -1.45 74.8 3.05 73.55 3.7 71.7 2.2 70.4 L2.0 69.55 -3.85 63.5 Q1.25 60.4 5.95 57.05 5.45 52.6 0.85 50.8 L3.4 46.6 Q5.1 43.45 5.55 40.15 5.25 39.55 4.6 39.35 -1.5 41.1 -7.1 40.8 -7.35 38.3 -7.9 35.9 -8.45 34.85 -9.5 35.45 -12.95 37.55 -16.35 38.6 -16.0 33.45 -16.9 28.55 -17.0 27.95 -17.6 27.9 -22.05 27.55 -26.0 30.15 L-25.35 28.25 Q-23.0 23.3 -22.45 17.85 -22.75 17.25 -23.45 17.1 L-25.95 17.0 Q-25.65 16.4 -25.0 16.25 -21.7 15.7 -19.0 14.4 L-19.0 14.1 -19.0 13.25 Q-21.45 9.6 -22.75 5.45 L-22.1 3.45 Q-18.0 3.55 -14.4 5.45 -13.6 5.85 -12.9 6.35 -9.15 8.85 -6.05 6.15 -4.6 1.3 -2.1 -3.0 5.0 0.85 11.25 6.15 14.1 8.55 16.7 7.1 17.3 3.4 17.45 -0.4 L20.35 0.1 Q24.65 1.55 28.8 1.35 29.05 0.8 28.8 0.25 27.35 -3.3 26.3 -7.0 L30.85 -5.4 Q33.95 -4.05 37.2 -4.4 37.7 -4.45 37.85 -4.95 38.95 -9.2 38.6 -13.85" fill="#ffff00" fill-opacity="0.5019608" fill-rule="evenodd" stroke="none"/>
  </g>
</svg>
