<?xml version="1.0" encoding="UTF-8" standalone="no"?>
<svg xmlns:ffdec="https://www.free-decompiler.com/flash" xmlns:xlink="http://www.w3.org/1999/xlink" ffdec:objectType="shape" height="178.4px" width="89.25px" xmlns="http://www.w3.org/2000/svg">
  <g transform="matrix(1.0, 0.0, 0.0, 1.0, 14.3, 85.5)">
    <path d="M44.55 -85.5 Q48.7 -83.55 49.1 -78.6 49.45 -74.9 50.25 -71.3 50.8 -68.65 49.15 -66.55 42.4 -57.95 36.0 -49.05 33.95 -46.2 33.65 -42.6 33.15 -37.05 31.85 -31.55 30.05 -23.75 27.55 -16.05 L28.05 -14.9 Q28.85 -13.5 29.0 -11.45 L29.4 -9.1 Q30.9 -3.8 32.55 1.5 34.25 6.85 34.95 12.45 L36.7 26.9 Q37.75 29.0 37.85 31.5 L37.85 32.95 38.15 33.8 Q39.4 34.05 39.9 34.85 48.85 38.0 57.05 42.75 59.0 43.85 61.1 44.55 62.35 44.95 62.9 46.2 L68.95 60.2 69.65 62.05 Q70.9 66.05 71.75 70.15 75.6 70.45 74.85 74.35 74.5 76.05 72.7 76.2 L72.9 78.0 Q73.05 79.7 71.45 80.3 68.65 81.4 67.8 78.75 66.4 79.0 64.8 76.95 64.25 76.2 64.5 75.2 64.95 73.35 66.1 72.15 L63.9 63.5 Q62.75 59.0 60.6 54.75 59.35 52.4 57.7 50.4 56.2 48.55 53.85 47.4 L46.65 43.8 Q43.35 42.15 39.9 41.05 L40.15 43.0 40.4 48.05 Q41.8 50.6 41.8 53.7 41.8 58.6 38.35 62.05 37.0 63.4 35.4 64.25 L34.1 64.8 33.9 64.9 21.9 64.35 22.4 63.95 23.25 63.35 23.1 63.3 22.45 62.8 21.65 62.05 20.95 61.3 Q18.2 58.05 18.2 53.7 18.2 49.4 20.9 46.2 L20.15 46.4 Q12.5 48.65 5.2 51.75 L2.25 64.7 Q1.1 69.6 -0.55 74.3 -1.45 76.8 -1.9 79.4 L-2.35 82.15 2.1 82.75 Q4.05 83.0 4.2 85.0 4.5 89.55 -0.35 88.7 L-3.75 87.9 -5.05 91.95 Q-5.35 92.85 -6.35 92.9 -9.45 92.95 -9.7 90.45 -11.9 91.05 -13.95 88.85 -14.5 88.25 -14.15 87.45 -12.85 84.4 -9.85 82.95 -9.15 82.6 -8.45 82.35 -7.1 75.85 -5.05 69.6 -3.35 64.3 -2.4 58.85 -1.5 53.95 -0.15 49.15 0.35 47.3 2.2 46.6 16.55 41.15 31.2 36.55 32.05 36.3 32.8 35.8 L31.25 28.45 30.65 25.7 Q29.55 20.45 29.1 15.0 28.65 8.8 26.8 2.85 L26.7 2.0 Q23.95 -5.2 22.2 -12.6 L22.1 -13.65 Q21.5 -15.3 21.65 -16.95 20.85 -17.3 20.05 -18.35 L17.45 -21.9 Q11.8 -29.65 5.6 -37.05 4.45 -38.35 3.7 -39.95 3.2 -40.9 3.25 -42.1 3.55 -49.15 7.05 -55.4 11.5 -63.4 18.55 -69.15 15.4 -74.3 14.65 -80.15 14.3 -83.15 17.3 -83.55 20.75 -82.05 21.4 -77.85 21.6 -76.6 22.2 -75.55 24.3 -71.75 24.0 -67.45 23.9 -65.4 22.1 -64.1 16.7 -60.3 13.7 -54.55 L12.95 -53.15 Q9.95 -48.3 9.05 -42.65 14.25 -36.5 18.65 -29.7 21.85 -26.75 23.55 -23.0 L24.2 -25.05 Q26.7 -34.0 27.7 -43.25 28.2 -47.5 30.25 -51.15 32.3 -54.75 34.9 -58.05 38.85 -63.15 43.1 -68.15 45.25 -70.75 44.15 -73.85 43.2 -76.5 42.75 -79.25 40.15 -82.8 43.65 -85.05 L44.55 -85.5 M33.5 42.4 L33.75 42.5 33.75 42.3 33.5 42.4" fill="#000000" fill-rule="evenodd" stroke="none"/>
  </g>
</svg>
