<?xml version="1.0" encoding="UTF-8" standalone="no"?>
<svg xmlns:ffdec="https://www.free-decompiler.com/flash" xmlns:xlink="http://www.w3.org/1999/xlink" ffdec:objectType="shape" height="137.55px" width="134.55px" xmlns="http://www.w3.org/2000/svg">
  <g transform="matrix(1.0, 0.0, 0.0, 1.0, 25.5, -31.75)">
    <path d="M10.85 169.0 L11.05 168.95 11.65 169.0 10.4 169.3 10.85 169.0 M44.35 38.95 L44.0 38.4 Q44.05 37.15 43.6 36.1 L47.55 35.55 Q50.55 34.9 50.1 31.85 L50.8 31.75 Q56.8 37.55 64.8 38.5 65.25 38.95 65.85 39.05 L65.7 40.05 Q64.9 42.25 64.35 44.45 L63.95 45.0 63.95 45.3 63.95 47.6 Q66.35 48.9 68.25 50.6 L60.05 56.55 Q56.05 59.65 57.85 64.7 59.1 68.2 57.9 71.35 L57.7 72.2 Q52.7 71.8 48.6 73.75 L48.6 78.35 48.5 82.65 48.2 82.95 Q44.1 82.1 40.7 83.9 40.4 84.7 40.5 85.65 L40.9 86.2 40.9 86.5 40.9 86.8 Q41.65 88.5 42.9 90.0 46.7 94.6 50.0 99.45 L50.1 100.65 51.25 102.65 50.9 102.95 Q49.25 102.65 48.2 103.7 L48.2 104.0 48.2 105.15 49.35 106.3 Q52.5 108.65 55.2 111.55 57.0 113.55 57.05 116.1 L54.75 118.7 54.65 119.55 Q54.15 119.9 53.95 120.4 L53.95 120.7 53.95 123.3 Q54.8 124.45 56.15 124.75 60.4 127.35 65.1 129.05 L64.5 129.55 Q62.05 131.25 62.0 133.95 62.35 134.45 62.85 134.5 68.25 135.2 72.85 136.65 L72.8 136.85 Q72.7 138.0 72.85 139.15 L73.7 139.35 Q79.65 139.0 85.05 139.35 L86.3 142.2 88.1 142.3 Q91.35 139.85 94.95 139.4 L95.1 139.7 Q96.45 141.3 96.95 143.15 L97.45 143.75 98.4 145.0 Q99.4 146.65 101.3 147.15 104.2 148.0 106.2 147.95 L106.05 148.25 103.9 151.7 103.85 152.0 Q103.8 153.5 104.35 154.9 L105.2 155.45 Q105.45 156.15 106.0 156.7 107.9 158.55 109.05 160.95 L106.35 160.75 99.9 160.0 Q97.45 159.6 96.95 161.4 L96.3 161.8 Q95.65 161.4 95.0 161.15 L91.1 159.75 Q85.4 157.8 79.7 159.4 L79.7 159.7 79.7 160.55 80.45 161.7 65.3 160.55 64.15 160.55 Q60.1 161.0 56.45 159.65 53.4 158.5 51.25 160.0 51.05 161.55 52.25 162.55 L52.6 163.45 53.0 163.7 53.4 164.6 54.25 165.15 Q50.45 164.25 46.5 164.5 45.3 164.6 44.75 165.75 L44.65 167.2 Q44.05 168.15 43.1 168.15 L41.15 166.55 Q38.7 163.8 36.6 166.05 32.7 168.75 28.6 169.3 29.15 167.9 30.05 166.7 L30.15 164.95 Q29.85 164.35 29.25 164.5 24.2 165.7 19.2 167.3 15.7 168.4 13.35 168.15 16.0 166.3 19.0 165.15 21.8 164.7 24.2 163.45 L24.4 162.3 Q24.1 161.65 23.45 161.5 L22.4 161.6 22.4 161.05 Q22.05 160.2 21.1 160.1 L20.2 160.05 Q10.25 159.7 1.25 163.25 0.45 163.6 -0.2 164.05 -5.9 168.3 -12.45 167.2 L-12.45 166.9 -12.45 165.75 Q-17.0 163.75 -22.55 164.6 L-22.3 163.9 Q-21.35 161.95 -21.8 159.8 -23.6 158.2 -25.5 156.7 -25.15 156.05 -24.45 155.55 L-24.2 154.4 Q-23.3 154.2 -22.75 153.6 -20.9 151.7 -19.75 149.2 L-19.75 148.95 -19.75 147.5 -8.8 145.0 Q-8.5 142.85 -8.55 140.65 L-8.65 136.35 Q-6.7 136.5 -4.95 137.1 L-0.1 137.4 Q0.4 135.5 0.2 133.35 0.0 131.1 0.5 129.05 5.05 129.2 9.5 130.25 L12.75 130.05 Q15.6 128.9 15.2 125.3 15.5 124.8 15.95 124.45 L22.2 124.75 22.3 124.45 22.5 122.15 Q22.75 121.85 23.1 121.75 26.45 121.0 29.6 119.25 29.85 118.55 29.5 117.95 27.25 114.05 21.9 114.05 L21.9 113.9 Q22.25 112.8 22.1 111.55 21.8 110.95 21.15 110.8 11.85 113.2 2.6 112.8 L3.05 111.4 4.1 107.6 Q5.2 103.25 4.7 98.7 L3.9 97.95 Q1.85 96.8 0.1 96.9 L0.35 95.75 0.85 92.0 Q1.35 88.15 0.5 84.5 -0.25 83.45 -1.45 82.95 L-0.85 81.8 Q0.25 81.3 0.5 80.05 1.45 79.55 2.0 78.65 3.2 76.65 2.9 74.3 0.15 71.35 -3.65 70.75 L-3.6 69.9 Q-3.55 67.85 -4.0 65.85 L-4.5 65.55 -11.3 65.0 -10.85 63.9 Q-10.25 63.05 -10.1 62.05 -9.8 59.95 -9.8 57.8 -11.9 56.45 -14.4 56.05 L-14.35 55.8 Q-14.1 54.0 -12.95 52.6 L-12.75 51.75 -12.0 48.3 -10.55 46.85 Q-6.4 47.2 -2.4 46.75 -2.0 46.25 -2.0 45.6 L-2.1 41.25 -0.1 41.55 Q5.95 44.9 12.2 42.5 L12.7 41.35 Q13.85 40.3 15.2 39.75 L16.0 41.75 Q17.0 43.8 17.5 46.0 18.55 48.0 20.55 48.4 L20.75 48.6 Q22.5 50.55 22.85 52.9 L23.55 53.75 23.7 54.6 24.8 55.8 24.8 56.05 24.8 56.35 Q27.3 59.2 30.55 57.0 L30.55 56.75 30.55 55.85 30.15 55.3 Q30.25 54.55 30.0 53.85 29.25 51.5 28.85 49.0 28.15 45.05 30.9 42.6 35.1 41.45 39.45 41.75 43.5 42.0 44.35 38.95" fill="#ffff00" fill-opacity="0.5019608" fill-rule="evenodd" stroke="none"/>
  </g>
</svg>
