<?xml version="1.0" encoding="UTF-8" standalone="no"?>
<svg xmlns:ffdec="https://www.free-decompiler.com/flash" xmlns:xlink="http://www.w3.org/1999/xlink" ffdec:objectType="shape" height="120.45px" width="107.1px" xmlns="http://www.w3.org/2000/svg">
  <g transform="matrix(1.0, 0.0, 0.0, 1.0, 14.15, -43.1)">
    <path d="M48.6 43.5 L49.7 43.1 Q53.1 44.6 52.45 48.9 52.1 51.0 52.3 53.15 52.65 56.5 51.05 59.1 50.45 60.1 49.3 60.5 43.2 62.7 39.25 67.8 L31.85 77.25 Q29.8 79.85 31.0 82.7 32.05 85.1 32.55 87.7 L33.25 90.4 Q34.85 95.4 36.75 100.35 38.0 103.7 38.25 107.25 39.95 109.1 40.2 112.05 L40.2 112.35 41.6 115.8 42.15 115.8 42.9 118.65 44.7 126.1 46.6 135.0 Q49.85 136.65 52.65 139.35 59.35 145.85 67.0 151.35 78.3 151.35 90.15 151.8 90.8 151.8 91.3 152.15 93.95 153.85 92.4 156.6 91.2 158.75 88.75 157.6 L86.5 156.35 Q78.8 156.25 71.05 156.4 L69.9 156.45 Q64.3 156.95 60.8 152.7 L47.95 141.8 48.95 147.4 Q49.6 151.05 48.0 153.45 47.6 157.55 44.6 160.55 42.7 162.45 40.4 163.3 L31.0 162.8 30.85 162.35 29.25 161.7 27.9 160.55 Q24.45 157.1 24.45 152.2 24.45 147.3 27.9 143.85 30.1 141.65 32.95 140.85 L22.3 141.75 15.2 142.45 Q9.9 148.8 3.05 153.6 L-1.05 156.55 Q0.2 160.8 -4.4 160.5 L-5.65 159.8 -13.05 160.1 -13.55 159.75 Q-15.5 155.95 -10.9 155.5 -7.2 155.15 -4.35 153.0 L-1.65 151.0 Q5.15 146.15 10.55 140.05 11.3 139.2 12.2 138.5 14.5 136.75 17.7 136.85 29.95 137.3 41.35 134.1 L40.15 128.65 Q39.1 123.25 37.5 118.0 L37.15 116.7 36.8 116.7 Q35.3 113.3 34.5 109.7 33.9 109.1 33.55 107.9 L33.5 107.75 32.3 107.3 Q22.45 102.4 12.3 98.2 11.35 97.8 11.1 96.75 9.95 92.45 9.75 87.85 L9.5 74.6 Q9.45 68.2 9.95 61.9 L10.05 59.15 -2.05 57.25 Q-3.0 57.1 -3.15 56.15 -3.65 53.45 -0.95 53.1 6.7 53.15 13.95 55.0 14.45 55.15 14.45 55.7 14.9 63.95 14.65 72.4 14.25 83.5 15.45 94.3 L31.65 101.15 30.4 96.7 Q27.85 89.7 25.9 82.55 24.75 78.25 27.65 74.55 L34.55 65.7 Q39.65 59.1 47.2 55.5 47.15 49.8 47.95 44.3 48.05 43.75 48.6 43.5 M42.45 139.1 L35.8 140.4 36.25 140.4 Q40.15 140.4 43.15 142.6 L42.45 139.1" fill="#000000" fill-rule="evenodd" stroke="none"/>
  </g>
</svg>
