<?xml version="1.0" encoding="UTF-8" standalone="no"?>
<svg xmlns:ffdec="https://www.free-decompiler.com/flash" xmlns:xlink="http://www.w3.org/1999/xlink" ffdec:objectType="shape" height="92.1px" width="137.05px" xmlns="http://www.w3.org/2000/svg">
  <g transform="matrix(1.0, 0.0, 0.0, 1.0, 27.05, -78.75)">
    <path d="M73.45 148.25 L72.5 147.1 72.45 146.8 72.4 145.95 Q75.2 146.9 76.6 144.6 L76.65 144.3 76.7 143.75 77.65 142.9 77.75 142.6 Q78.2 140.4 79.3 138.55 81.9 141.0 85.55 143.05 L86.55 143.1 92.75 139.05 93.9 139.05 94.3 139.6 94.35 139.85 Q95.6 142.25 96.2 144.8 99.1 147.3 103.3 147.7 106.95 148.0 110.0 149.5 105.1 151.65 101.55 155.55 L101.55 155.85 Q101.35 157.45 102.35 158.75 L102.35 159.0 102.35 160.15 Q96.85 159.8 91.4 159.95 90.45 159.95 90.05 160.95 L90.05 162.1 90.05 167.0 89.5 167.85 88.9 167.85 87.25 166.3 86.15 165.2 Q85.15 164.15 84.55 162.85 84.25 162.1 83.3 162.0 L74.7 161.2 74.7 160.95 74.7 160.35 Q73.6 158.95 71.6 159.4 L71.45 159.2 71.25 158.65 Q71.65 157.95 72.3 157.5 L72.45 157.25 Q74.7 154.55 75.1 151.15 73.95 149.8 73.45 148.25 M10.3 79.3 Q15.1 81.6 19.0 85.15 L19.1 85.75 Q19.55 86.2 20.15 86.3 20.45 86.95 21.15 87.0 22.55 86.15 23.55 84.8 L23.6 84.5 Q24.35 81.65 26.3 79.3 L26.3 79.0 26.3 78.75 Q27.1 78.9 27.95 79.6 29.0 81.95 30.55 83.9 L30.55 84.2 30.55 84.5 Q31.25 85.4 32.3 85.5 34.95 85.75 36.7 85.45 36.8 87.35 36.5 89.2 35.6 95.15 35.9 101.3 36.9 102.1 37.05 103.3 38.85 105.2 41.3 105.35 L41.3 106.2 41.65 110.5 42.45 111.9 42.85 112.3 56.25 113.3 56.6 114.15 Q56.85 116.8 57.4 119.35 L57.85 119.95 58.5 120.55 Q62.25 122.55 66.05 123.4 L64.6 128.1 64.05 129.6 62.1 135.0 Q60.85 138.8 62.7 142.1 L62.75 142.4 Q62.9 143.35 63.55 144.15 L63.2 144.4 Q60.35 144.2 58.55 145.75 L58.75 147.45 Q59.75 151.35 59.35 155.55 L53.4 156.05 52.8 156.35 52.8 156.9 52.8 159.8 51.75 159.9 Q48.35 157.25 45.15 159.4 L42.45 159.3 42.45 159.0 Q42.35 157.05 41.3 155.55 L41.3 155.25 41.3 155.0 40.5 154.05 Q38.95 152.3 36.7 152.75 L37.15 152.15 Q38.15 150.5 37.85 148.45 L36.7 147.3 37.85 146.15 37.85 145.85 37.85 145.55 Q38.8 144.45 38.65 142.95 38.35 139.9 34.75 140.6 L31.9 138.85 Q30.25 139.7 29.4 141.35 29.55 142.6 28.45 143.25 L25.95 143.2 Q22.65 140.7 19.3 142.3 L18.25 142.35 Q15.6 140.95 13.0 139.25 L12.2 139.2 Q9.75 140.95 7.7 143.15 5.3 140.1 1.95 140.75 1.6 141.4 1.85 142.15 3.2 146.05 2.8 150.3 -0.05 150.3 -0.95 152.3 3.75 155.75 7.1 160.55 7.25 161.05 6.75 161.4 L6.75 162.0 6.65 163.7 6.35 164.0 6.35 164.3 6.25 165.15 2.35 164.85 -1.95 164.45 Q-8.35 163.85 -9.1 170.15 -9.35 170.7 -9.85 170.85 L-10.95 170.55 Q-12.5 168.55 -14.35 166.85 -14.65 166.6 -14.9 166.55 -17.7 166.2 -20.15 167.55 -20.65 164.25 -22.05 161.3 -22.3 160.7 -22.85 160.35 -24.95 158.85 -27.05 159.1 -26.25 158.0 -25.05 157.4 L-23.1 155.1 Q-21.8 154.15 -21.0 152.75 L-20.95 152.5 -20.9 150.75 Q-21.4 149.95 -22.35 149.9 -23.3 149.2 -23.6 148.25 -21.55 145.65 -20.05 142.8 -19.1 142.15 -19.0 141.05 -17.1 138.75 -14.85 136.75 L-14.8 136.15 -14.75 133.85 -16.3 132.15 Q-15.55 130.9 -14.0 130.2 -12.9 130.25 -12.0 129.7 L-11.8 129.15 Q-11.35 126.05 -13.25 123.65 L-13.25 123.1 Q-13.35 121.75 -13.05 120.5 -10.5 119.95 -8.7 118.3 -8.65 118.0 -8.75 117.8 -9.8 115.3 -9.8 112.55 L-3.85 112.0 Q-2.7 111.85 -2.1 110.8 L-2.15 110.55 -4.2 104.2 -2.75 103.3 Q1.45 104.1 4.05 101.6 3.25 97.95 0.5 95.25 1.9 95.05 2.8 94.1 L2.95 93.25 2.8 89.5 2.6 89.2 Q2.05 88.4 1.95 87.45 4.05 87.25 5.8 86.35 9.9 84.3 9.9 79.5 L10.3 79.3" fill="#ffff00" fill-opacity="0.5019608" fill-rule="evenodd" stroke="none"/>
  </g>
</svg>
