<?xml version="1.0" encoding="UTF-8" standalone="no"?>
<svg xmlns:ffdec="https://www.free-decompiler.com/flash" xmlns:xlink="http://www.w3.org/1999/xlink" ffdec:objectType="shape" height="93.25px" width="124.7px" xmlns="http://www.w3.org/2000/svg">
  <g transform="matrix(1.0, 0.0, 0.0, 1.0, 24.1, -73.15)">
    <path d="M76.35 153.55 L76.95 151.45 Q77.7 148.4 76.6 145.45 79.1 147.15 81.8 145.75 L81.9 145.45 82.0 145.2 82.55 144.9 82.95 144.6 83.3 143.75 84.7 141.45 Q84.9 141.3 85.15 141.3 L85.35 141.45 85.95 142.3 Q86.65 143.05 86.6 144.05 L87.1 144.65 Q88.15 146.25 89.9 146.6 L95.15 147.2 95.45 147.75 95.8 148.35 95.8 149.2 95.8 150.1 96.15 150.7 Q96.7 151.8 97.8 152.4 100.0 153.65 100.6 155.1 97.5 155.5 95.45 157.6 L95.45 157.85 95.6 159.85 Q96.15 162.85 96.1 165.95 L95.05 165.95 90.65 162.75 Q85.5 159.3 79.95 162.1 L77.65 162.0 Q76.25 159.6 73.85 158.3 L74.65 155.95 75.5 153.85 76.35 153.55 M0.2 157.3 L0.2 157.6 0.2 157.85 1.35 159.6 1.35 159.9 1.35 160.15 2.5 162.2 2.1 162.45 -2.25 162.35 -4.65 162.55 Q-7.15 163.9 -9.1 166.4 L-9.6 166.4 -10.55 165.55 Q-10.45 165.05 -10.75 164.7 -12.35 163.15 -14.2 161.9 -17.0 162.8 -19.55 162.0 L-19.0 161.15 Q-18.9 159.65 -19.1 158.25 -20.15 156.75 -21.5 155.65 -21.9 154.8 -22.85 154.4 L-24.1 152.4 Q-22.35 151.55 -20.35 151.35 -19.9 151.3 -19.8 150.95 -18.65 146.9 -19.0 142.4 L-15.9 144.05 -15.9 144.2 -15.85 144.5 Q-12.7 145.95 -10.65 143.25 L-9.6 143.55 Q-8.15 147.15 -5.0 145.4 -4.3 143.7 -2.85 143.55 L-2.85 143.85 -2.85 149.3 Q0.4 151.15 4.45 152.1 1.75 152.45 -0.2 154.1 L-0.2 154.4 -0.2 156.7 0.2 157.3 M86.35 87.15 L87.0 89.0 89.3 94.95 89.3 95.55 89.4 96.1 90.25 96.7 90.45 96.95 93.05 98.8 92.65 99.05 Q91.05 99.85 89.65 101.0 L89.65 101.6 89.65 102.45 90.45 103.45 Q93.45 105.85 95.05 109.1 91.4 109.6 88.6 111.65 L88.55 111.95 88.4 112.55 Q87.75 112.8 87.35 113.4 L87.35 113.7 87.35 113.95 87.15 114.25 87.0 114.55 87.0 115.15 86.9 116.0 84.9 115.65 Q79.8 114.3 74.5 114.45 73.55 114.5 73.15 115.4 L73.25 117.45 73.55 120.6 Q71.4 120.1 69.9 121.2 69.55 121.95 69.6 122.9 69.65 124.65 70.85 126.1 L70.85 126.35 70.85 126.65 71.2 127.25 71.55 128.4 70.75 128.7 Q69.45 129.2 68.55 130.2 L68.55 130.8 68.55 131.65 68.75 131.95 68.95 132.2 68.95 133.35 68.95 134.8 69.65 136.0 Q70.3 137.05 70.1 138.25 66.85 137.35 63.55 137.5 L63.05 138.25 62.4 139.4 62.4 139.7 62.3 140.3 62.05 140.6 61.95 140.75 Q59.0 139.25 55.7 138.85 L55.6 138.75 Q55.0 138.05 54.05 138.0 51.35 135.55 48.95 138.25 L48.95 138.55 48.85 138.85 48.1 139.25 Q44.3 136.05 39.25 136.65 L38.85 136.4 38.05 135.95 36.85 134.65 36.2 134.3 Q31.85 134.15 29.0 131.75 L29.2 131.45 29.4 131.15 29.4 130.9 29.4 130.6 Q30.25 129.95 29.9 128.95 28.35 125.3 25.05 122.5 L25.75 122.35 Q26.85 122.1 27.45 121.2 L27.45 120.6 27.45 120.0 25.85 118.15 Q23.1 114.5 19.7 111.4 24.05 112.1 24.35 108.1 24.6 104.2 23.25 100.65 26.45 101.75 28.5 99.85 L28.7 97.85 Q28.7 95.9 28.15 94.1 L27.95 93.8 27.45 93.25 27.3 92.4 Q27.05 91.7 27.1 90.95 27.8 90.85 28.15 90.25 28.4 87.4 27.55 84.7 26.4 80.85 24.0 77.6 L29.95 78.9 30.55 78.75 Q31.8 78.5 32.45 77.5 L32.95 77.2 37.65 73.35 Q38.3 72.95 38.9 73.35 L39.1 73.85 Q39.45 74.65 40.15 75.25 40.2 76.75 41.1 77.9 L41.4 78.15 51.65 79.6 Q52.6 81.05 52.4 82.75 52.05 85.85 50.5 88.5 L50.5 89.7 50.6 91.1 55.5 92.55 55.75 92.85 55.9 93.15 55.75 93.4 55.5 93.7 55.4 94.25 54.9 95.8 53.5 100.35 53.2 100.65 53.2 101.2 53.2 101.8 54.45 102.7 55.8 102.65 Q57.85 101.4 60.1 101.45 61.35 101.5 62.2 100.95 65.5 98.85 65.4 94.5 66.1 94.55 66.7 94.9 69.45 96.5 70.8 93.7 72.65 89.8 73.55 85.65 L74.1 85.6 74.3 85.65 Q76.2 87.15 78.35 88.25 L78.95 88.5 Q83.55 89.6 85.55 85.55 L86.35 87.15" fill="#ffff00" fill-opacity="0.5019608" fill-rule="evenodd" stroke="none"/>
  </g>
</svg>
