<?xml version="1.0" encoding="UTF-8" standalone="no"?>
<svg xmlns:ffdec="https://www.free-decompiler.com/flash" xmlns:xlink="http://www.w3.org/1999/xlink" ffdec:objectType="shape" height="77.15px" width="102.4px" xmlns="http://www.w3.org/2000/svg">
  <g transform="matrix(1.0, 0.0, 0.0, 1.0, 13.7, -85.25)">
    <path d="M33.55 89.05 Q32.3 88.3 32.9 86.85 33.5 85.3 35.0 85.25 40.4 86.75 44.3 90.45 44.8 90.9 44.6 91.65 L43.05 98.35 42.65 100.6 Q41.2 108.65 39.3 116.55 38.05 121.7 38.2 127.1 44.5 129.65 51.7 130.05 L59.25 130.95 59.75 131.05 Q57.25 124.25 52.95 118.55 50.4 115.15 53.65 112.6 55.1 111.5 56.85 110.8 66.35 107.25 75.7 103.1 74.25 99.55 75.5 96.0 75.8 95.15 76.7 94.95 L77.25 94.85 Q80.1 95.55 79.65 98.6 L79.65 98.85 Q82.05 103.4 79.3 107.25 L78.45 107.85 66.9 112.1 57.3 116.15 Q60.8 119.55 62.0 124.2 66.5 132.15 67.55 141.2 L67.9 145.35 68.4 145.35 68.35 145.4 67.9 146.05 67.9 146.2 67.75 146.2 67.7 146.25 Q66.25 150.2 63.55 153.2 L64.7 153.2 Q75.1 153.35 85.25 151.85 L86.4 151.65 Q90.2 152.95 87.75 156.1 87.2 156.75 86.3 156.85 L64.9 158.1 Q60.85 158.1 56.85 158.25 L56.5 158.4 53.8 159.6 50.3 160.35 Q42.3 160.6 34.3 160.4 32.85 161.55 31.2 162.15 L21.8 161.65 21.65 161.2 20.05 160.55 18.7 159.4 Q17.75 158.45 17.05 157.35 L-0.95 158.0 Q-6.55 158.2 -12.05 158.0 -13.4 157.95 -13.65 156.6 -14.1 153.6 -10.7 153.4 L-2.1 152.95 -1.15 152.8 15.4 153.1 15.25 151.05 Q15.25 146.15 18.7 142.7 22.15 139.25 27.05 139.25 31.95 139.25 35.4 142.7 38.85 146.15 38.85 151.05 L38.6 153.55 49.95 153.35 55.6 153.2 Q59.2 151.1 61.75 147.6 61.8 146.95 62.25 146.5 L62.8 145.9 62.9 145.35 Q62.75 142.25 62.15 139.1 L61.4 135.8 Q55.2 135.9 49.15 134.55 L45.95 134.1 Q39.5 133.8 34.25 130.45 33.8 130.2 33.7 129.6 32.5 120.5 35.0 111.7 36.45 106.7 37.25 101.6 37.85 97.55 38.85 93.6 L39.15 93.0 Q36.6 90.95 33.55 89.05" fill="#000000" fill-rule="evenodd" stroke="none"/>
  </g>
</svg>
