<?xml version="1.0" encoding="UTF-8" standalone="no"?>
<svg xmlns:ffdec="https://www.free-decompiler.com/flash" xmlns:xlink="http://www.w3.org/1999/xlink" ffdec:objectType="shape" height="34.95px" width="144.75px" xmlns="http://www.w3.org/2000/svg">
  <g transform="matrix(1.0, 0.0, 0.0, 1.0, 16.3, -127.45)">
    <path d="M25.5 139.25 Q30.4 139.25 33.85 142.7 37.3 146.15 37.3 151.05 L37.05 153.65 40.55 153.4 54.15 152.2 68.95 150.25 69.05 150.25 Q74.2 147.05 78.55 142.75 L85.15 134.8 Q87.4 132.15 89.3 129.3 89.75 128.65 90.6 128.75 95.5 129.55 100.05 131.6 L109.75 135.45 Q112.6 133.45 114.85 130.9 115.1 130.65 115.6 130.5 L116.45 130.35 Q118.45 128.25 120.95 127.45 125.4 128.6 122.55 132.1 121.6 133.2 120.2 133.5 115.6 137.75 110.1 140.4 109.35 140.8 108.55 140.4 100.3 136.65 91.9 134.3 86.05 142.65 78.25 149.65 L78.25 149.7 Q92.5 149.2 106.55 151.3 110.65 151.95 114.5 153.75 116.65 154.8 118.85 155.1 L124.6 149.85 Q125.1 149.45 125.6 149.35 129.6 149.6 127.95 152.95 L126.6 154.75 121.15 159.3 Q118.05 161.55 115.0 159.15 112.75 158.65 110.9 157.3 96.45 153.25 81.2 154.65 L75.4 155.15 Q75.9 156.1 75.3 157.4 74.0 160.25 70.45 159.15 69.7 158.9 69.25 158.3 51.4 160.8 33.25 160.65 L32.55 160.55 Q31.2 161.6 29.65 162.15 25.2 162.8 20.25 161.65 L20.1 161.2 18.5 160.55 17.15 159.4 16.3 158.5 3.05 157.6 Q-4.8 156.95 -12.35 158.85 -16.35 159.9 -16.3 156.25 -16.25 154.0 -13.8 153.8 L-4.2 152.45 13.9 153.3 13.7 151.05 Q13.7 146.15 17.15 142.7 20.6 139.25 25.5 139.25" fill="#000000" fill-rule="evenodd" stroke="none"/>
  </g>
</svg>
