<?xml version="1.0" encoding="UTF-8" standalone="no"?>
<svg xmlns:ffdec="https://www.free-decompiler.com/flash" xmlns:xlink="http://www.w3.org/1999/xlink" ffdec:objectType="shape" height="174.7px" width="171.25px" xmlns="http://www.w3.org/2000/svg">
  <g transform="matrix(1.0, 0.0, 0.0, 1.0, 83.1, 162.8)">
    <path d="M28.8 -40.9 L28.85 -40.95 Q29.95 -38.9 30.05 -36.7 L29.95 -36.9 Q29.1 -38.8 28.8 -40.9 M88.15 -129.55 L81.3 -124.95 Q77.75 -122.8 77.5 -119.55 L77.25 -119.35 73.55 -117.15 73.55 -116.6 73.65 -115.15 Q79.6 -112.7 85.45 -109.85 80.9 -109.3 78.55 -105.5 78.05 -104.65 78.5 -103.8 79.95 -100.8 83.45 -99.6 L83.9 -99.1 Q76.15 -99.25 68.35 -99.05 67.05 -99.0 67.0 -97.75 67.75 -96.7 68.95 -96.05 L67.2 -96.25 Q66.45 -96.15 66.25 -95.45 L66.25 -95.2 66.35 -94.0 71.75 -88.5 Q72.65 -87.55 73.65 -86.75 80.9 -81.0 87.55 -74.7 82.6 -76.6 77.7 -78.75 L72.1 -81.15 Q65.7 -83.8 59.05 -85.55 53.65 -88.0 47.65 -88.0 46.55 -88.0 46.65 -87.0 46.85 -86.3 47.45 -85.95 49.4 -84.8 50.4 -82.8 L45.2 -85.4 Q41.5 -87.2 37.8 -89.15 31.45 -92.55 24.8 -93.75 L23.65 -92.4 23.75 -91.9 Q26.2 -87.9 29.0 -83.95 34.35 -76.25 39.3 -68.3 37.8 -68.35 36.45 -69.2 32.7 -71.55 28.8 -71.25 28.1 -69.25 29.45 -67.55 32.1 -64.2 32.55 -60.2 L31.45 -61.6 Q29.55 -64.45 26.9 -63.95 L26.75 -63.65 26.7 -63.1 26.3 -62.5 26.4 -57.05 Q26.6 -49.4 28.6 -42.05 28.15 -42.6 27.85 -43.5 26.5 -47.45 23.65 -45.25 L23.45 -43.25 21.8 -34.8 Q20.4 -27.2 20.55 -19.3 20.7 -11.3 19.3 -3.65 L19.1 -3.9 Q18.15 -5.95 16.15 -4.8 L16.0 -4.5 Q15.65 -3.4 14.8 -2.5 L14.6 -0.55 Q13.1 5.8 12.0 11.9 L11.4 10.3 Q10.8 8.55 10.55 6.7 10.3 6.1 9.6 6.15 7.65 6.2 6.45 7.9 4.65 10.45 2.05 11.4 -1.15 10.65 -4.4 11.8 L-4.4 11.5 -4.4 10.95 -4.9 10.6 -10.15 9.85 Q-15.7 9.05 -21.3 9.6 L-21.1 7.4 -20.9 -3.25 Q-21.85 -4.65 -23.15 -3.6 -32.25 3.6 -43.3 7.4 -37.85 4.25 -36.0 -1.55 -35.75 -2.25 -36.25 -2.75 -39.35 -5.9 -43.45 -7.8 L-41.9 -8.6 Q-26.6 -13.15 -12.95 -21.15 L-12.9 -21.4 -12.85 -22.0 -11.95 -23.45 Q-10.75 -25.95 -10.15 -28.6 L-9.75 -28.95 Q-8.9 -29.8 -9.0 -30.95 L-8.25 -32.1 -8.25 -32.35 -8.25 -33.25 Q-8.55 -33.85 -9.2 -34.0 -11.85 -32.5 -14.4 -33.35 L-14.25 -37.95 Q-13.8 -44.95 -13.6 -52.05 -13.9 -52.65 -14.5 -52.5 L-19.8 -50.55 Q-31.7 -45.35 -43.9 -41.05 -47.8 -39.65 -51.7 -39.1 -47.85 -41.95 -43.6 -44.2 -39.45 -46.45 -36.25 -49.45 -36.3 -50.3 -37.25 -50.3 L-53.75 -49.85 Q-59.35 -49.75 -64.9 -51.4 L-65.6 -51.7 Q-68.55 -52.15 -69.6 -53.1 -69.25 -53.65 -69.05 -54.3 L-68.45 -56.85 -68.2 -57.15 Q-67.6 -57.95 -67.35 -58.85 -74.75 -65.3 -83.1 -70.7 L-79.05 -71.4 Q-78.0 -71.65 -78.1 -72.8 -79.35 -74.6 -81.6 -74.9 L-67.55 -74.8 -64.7 -75.3 -63.65 -76.9 Q-62.4 -79.35 -63.1 -82.05 -65.35 -90.15 -68.05 -97.85 L-62.5 -92.85 -57.35 -88.05 -49.0 -79.5 Q-46.5 -76.9 -43.45 -76.95 -43.0 -78.0 -43.3 -79.2 L-45.35 -88.8 Q-46.1 -92.75 -47.8 -95.95 L-41.6 -88.25 Q-37.85 -83.65 -32.45 -84.9 L-31.75 -85.95 -30.05 -88.55 Q-29.3 -86.85 -28.1 -85.45 -25.05 -81.8 -20.8 -82.3 -19.75 -85.85 -20.6 -89.45 -22.55 -97.85 -26.75 -105.25 L-24.2 -103.65 Q-9.75 -94.95 5.4 -87.8 L5.75 -87.9 6.15 -88.15 Q6.7 -90.5 5.95 -92.75 5.6 -93.95 4.85 -94.95 0.1 -101.65 -6.8 -106.4 L-6.75 -106.7 -6.8 -107.55 Q-7.7 -109.3 -9.0 -110.8 L-10.45 -112.25 Q-20.35 -120.8 -31.1 -128.2 -25.35 -126.35 -19.65 -126.5 L-19.5 -126.8 Q-19.05 -128.15 -20.15 -129.1 -23.55 -135.8 -29.05 -141.3 L-31.85 -143.8 Q-37.4 -148.2 -41.25 -153.75 -37.4 -150.4 -32.7 -150.7 -32.4 -151.55 -32.25 -152.45 -31.65 -156.25 -31.95 -160.2 L-31.1 -160.35 Q-28.85 -160.75 -28.0 -162.8 L-19.6 -155.95 -18.75 -155.15 Q-16.3 -152.75 -13.6 -154.6 L-13.45 -155.75 Q-13.1 -157.0 -13.25 -158.35 L-13.05 -158.65 -12.35 -159.7 -10.5 -157.15 Q-9.2 -155.2 -8.45 -153.0 -6.5 -147.05 -2.95 -142.15 L-2.9 -141.85 -2.85 -141.0 -2.05 -139.55 -0.85 -136.65 4.5 -130.7 5.1 -129.9 Q6.95 -126.75 10.75 -127.05 13.75 -129.7 14.5 -133.65 15.45 -139.05 17.1 -144.25 20.5 -139.25 24.15 -134.4 26.0 -132.0 28.45 -132.75 L28.7 -133.25 29.5 -134.55 Q32.6 -142.1 37.75 -148.2 L37.8 -146.15 36.8 -134.35 Q38.55 -133.1 39.45 -134.95 L40.15 -135.2 40.3 -135.45 40.9 -136.55 Q44.35 -138.45 47.45 -139.05 L46.85 -137.55 Q43.65 -132.6 44.45 -126.7 L45.3 -126.2 46.0 -126.5 46.15 -126.8 46.3 -127.35 46.95 -127.95 Q47.0 -129.3 47.85 -130.35 53.75 -137.65 60.05 -144.5 L62.2 -146.85 69.25 -153.85 Q68.9 -151.8 67.85 -150.05 64.65 -144.85 61.75 -139.55 59.45 -135.45 57.7 -131.4 L57.05 -130.5 57.0 -130.25 57.15 -129.35 58.0 -129.05 Q58.95 -128.95 59.85 -129.35 63.95 -131.05 67.6 -131.3 L67.45 -131.0 Q67.25 -129.8 66.25 -129.0 L66.25 -128.4 66.35 -126.7 Q67.5 -125.7 69.15 -126.2 L70.9 -126.6 Q79.6 -127.75 88.15 -129.55" fill="#ffff00" fill-opacity="0.5019608" fill-rule="evenodd" stroke="none"/>
  </g>
</svg>
