<?xml version="1.0" encoding="UTF-8" standalone="no"?>
<svg xmlns:ffdec="https://www.free-decompiler.com/flash" xmlns:xlink="http://www.w3.org/1999/xlink" ffdec:objectType="shape" height="150.2px" width="120.65px" xmlns="http://www.w3.org/2000/svg">
  <g transform="matrix(1.0, 0.0, 0.0, 1.0, 51.55, 149.25)">
    <path d="M16.9 -102.5 L16.55 -102.6 Q14.65 -103.2 13.0 -104.35 3.15 -110.85 -6.35 -117.85 -9.8 -120.35 -10.7 -124.7 L-11.05 -125.95 -15.6 -138.35 Q-16.6 -141.0 -18.2 -143.2 -22.05 -145.45 -19.15 -148.45 -18.5 -149.2 -17.65 -149.25 -12.4 -149.35 -11.35 -144.1 L-10.65 -141.45 Q-7.4 -132.4 -3.75 -123.6 7.85 -114.4 20.0 -106.25 L20.85 -107.05 21.0 -107.15 21.4 -107.45 21.0 -107.95 Q18.4 -111.1 18.4 -115.35 18.4 -120.25 21.85 -123.7 25.3 -127.15 30.2 -127.15 35.1 -127.15 38.55 -123.7 42.0 -120.25 42.0 -115.35 42.0 -110.45 38.55 -107.0 35.5 -103.95 31.35 -103.6 L30.9 -103.55 30.35 -104.1 29.5 -104.15 27.55 -104.5 27.3 -104.4 26.75 -104.15 Q25.95 -103.8 25.3 -103.25 29.2 -102.95 33.0 -101.95 39.7 -100.25 46.5 -99.2 52.9 -108.15 61.45 -115.1 L62.1 -115.8 Q60.7 -118.9 63.95 -120.45 L64.9 -120.8 Q70.5 -119.7 68.65 -114.55 68.15 -113.0 66.85 -112.0 58.05 -105.1 51.85 -95.85 50.1 -93.2 46.9 -93.4 L43.0 -94.0 Q32.15 -96.55 21.15 -98.0 L20.9 -98.05 Q16.15 -91.35 14.35 -83.15 13.75 -80.3 12.5 -77.75 L11.8 -76.15 Q10.8 -72.9 8.6 -71.1 9.15 -69.9 9.25 -68.3 L9.7 -62.8 Q10.8 -51.75 13.35 -41.0 L13.5 -38.6 Q13.15 -34.9 10.2 -32.05 L6.45 -28.35 -3.5 -18.1 -9.4 -11.55 Q-6.0 -8.75 -1.65 -6.5 0.7 -5.35 2.0 -3.3 2.85 -2.0 1.95 -0.7 -0.05 2.2 -3.05 0.05 -7.15 -2.95 -11.6 -5.45 -14.55 -7.05 -16.85 -9.15 -17.6 -9.85 -17.2 -10.85 -16.0 -13.8 -13.65 -16.1 L-4.5 -25.15 1.65 -31.4 Q5.0 -34.9 7.5 -38.9 5.1 -48.95 4.15 -59.35 L3.2 -65.7 Q-6.5 -62.45 -16.3 -59.55 -20.4 -57.35 -24.3 -60.65 L-26.2 -62.05 Q-32.95 -66.15 -40.3 -68.65 -43.75 -65.1 -47.65 -61.75 -48.4 -61.15 -49.25 -61.5 -53.0 -63.05 -50.6 -66.25 L-48.55 -68.75 -43.45 -74.05 Q-42.4 -75.05 -41.05 -75.1 -35.35 -73.75 -30.0 -70.7 -24.7 -67.65 -19.4 -64.75 -10.75 -66.85 -2.5 -70.3 -0.05 -71.35 2.45 -71.85 L2.45 -72.0 Q2.5 -73.15 3.4 -73.7 L3.95 -74.95 Q8.35 -81.95 10.45 -90.1 11.45 -94.05 13.65 -97.3 13.75 -98.55 14.55 -99.55 L15.85 -100.75 16.9 -102.5" fill="#000000" fill-rule="evenodd" stroke="none"/>
  </g>
</svg>
