<?xml version="1.0" encoding="UTF-8" standalone="no"?>
<svg xmlns:ffdec="https://www.free-decompiler.com/flash" xmlns:xlink="http://www.w3.org/1999/xlink" ffdec:objectType="shape" height="168.25px" width="156.3px" xmlns="http://www.w3.org/2000/svg">
  <g transform="matrix(1.0, 0.0, 0.0, 1.0, 65.95, 155.0)">
    <path d="M87.7 -121.65 L90.35 -121.85 Q84.7 -113.2 78.15 -105.15 L75.9 -102.85 Q72.9 -100.25 70.85 -97.4 L71.3 -96.95 Q76.7 -94.3 78.9 -89.05 75.85 -88.35 73.15 -86.8 73.15 -85.65 73.5 -84.65 74.75 -80.85 77.25 -77.45 80.4 -73.15 81.9 -68.4 77.05 -68.5 72.2 -68.25 L71.65 -68.0 Q70.4 -68.1 69.5 -67.4 L69.4 -67.15 69.3 -64.55 69.8 -63.9 Q75.7 -53.1 83.45 -43.3 82.85 -43.5 82.4 -43.85 74.3 -49.95 64.75 -53.2 63.7 -53.55 62.8 -54.1 59.6 -55.95 57.05 -54.35 59.4 -46.4 64.85 -39.7 72.8 -29.85 79.1 -18.85 L81.3 -15.35 Q85.7 -9.15 88.6 -2.2 L88.25 -2.2 Q78.75 -9.9 68.9 -17.2 61.2 -22.9 51.95 -26.25 50.55 -26.8 49.5 -27.75 44.65 -32.0 38.8 -35.15 L38.45 -35.0 38.05 -34.75 Q37.8 -31.35 39.6 -28.15 43.05 -22.05 44.0 -15.2 40.3 -17.55 37.05 -20.65 34.05 -23.55 30.55 -22.3 L30.6 -21.75 33.5 -11.45 Q32.95 -12.0 32.55 -12.7 30.55 -16.45 28.25 -13.85 27.0 -10.8 26.6 -7.55 25.3 2.75 25.55 13.25 22.45 9.05 20.55 4.05 19.35 2.1 17.7 0.8 L14.8 0.9 9.8 5.0 8.55 4.9 Q5.95 2.45 3.7 -0.3 2.75 -1.4 1.5 -2.0 0.65 -2.4 -0.1 -2.0 -7.85 2.15 -16.3 1.8 -16.05 -1.15 -17.5 -3.7 L-18.9 -5.45 Q-27.05 -12.7 -38.3 -13.75 -31.4 -18.25 -25.35 -23.55 -22.85 -24.2 -21.1 -26.15 -20.05 -27.3 -18.45 -27.95 L-6.95 -32.4 Q-1.45 -34.45 4.5 -35.8 8.5 -36.75 11.35 -39.1 11.2 -40.2 10.1 -39.85 0.45 -36.9 -9.55 -35.05 L-15.55 -34.65 -12.3 -36.3 Q-8.35 -38.0 -6.7 -41.3 L-7.2 -41.6 Q-14.15 -41.95 -20.15 -43.7 L-20.05 -44.55 Q-18.85 -49.95 -18.6 -55.5 -19.15 -56.4 -20.25 -56.45 -33.65 -57.1 -46.85 -59.45 L-44.25 -61.1 Q-42.6 -62.1 -40.8 -62.7 L-15.15 -71.05 -15.0 -71.25 Q-14.2 -72.3 -14.4 -73.55 -15.15 -74.45 -16.2 -75.0 -24.9 -79.15 -34.15 -82.05 L-40.95 -84.45 Q-53.1 -89.15 -65.95 -90.45 L-62.1 -90.95 -48.1 -90.1 Q-42.15 -89.3 -37.25 -92.0 L-37.15 -92.3 -37.05 -92.6 -30.05 -93.05 Q-29.45 -95.35 -30.7 -97.65 L-33.45 -102.4 Q-36.6 -107.45 -40.95 -111.8 -38.2 -111.55 -35.6 -110.2 -32.2 -108.5 -29.85 -110.65 -29.65 -117.45 -32.3 -123.6 L-36.65 -134.15 -44.6 -155.0 -38.6 -148.35 -17.9 -127.5 -12.9 -122.15 Q-10.45 -119.25 -8.25 -121.6 L-8.25 -122.15 Q-8.2 -125.7 -6.9 -129.1 -5.05 -124.2 -2.25 -119.7 -0.35 -116.65 2.5 -118.5 L3.45 -121.6 4.1 -124.05 Q6.05 -133.25 7.3 -142.6 8.1 -137.5 8.0 -132.25 7.9 -126.9 9.25 -121.9 L11.75 -111.5 Q12.65 -109.75 14.3 -109.2 14.9 -108.45 15.85 -108.45 L17.85 -107.2 17.9 -106.9 17.95 -106.3 18.85 -105.85 19.5 -106.1 19.6 -106.4 20.15 -109.3 19.8 -109.85 19.8 -111.9 Q19.95 -121.1 19.6 -130.25 20.7 -126.45 22.2 -122.75 L24.8 -115.25 25.55 -114.4 Q25.65 -111.15 28.45 -112.0 L28.55 -112.55 28.6 -117.75 Q32.55 -124.7 34.6 -132.35 L35.55 -135.4 Q38.4 -143.3 45.15 -148.0 45.25 -144.8 44.9 -141.65 43.7 -131.35 43.7 -120.9 L44.5 -120.75 50.5 -121.4 50.5 -121.2 50.6 -118.6 51.3 -118.5 Q58.55 -121.55 66.25 -121.0 L66.15 -120.85 Q64.05 -118.05 64.45 -114.75 65.85 -113.75 67.4 -114.9 69.05 -116.15 70.9 -116.65 L77.3 -118.6 79.85 -119.5 Q83.65 -120.9 87.7 -121.65" fill="#ffff00" fill-opacity="0.5019608" fill-rule="evenodd" stroke="none"/>
  </g>
</svg>
