<?xml version="1.0" encoding="UTF-8" standalone="no"?>
<svg xmlns:ffdec="https://www.free-decompiler.com/flash" xmlns:xlink="http://www.w3.org/1999/xlink" ffdec:objectType="shape" height="108.75px" width="85.5px" xmlns="http://www.w3.org/2000/svg">
  <g transform="matrix(1.0, 0.0, 0.0, 1.0, 20.8, 113.15)">
    <path d="M58.75 -99.55 L62.4 -91.55 Q66.55 -87.35 63.2 -83.05 62.7 -82.4 61.85 -82.45 57.4 -82.7 56.8 -87.3 56.2 -92.1 53.85 -96.5 53.0 -98.55 51.75 -100.3 51.4 -100.8 51.3 -101.4 49.25 -101.2 46.65 -100.15 L43.05 -98.7 29.1 -93.55 30.15 -93.5 Q33.4 -93.4 35.95 -91.85 40.35 -91.6 43.5 -88.45 46.95 -85.0 46.95 -80.1 46.95 -75.2 43.5 -71.75 40.45 -68.7 36.3 -68.35 L35.85 -68.3 35.3 -68.85 34.45 -68.9 Q32.2 -69.2 30.25 -69.9 L29.95 -70.0 28.25 -70.5 27.5 -71.1 26.8 -71.75 26.55 -72.05 25.95 -72.7 Q23.35 -75.85 23.35 -80.1 23.35 -84.6 26.3 -87.9 L11.25 -87.8 Q8.45 -87.7 6.45 -86.1 7.75 -85.8 8.65 -83.8 9.4 -82.2 8.35 -80.75 5.3 -76.35 0.55 -79.15 L0.2 -78.75 0.0 -77.95 Q-2.35 -73.05 -1.95 -67.5 L-1.45 -62.95 -1.35 -61.45 Q-0.65 -60.15 0.4 -59.15 L5.5 -58.9 27.45 -58.35 Q31.05 -58.3 32.5 -55.15 L33.15 -54.1 41.1 -44.1 Q42.7 -43.85 44.5 -44.9 L45.6 -45.5 Q49.75 -47.65 51.0 -43.6 51.3 -42.6 50.5 -41.9 49.05 -40.5 47.2 -39.55 43.85 -37.9 40.3 -37.4 38.7 -37.2 37.8 -38.55 33.15 -45.5 27.4 -51.8 L27.0 -52.35 11.3 -52.95 11.8 -52.55 Q14.4 -50.55 17.3 -48.9 24.15 -44.85 29.4 -39.2 29.85 -38.7 29.65 -37.95 28.6 -34.2 25.3 -31.5 16.65 -24.45 7.2 -18.35 L1.45 -14.6 Q5.45 -11.55 9.65 -8.9 L10.0 -8.25 Q10.6 -3.65 6.1 -4.55 L5.3 -4.85 -6.85 -12.8 Q-7.35 -13.1 -7.35 -13.75 -7.35 -16.9 -4.0 -18.05 -3.15 -18.35 -2.35 -18.85 7.6 -25.25 17.25 -32.1 20.55 -34.45 23.05 -37.65 14.45 -44.2 5.1 -49.95 4.7 -50.2 4.45 -50.6 2.25 -51.15 1.2 -52.3 L1.15 -52.3 Q-0.9 -52.3 -2.45 -53.7 L-2.65 -53.8 Q-4.15 -54.4 -4.3 -55.7 L-4.7 -56.15 Q-6.2 -57.95 -6.8 -60.2 -7.65 -63.65 -7.75 -67.3 -7.95 -72.7 -6.3 -77.65 -5.15 -80.95 -3.3 -83.9 -5.05 -87.75 -7.5 -91.05 L-12.55 -98.45 Q-16.0 -103.8 -20.0 -108.6 -21.9 -110.9 -19.4 -112.6 L-18.05 -113.15 -6.45 -110.25 Q3.85 -107.5 11.35 -100.0 L17.1 -94.7 Q19.15 -95.9 21.4 -96.7 L30.35 -99.95 Q41.55 -104.05 52.25 -108.55 56.35 -107.05 57.7 -102.55 58.15 -101.0 58.75 -99.55 M9.45 -93.75 Q4.0 -98.7 -2.25 -102.45 -5.75 -104.6 -9.8 -105.05 -5.9 -99.7 -2.5 -94.0 L-0.5 -90.75 0.6 -88.75 2.45 -90.45 Q5.65 -92.95 9.45 -93.75" fill="#000000" fill-rule="evenodd" stroke="none"/>
  </g>
</svg>
