<?xml version="1.0" encoding="UTF-8" standalone="no"?>
<svg xmlns:ffdec="https://www.free-decompiler.com/flash" xmlns:xlink="http://www.w3.org/1999/xlink" ffdec:objectType="shape" height="121.25px" width="122.4px" xmlns="http://www.w3.org/2000/svg">
  <g transform="matrix(1.0, 0.0, 0.0, 1.0, 64.4, 137.65)">
    <path d="M16.8 -120.9 Q21.35 -122.15 25.35 -123.9 29.95 -123.95 28.75 -119.95 28.25 -118.35 26.55 -117.75 16.15 -114.15 5.5 -111.1 L-0.75 -109.7 1.35 -106.3 Q6.55 -96.55 10.5 -86.15 12.55 -80.75 13.55 -75.2 18.25 -82.05 23.45 -88.55 L25.95 -91.7 Q28.9 -95.35 32.2 -98.5 L33.05 -98.85 33.05 -98.9 Q36.6 -98.0 38.4 -94.45 39.3 -92.75 40.5 -91.15 45.75 -84.25 50.6 -77.1 53.9 -80.65 57.4 -77.9 58.2 -77.25 57.95 -76.25 57.3 -73.85 55.15 -72.4 L54.35 -71.55 53.6 -70.7 Q52.35 -66.4 48.4 -68.8 46.95 -69.65 47.05 -71.25 41.8 -80.3 35.3 -88.6 L33.4 -90.85 Q31.45 -89.45 29.45 -87.1 22.2 -78.45 16.05 -69.05 17.85 -68.1 19.05 -66.15 22.0 -61.3 26.5 -57.85 29.25 -55.75 31.0 -52.9 32.45 -50.45 29.95 -48.7 20.75 -42.35 10.95 -37.0 2.15 -32.2 -7.2 -28.9 -3.1 -24.75 0.2 -20.05 0.75 -19.25 0.25 -18.35 -2.05 -14.65 -5.15 -18.05 -10.05 -23.35 -14.45 -28.9 -14.85 -29.4 -14.65 -30.1 -13.65 -33.75 -9.75 -34.5 L-8.3 -34.85 Q2.6 -38.75 12.65 -44.8 L24.3 -51.75 Q18.2 -57.0 12.95 -63.2 L12.05 -64.6 Q9.1 -65.35 8.7 -68.65 7.45 -78.6 3.5 -87.8 L2.4 -90.6 Q-1.25 -100.95 -8.05 -109.3 L-9.7 -110.7 -10.5 -110.85 Q-16.5 -112.05 -22.35 -113.95 -30.55 -116.6 -38.9 -118.65 L-59.1 -123.6 Q-64.15 -121.8 -64.4 -126.6 -64.45 -128.2 -63.0 -129.1 -61.45 -130.1 -59.9 -130.4 -49.5 -126.8 -38.45 -124.3 -30.2 -122.45 -22.05 -120.05 -23.55 -122.65 -23.55 -125.85 -23.55 -130.75 -20.1 -134.2 -16.65 -137.65 -11.75 -137.65 -6.85 -137.65 -3.4 -134.2 0.05 -130.75 0.05 -125.85 0.05 -120.95 -3.4 -117.5 -4.7 -116.2 -6.25 -115.35 L-5.05 -114.35 -4.4 -114.6 4.45 -117.25 16.8 -120.9" fill="#000000" fill-rule="evenodd" stroke="none"/>
  </g>
</svg>
