<?xml version="1.0" encoding="UTF-8" standalone="no"?>
<svg xmlns:ffdec="https://www.free-decompiler.com/flash" xmlns:xlink="http://www.w3.org/1999/xlink" ffdec:objectType="shape" height="161.25px" width="159.15px" xmlns="http://www.w3.org/2000/svg">
  <g transform="matrix(1.0, 0.0, 0.0, 1.0, 68.8, 151.15)">
    <path d="M28.15 -128.8 Q29.25 -138.35 33.05 -147.2 33.35 -143.15 33.2 -138.95 32.85 -129.65 33.7 -120.5 34.9 -119.85 35.9 -120.25 L35.9 -119.35 36.0 -114.75 Q36.7 -114.0 37.65 -114.4 42.95 -121.0 49.6 -126.65 55.25 -131.4 61.2 -135.65 L64.4 -138.15 Q66.1 -139.5 67.5 -139.55 L67.6 -139.25 67.7 -138.95 67.45 -138.1 67.05 -135.6 Q65.2 -129.25 65.1 -122.55 L65.35 -122.2 65.65 -121.9 Q70.9 -120.15 76.6 -121.65 L79.8 -121.95 75.05 -115.6 75.05 -115.35 74.3 -113.9 74.3 -113.6 74.4 -112.45 Q78.25 -111.0 80.55 -107.55 81.6 -105.9 82.9 -104.5 86.5 -100.55 88.05 -95.65 87.7 -95.3 87.75 -94.8 L83.7 -91.6 Q82.05 -90.85 81.7 -89.0 81.05 -88.8 80.85 -88.15 80.65 -83.55 82.9 -79.45 L84.3 -76.25 88.4 -64.55 Q89.95 -60.0 90.35 -55.3 88.0 -54.95 85.95 -56.25 81.85 -58.85 77.55 -61.05 75.95 -61.8 74.45 -62.7 68.35 -66.25 61.45 -65.5 61.35 -62.05 62.85 -58.65 66.65 -50.2 70.85 -41.9 L72.65 -38.55 Q76.4 -32.0 76.15 -24.6 L75.6 -24.15 Q71.05 -22.1 65.65 -22.75 65.2 -22.8 64.9 -22.45 64.55 -21.1 64.8 -19.6 65.95 -13.0 65.55 -6.35 L65.1 -5.75 63.95 -6.05 62.75 -7.35 Q53.4 -16.75 41.35 -22.15 37.85 -23.75 35.15 -21.8 L35.35 -12.3 Q35.8 -3.1 35.45 6.15 33.15 6.2 31.15 5.15 26.55 2.8 21.6 3.3 L21.2 3.55 Q19.45 7.95 15.25 10.1 14.55 7.7 11.9 7.85 L-9.5 8.85 -10.15 8.25 -10.5 7.75 Q-12.8 5.25 -13.35 1.95 -20.0 -4.3 -28.9 -7.1 L-26.65 -7.55 Q-22.55 -7.7 -19.5 -9.6 -19.25 -10.3 -19.7 -10.85 -24.3 -16.3 -29.8 -20.9 -43.8 -32.65 -61.0 -39.4 -63.85 -40.5 -65.45 -41.85 L-63.1 -42.55 Q-52.35 -44.75 -41.45 -42.8 L-29.6 -40.75 Q-19.85 -39.1 -10.35 -39.75 L-10.25 -40.05 Q-10.05 -40.75 -10.25 -41.5 L-11.0 -42.4 Q-14.3 -45.85 -18.3 -48.4 -21.75 -50.6 -23.9 -53.3 -21.5 -53.8 -19.85 -55.3 L-19.8 -55.6 -19.75 -57.05 -22.9 -60.65 Q-31.25 -69.65 -40.2 -78.05 -36.85 -81.0 -32.4 -82.85 L-30.8 -83.15 Q-26.1 -83.25 -23.2 -86.35 L-23.5 -86.75 -33.5 -92.05 Q-40.15 -95.5 -46.95 -98.55 -56.1 -102.65 -63.9 -108.05 L-63.9 -108.3 Q-63.65 -109.45 -62.85 -110.35 L-62.8 -110.65 -62.75 -111.2 -62.0 -112.35 -62.05 -114.1 Q-62.6 -123.4 -68.8 -130.8 L-67.35 -130.1 -64.05 -128.6 Q-57.05 -125.65 -49.85 -123.2 -41.95 -120.45 -33.9 -120.35 -31.35 -124.8 -33.2 -129.75 -35.2 -134.9 -38.55 -139.45 -42.75 -145.2 -46.25 -151.15 -42.5 -149.7 -38.7 -147.35 -26.5 -139.85 -14.15 -132.8 -10.35 -130.6 -7.6 -133.3 L-7.55 -133.6 -7.3 -135.0 -6.8 -135.0 7.5 -123.1 9.05 -123.0 Q11.2 -124.35 11.55 -126.85 13.9 -121.75 15.8 -116.45 17.45 -111.75 20.05 -107.55 L20.15 -107.25 20.25 -106.7 Q21.75 -105.55 22.7 -107.05 24.25 -109.5 25.0 -112.3 27.25 -120.45 28.15 -128.8" fill="#ffff00" fill-opacity="0.5019608" fill-rule="evenodd" stroke="none"/>
  </g>
</svg>
