<?xml version="1.0" encoding="UTF-8" standalone="no"?>
<svg xmlns:ffdec="https://www.free-decompiler.com/flash" xmlns:xlink="http://www.w3.org/1999/xlink" ffdec:objectType="shape" height="139.35px" width="246.2px" xmlns="http://www.w3.org/2000/svg">
  <g transform="matrix(1.0, 0.0, 0.0, 1.0, 107.75, 134.1)">
    <path d="M109.25 -134.05 L109.45 -134.1 110.75 -134.05 110.8 -133.95 108.8 -125.9 Q106.65 -118.75 103.15 -112.2 L99.4 -105.05 95.4 -97.1 95.4 -96.8 95.4 -96.5 95.45 -96.25 95.5 -95.95 96.35 -95.75 Q101.3 -96.5 105.0 -93.55 99.35 -91.6 93.3 -91.3 86.8 -90.9 80.6 -89.35 74.15 -87.75 73.55 -81.9 74.6 -80.3 76.15 -79.2 L88.65 -69.95 Q96.1 -64.25 103.85 -59.15 L103.3 -59.05 89.45 -58.5 Q88.0 -58.45 87.0 -57.6 87.0 -57.05 87.25 -56.65 89.45 -53.1 92.7 -49.9 L106.5 -36.2 Q113.3 -29.35 118.95 -21.65 123.9 -14.95 129.3 -8.6 L138.45 2.3 Q134.65 2.35 130.9 1.15 126.7 -0.2 122.75 -2.05 112.5 -6.95 103.2 -13.55 93.5 -20.45 83.9 -27.5 L78.3 -31.4 Q76.2 -32.8 73.85 -33.8 68.5 -36.15 63.85 -39.8 56.95 -45.25 49.9 -50.5 L49.55 -50.4 49.35 -50.3 49.15 -50.15 Q48.8 -48.6 49.0 -46.95 49.55 -42.3 50.4 -37.7 51.45 -32.3 51.1 -26.8 50.3 -27.0 49.55 -27.6 L46.6 -30.3 Q41.55 -35.35 37.25 -41.05 34.0 -45.3 29.2 -44.75 28.4 -39.05 30.3 -33.65 32.2 -28.15 32.75 -22.55 L32.25 -22.35 31.6 -21.75 Q29.9 -18.35 29.65 -14.4 29.35 -9.7 26.6 -6.05 L25.9 -5.85 Q25.0 -5.75 24.35 -6.15 19.75 -9.05 14.7 -11.0 6.2 -14.35 -1.3 -8.85 L-4.85 -6.25 -20.65 4.9 -21.1 5.1 -21.5 5.2 -21.9 5.25 -22.05 5.2 Q-20.35 -0.2 -18.25 -5.55 -16.2 -10.65 -16.8 -16.15 -17.25 -16.8 -18.0 -17.0 L-24.6 -17.3 Q-47.75 -14.2 -71.2 -14.15 L-82.5 -13.65 Q-84.9 -13.45 -86.2 -14.1 L-86.2 -14.7 -86.2 -15.0 -86.2 -15.25 -86.2 -15.55 Q-88.45 -18.05 -91.55 -19.65 -99.55 -23.75 -107.75 -27.25 L-107.75 -30.65 Q-101.2 -33.2 -94.45 -35.25 -92.7 -35.8 -92.15 -37.35 -89.85 -43.55 -95.0 -48.0 -96.95 -51.65 -96.85 -55.8 -96.75 -58.9 -95.8 -61.85 -91.1 -61.7 -87.2 -58.7 -81.65 -54.45 -74.9 -55.0 -72.65 -55.15 -71.95 -57.3 -69.75 -64.0 -70.75 -71.1 -71.6 -77.6 -72.9 -84.0 -74.1 -89.85 -71.7 -94.9 L-69.95 -92.1 -60.6 -77.0 Q-56.3 -70.25 -51.7 -63.75 -49.3 -60.4 -46.5 -57.35 -40.6 -50.95 -33.4 -46.3 -32.75 -46.45 -32.65 -47.1 -31.75 -52.4 -31.85 -58.0 -31.9 -63.65 -32.65 -68.85 L-31.6 -68.15 Q-26.2 -62.75 -19.55 -65.5 -18.2 -69.05 -18.4 -73.0 -18.75 -79.6 -20.4 -86.0 L-23.2 -96.8 -14.95 -88.65 Q-7.5 -81.55 0.85 -75.55 L15.35 -65.1 15.75 -65.2 15.95 -65.3 16.15 -65.5 16.4 -66.35 Q16.6 -68.5 15.7 -70.3 14.95 -71.85 14.6 -73.55 L14.2 -73.85 13.65 -74.15 13.55 -74.4 13.45 -74.7 13.05 -74.9 Q10.1 -75.85 7.5 -77.2 L7.7 -78.1 8.0 -79.5 Q8.15 -80.55 8.65 -80.45 L8.65 -79.6 8.7 -78.45 8.75 -77.9 9.05 -77.65 9.6 -77.4 10.0 -77.55 10.3 -77.7 Q11.2 -84.65 9.95 -91.55 9.35 -95.0 8.25 -98.35 6.85 -102.45 5.75 -106.5 9.1 -101.45 12.05 -96.2 L18.75 -83.6 Q20.35 -80.4 23.35 -80.75 L23.85 -83.05 24.4 -85.55 24.8 -88.0 Q24.95 -90.65 25.75 -93.05 25.9 -91.3 26.6 -89.7 27.85 -86.9 30.35 -87.75 32.6 -90.15 33.9 -93.2 L36.2 -97.85 37.75 -99.0 39.1 -99.95 Q40.55 -103.7 40.8 -107.75 41.15 -114.15 41.15 -120.7 41.15 -126.3 40.15 -131.65 42.15 -126.15 43.75 -120.55 45.7 -113.7 49.25 -107.6 L51.6 -104.2 Q53.65 -101.65 55.5 -103.9 L55.5 -104.5 Q55.55 -105.45 56.15 -106.25 56.85 -107.15 57.2 -108.25 L57.6 -108.55 57.9 -108.8 58.1 -109.1 58.15 -109.4 58.2 -109.65 Q59.1 -110.25 59.7 -111.2 L60.85 -112.55 62.6 -112.45 Q63.95 -112.4 65.1 -112.85 67.9 -114.0 69.8 -116.4 L70.3 -116.55 70.45 -116.5 70.75 -115.9 Q72.8 -111.5 76.6 -114.5 L77.4 -115.15 Q83.65 -119.4 89.35 -124.4 97.95 -131.95 109.25 -134.05" fill="#ffff00" fill-opacity="0.5019608" fill-rule="evenodd" stroke="none"/>
  </g>
</svg>
