<?xml version="1.0" encoding="UTF-8" standalone="no"?>
<svg xmlns:ffdec="https://www.free-decompiler.com/flash" xmlns:xlink="http://www.w3.org/1999/xlink" ffdec:objectType="shape" height="89.15px" width="157.6px" xmlns="http://www.w3.org/2000/svg">
  <g transform="matrix(1.0, 0.0, 0.0, 1.0, 70.8, 107.65)">
    <path d="M82.9 -104.75 Q82.95 -101.7 80.55 -99.55 77.15 -96.5 75.25 -100.55 L75.05 -101.3 Q65.2 -101.55 55.45 -99.15 L55.15 -98.8 Q54.4 -96.75 52.9 -95.05 51.45 -89.35 49.25 -83.9 L46.3 -76.85 45.85 -75.85 46.55 -75.9 51.05 -76.2 Q53.85 -78.05 57.4 -78.05 62.3 -78.05 65.75 -74.6 69.2 -71.15 69.2 -66.25 69.2 -61.35 65.75 -57.9 62.7 -54.85 58.55 -54.5 L58.1 -54.45 57.55 -55.0 57.1 -55.0 58.55 -51.85 Q68.05 -49.9 76.9 -45.95 79.5 -44.8 82.25 -44.85 L83.5 -44.85 Q87.55 -44.85 86.65 -40.85 86.1 -38.55 83.7 -38.55 80.55 -38.55 77.6 -39.9 67.75 -44.45 57.05 -46.25 55.45 -46.55 54.4 -47.9 52.65 -50.1 51.5 -52.7 50.2 -55.6 48.2 -58.05 L48.1 -58.2 42.2 -65.9 39.75 -69.15 33.45 -68.35 Q25.95 -67.2 18.8 -64.6 9.35 -61.2 -0.05 -57.4 L14.9 -53.75 18.45 -52.5 Q19.15 -52.15 19.95 -51.95 25.0 -50.9 22.7 -46.7 L21.45 -45.2 Q13.15 -37.9 4.5 -30.95 L0.9 -28.6 -1.15 -27.25 Q3.55 -25.2 3.65 -20.65 3.7 -19.3 2.45 -18.85 -0.7 -17.65 -2.45 -20.7 -2.9 -21.55 -3.8 -22.05 -7.15 -23.9 -9.05 -26.8 -9.6 -27.65 -8.9 -28.4 -6.3 -31.35 -2.8 -33.25 2.45 -36.05 6.95 -40.0 L15.0 -47.05 14.4 -47.65 13.95 -48.1 -6.9 -53.4 -7.55 -53.6 -7.7 -53.55 Q-13.55 -51.1 -17.2 -45.95 -20.05 -41.85 -22.0 -37.35 -23.4 -34.2 -26.15 -32.2 -26.65 -31.85 -27.25 -31.85 -31.8 -32.15 -36.25 -33.5 L-49.1 -36.95 Q-56.7 -38.75 -64.5 -38.4 -64.4 -34.7 -65.65 -31.3 -65.85 -30.65 -66.55 -30.55 -70.45 -29.8 -70.75 -33.6 -71.2 -39.15 -68.35 -43.55 -67.85 -44.35 -66.8 -44.35 -49.5 -44.05 -33.1 -38.65 -31.05 -38.0 -28.9 -37.85 -24.6 -45.95 -18.6 -52.9 -15.65 -56.3 -11.75 -58.7 L-10.6 -59.3 -9.6 -60.1 -8.5 -60.7 Q1.2 -64.6 11.25 -68.1 L15.35 -65.1 15.75 -65.2 15.95 -65.3 16.15 -65.5 16.4 -66.35 Q16.55 -68.15 16.0 -69.65 L26.75 -72.95 Q32.5 -74.55 38.45 -75.25 L40.25 -78.25 Q44.85 -86.85 47.3 -96.4 47.7 -98.05 48.85 -99.3 49.5 -102.4 51.7 -104.1 53.7 -101.7 55.5 -103.9 L55.5 -104.5 Q55.55 -105.2 55.9 -105.8 L73.35 -107.35 Q77.55 -108.2 81.4 -106.8 82.85 -106.3 82.9 -104.75 M13.7 -68.95 L14.15 -69.05 14.4 -68.45 13.7 -68.95" fill="#000000" fill-rule="evenodd" stroke="none"/>
  </g>
</svg>
