<?xml version="1.0" encoding="UTF-8" standalone="no"?>
<svg xmlns:ffdec="https://www.free-decompiler.com/flash" xmlns:xlink="http://www.w3.org/1999/xlink" ffdec:objectType="shape" height="82.95px" width="146.7px" xmlns="http://www.w3.org/2000/svg">
  <g transform="matrix(1.0, 0.0, 0.0, 1.0, 44.65, 80.8)">
    <path d="M77.05 -77.25 Q81.35 -79.6 86.0 -80.45 92.85 -81.65 98.85 -78.8 101.25 -77.7 101.9 -75.4 102.65 -72.8 100.0 -71.75 97.2 -70.65 95.6 -73.1 L94.25 -74.05 Q87.6 -75.9 81.3 -73.1 78.4 -67.8 73.8 -63.85 L70.0 -60.45 72.7 -60.75 Q77.6 -60.75 81.05 -57.3 84.5 -53.85 84.5 -48.95 84.5 -44.05 81.05 -40.6 78.0 -37.55 73.85 -37.2 L73.4 -37.15 72.85 -37.7 72.0 -37.75 70.05 -38.1 69.8 -38.0 69.25 -37.75 Q65.8 -38.65 63.5 -40.75 L63.9 -41.05 63.5 -41.55 Q60.9 -44.7 60.9 -48.9 L57.85 -48.4 57.35 -47.6 Q59.05 -46.2 60.25 -44.05 61.55 -41.75 62.2 -39.25 L62.6 -37.85 69.6 -27.1 72.6 -23.15 91.4 -18.2 Q95.65 -17.0 93.15 -13.55 92.25 -12.3 90.65 -12.65 L75.2 -16.3 Q72.55 -16.9 70.1 -17.9 68.2 -18.7 67.05 -20.35 L66.1 -21.65 Q61.95 -27.2 58.6 -33.35 L57.65 -35.1 Q56.75 -36.6 56.55 -38.4 53.95 -42.15 51.95 -46.05 51.65 -46.65 51.8 -47.25 L44.1 -45.5 Q38.25 -44.0 32.2 -43.6 25.0 -43.1 18.3 -40.9 L18.85 -39.85 Q21.35 -36.0 24.3 -32.5 28.0 -28.2 30.85 -23.3 34.45 -17.15 36.7 -10.45 L36.75 -10.35 Q37.55 -8.65 36.35 -6.0 35.7 -4.55 34.1 -4.25 L33.05 -4.1 Q22.35 -4.1 11.7 -4.4 L6.25 -4.7 Q2.9 -2.45 1.3 1.25 1.0 1.9 0.2 2.05 -1.75 2.45 -3.05 0.95 -3.5 0.45 -3.45 -0.2 -3.4 -4.65 0.0 -7.9 2.95 -10.75 6.9 -10.7 L9.35 -10.55 Q20.1 -9.05 31.05 -9.95 L27.45 -16.9 22.2 -25.4 Q20.75 -27.8 18.9 -30.0 L13.6 -36.55 13.35 -36.2 Q10.0 -29.0 5.5 -22.45 L4.1 -20.45 Q1.45 -16.95 -3.05 -18.8 L-5.3 -19.6 -12.5 -21.95 -20.2 -24.35 Q-26.2 -25.9 -32.15 -26.1 -36.15 -20.35 -41.5 -16.3 L-42.35 -16.25 Q-45.85 -17.55 -44.05 -20.95 L-42.8 -22.65 Q-38.7 -26.6 -35.7 -31.15 -35.25 -31.85 -34.35 -32.0 -28.05 -32.85 -22.15 -30.7 L-19.3 -29.9 Q-11.3 -28.4 -3.9 -25.25 L-1.65 -24.5 -0.4 -24.4 Q1.3 -28.05 3.9 -31.2 6.5 -34.4 7.95 -38.0 L9.2 -40.8 Q10.1 -42.65 11.6 -43.45 12.2 -44.8 14.1 -45.1 18.55 -47.8 23.85 -48.35 L29.1 -48.95 30.75 -49.0 30.85 -49.2 Q38.45 -50.25 45.95 -51.95 L54.05 -53.65 Q54.85 -54.8 56.0 -55.8 L69.15 -67.05 Q73.25 -70.5 75.75 -75.2 75.85 -76.6 77.05 -77.25" fill="#000000" fill-rule="evenodd" stroke="none"/>
  </g>
</svg>
