<?xml version="1.0" encoding="UTF-8" standalone="no"?>
<svg xmlns:ffdec="https://www.free-decompiler.com/flash" xmlns:xlink="http://www.w3.org/1999/xlink" ffdec:objectType="shape" height="83.2px" width="152.05px" xmlns="http://www.w3.org/2000/svg">
  <g transform="matrix(1.0, 0.0, 0.0, 1.0, 39.75, 62.25)">
    <path d="M56.55 -62.25 L57.9 -62.05 Q62.15 -60.45 65.4 -57.2 68.05 -54.6 71.05 -55.15 L71.1 -55.4 71.25 -56.0 Q72.95 -58.25 75.0 -60.3 L77.85 -60.2 83.6 -54.75 87.05 -48.7 Q88.7 -47.4 91.1 -48.1 92.65 -47.45 92.9 -45.9 93.85 -40.9 93.4 -35.55 93.2 -33.65 94.35 -32.3 97.55 -28.35 102.8 -29.95 L102.75 -29.75 102.7 -29.2 101.1 -26.95 Q97.55 -22.25 96.95 -16.5 97.55 -15.95 98.25 -15.7 100.95 -14.7 103.8 -14.3 L103.8 -14.05 Q100.85 -12.75 101.2 -9.7 L112.3 -2.7 Q108.05 -1.8 106.1 2.05 L105.5 2.65 99.3 2.85 Q95.75 1.55 92.25 0.05 L91.6 0.05 Q87.85 2.7 83.9 5.0 L79.1 5.0 Q77.5 3.55 75.55 2.7 72.9 0.15 69.5 2.7 66.95 3.5 64.9 2.2 L62.9 0.65 Q60.6 -1.5 57.4 0.0 54.45 -3.2 50.9 -5.9 48.4 -7.75 46.1 -7.5 L46.0 -7.2 45.8 -6.05 45.5 -5.75 Q45.65 -4.6 45.05 -3.6 L39.75 5.75 Q38.3 5.6 37.05 6.15 36.4 6.75 35.9 7.5 L35.9 7.75 35.7 8.35 Q34.0 10.15 33.5 12.65 31.8 12.8 30.45 11.7 L25.9 7.9 23.5 5.45 Q21.25 2.85 18.05 3.05 17.15 3.1 16.9 4.0 14.65 10.85 13.85 18.05 L13.35 18.1 13.25 18.05 Q11.55 16.3 10.3 14.2 8.65 11.5 5.95 11.4 L5.95 11.25 5.95 10.95 Q5.0 9.1 3.45 7.85 2.85 7.95 2.5 8.45 L2.5 8.75 2.4 9.3 2.15 9.6 Q0.75 11.8 0.95 14.5 -2.1 18.1 -5.55 20.95 L-5.5 20.15 Q-5.1 17.9 -5.2 15.55 -5.4 15.25 -5.7 15.25 -9.0 14.8 -11.7 17.3 L-12.85 17.2 -12.35 14.05 -11.95 11.7 Q-11.3 5.4 -11.3 -0.95 -12.2 -2.25 -13.45 -1.25 -21.55 4.9 -30.5 10.35 L-31.65 10.1 -31.4 8.9 -31.0 7.6 Q-28.85 3.25 -29.35 -1.75 -29.65 -2.35 -30.3 -2.3 -35.3 -1.8 -39.75 -2.2 L-39.55 -2.8 Q-39.1 -4.8 -37.75 -6.35 L-34.1 -10.75 Q-30.8 -14.9 -35.8 -17.2 -36.3 -17.8 -37.05 -18.05 -33.5 -17.45 -31.65 -20.15 L-31.75 -21.9 Q-32.2 -26.85 -35.2 -30.85 L-35.45 -31.65 Q-37.3 -34.6 -37.45 -38.05 -33.35 -37.95 -29.65 -36.15 -20.65 -31.85 -12.95 -25.2 -8.8 -21.6 -3.85 -22.5 -3.5 -23.75 -3.55 -25.05 L-4.0 -34.0 -2.75 -33.45 Q0.55 -31.5 4.15 -32.0 L4.3 -32.3 Q4.55 -32.85 4.35 -33.45 L4.1 -33.7 Q3.55 -34.3 3.65 -35.15 L2.45 -36.9 Q-0.4 -42.15 -3.85 -46.95 1.6 -47.05 6.8 -48.5 L6.95 -48.8 Q7.15 -50.35 6.15 -51.65 L6.45 -51.95 Q9.65 -55.2 9.9 -59.75 L10.75 -59.65 Q12.2 -59.4 13.55 -58.75 18.95 -56.15 24.45 -53.8 25.0 -53.55 25.45 -53.1 28.7 -49.8 32.95 -50.45 L33.45 -51.9 Q34.65 -56.0 36.6 -59.95 41.45 -60.4 45.6 -57.75 L46.7 -57.0 Q49.5 -54.9 52.5 -55.05 L52.7 -55.35 56.55 -62.25" fill="#ffff00" fill-opacity="0.5019608" fill-rule="evenodd" stroke="none"/>
  </g>
</svg>
