<?xml version="1.0" encoding="UTF-8" standalone="no"?>
<svg xmlns:ffdec="https://www.free-decompiler.com/flash" xmlns:xlink="http://www.w3.org/1999/xlink" ffdec:objectType="shape" height="91.7px" width="101.5px" xmlns="http://www.w3.org/2000/svg">
  <g transform="matrix(1.0, 0.0, 0.0, 1.0, -4.4, 64.25)">
    <path d="M52.1 -53.25 Q55.0 -52.6 57.35 -54.65 58.1 -55.3 59.05 -55.4 L67.4 -55.7 Q67.95 -55.05 68.8 -54.8 70.5 -54.2 71.7 -55.4 73.1 -56.85 74.0 -58.6 75.6 -61.85 78.15 -64.15 79.25 -64.5 80.15 -63.7 L84.8 -58.95 92.15 -50.2 Q92.65 -49.6 93.3 -49.4 97.3 -48.05 100.05 -51.85 L100.4 -51.8 100.6 -51.6 100.85 -51.0 Q101.65 -48.4 100.55 -45.75 98.15 -40.1 95.4 -34.6 L95.4 -33.15 95.4 -28.55 Q96.15 -27.0 97.65 -26.85 L105.2 -26.2 105.35 -26.0 105.4 -25.75 105.3 -25.45 104.65 -24.9 Q103.95 -24.35 103.25 -24.0 98.15 -21.4 95.05 -16.8 L95.05 -15.95 95.05 -15.35 Q100.2 -10.35 105.9 -5.6 L105.2 -5.15 Q104.65 -4.85 104.55 -4.25 102.25 -3.6 101.2 -1.45 L101.2 -1.15 101.2 -0.85 100.85 -0.25 100.8 0.0 95.2 0.9 Q94.1 1.15 93.9 2.4 93.1 6.45 91.1 9.9 90.3 10.2 89.75 10.8 L88.95 11.35 Q82.15 12.8 77.25 7.8 76.0 6.55 74.25 7.35 69.15 9.7 65.45 14.2 L64.9 14.25 64.9 14.2 63.05 10.3 Q61.25 6.5 59.7 2.5 58.1 -1.8 54.35 0.4 L54.3 0.95 54.15 1.55 Q53.9 1.65 53.75 1.85 52.95 2.8 52.3 3.85 L49.85 3.75 48.15 3.3 Q44.4 1.45 40.35 1.9 39.3 2.0 38.95 3.05 37.25 7.7 32.95 5.75 32.25 4.55 31.1 3.75 L30.5 3.6 Q26.8 5.5 26.3 10.15 24.55 12.55 21.8 13.15 20.7 12.6 19.5 12.4 L18.45 11.3 Q15.45 7.95 12.85 10.75 L12.8 11.6 Q12.45 14.0 12.55 16.5 12.75 22.35 11.15 27.45 L9.4 24.5 4.4 14.5 4.4 13.65 4.4 13.05 4.95 12.45 5.2 11.9 9.15 11.05 Q9.7 10.25 9.6 9.3 9.35 5.75 10.45 2.7 L12.2 3.1 Q17.15 5.15 21.4 2.95 L21.7 2.4 Q22.15 1.3 22.85 0.4 30.0 1.25 32.95 -5.3 39.5 -2.05 46.85 -2.3 47.8 -2.35 48.2 -3.25 L48.2 -3.85 48.2 -4.4 48.0 -4.7 47.8 -5.0 47.5 -6.8 Q45.95 -11.4 43.6 -15.65 L43.65 -16.5 43.4 -17.4 Q46.5 -17.4 48.2 -19.8 L48.2 -20.35 48.2 -20.95 48.0 -21.25 47.8 -21.5 47.8 -21.8 47.8 -22.1 46.65 -23.4 Q40.2 -29.8 32.65 -34.75 L33.4 -35.5 Q34.55 -37.15 34.35 -39.1 L34.8 -39.7 35.6 -41.1 36.1 -41.4 36.5 -41.7 Q36.65 -42.4 37.1 -42.95 37.55 -43.55 37.2 -44.15 35.2 -47.85 30.9 -49.45 L29.55 -50.5 Q21.85 -53.5 15.35 -58.95 L15.75 -59.6 16.35 -60.3 Q17.4 -60.15 18.15 -59.5 18.55 -59.15 19.05 -59.15 27.9 -58.4 34.5 -52.1 36.85 -49.8 39.0 -51.3 L38.95 -52.15 Q38.95 -53.25 39.35 -54.15 45.8 -54.7 52.1 -53.25" fill="#ffff00" fill-opacity="0.5019608" fill-rule="evenodd" stroke="none"/>
  </g>
</svg>
