<?xml version="1.0" encoding="UTF-8" standalone="no"?>
<svg xmlns:ffdec="https://www.free-decompiler.com/flash" xmlns:xlink="http://www.w3.org/1999/xlink" ffdec:objectType="shape" height="118.15px" width="103.1px" xmlns="http://www.w3.org/2000/svg">
  <g transform="matrix(1.0, 0.0, 0.0, 1.0, 45.1, 86.95)">
    <path d="M2.6 -86.9 L2.7 -86.95 3.2 -86.9 Q3.75 -85.3 3.7 -83.55 3.65 -81.8 4.2 -80.2 5.95 -74.95 6.8 -69.45 L7.8 -68.85 11.2 -62.85 11.7 -62.55 Q25.6 -62.6 36.4 -71.55 L36.4 -71.25 Q36.2 -67.55 36.3 -63.8 L36.7 -63.2 Q37.1 -57.15 31.9 -53.7 L30.15 -52.95 Q27.6 -51.8 26.3 -50.15 L26.75 -49.75 29.55 -49.0 Q38.45 -47.15 47.35 -48.4 44.45 -43.45 40.5 -39.2 L40.5 -38.9 Q40.4 -37.4 41.0 -36.0 L41.65 -35.15 41.7 -34.85 Q41.85 -33.35 41.4 -32.0 L40.1 -31.65 Q36.8 -31.4 35.55 -29.4 39.6 -25.4 42.85 -20.4 L48.6 -11.15 Q44.7 -11.3 42.45 -8.25 L42.45 -8.0 42.45 -1.65 42.8 -1.05 42.8 -0.8 42.9 0.1 44.25 1.55 45.3 2.75 Q49.95 7.05 54.2 11.85 L58.0 15.95 Q56.25 22.15 53.2 28.05 L52.25 28.15 Q45.25 22.45 40.05 14.85 L38.5 13.1 Q35.5 10.45 33.15 7.2 31.15 4.45 28.2 2.65 26.2 1.4 24.9 3.05 23.0 5.45 23.35 8.95 23.9 14.35 22.95 19.55 L22.6 21.65 Q21.75 27.9 16.8 31.2 12.15 28.5 7.85 25.3 2.75 21.5 1.25 27.15 L0.9 26.4 Q0.4 24.35 0.25 22.1 -0.05 17.55 -3.25 13.85 -6.7 9.75 -12.45 10.15 -12.75 9.55 -13.45 9.4 -14.05 9.5 -14.4 10.0 L-31.55 9.7 -32.2 8.25 Q-33.05 5.75 -34.85 3.85 L-36.7 1.5 Q-37.35 0.45 -38.3 -0.25 L-45.1 -5.0 -38.4 -5.4 -38.0 -5.6 -37.95 -5.85 Q-37.6 -11.0 -38.95 -15.95 L-38.6 -15.95 -36.4 -14.5 Q-34.7 -13.3 -32.6 -13.15 -30.4 -12.95 -28.55 -13.85 -25.35 -15.35 -25.15 -19.1 -24.8 -26.9 -28.0 -33.8 -24.6 -29.2 -18.25 -29.2 L-15.1 -27.0 Q-11.35 -24.55 -8.35 -26.5 L-8.3 -26.8 Q-7.85 -30.4 -8.25 -33.9 -5.9 -32.7 -3.4 -31.9 0.2 -30.75 1.65 -33.8 L1.9 -34.8 Q2.55 -41.1 2.8 -47.45 4.2 -44.1 7.6 -45.05 L8.65 -47.05 8.65 -47.35 Q8.85 -49.45 8.35 -51.4 L7.9 -51.65 Q7.9 -52.3 7.4 -52.7 2.15 -56.8 -3.55 -60.55 -14.55 -67.8 -19.3 -80.1 L-8.7 -71.95 Q-4.65 -68.95 0.0 -68.65 L2.3 -70.5 Q2.45 -71.15 2.9 -71.65 L2.9 -75.4 2.6 -79.4 Q2.0 -83.25 2.6 -86.9 M41.85 -83.15 L41.95 -83.2 Q41.8 -81.15 40.4 -79.55 L40.45 -79.7 Q41.0 -81.55 41.85 -83.15" fill="#ffff00" fill-opacity="0.5019608" fill-rule="evenodd" stroke="none"/>
  </g>
</svg>
