<?xml version="1.0" encoding="UTF-8" standalone="no"?>
<svg xmlns:ffdec="https://www.free-decompiler.com/flash" xmlns:xlink="http://www.w3.org/1999/xlink" ffdec:objectType="shape" height="152.45px" width="237.75px" xmlns="http://www.w3.org/2000/svg">
  <g transform="matrix(1.0, 0.0, 0.0, 1.0, 84.45, 108.65)">
    <path d="M41.3 -80.85 L41.1 -81.15 Q40.65 -81.75 39.95 -81.65 L39.95 -81.6 39.55 -81.5 39.35 -81.45 39.2 -81.25 Q38.8 -80.45 38.2 -79.8 L38.2 -79.55 38.2 -79.25 38.2 -78.95 37.5 -78.3 Q36.6 -77.25 36.05 -75.85 34.3 -71.4 32.9 -66.75 30.85 -59.85 27.75 -53.3 L27.35 -53.2 26.4 -53.7 Q24.35 -55.55 20.95 -55.3 17.7 -59.2 15.75 -63.9 13.7 -68.75 10.4 -72.4 L10.1 -72.25 Q8.5 -70.15 9.05 -67.25 L4.6 -67.6 Q0.1 -68.1 -2.5 -64.05 L-2.5 -63.5 Q-2.35 -57.0 -4.4 -51.1 -6.95 -50.75 -9.3 -51.8 L-11.4 -52.85 Q-18.6 -56.85 -25.75 -61.0 -29.2 -63.0 -32.45 -61.85 L-32.3 -61.35 Q-29.9 -56.45 -26.7 -51.75 L-26.7 -51.5 -26.7 -51.2 -26.45 -50.95 -25.45 -49.75 -25.3 -49.2 Q-24.75 -47.8 -23.7 -46.7 -14.85 -37.55 -14.1 -25.25 L-14.4 -25.0 Q-24.45 -25.35 -34.25 -27.9 -43.05 -30.2 -51.0 -34.5 -54.7 -36.5 -58.15 -35.35 L-58.15 -34.75 -58.15 -34.2 -57.3 -33.2 Q-55.05 -30.3 -53.1 -27.0 L-49.0 -19.6 Q-46.85 -15.55 -47.5 -11.45 -49.0 -10.9 -50.1 -9.9 L-50.1 -9.3 -50.0 -8.75 Q-45.6 -6.7 -41.5 -3.9 -38.15 -1.65 -35.1 1.0 -30.0 5.35 -30.9 11.9 -26.25 15.25 -20.6 17.05 -18.25 17.85 -17.45 18.7 L-20.15 19.2 Q-24.4 20.3 -25.9 23.6 L-25.5 23.95 -16.3 24.25 14.4 22.25 14.4 23.05 14.5 23.9 Q16.6 25.0 18.8 23.7 21.6 22.05 24.65 20.75 30.25 18.35 36.15 16.7 L40.85 15.7 Q47.85 14.6 49.9 8.25 52.25 8.9 54.75 10.3 58.6 12.5 62.4 11.15 L63.0 11.05 Q68.7 13.35 73.95 16.7 L87.8 25.25 Q89.75 26.4 91.5 27.9 94.4 30.35 97.35 28.6 L97.3 28.05 Q96.65 24.15 94.6 20.7 88.15 9.65 80.75 -0.75 L99.85 0.05 100.55 -0.05 Q104.3 -0.8 106.55 -3.45 107.85 -3.45 108.5 -4.4 L108.5 -4.7 108.65 -5.3 109.05 -5.6 114.9 -10.45 114.95 -11.05 115.0 -12.5 Q109.2 -16.35 103.0 -19.3 104.05 -19.65 104.55 -20.45 L104.6 -20.75 104.65 -21.05 104.85 -21.3 105.8 -22.5 105.8 -23.05 105.8 -27.1 Q104.4 -29.35 102.7 -30.35 105.0 -32.1 107.5 -33.25 108.65 -35.9 110.6 -38.15 118.0 -46.75 124.6 -56.0 124.55 -56.85 123.65 -56.85 110.0 -57.0 96.4 -56.65 85.4 -56.35 74.9 -54.45 L77.6 -56.0 Q81.55 -57.95 82.35 -61.65 L81.85 -62.0 69.35 -61.4 61.75 -59.35 61.9 -59.95 Q62.7 -63.15 61.65 -66.25 61.35 -66.9 60.75 -66.75 50.2 -63.85 41.4 -57.8 40.3 -61.2 40.4 -64.75 40.6 -72.8 41.3 -80.85 M34.55 -100.95 L35.15 -101.6 Q40.6 -105.2 46.3 -108.6 L46.4 -108.65 Q44.75 -104.7 44.05 -100.35 42.85 -92.6 42.55 -84.8 L42.85 -84.55 43.4 -84.25 44.5 -82.6 Q45.3 -81.6 45.1 -80.3 46.2 -78.95 45.9 -77.1 45.6 -75.2 46.65 -73.65 L46.65 -73.4 46.65 -73.1 46.85 -72.8 47.35 -72.25 47.4 -71.95 47.45 -71.65 47.5 -71.35 Q47.65 -71.2 47.85 -71.1 L48.4 -70.9 Q50.9 -72.9 54.05 -74.0 60.2 -76.1 65.8 -79.45 72.45 -83.4 78.6 -88.05 80.25 -89.3 81.2 -89.15 80.25 -86.75 78.5 -84.8 75.3 -81.25 74.9 -77.05 L75.25 -76.7 75.45 -76.45 74.85 -73.9 Q74.6 -72.45 74.8 -71.0 75.6 -70.2 76.8 -70.5 L78.85 -70.8 100.3 -72.3 Q99.95 -71.0 98.9 -69.9 97.85 -68.7 98.2 -67.15 L98.5 -66.9 99.05 -66.65 99.75 -66.85 Q103.9 -67.15 108.05 -66.8 L110.05 -66.65 Q114.7 -66.35 119.4 -66.65 L124.05 -67.0 153.3 -69.15 Q153.05 -69.0 152.8 -68.95 150.45 -68.25 149.2 -66.25 L149.2 -66.0 149.15 -65.7 149.1 -65.4 148.8 -65.15 148.05 -64.55 Q148.0 -63.5 147.55 -62.55 147.0 -61.45 147.35 -60.2 L147.95 -59.65 Q149.3 -58.5 151.1 -58.2 144.8 -54.55 138.45 -51.2 132.75 -48.25 130.75 -42.15 L130.7 -40.45 Q130.7 -39.55 130.85 -38.7 L131.4 -38.15 Q131.9 -37.65 131.9 -37.0 L132.4 -36.45 133.05 -35.55 Q132.7 -34.8 131.95 -34.45 129.05 -33.0 126.9 -30.65 L126.9 -29.5 127.0 -28.35 135.4 -20.15 Q138.5 -17.05 139.1 -13.35 L138.65 -13.1 138.05 -12.7 129.4 -12.25 129.0 -12.1 Q128.75 -11.75 128.8 -11.25 L128.85 -10.4 131.5 -7.55 Q136.35 -1.8 140.35 4.6 136.8 4.45 133.2 3.45 L127.8 1.95 Q124.25 1.0 121.55 2.3 L121.55 5.45 121.45 8.65 121.05 8.8 112.9 9.4 Q111.45 9.5 110.4 10.35 110.4 11.1 110.55 11.75 111.7 16.95 114.4 21.75 115.7 24.1 116.45 26.7 118.8 34.85 122.3 42.35 L122.35 42.9 122.7 43.8 Q118.25 43.8 113.95 42.4 109.1 40.8 104.15 40.4 L90.65 39.45 Q88.8 39.35 87.3 37.9 83.9 34.7 80.05 35.7 L80.05 36.0 80.1 36.85 Q80.2 37.5 79.85 37.85 L76.4 35.6 Q71.25 32.8 66.95 28.75 63.75 25.8 61.25 28.5 L61.05 32.25 60.85 36.0 60.65 36.3 60.5 36.6 60.3 36.85 Q58.4 37.15 56.8 36.2 55.2 35.2 53.45 34.55 50.3 33.3 47.55 31.35 L46.5 30.55 Q43.0 27.6 38.75 29.15 38.1 29.4 37.65 29.8 34.6 32.35 30.8 32.65 29.85 31.9 28.75 31.65 20.3 29.95 13.65 34.95 L12.2 35.05 Q10.95 34.45 9.6 34.35 L2.2 34.6 Q0.3 34.85 -1.45 35.5 -5.2 36.85 -8.05 39.25 L-8.75 39.3 -8.8 39.25 Q-9.7 37.45 -11.7 37.3 L-22.05 36.6 Q-22.75 35.3 -24.25 34.55 -37.3 28.05 -51.55 25.45 -50.05 24.85 -49.1 23.55 -48.0 22.1 -48.2 20.35 L-40.7 20.05 -40.0 19.85 Q-39.6 19.35 -39.7 18.7 -39.9 17.15 -41.55 17.0 -51.6 7.95 -63.85 3.35 -63.45 2.85 -63.65 2.25 -64.4 0.25 -66.3 -0.9 L-84.45 -12.2 -79.65 -12.25 Q-76.3 -12.2 -73.35 -13.25 -71.1 -14.1 -69.5 -16.35 L-69.3 -16.65 -69.2 -16.9 Q-67.65 -17.4 -66.25 -18.25 L-65.25 -19.3 Q-63.55 -22.25 -64.8 -25.8 L-65.7 -28.25 Q-67.2 -32.3 -69.8 -35.75 -73.25 -40.35 -74.95 -45.45 L-74.4 -45.6 -69.15 -45.35 Q-66.65 -45.0 -64.2 -45.9 -63.6 -46.1 -63.25 -46.6 -60.2 -50.9 -62.85 -55.85 -67.0 -63.6 -70.75 -71.45 L-69.0 -70.55 Q-64.95 -67.95 -61.6 -64.65 L-61.65 -63.2 -61.5 -61.75 Q-59.85 -60.45 -57.4 -61.1 -48.35 -51.35 -38.1 -43.1 -35.2 -40.75 -31.95 -40.8 -30.5 -44.65 -32.35 -48.55 L-33.95 -52.65 Q-35.7 -58.15 -38.9 -63.1 -41.4 -67.0 -43.2 -71.05 -43.45 -73.95 -44.8 -76.5 -46.5 -79.65 -48.75 -82.5 L-50.75 -85.0 Q-56.8 -92.2 -60.45 -100.75 -54.1 -96.8 -48.6 -91.5 -43.15 -86.25 -36.95 -81.95 L-35.05 -80.2 Q-32.1 -76.55 -27.85 -76.85 L-27.65 -77.05 -27.45 -77.35 -27.35 -77.6 -26.85 -77.75 Q-26.2 -77.95 -25.9 -78.55 L-25.9 -79.15 -25.9 -79.7 Q-25.1 -78.85 -24.6 -77.8 -20.85 -69.95 -13.45 -65.5 L-12.9 -65.75 -12.2 -66.45 Q-11.3 -71.4 -11.3 -76.55 -11.3 -78.3 -11.6 -79.95 -12.75 -87.7 -11.8 -95.55 -8.6 -91.15 -4.75 -87.35 L-2.05 -85.0 2.7 -81.3 Q5.3 -79.35 7.5 -80.85 L7.5 -81.15 7.65 -81.4 7.9 -81.65 Q9.55 -79.7 12.1 -78.7 14.25 -77.85 15.55 -79.5 18.1 -82.75 17.75 -87.0 18.35 -84.4 19.4 -81.85 21.05 -77.65 23.25 -73.75 23.25 -73.05 23.4 -72.35 L23.7 -70.6 24.65 -69.4 26.0 -67.4 24.55 -64.55 Q23.85 -63.0 24.1 -61.35 L24.4 -61.15 24.95 -60.9 25.35 -61.0 25.65 -61.2 Q26.3 -63.55 27.6 -65.55 28.15 -66.35 28.25 -67.3 28.65 -70.4 29.55 -73.65 30.3 -76.4 30.6 -79.3 L31.4 -90.3 Q31.65 -96.15 34.55 -100.95" fill="#ffff00" fill-opacity="0.5019608" fill-rule="evenodd" stroke="none"/>
  </g>
</svg>
