<?xml version="1.0" encoding="UTF-8" standalone="no"?>
<svg xmlns:ffdec="https://www.free-decompiler.com/flash" xmlns:xlink="http://www.w3.org/1999/xlink" ffdec:objectType="shape" height="55.1px" width="142.15px" xmlns="http://www.w3.org/2000/svg">
  <g transform="matrix(1.0, 0.0, 0.0, 1.0, 31.85, 48.1)">
    <path d="M22.0 -42.2 Q39.2 -34.5 57.8 -38.85 63.6 -40.15 68.35 -43.65 L72.25 -46.1 Q75.15 -48.1 78.85 -48.1 83.75 -48.1 87.2 -44.65 90.65 -41.2 90.65 -36.3 90.65 -31.4 87.2 -27.95 84.15 -24.9 80.0 -24.55 L79.55 -24.5 79.0 -25.05 78.15 -25.1 76.2 -25.45 75.95 -25.35 75.45 -25.15 76.65 -23.6 78.3 -21.9 Q80.2 -20.45 81.7 -18.55 93.4 -18.85 105.15 -21.6 106.95 -22.05 108.6 -21.1 111.5 -19.35 109.45 -16.65 108.45 -15.35 106.8 -15.2 L104.05 -15.0 Q95.45 -14.4 87.1 -12.6 L83.15 -12.25 88.35 -10.75 93.05 -9.75 Q96.8 -9.05 95.75 -5.65 95.05 -3.4 92.75 -3.8 82.55 -5.4 72.95 -9.4 70.1 -10.55 67.8 -12.35 66.2 -13.6 66.25 -15.55 L59.75 -28.1 Q59.1 -29.25 59.75 -30.45 60.4 -31.65 61.55 -31.95 61.1 -32.65 60.9 -33.45 55.45 -31.6 49.55 -31.25 41.5 -30.75 33.75 -32.35 L31.7 -32.85 22.55 -35.45 Q22.1 -28.8 22.6 -22.25 L23.05 -15.65 Q23.2 -13.1 23.0 -10.5 22.7 -7.2 19.1 -7.05 L17.75 -6.8 3.15 -2.15 Q1.75 -1.65 0.3 -1.45 L-4.7 -1.15 Q-6.0 3.55 -9.5 6.65 -10.1 7.2 -10.85 6.85 -14.65 5.25 -12.45 1.65 -10.95 -0.8 -10.45 -3.6 L-9.8 -5.5 Q-8.95 -7.0 -7.3 -7.0 2.35 -6.95 11.3 -10.6 L13.55 -11.35 Q15.4 -11.85 17.0 -12.75 17.2 -19.4 16.9 -26.05 L16.7 -32.65 16.7 -33.4 Q14.9 -30.25 13.6 -26.75 12.8 -24.55 11.45 -22.75 11.35 -18.05 8.05 -15.25 7.0 -14.35 5.55 -14.15 L-17.55 -11.15 Q-21.3 -5.7 -26.75 -2.0 -30.5 0.55 -31.75 -3.65 -32.2 -5.15 -30.85 -6.05 -26.15 -9.2 -22.85 -13.9 -21.95 -17.25 -18.05 -17.2 L-9.9 -17.85 -4.35 -18.75 4.8 -20.15 Q7.3 -30.2 13.15 -38.8 L14.25 -40.6 Q15.95 -43.45 18.8 -44.35 20.95 -43.6 21.45 -42.4 L22.0 -42.2 M67.1 -35.55 L67.05 -36.1 66.7 -35.9 67.1 -35.55 M76.95 -14.4 L76.75 -14.7 Q75.0 -17.7 72.15 -20.0 71.0 -20.85 70.1 -22.0 L67.95 -24.7 Q69.7 -21.1 71.75 -17.55 L72.0 -16.5 76.95 -14.4" fill="#000000" fill-rule="evenodd" stroke="none"/>
  </g>
</svg>
