<?xml version="1.0" encoding="UTF-8" standalone="no"?>
<svg xmlns:ffdec="https://www.free-decompiler.com/flash" xmlns:xlink="http://www.w3.org/1999/xlink" ffdec:objectType="shape" height="50.25px" width="146.2px" xmlns="http://www.w3.org/2000/svg">
  <g transform="matrix(1.0, 0.0, 0.0, 1.0, 36.3, 33.95)">
    <path d="M17.7 -19.15 L23.7 -23.65 24.2 -23.85 24.7 -23.7 25.75 -24.2 26.75 -23.75 27.55 -23.95 38.3 -24.95 40.55 -25.15 62.05 -28.2 72.3 -30.2 75.5 -30.9 Q78.85 -33.95 83.45 -33.95 88.35 -33.95 91.8 -30.5 95.25 -27.05 95.25 -22.15 L95.1 -19.95 108.7 -17.55 Q109.6 -17.4 109.8 -16.45 110.45 -13.3 107.1 -12.95 103.3 -12.55 99.5 -13.1 L92.25 -14.25 91.8 -13.8 Q88.75 -10.75 84.6 -10.4 L84.15 -10.35 83.6 -10.9 82.75 -10.95 80.8 -11.3 80.55 -11.2 80.0 -10.95 Q76.55 -11.85 74.25 -13.95 L74.65 -14.25 74.25 -14.75 Q72.6 -16.7 72.05 -19.1 L69.35 -20.15 71.1 -16.5 71.25 -15.65 76.1 -6.7 76.25 -6.15 Q80.55 -4.25 85.7 -3.5 L98.7 -2.4 Q101.3 -2.35 101.3 0.2 101.3 2.75 98.7 2.85 90.3 3.25 82.15 1.45 L79.3 1.05 Q75.5 0.85 72.85 -1.3 70.95 -2.8 70.25 -5.05 69.8 -6.35 68.95 -7.5 68.55 -8.1 68.45 -8.85 66.65 -11.4 65.6 -14.35 L65.45 -15.2 Q62.65 -18.55 62.7 -22.15 L59.55 -21.75 39.1 -19.45 29.1 -19.1 29.05 -18.7 Q28.95 -18.05 29.25 -17.35 33.3 -7.0 34.0 4.05 34.05 4.45 33.7 4.75 30.5 7.4 26.15 7.7 L20.7 8.25 Q14.55 9.15 8.65 10.85 9.6 15.25 5.7 16.25 4.8 16.45 4.2 15.8 2.3 13.75 2.65 10.7 L3.25 7.35 Q3.65 5.8 5.2 5.45 16.35 3.0 27.75 1.35 27.5 -3.7 25.9 -8.75 L23.65 -16.2 Q15.05 -9.5 5.65 -3.7 L0.3 -0.15 Q-0.5 0.45 -1.45 0.1 L-22.35 -6.85 -22.95 -7.0 Q-26.8 -3.3 -29.65 1.15 -31.05 3.35 -33.45 3.95 -34.35 4.15 -35.0 3.5 -37.7 0.75 -34.85 -2.05 -32.95 -3.9 -31.5 -6.2 -28.65 -10.75 -24.05 -12.7 L-22.5 -12.75 -1.25 -5.75 Q4.1 -9.8 9.8 -13.45 13.9 -16.05 17.7 -19.15" fill="#000000" fill-rule="evenodd" stroke="none"/>
  </g>
</svg>
