<?xml version="1.0" encoding="UTF-8" standalone="no"?>
<svg xmlns:ffdec="https://www.free-decompiler.com/flash" xmlns:xlink="http://www.w3.org/1999/xlink" ffdec:objectType="shape" height="46.2px" width="151.2px" xmlns="http://www.w3.org/2000/svg">
  <g transform="matrix(1.0, 0.0, 0.0, 1.0, 40.3, 28.05)">
    <path d="M34.0 -1.55 L29.0 5.85 Q26.45 10.6 22.6 14.75 L21.7 15.1 Q7.9 15.1 -5.55 12.2 L-9.8 12.0 Q-12.95 16.15 -17.8 18.0 -18.8 18.4 -19.6 17.6 -22.35 14.75 -18.9 12.25 -15.4 9.65 -12.25 6.45 -12.05 6.2 -11.7 6.2 -2.25 6.15 7.0 8.25 L11.9 9.25 Q15.6 9.95 19.4 9.3 23.35 3.45 27.7 -2.1 19.35 -1.15 10.85 -1.65 L-2.1 -2.4 -4.05 -2.75 Q-5.9 -3.4 -7.3 -4.7 -17.2 -8.95 -27.45 -12.6 -31.6 -8.0 -36.4 -4.0 -36.9 -3.55 -37.6 -3.7 -41.45 -4.4 -39.85 -7.75 -38.8 -9.9 -36.95 -11.55 L-30.7 -17.6 Q-28.35 -19.95 -25.2 -18.45 -21.95 -16.9 -18.55 -15.5 L-10.7 -12.25 -1.45 -8.25 -1.05 -8.0 Q17.75 -6.5 36.15 -9.45 L45.6 -11.3 Q57.15 -13.95 68.3 -17.65 L69.1 -17.9 Q69.6 -21.75 72.45 -24.6 75.9 -28.05 80.8 -28.05 85.7 -28.05 89.15 -24.6 L90.1 -23.55 Q92.5 -25.75 95.25 -27.0 L105.8 -26.95 Q110.85 -27.0 110.9 -22.6 110.9 -21.3 109.75 -20.8 107.4 -19.8 104.8 -20.3 L96.6 -21.05 Q94.85 -18.8 92.55 -17.65 L92.6 -16.25 Q92.6 -11.35 89.15 -7.9 86.1 -4.85 81.95 -4.5 L81.5 -4.45 80.95 -5.0 80.1 -5.05 78.15 -5.4 77.9 -5.3 77.35 -5.05 Q73.9 -5.95 71.6 -8.05 L72.0 -8.35 71.6 -8.85 Q70.5 -10.2 69.85 -11.7 L67.95 -11.1 69.0 -9.8 Q70.3 -8.05 71.9 -6.55 L75.65 -2.8 Q77.7 -0.55 80.15 1.25 88.3 0.2 96.2 -2.75 L102.55 -4.75 Q106.25 -5.75 107.9 -2.85 109.0 -0.9 107.05 0.2 105.2 1.25 102.95 1.7 96.6 2.95 90.6 5.3 84.25 7.75 77.7 6.4 76.95 6.25 76.35 5.75 71.15 1.6 66.75 -3.3 L63.4 -6.6 Q62.05 -7.75 61.4 -9.1 L54.4 -7.25 Q44.65 -4.85 34.8 -3.15 L34.0 -1.55" fill="#000000" fill-rule="evenodd" stroke="none"/>
  </g>
</svg>
