<?xml version="1.0" encoding="UTF-8" standalone="no"?>
<svg xmlns:ffdec="https://www.free-decompiler.com/flash" xmlns:xlink="http://www.w3.org/1999/xlink" ffdec:objectType="shape" height="163.95px" width="124.85px" xmlns="http://www.w3.org/2000/svg">
  <g transform="matrix(1.0, 0.0, 0.0, 1.0, 38.75, 140.45)">
    <path d="M21.5 -140.4 Q21.9 -140.65 21.8 -139.85 21.65 -138.2 22.75 -136.9 L22.75 -136.5 22.75 -136.15 Q25.2 -132.85 29.25 -133.25 L29.2 -132.65 29.1 -131.9 28.85 -131.45 28.75 -130.75 Q29.15 -129.6 30.5 -129.75 32.5 -130.05 33.75 -131.5 36.3 -131.95 38.75 -132.75 38.95 -131.35 38.1 -130.25 35.45 -126.55 35.35 -122.4 40.95 -120.35 46.85 -119.0 L42.25 -114.5 42.2 -114.15 42.1 -113.75 41.65 -113.35 41.25 -113.0 41.2 -112.25 Q41.15 -111.3 41.35 -110.4 41.95 -110.05 42.5 -110.0 L50.75 -109.5 50.75 -108.5 50.75 -107.0 51.55 -106.35 Q54.85 -104.3 59.1 -105.65 63.35 -107.0 66.75 -106.65 L66.7 -105.15 Q66.65 -103.25 66.85 -101.4 67.45 -101.05 68.0 -101.0 L76.75 -100.5 Q76.85 -99.95 76.55 -99.45 75.75 -98.25 75.6 -96.9 L75.1 -96.15 Q74.6 -95.45 74.75 -94.65 80.25 -90.1 86.1 -86.0 79.35 -83.35 72.3 -82.2 L71.75 -81.75 71.75 -81.0 71.75 -80.65 71.95 -80.25 Q72.85 -78.15 74.6 -76.5 68.1 -77.1 62.0 -76.25 L61.8 -75.5 61.75 -74.0 62.05 -73.6 62.25 -73.25 62.25 -72.5 62.25 -72.15 63.0 -71.0 Q64.0 -69.0 64.6 -66.9 62.5 -66.5 61.25 -64.9 L61.25 -62.65 Q61.3 -59.05 62.75 -55.9 L55.5 -55.15 Q51.15 -54.6 48.6 -51.15 L48.0 -51.3 47.75 -51.5 47.6 -51.9 47.5 -52.25 Q41.35 -58.25 37.1 -51.25 L36.5 -51.25 36.25 -51.4 Q33.05 -56.15 28.25 -54.5 L28.2 -53.75 28.1 -53.4 27.75 -53.0 27.7 -52.25 Q27.65 -51.3 27.85 -50.4 L33.1 -45.9 32.8 -45.45 31.25 -42.9 31.25 -42.15 31.35 -41.4 38.0 -36.25 34.25 -32.9 34.25 -32.15 34.35 -31.4 Q38.45 -28.9 41.85 -25.65 38.35 -23.9 35.75 -21.5 L35.7 -20.75 Q35.6 -19.9 36.0 -19.25 39.35 -17.45 41.75 -14.75 L41.75 -14.0 41.6 -12.9 Q39.0 -12.25 36.5 -11.25 L36.3 -10.5 Q36.15 -9.95 36.35 -9.4 42.0 -6.2 45.75 -1.4 45.35 -1.05 45.0 -1.1 41.45 -1.25 39.75 1.25 L39.75 3.5 39.75 9.85 39.5 10.25 39.25 10.6 39.1 11.7 Q38.55 12.95 38.75 14.35 L38.45 14.7 Q37.65 15.35 37.25 16.25 L37.25 17.0 37.25 17.35 35.85 16.6 Q33.5 13.85 30.45 11.5 24.05 6.65 19.25 12.5 L19.2 13.25 19.1 13.6 18.8 14.0 Q18.4 14.55 18.0 14.75 L16.5 13.6 Q15.4 12.3 13.9 11.4 7.75 7.75 4.75 14.5 L4.7 14.85 4.6 15.25 4.15 15.65 3.75 16.0 3.55 17.05 Q3.2 17.95 3.1 19.0 L2.85 19.35 2.25 20.1 2.2 20.85 2.1 21.6 1.75 22.0 1.35 22.35 1.15 23.05 0.75 23.5 0.5 23.1 0.1 22.0 -1.0 20.35 Q-4.5 14.4 -11.0 13.25 -14.45 14.1 -17.65 15.5 L-17.8 14.1 Q-17.65 12.05 -17.9 10.0 -20.6 7.3 -24.35 6.2 -29.25 4.75 -32.75 3.0 -31.45 2.8 -30.75 1.75 L-30.85 1.05 Q-32.55 -3.7 -37.0 -6.9 L-37.25 -7.25 Q-38.1 -8.25 -38.75 -9.5 -34.4 -10.3 -30.75 -11.75 L-30.75 -13.65 -30.75 -18.5 -30.5 -18.9 -30.15 -19.65 Q-26.1 -20.35 -22.75 -21.75 L-23.0 -23.55 Q-24.4 -27.95 -27.75 -31.5 -20.75 -31.75 -13.65 -31.65 -13.45 -32.0 -13.4 -32.4 L-13.25 -34.25 -13.95 -35.35 Q-14.65 -37.05 -14.0 -38.75 -9.4 -40.55 -4.25 -41.0 L-3.9 -41.65 -3.75 -42.0 -9.65 -48.0 Q-9.7 -48.65 -10.05 -49.1 -11.7 -51.35 -12.25 -54.0 -8.8 -56.05 -5.0 -57.75 -4.75 -58.3 -4.75 -58.9 L-4.75 -60.75 -13.75 -66.65 -13.7 -67.0 -13.25 -67.75 -13.25 -68.15 -13.25 -68.5 -13.05 -68.9 Q-12.6 -69.9 -11.75 -70.75 L-11.75 -71.9 -11.75 -73.75 Q-12.25 -74.6 -13.15 -74.9 -16.9 -76.2 -18.0 -78.4 L-10.75 -83.25 -10.75 -84.4 -10.75 -86.25 -11.5 -87.4 -14.9 -93.0 -15.15 -93.35 Q-16.1 -94.2 -16.0 -95.25 -15.2 -96.1 -14.0 -96.25 -6.85 -97.0 -9.4 -103.5 -10.4 -105.4 -12.25 -106.5 L-10.5 -106.9 0.0 -111.25 0.2 -112.0 0.25 -112.75 0.0 -113.15 -2.65 -116.9 -2.75 -117.25 -2.9 -118.0 Q-5.05 -119.7 -6.25 -122.15 -4.9 -123.2 -2.5 -123.0 1.3 -122.7 2.7 -125.5 4.4 -128.85 3.75 -133.0 L5.6 -132.55 7.35 -131.95 Q9.85 -131.4 11.95 -132.4 17.6 -135.1 21.5 -140.4" fill="#ffcc00" fill-opacity="0.5019608" fill-rule="evenodd" stroke="none"/>
  </g>
</svg>
