<?xml version="1.0" encoding="UTF-8" standalone="no"?>
<svg xmlns:ffdec="https://www.free-decompiler.com/flash" xmlns:xlink="http://www.w3.org/1999/xlink" ffdec:objectType="shape" height="129.85px" width="91.0px" xmlns="http://www.w3.org/2000/svg">
  <g transform="matrix(1.0, 0.0, 0.0, 1.0, 26.55, 125.1)">
    <path d="M8.9 -121.65 Q12.35 -125.1 17.25 -125.1 22.15 -125.1 25.6 -121.65 29.05 -118.2 29.05 -113.3 29.05 -108.4 25.6 -104.95 22.2 -101.55 17.45 -101.5 L17.55 -101.3 15.25 -101.3 Q19.75 -97.95 24.85 -95.45 30.8 -92.5 37.5 -94.9 45.0 -97.55 52.95 -97.05 58.7 -96.7 63.4 -93.75 64.65 -93.0 64.4 -91.4 64.0 -89.0 61.6 -88.7 L54.3 -89.9 Q51.25 -86.7 46.55 -90.25 L46.55 -90.35 Q38.1 -90.25 29.7 -88.0 24.65 -86.65 20.35 -90.1 18.55 -91.5 16.45 -92.4 13.75 -93.55 12.2 -95.4 10.65 -85.35 10.4 -75.0 L10.4 -74.75 Q13.85 -73.75 17.5 -73.45 L34.4 -72.9 Q34.9 -73.9 36.0 -74.2 L36.9 -74.45 36.95 -74.5 37.9 -75.6 38.3 -75.75 39.25 -75.9 39.25 -76.0 Q41.7 -75.65 42.1 -73.3 L42.15 -72.9 Q47.05 -71.6 52.05 -70.65 52.45 -70.6 52.65 -70.0 L52.9 -68.85 Q52.3 -66.65 50.05 -66.15 43.1 -64.75 37.9 -67.6 L36.15 -67.15 Q22.7 -65.25 10.05 -68.2 9.65 -64.1 8.9 -60.1 L7.6 -54.1 7.7 -54.05 Q8.35 -51.95 10.4 -50.85 L11.15 -50.0 Q21.05 -41.5 25.5 -29.6 25.75 -28.85 25.35 -28.0 19.95 -17.05 17.5 -5.15 L26.15 -4.9 Q29.0 -4.7 29.05 -1.9 28.45 0.35 26.25 0.85 17.95 2.8 11.15 -0.15 11.15 -12.0 16.0 -22.85 L19.45 -30.2 Q15.3 -36.85 9.8 -42.3 8.85 -43.3 8.25 -44.6 6.35 -45.2 5.45 -46.85 L5.2 -46.95 Q5.9 -33.1 3.2 -19.95 2.95 -18.7 1.65 -18.2 -9.75 -13.9 -18.85 -5.95 -14.65 -2.15 -8.15 0.3 -7.1 0.65 -7.1 1.95 -10.65 6.75 -17.15 3.35 -22.0 0.8 -25.95 -2.75 -26.9 -3.65 -26.4 -5.0 -23.0 -13.45 -14.25 -17.65 L-1.55 -23.85 Q-0.15 -34.6 -0.55 -45.8 L-0.4 -55.0 Q0.2 -56.15 1.35 -56.5 L2.3 -56.75 2.65 -56.7 Q3.55 -63.2 4.05 -69.9 0.1 -71.25 -2.7 -74.25 -2.95 -80.6 0.15 -86.3 L0.95 -87.55 Q0.8 -89.75 2.15 -91.55 L3.1 -92.75 7.05 -103.0 7.2 -103.3 7.7 -106.35 Q5.45 -109.35 5.45 -113.3 5.45 -118.2 8.9 -121.65 M4.7 -80.7 L3.65 -77.55 4.45 -77.1 4.7 -80.7" fill="#000000" fill-rule="evenodd" stroke="none"/>
  </g>
</svg>
