<?xml version="1.0" encoding="UTF-8" standalone="no"?>
<svg xmlns:ffdec="https://www.free-decompiler.com/flash" xmlns:xlink="http://www.w3.org/1999/xlink" ffdec:objectType="shape" height="164.9px" width="112.05px" xmlns="http://www.w3.org/2000/svg">
  <g transform="matrix(1.0, 0.0, 0.0, 1.0, 41.8, 141.8)">
    <path d="M20.75 -132.15 Q23.45 -133.85 26.6 -133.75 L26.85 -132.2 27.35 -125.9 27.75 -125.65 37.25 -125.0 Q35.05 -122.75 33.35 -120.15 L33.25 -119.75 33.25 -119.4 30.75 -116.4 30.75 -115.65 30.85 -114.9 Q32.65 -113.7 34.85 -113.9 35.3 -113.4 35.3 -112.75 35.15 -109.55 35.35 -106.4 L36.35 -106.2 Q39.85 -107.4 43.5 -109.4 L43.9 -109.6 44.6 -110.0 Q45.6 -107.6 47.95 -108.8 L55.25 -112.5 58.75 -112.75 59.0 -111.9 58.9 -111.7 59.0 -111.7 59.0 -111.6 59.35 -106.4 69.75 -106.0 69.35 -105.65 Q65.55 -102.15 65.85 -97.4 68.75 -95.5 70.25 -92.5 L69.65 -92.0 Q63.7 -90.05 60.25 -85.25 L60.25 -84.15 60.25 -80.0 Q59.6 -80.15 59.1 -80.45 53.85 -83.4 49.25 -80.5 L49.15 -79.35 Q48.65 -76.25 48.6 -73.0 L42.0 -72.45 Q40.75 -72.3 40.25 -71.25 L40.25 -70.5 40.25 -68.65 Q41.95 -67.15 42.6 -65.25 36.5 -64.3 31.75 -60.9 L31.75 -60.15 31.75 -58.65 32.05 -58.3 Q32.8 -57.6 32.6 -56.75 29.65 -55.45 27.25 -53.4 L27.25 -52.65 27.25 -51.5 32.25 -46.25 32.05 -45.95 Q29.1 -43.45 29.35 -39.9 34.4 -37.35 37.75 -33.0 L37.45 -32.65 36.75 -31.9 Q34.85 -28.55 31.75 -25.9 L31.75 -25.15 31.85 -24.4 38.6 -19.15 Q39.3 -17.7 40.85 -16.9 36.45 -16.0 34.25 -13.25 38.75 -10.1 42.25 -5.75 L42.05 -5.4 41.75 -5.0 Q39.25 -5.55 37.5 -4.25 L37.35 -3.85 Q36.8 -0.4 39.0 2.1 39.65 4.0 41.1 5.5 L28.75 5.0 28.5 5.25 Q26.1 7.55 25.6 10.85 L24.25 12.0 24.25 12.35 24.25 13.1 23.8 13.55 23.25 14.25 23.15 14.6 Q20.8 19.6 17.85 23.1 17.8 19.25 16.3 15.8 14.45 11.35 10.25 11.5 7.85 15.0 4.6 17.75 L4.0 17.75 Q1.95 14.95 -0.5 12.65 L-1.75 12.6 Q-7.55 18.5 -15.5 19.0 L-15.8 18.4 Q-16.45 17.15 -16.25 15.75 -24.25 10.75 -33.5 8.25 -31.55 6.8 -29.75 4.6 -32.15 0.2 -36.8 -2.4 -42.25 -5.35 -41.75 -11.15 L-41.4 -11.5 -34.05 -12.1 Q-33.5 -12.15 -33.3 -12.7 -31.25 -18.0 -33.75 -23.5 -29.35 -22.0 -25.15 -22.15 -24.7 -22.6 -24.65 -23.25 -24.55 -26.6 -25.75 -29.65 -20.8 -30.1 -16.5 -32.25 L-16.4 -32.65 Q-16.0 -36.15 -18.75 -38.65 L-18.75 -39.0 -18.75 -39.75 -19.0 -40.1 -19.65 -40.9 -19.85 -41.6 Q-20.15 -42.2 -20.0 -42.75 -16.7 -44.2 -13.65 -46.15 L-13.4 -46.5 -12.4 -48.0 -12.3 -48.75 -12.25 -51.75 Q-14.4 -53.15 -16.75 -53.65 L-16.65 -53.95 Q-14.55 -57.1 -13.25 -60.75 L-13.15 -61.45 Q-12.5 -63.25 -12.75 -65.25 -13.05 -65.65 -13.4 -65.65 -19.4 -66.0 -24.75 -67.75 L-24.5 -68.4 Q-23.8 -69.3 -23.75 -70.4 L-23.5 -70.75 -22.9 -71.5 Q-21.4 -75.35 -17.75 -77.25 L-17.85 -78.35 Q-18.5 -83.4 -20.65 -88.15 L-19.45 -88.55 -14.0 -89.4 Q-12.8 -89.55 -12.25 -90.75 L-12.25 -91.5 -12.25 -92.25 -12.5 -92.65 -12.75 -93.0 -12.8 -93.75 -12.9 -94.5 Q-16.05 -98.5 -18.15 -103.15 -11.35 -104.95 -5.0 -107.75 L-4.65 -108.45 Q-4.25 -109.0 -4.25 -109.65 L-4.45 -109.95 Q-5.45 -111.0 -6.0 -112.25 L-6.45 -112.65 -7.0 -113.75 -8.25 -114.5 Q-9.15 -116.25 -10.75 -117.5 L-10.75 -118.65 -10.75 -121.65 -10.4 -122.0 Q-7.85 -122.05 -5.5 -122.9 L-5.15 -123.15 -4.9 -123.5 Q-2.6 -123.6 -1.4 -125.5 L-1.05 -126.6 Q0.1 -130.0 -0.25 -133.75 2.95 -131.0 6.85 -131.65 L7.3 -132.35 Q8.25 -133.55 8.25 -135.0 L8.55 -135.4 Q9.85 -137.9 10.5 -140.65 L11.05 -141.05 11.75 -141.75 11.75 -141.8 12.1 -141.65 12.25 -141.15 12.5 -140.8 Q13.25 -139.95 13.35 -138.9 L13.7 -138.5 14.25 -137.75 14.25 -137.4 14.25 -137.0 14.6 -136.6 16.25 -134.0 16.0 -133.25 15.75 -132.5 Q18.05 -128.85 20.75 -132.15" fill="#ffec00" fill-rule="evenodd" stroke="none"/>
  </g>
</svg>
