<?xml version="1.0" encoding="UTF-8" standalone="no"?>
<svg xmlns:ffdec="https://www.free-decompiler.com/flash" xmlns:xlink="http://www.w3.org/1999/xlink" ffdec:objectType="shape" height="129.85px" width="85.05px" xmlns="http://www.w3.org/2000/svg">
  <g transform="matrix(1.0, 0.0, 0.0, 1.0, 27.5, 125.8)">
    <path d="M5.1 -122.35 Q8.55 -125.8 13.45 -125.8 18.35 -125.8 21.8 -122.35 25.25 -118.9 25.25 -114.0 25.25 -109.1 21.8 -105.65 18.85 -102.7 14.8 -102.25 L16.35 -100.15 Q16.55 -99.75 16.95 -99.45 17.75 -97.5 19.45 -96.0 L20.8 -94.85 23.65 -90.1 24.45 -88.5 25.25 -87.95 26.0 -87.55 Q35.95 -95.5 47.7 -100.65 55.3 -104.0 57.55 -98.1 54.9 -93.45 48.7 -93.3 47.8 -93.3 46.95 -92.75 46.4 -92.4 45.85 -92.15 L45.95 -91.75 46.0 -91.2 Q44.05 -87.0 40.5 -90.15 33.0 -85.05 26.25 -79.5 L24.45 -79.6 Q21.5 -81.7 19.5 -84.75 L14.9 -91.25 13.8 -83.45 12.55 -76.6 Q17.9 -76.4 23.45 -76.35 27.7 -80.75 29.8 -75.0 L29.6 -74.45 29.25 -73.85 Q32.9 -67.35 25.65 -68.0 24.45 -68.1 24.05 -69.25 L11.1 -70.65 Q9.2 -63.3 6.45 -56.15 L6.25 -55.65 Q8.95 -53.65 10.9 -50.55 L11.15 -50.0 Q21.35 -42.3 21.1 -29.8 20.9 -16.25 15.6 -4.0 20.85 -5.25 24.8 -2.15 26.55 -0.75 25.5 1.35 24.8 2.8 23.1 2.9 L10.25 1.3 Q9.5 1.2 8.85 0.6 10.1 -9.75 13.5 -19.8 L14.4 -23.0 Q17.35 -36.3 7.1 -45.2 5.85 -38.2 3.85 -31.3 2.0 -24.65 -2.55 -19.6 -8.65 -12.9 -15.6 -7.1 L-18.3 -4.45 Q-12.65 -3.25 -7.75 -0.15 -7.1 0.3 -7.1 1.2 -10.95 6.05 -18.0 2.7 -20.0 1.75 -22.35 1.4 -25.2 0.9 -27.35 -0.95 L-27.5 -2.1 -27.5 -2.65 -27.05 -3.85 Q-25.75 -8.7 -20.3 -11.5 -18.85 -12.2 -17.5 -13.25 -10.3 -18.9 -4.45 -25.95 L-4.45 -27.1 Q-4.55 -28.0 -4.25 -28.85 1.3 -40.1 1.05 -53.1 L1.05 -53.35 0.4 -54.05 Q-0.45 -62.5 4.1 -69.6 L4.6 -70.2 4.9 -71.15 -9.8 -71.9 Q-10.5 -71.95 -11.15 -72.5 L-11.3 -73.7 -11.35 -75.4 Q-9.45 -78.65 -5.95 -80.05 0.3 -90.5 7.35 -100.4 L7.3 -100.45 7.15 -101.0 7.15 -101.6 7.2 -102.0 5.9 -102.0 5.95 -102.25 6.05 -102.85 6.55 -104.4 5.1 -105.65 Q1.65 -109.1 1.65 -114.0 1.65 -118.9 5.1 -122.35 M8.45 -90.85 Q3.85 -84.35 0.4 -77.15 L6.4 -76.85 Q8.0 -83.75 8.5 -90.85 L8.45 -90.85" fill="#000000" fill-rule="evenodd" stroke="none"/>
  </g>
</svg>
