<?xml version="1.0" encoding="UTF-8" standalone="no"?>
<svg xmlns:ffdec="https://www.free-decompiler.com/flash" xmlns:xlink="http://www.w3.org/1999/xlink" ffdec:objectType="shape" height="128.15px" width="70.95px" xmlns="http://www.w3.org/2000/svg">
  <g transform="matrix(1.0, 0.0, 0.0, 1.0, 26.9, 126.05)">
    <path d="M6.1 -122.6 Q9.55 -126.05 14.45 -126.05 19.35 -126.05 22.8 -122.6 25.05 -120.35 25.85 -117.55 26.25 -116.0 26.25 -114.25 26.25 -109.35 22.8 -105.9 21.25 -104.35 19.45 -103.5 L18.65 -103.15 17.9 -102.9 16.1 -102.55 13.95 -102.75 Q16.35 -101.5 15.4 -98.05 L15.35 -97.25 15.9 -88.55 16.65 -89.15 26.15 -96.4 Q25.85 -101.2 30.4 -100.35 31.6 -100.15 31.9 -99.0 37.15 -97.05 33.4 -92.55 32.0 -90.9 29.8 -91.6 L16.25 -81.8 16.35 -79.35 Q27.0 -81.05 37.0 -85.3 37.6 -90.55 42.65 -88.6 43.8 -88.15 44.0 -86.85 44.65 -81.6 39.35 -79.7 32.4 -77.2 25.3 -75.1 L23.0 -74.45 Q18.2 -73.15 13.4 -72.45 11.8 -72.25 11.15 -73.7 L10.9 -74.4 Q10.55 -70.05 9.0 -65.9 8.15 -63.6 7.7 -61.15 L7.45 -58.75 7.25 -57.2 6.9 -56.1 Q7.9 -55.0 8.6 -53.5 L9.4 -52.15 Q16.05 -43.35 21.7 -33.9 22.9 -31.85 23.6 -29.65 25.05 -24.95 20.85 -22.2 19.35 -21.25 18.5 -19.7 17.2 -17.4 15.55 -15.3 L10.35 -6.3 9.4 -5.0 22.0 -4.25 Q22.4 -4.2 22.7 -3.85 25.85 0.1 21.05 1.45 L19.9 1.45 19.4 1.25 Q11.05 1.5 2.9 0.15 L2.4 -0.25 Q0.8 -3.9 3.3 -7.2 5.85 -10.45 7.85 -14.1 11.9 -21.6 17.65 -27.9 13.3 -37.1 7.05 -45.3 L4.5 -48.7 Q3.9 -46.65 3.95 -44.45 4.2 -34.25 2.05 -24.55 1.8 -23.3 0.8 -22.4 -3.8 -18.1 -8.95 -14.8 -12.55 -12.1 -15.3 -8.65 L-15.85 -8.95 -19.45 -4.6 Q-12.4 -4.95 -6.2 -2.45 -5.45 -2.2 -5.35 -1.3 -5.0 1.65 -8.1 1.95 -11.3 2.25 -14.4 1.85 L-21.0 1.4 Q-26.5 1.45 -26.9 -3.35 -26.95 -4.5 -26.3 -5.45 L-20.85 -13.25 Q-19.5 -15.25 -17.35 -15.55 L-16.6 -15.45 Q-12.9 -19.45 -8.45 -22.65 -6.15 -24.25 -4.25 -26.35 -2.6 -28.2 -2.65 -30.75 L-2.55 -32.2 Q-1.5 -39.3 -1.9 -46.65 -2.25 -51.8 1.0 -55.1 L1.1 -55.6 Q0.7 -56.3 0.75 -57.2 L1.0 -58.65 1.45 -60.9 Q1.6 -62.2 2.5 -63.2 2.65 -68.3 4.5 -73.1 L4.75 -73.8 1.25 -71.45 Q0.25 -70.8 -0.75 -71.45 -3.7 -73.45 -1.85 -76.45 L0.7 -86.25 Q1.9 -90.95 4.0 -95.4 5.55 -98.6 6.75 -101.95 L7.6 -103.9 7.75 -104.15 7.4 -104.25 7.55 -104.65 6.1 -105.9 5.15 -106.95 4.55 -107.8 Q2.65 -110.65 2.65 -114.25 2.65 -119.15 6.1 -122.6 M6.25 -82.5 L6.85 -87.35 Q6.3 -85.75 6.05 -84.05 5.85 -83.2 5.95 -82.35 L6.25 -82.5" fill="#000000" fill-rule="evenodd" stroke="none"/>
  </g>
</svg>
