<?xml version="1.0" encoding="UTF-8" standalone="no"?>
<svg xmlns:ffdec="https://www.free-decompiler.com/flash" xmlns:xlink="http://www.w3.org/1999/xlink" ffdec:objectType="shape" height="128.15px" width="67.0px" xmlns="http://www.w3.org/2000/svg">
  <g transform="matrix(1.0, 0.0, 0.0, 1.0, 26.9, 126.05)">
    <path d="M4.5 -122.6 Q7.95 -126.05 12.85 -126.05 17.75 -126.05 21.2 -122.6 23.45 -120.35 24.25 -117.55 24.65 -116.0 24.65 -114.25 24.65 -109.35 21.2 -105.9 L20.65 -105.35 Q19.7 -104.95 19.05 -104.35 L13.55 -103.85 13.65 -103.8 18.65 -104.1 Q17.2 -103.7 16.55 -102.6 L16.1 -102.55 15.85 -102.55 Q17.4 -100.95 16.85 -97.7 L16.6 -96.55 19.0 -90.5 Q20.4 -88.5 21.05 -86.15 21.2 -85.7 21.7 -85.5 25.75 -91.0 28.95 -96.95 29.1 -99.45 28.55 -101.95 28.2 -103.55 29.75 -104.35 31.85 -105.45 33.45 -103.7 L33.95 -103.7 Q37.2 -107.55 39.4 -103.15 39.85 -102.2 39.75 -101.0 L39.6 -100.15 Q41.4 -95.8 36.5 -95.35 35.65 -95.3 34.9 -95.7 31.15 -87.85 25.85 -81.0 27.45 -80.8 28.6 -78.85 29.3 -77.6 28.45 -76.5 26.1 -73.3 21.9 -72.95 L10.15 -72.5 9.85 -70.85 7.6 -59.85 7.1 -57.2 7.25 -57.2 7.0 -56.35 6.95 -56.05 8.6 -53.5 9.4 -52.15 Q16.05 -43.35 21.7 -33.9 22.9 -31.85 23.6 -29.65 25.05 -24.95 20.85 -22.2 19.35 -21.25 18.5 -19.7 17.2 -17.4 15.55 -15.3 L10.35 -6.3 9.4 -5.0 22.0 -4.25 Q22.4 -4.2 22.7 -3.85 25.85 0.1 21.05 1.45 L19.9 1.45 19.4 1.25 Q11.05 1.5 2.9 0.15 L2.4 -0.25 Q0.8 -3.9 3.3 -7.2 5.85 -10.45 7.85 -14.1 11.9 -21.6 17.65 -27.9 13.3 -37.1 7.05 -45.3 L4.5 -48.7 Q3.9 -46.65 3.95 -44.45 4.2 -34.25 2.05 -24.55 1.8 -23.3 0.8 -22.4 -3.8 -18.1 -8.95 -14.8 -12.55 -12.1 -15.3 -8.65 L-15.85 -8.95 -19.45 -4.6 Q-12.4 -4.95 -6.2 -2.45 -5.45 -2.2 -5.35 -1.3 -5.0 1.65 -8.1 1.95 -11.3 2.25 -14.4 1.85 L-21.0 1.4 Q-26.5 1.45 -26.9 -3.35 -26.95 -4.5 -26.3 -5.45 L-20.85 -13.25 Q-19.5 -15.25 -17.35 -15.55 L-16.6 -15.45 Q-12.9 -19.45 -8.45 -22.65 -6.15 -24.25 -4.25 -26.35 -2.6 -28.2 -2.65 -30.75 L-2.55 -32.2 Q-1.5 -39.3 -1.9 -46.65 -2.25 -51.8 1.0 -55.1 L1.1 -55.6 Q0.7 -56.3 0.75 -57.2 L1.25 -57.2 Q1.75 -61.95 3.1 -66.5 L4.6 -72.55 1.05 -72.7 Q0.2 -72.7 -0.3 -73.4 -2.25 -75.95 -0.7 -79.15 1.15 -83.0 2.45 -87.05 L3.95 -91.0 Q4.9 -93.2 5.35 -95.55 5.55 -96.55 6.25 -97.25 6.25 -98.75 6.8 -100.15 L7.35 -101.05 7.5 -101.3 7.5 -102.0 Q7.6 -103.1 8.05 -103.9 L6.4 -104.05 5.8 -104.25 5.95 -104.65 4.5 -105.9 3.55 -106.95 2.95 -107.8 Q1.05 -110.65 1.05 -114.25 1.05 -119.15 4.5 -122.6 M13.55 -78.45 L18.65 -78.85 18.45 -79.05 Q16.5 -81.4 15.15 -84.2 14.7 -85.2 14.8 -86.4 L13.2 -89.45 11.25 -78.35 13.55 -78.45" fill="#000000" fill-rule="evenodd" stroke="none"/>
  </g>
</svg>
