<?xml version="1.0" encoding="UTF-8" standalone="no"?>
<svg xmlns:ffdec="https://www.free-decompiler.com/flash" xmlns:xlink="http://www.w3.org/1999/xlink" ffdec:objectType="shape" height="101.5px" width="460.0px" xmlns="http://www.w3.org/2000/svg">
  <g transform="matrix(1.0, 0.0, 0.0, 1.0, -2.95, 43.75)">
    <path d="M2.95 -7.45 L39.65 -14.75 3.05 -21.95 39.75 -29.2 3.05 -36.45 39.75 -43.75 462.45 -43.75 462.3 -43.7 462.95 -43.6 462.95 -29.35 462.3 -29.2 462.95 -29.1 462.95 -14.85 462.3 -14.7 462.95 -14.6 462.95 -0.35 462.4 -0.25 462.95 -0.1 462.95 14.15 462.3 14.25 462.95 14.4 462.95 28.65 462.3 28.75 462.95 28.9 462.95 43.1 462.2 43.25 462.95 43.4 462.95 57.6 462.2 57.75 39.65 57.75 2.95 50.5 39.6 43.25 2.95 36.05 39.65 28.8 2.95 21.55 39.6 14.3 2.95 7.05 39.65 -0.2 2.95 -7.45" fill="#ffffff" fill-rule="evenodd" stroke="none"/>
  </g>
</svg>
