<?xml version="1.0" encoding="UTF-8" standalone="no"?>
<svg xmlns:ffdec="https://www.free-decompiler.com/flash" xmlns:xlink="http://www.w3.org/1999/xlink" ffdec:objectType="shape" height="155.6px" width="100.4px" xmlns="http://www.w3.org/2000/svg">
  <g transform="matrix(1.0, 0.0, 0.0, 1.0, 42.55, 140.55)">
    <path d="M27.95 -127.65 L28.85 -127.2 Q31.45 -128.75 33.35 -131.1 L33.2 -127.35 33.35 -120.75 35.1 -119.65 35.2 -119.4 35.85 -118.5 35.95 -117.95 35.85 -116.5 35.55 -116.2 35.55 -115.9 35.45 -115.65 34.8 -115.05 29.4 -109.55 29.4 -108.7 29.4 -106.95 29.8 -106.4 29.65 -106.1 29.0 -104.95 29.0 -104.65 28.85 -104.1 26.7 -102.65 26.7 -102.35 26.7 -102.05 26.35 -101.5 26.3 -101.2 Q26.25 -100.75 26.45 -100.35 30.7 -95.85 36.9 -95.4 L38.1 -95.65 Q42.55 -98.0 46.7 -100.85 49.15 -102.55 50.95 -103.3 L51.05 -101.85 Q51.4 -98.45 52.55 -95.25 53.05 -93.9 54.3 -93.65 L57.85 -93.1 Q56.8 -88.95 53.15 -86.25 48.9 -83.1 48.65 -78.2 L48.45 -77.9 48.15 -77.35 42.3 -76.85 41.7 -76.55 41.75 -76.3 41.6 -75.4 40.95 -74.55 41.0 -72.2 Q40.85 -69.6 39.6 -67.35 L38.85 -67.35 38.1 -67.9 36.5 -67.75 Q32.8 -65.3 30.45 -61.15 L29.8 -61.15 Q25.45 -63.9 21.35 -60.4 L21.3 -59.85 21.4 -58.4 22.75 -56.95 22.85 -56.65 22.95 -56.05 25.1 -53.45 25.3 -52.25 26.35 -48.55 25.95 -48.0 25.95 -47.1 Q25.85 -45.8 26.05 -44.55 L26.9 -43.85 Q27.95 -42.75 29.15 -41.8 34.2 -37.75 38.45 -33.55 L36.25 -31.9 Q33.75 -31.9 32.1 -30.0 L32.1 -29.4 32.1 -27.7 32.35 -27.35 33.25 -25.95 33.25 -24.5 33.15 -21.05 32.85 -20.75 Q30.7 -21.2 29.4 -19.6 L29.35 -19.05 Q29.3 -18.4 29.6 -17.85 L31.1 -16.2 Q32.65 -13.85 31.9 -11.25 L31.5 -10.95 Q30.85 -10.55 30.95 -9.8 L33.8 -6.75 Q37.45 -3.05 38.75 1.75 37.2 2.6 35.95 3.95 L35.4 5.85 Q34.6 7.8 34.8 10.05 L29.0 8.95 Q27.95 8.7 27.05 8.15 20.85 4.7 16.05 9.15 L15.95 9.45 15.75 10.05 Q14.1 11.6 12.85 13.5 L11.9 13.6 Q10.85 12.9 9.65 12.55 8.25 12.15 7.05 11.25 1.85 7.4 -2.55 12.0 -5.95 15.6 -10.5 14.95 L-10.6 14.65 -10.8 14.05 -11.65 13.5 -12.3 12.2 Q-12.65 11.55 -13.45 11.45 -16.3 11.1 -19.15 11.55 L-33.3 13.7 -33.3 12.25 -33.4 8.5 -33.9 7.95 Q-37.9 4.8 -42.55 3.85 L-41.1 2.15 -40.15 0.65 Q-39.45 -0.4 -38.3 -1.0 -33.45 -3.5 -33.8 -8.45 L-34.45 -9.4 Q-35.85 -11.45 -36.75 -13.65 L-36.6 -13.9 Q-36.0 -14.5 -35.9 -15.35 L-25.1 -16.25 -24.95 -16.85 Q-24.7 -18.55 -26.1 -19.7 L-26.4 -21.8 Q-27.1 -25.05 -29.45 -27.5 L-29.45 -27.8 Q-29.35 -28.45 -29.65 -28.95 L-17.35 -29.8 Q-15.65 -29.95 -14.55 -31.25 L-14.5 -33.55 Q-14.75 -36.65 -16.75 -39.05 L-16.8 -39.6 Q-17.0 -40.4 -17.55 -41.05 L-17.55 -41.35 -17.55 -41.95 -11.6 -42.5 Q-10.95 -42.6 -10.6 -43.25 L-10.55 -43.85 Q-10.35 -45.2 -11.25 -46.15 -11.35 -46.9 -11.7 -47.45 -12.9 -49.6 -13.3 -51.95 -9.7 -51.65 -7.5 -54.05 -7.4 -55.55 -8.15 -56.85 -9.85 -59.95 -11.2 -63.3 -9.8 -64.3 -8.7 -65.6 L-8.7 -66.15 -8.7 -67.9 -11.0 -70.5 -11.05 -70.75 Q-12.3 -72.25 -12.8 -73.95 -9.9 -75.1 -7.6 -77.35 L-7.55 -77.65 Q-7.4 -78.3 -7.8 -78.8 -8.45 -79.05 -8.9 -79.5 -12.8 -83.35 -16.35 -87.45 L-15.05 -88.05 -14.05 -88.4 Q-9.75 -89.25 -6.45 -91.6 -6.25 -92.15 -6.55 -92.65 -8.2 -95.15 -10.0 -97.15 L-9.2 -97.5 Q-5.1 -98.55 -1.2 -99.85 L-1.1 -100.15 -1.0 -101.0 Q-1.3 -101.6 -1.95 -101.8 L-2.25 -101.6 Q-2.8 -101.15 -3.4 -101.3 -4.4 -101.9 -5.5 -102.25 -7.4 -105.2 -10.95 -106.7 -12.65 -107.4 -13.1 -108.3 L-12.1 -109.45 -8.7 -114.1 -8.75 -114.95 Q-8.9 -116.3 -9.65 -117.55 -10.8 -118.3 -11.35 -119.5 -12.4 -121.9 -12.15 -124.5 L-11.95 -124.75 -10.2 -127.1 Q-7.7 -128.0 -5.6 -129.5 L-5.6 -130.05 -5.6 -131.8 -5.8 -132.05 -7.15 -133.8 Q-6.5 -134.65 -5.2 -134.95 -0.35 -135.95 3.65 -138.9 8.35 -139.25 12.5 -137.1 12.75 -136.5 13.4 -136.55 16.7 -137.05 18.35 -140.45 L18.45 -140.5 18.9 -140.55 22.8 -136.15 Q26.05 -132.25 27.95 -127.65" fill="#ffff00" fill-opacity="0.5019608" fill-rule="evenodd" stroke="none"/>
  </g>
</svg>
