<?xml version="1.0" encoding="UTF-8" standalone="no"?>
<svg xmlns:ffdec="https://www.free-decompiler.com/flash" xmlns:xlink="http://www.w3.org/1999/xlink" ffdec:objectType="shape" height="128.15px" width="73.45px" xmlns="http://www.w3.org/2000/svg">
  <g transform="matrix(1.0, 0.0, 0.0, 1.0, 26.9, 126.05)">
    <path d="M1.95 -106.95 L1.35 -107.8 Q-0.55 -110.65 -0.55 -114.25 -0.55 -119.15 2.9 -122.6 6.35 -126.05 11.25 -126.05 16.15 -126.05 19.6 -122.6 21.85 -120.35 22.65 -117.55 23.05 -116.0 23.05 -114.25 23.05 -109.35 19.6 -105.9 18.05 -104.35 16.25 -103.5 L15.45 -103.15 15.15 -103.15 15.2 -101.25 15.15 -100.15 15.55 -86.4 Q24.75 -87.15 34.0 -89.1 36.35 -89.6 38.1 -91.35 L38.25 -91.45 38.85 -92.35 Q39.65 -93.3 40.75 -93.3 43.0 -92.55 43.4 -91.3 L43.85 -91.4 Q48.45 -89.8 45.25 -86.4 44.65 -85.75 43.95 -85.75 43.45 -84.9 42.65 -84.4 L41.4 -82.55 Q40.3 -81.4 38.85 -82.25 37.85 -82.85 37.45 -83.55 L37.0 -83.5 22.7 -80.75 11.0 -81.15 10.25 -78.4 Q14.9 -76.85 20.25 -76.65 L24.1 -76.35 Q28.6 -79.45 31.25 -75.05 31.9 -73.95 31.6 -72.6 31.1 -70.45 28.85 -70.4 18.3 -70.15 8.5 -73.1 L8.2 -72.25 Q5.5 -65.0 5.0 -57.2 L7.25 -57.2 6.9 -56.1 Q7.9 -55.0 8.6 -53.5 L9.4 -52.15 Q16.05 -43.35 21.7 -33.9 22.9 -31.85 23.6 -29.65 25.05 -24.95 20.85 -22.2 19.35 -21.25 18.5 -19.7 17.2 -17.4 15.55 -15.3 L10.35 -6.3 9.4 -5.0 22.0 -4.25 Q22.4 -4.2 22.7 -3.85 25.85 0.1 21.05 1.45 L19.9 1.45 19.4 1.25 Q11.05 1.5 2.9 0.15 L2.4 -0.25 Q0.8 -3.9 3.3 -7.2 5.85 -10.45 7.85 -14.1 11.9 -21.6 17.65 -27.9 13.3 -37.1 7.05 -45.3 L4.5 -48.7 Q3.9 -46.65 3.95 -44.45 4.2 -34.25 2.05 -24.55 1.8 -23.3 0.8 -22.4 -3.8 -18.1 -8.95 -14.8 -12.55 -12.1 -15.3 -8.65 L-15.85 -8.95 -19.45 -4.6 Q-12.4 -4.95 -6.2 -2.45 -5.45 -2.2 -5.35 -1.3 -5.0 1.65 -8.1 1.95 -11.3 2.25 -14.4 1.85 L-21.0 1.4 Q-26.5 1.45 -26.9 -3.35 -26.95 -4.5 -26.3 -5.45 L-20.85 -13.25 Q-19.5 -15.25 -17.35 -15.55 L-16.6 -15.45 Q-12.9 -19.45 -8.45 -22.65 -6.15 -24.25 -4.25 -26.35 -2.6 -28.2 -2.65 -30.75 L-2.55 -32.2 Q-1.5 -39.3 -1.9 -46.65 -2.1 -50.15 -0.7 -52.8 L-1.05 -53.35 Q-2.0 -55.15 -1.4 -57.25 -0.3 -61.15 0.15 -65.25 0.55 -69.0 1.7 -72.6 L2.6 -75.2 2.0 -75.45 Q1.45 -75.65 1.05 -76.1 -1.15 -78.75 0.55 -82.3 L1.1 -84.15 Q1.25 -85.15 2.1 -85.9 4.6 -93.3 6.35 -100.85 L6.8 -102.7 7.15 -103.65 4.4 -103.9 4.55 -104.15 4.2 -104.25 4.35 -104.65 2.9 -105.9 1.95 -106.95" fill="#000000" fill-rule="evenodd" stroke="none"/>
  </g>
</svg>
