<?xml version="1.0" encoding="UTF-8" standalone="no"?>
<svg xmlns:ffdec="https://www.free-decompiler.com/flash" xmlns:xlink="http://www.w3.org/1999/xlink" ffdec:objectType="shape" height="141.65px" width="99.15px" xmlns="http://www.w3.org/2000/svg">
  <g transform="matrix(1.0, 0.0, 0.0, 1.0, 46.0, 129.7)">
    <path d="M-45.3 3.1 L-45.05 3.95 -46.0 3.85 -45.45 3.25 -45.3 3.1 M-44.95 -6.45 L-45.05 -6.3 -45.05 -6.5 -44.95 -6.45 M30.4 10.8 L30.4 11.4 30.4 11.95 29.45 11.6 30.4 10.8 M10.95 -128.55 L13.65 -127.8 18.1 -126.2 Q18.7 -124.5 20.25 -123.4 23.0 -121.5 26.2 -121.3 26.2 -117.75 27.95 -114.75 28.35 -114.1 29.0 -113.8 36.65 -110.3 45.4 -111.2 L47.6 -109.65 Q48.5 -108.95 49.05 -107.9 50.05 -106.05 51.5 -104.5 53.05 -102.8 53.15 -100.55 53.25 -97.7 51.8 -95.2 48.65 -90.0 50.65 -83.85 L47.3 -80.9 Q46.5 -80.3 45.55 -80.2 L34.55 -79.4 32.95 -79.15 Q25.7 -77.1 25.6 -69.55 24.35 -68.35 24.0 -66.65 23.75 -65.5 23.8 -64.35 19.7 -60.85 19.9 -55.7 19.95 -54.7 20.25 -53.75 21.95 -47.8 27.45 -44.2 26.55 -41.25 26.6 -38.15 26.65 -36.2 27.0 -34.35 L27.6 -32.2 Q28.75 -29.35 28.5 -26.35 27.7 -16.3 27.8 -6.15 27.8 -4.75 27.1 -3.7 23.95 0.95 19.4 4.25 18.35 5.0 17.2 5.4 11.5 7.4 5.35 7.1 4.2 7.05 3.15 7.55 -0.35 9.25 -4.15 9.2 L-14.75 8.5 Q-17.8 8.15 -20.75 7.2 -22.75 6.55 -24.9 6.4 -31.95 6.0 -34.35 -0.5 -32.8 -1.65 -31.65 -3.25 -29.5 -6.2 -28.5 -9.7 L-27.05 -10.45 Q-26.1 -10.75 -25.35 -11.35 L-23.55 -9.75 Q-21.7 -7.8 -19.05 -7.45 -13.0 -6.75 -12.45 -12.8 -12.4 -13.65 -12.8 -14.35 -14.4 -16.85 -16.35 -19.15 -15.0 -21.75 -16.6 -25.55 L-16.0 -26.45 Q-14.25 -29.15 -13.15 -32.2 -12.6 -33.6 -12.6 -35.05 L-8.25 -42.6 Q-7.55 -43.8 -7.6 -45.15 -7.6 -53.05 -7.95 -61.0 -8.05 -63.55 -10.35 -64.75 -14.45 -66.9 -19.1 -66.35 L-19.95 -67.7 Q-21.55 -70.25 -21.5 -73.3 L-21.5 -75.9 Q-19.2 -78.5 -17.7 -81.75 L-16.0 -85.25 Q-14.45 -88.45 -14.6 -92.0 -12.55 -92.15 -10.6 -92.85 -0.95 -96.35 -0.05 -106.4 0.5 -112.2 -3.1 -116.8 -2.95 -118.25 -3.55 -119.6 -4.15 -120.9 -4.4 -122.25 L-4.7 -124.55 -2.45 -126.1 -2.15 -126.3 -2.1 -126.3 Q3.85 -129.8 10.95 -128.55 M34.85 -129.7 L35.0 -129.7 34.95 -129.6 34.85 -129.7" fill="#ffff00" fill-opacity="0.5019608" fill-rule="evenodd" stroke="none"/>
  </g>
</svg>
