<?xml version="1.0" encoding="UTF-8" standalone="no"?>
<svg xmlns:ffdec="https://www.free-decompiler.com/flash" xmlns:xlink="http://www.w3.org/1999/xlink" ffdec:objectType="shape" height="137.95px" width="73.95px" xmlns="http://www.w3.org/2000/svg">
  <g transform="matrix(1.0, 0.0, 0.0, 1.0, 23.55, 130.85)">
    <path d="M-22.6 -41.25 L-22.9 -40.15 -23.5 -40.95 -22.6 -41.25 M14.1 -130.8 L14.35 -130.85 Q14.0 -129.35 14.1 -127.7 14.7 -120.25 22.35 -120.7 L23.55 -119.1 25.45 -114.2 Q24.95 -112.25 23.4 -110.9 L18.65 -106.8 Q15.35 -103.95 16.05 -99.5 16.8 -94.6 19.95 -90.7 21.05 -89.4 22.5 -88.55 27.2 -85.9 31.4 -89.35 36.1 -93.2 39.0 -98.5 41.5 -102.95 46.35 -102.3 L48.0 -100.9 Q51.2 -97.55 50.1 -92.8 46.55 -91.4 42.9 -90.35 L39.25 -89.15 Q37.6 -88.5 36.4 -87.2 32.05 -82.25 28.2 -76.8 26.6 -74.55 24.55 -72.85 22.5 -71.15 19.9 -71.55 15.1 -72.35 12.4 -68.55 11.6 -67.45 11.25 -66.15 8.2 -55.9 13.5 -46.45 15.75 -42.5 16.4 -38.1 16.95 -34.6 19.2 -31.75 21.25 -29.15 22.05 -25.95 24.2 -17.55 26.6 -9.05 L25.9 -8.15 Q17.95 -1.7 12.75 7.1 6.7 6.3 2.25 2.1 -2.85 -2.75 -9.25 -0.6 -10.95 0.0 -12.15 1.35 -14.7 4.35 -18.15 5.0 -19.6 3.45 -20.65 1.65 -22.2 -1.15 -22.65 -4.3 -23.8 -11.75 -23.45 -19.5 L-19.65 -23.6 Q-10.7 -31.8 -10.4 -44.0 L-10.15 -45.35 Q-8.0 -50.9 -7.95 -56.95 -7.95 -64.3 -14.4 -67.15 -16.8 -72.4 -16.15 -78.0 -15.95 -79.95 -14.95 -81.6 -10.45 -88.75 -6.45 -96.2 -4.9 -99.05 -4.3 -102.25 -2.25 -113.35 5.85 -121.6 L6.5 -122.5 Q9.3 -127.75 14.1 -130.8" fill="#ffff00" fill-opacity="0.5019608" fill-rule="evenodd" stroke="none"/>
  </g>
</svg>
