<?xml version="1.0" encoding="UTF-8" standalone="no"?>
<svg xmlns:ffdec="https://www.free-decompiler.com/flash" xmlns:xlink="http://www.w3.org/1999/xlink" ffdec:objectType="shape" height="110.5px" width="43.75px" xmlns="http://www.w3.org/2000/svg">
  <g transform="matrix(1.0, 0.0, 0.0, 1.0, 14.2, 109.95)">
    <path d="M6.55 -109.05 L8.5 -104.6 Q9.55 -101.85 9.95 -99.0 11.3 -88.75 11.05 -78.3 L11.35 -78.1 12.35 -78.2 Q18.95 -83.75 26.75 -87.7 26.1 -86.05 25.15 -84.55 22.65 -80.65 22.45 -76.15 26.55 -73.6 29.55 -70.1 29.65 -66.55 25.9 -66.2 19.4 -65.65 14.0 -62.6 L14.1 -62.05 Q15.85 -56.65 17.0 -51.1 13.6 -51.7 12.1 -49.25 L12.25 -48.7 Q15.6 -40.6 18.15 -32.25 14.6 -32.9 14.3 -29.85 13.6 -29.3 13.55 -28.45 13.1 -18.8 13.25 -9.15 11.95 -8.85 10.95 -8.05 L10.6 -7.45 Q9.7 -3.15 7.85 0.55 L7.15 -10.05 Q6.95 -13.3 7.6 -16.4 8.15 -18.85 7.9 -21.3 6.7 -31.85 4.0 -42.05 L3.8 -42.3 3.05 -42.85 Q2.3 -42.8 2.1 -42.05 L2.1 -38.6 Q1.05 -26.75 -7.2 -18.15 L-7.3 -19.3 Q-7.85 -27.3 -10.85 -34.6 L-10.65 -35.15 -10.55 -35.75 -6.75 -39.75 Q-6.6 -41.4 -7.25 -42.8 -9.05 -46.7 -9.8 -50.7 L-6.75 -52.85 -6.7 -53.4 Q-6.6 -56.85 -8.25 -59.75 L-7.75 -59.75 Q-5.15 -58.6 -3.25 -60.15 L-3.25 -60.7 -3.25 -61.3 -3.5 -61.5 -4.25 -62.45 -6.8 -67.35 -9.9 -72.3 Q-14.1 -78.45 -14.2 -85.4 -10.0 -83.3 -5.55 -81.7 -1.8 -80.35 1.8 -80.4 L2.05 -81.0 1.9 -82.1 Q2.35 -83.15 1.8 -84.15 -0.75 -89.1 -1.65 -94.5 L-0.7 -94.4 -0.6 -93.85 -0.5 -93.25 0.45 -92.7 Q0.6 -91.75 1.55 -91.65 1.75 -91.7 1.95 -91.9 L2.1 -92.0 2.9 -91.75 2.95 -91.35 3.85 -90.85 4.25 -91.1 4.8 -91.65 4.8 -91.7 5.15 -91.8 5.45 -92.3 5.55 -92.6 5.45 -92.85 4.85 -93.55 4.5 -94.8 4.1 -95.15 4.0 -95.35 4.05 -96.8 Q4.35 -103.55 6.05 -109.95 L6.55 -109.05" fill="#ffff00" fill-opacity="0.5019608" fill-rule="evenodd" stroke="none"/>
  </g>
</svg>
