<?xml version="1.0" encoding="UTF-8" standalone="no"?>
<svg xmlns:ffdec="https://www.free-decompiler.com/flash" xmlns:xlink="http://www.w3.org/1999/xlink" ffdec:objectType="shape" height="128.85px" width="78.1px" xmlns="http://www.w3.org/2000/svg">
  <g transform="matrix(1.0, 0.0, 0.0, 1.0, 29.3, 126.05)">
    <path d="M5.35 -122.6 Q8.8 -126.05 13.7 -126.05 18.6 -126.05 22.05 -122.6 24.3 -120.35 25.1 -117.55 25.5 -116.0 25.5 -114.25 25.5 -109.35 22.05 -105.9 20.5 -104.35 18.7 -103.5 L17.15 -102.9 15.35 -102.55 13.9 -102.45 14.15 -101.75 14.45 -100.05 14.45 -99.5 Q16.2 -96.65 17.25 -93.4 L17.45 -93.45 18.35 -93.6 18.35 -93.7 Q21.5 -93.65 23.15 -91.05 L23.4 -90.55 23.1 -89.75 23.35 -88.85 23.4 -88.3 Q21.95 -86.4 20.1 -85.0 L21.1 -81.05 Q21.3 -80.2 21.15 -79.35 L21.2 -79.35 Q22.9 -81.2 25.55 -82.65 30.1 -85.1 33.8 -89.1 L36.15 -91.7 Q37.55 -94.35 39.8 -96.55 38.85 -98.55 40.95 -101.45 41.85 -102.65 43.0 -102.7 48.75 -102.45 48.4 -98.9 L48.75 -97.8 48.8 -97.25 47.1 -95.55 45.7 -94.15 44.1 -92.45 Q43.7 -90.75 41.35 -88.7 36.55 -84.65 33.3 -79.5 27.0 -75.3 20.3 -72.45 L19.4 -72.35 18.0 -71.1 18.2 -72.2 18.0 -72.4 17.85 -73.0 17.6 -74.1 Q15.05 -77.8 14.4 -82.25 L13.3 -81.95 7.85 -78.7 Q6.4 -70.3 5.3 -61.8 5.1 -60.15 4.0 -58.95 L4.0 -57.5 Q5.9 -55.85 7.15 -53.2 7.35 -52.8 7.7 -52.5 11.25 -46.65 16.25 -41.6 16.55 -41.25 16.95 -40.95 24.95 -29.2 17.25 -16.95 15.2 -13.65 14.4 -9.75 13.55 -5.75 11.4 -2.95 L20.65 -2.95 22.45 -2.0 Q23.45 -1.35 23.4 -0.15 22.8 2.05 20.6 2.05 L8.9 1.45 Q8.2 1.35 7.55 0.8 L7.55 -0.4 Q6.5 -0.8 5.8 -1.7 7.4 -12.45 11.65 -22.75 12.7 -25.2 14.65 -27.1 14.8 -35.4 8.35 -41.6 5.65 -44.25 3.4 -47.1 L3.3 -46.65 Q0.55 -34.6 -3.05 -22.85 -3.7 -22.25 -4.35 -22.0 L-10.3 -14.3 -10.95 -13.65 Q-14.65 -7.2 -20.3 -2.95 L-11.55 -2.35 Q-8.75 -2.1 -8.75 0.6 -9.35 2.8 -11.55 2.8 L-26.25 2.1 Q-29.45 1.8 -29.3 -1.25 L-28.05 -2.95 -27.8 -2.95 Q-26.95 -6.15 -23.45 -8.4 -22.0 -9.3 -21.0 -10.75 -14.85 -19.4 -7.7 -25.95 -6.65 -33.0 -4.7 -40.0 -2.7 -47.15 -1.55 -54.6 L-1.6 -54.6 -1.55 -54.65 -1.55 -55.0 -2.85 -57.7 Q-2.55 -58.65 -1.65 -59.15 L-1.65 -61.0 -0.85 -62.1 -0.3 -62.7 1.55 -75.55 Q-4.8 -72.75 -11.55 -70.9 -13.15 -71.15 -14.15 -72.4 L-14.25 -73.55 -14.35 -75.2 Q-4.65 -88.85 6.1 -102.1 L6.2 -102.5 6.3 -103.1 6.45 -103.55 6.65 -104.25 6.8 -104.65 Q6.05 -105.2 5.35 -105.9 L4.4 -106.95 3.8 -107.8 Q1.9 -110.65 1.9 -114.25 1.9 -119.15 5.35 -122.6 M10.7 -93.25 L9.3 -86.35 12.65 -88.1 10.7 -93.25 M2.7 -82.95 L3.8 -89.55 -3.3 -80.2 Q-1.05 -80.95 1.1 -82.1 L2.7 -82.95" fill="#000000" fill-opacity="0.2901961" fill-rule="evenodd" stroke="none"/>
  </g>
</svg>
