<?xml version="1.0" encoding="UTF-8" standalone="no"?>
<svg xmlns:ffdec="https://www.free-decompiler.com/flash" xmlns:xlink="http://www.w3.org/1999/xlink" ffdec:objectType="shape" height="152.7px" width="98.8px" xmlns="http://www.w3.org/2000/svg">
  <g transform="matrix(1.0, 0.0, 0.0, 1.0, 40.45, 139.15)">
    <path d="M27.85 -132.05 L27.95 -131.25 Q27.95 -129.65 27.05 -128.3 L27.05 -128.0 27.15 -126.3 31.45 -124.75 Q35.0 -123.2 38.1 -120.9 36.55 -119.5 35.5 -117.75 L35.5 -117.45 35.6 -116.3 37.8 -116.2 41.55 -118.6 41.65 -118.3 42.4 -115.7 Q43.85 -114.25 44.35 -112.25 L44.9 -111.9 Q47.55 -111.15 50.5 -112.25 L50.5 -112.0 Q50.3 -109.15 50.9 -106.5 51.75 -105.65 51.65 -104.5 L54.6 -102.1 51.25 -101.15 Q47.25 -99.8 47.4 -96.05 L47.8 -95.45 47.8 -95.15 47.8 -94.9 52.4 -87.95 45.75 -87.3 Q44.8 -87.1 44.35 -86.25 L44.35 -85.65 Q44.7 -80.0 47.15 -74.9 L41.85 -77.1 Q37.55 -78.8 33.95 -76.85 L33.95 -76.25 33.95 -73.1 34.65 -72.2 34.7 -71.95 34.75 -70.5 Q30.65 -71.5 26.6 -72.85 25.7 -73.15 24.9 -73.6 L19.75 -73.45 15.85 -76.0 14.65 -77.05 Q12.3 -79.55 9.6 -78.95 L9.5 -78.65 Q9.3 -75.05 10.65 -71.75 L10.9 -71.45 Q11.4 -70.8 11.3 -70.0 11.9 -69.05 12.65 -68.3 L12.8 -68.0 13.05 -67.4 13.4 -67.15 14.0 -66.0 14.0 -65.7 14.0 -65.4 Q15.3 -62.45 18.3 -63.1 L18.5 -63.4 18.6 -64.25 Q21.7 -66.3 25.25 -66.45 L25.25 -66.3 Q25.7 -65.5 25.5 -64.55 L25.9 -63.95 25.9 -63.65 Q25.85 -61.9 26.4 -60.2 L37.8 -59.85 37.8 -59.55 37.05 -54.65 36.9 -54.35 Q36.0 -52.55 36.35 -50.6 40.95 -49.1 44.65 -46.65 L43.95 -46.1 43.95 -45.8 43.85 -45.5 Q42.3 -44.25 41.25 -42.65 L41.25 -42.35 41.25 -41.5 Q46.65 -37.2 53.2 -34.6 56.45 -33.3 58.35 -31.7 55.3 -30.2 52.8 -27.95 L52.8 -27.65 52.8 -26.5 Q55.9 -22.75 57.4 -18.15 L58.1 -17.3 56.6 -17.65 Q53.1 -19.45 49.35 -18.8 L48.2 -17.5 48.15 -16.9 47.4 -10.0 47.05 -10.0 Q45.1 -13.15 42.05 -11.9 38.3 -8.1 35.2 -3.75 L35.2 -3.85 34.95 -4.7 Q33.0 -6.8 31.35 -9.1 31.0 -9.65 30.35 -9.6 27.3 -9.45 24.35 -8.15 L24.45 -8.35 Q25.95 -11.5 24.2 -14.4 22.35 -15.95 20.15 -16.5 19.35 -17.4 18.2 -17.65 L18.05 -17.9 17.85 -18.45 18.05 -18.75 Q18.6 -19.65 18.6 -20.75 20.85 -24.35 19.0 -27.95 17.2 -31.5 13.6 -31.1 L13.45 -30.9 Q12.0 -28.6 12.0 -25.95 L11.15 -26.1 Q6.3 -25.65 7.55 -20.65 8.55 -19.85 8.6 -18.65 L7.65 -19.0 Q4.95 -20.3 2.15 -19.05 L1.3 -18.35 1.3 -18.05 Q0.75 -12.65 3.65 -7.7 L-2.7 -7.1 Q-3.25 -7.05 -3.65 -6.55 L-3.65 -5.95 Q-3.45 -0.95 -2.15 3.85 -6.65 1.25 -8.65 5.5 -9.35 5.7 -9.55 6.35 L-9.55 6.65 -9.65 7.2 Q-13.0 10.0 -15.85 13.25 L-16.65 13.55 -17.4 12.4 Q-22.15 9.45 -27.85 8.45 -26.4 7.35 -26.35 5.55 L-25.55 4.4 -25.55 4.15 -25.55 3.25 Q-29.65 -0.15 -34.4 -2.6 -36.35 -3.35 -37.55 -5.0 L-31.55 -5.55 Q-30.9 -5.65 -30.55 -6.35 -30.25 -9.65 -31.5 -12.55 -33.95 -18.25 -35.95 -24.2 L-35.35 -24.3 Q-30.75 -22.3 -25.75 -22.2 -25.15 -22.15 -24.95 -22.7 -23.5 -26.45 -24.05 -30.75 -20.25 -29.55 -17.9 -31.7 L-18.1 -33.35 Q-18.75 -36.25 -20.6 -38.6 -20.3 -39.15 -19.6 -39.25 L-10.6 -39.95 -10.45 -40.15 -10.2 -40.7 Q-10.6 -41.85 -11.75 -42.25 L-14.05 -46.0 Q-9.6 -48.2 -7.6 -52.45 -10.65 -54.3 -14.35 -55.2 -19.4 -58.35 -24.8 -55.6 L-24.85 -55.85 Q-25.6 -57.55 -25.55 -59.35 -26.45 -60.65 -28.0 -59.9 -32.0 -58.0 -35.95 -57.25 L-35.95 -58.1 Q-35.8 -64.15 -36.7 -69.9 L-34.5 -71.85 -34.45 -72.1 -34.4 -73.55 Q-36.35 -76.85 -38.55 -79.9 -39.2 -81.75 -40.45 -83.35 L-35.4 -83.9 Q-34.9 -83.95 -34.75 -84.45 -33.45 -90.5 -34.5 -96.8 -31.1 -95.85 -28.15 -97.3 L-27.75 -98.5 Q-26.9 -102.5 -27.0 -106.7 -26.5 -106.15 -25.65 -106.1 -24.65 -105.4 -23.5 -105.0 -19.95 -103.85 -19.8 -107.95 -18.65 -108.85 -18.65 -110.25 L-17.5 -111.4 -17.1 -111.4 -9.65 -106.5 -9.0 -106.2 -8.7 -106.1 Q-7.05 -105.65 -6.1 -107.35 L-5.7 -108.35 -5.65 -108.6 -5.6 -110.65 Q-3.15 -112.4 -1.75 -115.05 L-1.75 -115.35 -1.85 -116.8 Q-3.5 -119.8 -6.15 -121.95 L-5.7 -122.55 -5.65 -122.85 Q-5.6 -125.05 -6.05 -127.15 L-7.9 -129.45 -6.75 -129.45 -5.9 -128.85 -4.8 -128.15 Q-1.7 -125.85 0.85 -127.9 L0.9 -128.2 Q1.9 -133.8 4.0 -139.15 5.0 -138.9 5.9 -137.7 9.0 -133.8 13.05 -131.2 L13.4 -131.3 13.8 -131.55 13.9 -131.85 14.5 -134.45 Q15.2 -135.35 15.35 -136.45 L15.9 -136.35 Q16.15 -135.25 16.65 -134.2 18.2 -131.3 21.15 -131.9 L27.15 -132.4 27.85 -132.35 27.85 -132.05" fill="#ffff00" fill-opacity="0.5019608" fill-rule="evenodd" stroke="none"/>
  </g>
</svg>
