<?xml version="1.0" encoding="UTF-8" standalone="no"?>
<svg xmlns:ffdec="https://www.free-decompiler.com/flash" xmlns:xlink="http://www.w3.org/1999/xlink" ffdec:objectType="shape" height="115.55px" width="92.0px" xmlns="http://www.w3.org/2000/svg">
  <g transform="matrix(1.0, 0.0, 0.0, 1.0, 39.5, 127.15)">
    <path d="M6.05 -123.7 Q9.5 -127.15 14.4 -127.15 19.3 -127.15 22.75 -123.7 26.2 -120.25 26.2 -115.35 26.2 -110.45 22.75 -107.0 20.2 -104.45 16.9 -103.75 L16.85 -103.75 16.6 -103.7 15.8 -103.95 15.1 -104.15 14.95 -104.1 14.0 -104.0 13.4 -104.5 9.4 -106.5 9.35 -106.3 9.25 -105.95 8.05 -100.85 Q18.45 -98.75 28.2 -94.6 37.15 -97.4 45.0 -102.5 44.15 -104.85 45.6 -106.7 46.4 -107.75 47.6 -107.75 52.85 -107.8 52.3 -102.55 52.2 -101.15 51.2 -100.1 46.95 -95.65 41.25 -93.25 38.2 -91.95 35.3 -90.35 29.95 -87.4 24.45 -89.5 15.7 -92.8 6.95 -95.55 L5.65 -88.4 5.15 -87.2 Q4.65 -81.95 3.8 -76.8 2.9 -71.45 2.6 -65.9 L2.35 -60.35 2.75 -60.15 17.7 -58.75 Q21.9 -58.45 25.9 -57.1 L27.75 -56.65 Q29.8 -56.15 31.65 -55.3 33.05 -54.65 33.85 -53.3 38.2 -50.65 43.0 -49.1 L47.6 -56.95 47.8 -57.3 Q49.0 -57.35 50.4 -57.9 L51.55 -56.2 52.5 -53.45 52.0 -52.45 50.45 -49.7 49.95 -48.15 49.6 -47.15 Q48.55 -44.7 46.4 -43.55 L47.15 -42.7 46.2 -42.15 44.5 -42.05 Q35.85 -45.2 28.15 -50.2 17.5 -53.6 6.45 -53.55 5.4 -53.55 4.6 -54.15 2.8 -54.0 1.15 -54.2 L1.15 -54.15 Q1.6 -53.75 1.85 -52.95 L1.9 -52.65 1.9 -52.25 2.25 -51.9 Q2.6 -44.75 5.35 -38.15 6.95 -34.2 3.25 -31.7 -7.1 -24.8 -18.55 -20.35 -14.75 -18.7 -12.25 -15.6 -11.45 -14.6 -12.15 -13.5 -14.05 -10.5 -17.3 -12.25 -21.55 -14.55 -25.05 -17.85 -25.9 -18.6 -26.4 -19.6 -28.2 -22.9 -24.65 -24.25 -15.2 -27.8 -6.6 -32.9 -4.45 -34.2 -2.2 -35.3 L-0.6 -36.2 Q-3.9 -46.0 -3.65 -56.65 -3.35 -67.6 -1.95 -78.25 -1.3 -83.05 -0.9 -87.8 -0.8 -89.25 0.15 -90.4 L1.0 -95.7 -15.8 -93.8 Q-20.05 -93.4 -23.95 -91.6 -26.95 -90.2 -30.15 -89.2 -32.05 -83.55 -38.1 -86.0 -39.4 -86.55 -39.5 -87.95 -39.75 -92.1 -35.65 -93.75 L-25.95 -97.35 Q-18.6 -99.8 -10.8 -100.3 L-9.1 -100.45 2.25 -101.9 4.15 -109.45 3.85 -110.0 3.75 -110.2 Q2.6 -112.55 2.6 -115.35 2.6 -120.25 6.05 -123.7" fill="#000000" fill-rule="evenodd" stroke="none"/>
  </g>
</svg>
