<?xml version="1.0" encoding="UTF-8" standalone="no"?>
<svg xmlns:ffdec="https://www.free-decompiler.com/flash" xmlns:xlink="http://www.w3.org/1999/xlink" ffdec:objectType="shape" height="137.3px" width="113.2px" xmlns="http://www.w3.org/2000/svg">
  <g transform="matrix(1.0, 0.0, 0.0, 1.0, 52.6, 138.05)">
    <path d="M27.55 -133.25 L31.75 -133.5 31.85 -133.2 32.5 -130.0 -2.9 -129.25 -3.4 -130.4 -3.1 -130.15 -3.0 -130.1 Q-2.3 -129.7 -1.85 -129.75 L-1.6 -129.8 -1.0 -130.0 Q-0.05 -130.15 0.8 -130.65 L0.95 -130.85 3.95 -138.05 4.75 -137.55 4.9 -137.4 5.5 -137.15 6.95 -136.3 7.2 -136.1 7.15 -135.95 7.15 -135.8 Q7.45 -135.55 7.95 -135.65 L9.75 -136.2 Q12.2 -136.45 14.4 -137.75 L14.7 -137.5 Q15.2 -136.4 16.15 -135.3 16.7 -134.65 17.4 -134.35 L19.35 -134.2 19.65 -134.25 21.45 -134.6 23.05 -134.45 23.8 -133.85 23.85 -133.75 23.9 -133.55 24.0 -133.55 Q24.45 -132.75 25.3 -132.4 26.35 -133.0 27.55 -133.25 M33.0 -125.7 L32.75 -125.0 32.65 -124.85 32.4 -124.5 32.35 -124.25 32.15 -122.95 32.15 -122.6 32.1 -121.9 32.5 -121.5 34.65 -120.6 35.8 -120.15 Q37.7 -119.5 39.65 -119.2 L40.45 -116.85 40.4 -115.95 41.6 -115.25 Q43.15 -114.45 45.15 -114.2 L46.45 -114.3 48.05 -114.4 49.45 -114.55 50.8 -114.7 52.15 -114.6 52.3 -114.55 52.5 -114.5 53.35 -114.2 53.4 -114.2 53.3 -114.0 53.3 -113.9 53.2 -113.8 53.1 -113.65 53.15 -113.45 Q53.45 -112.45 52.95 -111.8 L53.05 -111.65 53.15 -111.4 53.25 -111.2 55.1 -111.15 55.55 -111.1 58.75 -110.15 59.3 -109.55 59.05 -108.85 57.65 -108.65 57.35 -108.15 Q55.85 -106.85 55.05 -105.25 L55.1 -105.2 54.7 -104.6 54.7 -104.5 54.9 -103.85 55.05 -103.55 55.75 -102.5 57.3 -100.85 58.05 -98.0 58.75 -95.05 58.85 -94.7 58.8 -94.35 58.7 -93.7 57.8 -92.85 Q57.45 -92.6 57.15 -92.5 L55.55 -91.95 Q54.55 -91.7 53.35 -90.75 L53.2 -90.6 52.8 -90.45 52.65 -90.3 52.1 -89.9 51.0 -89.25 50.7 -89.1 50.6 -88.85 49.6 -85.15 49.25 -84.85 45.25 -84.25 45.1 -84.2 44.55 -84.15 44.45 -84.15 42.7 -84.0 41.6 -84.2 36.15 -83.95 35.75 -83.7 35.65 -83.55 35.5 -83.05 35.0 -82.6 34.9 -82.3 34.65 -81.5 34.45 -81.15 34.3 -81.1 31.2 -79.95 Q29.1 -79.65 27.15 -78.75 L27.1 -78.5 27.0 -78.35 26.9 -78.0 26.15 -74.95 Q26.9 -73.75 27.7 -73.2 L29.55 -73.05 29.55 -72.85 29.5 -72.55 28.3 -71.85 28.25 -71.7 27.9 -71.15 27.8 -71.1 27.2 -70.85 Q25.8 -69.8 25.65 -68.15 L27.85 -67.3 28.35 -67.3 29.8 -67.75 Q31.55 -68.7 33.3 -68.25 33.55 -68.1 33.75 -68.05 L33.9 -67.85 34.05 -67.5 34.05 -67.25 34.05 -66.9 34.35 -66.3 34.35 -66.05 34.35 -65.75 34.8 -65.35 35.4 -65.15 Q38.65 -64.15 41.6 -65.15 L42.0 -65.2 Q42.95 -65.4 43.85 -65.8 L44.0 -65.95 45.95 -66.65 Q47.15 -67.9 48.75 -68.3 L48.95 -68.3 Q51.5 -65.45 54.6 -62.6 L53.45 -60.65 53.3 -60.4 52.9 -59.75 52.75 -59.25 52.85 -59.0 53.0 -58.55 53.4 -58.3 56.65 -55.55 57.1 -55.1 60.0 -53.05 60.15 -52.85 60.45 -52.45 60.6 -52.35 60.4 -52.2 60.45 -52.05 60.55 -51.75 60.2 -51.5 59.45 -51.35 59.05 -51.3 58.85 -51.25 58.75 -51.25 58.55 -51.0 Q57.15 -50.2 55.85 -48.9 L55.65 -48.75 55.15 -48.35 54.55 -47.6 53.95 -47.2 54.7 -45.8 55.95 -43.95 56.5 -40.05 56.8 -32.85 56.9 -32.6 57.05 -32.0 56.95 -31.8 Q55.05 -30.8 53.55 -30.4 L51.9 -30.25 49.45 -30.0 Q45.3 -30.25 41.35 -28.7 L40.95 -28.65 40.75 -28.65 39.7 -29.2 39.25 -29.5 37.45 -30.5 32.95 -33.45 32.45 -33.85 32.35 -34.05 32.2 -34.4 31.05 -34.85 29.65 -35.35 29.35 -35.45 29.0 -35.3 28.8 -35.25 Q27.65 -33.95 27.5 -32.5 L27.6 -32.05 27.1 -30.75 26.95 -30.35 26.9 -29.5 24.25 -30.55 21.55 -31.3 21.4 -31.35 20.45 -31.5 18.8 -31.3 18.7 -31.05 18.35 -29.45 17.75 -27.05 17.9 -26.9 18.3 -26.4 18.35 -26.3 18.3 -26.1 Q15.6 -26.65 12.85 -26.2 L12.3 -26.15 11.9 -25.65 10.85 -24.95 10.75 -24.75 10.35 -23.75 10.5 -22.2 10.65 -20.85 11.5 -19.55 11.5 -19.25 11.5 -18.35 10.55 -18.0 5.95 -15.85 2.7 -15.25 2.2 -15.1 Q1.2 -14.65 0.4 -14.0 L0.1 -13.7 -0.75 -12.5 Q-1.85 -11.5 -2.55 -10.2 L-3.35 -8.9 -4.2 -8.3 -4.3 -8.2 Q-5.05 -7.1 -6.35 -6.05 L-8.4 -2.65 Q-8.95 -2.2 -9.55 -1.85 -10.8 -1.25 -12.6 -0.75 L-12.65 -0.75 -12.8 -0.9 Q-13.0 -1.5 -13.85 -1.85 L-13.9 -2.0 -13.95 -2.2 -14.35 -2.45 -14.4 -2.6 -14.45 -2.75 -15.15 -2.95 -15.2 -2.95 -15.35 -2.95 -17.65 -3.4 -19.6 -3.4 -20.4 -3.5 -22.35 -3.75 Q-24.15 -4.55 -25.7 -5.6 L-25.75 -5.6 -25.9 -6.05 -26.2 -7.65 -25.9 -8.25 -26.0 -8.4 -26.15 -8.95 -27.3 -9.55 -27.4 -9.7 -27.55 -9.85 -28.25 -10.25 -28.75 -10.55 -29.1 -10.65 -30.3 -12.0 -32.1 -13.1 -34.2 -13.8 -36.55 -14.35 -38.2 -15.9 -39.15 -17.1 -39.05 -17.45 -38.85 -18.6 Q-38.1 -19.7 -37.65 -20.9 -37.35 -21.6 -37.3 -22.35 L-37.4 -24.2 Q-37.6 -25.1 -38.1 -25.8 L-38.35 -26.1 -38.8 -31.8 -38.85 -32.0 Q-39.35 -32.9 -40.1 -33.15 -41.35 -34.35 -42.25 -36.0 L-42.8 -36.55 -43.1 -36.75 -42.55 -37.05 -41.45 -37.15 -36.85 -36.75 -29.35 -37.1 -28.75 -37.0 -28.65 -37.2 -28.6 -37.25 Q-27.6 -38.95 -27.15 -41.95 L-26.95 -42.65 -27.0 -45.0 -27.1 -46.25 -26.75 -46.4 -22.65 -48.2 -22.4 -48.25 -21.7 -48.45 -18.6 -49.05 -17.95 -49.15 Q-17.5 -49.2 -17.15 -49.55 L-16.75 -50.1 Q-15.85 -51.45 -15.55 -53.0 L-15.2 -55.0 -15.2 -55.2 -15.25 -56.55 -15.9 -59.3 -15.9 -59.55 -15.95 -59.85 -16.35 -61.0 -16.25 -61.2 -16.0 -61.5 -15.55 -62.05 -15.45 -62.15 -15.35 -62.4 -14.9 -63.2 -13.5 -64.55 Q-11.3 -66.9 -9.45 -69.35 L-9.35 -69.8 Q-9.9 -70.7 -10.95 -70.8 L-11.95 -70.9 -12.15 -71.0 -12.4 -71.2 Q-14.15 -73.75 -16.7 -76.3 L-17.3 -77.25 -17.4 -77.5 -17.45 -77.7 -18.1 -78.55 -18.8 -79.2 -19.15 -79.35 -19.3 -79.4 -19.85 -79.25 -20.2 -79.05 -22.05 -77.4 -22.6 -76.95 -22.8 -76.8 -23.2 -76.35 -26.35 -73.1 -27.1 -72.4 -27.7 -74.0 Q-27.75 -74.45 -28.1 -74.7 -29.1 -75.6 -30.5 -76.05 L-31.05 -76.05 -33.55 -75.85 -37.95 -75.1 -38.1 -75.0 -38.35 -74.95 -40.55 -74.75 -41.25 -74.85 -41.45 -74.95 -41.95 -75.05 -42.9 -75.3 -43.1 -75.35 -44.45 -75.85 -45.0 -75.95 -45.45 -76.0 -46.6 -76.15 -47.95 -76.35 -48.45 -76.7 -47.85 -77.45 -46.5 -78.6 Q-45.55 -79.35 -45.05 -80.3 -44.2 -81.95 -44.9 -84.1 L-45.75 -84.9 -46.1 -85.5 Q-47.45 -86.95 -49.1 -88.0 L-52.15 -90.1 -52.6 -90.45 Q-48.8 -91.5 -46.15 -94.3 L-45.6 -95.15 -45.25 -95.85 -44.55 -97.45 -44.25 -98.9 -44.2 -99.5 -44.2 -101.05 -43.7 -103.5 -43.25 -103.8 -40.7 -104.3 -37.95 -104.65 Q-37.85 -104.65 -37.7 -104.75 L-36.9 -105.15 -36.55 -105.45 -34.75 -107.35 -33.45 -108.2 -33.45 -108.45 -33.45 -108.65 -30.65 -110.6 -29.95 -110.6 -27.55 -109.7 -26.95 -109.55 -26.35 -109.5 Q-25.15 -109.6 -23.9 -110.25 L-20.85 -110.75 -19.5 -111.1 -19.3 -111.3 -18.95 -112.05 -17.6 -112.15 -15.6 -110.95 -12.9 -109.2 Q-11.35 -107.95 -9.85 -107.45 -8.3 -107.3 -6.9 -108.25 L-6.65 -108.4 -6.2 -108.9 -6.15 -109.0 -6.25 -111.5 -6.3 -111.5 Q-5.55 -115.0 -7.1 -118.65 L-7.0 -118.8 -6.85 -119.0 -6.25 -119.65 -5.95 -119.7 Q-4.8 -120.05 -4.15 -120.8 -3.1 -122.0 -2.4 -123.45 L-2.3 -123.95 -2.1 -125.5 -2.15 -125.9 Q15.45 -125.65 33.0 -125.7" fill="#ffff00" fill-opacity="0.5019608" fill-rule="evenodd" stroke="none"/>
  </g>
</svg>
