<?xml version="1.0" encoding="UTF-8" standalone="no"?>
<svg xmlns:ffdec="https://www.free-decompiler.com/flash" xmlns:xlink="http://www.w3.org/1999/xlink" ffdec:objectType="shape" height="114.8px" width="92.55px" xmlns="http://www.w3.org/2000/svg">
  <g transform="matrix(1.0, 0.0, 0.0, 1.0, 37.4, 128.2)">
    <path d="M22.35 -124.75 Q25.8 -121.3 25.8 -116.4 25.8 -111.5 22.35 -108.05 19.7 -105.4 16.2 -104.75 L14.7 -105.2 13.6 -105.05 13.0 -105.55 9.9 -107.1 9.9 -107.0 9.8 -106.2 9.55 -106.35 9.3 -105.85 Q9.0 -105.25 9.0 -104.5 L8.85 -100.1 Q13.2 -100.1 17.45 -98.75 L28.3 -95.7 Q32.05 -94.7 34.95 -97.4 L35.45 -97.75 Q41.25 -100.55 47.25 -102.9 L47.6 -104.5 Q48.2 -106.2 49.9 -106.25 52.35 -105.75 53.05 -104.4 55.15 -103.15 54.1 -100.0 53.5 -98.2 51.5 -97.65 42.65 -95.05 34.6 -90.45 33.3 -89.7 31.85 -89.6 24.5 -89.05 17.95 -92.3 16.3 -93.1 14.5 -93.5 L8.35 -94.6 8.15 -94.55 Q7.25 -89.65 5.55 -84.9 4.35 -80.35 3.7 -75.75 L3.25 -74.55 Q2.8 -67.75 2.9 -60.85 L23.95 -58.65 Q25.1 -58.5 26.2 -57.95 35.35 -53.4 44.6 -49.0 L45.35 -49.15 51.35 -53.95 Q51.65 -54.3 52.2 -54.25 56.1 -53.95 54.85 -50.45 54.5 -49.35 53.7 -48.35 49.65 -43.05 43.35 -42.85 42.05 -42.8 40.9 -43.4 L31.85 -48.6 Q30.65 -48.65 29.85 -49.5 L29.65 -49.65 29.55 -49.75 Q22.95 -53.7 15.05 -53.95 L12.95 -54.05 Q7.9 -54.2 3.0 -55.25 L3.05 -54.1 Q3.3 -48.15 4.15 -42.3 4.75 -38.15 4.65 -34.2 4.65 -33.45 3.9 -33.15 L3.25 -32.9 2.6 -31.7 1.3 -30.25 Q-6.65 -23.85 -16.15 -20.2 -11.6 -17.55 -14.7 -14.0 -15.5 -13.1 -16.65 -13.55 -21.85 -15.55 -23.4 -20.55 -24.0 -22.6 -22.65 -24.0 -21.3 -25.35 -19.35 -25.85 -13.1 -27.55 -7.85 -31.3 L-1.15 -35.6 -1.15 -35.65 Q-1.95 -39.55 -1.75 -43.7 -2.85 -47.45 -2.9 -51.5 L-2.95 -73.1 Q-2.95 -75.6 -1.75 -77.7 -0.7 -85.55 1.55 -93.05 L2.2 -95.4 Q-5.05 -95.9 -12.15 -93.75 -17.9 -91.95 -23.75 -90.7 L-34.75 -86.2 -35.7 -86.35 Q-38.65 -88.2 -36.45 -90.85 -34.95 -92.6 -32.8 -93.5 -25.0 -96.85 -16.65 -98.85 L-2.7 -101.65 2.95 -101.4 2.95 -102.8 Q2.95 -106.2 3.95 -109.3 L4.15 -109.75 4.1 -109.75 4.15 -109.85 3.55 -110.85 2.95 -112.1 2.8 -112.6 Q2.2 -114.4 2.2 -116.4 2.2 -121.3 5.65 -124.75 9.1 -128.2 14.0 -128.2 L16.2 -128.0 Q19.1 -127.5 21.45 -125.55 L22.35 -124.75" fill="#000000" fill-rule="evenodd" stroke="none"/>
  </g>
</svg>
