<?xml version="1.0" encoding="UTF-8" standalone="no"?>
<svg xmlns:ffdec="https://www.free-decompiler.com/flash" xmlns:xlink="http://www.w3.org/1999/xlink" ffdec:objectType="shape" height="133.6px" width="114.0px" xmlns="http://www.w3.org/2000/svg">
  <g transform="matrix(1.0, 0.0, 0.0, 1.0, 53.15, 139.7)">
    <path d="M22.55 -136.25 L24.85 -136.1 28.8 -134.95 29.0 -134.65 30.85 -129.85 30.85 -129.55 30.85 -128.7 Q31.35 -127.95 31.75 -127.75 L31.85 -127.65 31.8 -127.65 31.85 -127.6 32.1 -127.35 32.1 -127.0 32.15 -126.2 32.45 -125.7 34.3 -124.3 Q34.6 -123.85 35.15 -123.55 36.85 -122.4 38.7 -121.7 L38.8 -121.55 -4.3 -121.75 -3.35 -122.95 -3.25 -123.5 -3.1 -125.1 -3.55 -126.1 Q-4.15 -128.0 -5.4 -129.55 L-5.45 -129.5 -5.45 -129.6 -5.4 -129.55 -5.5 -130.05 -5.35 -130.15 -4.95 -130.6 Q-4.0 -130.7 -3.1 -131.1 L-2.85 -131.2 2.45 -136.7 3.3 -136.45 3.45 -136.45 4.0 -136.55 Q4.6 -136.9 4.65 -137.0 L4.65 -137.1 4.55 -137.1 4.5 -137.1 4.8 -137.55 5.95 -138.8 10.9 -139.7 11.2 -139.5 13.25 -137.7 Q13.85 -137.15 14.55 -136.8 15.45 -136.4 16.5 -136.5 L16.8 -136.5 18.65 -136.9 20.2 -137.35 20.95 -137.3 21.05 -137.3 21.1 -137.25 21.25 -137.35 Q21.8 -136.7 22.55 -136.25 M56.75 -111.85 Q55.7 -110.15 55.65 -108.45 L55.7 -108.35 Q55.65 -108.0 55.75 -107.7 L55.8 -107.65 56.25 -107.15 56.6 -107.05 57.65 -106.6 59.65 -105.9 60.15 -103.0 60.75 -99.95 60.85 -99.5 60.8 -99.05 60.85 -98.35 60.3 -97.4 59.95 -96.8 59.0 -95.55 Q59.2 -95.2 58.7 -93.85 L58.5 -93.65 58.2 -93.45 58.1 -93.25 57.7 -92.7 56.55 -91.9 56.25 -91.75 56.1 -91.5 54.2 -88.2 53.85 -87.9 50.1 -86.5 50.0 -86.35 49.65 -86.0 49.65 -85.9 48.95 -84.8 47.85 -84.75 42.2 -84.4 41.75 -84.3 41.6 -84.15 41.25 -83.85 40.6 -83.45 40.45 -83.2 40.05 -82.4 39.95 -82.0 39.85 -81.85 37.65 -79.65 33.4 -78.75 33.25 -78.55 33.1 -78.45 32.9 -78.2 31.3 -75.45 30.75 -74.0 31.0 -74.8 30.95 -74.8 30.8 -74.7 29.55 -74.75 29.45 -74.75 28.95 -74.65 28.85 -74.65 28.15 -74.6 Q26.65 -73.75 26.1 -72.3 L26.55 -70.7 26.85 -71.75 Q27.05 -73.6 27.15 -72.35 L27.45 -71.9 27.55 -71.7 27.65 -71.3 27.65 -71.1 27.65 -70.75 27.8 -70.15 27.8 -70.1 27.8 -69.85 27.8 -69.5 28.15 -69.05 28.75 -68.75 Q31.85 -67.3 35.0 -67.8 L35.2 -67.65 36.5 -66.85 36.65 -66.95 38.7 -67.25 Q40.15 -68.0 41.85 -68.2 L42.05 -68.25 Q45.4 -66.25 48.6 -63.45 L48.65 -61.4 48.55 -61.15 48.3 -60.4 48.45 -59.95 48.65 -59.75 49.05 -59.4 49.45 -59.25 52.7 -56.5 53.25 -56.15 Q55.1 -55.3 56.55 -55.45 L56.7 -55.4 56.9 -55.35 57.05 -55.35 57.1 -55.75 57.05 -56.05 57.0 -56.1 57.05 -56.1 57.05 -56.05 57.1 -56.05 57.4 -55.6 57.35 -55.6 57.25 -55.6 57.25 -55.55 57.1 -55.4 57.05 -55.35 56.55 -52.9 56.35 -52.7 56.05 -52.25 56.05 -51.35 56.25 -51.4 Q56.8 -51.1 57.5 -50.75 L59.4 -49.85 Q59.8 -47.75 59.5 -45.85 59.05 -42.05 58.15 -38.75 L58.2 -38.45 58.3 -37.85 58.2 -37.55 55.8 -35.0 54.95 -34.0 Q54.35 -33.3 54.1 -32.4 49.9 -32.45 45.8 -31.4 L45.35 -31.4 45.15 -31.4 Q44.4 -31.6 43.95 -31.4 L43.65 -31.25 42.4 -30.55 37.35 -32.6 36.75 -32.8 36.6 -32.9 36.3 -33.05 35.15 -32.85 33.7 -32.7 33.45 -32.7 33.05 -32.5 32.9 -32.45 Q31.6 -31.2 31.0 -30.05 L30.85 -29.7 29.9 -28.7 29.5 -28.75 29.15 -28.65 Q27.85 -29.5 26.7 -30.3 25.9 -31.35 24.4 -31.85 L24.3 -32.0 23.65 -32.6 22.0 -32.65 21.85 -32.5 Q21.45 -31.9 21.15 -30.9 L19.95 -28.75 20.0 -28.65 19.8 -28.7 19.6 -28.9 Q17.2 -30.15 14.25 -30.35 L13.7 -30.4 13.15 -30.2 11.9 -30.05 11.75 -29.95 10.9 -29.35 10.25 -28.1 10.35 -26.7 10.95 -25.25 10.95 -24.9 10.95 -24.0 10.35 -23.3 7.15 -19.65 3.8 -19.2 3.35 -19.05 1.6 -17.65 1.4 -17.25 0.9 -15.9 -1.15 -13.55 -2.25 -12.7 -3.15 -12.45 -3.35 -12.4 -5.95 -11.35 Q-7.25 -10.2 -8.3 -8.0 L-9.6 -7.6 -12.75 -7.5 -12.9 -7.55 -13.15 -7.6 -14.4 -7.6 -14.5 -7.6 -14.6 -7.6 -15.0 -7.65 -15.1 -7.65 -15.2 -7.65 -15.9 -7.4 -15.95 -7.35 -16.05 -7.25 -18.2 -6.75 Q-18.8 -6.35 -19.9 -6.1 L-20.7 -6.15 -22.65 -6.35 -25.85 -8.6 -25.9 -8.65 -26.2 -9.0 -27.35 -9.85 -27.4 -10.1 -27.55 -10.15 -27.9 -10.35 -29.15 -10.3 -29.25 -10.5 -29.4 -10.7 -30.15 -11.15 -30.5 -11.55 -30.75 -11.7 -31.7 -13.3 -33.6 -14.5 -35.7 -15.25 -38.15 -15.6 -38.9 -17.55 -39.15 -19.05 -39.0 -19.4 -38.7 -20.6 Q-38.05 -21.8 -37.7 -23.05 -37.45 -23.8 -37.6 -24.6 -37.7 -25.55 -38.1 -26.3 -38.5 -27.1 -39.25 -27.6 L-39.65 -27.8 -39.05 -33.45 -39.05 -33.65 Q-39.2 -34.65 -39.65 -35.15 L-41.15 -38.45 -41.55 -39.1 -41.85 -39.35 -41.75 -39.8 -40.6 -39.9 -35.9 -39.75 Q-31.9 -39.65 -28.55 -41.35 L-27.95 -41.2 -27.75 -41.25 -27.65 -41.25 Q-25.75 -41.55 -24.8 -44.7 L-24.45 -45.3 -24.5 -47.75 -24.6 -49.0 -24.4 -49.25 Q-23.05 -51.05 -22.3 -52.55 L-22.2 -52.7 -21.6 -53.15 Q-20.15 -53.75 -18.5 -54.15 L-17.8 -54.3 Q-17.35 -54.4 -17.0 -54.7 L-16.5 -55.25 Q-15.35 -56.45 -14.8 -57.85 L-14.05 -59.75 -14.0 -60.0 -14.1 -61.4 Q-14.55 -62.8 -15.25 -64.0 L-15.3 -64.25 -15.35 -64.55 -15.95 -65.5 -15.95 -65.7 -15.75 -66.05 -15.35 -66.6 -15.2 -66.7 -15.0 -66.95 -14.45 -67.65 -13.05 -69.15 Q-11.0 -71.7 -9.4 -74.35 L-9.6 -74.85 Q-10.35 -75.6 -11.5 -75.4 L-12.5 -75.3 -12.7 -75.35 -13.0 -75.4 -18.75 -77.65 -19.5 -78.5 -19.6 -78.75 -19.65 -79.0 -20.4 -79.85 -21.25 -80.1 -21.65 -80.05 -21.75 -79.95 -22.15 -79.65 -22.5 -79.45 -24.2 -77.5 -24.75 -77.0 -24.85 -76.8 -25.2 -76.3 Q-27.0 -74.85 -28.55 -73.0 L-29.3 -72.75 -30.05 -74.2 -30.35 -75.0 Q-31.15 -76.05 -32.65 -76.6 L-33.15 -76.55 -35.55 -75.9 -39.85 -74.2 -39.95 -74.05 -40.15 -73.95 Q-41.15 -73.5 -42.3 -73.45 L-43.0 -73.7 -43.15 -73.85 -43.55 -74.15 -44.55 -74.6 -44.65 -74.7 -45.8 -75.65 -46.3 -75.8 -46.8 -75.95 -47.9 -76.05 -49.3 -76.4 -49.4 -76.85 -48.9 -77.7 -47.55 -78.9 Q-46.65 -79.7 -46.1 -80.75 -45.2 -82.5 -45.5 -84.6 L-46.0 -85.6 -46.2 -86.3 Q-47.6 -87.8 -49.5 -88.55 -51.45 -89.3 -52.85 -90.45 L-53.15 -90.7 Q-49.45 -92.05 -46.5 -94.6 L-45.8 -95.3 -45.35 -95.9 -44.2 -97.15 -43.65 -98.55 -43.65 -99.15 -43.6 -100.75 Q-42.85 -101.55 -42.35 -102.8 L-41.9 -103.1 -39.3 -103.6 Q-37.85 -103.75 -36.55 -104.25 L-36.35 -104.4 -35.7 -105.0 -35.45 -105.35 -34.35 -107.8 -32.9 -108.4 -32.8 -108.55 -32.75 -108.65 -29.6 -110.0 -28.85 -110.0 -26.3 -109.45 -25.65 -109.4 -25.25 -109.6 Q-24.35 -110.3 -23.55 -111.35 L-20.45 -111.4 -18.95 -111.45 -18.65 -111.55 -18.1 -111.95 -16.75 -111.85 -14.65 -110.75 -11.7 -109.05 Q-10.15 -107.95 -8.6 -107.3 -6.95 -107.4 -5.7 -108.6 L-5.55 -108.8 -5.25 -109.4 -5.25 -109.5 -5.8 -111.9 -5.85 -111.95 Q-6.1 -114.35 -7.2 -116.75 L40.3 -117.3 Q40.7 -116.15 42.0 -115.05 L43.35 -114.8 Q43.75 -114.45 44.5 -114.25 L45.7 -113.55 46.7 -113.0 48.0 -112.55 48.15 -112.4 48.3 -112.25 49.15 -111.9 49.2 -111.9 49.25 -111.85 49.3 -111.8 49.25 -111.7 49.35 -111.65 50.1 -111.2 50.25 -111.15 50.4 -111.05 50.6 -111.1 Q51.25 -111.2 52.2 -111.7 L52.75 -111.85 55.85 -112.3 56.55 -112.15 56.7 -111.95 56.6 -112.45 56.75 -111.85" fill="#ffff00" fill-opacity="0.5019608" fill-rule="evenodd" stroke="none"/>
  </g>
</svg>
