<?xml version="1.0" encoding="UTF-8" standalone="no"?>
<svg xmlns:ffdec="https://www.free-decompiler.com/flash" xmlns:xlink="http://www.w3.org/1999/xlink" ffdec:objectType="shape" height="114.3px" width="92.55px" xmlns="http://www.w3.org/2000/svg">
  <g transform="matrix(1.0, 0.0, 0.0, 1.0, 37.2, 128.75)">
    <path d="M14.4 -128.75 Q19.3 -128.75 22.75 -125.3 26.2 -121.85 26.2 -116.95 26.2 -112.05 22.75 -108.6 20.2 -106.05 16.9 -105.35 L16.85 -105.35 15.8 -105.55 15.1 -105.75 14.95 -105.7 13.25 -106.15 9.55 -108.05 Q8.2 -104.3 7.25 -100.45 L9.5 -99.75 Q10.9 -99.25 12.35 -98.9 22.5 -96.55 32.7 -94.95 36.8 -94.3 40.65 -95.6 L44.55 -96.7 47.7 -98.35 Q47.4 -99.1 47.6 -99.95 48.15 -102.6 50.7 -103.05 51.95 -102.7 52.65 -102.15 L53.0 -102.2 53.0 -102.25 Q56.7 -100.85 54.55 -97.25 53.1 -94.85 50.35 -93.6 46.15 -91.65 41.7 -90.7 33.8 -89.0 25.9 -90.7 15.95 -92.9 6.15 -95.65 5.35 -91.7 4.9 -87.6 3.95 -78.9 2.35 -70.3 1.5 -65.55 1.1 -60.75 L1.55 -60.8 23.45 -58.15 Q26.7 -57.75 29.75 -56.75 L31.65 -55.8 Q37.5 -51.6 42.9 -46.85 46.55 -50.85 51.55 -52.4 52.3 -52.65 52.85 -52.0 54.9 -49.5 52.0 -47.4 L45.2 -42.6 Q43.15 -41.15 40.85 -42.35 39.9 -42.85 39.0 -43.55 33.45 -48.25 27.55 -52.45 L4.95 -55.2 1.05 -56.0 0.85 -56.05 Q0.75 -52.25 0.9 -48.4 1.2 -42.65 2.7 -37.35 5.7 -35.7 2.75 -33.05 L1.25 -32.2 Q-3.6 -30.55 -8.25 -28.45 -12.25 -26.65 -16.55 -25.75 -19.35 -25.1 -21.7 -23.4 L-21.75 -23.15 -21.8 -22.85 -21.8 -22.55 -17.95 -17.15 Q-17.45 -16.45 -18.1 -15.75 -20.35 -13.25 -22.9 -15.6 -25.9 -18.35 -26.6 -22.0 -27.6 -27.3 -22.55 -29.1 L-19.7 -29.9 Q-13.8 -31.2 -8.55 -33.75 L-2.7 -36.25 -2.75 -36.6 Q-3.9 -47.55 -3.65 -58.75 -3.55 -64.35 -2.75 -69.75 L0.5 -91.35 1.1 -94.95 1.0 -94.95 Q-9.9 -94.0 -20.45 -91.1 L-26.7 -89.45 Q-30.3 -88.6 -33.05 -86.35 L-34.15 -86.1 Q-38.8 -87.1 -36.4 -90.75 -35.9 -91.5 -35.05 -91.8 L-30.7 -93.35 Q-20.15 -96.85 -9.2 -98.6 L1.15 -100.35 2.25 -100.55 2.4 -101.35 4.3 -109.75 Q4.45 -110.4 4.95 -110.9 L3.85 -111.6 3.75 -111.8 Q2.6 -114.15 2.6 -116.95 2.6 -121.85 6.05 -125.3 9.5 -128.75 14.4 -128.75" fill="#000000" fill-rule="evenodd" stroke="none"/>
  </g>
</svg>
