<?xml version="1.0" encoding="UTF-8" standalone="no"?>
<svg xmlns:ffdec="https://www.free-decompiler.com/flash" xmlns:xlink="http://www.w3.org/1999/xlink" ffdec:objectType="shape" height="132.85px" width="117.7px" xmlns="http://www.w3.org/2000/svg">
  <g transform="matrix(1.0, 0.0, 0.0, 1.0, 53.7, 141.65)">
    <path d="M26.1 -136.15 L28.95 -131.5 28.95 -131.2 29.0 -130.4 Q29.8 -129.7 30.45 -129.75 L31.2 -130.25 31.2 -130.4 31.15 -130.85 31.3 -131.0 32.0 -131.7 32.1 -131.4 32.15 -130.45 32.4 -129.95 Q33.0 -128.9 33.95 -128.05 34.05 -127.4 34.45 -126.95 35.95 -125.35 37.7 -124.25 L39.45 -122.3 39.25 -121.4 38.85 -119.85 38.45 -118.6 -8.0 -116.95 -9.4 -118.8 -9.5 -119.0 -9.5 -119.25 -9.65 -120.05 -9.2 -120.05 -6.9 -120.55 Q-5.45 -121.25 -4.25 -122.45 L-4.25 -123.0 -4.15 -124.65 -4.85 -125.6 Q-5.8 -127.6 -7.5 -128.8 L-7.85 -128.85 -7.95 -128.9 Q-8.35 -129.75 -9.2 -130.3 L-9.15 -130.55 -8.95 -131.15 -7.0 -131.5 -6.7 -131.6 Q-2.75 -133.2 0.95 -135.3 L1.8 -135.35 1.95 -135.5 2.45 -136.0 Q2.85 -137.0 2.35 -137.75 L2.1 -138.15 1.95 -138.3 1.9 -138.45 1.7 -139.45 Q1.75 -140.3 2.1 -141.45 L7.35 -141.65 7.7 -141.5 10.3 -140.05 11.65 -139.3 Q12.6 -138.85 13.7 -138.8 L14.0 -138.8 Q15.1 -138.75 15.8 -139.25 L17.35 -140.25 18.1 -140.75 18.25 -140.9 18.35 -141.0 18.5 -141.2 19.85 -140.15 Q21.0 -139.75 22.15 -138.95 L25.9 -136.45 26.1 -136.15 M54.35 -115.1 L54.75 -115.5 56.1 -115.6 56.15 -115.5 Q55.5 -113.5 56.2 -111.6 L56.3 -111.45 56.8 -110.85 56.95 -110.75 Q57.25 -110.55 57.55 -110.5 L58.1 -110.55 59.5 -110.75 61.95 -111.0 62.2 -107.95 62.7 -104.9 62.8 -104.35 62.85 -103.8 62.95 -103.0 62.8 -101.9 62.7 -101.05 62.5 -99.2 Q63.8 -98.7 64.0 -96.95 L63.85 -96.75 63.55 -96.5 63.5 -96.25 63.25 -95.55 62.15 -94.6 61.85 -94.45 61.6 -94.2 58.75 -91.3 58.4 -91.0 54.9 -88.7 54.85 -88.5 54.7 -87.9 54.8 -87.7 55.15 -85.55 54.05 -85.25 48.2 -84.9 47.7 -84.85 47.5 -84.8 47.0 -84.6 46.25 -84.3 45.95 -84.05 45.45 -83.35 45.4 -82.85 45.35 -82.65 Q44.95 -81.05 44.05 -79.4 L39.65 -78.8 39.45 -78.65 39.2 -78.6 38.9 -78.35 Q37.7 -76.9 36.4 -76.0 35.2 -75.0 33.8 -74.85 L32.45 -76.65 32.3 -76.7 32.1 -76.9 30.75 -77.7 30.6 -77.85 30.0 -78.2 29.9 -78.25 29.1 -78.35 Q27.5 -77.65 26.5 -76.4 25.75 -75.5 25.3 -74.15 L24.7 -74.15 Q24.25 -74.9 23.95 -75.7 22.55 -78.5 20.95 -76.5 L21.1 -75.8 21.15 -75.6 21.2 -75.15 21.2 -74.95 21.2 -74.55 21.2 -73.95 21.2 -73.7 21.25 -73.3 21.55 -72.8 22.05 -72.4 Q25.0 -70.45 28.35 -70.45 L28.45 -70.05 Q28.7 -68.95 29.1 -67.95 L29.3 -68.0 31.5 -67.9 34.9 -68.15 35.1 -68.15 Q39.3 -67.1 42.65 -64.3 L43.8 -62.15 43.75 -61.85 43.65 -61.1 44.2 -60.6 44.5 -60.45 45.05 -60.25 45.45 -60.15 48.8 -57.5 Q49.1 -57.3 49.35 -57.25 51.45 -56.75 53.05 -57.9 L53.2 -58.0 53.35 -58.25 53.6 -58.4 53.85 -58.65 54.1 -59.05 54.25 -59.2 54.5 -59.4 54.6 -59.75 54.75 -60.8 54.9 -60.95 55.2 -60.95 55.3 -60.95 55.6 -60.45 57.2 -56.9 57.1 -56.65 56.9 -56.1 Q57.05 -55.45 57.6 -55.15 L58.5 -55.6 60.3 -55.75 62.8 -55.8 Q63.15 -53.6 62.55 -51.6 61.4 -47.8 59.5 -44.6 L59.55 -44.35 59.6 -43.75 59.4 -43.35 Q58.1 -41.5 58.0 -39.6 L58.0 -37.8 Q58.15 -36.25 58.8 -34.85 L50.2 -34.15 49.7 -34.1 49.5 -34.1 Q48.65 -34.15 48.15 -33.65 L48.0 -33.0 47.35 -30.65 41.7 -31.7 41.1 -31.8 40.8 -31.8 40.35 -31.75 Q39.65 -31.55 39.2 -30.9 38.25 -30.75 37.7 -30.1 L37.5 -30.0 37.1 -29.75 36.95 -29.65 34.45 -27.65 34.1 -27.35 32.65 -26.7 32.05 -27.2 31.35 -27.8 29.2 -30.1 Q28.7 -31.55 27.25 -32.45 L27.2 -32.65 26.9 -33.65 Q26.0 -34.2 25.25 -34.05 L24.95 -33.9 Q24.4 -33.5 23.95 -32.4 L22.15 -30.5 22.05 -30.35 21.35 -30.95 21.3 -31.1 20.85 -31.65 Q18.75 -33.6 15.6 -34.45 L15.05 -34.65 14.35 -34.8 13.0 -35.1 12.75 -35.1 11.5 -34.95 Q10.8 -34.7 10.0 -34.05 L10.05 -32.6 10.35 -31.0 10.35 -30.6 10.35 -29.65 10.1 -28.6 8.4 -23.45 4.95 -23.15 4.45 -22.95 2.8 -21.3 2.7 -20.85 Q2.45 -20.05 2.55 -19.25 L0.3 -16.95 -1.2 -16.55 -2.15 -16.55 -2.45 -16.65 Q-4.1 -17.15 -5.55 -16.65 -7.2 -15.95 -8.2 -13.4 L-9.65 -13.35 Q-11.05 -14.1 -12.95 -14.3 L-13.2 -14.35 -13.55 -14.25 -15.0 -13.3 -15.15 -13.15 -15.3 -13.05 -15.7 -12.8 -15.85 -12.65 -16.0 -12.5 -16.7 -11.9 -16.75 -11.75 -16.8 -11.55 -18.75 -10.15 Q-19.1 -9.3 -20.25 -8.8 L-20.95 -8.85 -23.0 -8.9 -26.05 -11.6 -26.1 -11.65 Q-26.3 -11.9 -26.55 -11.95 L-28.5 -12.1 -28.95 -12.0 -29.15 -11.95 -29.7 -11.8 -31.0 -11.1 -31.1 -11.35 -31.2 -11.6 -32.0 -12.1 -32.3 -12.6 -32.45 -12.8 -33.15 -14.65 Q-34.0 -15.4 -35.05 -15.95 L-37.25 -16.65 -39.7 -16.8 Q-40.0 -18.1 -39.6 -19.25 L-39.1 -21.05 -38.95 -21.4 -38.6 -22.6 Q-38.0 -23.9 -37.75 -25.25 -37.6 -26.05 -37.85 -26.8 L-38.75 -28.45 Q-39.45 -29.15 -40.4 -29.4 L-40.95 -29.5 Q-39.9 -32.2 -39.25 -35.1 L-39.2 -35.35 Q-39.1 -36.4 -39.25 -37.2 -39.4 -38.95 -40.0 -40.85 L-40.35 -41.65 -40.6 -41.9 -40.95 -42.6 -39.8 -42.7 Q-37.2 -42.55 -34.9 -42.8 -30.95 -43.15 -27.7 -45.6 L-27.1 -45.35 -26.9 -45.3 -26.75 -45.25 Q-23.95 -44.2 -22.5 -47.4 L-22.0 -48.0 Q-21.85 -49.25 -22.0 -50.55 L-22.1 -51.75 -22.05 -52.15 Q-21.55 -54.75 -22.0 -56.95 L-21.95 -57.2 -21.55 -57.8 -18.45 -59.2 -17.7 -59.5 Q-17.25 -59.65 -16.85 -59.9 L-16.2 -60.4 Q-14.9 -61.45 -14.0 -62.75 L-12.9 -64.55 -12.85 -64.8 -12.95 -66.2 Q-13.65 -67.65 -14.6 -68.65 L-14.65 -68.95 -14.8 -69.25 -15.6 -70.05 -15.7 -70.25 -15.55 -70.55 -15.2 -71.15 -15.0 -71.25 -14.7 -71.45 -13.95 -72.15 -12.55 -73.7 Q-10.7 -76.45 -9.4 -79.3 L-9.9 -79.85 Q-10.85 -80.55 -12.1 -80.05 L-13.1 -79.75 -13.3 -79.75 -13.65 -79.65 -20.85 -78.95 -21.7 -79.8 -21.8 -80.05 -21.8 -80.35 Q-22.1 -80.9 -22.7 -81.1 L-23.7 -81.0 -24.2 -80.75 -24.25 -80.55 -24.5 -80.1 -24.8 -79.85 Q-25.75 -78.85 -26.3 -77.6 L-26.85 -77.05 -26.95 -76.85 -27.2 -76.3 -30.75 -72.95 -31.5 -73.05 -32.4 -74.45 -32.6 -75.25 Q-33.25 -76.55 -34.75 -77.2 L-35.3 -77.05 -37.6 -75.9 -41.7 -73.35 -41.75 -73.15 -41.9 -72.95 Q-42.85 -72.3 -44.05 -72.2 L-44.8 -72.6 -44.9 -72.8 -45.2 -73.2 -46.15 -73.9 -46.25 -74.1 -47.15 -75.4 -47.65 -75.65 -48.15 -75.85 -49.2 -76.0 -50.7 -76.4 -50.4 -77.05 -49.95 -77.9 -48.6 -79.15 Q-47.75 -80.1 -47.2 -81.2 -46.25 -83.05 -46.15 -85.05 L-46.25 -86.35 -46.3 -87.15 Q-47.8 -88.65 -49.9 -89.15 -52.2 -89.65 -53.55 -90.8 L-53.7 -90.9 Q-50.1 -92.65 -46.85 -94.85 L-46.05 -95.5 -45.4 -96.0 Q-44.55 -96.2 -43.85 -96.8 L-43.1 -98.25 -43.05 -98.85 -43.05 -100.5 Q-41.9 -101.0 -41.05 -102.1 L-40.6 -102.45 -37.9 -102.95 Q-36.5 -103.25 -35.2 -103.9 L-35.05 -104.1 -34.45 -104.85 -34.4 -105.3 Q-34.4 -106.65 -34.0 -108.25 L-32.35 -108.55 -32.15 -108.65 -32.0 -108.7 -28.6 -109.45 -27.8 -109.45 -25.1 -109.25 -24.4 -109.3 -24.1 -109.7 -23.2 -112.3 -22.1 -112.3 -20.0 -112.1 -18.35 -111.85 -18.05 -111.85 -17.25 -111.85 -15.9 -111.55 -13.65 -110.5 -10.55 -108.95 -7.4 -107.15 Q-5.65 -107.55 -4.5 -108.95 L-4.4 -109.2 -4.25 -109.95 -4.3 -110.05 -5.3 -112.3 -5.4 -112.35 -5.4 -112.4 40.65 -114.4 40.9 -114.05 41.95 -112.55 42.65 -111.3 43.85 -110.45 43.95 -110.3 44.05 -110.05 44.9 -109.65 45.0 -109.65 45.15 -109.65 45.25 -109.65 45.35 -109.75 45.35 -109.7 45.5 -109.85 47.2 -110.55 47.4 -110.65 47.65 -110.75 47.9 -111.05 49.35 -112.2 49.9 -112.65 53.0 -114.4 53.85 -114.8 54.35 -115.1" fill="#ffff00" fill-opacity="0.5019608" fill-rule="evenodd" stroke="none"/>
  </g>
</svg>
