<?xml version="1.0" encoding="UTF-8" standalone="no"?>
<svg xmlns:ffdec="https://www.free-decompiler.com/flash" xmlns:xlink="http://www.w3.org/1999/xlink" ffdec:objectType="shape" height="108.45px" width="98.75px" xmlns="http://www.w3.org/2000/svg">
  <g transform="matrix(1.0, 0.0, 0.0, 1.0, 42.05, 129.35)">
    <path d="M22.9 -125.9 Q26.35 -122.45 26.35 -117.55 26.35 -112.65 22.9 -109.2 20.25 -106.55 16.75 -105.9 L15.25 -106.35 14.15 -106.2 13.55 -106.7 10.45 -108.25 10.45 -108.15 10.35 -107.35 8.65 -108.45 Q7.65 -105.0 7.45 -101.35 16.1 -97.75 25.1 -94.95 L26.2 -94.5 Q38.25 -93.35 49.15 -98.35 50.15 -103.0 54.9 -101.4 56.5 -100.85 56.65 -99.15 57.15 -94.35 52.6 -92.75 46.15 -90.45 39.45 -89.1 L36.85 -88.8 Q30.6 -88.6 24.4 -89.0 22.1 -89.15 20.35 -90.5 13.45 -92.05 7.35 -95.2 L7.0 -89.95 6.55 -84.55 Q6.2 -79.7 5.0 -75.05 3.65 -69.65 3.1 -64.1 L2.85 -60.8 3.45 -60.9 25.0 -57.3 Q32.35 -56.1 38.1 -51.0 L44.15 -45.55 44.8 -45.55 49.3 -50.4 Q49.65 -50.75 50.3 -50.75 54.55 -50.75 53.35 -47.0 52.7 -44.9 51.25 -43.15 46.05 -36.8 39.45 -41.7 37.55 -43.1 35.95 -44.75 30.75 -50.2 23.45 -51.6 L9.1 -53.75 Q5.75 -54.15 2.8 -55.5 L2.9 -53.1 3.55 -41.9 Q3.8 -37.15 2.1 -33.05 1.8 -32.3 1.0 -32.15 -9.7 -30.1 -20.45 -28.65 -20.15 -25.4 -20.4 -22.35 -20.45 -21.35 -21.5 -21.1 -25.1 -20.1 -25.85 -23.8 -26.55 -27.1 -26.15 -30.65 -25.85 -33.7 -22.45 -34.2 L-2.5 -37.45 Q-2.3 -47.8 -2.8 -57.95 -3.25 -67.25 -0.6 -75.8 0.3 -80.95 0.7 -86.2 L1.3 -93.05 1.4 -93.95 Q-9.2 -94.55 -19.3 -91.55 -21.95 -90.75 -24.45 -89.45 L-29.4 -86.9 Q-30.95 -86.1 -32.65 -85.5 -32.55 -80.25 -37.8 -80.8 -39.75 -81.0 -41.0 -82.5 -43.45 -85.45 -40.25 -87.6 -36.9 -89.85 -33.35 -91.8 -20.75 -98.7 -6.55 -100.1 L1.4 -99.8 Q1.6 -105.1 2.85 -110.1 3.2 -111.45 3.95 -112.35 L3.5 -113.25 3.35 -113.75 Q2.75 -115.55 2.75 -117.55 2.75 -122.45 6.2 -125.9 9.65 -129.35 14.55 -129.35 L16.75 -129.15 Q19.65 -128.65 22.0 -126.7 L22.9 -125.9" fill="#000000" fill-rule="evenodd" stroke="none"/>
  </g>
</svg>
