<?xml version="1.0" encoding="UTF-8" standalone="no"?>
<svg xmlns:ffdec="https://www.free-decompiler.com/flash" xmlns:xlink="http://www.w3.org/1999/xlink" ffdec:objectType="shape" height="133.5px" width="123.55px" xmlns="http://www.w3.org/2000/svg">
  <g transform="matrix(1.0, 0.0, 0.0, 1.0, 54.25, 145.0)">
    <path d="M-22.9 -110.75 L-22.85 -113.5 -19.6 -112.75 -13.8 -110.8 -22.9 -110.75 M48.85 -106.8 L51.8 -106.85 65.15 -107.35 65.95 -102.85 Q68.4 -102.2 69.3 -100.05 L69.15 -99.8 68.9 -99.5 68.9 -99.2 68.8 -98.35 Q68.4 -97.65 67.7 -97.3 63.05 -94.65 59.7 -90.95 L59.7 -90.65 59.8 -89.8 60.0 -89.5 61.4 -86.35 Q57.95 -84.5 54.2 -85.35 51.85 -85.85 50.85 -84.3 L50.9 -83.45 Q51.05 -81.25 50.45 -79.15 L45.3 -78.7 44.9 -78.55 Q41.3 -75.5 36.85 -75.7 33.6 -78.4 31.05 -81.75 30.65 -82.3 30.05 -82.1 26.4 -81.0 24.0 -77.6 L22.85 -77.6 21.0 -79.7 Q18.05 -83.4 14.75 -80.65 L14.65 -77.8 Q14.6 -76.7 15.35 -76.05 18.2 -73.6 21.7 -73.1 L21.65 -72.5 21.75 -69.05 Q24.75 -68.2 28.0 -68.1 34.95 -67.85 38.95 -62.9 L38.95 -62.6 39.05 -61.75 Q40.05 -61.0 41.45 -61.1 L44.85 -58.5 45.5 -58.3 Q47.8 -58.2 49.6 -60.3 L49.7 -60.6 49.8 -61.15 50.1 -61.45 Q51.85 -63.25 52.4 -65.5 L52.85 -65.8 53.55 -65.8 54.15 -65.2 Q56.2 -63.25 57.85 -60.9 L57.8 -60.6 57.75 -60.0 Q58.2 -59.2 59.1 -58.95 62.65 -60.9 66.2 -61.75 66.55 -59.4 65.55 -57.4 63.7 -53.55 60.85 -50.5 L60.85 -50.25 60.85 -49.65 Q59.6 -47.15 60.25 -44.2 61.1 -40.4 63.45 -37.25 L54.1 -36.85 Q52.95 -36.85 52.4 -35.9 L52.4 -34.75 52.3 -30.75 46.05 -30.85 Q44.05 -30.9 43.25 -28.9 42.2 -28.5 41.75 -27.45 38.8 -24.9 35.4 -24.7 L34.6 -25.6 Q33.0 -27.65 31.65 -29.85 31.55 -31.8 30.1 -33.05 L30.1 -33.3 30.1 -34.75 Q28.1 -36.45 26.75 -33.9 25.45 -32.75 24.15 -32.1 L22.85 -33.25 22.75 -33.5 Q20.9 -36.85 17.0 -38.6 16.2 -38.95 15.55 -39.4 12.7 -41.3 9.75 -39.95 L9.85 -33.9 Q9.9 -30.5 9.6 -27.25 7.45 -27.65 5.55 -26.9 L4.0 -24.95 4.0 -24.4 Q3.9 -23.5 4.2 -22.65 L1.7 -20.35 Q-0.05 -20.0 -1.55 -20.9 -6.45 -23.85 -8.1 -18.8 L-9.7 -19.1 Q-11.2 -20.5 -13.15 -21.1 L-13.95 -20.95 -17.5 -16.4 -17.5 -16.15 -17.5 -15.85 -19.3 -13.55 Q-19.45 -12.25 -20.55 -11.5 L-23.35 -11.5 -26.2 -14.6 Q-26.5 -14.95 -26.9 -14.9 -30.45 -14.75 -32.85 -11.9 L-32.95 -12.2 -33.05 -12.5 -33.9 -13.05 -34.1 -13.65 -34.55 -15.95 -36.55 -17.4 Q-38.8 -18.55 -41.3 -18.05 -41.2 -19.6 -40.3 -20.95 -38.25 -23.95 -37.8 -27.45 -37.7 -28.25 -38.15 -29.05 -39.4 -31.35 -42.25 -31.2 -40.5 -33.95 -39.4 -37.05 -38.1 -40.6 -39.1 -44.2 L-40.15 -45.35 -39.0 -45.5 Q-31.7 -44.9 -26.9 -49.85 L-25.8 -49.25 Q-22.15 -46.85 -20.2 -50.15 L-19.5 -50.7 Q-19.35 -52.0 -19.5 -53.3 L-19.7 -55.05 Q-20.1 -58.45 -21.7 -61.35 L-21.75 -61.65 -21.5 -62.5 Q-20.1 -63.6 -18.4 -64.3 -14.3 -66.0 -11.75 -69.35 L-11.7 -69.6 -11.8 -71.05 Q-12.7 -72.45 -13.95 -73.35 L-14.05 -73.65 -14.2 -73.95 -15.45 -74.8 -15.35 -75.1 -15.0 -75.7 Q-13.1 -76.5 -12.1 -78.3 -10.4 -81.25 -9.4 -84.3 -10.75 -85.8 -12.7 -84.7 -17.7 -81.85 -22.95 -80.3 L-23.9 -81.05 -24.0 -81.35 -24.0 -81.65 Q-24.3 -82.25 -25.0 -82.4 -25.95 -82.15 -26.7 -81.45 L-26.7 -81.15 -26.8 -80.55 Q-27.95 -79.3 -28.45 -77.7 L-29.0 -77.1 -29.05 -76.85 -29.2 -76.25 -32.95 -72.9 Q-34.1 -73.55 -34.75 -74.7 -34.85 -76.85 -36.9 -77.8 L-37.4 -77.55 Q-40.8 -75.4 -43.6 -72.5 L-43.6 -72.2 -43.7 -71.95 Q-44.6 -71.1 -45.8 -70.95 L-46.55 -71.45 -46.65 -71.75 -46.85 -72.3 -47.8 -73.2 -47.85 -73.45 -48.5 -75.2 -48.95 -75.5 Q-49.2 -75.75 -49.5 -75.8 -51.7 -76.15 -52.05 -76.45 -51.25 -77.15 -51.0 -78.15 -49.25 -79.6 -48.25 -81.65 -46.7 -84.75 -46.4 -87.95 -47.95 -89.5 -50.3 -89.75 -52.9 -90.0 -54.25 -91.15 L-45.5 -96.05 Q-44.4 -96.0 -43.5 -96.5 L-42.55 -97.95 -42.5 -98.55 -42.45 -100.25 Q-40.6 -100.45 -39.3 -101.8 -36.3 -102.05 -33.8 -103.55 L-33.7 -103.8 -33.25 -104.7 -33.3 -105.25 -33.65 -107.4 -6.25 -107.05 -6.15 -107.0 -5.95 -107.05 48.85 -106.8 M54.75 -111.65 L54.7 -111.55 51.8 -111.3 45.4 -111.25 47.05 -113.45 Q50.6 -117.4 54.5 -120.05 L55.55 -119.2 Q55.3 -116.8 56.75 -114.8 57.2 -114.2 57.85 -113.95 L59.6 -114.05 Q62.2 -115.4 64.3 -116.1 L64.3 -112.95 64.4 -111.55 54.75 -111.65 M27.05 -133.2 L27.05 -132.9 27.15 -132.05 Q29.05 -130.95 30.4 -132.9 L30.45 -133.2 30.5 -134.05 30.75 -134.35 31.95 -136.1 32.05 -135.8 Q32.2 -133.55 33.6 -131.75 33.45 -130.95 33.8 -130.35 35.8 -127.1 38.95 -125.05 38.65 -123.45 37.45 -122.15 35.3 -119.8 35.6 -116.7 L37.05 -115.9 Q36.9 -114.85 37.35 -113.9 L38.3 -111.2 -3.55 -110.9 -4.95 -112.8 Q-7.7 -116.1 -10.75 -119.1 L-10.85 -119.35 -11.35 -120.25 Q-7.8 -119.9 -5.2 -121.95 L-5.2 -122.55 -5.2 -124.25 -6.15 -125.15 Q-7.7 -127.5 -10.4 -128.3 -11.35 -129.75 -12.9 -130.6 L-12.9 -130.9 -12.9 -131.75 Q-6.0 -132.3 0.35 -134.25 L0.45 -134.55 0.95 -135.4 Q1.1 -137.15 0.05 -138.5 -1.85 -140.95 -1.75 -144.05 3.8 -144.3 8.8 -141.8 9.95 -141.2 11.15 -141.05 12.3 -140.9 13.0 -141.55 14.55 -143.0 15.75 -145.0 17.7 -143.8 19.45 -141.8 L27.05 -133.2" fill="#ffff00" fill-opacity="0.5019608" fill-rule="evenodd" stroke="none"/>
  </g>
</svg>
