<?xml version="1.0" encoding="UTF-8" standalone="no"?>
<svg xmlns:ffdec="https://www.free-decompiler.com/flash" xmlns:xlink="http://www.w3.org/1999/xlink" ffdec:objectType="shape" height="132.1px" width="114.75px" xmlns="http://www.w3.org/2000/svg">
  <g transform="matrix(1.0, 0.0, 0.0, 1.0, 50.85, 143.7)">
    <path d="M27.9 -137.25 Q28.4 -135.35 29.8 -133.75 29.85 -133.05 30.25 -132.55 31.75 -130.45 33.7 -128.9 34.25 -128.6 34.75 -128.45 L35.05 -128.35 35.1 -128.3 34.65 -127.15 34.3 -126.35 Q33.4 -124.65 33.45 -122.45 L33.65 -121.3 33.8 -121.2 34.0 -121.05 34.3 -120.8 34.8 -120.45 Q34.8 -119.75 35.1 -119.05 L35.25 -118.55 35.25 -118.5 Q36.25 -116.65 36.85 -114.8 L37.4 -114.25 37.95 -113.7 38.0 -113.5 38.1 -113.2 38.9 -112.75 39.25 -112.8 39.4 -112.8 39.65 -112.9 39.85 -113.05 Q41.5 -113.6 42.95 -114.35 L45.1 -116.2 45.9 -116.7 49.9 -119.55 50.55 -118.75 50.4 -117.7 Q50.4 -116.1 51.15 -114.65 51.5 -114.05 52.0 -113.75 52.7 -113.35 53.2 -113.45 L53.35 -113.55 57.9 -114.75 58.45 -112.65 58.45 -112.25 58.65 -109.65 58.75 -109.3 59.85 -106.05 60.7 -103.9 60.9 -103.6 Q62.8 -103.35 63.9 -102.2 L24.4 -102.15 22.7 -102.0 Q12.65 -99.95 2.5 -101.9 L0.0 -102.15 -33.25 -102.3 -33.05 -102.6 -33.0 -103.1 Q-33.15 -104.55 -32.8 -106.2 -29.5 -106.9 -26.65 -107.85 L-25.4 -108.15 -25.0 -108.4 -25.0 -108.9 -24.35 -112.2 -24.05 -112.15 -23.75 -112.15 -23.45 -112.15 -22.7 -112.2 -21.75 -112.2 -21.05 -112.2 -20.45 -112.15 -19.65 -112.15 -15.15 -111.4 Q-12.35 -110.5 -9.7 -109.2 -8.8 -109.45 -8.05 -109.9 -7.45 -110.2 -6.9 -110.7 L-6.85 -110.9 -6.7 -111.5 -7.35 -113.05 -8.5 -115.35 -10.55 -118.65 -10.6 -118.85 -10.95 -119.75 -9.9 -120.0 Q-7.4 -119.8 -5.35 -120.75 L-5.3 -120.8 -5.4 -121.15 -5.65 -122.15 -6.25 -122.65 -6.35 -122.7 -7.8 -124.4 -8.05 -124.6 -8.55 -124.95 -8.7 -124.95 -8.85 -125.3 -9.25 -126.05 -10.2 -126.95 -10.2 -127.05 -10.25 -127.25 -10.3 -128.05 -8.4 -128.6 Q-5.65 -129.7 -3.3 -131.05 L-2.4 -131.35 -1.0 -131.8 -0.1 -132.15 -0.1 -132.2 0.05 -132.4 0.55 -133.15 Q0.75 -134.35 0.25 -135.5 L-0.1 -136.1 Q-1.7 -138.5 -2.0 -141.35 L1.2 -141.85 Q3.1 -141.75 5.2 -140.85 L6.4 -140.35 Q7.5 -139.85 8.6 -139.75 9.65 -139.7 10.35 -140.25 L10.55 -140.4 10.75 -140.7 12.4 -143.7 Q13.85 -143.3 15.15 -142.3 L16.9 -141.0 22.35 -136.1 22.4 -135.85 22.65 -135.15 Q24.4 -134.2 25.8 -135.5 L25.9 -135.7 26.1 -136.25 26.4 -136.45 27.75 -137.5 27.9 -137.25 M59.6 -95.05 L59.2 -94.6 57.95 -92.45 58.0 -92.15 Q58.0 -91.7 58.15 -91.3 L58.3 -91.0 59.4 -88.05 Q56.7 -86.25 53.7 -86.15 L53.25 -86.15 53.1 -86.1 Q51.3 -86.1 50.55 -84.55 L50.6 -83.75 Q50.7 -81.65 50.25 -79.65 L46.8 -78.45 46.35 -78.4 45.95 -78.3 Q42.4 -76.15 38.35 -76.8 L38.25 -76.85 33.5 -80.2 32.7 -80.85 31.9 -80.9 Q29.25 -79.55 26.95 -77.1 L26.35 -76.55 25.65 -76.55 25.25 -76.6 24.1 -77.75 23.35 -78.5 Q20.4 -81.6 17.25 -79.35 L17.15 -79.1 17.15 -78.7 17.1 -77.6 17.2 -76.8 17.2 -76.7 17.2 -76.5 Q17.2 -75.6 17.7 -75.0 19.55 -72.75 21.8 -71.65 L22.6 -71.4 22.65 -70.85 22.8 -69.5 22.8 -69.15 22.8 -68.85 23.05 -67.75 24.75 -67.15 27.45 -66.45 28.55 -66.2 Q34.6 -65.1 38.3 -60.3 L38.35 -60.0 38.55 -59.25 Q39.3 -58.55 40.3 -58.4 L40.5 -58.35 41.95 -56.25 42.3 -55.85 Q42.5 -55.65 42.7 -55.6 44.15 -55.2 45.6 -56.25 L45.7 -56.3 45.75 -56.35 45.95 -56.7 46.15 -56.75 46.25 -56.9 46.75 -57.4 47.65 -58.15 48.85 -59.75 49.35 -59.95 50.0 -59.9 50.6 -59.4 Q52.65 -57.8 54.4 -55.8 L54.45 -55.55 54.55 -55.0 Q55.05 -54.3 55.9 -54.05 L58.75 -54.85 60.05 -55.05 61.55 -55.15 Q61.6 -53.0 60.9 -51.0 L60.35 -49.55 Q59.65 -47.0 58.5 -44.8 L58.55 -44.55 58.65 -44.0 Q58.15 -41.75 59.05 -39.15 L59.5 -37.85 Q59.85 -36.45 60.35 -35.15 L61.05 -33.2 56.05 -32.45 55.75 -32.4 55.0 -32.2 54.55 -32.05 54.25 -31.95 53.95 -31.9 53.35 -31.7 53.25 -31.65 Q52.35 -31.55 51.8 -30.9 L51.6 -30.05 51.4 -29.3 50.7 -27.0 49.05 -26.9 45.9 -26.2 45.35 -26.2 Q44.3 -26.25 43.55 -25.75 L42.5 -24.7 Q41.5 -24.35 40.95 -23.55 38.9 -22.15 36.7 -21.6 L34.8 -21.3 34.0 -22.0 Q32.3 -23.55 30.85 -25.4 30.5 -26.75 29.45 -27.8 L29.1 -28.2 29.1 -28.45 29.0 -29.8 Q27.35 -31.45 26.15 -29.95 L24.5 -29.25 23.95 -29.15 23.4 -29.55 22.65 -30.05 22.55 -30.25 Q20.65 -32.45 17.7 -33.3 L17.55 -33.45 17.0 -33.8 15.95 -34.75 14.6 -35.85 13.95 -36.05 10.8 -35.7 9.7 -30.8 9.05 -27.15 9.05 -26.75 8.9 -24.8 Q7.25 -24.7 5.85 -23.75 L5.1 -22.95 4.25 -22.1 4.15 -21.7 Q3.9 -21.05 3.95 -20.35 L2.4 -19.1 2.1 -18.75 1.7 -18.2 0.45 -17.8 0.05 -17.8 -0.7 -17.95 -2.95 -18.25 Q-4.7 -18.05 -5.85 -15.7 L-6.3 -14.95 -7.8 -15.2 Q-9.35 -16.35 -11.15 -17.0 L-11.85 -16.95 -13.65 -15.7 -15.3 -14.4 -15.3 -14.2 -15.35 -14.05 Q-16.15 -13.35 -17.1 -12.8 L-17.65 -12.0 Q-17.95 -11.75 -18.35 -11.6 L-20.9 -11.8 Q-21.75 -12.55 -22.65 -12.9 L-23.8 -13.75 -24.15 -13.85 -24.4 -13.85 -25.25 -13.65 Q-27.35 -13.9 -28.85 -12.65 L-28.95 -12.95 -29.0 -13.2 -29.65 -13.75 -29.8 -14.35 -30.0 -15.65 -30.1 -16.6 Q-30.85 -17.45 -31.85 -18.0 L-32.1 -18.15 Q-34.2 -19.15 -36.35 -18.85 -36.55 -19.85 -36.3 -20.7 L-36.05 -21.2 -35.85 -21.6 -35.4 -22.3 Q-34.15 -24.7 -33.9 -27.4 -33.8 -28.2 -34.15 -28.95 L-34.35 -29.4 Q-35.6 -31.15 -37.85 -31.3 -37.3 -32.95 -37.05 -34.65 L-36.05 -36.25 Q-34.85 -38.4 -34.65 -40.7 L-34.85 -42.4 -35.65 -43.5 -34.75 -43.85 -33.0 -44.25 -32.15 -44.4 Q-27.2 -44.95 -23.35 -47.95 L-22.3 -47.55 -20.3 -46.95 Q-18.15 -46.6 -16.85 -48.55 L-16.15 -49.05 Q-15.85 -50.2 -15.85 -51.4 L-15.9 -53.05 -16.1 -54.75 -16.6 -55.95 -18.35 -58.45 -18.4 -58.65 -18.45 -59.3 -16.8 -60.75 -14.95 -62.25 -12.1 -65.15 -12.05 -65.25 -12.0 -65.45 -12.05 -66.75 -12.05 -66.85 -12.3 -67.6 -13.5 -69.2 -13.55 -69.25 -13.65 -69.5 -13.85 -69.8 -14.05 -69.9 Q-14.6 -70.2 -15.0 -70.65 L-14.95 -70.9 -14.8 -71.45 Q-14.15 -71.95 -13.65 -72.7 L-12.65 -73.85 Q-10.8 -76.4 -9.45 -78.95 L-9.6 -79.25 Q-10.35 -80.3 -11.6 -79.85 L-12.85 -79.55 -14.3 -79.2 -18.75 -78.75 -19.05 -78.75 -19.85 -79.5 -19.95 -79.75 -20.0 -80.0 Q-20.3 -80.55 -20.95 -80.65 L-22.35 -80.0 -22.6 -79.75 -22.65 -79.5 -22.85 -79.0 Q-24.0 -77.9 -24.65 -76.5 L-25.2 -76.0 -25.3 -75.8 -25.5 -75.25 Q-27.45 -73.9 -29.1 -72.2 -30.2 -72.55 -30.9 -73.2 -31.2 -74.2 -32.25 -74.7 L-32.6 -75.0 -33.0 -75.4 -33.4 -75.35 Q-35.5 -74.65 -37.3 -73.55 L-38.25 -73.0 -38.3 -72.8 -38.45 -72.6 Q-39.4 -71.95 -40.5 -71.8 L-41.25 -72.15 -41.35 -72.35 -41.65 -72.7 -42.55 -73.3 -42.65 -73.5 -43.45 -74.65 -43.9 -74.8 -44.35 -75.0 -44.45 -75.0 -46.8 -75.2 Q-46.4 -75.65 -46.4 -76.3 L-45.35 -77.7 -44.8 -78.95 Q-43.55 -81.9 -43.2 -84.95 L-43.55 -85.45 -44.05 -85.8 Q-45.3 -86.45 -46.85 -86.6 -49.25 -86.8 -50.6 -87.65 L-50.85 -87.65 -43.4 -93.1 Q-42.45 -93.25 -41.65 -93.8 L-40.75 -95.2 -40.65 -95.75 -40.65 -95.9 -40.45 -97.3 Q-39.1 -97.7 -38.15 -98.7 L1.25 -97.85 2.5 -97.85 Q32.25 -97.55 62.1 -97.75 L60.25 -95.65 59.6 -95.05" fill="#ffff00" fill-opacity="0.5019608" fill-rule="evenodd" stroke="none"/>
  </g>
</svg>
