<?xml version="1.0" encoding="UTF-8" standalone="no"?>
<svg xmlns:ffdec="https://www.free-decompiler.com/flash" xmlns:xlink="http://www.w3.org/1999/xlink" ffdec:objectType="shape" height="104.25px" width="90.05px" xmlns="http://www.w3.org/2000/svg">
  <g transform="matrix(1.0, 0.0, 0.0, 1.0, 35.4, 130.5)">
    <path d="M23.15 -127.05 Q26.6 -123.6 26.6 -118.7 26.6 -113.8 23.15 -110.35 20.5 -107.7 17.0 -107.05 L15.5 -107.5 14.4 -107.35 13.8 -107.85 10.7 -109.4 10.7 -109.3 10.6 -108.5 10.05 -108.85 9.9 -108.45 8.3 -103.35 8.25 -103.1 8.45 -103.15 Q11.0 -101.85 13.35 -99.85 20.3 -93.95 28.95 -91.85 L29.75 -91.85 32.7 -92.2 Q38.3 -94.0 43.9 -96.05 47.05 -97.2 49.0 -99.45 51.15 -101.95 53.65 -99.8 55.0 -98.6 54.5 -96.85 L53.95 -95.65 Q53.7 -91.45 49.05 -91.65 L47.6 -91.35 Q39.8 -87.6 31.3 -86.05 25.35 -84.95 19.95 -88.25 16.95 -90.05 14.2 -92.0 10.4 -93.75 7.05 -96.55 6.5 -92.05 6.25 -87.5 L5.6 -80.35 Q4.8 -73.6 4.75 -66.75 L4.45 -60.7 5.35 -60.9 Q9.5 -60.8 13.1 -58.85 L13.35 -58.7 Q22.55 -56.75 30.95 -52.6 L31.55 -52.0 35.9 -44.9 Q36.9 -43.45 38.2 -42.25 39.35 -41.25 40.7 -40.55 L41.15 -40.65 Q42.15 -41.95 43.2 -42.55 44.35 -45.75 48.0 -46.7 52.65 -45.75 50.25 -41.9 L49.15 -40.65 49.15 -40.55 49.05 -40.15 Q48.2 -37.4 45.15 -36.35 L44.5 -36.0 Q39.65 -32.3 35.5 -36.5 L32.35 -39.5 Q28.4 -43.1 27.05 -47.95 19.85 -51.15 12.15 -53.25 L8.3 -54.1 Q5.85 -54.55 3.95 -55.9 L3.85 -56.0 Q3.2 -51.0 4.0 -46.0 4.6 -41.95 4.75 -37.7 L4.65 -35.95 Q4.2 -33.3 1.5 -33.1 -9.3 -32.4 -20.1 -33.05 L-20.2 -32.8 -20.35 -32.5 -20.55 -32.2 Q-19.45 -27.45 -23.55 -26.3 -24.65 -26.0 -25.3 -26.9 -26.8 -29.1 -26.65 -32.0 -26.45 -35.2 -24.5 -37.6 -23.5 -38.85 -21.9 -38.85 L-4.05 -38.7 -1.35 -38.8 Q-1.4 -43.9 -1.8 -48.95 -2.25 -54.4 -1.6 -59.8 -0.95 -65.15 -1.1 -70.8 L-0.9 -75.15 Q0.2 -84.6 0.9 -94.1 L1.35 -98.65 -9.05 -97.15 Q-13.25 -96.8 -16.65 -94.65 L-17.95 -93.7 Q-23.3 -89.0 -27.85 -83.65 -27.9 -78.75 -33.15 -80.1 -36.0 -80.8 -35.25 -83.7 -34.55 -86.5 -32.25 -88.55 L-24.1 -96.35 -19.2 -100.8 -18.05 -101.3 Q-7.55 -102.9 2.7 -105.25 L2.8 -105.6 3.25 -106.5 Q3.2 -107.7 3.45 -108.8 L4.0 -110.0 Q4.0 -111.6 4.65 -112.6 L4.35 -113.15 3.75 -114.4 3.6 -114.9 Q3.0 -116.7 3.0 -118.7 3.0 -123.6 6.45 -127.05 9.9 -130.5 14.8 -130.5 L17.0 -130.3 Q19.9 -129.8 22.25 -127.85 L23.15 -127.05" fill="#000000" fill-rule="evenodd" stroke="none"/>
  </g>
</svg>
