<?xml version="1.0" encoding="UTF-8" standalone="no"?>
<svg xmlns:ffdec="https://www.free-decompiler.com/flash" xmlns:xlink="http://www.w3.org/1999/xlink" ffdec:objectType="shape" height="131.75px" width="106.7px" xmlns="http://www.w3.org/2000/svg">
  <g transform="matrix(1.0, 0.0, 0.0, 1.0, 47.4, 142.85)">
    <path d="M23.75 -138.7 Q24.6 -137.15 26.05 -135.75 26.25 -135.2 26.7 -134.7 L30.05 -131.55 31.05 -131.55 31.25 -131.55 31.3 -131.55 31.15 -131.25 31.15 -130.55 Q31.05 -129.0 31.35 -126.95 L31.7 -125.95 31.8 -125.85 31.95 -125.65 32.15 -125.4 32.55 -124.95 Q32.65 -124.3 33.05 -123.75 L33.15 -123.2 33.15 -123.15 35.15 -119.95 35.7 -119.5 36.15 -119.0 36.25 -118.85 36.35 -118.6 37.1 -118.15 37.45 -118.05 37.6 -118.05 37.85 -118.05 38.1 -118.05 41.05 -118.25 43.15 -118.95 44.0 -119.05 45.3 -119.0 45.55 -118.3 45.2 -117.4 Q45.05 -115.9 45.55 -114.5 L46.15 -113.5 47.0 -112.95 47.15 -113.0 51.45 -113.4 52.6 -111.95 52.6 -111.6 52.6 -111.55 Q52.6 -110.3 52.75 -109.1 L52.9 -108.8 54.3 -105.95 Q54.9 -104.95 55.55 -104.45 L55.85 -104.3 Q58.05 -104.4 59.3 -103.35 L59.25 -103.15 59.2 -102.8 59.25 -102.5 59.3 -101.7 58.95 -100.65 57.4 -97.1 56.85 -96.55 56.6 -96.05 56.25 -93.9 56.3 -93.6 56.45 -92.85 56.6 -92.55 56.9 -91.65 Q38.15 -93.9 19.15 -93.8 2.0 -93.75 -15.2 -93.95 L-38.8 -92.8 -38.75 -92.95 -38.75 -93.05 -38.4 -94.3 Q-37.15 -95.05 -36.35 -96.4 -35.0 -97.4 -34.1 -98.8 L-33.9 -99.25 -33.5 -99.55 -33.35 -99.75 -32.8 -100.5 -32.7 -100.9 -32.05 -103.7 Q-29.3 -105.0 -27.45 -106.7 L-26.95 -107.3 -26.9 -107.6 -26.95 -108.0 -25.8 -110.9 -25.55 -110.95 -25.35 -111.05 -25.15 -111.15 -24.55 -111.35 -23.9 -111.7 -23.5 -111.9 -23.25 -112.2 -22.6 -112.5 -18.6 -112.95 Q-15.9 -112.35 -13.25 -111.4 L-11.7 -111.8 -10.55 -112.15 -10.4 -112.25 -10.1 -112.5 -9.75 -113.35 -9.4 -114.8 -10.35 -118.15 -10.35 -118.4 -10.5 -119.25 -9.7 -119.8 -5.5 -119.55 -5.45 -119.6 -5.6 -119.75 -6.1 -120.0 Q-6.25 -120.2 -6.55 -120.25 L-6.7 -121.1 -6.8 -121.3 -7.0 -121.65 -6.95 -121.6 -6.95 -121.75 -6.95 -122.35 -7.5 -123.3 -7.5 -123.45 -7.55 -123.6 -7.75 -124.35 -6.2 -125.2 Q-4.45 -127.05 -3.45 -128.75 L-2.75 -129.2 -1.45 -129.65 -0.55 -130.05 -0.5 -130.1 -0.35 -130.25 0.15 -130.9 Q0.45 -131.95 0.0 -133.1 L-0.3 -133.65 Q-1.6 -136.1 -2.25 -138.7 L-1.0 -140.05 Q0.65 -140.3 2.8 -139.4 L3.95 -138.9 Q5.05 -138.5 6.1 -138.5 7.05 -138.5 7.7 -139.0 L7.85 -139.1 8.0 -139.4 9.05 -142.4 10.8 -142.75 12.0 -142.85 17.6 -139.0 17.7 -138.8 18.1 -138.25 21.2 -138.05 21.35 -138.15 21.75 -138.45 22.0 -138.55 23.55 -138.95 23.75 -138.7 M52.35 -87.15 L52.05 -86.95 51.95 -86.9 Q50.8 -86.35 50.3 -84.85 L50.3 -84.05 Q50.4 -82.1 50.1 -80.15 L47.75 -78.15 47.35 -78.15 47.0 -78.05 39.8 -77.85 39.65 -77.95 Q36.75 -80.1 34.95 -79.9 L34.35 -79.9 33.75 -79.75 29.35 -75.85 28.7 -75.5 28.0 -75.5 27.65 -75.6 26.5 -76.65 25.75 -77.25 Q22.75 -79.8 19.7 -78.0 L19.55 -77.8 19.55 -77.45 19.55 -76.45 19.7 -75.7 19.7 -75.6 19.7 -75.45 Q19.7 -74.6 20.05 -73.95 21.3 -71.65 22.8 -70.1 L23.5 -69.75 23.65 -69.2 24.0 -68.05 24.0 -67.7 24.0 -67.45 24.35 -66.45 Q25.05 -66.05 25.8 -65.75 27.0 -65.2 28.15 -64.75 L29.1 -64.35 Q34.25 -62.3 37.65 -57.75 L37.75 -57.45 38.0 -56.7 Q38.7 -56.0 39.5 -55.65 L39.55 -55.6 39.65 -53.6 39.7 -53.2 39.85 -52.9 Q40.45 -52.2 41.6 -52.15 L41.7 -52.1 41.75 -52.1 42.15 -52.2 42.3 -52.2 42.4 -52.3 42.9 -52.7 43.85 -53.1 45.25 -54.05 45.85 -54.1 46.5 -54.0 47.05 -53.6 Q49.15 -52.3 51.0 -50.65 L51.1 -50.45 51.4 -50.0 52.65 -49.15 55.25 -49.3 56.25 -49.0 56.9 -48.55 56.25 -44.65 55.95 -43.25 Q56.25 -41.05 56.15 -39.05 L56.25 -38.85 56.45 -38.35 Q56.7 -36.4 57.8 -34.1 L58.35 -33.05 Q58.5 -31.7 58.95 -30.5 L58.65 -29.2 Q56.15 -28.95 54.05 -28.05 L53.85 -27.9 53.35 -27.45 53.2 -27.2 53.0 -27.05 52.8 -26.9 52.65 -26.55 52.6 -26.45 Q51.8 -26.35 51.25 -25.95 L50.8 -25.35 50.35 -24.9 49.15 -23.25 47.55 -22.95 Q46.6 -22.15 45.1 -21.55 L44.6 -21.55 42.85 -21.25 41.8 -20.45 Q40.85 -20.2 40.2 -19.65 38.15 -18.6 36.0 -18.15 L34.2 -17.95 33.45 -18.4 Q31.65 -19.45 30.1 -20.9 L28.4 -22.95 28.1 -23.35 28.05 -23.55 27.85 -24.85 Q26.55 -26.5 25.55 -26.0 L24.25 -26.05 23.75 -26.15 23.2 -26.5 22.45 -26.85 22.35 -27.0 Q20.2 -28.45 17.5 -28.45 L17.4 -28.6 17.05 -29.05 16.3 -30.05 15.4 -31.35 14.85 -31.6 11.85 -31.45 Q10.6 -29.85 9.55 -27.7 L8.25 -24.6 8.25 -24.25 8.15 -22.35 Q7.1 -21.75 6.15 -20.6 L5.4 -19.75 4.5 -19.3 4.3 -19.0 3.7 -18.05 2.15 -16.95 1.95 -16.6 1.7 -16.0 0.9 -15.3 0.7 -15.1 0.1 -14.95 -1.75 -14.55 Q-2.85 -13.75 -3.95 -11.6 L-4.5 -11.1 -5.95 -11.3 -9.1 -12.9 -9.7 -12.95 -11.55 -12.7 -13.1 -12.35 -13.15 -12.3 -13.2 -12.25 -14.9 -12.05 -15.45 -11.75 -16.15 -11.7 Q-17.3 -12.2 -18.5 -12.15 L-20.25 -12.45 -21.45 -12.85 -21.75 -12.9 -21.95 -12.85 Q-22.3 -12.6 -22.65 -12.5 -23.95 -13.45 -24.85 -13.4 L-24.9 -13.65 -24.95 -13.9 -25.35 -14.5 -25.45 -15.05 -25.6 -16.35 -25.7 -17.2 Q-26.25 -18.1 -27.15 -18.65 L-27.4 -18.8 Q-29.4 -19.75 -31.4 -19.7 L-32.0 -20.9 -31.75 -21.4 -31.65 -21.8 -31.2 -22.45 Q-30.2 -24.8 -30.0 -27.4 -29.9 -28.1 -30.15 -28.85 L-30.3 -29.35 Q-31.45 -30.95 -33.45 -31.4 -33.55 -32.85 -33.95 -34.2 L-32.7 -35.4 Q-31.25 -37.05 -30.5 -38.95 L-30.65 -40.55 -31.1 -41.7 -30.5 -42.2 -29.2 -43.05 -28.45 -43.25 Q-23.8 -43.9 -19.85 -46.05 L-18.8 -45.8 -16.85 -45.5 Q-14.75 -45.4 -13.45 -46.95 L-12.85 -47.45 Q-12.35 -48.4 -12.2 -49.55 L-12.1 -51.05 -12.2 -52.7 -12.85 -53.75 -14.95 -55.5 -15.1 -55.65 -15.35 -56.15 -15.2 -57.15 -15.0 -58.25 -12.35 -61.0 -12.3 -61.1 -12.3 -61.35 -12.3 -62.6 -12.25 -62.65 -12.2 -63.45 -13.05 -65.1 -13.1 -65.15 -13.25 -65.4 -13.45 -65.65 -13.65 -65.8 -14.5 -66.5 -14.55 -66.75 -14.6 -67.2 Q-14.35 -67.75 -14.25 -68.45 L-13.15 -69.45 Q-11.15 -71.5 -9.5 -73.65 L-9.45 -73.9 Q-9.75 -74.95 -10.5 -75.0 L-11.3 -75.35 -11.9 -75.65 -14.95 -77.1 -15.2 -77.15 -15.8 -77.95 -15.9 -78.15 -16.0 -78.4 Q-16.35 -78.8 -16.95 -78.85 -17.6 -78.75 -18.3 -78.25 L-18.55 -78.1 -18.65 -77.9 -18.95 -77.45 -20.85 -75.35 -21.4 -74.9 -21.5 -74.7 -21.8 -74.25 -25.25 -71.5 -27.05 -71.75 Q-27.6 -72.15 -28.6 -72.25 L-28.85 -72.55 -29.1 -73.0 -29.35 -73.1 -32.0 -73.7 -32.95 -73.5 -33.05 -73.35 -33.25 -73.25 Q-34.15 -72.8 -35.25 -72.65 L-35.95 -72.8 -36.1 -72.9 -36.45 -73.15 -37.35 -73.45 -37.4 -73.5 -38.4 -74.1 -38.85 -74.1 -39.3 -74.15 -39.35 -74.15 -41.5 -74.0 -41.75 -74.4 -41.8 -75.05 -41.35 -76.2 Q-40.4 -79.1 -40.05 -82.0 L-40.25 -82.5 -40.75 -82.85 -43.4 -83.4 -47.0 -84.1 -47.4 -84.1 -42.7 -88.75 Q-29.95 -87.9 -16.85 -88.55 14.75 -90.05 46.3 -87.8 L52.9 -87.3 52.35 -87.15" fill="#ffff00" fill-opacity="0.5019608" fill-rule="evenodd" stroke="none"/>
  </g>
</svg>
