<?xml version="1.0" encoding="UTF-8" standalone="no"?>
<svg xmlns:ffdec="https://www.free-decompiler.com/flash" xmlns:xlink="http://www.w3.org/1999/xlink" ffdec:objectType="shape" height="106.2px" width="83.3px" xmlns="http://www.w3.org/2000/svg">
  <g transform="matrix(1.0, 0.0, 0.0, 1.0, 32.25, 131.15)">
    <path d="M14.4 -131.15 Q19.3 -131.15 22.75 -127.7 26.2 -124.25 26.2 -119.35 26.2 -114.45 22.75 -111.0 20.2 -108.45 16.9 -107.75 L16.85 -107.75 15.8 -107.95 15.1 -108.15 14.95 -108.1 13.25 -108.55 9.55 -110.45 9.15 -109.15 8.85 -107.65 Q11.6 -105.75 13.45 -102.7 15.55 -99.3 18.55 -96.45 L21.5 -93.25 Q22.7 -91.8 24.2 -90.55 28.15 -90.3 31.65 -92.45 32.85 -93.2 34.3 -93.45 L43.65 -95.15 Q43.55 -100.05 48.9 -98.85 50.9 -98.35 51.05 -96.35 51.4 -91.75 46.8 -90.7 L33.8 -88.05 Q28.15 -84.4 21.75 -86.05 20.6 -86.35 19.95 -87.3 L17.9 -89.85 12.55 -95.85 Q9.7 -98.3 7.75 -101.3 L7.45 -99.4 Q7.2 -98.45 6.6 -97.65 6.45 -87.8 5.15 -78.1 L4.75 -74.6 Q4.3 -68.95 4.15 -63.4 L4.55 -63.0 Q8.4 -61.8 12.2 -60.1 19.0 -57.0 25.05 -52.85 26.55 -51.8 27.5 -50.25 L36.65 -35.25 Q41.55 -36.8 46.65 -37.0 47.6 -37.0 47.95 -36.15 49.15 -33.3 45.9 -32.2 40.1 -30.35 34.2 -30.8 33.85 -30.8 33.5 -31.1 32.0 -32.45 31.4 -34.25 L29.35 -36.7 Q28.6 -37.7 28.3 -38.9 L27.6 -39.8 Q27.1 -40.4 27.15 -41.2 L25.75 -42.75 Q25.0 -43.6 24.85 -44.65 21.3 -51.2 14.15 -53.75 L10.7 -55.05 Q7.95 -56.2 5.3 -57.45 5.1 -55.35 5.15 -53.3 5.45 -44.25 4.3 -35.45 L3.9 -35.05 -2.15 -34.75 -13.4 -36.75 -18.35 -37.25 -19.45 -32.05 -19.85 -31.2 Q-19.15 -27.6 -21.4 -25.35 -22.0 -24.7 -22.75 -25.15 -25.45 -26.6 -24.95 -30.1 L-24.5 -32.9 Q-24.4 -33.6 -23.9 -34.1 -23.85 -38.25 -21.5 -41.45 L-20.9 -41.8 Q-15.95 -42.9 -11.0 -41.4 L-7.15 -40.55 0.3 -39.85 0.2 -58.85 Q-0.65 -59.55 -0.75 -60.95 L-0.8 -61.65 -0.8 -61.7 -0.75 -62.25 -0.45 -67.4 Q-0.3 -75.6 0.85 -83.55 1.55 -88.5 1.85 -93.6 L2.1 -99.1 Q2.1 -100.15 2.4 -101.2 -6.25 -99.4 -15.05 -98.95 L-17.3 -98.8 -22.0 -91.45 -23.9 -88.7 -24.1 -88.45 -24.25 -87.55 Q-24.5 -86.85 -25.15 -86.4 L-25.35 -85.25 Q-25.4 -84.65 -25.85 -84.1 -22.05 -80.05 -26.9 -77.15 -29.45 -75.6 -31.35 -77.95 -32.2 -79.0 -32.25 -80.35 -32.35 -82.35 -31.3 -83.85 -30.4 -88.5 -27.25 -92.2 -26.15 -93.55 -25.3 -95.1 L-24.65 -95.95 Q-23.45 -100.35 -20.0 -103.45 L-19.2 -103.75 -3.3 -105.4 1.9 -106.1 3.4 -105.85 3.55 -108.35 Q3.75 -111.25 5.25 -113.1 L3.85 -114.0 3.75 -114.2 Q2.6 -116.55 2.6 -119.35 2.6 -124.25 6.05 -127.7 9.5 -131.15 14.4 -131.15" fill="#000000" fill-rule="evenodd" stroke="none"/>
  </g>
</svg>
