<?xml version="1.0" encoding="UTF-8" standalone="no"?>
<svg xmlns:ffdec="https://www.free-decompiler.com/flash" xmlns:xlink="http://www.w3.org/1999/xlink" ffdec:objectType="shape" height="137.45px" width="101.5px" xmlns="http://www.w3.org/2000/svg">
  <g transform="matrix(1.0, 0.0, 0.0, 1.0, 44.0, 144.75)">
    <path d="M23.1 -136.9 L26.35 -134.25 Q26.95 -134.25 27.3 -134.6 L27.4 -134.8 27.45 -134.85 Q27.4 -135.25 27.65 -135.35 L27.95 -134.75 29.2 -131.5 29.75 -130.55 29.8 -130.45 29.85 -130.25 29.95 -129.95 30.3 -129.5 Q30.5 -128.9 30.95 -128.4 L31.05 -127.9 31.05 -127.85 33.4 -125.15 33.95 -124.8 34.4 -124.35 34.45 -124.2 34.65 -123.95 35.3 -123.55 35.6 -123.35 35.75 -123.3 36.0 -123.2 36.3 -123.05 39.1 -122.15 41.2 -121.7 42.05 -121.45 Q41.9 -119.85 40.7 -118.5 L40.5 -117.85 40.05 -117.15 Q39.75 -115.75 39.95 -114.35 L40.25 -113.3 40.75 -112.5 40.9 -112.5 45.05 -112.1 Q45.9 -111.6 46.75 -111.25 L46.75 -110.9 46.75 -110.85 Q46.7 -109.65 46.8 -108.5 L47.0 -108.25 Q47.75 -106.95 48.75 -105.9 49.5 -105.05 50.35 -105.05 L50.75 -105.05 Q52.85 -105.5 54.25 -105.05 L54.3 -104.8 54.3 -104.45 54.4 -104.15 54.5 -103.4 54.55 -102.35 54.5 -98.6 54.05 -98.0 54.0 -97.55 54.5 -95.4 54.55 -95.1 54.8 -94.35 54.9 -94.05 55.45 -91.45 Q53.4 -89.4 51.05 -88.1 L50.9 -87.75 50.85 -87.65 Q50.25 -86.65 50.0 -85.1 L50.0 -84.4 49.9 -80.7 48.75 -77.9 48.4 -77.85 48.05 -77.85 47.3 -77.8 46.15 -77.8 Q43.7 -77.9 41.3 -78.95 L41.0 -79.1 Q38.0 -81.25 36.35 -79.65 L35.95 -79.0 35.6 -78.55 35.1 -77.8 -37.0 -77.95 -36.85 -79.0 -36.9 -79.6 -37.4 -79.9 -39.95 -80.25 -43.35 -80.6 -44.0 -80.6 -39.15 -87.15 -37.9 -88.45 -37.15 -89.7 -36.9 -90.15 -36.9 -90.2 -36.4 -91.35 Q-35.45 -92.35 -34.9 -93.75 -34.05 -95.1 -33.7 -96.75 L-33.75 -97.25 -33.35 -97.55 -33.15 -97.75 -32.6 -98.4 -32.4 -98.75 -31.25 -101.2 Q-29.15 -103.15 -28.3 -105.6 L-28.55 -106.4 -28.75 -106.8 -28.95 -107.1 -27.3 -109.6 -27.1 -109.7 -27.0 -109.9 -26.9 -110.1 -26.4 -110.5 -26.1 -111.15 -25.9 -111.65 -26.1 -112.2 -25.6 -112.8 -22.1 -114.45 -16.8 -113.65 -15.3 -113.75 -14.15 -113.55 -14.0 -113.55 -13.55 -113.55 -12.15 -113.6 Q-11.25 -113.8 -10.35 -114.3 L-10.2 -117.7 -10.15 -117.9 -10.1 -118.75 -9.55 -119.65 Q-7.55 -118.75 -5.65 -118.35 L-5.8 -118.35 -6.55 -117.9 -6.8 -117.85 -6.8 -117.8 Q-6.35 -117.2 -5.55 -117.8 L-5.5 -118.0 -5.5 -118.4 -5.25 -118.3 -5.0 -118.2 -4.6 -118.7 -4.85 -119.7 -4.85 -119.8 -4.9 -119.95 -5.15 -120.7 -3.95 -121.85 Q-3.3 -124.35 -3.65 -126.5 L-3.05 -127.0 -1.85 -127.5 Q-1.4 -127.7 -1.0 -127.95 L-0.95 -127.95 -0.8 -128.1 -0.3 -128.65 Q0.15 -129.6 -0.2 -130.75 L-0.45 -131.25 -2.5 -136.0 Q-2.65 -137.3 -3.2 -138.25 -1.85 -138.9 0.4 -137.9 0.95 -137.65 1.55 -137.5 L3.55 -137.2 Q4.4 -137.3 5.05 -137.7 L5.2 -137.85 5.2 -138.15 5.65 -141.15 6.5 -143.25 7.05 -144.75 12.9 -141.9 13.05 -141.75 13.6 -141.35 Q15.15 -140.65 16.55 -140.65 L16.8 -140.65 17.35 -140.65 17.65 -140.65 19.3 -140.35 19.55 -140.15 22.25 -137.8 23.1 -136.9 M22.4 -72.9 Q23.0 -70.5 23.75 -68.5 L24.35 -68.05 24.65 -67.55 25.15 -66.65 25.15 -66.3 25.15 -66.05 25.65 -65.15 26.85 -64.3 28.8 -63.1 29.6 -62.45 Q33.9 -59.55 37.0 -55.15 L37.15 -54.85 37.5 -54.2 38.65 -52.95 38.55 -52.9 37.4 -51.0 37.15 -50.55 37.05 -50.2 Q36.8 -49.2 37.6 -48.1 L37.7 -47.9 37.8 -47.85 38.3 -47.75 38.4 -47.7 38.5 -47.75 39.0 -48.05 40.0 -48.1 41.7 -48.3 42.3 -48.25 42.95 -48.1 43.45 -47.85 Q45.6 -46.85 47.55 -45.55 L47.75 -45.4 48.2 -45.05 Q48.75 -44.55 49.45 -44.25 L51.7 -43.7 52.4 -43.0 52.2 -41.95 51.55 -38.25 51.5 -36.95 53.75 -33.35 53.9 -33.15 54.2 -32.75 56.6 -29.1 57.15 -28.25 Q57.2 -27.0 57.5 -25.8 L56.2 -25.15 Q53.8 -24.9 52.1 -23.6 L52.0 -23.4 51.75 -22.75 51.8 -22.35 51.7 -22.1 51.6 -21.9 51.9 -21.4 51.9 -21.25 50.65 -20.95 50.0 -20.65 49.35 -20.45 47.55 -19.55 Q46.75 -19.4 46.0 -19.05 45.55 -17.85 44.35 -16.95 L43.9 -16.95 42.2 -16.75 41.05 -16.25 39.4 -15.75 35.25 -14.75 33.55 -14.55 32.85 -14.8 Q30.95 -15.4 29.3 -16.45 L27.3 -18.1 27.1 -18.5 27.05 -18.7 26.75 -19.9 Q25.8 -21.5 24.95 -22.1 24.5 -22.4 24.0 -22.85 L23.5 -23.2 22.95 -23.5 22.2 -23.7 22.1 -23.75 17.25 -23.6 17.2 -23.8 17.05 -24.25 16.7 -25.4 16.25 -26.9 15.7 -27.2 Q14.25 -27.45 12.9 -27.2 11.0 -26.3 9.4 -24.6 L7.5 -22.05 7.5 -21.7 7.45 -19.95 6.4 -17.45 5.65 -16.6 4.7 -16.45 4.4 -16.35 3.4 -15.8 Q2.6 -15.4 1.95 -14.85 L1.85 -14.5 1.7 -13.85 1.3 -12.85 1.3 -12.45 0.95 -12.0 -0.6 -10.9 Q-1.0 -9.45 -2.1 -7.55 L-2.7 -7.3 -4.05 -7.45 -7.1 -8.8 -7.6 -9.0 -9.4 -9.65 -10.9 -10.35 -10.95 -10.35 -11.05 -10.45 -12.75 -11.3 -13.3 -11.55 -13.95 -11.85 Q-15.0 -12.55 -16.05 -12.45 -17.0 -12.65 -17.9 -11.95 L-19.05 -12.0 -19.3 -11.9 -19.45 -11.8 -20.1 -11.4 -20.9 -14.2 -20.9 -14.4 -20.95 -14.65 -21.1 -15.2 -21.15 -15.75 -21.2 -17.05 -21.25 -17.85 Q-21.65 -18.75 -22.5 -19.25 L-22.75 -19.45 Q-24.65 -20.4 -26.5 -20.5 L-27.75 -21.15 -27.5 -21.65 -27.45 -22.05 -27.05 -22.65 Q-26.2 -24.95 -26.1 -27.35 L-26.2 -28.8 -26.25 -29.25 Q-27.35 -30.8 -29.05 -31.55 -29.8 -32.8 -30.85 -33.8 -30.05 -34.15 -29.35 -34.6 -27.65 -35.75 -26.4 -37.25 L-26.4 -38.75 -26.6 -39.85 -26.25 -40.6 -25.45 -41.9 -24.8 -42.15 Q-20.45 -42.8 -16.3 -44.2 L-15.3 -44.1 -13.45 -44.1 Q-11.4 -44.15 -10.1 -45.4 L-9.5 -45.8 Q-8.9 -46.65 -8.6 -47.65 -8.4 -48.35 -8.35 -49.1 L-8.35 -50.65 Q-8.6 -51.25 -9.15 -51.5 L-11.6 -52.6 -11.75 -52.7 -12.3 -52.95 -13.6 -53.6 -15.05 -54.25 -12.65 -56.9 -12.6 -57.0 -12.6 -57.2 -12.55 -58.4 -12.5 -58.5 -12.15 -59.25 -12.65 -60.95 -12.7 -61.05 -12.9 -61.25 -13.1 -61.55 -13.3 -61.65 -14.05 -62.35 -14.2 -62.55 -14.4 -63.0 -14.8 -64.25 -13.7 -65.0 -9.6 -68.3 -9.35 -68.55 Q-9.15 -69.55 -9.4 -70.2 L-9.8 -71.15 Q-9.25 -71.45 -9.55 -72.15 L-10.6 -74.45 22.25 -74.2 Q22.25 -73.5 22.4 -72.9 M-25.25 -70.6 L-25.35 -70.9 -26.65 -73.8 -27.6 -74.05 -27.75 -73.95 -28.0 -73.9 -29.95 -73.5 -30.65 -73.5 -30.8 -73.5 -31.25 -73.55 -32.1 -73.55 -32.2 -73.55 -33.35 -73.6 -33.85 -73.45 -34.3 -73.35 -36.25 -72.75 -37.15 -72.55 -38.2 -72.35 -37.9 -73.5 -37.6 -74.7 -16.7 -74.5 -17.1 -74.15 -17.6 -73.8 -17.75 -73.65 -18.1 -73.3 -21.4 -70.85 -23.25 -70.25 -25.0 -69.75 -25.1 -70.05 -25.25 -70.6" fill="#ffff00" fill-opacity="0.5019608" fill-rule="evenodd" stroke="none"/>
  </g>
</svg>
