<?xml version="1.0" encoding="UTF-8" standalone="no"?>
<svg xmlns:ffdec="https://www.free-decompiler.com/flash" xmlns:xlink="http://www.w3.org/1999/xlink" ffdec:objectType="shape" height="108.7px" width="75.5px" xmlns="http://www.w3.org/2000/svg">
  <g transform="matrix(1.0, 0.0, 0.0, 1.0, 27.5, 131.55)">
    <path d="M22.3 -128.1 Q25.75 -124.65 25.75 -119.75 25.75 -114.85 22.3 -111.4 19.65 -108.75 16.15 -108.1 L14.65 -108.55 13.55 -108.4 12.95 -108.9 10.2 -110.3 9.8 -108.95 9.25 -107.85 9.35 -107.55 9.5 -107.05 Q11.95 -106.15 13.45 -103.5 L15.1 -100.7 19.85 -93.0 Q20.7 -92.6 21.15 -91.8 L21.7 -91.05 Q31.1 -93.05 40.5 -95.6 40.2 -100.25 45.05 -99.35 47.2 -98.95 47.75 -96.8 49.05 -91.5 43.5 -90.1 L28.35 -86.2 23.0 -85.25 Q17.65 -84.6 15.0 -89.3 12.05 -94.7 8.5 -99.7 L7.35 -92.25 6.55 -86.85 Q5.25 -75.9 5.85 -64.65 L5.85 -62.8 Q9.9 -61.25 13.25 -58.05 L15.75 -55.55 26.0 -50.0 26.45 -49.6 Q30.8 -44.4 33.85 -38.45 L35.9 -33.75 44.2 -33.45 Q44.6 -33.45 44.9 -33.05 47.25 -29.75 43.5 -28.15 L42.25 -27.8 Q37.55 -27.15 32.95 -27.7 32.15 -27.8 31.65 -28.55 30.0 -31.25 29.25 -34.3 27.3 -36.9 25.7 -39.75 24.85 -41.3 24.35 -42.95 20.6 -46.7 15.7 -49.15 13.05 -50.45 10.8 -52.2 L5.55 -56.05 6.15 -54.15 Q8.05 -49.45 10.55 -45.0 12.55 -41.4 10.4 -38.3 9.85 -37.5 8.9 -37.25 -0.35 -34.45 -10.1 -33.8 L-10.9 -31.25 Q-11.1 -30.55 -11.65 -30.1 -11.65 -28.4 -12.25 -26.95 L-12.9 -25.75 Q-13.4 -21.55 -17.35 -23.4 -18.8 -24.05 -18.6 -25.65 -18.2 -29.8 -16.45 -33.45 -16.05 -38.6 -11.3 -39.35 L-1.45 -41.15 4.8 -42.55 Q0.15 -51.75 -1.45 -61.9 -1.6 -62.9 -0.8 -63.6 L-0.4 -63.85 Q-0.35 -72.9 0.15 -81.75 0.8 -92.9 2.9 -103.7 L2.9 -103.75 Q-3.0 -103.45 -8.95 -103.5 -12.05 -103.5 -14.15 -101.6 L-15.0 -100.75 Q-20.2 -94.9 -21.7 -87.4 -19.3 -85.75 -19.65 -82.8 -19.95 -80.1 -22.7 -79.9 -27.2 -79.55 -27.45 -83.55 -28.15 -94.6 -21.15 -103.05 L-17.8 -107.35 Q-17.2 -108.15 -16.15 -108.3 L-9.6 -109.3 3.55 -109.05 Q3.75 -110.65 4.35 -112.05 L4.0 -112.25 4.1 -113.1 4.05 -113.1 4.1 -113.2 3.5 -114.2 2.9 -115.45 2.75 -115.95 Q2.15 -117.75 2.15 -119.75 2.15 -124.65 5.6 -128.1 9.05 -131.55 13.95 -131.55 L16.15 -131.35 Q19.05 -130.85 21.4 -128.9 L22.3 -128.1" fill="#000000" fill-rule="evenodd" stroke="none"/>
  </g>
</svg>
