<?xml version="1.0" encoding="UTF-8" standalone="no"?>
<svg xmlns:ffdec="https://www.free-decompiler.com/flash" xmlns:xlink="http://www.w3.org/1999/xlink" ffdec:objectType="shape" height="143.2px" width="96.65px" xmlns="http://www.w3.org/2000/svg">
  <g transform="matrix(1.0, 0.0, 0.0, 1.0, 40.6, 146.65)">
    <path d="M29.9 -60.9 Q34.4 -55.9 37.8 -50.25 L35.1 -48.35 Q32.8 -46.85 33.7 -43.7 L34.55 -43.2 35.1 -43.4 36.2 -43.05 Q42.75 -41.8 48.15 -38.15 48.2 -37.5 48.55 -36.95 46.35 -34.2 47.1 -30.65 52.0 -27.6 55.95 -23.45 55.85 -22.25 56.05 -21.15 52.15 -21.7 50.1 -19.2 L50.1 -18.9 50.1 -18.05 50.45 -17.5 50.45 -17.2 50.45 -16.9 51.25 -16.05 Q49.75 -15.9 48.3 -16.05 46.25 -16.25 44.5 -15.15 44.55 -13.5 43.55 -12.3 L41.5 -12.25 34.5 -11.3 Q29.85 -10.7 26.2 -13.25 L23.75 -19.65 Q23.45 -20.35 22.7 -20.45 19.65 -20.7 17.05 -18.75 L17.05 -19.0 17.05 -22.45 16.55 -22.8 Q10.75 -23.7 6.7 -19.5 L6.7 -19.2 6.7 -14.3 5.95 -13.45 Q3.4 -14.15 1.7 -12.7 L1.7 -12.4 1.7 -10.35 1.9 -9.8 Q1.7 -8.3 0.55 -7.2 0.85 -5.15 -0.2 -3.45 -4.45 -3.3 -7.3 -6.65 L-11.15 -11.35 Q-13.45 -14.25 -15.55 -11.5 L-16.7 -11.15 -16.9 -10.95 -17.5 -10.25 Q-16.85 -13.95 -16.8 -17.75 -16.75 -19.4 -18.1 -20.1 -21.0 -21.65 -23.45 -21.4 -23.15 -21.8 -23.25 -22.3 L-22.85 -22.85 Q-22.0 -25.95 -22.2 -29.2 -24.35 -32.05 -27.75 -33.4 -24.8 -33.95 -22.3 -35.55 L-21.7 -40.7 -21.1 -41.05 -10.0 -42.7 Q-4.45 -43.45 -4.45 -48.6 -4.75 -49.2 -5.4 -49.3 L-15.1 -50.25 Q-14.3 -51.75 -12.9 -52.8 L-12.8 -54.25 -12.1 -55.1 -12.2 -56.85 -12.95 -57.55 -15.4 -60.0 -14.3 -60.55 29.9 -60.9 M22.65 -136.95 Q23.3 -137.1 23.6 -137.7 L23.6 -138.0 Q23.55 -139.0 24.15 -139.45 26.15 -138.05 27.05 -136.0 27.6 -135.65 27.8 -135.1 L27.8 -134.85 27.8 -134.55 Q28.15 -133.65 28.9 -133.1 L28.95 -132.55 Q30.35 -130.9 32.25 -130.05 L32.6 -129.65 40.1 -123.8 Q38.55 -119.85 34.85 -116.9 34.0 -114.45 34.55 -112.0 37.65 -110.55 40.9 -110.55 L40.9 -110.25 40.9 -107.95 Q41.9 -106.7 43.2 -105.8 44.1 -105.15 45.2 -105.6 47.45 -106.6 49.25 -106.7 L51.65 -100.05 51.25 -99.5 Q51.25 -99.2 51.4 -99.05 53.6 -96.35 53.45 -93.15 51.75 -91.0 49.7 -89.1 L49.7 -88.55 49.7 -77.6 Q45.75 -78.0 42.4 -80.25 39.25 -82.35 37.8 -79.35 37.6 -75.5 34.15 -73.35 L32.7 -73.45 31.25 -74.45 Q27.7 -76.4 24.35 -75.3 L24.35 -75.0 24.35 -74.15 24.75 -73.55 24.75 -73.3 24.75 -66.95 26.3 -65.2 26.3 -65.1 -8.45 -64.75 Q-8.15 -65.8 -8.25 -66.95 -7.2 -67.55 -7.2 -68.65 -7.1 -71.25 -7.45 -73.8 -7.75 -76.3 -10.2 -74.85 -16.15 -71.4 -21.35 -67.3 L-21.35 -67.6 -21.35 -73.95 Q-21.65 -74.55 -22.3 -74.55 -26.0 -74.6 -29.25 -72.55 -32.15 -70.75 -34.65 -69.7 L-33.6 -76.65 -34.1 -76.95 -40.6 -77.1 Q-38.35 -82.5 -35.05 -87.35 -32.85 -90.6 -33.25 -94.7 L-33.6 -95.25 Q-28.9 -98.95 -29.1 -104.5 L-30.95 -106.2 Q-30.1 -107.45 -28.6 -108.5 L-28.6 -108.8 -28.6 -109.1 -28.25 -109.65 Q-28.15 -110.55 -28.35 -111.4 L-28.9 -112.25 Q-28.65 -112.65 -28.55 -113.15 L-25.55 -116.0 -18.95 -115.7 Q-15.3 -113.3 -11.25 -113.8 -10.0 -116.55 -9.4 -119.45 L-5.7 -117.15 Q-6.8 -116.6 -7.1 -115.45 -6.15 -113.95 -4.45 -114.5 L-4.25 -114.7 -3.95 -115.15 -3.1 -114.65 Q-2.6 -114.7 -2.3 -115.05 -2.05 -115.6 -2.15 -116.2 L-2.6 -117.05 -1.75 -118.5 Q-2.15 -121.7 -3.85 -124.25 L-3.4 -124.85 Q-2.8 -125.05 -2.3 -125.35 -1.8 -125.6 -1.4 -125.85 0.0 -126.75 -0.45 -128.35 -1.75 -132.95 -5.4 -136.45 -4.3 -137.45 -2.0 -136.45 L2.5 -136.55 2.45 -136.85 Q2.2 -141.75 2.1 -146.65 13.25 -143.95 22.65 -136.95" fill="#ffff00" fill-opacity="0.5019608" fill-rule="evenodd" stroke="none"/>
  </g>
</svg>
