<?xml version="1.0" encoding="UTF-8" standalone="no"?>
<svg xmlns:ffdec="https://www.free-decompiler.com/flash" xmlns:xlink="http://www.w3.org/1999/xlink" ffdec:objectType="shape" height="111.75px" width="67.25px" xmlns="http://www.w3.org/2000/svg">
  <g transform="matrix(1.0, 0.0, 0.0, 1.0, 23.7, 131.55)">
    <path d="M14.4 -131.55 Q19.3 -131.55 22.75 -128.1 26.2 -124.65 26.2 -119.75 26.2 -114.85 22.75 -111.4 20.1 -108.75 16.6 -108.1 L15.1 -108.55 14.0 -108.4 13.4 -108.9 9.95 -110.65 9.65 -109.3 9.2 -107.55 Q11.55 -106.05 12.7 -103.05 13.2 -101.65 14.0 -100.3 15.95 -97.05 16.7 -93.45 17.8 -92.35 18.05 -90.9 L18.4 -89.7 33.3 -92.7 Q35.2 -93.1 36.85 -94.1 38.45 -98.6 42.5 -96.2 43.6 -95.55 43.55 -94.2 43.2 -89.15 38.1 -87.45 31.15 -85.15 23.6 -84.5 L18.15 -83.6 Q14.45 -82.65 13.05 -86.05 12.75 -86.75 12.85 -87.5 12.4 -88.05 12.2 -88.65 12.0 -89.2 12.1 -89.8 L9.0 -96.0 7.35 -99.55 7.1 -99.0 5.4 -85.15 Q4.1 -75.1 4.2 -64.85 6.35 -64.0 8.4 -62.65 L13.45 -59.5 14.3 -58.5 24.45 -50.85 25.55 -49.75 Q27.0 -47.75 27.05 -45.35 28.05 -43.6 28.3 -41.6 L28.6 -38.15 Q29.8 -35.15 30.05 -31.8 30.25 -28.9 30.9 -26.15 L41.1 -25.85 Q41.9 -25.75 42.05 -24.95 42.95 -20.75 38.1 -20.75 L37.4 -20.65 Q32.05 -19.35 27.25 -21.35 26.4 -21.7 26.05 -22.6 24.1 -27.35 23.5 -32.5 L22.9 -38.65 Q22.3 -45.95 16.45 -50.05 L9.15 -54.95 Q11.75 -50.9 14.95 -47.25 16.65 -45.35 17.1 -43.05 17.65 -40.2 15.6 -38.2 13.35 -36.0 10.35 -34.85 3.65 -32.35 -2.5 -28.9 0.25 -26.05 1.05 -22.5 1.25 -21.6 0.55 -21.0 -2.8 -18.25 -5.05 -21.85 -7.55 -25.75 -10.65 -29.2 -10.95 -29.6 -10.85 -30.15 -10.35 -33.55 -6.5 -34.3 L-5.05 -34.7 Q3.5 -37.65 11.0 -42.15 L3.55 -52.55 Q3.2 -53.05 3.25 -53.7 -0.55 -57.9 -3.05 -62.75 -3.35 -63.35 -3.05 -64.05 -2.6 -65.0 -1.8 -65.45 L-1.7 -71.95 Q-1.25 -83.15 0.35 -94.15 1.0 -98.65 2.05 -103.0 -6.05 -102.35 -14.05 -100.75 L-14.7 -99.35 Q-14.95 -98.5 -15.55 -97.85 -16.55 -94.5 -16.85 -90.95 -17.0 -89.65 -17.5 -88.35 -13.25 -87.5 -13.6 -83.15 -14.0 -78.25 -19.55 -79.25 -24.25 -80.1 -23.6 -85.05 L-22.95 -89.85 -21.7 -98.0 -20.85 -101.4 Q-18.85 -107.15 -12.7 -107.25 L-8.8 -107.5 3.2 -109.25 Q3.3 -111.55 4.5 -113.3 2.6 -116.15 2.6 -119.75 2.6 -124.65 6.05 -128.1 9.5 -131.55 14.4 -131.55" fill="#000000" fill-rule="evenodd" stroke="none"/>
  </g>
</svg>
