<?xml version="1.0" encoding="UTF-8" standalone="no"?>
<svg xmlns:ffdec="https://www.free-decompiler.com/flash" xmlns:xlink="http://www.w3.org/1999/xlink" ffdec:objectType="shape" height="140.9px" width="87.45px" xmlns="http://www.w3.org/2000/svg">
  <g transform="matrix(1.0, 0.0, 0.0, 1.0, 35.0, 144.85)">
    <path d="M27.6 -138.45 Q28.8 -137.05 29.2 -135.15 L29.6 -134.3 29.55 -134.1 29.5 -133.85 29.75 -133.15 30.0 -132.8 30.25 -132.45 30.3 -131.9 30.7 -131.4 Q31.85 -130.2 33.35 -129.55 L33.75 -129.2 34.2 -128.9 36.2 -126.6 38.9 -123.3 Q37.9 -120.6 36.35 -118.25 L35.7 -117.05 35.25 -116.65 34.5 -114.2 34.35 -112.4 Q36.15 -110.9 38.4 -110.35 L38.4 -110.05 38.35 -108.7 38.5 -107.95 Q39.55 -106.85 40.85 -106.1 L42.8 -105.9 43.85 -106.25 46.5 -106.7 49.65 -101.5 49.5 -101.1 49.75 -100.7 Q52.0 -98.55 52.45 -95.9 L52.0 -95.05 49.7 -91.95 49.7 -91.7 49.7 -91.45 48.65 -85.45 48.65 -85.1 48.7 -82.3 48.8 -81.55 Q46.35 -81.35 44.2 -82.4 L43.35 -82.65 42.15 -82.5 Q41.25 -82.1 40.5 -80.9 L40.4 -80.5 39.95 -79.5 Q38.7 -77.7 36.45 -76.05 L36.1 -76.0 35.35 -75.9 34.25 -76.3 31.0 -76.4 30.15 -76.15 29.85 -76.0 29.15 -75.7 29.15 -75.45 29.15 -75.0 29.05 -74.7 29.25 -74.2 29.2 -74.0 28.2 -68.6 29.0 -67.0 28.95 -66.75 28.95 -66.5 28.95 -66.4 29.8 -65.2 30.25 -64.75 31.7 -63.25 33.7 -61.0 33.9 -60.7 36.1 -56.85 37.25 -53.8 -14.0 -53.2 -13.85 -54.2 -13.25 -54.95 Q-13.15 -55.8 -13.2 -56.6 L-13.7 -57.25 -15.1 -59.6 -9.95 -62.35 -9.3 -62.7 Q-8.05 -64.15 -8.0 -66.0 -7.25 -66.5 -7.1 -67.35 L-7.1 -67.6 -7.15 -68.0 -7.15 -68.4 -7.15 -68.75 -7.9 -72.2 Q-8.4 -74.35 -10.45 -73.5 L-15.75 -71.8 -16.75 -71.45 Q-17.4 -71.15 -17.95 -71.0 L-18.65 -70.65 -19.45 -70.15 -19.75 -69.9 -19.7 -70.15 Q-19.15 -72.9 -18.75 -75.7 -18.9 -76.25 -19.3 -76.35 L-19.6 -76.35 -23.1 -76.5 -24.85 -76.1 Q-27.35 -75.25 -29.5 -74.95 L-29.3 -81.35 -29.7 -81.65 -34.8 -82.9 -35.0 -82.9 Q-32.45 -86.65 -29.35 -90.3 L-28.65 -91.4 Q-28.1 -92.15 -27.7 -93.0 -26.85 -95.5 -27.15 -98.25 L-27.45 -98.75 Q-24.3 -102.25 -24.45 -106.95 L-24.3 -107.55 -25.15 -108.9 -22.85 -110.95 -22.8 -111.25 -22.75 -111.5 -22.5 -111.9 -22.5 -112.0 -22.5 -112.2 -22.45 -112.55 -22.4 -113.55 -22.75 -114.35 -22.5 -115.0 -22.45 -115.2 -20.15 -118.15 -15.1 -119.15 -12.3 -118.7 Q-10.5 -118.05 -8.6 -118.2 L-7.5 -119.9 -7.3 -120.4 -6.75 -123.0 -3.95 -122.1 Q-4.75 -121.95 -5.0 -121.3 L-2.95 -121.2 -2.8 -121.4 -2.6 -121.85 -1.95 -121.65 -1.3 -122.1 -1.2 -123.2 -1.55 -123.95 -1.2 -124.8 -0.7 -125.2 Q-0.5 -127.45 -1.2 -129.05 L-1.15 -129.1 -0.8 -129.4 0.2 -129.6 1.05 -129.85 Q2.4 -130.4 2.35 -131.65 L2.15 -133.75 2.1 -134.0 0.1 -137.25 Q0.7 -137.9 1.45 -138.0 L2.85 -137.8 3.45 -137.75 Q5.4 -137.35 7.05 -138.35 L7.05 -138.6 7.3 -140.25 7.5 -141.0 7.5 -144.85 9.0 -144.15 Q9.35 -143.95 9.8 -143.85 18.8 -141.75 26.75 -137.2 L26.8 -137.05 Q27.25 -137.1 27.4 -137.45 L27.4 -137.65 Q27.25 -138.25 27.6 -138.45 M35.3 -49.15 Q34.95 -47.95 35.5 -46.3 L36.25 -45.8 36.75 -45.85 Q37.2 -45.55 37.65 -45.4 40.7 -44.25 42.95 -42.5 L45.8 -39.9 Q45.7 -39.35 45.9 -38.9 43.9 -36.75 43.75 -34.1 L43.8 -33.5 Q47.4 -30.1 50.65 -25.95 50.65 -24.8 50.9 -23.75 49.4 -23.6 48.4 -22.8 L48.1 -22.6 46.95 -21.45 46.65 -21.1 46.6 -20.85 46.55 -20.65 46.45 -20.15 46.6 -19.75 46.55 -19.55 46.5 -19.3 46.95 -18.65 44.15 -18.5 42.6 -18.25 41.05 -17.2 Q41.1 -15.65 40.4 -14.45 L39.0 -14.05 36.8 -13.1 34.15 -12.0 Q31.55 -11.0 29.05 -11.55 28.3 -11.75 27.65 -12.2 L27.25 -13.0 Q26.0 -15.6 24.6 -17.35 24.3 -17.85 23.6 -17.8 L23.4 -17.8 22.35 -17.6 Q20.4 -17.1 18.7 -15.7 L18.65 -15.85 18.2 -17.95 17.75 -18.15 15.7 -17.95 15.4 -17.9 15.1 -17.8 Q13.05 -17.15 11.05 -16.1 L9.15 -15.3 9.15 -15.15 9.1 -14.55 8.85 -13.55 8.55 -12.75 8.4 -12.2 7.7 -11.65 Q5.35 -12.25 3.65 -11.15 L3.6 -10.9 3.4 -9.85 3.25 -9.3 3.3 -8.9 Q2.85 -7.7 1.75 -6.85 1.6 -5.25 0.45 -3.95 -3.5 -3.8 -6.4 -6.4 L-6.7 -6.7 -9.0 -10.95 Q-10.25 -13.25 -11.5 -12.15 L-11.8 -11.95 -12.15 -11.9 -12.85 -11.8 -13.05 -11.7 -13.65 -11.3 Q-13.7 -14.45 -14.35 -17.65 -14.55 -19.0 -15.8 -19.6 L-16.3 -19.85 Q-17.8 -21.0 -19.05 -21.0 -18.75 -21.35 -18.75 -21.75 L-18.35 -22.2 Q-17.35 -24.45 -16.95 -26.75 L-16.95 -27.15 -17.0 -27.65 -17.7 -28.75 Q-19.45 -30.7 -21.85 -31.9 -20.9 -32.3 -20.15 -32.9 L-18.55 -34.35 Q-18.7 -36.8 -18.35 -39.15 L-17.9 -39.55 -17.6 -39.7 -16.3 -40.15 Q-12.3 -41.3 -8.65 -42.65 L-7.8 -42.95 Q-4.9 -44.45 -5.65 -48.2 L-6.1 -48.6 35.35 -49.2 35.3 -49.15" fill="#ffff00" fill-opacity="0.5019608" fill-rule="evenodd" stroke="none"/>
  </g>
</svg>
