<?xml version="1.0" encoding="UTF-8" standalone="no"?>
<svg xmlns:ffdec="https://www.free-decompiler.com/flash" xmlns:xlink="http://www.w3.org/1999/xlink" ffdec:objectType="shape" height="111.95px" width="57.45px" xmlns="http://www.w3.org/2000/svg">
  <g transform="matrix(1.0, 0.0, 0.0, 1.0, 16.05, 132.35)">
    <path d="M22.65 -128.9 Q26.1 -125.45 26.1 -120.55 26.1 -115.65 22.65 -112.2 20.0 -109.55 16.5 -108.9 L15.6 -109.15 9.7 -109.4 9.5 -109.2 8.4 -105.65 9.2 -105.85 Q12.7 -105.05 13.7 -101.3 L14.15 -100.4 Q16.15 -97.6 17.05 -94.35 L18.8 -91.8 19.3 -90.7 Q26.25 -89.95 31.95 -93.75 L34.15 -95.2 Q33.1 -100.6 38.9 -99.65 41.5 -99.2 41.4 -96.65 41.25 -92.75 38.0 -90.05 37.05 -89.2 35.95 -88.5 34.2 -87.4 32.25 -86.65 24.6 -83.65 16.4 -85.55 14.05 -86.05 13.2 -88.45 11.65 -92.55 9.25 -96.15 8.15 -97.75 7.55 -99.45 L7.55 -96.8 7.35 -94.85 Q4.75 -84.2 5.25 -72.9 L5.95 -62.55 5.95 -62.05 Q9.6 -60.5 12.65 -57.65 L18.45 -52.65 Q23.3 -48.8 23.7 -42.45 23.9 -39.25 24.75 -36.15 25.8 -33.8 26.3 -31.2 26.7 -29.4 27.65 -27.85 34.0 -28.25 38.5 -24.5 38.9 -24.15 38.8 -23.6 37.7 -19.1 32.8 -20.95 L30.5 -21.3 Q26.05 -21.1 23.05 -23.8 22.25 -24.5 21.95 -25.55 L18.1 -37.75 17.8 -39.7 Q17.7 -43.6 15.7 -46.75 L14.1 -48.75 Q16.0 -45.7 17.1 -42.25 17.75 -40.35 16.2 -39.2 14.75 -38.1 13.1 -37.3 7.05 -34.5 1.35 -30.95 4.3 -28.9 5.25 -25.65 5.45 -25.0 5.0 -24.45 2.4 -21.5 -0.7 -24.3 -3.9 -27.2 -4.9 -31.05 -5.85 -34.55 -2.6 -36.15 L2.75 -38.85 10.35 -42.65 0.9 -58.35 Q0.0 -59.1 -0.1 -59.95 L-0.2 -60.1 Q-0.75 -60.9 -0.45 -61.8 L-0.55 -62.85 Q-0.2 -72.6 -0.45 -82.4 -0.6 -88.1 0.9 -93.45 2.2 -97.9 2.35 -102.65 -4.6 -101.25 -10.1 -96.45 -10.25 -92.95 -8.45 -89.65 L-7.45 -87.5 Q-7.1 -86.65 -7.1 -85.8 L-6.4 -84.7 Q-5.9 -83.7 -5.95 -82.6 L-5.8 -82.3 -5.3 -81.45 -5.0 -80.9 Q0.35 -78.1 -3.15 -73.55 -3.7 -72.85 -4.6 -72.95 -9.1 -73.6 -10.75 -78.2 L-11.65 -81.2 -11.75 -81.75 Q-13.0 -83.05 -13.4 -84.85 L-13.75 -87.2 Q-17.1 -92.9 -15.6 -99.25 -15.3 -100.5 -14.3 -101.3 -10.55 -104.25 -6.25 -106.15 -1.75 -108.15 3.1 -108.85 L3.9 -110.85 4.75 -112.85 4.35 -113.05 4.45 -113.9 4.4 -113.9 4.45 -114.0 3.85 -115.0 3.25 -116.25 3.1 -116.75 Q2.5 -118.55 2.5 -120.55 2.5 -125.45 5.95 -128.9 9.4 -132.35 14.3 -132.35 L16.5 -132.15 Q19.4 -131.65 21.75 -129.7 L22.65 -128.9" fill="#000000" fill-rule="evenodd" stroke="none"/>
  </g>
</svg>
