<?xml version="1.0" encoding="UTF-8" standalone="no"?>
<svg xmlns:ffdec="https://www.free-decompiler.com/flash" xmlns:xlink="http://www.w3.org/1999/xlink" ffdec:objectType="shape" height="138.6px" width="80.85px" xmlns="http://www.w3.org/2000/svg">
  <g transform="matrix(1.0, 0.0, 0.0, 1.0, 29.4, 143.1)">
    <path d="M31.1 -137.15 Q31.45 -135.85 31.3 -134.35 L31.4 -133.55 31.35 -133.35 31.25 -133.1 31.3 -132.55 31.45 -132.2 31.65 -131.8 31.65 -131.3 31.9 -130.8 Q33.0 -129.65 34.45 -129.0 L34.95 -128.7 35.35 -128.5 Q36.25 -127.3 36.55 -126.15 36.9 -124.5 37.65 -122.75 L36.0 -117.85 36.0 -116.8 35.7 -116.4 34.7 -114.25 34.2 -112.8 Q34.7 -111.25 35.95 -110.15 L35.9 -109.85 35.75 -108.55 36.1 -107.9 Q37.2 -107.0 38.5 -106.45 L40.4 -106.2 41.25 -106.45 43.8 -106.7 47.7 -103.0 47.8 -102.65 48.1 -102.4 Q50.4 -100.7 51.45 -98.6 L51.4 -97.95 49.7 -94.8 49.7 -94.55 49.65 -94.4 47.6 -89.15 47.6 -88.8 47.65 -86.2 47.9 -85.55 Q46.95 -84.65 46.0 -84.5 L45.6 -84.4 44.8 -83.9 43.15 -82.5 43.0 -82.2 42.4 -81.5 Q40.7 -80.45 38.8 -78.75 L38.5 -78.65 37.95 -78.3 37.3 -78.15 Q36.2 -77.95 35.3 -77.05 L34.6 -76.75 34.45 -76.55 34.0 -76.15 33.95 -75.9 33.9 -75.5 33.75 -75.25 33.75 -74.85 33.65 -74.65 31.6 -70.25 31.7 -68.8 31.65 -68.55 31.6 -68.4 31.5 -68.3 Q31.75 -67.65 32.15 -67.1 L32.6 -66.6 33.95 -65.15 35.85 -62.95 36.0 -62.65 37.4 -58.8 Q37.35 -57.3 37.6 -55.45 L37.8 -54.7 36.85 -52.6 Q36.65 -52.0 36.8 -51.4 36.75 -50.25 37.35 -48.85 L37.9 -48.4 38.35 -48.25 39.15 -47.75 Q41.7 -46.2 42.9 -44.1 L43.45 -41.65 43.35 -41.4 -8.5 -41.65 -7.25 -42.6 -6.7 -43.0 Q-5.3 -44.95 -6.85 -47.8 L-7.65 -48.25 -7.8 -48.3 -16.05 -50.45 -16.0 -51.1 -15.35 -52.45 -15.05 -52.85 -14.85 -54.1 -14.4 -54.8 -14.2 -56.3 -14.4 -56.9 -14.75 -59.2 Q-12.55 -60.7 -10.0 -61.9 L-9.35 -62.2 Q-8.05 -63.45 -7.75 -65.05 -7.15 -65.55 -6.95 -66.35 L-7.0 -66.6 -7.15 -66.95 -7.15 -67.3 -7.15 -67.65 -8.4 -70.65 Q-9.05 -72.35 -10.75 -72.1 L-15.55 -72.35 -16.3 -72.5 -17.4 -72.5 -17.8 -72.6 -18.0 -72.6 -18.1 -72.55 -18.0 -72.75 Q-16.9 -74.95 -16.1 -77.45 L-16.3 -78.15 -16.5 -78.15 Q-17.5 -79.05 -18.95 -79.45 L-20.4 -79.6 -24.35 -80.2 -25.0 -86.1 -25.3 -86.4 Q-27.55 -87.65 -29.25 -88.65 L-29.4 -88.65 -22.95 -94.4 -22.3 -95.4 -21.35 -96.9 Q-20.8 -99.25 -21.05 -101.8 L-21.3 -102.3 Q-19.3 -105.9 -19.85 -110.25 L-19.5 -110.6 Q-19.3 -111.05 -19.35 -111.6 L-17.15 -113.4 -17.05 -113.7 -16.95 -113.95 -16.7 -114.2 -16.7 -114.3 -16.7 -114.5 -16.7 -114.85 -16.5 -115.75 -16.65 -116.45 -16.4 -117.05 -16.4 -117.2 -14.7 -120.25 -11.25 -122.6 Q-10.3 -122.8 -9.35 -123.35 -7.7 -122.55 -6.0 -122.6 -5.3 -123.05 -4.65 -123.75 L-4.5 -124.2 -4.1 -126.6 -2.2 -127.1 -2.5 -127.2 -1.5 -127.9 -1.4 -128.1 -1.25 -128.55 -0.8 -128.65 Q-0.5 -128.85 -0.35 -129.2 L-0.25 -130.15 -0.5 -130.85 -0.25 -131.75 0.35 -131.95 1.45 -133.8 1.5 -133.85 1.85 -133.9 2.75 -133.85 3.55 -133.9 Q4.8 -134.05 5.2 -134.95 L5.6 -136.55 5.7 -136.65 Q5.5 -136.55 5.55 -138.05 L6.45 -139.0 7.75 -139.15 8.25 -139.3 Q10.05 -139.2 11.55 -140.15 L11.65 -140.4 12.2 -141.75 12.6 -142.25 12.95 -143.1 14.0 -142.15 Q14.3 -141.9 14.65 -141.8 23.2 -140.45 30.95 -137.3 L30.95 -137.15 31.1 -137.15 31.0 -137.45 31.15 -137.3 31.25 -137.25 31.1 -137.15 M16.8 -12.65 Q15.05 -11.7 13.1 -10.85 L11.6 -11.1 11.55 -11.05 11.45 -10.95 10.95 -10.7 10.45 -10.45 10.15 -10.15 9.45 -9.8 5.6 -9.6 5.5 -9.45 5.05 -8.7 4.8 -8.3 4.7 -7.95 2.9 -6.5 Q2.35 -5.35 1.1 -4.5 -2.6 -4.3 -5.5 -6.15 L-5.8 -6.35 -6.8 -10.5 Q-7.35 -12.6 -7.85 -12.4 L-8.1 -12.4 -8.4 -12.45 -8.95 -12.5 -9.15 -12.5 Q-9.45 -12.25 -9.75 -12.35 -10.6 -15.0 -11.85 -17.5 -12.3 -18.55 -13.5 -19.15 L-14.0 -19.4 Q-14.35 -20.35 -14.65 -20.6 L-14.3 -21.2 -13.85 -21.6 Q-12.55 -23.35 -11.75 -25.3 L-11.75 -25.65 -11.75 -26.15 -12.3 -27.25 Q-13.85 -29.05 -15.95 -30.4 L-15.35 -31.6 -14.8 -33.15 Q-15.25 -35.05 -15.05 -37.0 L40.7 -37.5 40.5 -36.95 40.5 -36.4 45.35 -28.4 45.75 -26.35 Q44.9 -25.8 44.5 -24.8 L44.3 -24.55 43.5 -23.35 43.2 -23.0 43.1 -22.8 43.0 -22.6 42.8 -22.3 42.8 -22.0 42.7 -21.85 42.6 -21.7 42.7 -21.25 40.05 -20.95 38.55 -20.45 37.55 -19.25 Q37.65 -17.8 37.25 -16.65 L36.45 -15.8 35.3 -14.35 33.85 -12.75 Q32.25 -11.2 30.4 -10.7 29.7 -10.8 29.05 -11.15 L28.6 -11.8 Q27.15 -14.35 25.5 -15.1 L24.5 -15.15 24.35 -15.15 23.55 -14.75 Q21.9 -14.0 20.35 -12.65 L20.3 -12.7 19.35 -13.45 18.95 -13.5 17.2 -12.95 17.0 -12.8 16.8 -12.65" fill="#ffff00" fill-opacity="0.5019608" fill-rule="evenodd" stroke="none"/>
  </g>
</svg>
