<?xml version="1.0" encoding="UTF-8" standalone="no"?>
<svg xmlns:ffdec="https://www.free-decompiler.com/flash" xmlns:xlink="http://www.w3.org/1999/xlink" ffdec:objectType="shape" height="114.9px" width="51.3px" xmlns="http://www.w3.org/2000/svg">
  <g transform="matrix(1.0, 0.0, 0.0, 1.0, 11.4, 133.25)">
    <path d="M14.45 -133.25 Q19.35 -133.25 22.8 -129.8 26.25 -126.35 26.25 -121.45 26.25 -116.55 22.8 -113.1 20.25 -110.55 16.95 -109.85 L16.9 -109.85 15.85 -110.05 15.15 -110.25 15.0 -110.2 13.3 -110.65 10.7 -111.95 10.55 -111.7 Q9.95 -110.55 9.75 -109.25 L9.3 -106.8 9.25 -106.5 Q12.0 -105.6 12.0 -102.45 L12.0 -102.15 18.5 -92.65 18.6 -92.4 Q23.15 -92.2 27.65 -92.3 28.75 -92.3 29.8 -92.8 31.95 -93.8 33.6 -95.45 31.7 -98.6 35.25 -99.95 38.8 -101.3 39.7 -98.25 40.25 -96.35 39.2 -94.6 35.95 -89.05 29.25 -88.05 L17.3 -87.45 Q15.15 -87.6 14.05 -89.55 11.95 -93.55 9.15 -97.05 8.15 -98.3 7.6 -99.65 6.35 -91.5 5.65 -83.25 L5.35 -79.15 Q9.6 -80.4 11.95 -77.0 12.5 -76.25 12.3 -75.2 11.8 -72.8 9.2 -72.6 L4.85 -72.95 4.2 -64.85 Q5.8 -63.95 7.25 -62.55 L15.85 -53.75 Q18.2 -51.25 19.35 -48.1 19.65 -47.2 19.4 -46.25 L18.7 -44.45 18.85 -44.2 18.9 -43.95 Q21.6 -36.1 23.45 -27.8 L24.4 -23.8 Q29.4 -24.0 34.45 -23.7 35.25 -23.65 35.5 -22.85 36.45 -19.2 32.25 -18.6 26.5 -17.7 21.3 -19.8 20.85 -19.95 20.6 -20.4 18.75 -23.75 18.2 -27.6 17.55 -31.95 16.2 -36.05 L15.0 -40.65 10.75 -37.7 Q8.0 -35.95 5.0 -35.05 3.9 -33.9 2.5 -33.25 L2.2 -33.05 Q4.8 -29.95 6.3 -26.3 6.65 -25.45 5.95 -24.85 3.4 -22.6 1.05 -25.6 -1.75 -29.15 -4.05 -33.1 -4.3 -33.5 -4.15 -34.05 -3.3 -36.7 -0.5 -37.75 1.55 -38.55 3.55 -39.5 8.15 -41.7 12.0 -45.0 L1.9 -58.35 Q0.6 -60.1 0.7 -61.4 L0.5 -61.9 Q-0.5 -62.75 -0.4 -64.75 L0.1 -75.1 0.1 -75.35 -0.35 -75.75 Q-4.85 -79.65 -8.3 -84.45 L-9.5 -86.35 Q-12.55 -91.8 -10.7 -97.5 L-9.85 -98.65 4.8 -110.05 5.85 -114.25 6.05 -114.75 3.9 -116.1 3.8 -116.3 Q2.65 -118.65 2.65 -121.45 2.65 -126.35 6.1 -129.8 9.55 -133.25 14.45 -133.25 M2.25 -97.0 L3.2 -102.45 Q0.95 -100.3 -1.6 -98.7 -4.25 -97.05 -6.55 -94.95 L-6.5 -93.25 -6.45 -91.2 Q-3.65 -86.05 0.5 -82.0 1.1 -89.5 2.25 -97.0" fill="#000000" fill-rule="evenodd" stroke="none"/>
  </g>
</svg>
