<?xml version="1.0" encoding="UTF-8" standalone="no"?>
<svg xmlns:ffdec="https://www.free-decompiler.com/flash" xmlns:xlink="http://www.w3.org/1999/xlink" ffdec:objectType="shape" height="138.5px" width="74.6px" xmlns="http://www.w3.org/2000/svg">
  <g transform="matrix(1.0, 0.0, 0.0, 1.0, 23.85, 143.5)">
    <path d="M34.45 -136.5 L33.45 -133.5 33.15 -132.75 33.1 -132.65 32.95 -132.4 32.8 -131.9 32.9 -131.6 33.0 -131.2 33.0 -130.65 33.15 -130.15 Q34.2 -129.1 35.55 -128.5 L36.1 -128.25 36.55 -128.05 Q37.15 -126.8 36.85 -125.65 36.3 -124.0 36.45 -122.25 35.65 -119.9 35.6 -117.45 L36.35 -116.55 36.1 -116.2 Q35.65 -115.1 34.9 -114.35 L34.0 -113.2 Q33.2 -111.65 33.45 -109.95 L33.35 -109.65 33.2 -108.4 33.7 -107.9 Q34.8 -107.2 36.15 -106.75 L38.0 -106.55 38.7 -106.65 41.05 -106.75 45.7 -104.45 46.05 -104.25 46.45 -104.05 Q48.75 -102.9 50.4 -101.35 L50.75 -100.9 49.7 -97.7 49.7 -97.45 49.65 -97.3 46.55 -92.9 46.55 -92.55 46.65 -90.1 47.0 -89.5 47.8 -86.65 47.85 -86.2 47.4 -85.35 45.85 -84.05 45.6 -83.85 Q45.2 -83.6 44.8 -83.5 42.65 -83.2 41.1 -81.5 L40.85 -81.3 40.6 -80.75 40.3 -80.05 Q39.85 -79.05 39.65 -77.75 L39.1 -77.3 39.0 -77.05 38.8 -76.55 38.75 -76.35 38.7 -75.95 38.45 -75.8 38.25 -75.5 38.1 -75.35 35.05 -71.9 34.4 -70.65 34.3 -70.4 34.2 -70.25 34.1 -70.15 Q34.15 -69.5 34.5 -68.95 L34.9 -68.45 36.2 -67.0 37.95 -64.9 38.05 -64.6 38.7 -60.8 Q37.9 -59.45 37.7 -57.7 L37.75 -56.95 Q37.45 -55.65 37.75 -54.7 37.85 -54.15 38.3 -53.65 38.5 -52.6 39.15 -51.45 L39.6 -51.05 40.0 -50.7 40.6 -50.1 Q42.65 -48.1 42.85 -45.65 L41.05 -43.45 40.55 -42.85 Q38.55 -41.4 37.2 -39.8 L37.2 -39.25 Q38.05 -35.55 39.65 -31.8 L-9.3 -29.65 -10.15 -29.5 -10.25 -29.45 -10.6 -30.35 -11.05 -31.95 Q-11.85 -33.95 -11.7 -36.1 L-11.5 -36.6 -11.4 -36.85 -10.65 -37.65 Q-7.5 -39.75 -5.9 -42.55 L-5.55 -43.1 Q-5.75 -45.5 -8.1 -47.45 L-8.85 -47.8 -9.0 -47.8 Q-13.15 -48.8 -16.5 -50.6 L-16.75 -51.1 -16.35 -52.45 -16.15 -52.85 -15.9 -54.05 -15.6 -54.7 -15.2 -56.05 -15.15 -56.6 -14.45 -58.85 Q-12.55 -60.35 -10.0 -61.45 L-9.45 -61.75 Q-8.05 -62.7 -7.55 -64.1 -7.05 -64.65 -6.85 -65.35 L-6.95 -65.55 -7.1 -65.95 -7.1 -66.25 -7.1 -66.6 -8.85 -69.05 Q-9.7 -70.4 -11.0 -70.75 -13.3 -71.8 -15.4 -72.95 L-15.85 -73.6 Q-16.5 -73.7 -16.9 -74.05 L-17.0 -74.5 -16.6 -75.1 -16.5 -75.15 -16.35 -75.3 Q-14.7 -77.05 -13.5 -79.25 L-13.3 -80.0 -13.4 -80.0 Q-13.7 -81.3 -14.8 -82.35 L-16.0 -83.15 -19.25 -85.5 -20.75 -90.8 -20.95 -91.1 -23.75 -94.45 -23.85 -94.45 Q-20.2 -96.3 -16.5 -98.55 L-15.9 -99.45 -15.0 -100.8 Q-14.7 -103.05 -15.0 -105.4 L-15.15 -105.8 Q-14.35 -109.5 -15.2 -113.5 L-14.7 -113.7 Q-14.05 -113.9 -13.6 -114.35 L-11.4 -115.9 -11.25 -116.15 -11.1 -116.35 -10.95 -116.55 -10.95 -116.65 -10.95 -116.85 -10.95 -117.15 -10.55 -117.9 -10.5 -118.6 -10.35 -119.15 -10.3 -119.25 -9.3 -122.4 -7.4 -126.1 -6.4 -128.0 Q-4.95 -127.1 -3.35 -127.0 -2.55 -127.15 -1.8 -127.6 L-1.65 -127.95 -1.5 -130.15 -0.5 -132.05 -0.75 -133.05 0.0 -134.65 0.05 -134.85 0.1 -135.25 0.35 -135.65 0.65 -136.25 0.65 -137.15 0.55 -137.8 0.75 -138.65 1.35 -138.65 4.05 -138.6 4.1 -138.65 4.45 -138.45 5.25 -138.15 6.0 -137.9 Q7.15 -137.7 8.0 -138.25 L9.1 -139.4 9.35 -139.35 Q9.7 -137.8 11.05 -138.85 L11.5 -140.05 Q12.1 -140.2 12.6 -140.5 L13.0 -140.85 Q14.65 -141.1 16.1 -142.0 L16.2 -142.15 17.15 -143.3 17.75 -143.5 Q17.9 -142.35 18.35 -141.3 L19.05 -140.15 19.5 -139.8 Q27.55 -139.15 35.15 -137.45 L35.1 -137.3 35.05 -137.0 34.95 -136.95 34.45 -136.5 M40.45 -26.55 L40.0 -25.2 39.7 -24.9 39.6 -24.75 39.45 -24.55 39.15 -24.4 38.95 -24.3 38.8 -24.2 38.65 -24.15 38.4 -23.9 35.9 -23.4 Q35.2 -23.15 34.55 -22.7 L34.1 -21.3 34.1 -18.8 33.95 -17.6 33.75 -15.65 33.5 -13.45 Q33.0 -11.45 31.75 -9.9 L30.5 -10.1 29.95 -10.65 Q28.3 -13.05 26.35 -12.8 L25.4 -12.55 25.35 -12.55 24.8 -11.9 21.95 -9.6 21.9 -9.6 20.45 -9.0 20.1 -8.85 18.65 -8.0 18.55 -7.75 18.45 -7.55 Q17.05 -6.2 15.1 -5.65 L14.05 -6.95 14.0 -7.0 13.85 -7.4 13.1 -7.9 12.3 -8.1 11.85 -8.05 11.2 -8.0 Q9.3 -8.5 7.55 -8.05 L7.4 -7.95 6.75 -7.5 6.35 -7.25 6.1 -7.05 4.1 -6.15 Q3.05 -5.5 1.75 -5.0 -1.65 -4.85 -4.65 -5.9 L-4.95 -6.0 Q-4.45 -7.95 -4.65 -10.1 L-4.25 -12.6 -4.35 -12.85 -4.6 -13.0 -5.1 -13.15 -5.3 -13.25 -5.9 -13.4 Q-7.45 -15.5 -9.4 -17.4 L-11.2 -18.65 -11.7 -18.9 -10.25 -20.25 -9.8 -20.7 -9.35 -20.95 Q-7.75 -22.3 -6.55 -23.9 L-6.55 -24.2 -6.55 -24.6 -6.8 -25.65 2.1 -26.35 40.5 -26.55 40.45 -26.55" fill="#ffff00" fill-opacity="0.5019608" fill-rule="evenodd" stroke="none"/>
  </g>
</svg>
