<?xml version="1.0" encoding="UTF-8" standalone="no"?>
<svg xmlns:ffdec="https://www.free-decompiler.com/flash" xmlns:xlink="http://www.w3.org/1999/xlink" ffdec:objectType="shape" height="145.2px" width="68.35px" xmlns="http://www.w3.org/2000/svg">
  <g transform="matrix(1.0, 0.0, 0.0, 1.0, 18.25, 145.6)">
    <path d="M14.15 -5.8 Q11.4 -6.9 8.4 -6.35 L-4.05 -5.65 Q-2.8 -7.55 -2.5 -9.7 L-0.6 -12.85 Q-0.55 -13.3 -0.85 -13.55 L-1.05 -13.7 33.35 -12.95 Q33.55 -11.0 33.1 -9.1 31.95 -8.7 31.3 -9.5 29.05 -12.3 26.3 -9.9 26.35 -9.4 26.0 -9.05 L20.15 -3.0 20.15 -2.7 20.15 -2.4 Q19.05 -0.75 17.15 -0.4 L16.2 -3.85 15.2 -5.05 Q14.75 -5.6 14.15 -5.8 M22.05 -144.8 L22.85 -144.75 Q23.25 -141.4 24.05 -138.15 24.1 -137.8 24.35 -137.8 L39.35 -137.6 Q37.05 -134.25 34.35 -131.3 L34.35 -131.0 34.35 -129.55 Q35.75 -128.2 37.7 -127.65 38.05 -126.35 37.15 -125.2 33.95 -121.5 35.2 -117.05 35.95 -116.6 36.65 -116.3 36.2 -115.05 35.1 -114.45 31.15 -112.2 30.6 -108.25 33.05 -106.9 36.1 -106.85 43.75 -106.7 50.1 -103.8 49.75 -102.15 49.7 -100.35 47.65 -98.3 45.5 -96.6 L45.5 -96.3 Q45.4 -95.15 45.6 -94.0 48.3 -91.3 50.1 -87.95 L50.0 -86.8 Q49.35 -85.9 48.2 -85.55 L47.25 -85.5 Q44.4 -86.0 43.2 -83.95 43.2 -81.1 43.95 -78.45 L43.55 -77.9 43.6 -77.6 43.45 -76.45 Q39.6 -74.8 36.65 -72.05 36.55 -71.4 36.85 -70.85 L40.1 -66.85 40.1 -66.55 40.0 -62.8 Q38.5 -61.65 37.8 -59.95 37.4 -57.2 39.8 -55.9 40.4 -54.7 41.25 -53.65 43.75 -50.7 42.8 -47.25 38.3 -45.1 33.95 -42.65 33.15 -35.2 36.65 -28.8 L36.65 -28.5 36.55 -27.1 35.9 -26.5 Q32.7 -26.9 30.5 -24.95 30.55 -20.95 32.15 -17.2 L-6.9 -17.3 -9.4 -18.45 Q-5.0 -19.85 -1.35 -22.45 L-1.35 -22.75 -1.45 -24.2 Q-3.4 -26.8 -5.85 -29.05 -8.9 -31.85 -8.3 -35.45 L-7.8 -36.4 Q-4.8 -39.25 -4.45 -43.2 -6.4 -46.35 -10.1 -47.3 -14.25 -48.45 -17.5 -51.1 L-17.35 -52.5 Q-16.2 -58.45 -10.05 -61.0 -7.45 -62.1 -6.75 -64.35 L-7.1 -64.9 -7.1 -65.2 -7.1 -65.5 Q-11.45 -69.25 -15.2 -73.55 -15.15 -74.15 -15.4 -74.7 L-16.35 -75.6 -16.2 -76.45 Q-15.9 -77.25 -15.2 -77.6 -12.2 -79.15 -10.3 -81.8 -9.95 -83.6 -10.65 -85.3 -15.7 -92.25 -18.25 -100.25 -14.05 -101.15 -10.1 -102.65 L-8.65 -104.7 Q-8.7 -110.95 -10.6 -116.8 -7.2 -116.4 -5.2 -118.9 L-5.2 -119.2 -5.2 -119.45 Q-4.4 -120.15 -4.25 -121.2 -3.55 -126.95 -3.45 -132.65 -1.3 -130.95 1.05 -131.45 L1.15 -131.75 Q1.15 -138.75 1.7 -145.6 4.15 -144.85 6.7 -143.4 9.2 -140.3 12.55 -142.25 L12.95 -142.05 Q13.95 -139.0 16.5 -139.65 16.9 -140.4 16.5 -141.1 17.4 -141.45 17.75 -142.4 20.05 -143.3 22.05 -144.8" fill="#ffff00" fill-opacity="0.5019608" fill-rule="evenodd" stroke="none"/>
  </g>
</svg>
