<?xml version="1.0" encoding="UTF-8" standalone="no"?>
<svg xmlns:ffdec="https://www.free-decompiler.com/flash" xmlns:xlink="http://www.w3.org/1999/xlink" ffdec:objectType="shape" height="117.7px" width="42.55px" xmlns="http://www.w3.org/2000/svg">
  <g transform="matrix(1.0, 0.0, 0.0, 1.0, 4.25, 134.5)">
    <path d="M14.4 -134.5 Q19.3 -134.5 22.75 -131.05 26.2 -127.6 26.2 -122.7 26.2 -117.8 22.75 -114.35 20.1 -111.7 16.6 -111.05 L15.1 -111.5 14.0 -111.35 13.45 -111.8 Q11.7 -112.0 10.25 -112.6 L9.95 -109.2 Q9.95 -108.3 9.45 -107.5 10.75 -106.0 11.05 -103.55 11.4 -100.9 12.15 -98.3 L13.7 -93.45 Q22.8 -92.9 31.25 -96.6 32.0 -100.8 36.45 -99.1 38.2 -98.45 38.3 -96.55 38.45 -91.7 33.35 -90.5 L26.95 -88.9 Q18.9 -86.8 10.65 -87.9 10.0 -88.0 9.7 -88.6 7.8 -91.9 6.7 -95.5 L6.35 -94.6 Q6.0 -93.75 5.95 -92.8 6.5 -89.0 6.05 -85.15 12.2 -81.95 18.9 -80.1 L23.6 -79.9 Q28.0 -83.4 30.45 -78.75 31.1 -77.65 30.65 -76.35 29.9 -74.25 27.6 -74.1 16.4 -73.4 6.35 -78.3 L5.2 -78.85 Q4.95 -75.5 5.3 -72.05 5.55 -69.0 4.8 -66.3 L5.65 -64.95 7.35 -63.6 Q8.5 -62.65 9.85 -62.0 19.85 -57.4 30.3 -54.15 31.75 -53.7 31.8 -52.15 31.95 -48.6 29.05 -46.15 24.95 -42.65 22.0 -38.3 21.0 -36.75 19.35 -35.75 23.2 -34.95 24.05 -31.55 24.3 -30.5 23.45 -29.7 21.25 -27.75 18.45 -29.15 16.8 -30.0 15.0 -30.45 L12.95 -30.95 Q13.05 -27.95 13.3 -24.9 L13.25 -22.65 Q17.45 -23.15 21.5 -22.0 22.55 -21.7 22.6 -20.55 22.75 -16.9 18.6 -16.85 14.5 -16.75 10.35 -17.0 7.3 -17.2 7.2 -20.15 6.85 -30.6 7.2 -41.2 7.35 -45.5 5.45 -49.25 3.5 -53.1 2.1 -57.05 1.1 -58.15 0.7 -59.65 L0.45 -60.8 0.3 -61.0 Q-0.85 -62.2 -0.8 -63.7 -2.05 -65.9 -0.7 -67.5 -0.85 -74.8 -0.15 -81.95 L-3.1 -84.0 Q-4.3 -84.85 -4.25 -86.35 -4.15 -91.3 -2.15 -96.0 -0.55 -99.6 0.65 -103.3 1.3 -105.35 2.4 -107.1 2.55 -108.95 4.05 -109.65 L4.15 -110.5 4.4 -111.1 Q4.0 -113.85 4.9 -116.05 L4.5 -116.05 4.55 -116.15 Q2.6 -119.0 2.6 -122.7 2.6 -127.6 6.05 -131.05 9.5 -134.5 14.4 -134.5 M8.75 -56.35 L12.55 -48.65 Q13.15 -47.35 13.05 -45.9 L12.85 -38.6 Q15.85 -40.4 18.2 -43.15 19.45 -46.25 22.4 -48.5 L23.8 -49.75 Q16.15 -52.8 8.75 -56.35" fill="#000000" fill-rule="evenodd" stroke="none"/>
  </g>
</svg>
