<?xml version="1.0" encoding="UTF-8" standalone="no"?>
<svg xmlns:ffdec="https://www.free-decompiler.com/flash" xmlns:xlink="http://www.w3.org/1999/xlink" ffdec:objectType="shape" height="137.55px" width="71.3px" xmlns="http://www.w3.org/2000/svg">
  <g transform="matrix(1.0, 0.0, 0.0, 1.0, 22.55, 145.9)">
    <path d="M39.15 -136.95 L38.95 -135.95 38.75 -134.4 38.35 -133.3 11.6 -134.2 -0.65 -134.45 -0.6 -134.8 0.1 -137.6 0.1 -138.15 0.1 -138.8 0.0 -139.1 -0.2 -140.3 -0.15 -140.75 -0.15 -141.15 -0.2 -141.45 -0.3 -142.7 0.05 -142.7 1.0 -142.8 1.95 -142.85 Q2.8 -142.5 3.55 -142.25 4.7 -141.45 5.8 -141.45 6.45 -141.5 7.05 -141.8 L8.2 -143.1 8.45 -143.05 8.55 -142.9 8.7 -142.65 Q9.6 -141.85 10.7 -141.65 L12.3 -141.75 Q12.9 -142.35 12.85 -143.0 13.8 -143.35 14.35 -144.3 L15.1 -144.65 17.15 -145.25 19.15 -145.9 20.0 -145.7 21.45 -142.35 22.85 -139.45 23.25 -139.05 28.1 -138.05 Q28.8 -137.9 29.55 -138.05 L33.05 -138.4 33.8 -138.1 39.15 -136.95 M0.05 -129.5 L0.85 -129.5 41.35 -127.95 40.9 -126.65 40.7 -126.2 Q39.6 -124.4 39.7 -122.65 39.8 -120.35 40.8 -117.85 41.55 -117.25 42.25 -116.8 L42.05 -115.65 41.8 -115.35 41.0 -114.75 Q39.05 -113.55 37.6 -112.1 L37.45 -111.75 37.15 -111.05 37.0 -110.75 36.8 -110.45 36.5 -108.95 36.45 -108.05 37.05 -107.45 37.3 -107.2 38.0 -106.65 38.7 -106.1 40.3 -105.45 40.6 -105.25 40.85 -105.05 41.1 -105.0 42.9 -104.5 43.4 -104.1 Q44.45 -103.65 45.35 -103.05 L47.75 -101.45 47.95 -101.25 48.45 -100.95 48.75 -100.75 47.5 -98.45 47.45 -97.8 46.55 -96.4 44.6 -94.1 43.55 -93.55 43.45 -93.35 42.75 -91.85 Q43.35 -90.55 43.55 -89.15 L43.6 -88.5 43.1 -87.7 Q42.35 -87.15 41.45 -86.7 L41.2 -86.45 41.1 -86.4 40.65 -86.05 40.25 -86.15 Q37.2 -86.65 35.65 -84.7 L35.25 -83.45 35.3 -82.35 35.55 -80.75 36.4 -79.0 36.35 -78.45 36.5 -78.15 36.8 -77.05 36.25 -76.5 35.85 -75.75 Q34.9 -74.25 34.4 -72.6 34.55 -72.0 35.0 -71.55 L36.75 -70.0 38.1 -68.7 38.85 -67.75 38.95 -67.45 40.1 -64.15 39.85 -63.55 Q39.65 -63.0 39.7 -62.25 40.2 -60.55 42.4 -59.7 L42.9 -59.5 45.1 -57.95 46.65 -56.75 Q46.9 -54.55 46.35 -52.05 L46.25 -51.7 44.0 -49.5 43.85 -49.35 42.85 -47.85 42.7 -47.55 42.2 -46.65 41.7 -45.75 42.8 -41.35 42.8 -41.15 42.8 -40.65 Q42.3 -38.45 42.15 -36.35 42.3 -34.6 43.0 -32.8 L43.45 -31.65 43.45 -31.3 43.3 -29.75 43.15 -29.6 42.6 -29.25 39.8 -29.05 39.4 -28.9 39.25 -28.8 38.1 -27.6 37.45 -26.9 37.5 -25.0 36.8 -22.65 36.65 -22.0 36.55 -21.0 36.6 -20.8 Q36.75 -18.7 36.25 -16.6 L36.0 -16.1 35.35 -15.0 35.3 -14.9 Q34.25 -14.95 33.7 -15.95 L33.4 -16.55 32.2 -17.25 Q30.25 -17.65 28.2 -16.25 L27.6 -15.5 26.85 -15.0 26.2 -14.8 24.45 -14.25 21.75 -13.35 21.65 -13.3 21.55 -13.05 21.45 -12.75 21.35 -12.5 Q20.6 -11.35 19.45 -10.7 L18.3 -10.4 17.2 -11.6 16.6 -12.3 16.4 -12.65 15.2 -13.35 14.2 -13.65 13.65 -13.6 Q12.05 -13.3 10.25 -12.2 L10.0 -11.95 Q8.05 -10.65 5.95 -9.6 L5.65 -9.5 0.85 -9.1 0.65 -9.05 0.2 -8.9 -0.05 -8.8 Q-0.2 -8.7 -0.3 -8.65 L-1.2 -8.35 Q-0.7 -8.75 -0.55 -9.25 -0.45 -9.5 -0.5 -9.85 -0.05 -10.3 0.25 -10.9 L0.3 -11.3 -0.15 -11.85 -0.7 -12.1 -1.6 -12.75 -2.6 -13.45 Q-6.1 -14.9 -9.95 -15.85 L-9.25 -16.35 Q-7.55 -17.75 -6.0 -19.5 L-4.55 -21.3 -4.55 -21.6 -4.55 -22.0 -4.85 -23.05 -5.65 -23.75 Q-7.9 -25.45 -10.45 -26.9 L-11.2 -27.3 Q-12.15 -29.05 -12.45 -30.95 -12.7 -32.45 -12.6 -34.0 L-12.55 -34.3 -12.45 -34.6 -12.45 -35.1 -12.35 -35.35 -12.15 -35.7 -12.0 -36.1 Q-9.85 -37.75 -8.55 -39.8 L-7.75 -41.25 Q-7.9 -42.55 -8.4 -43.65 -9.05 -44.8 -10.45 -45.6 L-11.4 -46.15 -13.25 -47.4 -13.7 -47.9 -15.15 -50.2 -15.3 -50.45 -15.3 -50.8 -15.15 -51.9 -15.15 -52.0 -15.2 -52.2 -15.2 -52.8 -15.3 -53.65 -15.25 -54.2 -15.1 -56.25 -14.65 -56.75 -11.5 -59.55 -11.2 -60.0 -10.55 -60.75 -10.45 -60.9 -9.9 -61.6 -9.75 -61.75 -9.1 -62.15 -8.85 -62.35 -7.9 -63.25 -7.7 -63.45 -7.45 -63.9 Q-6.85 -64.6 -6.5 -65.45 L-6.7 -66.05 -6.7 -66.35 -6.65 -66.7 -7.0 -67.4 -8.85 -70.0 -9.2 -70.35 Q-10.25 -71.1 -11.0 -71.25 L-11.65 -71.5 -12.6 -71.85 -14.1 -72.8 -14.3 -73.15 -14.7 -73.8 Q-15.4 -74.1 -15.8 -74.5 L-16.0 -75.05 -15.75 -75.55 -15.6 -75.55 -14.85 -75.6 -13.75 -75.95 -13.6 -76.55 -13.4 -77.45 -13.5 -77.6 Q-13.8 -79.3 -14.95 -80.7 L-16.05 -81.7 -17.5 -86.25 -19.45 -91.95 -22.55 -96.35 -20.95 -97.0 Q-20.55 -97.15 -20.2 -97.35 L-15.65 -99.3 -15.1 -99.7 -14.5 -100.05 -13.75 -101.2 -13.3 -102.0 -13.15 -102.4 -13.15 -103.2 -13.4 -104.1 -14.6 -107.25 -14.45 -107.85 -13.5 -113.5 -13.5 -113.9 Q-12.0 -114.2 -11.3 -115.1 -10.5 -116.05 -9.9 -117.6 L-9.85 -117.6 -9.7 -117.9 -9.6 -118.1 -9.25 -118.35 Q-8.55 -118.85 -8.2 -119.5 L-7.45 -120.8 -6.85 -122.15 -6.75 -122.85 -6.7 -123.95 -6.6 -126.15 -5.1 -128.75 -4.85 -129.35 Q-2.7 -127.9 -0.45 -127.75 L-0.15 -127.8 0.1 -127.9 0.1 -128.0 0.2 -128.25 0.25 -128.35 0.25 -128.8 0.05 -129.5" fill="#ffff00" fill-opacity="0.5019608" fill-rule="evenodd" stroke="none"/>
  </g>
</svg>
