<?xml version="1.0" encoding="UTF-8" standalone="no"?>
<svg xmlns:ffdec="https://www.free-decompiler.com/flash" xmlns:xlink="http://www.w3.org/1999/xlink" ffdec:objectType="shape" height="118.15px" width="42.95px" xmlns="http://www.w3.org/2000/svg">
  <g transform="matrix(1.0, 0.0, 0.0, 1.0, -0.55, 135.5)">
    <path d="M22.65 -132.05 Q26.1 -128.6 26.1 -123.7 26.1 -118.8 22.65 -115.35 20.0 -112.7 16.5 -112.05 L15.0 -112.5 13.9 -112.35 13.3 -112.85 11.75 -113.65 11.4 -112.3 10.7 -109.9 Q12.45 -108.55 11.3 -105.65 11.45 -104.4 11.85 -103.2 12.25 -101.8 12.1 -100.3 13.4 -97.6 13.5 -94.5 L13.8 -93.1 Q22.3 -90.9 31.3 -91.05 34.95 -94.15 37.4 -89.95 39.3 -86.7 35.75 -86.05 L33.1 -85.65 Q33.2 -84.9 32.9 -84.15 32.35 -82.85 30.9 -82.75 19.2 -82.1 8.05 -85.85 L7.55 -86.0 7.4 -85.35 7.4 -85.1 Q7.5 -82.7 7.05 -80.5 L7.05 -80.4 7.1 -79.8 6.9 -79.9 6.65 -78.95 Q6.4 -72.55 6.6 -66.05 8.15 -65.0 8.4 -63.1 L16.8 -60.3 Q20.3 -59.1 23.95 -58.2 25.95 -57.7 27.7 -56.65 31.0 -54.65 30.45 -50.5 30.1 -47.95 30.45 -45.4 L30.85 -41.6 30.9 -40.45 Q31.8 -39.1 31.95 -37.55 L32.05 -34.7 32.4 -34.1 32.65 -33.55 32.7 -33.35 37.8 -33.5 Q41.1 -33.95 42.9 -31.6 43.9 -30.35 43.3 -28.9 42.55 -27.2 40.7 -26.95 36.1 -26.4 31.7 -27.0 30.05 -27.25 28.65 -28.15 27.05 -29.15 27.05 -30.95 25.8 -36.35 24.9 -41.9 24.1 -46.65 24.35 -51.6 16.75 -53.35 9.7 -56.45 L10.5 -52.25 10.55 -51.1 Q13.8 -46.45 13.1 -41.0 12.25 -34.6 12.4 -28.05 L12.45 -23.85 Q15.5 -24.4 18.0 -22.85 20.8 -21.1 18.75 -18.65 17.45 -17.05 15.4 -17.4 L11.3 -17.8 Q6.3 -18.0 6.4 -22.6 L6.55 -44.2 6.25 -45.4 Q4.65 -48.75 4.8 -52.55 3.6 -53.6 3.6 -55.15 L3.65 -56.3 Q2.5 -58.7 2.45 -61.35 1.2 -61.65 0.95 -63.0 0.5 -65.8 0.55 -68.7 L0.95 -81.1 1.35 -81.4 1.4 -81.4 1.5 -90.3 Q1.4 -96.05 2.7 -101.45 2.7 -103.35 3.0 -105.25 3.3 -107.1 2.95 -108.55 L4.65 -110.7 5.2 -113.65 Q5.4 -114.85 6.0 -115.65 L5.35 -115.65 4.35 -116.2 4.45 -117.05 4.4 -117.05 4.45 -117.15 3.85 -118.15 3.25 -119.4 3.1 -119.9 Q2.5 -121.7 2.5 -123.7 2.5 -128.6 5.95 -132.05 9.4 -135.5 14.3 -135.5 L16.5 -135.3 Q19.4 -134.8 21.75 -132.85 L22.65 -132.05" fill="#000000" fill-rule="evenodd" stroke="none"/>
  </g>
</svg>
