<?xml version="1.0" encoding="UTF-8" standalone="no"?>
<svg xmlns:ffdec="https://www.free-decompiler.com/flash" xmlns:xlink="http://www.w3.org/1999/xlink" ffdec:objectType="shape" height="137.5px" width="78.6px" xmlns="http://www.w3.org/2000/svg">
  <g transform="matrix(1.0, 0.0, 0.0, 1.0, 26.85, 146.95)">
    <path d="M39.35 -135.35 Q39.9 -134.35 40.5 -134.3 L41.75 -134.15 41.95 -134.15 42.65 -133.95 43.3 -134.1 43.75 -133.65 44.95 -131.25 44.95 -131.15 44.7 -128.1 44.6 -127.6 Q43.55 -125.55 44.25 -123.65 45.05 -121.2 46.45 -118.6 L47.8 -117.35 31.15 -118.45 -9.75 -120.2 -9.7 -120.8 -9.65 -122.0 -9.6 -124.45 -6.75 -125.8 -6.2 -126.05 Q-3.9 -124.65 -1.45 -124.15 L-1.1 -124.2 -0.85 -124.35 -0.8 -124.45 -0.7 -124.75 -0.7 -124.9 -0.65 -125.35 -2.0 -127.25 -2.05 -127.95 -2.6 -129.75 -2.4 -131.5 -1.2 -134.55 -1.15 -135.1 Q-1.1 -135.45 -1.2 -135.8 L-1.3 -136.1 -1.85 -137.35 -1.85 -137.85 -1.85 -138.35 -1.95 -138.65 -2.35 -139.8 -2.35 -140.05 -1.85 -140.75 -1.45 -141.6 0.4 -141.1 Q1.75 -140.65 2.9 -141.1 L3.6 -142.05 3.85 -143.95 3.95 -144.05 3.95 -144.2 4.0 -144.4 Q5.05 -143.85 6.3 -143.7 L8.1 -143.85 9.15 -144.85 10.9 -146.15 11.7 -146.65 14.0 -146.95 16.2 -146.95 17.1 -146.7 19.55 -143.55 21.65 -140.8 Q21.85 -140.45 22.2 -140.3 L27.1 -138.3 Q27.9 -138.0 28.7 -138.3 30.65 -138.95 32.45 -139.0 32.85 -138.7 33.3 -138.5 L38.95 -136.35 39.35 -135.35 M21.9 -114.7 L32.6 -113.65 43.75 -112.8 43.05 -112.25 42.95 -111.8 42.75 -111.05 42.6 -110.8 42.4 -110.5 Q42.2 -109.65 42.25 -108.8 L42.3 -107.85 42.75 -107.05 42.85 -106.65 43.35 -105.95 43.75 -105.1 45.2 -103.95 45.45 -103.65 45.55 -103.2 45.45 -103.1 44.45 -102.6 Q44.2 -102.55 44.5 -102.0 L46.25 -100.35 48.15 -97.95 48.15 -97.7 47.85 -97.65 47.4 -97.65 Q46.25 -97.1 45.3 -95.95 L45.2 -95.25 44.5 -93.55 Q44.0 -92.0 42.75 -90.75 L41.6 -90.5 41.4 -90.4 39.85 -89.75 37.6 -89.2 37.05 -89.0 36.2 -88.6 34.2 -87.7 34.05 -87.35 34.0 -87.2 33.7 -86.7 33.25 -86.75 Q30.0 -87.3 28.05 -85.5 L27.3 -84.25 27.3 -83.0 Q27.3 -82.1 27.55 -81.3 L28.85 -79.55 29.15 -79.0 29.4 -78.7 30.15 -77.7 30.35 -77.1 30.75 -76.25 Q31.3 -74.7 32.15 -73.15 L33.2 -72.2 35.25 -70.95 Q36.15 -70.45 36.8 -69.65 L37.65 -68.65 37.8 -68.35 Q38.9 -66.45 40.25 -65.55 L40.7 -65.2 41.65 -64.5 Q42.95 -63.55 45.4 -63.15 L46.05 -63.05 48.95 -62.3 50.9 -61.6 49.8 -56.55 49.7 -56.2 Q48.75 -54.7 48.1 -53.1 L48.05 -52.9 Q48.05 -51.7 48.5 -51.2 L48.6 -50.85 48.95 -49.85 49.45 -48.85 Q50.7 -46.9 51.75 -44.55 L51.75 -44.3 51.7 -43.75 49.45 -39.75 Q49.25 -37.8 49.9 -35.85 L50.3 -34.5 50.3 -34.1 50.0 -32.4 49.95 -32.25 49.3 -32.0 46.2 -31.7 45.8 -31.5 45.7 -31.3 44.9 -29.65 44.45 -28.85 44.4 -26.8 Q43.1 -25.9 42.2 -25.85 L41.55 -25.65 Q41.15 -25.45 40.95 -24.85 L40.95 -24.7 Q40.3 -22.6 39.15 -20.55 L38.65 -20.2 37.6 -20.65 37.45 -20.7 Q36.55 -21.2 36.15 -22.35 L35.9 -23.1 Q35.35 -23.85 34.55 -23.8 32.35 -23.75 30.1 -22.6 L29.25 -22.0 28.25 -21.55 27.65 -21.85 26.05 -22.8 Q25.0 -23.5 23.35 -23.65 L23.15 -23.65 22.95 -23.35 22.8 -23.05 22.65 -22.8 Q21.9 -21.5 20.7 -20.7 L19.45 -20.4 17.85 -20.85 Q17.35 -20.95 16.9 -21.2 L16.6 -21.4 15.2 -21.65 14.25 -21.55 13.8 -21.2 11.7 -17.95 11.55 -17.55 Q10.35 -15.45 8.75 -13.5 L8.45 -13.4 3.2 -12.7 3.0 -12.6 2.6 -12.35 2.5 -12.05 2.4 -11.8 1.7 -11.05 1.7 -10.25 1.5 -9.95 1.45 -9.45 1.2 -9.75 0.5 -10.15 -0.15 -10.3 -1.1 -11.05 Q-1.45 -11.75 -2.25 -11.85 L-10.55 -13.3 -11.15 -13.5 Q-9.85 -15.55 -8.75 -17.8 L-7.75 -20.1 -7.75 -20.45 -7.75 -20.95 -8.3 -21.95 -9.3 -22.5 Q-12.1 -23.75 -15.1 -24.8 L-15.95 -25.1 Q-16.6 -27.1 -16.75 -29.25 L-16.85 -32.6 -16.85 -32.9 -16.9 -33.2 -17.05 -33.75 -17.15 -34.1 -17.05 -34.5 -17.0 -34.95 Q-14.4 -36.4 -12.35 -38.1 L-11.1 -39.3 Q-10.45 -40.45 -10.15 -41.65 -10.45 -43.1 -11.75 -44.25 L-12.65 -45.0 -14.25 -46.85 -13.8 -47.2 Q-13.0 -47.5 -12.95 -49.55 L-13.05 -49.85 -13.05 -50.2 -13.0 -51.45 -13.0 -51.5 -13.05 -51.75 -13.2 -52.4 -13.65 -53.25 -13.75 -53.9 -14.45 -56.05 -13.85 -56.55 -10.3 -59.6 -10.05 -60.2 -9.75 -61.15 -9.8 -61.35 -9.75 -62.2 -9.75 -62.4 -9.0 -62.85 -8.8 -63.1 -7.8 -64.15 -7.65 -64.4 -7.4 -64.9 Q-6.65 -65.6 -6.3 -66.5 L-6.3 -67.15 -6.25 -67.5 -6.2 -67.9 -6.4 -68.75 -7.75 -71.95 -8.2 -72.3 Q-9.5 -73.1 -10.2 -72.6 L-10.65 -72.1 -11.3 -71.55 Q-12.15 -71.6 -13.05 -72.1 L-13.35 -72.35 -13.95 -72.95 -15.25 -73.45 -15.8 -73.7 -16.05 -73.6 -16.0 -73.55 -15.85 -72.9 -15.6 -72.0 Q-15.85 -71.85 -16.2 -72.25 L-16.45 -73.2 -16.65 -73.35 Q-17.65 -74.95 -19.2 -76.1 L-20.6 -76.9 -21.05 -82.1 Q-21.55 -85.3 -22.45 -88.55 L-26.85 -92.4 -25.3 -93.4 -24.45 -93.95 Q-22.2 -95.4 -19.7 -96.45 L-19.35 -97.0 -18.9 -97.4 -18.1 -98.7 -17.75 -99.65 -17.65 -100.15 -17.65 -101.0 -18.15 -101.95 -20.2 -104.85 -19.85 -105.55 Q-18.25 -108.6 -16.5 -110.6 L-16.35 -111.0 Q-14.95 -111.85 -14.85 -113.15 -14.65 -114.55 -14.6 -116.3 L-14.5 -116.35 -14.25 -116.55 -14.15 -116.6 16.15 -115.1 21.9 -114.7" fill="#ffff00" fill-opacity="0.5019608" fill-rule="evenodd" stroke="none"/>
  </g>
</svg>
