<?xml version="1.0" encoding="UTF-8" standalone="no"?>
<svg xmlns:ffdec="https://www.free-decompiler.com/flash" xmlns:xlink="http://www.w3.org/1999/xlink" ffdec:objectType="shape" height="140.75px" width="91.85px" xmlns="http://www.w3.org/2000/svg">
  <g transform="matrix(1.0, 0.0, 0.0, 1.0, 31.15, 148.75)">
    <path d="M10.8 -148.6 L13.3 -148.05 14.25 -147.65 17.6 -144.8 20.4 -142.1 21.1 -141.6 26.15 -138.6 27.9 -138.55 Q29.95 -139.55 31.9 -139.65 L32.75 -138.85 Q35.7 -137.1 38.7 -135.7 L39.7 -134.8 Q40.95 -133.85 42.25 -134.25 43.95 -134.8 45.4 -135.6 L45.7 -135.75 46.8 -136.2 47.55 -136.55 48.05 -136.1 48.6 -133.05 48.6 -132.95 48.45 -129.55 48.45 -129.0 Q47.45 -126.65 48.75 -124.6 L52.05 -119.4 53.45 -117.8 54.05 -116.5 53.85 -116.2 52.75 -115.4 48.5 -112.4 48.45 -111.9 48.35 -111.1 48.15 -110.8 47.95 -110.5 47.95 -110.35 7.35 -111.35 Q-5.5 -111.75 -18.45 -111.7 L-19.3 -115.0 -19.15 -115.05 -18.75 -115.25 -18.4 -115.4 -17.9 -115.55 -16.05 -116.15 -14.3 -116.85 Q-13.45 -117.2 -12.8 -117.9 L-12.6 -118.75 -12.6 -120.05 -12.55 -122.7 -8.45 -122.9 -7.6 -122.75 Q-5.05 -121.4 -2.45 -120.55 L-2.1 -120.65 -1.85 -120.8 -1.75 -120.9 -1.65 -121.25 -1.6 -121.4 -1.6 -121.95 -3.6 -123.65 -3.7 -124.45 -4.45 -126.35 Q-4.55 -127.35 -4.25 -128.25 -3.55 -130.0 -2.45 -131.45 L-2.4 -132.05 -2.45 -132.85 -2.65 -133.1 -3.55 -134.45 -3.5 -135.0 -3.5 -135.5 -3.65 -135.8 -4.35 -136.9 -4.8 -137.4 -4.75 -138.75 -4.9 -140.3 -2.8 -140.0 Q-1.2 -139.85 0.0 -140.75 0.3 -141.55 0.2 -142.35 L-0.55 -144.8 -0.6 -145.05 -0.6 -145.45 Q-0.6 -145.8 -0.75 -146.15 L1.9 -145.8 3.9 -145.95 Q4.85 -146.3 5.5 -146.75 6.6 -147.2 7.5 -148.05 L8.25 -148.6 Q9.5 -148.9 10.8 -148.6 M48.75 -105.2 Q48.65 -104.65 48.85 -104.05 49.25 -103.1 50.1 -102.5 L50.25 -102.05 50.3 -101.4 49.75 -101.25 46.05 -100.75 Q45.4 -100.65 45.55 -99.95 46.6 -99.0 47.1 -97.65 47.75 -96.0 48.55 -94.45 L48.35 -94.2 47.2 -94.4 46.05 -94.6 Q44.5 -94.5 43.1 -93.5 L42.95 -92.75 42.5 -90.7 Q42.2 -88.85 40.85 -87.45 L39.6 -87.5 39.3 -87.5 37.0 -87.6 Q34.3 -88.2 31.7 -89.3 L30.55 -89.55 29.25 -89.5 Q28.1 -89.3 27.0 -88.7 L26.9 -88.2 26.85 -88.05 26.7 -87.3 26.25 -87.4 Q22.8 -87.95 20.5 -86.25 L19.3 -85.05 19.25 -83.7 Q19.25 -82.75 19.5 -81.85 L21.3 -80.15 21.95 -79.55 22.3 -79.25 23.5 -78.3 24.4 -77.7 25.7 -76.8 Q27.65 -75.1 29.85 -73.7 L31.35 -72.9 33.75 -71.9 Q34.8 -71.5 35.5 -70.6 L36.4 -69.55 36.6 -69.25 Q38.2 -67.4 40.35 -66.9 L41.5 -66.85 43.55 -66.8 48.45 -66.65 49.15 -66.65 52.75 -66.6 55.15 -66.5 Q53.85 -64.0 53.25 -61.05 L53.15 -60.65 Q52.45 -58.75 52.15 -56.75 L52.25 -56.5 Q52.85 -55.05 54.1 -54.6 L54.45 -54.2 55.7 -53.1 57.15 -52.0 Q59.2 -50.15 60.7 -47.7 L60.7 -47.45 60.6 -46.9 56.7 -43.2 Q56.2 -41.05 56.8 -38.85 L57.1 -37.4 57.1 -36.95 56.75 -35.1 56.7 -34.95 55.95 -34.8 52.55 -34.35 52.15 -34.1 52.1 -33.85 51.65 -31.75 51.4 -30.85 51.25 -28.55 Q49.25 -28.2 47.65 -29.1 L46.5 -29.35 Q45.8 -29.3 45.35 -28.7 L45.3 -28.55 42.0 -24.5 41.25 -24.35 39.8 -26.25 39.65 -26.5 Q38.85 -27.5 38.55 -28.8 L38.4 -29.7 Q37.85 -30.6 36.85 -30.35 34.4 -29.85 31.95 -28.95 L30.85 -28.45 29.7 -28.1 29.15 -28.95 27.7 -31.35 Q26.7 -33.1 24.9 -34.0 L24.65 -33.95 24.3 -33.7 24.1 -33.4 23.9 -33.1 Q23.15 -31.7 21.95 -30.7 L20.55 -30.4 18.45 -30.15 17.15 -30.15 16.75 -30.2 15.2 -30.0 Q14.7 -29.8 14.3 -29.4 L13.9 -28.8 13.15 -23.7 13.15 -23.15 Q12.7 -20.25 11.5 -17.45 L11.2 -17.25 5.5 -16.35 5.35 -16.2 5.05 -15.75 5.1 -15.35 5.15 -14.9 4.55 -13.8 3.95 -11.3 3.5 -10.1 2.6 -8.0 2.05 -8.2 1.2 -8.45 0.4 -8.55 -0.65 -9.4 Q-0.95 -10.25 -1.9 -10.3 L-11.1 -10.7 -13.1 -10.7 Q-12.2 -13.3 -11.45 -16.15 L-10.95 -18.95 -10.95 -19.35 -10.95 -19.85 -11.7 -20.8 Q-12.25 -21.2 -12.9 -21.3 L-19.7 -22.65 -20.75 -22.85 -21.0 -27.55 Q-21.0 -29.4 -21.15 -31.15 L-21.2 -31.55 -21.3 -31.85 -21.7 -32.45 -21.9 -32.85 -21.9 -33.35 -22.0 -33.85 Q-18.9 -35.0 -16.15 -36.35 L-14.4 -37.35 -11.95 -39.65 Q-11.8 -41.45 -13.1 -42.85 L-13.95 -43.85 -15.3 -46.25 -13.95 -46.5 Q-11.75 -46.5 -10.8 -48.85 L-10.85 -49.2 -10.85 -49.65 -10.8 -50.95 -10.8 -51.0 -10.95 -51.25 -11.25 -52.05 -12.05 -52.9 -12.25 -53.65 Q-12.85 -55.0 -13.8 -55.9 L-13.1 -56.4 Q-10.9 -57.8 -9.1 -59.7 L-8.95 -60.4 -8.9 -61.6 -9.1 -61.85 -9.6 -62.8 -9.8 -63.1 -8.95 -63.6 -8.8 -63.9 Q-8.45 -64.65 -7.7 -65.1 L-7.55 -65.4 -7.35 -65.95 Q-6.5 -66.65 -6.05 -67.6 L-5.95 -68.3 -5.85 -68.7 -5.8 -69.1 -5.8 -70.15 Q-6.05 -72.05 -6.7 -73.9 L-7.15 -74.3 Q-8.7 -75.1 -9.45 -73.95 L-9.6 -72.7 Q-9.75 -71.95 -10.05 -71.25 L-11.95 -71.35 -12.45 -71.6 -13.25 -72.05 -14.75 -72.35 -15.6 -72.3 Q-16.05 -72.2 -16.4 -71.7 L-16.4 -71.5 -16.8 -70.15 -17.45 -68.0 Q-18.05 -67.6 -18.75 -68.0 L-19.55 -69.0 -19.85 -69.15 Q-21.5 -70.65 -23.5 -71.55 L-25.2 -72.1 Q-24.7 -75.0 -24.65 -78.0 -24.65 -81.6 -25.5 -85.15 L-31.15 -88.5 -29.6 -89.8 Q-29.1 -90.1 -28.7 -90.5 -26.45 -92.45 -23.8 -93.65 L-23.55 -94.35 -23.3 -94.8 -22.45 -96.25 -22.2 -97.25 -22.15 -97.85 -22.2 -98.8 -22.95 -99.75 -25.85 -102.5 -25.25 -103.2 Q-22.85 -105.95 -20.05 -107.45 L-13.3 -106.85 -11.8 -106.75 Q18.35 -105.65 48.6 -105.5 L48.75 -105.2" fill="#ffff00" fill-opacity="0.5019608" fill-rule="evenodd" stroke="none"/>
  </g>
</svg>
