<?xml version="1.0" encoding="UTF-8" standalone="no"?>
<svg xmlns:ffdec="https://www.free-decompiler.com/flash" xmlns:xlink="http://www.w3.org/1999/xlink" ffdec:objectType="shape" height="118.1px" width="65.4px" xmlns="http://www.w3.org/2000/svg">
  <g transform="matrix(1.0, 0.0, 0.0, 1.0, 10.7, 135.5)">
    <path d="M22.75 -132.05 Q26.2 -128.6 26.2 -123.7 26.2 -118.8 22.75 -115.35 20.1 -112.7 16.6 -112.05 L15.1 -112.5 14.0 -112.35 13.4 -112.85 11.15 -114.0 11.1 -113.9 10.55 -111.9 Q13.5 -110.6 15.1 -107.5 17.0 -103.95 19.95 -100.85 L21.7 -99.05 22.85 -98.75 Q32.2 -100.65 40.5 -105.35 41.95 -109.8 46.4 -107.05 47.2 -106.55 47.25 -105.55 47.3 -102.0 43.9 -100.2 34.75 -95.3 24.75 -92.85 21.45 -92.0 18.75 -93.65 17.6 -94.35 16.75 -95.4 L11.2 -102.5 9.45 -105.05 7.15 -88.1 6.15 -80.65 6.0 -79.7 Q5.15 -74.05 5.85 -68.5 L7.95 -67.55 10.25 -66.75 Q19.9 -64.4 29.25 -61.3 31.55 -60.55 33.1 -58.6 L46.05 -42.55 Q48.45 -45.35 51.4 -47.1 L52.95 -47.0 Q56.1 -44.55 53.55 -41.25 50.1 -36.9 44.85 -35.8 43.7 -35.6 43.0 -36.5 36.4 -45.35 29.05 -53.7 26.25 -56.9 21.8 -57.55 L20.6 -57.8 7.45 -61.55 7.85 -60.75 Q11.45 -54.4 11.2 -47.15 11.1 -44.75 10.15 -42.55 8.05 -36.6 4.95 -31.05 L4.8 -30.75 Q4.15 -28.1 2.5 -25.85 L2.1 -25.0 7.3 -21.6 7.6 -20.95 Q7.35 -16.15 2.05 -17.8 -2.6 -19.2 -4.5 -22.95 -4.9 -23.7 -4.6 -24.55 -3.15 -28.4 -1.0 -32.0 -0.65 -34.0 0.65 -35.65 L1.35 -36.6 Q3.2 -40.8 4.7 -45.2 5.3 -47.05 5.45 -49.0 L5.2 -50.15 5.15 -51.3 4.7 -52.15 Q4.4 -52.7 4.4 -53.3 1.8 -58.25 0.3 -63.75 -0.4 -66.35 -0.45 -69.15 -0.5 -77.6 0.65 -85.65 1.0 -88.35 1.5 -91.05 2.7 -97.8 3.55 -104.6 L-5.2 -99.15 Q-4.2 -94.2 -4.35 -89.05 L-4.45 -83.85 Q-0.5 -81.0 -3.3 -76.8 -3.9 -75.9 -5.0 -75.95 -10.5 -76.25 -10.35 -81.65 -10.0 -91.0 -10.7 -100.1 -10.95 -103.9 -7.15 -105.45 L-3.5 -107.4 Q0.4 -110.0 4.3 -112.0 L4.5 -114.15 Q4.6 -115.15 4.85 -116.0 L4.45 -116.2 4.55 -117.05 4.5 -117.05 4.55 -117.15 3.95 -118.15 3.35 -119.4 3.2 -119.9 Q2.6 -121.7 2.6 -123.7 2.6 -128.6 6.05 -132.05 9.5 -135.5 14.4 -135.5 L16.6 -135.3 Q19.5 -134.8 21.85 -132.85 L22.75 -132.05" fill="#000000" fill-rule="evenodd" stroke="none"/>
  </g>
</svg>
