<?xml version="1.0" encoding="UTF-8" standalone="no"?>
<svg xmlns:ffdec="https://www.free-decompiler.com/flash" xmlns:xlink="http://www.w3.org/1999/xlink" ffdec:objectType="shape" height="144.15px" width="105.1px" xmlns="http://www.w3.org/2000/svg">
  <g transform="matrix(1.0, 0.0, 0.0, 1.0, 35.45, 150.7)">
    <path d="M47.65 -96.05 L47.95 -94.95 48.95 -90.95 48.55 -90.65 46.55 -91.1 Q43.5 -92.2 40.9 -91.05 L40.45 -87.85 Q40.4 -85.7 38.95 -84.15 32.0 -85.7 25.75 -89.35 22.4 -91.3 19.75 -89.7 L19.75 -89.1 19.75 -87.95 Q14.6 -88.9 11.3 -85.85 L11.25 -84.4 Q11.2 -83.35 11.5 -82.4 14.6 -79.75 18.45 -78.3 L20.6 -77.35 Q26.15 -74.4 32.25 -72.85 33.45 -72.55 34.2 -71.55 37.15 -67.5 42.35 -68.5 L51.45 -70.15 59.4 -71.35 Q57.35 -68.7 56.7 -65.55 56.15 -63.05 56.25 -60.4 L56.45 -60.1 Q57.65 -58.35 59.7 -58.0 L60.3 -57.5 62.45 -56.3 Q66.9 -54.55 69.65 -50.9 L69.65 -50.6 69.5 -50.05 64.0 -46.6 Q63.15 -44.3 63.7 -41.9 64.2 -39.7 63.45 -37.65 L58.95 -37.0 58.55 -36.7 58.55 -36.4 58.45 -33.8 58.15 -30.35 Q55.4 -30.5 53.05 -32.3 52.3 -32.85 51.4 -33.0 50.4 -33.15 49.75 -32.55 L44.9 -28.45 43.85 -28.5 Q42.85 -30.15 42.0 -31.9 40.95 -34.05 40.9 -36.3 40.3 -37.3 39.2 -36.9 34.95 -35.45 31.1 -34.65 L30.6 -36.05 29.3 -39.9 Q28.45 -42.7 26.5 -44.35 25.55 -44.25 25.2 -43.4 24.45 -41.85 23.2 -40.7 21.05 -40.35 19.05 -39.45 18.25 -39.1 17.45 -39.05 14.7 -38.95 14.0 -36.4 L14.6 -29.45 Q15.05 -25.35 14.3 -21.4 L14.0 -21.15 7.85 -19.95 7.7 -19.75 7.45 -19.2 7.65 -18.65 7.85 -18.05 6.2 -12.3 Q5.35 -9.25 3.75 -6.55 L0.95 -6.8 Q0.55 -7.45 -0.2 -7.7 -0.45 -8.75 -1.55 -8.7 L-15.0 -7.85 -14.2 -14.5 -14.15 -18.8 Q-15.0 -20.0 -16.55 -20.1 L-25.55 -20.65 -25.3 -25.85 Q-25.15 -28.05 -25.55 -30.15 L-25.75 -30.45 -26.7 -31.6 -26.8 -32.15 -27.0 -32.75 -19.95 -34.65 Q-16.45 -35.65 -13.75 -37.65 -13.2 -39.75 -14.45 -41.5 -15.95 -43.6 -16.35 -45.7 L-14.05 -45.8 Q-10.5 -45.5 -8.65 -48.2 L-8.65 -49.05 -8.65 -50.5 -8.85 -50.8 -9.25 -51.65 -10.4 -52.55 -10.75 -53.35 Q-11.7 -54.8 -13.15 -55.7 L-12.3 -56.25 Q-9.75 -57.6 -7.9 -59.75 L-7.85 -60.6 Q-7.8 -61.35 -8.1 -62.05 L-8.45 -62.35 -9.8 -63.75 -8.85 -64.35 -8.75 -64.65 Q-8.45 -65.55 -7.6 -66.05 L-7.5 -66.35 -7.3 -66.95 Q-5.25 -68.65 -5.2 -71.55 -5.15 -73.75 -5.6 -75.85 L-6.15 -76.3 Q-7.95 -77.1 -8.65 -75.3 L-8.6 -73.3 Q-8.6 -72.1 -8.75 -70.95 L-11.55 -70.85 Q-14.8 -72.25 -16.7 -69.8 L-17.8 -67.45 -19.3 -64.05 Q-20.25 -63.35 -21.35 -63.75 L-22.65 -64.75 Q-26.1 -66.85 -29.8 -67.3 -28.7 -70.55 -28.25 -73.9 -27.8 -77.85 -28.55 -81.75 -32.0 -83.45 -35.45 -84.6 L-33.95 -86.2 -32.95 -87.1 Q-30.7 -89.45 -27.85 -90.85 L-27.8 -91.7 Q-27.6 -92.85 -26.8 -93.75 -26.65 -94.3 -26.65 -94.9 L-26.7 -96.6 Q-27.05 -97.25 -27.7 -97.6 L-29.85 -98.9 -28.65 -98.85 -5.5 -98.6 23.6 -97.4 47.65 -96.05 M4.8 -150.6 L7.65 -150.3 Q11.9 -148.7 15.65 -146.05 20.5 -142.6 25.15 -138.85 L27.05 -138.8 Q29.25 -140.15 31.3 -140.3 31.7 -139.65 32.25 -139.25 36.05 -136.3 40.1 -134.25 42.0 -133.3 44.0 -134.2 48.25 -136.15 51.8 -139.05 L52.3 -138.5 Q52.45 -136.65 52.2 -134.75 51.9 -132.5 52.3 -130.4 51.4 -127.8 53.3 -125.6 57.0 -121.3 60.05 -116.9 L59.85 -116.65 53.95 -112.55 53.95 -112.0 53.95 -111.1 53.75 -110.85 53.55 -110.55 Q53.5 -109.5 53.7 -108.55 L54.1 -106.2 53.95 -105.65 Q53.85 -105.05 54.1 -104.5 53.8 -103.8 53.9 -103.05 54.15 -101.85 55.0 -101.05 L55.05 -100.45 55.1 -100.05 45.25 -100.3 17.0 -101.55 -25.85 -103.75 -22.5 -104.85 Q-20.75 -106.85 -21.9 -109.3 L-24.0 -113.7 -22.25 -114.15 -17.7 -114.9 Q-16.65 -115.1 -15.75 -115.8 L-15.55 -116.7 -15.55 -118.1 -15.55 -121.0 Q-12.8 -120.75 -10.1 -119.95 L-3.45 -116.95 Q-3.3 -117.0 -3.1 -117.1 L-2.7 -117.35 -2.55 -117.95 -2.5 -118.5 -5.2 -120.05 -5.3 -120.9 -6.35 -122.95 Q-6.5 -124.05 -6.1 -125.0 -5.2 -126.85 -3.75 -128.4 L-3.65 -129.0 -3.75 -129.85 -4.0 -130.1 -5.2 -131.55 -5.2 -132.15 -5.2 -132.7 -5.4 -133.0 -7.2 -134.75 -7.65 -136.75 -8.35 -139.05 Q-4.95 -138.2 -2.9 -140.4 -2.8 -141.6 -3.25 -142.65 -4.1 -144.5 -5.2 -146.15 L-5.2 -146.75 -5.5 -147.9 -2.5 -147.85 Q1.6 -147.8 4.8 -150.6" fill="#ffff00" fill-opacity="0.5019608" fill-rule="evenodd" stroke="none"/>
  </g>
</svg>
