<?xml version="1.0" encoding="UTF-8" standalone="no"?>
<svg xmlns:ffdec="https://www.free-decompiler.com/flash" xmlns:xlink="http://www.w3.org/1999/xlink" ffdec:objectType="shape" height="118.15px" width="78.25px" xmlns="http://www.w3.org/2000/svg">
  <g transform="matrix(1.0, 0.0, 0.0, 1.0, 21.9, 136.4)">
    <path d="M26.2 -124.6 Q26.2 -119.7 22.75 -116.25 L20.45 -114.4 Q19.85 -113.6 18.5 -113.15 16.05 -112.3 13.45 -112.5 L10.85 -112.85 10.5 -111.9 Q11.9 -111.55 13.2 -110.55 L16.0 -108.45 Q20.85 -104.65 25.5 -100.65 L25.9 -100.65 30.5 -104.45 34.75 -108.35 Q38.65 -111.9 41.95 -115.9 41.35 -119.3 43.8 -121.1 L44.9 -121.6 Q49.6 -120.9 48.25 -115.9 47.3 -112.4 44.75 -109.65 39.8 -104.3 33.85 -100.0 30.9 -95.65 26.0 -93.85 24.75 -93.4 23.75 -94.3 L13.55 -102.85 9.3 -105.45 9.35 -104.75 9.5 -104.1 9.15 -104.2 Q8.5 -99.7 7.3 -95.3 6.35 -91.95 5.8 -88.5 L5.55 -87.9 Q5.75 -78.0 5.05 -68.3 L5.05 -68.15 7.7 -66.3 9.25 -65.5 Q17.1 -62.9 25.25 -60.75 25.85 -61.2 26.85 -61.3 29.3 -60.25 31.4 -58.35 L33.05 -56.9 Q39.9 -51.1 47.2 -46.2 50.15 -50.7 54.95 -50.3 55.55 -50.25 55.85 -49.65 57.45 -46.1 54.1 -43.65 L49.1 -40.3 Q47.9 -39.6 46.5 -39.95 43.8 -40.65 41.7 -42.7 L41.05 -43.25 30.85 -50.75 Q28.7 -52.25 26.85 -54.0 17.95 -56.35 9.1 -59.05 7.65 -59.5 6.3 -60.1 L8.05 -54.5 8.25 -53.4 Q9.75 -50.1 10.55 -46.5 11.5 -44.95 9.95 -42.45 8.55 -40.15 6.2 -38.7 0.75 -33.35 -4.25 -27.45 -1.6 -24.75 0.25 -21.25 0.6 -20.65 0.15 -20.05 -2.25 -16.7 -5.45 -19.55 -9.25 -22.95 -11.05 -27.6 -11.45 -28.65 -10.7 -29.5 -3.35 -37.8 4.5 -45.45 L4.75 -45.65 Q3.95 -48.85 2.75 -51.7 L2.25 -52.95 Q0.65 -57.3 -0.3 -61.95 L-0.85 -65.45 -1.1 -66.35 Q-1.2 -68.4 0.0 -69.35 L-0.25 -70.95 Q-0.7 -82.25 0.75 -93.15 1.25 -96.95 2.15 -100.65 L3.25 -105.5 -8.65 -101.85 Q-10.4 -98.4 -11.45 -94.8 -11.8 -93.65 -12.5 -92.7 L-12.9 -92.1 -15.0 -83.7 -15.2 -82.3 Q-12.2 -77.75 -16.9 -75.55 L-19.5 -75.7 Q-22.8 -77.8 -21.6 -81.8 L-20.4 -86.55 -18.65 -92.7 Q-17.55 -96.8 -15.75 -100.85 -14.15 -104.5 -11.85 -107.75 L-10.95 -108.4 -10.4 -108.55 -9.35 -108.05 Q-2.55 -110.35 4.35 -112.1 L4.55 -113.6 4.8 -114.2 Q4.45 -115.85 4.9 -116.95 4.2 -118.1 3.75 -119.4 2.6 -121.8 2.6 -124.6 2.6 -129.5 6.05 -132.95 9.5 -136.4 14.4 -136.4 19.3 -136.4 22.75 -132.95 26.2 -129.5 26.2 -124.6" fill="#000000" fill-rule="evenodd" stroke="none"/>
  </g>
</svg>
