<?xml version="1.0" encoding="UTF-8" standalone="no"?>
<svg xmlns:ffdec="https://www.free-decompiler.com/flash" xmlns:xlink="http://www.w3.org/1999/xlink" ffdec:objectType="shape" height="139.75px" width="107.0px" xmlns="http://www.w3.org/2000/svg">
  <g transform="matrix(1.0, 0.0, 0.0, 1.0, 36.9, 151.1)">
    <path d="M7.7 -151.05 L7.7 -151.1 Q10.3 -150.3 12.75 -148.85 L15.85 -146.85 16.55 -146.35 Q18.8 -144.6 21.05 -143.35 L22.8 -142.8 25.45 -141.0 Q26.35 -140.4 27.35 -140.75 L31.55 -141.2 31.6 -141.1 32.1 -140.6 32.45 -140.4 Q34.65 -139.6 36.4 -139.3 L37.25 -139.15 37.6 -139.0 39.7 -137.6 Q40.4 -137.2 41.05 -137.0 L43.2 -136.85 43.5 -136.95 Q46.2 -137.05 48.75 -138.85 L50.5 -140.85 50.95 -140.6 51.2 -139.15 51.3 -138.35 Q51.45 -136.25 52.15 -134.2 51.9 -131.75 53.7 -129.55 L53.9 -129.3 54.3 -128.2 54.9 -126.8 55.25 -126.05 55.5 -125.4 57.5 -121.95 58.65 -120.35 58.55 -120.05 56.25 -117.0 54.3 -115.35 54.2 -114.8 54.0 -113.95 53.75 -113.75 53.65 -113.65 53.5 -113.45 53.15 -111.8 53.15 -111.7 52.95 -110.4 52.8 -109.75 52.55 -109.3 Q52.3 -108.85 52.35 -108.35 51.95 -107.75 51.9 -107.1 L51.9 -106.4 52.4 -105.4 52.65 -105.05 52.75 -104.45 52.85 -103.6 52.3 -103.25 48.8 -101.7 48.55 -101.6 48.1 -101.2 47.8 -100.8 47.75 -100.6 48.0 -98.8 -30.7 -99.0 -30.75 -99.1 -31.0 -99.4 -31.85 -100.7 -30.95 -101.35 -26.7 -104.0 -25.0 -105.25 -24.6 -105.55 -24.1 -105.95 Q-23.25 -107.7 -24.0 -109.65 L-24.05 -110.2 -24.4 -113.65 -22.7 -114.2 -22.6 -114.2 -21.8 -114.6 -19.3 -115.9 Q-18.5 -116.35 -17.85 -117.15 L-17.7 -118.05 -17.7 -119.45 -17.8 -122.2 -17.75 -122.35 -14.5 -121.75 -12.25 -121.05 Q-9.3 -119.65 -6.25 -118.35 L-5.5 -118.05 -5.15 -118.1 -4.65 -118.15 -4.45 -118.55 -4.45 -118.7 -4.3 -118.85 -5.5 -119.75 -5.35 -120.35 -5.35 -120.45 -6.15 -122.45 Q-6.25 -123.55 -5.95 -124.55 L-4.9 -126.9 -3.75 -127.85 -3.55 -128.35 -3.55 -128.4 -3.55 -129.2 -3.75 -129.5 -4.65 -131.0 -4.7 -131.6 -4.75 -132.15 -4.95 -132.45 -5.05 -132.6 -6.55 -134.45 -7.0 -136.4 -7.7 -138.7 Q-5.45 -138.9 -3.9 -141.15 L-3.65 -141.3 Q-3.25 -142.2 -3.3 -143.0 -3.45 -144.35 -3.75 -145.5 L-3.6 -145.95 -3.55 -146.65 -3.55 -146.75 -0.5 -146.7 1.3 -146.9 1.75 -147.1 Q3.85 -148.2 5.55 -150.5 6.6 -151.05 7.7 -151.05 M47.7 -94.7 L47.25 -94.4 47.2 -94.4 45.7 -94.2 45.25 -94.15 45.0 -94.1 44.8 -94.1 44.4 -94.0 43.3 -93.75 40.85 -93.3 39.7 -90.9 Q39.15 -89.3 37.5 -88.1 L35.55 -88.45 32.3 -88.3 30.9 -88.4 Q28.0 -89.15 25.25 -90.5 L23.6 -91.15 Q21.15 -91.95 19.15 -90.9 L19.0 -90.4 18.75 -89.45 17.75 -89.4 16.3 -88.95 Q14.6 -88.35 13.5 -86.35 L13.75 -85.05 14.4 -83.2 15.6 -82.3 16.85 -80.7 17.55 -80.2 Q19.05 -79.45 20.65 -78.9 L22.85 -78.05 Q24.6 -77.35 26.5 -76.8 27.7 -76.05 28.95 -75.45 31.2 -73.95 33.4 -72.7 L34.7 -71.5 34.95 -71.15 35.0 -71.1 35.1 -71.0 Q38.5 -67.8 43.5 -68.8 L43.75 -68.85 50.2 -67.75 50.4 -67.7 51.8 -67.55 52.55 -67.5 58.15 -68.0 Q57.45 -65.95 57.8 -63.55 L58.25 -61.05 58.45 -60.4 58.4 -59.25 58.55 -58.95 Q59.35 -57.1 60.85 -56.3 L61.3 -55.75 62.55 -54.55 62.9 -54.3 63.45 -53.95 64.2 -53.45 Q67.65 -51.6 70.05 -48.55 L70.1 -48.25 70.05 -47.7 69.05 -46.45 68.4 -45.9 66.8 -45.05 65.25 -44.1 64.95 -43.6 Q63.9 -41.95 63.95 -40.15 63.85 -38.15 63.25 -35.95 L62.1 -35.4 59.15 -35.05 58.7 -34.85 58.65 -34.6 57.9 -32.7 56.8 -30.25 56.75 -30.25 53.75 -30.45 53.6 -30.5 53.25 -30.5 52.4 -30.7 52.0 -30.8 50.65 -30.95 Q49.8 -30.8 49.25 -30.15 L47.9 -28.7 44.6 -27.45 43.65 -27.65 42.55 -29.45 41.7 -31.0 39.9 -34.25 Q39.6 -34.55 39.1 -34.55 L38.25 -34.6 37.65 -34.6 37.4 -34.55 36.8 -34.55 30.4 -33.5 30.2 -33.7 29.9 -34.8 29.55 -36.1 28.95 -38.7 Q28.3 -41.5 26.6 -43.4 25.8 -43.5 25.45 -43.05 L24.8 -42.45 23.5 -41.75 Q21.45 -41.95 19.35 -40.8 L19.2 -40.7 18.95 -40.55 18.15 -40.1 Q16.7 -39.65 15.95 -38.25 L15.25 -37.0 15.05 -34.8 15.05 -34.0 14.65 -30.35 14.65 -29.8 Q13.85 -27.0 12.4 -24.7 L12.05 -24.55 10.75 -24.5 9.85 -24.4 6.0 -23.35 5.85 -23.15 5.55 -22.55 5.65 -22.0 5.75 -21.4 Q5.45 -20.45 5.3 -19.4 L5.0 -19.05 3.65 -17.0 2.35 -15.1 1.95 -13.9 1.5 -13.15 0.8 -11.75 -0.35 -11.6 -1.65 -11.35 -1.95 -11.55 -2.8 -11.8 Q-3.2 -12.55 -4.25 -12.6 L-5.4 -12.7 -10.9 -13.0 -17.15 -11.35 -17.4 -12.7 -17.65 -13.65 -17.75 -15.5 -17.75 -16.7 -17.7 -19.15 -17.85 -20.0 -18.15 -21.0 -18.25 -21.05 Q-19.3 -21.85 -20.75 -21.95 L-22.85 -22.0 -23.65 -22.35 -24.0 -22.55 -27.75 -24.15 -27.75 -24.55 -27.75 -26.5 -27.95 -29.35 Q-28.1 -31.45 -28.95 -33.35 L-29.2 -33.6 -29.8 -34.2 -30.0 -34.6 -29.95 -35.1 -29.9 -35.65 -28.8 -36.0 Q-27.15 -36.55 -25.65 -37.3 L-23.45 -38.45 Q-20.9 -39.9 -19.2 -42.0 L-18.5 -42.4 Q-17.6 -44.05 -18.05 -45.25 L-18.1 -45.35 Q-18.55 -46.75 -18.25 -48.25 L-15.95 -48.25 Q-13.0 -48.0 -11.05 -49.45 L-10.5 -50.25 -10.45 -51.1 -10.4 -52.5 -10.4 -52.6 -10.45 -52.85 -10.5 -53.55 -10.6 -53.65 -11.1 -54.35 -11.15 -55.0 Q-11.45 -56.25 -12.2 -57.1 L-11.4 -57.6 -9.7 -58.7 Q-8.4 -59.95 -7.55 -61.45 L-7.55 -62.3 -7.8 -63.55 -7.9 -63.75 -8.2 -64.0 -9.6 -65.45 -9.05 -66.05 -9.05 -66.35 Q-9.0 -67.15 -8.5 -67.65 L-8.5 -68.0 -8.55 -68.05 -8.25 -68.6 Q-6.2 -70.35 -5.7 -73.0 -5.35 -74.6 -5.3 -76.15 L-5.25 -76.8 -5.25 -77.0 -5.6 -77.5 Q-6.4 -78.1 -6.95 -78.05 L-7.75 -77.5 -8.1 -76.35 -8.45 -75.6 -8.8 -74.95 -11.55 -75.05 -13.55 -75.25 Q-15.0 -74.85 -16.0 -73.1 L-16.9 -70.7 -17.75 -68.65 -18.5 -67.65 Q-19.5 -67.1 -20.55 -67.3 L-21.85 -67.85 -22.7 -68.05 -26.45 -68.4 -28.2 -68.65 -28.75 -68.8 -28.8 -70.65 -28.8 -71.15 Q-28.7 -73.15 -28.95 -74.6 L-29.15 -75.2 -29.65 -76.95 Q-29.75 -78.8 -30.25 -80.6 L-30.4 -81.7 -31.9 -82.85 -36.6 -84.95 -36.9 -85.0 -36.0 -86.25 -35.5 -86.8 -34.55 -87.65 -34.15 -88.05 -29.4 -91.6 -29.35 -91.8 -29.2 -92.45 -28.85 -93.75 -28.55 -94.5 Q-28.5 -95.05 -28.6 -95.6 L-28.6 -95.75 47.7 -95.05 47.7 -94.7" fill="#ffff00" fill-opacity="0.5019608" fill-rule="evenodd" stroke="none"/>
  </g>
</svg>
