<?xml version="1.0" encoding="UTF-8" standalone="no"?>
<svg xmlns:ffdec="https://www.free-decompiler.com/flash" xmlns:xlink="http://www.w3.org/1999/xlink" ffdec:objectType="shape" height="116.5px" width="83.8px" xmlns="http://www.w3.org/2000/svg">
  <g transform="matrix(1.0, 0.0, 0.0, 1.0, 23.1, 136.6)">
    <path d="M25.75 -124.8 Q25.75 -119.9 22.3 -116.45 19.65 -113.8 16.15 -113.15 L14.65 -113.6 13.55 -113.45 12.95 -113.95 11.3 -114.75 9.95 -111.45 10.3 -110.45 10.35 -109.7 13.8 -108.65 17.35 -107.2 27.35 -105.2 35.25 -112.85 Q38.9 -116.5 41.25 -120.75 40.75 -123.35 43.0 -124.6 L44.15 -125.05 Q48.9 -124.35 47.45 -119.35 46.95 -117.7 45.95 -116.3 40.65 -108.95 33.6 -103.15 33.0 -100.0 29.4 -99.35 26.8 -98.9 24.1 -99.45 15.75 -101.25 7.9 -104.6 6.65 -99.3 6.45 -93.75 L6.15 -85.4 5.95 -68.7 6.6 -68.3 7.0 -68.0 23.1 -65.75 Q27.55 -65.1 30.9 -62.1 35.3 -58.25 39.35 -54.4 43.05 -50.85 47.5 -47.95 52.25 -48.85 56.95 -50.6 58.6 -51.2 59.8 -49.9 61.95 -47.4 59.1 -45.65 L57.2 -44.55 Q51.15 -41.35 44.8 -42.6 44.3 -42.7 43.8 -43.05 36.45 -48.1 30.35 -54.45 26.2 -58.75 20.55 -60.0 L14.55 -60.9 Q10.85 -61.2 7.4 -62.1 L7.7 -59.55 7.85 -58.1 8.8 -56.05 9.0 -54.95 Q11.05 -50.4 12.45 -45.7 13.35 -42.6 10.5 -42.1 L9.85 -41.45 Q5.7 -38.0 0.65 -35.85 -3.0 -34.3 -6.3 -32.2 L-7.5 -31.4 Q-7.1 -26.05 -8.35 -21.1 -8.55 -20.35 -9.35 -20.2 -13.25 -19.45 -13.4 -23.25 -13.6 -29.3 -12.55 -35.05 L-12.15 -35.6 Q-6.9 -39.45 -0.7 -41.85 0.1 -42.1 0.8 -42.5 3.15 -43.8 5.05 -45.65 L6.1 -46.45 Q1.8 -55.05 1.1 -64.55 0.75 -64.95 0.65 -65.5 0.05 -68.25 0.1 -71.2 L0.05 -79.55 Q-0.15 -87.0 0.7 -94.25 L2.0 -104.25 2.5 -106.95 0.25 -107.0 Q-4.45 -107.15 -6.7 -103.5 -10.9 -96.55 -15.95 -90.2 L-15.95 -89.9 Q-15.9 -89.1 -16.2 -88.45 L-16.7 -87.6 Q-14.25 -83.05 -18.9 -81.55 -20.2 -81.15 -21.15 -82.05 -23.95 -84.65 -22.75 -88.55 L-22.25 -89.9 -21.7 -90.75 -21.7 -91.05 Q-21.8 -91.95 -21.35 -92.75 L-20.65 -93.65 Q-19.25 -96.65 -16.95 -99.35 L-13.85 -103.5 -11.35 -106.9 Q-10.4 -110.85 -5.85 -111.9 L0.0 -112.75 4.0 -112.65 4.95 -115.35 5.65 -116.75 5.0 -116.75 4.0 -117.3 4.1 -118.15 4.05 -118.15 4.1 -118.25 3.5 -119.25 2.9 -120.5 2.75 -121.0 Q2.15 -122.8 2.15 -124.8 2.15 -129.7 5.6 -133.15 9.05 -136.6 13.95 -136.6 L16.15 -136.4 Q19.05 -135.9 21.4 -133.95 L22.3 -133.15 Q25.75 -129.7 25.75 -124.8" fill="#000000" fill-rule="evenodd" stroke="none"/>
  </g>
</svg>
