<?xml version="1.0" encoding="UTF-8" standalone="no"?>
<svg xmlns:ffdec="https://www.free-decompiler.com/flash" xmlns:xlink="http://www.w3.org/1999/xlink" ffdec:objectType="shape" height="137.05px" width="109.0px" xmlns="http://www.w3.org/2000/svg">
  <g transform="matrix(1.0, 0.0, 0.0, 1.0, 38.35, 151.85)">
    <path d="M7.75 -151.75 L7.75 -151.85 Q10.4 -151.25 12.95 -149.75 L16.05 -147.6 16.7 -147.1 Q19.05 -145.25 21.45 -144.4 L22.85 -144.75 25.8 -143.15 Q26.7 -142.65 27.6 -142.7 29.8 -142.8 31.75 -142.05 L31.8 -142.0 Q32.05 -141.65 32.35 -141.65 L32.6 -141.6 Q34.8 -141.65 36.1 -142.5 L36.9 -142.65 37.25 -142.55 39.3 -140.95 40.5 -140.25 42.4 -139.55 42.65 -139.5 Q45.3 -138.45 47.9 -140.35 L49.25 -142.65 49.6 -142.75 50.1 -142.7 50.35 -141.95 Q51.0 -139.95 51.95 -138.0 52.4 -135.65 54.1 -133.45 L54.25 -133.3 54.2 -132.15 54.35 -130.65 54.55 -129.85 54.45 -129.15 Q55.1 -127.3 56.05 -125.5 L57.25 -123.8 57.25 -123.5 56.4 -120.0 54.65 -118.1 54.45 -117.65 54.05 -116.85 53.8 -116.6 53.65 -116.5 53.45 -116.3 52.65 -114.9 52.6 -114.85 51.9 -113.8 51.55 -113.35 51.15 -113.0 50.6 -112.2 49.9 -111.15 49.65 -110.5 50.05 -109.5 50.3 -109.05 50.5 -108.45 50.7 -107.6 50.55 -107.1 Q49.85 -105.7 49.65 -104.6 L49.45 -104.4 49.3 -103.85 48.9 -103.5 48.85 -103.35 47.9 -101.4 46.4 -98.5 45.95 -98.2 45.9 -98.15 44.9 -97.3 44.6 -97.0 44.65 -96.8 44.5 -96.7 44.25 -96.45 Q43.55 -96.3 43.25 -95.85 L40.8 -95.6 Q39.8 -94.8 38.95 -94.0 37.85 -92.9 36.1 -92.1 L34.1 -92.3 31.8 -90.55 30.55 -90.15 Q27.6 -90.55 24.75 -91.65 L23.05 -92.2 Q20.6 -93.0 18.55 -92.15 L18.25 -91.75 17.7 -90.95 16.75 -90.7 15.8 -89.75 Q15.55 -88.8 15.7 -86.85 L16.3 -85.7 17.3 -84.05 18.45 -83.2 13.5 -83.6 -36.25 -87.2 -36.25 -87.1 -37.05 -86.95 -37.5 -86.75 -37.55 -86.7 -37.5 -86.8 -37.05 -87.35 -36.15 -88.2 -35.75 -88.6 -30.95 -92.35 -30.85 -92.55 -30.65 -93.15 -30.4 -94.45 -30.35 -95.3 -30.5 -96.35 -31.05 -97.95 -31.95 -98.9 -32.6 -99.4 -32.55 -99.9 -32.5 -100.2 -32.15 -101.25 -31.3 -101.8 Q-29.05 -103.05 -26.95 -104.5 L-25.85 -106.05 -25.85 -106.45 -25.75 -107.1 Q-25.5 -108.85 -26.45 -110.75 L-26.2 -111.1 -24.8 -113.65 -23.1 -114.2 -23.05 -114.2 -22.5 -114.9 -20.85 -116.9 -19.9 -118.5 -19.85 -119.4 -19.9 -120.8 -20.0 -123.6 -19.9 -123.7 -16.65 -122.95 -14.4 -122.15 -8.3 -119.45 -7.55 -119.1 -7.15 -119.05 -6.65 -118.95 Q-6.45 -119.05 -6.35 -119.1 L-6.35 -119.2 -6.1 -119.25 -5.85 -119.4 -5.4 -119.85 -5.4 -119.9 -5.95 -121.95 -5.8 -124.1 -5.0 -126.6 -3.8 -127.3 -3.4 -127.75 -3.4 -128.55 -3.5 -128.9 -4.15 -130.4 -4.2 -131.0 -4.3 -131.6 -4.45 -131.95 -4.55 -132.15 -5.85 -134.1 -6.4 -136.05 -7.05 -138.4 Q-5.75 -139.55 -4.7 -142.1 L-4.4 -142.2 -3.35 -143.3 -2.3 -144.85 -1.95 -145.1 -1.6 -145.55 -1.55 -145.6 1.5 -145.5 3.35 -145.85 3.75 -146.15 Q5.15 -147.9 6.35 -150.45 L7.75 -151.75 M56.9 -64.65 Q57.55 -63.2 58.9 -61.55 L60.3 -59.8 60.65 -59.25 60.55 -58.15 60.6 -57.8 Q61.05 -55.85 62.0 -54.65 L62.25 -54.05 63.05 -52.6 63.4 -52.35 63.8 -51.9 64.5 -51.25 Q67.95 -49.2 70.4 -46.2 L70.5 -45.95 70.65 -45.35 70.45 -43.9 69.8 -43.25 68.1 -42.5 66.5 -41.55 66.1 -41.2 Q64.65 -39.95 64.2 -38.4 L63.1 -34.3 62.3 -33.35 59.35 -33.1 58.85 -32.95 58.7 -32.8 57.3 -31.65 55.4 -30.1 55.3 -30.1 52.4 -29.85 52.3 -29.75 52.1 -29.55 51.25 -29.45 50.95 -29.35 49.85 -28.9 48.75 -27.75 47.6 -26.15 44.35 -26.4 43.45 -26.85 42.3 -28.65 41.45 -30.05 Q40.0 -32.15 38.9 -32.2 L38.1 -32.1 37.3 -32.35 36.7 -32.45 36.55 -32.55 36.15 -32.85 29.65 -32.35 29.4 -32.45 29.2 -33.55 29.0 -34.9 28.65 -37.5 Q28.15 -40.3 26.7 -42.45 L25.75 -42.7 25.05 -42.75 23.85 -42.8 Q21.85 -43.5 19.65 -42.15 L19.5 -42.05 19.35 -41.85 18.8 -41.15 Q17.85 -40.25 17.35 -38.75 L16.45 -37.6 15.9 -35.5 15.85 -34.7 14.7 -31.3 14.55 -30.75 Q12.65 -28.95 10.45 -28.0 L10.1 -27.95 8.8 -28.15 7.85 -28.1 Q5.75 -27.65 4.2 -26.75 L4.05 -26.55 3.7 -25.9 3.65 -25.35 3.65 -24.7 3.25 -22.65 2.95 -22.4 Q2.05 -22.3 1.1 -21.7 L-0.7 -20.4 -1.0 -19.25 -1.5 -18.45 Q-1.7 -17.65 -2.2 -16.95 L-3.25 -16.55 -4.25 -15.85 -4.55 -15.85 -5.4 -15.95 Q-5.95 -16.35 -6.9 -16.45 L-8.05 -16.75 Q-10.8 -17.5 -13.45 -17.65 -16.2 -16.1 -19.3 -14.8 L-20.15 -15.25 -20.75 -15.9 Q-20.9 -16.9 -21.2 -17.75 L-21.3 -18.85 -21.35 -21.4 -21.6 -22.3 -22.15 -23.2 -22.3 -23.25 -24.9 -23.75 -27.1 -23.75 -27.6 -24.4 -27.6 -24.85 -29.95 -27.65 -29.95 -28.1 -30.05 -30.0 -30.55 -32.8 Q-31.1 -34.85 -32.35 -36.55 L-32.65 -36.8 -33.3 -37.3 -33.3 -37.65 -33.05 -38.05 -32.8 -38.5 -31.75 -38.9 Q-30.1 -39.6 -28.85 -40.65 L-27.0 -42.25 Q-24.95 -44.25 -24.0 -46.8 L-23.25 -47.1 Q-22.0 -48.35 -21.65 -49.05 L-21.65 -49.1 -20.2 -50.75 -17.85 -50.7 Q-14.95 -50.45 -12.75 -51.4 L-12.35 -52.3 -12.25 -53.2 -12.2 -54.6 -12.15 -54.65 -12.05 -54.9 -11.8 -55.5 -11.8 -55.6 -11.75 -56.15 -11.55 -56.7 Q-11.25 -57.7 -11.25 -58.5 L-10.5 -59.0 -8.75 -60.1 Q-7.7 -61.6 -7.25 -63.2 L-7.3 -64.0 -7.6 -65.3 -7.7 -65.45 -7.95 -65.7 -9.4 -67.15 -9.25 -67.75 -9.35 -68.0 -9.4 -69.25 -9.55 -69.6 -9.65 -69.7 -9.25 -70.25 Q-7.15 -72.0 -6.15 -74.4 L-5.1 -77.3 -4.85 -77.95 -4.85 -78.1 -5.1 -78.7 -5.95 -79.75 -6.8 -79.65 -6.85 -79.7 -7.65 -79.4 Q-7.95 -79.25 -8.35 -79.05 L-8.85 -78.9 -11.6 -79.25 -13.65 -79.15 Q-14.6 -78.25 -15.35 -76.4 L-16.0 -73.9 -16.7 -71.85 -17.7 -71.2 -19.75 -70.8 -21.0 -70.95 -21.85 -70.85 Q-23.2 -70.25 -25.4 -69.9 L-27.15 -70.1 -27.65 -70.3 -28.45 -71.75 -28.6 -72.25 Q-28.95 -74.4 -29.7 -75.3 L-30.1 -75.6 -31.2 -76.85 Q-31.45 -78.8 -32.1 -80.55 L-32.3 -81.65 -32.8 -82.35 -16.45 -81.7 -7.6 -80.7 28.65 -77.95 28.85 -77.95 31.15 -76.3 34.55 -72.55 35.5 -71.1 35.75 -70.75 35.85 -70.65 35.95 -70.55 Q39.75 -68.15 44.7 -69.15 L44.85 -69.05 49.2 -65.35 49.35 -65.25 50.55 -64.6 Q50.85 -64.4 51.25 -64.4 L56.9 -64.65 M-38.35 -85.4 L-38.1 -85.8 -38.2 -85.35 -38.35 -85.4" fill="#ffff00" fill-opacity="0.5019608" fill-rule="evenodd" stroke="none"/>
  </g>
</svg>
