<?xml version="1.0" encoding="UTF-8" standalone="no"?>
<svg xmlns:ffdec="https://www.free-decompiler.com/flash" xmlns:xlink="http://www.w3.org/1999/xlink" ffdec:objectType="shape" height="111.2px" width="81.65px" xmlns="http://www.w3.org/2000/svg">
  <g transform="matrix(1.0, 0.0, 0.0, 1.0, 22.6, 137.85)">
    <path d="M25.85 -126.05 Q25.85 -121.15 22.4 -117.7 19.85 -115.15 16.55 -114.45 L16.5 -114.45 15.45 -114.65 14.75 -114.85 14.6 -114.8 14.25 -114.9 12.25 -115.1 Q10.65 -115.55 9.3 -116.3 L9.1 -115.4 8.55 -114.55 8.2 -113.0 Q9.15 -113.1 10.15 -112.6 17.0 -109.05 24.6 -107.55 L28.75 -107.4 29.55 -107.75 Q34.35 -111.5 37.7 -116.55 38.95 -118.35 39.5 -120.5 L39.55 -120.55 Q38.2 -121.6 38.6 -124.05 38.85 -125.95 40.9 -126.35 L41.45 -126.45 Q43.8 -126.05 44.45 -124.55 45.75 -123.15 44.9 -120.45 41.5 -109.85 31.8 -103.55 28.15 -101.15 23.7 -102.5 L12.55 -106.0 8.1 -107.6 7.25 -108.05 Q6.2 -101.45 6.2 -94.7 6.2 -91.6 5.1 -88.9 L5.1 -83.45 5.1 -81.7 5.85 -77.65 Q7.95 -76.05 6.35 -72.6 L5.9 -71.25 25.95 -65.55 Q33.05 -63.65 38.2 -58.25 43.0 -53.2 48.2 -48.5 52.2 -50.65 56.55 -52.4 57.5 -52.75 58.15 -51.95 60.4 -49.25 57.15 -47.4 52.95 -45.05 48.65 -43.25 47.25 -42.65 46.2 -43.65 L31.4 -57.1 Q27.9 -60.35 23.2 -61.4 15.7 -63.05 8.35 -65.2 L6.65 -65.8 7.6 -62.8 Q8.35 -60.65 8.2 -58.3 L8.15 -57.4 Q10.1 -52.55 10.4 -47.05 10.5 -44.6 8.95 -42.95 8.15 -42.05 7.1 -41.5 -0.15 -37.8 -8.1 -36.3 -10.4 -35.9 -12.2 -34.85 L-11.4 -29.65 Q-10.75 -26.2 -14.35 -26.75 -16.05 -27.0 -16.4 -28.7 -17.5 -33.85 -16.15 -38.7 -15.95 -39.4 -15.15 -39.55 -5.55 -41.45 3.5 -45.0 4.6 -45.4 5.3 -46.4 L5.3 -48.1 5.3 -49.25 Q3.5 -54.35 3.35 -59.9 L3.35 -61.05 Q1.15 -65.15 0.9 -70.0 L1.0 -72.5 Q0.5 -73.55 0.7 -75.2 1.05 -78.6 0.6 -81.85 -0.15 -87.5 0.8 -92.8 1.65 -97.85 1.75 -103.15 1.75 -105.0 2.05 -106.9 L2.15 -107.45 Q-4.75 -105.2 -10.5 -100.95 -11.25 -100.4 -11.5 -99.5 -12.25 -97.1 -13.75 -95.15 -14.4 -92.5 -15.55 -89.95 L-16.4 -88.25 Q-14.8 -83.75 -19.3 -82.45 -21.95 -81.7 -22.4 -84.2 -23.2 -88.25 -20.45 -91.3 -18.15 -98.3 -14.1 -104.65 -12.7 -106.9 -10.25 -108.0 -3.65 -110.9 3.05 -112.7 L3.45 -115.0 3.95 -116.95 4.5 -117.85 5.05 -119.3 5.25 -119.6 3.5 -120.7 3.4 -120.9 Q2.25 -123.25 2.25 -126.05 2.25 -130.95 5.7 -134.4 9.15 -137.85 14.05 -137.85 18.95 -137.85 22.4 -134.4 25.85 -130.95 25.85 -126.05" fill="#000000" fill-rule="evenodd" stroke="none"/>
  </g>
</svg>
