<?xml version="1.0" encoding="UTF-8" standalone="no"?>
<svg xmlns:ffdec="https://www.free-decompiler.com/flash" xmlns:xlink="http://www.w3.org/1999/xlink" ffdec:objectType="shape" height="134.85px" width="111.65px" xmlns="http://www.w3.org/2000/svg">
  <g transform="matrix(1.0, 0.0, 0.0, 1.0, 39.85, 152.65)">
    <path d="M7.8 -152.5 L7.8 -152.65 Q10.5 -152.2 13.1 -150.6 L16.25 -148.4 16.9 -147.9 Q19.3 -145.85 21.8 -145.4 L22.95 -146.75 26.1 -145.35 Q27.0 -144.85 27.9 -144.7 30.05 -144.1 32.0 -142.95 32.3 -142.6 32.55 -142.7 L32.8 -142.75 Q35.0 -143.75 35.8 -145.65 L36.5 -146.2 36.9 -146.15 38.9 -144.35 39.9 -143.45 Q40.75 -142.75 41.6 -142.2 L41.85 -142.05 Q44.35 -139.9 47.0 -141.9 L47.95 -144.5 48.2 -144.85 49.0 -146.3 49.45 -145.6 51.8 -141.85 Q52.85 -139.6 54.5 -137.4 L54.65 -137.25 54.05 -136.15 Q54.3 -135.2 53.8 -134.55 L53.8 -133.7 53.45 -132.9 Q53.8 -130.9 54.6 -129.1 L55.85 -127.3 55.95 -126.9 Q56.4 -125.05 56.5 -123.0 L54.95 -120.9 54.65 -120.45 54.05 -119.7 53.8 -119.5 53.6 -119.4 53.35 -119.2 52.1 -118.05 52.0 -118.0 Q51.45 -117.55 50.8 -117.25 L50.25 -116.9 49.75 -116.65 48.85 -116.1 47.85 -115.2 47.35 -114.6 47.65 -113.55 47.95 -113.05 48.2 -112.45 48.55 -111.65 48.75 -111.0 Q49.25 -109.05 50.45 -107.45 L50.4 -107.15 50.45 -106.55 50.0 -106.15 49.9 -106.1 47.85 -104.6 Q46.4 -103.55 45.15 -102.25 L44.6 -101.95 44.55 -101.9 44.05 -100.45 44.0 -99.9 44.3 -99.5 44.25 -99.3 44.1 -98.85 Q43.35 -98.6 43.25 -98.0 L40.75 -97.85 38.15 -97.05 34.65 -96.05 32.6 -96.2 31.3 -92.85 30.15 -91.95 Q27.15 -92.0 24.25 -92.8 L22.45 -93.3 Q20.0 -94.1 17.9 -93.35 L17.45 -93.05 16.7 -92.45 15.75 -92.05 15.35 -90.55 17.9 -87.35 18.8 -86.35 20.2 -84.85 21.35 -84.05 21.1 -81.95 21.7 -81.25 Q23.3 -80.5 25.0 -80.05 L27.3 -79.5 31.25 -79.15 31.95 -78.45 -4.85 -78.65 -4.5 -79.15 -4.5 -79.25 -4.55 -79.95 -5.0 -81.45 -5.9 -81.85 -6.0 -81.95 Q-6.45 -82.3 -7.15 -82.45 L-8.2 -82.55 -8.9 -82.9 -11.6 -83.45 -13.75 -83.1 -14.65 -79.7 -14.8 -78.65 -33.25 -78.7 -34.0 -80.55 -34.15 -81.65 -35.05 -83.4 -39.75 -85.8 -39.85 -85.85 -39.0 -87.35 -38.6 -87.95 -37.8 -88.8 -37.35 -89.15 -32.55 -93.15 -32.4 -93.35 -32.05 -93.9 Q-31.8 -94.55 -31.95 -95.2 L-32.1 -96.05 -32.45 -97.05 -33.25 -98.6 -34.1 -99.6 -34.75 -100.2 -34.4 -100.7 -34.05 -101.05 -32.5 -101.85 -31.6 -102.25 Q-29.25 -103.3 -27.2 -104.95 L-26.75 -106.9 -27.15 -107.4 -27.35 -108.2 Q-27.8 -110.05 -28.85 -111.85 L-28.35 -112.0 Q-26.7 -112.55 -25.25 -113.6 L-23.55 -114.25 -23.25 -115.15 -22.45 -117.95 -22.0 -119.9 -22.0 -120.8 -22.05 -122.2 -22.25 -125.0 -22.1 -125.05 -18.8 -124.2 -16.6 -123.25 -10.4 -120.55 -9.6 -120.2 -9.2 -120.05 -8.6 -119.8 -8.25 -119.7 -8.25 -119.75 -7.95 -119.6 Q-7.05 -119.05 -6.15 -119.1 L-5.45 -119.3 -5.45 -119.35 -5.8 -121.45 -5.7 -123.7 -5.15 -126.3 -3.8 -126.75 -3.3 -127.1 -3.3 -127.15 -3.2 -127.95 -3.3 -128.3 -3.6 -129.85 -3.75 -130.45 -3.85 -131.05 -4.0 -131.4 -4.1 -131.65 -5.2 -133.8 -5.75 -135.75 -6.4 -138.05 -5.55 -143.1 -5.2 -143.15 -3.4 -143.65 -0.9 -144.25 -0.35 -144.3 0.3 -144.4 0.4 -144.45 3.45 -144.35 Q4.5 -144.45 5.35 -144.85 L5.75 -145.2 7.1 -150.35 7.8 -152.5 M45.9 -69.3 L48.15 -63.0 48.25 -62.85 49.25 -61.7 49.9 -61.35 55.65 -61.3 60.0 -59.55 Q61.1 -59.05 62.3 -58.6 L62.85 -58.15 62.7 -57.0 62.7 -56.65 Q62.75 -54.65 63.1 -52.95 L63.25 -52.3 63.5 -50.65 63.85 -50.35 64.2 -49.85 Q64.4 -49.35 64.85 -49.1 68.2 -46.85 70.8 -43.85 L70.95 -43.6 71.2 -43.05 71.8 -41.4 71.15 -40.65 69.4 -39.95 67.75 -39.05 67.2 -38.8 Q65.35 -37.95 64.45 -36.65 63.2 -35.0 62.9 -32.6 L62.55 -31.25 59.55 -31.2 59.0 -31.1 58.8 -31.05 56.75 -30.55 54.05 -30.0 53.9 -30.0 Q52.15 -30.2 51.05 -29.2 L51.0 -29.05 50.9 -28.65 Q50.55 -28.35 50.1 -28.15 L49.85 -27.85 49.1 -26.9 48.2 -25.35 47.3 -23.65 44.05 -25.4 43.2 -26.0 42.0 -27.8 41.15 -29.15 Q39.5 -31.2 37.9 -30.2 L37.1 -29.65 36.3 -30.05 35.7 -30.35 35.65 -30.5 35.45 -31.1 Q32.4 -31.85 28.95 -31.2 L28.6 -31.2 28.5 -32.3 28.45 -33.65 28.3 -36.3 Q27.95 -39.15 26.75 -41.55 L26.0 -42.4 25.35 -43.05 24.15 -43.85 Q22.25 -45.1 19.95 -43.5 L19.85 -43.4 19.75 -43.15 19.5 -42.2 18.7 -39.3 17.7 -38.2 16.7 -36.25 16.6 -35.4 14.75 -32.2 14.5 -31.7 8.55 -31.3 8.15 -31.4 6.85 -31.8 5.9 -31.85 Q3.7 -31.35 2.35 -30.15 L2.2 -29.95 1.8 -29.25 1.65 -28.7 1.55 -28.05 1.25 -25.95 0.85 -25.8 Q-0.3 -26.5 -1.45 -26.4 -2.55 -26.4 -3.7 -25.75 L-3.9 -24.6 -4.5 -23.8 Q-4.65 -22.85 -5.15 -22.15 L-6.15 -21.55 -6.9 -20.4 -7.1 -20.2 -8.0 -20.05 -9.6 -20.35 -10.75 -20.75 Q-13.4 -22.0 -16.05 -22.25 -18.5 -20.1 -21.5 -18.3 L-22.9 -17.8 -23.9 -18.2 Q-24.15 -19.15 -24.7 -19.95 L-24.9 -21.05 Q-25.1 -22.35 -24.95 -23.7 L-25.4 -24.6 Q-25.55 -25.2 -26.15 -25.4 L-26.3 -25.4 -29.1 -25.6 -31.3 -25.55 -31.5 -26.45 -31.15 -27.1 -32.2 -31.15 -32.2 -31.6 -32.35 -33.55 -33.2 -36.3 Q-34.05 -38.3 -35.8 -39.75 L-36.15 -39.95 -36.85 -40.4 -36.65 -40.65 -36.2 -41.0 -35.75 -41.4 -34.75 -41.85 Q-33.1 -42.7 -32.0 -44.05 -31.15 -45.0 -30.5 -46.1 -29.0 -48.6 -28.8 -51.65 L-28.05 -51.85 Q-26.4 -52.65 -25.25 -52.8 L-25.2 -52.85 -22.1 -53.3 -19.75 -53.15 -14.5 -53.4 -14.2 -54.35 -14.1 -55.25 -13.95 -56.75 -13.9 -56.75 -13.65 -57.0 -13.05 -57.4 -12.95 -57.5 -12.45 -57.95 -11.95 -58.35 -10.35 -59.95 -9.6 -60.35 -7.8 -61.55 Q-7.0 -63.2 -6.9 -64.9 L-7.0 -65.75 -7.4 -67.0 -7.5 -67.15 -7.75 -67.35 -9.25 -68.9 -9.5 -69.5 -9.7 -69.7 -10.3 -70.9 -10.55 -71.25 -10.7 -71.4 -10.2 -71.95 Q-8.6 -73.3 -7.35 -74.9 L34.65 -74.7 35.65 -72.45 36.25 -70.7 36.5 -70.4 36.65 -70.2 36.75 -70.15 Q41.05 -68.45 45.85 -69.45 L45.9 -69.3 M-16.95 -74.8 L-19.0 -74.35 -20.2 -74.05 -21.05 -73.65 Q-22.05 -72.2 -24.4 -71.45 L-26.15 -71.55 -26.6 -71.8 -28.1 -72.9 -28.35 -73.4 Q-28.7 -74.4 -29.15 -75.0 L-16.35 -74.95 -16.95 -74.8" fill="#ffff00" fill-opacity="0.5019608" fill-rule="evenodd" stroke="none"/>
  </g>
</svg>
