<?xml version="1.0" encoding="UTF-8" standalone="no"?>
<svg xmlns:ffdec="https://www.free-decompiler.com/flash" xmlns:xlink="http://www.w3.org/1999/xlink" ffdec:objectType="shape" height="133.1px" width="114.45px" xmlns="http://www.w3.org/2000/svg">
  <g transform="matrix(1.0, 0.0, 0.0, 1.0, 41.3, 153.45)">
    <path d="M47.1 -61.25 L47.1 -60.6 47.95 -58.8 48.55 -58.3 64.3 -57.35 65.05 -57.05 Q64.3 -52.85 64.0 -48.7 L64.55 -47.8 Q64.7 -47.2 65.15 -46.9 69.9 -43.55 73.15 -38.9 L72.55 -38.05 Q71.5 -37.95 70.7 -37.4 69.65 -36.65 68.35 -36.4 61.95 -35.15 62.75 -29.2 L52.45 -29.9 Q50.7 -30.15 49.7 -28.6 L49.7 -28.35 49.7 -27.75 48.95 -26.9 47.0 -21.15 Q45.3 -22.7 43.75 -24.4 42.6 -25.6 41.75 -27.0 39.2 -31.4 36.1 -27.2 35.4 -27.7 34.75 -28.25 L34.75 -28.5 34.75 -29.4 Q31.65 -30.8 27.8 -29.95 L27.9 -32.45 Q28.4 -38.35 25.6 -43.35 23.35 -47.35 20.15 -44.75 L20.15 -44.45 20.05 -39.85 Q18.6 -38.75 17.55 -36.95 L17.35 -36.1 14.4 -32.65 Q9.35 -32.95 4.9 -35.45 L3.9 -35.6 Q-0.8 -34.45 -0.8 -29.2 L-1.25 -29.2 Q-3.85 -32.0 -6.75 -31.1 -6.65 -30.5 -6.85 -29.95 L-7.5 -29.1 Q-7.65 -27.5 -9.05 -26.5 -9.2 -25.45 -9.7 -24.5 -11.6 -23.65 -13.4 -24.8 -16.05 -26.45 -18.65 -26.9 -21.55 -23.1 -25.65 -20.35 L-27.0 -20.45 Q-27.4 -21.45 -28.15 -22.2 -28.8 -24.0 -28.6 -25.95 L-29.15 -26.9 Q-29.45 -27.65 -30.35 -27.6 L-35.55 -27.35 -35.45 -28.5 -34.75 -29.4 Q-34.5 -32.25 -34.4 -35.15 L-34.65 -37.1 Q-35.8 -41.5 -40.35 -43.5 -38.95 -44.05 -37.75 -44.8 -36.1 -45.8 -35.2 -47.4 -32.85 -51.5 -33.6 -56.45 L-28.75 -56.6 Q-22.45 -55.35 -16.25 -55.4 L-15.75 -58.85 -14.15 -59.45 Q-10.6 -60.4 -7.7 -62.4 L8.8 -61.65 10.95 -61.5 15.15 -61.3 47.1 -61.25 M7.85 -153.45 Q10.6 -153.15 13.25 -151.5 15.3 -150.25 17.05 -148.7 19.55 -146.5 22.15 -146.45 L23.0 -148.75 Q28.15 -147.3 32.2 -143.85 32.5 -143.55 32.75 -143.75 35.15 -145.65 35.5 -148.85 L36.15 -149.7 36.55 -149.7 39.35 -146.7 41.0 -144.6 Q43.45 -141.3 46.15 -143.4 46.5 -146.8 47.9 -149.9 51.75 -145.75 55.0 -141.25 L53.95 -140.1 Q54.05 -139.1 53.25 -138.4 L53.05 -137.5 52.4 -136.65 Q52.45 -134.55 53.15 -132.65 55.45 -129.55 56.6 -126.0 55.85 -123.65 53.6 -122.3 L51.55 -121.2 Q50.7 -120.8 49.75 -120.65 47.05 -120.3 45.1 -118.7 L45.3 -117.65 Q47.25 -113.35 51.25 -110.35 51.3 -109.75 51.65 -109.2 51.4 -108.9 51.1 -108.85 46.85 -107.8 43.2 -105.65 43.05 -104.15 43.35 -102.75 L43.95 -102.2 43.95 -101.9 43.95 -101.3 Q43.15 -100.95 43.2 -100.15 L31.1 -100.05 Q30.8 -97.65 30.8 -95.15 L29.75 -93.75 Q25.75 -93.3 21.9 -94.4 17.75 -95.6 14.75 -93.35 L14.85 -91.35 24.25 -84.9 23.2 -82.6 Q23.2 -82.05 23.75 -81.8 28.3 -79.7 33.6 -80.3 L35.5 -78.1 Q36.75 -74.3 37.05 -70.3 L37.25 -70.0 37.55 -69.7 Q42.3 -68.8 47.0 -69.8 L47.0 -69.55 47.0 -65.6 13.1 -66.65 Q3.3 -67.0 -6.55 -66.6 L-7.2 -68.75 -11.8 -73.1 Q-8.0 -76.25 -4.8 -79.7 L-4.15 -80.3 -4.05 -83.15 -5.0 -84.05 Q-6.1 -85.55 -8.1 -86.05 -10.35 -88.7 -13.85 -87.0 -13.8 -82.6 -14.6 -78.35 -17.95 -78.75 -20.2 -76.45 -20.95 -74.2 -23.35 -73.0 L-25.15 -73.0 Q-26.3 -73.85 -27.75 -74.05 L-28.15 -74.55 Q-29.75 -77.45 -32.1 -76.45 L-34.4 -76.75 Q-34.8 -78.75 -35.9 -80.5 -36.0 -82.15 -36.6 -83.65 -39.05 -84.85 -41.3 -86.25 L-40.5 -87.9 Q-39.95 -89.0 -38.95 -89.7 -36.25 -91.7 -33.9 -94.1 -33.1 -94.9 -33.5 -95.95 -34.6 -98.65 -36.9 -100.95 L-36.2 -101.5 -35.6 -101.85 Q-30.8 -102.35 -27.45 -105.45 -27.35 -106.65 -27.65 -107.75 L-28.45 -108.35 Q-29.7 -110.75 -31.3 -112.95 -27.25 -112.65 -24.0 -114.3 L-24.0 -115.45 Q-23.95 -120.95 -24.5 -126.4 -22.55 -126.25 -20.95 -125.4 -16.9 -123.4 -12.5 -121.65 L-10.15 -120.3 Q-7.9 -118.55 -5.5 -118.8 -5.75 -122.3 -5.3 -126.0 -4.15 -125.9 -3.2 -126.5 -2.65 -128.85 -3.65 -131.2 -6.35 -137.35 -6.35 -144.05 L2.25 -143.3 Q5.15 -142.7 7.4 -143.8 7.75 -143.95 7.75 -144.25 L7.85 -153.45" fill="#ffff00" fill-opacity="0.5019608" fill-rule="evenodd" stroke="none"/>
  </g>
</svg>
