<?xml version="1.0" encoding="UTF-8" standalone="no"?>
<svg xmlns:ffdec="https://www.free-decompiler.com/flash" xmlns:xlink="http://www.w3.org/1999/xlink" ffdec:objectType="shape" height="103.2px" width="82.9px" xmlns="http://www.w3.org/2000/svg">
  <g transform="matrix(1.0, 0.0, 0.0, 1.0, 27.55, 139.45)">
    <path d="M38.55 -128.9 Q35.2 -132.45 39.4 -135.0 L40.3 -135.4 Q45.15 -135.05 44.75 -129.95 44.3 -124.4 41.75 -119.55 41.5 -115.9 38.9 -113.1 L37.8 -112.35 Q35.25 -108.6 31.05 -108.0 19.65 -106.35 8.05 -106.5 L8.0 -106.25 Q7.95 -105.45 7.45 -104.8 6.9 -94.9 7.2 -84.9 7.35 -80.95 6.9 -77.15 L7.7 -77.05 Q7.4 -75.8 7.55 -74.25 15.9 -73.2 23.8 -70.0 26.45 -68.95 28.7 -67.45 31.35 -65.75 33.15 -63.15 39.35 -54.3 44.6 -44.95 48.05 -46.65 51.35 -49.05 53.05 -50.3 54.4 -48.7 56.55 -46.25 53.95 -44.25 50.95 -41.9 48.35 -39.2 44.75 -35.6 41.5 -38.75 L39.95 -40.7 30.3 -56.55 Q25.8 -64.1 16.95 -66.2 L10.7 -67.55 7.85 -68.35 7.8 -46.85 Q7.8 -44.05 4.95 -43.9 L-10.15 -44.45 -18.25 -44.95 Q-18.05 -40.95 -19.15 -37.25 -19.45 -36.2 -20.55 -36.25 -24.5 -36.35 -24.6 -40.5 -24.8 -45.6 -22.9 -49.95 -22.6 -50.7 -21.7 -50.7 L2.1 -49.55 1.75 -70.3 Q1.7 -71.65 1.95 -72.85 0.8 -73.75 0.95 -76.05 1.6 -85.9 1.2 -95.95 1.0 -101.35 1.85 -106.45 L-9.35 -104.45 -12.5 -104.4 -16.3 -98.75 -18.2 -95.75 Q-19.15 -94.1 -20.35 -92.6 -17.55 -87.8 -22.15 -85.15 L-24.35 -85.0 Q-28.85 -86.7 -27.05 -91.55 -25.35 -96.1 -22.75 -100.1 L-17.05 -108.45 Q-15.8 -110.25 -13.85 -110.45 L-13.55 -110.35 -11.75 -110.7 -3.35 -111.35 Q0.05 -111.75 3.25 -112.5 4.15 -115.5 5.45 -118.4 L6.25 -119.7 4.8 -121.0 4.5 -121.0 4.55 -121.1 4.3 -121.5 Q3.65 -122.5 3.3 -123.55 2.6 -125.45 2.6 -127.65 2.6 -132.55 6.05 -136.0 9.5 -139.45 14.4 -139.45 19.3 -139.45 22.75 -136.0 26.2 -132.55 26.2 -127.65 26.2 -122.75 22.75 -119.3 L21.9 -118.5 Q21.75 -116.25 19.15 -116.0 15.0 -115.65 11.5 -116.8 L10.75 -115.45 10.55 -115.15 Q9.6 -113.45 9.05 -111.6 L29.35 -112.2 Q33.0 -115.2 35.8 -119.1 36.5 -123.05 38.25 -126.9 38.7 -127.85 38.55 -128.9" fill="#000000" fill-rule="evenodd" stroke="none"/>
  </g>
</svg>
