<?xml version="1.0" encoding="UTF-8" standalone="no"?>
<svg xmlns:ffdec="https://www.free-decompiler.com/flash" xmlns:xlink="http://www.w3.org/1999/xlink" ffdec:objectType="shape" height="108.9px" width="72.35px" xmlns="http://www.w3.org/2000/svg">
  <g transform="matrix(1.0, 0.0, 0.0, 1.0, 23.5, 139.7)">
    <path d="M40.25 -130.65 L41.85 -131.2 Q46.0 -130.3 45.4 -125.7 44.75 -120.8 41.6 -116.9 L36.35 -110.65 Q31.9 -105.55 25.1 -106.4 L24.35 -106.4 Q16.35 -105.5 8.75 -106.4 7.9 -99.1 7.45 -91.75 6.9 -82.8 6.9 -73.9 L14.6 -70.35 Q20.2 -67.5 25.95 -65.1 27.15 -64.6 28.0 -63.55 30.1 -60.9 30.9 -57.65 31.65 -57.1 31.9 -56.2 L32.05 -55.35 35.35 -48.75 37.4 -43.25 Q38.35 -42.1 38.95 -40.75 L39.7 -39.0 Q42.55 -42.4 46.65 -42.9 47.45 -43.0 47.95 -42.3 50.25 -39.0 46.8 -36.65 44.65 -35.2 43.05 -33.1 41.65 -31.2 39.5 -30.85 37.25 -30.5 36.25 -32.5 31.4 -42.25 26.7 -52.15 26.3 -52.95 26.2 -53.9 L23.9 -57.85 22.45 -60.45 Q18.7 -61.5 15.25 -63.35 L14.95 -63.6 Q11.7 -64.6 8.85 -66.2 8.8 -65.15 8.9 -64.05 9.65 -57.35 10.55 -50.75 11.15 -46.75 6.8 -46.15 L-13.25 -43.45 Q-12.7 -39.25 -14.4 -35.75 -14.75 -35.05 -15.55 -35.05 -19.6 -35.05 -19.35 -39.1 L-18.7 -47.15 Q-18.5 -48.9 -16.7 -49.05 -5.75 -50.05 4.9 -52.0 2.7 -60.1 3.1 -68.55 2.2 -69.1 1.6 -70.6 L1.3 -71.95 Q0.85 -83.05 1.7 -94.15 L2.65 -105.35 Q-3.3 -103.05 -9.7 -102.3 -13.2 -98.65 -14.9 -94.25 L-16.7 -90.2 Q-15.4 -87.2 -16.7 -84.25 -17.3 -82.85 -18.85 -82.85 -24.1 -82.75 -23.45 -88.0 -22.9 -92.25 -20.55 -95.75 -19.05 -101.1 -15.35 -105.5 L-14.35 -106.65 Q-12.65 -108.65 -9.8 -108.75 L-7.1 -109.05 -3.4 -109.5 Q-0.15 -111.45 3.35 -112.3 L3.7 -116.05 Q3.9 -118.1 5.15 -119.7 L5.3 -119.85 5.05 -119.85 4.05 -120.4 4.15 -121.25 4.1 -121.25 4.15 -121.35 3.55 -122.35 2.95 -123.6 2.8 -124.1 Q2.2 -125.9 2.2 -127.9 2.2 -132.8 5.65 -136.25 9.1 -139.7 14.0 -139.7 L16.2 -139.5 Q19.1 -139.0 21.45 -137.05 L22.35 -136.25 Q25.8 -132.8 25.8 -127.9 25.8 -123.0 22.35 -119.55 19.7 -116.9 16.2 -116.25 L14.7 -116.7 13.6 -116.55 13.0 -117.05 Q11.75 -117.7 10.55 -118.3 10.85 -116.95 10.05 -114.95 L9.65 -113.65 9.3 -111.05 23.6 -112.2 24.35 -112.15 Q29.55 -111.6 32.75 -115.55 L34.95 -117.9 Q39.7 -122.45 39.25 -128.75 39.15 -129.95 40.25 -130.65" fill="#000000" fill-rule="evenodd" stroke="none"/>
  </g>
</svg>
