<?xml version="1.0" encoding="UTF-8" standalone="no"?>
<svg xmlns:ffdec="https://www.free-decompiler.com/flash" xmlns:xlink="http://www.w3.org/1999/xlink" ffdec:objectType="shape" height="138.8px" width="92.95px" xmlns="http://www.w3.org/2000/svg">
  <g transform="matrix(1.0, 0.0, 0.0, 1.0, 30.65, 152.25)">
    <path d="M3.05 -25.45 L1.85 -26.55 -0.3 -28.9 Q-0.4 -29.85 -0.95 -30.6 L-3.1 -32.85 Q-4.8 -32.2 -5.1 -30.4 -5.7 -27.1 -7.4 -24.3 L-8.0 -24.3 -8.8 -24.45 Q-11.45 -23.9 -13.1 -21.5 -15.2 -18.55 -17.95 -17.5 L-19.1 -20.1 -20.35 -22.5 Q-22.15 -25.7 -25.95 -25.85 L-25.8 -29.3 Q-25.4 -31.4 -25.55 -33.6 L-25.75 -33.9 -25.95 -34.2 -25.95 -34.5 -25.95 -34.75 -24.85 -34.7 -23.6 -34.65 Q18.25 -32.5 60.15 -32.3 L62.3 -30.25 56.45 -28.45 54.3 -27.7 Q50.25 -26.65 49.5 -23.0 49.25 -21.9 49.7 -20.85 L52.7 -13.85 33.0 -13.7 32.45 -13.45 Q31.35 -13.5 30.55 -13.95 26.15 -16.4 22.05 -19.0 20.8 -19.75 19.35 -19.75 L10.15 -18.9 Q9.75 -20.3 9.75 -21.8 L9.75 -24.4 9.25 -24.75 3.05 -25.45 M31.1 -136.95 L31.45 -136.65 31.65 -136.35 31.65 -136.1 31.7 -135.8 31.75 -135.5 32.05 -135.25 Q32.35 -135.1 32.6 -135.05 L33.0 -135.15 33.2 -135.25 33.4 -135.4 Q33.7 -136.55 33.6 -137.7 33.5 -138.3 33.7 -138.85 35.7 -138.6 37.65 -137.25 38.35 -136.75 39.1 -136.85 44.55 -137.6 48.0 -142.15 L48.5 -142.05 48.75 -141.85 49.75 -140.3 55.45 -133.8 55.5 -133.5 55.55 -133.2 55.55 -132.65 54.95 -132.15 Q52.2 -130.75 50.1 -128.6 L50.1 -128.3 50.1 -128.0 49.9 -127.75 49.7 -127.45 Q50.1 -125.3 51.0 -123.25 53.15 -118.6 55.85 -114.2 54.5 -113.45 52.95 -113.35 49.8 -113.15 47.0 -112.15 46.8 -110.35 47.3 -108.7 48.05 -106.0 48.05 -103.25 L47.2 -102.4 46.4 -101.65 43.55 -98.35 30.1 -99.1 29.95 -98.9 29.8 -98.6 29.75 -98.35 31.3 -95.5 34.9 -87.4 34.15 -87.75 31.2 -88.9 Q27.55 -90.15 25.5 -87.5 25.55 -85.6 26.1 -83.75 L26.95 -81.55 33.1 -69.4 Q33.95 -67.8 34.1 -66.15 34.55 -61.7 36.95 -57.8 40.9 -51.35 48.75 -50.7 52.1 -49.25 54.7 -46.95 53.0 -44.45 52.65 -41.5 52.45 -39.5 53.75 -38.25 L55.05 -37.05 Q30.55 -37.05 6.1 -37.45 L-28.25 -39.5 -28.25 -40.8 -28.25 -48.6 Q-25.3 -49.85 -22.1 -50.3 -21.4 -51.2 -21.2 -52.3 L-20.95 -54.25 -21.6 -55.45 Q-23.9 -58.6 -27.1 -60.9 -22.45 -60.4 -19.4 -63.2 L-19.55 -64.9 Q-19.7 -65.85 -20.55 -66.35 L-20.55 -66.95 -20.55 -68.1 -20.55 -68.95 -21.1 -69.3 -27.65 -69.65 Q-26.35 -70.9 -25.95 -72.55 -25.4 -74.9 -25.55 -77.4 L-25.95 -77.95 Q-28.0 -80.3 -30.65 -80.75 L-30.55 -81.05 -30.55 -81.35 -30.55 -81.9 Q-28.4 -84.55 -26.95 -87.35 -24.8 -91.5 -26.05 -96.05 L-26.25 -96.3 -26.5 -96.65 -26.6 -96.9 Q-25.25 -98.5 -23.6 -99.75 -19.85 -102.65 -22.65 -105.55 -22.9 -106.1 -23.4 -106.3 -24.8 -106.85 -25.55 -108.15 L-25.55 -108.7 -25.6 -109.0 Q-25.65 -109.5 -25.35 -109.85 -19.0 -112.2 -12.0 -111.9 L-11.85 -112.2 -11.25 -113.25 Q-10.95 -113.7 -10.95 -114.2 L-11.65 -116.15 Q-12.0 -117.6 -13.15 -118.5 L-13.25 -118.8 -13.25 -119.1 -13.25 -119.65 Q-10.95 -119.4 -8.75 -118.5 L-5.95 -117.15 Q-2.9 -115.45 -0.7 -117.15 L-0.55 -118.05 -0.6 -119.2 -0.6 -120.05 -2.0 -121.85 -4.45 -124.95 -4.45 -125.25 -4.45 -125.5 -4.45 -126.1 -3.8 -126.4 Q-3.25 -126.7 -3.3 -127.25 L-2.3 -127.8 -1.45 -128.7 Q-1.3 -129.1 -1.45 -129.55 L-1.85 -131.9 Q-2.05 -134.25 -3.1 -136.45 -0.4 -136.75 1.85 -138.05 2.65 -138.5 2.2 -139.4 -0.95 -145.8 -5.8 -151.05 L-5.75 -151.2 Q-4.1 -151.45 -2.6 -152.1 3.5 -152.8 8.95 -149.8 L15.0 -146.1 Q17.35 -144.5 19.8 -145.7 L24.0 -147.6 24.0 -147.3 24.1 -147.05 26.1 -145.3 Q29.25 -141.4 31.1 -136.95" fill="#ffff00" fill-opacity="0.5019608" fill-rule="evenodd" stroke="none"/>
  </g>
</svg>
