<?xml version="1.0" encoding="UTF-8" standalone="no"?>
<svg xmlns:ffdec="https://www.free-decompiler.com/flash" xmlns:xlink="http://www.w3.org/1999/xlink" ffdec:objectType="shape" height="112.95px" width="63.7px" xmlns="http://www.w3.org/2000/svg">
  <g transform="matrix(1.0, 0.0, 0.0, 1.0, 17.25, 140.6)">
    <path d="M25.05 -128.8 Q25.05 -123.9 21.6 -120.45 19.05 -117.9 15.75 -117.2 L15.7 -117.2 14.65 -117.4 13.95 -117.6 13.8 -117.55 12.55 -117.9 9.35 -118.1 7.75 -115.05 7.55 -113.15 8.45 -113.05 Q17.2 -111.6 25.8 -109.55 28.1 -109.0 29.75 -110.7 34.8 -115.85 39.4 -121.4 41.0 -123.3 41.05 -125.9 41.1 -127.2 42.45 -127.5 L43.0 -127.6 Q48.15 -126.45 45.6 -121.9 41.65 -114.9 35.75 -109.4 32.9 -106.7 29.3 -104.75 27.3 -103.7 24.95 -104.3 L7.4 -108.55 7.2 -107.35 7.05 -106.85 Q6.7 -101.25 6.9 -95.45 7.25 -85.75 6.5 -76.3 9.45 -74.4 12.1 -71.55 L14.45 -69.25 24.05 -61.15 Q26.55 -59.15 26.8 -55.8 27.1 -50.3 28.2 -44.85 29.35 -39.0 30.9 -33.2 35.4 -36.65 40.6 -34.95 41.2 -34.75 41.25 -34.05 41.6 -30.8 38.05 -30.5 36.95 -30.4 36.1 -29.65 31.75 -26.0 27.2 -28.95 26.9 -29.15 26.75 -29.55 24.8 -34.6 24.45 -39.95 22.65 -45.35 21.9 -51.15 L21.4 -56.35 10.65 -66.0 13.15 -59.7 Q14.8 -55.55 15.55 -51.2 15.95 -48.7 13.4 -48.45 L-0.55 -46.95 -11.45 -46.55 -11.8 -46.3 Q-11.25 -40.9 -13.35 -36.35 -13.55 -35.95 -14.05 -35.9 -17.2 -35.6 -17.25 -38.8 -17.3 -44.1 -16.05 -49.1 -15.85 -49.95 -15.05 -50.45 -13.65 -51.35 -11.9 -51.45 L10.15 -52.9 9.6 -54.35 9.4 -55.2 Q5.85 -63.7 3.3 -72.6 L3.05 -73.9 Q2.25 -74.55 2.25 -76.15 L1.95 -96.3 2.0 -104.15 0.05 -103.15 Q-2.9 -101.35 -6.1 -100.1 L-8.25 -99.4 Q-8.45 -98.4 -9.15 -97.25 -9.8 -96.1 -10.1 -94.8 -11.35 -89.3 -11.8 -83.65 -7.25 -82.9 -8.35 -77.95 -8.7 -76.5 -10.15 -76.05 -13.35 -75.05 -15.45 -77.05 -16.5 -78.1 -16.5 -79.7 L-16.55 -81.45 Q-17.1 -87.05 -15.45 -92.1 -15.2 -96.25 -13.85 -100.15 L-13.15 -101.3 Q-13.0 -102.4 -12.15 -102.95 -11.6 -103.55 -10.6 -103.95 -7.95 -105.05 -5.3 -106.3 -1.4 -108.1 2.25 -109.9 L2.8 -115.95 Q3.1 -118.45 4.25 -120.3 2.5 -121.85 2.3 -124.35 1.45 -126.4 1.45 -128.8 1.45 -133.7 4.9 -137.15 8.35 -140.6 13.25 -140.6 18.15 -140.6 21.6 -137.15 25.05 -133.7 25.05 -128.8" fill="#000000" fill-rule="evenodd" stroke="none"/>
  </g>
</svg>
