<?xml version="1.0" encoding="UTF-8" standalone="no"?>
<svg xmlns:ffdec="https://www.free-decompiler.com/flash" xmlns:xlink="http://www.w3.org/1999/xlink" ffdec:objectType="shape" height="118.1px" width="63.05px" xmlns="http://www.w3.org/2000/svg">
  <g transform="matrix(1.0, 0.0, 0.0, 1.0, 13.7, 140.9)">
    <path d="M24.2 -129.1 Q24.2 -124.2 20.75 -120.75 18.1 -118.1 14.6 -117.45 L13.1 -117.9 12.0 -117.75 Q11.15 -117.1 9.85 -117.0 L9.7 -115.0 9.6 -112.5 9.8 -112.45 Q19.05 -110.5 28.3 -110.15 29.4 -110.1 30.45 -110.6 L40.25 -115.7 Q41.6 -116.45 42.5 -117.75 40.8 -119.95 42.4 -122.25 43.2 -123.5 44.5 -123.5 50.1 -123.8 49.25 -118.35 48.7 -114.75 45.6 -112.55 40.1 -107.9 33.25 -105.05 30.5 -103.95 27.6 -103.35 L25.35 -103.4 11.0 -105.75 8.85 -106.2 8.45 -104.0 Q7.4 -98.5 7.5 -92.8 7.6 -84.75 7.2 -76.75 9.45 -75.65 9.95 -73.05 11.1 -72.1 11.3 -70.2 L11.3 -69.95 Q17.2 -64.2 21.5 -57.4 24.5 -52.7 23.1 -46.8 22.8 -45.55 23.05 -44.25 24.35 -37.0 26.2 -30.0 31.15 -29.9 35.65 -27.85 36.45 -27.45 36.45 -26.45 36.25 -21.85 31.6 -23.05 27.75 -24.05 23.8 -24.35 20.95 -24.6 20.3 -27.4 L18.05 -38.1 Q17.15 -42.55 17.25 -47.1 L17.25 -49.35 17.0 -49.35 13.8 -49.05 -5.85 -46.4 -7.1 -46.2 Q-8.0 -42.3 -7.6 -38.4 -7.5 -37.85 -8.0 -37.45 -11.1 -34.95 -12.9 -38.45 -13.9 -40.4 -13.65 -42.65 -13.25 -46.5 -12.05 -50.05 L-11.35 -50.9 Q-8.65 -52.65 -5.2 -52.8 4.65 -53.2 14.3 -55.25 10.3 -60.3 7.1 -65.65 L6.5 -66.6 Q4.1 -68.9 3.8 -71.5 3.35 -71.6 3.05 -71.8 2.0 -70.65 0.0 -70.8 -2.15 -70.95 -3.45 -72.85 -7.2 -78.35 -8.7 -85.15 -9.25 -87.5 -9.25 -89.8 L-9.5 -90.95 Q-11.75 -96.25 -9.2 -100.95 -7.95 -103.25 -5.85 -105.0 -1.5 -108.55 3.2 -111.1 L3.35 -112.5 4.1 -119.25 Q3.25 -120.15 2.75 -121.45 L2.45 -121.6 2.55 -122.45 2.5 -122.45 2.55 -122.55 1.95 -123.55 1.35 -124.8 1.2 -125.3 Q0.6 -127.1 0.6 -129.1 0.6 -134.0 4.05 -137.45 7.5 -140.9 12.4 -140.9 L14.6 -140.7 Q17.5 -140.2 19.85 -138.25 L20.75 -137.45 Q24.2 -134.0 24.2 -129.1 M2.5 -103.4 Q-1.15 -100.7 -4.55 -97.6 -4.35 -93.65 -2.75 -89.85 -2.15 -88.35 -2.8 -86.95 L-0.95 -80.9 Q-0.75 -80.1 -0.2 -79.45 L1.7 -79.1 1.65 -79.9 Q1.5 -90.8 2.35 -101.5 L2.5 -103.4" fill="#000000" fill-rule="evenodd" stroke="none"/>
  </g>
</svg>
