<?xml version="1.0" encoding="UTF-8" standalone="no"?>
<svg xmlns:ffdec="https://www.free-decompiler.com/flash" xmlns:xlink="http://www.w3.org/1999/xlink" ffdec:objectType="shape" height="142.5px" width="85.9px" xmlns="http://www.w3.org/2000/svg">
  <g transform="matrix(1.0, 0.0, 0.0, 1.0, 25.45, 148.7)">
    <path d="M32.05 -132.35 Q32.35 -129.9 34.15 -127.75 35.15 -126.5 36.7 -127.25 41.15 -129.4 44.9 -132.65 L45.3 -132.35 Q45.85 -131.15 47.0 -130.3 L47.05 -130.05 47.1 -129.75 Q48.05 -128.75 49.15 -128.15 49.5 -127.9 49.85 -127.95 55.3 -128.65 59.7 -125.9 L59.85 -125.6 60.15 -125.05 59.95 -124.75 59.7 -124.45 59.65 -123.9 59.6 -123.6 58.35 -122.15 Q57.45 -122.0 57.0 -121.3 L57.0 -120.7 56.9 -120.15 56.6 -119.85 56.6 -119.3 56.6 -117.55 56.85 -117.25 Q57.75 -115.15 59.2 -113.5 L59.3 -113.2 59.3 -112.95 60.45 -111.8 60.45 -111.2 60.35 -110.65 Q56.35 -108.15 52.8 -105.25 L52.8 -104.4 52.7 -101.2 Q48.65 -99.6 44.15 -99.85 42.7 -99.9 42.05 -98.9 L42.0 -97.75 42.1 -94.0 42.4 -93.7 42.8 -93.15 42.8 -92.6 Q42.95 -91.2 42.6 -90.0 L42.2 -89.7 42.05 -89.4 42.05 -89.1 Q38.7 -89.0 35.9 -91.05 32.95 -93.2 30.5 -91.6 L30.7 -88.2 Q30.95 -85.5 30.5 -82.95 L26.1 -82.5 25.5 -82.2 25.5 -81.65 25.5 -79.9 25.75 -79.6 25.9 -79.35 Q25.8 -78.4 26.1 -77.55 L27.45 -73.85 30.9 -70.5 Q33.95 -67.25 34.55 -62.9 L34.45 -62.6 34.35 -61.15 33.25 -59.9 Q31.35 -58.3 30.1 -56.35 L30.2 -56.1 30.5 -55.5 Q30.45 -52.6 30.8 -49.75 30.9 -49.15 30.65 -48.75 29.35 -46.35 26.65 -45.15 L26.65 -44.55 26.65 -44.25 Q28.6 -42.55 29.85 -40.4 31.9 -36.95 31.3 -32.75 32.45 -31.3 34.35 -31.1 L34.85 -30.7 Q42.7 -26.0 48.15 -18.8 45.45 -17.55 43.2 -15.65 L43.2 -15.1 43.2 -13.05 43.45 -12.75 43.55 -12.5 Q43.55 -11.75 43.7 -11.05 L44.25 -7.3 Q38.85 -7.6 34.15 -10.55 30.0 -13.1 26.65 -10.35 25.9 -8.4 24.1 -6.9 23.15 -6.8 22.55 -6.25 L22.15 -6.2 21.85 -6.35 21.65 -6.65 20.15 -9.2 20.15 -9.5 20.15 -9.8 Q19.85 -10.4 19.2 -10.55 18.6 -10.4 18.15 -10.1 13.4 -6.7 7.85 -6.65 L7.85 -7.2 7.75 -9.2 7.55 -9.5 7.1 -10.1 7.1 -10.65 7.1 -10.95 Q6.75 -11.6 6.05 -11.85 3.6 -12.75 2.1 -14.1 3.45 -15.45 4.5 -17.3 5.75 -17.9 6.25 -19.2 7.05 -21.3 6.7 -23.6 6.4 -24.25 5.85 -24.05 -1.5 -21.85 -9.05 -21.5 L-9.3 -23.15 Q-9.4 -25.15 -10.3 -26.9 L-10.85 -27.35 Q-14.35 -29.35 -18.25 -28.9 L-18.25 -29.75 Q-18.2 -31.35 -17.5 -32.8 -15.9 -36.25 -15.95 -40.15 L-16.15 -40.4 Q-18.35 -42.4 -21.15 -43.2 L-21.05 -43.5 -20.55 -44.35 -20.65 -47.25 Q-20.9 -50.35 -22.95 -52.7 -23.0 -53.3 -23.35 -53.8 -24.65 -55.55 -25.45 -57.6 -18.8 -57.5 -12.2 -57.9 L-11.75 -58.2 -11.7 -59.05 Q-11.55 -60.8 -12.6 -62.25 -5.7 -61.9 1.15 -62.25 L4.9 -62.75 Q7.0 -63.3 6.05 -65.2 5.1 -66.3 3.75 -66.35 -0.2 -69.6 -4.9 -71.75 L-4.7 -72.05 Q-4.45 -72.6 -4.35 -73.2 L-4.0 -73.5 -3.75 -73.75 -3.7 -76.65 Q-3.75 -78.0 -5.05 -78.2 L-14.05 -79.05 Q-12.3 -82.8 -13.3 -86.8 -13.35 -87.1 -13.55 -87.2 -16.15 -88.45 -18.85 -89.05 L-16.4 -91.15 Q-12.45 -93.85 -13.45 -98.55 L-14.4 -99.1 -14.4 -99.4 -14.4 -99.7 Q-16.2 -101.55 -18.35 -102.95 -15.45 -103.6 -13.25 -105.45 L-13.25 -106.0 -13.35 -108.35 -14.4 -109.5 -14.45 -109.75 -15.0 -112.05 -14.6 -112.35 -14.35 -112.7 Q-9.3 -114.1 -3.85 -114.0 L-3.6 -114.2 -3.3 -114.75 Q-4.3 -116.85 -6.55 -117.55 L-7.9 -119.25 Q-9.4 -120.95 -9.8 -122.95 -6.3 -122.6 -4.45 -125.05 -4.45 -126.6 -5.95 -127.35 L-5.95 -127.9 -5.95 -128.5 -6.5 -129.0 -7.55 -129.8 Q-9.05 -131.15 -10.0 -132.95 L-8.85 -132.9 Q10.65 -133.3 30.15 -132.45 L32.05 -132.35 M19.35 -148.65 L19.45 -148.7 Q20.55 -148.45 21.3 -147.6 L21.3 -147.3 21.4 -147.05 Q22.4 -145.8 22.4 -144.15 22.35 -141.55 22.55 -138.95 L26.7 -138.5 -5.25 -138.65 -5.4 -139.35 Q-5.5 -141.0 -5.95 -142.5 L4.95 -143.15 Q5.6 -143.2 5.95 -143.85 L5.9 -144.7 Q5.7 -146.35 6.6 -147.5 L9.3 -147.05 11.0 -146.4 Q15.25 -143.95 18.6 -146.95 L18.65 -147.5 18.7 -148.1 19.05 -148.4 19.35 -148.65" fill="#ffff00" fill-opacity="0.5019608" fill-rule="evenodd" stroke="none"/>
  </g>
</svg>
