<?xml version="1.0" encoding="UTF-8" standalone="no"?>
<svg xmlns:ffdec="https://www.free-decompiler.com/flash" xmlns:xlink="http://www.w3.org/1999/xlink" ffdec:objectType="shape" height="123.45px" width="58.35px" xmlns="http://www.w3.org/2000/svg">
  <g transform="matrix(1.0, 0.0, 0.0, 1.0, 10.3, 140.9)">
    <path d="M24.2 -129.1 Q24.2 -124.2 20.75 -120.75 18.1 -118.1 14.6 -117.45 L13.1 -117.9 12.0 -117.75 11.4 -118.25 8.3 -119.8 8.3 -119.7 8.2 -118.9 8.0 -117.4 Q7.65 -114.75 7.45 -112.1 9.8 -111.65 11.95 -110.5 L26.55 -103.25 40.85 -113.8 Q40.5 -116.05 41.7 -117.75 42.5 -118.9 43.75 -118.9 48.95 -119.0 47.85 -114.05 47.4 -112.0 45.95 -110.45 44.1 -108.35 41.65 -106.95 37.65 -104.6 34.3 -101.55 30.8 -98.4 26.35 -96.95 L25.3 -97.05 Q16.45 -101.8 7.1 -105.75 6.9 -100.55 7.15 -95.2 L7.4 -85.95 10.35 -83.95 13.25 -82.9 Q16.6 -86.6 19.65 -82.85 22.15 -79.8 18.85 -77.2 16.9 -75.6 14.25 -76.45 10.85 -77.5 7.8 -79.0 8.75 -77.05 8.45 -75.35 10.35 -74.0 11.6 -71.85 L12.2 -71.1 Q18.95 -64.35 25.1 -57.15 25.7 -56.5 25.35 -55.65 23.9 -52.35 20.15 -51.4 L19.95 -51.35 Q22.35 -46.25 20.8 -40.65 20.4 -39.15 20.15 -37.55 19.35 -32.65 17.85 -28.05 L17.4 -25.15 16.95 -23.8 24.9 -23.35 Q28.25 -23.0 27.85 -19.9 27.6 -17.7 25.3 -17.55 L23.9 -17.45 12.15 -18.3 Q9.55 -18.7 9.85 -21.3 10.15 -24.25 11.6 -26.8 14.15 -35.95 15.0 -45.55 15.2 -47.55 14.15 -49.6 L14.0 -49.9 -1.2 -46.4 -2.9 -46.1 Q-0.45 -42.55 1.4 -38.75 1.8 -38.0 1.25 -37.3 -1.05 -34.1 -3.9 -37.2 -6.8 -40.3 -8.95 -44.05 -9.85 -45.65 -10.2 -47.4 -10.8 -50.3 -7.9 -51.15 -3.8 -52.35 0.4 -52.9 L5.35 -53.8 11.35 -55.2 Q8.05 -61.85 5.05 -68.7 L4.75 -70.0 4.75 -70.25 4.55 -70.45 Q3.45 -71.55 3.35 -72.95 2.4 -73.8 2.5 -75.5 1.55 -79.05 1.45 -82.9 -3.45 -86.65 -7.2 -91.9 -7.55 -92.4 -7.55 -93.15 -7.2 -98.7 -3.5 -103.15 L-2.1 -105.0 1.35 -109.35 1.4 -111.5 Q1.5 -114.75 1.9 -117.85 L2.45 -121.6 2.55 -122.45 2.5 -122.45 2.55 -122.55 1.95 -123.55 1.35 -124.8 1.2 -125.3 Q0.6 -127.1 0.6 -129.1 0.6 -134.0 4.05 -137.45 7.5 -140.9 12.4 -140.9 L14.6 -140.7 Q17.5 -140.2 19.85 -138.25 L20.75 -137.45 Q24.2 -134.0 24.2 -129.1 M17.45 -56.85 L17.0 -57.4 17.3 -56.8 17.45 -56.85 M1.3 -99.1 L-1.75 -93.95 1.4 -90.9 1.3 -99.1" fill="#000000" fill-rule="evenodd" stroke="none"/>
  </g>
</svg>
