<?xml version="1.0" encoding="UTF-8" standalone="no"?>
<svg xmlns:ffdec="https://www.free-decompiler.com/flash" xmlns:xlink="http://www.w3.org/1999/xlink" ffdec:objectType="shape" height="135.35px" width="84.7px" xmlns="http://www.w3.org/2000/svg">
  <g transform="matrix(1.0, 0.0, 0.0, 1.0, 25.65, 150.35)">
    <path d="M16.3 -149.4 L16.3 -149.6 16.65 -149.95 16.95 -150.3 17.05 -150.35 Q18.05 -150.4 18.8 -149.9 L18.9 -149.75 19.0 -149.6 19.1 -149.55 19.55 -149.15 19.85 -148.75 20.5 -147.05 20.5 -146.85 20.5 -146.55 20.65 -145.95 20.8 -144.4 21.3 -141.85 22.1 -141.6 Q25.25 -140.4 28.3 -139.5 L29.65 -139.45 30.4 -139.2 30.65 -138.15 Q30.6 -136.45 31.4 -135.2 31.6 -134.05 32.1 -133.0 L33.4 -130.5 Q34.15 -129.4 35.05 -129.35 L35.55 -129.45 37.0 -129.7 Q39.9 -130.05 42.85 -132.5 L43.85 -133.15 44.3 -132.95 Q45.1 -132.15 46.3 -131.75 L46.4 -131.6 46.5 -131.4 47.1 -131.0 47.4 -130.8 48.45 -129.95 Q48.75 -129.65 49.1 -129.6 L49.6 -129.65 50.05 -129.55 50.4 -129.4 52.9 -128.85 53.6 -128.7 Q56.3 -128.25 58.5 -126.85 L58.7 -126.55 59.05 -126.05 59.05 -125.8 45.25 -126.15 32.05 -127.2 7.6 -129.7 -8.0 -130.45 -8.7 -131.15 Q-9.65 -132.2 -10.4 -133.4 L-11.35 -135.25 -8.9 -137.45 -8.8 -137.8 -8.8 -138.3 -8.65 -138.45 -7.95 -138.85 -7.8 -139.1 -7.1 -140.2 -7.05 -140.85 -6.6 -143.25 -3.8 -143.35 -3.4 -143.4 -2.9 -143.55 -2.05 -143.9 -1.2 -144.3 1.45 -145.6 1.7 -145.8 2.25 -146.2 2.45 -146.8 2.75 -147.6 Q3.1 -148.2 3.8 -148.65 L6.5 -148.1 7.65 -147.8 8.3 -147.5 Q12.65 -145.45 16.05 -148.5 L16.2 -149.05 16.3 -149.4 M13.45 -123.55 L38.3 -121.2 46.3 -120.7 57.05 -120.5 57.0 -120.05 56.95 -119.35 56.85 -118.5 56.8 -118.3 56.95 -118.0 57.0 -117.55 Q57.25 -115.85 57.85 -114.45 L57.85 -114.15 57.8 -113.95 58.35 -112.85 58.2 -112.3 58.0 -111.8 55.3 -110.1 54.2 -108.75 52.0 -105.8 52.05 -105.25 52.0 -104.95 51.8 -104.2 51.1 -102.2 Q48.65 -101.2 46.1 -100.55 L45.55 -100.25 44.15 -99.7 43.95 -99.65 43.65 -99.55 43.05 -99.2 42.7 -98.9 42.3 -98.25 42.3 -97.95 42.2 -97.3 42.2 -97.15 42.15 -96.85 Q41.6 -95.45 41.4 -93.95 L41.55 -93.65 41.7 -93.1 41.6 -92.6 41.55 -92.5 42.0 -90.15 41.85 -89.85 41.85 -89.55 41.9 -89.25 40.1 -89.1 Q39.4 -89.25 38.7 -89.75 37.85 -90.3 37.05 -90.05 L36.7 -89.95 36.2 -89.75 35.2 -88.9 Q35.3 -87.2 35.8 -85.6 L35.85 -85.5 36.95 -80.9 34.8 -80.3 34.55 -80.05 34.7 -79.65 35.2 -78.3 35.45 -78.1 35.7 -77.9 35.85 -77.35 36.0 -76.3 36.25 -75.05 Q36.4 -73.85 36.7 -72.6 L38.3 -70.45 39.15 -69.6 39.8 -69.05 Q43.1 -66.05 44.35 -62.05 L44.4 -61.75 44.6 -60.4 44.0 -59.25 43.6 -58.55 41.1 -55.8 41.15 -55.55 41.2 -55.05 40.9 -54.1 Q40.25 -52.35 40.0 -50.3 L39.85 -49.65 39.75 -49.3 39.15 -47.95 Q38.4 -46.4 37.15 -45.35 L37.25 -44.75 37.25 -44.45 38.0 -43.65 Q38.5 -42.75 38.8 -41.25 L38.9 -40.75 39.05 -40.25 39.2 -39.65 39.3 -37.9 Q39.4 -35.9 38.9 -33.8 L39.15 -33.25 Q39.6 -32.65 40.45 -32.7 L40.7 -32.45 44.1 -30.3 44.3 -30.15 Q45.4 -28.8 46.3 -25.9 L46.4 -25.6 46.8 -25.15 45.75 -25.05 44.0 -24.7 42.6 -24.3 42.55 -24.05 42.4 -23.05 42.55 -22.9 42.65 -22.75 42.65 -22.1 42.7 -21.75 42.7 -21.55 42.6 -21.15 42.3 -19.45 Q40.1 -19.3 38.05 -19.45 37.1 -19.9 36.25 -20.5 34.75 -21.55 33.3 -22.9 L32.1 -23.9 Q30.2 -24.85 28.7 -23.9 27.6 -23.35 26.55 -22.25 25.8 -20.35 24.3 -18.7 L24.15 -18.6 22.6 -18.15 22.15 -18.1 21.85 -18.25 21.65 -18.45 21.4 -18.75 20.1 -20.25 19.8 -20.45 19.75 -20.6 19.7 -20.75 Q19.4 -21.05 18.9 -21.0 L18.4 -20.7 18.1 -20.35 Q15.8 -17.75 13.25 -16.25 11.8 -15.3 10.0 -15.0 L9.9 -15.3 9.35 -16.55 9.1 -16.75 8.6 -17.15 8.5 -17.6 8.4 -17.8 7.65 -18.35 7.3 -18.4 7.15 -18.45 7.0 -18.45 6.65 -18.45 6.45 -18.45 4.4 -18.9 5.0 -19.25 6.2 -20.3 Q7.15 -20.35 7.5 -20.95 L7.7 -21.45 Q7.6 -22.65 7.0 -23.9 6.65 -24.4 6.1 -24.2 L5.85 -24.15 3.95 -23.45 3.65 -23.25 3.0 -22.9 2.65 -22.75 1.85 -22.4 0.8 -21.85 Q-0.85 -20.95 -2.8 -20.25 L-4.95 -20.1 -7.3 -20.25 -7.85 -21.65 -7.95 -21.8 Q-8.3 -22.9 -8.9 -23.6 L-9.6 -24.45 -10.2 -24.75 Q-13.8 -25.9 -17.65 -25.35 L-17.7 -26.2 -17.25 -29.3 -17.0 -30.35 -16.7 -32.35 -16.65 -34.15 Q-16.65 -35.45 -16.95 -36.55 L-17.2 -36.75 -18.95 -37.55 Q-19.8 -38.75 -21.05 -39.6 L-20.95 -39.9 -20.5 -40.85 -20.6 -43.8 Q-20.75 -45.15 -21.2 -46.45 L-22.0 -47.95 -22.95 -49.3 -23.45 -50.4 -25.5 -53.6 -25.65 -54.0 -17.65 -55.15 -16.8 -55.45 -15.0 -56.2 -14.8 -56.3 -14.75 -56.35 -14.15 -56.6 -14.1 -56.65 -13.8 -57.05 -13.8 -57.85 -13.8 -57.9 -13.55 -58.6 Q-13.3 -59.65 -13.6 -60.55 L-9.8 -60.7 Q-5.6 -61.0 -3.2 -62.3 L-2.9 -62.35 Q-2.65 -62.45 -2.25 -62.65 L-2.0 -62.75 -1.7 -62.8 -1.65 -62.8 2.1 -63.35 Q3.2 -63.65 3.6 -64.25 3.9 -64.7 3.7 -65.4 3.4 -66.35 2.55 -66.65 L0.8 -69.0 Q-2.05 -71.15 -5.35 -72.4 L-5.3 -72.65 -5.3 -73.55 -5.2 -73.75 -4.95 -74.05 Q-4.7 -75.0 -4.6 -76.05 L-4.55 -76.8 Q-4.5 -78.1 -5.4 -78.55 L-7.35 -79.5 -7.9 -79.65 -13.6 -80.15 Q-13.4 -82.25 -14.2 -84.4 L-14.15 -86.7 -14.3 -87.05 -14.35 -87.15 Q-15.75 -88.6 -17.6 -89.7 L-16.7 -91.05 -15.9 -92.1 -15.25 -93.25 Q-14.2 -95.65 -15.5 -99.0 L-16.4 -99.55 -16.5 -99.8 -16.55 -100.1 -16.9 -100.4 Q-17.55 -101.9 -18.55 -103.15 -15.7 -104.05 -13.5 -105.9 L-13.3 -106.45 -13.25 -106.7 -13.25 -107.3 -13.3 -108.35 -13.35 -108.7 -14.4 -109.75 -14.5 -110.0 -14.75 -110.45 -15.35 -112.1 -15.25 -112.3 -15.15 -112.4 -14.9 -112.7 -12.5 -113.5 Q-8.85 -114.85 -4.75 -115.1 L-4.45 -115.3 -4.0 -115.75 -4.25 -116.65 -4.4 -117.05 -4.5 -117.25 -4.85 -117.6 -6.45 -118.4 -7.9 -119.85 -8.0 -119.95 Q-9.7 -121.45 -10.35 -123.3 -8.75 -123.55 -7.6 -125.1 L13.45 -123.55" fill="#ffff00" fill-opacity="0.5019608" fill-rule="evenodd" stroke="none"/>
  </g>
</svg>
