<?xml version="1.0" encoding="UTF-8" standalone="no"?>
<svg xmlns:ffdec="https://www.free-decompiler.com/flash" xmlns:xlink="http://www.w3.org/1999/xlink" ffdec:objectType="shape" height="124.0px" width="51.0px" xmlns="http://www.w3.org/2000/svg">
  <g transform="matrix(1.0, 0.0, 0.0, 1.0, 5.65, 140.9)">
    <path d="M23.8 -129.1 Q23.8 -124.2 20.35 -120.75 17.7 -118.1 14.2 -117.45 L12.7 -117.9 11.6 -117.75 11.0 -118.25 9.0 -119.25 8.4 -115.85 8.45 -115.85 Q12.9 -114.9 15.45 -110.85 17.65 -107.3 20.8 -104.6 30.0 -105.45 38.3 -110.0 36.75 -114.8 42.2 -114.35 45.35 -114.1 45.35 -110.95 45.35 -108.95 44.35 -107.35 43.65 -106.25 42.55 -105.55 36.45 -101.75 29.5 -99.8 L17.15 -99.45 16.05 -100.25 Q12.2 -105.35 7.75 -109.95 7.3 -104.65 7.5 -99.2 L7.75 -92.65 9.9 -91.5 Q11.05 -90.9 11.5 -89.7 14.65 -88.0 18.2 -88.35 21.1 -92.45 24.2 -88.55 24.9 -87.65 24.75 -86.45 24.45 -83.15 21.05 -82.6 13.8 -81.35 8.15 -84.65 L8.65 -78.4 Q10.3 -77.7 11.05 -76.15 18.4 -72.75 23.65 -66.15 L23.8 -65.9 Q27.8 -63.85 27.4 -59.55 27.2 -57.7 26.3 -56.1 25.9 -53.95 24.75 -51.95 L22.9 -49.2 Q21.45 -45.15 19.2 -41.4 17.9 -39.2 17.15 -36.8 20.5 -35.05 25.05 -34.95 28.1 -34.9 27.9 -32.0 27.65 -28.4 23.95 -29.1 L17.45 -30.2 Q16.15 -30.4 15.0 -30.95 L14.85 -26.15 Q14.8 -25.2 14.4 -24.4 18.05 -22.95 22.7 -22.65 23.3 -22.6 23.65 -22.05 26.25 -18.1 21.8 -17.0 L20.05 -16.95 14.75 -17.7 Q10.9 -18.05 8.75 -20.85 8.1 -21.75 8.0 -22.95 7.85 -25.2 9.0 -27.0 8.7 -33.45 10.55 -39.4 10.85 -40.4 11.6 -41.1 12.7 -44.4 13.4 -47.7 L13.6 -49.2 6.4 -68.65 Q5.95 -69.8 5.65 -70.95 4.55 -71.45 3.75 -73.25 3.1 -74.65 2.9 -76.25 2.1 -82.6 1.9 -89.05 L-2.25 -91.35 Q-6.9 -93.6 -5.15 -98.65 L-3.4 -102.5 Q-0.75 -107.85 2.3 -112.95 L2.45 -116.3 Q2.55 -118.35 3.0 -120.4 L3.15 -121.05 3.05 -121.05 Q2.55 -121.35 2.05 -121.6 L2.15 -122.45 2.1 -122.45 2.15 -122.55 1.55 -123.55 0.95 -124.8 0.8 -125.3 Q0.2 -127.1 0.2 -129.1 0.2 -134.0 3.65 -137.45 7.1 -140.9 12.0 -140.9 L14.2 -140.7 Q17.1 -140.2 19.45 -138.25 L20.35 -137.45 Q23.8 -134.0 23.8 -129.1 M1.85 -97.6 L1.9 -99.6 0.55 -96.9 1.85 -96.1 1.85 -97.6 M18.45 -53.75 L20.5 -57.35 20.65 -58.8 21.2 -59.95 Q17.85 -64.45 13.35 -67.5 L18.45 -53.75" fill="#000000" fill-rule="evenodd" stroke="none"/>
  </g>
</svg>
