<?xml version="1.0" encoding="UTF-8" standalone="no"?>
<svg xmlns:ffdec="https://www.free-decompiler.com/flash" xmlns:xlink="http://www.w3.org/1999/xlink" ffdec:objectType="shape" height="133.8px" width="84.3px" xmlns="http://www.w3.org/2000/svg">
  <g transform="matrix(1.0, 0.0, 0.0, 1.0, 25.85, 152.3)">
    <path d="M3.7 -149.2 L4.85 -148.85 5.6 -148.6 Q10.05 -147.0 13.5 -150.05 L13.8 -150.55 13.85 -150.9 13.9 -151.05 14.25 -151.5 14.55 -151.95 14.65 -152.05 16.35 -152.25 16.45 -152.2 16.55 -152.1 16.7 -152.1 17.25 -151.85 17.6 -151.55 Q18.0 -150.6 18.6 -149.95 L18.6 -149.7 18.6 -149.4 18.85 -148.8 19.15 -147.2 20.1 -144.75 20.75 -144.3 25.9 -140.6 27.2 -140.5 28.05 -140.35 28.75 -139.65 Q29.45 -138.6 30.7 -138.15 L31.45 -135.95 32.7 -133.25 Q33.25 -132.1 33.95 -131.7 L34.4 -131.6 35.75 -131.35 Q38.5 -130.35 41.75 -133.1 L42.8 -133.6 43.3 -133.55 45.6 -133.2 45.75 -133.15 45.9 -133.1 46.45 -132.9 46.7 -132.65 47.7 -131.7 48.4 -131.25 48.75 -131.25 49.05 -130.95 49.3 -130.7 51.6 -129.75 52.3 -129.55 Q55.15 -129.15 57.3 -127.8 L57.55 -127.55 58.0 -127.05 58.1 -126.7 58.2 -126.35 58.35 -125.85 58.45 -125.55 58.25 -124.05 57.85 -122.75 57.9 -122.35 57.9 -122.3 57.75 -121.8 57.65 -121.7 57.5 -121.45 57.4 -120.85 57.35 -120.1 57.05 -119.25 57.0 -119.0 57.05 -118.75 57.0 -118.3 56.45 -115.35 56.4 -115.1 56.3 -114.95 56.25 -113.9 56.1 -113.55 -8.0 -114.0 -9.7 -114.05 -12.4 -114.05 Q-9.3 -115.7 -5.7 -116.2 L-5.25 -116.4 -4.7 -116.75 -4.5 -117.4 -4.45 -117.85 -4.5 -118.1 -4.8 -118.45 -6.35 -119.3 -8.0 -120.6 -8.1 -120.65 Q-9.95 -121.95 -10.9 -123.7 -10.3 -124.45 -9.75 -126.65 L-9.45 -126.9 -9.05 -127.3 Q-8.55 -128.35 -8.6 -129.2 L-8.8 -129.7 -8.8 -129.85 -8.8 -130.25 -8.8 -130.85 -9.1 -131.45 -9.15 -131.65 -9.85 -132.45 -11.4 -134.9 -12.3 -136.8 -11.1 -139.6 -11.1 -140.0 -11.15 -140.6 -11.0 -140.7 -10.2 -140.95 -9.95 -141.1 -9.05 -141.9 -8.7 -142.3 -7.2 -144.0 -4.45 -144.1 -4.05 -144.2 -3.7 -144.45 -3.1 -145.1 -2.85 -145.75 -2.05 -148.1 -2.0 -148.4 Q-1.65 -148.45 -1.45 -148.6 L-0.95 -148.85 -0.35 -149.3 0.95 -149.8 3.7 -149.2 M43.2 -99.3 L42.95 -98.7 42.7 -98.3 42.55 -97.55 42.6 -97.3 42.4 -96.65 42.35 -96.55 42.3 -96.3 Q41.3 -95.2 40.65 -93.9 L40.65 -93.6 40.6 -93.1 40.35 -92.6 40.3 -92.5 41.35 -90.35 41.45 -90.0 41.65 -89.65 41.75 -89.4 41.5 -88.65 41.5 -88.4 41.4 -87.75 41.05 -87.6 40.6 -87.3 39.95 -86.2 Q40.1 -84.5 40.9 -83.0 L41.05 -82.85 43.4 -78.9 43.5 -78.1 43.6 -77.9 43.95 -77.6 44.9 -76.75 45.2 -76.6 45.5 -76.5 45.85 -76.15 45.9 -75.05 45.9 -73.8 Q45.8 -72.6 45.95 -71.35 L47.1 -68.95 47.95 -68.15 48.65 -67.6 Q52.2 -64.85 54.2 -61.2 L54.35 -60.85 54.85 -59.65 54.7 -58.6 54.75 -57.85 52.1 -55.2 52.05 -55.05 51.95 -54.65 51.35 -53.95 Q50.0 -52.75 49.2 -50.85 L48.9 -50.2 48.85 -49.8 48.55 -48.45 47.65 -45.55 47.8 -44.9 47.9 -44.6 48.45 -43.8 Q48.1 -43.45 47.7 -42.1 L47.6 -41.65 47.7 -41.1 47.75 -40.5 Q47.5 -39.8 47.4 -38.9 47.2 -36.85 46.5 -34.9 L46.5 -34.75 46.6 -34.85 46.65 -34.8 46.55 -34.45 46.55 -34.3 46.55 -34.25 46.55 -34.2 46.5 -34.3 46.55 -34.45 46.5 -34.75 Q46.05 -34.25 45.5 -31.65 L45.45 -31.5 44.6 -31.95 43.25 -32.55 42.05 -32.95 41.95 -32.95 41.6 -33.0 41.65 -33.05 41.6 -33.1 41.6 -33.15 41.5 -33.05 41.2 -32.95 40.35 -31.55 36.25 -30.8 34.75 -32.3 32.4 -35.25 31.45 -36.45 Q29.55 -37.7 28.2 -36.2 L26.45 -34.2 Q25.7 -32.2 24.35 -30.4 L24.2 -30.35 22.6 -30.05 22.15 -30.05 21.9 -30.1 21.65 -30.25 21.35 -30.55 Q20.6 -31.4 19.75 -31.65 L19.4 -31.65 19.35 -31.7 19.3 -31.7 18.55 -31.45 18.2 -31.05 18.0 -30.6 Q16.45 -27.65 14.7 -25.4 13.7 -24.0 12.15 -23.3 L11.95 -23.4 10.95 -23.9 10.65 -24.0 10.15 -24.25 9.85 -24.5 9.7 -24.65 8.9 -25.0 8.6 -24.95 8.45 -24.9 8.3 -24.85 8.15 -24.65 8.1 -24.55 7.4 -24.1 8.9 -22.7 8.75 -22.7 7.95 -23.25 7.1 -23.55 6.75 -23.7 7.4 -24.1 7.3 -24.2 6.35 -24.35 6.1 -24.3 Q5.05 -24.1 4.25 -23.55 L4.05 -23.2 3.6 -22.7 3.25 -22.5 2.45 -21.95 1.75 -21.1 Q0.6 -19.7 -1.15 -18.6 L-3.3 -18.5 -5.55 -19.0 -6.4 -20.2 -6.6 -20.35 Q-7.25 -21.25 -8.05 -21.6 L-8.9 -22.0 -9.5 -22.1 -17.1 -21.8 -17.15 -22.65 -17.0 -25.85 -16.95 -26.95 -17.0 -29.0 -17.15 -30.8 Q-17.35 -32.1 -17.95 -32.9 L-18.25 -33.1 -20.15 -33.5 Q-20.35 -34.85 -20.95 -36.0 L-20.85 -36.35 -20.5 -37.3 Q-20.35 -38.8 -20.55 -40.3 -20.7 -41.65 -21.25 -42.95 L-22.0 -44.5 -22.95 -45.9 -23.5 -47.0 -25.75 -50.15 -25.85 -50.45 Q-21.95 -51.4 -18.0 -52.65 L-17.35 -53.25 -16.3 -54.6 -16.3 -54.75 -16.3 -54.85 -15.95 -55.35 -15.95 -55.4 -15.85 -55.9 -15.95 -56.75 -15.9 -56.8 -15.45 -57.3 -14.6 -58.85 -10.8 -59.35 Q-6.3 -60.05 -5.3 -62.45 L-5.25 -62.6 -5.0 -63.1 -4.8 -63.2 -4.6 -63.35 -4.5 -63.4 -0.75 -63.95 Q0.35 -64.2 0.9 -64.7 L1.4 -65.55 Q1.7 -66.4 1.4 -66.95 1.25 -68.15 0.45 -69.7 -2.4 -72.0 -5.8 -73.05 L-5.9 -73.25 -6.3 -73.9 -6.4 -74.05 -6.15 -74.35 -5.55 -76.25 -5.45 -77.0 Q-5.25 -78.25 -5.75 -78.9 L-6.9 -80.45 -7.4 -80.7 -13.15 -81.3 Q-14.0 -82.8 -15.5 -84.3 L-15.0 -86.6 -15.0 -86.85 -15.0 -87.0 Q-15.25 -88.7 -16.3 -90.35 L-15.65 -91.85 -15.45 -93.05 -15.45 -94.25 Q-15.7 -96.5 -17.55 -99.45 L-18.4 -100.0 -18.55 -100.25 -18.7 -100.5 -19.05 -100.8 Q-18.75 -102.1 -18.75 -103.35 -16.0 -104.45 -13.75 -106.3 L-13.4 -106.85 -13.3 -107.1 -13.25 -107.7 -13.25 -108.8 -9.7 -108.75 -7.2 -108.7 Q22.45 -108.6 52.05 -108.65 L51.25 -106.35 51.25 -105.8 51.15 -105.45 50.8 -104.8 49.5 -103.15 44.65 -101.15 44.25 -100.65 43.3 -99.65 43.3 -99.5 43.2 -99.3" fill="#ffff00" fill-opacity="0.5019608" fill-rule="evenodd" stroke="none"/>
  </g>
</svg>
