<?xml version="1.0" encoding="UTF-8" standalone="no"?>
<svg xmlns:ffdec="https://www.free-decompiler.com/flash" xmlns:xlink="http://www.w3.org/1999/xlink" ffdec:objectType="shape" height="122.25px" width="45.5px" xmlns="http://www.w3.org/2000/svg">
  <g transform="matrix(1.0, 0.0, 0.0, 1.0, 1.75, 141.3)">
    <path d="M0.15 -125.7 Q-0.45 -127.5 -0.45 -129.5 -0.45 -134.4 3.0 -137.85 6.45 -141.3 11.35 -141.3 L13.55 -141.1 Q16.45 -140.6 18.8 -138.65 L19.7 -137.85 Q23.15 -134.4 23.15 -129.5 23.15 -124.6 19.7 -121.15 17.05 -118.5 13.55 -117.85 L12.05 -118.3 10.95 -118.15 10.35 -118.65 9.0 -119.35 7.9 -119.95 7.75 -118.65 7.4 -116.1 Q8.0 -116.45 8.8 -116.6 11.9 -115.7 12.35 -112.3 L12.45 -111.15 Q15.0 -106.45 16.9 -101.55 L17.05 -100.85 31.3 -100.65 Q31.7 -104.85 36.4 -103.75 40.25 -102.9 38.85 -99.15 38.2 -97.35 36.7 -96.2 37.55 -95.6 38.15 -94.2 38.8 -92.7 38.05 -91.25 37.3 -89.85 35.7 -89.8 29.25 -89.75 22.85 -90.1 L18.75 -90.6 Q14.35 -91.4 12.9 -95.05 L9.4 -95.15 7.4 -95.6 7.85 -92.9 8.0 -92.25 8.45 -85.0 8.55 -77.7 10.0 -76.5 27.15 -71.1 Q29.3 -70.4 30.15 -68.75 31.65 -67.05 31.1 -64.05 30.2 -58.65 30.2 -53.15 30.2 -47.6 29.75 -42.2 L41.05 -41.4 Q44.4 -41.1 43.6 -38.0 43.1 -36.1 41.05 -36.05 33.85 -36.0 26.7 -36.35 25.05 -36.4 24.65 -38.0 23.45 -42.65 24.0 -47.5 24.45 -51.35 24.3 -55.25 24.1 -59.55 24.8 -63.65 L25.0 -64.85 24.5 -65.0 14.2 -68.75 15.35 -66.7 Q17.75 -62.65 18.6 -58.1 20.3 -55.25 19.45 -52.05 19.2 -51.15 18.6 -50.35 18.15 -45.8 15.3 -42.15 L5.35 -28.75 Q6.65 -27.4 9.3 -26.65 12.0 -25.9 14.3 -24.25 16.95 -22.4 14.8 -20.15 13.0 -18.25 10.8 -19.65 L8.75 -20.6 Q8.1 -20.8 7.65 -21.35 2.7 -22.6 -1.2 -25.3 -1.85 -25.75 -1.75 -26.55 -1.25 -31.5 2.35 -35.35 L5.6 -39.2 Q9.7 -44.55 12.85 -50.45 12.8 -51.3 12.9 -52.15 13.0 -52.85 13.5 -53.3 L13.6 -53.9 13.6 -54.45 13.6 -54.75 Q13.05 -55.55 12.95 -56.5 L12.85 -57.95 Q9.65 -65.0 5.45 -71.4 3.7 -71.55 3.15 -73.95 2.85 -75.3 2.85 -76.75 2.8 -86.8 1.9 -96.65 L1.3 -96.95 1.3 -97.1 Q0.8 -105.1 2.15 -112.9 2.6 -115.7 1.65 -117.5 L2.2 -122.5 1.5 -122.75 1.5 -122.85 1.45 -122.85 1.5 -122.95 0.9 -123.95 0.3 -125.2 0.15 -125.7" fill="#000000" fill-rule="evenodd" stroke="none"/>
  </g>
</svg>
