<?xml version="1.0" encoding="UTF-8" standalone="no"?>
<svg xmlns:ffdec="https://www.free-decompiler.com/flash" xmlns:xlink="http://www.w3.org/1999/xlink" ffdec:objectType="shape" height="137.75px" width="91.95px" xmlns="http://www.w3.org/2000/svg">
  <g transform="matrix(1.0, 0.0, 0.0, 1.0, 26.1, 154.7)">
    <path d="M2.1 -149.95 L2.9 -149.75 Q7.45 -148.5 10.95 -151.6 L11.35 -152.1 11.45 -152.45 11.5 -152.55 11.8 -153.1 12.15 -153.6 12.25 -153.7 Q13.0 -154.3 13.85 -154.55 L14.05 -154.65 14.15 -154.65 14.3 -154.7 14.95 -154.55 15.4 -154.3 Q15.75 -153.35 16.65 -152.85 L16.65 -152.6 16.65 -152.3 17.1 -151.7 17.55 -150.05 18.85 -147.7 19.4 -147.05 23.45 -141.7 24.8 -141.6 25.65 -141.45 26.8 -141.2 Q28.3 -140.8 30.05 -141.15 L30.85 -138.9 31.95 -136.0 32.8 -134.0 33.2 -133.8 34.45 -133.05 Q37.1 -130.7 40.6 -133.75 L41.7 -134.1 42.25 -134.15 44.9 -134.65 45.05 -134.7 45.3 -134.75 45.75 -134.85 46.05 -134.55 47.0 -133.5 47.65 -132.9 47.85 -132.85 48.0 -132.4 48.15 -132.0 50.25 -130.7 51.0 -130.4 Q53.95 -130.1 56.1 -128.75 L56.4 -128.5 56.9 -128.1 57.2 -127.7 57.4 -127.35 57.7 -126.8 57.85 -126.5 58.15 -125.0 58.3 -123.45 58.3 -123.15 58.15 -122.65 58.05 -122.55 57.9 -122.3 57.8 -121.6 57.7 -120.9 57.3 -120.05 57.15 -119.75 57.15 -119.5 56.95 -119.1 55.1 -116.3 54.95 -116.1 54.8 -115.95 54.1 -114.95 53.75 -114.55 53.25 -114.1 50.55 -112.35 Q50.25 -111.45 50.4 -110.6 50.7 -108.85 50.45 -106.95 L50.5 -106.35 50.35 -106.0 49.75 -105.45 47.9 -104.15 46.1 -103.3 12.6 -103.55 8.85 -103.55 -16.45 -103.7 -19.2 -103.3 -18.95 -103.6 Q-16.25 -104.9 -14.0 -106.75 L-13.45 -107.3 -13.3 -107.55 -13.3 -108.1 -13.25 -109.2 -13.4 -109.45 -14.35 -110.3 -14.6 -110.45 -15.2 -110.8 Q-15.5 -111.65 -16.1 -112.2 L-16.35 -112.4 -16.25 -112.5 -16.05 -112.75 Q-15.2 -113.7 -13.75 -113.9 -10.6 -116.4 -6.6 -117.3 L-6.1 -117.5 -5.45 -117.8 -4.75 -118.2 -4.5 -118.7 -4.45 -118.9 -4.8 -119.35 -6.25 -120.15 Q-7.15 -120.8 -8.15 -121.3 L-8.25 -121.35 Q-10.25 -122.45 -11.45 -124.05 -12.0 -125.35 -12.05 -127.8 L-11.85 -128.05 -11.35 -128.45 Q-10.6 -129.35 -10.2 -130.3 L-10.25 -130.85 -10.25 -131.05 -10.25 -131.45 -10.25 -132.05 -10.45 -132.7 -10.45 -132.95 -11.05 -133.8 -12.45 -136.45 -13.3 -138.35 -13.35 -141.75 -13.45 -142.2 -13.55 -142.9 -13.3 -142.95 -12.5 -143.1 -12.15 -143.15 -10.95 -143.6 -10.35 -143.8 -7.85 -144.75 -5.15 -144.9 -4.75 -145.0 -4.45 -145.4 -4.2 -146.3 -4.55 -147.25 -5.6 -150.55 -5.7 -150.95 -5.15 -150.95 -4.4 -150.95 -3.5 -151.0 -1.85 -150.95 0.9 -150.25 2.1 -149.95 M42.75 -97.75 Q42.6 -97.3 42.75 -96.9 L42.85 -96.7 42.6 -96.05 42.55 -95.95 42.45 -95.7 Q40.95 -95.0 39.95 -93.85 L39.8 -93.6 39.45 -93.05 39.15 -92.6 39.05 -92.5 40.75 -90.5 41.1 -90.15 41.4 -89.8 41.6 -89.6 Q42.15 -88.8 42.85 -88.25 L44.25 -87.1 45.7 -85.5 45.4 -85.3 44.95 -84.85 44.65 -83.5 Q44.85 -81.8 46.0 -80.45 L46.2 -80.25 Q48.0 -78.25 49.8 -76.85 50.9 -76.2 52.15 -75.9 L52.6 -75.75 53.15 -75.6 54.6 -75.15 54.9 -75.1 55.25 -75.05 55.8 -74.95 55.8 -73.85 55.6 -72.6 Q55.2 -71.4 55.2 -70.15 55.35 -68.85 55.9 -67.5 L56.8 -66.65 Q57.15 -66.45 57.55 -66.2 61.35 -63.7 64.0 -60.4 L64.25 -60.0 65.05 -58.9 65.45 -57.95 65.85 -57.15 Q64.7 -55.7 63.1 -54.65 L63.0 -54.5 62.65 -54.2 Q62.2 -53.9 61.75 -53.75 59.7 -53.1 58.4 -51.4 L57.95 -50.8 57.9 -50.35 57.9 -48.95 58.15 -45.8 58.4 -45.1 58.5 -44.8 58.95 -44.0 Q57.65 -44.2 56.65 -42.95 L56.35 -42.5 56.35 -42.0 56.3 -41.4 Q55.7 -40.8 55.5 -39.85 L54.05 -35.95 53.9 -35.35 Q53.15 -35.5 52.6 -35.95 L52.4 -36.0 Q50.35 -37.1 49.15 -39.3 49.05 -39.5 48.85 -39.5 46.75 -40.35 44.65 -37.45 L44.35 -37.35 44.05 -37.9 Q43.7 -38.35 43.5 -38.9 L42.5 -40.4 41.45 -41.6 41.3 -41.9 40.75 -43.0 40.75 -43.25 40.8 -43.3 40.55 -44.15 40.45 -44.5 40.3 -44.6 39.8 -44.8 38.4 -43.7 Q36.3 -43.05 34.4 -42.2 33.65 -43.05 33.2 -44.05 L31.55 -47.65 30.75 -49.05 Q28.85 -50.5 27.75 -48.45 L26.35 -46.1 Q25.55 -44.05 24.4 -42.1 L24.2 -42.05 22.65 -42.0 22.15 -41.95 21.9 -42.0 21.6 -42.1 Q21.4 -42.2 21.25 -42.35 20.35 -43.2 19.35 -43.1 L19.05 -42.9 18.9 -42.8 18.85 -42.65 18.25 -41.9 18.05 -41.4 17.95 -40.9 16.2 -34.55 Q15.65 -32.65 14.3 -31.65 L14.0 -31.5 12.5 -31.25 12.2 -31.25 11.65 -31.3 11.25 -31.45 11.0 -31.55 10.1 -31.7 9.85 -31.55 9.7 -31.4 9.65 -31.25 9.65 -30.9 9.7 -30.7 9.05 -28.5 9.25 -27.85 9.65 -26.25 10.0 -24.5 10.05 -24.0 7.6 -24.55 6.55 -24.55 6.3 -24.5 Q5.2 -24.3 4.5 -23.6 L4.4 -23.2 4.15 -22.5 3.85 -22.25 3.05 -21.55 2.65 -20.4 Q2.0 -18.5 0.45 -17.0 L-1.7 -16.95 -3.8 -17.75 -5.0 -18.7 -5.25 -18.9 Q-6.2 -19.65 -7.25 -19.55 L-8.2 -19.6 -8.85 -19.5 -16.5 -18.25 -16.6 -19.15 -16.8 -22.35 -16.9 -23.5 -17.25 -25.6 -17.7 -27.4 Q-18.1 -28.7 -19.0 -29.3 L-19.35 -29.45 -21.4 -29.5 Q-20.85 -31.0 -20.9 -32.4 L-20.8 -32.75 -20.45 -33.8 Q-20.3 -35.35 -20.5 -36.85 -20.7 -38.2 -21.25 -39.5 L-22.05 -41.1 -23.0 -42.55 -23.6 -43.6 -26.05 -46.75 -26.1 -46.85 Q-22.3 -48.35 -18.4 -50.15 L-17.95 -51.0 Q-17.55 -52.05 -17.65 -53.0 L-17.85 -53.25 -17.85 -53.4 Q-17.75 -53.75 -17.8 -54.05 L-17.85 -54.15 -17.95 -54.75 -18.05 -55.65 -18.0 -55.65 -17.3 -56.05 -15.6 -57.2 -11.8 -57.95 Q-7.0 -59.05 -7.45 -62.65 L-7.65 -62.8 Q-8.0 -63.0 -7.8 -63.5 L-7.65 -63.7 -7.45 -63.9 -7.4 -63.95 -3.55 -64.6 Q-2.55 -64.8 -1.85 -65.15 L-0.95 -65.75 Q-0.05 -66.5 0.2 -67.3 0.6 -68.55 0.05 -70.35 -2.75 -72.9 -6.25 -73.75 L-6.5 -73.9 -7.25 -74.25 -7.65 -74.3 -7.4 -74.65 -6.55 -76.45 -6.3 -77.15 Q-6.05 -78.35 -6.15 -79.3 L-6.4 -81.45 -6.95 -81.7 -12.75 -82.4 -16.75 -84.25 -15.85 -86.5 -15.75 -86.7 -15.7 -86.9 Q-14.8 -88.85 -15.05 -91.05 L-14.65 -92.7 -14.95 -94.0 -15.7 -95.25 -18.0 -98.1 -17.05 -98.25 10.1 -98.2 13.9 -98.15 42.85 -98.1 42.75 -97.75" fill="#ffff00" fill-opacity="0.5019608" fill-rule="evenodd" stroke="none"/>
  </g>
</svg>
