<?xml version="1.0" encoding="UTF-8" standalone="no"?>
<svg xmlns:ffdec="https://www.free-decompiler.com/flash" xmlns:xlink="http://www.w3.org/1999/xlink" ffdec:objectType="shape" height="120.9px" width="60.45px" xmlns="http://www.w3.org/2000/svg">
  <g transform="matrix(1.0, 0.0, 0.0, 1.0, 4.7, 142.1)">
    <path d="M18.25 -139.45 L19.15 -138.65 Q22.6 -135.2 22.6 -130.3 22.6 -125.4 19.15 -121.95 16.5 -119.3 13.0 -118.65 L11.5 -119.1 10.4 -118.95 9.8 -119.45 8.5 -120.1 Q8.6 -119.0 8.2 -117.6 L8.95 -117.2 Q14.4 -113.8 18.9 -109.2 28.7 -108.85 37.7 -113.05 37.55 -115.35 38.65 -117.25 39.35 -118.5 40.7 -118.55 46.0 -118.65 45.15 -113.65 44.85 -111.9 43.65 -110.55 40.65 -107.3 36.45 -106.05 32.25 -104.75 27.9 -103.9 21.8 -102.7 16.0 -104.1 15.35 -104.25 14.8 -104.75 L7.8 -110.8 Q7.8 -103.05 8.3 -95.35 L9.3 -95.35 24.05 -95.9 Q24.5 -95.9 24.75 -96.3 26.9 -99.55 29.75 -96.8 31.7 -94.9 30.1 -92.55 28.7 -90.6 26.4 -89.85 L24.15 -89.4 Q16.35 -88.65 8.7 -89.3 L8.75 -87.9 Q8.85 -83.35 9.7 -78.85 L18.6 -77.5 Q22.85 -76.65 27.2 -76.35 30.65 -76.1 32.9 -73.45 36.55 -69.2 38.65 -64.2 40.85 -58.95 44.45 -54.4 L45.3 -53.5 45.45 -53.2 46.05 -52.05 Q49.1 -54.05 52.7 -55.25 53.7 -55.6 54.5 -54.85 57.1 -52.5 54.25 -50.3 50.75 -47.6 46.8 -45.7 44.2 -44.45 42.5 -46.7 39.5 -50.7 36.65 -54.8 L33.9 -58.8 Q32.7 -60.5 32.25 -62.4 31.45 -65.45 29.65 -68.1 28.45 -69.85 26.5 -70.25 L20.75 -71.25 11.85 -72.55 Q12.95 -69.25 13.5 -65.8 L13.6 -64.65 Q15.35 -60.55 15.2 -56.0 L15.15 -54.55 15.45 -54.0 15.8 -52.95 Q16.15 -51.25 14.7 -50.35 L14.6 -50.25 12.8 -48.05 Q8.35 -42.5 6.3 -35.75 L4.85 -32.75 2.65 -30.15 Q6.35 -27.35 10.65 -25.35 L11.1 -24.7 Q11.6 -20.8 7.3 -21.25 5.15 -21.5 3.2 -22.6 L-2.4 -26.3 Q-6.8 -29.55 -2.8 -33.15 0.45 -36.1 1.8 -40.25 4.25 -47.6 9.65 -53.05 8.8 -55.35 8.95 -58.05 9.1 -60.65 8.1 -63.05 L7.85 -64.35 7.85 -65.5 Q6.45 -67.4 6.35 -69.85 L6.3 -71.0 5.7 -72.5 Q4.6 -74.5 4.15 -76.75 3.05 -82.1 2.7 -87.7 L2.55 -90.2 Q0.25 -91.0 -1.25 -92.95 -1.85 -93.75 -1.85 -94.8 L-1.9 -100.25 Q-2.2 -104.7 -1.05 -108.65 -0.55 -113.4 2.4 -116.85 L2.65 -121.1 Q2.7 -121.75 2.9 -122.25 L1.85 -122.25 0.85 -122.8 0.95 -123.65 0.9 -123.65 0.95 -123.75 0.35 -124.75 -0.25 -126.0 -0.4 -126.5 Q-1.0 -128.3 -1.0 -130.3 -1.0 -135.2 2.45 -138.65 5.9 -142.1 10.8 -142.1 L13.0 -141.9 Q15.9 -141.4 18.25 -139.45" fill="#000000" fill-rule="evenodd" stroke="none"/>
  </g>
</svg>
