<?xml version="1.0" encoding="UTF-8" standalone="no"?>
<svg xmlns:ffdec="https://www.free-decompiler.com/flash" xmlns:xlink="http://www.w3.org/1999/xlink" ffdec:objectType="shape" height="142.6px" width="103.25px" xmlns="http://www.w3.org/2000/svg">
  <g transform="matrix(1.0, 0.0, 0.0, 1.0, 26.3, 157.3)">
    <path d="M49.75 -82.95 L49.3 -82.4 Q48.95 -79.5 51.35 -77.65 57.5 -72.8 65.75 -73.75 65.85 -72.55 65.25 -71.4 63.9 -68.85 64.7 -66.05 L65.6 -65.2 Q72.2 -61.7 76.95 -56.45 75.7 -54.7 73.35 -53.8 L72.15 -53.6 Q69.0 -53.5 67.0 -51.4 67.0 -50.35 67.3 -49.45 L69.4 -44.2 Q66.9 -45.0 65.05 -43.4 L65.0 -42.85 64.85 -42.25 Q63.95 -41.75 63.6 -40.85 62.6 -38.4 61.25 -36.4 55.3 -38.6 51.65 -43.8 L51.15 -44.2 Q47.45 -46.15 43.85 -43.2 L43.35 -43.2 Q42.4 -44.3 42.35 -45.8 42.35 -47.1 41.75 -48.25 39.95 -51.9 39.35 -55.9 L39.1 -56.15 38.4 -56.65 Q35.25 -55.5 32.6 -53.6 31.95 -54.65 31.7 -55.85 31.15 -58.8 30.1 -61.65 28.2 -63.35 27.25 -60.75 L24.45 -53.8 21.5 -53.9 21.2 -54.15 Q20.15 -54.95 19.0 -54.55 17.9 -53.35 17.85 -51.75 L17.65 -43.7 Q17.4 -38.0 11.3 -38.4 L11.0 -37.9 10.95 -37.65 11.15 -37.1 11.3 -36.8 11.35 -32.15 11.2 -25.25 6.5 -24.7 Q5.4 -24.55 4.8 -23.7 L4.8 -23.15 4.7 -22.3 4.45 -22.0 3.65 -21.15 3.6 -19.7 Q3.45 -17.3 2.1 -15.35 L-0.1 -15.35 -3.9 -17.45 -6.4 -17.55 Q-11.3 -15.65 -15.95 -14.7 -16.15 -17.45 -16.85 -20.1 L-17.55 -22.25 -18.25 -24.05 Q-19.4 -26.55 -22.65 -25.45 -18.75 -30.5 -21.3 -36.05 L-22.1 -37.7 Q-23.9 -40.9 -26.3 -43.3 -22.6 -45.3 -18.75 -47.65 L-18.55 -48.8 Q-18.45 -50.15 -18.95 -51.4 L-19.35 -51.75 -19.4 -51.95 -19.65 -52.8 Q-20.15 -53.65 -20.2 -54.55 L-19.2 -54.8 -12.8 -56.6 Q-7.7 -58.1 -9.6 -62.8 L-10.0 -63.05 Q-10.7 -63.3 -10.6 -63.95 L-10.5 -64.2 -10.3 -64.55 -4.55 -65.6 Q0.25 -66.65 -0.3 -71.05 -3.95 -74.6 -8.95 -74.6 -8.0 -75.45 -7.5 -76.65 -6.35 -79.4 -5.95 -82.4 L-6.5 -82.75 -18.05 -84.15 Q-17.5 -85.55 -16.4 -86.75 L-15.75 -87.5 8.2 -86.9 26.5 -86.15 47.5 -85.4 50.0 -83.25 49.75 -82.95 M8.9 -153.65 L9.0 -153.95 Q10.0 -156.1 11.9 -157.3 L12.65 -157.25 13.15 -157.1 Q13.55 -156.1 14.75 -155.75 L14.75 -155.5 14.75 -155.2 15.3 -154.6 Q15.8 -153.8 15.9 -152.9 L18.05 -149.8 Q19.95 -146.4 21.0 -142.8 25.4 -142.0 29.35 -144.15 L30.2 -141.85 Q31.3 -139.15 31.65 -136.35 L33.2 -134.7 Q35.7 -131.05 39.45 -134.35 42.55 -134.85 45.1 -136.75 L45.35 -136.45 47.0 -134.45 47.0 -133.85 47.0 -133.3 48.95 -131.6 Q49.3 -131.3 49.7 -131.25 57.1 -130.75 58.75 -124.0 L58.45 -123.4 58.05 -121.7 57.5 -120.8 56.9 -119.9 Q52.8 -116.2 48.15 -113.5 48.05 -112.45 48.5 -111.55 49.6 -109.35 49.7 -106.9 49.4 -106.25 48.75 -106.05 44.75 -104.8 41.65 -102.35 L41.65 -101.5 41.65 -99.5 41.9 -99.2 42.8 -97.75 42.75 -97.2 Q42.7 -96.55 43.1 -96.05 L42.8 -95.45 42.6 -95.15 Q39.5 -94.55 37.8 -92.5 L39.5 -91.1 39.2 -91.15 15.7 -92.25 7.55 -92.45 -13.65 -93.2 -13.65 -93.55 Q-14.45 -95.2 -15.9 -96.25 L-23.45 -101.6 Q-17.85 -104.15 -13.35 -107.95 L-13.3 -108.5 -13.25 -109.65 Q-14.1 -110.65 -15.45 -111.0 -15.85 -112.0 -16.9 -112.45 L-16.6 -112.8 Q-15.9 -113.95 -14.4 -114.1 -10.6 -118.15 -5.0 -119.0 L-4.55 -119.5 -4.45 -119.75 -4.75 -120.2 Q-6.35 -121.3 -8.25 -122.05 -13.15 -123.95 -14.4 -129.0 L-14.2 -129.2 Q-12.85 -130.1 -11.8 -131.4 L-11.7 -132.25 -11.75 -134.25 -13.5 -138.0 Q-15.0 -141.55 -15.95 -145.2 L-5.8 -145.65 Q-5.6 -145.65 -5.4 -145.8 L-5.25 -146.35 -5.3 -147.5 -6.2 -148.75 -9.4 -153.55 -6.65 -152.7 -0.7 -151.05 Q4.85 -149.7 8.9 -153.65" fill="#ffff00" fill-opacity="0.5019608" fill-rule="evenodd" stroke="none"/>
  </g>
</svg>
