<?xml version="1.0" encoding="UTF-8" standalone="no"?>
<svg xmlns:ffdec="https://www.free-decompiler.com/flash" xmlns:xlink="http://www.w3.org/1999/xlink" ffdec:objectType="shape" height="117.6px" width="76.4px" xmlns="http://www.w3.org/2000/svg">
  <g transform="matrix(1.0, 0.0, 0.0, 1.0, 13.2, 142.9)">
    <path d="M10.55 -142.9 Q15.45 -142.9 18.9 -139.45 22.35 -136.0 22.35 -131.1 22.35 -126.2 18.9 -122.75 16.25 -120.1 12.75 -119.45 L11.25 -119.9 10.15 -119.75 9.55 -120.25 6.05 -122.0 5.9 -119.4 5.9 -118.15 7.9 -117.5 16.4 -113.6 22.2 -111.9 23.75 -111.95 Q30.5 -113.9 35.75 -118.3 37.0 -119.3 36.85 -120.95 36.6 -123.95 39.55 -124.3 43.5 -123.3 42.9 -118.85 42.6 -116.9 41.3 -115.4 36.1 -109.45 28.3 -107.05 L22.95 -105.7 19.95 -105.85 Q16.0 -106.95 12.75 -109.2 9.1 -109.95 6.0 -111.7 6.4 -104.35 7.8 -97.25 L8.15 -95.45 Q13.75 -95.65 19.6 -96.9 22.4 -97.5 24.75 -99.1 25.0 -104.65 30.7 -102.9 32.2 -102.45 32.45 -100.9 32.95 -97.2 29.75 -94.9 21.8 -89.2 11.9 -89.75 L9.3 -89.7 9.55 -88.2 10.55 -83.1 11.35 -81.0 29.3 -78.9 Q32.0 -78.55 34.55 -77.6 36.05 -77.05 37.1 -75.8 44.3 -67.35 51.7 -59.25 L52.5 -58.1 52.7 -58.3 Q55.65 -61.1 59.5 -61.65 64.6 -61.5 62.65 -57.2 62.15 -56.1 61.0 -55.75 57.35 -54.65 54.4 -52.0 L53.1 -51.0 52.65 -50.75 Q49.65 -49.25 47.65 -52.6 47.4 -53.1 47.55 -53.55 46.7 -54.7 46.25 -56.0 L40.95 -62.4 Q36.6 -67.85 31.45 -72.4 L13.55 -74.65 Q13.25 -73.5 13.3 -72.25 13.65 -66.75 12.9 -61.55 12.3 -57.3 10.85 -53.3 10.2 -51.65 8.95 -50.35 L5.8 -46.55 Q1.2 -40.2 -5.1 -35.05 L0.1 -29.05 Q0.7 -28.3 0.25 -27.4 -1.55 -23.7 -4.8 -26.55 L-11.2 -31.7 Q-14.95 -34.4 -11.6 -37.35 L-5.0 -43.45 Q0.3 -48.55 4.5 -54.45 7.05 -58.0 7.05 -62.6 L7.1 -64.1 Q7.55 -67.8 7.35 -71.55 7.25 -73.95 7.55 -76.2 L7.0 -76.6 Q5.9 -77.45 6.0 -78.55 4.3 -81.15 4.05 -84.4 3.9 -86.75 3.35 -89.0 0.85 -89.05 -1.55 -89.85 -3.25 -90.45 -3.25 -92.2 -3.25 -100.25 -1.4 -107.95 -1.0 -109.7 -1.1 -111.5 -1.3 -114.15 0.0 -115.95 0.05 -120.5 0.5 -124.9 -1.25 -127.65 -1.25 -131.1 -1.25 -136.0 2.2 -139.45 5.65 -142.9 10.55 -142.9" fill="#000000" fill-rule="evenodd" stroke="none"/>
  </g>
</svg>
