<?xml version="1.0" encoding="UTF-8" standalone="no"?>
<svg xmlns:ffdec="https://www.free-decompiler.com/flash" xmlns:xlink="http://www.w3.org/1999/xlink" ffdec:objectType="shape" height="134.3px" width="107.5px" xmlns="http://www.w3.org/2000/svg">
  <g transform="matrix(1.0, 0.0, 0.0, 1.0, 30.4, 154.45)">
    <path d="M4.9 -152.3 Q7.65 -152.1 10.2 -153.2 L10.3 -153.15 10.45 -153.05 12.2 -152.45 12.8 -152.2 13.35 -152.0 13.5 -151.95 Q14.3 -151.8 15.95 -152.45 L16.95 -153.35 17.55 -153.45 17.65 -153.5 18.15 -153.55 19.9 -153.35 20.0 -153.3 20.15 -153.25 20.7 -153.1 21.45 -152.8 21.5 -152.3 21.85 -151.3 22.0 -150.55 Q21.9 -150.05 21.95 -149.4 L22.0 -148.9 22.05 -148.15 22.5 -145.75 22.7 -145.4 22.9 -145.05 22.95 -144.75 23.0 -144.5 23.05 -144.2 23.15 -143.9 23.6 -143.25 23.9 -142.7 23.95 -142.35 24.05 -141.35 24.65 -140.7 25.7 -139.55 Q26.3 -139.15 27.1 -139.15 27.7 -139.1 28.15 -139.45 L28.6 -139.85 29.1 -140.3 29.6 -140.7 30.1 -141.0 30.25 -140.95 31.0 -140.85 31.4 -140.75 32.0 -140.8 33.0 -140.45 34.0 -140.1 34.0 -139.9 34.6 -137.7 35.35 -135.5 Q36.25 -133.8 37.5 -133.65 L38.15 -133.1 38.45 -133.05 39.05 -133.05 42.0 -134.0 42.95 -134.3 43.25 -134.15 45.7 -133.25 46.05 -132.95 46.35 -132.65 48.85 -131.9 49.65 -131.7 50.9 -131.65 Q53.7 -131.45 55.7 -130.1 L55.8 -129.8 55.9 -129.55 56.0 -129.25 55.85 -127.7 55.1 -125.2 54.65 -124.7 54.5 -124.1 54.3 -123.2 54.3 -123.0 54.2 -122.7 54.35 -122.35 54.6 -121.7 Q55.15 -119.9 54.55 -117.1 54.45 -116.65 53.95 -116.3 L51.5 -114.55 50.7 -113.05 Q50.15 -111.5 49.1 -110.05 L48.85 -109.75 47.8 -109.15 47.65 -109.15 Q44.95 -108.55 43.4 -106.9 L43.3 -105.55 43.3 -104.8 43.55 -104.1 44.25 -102.2 44.5 -101.85 45.15 -100.85 45.1 -100.55 44.85 -100.2 44.3 -99.5 43.8 -99.15 43.45 -98.95 Q40.45 -98.5 38.05 -97.55 L37.95 -97.5 37.85 -97.25 Q37.4 -96.3 37.8 -94.65 38.1 -94.15 38.75 -93.85 L40.15 -93.2 44.45 -91.15 45.75 -88.8 45.65 -88.55 45.6 -88.45 45.35 -87.85 45.0 -85.55 45.05 -85.25 45.15 -84.95 45.2 -84.75 45.35 -84.45 Q46.0 -83.65 46.95 -83.45 L47.45 -83.4 Q51.0 -83.0 54.8 -81.85 L56.15 -80.4 57.0 -79.5 Q57.35 -79.25 57.85 -79.15 L60.5 -78.95 61.55 -77.65 62.0 -77.05 61.95 -76.05 55.25 -76.55 31.45 -77.65 9.25 -78.15 -9.85 -78.95 -10.5 -79.25 -10.9 -81.55 -11.05 -81.95 -10.9 -82.4 -10.65 -83.15 -10.5 -83.95 Q-10.75 -85.8 -11.8 -87.3 L-12.05 -87.7 Q-13.4 -88.8 -14.85 -89.7 L-16.8 -90.9 -18.15 -94.2 Q-18.7 -95.6 -19.6 -96.8 -18.8 -98.7 -19.15 -100.1 -18.5 -101.55 -18.4 -102.95 L-18.0 -105.4 -18.25 -105.95 -18.6 -107.0 -20.1 -108.35 -20.1 -108.5 -19.5 -109.35 -19.0 -109.55 -16.9 -110.3 -16.45 -110.35 Q-15.2 -111.05 -14.35 -112.2 -11.85 -115.6 -10.65 -118.1 L-10.55 -118.65 -10.55 -118.7 -10.35 -118.85 -10.15 -119.15 -10.1 -119.4 -10.1 -119.6 -11.2 -121.8 -11.35 -122.05 Q-12.2 -123.6 -13.6 -125.1 L-13.0 -126.3 -13.05 -126.85 -13.15 -127.45 -13.2 -127.75 -13.0 -129.15 -12.85 -129.45 -12.2 -130.7 -11.65 -132.35 -11.7 -133.15 -11.95 -134.95 -11.8 -135.1 -11.6 -135.45 Q-11.2 -135.6 -10.8 -136.2 -10.15 -136.85 -9.5 -138.35 -9.45 -140.25 -9.8 -142.2 L-9.4 -142.8 Q-9.05 -143.3 -8.85 -143.75 -8.1 -145.75 -5.8 -147.85 L-5.55 -148.1 -5.4 -148.7 -5.35 -148.9 -4.85 -149.55 -4.75 -150.05 -4.7 -150.5 -3.65 -154.3 -1.8 -154.45 -1.55 -154.45 -1.0 -154.35 -0.7 -154.2 Q1.0 -152.85 3.45 -152.45 L4.9 -152.3 M45.45 -71.45 L60.2 -70.75 63.2 -70.55 Q64.3 -70.05 65.5 -70.0 68.3 -69.8 70.95 -68.25 L71.1 -67.85 71.35 -67.35 71.55 -66.9 71.6 -66.35 71.65 -66.05 71.75 -65.7 72.15 -64.7 71.6 -63.5 Q71.15 -62.8 71.0 -62.15 L70.95 -61.95 70.9 -61.65 71.05 -61.6 71.1 -61.55 71.65 -60.2 72.95 -59.0 77.1 -55.15 76.85 -55.05 76.75 -54.9 76.6 -54.75 76.45 -54.6 76.4 -54.45 76.2 -54.25 75.9 -54.0 75.6 -53.75 75.5 -53.6 75.4 -53.35 75.25 -53.15 75.25 -53.05 75.15 -52.7 75.1 -52.6 74.75 -52.1 73.15 -50.85 Q71.5 -49.1 69.6 -47.7 L69.55 -47.5 69.5 -47.4 69.3 -47.25 69.15 -47.15 69.05 -47.05 68.55 -46.2 68.15 -45.55 67.05 -46.15 66.55 -46.4 59.5 -46.8 58.6 -46.6 58.1 -46.6 Q56.8 -47.25 56.05 -47.8 L54.5 -48.35 53.75 -48.4 53.7 -48.4 53.15 -48.15 52.8 -48.05 52.65 -48.1 52.5 -48.15 52.4 -48.2 52.1 -48.45 51.95 -48.7 51.6 -48.9 50.95 -49.35 49.35 -49.45 45.0 -49.55 44.9 -49.65 43.5 -51.3 Q41.75 -53.45 39.45 -54.6 L38.4 -54.8 Q37.45 -55.55 36.7 -55.2 L32.9 -54.85 30.3 -56.1 30.0 -56.35 Q29.35 -56.9 28.55 -56.95 L27.8 -56.9 Q26.45 -56.35 25.6 -55.6 L22.1 -52.6 21.8 -52.25 21.7 -51.95 21.65 -51.55 21.6 -51.2 21.65 -51.05 21.7 -50.8 21.85 -50.45 21.9 -50.1 21.95 -49.9 21.9 -49.6 21.9 -49.3 22.0 -48.95 Q19.45 -47.65 15.45 -47.5 L15.2 -47.25 15.0 -46.7 15.0 -46.4 15.0 -46.15 15.2 -45.85 15.4 -45.55 16.0 -43.6 16.4 -41.55 16.55 -41.2 16.6 -41.15 16.65 -41.0 16.7 -40.8 16.65 -40.45 16.55 -40.0 Q14.85 -38.8 13.4 -36.9 L11.8 -36.45 11.25 -35.8 10.5 -34.6 10.2 -33.8 10.15 -33.0 10.3 -32.45 10.45 -31.5 10.4 -31.05 10.15 -30.05 10.15 -29.45 9.8 -29.0 9.75 -28.95 7.45 -26.8 6.6 -26.05 4.6 -25.25 2.65 -24.9 1.5 -24.65 -0.45 -23.55 -2.35 -21.95 -5.1 -21.65 -8.25 -20.85 -9.8 -20.15 -11.95 -20.55 -12.15 -20.7 -12.3 -20.75 -12.6 -20.85 -12.75 -20.95 -13.5 -21.65 -14.85 -22.8 Q-16.75 -24.4 -19.7 -24.2 -20.2 -25.8 -21.25 -27.45 L-21.2 -28.0 -21.15 -28.85 -21.35 -29.75 Q-22.15 -31.25 -23.45 -32.75 L-24.65 -34.05 Q-26.9 -36.2 -29.55 -37.85 L-29.7 -38.0 -30.15 -38.5 -30.25 -38.65 -30.4 -38.85 Q-27.9 -40.25 -25.05 -40.9 -24.4 -41.05 -23.95 -41.6 L-23.15 -43.05 -23.1 -44.2 -23.4 -45.7 -23.9 -47.0 -24.2 -47.35 -24.2 -47.5 -24.5 -48.4 -25.1 -50.15 -24.8 -50.8 -23.25 -53.7 -21.1 -53.95 -19.55 -54.1 Q-17.3 -54.3 -16.55 -56.2 -16.25 -57.55 -16.5 -59.1 L-16.65 -59.55 Q-17.0 -59.95 -16.9 -60.6 L-16.85 -60.85 -16.8 -61.1 -16.75 -61.35 Q-15.5 -62.85 -14.6 -64.4 L-13.6 -64.4 -10.85 -64.35 Q-8.75 -64.3 -7.75 -65.4 L-7.0 -67.25 Q-7.15 -67.8 -7.6 -68.35 L-7.3 -69.05 -6.7 -70.85 -6.55 -71.85 -5.05 -73.15 9.25 -72.8 20.2 -72.35 45.45 -71.45" fill="#ffff00" fill-opacity="0.5019608" fill-rule="evenodd" stroke="none"/>
  </g>
</svg>
