<?xml version="1.0" encoding="UTF-8" standalone="no"?>
<svg xmlns:ffdec="https://www.free-decompiler.com/flash" xmlns:xlink="http://www.w3.org/1999/xlink" ffdec:objectType="shape" height="120.25px" width="79.35px" xmlns="http://www.w3.org/2000/svg">
  <g transform="matrix(1.0, 0.0, 0.0, 1.0, 10.0, 143.7)">
    <path d="M17.05 -141.05 L17.95 -140.25 Q21.4 -136.8 21.4 -131.9 21.4 -127.0 17.95 -123.55 15.3 -120.9 11.8 -120.25 L10.3 -120.7 9.2 -120.55 8.6 -121.05 6.45 -122.15 6.25 -120.6 Q6.15 -120.15 6.35 -119.75 L7.25 -116.95 13.75 -115.9 23.6 -113.75 Q25.0 -115.45 27.45 -116.4 L29.7 -117.45 Q34.05 -119.8 37.3 -123.2 L37.45 -123.6 Q37.65 -126.35 40.3 -126.6 45.15 -126.45 44.0 -121.75 43.5 -119.85 41.85 -118.5 35.7 -113.6 28.7 -110.1 26.85 -107.8 25.1 -107.95 L23.3 -108.0 Q15.9 -109.1 8.75 -110.85 L8.7 -109.1 8.6 -107.7 Q10.7 -100.7 12.15 -93.5 L18.75 -94.25 20.5 -94.6 21.7 -94.9 Q21.85 -99.5 26.15 -97.7 28.75 -96.6 28.5 -93.65 28.4 -92.25 27.55 -91.2 25.95 -89.3 23.45 -88.8 L17.95 -87.7 13.25 -87.1 14.4 -81.15 15.0 -80.5 16.1 -80.9 Q27.15 -80.7 37.85 -78.95 L39.35 -78.55 39.55 -78.6 Q42.95 -77.1 44.7 -73.55 45.3 -72.45 46.15 -71.55 48.6 -69.1 49.3 -65.9 L55.4 -58.7 59.2 -61.15 Q62.35 -62.85 65.65 -63.6 70.45 -63.6 69.05 -59.35 68.8 -58.55 68.0 -58.25 62.25 -56.2 56.85 -53.25 54.9 -51.6 52.4 -53.8 47.95 -57.7 44.3 -62.25 43.25 -63.55 43.2 -65.15 40.1 -68.8 37.9 -72.95 L32.85 -73.55 28.95 -74.05 16.3 -75.3 15.75 -74.25 14.4 -72.15 Q14.6 -63.7 14.0 -55.35 14.55 -54.35 13.8 -52.8 13.75 -52.45 13.5 -52.25 L13.35 -52.05 Q12.8 -51.2 11.8 -50.7 L5.75 -47.1 -1.7 -39.35 -3.7 -37.5 -3.75 -35.5 Q-4.0 -33.65 -3.75 -31.8 -3.1 -27.6 -4.95 -24.2 -5.45 -23.3 -6.5 -23.45 -10.25 -24.1 -9.9 -27.9 -9.4 -32.25 -9.95 -36.8 -10.1 -38.2 -9.75 -39.2 -9.65 -40.9 -7.8 -42.4 -5.6 -44.15 -3.7 -46.35 1.7 -52.5 8.75 -55.85 L8.55 -59.35 Q8.35 -67.4 9.3 -75.2 L9.55 -76.1 9.9 -76.95 Q9.0 -78.2 8.7 -79.85 L7.3 -87.55 1.05 -88.1 Q-3.8 -88.3 -4.15 -92.6 -4.35 -95.05 -3.7 -97.4 L-2.85 -100.95 Q-2.25 -104.4 -2.05 -107.9 L-1.5 -111.95 Q-0.95 -114.55 1.05 -116.2 0.25 -119.65 0.55 -123.3 L0.65 -123.85 -0.35 -124.4 -0.25 -125.25 -0.3 -125.25 -0.25 -125.35 -0.85 -126.35 -1.45 -127.6 -1.6 -128.1 Q-2.2 -129.9 -2.2 -131.9 -2.2 -136.8 1.25 -140.25 4.7 -143.7 9.6 -143.7 L11.8 -143.5 Q14.7 -143.0 17.05 -141.05 M3.45 -103.55 L3.3 -101.75 2.5 -98.05 1.7 -94.4 5.95 -93.75 4.05 -101.4 3.45 -103.9 3.45 -103.55" fill="#000000" fill-rule="evenodd" stroke="none"/>
  </g>
</svg>
