<?xml version="1.0" encoding="UTF-8" standalone="no"?>
<svg xmlns:ffdec="https://www.free-decompiler.com/flash" xmlns:xlink="http://www.w3.org/1999/xlink" ffdec:objectType="shape" height="135.2px" width="120.4px" xmlns="http://www.w3.org/2000/svg">
  <g transform="matrix(1.0, 0.0, 0.0, 1.0, 34.5, 156.05)">
    <path d="M19.0 -55.5 L19.0 -54.95 20.65 -52.6 Q21.25 -51.7 21.4 -50.6 L21.7 -50.3 21.95 -50.0 22.05 -49.75 21.95 -49.5 21.7 -49.15 Q17.25 -49.7 14.0 -47.85 L14.0 -46.65 Q14.1 -44.95 15.0 -43.35 16.25 -41.1 16.7 -38.6 16.3 -38.3 15.9 -38.3 13.9 -38.25 12.15 -37.35 9.35 -35.95 7.7 -33.15 L4.0 -27.25 1.15 -27.45 Q-0.65 -27.45 -2.1 -26.65 -5.4 -24.85 -7.2 -21.5 L-7.7 -21.2 -8.1 -20.95 -8.35 -20.85 Q-15.7 -22.4 -22.1 -24.85 L-22.1 -25.45 -22.05 -26.3 Q-22.05 -26.8 -22.4 -27.2 -27.3 -31.05 -33.4 -33.05 L-33.6 -33.25 -34.1 -33.8 -34.5 -34.4 Q-31.95 -35.9 -28.8 -35.75 -28.0 -35.7 -27.55 -36.5 -27.25 -39.0 -28.25 -41.3 -30.55 -46.25 -31.7 -51.45 L-27.75 -51.05 Q-25.25 -50.5 -24.0 -52.45 -23.3 -55.1 -23.2 -57.9 L-23.25 -60.55 -15.15 -59.75 -10.3 -59.45 -3.15 -59.15 19.1 -58.25 26.05 -57.85 26.2 -57.6 26.25 -57.35 26.3 -57.05 26.4 -56.75 26.65 -56.45 19.2 -56.65 19.05 -56.1 19.0 -55.5 M40.55 -57.0 L48.6 -56.35 69.6 -54.6 80.25 -54.1 80.55 -53.5 Q81.9 -50.75 83.8 -48.4 L74.35 -49.85 Q69.3 -50.95 66.2 -47.55 L66.2 -47.25 65.9 -44.65 65.85 -42.35 65.65 -42.05 65.45 -41.75 65.25 -41.5 64.7 -41.45 64.5 -41.5 61.9 -42.95 Q59.5 -44.1 57.25 -45.65 53.0 -48.65 47.7 -47.35 44.5 -52.65 40.35 -57.0 L40.55 -57.0 M3.9 -155.95 L4.1 -156.0 4.65 -156.0 4.9 -155.85 Q6.25 -153.85 8.95 -153.6 12.55 -153.35 15.9 -155.4 L15.9 -155.2 15.9 -154.9 17.1 -152.6 17.45 -151.4 Q18.2 -148.05 21.0 -148.4 21.5 -149.3 22.5 -149.7 L27.05 -152.3 27.05 -151.75 27.1 -150.6 26.95 -149.7 Q26.35 -149.25 26.1 -148.55 L25.65 -147.2 Q25.3 -145.9 25.5 -144.55 L25.7 -144.25 25.9 -143.95 25.9 -143.65 25.9 -143.4 25.9 -143.1 26.0 -142.8 26.65 -142.2 27.05 -141.65 27.05 -141.35 27.05 -138.75 27.05 -136.45 Q27.5 -135.65 28.4 -135.45 29.1 -135.3 29.55 -135.8 L29.75 -136.35 29.95 -136.95 30.1 -137.5 31.0 -138.1 32.1 -139.05 Q33.0 -140.0 33.2 -141.25 L34.75 -142.4 Q35.6 -143.0 36.35 -143.75 L35.65 -138.0 Q35.45 -134.8 35.6 -131.65 L35.9 -131.45 36.45 -131.2 39.55 -131.8 50.75 -132.25 Q53.6 -132.3 55.85 -131.0 L55.75 -130.7 55.65 -130.4 55.55 -130.15 53.95 -128.7 Q52.55 -127.1 50.85 -126.0 L50.7 -125.45 50.5 -124.55 50.55 -124.0 Q55.6 -123.05 57.55 -118.6 57.8 -118.0 57.35 -117.6 53.65 -114.4 48.5 -112.75 L46.6 -112.3 Q43.55 -111.85 42.4 -109.65 L44.05 -108.05 Q46.25 -106.2 47.7 -103.6 L47.4 -103.35 38.0 -102.65 37.2 -102.6 Q34.65 -102.05 33.6 -100.05 33.75 -99.35 34.5 -99.15 L40.9 -97.3 Q41.45 -95.75 41.45 -94.1 41.45 -92.35 40.5 -90.95 L40.5 -90.65 40.5 -90.35 40.5 -90.1 40.6 -89.8 Q41.65 -88.9 43.1 -89.45 47.1 -90.95 51.15 -89.6 51.55 -88.4 51.6 -87.1 L51.65 -85.4 52.45 -84.75 Q56.1 -83.7 59.3 -84.05 59.5 -82.25 58.9 -80.6 58.25 -78.9 58.65 -77.1 L61.85 -76.9 Q65.0 -78.15 68.05 -77.0 L68.1 -76.45 68.15 -75.85 68.15 -75.3 67.75 -74.7 67.55 -74.45 67.35 -74.15 Q67.5 -72.8 67.1 -71.55 66.8 -70.7 67.1 -69.8 L67.4 -69.6 Q67.65 -69.45 67.95 -69.35 77.5 -70.25 85.7 -65.7 L85.8 -65.4 85.8 -65.1 85.85 -64.8 85.9 -64.55 85.8 -64.25 85.6 -63.95 85.4 -63.65 85.4 -63.4 85.4 -63.1 85.4 -62.8 85.3 -62.5 Q82.4 -60.55 79.2 -59.25 L65.0 -60.35 40.55 -62.5 20.4 -63.9 Q8.05 -64.95 -4.45 -64.6 L-6.0 -64.6 -5.95 -66.15 Q-2.4 -67.55 1.5 -66.65 L2.45 -67.05 3.15 -67.6 3.2 -68.2 3.1 -68.75 2.95 -69.05 1.1 -70.35 Q-2.2 -73.9 -5.95 -76.85 L-5.95 -77.4 -5.95 -78.25 -6.05 -79.15 Q-7.65 -80.9 -10.0 -81.65 -13.55 -82.8 -16.05 -84.4 L-15.6 -88.7 Q-14.95 -93.85 -19.4 -96.25 -19.65 -98.3 -20.8 -100.05 -22.85 -103.3 -25.45 -106.0 L-19.05 -106.55 Q-17.1 -106.75 -16.35 -108.5 -14.45 -113.2 -16.6 -117.95 L-15.0 -118.3 -14.6 -118.5 -14.2 -121.95 Q-14.05 -124.3 -15.55 -126.0 -14.0 -125.75 -12.8 -126.5 L-12.55 -127.05 -12.5 -127.65 -12.5 -127.9 Q-11.3 -129.4 -11.35 -131.4 -11.45 -133.75 -12.2 -136.0 L-11.15 -136.1 Q-7.5 -133.05 -4.15 -135.2 -3.25 -137.75 -3.9 -140.4 L-4.6 -142.25 Q-7.1 -146.7 -5.5 -151.35 -4.5 -151.45 -3.7 -151.95 -0.1 -154.2 3.9 -155.95" fill="#ffff00" fill-opacity="0.5019608" fill-rule="evenodd" stroke="none"/>
  </g>
</svg>
