<?xml version="1.0" encoding="UTF-8" standalone="no"?>
<svg xmlns:ffdec="https://www.free-decompiler.com/flash" xmlns:xlink="http://www.w3.org/1999/xlink" ffdec:objectType="shape" height="112.95px" width="83.3px" xmlns="http://www.w3.org/2000/svg">
  <g transform="matrix(1.0, 0.0, 0.0, 1.0, 13.35, 143.6)">
    <path d="M37.6 -125.85 Q43.25 -125.65 41.55 -120.15 41.15 -118.75 39.95 -117.75 34.65 -113.3 28.95 -109.45 28.1 -108.9 27.1 -108.6 24.15 -107.75 21.15 -108.5 14.7 -110.0 8.1 -110.8 9.3 -104.5 11.0 -98.3 11.65 -95.8 12.55 -93.3 L12.95 -93.35 Q16.0 -97.65 19.85 -93.55 20.7 -92.7 20.5 -91.45 19.95 -88.0 16.45 -87.55 L14.8 -87.35 17.35 -80.85 37.4 -79.3 Q39.2 -79.15 40.6 -77.9 L53.15 -66.65 58.15 -61.85 Q61.7 -63.8 65.55 -63.55 66.4 -63.95 67.2 -64.0 71.7 -62.4 68.8 -58.65 67.65 -57.1 65.65 -57.55 L64.85 -57.75 64.35 -57.7 Q62.95 -57.55 61.7 -56.9 55.8 -53.85 52.2 -58.9 L49.6 -61.95 Q43.0 -68.2 35.8 -73.8 26.4 -73.95 17.35 -75.55 L16.4 -70.15 Q15.4 -65.15 15.25 -60.05 15.15 -56.05 13.6 -52.7 13.15 -51.7 12.15 -51.15 2.65 -45.8 -7.5 -42.0 -7.45 -36.95 -7.65 -32.2 -7.7 -31.7 -8.15 -31.4 -11.55 -29.3 -12.95 -33.0 L-13.3 -34.6 Q-13.55 -40.45 -12.55 -46.05 -12.45 -46.55 -11.95 -46.7 -2.35 -50.0 6.45 -54.85 L8.9 -56.2 Q9.8 -66.6 11.0 -77.0 11.15 -78.2 11.6 -79.35 11.15 -80.3 10.95 -81.35 L8.55 -87.05 Q0.25 -87.1 -7.7 -89.35 -9.95 -89.95 -9.7 -92.2 -9.25 -96.15 -6.6 -99.3 -3.6 -102.9 -1.7 -107.1 -0.55 -109.75 0.3 -112.35 0.7 -113.5 1.4 -114.15 L1.3 -114.8 Q0.7 -118.85 0.6 -122.95 L-0.2 -124.1 -0.6 -124.3 -0.5 -125.15 -0.55 -125.15 -0.5 -125.25 -1.1 -126.25 -1.7 -127.5 -1.85 -128.0 Q-2.45 -129.8 -2.45 -131.8 -2.45 -136.7 1.0 -140.15 4.45 -143.6 9.35 -143.6 L11.55 -143.4 Q14.45 -142.9 16.8 -140.95 L17.7 -140.15 Q21.15 -136.7 21.15 -131.8 21.15 -126.9 17.7 -123.45 15.05 -120.8 11.55 -120.15 L11.2 -120.25 6.75 -120.45 6.55 -120.5 6.6 -119.95 7.1 -116.7 Q15.0 -116.25 22.8 -114.7 25.55 -114.15 27.9 -116.1 L31.9 -118.95 Q33.55 -120.0 34.75 -121.5 34.35 -123.5 35.65 -124.9 36.5 -125.8 37.6 -125.85 M0.45 -99.05 Q-0.85 -96.4 -2.6 -94.05 1.85 -93.0 6.45 -92.95 5.1 -97.25 4.1 -101.8 L3.45 -104.75 0.45 -99.05" fill="#000000" fill-rule="evenodd" stroke="none"/>
  </g>
</svg>
