<?xml version="1.0" encoding="UTF-8" standalone="no"?>
<svg xmlns:ffdec="https://www.free-decompiler.com/flash" xmlns:xlink="http://www.w3.org/1999/xlink" ffdec:objectType="shape" height="126.55px" width="116.0px" xmlns="http://www.w3.org/2000/svg">
  <g transform="matrix(1.0, 0.0, 0.0, 1.0, 34.4, 156.35)">
    <path d="M37.4 -142.5 L38.35 -141.55 Q40.5 -139.45 42.9 -139.55 L43.05 -139.85 43.85 -141.0 43.95 -141.85 43.95 -143.2 48.85 -143.2 50.5 -143.2 Q52.5 -140.65 56.25 -141.25 L56.2 -140.8 56.15 -140.2 Q55.45 -139.95 55.1 -139.35 L55.1 -139.05 55.1 -138.75 53.25 -136.85 Q52.0 -135.6 51.25 -134.05 50.25 -131.95 50.75 -129.6 L52.7 -120.6 Q49.85 -119.8 46.85 -119.85 45.4 -119.9 44.7 -118.9 L44.8 -114.85 44.9 -108.25 Q40.95 -108.25 36.95 -109.2 35.1 -109.65 33.95 -107.95 L34.0 -107.65 Q34.05 -107.15 33.75 -106.8 30.95 -106.4 28.3 -107.25 L18.6 -107.55 18.6 -107.0 18.6 -106.1 19.0 -105.55 19.0 -105.25 19.0 -104.95 19.2 -104.7 21.3 -101.8 Q16.4 -102.55 13.25 -99.7 L13.3 -98.85 Q13.45 -98.15 14.0 -97.9 23.0 -94.05 32.45 -91.45 34.95 -90.75 36.0 -89.6 L35.5 -89.05 35.5 -88.15 35.6 -85.55 Q42.2 -84.55 49.45 -85.65 L57.0 -86.15 Q57.75 -81.9 61.75 -82.85 67.45 -84.15 72.75 -84.4 L72.7 -83.25 Q72.6 -81.3 73.15 -79.5 74.9 -76.8 77.3 -74.65 81.55 -70.85 81.6 -65.4 L80.8 -64.75 Q80.15 -64.05 79.25 -64.0 75.65 -63.75 74.3 -60.7 L74.3 -59.85 74.3 -58.4 74.85 -57.75 Q75.85 -56.05 75.7 -54.05 L75.45 -53.8 71.8 -53.6 Q68.0 -54.75 65.45 -53.2 L65.55 -52.05 Q65.9 -50.1 65.85 -48.0 L64.8 -48.1 Q61.85 -51.65 58.0 -50.1 56.1 -49.3 54.1 -49.05 L49.75 -49.3 Q48.55 -49.6 47.7 -50.8 L47.5 -52.0 Q46.7 -55.2 43.65 -54.25 40.65 -53.35 38.2 -53.0 38.75 -57.6 36.85 -61.55 36.3 -62.6 34.95 -62.45 L27.65 -61.65 27.5 -61.05 Q27.35 -60.05 27.55 -59.05 29.5 -56.5 30.25 -53.4 31.25 -49.25 31.3 -44.95 27.55 -44.5 24.75 -41.85 20.05 -42.35 16.1 -45.35 13.55 -47.3 11.0 -46.6 L10.95 -46.3 10.95 -46.0 10.35 -45.35 Q9.5 -43.9 9.3 -42.25 8.95 -41.75 8.45 -41.6 6.45 -40.95 4.2 -41.1 3.2 -41.15 3.25 -40.25 L3.3 -39.95 3.65 -39.35 3.5 -36.5 Q3.25 -33.15 2.4 -29.85 -1.75 -29.4 -4.25 -32.95 -5.65 -35.0 -7.3 -36.7 L-10.15 -35.05 Q-13.4 -32.6 -17.1 -32.35 -17.25 -34.15 -17.0 -35.85 -16.5 -39.15 -17.1 -42.45 -17.55 -43.15 -18.35 -43.1 -22.45 -43.0 -25.75 -39.95 L-26.7 -40.05 -26.55 -42.9 Q-26.2 -46.35 -26.8 -49.55 L-32.75 -55.9 Q-26.95 -56.25 -21.5 -57.8 L-21.4 -58.1 -20.25 -59.55 -20.15 -60.7 -19.7 -64.15 -19.5 -64.4 Q-19.1 -64.75 -19.0 -65.3 -15.95 -65.95 -13.15 -64.85 -8.15 -62.85 -3.2 -63.85 -2.8 -64.35 -2.85 -65.0 L-2.9 -67.6 Q0.6 -68.0 2.75 -70.4 2.95 -71.1 2.55 -71.6 0.1 -75.05 -4.25 -76.15 L-1.75 -78.95 Q1.35 -81.75 1.25 -85.65 -2.25 -88.55 -6.55 -87.8 L-6.9 -86.95 Q-7.05 -84.8 -5.95 -83.15 L-5.85 -82.35 Q-5.25 -80.75 -5.95 -79.15 -8.55 -79.0 -10.6 -77.85 -14.95 -75.5 -18.75 -71.85 L-19.9 -71.95 Q-20.6 -74.4 -23.15 -76.0 L-29.4 -76.15 Q-28.55 -79.35 -28.5 -82.8 -28.5 -83.65 -29.2 -83.95 -31.5 -85.0 -34.0 -85.3 -34.15 -87.8 -33.9 -90.2 -33.55 -93.5 -33.7 -96.8 L-33.95 -97.05 Q-34.4 -97.4 -34.4 -97.95 L-33.5 -98.7 -25.95 -105.45 -25.95 -105.75 Q-26.85 -109.5 -30.05 -112.05 L-30.15 -112.35 -30.25 -112.95 Q-24.25 -113.85 -19.0 -116.6 L-19.0 -117.15 -19.1 -118.3 -19.35 -118.6 -20.1 -119.45 -20.2 -120.05 -20.55 -121.75 Q-14.4 -121.8 -8.35 -120.45 -8.05 -119.75 -7.3 -119.65 L-6.65 -119.95 -6.4 -120.55 -6.45 -121.4 Q-8.25 -123.9 -10.6 -126.0 L-10.6 -126.3 -10.6 -126.6 -10.95 -127.15 -10.95 -127.45 -10.95 -127.75 -12.95 -130.6 -18.25 -137.5 -18.25 -137.8 -18.15 -138.4 Q-15.2 -139.65 -11.9 -140.0 -11.65 -141.7 -12.0 -143.35 L28.2 -143.15 30.3 -140.85 Q33.1 -138.25 35.9 -139.65 L35.9 -139.9 35.9 -140.5 36.1 -140.75 37.4 -142.5 M23.2 -152.5 L23.4 -152.3 24.75 -150.6 24.75 -150.0 24.75 -149.15 25.15 -148.55 25.15 -148.5 21.5 -148.45 21.6 -148.75 22.35 -149.9 22.4 -150.5 22.45 -151.35 22.75 -151.65 Q23.15 -151.95 23.2 -152.5 M0.65 -153.45 L1.0 -153.8 1.8 -155.2 2.3 -155.45 Q2.85 -155.75 2.95 -156.35 6.9 -154.9 10.4 -151.85 13.65 -149.0 17.45 -148.45 L-13.75 -148.2 Q-14.25 -150.1 -14.4 -152.1 L-10.25 -151.1 -2.35 -150.75 Q0.1 -151.1 0.65 -153.45" fill="#ffff00" fill-opacity="0.5019608" fill-rule="evenodd" stroke="none"/>
  </g>
</svg>
