<?xml version="1.0" encoding="UTF-8" standalone="no"?>
<svg xmlns:ffdec="https://www.free-decompiler.com/flash" xmlns:xlink="http://www.w3.org/1999/xlink" ffdec:objectType="shape" height="121.4px" width="112.05px" xmlns="http://www.w3.org/2000/svg">
  <g transform="matrix(1.0, 0.0, 0.0, 1.0, 37.75, 156.4)">
    <path d="M4.0 -154.65 L4.75 -155.65 5.2 -155.8 5.7 -156.4 Q8.7 -155.05 11.35 -152.5 15.1 -148.9 19.75 -149.2 L20.15 -147.35 20.95 -148.1 22.8 -148.0 22.8 -147.45 Q22.8 -147.05 22.95 -146.7 L23.25 -146.9 23.7 -147.5 23.95 -147.4 26.75 -147.8 27.2 -147.35 27.7 -146.65 28.2 -146.1 28.35 -145.5 28.7 -144.75 30.3 -143.75 Q31.8 -142.65 33.7 -141.85 L34.15 -141.7 Q36.85 -140.45 39.6 -142.2 L39.6 -142.35 39.65 -142.7 39.85 -142.65 41.0 -143.8 41.3 -143.35 41.75 -142.25 Q43.5 -140.55 45.35 -140.45 45.65 -139.9 46.35 -139.75 L47.0 -140.6 47.6 -140.8 Q47.55 -142.05 48.05 -143.25 49.05 -144.5 50.25 -144.8 L51.1 -143.8 51.9 -142.3 51.95 -141.6 52.05 -140.85 Q52.3 -139.45 52.9 -138.65 L42.5 -138.65 18.85 -137.45 Q5.65 -137.5 -7.5 -137.7 L-13.65 -138.05 -15.1 -140.0 -15.15 -140.35 -15.2 -140.95 -13.3 -142.1 -10.2 -143.3 Q-9.25 -144.75 -9.15 -145.75 L-9.1 -146.25 Q-10.15 -148.7 -10.25 -151.45 L-7.1 -150.7 -1.05 -150.5 Q2.0 -151.65 3.7 -154.35 L4.0 -154.65 M19.3 -105.7 L19.4 -104.7 19.8 -104.25 19.85 -103.95 19.85 -103.7 20.05 -103.35 21.5 -101.1 Q17.75 -101.6 15.35 -99.45 L15.4 -99.0 15.4 -98.65 Q15.5 -98.1 15.9 -97.85 22.6 -94.95 29.65 -92.95 L31.0 -92.15 32.35 -90.9 32.15 -90.4 37.75 -88.1 37.75 -86.1 Q42.7 -85.35 48.1 -86.15 L53.75 -86.5 Q54.3 -83.3 57.3 -84.0 61.6 -84.95 65.55 -85.1 L65.55 -84.1 Q65.3 -82.55 65.65 -81.1 66.9 -79.0 68.7 -77.35 71.85 -74.45 71.9 -70.25 L71.2 -68.9 Q72.05 -67.15 73.05 -66.25 L71.55 -65.75 Q69.45 -64.8 68.5 -62.65 L68.1 -61.8 68.05 -61.65 67.3 -59.95 67.45 -58.55 Q70.65 -56.3 73.0 -54.05 L74.3 -53.0 71.55 -52.85 Q68.65 -53.7 66.75 -52.5 66.25 -51.35 65.45 -50.55 L65.65 -47.45 64.85 -47.4 Q62.6 -50.0 59.7 -48.8 59.1 -48.45 58.45 -48.2 L56.75 -47.65 Q55.15 -47.35 53.65 -47.65 53.0 -47.6 52.6 -48.2 L52.35 -49.05 Q51.65 -51.4 49.25 -50.7 L44.85 -49.7 Q44.7 -53.15 42.85 -55.95 42.35 -56.65 41.25 -56.5 L35.3 -55.45 35.2 -54.5 34.8 -52.9 Q34.55 -52.15 34.6 -51.4 35.75 -49.6 36.05 -47.45 36.35 -44.5 36.05 -41.55 33.15 -41.3 30.95 -39.3 26.7 -39.75 23.1 -42.05 20.75 -43.55 18.45 -43.1 L18.15 -43.75 17.5 -45.1 17.5 -45.0 16.95 -44.6 Q16.3 -43.55 16.1 -42.3 L15.4 -41.8 Q12.75 -40.85 9.9 -41.0 L8.9 -40.95 7.75 -42.55 7.85 -42.4 7.95 -42.25 7.75 -40.2 6.2 -35.1 Q2.75 -34.6 0.7 -36.8 L-1.1 -37.0 -3.45 -37.45 -5.75 -36.6 Q-8.4 -35.25 -11.55 -35.35 L-12.75 -38.3 Q-12.45 -40.95 -12.9 -43.6 -13.2 -44.25 -13.85 -44.35 -17.0 -44.4 -19.55 -42.2 -19.85 -42.8 -20.5 -43.2 L-20.55 -45.55 Q-20.55 -48.3 -21.35 -50.8 L-26.85 -55.9 Q-22.45 -56.35 -18.3 -57.7 L-18.2 -58.35 -17.1 -59.8 Q-16.95 -60.5 -17.1 -61.25 -17.35 -63.55 -17.2 -65.8 L-15.15 -66.3 -14.85 -66.7 -14.75 -67.45 -10.45 -67.2 Q-7.7 -66.35 -4.7 -67.95 L-3.85 -69.25 Q-3.55 -69.8 -3.55 -70.35 L-3.9 -72.9 Q-1.65 -73.55 -0.55 -75.45 -0.4 -76.0 -0.65 -76.4 -2.4 -79.1 -5.55 -80.05 L-3.65 -82.35 Q-1.35 -84.6 -1.35 -87.7 -3.75 -90.65 -7.2 -90.85 L-7.95 -90.95 Q-8.4 -89.5 -8.05 -88.1 -8.55 -87.25 -8.5 -86.2 -8.05 -83.8 -9.0 -81.45 L-13.15 -80.6 Q-16.6 -78.9 -19.6 -76.15 L-20.75 -76.1 Q-21.55 -76.8 -22.55 -77.0 L-24.85 -77.35 Q-27.35 -78.35 -30.7 -77.25 -30.15 -79.75 -30.2 -82.4 -30.3 -83.05 -30.9 -83.3 L-36.55 -83.75 Q-36.7 -86.5 -36.35 -89.1 L-36.2 -90.1 Q-35.85 -93.25 -36.05 -96.35 L-36.6 -97.45 -37.75 -98.5 Q-37.1 -99.55 -35.85 -100.15 L-29.6 -105.65 Q-29.4 -106.0 -29.35 -106.45 -29.9 -109.85 -32.6 -112.1 -32.9 -112.55 -33.6 -112.7 L-32.6 -113.45 Q-32.05 -113.9 -32.0 -114.45 -27.4 -115.55 -23.9 -118.2 L-20.95 -118.5 Q-20.8 -118.95 -20.8 -119.45 L-20.8 -119.8 -21.0 -120.2 -21.35 -120.9 Q-20.25 -121.05 -19.4 -121.75 L-19.7 -123.55 Q-15.15 -124.05 -10.9 -123.35 L-10.2 -123.3 -9.95 -124.3 Q-9.15 -124.7 -8.6 -125.3 -8.5 -126.0 -8.75 -126.65 -10.4 -129.25 -12.45 -131.55 L-11.5 -131.7 -11.1 -131.7 -10.65 -131.65 Q-10.4 -131.6 -10.2 -131.85 -10.05 -131.95 -9.85 -132.15 L-9.75 -132.25 -7.5 -132.2 Q4.45 -132.2 16.4 -132.45 L35.35 -132.85 41.7 -132.95 52.8 -133.05 52.45 -132.0 52.05 -129.45 50.8 -128.25 49.75 -127.25 Q48.75 -126.2 48.35 -124.55 L48.2 -118.85 48.25 -118.2 43.75 -117.6 Q42.0 -117.2 41.05 -115.75 L41.0 -112.75 40.9 -107.9 33.95 -108.85 Q32.05 -109.15 30.8 -107.45 L30.85 -107.15 30.6 -106.4 26.45 -106.65 19.25 -106.35 19.3 -105.7" fill="#ffff00" fill-opacity="0.5019608" fill-rule="evenodd" stroke="none"/>
  </g>
</svg>
