<?xml version="1.0" encoding="UTF-8" standalone="no"?>
<svg xmlns:ffdec="https://www.free-decompiler.com/flash" xmlns:xlink="http://www.w3.org/1999/xlink" ffdec:objectType="shape" height="99.1px" width="89.4px" xmlns="http://www.w3.org/2000/svg">
  <g transform="matrix(1.0, 0.0, 0.0, 1.0, 24.05, 143.7)">
    <path d="M38.6 -130.65 Q38.15 -134.1 41.45 -134.65 45.35 -133.2 44.7 -128.55 44.5 -127.1 43.95 -125.75 41.7 -120.0 35.9 -117.4 L33.95 -116.3 Q30.0 -113.5 25.7 -111.8 23.15 -110.75 20.4 -111.25 L5.3 -113.8 Q5.5 -110.75 6.3 -107.75 L7.55 -105.75 7.85 -104.6 Q12.25 -94.0 18.35 -84.05 L18.85 -83.1 Q27.15 -83.35 34.95 -80.8 L36.4 -79.8 Q37.45 -78.45 38.85 -77.45 46.65 -72.0 52.45 -64.45 53.55 -63.05 55.1 -62.05 L55.55 -62.05 Q58.85 -64.25 62.65 -65.25 63.5 -65.5 64.1 -64.85 67.05 -61.7 63.05 -59.3 60.05 -57.45 56.8 -56.25 52.95 -54.75 50.1 -58.15 L46.75 -62.15 Q39.95 -70.15 31.3 -76.2 L18.8 -77.35 Q18.8 -74.65 19.8 -72.15 L23.25 -63.05 Q24.55 -59.5 23.6 -56.2 23.4 -55.35 22.5 -55.05 L21.5 -54.85 -3.55 -54.75 -6.5 -45.65 Q-6.65 -45.05 -7.25 -44.85 -10.8 -43.8 -11.15 -47.3 -11.55 -51.8 -9.5 -55.6 -8.85 -61.0 -3.65 -60.75 L-3.0 -60.7 17.45 -60.7 12.95 -74.2 Q11.8 -77.6 12.9 -80.45 12.6 -81.25 12.75 -82.0 L11.3 -84.25 Q6.3 -92.25 3.15 -101.05 L2.35 -102.25 Q2.1 -102.75 2.0 -103.35 0.0 -107.15 -0.65 -111.35 L-1.25 -111.2 Q-7.3 -109.9 -12.8 -107.2 -14.35 -101.0 -16.25 -94.9 -17.1 -92.25 -17.2 -89.6 -17.25 -87.95 -18.2 -86.6 -20.45 -83.35 -23.2 -86.1 -24.3 -87.15 -24.0 -88.75 -23.05 -93.7 -21.3 -98.65 L-20.7 -100.85 -20.25 -101.7 Q-19.6 -106.9 -17.1 -111.35 -16.4 -112.55 -15.05 -113.0 L-0.9 -117.75 -0.85 -118.65 -0.4 -123.85 -1.05 -123.85 -2.05 -124.4 -1.95 -125.25 -2.0 -125.25 -1.95 -125.35 -2.55 -126.35 -3.15 -127.6 -3.3 -128.1 Q-3.9 -129.9 -3.9 -131.9 -3.9 -136.8 -0.45 -140.25 3.0 -143.7 7.9 -143.7 L10.1 -143.5 Q13.0 -143.0 15.35 -141.05 L16.25 -140.25 Q19.7 -136.8 19.7 -131.9 19.7 -127.0 16.25 -123.55 13.6 -120.9 10.1 -120.25 L8.6 -120.7 7.5 -120.55 6.9 -121.05 5.55 -121.75 5.5 -121.55 5.3 -119.55 10.95 -118.85 Q17.4 -117.75 23.9 -117.55 25.05 -117.5 26.05 -118.15 31.9 -121.85 37.0 -126.3 38.95 -128.0 38.6 -130.65" fill="#000000" fill-rule="evenodd" stroke="none"/>
  </g>
</svg>
