<?xml version="1.0" encoding="UTF-8" standalone="no"?>
<svg xmlns:ffdec="https://www.free-decompiler.com/flash" xmlns:xlink="http://www.w3.org/1999/xlink" ffdec:objectType="shape" height="119.75px" width="114.25px" xmlns="http://www.w3.org/2000/svg">
  <g transform="matrix(1.0, 0.0, 0.0, 1.0, 41.1, 156.5)">
    <path d="M6.75 -155.25 L7.05 -155.45 7.7 -156.15 8.05 -156.15 8.5 -156.5 Q10.5 -155.2 12.3 -153.15 14.85 -150.2 18.0 -149.9 L18.7 -145.9 19.55 -146.3 23.2 -145.55 23.15 -144.1 Q23.1 -143.05 23.45 -142.05 L23.8 -142.1 24.2 -142.5 24.45 -142.45 Q26.85 -143.6 28.8 -145.0 L29.6 -144.65 30.7 -144.1 31.2 -143.65 31.55 -143.05 32.25 -142.3 33.95 -142.05 37.55 -142.45 38.0 -142.5 Q40.6 -142.7 43.35 -144.75 L43.35 -144.8 43.35 -144.9 43.6 -144.6 44.6 -145.1 44.85 -144.45 45.2 -143.0 Q46.45 -141.65 47.8 -141.4 48.35 -140.1 49.6 -139.7 L50.1 -140.15 Q50.7 -139.85 51.25 -139.7 51.25 -140.5 51.65 -141.15 52.4 -141.85 53.25 -141.95 L53.85 -141.05 54.35 -139.7 54.15 -138.9 53.85 -138.1 Q52.85 -135.2 53.2 -133.8 L53.2 -133.4 53.15 -133.0 53.25 -132.55 52.8 -132.0 52.8 -131.7 52.8 -131.65 52.8 -131.25 52.55 -130.05 -10.75 -130.25 Q-10.75 -131.1 -11.05 -131.9 L-14.25 -137.15 -12.35 -137.1 -11.6 -137.0 -10.65 -136.7 -9.5 -136.5 Q-9.1 -136.6 -8.75 -136.85 L-8.25 -137.35 -9.25 -138.8 -11.95 -142.5 -12.0 -142.95 -12.25 -143.5 -10.95 -144.95 Q-9.95 -145.95 -8.55 -146.6 -6.95 -147.35 -6.0 -147.35 L-5.55 -147.4 Q-6.15 -149.0 -6.1 -150.8 L-3.95 -150.3 0.2 -150.2 Q3.95 -152.15 6.75 -155.25 M20.05 -104.4 L20.2 -103.3 20.55 -102.9 20.65 -102.65 20.7 -102.45 20.9 -102.05 21.7 -100.4 Q19.15 -100.7 17.5 -99.15 L17.5 -98.8 17.5 -98.45 Q17.55 -98.0 17.75 -97.8 22.2 -95.8 26.9 -94.45 L27.75 -93.55 28.65 -92.25 28.8 -91.75 40.0 -88.1 39.9 -86.65 Q43.15 -86.1 46.75 -86.6 L50.5 -86.8 Q50.85 -84.65 52.85 -85.1 L58.35 -85.8 58.4 -84.9 Q58.05 -83.8 58.15 -82.7 58.95 -81.25 60.1 -80.05 62.15 -78.0 62.15 -75.1 L61.6 -73.1 Q64.0 -70.25 66.85 -68.55 L65.5 -67.75 Q63.6 -66.65 62.7 -64.55 L61.9 -63.65 61.75 -63.5 60.35 -61.55 Q59.95 -60.6 60.05 -59.35 L70.3 -54.0 Q72.15 -53.35 73.15 -52.25 L71.25 -52.1 Q69.35 -52.6 68.0 -51.8 67.0 -50.05 65.3 -49.05 L65.45 -46.9 64.9 -46.65 Q63.35 -48.35 61.35 -47.5 L60.55 -46.9 59.4 -46.25 57.55 -46.0 57.45 -45.55 57.25 -46.1 Q56.6 -47.65 54.8 -47.1 L51.55 -46.4 Q50.7 -48.7 48.9 -50.3 48.4 -50.75 47.55 -50.55 L42.9 -49.2 42.8 -47.55 Q42.65 -46.05 42.05 -44.75 L41.65 -43.75 Q42.05 -42.7 41.8 -41.45 L40.75 -38.2 Q38.75 -38.05 37.2 -36.75 33.35 -37.15 30.1 -38.75 27.95 -39.85 25.9 -39.55 L25.3 -41.0 24.0 -43.9 24.0 -44.0 23.6 -43.8 Q23.05 -43.15 22.9 -42.35 L22.35 -42.05 Q19.05 -40.8 15.6 -40.95 L14.5 -41.65 Q13.6 -43.5 12.3 -44.95 L11.95 -43.85 9.95 -40.35 5.65 -40.65 3.5 -39.05 Q2.15 -38.2 0.4 -38.2 L-1.3 -38.15 -6.0 -38.35 Q-7.05 -39.95 -8.5 -40.75 -8.4 -42.7 -8.7 -44.75 -8.9 -45.4 -9.4 -45.6 -11.5 -45.8 -13.35 -44.5 -13.5 -45.6 -14.25 -46.35 L-14.6 -48.15 Q-14.85 -50.25 -15.9 -52.0 L-20.95 -55.95 Q-17.95 -56.45 -15.15 -57.55 -14.95 -58.05 -15.0 -58.6 L-14.0 -60.05 Q-13.85 -60.9 -14.0 -61.75 L-14.75 -67.4 -10.75 -68.15 -10.45 -68.75 -10.45 -69.6 -7.75 -69.5 Q-7.25 -69.85 -6.15 -72.05 L-4.75 -74.05 Q-4.2 -74.85 -4.25 -75.65 -4.3 -76.95 -4.85 -78.15 -3.9 -79.15 -3.85 -80.5 -3.7 -80.95 -3.85 -81.25 -4.85 -83.2 -6.85 -83.95 L-5.6 -85.7 Q-4.0 -87.45 -3.95 -89.75 -5.2 -92.75 -7.8 -93.95 -8.3 -94.85 -9.0 -94.95 -9.7 -94.25 -10.15 -93.05 -11.1 -91.75 -11.1 -90.1 -10.85 -86.85 -12.1 -83.75 L-15.75 -83.35 Q-18.2 -82.3 -20.4 -80.45 L-21.6 -80.3 Q-22.85 -80.35 -23.9 -79.65 -24.95 -78.85 -26.55 -78.65 L-32.0 -78.35 Q-31.75 -80.15 -31.9 -81.95 -32.1 -82.45 -32.65 -82.6 L-39.1 -82.2 Q-39.25 -85.15 -38.8 -88.05 L-38.65 -89.15 Q-38.1 -92.5 -38.4 -95.85 -38.6 -97.1 -39.25 -97.8 -40.05 -98.65 -41.1 -99.1 -40.2 -100.75 -38.2 -101.65 L-33.3 -105.85 Q-32.85 -106.4 -32.75 -107.15 -32.95 -110.25 -35.15 -112.15 -35.7 -112.9 -37.05 -113.05 L-35.1 -114.25 Q-33.9 -114.95 -33.75 -115.95 -30.55 -117.25 -28.8 -119.75 L-22.95 -119.9 -22.5 -120.55 -22.25 -121.05 -22.4 -121.5 -22.6 -122.35 Q-20.4 -122.4 -18.65 -123.5 L-18.85 -125.3 Q17.05 -125.0 52.9 -124.85 51.9 -123.95 50.75 -123.65 49.75 -123.4 48.8 -122.8 47.0 -121.7 45.95 -119.55 44.95 -117.45 43.9 -116.15 L43.75 -115.8 40.65 -115.35 Q38.65 -114.5 37.4 -112.65 L37.25 -110.65 36.9 -107.5 30.9 -108.5 Q29.05 -108.65 27.65 -106.95 L27.65 -106.7 27.5 -105.95 24.6 -106.05 Q22.0 -106.3 19.85 -105.15 L20.05 -104.4" fill="#ffff00" fill-opacity="0.5019608" fill-rule="evenodd" stroke="none"/>
  </g>
</svg>
