<?xml version="1.0" encoding="UTF-8" standalone="no"?>
<svg xmlns:ffdec="https://www.free-decompiler.com/flash" xmlns:xlink="http://www.w3.org/1999/xlink" ffdec:objectType="shape" height="92.55px" width="96.0px" xmlns="http://www.w3.org/2000/svg">
  <g transform="matrix(1.0, 0.0, 0.0, 1.0, 28.8, 143.25)">
    <path d="M37.8 -128.8 L37.9 -129.4 38.2 -130.25 38.5 -130.55 Q38.2 -132.95 39.95 -134.4 40.65 -135.0 41.45 -135.05 46.85 -134.55 44.85 -129.4 L44.15 -127.85 Q41.2 -121.65 35.8 -117.35 L35.4 -117.05 Q31.6 -114.3 28.45 -110.95 28.0 -110.45 27.25 -110.45 16.2 -109.95 5.6 -112.5 L5.4 -112.55 6.0 -108.7 6.3 -107.2 Q6.85 -105.0 7.55 -102.9 8.35 -102.15 8.55 -101.15 L8.6 -100.0 Q9.8 -98.6 10.05 -96.8 L10.15 -95.65 12.7 -89.6 12.95 -88.75 Q15.0 -86.25 16.0 -83.5 26.8 -81.8 36.8 -77.0 42.5 -74.25 45.85 -68.85 L53.45 -56.6 65.05 -56.3 Q66.7 -56.2 67.05 -54.65 67.8 -51.55 64.45 -51.2 57.5 -50.45 50.6 -51.2 49.8 -51.3 49.35 -52.05 43.65 -60.9 37.05 -69.05 35.8 -70.55 33.95 -71.5 27.9 -74.45 21.25 -76.15 25.8 -69.6 31.1 -63.55 31.75 -62.8 31.55 -61.8 30.9 -58.75 27.6 -58.55 L17.05 -58.25 Q9.15 -58.2 1.5 -59.55 L1.35 -59.25 1.15 -59.0 0.95 -58.7 Q-0.6 -54.25 -3.8 -50.95 -4.1 -50.65 -4.6 -50.7 -8.2 -51.3 -7.35 -54.85 -6.7 -57.45 -4.9 -59.45 -4.25 -63.6 -0.85 -65.55 L0.95 -65.85 Q11.9 -63.65 23.2 -64.15 17.3 -70.5 12.5 -77.65 11.3 -78.35 10.55 -80.15 10.15 -81.0 10.05 -81.95 6.35 -88.1 4.45 -94.9 L4.4 -95.2 Q3.2 -96.4 2.95 -98.05 L2.75 -99.25 Q-0.5 -105.15 -0.85 -111.9 L-0.85 -112.25 Q-11.15 -109.95 -18.25 -102.15 -20.45 -99.7 -21.7 -96.6 L-22.1 -95.95 Q-21.05 -90.5 -25.85 -88.9 L-26.85 -89.05 Q-29.3 -90.65 -28.7 -93.75 -27.0 -103.05 -19.8 -109.7 -16.4 -112.85 -11.85 -114.8 -6.65 -117.0 -1.25 -118.0 L-1.65 -122.55 -1.65 -123.4 -2.35 -123.4 -3.35 -123.95 -3.25 -124.8 -3.3 -124.8 -3.25 -124.9 -3.85 -125.9 -4.45 -127.15 -4.6 -127.65 Q-5.2 -129.45 -5.2 -131.45 -5.2 -136.35 -1.75 -139.8 1.7 -143.25 6.6 -143.25 L8.8 -143.05 Q11.7 -142.55 14.05 -140.6 L14.95 -139.8 Q18.4 -136.35 18.4 -131.45 18.4 -126.55 14.95 -123.1 12.3 -120.45 8.8 -119.8 L7.3 -120.25 6.2 -120.1 5.6 -120.6 4.6 -120.7 4.6 -118.5 13.75 -117.1 Q19.35 -115.95 25.15 -116.4 30.85 -120.65 35.45 -125.85 L37.8 -128.8" fill="#000000" fill-rule="evenodd" stroke="none"/>
  </g>
</svg>
