<?xml version="1.0" encoding="UTF-8" standalone="no"?>
<svg xmlns:ffdec="https://www.free-decompiler.com/flash" xmlns:xlink="http://www.w3.org/1999/xlink" ffdec:objectType="shape" height="122.4px" width="116.4px" xmlns="http://www.w3.org/2000/svg">
  <g transform="matrix(1.0, 0.0, 0.0, 1.0, 44.45, 156.6)">
    <path d="M9.8 -156.2 L10.05 -156.3 10.65 -156.6 10.95 -156.55 11.25 -156.55 13.25 -153.8 Q14.6 -151.55 16.25 -150.65 L17.2 -144.5 18.1 -144.5 Q21.05 -144.05 23.6 -143.05 L23.55 -140.8 Q23.45 -139.0 23.95 -137.45 L24.3 -137.35 24.65 -137.55 25.0 -137.55 Q28.15 -139.6 30.8 -142.25 L32.05 -142.0 33.65 -141.6 34.25 -141.2 34.7 -140.55 Q35.25 -140.0 35.75 -139.9 36.8 -139.7 37.65 -140.3 L41.35 -143.0 41.85 -143.35 Q44.35 -144.9 47.05 -147.35 L47.05 -147.25 47.1 -147.15 Q47.05 -146.8 47.3 -146.5 L48.15 -146.45 48.45 -145.6 48.6 -143.7 Q49.45 -142.75 50.2 -142.3 51.0 -140.35 52.9 -139.6 L53.25 -139.75 54.9 -138.65 55.25 -139.1 56.3 -139.05 56.6 -138.35 56.75 -137.05 56.3 -136.25 55.7 -135.4 Q53.15 -132.55 51.65 -130.1 L51.65 -129.6 51.65 -129.15 51.8 -128.7 51.6 -128.3 51.6 -128.0 51.6 -127.95 51.6 -127.55 52.1 -126.2 Q52.15 -125.1 52.55 -124.15 L53.7 -120.3 Q52.35 -119.25 50.7 -119.1 L47.9 -118.35 47.0 -117.9 33.9 -118.85 8.6 -120.1 -16.55 -121.0 -24.4 -121.5 -24.25 -121.7 Q-23.9 -121.9 -23.7 -122.25 L-23.75 -122.8 -23.9 -123.8 Q-20.5 -123.7 -17.85 -125.2 L-18.05 -127.2 -16.05 -129.2 Q-15.95 -129.85 -16.0 -130.55 L-16.5 -133.0 Q-14.45 -133.6 -13.0 -134.85 -12.95 -136.1 -13.4 -137.2 L-16.1 -142.7 -13.25 -142.55 -12.15 -142.35 Q-11.35 -142.15 -10.7 -141.75 -9.65 -141.1 -8.75 -141.2 L-7.7 -141.55 -6.95 -142.15 -7.45 -142.95 -8.8 -145.0 -8.9 -145.5 -9.3 -146.1 -8.6 -147.8 Q-8.05 -149.0 -6.85 -149.95 -4.65 -149.9 -2.85 -148.9 L-2.05 -148.55 -2.0 -150.2 -0.8 -149.95 Q0.35 -149.75 1.5 -149.95 5.85 -152.7 9.8 -156.2 M37.5 -113.1 Q35.25 -111.85 33.75 -109.5 L33.45 -108.6 32.9 -107.15 Q30.3 -108.1 27.9 -108.2 26.0 -108.15 24.45 -106.5 L24.5 -106.2 24.35 -105.55 22.75 -105.45 Q21.4 -105.05 20.5 -104.0 L20.75 -103.15 20.95 -101.95 21.35 -101.6 21.5 -101.4 21.55 -101.2 21.7 -100.7 21.9 -99.75 Q20.5 -99.75 19.6 -98.9 L19.6 -98.55 19.6 -98.25 Q19.55 -97.95 19.65 -97.8 21.8 -96.7 24.1 -96.0 L24.55 -94.9 25.0 -93.55 25.45 -93.1 42.2 -88.05 42.0 -87.2 45.4 -87.1 47.2 -87.15 Q47.4 -86.05 48.4 -86.25 L51.15 -86.5 51.2 -85.75 Q50.75 -85.1 50.6 -84.3 L51.45 -82.8 Q52.45 -81.6 52.45 -80.0 52.1 -78.65 52.0 -77.25 55.9 -73.4 60.6 -70.8 L59.4 -69.8 Q57.75 -68.45 56.85 -66.5 L55.7 -65.5 55.5 -65.3 Q54.1 -64.35 53.35 -63.1 52.65 -61.85 52.6 -60.2 60.2 -56.85 67.6 -54.0 70.45 -53.1 71.95 -51.45 L71.0 -51.35 69.3 -51.1 Q67.8 -48.75 65.2 -47.6 L65.25 -46.35 64.9 -45.95 Q64.1 -46.75 63.05 -46.25 L62.6 -45.65 62.05 -44.9 61.45 -44.4 62.35 -42.95 62.1 -43.2 Q61.5 -43.85 60.4 -43.55 L58.2 -43.15 Q56.65 -44.3 54.9 -44.7 L53.85 -44.6 Q52.05 -43.95 50.55 -43.0 L50.4 -40.6 Q50.15 -38.5 49.35 -36.6 L48.7 -36.15 47.6 -35.5 45.5 -34.8 Q44.3 -34.85 43.4 -34.2 39.95 -34.55 37.05 -35.5 L33.35 -36.05 Q32.8 -37.15 32.4 -38.3 L30.55 -42.7 30.55 -42.85 30.55 -43.05 30.2 -43.05 29.65 -42.45 29.25 -42.25 Q25.35 -40.7 21.25 -40.85 L20.15 -42.4 Q18.7 -45.35 16.6 -47.7 L16.6 -47.85 16.6 -48.0 16.2 -47.55 Q14.85 -47.0 13.75 -45.65 L10.6 -44.55 Q9.55 -42.7 8.1 -41.15 6.45 -39.4 4.2 -39.0 L3.1 -39.7 Q1.6 -40.6 -0.45 -41.35 -2.0 -42.9 -4.25 -43.25 L-4.5 -45.9 Q-4.55 -46.5 -4.9 -46.9 L-7.2 -46.75 Q-7.2 -48.45 -8.05 -49.5 L-8.6 -50.8 Q-9.2 -52.2 -10.5 -53.25 L-15.05 -55.95 Q-13.45 -56.6 -11.95 -57.45 -11.75 -58.15 -11.85 -58.9 -11.15 -59.5 -10.85 -60.35 -10.7 -61.35 -10.95 -62.3 L-12.25 -69.05 -6.4 -70.05 Q-6.1 -70.35 -6.1 -70.75 L-6.2 -71.8 -5.05 -71.85 Q-6.8 -73.35 -7.65 -76.2 L-5.7 -78.85 Q-4.9 -79.95 -4.95 -81.0 -5.0 -82.25 -5.85 -83.45 -6.15 -84.7 -7.2 -85.6 -7.05 -85.85 -7.05 -86.05 -7.35 -87.25 -8.2 -87.9 L-7.5 -89.1 Q-6.7 -90.35 -6.6 -91.85 -6.7 -94.9 -8.45 -97.0 -9.0 -98.55 -10.05 -99.0 -11.05 -98.95 -12.3 -98.0 -13.7 -96.25 -13.75 -93.95 -13.7 -89.9 -15.15 -86.05 L-18.3 -86.1 Q-19.85 -85.7 -21.25 -84.75 L-22.45 -84.45 Q-24.2 -83.95 -25.3 -82.35 -26.5 -80.65 -28.3 -80.0 L-33.35 -79.45 Q-33.35 -80.55 -33.65 -81.55 -33.9 -81.9 -34.35 -81.95 -38.2 -82.25 -41.7 -80.7 -41.8 -83.85 -41.3 -86.95 L-41.05 -88.15 Q-40.4 -91.8 -40.8 -95.4 -41.0 -97.15 -41.95 -98.2 -42.9 -99.25 -44.45 -99.65 -43.35 -101.95 -40.6 -103.1 -38.55 -104.45 -36.95 -106.05 -36.35 -106.8 -36.15 -107.85 -36.05 -110.6 -37.7 -112.25 -38.55 -113.25 -40.55 -113.45 L-37.55 -115.05 Q-36.05 -115.85 -35.65 -116.95 L-28.45 -116.2 -6.1 -115.05 18.6 -114.2 37.8 -113.1 37.5 -113.1" fill="#ffff00" fill-opacity="0.5019608" fill-rule="evenodd" stroke="none"/>
  </g>
</svg>
