<?xml version="1.0" encoding="UTF-8" standalone="no"?>
<svg xmlns:ffdec="https://www.free-decompiler.com/flash" xmlns:xlink="http://www.w3.org/1999/xlink" ffdec:objectType="shape" height="95.7px" width="96.3px" xmlns="http://www.w3.org/2000/svg">
  <g transform="matrix(1.0, 0.0, 0.0, 1.0, 33.25, 143.3)">
    <path d="M38.2 -127.45 L38.2 -128.3 38.2 -128.9 Q36.25 -131.9 39.15 -133.8 L40.3 -134.3 Q44.75 -133.55 44.65 -128.5 44.6 -126.4 43.6 -124.6 42.25 -122.1 40.1 -120.05 34.25 -114.5 26.7 -111.9 23.9 -110.9 20.7 -110.95 15.2 -111.05 9.75 -112.2 L4.4 -112.7 2.95 -112.85 Q3.4 -110.55 4.5 -108.4 6.7 -104.05 7.85 -99.25 L8.8 -97.8 9.0 -96.65 9.9 -94.85 10.25 -93.75 Q11.05 -92.9 11.25 -91.7 L11.4 -90.6 12.3 -89.1 12.45 -88.0 Q13.35 -85.5 15.05 -83.5 L15.35 -83.55 Q26.05 -80.6 36.3 -76.5 42.8 -73.9 44.35 -67.25 45.7 -65.1 46.7 -62.6 47.4 -60.9 46.65 -59.2 L47.7 -56.0 Q48.1 -54.55 48.95 -53.4 L61.85 -52.7 Q62.75 -52.55 62.95 -51.6 63.6 -48.85 60.75 -48.3 L56.55 -47.7 55.85 -47.65 Q51.55 -47.5 47.25 -47.85 44.9 -48.0 43.8 -50.15 41.0 -55.45 40.6 -61.3 39.2 -64.7 37.3 -67.8 35.95 -70.1 33.3 -71.05 L33.0 -71.3 24.5 -74.45 31.95 -65.95 32.75 -64.45 Q33.4 -62.35 31.9 -60.65 31.35 -60.0 30.5 -59.95 20.25 -59.25 10.2 -60.9 L7.0 -61.1 5.6 -57.7 4.3 -55.6 Q4.55 -51.05 0.0 -52.3 -1.55 -52.75 -1.6 -54.3 -1.7 -58.1 0.35 -61.35 1.0 -62.4 1.25 -63.55 1.6 -65.05 2.5 -66.3 4.1 -68.45 6.65 -67.8 L10.7 -66.9 Q17.3 -65.7 24.0 -65.7 18.65 -71.95 12.5 -77.5 L12.1 -78.2 11.95 -78.3 Q9.55 -79.95 8.2 -82.6 7.1 -84.75 6.7 -87.05 2.8 -95.35 0.15 -104.05 -2.1 -108.35 -2.95 -113.0 L-10.45 -112.05 -12.8 -111.8 Q-17.2 -106.95 -22.35 -102.95 -25.5 -100.45 -26.4 -97.05 -26.7 -96.0 -27.4 -95.2 -30.3 -91.95 -32.85 -95.45 -33.35 -96.1 -33.2 -97.0 -32.35 -102.45 -27.9 -106.15 -22.9 -110.3 -18.4 -114.8 L-16.1 -116.75 Q-14.3 -118.05 -11.9 -118.2 L-3.4 -119.25 -3.25 -121.95 -3.0 -123.45 -3.35 -123.45 -4.35 -124.0 -4.25 -124.85 -4.3 -124.85 -4.25 -124.95 -4.85 -125.95 -5.45 -127.2 -5.6 -127.7 Q-6.2 -129.5 -6.2 -131.5 -6.2 -136.4 -2.75 -139.85 0.7 -143.3 5.6 -143.3 L7.8 -143.1 Q10.7 -142.6 13.05 -140.65 L13.95 -139.85 Q17.4 -136.4 17.4 -131.5 17.4 -126.6 13.95 -123.15 11.3 -120.5 7.8 -119.85 L6.5 -120.25 5.35 -120.0 2.8 -119.9 2.65 -118.95 5.3 -119.05 11.1 -118.4 14.1 -117.9 17.0 -117.25 26.55 -117.55 Q27.25 -117.7 27.8 -118.1 33.6 -121.8 38.2 -126.9 L38.2 -127.45" fill="#000000" fill-rule="evenodd" stroke="none"/>
  </g>
</svg>
