<?xml version="1.0" encoding="UTF-8" standalone="no"?>
<svg xmlns:ffdec="https://www.free-decompiler.com/flash" xmlns:xlink="http://www.w3.org/1999/xlink" ffdec:objectType="shape" height="128.7px" width="118.6px" xmlns="http://www.w3.org/2000/svg">
  <g transform="matrix(1.0, 0.0, 0.0, 1.0, 47.8, 157.15)">
    <path d="M-47.8 -100.25 Q-46.95 -102.15 -45.15 -103.4 L-12.9 -103.3 -14.4 -102.95 Q-16.3 -100.75 -16.4 -97.85 -16.5 -92.95 -18.25 -88.35 L-20.9 -88.85 -23.3 -88.65 Q-25.5 -87.5 -26.7 -85.05 -29.25 -79.8 -34.65 -80.55 -35.25 -81.3 -36.1 -81.3 -40.45 -81.35 -44.25 -79.15 -44.35 -83.2 -43.5 -87.2 -42.7 -91.1 -43.15 -94.95 -43.65 -99.55 -47.8 -100.25 M21.05 -103.0 L21.1 -102.8 21.75 -100.55 22.1 -100.3 Q22.55 -100.0 22.55 -99.4 L22.1 -99.05 21.7 -98.65 21.7 -98.35 21.7 -98.05 21.5 -97.75 21.3 -97.5 21.3 -96.3 21.3 -94.9 22.1 -94.45 44.45 -88.05 44.15 -87.75 43.95 -87.5 43.95 -87.2 44.05 -86.6 Q42.9 -86.05 42.7 -84.85 42.4 -83.15 42.4 -81.45 47.8 -76.5 54.4 -73.1 L53.35 -71.85 Q51.9 -70.3 51.05 -68.45 L49.5 -67.35 Q45.4 -65.15 45.2 -61.0 54.95 -57.15 64.9 -54.0 68.7 -52.85 70.8 -50.7 L70.55 -50.4 Q68.55 -47.45 65.05 -46.1 L65.05 -45.8 64.95 -45.25 64.7 -44.95 64.7 -44.35 64.7 -43.5 65.35 -42.75 67.2 -40.35 64.85 -39.85 Q60.4 -39.85 58.15 -36.8 L58.0 -33.65 Q57.7 -30.9 56.6 -28.45 L55.75 -28.5 Q52.8 -29.6 50.2 -31.45 L49.6 -31.65 40.8 -32.55 39.55 -35.55 Q38.5 -38.7 37.05 -41.5 L37.05 -41.75 37.05 -42.05 36.8 -42.3 Q36.45 -42.6 36.2 -42.5 31.65 -40.65 26.95 -40.8 L25.75 -43.1 Q23.85 -47.1 21.0 -50.3 L20.95 -50.6 20.9 -50.9 20.4 -51.25 Q17.05 -51.95 15.55 -48.4 14.4 -45.6 12.7 -43.25 10.75 -40.6 8.05 -39.75 6.2 -45.9 0.0 -45.7 -0.35 -46.3 -0.3 -47.05 -0.2 -48.2 -1.0 -49.05 -0.65 -53.45 -5.05 -54.5 -7.7 -55.15 -9.15 -56.0 L-8.8 -57.35 Q-8.5 -58.2 -8.65 -59.15 -7.9 -59.7 -7.75 -60.6 -7.6 -61.75 -7.9 -62.85 L-9.8 -70.7 -2.05 -71.95 Q-1.7 -72.3 -1.7 -72.8 L-1.95 -73.95 -2.35 -74.2 Q-6.35 -76.85 -9.15 -80.3 L-6.65 -83.65 Q-4.5 -86.45 -6.85 -88.75 -8.4 -90.3 -10.5 -90.65 L-10.25 -90.9 -9.5 -91.8 -9.2 -93.9 Q-8.2 -97.0 -9.1 -100.1 -10.0 -103.1 -12.15 -103.3 L11.45 -103.1 21.05 -103.0 M50.75 -149.9 L50.8 -149.35 Q50.75 -148.85 51.05 -148.45 52.0 -147.85 52.0 -146.75 L52.0 -144.45 52.65 -143.25 Q53.65 -140.55 56.15 -139.55 L56.35 -139.35 58.55 -137.6 58.85 -137.05 59.3 -136.2 59.35 -135.6 59.2 -134.45 58.5 -133.55 57.5 -132.7 Q53.45 -129.85 50.1 -126.4 L50.1 -125.8 50.1 -125.25 50.35 -124.9 50.45 -124.65 50.45 -124.35 50.45 -123.8 51.7 -122.65 Q51.9 -121.35 52.6 -120.25 53.9 -118.15 54.5 -115.7 52.8 -114.5 50.65 -114.5 48.75 -114.5 46.95 -113.9 43.4 -112.75 41.15 -109.5 38.1 -109.4 35.3 -110.85 34.8 -111.1 34.4 -110.85 32.75 -109.75 31.45 -108.2 L29.35 -108.25 10.1 -108.5 -39.45 -109.2 Q-39.05 -113.45 -44.0 -113.8 L-40.05 -115.85 Q-35.15 -118.45 -38.6 -122.95 L-26.9 -122.65 Q-25.8 -122.6 -25.15 -123.5 L-25.15 -124.1 -25.15 -125.25 Q-20.65 -125.05 -17.1 -126.95 L-17.2 -129.0 Q-17.45 -130.8 -18.65 -132.15 -18.6 -133.2 -18.9 -134.2 L-19.8 -137.35 Q-17.1 -138.05 -15.2 -139.65 -15.15 -141.15 -15.7 -142.45 L-17.95 -148.3 -12.65 -147.65 Q-11.6 -147.4 -10.75 -146.8 -7.85 -144.85 -5.6 -146.95 L-5.65 -147.5 -5.8 -148.1 -6.35 -148.65 -6.25 -150.65 Q-6.1 -152.1 -5.2 -153.25 -2.35 -152.5 0.3 -150.5 L1.5 -149.7 Q2.2 -149.35 2.75 -149.7 7.75 -153.25 12.85 -157.1 L13.05 -157.15 13.6 -157.1 13.8 -156.9 14.0 -156.65 14.5 -151.4 Q15.0 -147.2 15.75 -143.1 16.2 -142.8 16.7 -142.7 20.6 -142.0 24.0 -140.6 L23.9 -137.45 Q23.75 -135.0 24.45 -132.8 L24.8 -132.6 25.5 -132.65 Q29.45 -135.6 32.8 -139.45 L36.6 -139.1 37.25 -138.75 Q39.4 -136.25 41.3 -138.6 L45.2 -143.6 Q47.8 -146.85 50.75 -149.9" fill="#ffff00" fill-opacity="0.5019608" fill-rule="evenodd" stroke="none"/>
  </g>
</svg>
