<?xml version="1.0" encoding="UTF-8" standalone="no"?>
<svg xmlns:ffdec="https://www.free-decompiler.com/flash" xmlns:xlink="http://www.w3.org/1999/xlink" ffdec:objectType="shape" height="100.45px" width="91.95px" xmlns="http://www.w3.org/2000/svg">
  <g transform="matrix(1.0, 0.0, 0.0, 1.0, 36.3, 143.15)">
    <path d="M40.3 -131.2 Q41.2 -131.95 42.2 -131.95 46.75 -130.9 45.4 -126.1 L44.05 -122.0 Q43.7 -121.1 42.95 -120.5 36.2 -115.35 27.55 -114.75 15.8 -114.0 4.0 -114.1 L3.9 -113.9 3.15 -112.95 3.65 -111.0 Q4.5 -110.05 4.7 -108.7 L4.8 -107.55 Q8.45 -98.7 12.85 -90.15 14.5 -86.8 16.95 -83.95 27.6 -81.7 37.75 -77.5 41.3 -76.05 40.8 -72.0 40.45 -69.35 41.35 -66.75 L41.75 -65.4 Q43.7 -58.7 43.95 -51.6 L44.55 -50.45 44.9 -49.0 45.0 -48.7 Q48.55 -47.85 53.55 -47.85 54.75 -47.85 55.25 -46.7 56.7 -43.3 52.9 -43.0 47.3 -42.5 41.65 -42.85 39.85 -43.0 39.5 -44.8 38.6 -49.8 37.85 -54.85 L36.65 -61.7 36.35 -61.7 Q25.45 -60.85 14.8 -63.15 L9.4 -63.95 Q9.25 -60.05 9.7 -56.45 9.75 -55.9 9.25 -55.5 5.9 -52.95 4.3 -56.8 3.4 -58.9 3.5 -61.3 3.65 -64.75 3.95 -68.15 4.2 -71.1 7.25 -70.75 L10.15 -70.15 Q20.1 -67.25 30.4 -67.6 21.55 -72.6 13.4 -78.65 L13.05 -79.05 12.15 -79.9 Q5.6 -87.7 2.75 -97.65 L1.55 -99.75 1.35 -100.55 Q0.4 -101.4 0.3 -102.6 L0.1 -103.75 Q-1.1 -104.8 -1.0 -106.3 L-1.0 -107.45 Q-2.15 -109.75 -2.85 -112.25 L-17.2 -111.4 Q-20.9 -108.45 -24.0 -104.9 L-24.75 -104.1 Q-26.35 -102.35 -27.55 -100.4 -28.0 -99.65 -28.6 -99.0 -28.15 -94.4 -32.7 -93.85 -33.95 -93.7 -34.85 -94.6 -37.25 -96.9 -35.7 -100.05 L-34.4 -102.0 -27.35 -109.95 -24.6 -112.55 Q-23.0 -114.95 -20.45 -116.75 -19.6 -117.35 -18.45 -117.4 L-3.9 -118.1 -4.4 -123.6 -4.4 -124.6 -4.5 -124.7 -4.8 -124.7 -4.75 -124.8 -4.95 -125.15 -5.2 -125.55 Q-6.7 -128.15 -6.7 -131.35 -6.7 -136.25 -3.25 -139.7 0.2 -143.15 5.1 -143.15 10.0 -143.15 13.45 -139.7 16.9 -136.25 16.9 -131.35 16.9 -126.45 13.45 -123.0 10.8 -120.35 7.3 -119.7 L5.8 -120.15 4.7 -120.0 4.1 -120.5 2.15 -121.5 1.7 -121.65 Q1.65 -121.1 1.75 -120.5 L1.9 -119.4 26.75 -120.1 29.7 -120.4 Q34.45 -121.3 38.1 -124.3 39.45 -127.3 39.95 -130.6 L40.3 -131.2 M34.75 -72.15 Q32.85 -73.35 30.8 -74.25 L34.7 -71.75 34.75 -71.7 34.75 -72.15" fill="#000000" fill-rule="evenodd" stroke="none"/>
  </g>
</svg>
