<?xml version="1.0" encoding="UTF-8" standalone="no"?>
<svg xmlns:ffdec="https://www.free-decompiler.com/flash" xmlns:xlink="http://www.w3.org/1999/xlink" ffdec:objectType="shape" height="121.6px" width="116.6px" xmlns="http://www.w3.org/2000/svg">
  <g transform="matrix(1.0, 0.0, 0.0, 1.0, 49.95, 152.75)">
    <path d="M0.85 -151.0 L3.35 -149.8 4.6 -149.25 5.95 -149.4 7.7 -150.6 8.35 -150.75 10.3 -151.3 12.55 -151.95 13.5 -152.55 13.65 -152.55 13.75 -152.5 14.1 -152.3 14.25 -152.1 14.4 -151.85 14.5 -151.3 14.55 -150.95 14.8 -150.35 14.85 -150.05 14.9 -149.85 14.95 -149.6 15.0 -149.45 15.1 -149.2 15.5 -148.5 15.7 -148.3 15.9 -147.8 18.8 -142.05 19.75 -141.65 Q23.4 -140.85 26.55 -139.3 L27.05 -139.05 27.2 -138.55 27.8 -136.9 Q28.25 -135.4 29.2 -134.25 L29.3 -134.05 29.65 -133.95 30.4 -134.15 33.25 -136.1 33.4 -136.2 Q34.15 -136.45 34.75 -136.8 L35.9 -137.4 37.1 -138.1 40.9 -137.35 Q41.3 -137.25 41.6 -136.95 43.0 -135.55 44.3 -135.65 45.0 -135.7 45.65 -136.15 L48.25 -137.75 48.5 -138.3 48.55 -138.5 48.8 -138.85 48.95 -138.9 50.15 -139.65 51.5 -140.45 51.7 -140.65 51.85 -140.85 51.95 -140.95 52.0 -141.2 52.05 -141.2 52.0 -141.0 51.95 -140.95 51.85 -140.55 52.0 -140.1 52.1 -139.9 52.3 -139.65 Q52.55 -139.1 52.4 -138.4 L52.3 -138.2 51.85 -136.25 52.1 -135.15 52.15 -134.1 Q52.3 -133.45 52.6 -133.0 L52.65 -132.95 52.8 -132.75 52.9 -132.6 53.15 -132.4 53.55 -132.05 53.5 -131.95 53.6 -131.8 53.9 -130.95 54.3 -130.3 54.4 -130.3 54.45 -130.2 54.45 -129.85 54.55 -129.2 54.45 -128.7 54.0 -127.7 53.8 -127.5 53.4 -127.2 53.35 -127.15 52.7 -126.9 52.55 -126.9 52.4 -126.85 Q51.05 -126.55 49.75 -125.5 L49.05 -125.05 48.45 -124.7 48.05 -124.55 45.25 -123.25 44.3 -122.5 44.15 -122.0 43.95 -121.55 44.1 -121.25 44.1 -121.05 44.05 -120.8 43.9 -120.4 44.5 -119.4 44.35 -118.25 44.8 -117.2 44.85 -117.05 46.9 -112.8 46.95 -112.55 46.85 -112.55 46.45 -112.2 45.9 -111.65 44.55 -110.85 44.55 -110.8 42.8 -110.2 42.25 -110.0 40.95 -108.3 40.8 -107.9 40.15 -106.4 Q38.7 -106.5 36.8 -108.65 L36.75 -108.65 36.2 -108.9 35.95 -108.8 35.65 -108.35 35.1 -107.55 34.9 -107.05 34.6 -106.25 34.3 -106.35 34.05 -106.55 33.75 -106.8 33.3 -106.8 32.8 -106.8 32.75 -106.8 32.4 -106.85 31.8 -107.05 Q30.8 -107.25 30.0 -106.25 L30.05 -106.1 30.15 -105.7 30.0 -105.55 Q30.15 -104.9 30.7 -104.25 L31.75 -102.75 32.1 -102.6 Q32.6 -102.4 32.7 -101.95 L32.6 -101.75 32.5 -101.5 32.6 -101.25 32.7 -101.05 32.6 -100.85 32.6 -100.6 32.9 -99.6 33.3 -98.55 34.15 -98.25 36.65 -98.05 41.05 -97.7 43.8 -95.95 Q45.2 -95.05 46.75 -94.2 48.15 -93.45 49.65 -92.75 L42.3 -92.3 32.5 -91.95 -6.05 -91.65 -6.35 -91.8 -7.2 -92.35 -8.35 -93.65 -9.25 -94.1 -9.15 -94.45 -8.85 -95.1 -8.7 -95.3 -8.7 -95.4 -8.65 -96.7 -8.6 -97.45 -8.5 -97.7 Q-8.55 -99.8 -9.35 -100.85 L-9.85 -101.7 Q-11.5 -104.25 -15.2 -102.5 -17.15 -100.35 -17.85 -97.75 L-17.85 -97.7 -18.05 -96.65 Q-18.1 -96.15 -18.3 -95.65 L-18.45 -95.4 -18.55 -95.3 -18.75 -95.0 -18.9 -94.6 -19.05 -94.35 -20.35 -91.55 -46.05 -91.45 Q-45.8 -93.1 -45.7 -94.7 -45.6 -96.1 -45.65 -97.45 -45.8 -99.8 -46.85 -101.45 L-47.55 -101.95 -49.4 -102.8 -49.95 -102.95 -49.0 -104.45 -46.85 -106.6 -45.45 -107.4 -45.15 -107.6 Q-44.35 -108.05 -43.95 -108.65 -43.0 -109.8 -42.75 -111.3 L-42.4 -111.95 Q-41.3 -114.4 -42.1 -115.65 L-43.85 -116.85 -44.6 -117.15 -43.75 -117.95 -43.25 -118.25 -40.75 -119.2 Q-35.85 -121.15 -37.25 -124.25 L-36.25 -124.2 -34.05 -123.9 -29.4 -123.8 -29.15 -123.85 -28.7 -124.0 -28.3 -124.15 -26.15 -124.1 -25.8 -124.1 -24.45 -124.3 -24.0 -124.55 -23.85 -124.95 -23.6 -125.7 Q-20.95 -125.35 -18.5 -125.8 L-18.05 -125.9 -17.8 -126.05 -17.55 -126.2 -17.05 -126.6 -16.55 -127.2 -16.75 -127.8 -16.75 -128.0 -16.95 -128.6 -17.05 -129.0 -17.05 -129.15 -17.0 -129.65 -17.0 -130.1 Q-17.15 -131.3 -17.8 -132.35 -17.75 -133.4 -18.05 -134.45 L-18.15 -134.85 -19.0 -137.6 -17.45 -138.9 Q-16.8 -139.15 -16.2 -139.5 L-15.0 -140.25 -14.8 -141.4 -14.85 -142.25 -14.95 -142.9 -14.95 -143.15 -15.1 -143.8 -15.7 -145.75 -16.5 -148.75 -16.4 -148.95 -13.45 -148.95 -11.0 -148.9 -9.05 -148.5 Q-6.35 -147.45 -4.15 -149.05 L-4.05 -149.15 -3.75 -149.3 -3.65 -149.7 -3.6 -150.15 -3.75 -150.3 -3.85 -150.4 -3.75 -150.55 -3.75 -150.6 -3.75 -150.7 -3.75 -150.75 -3.5 -151.4 -2.25 -152.75 0.1 -151.4 0.85 -151.0 M53.3 -87.45 L53.25 -87.4 Q52.6 -85.9 52.25 -84.3 L52.6 -83.45 Q53.85 -81.5 55.95 -79.95 L60.65 -76.15 61.75 -75.1 60.55 -73.95 60.5 -73.9 Q59.0 -72.45 58.05 -70.6 L57.1 -69.65 56.55 -69.4 56.35 -69.3 53.4 -67.75 Q51.8 -66.65 51.15 -64.85 L51.55 -64.5 51.85 -64.3 53.15 -63.2 54.8 -61.95 57.95 -60.25 59.7 -59.1 59.9 -58.95 60.5 -58.5 61.15 -58.05 61.8 -57.8 62.6 -57.35 62.8 -57.25 62.95 -57.15 62.95 -57.1 62.95 -57.0 63.0 -57.0 64.35 -56.3 65.5 -55.3 66.45 -54.05 66.65 -53.65 66.35 -53.4 Q63.8 -51.15 60.25 -49.8 L60.2 -49.5 59.95 -49.05 59.7 -48.85 59.6 -48.7 59.65 -48.1 59.7 -47.2 60.25 -46.45 62.05 -43.8 61.05 -43.1 60.65 -42.95 Q58.25 -42.2 57.1 -39.6 L56.45 -39.1 55.45 -36.45 54.9 -35.15 54.75 -34.45 53.85 -31.35 53.6 -31.25 53.2 -31.15 51.0 -31.2 48.2 -32.5 47.6 -32.65 44.45 -32.6 44.3 -32.5 44.15 -32.45 42.75 -32.25 41.25 -32.05 40.35 -32.3 38.95 -32.75 37.6 -35.7 Q36.7 -37.55 35.4 -38.55 L34.45 -39.45 34.05 -39.75 34.0 -39.9 33.9 -40.05 33.6 -40.2 33.0 -40.25 31.9 -39.85 30.1 -40.0 28.7 -40.2 28.5 -40.3 28.2 -40.3 28.05 -40.35 27.9 -40.45 27.65 -40.45 27.4 -40.55 26.8 -40.5 24.55 -40.2 24.35 -40.4 23.05 -41.6 22.0 -42.6 20.95 -46.6 20.75 -47.1 20.1 -48.55 20.1 -48.85 20.05 -49.15 19.75 -49.6 Q18.15 -50.45 16.8 -49.95 16.05 -49.7 15.35 -48.9 L11.7 -45.75 Q10.5 -44.9 9.2 -44.5 L8.0 -44.1 8.0 -44.2 Q8.0 -46.85 6.9 -48.55 L5.4 -49.95 3.95 -50.75 3.3 -50.85 Q2.9 -51.4 2.8 -52.0 L2.5 -52.6 2.35 -53.7 2.7 -55.85 Q2.7 -58.15 0.8 -59.3 L0.1 -59.75 -2.9 -61.05 -2.9 -61.45 -3.0 -62.1 Q-3.0 -62.8 -3.35 -63.55 -3.05 -64.0 -3.15 -64.7 -3.35 -65.6 -3.9 -66.45 L-6.55 -70.9 -6.6 -71.55 -6.65 -73.0 -4.25 -73.95 Q-1.9 -74.85 0.0 -75.95 L0.1 -76.15 0.1 -76.75 -0.05 -77.15 -0.35 -77.8 -0.75 -78.1 -1.7 -78.65 Q-4.15 -80.0 -6.2 -81.35 L-7.35 -83.6 -6.3 -85.45 -5.85 -86.25 31.15 -86.7 46.1 -87.3 53.5 -87.75 53.3 -87.45 M-36.4 -83.75 L-37.15 -84.55 -37.6 -84.8 -38.2 -84.95 Q-41.2 -85.2 -44.05 -83.9 L-46.0 -82.9 Q-46.65 -84.3 -46.95 -85.85 L-29.6 -86.0 -30.05 -85.4 Q-31.5 -83.7 -33.25 -82.95 -34.7 -82.95 -36.4 -83.75" fill="#ffff00" fill-opacity="0.5019608" fill-rule="evenodd" stroke="none"/>
  </g>
</svg>
