<?xml version="1.0" encoding="UTF-8" standalone="no"?>
<svg xmlns:ffdec="https://www.free-decompiler.com/flash" xmlns:xlink="http://www.w3.org/1999/xlink" ffdec:objectType="shape" height="102.4px" width="93.25px" xmlns="http://www.w3.org/2000/svg">
  <g transform="matrix(1.0, 0.0, 0.0, 1.0, 37.45, 143.7)">
    <path d="M11.55 -140.25 Q15.0 -136.8 15.0 -131.9 15.0 -127.0 11.55 -123.55 8.9 -120.9 5.4 -120.25 L3.9 -120.7 2.8 -120.55 2.6 -120.7 2.6 -120.4 Q11.7 -119.1 20.75 -120.55 L25.4 -120.95 Q33.75 -121.1 40.9 -125.25 40.4 -128.25 43.2 -129.15 L43.75 -129.3 Q48.45 -128.15 46.8 -123.6 45.95 -121.25 43.85 -119.8 L42.35 -119.0 Q32.3 -114.55 20.9 -114.75 L19.55 -114.65 Q11.6 -113.5 3.8 -114.65 L5.25 -111.5 Q7.5 -107.6 9.0 -103.45 L16.5 -91.2 17.6 -89.5 18.05 -88.8 18.8 -88.95 Q22.8 -88.3 26.3 -85.75 27.55 -84.8 29.05 -84.1 36.45 -80.7 44.15 -78.15 45.2 -77.8 45.25 -76.65 45.6 -71.45 42.45 -67.0 L41.6 -65.65 42.4 -59.25 Q43.6 -56.7 43.5 -53.8 43.45 -51.3 44.25 -49.0 L53.4 -48.05 Q54.0 -47.95 54.5 -47.45 57.5 -44.15 53.45 -42.4 L50.75 -42.1 43.2 -43.25 42.1 -43.45 Q40.4 -39.95 36.45 -42.2 32.55 -44.35 28.35 -46.05 27.15 -46.5 27.25 -47.75 27.4 -50.75 29.0 -53.35 31.55 -57.5 33.5 -61.85 34.1 -64.75 35.45 -67.3 L35.3 -68.0 Q26.65 -73.85 18.0 -79.85 L17.45 -80.25 Q16.35 -80.45 15.25 -81.75 L12.65 -85.15 Q11.0 -87.5 10.55 -90.2 4.1 -99.5 -0.65 -109.75 L-2.05 -113.35 -19.7 -112.55 Q-23.3 -109.6 -27.3 -107.1 -28.65 -106.25 -29.45 -104.9 -30.15 -103.75 -31.1 -102.8 -29.8 -98.45 -33.9 -97.3 -34.75 -97.05 -35.45 -97.65 -37.65 -99.5 -37.45 -102.5 -37.3 -104.45 -36.0 -105.95 -34.8 -108.9 -32.0 -111.0 L-28.1 -113.95 Q-24.55 -116.65 -20.55 -117.5 -15.15 -118.65 -9.5 -118.8 L-8.45 -118.9 -3.2 -118.75 -3.3 -119.3 Q-4.65 -121.65 -3.85 -123.55 L-4.25 -123.85 -5.75 -123.85 -6.75 -124.4 -6.65 -125.25 -6.7 -125.25 -6.65 -125.35 -7.25 -126.35 -7.85 -127.6 -8.0 -128.1 Q-8.6 -129.9 -8.6 -131.9 -8.6 -136.8 -5.15 -140.25 -1.7 -143.7 3.2 -143.7 L5.4 -143.5 Q8.3 -143.0 10.65 -141.05 L11.55 -140.25 M38.75 -73.7 L35.65 -74.85 38.45 -73.05 38.75 -73.7 M34.45 -50.45 L37.8 -48.3 37.7 -49.3 37.3 -55.45 36.8 -54.5 34.45 -50.45" fill="#000000" fill-rule="evenodd" stroke="none"/>
  </g>
</svg>
