<?xml version="1.0" encoding="UTF-8" standalone="no"?>
<svg xmlns:ffdec="https://www.free-decompiler.com/flash" xmlns:xlink="http://www.w3.org/1999/xlink" ffdec:objectType="shape" height="120.35px" width="121.35px" xmlns="http://www.w3.org/2000/svg">
  <g transform="matrix(1.0, 0.0, 0.0, 1.0, 52.1, 152.2)">
    <path d="M12.8 -149.25 L14.3 -148.3 14.4 -148.05 14.4 -148.0 14.4 -147.9 14.6 -147.55 14.7 -147.3 14.8 -147.1 14.9 -146.55 15.05 -146.2 15.35 -145.75 15.55 -145.55 15.65 -145.45 15.75 -145.35 15.8 -145.35 15.9 -145.3 16.55 -145.05 16.85 -145.15 17.2 -145.15 Q19.6 -143.4 21.85 -141.0 L22.8 -140.65 Q26.4 -139.7 29.55 -137.8 29.8 -137.6 30.1 -137.55 L30.4 -137.2 31.75 -136.4 Q32.75 -135.65 34.05 -135.4 L34.2 -135.35 34.5 -135.35 35.3 -135.65 Q36.85 -136.7 38.35 -137.45 L38.45 -137.45 39.3 -136.95 40.0 -136.5 41.4 -136.75 45.25 -135.6 45.95 -135.2 Q47.35 -134.0 48.65 -133.7 L50.0 -133.65 52.0 -133.4 51.95 -133.4 51.8 -133.35 51.9 -133.3 Q52.25 -133.1 52.8 -132.95 L53.25 -132.75 53.4 -132.85 53.65 -132.65 53.65 -132.6 53.7 -132.5 53.25 -132.75 53.2 -132.75 53.05 -132.55 52.9 -132.15 52.9 -131.8 52.9 -131.75 53.0 -131.55 53.1 -131.3 52.75 -130.0 52.65 -129.8 51.7 -128.0 51.5 -127.05 51.15 -126.05 50.7 -125.5 50.7 -125.4 50.7 -125.25 50.7 -125.15 50.8 -124.95 50.9 -124.5 50.85 -124.35 50.85 -124.25 50.55 -123.45 50.5 -122.75 50.55 -122.75 50.5 -122.75 50.3 -122.85 50.1 -122.65 49.8 -122.2 49.55 -121.85 48.8 -121.0 48.6 -120.75 48.2 -120.75 48.15 -120.7 47.5 -120.85 47.4 -120.95 47.3 -121.0 Q45.9 -121.35 44.5 -120.15 L43.7 -119.8 43.05 -119.5 42.6 -119.45 39.5 -119.2 38.45 -118.55 38.15 -118.15 37.85 -117.85 37.8 -117.6 37.75 -117.5 37.6 -117.3 37.35 -116.95 37.3 -116.15 36.7 -115.1 37.05 -114.05 37.1 -113.8 Q38.2 -111.65 39.45 -109.7 L39.4 -109.45 39.3 -109.4 38.95 -108.95 38.65 -108.3 38.35 -107.2 38.45 -107.1 Q38.45 -106.55 38.6 -106.5 L38.65 -106.5 38.7 -106.5 38.8 -106.45 38.95 -106.35 39.2 -106.5 39.15 -106.3 39.15 -106.2 40.3 -105.7 41.75 -104.95 42.1 -104.85 42.9 -104.55 43.15 -104.45 43.35 -104.3 43.55 -104.2 43.7 -104.05 43.75 -103.95 43.9 -103.7 44.55 -102.95 45.35 -102.2 46.2 -102.05 48.7 -102.35 53.15 -102.9 55.2 -100.4 Q56.25 -99.05 57.65 -97.8 60.85 -94.95 65.25 -93.2 L65.25 -92.95 65.3 -92.85 65.35 -92.65 65.35 -92.6 65.45 -92.35 65.55 -92.15 65.5 -91.8 65.4 -91.7 65.1 -91.5 65.0 -91.25 64.85 -91.0 63.9 -90.0 63.75 -89.95 Q62.75 -88.65 62.1 -87.15 L62.0 -86.25 Q62.65 -83.9 64.8 -82.2 67.35 -80.2 69.25 -77.9 69.1 -77.6 69.1 -77.1 L68.15 -76.35 36.1 -76.6 28.6 -76.95 3.25 -78.5 0.75 -78.55 2.0 -80.0 2.1 -80.2 1.9 -80.7 1.7 -81.05 1.3 -81.7 0.85 -81.95 -0.15 -82.45 -5.1 -84.5 -5.5 -86.85 -4.7 -88.9 -3.95 -91.05 Q-3.6 -92.1 -3.55 -93.1 -3.75 -94.4 -5.0 -94.7 L-5.85 -94.9 Q-6.45 -95.0 -6.75 -95.35 -6.9 -96.2 -7.35 -96.95 L-8.0 -97.6 -8.0 -98.0 -8.0 -98.6 -7.95 -98.8 -7.95 -98.9 -8.0 -100.25 -7.95 -101.05 -7.9 -101.3 Q-8.7 -103.25 -9.95 -103.15 L-10.65 -103.3 Q-12.6 -104.05 -16.0 -102.0 -18.05 -99.9 -19.35 -97.5 L-19.55 -97.65 -19.8 -97.75 -19.95 -97.7 -20.15 -97.7 -20.4 -97.55 -20.65 -97.25 -20.8 -97.05 -22.8 -94.2 -25.35 -93.4 Q-26.4 -93.2 -27.55 -92.45 -29.7 -90.95 -31.3 -88.8 L-32.5 -87.35 Q-34.05 -85.65 -35.85 -84.95 L-38.15 -86.95 -38.7 -87.95 -39.05 -88.3 -39.65 -88.55 Q-42.7 -89.15 -45.7 -87.7 L-47.7 -86.7 Q-49.0 -87.3 -49.95 -88.15 L-49.35 -91.8 -48.4 -97.1 -48.2 -99.9 Q-48.2 -102.3 -49.0 -104.15 L-49.8 -104.7 -51.75 -105.55 -52.1 -105.6 -51.1 -107.1 -49.0 -109.5 -47.65 -110.35 -47.35 -110.6 Q-46.6 -111.15 -46.35 -111.9 -45.75 -113.3 -45.8 -114.8 L-45.2 -115.3 Q-43.6 -117.2 -43.35 -118.4 -43.8 -119.3 -44.6 -120.0 L-45.15 -120.55 -44.6 -121.55 -44.15 -121.85 -41.5 -122.55 Q-36.55 -123.9 -35.9 -125.55 L-34.9 -125.4 -32.75 -124.95 Q-30.2 -124.2 -27.95 -124.85 L-27.8 -125.0 -27.55 -125.25 -27.3 -125.55 -25.05 -125.6 -24.65 -125.55 -23.35 -125.55 -22.85 -125.6 -22.55 -125.75 -22.0 -126.1 -16.8 -125.8 -16.45 -125.95 -16.2 -126.15 -16.0 -126.35 Q-15.75 -126.7 -15.85 -126.9 L-15.95 -127.5 -16.35 -127.95 -16.45 -128.15 -16.7 -128.75 -16.95 -129.2 -16.95 -129.3 -16.7 -129.8 -16.6 -130.2 Q-16.5 -131.4 -16.9 -132.5 -16.85 -133.6 -17.2 -134.65 L-17.35 -135.1 -18.25 -137.9 Q-17.8 -138.7 -17.45 -139.6 L-16.05 -140.15 Q-15.35 -140.45 -14.75 -140.85 L-14.3 -141.9 -14.25 -142.75 -14.2 -143.4 -14.15 -143.65 -14.25 -144.35 -14.6 -146.45 -15.15 -149.45 -14.8 -149.65 -11.85 -149.85 -9.4 -150.1 -7.3 -150.15 Q-4.65 -149.85 -2.3 -151.5 L-2.2 -151.55 -1.9 -151.65 -1.65 -151.95 -1.4 -152.2 -1.35 -152.15 -1.3 -152.1 -1.15 -152.1 -1.15 -152.0 -0.8 -152.15 0.7 -152.2 2.9 -150.5 Q3.25 -150.2 3.65 -150.05 L6.4 -149.1 7.75 -148.85 9.15 -149.1 10.9 -150.3 11.4 -150.0 12.8 -149.25 M52.15 -133.35 L52.1 -133.35 52.45 -133.25 52.15 -133.35 M57.15 -68.7 L57.05 -68.4 57.15 -68.15 57.85 -66.65 58.85 -64.95 58.35 -64.0 Q58.2 -63.85 58.3 -62.95 L58.45 -62.75 58.85 -62.2 59.3 -61.6 59.95 -61.2 60.7 -60.65 60.85 -60.45 60.95 -60.3 60.95 -60.15 60.95 -60.0 61.05 -59.95 Q61.8 -59.6 62.3 -59.05 L63.15 -57.85 62.75 -56.85 62.5 -56.55 62.1 -56.4 Q59.05 -54.85 55.45 -53.45 L55.3 -53.25 54.9 -52.8 54.6 -52.6 54.55 -52.45 54.6 -51.8 54.7 -50.95 55.2 -50.1 56.9 -47.25 56.55 -46.35 56.45 -46.0 Q55.65 -44.5 55.45 -41.75 L54.75 -41.35 52.9 -39.25 52.05 -38.2 51.9 -37.4 51.1 -34.25 50.95 -34.05 50.65 -33.8 49.15 -32.55 46.2 -33.55 45.55 -33.65 42.4 -33.2 42.25 -33.05 42.15 -32.9 40.75 -32.45 39.4 -31.85 Q38.85 -31.95 38.4 -32.25 L37.1 -32.95 35.7 -35.85 Q34.55 -37.55 32.75 -37.75 L31.55 -37.95 31.05 -38.0 30.9 -38.05 30.75 -38.1 30.45 -38.1 29.8 -38.05 28.6 -37.6 27.05 -38.5 25.95 -39.3 25.8 -39.45 25.55 -39.55 25.45 -39.65 25.35 -39.8 25.1 -39.95 24.8 -40.05 24.3 -40.1 22.15 -39.6 21.9 -39.65 20.3 -40.1 Q19.65 -40.3 19.05 -40.65 19.45 -42.65 19.35 -44.75 L19.35 -45.35 19.2 -46.85 19.2 -47.15 19.25 -47.45 19.05 -47.95 Q18.1 -49.2 16.75 -49.55 L15.15 -49.35 15.1 -49.35 Q12.95 -48.6 10.7 -48.2 L8.0 -48.05 7.9 -48.4 7.95 -48.5 Q8.85 -50.85 8.55 -52.9 8.65 -53.65 8.05 -54.5 L7.15 -55.8 6.6 -55.95 5.85 -56.95 5.4 -57.35 5.65 -58.3 6.65 -60.3 Q7.4 -62.5 6.65 -64.05 L6.4 -64.75 3.4 -66.1 3.15 -66.4 2.8 -66.9 1.95 -67.95 1.4 -68.8 0.1 -70.1 -3.55 -72.95 1.35 -72.75 Q10.35 -72.5 19.35 -72.4 L27.2 -71.9 37.45 -71.25 62.25 -71.0 60.2 -70.45 Q58.3 -69.95 57.15 -68.7" fill="#ffff00" fill-opacity="0.5019608" fill-rule="evenodd" stroke="none"/>
  </g>
</svg>
