<?xml version="1.0" encoding="UTF-8" standalone="no"?>
<svg xmlns:ffdec="https://www.free-decompiler.com/flash" xmlns:xlink="http://www.w3.org/1999/xlink" ffdec:objectType="shape" height="104.45px" width="106.75px" xmlns="http://www.w3.org/2000/svg">
  <g transform="matrix(1.0, 0.0, 0.0, 1.0, 38.8, 144.35)">
    <path d="M14.2 -132.55 Q14.2 -127.65 10.75 -124.2 8.7 -122.15 6.15 -121.3 L19.25 -122.05 24.2 -122.5 Q33.35 -123.75 42.4 -125.65 L42.7 -126.5 Q43.6 -128.1 45.3 -128.15 49.35 -129.15 50.45 -125.75 51.4 -122.9 48.6 -121.6 43.45 -119.2 37.75 -118.5 L19.9 -116.6 4.9 -116.15 4.65 -115.05 Q5.6 -113.05 5.95 -110.85 11.2 -100.25 19.25 -91.35 20.25 -90.2 20.7 -88.9 L21.3 -88.6 Q30.45 -86.25 39.6 -83.2 42.85 -82.1 44.55 -79.1 49.95 -69.6 55.95 -60.6 60.45 -63.85 65.85 -64.35 66.85 -64.4 67.35 -63.5 69.1 -60.3 65.65 -58.7 60.85 -56.45 55.95 -54.7 54.05 -54.05 52.55 -55.15 51.4 -56.0 50.65 -57.25 L40.35 -73.55 Q39.1 -75.55 38.0 -77.7 33.8 -79.3 29.3 -80.1 L29.45 -79.9 Q33.1 -76.55 36.25 -72.65 L36.75 -71.85 Q41.25 -69.05 40.0 -64.0 39.1 -60.4 38.95 -56.6 L38.95 -54.55 38.95 -46.8 48.4 -45.3 Q49.2 -45.2 49.5 -44.4 51.05 -40.25 46.65 -40.0 L45.95 -39.95 Q39.7 -39.65 34.3 -42.0 33.2 -42.5 33.2 -43.7 33.15 -53.55 33.65 -63.3 L33.95 -66.2 Q27.05 -74.05 19.6 -81.5 18.45 -82.7 17.6 -84.0 L16.85 -84.4 Q16.15 -84.75 15.9 -85.3 14.75 -86.0 14.0 -87.35 11.4 -91.9 8.0 -95.9 1.65 -103.5 -0.95 -112.85 L-1.05 -113.45 -1.2 -113.7 Q-10.95 -113.45 -20.65 -113.35 L-20.9 -113.1 -29.2 -106.75 -29.65 -106.4 Q-31.15 -105.25 -32.35 -103.85 L-32.45 -103.55 Q-32.9 -99.0 -37.3 -99.8 L-38.4 -100.5 -38.55 -100.8 Q-39.8 -106.4 -34.7 -110.05 L-28.6 -114.3 -28.4 -114.55 Q-25.4 -117.6 -21.9 -119.3 L-3.7 -119.15 Q-4.15 -120.85 -4.25 -122.6 L-5.7 -123.5 -6.85 -124.65 -7.55 -125.05 -7.45 -125.9 -7.5 -125.9 -7.45 -126.0 -8.05 -127.0 -8.65 -128.25 -8.8 -128.75 Q-9.4 -130.55 -9.4 -132.55 -9.4 -137.45 -5.95 -140.9 -2.5 -144.35 2.4 -144.35 L4.6 -144.15 Q7.5 -143.65 9.85 -141.7 L10.75 -140.9 Q14.2 -137.45 14.2 -132.55 M3.8 -121.15 L3.1 -121.35 2.0 -121.2 2.1 -120.7 3.8 -121.15" fill="#000000" fill-rule="evenodd" stroke="none"/>
  </g>
</svg>
