<?xml version="1.0" encoding="UTF-8" standalone="no"?>
<svg xmlns:ffdec="https://www.free-decompiler.com/flash" xmlns:xlink="http://www.w3.org/1999/xlink" ffdec:objectType="shape" height="122.6px" width="132.15px" xmlns="http://www.w3.org/2000/svg">
  <g transform="matrix(1.0, 0.0, 0.0, 1.0, 54.3, 154.3)">
    <path d="M1.4 -153.35 L1.4 -153.2 1.95 -152.9 3.65 -151.7 5.65 -149.65 6.4 -149.1 9.45 -148.45 10.85 -148.4 Q11.6 -148.5 12.3 -148.85 L14.15 -150.0 14.5 -149.3 15.25 -147.15 16.1 -144.7 15.25 -143.6 15.2 -143.5 15.1 -143.25 15.05 -142.75 15.1 -142.55 15.15 -142.3 15.25 -141.8 15.5 -141.5 15.95 -141.15 16.2 -141.1 16.35 -141.1 16.5 -141.15 16.55 -141.3 16.65 -141.4 17.65 -141.65 18.05 -142.05 18.45 -142.5 Q21.8 -141.75 24.85 -140.0 L25.85 -139.6 Q29.45 -138.5 32.6 -136.3 L33.1 -136.0 33.6 -135.85 35.65 -135.85 Q37.2 -135.95 38.85 -136.55 L39.05 -136.6 39.35 -136.7 40.2 -137.15 Q41.85 -138.25 43.45 -138.85 L43.5 -138.7 43.85 -137.1 Q43.85 -136.35 44.15 -135.65 L45.7 -135.45 49.55 -133.9 50.3 -133.4 Q51.7 -132.4 53.0 -131.8 L54.3 -131.2 Q56.0 -130.25 56.6 -128.8 56.25 -128.55 55.75 -128.45 L55.3 -128.3 54.75 -127.9 54.8 -127.75 55.4 -126.3 Q55.9 -125.45 55.85 -124.6 L55.65 -124.5 55.5 -124.5 55.35 -124.35 54.7 -124.35 54.45 -124.3 54.2 -124.15 53.9 -123.8 53.85 -123.45 53.85 -123.4 53.85 -123.2 53.9 -122.9 53.15 -121.65 52.95 -121.45 51.5 -119.8 50.95 -119.0 50.15 -118.0 48.75 -117.95 48.75 -117.9 48.55 -117.8 48.45 -117.7 48.4 -117.5 48.3 -117.0 48.15 -116.8 48.05 -116.7 47.25 -115.9 46.65 -115.2 46.65 -115.25 46.2 -115.45 45.7 -115.45 45.05 -115.25 44.6 -114.95 43.6 -114.25 43.35 -114.05 43.0 -114.3 42.25 -114.75 42.2 -114.95 42.15 -115.15 Q40.75 -116.1 39.2 -114.85 L38.35 -114.5 37.6 -114.3 37.15 -114.4 33.75 -115.2 32.65 -114.65 32.2 -114.35 31.7 -114.15 31.55 -114.0 31.4 -113.9 31.2 -113.75 30.8 -113.55 30.1 -112.95 29.0 -112.0 29.25 -110.95 29.3 -110.6 Q30.35 -108.35 31.95 -106.55 L31.85 -106.3 31.75 -106.25 31.5 -105.75 31.4 -104.95 Q31.45 -103.9 32.1 -103.6 L32.3 -103.45 Q33.25 -102.6 34.45 -102.85 L35.1 -103.05 Q35.5 -102.0 36.05 -101.05 L36.55 -100.65 38.15 -100.25 Q39.75 -100.75 39.55 -104.2 L39.6 -104.3 39.85 -105.05 39.9 -105.25 40.5 -105.2 41.75 -105.4 42.5 -105.7 43.55 -105.9 43.95 -106.0 44.3 -106.1 44.65 -106.25 44.45 -105.75 44.4 -105.2 44.6 -105.05 44.85 -104.9 Q45.2 -105.05 45.45 -105.4 46.35 -106.4 47.35 -106.8 L47.5 -106.8 48.0 -106.85 48.2 -106.95 49.85 -107.15 51.7 -107.15 52.1 -107.15 53.05 -107.1 53.65 -107.2 54.15 -107.15 54.45 -107.1 54.65 -107.05 54.85 -107.05 55.15 -106.85 Q55.65 -106.5 56.15 -106.25 L57.35 -105.9 58.2 -105.9 Q59.45 -106.05 60.75 -106.65 63.0 -107.7 65.2 -108.1 L66.6 -104.8 Q67.3 -103.05 68.5 -101.45 71.2 -97.8 75.65 -95.75 L75.8 -95.55 75.95 -95.45 76.0 -95.25 76.05 -95.2 76.2 -94.95 76.35 -94.7 76.2 -94.45 76.1 -94.35 75.8 -94.1 75.75 -93.8 75.65 -93.6 74.5 -92.6 74.3 -92.55 Q72.95 -91.45 71.9 -90.0 L71.4 -89.0 Q71.45 -86.35 73.7 -84.5 76.3 -82.35 77.85 -79.7 L76.4 -79.1 75.0 -78.2 74.95 -78.2 Q73.15 -76.9 72.1 -74.95 L71.3 -73.7 70.7 -73.5 70.5 -73.45 66.95 -73.15 Q64.8 -73.25 63.1 -72.55 L62.5 -72.35 62.5 -72.05 62.5 -70.15 62.95 -68.0 58.8 -67.8 Q57.6 -67.85 56.85 -66.85 L56.95 -66.6 57.15 -65.85 57.4 -65.1 58.05 -64.65 58.8 -63.9 58.95 -63.7 59.0 -63.5 59.0 -63.35 42.2 -63.6 23.15 -63.9 10.0 -64.05 10.55 -64.8 Q12.05 -66.9 12.45 -68.85 L12.7 -69.7 Q11.25 -70.65 9.65 -71.15 L9.25 -71.35 8.6 -71.65 7.2 -72.35 6.0 -72.95 4.05 -73.7 -1.1 -75.55 -0.85 -76.2 -0.4 -77.65 1.45 -79.75 Q3.45 -81.8 4.05 -84.0 L4.05 -84.2 3.7 -84.65 3.4 -85.0 2.9 -85.55 2.4 -85.85 1.4 -86.3 -4.0 -87.6 -3.7 -90.15 -3.05 -92.4 -2.6 -94.75 Q-2.4 -95.85 -2.45 -97.0 -3.0 -98.25 -4.4 -98.1 L-5.4 -97.95 Q-6.05 -97.95 -6.35 -98.3 -6.15 -99.3 -6.4 -100.3 L-6.8 -101.05 -6.9 -101.55 -7.2 -102.15 -7.15 -102.3 -7.15 -102.4 -7.3 -103.85 -7.35 -104.6 -7.35 -104.9 Q-8.8 -106.7 -10.5 -105.4 L-11.4 -104.9 Q-13.7 -103.85 -16.8 -101.55 L-20.8 -97.3 -20.8 -97.35 -21.1 -98.7 -21.35 -99.9 -21.5 -99.95 -21.75 -100.15 -22.1 -100.15 -22.45 -99.95 -22.6 -99.8 -25.1 -97.1 -27.55 -95.7 Q-28.6 -95.2 -29.65 -94.35 L-33.65 -90.7 -34.9 -89.35 Q-36.65 -87.65 -38.4 -86.95 L-39.95 -90.15 -40.3 -91.3 -40.55 -91.8 -41.15 -92.2 Q-44.25 -93.1 -47.4 -91.5 -48.45 -90.95 -49.45 -90.45 -51.35 -90.2 -52.95 -90.4 L-52.25 -94.15 -51.1 -99.55 -50.7 -102.4 Q-50.6 -104.75 -51.2 -106.9 L-52.1 -107.4 -54.1 -108.25 -54.3 -108.3 -53.2 -109.8 Q-52.0 -111.05 -51.2 -112.35 L-49.8 -113.35 -49.55 -113.6 Q-48.8 -114.25 -48.75 -115.15 -48.5 -116.75 -48.8 -118.35 L-48.05 -118.7 -44.65 -121.15 Q-44.85 -122.25 -45.4 -123.2 L-45.75 -123.9 -45.45 -125.2 -45.0 -125.45 -42.2 -125.9 -34.55 -126.85 -33.55 -126.65 -31.4 -126.05 -26.55 -125.9 -26.5 -126.1 -26.35 -126.55 -26.35 -127.0 -24.0 -127.05 -23.55 -127.05 -22.25 -126.8 -21.75 -126.7 -21.3 -126.6 -20.45 -126.55 Q-17.8 -125.75 -15.15 -125.85 L-14.8 -126.05 -14.6 -126.3 -14.45 -126.5 Q-14.3 -126.95 -14.6 -127.15 L-15.4 -127.75 -16.0 -128.15 -16.1 -128.35 -16.5 -128.95 -16.8 -129.45 -16.8 -129.5 -16.45 -129.95 -16.15 -130.3 Q-15.85 -131.55 -16.05 -132.7 -16.0 -133.85 -16.35 -134.9 L-16.5 -135.4 -17.45 -138.15 -17.4 -140.35 -15.9 -140.85 -14.55 -141.5 -13.85 -142.4 -13.65 -143.25 -13.45 -143.85 -13.3 -144.15 -13.35 -144.95 -13.55 -147.1 -13.85 -150.2 -13.25 -150.3 -10.25 -150.8 -7.75 -151.35 -5.6 -151.85 Q-2.9 -152.3 -0.5 -153.9 L-0.35 -154.0 -0.05 -154.05 0.35 -154.15 0.75 -154.3 1.05 -154.0 1.2 -153.85 1.4 -153.7 1.4 -153.55 1.4 -153.35 M49.9 -56.6 L49.45 -56.4 49.45 -56.25 49.5 -55.55 49.7 -54.65 50.1 -53.8 Q50.75 -52.25 51.7 -50.75 L52.05 -49.55 52.2 -49.1 53.85 -43.95 53.0 -43.65 50.35 -42.1 49.2 -41.2 49.0 -40.4 48.3 -37.15 48.25 -36.9 48.1 -36.45 47.35 -33.95 44.2 -34.65 43.55 -34.65 40.3 -33.85 40.2 -33.65 40.1 -33.4 38.75 -32.7 37.5 -31.7 Q36.9 -31.8 36.5 -32.25 L35.25 -33.2 Q34.65 -35.0 33.75 -36.05 32.35 -37.6 30.05 -36.9 L28.65 -36.5 28.05 -36.3 27.85 -36.2 27.6 -36.1 27.25 -36.05 26.55 -35.8 Q25.9 -35.55 25.25 -35.4 L24.05 -37.0 23.25 -38.35 23.05 -38.6 22.85 -38.8 22.8 -39.0 22.75 -39.2 22.5 -39.4 22.25 -39.6 21.75 -39.75 19.75 -39.05 19.5 -38.95 17.6 -38.6 16.05 -38.75 Q17.25 -40.65 17.75 -42.95 L17.95 -43.55 18.25 -45.1 18.35 -45.4 18.4 -45.7 18.4 -46.35 Q18.0 -48.0 16.75 -49.2 16.0 -49.85 14.95 -49.85 L14.9 -49.85 9.7 -50.7 6.75 -51.65 7.85 -52.75 7.9 -52.85 Q9.65 -54.9 10.25 -57.2 10.85 -57.9 10.8 -58.85 L24.2 -58.55 43.35 -58.25 53.35 -58.1 50.65 -57.15 50.45 -56.95 49.9 -56.6" fill="#ffff00" fill-opacity="0.5019608" fill-rule="evenodd" stroke="none"/>
  </g>
</svg>
