<?xml version="1.0" encoding="UTF-8" standalone="no"?>
<svg xmlns:ffdec="https://www.free-decompiler.com/flash" xmlns:xlink="http://www.w3.org/1999/xlink" ffdec:objectType="shape" height="106.05px" width="115.75px" xmlns="http://www.w3.org/2000/svg">
  <g transform="matrix(1.0, 0.0, 0.0, 1.0, 40.5, 145.3)">
    <path d="M13.4 -133.5 Q13.4 -128.6 9.95 -125.15 7.3 -122.5 3.8 -121.85 L2.45 -122.25 3.7 -120.25 5.15 -120.55 Q15.95 -120.35 26.5 -122.3 L41.05 -125.5 42.55 -125.95 45.3 -126.6 Q49.75 -126.35 48.25 -122.4 47.85 -121.25 46.65 -120.8 38.8 -117.8 30.35 -116.9 L18.75 -115.65 7.1 -114.65 9.55 -110.45 9.75 -109.6 Q10.6 -108.7 11.05 -107.6 L11.3 -106.45 Q13.75 -101.9 15.55 -97.1 16.8 -93.75 18.5 -90.65 L19.2 -90.85 Q29.1 -89.8 38.95 -87.9 L43.9 -87.05 Q45.5 -86.85 46.6 -85.6 47.5 -84.55 48.7 -83.75 L63.35 -72.8 Q67.8 -73.75 71.35 -77.0 L72.5 -77.25 Q76.6 -76.3 74.6 -72.7 73.85 -71.35 72.55 -70.5 67.95 -67.45 62.5 -66.65 60.95 -66.45 59.8 -67.5 55.45 -71.6 50.55 -75.0 L41.15 -81.55 27.35 -83.75 30.45 -81.0 39.65 -72.45 Q40.15 -71.95 40.0 -71.2 38.75 -65.85 39.05 -60.25 39.35 -53.75 37.7 -47.25 40.6 -45.55 44.4 -44.6 47.85 -43.7 46.4 -40.55 45.75 -39.15 44.15 -39.25 38.6 -39.7 33.55 -42.05 29.5 -44.0 31.3 -48.35 32.1 -50.25 32.45 -52.25 33.25 -56.75 33.15 -61.2 33.1 -65.6 33.6 -69.85 L18.6 -83.75 Q17.0 -83.25 15.3 -85.2 13.4 -87.45 12.1 -90.15 10.95 -92.65 10.15 -95.1 L7.0 -101.5 6.6 -102.6 Q5.85 -103.35 5.65 -104.35 L5.55 -105.45 0.4 -114.15 -0.05 -114.15 -21.6 -113.4 -23.85 -112.9 Q-29.15 -110.8 -33.7 -107.4 L-33.8 -107.1 Q-35.5 -102.6 -39.55 -104.95 -40.3 -105.4 -40.45 -106.25 L-40.5 -107.1 Q-40.15 -111.6 -35.7 -114.0 -29.3 -117.4 -22.65 -119.7 L-2.75 -119.45 -4.6 -122.55 Q-5.5 -124.05 -5.55 -125.25 L-5.85 -125.45 -7.35 -125.45 -8.35 -126.0 -8.25 -126.85 -8.3 -126.85 -8.25 -126.95 -8.85 -127.95 -9.45 -129.2 -9.6 -129.7 Q-10.2 -131.5 -10.2 -133.5 -10.2 -138.4 -6.75 -141.85 -3.3 -145.3 1.6 -145.3 L3.8 -145.1 Q6.7 -144.6 9.05 -142.65 L9.95 -141.85 Q13.4 -138.4 13.4 -133.5" fill="#000000" fill-rule="evenodd" stroke="none"/>
  </g>
</svg>
