<?xml version="1.0" encoding="UTF-8" standalone="no"?>
<svg xmlns:ffdec="https://www.free-decompiler.com/flash" xmlns:xlink="http://www.w3.org/1999/xlink" ffdec:objectType="shape" height="124.9px" width="143.6px" xmlns="http://www.w3.org/2000/svg">
  <g transform="matrix(1.0, 0.0, 0.0, 1.0, 56.45, 156.4)">
    <path d="M20.5 -37.45 L20.35 -37.75 20.15 -38.05 20.15 -38.3 20.15 -38.6 19.95 -38.9 19.65 -39.15 19.2 -39.35 Q18.05 -38.9 17.05 -38.25 14.65 -36.7 13.05 -36.8 15.0 -38.7 16.15 -41.1 L16.55 -41.8 Q17.35 -43.05 17.65 -44.3 L41.35 -44.1 46.3 -44.0 46.15 -43.4 Q45.65 -41.6 45.55 -39.7 L45.5 -35.35 Q41.35 -36.35 38.2 -34.5 L38.15 -34.2 38.1 -33.9 Q37.3 -33.5 36.75 -32.9 L35.6 -31.5 Q34.95 -31.65 34.55 -32.2 L33.4 -33.4 Q31.9 -38.55 27.35 -36.1 L25.75 -35.05 Q23.75 -33.55 21.95 -33.15 L21.0 -35.5 20.5 -37.45 M1.35 -156.35 L1.5 -156.4 2.95 -156.35 3.45 -155.85 4.0 -155.3 4.0 -155.0 4.0 -154.7 4.0 -154.45 8.4 -148.75 Q8.75 -148.3 9.2 -148.15 13.45 -146.8 17.35 -149.7 L17.55 -148.55 17.7 -145.1 17.85 -141.1 16.1 -139.15 Q15.25 -138.25 15.65 -137.05 L15.95 -136.8 16.5 -136.55 16.85 -136.65 17.05 -136.75 17.25 -136.95 17.35 -137.25 17.45 -137.5 Q18.25 -137.7 18.7 -138.25 L19.75 -139.85 Q28.65 -140.4 35.6 -134.8 36.1 -134.35 36.8 -134.5 40.45 -135.25 43.7 -137.7 46.25 -139.6 48.55 -140.2 L48.55 -139.95 Q48.7 -138.55 48.4 -137.25 48.1 -136.0 48.25 -134.75 53.15 -133.05 57.35 -129.9 60.35 -127.65 60.75 -124.35 L59.35 -123.55 57.75 -122.45 57.75 -122.15 Q57.75 -120.85 58.05 -119.65 58.4 -118.15 58.05 -116.7 L57.6 -116.45 57.3 -116.3 57.0 -116.0 55.65 -115.85 Q55.2 -115.8 54.9 -115.45 L54.75 -115.15 54.7 -114.85 54.7 -114.55 53.25 -113.1 49.15 -109.95 46.85 -110.45 46.8 -110.4 46.45 -110.3 46.25 -110.25 46.05 -110.05 45.65 -109.5 45.5 -109.2 Q44.6 -108.95 43.9 -108.4 L42.8 -107.65 42.8 -107.75 Q40.7 -109.0 38.1 -107.35 L37.8 -107.85 37.05 -108.7 37.05 -109.0 37.05 -109.3 Q35.6 -110.9 33.95 -109.5 L33.0 -109.25 32.15 -109.1 31.7 -109.35 Q30.05 -110.6 28.0 -111.2 26.75 -110.6 25.25 -110.35 22.95 -109.95 21.3 -108.9 L21.45 -107.8 Q22.35 -105.15 24.45 -103.45 L24.2 -103.1 24.0 -102.55 Q24.0 -102.1 24.15 -101.6 24.6 -100.4 25.9 -99.95 28.55 -98.2 31.55 -99.6 L33.6 -97.4 Q33.95 -97.1 34.4 -97.05 40.05 -96.35 40.9 -102.0 L41.9 -103.5 42.9 -103.65 Q43.95 -103.85 45.05 -104.35 L46.3 -105.0 Q47.4 -105.75 48.75 -105.8 L50.1 -105.95 50.05 -105.25 Q50.05 -104.8 50.2 -104.4 L50.5 -104.15 51.05 -103.9 Q51.7 -104.1 52.25 -104.55 58.4 -109.3 65.95 -110.15 69.3 -108.55 72.8 -110.95 75.05 -112.55 77.25 -113.3 L78.0 -109.25 Q78.35 -107.05 79.35 -105.1 81.7 -100.4 86.55 -98.05 L86.7 -97.85 86.95 -97.55 87.15 -97.3 86.8 -96.95 86.55 -96.7 86.55 -96.4 86.45 -96.15 Q85.85 -95.55 85.1 -95.2 82.6 -93.95 80.8 -91.8 80.25 -88.75 82.55 -86.8 85.25 -84.5 86.45 -81.45 84.05 -81.5 82.15 -80.35 79.55 -78.7 78.4 -75.7 L77.55 -75.55 73.7 -75.85 67.95 -76.25 67.8 -75.95 67.15 -73.65 67.0 -71.05 59.2 -71.55 Q57.05 -71.85 55.45 -70.7 L55.45 -70.4 55.45 -69.55 55.55 -68.65 56.15 -68.1 56.9 -67.2 57.0 -66.95 57.0 -66.65 57.0 -66.35 57.0 -66.05 Q57.85 -65.55 58.25 -64.65 58.65 -63.7 58.45 -62.9 L55.25 -62.45 Q49.3 -62.55 44.35 -60.2 44.95 -56.15 47.55 -52.8 L50.05 -49.4 40.0 -49.6 15.8 -49.8 14.75 -50.35 Q9.6 -52.25 5.55 -55.2 6.55 -56.35 7.85 -57.2 10.5 -58.95 11.9 -61.55 13.15 -62.25 13.4 -63.6 L13.6 -65.9 Q12.35 -67.15 11.1 -66.95 12.95 -67.9 14.45 -69.3 17.2 -71.75 19.0 -74.7 17.4 -75.95 15.3 -76.3 L1.6 -77.9 2.05 -78.5 Q2.95 -80.7 4.3 -82.65 6.2 -85.4 6.05 -88.25 5.5 -88.55 5.1 -88.95 4.15 -89.85 2.95 -90.15 L-2.9 -90.75 Q-1.8 -93.25 -1.45 -95.9 -1.15 -98.35 -1.35 -100.85 -2.2 -102.1 -3.8 -101.45 L-5.95 -101.3 Q-5.4 -102.4 -5.4 -103.6 -5.4 -104.85 -6.35 -105.65 L-6.4 -105.9 -6.65 -107.4 -6.75 -108.5 Q-8.95 -110.15 -11.1 -107.7 -16.3 -101.75 -22.3 -97.1 L-22.65 -99.7 -22.85 -102.0 -23.05 -102.25 -23.35 -102.55 -23.8 -102.75 -24.2 -102.65 -24.4 -102.55 -37.35 -91.3 Q-39.25 -89.65 -41.0 -88.95 -41.6 -91.75 -41.85 -94.7 -41.95 -95.55 -42.65 -95.85 -45.75 -97.05 -49.05 -95.3 -52.75 -93.35 -55.9 -92.65 -55.15 -97.35 -53.8 -101.95 -52.75 -105.7 -53.4 -109.65 L-54.4 -110.15 -56.45 -111.0 -55.3 -112.5 Q-54.0 -113.75 -53.4 -115.25 L-52.0 -116.35 Q-51.05 -117.15 -51.15 -118.4 -51.25 -120.25 -51.85 -121.85 -48.65 -122.6 -45.9 -123.9 -45.9 -125.2 -46.2 -126.4 -46.45 -127.55 -46.3 -128.8 L-45.9 -129.05 Q-38.85 -129.75 -32.2 -127.9 L-30.1 -127.1 -25.15 -126.95 -25.15 -127.25 -25.2 -127.8 -25.35 -128.4 -22.95 -128.55 -21.15 -128.05 Q-17.5 -125.95 -13.45 -125.9 L-13.2 -126.1 -13.0 -126.4 -12.9 -126.65 Q-12.85 -127.2 -13.4 -127.45 L-15.65 -128.3 -15.8 -128.5 -16.3 -129.1 -16.7 -129.65 -16.15 -130.1 -15.75 -130.4 Q-14.65 -133.05 -15.7 -135.65 -16.75 -138.35 -17.4 -141.1 L-15.75 -141.55 Q-14.35 -141.95 -13.35 -142.9 L-13.05 -143.75 -12.5 -144.65 -12.5 -145.5 -12.5 -147.8 -12.5 -150.95 Q-10.5 -151.05 -8.65 -151.7 -3.5 -153.35 1.35 -156.35" fill="#ffff00" fill-opacity="0.5019608" fill-rule="evenodd" stroke="none"/>
  </g>
</svg>
