<?xml version="1.0" encoding="UTF-8" standalone="no"?>
<svg xmlns:ffdec="https://www.free-decompiler.com/flash" xmlns:xlink="http://www.w3.org/1999/xlink" ffdec:objectType="shape" height="105.85px" width="118.1px" xmlns="http://www.w3.org/2000/svg">
  <g transform="matrix(1.0, 0.0, 0.0, 1.0, 43.55, 145.55)">
    <path d="M8.95 -142.1 Q12.4 -138.65 12.4 -133.75 12.4 -128.85 8.95 -125.4 6.3 -122.75 2.8 -122.1 L2.25 -122.25 3.9 -120.1 Q12.5 -122.25 21.35 -123.15 L44.15 -125.45 Q48.1 -126.4 50.75 -123.8 51.6 -122.95 51.75 -121.65 52.2 -117.15 47.4 -117.85 45.75 -118.1 44.6 -119.2 25.55 -118.0 6.65 -114.7 L5.6 -114.5 9.55 -106.9 Q10.05 -105.95 10.15 -104.9 12.55 -100.35 15.25 -96.1 16.4 -94.3 18.0 -92.75 L18.65 -92.1 28.2 -91.7 49.25 -89.8 63.55 -88.3 63.7 -88.25 Q65.75 -87.55 67.85 -87.4 L67.25 -88.45 Q64.75 -92.65 64.3 -97.25 64.25 -98.1 64.95 -98.65 65.85 -99.3 66.8 -99.3 71.05 -98.1 71.85 -93.3 L72.35 -91.7 74.3 -87.1 Q74.9 -85.6 74.05 -84.4 L73.15 -82.75 Q72.55 -81.9 71.6 -81.8 L62.25 -82.3 58.15 -82.95 36.65 -84.75 25.6 -85.55 32.8 -80.0 38.1 -75.0 Q40.3 -72.75 38.75 -69.95 36.7 -66.25 35.55 -62.05 33.5 -54.3 28.1 -48.7 L27.6 -47.85 27.05 -47.25 Q28.35 -45.7 30.95 -44.45 32.1 -43.95 32.15 -42.75 32.35 -39.1 28.65 -39.85 26.3 -40.3 24.15 -41.5 21.4 -43.05 19.6 -45.6 18.35 -47.35 19.9 -48.8 23.7 -52.35 26.95 -56.4 29.3 -61.25 30.85 -66.55 L31.7 -69.3 32.7 -71.65 Q27.35 -77.65 20.1 -82.45 17.4 -84.25 16.2 -86.8 15.45 -86.85 14.8 -87.45 7.55 -94.25 4.2 -103.55 L3.2 -106.05 0.15 -112.25 -0.8 -112.4 Q-11.85 -114.4 -22.7 -112.05 L-35.45 -108.9 Q-39.3 -104.45 -43.2 -108.9 -43.7 -109.4 -43.5 -110.15 -42.45 -114.3 -37.75 -114.65 L-35.55 -114.95 Q-30.55 -116.15 -25.65 -117.9 -20.8 -119.65 -15.75 -119.3 L-3.45 -118.5 -6.25 -122.75 -8.25 -126.0 Q-8.6 -126.55 -8.55 -127.1 L-9.3 -127.1 -9.25 -127.2 Q-11.2 -130.05 -11.2 -133.75 -11.2 -138.65 -7.75 -142.1 -4.3 -145.55 0.6 -145.55 5.5 -145.55 8.95 -142.1" fill="#000000" fill-rule="evenodd" stroke="none"/>
  </g>
</svg>
