<?xml version="1.0" encoding="UTF-8" standalone="no"?>
<svg xmlns:ffdec="https://www.free-decompiler.com/flash" xmlns:xlink="http://www.w3.org/1999/xlink" ffdec:objectType="shape" height="119.4px" width="133.15px" xmlns="http://www.w3.org/2000/svg">
  <g transform="matrix(1.0, 0.0, 0.0, 1.0, 50.55, 156.1)">
    <path d="M1.35 -155.9 L1.5 -155.95 2.8 -156.1 3.2 -155.8 3.7 -155.45 3.75 -155.25 3.75 -155.05 3.8 -154.9 8.0 -151.35 8.7 -150.95 Q11.0 -150.55 13.15 -151.3 L13.55 -151.45 14.85 -151.85 16.0 -152.3 16.25 -151.3 16.4 -148.65 16.4 -148.15 16.5 -146.55 -7.6 -146.65 -10.15 -146.45 -11.5 -146.35 -11.45 -146.9 -11.2 -148.85 -10.8 -151.6 Q-9.05 -151.85 -7.45 -152.55 L-5.25 -153.55 -3.3 -153.95 -2.05 -154.15 -1.0 -154.55 -0.15 -154.9 1.0 -155.7 1.35 -155.9 M35.95 -138.65 Q38.25 -139.8 40.3 -140.0 L40.35 -139.75 40.55 -137.45 Q40.5 -136.35 40.75 -135.25 43.95 -133.85 46.8 -131.85 L47.1 -131.55 47.65 -130.95 48.15 -130.4 48.2 -130.3 48.5 -130.0 48.65 -129.75 48.85 -129.45 49.3 -128.7 49.65 -127.95 Q50.25 -126.7 50.4 -125.25 L49.35 -124.4 48.85 -124.05 48.15 -123.3 48.15 -123.05 Q48.15 -121.85 48.4 -120.75 48.65 -119.35 48.4 -118.05 L48.35 -118.05 48.15 -117.8 48.0 -117.7 47.8 -117.45 47.75 -117.45 47.0 -117.4 46.6 -117.15 46.55 -116.95 46.6 -116.75 46.65 -116.5 45.85 -115.5 43.6 -113.3 42.25 -113.75 42.25 -113.7 42.05 -113.65 41.95 -113.6 41.85 -113.45 41.7 -113.1 41.65 -112.85 40.75 -112.3 40.1 -111.8 40.1 -111.85 Q38.9 -112.85 37.35 -111.7 L37.2 -111.9 37.15 -112.0 36.65 -112.5 36.65 -112.65 36.65 -112.85 36.25 -113.05 Q35.45 -113.55 34.55 -112.65 L34.4 -112.5 34.1 -112.35 33.8 -112.2 Q33.55 -112.0 33.25 -111.95 L33.1 -112.0 32.95 -112.1 32.05 -112.65 31.0 -113.35 30.75 -113.5 29.05 -113.1 28.1 -113.0 26.45 -111.8 26.6 -111.0 26.65 -110.8 27.35 -109.05 27.6 -108.65 Q28.35 -107.6 29.4 -106.85 L29.3 -106.55 29.3 -106.5 29.2 -106.2 29.45 -105.55 Q30.0 -104.75 31.1 -104.6 L31.5 -104.35 Q33.55 -103.75 35.85 -105.05 L37.7 -103.85 38.4 -103.65 39.9 -103.85 40.95 -104.05 Q43.35 -104.25 44.15 -106.8 L45.1 -107.65 45.95 -107.65 47.8 -107.9 48.9 -108.25 50.7 -108.6 51.05 -108.55 52.25 -108.55 52.35 -108.0 52.35 -107.85 52.6 -107.3 52.85 -107.1 53.4 -106.9 54.5 -107.35 Q57.1 -108.75 59.75 -109.8 L60.1 -109.9 60.5 -110.05 60.85 -110.1 61.15 -110.2 61.4 -110.2 61.9 -110.25 62.25 -110.35 62.8 -110.45 63.5 -110.45 64.15 -110.45 64.75 -110.35 65.6 -110.3 Q66.2 -109.95 66.8 -109.75 L69.25 -109.55 Q70.45 -109.7 71.6 -110.2 73.65 -111.15 75.45 -111.35 L76.25 -107.7 Q76.55 -105.8 77.2 -104.05 L77.3 -103.95 77.5 -103.0 Q78.55 -99.95 80.85 -97.95 L81.45 -97.45 81.6 -97.25 81.75 -96.95 81.9 -96.7 81.7 -96.35 81.5 -96.1 81.55 -95.8 81.45 -95.6 81.35 -95.5 80.5 -94.7 78.6 -92.85 77.6 -91.45 Q77.4 -88.75 79.3 -86.85 81.55 -84.65 82.6 -81.8 80.95 -81.45 79.6 -80.25 L79.15 -79.85 78.7 -79.5 Q77.5 -78.7 76.6 -77.65 L76.0 -76.8 75.25 -76.75 74.9 -76.8 71.8 -77.25 66.55 -77.55 66.55 -77.45 66.45 -77.25 65.95 -75.15 65.85 -73.05 65.85 -72.8 61.9 -72.1 59.6 -72.3 Q57.65 -72.5 56.15 -71.55 L56.1 -71.3 55.95 -70.6 55.85 -69.9 56.2 -69.4 56.65 -68.7 56.7 -68.45 56.65 -68.25 56.65 -68.0 56.6 -67.75 57.05 -67.15 57.45 -66.35 57.6 -64.7 Q56.4 -64.15 55.15 -63.9 50.65 -63.05 46.95 -60.35 47.2 -58.3 47.95 -56.35 L48.2 -55.7 48.45 -55.2 48.8 -54.5 49.0 -53.9 51.15 -48.8 Q48.55 -48.45 46.15 -47.45 L45.75 -47.3 45.5 -46.6 Q44.8 -45.2 44.55 -43.5 L44.35 -41.85 44.35 -39.55 43.8 -39.55 42.15 -39.4 Q39.95 -39.55 38.1 -38.8 L38.0 -38.6 37.9 -38.4 36.65 -37.7 35.5 -36.7 Q34.9 -36.8 34.55 -37.25 L33.4 -38.15 Q31.75 -41.8 28.0 -40.15 L27.55 -39.95 26.05 -39.1 Q24.2 -37.85 22.55 -37.45 L21.45 -39.1 21.2 -39.6 20.95 -40.7 20.8 -40.95 20.65 -41.25 20.65 -41.45 20.65 -41.75 20.5 -42.0 20.3 -42.25 19.9 -42.5 19.1 -42.4 18.35 -42.2 Q16.6 -41.45 15.25 -41.85 16.55 -43.65 17.05 -45.75 L17.25 -46.3 17.4 -46.55 17.8 -47.55 Q18.4 -49.3 18.2 -50.95 L17.85 -52.5 Q17.45 -53.45 16.65 -53.95 14.85 -55.1 13.2 -56.6 L11.7 -57.55 Q10.6 -58.15 9.6 -58.85 L10.85 -60.55 Q12.4 -62.05 13.05 -64.2 13.75 -64.85 13.75 -66.0 L13.55 -67.9 Q12.4 -68.9 11.3 -68.85 12.4 -69.75 13.25 -70.95 L13.85 -72.05 14.5 -72.75 15.15 -73.6 16.6 -75.95 16.45 -76.15 Q15.5 -77.15 14.1 -77.6 L13.85 -77.75 13.15 -78.05 12.5 -78.4 11.45 -78.7 2.5 -79.65 2.7 -80.1 Q3.0 -81.8 3.65 -83.35 4.6 -85.5 4.0 -87.75 L3.1 -88.3 2.45 -88.7 1.2 -89.5 -1.5 -90.45 -3.35 -90.9 Q-2.55 -93.2 -2.3 -95.6 L-2.3 -95.7 -2.15 -96.35 -2.1 -96.95 -2.1 -100.0 Q-2.75 -101.2 -3.95 -100.9 L-5.0 -100.85 -5.6 -101.2 -5.55 -101.35 Q-5.35 -102.25 -5.5 -103.1 -5.65 -104.15 -6.5 -104.85 L-6.6 -105.05 -7.0 -106.3 -7.2 -107.2 Q-9.2 -108.65 -11.15 -107.05 -15.05 -104.15 -19.25 -101.85 L-20.0 -101.15 -20.75 -100.45 -20.7 -102.65 Q-20.55 -103.65 -20.55 -104.65 L-20.65 -104.85 -20.85 -105.1 -21.0 -105.25 -21.15 -105.4 -21.25 -105.4 -21.45 -105.4 -21.6 -105.35 -22.0 -105.1 Q-22.4 -104.85 -22.9 -104.55 L-33.65 -98.1 Q-35.4 -97.0 -37.1 -96.55 L-37.2 -97.05 -37.35 -97.6 -37.45 -98.1 -37.85 -101.7 Q-37.95 -102.45 -38.45 -102.8 -40.4 -104.0 -42.5 -103.6 L-43.15 -103.4 Q-45.8 -102.6 -48.45 -102.6 L-48.4 -105.55 -48.4 -106.45 -48.25 -110.5 Q-48.15 -111.55 -48.2 -112.7 -48.0 -114.5 -48.15 -116.35 L-48.25 -117.35 -49.0 -117.85 -50.15 -118.6 -50.55 -118.8 -50.0 -119.55 -49.5 -120.15 -49.35 -120.35 Q-48.25 -121.2 -47.6 -122.2 L-47.3 -122.35 -46.25 -123.05 Q-45.35 -123.65 -45.25 -124.7 -45.15 -126.2 -45.6 -127.75 L-44.85 -128.1 -44.0 -128.55 -41.7 -130.15 -42.15 -132.35 -42.4 -134.5 -42.1 -134.75 -36.6 -136.05 -34.25 -135.8 -31.1 -134.95 -29.15 -134.15 Q-26.7 -132.85 -24.75 -133.6 L-24.7 -133.8 -24.65 -134.15 -24.65 -134.5 -23.4 -134.55 -23.0 -134.5 -22.7 -134.4 -22.35 -134.35 -21.5 -134.1 -21.05 -133.95 -20.95 -133.85 -20.7 -133.75 -20.35 -133.5 -19.4 -133.05 -18.8 -132.85 -18.5 -132.8 -18.1 -132.75 -17.6 -132.65 -17.1 -132.6 -16.75 -132.6 -16.5 -132.65 -15.9 -132.7 -15.25 -132.8 -14.75 -132.85 -14.5 -133.05 -14.3 -133.35 -14.25 -133.45 -14.15 -133.6 Q-14.1 -134.05 -14.45 -134.3 L-15.85 -135.15 -15.9 -135.35 -16.2 -135.85 -16.35 -136.2 -16.4 -136.3 -15.95 -136.55 -15.6 -136.7 Q-15.05 -137.5 -15.0 -138.25 -14.95 -139.0 -15.3 -139.8 L-15.7 -141.1 -12.65 -141.1 -8.85 -141.15 15.2 -141.3 15.3 -141.0 15.6 -140.8 16.15 -140.6 16.5 -140.65 16.7 -140.7 16.95 -140.85 17.1 -141.05 17.25 -141.2 17.85 -141.35 25.55 -141.4 Q27.9 -140.1 30.0 -137.6 30.3 -137.2 30.75 -137.25 L32.15 -137.45 32.45 -137.5 33.1 -137.65 33.6 -137.8 35.55 -138.4 35.95 -138.65" fill="#ffff00" fill-opacity="0.5019608" fill-rule="evenodd" stroke="none"/>
  </g>
</svg>
