<?xml version="1.0" encoding="UTF-8" standalone="no"?>
<svg xmlns:ffdec="https://www.free-decompiler.com/flash" xmlns:xlink="http://www.w3.org/1999/xlink" ffdec:objectType="shape" height="100.2px" width="117.55px" xmlns="http://www.w3.org/2000/svg">
  <g transform="matrix(1.0, 0.0, 0.0, 1.0, 42.0, 144.9)">
    <path d="M11.0 -133.1 Q11.0 -128.2 7.55 -124.75 5.85 -123.05 3.8 -122.15 L3.9 -121.85 4.75 -119.65 5.75 -119.8 32.5 -120.15 Q38.0 -120.15 43.0 -121.2 48.0 -121.05 46.4 -116.45 45.85 -114.9 44.35 -114.25 42.2 -113.35 39.95 -113.85 L34.45 -114.4 33.4 -114.4 Q20.35 -114.3 7.35 -114.5 L10.05 -108.7 Q13.2 -101.45 18.05 -95.45 L22.2 -90.6 Q22.85 -91.8 25.0 -92.15 L29.65 -92.65 Q36.65 -93.1 43.4 -94.5 L44.45 -94.55 66.1 -90.2 66.7 -90.1 Q68.95 -93.05 70.2 -96.5 70.55 -97.5 71.6 -97.7 L72.15 -97.8 Q76.8 -96.75 75.05 -92.2 L74.2 -90.3 Q71.95 -85.95 67.45 -84.3 L65.85 -84.2 44.8 -88.3 39.2 -88.0 35.45 -87.05 26.8 -86.55 Q30.3 -83.35 33.4 -79.75 35.7 -78.65 36.85 -76.55 39.85 -74.45 41.7 -71.5 42.2 -70.8 41.7 -69.95 39.65 -66.5 36.4 -63.75 29.95 -58.3 22.65 -54.0 L27.0 -48.35 Q27.65 -47.5 27.05 -46.55 24.9 -43.35 21.7 -45.7 17.8 -48.6 16.4 -53.2 15.25 -57.2 19.25 -59.15 24.85 -61.9 29.55 -65.85 32.05 -68.0 34.05 -70.4 32.15 -72.9 29.45 -75.4 L20.8 -83.45 Q15.4 -88.45 11.25 -94.4 6.6 -101.0 3.55 -108.6 2.95 -110.15 2.0 -111.6 L0.85 -113.65 -0.05 -113.45 -8.3 -113.75 -18.6 -115.9 -21.7 -116.55 Q-28.95 -118.35 -36.4 -118.35 -40.85 -117.1 -41.85 -121.85 -42.6 -125.3 -39.35 -126.45 L-38.8 -126.6 Q-36.45 -126.85 -35.4 -124.9 L-35.25 -124.6 Q-28.3 -124.05 -21.45 -122.35 -11.65 -120.0 -1.7 -118.65 -2.35 -120.0 -2.65 -121.45 -6.2 -121.9 -8.05 -124.9 L-8.25 -125.05 -9.75 -125.05 -10.75 -125.6 -10.65 -126.45 -10.7 -126.45 -10.65 -126.55 -11.25 -127.55 -11.85 -128.8 -12.0 -129.3 Q-12.6 -131.1 -12.6 -133.1 -12.6 -138.0 -9.15 -141.45 -5.7 -144.9 -0.8 -144.9 L1.4 -144.7 Q4.3 -144.2 6.65 -142.25 L7.55 -141.45 Q11.0 -138.0 11.0 -133.1" fill="#000000" fill-rule="evenodd" stroke="none"/>
  </g>
</svg>
