<?xml version="1.0" encoding="UTF-8" standalone="no"?>
<svg xmlns:ffdec="https://www.free-decompiler.com/flash" xmlns:xlink="http://www.w3.org/1999/xlink" ffdec:objectType="shape" height="91.0px" width="104.85px" xmlns="http://www.w3.org/2000/svg">
  <g transform="matrix(1.0, 0.0, 0.0, 1.0, 36.75, 145.55)">
    <path d="M10.75 -133.75 Q10.75 -128.85 7.3 -125.4 L5.35 -123.75 Q5.1 -122.95 4.2 -122.45 L4.8 -119.9 4.85 -119.6 24.65 -117.45 32.15 -116.6 Q36.8 -119.85 39.6 -115.55 40.2 -114.65 40.1 -113.45 39.9 -110.8 37.2 -110.7 29.95 -110.35 22.85 -111.55 L14.95 -112.65 7.15 -113.25 Q10.35 -105.7 14.95 -98.75 18.1 -94.05 22.5 -90.6 L22.55 -90.55 22.55 -90.6 27.3 -93.65 35.65 -98.65 Q38.05 -100.05 40.75 -100.6 L45.1 -100.25 49.6 -98.7 Q51.9 -97.95 54.0 -96.55 54.45 -96.25 55.05 -96.0 57.75 -94.95 60.75 -94.4 62.2 -97.45 62.35 -101.35 62.4 -102.75 63.85 -103.25 L64.85 -103.55 Q68.95 -101.95 67.85 -97.15 L67.1 -93.15 Q66.3 -88.2 61.8 -88.05 L58.85 -88.45 Q54.5 -89.65 50.35 -91.6 46.2 -93.6 41.85 -94.8 L26.9 -86.75 Q28.45 -85.65 29.8 -84.15 L30.05 -83.85 Q36.8 -80.0 42.15 -74.7 45.05 -71.85 41.65 -69.7 L40.7 -69.4 Q30.35 -68.15 20.8 -64.25 L24.85 -57.75 Q25.15 -57.2 24.85 -56.6 23.1 -52.95 20.15 -55.75 17.0 -58.7 14.75 -62.35 11.9 -67.05 17.05 -69.2 24.55 -72.4 32.6 -74.05 L33.5 -74.35 20.0 -84.05 Q18.25 -85.3 18.3 -86.55 11.95 -91.25 7.95 -98.2 L4.95 -103.5 Q3.6 -105.85 2.75 -108.45 1.65 -110.75 0.7 -113.1 L-0.15 -113.35 Q-4.6 -114.85 -8.65 -117.2 L-27.75 -123.65 Q-30.75 -124.6 -33.8 -125.65 -37.3 -126.9 -36.65 -130.5 -36.2 -132.9 -33.8 -133.15 -31.5 -133.35 -30.45 -131.4 L-30.35 -131.1 Q-19.4 -127.55 -8.5 -123.1 -5.15 -121.7 -1.75 -120.55 L-2.35 -121.75 -3.1 -121.85 Q-7.4 -122.5 -9.4 -125.7 L-10.0 -125.7 -11.0 -126.25 -10.9 -127.1 -10.95 -127.1 -10.9 -127.2 -11.5 -128.2 -12.1 -129.45 -12.25 -129.95 Q-12.85 -131.75 -12.85 -133.75 -12.85 -138.65 -9.4 -142.1 -5.95 -145.55 -1.05 -145.55 L1.15 -145.35 Q4.05 -144.85 6.4 -142.9 L7.3 -142.1 Q10.75 -138.65 10.75 -133.75" fill="#000000" fill-rule="evenodd" stroke="none"/>
  </g>
</svg>
