<?xml version="1.0" encoding="UTF-8" standalone="no"?>
<svg xmlns:ffdec="https://www.free-decompiler.com/flash" xmlns:xlink="http://www.w3.org/1999/xlink" ffdec:objectType="shape" height="111.8px" width="113.7px" xmlns="http://www.w3.org/2000/svg">
  <g transform="matrix(1.0, 0.0, 0.0, 1.0, 38.75, 157.9)">
    <path d="M7.65 -156.55 Q9.35 -157.0 11.1 -157.75 L11.35 -157.8 12.4 -157.9 13.3 -157.55 13.6 -156.85 13.85 -154.75 13.85 -154.3 13.85 -151.35 13.45 -149.7 13.6 -149.7 14.65 -148.95 14.95 -148.85 15.45 -148.7 15.85 -148.65 16.05 -148.65 16.3 -148.6 16.55 -148.6 16.8 -148.6 17.8 -148.65 18.95 -148.75 20.95 -148.25 20.95 -148.05 Q19.75 -146.3 18.75 -143.25 L18.6 -142.8 18.25 -142.1 18.35 -141.95 18.55 -141.6 18.75 -141.25 Q19.4 -140.8 20.2 -140.55 L20.45 -140.6 Q22.2 -140.25 23.75 -139.55 L23.9 -139.4 24.85 -137.85 25.75 -136.3 30.0 -132.75 29.95 -132.45 29.85 -131.9 29.8 -131.35 29.75 -131.25 29.85 -130.95 29.9 -130.7 29.9 -130.4 29.65 -129.95 29.45 -129.4 29.7 -127.05 29.35 -126.15 29.2 -125.8 28.95 -125.05 28.95 -124.85 29.0 -123.4 -33.95 -123.5 -34.65 -124.75 -35.15 -125.3 -37.1 -127.55 -37.95 -129.05 -37.95 -132.0 -38.0 -132.75 -38.25 -133.3 -38.6 -134.3 -38.75 -134.35 -38.3 -135.0 -37.95 -135.5 -37.85 -135.65 -35.95 -136.15 -35.75 -136.2 -34.8 -136.4 Q-33.9 -136.65 -33.5 -137.25 -33.0 -138.15 -33.15 -139.6 L-32.9 -140.15 -32.85 -140.8 -33.3 -142.65 -34.05 -144.3 -34.55 -145.9 -34.55 -146.2 Q-34.3 -148.1 -33.25 -150.1 L-31.3 -150.0 -28.9 -149.0 -27.3 -148.25 Q-25.55 -147.3 -24.0 -146.95 L-23.85 -146.9 -23.55 -146.8 -23.3 -146.75 -22.55 -146.6 -22.35 -146.35 -22.25 -146.15 -22.15 -146.15 -21.9 -146.0 -21.25 -145.75 -20.85 -145.7 -20.8 -145.7 -20.6 -145.6 -20.4 -145.35 -19.55 -144.9 -19.05 -144.9 -18.85 -144.95 -18.6 -145.0 -18.35 -145.2 -18.15 -145.35 -18.0 -145.55 -17.95 -145.75 -17.95 -146.15 -17.8 -146.55 -17.3 -146.8 -17.05 -147.0 -16.85 -147.25 -16.8 -147.35 -16.7 -147.45 -16.55 -147.95 -16.2 -148.9 -16.1 -149.0 -15.95 -149.3 -15.8 -149.55 -15.85 -149.6 -15.55 -149.5 -15.25 -149.25 -14.7 -148.75 -14.5 -148.1 Q-14.25 -147.45 -13.4 -147.25 L-12.75 -146.95 -12.3 -147.15 -11.35 -147.65 -10.65 -148.2 -10.2 -148.75 -9.7 -149.25 -9.4 -149.7 -8.55 -151.0 -7.35 -152.9 -5.05 -154.3 -3.25 -155.55 -2.2 -154.7 -1.5 -154.0 -0.55 -153.9 0.2 -154.0 1.15 -154.75 1.4 -154.95 1.5 -155.05 2.45 -155.65 2.75 -155.65 3.1 -155.75 3.2 -155.75 3.25 -155.75 3.35 -155.75 7.15 -156.5 7.65 -156.55 M36.5 -118.4 L36.75 -118.4 36.75 -117.55 36.95 -116.95 37.0 -116.75 37.4 -115.2 37.65 -114.9 Q38.35 -114.05 39.3 -113.65 L39.45 -113.5 39.45 -113.45 39.65 -113.45 40.05 -113.45 Q40.75 -113.5 41.5 -113.95 L41.65 -113.85 Q43.0 -114.6 44.4 -115.9 L45.9 -116.7 46.35 -116.9 47.2 -117.5 47.95 -117.7 Q49.45 -116.6 50.6 -116.4 L51.45 -116.0 52.0 -115.7 Q52.65 -115.3 53.35 -115.05 L54.1 -114.75 55.35 -114.25 55.6 -114.1 56.55 -113.8 56.9 -113.45 56.9 -113.4 57.35 -113.15 Q57.45 -113.05 57.55 -113.05 L58.05 -112.9 59.05 -112.9 63.5 -113.65 63.4 -113.45 63.35 -113.3 63.4 -113.15 63.5 -113.0 63.55 -112.8 63.55 -112.6 63.5 -112.45 63.55 -112.3 63.75 -111.9 64.0 -111.5 64.2 -111.1 64.85 -110.65 65.65 -110.0 Q66.6 -109.55 67.45 -109.3 L69.2 -108.75 Q70.8 -108.3 71.9 -107.45 72.5 -106.1 72.75 -104.55 L73.15 -101.7 73.15 -101.65 72.65 -100.9 Q71.6 -98.75 71.1 -96.8 L71.3 -96.25 71.35 -96.05 71.4 -95.8 71.45 -95.55 71.45 -95.2 71.45 -94.85 71.5 -94.65 71.45 -94.5 71.4 -94.45 71.3 -93.7 Q71.15 -92.85 71.15 -91.9 L71.25 -90.7 Q71.75 -88.75 72.85 -87.0 74.15 -84.9 74.95 -82.55 L74.45 -80.0 74.3 -79.8 73.95 -79.5 71.85 -79.1 71.15 -79.0 70.6 -79.2 70.35 -79.25 68.0 -80.1 Q65.85 -80.8 63.8 -80.15 L63.8 -80.1 63.75 -79.85 63.6 -78.15 63.55 -76.5 63.55 -76.3 62.25 -73.7 60.4 -73.75 57.5 -73.2 57.35 -73.1 56.9 -72.75 56.45 -72.35 56.3 -72.05 56.1 -71.65 56.05 -71.5 56.0 -71.45 55.9 -71.3 55.75 -71.1 55.75 -70.5 55.85 -69.8 55.85 -68.35 54.95 -66.75 Q53.3 -64.1 52.1 -60.7 L52.45 -57.5 52.4 -57.1 52.35 -56.75 52.25 -56.35 51.85 -56.15 49.05 -54.15 44.9 -53.45 44.6 -53.35 44.15 -53.05 Q43.1 -52.35 42.5 -51.1 L42.05 -49.8 42.0 -47.95 41.85 -47.7 41.0 -46.8 37.85 -47.35 37.7 -47.35 37.55 -47.35 36.45 -47.3 35.25 -47.05 34.5 -47.3 33.45 -47.65 28.25 -47.8 27.9 -47.7 26.7 -47.2 23.75 -46.1 22.4 -46.3 22.05 -46.35 21.8 -47.2 21.75 -47.4 21.7 -47.65 21.7 -47.8 21.7 -48.0 21.6 -48.25 21.55 -48.5 21.35 -48.85 21.15 -49.6 21.0 -50.15 19.7 -51.9 Q19.7 -53.6 18.8 -55.0 L18.65 -55.35 18.7 -55.4 18.85 -56.3 Q19.0 -57.75 19.55 -58.8 L20.1 -59.85 20.4 -61.15 Q20.7 -62.55 20.65 -64.35 L19.45 -65.25 17.7 -66.15 16.85 -67.25 15.3 -69.55 14.4 -70.75 13.45 -71.85 11.65 -72.7 10.8 -74.25 10.1 -75.1 10.55 -75.7 11.05 -76.4 Q11.2 -77.5 11.8 -78.4 L11.9 -78.6 11.75 -80.25 11.7 -80.45 12.05 -80.95 12.25 -81.65 Q12.1 -82.05 11.5 -82.15 L4.25 -83.1 4.0 -83.35 2.3 -84.75 -0.15 -86.75 -0.95 -87.0 -1.6 -87.25 -2.35 -88.25 -3.6 -89.95 -4.3 -91.2 -3.95 -95.0 -3.95 -95.15 -3.8 -95.55 -3.65 -95.95 -3.65 -98.35 Q-3.9 -99.35 -4.3 -99.85 L-4.65 -100.5 -4.95 -101.0 -5.0 -101.1 -5.75 -102.1 -6.85 -103.2 -7.05 -103.35 -7.7 -104.1 -8.15 -104.65 Q-9.75 -105.7 -11.3 -105.75 L-18.5 -107.0 -18.1 -107.1 -17.7 -107.2 -16.75 -108.6 -16.0 -109.9 -15.9 -110.1 -15.9 -110.25 -15.85 -110.5 -15.9 -110.65 -15.9 -110.75 -16.0 -110.85 -16.05 -111.0 -16.15 -111.25 -16.65 -111.6 Q-21.4 -111.95 -26.3 -111.75 L-29.25 -111.75 -29.45 -112.1 -29.6 -112.5 -29.8 -112.85 -29.9 -115.7 -30.1 -116.65 -30.8 -118.55 Q2.3 -118.4 35.4 -118.4 L35.45 -118.3 35.4 -118.05 35.4 -117.7 35.35 -117.65 35.4 -117.55 35.75 -117.3 36.15 -117.95 36.2 -118.05 36.5 -118.4" fill="#ffff00" fill-opacity="0.5019608" fill-rule="evenodd" stroke="none"/>
  </g>
</svg>
