<?xml version="1.0" encoding="UTF-8" standalone="no"?>
<svg xmlns:ffdec="https://www.free-decompiler.com/flash" xmlns:xlink="http://www.w3.org/1999/xlink" ffdec:objectType="shape" height="87.9px" width="94.3px" xmlns="http://www.w3.org/2000/svg">
  <g transform="matrix(1.0, 0.0, 0.0, 1.0, 30.5, 146.1)">
    <path d="M9.8 -134.3 Q9.8 -129.4 6.35 -125.95 4.85 -124.45 3.05 -123.55 L4.15 -121.25 4.15 -121.2 4.6 -120.85 5.85 -120.3 6.5 -120.45 Q15.95 -118.05 24.9 -114.2 L26.3 -114.05 Q31.0 -114.8 31.75 -110.5 32.05 -108.65 30.3 -107.95 27.9 -107.05 25.4 -107.9 16.5 -110.9 7.9 -114.2 11.25 -109.3 13.6 -103.85 15.85 -99.0 18.6 -94.5 20.0 -92.25 21.75 -90.45 21.8 -91.85 23.35 -93.2 L25.45 -94.65 Q30.05 -97.3 33.95 -101.05 L36.55 -103.2 Q39.25 -105.05 42.4 -103.9 50.0 -101.15 57.75 -99.05 55.65 -103.05 59.0 -105.4 L59.9 -105.85 Q63.8 -104.3 63.8 -99.8 63.8 -96.45 62.2 -93.6 61.25 -91.85 59.35 -92.35 54.35 -93.65 49.4 -95.35 44.6 -97.0 39.65 -98.05 35.2 -92.8 29.0 -89.4 L25.35 -87.55 Q27.2 -86.35 29.35 -85.5 L38.85 -81.75 Q42.8 -80.25 46.25 -77.9 47.6 -77.0 47.1 -75.4 46.15 -72.55 43.15 -71.35 41.75 -70.8 40.2 -70.6 L26.65 -68.5 Q29.1 -65.05 31.85 -61.9 32.8 -60.85 31.8 -59.7 29.4 -56.9 26.5 -59.4 23.05 -62.45 20.5 -66.4 19.95 -67.25 19.55 -68.25 17.5 -72.9 22.7 -73.9 L36.65 -76.1 Q29.2 -78.9 22.0 -82.35 20.35 -83.1 19.1 -84.45 14.95 -88.6 11.95 -93.7 9.35 -98.1 7.75 -102.95 2.9 -110.1 -1.45 -117.65 L-1.75 -117.9 Q-6.0 -121.65 -11.0 -124.35 -16.8 -127.55 -22.25 -131.35 L-27.65 -135.35 Q-30.1 -135.75 -30.45 -138.6 -30.8 -141.85 -27.65 -142.35 -24.1 -142.55 -23.35 -140.25 L-23.05 -139.55 -22.95 -139.25 -13.75 -133.0 -13.8 -134.3 Q-13.8 -139.2 -10.35 -142.65 -6.9 -146.1 -2.0 -146.1 L0.2 -145.9 Q3.1 -145.4 5.45 -143.45 L6.35 -142.65 Q9.8 -139.2 9.8 -134.3" fill="#000000" fill-rule="evenodd" stroke="none"/>
  </g>
</svg>
