<?xml version="1.0" encoding="UTF-8" standalone="no"?>
<svg xmlns:ffdec="https://www.free-decompiler.com/flash" xmlns:xlink="http://www.w3.org/1999/xlink" ffdec:objectType="shape" height="111.25px" width="104.75px" xmlns="http://www.w3.org/2000/svg">
  <g transform="matrix(1.0, 0.0, 0.0, 1.0, 32.85, 161.0)">
    <path d="M50.85 -124.35 L51.45 -124.55 Q53.25 -121.55 55.7 -119.0 L46.75 -118.65 50.85 -124.35 M4.6 -110.75 L7.15 -110.8 15.1 -111.35 34.1 -112.8 52.85 -113.65 64.55 -114.0 64.4 -113.8 64.1 -113.5 63.9 -113.25 63.9 -112.65 63.9 -112.05 63.9 -111.5 Q64.4 -110.7 65.1 -110.15 65.85 -109.6 66.55 -109.15 71.45 -106.0 71.1 -100.55 L70.25 -99.85 Q68.1 -98.15 66.2 -96.25 66.1 -95.05 66.45 -93.95 66.8 -92.6 67.45 -91.45 70.55 -85.85 71.9 -79.8 L71.6 -79.5 69.45 -79.85 Q68.7 -80.1 68.1 -80.5 65.2 -82.5 62.4 -81.45 L62.4 -78.25 62.4 -74.5 Q58.75 -74.8 55.65 -73.05 55.15 -72.8 55.1 -72.2 54.55 -65.2 54.7 -58.1 L54.5 -57.8 54.3 -57.55 53.95 -57.25 44.3 -56.45 Q41.85 -56.2 40.9 -53.8 L40.85 -51.75 Q40.85 -51.05 40.4 -50.5 34.7 -53.6 28.4 -51.65 L22.45 -49.75 Q21.85 -51.4 22.15 -53.2 22.9 -57.6 19.35 -59.85 L19.35 -60.7 Q19.3 -62.0 20.25 -62.75 23.05 -65.0 24.35 -68.2 24.0 -68.85 23.3 -69.1 15.45 -72.45 8.25 -76.65 L8.6 -77.2 9.0 -77.8 Q8.8 -79.0 9.6 -79.85 10.4 -80.7 10.65 -81.8 L11.5 -82.4 12.1 -83.25 Q12.1 -83.8 11.55 -83.9 3.85 -84.95 -3.65 -86.55 -4.5 -88.0 -4.65 -89.7 -4.9 -92.25 -4.8 -94.9 L-4.65 -95.15 -4.45 -95.45 -4.45 -100.35 Q-4.45 -100.8 -4.75 -101.0 -11.65 -105.1 -18.15 -109.6 L-17.15 -110.05 -15.9 -110.8 4.6 -110.75 M2.25 -155.4 Q5.65 -158.8 10.05 -160.95 L10.25 -161.0 11.2 -160.95 Q12.7 -159.75 12.55 -157.8 12.4 -155.45 12.55 -153.2 16.65 -152.7 20.25 -151.05 L20.0 -150.85 Q15.15 -148.1 11.3 -144.45 L11.3 -144.15 11.3 -143.55 11.3 -143.0 12.5 -141.65 Q17.7 -137.9 21.6 -133.2 L21.35 -132.9 20.95 -132.35 20.5 -131.75 20.5 -131.45 20.5 -131.2 20.45 -130.9 19.8 -130.55 19.35 -130.15 19.35 -126.65 19.45 -122.05 20.25 -121.9 Q27.6 -123.85 35.1 -124.75 35.45 -123.95 35.4 -123.05 35.35 -122.25 35.7 -121.6 L36.1 -121.3 36.5 -120.45 Q36.9 -119.8 37.6 -119.65 L38.7 -120.25 41.25 -122.05 Q41.6 -120.95 42.1 -119.95 42.45 -119.25 42.4 -118.4 L31.15 -117.65 5.9 -116.4 -15.4 -115.95 Q-20.25 -118.0 -25.35 -119.35 L-25.55 -119.65 -25.75 -119.95 -25.95 -120.25 Q-26.15 -123.75 -25.5 -127.15 -24.6 -131.65 -27.75 -134.35 -28.1 -134.65 -28.5 -134.75 -31.05 -135.3 -32.85 -137.25 L-32.85 -139.85 -32.85 -142.15 -32.45 -142.7 -32.1 -143.3 -29.95 -143.1 Q-26.55 -142.8 -26.95 -146.2 L-27.3 -146.9 Q-31.85 -151.1 -31.6 -157.1 L-29.85 -157.1 Q-25.75 -155.15 -22.1 -152.6 L-22.05 -152.3 -22.0 -152.05 -21.7 -151.8 -21.15 -151.55 -20.75 -151.6 -20.55 -151.55 -20.4 -151.3 -19.6 -150.8 -19.2 -150.9 -19.05 -151.0 -18.85 -151.15 -18.75 -151.45 -18.65 -151.75 -18.65 -152.05 -18.65 -152.3 -18.95 -152.9 -19.1 -153.45 -18.05 -154.3 -15.55 -156.25 Q-14.7 -155.25 -14.55 -154.0 -14.05 -150.7 -11.55 -148.85 -10.9 -149.05 -10.35 -149.5 L-2.25 -156.55 -1.65 -155.1 -1.25 -153.95 -0.35 -153.6 0.35 -153.55 1.2 -154.3 2.25 -155.4" fill="#ffff00" fill-opacity="0.5019608" fill-rule="evenodd" stroke="none"/>
  </g>
</svg>
