<?xml version="1.0" encoding="UTF-8" standalone="no"?>
<svg xmlns:ffdec="https://www.free-decompiler.com/flash" xmlns:xlink="http://www.w3.org/1999/xlink" ffdec:objectType="shape" height="83.05px" width="84.3px" xmlns="http://www.w3.org/2000/svg">
  <g transform="matrix(1.0, 0.0, 0.0, 1.0, 23.1, 145.55)">
    <path d="M6.55 -125.4 L4.45 -123.7 7.55 -119.25 Q12.35 -118.0 16.65 -114.9 L19.15 -113.35 22.0 -111.85 25.3 -109.8 Q29.4 -106.75 26.8 -102.6 26.35 -101.85 25.5 -101.75 20.5 -101.15 19.75 -105.65 15.9 -108.5 11.7 -110.8 L11.7 -110.05 15.45 -103.5 Q16.0 -102.55 15.9 -101.4 L19.4 -93.7 Q20.9 -94.85 22.55 -95.85 26.55 -98.25 28.95 -102.2 30.15 -104.15 32.0 -105.0 32.75 -107.45 36.15 -106.55 44.3 -104.3 52.6 -102.55 L52.5 -102.75 52.45 -103.05 52.4 -103.35 Q47.8 -106.05 51.35 -109.45 51.9 -110.0 52.6 -110.05 58.15 -108.25 59.65 -102.55 L59.7 -102.3 Q62.95 -98.2 59.2 -95.1 58.6 -94.6 57.75 -94.65 55.4 -94.8 53.75 -96.25 44.55 -98.3 35.85 -101.3 L35.5 -100.75 Q32.8 -96.85 29.45 -93.55 L26.7 -91.15 Q25.55 -90.25 24.3 -89.5 25.5 -88.9 27.2 -88.7 L27.35 -88.65 Q33.5 -87.3 39.65 -85.45 41.9 -84.75 44.25 -84.55 47.65 -84.25 49.55 -81.75 50.3 -80.8 49.8 -79.7 48.25 -76.15 44.2 -75.55 L37.55 -74.1 32.9 -73.0 38.6 -66.15 Q39.1 -65.5 38.7 -64.7 36.85 -60.8 33.4 -63.75 28.35 -68.1 25.8 -74.1 25.4 -75.0 25.95 -75.85 27.4 -78.15 30.4 -78.6 33.3 -79.1 36.15 -79.9 26.6 -83.0 16.85 -85.3 15.7 -85.6 15.45 -86.75 15.2 -88.05 15.6 -88.9 L14.65 -90.45 Q11.85 -95.15 10.05 -100.25 L6.7 -107.0 Q6.1 -108.05 5.85 -109.2 4.75 -111.85 2.95 -114.15 2.7 -114.45 2.6 -114.8 1.05 -114.8 -0.4 -116.25 L-2.5 -118.0 Q-11.45 -123.7 -18.0 -131.85 L-19.85 -133.75 Q-21.65 -135.3 -22.5 -137.25 -22.95 -138.3 -23.05 -139.45 -23.4 -142.4 -21.75 -144.5 -21.0 -145.4 -20.0 -145.4 -15.35 -145.8 -15.95 -141.7 -16.1 -140.6 -17.0 -139.95 L-13.5 -135.3 Q-13.05 -139.2 -10.15 -142.1 -6.7 -145.55 -1.8 -145.55 3.1 -145.55 6.55 -142.1 10.0 -138.65 10.0 -133.75 10.0 -128.85 6.55 -125.4" fill="#000000" fill-rule="evenodd" stroke="none"/>
  </g>
</svg>
