<?xml version="1.0" encoding="UTF-8" standalone="no"?>
<svg xmlns:ffdec="https://www.free-decompiler.com/flash" xmlns:xlink="http://www.w3.org/1999/xlink" ffdec:objectType="shape" height="100.6px" width="105.5px" xmlns="http://www.w3.org/2000/svg">
  <g transform="matrix(1.0, 0.0, 0.0, 1.0, 32.0, 156.15)">
    <path d="M5.6 -151.45 L4.6 -149.45 Q4.9 -149.25 5.25 -149.1 5.5 -148.95 5.75 -148.95 L6.35 -149.4 7.1 -150.2 Q9.65 -152.65 13.0 -154.25 13.75 -153.6 13.55 -152.7 L14.15 -152.45 Q14.95 -150.9 14.75 -148.8 L14.85 -145.25 Q18.8 -144.7 22.15 -142.95 L22.0 -142.25 Q18.45 -139.2 15.05 -135.7 L15.05 -135.4 15.1 -134.5 15.3 -134.05 16.4 -133.0 Q21.25 -130.2 25.15 -126.65 25.5 -125.9 25.35 -124.95 25.45 -124.25 25.75 -124.25 L25.45 -123.9 25.5 -123.8 27.7 -124.75 Q28.25 -123.65 28.45 -122.35 28.65 -121.9 28.7 -122.25 28.75 -122.85 29.15 -123.3 L30.2 -122.0 Q30.35 -119.4 31.2 -117.2 L31.95 -117.1 44.15 -120.4 Q44.7 -120.4 45.15 -119.95 45.15 -118.7 45.8 -117.65 46.15 -117.2 46.6 -116.9 47.6 -116.1 48.95 -115.9 49.25 -115.4 49.8 -115.25 L50.7 -115.6 52.6 -116.9 53.15 -115.15 Q53.45 -114.55 53.35 -113.85 L53.55 -113.35 Q54.1 -112.7 54.85 -112.5 55.9 -112.85 56.5 -113.65 L59.6 -117.4 60.1 -117.45 Q62.0 -114.3 64.8 -111.8 L65.95 -111.05 Q68.6 -110.25 70.55 -110.5 L71.1 -109.5 70.9 -109.2 70.85 -108.75 71.25 -107.85 70.65 -107.05 70.55 -106.75 Q70.55 -105.35 71.25 -104.15 L71.2 -103.95 64.4 -103.9 42.1 -103.35 17.25 -102.2 Q5.7 -101.5 -5.9 -101.65 L-6.4 -101.65 -6.8 -102.55 -9.6 -104.3 Q-14.75 -107.4 -19.65 -110.8 L-18.9 -111.35 Q-17.05 -112.3 -15.75 -113.9 L-15.75 -114.15 -15.75 -114.9 -15.9 -115.6 Q-20.15 -117.6 -24.7 -118.85 -24.75 -120.35 -26.0 -121.15 L-26.5 -121.9 -26.05 -122.55 Q-26.2 -125.2 -25.7 -127.8 -25.0 -131.25 -27.35 -133.35 -27.1 -134.1 -27.6 -135.0 -29.65 -136.15 -31.2 -138.35 L-31.3 -140.7 -32.0 -144.45 -31.35 -144.85 -29.25 -144.7 Q-27.15 -144.4 -25.95 -145.6 -23.4 -145.4 -23.7 -148.0 L-23.85 -148.95 Q-26.4 -151.05 -24.95 -155.05 -23.8 -155.25 -23.1 -155.85 L-17.0 -152.2 Q-16.3 -151.3 -15.4 -151.35 L-15.35 -151.2 Q-15.0 -152.0 -15.0 -152.9 L-14.5 -152.8 -14.1 -152.95 -12.6 -152.8 -11.8 -152.3 -11.2 -151.85 -10.85 -151.85 -10.4 -151.8 -10.2 -151.85 -10.0 -151.85 -9.9 -152.0 -9.9 -152.15 -9.45 -152.0 -9.45 -152.65 -9.55 -153.15 -8.75 -153.9 Q-6.9 -155.5 -4.5 -156.15 -4.0 -154.95 -4.25 -153.6 -4.5 -150.4 -3.05 -148.25 L-2.45 -148.35 3.9 -153.5 Q5.15 -152.85 5.6 -151.45 M73.45 -92.8 L72.8 -92.2 69.75 -89.0 Q69.5 -88.1 69.65 -87.35 L68.9 -86.05 Q70.35 -82.05 70.55 -77.8 69.35 -78.05 68.4 -77.2 66.55 -76.35 65.95 -75.15 L65.15 -75.3 Q62.95 -76.55 60.9 -75.5 61.1 -73.05 60.8 -70.6 60.55 -69.05 60.45 -67.25 L53.9 -66.65 Q53.15 -67.05 52.45 -66.25 51.75 -61.75 51.6 -57.4 L51.75 -57.5 Q52.05 -56.4 51.55 -55.55 L51.6 -57.4 51.5 -57.4 47.9 -57.8 40.65 -57.35 38.05 -57.3 34.15 -57.45 Q34.3 -56.95 34.05 -56.7 29.8 -59.05 25.1 -57.65 L20.7 -56.35 Q20.35 -57.7 20.75 -59.15 21.3 -62.5 18.65 -64.2 L18.8 -65.35 Q18.7 -66.4 19.35 -66.95 20.5 -68.6 20.75 -71.4 L19.95 -72.15 Q13.9 -75.05 8.45 -78.65 L8.45 -79.25 Q8.4 -78.7 7.85 -78.5 8.3 -79.2 8.35 -80.05 L8.0 -82.25 8.45 -82.95 7.85 -85.45 Q0.95 -87.25 -5.65 -89.6 -5.6 -91.4 -4.9 -93.25 L-5.0 -96.6 Q5.65 -96.6 16.3 -97.05 L40.85 -98.0 63.25 -98.5 71.45 -98.6 Q73.85 -96.35 73.45 -92.8" fill="#ffff00" fill-opacity="0.5019608" fill-rule="evenodd" stroke="none"/>
  </g>
</svg>
