<?xml version="1.0" encoding="UTF-8" standalone="no"?>
<svg xmlns:ffdec="https://www.free-decompiler.com/flash" xmlns:xlink="http://www.w3.org/1999/xlink" ffdec:objectType="shape" height="85.55px" width="82.45px" xmlns="http://www.w3.org/2000/svg">
  <g transform="matrix(1.0, 0.0, 0.0, 1.0, 17.5, 150.4)">
    <path d="M5.35 -123.85 L6.15 -121.85 Q7.35 -121.5 7.95 -120.25 L8.15 -119.95 17.1 -109.9 17.55 -109.4 Q22.85 -108.95 21.1 -103.95 20.2 -101.45 17.55 -102.35 16.7 -102.6 15.95 -103.0 L16.2 -101.15 20.9 -92.55 Q21.05 -93.2 21.75 -93.6 26.75 -96.45 31.55 -99.55 33.05 -100.5 34.25 -101.9 35.3 -103.1 36.85 -103.05 L58.75 -101.45 Q57.55 -105.1 60.5 -106.95 L61.4 -107.4 Q65.05 -106.0 64.95 -101.65 L64.55 -96.8 Q64.25 -94.85 62.2 -95.05 L42.85 -97.0 38.3 -97.2 Q34.05 -93.05 28.7 -90.3 L36.35 -88.35 Q43.15 -86.45 49.55 -83.65 51.45 -82.85 51.2 -80.8 50.55 -74.3 43.45 -74.55 L42.8 -74.5 36.75 -74.15 Q37.1 -73.45 37.7 -73.0 L38.65 -72.15 39.15 -71.3 Q43.35 -69.1 40.8 -65.7 39.9 -64.55 38.45 -64.95 35.5 -65.75 33.65 -68.3 L31.25 -71.05 Q28.35 -73.7 28.1 -77.45 28.05 -78.3 28.75 -78.8 31.35 -80.65 34.85 -80.0 L35.5 -79.95 41.15 -80.3 Q31.65 -83.3 22.05 -85.65 19.85 -84.1 17.5 -87.0 L16.1 -88.85 Q11.85 -95.0 9.9 -102.15 9.8 -102.4 9.85 -102.7 6.75 -108.75 2.9 -114.25 0.45 -117.75 -0.5 -121.65 L-1.3 -121.9 -2.4 -121.75 -3.0 -122.25 -6.1 -123.8 -6.1 -123.7 -6.2 -122.9 -9.45 -125.05 -10.95 -125.05 -11.95 -125.6 -11.85 -126.45 -11.9 -126.45 -11.85 -126.55 -12.45 -127.55 -13.05 -128.8 -13.2 -129.3 Q-13.8 -131.1 -13.8 -133.1 L-13.35 -136.45 Q-16.45 -140.15 -17.35 -145.05 -18.2 -149.4 -14.2 -150.4 -10.15 -149.4 -11.3 -145.55 L-11.45 -145.25 -9.65 -142.05 Q-6.45 -144.9 -2.0 -144.9 L0.2 -144.7 Q3.1 -144.2 5.45 -142.25 L6.35 -141.45 Q9.8 -138.0 9.8 -133.1 9.8 -128.2 6.35 -124.75 L5.35 -123.85" fill="#000000" fill-rule="evenodd" stroke="none"/>
  </g>
</svg>
