<?xml version="1.0" encoding="UTF-8" standalone="no"?>
<svg xmlns:ffdec="https://www.free-decompiler.com/flash" xmlns:xlink="http://www.w3.org/1999/xlink" ffdec:objectType="shape" height="103.55px" width="117.05px" xmlns="http://www.w3.org/2000/svg">
  <g transform="matrix(1.0, 0.0, 0.0, 1.0, 30.25, 155.95)">
    <path d="M9.5 -152.5 L9.9 -153.15 Q13.3 -155.6 17.55 -155.95 17.35 -154.3 16.4 -152.85 14.65 -149.85 13.95 -147.05 13.25 -146.8 13.4 -146.1 L16.15 -147.35 Q19.5 -147.1 20.1 -144.2 18.4 -142.15 16.25 -140.5 L16.45 -140.15 16.55 -139.7 16.6 -139.65 16.85 -139.75 18.95 -140.8 Q20.9 -138.85 20.1 -136.15 L20.05 -135.4 Q19.5 -133.25 19.1 -130.85 L19.5 -129.4 Q23.05 -128.75 25.9 -126.8 L25.95 -125.0 Q25.0 -121.35 22.55 -118.25 L22.5 -117.95 22.65 -116.45 Q22.95 -116.2 23.25 -116.1 23.75 -115.85 24.2 -115.75 28.4 -114.85 32.25 -113.6 33.6 -111.55 33.4 -109.0 34.0 -107.5 35.4 -108.05 L35.4 -108.15 35.5 -108.5 Q38.6 -110.55 42.05 -111.8 43.75 -108.8 44.5 -105.25 45.8 -104.25 46.55 -105.7 47.15 -107.85 48.7 -109.65 50.45 -111.2 51.9 -112.7 52.5 -109.55 54.65 -107.55 L55.3 -107.45 Q59.35 -109.2 62.25 -111.7 63.2 -113.35 64.6 -113.8 64.7 -111.6 65.95 -109.7 66.65 -108.75 67.65 -108.15 70.25 -106.65 73.8 -106.85 L74.2 -106.5 74.65 -106.35 75.25 -106.6 75.2 -105.6 75.25 -105.0 75.25 -104.05 75.5 -103.55 76.05 -103.75 77.05 -103.45 77.35 -103.3 Q78.05 -102.15 79.05 -101.25 L79.45 -100.8 81.0 -100.4 Q81.85 -98.95 83.2 -97.95 L83.15 -97.65 83.1 -96.95 Q84.2 -96.1 84.5 -94.7 L82.8 -92.9 82.8 -92.6 Q83.2 -88.7 85.55 -85.4 L85.5 -85.1 85.6 -82.85 86.3 -82.15 86.4 -81.85 Q86.85 -81.05 86.8 -80.4 L78.25 -79.95 Q78.75 -79.2 78.1 -77.3 L77.85 -76.9 76.85 -74.45 Q76.35 -74.15 76.05 -74.15 74.05 -75.1 71.75 -75.3 L67.8 -73.75 Q64.5 -74.8 62.05 -72.65 59.9 -70.9 59.25 -68.65 L20.85 -68.75 20.7 -68.8 Q21.25 -68.8 21.4 -69.1 20.0 -70.0 18.45 -69.6 L17.15 -69.55 17.9 -71.05 Q18.15 -72.25 17.3 -72.95 17.65 -73.8 17.65 -74.7 L17.5 -75.4 Q15.4 -75.8 13.5 -77.75 L13.2 -78.2 Q10.85 -80.3 8.8 -82.7 L8.2 -83.4 Q7.5 -83.3 7.3 -82.65 7.9 -78.2 4.3 -75.85 L3.7 -76.55 1.0 -81.9 1.1 -82.3 Q0.3 -85.35 0.4 -88.55 -4.85 -91.9 -9.7 -95.65 L-5.35 -100.35 -5.4 -101.85 -5.35 -102.55 -6.0 -103.3 -11.45 -107.0 Q-15.6 -108.75 -19.25 -110.9 L-22.6 -113.25 -22.35 -114.0 Q-21.4 -114.55 -20.75 -115.45 L-20.75 -115.7 -20.75 -116.15 -20.65 -116.55 Q-22.0 -117.35 -23.45 -117.85 -23.3 -122.0 -26.95 -124.2 -27.3 -125.1 -28.05 -125.8 L-26.3 -127.15 -26.15 -129.1 Q-25.85 -130.45 -26.6 -131.3 -25.1 -133.05 -25.8 -135.5 L-27.95 -140.55 -28.25 -142.35 Q-29.0 -145.7 -30.25 -149.05 L-29.2 -149.1 Q-26.6 -147.85 -23.6 -147.5 -19.5 -146.85 -18.0 -150.6 -17.15 -150.65 -17.25 -151.55 -17.4 -152.6 -17.0 -153.05 -15.55 -150.9 -11.65 -150.9 -9.9 -151.6 -9.55 -153.3 L-6.75 -151.4 Q-4.7 -149.05 -2.05 -149.4 L-2.0 -149.55 Q-1.35 -152.25 -1.55 -155.15 L-1.25 -155.3 -0.8 -155.7 3.25 -155.35 Q4.45 -155.1 5.4 -154.3 L5.6 -153.95 5.8 -153.75 Q6.2 -153.35 6.85 -153.35 L7.05 -153.25 7.55 -152.7 7.55 -152.55 7.55 -152.4 Q8.1 -151.7 8.9 -151.45 9.3 -151.6 9.5 -152.2 L9.5 -152.5 M46.3 -56.95 L45.85 -57.15 35.8 -58.95 33.4 -59.1 32.55 -63.65 57.9 -63.35 Q58.4 -59.25 57.65 -55.3 56.8 -54.3 56.55 -52.8 52.85 -51.6 50.45 -53.9 49.2 -55.6 47.15 -54.4 L46.2 -52.7 Q46.75 -54.7 46.3 -56.95" fill="#ffff00" fill-opacity="0.5019608" fill-rule="evenodd" stroke="none"/>
  </g>
</svg>
