<?xml version="1.0" encoding="UTF-8" standalone="no"?>
<svg xmlns:ffdec="https://www.free-decompiler.com/flash" xmlns:xlink="http://www.w3.org/1999/xlink" ffdec:objectType="shape" height="85.8px" width="91.35px" xmlns="http://www.w3.org/2000/svg">
  <g transform="matrix(1.0, 0.0, 0.0, 1.0, 15.0, 151.95)">
    <path d="M2.1 -151.85 L2.65 -151.95 Q8.0 -149.95 5.9 -144.6 5.55 -143.75 5.5 -142.75 5.45 -140.4 5.65 -138.1 8.6 -134.85 8.6 -130.3 8.6 -126.0 5.95 -122.8 L7.15 -120.95 Q8.5 -118.3 10.55 -116.05 15.25 -110.85 18.6 -104.65 L22.9 -97.0 26.15 -91.65 Q28.2 -92.95 30.75 -93.35 L34.1 -94.1 43.45 -96.7 Q47.8 -97.8 52.0 -96.15 60.55 -92.8 69.5 -91.15 69.35 -94.65 70.6 -97.95 71.35 -99.95 73.3 -100.1 77.75 -98.55 75.75 -94.2 75.45 -93.45 75.5 -92.6 76.05 -87.6 71.75 -85.8 70.15 -85.15 68.4 -85.45 62.95 -86.4 57.7 -88.05 L46.55 -91.55 34.2 -87.8 Q40.0 -85.75 45.35 -82.65 46.65 -81.9 48.15 -81.5 51.95 -80.55 52.9 -77.25 53.35 -75.65 52.1 -74.65 48.95 -72.1 44.7 -71.85 47.7 -67.65 42.9 -66.25 42.0 -66.0 41.15 -66.5 36.6 -69.2 34.7 -73.8 34.2 -75.0 35.05 -75.95 37.6 -78.55 41.65 -77.6 39.4 -78.4 37.35 -79.75 L36.15 -80.8 Q33.45 -81.35 31.1 -82.8 27.65 -83.15 28.05 -86.15 L27.9 -86.15 Q25.6 -83.35 22.6 -86.4 21.6 -87.4 20.8 -88.7 L9.6 -107.3 7.45 -110.4 Q8.45 -105.8 9.6 -101.3 9.75 -100.6 10.25 -100.0 12.7 -96.75 9.4 -94.3 7.5 -92.9 5.75 -94.55 3.55 -96.65 3.2 -99.85 L3.05 -101.05 Q2.1 -108.4 0.15 -115.45 -1.05 -117.35 -0.35 -118.8 L-1.0 -118.65 -2.5 -119.1 -3.6 -118.95 -4.2 -119.45 -7.3 -121.0 -7.3 -120.9 -7.4 -120.1 -10.65 -122.25 -12.15 -122.25 -13.15 -122.8 -13.05 -123.65 -13.1 -123.65 -13.05 -123.75 -13.65 -124.75 -14.25 -126.0 -14.4 -126.5 Q-15.0 -128.3 -15.0 -130.3 -15.0 -135.2 -11.55 -138.65 -8.1 -142.1 -3.2 -142.1 L-1.0 -141.9 -0.45 -141.8 -0.5 -145.8 Q-0.4 -148.15 0.35 -150.3 0.8 -151.6 2.1 -151.85" fill="#000000" fill-rule="evenodd" stroke="none"/>
  </g>
</svg>
