<?xml version="1.0" encoding="UTF-8" standalone="no"?>
<svg xmlns:ffdec="https://www.free-decompiler.com/flash" xmlns:xlink="http://www.w3.org/1999/xlink" ffdec:objectType="shape" height="112.05px" width="123.55px" xmlns="http://www.w3.org/2000/svg">
  <g transform="matrix(1.0, 0.0, 0.0, 1.0, 29.4, 157.1)">
    <path d="M43.25 -50.5 L56.55 -50.6 56.05 -47.65 Q54.95 -46.95 54.6 -45.6 50.85 -43.9 48.7 -47.5 47.2 -49.85 44.5 -48.5 42.75 -47.6 42.05 -48.0 L43.25 -50.5 M86.2 -102.3 L86.4 -102.15 86.65 -101.7 86.55 -101.45 86.2 -100.85 86.2 -100.55 86.1 -99.4 85.8 -99.1 85.8 -98.8 85.8 -96.5 86.0 -96.25 86.2 -95.95 86.2 -95.65 86.2 -95.35 Q87.4 -93.45 89.25 -92.2 L89.25 -91.9 89.25 -91.05 Q90.7 -89.95 91.1 -88.15 89.75 -87.15 88.85 -85.85 L88.9 -85.55 Q89.5 -80.4 92.7 -76.05 L92.7 -75.75 92.8 -72.9 93.75 -72.2 93.9 -71.95 Q94.3 -71.15 94.05 -70.5 88.2 -70.25 82.15 -70.25 81.15 -70.25 80.4 -69.55 L80.4 -69.25 80.4 -67.2 Q79.75 -67.2 79.25 -67.55 76.45 -69.25 73.15 -69.95 69.7 -70.65 66.4 -71.75 62.1 -73.2 58.85 -70.4 54.7 -66.7 55.45 -61.15 L56.25 -59.75 56.35 -57.75 56.55 -56.0 43.65 -56.1 43.55 -56.65 43.05 -57.0 Q36.25 -57.9 29.75 -59.55 L29.75 -60.0 Q29.9 -63.95 29.55 -67.8 L14.0 -74.5 Q14.7 -74.75 15.05 -75.3 L15.15 -75.6 15.35 -76.15 16.5 -77.0 16.6 -77.3 Q17.1 -78.3 17.05 -79.35 L16.6 -79.6 Q12.85 -79.4 9.85 -80.95 L9.8 -81.25 9.0 -84.7 8.05 -85.45 Q7.05 -85.25 6.7 -84.3 7.6 -77.95 2.5 -74.5 L1.4 -74.8 -2.5 -81.75 -2.55 -82.0 Q-3.65 -85.9 -3.3 -90.1 -7.75 -94.2 -11.75 -98.7 L-5.6 -103.9 -5.6 -104.2 -5.6 -105.05 Q-5.9 -105.65 -6.5 -105.95 L-13.8 -109.2 Q-19.3 -111.4 -24.1 -114.2 L-24.1 -114.45 Q-24.3 -114.9 -24.1 -115.35 -23.55 -115.65 -23.25 -116.2 L-23.25 -116.5 -23.25 -116.8 -23.05 -117.05 -22.85 -117.35 Q-22.6 -122.85 -27.4 -125.7 -27.85 -126.9 -28.8 -127.75 L-26.4 -129.45 -26.35 -129.75 -26.2 -130.3 Q-24.1 -132.55 -24.9 -135.75 L-26.35 -141.65 -26.75 -143.2 Q-27.75 -147.25 -29.4 -151.35 L-28.15 -151.25 Q-24.7 -149.5 -20.75 -148.9 -15.65 -148.1 -14.05 -153.1 L-14.05 -153.35 Q-14.2 -154.6 -13.55 -155.1 -10.15 -150.85 -5.0 -148.85 -2.95 -149.75 -2.8 -152.05 L-1.65 -151.0 Q1.1 -147.9 4.6 -148.45 L4.65 -148.75 Q5.5 -152.4 5.15 -156.25 L5.35 -156.55 5.85 -157.1 11.2 -156.65 Q12.75 -156.35 14.0 -155.3 L14.0 -155.0 14.1 -154.7 Q14.65 -154.15 15.45 -154.15 L15.65 -153.95 16.3 -153.1 16.3 -152.8 16.3 -152.5 Q17.0 -151.55 18.05 -151.15 18.7 -151.3 19.0 -151.95 L19.0 -152.2 19.2 -152.8 Q23.4 -155.65 28.6 -155.85 28.05 -154.0 26.7 -152.45 24.2 -149.55 22.45 -146.45 21.3 -146.05 21.3 -145.0 21.5 -144.3 22.25 -144.3 26.7 -144.25 27.35 -140.6 25.0 -138.05 22.05 -136.0 L22.05 -135.7 21.95 -135.1 21.75 -134.8 21.7 -134.55 21.9 -134.1 Q24.5 -131.45 23.4 -127.85 L23.0 -126.9 Q21.75 -124.45 21.3 -121.85 L21.8 -121.5 Q25.2 -120.75 27.8 -118.7 L27.95 -116.4 Q28.3 -112.45 26.3 -109.5 L26.25 -109.2 Q26.2 -108.3 26.4 -107.45 L27.25 -107.15 28.1 -107.1 35.8 -107.1 Q37.65 -104.4 37.4 -101.05 38.25 -99.1 40.2 -99.95 L40.35 -100.3 40.5 -100.85 Q44.6 -103.6 49.25 -105.35 51.5 -101.4 52.5 -96.7 54.35 -95.45 55.45 -97.4 56.35 -100.35 58.5 -102.8 L62.75 -108.05 Q63.55 -104.6 66.35 -102.7 L67.0 -102.65 Q69.9 -104.3 71.3 -107.35 72.45 -109.8 74.3 -110.75 74.5 -108.05 76.05 -105.75 76.9 -104.5 78.15 -103.8 81.55 -101.9 86.2 -102.3" fill="#ffff00" fill-opacity="0.5019608" fill-rule="evenodd" stroke="none"/>
  </g>
</svg>
