<?xml version="1.0" encoding="UTF-8" standalone="no"?>
<svg xmlns:ffdec="https://www.free-decompiler.com/flash" xmlns:xlink="http://www.w3.org/1999/xlink" ffdec:objectType="shape" height="86.45px" width="96.95px" xmlns="http://www.w3.org/2000/svg">
  <g transform="matrix(1.0, 0.0, 0.0, 1.0, 16.55, 149.9)">
    <path d="M12.45 -142.25 L11.6 -122.65 11.2 -117.7 Q11.05 -116.35 10.55 -115.55 L14.15 -111.25 Q20.5 -103.9 25.5 -95.8 L27.0 -92.95 27.15 -92.55 30.3 -92.8 Q39.1 -91.1 48.15 -91.2 L52.85 -90.75 Q62.85 -88.85 72.95 -88.25 69.75 -92.4 73.95 -94.8 L74.45 -95.0 Q78.05 -93.45 79.05 -89.3 L79.55 -88.1 Q81.5 -84.65 78.85 -82.25 77.7 -81.2 76.05 -81.4 L53.95 -84.45 47.1 -85.25 35.9 -85.7 34.7 -85.7 Q43.35 -79.4 51.7 -72.4 53.3 -71.05 52.1 -69.35 50.45 -67.0 47.3 -67.5 48.7 -63.7 44.5 -63.45 42.75 -63.35 41.45 -64.65 38.8 -67.25 36.9 -70.2 36.65 -70.6 36.8 -71.1 37.75 -73.85 40.85 -73.65 32.05 -79.9 23.7 -86.9 L23.3 -87.25 22.85 -87.55 Q21.55 -88.5 21.7 -90.1 16.6 -98.3 10.8 -106.05 L8.75 -108.5 9.45 -105.85 10.1 -102.2 10.15 -98.45 Q12.95 -94.45 9.3 -91.55 8.95 -91.25 8.45 -91.25 3.2 -91.55 4.0 -96.85 L4.2 -99.8 Q4.15 -104.5 2.6 -109.0 1.3 -112.8 1.75 -116.5 L0.25 -118.65 -2.55 -117.75 -4.05 -118.2 -5.15 -118.05 -5.75 -118.55 -11.1 -121.25 -13.4 -122.75 -14.65 -122.75 -14.6 -122.85 Q-16.55 -125.7 -16.55 -129.4 -16.55 -134.3 -13.1 -137.75 -9.65 -141.2 -4.75 -141.2 0.15 -141.2 3.6 -137.75 5.25 -136.1 6.1 -134.1 L6.9 -145.0 Q7.2 -148.95 10.75 -149.9 16.5 -148.65 13.85 -143.4 13.4 -142.55 12.45 -142.25 M5.45 -123.4 L4.9 -122.55 5.4 -122.05 5.45 -123.4" fill="#000000" fill-rule="evenodd" stroke="none"/>
  </g>
</svg>
