<?xml version="1.0" encoding="UTF-8" standalone="no"?>
<svg xmlns:ffdec="https://www.free-decompiler.com/flash" xmlns:xlink="http://www.w3.org/1999/xlink" ffdec:objectType="shape" height="114.95px" width="118.65px" xmlns="http://www.w3.org/2000/svg">
  <g transform="matrix(1.0, 0.0, 0.0, 1.0, 22.5, 159.35)">
    <path d="M40.7 -159.3 Q41.05 -159.4 41.3 -159.1 L47.2 -151.95 Q48.5 -152.15 49.15 -153.25 L49.55 -153.2 49.7 -153.0 49.8 -152.15 Q50.05 -150.35 51.25 -148.95 L51.25 -148.65 51.25 -148.4 51.45 -148.1 55.95 -143.75 55.55 -143.35 Q51.95 -141.35 50.75 -137.7 L50.4 -137.4 50.1 -137.15 Q50.1 -136.15 50.4 -135.2 51.3 -132.4 51.15 -129.35 49.65 -128.55 47.95 -128.3 42.6 -127.5 39.35 -124.0 39.35 -123.55 39.5 -123.2 39.85 -122.35 39.7 -121.4 L37.6 -121.6 Q33.45 -123.15 30.9 -120.15 L30.85 -119.3 Q30.85 -118.55 31.0 -117.85 L31.25 -117.55 31.65 -116.95 31.65 -116.4 31.75 -115.55 33.7 -113.45 Q36.8 -109.75 38.85 -105.45 L38.5 -105.15 38.2 -104.85 38.2 -104.3 38.2 -103.7 Q40.75 -101.45 44.0 -100.4 48.15 -99.0 51.65 -97.4 L51.6 -96.5 51.7 -94.8 Q58.2 -94.15 65.05 -94.5 L65.25 -94.3 68.15 -91.15 68.15 -90.55 68.15 -90.0 Q70.3 -84.1 76.75 -85.55 L78.55 -86.15 80.1 -86.85 Q84.05 -88.8 87.9 -89.05 L88.15 -88.45 88.5 -87.85 Q88.55 -86.5 88.05 -85.2 86.75 -81.75 86.55 -78.1 91.25 -75.0 95.4 -71.25 L95.45 -70.7 Q95.65 -69.25 96.15 -68.4 L95.9 -68.1 95.4 -67.5 95.35 -66.95 95.3 -66.65 Q94.0 -66.0 93.1 -65.1 L93.15 -63.65 Q93.3 -60.8 95.7 -58.75 L95.75 -58.2 95.8 -57.9 Q93.25 -56.3 91.2 -54.15 L91.15 -53.6 91.1 -53.3 90.5 -52.7 Q89.15 -51.3 88.3 -49.55 L87.6 -49.55 Q84.3 -52.2 81.75 -55.5 78.7 -53.8 76.5 -51.1 L75.8 -51.1 73.35 -53.2 Q70.25 -56.6 68.1 -60.75 66.35 -64.1 63.35 -63.6 L63.25 -63.0 63.05 -62.15 62.75 -61.85 62.45 -61.55 Q61.9 -59.55 61.65 -57.5 61.15 -53.45 60.25 -49.55 58.1 -50.5 56.45 -52.25 55.25 -54.75 53.15 -52.8 51.75 -48.75 48.2 -45.8 46.15 -44.1 44.35 -44.45 L44.25 -44.7 43.35 -45.9 43.45 -46.5 43.45 -47.9 Q43.3 -48.5 42.65 -48.65 38.45 -49.85 34.35 -49.35 34.25 -50.3 33.75 -51.15 32.6 -52.95 32.8 -55.1 29.8 -56.65 26.65 -54.65 26.65 -55.7 26.25 -56.7 25.1 -59.45 25.15 -62.4 24.1 -63.65 22.85 -64.55 L23.35 -67.45 24.0 -75.5 23.45 -75.85 Q19.95 -76.8 17.05 -76.55 L17.05 -78.0 Q17.0 -80.15 17.45 -82.25 18.6 -87.85 17.05 -93.55 15.15 -95.2 13.65 -92.65 11.15 -88.55 7.1 -86.25 L7.0 -85.7 5.75 -81.8 1.35 -71.55 1.2 -71.45 0.75 -71.45 -0.3 -72.9 -0.75 -73.25 Q-5.45 -74.5 -9.5 -71.55 L-9.8 -71.85 -10.45 -73.75 Q-11.5 -76.4 -11.75 -79.35 L-11.95 -79.6 -12.9 -80.75 -12.9 -81.65 -12.9 -82.8 -15.2 -84.3 -13.5 -90.4 Q-12.4 -94.15 -14.6 -96.7 -15.4 -97.85 -16.8 -98.45 -18.4 -99.1 -18.75 -99.3 L-16.75 -100.25 Q-11.8 -102.95 -11.75 -108.4 L-11.15 -109.0 Q-10.6 -109.65 -10.6 -110.45 L-10.15 -110.75 -9.9 -111.0 -9.5 -112.15 Q-8.95 -113.55 -9.05 -115.05 -9.95 -116.15 -11.55 -116.2 L-21.6 -116.5 Q-19.8 -119.75 -19.1 -123.4 -18.0 -129.1 -22.5 -131.1 L-22.35 -131.3 Q-20.15 -133.25 -18.25 -135.4 L-18.2 -136.85 Q-17.8 -140.15 -20.35 -142.05 L-20.55 -142.35 -22.1 -144.05 Q-16.65 -145.85 -12.2 -149.15 -12.05 -149.85 -12.05 -150.6 L-12.1 -153.45 -10.4 -153.0 Q-6.85 -151.8 -4.7 -154.55 -2.85 -156.9 -0.45 -155.35 L2.0 -153.15 5.0 -149.05 Q7.05 -145.8 10.4 -148.7 13.45 -151.4 16.7 -152.1 17.25 -150.75 17.15 -149.25 L16.7 -142.05 16.3 -141.75 15.55 -140.9 15.55 -140.3 15.65 -139.75 15.95 -139.5 Q16.9 -138.95 17.65 -139.65 L17.75 -139.9 17.85 -140.2 20.25 -142.25 20.6 -143.15 21.1 -145.1 21.45 -145.45 21.75 -146.0 22.25 -146.1 22.85 -146.05 Q23.25 -145.3 24.0 -145.7 28.0 -147.8 30.4 -151.85 32.3 -153.1 34.45 -152.8 L34.75 -152.55 35.3 -152.3 35.75 -152.55 36.25 -153.1 36.2 -153.65 35.9 -154.8 36.2 -155.05 Q38.55 -156.65 40.0 -159.15 L40.7 -159.3" fill="#ffff00" fill-opacity="0.5019608" fill-rule="evenodd" stroke="none"/>
  </g>
</svg>
