<?xml version="1.0" encoding="UTF-8" standalone="no"?>
<svg xmlns:ffdec="https://www.free-decompiler.com/flash" xmlns:xlink="http://www.w3.org/1999/xlink" ffdec:objectType="shape" height="85.35px" width="94.0px" xmlns="http://www.w3.org/2000/svg">
  <g transform="matrix(1.0, 0.0, 0.0, 1.0, 10.6, 143.55)">
    <path d="M39.4 -136.3 Q38.2 -134.05 35.65 -134.95 L34.55 -135.25 Q26.7 -129.2 19.05 -122.9 L17.05 -121.25 16.15 -120.3 Q16.0 -119.65 15.45 -118.9 L15.5 -118.8 Q20.6 -110.45 25.15 -101.8 27.55 -97.0 30.45 -92.6 L30.65 -92.55 Q35.05 -90.25 39.6 -88.05 49.65 -83.25 60.4 -80.5 69.6 -78.05 78.85 -77.25 L79.6 -76.7 Q82.3 -72.15 83.3 -66.9 84.05 -63.0 80.0 -63.3 78.15 -63.45 77.5 -65.15 76.25 -68.25 76.0 -71.55 63.6 -72.9 51.85 -76.8 L54.2 -73.9 Q54.9 -72.75 54.65 -71.4 53.75 -67.35 49.95 -69.7 48.95 -70.35 48.2 -71.25 L44.3 -63.7 Q43.65 -62.55 43.3 -61.25 42.0 -56.5 37.6 -59.15 36.65 -59.7 36.35 -60.7 L28.0 -81.15 25.65 -85.9 Q24.75 -87.45 25.2 -88.95 L24.1 -90.85 20.75 -97.75 Q20.5 -98.1 20.55 -98.55 L15.3 -107.25 11.65 -113.45 5.55 -101.95 Q4.95 -100.95 4.0 -100.3 2.55 -98.15 1.85 -95.8 1.3 -94.15 -0.2 -93.25 -2.65 -91.8 -4.15 -94.25 -5.8 -96.9 -3.8 -99.5 2.3 -107.65 6.9 -116.65 L8.15 -119.25 6.85 -121.35 Q3.7 -119.65 0.35 -119.95 L-1.0 -120.75 -2.1 -120.9 -2.55 -121.5 -7.0 -125.5 -8.85 -127.55 -10.05 -127.9 -9.95 -127.95 Q-11.1 -131.25 -10.15 -134.8 -8.9 -139.55 -4.65 -141.95 -0.45 -144.4 4.3 -143.15 9.0 -141.9 11.45 -137.65 13.9 -133.45 12.65 -128.7 12.1 -126.7 11.0 -125.1 L11.9 -124.35 Q13.4 -126.0 15.25 -127.1 L30.3 -139.9 Q33.25 -142.45 36.9 -142.55 41.9 -140.95 39.4 -136.3 M42.65 -72.9 Q43.0 -76.75 45.55 -79.05 L40.45 -81.1 37.25 -82.45 Q35.4 -83.2 33.7 -84.1 L33.7 -84.05 34.75 -81.1 40.0 -67.75 41.3 -71.2 Q41.65 -72.3 42.65 -72.9" fill="#000000" fill-rule="evenodd" stroke="none"/>
  </g>
</svg>
