<?xml version="1.0" encoding="UTF-8" standalone="no"?>
<svg xmlns:ffdec="https://www.free-decompiler.com/flash" xmlns:xlink="http://www.w3.org/1999/xlink" ffdec:objectType="shape" height="131.55px" width="126.8px" xmlns="http://www.w3.org/2000/svg">
  <g transform="matrix(1.0, 0.0, 0.0, 1.0, 28.25, 156.05)">
    <path d="M20.8 -148.75 L21.2 -149.05 22.75 -149.15 25.9 -149.25 25.9 -149.55 25.9 -149.8 Q26.3 -150.2 26.3 -150.7 26.0 -151.1 26.2 -151.55 29.1 -154.85 33.2 -155.2 L35.3 -152.9 35.7 -152.6 Q39.6 -150.2 43.95 -150.3 L42.8 -148.3 42.75 -147.45 Q42.25 -144.0 42.5 -140.5 43.65 -139.6 45.1 -139.85 L45.15 -137.05 Q45.45 -131.0 44.6 -125.25 43.95 -124.95 43.55 -124.35 L43.45 -123.2 36.1 -117.15 Q34.55 -116.4 33.6 -114.85 L33.6 -114.55 33.6 -113.7 Q38.35 -110.15 44.15 -108.6 41.85 -107.3 39.8 -105.75 39.2 -104.1 39.35 -102.3 L39.7 -101.7 Q39.6 -100.6 39.9 -99.7 42.9 -97.9 45.2 -95.35 42.2 -93.5 39.7 -91.05 L39.7 -90.75 39.7 -88.45 Q40.45 -87.4 41.65 -86.8 45.1 -85.1 47.8 -82.7 L46.25 -80.1 Q46.7 -78.1 48.45 -76.75 L52.2 -73.55 50.85 -71.85 50.75 -70.95 Q48.7 -68.5 49.4 -65.2 55.4 -63.4 61.8 -62.65 L77.75 -62.15 77.7 -61.55 Q77.1 -58.45 77.45 -55.2 79.6 -53.75 82.25 -53.5 91.3 -52.65 98.45 -47.75 98.75 -46.5 98.3 -45.4 L97.75 -44.45 Q95.9 -42.05 92.9 -40.65 89.0 -38.8 90.0 -34.2 L90.4 -33.6 90.4 -33.3 90.4 -33.05 Q91.2 -32.05 91.45 -30.75 L83.75 -30.1 Q83.05 -30.05 82.65 -29.4 81.05 -26.7 79.35 -24.5 77.9 -25.65 76.7 -27.1 74.1 -30.15 69.85 -28.9 67.2 -28.1 64.85 -28.35 64.0 -31.5 62.4 -34.4 L61.85 -34.7 Q55.5 -35.7 49.4 -34.5 L49.1 -35.05 Q46.45 -39.15 46.25 -44.0 L45.75 -44.3 Q41.35 -44.95 37.25 -42.7 L31.3 -38.9 31.3 -39.2 31.3 -44.35 Q30.0 -45.85 28.0 -46.2 19.75 -47.8 11.8 -47.55 12.8 -48.85 13.4 -50.35 13.9 -51.75 15.05 -52.8 19.65 -56.95 19.2 -62.8 16.75 -64.3 14.4 -64.9 L14.75 -65.5 Q15.65 -69.5 16.2 -73.6 16.3 -74.3 16.05 -74.9 15.0 -77.2 13.25 -78.0 17.15 -79.75 20.7 -82.0 L21.3 -83.15 21.3 -83.45 21.3 -84.3 13.4 -93.15 Q12.7 -93.05 12.2 -92.55 8.35 -88.8 5.2 -84.45 2.35 -80.55 -1.25 -78.0 L-5.4 -82.4 Q-6.6 -82.0 -7.65 -81.2 L-8.45 -80.2 Q-10.0 -76.95 -13.0 -76.85 L-13.55 -78.25 -14.05 -78.55 -14.4 -79.45 Q-15.0 -81.4 -16.95 -81.75 L-21.35 -82.2 -21.3 -85.0 Q-21.15 -93.55 -28.25 -98.25 L-28.15 -99.1 -24.0 -103.15 -24.0 -103.45 -24.0 -103.7 -23.65 -104.3 Q-23.75 -105.5 -24.2 -106.6 -23.8 -107.3 -23.65 -108.05 -24.8 -109.95 -25.15 -111.8 -18.7 -111.75 -12.3 -112.0 -11.8 -112.0 -11.7 -112.5 -10.55 -117.4 -14.8 -121.1 L-14.8 -121.4 -14.8 -121.95 Q-11.35 -122.6 -9.05 -125.05 -9.65 -130.35 -14.2 -133.7 -10.9 -133.65 -9.05 -135.9 -12.4 -141.7 -17.85 -146.0 L-11.15 -145.9 -10.4 -145.8 -0.4 -145.4 Q-0.1 -146.5 -0.2 -147.7 L-2.5 -150.0 -2.5 -150.3 -2.15 -156.05 Q-1.35 -156.1 -0.45 -155.4 6.8 -149.65 14.4 -144.35 14.55 -143.5 15.25 -143.1 15.8 -142.8 16.25 -143.1 19.3 -145.25 20.8 -148.75" fill="#ffff00" fill-opacity="0.5019608" fill-rule="evenodd" stroke="none"/>
  </g>
</svg>
