<?xml version="1.0" encoding="UTF-8" standalone="no"?>
<svg xmlns:ffdec="https://www.free-decompiler.com/flash" xmlns:xlink="http://www.w3.org/1999/xlink" ffdec:objectType="shape" height="147.9px" width="120.2px" xmlns="http://www.w3.org/2000/svg">
  <g transform="matrix(1.0, 0.0, 0.0, 1.0, 48.95, 153.65)">
    <path d="M8.55 -153.65 Q8.6 -153.25 8.8 -152.8 L10.95 -147.6 Q12.75 -145.6 15.2 -147.35 L16.95 -148.6 Q19.9 -150.6 23.2 -152.05 23.45 -150.0 22.5 -148.2 20.35 -144.0 20.25 -139.35 L20.95 -139.25 Q24.55 -140.75 27.95 -143.1 29.95 -144.5 31.2 -144.15 30.95 -143.0 30.35 -141.95 28.0 -137.8 28.3 -133.2 L38.95 -132.9 Q38.95 -131.9 38.55 -131.0 37.0 -127.25 37.15 -123.2 40.45 -122.15 41.65 -119.1 L41.45 -118.75 Q40.7 -117.05 39.35 -115.9 L39.35 -115.65 39.35 -115.35 38.9 -114.75 37.8 -113.3 37.8 -112.45 37.8 -111.9 42.5 -107.0 42.9 -106.55 Q44.4 -105.45 43.75 -103.8 L43.1 -103.2 42.35 -102.6 37.05 -98.35 37.1 -98.05 37.25 -97.75 37.4 -97.5 37.4 -97.2 37.45 -96.9 37.6 -96.6 38.75 -96.05 39.4 -95.1 40.0 -94.0 Q35.8 -92.55 32.45 -89.9 L32.45 -89.6 32.45 -89.05 32.45 -88.75 33.0 -88.15 33.6 -87.6 Q34.8 -84.65 37.25 -82.35 39.6 -80.15 40.55 -77.15 41.15 -75.15 39.6 -73.75 37.05 -71.4 36.75 -68.3 L44.05 -67.2 44.45 -66.8 45.1 -65.9 44.7 -64.4 Q44.3 -62.55 43.5 -60.8 41.55 -56.35 40.6 -51.75 40.75 -51.6 40.9 -51.6 L46.65 -51.45 Q52.55 -51.65 56.6 -48.2 L56.6 -47.9 56.6 -47.65 56.85 -47.3 57.0 -47.05 Q57.05 -46.55 56.75 -46.15 56.2 -45.4 56.15 -44.45 L55.55 -43.9 55.1 -43.3 55.1 -43.0 55.1 -42.45 55.2 -42.15 Q55.6 -41.9 56.05 -41.9 62.1 -41.95 66.2 -37.55 L66.3 -36.4 66.6 -35.25 Q66.35 -34.35 65.7 -33.8 62.45 -30.85 58.55 -29.0 58.85 -26.6 60.25 -24.5 64.7 -17.65 70.05 -11.45 70.0 -10.85 70.3 -10.4 71.45 -8.8 71.2 -6.8 L70.8 -6.55 68.7 -6.65 Q67.55 -7.0 66.6 -7.65 62.55 -10.35 58.35 -8.65 L58.2 -8.35 58.1 -7.8 58.05 -7.5 57.7 -7.2 57.4 -6.9 57.4 -6.65 57.35 -6.35 57.3 -6.05 57.0 -5.75 55.0 -6.05 Q50.8 -9.8 47.0 -14.0 L39.4 -21.8 Q36.45 -24.55 34.35 -21.9 L34.35 -21.6 34.3 -21.3 34.25 -21.05 33.75 -20.15 33.5 -18.75 32.9 -18.2 Q32.4 -17.85 32.45 -17.3 31.3 -17.3 30.5 -17.8 23.75 -22.3 15.9 -20.85 L15.95 -22.0 Q16.05 -23.05 15.75 -24.0 13.8 -24.7 12.1 -25.75 L12.1 -26.9 12.0 -29.2 Q9.25 -32.25 5.15 -33.05 L4.8 -33.85 4.4 -34.4 4.9 -35.25 Q5.5 -36.4 4.9 -37.55 L1.6 -38.95 Q-3.95 -40.85 -8.25 -44.35 -6.85 -45.95 -4.75 -47.15 1.6 -50.8 8.05 -53.95 L8.25 -54.85 8.15 -55.7 Q2.95 -60.4 -3.85 -62.9 -5.5 -64.25 -6.75 -66.05 L-6.8 -67.5 Q-7.15 -72.1 -4.05 -75.3 -0.4 -75.25 1.7 -77.7 L2.25 -77.95 2.75 -78.35 2.95 -79.5 Q3.0 -80.75 2.55 -81.8 4.15 -82.1 5.05 -83.05 5.35 -84.1 4.75 -84.9 L-3.65 -96.05 -3.65 -96.3 -3.65 -96.6 Q-4.55 -97.9 -6.1 -97.35 -11.2 -95.6 -16.5 -94.8 -19.5 -94.3 -21.7 -94.8 L-21.55 -95.95 Q-21.25 -97.2 -21.35 -98.55 L-21.5 -98.8 -21.7 -99.1 -21.7 -99.4 -21.7 -99.7 -22.25 -100.2 -22.65 -100.45 -32.65 -100.35 Q-33.6 -100.4 -34.5 -100.85 -35.6 -104.25 -35.2 -108.05 L-34.9 -109.05 Q-31.45 -114.95 -25.65 -118.4 L-25.6 -118.7 -25.55 -119.0 -25.55 -119.3 Q-32.15 -122.15 -38.9 -125.55 -44.45 -128.35 -48.95 -132.35 -48.35 -133.55 -46.7 -133.9 L-45.1 -134.15 Q-41.05 -134.45 -38.2 -136.55 L-38.3 -137.4 Q-38.75 -141.1 -41.3 -144.05 L-35.05 -142.4 -32.65 -140.8 -32.3 -141.0 Q-31.15 -140.15 -29.6 -141.15 L-29.5 -141.45 -29.45 -141.95 -28.6 -142.7 -28.5 -143.85 -26.8 -149.9 -26.15 -150.5 -25.95 -150.8 -25.95 -151.05 -25.95 -151.35 -25.95 -151.65 -25.55 -151.45 Q-24.5 -150.8 -24.0 -149.7 L-24.0 -148.85 -24.0 -148.3 Q-22.65 -145.95 -20.7 -144.1 -17.5 -141.0 -15.2 -143.75 L-14.8 -144.05 Q-13.35 -144.9 -13.0 -146.65 L-12.5 -146.95 -10.9 -146.5 Q-6.45 -144.75 -3.75 -148.3 L-3.7 -148.55 -3.65 -149.15 -3.55 -149.45 -2.8 -150.1 -2.4 -150.6 -1.85 -150.7 -1.4 -150.35 Q-0.75 -149.9 -0.05 -149.9 4.75 -150.2 8.55 -153.65" fill="#ffff00" fill-opacity="0.5019608" fill-rule="evenodd" stroke="none"/>
  </g>
</svg>
