<?xml version="1.0" encoding="UTF-8" standalone="no"?>
<svg xmlns:ffdec="https://www.free-decompiler.com/flash" xmlns:xlink="http://www.w3.org/1999/xlink" ffdec:objectType="shape" height="117.5px" width="87.2px" xmlns="http://www.w3.org/2000/svg">
  <g transform="matrix(1.0, 0.0, 0.0, 1.0, 31.4, 136.6)">
    <path d="M28.0 -126.65 Q30.75 -124.25 30.45 -120.5 L30.1 -116.6 Q29.55 -111.15 29.25 -105.45 28.95 -100.65 24.95 -98.35 L22.65 -98.4 Q18.95 -100.4 15.7 -102.85 L18.4 -94.2 Q19.05 -92.2 19.2 -90.1 19.25 -89.25 18.75 -88.5 20.05 -86.1 19.95 -83.85 L20.5 -82.4 Q22.3 -77.25 23.4 -72.05 L24.05 -71.75 Q26.15 -68.4 27.25 -64.25 29.05 -57.35 31.45 -50.7 L31.95 -48.6 32.15 -47.0 Q43.4 -39.65 54.3 -31.8 55.1 -31.15 55.35 -30.15 56.35 -25.0 55.1 -20.2 54.8 -19.2 53.7 -19.1 49.8 -18.8 49.8 -23.15 L49.6 -27.85 27.3 -43.9 Q26.95 -44.15 26.75 -44.6 25.6 -47.45 25.65 -50.3 22.65 -57.2 21.05 -64.3 18.0 -58.5 14.0 -53.1 15.55 -51.6 17.65 -50.0 L30.85 -39.8 Q34.65 -36.9 31.8 -33.1 30.1 -31.0 29.25 -28.6 27.7 -24.3 24.0 -26.75 22.95 -27.4 23.3 -28.65 24.1 -32.65 26.3 -36.15 16.55 -42.85 7.75 -50.65 7.1 -51.2 7.35 -52.0 L7.95 -53.9 8.05 -53.95 8.25 -54.6 Q9.3 -57.2 11.1 -59.5 14.95 -64.55 17.3 -70.3 L17.7 -71.05 Q17.1 -74.75 15.55 -78.25 L15.35 -79.25 Q13.75 -81.6 13.4 -84.1 12.6 -87.05 12.6 -90.05 L12.85 -90.85 Q11.45 -98.05 8.8 -105.1 L8.8 -105.65 7.55 -108.5 Q3.25 -107.0 -1.35 -106.7 -7.0 -106.45 -12.45 -107.7 -14.3 -108.2 -15.55 -109.65 -22.5 -118.25 -30.4 -125.9 -31.9 -127.35 -31.1 -129.2 -28.95 -133.9 -24.7 -130.35 -23.45 -129.4 -23.5 -127.8 -17.5 -120.25 -10.3 -113.35 -9.95 -113.05 -9.4 -112.95 -4.25 -112.25 0.75 -113.0 -1.85 -112.95 -4.2 -114.05 L-5.2 -115.25 -6.2 -115.75 -6.35 -116.5 -9.2 -121.8 -10.2 -124.35 -11.25 -125.05 -11.1 -125.1 Q-11.1 -128.6 -8.95 -131.55 -6.15 -135.6 -1.35 -136.4 3.45 -137.25 7.45 -134.45 11.45 -131.65 12.3 -126.8 12.95 -122.95 11.25 -119.55 L11.45 -117.1 Q11.45 -116.2 11.75 -115.3 L12.6 -112.65 15.0 -110.95 Q18.6 -107.8 22.95 -105.55 23.9 -110.75 23.9 -116.05 23.9 -117.2 24.5 -118.2 L24.2 -119.35 Q24.05 -120.1 24.2 -120.7 21.15 -125.35 26.3 -126.8 L28.0 -126.65 M5.8 -114.15 L5.6 -114.05 5.8 -114.1 5.8 -114.15" fill="#000000" fill-rule="evenodd" stroke="none"/>
  </g>
</svg>
