<?xml version="1.0" encoding="UTF-8" standalone="no"?>
<svg xmlns:ffdec="https://www.free-decompiler.com/flash" xmlns:xlink="http://www.w3.org/1999/xlink" ffdec:objectType="shape" height="157.1px" width="96.4px" xmlns="http://www.w3.org/2000/svg">
  <g transform="matrix(1.0, 0.0, 0.0, 1.0, 50.2, 152.6)">
    <path d="M3.2 -152.6 Q3.75 -151.85 3.9 -150.95 4.65 -144.95 6.15 -139.15 L19.6 -140.75 19.85 -140.6 21.0 -139.35 Q21.05 -136.95 19.55 -135.05 L19.6 -134.7 19.7 -133.95 19.45 -133.5 Q17.4 -129.75 18.5 -125.9 L26.15 -125.95 Q20.65 -118.15 14.75 -110.5 L14.9 -109.75 Q15.1 -108.85 15.55 -108.0 L16.8 -107.65 Q17.85 -108.25 17.65 -109.35 20.05 -111.55 22.9 -111.0 L23.15 -109.9 Q23.9 -106.8 24.95 -103.8 L31.9 -103.6 Q37.15 -104.6 41.5 -103.4 L36.4 -93.4 36.45 -93.0 36.9 -92.0 Q41.1 -91.9 43.75 -89.25 41.1 -82.85 38.8 -76.2 L37.95 -76.6 Q37.3 -76.85 36.85 -77.25 33.7 -80.55 30.7 -78.0 L30.75 -77.65 30.85 -76.9 30.6 -76.45 30.7 -76.1 31.1 -74.65 30.85 -73.75 30.55 -70.2 Q26.3 -69.95 24.5 -66.5 L24.55 -66.15 24.85 -65.05 Q28.4 -63.5 32.0 -61.55 L31.5 -60.4 Q29.0 -57.05 29.05 -53.4 33.5 -52.2 37.65 -50.25 L36.75 -49.6 35.0 -46.55 35.15 -45.8 Q35.75 -42.9 37.6 -40.65 40.3 -39.65 41.65 -37.1 L43.5 -36.05 43.25 -35.55 Q39.45 -33.7 38.35 -30.25 L38.45 -29.85 38.5 -29.55 38.25 -28.7 38.5 -27.95 Q39.4 -26.25 40.45 -24.6 L42.2 -23.55 42.3 -23.15 42.75 -22.5 46.2 -19.55 Q40.25 -18.3 37.75 -13.0 L38.05 -11.9 39.5 -6.5 39.4 -6.05 39.05 -4.8 38.6 -4.45 31.45 -4.85 Q27.6 -5.4 24.3 -3.05 18.9 0.7 14.5 4.5 L14.4 4.1 Q14.1 1.6 11.9 0.55 L11.6 -0.6 10.55 -4.55 9.85 -5.15 9.75 -5.5 9.35 -6.55 Q8.5 -7.25 7.5 -7.4 L5.35 -7.55 Q-1.9 -7.85 -8.95 -5.55 -9.35 -5.4 -9.9 -5.55 -10.35 -6.4 -11.25 -6.7 L-11.35 -7.1 -11.8 -8.15 Q-12.85 -9.15 -14.25 -8.95 -20.15 -8.3 -24.8 -5.05 -24.95 -5.7 -25.25 -6.2 -27.05 -8.5 -27.4 -11.35 -26.55 -13.0 -25.35 -14.35 L-25.4 -15.5 Q-26.75 -21.35 -31.25 -25.2 -27.2 -25.75 -23.3 -27.25 -22.1 -27.7 -21.9 -29.0 L-22.25 -30.45 Q-23.2 -35.3 -23.25 -40.25 L-23.05 -40.65 Q-22.75 -41.4 -22.75 -42.2 L-21.65 -41.8 Q-19.6 -41.2 -17.7 -40.2 -13.6 -38.05 -11.6 -41.8 -10.95 -43.0 -11.1 -44.4 -12.05 -52.65 -19.8 -52.05 L-20.05 -52.3 -21.8 -53.75 -21.9 -54.1 -22.3 -55.55 -17.4 -57.35 Q-16.85 -57.55 -16.85 -58.0 -16.8 -62.1 -18.45 -66.4 L-11.65 -68.75 Q-11.1 -68.95 -11.15 -69.55 -11.15 -70.4 -11.95 -70.75 -20.1 -75.05 -29.3 -74.0 L-29.5 -74.7 Q-29.95 -77.2 -29.8 -79.65 -36.15 -81.0 -42.3 -79.15 L-42.1 -80.8 Q-41.15 -85.65 -44.2 -89.0 L-44.3 -89.4 -44.4 -89.75 Q-47.25 -91.15 -50.2 -92.2 -45.35 -95.0 -44.05 -100.45 -43.6 -101.25 -43.75 -102.05 -44.75 -106.5 -45.9 -110.8 -40.3 -107.85 -36.45 -112.3 L-36.3 -112.6 -36.0 -113.45 -34.75 -114.55 -34.65 -115.0 -34.45 -115.85 -33.9 -116.35 -33.0 -116.2 -32.7 -115.95 Q-30.45 -113.8 -28.8 -111.15 -24.7 -108.05 -23.05 -112.5 L-23.4 -113.6 Q-24.7 -117.85 -27.9 -120.95 -26.8 -121.65 -26.0 -122.6 L-26.0 -123.0 -25.7 -124.25 -26.15 -125.65 Q-27.75 -129.55 -29.65 -133.25 -25.15 -133.55 -21.1 -134.7 L-20.95 -135.1 Q-19.7 -142.7 -17.45 -150.0 -13.35 -147.9 -9.25 -144.95 -8.1 -144.1 -6.9 -145.1 -2.05 -149.5 3.2 -152.6" fill="#ffff00" fill-opacity="0.5019608" fill-rule="evenodd" stroke="none"/>
  </g>
</svg>
