<?xml version="1.0" encoding="UTF-8" standalone="no"?>
<svg xmlns:ffdec="https://www.free-decompiler.com/flash" xmlns:xlink="http://www.w3.org/1999/xlink" ffdec:objectType="shape" height="117.55px" width="63.9px" xmlns="http://www.w3.org/2000/svg">
  <g transform="matrix(1.0, 0.0, 0.0, 1.0, 33.2, 130.35)">
    <path d="M5.4 -112.65 L3.85 -110.5 3.85 -109.35 Q3.7 -107.95 3.9 -106.5 6.7 -106.05 9.2 -104.2 11.5 -102.5 13.95 -101.0 20.15 -97.1 26.5 -93.7 28.95 -92.4 28.0 -89.75 27.2 -87.8 25.05 -88.0 L21.25 -88.45 16.8 -88.85 Q12.15 -88.9 13.4 -92.95 L13.95 -94.05 Q9.2 -96.65 5.0 -99.7 L5.05 -98.75 Q5.5 -93.25 6.45 -87.8 7.75 -79.95 8.1 -72.05 10.85 -71.05 11.2 -67.25 11.45 -63.25 12.1 -59.2 L13.55 -48.5 Q13.85 -45.75 15.65 -43.65 22.55 -35.1 30.1 -27.15 30.95 -26.3 30.55 -25.1 L26.6 -15.2 Q24.75 -11.0 21.65 -14.2 20.7 -15.15 21.1 -16.45 22.35 -20.6 24.15 -24.55 21.8 -28.0 18.65 -31.3 L17.65 -32.3 Q12.5 -37.8 8.8 -44.1 8.15 -45.15 8.0 -46.45 L5.8 -61.4 5.4 -64.55 Q0.95 -58.7 -2.1 -52.0 L-2.9 -50.8 Q0.45 -44.0 2.5 -36.45 4.05 -30.75 4.4 -25.1 4.45 -24.35 3.75 -23.95 0.7 -22.25 -2.8 -22.05 L-10.85 -21.15 Q-13.1 -20.85 -13.6 -22.95 -14.25 -25.45 -11.65 -26.3 L-3.3 -28.5 -2.1 -28.55 -1.75 -28.75 Q-3.45 -35.95 -6.1 -42.75 L-8.1 -47.6 Q-10.2 -52.55 -6.4 -56.55 L-5.65 -57.65 Q-2.4 -64.6 2.35 -70.35 L2.75 -71.0 -0.25 -91.4 -0.9 -95.75 Q-1.4 -94.85 -2.05 -94.1 L-5.3 -85.7 Q-6.55 -82.15 -9.9 -82.0 -10.75 -82.0 -11.5 -82.5 -18.35 -87.4 -26.25 -90.15 L-28.45 -90.7 Q-31.1 -91.15 -32.35 -93.25 -34.5 -97.15 -31.2 -99.2 -27.45 -100.5 -26.35 -96.9 L-26.3 -96.65 -25.45 -96.25 -24.7 -95.55 Q-19.0 -93.6 -13.6 -90.9 L-10.8 -89.25 Q-7.7 -95.3 -4.9 -101.85 -3.85 -104.25 -1.8 -105.1 L-2.15 -107.3 -3.0 -107.35 -4.95 -106.45 Q-6.6 -107.4 -9.15 -107.55 L-10.75 -108.3 -12.05 -109.2 -12.15 -108.75 -14.55 -114.85 -15.5 -115.45 -15.6 -115.75 Q-15.9 -117.2 -16.65 -117.95 -16.9 -121.35 -15.05 -124.45 -12.65 -128.7 -7.9 -129.95 -3.15 -131.2 1.05 -128.75 5.3 -126.35 6.55 -121.6 7.8 -116.85 5.4 -112.65" fill="#000000" fill-rule="evenodd" stroke="none"/>
  </g>
</svg>
