<?xml version="1.0" encoding="UTF-8" standalone="no"?>
<svg xmlns:ffdec="https://www.free-decompiler.com/flash" xmlns:xlink="http://www.w3.org/1999/xlink" ffdec:objectType="shape" height="155.85px" width="96.4px" xmlns="http://www.w3.org/2000/svg">
  <g transform="matrix(1.0, 0.0, 0.0, 1.0, 44.4, 140.5)">
    <path d="M9.6 -133.25 Q15.8 -131.85 20.2 -128.5 17.75 -125.4 14.0 -123.25 L14.0 -121.0 14.0 -120.25 14.25 -119.9 14.5 -119.5 14.5 -119.15 14.5 -118.75 15.45 -117.65 15.6 -115.0 15.55 -114.25 11.95 -111.75 Q11.7 -109.85 12.9 -108.35 L13.4 -107.65 Q15.75 -105.45 17.45 -102.4 L17.65 -102.0 17.65 -100.5 17.65 -99.75 Q14.85 -97.25 13.6 -94.1 L13.5 -93.75 Q19.0 -90.15 26.1 -90.25 L26.5 -89.85 Q26.85 -88.85 27.5 -88.0 L27.5 -87.65 27.5 -87.25 28.15 -86.15 28.25 -85.75 Q32.15 -83.95 35.6 -87.15 37.4 -88.85 40.05 -88.5 L40.7 -88.15 Q41.9 -85.3 42.0 -82.15 L42.0 -80.25 42.65 -79.15 42.75 -78.75 Q46.75 -76.9 51.3 -76.5 L51.3 -72.75 51.3 -71.25 51.85 -70.5 52.0 -70.15 42.2 -68.7 41.45 -68.25 Q42.0 -63.4 42.85 -58.55 43.25 -56.35 43.0 -54.0 35.25 -58.35 27.75 -63.25 26.5 -63.35 25.9 -62.25 L25.9 -60.0 25.9 -59.25 25.4 -58.5 25.15 -58.15 Q23.65 -58.9 21.8 -59.0 18.95 -61.55 16.1 -59.25 16.45 -54.6 21.0 -52.5 L21.55 -51.75 21.8 -51.5 22.8 -51.15 Q23.25 -50.3 24.2 -50.0 L24.65 -49.75 24.0 -49.0 Q23.8 -48.3 23.9 -47.5 L24.1 -46.75 Q28.0 -43.65 32.15 -40.9 33.9 -38.95 36.3 -37.5 32.45 -35.95 29.3 -33.25 L28.75 -32.15 28.5 -31.75 Q28.5 -27.95 31.9 -25.35 33.5 -24.05 34.2 -22.4 L29.05 -19.25 29.05 -18.15 29.05 -17.75 Q34.1 -11.75 41.15 -7.35 41.55 -7.1 42.0 -6.9 42.65 -5.55 44.05 -5.0 40.55 -4.1 37.3 -2.25 37.15 0.6 37.75 3.35 L37.85 5.25 38.3 6.0 38.35 6.35 Q34.0 5.25 28.75 5.0 27.85 4.95 27.35 5.65 L23.6 11.35 20.5 11.5 Q16.85 7.7 14.25 3.15 L13.75 2.5 Q12.85 1.6 11.65 1.25 9.6 1.8 8.8 4.0 L7.25 4.0 Q6.8 3.35 6.0 3.25 4.7 3.7 4.3 5.0 L4.15 5.35 4.45 6.1 4.7 6.5 4.7 6.85 4.7 7.25 Q3.5 8.35 3.2 9.85 3.1 10.05 3.15 10.25 L2.25 11.35 0.55 11.5 Q-3.4 7.9 -7.3 10.05 L-8.85 11.15 Q-10.35 12.5 -11.4 14.25 L-11.55 14.95 -11.75 15.35 Q-13.5 14.85 -14.9 12.75 -16.7 9.95 -20.3 11.5 -21.95 12.2 -23.8 12.0 L-24.2 11.6 -24.35 9.0 -24.35 8.25 Q-26.1 6.1 -29.25 6.15 -34.1 6.25 -38.7 5.0 -36.75 2.75 -35.65 0.15 L-35.2 -0.65 -35.2 -2.15 -35.2 -2.9 Q-37.25 -5.25 -39.7 -7.0 -33.75 -8.8 -27.55 -10.9 -26.55 -15.75 -28.55 -20.1 L-29.25 -21.75 -29.5 -23.25 Q-25.65 -24.7 -23.3 -28.0 L-23.3 -30.25 -23.3 -31.0 Q-26.55 -34.75 -31.65 -36.8 -32.35 -37.1 -32.6 -37.75 -28.75 -42.35 -25.8 -47.45 -25.3 -48.35 -25.35 -49.4 L-25.1 -49.75 -24.85 -50.15 Q-25.8 -55.15 -31.95 -55.0 -32.25 -56.15 -31.55 -57.25 L-31.05 -58.0 -31.05 -58.4 -31.05 -58.75 -29.7 -60.65 -29.5 -61.0 Q-27.45 -62.55 -26.0 -64.9 -25.8 -65.6 -25.85 -66.4 L-25.9 -66.75 Q-26.25 -67.65 -27.2 -67.75 L-38.85 -68.5 -38.85 -70.0 -38.85 -70.4 -38.6 -70.75 -38.3 -71.15 Q-37.65 -73.65 -37.75 -76.4 L-37.8 -78.25 Q-40.7 -80.6 -44.4 -82.15 -38.65 -83.65 -34.2 -87.15 L-34.2 -88.65 -34.2 -89.4 -34.45 -89.75 -34.7 -90.15 -34.7 -90.9 -34.7 -91.25 Q-34.95 -91.95 -35.6 -92.4 L-35.7 -93.15 -35.75 -93.5 -37.15 -95.4 -37.35 -96.5 -37.4 -96.9 Q-34.0 -99.3 -30.05 -100.65 -28.85 -100.6 -28.05 -101.4 -27.85 -102.5 -27.9 -103.65 L-27.95 -104.4 -28.85 -105.5 Q-31.05 -109.8 -31.5 -114.5 L-31.6 -116.75 -26.5 -122.4 Q-26.3 -124.05 -26.35 -125.75 L-26.4 -126.9 -26.65 -127.25 -26.9 -127.65 Q-27.45 -129.45 -27.45 -131.4 L-27.45 -132.5 Q-24.5 -135.35 -20.75 -132.45 -20.2 -132.0 -19.4 -131.75 -16.35 -132.85 -14.6 -135.75 -12.55 -137.25 -10.85 -139.15 -8.55 -135.6 -4.4 -135.6 -3.15 -135.65 -2.0 -136.2 6.0 -140.15 14.5 -140.5 12.6 -137.3 9.65 -135.1 L9.35 -134.75 Q9.25 -134.15 9.5 -133.65 L9.6 -133.25" fill="#ffff00" fill-opacity="0.5019608" fill-rule="evenodd" stroke="none"/>
  </g>
</svg>
