<?xml version="1.0" encoding="UTF-8" standalone="no"?>
<svg xmlns:ffdec="https://www.free-decompiler.com/flash" xmlns:xlink="http://www.w3.org/1999/xlink" ffdec:objectType="shape" height="132.85px" width="65.55px" xmlns="http://www.w3.org/2000/svg">
  <g transform="matrix(1.0, 0.0, 0.0, 1.0, 27.45, 128.0)">
    <path d="M-19.1 -81.45 L-11.7 -83.9 -12.1 -93.05 Q-16.1 -87.45 -19.1 -81.45 M4.7 -124.55 Q7.3 -122.0 8.0 -118.65 7.45 -117.8 7.55 -116.3 L7.55 -115.95 6.75 -115.15 6.0 -108.65 5.75 -109.05 4.7 -107.85 3.3 -106.7 Q0.75 -105.85 -0.65 -104.5 L-2.85 -104.9 -4.45 -104.4 -6.45 -104.6 -6.25 -99.4 Q-5.0 -98.05 -4.15 -96.2 L-0.55 -89.25 Q1.05 -90.35 2.9 -90.55 4.6 -90.75 5.25 -89.2 7.1 -84.75 2.85 -83.55 L4.45 -81.05 15.55 -79.7 18.7 -79.05 Q25.1 -77.65 31.25 -77.2 31.65 -78.15 32.7 -78.4 37.8 -79.6 38.1 -74.9 38.15 -74.05 37.75 -73.35 35.5 -69.75 30.75 -70.8 L11.25 -74.4 7.5 -74.55 Q1.45 -74.15 -1.55 -78.8 L-2.9 -80.95 -5.45 -79.95 Q-5.35 -71.2 -5.55 -62.4 -0.15 -59.75 4.7 -55.75 L15.9 -46.4 Q18.6 -44.15 19.25 -40.95 19.5 -39.7 18.95 -38.55 15.65 -31.5 13.7 -23.95 L10.65 -13.65 10.65 -13.35 10.65 -12.5 10.65 -11.9 12.7 -11.45 Q16.0 -10.6 19.45 -10.4 22.05 -10.2 23.75 -8.45 25.25 -6.9 23.75 -5.4 21.6 -3.15 18.15 -4.0 L11.25 -5.4 Q8.2 -5.9 5.35 -7.05 4.15 -7.55 4.2 -8.8 4.4 -14.25 5.7 -19.55 8.3 -30.3 13.0 -39.95 L12.0 -41.0 Q11.6 -41.6 11.35 -42.25 2.3 -50.0 -6.85 -56.55 L-6.85 -55.7 Q-7.15 -45.85 -6.55 -36.1 -6.35 -32.15 -5.35 -28.35 -4.6 -25.3 -6.15 -22.75 -12.35 -12.35 -19.4 -2.4 L-8.05 -0.75 Q-6.4 -0.5 -6.15 1.1 -5.5 5.2 -10.25 4.8 L-11.55 4.75 Q-18.1 4.65 -24.2 2.95 -27.0 2.15 -26.85 -0.55 -26.75 -3.7 -24.75 -6.25 -17.05 -15.8 -11.55 -26.5 L-11.8 -27.1 -12.3 -30.25 Q-13.2 -41.15 -12.95 -52.45 -12.85 -55.3 -13.25 -58.15 -13.75 -62.0 -11.1 -63.35 -11.6 -67.5 -11.45 -71.85 L-11.4 -77.85 -16.7 -76.1 -19.55 -75.1 Q-24.5 -73.2 -27.15 -76.9 -27.65 -77.65 -27.3 -78.45 -22.7 -88.5 -16.4 -97.85 L-15.95 -98.8 Q-14.95 -102.1 -12.15 -103.3 -12.25 -105.85 -12.95 -108.15 -16.2 -111.55 -16.2 -116.2 -16.2 -121.1 -12.6 -124.55 -9.05 -128.0 -3.95 -128.0 1.1 -128.0 4.7 -124.55" fill="#000000" fill-rule="evenodd" stroke="none"/>
  </g>
</svg>
