<?xml version="1.0" encoding="UTF-8" standalone="no"?>
<svg xmlns:ffdec="https://www.free-decompiler.com/flash" xmlns:xlink="http://www.w3.org/1999/xlink" ffdec:objectType="shape" height="164.5px" width="106.65px" xmlns="http://www.w3.org/2000/svg">
  <g transform="matrix(1.0, 0.0, 0.0, 1.0, 48.25, 143.55)">
    <path d="M22.9 -137.25 Q23.4 -136.9 23.95 -136.6 L26.05 -134.6 27.7 -133.25 Q31.0 -130.5 34.6 -129.55 L35.9 -129.55 36.2 -129.75 36.75 -130.45 39.45 -132.45 41.2 -133.5 41.35 -133.25 41.5 -133.0 42.05 -132.5 42.7 -131.75 43.05 -130.3 43.35 -128.4 43.65 -125.8 39.9 -126.3 Q26.95 -128.1 13.9 -127.85 L-2.75 -126.85 -4.25 -126.75 -6.45 -133.6 -6.55 -134.0 -6.9 -134.65 -6.85 -135.05 Q-6.9 -135.5 -6.55 -135.8 L-6.45 -135.8 0.45 -135.6 1.4 -135.6 2.7 -135.8 Q3.2 -136.45 3.3 -137.2 3.5 -138.85 4.15 -140.55 L4.2 -140.75 4.5 -141.3 4.7 -141.7 5.65 -142.7 6.95 -143.55 Q8.15 -143.4 9.25 -142.45 L10.1 -141.7 Q10.55 -141.45 11.0 -141.35 L21.45 -138.35 22.9 -137.25 M10.35 -121.65 Q16.7 -122.2 23.1 -121.6 L44.8 -119.6 45.45 -116.7 46.3 -115.45 Q51.1 -114.15 55.95 -115.5 L56.6 -113.1 56.5 -112.55 56.15 -111.0 53.85 -104.5 53.55 -104.15 52.85 -103.45 52.65 -102.75 52.45 -102.0 52.55 -100.95 54.2 -99.1 54.6 -98.85 Q56.05 -97.25 57.8 -96.5 L57.85 -96.4 58.4 -95.6 57.15 -94.45 56.7 -93.9 56.0 -92.5 55.6 -91.75 54.3 -89.7 53.4 -88.55 50.05 -84.5 49.7 -84.2 49.45 -84.05 48.55 -83.65 48.35 -83.2 Q47.75 -82.05 47.75 -81.0 L42.5 -81.15 38.5 -80.75 38.35 -80.35 38.1 -79.9 38.05 -79.8 39.1 -76.35 39.45 -75.45 40.75 -72.4 40.9 -72.0 41.05 -71.3 41.4 -70.6 40.25 -69.8 39.2 -69.25 37.75 -68.9 31.05 -67.9 30.85 -67.4 30.75 -67.1 30.55 -66.6 30.65 -66.2 30.9 -65.75 31.05 -65.45 31.1 -65.0 31.1 -64.7 31.15 -63.9 31.45 -63.1 32.35 -59.95 30.65 -56.95 Q28.15 -55.5 25.45 -54.25 L23.05 -53.15 22.85 -52.55 22.7 -51.95 Q22.95 -51.4 23.45 -51.3 L24.0 -50.75 26.7 -47.4 Q27.7 -46.65 28.85 -46.05 L35.0 -42.3 32.75 -37.65 31.9 -35.95 31.5 -35.4 31.15 -34.9 31.15 -34.1 31.15 -32.9 30.8 -31.6 31.85 -29.65 32.3 -29.1 32.9 -28.35 34.0 -27.4 34.2 -27.2 34.45 -26.95 Q36.25 -25.25 38.3 -23.8 L38.65 -23.5 39.2 -22.9 39.2 -22.8 39.2 -22.4 39.2 -22.0 39.15 -21.45 39.15 -21.25 38.95 -21.05 37.85 -20.05 35.5 -17.9 33.5 -16.1 33.1 -15.55 32.0 -13.85 31.8 -13.45 31.65 -13.15 31.5 -12.9 31.5 -12.8 31.5 -12.7 31.65 -12.05 32.05 -10.95 Q35.15 -9.75 37.8 -8.15 L39.05 -6.4 Q39.9 -5.0 40.6 -3.0 L39.1 -1.2 38.8 -0.55 38.45 0.25 37.95 1.8 38.05 2.1 38.1 2.4 38.4 3.45 38.8 4.35 46.2 10.35 Q45.3 11.1 44.3 11.45 L43.2 11.8 42.5 11.85 Q36.65 12.25 31.75 15.0 L31.15 15.6 29.95 17.15 30.0 17.9 30.05 18.2 30.15 18.6 30.35 20.05 28.9 19.95 15.2 14.75 10.45 12.75 9.35 12.3 9.0 12.25 8.55 12.25 7.45 12.3 7.2 12.35 6.65 12.5 6.2 12.6 5.65 12.85 Q4.95 13.25 4.2 13.85 3.8 14.0 3.35 14.25 L3.25 14.4 3.05 14.7 Q2.45 15.4 1.45 15.9 L1.35 16.1 Q-0.25 18.4 -2.65 20.2 L-2.7 20.45 -2.95 20.8 -3.8 20.95 -4.25 20.6 -11.45 16.95 -11.8 16.6 -11.95 16.4 -13.3 14.4 -13.95 13.45 Q-15.1 11.6 -16.5 12.35 L-17.85 12.9 -18.5 13.2 Q-21.0 14.35 -23.45 16.8 L-23.95 17.3 -23.95 17.2 -24.05 17.05 Q-24.45 16.2 -25.7 15.8 L-25.85 15.55 -26.15 15.1 -27.6 14.3 -27.7 14.05 -27.8 13.9 -28.65 13.15 Q-28.95 12.8 -29.6 12.85 L-32.7 13.4 -33.8 13.2 -36.7 13.3 Q-37.7 13.4 -38.9 14.15 L-38.95 14.1 -39.2 13.5 -39.2 13.45 Q-40.1 10.2 -41.75 5.85 L-42.05 5.5 Q-43.45 4.0 -45.4 3.5 L-48.2 2.95 -48.25 2.85 -47.95 2.55 -47.55 2.15 -47.4 2.0 -45.6 0.9 Q-38.55 -3.9 -37.95 -11.5 L-38.6 -12.9 -38.75 -13.05 -39.3 -13.65 Q-40.8 -14.55 -42.45 -15.0 L-42.75 -15.25 -43.45 -15.9 -43.55 -16.25 -43.75 -16.85 Q-43.05 -18.1 -42.05 -18.85 L-41.8 -19.1 -38.85 -20.25 -36.2 -21.0 Q-31.75 -22.2 -28.1 -24.55 L-27.5 -25.2 -25.7 -27.2 -24.4 -29.7 -24.6 -30.4 -24.75 -31.05 -25.5 -31.7 -26.35 -33.45 Q-27.75 -35.8 -29.85 -38.45 L-28.75 -38.75 -28.55 -38.9 -27.85 -39.35 -27.55 -39.5 -27.25 -39.9 -27.05 -40.1 -26.9 -40.2 -26.2 -40.75 -26.15 -40.8 -25.9 -41.0 Q-23.9 -42.25 -22.05 -44.0 L-19.9 -44.95 -17.05 -46.15 Q-14.95 -47.05 -13.0 -48.2 -11.8 -51.05 -13.25 -53.15 L-13.3 -53.25 -13.65 -53.65 -14.45 -54.55 -19.2 -58.25 -19.9 -58.7 -20.05 -58.9 -20.5 -59.3 -22.3 -60.3 -22.5 -60.5 -22.85 -61.15 -21.9 -62.15 -21.8 -62.2 -19.45 -63.45 Q-13.0 -66.9 -11.95 -73.65 L-11.95 -74.0 -12.0 -74.6 -12.15 -74.95 Q-12.85 -76.0 -14.0 -76.4 L-14.6 -76.65 -16.15 -77.1 -20.7 -78.1 -20.3 -79.7 -20.0 -80.0 -19.9 -80.7 -19.7 -81.4 Q-17.5 -84.3 -15.95 -87.45 L-15.1 -89.6 -14.8 -90.0 -14.5 -90.45 -14.4 -91.2 -14.3 -91.9 -17.65 -94.65 -18.85 -95.3 Q-22.85 -96.55 -27.0 -96.9 L-26.85 -97.2 -26.5 -97.4 -23.9 -98.9 Q-19.85 -100.85 -16.0 -103.0 L-15.2 -103.55 -15.1 -103.65 -15.05 -104.1 -14.7 -105.55 -14.8 -106.25 -15.1 -107.65 Q-16.7 -109.95 -18.85 -111.75 L-19.25 -112.4 -19.2 -112.45 -19.2 -112.55 -19.2 -112.75 -19.5 -114.15 -19.45 -116.35 -19.25 -116.35 -13.1 -116.85 -9.85 -116.95 -9.55 -116.95 -8.7 -117.1 -4.85 -117.55 -4.8 -117.65 -4.5 -117.8 -3.95 -118.35 Q-3.9 -119.45 -4.25 -120.05 L-2.75 -120.25 10.35 -121.65" fill="#ffff00" fill-opacity="0.5019608" fill-rule="evenodd" stroke="none"/>
  </g>
</svg>
