<?xml version="1.0" encoding="UTF-8" standalone="no"?>
<svg xmlns:ffdec="https://www.free-decompiler.com/flash" xmlns:xlink="http://www.w3.org/1999/xlink" ffdec:objectType="shape" height="163.55px" width="130.6px" xmlns="http://www.w3.org/2000/svg">
  <g transform="matrix(1.0, 0.0, 0.0, 1.0, 51.05, 141.9)">
    <path d="M24.95 -137.5 L25.5 -136.95 25.6 -136.35 Q25.85 -135.55 26.35 -134.65 L27.2 -133.1 28.2 -130.45 28.45 -129.15 29.35 -128.95 40.9 -131.35 42.5 -130.0 43.6 -129.35 Q44.35 -128.0 45.5 -126.9 L47.35 -125.2 Q50.65 -122.35 54.2 -120.4 L55.55 -120.7 56.05 -120.9 56.8 -121.4 59.7 -123.2 61.55 -124.35 61.9 -124.4 62.2 -124.45 62.95 -124.5 64.0 -124.45 64.3 -122.95 64.4 -120.85 Q64.2 -118.55 64.3 -116.2 L65.0 -108.25 66.75 -107.5 Q71.85 -106.25 77.0 -106.25 L79.55 -105.15 79.55 -104.5 79.1 -103.0 78.45 -101.85 60.0 -103.3 30.45 -105.1 7.45 -106.65 -15.7 -107.45 -10.75 -112.2 -10.5 -113.15 -10.45 -113.25 -10.65 -113.85 -11.65 -115.3 -12.1 -115.9 -13.15 -117.1 Q-15.35 -119.0 -18.2 -120.4 L-18.1 -120.9 -17.95 -121.05 -17.85 -121.2 -17.65 -121.3 -16.35 -122.3 -14.3 -123.85 -14.1 -123.85 Q-10.6 -124.5 -7.55 -125.6 -5.9 -126.25 -4.4 -127.1 L-4.3 -127.35 -4.05 -128.15 -7.65 -131.7 -7.7 -131.8 -7.25 -131.85 -6.5 -132.05 -2.25 -132.7 -1.8 -132.75 -1.7 -132.8 -1.3 -132.85 -1.0 -132.95 -0.3 -133.05 0.3 -133.15 1.1 -133.25 1.6 -133.4 2.05 -133.55 Q3.65 -134.05 5.0 -135.2 7.75 -137.6 9.3 -141.75 L9.8 -141.8 10.45 -141.05 10.8 -140.7 11.5 -140.05 11.6 -139.95 Q14.2 -137.5 17.45 -135.5 17.95 -135.15 18.55 -135.1 L19.95 -135.1 Q20.8 -135.3 21.55 -135.65 23.05 -136.4 24.7 -137.7 L24.95 -137.5 M72.6 -93.75 Q72.8 -92.4 73.25 -91.15 L73.6 -90.8 68.5 -89.75 68.4 -89.75 67.5 -89.4 65.7 -88.9 Q65.4 -88.85 65.05 -88.5 L64.65 -86.75 64.45 -85.8 Q64.1 -84.45 64.15 -83.2 L64.05 -81.7 Q63.8 -78.9 62.6 -76.2 L62.15 -76.05 61.9 -76.05 60.8 -76.5 60.25 -76.7 57.65 -77.65 52.55 -79.95 Q50.35 -80.8 48.5 -81.8 L48.05 -82.1 47.35 -82.5 47.2 -82.6 Q45.3 -84.15 43.95 -81.5 L44.1 -80.45 44.4 -76.95 44.25 -76.55 43.95 -75.85 44.05 -75.15 44.05 -75.05 43.7 -73.65 42.65 -72.7 41.1 -72.65 34.05 -74.75 33.4 -74.75 33.1 -74.8 32.6 -74.5 32.4 -74.15 32.3 -73.7 32.35 -73.35 32.35 -72.95 32.35 -72.6 32.45 -71.85 33.1 -71.05 35.25 -67.95 36.75 -64.3 30.7 -62.3 27.9 -61.5 27.25 -61.2 26.65 -60.9 25.5 -60.45 24.5 -60.15 Q21.75 -59.4 20.95 -56.65 21.9 -55.7 23.2 -55.15 L30.05 -51.75 34.1 -47.6 Q34.5 -46.45 35.25 -45.8 L35.35 -45.1 35.3 -44.45 35.4 -43.55 35.3 -42.3 34.3 -41.15 Q33.65 -40.1 33.3 -38.9 L33.45 -38.25 33.65 -37.2 34.65 -36.15 34.75 -35.85 34.8 -35.5 Q36.6 -33.5 38.85 -32.0 L39.05 -31.65 39.7 -30.7 39.7 -30.45 39.7 -30.05 39.7 -29.55 39.6 -29.0 39.5 -28.8 39.35 -28.6 38.4 -27.5 36.3 -24.85 34.25 -22.95 33.95 -22.35 Q33.35 -21.35 33.35 -20.25 L33.45 -19.85 33.55 -19.5 33.5 -19.2 33.5 -18.95 33.5 -18.85 33.95 -18.25 34.8 -17.2 40.3 -13.15 Q39.5 -12.0 38.5 -11.35 36.65 -10.25 35.0 -8.55 L33.05 -7.05 32.95 -6.3 32.8 -5.3 Q33.2 -4.2 34.0 -3.85 L34.3 -3.7 34.45 -3.4 Q34.8 -2.85 35.25 -2.6 L36.25 -2.0 Q40.95 0.1 45.05 3.0 L46.7 5.0 Q46.55 5.65 45.85 5.95 L45.15 6.25 Q39.6 8.75 34.6 12.35 L34.5 13.25 34.7 15.5 34.9 16.35 35.0 16.65 35.3 17.05 36.2 18.45 36.95 20.2 Q29.15 18.5 21.45 17.55 L16.0 16.9 14.7 16.85 14.45 17.1 14.3 17.55 13.25 18.3 13.15 18.6 12.9 19.15 12.5 19.4 12.2 20.0 11.35 21.65 10.5 21.4 10.2 21.25 9.9 21.15 7.75 20.35 7.5 20.25 1.4 17.7 1.35 17.7 1.0 17.3 Q0.6 17.05 0.15 16.9 L-0.4 16.65 Q-5.2 17.7 -8.7 20.0 L-9.15 19.85 -9.35 19.6 -10.4 17.15 -10.8 16.1 Q-11.55 14.15 -12.55 13.2 L-13.7 11.75 Q-13.75 11.3 -14.25 11.05 -17.25 9.8 -20.0 12.95 L-20.75 13.65 -20.8 13.65 -21.05 13.7 -23.25 14.4 -23.6 14.5 -24.15 14.6 -25.85 15.15 -26.15 15.2 -26.45 15.35 -27.55 15.6 -28.55 16.0 -31.55 17.45 Q-31.85 16.75 -31.75 16.15 -31.45 14.5 -31.65 12.75 -32.45 11.75 -33.95 12.3 L-34.1 12.3 -34.8 12.35 -34.85 12.3 Q-39.0 12.65 -43.5 10.1 L-44.0 9.85 Q-46.0 8.9 -48.2 8.65 -50.2 8.45 -50.95 7.8 L-51.05 7.55 -50.85 7.2 -50.6 6.8 -50.5 6.55 -48.55 5.4 Q-41.1 0.8 -36.2 -5.05 L-35.15 -6.45 -35.2 -6.75 -35.4 -7.7 -38.55 -9.35 -38.9 -9.55 -39.7 -10.05 -40.0 -10.3 -40.5 -10.7 -42.8 -12.7 -43.2 -13.0 -40.15 -14.5 -37.45 -15.55 Q-32.9 -17.5 -29.35 -20.6 L-29.15 -21.55 -28.55 -24.45 -30.15 -27.05 -30.65 -27.65 -31.1 -28.2 -31.95 -28.95 -29.8 -30.3 Q-26.6 -31.7 -24.6 -34.9 L-23.6 -35.6 -23.55 -35.85 -23.3 -36.75 -23.4 -37.05 -23.7 -37.7 -23.7 -38.0 -23.65 -38.1 -23.7 -39.0 -23.75 -39.05 -24.15 -39.55 Q-25.25 -42.0 -26.0 -44.75 L-23.65 -45.8 -20.45 -46.7 Q-18.0 -47.1 -15.75 -47.95 -13.0 -49.65 -11.6 -51.9 L-11.55 -52.0 -11.6 -52.6 -12.0 -53.9 Q-14.1 -56.45 -16.65 -58.6 L-17.15 -59.0 -17.3 -59.2 -17.95 -59.65 -19.8 -60.85 -20.0 -60.95 -20.5 -61.5 -21.15 -63.0 -21.05 -63.05 Q-20.1 -64.0 -18.8 -64.65 -11.9 -67.95 -8.45 -74.0 L-8.45 -74.35 -8.45 -74.95 -8.5 -75.4 Q-9.25 -76.6 -10.25 -77.45 L-10.85 -77.95 Q-11.55 -78.55 -12.4 -78.85 -14.9 -79.75 -17.05 -80.85 L-18.25 -82.35 -17.95 -82.75 -17.65 -83.35 -17.25 -84.05 -12.5 -90.2 Q-11.7 -91.15 -11.05 -92.2 L-10.7 -92.7 -10.35 -93.25 -10.05 -93.95 -9.75 -94.65 Q-9.4 -96.95 -9.9 -99.5 -10.05 -100.4 -10.9 -100.75 L-12.2 -101.3 -4.0 -100.85 0.5 -100.6 29.55 -98.75 59.1 -96.8 73.55 -95.9 73.2 -95.5 72.55 -94.85 72.6 -93.75" fill="#ffff00" fill-opacity="0.5019608" fill-rule="evenodd" stroke="none"/>
  </g>
</svg>
