<?xml version="1.0" encoding="UTF-8" standalone="no"?>
<svg xmlns:ffdec="https://www.free-decompiler.com/flash" xmlns:xlink="http://www.w3.org/1999/xlink" ffdec:objectType="shape" height="131.45px" width="82.95px" xmlns="http://www.w3.org/2000/svg">
  <g transform="matrix(1.0, 0.0, 0.0, 1.0, 26.45, 127.9)">
    <path d="M9.15 -108.0 L8.7 -106.9 8.55 -106.9 7.3 -107.95 Q3.9 -111.35 3.9 -116.2 3.9 -121.05 7.3 -124.5 10.75 -127.9 15.6 -127.9 20.45 -127.9 23.85 -124.5 27.25 -121.05 27.25 -116.2 27.25 -111.35 23.85 -107.95 20.45 -104.55 15.6 -104.55 L15.25 -104.55 14.6 -104.85 14.8 -106.4 Q15.4 -110.75 11.8 -112.15 9.35 -111.95 9.25 -109.4 L9.15 -108.0" fill="#0c0c0c" fill-rule="evenodd" stroke="none"/>
    <path d="M14.6 -104.85 L14.2 -102.35 40.4 -102.8 41.7 -102.9 Q46.3 -103.75 50.2 -102.3 L52.2 -102.45 Q53.95 -102.6 55.2 -101.35 57.05 -99.55 56.3 -96.85 54.9 -92.1 49.7 -93.75 47.75 -94.4 47.5 -96.25 L32.5 -96.5 Q32.75 -91.7 28.0 -89.05 L23.7 -86.4 Q18.45 -82.8 15.0 -77.6 13.2 -74.9 10.1 -74.85 L9.05 -74.95 8.75 -69.5 Q8.7 -63.65 6.9 -58.1 L5.7 -53.3 Q7.75 -51.8 9.3 -49.5 L14.35 -41.5 Q17.2 -36.6 17.8 -31.1 18.95 -29.1 19.3 -27.05 21.2 -25.65 19.85 -22.45 19.0 -20.25 18.55 -17.9 L17.35 -12.05 15.3 -2.6 22.5 -2.2 Q23.9 -2.1 24.15 -0.7 24.85 3.45 20.6 3.05 L13.1 2.3 11.8 2.2 11.05 1.95 Q9.35 1.1 9.65 -1.5 10.35 -8.5 12.5 -15.1 13.25 -19.75 14.65 -24.1 13.9 -24.85 13.55 -26.1 L13.25 -27.7 Q11.15 -37.5 4.8 -45.5 L4.65 -44.65 Q3.2 -35.3 -0.8 -26.85 -2.2 -23.95 -4.3 -21.5 -8.15 -17.05 -11.65 -12.25 -14.95 -7.7 -19.25 -4.25 -13.15 -3.4 -7.3 -1.2 -6.2 -0.8 -5.8 0.35 -4.9 3.3 -8.05 3.5 L-11.25 3.15 Q-17.5 1.3 -24.0 0.25 -27.55 -0.35 -25.95 -3.4 -26.75 -5.5 -24.25 -7.25 -18.6 -11.25 -15.0 -17.05 -11.3 -23.2 -6.0 -28.05 L-5.15 -29.95 Q-4.9 -30.5 -4.45 -30.85 -2.65 -36.45 -1.4 -42.2 -0.75 -45.15 -0.75 -48.25 -0.75 -50.1 0.0 -51.3 L-0.05 -52.55 Q0.9 -58.8 2.65 -64.95 4.05 -70.05 4.05 -75.6 4.1 -78.3 4.55 -81.0 L7.15 -96.2 7.5 -98.1 8.8 -105.4 9.15 -108.0 9.25 -109.4 Q9.35 -111.95 11.8 -112.15 15.4 -110.75 14.8 -106.4 L14.6 -104.85 M25.6 -96.45 L13.9 -96.15 13.2 -96.15 13.1 -95.45 Q12.75 -92.85 12.8 -90.15 12.85 -87.5 13.15 -84.9 L25.45 -94.8 Q25.45 -95.75 25.6 -96.45" fill="#000000" fill-rule="evenodd" stroke="none"/>
  </g>
</svg>
