<?xml version="1.0" encoding="UTF-8" standalone="no"?>
<svg xmlns:ffdec="https://www.free-decompiler.com/flash" xmlns:xlink="http://www.w3.org/1999/xlink" ffdec:objectType="shape" height="171.5px" width="143.55px" xmlns="http://www.w3.org/2000/svg">
  <g transform="matrix(1.0, 0.0, 0.0, 1.0, 52.45, 145.95)">
    <path d="M45.4 -77.4 L45.4 -75.55 44.4 -74.4 42.8 -74.55 Q38.65 -76.9 34.25 -78.65 33.25 -78.55 33.0 -77.65 L32.95 -76.9 Q32.95 -76.3 33.1 -75.8 L33.95 -75.0 Q37.2 -71.65 39.8 -67.95 L33.3 -66.3 24.75 -64.85 Q20.1 -64.35 18.1 -61.25 19.0 -60.25 20.35 -59.7 27.75 -56.75 34.75 -52.6 35.6 -51.35 36.95 -50.75 L37.25 -49.95 Q37.65 -48.5 37.35 -47.0 35.25 -45.5 34.0 -43.55 L34.0 -42.8 34.0 -41.65 35.0 -40.55 35.0 -40.2 35.0 -39.8 Q36.75 -37.6 39.1 -36.1 L39.25 -35.75 39.95 -34.6 39.95 -33.85 39.8 -32.75 39.55 -32.4 Q37.95 -30.45 36.7 -28.3 L34.6 -26.4 34.4 -25.75 Q33.8 -24.65 34.0 -23.45 L34.25 -23.05 34.5 -22.7 34.5 -22.35 34.5 -21.95 Q38.15 -18.5 41.55 -15.65 40.0 -14.4 38.2 -13.85 33.7 -12.5 30.0 -9.95 L30.0 -9.2 30.0 -8.05 Q30.8 -6.7 32.4 -6.6 32.9 -5.85 33.7 -5.6 41.65 -3.25 47.9 1.75 47.9 2.6 47.15 3.05 41.4 6.75 36.0 11.05 L36.15 12.1 37.45 15.85 37.85 16.25 Q39.65 18.1 40.95 20.35 29.1 18.5 17.35 19.1 L17.2 19.5 17.15 20.2 16.15 21.3 16.1 21.7 16.0 22.45 15.65 22.8 15.5 23.55 14.9 25.55 13.3 24.35 Q8.2 20.55 3.35 16.35 2.9 15.05 1.5 14.65 -3.7 17.2 -7.3 21.55 L-7.85 21.45 -8.05 21.2 -8.95 18.55 Q-9.85 14.6 -11.65 11.15 -11.55 10.4 -12.1 9.95 -15.35 7.5 -18.3 11.0 L-19.25 11.85 -31.0 19.45 Q-31.15 18.5 -30.75 17.65 -29.55 15.2 -29.15 12.5 -29.9 10.8 -31.7 11.4 L-32.7 11.75 Q-38.75 14.0 -45.0 12.05 -47.25 11.35 -49.6 11.2 -52.3 11.05 -52.45 9.9 L-52.3 9.55 -52.05 8.8 -50.0 7.65 Q-41.35 2.55 -33.45 -3.25 L-33.45 -3.6 -33.45 -4.7 Q-38.7 -7.8 -43.9 -9.95 L-40.8 -11.65 Q-34.55 -14.1 -30.0 -18.6 L-30.0 -19.75 -30.0 -23.05 -35.2 -27.55 Q-33.55 -28.4 -31.55 -28.75 -25.35 -29.75 -21.05 -34.0 L-21.05 -34.35 -21.05 -35.45 -21.35 -35.85 -21.95 -36.6 -22.0 -36.95 Q-22.0 -37.6 -22.45 -38.1 L-23.25 -38.85 Q-25.9 -41.85 -28.0 -45.15 L-25.55 -46.25 -22.15 -46.95 Q-15.45 -47.4 -10.65 -51.35 L-10.6 -52.1 Q-10.55 -52.85 -10.8 -53.6 -12.8 -56.4 -15.35 -58.8 L-16.7 -59.85 Q-19.45 -61.5 -20.8 -63.4 -19.9 -64.6 -18.45 -65.25 -11.35 -68.5 -6.7 -74.15 L-6.7 -74.55 -6.7 -75.65 Q-7.65 -77.25 -8.95 -78.6 L-10.55 -79.75 Q-14.4 -81.45 -17.2 -83.7 L-14.75 -87.2 Q-1.7 -84.8 11.65 -84.1 L41.2 -82.25 46.45 -81.85 46.25 -79.25 45.9 -78.85 45.4 -78.15 45.4 -77.4 M69.0 -80.25 L69.05 -79.95 Q70.05 -75.8 68.85 -72.05 L68.35 -72.0 68.1 -72.05 Q62.95 -75.9 57.55 -79.35 L54.85 -81.25 69.0 -80.25 M25.95 -135.45 Q26.45 -134.95 27.1 -134.85 31.15 -134.3 35.0 -136.3 L35.3 -135.9 36.0 -134.8 36.05 -133.7 Q36.25 -132.2 36.7 -130.65 37.8 -127.0 37.6 -122.9 L38.55 -122.75 Q44.65 -125.1 50.6 -127.85 51.8 -126.55 53.45 -125.75 54.05 -124.2 55.2 -123.05 59.45 -118.95 64.0 -115.85 67.2 -116.75 69.85 -118.6 72.5 -120.45 74.65 -120.8 75.2 -119.0 74.9 -117.1 74.5 -114.7 74.5 -112.25 L74.8 -104.05 Q82.8 -102.0 91.05 -101.2 91.2 -100.0 90.55 -99.0 87.4 -94.5 82.6 -91.3 L82.6 -90.15 Q82.5 -88.65 82.75 -87.2 L83.1 -86.8 74.3 -86.45 70.3 -86.7 41.25 -88.65 12.15 -90.4 Q1.1 -90.8 -9.8 -92.55 -6.25 -96.6 -6.05 -101.95 -6.0 -103.05 -6.95 -103.5 -12.0 -105.95 -17.0 -106.05 -16.2 -107.75 -14.85 -109.1 -11.2 -112.7 -8.15 -116.8 L-8.15 -117.95 Q-8.15 -118.5 -8.45 -118.75 -12.4 -122.65 -17.85 -124.75 L-17.5 -125.15 -17.2 -125.5 Q-15.95 -125.75 -14.8 -126.4 -13.25 -127.25 -11.55 -127.6 -5.9 -128.65 -1.7 -132.2 L-1.7 -132.55 -1.7 -133.7 -9.15 -138.9 0.0 -138.55 4.0 -138.35 Q7.0 -138.3 9.6 -139.45 14.25 -141.5 17.15 -145.85 17.55 -146.15 17.95 -145.7 19.5 -143.95 20.65 -142.05 22.9 -138.45 25.95 -135.45" fill="#ffff00" fill-opacity="0.5019608" fill-rule="evenodd" stroke="none"/>
  </g>
</svg>
