<?xml version="1.0" encoding="UTF-8" standalone="no"?>
<svg xmlns:ffdec="https://www.free-decompiler.com/flash" xmlns:xlink="http://www.w3.org/1999/xlink" ffdec:objectType="shape" height="131.9px" width="92.0px" xmlns="http://www.w3.org/2000/svg">
  <g transform="matrix(1.0, 0.0, 0.0, 1.0, 26.7, 128.45)">
    <path d="M16.15 -128.45 Q21.0 -128.45 24.4 -125.05 27.8 -121.6 27.8 -116.75 27.8 -111.9 24.4 -108.5 21.0 -105.1 16.15 -105.1 L14.9 -105.15 14.8 -104.3 14.65 -103.0 18.95 -103.4 21.05 -103.7 21.7 -103.8 22.75 -104.1 Q41.7 -104.1 60.65 -103.7 62.65 -103.65 64.05 -102.1 66.5 -99.4 64.2 -96.75 63.3 -95.7 61.9 -95.45 57.5 -94.6 56.35 -98.35 L56.35 -98.5 42.7 -98.5 41.9 -98.25 33.2 -97.15 Q33.5 -96.3 33.45 -95.05 33.4 -93.25 31.85 -92.15 28.25 -89.65 24.3 -87.8 17.7 -81.95 9.85 -78.15 L9.8 -78.1 Q9.35 -70.95 7.35 -64.2 L6.85 -63.25 4.65 -53.6 Q9.25 -50.3 11.75 -44.95 L16.1 -34.85 Q21.95 -29.1 20.95 -20.9 20.8 -19.65 19.9 -18.75 18.8 -11.65 16.1 -5.0 L15.4 -2.95 15.15 -2.3 21.0 -1.45 Q24.85 -0.7 22.75 2.55 22.2 3.45 21.05 3.45 L10.75 3.05 Q9.1 2.9 9.05 1.3 9.0 -2.05 10.0 -5.15 11.0 -8.2 12.4 -11.05 L15.15 -23.1 15.45 -26.2 Q9.75 -34.7 5.4 -44.1 4.7 -45.65 3.35 -46.8 L3.1 -47.0 1.25 -39.5 0.9 -37.05 Q0.85 -35.95 0.1 -35.15 -1.0 -26.7 -6.7 -20.05 L-12.75 -12.55 -18.45 -4.85 -9.65 -3.7 Q-6.1 -2.95 -5.7 0.25 -5.6 1.1 -6.25 1.6 -8.95 3.55 -12.1 1.9 -13.15 1.4 -14.35 1.3 L-24.6 0.5 Q-26.5 0.3 -26.7 -1.55 -26.8 -3.05 -25.8 -4.1 L-11.9 -23.05 Q-8.95 -26.75 -6.9 -31.0 -5.3 -34.4 -4.75 -38.2 L-4.45 -38.85 Q-2.75 -48.7 0.25 -58.4 L0.6 -59.05 4.35 -76.35 Q3.55 -76.65 3.0 -77.55 2.25 -78.9 2.4 -80.55 3.05 -87.2 5.85 -93.35 7.4 -96.65 7.45 -100.45 7.45 -101.75 8.45 -102.55 L8.8 -105.55 9.2 -107.35 7.85 -108.5 Q4.45 -111.9 4.45 -116.75 4.45 -121.6 7.85 -125.05 11.3 -128.45 16.15 -128.45 M23.05 -95.7 L13.7 -94.55 13.0 -94.55 11.85 -87.9 11.45 -85.4 23.7 -93.7 Q23.5 -94.85 23.65 -95.8 L23.05 -95.7" fill="#0c0c0c" fill-rule="evenodd" stroke="none"/>
  </g>
</svg>
