<?xml version="1.0" encoding="UTF-8" standalone="no"?>
<svg xmlns:ffdec="https://www.free-decompiler.com/flash" xmlns:xlink="http://www.w3.org/1999/xlink" ffdec:objectType="shape" height="167.65px" width="136.6px" xmlns="http://www.w3.org/2000/svg">
  <g transform="matrix(1.0, 0.0, 0.0, 1.0, 50.05, 144.2)">
    <path d="M86.55 -104.5 L86.5 -104.45 Q86.4 -103.4 85.7 -102.5 83.25 -99.45 80.15 -96.9 L79.6 -96.35 78.7 -95.45 78.4 -95.1 78.45 -94.0 Q78.4 -92.55 78.65 -91.15 L78.95 -90.75 71.8 -88.3 68.7 -88.15 68.0 -87.9 67.15 -85.65 Q66.7 -84.5 66.65 -83.45 66.55 -80.35 64.85 -77.5 L64.35 -77.45 64.1 -77.5 59.55 -79.85 58.8 -80.15 54.55 -81.4 Q52.4 -82.05 50.6 -82.95 L49.95 -83.3 49.5 -83.45 Q46.65 -85.5 44.35 -83.5 L44.15 -82.65 43.35 -80.05 24.8 -82.2 10.45 -83.6 -10.75 -84.35 -12.3 -86.05 -12.45 -86.3 -13.2 -87.1 -13.95 -87.6 -12.7 -91.2 -11.0 -94.45 -10.4 -95.6 Q-7.1 -99.25 -6.35 -104.0 -6.2 -104.95 -6.8 -105.45 L-9.3 -107.4 -9.6 -107.55 -10.55 -108.1 -14.55 -108.95 Q-14.3 -110.4 -13.6 -111.55 -11.85 -114.75 -10.65 -118.1 L-10.85 -119.15 -10.8 -119.25 -10.9 -119.95 Q-12.6 -122.9 -14.85 -124.8 L-15.9 -125.5 -15.5 -125.8 -15.15 -126.1 Q-13.95 -126.35 -12.8 -126.95 L-10.35 -127.95 -9.8 -128.1 -8.75 -128.55 Q-4.95 -130.5 -2.05 -133.9 L-2.05 -134.2 -2.05 -135.35 -4.9 -138.55 -6.55 -139.95 -6.6 -140.0 -2.2 -139.4 1.85 -138.85 5.6 -138.2 10.3 -138.1 10.6 -138.1 11.4 -138.3 Q13.0 -139.05 14.3 -140.1 16.3 -141.8 17.9 -144.05 18.3 -144.3 18.65 -144.05 L21.35 -142.0 23.6 -140.15 26.5 -136.7 Q26.9 -136.25 27.45 -136.05 30.9 -134.9 34.1 -135.6 L34.4 -135.2 35.0 -134.05 35.15 -133.0 35.25 -132.55 35.65 -131.15 35.9 -130.1 37.5 -125.6 37.55 -124.95 37.8 -124.3 38.1 -124.25 38.55 -124.4 39.0 -124.7 39.8 -125.2 Q42.3 -126.75 44.7 -128.45 L47.95 -130.35 48.75 -130.45 Q49.95 -129.2 51.45 -128.35 52.15 -126.95 53.25 -125.85 56.95 -122.2 60.8 -119.1 L61.4 -118.7 62.5 -118.9 Q65.0 -119.7 67.1 -121.1 69.6 -122.8 71.65 -123.5 L72.05 -122.7 72.4 -121.15 72.85 -118.9 72.85 -118.1 72.8 -117.35 Q72.85 -113.35 73.05 -109.4 75.6 -108.0 78.2 -106.75 L81.05 -105.7 86.55 -104.5 M32.95 -74.55 L33.0 -73.9 32.95 -73.6 33.4 -72.95 Q34.65 -70.75 35.6 -68.2 L35.95 -67.25 33.75 -66.2 33.15 -65.85 32.85 -65.65 32.65 -65.5 31.7 -65.0 31.35 -64.9 Q29.1 -63.9 26.55 -63.0 24.6 -62.45 23.55 -60.85 L22.25 -59.25 22.9 -58.3 23.55 -57.65 28.45 -53.4 34.25 -49.7 35.65 -48.3 36.35 -47.9 36.75 -47.15 Q37.25 -45.85 37.25 -44.55 36.05 -43.05 35.5 -41.2 L35.6 -40.5 35.75 -39.45 36.75 -38.4 36.8 -38.05 36.85 -37.7 38.55 -35.8 39.05 -34.95 39.65 -34.25 39.7 -33.95 39.8 -33.5 39.95 -32.95 39.85 -32.3 39.55 -31.35 39.25 -31.05 Q37.55 -29.3 36.2 -27.35 L34.1 -25.5 33.85 -24.9 Q33.25 -23.9 33.25 -22.85 L33.35 -22.5 33.5 -22.15 33.5 -22.1 33.5 -21.85 33.5 -21.65 33.5 -21.45 34.8 -19.7 39.95 -15.35 38.1 -13.45 37.75 -13.35 Q34.45 -12.05 31.55 -10.25 L31.3 -10.0 30.4 -9.15 30.4 -8.4 30.6 -7.4 Q31.45 -6.15 32.9 -5.85 L34.15 -4.85 Q39.15 -2.8 43.55 0.2 L44.35 1.0 45.85 3.0 Q45.7 3.75 45.0 4.1 L43.65 4.9 Q38.25 7.75 35.0 12.05 L35.0 12.45 35.0 12.9 35.15 15.5 35.4 15.8 35.8 16.5 36.05 16.95 36.65 18.5 30.45 18.1 26.85 18.35 17.65 19.45 17.45 19.5 16.8 19.75 15.65 19.9 14.8 19.75 14.6 19.95 14.45 20.35 13.5 20.95 13.45 21.2 13.25 21.65 12.9 21.85 12.65 22.25 11.9 23.45 10.4 22.25 6.95 19.55 6.2 19.05 0.45 15.95 Q-0.15 15.05 -1.5 14.85 -5.5 16.7 -8.75 19.55 L-9.65 20.0 -10.1 20.35 -10.55 20.15 -10.7 19.9 -10.7 19.85 -11.7 17.45 -11.8 17.25 -11.9 16.9 -12.05 16.0 Q-13.0 12.95 -14.65 10.75 -14.7 10.15 -15.25 9.8 -17.0 8.75 -18.75 9.25 -20.05 9.7 -21.35 10.95 L-22.3 11.65 -31.05 16.5 Q-32.05 16.8 -33.05 17.2 -33.1 16.3 -32.75 15.45 -31.7 13.05 -31.15 10.55 -31.55 8.95 -32.7 9.15 L-33.35 9.2 -34.6 9.25 -34.9 9.25 -36.55 9.0 -38.05 8.75 Q-40.65 8.45 -43.25 7.4 L-47.4 6.2 Q-49.15 5.9 -49.85 5.2 L-50.05 4.75 -49.9 4.45 -49.6 3.75 -47.7 2.5 Q-45.65 1.25 -43.5 0.15 -38.35 -2.6 -33.75 -5.85 L-33.4 -6.2 -31.95 -7.7 -31.95 -8.0 -32.0 -8.6 -32.05 -9.05 -40.75 -15.35 -40.1 -16.1 -38.9 -16.9 -38.05 -17.2 Q-32.05 -19.5 -27.2 -22.75 L-27.15 -22.75 -27.0 -23.5 -27.0 -23.8 -26.8 -26.9 -30.8 -31.75 -29.0 -33.1 -28.4 -33.4 Q-25.45 -34.8 -23.1 -37.45 L-20.4 -39.6 -20.35 -39.85 -20.3 -40.1 -20.15 -40.75 -20.25 -41.05 -20.55 -41.65 -20.5 -41.95 Q-20.4 -42.45 -20.6 -42.9 L-21.0 -43.5 -23.05 -48.95 -20.7 -50.1 -19.45 -50.55 -18.45 -51.05 -18.1 -51.25 Q-14.8 -52.25 -12.7 -54.7 L-10.8 -56.1 -10.65 -56.8 -10.55 -58.15 Q-11.5 -60.6 -12.8 -62.8 L-12.95 -62.95 -13.15 -63.2 -13.85 -64.05 -15.45 -65.8 -17.2 -67.45 -17.35 -67.6 Q-16.95 -68.75 -16.15 -69.4 L-14.55 -70.75 -12.9 -72.75 Q-10.1 -75.0 -7.75 -77.8 L3.45 -77.4 10.4 -77.25 Q21.85 -77.05 33.0 -75.15 L32.95 -74.55" fill="#ffff00" fill-opacity="0.5019608" fill-rule="evenodd" stroke="none"/>
  </g>
</svg>
