<?xml version="1.0" encoding="UTF-8" standalone="no"?>
<svg xmlns:ffdec="https://www.free-decompiler.com/flash" xmlns:xlink="http://www.w3.org/1999/xlink" ffdec:objectType="shape" height="163.8px" width="129.65px" xmlns="http://www.w3.org/2000/svg">
  <g transform="matrix(1.0, 0.0, 0.0, 1.0, 47.65, 142.45)">
    <path d="M81.95 -107.7 Q81.6 -106.85 80.85 -106.05 L75.4 -100.85 74.95 -100.25 74.35 -99.25 74.15 -98.9 74.25 -97.85 74.55 -95.05 74.8 -94.65 70.45 -90.3 67.5 -90.15 66.8 -89.95 65.4 -88.45 64.25 -86.95 Q63.1 -84.85 60.8 -82.95 L60.3 -82.9 60.1 -82.95 55.4 -84.45 54.65 -84.5 51.5 -83.5 48.55 -82.75 47.9 -82.75 47.5 -82.75 42.35 -82.9 41.9 -82.35 40.25 -80.35 39.85 -80.1 39.25 -79.7 38.9 -79.3 38.6 -78.95 38.55 -78.4 38.55 -77.85 38.0 -76.75 37.2 -76.1 35.45 -75.35 35.05 -75.05 34.95 -74.9 33.6 -74.15 Q33.15 -73.75 33.0 -72.95 L32.95 -72.2 32.95 -71.55 32.8 -71.35 32.9 -70.9 32.25 -67.7 Q26.7 -69.25 20.85 -69.8 L9.6 -71.25 -5.8 -73.45 -13.7 -74.4 -13.7 -74.75 -13.45 -76.65 Q-10.8 -79.05 -8.5 -81.85 L-8.4 -82.2 -8.1 -83.1 Q-8.1 -84.5 -8.25 -85.75 L-8.55 -86.9 -9.45 -89.85 -9.55 -90.15 -10.05 -91.05 -10.65 -91.55 -11.15 -94.6 Q-11.5 -95.95 -11.3 -97.35 L-11.25 -98.35 Q-8.0 -101.8 -6.65 -106.05 -6.4 -106.85 -6.65 -107.4 L-7.6 -109.7 -7.8 -109.95 -8.45 -110.7 -12.15 -111.85 -12.35 -114.05 Q-12.45 -116.75 -13.1 -119.4 L-13.55 -120.4 -13.5 -120.5 -13.35 -121.15 Q-13.55 -123.85 -13.9 -125.7 L-14.0 -126.2 -13.45 -126.5 -13.1 -126.7 Q-11.95 -126.95 -10.85 -127.5 L-8.55 -128.45 -8.05 -128.65 Q-7.5 -128.9 -7.2 -129.3 -4.5 -131.95 -2.4 -135.55 L-2.4 -135.9 -2.35 -136.95 -4.15 -140.55 -4.15 -141.15 -4.15 -141.1 Q-2.25 -140.4 -0.1 -140.0 L3.75 -139.15 7.15 -138.1 Q9.45 -137.3 11.3 -136.8 L11.6 -136.75 12.4 -136.75 15.2 -138.45 Q17.05 -140.15 18.7 -142.2 19.0 -142.5 19.35 -142.4 L22.05 -141.9 24.35 -141.45 27.0 -137.95 27.8 -137.25 Q30.65 -135.5 33.25 -134.85 L33.45 -134.45 34.0 -133.35 34.25 -132.3 34.35 -131.9 34.9 -130.6 35.15 -129.55 Q35.9 -126.95 37.35 -125.9 L37.55 -125.85 38.0 -125.7 38.2 -125.8 38.5 -126.1 38.8 -126.45 39.5 -127.0 43.3 -131.05 46.1 -133.2 46.9 -133.0 49.4 -131.0 Q50.2 -129.75 51.25 -128.65 L58.25 -121.95 58.8 -121.5 59.85 -121.65 Q62.3 -122.3 64.4 -123.6 L68.65 -126.2 69.1 -125.9 69.9 -125.2 71.15 -123.95 71.15 -123.15 71.1 -122.4 71.25 -114.75 74.7 -111.0 77.0 -109.45 82.0 -107.75 81.95 -107.7 M22.35 -63.1 L28.9 -62.1 28.4 -61.2 Q27.7 -60.4 27.55 -58.85 L26.4 -57.25 26.65 -56.25 26.75 -55.55 Q27.35 -53.5 28.5 -50.75 31.0 -48.8 33.75 -46.8 34.35 -46.05 35.1 -45.45 L35.8 -45.05 36.2 -44.4 Q36.9 -43.25 37.2 -42.05 36.9 -40.6 36.95 -38.9 L37.2 -38.2 37.55 -37.3 38.5 -36.25 38.6 -35.9 38.75 -35.55 40.25 -33.85 40.15 -33.0 40.2 -32.4 40.15 -32.15 40.05 -31.75 40.0 -31.3 39.75 -30.8 39.25 -30.0 38.95 -29.65 35.7 -26.35 33.65 -24.55 33.3 -24.0 Q32.65 -23.15 32.45 -22.2 L32.5 -21.9 32.5 -21.65 32.5 -21.6 32.5 -21.3 32.5 -21.15 32.5 -20.95 33.4 -19.15 38.35 -15.0 37.6 -13.0 37.25 -12.85 Q34.25 -11.35 31.55 -9.6 L31.4 -9.3 30.75 -8.3 30.75 -7.65 31.15 -6.7 Q32.05 -5.6 33.35 -5.15 33.9 -4.5 34.55 -4.15 39.15 -1.65 43.15 1.45 L43.65 2.4 43.8 4.3 Q43.5 4.85 42.8 5.2 L41.5 5.8 Q35.75 8.25 33.95 13.0 L34.0 13.45 33.85 13.7 32.9 15.15 32.95 15.3 32.75 15.65 32.7 15.8 32.35 16.6 Q29.35 16.15 26.3 16.6 24.5 16.85 23.05 17.55 18.9 18.65 14.7 19.9 L14.5 20.1 14.05 20.5 13.0 20.7 12.25 20.4 12.0 20.4 11.8 20.5 10.9 20.6 10.75 20.7 10.5 20.85 10.15 20.85 9.85 21.0 8.9 21.35 7.45 20.2 4.1 17.45 3.35 17.05 -2.5 15.55 Q-3.25 15.05 -4.45 15.05 -8.4 16.75 -11.75 19.2 L-12.55 19.1 -12.9 19.1 -13.25 18.8 -13.35 18.6 -13.35 18.55 -14.45 16.4 -14.55 16.2 -14.6 15.8 -14.75 15.0 Q-15.8 12.0 -17.7 10.35 -17.85 9.9 -18.4 9.65 L-21.8 9.5 Q-23.15 9.9 -24.4 10.9 L-25.35 11.45 -34.0 15.45 -35.1 14.9 Q-35.1 14.05 -34.75 13.25 L-33.1 8.6 Q-33.2 7.15 -33.75 6.85 L-34.0 6.7 -34.45 6.15 -34.55 6.0 -35.5 5.1 -36.85 4.6 Q-39.15 3.9 -41.45 2.8 -43.3 1.9 -45.2 1.2 -46.7 0.7 -47.55 -0.1 L-47.65 -0.35 -47.5 -0.7 -47.15 -1.35 -45.4 -2.6 Q-43.5 -3.9 -41.25 -4.8 -36.15 -7.05 -31.7 -10.2 L-31.45 -10.55 -30.5 -12.15 -30.5 -12.4 -30.55 -13.0 -30.65 -13.4 -37.6 -20.75 -37.25 -21.6 -36.1 -22.5 -35.35 -22.8 Q-29.55 -24.85 -24.4 -26.95 L-24.35 -26.95 -24.05 -27.55 -24.0 -27.85 -23.6 -30.8 Q-24.75 -33.55 -26.4 -36.0 L-25.55 -37.65 -25.2 -38.1 Q-23.65 -40.2 -22.4 -43.15 L-19.8 -45.15 -19.7 -45.35 -19.55 -45.55 -19.2 -46.0 -19.15 -46.25 -19.15 -46.7 -19.05 -46.95 Q-18.75 -47.35 -18.75 -47.65 L-18.8 -48.15 -18.05 -52.75 -15.9 -53.95 -14.7 -54.55 -14.15 -55.25 -14.05 -55.5 Q-12.75 -57.25 -12.75 -59.5 L-10.95 -60.9 -10.7 -61.45 -10.3 -62.65 Q-10.25 -64.9 -10.45 -67.0 L-10.55 -67.15 -10.65 -67.4 -10.95 -68.1 -6.55 -67.35 Q7.75 -64.45 22.35 -63.1" fill="#ffff00" fill-opacity="0.5019608" fill-rule="evenodd" stroke="none"/>
  </g>
</svg>
