<?xml version="1.0" encoding="UTF-8" standalone="no"?>
<svg xmlns:ffdec="https://www.free-decompiler.com/flash" xmlns:xlink="http://www.w3.org/1999/xlink" ffdec:objectType="shape" height="130.85px" width="91.35px" xmlns="http://www.w3.org/2000/svg">
  <g transform="matrix(1.0, 0.0, 0.0, 1.0, 26.6, 128.45)">
    <path d="M10.15 -107.05 L9.1 -107.45 7.85 -108.5 Q4.45 -111.9 4.45 -116.75 4.45 -121.6 7.85 -125.05 11.3 -128.45 16.15 -128.45 21.0 -128.45 24.4 -125.05 27.8 -121.6 27.8 -116.75 27.8 -111.9 24.4 -108.5 21.0 -105.1 16.15 -105.1 L16.1 -105.1 Q16.75 -108.2 13.5 -109.6 11.2 -109.15 10.15 -107.05" fill="#0c0c0c" fill-rule="evenodd" stroke="none"/>
    <path d="M16.1 -105.1 L16.05 -104.9 37.05 -103.9 40.25 -103.75 Q47.7 -103.5 55.2 -103.5 59.0 -104.9 62.95 -103.45 65.1 -102.65 64.7 -100.4 64.2 -98.0 61.75 -97.25 58.0 -96.1 54.85 -97.7 L38.55 -98.4 36.0 -98.6 14.4 -99.65 14.1 -98.75 13.65 -97.35 12.3 -86.25 Q18.7 -89.45 24.25 -94.35 24.6 -99.7 30.45 -98.25 32.8 -97.65 32.25 -95.25 31.6 -92.4 29.15 -90.55 21.95 -85.0 14.15 -80.8 L11.3 -79.5 10.7 -77.1 Q7.45 -65.35 6.85 -53.25 8.3 -51.45 9.25 -49.1 9.85 -47.55 10.75 -46.1 16.3 -36.9 20.05 -27.05 20.3 -26.35 19.85 -25.8 21.4 -23.7 19.85 -20.35 L19.5 -18.95 Q18.75 -11.3 17.35 -3.8 21.65 -3.7 25.45 -1.85 L25.95 -1.15 Q26.45 1.7 23.6 1.8 L11.45 1.1 Q10.4 0.95 10.25 -0.1 9.8 -2.85 12.25 -3.35 13.1 -9.25 13.35 -15.25 13.6 -20.65 15.65 -25.35 L15.2 -25.85 Q13.95 -27.4 13.7 -29.4 10.45 -34.65 7.5 -40.05 7.15 -40.65 7.05 -41.4 5.05 -44.55 3.3 -47.8 L1.7 -41.25 Q1.55 -40.4 0.95 -39.7 L-0.85 -28.25 Q-1.45 -24.45 -4.55 -23.95 L-10.4 -14.2 Q-12.2 -11.05 -14.3 -8.15 -16.1 -5.7 -18.2 -3.8 -12.6 -3.5 -7.2 -2.2 -6.65 -2.05 -6.5 -1.45 -5.45 2.7 -9.9 2.4 L-25.2 0.45 Q-25.8 0.35 -25.95 -0.25 L-26.05 -0.95 Q-27.45 -2.8 -25.35 -4.8 -20.0 -10.0 -15.25 -15.9 L-12.35 -21.55 -11.9 -22.2 -8.5 -27.85 Q-7.9 -28.75 -7.0 -29.0 L-6.75 -30.2 -6.3 -32.0 -5.65 -32.95 Q-4.15 -44.6 0.15 -55.5 0.6 -56.6 1.35 -57.35 2.55 -67.9 5.15 -78.2 L4.65 -78.2 Q2.05 -78.15 1.9 -80.65 1.7 -83.55 3.6 -85.7 5.55 -90.3 6.9 -95.25 7.65 -98.1 8.7 -100.8 8.9 -103.55 9.75 -106.1 L10.15 -107.05 Q11.2 -109.15 13.5 -109.6 16.75 -108.2 16.1 -105.1" fill="#000000" fill-rule="evenodd" stroke="none"/>
  </g>
</svg>
