<?xml version="1.0" encoding="UTF-8" standalone="no"?>
<svg xmlns:ffdec="https://www.free-decompiler.com/flash" xmlns:xlink="http://www.w3.org/1999/xlink" ffdec:objectType="shape" height="129.6px" width="87.95px" xmlns="http://www.w3.org/2000/svg">
  <g transform="matrix(1.0, 0.0, 0.0, 1.0, 25.7, 127.9)">
    <path d="M10.35 -108.1 Q10.0 -107.65 9.8 -106.9 L9.65 -106.9 8.4 -107.95 Q5.0 -111.35 5.0 -116.2 5.0 -121.05 8.4 -124.5 11.85 -127.9 16.7 -127.9 21.55 -127.9 24.95 -124.5 28.35 -121.05 28.35 -116.2 28.35 -111.35 24.95 -107.95 23.05 -106.05 20.7 -105.2 L15.4 -105.35 15.35 -105.8 Q16.9 -109.9 12.65 -110.9 L11.4 -110.5 Q10.65 -110.1 10.55 -109.35 L10.35 -108.1" fill="#0c0c0c" fill-rule="evenodd" stroke="none"/>
    <path d="M20.7 -105.2 L28.3 -104.3 34.75 -103.5 Q41.7 -102.95 48.6 -104.55 51.3 -105.2 53.7 -106.6 54.1 -108.3 55.45 -109.55 56.5 -110.45 57.7 -110.45 63.9 -110.65 61.65 -105.2 60.6 -102.7 57.7 -101.85 L54.55 -100.65 Q47.0 -97.2 38.5 -98.1 L37.5 -98.2 14.5 -100.35 13.05 -88.75 12.65 -85.9 Q19.65 -88.2 26.0 -91.85 23.6 -96.0 28.45 -97.15 34.05 -98.45 33.6 -93.35 33.25 -89.55 29.85 -87.5 21.25 -82.3 11.65 -80.1 L10.9 -76.5 Q8.3 -64.3 7.5 -51.8 L7.5 -51.45 8.15 -50.7 8.8 -49.75 9.85 -47.25 Q11.7 -40.7 15.55 -35.0 17.35 -32.3 19.6 -29.95 L20.65 -28.55 Q22.9 -27.3 21.2 -24.05 18.9 -19.55 18.45 -14.35 L17.35 -4.55 24.7 -3.6 Q25.7 -3.5 25.9 -2.4 26.55 1.55 22.35 1.7 16.95 1.9 12.5 -0.35 11.6 -0.8 11.7 -1.9 12.7 -11.75 14.6 -21.45 15.05 -23.75 15.85 -25.95 13.1 -28.7 11.25 -32.15 L9.25 -34.95 Q9.15 -36.6 7.85 -38.5 7.1 -39.6 6.8 -40.85 6.2 -43.15 4.95 -44.65 2.75 -39.2 0.1 -33.9 -0.5 -29.75 -2.6 -26.3 L-2.3 -26.0 -2.5 -25.75 Q-5.05 -22.35 -8.4 -19.4 L-9.45 -18.2 Q-14.4 -11.65 -18.35 -4.7 L-8.65 -4.25 Q-7.25 -4.15 -6.75 -2.8 -5.4 1.1 -9.5 1.0 L-10.55 0.7 -22.1 0.1 -22.65 0.0 Q-23.9 -0.1 -25.25 -1.75 -25.95 -2.55 -25.6 -3.65 -25.05 -5.7 -22.95 -6.85 -20.95 -12.9 -16.75 -17.85 L-14.0 -21.4 -6.7 -29.45 -6.55 -31.0 Q-5.3 -36.75 -2.5 -42.15 -1.0 -45.05 0.1 -48.1 L1.65 -51.75 1.85 -52.05 Q2.5 -63.8 4.95 -75.05 L5.8 -79.1 5.4 -79.05 Q3.55 -78.8 3.25 -80.6 2.7 -83.85 3.4 -86.95 4.3 -90.95 5.35 -94.8 5.75 -96.35 6.6 -97.65 7.15 -100.75 9.4 -102.3 L10.35 -108.1 10.55 -109.35 Q10.65 -110.1 11.4 -110.5 L12.65 -110.9 Q16.9 -109.9 15.35 -105.8 L15.15 -105.4 15.15 -105.35 15.4 -105.35 20.7 -105.2" fill="#000000" fill-rule="evenodd" stroke="none"/>
  </g>
</svg>
