<?xml version="1.0" encoding="UTF-8" standalone="no"?>
<svg xmlns:ffdec="https://www.free-decompiler.com/flash" xmlns:xlink="http://www.w3.org/1999/xlink" ffdec:objectType="shape" height="166.8px" width="115.85px" xmlns="http://www.w3.org/2000/svg">
  <g transform="matrix(1.0, 0.0, 0.0, 1.0, 42.9, 144.5)">
    <path d="M36.6 -12.05 L31.5 -8.3 31.5 -7.95 31.5 -6.1 42.4 3.95 Q42.65 4.5 42.3 5.1 40.1 6.95 37.25 7.65 30.45 9.3 32.0 15.35 L26.7 14.0 25.9 13.5 Q22.05 11.9 18.05 13.65 16.4 14.35 15.4 15.85 L8.7 20.85 8.65 21.2 8.55 21.95 7.6 22.3 Q3.45 17.2 -1.55 13.25 -1.95 12.9 -2.4 13.0 -10.4 14.95 -17.7 18.45 L-18.45 17.35 -18.7 15.85 -20.1 14.0 -20.1 13.65 -20.2 12.9 Q-22.35 7.9 -28.0 9.9 -34.4 12.15 -39.9 13.25 -38.6 5.7 -34.1 -0.15 L-33.95 -0.5 Q-33.5 -1.55 -33.45 -2.75 L-34.4 -3.8 Q-38.8 -7.05 -42.9 -10.65 -40.8 -13.8 -36.85 -14.75 -31.7 -16.05 -27.65 -18.85 L-27.55 -19.25 Q-27.45 -20.55 -27.65 -21.85 -30.35 -26.95 -31.5 -32.6 L-30.6 -33.75 Q-24.95 -35.65 -18.8 -35.3 -18.3 -35.3 -18.1 -35.75 -16.35 -39.95 -17.45 -43.95 L10.45 -40.85 Q22.6 -39.2 34.9 -39.1 39.8 -34.75 43.65 -29.9 42.95 -29.5 42.25 -29.2 L40.5 -28.35 Q34.65 -25.2 30.5 -20.6 L30.5 -20.2 30.5 -18.0 Q34.9 -15.8 36.6 -12.05 M32.5 -130.6 L33.35 -129.45 Q33.85 -125.8 37.1 -126.6 37.55 -127.1 37.45 -127.75 L38.35 -128.5 38.4 -128.85 38.45 -129.95 38.95 -130.7 Q39.9 -133.45 40.45 -136.3 L42.4 -138.9 Q48.2 -133.8 53.05 -127.7 53.65 -126.95 54.5 -127.1 59.75 -128.1 63.25 -132.35 65.65 -133.95 67.7 -134.05 L67.7 -133.3 67.7 -119.55 Q68.85 -118.5 68.85 -116.95 71.4 -115.8 72.95 -114.35 69.15 -111.85 65.85 -108.75 L65.7 -108.05 Q65.5 -107.45 65.6 -106.95 66.85 -100.75 67.7 -94.25 L47.15 -93.6 46.4 -93.25 44.4 -82.45 43.4 -81.35 Q37.4 -82.25 31.75 -81.1 L31.65 -80.75 31.5 -74.4 32.5 -72.9 32.55 -72.55 Q33.1 -69.75 32.9 -66.95 28.95 -66.7 25.3 -65.7 23.45 -65.15 23.6 -63.15 L24.05 -62.4 24.05 -62.0 24.05 -61.65 Q24.5 -61.0 25.15 -60.8 31.15 -58.9 35.5 -54.8 L34.1 -52.2 Q30.45 -49.5 28.55 -45.5 L28.75 -45.25 13.45 -46.8 -4.75 -48.95 -19.95 -50.6 -21.05 -54.55 Q-19.95 -56.1 -18.05 -56.5 -10.75 -57.95 -5.3 -62.5 -5.1 -63.25 -5.55 -63.7 -8.45 -67.1 -12.9 -69.1 -9.3 -72.1 -5.8 -75.4 L-5.7 -75.75 Q-5.05 -77.35 -5.2 -79.15 -5.8 -80.2 -7.05 -80.25 -9.15 -82.25 -12.0 -82.7 L-14.6 -84.45 -3.7 -97.5 -3.7 -97.85 -3.7 -98.95 Q-5.45 -100.8 -8.0 -101.45 -11.3 -102.35 -12.9 -103.95 -8.0 -108.6 -4.2 -114.35 L-4.2 -114.7 -4.2 -115.85 Q-10.55 -119.95 -18.1 -122.05 L-18.95 -123.0 Q-15.85 -125.7 -12.0 -127.5 -8.3 -127.75 -5.0 -129.45 -4.15 -129.85 -4.05 -130.75 -3.25 -137.6 -2.6 -144.5 -1.1 -144.2 0.65 -143.5 2.05 -141.95 4.05 -141.25 10.25 -139.25 13.3 -134.3 L14.4 -133.7 16.9 -135.2 Q21.1 -139.7 25.8 -144.0 30.1 -137.75 32.5 -130.6" fill="#ffff00" fill-opacity="0.5019608" fill-rule="evenodd" stroke="none"/>
  </g>
</svg>
