<?xml version="1.0" encoding="UTF-8" standalone="no"?>
<svg xmlns:ffdec="https://www.free-decompiler.com/flash" xmlns:xlink="http://www.w3.org/1999/xlink" ffdec:objectType="shape" height="131.35px" width="80.5px" xmlns="http://www.w3.org/2000/svg">
  <g transform="matrix(1.0, 0.0, 0.0, 1.0, 26.3, 128.45)">
    <path d="M16.15 -128.45 Q21.0 -128.45 24.4 -125.05 27.8 -121.6 27.8 -116.75 27.8 -111.9 24.4 -108.5 21.95 -106.05 18.7 -105.35 L31.8 -104.95 35.95 -104.55 37.0 -104.2 Q43.1 -107.55 48.55 -112.0 45.3 -115.3 49.5 -117.4 L50.1 -117.6 Q55.3 -116.1 53.9 -110.75 53.1 -107.85 50.6 -106.1 L40.25 -99.4 Q38.45 -98.3 36.4 -97.85 L32.1 -97.25 32.45 -96.4 Q33.75 -91.25 29.05 -87.65 26.2 -85.45 23.15 -83.55 18.35 -80.55 12.8 -78.8 L12.0 -78.55 10.85 -73.65 Q9.35 -67.6 8.55 -61.35 L7.7 -55.4 7.4 -53.5 Q8.9 -52.05 9.7 -49.8 13.95 -37.95 20.75 -27.45 21.2 -26.75 20.95 -25.85 18.9 -18.25 17.95 -10.3 17.9 -9.6 17.35 -9.05 16.85 -7.0 16.7 -4.9 L16.3 -3.35 Q20.7 -3.8 24.65 -1.65 25.8 -1.05 25.5 0.15 24.65 3.6 20.8 2.75 16.55 1.85 12.0 1.75 10.55 1.75 10.4 0.3 10.0 -3.75 11.15 -7.65 11.8 -10.1 12.85 -12.3 L14.25 -21.45 Q14.4 -22.4 15.05 -23.05 L15.1 -24.3 15.45 -25.55 13.15 -29.45 12.95 -30.0 Q8.65 -37.35 5.45 -45.2 3.7 -39.05 0.95 -33.25 -2.8 -22.55 -10.85 -14.1 -15.3 -9.45 -19.05 -4.2 L-8.25 -3.4 Q-6.45 -3.2 -6.45 -1.35 -6.45 1.1 -8.85 1.15 -16.55 1.35 -24.2 0.9 -25.85 0.8 -26.2 -0.85 -26.7 -3.25 -24.95 -4.95 -24.8 -6.1 -23.85 -6.9 L-23.3 -7.45 Q-17.6 -16.0 -10.35 -23.25 -3.25 -34.35 0.35 -46.85 2.05 -52.9 2.8 -59.25 3.85 -68.4 5.75 -77.4 L4.2 -77.3 Q1.85 -77.2 1.9 -79.45 2.1 -84.8 4.5 -89.6 4.5 -91.05 5.15 -92.45 L5.8 -93.4 Q6.45 -98.7 9.8 -102.4 L10.15 -106.7 Q8.9 -107.45 7.85 -108.5 4.45 -111.9 4.45 -116.75 4.45 -121.6 7.85 -125.05 11.3 -128.45 16.15 -128.45 M27.1 -97.35 L25.05 -97.65 14.65 -98.2 14.65 -98.05 Q14.25 -91.45 13.2 -84.95 19.85 -87.25 25.45 -92.35 24.95 -95.95 27.1 -97.35" fill="#0c0c0c" fill-rule="evenodd" stroke="none"/>
  </g>
</svg>
