<?xml version="1.0" encoding="UTF-8" standalone="no"?>
<svg xmlns:ffdec="https://www.free-decompiler.com/flash" xmlns:xlink="http://www.w3.org/1999/xlink" ffdec:objectType="shape" height="163.6px" width="111.75px" xmlns="http://www.w3.org/2000/svg">
  <g transform="matrix(1.0, 0.0, 0.0, 1.0, 42.2, 144.0)">
    <path d="M40.45 -137.5 L40.85 -137.05 41.15 -136.75 41.7 -136.4 44.95 -134.75 45.35 -134.5 45.65 -134.4 52.2 -129.95 Q52.9 -129.45 53.75 -129.65 L54.75 -129.9 58.65 -130.25 60.55 -131.15 Q62.35 -131.75 63.85 -131.2 L63.85 -130.45 63.85 -129.15 Q64.8 -124.0 66.25 -119.45 L66.65 -117.95 Q67.6 -117.2 67.85 -116.2 L67.75 -115.55 68.8 -114.2 69.55 -113.0 Q65.55 -110.6 62.2 -107.4 L62.05 -106.95 62.0 -106.7 61.9 -105.9 61.9 -105.55 62.35 -103.45 65.0 -93.15 64.95 -93.0 Q58.85 -92.65 52.85 -92.85 L44.1 -92.4 43.35 -92.05 43.1 -91.55 42.9 -90.15 42.8 -89.05 42.8 -86.3 42.75 -81.6 42.2 -80.5 40.0 -80.05 39.7 -79.95 39.4 -79.85 39.2 -79.75 38.55 -79.5 37.3 -78.95 36.65 -78.8 35.95 -78.55 34.3 -78.3 33.45 -78.15 33.25 -77.85 31.8 -74.0 31.45 -72.9 31.75 -71.7 31.7 -71.45 30.75 -66.5 30.45 -66.4 Q28.3 -65.55 26.45 -64.2 25.45 -63.45 25.95 -61.7 L26.0 -61.6 26.2 -61.2 26.3 -60.95 26.4 -60.55 26.4 -60.2 26.5 -60.1 26.7 -59.8 27.1 -59.45 27.2 -59.25 28.8 -57.8 Q30.75 -55.65 32.85 -52.4 L32.1 -50.7 32.0 -49.75 Q30.25 -47.15 29.9 -43.7 32.25 -41.45 35.15 -39.35 L35.75 -38.85 36.0 -38.65 26.8 -38.4 23.85 -38.2 -13.4 -37.4 -17.5 -37.25 -17.4 -38.2 Q-17.4 -42.25 -19.8 -46.05 L-20.95 -48.35 Q-21.85 -51.15 -21.9 -53.7 -20.8 -55.15 -18.9 -55.6 L-17.9 -55.85 Q-12.5 -57.05 -8.5 -60.3 -7.8 -61.05 -7.55 -61.7 L-7.1 -62.2 Q-7.05 -62.85 -7.5 -63.25 -10.5 -66.25 -14.55 -68.25 L-14.85 -68.55 -7.4 -74.7 -7.25 -74.9 -7.2 -75.05 Q-6.3 -76.4 -6.2 -78.15 L-6.3 -78.6 Q-6.6 -79.3 -7.35 -79.55 L-7.65 -79.65 Q-9.75 -81.7 -12.5 -82.4 L-15.0 -83.95 -15.1 -84.05 -9.0 -90.0 Q-5.8 -92.85 -3.9 -96.4 L-3.7 -96.6 -3.75 -96.9 -3.95 -97.9 Q-5.85 -99.65 -8.25 -100.5 -10.9 -101.45 -12.6 -102.8 L-12.85 -103.2 -12.9 -103.35 -7.05 -109.5 -6.0 -110.6 -5.35 -111.55 -4.25 -113.15 -4.1 -113.45 -3.95 -113.75 -3.95 -114.15 -3.95 -114.45 -4.0 -115.2 -4.0 -115.3 Q-7.55 -117.75 -11.7 -119.15 L-15.0 -121.8 -15.35 -122.6 -12.9 -124.25 -12.05 -125.15 -10.95 -126.5 -10.65 -126.85 -10.5 -127.0 -10.25 -127.25 -10.0 -127.45 -9.85 -127.7 -9.85 -127.75 -9.35 -128.05 Q-8.8 -128.3 -8.05 -128.7 L-6.85 -129.6 -5.45 -130.95 Q-4.9 -131.45 -4.95 -132.25 L-5.1 -134.7 -4.7 -135.6 -1.35 -142.35 1.9 -141.25 2.0 -141.15 2.8 -140.05 3.55 -139.35 4.65 -138.85 4.95 -138.75 6.05 -138.6 6.55 -138.55 7.0 -138.55 7.4 -138.35 9.0 -137.7 9.35 -137.6 9.8 -137.45 10.15 -137.3 10.35 -137.15 Q11.05 -136.65 11.45 -135.75 L12.05 -135.3 12.85 -135.15 13.4 -135.6 14.75 -137.1 17.05 -140.9 17.45 -141.1 18.55 -141.8 Q19.25 -142.1 20.15 -142.55 L23.05 -144.0 24.7 -141.85 Q27.15 -138.4 29.05 -136.75 L29.4 -136.35 31.15 -134.3 32.05 -133.65 Q32.6 -132.35 33.85 -132.1 L34.25 -132.0 34.65 -131.9 35.0 -131.85 35.35 -131.75 35.8 -131.65 36.1 -132.0 36.1 -132.25 36.75 -132.6 36.85 -132.6 37.0 -132.8 37.05 -133.0 37.15 -133.35 37.6 -133.7 38.15 -134.75 38.85 -136.5 40.45 -137.5 M38.25 -31.8 L39.95 -31.7 41.0 -29.05 41.25 -28.6 40.95 -28.3 40.4 -27.85 40.2 -27.7 39.45 -26.95 39.15 -26.65 39.1 -26.55 Q36.55 -23.65 35.05 -20.15 L34.85 -19.55 34.65 -19.1 34.75 -18.7 34.9 -17.9 34.55 -16.8 Q36.8 -14.7 37.0 -11.35 L36.35 -10.95 35.8 -10.45 Q35.2 -10.05 34.75 -9.55 L34.5 -9.25 33.85 -8.5 33.45 -8.0 32.9 -7.2 33.0 -6.9 33.15 -6.0 33.35 -5.3 44.55 4.55 44.7 5.65 44.15 6.6 40.15 7.85 Q35.1 8.85 33.8 12.0 L33.65 12.7 33.55 14.3 33.2 14.35 31.7 14.5 29.8 14.7 29.3 14.5 29.25 14.45 Q25.45 13.0 21.5 13.95 19.85 14.3 18.7 15.3 L16.25 16.4 13.35 17.65 11.5 18.45 11.4 18.7 11.15 19.3 10.15 19.6 8.25 18.5 8.05 18.35 7.9 18.3 7.55 18.1 7.3 17.95 6.25 17.4 5.25 17.0 4.9 16.85 4.5 16.7 3.9 16.4 3.4 16.2 1.85 15.05 Q1.45 14.7 1.05 14.75 L-7.75 15.25 Q-10.5 15.35 -13.2 16.85 L-13.9 17.25 -14.7 16.6 -15.25 15.75 -16.8 14.75 -16.9 14.55 -17.15 14.1 Q-19.3 11.6 -23.25 12.65 L-24.8 12.5 -24.95 12.55 -28.4 12.5 -29.35 12.35 -32.3 12.2 -32.9 12.2 -35.45 12.65 Q-36.0 9.55 -35.75 7.4 L-35.65 6.45 -34.0 2.7 -33.55 1.85 -33.45 1.5 Q-33.1 0.4 -33.1 -0.75 L-33.8 -1.95 -35.55 -4.15 -42.1 -8.6 -42.2 -8.6 -41.85 -9.1 -41.65 -9.4 -41.5 -9.65 -41.25 -9.95 -39.8 -11.25 Q-38.3 -12.35 -36.4 -13.1 -32.55 -14.65 -29.25 -16.95 L-28.05 -18.25 -28.05 -18.65 Q-28.1 -19.95 -28.45 -21.2 L-31.05 -25.3 -30.9 -30.8 -29.9 -31.8 -28.35 -32.25 -27.7 -31.95 Q-23.3 -30.15 -18.4 -31.05 L-14.7 -31.4 Q4.1 -31.65 22.8 -32.45 L36.5 -31.9 38.25 -31.8" fill="#ffff00" fill-opacity="0.5019608" fill-rule="evenodd" stroke="none"/>
  </g>
</svg>
