<?xml version="1.0" encoding="UTF-8" standalone="no"?>
<svg xmlns:ffdec="https://www.free-decompiler.com/flash" xmlns:xlink="http://www.w3.org/1999/xlink" ffdec:objectType="shape" height="130.15px" width="74.95px" xmlns="http://www.w3.org/2000/svg">
  <g transform="matrix(1.0, 0.0, 0.0, 1.0, 23.1, 127.9)">
    <path d="M8.95 -107.55 L8.7 -106.9 8.55 -106.9 7.3 -107.95 Q3.9 -111.35 3.9 -116.2 3.9 -121.05 7.3 -124.5 10.75 -127.9 15.6 -127.9 20.45 -127.9 23.85 -124.5 27.25 -121.05 27.25 -116.2 27.25 -111.35 23.85 -107.95 22.2 -106.3 20.2 -105.4 L17.3 -105.95 16.9 -106.0 Q18.2 -110.2 14.3 -112.15 L13.7 -112.05 13.35 -111.95 11.35 -112.6 9.95 -112.05 Q9.25 -111.6 9.15 -110.85 L9.15 -110.8 8.95 -110.3 Q8.6 -108.7 8.95 -107.55" fill="#0c0c0c" fill-rule="evenodd" stroke="none"/>
    <path d="M20.2 -105.4 Q27.7 -104.2 35.15 -103.85 L37.05 -103.95 Q40.5 -108.3 44.3 -112.45 42.7 -116.9 46.9 -120.1 L48.0 -120.6 Q53.25 -120.05 51.35 -114.7 49.1 -108.25 44.3 -103.25 41.8 -100.65 38.75 -98.9 38.0 -98.45 37.05 -98.45 26.8 -98.35 16.6 -100.0 L15.0 -100.35 Q13.15 -93.75 12.15 -86.95 14.1 -87.55 16.1 -88.4 18.55 -89.45 21.25 -89.45 23.65 -89.45 25.25 -91.0 22.05 -94.7 26.2 -96.75 L29.0 -97.1 Q32.4 -96.5 32.15 -93.0 31.85 -88.35 27.8 -85.9 23.05 -83.1 17.35 -82.95 L16.6 -82.75 Q14.0 -81.6 11.35 -80.9 L11.2 -79.35 10.6 -73.9 Q10.05 -69.3 8.5 -65.1 7.1 -59.35 6.1 -53.45 L6.1 -53.3 Q7.55 -52.65 7.65 -50.75 L7.7 -50.45 Q12.55 -44.25 16.3 -37.45 L16.5 -36.85 Q17.65 -34.1 19.1 -31.45 L19.45 -30.25 Q20.65 -28.75 20.6 -27.7 21.5 -25.8 20.2 -22.95 19.25 -20.8 19.25 -18.35 19.2 -11.85 18.1 -5.65 L17.8 -3.45 18.5 -3.6 19.8 -3.9 Q25.4 -4.4 23.7 0.1 23.25 1.3 22.0 1.65 17.9 2.85 14.3 1.65 L13.65 1.7 Q12.5 1.75 12.2 0.7 11.65 0.25 11.85 -0.6 L11.95 -0.85 Q11.65 -3.3 12.2 -5.8 L12.75 -8.2 Q14.0 -13.75 13.8 -19.6 13.65 -23.6 15.35 -26.8 13.5 -29.7 12.05 -32.95 9.85 -37.9 6.65 -42.2 5.15 -44.2 4.0 -46.3 2.35 -41.25 0.1 -36.45 -0.9 -33.35 -1.55 -30.15 -1.65 -29.6 -2.0 -29.2 -1.0 -24.9 -4.3 -23.65 -11.55 -16.7 -15.9 -7.4 -16.05 -5.8 -16.65 -4.65 L-5.95 -3.4 Q-5.4 -3.3 -5.2 -2.7 -3.6 1.3 -8.2 1.25 L-21.2 0.05 Q-23.5 -0.35 -23.0 -2.6 L-22.45 -3.85 Q-22.95 -5.8 -22.05 -7.75 -18.2 -16.0 -12.45 -23.0 -10.3 -25.65 -7.75 -27.5 L-7.65 -28.2 -7.0 -31.25 Q-6.4 -34.2 -5.15 -37.0 -5.15 -39.7 -3.65 -42.0 L-3.15 -42.65 Q-1.3 -48.05 -0.45 -53.75 -0.3 -54.95 0.45 -55.9 L0.95 -56.4 Q1.5 -60.3 2.5 -64.1 4.65 -72.0 5.95 -80.05 L0.85 -80.2 Q0.05 -80.3 -0.3 -81.1 -1.05 -83.05 0.3 -84.55 2.9 -92.0 6.5 -99.2 L8.75 -103.05 Q9.35 -104.1 10.35 -104.15 L10.75 -105.4 Q9.3 -106.2 8.95 -107.55 8.6 -108.7 8.95 -110.3 L9.15 -110.8 9.15 -110.85 Q9.25 -111.6 9.95 -112.05 L11.35 -112.6 13.35 -111.95 13.7 -112.05 14.3 -112.15 Q18.2 -110.2 16.9 -106.0 L17.3 -105.95 20.2 -105.4 M6.75 -85.85 L6.8 -86.55 6.4 -85.85 6.75 -85.85" fill="#000000" fill-rule="evenodd" stroke="none"/>
  </g>
</svg>
