<?xml version="1.0" encoding="UTF-8" standalone="no"?>
<svg xmlns:ffdec="https://www.free-decompiler.com/flash" xmlns:xlink="http://www.w3.org/1999/xlink" ffdec:objectType="shape" height="161.95px" width="108.35px" xmlns="http://www.w3.org/2000/svg">
  <g transform="matrix(1.0, 0.0, 0.0, 1.0, 41.45, 144.05)">
    <path d="M32.85 -137.5 L33.2 -137.45 33.6 -137.35 33.95 -137.25 34.25 -137.05 34.55 -136.75 34.7 -136.7 34.7 -136.8 35.25 -136.75 35.35 -136.75 35.55 -136.75 35.7 -136.8 35.85 -136.8 36.2 -136.75 36.7 -136.7 37.3 -136.65 38.45 -136.15 38.75 -135.65 39.1 -135.35 39.75 -135.0 43.2 -134.6 43.6 -134.55 43.85 -134.55 Q47.75 -133.25 51.35 -132.25 L53.0 -132.2 53.95 -132.5 Q55.4 -131.3 56.55 -130.6 L57.8 -130.0 Q59.0 -129.55 60.05 -128.35 L60.05 -127.55 60.05 -126.25 Q61.85 -121.35 64.75 -117.65 L65.6 -116.4 Q66.65 -115.65 66.9 -114.7 L66.6 -114.1 66.35 -112.75 66.1 -111.65 Q62.0 -109.35 58.55 -106.1 L58.3 -105.65 58.3 -105.4 58.2 -104.6 58.25 -104.2 Q58.35 -103.05 58.7 -102.0 L62.25 -91.85 62.2 -91.75 Q56.0 -91.2 49.9 -91.75 L41.05 -91.25 40.25 -90.9 39.9 -90.45 39.75 -89.0 39.75 -87.9 40.25 -85.35 41.05 -80.75 40.95 -79.65 40.35 -78.3 40.15 -78.15 39.95 -77.95 39.85 -77.75 39.7 -77.2 Q39.6 -76.75 39.0 -76.2 L38.35 -76.0 37.6 -75.7 35.95 -75.4 35.2 -75.2 34.85 -74.95 32.15 -72.2 31.4 -71.45 31.0 -70.55 30.9 -70.3 Q29.65 -68.5 28.6 -66.05 L28.35 -65.9 Q27.8 -64.4 27.6 -62.65 27.4 -61.8 28.25 -60.2 L28.3 -60.15 28.45 -59.75 28.55 -59.45 28.7 -59.05 28.8 -58.75 28.85 -58.65 29.0 -58.35 29.2 -58.0 29.2 -57.75 Q29.1 -57.05 29.15 -56.1 29.1 -53.65 30.15 -50.0 L29.6 -48.15 29.9 -47.35 Q30.05 -44.8 31.25 -41.85 33.95 -39.9 37.1 -38.1 L37.7 -37.65 38.1 -37.4 39.25 -36.05 39.25 -35.65 Q38.7 -32.35 38.7 -27.8 L38.85 -27.3 38.65 -26.9 38.3 -26.35 38.2 -26.2 37.9 -25.25 37.85 -24.9 37.85 -24.8 37.85 -24.3 33.05 -24.9 4.4 -27.75 -23.75 -31.65 Q-20.8 -32.85 -18.6 -34.2 -18.25 -34.4 -18.1 -34.85 L-17.6 -36.65 Q-17.45 -37.3 -17.55 -37.85 -18.3 -41.8 -21.0 -45.4 L-22.5 -47.5 Q-23.35 -50.5 -22.8 -52.85 -21.7 -54.2 -19.7 -54.7 L-18.7 -54.95 Q-13.15 -56.25 -9.35 -59.8 -8.85 -60.75 -9.05 -61.45 L-8.9 -61.9 Q-9.05 -62.45 -9.5 -62.8 -12.75 -65.7 -16.8 -67.7 L-16.8 -68.05 -9.0 -74.05 -8.8 -74.25 -8.7 -74.35 Q-7.5 -75.5 -7.2 -77.15 L-7.15 -77.7 Q-7.2 -78.45 -7.9 -78.85 L-8.2 -79.0 Q-10.3 -81.2 -13.0 -82.15 L-15.55 -83.6 -15.55 -83.7 Q-12.35 -86.55 -8.85 -89.0 -5.0 -91.55 -3.8 -95.6 L-3.7 -95.75 -3.8 -96.0 -4.25 -96.85 Q-6.25 -98.5 -8.55 -99.55 -11.05 -100.75 -12.85 -102.2 L-12.95 -102.55 -12.95 -102.7 -6.85 -108.9 -5.65 -109.85 -5.0 -110.85 -3.9 -112.55 -3.8 -112.9 -3.7 -113.2 -3.7 -113.55 -3.7 -113.9 -3.75 -114.65 -3.75 -114.7 Q-7.3 -117.35 -11.65 -118.45 L-11.85 -121.55 -11.8 -122.25 -9.15 -123.7 -8.4 -124.8 Q-8.05 -125.7 -8.0 -126.45 L-8.05 -126.8 -8.05 -127.05 -7.9 -127.35 -7.75 -127.55 -7.65 -127.85 -7.7 -128.0 -7.6 -128.45 -6.9 -129.55 -6.5 -130.75 -5.9 -132.45 Q-5.65 -133.0 -5.8 -133.8 L-6.45 -136.1 -5.75 -136.8 -0.05 -140.25 3.2 -138.95 3.25 -138.9 3.75 -137.7 Q3.95 -137.2 4.3 -136.85 L5.45 -136.35 5.85 -136.25 6.9 -136.4 7.25 -136.6 7.4 -136.85 7.85 -136.7 Q8.7 -136.3 9.5 -136.25 L9.85 -136.25 10.25 -136.25 10.5 -136.3 10.6 -136.3 10.35 -136.05 10.75 -136.35 11.35 -136.6 11.7 -137.2 12.6 -139.0 13.95 -143.2 14.35 -143.35 15.6 -143.65 17.25 -143.7 20.3 -144.05 22.1 -142.0 Q25.0 -138.3 27.25 -138.5 L27.7 -138.4 29.8 -137.95 30.7 -137.8 Q31.55 -137.35 32.85 -137.5 M39.05 -17.15 L39.25 -16.45 38.6 -15.55 Q38.65 -13.55 37.45 -10.7 L36.75 -10.25 36.15 -9.75 35.15 -8.75 35.0 -8.45 34.55 -7.55 34.3 -7.0 34.3 -6.15 34.45 -5.85 34.75 -5.1 35.15 -4.45 Q41.3 0.15 46.75 5.2 L47.15 6.15 47.2 7.25 43.05 8.0 Q38.15 8.75 35.85 11.15 L35.55 11.8 35.15 13.25 34.8 13.4 33.8 14.25 32.85 15.35 32.75 15.5 32.7 15.45 Q28.9 14.0 24.95 14.2 L22.0 14.8 19.35 15.2 16.3 15.65 14.3 16.05 14.1 16.2 13.7 16.6 12.7 16.95 10.75 16.85 10.6 16.9 10.5 16.95 10.15 16.95 9.9 17.0 9.15 17.25 8.4 17.55 8.05 17.6 7.75 17.65 7.25 17.8 6.8 17.9 5.25 16.8 4.5 16.45 -4.0 14.7 Q-6.7 13.9 -9.5 15.65 L-10.1 16.0 -11.0 15.85 -11.75 15.6 -13.5 15.45 -13.65 15.45 -14.05 15.3 Q-16.55 14.4 -20.3 15.85 L-21.6 15.15 -21.7 15.05 Q-22.85 14.25 -24.65 13.65 L-25.35 13.1 -27.7 11.85 -28.35 11.75 -31.0 12.0 Q-32.85 10.05 -34.0 9.4 L-34.45 8.75 -33.35 4.75 -33.05 3.85 -32.95 3.45 -32.7 1.25 -33.2 -0.05 -34.35 -2.65 Q-37.6 -5.0 -41.3 -6.55 L-41.45 -6.55 -41.15 -7.0 -40.9 -7.35 -40.8 -7.6 -40.65 -7.95 -39.2 -9.25 -35.95 -11.45 Q-32.4 -13.45 -29.2 -16.1 -28.65 -16.85 -28.45 -17.6 L-28.45 -17.65 -28.5 -18.05 Q-28.7 -19.35 -29.25 -20.55 -30.65 -22.55 -32.45 -24.2 L-31.5 -26.5 -16.85 -24.3 Q-2.25 -21.8 12.65 -20.55 L38.9 -17.5 39.05 -17.15" fill="#ffff00" fill-opacity="0.5019608" fill-rule="evenodd" stroke="none"/>
  </g>
</svg>
