<?xml version="1.0" encoding="UTF-8" standalone="no"?>
<svg xmlns:ffdec="https://www.free-decompiler.com/flash" xmlns:xlink="http://www.w3.org/1999/xlink" ffdec:objectType="shape" height="130.95px" width="69.6px" xmlns="http://www.w3.org/2000/svg">
  <g transform="matrix(1.0, 0.0, 0.0, 1.0, 24.9, 128.45)">
    <path d="M10.85 -106.0 L7.45 -107.45 6.2 -108.5 Q2.8 -111.9 2.8 -116.75 2.8 -121.6 6.2 -125.05 9.65 -128.45 14.5 -128.45 19.35 -128.45 22.75 -125.05 26.15 -121.6 26.15 -116.75 26.15 -111.9 22.75 -108.5 20.25 -106.0 16.95 -105.3 L16.35 -105.3 Q16.5 -108.1 13.5 -109.2 L12.3 -108.75 Q11.5 -108.3 11.25 -107.5 L10.85 -106.0" fill="#0c0c0c" fill-rule="evenodd" stroke="none"/>
    <path d="M16.95 -105.3 Q22.3 -105.55 27.4 -103.9 32.35 -102.35 37.6 -103.1 L37.85 -103.4 38.45 -104.05 38.65 -104.35 Q39.25 -106.8 39.15 -109.4 L39.1 -112.55 Q35.25 -113.05 34.8 -116.7 34.5 -119.2 36.65 -120.75 37.5 -121.4 38.35 -121.4 45.1 -120.65 44.65 -113.8 L44.25 -105.3 Q44.15 -99.8 38.95 -98.7 L28.9 -98.1 Q26.55 -98.3 24.25 -99.0 19.85 -100.35 15.15 -100.15 L14.9 -98.8 14.45 -97.8 12.25 -86.35 Q17.6 -87.8 22.55 -91.1 20.75 -96.25 25.8 -97.45 31.15 -98.7 30.6 -93.75 30.1 -89.4 26.25 -86.9 18.95 -82.1 10.6 -79.9 L6.8 -57.05 5.7 -51.55 Q8.55 -49.3 10.7 -46.1 13.05 -42.65 14.65 -38.85 16.85 -33.65 19.2 -28.4 L19.55 -27.5 Q20.5 -26.0 19.5 -23.45 17.2 -17.45 17.3 -10.85 L16.95 -4.0 Q21.15 -4.1 24.5 -1.95 25.2 -1.5 25.1 -0.65 24.8 3.0 20.8 2.4 L12.75 0.7 Q11.55 0.4 11.6 -0.85 L11.95 -10.65 Q12.25 -17.25 13.65 -23.55 L14.25 -25.8 14.15 -26.1 13.4 -28.3 Q12.45 -30.15 11.65 -32.1 L11.3 -33.4 Q8.35 -40.1 3.4 -45.5 L3.15 -45.8 3.0 -45.4 0.55 -37.15 Q-0.6 -31.0 -3.55 -25.65 L-3.95 -25.15 -10.25 -14.65 Q-13.35 -9.45 -17.0 -4.75 L-7.0 -3.0 Q-4.7 -2.55 -5.4 -0.45 -6.45 2.95 -10.6 2.1 L-16.2 0.85 Q-19.8 -0.1 -23.5 -0.6 -24.55 -0.75 -24.75 -1.8 -25.35 -4.55 -23.1 -5.35 L-22.25 -6.95 -19.9 -10.0 Q-14.05 -19.0 -8.45 -28.2 L-7.75 -29.0 -7.55 -29.9 -3.9 -41.15 Q-3.0 -46.6 -0.4 -51.4 L-0.45 -52.55 Q-0.2 -54.05 0.7 -54.8 1.9 -64.9 4.0 -74.85 L4.8 -78.65 1.75 -78.9 Q-1.8 -79.75 -0.65 -83.6 L0.75 -87.3 Q1.5 -89.1 2.75 -90.65 L5.4 -96.95 5.8 -97.6 Q6.45 -102.4 10.0 -105.15 L10.55 -105.4 10.7 -105.35 10.85 -106.0 11.25 -107.5 Q11.5 -108.3 12.3 -108.75 L13.5 -109.2 Q16.5 -108.1 16.35 -105.3 L16.95 -105.3" fill="#000000" fill-rule="evenodd" stroke="none"/>
  </g>
</svg>
