<?xml version="1.0" encoding="UTF-8" standalone="no"?>
<svg xmlns:ffdec="https://www.free-decompiler.com/flash" xmlns:xlink="http://www.w3.org/1999/xlink" ffdec:objectType="shape" height="165.2px" width="106.7px" xmlns="http://www.w3.org/2000/svg">
  <g transform="matrix(1.0, 0.0, 0.0, 1.0, 40.75, 145.6)">
    <path d="M33.1 -142.4 L33.25 -141.8 33.35 -141.45 33.35 -141.3 33.75 -140.95 33.85 -140.85 34.15 -140.75 34.35 -140.55 34.5 -140.2 34.85 -139.75 35.25 -138.7 35.7 -136.85 36.5 -134.75 36.7 -134.2 37.05 -133.9 37.75 -133.6 Q39.4 -134.35 41.45 -134.45 L41.8 -134.55 42.1 -134.75 50.5 -134.5 52.2 -134.8 53.15 -135.05 54.45 -131.0 55.1 -128.8 56.2 -125.5 56.2 -124.7 56.2 -123.4 Q58.95 -118.7 63.3 -115.8 L64.55 -114.8 Q65.65 -114.1 65.95 -113.25 L65.5 -112.7 63.85 -111.3 62.7 -110.3 Q58.4 -108.1 54.9 -104.75 L54.6 -104.35 54.55 -104.05 54.55 -103.25 54.55 -102.8 Q54.6 -101.65 55.05 -100.6 L59.55 -90.6 59.45 -90.55 Q53.1 -89.7 46.9 -90.65 42.15 -91.35 37.95 -90.05 L37.2 -89.7 36.7 -89.4 36.6 -87.9 36.65 -86.8 37.65 -84.45 Q38.45 -82.1 39.4 -79.95 L39.75 -78.85 40.65 -76.6 40.55 -76.35 40.45 -76.05 40.45 -75.8 40.9 -74.95 Q41.15 -74.25 40.65 -73.5 L40.0 -73.25 39.3 -72.8 37.55 -72.45 36.9 -72.3 Q36.65 -72.15 36.4 -72.1 34.45 -71.05 32.45 -70.4 L31.3 -69.95 30.25 -69.35 30.05 -69.2 Q27.95 -67.9 26.45 -65.6 L26.2 -65.35 Q27.3 -63.3 28.75 -61.15 29.4 -60.1 30.6 -58.75 L30.7 -58.35 30.75 -58.0 31.05 -57.6 31.15 -57.35 31.15 -57.25 31.25 -56.9 31.35 -56.55 31.25 -56.2 Q30.2 -55.5 29.45 -54.4 27.45 -51.6 27.5 -47.6 L27.05 -45.65 27.75 -44.9 Q29.8 -42.45 32.6 -40.05 35.65 -38.35 39.0 -36.9 39.3 -36.6 39.65 -36.45 L40.1 -36.15 Q40.95 -35.55 41.2 -34.8 L40.95 -34.4 Q38.05 -31.3 36.35 -26.55 L36.4 -26.0 36.3 -25.55 36.15 -24.9 36.15 -24.75 36.35 -23.6 36.5 -23.2 36.55 -23.1 Q39.15 -19.95 42.35 -17.2 L42.5 -16.95 37.1 -17.45 8.25 -19.9 -14.0 -21.55 -33.15 -22.7 -33.8 -23.15 -29.75 -27.15 -28.5 -27.9 -26.05 -28.8 Q-20.95 -30.5 -18.5 -33.7 -18.25 -34.0 -18.1 -34.4 -17.8 -35.3 -17.65 -36.25 -17.55 -36.95 -17.75 -37.5 -19.25 -41.4 -22.25 -44.7 L-24.0 -46.7 Q-24.9 -49.9 -23.65 -52.0 -22.55 -53.25 -20.55 -53.85 L-19.55 -54.1 Q-13.85 -55.4 -10.25 -59.3 -9.95 -60.5 -10.6 -61.25 L-10.75 -61.6 -11.45 -62.4 Q-15.0 -65.1 -19.05 -67.15 L-18.75 -67.5 Q-14.8 -70.65 -10.6 -73.35 L-10.35 -73.55 -10.2 -73.7 Q-8.75 -74.55 -8.2 -76.15 L-8.0 -76.8 Q-7.85 -77.65 -8.5 -78.2 L-8.8 -78.4 Q-10.9 -80.65 -13.55 -81.85 -14.8 -82.65 -16.15 -83.2 L-16.05 -83.3 Q-12.55 -86.0 -8.75 -88.05 -4.25 -90.3 -3.75 -94.8 L-3.7 -94.85 -3.85 -95.05 -4.5 -95.8 -8.8 -98.65 -13.15 -101.55 -13.1 -101.95 -12.95 -102.1 Q-10.0 -105.4 -6.65 -108.25 L-5.3 -109.15 -4.65 -110.2 -3.55 -111.95 -3.5 -112.3 -3.45 -112.6 -3.5 -113.0 -3.5 -113.4 -3.55 -114.15 Q-7.1 -116.95 -11.65 -117.75 -10.35 -119.85 -8.75 -121.3 L-8.2 -121.85 -5.35 -123.2 Q-4.85 -123.75 -4.8 -124.5 -4.7 -125.5 -5.05 -126.4 L-5.4 -126.8 -5.55 -127.05 -5.55 -127.4 -5.45 -127.7 -5.4 -128.05 -5.55 -128.3 -5.85 -128.9 Q-6.15 -129.5 -5.8 -130.35 L-6.1 -131.95 -6.4 -134.0 -6.7 -135.3 -7.8 -137.55 -6.8 -137.95 Q-2.65 -138.45 1.2 -138.1 L4.45 -136.7 4.75 -135.3 Q4.8 -134.8 5.1 -134.35 L6.2 -133.85 6.75 -133.8 Q7.3 -133.75 7.7 -134.15 L7.9 -134.6 7.8 -135.15 8.25 -135.0 9.95 -134.75 10.3 -134.95 10.65 -135.1 10.8 -135.3 10.85 -135.45 Q10.2 -136.1 9.3 -136.35 L9.5 -137.35 9.8 -138.05 9.95 -138.8 10.4 -140.9 10.8 -145.55 11.3 -145.55 12.65 -145.55 Q13.3 -145.0 14.3 -144.85 L17.55 -144.05 19.5 -142.15 Q22.85 -138.25 25.5 -140.25 25.8 -140.3 26.0 -140.45 L28.4 -141.65 29.4 -142.0 31.9 -142.9 32.2 -142.95 32.55 -142.85 32.85 -142.65 33.1 -142.4 M37.85 -10.0 L37.1 -9.6 36.55 -9.1 Q35.85 -8.65 35.6 -8.0 L35.5 -7.65 35.3 -6.65 35.15 -5.95 35.65 -5.05 35.95 -4.8 36.4 -4.25 37.0 -3.65 Q43.25 0.8 48.9 5.8 L49.55 6.7 50.3 7.85 45.9 8.2 Q41.25 8.6 37.9 10.25 L37.5 10.85 36.7 12.2 36.35 12.5 35.9 14.0 Q35.6 15.1 35.95 16.05 L36.15 16.5 36.1 16.5 Q32.3 15.05 28.4 14.5 L25.3 14.25 22.5 13.95 19.25 13.6 Q18.1 13.45 17.05 13.6 L16.85 13.7 16.3 13.95 15.25 14.25 Q14.1 14.4 13.2 15.15 L13.1 15.4 13.05 15.6 12.8 15.8 12.55 16.0 Q12.5 16.55 12.05 17.05 11.6 17.55 11.5 18.15 L11.25 18.35 10.95 18.55 10.65 19.15 10.25 19.6 8.65 18.6 Q8.3 18.35 7.9 18.2 3.6 16.4 -0.2 14.1 -2.95 12.4 -5.85 14.45 L-6.35 14.8 -7.25 15.1 -8.3 15.5 -10.2 16.2 -10.45 16.3 -11.0 16.5 Q-13.85 17.25 -17.4 19.1 L-18.45 17.75 -18.5 17.6 Q-19.15 16.05 -20.85 14.85 -20.95 14.25 -21.4 13.85 -22.6 12.8 -23.15 11.5 L-23.8 11.25 -26.55 11.4 Q-29.65 10.55 -32.25 11.4 L-33.2 11.0 -32.65 6.75 -32.5 5.8 -32.5 5.45 -32.35 3.2 -32.6 1.8 -33.2 -1.2 Q-36.5 -3.45 -40.55 -4.55 L-40.75 -4.55 -40.4 -4.95 -40.15 -5.3 -40.1 -5.6 -40.0 -6.0 -38.55 -7.3 -35.5 -9.8 Q-32.2 -12.3 -29.2 -15.25 L-28.95 -16.0 -6.7 -14.85 21.1 -13.0 39.15 -11.2 37.85 -10.0" fill="#ffff00" fill-opacity="0.5019608" fill-rule="evenodd" stroke="none"/>
  </g>
</svg>
