<?xml version="1.0" encoding="UTF-8" standalone="no"?>
<svg xmlns:ffdec="https://www.free-decompiler.com/flash" xmlns:xlink="http://www.w3.org/1999/xlink" ffdec:objectType="shape" height="170.7px" width="105.05px" xmlns="http://www.w3.org/2000/svg">
  <g transform="matrix(1.0, 0.0, 0.0, 1.0, 40.05, 148.4)">
    <path d="M36.0 -5.5 L36.0 -4.95 38.0 -3.35 Q46.2 2.0 53.35 8.45 46.5 8.05 39.95 9.4 L39.4 9.95 Q38.55 10.65 37.95 11.55 L38.0 13.75 Q38.15 15.85 39.55 17.5 32.7 14.9 25.6 12.7 L22.2 11.6 Q17.9 10.2 15.65 13.5 L15.65 13.9 15.65 14.25 15.4 14.65 15.15 15.0 Q15.3 16.0 14.95 16.85 14.55 17.75 14.65 18.7 L14.4 19.1 14.15 19.45 14.0 20.55 13.65 21.3 Q8.15 18.15 3.55 13.55 0.85 10.9 -2.15 13.25 -8.1 18.0 -14.5 22.3 -15.15 21.3 -15.25 20.1 -15.45 17.8 -17.1 16.0 -17.0 15.2 -17.4 14.6 -18.4 13.0 -18.6 11.15 -18.9 10.8 -19.25 10.75 -25.2 10.3 -30.5 13.4 L-32.0 13.25 -32.0 8.8 -32.0 0.25 Q-35.5 -2.05 -40.05 -2.5 L-39.7 -2.9 -39.4 -3.25 -39.4 -3.6 -39.4 -4.0 -37.95 -5.35 -37.5 -5.75 Q-0.75 -5.45 36.0 -5.5 M31.15 -148.4 L31.5 -148.3 31.75 -148.05 32.0 -147.7 31.95 -146.2 Q31.85 -145.6 32.25 -145.1 L32.7 -144.7 33.0 -144.35 Q33.65 -142.6 33.8 -140.65 34.05 -136.75 34.6 -132.8 L35.0 -132.5 35.75 -132.2 Q37.45 -133.7 39.7 -134.3 L40.05 -134.6 40.3 -134.95 Q46.55 -135.65 52.35 -137.65 L52.35 -131.35 52.35 -120.55 Q56.0 -116.05 61.8 -114.0 64.55 -113.0 65.0 -111.75 63.3 -110.55 61.4 -109.85 55.4 -107.55 50.85 -103.05 L50.85 -101.95 Q50.75 -100.45 51.4 -99.2 53.95 -94.1 56.8 -89.3 50.25 -88.25 43.95 -89.55 38.2 -90.7 33.5 -88.3 L33.45 -86.8 33.6 -85.7 35.1 -83.5 Q37.55 -78.8 40.95 -74.9 L40.95 -74.55 40.95 -74.15 41.05 -73.8 42.05 -72.7 Q42.7 -71.8 42.3 -70.8 L41.7 -70.5 40.95 -69.95 39.2 -69.55 Q36.0 -68.65 32.75 -68.6 27.0 -68.45 24.05 -64.85 28.1 -60.95 32.9 -57.3 L32.95 -56.9 33.0 -56.55 33.35 -56.15 33.5 -55.8 33.5 -55.45 33.45 -55.1 33.25 -54.7 Q31.3 -53.9 29.75 -52.7 24.9 -48.9 24.55 -43.15 32.1 -38.45 40.95 -35.7 L41.6 -35.25 Q43.0 -34.6 43.15 -33.5 L42.65 -33.15 Q37.4 -30.25 34.0 -25.3 L34.0 -24.2 34.0 -23.45 34.8 -21.95 35.25 -21.4 Q40.45 -18.1 46.0 -15.75 L46.65 -15.15 48.0 -13.65 42.45 -11.25 -31.75 -11.55 -29.15 -14.4 Q-28.9 -15.5 -29.3 -16.5 -30.65 -20.35 -35.2 -22.1 -30.6 -25.0 -25.4 -26.9 -18.6 -29.4 -17.7 -35.85 -17.6 -36.6 -17.9 -37.15 -20.9 -42.1 -25.55 -45.9 -27.05 -51.75 -20.35 -53.25 -14.5 -54.6 -11.15 -58.8 -11.0 -60.2 -12.15 -61.0 -16.55 -64.2 -21.3 -66.6 -16.8 -70.1 -11.9 -72.9 -9.65 -73.7 -8.85 -75.9 -8.5 -76.85 -9.1 -77.5 -12.4 -81.3 -16.75 -82.85 -12.9 -85.4 -8.6 -87.1 -3.5 -89.05 -3.7 -94.0 -8.95 -97.35 -13.4 -100.95 L-13.2 -101.3 Q-10.15 -104.85 -6.45 -107.65 L-4.95 -108.4 -4.3 -109.5 -3.2 -111.35 -3.2 -111.75 -3.25 -112.85 -3.35 -113.6 Q-6.9 -116.55 -11.65 -117.05 -7.3 -120.9 -1.6 -122.65 -1.1 -123.3 -1.2 -124.15 -1.35 -125.35 -2.1 -126.35 L-2.8 -126.8 -3.1 -127.1 -3.2 -127.5 -3.2 -127.85 -3.2 -128.25 -4.1 -129.35 Q-4.85 -130.1 -4.7 -131.2 L-5.75 -133.1 Q-7.05 -136.45 -9.15 -139.0 L-7.85 -139.15 Q-0.7 -137.75 5.7 -134.45 L5.7 -132.95 Q5.65 -132.35 5.85 -131.85 L7.0 -131.35 Q8.05 -131.05 8.55 -131.95 L8.55 -132.65 8.2 -133.45 8.65 -133.35 10.45 -133.3 10.75 -133.6 11.05 -133.95 11.15 -134.3 11.1 -134.6 8.2 -136.65 8.25 -140.4 Q8.35 -144.15 7.7 -147.85 L8.2 -147.8 9.7 -147.45 Q10.3 -146.45 11.4 -146.0 14.6 -144.75 16.9 -142.3 20.7 -138.2 23.7 -142.0 L24.3 -142.5 Q27.15 -145.9 30.9 -148.3 L31.15 -148.4" fill="#ffff00" fill-opacity="0.5019608" fill-rule="evenodd" stroke="none"/>
  </g>
</svg>
