<?xml version="1.0" encoding="UTF-8" standalone="no"?>
<svg xmlns:ffdec="https://www.free-decompiler.com/flash" xmlns:xlink="http://www.w3.org/1999/xlink" ffdec:objectType="shape" height="132.1px" width="67.2px" xmlns="http://www.w3.org/2000/svg">
  <g transform="matrix(1.0, 0.0, 0.0, 1.0, 24.35, 128.45)">
    <path d="M15.6 -128.45 Q20.45 -128.45 23.85 -125.05 27.25 -121.6 27.25 -116.75 27.25 -111.9 23.85 -108.5 21.3 -105.95 17.9 -105.3 L37.1 -103.15 37.7 -103.3 Q38.0 -104.75 37.7 -106.2 37.25 -108.25 36.4 -110.25 L36.15 -110.55 35.45 -111.8 35.05 -112.45 Q30.2 -111.25 28.9 -115.3 28.45 -116.8 28.9 -118.25 29.45 -120.05 31.15 -120.15 37.85 -119.9 40.9 -113.65 L41.95 -110.9 Q43.2 -106.7 42.75 -102.15 42.35 -98.1 37.9 -97.9 L29.0 -98.4 13.05 -100.5 Q11.1 -92.55 9.75 -84.45 14.45 -85.1 18.7 -88.85 L21.45 -91.3 Q20.5 -96.65 25.75 -97.45 27.35 -97.7 27.75 -96.15 29.4 -89.6 23.65 -85.3 18.35 -81.35 12.1 -79.4 L8.85 -78.65 8.6 -76.8 6.4 -60.9 5.15 -55.6 5.4 -54.25 Q6.45 -53.0 6.95 -51.15 7.1 -50.45 7.55 -49.85 10.15 -46.0 11.9 -41.9 19.6 -32.55 18.1 -20.7 L17.35 -15.45 Q16.4 -9.3 14.85 -3.35 20.0 -3.35 24.45 -0.65 25.15 -0.25 25.1 0.65 24.85 4.1 21.2 3.55 15.8 2.7 10.6 1.25 9.75 1.0 9.75 0.0 9.65 -7.45 11.65 -14.6 12.9 -18.95 12.45 -23.65 12.35 -25.35 12.95 -26.85 L12.05 -29.95 11.7 -31.25 8.5 -37.0 8.3 -37.6 4.75 -43.35 4.5 -43.9 3.0 -45.7 2.6 -45.25 0.2 -36.4 -0.3 -35.45 Q-0.75 -29.6 -4.05 -25.0 -10.9 -15.25 -16.95 -4.95 L-8.7 -4.3 Q-6.4 -3.8 -6.85 -1.6 -7.15 0.0 -8.65 0.1 -15.3 0.5 -21.9 0.15 -24.85 0.05 -24.25 -2.85 -23.7 -5.4 -22.3 -7.55 -16.05 -17.25 -9.25 -26.45 -8.05 -28.05 -7.5 -29.9 L-6.35 -34.25 Q-5.85 -36.6 -4.75 -38.65 -2.7 -44.85 -1.9 -51.3 -1.6 -53.45 -0.25 -54.9 L0.2 -55.3 Q0.1 -60.5 1.15 -65.5 L3.6 -78.6 0.1 -79.3 Q-1.1 -79.6 -1.15 -80.85 -1.35 -84.75 1.15 -87.95 L1.95 -89.35 3.55 -93.15 Q4.6 -100.0 8.75 -105.3 L9.3 -106.85 7.3 -108.5 Q3.9 -111.9 3.9 -116.75 3.9 -121.6 7.3 -125.05 10.75 -128.45 15.6 -128.45" fill="#0c0c0c" fill-rule="evenodd" stroke="none"/>
  </g>
</svg>
