<?xml version="1.0" encoding="UTF-8" standalone="no"?>
<svg xmlns:ffdec="https://www.free-decompiler.com/flash" xmlns:xlink="http://www.w3.org/1999/xlink" ffdec:objectType="shape" height="164.45px" width="106.2px" xmlns="http://www.w3.org/2000/svg">
  <g transform="matrix(1.0, 0.0, 0.0, 1.0, 39.15, 144.95)">
    <path d="M33.35 -142.5 L33.55 -142.25 33.7 -141.9 33.7 -141.7 33.6 -140.95 33.6 -140.5 33.6 -140.3 Q33.55 -139.85 33.8 -139.45 L34.0 -139.05 34.15 -138.65 34.2 -138.45 34.4 -137.65 34.5 -136.8 34.55 -135.95 34.5 -135.0 34.6 -133.9 34.95 -132.85 35.15 -132.4 35.3 -132.0 35.4 -131.65 35.55 -131.15 36.2 -129.6 36.55 -129.45 37.25 -129.35 Q38.9 -130.9 41.0 -131.65 L41.4 -131.95 41.65 -132.3 44.9 -133.1 45.6 -133.0 47.2 -132.85 52.1 -132.8 52.4 -132.8 53.95 -127.95 54.4 -126.7 56.55 -120.4 60.25 -117.95 61.85 -116.25 64.65 -113.9 Q66.7 -112.65 67.05 -111.2 L66.2 -110.3 64.85 -109.15 Q61.9 -106.75 59.7 -102.65 L59.25 -102.25 59.05 -101.6 58.95 -101.35 Q58.55 -100.15 58.75 -99.1 59.35 -94.9 60.55 -90.35 L59.4 -89.8 57.7 -89.1 57.45 -89.0 57.2 -88.95 56.1 -88.5 53.85 -87.9 50.15 -88.5 48.35 -88.9 47.1 -89.1 Q43.25 -89.8 39.9 -88.35 L39.55 -87.1 39.4 -86.15 39.7 -85.25 40.2 -83.9 Q41.25 -80.25 43.1 -76.9 L43.35 -76.35 43.7 -75.9 43.9 -75.5 43.95 -75.25 43.85 -75.0 43.75 -74.7 43.75 -74.45 43.85 -74.3 44.2 -73.8 Q44.5 -73.25 44.0 -72.6 L43.4 -72.45 42.65 -72.1 40.95 -71.95 34.6 -71.4 30.75 -70.8 29.65 -70.05 Q28.4 -69.1 27.55 -67.75 L27.25 -66.95 27.4 -66.85 29.7 -63.95 Q30.85 -62.05 32.25 -60.25 L32.2 -59.95 32.15 -59.7 32.3 -59.4 32.3 -59.1 32.25 -58.85 32.1 -58.6 31.8 -58.25 31.2 -58.0 Q29.6 -57.45 28.25 -56.6 26.6 -55.5 25.45 -54.05 L24.9 -53.0 24.2 -50.55 Q24.05 -49.05 24.3 -47.35 28.75 -44.25 33.55 -41.65 L33.9 -41.4 34.2 -41.2 34.8 -40.8 Q36.05 -39.65 37.45 -38.65 L37.85 -38.2 38.35 -37.65 38.55 -36.65 38.55 -36.55 38.35 -36.35 38.15 -36.15 38.05 -36.1 37.45 -35.7 34.8 -33.6 34.3 -32.95 33.45 -31.8 Q32.6 -30.3 32.05 -28.65 L31.9 -28.25 32.15 -27.25 32.3 -26.6 33.25 -25.3 33.75 -24.75 Q38.85 -21.5 44.15 -18.8 L44.55 -18.35 44.6 -18.25 45.0 -17.65 45.35 -16.8 Q40.15 -14.35 35.25 -11.5 L35.1 -11.35 34.8 -10.9 34.25 -10.15 34.15 -9.65 34.15 -9.3 34.15 -8.15 34.15 -7.55 34.15 -7.45 36.25 -5.8 Q43.8 -0.8 50.7 4.8 L45.7 4.35 24.85 3.1 24.1 3.1 -5.5 1.85 -32.65 0.4 Q-35.6 -1.7 -38.85 -2.7 L-39.15 -2.75 -38.75 -3.1 -38.45 -3.45 -38.4 -3.75 -38.3 -4.15 -37.65 -4.7 -36.8 -5.3 -36.0 -5.95 -35.7 -6.25 -33.75 -8.2 -32.5 -10.0 Q-30.95 -12.3 -29.7 -14.7 -29.6 -15.8 -30.0 -16.8 L-30.2 -17.15 -30.95 -18.4 -31.25 -19.1 -31.8 -19.95 Q-32.4 -21.15 -33.7 -21.9 L-28.15 -24.2 -27.45 -24.45 -27.1 -24.7 -26.35 -25.15 -25.95 -25.5 -25.0 -26.4 Q-23.5 -27.55 -22.5 -29.1 L-21.9 -29.9 Q-21.3 -30.95 -20.9 -32.15 L-20.75 -33.0 -20.55 -33.7 -20.25 -34.9 -19.95 -35.5 -19.95 -35.8 -19.95 -35.9 -19.9 -36.4 -19.9 -36.95 Q-20.9 -41.25 -23.2 -44.75 L-22.95 -46.4 -22.8 -47.5 Q-22.15 -50.9 -19.0 -52.5 L-17.25 -53.8 -16.7 -54.25 -16.15 -54.75 -15.7 -55.05 Q-14.2 -56.2 -12.85 -57.6 L-11.75 -58.7 Q-11.4 -59.9 -12.05 -60.7 L-13.05 -62.05 -13.25 -62.3 -13.5 -62.5 -13.95 -63.25 Q-15.2 -65.35 -18.15 -66.9 L-17.7 -67.5 -15.3 -70.95 -13.35 -73.1 Q-12.45 -73.8 -11.95 -75.1 L-11.4 -76.0 Q-10.95 -76.8 -11.25 -77.4 -12.8 -80.8 -15.1 -82.55 L-14.95 -82.65 -14.4 -83.2 -13.3 -84.15 -13.25 -84.35 -10.25 -87.4 -10.0 -87.55 -9.85 -87.65 -9.55 -88.0 -9.2 -88.4 -8.45 -88.9 -8.1 -89.25 -7.8 -89.55 Q-5.4 -91.35 -5.05 -94.35 L-6.9 -96.75 -7.75 -97.8 -11.85 -102.15 -11.75 -102.5 -10.1 -105.75 -9.85 -106.05 -9.5 -106.6 -8.9 -107.5 -7.7 -109.25 -6.75 -110.15 -6.35 -111.2 -5.7 -113.05 -5.75 -113.45 -5.9 -114.5 -6.0 -115.25 -6.7 -116.0 -6.9 -116.3 -7.2 -116.75 -7.45 -116.95 -7.6 -117.2 -8.05 -117.6 Q-9.25 -118.55 -10.7 -119.15 L-8.95 -120.55 -8.75 -120.85 -8.5 -121.1 -8.15 -121.3 -7.7 -121.65 -5.95 -123.35 -2.65 -125.8 Q-2.3 -126.45 -2.4 -127.25 -2.55 -128.4 -3.1 -129.4 L-3.65 -129.9 -3.9 -130.2 -4.0 -130.6 -4.0 -130.95 -4.05 -131.35 -4.05 -131.4 -4.5 -132.05 Q-4.85 -132.45 -4.5 -133.1 L-4.85 -134.25 -5.35 -136.5 -6.1 -137.9 -4.8 -137.95 -2.15 -137.55 -1.5 -137.6 -0.35 -137.6 1.05 -137.6 5.65 -137.25 7.15 -137.0 7.2 -136.6 7.3 -136.1 7.6 -135.55 8.6 -135.35 Q9.35 -135.3 9.85 -135.75 L10.15 -136.0 10.35 -136.45 10.2 -136.95 10.65 -136.75 11.5 -136.45 12.2 -136.4 12.45 -136.55 12.75 -136.65 12.9 -136.85 12.9 -137.0 Q12.15 -137.55 11.15 -137.8 L11.7 -139.85 12.0 -140.85 12.65 -143.55 12.8 -144.95 13.3 -144.95 14.75 -144.85 Q15.45 -144.2 16.55 -144.0 19.75 -143.4 22.2 -141.9 22.8 -141.5 23.45 -141.25 24.6 -140.0 25.6 -139.75 26.65 -139.5 27.6 -140.3 L28.05 -140.5 Q30.1 -142.0 32.9 -142.7 L33.1 -142.7 33.35 -142.5 M37.4 10.95 L37.4 11.25 Q37.55 13.3 38.65 15.05 L38.45 15.05 38.3 15.05 37.95 15.0 37.4 15.0 36.6 15.0 35.9 14.95 33.7 15.0 27.6 12.6 24.3 11.35 23.9 11.2 21.8 11.0 Q19.5 11.35 17.9 13.3 L17.85 13.6 17.8 13.65 17.75 13.85 17.5 14.05 17.2 14.25 Q17.15 14.85 16.7 15.35 16.25 15.85 16.15 16.45 L15.8 16.65 15.5 16.8 15.45 16.85 15.45 16.95 15.15 17.65 14.9 18.05 14.75 18.35 Q9.4 17.0 4.85 14.65 L4.25 14.35 Q2.95 13.85 1.65 13.9 0.45 13.75 -0.8 14.25 L-3.2 15.2 -4.25 15.75 -8.35 17.15 -9.05 17.45 -13.25 19.5 Q-14.0 18.8 -14.35 17.9 -14.6 17.3 -15.0 16.8 L-15.9 15.75 -16.85 15.0 Q-16.95 14.4 -17.4 14.0 -18.6 12.9 -19.05 11.8 L-19.65 11.6 -19.75 11.65 -23.0 11.45 Q-27.2 11.7 -30.85 13.25 L-32.35 13.1 -32.8 11.65 -32.6 9.9 -32.5 9.15 -32.15 6.3 Q-29.05 6.05 -25.85 6.35 L3.75 8.55 22.8 9.7 37.4 10.4 37.4 10.95" fill="#ffff00" fill-opacity="0.5019608" fill-rule="evenodd" stroke="none"/>
  </g>
</svg>
