<?xml version="1.0" encoding="UTF-8" standalone="no"?>
<svg xmlns:ffdec="https://www.free-decompiler.com/flash" xmlns:xlink="http://www.w3.org/1999/xlink" ffdec:objectType="shape" height="131.2px" width="69.75px" xmlns="http://www.w3.org/2000/svg">
  <g transform="matrix(1.0, 0.0, 0.0, 1.0, 25.35, 127.9)">
    <path d="M8.2 -107.15 L7.3 -107.95 Q3.9 -111.35 3.9 -116.2 3.9 -121.05 7.3 -124.5 10.75 -127.9 15.6 -127.9 20.45 -127.9 23.85 -124.5 27.25 -121.05 27.25 -116.2 27.25 -111.35 23.85 -107.95 L22.7 -106.9 Q18.5 -107.05 14.3 -106.85 14.2 -109.75 10.5 -110.9 8.2 -110.7 8.15 -108.35 L8.2 -107.15" fill="#0c0c0c" fill-rule="evenodd" stroke="none"/>
    <path d="M22.7 -106.9 L31.6 -106.3 38.1 -105.55 Q39.5 -110.35 37.9 -115.2 31.55 -116.25 33.6 -121.5 33.95 -122.45 34.95 -122.8 L36.2 -123.1 Q43.75 -121.0 44.25 -113.15 L44.35 -107.4 Q44.25 -102.65 40.85 -100.15 L39.9 -100.05 38.7 -100.75 Q31.7 -100.3 24.8 -100.85 L15.3 -101.55 14.8 -100.0 14.3 -98.55 Q12.6 -91.2 11.5 -83.7 14.8 -84.35 18.0 -86.15 21.8 -88.3 24.2 -91.95 25.05 -97.2 29.6 -94.45 30.3 -94.05 30.25 -93.2 30.2 -88.95 26.8 -85.85 19.7 -79.3 10.8 -78.2 L10.4 -74.25 Q9.7 -66.65 7.7 -59.4 L5.9 -52.6 Q7.35 -51.2 8.2 -49.1 L9.15 -47.35 Q13.8 -40.65 16.65 -32.85 18.5 -31.05 18.6 -29.2 20.6 -27.15 19.3 -23.4 18.4 -20.85 18.6 -18.15 19.15 -10.25 17.15 -2.95 21.4 -2.65 25.45 -0.95 L25.95 -0.3 Q26.5 2.05 24.15 2.75 L18.45 3.1 13.3 2.15 Q11.05 1.75 11.4 -0.5 L12.7 -10.05 Q13.55 -17.2 13.55 -24.55 13.55 -25.85 13.85 -26.85 12.55 -27.85 11.85 -29.6 L10.85 -32.55 Q9.75 -34.5 8.95 -36.65 L8.75 -37.6 4.0 -45.55 3.85 -44.95 Q2.25 -36.95 -0.4 -29.3 -1.3 -26.65 -2.85 -24.2 -8.0 -16.0 -15.2 -9.3 -16.95 -7.65 -18.15 -5.55 -12.6 -4.85 -7.4 -3.05 -7.0 -2.9 -7.0 -2.45 -6.75 1.7 -11.4 1.1 L-23.95 -1.0 Q-25.0 -1.2 -25.2 -2.25 -25.6 -4.0 -24.8 -4.95 -24.0 -8.05 -21.6 -10.45 -18.2 -15.4 -13.65 -19.6 -8.4 -24.45 -5.65 -31.05 -3.75 -35.75 -2.95 -40.8 L-2.3 -43.25 -1.9 -43.95 Q-1.4 -48.2 0.15 -51.95 L0.2 -52.35 Q1.15 -57.6 3.15 -62.45 4.5 -70.15 5.5 -78.0 L1.3 -78.45 Q0.7 -78.55 0.45 -79.2 -0.5 -82.1 0.15 -85.15 0.8 -88.25 1.9 -91.1 2.1 -94.65 3.0 -98.05 3.25 -98.95 4.0 -99.65 5.35 -103.6 8.4 -106.4 L8.2 -107.15 8.15 -108.35 Q8.2 -110.7 10.5 -110.9 14.2 -109.75 14.3 -106.85 18.5 -107.05 22.7 -106.9 M6.65 -89.05 L6.55 -88.05 Q6.35 -85.75 5.55 -83.6 L6.15 -83.5 7.2 -92.2 7.25 -92.5 6.65 -89.05" fill="#000000" fill-rule="evenodd" stroke="none"/>
  </g>
</svg>
