<?xml version="1.0" encoding="UTF-8" standalone="no"?>
<svg xmlns:ffdec="https://www.free-decompiler.com/flash" xmlns:xlink="http://www.w3.org/1999/xlink" ffdec:objectType="shape" height="157.4px" width="107.3px" xmlns="http://www.w3.org/2000/svg">
  <g transform="matrix(1.0, 0.0, 0.0, 1.0, 38.25, 142.25)">
    <path d="M35.3 -136.4 L35.45 -136.1 35.45 -135.95 35.2 -135.3 35.2 -134.85 35.2 -134.6 35.3 -133.8 35.3 -133.75 35.35 -133.4 35.35 -133.35 35.35 -133.0 35.3 -132.75 35.4 -132.0 35.45 -131.15 35.3 -130.35 35.15 -129.35 35.25 -128.25 35.85 -127.35 36.15 -127.1 36.4 -126.9 36.55 -126.8 36.75 -126.7 37.75 -126.4 38.1 -126.45 38.75 -126.55 Q40.35 -128.05 42.3 -129.0 L42.7 -129.35 43.0 -129.6 46.1 -130.75 46.7 -130.45 Q47.5 -130.15 47.9 -129.7 L52.15 -128.1 Q52.3 -127.95 52.45 -127.95 53.95 -125.85 55.6 -124.55 L56.5 -123.85 60.8 -120.2 64.7 -118.7 65.75 -116.7 Q66.5 -115.2 67.5 -113.85 68.8 -112.35 69.05 -110.7 L68.55 -109.6 68.35 -108.45 Q68.15 -105.85 68.1 -101.8 L67.65 -101.5 67.2 -100.95 67.05 -100.75 Q66.4 -99.85 66.1 -99.05 64.75 -95.65 64.25 -91.4 L63.5 -90.55 62.35 -89.35 62.3 -89.15 62.2 -88.95 61.45 -88.2 59.9 -86.85 56.35 -87.5 54.55 -87.9 53.3 -88.25 Q49.6 -89.55 46.35 -88.35 L45.6 -87.4 45.25 -86.6 45.05 -85.75 45.3 -84.3 Q45.55 -80.65 46.8 -77.1 L46.8 -76.6 46.95 -76.15 47.05 -75.8 46.9 -75.65 46.75 -75.45 46.55 -75.25 46.45 -75.1 46.45 -75.0 46.4 -74.85 45.75 -74.35 45.1 -74.35 44.4 -74.25 42.7 -74.35 36.45 -74.2 32.55 -73.6 31.7 -72.6 Q30.9 -71.35 30.4 -69.95 L30.4 -69.1 30.55 -68.95 32.25 -65.75 31.6 -63.2 31.4 -63.0 31.3 -62.8 31.25 -62.6 31.15 -62.45 31.0 -62.25 30.8 -62.1 30.4 -61.85 29.75 -61.65 26.75 -60.45 Q25.05 -59.5 23.85 -58.1 L23.55 -57.05 23.15 -54.55 24.05 -51.6 Q28.25 -48.25 32.7 -45.25 L32.8 -44.95 33.0 -44.7 33.35 -44.2 Q33.55 -42.85 34.0 -41.65 L34.1 -41.15 34.2 -40.6 33.95 -39.65 33.95 -39.55 33.8 -39.35 33.6 -39.1 33.55 -39.05 33.0 -38.65 30.6 -36.4 30.25 -35.75 29.7 -34.45 Q29.55 -32.95 29.75 -31.5 L29.8 -31.15 30.25 -30.35 30.6 -29.75 31.7 -28.6 32.2 -28.15 Q37.3 -24.9 42.3 -21.9 L42.55 -21.45 42.6 -21.35 42.85 -20.75 42.7 -19.9 Q37.65 -17.2 33.0 -14.0 L32.9 -13.9 32.75 -13.45 32.35 -12.6 32.3 -12.15 32.3 -11.75 32.3 -10.6 32.3 -10.0 32.35 -9.9 34.55 -8.25 49.9 2.7 49.8 3.2 47.65 3.4 46.7 3.4 Q42.4 3.2 38.8 4.5 L38.25 4.95 36.85 6.25 36.75 6.6 36.75 8.45 36.75 8.75 Q36.9 10.8 37.75 12.6 L37.65 12.7 37.65 12.8 37.6 13.05 37.25 13.3 36.7 13.65 36.55 14.0 35.45 15.15 Q32.6 13.75 29.65 12.45 L26.35 11.1 26.05 10.95 24.0 10.85 Q21.85 11.45 20.15 13.15 L20.05 13.4 20.0 13.4 19.9 13.45 19.55 13.45 19.3 13.55 18.45 13.8 Q17.9 13.95 17.6 14.2 L17.25 14.2 16.8 14.1 16.75 14.15 16.75 14.25 16.3 14.75 16.25 14.9 -2.7 12.0 Q-17.45 9.9 -32.3 9.3 L-32.95 9.45 -31.8 3.5 Q-31.65 2.4 -31.9 1.5 L-32.25 1.2 Q-35.2 -1.3 -38.05 -2.95 L-38.25 -3.0 -37.8 -3.35 -37.5 -3.65 -37.35 -3.9 -37.15 -4.25 -36.55 -4.8 -35.7 -5.2 -34.8 -5.8 -34.55 -6.1 -32.7 -8.0 -31.8 -9.9 Q-30.75 -12.5 -30.2 -15.0 -30.25 -16.1 -30.7 -17.1 L-30.85 -17.45 -31.75 -18.6 -31.95 -19.35 -32.45 -20.3 Q-32.1 -21.15 -32.2 -21.65 L-26.55 -23.35 -25.8 -23.6 -25.5 -23.8 -24.9 -24.35 -24.75 -24.8 -24.55 -25.95 Q-24.05 -27.3 -23.7 -29.0 L-23.3 -29.9 Q-23.0 -31.0 -22.85 -32.25 L-23.0 -33.05 -22.9 -33.8 -22.55 -34.95 -22.2 -35.5 -22.15 -35.8 -22.15 -35.9 -22.1 -36.3 -21.95 -36.75 Q-20.9 -40.4 -20.8 -43.65 L-20.15 -45.0 -19.85 -46.15 Q-19.15 -49.7 -17.65 -51.75 -17.25 -52.55 -17.2 -53.45 L-16.85 -54.0 -16.55 -54.55 -16.2 -54.9 -13.55 -57.6 -12.35 -58.65 Q-11.8 -59.65 -11.95 -60.4 L-12.05 -61.75 -12.2 -62.05 -12.35 -62.35 -12.3 -63.1 Q-11.95 -65.5 -14.95 -67.2 L-15.0 -67.8 -15.0 -71.15 -14.8 -73.3 -14.6 -75.3 -13.95 -76.1 Q-13.45 -76.75 -13.4 -77.3 -13.15 -80.35 -13.45 -82.25 L-13.2 -82.4 -12.8 -83.0 -12.1 -84.15 -12.1 -84.35 -11.35 -87.9 -11.2 -88.15 -11.15 -88.25 -11.0 -88.65 -11.0 -89.2 -10.25 -89.8 -10.0 -90.1 -9.75 -90.45 Q-7.3 -92.1 -6.35 -94.7 L-6.7 -97.2 -7.2 -98.4 Q-8.45 -100.95 -10.25 -103.3 L-10.25 -103.75 -9.95 -107.05 -9.8 -107.4 -9.55 -108.0 -9.4 -109.0 -8.95 -110.85 -8.5 -111.9 -8.4 -112.9 -8.2 -114.7 -8.3 -115.1 -8.5 -116.15 -8.65 -116.9 -9.25 -117.75 -9.3 -118.05 -9.2 -118.5 -9.25 -118.75 -9.3 -119.0 -9.25 -119.4 -9.75 -121.2 -8.05 -122.6 -7.9 -122.9 -7.75 -123.2 -7.4 -123.5 -7.05 -123.85 -5.85 -125.85 -3.75 -129.0 Q-3.5 -129.65 -3.6 -130.35 -3.7 -131.45 -4.15 -132.45 L-4.55 -133.05 -4.7 -133.35 -4.8 -133.75 -4.8 -134.05 -4.85 -134.45 -4.85 -134.55 -4.9 -134.75 -4.3 -135.05 -4.0 -135.45 -3.3 -136.45 -3.0 -136.8 -1.75 -136.7 0.85 -136.55 1.4 -136.8 2.2 -137.35 Q2.85 -137.55 3.4 -137.85 L7.1 -139.35 8.55 -139.5 8.65 -139.4 8.9 -139.3 9.35 -139.2 10.25 -139.35 Q10.9 -139.45 11.4 -139.95 L11.75 -140.1 12.1 -140.3 12.25 -140.45 12.65 -140.15 13.3 -139.8 13.9 -139.5 14.15 -139.45 14.45 -139.4 14.6 -139.35 14.7 -139.35 14.15 -138.9 15.2 -139.3 15.75 -139.45 Q16.35 -139.5 17.3 -140.9 L17.9 -142.05 18.4 -142.1 19.8 -142.25 21.7 -142.0 27.5 -141.5 28.8 -141.3 Q29.65 -139.95 30.25 -139.35 30.9 -138.6 31.5 -138.65 L31.8 -138.5 34.9 -137.15 35.0 -137.0 35.2 -136.75 35.3 -136.4" fill="#ffff00" fill-opacity="0.5019608" fill-rule="evenodd" stroke="none"/>
  </g>
</svg>
