<?xml version="1.0" encoding="UTF-8" standalone="no"?>
<svg xmlns:ffdec="https://www.free-decompiler.com/flash" xmlns:xlink="http://www.w3.org/1999/xlink" ffdec:objectType="shape" height="131.95px" width="73.2px" xmlns="http://www.w3.org/2000/svg">
  <g transform="matrix(1.0, 0.0, 0.0, 1.0, 25.05, 128.45)">
    <path d="M7.7 -107.65 L6.75 -108.5 Q3.35 -111.9 3.35 -116.75 3.35 -121.6 6.75 -125.05 10.2 -128.45 15.05 -128.45 19.9 -128.45 23.3 -125.05 26.7 -121.6 26.7 -116.75 26.7 -111.9 23.3 -108.5 21.15 -106.35 18.4 -105.55 L12.7 -105.4 12.65 -105.45 Q12.8 -106.5 13.1 -107.55 14.4 -111.85 10.55 -113.35 L9.9 -113.25 Q9.05 -113.05 8.85 -112.3 L7.7 -107.65" fill="#0c0c0c" fill-rule="evenodd" stroke="none"/>
    <path d="M18.4 -105.55 Q28.8 -105.75 39.05 -105.55 L39.5 -105.85 41.5 -111.6 Q41.85 -112.75 41.5 -113.75 36.3 -116.1 39.75 -120.75 40.75 -122.05 42.25 -122.2 47.8 -122.7 48.1 -117.7 48.3 -114.4 47.0 -111.65 46.4 -104.75 41.25 -100.5 40.8 -100.1 40.15 -99.95 L32.85 -99.5 12.15 -100.75 11.75 -95.6 Q11.7 -94.7 11.05 -94.0 L10.5 -83.4 Q17.3 -85.35 22.8 -89.9 22.15 -96.0 28.3 -96.5 29.85 -96.6 30.75 -95.4 32.4 -93.2 31.15 -90.7 29.7 -87.65 27.0 -85.65 21.45 -81.4 15.0 -78.8 12.5 -77.8 10.0 -77.3 L9.25 -70.25 Q8.3 -61.4 5.7 -52.9 9.7 -49.65 11.9 -44.6 L12.45 -43.6 Q16.3 -37.25 18.35 -30.2 19.2 -29.05 19.35 -28.15 19.95 -26.8 18.9 -24.55 17.55 -21.65 17.35 -18.4 16.85 -10.65 15.9 -2.95 20.6 -3.0 24.65 -1.0 L25.15 -0.3 Q25.75 3.9 21.5 3.45 L13.4 2.15 Q12.6 2.25 11.55 1.75 L11.05 1.6 Q10.3 1.45 10.2 0.65 9.9 0.15 10.0 -0.55 L11.4 -12.95 12.15 -22.1 Q12.35 -25.25 13.9 -27.55 11.8 -31.65 10.45 -36.05 L7.95 -39.8 Q7.55 -40.4 7.5 -41.1 5.5 -43.85 3.85 -46.7 1.5 -37.4 -2.2 -28.55 -1.8 -27.2 -3.15 -25.15 -10.05 -14.8 -18.95 -6.15 L-19.0 -6.1 Q-12.7 -5.95 -7.0 -3.9 -6.6 -3.75 -6.55 -3.25 -6.0 -0.4 -8.9 -0.2 L-18.2 -0.45 -22.55 -1.15 Q-24.6 -1.55 -24.4 -3.35 -25.2 -4.0 -25.0 -5.2 -24.0 -11.3 -18.6 -15.0 -16.4 -16.5 -14.65 -18.6 -11.05 -23.1 -8.35 -28.15 -7.75 -29.3 -6.85 -29.85 -5.85 -34.3 -4.45 -38.65 L0.2 -53.75 Q3.55 -65.1 4.55 -76.95 L0.9 -77.4 Q0.05 -77.6 -0.05 -78.4 -0.5 -82.8 1.0 -87.05 2.2 -90.25 2.6 -93.6 3.4 -99.85 6.85 -104.85 L7.25 -105.3 7.7 -107.65 8.85 -112.3 Q9.05 -113.05 9.9 -113.25 L10.55 -113.35 Q14.4 -111.85 13.1 -107.55 12.8 -106.5 12.65 -105.45 L12.65 -105.4 12.7 -105.4 18.4 -105.55" fill="#000000" fill-rule="evenodd" stroke="none"/>
  </g>
</svg>
