<?xml version="1.0" encoding="UTF-8" standalone="no"?>
<svg xmlns:ffdec="https://www.free-decompiler.com/flash" xmlns:xlink="http://www.w3.org/1999/xlink" ffdec:objectType="shape" height="161.6px" width="113.9px" xmlns="http://www.w3.org/2000/svg">
  <g transform="matrix(1.0, 0.0, 0.0, 1.0, 37.35, 144.15)">
    <path d="M35.55 -136.5 Q36.05 -134.15 36.85 -131.55 L36.95 -131.3 37.0 -130.95 37.1 -130.6 37.15 -130.3 37.15 -130.15 36.85 -129.65 36.85 -129.15 36.85 -128.95 36.85 -128.2 36.85 -128.1 36.7 -127.8 36.65 -127.7 36.5 -127.3 36.35 -127.1 36.45 -126.3 36.4 -125.55 36.1 -124.8 35.85 -123.75 Q35.75 -123.2 35.95 -122.6 L36.8 -121.85 37.2 -121.8 37.5 -121.8 37.65 -121.95 37.9 -122.25 39.35 -123.2 39.65 -123.4 40.2 -123.7 43.55 -126.35 44.05 -126.7 44.3 -126.95 47.25 -128.45 47.85 -127.9 Q48.5 -127.35 48.65 -126.6 L52.15 -123.35 Q52.3 -123.1 52.5 -123.1 54.7 -121.5 57.2 -121.15 L58.55 -121.0 65.0 -120.05 69.2 -119.4 69.6 -117.15 70.3 -113.75 Q70.95 -112.0 71.1 -110.15 L70.85 -108.95 71.8 -107.8 Q74.35 -105.0 76.55 -101.0 L76.0 -100.7 75.4 -100.35 75.15 -100.2 73.45 -98.95 Q70.15 -96.45 68.0 -92.45 L67.6 -91.25 67.05 -89.55 67.15 -89.25 67.2 -89.0 66.85 -87.85 66.0 -85.75 62.5 -86.45 60.75 -86.95 59.55 -87.45 Q55.95 -89.35 52.75 -88.4 L51.7 -87.7 51.05 -87.05 50.45 -86.3 50.4 -84.7 Q49.8 -81.05 50.45 -77.3 L50.2 -76.9 50.15 -76.45 50.2 -76.1 49.9 -76.0 49.6 -75.95 49.3 -75.85 49.1 -75.75 49.0 -75.7 48.55 -75.95 47.45 -76.15 46.8 -76.3 46.1 -76.4 44.45 -76.75 38.25 -77.0 34.4 -76.35 Q33.9 -75.8 33.8 -75.1 L33.25 -72.1 33.6 -71.2 33.7 -71.1 Q34.6 -69.35 34.8 -67.6 L30.9 -66.15 30.65 -66.05 30.4 -65.95 30.2 -65.85 29.95 -65.75 29.7 -65.7 29.45 -65.6 28.95 -65.4 28.25 -65.25 Q26.65 -65.0 25.25 -64.35 23.5 -63.55 22.2 -62.2 L22.15 -61.1 22.15 -58.5 23.75 -55.8 31.8 -48.85 31.65 -48.55 31.75 -48.2 31.85 -47.6 30.5 -44.6 30.3 -44.15 30.1 -43.55 29.3 -42.7 29.3 -42.6 29.2 -42.4 29.1 -42.1 29.05 -42.05 28.6 -41.65 26.35 -39.25 26.15 -38.5 25.9 -37.15 Q26.5 -35.6 27.5 -34.4 L27.7 -34.1 28.4 -33.4 28.9 -32.95 30.1 -31.95 30.7 -31.5 Q35.7 -28.35 40.45 -24.95 L40.5 -24.55 40.55 -24.45 40.65 -23.8 40.0 -23.05 Q35.15 -20.1 30.8 -16.55 L30.75 -16.5 30.65 -15.95 30.45 -15.1 30.4 -14.6 30.4 -14.25 30.4 -13.05 30.4 -12.5 30.5 -12.4 32.8 -10.7 48.2 -0.2 49.05 0.6 46.9 0.9 45.95 0.95 Q41.6 0.55 38.25 2.05 L37.65 2.45 Q36.85 3.0 36.15 3.75 L36.1 4.15 36.15 5.95 36.15 6.25 Q36.3 8.25 36.85 10.1 L36.8 10.3 37.0 10.55 37.3 11.05 37.1 11.55 36.85 12.25 37.2 13.0 Q37.6 14.1 37.2 15.35 L31.65 12.35 28.45 10.8 28.25 10.7 26.25 10.65 Q24.15 11.5 22.4 12.95 L22.2 13.15 22.15 13.1 22.0 13.05 21.65 12.85 21.35 12.8 20.15 12.3 19.1 11.9 18.65 11.7 18.15 11.45 18.05 11.4 18.05 11.5 17.45 11.8 17.45 11.85 17.15 12.2 16.95 12.4 Q11.85 14.65 7.4 16.8 L6.8 17.1 4.1 17.45 Q3.05 16.7 1.95 16.3 L-0.45 15.35 -1.6 15.3 Q-3.5 14.3 -5.55 13.45 L-6.25 13.3 -10.8 13.9 -12.55 13.55 -13.9 13.4 -15.2 13.2 -16.4 12.95 -17.35 12.75 -20.0 13.05 -20.5 13.35 -20.6 13.4 Q-21.95 12.7 -23.75 12.7 L-31.6 13.0 -33.05 12.85 -34.4 12.2 -33.75 10.5 -33.5 9.85 Q-32.35 7.05 -31.75 4.05 -31.45 3.0 -31.9 2.1 L-32.15 1.8 -37.25 -3.25 -37.35 -3.25 -36.9 -3.55 -36.6 -3.85 -36.35 -4.1 -36.05 -4.4 -35.5 -4.85 -34.55 -5.15 -33.65 -5.6 -33.4 -5.9 -31.65 -7.75 -31.1 -9.85 Q-30.55 -12.65 -30.75 -15.35 -30.95 -16.4 -31.45 -17.4 L-31.55 -17.7 -32.6 -18.85 -32.7 -19.6 Q-32.7 -20.2 -33.05 -20.6 L-30.7 -21.45 -24.9 -22.55 -24.2 -22.7 -23.95 -22.95 -23.5 -23.6 -23.6 -24.15 -24.15 -25.45 -24.85 -28.9 -24.75 -29.85 -24.8 -32.4 -25.25 -33.15 -25.2 -33.9 Q-25.25 -34.5 -24.9 -35.05 L-24.5 -35.45 -24.4 -35.75 -24.4 -35.85 -24.3 -36.25 -23.95 -36.6 -18.45 -42.5 -17.3 -43.65 -16.95 -44.8 Q-16.2 -48.45 -16.35 -51.0 -16.55 -52.05 -17.15 -53.05 L-17.05 -53.7 -17.0 -54.4 -16.75 -54.7 -14.3 -57.55 -13.0 -58.55 -11.9 -60.1 -11.1 -61.5 -11.2 -61.85 -11.25 -62.15 -10.65 -63.0 Q-8.75 -65.7 -11.8 -67.55 L-12.25 -68.05 Q-13.35 -70.0 -14.75 -71.4 L-16.3 -73.55 -17.2 -75.55 -16.5 -76.2 -15.6 -77.2 -11.85 -81.95 Q-11.65 -82.05 -11.5 -82.1 L-11.25 -82.8 -10.85 -84.1 -11.0 -84.4 -12.5 -88.4 -12.45 -88.7 -12.4 -88.8 -12.45 -89.35 -12.8 -90.0 -12.1 -90.65 -11.85 -91.0 -11.7 -91.35 Q-9.25 -92.8 -7.7 -95.05 L-6.5 -97.7 -6.65 -99.05 Q-7.25 -101.95 -8.7 -104.5 L-8.8 -104.95 Q-9.15 -106.8 -9.8 -108.4 L-9.7 -108.8 -9.6 -109.45 -9.85 -110.5 -10.25 -112.5 -10.3 -113.65 -10.45 -114.6 -10.75 -116.4 -10.85 -116.8 -11.15 -117.85 -11.35 -118.55 -11.8 -119.55 -11.65 -119.85 -11.15 -120.3 -11.1 -120.5 -10.95 -120.85 -10.45 -121.2 -8.8 -123.3 -7.1 -124.7 -7.05 -125.0 -6.95 -125.35 -6.7 -125.65 -6.35 -126.05 -5.8 -128.35 -4.8 -132.15 -4.8 -133.5 -5.15 -135.55 -5.4 -136.15 -5.55 -136.45 -5.65 -136.85 -5.65 -137.2 -5.7 -137.6 -5.7 -137.75 -5.3 -137.5 -4.15 -136.95 -3.1 -136.6 -1.3 -136.45 Q-0.7 -135.8 0.05 -135.75 L1.3 -135.5 3.85 -135.55 4.25 -136.05 4.7 -137.05 5.7 -138.05 8.5 -141.4 10.0 -142.05 10.15 -142.15 10.5 -142.45 11.05 -142.9 11.85 -143.35 12.95 -144.1 13.35 -144.15 13.9 -144.1 14.25 -143.95 14.65 -143.6 15.15 -143.1 15.65 -142.65 15.85 -142.4 16.15 -142.1 16.35 -141.9 16.45 -141.75 17.1 -140.05 18.65 -138.75 19.45 -138.0 Q20.45 -137.1 22.0 -138.3 L23.0 -139.15 23.5 -139.3 24.85 -139.65 26.85 -140.0 32.75 -141.15 34.1 -141.35 34.9 -138.9 35.4 -136.95 35.55 -136.5" fill="#ffff00" fill-opacity="0.5019608" fill-rule="evenodd" stroke="none"/>
  </g>
</svg>
