<?xml version="1.0" encoding="UTF-8" standalone="no"?>
<svg xmlns:ffdec="https://www.free-decompiler.com/flash" xmlns:xlink="http://www.w3.org/1999/xlink" ffdec:objectType="shape" height="129.85px" width="81.5px" xmlns="http://www.w3.org/2000/svg">
  <g transform="matrix(1.0, 0.0, 0.0, 1.0, 24.0, 127.9)">
    <path d="M8.75 -107.15 L7.85 -107.95 Q4.45 -111.35 4.45 -116.2 4.45 -121.05 7.85 -124.5 11.3 -127.9 16.15 -127.9 21.0 -127.9 24.4 -124.5 27.8 -121.05 27.8 -116.2 27.8 -111.35 24.4 -107.95 22.95 -106.5 21.3 -105.65 L14.8 -105.7 14.65 -106.2 Q15.8 -110.2 11.8 -111.3 9.25 -111.05 8.9 -108.5 L8.75 -107.15" fill="#0c0c0c" fill-rule="evenodd" stroke="none"/>
    <path d="M21.3 -105.65 L35.8 -105.8 Q41.4 -105.95 46.6 -108.25 L49.25 -109.55 Q48.95 -111.3 49.75 -112.85 50.6 -114.5 52.2 -114.7 57.8 -115.3 57.5 -110.3 57.4 -108.55 55.9 -107.4 47.6 -101.1 37.05 -100.7 L13.0 -99.9 12.9 -97.75 Q12.9 -94.55 12.25 -91.45 L11.0 -84.2 22.75 -87.95 24.25 -89.8 24.75 -90.45 Q24.15 -95.65 28.85 -96.15 29.65 -96.25 30.1 -95.55 33.0 -90.85 29.15 -86.6 27.8 -85.05 26.05 -83.85 23.45 -82.05 20.3 -81.25 16.45 -80.25 12.85 -78.7 11.55 -78.15 10.25 -77.75 L9.9 -73.4 Q9.85 -72.0 8.95 -70.9 7.95 -62.55 6.55 -54.35 7.85 -53.55 8.1 -51.7 L8.1 -51.4 16.65 -34.35 16.95 -33.1 Q19.6 -27.4 18.15 -21.0 17.8 -19.5 17.85 -17.9 18.0 -10.85 16.95 -4.1 20.5 -4.85 23.4 -3.0 24.8 -2.1 24.35 -0.45 23.6 2.4 20.55 1.9 L13.75 0.85 Q11.45 0.5 11.6 -1.8 L12.75 -25.2 Q12.8 -26.5 13.15 -27.7 L12.85 -28.65 Q12.55 -29.1 12.5 -29.6 8.5 -38.1 4.8 -46.8 L4.5 -46.7 4.0 -46.6 3.95 -46.25 Q3.85 -45.7 3.45 -45.3 2.25 -40.35 -0.35 -35.85 L-0.75 -35.2 Q-1.05 -31.55 -2.3 -28.3 -2.4 -27.1 -3.4 -25.6 -6.7 -20.8 -10.2 -16.15 L-14.5 -10.75 -17.9 -6.25 -9.3 -5.7 Q-6.2 -5.4 -7.0 -2.6 -7.5 -0.85 -9.25 -0.65 -16.55 0.3 -23.05 -2.15 -24.1 -2.55 -24.0 -3.7 -23.4 -11.05 -17.5 -15.7 L-7.8 -28.5 -7.7 -29.4 Q-6.7 -34.3 -4.85 -38.85 -4.85 -40.05 -4.2 -41.0 L-3.5 -42.05 Q-1.5 -46.95 -0.15 -52.1 L0.2 -52.75 Q-0.1 -54.85 1.15 -56.0 L2.0 -62.1 2.55 -65.2 4.5 -74.05 4.8 -76.9 2.55 -76.95 Q-1.4 -77.2 -0.6 -80.9 0.25 -84.85 1.7 -88.55 4.2 -95.05 6.95 -101.2 7.1 -102.45 7.6 -103.3 7.7 -104.05 8.4 -104.7 L8.75 -107.15 8.9 -108.5 Q9.25 -111.05 11.8 -111.3 15.8 -110.2 14.65 -106.2 L14.5 -105.7 14.8 -105.7 21.3 -105.65 M5.4 -82.45 L5.35 -82.45 5.4 -82.45" fill="#000000" fill-rule="evenodd" stroke="none"/>
  </g>
</svg>
