<?xml version="1.0" encoding="UTF-8" standalone="no"?>
<svg xmlns:ffdec="https://www.free-decompiler.com/flash" xmlns:xlink="http://www.w3.org/1999/xlink" ffdec:objectType="shape" height="62.75px" width="61.85px" xmlns="http://www.w3.org/2000/svg">
  <g transform="matrix(1.0, 0.0, 0.0, 1.0, 30.95, 31.35)">
    <path d="M-13.6 -31.35 L30.35 -26.75 Q30.65 -26.75 30.9 -26.35 L30.9 -24.85 30.9 -24.1 30.9 -23.35 28.85 -19.6 28.2 -18.1 Q25.3 -11.0 22.9 -3.85 L22.9 -3.1 22.9 -2.35 22.4 -1.6 21.9 -0.85 21.9 0.65 21.85 1.4 21.65 2.15 19.9 3.65 19.8 6.65 19.55 8.1 19.3 8.9 Q18.45 14.1 16.5 18.85 17.4 22.2 15.2 27.1 13.35 31.15 8.85 31.35 -2.6 31.9 -1.9 20.7 -1.55 15.45 3.25 13.35 5.5 12.4 7.4 12.15 10.5 12.85 12.6 14.1 L12.85 13.4 12.9 12.65 12.9 11.9 12.9 10.4 13.4 9.65 13.9 8.9 13.9 8.15 13.9 7.4 14.4 6.65 14.9 5.9 14.9 4.4 14.9 3.65 14.9 2.9 14.9 2.15 14.9 1.4 16.1 -0.15 16.65 -0.85 16.85 -2.35 16.9 -3.1 16.9 -3.85 17.85 -5.4 18.2 -6.1 18.6 -6.9 18.95 -7.6 19.4 -8.35 19.9 -9.1 19.9 -10.6 19.9 -11.35 19.9 -12.1 19.9 -12.85 19.9 -13.6 20.75 -15.15 21.05 -15.8 21.55 -16.65 21.9 -17.35 22.2 -18.1 22.55 -18.9 Q23.05 -20.1 23.9 -21.1 L23.9 -21.85 23.9 -22.6 -10.35 -24.85 Q-9.95 -22.65 -9.95 -20.35 -10.1 -11.0 -10.65 -1.65 -11.15 6.95 -11.1 15.65 L-11.6 16.4 -12.1 17.15 -12.1 17.9 -12.1 18.65 -12.45 19.05 Q-11.65 22.35 -13.8 27.1 -15.65 31.15 -20.15 31.35 -31.6 31.9 -30.9 20.7 -30.55 15.45 -25.75 13.35 -23.5 12.4 -21.6 12.15 -18.85 12.8 -16.9 13.8 -15.4 4.4 -15.25 -5.35 -15.1 -14.0 -15.1 -22.6 L-15.6 -23.35 -16.1 -24.1 -16.1 -25.6 -16.1 -26.35 -16.1 -27.1 -16.1 -27.85 -16.1 -28.6 -16.1 -29.35 -15.75 -30.05 -15.1 -30.85 -13.65 -31.2 -13.6 -31.35" fill="#000000" fill-rule="evenodd" stroke="none"/>
  </g>
</svg>
