<?xml version="1.0" encoding="UTF-8" standalone="no"?>
<svg xmlns:ffdec="https://www.free-decompiler.com/flash" xmlns:xlink="http://www.w3.org/1999/xlink" ffdec:objectType="shape" height="167.5px" width="121.4px" xmlns="http://www.w3.org/2000/svg">
  <g transform="matrix(1.0, 0.0, 0.0, 1.0, 36.45, 148.3)">
    <path d="M39.55 -138.5 L39.15 -132.95 -5.7 -132.6 Q-5.85 -136.85 -6.55 -140.9 -3.25 -137.95 0.75 -136.4 3.25 -133.5 6.85 -134.55 L7.1 -135.3 7.2 -136.8 8.0 -138.3 9.95 -143.5 11.4 -144.6 11.6 -144.95 Q12.8 -146.8 14.5 -148.3 16.0 -148.15 16.95 -146.45 19.85 -141.3 23.2 -136.6 24.5 -134.75 26.65 -135.65 33.4 -138.6 39.45 -141.4 L39.55 -138.5 M84.95 -100.2 L83.55 -99.7 Q76.55 -98.2 71.7 -93.5 L71.7 -92.0 71.7 -89.8 72.0 -89.4 72.2 -89.05 72.2 -87.55 Q72.3 -86.1 72.05 -84.7 L66.95 -86.0 Q66.3 -86.25 65.75 -86.65 60.4 -90.5 55.8 -86.8 L55.5 -85.1 Q54.05 -81.45 54.1 -77.5 L53.6 -77.15 53.4 -76.75 53.35 -76.4 51.6 -76.4 Q44.95 -81.35 36.2 -79.15 35.8 -78.45 35.85 -77.65 35.9 -75.95 36.1 -74.3 L36.85 -73.2 Q37.55 -71.35 37.35 -69.45 L26.8 -68.9 Q22.95 -68.6 20.6 -66.25 20.6 -65.65 20.75 -65.15 L21.1 -62.5 30.9 -52.45 30.5 -52.1 30.5 -51.7 30.4 -51.0 25.95 -46.5 24.7 -45.75 24.6 -45.4 24.55 -45.0 24.15 -44.6 22.1 -42.05 22.1 -41.3 22.1 -39.8 Q23.45 -38.25 25.2 -37.25 32.3 -33.25 38.6 -28.05 L38.5 -27.65 38.45 -26.9 Q33.1 -23.4 28.55 -19.1 L28.55 -17.6 28.55 -15.0 Q38.0 -7.95 48.25 -2.0 L46.15 -1.6 45.2 -1.55 Q39.2 -2.4 35.5 1.25 L35.5 3.45 Q35.6 5.7 36.0 7.95 L36.35 8.3 36.95 9.05 36.95 9.8 36.95 10.9 37.85 12.0 Q38.95 13.7 38.95 15.5 34.8 12.7 30.4 10.45 29.4 9.95 28.45 10.45 L24.4 12.95 19.35 8.65 19.35 8.75 18.6 8.9 18.25 9.25 Q12.85 13.65 8.05 18.45 6.75 19.15 5.3 19.2 3.3 17.1 0.9 15.4 0.3 15.0 -0.3 15.05 L-4.15 11.6 -4.85 11.25 -13.35 11.7 -14.85 11.9 Q-19.15 11.85 -21.05 14.3 -22.3 13.35 -24.15 13.3 L-35.2 12.5 -34.35 10.8 Q-32.6 7.85 -31.65 4.65 -31.25 3.3 -32.1 2.35 -34.8 -0.7 -36.45 -3.5 L-34.45 -4.95 Q-33.4 -5.05 -32.5 -5.45 L-32.25 -5.75 -30.6 -7.55 -30.4 -9.8 Q-30.35 -14.15 -32.25 -18.0 L-33.45 -19.1 -33.4 -19.85 Q-33.35 -20.5 -33.7 -20.95 L-23.3 -21.7 -22.55 -21.85 -22.35 -22.1 -22.05 -22.85 -22.45 -23.45 Q-24.7 -25.9 -26.05 -28.8 L-26.15 -29.85 -26.75 -32.5 -27.5 -33.25 -27.55 -34.0 Q-27.65 -34.6 -27.25 -35.1 L-26.75 -35.45 -26.65 -35.85 -26.5 -36.2 Q-20.3 -38.95 -14.5 -42.3 L-14.05 -43.45 Q-12.8 -48.9 -17.1 -52.7 L-17.25 -53.45 -17.45 -54.2 -17.25 -54.55 -15.0 -57.55 Q-12.35 -59.2 -10.15 -61.25 L-10.15 -61.65 -10.15 -62.0 -9.0 -62.85 Q-5.1 -66.3 -9.55 -68.35 -11.8 -70.3 -14.5 -71.65 -18.05 -73.5 -19.85 -75.8 L-9.8 -81.85 -9.7 -82.6 -9.65 -84.1 -9.9 -84.45 -13.65 -88.9 -13.65 -89.3 -13.9 -90.05 -14.6 -90.8 -13.9 -91.55 -13.75 -91.9 -13.65 -92.25 Q-9.4 -94.5 -6.3 -98.2 L-6.1 -99.7 Q-5.95 -105.45 -9.65 -109.75 L-9.65 -110.15 -9.65 -110.85 -10.35 -112.0 Q-13.05 -116.7 -14.35 -121.3 L-14.05 -121.6 -13.15 -122.05 -12.9 -122.3 -12.65 -122.65 -11.65 -123.0 Q-8.75 -124.55 -6.2 -126.75 L-6.2 -126.9 38.9 -126.85 38.85 -124.4 38.45 -124.0 38.45 -123.3 38.35 -122.55 38.05 -122.15 37.45 -121.4 37.45 -120.65 37.35 -119.9 36.85 -119.2 Q36.2 -118.15 36.6 -116.95 L37.7 -116.35 38.2 -116.5 38.6 -116.7 38.8 -117.1 39.1 -117.8 Q43.15 -123.2 48.4 -126.1 L48.95 -125.35 Q49.5 -124.55 49.35 -123.5 51.1 -121.25 52.2 -118.65 L52.55 -118.25 Q56.3 -116.9 60.6 -118.15 67.5 -120.15 73.65 -120.15 L73.5 -117.6 Q72.85 -113.0 73.2 -108.25 79.8 -104.85 84.95 -100.2" fill="#ffff00" fill-opacity="0.5019608" fill-rule="evenodd" stroke="none"/>
  </g>
</svg>
