<?xml version="1.0" encoding="UTF-8" standalone="no"?>
<svg xmlns:ffdec="https://www.free-decompiler.com/flash" xmlns:xlink="http://www.w3.org/1999/xlink" ffdec:objectType="shape" height="131.25px" width="86.95px" xmlns="http://www.w3.org/2000/svg">
  <g transform="matrix(1.0, 0.0, 0.0, 1.0, 24.9, 128.45)">
    <path d="M16.15 -128.45 Q21.0 -128.45 24.4 -125.05 27.8 -121.6 27.8 -116.75 27.8 -111.9 24.4 -108.5 21.3 -105.4 16.95 -105.1 L28.2 -104.9 50.55 -103.9 Q50.6 -104.5 51.0 -104.9 52.45 -106.45 54.3 -106.65 59.3 -107.85 61.65 -104.15 62.05 -103.55 62.05 -102.75 62.0 -99.25 58.5 -98.95 52.55 -98.5 46.55 -98.75 L26.1 -99.5 13.9 -100.1 13.9 -100.05 Q13.25 -93.75 11.1 -87.85 10.15 -85.35 9.95 -82.65 16.95 -84.55 22.85 -89.7 21.6 -94.2 25.7 -95.9 L28.6 -96.2 Q32.1 -95.6 30.9 -92.2 28.85 -86.25 23.25 -82.65 18.65 -79.6 13.45 -77.9 L9.7 -76.9 8.8 -70.65 6.4 -60.2 5.35 -54.75 Q6.95 -53.4 8.05 -51.35 L9.55 -48.65 Q10.25 -47.5 10.3 -46.1 12.75 -41.5 14.85 -36.7 15.25 -35.75 15.25 -34.75 20.3 -27.65 18.55 -18.9 17.55 -14.15 17.7 -9.15 L17.8 -3.15 Q20.2 -2.35 24.2 -2.1 25.85 -2.0 26.05 -0.4 26.35 1.8 24.15 2.3 19.35 3.4 14.65 2.15 11.95 1.45 12.15 -1.5 L12.75 -13.15 12.8 -27.05 12.35 -28.55 Q10.85 -30.95 10.0 -33.35 7.4 -40.15 3.55 -46.45 L2.75 -42.85 2.2 -41.9 Q0.95 -35.1 -1.8 -28.9 -1.15 -27.35 -3.3 -25.25 -8.65 -19.95 -12.7 -13.9 L-13.35 -13.05 Q-16.3 -9.35 -18.35 -5.25 -12.65 -5.25 -6.85 -3.35 -6.2 -3.1 -6.05 -2.4 -5.55 0.45 -8.45 0.55 L-21.9 -0.05 Q-25.9 -0.5 -24.6 -4.3 -22.05 -11.6 -16.8 -17.5 L-15.7 -18.85 Q-12.35 -24.0 -8.05 -28.55 L-6.9 -29.6 -6.8 -30.4 Q-5.9 -34.4 -4.0 -38.0 L1.3 -61.05 Q3.15 -68.6 4.25 -76.35 L-0.8 -76.75 Q-1.45 -76.85 -1.6 -77.45 -2.55 -81.05 -0.7 -84.45 0.9 -87.35 1.65 -90.6 L2.0 -91.3 Q3.2 -99.0 8.3 -104.7 L8.75 -105.05 Q9.0 -106.2 9.8 -106.9 L7.85 -108.5 Q4.45 -111.9 4.45 -116.75 4.45 -121.6 7.85 -125.05 11.3 -128.45 16.15 -128.45 M14.55 -105.1 L15.5 -105.1 14.55 -105.2 14.55 -105.1 M4.3 -81.7 L4.9 -81.75 5.0 -83.05 4.3 -81.7" fill="#0c0c0c" fill-rule="evenodd" stroke="none"/>
  </g>
</svg>
