<?xml version="1.0" encoding="UTF-8" standalone="no"?>
<svg xmlns:ffdec="https://www.free-decompiler.com/flash" xmlns:xlink="http://www.w3.org/1999/xlink" ffdec:objectType="shape" height="162.3px" width="115.65px" xmlns="http://www.w3.org/2000/svg">
  <g transform="matrix(1.0, 0.0, 0.0, 1.0, 37.4, 145.1)">
    <path d="M36.9 -136.55 L36.85 -135.45 36.45 -129.45 36.25 -128.65 36.3 -127.85 36.3 -125.6 36.5 -125.05 36.45 -124.85 36.4 -124.7 36.5 -124.4 36.55 -124.3 36.55 -124.1 36.5 -123.9 36.3 -123.75 36.05 -123.6 35.95 -123.35 36.1 -122.85 36.2 -122.4 36.0 -122.0 Q35.9 -121.7 35.95 -121.4 L35.75 -121.4 23.85 -120.45 0.95 -119.55 -13.75 -119.05 -13.35 -119.2 Q-10.3 -120.45 -7.6 -122.4 L-7.5 -122.65 -7.45 -123.05 -7.25 -123.4 -7.05 -123.85 -7.1 -125.0 -7.2 -126.45 Q-7.45 -130.85 -8.05 -135.2 L-7.85 -136.2 Q-5.85 -135.0 -3.7 -134.25 L-1.35 -133.65 -0.75 -133.75 Q1.35 -132.4 4.05 -134.05 L4.25 -134.8 4.35 -136.3 4.9 -137.85 5.85 -141.45 6.65 -142.45 8.1 -143.0 8.4 -143.2 Q9.75 -144.3 11.5 -145.1 L11.6 -145.1 Q13.05 -144.7 14.1 -143.35 16.25 -140.8 18.45 -139.1 L18.7 -138.85 20.0 -137.85 20.55 -137.35 20.95 -137.1 24.0 -137.2 26.65 -138.85 27.4 -139.05 31.15 -139.3 32.2 -139.5 35.65 -140.35 36.5 -138.25 36.9 -136.55 M38.95 -121.65 L42.3 -124.7 42.5 -124.85 43.25 -125.2 43.7 -125.5 46.15 -126.5 46.35 -125.8 46.5 -125.4 46.65 -124.55 46.55 -124.0 47.5 -121.8 47.85 -121.35 38.8 -121.4 38.95 -121.65 M10.4 -113.95 L34.4 -114.75 Q51.05 -115.0 67.75 -114.35 68.35 -111.75 69.35 -108.9 71.55 -108.05 73.55 -107.0 L74.2 -106.3 78.25 -100.75 77.15 -100.05 75.9 -99.3 Q73.9 -97.95 72.5 -96.15 71.45 -94.8 70.55 -93.1 L70.8 -91.65 71.15 -89.6 71.45 -89.2 71.65 -88.85 71.85 -87.5 71.0 -85.25 Q68.4 -85.55 65.95 -86.35 L65.35 -86.55 64.65 -86.95 Q62.45 -88.2 60.7 -87.95 L59.55 -87.7 Q57.55 -87.15 55.8 -85.25 L55.5 -83.55 55.3 -82.95 Q53.9 -81.1 53.1 -79.25 L52.75 -78.25 52.15 -78.1 51.85 -77.85 51.85 -77.7 51.75 -77.6 50.45 -77.7 50.0 -77.75 Q45.2 -81.0 39.8 -80.3 L38.65 -79.9 Q37.15 -79.35 35.7 -78.55 35.35 -77.85 35.4 -77.05 L35.5 -74.55 35.4 -73.95 35.6 -73.45 35.65 -73.15 Q35.7 -71.8 35.15 -70.55 L28.0 -70.15 27.5 -70.0 25.8 -69.3 25.55 -69.25 Q23.3 -68.35 22.15 -66.05 22.25 -65.5 22.5 -65.05 L23.0 -63.65 22.8 -62.65 24.35 -59.4 24.8 -58.75 25.55 -57.55 26.2 -56.95 30.8 -53.15 30.65 -52.8 30.75 -52.45 30.85 -51.85 29.5 -49.15 29.1 -48.5 28.35 -47.5 27.95 -47.15 27.25 -46.65 27.1 -46.3 27.0 -45.9 26.6 -45.45 24.5 -42.9 24.4 -42.15 24.15 -40.8 24.4 -40.1 24.6 -39.85 25.4 -38.8 26.65 -38.1 Q30.8 -35.95 33.85 -32.85 L36.0 -29.55 36.25 -29.25 36.55 -28.9 36.85 -28.3 36.7 -27.9 36.5 -27.2 33.0 -24.25 32.55 -23.65 31.65 -22.6 29.7 -19.15 30.05 -17.85 30.6 -15.65 35.9 -12.3 38.45 -9.0 41.6 -5.05 41.9 -4.8 42.35 -4.3 44.95 -2.65 43.75 -2.0 43.25 -1.8 Q41.7 -1.75 40.5 -0.9 37.8 -0.3 35.75 1.45 L35.3 3.4 Q34.9 5.3 34.9 7.35 L34.9 7.55 35.15 7.9 35.3 8.15 35.6 8.6 35.55 9.35 35.4 10.45 35.7 10.9 36.05 11.55 36.2 11.9 Q36.9 13.45 36.85 15.05 L34.25 14.4 30.6 11.8 29.15 11.0 27.6 10.7 27.2 10.75 24.85 11.75 22.95 12.95 Q20.4 11.6 17.8 10.55 L17.75 10.65 17.05 10.85 16.65 11.25 13.55 13.85 12.85 14.2 6.75 17.0 4.3 17.1 4.15 16.95 3.5 16.4 Q1.65 15.25 -0.4 14.35 L-1.6 14.2 -5.65 11.95 -6.35 11.75 -12.35 12.3 -12.95 12.15 -14.3 12.05 -15.55 11.8 -17.25 11.4 Q-19.65 11.15 -21.35 12.6 L-21.6 12.45 Q-22.85 11.95 -24.45 11.95 L-32.35 11.95 -33.15 11.55 -34.45 10.95 -33.75 9.25 Q-33.05 7.55 -32.65 5.8 L-32.4 3.1 Q-32.3 1.9 -33.15 0.95 L-36.7 -3.35 -37.4 -4.5 Q-36.3 -4.95 -35.25 -5.55 -34.2 -5.6 -33.3 -6.0 L-33.0 -6.25 -31.15 -7.95 -30.85 -9.05 -30.8 -9.9 -30.8 -10.1 Q-30.75 -14.4 -33.0 -18.0 L-33.0 -18.1 -33.4 -18.55 -34.05 -19.25 -34.05 -19.95 Q-34.05 -20.55 -34.35 -21.0 L-31.55 -22.25 -25.3 -22.5 -24.55 -22.6 -24.3 -22.75 -23.85 -23.25 -24.0 -23.7 -24.2 -24.0 Q-24.65 -24.65 -24.9 -25.95 L-25.1 -26.6 -25.7 -28.15 -25.8 -29.2 -26.25 -31.4 -26.4 -31.85 -26.7 -32.2 -27.0 -32.6 -27.05 -33.3 -27.05 -33.4 -26.8 -34.45 -26.45 -34.9 -26.35 -35.3 -26.25 -35.7 -25.0 -36.65 Q-21.5 -38.1 -18.3 -40.0 L-17.6 -40.75 -16.15 -42.4 Q-16.0 -42.9 -16.0 -43.45 -16.0 -47.65 -19.0 -50.8 L-19.6 -51.95 -19.55 -52.65 -19.55 -53.3 -19.25 -53.65 -17.2 -55.85 -16.95 -56.1 -16.8 -56.25 -16.45 -56.5 Q-14.05 -58.0 -11.9 -59.8 L-11.9 -59.9 -11.85 -60.15 -11.8 -60.35 -11.8 -60.45 -10.7 -61.3 Q-9.8 -62.15 -9.45 -63.05 -8.95 -65.05 -12.0 -66.55 -14.3 -68.35 -16.95 -69.75 L-19.0 -70.95 Q-20.1 -72.4 -20.5 -73.9 -15.45 -76.85 -10.5 -79.9 L-10.3 -80.6 -9.95 -81.95 -10.1 -82.25 -10.2 -82.6 -10.45 -83.0 -11.0 -83.9 -13.45 -86.55 -13.55 -86.9 -13.85 -87.6 -14.55 -88.25 -14.15 -88.9 -14.15 -89.25 -14.15 -89.55 -13.4 -90.55 -13.25 -90.8 -12.85 -91.3 Q-10.35 -93.3 -8.2 -95.8 L-7.8 -97.25 Q-7.45 -99.15 -7.45 -100.95 L-7.55 -101.65 -7.95 -103.1 -8.8 -104.55 -10.55 -106.8 -10.65 -107.2 -10.75 -107.85 -11.5 -108.9 -14.15 -113.45 Q-1.9 -113.25 10.4 -113.95" fill="#ffff00" fill-opacity="0.5019608" fill-rule="evenodd" stroke="none"/>
  </g>
</svg>
