<?xml version="1.0" encoding="UTF-8" standalone="no"?>
<svg xmlns:ffdec="https://www.free-decompiler.com/flash" xmlns:xlink="http://www.w3.org/1999/xlink" ffdec:objectType="shape" height="130.75px" width="88.1px" xmlns="http://www.w3.org/2000/svg">
  <g transform="matrix(1.0, 0.0, 0.0, 1.0, 26.35, 127.9)">
    <path d="M8.35 -107.0 L7.3 -107.95 Q3.9 -111.35 3.9 -116.2 3.9 -121.05 7.3 -124.5 10.75 -127.9 15.6 -127.9 20.45 -127.9 23.85 -124.5 27.25 -121.05 27.25 -116.2 27.25 -111.35 23.85 -107.95 22.4 -106.5 20.65 -105.65 L14.6 -106.9 Q14.95 -110.05 11.8 -111.3 L11.75 -111.25 Q8.9 -109.95 8.35 -107.0" fill="#0c0c0c" fill-rule="evenodd" stroke="none"/>
    <path d="M20.65 -105.65 L32.95 -103.95 52.3 -103.1 Q53.15 -104.5 54.7 -104.75 57.75 -105.35 60.0 -103.65 61.85 -102.35 61.75 -100.15 61.65 -97.95 59.4 -97.9 45.35 -97.7 31.35 -98.0 L29.5 -98.15 29.65 -97.6 Q29.95 -92.75 25.6 -90.0 L22.35 -88.05 Q17.0 -84.85 11.25 -83.45 L10.3 -77.55 Q8.9 -69.05 6.85 -60.75 7.2 -57.8 6.65 -55.2 7.85 -53.95 8.6 -51.95 L9.9 -48.15 Q12.25 -43.0 14.2 -37.5 L15.6 -33.9 Q18.5 -26.85 17.0 -19.05 16.3 -15.4 16.4 -11.5 L16.5 -4.25 Q23.25 -4.6 29.35 -2.1 30.65 -1.55 30.9 -0.2 31.5 2.55 28.6 2.75 25.8 3.0 22.95 2.75 21.7 2.65 21.25 1.55 16.1 2.4 12.2 -0.6 10.95 -1.5 10.95 -3.2 10.85 -14.85 11.85 -26.25 11.95 -27.4 11.5 -28.5 11.2 -29.2 11.25 -30.05 8.1 -36.15 6.1 -42.65 L5.7 -44.55 3.25 -49.7 1.35 -45.3 Q1.8 -36.2 -2.35 -28.4 L-4.55 -24.8 -11.45 -14.85 Q-14.25 -10.95 -17.55 -7.4 -12.3 -6.9 -7.3 -5.4 -6.45 -5.15 -6.45 -4.25 -6.55 0.5 -11.7 -0.9 L-16.0 -1.45 Q-19.95 -1.4 -23.4 -2.65 -25.55 -2.05 -26.25 -5.05 -26.85 -7.65 -24.55 -9.25 -19.3 -12.85 -15.65 -18.1 L-14.85 -18.85 -6.2 -33.25 Q-4.55 -35.95 -4.65 -39.1 -4.75 -44.75 -2.85 -49.85 -1.25 -54.3 1.5 -58.05 L1.95 -62.0 2.5 -65.15 Q4.45 -73.8 5.5 -82.55 1.6 -82.2 -2.5 -82.65 L-3.35 -83.0 Q-6.75 -85.8 -3.9 -89.6 -0.1 -99.25 8.05 -106.0 L8.25 -106.15 8.35 -107.0 Q8.9 -109.95 11.75 -111.25 L11.8 -111.3 Q14.95 -110.05 14.6 -106.9 L20.65 -105.65 M12.75 -101.2 Q12.55 -95.25 11.95 -89.4 17.6 -91.35 22.5 -95.3 23.05 -98.0 24.6 -98.85 18.7 -99.9 13.15 -101.8 L12.75 -101.2 M7.15 -97.15 L7.2 -97.5 Q4.2 -93.85 1.9 -89.65 1.35 -88.65 1.25 -87.5 L6.1 -87.95 6.2 -89.55 7.15 -97.15" fill="#000000" fill-rule="evenodd" stroke="none"/>
  </g>
</svg>
