<?xml version="1.0" encoding="UTF-8" standalone="no"?>
<svg xmlns:ffdec="https://www.free-decompiler.com/flash" xmlns:xlink="http://www.w3.org/1999/xlink" ffdec:objectType="shape" height="157.95px" width="109.85px" xmlns="http://www.w3.org/2000/svg">
  <g transform="matrix(1.0, 0.0, 0.0, 1.0, 38.35, 141.95)">
    <path d="M34.45 -137.05 L34.4 -135.95 Q34.45 -132.9 33.9 -130.0 L33.55 -129.2 33.55 -128.45 33.75 -126.15 34.15 -125.65 34.25 -125.45 34.35 -125.45 34.4 -125.4 34.45 -125.3 34.75 -125.1 35.05 -124.9 35.15 -124.75 35.95 -124.2 36.95 -124.2 37.5 -124.4 37.8 -124.6 37.9 -124.65 38.3 -125.0 38.8 -125.5 42.4 -128.05 42.5 -128.05 42.95 -127.8 42.95 -127.6 43.9 -126.85 43.75 -126.2 43.85 -125.9 43.9 -125.1 43.75 -124.55 44.15 -122.25 46.2 -120.25 46.6 -119.95 Q50.2 -118.55 54.4 -118.9 L54.75 -118.95 56.95 -115.9 Q57.5 -115.5 58.4 -115.6 L59.95 -115.65 61.15 -114.45 65.05 -110.2 20.85 -110.45 17.85 -110.25 -15.4 -109.85 -17.9 -114.25 -17.9 -114.35 -17.6 -114.45 -16.75 -114.7 -16.35 -114.9 -16.05 -115.1 -15.05 -115.35 Q-11.85 -116.4 -9.0 -118.0 L-8.85 -118.25 -8.8 -118.25 -8.75 -118.6 -8.55 -118.95 -8.4 -119.45 -8.5 -120.65 -8.65 -122.1 -9.75 -130.8 -9.2 -131.5 -4.8 -130.45 -2.75 -130.6 -2.2 -131.1 Q-0.6 -131.3 1.3 -133.55 L1.4 -134.3 1.45 -135.8 1.85 -137.35 2.35 -141.0 3.35 -141.35 4.85 -141.4 5.2 -141.4 8.45 -141.95 8.6 -141.9 11.2 -140.3 Q13.8 -138.25 16.25 -137.8 L16.5 -137.75 17.8 -137.7 18.3 -137.5 18.7 -137.6 Q19.8 -137.45 21.35 -138.7 L23.7 -140.7 24.4 -140.75 27.35 -139.3 28.45 -139.2 31.85 -139.35 33.45 -137.95 34.45 -137.05 M16.85 -103.95 L19.85 -103.95 Q45.3 -104.1 70.75 -103.75 L71.5 -101.3 70.75 -100.35 69.95 -99.35 Q69.55 -97.65 69.65 -95.85 L69.45 -92.7 69.95 -91.35 70.6 -89.4 70.85 -89.0 71.1 -88.6 71.45 -87.4 69.95 -85.8 Q67.4 -85.95 64.9 -86.7 L64.25 -86.95 63.55 -87.25 Q61.2 -88.3 59.6 -87.5 L58.75 -86.85 Q57.1 -85.75 55.75 -83.75 L55.45 -82.0 55.3 -81.45 52.1 -79.4 51.4 -79.05 50.75 -79.05 50.35 -78.9 50.3 -78.85 50.15 -78.75 48.85 -79.0 48.45 -79.1 Q43.45 -82.15 38.2 -80.8 L37.4 -80.05 35.2 -77.95 34.95 -76.5 35.0 -74.0 34.65 -73.6 34.55 -73.3 34.45 -73.1 32.95 -71.6 25.9 -71.25 25.55 -70.9 24.4 -69.65 24.3 -69.55 Q23.6 -68.15 23.7 -65.85 L24.2 -64.95 24.95 -63.65 24.5 -62.8 24.25 -59.7 24.55 -59.0 25.05 -57.7 25.8 -57.15 30.75 -53.8 30.8 -53.5 31.0 -53.2 31.35 -52.65 31.6 -50.3 31.3 -49.65 30.7 -48.5 30.4 -48.1 29.8 -47.55 29.65 -47.25 29.45 -46.85 29.0 -46.3 26.95 -43.75 26.7 -43.05 26.25 -41.8 26.1 -41.05 26.25 -40.75 26.85 -39.55 28.15 -38.9 Q32.45 -36.9 34.85 -33.3 L34.95 -29.85 35.05 -29.5 35.2 -29.2 35.15 -28.55 34.85 -28.15 34.55 -27.5 Q32.75 -26.05 31.35 -24.2 L31.05 -23.6 30.45 -22.4 Q30.55 -20.75 30.8 -19.15 L31.5 -18.1 32.7 -16.25 Q35.35 -14.75 38.05 -13.35 38.35 -11.3 38.15 -10.1 L38.6 -5.9 38.8 -5.6 39.1 -5.05 41.6 -3.3 41.35 -2.45 41.3 -2.05 40.8 -0.45 Q38.05 0.1 35.95 1.65 L35.05 3.3 Q34.25 5.0 33.75 6.9 L33.75 7.15 33.95 7.45 34.05 7.7 34.2 8.15 34.15 8.9 33.9 9.95 33.95 10.4 34.2 11.1 34.3 11.45 Q34.85 13.05 34.75 14.55 L32.7 15.3 29.35 12.45 27.9 11.5 Q27.15 11.1 26.35 11.05 L25.95 11.1 23.5 11.8 21.5 12.9 16.25 12.4 16.2 12.5 15.45 12.85 15.05 13.2 11.95 15.8 11.25 16.0 5.5 15.55 3.25 14.95 3.1 14.75 Q2.75 14.4 2.35 14.3 L-1.75 13.35 -2.95 13.3 -7.15 12.3 -7.85 12.25 -13.75 13.3 -14.25 13.0 -15.3 12.35 -16.25 11.7 -17.55 10.75 -21.65 10.85 -21.95 10.8 -24.75 10.65 -32.6 11.1 -32.95 10.4 -33.7 9.35 -33.2 7.7 Q-32.7 5.95 -32.6 4.15 L-33.15 1.55 Q-33.35 0.45 -34.2 -0.45 L-37.9 -4.7 -38.35 -5.45 -36.1 -6.1 -34.1 -6.55 -33.75 -6.75 -31.75 -8.4 -31.25 -9.4 -31.2 -10.2 -31.2 -10.4 Q-31.15 -14.65 -33.8 -18.05 L-33.8 -18.15 -34.1 -18.7 -34.65 -19.35 -34.75 -20.1 -35.05 -21.1 -33.5 -23.25 -27.25 -23.3 -26.55 -23.3 -26.25 -23.4 -25.7 -23.7 -25.55 -23.9 -25.4 -24.05 Q-25.25 -24.1 -24.9 -25.3 L-24.95 -25.95 -25.4 -27.55 -25.45 -28.6 -25.85 -30.75 -26.0 -31.2 -26.3 -31.55 -26.5 -31.9 -26.55 -32.65 -26.55 -32.75 -26.4 -33.8 -26.15 -34.3 -26.1 -34.75 -26.0 -35.15 -25.15 -36.35 Q-21.55 -37.65 -18.45 -39.7 L-18.05 -40.65 -17.75 -42.5 -17.95 -43.45 Q-18.95 -47.2 -22.15 -50.15 L-22.15 -51.25 -21.85 -51.85 -21.6 -52.4 -21.2 -52.75 -18.95 -54.6 -18.75 -54.85 -18.6 -55.0 -18.3 -55.2 Q-15.9 -56.7 -13.65 -58.35 L-13.6 -58.45 -13.55 -58.65 -13.5 -58.8 -13.45 -58.95 Q-12.85 -59.3 -12.4 -59.75 -11.6 -60.65 -11.35 -61.6 -11.7 -63.35 -14.45 -64.7 L-19.4 -67.85 -21.4 -69.1 Q-21.6 -70.6 -21.2 -71.95 L-21.15 -71.95 Q-16.1 -74.8 -11.25 -78.0 L-10.9 -78.55 -10.25 -79.75 -10.3 -80.0 -10.25 -80.35 -10.35 -80.75 -10.75 -81.7 -13.25 -84.25 -13.4 -84.55 -13.85 -85.1 -14.5 -85.7 -14.45 -86.25 -14.55 -86.55 -14.7 -86.85 -14.85 -87.95 -14.75 -88.25 -14.6 -88.8 -10.1 -93.4 -9.5 -94.75 -8.4 -98.2 -8.45 -98.95 -8.65 -100.4 -9.65 -101.7 -11.5 -103.85 -11.55 -103.95 Q2.65 -103.8 16.85 -103.95 M34.45 -125.35 L34.55 -125.35 34.7 -125.25 34.65 -125.2 34.6 -125.3 34.55 -125.3 34.45 -125.35" fill="#ffff00" fill-opacity="0.5019608" fill-rule="evenodd" stroke="none"/>
  </g>
</svg>
