<?xml version="1.0" encoding="UTF-8" standalone="no"?>
<svg xmlns:ffdec="https://www.free-decompiler.com/flash" xmlns:xlink="http://www.w3.org/1999/xlink" ffdec:objectType="shape" height="131.5px" width="86.1px" xmlns="http://www.w3.org/2000/svg">
  <g transform="matrix(1.0, 0.0, 0.0, 1.0, 25.75, 128.45)">
    <path d="M16.1 -105.15 Q23.25 -102.55 30.95 -101.85 L51.95 -100.9 Q54.1 -104.3 58.45 -102.15 61.3 -100.8 59.9 -98.15 58.55 -95.6 55.55 -95.6 43.6 -95.45 31.65 -95.7 30.4 -92.6 26.05 -91.8 L19.3 -90.25 Q14.65 -89.0 9.9 -88.45 L7.85 -68.65 Q7.25 -62.55 5.8 -56.55 6.7 -55.85 6.8 -54.3 L6.75 -54.0 Q10.7 -47.9 13.8 -41.25 L14.05 -40.35 Q15.95 -35.95 17.15 -31.35 18.55 -29.75 18.1 -26.9 17.15 -20.7 17.55 -14.3 17.9 -8.9 17.55 -3.5 23.35 -3.35 28.95 -1.95 30.35 -1.6 30.15 -0.15 29.55 3.8 25.05 2.9 L19.4 2.25 Q15.85 2.15 12.8 0.8 11.6 0.3 11.8 -1.05 11.95 -2.05 12.45 -2.6 12.3 -3.15 12.3 -3.8 L12.0 -16.5 Q11.9 -22.7 12.8 -28.7 L12.15 -29.9 7.5 -41.95 Q5.2 -45.15 3.65 -48.55 1.25 -40.05 -0.8 -31.35 -2.1 -25.55 -6.15 -21.05 -12.6 -13.75 -18.5 -6.25 L-9.15 -5.6 Q-7.45 -5.45 -7.3 -3.8 -7.05 -1.15 -9.75 -0.8 -17.3 0.2 -24.4 -1.85 -25.8 -2.25 -25.75 -3.7 -25.55 -7.4 -22.5 -10.05 -18.15 -15.95 -13.0 -21.35 -7.95 -26.55 -5.95 -33.25 -4.25 -39.05 -3.05 -44.9 -2.1 -49.6 -0.1 -53.85 L-0.05 -54.2 Q2.35 -65.4 3.15 -77.0 3.5 -82.65 4.25 -88.05 L-1.7 -88.2 Q-4.8 -88.4 -4.15 -91.55 -3.4 -94.9 -1.3 -97.75 0.85 -100.65 3.35 -103.2 5.3 -105.15 7.6 -106.3 L8.3 -107.3 Q8.65 -107.65 9.15 -107.75 L9.2 -107.9 Q9.9 -109.45 11.4 -109.55 14.45 -108.5 13.95 -105.95 L16.1 -105.15 M5.8 -95.4 L6.1 -97.65 Q4.3 -95.7 2.85 -93.4 L5.05 -93.4 5.15 -94.1 Q5.25 -94.85 5.8 -95.4 M23.0 -96.9 Q17.5 -98.4 12.25 -100.5 L10.9 -93.9 Q16.9 -94.75 23.0 -96.9" fill="#000000" fill-rule="evenodd" stroke="none"/>
    <path d="M8.3 -107.3 L8.0 -107.45 6.75 -108.5 Q3.35 -111.9 3.35 -116.75 3.35 -121.6 6.75 -125.05 10.2 -128.45 15.05 -128.45 19.9 -128.45 23.3 -125.05 26.7 -121.6 26.7 -116.75 26.7 -111.9 23.3 -108.5 20.25 -105.45 16.1 -105.15 L13.95 -105.95 Q14.45 -108.5 11.4 -109.55 9.9 -109.45 9.2 -107.9 L9.15 -107.75 Q8.65 -107.65 8.3 -107.3" fill="#0c0c0c" fill-rule="evenodd" stroke="none"/>
  </g>
</svg>
