<?xml version="1.0" encoding="UTF-8" standalone="no"?>
<svg xmlns:ffdec="https://www.free-decompiler.com/flash" xmlns:xlink="http://www.w3.org/1999/xlink" ffdec:objectType="shape" height="160.5px" width="110.45px" xmlns="http://www.w3.org/2000/svg">
  <g transform="matrix(1.0, 0.0, 0.0, 1.0, 39.35, 142.7)">
    <path d="M32.0 -136.5 Q32.15 -133.4 31.35 -130.55 L30.8 -129.8 30.85 -129.0 31.2 -126.75 31.75 -126.3 32.0 -126.1 32.25 -126.15 32.6 -126.2 32.7 -126.3 32.75 -126.35 32.85 -126.6 32.75 -126.95 32.7 -127.2 32.9 -127.25 33.35 -127.3 33.85 -127.45 34.25 -127.55 35.6 -127.8 36.6 -128.1 37.15 -128.4 37.45 -128.6 37.55 -128.6 38.0 -128.95 38.6 -129.4 Q40.85 -130.8 42.55 -131.45 L42.55 -131.25 42.6 -130.35 42.2 -129.75 Q42.6 -128.15 41.6 -127.25 L41.15 -126.65 41.15 -126.45 41.1 -125.7 40.95 -125.05 40.8 -122.75 43.2 -121.05 43.6 -120.8 Q47.15 -119.35 51.3 -119.3 L51.6 -119.35 Q50.6 -116.9 50.2 -113.9 50.6 -113.25 51.55 -113.3 L53.1 -113.4 55.0 -112.85 Q58.4 -111.85 61.7 -110.25 L66.1 -109.15 66.0 -108.25 Q64.45 -105.4 64.8 -101.85 L64.35 -100.7 64.0 -99.4 Q65.15 -97.35 66.75 -95.6 L66.9 -95.35 -9.65 -94.95 -9.35 -95.5 -9.3 -96.2 -9.4 -97.7 Q-9.8 -98.45 -10.55 -98.9 L-12.4 -100.95 -12.65 -101.25 -13.0 -101.8 -13.8 -102.7 Q-17.0 -106.55 -19.65 -110.7 L-19.75 -110.8 -19.35 -110.85 -18.55 -111.05 -18.1 -111.2 -17.75 -111.35 -16.75 -111.55 Q-13.4 -112.3 -10.4 -113.65 L-10.15 -113.8 -10.1 -113.8 -10.0 -114.15 -9.9 -114.55 -9.8 -115.1 -9.95 -116.3 -10.15 -117.7 -11.45 -126.45 -10.5 -126.85 -5.95 -126.7 Q-4.7 -126.7 -4.1 -127.6 L-3.7 -128.5 Q-2.5 -130.25 -1.5 -133.05 L-1.45 -133.85 -1.4 -135.35 -1.25 -136.9 Q-1.15 -138.7 -1.2 -140.6 L0.05 -140.3 1.55 -139.85 2.0 -139.65 5.45 -138.75 5.6 -138.7 8.35 -137.2 Q11.3 -135.7 14.1 -136.5 L14.3 -136.6 15.55 -137.55 16.0 -137.7 16.4 -138.1 18.65 -140.25 20.7 -142.6 Q21.1 -142.85 21.35 -142.45 L23.55 -139.25 24.65 -138.85 Q26.3 -138.3 28.05 -138.3 L30.35 -137.7 32.0 -137.6 32.0 -136.5 M70.3 -88.8 L70.55 -88.4 71.1 -87.35 Q70.0 -86.75 68.9 -86.4 66.35 -86.4 63.9 -87.1 L63.15 -87.3 62.45 -87.6 Q59.9 -88.4 58.45 -87.0 L57.9 -85.95 Q56.65 -84.35 55.75 -82.2 L55.45 -80.45 55.3 -79.9 51.05 -79.6 50.05 -79.8 49.3 -80.0 48.8 -80.0 48.7 -79.95 48.55 -79.95 47.25 -80.3 46.85 -80.45 Q41.65 -83.3 36.6 -81.35 L36.1 -80.2 34.65 -77.4 34.45 -75.9 34.5 -73.45 33.95 -73.3 33.55 -73.1 33.2 -73.05 30.75 -72.7 Q27.05 -73.65 23.75 -72.3 L23.55 -71.8 23.0 -70.05 23.05 -69.9 Q23.95 -67.9 25.2 -65.7 L25.95 -64.85 26.85 -63.7 26.2 -63.0 24.15 -60.0 24.3 -59.3 24.55 -57.9 25.35 -57.3 30.65 -54.5 30.9 -54.25 31.2 -54.0 31.8 -53.5 33.75 -51.45 33.55 -50.75 33.1 -49.5 32.9 -49.05 32.3 -48.5 32.15 -48.15 31.9 -47.75 31.45 -47.2 29.35 -44.65 28.95 -43.9 28.3 -42.8 27.85 -41.95 27.85 -41.65 28.25 -40.3 29.6 -39.75 Q34.1 -37.85 35.85 -33.8 35.1 -31.75 33.85 -30.2 L33.8 -29.8 33.85 -29.45 33.4 -28.85 33.05 -28.45 32.55 -27.85 Q30.85 -26.25 29.7 -24.2 L29.55 -23.5 29.25 -22.15 31.95 -19.2 33.0 -18.35 34.75 -16.9 40.25 -14.35 Q39.4 -12.2 37.8 -11.25 L35.55 -6.8 35.65 -6.45 35.8 -5.85 38.3 -3.95 38.95 -2.85 39.35 -2.35 41.05 0.05 Q38.35 0.55 36.2 1.85 35.45 2.5 34.85 3.25 33.55 4.65 32.65 6.5 L32.65 6.7 32.7 7.05 32.75 7.25 32.85 7.7 32.7 8.45 32.35 9.5 32.25 9.9 32.4 10.65 32.45 11.0 32.6 14.1 31.1 16.2 Q29.4 14.8 28.05 13.05 L26.65 12.05 Q25.9 11.6 25.05 11.45 L24.65 11.4 Q23.3 11.3 22.1 11.85 L20.0 12.9 Q17.25 13.4 14.65 14.3 L14.6 14.4 13.9 14.8 13.4 15.2 10.4 17.75 9.6 17.8 4.2 14.05 Q3.25 13.55 2.25 12.85 L2.05 12.6 Q1.65 12.2 1.25 12.2 L-3.05 12.3 -4.25 12.45 -8.7 12.65 -9.4 12.75 -15.2 14.35 -15.55 13.8 -16.25 12.7 -16.95 11.6 -17.9 10.05 Q-19.65 8.45 -21.95 9.15 L-22.3 9.1 -25.1 9.3 -32.9 10.2 -32.8 9.2 -32.95 7.8 -32.6 6.1 Q-32.35 4.3 -32.55 2.45 L-33.95 0.0 -35.25 -1.85 -39.1 -6.1 -39.35 -6.45 -36.9 -6.7 Q-35.85 -6.75 -34.9 -7.1 L-34.55 -7.3 -32.3 -8.8 -31.7 -9.7 -31.65 -10.5 -31.65 -10.7 Q-31.6 -14.95 -34.55 -18.15 L-34.55 -18.25 -34.85 -18.8 -35.25 -19.5 -35.4 -20.2 -35.7 -21.15 -35.5 -24.3 -29.25 -24.1 -28.55 -24.05 -28.2 -24.05 -27.5 -24.1 -27.1 -24.15 -26.65 -24.15 Q-25.9 -23.5 -24.9 -24.6 L-24.85 -25.35 -25.05 -26.9 -25.15 -27.95 -25.45 -30.15 -25.65 -30.55 -25.95 -30.9 -26.05 -31.25 -26.05 -31.95 -26.05 -32.05 -25.95 -33.15 -25.85 -33.75 -25.8 -34.2 -25.8 -34.65 -25.25 -36.1 Q-21.55 -37.25 -18.55 -39.45 -18.2 -40.1 -18.45 -40.6 L-19.4 -42.65 -19.9 -43.45 Q-21.95 -46.8 -25.35 -49.5 L-24.65 -50.5 -24.2 -51.05 -23.7 -51.55 -23.2 -51.85 -20.75 -53.35 -20.5 -53.6 -20.4 -53.7 -20.2 -53.95 -15.45 -56.9 -15.35 -57.0 -15.25 -57.15 -15.15 -57.3 -15.1 -57.4 -14.15 -58.25 Q-13.35 -59.1 -13.2 -60.2 -14.5 -61.6 -16.9 -62.9 L-21.85 -65.95 -23.85 -67.2 Q-23.1 -68.85 -21.85 -70.05 L-21.8 -70.05 Q-16.75 -72.8 -11.95 -76.05 L-11.5 -76.55 -10.6 -77.6 -10.5 -77.8 -10.25 -78.15 -10.3 -78.55 -10.55 -79.55 -13.1 -81.9 -13.3 -82.15 -13.8 -82.65 -14.45 -83.15 -14.7 -83.65 -15.0 -83.9 -15.2 -84.15 -16.25 -85.3 -16.3 -85.65 -16.35 -86.35 -13.8 -89.05 Q28.1 -88.95 70.05 -89.2 L70.3 -88.8" fill="#ffff00" fill-opacity="0.5019608" fill-rule="evenodd" stroke="none"/>
  </g>
</svg>
