<?xml version="1.0" encoding="UTF-8" standalone="no"?>
<svg xmlns:ffdec="https://www.free-decompiler.com/flash" xmlns:xlink="http://www.w3.org/1999/xlink" ffdec:objectType="shape" height="164.25px" width="111.0px" xmlns="http://www.w3.org/2000/svg">
  <g transform="matrix(1.0, 0.0, 0.0, 1.0, 40.3, 144.55)">
    <path d="M34.0 -72.9 L32.5 -72.95 Q30.4 -73.1 28.45 -73.8 24.8 -75.1 21.6 -73.4 L21.6 -72.7 21.6 -70.45 Q25.15 -66.75 28.8 -63.75 L24.05 -60.3 24.05 -59.55 24.05 -58.05 24.9 -57.5 Q30.6 -55.45 35.85 -52.6 L35.75 -51.9 35.35 -50.0 29.55 -42.9 29.5 -42.55 29.65 -41.05 Q35.6 -39.45 36.85 -34.25 35.1 -32.05 32.75 -30.5 L32.55 -30.1 32.5 -29.75 Q29.4 -27.65 28.05 -24.2 L28.05 -23.45 28.05 -21.95 Q34.85 -18.0 42.4 -15.4 40.45 -13.1 37.45 -12.4 L32.5 -7.7 32.5 -7.3 32.5 -6.6 41.3 0.5 Q35.0 1.55 31.5 6.05 L31.5 6.8 Q31.45 8.3 30.5 9.4 L30.55 10.55 Q30.9 14.1 29.55 17.1 27.9 15.65 26.8 13.65 25.5 12.35 23.8 11.8 L20.7 11.9 Q14.1 14.75 8.8 19.7 L7.95 19.6 Q4.85 14.7 1.0 10.4 0.55 10.0 0.1 10.1 -8.45 12.15 -16.6 15.35 L-16.85 14.6 -18.2 9.4 Q-19.75 6.95 -22.65 7.45 L-33.2 9.3 -32.65 8.05 Q-31.55 4.45 -32.5 0.75 L-40.3 -7.45 Q-35.25 -6.6 -32.1 -10.05 L-32.05 -10.8 Q-31.9 -15.2 -35.35 -18.25 L-35.55 -18.95 Q-36.9 -22.1 -37.45 -25.3 -32.5 -25.4 -27.9 -24.2 -26.5 -22.95 -24.9 -23.95 L-24.7 -24.7 Q-24.65 -27.15 -25.05 -29.5 L-25.3 -29.9 -25.55 -30.25 -25.55 -31.4 -25.4 -35.85 Q-21.6 -36.85 -18.7 -39.2 -18.4 -39.95 -18.9 -40.5 -23.2 -45.2 -28.5 -48.85 -25.95 -50.85 -22.55 -52.1 L-22.3 -52.35 -22.05 -52.7 -17.1 -55.55 -16.85 -55.8 Q-15.2 -56.9 -15.1 -58.8 -20.8 -61.75 -26.3 -65.35 -24.6 -67.05 -22.45 -68.15 -16.1 -71.5 -10.3 -75.9 L-10.2 -76.3 -10.15 -76.6 6.45 -76.3 34.05 -76.05 34.0 -72.9 M20.85 -138.55 Q24.7 -136.2 29.55 -138.15 L29.55 -137.05 Q29.8 -133.9 28.8 -131.1 L28.05 -130.35 28.1 -129.6 28.65 -127.35 29.8 -126.75 30.65 -127.1 30.85 -127.5 Q31.1 -128.2 31.0 -129.0 L37.1 -132.55 Q40.5 -134.4 42.65 -134.8 L42.55 -134.45 42.3 -132.95 41.45 -131.85 Q41.3 -128.7 38.45 -127.0 L38.35 -126.3 37.45 -123.25 Q42.4 -120.35 48.4 -119.7 45.45 -116.0 43.4 -111.85 43.65 -110.95 44.65 -111.05 54.45 -111.85 62.4 -110.25 62.35 -109.65 61.9 -109.25 57.4 -105.05 58.05 -99.45 60.75 -97.05 63.9 -95.35 67.65 -91.65 70.7 -87.3 66.25 -86.35 62.05 -87.7 58.75 -88.75 57.3 -86.55 57.4 -85.8 57.1 -85.1 L56.0 -81.9 44.65 -82.05 Q40.0 -84.15 35.75 -82.2 L5.05 -82.6 -17.95 -83.5 -18.1 -83.85 -10.3 -92.75 -10.2 -93.5 -10.15 -95.0 Q-10.6 -95.75 -11.4 -96.1 -16.95 -101.35 -21.55 -107.3 -16.25 -107.85 -11.4 -109.4 -11.0 -110.65 -11.35 -111.95 -12.6 -116.9 -13.15 -122.05 L-7.05 -122.95 Q-5.85 -123.2 -5.5 -124.55 -3.55 -132.15 -4.7 -140.15 L2.6 -135.5 Q7.55 -132.3 11.9 -135.2 L12.1 -135.5 13.3 -137.4 13.75 -137.85 17.75 -144.5 Q18.15 -144.75 18.35 -144.15 L19.75 -139.25 20.85 -138.55" fill="#ffff00" fill-opacity="0.5019608" fill-rule="evenodd" stroke="none"/>
  </g>
</svg>
