<?xml version="1.0" encoding="UTF-8" standalone="no"?>
<svg xmlns:ffdec="https://www.free-decompiler.com/flash" xmlns:xlink="http://www.w3.org/1999/xlink" ffdec:objectType="shape" height="130.7px" width="76.95px" xmlns="http://www.w3.org/2000/svg">
  <g transform="matrix(1.0, 0.0, 0.0, 1.0, 24.3, 128.45)">
    <path d="M15.6 -128.45 Q20.45 -128.45 23.85 -125.05 27.25 -121.6 27.25 -116.75 27.25 -111.9 23.85 -108.5 21.0 -105.65 17.15 -105.15 19.2 -103.85 21.05 -102.0 L32.0 -103.35 Q34.15 -103.5 34.4 -101.5 35.0 -97.3 30.75 -96.3 28.1 -95.7 26.1 -97.3 L25.4 -97.1 28.2 -93.8 42.45 -94.25 Q44.1 -99.05 50.05 -97.55 54.0 -96.55 51.95 -92.9 50.45 -90.3 47.3 -89.5 37.1 -87.05 26.35 -88.75 24.1 -89.15 22.8 -91.0 L18.9 -95.7 11.6 -94.8 11.45 -94.45 Q10.45 -82.7 8.15 -71.3 L5.65 -58.35 Q8.2 -57.0 8.9 -53.65 9.25 -52.0 10.15 -50.45 12.7 -46.15 14.85 -41.6 19.1 -34.3 18.1 -25.45 17.8 -22.8 17.8 -20.1 L17.8 -4.1 26.45 -2.15 Q27.0 -2.05 27.2 -1.45 28.05 1.55 24.8 2.05 L18.05 1.8 14.65 0.9 Q11.9 0.05 12.1 -3.05 L12.65 -15.35 Q12.85 -25.1 11.7 -34.6 11.6 -35.75 11.0 -36.8 L4.1 -50.3 3.5 -47.15 Q2.9 -44.0 1.85 -41.0 L-3.2 -26.0 Q-3.9 -23.9 -5.2 -22.05 -11.1 -13.65 -17.8 -5.8 -13.6 -4.45 -8.65 -4.7 -7.4 -4.75 -7.05 -3.55 -5.95 0.8 -10.55 0.4 L-17.9 -0.05 Q-23.05 -0.25 -24.25 -4.4 -24.45 -5.1 -24.05 -5.85 -21.9 -10.1 -18.75 -13.95 L-12.35 -21.35 Q-8.15 -26.6 -6.3 -32.95 -3.6 -42.15 -1.15 -51.45 -0.5 -53.7 -0.15 -56.1 L2.9 -77.0 Q3.1 -78.45 4.1 -79.5 L5.95 -94.55 -1.65 -94.9 Q-2.25 -94.95 -2.45 -95.6 -3.65 -99.45 0.25 -101.8 L3.05 -103.8 Q5.65 -106.0 8.35 -107.55 L7.3 -108.5 Q3.9 -111.9 3.9 -116.75 3.9 -121.6 7.3 -125.05 10.75 -128.45 15.6 -128.45 M7.15 -99.8 L7.3 -99.8 7.35 -99.9 7.15 -99.8" fill="#0c0c0c" fill-rule="evenodd" stroke="none"/>
  </g>
</svg>
