<?xml version="1.0" encoding="UTF-8" standalone="no"?>
<svg xmlns:ffdec="https://www.free-decompiler.com/flash" xmlns:xlink="http://www.w3.org/1999/xlink" ffdec:objectType="shape" height="159.1px" width="110.15px" xmlns="http://www.w3.org/2000/svg">
  <g transform="matrix(1.0, 0.0, 0.0, 1.0, 40.65, 140.0)">
    <path d="M29.7 -136.15 L29.55 -134.65 29.95 -133.65 31.2 -131.55 31.2 -131.1 32.3 -129.55 33.1 -128.7 32.95 -127.95 32.85 -127.65 32.55 -126.85 32.55 -126.45 Q32.5 -125.9 32.6 -125.35 L33.1 -124.5 33.85 -124.1 33.8 -124.1 33.8 -124.05 34.15 -123.85 35.5 -123.25 36.55 -123.2 37.4 -123.55 37.8 -123.9 38.5 -125.0 42.35 -127.2 43.35 -126.8 43.55 -126.7 43.9 -126.5 44.1 -126.5 46.2 -125.75 Q47.45 -125.15 48.95 -125.05 L49.2 -124.8 49.9 -123.95 50.1 -123.45 50.5 -123.1 51.6 -121.85 52.0 -121.6 53.25 -120.45 56.75 -120.0 56.95 -119.7 Q58.6 -117.0 60.55 -114.8 L59.6 -111.8 61.3 -108.55 Q61.85 -108.0 62.8 -107.95 L67.1 -107.4 67.4 -106.25 Q67.2 -106.25 67.7 -105.35 67.65 -105.2 68.1 -104.5 L68.05 -104.05 69.15 -102.35 69.4 -102.15 69.5 -101.0 69.35 -100.65 69.25 -100.4 69.1 -100.05 Q68.95 -98.25 69.45 -96.55 L69.45 -95.4 67.05 -93.75 66.25 -92.6 65.45 -91.55 65.25 -89.7 Q65.75 -88.4 65.6 -87.3 L64.85 -86.95 64.3 -86.35 63.7 -85.9 Q61.75 -84.1 59.45 -83.35 L58.35 -82.85 Q56.5 -83.8 55.3 -83.75 L54.85 -83.7 54.7 -83.7 Q52.85 -83.85 51.0 -81.85 L50.75 -80.95 47.35 -78.8 45.75 -77.75 45.25 -77.35 44.85 -77.3 44.7 -77.3 41.65 -77.85 38.45 -78.45 33.5 -78.25 32.65 -77.4 31.5 -76.2 Q31.35 -73.25 32.35 -70.55 L32.3 -70.4 31.9 -69.8 31.5 -69.2 29.35 -68.3 Q26.6 -67.45 23.9 -65.4 L23.5 -65.05 23.35 -64.75 23.35 -64.35 Q23.3 -63.15 23.4 -62.0 L23.45 -61.9 Q25.95 -59.25 28.95 -57.6 L30.35 -56.2 26.8 -56.3 -2.6 -57.65 -18.75 -58.2 -18.75 -58.3 -18.4 -62.0 -18.5 -62.3 Q-18.35 -63.25 -18.6 -64.4 L-18.55 -65.3 -18.9 -66.05 Q-18.35 -68.0 -18.05 -71.1 L-14.7 -73.3 -14.05 -73.8 -13.6 -74.4 Q-12.0 -78.2 -12.05 -81.6 L-11.9 -81.9 -11.75 -82.2 -11.5 -84.2 -11.45 -84.25 -11.25 -84.75 -11.15 -85.5 -11.05 -86.0 -11.0 -87.75 -11.1 -91.65 -11.0 -92.0 -10.85 -92.65 -8.7 -94.75 -8.6 -95.0 -8.25 -95.95 Q-8.2 -96.95 -8.45 -97.45 L-8.65 -100.45 -8.7 -101.1 -8.9 -101.85 -9.0 -102.6 -8.8 -103.15 -8.8 -104.3 -8.65 -106.15 -8.8 -106.5 -9.4 -108.05 -10.3 -109.05 -10.7 -109.95 -14.1 -113.55 -16.55 -116.3 -16.35 -116.8 -9.1 -117.25 Q-8.0 -117.3 -7.15 -117.8 -6.85 -118.25 -6.7 -118.85 L-6.7 -119.2 -6.85 -120.3 -8.15 -130.6 -5.65 -133.95 -5.05 -133.8 -3.2 -133.85 Q0.15 -135.15 3.3 -137.5 L4.0 -137.85 4.85 -139.45 8.3 -139.75 Q10.15 -140.2 12.05 -139.75 L12.95 -139.55 13.45 -138.8 16.3 -137.1 16.55 -136.9 17.05 -136.45 19.65 -135.85 19.8 -135.85 19.85 -135.8 19.9 -135.8 20.0 -135.7 20.55 -135.75 21.35 -136.05 22.05 -136.2 Q24.95 -137.55 28.25 -139.45 L29.0 -139.3 29.25 -139.1 29.3 -138.7 29.7 -136.15 M33.0 -41.75 L33.75 -40.45 34.45 -38.2 34.7 -35.85 33.95 -34.85 33.75 -34.25 33.7 -33.9 33.7 -33.75 33.25 -32.55 33.4 -31.75 33.75 -30.95 33.75 -30.0 Q34.6 -27.65 34.95 -24.75 L35.35 -24.4 36.15 -22.1 36.3 -21.9 36.3 -21.8 36.4 -21.75 Q37.05 -20.65 37.5 -17.7 L37.45 -17.6 37.25 -16.9 36.8 -15.45 37.0 -14.0 Q36.8 -11.1 38.9 -7.45 L41.9 -5.05 Q41.85 -2.75 41.15 -1.05 L41.15 -0.8 41.0 0.25 Q38.45 0.8 36.35 2.2 L36.15 2.45 35.8 3.0 Q35.65 4.05 35.8 5.7 L35.95 6.0 36.1 6.35 36.15 7.7 36.45 8.6 Q36.5 9.7 37.0 11.05 L36.95 11.35 35.4 12.5 34.65 12.55 29.55 12.0 27.9 11.8 27.65 11.9 26.85 12.0 26.15 12.35 25.75 12.6 25.25 13.4 21.95 18.85 19.6 19.1 19.1 18.75 19.05 18.75 Q18.0 17.25 16.7 16.2 15.5 15.25 14.35 14.85 10.75 13.65 7.1 13.1 6.05 12.9 4.7 13.75 L3.15 14.8 2.35 14.95 Q-1.85 13.95 -6.25 13.4 L-7.15 13.55 -7.7 13.8 -11.25 11.7 Q-14.5 10.55 -18.5 12.15 L-22.15 13.4 -22.65 13.15 -23.75 12.45 Q-23.45 10.75 -23.55 8.9 -23.95 7.25 -24.85 6.15 -25.1 5.8 -25.55 5.75 L-26.4 5.6 Q-30.8 5.1 -34.65 4.0 L-34.55 3.95 -33.6 3.1 -31.5 0.25 -32.65 -3.05 Q-36.25 -7.55 -40.35 -11.6 L-40.65 -11.9 Q-35.75 -11.6 -31.85 -13.6 L-31.35 -14.05 Q-30.1 -15.45 -29.4 -16.7 -29.7 -18.5 -30.55 -20.15 L-30.7 -20.85 -31.0 -22.0 Q-32.45 -24.5 -33.4 -27.05 L-32.45 -28.7 -26.45 -28.85 Q-24.9 -28.55 -23.35 -29.45 L-22.85 -30.05 -22.4 -30.85 Q-22.15 -32.9 -23.05 -34.55 L-23.05 -34.65 -23.15 -35.05 -23.3 -35.4 -23.5 -36.35 -23.6 -36.5 -24.1 -37.3 -25.0 -40.75 -24.25 -42.75 Q-22.8 -43.05 -21.7 -43.95 L-20.35 -44.5 Q-19.85 -44.9 -19.8 -45.3 -19.5 -46.45 -19.35 -47.95 L-19.5 -48.55 Q-19.1 -49.8 -18.95 -51.2 -10.9 -50.9 -2.65 -51.0 L6.25 -50.55 27.2 -49.4 27.25 -49.1 27.5 -47.2 27.7 -46.9 27.9 -46.65 28.45 -45.0 28.65 -44.7 29.25 -43.9 32.65 -42.25 33.0 -41.75" fill="#ffff00" fill-opacity="0.5019608" fill-rule="evenodd" stroke="none"/>
  </g>
</svg>
