<?xml version="1.0" encoding="UTF-8" standalone="no"?>
<svg xmlns:ffdec="https://www.free-decompiler.com/flash" xmlns:xlink="http://www.w3.org/1999/xlink" ffdec:objectType="shape" height="130.55px" width="69.05px" xmlns="http://www.w3.org/2000/svg">
  <g transform="matrix(1.0, 0.0, 0.0, 1.0, 25.2, 128.45)">
    <path d="M8.5 -107.25 L8.0 -107.45 6.75 -108.5 Q3.35 -111.9 3.35 -116.75 3.35 -121.6 6.75 -125.05 10.2 -128.45 15.05 -128.45 19.9 -128.45 23.3 -125.05 26.7 -121.6 26.7 -116.75 26.7 -111.9 23.3 -108.5 20.4 -105.6 16.5 -105.15 15.55 -105.85 14.35 -106.15 L13.75 -106.05 Q13.95 -108.8 10.95 -109.95 L9.75 -109.55 Q9.0 -109.15 8.8 -108.4 L8.5 -107.25" fill="#0c0c0c" fill-rule="evenodd" stroke="none"/>
    <path d="M16.5 -105.15 Q17.85 -104.2 18.7 -102.45 L19.9 -102.7 36.05 -105.05 Q38.8 -105.35 41.5 -104.45 44.1 -103.65 43.45 -100.8 43.05 -99.1 42.15 -98.35 43.25 -98.0 43.6 -96.75 44.95 -91.25 39.0 -89.3 30.75 -86.6 22.15 -86.1 21.15 -86.05 20.7 -87.05 L19.3 -90.1 Q18.45 -91.1 18.15 -92.35 L17.95 -93.3 Q16.2 -95.2 14.85 -97.35 L12.05 -97.2 Q10.8 -86.5 9.1 -75.75 8.65 -72.95 7.7 -70.35 7.0 -66.15 5.45 -62.35 7.3 -60.95 8.3 -58.45 11.75 -49.8 14.65 -41.05 18.5 -29.25 17.75 -16.25 17.4 -10.7 17.75 -5.15 22.35 -4.35 26.7 -2.7 27.75 -2.25 27.8 -1.05 27.85 2.75 24.05 1.95 L13.6 -0.55 Q12.65 -0.75 12.4 -1.75 12.15 -2.85 12.3 -3.6 12.05 -5.1 12.1 -6.65 12.6 -19.4 11.0 -31.65 L10.45 -36.75 8.5 -40.6 Q8.25 -41.05 8.35 -41.5 L4.45 -52.5 3.3 -55.2 2.85 -53.4 Q1.75 -47.45 0.8 -41.35 0.15 -37.15 -0.95 -33.0 -1.3 -31.7 -2.0 -30.55 -2.05 -29.25 -3.0 -27.6 -6.45 -21.6 -10.75 -16.0 L-14.2 -11.25 -18.5 -5.45 -9.45 -4.55 Q-8.55 -4.5 -8.25 -3.6 -7.35 -0.6 -10.6 0.0 -16.25 1.05 -21.55 -0.75 -23.5 -1.4 -23.95 -2.4 -24.75 -2.75 -25.05 -4.0 -25.75 -7.35 -22.95 -9.75 -18.6 -13.55 -15.75 -18.3 L-10.0 -26.8 Q-8.45 -28.85 -7.3 -31.05 -7.65 -32.1 -7.15 -33.5 -4.95 -39.3 -4.0 -45.45 L-3.1 -51.15 Q-2.3 -56.2 -0.85 -61.05 L-0.7 -61.45 -0.45 -62.65 3.15 -73.65 Q5.55 -85.2 6.6 -97.1 L6.75 -98.45 Q6.0 -101.0 6.75 -103.7 7.05 -105.0 7.85 -106.15 L8.35 -106.7 8.5 -107.25 8.8 -108.4 Q9.0 -109.15 9.75 -109.55 L10.95 -109.95 Q13.95 -108.8 13.75 -106.05 L14.35 -106.15 Q15.55 -105.85 16.5 -105.15 M24.8 -91.7 Q30.45 -92.55 35.9 -94.45 36.0 -97.65 38.0 -98.5 L37.65 -98.65 Q37.2 -98.85 36.85 -99.2 L21.5 -97.75 Q23.5 -94.9 24.8 -91.7" fill="#000000" fill-rule="evenodd" stroke="none"/>
  </g>
</svg>
