<?xml version="1.0" encoding="UTF-8" standalone="no"?>
<svg xmlns:ffdec="https://www.free-decompiler.com/flash" xmlns:xlink="http://www.w3.org/1999/xlink" ffdec:objectType="shape" height="163.45px" width="117.0px" xmlns="http://www.w3.org/2000/svg">
  <g transform="matrix(1.0, 0.0, 0.0, 1.0, 40.85, 141.9)">
    <path d="M34.35 -136.9 L34.6 -136.8 34.65 -136.45 34.8 -133.9 34.45 -132.4 34.45 -131.2 34.95 -128.6 34.6 -128.0 Q35.25 -126.45 34.65 -125.55 L34.85 -123.95 34.65 -123.25 34.45 -122.95 34.05 -122.15 34.0 -121.75 34.1 -120.65 34.9 -119.95 Q35.9 -120.0 36.4 -120.6 L36.5 -120.8 36.65 -120.9 37.2 -121.0 38.9 -121.2 39.95 -121.4 40.75 -121.8 41.25 -122.15 42.25 -123.05 46.2 -125.25 47.1 -124.3 47.2 -124.05 47.35 -123.6 47.6 -123.45 49.45 -121.75 Q50.45 -120.5 52.05 -120.15 L52.5 -119.95 53.65 -119.5 54.45 -119.3 55.1 -119.2 58.2 -119.25 58.8 -119.25 61.1 -119.1 64.7 -119.25 64.8 -118.9 Q65.65 -115.5 66.65 -112.4 L66.2 -109.15 70.25 -106.9 Q70.95 -106.5 71.85 -106.4 L76.15 -105.5 74.75 -103.7 Q73.6 -103.8 73.6 -102.5 72.95 -102.25 73.05 -101.3 L72.45 -100.7 Q72.35 -99.55 72.65 -98.4 L72.85 -98.15 73.25 -96.9 73.25 -96.6 73.2 -96.25 73.1 -95.9 Q73.75 -94.05 74.85 -92.5 L75.05 -91.35 71.5 -90.95 67.4 -91.25 64.5 -91.55 Q63.65 -91.05 63.25 -89.95 63.65 -88.45 63.0 -87.35 L62.35 -86.9 61.95 -86.0 61.45 -85.4 Q60.05 -82.85 58.1 -81.15 L57.15 -80.3 54.25 -82.4 53.65 -82.9 53.45 -83.05 48.75 -83.15 48.45 -82.2 Q47.0 -80.2 46.05 -78.3 L45.05 -76.05 44.75 -75.3 44.4 -75.15 44.3 -75.1 41.1 -75.45 Q39.35 -75.6 37.8 -76.1 L32.75 -76.45 31.55 -75.9 30.0 -75.05 Q30.05 -72.0 31.55 -69.4 L31.6 -69.2 31.55 -68.25 31.7 -67.3 29.8 -65.6 24.85 -61.3 24.4 -60.9 24.2 -60.6 24.2 -60.2 Q24.1 -59.0 24.3 -57.75 L24.35 -57.65 Q26.85 -54.95 30.1 -53.6 L32.25 -51.45 32.95 -50.15 32.25 -49.5 32.0 -48.85 Q31.15 -48.3 30.75 -47.5 L30.15 -47.05 29.65 -46.5 28.65 -45.4 28.45 -44.9 27.3 -42.65 27.4 -42.3 27.5 -42.0 27.45 -41.55 20.75 -41.85 -4.6 -43.2 -25.0 -44.55 -25.2 -45.7 Q-23.7 -45.8 -22.6 -46.8 L-21.15 -47.15 Q-20.6 -47.4 -20.3 -47.7 -19.05 -48.6 -18.1 -50.15 L-18.05 -50.85 Q-16.0 -52.45 -14.55 -54.65 L-14.75 -55.35 -14.75 -56.05 -16.75 -60.35 -16.9 -60.65 -17.15 -61.1 -19.1 -65.2 -19.3 -65.6 -20.35 -67.65 -20.3 -68.55 -20.35 -69.4 Q-16.9 -70.95 -13.9 -73.95 L-10.45 -76.1 -9.85 -76.6 -9.6 -77.3 Q-9.4 -81.8 -11.6 -85.45 L-11.5 -85.75 -11.45 -86.1 Q-12.0 -87.2 -12.1 -88.45 L-12.05 -88.45 -11.75 -89.0 -11.65 -89.85 -11.45 -90.3 Q-11.0 -91.4 -10.25 -92.05 L-7.8 -96.15 -7.6 -96.5 -7.2 -97.05 -5.0 -99.1 -4.95 -99.4 -4.75 -100.45 Q-5.0 -101.5 -5.75 -101.75 L-7.6 -104.55 -7.95 -105.25 -8.3 -106.05 -8.45 -106.75 -8.1 -107.2 -7.55 -108.4 -6.5 -110.35 -6.55 -110.75 -6.8 -112.45 -7.75 -113.5 -8.0 -114.5 -11.55 -118.15 -14.1 -120.85 -14.4 -121.55 -7.05 -121.45 Q-5.85 -121.45 -5.0 -122.05 L-4.45 -123.05 -4.5 -123.4 -4.6 -124.5 -5.65 -134.9 -4.7 -139.5 -4.1 -139.25 -2.05 -138.55 Q2.25 -137.5 7.15 -138.0 L8.2 -137.75 9.65 -139.1 Q11.4 -139.7 13.0 -140.65 14.9 -141.9 16.8 -141.85 L17.7 -141.85 18.05 -140.9 20.65 -138.75 20.75 -138.45 21.05 -137.65 23.5 -136.15 23.65 -136.05 23.7 -135.95 23.7 -135.85 23.75 -135.65 Q24.05 -135.45 24.4 -135.4 L25.4 -135.4 26.15 -135.35 Q29.65 -135.7 33.5 -136.9 L34.35 -136.9 M35.3 -33.9 L36.65 -31.65 35.95 -30.55 35.85 -29.9 35.8 -29.6 35.75 -29.5 35.05 -28.35 34.5 -27.35 34.5 -26.4 33.9 -25.35 34.0 -19.75 34.55 -19.45 Q36.25 -18.4 37.85 -17.95 L38.2 -17.85 38.15 -17.8 38.3 -17.75 Q40.8 -17.15 42.2 -14.45 L42.1 -14.35 41.8 -13.6 41.2 -12.25 40.55 -10.55 Q38.05 -7.4 38.95 -2.8 L41.65 0.1 Q42.45 2.5 42.75 4.7 L42.95 5.0 43.35 6.05 Q40.5 6.0 38.25 7.1 L37.95 7.35 37.4 7.75 Q36.5 8.8 35.9 10.6 L35.95 10.95 36.05 11.3 35.35 12.75 35.4 13.75 Q34.8 14.9 34.95 16.45 L34.8 16.8 33.4 18.25 32.65 18.25 Q30.3 16.75 27.7 15.95 L26.05 14.7 25.7 14.45 24.6 13.9 23.8 13.95 23.4 14.15 22.6 14.8 Q20.3 16.85 18.15 19.75 L15.85 21.55 15.2 21.25 13.15 18.35 11.15 16.35 Q8.0 13.5 4.5 11.3 L1.95 11.35 0.35 12.35 -0.45 12.65 -9.9 14.9 -10.8 15.3 -11.3 15.5 Q-13.25 13.75 -13.95 11.65 -17.0 9.45 -21.3 11.2 L-24.95 12.45 -25.55 12.4 -27.0 12.2 Q-26.35 10.5 -26.25 8.65 -26.3 6.95 -26.9 5.45 L-27.5 4.9 -28.3 4.65 Q-32.55 3.45 -36.35 1.5 L-35.2 1.25 -34.05 0.6 Q-32.5 -0.4 -31.25 -1.75 L-32.75 -4.95 Q-36.1 -9.6 -40.4 -13.7 L-40.85 -14.15 Q-36.0 -14.1 -31.7 -15.4 L-31.05 -15.65 Q-29.15 -16.55 -27.6 -17.4 -27.6 -19.3 -28.15 -21.15 L-28.25 -21.85 -28.5 -23.0 Q-30.2 -25.45 -31.35 -27.9 L-31.75 -30.5 -25.7 -31.2 Q-24.15 -31.35 -22.6 -32.2 L-21.95 -32.7 -21.25 -33.4 Q-20.9 -35.55 -22.05 -37.1 L-22.05 -37.2 -22.05 -37.6 -22.15 -38.0 -22.2 -38.25 -19.65 -38.05 10.2 -35.95 18.45 -35.25 34.25 -34.7 35.3 -33.9" fill="#ffff00" fill-opacity="0.5019608" fill-rule="evenodd" stroke="none"/>
  </g>
</svg>
