<?xml version="1.0" encoding="UTF-8" standalone="no"?>
<svg xmlns:ffdec="https://www.free-decompiler.com/flash" xmlns:xlink="http://www.w3.org/1999/xlink" ffdec:objectType="shape" height="169.15px" width="126.25px" xmlns="http://www.w3.org/2000/svg">
  <g transform="matrix(1.0, 0.0, 0.0, 1.0, 41.05, 145.1)">
    <path d="M38.6 -27.25 Q38.45 -26.7 37.95 -26.3 L37.85 -25.2 35.6 -22.95 35.25 -21.85 34.0 -20.7 Q33.25 -17.75 33.1 -14.75 36.45 -13.8 40.05 -13.75 44.55 -13.7 46.9 -11.15 45.65 -9.0 44.05 -7.1 39.3 -3.7 38.95 1.85 42.1 5.9 44.4 10.4 L45.65 11.9 Q39.3 10.45 36.0 15.5 L36.0 15.85 36.0 16.25 34.6 17.75 34.35 18.85 Q33.15 20.1 32.9 21.8 32.0 22.85 31.4 24.05 L30.65 23.95 Q28.55 21.65 25.8 19.85 24.6 17.5 22.4 15.8 21.9 15.45 21.5 15.55 15.5 17.75 12.05 23.95 L11.3 23.8 Q7.5 15.95 1.9 9.45 0.8 8.2 -0.8 9.0 -8.1 12.85 -14.85 17.25 -16.55 14.65 -16.6 11.65 -19.5 8.35 -24.1 10.25 -27.6 11.65 -30.25 11.9 -28.35 8.7 -28.9 4.8 -29.0 4.25 -29.4 4.05 -33.95 2.15 -38.05 -1.0 -34.1 -1.6 -31.0 -3.75 -34.75 -10.7 -41.05 -16.4 -33.2 -16.75 -25.8 -18.1 -25.45 -21.1 -26.05 -24.05 -16.9 -24.05 -7.7 -24.4 L2.45 -25.05 27.8 -26.5 38.6 -27.25 M85.2 -103.55 L82.1 -101.2 Q80.05 -101.3 79.5 -99.6 78.25 -99.35 78.0 -98.1 L76.8 -97.35 Q76.2 -95.9 76.15 -94.4 L77.15 -92.5 77.15 -92.15 77.15 -91.75 Q78.5 -89.9 80.25 -88.45 L80.6 -87.3 Q71.85 -88.55 63.5 -91.55 62.1 -91.25 61.25 -90.15 61.55 -88.05 59.8 -86.8 L59.65 -85.7 59.2 -84.9 Q58.2 -80.65 55.95 -77.75 L52.45 -82.05 Q49.9 -85.45 46.5 -84.45 44.4 -79.15 44.3 -73.3 L43.9 -72.9 40.55 -73.0 Q38.75 -73.1 37.15 -73.75 32.65 -75.55 28.55 -73.9 28.8 -70.6 30.9 -67.95 31.15 -66.6 31.9 -65.35 29.15 -61.05 25.8 -57.2 L25.05 -56.45 25.05 -56.05 Q24.95 -54.75 25.2 -53.45 27.75 -50.7 31.25 -49.6 32.95 -47.6 34.85 -46.0 L34.1 -45.25 34.0 -44.55 Q33.05 -44.0 32.75 -43.05 29.55 -40.95 27.05 -38.1 L27.05 -37.7 27.05 -37.35 Q26.4 -36.15 25.55 -35.1 L25.55 -34.75 Q25.5 -34.15 25.7 -33.6 L27.55 -32.75 20.35 -32.1 -6.1 -31.0 -30.0 -29.9 -31.1 -32.25 Q-24.95 -32.85 -20.1 -35.95 -19.6 -38.2 -21.05 -39.7 -20.9 -40.7 -21.45 -41.55 L-22.7 -42.3 -26.15 -48.6 Q-24.6 -48.55 -23.55 -49.6 -19.75 -49.85 -16.85 -52.35 L-16.6 -53.1 Q-13.05 -54.5 -10.15 -56.8 -10.1 -57.6 -10.4 -58.3 L-22.05 -70.95 Q-22.2 -71.95 -21.8 -72.8 -13.4 -74.35 -6.2 -78.9 -5.4 -79.45 -5.6 -80.25 -6.85 -85.4 -11.15 -89.3 L-11.15 -89.65 -11.15 -90.05 Q-12.2 -91.25 -12.65 -92.65 -12.1 -93.3 -12.15 -94.15 -11.15 -95.65 -9.55 -96.35 L-1.25 -103.45 -1.25 -103.8 -1.25 -104.9 Q-1.85 -106.0 -3.1 -106.05 -4.65 -107.55 -6.55 -108.65 -7.5 -109.8 -7.9 -110.85 L-4.35 -114.6 -4.25 -114.95 -4.2 -116.8 -5.2 -117.95 Q-5.1 -118.5 -5.3 -119.05 L-9.0 -122.7 -12.4 -126.25 -4.95 -125.65 Q-3.05 -125.5 -2.2 -127.25 L-2.25 -127.6 Q-2.75 -136.4 -3.7 -145.1 2.45 -140.3 10.95 -138.55 L12.4 -137.65 Q15.45 -139.15 17.7 -141.55 20.1 -144.15 22.45 -144.1 L22.6 -143.0 24.95 -140.4 25.0 -140.0 25.05 -138.9 27.55 -136.3 27.55 -135.9 27.55 -135.55 28.25 -135.05 Q33.7 -133.55 39.95 -134.55 L39.95 -134.2 39.95 -131.6 Q38.7 -128.75 38.7 -125.65 L37.95 -124.9 Q38.35 -122.9 36.95 -121.55 36.85 -120.0 36.35 -118.55 L35.5 -117.45 35.45 -117.05 35.6 -115.95 36.7 -115.35 Q38.35 -116.0 39.2 -117.55 L50.0 -123.25 50.85 -121.8 50.85 -121.4 50.85 -120.65 Q52.2 -119.4 52.75 -117.75 53.5 -115.8 55.2 -115.3 57.4 -114.7 59.65 -115.3 66.45 -117.25 72.7 -118.45 L72.7 -118.05 Q72.6 -112.25 72.8 -106.55 79.2 -105.5 85.2 -103.55" fill="#ffff00" fill-opacity="0.5019608" fill-rule="evenodd" stroke="none"/>
  </g>
</svg>
