<?xml version="1.0" encoding="UTF-8" standalone="no"?>
<svg xmlns:ffdec="https://www.free-decompiler.com/flash" xmlns:xlink="http://www.w3.org/1999/xlink" ffdec:objectType="shape" height="130.3px" width="86.05px" xmlns="http://www.w3.org/2000/svg">
  <g transform="matrix(1.0, 0.0, 0.0, 1.0, 24.2, 128.45)">
    <path d="M15.05 -128.45 Q19.9 -128.45 23.3 -125.05 26.7 -121.6 26.7 -116.75 26.7 -111.9 23.3 -108.5 22.3 -107.5 21.2 -106.8 39.6 -106.25 58.1 -105.85 62.4 -105.75 61.8 -101.75 61.3 -98.55 58.15 -97.95 53.15 -96.95 50.55 -100.65 L32.5 -100.8 Q34.05 -100.3 34.3 -98.0 34.65 -94.3 31.85 -91.65 25.2 -85.55 16.9 -82.0 13.4 -80.55 11.75 -83.35 L10.9 -85.3 Q10.1 -79.1 8.45 -73.1 L5.7 -62.1 Q8.35 -60.5 9.05 -56.9 L9.45 -55.9 Q15.2 -44.75 16.15 -32.2 16.5 -27.45 16.45 -22.75 16.25 -13.5 17.05 -4.5 L28.15 -2.95 28.95 -2.25 Q30.7 1.8 26.3 1.85 L25.25 1.6 Q18.8 2.5 13.3 -0.3 12.15 -0.9 12.0 -2.2 10.9 -13.75 11.15 -25.55 11.45 -39.05 5.45 -50.85 L3.95 -54.0 2.95 -48.9 Q1.3 -39.85 -1.3 -31.2 -3.25 -24.6 -8.35 -19.8 L-10.65 -17.25 Q-14.8 -11.6 -17.6 -5.35 -12.1 -6.35 -7.0 -4.3 -6.6 -4.15 -6.5 -3.65 -6.0 -0.8 -8.85 -0.45 -16.35 0.5 -23.55 -0.8 -24.1 -0.9 -24.15 -1.45 -24.4 -5.5 -22.3 -9.2 L-16.7 -18.25 Q-13.55 -23.1 -9.5 -27.05 -7.85 -29.25 -6.8 -31.75 L-6.55 -32.1 Q-5.55 -34.7 -5.35 -37.45 -5.35 -38.05 -4.85 -38.4 -1.8 -50.3 -0.15 -62.45 0.15 -64.5 1.05 -66.2 3.9 -78.25 5.85 -90.3 L6.25 -94.35 Q6.4 -101.1 7.7 -107.65 L6.75 -108.5 Q3.35 -111.9 3.35 -116.75 3.35 -121.6 6.75 -125.05 10.2 -128.45 15.05 -128.45 M30.25 -100.85 L15.05 -101.0 Q15.9 -94.45 16.1 -87.8 21.15 -89.75 25.9 -93.9 24.3 -99.45 30.0 -100.8 L30.25 -100.85" fill="#0c0c0c" fill-rule="evenodd" stroke="none"/>
  </g>
</svg>
