<?xml version="1.0" encoding="UTF-8" standalone="no"?>
<svg xmlns:ffdec="https://www.free-decompiler.com/flash" xmlns:xlink="http://www.w3.org/1999/xlink" ffdec:objectType="shape" height="164.15px" width="117.2px" xmlns="http://www.w3.org/2000/svg">
  <g transform="matrix(1.0, 0.0, 0.0, 1.0, 39.7, 142.25)">
    <path d="M26.95 -136.2 L26.95 -135.85 27.3 -135.5 27.5 -135.35 28.15 -135.05 Q29.5 -134.4 31.25 -134.1 L31.95 -134.05 32.3 -134.1 32.4 -134.05 33.65 -133.85 34.35 -133.9 34.95 -133.95 35.5 -134.1 36.7 -134.5 38.0 -134.8 38.05 -134.55 38.6 -132.75 Q38.3 -130.8 38.95 -128.55 L38.55 -128.0 38.75 -127.55 Q38.75 -126.05 37.8 -124.9 37.7 -123.4 37.25 -122.0 L37.2 -121.9 36.6 -120.9 36.55 -120.5 36.65 -119.45 37.45 -118.75 Q38.65 -118.85 39.25 -119.7 L41.75 -120.25 Q43.5 -120.65 45.35 -121.35 L49.0 -122.75 49.95 -121.6 50.05 -121.25 50.2 -120.65 51.5 -119.3 51.8 -118.4 51.8 -118.1 Q52.1 -116.35 53.1 -115.7 53.7 -115.35 54.3 -115.15 L54.7 -115.1 55.2 -115.0 55.8 -115.0 55.85 -115.0 58.5 -115.05 59.25 -115.1 67.0 -115.95 67.05 -115.65 Q68.2 -110.9 69.5 -106.15 L71.7 -105.7 72.15 -105.35 Q74.9 -103.95 77.5 -102.15 L76.9 -101.7 75.85 -100.55 75.05 -99.6 74.2 -99.25 73.85 -98.75 73.6 -98.4 73.45 -98.0 73.4 -97.7 Q72.65 -97.3 72.55 -96.15 L72.35 -95.95 71.75 -95.35 Q71.45 -94.0 71.55 -92.55 L72.55 -90.65 72.6 -90.35 72.65 -89.95 73.2 -89.15 Q73.65 -88.25 74.25 -87.5 L74.25 -86.65 64.9 -88.1 59.95 -88.1 59.3 -88.05 Q58.3 -87.5 57.7 -86.35 57.95 -84.35 56.65 -83.0 L56.55 -81.95 56.2 -81.15 55.9 -79.6 Q54.55 -77.4 52.65 -76.0 L52.2 -76.45 49.0 -79.7 Q46.7 -81.95 44.05 -81.35 L43.25 -80.95 42.75 -79.1 Q42.15 -76.65 41.85 -74.15 L41.65 -73.35 40.8 -71.0 40.35 -70.7 37.1 -70.7 33.9 -71.05 32.05 -71.3 31.35 -71.25 30.45 -71.1 29.55 -70.8 Q28.65 -70.5 27.75 -69.8 28.5 -66.9 30.6 -64.45 31.0 -63.2 31.75 -62.1 L29.7 -56.6 27.85 -54.55 27.45 -54.2 27.1 -53.95 27.0 -53.65 26.65 -51.45 Q27.8 -49.0 30.1 -47.5 L30.85 -46.15 33.2 -44.0 32.85 -43.35 32.95 -42.75 Q32.45 -42.25 32.45 -41.5 L32.05 -41.2 Q30.55 -39.35 29.45 -37.05 L29.5 -36.7 29.6 -36.35 28.95 -34.3 29.0 -34.0 Q29.1 -33.45 29.35 -32.95 L32.15 -31.45 32.65 -31.0 36.25 -28.4 37.65 -26.3 37.6 -26.15 37.3 -25.4 37.1 -25.1 37.0 -24.0 36.95 -23.95 35.85 -21.85 35.8 -20.9 35.4 -20.25 24.1 -20.7 5.45 -21.7 -24.2 -24.1 -26.35 -24.3 -26.5 -25.15 -27.3 -26.5 -27.6 -27.0 -27.9 -27.45 -28.8 -29.2 -29.9 -31.8 -30.05 -32.9 Q-24.2 -33.15 -19.3 -35.65 -18.8 -36.65 -18.85 -37.45 L-19.1 -38.3 -19.45 -38.85 -19.45 -39.1 -19.55 -39.65 -19.65 -39.95 -19.75 -40.35 -19.85 -40.65 -20.65 -41.25 -20.9 -41.45 -21.75 -42.75 -22.95 -45.35 -24.0 -47.65 Q-22.85 -47.95 -21.9 -49.05 -19.7 -49.6 -17.45 -50.95 L-16.85 -51.45 -16.05 -52.4 -15.95 -52.7 -15.9 -53.1 -15.65 -53.35 -15.15 -53.75 -14.0 -54.7 -13.2 -55.55 -11.7 -57.3 -12.1 -58.7 -13.4 -60.1 -13.9 -60.6 -14.15 -60.9 -14.9 -62.0 -15.2 -62.8 -15.55 -63.4 -16.15 -64.55 -16.75 -65.85 -19.4 -71.0 Q-19.4 -71.9 -19.0 -72.7 L-18.6 -72.9 -16.95 -73.7 Q-14.6 -75.05 -12.9 -76.45 L-11.4 -77.7 -8.65 -80.45 Q-8.15 -80.95 -8.2 -81.55 L-8.2 -81.8 -8.2 -82.15 Q-8.2 -86.35 -10.5 -89.9 L-10.45 -90.2 -10.35 -90.6 -10.8 -91.65 -11.2 -92.85 -11.3 -93.05 Q-10.85 -93.65 -10.9 -94.45 L-10.65 -95.0 -9.9 -96.25 -9.35 -96.75 -6.45 -101.25 -3.05 -103.45 -3.0 -103.7 -2.75 -104.6 Q-2.95 -105.45 -3.6 -105.55 L-5.2 -107.65 Q-5.6 -108.55 -5.6 -109.4 L-4.25 -110.45 -3.7 -111.15 -3.1 -112.05 -2.6 -112.9 -2.6 -113.25 -2.8 -114.95 -3.75 -116.05 -3.9 -116.75 -4.0 -117.1 -7.45 -120.7 -10.65 -124.2 -6.05 -125.1 -5.95 -125.1 Q-4.15 -125.0 -3.2 -126.3 L-3.1 -126.55 -2.2 -130.75 Q-2.0 -131.35 -1.95 -132.2 -1.9 -137.15 -2.3 -142.15 L0.6 -141.2 Q4.85 -138.85 9.75 -137.25 L10.8 -136.9 12.2 -136.1 Q15.15 -137.05 17.4 -139.55 L17.6 -139.8 18.2 -140.3 Q20.1 -142.0 21.95 -142.25 L22.2 -141.6 24.6 -140.2 24.7 -139.95 24.95 -139.3 25.3 -139.1 26.25 -137.85 26.95 -136.6 26.95 -136.2 M36.5 -13.8 L40.35 -13.65 42.2 -13.35 Q44.75 -13.0 46.65 -11.9 L47.7 -10.45 44.65 -6.85 Q40.85 -4.2 39.35 -0.4 L39.2 1.25 40.2 3.1 Q41.6 5.05 42.8 7.15 L44.15 9.65 Q44.8 10.35 45.25 11.2 43.3 11.25 41.85 12.3 39.25 12.7 37.3 14.55 L37.25 14.8 37.15 15.1 36.6 15.5 35.65 16.1 35.25 16.9 Q34.25 17.65 33.7 18.7 L33.45 19.3 Q32.5 20.2 31.8 21.25 L31.1 21.25 Q28.9 19.85 26.3 18.95 L25.55 18.3 25.2 18.05 24.75 17.7 24.25 17.35 23.85 17.1 23.15 16.7 22.9 16.65 22.4 16.7 22.3 16.8 21.55 17.2 20.8 17.5 19.4 18.1 Q15.75 19.2 13.15 21.9 L12.45 21.65 10.75 18.95 8.85 16.4 Q7.05 14.5 5.2 13.05 L2.2 10.75 Q1.05 9.95 -0.4 10.75 L-5.35 13.6 -6.8 13.9 -11.9 15.35 -13.55 15.9 -13.7 15.75 Q-15.5 13.8 -16.15 11.7 -19.2 9.3 -23.5 10.95 L-25.55 11.75 -28.15 11.55 Q-26.55 8.35 -27.15 4.6 L-27.25 4.3 -27.65 3.9 Q-32.05 1.9 -36.1 -0.95 L-35.75 -1.05 -34.9 -1.35 Q-32.7 -2.1 -30.8 -3.4 L-30.15 -4.05 -30.0 -4.15 -30.5 -5.4 -32.55 -8.5 -34.8 -11.15 -39.65 -16.15 -39.7 -16.25 Q-34.45 -16.7 -29.55 -17.95 L-18.9 -17.05 7.2 -15.35 36.5 -13.8" fill="#ffff00" fill-opacity="0.5019608" fill-rule="evenodd" stroke="none"/>
  </g>
</svg>
