<?xml version="1.0" encoding="UTF-8" standalone="no"?>
<svg xmlns:ffdec="https://www.free-decompiler.com/flash" xmlns:xlink="http://www.w3.org/1999/xlink" ffdec:objectType="shape" height="129.65px" width="83.45px" xmlns="http://www.w3.org/2000/svg">
  <g transform="matrix(1.0, 0.0, 0.0, 1.0, 24.55, 127.9)">
    <path d="M7.9 -107.4 L7.3 -107.95 Q3.9 -111.35 3.9 -116.2 3.9 -121.05 7.3 -124.5 10.75 -127.9 15.6 -127.9 20.45 -127.9 23.85 -124.5 27.25 -121.05 27.25 -116.2 27.25 -111.35 23.85 -107.95 L21.7 -106.2 15.2 -106.05 15.4 -106.7 Q15.9 -111.8 9.7 -112.15 7.65 -112.0 7.3 -109.9 7.05 -108.4 7.9 -107.4" fill="#0c0c0c" fill-rule="evenodd" stroke="none"/>
    <path d="M21.7 -106.2 L36.35 -105.05 47.8 -104.2 Q52.35 -104.2 56.65 -103.05 57.75 -102.75 58.3 -101.7 60.2 -97.95 56.1 -96.4 52.5 -95.05 51.25 -98.15 L34.25 -99.2 32.9 -97.05 Q26.7 -88.55 19.75 -80.5 19.3 -79.95 18.55 -80.0 14.5 -80.45 14.15 -84.95 13.7 -90.6 12.2 -95.95 L12.05 -96.6 Q10.25 -86.85 10.0 -76.8 9.8 -67.75 8.6 -59.0 12.3 -51.45 15.1 -43.4 L15.25 -42.15 Q18.8 -37.3 17.75 -31.0 17.35 -28.85 17.3 -26.65 17.05 -15.95 17.8 -5.5 23.4 -4.7 28.8 -2.65 L29.3 -2.0 Q30.15 2.55 25.75 1.55 L14.8 -0.65 Q12.4 -1.05 12.3 -3.4 11.8 -15.45 12.0 -27.7 L12.1 -36.85 11.45 -37.85 11.25 -38.45 Q9.5 -41.75 8.55 -45.45 L8.2 -46.65 5.6 -51.85 Q3.65 -44.2 2.1 -36.5 0.9 -30.6 -2.9 -25.9 L-5.6 -22.5 Q-8.35 -18.9 -11.7 -15.85 L-17.3 -10.25 -18.0 -9.3 Q-14.2 -7.5 -9.4 -6.7 -8.7 -6.6 -8.25 -6.0 -5.5 -2.6 -9.8 -1.6 L-12.55 -1.75 -16.65 -2.7 Q-21.05 -3.35 -24.1 -6.0 -24.65 -6.45 -24.55 -7.3 -24.0 -12.25 -19.75 -15.65 -8.8 -24.4 -3.6 -37.1 -2.15 -40.65 -1.6 -44.5 L-1.1 -47.45 Q0.45 -54.1 1.6 -60.75 L1.9 -62.2 1.8 -62.5 Q1.7 -63.0 2.0 -63.4 L2.2 -63.6 Q2.65 -65.55 4.0 -66.45 L5.3 -86.05 Q5.7 -92.25 6.9 -98.35 7.75 -102.65 8.2 -107.1 L7.9 -107.4 Q7.05 -108.4 7.3 -109.9 7.65 -112.0 9.7 -112.15 15.9 -111.8 15.4 -106.7 L15.2 -106.05 21.7 -106.2 M16.5 -100.45 Q18.45 -96.3 19.3 -91.65 L19.6 -88.7 22.85 -92.9 23.9 -94.25 Q23.95 -94.8 24.25 -95.15 L25.6 -96.8 25.75 -97.4 Q26.25 -98.35 27.15 -99.0 L27.15 -100.05 26.1 -100.15 16.5 -100.7 16.5 -100.45" fill="#000000" fill-rule="evenodd" stroke="none"/>
  </g>
</svg>
